<?xml version="1.0" encoding="UTF-8" standalone="no"?>
<!DOCTYPE svg PUBLIC "-//W3C//DTD SVG 1.1//EN"
 "http://www.w3.org/Graphics/SVG/1.1/DTD/svg11.dtd">
<!-- Generated by graphviz version 14.0.2 (0)
 -->
<!-- Title: jack_port_unregister Pages: 1 -->
<!--zoomable 750 -->

<svg id="main" version="1.1" xmlns="http://www.w3.org/2000/svg" xmlns:xlink="http://www.w3.org/1999/xlink" xml:space="preserve" onload="init(evt)">

<style type="text/css"><![CDATA[
.node, .edge {opacity: 0.7;}
.node.selected, .edge.selected {opacity: 1;}
.edge:hover path { stroke: red; }
.edge:hover polygon { stroke: red; fill: red; }
]]></style>

<defs>
  <circle id="rim" cx="0" cy="0" r="7"/>
  <circle id="rim2" cx="0" cy="0" r="3.5"/>
  <g id="zoomPlus">
    <use xlink:href="#rim" fill="#404040"><set attributeName="fill" to="#808080" begin="zoomplus.mouseover" end="zoomplus.mouseout"/></use>
    <path d="M-4,0h8M0,-4v8" fill="none" stroke="white" stroke-width="1.5" pointer-events="none"/>
  </g>
  <g id="zoomMin">
    <use xlink:href="#rim" fill="#404040"><set attributeName="fill" to="#808080" begin="zoomminus.mouseover" end="zoomminus.mouseout"/></use>
    <path d="M-4,0h8" fill="none" stroke="white" stroke-width="1.5" pointer-events="none"/>
  </g>
  <g id="arrowUp" transform="translate(30 24)">
    <use xlink:href="#rim"/>
    <path pointer-events="none" fill="none" stroke="white" stroke-width="1.5" d="M0,-3.0v7 M-2.5,-0.5L0,-3.0L2.5,-0.5"/>
  </g>
  <g id="arrowRight" transform="rotate(90) translate(36 -43)">
    <use xlink:href="#rim"/>
    <path pointer-events="none" fill="none" stroke="white" stroke-width="1.5" d="M0,-3.0v7 M-2.5,-0.5L0,-3.0L2.5,-0.5"/>
  </g>
  <g id="arrowDown" transform="rotate(180) translate(-30 -48)">
    <use xlink:href="#rim"/>
    <path pointer-events="none" fill="none" stroke="white" stroke-width="1.5" d="M0,-3.0v7 M-2.5,-0.5L0,-3.0L2.5,-0.5"/>
  </g>
  <g id="arrowLeft" transform="rotate(270) translate(-36 17)">
    <use xlink:href="#rim"/>
    <path pointer-events="none" fill="none" stroke="white" stroke-width="1.5" d="M0,-3.0v7 M-2.5,-0.5L0,-3.0L2.5,-0.5"/>
  </g>
  <g id="resetDef">
    <use xlink:href="#rim2" fill="#404040"><set attributeName="fill" to="#808080" begin="reset.mouseover" end="reset.mouseout"/></use>
  </g>
</defs>
<script type="application/ecmascript">
var viewWidth = 603;
var viewHeight = 750;
var sectionId = 'dynsection-153';
</script>
<script type="application/ecmascript" xlink:href="svg.min.js"/>
<svg id="graph" class="graph">
<g id="viewport">
<title>jack_port_unregister</title>
<!-- Node1 -->
<g id="Node000001" class="node">
<title>Node1</title>
<g id="a_Node000001"><a xlink:title=" ">
<polygon fill="#999999" stroke="#666666" points="595,-318.88 491.25,-318.88 491.25,-299.62 595,-299.62 595,-318.88"/>
<text xml:space="preserve" text-anchor="middle" x="543.12" y="-305.38" font-family="Helvetica,sans-Serif" font-size="10.00">jack_port_unregister</text>
</a>
</g>
</g>
<!-- Node2 -->
<g id="Node000002" class="node">
<title>Node2</title>
<g id="a_Node000002"><a xlink:href="classJack_1_1JackAudioAdapter.html#a2b932f49c72c4276ae8920e76b5002ad" target="_top" xlink:title=" ">
<polygon fill="white" stroke="#666666" points="450.75,-704.5 329.75,-704.5 329.75,-674 450.75,-674 450.75,-704.5"/>
<text xml:space="preserve" text-anchor="start" x="337.75" y="-691" font-family="Helvetica,sans-Serif" font-size="10.00">Jack::JackAudioAdapter</text>
<text xml:space="preserve" text-anchor="middle" x="390.25" y="-679.75" font-family="Helvetica,sans-Serif" font-size="10.00">::FreePorts</text>
</a>
</g>
</g>
<!-- Node1&#45;&gt;Node2 -->
<g id="edge1_Node000001_Node000002" class="edge">
<title>Node1&#45;&gt;Node2</title>
<g id="a_edge1_Node000001_Node000002"><a xlink:title=" ">
<path fill="none" stroke="#63b8ff" d="M541.23,-330.55C537.98,-386.14 523.03,-538.36 455.25,-640.25 446.18,-653.88 432.03,-665.29 419.34,-673.66"/>
<polygon fill="#63b8ff" stroke="#63b8ff" points="544.73,-330.79 541.74,-320.63 537.74,-330.44 544.73,-330.79"/>
</a>
</g>
</g>
<!-- Node8 -->
<g id="Node000008" class="node">
<title>Node8</title>
<g id="a_Node000008"><a xlink:href="classJack_1_1JackNetMaster.html#ab41300e1a20c79467996c0d37b842a36" target="_top" xlink:title=" ">
<polygon fill="white" stroke="#666666" points="444.38,-631.5 336.12,-631.5 336.12,-601 444.38,-601 444.38,-631.5"/>
<text xml:space="preserve" text-anchor="start" x="344.12" y="-618" font-family="Helvetica,sans-Serif" font-size="10.00">Jack::JackNetMaster</text>
<text xml:space="preserve" text-anchor="middle" x="390.25" y="-606.75" font-family="Helvetica,sans-Serif" font-size="10.00">::FreePorts</text>
</a>
</g>
</g>
<!-- Node1&#45;&gt;Node8 -->
<g id="edge5_Node000001_Node000008" class="edge">
<title>Node1&#45;&gt;Node8</title>
<g id="a_edge5_Node000001_Node000008"><a xlink:title=" ">
<path fill="none" stroke="#63b8ff" d="M535.06,-329.94C521.64,-368.28 490.62,-452.57 455.25,-519.25 439.27,-549.37 416.5,-582 402.86,-600.69"/>
<polygon fill="#63b8ff" stroke="#63b8ff" points="538.32,-331.2 538.29,-320.61 531.71,-328.92 538.32,-331.2"/>
</a>
</g>
</g>
<!-- Node11 -->
<g id="Node000011" class="node">
<title>Node11</title>
<g id="a_Node000011"><a xlink:href="JackBridgeExport_8cpp.html#aa32f53ebd2bdc35d2fc12cd82a573592" target="_top" xlink:title=" ">
<polygon fill="white" stroke="#666666" points="455.25,-509.88 325.25,-509.88 325.25,-490.62 455.25,-490.62 455.25,-509.88"/>
<text xml:space="preserve" text-anchor="middle" x="390.25" y="-496.38" font-family="Helvetica,sans-Serif" font-size="10.00">jackbridge_port_unregister</text>
</a>
</g>
</g>
<!-- Node1&#45;&gt;Node11 -->
<g id="edge8_Node000001_Node000011" class="edge">
<title>Node1&#45;&gt;Node11</title>
<g id="a_edge8_Node000001_Node000011"><a xlink:title=" ">
<path fill="none" stroke="#63b8ff" d="M537.54,-329.96C528.39,-366.34 504.4,-441.7 455.25,-482.25 451.42,-485.41 447.07,-488.01 442.49,-490.16"/>
<polygon fill="#63b8ff" stroke="#63b8ff" points="540.83,-331.23 539.74,-320.7 534.02,-329.62 540.83,-331.23"/>
</a>
</g>
</g>
<!-- Node16 -->
<g id="Node000016" class="node">
<title>Node16</title>
<g id="a_Node000016"><a xlink:href="calfpytools_8cpp.html#a8fd78ca894324474325a501879444a85" target="_top" xlink:title=" ">
<polygon fill="white" stroke="#666666" points="439.5,-472.88 341,-472.88 341,-453.62 439.5,-453.62 439.5,-472.88"/>
<text xml:space="preserve" text-anchor="middle" x="390.25" y="-459.38" font-family="Helvetica,sans-Serif" font-size="10.00">jackport_unregister</text>
</a>
</g>
</g>
<!-- Node1&#45;&gt;Node16 -->
<g id="edge13_Node000001_Node000016" class="edge">
<title>Node1&#45;&gt;Node16</title>
<g id="a_edge13_Node000001_Node000016"><a xlink:title=" ">
<path fill="none" stroke="#63b8ff" d="M534.51,-329.44C522.31,-359.04 495.59,-413.97 455.25,-444.25 450.43,-447.87 444.93,-450.8 439.22,-453.17"/>
<polygon fill="#63b8ff" stroke="#63b8ff" points="537.62,-331.1 538.04,-320.51 531.11,-328.52 537.62,-331.1"/>
</a>
</g>
</g>
<!-- Node17 -->
<g id="Node000017" class="node">
<title>Node17</title>
<g id="a_Node000017"><a xlink:href="classJack_1_1JackProxyDriver.html#ac04ccbc28cbe003b3ff0fca8b333d80b" target="_top" xlink:title=" ">
<polygon fill="white" stroke="#666666" points="446.25,-435.5 334.25,-435.5 334.25,-405 446.25,-405 446.25,-435.5"/>
<text xml:space="preserve" text-anchor="start" x="342.25" y="-422" font-family="Helvetica,sans-Serif" font-size="10.00">Jack::JackProxyDriver</text>
<text xml:space="preserve" text-anchor="middle" x="390.25" y="-410.75" font-family="Helvetica,sans-Serif" font-size="10.00">::LoadSymbols</text>
</a>
</g>
</g>
<!-- Node1&#45;&gt;Node17 -->
<g id="edge14_Node000001_Node000017" class="edge">
<title>Node1&#45;&gt;Node17</title>
<g id="a_edge14_Node000001_Node000017"><a xlink:title=" ">
<path fill="none" stroke="#63b8ff" d="M527.5,-328.06C511.57,-347.46 484.41,-377.46 455.25,-396.25 450.46,-399.34 445.22,-402.11 439.86,-404.58"/>
<polygon fill="#63b8ff" stroke="#63b8ff" points="530.1,-330.41 533.63,-320.42 524.64,-326.03 530.1,-330.41"/>
</a>
</g>
</g>
<!-- Node20 -->
<g id="Node000020" class="node">
<title>Node20</title>
<g id="a_Node000020"><a xlink:href="src_23rdparty_2jack2_2tests_2test_8cpp.html#a0ddf1224851353fc92bfbff6f499fa97" target="_top" xlink:title=" ">
<polygon fill="white" stroke="#666666" points="408.75,-386.88 371.75,-386.88 371.75,-367.62 408.75,-367.62 408.75,-386.88"/>
<text xml:space="preserve" text-anchor="middle" x="390.25" y="-373.38" font-family="Helvetica,sans-Serif" font-size="10.00">main</text>
</a>
</g>
</g>
<!-- Node1&#45;&gt;Node20 -->
<g id="edge17_Node000001_Node000020" class="edge">
<title>Node1&#45;&gt;Node20</title>
<g id="a_edge17_Node000001_Node000020"><a xlink:title=" ">
<path fill="none" stroke="#63b8ff" d="M517.29,-325.25C500.31,-335.68 477.03,-349.01 455.25,-358.25 440.1,-364.68 422.06,-369.82 409.01,-373.12"/>
<polygon fill="#63b8ff" stroke="#63b8ff" points="519.06,-328.27 525.69,-320 515.35,-322.33 519.06,-328.27"/>
</a>
</g>
</g>
<!-- Node21 -->
<g id="Node000021" class="node">
<title>Node21</title>
<g id="a_Node000021"><a xlink:href="classJack_1_1JackProxyDriver.html#a67c0a6a6cb11b37d2788699b9fd68e04" target="_top" xlink:title=" ">
<polygon fill="white" stroke="#666666" points="453.38,-349.5 327.12,-349.5 327.12,-319 453.38,-319 453.38,-349.5"/>
<text xml:space="preserve" text-anchor="start" x="335.12" y="-336" font-family="Helvetica,sans-Serif" font-size="10.00">Jack::JackProxyDriver</text>
<text xml:space="preserve" text-anchor="middle" x="390.25" y="-324.75" font-family="Helvetica,sans-Serif" font-size="10.00">::PROXY_DEF_SYMBOL</text>
</a>
</g>
</g>
<!-- Node1&#45;&gt;Node21 -->
<g id="edge18_Node000001_Node000021" class="edge">
<title>Node1&#45;&gt;Node21</title>
<g id="a_edge18_Node000001_Node000021"><a xlink:title=" ">
<path fill="none" stroke="#63b8ff" d="M479.89,-319.56C471.27,-320.99 462.41,-322.46 453.79,-323.89"/>
<polygon fill="#63b8ff" stroke="#63b8ff" points="480.26,-323.05 489.55,-317.96 479.11,-316.14 480.26,-323.05"/>
</a>
</g>
</g>
<!-- Node22 -->
<g id="Node000022" class="node">
<title>Node22</title>
<g id="a_Node000022"><a xlink:href="classzyncarla_1_1JackMultiEngine.html#a6db6eb8f1184a622af24116dced014fa" target="_top" xlink:title=" ">
<polygon fill="white" stroke="#666666" points="453.75,-300.5 326.75,-300.5 326.75,-270 453.75,-270 453.75,-300.5"/>
<text xml:space="preserve" text-anchor="start" x="334.75" y="-287" font-family="Helvetica,sans-Serif" font-size="10.00">zyncarla::JackMultiEngine</text>
<text xml:space="preserve" text-anchor="middle" x="390.25" y="-275.75" font-family="Helvetica,sans-Serif" font-size="10.00">::Stop</text>
</a>
</g>
</g>
<!-- Node1&#45;&gt;Node22 -->
<g id="edge19_Node000001_Node000022" class="edge">
<title>Node1&#45;&gt;Node22</title>
<g id="a_edge19_Node000001_Node000022"><a xlink:title=" ">
<path fill="none" stroke="#63b8ff" d="M479.68,-299.32C471.22,-297.97 462.53,-296.59 454.05,-295.24"/>
<polygon fill="#63b8ff" stroke="#63b8ff" points="479.13,-302.77 489.55,-300.89 480.22,-295.86 479.13,-302.77"/>
</a>
</g>
</g>
<!-- Node24 -->
<g id="Node000024" class="node">
<title>Node24</title>
<g id="a_Node000024"><a xlink:href="classJackEngine.html#a17d966dfa088c3a33b84809386a4df19" target="_top" xlink:title=" ">
<polygon fill="white" stroke="#666666" points="447.38,-251.88 333.12,-251.88 333.12,-232.62 447.38,-232.62 447.38,-251.88"/>
<text xml:space="preserve" text-anchor="middle" x="390.25" y="-238.38" font-family="Helvetica,sans-Serif" font-size="10.00">JackEngine::stopAudio</text>
</a>
</g>
</g>
<!-- Node1&#45;&gt;Node24 -->
<g id="edge21_Node000001_Node000024" class="edge">
<title>Node1&#45;&gt;Node24</title>
<g id="a_edge21_Node000001_Node000024"><a xlink:title=" ">
<path fill="none" stroke="#63b8ff" d="M516.62,-293.24C499.69,-283.09 476.7,-270.24 455.25,-261.25 447.23,-257.89 438.42,-254.87 429.97,-252.28"/>
<polygon fill="#63b8ff" stroke="#63b8ff" points="514.66,-296.14 525.02,-298.36 518.31,-290.16 514.66,-296.14"/>
</a>
</g>
</g>
<!-- Node27 -->
<g id="Node000027" class="node">
<title>Node27</title>
<g id="a_Node000027"><a xlink:href="classzyncarla_1_1JackEngine.html#a17d966dfa088c3a33b84809386a4df19" target="_top" xlink:title=" ">
<polygon fill="white" stroke="#666666" points="443.25,-177.5 337.25,-177.5 337.25,-147 443.25,-147 443.25,-177.5"/>
<text xml:space="preserve" text-anchor="start" x="345.25" y="-164" font-family="Helvetica,sans-Serif" font-size="10.00">zyncarla::JackEngine</text>
<text xml:space="preserve" text-anchor="middle" x="390.25" y="-152.75" font-family="Helvetica,sans-Serif" font-size="10.00">::stopAudio</text>
</a>
</g>
</g>
<!-- Node1&#45;&gt;Node27 -->
<g id="edge24_Node000001_Node000027" class="edge">
<title>Node1&#45;&gt;Node27</title>
<g id="a_edge24_Node000001_Node000027"><a xlink:title=" ">
<path fill="none" stroke="#63b8ff" d="M532.82,-289.3C519.31,-262.36 491.83,-214.48 455.25,-186.25 451.21,-183.13 446.72,-180.38 442.05,-177.97"/>
<polygon fill="#63b8ff" stroke="#63b8ff" points="529.57,-290.62 537.08,-298.09 535.86,-287.56 529.57,-290.62"/>
</a>
</g>
</g>
<!-- Node30 -->
<g id="Node000030" class="node">
<title>Node30</title>
<g id="a_Node000030"><a xlink:href="classJackEngine.html#ae0f4f6587b969a663c76644a120c27ac" target="_top" xlink:title=" ">
<polygon fill="white" stroke="#666666" points="444,-214.88 336.5,-214.88 336.5,-195.62 444,-195.62 444,-214.88"/>
<text xml:space="preserve" text-anchor="middle" x="390.25" y="-201.38" font-family="Helvetica,sans-Serif" font-size="10.00">JackEngine::stopMidi</text>
</a>
</g>
</g>
<!-- Node1&#45;&gt;Node30 -->
<g id="edge27_Node000001_Node000030" class="edge">
<title>Node1&#45;&gt;Node30</title>
<g id="a_edge27_Node000001_Node000030"><a xlink:title=" ">
<path fill="none" stroke="#63b8ff" d="M528.01,-290.48C512.32,-270.91 485.22,-240.7 455.25,-223.25 449.86,-220.11 443.9,-217.5 437.85,-215.33"/>
<polygon fill="#63b8ff" stroke="#63b8ff" points="525.1,-292.45 534.01,-298.18 530.63,-288.14 525.1,-292.45"/>
</a>
</g>
</g>
<!-- Node32 -->
<g id="Node000032" class="node">
<title>Node32</title>
<g id="a_Node000032"><a xlink:href="classzyncarla_1_1JackEngine.html#ae0f4f6587b969a663c76644a120c27ac" target="_top" xlink:title=" ">
<polygon fill="white" stroke="#666666" points="443.25,-128.5 337.25,-128.5 337.25,-98 443.25,-98 443.25,-128.5"/>
<text xml:space="preserve" text-anchor="start" x="345.25" y="-115" font-family="Helvetica,sans-Serif" font-size="10.00">zyncarla::JackEngine</text>
<text xml:space="preserve" text-anchor="middle" x="390.25" y="-103.75" font-family="Helvetica,sans-Serif" font-size="10.00">::stopMidi</text>
</a>
</g>
</g>
<!-- Node1&#45;&gt;Node32 -->
<g id="edge30_Node000001_Node000032" class="edge">
<title>Node1&#45;&gt;Node32</title>
<g id="a_edge30_Node000001_Node000032"><a xlink:title=" ">
<path fill="none" stroke="#63b8ff" d="M536.78,-288.28C526.7,-252.7 501.59,-180.27 455.25,-138.25 451.27,-134.64 446.72,-131.53 441.91,-128.86"/>
<polygon fill="#63b8ff" stroke="#63b8ff" points="533.36,-289.02 539.34,-297.76 540.12,-287.19 533.36,-289.02"/>
</a>
</g>
</g>
<!-- Node34 -->
<g id="Node000034" class="node">
<title>Node34</title>
<g id="a_Node000034"><a xlink:href="structExternalMetro.html#a9d5c961cb47c21c8709710f1a7effc55" target="_top" xlink:title=" ">
<polygon fill="white" stroke="#666666" points="450,-79.5 330.5,-79.5 330.5,-49 450,-49 450,-79.5"/>
<text xml:space="preserve" text-anchor="start" x="338.5" y="-66" font-family="Helvetica,sans-Serif" font-size="10.00">ExternalMetro::~External</text>
<text xml:space="preserve" text-anchor="middle" x="390.25" y="-54.75" font-family="Helvetica,sans-Serif" font-size="10.00">Metro</text>
</a>
</g>
</g>
<!-- Node1&#45;&gt;Node34 -->
<g id="edge33_Node000001_Node000034" class="edge">
<title>Node1&#45;&gt;Node34</title>
<g id="a_edge33_Node000001_Node000034"><a xlink:title=" ">
<path fill="none" stroke="#63b8ff" d="M539.46,-288.13C532.94,-245.01 512.32,-146.11 455.25,-89.25 451.62,-85.63 447.4,-82.52 442.89,-79.85"/>
<polygon fill="#63b8ff" stroke="#63b8ff" points="535.97,-288.48 540.82,-297.9 542.91,-287.51 535.97,-288.48"/>
</a>
</g>
</g>
<!-- Node35 -->
<g id="Node000035" class="node">
<title>Node35</title>
<g id="a_Node000035"><a xlink:href="structJack_1_1JackProfilerClient.html#a90e91691dac8d66b4a60d8c583c011fe" target="_top" xlink:title=" ">
<polygon fill="white" stroke="#666666" points="448.88,-30.5 331.62,-30.5 331.62,0 448.88,0 448.88,-30.5"/>
<text xml:space="preserve" text-anchor="start" x="339.62" y="-17" font-family="Helvetica,sans-Serif" font-size="10.00">Jack::JackProfilerClient</text>
<text xml:space="preserve" text-anchor="middle" x="390.25" y="-5.75" font-family="Helvetica,sans-Serif" font-size="10.00">::~JackProfilerClient</text>
</a>
</g>
</g>
<!-- Node1&#45;&gt;Node35 -->
<g id="edge34_Node000001_Node000035" class="edge">
<title>Node1&#45;&gt;Node35</title>
<g id="a_edge34_Node000001_Node000035"><a xlink:title=" ">
<path fill="none" stroke="#63b8ff" d="M541.23,-287.97C538,-238.09 523.19,-112.39 455.25,-40.25 451.9,-36.69 447.98,-33.63 443.76,-31"/>
<polygon fill="#63b8ff" stroke="#63b8ff" points="537.72,-287.88 541.75,-297.68 544.71,-287.5 537.72,-287.88"/>
</a>
</g>
</g>
<!-- Node3 -->
<g id="Node000003" class="node">
<title>Node3</title>
<g id="a_Node000003"><a xlink:href="classJack_1_1JackAudioAdapter.html#a0b5cf4c915f11b4bec9e8f4b0b9f58e1" target="_top" xlink:title=" ">
<polygon fill="white" stroke="#666666" points="279.12,-729.5 158.12,-729.5 158.12,-699 279.12,-699 279.12,-729.5"/>
<text xml:space="preserve" text-anchor="start" x="166.12" y="-716" font-family="Helvetica,sans-Serif" font-size="10.00">Jack::JackAudioAdapter</text>
<text xml:space="preserve" text-anchor="middle" x="218.62" y="-704.75" font-family="Helvetica,sans-Serif" font-size="10.00">::Open</text>
</a>
</g>
</g>
<!-- Node2&#45;&gt;Node3 -->
<g id="edge2_Node000002_Node000003" class="edge">
<title>Node2&#45;&gt;Node3</title>
<g id="a_edge2_Node000002_Node000003"><a xlink:title=" ">
<path fill="none" stroke="#63b8ff" d="M318.25,-699.71C305.35,-701.62 292,-703.58 279.46,-705.43"/>
<polygon fill="#63b8ff" stroke="#63b8ff" points="318.57,-703.21 327.95,-698.28 317.55,-696.28 318.57,-703.21"/>
</a>
</g>
</g>
<!-- Node4 -->
<g id="Node000004" class="node">
<title>Node4</title>
<g id="a_Node000004"><a xlink:href="JackNetAdapter_8cpp.html#a5eab4f9f2007e0b26a0b280c052a9ca9" target="_top" xlink:title=" ">
<polygon fill="#fff0f0" stroke="red" points="111.25,-704.88 0.75,-704.88 0.75,-685.62 111.25,-685.62 111.25,-704.88"/>
<text xml:space="preserve" text-anchor="middle" x="56" y="-691.38" font-family="Helvetica,sans-Serif" font-size="10.00">jack_internal_initialize</text>
</a>
</g>
</g>
<!-- Node3&#45;&gt;Node4 -->
<g id="edge3_Node000003_Node000004" class="edge">
<title>Node3&#45;&gt;Node4</title>
<g id="a_edge3_Node000003_Node000004"><a xlink:title=" ">
<path fill="none" stroke="#63b8ff" d="M146.65,-705.85C134.88,-704.46 122.84,-703.04 111.56,-701.7"/>
<polygon fill="#63b8ff" stroke="#63b8ff" points="145.97,-709.3 156.31,-707 146.79,-702.35 145.97,-709.3"/>
</a>
</g>
</g>
<!-- Node6 -->
<g id="Node000006" class="node">
<title>Node6</title>
<g id="a_Node000006"><a xlink:href="JackAudioAdapterFactory_8cpp.html#a0d9cd8bbb0508b2ffad8932d99ae8fe2" target="_top" xlink:title=" ">
<polygon fill="#fff0f0" stroke="red" points="111.25,-741.88 0.75,-741.88 0.75,-722.62 111.25,-722.62 111.25,-741.88"/>
<text xml:space="preserve" text-anchor="middle" x="56" y="-728.38" font-family="Helvetica,sans-Serif" font-size="10.00">jack_internal_initialize</text>
</a>
</g>
</g>
<!-- Node3&#45;&gt;Node6 -->
<g id="edge4_Node000003_Node000006" class="edge">
<title>Node3&#45;&gt;Node6</title>
<g id="a_edge4_Node000003_Node000006"><a xlink:title=" ">
<path fill="none" stroke="#63b8ff" d="M146.65,-722.2C134.88,-723.52 122.84,-724.87 111.56,-726.14"/>
<polygon fill="#63b8ff" stroke="#63b8ff" points="146.76,-725.71 156.31,-721.12 145.98,-718.76 146.76,-725.71"/>
</a>
</g>
</g>
<!-- Node9 -->
<g id="Node000009" class="node">
<title>Node9</title>
<g id="a_Node000009"><a xlink:href="classJack_1_1JackNetMaster.html#a1b122f461002ed5950e20173df0ea302" target="_top" xlink:title=" ">
<polygon fill="white" stroke="#666666" points="272.75,-631.5 164.5,-631.5 164.5,-601 272.75,-601 272.75,-631.5"/>
<text xml:space="preserve" text-anchor="start" x="172.5" y="-618" font-family="Helvetica,sans-Serif" font-size="10.00">Jack::JackNetMaster</text>
<text xml:space="preserve" text-anchor="middle" x="218.62" y="-606.75" font-family="Helvetica,sans-Serif" font-size="10.00">::Init</text>
</a>
</g>
</g>
<!-- Node8&#45;&gt;Node9 -->
<g id="edge6_Node000008_Node000009" class="edge">
<title>Node8&#45;&gt;Node9</title>
<g id="a_edge6_Node000008_Node000009"><a xlink:title=" ">
<path fill="none" stroke="#63b8ff" d="M324.53,-616.25C307.59,-616.25 289.52,-616.25 273.22,-616.25"/>
<polygon fill="#63b8ff" stroke="#63b8ff" points="324.53,-619.75 334.53,-616.25 324.53,-612.75 324.53,-619.75"/>
</a>
</g>
</g>
<!-- Node10 -->
<g id="Node000010" class="node">
<title>Node10</title>
<g id="a_Node000010"><a xlink:href="classJack_1_1JackNetMaster.html#a73129fb706bc51636c643a655c7c5545" target="_top" xlink:title=" ">
<polygon fill="white" stroke="#666666" points="272.75,-680.5 164.5,-680.5 164.5,-650 272.75,-650 272.75,-680.5"/>
<text xml:space="preserve" text-anchor="start" x="172.5" y="-667" font-family="Helvetica,sans-Serif" font-size="10.00">Jack::JackNetMaster</text>
<text xml:space="preserve" text-anchor="middle" x="218.62" y="-655.75" font-family="Helvetica,sans-Serif" font-size="10.00">::~JackNetMaster</text>
</a>
</g>
</g>
<!-- Node8&#45;&gt;Node10 -->
<g id="edge7_Node000008_Node000010" class="edge">
<title>Node8&#45;&gt;Node10</title>
<g id="a_edge7_Node000008_Node000010"><a xlink:title=" ">
<path fill="none" stroke="#63b8ff" d="M325.02,-634.8C307.94,-639.74 289.67,-645.02 273.22,-649.77"/>
<polygon fill="#63b8ff" stroke="#63b8ff" points="325.96,-638.18 334.59,-632.04 324.01,-631.45 325.96,-638.18"/>
</a>
</g>
</g>
<!-- Node12 -->
<g id="Node000012" class="node">
<title>Node12</title>
<g id="a_Node000012"><a xlink:href="JackBridge3_8cpp.html#aede31335666c1c498c12faf88079264f" target="_top" xlink:title=" ">
<polygon fill="white" stroke="#666666" points="279.12,-435.5 158.12,-435.5 158.12,-405 279.12,-405 279.12,-435.5"/>
<text xml:space="preserve" text-anchor="start" x="166.12" y="-422" font-family="Helvetica,sans-Serif" font-size="10.00">jackbridge_get_exported</text>
<text xml:space="preserve" text-anchor="middle" x="218.62" y="-410.75" font-family="Helvetica,sans-Serif" font-size="10.00">_functions</text>
</a>
</g>
</g>
<!-- Node11&#45;&gt;Node12 -->
<g id="edge9_Node000011_Node000012" class="edge">
<title>Node11&#45;&gt;Node12</title>
<g id="a_edge9_Node000011_Node000012"><a xlink:title=" ">
<path fill="none" stroke="#63b8ff" d="M331.91,-485.81C329.62,-484.7 327.39,-483.52 325.25,-482.25 305.53,-470.52 308.54,-457.67 289.25,-445.25 283.74,-441.7 277.67,-438.58 271.47,-435.85"/>
<polygon fill="#63b8ff" stroke="#63b8ff" points="330.29,-488.93 340.87,-489.56 332.99,-482.47 330.29,-488.93"/>
</a>
</g>
</g>
<!-- Node13 -->
<g id="Node000013" class="node">
<title>Node13</title>
<g id="a_Node000013"><a xlink:href="classCarlaEngineJackAudioPort.html#ab6433cf4c90b1aee0b5b9e6178364ffa" target="_top" xlink:title=" ">
<polygon fill="white" stroke="#666666" points="289.25,-582.5 148,-582.5 148,-552 289.25,-552 289.25,-582.5"/>
<text xml:space="preserve" text-anchor="start" x="156" y="-569" font-family="Helvetica,sans-Serif" font-size="10.00">CarlaEngineJackAudioPort</text>
<text xml:space="preserve" text-anchor="middle" x="218.62" y="-557.75" font-family="Helvetica,sans-Serif" font-size="10.00">::~CarlaEngineJackAudioPort</text>
</a>
</g>
</g>
<!-- Node11&#45;&gt;Node13 -->
<g id="edge10_Node000011_Node000013" class="edge">
<title>Node11&#45;&gt;Node13</title>
<g id="a_edge10_Node000011_Node000013"><a xlink:title=" ">
<path fill="none" stroke="#63b8ff" d="M355.94,-514.76C336.58,-523.06 311.65,-533.53 289.25,-542.25 281.23,-545.37 272.64,-548.57 264.33,-551.59"/>
<polygon fill="#63b8ff" stroke="#63b8ff" points="357.17,-518.04 364.96,-510.87 354.4,-511.61 357.17,-518.04"/>
</a>
</g>
</g>
<!-- Node14 -->
<g id="Node000014" class="node">
<title>Node14</title>
<g id="a_Node000014"><a xlink:href="classCarlaEngineJackCVPort.html#ab374dd42cdac2b11fcd22248d74e6d13" target="_top" xlink:title=" ">
<polygon fill="white" stroke="#666666" points="283.62,-533.5 153.62,-533.5 153.62,-503 283.62,-503 283.62,-533.5"/>
<text xml:space="preserve" text-anchor="start" x="161.62" y="-520" font-family="Helvetica,sans-Serif" font-size="10.00">CarlaEngineJackCVPort</text>
<text xml:space="preserve" text-anchor="middle" x="218.62" y="-508.75" font-family="Helvetica,sans-Serif" font-size="10.00">::~CarlaEngineJackCVPort</text>
</a>
</g>
</g>
<!-- Node11&#45;&gt;Node14 -->
<g id="edge11_Node000011_Node000014" class="edge">
<title>Node11&#45;&gt;Node14</title>
<g id="a_edge11_Node000011_Node000014"><a xlink:title=" ">
<path fill="none" stroke="#63b8ff" d="M313.9,-508.25C303.87,-509.31 293.66,-510.39 283.84,-511.44"/>
<polygon fill="#63b8ff" stroke="#63b8ff" points="314.04,-511.75 323.62,-507.21 313.3,-504.79 314.04,-511.75"/>
</a>
</g>
</g>
<!-- Node15 -->
<g id="Node000015" class="node">
<title>Node15</title>
<g id="a_Node000015"><a xlink:href="classCarlaEngineJackEventPort.html#ad7b4e8738d57fbd878c28762374e23e7" target="_top" xlink:title=" ">
<polygon fill="white" stroke="#666666" points="289.25,-484.5 148,-484.5 148,-454 289.25,-454 289.25,-484.5"/>
<text xml:space="preserve" text-anchor="start" x="156" y="-471" font-family="Helvetica,sans-Serif" font-size="10.00">CarlaEngineJackEventPort</text>
<text xml:space="preserve" text-anchor="middle" x="218.62" y="-459.75" font-family="Helvetica,sans-Serif" font-size="10.00">::~CarlaEngineJackEventPort</text>
</a>
</g>
</g>
<!-- Node11&#45;&gt;Node15 -->
<g id="edge12_Node000011_Node000015" class="edge">
<title>Node11&#45;&gt;Node15</title>
<g id="a_edge12_Node000011_Node000015"><a xlink:title=" ">
<path fill="none" stroke="#63b8ff" d="M322.96,-488.13C312.01,-486.13 300.63,-484.05 289.59,-482.04"/>
<polygon fill="#63b8ff" stroke="#63b8ff" points="322.22,-491.56 332.69,-489.91 323.48,-484.67 322.22,-491.56"/>
</a>
</g>
</g>
<!-- Node18 -->
<g id="Node000018" class="node">
<title>Node18</title>
<g id="a_Node000018"><a xlink:href="classJack_1_1JackProxyDriver.html#a221d9e5ad5a0a9af9356e6ddfb2793aa" target="_top" xlink:title=" ">
<polygon fill="white" stroke="#666666" points="274.62,-386.5 162.62,-386.5 162.62,-356 274.62,-356 274.62,-386.5"/>
<text xml:space="preserve" text-anchor="start" x="170.62" y="-373" font-family="Helvetica,sans-Serif" font-size="10.00">Jack::JackProxyDriver</text>
<text xml:space="preserve" text-anchor="middle" x="218.62" y="-361.75" font-family="Helvetica,sans-Serif" font-size="10.00">::LoadClientLib</text>
</a>
</g>
</g>
<!-- Node17&#45;&gt;Node18 -->
<g id="edge15_Node000017_Node000018" class="edge">
<title>Node17&#45;&gt;Node18</title>
<g id="a_edge15_Node000017_Node000018"><a xlink:title=" ">
<path fill="none" stroke="#63b8ff" d="M324.39,-401.52C307.8,-396.72 290.13,-391.62 274.12,-386.99"/>
<polygon fill="#63b8ff" stroke="#63b8ff" points="323.08,-404.78 333.66,-404.19 325.02,-398.05 323.08,-404.78"/>
</a>
</g>
</g>
<!-- Node19 -->
<g id="Node000019" class="node">
<title>Node19</title>
<g id="a_Node000019"><a xlink:href="classJack_1_1JackProxyDriver.html#a72913fc0bbb4c562767639c58e437276" target="_top" xlink:title=" ">
<polygon fill="white" stroke="#666666" points="112,-386.5 0,-386.5 0,-356 112,-356 112,-386.5"/>
<text xml:space="preserve" text-anchor="start" x="8" y="-373" font-family="Helvetica,sans-Serif" font-size="10.00">Jack::JackProxyDriver</text>
<text xml:space="preserve" text-anchor="middle" x="56" y="-361.75" font-family="Helvetica,sans-Serif" font-size="10.00">::Open</text>
</a>
</g>
</g>
<!-- Node18&#45;&gt;Node19 -->
<g id="edge16_Node000018_Node000019" class="edge">
<title>Node18&#45;&gt;Node19</title>
<g id="a_edge16_Node000018_Node000019"><a xlink:title=" ">
<path fill="none" stroke="#63b8ff" d="M151.17,-371.25C138.27,-371.25 124.88,-371.25 112.38,-371.25"/>
<polygon fill="#63b8ff" stroke="#63b8ff" points="150.83,-374.75 160.83,-371.25 150.83,-367.75 150.83,-374.75"/>
</a>
</g>
</g>
<!-- Node23 -->
<g id="Node000023" class="node">
<title>Node23</title>
<g id="a_Node000023"><a xlink:href="classzyncarla_1_1JackMultiEngine.html#a90425a8a4a1c40a9424ac9d48de742c3" target="_top" xlink:title=" ">
<polygon fill="white" stroke="#666666" points="282.12,-337.5 155.12,-337.5 155.12,-307 282.12,-307 282.12,-337.5"/>
<text xml:space="preserve" text-anchor="start" x="163.12" y="-324" font-family="Helvetica,sans-Serif" font-size="10.00">zyncarla::JackMultiEngine</text>
<text xml:space="preserve" text-anchor="middle" x="218.62" y="-312.75" font-family="Helvetica,sans-Serif" font-size="10.00">::setAudioEn</text>
</a>
</g>
</g>
<!-- Node22&#45;&gt;Node23 -->
<g id="edge20_Node000022_Node000023" class="edge">
<title>Node22&#45;&gt;Node23</title>
<g id="a_edge20_Node000022_Node000023"><a xlink:title=" ">
<path fill="none" stroke="#63b8ff" d="M315.32,-301.38C304.42,-303.75 293.27,-306.19 282.61,-308.51"/>
<polygon fill="#63b8ff" stroke="#63b8ff" points="316.07,-304.8 325.09,-299.24 314.57,-297.96 316.07,-304.8"/>
</a>
</g>
</g>
<!-- Node25 -->
<g id="Node000025" class="node">
<title>Node25</title>
<g id="a_Node000025"><a xlink:href="classJackEngine.html#a24a9b3ba94257de6a58d48dcc886731a" target="_top" xlink:title=" ">
<polygon fill="white" stroke="#666666" points="278.75,-288.88 158.5,-288.88 158.5,-269.62 278.75,-269.62 278.75,-288.88"/>
<text xml:space="preserve" text-anchor="middle" x="218.62" y="-275.38" font-family="Helvetica,sans-Serif" font-size="10.00">JackEngine::setAudioEn</text>
</a>
</g>
</g>
<!-- Node24&#45;&gt;Node25 -->
<g id="edge22_Node000024_Node000025" class="edge">
<title>Node24&#45;&gt;Node25</title>
<g id="a_edge22_Node000024_Node000025"><a xlink:title=" ">
<path fill="none" stroke="#63b8ff" d="M331.93,-254.75C310.43,-259.44 286.29,-264.71 265.92,-269.15"/>
<polygon fill="#63b8ff" stroke="#63b8ff" points="332.4,-258.23 341.42,-252.68 330.9,-251.39 332.4,-258.23"/>
</a>
</g>
</g>
<!-- Node26 -->
<g id="Node000026" class="node">
<title>Node26</title>
<g id="a_Node000026"><a xlink:href="classJackEngine.html#a4f900ea2f2e5c70e82f0caae1cbd687f" target="_top" xlink:title=" ">
<polygon fill="white" stroke="#666666" points="264.12,-251.88 173.12,-251.88 173.12,-232.62 264.12,-232.62 264.12,-251.88"/>
<text xml:space="preserve" text-anchor="middle" x="218.62" y="-238.38" font-family="Helvetica,sans-Serif" font-size="10.00">JackEngine::Stop</text>
</a>
</g>
</g>
<!-- Node24&#45;&gt;Node26 -->
<g id="edge23_Node000024_Node000026" class="edge">
<title>Node24&#45;&gt;Node26</title>
<g id="a_edge23_Node000024_Node000026"><a xlink:title=" ">
<path fill="none" stroke="#63b8ff" d="M321.38,-242.25C302.29,-242.25 282.01,-242.25 264.61,-242.25"/>
<polygon fill="#63b8ff" stroke="#63b8ff" points="321.25,-245.75 331.25,-242.25 321.25,-238.75 321.25,-245.75"/>
</a>
</g>
</g>
<!-- Node28 -->
<g id="Node000028" class="node">
<title>Node28</title>
<g id="a_Node000028"><a xlink:href="classzyncarla_1_1JackEngine.html#a24a9b3ba94257de6a58d48dcc886731a" target="_top" xlink:title=" ">
<polygon fill="white" stroke="#666666" points="271.62,-177.5 165.62,-177.5 165.62,-147 271.62,-147 271.62,-177.5"/>
<text xml:space="preserve" text-anchor="start" x="173.62" y="-164" font-family="Helvetica,sans-Serif" font-size="10.00">zyncarla::JackEngine</text>
<text xml:space="preserve" text-anchor="middle" x="218.62" y="-152.75" font-family="Helvetica,sans-Serif" font-size="10.00">::setAudioEn</text>
</a>
</g>
</g>
<!-- Node27&#45;&gt;Node28 -->
<g id="edge25_Node000027_Node000028" class="edge">
<title>Node27&#45;&gt;Node28</title>
<g id="a_edge25_Node000027_Node000028"><a xlink:title=" ">
<path fill="none" stroke="#63b8ff" d="M325.59,-162.25C307.93,-162.25 288.96,-162.25 272.02,-162.25"/>
<polygon fill="#63b8ff" stroke="#63b8ff" points="325.46,-165.75 335.46,-162.25 325.46,-158.75 325.46,-165.75"/>
</a>
</g>
</g>
<!-- Node29 -->
<g id="Node000029" class="node">
<title>Node29</title>
<g id="a_Node000029"><a xlink:href="classzyncarla_1_1JackEngine.html#a4f900ea2f2e5c70e82f0caae1cbd687f" target="_top" xlink:title=" ">
<polygon fill="white" stroke="#666666" points="271.62,-128.5 165.62,-128.5 165.62,-98 271.62,-98 271.62,-128.5"/>
<text xml:space="preserve" text-anchor="start" x="173.62" y="-115" font-family="Helvetica,sans-Serif" font-size="10.00">zyncarla::JackEngine</text>
<text xml:space="preserve" text-anchor="middle" x="218.62" y="-103.75" font-family="Helvetica,sans-Serif" font-size="10.00">::Stop</text>
</a>
</g>
</g>
<!-- Node27&#45;&gt;Node29 -->
<g id="edge26_Node000027_Node000029" class="edge">
<title>Node27&#45;&gt;Node29</title>
<g id="a_edge26_Node000027_Node000029"><a xlink:title=" ">
<path fill="none" stroke="#63b8ff" d="M326.09,-144.01C308.29,-138.86 289.12,-133.33 272.02,-128.39"/>
<polygon fill="#63b8ff" stroke="#63b8ff" points="324.94,-147.32 335.52,-146.73 326.88,-140.59 324.94,-147.32"/>
</a>
</g>
</g>
<!-- Node30&#45;&gt;Node26 -->
<g id="edge29_Node000030_Node000026" class="edge">
<title>Node30&#45;&gt;Node26</title>
<g id="a_edge29_Node000030_Node000026"><a xlink:title=" ">
<path fill="none" stroke="#63b8ff" d="M331.7,-217.8C309.74,-222.59 285.06,-227.98 264.46,-232.47"/>
<polygon fill="#63b8ff" stroke="#63b8ff" points="332.4,-221.23 341.42,-215.68 330.9,-214.39 332.4,-221.23"/>
</a>
</g>
</g>
<!-- Node31 -->
<g id="Node000031" class="node">
<title>Node31</title>
<g id="a_Node000031"><a xlink:href="classJackEngine.html#a9fb3b5cff8df9850cd893e059433ec60" target="_top" xlink:title=" ">
<polygon fill="white" stroke="#666666" points="275.38,-214.88 161.88,-214.88 161.88,-195.62 275.38,-195.62 275.38,-214.88"/>
<text xml:space="preserve" text-anchor="middle" x="218.62" y="-201.38" font-family="Helvetica,sans-Serif" font-size="10.00">JackEngine::setMidiEn</text>
</a>
</g>
</g>
<!-- Node30&#45;&gt;Node31 -->
<g id="edge28_Node000030_Node000031" class="edge">
<title>Node30&#45;&gt;Node31</title>
<g id="a_edge28_Node000030_Node000031"><a xlink:title=" ">
<path fill="none" stroke="#63b8ff" d="M324.58,-205.25C308.54,-205.25 291.47,-205.25 275.87,-205.25"/>
<polygon fill="#63b8ff" stroke="#63b8ff" points="324.53,-208.75 334.53,-205.25 324.53,-201.75 324.53,-208.75"/>
</a>
</g>
</g>
<!-- Node32&#45;&gt;Node29 -->
<g id="edge32_Node000032_Node000029" class="edge">
<title>Node32&#45;&gt;Node29</title>
<g id="a_edge32_Node000032_Node000029"><a xlink:title=" ">
<path fill="none" stroke="#63b8ff" d="M325.59,-113.25C307.93,-113.25 288.96,-113.25 272.02,-113.25"/>
<polygon fill="#63b8ff" stroke="#63b8ff" points="325.46,-116.75 335.46,-113.25 325.46,-109.75 325.46,-116.75"/>
</a>
</g>
</g>
<!-- Node33 -->
<g id="Node000033" class="node">
<title>Node33</title>
<g id="a_Node000033"><a xlink:href="classzyncarla_1_1JackEngine.html#a9fb3b5cff8df9850cd893e059433ec60" target="_top" xlink:title=" ">
<polygon fill="white" stroke="#666666" points="271.62,-79.5 165.62,-79.5 165.62,-49 271.62,-49 271.62,-79.5"/>
<text xml:space="preserve" text-anchor="start" x="173.62" y="-66" font-family="Helvetica,sans-Serif" font-size="10.00">zyncarla::JackEngine</text>
<text xml:space="preserve" text-anchor="middle" x="218.62" y="-54.75" font-family="Helvetica,sans-Serif" font-size="10.00">::setMidiEn</text>
</a>
</g>
</g>
<!-- Node32&#45;&gt;Node33 -->
<g id="edge31_Node000032_Node000033" class="edge">
<title>Node32&#45;&gt;Node33</title>
<g id="a_edge31_Node000032_Node000033"><a xlink:title=" ">
<path fill="none" stroke="#63b8ff" d="M326.09,-95.01C308.29,-89.86 289.12,-84.33 272.02,-79.39"/>
<polygon fill="#63b8ff" stroke="#63b8ff" points="324.94,-98.32 335.52,-97.73 326.88,-91.59 324.94,-98.32"/>
</a>
</g>
</g>
</g>
</svg>

<g id="navigator" transform="translate(0 0)" fill="#404254">
  <rect fill="#f2f5e9" fill-opacity="0.5" stroke="#606060" stroke-width=".5" x="0" y="0" width="60" height="60"/>
  <use id="zoomplus" xlink:href="#zoomPlus" x="17" y="9" onmousedown="handleZoom(evt,'in')"/>
  <use id="zoomminus" xlink:href="#zoomMin" x="42" y="9" onmousedown="handleZoom(evt,'out')"/>
  <use id="reset" xlink:href="#resetDef" x="30" y="36" onmousedown="handleReset()"/>
   <use id="arrowup" xlink:href="#arrowUp" x="0" y="0" onmousedown="handlePan(0,-1)"/>
  <use id="arrowright" xlink:href="#arrowRight" x="0" y="0" onmousedown="handlePan(1,0)"/>
  <use id="arrowdown" xlink:href="#arrowDown" x="0" y="0" onmousedown="handlePan(0,1)"/>
  <use id="arrowleft" xlink:href="#arrowLeft" x="0" y="0" onmousedown="handlePan(-1,0)"/>
</g>
<svg viewBox="0 0 15 15" width="100%" height="30px" preserveAspectRatio="xMaxYMin meet">
 <g id="arrow_out" transform="scale(0.3 0.3)">
  <a xlink:href="api_8hpp_abea95c00c137cae3edc8f4ced306c12d_icgraph_org.svg" target="_base">
   <rect id="button" ry="5" rx="5" y="6" x="6" height="38" width="38"
        fill="#f2f5e9" fill-opacity="0.5" stroke="#606060" stroke-width="1.0"/>
   <path id="arrow"
     d="M 11.500037,31.436501 C 11.940474,20.09759 22.043105,11.32322 32.158766,21.979434 L 37.068811,17.246167 C 37.068811,17.246167 37.088388,32 37.088388,32 L 22.160133,31.978069 C 22.160133,31.978069 26.997745,27.140456 26.997745,27.140456 C 18.528582,18.264221 13.291696,25.230495 11.500037,31.436501 z"
     style="fill:#404040;"/>
  </a>
 </g>
</svg>

<style type='text/css'>
<![CDATA[
[data-mouse-over-selected='false'] { opacity: 0.7; }
[data-mouse-over-selected='true']  { opacity: 1.0; }
]]>
</style>
<script type="application/ecmascript"><![CDATA[
document.addEventListener('DOMContentLoaded', (event) => {
  highlightEdges();
  highlightAdjacentNodes();
});
]]></script>
</svg>
