<?xml version="1.0" encoding="UTF-8" standalone="no"?>
<!DOCTYPE svg PUBLIC "-//W3C//DTD SVG 1.1//EN"
 "http://www.w3.org/Graphics/SVG/1.1/DTD/svg11.dtd">
<!-- Generated by graphviz version 14.0.2 (0)
 -->
<!-- Title: get_cached_plugin_lv2 Pages: 1 -->
<!--zoomable 779 -->

<svg id="main" version="1.1" xmlns="http://www.w3.org/2000/svg" xmlns:xlink="http://www.w3.org/1999/xlink" xml:space="preserve" onload="init(evt)">

<style type="text/css"><![CDATA[
.node, .edge {opacity: 0.7;}
.node.selected, .edge.selected {opacity: 1;}
.edge:hover path { stroke: red; }
.edge:hover polygon { stroke: red; fill: red; }
]]></style>

<defs>
  <circle id="rim" cx="0" cy="0" r="7"/>
  <circle id="rim2" cx="0" cy="0" r="3.5"/>
  <g id="zoomPlus">
    <use xlink:href="#rim" fill="#404040"><set attributeName="fill" to="#808080" begin="zoomplus.mouseover" end="zoomplus.mouseout"/></use>
    <path d="M-4,0h8M0,-4v8" fill="none" stroke="white" stroke-width="1.5" pointer-events="none"/>
  </g>
  <g id="zoomMin">
    <use xlink:href="#rim" fill="#404040"><set attributeName="fill" to="#808080" begin="zoomminus.mouseover" end="zoomminus.mouseout"/></use>
    <path d="M-4,0h8" fill="none" stroke="white" stroke-width="1.5" pointer-events="none"/>
  </g>
  <g id="arrowUp" transform="translate(30 24)">
    <use xlink:href="#rim"/>
    <path pointer-events="none" fill="none" stroke="white" stroke-width="1.5" d="M0,-3.0v7 M-2.5,-0.5L0,-3.0L2.5,-0.5"/>
  </g>
  <g id="arrowRight" transform="rotate(90) translate(36 -43)">
    <use xlink:href="#rim"/>
    <path pointer-events="none" fill="none" stroke="white" stroke-width="1.5" d="M0,-3.0v7 M-2.5,-0.5L0,-3.0L2.5,-0.5"/>
  </g>
  <g id="arrowDown" transform="rotate(180) translate(-30 -48)">
    <use xlink:href="#rim"/>
    <path pointer-events="none" fill="none" stroke="white" stroke-width="1.5" d="M0,-3.0v7 M-2.5,-0.5L0,-3.0L2.5,-0.5"/>
  </g>
  <g id="arrowLeft" transform="rotate(270) translate(-36 17)">
    <use xlink:href="#rim"/>
    <path pointer-events="none" fill="none" stroke="white" stroke-width="1.5" d="M0,-3.0v7 M-2.5,-0.5L0,-3.0L2.5,-0.5"/>
  </g>
  <g id="resetDef">
    <use xlink:href="#rim2" fill="#404040"><set attributeName="fill" to="#808080" begin="reset.mouseover" end="reset.mouseout"/></use>
  </g>
</defs>
<script type="application/ecmascript">
var viewWidth = 590;
var viewHeight = 779;
var sectionId = 'dynsection-7';
</script>
<script type="application/ecmascript" xlink:href="svg.min.js"/>
<svg id="graph" class="graph">
<g id="viewport">
<title>get_cached_plugin_lv2</title>
<!-- Node1 -->
<g id="Node000001" class="node">
<title>Node1</title>
<g id="a_Node000001"><a xlink:title=" ">
<polygon fill="#999999" stroke="#666666" points="115,-389.25 0,-389.25 0,-370 115,-370 115,-389.25"/>
<text xml:space="preserve" text-anchor="middle" x="57.5" y="-375.75" font-family="Helvetica,sans-Serif" font-size="10.00">get_cached_plugin_lv2</text>
</a>
</g>
</g>
<!-- Node2 -->
<g id="Node000002" class="node">
<title>Node2</title>
<g id="a_Node000002"><a xlink:href="classCarlaString.html#a61028a053be9c26c1a71a1395d208d1d" target="_top" xlink:title=" ">
<polygon fill="white" stroke="#666666" points="266.75,-771.25 174.25,-771.25 174.25,-752 266.75,-752 266.75,-771.25"/>
<text xml:space="preserve" text-anchor="middle" x="220.5" y="-757.75" font-family="Helvetica,sans-Serif" font-size="10.00">CarlaString::buffer</text>
</a>
</g>
</g>
<!-- Node1&#45;&gt;Node2 -->
<g id="edge1_Node000001_Node000002" class="edge">
<title>Node1&#45;&gt;Node2</title>
<g id="a_edge1_Node000001_Node000002"><a xlink:title=" ">
<path fill="none" stroke="#63b8ff" d="M59.66,-389.49C66.03,-442.26 98.54,-690.74 151,-743.62 154.6,-747.26 158.85,-750.19 163.43,-752.54"/>
<polygon fill="#63b8ff" stroke="#63b8ff" points="161.89,-755.69 172.47,-756.26 164.55,-749.22 161.89,-755.69"/>
</a>
</g>
</g>
<!-- Node3 -->
<g id="Node000003" class="node">
<title>Node3</title>
<g id="a_Node000003"><a xlink:href="CarlaUtils_8hpp.html#a941976468e634e751aeeb433f1b5708c" target="_top" xlink:title=" ">
<polygon fill="white" stroke="#666666" points="254,-734.25 187,-734.25 187,-715 254,-715 254,-734.25"/>
<text xml:space="preserve" text-anchor="middle" x="220.5" y="-720.75" font-family="Helvetica,sans-Serif" font-size="10.00">carla_stderr</text>
</a>
</g>
</g>
<!-- Node1&#45;&gt;Node3 -->
<g id="edge2_Node000001_Node000003" class="edge">
<title>Node1&#45;&gt;Node3</title>
<g id="a_edge2_Node000001_Node000003"><a xlink:title=" ">
<path fill="none" stroke="#63b8ff" d="M58.04,-389.63C56.6,-433.93 56.89,-614.26 151,-706.62 157.74,-713.24 166.6,-717.5 175.7,-720.23"/>
<polygon fill="#63b8ff" stroke="#63b8ff" points="174.78,-723.61 185.32,-722.51 176.39,-716.8 174.78,-723.61"/>
</a>
</g>
</g>
<!-- Node5 -->
<g id="Node000005" class="node">
<title>Node5</title>
<g id="a_Node000005"><a xlink:href="classCarlaString.html#ae922c88bc143cdf95db2477cbdee4b27" target="_top" xlink:title=" ">
<polygon fill="white" stroke="#666666" points="265.25,-697.25 175.75,-697.25 175.75,-678 265.25,-678 265.25,-697.25"/>
<text xml:space="preserve" text-anchor="middle" x="220.5" y="-683.75" font-family="Helvetica,sans-Serif" font-size="10.00">CarlaString::clear</text>
</a>
</g>
</g>
<!-- Node1&#45;&gt;Node5 -->
<g id="edge4_Node000001_Node000005" class="edge">
<title>Node1&#45;&gt;Node5</title>
<g id="a_edge4_Node000001_Node000005"><a xlink:title=" ">
<path fill="none" stroke="#63b8ff" d="M58.46,-389.61C58.87,-430.8 66.11,-589.03 151,-669.62 155.02,-673.45 159.76,-676.48 164.83,-678.88"/>
<polygon fill="#63b8ff" stroke="#63b8ff" points="163.57,-682.15 174.16,-682.45 166.07,-675.61 163.57,-682.15"/>
</a>
</g>
</g>
<!-- Node9 -->
<g id="Node000009" class="node">
<title>Node9</title>
<g id="a_Node000009"><a xlink:href="structLilv_1_1Node.html#a098ab06153abb2d0bf6c1729fea156a7" target="_top" xlink:title=" ">
<polygon fill="white" stroke="#666666" points="266.75,-660.25 174.25,-660.25 174.25,-641 266.75,-641 266.75,-660.25"/>
<text xml:space="preserve" text-anchor="middle" x="220.5" y="-646.75" font-family="Helvetica,sans-Serif" font-size="10.00">Lilv::Node::equals</text>
</a>
</g>
</g>
<!-- Node1&#45;&gt;Node9 -->
<g id="edge7_Node000001_Node000009" class="edge">
<title>Node1&#45;&gt;Node9</title>
<g id="a_edge7_Node000001_Node000009"><a xlink:title=" ">
<path fill="none" stroke="#63b8ff" d="M59.04,-389.56C61.61,-427.21 75.96,-562.45 151,-631.62 154.72,-635.06 159.02,-637.88 163.6,-640.2"/>
<polygon fill="#63b8ff" stroke="#63b8ff" points="162,-643.32 172.58,-643.92 164.68,-636.86 162,-643.32"/>
</a>
</g>
</g>
<!-- Node13 -->
<g id="Node000013" class="node">
<title>Node13</title>
<g id="a_Node000013"><a xlink:href="structLilv_1_1Plugin.html#ae0123305554ca8137c34a0702b0613f4" target="_top" xlink:title=" ">
<polygon fill="white" stroke="#666666" points="272,-622.88 169,-622.88 169,-592.38 272,-592.38 272,-622.88"/>
<text xml:space="preserve" text-anchor="start" x="177" y="-609.38" font-family="Helvetica,sans-Serif" font-size="10.00">Lilv::Plugin::get_port</text>
<text xml:space="preserve" text-anchor="middle" x="220.5" y="-598.12" font-family="Helvetica,sans-Serif" font-size="10.00">_by_index</text>
</a>
</g>
</g>
<!-- Node1&#45;&gt;Node13 -->
<g id="edge11_Node000001_Node000013" class="edge">
<title>Node1&#45;&gt;Node13</title>
<g id="a_edge11_Node000001_Node000013"><a xlink:title=" ">
<path fill="none" stroke="#63b8ff" d="M60.11,-389.3C66,-421.66 89.32,-527.18 151,-583.62 153.4,-585.82 156.01,-587.81 158.76,-589.63"/>
<polygon fill="#63b8ff" stroke="#63b8ff" points="156.83,-592.56 167.26,-594.39 160.25,-586.45 156.83,-592.56"/>
</a>
</g>
</g>
<!-- Node16 -->
<g id="Node000016" class="node">
<title>Node16</title>
<g id="a_Node000016"><a xlink:href="classwater_1_1File.html#aceb8bc46564d8c99ad9288d40d082855" target="_top" xlink:title=" ">
<polygon fill="white" stroke="#666666" points="280.62,-574.25 160.38,-574.25 160.38,-555 280.62,-555 280.62,-574.25"/>
<text xml:space="preserve" text-anchor="middle" x="220.5" y="-560.75" font-family="Helvetica,sans-Serif" font-size="10.00">water::File::getFileName</text>
</a>
</g>
</g>
<!-- Node1&#45;&gt;Node16 -->
<g id="edge14_Node000001_Node000016" class="edge">
<title>Node1&#45;&gt;Node16</title>
<g id="a_edge14_Node000001_Node000016"><a xlink:title=" ">
<path fill="none" stroke="#63b8ff" d="M61.06,-389.72C69.01,-418.89 96.06,-503.9 151,-546.62 152.15,-547.52 153.33,-548.36 154.55,-549.17"/>
<polygon fill="#63b8ff" stroke="#63b8ff" points="152.69,-552.14 163.14,-553.84 156.03,-545.99 152.69,-552.14"/>
</a>
</g>
</g>
<!-- Node17 -->
<g id="Node000017" class="node">
<title>Node17</title>
<g id="a_Node000017"><a xlink:href="CarlaLv2Utils_8hpp.html#ad93da9ea1b23cdaf157aed072f77d38e" target="_top" xlink:title=" ">
<polygon fill="white" stroke="#666666" points="282.88,-537.25 158.12,-537.25 158.12,-518 282.88,-518 282.88,-537.25"/>
<text xml:space="preserve" text-anchor="middle" x="220.5" y="-523.75" font-family="Helvetica,sans-Serif" font-size="10.00">is_lv2_feature_supported</text>
</a>
</g>
</g>
<!-- Node1&#45;&gt;Node17 -->
<g id="edge15_Node000001_Node000017" class="edge">
<title>Node1&#45;&gt;Node17</title>
<g id="a_edge15_Node000001_Node000017"><a xlink:title=" ">
<path fill="none" stroke="#63b8ff" d="M62.64,-389.56C73.38,-414.02 104.51,-477.5 151,-509.62 152.56,-510.71 154.19,-511.72 155.86,-512.68"/>
<polygon fill="#63b8ff" stroke="#63b8ff" points="153.99,-515.66 164.52,-516.85 157.03,-509.36 153.99,-515.66"/>
</a>
</g>
</g>
<!-- Node18 -->
<g id="Node000018" class="node">
<title>Node18</title>
<g id="a_Node000018"><a xlink:href="group__lilv__node.html#gac197af0f3e7769cd2b8fb081f98a9bd3" target="_top" xlink:title=" ">
<polygon fill="white" stroke="#666666" points="265.62,-500.25 175.38,-500.25 175.38,-481 265.62,-481 265.62,-500.25"/>
<text xml:space="preserve" text-anchor="middle" x="220.5" y="-486.75" font-family="Helvetica,sans-Serif" font-size="10.00">lilv_file_uri_parse</text>
</a>
</g>
</g>
<!-- Node1&#45;&gt;Node18 -->
<g id="edge16_Node000001_Node000018" class="edge">
<title>Node1&#45;&gt;Node18</title>
<g id="a_edge16_Node000001_Node000018"><a xlink:title=" ">
<path fill="none" stroke="#63b8ff" d="M65.41,-389.47C79.34,-408.54 112.72,-450.58 151,-472.62 155.14,-475.01 159.59,-477.08 164.18,-478.88"/>
<polygon fill="#63b8ff" stroke="#63b8ff" points="162.99,-482.18 173.58,-482.13 165.27,-475.56 162.99,-482.18"/>
</a>
</g>
</g>
<!-- Node19 -->
<g id="Node000019" class="node">
<title>Node19</title>
<g id="a_Node000019"><a xlink:href="group__lilv.html#ga536c278ce35e4cbd71b2b61e32e3e10c" target="_top" xlink:title=" ">
<polygon fill="white" stroke="#666666" points="245.38,-463.25 195.62,-463.25 195.62,-444 245.38,-444 245.38,-463.25"/>
<text xml:space="preserve" text-anchor="middle" x="220.5" y="-449.75" font-family="Helvetica,sans-Serif" font-size="10.00">lilv_free</text>
</a>
</g>
</g>
<!-- Node1&#45;&gt;Node19 -->
<g id="edge17_Node000001_Node000019" class="edge">
<title>Node1&#45;&gt;Node19</title>
<g id="a_edge17_Node000001_Node000019"><a xlink:title=" ">
<path fill="none" stroke="#63b8ff" d="M72.24,-389.69C89.73,-402.08 121.27,-423.03 151,-435.62 161.5,-440.07 173.39,-443.66 184.28,-446.43"/>
<polygon fill="#63b8ff" stroke="#63b8ff" points="183.15,-449.76 193.69,-448.67 184.77,-442.95 183.15,-449.76"/>
</a>
</g>
</g>
<!-- Node20 -->
<g id="Node000020" class="node">
<title>Node20</title>
<g id="a_Node000020"><a xlink:href="group__lilv__node.html#ga825084b014aa57cc545af5ce6ff6e375" target="_top" xlink:title=" ">
<polygon fill="white" stroke="#666666" points="270.12,-426.25 170.88,-426.25 170.88,-407 270.12,-407 270.12,-426.25"/>
<text xml:space="preserve" text-anchor="middle" x="220.5" y="-412.75" font-family="Helvetica,sans-Serif" font-size="10.00">lilv_node_as_string</text>
</a>
</g>
</g>
<!-- Node1&#45;&gt;Node20 -->
<g id="edge18_Node000001_Node000020" class="edge">
<title>Node1&#45;&gt;Node20</title>
<g id="a_edge18_Node000001_Node000020"><a xlink:title=" ">
<path fill="none" stroke="#63b8ff" d="M102.49,-389.74C121.66,-394.14 144.33,-399.35 164.59,-404.01"/>
<polygon fill="#63b8ff" stroke="#63b8ff" points="163.55,-407.36 174.08,-406.19 165.12,-400.54 163.55,-407.36"/>
</a>
</g>
</g>
<!-- Node21 -->
<g id="Node000021" class="node">
<title>Node21</title>
<g id="a_Node000021"><a xlink:href="group__lilv__node.html#gaf4677b15cf1df3ef833f7ef4b6a7511e" target="_top" xlink:title=" ">
<polygon fill="white" stroke="#666666" points="258.5,-389.25 182.5,-389.25 182.5,-370 258.5,-370 258.5,-389.25"/>
<text xml:space="preserve" text-anchor="middle" x="220.5" y="-375.75" font-family="Helvetica,sans-Serif" font-size="10.00">lilv_node_free</text>
</a>
</g>
</g>
<!-- Node1&#45;&gt;Node21 -->
<g id="edge19_Node000001_Node000021" class="edge">
<title>Node1&#45;&gt;Node21</title>
<g id="a_edge19_Node000001_Node000021"><a xlink:title=" ">
<path fill="none" stroke="#63b8ff" d="M115.26,-379.62C133.44,-379.62 153.4,-379.62 170.94,-379.62"/>
<polygon fill="#63b8ff" stroke="#63b8ff" points="170.85,-383.13 180.85,-379.63 170.85,-376.13 170.85,-383.13"/>
</a>
</g>
</g>
<!-- Node22 -->
<g id="Node000022" class="node">
<title>Node22</title>
<g id="a_Node000022"><a xlink:href="group__lilv__node.html#ga0c32acb39dedf93c651e1468e36a0e19" target="_top" xlink:title=" ">
<polygon fill="white" stroke="#666666" points="268.62,-352.25 172.38,-352.25 172.38,-333 268.62,-333 268.62,-352.25"/>
<text xml:space="preserve" text-anchor="middle" x="220.5" y="-338.75" font-family="Helvetica,sans-Serif" font-size="10.00">lilv_node_is_string</text>
</a>
</g>
</g>
<!-- Node1&#45;&gt;Node22 -->
<g id="edge20_Node000001_Node000022" class="edge">
<title>Node1&#45;&gt;Node22</title>
<g id="a_edge20_Node000001_Node000022"><a xlink:title=" ">
<path fill="none" stroke="#63b8ff" d="M102.49,-369.51C121.66,-365.11 144.33,-359.9 164.59,-355.24"/>
<polygon fill="#63b8ff" stroke="#63b8ff" points="165.12,-358.71 174.08,-353.06 163.55,-351.89 165.12,-358.71"/>
</a>
</g>
</g>
<!-- Node23 -->
<g id="Node000023" class="node">
<title>Node23</title>
<g id="a_Node000023"><a xlink:href="group__lilv__collections.html#ga3c8d6359cb4f3f4b68b3b3bde40dbdcc" target="_top" xlink:title=" ">
<polygon fill="white" stroke="#666666" points="264.5,-315.25 176.5,-315.25 176.5,-296 264.5,-296 264.5,-315.25"/>
<text xml:space="preserve" text-anchor="middle" x="220.5" y="-301.75" font-family="Helvetica,sans-Serif" font-size="10.00">lilv_nodes_begin</text>
</a>
</g>
</g>
<!-- Node1&#45;&gt;Node23 -->
<g id="edge21_Node000001_Node000023" class="edge">
<title>Node1&#45;&gt;Node23</title>
<g id="a_edge21_Node000001_Node000023"><a xlink:title=" ">
<path fill="none" stroke="#63b8ff" d="M72.24,-369.56C89.73,-357.17 121.27,-336.22 151,-323.62 155.58,-321.68 160.43,-319.91 165.34,-318.29"/>
<polygon fill="#63b8ff" stroke="#63b8ff" points="166.12,-321.71 174.67,-315.45 164.08,-315.01 166.12,-321.71"/>
</a>
</g>
</g>
<!-- Node24 -->
<g id="Node000024" class="node">
<title>Node24</title>
<g id="a_Node000024"><a xlink:href="group__lilv__collections.html#gac355adeca3dc54366899b6f1ef3b0fc3" target="_top" xlink:title=" ">
<polygon fill="white" stroke="#666666" points="261.12,-278.25 179.88,-278.25 179.88,-259 261.12,-259 261.12,-278.25"/>
<text xml:space="preserve" text-anchor="middle" x="220.5" y="-264.75" font-family="Helvetica,sans-Serif" font-size="10.00">lilv_nodes_free</text>
</a>
</g>
</g>
<!-- Node1&#45;&gt;Node24 -->
<g id="edge22_Node000001_Node000024" class="edge">
<title>Node1&#45;&gt;Node24</title>
<g id="a_edge22_Node000001_Node000024"><a xlink:title=" ">
<path fill="none" stroke="#63b8ff" d="M65.41,-369.78C79.34,-350.71 112.72,-308.67 151,-286.62 156.6,-283.4 162.78,-280.74 169.08,-278.55"/>
<polygon fill="#63b8ff" stroke="#63b8ff" points="169.71,-282.02 178.24,-275.74 167.66,-275.33 169.71,-282.02"/>
</a>
</g>
</g>
<!-- Node25 -->
<g id="Node000025" class="node">
<title>Node25</title>
<g id="a_Node000025"><a xlink:href="group__lilv__collections.html#gac959c0471336d4af210ef4364676808c" target="_top" xlink:title=" ">
<polygon fill="white" stroke="#666666" points="259.62,-241.25 181.38,-241.25 181.38,-222 259.62,-222 259.62,-241.25"/>
<text xml:space="preserve" text-anchor="middle" x="220.5" y="-227.75" font-family="Helvetica,sans-Serif" font-size="10.00">lilv_nodes_get</text>
</a>
</g>
</g>
<!-- Node1&#45;&gt;Node25 -->
<g id="edge23_Node000001_Node000025" class="edge">
<title>Node1&#45;&gt;Node25</title>
<g id="a_edge23_Node000001_Node000025"><a xlink:title=" ">
<path fill="none" stroke="#63b8ff" d="M62.64,-369.69C73.38,-345.23 104.51,-281.75 151,-249.62 156.84,-245.59 163.53,-242.46 170.4,-240.03"/>
<polygon fill="#63b8ff" stroke="#63b8ff" points="171.21,-243.44 179.77,-237.2 169.19,-236.74 171.21,-243.44"/>
</a>
</g>
</g>
<!-- Node26 -->
<g id="Node000026" class="node">
<title>Node26</title>
<g id="a_Node000026"><a xlink:href="group__lilv__collections.html#ga1a4845813065be32a88d50659c591e50" target="_top" xlink:title=" ">
<polygon fill="white" stroke="#666666" points="270.12,-204.25 170.88,-204.25 170.88,-185 270.12,-185 270.12,-204.25"/>
<text xml:space="preserve" text-anchor="middle" x="220.5" y="-190.75" font-family="Helvetica,sans-Serif" font-size="10.00">lilv_nodes_get_first</text>
</a>
</g>
</g>
<!-- Node1&#45;&gt;Node26 -->
<g id="edge24_Node000001_Node000026" class="edge">
<title>Node1&#45;&gt;Node26</title>
<g id="a_edge24_Node000001_Node000026"><a xlink:title=" ">
<path fill="none" stroke="#63b8ff" d="M61.06,-369.53C69.01,-340.36 96.06,-255.35 151,-212.62 153.77,-210.47 156.78,-208.57 159.94,-206.89"/>
<polygon fill="#63b8ff" stroke="#63b8ff" points="161.28,-210.13 169.03,-202.9 158.46,-203.72 161.28,-210.13"/>
</a>
</g>
</g>
<!-- Node27 -->
<g id="Node000027" class="node">
<title>Node27</title>
<g id="a_Node000027"><a xlink:href="group__lilv__collections.html#gab831078aa89c31016acb0c5d1ae87e16" target="_top" xlink:title=" ">
<polygon fill="white" stroke="#666666" points="267.12,-167.25 173.88,-167.25 173.88,-148 267.12,-148 267.12,-167.25"/>
<text xml:space="preserve" text-anchor="middle" x="220.5" y="-153.75" font-family="Helvetica,sans-Serif" font-size="10.00">lilv_nodes_is_end</text>
</a>
</g>
</g>
<!-- Node1&#45;&gt;Node27 -->
<g id="edge25_Node000001_Node000027" class="edge">
<title>Node1&#45;&gt;Node27</title>
<g id="a_edge25_Node000001_Node000027"><a xlink:title=" ">
<path fill="none" stroke="#63b8ff" d="M59.94,-369.75C65.29,-336.79 87.11,-229.55 151,-175.62 154.65,-172.55 158.76,-169.99 163.12,-167.86"/>
<polygon fill="#63b8ff" stroke="#63b8ff" points="164.24,-171.18 172.22,-164.21 161.64,-164.69 164.24,-171.18"/>
</a>
</g>
</g>
<!-- Node28 -->
<g id="Node000028" class="node">
<title>Node28</title>
<g id="a_Node000028"><a xlink:href="group__lilv__collections.html#gabc087cc2924e04dbc744b8a64f3c2dff" target="_top" xlink:title=" ">
<polygon fill="white" stroke="#666666" points="261.88,-130.25 179.12,-130.25 179.12,-111 261.88,-111 261.88,-130.25"/>
<text xml:space="preserve" text-anchor="middle" x="220.5" y="-116.75" font-family="Helvetica,sans-Serif" font-size="10.00">lilv_nodes_next</text>
</a>
</g>
</g>
<!-- Node1&#45;&gt;Node28 -->
<g id="edge26_Node000001_Node000028" class="edge">
<title>Node1&#45;&gt;Node28</title>
<g id="a_edge26_Node000001_Node000028"><a xlink:title=" ">
<path fill="none" stroke="#63b8ff" d="M59.2,-369.58C62.32,-332.74 78.24,-203.82 151,-138.62 155.93,-134.21 161.81,-130.85 168.03,-128.31"/>
<polygon fill="#63b8ff" stroke="#63b8ff" points="168.89,-131.71 177.27,-125.23 166.67,-125.07 168.89,-131.71"/>
</a>
</g>
</g>
<!-- Node29 -->
<g id="Node000029" class="node">
<title>Node29</title>
<g id="a_Node000029"><a xlink:href="group__lilv__plugin.html#ga3744828a4bc0a51011f291186a954a6c" target="_top" xlink:title=" ">
<polygon fill="white" stroke="#666666" points="290,-93.25 151,-93.25 151,-74 290,-74 290,-93.25"/>
<text xml:space="preserve" text-anchor="middle" x="220.5" y="-79.75" font-family="Helvetica,sans-Serif" font-size="10.00">lilv_plugin_get_author_name</text>
</a>
</g>
</g>
<!-- Node1&#45;&gt;Node29 -->
<g id="edge27_Node000001_Node000029" class="edge">
<title>Node1&#45;&gt;Node29</title>
<g id="a_edge27_Node000001_Node000029"><a xlink:title=" ">
<path fill="none" stroke="#63b8ff" d="M58.62,-369.77C59.64,-329.83 69,-178.52 151,-101.62 151.64,-101.03 152.3,-100.45 152.97,-99.88"/>
<polygon fill="#63b8ff" stroke="#63b8ff" points="154.81,-102.86 161.23,-94.43 150.96,-97.02 154.81,-102.86"/>
</a>
</g>
</g>
<!-- Node30 -->
<g id="Node000030" class="node">
<title>Node30</title>
<g id="a_Node000030"><a xlink:href="group__lilv__plugin.html#gabb1eda06760e91420ea2867361ce47a1" target="_top" xlink:title=" ">
<polygon fill="white" stroke="#666666" points="273.88,-56.25 167.12,-56.25 167.12,-37 273.88,-37 273.88,-56.25"/>
<text xml:space="preserve" text-anchor="middle" x="220.5" y="-42.75" font-family="Helvetica,sans-Serif" font-size="10.00">lilv_plugin_get_name</text>
</a>
</g>
</g>
<!-- Node1&#45;&gt;Node30 -->
<g id="edge28_Node000001_Node000030" class="edge">
<title>Node1&#45;&gt;Node30</title>
<g id="a_edge28_Node000001_Node000030"><a xlink:title=" ">
<path fill="none" stroke="#63b8ff" d="M58.17,-369.69C57.31,-326.48 59.85,-153.2 151,-64.62 152.83,-62.85 154.81,-61.24 156.9,-59.79"/>
<polygon fill="#63b8ff" stroke="#63b8ff" points="158.34,-62.99 165.4,-55.09 154.96,-56.87 158.34,-62.99"/>
</a>
</g>
</g>
<!-- Node31 -->
<g id="Node000031" class="node">
<title>Node31</title>
<g id="a_Node000031"><a xlink:href="group__lilv__port.html#gae7682b354fd960d3b7738aeba9624f68" target="_top" xlink:title=" ">
<polygon fill="white" stroke="#666666" points="254.75,-19.25 186.25,-19.25 186.25,0 254.75,0 254.75,-19.25"/>
<text xml:space="preserve" text-anchor="middle" x="220.5" y="-5.75" font-family="Helvetica,sans-Serif" font-size="10.00">lilv_port_get</text>
</a>
</g>
</g>
<!-- Node1&#45;&gt;Node31 -->
<g id="edge29_Node000001_Node000031" class="edge">
<title>Node1&#45;&gt;Node31</title>
<g id="a_edge29_Node000001_Node000031"><a xlink:title=" ">
<path fill="none" stroke="#63b8ff" d="M59.75,-369.74C66.49,-317.98 100.07,-78.56 151,-27.62 157.55,-21.07 166.18,-16.82 175.1,-14.08"/>
<polygon fill="#63b8ff" stroke="#63b8ff" points="175.64,-17.55 184.53,-11.79 173.99,-10.75 175.64,-17.55"/>
</a>
</g>
</g>
<!-- Node4 -->
<g id="Node000004" class="node">
<title>Node4</title>
<g id="a_Node000004"><a xlink:href="CarlaUtils_8hpp.html#a72c98b79b4bafee47a1e9249e83368f3" target="_top" xlink:title=" ">
<polygon fill="white" stroke="#666666" points="416.25,-752.25 339.5,-752.25 339.5,-733 416.25,-733 416.25,-752.25"/>
<text xml:space="preserve" text-anchor="middle" x="377.88" y="-738.75" font-family="Helvetica,sans-Serif" font-size="10.00">__carla_fopen</text>
</a>
</g>
</g>
<!-- Node3&#45;&gt;Node4 -->
<g id="edge3_Node000003_Node000004" class="edge">
<title>Node3&#45;&gt;Node4</title>
<g id="a_edge3_Node000003_Node000004"><a xlink:title=" ">
<path fill="none" stroke="#63b8ff" d="M254.45,-728.44C275.73,-730.91 303.81,-734.16 327.71,-736.93"/>
<polygon fill="#63b8ff" stroke="#63b8ff" points="327.21,-740.39 337.55,-738.07 328.02,-733.44 327.21,-740.39"/>
</a>
</g>
</g>
<!-- Node6 -->
<g id="Node000006" class="node">
<title>Node6</title>
<g id="a_Node000006"><a xlink:href="classCarlaString.html#aa3ea96e2f2da150d036a4c47607e254b" target="_top" xlink:title=" ">
<polygon fill="white" stroke="#666666" points="429.75,-715.25 326,-715.25 326,-696 429.75,-696 429.75,-715.25"/>
<text xml:space="preserve" text-anchor="middle" x="377.88" y="-701.75" font-family="Helvetica,sans-Serif" font-size="10.00">CarlaString::truncate</text>
</a>
</g>
</g>
<!-- Node5&#45;&gt;Node6 -->
<g id="edge5_Node000005_Node000006" class="edge">
<title>Node5&#45;&gt;Node6</title>
<g id="a_edge5_Node000005_Node000006"><a xlink:title=" ">
<path fill="none" stroke="#63b8ff" d="M265.61,-692.73C280.77,-694.49 298.05,-696.49 314.39,-698.39"/>
<polygon fill="#63b8ff" stroke="#63b8ff" points="313.68,-701.83 324.01,-699.5 314.48,-694.87 313.68,-701.83"/>
</a>
</g>
</g>
<!-- Node7 -->
<g id="Node000007" class="node">
<title>Node7</title>
<g id="a_Node000007"><a xlink:href="classCarlaString.html#ac957054b3b0dc9bd7732e08a9ee8a17b" target="_top" xlink:title=" ">
<polygon fill="#fff0f0" stroke="red" points="582.25,-715.25 465.75,-715.25 465.75,-696 582.25,-696 582.25,-715.25"/>
<text xml:space="preserve" text-anchor="middle" x="524" y="-701.75" font-family="Helvetica,sans-Serif" font-size="10.00">CarlaString::CarlaString</text>
</a>
</g>
</g>
<!-- Node6&#45;&gt;Node7 -->
<g id="edge6_Node000006_Node000007" class="edge">
<title>Node6&#45;&gt;Node7</title>
<g id="a_edge6_Node000006_Node000007"><a xlink:title=" ">
<path fill="none" stroke="#63b8ff" d="M430.09,-705.62C437.9,-705.62 446.07,-705.62 454.18,-705.62"/>
<polygon fill="#63b8ff" stroke="#63b8ff" points="454.06,-709.13 464.06,-705.63 454.06,-702.13 454.06,-709.13"/>
</a>
</g>
</g>
<!-- Node10 -->
<g id="Node000010" class="node">
<title>Node10</title>
<g id="a_Node000010"><a xlink:href="group__lilv__node.html#ga3fd9df99cb05f2f061233d2839e820f1" target="_top" xlink:title=" ">
<polygon fill="white" stroke="#666666" points="421.88,-678.25 333.88,-678.25 333.88,-659 421.88,-659 421.88,-678.25"/>
<text xml:space="preserve" text-anchor="middle" x="377.88" y="-664.75" font-family="Helvetica,sans-Serif" font-size="10.00">lilv_node_equals</text>
</a>
</g>
</g>
<!-- Node9&#45;&gt;Node10 -->
<g id="edge8_Node000009_Node000010" class="edge">
<title>Node9&#45;&gt;Node10</title>
<g id="a_edge8_Node000009_Node000010"><a xlink:title=" ">
<path fill="none" stroke="#63b8ff" d="M266.86,-655.88C284.21,-657.89 304.18,-660.2 322.3,-662.3"/>
<polygon fill="#63b8ff" stroke="#63b8ff" points="321.76,-665.76 332.09,-663.44 322.56,-658.81 321.76,-665.76"/>
</a>
</g>
</g>
<!-- Node11 -->
<g id="Node000011" class="node">
<title>Node11</title>
<g id="a_Node000011"><a xlink:href="structLilv_1_1Node.html#ac6c00309806b5c37564fcc7c0525c3e3" target="_top" xlink:title=" ">
<polygon fill="white" stroke="#666666" points="421.5,-641.25 334.25,-641.25 334.25,-622 421.5,-622 421.5,-641.25"/>
<text xml:space="preserve" text-anchor="middle" x="377.88" y="-627.75" font-family="Helvetica,sans-Serif" font-size="10.00">Lilv::Node::Node</text>
</a>
</g>
</g>
<!-- Node9&#45;&gt;Node11 -->
<g id="edge9_Node000009_Node000011" class="edge">
<title>Node9&#45;&gt;Node11</title>
<g id="a_edge9_Node000009_Node000011"><a xlink:title=" ">
<path fill="none" stroke="#63b8ff" d="M266.86,-645.08C284.28,-642.95 304.35,-640.49 322.53,-638.27"/>
<polygon fill="#63b8ff" stroke="#63b8ff" points="322.86,-641.76 332.36,-637.07 322.01,-634.81 322.86,-641.76"/>
</a>
</g>
</g>
<!-- Node12 -->
<g id="Node000012" class="node">
<title>Node12</title>
<g id="a_Node000012"><a xlink:href="group__lilv__node.html#gac3b881940e6e93361d04e4dcd5ec985d" target="_top" xlink:title=" ">
<polygon fill="white" stroke="#666666" points="573.25,-641.25 474.75,-641.25 474.75,-622 573.25,-622 573.25,-641.25"/>
<text xml:space="preserve" text-anchor="middle" x="524" y="-627.75" font-family="Helvetica,sans-Serif" font-size="10.00">lilv_node_duplicate</text>
</a>
</g>
</g>
<!-- Node11&#45;&gt;Node12 -->
<g id="edge10_Node000011_Node000012" class="edge">
<title>Node11&#45;&gt;Node12</title>
<g id="a_edge10_Node000011_Node000012"><a xlink:title=" ">
<path fill="none" stroke="#63b8ff" d="M421.73,-631.62C434.69,-631.62 449.18,-631.62 463.04,-631.62"/>
<polygon fill="#63b8ff" stroke="#63b8ff" points="462.99,-635.13 472.99,-631.63 462.99,-628.13 462.99,-635.13"/>
</a>
</g>
</g>
<!-- Node14 -->
<g id="Node000014" class="node">
<title>Node14</title>
<g id="a_Node000014"><a xlink:href="group__lilv__plugin.html#gad14c55fc0d8c6b90574ab72535baf6ac" target="_top" xlink:title=" ">
<polygon fill="white" stroke="#666666" points="427.5,-603.88 328.25,-603.88 328.25,-573.38 427.5,-573.38 427.5,-603.88"/>
<text xml:space="preserve" text-anchor="start" x="336.25" y="-590.38" font-family="Helvetica,sans-Serif" font-size="10.00">lilv_plugin_get_port</text>
<text xml:space="preserve" text-anchor="middle" x="377.88" y="-579.12" font-family="Helvetica,sans-Serif" font-size="10.00">_by_index</text>
</a>
</g>
</g>
<!-- Node13&#45;&gt;Node14 -->
<g id="edge12_Node000013_Node000014" class="edge">
<title>Node13&#45;&gt;Node14</title>
<g id="a_edge12_Node000013_Node000014"><a xlink:title=" ">
<path fill="none" stroke="#63b8ff" d="M272.38,-601.4C286.62,-599.66 302.24,-597.75 316.96,-595.95"/>
<polygon fill="#63b8ff" stroke="#63b8ff" points="317,-599.47 326.5,-594.79 316.15,-592.53 317,-599.47"/>
</a>
</g>
</g>
<!-- Node15 -->
<g id="Node000015" class="node">
<title>Node15</title>
<g id="a_Node000015"><a xlink:href="structLilv_1_1Port.html#a215c0b4f2619d85157e239bac8e4f85a" target="_top" xlink:title=" ">
<polygon fill="white" stroke="#666666" points="416.25,-555.25 339.5,-555.25 339.5,-536 416.25,-536 416.25,-555.25"/>
<text xml:space="preserve" text-anchor="middle" x="377.88" y="-541.75" font-family="Helvetica,sans-Serif" font-size="10.00">Lilv::Port::Port</text>
</a>
</g>
</g>
<!-- Node13&#45;&gt;Node15 -->
<g id="edge13_Node000013_Node000015" class="edge">
<title>Node13&#45;&gt;Node15</title>
<g id="a_edge13_Node000013_Node000015"><a xlink:title=" ">
<path fill="none" stroke="#63b8ff" d="M269.02,-592.01C276.12,-589.38 283.3,-586.55 290,-583.62 306.58,-576.39 309.49,-572.03 326,-564.62 329.59,-563.01 333.37,-561.42 337.17,-559.89"/>
<polygon fill="#63b8ff" stroke="#63b8ff" points="338.36,-563.18 346.42,-556.29 335.83,-556.65 338.36,-563.18"/>
</a>
</g>
</g>
</g>
</svg>

<g id="navigator" transform="translate(0 0)" fill="#404254">
  <rect fill="#f2f5e9" fill-opacity="0.5" stroke="#606060" stroke-width=".5" x="0" y="0" width="60" height="60"/>
  <use id="zoomplus" xlink:href="#zoomPlus" x="17" y="9" onmousedown="handleZoom(evt,'in')"/>
  <use id="zoomminus" xlink:href="#zoomMin" x="42" y="9" onmousedown="handleZoom(evt,'out')"/>
  <use id="reset" xlink:href="#resetDef" x="30" y="36" onmousedown="handleReset()"/>
   <use id="arrowup" xlink:href="#arrowUp" x="0" y="0" onmousedown="handlePan(0,-1)"/>
  <use id="arrowright" xlink:href="#arrowRight" x="0" y="0" onmousedown="handlePan(1,0)"/>
  <use id="arrowdown" xlink:href="#arrowDown" x="0" y="0" onmousedown="handlePan(0,1)"/>
  <use id="arrowleft" xlink:href="#arrowLeft" x="0" y="0" onmousedown="handlePan(-1,0)"/>
</g>
<svg viewBox="0 0 15 15" width="100%" height="30px" preserveAspectRatio="xMaxYMin meet">
 <g id="arrow_out" transform="scale(0.3 0.3)">
  <a xlink:href="backend_2utils_2CachedPlugins_8cpp_a178efdbf484dea991904217601839d4d_cgraph_org.svg" target="_base">
   <rect id="button" ry="5" rx="5" y="6" x="6" height="38" width="38"
        fill="#f2f5e9" fill-opacity="0.5" stroke="#606060" stroke-width="1.0"/>
   <path id="arrow"
     d="M 11.500037,31.436501 C 11.940474,20.09759 22.043105,11.32322 32.158766,21.979434 L 37.068811,17.246167 C 37.068811,17.246167 37.088388,32 37.088388,32 L 22.160133,31.978069 C 22.160133,31.978069 26.997745,27.140456 26.997745,27.140456 C 18.528582,18.264221 13.291696,25.230495 11.500037,31.436501 z"
     style="fill:#404040;"/>
  </a>
 </g>
</svg>

<style type='text/css'>
<![CDATA[
[data-mouse-over-selected='false'] { opacity: 0.7; }
[data-mouse-over-selected='true']  { opacity: 1.0; }
]]>
</style>
<script type="application/ecmascript"><![CDATA[
document.addEventListener('DOMContentLoaded', (event) => {
  highlightEdges();
  highlightAdjacentNodes();
});
]]></script>
</svg>
