<?xml version="1.0" encoding="UTF-8" standalone="no"?>
<!DOCTYPE svg PUBLIC "-//W3C//DTD SVG 1.1//EN"
 "http://www.w3.org/Graphics/SVG/1.1/DTD/svg11.dtd">
<!-- Generated by graphviz version 14.0.2 (0)
 -->
<!-- Title: plugins/BassBooster/BassBoosterControls.h Pages: 1 -->
<svg width="643pt" height="370pt"
 viewBox="0.00 0.00 643.00 370.00" xmlns="http://www.w3.org/2000/svg" xmlns:xlink="http://www.w3.org/1999/xlink">
<g id="graph0" class="graph" transform="scale(1 1) rotate(0) translate(4 366)">
<title>plugins/BassBooster/BassBoosterControls.h</title>
<!-- Node1 -->
<g id="Node000001" class="node">
<title>Node1</title>
<g id="a_Node000001"><a xlink:title=" ">
<polygon fill="#999999" stroke="#666666" points="488.12,-362 369.38,-362 369.38,-331.5 488.12,-331.5 488.12,-362"/>
<text xml:space="preserve" text-anchor="start" x="377.38" y="-348.5" font-family="Helvetica,sans-Serif" font-size="10.00">plugins/BassBooster</text>
<text xml:space="preserve" text-anchor="middle" x="428.75" y="-337.25" font-family="Helvetica,sans-Serif" font-size="10.00">/BassBoosterControls.h</text>
</a>
</g>
</g>
<!-- Node2 -->
<g id="Node000002" class="node">
<title>Node2</title>
<g id="a_Node000002"><a xlink:href="EffectControls_8h.html" target="_top" xlink:title=" ">
<polygon fill="white" stroke="#666666" points="406.88,-295.5 322.62,-295.5 322.62,-276.25 406.88,-276.25 406.88,-295.5"/>
<text xml:space="preserve" text-anchor="middle" x="364.75" y="-282" font-family="Helvetica,sans-Serif" font-size="10.00">EffectControls.h</text>
</a>
</g>
</g>
<!-- Node1&#45;&gt;Node2 -->
<g id="edge1_Node000001_Node000002" class="edge">
<title>Node1&#45;&gt;Node2</title>
<g id="a_edge1_Node000001_Node000002"><a xlink:title=" ">
<path fill="none" stroke="#63b8ff" d="M412.93,-331.2C403.84,-322.84 392.39,-312.3 382.93,-303.6"/>
<polygon fill="#63b8ff" stroke="#63b8ff" points="385.46,-301.17 375.73,-296.98 380.72,-306.32 385.46,-301.17"/>
</a>
</g>
</g>
<!-- Node54 -->
<g id="Node000054" class="node">
<title>Node54</title>
<g id="a_Node000054"><a xlink:href="BassBoosterControlDialog_8h.html" target="_top" xlink:title=" ">
<polygon fill="white" stroke="#666666" points="587.5,-295.5 450,-295.5 450,-276.25 587.5,-276.25 587.5,-295.5"/>
<text xml:space="preserve" text-anchor="middle" x="518.75" y="-282" font-family="Helvetica,sans-Serif" font-size="10.00">BassBoosterControlDialog.h</text>
</a>
</g>
</g>
<!-- Node1&#45;&gt;Node54 -->
<g id="edge28_Node000001_Node000054" class="edge">
<title>Node1&#45;&gt;Node54</title>
<g id="a_edge28_Node000001_Node000054"><a xlink:title=" ">
<path fill="none" stroke="#63b8ff" d="M451,-331.2C464.57,-322.32 481.89,-310.99 495.62,-302.01"/>
<polygon fill="#63b8ff" stroke="#63b8ff" points="497.16,-305.18 503.61,-296.78 493.32,-299.33 497.16,-305.18"/>
</a>
</g>
</g>
<!-- Node3 -->
<g id="Node000003" class="node">
<title>Node3</title>
<g id="a_Node000003"><a xlink:href="Model_8h.html" target="_top" xlink:title=" ">
<polygon fill="white" stroke="#666666" points="487.62,-129.75 437.88,-129.75 437.88,-110.5 487.62,-110.5 487.62,-129.75"/>
<text xml:space="preserve" text-anchor="middle" x="462.75" y="-116.25" font-family="Helvetica,sans-Serif" font-size="10.00">Model.h</text>
</a>
</g>
</g>
<!-- Node2&#45;&gt;Node3 -->
<g id="edge2_Node000002_Node000003" class="edge">
<title>Node2&#45;&gt;Node3</title>
<g id="a_edge2_Node000002_Node000003"><a xlink:title=" ">
<path fill="none" stroke="#63b8ff" d="M370.02,-276.07C385.44,-250.3 430.72,-174.65 451.76,-139.49"/>
<polygon fill="#63b8ff" stroke="#63b8ff" points="454.55,-141.65 456.68,-131.27 448.54,-138.05 454.55,-141.65"/>
</a>
</g>
</g>
<!-- Node7 -->
<g id="Node000007" class="node">
<title>Node7</title>
<g id="a_Node000007"><a xlink:href="JournallingObject_8h.html" target="_top" xlink:title=" ">
<polygon fill="white" stroke="#666666" points="247,-129.75 148.5,-129.75 148.5,-110.5 247,-110.5 247,-129.75"/>
<text xml:space="preserve" text-anchor="middle" x="197.75" y="-116.25" font-family="Helvetica,sans-Serif" font-size="10.00">JournallingObject.h</text>
</a>
</g>
</g>
<!-- Node2&#45;&gt;Node7 -->
<g id="edge6_Node000002_Node000007" class="edge">
<title>Node2&#45;&gt;Node7</title>
<g id="a_edge6_Node000002_Node000007"><a xlink:title=" ">
<path fill="none" stroke="#63b8ff" d="M322.15,-279.05C237.65,-266.52 53.77,-234.14 16.75,-185 11.6,-178.17 11.47,-172.48 16.75,-165.75 31.59,-146.8 90.29,-134.81 136.87,-128.08"/>
<polygon fill="#63b8ff" stroke="#63b8ff" points="137.19,-131.57 146.61,-126.73 136.23,-124.64 137.19,-131.57"/>
</a>
</g>
</g>
<!-- Node13 -->
<g id="Node000013" class="node">
<title>Node13</title>
<g id="a_Node000013"><a xlink:href="include_2Effect_8h.html" target="_top" xlink:title=" ">
<polygon fill="white" stroke="#666666" points="339.88,-240.25 291.62,-240.25 291.62,-221 339.88,-221 339.88,-240.25"/>
<text xml:space="preserve" text-anchor="middle" x="315.75" y="-226.75" font-family="Helvetica,sans-Serif" font-size="10.00">Effect.h</text>
</a>
</g>
</g>
<!-- Node2&#45;&gt;Node13 -->
<g id="edge12_Node000002_Node000013" class="edge">
<title>Node2&#45;&gt;Node13</title>
<g id="a_edge12_Node000002_Node000013"><a xlink:title=" ">
<path fill="none" stroke="#63b8ff" d="M356.66,-276.08C349.89,-268.73 340.03,-258.01 331.69,-248.94"/>
<polygon fill="#63b8ff" stroke="#63b8ff" points="334.39,-246.71 325.04,-241.72 329.24,-251.45 334.39,-246.71"/>
</a>
</g>
</g>
<!-- Node4 -->
<g id="Node000004" class="node">
<title>Node4</title>
<g id="a_Node000004"><a xlink:title=" ">
<polygon fill="#e0e0e0" stroke="#999999" points="330.25,-19.25 281.25,-19.25 281.25,0 330.25,0 330.25,-19.25"/>
<text xml:space="preserve" text-anchor="middle" x="305.75" y="-5.75" font-family="Helvetica,sans-Serif" font-size="10.00">QString</text>
</a>
</g>
</g>
<!-- Node3&#45;&gt;Node4 -->
<g id="edge3_Node000003_Node000004" class="edge">
<title>Node3&#45;&gt;Node4</title>
<g id="a_edge3_Node000003_Node000004"><a xlink:title=" ">
<path fill="none" stroke="#63b8ff" d="M464.42,-110.09C466.39,-96.51 467.89,-70.78 454.75,-55.25 450.98,-50.79 384.23,-31.97 341.36,-20.24"/>
<polygon fill="#63b8ff" stroke="#63b8ff" points="342.54,-16.93 331.97,-17.68 340.69,-23.69 342.54,-16.93"/>
</a>
</g>
</g>
<!-- Node5 -->
<g id="Node000005" class="node">
<title>Node5</title>
<g id="a_Node000005"><a xlink:title=" ">
<polygon fill="#e0e0e0" stroke="#999999" points="445.75,-74.5 393.75,-74.5 393.75,-55.25 445.75,-55.25 445.75,-74.5"/>
<text xml:space="preserve" text-anchor="middle" x="419.75" y="-61" font-family="Helvetica,sans-Serif" font-size="10.00">QObject</text>
</a>
</g>
</g>
<!-- Node3&#45;&gt;Node5 -->
<g id="edge4_Node000003_Node000005" class="edge">
<title>Node3&#45;&gt;Node5</title>
<g id="a_edge4_Node000003_Node000005"><a xlink:title=" ">
<path fill="none" stroke="#63b8ff" d="M455.65,-110.33C449.83,-103.13 441.42,-92.71 434.19,-83.76"/>
<polygon fill="#63b8ff" stroke="#63b8ff" points="436.96,-81.62 427.96,-76.04 431.52,-86.02 436.96,-81.62"/>
</a>
</g>
</g>
<!-- Node6 -->
<g id="Node000006" class="node">
<title>Node6</title>
<g id="a_Node000006"><a xlink:title=" ">
<polygon fill="#e0e0e0" stroke="#999999" points="427.25,-19.25 348.25,-19.25 348.25,0 427.25,0 427.25,-19.25"/>
<text xml:space="preserve" text-anchor="middle" x="387.75" y="-5.75" font-family="Helvetica,sans-Serif" font-size="10.00">lmms_export.h</text>
</a>
</g>
</g>
<!-- Node3&#45;&gt;Node6 -->
<g id="edge5_Node000003_Node000006" class="edge">
<title>Node3&#45;&gt;Node6</title>
<g id="a_edge5_Node000003_Node000006"><a xlink:title=" ">
<path fill="none" stroke="#63b8ff" d="M471.14,-110.33C482.32,-97.51 499.42,-73.23 487.75,-55.25 476.63,-38.12 457.24,-27.51 438.47,-20.96"/>
<polygon fill="#63b8ff" stroke="#63b8ff" points="439.6,-17.64 429.01,-18.01 437.51,-24.33 439.6,-17.64"/>
</a>
</g>
</g>
<!-- Node8 -->
<g id="Node000008" class="node">
<title>Node8</title>
<g id="a_Node000008"><a xlink:title=" ">
<polygon fill="#e0e0e0" stroke="#999999" points="185.25,-74.5 136.25,-74.5 136.25,-55.25 185.25,-55.25 185.25,-74.5"/>
<text xml:space="preserve" text-anchor="middle" x="160.75" y="-61" font-family="Helvetica,sans-Serif" font-size="10.00">QStack</text>
</a>
</g>
</g>
<!-- Node7&#45;&gt;Node8 -->
<g id="edge7_Node000007_Node000008" class="edge">
<title>Node7&#45;&gt;Node8</title>
<g id="a_edge7_Node000007_Node000008"><a xlink:title=" ">
<path fill="none" stroke="#63b8ff" d="M191.64,-110.33C186.69,-103.21 179.55,-92.93 173.38,-84.05"/>
<polygon fill="#63b8ff" stroke="#63b8ff" points="176.44,-82.32 167.86,-76.1 170.69,-86.31 176.44,-82.32"/>
</a>
</g>
</g>
<!-- Node9 -->
<g id="Node000009" class="node">
<title>Node9</title>
<g id="a_Node000009"><a xlink:href="LmmsTypes_8h.html" target="_top" xlink:title=" ">
<polygon fill="#fff0f0" stroke="red" points="118.5,-74.5 41,-74.5 41,-55.25 118.5,-55.25 118.5,-74.5"/>
<text xml:space="preserve" text-anchor="middle" x="79.75" y="-61" font-family="Helvetica,sans-Serif" font-size="10.00">LmmsTypes.h</text>
</a>
</g>
</g>
<!-- Node7&#45;&gt;Node9 -->
<g id="edge8_Node000007_Node000009" class="edge">
<title>Node7&#45;&gt;Node9</title>
<g id="a_edge8_Node000007_Node000009"><a xlink:title=" ">
<path fill="none" stroke="#63b8ff" d="M177.73,-110.09C159.26,-101.75 131.54,-89.25 110.3,-79.66"/>
<polygon fill="#63b8ff" stroke="#63b8ff" points="111.8,-76.5 101.24,-75.58 108.92,-82.88 111.8,-76.5"/>
</a>
</g>
</g>
<!-- Node12 -->
<g id="Node000012" class="node">
<title>Node12</title>
<g id="a_Node000012"><a xlink:href="SerializingObject_8h.html" target="_top" xlink:title=" ">
<polygon fill="white" stroke="#666666" points="299.88,-74.5 203.62,-74.5 203.62,-55.25 299.88,-55.25 299.88,-74.5"/>
<text xml:space="preserve" text-anchor="middle" x="251.75" y="-61" font-family="Helvetica,sans-Serif" font-size="10.00">SerializingObject.h</text>
</a>
</g>
</g>
<!-- Node7&#45;&gt;Node12 -->
<g id="edge9_Node000007_Node000012" class="edge">
<title>Node7&#45;&gt;Node12</title>
<g id="a_edge9_Node000007_Node000012"><a xlink:title=" ">
<path fill="none" stroke="#63b8ff" d="M206.67,-110.33C214.2,-102.9 225.22,-92.04 234.48,-82.91"/>
<polygon fill="#63b8ff" stroke="#63b8ff" points="236.9,-85.44 241.56,-75.92 231.98,-80.45 236.9,-85.44"/>
</a>
</g>
</g>
<!-- Node12&#45;&gt;Node4 -->
<g id="edge10_Node000012_Node000004" class="edge">
<title>Node12&#45;&gt;Node4</title>
<g id="a_edge10_Node000012_Node000004"><a xlink:title=" ">
<path fill="none" stroke="#63b8ff" d="M260.67,-55.08C268.2,-47.65 279.22,-36.79 288.48,-27.66"/>
<polygon fill="#63b8ff" stroke="#63b8ff" points="290.9,-30.19 295.56,-20.67 285.98,-25.2 290.9,-30.19"/>
</a>
</g>
</g>
<!-- Node12&#45;&gt;Node6 -->
<g id="edge11_Node000012_Node000006" class="edge">
<title>Node12&#45;&gt;Node6</title>
<g id="a_edge11_Node000012_Node000006"><a xlink:title=" ">
<path fill="none" stroke="#63b8ff" d="M274.82,-54.84C296.51,-46.35 329.23,-33.54 353.88,-23.89"/>
<polygon fill="#63b8ff" stroke="#63b8ff" points="355.12,-27.16 363.16,-20.25 352.57,-20.64 355.12,-27.16"/>
</a>
</g>
</g>
<!-- Node14 -->
<g id="Node000014" class="node">
<title>Node14</title>
<g id="a_Node000014"><a xlink:title=" ">
<polygon fill="#e0e0e0" stroke="#999999" points="396.25,-185 359.25,-185 359.25,-165.75 396.25,-165.75 396.25,-185"/>
<text xml:space="preserve" text-anchor="middle" x="377.75" y="-171.5" font-family="Helvetica,sans-Serif" font-size="10.00">span</text>
</a>
</g>
</g>
<!-- Node13&#45;&gt;Node14 -->
<g id="edge13_Node000013_Node000014" class="edge">
<title>Node13&#45;&gt;Node14</title>
<g id="a_edge13_Node000013_Node000014"><a xlink:title=" ">
<path fill="none" stroke="#63b8ff" d="M326.27,-220.59C335.14,-212.97 348.06,-201.87 358.74,-192.7"/>
<polygon fill="#63b8ff" stroke="#63b8ff" points="360.93,-195.43 366.24,-186.26 356.37,-190.12 360.93,-195.43"/>
</a>
</g>
</g>
<!-- Node15 -->
<g id="Node000015" class="node">
<title>Node15</title>
<g id="a_Node000015"><a xlink:href="AudioEngine_8h.html" target="_top" xlink:title=" ">
<polygon fill="#fff0f0" stroke="red" points="77.5,-129.75 0,-129.75 0,-110.5 77.5,-110.5 77.5,-129.75"/>
<text xml:space="preserve" text-anchor="middle" x="38.75" y="-116.25" font-family="Helvetica,sans-Serif" font-size="10.00">AudioEngine.h</text>
</a>
</g>
</g>
<!-- Node13&#45;&gt;Node15 -->
<g id="edge14_Node000013_Node000015" class="edge">
<title>Node13&#45;&gt;Node15</title>
<g id="a_edge14_Node000013_Node000015"><a xlink:title=" ">
<path fill="none" stroke="#63b8ff" d="M291.45,-229.87C226.66,-229.95 52.3,-226.25 16.75,-185 5.54,-171.99 14.35,-152.96 23.95,-139.06"/>
<polygon fill="#63b8ff" stroke="#63b8ff" points="26.65,-141.29 29.89,-131.2 21.07,-137.07 26.65,-141.29"/>
</a>
</g>
</g>
<!-- Node43 -->
<g id="Node000043" class="node">
<title>Node43</title>
<g id="a_Node000043"><a xlink:href="AutomatableModel_8h.html" target="_top" xlink:title=" ">
<polygon fill="#fff0f0" stroke="red" points="272,-185 167.5,-185 167.5,-165.75 272,-165.75 272,-185"/>
<text xml:space="preserve" text-anchor="middle" x="219.75" y="-171.5" font-family="Helvetica,sans-Serif" font-size="10.00">AutomatableModel.h</text>
</a>
</g>
</g>
<!-- Node13&#45;&gt;Node43 -->
<g id="edge16_Node000013_Node000043" class="edge">
<title>Node13&#45;&gt;Node43</title>
<g id="a_edge16_Node000013_Node000043"><a xlink:title=" ">
<path fill="none" stroke="#63b8ff" d="M299.46,-220.59C284.85,-212.48 263.12,-200.43 246.04,-190.96"/>
<polygon fill="#63b8ff" stroke="#63b8ff" points="247.88,-187.98 237.44,-186.19 244.49,-194.1 247.88,-187.98"/>
</a>
</g>
</g>
<!-- Node49 -->
<g id="Node000049" class="node">
<title>Node49</title>
<g id="a_Node000049"><a xlink:href="include_2Engine_8h.html" target="_top" xlink:title=" ">
<polygon fill="#fff0f0" stroke="red" points="392.12,-129.75 339.38,-129.75 339.38,-110.5 392.12,-110.5 392.12,-129.75"/>
<text xml:space="preserve" text-anchor="middle" x="365.75" y="-116.25" font-family="Helvetica,sans-Serif" font-size="10.00">Engine.h</text>
</a>
</g>
</g>
<!-- Node13&#45;&gt;Node49 -->
<g id="edge19_Node000013_Node000049" class="edge">
<title>Node13&#45;&gt;Node49</title>
<g id="a_edge19_Node000013_Node000049"><a xlink:title=" ">
<path fill="none" stroke="#63b8ff" d="M340.07,-224.99C361.51,-219.49 391.5,-207.97 405.75,-185 415.8,-168.79 401.44,-150.34 387.21,-137.44"/>
<polygon fill="#63b8ff" stroke="#63b8ff" points="389.65,-134.93 379.74,-131.18 385.15,-140.29 389.65,-134.93"/>
</a>
</g>
</g>
<!-- Node50 -->
<g id="Node000050" class="node">
<title>Node50</title>
<g id="a_Node000050"><a xlink:href="Plugin_8h.html" target="_top" xlink:title=" ">
<polygon fill="#fff0f0" stroke="red" points="341,-185 290.5,-185 290.5,-165.75 341,-165.75 341,-185"/>
<text xml:space="preserve" text-anchor="middle" x="315.75" y="-171.5" font-family="Helvetica,sans-Serif" font-size="10.00">Plugin.h</text>
</a>
</g>
</g>
<!-- Node13&#45;&gt;Node50 -->
<g id="edge24_Node000013_Node000050" class="edge">
<title>Node13&#45;&gt;Node50</title>
<g id="a_edge24_Node000013_Node000050"><a xlink:title=" ">
<path fill="none" stroke="#63b8ff" d="M315.75,-220.83C315.75,-214.32 315.75,-205.17 315.75,-196.87"/>
<polygon fill="#63b8ff" stroke="#63b8ff" points="319.25,-196.87 315.75,-186.87 312.25,-196.87 319.25,-196.87"/>
</a>
</g>
</g>
<!-- Node52 -->
<g id="Node000052" class="node">
<title>Node52</title>
<g id="a_Node000052"><a xlink:href="TempoSyncKnobModel_8h.html" target="_top" xlink:title=" ">
<polygon fill="#fff0f0" stroke="red" points="149.75,-185 25.75,-185 25.75,-165.75 149.75,-165.75 149.75,-185"/>
<text xml:space="preserve" text-anchor="middle" x="87.75" y="-171.5" font-family="Helvetica,sans-Serif" font-size="10.00">TempoSyncKnobModel.h</text>
</a>
</g>
</g>
<!-- Node13&#45;&gt;Node52 -->
<g id="edge27_Node000013_Node000052" class="edge">
<title>Node13&#45;&gt;Node52</title>
<g id="a_edge27_Node000013_Node000052"><a xlink:title=" ">
<path fill="none" stroke="#63b8ff" d="M291.35,-223.93C254.87,-215.41 185.33,-199.16 137.76,-188.06"/>
<polygon fill="#63b8ff" stroke="#63b8ff" points="138.78,-184.7 128.25,-185.83 137.19,-191.52 138.78,-184.7"/>
</a>
</g>
</g>
<!-- Node15&#45;&gt;Node9 -->
<g id="edge15_Node000015_Node000009" class="edge">
<title>Node15&#45;&gt;Node9</title>
<g id="a_edge15_Node000015_Node000009"><a xlink:title=" ">
<path fill="none" stroke="#63b8ff" d="M45.52,-110.33C51.07,-103.13 59.09,-92.71 65.98,-83.76"/>
<polygon fill="#63b8ff" stroke="#63b8ff" points="68.58,-86.12 71.91,-76.06 63.04,-81.85 68.58,-86.12"/>
</a>
</g>
</g>
<!-- Node43&#45;&gt;Node3 -->
<g id="edge18_Node000043_Node000003" class="edge">
<title>Node43&#45;&gt;Node3</title>
<g id="a_edge18_Node000043_Node000003"><a xlink:title=" ">
<path fill="none" stroke="#63b8ff" d="M261.25,-165.28C307.66,-155.11 382.11,-138.8 426.35,-129.1"/>
<polygon fill="#63b8ff" stroke="#63b8ff" points="426.94,-132.56 435.96,-127 425.44,-125.72 426.94,-132.56"/>
</a>
</g>
</g>
<!-- Node43&#45;&gt;Node7 -->
<g id="edge17_Node000043_Node000007" class="edge">
<title>Node43&#45;&gt;Node7</title>
<g id="a_edge17_Node000043_Node000007"><a xlink:title=" ">
<path fill="none" stroke="#63b8ff" d="M216.12,-165.58C213.33,-158.84 209.38,-149.27 205.85,-140.74"/>
<polygon fill="#63b8ff" stroke="#63b8ff" points="209.09,-139.41 202.04,-131.51 202.62,-142.09 209.09,-139.41"/>
</a>
</g>
</g>
<!-- Node49&#45;&gt;Node4 -->
<g id="edge20_Node000049_Node000004" class="edge">
<title>Node49&#45;&gt;Node4</title>
<g id="a_edge20_Node000049_Node000004"><a xlink:title=" ">
<path fill="none" stroke="#63b8ff" d="M360.84,-110.25C351.13,-92.68 329.27,-53.16 316.2,-29.52"/>
<polygon fill="#63b8ff" stroke="#63b8ff" points="319.36,-28.01 311.46,-20.95 313.24,-31.4 319.36,-28.01"/>
</a>
</g>
</g>
<!-- Node49&#45;&gt;Node5 -->
<g id="edge21_Node000049_Node000005" class="edge">
<title>Node49&#45;&gt;Node5</title>
<g id="a_edge21_Node000049_Node000005"><a xlink:title=" ">
<path fill="none" stroke="#63b8ff" d="M374.67,-110.33C382.2,-102.9 393.22,-92.04 402.48,-82.91"/>
<polygon fill="#63b8ff" stroke="#63b8ff" points="404.9,-85.44 409.56,-75.92 399.98,-80.45 404.9,-85.44"/>
</a>
</g>
</g>
<!-- Node49&#45;&gt;Node6 -->
<g id="edge22_Node000049_Node000006" class="edge">
<title>Node49&#45;&gt;Node6</title>
<g id="a_edge22_Node000049_Node000006"><a xlink:title=" ">
<path fill="none" stroke="#63b8ff" d="M367.55,-110.25C371.05,-93 378.84,-54.58 383.66,-30.81"/>
<polygon fill="#63b8ff" stroke="#63b8ff" points="387.07,-31.61 385.62,-21.11 380.21,-30.22 387.07,-31.61"/>
</a>
</g>
</g>
<!-- Node49&#45;&gt;Node9 -->
<g id="edge23_Node000049_Node000009" class="edge">
<title>Node49&#45;&gt;Node9</title>
<g id="a_edge23_Node000049_Node000009"><a xlink:title=" ">
<path fill="none" stroke="#63b8ff" d="M339.1,-114.16C291.42,-105.29 190.81,-86.55 129.87,-75.21"/>
<polygon fill="#63b8ff" stroke="#63b8ff" points="130.57,-71.78 120.1,-73.39 129.29,-78.66 130.57,-71.78"/>
</a>
</g>
</g>
<!-- Node50&#45;&gt;Node3 -->
<g id="edge26_Node000050_Node000003" class="edge">
<title>Node50&#45;&gt;Node3</title>
<g id="a_edge26_Node000050_Node000003"><a xlink:title=" ">
<path fill="none" stroke="#63b8ff" d="M340.69,-165.34C364.44,-156.74 400.46,-143.69 427.21,-134"/>
<polygon fill="#63b8ff" stroke="#63b8ff" points="428.06,-137.41 436.27,-130.72 425.67,-130.83 428.06,-137.41"/>
</a>
</g>
</g>
<!-- Node50&#45;&gt;Node7 -->
<g id="edge25_Node000050_Node000007" class="edge">
<title>Node50&#45;&gt;Node7</title>
<g id="a_edge25_Node000050_Node000007"><a xlink:title=" ">
<path fill="none" stroke="#63b8ff" d="M295.73,-165.34C277.26,-157 249.54,-144.5 228.3,-134.91"/>
<polygon fill="#63b8ff" stroke="#63b8ff" points="229.8,-131.75 219.24,-130.83 226.92,-138.13 229.8,-131.75"/>
</a>
</g>
</g>
<!-- Node55 -->
<g id="Node000055" class="node">
<title>Node55</title>
<g id="a_Node000055"><a xlink:href="EffectControlDialog_8h.html" target="_top" xlink:title=" ">
<polygon fill="white" stroke="#666666" points="596.75,-240.25 490.75,-240.25 490.75,-221 596.75,-221 596.75,-240.25"/>
<text xml:space="preserve" text-anchor="middle" x="543.75" y="-226.75" font-family="Helvetica,sans-Serif" font-size="10.00">EffectControlDialog.h</text>
</a>
</g>
</g>
<!-- Node54&#45;&gt;Node55 -->
<g id="edge29_Node000054_Node000055" class="edge">
<title>Node54&#45;&gt;Node55</title>
<g id="a_edge29_Node000054_Node000055"><a xlink:title=" ">
<path fill="none" stroke="#63b8ff" d="M522.88,-276.08C526.08,-269.26 530.64,-259.56 534.68,-250.95"/>
<polygon fill="#63b8ff" stroke="#63b8ff" points="537.81,-252.52 538.89,-241.98 531.47,-249.54 537.81,-252.52"/>
</a>
</g>
</g>
<!-- Node56 -->
<g id="Node000056" class="node">
<title>Node56</title>
<g id="a_Node000056"><a xlink:title=" ">
<polygon fill="#e0e0e0" stroke="#999999" points="634.5,-185 581,-185 581,-165.75 634.5,-165.75 634.5,-185"/>
<text xml:space="preserve" text-anchor="middle" x="607.75" y="-171.5" font-family="Helvetica,sans-Serif" font-size="10.00">QWidget</text>
</a>
</g>
</g>
<!-- Node55&#45;&gt;Node56 -->
<g id="edge30_Node000055_Node000056" class="edge">
<title>Node55&#45;&gt;Node56</title>
<g id="a_edge30_Node000055_Node000056"><a xlink:title=" ">
<path fill="none" stroke="#63b8ff" d="M554.61,-220.59C563.86,-212.9 577.37,-201.65 588.46,-192.43"/>
<polygon fill="#63b8ff" stroke="#63b8ff" points="590.44,-195.33 595.89,-186.24 585.96,-189.95 590.44,-195.33"/>
</a>
</g>
</g>
<!-- Node57 -->
<g id="Node000057" class="node">
<title>Node57</title>
<g id="a_Node000057"><a xlink:href="ModelView_8h.html" target="_top" xlink:title=" ">
<polygon fill="#fff0f0" stroke="red" points="562.5,-185 491,-185 491,-165.75 562.5,-165.75 562.5,-185"/>
<text xml:space="preserve" text-anchor="middle" x="526.75" y="-171.5" font-family="Helvetica,sans-Serif" font-size="10.00">ModelView.h</text>
</a>
</g>
</g>
<!-- Node55&#45;&gt;Node57 -->
<g id="edge31_Node000055_Node000057" class="edge">
<title>Node55&#45;&gt;Node57</title>
<g id="a_edge31_Node000055_Node000057"><a xlink:title=" ">
<path fill="none" stroke="#63b8ff" d="M540.94,-220.83C538.81,-214.17 535.81,-204.74 533.11,-196.28"/>
<polygon fill="#63b8ff" stroke="#63b8ff" points="536.45,-195.26 530.08,-186.8 529.79,-197.39 536.45,-195.26"/>
</a>
</g>
</g>
<!-- Node57&#45;&gt;Node3 -->
<g id="edge32_Node000057_Node000003" class="edge">
<title>Node57&#45;&gt;Node3</title>
<g id="a_edge32_Node000057_Node000003"><a xlink:title=" ">
<path fill="none" stroke="#63b8ff" d="M515.89,-165.34C506.64,-157.65 493.13,-146.4 482.04,-137.18"/>
<polygon fill="#63b8ff" stroke="#63b8ff" points="484.54,-134.7 474.61,-130.99 480.06,-140.08 484.54,-134.7"/>
</a>
</g>
</g>
</g>
</svg>
