<?xml version="1.0" encoding="UTF-8" standalone="no"?>
<!DOCTYPE svg PUBLIC "-//W3C//DTD SVG 1.1//EN"
 "http://www.w3.org/Graphics/SVG/1.1/DTD/svg11.dtd">
<!-- Generated by graphviz version 14.0.2 (0)
 -->
<!-- Title: print_cached_plugin Pages: 1 -->
<svg width="630pt" height="46pt"
 viewBox="0.00 0.00 630.00 46.00" xmlns="http://www.w3.org/2000/svg" xmlns:xlink="http://www.w3.org/1999/xlink">
<g id="graph0" class="graph" transform="scale(1 1) rotate(0) translate(4 42.25)">
<title>print_cached_plugin</title>
<!-- Node1 -->
<g id="Node000001" class="node">
<title>Node1</title>
<g id="a_Node000001"><a xlink:title=" ">
<polygon fill="#999999" stroke="#666666" points="102.25,-38.25 0,-38.25 0,-19 102.25,-19 102.25,-38.25"/>
<text xml:space="preserve" text-anchor="middle" x="51.12" y="-24.75" font-family="Helvetica,sans-Serif" font-size="10.00">print_cached_plugin</text>
</a>
</g>
</g>
<!-- Node2 -->
<g id="Node000002" class="node">
<title>Node2</title>
<g id="a_Node000002"><a xlink:href="CarlaBackendUtils_8hpp.html#a39480effd8647da0875ae54d02f46d00" target="_top" xlink:title=" ">
<polygon fill="white" stroke="#666666" points="270.5,-38.25 138.25,-38.25 138.25,-19 270.5,-19 270.5,-38.25"/>
<text xml:space="preserve" text-anchor="middle" x="204.38" y="-24.75" font-family="Helvetica,sans-Serif" font-size="10.00">getPluginCategoryAsString</text>
</a>
</g>
</g>
<!-- Node1&#45;&gt;Node2 -->
<g id="edge1_Node000001_Node000002" class="edge">
<title>Node1&#45;&gt;Node2</title>
<g id="a_edge1_Node000001_Node000002"><a xlink:title=" ">
<path fill="none" stroke="#63b8ff" d="M102.49,-28.62C110.2,-28.62 118.3,-28.62 126.43,-28.62"/>
<polygon fill="#63b8ff" stroke="#63b8ff" points="126.38,-32.13 136.38,-28.63 126.38,-25.13 126.38,-32.13"/>
</a>
</g>
</g>
<!-- Node3 -->
<g id="Node000003" class="node">
<title>Node3</title>
<g id="a_Node000003"><a xlink:href="CarlaUtils_8hpp.html#a941976468e634e751aeeb433f1b5708c" target="_top" xlink:title=" ">
<polygon fill="white" stroke="#666666" points="508.75,-38.25 441.75,-38.25 441.75,-19 508.75,-19 508.75,-38.25"/>
<text xml:space="preserve" text-anchor="middle" x="475.25" y="-24.75" font-family="Helvetica,sans-Serif" font-size="10.00">carla_stderr</text>
</a>
</g>
</g>
<!-- Node2&#45;&gt;Node3 -->
<g id="edge2_Node000002_Node000003" class="edge">
<title>Node2&#45;&gt;Node3</title>
<g id="a_edge2_Node000002_Node000003"><a xlink:title=" ">
<path fill="none" stroke="#63b8ff" d="M270.81,-28.62C320.21,-28.62 386.69,-28.62 429.99,-28.62"/>
<polygon fill="#63b8ff" stroke="#63b8ff" points="429.77,-32.13 439.77,-28.63 429.77,-25.13 429.77,-32.13"/>
</a>
</g>
</g>
<!-- Node5 -->
<g id="Node000005" class="node">
<title>Node5</title>
<g id="a_Node000005"><a xlink:href="CarlaBackendUtils_8hpp.html#a1ab9022585c7ca2e24362dd52097b2a3" target="_top" xlink:title=" ">
<polygon fill="white" stroke="#666666" points="405.75,-19.25 306.5,-19.25 306.5,0 405.75,0 405.75,-19.25"/>
<text xml:space="preserve" text-anchor="middle" x="356.12" y="-5.75" font-family="Helvetica,sans-Serif" font-size="10.00">PluginCategory2Str</text>
</a>
</g>
</g>
<!-- Node2&#45;&gt;Node5 -->
<g id="edge4_Node000002_Node000005" class="edge">
<title>Node2&#45;&gt;Node5</title>
<g id="a_edge4_Node000002_Node000005"><a xlink:title=" ">
<path fill="none" stroke="#63b8ff" d="M270.62,-20.35C278.76,-19.31 287.06,-18.26 295.12,-17.24"/>
<polygon fill="#63b8ff" stroke="#63b8ff" points="295.33,-20.74 304.81,-16.01 294.45,-13.8 295.33,-20.74"/>
</a>
</g>
</g>
<!-- Node4 -->
<g id="Node000004" class="node">
<title>Node4</title>
<g id="a_Node000004"><a xlink:href="CarlaUtils_8hpp.html#a72c98b79b4bafee47a1e9249e83368f3" target="_top" xlink:title=" ">
<polygon fill="white" stroke="#666666" points="621.5,-38.25 544.75,-38.25 544.75,-19 621.5,-19 621.5,-38.25"/>
<text xml:space="preserve" text-anchor="middle" x="583.12" y="-24.75" font-family="Helvetica,sans-Serif" font-size="10.00">__carla_fopen</text>
</a>
</g>
</g>
<!-- Node3&#45;&gt;Node4 -->
<g id="edge3_Node000003_Node000004" class="edge">
<title>Node3&#45;&gt;Node4</title>
<g id="a_edge3_Node000003_Node000004"><a xlink:title=" ">
<path fill="none" stroke="#63b8ff" d="M509.17,-28.62C516.76,-28.62 525,-28.62 533.11,-28.62"/>
<polygon fill="#63b8ff" stroke="#63b8ff" points="532.9,-32.13 542.9,-28.63 532.9,-25.13 532.9,-32.13"/>
</a>
</g>
</g>
<!-- Node5&#45;&gt;Node3 -->
<g id="edge5_Node000005_Node000003" class="edge">
<title>Node5&#45;&gt;Node3</title>
<g id="a_edge5_Node000005_Node000003"><a xlink:title=" ">
<path fill="none" stroke="#63b8ff" d="M406.12,-17.57C414.12,-18.87 422.37,-20.21 430.24,-21.49"/>
<polygon fill="#63b8ff" stroke="#63b8ff" points="429.51,-24.91 439.94,-23.06 430.63,-18 429.51,-24.91"/>
</a>
</g>
</g>
</g>
</svg>
