<?xml version="1.0" encoding="UTF-8" standalone="no"?>
<!DOCTYPE svg PUBLIC "-//W3C//DTD SVG 1.1//EN"
 "http://www.w3.org/Graphics/SVG/1.1/DTD/svg11.dtd">
<!-- Generated by graphviz version 14.0.2 (0)
 -->
<!-- Title: handle_carla_get_parameter_count Pages: 1 -->
<svg width="436pt" height="113pt"
 viewBox="0.00 0.00 436.00 113.00" xmlns="http://www.w3.org/2000/svg" xmlns:xlink="http://www.w3.org/1999/xlink">

<svg id="main" version="1.1" xmlns="http://www.w3.org/2000/svg" xmlns:xlink="http://www.w3.org/1999/xlink" xml:space="preserve">

<style type="text/css"><![CDATA[
.node, .edge {opacity: 0.7;}
.node.selected, .edge.selected {opacity: 1;}
.edge:hover path { stroke: red; }
.edge:hover polygon { stroke: red; fill: red; }
]]></style>
<script type="application/ecmascript" xlink:href="svg.min.js"/>
<svg id="graph" class="graph">
<g id="graph0" class="graph" transform="scale(1 1) rotate(0) translate(4 108.88)">
<title>handle_carla_get_parameter_count</title>
<!-- Node1 -->
<g id="Node000001" class="node">
<title>Node1</title>
<g id="a_Node000001"><a xlink:title=" ">
<polygon fill="#999999" stroke="#666666" points="138.25,-61.88 0,-61.88 0,-31.38 138.25,-31.38 138.25,-61.88"/>
<text xml:space="preserve" text-anchor="start" x="8" y="-48.38" font-family="Helvetica,sans-Serif" font-size="10.00">handle_carla_get_parameter</text>
<text xml:space="preserve" text-anchor="middle" x="69.12" y="-37.12" font-family="Helvetica,sans-Serif" font-size="10.00">_count</text>
</a>
</g>
</g>
<!-- Node2 -->
<g id="Node000002" class="node">
<title>Node2</title>
<g id="a_Node000002"><a xlink:href="group__CarlaHostAPI.html#gafb61ba88cf1b3e98cb33b1708e40aaf9" target="_top" xlink:title=" ">
<polygon fill="white" stroke="#666666" points="278.75,-104.88 174.25,-104.88 174.25,-74.38 278.75,-74.38 278.75,-104.88"/>
<text xml:space="preserve" text-anchor="start" x="182.25" y="-91.38" font-family="Helvetica,sans-Serif" font-size="10.00">carla_get_parameter</text>
<text xml:space="preserve" text-anchor="middle" x="226.5" y="-80.12" font-family="Helvetica,sans-Serif" font-size="10.00">_count</text>
</a>
</g>
</g>
<!-- Node1&#45;&gt;Node2 -->
<g id="edge1_Node000001_Node000002" class="edge">
<title>Node1&#45;&gt;Node2</title>
<g id="a_edge1_Node000001_Node000002"><a xlink:title=" ">
<path fill="none" stroke="#63b8ff" d="M126.66,-62.27C138.48,-65.54 151.02,-69.01 163.04,-72.34"/>
<polygon fill="#63b8ff" stroke="#63b8ff" points="161.88,-75.65 172.45,-74.94 163.75,-68.9 161.88,-75.65"/>
</a>
</g>
</g>
<!-- Node4 -->
<g id="Node000004" class="node">
<title>Node4</title>
<g id="a_Node000004"><a xlink:href="buffers_8cpp.html#af0a72cb52fd726cf2f5ee048a06fafbc" target="_top" xlink:title=" ">
<polygon fill="white" stroke="#666666" points="252.5,-56.25 200.5,-56.25 200.5,-37 252.5,-37 252.5,-56.25"/>
<text xml:space="preserve" text-anchor="middle" x="226.5" y="-42.75" font-family="Helvetica,sans-Serif" font-size="10.00">size_buf</text>
</a>
</g>
</g>
<!-- Node1&#45;&gt;Node4 -->
<g id="edge3_Node000001_Node000004" class="edge">
<title>Node1&#45;&gt;Node4</title>
<g id="a_edge3_Node000001_Node000004"><a xlink:title=" ">
<path fill="none" stroke="#63b8ff" d="M138.73,-46.62C155.92,-46.62 173.71,-46.62 188.68,-46.62"/>
<polygon fill="#63b8ff" stroke="#63b8ff" points="188.49,-50.13 198.49,-46.63 188.49,-43.13 188.49,-50.13"/>
</a>
</g>
</g>
<!-- Node5 -->
<g id="Node000005" class="node">
<title>Node5</title>
<g id="a_Node000005"><a xlink:href="buffers_8cpp.html#a0a13cae85d7d037e1f708a3c0fdda44f" target="_top" xlink:title=" ">
<polygon fill="white" stroke="#666666" points="260,-19.25 193,-19.25 193,0 260,0 260,-19.25"/>
<text xml:space="preserve" text-anchor="middle" x="226.5" y="-5.75" font-family="Helvetica,sans-Serif" font-size="10.00">str_buf_uint</text>
</a>
</g>
</g>
<!-- Node1&#45;&gt;Node5 -->
<g id="edge4_Node000001_Node000005" class="edge">
<title>Node1&#45;&gt;Node5</title>
<g id="a_edge4_Node000001_Node000005"><a xlink:title=" ">
<path fill="none" stroke="#63b8ff" d="M136.02,-30.93C151.42,-27.27 167.46,-23.45 181.63,-20.07"/>
<polygon fill="#63b8ff" stroke="#63b8ff" points="182.15,-23.55 191.07,-17.82 180.53,-16.74 182.15,-23.55"/>
</a>
</g>
</g>
<!-- Node3 -->
<g id="Node000003" class="node">
<title>Node3</title>
<g id="a_Node000003"><a xlink:href="classCarlaEngine.html#ab4d000875fe4901a3207f17bbe7a3bff" target="_top" xlink:title=" ">
<polygon fill="white" stroke="#666666" points="427.5,-99.25 314.75,-99.25 314.75,-80 427.5,-80 427.5,-99.25"/>
<text xml:space="preserve" text-anchor="middle" x="371.12" y="-85.75" font-family="Helvetica,sans-Serif" font-size="10.00">CarlaEngine::getPlugin</text>
</a>
</g>
</g>
<!-- Node2&#45;&gt;Node3 -->
<g id="edge2_Node000002_Node000003" class="edge">
<title>Node2&#45;&gt;Node3</title>
<g id="a_edge2_Node000002_Node000003"><a xlink:title=" ">
<path fill="none" stroke="#63b8ff" d="M278.99,-89.62C286.8,-89.62 294.95,-89.62 303.04,-89.62"/>
<polygon fill="#63b8ff" stroke="#63b8ff" points="302.86,-93.13 312.86,-89.63 302.86,-86.13 302.86,-93.13"/>
</a>
</g>
</g>
</g>
</svg>
</svg>

<style type='text/css'>
<![CDATA[
[data-mouse-over-selected='false'] { opacity: 0.7; }
[data-mouse-over-selected='true']  { opacity: 1.0; }
]]>
</style>
<script type="application/ecmascript"><![CDATA[
document.addEventListener('DOMContentLoaded', (event) => {
  highlightEdges();
  highlightAdjacentNodes();
});
]]></script>
</svg>
