<?xml version="1.0" encoding="UTF-8" standalone="no"?>
<!DOCTYPE svg PUBLIC "-//W3C//DTD SVG 1.1//EN"
 "http://www.w3.org/Graphics/SVG/1.1/DTD/svg11.dtd">
<!-- Generated by graphviz version 14.0.2 (0)
 -->
<!-- Title: handle_carla_get_complete_license_text Pages: 1 -->
<svg width="418pt" height="113pt"
 viewBox="0.00 0.00 418.00 113.00" xmlns="http://www.w3.org/2000/svg" xmlns:xlink="http://www.w3.org/1999/xlink">
<g id="graph0" class="graph" transform="scale(1 1) rotate(0) translate(4 108.88)">
<title>handle_carla_get_complete_license_text</title>
<!-- Node1 -->
<g id="Node000001" class="node">
<title>Node1</title>
<g id="a_Node000001"><a xlink:title=" ">
<polygon fill="#999999" stroke="#666666" points="134.5,-61.88 0,-61.88 0,-31.38 134.5,-31.38 134.5,-61.88"/>
<text xml:space="preserve" text-anchor="start" x="8" y="-48.38" font-family="Helvetica,sans-Serif" font-size="10.00">handle_carla_get_complete</text>
<text xml:space="preserve" text-anchor="middle" x="67.25" y="-37.12" font-family="Helvetica,sans-Serif" font-size="10.00">_license_text</text>
</a>
</g>
</g>
<!-- Node2 -->
<g id="Node000002" class="node">
<title>Node2</title>
<g id="a_Node000002"><a xlink:href="group__CarlaHostAPI.html#ga3cb41908cdf3c0a2fdcbfc7c0e1e4d95" target="_top" xlink:title=" ">
<polygon fill="white" stroke="#666666" points="271.25,-104.88 170.5,-104.88 170.5,-74.38 271.25,-74.38 271.25,-104.88"/>
<text xml:space="preserve" text-anchor="start" x="178.5" y="-91.38" font-family="Helvetica,sans-Serif" font-size="10.00">carla_get_complete</text>
<text xml:space="preserve" text-anchor="middle" x="220.88" y="-80.12" font-family="Helvetica,sans-Serif" font-size="10.00">_license_text</text>
</a>
</g>
</g>
<!-- Node1&#45;&gt;Node2 -->
<g id="edge1_Node000001_Node000002" class="edge">
<title>Node1&#45;&gt;Node2</title>
<g id="a_edge1_Node000001_Node000002"><a xlink:title=" ">
<path fill="none" stroke="#63b8ff" d="M123.42,-62.27C134.97,-65.55 147.21,-69.02 158.96,-72.35"/>
<polygon fill="#63b8ff" stroke="#63b8ff" points="158,-75.71 168.57,-75.08 159.91,-68.98 158,-75.71"/>
</a>
</g>
</g>
<!-- Node4 -->
<g id="Node000004" class="node">
<title>Node4</title>
<g id="a_Node000004"><a xlink:href="buffers_8cpp.html#af0a72cb52fd726cf2f5ee048a06fafbc" target="_top" xlink:title=" ">
<polygon fill="white" stroke="#666666" points="246.88,-56.25 194.88,-56.25 194.88,-37 246.88,-37 246.88,-56.25"/>
<text xml:space="preserve" text-anchor="middle" x="220.88" y="-42.75" font-family="Helvetica,sans-Serif" font-size="10.00">size_buf</text>
</a>
</g>
</g>
<!-- Node1&#45;&gt;Node4 -->
<g id="edge3_Node000001_Node000004" class="edge">
<title>Node1&#45;&gt;Node4</title>
<g id="a_edge3_Node000001_Node000004"><a xlink:title=" ">
<path fill="none" stroke="#63b8ff" d="M134.75,-46.62C151.46,-46.62 168.77,-46.62 183.38,-46.62"/>
<polygon fill="#63b8ff" stroke="#63b8ff" points="182.95,-50.13 192.95,-46.63 182.95,-43.13 182.95,-50.13"/>
</a>
</g>
</g>
<!-- Node5 -->
<g id="Node000005" class="node">
<title>Node5</title>
<g id="a_Node000005"><a xlink:href="buffers_8cpp.html#a90696901f83626118eda697d73583769" target="_top" xlink:title=" ">
<polygon fill="white" stroke="#666666" points="258.5,-19.25 183.25,-19.25 183.25,0 258.5,0 258.5,-19.25"/>
<text xml:space="preserve" text-anchor="middle" x="220.88" y="-5.75" font-family="Helvetica,sans-Serif" font-size="10.00">str_buf_string</text>
</a>
</g>
</g>
<!-- Node1&#45;&gt;Node5 -->
<g id="edge4_Node000001_Node000005" class="edge">
<title>Node1&#45;&gt;Node5</title>
<g id="a_edge4_Node000001_Node000005"><a xlink:title=" ">
<path fill="none" stroke="#63b8ff" d="M132.55,-30.93C145.78,-27.71 159.48,-24.36 172,-21.31"/>
<polygon fill="#63b8ff" stroke="#63b8ff" points="172.76,-24.72 181.65,-18.95 171.1,-17.92 172.76,-24.72"/>
</a>
</g>
</g>
<!-- Node3 -->
<g id="Node000003" class="node">
<title>Node3</title>
<g id="a_Node000003"><a xlink:href="classCarlaString.html#a54e23bff7d33c4f3b961bac21b710511" target="_top" xlink:title=" ">
<polygon fill="white" stroke="#666666" points="410.25,-99.25 307.25,-99.25 307.25,-80 410.25,-80 410.25,-99.25"/>
<text xml:space="preserve" text-anchor="middle" x="358.75" y="-85.75" font-family="Helvetica,sans-Serif" font-size="10.00">CarlaString::isEmpty</text>
</a>
</g>
</g>
<!-- Node2&#45;&gt;Node3 -->
<g id="edge2_Node000002_Node000003" class="edge">
<title>Node2&#45;&gt;Node3</title>
<g id="a_edge2_Node000002_Node000003"><a xlink:title=" ">
<path fill="none" stroke="#63b8ff" d="M271.7,-89.62C279.52,-89.62 287.69,-89.62 295.75,-89.62"/>
<polygon fill="#63b8ff" stroke="#63b8ff" points="295.51,-93.13 305.51,-89.63 295.51,-86.13 295.51,-93.13"/>
</a>
</g>
</g>
</g>
</svg>
