<?xml version="1.0" encoding="UTF-8" standalone="no"?>
<!DOCTYPE svg PUBLIC "-//W3C//DTD SVG 1.1//EN"
 "http://www.w3.org/Graphics/SVG/1.1/DTD/svg11.dtd">
<!-- Generated by graphviz version 14.0.2 (0)
 -->
<!-- Title: plugins/CarlaBase/carla/source/backend/CarlaUtils.h Pages: 1 -->
<svg width="3778pt" height="272pt"
 viewBox="0.00 0.00 3778.00 272.00" xmlns="http://www.w3.org/2000/svg" xmlns:xlink="http://www.w3.org/1999/xlink">
<g id="graph0" class="graph" transform="scale(1 1) rotate(0) translate(4 267.75)">
<title>plugins/CarlaBase/carla/source/backend/CarlaUtils.h</title>
<!-- Node1 -->
<g id="Node000001" class="node">
<title>Node1</title>
<g id="a_Node000001"><a xlink:title=" ">
<polygon fill="#999999" stroke="#666666" points="2258.75,-263.75 2117.5,-263.75 2117.5,-233.25 2258.75,-233.25 2258.75,-263.75"/>
<text xml:space="preserve" text-anchor="start" x="2125.5" y="-250.25" font-family="Helvetica,sans-Serif" font-size="10.00">plugins/CarlaBase/carla</text>
<text xml:space="preserve" text-anchor="middle" x="2188.12" y="-239" font-family="Helvetica,sans-Serif" font-size="10.00">/source/backend/CarlaUtils.h</text>
</a>
</g>
</g>
<!-- Node2 -->
<g id="Node000002" class="node">
<title>Node2</title>
<g id="a_Node000002"><a xlink:href="Carla_8h.html" target="_top" xlink:title=" ">
<polygon fill="white" stroke="#666666" points="355,-186 227.25,-186 227.25,-166.75 355,-166.75 355,-186"/>
<text xml:space="preserve" text-anchor="middle" x="291.12" y="-172.5" font-family="Helvetica,sans-Serif" font-size="10.00">plugins/CarlaBase/Carla.h</text>
</a>
</g>
</g>
<!-- Node1&#45;&gt;Node2 -->
<g id="edge1_Node000001_Node000002" class="edge">
<title>Node1&#45;&gt;Node2</title>
<g id="a_edge1_Node000001_Node000002"><a xlink:title=" ">
<path fill="none" stroke="#63b8ff" d="M2106.03,-244.47C1894.35,-236.65 1312.68,-215.17 828.12,-197.25 657.28,-190.93 455.87,-183.48 355.19,-179.75"/>
<polygon fill="#63b8ff" stroke="#63b8ff" points="2105.7,-247.96 2115.82,-244.83 2105.96,-240.96 2105.7,-247.96"/>
</a>
</g>
</g>
<!-- Node6 -->
<g id="Node000006" class="node">
<title>Node6</title>
<g id="a_Node000006"><a xlink:href="CarlaHostImpl_8hpp.html" target="_top" xlink:title=" ">
<polygon fill="white" stroke="#666666" points="1008.75,-191.62 837.5,-191.62 837.5,-161.12 1008.75,-161.12 1008.75,-191.62"/>
<text xml:space="preserve" text-anchor="start" x="845.5" y="-178.12" font-family="Helvetica,sans-Serif" font-size="10.00">plugins/CarlaBase/carla</text>
<text xml:space="preserve" text-anchor="middle" x="923.12" y="-166.88" font-family="Helvetica,sans-Serif" font-size="10.00">/source/backend/CarlaHostImpl.hpp</text>
</a>
</g>
</g>
<!-- Node1&#45;&gt;Node6 -->
<g id="edge5_Node000001_Node000006" class="edge">
<title>Node1&#45;&gt;Node6</title>
<g id="a_edge5_Node000001_Node000006"><a xlink:title=" ">
<path fill="none" stroke="#63b8ff" d="M2105.68,-247.32C1916.93,-246.15 1439.09,-238.95 1042.12,-197.25 1029.42,-195.92 1016.01,-194.09 1002.96,-192.08"/>
<polygon fill="#63b8ff" stroke="#63b8ff" points="2105.62,-250.82 2115.64,-247.38 2105.66,-243.82 2105.62,-250.82"/>
</a>
</g>
</g>
<!-- Node11 -->
<g id="Node000011" class="node">
<title>Node11</title>
<g id="a_Node000011"><a xlink:href="backend_2utils_2CachedPlugins_8cpp.html" target="_top" xlink:title=" ">
<polygon fill="white" stroke="#666666" points="1866.5,-197.25 1747.75,-197.25 1747.75,-155.5 1866.5,-155.5 1866.5,-197.25"/>
<text xml:space="preserve" text-anchor="start" x="1755.75" y="-183.75" font-family="Helvetica,sans-Serif" font-size="10.00">plugins/CarlaBase/carla</text>
<text xml:space="preserve" text-anchor="start" x="1755.75" y="-172.5" font-family="Helvetica,sans-Serif" font-size="10.00">/source/backend/utils</text>
<text xml:space="preserve" text-anchor="middle" x="1807.12" y="-161.25" font-family="Helvetica,sans-Serif" font-size="10.00">/CachedPlugins.cpp</text>
</a>
</g>
</g>
<!-- Node1&#45;&gt;Node11 -->
<g id="edge11_Node000001_Node000011" class="edge">
<title>Node1&#45;&gt;Node11</title>
<g id="a_edge11_Node000001_Node000011"><a xlink:title=" ">
<path fill="none" stroke="#63b8ff" d="M2106.08,-232.4C2034.14,-219.16 1931.25,-200.22 1866.87,-188.37"/>
<polygon fill="#63b8ff" stroke="#63b8ff" points="2105.4,-235.83 2115.87,-234.2 2106.66,-228.95 2105.4,-235.83"/>
</a>
</g>
</g>
<!-- Node13 -->
<g id="Node000013" class="node">
<title>Node13</title>
<g id="a_Node000013"><a xlink:href="Information_8cpp.html" target="_top" xlink:title=" ">
<polygon fill="white" stroke="#666666" points="1169.5,-197.25 1050.75,-197.25 1050.75,-155.5 1169.5,-155.5 1169.5,-197.25"/>
<text xml:space="preserve" text-anchor="start" x="1058.75" y="-183.75" font-family="Helvetica,sans-Serif" font-size="10.00">plugins/CarlaBase/carla</text>
<text xml:space="preserve" text-anchor="start" x="1058.75" y="-172.5" font-family="Helvetica,sans-Serif" font-size="10.00">/source/backend/utils</text>
<text xml:space="preserve" text-anchor="middle" x="1110.12" y="-161.25" font-family="Helvetica,sans-Serif" font-size="10.00">/Information.cpp</text>
</a>
</g>
</g>
<!-- Node1&#45;&gt;Node13 -->
<g id="edge14_Node000001_Node000013" class="edge">
<title>Node1&#45;&gt;Node13</title>
<g id="a_edge14_Node000001_Node000013"><a xlink:title=" ">
<path fill="none" stroke="#63b8ff" d="M2106.23,-246C1941.32,-242.35 1557.62,-230.71 1237.12,-197.25 1215.04,-194.94 1190.94,-191.43 1169.72,-187.99"/>
<polygon fill="#63b8ff" stroke="#63b8ff" points="2105.66,-249.48 2115.73,-246.2 2105.81,-242.49 2105.66,-249.48"/>
</a>
</g>
</g>
<!-- Node14 -->
<g id="Node000014" class="node">
<title>Node14</title>
<g id="a_Node000014"><a xlink:href="JUCE_8cpp.html" target="_top" xlink:title=" ">
<polygon fill="white" stroke="#666666" points="2003.5,-119.5 1884.75,-119.5 1884.75,-77.75 2003.5,-77.75 2003.5,-119.5"/>
<text xml:space="preserve" text-anchor="start" x="1892.75" y="-106" font-family="Helvetica,sans-Serif" font-size="10.00">plugins/CarlaBase/carla</text>
<text xml:space="preserve" text-anchor="start" x="1892.75" y="-94.75" font-family="Helvetica,sans-Serif" font-size="10.00">/source/backend/utils</text>
<text xml:space="preserve" text-anchor="middle" x="1944.12" y="-83.5" font-family="Helvetica,sans-Serif" font-size="10.00">/JUCE.cpp</text>
</a>
</g>
</g>
<!-- Node1&#45;&gt;Node14 -->
<g id="edge17_Node000001_Node000014" class="edge">
<title>Node1&#45;&gt;Node14</title>
<g id="a_edge17_Node000001_Node000014"><a xlink:title=" ">
<path fill="none" stroke="#63b8ff" d="M2106.27,-233.12C2077.96,-225.54 2047.11,-214.17 2022.12,-197.25 1992.31,-177.06 1968.36,-142 1955.21,-119.85"/>
<polygon fill="#63b8ff" stroke="#63b8ff" points="2105.36,-236.5 2115.92,-235.57 2107.09,-229.71 2105.36,-236.5"/>
</a>
</g>
</g>
<!-- Node15 -->
<g id="Node000015" class="node">
<title>Node15</title>
<g id="a_Node000015"><a xlink:href="PipeClient_8cpp.html" target="_top" xlink:title=" ">
<polygon fill="white" stroke="#666666" points="2140.5,-119.5 2021.75,-119.5 2021.75,-77.75 2140.5,-77.75 2140.5,-119.5"/>
<text xml:space="preserve" text-anchor="start" x="2029.75" y="-106" font-family="Helvetica,sans-Serif" font-size="10.00">plugins/CarlaBase/carla</text>
<text xml:space="preserve" text-anchor="start" x="2029.75" y="-94.75" font-family="Helvetica,sans-Serif" font-size="10.00">/source/backend/utils</text>
<text xml:space="preserve" text-anchor="middle" x="2081.12" y="-83.5" font-family="Helvetica,sans-Serif" font-size="10.00">/PipeClient.cpp</text>
</a>
</g>
</g>
<!-- Node1&#45;&gt;Node15 -->
<g id="edge19_Node000001_Node000015" class="edge">
<title>Node1&#45;&gt;Node15</title>
<g id="a_edge19_Node000001_Node000015"><a xlink:title=" ">
<path fill="none" stroke="#63b8ff" d="M2105.93,-240.46C2077.92,-233.66 2049.36,-220.9 2032.12,-197.25 2014.15,-172.57 2038.16,-140.32 2058.46,-119.78"/>
<polygon fill="#63b8ff" stroke="#63b8ff" points="2105.04,-243.85 2115.55,-242.55 2106.52,-237.01 2105.04,-243.85"/>
</a>
</g>
</g>
<!-- Node16 -->
<g id="Node000016" class="node">
<title>Node16</title>
<g id="a_Node000016"><a xlink:href="PluginDiscovery_8cpp.html" target="_top" xlink:title=" ">
<polygon fill="white" stroke="#666666" points="2277.5,-119.5 2158.75,-119.5 2158.75,-77.75 2277.5,-77.75 2277.5,-119.5"/>
<text xml:space="preserve" text-anchor="start" x="2166.75" y="-106" font-family="Helvetica,sans-Serif" font-size="10.00">plugins/CarlaBase/carla</text>
<text xml:space="preserve" text-anchor="start" x="2166.75" y="-94.75" font-family="Helvetica,sans-Serif" font-size="10.00">/source/backend/utils</text>
<text xml:space="preserve" text-anchor="middle" x="2218.12" y="-83.5" font-family="Helvetica,sans-Serif" font-size="10.00">/PluginDiscovery.cpp</text>
</a>
</g>
</g>
<!-- Node1&#45;&gt;Node16 -->
<g id="edge21_Node000001_Node000016" class="edge">
<title>Node1&#45;&gt;Node16</title>
<g id="a_edge21_Node000001_Node000016"><a xlink:title=" ">
<path fill="none" stroke="#63b8ff" d="M2106.15,-237.2C2082.25,-229.96 2058.68,-217.75 2044.12,-197.25 2033.38,-182.12 2033.19,-170.49 2044.12,-155.5 2047.71,-150.58 2109.56,-131.47 2158.5,-116.96"/>
<polygon fill="#63b8ff" stroke="#63b8ff" points="2105.09,-240.54 2115.66,-239.79 2106.93,-233.78 2105.09,-240.54"/>
</a>
</g>
</g>
<!-- Node17 -->
<g id="Node000017" class="node">
<title>Node17</title>
<g id="a_Node000017"><a xlink:href="System_8cpp.html" target="_top" xlink:title=" ">
<polygon fill="white" stroke="#666666" points="2414.5,-119.5 2295.75,-119.5 2295.75,-77.75 2414.5,-77.75 2414.5,-119.5"/>
<text xml:space="preserve" text-anchor="start" x="2303.75" y="-106" font-family="Helvetica,sans-Serif" font-size="10.00">plugins/CarlaBase/carla</text>
<text xml:space="preserve" text-anchor="start" x="2303.75" y="-94.75" font-family="Helvetica,sans-Serif" font-size="10.00">/source/backend/utils</text>
<text xml:space="preserve" text-anchor="middle" x="2355.12" y="-83.5" font-family="Helvetica,sans-Serif" font-size="10.00">/System.cpp</text>
</a>
</g>
</g>
<!-- Node1&#45;&gt;Node17 -->
<g id="edge23_Node000001_Node000017" class="edge">
<title>Node1&#45;&gt;Node17</title>
<g id="a_edge23_Node000001_Node000017"><a xlink:title=" ">
<path fill="none" stroke="#63b8ff" d="M2114.03,-228.17C2099.44,-220.88 2085.93,-210.9 2077.12,-197.25 2067.07,-181.66 2065.17,-169.69 2077.12,-155.5 2107.49,-119.46 2240.19,-130.04 2286.12,-119.5 2289.16,-118.8 2292.27,-118.05 2295.39,-117.27"/>
<polygon fill="#63b8ff" stroke="#63b8ff" points="2112.34,-231.24 2122.89,-232.17 2115.22,-224.86 2112.34,-231.24"/>
</a>
</g>
</g>
<!-- Node18 -->
<g id="Node000018" class="node">
<title>Node18</title>
<g id="a_Node000018"><a xlink:href="Windows_8cpp.html" target="_top" xlink:title=" ">
<polygon fill="white" stroke="#666666" points="2204.5,-197.25 2085.75,-197.25 2085.75,-155.5 2204.5,-155.5 2204.5,-197.25"/>
<text xml:space="preserve" text-anchor="start" x="2093.75" y="-183.75" font-family="Helvetica,sans-Serif" font-size="10.00">plugins/CarlaBase/carla</text>
<text xml:space="preserve" text-anchor="start" x="2093.75" y="-172.5" font-family="Helvetica,sans-Serif" font-size="10.00">/source/backend/utils</text>
<text xml:space="preserve" text-anchor="middle" x="2145.12" y="-161.25" font-family="Helvetica,sans-Serif" font-size="10.00">/Windows.cpp</text>
</a>
</g>
</g>
<!-- Node1&#45;&gt;Node18 -->
<g id="edge25_Node000001_Node000018" class="edge">
<title>Node1&#45;&gt;Node18</title>
<g id="a_edge25_Node000001_Node000018"><a xlink:title=" ">
<path fill="none" stroke="#63b8ff" d="M2173.34,-223.38C2168.22,-215.03 2162.53,-205.76 2157.61,-197.74"/>
<polygon fill="#63b8ff" stroke="#63b8ff" points="2170.21,-224.98 2178.42,-231.68 2176.18,-221.33 2170.21,-224.98"/>
</a>
</g>
</g>
<!-- Node19 -->
<g id="Node000019" class="node">
<title>Node19</title>
<g id="a_Node000019"><a xlink:href="CarlaBridgeToolkitNative_8cpp.html" target="_top" xlink:title=" ">
<polygon fill="white" stroke="#666666" points="2616.38,-119.5 2469.88,-119.5 2469.88,-77.75 2616.38,-77.75 2616.38,-119.5"/>
<text xml:space="preserve" text-anchor="start" x="2477.88" y="-106" font-family="Helvetica,sans-Serif" font-size="10.00">plugins/CarlaBase/carla</text>
<text xml:space="preserve" text-anchor="start" x="2477.88" y="-94.75" font-family="Helvetica,sans-Serif" font-size="10.00">/source/bridges&#45;ui/CarlaBridge</text>
<text xml:space="preserve" text-anchor="middle" x="2543.12" y="-83.5" font-family="Helvetica,sans-Serif" font-size="10.00">ToolkitNative.cpp</text>
</a>
</g>
</g>
<!-- Node1&#45;&gt;Node19 -->
<g id="edge30_Node000001_Node000019" class="edge">
<title>Node1&#45;&gt;Node19</title>
<g id="a_edge30_Node000001_Node000019"><a xlink:title=" ">
<path fill="none" stroke="#63b8ff" d="M2202.05,-222.87C2216.24,-198.64 2237.98,-164.06 2251.12,-155.5 2324.24,-107.87 2358.46,-136.09 2444.12,-119.5 2452.39,-117.9 2461.03,-116.2 2469.62,-114.5"/>
<polygon fill="#63b8ff" stroke="#63b8ff" points="2199.02,-221.11 2197.05,-231.52 2205.09,-224.61 2199.02,-221.11"/>
</a>
</g>
</g>
<!-- Node20 -->
<g id="Node000020" class="node">
<title>Node20</title>
<g id="a_Node000020"><a xlink:href="CarlaBridgePlugin_8cpp.html" target="_top" xlink:title=" ">
<polygon fill="white" stroke="#666666" points="2378.5,-197.25 2259.75,-197.25 2259.75,-155.5 2378.5,-155.5 2378.5,-197.25"/>
<text xml:space="preserve" text-anchor="start" x="2267.75" y="-183.75" font-family="Helvetica,sans-Serif" font-size="10.00">plugins/CarlaBase/carla</text>
<text xml:space="preserve" text-anchor="start" x="2267.75" y="-172.5" font-family="Helvetica,sans-Serif" font-size="10.00">/source/bridges&#45;plugin</text>
<text xml:space="preserve" text-anchor="middle" x="2319.12" y="-161.25" font-family="Helvetica,sans-Serif" font-size="10.00">/CarlaBridgePlugin.cpp</text>
</a>
</g>
</g>
<!-- Node1&#45;&gt;Node20 -->
<g id="edge28_Node000001_Node000020" class="edge">
<title>Node1&#45;&gt;Node20</title>
<g id="a_edge28_Node000001_Node000020"><a xlink:title=" ">
<path fill="none" stroke="#63b8ff" d="M2225.45,-227.52C2242.93,-218.16 2263.72,-207.03 2281.27,-197.64"/>
<polygon fill="#63b8ff" stroke="#63b8ff" points="2224.09,-224.28 2216.92,-232.09 2227.39,-230.45 2224.09,-224.28"/>
</a>
</g>
</g>
<!-- Node21 -->
<g id="Node000021" class="node">
<title>Node21</title>
<g id="a_Node000021"><a xlink:href="CarlaBridgeSingleLV2_8cpp.html" target="_top" xlink:title=" ">
<polygon fill="white" stroke="#666666" points="2529.25,-197.25 2397,-197.25 2397,-155.5 2529.25,-155.5 2529.25,-197.25"/>
<text xml:space="preserve" text-anchor="start" x="2405" y="-183.75" font-family="Helvetica,sans-Serif" font-size="10.00">plugins/CarlaBase/carla</text>
<text xml:space="preserve" text-anchor="start" x="2405" y="-172.5" font-family="Helvetica,sans-Serif" font-size="10.00">/source/bridges&#45;plugin</text>
<text xml:space="preserve" text-anchor="middle" x="2463.12" y="-161.25" font-family="Helvetica,sans-Serif" font-size="10.00">/CarlaBridgeSingleLV2.cpp</text>
</a>
</g>
</g>
<!-- Node1&#45;&gt;Node21 -->
<g id="edge29_Node000001_Node000021" class="edge">
<title>Node1&#45;&gt;Node21</title>
<g id="a_edge29_Node000001_Node000021"><a xlink:title=" ">
<path fill="none" stroke="#63b8ff" d="M2257.94,-230.02C2296.12,-220.43 2344.25,-208.27 2387.12,-197.25 2390.3,-196.44 2393.54,-195.6 2396.81,-194.75"/>
<polygon fill="#63b8ff" stroke="#63b8ff" points="2257.25,-226.59 2248.4,-232.42 2258.95,-233.38 2257.25,-226.59"/>
</a>
</g>
</g>
<!-- Node22 -->
<g id="Node000022" class="node">
<title>Node22</title>
<g id="a_Node000022"><a xlink:href="carla__host_8cpp.html" target="_top" xlink:title=" ">
<polygon fill="white" stroke="#666666" points="2679.25,-197.25 2547,-197.25 2547,-155.5 2679.25,-155.5 2679.25,-197.25"/>
<text xml:space="preserve" text-anchor="start" x="2555" y="-183.75" font-family="Helvetica,sans-Serif" font-size="10.00">plugins/CarlaBase/carla</text>
<text xml:space="preserve" text-anchor="start" x="2555" y="-172.5" font-family="Helvetica,sans-Serif" font-size="10.00">/source/frontend/C++/carla</text>
<text xml:space="preserve" text-anchor="middle" x="2613.12" y="-161.25" font-family="Helvetica,sans-Serif" font-size="10.00">_host.cpp</text>
</a>
</g>
</g>
<!-- Node1&#45;&gt;Node22 -->
<g id="edge31_Node000001_Node000022" class="edge">
<title>Node1&#45;&gt;Node22</title>
<g id="a_edge31_Node000001_Node000022"><a xlink:title=" ">
<path fill="none" stroke="#63b8ff" d="M2270.06,-238.47C2341.29,-229.98 2447.05,-215.79 2538.12,-197.25 2540.9,-196.69 2543.72,-196.08 2546.56,-195.44"/>
<polygon fill="#63b8ff" stroke="#63b8ff" points="2269.95,-234.96 2260.43,-239.61 2270.77,-241.91 2269.95,-234.96"/>
</a>
</g>
</g>
<!-- Node23 -->
<g id="Node000023" class="node">
<title>Node23</title>
<g id="a_Node000023"><a xlink:href="carla__shared_8cpp.html" target="_top" xlink:title=" ">
<polygon fill="white" stroke="#666666" points="2829.25,-197.25 2697,-197.25 2697,-155.5 2829.25,-155.5 2829.25,-197.25"/>
<text xml:space="preserve" text-anchor="start" x="2705" y="-183.75" font-family="Helvetica,sans-Serif" font-size="10.00">plugins/CarlaBase/carla</text>
<text xml:space="preserve" text-anchor="start" x="2705" y="-172.5" font-family="Helvetica,sans-Serif" font-size="10.00">/source/frontend/C++/carla</text>
<text xml:space="preserve" text-anchor="middle" x="2763.12" y="-161.25" font-family="Helvetica,sans-Serif" font-size="10.00">_shared.cpp</text>
</a>
</g>
</g>
<!-- Node1&#45;&gt;Node23 -->
<g id="edge32_Node000001_Node000023" class="edge">
<title>Node1&#45;&gt;Node23</title>
<g id="a_edge32_Node000001_Node000023"><a xlink:title=" ">
<path fill="none" stroke="#63b8ff" d="M2270.48,-243.24C2370.04,-237.18 2542.39,-223.71 2688.12,-197.25 2690.91,-196.74 2693.74,-196.19 2696.59,-195.59"/>
<polygon fill="#63b8ff" stroke="#63b8ff" points="2270.29,-239.75 2260.51,-243.84 2270.7,-246.74 2270.29,-239.75"/>
</a>
</g>
</g>
<!-- Node24 -->
<g id="Node000024" class="node">
<title>Node24</title>
<g id="a_Node000024"><a xlink:href="carla__widgets_8cpp.html" target="_top" xlink:title=" ">
<polygon fill="white" stroke="#666666" points="2979.25,-197.25 2847,-197.25 2847,-155.5 2979.25,-155.5 2979.25,-197.25"/>
<text xml:space="preserve" text-anchor="start" x="2855" y="-183.75" font-family="Helvetica,sans-Serif" font-size="10.00">plugins/CarlaBase/carla</text>
<text xml:space="preserve" text-anchor="start" x="2855" y="-172.5" font-family="Helvetica,sans-Serif" font-size="10.00">/source/frontend/C++/carla</text>
<text xml:space="preserve" text-anchor="middle" x="2913.12" y="-161.25" font-family="Helvetica,sans-Serif" font-size="10.00">_widgets.cpp</text>
</a>
</g>
</g>
<!-- Node1&#45;&gt;Node24 -->
<g id="edge33_Node000001_Node000024" class="edge">
<title>Node1&#45;&gt;Node24</title>
<g id="a_edge33_Node000001_Node000024"><a xlink:title=" ">
<path fill="none" stroke="#63b8ff" d="M2270.1,-245.93C2393.95,-242.49 2635.77,-231.59 2838.12,-197.25 2840.91,-196.78 2843.75,-196.25 2846.61,-195.67"/>
<polygon fill="#63b8ff" stroke="#63b8ff" points="2270.27,-242.43 2260.37,-246.19 2270.46,-249.42 2270.27,-242.43"/>
</a>
</g>
</g>
<!-- Node25 -->
<g id="Node000025" class="node">
<title>Node25</title>
<g id="a_Node000025"><a xlink:href="aboutjucedialog_8cpp.html" target="_top" xlink:title=" ">
<polygon fill="white" stroke="#666666" points="3117.25,-197.25 2997,-197.25 2997,-155.5 3117.25,-155.5 3117.25,-197.25"/>
<text xml:space="preserve" text-anchor="start" x="3005" y="-183.75" font-family="Helvetica,sans-Serif" font-size="10.00">plugins/CarlaBase/carla</text>
<text xml:space="preserve" text-anchor="start" x="3005" y="-172.5" font-family="Helvetica,sans-Serif" font-size="10.00">/source/frontend/dialogs</text>
<text xml:space="preserve" text-anchor="middle" x="3057.12" y="-161.25" font-family="Helvetica,sans-Serif" font-size="10.00">/aboutjucedialog.cpp</text>
</a>
</g>
</g>
<!-- Node1&#45;&gt;Node25 -->
<g id="edge34_Node000001_Node000025" class="edge">
<title>Node1&#45;&gt;Node25</title>
<g id="a_edge34_Node000001_Node000025"><a xlink:title=" ">
<path fill="none" stroke="#63b8ff" d="M2270.57,-248.2C2416.4,-248.15 2728.96,-242.16 2988.12,-197.25 2990.95,-196.76 2993.82,-196.2 2996.72,-195.58"/>
<polygon fill="#63b8ff" stroke="#63b8ff" points="2270.6,-244.7 2260.6,-248.2 2270.6,-251.7 2270.6,-244.7"/>
</a>
</g>
</g>
<!-- Node26 -->
<g id="Node000026" class="node">
<title>Node26</title>
<g id="a_Node000026"><a xlink:href="pluginlistdialog_8cpp.html" target="_top" xlink:title=" ">
<polygon fill="white" stroke="#666666" points="3263,-197.25 3135.25,-197.25 3135.25,-155.5 3263,-155.5 3263,-197.25"/>
<text xml:space="preserve" text-anchor="start" x="3143.25" y="-183.75" font-family="Helvetica,sans-Serif" font-size="10.00">plugins/CarlaBase/carla</text>
<text xml:space="preserve" text-anchor="start" x="3143.25" y="-172.5" font-family="Helvetica,sans-Serif" font-size="10.00">/source/frontend/pluginlist</text>
<text xml:space="preserve" text-anchor="middle" x="3199.12" y="-161.25" font-family="Helvetica,sans-Serif" font-size="10.00">/pluginlistdialog.cpp</text>
</a>
</g>
</g>
<!-- Node1&#45;&gt;Node26 -->
<g id="edge35_Node000001_Node000026" class="edge">
<title>Node1&#45;&gt;Node26</title>
<g id="a_edge35_Node000001_Node000026"><a xlink:title=" ">
<path fill="none" stroke="#63b8ff" d="M2270.49,-245.33C2467.66,-239.78 2962.54,-223.59 3126.12,-197.25 3128.98,-196.79 3131.88,-196.26 3134.8,-195.68"/>
<polygon fill="#63b8ff" stroke="#63b8ff" points="2270.48,-241.83 2260.58,-245.61 2270.67,-248.83 2270.48,-241.83"/>
</a>
</g>
</g>
<!-- Node27 -->
<g id="Node000027" class="node">
<title>Node27</title>
<g id="a_Node000027"><a xlink:href="CarlaNativePlugin_8h.html" target="_top" xlink:title=" ">
<polygon fill="white" stroke="#666666" points="1387.75,-197.25 1246.5,-197.25 1246.5,-155.5 1387.75,-155.5 1387.75,-197.25"/>
<text xml:space="preserve" text-anchor="start" x="1254.5" y="-183.75" font-family="Helvetica,sans-Serif" font-size="10.00">plugins/CarlaBase/carla</text>
<text xml:space="preserve" text-anchor="start" x="1254.5" y="-172.5" font-family="Helvetica,sans-Serif" font-size="10.00">/source/includes/CarlaNative</text>
<text xml:space="preserve" text-anchor="middle" x="1317.12" y="-161.25" font-family="Helvetica,sans-Serif" font-size="10.00">Plugin.h</text>
</a>
</g>
</g>
<!-- Node1&#45;&gt;Node27 -->
<g id="edge36_Node000001_Node000027" class="edge">
<title>Node1&#45;&gt;Node27</title>
<g id="a_edge36_Node000001_Node000027"><a xlink:title=" ">
<path fill="none" stroke="#63b8ff" d="M2105.85,-240.88C1935.81,-227.19 1548.25,-195.98 1388.24,-183.1"/>
<polygon fill="#63b8ff" stroke="#63b8ff" points="2105.46,-244.36 2115.71,-241.67 2106.02,-237.38 2105.46,-244.36"/>
</a>
</g>
</g>
<!-- Node35 -->
<g id="Node000035" class="node">
<title>Node35</title>
<g id="a_Node000035"><a xlink:href="tests_2ansi-pedantic-test_8cpp.html" target="_top" xlink:title=" ">
<polygon fill="white" stroke="#666666" points="1692,-119.5 1558.25,-119.5 1558.25,-77.75 1692,-77.75 1692,-119.5"/>
<text xml:space="preserve" text-anchor="start" x="1566.25" y="-106" font-family="Helvetica,sans-Serif" font-size="10.00">plugins/CarlaBase/carla</text>
<text xml:space="preserve" text-anchor="start" x="1566.25" y="-94.75" font-family="Helvetica,sans-Serif" font-size="10.00">/source/tests/ansi&#45;pedantic</text>
<text xml:space="preserve" text-anchor="middle" x="1625.12" y="-83.5" font-family="Helvetica,sans-Serif" font-size="10.00">&#45;test.cpp</text>
</a>
</g>
</g>
<!-- Node1&#45;&gt;Node35 -->
<g id="edge50_Node000001_Node000035" class="edge">
<title>Node1&#45;&gt;Node35</title>
<g id="a_edge50_Node000001_Node000035"><a xlink:title=" ">
<path fill="none" stroke="#63b8ff" d="M2105.77,-244.07C1994.59,-238.45 1803.05,-225.02 1739.12,-197.25 1698.73,-179.7 1661.99,-142.78 1641.68,-119.71"/>
<polygon fill="#63b8ff" stroke="#63b8ff" points="2105.59,-247.56 2115.75,-244.56 2105.93,-240.57 2105.59,-247.56"/>
</a>
</g>
</g>
<!-- Node36 -->
<g id="Node000036" class="node">
<title>Node36</title>
<g id="a_Node000036"><a xlink:href="JackBridgeExport_8cpp.html" target="_top" xlink:title=" ">
<polygon fill="white" stroke="#666666" points="3428.75,-197.25 3281.5,-197.25 3281.5,-155.5 3428.75,-155.5 3428.75,-197.25"/>
<text xml:space="preserve" text-anchor="start" x="3289.5" y="-183.75" font-family="Helvetica,sans-Serif" font-size="10.00">plugins/CarlaBase/carla</text>
<text xml:space="preserve" text-anchor="start" x="3289.5" y="-172.5" font-family="Helvetica,sans-Serif" font-size="10.00">/source/jackbridge/JackBridge</text>
<text xml:space="preserve" text-anchor="middle" x="3355.12" y="-161.25" font-family="Helvetica,sans-Serif" font-size="10.00">Export.cpp</text>
</a>
</g>
</g>
<!-- Node1&#45;&gt;Node36 -->
<g id="edge46_Node000001_Node000036" class="edge">
<title>Node1&#45;&gt;Node36</title>
<g id="a_edge46_Node000001_Node000036"><a xlink:title=" ">
<path fill="none" stroke="#63b8ff" d="M2270.31,-245.7C2488.51,-240.6 3078.9,-224.61 3272.12,-197.25 3275.06,-196.83 3278.04,-196.36 3281.05,-195.85"/>
<polygon fill="#63b8ff" stroke="#63b8ff" points="2270.39,-242.2 2260.47,-245.93 2270.55,-249.19 2270.39,-242.2"/>
</a>
</g>
</g>
<!-- Node37 -->
<g id="Node000037" class="node">
<title>Node37</title>
<g id="a_Node000037"><a xlink:href="carla-utils_8cpp.html" target="_top" xlink:title=" ">
<polygon fill="white" stroke="#666666" points="3577.5,-191.62 3446.75,-191.62 3446.75,-161.12 3577.5,-161.12 3577.5,-191.62"/>
<text xml:space="preserve" text-anchor="start" x="3454.75" y="-178.12" font-family="Helvetica,sans-Serif" font-size="10.00">plugins/CarlaBase/carla</text>
<text xml:space="preserve" text-anchor="middle" x="3512.12" y="-166.88" font-family="Helvetica,sans-Serif" font-size="10.00">/source/rest/carla&#45;utils.cpp</text>
</a>
</g>
</g>
<!-- Node1&#45;&gt;Node37 -->
<g id="edge47_Node000001_Node000037" class="edge">
<title>Node1&#45;&gt;Node37</title>
<g id="a_edge47_Node000001_Node000037"><a xlink:title=" ">
<path fill="none" stroke="#63b8ff" d="M2270.53,-246.57C2511.48,-243.49 3211.96,-231.73 3438.12,-197.25 3446.41,-195.99 3455.1,-194.14 3463.49,-192.08"/>
<polygon fill="#63b8ff" stroke="#63b8ff" points="2270.54,-243.07 2260.58,-246.7 2270.63,-250.07 2270.54,-243.07"/>
</a>
</g>
</g>
<!-- Node39 -->
<g id="Node000039" class="node">
<title>Node39</title>
<g id="a_Node000039"><a xlink:href="tests_8old_2CachedPlugins_8cpp.html" target="_top" xlink:title=" ">
<polygon fill="white" stroke="#666666" points="3770.25,-191.62 3596,-191.62 3596,-161.12 3770.25,-161.12 3770.25,-191.62"/>
<text xml:space="preserve" text-anchor="start" x="3604" y="-178.12" font-family="Helvetica,sans-Serif" font-size="10.00">plugins/CarlaBase/carla</text>
<text xml:space="preserve" text-anchor="middle" x="3683.12" y="-166.88" font-family="Helvetica,sans-Serif" font-size="10.00">/source/tests.old/CachedPlugins.cpp</text>
</a>
</g>
</g>
<!-- Node1&#45;&gt;Node39 -->
<g id="edge49_Node000001_Node000039" class="edge">
<title>Node1&#45;&gt;Node39</title>
<g id="a_edge49_Node000001_Node000039"><a xlink:title=" ">
<path fill="none" stroke="#63b8ff" d="M2270.26,-246.34C2529.59,-242.4 3328.91,-228.01 3586.12,-197.25 3596.79,-195.97 3608.03,-194.14 3618.93,-192.09"/>
<polygon fill="#63b8ff" stroke="#63b8ff" points="2270.52,-242.84 2260.57,-246.49 2270.62,-249.84 2270.52,-242.84"/>
</a>
</g>
</g>
<!-- Node3 -->
<g id="Node000003" class="node">
<title>Node3</title>
<g id="a_Node000003"><a xlink:href="Carla_8cpp.html" target="_top" xlink:title=" ">
<polygon fill="white" stroke="#666666" points="138.25,-108.25 0,-108.25 0,-89 138.25,-89 138.25,-108.25"/>
<text xml:space="preserve" text-anchor="middle" x="69.12" y="-94.75" font-family="Helvetica,sans-Serif" font-size="10.00">plugins/CarlaBase/Carla.cpp</text>
</a>
</g>
</g>
<!-- Node2&#45;&gt;Node3 -->
<g id="edge2_Node000002_Node000003" class="edge">
<title>Node2&#45;&gt;Node3</title>
<g id="a_edge2_Node000002_Node000003"><a xlink:title=" ">
<path fill="none" stroke="#63b8ff" d="M254.09,-162.74C209.36,-147.48 135.24,-122.18 95.77,-108.72"/>
<polygon fill="#63b8ff" stroke="#63b8ff" points="252.76,-165.98 263.35,-165.9 255.02,-159.36 252.76,-165.98"/>
</a>
</g>
</g>
<!-- Node4 -->
<g id="Node000004" class="node">
<title>Node4</title>
<g id="a_Node000004"><a xlink:href="CarlaPatchbay_8cpp.html" target="_top" xlink:title=" ">
<polygon fill="white" stroke="#666666" points="269.5,-113.88 156.75,-113.88 156.75,-83.38 269.5,-83.38 269.5,-113.88"/>
<text xml:space="preserve" text-anchor="start" x="164.75" y="-100.38" font-family="Helvetica,sans-Serif" font-size="10.00">plugins/CarlaPatchbay</text>
<text xml:space="preserve" text-anchor="middle" x="213.12" y="-89.12" font-family="Helvetica,sans-Serif" font-size="10.00">/CarlaPatchbay.cpp</text>
</a>
</g>
</g>
<!-- Node2&#45;&gt;Node4 -->
<g id="edge3_Node000002_Node000004" class="edge">
<title>Node2&#45;&gt;Node4</title>
<g id="a_edge3_Node000002_Node000004"><a xlink:title=" ">
<path fill="none" stroke="#63b8ff" d="M273.76,-158.51C260.11,-145.26 241.29,-126.98 228.25,-114.31"/>
<polygon fill="#63b8ff" stroke="#63b8ff" points="271.17,-160.88 280.79,-165.33 276.05,-155.86 271.17,-160.88"/>
</a>
</g>
</g>
<!-- Node5 -->
<g id="Node000005" class="node">
<title>Node5</title>
<g id="a_Node000005"><a xlink:href="CarlaRack_8cpp.html" target="_top" xlink:title=" ">
<polygon fill="white" stroke="#666666" points="448.5,-108.25 287.75,-108.25 287.75,-89 448.5,-89 448.5,-108.25"/>
<text xml:space="preserve" text-anchor="middle" x="368.12" y="-94.75" font-family="Helvetica,sans-Serif" font-size="10.00">plugins/CarlaRack/CarlaRack.cpp</text>
</a>
</g>
</g>
<!-- Node2&#45;&gt;Node5 -->
<g id="edge4_Node000002_Node000005" class="edge">
<title>Node2&#45;&gt;Node5</title>
<g id="a_edge4_Node000002_Node000005"><a xlink:title=" ">
<path fill="none" stroke="#63b8ff" d="M308.14,-158.63C323.83,-143.2 346.5,-120.89 359,-108.6"/>
<polygon fill="#63b8ff" stroke="#63b8ff" points="306.01,-155.82 301.34,-165.33 310.92,-160.81 306.01,-155.82"/>
</a>
</g>
</g>
<!-- Node7 -->
<g id="Node000007" class="node">
<title>Node7</title>
<g id="a_Node000007"><a xlink:href="CarlaStandalone_8cpp.html" target="_top" xlink:title=" ">
<polygon fill="white" stroke="#666666" points="989.25,-113.88 809,-113.88 809,-83.38 989.25,-83.38 989.25,-113.88"/>
<text xml:space="preserve" text-anchor="start" x="817" y="-100.38" font-family="Helvetica,sans-Serif" font-size="10.00">plugins/CarlaBase/carla</text>
<text xml:space="preserve" text-anchor="middle" x="899.12" y="-89.12" font-family="Helvetica,sans-Serif" font-size="10.00">/source/backend/CarlaStandalone.cpp</text>
</a>
</g>
</g>
<!-- Node6&#45;&gt;Node7 -->
<g id="edge6_Node000006_Node000007" class="edge">
<title>Node6&#45;&gt;Node7</title>
<g id="a_edge6_Node000006_Node000007"><a xlink:title=" ">
<path fill="none" stroke="#63b8ff" d="M915.11,-150.09C911.33,-138.15 906.96,-124.34 903.74,-114.19"/>
<polygon fill="#63b8ff" stroke="#63b8ff" points="911.68,-150.85 918.04,-159.33 918.36,-148.74 911.68,-150.85"/>
</a>
</g>
</g>
<!-- Node9 -->
<g id="Node000009" class="node">
<title>Node9</title>
<g id="a_Node000009"><a xlink:href="CarlaStandaloneNSM_8cpp.html" target="_top" xlink:title=" ">
<polygon fill="white" stroke="#666666" points="629.25,-119.5 467,-119.5 467,-77.75 629.25,-77.75 629.25,-119.5"/>
<text xml:space="preserve" text-anchor="start" x="475" y="-106" font-family="Helvetica,sans-Serif" font-size="10.00">plugins/CarlaBase/carla</text>
<text xml:space="preserve" text-anchor="start" x="475" y="-94.75" font-family="Helvetica,sans-Serif" font-size="10.00">/source/backend/CarlaStandalone</text>
<text xml:space="preserve" text-anchor="middle" x="548.12" y="-83.5" font-family="Helvetica,sans-Serif" font-size="10.00">NSM.cpp</text>
</a>
</g>
</g>
<!-- Node6&#45;&gt;Node9 -->
<g id="edge8_Node000006_Node000009" class="edge">
<title>Node6&#45;&gt;Node9</title>
<g id="a_edge8_Node000006_Node000009"><a xlink:title=" ">
<path fill="none" stroke="#63b8ff" d="M834.92,-158.51C778.8,-147.66 704.63,-133.09 639.12,-119.5 635.96,-118.84 632.73,-118.17 629.47,-117.48"/>
<polygon fill="#63b8ff" stroke="#63b8ff" points="833.93,-161.88 844.41,-160.34 835.25,-155.01 833.93,-161.88"/>
</a>
</g>
</g>
<!-- Node10 -->
<g id="Node000010" class="node">
<title>Node10</title>
<g id="a_Node000010"><a xlink:href="carla-native-plugin_8cpp.html" target="_top" xlink:title=" ">
<polygon fill="white" stroke="#666666" points="1175.12,-119.5 1045.12,-119.5 1045.12,-77.75 1175.12,-77.75 1175.12,-119.5"/>
<text xml:space="preserve" text-anchor="start" x="1053.12" y="-106" font-family="Helvetica,sans-Serif" font-size="10.00">plugins/CarlaBase/carla</text>
<text xml:space="preserve" text-anchor="start" x="1053.12" y="-94.75" font-family="Helvetica,sans-Serif" font-size="10.00">/source/plugin/carla&#45;native</text>
<text xml:space="preserve" text-anchor="middle" x="1110.12" y="-83.5" font-family="Helvetica,sans-Serif" font-size="10.00">&#45;plugin.cpp</text>
</a>
</g>
</g>
<!-- Node6&#45;&gt;Node10 -->
<g id="edge9_Node000006_Node000010" class="edge">
<title>Node6&#45;&gt;Node10</title>
<g id="a_edge9_Node000006_Node000010"><a xlink:title=" ">
<path fill="none" stroke="#63b8ff" d="M969.71,-156.51C997.19,-145.37 1031.97,-131.28 1060.04,-119.91"/>
<polygon fill="#63b8ff" stroke="#63b8ff" points="968.54,-153.2 960.58,-160.2 971.17,-159.69 968.54,-153.2"/>
</a>
</g>
</g>
<!-- Node8 -->
<g id="Node000008" class="node">
<title>Node8</title>
<g id="a_Node000008"><a xlink:href="carla-host-plugin_8cpp.html" target="_top" xlink:title=" ">
<polygon fill="white" stroke="#666666" points="1893.38,-41.75 1770.88,-41.75 1770.88,0 1893.38,0 1893.38,-41.75"/>
<text xml:space="preserve" text-anchor="start" x="1778.88" y="-28.25" font-family="Helvetica,sans-Serif" font-size="10.00">plugins/CarlaBase/carla</text>
<text xml:space="preserve" text-anchor="start" x="1778.88" y="-17" font-family="Helvetica,sans-Serif" font-size="10.00">/source/plugin/carla&#45;host</text>
<text xml:space="preserve" text-anchor="middle" x="1832.12" y="-5.75" font-family="Helvetica,sans-Serif" font-size="10.00">&#45;plugin.cpp</text>
</a>
</g>
</g>
<!-- Node7&#45;&gt;Node8 -->
<g id="edge7_Node000007_Node000008" class="edge">
<title>Node7&#45;&gt;Node8</title>
<g id="a_edge7_Node000007_Node000008"><a xlink:title=" ">
<path fill="none" stroke="#63b8ff" d="M981.19,-80.98C988.59,-79.77 995.98,-78.67 1003.12,-77.75 1288.55,-41 1632.57,-27.59 1770.52,-23.47"/>
<polygon fill="#63b8ff" stroke="#63b8ff" points="980.75,-77.51 971.48,-82.64 981.93,-84.41 980.75,-77.51"/>
</a>
</g>
</g>
<!-- Node10&#45;&gt;Node8 -->
<g id="edge10_Node000010_Node000008" class="edge">
<title>Node10&#45;&gt;Node8</title>
<g id="a_edge10_Node000010_Node000008"><a xlink:title=" ">
<path fill="none" stroke="#63b8ff" d="M1186.6,-78.18C1187.45,-78.04 1188.29,-77.89 1189.12,-77.75 1400.74,-42.17 1655.56,-28.56 1770.54,-23.95"/>
<polygon fill="#63b8ff" stroke="#63b8ff" points="1186.12,-74.71 1176.97,-80.04 1187.45,-81.59 1186.12,-74.71"/>
</a>
</g>
</g>
<!-- Node11&#45;&gt;Node8 -->
<g id="edge13_Node000011_Node000008" class="edge">
<title>Node11&#45;&gt;Node8</title>
<g id="a_edge13_Node000011_Node000008"><a xlink:title=" ">
<path fill="none" stroke="#63b8ff" d="M1762.44,-148.25C1753.03,-140.25 1744.37,-130.61 1739.12,-119.5 1731.2,-102.72 1729.99,-93.9 1739.12,-77.75 1747.84,-62.34 1762.7,-50.71 1778.01,-42.17"/>
<polygon fill="#63b8ff" stroke="#63b8ff" points="1759.99,-150.78 1770.02,-154.19 1764.31,-145.27 1759.99,-150.78"/>
</a>
</g>
</g>
<!-- Node12 -->
<g id="Node000012" class="node">
<title>Node12</title>
<g id="a_Node000012"><a xlink:href="carla-discovery_8cpp.html" target="_top" xlink:title=" ">
<polygon fill="white" stroke="#666666" points="1866.5,-119.5 1747.75,-119.5 1747.75,-77.75 1866.5,-77.75 1866.5,-119.5"/>
<text xml:space="preserve" text-anchor="start" x="1755.75" y="-106" font-family="Helvetica,sans-Serif" font-size="10.00">plugins/CarlaBase/carla</text>
<text xml:space="preserve" text-anchor="start" x="1755.75" y="-94.75" font-family="Helvetica,sans-Serif" font-size="10.00">/source/discovery/carla</text>
<text xml:space="preserve" text-anchor="middle" x="1807.12" y="-83.5" font-family="Helvetica,sans-Serif" font-size="10.00">&#45;discovery.cpp</text>
</a>
</g>
</g>
<!-- Node11&#45;&gt;Node12 -->
<g id="edge12_Node000011_Node000012" class="edge">
<title>Node11&#45;&gt;Node12</title>
<g id="a_edge12_Node000011_Node000012"><a xlink:title=" ">
<path fill="none" stroke="#63b8ff" d="M1807.12,-143.75C1807.12,-135.71 1807.12,-127.29 1807.12,-119.98"/>
<polygon fill="#63b8ff" stroke="#63b8ff" points="1803.63,-143.56 1807.13,-153.56 1810.63,-143.56 1803.63,-143.56"/>
</a>
</g>
</g>
<!-- Node13&#45;&gt;Node8 -->
<g id="edge15_Node000013_Node000008" class="edge">
<title>Node13&#45;&gt;Node8</title>
<g id="a_edge15_Node000013_Node000008"><a xlink:title=" ">
<path fill="none" stroke="#63b8ff" d="M1061.3,-148.71C1051.17,-140.73 1041.84,-130.98 1036.12,-119.5 1027.85,-102.89 1023.47,-91.32 1036.12,-77.75 1085.87,-24.39 1592.59,-21.01 1770.66,-21.49"/>
<polygon fill="#63b8ff" stroke="#63b8ff" points="1058.97,-151.34 1069.12,-154.37 1063.08,-145.67 1058.97,-151.34"/>
</a>
</g>
</g>
<!-- Node13&#45;&gt;Node10 -->
<g id="edge16_Node000013_Node000010" class="edge">
<title>Node13&#45;&gt;Node10</title>
<g id="a_edge16_Node000013_Node000010"><a xlink:title=" ">
<path fill="none" stroke="#63b8ff" d="M1110.12,-143.75C1110.12,-135.71 1110.12,-127.29 1110.12,-119.98"/>
<polygon fill="#63b8ff" stroke="#63b8ff" points="1106.63,-143.56 1110.13,-153.56 1113.63,-143.56 1106.63,-143.56"/>
</a>
</g>
</g>
<!-- Node14&#45;&gt;Node8 -->
<g id="edge18_Node000014_Node000008" class="edge">
<title>Node14&#45;&gt;Node8</title>
<g id="a_edge18_Node000014_Node000008"><a xlink:title=" ">
<path fill="none" stroke="#63b8ff" d="M1904.73,-70.98C1890.77,-61.54 1875.29,-51.07 1862.22,-42.23"/>
<polygon fill="#63b8ff" stroke="#63b8ff" points="1902.61,-73.77 1912.86,-76.48 1906.53,-67.98 1902.61,-73.77"/>
</a>
</g>
</g>
<!-- Node15&#45;&gt;Node8 -->
<g id="edge20_Node000015_Node000008" class="edge">
<title>Node15&#45;&gt;Node8</title>
<g id="a_edge20_Node000015_Node000008"><a xlink:title=" ">
<path fill="none" stroke="#63b8ff" d="M2010.79,-76.23C1973.83,-64.98 1928.97,-51.34 1893.44,-40.53"/>
<polygon fill="#63b8ff" stroke="#63b8ff" points="2009.45,-79.48 2020.04,-79.04 2011.49,-72.78 2009.45,-79.48"/>
</a>
</g>
</g>
<!-- Node16&#45;&gt;Node8 -->
<g id="edge22_Node000016_Node000008" class="edge">
<title>Node16&#45;&gt;Node8</title>
<g id="a_edge22_Node000016_Node000008"><a xlink:title=" ">
<path fill="none" stroke="#63b8ff" d="M2147.24,-77.44C2053.25,-56.09 1955.29,-40.07 1893.58,-30.73"/>
<polygon fill="#63b8ff" stroke="#63b8ff" points="2146.38,-80.83 2156.91,-79.66 2147.95,-74.01 2146.38,-80.83"/>
</a>
</g>
</g>
<!-- Node17&#45;&gt;Node8 -->
<g id="edge24_Node000017_Node000008" class="edge">
<title>Node17&#45;&gt;Node8</title>
<g id="a_edge24_Node000017_Node000008"><a xlink:title=" ">
<path fill="none" stroke="#63b8ff" d="M2284.55,-77.6C2139.18,-48.61 1979.17,-33.24 1893.57,-26.34"/>
<polygon fill="#63b8ff" stroke="#63b8ff" points="2283.45,-80.95 2293.95,-79.5 2284.84,-74.09 2283.45,-80.95"/>
</a>
</g>
</g>
<!-- Node18&#45;&gt;Node8 -->
<g id="edge27_Node000018_Node000008" class="edge">
<title>Node18&#45;&gt;Node8</title>
<g id="a_edge27_Node000018_Node000008"><a xlink:title=" ">
<path fill="none" stroke="#63b8ff" d="M2215.66,-156.06C2216.49,-155.87 2217.31,-155.68 2218.12,-155.5 2313.22,-134.25 2488.71,-149.82 2423.12,-77.75 2387.97,-39.11 2037.79,-26.63 1893.64,-23.11"/>
<polygon fill="#63b8ff" stroke="#63b8ff" points="2215.16,-152.58 2206.24,-158.3 2216.78,-159.39 2215.16,-152.58"/>
</a>
</g>
</g>
<!-- Node18&#45;&gt;Node19 -->
<g id="edge26_Node000018_Node000019" class="edge">
<title>Node18&#45;&gt;Node19</title>
<g id="a_edge26_Node000018_Node000019"><a xlink:title=" ">
<path fill="none" stroke="#63b8ff" d="M2215.65,-156.03C2216.48,-155.85 2217.31,-155.67 2218.12,-155.5 2322.8,-133.41 2351.02,-139.43 2456.12,-119.5 2460.54,-118.66 2465.07,-117.76 2469.63,-116.82"/>
<polygon fill="#63b8ff" stroke="#63b8ff" points="2215.18,-152.55 2206.22,-158.2 2216.75,-159.37 2215.18,-152.55"/>
</a>
</g>
</g>
<!-- Node27&#45;&gt;Node8 -->
<g id="edge43_Node000027_Node000008" class="edge">
<title>Node27&#45;&gt;Node8</title>
<g id="a_edge43_Node000027_Node000008"><a xlink:title=" ">
<path fill="none" stroke="#63b8ff" d="M1251.71,-149.25C1239.88,-141.48 1229.1,-131.69 1222.12,-119.5 1212.91,-103.39 1209.62,-91.46 1222.12,-77.75 1258.62,-37.76 1622.99,-26.04 1770.56,-22.91"/>
<polygon fill="#63b8ff" stroke="#63b8ff" points="1249.7,-152.12 1260.08,-154.27 1253.31,-146.12 1249.7,-152.12"/>
</a>
</g>
</g>
<!-- Node27&#45;&gt;Node10 -->
<g id="edge44_Node000027_Node000010" class="edge">
<title>Node27&#45;&gt;Node10</title>
<g id="a_edge44_Node000027_Node000010"><a xlink:title=" ">
<path fill="none" stroke="#63b8ff" d="M1250.95,-151.16C1223.5,-141.11 1191.99,-129.58 1165.75,-119.98"/>
<polygon fill="#63b8ff" stroke="#63b8ff" points="1249.64,-154.41 1260.23,-154.56 1252.04,-147.83 1249.64,-154.41"/>
</a>
</g>
</g>
<!-- Node28 -->
<g id="Node000028" class="node">
<title>Node28</title>
<g id="a_Node000028"><a xlink:href="DummyCarla_8cpp.html" target="_top" xlink:title=" ">
<polygon fill="white" stroke="#666666" points="1402.75,-108.25 1231.5,-108.25 1231.5,-89 1402.75,-89 1402.75,-108.25"/>
<text xml:space="preserve" text-anchor="middle" x="1317.12" y="-94.75" font-family="Helvetica,sans-Serif" font-size="10.00">plugins/CarlaBase/DummyCarla.cpp</text>
</a>
</g>
</g>
<!-- Node27&#45;&gt;Node28 -->
<g id="edge37_Node000027_Node000028" class="edge">
<title>Node27&#45;&gt;Node28</title>
<g id="a_edge37_Node000027_Node000028"><a xlink:title=" ">
<path fill="none" stroke="#63b8ff" d="M1317.12,-143.86C1317.12,-131.16 1317.12,-117.48 1317.12,-108.75"/>
<polygon fill="#63b8ff" stroke="#63b8ff" points="1313.63,-143.56 1317.13,-153.56 1320.63,-143.56 1313.63,-143.56"/>
</a>
</g>
</g>
<!-- Node29 -->
<g id="Node000029" class="node">
<title>Node29</title>
<g id="a_Node000029"><a xlink:href="CarlaEngineNative_8cpp.html" target="_top" xlink:title=" ">
<polygon fill="white" stroke="#666666" points="1539.88,-119.5 1420.38,-119.5 1420.38,-77.75 1539.88,-77.75 1539.88,-119.5"/>
<text xml:space="preserve" text-anchor="start" x="1428.38" y="-106" font-family="Helvetica,sans-Serif" font-size="10.00">plugins/CarlaBase/carla</text>
<text xml:space="preserve" text-anchor="start" x="1428.38" y="-94.75" font-family="Helvetica,sans-Serif" font-size="10.00">/source/backend/engine</text>
<text xml:space="preserve" text-anchor="middle" x="1480.12" y="-83.5" font-family="Helvetica,sans-Serif" font-size="10.00">/CarlaEngineNative.cpp</text>
</a>
</g>
</g>
<!-- Node27&#45;&gt;Node29 -->
<g id="edge38_Node000027_Node000029" class="edge">
<title>Node27&#45;&gt;Node29</title>
<g id="a_edge38_Node000027_Node000029"><a xlink:title=" ">
<path fill="none" stroke="#63b8ff" d="M1370.96,-150.36C1392.17,-140.5 1416.21,-129.33 1436.32,-119.98"/>
<polygon fill="#63b8ff" stroke="#63b8ff" points="1369.77,-147.05 1362.18,-154.44 1372.72,-153.4 1369.77,-147.05"/>
</a>
</g>
</g>
<!-- Node30 -->
<g id="Node000030" class="node">
<title>Node30</title>
<g id="a_Node000030"><a xlink:href="carla-base_8cpp.html" target="_top" xlink:title=" ">
<polygon fill="white" stroke="#666666" points="790.5,-113.88 647.75,-113.88 647.75,-83.38 790.5,-83.38 790.5,-113.88"/>
<text xml:space="preserve" text-anchor="start" x="655.75" y="-100.38" font-family="Helvetica,sans-Serif" font-size="10.00">plugins/CarlaBase/carla</text>
<text xml:space="preserve" text-anchor="middle" x="719.12" y="-89.12" font-family="Helvetica,sans-Serif" font-size="10.00">/source/plugin/carla&#45;base.cpp</text>
</a>
</g>
</g>
<!-- Node27&#45;&gt;Node30 -->
<g id="edge39_Node000027_Node000030" class="edge">
<title>Node27&#45;&gt;Node30</title>
<g id="a_edge39_Node000027_Node000030"><a xlink:title=" ">
<path fill="none" stroke="#63b8ff" d="M1234.99,-162.98C1216.31,-160.34 1196.55,-157.69 1178.12,-155.5 1010.55,-135.55 966.52,-147.68 800.12,-119.5 791.7,-118.07 782.86,-116.25 774.24,-114.29"/>
<polygon fill="#63b8ff" stroke="#63b8ff" points="1234.25,-166.41 1244.64,-164.35 1235.24,-159.48 1234.25,-166.41"/>
</a>
</g>
</g>
<!-- Node27&#45;&gt;Node35 -->
<g id="edge45_Node000027_Node000035" class="edge">
<title>Node27&#45;&gt;Node35</title>
<g id="a_edge45_Node000027_Node000035"><a xlink:title=" ">
<path fill="none" stroke="#63b8ff" d="M1399.08,-156.05C1443.53,-145.46 1499.4,-131.99 1549.12,-119.5 1552.04,-118.77 1555.01,-118.02 1558.01,-117.25"/>
<polygon fill="#63b8ff" stroke="#63b8ff" points="1398.42,-152.61 1389.5,-158.32 1400.04,-159.42 1398.42,-152.61"/>
</a>
</g>
</g>
<!-- Node31 -->
<g id="Node000031" class="node">
<title>Node31</title>
<g id="a_Node000031"><a xlink:href="carla-lv2-export_8cpp.html" target="_top" xlink:title=" ">
<polygon fill="white" stroke="#666666" points="778.5,-41.75 659.75,-41.75 659.75,0 778.5,0 778.5,-41.75"/>
<text xml:space="preserve" text-anchor="start" x="667.75" y="-28.25" font-family="Helvetica,sans-Serif" font-size="10.00">plugins/CarlaBase/carla</text>
<text xml:space="preserve" text-anchor="start" x="667.75" y="-17" font-family="Helvetica,sans-Serif" font-size="10.00">/source/plugin/carla&#45;lv2</text>
<text xml:space="preserve" text-anchor="middle" x="719.12" y="-5.75" font-family="Helvetica,sans-Serif" font-size="10.00">&#45;export.cpp</text>
</a>
</g>
</g>
<!-- Node30&#45;&gt;Node31 -->
<g id="edge40_Node000030_Node000031" class="edge">
<title>Node30&#45;&gt;Node31</title>
<g id="a_edge40_Node000030_Node000031"><a xlink:title=" ">
<path fill="none" stroke="#63b8ff" d="M719.12,-71.64C719.12,-62 719.12,-51.22 719.12,-42.16"/>
<polygon fill="#63b8ff" stroke="#63b8ff" points="715.63,-71.51 719.13,-81.51 722.63,-71.51 715.63,-71.51"/>
</a>
</g>
</g>
<!-- Node32 -->
<g id="Node000032" class="node">
<title>Node32</title>
<g id="a_Node000032"><a xlink:href="carla-lv2_8cpp.html" target="_top" xlink:title=" ">
<polygon fill="#fff0f0" stroke="red" points="931.38,-36.12 796.88,-36.12 796.88,-5.62 931.38,-5.62 931.38,-36.12"/>
<text xml:space="preserve" text-anchor="start" x="804.88" y="-22.62" font-family="Helvetica,sans-Serif" font-size="10.00">plugins/CarlaBase/carla</text>
<text xml:space="preserve" text-anchor="middle" x="864.12" y="-11.38" font-family="Helvetica,sans-Serif" font-size="10.00">/source/plugin/carla&#45;lv2.cpp</text>
</a>
</g>
</g>
<!-- Node30&#45;&gt;Node32 -->
<g id="edge41_Node000030_Node000032" class="edge">
<title>Node30&#45;&gt;Node32</title>
<g id="a_edge41_Node000030_Node000032"><a xlink:title=" ">
<path fill="none" stroke="#63b8ff" d="M757.23,-77.72C782.03,-64.76 813.81,-48.16 836.25,-36.44"/>
<polygon fill="#63b8ff" stroke="#63b8ff" points="755.67,-74.59 748.42,-82.32 758.91,-80.79 755.67,-74.59"/>
</a>
</g>
</g>
<!-- Node34 -->
<g id="Node000034" class="node">
<title>Node34</title>
<g id="a_Node000034"><a xlink:href="carla-vst_8cpp.html" target="_top" xlink:title=" ">
<polygon fill="white" stroke="#666666" points="641.75,-36.12 506.5,-36.12 506.5,-5.62 641.75,-5.62 641.75,-36.12"/>
<text xml:space="preserve" text-anchor="start" x="514.5" y="-22.62" font-family="Helvetica,sans-Serif" font-size="10.00">plugins/CarlaBase/carla</text>
<text xml:space="preserve" text-anchor="middle" x="574.12" y="-11.38" font-family="Helvetica,sans-Serif" font-size="10.00">/source/plugin/carla&#45;vst.cpp</text>
</a>
</g>
</g>
<!-- Node30&#45;&gt;Node34 -->
<g id="edge42_Node000030_Node000034" class="edge">
<title>Node30&#45;&gt;Node34</title>
<g id="a_edge42_Node000030_Node000034"><a xlink:title=" ">
<path fill="none" stroke="#63b8ff" d="M681.02,-77.72C656.22,-64.76 624.44,-48.16 602,-36.44"/>
<polygon fill="#63b8ff" stroke="#63b8ff" points="679.34,-80.79 689.83,-82.32 682.58,-74.59 679.34,-80.79"/>
</a>
</g>
</g>
<!-- Node38 -->
<g id="Node000038" class="node">
<title>Node38</title>
<g id="a_Node000038"><a xlink:href="rest-server_8cpp.html" target="_top" xlink:title=" ">
<polygon fill="white" stroke="#666666" points="3579.75,-113.88 3444.5,-113.88 3444.5,-83.38 3579.75,-83.38 3579.75,-113.88"/>
<text xml:space="preserve" text-anchor="start" x="3452.5" y="-100.38" font-family="Helvetica,sans-Serif" font-size="10.00">plugins/CarlaBase/carla</text>
<text xml:space="preserve" text-anchor="middle" x="3512.12" y="-89.12" font-family="Helvetica,sans-Serif" font-size="10.00">/source/rest/rest&#45;server.cpp</text>
</a>
</g>
</g>
<!-- Node37&#45;&gt;Node38 -->
<g id="edge48_Node000037_Node000038" class="edge">
<title>Node37&#45;&gt;Node38</title>
<g id="a_edge48_Node000037_Node000038"><a xlink:title=" ">
<path fill="none" stroke="#63b8ff" d="M3512.12,-149.35C3512.12,-137.59 3512.12,-124.13 3512.12,-114.19"/>
<polygon fill="#63b8ff" stroke="#63b8ff" points="3508.63,-149.26 3512.13,-159.26 3515.63,-149.26 3508.63,-149.26"/>
</a>
</g>
</g>
</g>
</svg>
