<?xml version="1.0" encoding="UTF-8" standalone="no"?>
<!DOCTYPE svg PUBLIC "-//W3C//DTD SVG 1.1//EN"
 "http://www.w3.org/Graphics/SVG/1.1/DTD/svg11.dtd">
<!-- Generated by graphviz version 14.0.2 (0)
 -->
<!-- Title: Steinberg::Vst::IPlugInterfaceSupport Pages: 1 -->
<svg width="166pt" height="328pt"
 viewBox="0.00 0.00 166.00 328.00" xmlns="http://www.w3.org/2000/svg" xmlns:xlink="http://www.w3.org/1999/xlink">
<g id="graph0" class="graph" transform="scale(1 1) rotate(0) translate(4 324)">
<title>Steinberg::Vst::IPlugInterfaceSupport</title>
<!-- Node1 -->
<g id="Node000001" class="node">
<title>Node1</title>
<g id="a_Node000001"><a xlink:title=" ">
<polygon fill="#999999" stroke="none" points="146.12,-203.75 12.12,-203.75 12.12,-142.75 146.12,-142.75 146.12,-203.75"/>
<text xml:space="preserve" text-anchor="start" x="16.12" y="-190.25" font-family="Helvetica,sans-Serif" font-size="10.00">Steinberg::Vst::IPlugInterface</text>
<text xml:space="preserve" text-anchor="start" x="62.25" y="-179" font-family="Helvetica,sans-Serif" font-size="10.00">Support</text>
<text xml:space="preserve" text-anchor="start" x="16.25" y="-163.75" font-family="Helvetica,sans-Serif" font-size="10.00">+</text>
<text xml:space="preserve" text-anchor="start" x="26.38" y="-163.75" font-family="Helvetica,sans-Serif" font-size="10.00">iid</text>
<text xml:space="preserve" text-anchor="start" x="16.25" y="-148.5" font-family="Helvetica,sans-Serif" font-size="10.00">+</text>
<text xml:space="preserve" text-anchor="start" x="26.38" y="-148.5" font-family="Helvetica,sans-Serif" font-size="10.00">isPlugInterfaceSupported()</text>
<polygon fill="#666666" stroke="#666666" points="12.12,-175.25 12.12,-175.25 146.12,-175.25 146.12,-175.25 12.12,-175.25"/>
<polygon fill="#666666" stroke="#666666" points="12.12,-160 12.12,-160 24.38,-160 24.38,-160 12.12,-160"/>
<polygon fill="#666666" stroke="#666666" points="24.38,-160 24.38,-160 146.12,-160 146.12,-160 24.38,-160"/>
<polygon fill="none" stroke="#666666" points="12.12,-142.75 12.12,-203.75 146.12,-203.75 146.12,-142.75 12.12,-142.75"/>
</a>
</g>
</g>
<!-- Node3 -->
<g id="Node000003" class="node">
<title>Node3</title>
<g id="a_Node000003"><a xlink:href="classSteinberg_1_1Vst_1_1PlugInterfaceSupport.html" target="_top" xlink:title=" ">
<polygon fill="white" stroke="none" points="158.25,-106.75 0,-106.75 0,0 158.25,0 158.25,-106.75"/>
<text xml:space="preserve" text-anchor="start" x="17.62" y="-93.25" font-family="Helvetica,sans-Serif" font-size="10.00">Steinberg::Vst::PlugInterface</text>
<text xml:space="preserve" text-anchor="start" x="62.25" y="-82" font-family="Helvetica,sans-Serif" font-size="10.00">Support</text>
<text xml:space="preserve" text-anchor="start" x="5.5" y="-66.75" font-family="Helvetica,sans-Serif" font-size="10.00">&#45;</text>
<text xml:space="preserve" text-anchor="start" x="14" y="-66.75" font-family="Helvetica,sans-Serif" font-size="10.00">mFUIDArray</text>
<text xml:space="preserve" text-anchor="start" x="4" y="-51.5" font-family="Helvetica,sans-Serif" font-size="10.00">+</text>
<text xml:space="preserve" text-anchor="start" x="14" y="-51.5" font-family="Helvetica,sans-Serif" font-size="10.00">PlugInterfaceSupport()</text>
<text xml:space="preserve" text-anchor="start" x="4" y="-36.25" font-family="Helvetica,sans-Serif" font-size="10.00">+</text>
<text xml:space="preserve" text-anchor="start" x="14" y="-36.25" font-family="Helvetica,sans-Serif" font-size="10.00">isPlugInterfaceSupported()</text>
<text xml:space="preserve" text-anchor="start" x="4" y="-21" font-family="Helvetica,sans-Serif" font-size="10.00">+</text>
<text xml:space="preserve" text-anchor="start" x="14" y="-21" font-family="Helvetica,sans-Serif" font-size="10.00">addPlugInterfaceSupported()</text>
<text xml:space="preserve" text-anchor="start" x="4" y="-5.75" font-family="Helvetica,sans-Serif" font-size="10.00">+</text>
<text xml:space="preserve" text-anchor="start" x="14" y="-5.75" font-family="Helvetica,sans-Serif" font-size="10.00">removePlugInterfaceSupported()</text>
<polygon fill="#666666" stroke="#666666" points="0,-78.25 0,-78.25 158.25,-78.25 158.25,-78.25 0,-78.25"/>
<polygon fill="#666666" stroke="#666666" points="0,-63 0,-63 12,-63 12,-63 0,-63"/>
<polygon fill="#666666" stroke="#666666" points="12,-63 12,-63 158.25,-63 158.25,-63 12,-63"/>
<polygon fill="none" stroke="#666666" points="0,0 0,-106.75 158.25,-106.75 158.25,0 0,0"/>
</a>
</g>
</g>
<!-- Node1&#45;&gt;Node3 -->
<g id="edge2_Node000001_Node000003" class="edge">
<title>Node1&#45;&gt;Node3</title>
<g id="a_edge2_Node000001_Node000003"><a xlink:title=" ">
<path fill="none" stroke="#63b8ff" d="M79.12,-131.41C79.12,-123.34 79.12,-114.76 79.12,-106.36"/>
<polygon fill="none" stroke="#63b8ff" points="75.63,-131.3 79.13,-141.3 82.63,-131.3 75.63,-131.3"/>
</a>
</g>
</g>
<!-- Node2 -->
<g id="Node000002" class="node">
<title>Node2</title>
<g id="a_Node000002"><a xlink:href="classSteinberg_1_1FUnknown.html" target="_top" xlink:title=" ">
<polygon fill="white" stroke="none" points="129.62,-320 28.62,-320 28.62,-239.75 129.62,-239.75 129.62,-320"/>
<text xml:space="preserve" text-anchor="start" x="32.62" y="-306.5" font-family="Helvetica,sans-Serif" font-size="10.00">Steinberg::FUnknown</text>
<text xml:space="preserve" text-anchor="start" x="36.5" y="-291.25" font-family="Helvetica,sans-Serif" font-size="10.00">+</text>
<text xml:space="preserve" text-anchor="start" x="50.38" y="-291.25" font-family="Helvetica,sans-Serif" font-size="10.00">iid</text>
<text xml:space="preserve" text-anchor="start" x="36.5" y="-276" font-family="Helvetica,sans-Serif" font-size="10.00">+</text>
<text xml:space="preserve" text-anchor="start" x="50.38" y="-276" font-family="Helvetica,sans-Serif" font-size="10.00">queryInterface()</text>
<text xml:space="preserve" text-anchor="start" x="36.5" y="-260.75" font-family="Helvetica,sans-Serif" font-size="10.00">+</text>
<text xml:space="preserve" text-anchor="start" x="50.38" y="-260.75" font-family="Helvetica,sans-Serif" font-size="10.00">addRef()</text>
<text xml:space="preserve" text-anchor="start" x="36.5" y="-245.5" font-family="Helvetica,sans-Serif" font-size="10.00">+</text>
<text xml:space="preserve" text-anchor="start" x="50.38" y="-245.5" font-family="Helvetica,sans-Serif" font-size="10.00">release()</text>
<polygon fill="#666666" stroke="#666666" points="28.62,-302.75 28.62,-302.75 129.62,-302.75 129.62,-302.75 28.62,-302.75"/>
<polygon fill="#666666" stroke="#666666" points="28.62,-287.5 28.62,-287.5 48.38,-287.5 48.38,-287.5 28.62,-287.5"/>
<polygon fill="#666666" stroke="#666666" points="48.38,-287.5 48.38,-287.5 129.62,-287.5 129.62,-287.5 48.38,-287.5"/>
<polygon fill="none" stroke="#666666" points="28.62,-239.75 28.62,-320 129.62,-320 129.62,-239.75 28.62,-239.75"/>
</a>
</g>
</g>
<!-- Node2&#45;&gt;Node1 -->
<g id="edge1_Node000001_Node000002" class="edge">
<title>Node2&#45;&gt;Node1</title>
<g id="a_edge1_Node000001_Node000002"><a xlink:title=" ">
<path fill="none" stroke="#63b8ff" d="M79.12,-228.67C79.12,-220.01 79.12,-211.29 79.12,-203.43"/>
<polygon fill="none" stroke="#63b8ff" points="75.63,-228.4 79.13,-238.4 82.63,-228.4 75.63,-228.4"/>
</a>
</g>
</g>
</g>
</svg>
