<?xml version="1.0" encoding="UTF-8" standalone="no"?>
<!DOCTYPE svg PUBLIC "-//W3C//DTD SVG 1.1//EN"
 "http://www.w3.org/Graphics/SVG/1.1/DTD/svg11.dtd">
<!-- Generated by graphviz version 14.0.2 (0)
 -->
<!-- Title: NekoWidget Pages: 1 -->
<svg width="106pt" height="374pt"
 viewBox="0.00 0.00 106.00 374.00" xmlns="http://www.w3.org/2000/svg" xmlns:xlink="http://www.w3.org/1999/xlink">
<g id="graph0" class="graph" transform="scale(1 1) rotate(0) translate(4 370.25)">
<title>NekoWidget</title>
<!-- Node1 -->
<g id="Node000001" class="node">
<title>Node1</title>
<g id="a_Node000001"><a xlink:title=" ">
<polygon fill="#999999" stroke="none" points="87.62,-126 10.38,-126 10.38,0 87.62,0 87.62,-126"/>
<text xml:space="preserve" text-anchor="start" x="22.38" y="-112.5" font-family="Helvetica,sans-Serif" font-size="10.00">NekoWidget</text>
<text xml:space="preserve" text-anchor="start" x="15.88" y="-97.25" font-family="Helvetica,sans-Serif" font-size="10.00">&#45;</text>
<text xml:space="preserve" text-anchor="start" x="24.38" y="-97.25" font-family="Helvetica,sans-Serif" font-size="10.00">fPos</text>
<text xml:space="preserve" text-anchor="start" x="15.88" y="-82" font-family="Helvetica,sans-Serif" font-size="10.00">&#45;</text>
<text xml:space="preserve" text-anchor="start" x="24.38" y="-82" font-family="Helvetica,sans-Serif" font-size="10.00">fTimer</text>
<text xml:space="preserve" text-anchor="start" x="15.88" y="-66.75" font-family="Helvetica,sans-Serif" font-size="10.00">&#45;</text>
<text xml:space="preserve" text-anchor="start" x="24.38" y="-66.75" font-family="Helvetica,sans-Serif" font-size="10.00">fCurAction</text>
<text xml:space="preserve" text-anchor="start" x="15.88" y="-51.5" font-family="Helvetica,sans-Serif" font-size="10.00">&#45;</text>
<text xml:space="preserve" text-anchor="start" x="24.38" y="-51.5" font-family="Helvetica,sans-Serif" font-size="10.00">fCurImage</text>
<text xml:space="preserve" text-anchor="start" x="14.38" y="-36.25" font-family="Helvetica,sans-Serif" font-size="10.00">+</text>
<text xml:space="preserve" text-anchor="start" x="24.38" y="-36.25" font-family="Helvetica,sans-Serif" font-size="10.00">NekoWidget()</text>
<text xml:space="preserve" text-anchor="start" x="14.38" y="-21" font-family="Helvetica,sans-Serif" font-size="10.00">+</text>
<text xml:space="preserve" text-anchor="start" x="24.38" y="-21" font-family="Helvetica,sans-Serif" font-size="10.00">draw()</text>
<text xml:space="preserve" text-anchor="start" x="14.38" y="-5.75" font-family="Helvetica,sans-Serif" font-size="10.00">+</text>
<text xml:space="preserve" text-anchor="start" x="24.38" y="-5.75" font-family="Helvetica,sans-Serif" font-size="10.00">idle()</text>
<polygon fill="#666666" stroke="#666666" points="10.38,-108.75 10.38,-108.75 87.62,-108.75 87.62,-108.75 10.38,-108.75"/>
<polygon fill="#666666" stroke="#666666" points="10.38,-47.75 10.38,-47.75 22.38,-47.75 22.38,-47.75 10.38,-47.75"/>
<polygon fill="#666666" stroke="#666666" points="22.38,-47.75 22.38,-47.75 87.62,-47.75 87.62,-47.75 22.38,-47.75"/>
<polygon fill="none" stroke="#666666" points="10.38,0 10.38,-126 87.62,-126 87.62,0 10.38,0"/>
</a>
</g>
</g>
<!-- Node2 -->
<g id="Node000002" class="node">
<title>Node2</title>
<g id="a_Node000002"><a xlink:href="structNekoWidget_1_1Images.html" target="_top" xlink:title=" ">
<polygon fill="white" stroke="none" points="98,-366.25 0,-366.25 0,-179.25 98,-179.25 98,-366.25"/>
<text xml:space="preserve" text-anchor="start" x="4" y="-352.75" font-family="Helvetica,sans-Serif" font-size="10.00">NekoWidget::Images</text>
<text xml:space="preserve" text-anchor="start" x="14.62" y="-337.5" font-family="Helvetica,sans-Serif" font-size="10.00">+</text>
<text xml:space="preserve" text-anchor="start" x="35.25" y="-337.5" font-family="Helvetica,sans-Serif" font-size="10.00">sit</text>
<text xml:space="preserve" text-anchor="start" x="14.62" y="-322.25" font-family="Helvetica,sans-Serif" font-size="10.00">+</text>
<text xml:space="preserve" text-anchor="start" x="35.25" y="-322.25" font-family="Helvetica,sans-Serif" font-size="10.00">tail</text>
<text xml:space="preserve" text-anchor="start" x="14.62" y="-307" font-family="Helvetica,sans-Serif" font-size="10.00">+</text>
<text xml:space="preserve" text-anchor="start" x="35.25" y="-307" font-family="Helvetica,sans-Serif" font-size="10.00">claw1</text>
<text xml:space="preserve" text-anchor="start" x="14.62" y="-291.75" font-family="Helvetica,sans-Serif" font-size="10.00">+</text>
<text xml:space="preserve" text-anchor="start" x="35.25" y="-291.75" font-family="Helvetica,sans-Serif" font-size="10.00">claw2</text>
<text xml:space="preserve" text-anchor="start" x="14.62" y="-276.5" font-family="Helvetica,sans-Serif" font-size="10.00">+</text>
<text xml:space="preserve" text-anchor="start" x="35.25" y="-276.5" font-family="Helvetica,sans-Serif" font-size="10.00">scratch1</text>
<text xml:space="preserve" text-anchor="start" x="14.62" y="-261.25" font-family="Helvetica,sans-Serif" font-size="10.00">+</text>
<text xml:space="preserve" text-anchor="start" x="35.25" y="-261.25" font-family="Helvetica,sans-Serif" font-size="10.00">scratch2</text>
<text xml:space="preserve" text-anchor="start" x="14.62" y="-246" font-family="Helvetica,sans-Serif" font-size="10.00">+</text>
<text xml:space="preserve" text-anchor="start" x="35.25" y="-246" font-family="Helvetica,sans-Serif" font-size="10.00">run1</text>
<text xml:space="preserve" text-anchor="start" x="14.62" y="-230.75" font-family="Helvetica,sans-Serif" font-size="10.00">+</text>
<text xml:space="preserve" text-anchor="start" x="35.25" y="-230.75" font-family="Helvetica,sans-Serif" font-size="10.00">run2</text>
<text xml:space="preserve" text-anchor="start" x="14.62" y="-215.5" font-family="Helvetica,sans-Serif" font-size="10.00">+</text>
<text xml:space="preserve" text-anchor="start" x="35.25" y="-215.5" font-family="Helvetica,sans-Serif" font-size="10.00">run3</text>
<text xml:space="preserve" text-anchor="start" x="14.62" y="-200.25" font-family="Helvetica,sans-Serif" font-size="10.00">+</text>
<text xml:space="preserve" text-anchor="start" x="35.25" y="-200.25" font-family="Helvetica,sans-Serif" font-size="10.00">run4</text>
<text xml:space="preserve" text-anchor="start" x="47.5" y="-185" font-family="Helvetica,sans-Serif" font-size="10.00"> </text>
<polygon fill="#666666" stroke="#666666" points="0,-349 0,-349 98,-349 98,-349 0,-349"/>
<polygon fill="#666666" stroke="#666666" points="0,-196.5 0,-196.5 33.25,-196.5 33.25,-196.5 0,-196.5"/>
<polygon fill="#666666" stroke="#666666" points="33.25,-196.5 33.25,-196.5 98,-196.5 98,-196.5 33.25,-196.5"/>
<polygon fill="none" stroke="#666666" points="0,-179.25 0,-366.25 98,-366.25 98,-179.25 0,-179.25"/>
</a>
</g>
</g>
<!-- Node2&#45;&gt;Node1 -->
<g id="edge1_Node000001_Node000002" class="edge">
<title>Node2&#45;&gt;Node1</title>
<g id="a_edge1_Node000001_Node000002"><a xlink:title=" ">
<path fill="none" stroke="#63b8ff" d="M49,-179.42C49,-165.84 49,-152.01 49,-138.84"/>
<polygon fill="none" stroke="#63b8ff" points="49,-138.84 45,-132.84 49,-126.84 53,-132.84 49,-138.84"/>
</a>
</g>
<text xml:space="preserve" text-anchor="start" x="52" y="-148.75" font-family="Helvetica,sans-Serif" font-size="10.00" fill="grey">&#45;fImages</text>
</g>
</g>
</svg>
