<?xml version="1.0" encoding="UTF-8" standalone="no"?>
<!DOCTYPE svg PUBLIC "-//W3C//DTD SVG 1.1//EN"
 "http://www.w3.org/Graphics/SVG/1.1/DTD/svg11.dtd">
<!-- Generated by graphviz version 14.0.2 (0)
 -->
<!-- Title: juce::ApplicationCommandTarget::invoke Pages: 1 -->
<!--zoomable 117 -->

<svg id="main" version="1.1" xmlns="http://www.w3.org/2000/svg" xmlns:xlink="http://www.w3.org/1999/xlink" xml:space="preserve" onload="init(evt)">

<style type="text/css"><![CDATA[
.node, .edge {opacity: 0.7;}
.node.selected, .edge.selected {opacity: 1;}
.edge:hover path { stroke: red; }
.edge:hover polygon { stroke: red; fill: red; }
]]></style>

<defs>
  <circle id="rim" cx="0" cy="0" r="7"/>
  <circle id="rim2" cx="0" cy="0" r="3.5"/>
  <g id="zoomPlus">
    <use xlink:href="#rim" fill="#404040"><set attributeName="fill" to="#808080" begin="zoomplus.mouseover" end="zoomplus.mouseout"/></use>
    <path d="M-4,0h8M0,-4v8" fill="none" stroke="white" stroke-width="1.5" pointer-events="none"/>
  </g>
  <g id="zoomMin">
    <use xlink:href="#rim" fill="#404040"><set attributeName="fill" to="#808080" begin="zoomminus.mouseover" end="zoomminus.mouseout"/></use>
    <path d="M-4,0h8" fill="none" stroke="white" stroke-width="1.5" pointer-events="none"/>
  </g>
  <g id="arrowUp" transform="translate(30 24)">
    <use xlink:href="#rim"/>
    <path pointer-events="none" fill="none" stroke="white" stroke-width="1.5" d="M0,-3.0v7 M-2.5,-0.5L0,-3.0L2.5,-0.5"/>
  </g>
  <g id="arrowRight" transform="rotate(90) translate(36 -43)">
    <use xlink:href="#rim"/>
    <path pointer-events="none" fill="none" stroke="white" stroke-width="1.5" d="M0,-3.0v7 M-2.5,-0.5L0,-3.0L2.5,-0.5"/>
  </g>
  <g id="arrowDown" transform="rotate(180) translate(-30 -48)">
    <use xlink:href="#rim"/>
    <path pointer-events="none" fill="none" stroke="white" stroke-width="1.5" d="M0,-3.0v7 M-2.5,-0.5L0,-3.0L2.5,-0.5"/>
  </g>
  <g id="arrowLeft" transform="rotate(270) translate(-36 17)">
    <use xlink:href="#rim"/>
    <path pointer-events="none" fill="none" stroke="white" stroke-width="1.5" d="M0,-3.0v7 M-2.5,-0.5L0,-3.0L2.5,-0.5"/>
  </g>
  <g id="resetDef">
    <use xlink:href="#rim2" fill="#404040"><set attributeName="fill" to="#808080" begin="reset.mouseover" end="reset.mouseout"/></use>
  </g>
</defs>
<script type="application/ecmascript">
var viewWidth = 639;
var viewHeight = 117;
var sectionId = 'dynsection-15';
</script>
<script type="application/ecmascript" xlink:href="svg.min.js"/>
<svg id="graph" class="graph">
<g id="viewport">
<title>juce::ApplicationCommandTarget::invoke</title>
<!-- Node1 -->
<g id="Node000001" class="node">
<title>Node1</title>
<g id="a_Node000001"><a xlink:title=" ">
<polygon fill="#999999" stroke="#666666" points="631,-47.5 500.25,-47.5 500.25,-17 631,-17 631,-47.5"/>
<text xml:space="preserve" text-anchor="start" x="508.25" y="-34" font-family="Helvetica,sans-Serif" font-size="10.00">juce::ApplicationCommand</text>
<text xml:space="preserve" text-anchor="middle" x="565.62" y="-22.75" font-family="Helvetica,sans-Serif" font-size="10.00">Target::invoke</text>
</a>
</g>
</g>
<!-- Node1&#45;&gt;Node1 -->
<g id="edge1_Node000001_Node000001" class="edge">
<title>Node1&#45;&gt;Node1</title>
<g id="a_edge1_Node000001_Node000001"><a xlink:title=" ">
<path fill="none" stroke="#63b8ff" d="M593.59,-59.2C589.02,-62.97 579.7,-65.5 565.62,-65.5 539.9,-65.5 530.05,-57.06 536.08,-47.99"/>
<polygon fill="#63b8ff" stroke="#63b8ff" points="597.03,-59.88 594.96,-49.48 590.1,-58.9 597.03,-59.88"/>
</a>
</g>
</g>
<!-- Node2 -->
<g id="Node000002" class="node">
<title>Node2</title>
<g id="a_Node000002"><a xlink:href="classjuce_1_1ApplicationCommandTarget.html#a7d4d6e0b8091a6eb896b2a07d42cae68" target="_top" xlink:title=" ">
<polygon fill="white" stroke="#666666" points="464.25,-90.5 333.5,-90.5 333.5,-60 464.25,-60 464.25,-90.5"/>
<text xml:space="preserve" text-anchor="start" x="341.5" y="-77" font-family="Helvetica,sans-Serif" font-size="10.00">juce::ApplicationCommand</text>
<text xml:space="preserve" text-anchor="middle" x="398.88" y="-65.75" font-family="Helvetica,sans-Serif" font-size="10.00">Target::invokeDirectly</text>
</a>
</g>
</g>
<!-- Node1&#45;&gt;Node2 -->
<g id="edge2_Node000001_Node000002" class="edge">
<title>Node1&#45;&gt;Node2</title>
<g id="a_edge2_Node000001_Node000002"><a xlink:title=" ">
<path fill="none" stroke="#63b8ff" d="M493.62,-50.78C482.43,-53.7 470.96,-56.7 460.05,-59.54"/>
<polygon fill="#63b8ff" stroke="#63b8ff" points="494.42,-54.19 503.22,-48.28 492.66,-47.42 494.42,-54.19"/>
</a>
</g>
</g>
<!-- Node3 -->
<g id="Node000003" class="node">
<title>Node3</title>
<g id="a_Node000003"><a xlink:href="classjuce_1_1ApplicationCommandTarget.html#ac43c03b7ce2e4ba49aa0436ec679f0c2" target="_top" xlink:title=" ">
<polygon fill="white" stroke="#666666" points="297.5,-52.5 166.75,-52.5 166.75,-22 297.5,-22 297.5,-52.5"/>
<text xml:space="preserve" text-anchor="start" x="174.75" y="-39" font-family="Helvetica,sans-Serif" font-size="10.00">juce::ApplicationCommand</text>
<text xml:space="preserve" text-anchor="middle" x="232.12" y="-27.75" font-family="Helvetica,sans-Serif" font-size="10.00">Target::perform</text>
</a>
</g>
</g>
<!-- Node1&#45;&gt;Node3 -->
<g id="edge8_Node000001_Node000003" class="edge">
<title>Node1&#45;&gt;Node3</title>
<g id="a_edge8_Node000001_Node000003"><a xlink:title=" ">
<path fill="none" stroke="#63b8ff" d="M488.68,-33.4C431.05,-34.26 352.65,-35.45 297.95,-36.27"/>
<polygon fill="#63b8ff" stroke="#63b8ff" points="488.46,-36.9 498.41,-33.25 488.36,-29.9 488.46,-36.9"/>
</a>
</g>
</g>
<!-- Node2&#45;&gt;Node2 -->
<g id="edge3_Node000002_Node000002" class="edge">
<title>Node2&#45;&gt;Node2</title>
<g id="a_edge3_Node000002_Node000002"><a xlink:title=" ">
<path fill="none" stroke="#63b8ff" d="M426.84,-102.2C422.27,-105.97 412.95,-108.5 398.88,-108.5 373.15,-108.5 363.3,-100.06 369.33,-90.99"/>
<polygon fill="#63b8ff" stroke="#63b8ff" points="430.28,-102.88 428.21,-92.48 423.35,-101.9 430.28,-102.88"/>
</a>
</g>
</g>
<!-- Node2&#45;&gt;Node3 -->
<g id="edge4_Node000002_Node000003" class="edge">
<title>Node2&#45;&gt;Node3</title>
<g id="a_edge4_Node000002_Node000003"><a xlink:title=" ">
<path fill="none" stroke="#63b8ff" d="M322.22,-57.8C314.08,-55.92 305.85,-54.02 297.85,-52.18"/>
<polygon fill="#63b8ff" stroke="#63b8ff" points="321.23,-61.16 331.76,-60 322.8,-54.34 321.23,-61.16"/>
</a>
</g>
</g>
<!-- Node4 -->
<g id="Node000004" class="node">
<title>Node4</title>
<g id="a_Node000004"><a xlink:href="classjuce_1_1ApplicationCommandTarget.html#a520b832dddd4461ada34abff59236612" target="_top" xlink:title=" ">
<polygon fill="#fff0f0" stroke="red" points="130.75,-30.5 0,-30.5 0,0 130.75,0 130.75,-30.5"/>
<text xml:space="preserve" text-anchor="start" x="8" y="-17" font-family="Helvetica,sans-Serif" font-size="10.00">juce::ApplicationCommand</text>
<text xml:space="preserve" text-anchor="middle" x="65.38" y="-5.75" font-family="Helvetica,sans-Serif" font-size="10.00">Target::tryToInvoke</text>
</a>
</g>
</g>
<!-- Node3&#45;&gt;Node4 -->
<g id="edge5_Node000003_Node000004" class="edge">
<title>Node3&#45;&gt;Node4</title>
<g id="a_edge5_Node000003_Node000004"><a xlink:title=" ">
<path fill="none" stroke="#63b8ff" d="M155.19,-27.11C147.14,-26.03 139.01,-24.95 131.1,-23.89"/>
<polygon fill="#63b8ff" stroke="#63b8ff" points="154.61,-30.56 164.98,-28.42 155.54,-23.62 154.61,-30.56"/>
</a>
</g>
</g>
<!-- Node4&#45;&gt;Node1 -->
<g id="edge6_Node000004_Node000001" class="edge">
<title>Node4&#45;&gt;Node1</title>
<g id="a_edge6_Node000004_Node000001"><a xlink:title=" ">
<path fill="none" stroke="#63b8ff" d="M142.63,-13.57C150.77,-13.44 158.93,-13.33 166.75,-13.25 224.86,-12.67 239.43,-11.19 297.5,-13.25 366.73,-15.71 445.86,-21.74 499.92,-26.36"/>
<polygon fill="#63b8ff" stroke="#63b8ff" points="142.62,-10.07 132.68,-13.74 142.74,-17.07 142.62,-10.07"/>
</a>
</g>
</g>
<!-- Node4&#45;&gt;Node4 -->
<g id="edge7_Node000004_Node000004" class="edge">
<title>Node4&#45;&gt;Node4</title>
<g id="a_edge7_Node000004_Node000004"><a xlink:title=" ">
<path fill="none" stroke="#63b8ff" d="M93.34,-42.2C88.77,-45.97 79.45,-48.5 65.38,-48.5 39.65,-48.5 29.8,-40.06 35.83,-30.99"/>
<polygon fill="#63b8ff" stroke="#63b8ff" points="96.78,-42.88 94.71,-32.48 89.85,-41.9 96.78,-42.88"/>
</a>
</g>
</g>
</g>
</svg>

<g id="navigator" transform="translate(0 0)" fill="#404254">
  <rect fill="#f2f5e9" fill-opacity="0.5" stroke="#606060" stroke-width=".5" x="0" y="0" width="60" height="60"/>
  <use id="zoomplus" xlink:href="#zoomPlus" x="17" y="9" onmousedown="handleZoom(evt,'in')"/>
  <use id="zoomminus" xlink:href="#zoomMin" x="42" y="9" onmousedown="handleZoom(evt,'out')"/>
  <use id="reset" xlink:href="#resetDef" x="30" y="36" onmousedown="handleReset()"/>
   <use id="arrowup" xlink:href="#arrowUp" x="0" y="0" onmousedown="handlePan(0,-1)"/>
  <use id="arrowright" xlink:href="#arrowRight" x="0" y="0" onmousedown="handlePan(1,0)"/>
  <use id="arrowdown" xlink:href="#arrowDown" x="0" y="0" onmousedown="handlePan(0,1)"/>
  <use id="arrowleft" xlink:href="#arrowLeft" x="0" y="0" onmousedown="handlePan(-1,0)"/>
</g>
<svg viewBox="0 0 15 15" width="100%" height="30px" preserveAspectRatio="xMaxYMin meet">
 <g id="arrow_out" transform="scale(0.3 0.3)">
  <a xlink:href="classjuce_1_1ApplicationCommandTarget_ab63d68740eb8866adf7e67d109101816_icgraph_org.svg" target="_base">
   <rect id="button" ry="5" rx="5" y="6" x="6" height="38" width="38"
        fill="#f2f5e9" fill-opacity="0.5" stroke="#606060" stroke-width="1.0"/>
   <path id="arrow"
     d="M 11.500037,31.436501 C 11.940474,20.09759 22.043105,11.32322 32.158766,21.979434 L 37.068811,17.246167 C 37.068811,17.246167 37.088388,32 37.088388,32 L 22.160133,31.978069 C 22.160133,31.978069 26.997745,27.140456 26.997745,27.140456 C 18.528582,18.264221 13.291696,25.230495 11.500037,31.436501 z"
     style="fill:#404040;"/>
  </a>
 </g>
</svg>

<style type='text/css'>
<![CDATA[
[data-mouse-over-selected='false'] { opacity: 0.7; }
[data-mouse-over-selected='true']  { opacity: 1.0; }
]]>
</style>
<script type="application/ecmascript"><![CDATA[
document.addEventListener('DOMContentLoaded', (event) => {
  highlightEdges();
  highlightAdjacentNodes();
});
]]></script>
</svg>
