<?xml version="1.0" encoding="UTF-8" standalone="no"?>
<!DOCTYPE svg PUBLIC "-//W3C//DTD SVG 1.1//EN"
 "http://www.w3.org/Graphics/SVG/1.1/DTD/svg11.dtd">
<!-- Generated by graphviz version 14.0.2 (0)
 -->
<!-- Title: juce::AudioProcessor::getMainBusNumOutputChannels Pages: 1 -->
<svg width="617pt" height="39pt"
 viewBox="0.00 0.00 617.00 39.00" xmlns="http://www.w3.org/2000/svg" xmlns:xlink="http://www.w3.org/1999/xlink">
<g id="graph0" class="graph" transform="scale(1 1) rotate(0) translate(4 34.5)">
<title>juce::AudioProcessor::getMainBusNumOutputChannels</title>
<!-- Node1 -->
<g id="Node000001" class="node">
<title>Node1</title>
<g id="a_Node000001"><a xlink:title=" ">
<polygon fill="#999999" stroke="#666666" points="163,-30.5 0,-30.5 0,0 163,0 163,-30.5"/>
<text xml:space="preserve" text-anchor="start" x="8" y="-17" font-family="Helvetica,sans-Serif" font-size="10.00">juce::AudioProcessor</text>
<text xml:space="preserve" text-anchor="middle" x="81.5" y="-5.75" font-family="Helvetica,sans-Serif" font-size="10.00">::getMainBusNumOutputChannels</text>
</a>
</g>
</g>
<!-- Node2 -->
<g id="Node000002" class="node">
<title>Node2</title>
<g id="a_Node000002"><a xlink:href="classjuce_1_1AudioProcessor.html#a92930236358b5e089423cc1b4ee193fa" target="_top" xlink:title=" ">
<polygon fill="white" stroke="#666666" points="321.5,-30.5 199,-30.5 199,0 321.5,0 321.5,-30.5"/>
<text xml:space="preserve" text-anchor="start" x="207" y="-17" font-family="Helvetica,sans-Serif" font-size="10.00">juce::AudioProcessor</text>
<text xml:space="preserve" text-anchor="middle" x="260.25" y="-5.75" font-family="Helvetica,sans-Serif" font-size="10.00">::getChannelCountOfBus</text>
</a>
</g>
</g>
<!-- Node1&#45;&gt;Node2 -->
<g id="edge1_Node000001_Node000002" class="edge">
<title>Node1&#45;&gt;Node2</title>
<g id="a_edge1_Node000001_Node000002"><a xlink:title=" ">
<path fill="none" stroke="#63b8ff" d="M163.37,-15.25C171.31,-15.25 179.33,-15.25 187.18,-15.25"/>
<polygon fill="#63b8ff" stroke="#63b8ff" points="187,-18.75 197,-15.25 187,-11.75 187,-18.75"/>
</a>
</g>
</g>
<!-- Node3 -->
<g id="Node000003" class="node">
<title>Node3</title>
<g id="a_Node000003"><a xlink:href="classjuce_1_1AudioProcessor.html#a18a54546f85a47f0e1848b396804d056" target="_top" xlink:title=" ">
<polygon fill="white" stroke="#666666" points="465,-30.5 357.5,-30.5 357.5,0 465,0 465,-30.5"/>
<text xml:space="preserve" text-anchor="start" x="365.5" y="-17" font-family="Helvetica,sans-Serif" font-size="10.00">juce::AudioProcessor</text>
<text xml:space="preserve" text-anchor="middle" x="411.25" y="-5.75" font-family="Helvetica,sans-Serif" font-size="10.00">::getBus</text>
</a>
</g>
</g>
<!-- Node2&#45;&gt;Node3 -->
<g id="edge2_Node000002_Node000003" class="edge">
<title>Node2&#45;&gt;Node3</title>
<g id="a_edge2_Node000002_Node000003"><a xlink:title=" ">
<path fill="none" stroke="#63b8ff" d="M321.85,-15.25C329.76,-15.25 337.88,-15.25 345.84,-15.25"/>
<polygon fill="#63b8ff" stroke="#63b8ff" points="345.84,-18.75 355.84,-15.25 345.84,-11.75 345.84,-18.75"/>
</a>
</g>
</g>
<!-- Node4 -->
<g id="Node000004" class="node">
<title>Node4</title>
<g id="a_Node000004"><a xlink:href="classjuce_1_1AudioProcessor.html#a75a657d649e6f350de5cebdf1cad45c2" target="_top" xlink:title=" ">
<polygon fill="white" stroke="#666666" points="608.5,-30.5 501,-30.5 501,0 608.5,0 608.5,-30.5"/>
<text xml:space="preserve" text-anchor="start" x="509" y="-17" font-family="Helvetica,sans-Serif" font-size="10.00">juce::AudioProcessor</text>
<text xml:space="preserve" text-anchor="middle" x="554.75" y="-5.75" font-family="Helvetica,sans-Serif" font-size="10.00">::getBusImpl</text>
</a>
</g>
</g>
<!-- Node3&#45;&gt;Node4 -->
<g id="edge3_Node000003_Node000004" class="edge">
<title>Node3&#45;&gt;Node4</title>
<g id="a_edge3_Node000003_Node000004"><a xlink:title=" ">
<path fill="none" stroke="#63b8ff" d="M465.34,-15.25C473.23,-15.25 481.43,-15.25 489.52,-15.25"/>
<polygon fill="#63b8ff" stroke="#63b8ff" points="489.32,-18.75 499.32,-15.25 489.32,-11.75 489.32,-18.75"/>
</a>
</g>
</g>
</g>
</svg>
