<?xml version="1.0" encoding="UTF-8" standalone="no"?>
<!DOCTYPE svg PUBLIC "-//W3C//DTD SVG 1.1//EN"
 "http://www.w3.org/Graphics/SVG/1.1/DTD/svg11.dtd">
<!-- Generated by graphviz version 14.0.2 (0)
 -->
<!-- Title: lmms::AudioBusHandle::setName Pages: 1 -->
<svg width="292pt" height="125pt"
 viewBox="0.00 0.00 292.00 125.00" xmlns="http://www.w3.org/2000/svg" xmlns:xlink="http://www.w3.org/1999/xlink">
<g id="graph0" class="graph" transform="scale(1 1) rotate(0) translate(4 120.5)">
<title>lmms::AudioBusHandle::setName</title>
<!-- Node1 -->
<g id="Node000001" class="node">
<title>Node1</title>
<g id="a_Node000001"><a xlink:title=" ">
<polygon fill="#999999" stroke="#666666" points="117.25,-73.5 0,-73.5 0,-43 117.25,-43 117.25,-73.5"/>
<text xml:space="preserve" text-anchor="start" x="8" y="-60" font-family="Helvetica,sans-Serif" font-size="10.00">lmms::AudioBusHandle</text>
<text xml:space="preserve" text-anchor="middle" x="58.62" y="-48.75" font-family="Helvetica,sans-Serif" font-size="10.00">::setName</text>
</a>
</g>
</g>
<!-- Node2 -->
<g id="Node000002" class="node">
<title>Node2</title>
<g id="a_Node000002"><a xlink:href="classlmms_1_1AudioEngine.html#aa82da835ecd33d8123b2c1da4511b68a" target="_top" xlink:title=" ">
<polygon fill="white" stroke="#666666" points="270.12,-116.5 167.12,-116.5 167.12,-86 270.12,-86 270.12,-116.5"/>
<text xml:space="preserve" text-anchor="start" x="175.12" y="-103" font-family="Helvetica,sans-Serif" font-size="10.00">lmms::AudioEngine::</text>
<text xml:space="preserve" text-anchor="middle" x="218.62" y="-91.75" font-family="Helvetica,sans-Serif" font-size="10.00">audioDev</text>
</a>
</g>
</g>
<!-- Node1&#45;&gt;Node2 -->
<g id="edge1_Node000001_Node000002" class="edge">
<title>Node1&#45;&gt;Node2</title>
<g id="a_edge1_Node000001_Node000002"><a xlink:title=" ">
<path fill="none" stroke="#63b8ff" d="M117.11,-73.9C129.67,-77.31 143.01,-80.94 155.73,-84.41"/>
<polygon fill="#63b8ff" stroke="#63b8ff" points="154.69,-87.75 165.26,-87 156.53,-80.99 154.69,-87.75"/>
</a>
</g>
</g>
<!-- Node3 -->
<g id="Node000003" class="node">
<title>Node3</title>
<g id="a_Node000003"><a xlink:href="classlmms_1_1Engine.html#a6877e216489d342e0d50925d47b56ae4" target="_top" xlink:title=" ">
<polygon fill="white" stroke="#666666" points="284,-67.88 153.25,-67.88 153.25,-48.62 284,-48.62 284,-67.88"/>
<text xml:space="preserve" text-anchor="middle" x="218.62" y="-54.38" font-family="Helvetica,sans-Serif" font-size="10.00">lmms::Engine::audioEngine</text>
</a>
</g>
</g>
<!-- Node1&#45;&gt;Node3 -->
<g id="edge2_Node000001_Node000003" class="edge">
<title>Node1&#45;&gt;Node3</title>
<g id="a_edge2_Node000001_Node000003"><a xlink:title=" ">
<path fill="none" stroke="#63b8ff" d="M117.56,-58.25C125.34,-58.25 133.42,-58.25 141.46,-58.25"/>
<polygon fill="#63b8ff" stroke="#63b8ff" points="141.24,-61.75 151.24,-58.25 141.24,-54.75 141.24,-61.75"/>
</a>
</g>
</g>
<!-- Node4 -->
<g id="Node000004" class="node">
<title>Node4</title>
<g id="a_Node000004"><a xlink:href="classlmms_1_1AudioDevice.html#ab19b90be5172e4a2fb564f2359d54554" target="_top" xlink:title=" ">
<polygon fill="white" stroke="#666666" points="270.5,-30.5 166.75,-30.5 166.75,0 270.5,0 270.5,-30.5"/>
<text xml:space="preserve" text-anchor="start" x="174.75" y="-17" font-family="Helvetica,sans-Serif" font-size="10.00">lmms::AudioDevice::</text>
<text xml:space="preserve" text-anchor="middle" x="218.62" y="-5.75" font-family="Helvetica,sans-Serif" font-size="10.00">renamePort</text>
</a>
</g>
</g>
<!-- Node1&#45;&gt;Node4 -->
<g id="edge3_Node000001_Node000004" class="edge">
<title>Node1&#45;&gt;Node4</title>
<g id="a_edge3_Node000001_Node000004"><a xlink:title=" ">
<path fill="none" stroke="#63b8ff" d="M117.11,-42.6C129.6,-39.21 142.87,-35.6 155.52,-32.15"/>
<polygon fill="#63b8ff" stroke="#63b8ff" points="156.27,-35.58 165,-29.57 154.43,-28.82 156.27,-35.58"/>
</a>
</g>
</g>
</g>
</svg>
