<?xml version="1.0" encoding="UTF-8" standalone="no"?>
<!DOCTYPE svg PUBLIC "-//W3C//DTD SVG 1.1//EN"
 "http://www.w3.org/Graphics/SVG/1.1/DTD/svg11.dtd">
<!-- Generated by graphviz version 14.0.2 (0)
 -->
<!-- Title: CarlaPluginDiscovery::idle Pages: 1 -->
<svg width="961pt" height="962pt"
 viewBox="0.00 0.00 961.00 962.00" xmlns="http://www.w3.org/2000/svg" xmlns:xlink="http://www.w3.org/1999/xlink">
<g id="graph0" class="graph" transform="scale(1 1) rotate(0) translate(4 957.57)">
<title>CarlaPluginDiscovery::idle</title>
<!-- Node1 -->
<g id="Node000001" class="node">
<title>Node1</title>
<g id="a_Node000001"><a xlink:title=" ">
<polygon fill="#999999" stroke="#666666" points="108.25,-147.88 0,-147.88 0,-117.38 108.25,-117.38 108.25,-147.88"/>
<text xml:space="preserve" text-anchor="start" x="8" y="-134.38" font-family="Helvetica,sans-Serif" font-size="10.00">CarlaPluginDiscovery</text>
<text xml:space="preserve" text-anchor="middle" x="54.12" y="-123.12" font-family="Helvetica,sans-Serif" font-size="10.00">::idle</text>
</a>
</g>
</g>
<!-- Node2 -->
<g id="Node000002" class="node">
<title>Node2</title>
<g id="a_Node000002"><a xlink:href="CarlaTimeUtils_8hpp.html#a9d6e1f90379f9f662c4ca25154f92824" target="_top" xlink:title=" ">
<polygon fill="white" stroke="#666666" points="824,-350.25 730.75,-350.25 730.75,-331 824,-331 824,-350.25"/>
<text xml:space="preserve" text-anchor="middle" x="777.38" y="-336.75" font-family="Helvetica,sans-Serif" font-size="10.00">carla_gettime_ms</text>
</a>
</g>
</g>
<!-- Node1&#45;&gt;Node2 -->
<g id="edge1_Node000001_Node000002" class="edge">
<title>Node1&#45;&gt;Node2</title>
<g id="a_edge1_Node000001_Node000002"><a xlink:title=" ">
<path fill="none" stroke="#63b8ff" d="M108.43,-129.28C194.21,-125.13 367.74,-121.87 510.75,-151.62 589.23,-167.96 614.55,-168.95 679,-216.62 718.07,-245.52 749.78,-293.98 765.55,-320.97"/>
<polygon fill="#63b8ff" stroke="#63b8ff" points="762.4,-322.51 770.39,-329.47 768.49,-319.05 762.4,-322.51"/>
</a>
</g>
</g>
<!-- Node3 -->
<g id="Node000003" class="node">
<title>Node3</title>
<g id="a_Node000003"><a xlink:href="CarlaUtils_8hpp.html#af808e8485bfb6f974805a4e329ede9da" target="_top" xlink:title=" ">
<polygon fill="white" stroke="#666666" points="462,-755.25 392.75,-755.25 392.75,-736 462,-736 462,-755.25"/>
<text xml:space="preserve" text-anchor="middle" x="427.38" y="-741.75" font-family="Helvetica,sans-Serif" font-size="10.00">carla_stdout</text>
</a>
</g>
</g>
<!-- Node1&#45;&gt;Node3 -->
<g id="edge2_Node000001_Node000003" class="edge">
<title>Node1&#45;&gt;Node3</title>
<g id="a_edge2_Node000001_Node000003"><a xlink:title=" ">
<path fill="none" stroke="#63b8ff" d="M58.63,-148.27C68.62,-191.51 99.47,-315.81 144.25,-411.62 214.44,-561.81 208.71,-630.82 344,-726.62 354.84,-734.3 368.31,-738.92 381.19,-741.69"/>
<polygon fill="#63b8ff" stroke="#63b8ff" points="380.34,-745.1 390.8,-743.41 381.57,-738.21 380.34,-745.1"/>
</a>
</g>
</g>
<!-- Node5 -->
<g id="Node000005" class="node">
<title>Node5</title>
<g id="a_Node000005"><a xlink:href="classCarlaPipeCommon.html#abc60f54c4d6c46366ad463ef3a018709" target="_top" xlink:title=" ">
<polygon fill="white" stroke="#666666" points="294.12,-59.25 158.12,-59.25 158.12,-40 294.12,-40 294.12,-59.25"/>
<text xml:space="preserve" text-anchor="middle" x="226.12" y="-45.75" font-family="Helvetica,sans-Serif" font-size="10.00">CarlaPipeCommon::idlePipe</text>
</a>
</g>
</g>
<!-- Node1&#45;&gt;Node5 -->
<g id="edge4_Node000001_Node000005" class="edge">
<title>Node1&#45;&gt;Node5</title>
<g id="a_edge4_Node000001_Node000005"><a xlink:title=" ">
<path fill="none" stroke="#63b8ff" d="M77.87,-117.09C95.47,-105.51 120.73,-89.83 144.25,-78.62 156.12,-72.97 169.41,-67.77 181.73,-63.38"/>
<polygon fill="#63b8ff" stroke="#63b8ff" points="182.51,-66.82 190.82,-60.24 180.22,-60.2 182.51,-66.82"/>
</a>
</g>
</g>
<!-- Node8 -->
<g id="Node000008" class="node">
<title>Node8</title>
<g id="a_Node000008"><a xlink:href="classCarlaPipeCommon.html#a3f07c16c681f6bb2045dc9993ab06fbf" target="_top" xlink:title=" ">
<polygon fill="white" stroke="#666666" points="308,-22.25 144.25,-22.25 144.25,-3 308,-3 308,-22.25"/>
<text xml:space="preserve" text-anchor="middle" x="226.12" y="-8.75" font-family="Helvetica,sans-Serif" font-size="10.00">CarlaPipeCommon::isPipeRunning</text>
</a>
</g>
</g>
<!-- Node1&#45;&gt;Node8 -->
<g id="edge7_Node000001_Node000008" class="edge">
<title>Node1&#45;&gt;Node8</title>
<g id="a_edge7_Node000001_Node000008"><a xlink:title=" ">
<path fill="none" stroke="#63b8ff" d="M64.17,-117.09C78.25,-94.35 107.65,-52.36 144.25,-30.62 146.41,-29.34 148.65,-28.15 150.96,-27.04"/>
<polygon fill="#63b8ff" stroke="#63b8ff" points="152.09,-30.36 159.98,-23.29 149.4,-23.9 152.09,-30.36"/>
</a>
</g>
</g>
<!-- Node9 -->
<g id="Node000009" class="node">
<title>Node9</title>
<g id="a_Node000009"><a xlink:href="classCarlaPluginDiscovery.html#a74634516323f006279a7a059576dd730" target="_top" xlink:title=" ">
<polygon fill="white" stroke="#666666" points="481.5,-104.88 373.25,-104.88 373.25,-74.38 481.5,-74.38 481.5,-104.88"/>
<text xml:space="preserve" text-anchor="start" x="381.25" y="-91.38" font-family="Helvetica,sans-Serif" font-size="10.00">CarlaPluginDiscovery</text>
<text xml:space="preserve" text-anchor="middle" x="427.38" y="-80.12" font-family="Helvetica,sans-Serif" font-size="10.00">::makeHash</text>
</a>
</g>
</g>
<!-- Node1&#45;&gt;Node9 -->
<g id="edge8_Node000001_Node000009" class="edge">
<title>Node1&#45;&gt;Node9</title>
<g id="a_edge8_Node000001_Node000009"><a xlink:title=" ">
<path fill="none" stroke="#63b8ff" d="M108.31,-123.79C120.13,-121.97 132.6,-120.14 144.25,-118.62 218.6,-108.97 304.31,-100.54 361.56,-95.3"/>
<polygon fill="#63b8ff" stroke="#63b8ff" points="361.83,-98.79 371.47,-94.4 361.19,-91.82 361.83,-98.79"/>
</a>
</g>
</g>
<!-- Node18 -->
<g id="Node000018" class="node">
<title>Node18</title>
<g id="a_Node000018"><a xlink:href="classCarlaPluginDiscovery.html#ab8103ffe9a6062683cbd0ec3f7432baa" target="_top" xlink:title=" ">
<polygon fill="white" stroke="#666666" points="280.25,-402.88 172,-402.88 172,-372.38 280.25,-372.38 280.25,-402.88"/>
<text xml:space="preserve" text-anchor="start" x="180" y="-389.38" font-family="Helvetica,sans-Serif" font-size="10.00">CarlaPluginDiscovery</text>
<text xml:space="preserve" text-anchor="middle" x="226.12" y="-378.12" font-family="Helvetica,sans-Serif" font-size="10.00">::start</text>
</a>
</g>
</g>
<!-- Node1&#45;&gt;Node18 -->
<g id="edge13_Node000001_Node000018" class="edge">
<title>Node1&#45;&gt;Node18</title>
<g id="a_edge13_Node000001_Node000018"><a xlink:title=" ">
<path fill="none" stroke="#63b8ff" d="M65.5,-148.19C93.96,-190.87 173.4,-310.03 208.31,-362.4"/>
<polygon fill="#63b8ff" stroke="#63b8ff" points="205.37,-364.3 213.83,-370.68 211.19,-360.42 205.37,-364.3"/>
</a>
</g>
</g>
<!-- Node45 -->
<g id="Node000045" class="node">
<title>Node45</title>
<g id="a_Node000045"><a xlink:href="classCarlaPipeServer.html#a589158c1f69c9969899081107483b91d" target="_top" xlink:title=" ">
<polygon fill="white" stroke="#666666" points="290.75,-841.88 161.5,-841.88 161.5,-811.38 290.75,-811.38 290.75,-841.88"/>
<text xml:space="preserve" text-anchor="start" x="169.5" y="-828.38" font-family="Helvetica,sans-Serif" font-size="10.00">CarlaPipeServer::stopPipe</text>
<text xml:space="preserve" text-anchor="middle" x="226.12" y="-817.12" font-family="Helvetica,sans-Serif" font-size="10.00">Server</text>
</a>
</g>
</g>
<!-- Node1&#45;&gt;Node45 -->
<g id="edge50_Node000001_Node000045" class="edge">
<title>Node1&#45;&gt;Node45</title>
<g id="a_edge50_Node000001_Node000045"><a xlink:title=" ">
<path fill="none" stroke="#63b8ff" d="M57.17,-148.25C65.16,-207.95 96.27,-427.18 144.25,-602.62 164.24,-675.72 197.06,-758.96 214.09,-800.36"/>
<polygon fill="#63b8ff" stroke="#63b8ff" points="210.81,-801.58 217.87,-809.48 217.28,-798.9 210.81,-801.58"/>
</a>
</g>
</g>
<!-- Node4 -->
<g id="Node000004" class="node">
<title>Node4</title>
<g id="a_Node000004"><a xlink:href="CarlaUtils_8hpp.html#a72c98b79b4bafee47a1e9249e83368f3" target="_top" xlink:title=" ">
<polygon fill="white" stroke="#666666" points="952.5,-744.25 875.75,-744.25 875.75,-725 952.5,-725 952.5,-744.25"/>
<text xml:space="preserve" text-anchor="middle" x="914.12" y="-730.75" font-family="Helvetica,sans-Serif" font-size="10.00">__carla_fopen</text>
</a>
</g>
</g>
<!-- Node3&#45;&gt;Node4 -->
<g id="edge3_Node000003_Node000004" class="edge">
<title>Node3&#45;&gt;Node4</title>
<g id="a_edge3_Node000003_Node000004"><a xlink:title=" ">
<path fill="none" stroke="#63b8ff" d="M447.84,-755.56C470.79,-766.66 510.42,-783.95 546.75,-790.62 666.7,-812.66 809.86,-771.37 876.12,-748.44"/>
<polygon fill="#63b8ff" stroke="#63b8ff" points="877.13,-751.8 885.4,-745.17 874.8,-745.2 877.13,-751.8"/>
</a>
</g>
</g>
<!-- Node6 -->
<g id="Node000006" class="node">
<title>Node6</title>
<g id="a_Node000006"><a xlink:href="classCarlaPipeCommon.html#aa3aa5f522129b69d3055d51a99bce554" target="_top" xlink:title=" ">
<polygon fill="white" stroke="#666666" points="497.62,-56.25 357.12,-56.25 357.12,-37 497.62,-37 497.62,-56.25"/>
<text xml:space="preserve" text-anchor="middle" x="427.38" y="-42.75" font-family="Helvetica,sans-Serif" font-size="10.00">CarlaPipeCommon::_readline</text>
</a>
</g>
</g>
<!-- Node5&#45;&gt;Node6 -->
<g id="edge5_Node000005_Node000006" class="edge">
<title>Node5&#45;&gt;Node6</title>
<g id="a_edge5_Node000005_Node000006"><a xlink:title=" ">
<path fill="none" stroke="#63b8ff" d="M294.58,-48.61C311.07,-48.36 328.87,-48.09 345.89,-47.84"/>
<polygon fill="#63b8ff" stroke="#63b8ff" points="345.49,-51.34 355.44,-47.69 345.38,-44.34 345.49,-51.34"/>
</a>
</g>
</g>
<!-- Node7 -->
<g id="Node000007" class="node">
<title>Node7</title>
<g id="a_Node000007"><a xlink:href="classCarlaPipeCommon.html#a5b79584127fb6f4663954c20f1ea2256" target="_top" xlink:title=" ">
<polygon fill="white" stroke="#666666" points="507.75,-19.25 347,-19.25 347,0 507.75,0 507.75,-19.25"/>
<text xml:space="preserve" text-anchor="middle" x="427.38" y="-5.75" font-family="Helvetica,sans-Serif" font-size="10.00">CarlaPipeCommon::msgReceived</text>
</a>
</g>
</g>
<!-- Node5&#45;&gt;Node7 -->
<g id="edge6_Node000005_Node000007" class="edge">
<title>Node5&#45;&gt;Node7</title>
<g id="a_edge6_Node000005_Node000007"><a xlink:title=" ">
<path fill="none" stroke="#63b8ff" d="M277.4,-39.53C304.07,-34.18 337.04,-27.56 365.19,-21.91"/>
<polygon fill="#63b8ff" stroke="#63b8ff" points="365.51,-25.41 374.63,-20.01 364.13,-18.55 365.51,-25.41"/>
</a>
</g>
</g>
<!-- Node10 -->
<g id="Node000010" class="node">
<title>Node10</title>
<g id="a_Node000010"><a xlink:href="classCarlaSha1.html#a227befd930772fb6d40a874a33ddd104" target="_top" xlink:title=" ">
<polygon fill="white" stroke="#666666" points="676.38,-102.25 549.38,-102.25 549.38,-83 676.38,-83 676.38,-102.25"/>
<text xml:space="preserve" text-anchor="middle" x="612.88" y="-88.75" font-family="Helvetica,sans-Serif" font-size="10.00">CarlaSha1::resultAsString</text>
</a>
</g>
</g>
<!-- Node9&#45;&gt;Node10 -->
<g id="edge9_Node000009_Node000010" class="edge">
<title>Node9&#45;&gt;Node10</title>
<g id="a_edge9_Node000009_Node000010"><a xlink:title=" ">
<path fill="none" stroke="#63b8ff" d="M481.94,-90.5C499.38,-90.79 519.05,-91.11 537.71,-91.41"/>
<polygon fill="#63b8ff" stroke="#63b8ff" points="537.6,-94.91 547.66,-91.58 537.72,-87.91 537.6,-94.91"/>
</a>
</g>
</g>
<!-- Node16 -->
<g id="Node000016" class="node">
<title>Node16</title>
<g id="a_Node000016"><a xlink:href="classCarlaSha1.html#a320ad5cd8148321d7ccbbaa262b7ecc4" target="_top" xlink:title=" ">
<polygon fill="white" stroke="#666666" points="656.12,-65.25 569.62,-65.25 569.62,-46 656.12,-46 656.12,-65.25"/>
<text xml:space="preserve" text-anchor="middle" x="612.88" y="-51.75" font-family="Helvetica,sans-Serif" font-size="10.00">CarlaSha1::write</text>
</a>
</g>
</g>
<!-- Node9&#45;&gt;Node16 -->
<g id="edge11_Node000009_Node000016" class="edge">
<title>Node9&#45;&gt;Node16</title>
<g id="a_edge11_Node000009_Node000016"><a xlink:title=" ">
<path fill="none" stroke="#63b8ff" d="M481.94,-79.7C505.96,-75.25 534.23,-70.01 558.25,-65.56"/>
<polygon fill="#63b8ff" stroke="#63b8ff" points="558.63,-69.05 567.83,-63.79 557.36,-62.17 558.63,-69.05"/>
</a>
</g>
</g>
<!-- Node11 -->
<g id="Node000011" class="node">
<title>Node11</title>
<g id="a_Node000011"><a xlink:href="classCarlaSha1.html#a16eb14bf06197d42841b9d8667338506" target="_top" xlink:title=" ">
<polygon fill="#fff0f0" stroke="red" points="839.75,-102.25 715,-102.25 715,-83 839.75,-83 839.75,-102.25"/>
<text xml:space="preserve" text-anchor="middle" x="777.38" y="-88.75" font-family="Helvetica,sans-Serif" font-size="10.00">CarlaSha1::resultAsHash</text>
</a>
</g>
</g>
<!-- Node10&#45;&gt;Node11 -->
<g id="edge10_Node000010_Node000011" class="edge">
<title>Node10&#45;&gt;Node11</title>
<g id="a_edge10_Node000010_Node000011"><a xlink:title=" ">
<path fill="none" stroke="#63b8ff" d="M676.7,-92.62C685.33,-92.62 694.26,-92.62 703.06,-92.62"/>
<polygon fill="#63b8ff" stroke="#63b8ff" points="703,-96.13 713,-92.63 703,-89.13 703,-96.13"/>
</a>
</g>
</g>
<!-- Node17 -->
<g id="Node000017" class="node">
<title>Node17</title>
<g id="a_Node000017"><a xlink:href="classCarlaSha1.html#a54863532619103a0d14857e95ab1423a" target="_top" xlink:title=" ">
<polygon fill="#fff0f0" stroke="red" points="830.38,-65.25 724.38,-65.25 724.38,-46 830.38,-46 830.38,-65.25"/>
<text xml:space="preserve" text-anchor="middle" x="777.38" y="-51.75" font-family="Helvetica,sans-Serif" font-size="10.00">CarlaSha1::writeByte</text>
</a>
</g>
</g>
<!-- Node16&#45;&gt;Node17 -->
<g id="edge12_Node000016_Node000017" class="edge">
<title>Node16&#45;&gt;Node17</title>
<g id="a_edge12_Node000016_Node000017"><a xlink:title=" ">
<path fill="none" stroke="#63b8ff" d="M656.57,-55.62C673.7,-55.62 693.81,-55.62 712.61,-55.62"/>
<polygon fill="#63b8ff" stroke="#63b8ff" points="712.59,-59.13 722.59,-55.63 712.59,-52.13 712.59,-59.13"/>
</a>
</g>
</g>
<!-- Node18&#45;&gt;Node2 -->
<g id="edge17_Node000018_Node000002" class="edge">
<title>Node18&#45;&gt;Node2</title>
<g id="a_edge17_Node000018_Node000002"><a xlink:title=" ">
<path fill="none" stroke="#63b8ff" d="M232.85,-371.97C246.2,-338.11 282.97,-258.62 344,-227.62 489.41,-153.77 687.55,-277.39 753.78,-323.98"/>
<polygon fill="#63b8ff" stroke="#63b8ff" points="751.51,-326.66 761.68,-329.63 755.58,-320.97 751.51,-326.66"/>
</a>
</g>
</g>
<!-- Node18&#45;&gt;Node3 -->
<g id="edge18_Node000018_Node000003" class="edge">
<title>Node18&#45;&gt;Node3</title>
<g id="a_edge18_Node000018_Node000003"><a xlink:title=" ">
<path fill="none" stroke="#63b8ff" d="M235.01,-403.27C250.72,-434.93 286.28,-509.16 308,-574.62 329.86,-640.52 294.77,-677.68 344,-726.62 353.84,-736.41 367.64,-741.56 381.14,-744.16"/>
<polygon fill="#63b8ff" stroke="#63b8ff" points="380.42,-747.59 390.82,-745.57 381.43,-740.66 380.42,-747.59"/>
</a>
</g>
</g>
<!-- Node18&#45;&gt;Node9 -->
<g id="edge32_Node000018_Node000009" class="edge">
<title>Node18&#45;&gt;Node9</title>
<g id="a_edge32_Node000018_Node000009"><a xlink:title=" ">
<path fill="none" stroke="#63b8ff" d="M231.97,-372.14C245.01,-332.22 284,-223.93 344,-151.62 356.87,-136.11 374.36,-122.25 389.92,-111.59"/>
<polygon fill="#63b8ff" stroke="#63b8ff" points="391.63,-114.65 398.03,-106.21 387.76,-108.82 391.63,-114.65"/>
</a>
</g>
</g>
<!-- Node19 -->
<g id="Node000019" class="node">
<title>Node19</title>
<g id="a_Node000019"><a xlink:href="classCarlaString.html#a61028a053be9c26c1a71a1395d208d1d" target="_top" xlink:title=" ">
<polygon fill="white" stroke="#666666" points="823.62,-631.25 731.12,-631.25 731.12,-612 823.62,-612 823.62,-631.25"/>
<text xml:space="preserve" text-anchor="middle" x="777.38" y="-617.75" font-family="Helvetica,sans-Serif" font-size="10.00">CarlaString::buffer</text>
</a>
</g>
</g>
<!-- Node18&#45;&gt;Node19 -->
<g id="edge14_Node000018_Node000019" class="edge">
<title>Node18&#45;&gt;Node19</title>
<g id="a_edge14_Node000018_Node000019"><a xlink:title=" ">
<path fill="none" stroke="#63b8ff" d="M280.68,-391.6C290.97,-394.72 300.78,-399.73 308,-407.62 378.72,-484.95 264.45,-572.42 344,-640.62 398.84,-687.65 615.25,-653.31 719.56,-633.31"/>
<polygon fill="#63b8ff" stroke="#63b8ff" points="720.17,-636.75 729.32,-631.41 718.83,-629.88 720.17,-636.75"/>
</a>
</g>
</g>
<!-- Node20 -->
<g id="Node000020" class="node">
<title>Node20</title>
<g id="a_Node000020"><a xlink:href="group__CarlaUtilsAPI.html#gaaddd1f44b80d5e2f0596b5b97103920e" target="_top" xlink:title=" ">
<polygon fill="white" stroke="#666666" points="489,-519.88 365.75,-519.88 365.75,-489.38 489,-489.38 489,-519.88"/>
<text xml:space="preserve" text-anchor="start" x="373.75" y="-506.38" font-family="Helvetica,sans-Serif" font-size="10.00">carla_get_cached_plugin</text>
<text xml:space="preserve" text-anchor="middle" x="427.38" y="-495.12" font-family="Helvetica,sans-Serif" font-size="10.00">_count</text>
</a>
</g>
</g>
<!-- Node18&#45;&gt;Node20 -->
<g id="edge15_Node000018_Node000020" class="edge">
<title>Node18&#45;&gt;Node20</title>
<g id="a_edge15_Node000018_Node000020"><a xlink:title=" ">
<path fill="none" stroke="#63b8ff" d="M242.36,-403.05C263.43,-423.55 303.47,-459.64 344,-480.62 347.48,-482.43 351.11,-484.11 354.83,-485.68"/>
<polygon fill="#63b8ff" stroke="#63b8ff" points="353.48,-488.91 364.07,-489.28 356.02,-482.39 353.48,-488.91"/>
</a>
</g>
</g>
<!-- Node21 -->
<g id="Node000021" class="node">
<title>Node21</title>
<g id="a_Node000021"><a xlink:href="group__CarlaUtilsAPI.html#gae9a42fef234090ae15707e5c7d429e8d" target="_top" xlink:title=" ">
<polygon fill="white" stroke="#666666" points="499.5,-471.25 355.25,-471.25 355.25,-452 499.5,-452 499.5,-471.25"/>
<text xml:space="preserve" text-anchor="middle" x="427.38" y="-457.75" font-family="Helvetica,sans-Serif" font-size="10.00">carla_get_cached_plugin_info</text>
</a>
</g>
</g>
<!-- Node18&#45;&gt;Node21 -->
<g id="edge16_Node000018_Node000021" class="edge">
<title>Node18&#45;&gt;Node21</title>
<g id="a_edge16_Node000018_Node000021"><a xlink:title=" ">
<path fill="none" stroke="#63b8ff" d="M255.16,-403.34C278.37,-415.78 312.51,-432.8 344,-443.62 349.4,-445.48 355.07,-447.19 360.79,-448.75"/>
<polygon fill="#63b8ff" stroke="#63b8ff" points="359.8,-452.11 370.36,-451.2 361.54,-445.33 359.8,-452.11"/>
</a>
</g>
</g>
<!-- Node22 -->
<g id="Node000022" class="node">
<title>Node22</title>
<g id="a_Node000022"><a xlink:href="PluginDiscovery_8cpp.html#a5923d5140afc0f528e31dc2ff8a456d6" target="_top" xlink:title=" ">
<polygon fill="white" stroke="#666666" points="465.75,-416.25 389,-416.25 389,-397 465.75,-397 465.75,-416.25"/>
<text xml:space="preserve" text-anchor="middle" x="427.38" y="-402.75" font-family="Helvetica,sans-Serif" font-size="10.00">findWinePrefix</text>
</a>
</g>
</g>
<!-- Node18&#45;&gt;Node22 -->
<g id="edge19_Node000018_Node000022" class="edge">
<title>Node18&#45;&gt;Node22</title>
<g id="a_edge19_Node000018_Node000022"><a xlink:title=" ">
<path fill="none" stroke="#63b8ff" d="M280.52,-392.72C310.64,-395.59 348.01,-399.15 377.38,-401.95"/>
<polygon fill="#63b8ff" stroke="#63b8ff" points="376.83,-405.42 387.11,-402.88 377.49,-398.45 376.83,-405.42"/>
</a>
</g>
</g>
<!-- Node23 -->
<g id="Node000023" class="node">
<title>Node23</title>
<g id="a_Node000023"><a xlink:href="classwater_1_1File.html#abc3f6bb6f4dc73510452e61e880f0b10" target="_top" xlink:title=" ">
<polygon fill="white" stroke="#666666" points="497.62,-379.25 357.12,-379.25 357.12,-360 497.62,-360 497.62,-379.25"/>
<text xml:space="preserve" text-anchor="middle" x="427.38" y="-365.75" font-family="Helvetica,sans-Serif" font-size="10.00">water::File::getFullPathName</text>
</a>
</g>
</g>
<!-- Node18&#45;&gt;Node23 -->
<g id="edge21_Node000018_Node000023" class="edge">
<title>Node18&#45;&gt;Node23</title>
<g id="a_edge21_Node000018_Node000023"><a xlink:title=" ">
<path fill="none" stroke="#63b8ff" d="M280.52,-382.8C300.45,-381 323.55,-378.91 345.4,-376.94"/>
<polygon fill="#63b8ff" stroke="#63b8ff" points="345.54,-380.44 355.19,-376.06 344.91,-373.47 345.54,-380.44"/>
</a>
</g>
</g>
<!-- Node24 -->
<g id="Node000024" class="node">
<title>Node24</title>
<g id="a_Node000024"><a xlink:href="structCarlaPluginDiscoveryOptions.html#ad40a7b93d8b2aca813d7413e456ff010" target="_top" xlink:title=" ">
<polygon fill="white" stroke="#666666" points="498.38,-341.88 356.38,-341.88 356.38,-311.38 498.38,-311.38 498.38,-341.88"/>
<text xml:space="preserve" text-anchor="start" x="364.38" y="-328.38" font-family="Helvetica,sans-Serif" font-size="10.00">CarlaPluginDiscoveryOptions</text>
<text xml:space="preserve" text-anchor="middle" x="427.38" y="-317.12" font-family="Helvetica,sans-Serif" font-size="10.00">::getInstance</text>
</a>
</g>
</g>
<!-- Node18&#45;&gt;Node24 -->
<g id="edge22_Node000018_Node000024" class="edge">
<title>Node18&#45;&gt;Node24</title>
<g id="a_edge22_Node000018_Node000024"><a xlink:title=" ">
<path fill="none" stroke="#63b8ff" d="M275.95,-371.89C296.87,-365.22 321.6,-357.43 344,-350.62 349.47,-348.96 355.15,-347.26 360.86,-345.56"/>
<polygon fill="#63b8ff" stroke="#63b8ff" points="361.77,-348.94 370.37,-342.76 359.79,-342.23 361.77,-348.94"/>
</a>
</g>
</g>
<!-- Node25 -->
<g id="Node000025" class="node">
<title>Node25</title>
<g id="a_Node000025"><a xlink:href="CarlaBackendUtils_8hpp.html#a05882f4999cd3adbe41f5dae69e2ddcb" target="_top" xlink:title=" ">
<polygon fill="white" stroke="#666666" points="484.88,-256.25 369.88,-256.25 369.88,-237 484.88,-237 484.88,-256.25"/>
<text xml:space="preserve" text-anchor="middle" x="427.38" y="-242.75" font-family="Helvetica,sans-Serif" font-size="10.00">getPluginTypeAsString</text>
</a>
</g>
</g>
<!-- Node18&#45;&gt;Node25 -->
<g id="edge23_Node000018_Node000025" class="edge">
<title>Node18&#45;&gt;Node25</title>
<g id="a_edge23_Node000018_Node000025"><a xlink:title=" ">
<path fill="none" stroke="#63b8ff" d="M237.27,-371.95C255.34,-345.4 295.75,-291.81 344,-264.62 348.7,-261.98 353.74,-259.72 358.95,-257.8"/>
<polygon fill="#63b8ff" stroke="#63b8ff" points="359.9,-261.17 368.34,-254.76 357.75,-254.51 359.9,-261.17"/>
</a>
</g>
</g>
<!-- Node28 -->
<g id="Node000028" class="node">
<title>Node28</title>
<g id="a_Node000028"><a xlink:href="classFile.html#af360709dded1a3d7b4a4c23f07fc33fd" target="_top" xlink:title=" ">
<polygon fill="white" stroke="#666666" points="487.12,-293.25 367.62,-293.25 367.62,-274 487.12,-274 487.12,-293.25"/>
<text xml:space="preserve" text-anchor="middle" x="427.38" y="-279.75" font-family="Helvetica,sans-Serif" font-size="10.00">File::getSpecialLocation</text>
</a>
</g>
</g>
<!-- Node18&#45;&gt;Node28 -->
<g id="edge28_Node000018_Node000028" class="edge">
<title>Node18&#45;&gt;Node28</title>
<g id="a_edge28_Node000018_Node000028"><a xlink:title=" ">
<path fill="none" stroke="#63b8ff" d="M243.93,-371.96C265.47,-352.74 304.73,-320.53 344,-302.62 348.56,-300.55 353.36,-298.69 358.26,-297.02"/>
<polygon fill="#63b8ff" stroke="#63b8ff" points="359.13,-300.42 367.66,-294.13 357.07,-293.73 359.13,-300.42"/>
</a>
</g>
</g>
<!-- Node29 -->
<g id="Node000029" class="node">
<title>Node29</title>
<g id="a_Node000029"><a xlink:href="classString.html#ab31a36bda8c789ba3c0ed37bb16c978c" target="_top" xlink:title=" ">
<polygon fill="white" stroke="#666666" points="467.62,-180.25 387.12,-180.25 387.12,-161 467.62,-161 467.62,-180.25"/>
<text xml:space="preserve" text-anchor="middle" x="427.38" y="-166.75" font-family="Helvetica,sans-Serif" font-size="10.00">String::isEmpty</text>
</a>
</g>
</g>
<!-- Node18&#45;&gt;Node29 -->
<g id="edge29_Node000018_Node000029" class="edge">
<title>Node18&#45;&gt;Node29</title>
<g id="a_edge29_Node000018_Node000029"><a xlink:title=" ">
<path fill="none" stroke="#63b8ff" d="M232.16,-371.92C244.76,-335.12 281.24,-242.82 344,-194.62 353.21,-187.55 364.46,-182.56 375.65,-179.03"/>
<polygon fill="#63b8ff" stroke="#63b8ff" points="376.56,-182.41 385.27,-176.38 374.7,-175.66 376.56,-182.41"/>
</a>
</g>
</g>
<!-- Node30 -->
<g id="Node000030" class="node">
<title>Node30</title>
<g id="a_Node000030"><a xlink:href="classCarlaString.html#a135c492ea56dc908273b5004e244b5a2" target="_top" xlink:title=" ">
<polygon fill="white" stroke="#666666" points="486.75,-594.25 368,-594.25 368,-575 486.75,-575 486.75,-594.25"/>
<text xml:space="preserve" text-anchor="middle" x="427.38" y="-580.75" font-family="Helvetica,sans-Serif" font-size="10.00">CarlaString::isNotEmpty</text>
</a>
</g>
</g>
<!-- Node18&#45;&gt;Node30 -->
<g id="edge30_Node000018_Node000030" class="edge">
<title>Node18&#45;&gt;Node30</title>
<g id="a_edge30_Node000018_Node000030"><a xlink:title=" ">
<path fill="none" stroke="#63b8ff" d="M232.59,-403.26C245.75,-438.51 282.74,-524.38 344,-566.62 348.11,-569.46 352.59,-571.86 357.26,-573.89"/>
<polygon fill="#63b8ff" stroke="#63b8ff" points="355.73,-577.05 366.32,-577.24 358.16,-570.49 355.73,-577.05"/>
</a>
</g>
</g>
<!-- Node31 -->
<g id="Node000031" class="node">
<title>Node31</title>
<g id="a_Node000031"><a xlink:href="classString.html#a46001a29fcbd7c867f0f3a42598a1495" target="_top" xlink:title=" ">
<polygon fill="white" stroke="#666666" points="475.5,-557.25 379.25,-557.25 379.25,-538 475.5,-538 475.5,-557.25"/>
<text xml:space="preserve" text-anchor="middle" x="427.38" y="-543.75" font-family="Helvetica,sans-Serif" font-size="10.00">String::isNotEmpty</text>
</a>
</g>
</g>
<!-- Node18&#45;&gt;Node31 -->
<g id="edge31_Node000018_Node000031" class="edge">
<title>Node18&#45;&gt;Node31</title>
<g id="a_edge31_Node000018_Node000031"><a xlink:title=" ">
<path fill="none" stroke="#63b8ff" d="M235.39,-403.19C251.86,-432.63 291.77,-496.41 344,-528.62 351.3,-533.13 359.55,-536.56 367.95,-539.18"/>
<polygon fill="#63b8ff" stroke="#63b8ff" points="366.97,-542.54 377.54,-541.79 368.8,-535.79 366.97,-542.54"/>
</a>
</g>
</g>
<!-- Node32 -->
<g id="Node000032" class="node">
<title>Node32</title>
<g id="a_Node000032"><a xlink:href="classCarlaPipeServer.html#a69bfc04d090d04b46e0af15015f4e6d4" target="_top" xlink:title=" ">
<polygon fill="white" stroke="#666666" points="492.38,-717.88 362.38,-717.88 362.38,-687.38 492.38,-687.38 492.38,-717.88"/>
<text xml:space="preserve" text-anchor="start" x="370.38" y="-704.38" font-family="Helvetica,sans-Serif" font-size="10.00">CarlaPipeServer::startPipe</text>
<text xml:space="preserve" text-anchor="middle" x="427.38" y="-693.12" font-family="Helvetica,sans-Serif" font-size="10.00">Server</text>
</a>
</g>
</g>
<!-- Node18&#45;&gt;Node32 -->
<g id="edge33_Node000018_Node000032" class="edge">
<title>Node18&#45;&gt;Node32</title>
<g id="a_edge33_Node000018_Node000032"><a xlink:title=" ">
<path fill="none" stroke="#63b8ff" d="M234.15,-403.01C248.58,-434.81 282.38,-510.2 308,-574.62 325.3,-618.13 310.72,-640.69 344,-673.62 346.83,-676.43 349.95,-678.96 353.27,-681.25"/>
<polygon fill="#63b8ff" stroke="#63b8ff" points="351.39,-684.21 361.78,-686.31 354.97,-678.19 351.39,-684.21"/>
</a>
</g>
</g>
<!-- Node22&#45;&gt;Node22 -->
<g id="edge20_Node000022_Node000022" class="edge">
<title>Node22&#45;&gt;Node22</title>
<g id="a_edge20_Node000022_Node000022"><a xlink:title=" ">
<path fill="none" stroke="#63b8ff" d="M398.33,-416.54C385.09,-425.15 394.77,-434.25 427.38,-434.25 446.23,-434.25 457.41,-431.21 460.94,-426.98"/>
<polygon fill="#63b8ff" stroke="#63b8ff" points="464.21,-425.71 457.02,-417.93 457.78,-428.49 464.21,-425.71"/>
</a>
</g>
</g>
<!-- Node26 -->
<g id="Node000026" class="node">
<title>Node26</title>
<g id="a_Node000026"><a xlink:href="CarlaUtils_8hpp.html#a941976468e634e751aeeb433f1b5708c" target="_top" xlink:title=" ">
<polygon fill="white" stroke="#666666" points="810.88,-537.25 743.88,-537.25 743.88,-518 810.88,-518 810.88,-537.25"/>
<text xml:space="preserve" text-anchor="middle" x="777.38" y="-523.75" font-family="Helvetica,sans-Serif" font-size="10.00">carla_stderr</text>
</a>
</g>
</g>
<!-- Node25&#45;&gt;Node26 -->
<g id="edge24_Node000025_Node000026" class="edge">
<title>Node25&#45;&gt;Node26</title>
<g id="a_edge24_Node000025_Node000026"><a xlink:title=" ">
<path fill="none" stroke="#63b8ff" d="M484.99,-255.2C493.86,-257.61 502.73,-260.69 510.75,-264.62 630.95,-323.63 729.94,-458.36 763.83,-508.42"/>
<polygon fill="#63b8ff" stroke="#63b8ff" points="760.76,-510.13 769.22,-516.51 766.58,-506.24 760.76,-510.13"/>
</a>
</g>
</g>
<!-- Node27 -->
<g id="Node000027" class="node">
<title>Node27</title>
<g id="a_Node000027"><a xlink:href="CarlaBackendUtils_8hpp.html#a81f8d13a5c9076e96e6441a88a91f5eb" target="_top" xlink:title=" ">
<polygon fill="white" stroke="#666666" points="653.88,-434.25 571.88,-434.25 571.88,-415 653.88,-415 653.88,-434.25"/>
<text xml:space="preserve" text-anchor="middle" x="612.88" y="-420.75" font-family="Helvetica,sans-Serif" font-size="10.00">PluginType2Str</text>
</a>
</g>
</g>
<!-- Node25&#45;&gt;Node27 -->
<g id="edge26_Node000025_Node000027" class="edge">
<title>Node25&#45;&gt;Node27</title>
<g id="a_edge26_Node000025_Node000027"><a xlink:title=" ">
<path fill="none" stroke="#63b8ff" d="M485.36,-252.87C494.37,-255.56 503.2,-259.33 510.75,-264.62 536.96,-282.99 581.82,-366.03 601.79,-404.7"/>
<polygon fill="#63b8ff" stroke="#63b8ff" points="598.57,-406.09 606.24,-413.4 604.8,-402.9 598.57,-406.09"/>
</a>
</g>
</g>
<!-- Node26&#45;&gt;Node4 -->
<g id="edge25_Node000026_Node000004" class="edge">
<title>Node26&#45;&gt;Node4</title>
<g id="a_edge25_Node000026_Node000004"><a xlink:title=" ">
<path fill="none" stroke="#63b8ff" d="M787.31,-537.37C799.82,-551.27 822.92,-577.85 839.75,-602.62 865.41,-640.41 890.13,-687.9 903.3,-714.39"/>
<polygon fill="#63b8ff" stroke="#63b8ff" points="900.14,-715.88 907.69,-723.31 906.42,-712.79 900.14,-715.88"/>
</a>
</g>
</g>
<!-- Node27&#45;&gt;Node26 -->
<g id="edge27_Node000027_Node000026" class="edge">
<title>Node27&#45;&gt;Node26</title>
<g id="a_edge27_Node000027_Node000026"><a xlink:title=" ">
<path fill="none" stroke="#63b8ff" d="M629.75,-434.69C657.98,-452.58 717.1,-490.06 751.02,-511.55"/>
<polygon fill="#63b8ff" stroke="#63b8ff" points="749.07,-514.46 759.39,-516.86 752.82,-508.55 749.07,-514.46"/>
</a>
</g>
</g>
<!-- Node33 -->
<g id="Node000033" class="node">
<title>Node33</title>
<g id="a_Node000033"><a xlink:href="CarlaUtils_8hpp.html#a854f1ba7444a257e77d0821582d10281" target="_top" xlink:title=" ">
<polygon fill="white" stroke="#666666" points="656.12,-781.25 569.62,-781.25 569.62,-762 656.12,-762 656.12,-781.25"/>
<text xml:space="preserve" text-anchor="middle" x="612.88" y="-767.75" font-family="Helvetica,sans-Serif" font-size="10.00">carla_zeroStruct</text>
</a>
</g>
</g>
<!-- Node32&#45;&gt;Node33 -->
<g id="edge34_Node000032_Node000033" class="edge">
<title>Node32&#45;&gt;Node33</title>
<g id="a_edge34_Node000032_Node000033"><a xlink:title=" ">
<path fill="none" stroke="#63b8ff" d="M490.92,-718.24C497.75,-720.71 504.49,-723.49 510.75,-726.62 528.64,-735.57 528.8,-744.81 546.75,-753.62 550.5,-755.47 554.46,-757.14 558.51,-758.67"/>
<polygon fill="#63b8ff" stroke="#63b8ff" points="557.31,-761.95 567.9,-761.86 559.56,-755.32 557.31,-761.95"/>
</a>
</g>
</g>
<!-- Node34 -->
<g id="Node000034" class="node">
<title>Node34</title>
<g id="a_Node000034"><a xlink:href="swell_8cpp.html#af7405eaaf8410a85ee63a77c22234095" target="_top" xlink:title=" ">
<polygon fill="#fff0f0" stroke="red" points="648.62,-932.25 577.12,-932.25 577.12,-913 648.62,-913 648.62,-932.25"/>
<text xml:space="preserve" text-anchor="middle" x="612.88" y="-918.75" font-family="Helvetica,sans-Serif" font-size="10.00">CloseHandle</text>
</a>
</g>
</g>
<!-- Node32&#45;&gt;Node34 -->
<g id="edge35_Node000032_Node000034" class="edge">
<title>Node32&#45;&gt;Node34</title>
<g id="a_edge35_Node000032_Node000034"><a xlink:title=" ">
<path fill="none" stroke="#63b8ff" d="M492.76,-713.59C499.5,-716.89 505.71,-721.14 510.75,-726.62 565.38,-786.04 491.71,-845.59 546.75,-904.62 551.9,-910.15 558.59,-914.04 565.7,-916.76"/>
<polygon fill="#63b8ff" stroke="#63b8ff" points="564.66,-920.1 575.24,-919.62 566.67,-913.39 564.66,-920.1"/>
</a>
</g>
</g>
<!-- Node39 -->
<g id="Node000039" class="node">
<title>Node39</title>
<g id="a_Node000039"><a xlink:href="classCarlaPipeCommon.html#a85e7b7ba872885b487b0e7bc0677754d" target="_top" xlink:title=" ">
<polygon fill="white" stroke="#666666" points="670,-744.25 555.75,-744.25 555.75,-725 670,-725 670,-744.25"/>
<text xml:space="preserve" text-anchor="middle" x="612.88" y="-730.75" font-family="Helvetica,sans-Serif" font-size="10.00">CarlaPipeCommon::fail</text>
</a>
</g>
</g>
<!-- Node32&#45;&gt;Node39 -->
<g id="edge36_Node000032_Node000039" class="edge">
<title>Node32&#45;&gt;Node39</title>
<g id="a_edge36_Node000032_Node000039"><a xlink:title=" ">
<path fill="none" stroke="#63b8ff" d="M492.81,-713.86C509.59,-716.79 527.7,-719.95 544.61,-722.9"/>
<polygon fill="#63b8ff" stroke="#63b8ff" points="543.59,-726.27 554.04,-724.54 544.79,-719.37 543.59,-726.27"/>
</a>
</g>
</g>
<!-- Node41 -->
<g id="Node000041" class="node">
<title>Node41</title>
<g id="a_Node000041"><a xlink:href="utils_2CarlaPipeUtils_8cpp.html#acec7104938581f3a54564bcd6defb469" target="_top" xlink:title=" ">
<polygon fill="white" stroke="#666666" points="648.62,-707.25 577.12,-707.25 577.12,-688 648.62,-688 648.62,-707.25"/>
<text xml:space="preserve" text-anchor="middle" x="612.88" y="-693.75" font-family="Helvetica,sans-Serif" font-size="10.00">startProcess</text>
</a>
</g>
</g>
<!-- Node32&#45;&gt;Node41 -->
<g id="edge39_Node000032_Node000041" class="edge">
<title>Node32&#45;&gt;Node41</title>
<g id="a_edge39_Node000032_Node000041"><a xlink:title=" ">
<path fill="none" stroke="#63b8ff" d="M492.81,-700.87C516.71,-700.22 543.33,-699.49 565.32,-698.89"/>
<polygon fill="#63b8ff" stroke="#63b8ff" points="565.28,-702.4 575.18,-698.62 565.09,-695.4 565.28,-702.4"/>
</a>
</g>
</g>
<!-- Node42 -->
<g id="Node000042" class="node">
<title>Node42</title>
<g id="a_Node000042"><a xlink:href="utils_2CarlaPipeUtils_8cpp.html#af1b4640e81dbe163b9b4b31b6464451d" target="_top" xlink:title=" ">
<polygon fill="#fff0f0" stroke="red" points="663.62,-556.25 562.12,-556.25 562.12,-537 663.62,-537 663.62,-556.25"/>
<text xml:space="preserve" text-anchor="middle" x="612.88" y="-542.75" font-family="Helvetica,sans-Serif" font-size="10.00">waitForChildToStop</text>
</a>
</g>
</g>
<!-- Node32&#45;&gt;Node42 -->
<g id="edge42_Node000032_Node000042" class="edge">
<title>Node32&#45;&gt;Node42</title>
<g id="a_edge42_Node000032_Node000042"><a xlink:title=" ">
<path fill="none" stroke="#63b8ff" d="M455.57,-686.96C473.08,-675.81 495.37,-659.49 510.75,-640.62 534.37,-611.66 518.14,-588.68 546.75,-564.62 548.43,-563.21 550.22,-561.91 552.08,-560.7"/>
<polygon fill="#63b8ff" stroke="#63b8ff" points="553.4,-563.97 560.61,-556.21 550.14,-557.77 553.4,-563.97"/>
</a>
</g>
</g>
<!-- Node44 -->
<g id="Node000044" class="node">
<title>Node44</title>
<g id="a_Node000044"><a xlink:href="utils_2CarlaPipeUtils_8cpp.html#a640712b30e2a20042ca28a0e9a431429" target="_top" xlink:title=" ">
<polygon fill="#fff0f0" stroke="red" points="679,-593.25 546.75,-593.25 546.75,-574 679,-574 679,-593.25"/>
<text xml:space="preserve" text-anchor="middle" x="612.88" y="-579.75" font-family="Helvetica,sans-Serif" font-size="10.00">waitForClientFirstMessage</text>
</a>
</g>
</g>
<!-- Node32&#45;&gt;Node44 -->
<g id="edge46_Node000032_Node000044" class="edge">
<title>Node32&#45;&gt;Node44</title>
<g id="a_edge46_Node000032_Node000044"><a xlink:title=" ">
<path fill="none" stroke="#63b8ff" d="M452.36,-687.07C487.2,-664.48 551.49,-622.79 586.88,-599.83"/>
<polygon fill="#63b8ff" stroke="#63b8ff" points="588.71,-602.82 595.19,-594.44 584.9,-596.95 588.71,-602.82"/>
</a>
</g>
</g>
<!-- Node40 -->
<g id="Node000040" class="node">
<title>Node40</title>
<g id="a_Node000040"><a xlink:href="CarlaUtils_8hpp.html#adcbd5a9383b671ccea31bef34e761928" target="_top" xlink:title=" ">
<polygon fill="white" stroke="#666666" points="813.5,-744.25 741.25,-744.25 741.25,-725 813.5,-725 813.5,-744.25"/>
<text xml:space="preserve" text-anchor="middle" x="777.38" y="-730.75" font-family="Helvetica,sans-Serif" font-size="10.00">carla_stderr2</text>
</a>
</g>
</g>
<!-- Node39&#45;&gt;Node40 -->
<g id="edge37_Node000039_Node000040" class="edge">
<title>Node39&#45;&gt;Node40</title>
<g id="a_edge37_Node000039_Node000040"><a xlink:title=" ">
<path fill="none" stroke="#63b8ff" d="M670.25,-734.62C689.6,-734.62 711.02,-734.62 729.52,-734.62"/>
<polygon fill="#63b8ff" stroke="#63b8ff" points="729.4,-738.13 739.4,-734.63 729.4,-731.13 729.4,-738.13"/>
</a>
</g>
</g>
<!-- Node40&#45;&gt;Node4 -->
<g id="edge38_Node000040_Node000004" class="edge">
<title>Node40&#45;&gt;Node4</title>
<g id="a_edge38_Node000040_Node000004"><a xlink:title=" ">
<path fill="none" stroke="#63b8ff" d="M813.78,-734.62C829.24,-734.62 847.62,-734.62 864.34,-734.62"/>
<polygon fill="#63b8ff" stroke="#63b8ff" points="864.09,-738.13 874.09,-734.63 864.09,-731.13 864.09,-738.13"/>
</a>
</g>
</g>
<!-- Node41&#45;&gt;Node19 -->
<g id="edge40_Node000041_Node000019" class="edge">
<title>Node41&#45;&gt;Node19</title>
<g id="a_edge40_Node000041_Node000019"><a xlink:title=" ">
<path fill="none" stroke="#63b8ff" d="M643.72,-687.6C654.92,-683.58 667.68,-678.71 679,-673.62 703.49,-662.64 730.33,-648.11 749.62,-637.2"/>
<polygon fill="#63b8ff" stroke="#63b8ff" points="751.23,-640.31 758.18,-632.31 747.76,-634.23 751.23,-640.31"/>
</a>
</g>
</g>
<!-- Node41&#45;&gt;Node40 -->
<g id="edge41_Node000041_Node000040" class="edge">
<title>Node41&#45;&gt;Node40</title>
<g id="a_edge41_Node000041_Node000040"><a xlink:title=" ">
<path fill="none" stroke="#63b8ff" d="M648.74,-705.56C672.46,-710.96 704.11,-718.17 729.96,-724.06"/>
<polygon fill="#63b8ff" stroke="#63b8ff" points="729.01,-727.43 739.54,-726.24 730.56,-720.6 729.01,-727.43"/>
</a>
</g>
</g>
<!-- Node42&#45;&gt;Node2 -->
<g id="edge44_Node000042_Node000002" class="edge">
<title>Node42&#45;&gt;Node2</title>
<g id="a_edge44_Node000042_Node000002"><a xlink:title=" ">
<path fill="none" stroke="#63b8ff" d="M621.71,-536.69C647.19,-504.4 727.92,-402.05 761.5,-359.48"/>
<polygon fill="#63b8ff" stroke="#63b8ff" points="764.23,-361.67 767.68,-351.65 758.74,-357.33 764.23,-361.67"/>
</a>
</g>
</g>
<!-- Node42&#45;&gt;Node19 -->
<g id="edge43_Node000042_Node000019" class="edge">
<title>Node42&#45;&gt;Node19</title>
<g id="a_edge43_Node000042_Node000019"><a xlink:title=" ">
<path fill="none" stroke="#63b8ff" d="M656.46,-556.67C664.08,-558.96 671.87,-561.61 679,-564.62 705.46,-575.8 733.56,-592.88 752.74,-605.43"/>
<polygon fill="#63b8ff" stroke="#63b8ff" points="750.63,-608.23 760.89,-610.85 754.51,-602.4 750.63,-608.23"/>
</a>
</g>
</g>
<!-- Node42&#45;&gt;Node26 -->
<g id="edge45_Node000042_Node000026" class="edge">
<title>Node42&#45;&gt;Node26</title>
<g id="a_edge45_Node000042_Node000026"><a xlink:title=" ">
<path fill="none" stroke="#63b8ff" d="M663.96,-540.77C685.83,-538.21 711.26,-535.24 732.39,-532.77"/>
<polygon fill="#63b8ff" stroke="#63b8ff" points="732.61,-536.27 742.14,-531.63 731.8,-529.31 732.61,-536.27"/>
</a>
</g>
</g>
<!-- Node44&#45;&gt;Node2 -->
<g id="edge48_Node000044_Node000002" class="edge">
<title>Node44&#45;&gt;Node2</title>
<g id="a_edge48_Node000044_Node000002"><a xlink:title=" ">
<path fill="none" stroke="#63b8ff" d="M666.85,-573.54C671.23,-571.39 675.37,-568.78 679,-565.62 711.71,-537.17 754.02,-411.54 769.94,-361.39"/>
<polygon fill="#63b8ff" stroke="#63b8ff" points="773.21,-362.66 772.87,-352.07 766.53,-360.56 773.21,-362.66"/>
</a>
</g>
</g>
<!-- Node44&#45;&gt;Node19 -->
<g id="edge47_Node000044_Node000019" class="edge">
<title>Node44&#45;&gt;Node19</title>
<g id="a_edge47_Node000044_Node000019"><a xlink:title=" ">
<path fill="none" stroke="#63b8ff" d="M657,-593.71C677,-598.39 700.99,-604 722.21,-608.96"/>
<polygon fill="#63b8ff" stroke="#63b8ff" points="721.33,-612.35 731.86,-611.22 722.92,-605.53 721.33,-612.35"/>
</a>
</g>
</g>
<!-- Node44&#45;&gt;Node26 -->
<g id="edge49_Node000044_Node000026" class="edge">
<title>Node44&#45;&gt;Node26</title>
<g id="a_edge49_Node000044_Node000026"><a xlink:title=" ">
<path fill="none" stroke="#63b8ff" d="M652.99,-573.52C661.6,-571.09 670.65,-568.4 679,-565.62 700.21,-558.58 723.54,-549.52 742.05,-542.01"/>
<polygon fill="#63b8ff" stroke="#63b8ff" points="743.29,-545.29 751.21,-538.26 740.63,-538.81 743.29,-545.29"/>
</a>
</g>
</g>
<!-- Node45&#45;&gt;Node33 -->
<g id="edge54_Node000045_Node000033" class="edge">
<title>Node45&#45;&gt;Node33</title>
<g id="a_edge54_Node000045_Node000033"><a xlink:title=" ">
<path fill="none" stroke="#63b8ff" d="M291.24,-812.41C308.33,-808.91 326.82,-805.38 344,-802.62 417.86,-790.79 503.87,-781.65 558.09,-776.46"/>
<polygon fill="#63b8ff" stroke="#63b8ff" points="558.37,-779.95 567.99,-775.52 557.71,-772.98 558.37,-779.95"/>
</a>
</g>
</g>
<!-- Node45&#45;&gt;Node34 -->
<g id="edge55_Node000045_Node000034" class="edge">
<title>Node45&#45;&gt;Node34</title>
<g id="a_edge55_Node000045_Node000034"><a xlink:title=" ">
<path fill="none" stroke="#63b8ff" d="M237.46,-842.1C255.53,-867.58 295.56,-917.42 344,-936.62 418.57,-966.2 514.06,-949.64 568.56,-935.63"/>
<polygon fill="#63b8ff" stroke="#63b8ff" points="569.33,-939.05 578.09,-933.09 567.52,-932.29 569.33,-939.05"/>
</a>
</g>
</g>
<!-- Node46 -->
<g id="Node000046" class="node">
<title>Node46</title>
<g id="a_Node000046"><a xlink:href="classCarlaPipeCommon.html#a5df92d6e481ffcdc208a159b47eac9e7" target="_top" xlink:title=" ">
<polygon fill="white" stroke="#666666" points="500.62,-841.88 354.12,-841.88 354.12,-811.38 500.62,-811.38 500.62,-841.88"/>
<text xml:space="preserve" text-anchor="start" x="362.12" y="-828.38" font-family="Helvetica,sans-Serif" font-size="10.00">CarlaPipeCommon::_writeMsg</text>
<text xml:space="preserve" text-anchor="middle" x="427.38" y="-817.12" font-family="Helvetica,sans-Serif" font-size="10.00">Buffer</text>
</a>
</g>
</g>
<!-- Node45&#45;&gt;Node46 -->
<g id="edge51_Node000045_Node000046" class="edge">
<title>Node45&#45;&gt;Node46</title>
<g id="a_edge51_Node000045_Node000046"><a xlink:title=" ">
<path fill="none" stroke="#63b8ff" d="M290.99,-826.62C307.42,-826.62 325.36,-826.62 342.63,-826.62"/>
<polygon fill="#63b8ff" stroke="#63b8ff" points="342.36,-830.13 352.36,-826.63 342.36,-823.13 342.36,-830.13"/>
</a>
</g>
</g>
<!-- Node48 -->
<g id="Node000048" class="node">
<title>Node48</title>
<g id="a_Node000048"><a xlink:href="classCarlaPipeServer.html#aa72bfd184267552147862a6fe86a1b47" target="_top" xlink:title=" ">
<polygon fill="white" stroke="#666666" points="494.25,-927.88 360.5,-927.88 360.5,-897.38 494.25,-897.38 494.25,-927.88"/>
<text xml:space="preserve" text-anchor="start" x="368.5" y="-914.38" font-family="Helvetica,sans-Serif" font-size="10.00">CarlaPipeServer::closePipe</text>
<text xml:space="preserve" text-anchor="middle" x="427.38" y="-903.12" font-family="Helvetica,sans-Serif" font-size="10.00">Server</text>
</a>
</g>
</g>
<!-- Node45&#45;&gt;Node48 -->
<g id="edge56_Node000045_Node000048" class="edge">
<title>Node45&#45;&gt;Node48</title>
<g id="a_edge56_Node000045_Node000048"><a xlink:title=" ">
<path fill="none" stroke="#63b8ff" d="M252.85,-842.24C276.05,-855.84 311.44,-875.41 344,-888.62 348,-890.25 352.15,-891.81 356.37,-893.31"/>
<polygon fill="#63b8ff" stroke="#63b8ff" points="354.9,-896.51 365.5,-896.4 357.15,-889.88 354.9,-896.51"/>
</a>
</g>
</g>
<!-- Node49 -->
<g id="Node000049" class="node">
<title>Node49</title>
<g id="a_Node000049"><a xlink:href="classCarlaPipeCommon.html#ac20c19c10c12a701f6eaf20527ddde43" target="_top" xlink:title=" ">
<polygon fill="white" stroke="#666666" points="510.75,-879.25 344,-879.25 344,-860 510.75,-860 510.75,-879.25"/>
<text xml:space="preserve" text-anchor="middle" x="427.38" y="-865.75" font-family="Helvetica,sans-Serif" font-size="10.00">CarlaPipeCommon::syncMessages</text>
</a>
</g>
</g>
<!-- Node45&#45;&gt;Node49 -->
<g id="edge58_Node000045_Node000049" class="edge">
<title>Node45&#45;&gt;Node49</title>
<g id="a_edge58_Node000045_Node000049"><a xlink:title=" ">
<path fill="none" stroke="#63b8ff" d="M290.99,-840.41C315.85,-845.77 344.14,-851.88 368.4,-857.11"/>
<polygon fill="#63b8ff" stroke="#63b8ff" points="367.61,-860.52 378.12,-859.21 369.09,-853.68 367.61,-860.52"/>
</a>
</g>
</g>
<!-- Node50 -->
<g id="Node000050" class="node">
<title>Node50</title>
<g id="a_Node000050"><a xlink:href="utils_2CarlaPipeUtils_8cpp.html#aa9f5096178690333ac9e789c5b449bac" target="_top" xlink:title=" ">
<polygon fill="white" stroke="#666666" points="493.12,-631.25 361.62,-631.25 361.62,-612 493.12,-612 493.12,-631.25"/>
<text xml:space="preserve" text-anchor="middle" x="427.38" y="-617.75" font-family="Helvetica,sans-Serif" font-size="10.00">waitForChildToStopOrKillIt</text>
</a>
</g>
</g>
<!-- Node45&#45;&gt;Node50 -->
<g id="edge59_Node000045_Node000050" class="edge">
<title>Node45&#45;&gt;Node50</title>
<g id="a_edge59_Node000045_Node000050"><a xlink:title=" ">
<path fill="none" stroke="#63b8ff" d="M237.09,-811.12C255.79,-782.74 298.41,-721.43 344,-678.62 360.8,-662.85 382.28,-648.14 399.09,-637.61"/>
<polygon fill="#63b8ff" stroke="#63b8ff" points="400.88,-640.62 407.58,-632.42 397.22,-634.65 400.88,-640.62"/>
</a>
</g>
</g>
<!-- Node46&#45;&gt;Node40 -->
<g id="edge53_Node000046_Node000040" class="edge">
<title>Node46&#45;&gt;Node40</title>
<g id="a_edge53_Node000046_Node000040"><a xlink:title=" ">
<path fill="none" stroke="#63b8ff" d="M501.11,-823.45C552.07,-819.49 621.14,-810.59 679,-790.62 706.35,-781.19 734.7,-763.89 753.7,-751"/>
<polygon fill="#63b8ff" stroke="#63b8ff" points="755.53,-754 761.74,-745.42 751.53,-748.25 755.53,-754"/>
</a>
</g>
</g>
<!-- Node47 -->
<g id="Node000047" class="node">
<title>Node47</title>
<g id="a_Node000047"><a xlink:href="CarlaUtils_8hpp.html#ac78ad69fd16caf2847fbb0ceca9c9d92" target="_top" xlink:title=" ">
<polygon fill="white" stroke="#666666" points="638.12,-895.25 587.62,-895.25 587.62,-876 638.12,-876 638.12,-895.25"/>
<text xml:space="preserve" text-anchor="middle" x="612.88" y="-881.75" font-family="Helvetica,sans-Serif" font-size="10.00">bool2str</text>
</a>
</g>
</g>
<!-- Node46&#45;&gt;Node47 -->
<g id="edge52_Node000046_Node000047" class="edge">
<title>Node46&#45;&gt;Node47</title>
<g id="a_edge52_Node000046_Node000047"><a xlink:title=" ">
<path fill="none" stroke="#63b8ff" d="M483.43,-842.25C492.58,-844.97 501.95,-847.82 510.75,-850.62 532.8,-857.65 557.33,-866.12 576.71,-872.97"/>
<polygon fill="#63b8ff" stroke="#63b8ff" points="575.45,-876.24 586.04,-876.29 577.79,-869.64 575.45,-876.24"/>
</a>
</g>
</g>
<!-- Node48&#45;&gt;Node34 -->
<g id="edge57_Node000048_Node000034" class="edge">
<title>Node48&#45;&gt;Node34</title>
<g id="a_edge57_Node000048_Node000034"><a xlink:title=" ">
<path fill="none" stroke="#63b8ff" d="M494.62,-916.24C518.01,-917.51 543.8,-918.92 565.22,-920.08"/>
<polygon fill="#63b8ff" stroke="#63b8ff" points="564.94,-923.57 575.12,-920.62 565.32,-916.58 564.94,-923.57"/>
</a>
</g>
</g>
<!-- Node50&#45;&gt;Node19 -->
<g id="edge60_Node000050_Node000019" class="edge">
<title>Node50&#45;&gt;Node19</title>
<g id="a_edge60_Node000050_Node000019"><a xlink:title=" ">
<path fill="none" stroke="#63b8ff" d="M493.42,-621.62C558.39,-621.62 657.25,-621.62 719.27,-621.62"/>
<polygon fill="#63b8ff" stroke="#63b8ff" points="719.26,-625.13 729.26,-621.63 719.26,-618.13 719.26,-625.13"/>
</a>
</g>
</g>
<!-- Node50&#45;&gt;Node26 -->
<g id="edge61_Node000050_Node000026" class="edge">
<title>Node50&#45;&gt;Node26</title>
<g id="a_edge61_Node000050_Node000026"><a xlink:title=" ">
<path fill="none" stroke="#63b8ff" d="M493.5,-613.45C499.71,-610.94 505.59,-607.72 510.75,-603.62 540,-580.36 515.17,-547.61 546.75,-527.62 603.16,-491.93 684.02,-502.93 733.21,-514.81"/>
<polygon fill="#63b8ff" stroke="#63b8ff" points="732.08,-518.14 742.64,-517.21 733.81,-511.35 732.08,-518.14"/>
</a>
</g>
</g>
<!-- Node50&#45;&gt;Node42 -->
<g id="edge62_Node000050_Node000042" class="edge">
<title>Node50&#45;&gt;Node42</title>
<g id="a_edge62_Node000050_Node000042"><a xlink:title=" ">
<path fill="none" stroke="#63b8ff" d="M492.79,-611.62C499.06,-609.46 505.16,-606.83 510.75,-603.62 531.22,-591.9 526.61,-576.9 546.75,-564.62 548.78,-563.38 550.91,-562.23 553.09,-561.15"/>
<polygon fill="#63b8ff" stroke="#63b8ff" points="554.42,-564.38 562.25,-557.24 551.68,-557.95 554.42,-564.38"/>
</a>
</g>
</g>
</g>
</svg>
