<?xml version="1.0" encoding="UTF-8" standalone="no"?>
<!DOCTYPE svg PUBLIC "-//W3C//DTD SVG 1.1//EN"
 "http://www.w3.org/Graphics/SVG/1.1/DTD/svg11.dtd">
<!-- Generated by graphviz version 14.0.2 (0)
 -->
<!-- Title: juce::TextButton::TextButton Pages: 1 -->
<svg width="662pt" height="164pt"
 viewBox="0.00 0.00 662.00 164.00" xmlns="http://www.w3.org/2000/svg" xmlns:xlink="http://www.w3.org/1999/xlink">
<g id="graph0" class="graph" transform="scale(1 1) rotate(0) translate(4 159.88)">
<title>juce::TextButton::TextButton</title>
<!-- Node1 -->
<g id="Node000001" class="node">
<title>Node1</title>
<g id="a_Node000001"><a xlink:title=" ">
<polygon fill="#999999" stroke="#666666" points="137.5,-79.88 0,-79.88 0,-60.62 137.5,-60.62 137.5,-79.88"/>
<text xml:space="preserve" text-anchor="middle" x="68.75" y="-66.38" font-family="Helvetica,sans-Serif" font-size="10.00">juce::TextButton::TextButton</text>
</a>
</g>
</g>
<!-- Node2 -->
<g id="Node000002" class="node">
<title>Node2</title>
<g id="a_Node000002"><a xlink:href="classjuce_1_1Button.html#a513e99910d54725cae8cd8c02c50d14c" target="_top" xlink:title=" ">
<polygon fill="white" stroke="#666666" points="461.25,-107.88 361.25,-107.88 361.25,-88.62 461.25,-88.62 461.25,-107.88"/>
<text xml:space="preserve" text-anchor="middle" x="411.25" y="-94.38" font-family="Helvetica,sans-Serif" font-size="10.00">juce::Button::Button</text>
</a>
</g>
</g>
<!-- Node1&#45;&gt;Node2 -->
<g id="edge1_Node000001_Node000002" class="edge">
<title>Node1&#45;&gt;Node2</title>
<g id="a_edge1_Node000001_Node000002"><a xlink:title=" ">
<path fill="none" stroke="#63b8ff" d="M91.02,-80.27C111.6,-89.38 143.92,-102.13 173.5,-107.25 232.78,-117.5 301.61,-113.1 349.73,-107.44"/>
<polygon fill="#63b8ff" stroke="#63b8ff" points="349.88,-110.95 359.38,-106.25 349.03,-104 349.88,-110.95"/>
</a>
</g>
</g>
<!-- Node5 -->
<g id="Node000005" class="node">
<title>Node5</title>
<g id="a_Node000005"><a xlink:href="classjuce_1_1Button.html#af148fac41f60b6445a894968f5dd8904" target="_top" xlink:title=" ">
<polygon fill="white" stroke="#666666" points="299.38,-24.88 185.12,-24.88 185.12,-5.63 299.38,-5.63 299.38,-24.88"/>
<text xml:space="preserve" text-anchor="middle" x="242.25" y="-11.38" font-family="Helvetica,sans-Serif" font-size="10.00">juce::Button::setTooltip</text>
</a>
</g>
</g>
<!-- Node1&#45;&gt;Node5 -->
<g id="edge7_Node000001_Node000005" class="edge">
<title>Node1&#45;&gt;Node5</title>
<g id="a_edge7_Node000001_Node000005"><a xlink:title=" ">
<path fill="none" stroke="#63b8ff" d="M101.21,-60.16C128.68,-51.35 168.78,-38.49 199.04,-28.79"/>
<polygon fill="#63b8ff" stroke="#63b8ff" points="199.81,-32.22 208.26,-25.83 197.67,-25.55 199.81,-32.22"/>
</a>
</g>
</g>
<!-- Node7 -->
<g id="Node000007" class="node">
<title>Node7</title>
<g id="a_Node000007"><a xlink:href="classjuce_1_1TextButton.html#a337c7c7da2e72bdd83c03a22bc09358e" target="_top" xlink:title=" ">
<polygon fill="white" stroke="#666666" points="311,-79.88 173.5,-79.88 173.5,-60.62 311,-60.62 311,-79.88"/>
<text xml:space="preserve" text-anchor="middle" x="242.25" y="-66.38" font-family="Helvetica,sans-Serif" font-size="10.00">juce::TextButton::TextButton</text>
</a>
</g>
</g>
<!-- Node1&#45;&gt;Node7 -->
<g id="edge10_Node000001_Node000007" class="edge">
<title>Node1&#45;&gt;Node7</title>
<g id="a_edge10_Node000001_Node000007"><a xlink:title=" ">
<path fill="none" stroke="#63b8ff" d="M137.53,-70.25C145.49,-70.25 153.66,-70.25 161.75,-70.25"/>
<polygon fill="#63b8ff" stroke="#63b8ff" points="161.6,-73.75 171.6,-70.25 161.6,-66.75 161.6,-73.75"/>
</a>
</g>
</g>
<!-- Node2&#45;&gt;Node2 -->
<g id="edge2_Node000002_Node000002" class="edge">
<title>Node2&#45;&gt;Node2</title>
<g id="a_edge2_Node000002_Node000002"><a xlink:title=" ">
<path fill="none" stroke="#63b8ff" d="M384.79,-108.16C372.72,-116.77 381.54,-125.88 411.25,-125.88 427.96,-125.88 438.06,-122.99 441.55,-118.94"/>
<polygon fill="#63b8ff" stroke="#63b8ff" points="444.87,-117.83 438.22,-109.59 438.28,-120.18 444.87,-117.83"/>
</a>
</g>
</g>
<!-- Node3 -->
<g id="Node000003" class="node">
<title>Node3</title>
<g id="a_Node000003"><a xlink:href="classjuce_1_1Component.html#a8eca44b2145f084bd354edc8db696ad7" target="_top" xlink:title=" ">
<polygon fill="white" stroke="#666666" points="653.5,-137.88 511.5,-137.88 511.5,-118.62 653.5,-118.62 653.5,-137.88"/>
<text xml:space="preserve" text-anchor="middle" x="582.5" y="-124.38" font-family="Helvetica,sans-Serif" font-size="10.00">juce::Component::Component</text>
</a>
</g>
</g>
<!-- Node2&#45;&gt;Node3 -->
<g id="edge3_Node000002_Node000003" class="edge">
<title>Node2&#45;&gt;Node3</title>
<g id="a_edge3_Node000002_Node000003"><a xlink:title=" ">
<path fill="none" stroke="#63b8ff" d="M461.66,-107.01C477.83,-109.87 496.08,-113.11 513.38,-116.18"/>
<polygon fill="#63b8ff" stroke="#63b8ff" points="512.63,-119.6 523.09,-117.9 513.85,-112.7 512.63,-119.6"/>
</a>
</g>
</g>
<!-- Node4 -->
<g id="Node000004" class="node">
<title>Node4</title>
<g id="a_Node000004"><a xlink:href="classjuce_1_1Component.html#ab7ddcb4bf8a7c6534f6e1d9a22e6330b" target="_top" xlink:title=" ">
<polygon fill="white" stroke="#666666" points="649.38,-82.5 515.62,-82.5 515.62,-52 649.38,-52 649.38,-82.5"/>
<text xml:space="preserve" text-anchor="start" x="523.62" y="-69" font-family="Helvetica,sans-Serif" font-size="10.00">juce::Component::setWants</text>
<text xml:space="preserve" text-anchor="middle" x="582.5" y="-57.75" font-family="Helvetica,sans-Serif" font-size="10.00">KeyboardFocus</text>
</a>
</g>
</g>
<!-- Node2&#45;&gt;Node4 -->
<g id="edge5_Node000002_Node000004" class="edge">
<title>Node2&#45;&gt;Node4</title>
<g id="a_edge5_Node000002_Node000004"><a xlink:title=" ">
<path fill="none" stroke="#63b8ff" d="M461.66,-89.2C475.03,-86.75 489.83,-84.04 504.34,-81.38"/>
<polygon fill="#63b8ff" stroke="#63b8ff" points="504.65,-84.88 513.86,-79.64 503.39,-78 504.65,-84.88"/>
</a>
</g>
</g>
<!-- Node3&#45;&gt;Node3 -->
<g id="edge4_Node000003_Node000003" class="edge">
<title>Node3&#45;&gt;Node3</title>
<g id="a_edge4_Node000003_Node000003"><a xlink:title=" ">
<path fill="none" stroke="#63b8ff" d="M555.69,-138.16C543.46,-146.77 552.4,-155.88 582.5,-155.88 599.43,-155.88 609.67,-152.99 613.21,-148.94"/>
<polygon fill="#63b8ff" stroke="#63b8ff" points="616.52,-147.8 609.82,-139.59 609.93,-150.18 616.52,-147.8"/>
</a>
</g>
</g>
<!-- Node4&#45;&gt;Node4 -->
<g id="edge6_Node000004_Node000004" class="edge">
<title>Node4&#45;&gt;Node4</title>
<g id="a_edge6_Node000004_Node000004"><a xlink:title=" ">
<path fill="none" stroke="#63b8ff" d="M552.15,-82.99C545.96,-92.06 556.08,-100.5 582.5,-100.5 596.95,-100.5 606.52,-97.97 611.22,-94.2"/>
<polygon fill="#63b8ff" stroke="#63b8ff" points="614.66,-94.88 612.63,-84.48 607.73,-93.88 614.66,-94.88"/>
</a>
</g>
</g>
<!-- Node5&#45;&gt;Node5 -->
<g id="edge8_Node000005_Node000005" class="edge">
<title>Node5&#45;&gt;Node5</title>
<g id="a_edge8_Node000005_Node000005"><a xlink:title=" ">
<path fill="none" stroke="#63b8ff" d="M215.79,-25.16C203.72,-33.77 212.54,-42.88 242.25,-42.88 258.96,-42.88 269.06,-39.99 272.55,-35.94"/>
<polygon fill="#63b8ff" stroke="#63b8ff" points="275.87,-34.83 269.22,-26.59 269.28,-37.18 275.87,-34.83"/>
</a>
</g>
</g>
<!-- Node6 -->
<g id="Node000006" class="node">
<title>Node6</title>
<g id="a_Node000006"><a xlink:href="classjuce_1_1SettableTooltipClient.html#ac84967f92bf1ddf0e3a936c6434cb514" target="_top" xlink:title=" ">
<polygon fill="white" stroke="#666666" points="475.5,-30.5 347,-30.5 347,0 475.5,0 475.5,-30.5"/>
<text xml:space="preserve" text-anchor="start" x="355" y="-17" font-family="Helvetica,sans-Serif" font-size="10.00">juce::SettableTooltipClient</text>
<text xml:space="preserve" text-anchor="middle" x="411.25" y="-5.75" font-family="Helvetica,sans-Serif" font-size="10.00">::setTooltip</text>
</a>
</g>
</g>
<!-- Node5&#45;&gt;Node6 -->
<g id="edge9_Node000005_Node000006" class="edge">
<title>Node5&#45;&gt;Node6</title>
<g id="a_edge9_Node000005_Node000006"><a xlink:title=" ">
<path fill="none" stroke="#63b8ff" d="M299.79,-15.25C311.19,-15.25 323.34,-15.25 335.26,-15.25"/>
<polygon fill="#63b8ff" stroke="#63b8ff" points="335.07,-18.75 345.07,-15.25 335.07,-11.75 335.07,-18.75"/>
</a>
</g>
</g>
<!-- Node7&#45;&gt;Node2 -->
<g id="edge11_Node000007_Node000002" class="edge">
<title>Node7&#45;&gt;Node2</title>
<g id="a_edge11_Node000007_Node000002"><a xlink:title=" ">
<path fill="none" stroke="#63b8ff" d="M303.54,-80.36C318.51,-82.87 334.55,-85.56 349.53,-88.07"/>
<polygon fill="#63b8ff" stroke="#63b8ff" points="348.82,-91.5 359.26,-89.7 349.98,-84.6 348.82,-91.5"/>
</a>
</g>
</g>
<!-- Node7&#45;&gt;Node7 -->
<g id="edge12_Node000007_Node000007" class="edge">
<title>Node7&#45;&gt;Node7</title>
<g id="a_edge12_Node000007_Node000007"><a xlink:title=" ">
<path fill="none" stroke="#63b8ff" d="M215.79,-80.16C203.72,-88.77 212.54,-97.88 242.25,-97.88 258.96,-97.88 269.06,-94.99 272.55,-90.94"/>
<polygon fill="#63b8ff" stroke="#63b8ff" points="275.87,-89.83 269.22,-81.59 269.28,-92.18 275.87,-89.83"/>
</a>
</g>
</g>
</g>
</svg>
