<?xml version="1.0" encoding="UTF-8" standalone="no"?>
<!DOCTYPE svg PUBLIC "-//W3C//DTD SVG 1.1//EN"
 "http://www.w3.org/Graphics/SVG/1.1/DTD/svg11.dtd">
<!-- Generated by graphviz version 14.0.2 (0)
 -->
<!-- Title: juce::URL::addEscapeChars Pages: 1 -->
<svg width="670pt" height="225pt"
 viewBox="0.00 0.00 670.00 225.00" xmlns="http://www.w3.org/2000/svg" xmlns:xlink="http://www.w3.org/1999/xlink">
<g id="graph0" class="graph" transform="scale(1 1) rotate(0) translate(4 220.88)">
<title>juce::URL::addEscapeChars</title>
<!-- Node1 -->
<g id="Node000001" class="node">
<title>Node1</title>
<g id="a_Node000001"><a xlink:title=" ">
<polygon fill="#999999" stroke="#666666" points="661.75,-81.25 525,-81.25 525,-62 661.75,-62 661.75,-81.25"/>
<text xml:space="preserve" text-anchor="middle" x="593.38" y="-67.75" font-family="Helvetica,sans-Serif" font-size="10.00">juce::URL::addEscapeChars</text>
</a>
</g>
</g>
<!-- Node1&#45;&gt;Node1 -->
<g id="edge1_Node000001_Node000001" class="edge">
<title>Node1&#45;&gt;Node1</title>
<g id="a_edge1_Node000001_Node000001"><a xlink:title=" ">
<path fill="none" stroke="#63b8ff" d="M625.58,-91.98C622.2,-96.21 611.46,-99.25 593.38,-99.25 562.09,-99.25 552.8,-90.15 565.51,-81.54"/>
<polygon fill="#63b8ff" stroke="#63b8ff" points="628.89,-90.82 621.82,-82.94 622.43,-93.51 628.89,-90.82"/>
</a>
</g>
</g>
<!-- Node2 -->
<g id="Node000002" class="node">
<title>Node2</title>
<g id="a_Node000002"><a xlink:href="namespacejuce_1_1URLHelpers.html#af4a4e5e1c6933cadd7edae36abce18f9" target="_top" xlink:title=" ">
<polygon fill="white" stroke="#666666" points="489,-108.88 341.75,-108.88 341.75,-78.38 489,-78.38 489,-108.88"/>
<text xml:space="preserve" text-anchor="start" x="349.75" y="-95.38" font-family="Helvetica,sans-Serif" font-size="10.00">juce::URLHelpers::getMangled</text>
<text xml:space="preserve" text-anchor="middle" x="415.38" y="-84.12" font-family="Helvetica,sans-Serif" font-size="10.00">Parameters</text>
</a>
</g>
</g>
<!-- Node1&#45;&gt;Node2 -->
<g id="edge2_Node000001_Node000002" class="edge">
<title>Node1&#45;&gt;Node2</title>
<g id="a_edge2_Node000001_Node000002"><a xlink:title=" ">
<path fill="none" stroke="#63b8ff" d="M513.38,-81.5C505.4,-82.5 497.31,-83.51 489.39,-84.5"/>
<polygon fill="#63b8ff" stroke="#63b8ff" points="513.59,-85 523.08,-80.29 512.72,-78.05 513.59,-85"/>
</a>
</g>
</g>
<!-- Node30 -->
<g id="Node000030" class="node">
<title>Node30</title>
<g id="a_Node000030"><a xlink:href="classjuce_1_1URL.html#ab0455fd100f37fb39102fe0047d577f5" target="_top" xlink:title=" ">
<polygon fill="white" stroke="#666666" points="457.12,-60.25 373.62,-60.25 373.62,-41 457.12,-41 457.12,-60.25"/>
<text xml:space="preserve" text-anchor="middle" x="415.38" y="-46.75" font-family="Helvetica,sans-Serif" font-size="10.00">juce::URL::URL</text>
</a>
</g>
</g>
<!-- Node1&#45;&gt;Node30 -->
<g id="edge16_Node000001_Node000030" class="edge">
<title>Node1&#45;&gt;Node30</title>
<g id="a_edge16_Node000001_Node000030"><a xlink:title=" ">
<path fill="none" stroke="#63b8ff" d="M513.3,-62.19C493.99,-59.89 474.09,-57.51 457.39,-55.52"/>
<polygon fill="#63b8ff" stroke="#63b8ff" points="512.73,-65.65 523.08,-63.36 513.56,-58.7 512.73,-65.65"/>
</a>
</g>
</g>
<!-- Node2&#45;&gt;Node2 -->
<g id="edge9_Node000002_Node000002" class="edge">
<title>Node2&#45;&gt;Node2</title>
<g id="a_edge9_Node000002_Node000002"><a xlink:title=" ">
<path fill="none" stroke="#63b8ff" d="M444.47,-120.58C439.71,-124.35 430.02,-126.88 415.38,-126.88 388.6,-126.88 378.36,-118.43 384.63,-109.36"/>
<polygon fill="#63b8ff" stroke="#63b8ff" points="447.91,-121.26 445.9,-110.86 440.98,-120.24 447.91,-121.26"/>
</a>
</g>
</g>
<!-- Node3 -->
<g id="Node000003" class="node">
<title>Node3</title>
<g id="a_Node000003"><a xlink:href="classjuce_1_1URL.html#aaf54c08beb90f93164d13af6e1d4c96f" target="_top" xlink:title=" ">
<polygon fill="white" stroke="#666666" points="305.38,-138.88 178.38,-138.88 178.38,-108.38 305.38,-108.38 305.38,-138.88"/>
<text xml:space="preserve" text-anchor="start" x="186.38" y="-125.38" font-family="Helvetica,sans-Serif" font-size="10.00">juce::URL::createHeaders</text>
<text xml:space="preserve" text-anchor="middle" x="241.88" y="-114.12" font-family="Helvetica,sans-Serif" font-size="10.00">AndPostData</text>
</a>
</g>
</g>
<!-- Node2&#45;&gt;Node3 -->
<g id="edge3_Node000002_Node000003" class="edge">
<title>Node2&#45;&gt;Node3</title>
<g id="a_edge3_Node000002_Node000003"><a xlink:title=" ">
<path fill="none" stroke="#63b8ff" d="M330.36,-108.32C322.05,-109.77 313.73,-111.23 305.69,-112.64"/>
<polygon fill="#63b8ff" stroke="#63b8ff" points="330.91,-111.78 340.15,-106.61 329.7,-104.88 330.91,-111.78"/>
</a>
</g>
</g>
<!-- Node11 -->
<g id="Node000011" class="node">
<title>Node11</title>
<g id="a_Node000011"><a xlink:href="classjuce_1_1URL.html#a68efbc575a539e5534016ac1d80ae0a1" target="_top" xlink:title=" ">
<polygon fill="white" stroke="#666666" points="305.75,-72.25 178,-72.25 178,-53 305.75,-53 305.75,-72.25"/>
<text xml:space="preserve" text-anchor="middle" x="241.88" y="-58.75" font-family="Helvetica,sans-Serif" font-size="10.00">juce::URL::getQueryString</text>
</a>
</g>
</g>
<!-- Node2&#45;&gt;Node11 -->
<g id="edge10_Node000002_Node000011" class="edge">
<title>Node2&#45;&gt;Node11</title>
<g id="a_edge10_Node000002_Node000011"><a xlink:title=" ">
<path fill="none" stroke="#63b8ff" d="M330.49,-78.46C319.74,-76.52 308.96,-74.57 298.81,-72.74"/>
<polygon fill="#63b8ff" stroke="#63b8ff" points="329.69,-81.87 340.15,-80.21 330.94,-74.99 329.69,-81.87"/>
</a>
</g>
</g>
<!-- Node3&#45;&gt;Node3 -->
<g id="edge4_Node000003_Node000003" class="edge">
<title>Node3&#45;&gt;Node3</title>
<g id="a_edge4_Node000003_Node000003"><a xlink:title=" ">
<path fill="none" stroke="#63b8ff" d="M270.53,-150.58C265.85,-154.35 256.29,-156.88 241.88,-156.88 215.51,-156.88 205.42,-148.43 211.6,-139.36"/>
<polygon fill="#63b8ff" stroke="#63b8ff" points="273.97,-151.26 271.94,-140.86 267.04,-150.25 273.97,-151.26"/>
</a>
</g>
</g>
<!-- Node4 -->
<g id="Node000004" class="node">
<title>Node4</title>
<g id="a_Node000004"><a xlink:href="classjuce_1_1WebInputStream.html#a45ffe2459e45206178ce3a44187962dd" target="_top" xlink:title=" ">
<polygon fill="#fff0f0" stroke="red" points="142,-198.88 0,-198.88 0,-168.38 142,-168.38 142,-198.88"/>
<text xml:space="preserve" text-anchor="start" x="8" y="-185.38" font-family="Helvetica,sans-Serif" font-size="10.00">juce::WebInputStream</text>
<text xml:space="preserve" text-anchor="middle" x="71" y="-174.12" font-family="Helvetica,sans-Serif" font-size="10.00">::createHeadersAndPostData</text>
</a>
</g>
</g>
<!-- Node3&#45;&gt;Node4 -->
<g id="edge5_Node000003_Node000004" class="edge">
<title>Node3&#45;&gt;Node4</title>
<g id="a_edge5_Node000003_Node000004"><a xlink:title=" ">
<path fill="none" stroke="#63b8ff" d="M188.04,-143.07C173.17,-148.49 156.97,-154.33 142,-159.62 134.25,-162.36 126,-165.23 117.98,-168"/>
<polygon fill="#63b8ff" stroke="#63b8ff" points="188.98,-146.45 197.18,-139.74 186.58,-139.88 188.98,-146.45"/>
</a>
</g>
</g>
<!-- Node10 -->
<g id="Node000010" class="node">
<title>Node10</title>
<g id="a_Node000010"><a xlink:href="classjuce_1_1URL.html#a4388f385b22787a925f7af004d242e68" target="_top" xlink:title=" ">
<polygon fill="white" stroke="#666666" points="139,-132.25 3,-132.25 3,-113 139,-113 139,-132.25"/>
<text xml:space="preserve" text-anchor="middle" x="71" y="-118.75" font-family="Helvetica,sans-Serif" font-size="10.00">juce::URL::WebInputStream</text>
</a>
</g>
</g>
<!-- Node3&#45;&gt;Node10 -->
<g id="edge7_Node000003_Node000010" class="edge">
<title>Node3&#45;&gt;Node10</title>
<g id="a_edge7_Node000003_Node000010"><a xlink:title=" ">
<path fill="none" stroke="#63b8ff" d="M166.65,-123.19C157.61,-123.13 148.4,-123.08 139.46,-123.02"/>
<polygon fill="#63b8ff" stroke="#63b8ff" points="166.46,-126.68 176.48,-123.24 166.5,-119.68 166.46,-126.68"/>
</a>
</g>
</g>
<!-- Node4&#45;&gt;Node4 -->
<g id="edge6_Node000004_Node000004" class="edge">
<title>Node4&#45;&gt;Node4</title>
<g id="a_edge6_Node000004_Node000004"><a xlink:title=" ">
<path fill="none" stroke="#63b8ff" d="M99.66,-210.58C94.97,-214.35 85.42,-216.88 71,-216.88 44.63,-216.88 34.54,-208.43 40.72,-199.36"/>
<polygon fill="#63b8ff" stroke="#63b8ff" points="103.09,-211.26 101.06,-200.86 96.17,-210.25 103.09,-211.26"/>
</a>
</g>
</g>
<!-- Node10&#45;&gt;Node10 -->
<g id="edge8_Node000010_Node000010" class="edge">
<title>Node10&#45;&gt;Node10</title>
<g id="a_edge8_Node000010_Node000010"><a xlink:title=" ">
<path fill="none" stroke="#63b8ff" d="M101.64,-143.32C98.11,-147.37 87.9,-150.25 71,-150.25 40.96,-150.25 32.05,-141.15 44.25,-132.54"/>
<polygon fill="#63b8ff" stroke="#63b8ff" points="104.95,-142.18 98.26,-133.96 98.37,-144.56 104.95,-142.18"/>
</a>
</g>
</g>
<!-- Node11&#45;&gt;Node11 -->
<g id="edge11_Node000011_Node000011" class="edge">
<title>Node11&#45;&gt;Node11</title>
<g id="a_edge11_Node000011_Node000011"><a xlink:title=" ">
<path fill="none" stroke="#63b8ff" d="M272.51,-83.32C268.98,-87.37 258.77,-90.25 241.88,-90.25 211.84,-90.25 202.92,-81.15 215.12,-72.54"/>
<polygon fill="#63b8ff" stroke="#63b8ff" points="275.83,-82.18 269.14,-73.96 269.24,-84.56 275.83,-82.18"/>
</a>
</g>
</g>
<!-- Node12 -->
<g id="Node000012" class="node">
<title>Node12</title>
<g id="a_Node000012"><a xlink:href="classjuce_1_1URL.html#a562d82c5a193636db2cc42532f594bf6" target="_top" xlink:title=" ">
<polygon fill="#fff0f0" stroke="red" points="128.12,-74.25 13.88,-74.25 13.88,-55 128.12,-55 128.12,-74.25"/>
<text xml:space="preserve" text-anchor="middle" x="71" y="-60.75" font-family="Helvetica,sans-Serif" font-size="10.00">juce::URL::getSubPath</text>
</a>
</g>
</g>
<!-- Node11&#45;&gt;Node12 -->
<g id="edge12_Node000011_Node000012" class="edge">
<title>Node11&#45;&gt;Node12</title>
<g id="a_edge12_Node000011_Node000012"><a xlink:title=" ">
<path fill="none" stroke="#63b8ff" d="M166.05,-63.51C153.44,-63.66 140.54,-63.81 128.49,-63.96"/>
<polygon fill="#63b8ff" stroke="#63b8ff" points="166.04,-67.01 176,-63.39 165.96,-60.01 166.04,-67.01"/>
</a>
</g>
</g>
<!-- Node21 -->
<g id="Node000021" class="node">
<title>Node21</title>
<g id="a_Node000021"><a xlink:href="classjuce_1_1URL.html#a53b6f71286ea91bbc75b37bb2be2eb32" target="_top" xlink:title=" ">
<polygon fill="#fff0f0" stroke="red" points="119.5,-19.25 22.5,-19.25 22.5,0 119.5,0 119.5,-19.25"/>
<text xml:space="preserve" text-anchor="middle" x="71" y="-5.75" font-family="Helvetica,sans-Serif" font-size="10.00">juce::URL::toString</text>
</a>
</g>
</g>
<!-- Node11&#45;&gt;Node21 -->
<g id="edge14_Node000011_Node000021" class="edge">
<title>Node11&#45;&gt;Node21</title>
<g id="a_edge14_Node000011_Node000021"><a xlink:title=" ">
<path fill="none" stroke="#63b8ff" d="M197.98,-49.16C168.74,-39.99 130.65,-28.03 104.04,-19.68"/>
<polygon fill="#63b8ff" stroke="#63b8ff" points="196.68,-52.42 207.27,-52.08 198.78,-45.74 196.68,-52.42"/>
</a>
</g>
</g>
<!-- Node12&#45;&gt;Node12 -->
<g id="edge13_Node000012_Node000012" class="edge">
<title>Node12&#45;&gt;Node12</title>
<g id="a_edge13_Node000012_Node000012"><a xlink:title=" ">
<path fill="none" stroke="#63b8ff" d="M101.64,-85.32C98.11,-89.37 87.9,-92.25 71,-92.25 40.96,-92.25 32.05,-83.15 44.25,-74.54"/>
<polygon fill="#63b8ff" stroke="#63b8ff" points="104.95,-84.18 98.26,-75.96 98.37,-86.56 104.95,-84.18"/>
</a>
</g>
</g>
<!-- Node21&#45;&gt;Node21 -->
<g id="edge15_Node000021_Node000021" class="edge">
<title>Node21&#45;&gt;Node21</title>
<g id="a_edge15_Node000021_Node000021"><a xlink:title=" ">
<path fill="none" stroke="#63b8ff" d="M101.64,-30.32C98.11,-34.37 87.9,-37.25 71,-37.25 40.96,-37.25 32.05,-28.15 44.25,-19.54"/>
<polygon fill="#63b8ff" stroke="#63b8ff" points="104.95,-29.18 98.26,-20.96 98.37,-31.56 104.95,-29.18"/>
</a>
</g>
</g>
</g>
</svg>
