<?xml version="1.0" encoding="UTF-8" standalone="no"?>
<!DOCTYPE svg PUBLIC "-//W3C//DTD SVG 1.1//EN"
 "http://www.w3.org/Graphics/SVG/1.1/DTD/svg11.dtd">
<!-- Generated by graphviz version 14.0.2 (0)
 -->
<!-- Title: juce::KeyPressMappingSet::~KeyPressMappingSet Pages: 1 -->
<!--zoomable 179 -->

<svg id="main" version="1.1" xmlns="http://www.w3.org/2000/svg" xmlns:xlink="http://www.w3.org/1999/xlink" xml:space="preserve" onload="init(evt)">

<style type="text/css"><![CDATA[
.node, .edge {opacity: 0.7;}
.node.selected, .edge.selected {opacity: 1;}
.edge:hover path { stroke: red; }
.edge:hover polygon { stroke: red; fill: red; }
]]></style>

<defs>
  <circle id="rim" cx="0" cy="0" r="7"/>
  <circle id="rim2" cx="0" cy="0" r="3.5"/>
  <g id="zoomPlus">
    <use xlink:href="#rim" fill="#404040"><set attributeName="fill" to="#808080" begin="zoomplus.mouseover" end="zoomplus.mouseout"/></use>
    <path d="M-4,0h8M0,-4v8" fill="none" stroke="white" stroke-width="1.5" pointer-events="none"/>
  </g>
  <g id="zoomMin">
    <use xlink:href="#rim" fill="#404040"><set attributeName="fill" to="#808080" begin="zoomminus.mouseover" end="zoomminus.mouseout"/></use>
    <path d="M-4,0h8" fill="none" stroke="white" stroke-width="1.5" pointer-events="none"/>
  </g>
  <g id="arrowUp" transform="translate(30 24)">
    <use xlink:href="#rim"/>
    <path pointer-events="none" fill="none" stroke="white" stroke-width="1.5" d="M0,-3.0v7 M-2.5,-0.5L0,-3.0L2.5,-0.5"/>
  </g>
  <g id="arrowRight" transform="rotate(90) translate(36 -43)">
    <use xlink:href="#rim"/>
    <path pointer-events="none" fill="none" stroke="white" stroke-width="1.5" d="M0,-3.0v7 M-2.5,-0.5L0,-3.0L2.5,-0.5"/>
  </g>
  <g id="arrowDown" transform="rotate(180) translate(-30 -48)">
    <use xlink:href="#rim"/>
    <path pointer-events="none" fill="none" stroke="white" stroke-width="1.5" d="M0,-3.0v7 M-2.5,-0.5L0,-3.0L2.5,-0.5"/>
  </g>
  <g id="arrowLeft" transform="rotate(270) translate(-36 17)">
    <use xlink:href="#rim"/>
    <path pointer-events="none" fill="none" stroke="white" stroke-width="1.5" d="M0,-3.0v7 M-2.5,-0.5L0,-3.0L2.5,-0.5"/>
  </g>
  <g id="resetDef">
    <use xlink:href="#rim2" fill="#404040"><set attributeName="fill" to="#808080" begin="reset.mouseover" end="reset.mouseout"/></use>
  </g>
</defs>
<script type="application/ecmascript">
var viewWidth = 642;
var viewHeight = 179;
var sectionId = 'dynsection-5';
</script>
<script type="application/ecmascript" xlink:href="svg.min.js"/>
<svg id="graph" class="graph">
<g id="viewport">
<title>juce::KeyPressMappingSet::~KeyPressMappingSet</title>
<!-- Node1 -->
<g id="Node000001" class="node">
<title>Node1</title>
<g id="a_Node000001"><a xlink:title=" ">
<polygon fill="#999999" stroke="#666666" points="132.25,-91.5 0,-91.5 0,-61 132.25,-61 132.25,-91.5"/>
<text xml:space="preserve" text-anchor="start" x="8" y="-78" font-family="Helvetica,sans-Serif" font-size="10.00">juce::KeyPressMappingSet</text>
<text xml:space="preserve" text-anchor="middle" x="66.12" y="-66.75" font-family="Helvetica,sans-Serif" font-size="10.00">::~KeyPressMappingSet</text>
</a>
</g>
</g>
<!-- Node1&#45;&gt;Node1 -->
<g id="edge11_Node000001_Node000001" class="edge">
<title>Node1&#45;&gt;Node1</title>
<g id="a_edge11_Node000001_Node000001"><a xlink:title=" ">
<path fill="none" stroke="#63b8ff" d="M36.51,-91.99C30.47,-101.06 40.34,-109.5 66.12,-109.5 80.23,-109.5 89.57,-106.97 94.15,-103.2"/>
<polygon fill="#63b8ff" stroke="#63b8ff" points="97.59,-103.88 95.53,-93.48 90.66,-102.9 97.59,-103.88"/>
</a>
</g>
</g>
<!-- Node2 -->
<g id="Node000002" class="node">
<title>Node2</title>
<g id="a_Node000002"><a xlink:href="classjuce_1_1Desktop.html#a9adf64fbbd6f9740c0272f50bee5342c" target="_top" xlink:title=" ">
<polygon fill="white" stroke="#666666" points="298.25,-85.88 168.25,-85.88 168.25,-66.62 298.25,-66.62 298.25,-85.88"/>
<text xml:space="preserve" text-anchor="middle" x="233.25" y="-72.38" font-family="Helvetica,sans-Serif" font-size="10.00">juce::Desktop::getInstance</text>
</a>
</g>
</g>
<!-- Node1&#45;&gt;Node2 -->
<g id="edge1_Node000001_Node000002" class="edge">
<title>Node1&#45;&gt;Node2</title>
<g id="a_edge1_Node000001_Node000002"><a xlink:title=" ">
<path fill="none" stroke="#63b8ff" d="M132.39,-76.25C140.35,-76.25 148.54,-76.25 156.64,-76.25"/>
<polygon fill="#63b8ff" stroke="#63b8ff" points="156.49,-79.75 166.49,-76.25 156.49,-72.75 156.49,-79.75"/>
</a>
</g>
</g>
<!-- Node2&#45;&gt;Node2 -->
<g id="edge10_Node000002_Node000002" class="edge">
<title>Node2&#45;&gt;Node2</title>
<g id="a_edge10_Node000002_Node000002"><a xlink:title=" ">
<path fill="none" stroke="#63b8ff" d="M208.44,-86.16C197.12,-94.77 205.39,-103.88 233.25,-103.88 248.92,-103.88 258.4,-100.99 261.67,-96.94"/>
<polygon fill="#63b8ff" stroke="#63b8ff" points="265.04,-95.97 258.54,-87.6 258.4,-98.19 265.04,-95.97"/>
</a>
</g>
</g>
<!-- Node3 -->
<g id="Node000003" class="node">
<title>Node3</title>
<g id="a_Node000003"><a xlink:href="classjuce_1_1Desktop.html#abd1c8fd0b06db22247d73b5d672a8869" target="_top" xlink:title=" ">
<polygon fill="white" stroke="#666666" points="449.25,-85.88 334.25,-85.88 334.25,-66.62 449.25,-66.62 449.25,-85.88"/>
<text xml:space="preserve" text-anchor="middle" x="391.75" y="-72.38" font-family="Helvetica,sans-Serif" font-size="10.00">juce::Desktop::Desktop</text>
</a>
</g>
</g>
<!-- Node2&#45;&gt;Node3 -->
<g id="edge2_Node000002_Node000003" class="edge">
<title>Node2&#45;&gt;Node3</title>
<g id="a_edge2_Node000002_Node000003"><a xlink:title=" ">
<path fill="none" stroke="#63b8ff" d="M298.36,-76.25C306.39,-76.25 314.63,-76.25 322.72,-76.25"/>
<polygon fill="#63b8ff" stroke="#63b8ff" points="322.5,-79.75 332.5,-76.25 322.5,-72.75 322.5,-79.75"/>
</a>
</g>
</g>
<!-- Node3&#45;&gt;Node3 -->
<g id="edge5_Node000003_Node000003" class="edge">
<title>Node3&#45;&gt;Node3</title>
<g id="a_edge5_Node000003_Node000003"><a xlink:title=" ">
<path fill="none" stroke="#63b8ff" d="M366.94,-86.16C355.62,-94.77 363.89,-103.88 391.75,-103.88 407.42,-103.88 416.9,-100.99 420.17,-96.94"/>
<polygon fill="#63b8ff" stroke="#63b8ff" points="423.54,-95.97 417.04,-87.6 416.9,-98.19 423.54,-95.97"/>
</a>
</g>
</g>
<!-- Node4 -->
<g id="Node000004" class="node">
<title>Node4</title>
<g id="a_Node000004"><a xlink:href="classjuce_1_1Desktop.html#addda2d1ba54a534ecdfa4eca80f3a510" target="_top" xlink:title=" ">
<polygon fill="white" stroke="#666666" points="634,-152.5 485.25,-152.5 485.25,-122 634,-122 634,-152.5"/>
<text xml:space="preserve" text-anchor="start" x="493.25" y="-139" font-family="Helvetica,sans-Serif" font-size="10.00">juce::Desktop::createNative</text>
<text xml:space="preserve" text-anchor="middle" x="559.62" y="-127.75" font-family="Helvetica,sans-Serif" font-size="10.00">DarkModeChangeDetectorImpl</text>
</a>
</g>
</g>
<!-- Node3&#45;&gt;Node4 -->
<g id="edge3_Node000003_Node000004" class="edge">
<title>Node3&#45;&gt;Node4</title>
<g id="a_edge3_Node000003_Node000004"><a xlink:title=" ">
<path fill="none" stroke="#63b8ff" d="M416.54,-86.26C435.13,-93.96 461.68,-104.69 485.25,-113.25 489.57,-114.82 494.05,-116.4 498.58,-117.96"/>
<polygon fill="#63b8ff" stroke="#63b8ff" points="497.11,-121.16 507.71,-121.06 499.36,-114.53 497.11,-121.16"/>
</a>
</g>
</g>
<!-- Node5 -->
<g id="Node000005" class="node">
<title>Node5</title>
<g id="a_Node000005"><a xlink:href="classjuce_1_1Desktop.html#af2aa5afb6ba8acb24e156284fc503bd9" target="_top" xlink:title=" ">
<polygon fill="white" stroke="#666666" points="617.5,-85.88 501.75,-85.88 501.75,-66.62 617.5,-66.62 617.5,-85.88"/>
<text xml:space="preserve" text-anchor="middle" x="559.62" y="-72.38" font-family="Helvetica,sans-Serif" font-size="10.00">juce::Desktop::Displays</text>
</a>
</g>
</g>
<!-- Node3&#45;&gt;Node5 -->
<g id="edge6_Node000003_Node000005" class="edge">
<title>Node3&#45;&gt;Node5</title>
<g id="a_edge6_Node000003_Node000005"><a xlink:title=" ">
<path fill="none" stroke="#63b8ff" d="M449.37,-76.25C462.5,-76.25 476.6,-76.25 490.17,-76.25"/>
<polygon fill="#63b8ff" stroke="#63b8ff" points="489.9,-79.75 499.9,-76.25 489.9,-72.75 489.9,-79.75"/>
</a>
</g>
</g>
<!-- Node6 -->
<g id="Node000006" class="node">
<title>Node6</title>
<g id="a_Node000006"><a xlink:href="classjuce_1_1Desktop.html#a9c4533b63bdf1ccb9ae1242ba578d3a6" target="_top" xlink:title=" ">
<polygon fill="white" stroke="#666666" points="621.25,-30.5 498,-30.5 498,0 621.25,0 621.25,-30.5"/>
<text xml:space="preserve" text-anchor="start" x="506" y="-17" font-family="Helvetica,sans-Serif" font-size="10.00">juce::Desktop::getDefault</text>
<text xml:space="preserve" text-anchor="middle" x="559.62" y="-5.75" font-family="Helvetica,sans-Serif" font-size="10.00">MasterScale</text>
</a>
</g>
</g>
<!-- Node3&#45;&gt;Node6 -->
<g id="edge8_Node000003_Node000006" class="edge">
<title>Node3&#45;&gt;Node6</title>
<g id="a_edge8_Node000003_Node000006"><a xlink:title=" ">
<path fill="none" stroke="#63b8ff" d="M420.14,-66.18C443.23,-57.69 476.95,-45.28 505.34,-34.85"/>
<polygon fill="#63b8ff" stroke="#63b8ff" points="506.33,-38.21 514.5,-31.48 503.91,-31.64 506.33,-38.21"/>
</a>
</g>
</g>
<!-- Node4&#45;&gt;Node4 -->
<g id="edge4_Node000004_Node000004" class="edge">
<title>Node4&#45;&gt;Node4</title>
<g id="a_edge4_Node000004_Node000004"><a xlink:title=" ">
<path fill="none" stroke="#63b8ff" d="M529.88,-152.99C523.81,-162.06 533.72,-170.5 559.62,-170.5 573.79,-170.5 583.17,-167.97 587.78,-164.2"/>
<polygon fill="#63b8ff" stroke="#63b8ff" points="591.22,-164.88 589.16,-154.48 584.29,-163.89 591.22,-164.88"/>
</a>
</g>
</g>
<!-- Node5&#45;&gt;Node5 -->
<g id="edge7_Node000005_Node000005" class="edge">
<title>Node5&#45;&gt;Node5</title>
<g id="a_edge7_Node000005_Node000005"><a xlink:title=" ">
<path fill="none" stroke="#63b8ff" d="M533.34,-86.16C521.36,-94.77 530.12,-103.88 559.62,-103.88 576.22,-103.88 586.26,-100.99 589.73,-96.94"/>
<polygon fill="#63b8ff" stroke="#63b8ff" points="593.05,-95.85 586.41,-87.59 586.45,-98.18 593.05,-95.85"/>
</a>
</g>
</g>
<!-- Node6&#45;&gt;Node6 -->
<g id="edge9_Node000006_Node000006" class="edge">
<title>Node6&#45;&gt;Node6</title>
<g id="a_edge9_Node000006_Node000006"><a xlink:title=" ">
<path fill="none" stroke="#63b8ff" d="M529.88,-30.99C523.81,-40.06 533.72,-48.5 559.62,-48.5 573.79,-48.5 583.17,-45.97 587.78,-42.2"/>
<polygon fill="#63b8ff" stroke="#63b8ff" points="591.22,-42.88 589.16,-32.48 584.29,-41.89 591.22,-42.88"/>
</a>
</g>
</g>
</g>
</svg>

<g id="navigator" transform="translate(0 0)" fill="#404254">
  <rect fill="#f2f5e9" fill-opacity="0.5" stroke="#606060" stroke-width=".5" x="0" y="0" width="60" height="60"/>
  <use id="zoomplus" xlink:href="#zoomPlus" x="17" y="9" onmousedown="handleZoom(evt,'in')"/>
  <use id="zoomminus" xlink:href="#zoomMin" x="42" y="9" onmousedown="handleZoom(evt,'out')"/>
  <use id="reset" xlink:href="#resetDef" x="30" y="36" onmousedown="handleReset()"/>
   <use id="arrowup" xlink:href="#arrowUp" x="0" y="0" onmousedown="handlePan(0,-1)"/>
  <use id="arrowright" xlink:href="#arrowRight" x="0" y="0" onmousedown="handlePan(1,0)"/>
  <use id="arrowdown" xlink:href="#arrowDown" x="0" y="0" onmousedown="handlePan(0,1)"/>
  <use id="arrowleft" xlink:href="#arrowLeft" x="0" y="0" onmousedown="handlePan(-1,0)"/>
</g>
<svg viewBox="0 0 15 15" width="100%" height="30px" preserveAspectRatio="xMaxYMin meet">
 <g id="arrow_out" transform="scale(0.3 0.3)">
  <a xlink:href="classjuce_1_1KeyPressMappingSet_a8301b0eab1650a09d63db5a91ecf227a_cgraph_org.svg" target="_base">
   <rect id="button" ry="5" rx="5" y="6" x="6" height="38" width="38"
        fill="#f2f5e9" fill-opacity="0.5" stroke="#606060" stroke-width="1.0"/>
   <path id="arrow"
     d="M 11.500037,31.436501 C 11.940474,20.09759 22.043105,11.32322 32.158766,21.979434 L 37.068811,17.246167 C 37.068811,17.246167 37.088388,32 37.088388,32 L 22.160133,31.978069 C 22.160133,31.978069 26.997745,27.140456 26.997745,27.140456 C 18.528582,18.264221 13.291696,25.230495 11.500037,31.436501 z"
     style="fill:#404040;"/>
  </a>
 </g>
</svg>

<style type='text/css'>
<![CDATA[
[data-mouse-over-selected='false'] { opacity: 0.7; }
[data-mouse-over-selected='true']  { opacity: 1.0; }
]]>
</style>
<script type="application/ecmascript"><![CDATA[
document.addEventListener('DOMContentLoaded', (event) => {
  highlightEdges();
  highlightAdjacentNodes();
});
]]></script>
</svg>
