<?xml version="1.0" encoding="UTF-8" standalone="no"?>
<!DOCTYPE svg PUBLIC "-//W3C//DTD SVG 1.1//EN"
 "http://www.w3.org/Graphics/SVG/1.1/DTD/svg11.dtd">
<!-- Generated by graphviz version 14.0.2 (0)
 -->
<!-- Title: exprtk::parser::expression_generator::uvouv_optimisable Pages: 1 -->
<svg width="352pt" height="88pt"
 viewBox="0.00 0.00 352.00 88.00" xmlns="http://www.w3.org/2000/svg" xmlns:xlink="http://www.w3.org/1999/xlink">
<g id="graph0" class="graph" transform="scale(1 1) rotate(0) translate(4 83.5)">
<title>exprtk::parser::expression_generator::uvouv_optimisable</title>
<!-- Node1 -->
<g id="Node000001" class="node">
<title>Node1</title>
<g id="a_Node000001"><a xlink:title=" ">
<polygon fill="#999999" stroke="#666666" points="147.25,-54.5 0,-54.5 0,-24 147.25,-24 147.25,-54.5"/>
<text xml:space="preserve" text-anchor="start" x="8" y="-41" font-family="Helvetica,sans-Serif" font-size="10.00">exprtk::parser::expression</text>
<text xml:space="preserve" text-anchor="middle" x="73.62" y="-29.75" font-family="Helvetica,sans-Serif" font-size="10.00">_generator::uvouv_optimisable</text>
</a>
</g>
</g>
<!-- Node2 -->
<g id="Node000002" class="node">
<title>Node2</title>
<g id="a_Node000002"><a xlink:href="namespaceexprtk_1_1details.html#a48b93175edeb8f15cde37597c5bcff02" target="_top" xlink:title=" ">
<polygon fill="white" stroke="#666666" points="307.25,-79.5 220,-79.5 220,-49 307.25,-49 307.25,-79.5"/>
<text xml:space="preserve" text-anchor="start" x="228" y="-66" font-family="Helvetica,sans-Serif" font-size="10.00">exprtk::details::is</text>
<text xml:space="preserve" text-anchor="middle" x="263.62" y="-54.75" font-family="Helvetica,sans-Serif" font-size="10.00">_uv_node</text>
</a>
</g>
</g>
<!-- Node1&#45;&gt;Node2 -->
<g id="edge1_Node000001_Node000002" class="edge">
<title>Node1&#45;&gt;Node2</title>
<g id="a_edge1_Node000001_Node000002"><a xlink:title=" ">
<path fill="none" stroke="#63b8ff" d="M147.58,-48.95C167.75,-51.63 189.29,-54.5 208.2,-57.01"/>
<polygon fill="#63b8ff" stroke="#63b8ff" points="207.74,-60.48 218.11,-58.33 208.66,-53.54 207.74,-60.48"/>
</a>
</g>
</g>
<!-- Node3 -->
<g id="Node000003" class="node">
<title>Node3</title>
<g id="a_Node000003"><a xlink:href="classexprtk_1_1parser_1_1expression__generator.html#aae4dee3a444393d733e388084a52fef7" target="_top" xlink:title=" ">
<polygon fill="white" stroke="#666666" points="344,-30.5 183.25,-30.5 183.25,0 344,0 344,-30.5"/>
<text xml:space="preserve" text-anchor="start" x="191.25" y="-17" font-family="Helvetica,sans-Serif" font-size="10.00">exprtk::parser::expression</text>
<text xml:space="preserve" text-anchor="middle" x="263.62" y="-5.75" font-family="Helvetica,sans-Serif" font-size="10.00">_generator::operation_optimisable</text>
</a>
</g>
</g>
<!-- Node1&#45;&gt;Node3 -->
<g id="edge2_Node000001_Node000003" class="edge">
<title>Node1&#45;&gt;Node3</title>
<g id="a_edge2_Node000001_Node000003"><a xlink:title=" ">
<path fill="none" stroke="#63b8ff" d="M147.58,-29.94C155.44,-28.93 163.5,-27.9 171.54,-26.88"/>
<polygon fill="#63b8ff" stroke="#63b8ff" points="171.88,-30.36 181.35,-25.63 170.99,-23.42 171.88,-30.36"/>
</a>
</g>
</g>
</g>
</svg>
