<?xml version="1.0" encoding="UTF-8" standalone="no"?>
<!DOCTYPE svg PUBLIC "-//W3C//DTD SVG 1.1//EN"
 "http://www.w3.org/Graphics/SVG/1.1/DTD/svg11.dtd">
<!-- Generated by graphviz version 14.0.2 (0)
 -->
<!-- Title: juce::TooltipWindow::getTipFor Pages: 1 -->
<svg width="482pt" height="145pt"
 viewBox="0.00 0.00 482.00 145.00" xmlns="http://www.w3.org/2000/svg" xmlns:xlink="http://www.w3.org/1999/xlink">
<g id="graph0" class="graph" transform="scale(1 1) rotate(0) translate(4 140.88)">
<title>juce::TooltipWindow::getTipFor</title>
<!-- Node1 -->
<g id="Node000001" class="node">
<title>Node1</title>
<g id="a_Node000001"><a xlink:title=" ">
<polygon fill="#999999" stroke="#666666" points="102.25,-93.5 0,-93.5 0,-63 102.25,-63 102.25,-93.5"/>
<text xml:space="preserve" text-anchor="start" x="8" y="-80" font-family="Helvetica,sans-Serif" font-size="10.00">juce::TooltipWindow</text>
<text xml:space="preserve" text-anchor="middle" x="51.12" y="-68.75" font-family="Helvetica,sans-Serif" font-size="10.00">::getTipFor</text>
</a>
</g>
</g>
<!-- Node1&#45;&gt;Node1 -->
<g id="edge3_Node000001_Node000001" class="edge">
<title>Node1&#45;&gt;Node1</title>
<g id="a_edge3_Node000001_Node000001"><a xlink:title=" ">
<path fill="none" stroke="#63b8ff" d="M22.31,-93.99C16.43,-103.06 26.03,-111.5 51.12,-111.5 64.85,-111.5 73.94,-108.97 78.4,-105.2"/>
<polygon fill="#63b8ff" stroke="#63b8ff" points="81.84,-105.87 79.74,-95.49 74.9,-104.91 81.84,-105.87"/>
</a>
</g>
</g>
<!-- Node2 -->
<g id="Node000002" class="node">
<title>Node2</title>
<g id="a_Node000002"><a xlink:href="classjuce_1_1Component.html#a8eca44b2145f084bd354edc8db696ad7" target="_top" xlink:title=" ">
<polygon fill="white" stroke="#666666" points="284.75,-118.88 142.75,-118.88 142.75,-99.62 284.75,-99.62 284.75,-118.88"/>
<text xml:space="preserve" text-anchor="middle" x="213.75" y="-105.38" font-family="Helvetica,sans-Serif" font-size="10.00">juce::Component::Component</text>
</a>
</g>
</g>
<!-- Node1&#45;&gt;Node2 -->
<g id="edge1_Node000001_Node000002" class="edge">
<title>Node1&#45;&gt;Node2</title>
<g id="a_edge1_Node000001_Node000002"><a xlink:title=" ">
<path fill="none" stroke="#63b8ff" d="M102.51,-87.97C117.31,-90.83 133.7,-93.99 149.22,-96.99"/>
<polygon fill="#63b8ff" stroke="#63b8ff" points="148.36,-100.39 158.84,-98.85 149.69,-93.51 148.36,-100.39"/>
</a>
</g>
</g>
<!-- Node3 -->
<g id="Node000003" class="node">
<title>Node3</title>
<g id="a_Node000003"><a xlink:href="namespacejuce.html#af3eb432200eb2c2794fe3878d9e38c5a" target="_top" xlink:title=" ">
<polygon fill="white" stroke="#666666" points="289.25,-63.5 138.25,-63.5 138.25,-33 289.25,-33 289.25,-63.5"/>
<text xml:space="preserve" text-anchor="start" x="146.25" y="-50" font-family="Helvetica,sans-Serif" font-size="10.00">juce::isForegroundOrEmbedded</text>
<text xml:space="preserve" text-anchor="middle" x="213.75" y="-38.75" font-family="Helvetica,sans-Serif" font-size="10.00">Process</text>
</a>
</g>
</g>
<!-- Node1&#45;&gt;Node3 -->
<g id="edge4_Node000001_Node000003" class="edge">
<title>Node1&#45;&gt;Node3</title>
<g id="a_edge4_Node000001_Node000003"><a xlink:title=" ">
<path fill="none" stroke="#63b8ff" d="M102.51,-68.84C110.22,-67.4 118.37,-65.88 126.6,-64.34"/>
<polygon fill="#63b8ff" stroke="#63b8ff" points="127.16,-67.8 136.35,-62.52 125.88,-60.91 127.16,-67.8"/>
</a>
</g>
</g>
<!-- Node2&#45;&gt;Node2 -->
<g id="edge2_Node000002_Node000002" class="edge">
<title>Node2&#45;&gt;Node2</title>
<g id="a_edge2_Node000002_Node000002"><a xlink:title=" ">
<path fill="none" stroke="#63b8ff" d="M188.29,-119.16C176.68,-127.77 185.16,-136.88 213.75,-136.88 229.83,-136.88 239.55,-133.99 242.91,-129.94"/>
<polygon fill="#63b8ff" stroke="#63b8ff" points="246.26,-128.92 239.7,-120.59 239.64,-131.19 246.26,-128.92"/>
</a>
</g>
</g>
<!-- Node3&#45;&gt;Node3 -->
<g id="edge7_Node000003_Node000003" class="edge">
<title>Node3&#45;&gt;Node3</title>
<g id="a_edge7_Node000003_Node000003"><a xlink:title=" ">
<path fill="none" stroke="#63b8ff" d="M184.93,-63.99C179.05,-73.06 188.66,-81.5 213.75,-81.5 227.47,-81.5 236.56,-78.97 241.02,-75.2"/>
<polygon fill="#63b8ff" stroke="#63b8ff" points="244.46,-75.87 242.36,-65.49 237.53,-74.91 244.46,-75.87"/>
</a>
</g>
</g>
<!-- Node4 -->
<g id="Node000004" class="node">
<title>Node4</title>
<g id="a_Node000004"><a xlink:href="namespacejuce.html#a3753e5c701e88d306a4b61c34c49415a" target="_top" xlink:title=" ">
<polygon fill="white" stroke="#666666" points="474,-97.5 325.25,-97.5 325.25,-67 474,-67 474,-97.5"/>
<text xml:space="preserve" text-anchor="start" x="333.25" y="-84" font-family="Helvetica,sans-Serif" font-size="10.00">juce::isEmbeddedInForeground</text>
<text xml:space="preserve" text-anchor="middle" x="399.62" y="-72.75" font-family="Helvetica,sans-Serif" font-size="10.00">Process</text>
</a>
</g>
</g>
<!-- Node3&#45;&gt;Node4 -->
<g id="edge5_Node000003_Node000004" class="edge">
<title>Node3&#45;&gt;Node4</title>
<g id="a_edge5_Node000003_Node000004"><a xlink:title=" ">
<path fill="none" stroke="#63b8ff" d="M289.54,-62.08C297.45,-63.54 305.53,-65.04 313.54,-66.52"/>
<polygon fill="#63b8ff" stroke="#63b8ff" points="312.84,-69.95 323.31,-68.32 314.11,-63.06 312.84,-69.95"/>
</a>
</g>
</g>
<!-- Node5 -->
<g id="Node000005" class="node">
<title>Node5</title>
<g id="a_Node000005"><a xlink:href="classjuce_1_1Process.html#a4a70c61b8960a63d00b9796772a1a2f3" target="_top" xlink:title=" ">
<polygon fill="white" stroke="#666666" points="467.25,-30.5 332,-30.5 332,0 467.25,0 467.25,-30.5"/>
<text xml:space="preserve" text-anchor="start" x="340" y="-17" font-family="Helvetica,sans-Serif" font-size="10.00">juce::Process::isForeground</text>
<text xml:space="preserve" text-anchor="middle" x="399.62" y="-5.75" font-family="Helvetica,sans-Serif" font-size="10.00">Process</text>
</a>
</g>
</g>
<!-- Node3&#45;&gt;Node5 -->
<g id="edge8_Node000003_Node000005" class="edge">
<title>Node3&#45;&gt;Node5</title>
<g id="a_edge8_Node000003_Node000005"><a xlink:title=" ">
<path fill="none" stroke="#63b8ff" d="M289.54,-34.83C299.76,-32.99 310.28,-31.11 320.56,-29.26"/>
<polygon fill="#63b8ff" stroke="#63b8ff" points="320.88,-32.76 330.1,-27.55 319.64,-25.87 320.88,-32.76"/>
</a>
</g>
</g>
<!-- Node4&#45;&gt;Node4 -->
<g id="edge6_Node000004_Node000004" class="edge">
<title>Node4&#45;&gt;Node4</title>
<g id="a_edge6_Node000004_Node000004"><a xlink:title=" ">
<path fill="none" stroke="#63b8ff" d="M366.69,-97.99C359.97,-107.06 370.95,-115.5 399.62,-115.5 415.31,-115.5 425.7,-112.97 430.8,-109.2"/>
<polygon fill="#63b8ff" stroke="#63b8ff" points="434.23,-109.9 432.33,-99.48 427.31,-108.82 434.23,-109.9"/>
</a>
</g>
</g>
<!-- Node5&#45;&gt;Node5 -->
<g id="edge9_Node000005_Node000005" class="edge">
<title>Node5&#45;&gt;Node5</title>
<g id="a_edge9_Node000005_Node000005"><a xlink:title=" ">
<path fill="none" stroke="#63b8ff" d="M366.69,-30.99C359.97,-40.06 370.95,-48.5 399.62,-48.5 415.31,-48.5 425.7,-45.97 430.8,-42.2"/>
<polygon fill="#63b8ff" stroke="#63b8ff" points="434.23,-42.9 432.33,-32.48 427.31,-41.82 434.23,-42.9"/>
</a>
</g>
</g>
</g>
</svg>
