<?xml version="1.0" encoding="UTF-8" standalone="no"?>
<!DOCTYPE svg PUBLIC "-//W3C//DTD SVG 1.1//EN"
 "http://www.w3.org/Graphics/SVG/1.1/DTD/svg11.dtd">
<!-- Generated by graphviz version 14.0.2 (0)
 -->
<!-- Title: juce::TextEditor::setSelection Pages: 1 -->
<svg width="718pt" height="246pt"
 viewBox="0.00 0.00 718.00 246.00" xmlns="http://www.w3.org/2000/svg" xmlns:xlink="http://www.w3.org/1999/xlink">
<g id="graph0" class="graph" transform="scale(1 1) rotate(0) translate(4 241.5)">
<title>juce::TextEditor::setSelection</title>
<!-- Node1 -->
<g id="Node000001" class="node">
<title>Node1</title>
<g id="a_Node000001"><a xlink:title=" ">
<polygon fill="#999999" stroke="#666666" points="140.5,-115.88 0,-115.88 0,-96.62 140.5,-96.62 140.5,-115.88"/>
<text xml:space="preserve" text-anchor="middle" x="70.25" y="-102.38" font-family="Helvetica,sans-Serif" font-size="10.00">juce::TextEditor::setSelection</text>
</a>
</g>
</g>
<!-- Node1&#45;&gt;Node1 -->
<g id="edge13_Node000001_Node000001" class="edge">
<title>Node1&#45;&gt;Node1</title>
<g id="a_edge13_Node000001_Node000001"><a xlink:title=" ">
<path fill="none" stroke="#63b8ff" d="M41.03,-116.16C27.71,-124.77 37.44,-133.88 70.25,-133.88 89.22,-133.88 100.47,-130.83 104.02,-126.6"/>
<polygon fill="#63b8ff" stroke="#63b8ff" points="107.28,-125.32 100.07,-117.55 100.86,-128.12 107.28,-125.32"/>
</a>
</g>
</g>
<!-- Node2 -->
<g id="Node000002" class="node">
<title>Node2</title>
<g id="a_Node000002"><a xlink:href="classjuce_1_1Component.html#a861fb2ec2cd56732e46f818c28029151" target="_top" xlink:title=" ">
<polygon fill="white" stroke="#666666" points="337.25,-121.5 176.5,-121.5 176.5,-91 337.25,-91 337.25,-121.5"/>
<text xml:space="preserve" text-anchor="start" x="184.5" y="-108" font-family="Helvetica,sans-Serif" font-size="10.00">juce::Component::getAccessibility</text>
<text xml:space="preserve" text-anchor="middle" x="256.88" y="-96.75" font-family="Helvetica,sans-Serif" font-size="10.00">Handler</text>
</a>
</g>
</g>
<!-- Node1&#45;&gt;Node2 -->
<g id="edge1_Node000001_Node000002" class="edge">
<title>Node1&#45;&gt;Node2</title>
<g id="a_edge1_Node000001_Node000002"><a xlink:title=" ">
<path fill="none" stroke="#63b8ff" d="M140.79,-106.25C148.64,-106.25 156.72,-106.25 164.79,-106.25"/>
<polygon fill="#63b8ff" stroke="#63b8ff" points="164.66,-109.75 174.66,-106.25 164.66,-102.75 164.66,-109.75"/>
</a>
</g>
</g>
<!-- Node2&#45;&gt;Node2 -->
<g id="edge4_Node000002_Node000002" class="edge">
<title>Node2&#45;&gt;Node2</title>
<g id="a_edge4_Node000002_Node000002"><a xlink:title=" ">
<path fill="none" stroke="#63b8ff" d="M223.8,-121.99C217.06,-131.06 228.08,-139.5 256.88,-139.5 272.62,-139.5 283.06,-136.97 288.17,-133.2"/>
<polygon fill="#63b8ff" stroke="#63b8ff" points="291.6,-133.9 289.71,-123.48 284.69,-132.81 291.6,-133.9"/>
</a>
</g>
</g>
<!-- Node3 -->
<g id="Node000003" class="node">
<title>Node3</title>
<g id="a_Node000003"><a xlink:href="classjuce_1_1Component.html#a22c8d123a34615919b0f9e8e054fc34c" target="_top" xlink:title=" ">
<polygon fill="white" stroke="#666666" points="547.5,-219.5 373.25,-219.5 373.25,-189 547.5,-189 547.5,-219.5"/>
<text xml:space="preserve" text-anchor="start" x="381.25" y="-206" font-family="Helvetica,sans-Serif" font-size="10.00">juce::Component::createAccessibility</text>
<text xml:space="preserve" text-anchor="middle" x="460.38" y="-194.75" font-family="Helvetica,sans-Serif" font-size="10.00">Handler</text>
</a>
</g>
</g>
<!-- Node2&#45;&gt;Node3 -->
<g id="edge2_Node000002_Node000003" class="edge">
<title>Node2&#45;&gt;Node3</title>
<g id="a_edge2_Node000002_Node000003"><a xlink:title=" ">
<path fill="none" stroke="#63b8ff" d="M278.54,-121.87C300.88,-138.12 338.02,-163.38 373.25,-179.25 377.56,-181.19 382.06,-183.03 386.65,-184.75"/>
<polygon fill="#63b8ff" stroke="#63b8ff" points="385.43,-188.03 396.02,-188.06 387.76,-181.43 385.43,-188.03"/>
</a>
</g>
</g>
<!-- Node4 -->
<g id="Node000004" class="node">
<title>Node4</title>
<g id="a_Node000004"><a xlink:href="classjuce_1_1Component.html#a3cd89280b3300f41bd466b8bdee8d257" target="_top" xlink:title=" ">
<polygon fill="white" stroke="#666666" points="530.62,-152.5 390.12,-152.5 390.12,-122 530.62,-122 530.62,-152.5"/>
<text xml:space="preserve" text-anchor="start" x="398.12" y="-139" font-family="Helvetica,sans-Serif" font-size="10.00">juce::Component::getWindow</text>
<text xml:space="preserve" text-anchor="middle" x="460.38" y="-127.75" font-family="Helvetica,sans-Serif" font-size="10.00">Handle</text>
</a>
</g>
</g>
<!-- Node2&#45;&gt;Node4 -->
<g id="edge5_Node000002_Node000004" class="edge">
<title>Node2&#45;&gt;Node4</title>
<g id="a_edge5_Node000002_Node000004"><a xlink:title=" ">
<path fill="none" stroke="#63b8ff" d="M337.51,-118.5C351.01,-120.58 365.03,-122.74 378.55,-124.82"/>
<polygon fill="#63b8ff" stroke="#63b8ff" points="377.86,-128.25 388.27,-126.31 378.92,-121.33 377.86,-128.25"/>
</a>
</g>
</g>
<!-- Node14 -->
<g id="Node000014" class="node">
<title>Node14</title>
<g id="a_Node000014"><a xlink:href="classjuce_1_1Component.html#a17294dde2e6a1ddeb45ddcf2eede6ed1" target="_top" xlink:title=" ">
<polygon fill="white" stroke="#666666" points="534.38,-85.88 386.38,-85.88 386.38,-66.62 534.38,-66.62 534.38,-85.88"/>
<text xml:space="preserve" text-anchor="middle" x="460.38" y="-72.38" font-family="Helvetica,sans-Serif" font-size="10.00">juce::Component::isAccessible</text>
</a>
</g>
</g>
<!-- Node2&#45;&gt;Node14 -->
<g id="edge9_Node000002_Node000014" class="edge">
<title>Node2&#45;&gt;Node14</title>
<g id="a_edge9_Node000002_Node000014"><a xlink:title=" ">
<path fill="none" stroke="#63b8ff" d="M337.51,-94.39C351.57,-92.3 366.21,-90.12 380.26,-88.03"/>
<polygon fill="#63b8ff" stroke="#63b8ff" points="380.5,-91.53 389.88,-86.6 379.47,-84.61 380.5,-91.53"/>
</a>
</g>
</g>
<!-- Node15 -->
<g id="Node000015" class="node">
<title>Node15</title>
<g id="a_Node000015"><a xlink:href="namespacejuce.html#a5245af2f8664ea9983d2569b3f9da384" target="_top" xlink:title=" ">
<polygon fill="white" stroke="#666666" points="518.62,-30.5 402.12,-30.5 402.12,0 518.62,0 518.62,-30.5"/>
<text xml:space="preserve" text-anchor="start" x="410.12" y="-17" font-family="Helvetica,sans-Serif" font-size="10.00">juce::notifyAccessibility</text>
<text xml:space="preserve" text-anchor="middle" x="460.38" y="-5.75" font-family="Helvetica,sans-Serif" font-size="10.00">EventInternal</text>
</a>
</g>
</g>
<!-- Node2&#45;&gt;Node15 -->
<g id="edge11_Node000002_Node000015" class="edge">
<title>Node2&#45;&gt;Node15</title>
<g id="a_edge11_Node000002_Node000015"><a xlink:title=" ">
<path fill="none" stroke="#63b8ff" d="M292.51,-90.61C326.11,-75.44 377.25,-52.34 414.06,-35.71"/>
<polygon fill="#63b8ff" stroke="#63b8ff" points="415.46,-38.92 423.13,-31.62 412.58,-32.54 415.46,-38.92"/>
</a>
</g>
</g>
<!-- Node3&#45;&gt;Node3 -->
<g id="edge3_Node000003_Node000003" class="edge">
<title>Node3&#45;&gt;Node3</title>
<g id="a_edge3_Node000003_Node000003"><a xlink:title=" ">
<path fill="none" stroke="#63b8ff" d="M427.37,-219.99C420.64,-229.06 431.64,-237.5 460.38,-237.5 476.09,-237.5 486.5,-234.97 491.61,-231.2"/>
<polygon fill="#63b8ff" stroke="#63b8ff" points="495.04,-231.9 493.14,-221.48 488.13,-230.81 495.04,-231.9"/>
</a>
</g>
</g>
<!-- Node4&#45;&gt;Node4 -->
<g id="edge8_Node000004_Node000004" class="edge">
<title>Node4&#45;&gt;Node4</title>
<g id="a_edge8_Node000004_Node000004"><a xlink:title=" ">
<path fill="none" stroke="#63b8ff" d="M427.37,-152.99C420.64,-162.06 431.64,-170.5 460.38,-170.5 476.09,-170.5 486.5,-167.97 491.61,-164.2"/>
<polygon fill="#63b8ff" stroke="#63b8ff" points="495.04,-164.9 493.14,-154.48 488.13,-163.81 495.04,-164.9"/>
</a>
</g>
</g>
<!-- Node5 -->
<g id="Node000005" class="node">
<title>Node5</title>
<g id="a_Node000005"><a xlink:href="classjuce_1_1Component.html#ad13a2ae74f3e252382a58cf3e1e92a58" target="_top" xlink:title=" ">
<polygon fill="#fff0f0" stroke="red" points="709.75,-146.88 583.5,-146.88 583.5,-127.62 709.75,-127.62 709.75,-146.88"/>
<text xml:space="preserve" text-anchor="middle" x="646.62" y="-133.38" font-family="Helvetica,sans-Serif" font-size="10.00">juce::Component::getPeer</text>
</a>
</g>
</g>
<!-- Node4&#45;&gt;Node5 -->
<g id="edge6_Node000004_Node000005" class="edge">
<title>Node4&#45;&gt;Node5</title>
<g id="a_edge6_Node000004_Node000005"><a xlink:title=" ">
<path fill="none" stroke="#63b8ff" d="M531.03,-137.25C544.41,-137.25 558.46,-137.25 571.95,-137.25"/>
<polygon fill="#63b8ff" stroke="#63b8ff" points="571.62,-140.75 581.62,-137.25 571.62,-133.75 571.62,-140.75"/>
</a>
</g>
</g>
<!-- Node5&#45;&gt;Node5 -->
<g id="edge7_Node000005_Node000005" class="edge">
<title>Node5&#45;&gt;Node5</title>
<g id="a_edge7_Node000005_Node000005"><a xlink:title=" ">
<path fill="none" stroke="#63b8ff" d="M617.47,-147.16C604.17,-155.77 613.89,-164.88 646.62,-164.88 665.55,-164.88 676.79,-161.83 680.33,-157.6"/>
<polygon fill="#63b8ff" stroke="#63b8ff" points="683.59,-156.32 676.39,-148.55 677.17,-159.12 683.59,-156.32"/>
</a>
</g>
</g>
<!-- Node14&#45;&gt;Node14 -->
<g id="edge10_Node000014_Node000014" class="edge">
<title>Node14&#45;&gt;Node14</title>
<g id="a_edge10_Node000014_Node000014"><a xlink:title=" ">
<path fill="none" stroke="#63b8ff" d="M431.22,-86.16C417.92,-94.77 427.64,-103.88 460.38,-103.88 479.3,-103.88 490.54,-100.83 494.08,-96.6"/>
<polygon fill="#63b8ff" stroke="#63b8ff" points="497.34,-95.32 490.14,-87.55 490.92,-98.12 497.34,-95.32"/>
</a>
</g>
</g>
<!-- Node15&#45;&gt;Node15 -->
<g id="edge12_Node000015_Node000015" class="edge">
<title>Node15&#45;&gt;Node15</title>
<g id="a_edge12_Node000015_Node000015"><a xlink:title=" ">
<path fill="none" stroke="#63b8ff" d="M427.37,-30.99C420.64,-40.06 431.64,-48.5 460.38,-48.5 476.09,-48.5 486.5,-45.97 491.61,-42.2"/>
<polygon fill="#63b8ff" stroke="#63b8ff" points="495.04,-42.9 493.14,-32.48 488.13,-41.81 495.04,-42.9"/>
</a>
</g>
</g>
</g>
</svg>
