<?xml version="1.0" encoding="UTF-8" standalone="no"?>
<!DOCTYPE svg PUBLIC "-//W3C//DTD SVG 1.1//EN"
 "http://www.w3.org/Graphics/SVG/1.1/DTD/svg11.dtd">
<!-- Generated by graphviz version 14.0.2 (0)
 -->
<!-- Title: lmms::InstrumentTrack::baseNote Pages: 1 -->
<svg width="757pt" height="256pt"
 viewBox="0.00 0.00 757.00 256.00" xmlns="http://www.w3.org/2000/svg" xmlns:xlink="http://www.w3.org/1999/xlink">
<g id="graph0" class="graph" transform="scale(1 1) rotate(0) translate(4 251.5)">
<title>lmms::InstrumentTrack::baseNote</title>
<!-- Node1 -->
<g id="Node000001" class="node">
<title>Node1</title>
<g id="a_Node000001"><a xlink:title="Return base key number, based on currently selected keymap or user selection.">
<polygon fill="#999999" stroke="#666666" points="749,-129.5 633.25,-129.5 633.25,-99 749,-99 749,-129.5"/>
<text xml:space="preserve" text-anchor="start" x="641.25" y="-116" font-family="Helvetica,sans-Serif" font-size="10.00">lmms::InstrumentTrack</text>
<text xml:space="preserve" text-anchor="middle" x="691.12" y="-104.75" font-family="Helvetica,sans-Serif" font-size="10.00">::baseNote</text>
</a>
</g>
</g>
<!-- Node2 -->
<g id="Node000002" class="node">
<title>Node2</title>
<g id="a_Node000002"><a xlink:href="classlmms_1_1InstrumentTrack.html#a178a07d1497e673d163a320f94ffce8e" target="_top" xlink:title=" ">
<polygon fill="white" stroke="#666666" points="589.75,-202.5 474,-202.5 474,-172 589.75,-172 589.75,-202.5"/>
<text xml:space="preserve" text-anchor="start" x="482" y="-189" font-family="Helvetica,sans-Serif" font-size="10.00">lmms::InstrumentTrack</text>
<text xml:space="preserve" text-anchor="middle" x="531.88" y="-177.75" font-family="Helvetica,sans-Serif" font-size="10.00">::masterKey</text>
</a>
</g>
</g>
<!-- Node1&#45;&gt;Node2 -->
<g id="edge1_Node000001_Node000002" class="edge">
<title>Node1&#45;&gt;Node2</title>
<g id="a_edge1_Node000001_Node000002"><a xlink:title=" ">
<path fill="none" stroke="#63b8ff" d="M646,-134.73C620.82,-146.42 589.76,-160.84 566.55,-171.62"/>
<polygon fill="#63b8ff" stroke="#63b8ff" points="647.42,-137.93 655.02,-130.55 644.47,-131.58 647.42,-137.93"/>
</a>
</g>
</g>
<!-- Node10 -->
<g id="Node000010" class="node">
<title>Node10</title>
<g id="a_Node000010"><a xlink:href="classlmms_1_1NotePlayHandle.html#a938b51d373d06541a812dccf2b24c244" target="_top" xlink:title=" ">
<polygon fill="white" stroke="#666666" points="589.38,-129.5 474.38,-129.5 474.38,-99 589.38,-99 589.38,-129.5"/>
<text xml:space="preserve" text-anchor="start" x="482.38" y="-116" font-family="Helvetica,sans-Serif" font-size="10.00">lmms::NotePlayHandle</text>
<text xml:space="preserve" text-anchor="middle" x="531.88" y="-104.75" font-family="Helvetica,sans-Serif" font-size="10.00">::midiKey</text>
</a>
</g>
</g>
<!-- Node1&#45;&gt;Node10 -->
<g id="edge6_Node000001_Node000010" class="edge">
<title>Node1&#45;&gt;Node10</title>
<g id="a_edge6_Node000001_Node000010"><a xlink:title=" ">
<path fill="none" stroke="#63b8ff" d="M621.54,-114.25C610.94,-114.25 600.09,-114.25 589.78,-114.25"/>
<polygon fill="#63b8ff" stroke="#63b8ff" points="621.4,-117.75 631.4,-114.25 621.4,-110.75 621.4,-117.75"/>
</a>
</g>
</g>
<!-- Node18 -->
<g id="Node000018" class="node">
<title>Node18</title>
<g id="a_Node000018"><a xlink:href="classlmms_1_1Xpressive.html#a470eb167e600cc590bb176d9c4838804" target="_top" xlink:title=" ">
<polygon fill="white" stroke="#666666" points="597.25,-80.88 466.5,-80.88 466.5,-61.62 597.25,-61.62 597.25,-80.88"/>
<text xml:space="preserve" text-anchor="middle" x="531.88" y="-67.38" font-family="Helvetica,sans-Serif" font-size="10.00">lmms::Xpressive::playNote</text>
</a>
</g>
</g>
<!-- Node1&#45;&gt;Node18 -->
<g id="edge15_Node000001_Node000018" class="edge">
<title>Node1&#45;&gt;Node18</title>
<g id="a_edge15_Node000001_Node000018"><a xlink:title=" ">
<path fill="none" stroke="#63b8ff" d="M621.88,-95.59C603.96,-90.69 585.3,-85.59 569.73,-81.33"/>
<polygon fill="#63b8ff" stroke="#63b8ff" points="620.88,-98.94 631.45,-98.21 622.73,-92.19 620.88,-98.94"/>
</a>
</g>
</g>
<!-- Node3 -->
<g id="Node000003" class="node">
<title>Node3</title>
<g id="a_Node000003"><a xlink:href="classlmms_1_1InstrumentTrack.html#afedcb3e16bace2d5a06d46e14fcb52b3" target="_top" xlink:title=" ">
<polygon fill="white" stroke="#666666" points="430.5,-226.5 314.75,-226.5 314.75,-196 430.5,-196 430.5,-226.5"/>
<text xml:space="preserve" text-anchor="start" x="322.75" y="-213" font-family="Helvetica,sans-Serif" font-size="10.00">lmms::InstrumentTrack</text>
<text xml:space="preserve" text-anchor="middle" x="372.62" y="-201.75" font-family="Helvetica,sans-Serif" font-size="10.00">::applyMasterKey</text>
</a>
</g>
</g>
<!-- Node2&#45;&gt;Node3 -->
<g id="edge2_Node000002_Node000003" class="edge">
<title>Node2&#45;&gt;Node3</title>
<g id="a_edge2_Node000002_Node000003"><a xlink:title=" ">
<path fill="none" stroke="#63b8ff" d="M462.36,-197.71C451.83,-199.31 441.05,-200.96 430.8,-202.52"/>
<polygon fill="#63b8ff" stroke="#63b8ff" points="462.81,-201.18 472.16,-196.21 461.75,-194.26 462.81,-201.18"/>
</a>
</g>
</g>
<!-- Node4 -->
<g id="Node000004" class="node">
<title>Node4</title>
<g id="a_Node000004"><a xlink:href="classlmms_1_1InstrumentTrack.html#ac3ef9adbbe1f51a650cd76d35525fa9e" target="_top" xlink:title=" ">
<polygon fill="white" stroke="#666666" points="124,-247.5 0,-247.5 0,-217 124,-217 124,-247.5"/>
<text xml:space="preserve" text-anchor="start" x="8" y="-234" font-family="Helvetica,sans-Serif" font-size="10.00">lmms::InstrumentTrack</text>
<text xml:space="preserve" text-anchor="middle" x="62" y="-222.75" font-family="Helvetica,sans-Serif" font-size="10.00">::mapPropertyFromModel</text>
</a>
</g>
</g>
<!-- Node3&#45;&gt;Node4 -->
<g id="edge3_Node000003_Node000004" class="edge">
<title>Node3&#45;&gt;Node4</title>
<g id="a_edge3_Node000003_Node000004"><a xlink:title=" ">
<path fill="none" stroke="#63b8ff" d="M309.57,-229.59C299.36,-231.94 288.82,-233.97 278.75,-235.25 226.91,-241.84 167.5,-240.36 124.17,-237.64"/>
<polygon fill="#63b8ff" stroke="#63b8ff" points="310.14,-233.05 319.02,-227.29 308.48,-226.25 310.14,-233.05"/>
</a>
</g>
</g>
<!-- Node5 -->
<g id="Node000005" class="node">
<title>Node5</title>
<g id="a_Node000005"><a xlink:href="classlmms_1_1InstrumentTrack.html#a75805a1587c237685721ed358d600498" target="_top" xlink:title=" ">
<polygon fill="#fff0f0" stroke="red" points="277.25,-226.5 161.5,-226.5 161.5,-196 277.25,-196 277.25,-226.5"/>
<text xml:space="preserve" text-anchor="start" x="169.5" y="-213" font-family="Helvetica,sans-Serif" font-size="10.00">lmms::InstrumentTrack</text>
<text xml:space="preserve" text-anchor="middle" x="219.38" y="-201.75" font-family="Helvetica,sans-Serif" font-size="10.00">::processOutEvent</text>
</a>
</g>
</g>
<!-- Node3&#45;&gt;Node5 -->
<g id="edge4_Node000003_Node000005" class="edge">
<title>Node3&#45;&gt;Node5</title>
<g id="a_edge4_Node000003_Node000005"><a xlink:title=" ">
<path fill="none" stroke="#63b8ff" d="M303,-211.25C294.52,-211.25 285.92,-211.25 277.64,-211.25"/>
<polygon fill="#63b8ff" stroke="#63b8ff" points="302.93,-214.75 312.93,-211.25 302.93,-207.75 302.93,-214.75"/>
</a>
</g>
</g>
<!-- Node5&#45;&gt;Node4 -->
<g id="edge5_Node000005_Node000004" class="edge">
<title>Node5&#45;&gt;Node4</title>
<g id="a_edge5_Node000005_Node000004"><a xlink:title=" ">
<path fill="none" stroke="#63b8ff" d="M150.23,-220.46C141.64,-221.62 132.89,-222.8 124.41,-223.95"/>
<polygon fill="#63b8ff" stroke="#63b8ff" points="150.46,-223.96 159.9,-219.15 149.52,-217.02 150.46,-223.96"/>
</a>
</g>
</g>
<!-- Node11 -->
<g id="Node000011" class="node">
<title>Node11</title>
<g id="a_Node000011"><a xlink:href="classlmms_1_1NotePlayHandle.html#acf39a9eb81a4c1247c5b8b7e875a4eb7" target="_top" xlink:title=" ">
<polygon fill="white" stroke="#666666" points="430.12,-129.5 315.12,-129.5 315.12,-99 430.12,-99 430.12,-129.5"/>
<text xml:space="preserve" text-anchor="start" x="323.12" y="-116" font-family="Helvetica,sans-Serif" font-size="10.00">lmms::NotePlayHandle</text>
<text xml:space="preserve" text-anchor="middle" x="372.62" y="-104.75" font-family="Helvetica,sans-Serif" font-size="10.00">::noteOff</text>
</a>
</g>
</g>
<!-- Node10&#45;&gt;Node11 -->
<g id="edge7_Node000010_Node000011" class="edge">
<title>Node10&#45;&gt;Node11</title>
<g id="a_edge7_Node000010_Node000011"><a xlink:title=" ">
<path fill="none" stroke="#63b8ff" d="M462.64,-114.25C451.94,-114.25 440.98,-114.25 430.58,-114.25"/>
<polygon fill="#63b8ff" stroke="#63b8ff" points="462.59,-117.75 472.59,-114.25 462.59,-110.75 462.59,-117.75"/>
</a>
</g>
</g>
<!-- Node12 -->
<g id="Node000012" class="node">
<title>Node12</title>
<g id="a_Node000012"><a xlink:href="classlmms_1_1NotePlayHandle.html#a1551291146d4e6124f8475415433c3e1" target="_top" xlink:title=" ">
<polygon fill="white" stroke="#666666" points="276.88,-177.5 161.88,-177.5 161.88,-147 276.88,-147 276.88,-177.5"/>
<text xml:space="preserve" text-anchor="start" x="169.88" y="-164" font-family="Helvetica,sans-Serif" font-size="10.00">lmms::NotePlayHandle</text>
<text xml:space="preserve" text-anchor="middle" x="219.38" y="-152.75" font-family="Helvetica,sans-Serif" font-size="10.00">::play</text>
</a>
</g>
</g>
<!-- Node10&#45;&gt;Node12 -->
<g id="edge12_Node000010_Node000012" class="edge">
<title>Node10&#45;&gt;Node12</title>
<g id="a_edge12_Node000010_Node000012"><a xlink:title=" ">
<path fill="none" stroke="#63b8ff" d="M462.94,-131.67C452.13,-134.1 441.04,-136.39 430.5,-138.25 378.97,-147.32 319.7,-153.73 277.27,-157.63"/>
<polygon fill="#63b8ff" stroke="#63b8ff" points="463.63,-135.1 472.59,-129.44 462.06,-128.28 463.63,-135.1"/>
</a>
</g>
</g>
<!-- Node16 -->
<g id="Node000016" class="node">
<title>Node16</title>
<g id="a_Node000016"><a xlink:href="classlmms_1_1Sf2Instrument.html#aa68f80a5f8fd493dea7183d80d71af40" target="_top" xlink:title=" ">
<polygon fill="white" stroke="#666666" points="425.62,-80.5 319.62,-80.5 319.62,-50 425.62,-50 425.62,-80.5"/>
<text xml:space="preserve" text-anchor="start" x="327.62" y="-67" font-family="Helvetica,sans-Serif" font-size="10.00">lmms::Sf2Instrument</text>
<text xml:space="preserve" text-anchor="middle" x="372.62" y="-55.75" font-family="Helvetica,sans-Serif" font-size="10.00">::playNote</text>
</a>
</g>
</g>
<!-- Node10&#45;&gt;Node16 -->
<g id="edge13_Node000010_Node000016" class="edge">
<title>Node10&#45;&gt;Node16</title>
<g id="a_edge13_Node000010_Node000016"><a xlink:title=" ">
<path fill="none" stroke="#63b8ff" d="M469.87,-95.24C454.75,-90.53 438.71,-85.53 424.14,-80.99"/>
<polygon fill="#63b8ff" stroke="#63b8ff" points="468.65,-98.53 479.24,-98.16 470.74,-91.84 468.65,-98.53"/>
</a>
</g>
</g>
<!-- Node17 -->
<g id="Node000017" class="node">
<title>Node17</title>
<g id="a_Node000017"><a xlink:href="classlmms_1_1NotePlayHandle.html#ac69d519334168ad27ddff80d6d7ca51f" target="_top" xlink:title=" ">
<polygon fill="white" stroke="#666666" points="430.12,-31.5 315.12,-31.5 315.12,-1 430.12,-1 430.12,-31.5"/>
<text xml:space="preserve" text-anchor="start" x="323.12" y="-18" font-family="Helvetica,sans-Serif" font-size="10.00">lmms::NotePlayHandle</text>
<text xml:space="preserve" text-anchor="middle" x="372.62" y="-6.75" font-family="Helvetica,sans-Serif" font-size="10.00">::setVolume</text>
</a>
</g>
</g>
<!-- Node10&#45;&gt;Node17 -->
<g id="edge14_Node000010_Node000017" class="edge">
<title>Node10&#45;&gt;Node17</title>
<g id="a_edge14_Node000010_Node000017"><a xlink:title=" ">
<path fill="none" stroke="#63b8ff" d="M470.55,-93.11C469.16,-92.19 467.81,-91.24 466.5,-90.25 444.94,-73.96 451.59,-58.15 430.5,-41.25 426.12,-37.74 421.18,-34.63 416.08,-31.89"/>
<polygon fill="#63b8ff" stroke="#63b8ff" points="468.44,-95.93 478.85,-97.89 471.94,-89.86 468.44,-95.93"/>
</a>
</g>
</g>
<!-- Node11&#45;&gt;Node12 -->
<g id="edge8_Node000011_Node000012" class="edge">
<title>Node11&#45;&gt;Node12</title>
<g id="a_edge8_Node000011_Node000012"><a xlink:title=" ">
<path fill="none" stroke="#63b8ff" d="M311.24,-133.41C297.47,-137.78 283,-142.38 269.75,-146.58"/>
<polygon fill="#63b8ff" stroke="#63b8ff" points="312.18,-136.79 320.66,-130.42 310.07,-130.11 312.18,-136.79"/>
</a>
</g>
</g>
<!-- Node13 -->
<g id="Node000013" class="node">
<title>Node13</title>
<g id="a_Node000013"><a xlink:href="classlmms_1_1KickerInstrument.html#a5450fa03ba3681272d60a42571f88e49" target="_top" xlink:title=" ">
<polygon fill="white" stroke="#666666" points="278.75,-128.5 160,-128.5 160,-98 278.75,-98 278.75,-128.5"/>
<text xml:space="preserve" text-anchor="start" x="168" y="-115" font-family="Helvetica,sans-Serif" font-size="10.00">lmms::KickerInstrument</text>
<text xml:space="preserve" text-anchor="middle" x="219.38" y="-103.75" font-family="Helvetica,sans-Serif" font-size="10.00">::playNote</text>
</a>
</g>
</g>
<!-- Node11&#45;&gt;Node13 -->
<g id="edge9_Node000011_Node000013" class="edge">
<title>Node11&#45;&gt;Node13</title>
<g id="a_edge9_Node000011_Node000013"><a xlink:title=" ">
<path fill="none" stroke="#63b8ff" d="M303.52,-113.8C295.41,-113.75 287.18,-113.69 279.21,-113.64"/>
<polygon fill="#63b8ff" stroke="#63b8ff" points="303.34,-117.3 313.36,-113.86 303.38,-110.3 303.34,-117.3"/>
</a>
</g>
</g>
<!-- Node14 -->
<g id="Node000014" class="node">
<title>Node14</title>
<g id="a_Node000014"><a xlink:href="classlmms_1_1SfxrInstrument.html#a86cf20ced9f9f23cb9b98ce367038d7d" target="_top" xlink:title=" ">
<polygon fill="white" stroke="#666666" points="273.5,-79.5 165.25,-79.5 165.25,-49 273.5,-49 273.5,-79.5"/>
<text xml:space="preserve" text-anchor="start" x="173.25" y="-66" font-family="Helvetica,sans-Serif" font-size="10.00">lmms::SfxrInstrument</text>
<text xml:space="preserve" text-anchor="middle" x="219.38" y="-54.75" font-family="Helvetica,sans-Serif" font-size="10.00">::playNote</text>
</a>
</g>
</g>
<!-- Node11&#45;&gt;Node14 -->
<g id="edge10_Node000011_Node000014" class="edge">
<title>Node11&#45;&gt;Node14</title>
<g id="a_edge10_Node000011_Node000014"><a xlink:title=" ">
<path fill="none" stroke="#63b8ff" d="M313.43,-95.01C298.38,-90.04 282.35,-84.74 267.91,-79.96"/>
<polygon fill="#63b8ff" stroke="#63b8ff" points="312.15,-98.28 322.75,-98.09 314.35,-91.63 312.15,-98.28"/>
</a>
</g>
</g>
<!-- Node15 -->
<g id="Node000015" class="node">
<title>Node15</title>
<g id="a_Node000015"><a xlink:href="classlmms_1_1NotePlayHandle.html#a6cc8f17ec8cdc1fcfa65972647a8711a" target="_top" xlink:title=" ">
<polygon fill="white" stroke="#666666" points="276.88,-30.5 161.88,-30.5 161.88,0 276.88,0 276.88,-30.5"/>
<text xml:space="preserve" text-anchor="start" x="169.88" y="-17" font-family="Helvetica,sans-Serif" font-size="10.00">lmms::NotePlayHandle</text>
<text xml:space="preserve" text-anchor="middle" x="219.38" y="-5.75" font-family="Helvetica,sans-Serif" font-size="10.00">::~NotePlayHandle</text>
</a>
</g>
</g>
<!-- Node11&#45;&gt;Node15 -->
<g id="edge11_Node000011_Node000015" class="edge">
<title>Node11&#45;&gt;Node15</title>
<g id="a_edge11_Node000011_Node000015"><a xlink:title=" ">
<path fill="none" stroke="#63b8ff" d="M319.45,-92.73C317.83,-91.62 316.25,-90.46 314.75,-89.25 293.66,-72.35 299.92,-57.05 278.75,-40.25 274.35,-36.75 269.38,-33.66 264.25,-30.94"/>
<polygon fill="#63b8ff" stroke="#63b8ff" points="317.51,-95.65 327.88,-97.82 321.13,-89.66 317.51,-95.65"/>
</a>
</g>
</g>
</g>
</svg>
