<?xml version="1.0" encoding="UTF-8" standalone="no"?>
<!DOCTYPE svg PUBLIC "-//W3C//DTD SVG 1.1//EN"
 "http://www.w3.org/Graphics/SVG/1.1/DTD/svg11.dtd">
<!-- Generated by graphviz version 14.0.2 (0)
 -->
<!-- Title: lmms::DspEffectLibrary::Distortion Pages: 1 -->
<svg width="250pt" height="487pt"
 viewBox="0.00 0.00 250.00 487.00" xmlns="http://www.w3.org/2000/svg" xmlns:xlink="http://www.w3.org/1999/xlink">
<g id="graph0" class="graph" transform="scale(1 1) rotate(0) translate(4 483)">
<title>lmms::DspEffectLibrary::Distortion</title>
<!-- Node1 -->
<g id="Node000001" class="node">
<title>Node1</title>
<g id="a_Node000001"><a xlink:title=" ">
<polygon fill="#999999" stroke="none" points="176.25,-61 68.5,-61 68.5,0 176.25,0 176.25,-61"/>
<text xml:space="preserve" text-anchor="start" x="72.5" y="-47.5" font-family="Helvetica,sans-Serif" font-size="10.00">lmms::DspEffectLibrary</text>
<text xml:space="preserve" text-anchor="start" x="99.5" y="-36.25" font-family="Helvetica,sans-Serif" font-size="10.00">::Distortion</text>
<text xml:space="preserve" text-anchor="start" x="120.88" y="-21" font-family="Helvetica,sans-Serif" font-size="10.00"> </text>
<text xml:space="preserve" text-anchor="start" x="80.69" y="-5.75" font-family="Helvetica,sans-Serif" font-size="10.00">+</text>
<text xml:space="preserve" text-anchor="start" x="98.88" y="-5.75" font-family="Helvetica,sans-Serif" font-size="10.00">nextSample()</text>
<polygon fill="#666666" stroke="#666666" points="68.5,-32.5 68.5,-32.5 176.25,-32.5 176.25,-32.5 68.5,-32.5"/>
<polygon fill="#666666" stroke="#666666" points="68.5,-17.25 68.5,-17.25 176.25,-17.25 176.25,-17.25 68.5,-17.25"/>
<polygon fill="none" stroke="#666666" points="68.5,0 68.5,-61 176.25,-61 176.25,0 68.5,0"/>
</a>
</g>
</g>
<!-- Node2 -->
<g id="Node000002" class="node">
<title>Node2</title>
<g id="a_Node000002"><a xlink:href="classlmms_1_1DspEffectLibrary_1_1DistortionBase.html" target="_top" xlink:title=" ">
<polygon fill="white" stroke="none" points="189.38,-204.75 55.38,-204.75 55.38,-98 189.38,-98 189.38,-204.75"/>
<text xml:space="preserve" text-anchor="start" x="59.38" y="-191.25" font-family="Helvetica,sans-Serif" font-size="10.00">lmms::DspEffectLibrary</text>
<text xml:space="preserve" text-anchor="start" x="59.38" y="-180" font-family="Helvetica,sans-Serif" font-size="10.00">::DistortionBase&lt; Distortion &gt;</text>
<text xml:space="preserve" text-anchor="start" x="71.31" y="-164.75" font-family="Helvetica,sans-Serif" font-size="10.00">#</text>
<text xml:space="preserve" text-anchor="start" x="92.5" y="-164.75" font-family="Helvetica,sans-Serif" font-size="10.00">m_threshold</text>
<text xml:space="preserve" text-anchor="start" x="71.31" y="-149.5" font-family="Helvetica,sans-Serif" font-size="10.00">#</text>
<text xml:space="preserve" text-anchor="start" x="92.5" y="-149.5" font-family="Helvetica,sans-Serif" font-size="10.00">m_gain</text>
<text xml:space="preserve" text-anchor="start" x="70.94" y="-134.25" font-family="Helvetica,sans-Serif" font-size="10.00">+</text>
<text xml:space="preserve" text-anchor="start" x="92.5" y="-134.25" font-family="Helvetica,sans-Serif" font-size="10.00">DistortionBase()</text>
<text xml:space="preserve" text-anchor="start" x="70.94" y="-119" font-family="Helvetica,sans-Serif" font-size="10.00">+</text>
<text xml:space="preserve" text-anchor="start" x="92.5" y="-119" font-family="Helvetica,sans-Serif" font-size="10.00">setThreshold()</text>
<text xml:space="preserve" text-anchor="start" x="70.94" y="-103.75" font-family="Helvetica,sans-Serif" font-size="10.00">+</text>
<text xml:space="preserve" text-anchor="start" x="92.5" y="-103.75" font-family="Helvetica,sans-Serif" font-size="10.00">setGain()</text>
<polygon fill="#666666" stroke="#666666" points="55.38,-176.25 55.38,-176.25 189.38,-176.25 189.38,-176.25 55.38,-176.25"/>
<polygon fill="#666666" stroke="#666666" points="55.38,-145.75 55.38,-145.75 90.5,-145.75 90.5,-145.75 55.38,-145.75"/>
<polygon fill="#666666" stroke="#666666" points="90.5,-145.75 90.5,-145.75 189.38,-145.75 189.38,-145.75 90.5,-145.75"/>
<polygon fill="none" stroke="#666666" points="55.38,-98 55.38,-204.75 189.38,-204.75 189.38,-98 55.38,-98"/>
</a>
</g>
</g>
<!-- Node2&#45;&gt;Node1 -->
<g id="edge1_Node000001_Node000002" class="edge">
<title>Node2&#45;&gt;Node1</title>
<g id="a_edge1_Node000001_Node000002"><a xlink:title=" ">
<path fill="none" stroke="#63b8ff" d="M122.38,-86.73C122.38,-77.65 122.38,-68.71 122.38,-60.75"/>
<polygon fill="none" stroke="#63b8ff" points="118.88,-86.72 122.38,-96.72 125.88,-86.72 118.88,-86.72"/>
</a>
</g>
</g>
<!-- Node3 -->
<g id="Node000003" class="node">
<title>Node3</title>
<g id="a_Node000003"><a xlink:href="classlmms_1_1DspEffectLibrary_1_1MonoBase.html" target="_top" xlink:title=" ">
<polygon fill="white" stroke="none" points="116.75,-341.88 0,-341.88 0,-280.88 116.75,-280.88 116.75,-341.88"/>
<text xml:space="preserve" text-anchor="start" x="4" y="-328.38" font-family="Helvetica,sans-Serif" font-size="10.00">lmms::DspEffectLibrary</text>
<text xml:space="preserve" text-anchor="start" x="4" y="-317.12" font-family="Helvetica,sans-Serif" font-size="10.00">::MonoBase&lt; Distortion &gt;</text>
<text xml:space="preserve" text-anchor="start" x="56.88" y="-301.88" font-family="Helvetica,sans-Serif" font-size="10.00"> </text>
<text xml:space="preserve" text-anchor="start" x="18.56" y="-286.62" font-family="Helvetica,sans-Serif" font-size="10.00">+</text>
<text xml:space="preserve" text-anchor="start" x="43.12" y="-286.62" font-family="Helvetica,sans-Serif" font-size="10.00">process()</text>
<polygon fill="#666666" stroke="#666666" points="0,-313.38 0,-313.38 116.75,-313.38 116.75,-313.38 0,-313.38"/>
<polygon fill="#666666" stroke="#666666" points="0,-298.12 0,-298.12 116.75,-298.12 116.75,-298.12 0,-298.12"/>
<polygon fill="none" stroke="#666666" points="0,-280.88 0,-341.88 116.75,-341.88 116.75,-280.88 0,-280.88"/>
</a>
</g>
</g>
<!-- Node3&#45;&gt;Node2 -->
<g id="edge2_Node000002_Node000003" class="edge">
<title>Node3&#45;&gt;Node2</title>
<g id="a_edge2_Node000002_Node000003"><a xlink:title=" ">
<path fill="none" stroke="#63b8ff" d="M74.55,-270.43C82.64,-250.46 92.54,-226.03 101.22,-204.59"/>
<polygon fill="none" stroke="#63b8ff" points="71.34,-269.04 70.83,-279.62 77.83,-271.67 71.34,-269.04"/>
</a>
</g>
</g>
<!-- Node4 -->
<g id="Node000004" class="node">
<title>Node4</title>
<g id="a_Node000004"><a xlink:href="classlmms_1_1DspEffectLibrary_1_1MonoBase.html" target="_top" xlink:title=" ">
<polygon fill="white" stroke="none" points="112.25,-479 4.5,-479 4.5,-418 112.25,-418 112.25,-479"/>
<text xml:space="preserve" text-anchor="start" x="8.5" y="-465.5" font-family="Helvetica,sans-Serif" font-size="10.00">lmms::DspEffectLibrary</text>
<text xml:space="preserve" text-anchor="start" x="21.62" y="-454.25" font-family="Helvetica,sans-Serif" font-size="10.00">::MonoBase&lt; T &gt;</text>
<text xml:space="preserve" text-anchor="start" x="56.88" y="-439" font-family="Helvetica,sans-Serif" font-size="10.00"> </text>
<text xml:space="preserve" text-anchor="start" x="20.81" y="-423.75" font-family="Helvetica,sans-Serif" font-size="10.00">+</text>
<text xml:space="preserve" text-anchor="start" x="43.12" y="-423.75" font-family="Helvetica,sans-Serif" font-size="10.00">process()</text>
<polygon fill="#666666" stroke="#666666" points="4.5,-450.5 4.5,-450.5 112.25,-450.5 112.25,-450.5 4.5,-450.5"/>
<polygon fill="#666666" stroke="#666666" points="4.5,-435.25 4.5,-435.25 112.25,-435.25 112.25,-435.25 4.5,-435.25"/>
<polygon fill="none" stroke="#666666" points="4.5,-418 4.5,-479 112.25,-479 112.25,-418 4.5,-418"/>
</a>
</g>
</g>
<!-- Node4&#45;&gt;Node3 -->
<g id="edge3_Node000003_Node000004" class="edge">
<title>Node4&#45;&gt;Node3</title>
<g id="a_edge3_Node000003_Node000004"><a xlink:title=" ">
<path fill="none" stroke="orange" d="M58.38,-406.7C58.38,-385.73 58.38,-360.66 58.38,-341.64"/>
<polygon fill="orange" stroke="orange" points="54.88,-406.67 58.38,-416.67 61.88,-406.67 54.88,-406.67"/>
</a>
</g>
<text xml:space="preserve" text-anchor="start" x="61.38" y="-387.5" font-family="Helvetica,sans-Serif" font-size="10.00" fill="grey">&lt; Distortion &gt;</text>
</g>
<!-- Node5 -->
<g id="Node000005" class="node">
<title>Node5</title>
<g id="a_Node000005"><a xlink:href="classlmms_1_1DspEffectLibrary_1_1DistortionBase.html" target="_top" xlink:title=" ">
<polygon fill="white" stroke="none" points="242.25,-364.75 134.5,-364.75 134.5,-258 242.25,-258 242.25,-364.75"/>
<text xml:space="preserve" text-anchor="start" x="138.5" y="-351.25" font-family="Helvetica,sans-Serif" font-size="10.00">lmms::DspEffectLibrary</text>
<text xml:space="preserve" text-anchor="start" x="143" y="-340" font-family="Helvetica,sans-Serif" font-size="10.00">::DistortionBase&lt; T &gt;</text>
<text xml:space="preserve" text-anchor="start" x="143.88" y="-324.75" font-family="Helvetica,sans-Serif" font-size="10.00">#</text>
<text xml:space="preserve" text-anchor="start" x="158.5" y="-324.75" font-family="Helvetica,sans-Serif" font-size="10.00">m_threshold</text>
<text xml:space="preserve" text-anchor="start" x="143.88" y="-309.5" font-family="Helvetica,sans-Serif" font-size="10.00">#</text>
<text xml:space="preserve" text-anchor="start" x="158.5" y="-309.5" font-family="Helvetica,sans-Serif" font-size="10.00">m_gain</text>
<text xml:space="preserve" text-anchor="start" x="143.5" y="-294.25" font-family="Helvetica,sans-Serif" font-size="10.00">+</text>
<text xml:space="preserve" text-anchor="start" x="158.5" y="-294.25" font-family="Helvetica,sans-Serif" font-size="10.00">DistortionBase()</text>
<text xml:space="preserve" text-anchor="start" x="143.5" y="-279" font-family="Helvetica,sans-Serif" font-size="10.00">+</text>
<text xml:space="preserve" text-anchor="start" x="158.5" y="-279" font-family="Helvetica,sans-Serif" font-size="10.00">setThreshold()</text>
<text xml:space="preserve" text-anchor="start" x="143.5" y="-263.75" font-family="Helvetica,sans-Serif" font-size="10.00">+</text>
<text xml:space="preserve" text-anchor="start" x="158.5" y="-263.75" font-family="Helvetica,sans-Serif" font-size="10.00">setGain()</text>
<polygon fill="#666666" stroke="#666666" points="134.5,-336.25 134.5,-336.25 242.25,-336.25 242.25,-336.25 134.5,-336.25"/>
<polygon fill="#666666" stroke="#666666" points="134.5,-305.75 134.5,-305.75 156.5,-305.75 156.5,-305.75 134.5,-305.75"/>
<polygon fill="#666666" stroke="#666666" points="156.5,-305.75 156.5,-305.75 242.25,-305.75 242.25,-305.75 156.5,-305.75"/>
<polygon fill="none" stroke="#666666" points="134.5,-258 134.5,-364.75 242.25,-364.75 242.25,-258 134.5,-258"/>
</a>
</g>
</g>
<!-- Node5&#45;&gt;Node2 -->
<g id="edge4_Node000002_Node000005" class="edge">
<title>Node5&#45;&gt;Node2</title>
<g id="a_edge4_Node000002_Node000005"><a xlink:title=" ">
<path fill="none" stroke="orange" d="M162.28,-247.9C156.27,-233.52 149.95,-218.38 144.15,-204.49"/>
<polygon fill="orange" stroke="orange" points="158.91,-248.93 166,-256.81 165.37,-246.23 158.91,-248.93"/>
</a>
</g>
<text xml:space="preserve" text-anchor="start" x="160.35" y="-227.5" font-family="Helvetica,sans-Serif" font-size="10.00" fill="grey">&lt; Distortion &gt;</text>
</g>
<!-- Node6 -->
<g id="Node000006" class="node">
<title>Node6</title>
<g id="a_Node000006"><a xlink:href="classlmms_1_1DspEffectLibrary_1_1MonoBase.html" target="_top" xlink:title=" ">
<polygon fill="white" stroke="none" points="242.25,-479 134.5,-479 134.5,-418 242.25,-418 242.25,-479"/>
<text xml:space="preserve" text-anchor="start" x="138.5" y="-465.5" font-family="Helvetica,sans-Serif" font-size="10.00">lmms::DspEffectLibrary</text>
<text xml:space="preserve" text-anchor="start" x="151.62" y="-454.25" font-family="Helvetica,sans-Serif" font-size="10.00">::MonoBase&lt; T &gt;</text>
<text xml:space="preserve" text-anchor="start" x="186.88" y="-439" font-family="Helvetica,sans-Serif" font-size="10.00"> </text>
<text xml:space="preserve" text-anchor="start" x="150.81" y="-423.75" font-family="Helvetica,sans-Serif" font-size="10.00">+</text>
<text xml:space="preserve" text-anchor="start" x="173.12" y="-423.75" font-family="Helvetica,sans-Serif" font-size="10.00">process()</text>
<polygon fill="#666666" stroke="#666666" points="134.5,-450.5 134.5,-450.5 242.25,-450.5 242.25,-450.5 134.5,-450.5"/>
<polygon fill="#666666" stroke="#666666" points="134.5,-435.25 134.5,-435.25 242.25,-435.25 242.25,-435.25 134.5,-435.25"/>
<polygon fill="none" stroke="#666666" points="134.5,-418 134.5,-479 242.25,-479 242.25,-418 134.5,-418"/>
</a>
</g>
</g>
<!-- Node6&#45;&gt;Node5 -->
<g id="edge5_Node000005_Node000006" class="edge">
<title>Node6&#45;&gt;Node5</title>
<g id="a_edge5_Node000005_Node000006"><a xlink:title=" ">
<path fill="none" stroke="#63b8ff" d="M188.38,-406.96C188.38,-393.62 188.38,-378.6 188.38,-364.52"/>
<polygon fill="none" stroke="#63b8ff" points="184.88,-406.67 188.38,-416.67 191.88,-406.67 184.88,-406.67"/>
</a>
</g>
</g>
</g>
</svg>
