<?xml version="1.0" encoding="UTF-8" standalone="no"?>
<!DOCTYPE svg PUBLIC "-//W3C//DTD SVG 1.1//EN"
 "http://www.w3.org/Graphics/SVG/1.1/DTD/svg11.dtd">
<!-- Generated by graphviz version 14.0.2 (0)
 -->
<!-- Title: juce::ResizableWindow::setResizable Pages: 1 -->
<svg width="958pt" height="269pt"
 viewBox="0.00 0.00 958.00 269.00" xmlns="http://www.w3.org/2000/svg" xmlns:xlink="http://www.w3.org/1999/xlink">
<g id="graph0" class="graph" transform="scale(1 1) rotate(0) translate(4 265.2)">
<title>juce::ResizableWindow::setResizable</title>
<!-- Node1 -->
<g id="Node000001" class="node">
<title>Node1</title>
<g id="a_Node000001"><a xlink:title=" ">
<polygon fill="#999999" stroke="#666666" points="949.5,-157.08 834.5,-157.08 834.5,-126.58 949.5,-126.58 949.5,-157.08"/>
<text xml:space="preserve" text-anchor="start" x="842.5" y="-143.58" font-family="Helvetica,sans-Serif" font-size="10.00">juce::ResizableWindow</text>
<text xml:space="preserve" text-anchor="middle" x="892" y="-132.33" font-family="Helvetica,sans-Serif" font-size="10.00">::setResizable</text>
</a>
</g>
</g>
<!-- Node1&#45;&gt;Node1 -->
<g id="edge24_Node000001_Node000001" class="edge">
<title>Node1&#45;&gt;Node1</title>
<g id="a_edge24_Node000001_Node000001"><a xlink:title=" ">
<path fill="none" stroke="#63b8ff" d="M918.64,-168.79C914.29,-172.56 905.41,-175.08 892,-175.08 867.49,-175.08 858.1,-166.64 863.85,-157.57"/>
<polygon fill="#63b8ff" stroke="#63b8ff" points="922.09,-169.45 919.95,-159.07 915.15,-168.51 922.09,-169.45"/>
</a>
</g>
</g>
<!-- Node2 -->
<g id="Node000002" class="node">
<title>Node2</title>
<g id="a_Node000002"><a xlink:href="classjuce_1_1Toolbar_1_1CustomisationDialog.html#a7ebb929c0888080429bdec4b430e8eff" target="_top" xlink:title=" ">
<polygon fill="white" stroke="#666666" points="480.75,-246.08 343.25,-246.08 343.25,-215.58 480.75,-215.58 480.75,-246.08"/>
<text xml:space="preserve" text-anchor="start" x="351.25" y="-232.58" font-family="Helvetica,sans-Serif" font-size="10.00">juce::Toolbar::Customisation</text>
<text xml:space="preserve" text-anchor="middle" x="412" y="-221.33" font-family="Helvetica,sans-Serif" font-size="10.00">Dialog::CustomisationDialog</text>
</a>
</g>
</g>
<!-- Node1&#45;&gt;Node2 -->
<g id="edge1_Node000001_Node000002" class="edge">
<title>Node1&#45;&gt;Node2</title>
<g id="a_edge1_Node000001_Node000002"><a xlink:title=" ">
<path fill="none" stroke="#63b8ff" d="M874.55,-166.58C858.23,-188.67 831.01,-219.52 798.5,-232.83 694.29,-275.5 560.54,-261.22 481.1,-246.42"/>
<polygon fill="#63b8ff" stroke="#63b8ff" points="877.23,-168.84 880.18,-158.67 871.53,-164.78 877.23,-168.84"/>
</a>
</g>
</g>
<!-- Node3 -->
<g id="Node000003" class="node">
<title>Node3</title>
<g id="a_Node000003"><a xlink:href="classjuce_1_1DefaultDialogWindow.html#a1a03acbb6fa135f0121f40b6dd1540de" target="_top" xlink:title=" ">
<polygon fill="white" stroke="#666666" points="798.5,-224.08 667.75,-224.08 667.75,-193.58 798.5,-193.58 798.5,-224.08"/>
<text xml:space="preserve" text-anchor="start" x="675.75" y="-210.58" font-family="Helvetica,sans-Serif" font-size="10.00">juce::DefaultDialogWindow</text>
<text xml:space="preserve" text-anchor="middle" x="733.12" y="-199.33" font-family="Helvetica,sans-Serif" font-size="10.00">::DefaultDialogWindow</text>
</a>
</g>
</g>
<!-- Node1&#45;&gt;Node3 -->
<g id="edge2_Node000001_Node000003" class="edge">
<title>Node1&#45;&gt;Node3</title>
<g id="a_edge2_Node000001_Node000003"><a xlink:title=" ">
<path fill="none" stroke="#63b8ff" d="M847.52,-162.18C832.12,-169.23 814.61,-177.05 798.5,-183.83 791.1,-186.95 783.16,-190.15 775.47,-193.17"/>
<polygon fill="#63b8ff" stroke="#63b8ff" points="848.8,-165.44 856.43,-158.08 845.88,-159.08 848.8,-165.44"/>
</a>
</g>
</g>
<!-- Node4 -->
<g id="Node000004" class="node">
<title>Node4</title>
<g id="a_Node000004"><a xlink:href="classjuce_1_1FileChooserDialogBox.html#a9a0484070b180660c824a4a2837ba444" target="_top" xlink:title=" ">
<polygon fill="white" stroke="#666666" points="478.88,-78.08 345.12,-78.08 345.12,-47.58 478.88,-47.58 478.88,-78.08"/>
<text xml:space="preserve" text-anchor="start" x="353.12" y="-64.58" font-family="Helvetica,sans-Serif" font-size="10.00">juce::FileChooserDialogBox</text>
<text xml:space="preserve" text-anchor="middle" x="412" y="-53.33" font-family="Helvetica,sans-Serif" font-size="10.00">::FileChooserDialogBox</text>
</a>
</g>
</g>
<!-- Node1&#45;&gt;Node4 -->
<g id="edge3_Node000001_Node000004" class="edge">
<title>Node1&#45;&gt;Node4</title>
<g id="a_edge3_Node000001_Node000004"><a xlink:title=" ">
<path fill="none" stroke="#63b8ff" d="M869.76,-118.25C852.49,-100.95 826.49,-78.79 798.5,-68.83 691.77,-30.86 557.66,-40.47 479.03,-51.35"/>
<polygon fill="#63b8ff" stroke="#63b8ff" points="866.99,-120.43 876.45,-125.2 872.03,-115.57 866.99,-120.43"/>
</a>
</g>
</g>
<!-- Node9 -->
<g id="Node000009" class="node">
<title>Node9</title>
<g id="a_Node000009"><a xlink:href="classjuce_1_1JucePluginWindow.html#ab46477e78fed8143832430f7f65e63e6" target="_top" xlink:title=" ">
<polygon fill="white" stroke="#666666" points="793.62,-108.08 672.62,-108.08 672.62,-77.58 793.62,-77.58 793.62,-108.08"/>
<text xml:space="preserve" text-anchor="start" x="680.62" y="-94.58" font-family="Helvetica,sans-Serif" font-size="10.00">juce::JucePluginWindow</text>
<text xml:space="preserve" text-anchor="middle" x="733.12" y="-83.33" font-family="Helvetica,sans-Serif" font-size="10.00">::JucePluginWindow</text>
</a>
</g>
</g>
<!-- Node1&#45;&gt;Node9 -->
<g id="edge15_Node000001_Node000009" class="edge">
<title>Node1&#45;&gt;Node9</title>
<g id="a_edge15_Node000001_Node000009"><a xlink:title=" ">
<path fill="none" stroke="#63b8ff" d="M830.14,-122.82C815.05,-118.11 799.05,-113.11 784.52,-108.58"/>
<polygon fill="#63b8ff" stroke="#63b8ff" points="828.9,-126.1 839.49,-125.74 830.99,-119.42 828.9,-126.1"/>
</a>
</g>
</g>
<!-- Node10 -->
<g id="Node000010" class="node">
<title>Node10</title>
<g id="a_Node000010"><a xlink:href="classjuce_1_1ResizableWindow.html#a9f51bf2a19d4b731abcda0a6829c789f" target="_top" xlink:title=" ">
<polygon fill="white" stroke="#666666" points="790.62,-157.08 675.62,-157.08 675.62,-126.58 790.62,-126.58 790.62,-157.08"/>
<text xml:space="preserve" text-anchor="start" x="683.62" y="-143.58" font-family="Helvetica,sans-Serif" font-size="10.00">juce::ResizableWindow</text>
<text xml:space="preserve" text-anchor="middle" x="733.12" y="-132.33" font-family="Helvetica,sans-Serif" font-size="10.00">::setConstrainer</text>
</a>
</g>
</g>
<!-- Node1&#45;&gt;Node10 -->
<g id="edge16_Node000001_Node000010" class="edge">
<title>Node1&#45;&gt;Node10</title>
<g id="a_edge16_Node000001_Node000010"><a xlink:title=" ">
<path fill="none" stroke="#63b8ff" d="M822.93,-141.83C812.26,-141.83 801.32,-141.83 790.94,-141.83"/>
<polygon fill="#63b8ff" stroke="#63b8ff" points="822.85,-145.33 832.85,-141.83 822.85,-138.33 822.85,-145.33"/>
</a>
</g>
</g>
<!-- Node4&#45;&gt;Node4 -->
<g id="edge9_Node000004_Node000004" class="edge">
<title>Node4&#45;&gt;Node4</title>
<g id="a_edge9_Node000004_Node000004"><a xlink:title=" ">
<path fill="none" stroke="#63b8ff" d="M439.21,-89.79C434.76,-93.56 425.69,-96.08 412,-96.08 386.97,-96.08 377.38,-87.64 383.25,-78.57"/>
<polygon fill="#63b8ff" stroke="#63b8ff" points="442.65,-90.45 440.54,-80.07 435.72,-89.5 442.65,-90.45"/>
</a>
</g>
</g>
<!-- Node5 -->
<g id="Node000005" class="node">
<title>Node5</title>
<g id="a_Node000005"><a xlink:href="classjuce_1_1FileChooserDialogBox.html#a7f1d820e2ea8d562851f2cab9c54871e" target="_top" xlink:title=" ">
<polygon fill="white" stroke="#666666" points="305.38,-152.08 171.62,-152.08 171.62,-121.58 305.38,-121.58 305.38,-152.08"/>
<text xml:space="preserve" text-anchor="start" x="179.62" y="-138.58" font-family="Helvetica,sans-Serif" font-size="10.00">juce::FileChooserDialogBox</text>
<text xml:space="preserve" text-anchor="middle" x="238.5" y="-127.33" font-family="Helvetica,sans-Serif" font-size="10.00">::createNewFolderCallback</text>
</a>
</g>
</g>
<!-- Node4&#45;&gt;Node5 -->
<g id="edge4_Node000004_Node000005" class="edge">
<title>Node4&#45;&gt;Node5</title>
<g id="a_edge4_Node000004_Node000005"><a xlink:title=" ">
<path fill="none" stroke="#63b8ff" d="M364.54,-83.04C346.64,-90.81 326,-99.75 307.25,-107.83 297.14,-112.19 286.18,-116.89 276.08,-121.21"/>
<polygon fill="#63b8ff" stroke="#63b8ff" points="365.84,-86.29 373.62,-79.1 363.05,-79.87 365.84,-86.29"/>
</a>
</g>
</g>
<!-- Node7 -->
<g id="Node000007" class="node">
<title>Node7</title>
<g id="a_Node000007"><a xlink:href="classjuce_1_1FileChooserDialogBox.html#aa980662b25b959bbe048df2112730c24" target="_top" xlink:title=" ">
<polygon fill="white" stroke="#666666" points="307.25,-48.08 169.75,-48.08 169.75,-17.58 307.25,-17.58 307.25,-48.08"/>
<text xml:space="preserve" text-anchor="start" x="177.75" y="-34.58" font-family="Helvetica,sans-Serif" font-size="10.00">juce::FileChooserDialogBox</text>
<text xml:space="preserve" text-anchor="middle" x="238.5" y="-23.33" font-family="Helvetica,sans-Serif" font-size="10.00">::okToOverwriteFileCallback</text>
</a>
</g>
</g>
<!-- Node4&#45;&gt;Node7 -->
<g id="edge10_Node000004_Node000007" class="edge">
<title>Node4&#45;&gt;Node7</title>
<g id="a_edge10_Node000004_Node000007"><a xlink:title=" ">
<path fill="none" stroke="#63b8ff" d="M333.46,-49.27C324.84,-47.76 316.1,-46.23 307.61,-44.75"/>
<polygon fill="#63b8ff" stroke="#63b8ff" points="332.75,-52.7 343.2,-50.97 333.96,-45.8 332.75,-52.7"/>
</a>
</g>
</g>
<!-- Node5&#45;&gt;Node5 -->
<g id="edge8_Node000005_Node000005" class="edge">
<title>Node5&#45;&gt;Node5</title>
<g id="a_edge8_Node000005_Node000005"><a xlink:title=" ">
<path fill="none" stroke="#63b8ff" d="M267.28,-163.79C262.58,-167.56 252.98,-170.08 238.5,-170.08 212.02,-170.08 201.88,-161.64 208.09,-152.57"/>
<polygon fill="#63b8ff" stroke="#63b8ff" points="270.72,-164.47 268.69,-154.07 263.79,-163.46 270.72,-164.47"/>
</a>
</g>
</g>
<!-- Node6 -->
<g id="Node000006" class="node">
<title>Node6</title>
<g id="a_Node000006"><a xlink:href="classjuce_1_1FileChooserDialogBox.html#a9a6fadaea54936e7d5345a0e518d2152" target="_top" xlink:title=" ">
<polygon fill="white" stroke="#666666" points="133.75,-121.08 0,-121.08 0,-90.58 133.75,-90.58 133.75,-121.08"/>
<text xml:space="preserve" text-anchor="start" x="8" y="-107.58" font-family="Helvetica,sans-Serif" font-size="10.00">juce::FileChooserDialogBox</text>
<text xml:space="preserve" text-anchor="middle" x="66.88" y="-96.33" font-family="Helvetica,sans-Serif" font-size="10.00">::createNewFolder</text>
</a>
</g>
</g>
<!-- Node5&#45;&gt;Node6 -->
<g id="edge5_Node000005_Node000006" class="edge">
<title>Node5&#45;&gt;Node6</title>
<g id="a_edge5_Node000005_Node000006"><a xlink:title=" ">
<path fill="none" stroke="#63b8ff" d="M160.38,-122.74C151.58,-121.13 142.68,-119.5 134.04,-117.93"/>
<polygon fill="#63b8ff" stroke="#63b8ff" points="159.48,-126.13 169.94,-124.49 160.74,-119.25 159.48,-126.13"/>
</a>
</g>
</g>
<!-- Node6&#45;&gt;Node4 -->
<g id="edge7_Node000006_Node000004" class="edge">
<title>Node6&#45;&gt;Node4</title>
<g id="a_edge7_Node000006_Node000004"><a xlink:title=" ">
<path fill="none" stroke="#63b8ff" d="M145.45,-96.11C205.53,-88.58 287.85,-78.27 344.84,-71.12"/>
<polygon fill="#63b8ff" stroke="#63b8ff" points="145.11,-92.63 135.62,-97.34 145.98,-99.57 145.11,-92.63"/>
</a>
</g>
</g>
<!-- Node6&#45;&gt;Node6 -->
<g id="edge6_Node000006_Node000006" class="edge">
<title>Node6&#45;&gt;Node6</title>
<g id="a_edge6_Node000006_Node000006"><a xlink:title=" ">
<path fill="none" stroke="#63b8ff" d="M95.66,-132.79C90.95,-136.56 81.36,-139.08 66.88,-139.08 40.39,-139.08 30.26,-130.64 36.46,-121.57"/>
<polygon fill="#63b8ff" stroke="#63b8ff" points="99.09,-133.47 97.07,-123.07 92.17,-132.46 99.09,-133.47"/>
</a>
</g>
</g>
<!-- Node7&#45;&gt;Node7 -->
<g id="edge14_Node000007_Node000007" class="edge">
<title>Node7&#45;&gt;Node7</title>
<g id="a_edge14_Node000007_Node000007"><a xlink:title=" ">
<path fill="none" stroke="#63b8ff" d="M267.28,-59.79C262.58,-63.56 252.98,-66.08 238.5,-66.08 212.02,-66.08 201.88,-57.64 208.09,-48.57"/>
<polygon fill="#63b8ff" stroke="#63b8ff" points="270.72,-60.47 268.69,-50.07 263.79,-59.46 270.72,-60.47"/>
</a>
</g>
</g>
<!-- Node8 -->
<g id="Node000008" class="node">
<title>Node8</title>
<g id="a_Node000008"><a xlink:href="classjuce_1_1FileChooserDialogBox.html#aa22e94b1057859bfbf78ea89e0129acb" target="_top" xlink:title=" ">
<polygon fill="white" stroke="#666666" points="133.75,-36.08 0,-36.08 0,-5.58 133.75,-5.58 133.75,-36.08"/>
<text xml:space="preserve" text-anchor="start" x="8" y="-22.58" font-family="Helvetica,sans-Serif" font-size="10.00">juce::FileChooserDialogBox</text>
<text xml:space="preserve" text-anchor="middle" x="66.88" y="-11.33" font-family="Helvetica,sans-Serif" font-size="10.00">::okButtonPressed</text>
</a>
</g>
</g>
<!-- Node7&#45;&gt;Node8 -->
<g id="edge11_Node000007_Node000008" class="edge">
<title>Node7&#45;&gt;Node8</title>
<g id="a_edge11_Node000007_Node000008"><a xlink:title=" ">
<path fill="none" stroke="#63b8ff" d="M158.22,-27.23C150.2,-26.66 142.11,-26.09 134.25,-25.53"/>
<polygon fill="#63b8ff" stroke="#63b8ff" points="157.75,-30.7 167.97,-27.92 158.25,-23.72 157.75,-30.7"/>
</a>
</g>
</g>
<!-- Node8&#45;&gt;Node4 -->
<g id="edge12_Node000008_Node000004" class="edge">
<title>Node8&#45;&gt;Node4</title>
<g id="a_edge12_Node000008_Node000004"><a xlink:title=" ">
<path fill="none" stroke="#63b8ff" d="M145.24,-5.81C192.65,0.66 254.21,4.14 307.25,-8.83 337.43,-16.22 368.59,-34.06 388.79,-47.23"/>
<polygon fill="#63b8ff" stroke="#63b8ff" points="145.01,-2.31 135.62,-7.2 146.01,-9.24 145.01,-2.31"/>
</a>
</g>
</g>
<!-- Node8&#45;&gt;Node8 -->
<g id="edge13_Node000008_Node000008" class="edge">
<title>Node8&#45;&gt;Node8</title>
<g id="a_edge13_Node000008_Node000008"><a xlink:title=" ">
<path fill="none" stroke="#63b8ff" d="M95.66,-47.79C90.95,-51.56 81.36,-54.08 66.88,-54.08 40.39,-54.08 30.26,-45.64 36.46,-36.57"/>
<polygon fill="#63b8ff" stroke="#63b8ff" points="99.09,-48.47 97.07,-38.07 92.17,-47.46 99.09,-48.47"/>
</a>
</g>
</g>
<!-- Node10&#45;&gt;Node10 -->
<g id="edge17_Node000010_Node000010" class="edge">
<title>Node10&#45;&gt;Node10</title>
<g id="a_edge17_Node000010_Node000010"><a xlink:title=" ">
<path fill="none" stroke="#63b8ff" d="M759.77,-168.79C755.41,-172.56 746.53,-175.08 733.12,-175.08 708.61,-175.08 699.23,-166.64 704.97,-157.57"/>
<polygon fill="#63b8ff" stroke="#63b8ff" points="763.21,-169.45 761.08,-159.07 756.27,-168.51 763.21,-169.45"/>
</a>
</g>
</g>
<!-- Node11 -->
<g id="Node000011" class="node">
<title>Node11</title>
<g id="a_Node000011"><a xlink:href="classjuce_1_1ResizableWindow.html#a4ced08722efb77c227060cc2bb8eac9a" target="_top" xlink:title=" ">
<polygon fill="white" stroke="#666666" points="631.75,-157.08 516.75,-157.08 516.75,-126.58 631.75,-126.58 631.75,-157.08"/>
<text xml:space="preserve" text-anchor="start" x="524.75" y="-143.58" font-family="Helvetica,sans-Serif" font-size="10.00">juce::ResizableWindow</text>
<text xml:space="preserve" text-anchor="middle" x="574.25" y="-132.33" font-family="Helvetica,sans-Serif" font-size="10.00">::setResizeLimits</text>
</a>
</g>
</g>
<!-- Node10&#45;&gt;Node11 -->
<g id="edge18_Node000010_Node000011" class="edge">
<title>Node10&#45;&gt;Node11</title>
<g id="a_edge18_Node000010_Node000011"><a xlink:title=" ">
<path fill="none" stroke="#63b8ff" d="M664.05,-141.83C653.38,-141.83 642.45,-141.83 632.07,-141.83"/>
<polygon fill="#63b8ff" stroke="#63b8ff" points="663.98,-145.33 673.98,-141.83 663.98,-138.33 663.98,-145.33"/>
</a>
</g>
</g>
<!-- Node11&#45;&gt;Node2 -->
<g id="edge19_Node000011_Node000002" class="edge">
<title>Node11&#45;&gt;Node2</title>
<g id="a_edge19_Node000011_Node000002"><a xlink:title=" ">
<path fill="none" stroke="#63b8ff" d="M535.23,-162.95C506.39,-178.97 467.38,-200.63 441.27,-215.13"/>
<polygon fill="#63b8ff" stroke="#63b8ff" points="536.6,-166.19 543.65,-158.28 533.2,-160.07 536.6,-166.19"/>
</a>
</g>
</g>
<!-- Node11&#45;&gt;Node4 -->
<g id="edge22_Node000011_Node000004" class="edge">
<title>Node11&#45;&gt;Node4</title>
<g id="a_edge22_Node000011_Node000004"><a xlink:title=" ">
<path fill="none" stroke="#63b8ff" d="M531.26,-121.14C504.23,-107.81 469.64,-90.76 444.87,-78.54"/>
<polygon fill="#63b8ff" stroke="#63b8ff" points="529.72,-124.27 540.23,-125.56 532.81,-118 529.72,-124.27"/>
</a>
</g>
</g>
<!-- Node11&#45;&gt;Node11 -->
<g id="edge23_Node000011_Node000011" class="edge">
<title>Node11&#45;&gt;Node11</title>
<g id="a_edge23_Node000011_Node000011"><a xlink:title=" ">
<path fill="none" stroke="#63b8ff" d="M600.89,-168.79C596.54,-172.56 587.66,-175.08 574.25,-175.08 549.74,-175.08 540.35,-166.64 546.1,-157.57"/>
<polygon fill="#63b8ff" stroke="#63b8ff" points="604.34,-169.45 602.2,-159.07 597.4,-168.51 604.34,-169.45"/>
</a>
</g>
</g>
<!-- Node12 -->
<g id="Node000012" class="node">
<title>Node12</title>
<g id="a_Node000012"><a xlink:href="classjuce_1_1DocumentWindow.html#a4a332408a5f7fc4f4e6e5426f3cdc860" target="_top" xlink:title=" ">
<polygon fill="#fff0f0" stroke="red" points="470.62,-157.08 353.38,-157.08 353.38,-126.58 470.62,-126.58 470.62,-157.08"/>
<text xml:space="preserve" text-anchor="start" x="361.38" y="-143.58" font-family="Helvetica,sans-Serif" font-size="10.00">juce::DocumentWindow</text>
<text xml:space="preserve" text-anchor="middle" x="412" y="-132.33" font-family="Helvetica,sans-Serif" font-size="10.00">::DocumentWindow</text>
</a>
</g>
</g>
<!-- Node11&#45;&gt;Node12 -->
<g id="edge20_Node000011_Node000012" class="edge">
<title>Node11&#45;&gt;Node12</title>
<g id="a_edge20_Node000011_Node000012"><a xlink:title=" ">
<path fill="none" stroke="#63b8ff" d="M505.12,-141.83C493.81,-141.83 482.16,-141.83 471.12,-141.83"/>
<polygon fill="#63b8ff" stroke="#63b8ff" points="504.79,-145.33 514.79,-141.83 504.79,-138.33 504.79,-145.33"/>
</a>
</g>
</g>
<!-- Node12&#45;&gt;Node12 -->
<g id="edge21_Node000012_Node000012" class="edge">
<title>Node12&#45;&gt;Node12</title>
<g id="a_edge21_Node000012_Node000012"><a xlink:title=" ">
<path fill="none" stroke="#63b8ff" d="M439.21,-168.79C434.76,-172.56 425.69,-175.08 412,-175.08 386.97,-175.08 377.38,-166.64 383.25,-157.57"/>
<polygon fill="#63b8ff" stroke="#63b8ff" points="442.65,-169.45 440.54,-159.07 435.72,-168.5 442.65,-169.45"/>
</a>
</g>
</g>
</g>
</svg>
