<?xml version="1.0" encoding="UTF-8" standalone="no"?>
<!DOCTYPE svg PUBLIC "-//W3C//DTD SVG 1.1//EN"
 "http://www.w3.org/Graphics/SVG/1.1/DTD/svg11.dtd">
<!-- Generated by graphviz version 14.0.2 (0)
 -->
<!-- Title: CarlaPluginLV2::CarlaPluginLV2 Pages: 1 -->
<svg width="506pt" height="103pt"
 viewBox="0.00 0.00 506.00 103.00" xmlns="http://www.w3.org/2000/svg" xmlns:xlink="http://www.w3.org/1999/xlink">
<g id="graph0" class="graph" transform="scale(1 1) rotate(0) translate(4 99.25)">
<title>CarlaPluginLV2::CarlaPluginLV2</title>
<!-- Node1 -->
<g id="Node000001" class="node">
<title>Node1</title>
<g id="a_Node000001"><a xlink:title=" ">
<polygon fill="#999999" stroke="#666666" points="155.5,-57.25 0,-57.25 0,-38 155.5,-38 155.5,-57.25"/>
<text xml:space="preserve" text-anchor="middle" x="77.75" y="-43.75" font-family="Helvetica,sans-Serif" font-size="10.00">CarlaPluginLV2::CarlaPluginLV2</text>
</a>
</g>
</g>
<!-- Node2 -->
<g id="Node000002" class="node">
<title>Node2</title>
<g id="a_Node000002"><a xlink:href="CarlaUtils_8hpp.html#a644bfc886a92ed8dd5314daeb23190a9" target="_top" xlink:title=" ">
<polygon fill="white" stroke="#666666" points="299.38,-95.25 203.12,-95.25 203.12,-76 299.38,-76 299.38,-95.25"/>
<text xml:space="preserve" text-anchor="middle" x="251.25" y="-81.75" font-family="Helvetica,sans-Serif" font-size="10.00">carla_zeroPointers</text>
</a>
</g>
</g>
<!-- Node1&#45;&gt;Node2 -->
<g id="edge1_Node000001_Node000002" class="edge">
<title>Node1&#45;&gt;Node2</title>
<g id="a_edge1_Node000001_Node000002"><a xlink:title=" ">
<path fill="none" stroke="#63b8ff" d="M124.26,-57.71C145.57,-62.43 171.16,-68.1 193.7,-73.09"/>
<polygon fill="#63b8ff" stroke="#63b8ff" points="192.83,-76.49 203.35,-75.23 194.34,-69.65 192.83,-76.49"/>
</a>
</g>
</g>
<!-- Node3 -->
<g id="Node000003" class="node">
<title>Node3</title>
<g id="a_Node000003"><a xlink:href="classCarlaPlugin.html#ab894a65c7e80864e9de7da5db3d571fa" target="_top" xlink:title=" ">
<polygon fill="white" stroke="#666666" points="483.38,-56.25 361.62,-56.25 361.62,-37 483.38,-37 483.38,-56.25"/>
<text xml:space="preserve" text-anchor="middle" x="422.5" y="-42.75" font-family="Helvetica,sans-Serif" font-size="10.00">CarlaPlugin::CarlaEngine</text>
</a>
</g>
</g>
<!-- Node1&#45;&gt;Node3 -->
<g id="edge2_Node000001_Node000003" class="edge">
<title>Node1&#45;&gt;Node3</title>
<g id="a_edge2_Node000001_Node000003"><a xlink:title=" ">
<path fill="none" stroke="#63b8ff" d="M155.67,-47.4C213.83,-47.23 293.11,-47 349.92,-46.83"/>
<polygon fill="#63b8ff" stroke="#63b8ff" points="349.83,-50.33 359.82,-46.8 349.81,-43.33 349.83,-50.33"/>
</a>
</g>
</g>
<!-- Node4 -->
<g id="Node000004" class="node">
<title>Node4</title>
<g id="a_Node000004"><a xlink:href="classCarlaPlugin.html#a5350be3419911f3a2add1fa8ae534761" target="_top" xlink:title=" ">
<polygon fill="white" stroke="#666666" points="311,-19.25 191.5,-19.25 191.5,0 311,0 311,-19.25"/>
<text xml:space="preserve" text-anchor="middle" x="251.25" y="-5.75" font-family="Helvetica,sans-Serif" font-size="10.00">CarlaPlugin::CarlaPlugin</text>
</a>
</g>
</g>
<!-- Node1&#45;&gt;Node4 -->
<g id="edge4_Node000001_Node000004" class="edge">
<title>Node1&#45;&gt;Node4</title>
<g id="a_edge4_Node000001_Node000004"><a xlink:title=" ">
<path fill="none" stroke="#63b8ff" d="M124.26,-37.54C145.57,-32.82 171.16,-27.15 193.7,-22.16"/>
<polygon fill="#63b8ff" stroke="#63b8ff" points="194.34,-25.6 203.35,-20.02 192.83,-18.76 194.34,-25.6"/>
</a>
</g>
</g>
<!-- Node3&#45;&gt;Node3 -->
<g id="edge3_Node000003_Node000003" class="edge">
<title>Node3&#45;&gt;Node3</title>
<g id="a_edge3_Node000003_Node000003"><a xlink:title=" ">
<path fill="none" stroke="#63b8ff" d="M395.69,-56.54C383.46,-65.15 392.4,-74.25 422.5,-74.25 439.43,-74.25 449.67,-71.37 453.21,-67.32"/>
<polygon fill="#63b8ff" stroke="#63b8ff" points="456.52,-66.18 449.82,-57.96 449.93,-68.56 456.52,-66.18"/>
</a>
</g>
</g>
<!-- Node4&#45;&gt;Node3 -->
<g id="edge5_Node000004_Node000003" class="edge">
<title>Node4&#45;&gt;Node3</title>
<g id="a_edge5_Node000004_Node000003"><a xlink:title=" ">
<path fill="none" stroke="#63b8ff" d="M298.5,-19.74C318.74,-24.16 342.7,-29.4 364.07,-34.07"/>
<polygon fill="#63b8ff" stroke="#63b8ff" points="363.31,-37.49 373.83,-36.2 364.81,-30.65 363.31,-37.49"/>
</a>
</g>
</g>
<!-- Node5 -->
<g id="Node000005" class="node">
<title>Node5</title>
<g id="a_Node000005"><a xlink:href="classCarlaEngine.html#ac8c4d0744c15d61a278f0c865dfe3f71" target="_top" xlink:title=" ">
<polygon fill="white" stroke="#666666" points="498,-19.25 347,-19.25 347,0 498,0 498,-19.25"/>
<text xml:space="preserve" text-anchor="middle" x="422.5" y="-5.75" font-family="Helvetica,sans-Serif" font-size="10.00">CarlaEngine::getProccessMode</text>
</a>
</g>
</g>
<!-- Node4&#45;&gt;Node5 -->
<g id="edge6_Node000004_Node000005" class="edge">
<title>Node4&#45;&gt;Node5</title>
<g id="a_edge6_Node000004_Node000005"><a xlink:title=" ">
<path fill="none" stroke="#63b8ff" d="M311.45,-9.62C319.16,-9.62 327.18,-9.62 335.22,-9.62"/>
<polygon fill="#63b8ff" stroke="#63b8ff" points="335.05,-13.13 345.05,-9.63 335.05,-6.13 335.05,-13.13"/>
</a>
</g>
</g>
</g>
</svg>
