<?xml version="1.0" encoding="UTF-8" standalone="no"?>
<!DOCTYPE svg PUBLIC "-//W3C//DTD SVG 1.1//EN"
 "http://www.w3.org/Graphics/SVG/1.1/DTD/svg11.dtd">
<!-- Generated by graphviz version 14.0.2 (0)
 -->
<!-- Title: lmms::EnvelopeAndLfoParameters::LfoInstances::add Pages: 1 -->
<svg width="780pt" height="303pt"
 viewBox="0.00 0.00 780.00 303.00" xmlns="http://www.w3.org/2000/svg" xmlns:xlink="http://www.w3.org/1999/xlink">
<g id="graph0" class="graph" transform="scale(1 1) rotate(0) translate(4 299.25)">
<title>lmms::EnvelopeAndLfoParameters::LfoInstances::add</title>
<!-- Node1 -->
<g id="Node000001" class="node">
<title>Node1</title>
<g id="a_Node000001"><a xlink:title=" ">
<polygon fill="#999999" stroke="#666666" points="166,-171.88 0,-171.88 0,-141.38 166,-141.38 166,-171.88"/>
<text xml:space="preserve" text-anchor="start" x="8" y="-158.38" font-family="Helvetica,sans-Serif" font-size="10.00">lmms::EnvelopeAndLfoParameters</text>
<text xml:space="preserve" text-anchor="middle" x="83" y="-147.12" font-family="Helvetica,sans-Serif" font-size="10.00">::LfoInstances::add</text>
</a>
</g>
</g>
<!-- Node2 -->
<g id="Node000002" class="node">
<title>Node2</title>
<g id="a_Node000002"><a xlink:href="classlmms_1_1EnvelopeAndLfoParameters.html#ac90515aa6fc6bb6628e11f1d52bbb191" target="_top" xlink:title=" ">
<polygon fill="white" stroke="#666666" points="368,-171.88 202,-171.88 202,-141.38 368,-141.38 368,-171.88"/>
<text xml:space="preserve" text-anchor="start" x="210" y="-158.38" font-family="Helvetica,sans-Serif" font-size="10.00">lmms::EnvelopeAndLfoParameters</text>
<text xml:space="preserve" text-anchor="middle" x="285" y="-147.12" font-family="Helvetica,sans-Serif" font-size="10.00">::EnvelopeAndLfoParameters</text>
</a>
</g>
</g>
<!-- Node1&#45;&gt;Node2 -->
<g id="edge1_Node000001_Node000002" class="edge">
<title>Node1&#45;&gt;Node2</title>
<g id="a_edge1_Node000001_Node000002"><a xlink:title=" ">
<path fill="none" stroke="#63b8ff" d="M166.21,-149.97C174.2,-149.88 182.33,-149.86 190.42,-149.89"/>
<polygon fill="#63b8ff" stroke="#63b8ff" points="190.24,-153.39 200.27,-149.96 190.3,-146.39 190.24,-153.39"/>
</a>
</g>
</g>
<!-- Node2&#45;&gt;Node1 -->
<g id="edge2_Node000002_Node000001" class="edge">
<title>Node2&#45;&gt;Node1</title>
<g id="a_edge2_Node000002_Node000001"><a xlink:title=" ">
<path fill="none" stroke="#63b8ff" d="M201.78,-163.28C193.8,-163.37 185.66,-163.39 177.58,-163.36"/>
<polygon fill="#63b8ff" stroke="#63b8ff" points="177.75,-159.86 167.73,-163.29 177.7,-166.86 177.75,-159.86"/>
</a>
</g>
</g>
<!-- Node3 -->
<g id="Node000003" class="node">
<title>Node3</title>
<g id="a_Node000003"><a xlink:href="classlmms_1_1Engine.html#a6877e216489d342e0d50925d47b56ae4" target="_top" xlink:title=" ">
<polygon fill="white" stroke="#666666" points="754.38,-295.25 623.62,-295.25 623.62,-276 754.38,-276 754.38,-295.25"/>
<text xml:space="preserve" text-anchor="middle" x="689" y="-281.75" font-family="Helvetica,sans-Serif" font-size="10.00">lmms::Engine::audioEngine</text>
</a>
</g>
</g>
<!-- Node2&#45;&gt;Node3 -->
<g id="edge3_Node000002_Node000003" class="edge">
<title>Node2&#45;&gt;Node3</title>
<g id="a_edge3_Node000002_Node000003"><a xlink:title=" ">
<path fill="none" stroke="#63b8ff" d="M298.98,-172.27C318.91,-195.05 359.45,-236.7 404,-255.62 470.31,-283.79 552.85,-289.65 611.82,-289.45"/>
<polygon fill="#63b8ff" stroke="#63b8ff" points="611.82,-292.95 621.78,-289.35 611.74,-285.95 611.82,-292.95"/>
</a>
</g>
</g>
<!-- Node4 -->
<g id="Node000004" class="node">
<title>Node4</title>
<g id="a_Node000004"><a xlink:href="classlmms_1_1Model.html#a140ee903da70ba289abf1ee473df34cb" target="_top" xlink:title=" ">
<polygon fill="white" stroke="#666666" points="755.12,-258.25 622.88,-258.25 622.88,-239 755.12,-239 755.12,-258.25"/>
<text xml:space="preserve" text-anchor="middle" x="689" y="-244.75" font-family="Helvetica,sans-Serif" font-size="10.00">lmms::Model::dataChanged</text>
</a>
</g>
</g>
<!-- Node2&#45;&gt;Node4 -->
<g id="edge4_Node000002_Node000004" class="edge">
<title>Node2&#45;&gt;Node4</title>
<g id="a_edge4_Node000002_Node000004"><a xlink:title=" ">
<path fill="none" stroke="#63b8ff" d="M304.58,-172.19C326.69,-189.69 365.46,-217.26 404,-229.62 471.71,-251.35 553.04,-254.65 611.28,-253.38"/>
<polygon fill="#63b8ff" stroke="#63b8ff" points="611.2,-256.88 621.1,-253.11 611,-249.89 611.2,-256.88"/>
</a>
</g>
</g>
<!-- Node5 -->
<g id="Node000005" class="node">
<title>Node5</title>
<g id="a_Node000005"><a xlink:href="classlmms_1_1AudioEngine.html#a2e8f2b74c9804e0ed7fa205b0b70530e" target="_top" xlink:title=" ">
<polygon fill="white" stroke="#666666" points="538.5,-171.88 435.5,-171.88 435.5,-141.38 538.5,-141.38 538.5,-171.88"/>
<text xml:space="preserve" text-anchor="start" x="443.5" y="-158.38" font-family="Helvetica,sans-Serif" font-size="10.00">lmms::AudioEngine::</text>
<text xml:space="preserve" text-anchor="middle" x="487" y="-147.12" font-family="Helvetica,sans-Serif" font-size="10.00">framesPerPeriod</text>
</a>
</g>
</g>
<!-- Node2&#45;&gt;Node5 -->
<g id="edge5_Node000002_Node000005" class="edge">
<title>Node2&#45;&gt;Node5</title>
<g id="a_edge5_Node000002_Node000005"><a xlink:title=" ">
<path fill="none" stroke="#63b8ff" d="M368.21,-156.62C386.68,-156.62 405.99,-156.62 423.51,-156.62"/>
<polygon fill="#63b8ff" stroke="#63b8ff" points="423.51,-160.13 433.51,-156.63 423.51,-153.13 423.51,-160.13"/>
</a>
</g>
</g>
<!-- Node6 -->
<g id="Node000006" class="node">
<title>Node6</title>
<g id="a_Node000006"><a xlink:href="classlmms_1_1EnvelopeAndLfoParameters.html#a9c0db93512f1d933669cd663187967c8" target="_top" xlink:title=" ">
<polygon fill="white" stroke="#666666" points="570,-122.88 404,-122.88 404,-92.38 570,-92.38 570,-122.88"/>
<text xml:space="preserve" text-anchor="start" x="412" y="-109.38" font-family="Helvetica,sans-Serif" font-size="10.00">lmms::EnvelopeAndLfoParameters</text>
<text xml:space="preserve" text-anchor="middle" x="487" y="-98.12" font-family="Helvetica,sans-Serif" font-size="10.00">::instances</text>
</a>
</g>
</g>
<!-- Node2&#45;&gt;Node6 -->
<g id="edge6_Node000002_Node000006" class="edge">
<title>Node2&#45;&gt;Node6</title>
<g id="a_edge6_Node000002_Node000006"><a xlink:title=" ">
<path fill="none" stroke="#63b8ff" d="M350.11,-140.92C369.48,-136.17 390.93,-130.92 410.96,-126.01"/>
<polygon fill="#63b8ff" stroke="#63b8ff" points="411.56,-129.47 420.44,-123.69 409.9,-122.67 411.56,-129.47"/>
</a>
</g>
</g>
<!-- Node7 -->
<g id="Node000007" class="node">
<title>Node7</title>
<g id="a_Node000007"><a xlink:href="unzipfx-carla-control_2unzip_8h.html#a6146ec4ac32d62cf01b4c4c6587d5131" target="_top" xlink:title=" ">
<polygon fill="white" stroke="#666666" points="501.4,-74.25 472.6,-74.25 472.6,-55 501.4,-55 501.4,-74.25"/>
<text xml:space="preserve" text-anchor="middle" x="487" y="-60.75" font-family="Helvetica,sans-Serif" font-size="10.00">int</text>
</a>
</g>
</g>
<!-- Node2&#45;&gt;Node7 -->
<g id="edge7_Node000002_Node000007" class="edge">
<title>Node2&#45;&gt;Node7</title>
<g id="a_edge7_Node000002_Node000007"><a xlink:title=" ">
<path fill="none" stroke="#63b8ff" d="M306.61,-140.95C329.32,-124.4 367.47,-98.68 404,-83.62 422.48,-76.01 444.63,-71.11 461.24,-68.19"/>
<polygon fill="#63b8ff" stroke="#63b8ff" points="461.43,-71.71 470.74,-66.65 460.31,-64.8 461.43,-71.71"/>
</a>
</g>
</g>
<!-- Node8 -->
<g id="Node000008" class="node">
<title>Node8</title>
<g id="a_Node000008"><a xlink:href="classlmms_1_1Model.html#a91562bd45ea0e4d557f4f3139021482c" target="_top" xlink:title=" ">
<polygon fill="white" stroke="#666666" points="537.75,-19.25 436.25,-19.25 436.25,0 537.75,0 537.75,-19.25"/>
<text xml:space="preserve" text-anchor="middle" x="487" y="-5.75" font-family="Helvetica,sans-Serif" font-size="10.00">lmms::Model::Model</text>
</a>
</g>
</g>
<!-- Node2&#45;&gt;Node8 -->
<g id="edge8_Node000002_Node000008" class="edge">
<title>Node2&#45;&gt;Node8</title>
<g id="a_edge8_Node000002_Node000008"><a xlink:title=" ">
<path fill="none" stroke="#63b8ff" d="M299.18,-141.24C319.67,-118.05 361.3,-73.86 404,-45.62 417.02,-37.01 432.44,-29.62 446.38,-23.81"/>
<polygon fill="#63b8ff" stroke="#63b8ff" points="447.29,-27.22 455.28,-20.25 444.69,-20.72 447.29,-27.22"/>
</a>
</g>
</g>
<!-- Node10 -->
<g id="Node000010" class="node">
<title>Node10</title>
<g id="a_Node000010"><a xlink:href="classlmms_1_1EnvelopeAndLfoParameters.html#aaa29c04fdd421fa255688db108b47f21" target="_top" xlink:title=" ">
<polygon fill="white" stroke="#666666" points="570,-220.88 404,-220.88 404,-190.38 570,-190.38 570,-220.88"/>
<text xml:space="preserve" text-anchor="start" x="412" y="-207.38" font-family="Helvetica,sans-Serif" font-size="10.00">lmms::EnvelopeAndLfoParameters</text>
<text xml:space="preserve" text-anchor="middle" x="487" y="-196.12" font-family="Helvetica,sans-Serif" font-size="10.00">::updateSampleVars</text>
</a>
</g>
</g>
<!-- Node2&#45;&gt;Node10 -->
<g id="edge11_Node000002_Node000010" class="edge">
<title>Node2&#45;&gt;Node10</title>
<g id="a_edge11_Node000002_Node000010"><a xlink:title=" ">
<path fill="none" stroke="#63b8ff" d="M350.11,-172.33C369.48,-177.08 390.93,-182.33 410.96,-187.24"/>
<polygon fill="#63b8ff" stroke="#63b8ff" points="409.9,-190.58 420.44,-189.56 411.56,-183.78 409.9,-190.58"/>
</a>
</g>
</g>
<!-- Node8&#45;&gt;Node8 -->
<g id="edge10_Node000008_Node000008" class="edge">
<title>Node8&#45;&gt;Node8</title>
<g id="a_edge10_Node000008_Node000008"><a xlink:title=" ">
<path fill="none" stroke="#63b8ff" d="M455.38,-19.54C440.95,-28.15 451.49,-37.25 487,-37.25 508.08,-37.25 520.36,-34.04 523.84,-29.63"/>
<polygon fill="#63b8ff" stroke="#63b8ff" points="527.02,-28.16 519.32,-20.88 520.8,-31.37 527.02,-28.16"/>
</a>
</g>
</g>
<!-- Node9 -->
<g id="Node000009" class="node">
<title>Node9</title>
<g id="a_Node000009"><a xlink:href="classlmms_1_1Model.html#a75b9a85f3cebbb54c6f8b6552881919d" target="_top" xlink:title=" ">
<polygon fill="white" stroke="#666666" points="754.75,-19.25 623.25,-19.25 623.25,0 754.75,0 754.75,-19.25"/>
<text xml:space="preserve" text-anchor="middle" x="689" y="-5.75" font-family="Helvetica,sans-Serif" font-size="10.00">lmms::Model::displayName</text>
</a>
</g>
</g>
<!-- Node8&#45;&gt;Node9 -->
<g id="edge9_Node000008_Node000009" class="edge">
<title>Node8&#45;&gt;Node9</title>
<g id="a_edge9_Node000008_Node000009"><a xlink:title=" ">
<path fill="none" stroke="#63b8ff" d="M538.21,-9.62C560.39,-9.62 586.95,-9.62 611.5,-9.62"/>
<polygon fill="#63b8ff" stroke="#63b8ff" points="611.48,-13.13 621.48,-9.63 611.48,-6.13 611.48,-13.13"/>
</a>
</g>
</g>
<!-- Node10&#45;&gt;Node3 -->
<g id="edge12_Node000010_Node000003" class="edge">
<title>Node10&#45;&gt;Node3</title>
<g id="a_edge12_Node000010_Node000003"><a xlink:title=" ">
<path fill="none" stroke="#63b8ff" d="M512.87,-221.22C536.15,-235.19 572.3,-255.33 606,-267.62 610.96,-269.43 616.16,-271.09 621.42,-272.61"/>
<polygon fill="#63b8ff" stroke="#63b8ff" points="620.26,-275.92 630.82,-275.12 622.07,-269.15 620.26,-275.92"/>
</a>
</g>
</g>
<!-- Node10&#45;&gt;Node4 -->
<g id="edge13_Node000010_Node000004" class="edge">
<title>Node10&#45;&gt;Node4</title>
<g id="a_edge13_Node000010_Node000004"><a xlink:title=" ">
<path fill="none" stroke="#63b8ff" d="M561.05,-221.33C583.66,-226.19 608.25,-231.48 629.72,-236.09"/>
<polygon fill="#63b8ff" stroke="#63b8ff" points="628.97,-239.51 639.48,-238.19 630.44,-232.67 628.97,-239.51"/>
</a>
</g>
</g>
<!-- Node11 -->
<g id="Node000011" class="node">
<title>Node11</title>
<g id="a_Node000011"><a xlink:href="classlmms_1_1EnvelopeAndLfoParameters.html#a773f8da748718e9b65d61d53dd008bc3" target="_top" xlink:title=" ">
<polygon fill="white" stroke="#666666" points="772,-171.88 606,-171.88 606,-141.38 772,-141.38 772,-171.88"/>
<text xml:space="preserve" text-anchor="start" x="614" y="-158.38" font-family="Helvetica,sans-Serif" font-size="10.00">lmms::EnvelopeAndLfoParameters</text>
<text xml:space="preserve" text-anchor="middle" x="689" y="-147.12" font-family="Helvetica,sans-Serif" font-size="10.00">::expKnobVal</text>
</a>
</g>
</g>
<!-- Node10&#45;&gt;Node11 -->
<g id="edge14_Node000010_Node000011" class="edge">
<title>Node10&#45;&gt;Node11</title>
<g id="a_edge14_Node000010_Node000011"><a xlink:title=" ">
<path fill="none" stroke="#63b8ff" d="M552.11,-189.92C571.48,-185.17 592.93,-179.92 612.96,-175.01"/>
<polygon fill="#63b8ff" stroke="#63b8ff" points="613.56,-178.47 622.44,-172.69 611.9,-171.67 613.56,-178.47"/>
</a>
</g>
</g>
<!-- Node12 -->
<g id="Node000012" class="node">
<title>Node12</title>
<g id="a_Node000012"><a xlink:href="classlmms_1_1AudioEngine.html#ae54878acfbb31b2dc25f92855e038e4a" target="_top" xlink:title=" ">
<polygon fill="white" stroke="#666666" points="740.5,-220.88 637.5,-220.88 637.5,-190.38 740.5,-190.38 740.5,-220.88"/>
<text xml:space="preserve" text-anchor="start" x="645.5" y="-207.38" font-family="Helvetica,sans-Serif" font-size="10.00">lmms::AudioEngine::</text>
<text xml:space="preserve" text-anchor="middle" x="689" y="-196.12" font-family="Helvetica,sans-Serif" font-size="10.00">outputSampleRate</text>
</a>
</g>
</g>
<!-- Node10&#45;&gt;Node12 -->
<g id="edge15_Node000010_Node000012" class="edge">
<title>Node10&#45;&gt;Node12</title>
<g id="a_edge15_Node000010_Node000012"><a xlink:title=" ">
<path fill="none" stroke="#63b8ff" d="M570.21,-205.62C588.68,-205.62 607.99,-205.62 625.51,-205.62"/>
<polygon fill="#63b8ff" stroke="#63b8ff" points="625.51,-209.13 635.51,-205.63 625.51,-202.13 625.51,-209.13"/>
</a>
</g>
</g>
</g>
</svg>
