<?xml version="1.0" encoding="UTF-8" standalone="no"?>
<!DOCTYPE svg PUBLIC "-//W3C//DTD SVG 1.1//EN"
 "http://www.w3.org/Graphics/SVG/1.1/DTD/svg11.dtd">
<!-- Generated by graphviz version 14.0.2 (0)
 -->
<!-- Title: Steinberg::IPlugFrame Pages: 1 -->
<svg width="112pt" height="174pt"
 viewBox="0.00 0.00 112.00 174.00" xmlns="http://www.w3.org/2000/svg" xmlns:xlink="http://www.w3.org/1999/xlink">
<g id="graph0" class="graph" transform="scale(1 1) rotate(0) translate(4 170)">
<title>Steinberg::IPlugFrame</title>
<!-- Node1 -->
<g id="Node000001" class="node">
<title>Node1</title>
<g id="a_Node000001"><a xlink:title=" ">
<polygon fill="#999999" stroke="none" points="104,-49.75 0,-49.75 0,0 104,0 104,-49.75"/>
<text xml:space="preserve" text-anchor="start" x="4" y="-36.25" font-family="Helvetica,sans-Serif" font-size="10.00">Steinberg::IPlugFrame</text>
<text xml:space="preserve" text-anchor="start" x="12.19" y="-21" font-family="Helvetica,sans-Serif" font-size="10.00">+</text>
<text xml:space="preserve" text-anchor="start" x="30.38" y="-21" font-family="Helvetica,sans-Serif" font-size="10.00">iid</text>
<text xml:space="preserve" text-anchor="start" x="12.19" y="-5.75" font-family="Helvetica,sans-Serif" font-size="10.00">+</text>
<text xml:space="preserve" text-anchor="start" x="30.38" y="-5.75" font-family="Helvetica,sans-Serif" font-size="10.00">resizeView()</text>
<polygon fill="#666666" stroke="#666666" points="0,-32.5 0,-32.5 104,-32.5 104,-32.5 0,-32.5"/>
<polygon fill="#666666" stroke="#666666" points="0,-17.25 0,-17.25 28.38,-17.25 28.38,-17.25 0,-17.25"/>
<polygon fill="#666666" stroke="#666666" points="28.38,-17.25 28.38,-17.25 104,-17.25 104,-17.25 28.38,-17.25"/>
<polygon fill="none" stroke="#666666" points="0,0 0,-49.75 104,-49.75 104,0 0,0"/>
</a>
</g>
</g>
<!-- Node2 -->
<g id="Node000002" class="node">
<title>Node2</title>
<g id="a_Node000002"><a xlink:href="classSteinberg_1_1FUnknown.html" target="_top" xlink:title=" ">
<polygon fill="white" stroke="none" points="102.5,-166 1.5,-166 1.5,-85.75 102.5,-85.75 102.5,-166"/>
<text xml:space="preserve" text-anchor="start" x="5.5" y="-152.5" font-family="Helvetica,sans-Serif" font-size="10.00">Steinberg::FUnknown</text>
<text xml:space="preserve" text-anchor="start" x="9.38" y="-137.25" font-family="Helvetica,sans-Serif" font-size="10.00">+</text>
<text xml:space="preserve" text-anchor="start" x="23.25" y="-137.25" font-family="Helvetica,sans-Serif" font-size="10.00">iid</text>
<text xml:space="preserve" text-anchor="start" x="9.38" y="-122" font-family="Helvetica,sans-Serif" font-size="10.00">+</text>
<text xml:space="preserve" text-anchor="start" x="23.25" y="-122" font-family="Helvetica,sans-Serif" font-size="10.00">queryInterface()</text>
<text xml:space="preserve" text-anchor="start" x="9.38" y="-106.75" font-family="Helvetica,sans-Serif" font-size="10.00">+</text>
<text xml:space="preserve" text-anchor="start" x="23.25" y="-106.75" font-family="Helvetica,sans-Serif" font-size="10.00">addRef()</text>
<text xml:space="preserve" text-anchor="start" x="9.38" y="-91.5" font-family="Helvetica,sans-Serif" font-size="10.00">+</text>
<text xml:space="preserve" text-anchor="start" x="23.25" y="-91.5" font-family="Helvetica,sans-Serif" font-size="10.00">release()</text>
<polygon fill="#666666" stroke="#666666" points="1.5,-148.75 1.5,-148.75 102.5,-148.75 102.5,-148.75 1.5,-148.75"/>
<polygon fill="#666666" stroke="#666666" points="1.5,-133.5 1.5,-133.5 21.25,-133.5 21.25,-133.5 1.5,-133.5"/>
<polygon fill="#666666" stroke="#666666" points="21.25,-133.5 21.25,-133.5 102.5,-133.5 102.5,-133.5 21.25,-133.5"/>
<polygon fill="none" stroke="#666666" points="1.5,-85.75 1.5,-166 102.5,-166 102.5,-85.75 1.5,-85.75"/>
</a>
</g>
</g>
<!-- Node2&#45;&gt;Node1 -->
<g id="edge1_Node000001_Node000002" class="edge">
<title>Node2&#45;&gt;Node1</title>
<g id="a_edge1_Node000001_Node000002"><a xlink:title=" ">
<path fill="none" stroke="#63b8ff" d="M52,-74.58C52,-65.81 52,-57.07 52,-49.47"/>
<polygon fill="none" stroke="#63b8ff" points="48.5,-74.52 52,-84.52 55.5,-74.52 48.5,-74.52"/>
</a>
</g>
</g>
</g>
</svg>
