<?xml version="1.0" encoding="UTF-8" standalone="no"?>
<!DOCTYPE svg PUBLIC "-//W3C//DTD SVG 1.1//EN"
 "http://www.w3.org/Graphics/SVG/1.1/DTD/svg11.dtd">
<!-- Generated by graphviz version 14.0.2 (0)
 -->
<!-- Title: juce::Array::begin Pages: 1 -->
<svg width="800pt" height="1017pt"
 viewBox="0.00 0.00 800.00 1017.00" xmlns="http://www.w3.org/2000/svg" xmlns:xlink="http://www.w3.org/1999/xlink">
<g id="graph0" class="graph" transform="scale(1 1) rotate(0) translate(4 1012.5)">
<title>juce::Array::begin</title>
<!-- Node1 -->
<g id="Node000001" class="node">
<title>Node1</title>
<g id="a_Node000001"><a xlink:title=" ">
<polygon fill="#999999" stroke="#666666" points="791.75,-385.5 703,-385.5 703,-366.25 791.75,-366.25 791.75,-385.5"/>
<text xml:space="preserve" text-anchor="middle" x="747.38" y="-372" font-family="Helvetica,sans-Serif" font-size="10.00">juce::Array::begin</text>
</a>
</g>
</g>
<!-- Node2 -->
<g id="Node000002" class="node">
<title>Node2</title>
<g id="a_Node000002"><a xlink:href="classjuce_1_1Path.html#a501231000b1300180eb5b5d852428067" target="_top" xlink:title=" ">
<polygon fill="white" stroke="#666666" points="643,-880.5 543.75,-880.5 543.75,-861.25 643,-861.25 643,-880.5"/>
<text xml:space="preserve" text-anchor="middle" x="593.38" y="-867" font-family="Helvetica,sans-Serif" font-size="10.00">juce::Path::addPath</text>
</a>
</g>
</g>
<!-- Node1&#45;&gt;Node2 -->
<g id="edge1_Node000001_Node000002" class="edge">
<title>Node1&#45;&gt;Node2</title>
<g id="a_edge1_Node000001_Node000002"><a xlink:title=" ">
<path fill="none" stroke="#63b8ff" d="M745.47,-397.14C742.19,-458.46 727.63,-639.83 667,-774.88 651.16,-810.15 620.29,-844.57 604.38,-860.96"/>
<polygon fill="#63b8ff" stroke="#63b8ff" points="748.95,-397.61 745.94,-387.45 741.96,-397.27 748.95,-397.61"/>
</a>
</g>
</g>
<!-- Node3 -->
<g id="Node000003" class="node">
<title>Node3</title>
<g id="a_Node000003"><a xlink:href="classjuce_1_1Path.html#a2ddeeb818e9f0198569b82730dfe7439" target="_top" xlink:title=" ">
<polygon fill="white" stroke="#666666" points="459.75,-1008.5 360.5,-1008.5 360.5,-989.25 459.75,-989.25 459.75,-1008.5"/>
<text xml:space="preserve" text-anchor="middle" x="410.12" y="-995" font-family="Helvetica,sans-Serif" font-size="10.00">juce::Path::addPath</text>
</a>
</g>
</g>
<!-- Node1&#45;&gt;Node3 -->
<g id="edge10_Node000001_Node000003" class="edge">
<title>Node1&#45;&gt;Node3</title>
<g id="a_edge10_Node000001_Node000003"><a xlink:title=" ">
<path fill="none" stroke="#63b8ff" d="M745.96,-397.42C743.82,-486.72 731.51,-826.83 667,-907.88 616.72,-971.05 519.21,-990.42 460.15,-996.33"/>
<polygon fill="#63b8ff" stroke="#63b8ff" points="749.46,-397.51 746.18,-387.44 742.46,-397.36 749.46,-397.51"/>
</a>
</g>
</g>
<!-- Node7 -->
<g id="Node000007" class="node">
<title>Node7</title>
<g id="a_Node000007"><a xlink:href="structjuce_1_1Grid_1_1AutoPlacement.html#aa79b76caad6d7c175ba3d526853b86f6" target="_top" xlink:title=" ">
<polygon fill="white" stroke="#666666" points="293.75,-776.12 166,-776.12 166,-745.62 293.75,-745.62 293.75,-776.12"/>
<text xml:space="preserve" text-anchor="start" x="174" y="-762.62" font-family="Helvetica,sans-Serif" font-size="10.00">juce::Grid::AutoPlacement</text>
<text xml:space="preserve" text-anchor="middle" x="229.88" y="-751.38" font-family="Helvetica,sans-Serif" font-size="10.00">::applySizeForAutoTracks</text>
</a>
</g>
</g>
<!-- Node1&#45;&gt;Node7 -->
<g id="edge11_Node000001_Node000007" class="edge">
<title>Node1&#45;&gt;Node7</title>
<g id="a_edge11_Node000001_Node000007"><a xlink:title=" ">
<path fill="none" stroke="#63b8ff" d="M745.33,-397.2C741.93,-445.7 727.51,-565.9 667,-640.88 576.5,-753.01 391.66,-766.05 294.22,-764.43"/>
<polygon fill="#63b8ff" stroke="#63b8ff" points="748.82,-397.46 745.93,-387.26 741.84,-397.04 748.82,-397.46"/>
</a>
</g>
</g>
<!-- Node9 -->
<g id="Node000009" class="node">
<title>Node9</title>
<g id="a_Node000009"><a xlink:href="classjuce_1_1Path.html#acb6676950bcece1b1785266316f3f67f" target="_top" xlink:title=" ">
<polygon fill="white" stroke="#666666" points="658.38,-614.12 528.38,-614.12 528.38,-583.62 658.38,-583.62 658.38,-614.12"/>
<text xml:space="preserve" text-anchor="start" x="536.38" y="-600.62" font-family="Helvetica,sans-Serif" font-size="10.00">juce::Path::createPathWith</text>
<text xml:space="preserve" text-anchor="middle" x="593.38" y="-589.38" font-family="Helvetica,sans-Serif" font-size="10.00">RoundedCorners</text>
</a>
</g>
</g>
<!-- Node1&#45;&gt;Node9 -->
<g id="edge14_Node000001_Node000009" class="edge">
<title>Node1&#45;&gt;Node9</title>
<g id="a_edge14_Node000001_Node000009"><a xlink:title=" ">
<path fill="none" stroke="#63b8ff" d="M733.22,-395.17C703.61,-438.62 632.16,-543.44 605.05,-583.22"/>
<polygon fill="#63b8ff" stroke="#63b8ff" points="736.05,-397.23 738.8,-387 730.27,-393.29 736.05,-397.23"/>
</a>
</g>
</g>
<!-- Node14 -->
<g id="Node000014" class="node">
<title>Node14</title>
<g id="a_Node000014"><a xlink:href="classjuce_1_1KnownPluginList.html#ad1cee3ca9784b5a9dc90215c943943e2" target="_top" xlink:title=" ">
<polygon fill="white" stroke="#666666" points="649.38,-465.12 537.38,-465.12 537.38,-434.62 649.38,-434.62 649.38,-465.12"/>
<text xml:space="preserve" text-anchor="start" x="545.38" y="-451.62" font-family="Helvetica,sans-Serif" font-size="10.00">juce::KnownPluginList</text>
<text xml:space="preserve" text-anchor="middle" x="593.38" y="-440.38" font-family="Helvetica,sans-Serif" font-size="10.00">::createTree</text>
</a>
</g>
</g>
<!-- Node1&#45;&gt;Node14 -->
<g id="edge24_Node000001_Node000014" class="edge">
<title>Node1&#45;&gt;Node14</title>
<g id="a_edge24_Node000001_Node000014"><a xlink:title=" ">
<path fill="none" stroke="#63b8ff" d="M720.53,-391.71C705.24,-400.78 685.33,-412.07 667,-420.88 657.21,-425.58 646.45,-430.17 636.27,-434.27"/>
<polygon fill="#63b8ff" stroke="#63b8ff" points="722.23,-394.77 729.01,-386.62 718.63,-388.77 722.23,-394.77"/>
</a>
</g>
</g>
<!-- Node18 -->
<g id="Node000018" class="node">
<title>Node18</title>
<g id="a_Node000018"><a xlink:href="structjuce_1_1Grid_1_1AutoPlacement.html#a0ce37dd9bd97443ab865b7ea7d98ed04" target="_top" xlink:title=" ">
<polygon fill="white" stroke="#666666" points="293.75,-446.12 166,-446.12 166,-415.62 293.75,-415.62 293.75,-446.12"/>
<text xml:space="preserve" text-anchor="start" x="174" y="-432.62" font-family="Helvetica,sans-Serif" font-size="10.00">juce::Grid::AutoPlacement</text>
<text xml:space="preserve" text-anchor="middle" x="229.88" y="-421.38" font-family="Helvetica,sans-Serif" font-size="10.00">::deduceAllItems</text>
</a>
</g>
</g>
<!-- Node1&#45;&gt;Node18 -->
<g id="edge30_Node000001_Node000018" class="edge">
<title>Node1&#45;&gt;Node18</title>
<g id="a_edge30_Node000001_Node000018"><a xlink:title=" ">
<path fill="none" stroke="#63b8ff" d="M691.38,-384.57C683.22,-385.75 674.9,-386.89 667,-387.88 534.69,-404.39 379.15,-418.44 294.19,-425.67"/>
<polygon fill="#63b8ff" stroke="#63b8ff" points="691.88,-388.03 701.26,-383.1 690.86,-381.11 691.88,-388.03"/>
</a>
</g>
</g>
<!-- Node19 -->
<g id="Node000019" class="node">
<title>Node19</title>
<g id="a_Node000019"><a xlink:href="classjuce_1_1MPESynthesiser.html#a9be6f2870ac7dbfa6db52ac2c91cebcd" target="_top" xlink:title=" ">
<polygon fill="white" stroke="#666666" points="648.62,-361.12 538.12,-361.12 538.12,-330.62 648.62,-330.62 648.62,-361.12"/>
<text xml:space="preserve" text-anchor="start" x="546.12" y="-347.62" font-family="Helvetica,sans-Serif" font-size="10.00">juce::MPESynthesiser</text>
<text xml:space="preserve" text-anchor="middle" x="593.38" y="-336.38" font-family="Helvetica,sans-Serif" font-size="10.00">::findVoiceToSteal</text>
</a>
</g>
</g>
<!-- Node1&#45;&gt;Node19 -->
<g id="edge32_Node000001_Node000019" class="edge">
<title>Node1&#45;&gt;Node19</title>
<g id="a_edge32_Node000001_Node000019"><a xlink:title=" ">
<path fill="none" stroke="#63b8ff" d="M691.91,-365.13C677.98,-362.38 662.99,-359.42 649.04,-356.67"/>
<polygon fill="#63b8ff" stroke="#63b8ff" points="690.84,-368.48 701.33,-366.99 692.2,-361.61 690.84,-368.48"/>
</a>
</g>
</g>
<!-- Node23 -->
<g id="Node000023" class="node">
<title>Node23</title>
<g id="a_Node000023"><a xlink:href="classjuce_1_1Synthesiser.html#a60bb4c218f57c58161eb5e85c5844865" target="_top" xlink:title=" ">
<polygon fill="white" stroke="#666666" points="640.38,-294.12 546.38,-294.12 546.38,-263.62 640.38,-263.62 640.38,-294.12"/>
<text xml:space="preserve" text-anchor="start" x="554.38" y="-280.62" font-family="Helvetica,sans-Serif" font-size="10.00">juce::Synthesiser::</text>
<text xml:space="preserve" text-anchor="middle" x="593.38" y="-269.38" font-family="Helvetica,sans-Serif" font-size="10.00">findVoiceToSteal</text>
</a>
</g>
</g>
<!-- Node1&#45;&gt;Node23 -->
<g id="edge40_Node000001_Node000023" class="edge">
<title>Node1&#45;&gt;Node23</title>
<g id="a_edge40_Node000001_Node000023"><a xlink:title=" ">
<path fill="none" stroke="#63b8ff" d="M722.79,-359.26C707.14,-348.37 686.04,-333.97 667,-321.88 652.28,-312.52 635.55,-302.58 621.87,-294.61"/>
<polygon fill="#63b8ff" stroke="#63b8ff" points="720.77,-362.12 730.97,-364.98 724.78,-356.38 720.77,-362.12"/>
</a>
</g>
</g>
<!-- Node30 -->
<g id="Node000030" class="node">
<title>Node30</title>
<g id="a_Node000030"><a xlink:href="structjuce_1_1Typeface_1_1HintingParams.html#ad26befe73e093239c5aae4cf58d4ea2e" target="_top" xlink:title=" ">
<polygon fill="white" stroke="#666666" points="667,-245.12 519.75,-245.12 519.75,-214.62 667,-214.62 667,-245.12"/>
<text xml:space="preserve" text-anchor="start" x="527.75" y="-231.62" font-family="Helvetica,sans-Serif" font-size="10.00">juce::Typeface::HintingParams</text>
<text xml:space="preserve" text-anchor="middle" x="593.38" y="-220.38" font-family="Helvetica,sans-Serif" font-size="10.00">::getAverageY</text>
</a>
</g>
</g>
<!-- Node1&#45;&gt;Node30 -->
<g id="edge46_Node000001_Node000030" class="edge">
<title>Node1&#45;&gt;Node30</title>
<g id="a_edge46_Node000001_Node000030"><a xlink:title=" ">
<path fill="none" stroke="#63b8ff" d="M738.01,-355.35C726.08,-328.54 701.73,-281.88 667,-254.88 662.37,-251.27 657.18,-248.17 651.77,-245.5"/>
<polygon fill="#63b8ff" stroke="#63b8ff" points="734.74,-356.6 741.88,-364.42 741.17,-353.85 734.74,-356.6"/>
</a>
</g>
</g>
<!-- Node32 -->
<g id="Node000032" class="node">
<title>Node32</title>
<g id="a_Node000032"><a xlink:href="structjuce_1_1Grid_1_1PlacementHelpers.html#abaaa606e6fd9ac201872955cbdf47a5b" target="_top" xlink:title=" ">
<polygon fill="white" stroke="#666666" points="664,-196.12 522.75,-196.12 522.75,-165.62 664,-165.62 664,-196.12"/>
<text xml:space="preserve" text-anchor="start" x="530.75" y="-182.62" font-family="Helvetica,sans-Serif" font-size="10.00">juce::Grid::PlacementHelpers</text>
<text xml:space="preserve" text-anchor="middle" x="593.38" y="-171.38" font-family="Helvetica,sans-Serif" font-size="10.00">::getCoord</text>
</a>
</g>
</g>
<!-- Node1&#45;&gt;Node32 -->
<g id="edge48_Node000001_Node000032" class="edge">
<title>Node1&#45;&gt;Node32</title>
<g id="a_edge48_Node000001_Node000032"><a xlink:title=" ">
<path fill="none" stroke="#63b8ff" d="M742.16,-354.85C733.96,-319.2 712.48,-246.8 667,-205.88 663.04,-202.31 658.54,-199.24 653.77,-196.61"/>
<polygon fill="#63b8ff" stroke="#63b8ff" points="738.68,-355.3 744.21,-364.33 745.52,-353.82 738.68,-355.3"/>
</a>
</g>
</g>
<!-- Node35 -->
<g id="Node000035" class="node">
<title>Node35</title>
<g id="a_Node000035"><a xlink:href="structjuce_1_1Grid_1_1SizeCalculation.html#aab2294d02c212a74b08d806f005d40f8" target="_top" xlink:title=" ">
<polygon fill="white" stroke="#666666" points="657.25,-147.12 529.5,-147.12 529.5,-116.62 657.25,-116.62 657.25,-147.12"/>
<text xml:space="preserve" text-anchor="start" x="537.5" y="-133.62" font-family="Helvetica,sans-Serif" font-size="10.00">juce::Grid::SizeCalculation</text>
<text xml:space="preserve" text-anchor="middle" x="593.38" y="-122.38" font-family="Helvetica,sans-Serif" font-size="10.00">::hasAnyFractions</text>
</a>
</g>
</g>
<!-- Node1&#45;&gt;Node35 -->
<g id="edge52_Node000001_Node000035" class="edge">
<title>Node1&#45;&gt;Node35</title>
<g id="a_edge52_Node000001_Node000035"><a xlink:title=" ">
<path fill="none" stroke="#63b8ff" d="M744.66,-354.7C740.04,-311.48 723.55,-212.52 667,-156.88 663.29,-153.23 659.03,-150.11 654.47,-147.45"/>
<polygon fill="#63b8ff" stroke="#63b8ff" points="741.16,-354.86 745.59,-364.49 748.13,-354.2 741.16,-354.86"/>
</a>
</g>
</g>
<!-- Node37 -->
<g id="Node000037" class="node">
<title>Node37</title>
<g id="a_Node000037"><a xlink:href="structjuce_1_1JavascriptEngine_1_1RootObject_1_1FunctionCall.html#ac0db6831bdfd2c090d28b8ba64bf5a4a" target="_top" xlink:title=" ">
<polygon fill="white" stroke="#666666" points="657.25,-98.75 529.5,-98.75 529.5,-57 657.25,-57 657.25,-98.75"/>
<text xml:space="preserve" text-anchor="start" x="537.5" y="-85.25" font-family="Helvetica,sans-Serif" font-size="10.00">juce::JavascriptEngine</text>
<text xml:space="preserve" text-anchor="start" x="537.5" y="-74" font-family="Helvetica,sans-Serif" font-size="10.00">::RootObject::FunctionCall</text>
<text xml:space="preserve" text-anchor="middle" x="593.38" y="-62.75" font-family="Helvetica,sans-Serif" font-size="10.00">::invokeFunction</text>
</a>
</g>
</g>
<!-- Node1&#45;&gt;Node37 -->
<g id="edge55_Node000001_Node000037" class="edge">
<title>Node1&#45;&gt;Node37</title>
<g id="a_edge55_Node000001_Node000037"><a xlink:title=" ">
<path fill="none" stroke="#63b8ff" d="M746.01,-354.48C744.05,-304.83 732.46,-180.51 667,-107.88 664.08,-104.63 660.75,-101.73 657.17,-99.14"/>
<polygon fill="#63b8ff" stroke="#63b8ff" points="742.51,-354.5 746.3,-364.4 749.51,-354.3 742.51,-354.5"/>
</a>
</g>
</g>
<!-- Node2&#45;&gt;Node2 -->
<g id="edge2_Node000002_Node000002" class="edge">
<title>Node2&#45;&gt;Node2</title>
<g id="a_edge2_Node000002_Node000002"><a xlink:title=" ">
<path fill="none" stroke="#63b8ff" d="M620.99,-891.57C617.81,-895.62 608.6,-898.5 593.38,-898.5 566.3,-898.5 558.27,-889.4 569.27,-880.79"/>
<polygon fill="#63b8ff" stroke="#63b8ff" points="624.37,-890.66 617.95,-882.23 617.72,-892.82 624.37,-890.66"/>
</a>
</g>
</g>
<!-- Node2&#45;&gt;Node3 -->
<g id="edge3_Node000002_Node000003" class="edge">
<title>Node2&#45;&gt;Node3</title>
<g id="a_edge3_Node000002_Node000003"><a xlink:title=" ">
<path fill="none" stroke="#63b8ff" d="M575.18,-889.15C547.37,-918.54 494.56,-973.66 483.75,-979.88 476.52,-984.03 468.36,-987.3 460.2,-989.86"/>
<polygon fill="#63b8ff" stroke="#63b8ff" points="577.57,-891.72 581.89,-882.04 572.48,-886.91 577.57,-891.72"/>
</a>
</g>
</g>
<!-- Node4 -->
<g id="Node000004" class="node">
<title>Node4</title>
<g id="a_Node000004"><a xlink:href="classjuce_1_1PositionedGlyph.html#aeb3cb0793c6d01c95f2853ba58c046f2" target="_top" xlink:title=" ">
<polygon fill="white" stroke="#666666" points="464.62,-953.12 355.62,-953.12 355.62,-922.62 464.62,-922.62 464.62,-953.12"/>
<text xml:space="preserve" text-anchor="start" x="363.62" y="-939.62" font-family="Helvetica,sans-Serif" font-size="10.00">juce::PositionedGlyph</text>
<text xml:space="preserve" text-anchor="middle" x="410.12" y="-928.38" font-family="Helvetica,sans-Serif" font-size="10.00">::createPath</text>
</a>
</g>
</g>
<!-- Node2&#45;&gt;Node4 -->
<g id="edge4_Node000002_Node000004" class="edge">
<title>Node2&#45;&gt;Node4</title>
<g id="a_edge4_Node000002_Node000004"><a xlink:title=" ">
<path fill="none" stroke="#63b8ff" d="M556.58,-885.1C535.46,-893.4 508.17,-903.95 483.75,-912.88 475.36,-915.94 466.38,-919.11 457.71,-922.13"/>
<polygon fill="#63b8ff" stroke="#63b8ff" points="557.59,-888.47 565.61,-881.54 555.02,-881.95 557.59,-888.47"/>
</a>
</g>
</g>
<!-- Node5 -->
<g id="Node000005" class="node">
<title>Node5</title>
<g id="a_Node000005"><a xlink:href="classjuce_1_1DrawableComposite.html#a4edf22eb00ce16fa136b9471579a8522" target="_top" xlink:title=" ">
<polygon fill="white" stroke="#666666" points="472.88,-886.12 347.38,-886.12 347.38,-855.62 472.88,-855.62 472.88,-886.12"/>
<text xml:space="preserve" text-anchor="start" x="355.38" y="-872.62" font-family="Helvetica,sans-Serif" font-size="10.00">juce::DrawableComposite</text>
<text xml:space="preserve" text-anchor="middle" x="410.12" y="-861.38" font-family="Helvetica,sans-Serif" font-size="10.00">::getOutlineAsPath</text>
</a>
</g>
</g>
<!-- Node2&#45;&gt;Node5 -->
<g id="edge6_Node000002_Node000005" class="edge">
<title>Node2&#45;&gt;Node5</title>
<g id="a_edge6_Node000002_Node000005"><a xlink:title=" ">
<path fill="none" stroke="#63b8ff" d="M531.87,-870.88C513,-870.88 492.17,-870.88 473.2,-870.88"/>
<polygon fill="#63b8ff" stroke="#63b8ff" points="531.81,-874.38 541.81,-870.88 531.81,-867.38 531.81,-874.38"/>
</a>
</g>
</g>
<!-- Node6 -->
<g id="Node000006" class="node">
<title>Node6</title>
<g id="a_Node000006"><a xlink:href="classjuce_1_1DrawableText.html#a8ed51b690e5f37d590293cfdbbe44f83" target="_top" xlink:title=" ">
<polygon fill="white" stroke="#666666" points="459,-819.12 361.25,-819.12 361.25,-788.62 459,-788.62 459,-819.12"/>
<text xml:space="preserve" text-anchor="start" x="369.25" y="-805.62" font-family="Helvetica,sans-Serif" font-size="10.00">juce::DrawableText</text>
<text xml:space="preserve" text-anchor="middle" x="410.12" y="-794.38" font-family="Helvetica,sans-Serif" font-size="10.00">::getOutlineAsPath</text>
</a>
</g>
</g>
<!-- Node2&#45;&gt;Node6 -->
<g id="edge8_Node000002_Node000006" class="edge">
<title>Node2&#45;&gt;Node6</title>
<g id="a_edge8_Node000002_Node000006"><a xlink:title=" ">
<path fill="none" stroke="#63b8ff" d="M554.55,-856.89C525.1,-846.01 484.21,-830.89 453.62,-819.58"/>
<polygon fill="#63b8ff" stroke="#63b8ff" points="553.23,-860.14 563.82,-860.32 555.65,-853.57 553.23,-860.14"/>
</a>
</g>
</g>
<!-- Node4&#45;&gt;Node4 -->
<g id="edge5_Node000004_Node000004" class="edge">
<title>Node4&#45;&gt;Node4</title>
<g id="a_edge5_Node000004_Node000004"><a xlink:title=" ">
<path fill="none" stroke="#63b8ff" d="M440.35,-964.83C435.41,-968.6 425.33,-971.12 410.12,-971.12 382.31,-971.12 371.67,-962.68 378.18,-953.61"/>
<polygon fill="#63b8ff" stroke="#63b8ff" points="443.79,-965.52 441.84,-955.11 436.87,-964.46 443.79,-965.52"/>
</a>
</g>
</g>
<!-- Node5&#45;&gt;Node5 -->
<g id="edge7_Node000005_Node000005" class="edge">
<title>Node5&#45;&gt;Node5</title>
<g id="a_edge7_Node000005_Node000005"><a xlink:title=" ">
<path fill="none" stroke="#63b8ff" d="M440.35,-897.83C435.41,-901.6 425.33,-904.12 410.12,-904.12 382.31,-904.12 371.67,-895.68 378.18,-886.61"/>
<polygon fill="#63b8ff" stroke="#63b8ff" points="443.79,-898.52 441.84,-888.11 436.87,-897.46 443.79,-898.52"/>
</a>
</g>
</g>
<!-- Node6&#45;&gt;Node6 -->
<g id="edge9_Node000006_Node000006" class="edge">
<title>Node6&#45;&gt;Node6</title>
<g id="a_edge9_Node000006_Node000006"><a xlink:title=" ">
<path fill="none" stroke="#63b8ff" d="M440.35,-830.83C435.41,-834.6 425.33,-837.12 410.12,-837.12 382.31,-837.12 371.67,-828.68 378.18,-819.61"/>
<polygon fill="#63b8ff" stroke="#63b8ff" points="443.79,-831.52 441.84,-821.11 436.87,-830.46 443.79,-831.52"/>
</a>
</g>
</g>
<!-- Node8 -->
<g id="Node000008" class="node">
<title>Node8</title>
<g id="a_Node000008"><a xlink:href="classjuce_1_1Grid.html#a0174edb3cae3b21990ffcd1757a31fb3" target="_top" xlink:title=" ">
<polygon fill="white" stroke="#666666" points="123.25,-315.5 0,-315.5 0,-296.25 123.25,-296.25 123.25,-315.5"/>
<text xml:space="preserve" text-anchor="middle" x="61.62" y="-302" font-family="Helvetica,sans-Serif" font-size="10.00">juce::Grid::performLayout</text>
</a>
</g>
</g>
<!-- Node7&#45;&gt;Node8 -->
<g id="edge12_Node000007_Node000008" class="edge">
<title>Node7&#45;&gt;Node8</title>
<g id="a_edge12_Node000007_Node000008"><a xlink:title=" ">
<path fill="none" stroke="#63b8ff" d="M161.45,-738.2C160.69,-737.45 159.96,-736.68 159.25,-735.88 100.87,-669.79 69.29,-374.11 63.57,-315.86"/>
<polygon fill="#63b8ff" stroke="#63b8ff" points="159.23,-740.91 169.24,-744.38 163.58,-735.42 159.23,-740.91"/>
</a>
</g>
</g>
<!-- Node8&#45;&gt;Node8 -->
<g id="edge13_Node000008_Node000008" class="edge">
<title>Node8&#45;&gt;Node8</title>
<g id="a_edge13_Node000008_Node000008"><a xlink:title=" ">
<path fill="none" stroke="#63b8ff" d="M91.79,-326.57C88.32,-330.62 78.26,-333.5 61.62,-333.5 32.05,-333.5 23.27,-324.4 35.28,-315.79"/>
<polygon fill="#63b8ff" stroke="#63b8ff" points="95.12,-325.47 88.47,-317.21 88.52,-327.81 95.12,-325.47"/>
</a>
</g>
</g>
<!-- Node9&#45;&gt;Node9 -->
<g id="edge15_Node000009_Node000009" class="edge">
<title>Node9&#45;&gt;Node9</title>
<g id="a_edge15_Node000009_Node000009"><a xlink:title=" ">
<path fill="none" stroke="#63b8ff" d="M619.2,-625.83C614.98,-629.6 606.37,-632.12 593.38,-632.12 569.61,-632.12 560.52,-623.68 566.09,-614.61"/>
<polygon fill="#63b8ff" stroke="#63b8ff" points="622.65,-626.48 620.47,-616.11 615.7,-625.58 622.65,-626.48"/>
</a>
</g>
</g>
<!-- Node10 -->
<g id="Node000010" class="node">
<title>Node10</title>
<g id="a_Node000010"><a xlink:href="classjuce_1_1LookAndFeel__V2.html#aebe0e011ba8faf80c5ef318eca896421" target="_top" xlink:title=" ">
<polygon fill="white" stroke="#666666" points="470.25,-715.12 350,-715.12 350,-684.62 470.25,-684.62 470.25,-715.12"/>
<text xml:space="preserve" text-anchor="start" x="358" y="-701.62" font-family="Helvetica,sans-Serif" font-size="10.00">juce::LookAndFeel_V2</text>
<text xml:space="preserve" text-anchor="middle" x="410.12" y="-690.38" font-family="Helvetica,sans-Serif" font-size="10.00">::createTabButtonShape</text>
</a>
</g>
</g>
<!-- Node9&#45;&gt;Node10 -->
<g id="edge16_Node000009_Node000010" class="edge">
<title>Node9&#45;&gt;Node10</title>
<g id="a_edge16_Node000009_Node000010"><a xlink:title=" ">
<path fill="none" stroke="#63b8ff" d="M565.03,-621.24C543.85,-637.75 513.23,-659.86 483.75,-674.88 477.1,-678.26 469.88,-681.37 462.66,-684.15"/>
<polygon fill="#63b8ff" stroke="#63b8ff" points="566.92,-624.21 572.6,-615.26 562.58,-618.72 566.92,-624.21"/>
</a>
</g>
</g>
<!-- Node12 -->
<g id="Node000012" class="node">
<title>Node12</title>
<g id="a_Node000012"><a xlink:href="classjuce_1_1LookAndFeel__V2.html#a4e22e7e8e3dd863acfe69fc93a570f3e" target="_top" xlink:title=" ">
<polygon fill="white" stroke="#666666" points="466.88,-648.12 353.38,-648.12 353.38,-617.62 466.88,-617.62 466.88,-648.12"/>
<text xml:space="preserve" text-anchor="start" x="361.38" y="-634.62" font-family="Helvetica,sans-Serif" font-size="10.00">juce::LookAndFeel_V2</text>
<text xml:space="preserve" text-anchor="middle" x="410.12" y="-623.38" font-family="Helvetica,sans-Serif" font-size="10.00">::drawAlertBox</text>
</a>
</g>
</g>
<!-- Node9&#45;&gt;Node12 -->
<g id="edge20_Node000009_Node000012" class="edge">
<title>Node9&#45;&gt;Node12</title>
<g id="a_edge20_Node000009_Node000012"><a xlink:title=" ">
<path fill="none" stroke="#63b8ff" d="M517.11,-612.99C500.41,-616.13 482.99,-619.39 467.21,-622.35"/>
<polygon fill="#63b8ff" stroke="#63b8ff" points="517.29,-616.52 526.48,-611.24 516,-609.64 517.29,-616.52"/>
</a>
</g>
</g>
<!-- Node13 -->
<g id="Node000013" class="node">
<title>Node13</title>
<g id="a_Node000013"><a xlink:href="classjuce_1_1LookAndFeel__V4.html#a9d7280c8f6209f036cfa716bc123653c" target="_top" xlink:title=" ">
<polygon fill="white" stroke="#666666" points="466.88,-581.12 353.38,-581.12 353.38,-550.62 466.88,-550.62 466.88,-581.12"/>
<text xml:space="preserve" text-anchor="start" x="361.38" y="-567.62" font-family="Helvetica,sans-Serif" font-size="10.00">juce::LookAndFeel_V4</text>
<text xml:space="preserve" text-anchor="middle" x="410.12" y="-556.38" font-family="Helvetica,sans-Serif" font-size="10.00">::drawAlertBox</text>
</a>
</g>
</g>
<!-- Node9&#45;&gt;Node13 -->
<g id="edge22_Node000009_Node000013" class="edge">
<title>Node9&#45;&gt;Node13</title>
<g id="a_edge22_Node000009_Node000013"><a xlink:title=" ">
<path fill="none" stroke="#63b8ff" d="M516.64,-585.09C500.08,-582.07 482.84,-578.93 467.21,-576.09"/>
<polygon fill="#63b8ff" stroke="#63b8ff" points="516.01,-588.53 526.47,-586.88 517.26,-581.64 516.01,-588.53"/>
</a>
</g>
</g>
<!-- Node10&#45;&gt;Node10 -->
<g id="edge17_Node000010_Node000010" class="edge">
<title>Node10&#45;&gt;Node10</title>
<g id="a_edge17_Node000010_Node000010"><a xlink:title=" ">
<path fill="none" stroke="#63b8ff" d="M440.35,-726.83C435.41,-730.6 425.33,-733.12 410.12,-733.12 382.31,-733.12 371.67,-724.68 378.18,-715.61"/>
<polygon fill="#63b8ff" stroke="#63b8ff" points="443.79,-727.52 441.84,-717.11 436.87,-726.46 443.79,-727.52"/>
</a>
</g>
</g>
<!-- Node11 -->
<g id="Node000011" class="node">
<title>Node11</title>
<g id="a_Node000011"><a xlink:href="classjuce_1_1LookAndFeel__V2.html#a95e0e682100db5dc73a4ff0722371eb7" target="_top" xlink:title=" ">
<polygon fill="white" stroke="#666666" points="286.62,-709.12 173.12,-709.12 173.12,-678.62 286.62,-678.62 286.62,-709.12"/>
<text xml:space="preserve" text-anchor="start" x="181.12" y="-695.62" font-family="Helvetica,sans-Serif" font-size="10.00">juce::LookAndFeel_V2</text>
<text xml:space="preserve" text-anchor="middle" x="229.88" y="-684.38" font-family="Helvetica,sans-Serif" font-size="10.00">::drawTabButton</text>
</a>
</g>
</g>
<!-- Node10&#45;&gt;Node11 -->
<g id="edge18_Node000010_Node000011" class="edge">
<title>Node10&#45;&gt;Node11</title>
<g id="a_edge18_Node000010_Node000011"><a xlink:title=" ">
<path fill="none" stroke="#63b8ff" d="M338.66,-697.5C321.49,-696.93 303.35,-696.31 286.95,-695.76"/>
<polygon fill="#63b8ff" stroke="#63b8ff" points="338.15,-700.99 348.26,-697.83 338.38,-693.99 338.15,-700.99"/>
</a>
</g>
</g>
<!-- Node11&#45;&gt;Node11 -->
<g id="edge19_Node000011_Node000011" class="edge">
<title>Node11&#45;&gt;Node11</title>
<g id="a_edge19_Node000011_Node000011"><a xlink:title=" ">
<path fill="none" stroke="#63b8ff" d="M258.09,-720.83C253.48,-724.6 244.07,-727.12 229.88,-727.12 203.91,-727.12 193.98,-718.68 200.06,-709.61"/>
<polygon fill="#63b8ff" stroke="#63b8ff" points="261.53,-721.5 259.48,-711.11 254.6,-720.52 261.53,-721.5"/>
</a>
</g>
</g>
<!-- Node12&#45;&gt;Node12 -->
<g id="edge21_Node000012_Node000012" class="edge">
<title>Node12&#45;&gt;Node12</title>
<g id="a_edge21_Node000012_Node000012"><a xlink:title=" ">
<path fill="none" stroke="#63b8ff" d="M440.35,-659.83C435.41,-663.6 425.33,-666.12 410.12,-666.12 382.31,-666.12 371.67,-657.68 378.18,-648.61"/>
<polygon fill="#63b8ff" stroke="#63b8ff" points="443.79,-660.52 441.84,-650.11 436.87,-659.46 443.79,-660.52"/>
</a>
</g>
</g>
<!-- Node13&#45;&gt;Node13 -->
<g id="edge23_Node000013_Node000013" class="edge">
<title>Node13&#45;&gt;Node13</title>
<g id="a_edge23_Node000013_Node000013"><a xlink:title=" ">
<path fill="none" stroke="#63b8ff" d="M440.35,-592.83C435.41,-596.6 425.33,-599.12 410.12,-599.12 382.31,-599.12 371.67,-590.68 378.18,-581.61"/>
<polygon fill="#63b8ff" stroke="#63b8ff" points="443.79,-593.52 441.84,-583.11 436.87,-592.46 443.79,-593.52"/>
</a>
</g>
</g>
<!-- Node14&#45;&gt;Node14 -->
<g id="edge28_Node000014_Node000014" class="edge">
<title>Node14&#45;&gt;Node14</title>
<g id="a_edge28_Node000014_Node000014"><a xlink:title=" ">
<path fill="none" stroke="#63b8ff" d="M619.2,-476.83C614.98,-480.6 606.37,-483.12 593.38,-483.12 569.61,-483.12 560.52,-474.68 566.09,-465.61"/>
<polygon fill="#63b8ff" stroke="#63b8ff" points="622.65,-477.48 620.47,-467.11 615.7,-476.58 622.65,-477.48"/>
</a>
</g>
</g>
<!-- Node15 -->
<g id="Node000015" class="node">
<title>Node15</title>
<g id="a_Node000015"><a xlink:href="classjuce_1_1KnownPluginList.html#aab7e72c62571fe3d733b7c1f0b29f1f0" target="_top" xlink:title=" ">
<polygon fill="white" stroke="#666666" points="466.12,-514.12 354.12,-514.12 354.12,-483.62 466.12,-483.62 466.12,-514.12"/>
<text xml:space="preserve" text-anchor="start" x="362.12" y="-500.62" font-family="Helvetica,sans-Serif" font-size="10.00">juce::KnownPluginList</text>
<text xml:space="preserve" text-anchor="middle" x="410.12" y="-489.38" font-family="Helvetica,sans-Serif" font-size="10.00">::addToMenu</text>
</a>
</g>
</g>
<!-- Node14&#45;&gt;Node15 -->
<g id="edge25_Node000014_Node000015" class="edge">
<title>Node14&#45;&gt;Node15</title>
<g id="a_edge25_Node000014_Node000015"><a xlink:title=" ">
<path fill="none" stroke="#63b8ff" d="M526.02,-467.81C506.46,-473.1 485.26,-478.83 466.46,-483.91"/>
<polygon fill="#63b8ff" stroke="#63b8ff" points="526.81,-471.23 535.55,-465.24 524.98,-464.47 526.81,-471.23"/>
</a>
</g>
</g>
<!-- Node17 -->
<g id="Node000017" class="node">
<title>Node17</title>
<g id="a_Node000017"><a xlink:href="classjuce_1_1KnownPluginList.html#a082f77b2a8f93cf4d5194594d099460c" target="_top" xlink:title=" ">
<polygon fill="white" stroke="#666666" points="466.12,-465.12 354.12,-465.12 354.12,-434.62 466.12,-434.62 466.12,-465.12"/>
<text xml:space="preserve" text-anchor="start" x="362.12" y="-451.62" font-family="Helvetica,sans-Serif" font-size="10.00">juce::KnownPluginList</text>
<text xml:space="preserve" text-anchor="middle" x="410.12" y="-440.38" font-family="Helvetica,sans-Serif" font-size="10.00">::createTree</text>
</a>
</g>
</g>
<!-- Node14&#45;&gt;Node17 -->
<g id="edge29_Node000014_Node000017" class="edge">
<title>Node14&#45;&gt;Node17</title>
<g id="a_edge29_Node000014_Node000017"><a xlink:title=" ">
<path fill="none" stroke="#63b8ff" d="M525.75,-449.88C506.26,-449.88 485.17,-449.88 466.46,-449.88"/>
<polygon fill="#63b8ff" stroke="#63b8ff" points="525.5,-453.38 535.5,-449.88 525.5,-446.38 525.5,-453.38"/>
</a>
</g>
</g>
<!-- Node15&#45;&gt;Node15 -->
<g id="edge26_Node000015_Node000015" class="edge">
<title>Node15&#45;&gt;Node15</title>
<g id="a_edge26_Node000015_Node000015"><a xlink:title=" ">
<path fill="none" stroke="#63b8ff" d="M440.35,-525.83C435.41,-529.6 425.33,-532.12 410.12,-532.12 382.31,-532.12 371.67,-523.68 378.18,-514.61"/>
<polygon fill="#63b8ff" stroke="#63b8ff" points="443.79,-526.52 441.84,-516.11 436.87,-525.46 443.79,-526.52"/>
</a>
</g>
</g>
<!-- Node16 -->
<g id="Node000016" class="node">
<title>Node16</title>
<g id="a_Node000016"><a xlink:href="classjuce_1_1KnownPluginList.html#a712af8af5d4f922ca8413a2ccd84e2ed" target="_top" xlink:title=" ">
<polygon fill="white" stroke="#666666" points="285.88,-514.12 173.88,-514.12 173.88,-483.62 285.88,-483.62 285.88,-514.12"/>
<text xml:space="preserve" text-anchor="start" x="181.88" y="-500.62" font-family="Helvetica,sans-Serif" font-size="10.00">juce::KnownPluginList</text>
<text xml:space="preserve" text-anchor="middle" x="229.88" y="-489.38" font-family="Helvetica,sans-Serif" font-size="10.00">::addToMenu</text>
</a>
</g>
</g>
<!-- Node15&#45;&gt;Node16 -->
<g id="edge27_Node000015_Node000016" class="edge">
<title>Node15&#45;&gt;Node16</title>
<g id="a_edge27_Node000015_Node000016"><a xlink:title=" ">
<path fill="none" stroke="#63b8ff" d="M342.4,-498.88C323.9,-498.88 304.03,-498.88 286.26,-498.88"/>
<polygon fill="#63b8ff" stroke="#63b8ff" points="342.19,-502.38 352.19,-498.88 342.19,-495.38 342.19,-502.38"/>
</a>
</g>
</g>
<!-- Node18&#45;&gt;Node8 -->
<g id="edge31_Node000018_Node000008" class="edge">
<title>Node18&#45;&gt;Node8</title>
<g id="a_edge31_Node000018_Node000008"><a xlink:title=" ">
<path fill="none" stroke="#63b8ff" d="M166.34,-410.07C163.9,-408.74 161.53,-407.35 159.25,-405.88 119.71,-380.33 84.34,-335.68 69.73,-315.85"/>
<polygon fill="#63b8ff" stroke="#63b8ff" points="164.78,-413.2 175.3,-414.47 167.86,-406.92 164.78,-413.2"/>
</a>
</g>
</g>
<!-- Node19&#45;&gt;Node19 -->
<g id="edge39_Node000019_Node000019" class="edge">
<title>Node19&#45;&gt;Node19</title>
<g id="a_edge39_Node000019_Node000019"><a xlink:title=" ">
<path fill="none" stroke="#63b8ff" d="M619.2,-372.83C614.98,-376.6 606.37,-379.12 593.38,-379.12 569.61,-379.12 560.52,-370.68 566.09,-361.61"/>
<polygon fill="#63b8ff" stroke="#63b8ff" points="622.65,-373.48 620.47,-363.11 615.7,-372.58 622.65,-373.48"/>
</a>
</g>
</g>
<!-- Node20 -->
<g id="Node000020" class="node">
<title>Node20</title>
<g id="a_Node000020"><a xlink:href="classjuce_1_1MPESynthesiser.html#a14efe61992d3bc6b1a00d62b45107e20" target="_top" xlink:title=" ">
<polygon fill="white" stroke="#666666" points="465.38,-361.12 354.88,-361.12 354.88,-330.62 465.38,-330.62 465.38,-361.12"/>
<text xml:space="preserve" text-anchor="start" x="362.88" y="-347.62" font-family="Helvetica,sans-Serif" font-size="10.00">juce::MPESynthesiser</text>
<text xml:space="preserve" text-anchor="middle" x="410.12" y="-336.38" font-family="Helvetica,sans-Serif" font-size="10.00">::findFreeVoice</text>
</a>
</g>
</g>
<!-- Node19&#45;&gt;Node20 -->
<g id="edge33_Node000019_Node000020" class="edge">
<title>Node19&#45;&gt;Node20</title>
<g id="a_edge33_Node000019_Node000020"><a xlink:title=" ">
<path fill="none" stroke="#63b8ff" d="M526.49,-345.88C506.56,-345.88 484.89,-345.88 465.78,-345.88"/>
<polygon fill="#63b8ff" stroke="#63b8ff" points="526.48,-349.38 536.48,-345.88 526.48,-342.38 526.48,-349.38"/>
</a>
</g>
</g>
<!-- Node20&#45;&gt;Node20 -->
<g id="edge34_Node000020_Node000020" class="edge">
<title>Node20&#45;&gt;Node20</title>
<g id="a_edge34_Node000020_Node000020"><a xlink:title=" ">
<path fill="none" stroke="#63b8ff" d="M440.35,-372.83C435.41,-376.6 425.33,-379.12 410.12,-379.12 382.31,-379.12 371.67,-370.68 378.18,-361.61"/>
<polygon fill="#63b8ff" stroke="#63b8ff" points="443.79,-373.52 441.84,-363.11 436.87,-372.46 443.79,-373.52"/>
</a>
</g>
</g>
<!-- Node21 -->
<g id="Node000021" class="node">
<title>Node21</title>
<g id="a_Node000021"><a xlink:href="classjuce_1_1MPESynthesiser.html#aa94c12534f6d21775e96b2615cbd3897" target="_top" xlink:title=" ">
<polygon fill="white" stroke="#666666" points="285.12,-379.12 174.62,-379.12 174.62,-348.62 285.12,-348.62 285.12,-379.12"/>
<text xml:space="preserve" text-anchor="start" x="182.62" y="-365.62" font-family="Helvetica,sans-Serif" font-size="10.00">juce::MPESynthesiser</text>
<text xml:space="preserve" text-anchor="middle" x="229.88" y="-354.38" font-family="Helvetica,sans-Serif" font-size="10.00">::noteAdded</text>
</a>
</g>
</g>
<!-- Node20&#45;&gt;Node21 -->
<g id="edge35_Node000020_Node000021" class="edge">
<title>Node20&#45;&gt;Node21</title>
<g id="a_edge35_Node000020_Node000021"><a xlink:title=" ">
<path fill="none" stroke="#63b8ff" d="M343.39,-352.51C324.39,-354.43 303.86,-356.51 285.61,-358.35"/>
<polygon fill="#63b8ff" stroke="#63b8ff" points="343.57,-356.01 353.17,-351.53 342.87,-349.05 343.57,-356.01"/>
</a>
</g>
</g>
<!-- Node22 -->
<g id="Node000022" class="node">
<title>Node22</title>
<g id="a_Node000022"><a xlink:href="classjuce_1_1MPESynthesiser.html#a13879357fb3128b95328002c9df26a0f" target="_top" xlink:title=" ">
<polygon fill="white" stroke="#666666" points="285.12,-312.12 174.62,-312.12 174.62,-281.62 285.12,-281.62 285.12,-312.12"/>
<text xml:space="preserve" text-anchor="start" x="182.62" y="-298.62" font-family="Helvetica,sans-Serif" font-size="10.00">juce::MPESynthesiser</text>
<text xml:space="preserve" text-anchor="middle" x="229.88" y="-287.38" font-family="Helvetica,sans-Serif" font-size="10.00">::reduceNumVoices</text>
</a>
</g>
</g>
<!-- Node20&#45;&gt;Node22 -->
<g id="edge37_Node000020_Node000022" class="edge">
<title>Node20&#45;&gt;Node22</title>
<g id="a_edge37_Node000020_Node000022"><a xlink:title=" ">
<path fill="none" stroke="#63b8ff" d="M343.65,-327.88C324.58,-322.63 303.94,-316.96 285.61,-311.92"/>
<polygon fill="#63b8ff" stroke="#63b8ff" points="342.65,-331.23 353.22,-330.51 344.5,-324.48 342.65,-331.23"/>
</a>
</g>
</g>
<!-- Node21&#45;&gt;Node21 -->
<g id="edge36_Node000021_Node000021" class="edge">
<title>Node21&#45;&gt;Node21</title>
<g id="a_edge36_Node000021_Node000021"><a xlink:title=" ">
<path fill="none" stroke="#63b8ff" d="M258.09,-390.83C253.48,-394.6 244.07,-397.12 229.88,-397.12 203.91,-397.12 193.98,-388.68 200.06,-379.61"/>
<polygon fill="#63b8ff" stroke="#63b8ff" points="261.53,-391.5 259.48,-381.11 254.6,-390.52 261.53,-391.5"/>
</a>
</g>
</g>
<!-- Node22&#45;&gt;Node22 -->
<g id="edge38_Node000022_Node000022" class="edge">
<title>Node22&#45;&gt;Node22</title>
<g id="a_edge38_Node000022_Node000022"><a xlink:title=" ">
<path fill="none" stroke="#63b8ff" d="M258.09,-323.83C253.48,-327.6 244.07,-330.12 229.88,-330.12 203.91,-330.12 193.98,-321.68 200.06,-312.61"/>
<polygon fill="#63b8ff" stroke="#63b8ff" points="261.53,-324.5 259.48,-314.11 254.6,-323.52 261.53,-324.5"/>
</a>
</g>
</g>
<!-- Node23&#45;&gt;Node23 -->
<g id="edge45_Node000023_Node000023" class="edge">
<title>Node23&#45;&gt;Node23</title>
<g id="a_edge45_Node000023_Node000023"><a xlink:title=" ">
<path fill="none" stroke="#63b8ff" d="M619.2,-305.83C614.98,-309.6 606.37,-312.12 593.38,-312.12 569.61,-312.12 560.52,-303.68 566.09,-294.61"/>
<polygon fill="#63b8ff" stroke="#63b8ff" points="622.65,-306.48 620.47,-296.11 615.7,-305.58 622.65,-306.48"/>
</a>
</g>
</g>
<!-- Node24 -->
<g id="Node000024" class="node">
<title>Node24</title>
<g id="a_Node000024"><a xlink:href="classjuce_1_1Synthesiser.html#a0f2ed088079e85576c353b999eb39986" target="_top" xlink:title=" ">
<polygon fill="white" stroke="#666666" points="457.12,-294.12 363.12,-294.12 363.12,-263.62 457.12,-263.62 457.12,-294.12"/>
<text xml:space="preserve" text-anchor="start" x="371.12" y="-280.62" font-family="Helvetica,sans-Serif" font-size="10.00">juce::Synthesiser::</text>
<text xml:space="preserve" text-anchor="middle" x="410.12" y="-269.38" font-family="Helvetica,sans-Serif" font-size="10.00">findFreeVoice</text>
</a>
</g>
</g>
<!-- Node23&#45;&gt;Node24 -->
<g id="edge41_Node000023_Node000024" class="edge">
<title>Node23&#45;&gt;Node24</title>
<g id="a_edge41_Node000023_Node000024"><a xlink:title=" ">
<path fill="none" stroke="#63b8ff" d="M534.67,-278.88C509.77,-278.88 481.05,-278.88 457.56,-278.88"/>
<polygon fill="#63b8ff" stroke="#63b8ff" points="534.66,-282.38 544.66,-278.88 534.66,-275.38 534.66,-282.38"/>
</a>
</g>
</g>
<!-- Node24&#45;&gt;Node24 -->
<g id="edge42_Node000024_Node000024" class="edge">
<title>Node24&#45;&gt;Node24</title>
<g id="a_edge42_Node000024_Node000024"><a xlink:title=" ">
<path fill="none" stroke="#63b8ff" d="M440.35,-305.83C435.41,-309.6 425.33,-312.12 410.12,-312.12 382.31,-312.12 371.67,-303.68 378.18,-294.61"/>
<polygon fill="#63b8ff" stroke="#63b8ff" points="443.79,-306.52 441.84,-296.11 436.87,-305.46 443.79,-306.52"/>
</a>
</g>
</g>
<!-- Node25 -->
<g id="Node000025" class="node">
<title>Node25</title>
<g id="a_Node000025"><a xlink:href="classjuce_1_1Synthesiser.html#ac930e21574c00b9780e837abc08f425c" target="_top" xlink:title=" ">
<polygon fill="#fff0f0" stroke="red" points="276.88,-245.12 182.88,-245.12 182.88,-214.62 276.88,-214.62 276.88,-245.12"/>
<text xml:space="preserve" text-anchor="start" x="190.88" y="-231.62" font-family="Helvetica,sans-Serif" font-size="10.00">juce::Synthesiser::</text>
<text xml:space="preserve" text-anchor="middle" x="229.88" y="-220.38" font-family="Helvetica,sans-Serif" font-size="10.00">noteOn</text>
</a>
</g>
</g>
<!-- Node24&#45;&gt;Node25 -->
<g id="edge43_Node000024_Node000025" class="edge">
<title>Node24&#45;&gt;Node25</title>
<g id="a_edge43_Node000024_Node000025"><a xlink:title=" ">
<path fill="none" stroke="#63b8ff" d="M351.96,-263.16C327.85,-256.53 300.14,-248.92 277.32,-242.64"/>
<polygon fill="#63b8ff" stroke="#63b8ff" points="350.73,-266.45 361.3,-265.73 352.58,-259.7 350.73,-266.45"/>
</a>
</g>
</g>
<!-- Node25&#45;&gt;Node25 -->
<g id="edge44_Node000025_Node000025" class="edge">
<title>Node25&#45;&gt;Node25</title>
<g id="a_edge44_Node000025_Node000025"><a xlink:title=" ">
<path fill="none" stroke="#63b8ff" d="M258.09,-256.83C253.48,-260.6 244.07,-263.12 229.88,-263.12 203.91,-263.12 193.98,-254.68 200.06,-245.61"/>
<polygon fill="#63b8ff" stroke="#63b8ff" points="261.53,-257.5 259.48,-247.11 254.6,-256.52 261.53,-257.5"/>
</a>
</g>
</g>
<!-- Node31 -->
<g id="Node000031" class="node">
<title>Node31</title>
<g id="a_Node000031"><a xlink:href="structjuce_1_1Typeface_1_1HintingParams.html#a9e281346b45faf18906947a6330d4a78" target="_top" xlink:title=" ">
<polygon fill="white" stroke="#666666" points="483.75,-245.12 336.5,-245.12 336.5,-214.62 483.75,-214.62 483.75,-245.12"/>
<text xml:space="preserve" text-anchor="start" x="344.5" y="-231.62" font-family="Helvetica,sans-Serif" font-size="10.00">juce::Typeface::HintingParams</text>
<text xml:space="preserve" text-anchor="middle" x="410.12" y="-220.38" font-family="Helvetica,sans-Serif" font-size="10.00">::HintingParams</text>
</a>
</g>
</g>
<!-- Node30&#45;&gt;Node31 -->
<g id="edge47_Node000030_Node000031" class="edge">
<title>Node30&#45;&gt;Node31</title>
<g id="a_edge47_Node000030_Node000031"><a xlink:title=" ">
<path fill="none" stroke="#63b8ff" d="M508.19,-229.88C500.18,-229.88 492.1,-229.88 484.21,-229.88"/>
<polygon fill="#63b8ff" stroke="#63b8ff" points="507.92,-233.38 517.92,-229.88 507.92,-226.38 507.92,-233.38"/>
</a>
</g>
</g>
<!-- Node33 -->
<g id="Node000033" class="node">
<title>Node33</title>
<g id="a_Node000033"><a xlink:href="structjuce_1_1Grid_1_1PlacementHelpers.html#aa882c6148ab68fdc6e8f94b8c83205d5" target="_top" xlink:title=" ">
<polygon fill="white" stroke="#666666" points="480.75,-196.12 339.5,-196.12 339.5,-165.62 480.75,-165.62 480.75,-196.12"/>
<text xml:space="preserve" text-anchor="start" x="347.5" y="-182.62" font-family="Helvetica,sans-Serif" font-size="10.00">juce::Grid::PlacementHelpers</text>
<text xml:space="preserve" text-anchor="middle" x="410.12" y="-171.38" font-family="Helvetica,sans-Serif" font-size="10.00">::getCellBounds</text>
</a>
</g>
</g>
<!-- Node32&#45;&gt;Node33 -->
<g id="edge49_Node000032_Node000033" class="edge">
<title>Node32&#45;&gt;Node33</title>
<g id="a_edge49_Node000032_Node000033"><a xlink:title=" ">
<path fill="none" stroke="#63b8ff" d="M511.07,-180.88C501.04,-180.88 490.85,-180.88 481.01,-180.88"/>
<polygon fill="#63b8ff" stroke="#63b8ff" points="510.79,-184.38 520.79,-180.88 510.79,-177.38 510.79,-184.38"/>
</a>
</g>
</g>
<!-- Node34 -->
<g id="Node000034" class="node">
<title>Node34</title>
<g id="a_Node000034"><a xlink:href="structjuce_1_1Grid_1_1PlacementHelpers.html#a81e3b81ffe9b8514ccbc92f70c77cf8e" target="_top" xlink:title=" ">
<polygon fill="white" stroke="#666666" points="300.5,-196.12 159.25,-196.12 159.25,-165.62 300.5,-165.62 300.5,-196.12"/>
<text xml:space="preserve" text-anchor="start" x="167.25" y="-182.62" font-family="Helvetica,sans-Serif" font-size="10.00">juce::Grid::PlacementHelpers</text>
<text xml:space="preserve" text-anchor="middle" x="229.88" y="-171.38" font-family="Helvetica,sans-Serif" font-size="10.00">::getAreaBounds</text>
</a>
</g>
</g>
<!-- Node33&#45;&gt;Node34 -->
<g id="edge50_Node000033_Node000034" class="edge">
<title>Node33&#45;&gt;Node34</title>
<g id="a_edge50_Node000033_Node000034"><a xlink:title=" ">
<path fill="none" stroke="#63b8ff" d="M327.87,-180.88C318.86,-180.88 309.75,-180.88 300.9,-180.88"/>
<polygon fill="#63b8ff" stroke="#63b8ff" points="327.67,-184.38 337.67,-180.88 327.67,-177.38 327.67,-184.38"/>
</a>
</g>
</g>
<!-- Node34&#45;&gt;Node8 -->
<g id="edge51_Node000034_Node000008" class="edge">
<title>Node34&#45;&gt;Node8</title>
<g id="a_edge51_Node000034_Node000008"><a xlink:title=" ">
<path fill="none" stroke="#63b8ff" d="M166.34,-201.68C163.9,-203.01 161.53,-204.4 159.25,-205.88 119.71,-231.42 84.34,-276.07 69.73,-295.9"/>
<polygon fill="#63b8ff" stroke="#63b8ff" points="167.86,-204.83 175.3,-197.28 164.78,-198.55 167.86,-204.83"/>
</a>
</g>
</g>
<!-- Node36 -->
<g id="Node000036" class="node">
<title>Node36</title>
<g id="a_Node000036"><a xlink:href="structjuce_1_1Grid_1_1SizeCalculation.html#aa9b2648a6d19e4d435bdb941438a5870" target="_top" xlink:title=" ">
<polygon fill="white" stroke="#666666" points="293.75,-147.12 166,-147.12 166,-116.62 293.75,-116.62 293.75,-147.12"/>
<text xml:space="preserve" text-anchor="start" x="174" y="-133.62" font-family="Helvetica,sans-Serif" font-size="10.00">juce::Grid::SizeCalculation</text>
<text xml:space="preserve" text-anchor="middle" x="229.88" y="-122.38" font-family="Helvetica,sans-Serif" font-size="10.00">::computeSizes</text>
</a>
</g>
</g>
<!-- Node35&#45;&gt;Node36 -->
<g id="edge53_Node000035_Node000036" class="edge">
<title>Node35&#45;&gt;Node36</title>
<g id="a_edge53_Node000035_Node000036"><a xlink:title=" ">
<path fill="none" stroke="#63b8ff" d="M518.25,-131.88C452.18,-131.88 356.53,-131.88 294.03,-131.88"/>
<polygon fill="#63b8ff" stroke="#63b8ff" points="517.89,-135.38 527.89,-131.88 517.89,-128.38 517.89,-135.38"/>
</a>
</g>
</g>
<!-- Node36&#45;&gt;Node8 -->
<g id="edge54_Node000036_Node000008" class="edge">
<title>Node36&#45;&gt;Node8</title>
<g id="a_edge54_Node000036_Node000008"><a xlink:title=" ">
<path fill="none" stroke="#63b8ff" d="M164.56,-153.04C162.73,-154.25 160.95,-155.53 159.25,-156.88 109.23,-196.51 76.93,-269.47 66.39,-295.94"/>
<polygon fill="#63b8ff" stroke="#63b8ff" points="165.94,-156.29 172.87,-148.27 162.45,-150.22 165.94,-156.29"/>
</a>
</g>
</g>
<!-- Node38 -->
<g id="Node000038" class="node">
<title>Node38</title>
<g id="a_Node000038"><a xlink:href="structjuce_1_1JavascriptEngine_1_1RootObject_1_1FunctionCall.html#a1c812398e51e6860d6b9bf100a4e708c" target="_top" xlink:title=" ">
<polygon fill="white" stroke="#666666" points="474,-101.75 346.25,-101.75 346.25,-60 474,-60 474,-101.75"/>
<text xml:space="preserve" text-anchor="start" x="354.25" y="-88.25" font-family="Helvetica,sans-Serif" font-size="10.00">juce::JavascriptEngine</text>
<text xml:space="preserve" text-anchor="start" x="354.25" y="-77" font-family="Helvetica,sans-Serif" font-size="10.00">::RootObject::FunctionCall</text>
<text xml:space="preserve" text-anchor="middle" x="410.12" y="-65.75" font-family="Helvetica,sans-Serif" font-size="10.00">::getResult</text>
</a>
</g>
</g>
<!-- Node37&#45;&gt;Node38 -->
<g id="edge56_Node000037_Node000038" class="edge">
<title>Node37&#45;&gt;Node38</title>
<g id="a_edge56_Node000037_Node000038"><a xlink:title=" ">
<path fill="none" stroke="#63b8ff" d="M517.81,-79.11C503.37,-79.35 488.37,-79.6 474.34,-79.83"/>
<polygon fill="#63b8ff" stroke="#63b8ff" points="517.78,-82.61 527.72,-78.95 517.67,-75.61 517.78,-82.61"/>
</a>
</g>
</g>
<!-- Node39 -->
<g id="Node000039" class="node">
<title>Node39</title>
<g id="a_Node000039"><a xlink:href="structjuce_1_1JavascriptEngine_1_1RootObject_1_1NewOperator.html#a40d7c4c43385b85d544168d40b5046c0" target="_top" xlink:title=" ">
<polygon fill="white" stroke="#666666" points="475.88,-41.75 344.38,-41.75 344.38,0 475.88,0 475.88,-41.75"/>
<text xml:space="preserve" text-anchor="start" x="352.38" y="-28.25" font-family="Helvetica,sans-Serif" font-size="10.00">juce::JavascriptEngine</text>
<text xml:space="preserve" text-anchor="start" x="352.38" y="-17" font-family="Helvetica,sans-Serif" font-size="10.00">::RootObject::NewOperator</text>
<text xml:space="preserve" text-anchor="middle" x="410.12" y="-5.75" font-family="Helvetica,sans-Serif" font-size="10.00">::getResult</text>
</a>
</g>
</g>
<!-- Node37&#45;&gt;Node39 -->
<g id="edge57_Node000037_Node000039" class="edge">
<title>Node37&#45;&gt;Node39</title>
<g id="a_edge57_Node000037_Node000039"><a xlink:title=" ">
<path fill="none" stroke="#63b8ff" d="M518.62,-54.68C504.57,-50.26 489.95,-45.66 476.19,-41.34"/>
<polygon fill="#63b8ff" stroke="#63b8ff" points="517.2,-57.9 527.79,-57.57 519.3,-51.23 517.2,-57.9"/>
</a>
</g>
</g>
</g>
</svg>
