<?xml version="1.0" encoding="UTF-8" standalone="no"?>
<!DOCTYPE svg PUBLIC "-//W3C//DTD SVG 1.1//EN"
 "http://www.w3.org/Graphics/SVG/1.1/DTD/svg11.dtd">
<!-- Generated by graphviz version 14.0.2 (0)
 -->
<!-- Title: lmms::AudioPortAudioSetupUtil Pages: 1 -->
<svg width="215pt" height="605pt"
 viewBox="0.00 0.00 215.00 605.00" xmlns="http://www.w3.org/2000/svg" xmlns:xlink="http://www.w3.org/1999/xlink">
<g id="graph0" class="graph" transform="scale(1 1) rotate(0) translate(4 600.75)">
<title>lmms::AudioPortAudioSetupUtil</title>
<!-- Node1 -->
<g id="Node000001" class="node">
<title>Node1</title>
<g id="a_Node000001"><a xlink:title=" ">
<polygon fill="#999999" stroke="none" points="144.5,-80.25 0,-80.25 0,0 144.5,0 144.5,-80.25"/>
<text xml:space="preserve" text-anchor="start" x="4" y="-66.75" font-family="Helvetica,sans-Serif" font-size="10.00">lmms::AudioPortAudioSetupUtil</text>
<text xml:space="preserve" text-anchor="start" x="70.75" y="-51.5" font-family="Helvetica,sans-Serif" font-size="10.00"> </text>
<text xml:space="preserve" text-anchor="start" x="15.94" y="-36.25" font-family="Helvetica,sans-Serif" font-size="10.00">+</text>
<text xml:space="preserve" text-anchor="start" x="37.88" y="-36.25" font-family="Helvetica,sans-Serif" font-size="10.00">updateBackends()</text>
<text xml:space="preserve" text-anchor="start" x="15.94" y="-21" font-family="Helvetica,sans-Serif" font-size="10.00">+</text>
<text xml:space="preserve" text-anchor="start" x="37.88" y="-21" font-family="Helvetica,sans-Serif" font-size="10.00">updateDevices()</text>
<text xml:space="preserve" text-anchor="start" x="15.94" y="-5.75" font-family="Helvetica,sans-Serif" font-size="10.00">+</text>
<text xml:space="preserve" text-anchor="start" x="37.88" y="-5.75" font-family="Helvetica,sans-Serif" font-size="10.00">updateChannels()</text>
<polygon fill="#666666" stroke="#666666" points="0,-63 0,-63 144.5,-63 144.5,-63 0,-63"/>
<polygon fill="#666666" stroke="#666666" points="0,-47.75 0,-47.75 144.5,-47.75 144.5,-47.75 0,-47.75"/>
<polygon fill="none" stroke="#666666" points="0,0 0,-80.25 144.5,-80.25 144.5,0 0,0"/>
</a>
</g>
</g>
<!-- Node2 -->
<g id="Node000002" class="node">
<title>Node2</title>
<g id="a_Node000002"><a xlink:title=" ">
<polygon fill="white" stroke="none" points="62.25,-267.12 18.25,-267.12 18.25,-217.38 62.25,-217.38 62.25,-267.12"/>
<text xml:space="preserve" text-anchor="start" x="22.25" y="-253.62" font-family="Helvetica,sans-Serif" font-size="10.00">QObject</text>
<text xml:space="preserve" text-anchor="start" x="38.75" y="-238.38" font-family="Helvetica,sans-Serif" font-size="10.00"> </text>
<text xml:space="preserve" text-anchor="start" x="38.75" y="-223.12" font-family="Helvetica,sans-Serif" font-size="10.00"> </text>
<polygon fill="#666666" stroke="#666666" points="18.25,-249.88 18.25,-249.88 62.25,-249.88 62.25,-249.88 18.25,-249.88"/>
<polygon fill="#666666" stroke="#666666" points="18.25,-234.62 18.25,-234.62 62.25,-234.62 62.25,-234.62 18.25,-234.62"/>
<polygon fill="none" stroke="#666666" points="18.25,-217.38 18.25,-267.12 62.25,-267.12 62.25,-217.38 18.25,-217.38"/>
</a>
</g>
</g>
<!-- Node2&#45;&gt;Node1 -->
<g id="edge1_Node000001_Node000002" class="edge">
<title>Node2&#45;&gt;Node1</title>
<g id="a_edge1_Node000001_Node000002"><a xlink:title=" ">
<path fill="none" stroke="#63b8ff" d="M45.84,-206.32C51.48,-171.01 60.19,-116.57 66.04,-79.93"/>
<polygon fill="none" stroke="#63b8ff" points="42.41,-205.59 44.29,-216.01 49.32,-206.69 42.41,-205.59"/>
</a>
</g>
</g>
<!-- Node3 -->
<g id="Node000003" class="node">
<title>Node3</title>
<g id="a_Node000003"><a xlink:href="classlmms_1_1ComboBoxModel.html" target="_top" xlink:title=" ">
<polygon fill="white" stroke="none" points="190.25,-335.75 80.25,-335.75 80.25,-148.75 190.25,-148.75 190.25,-335.75"/>
<text xml:space="preserve" text-anchor="start" x="84.25" y="-322.25" font-family="Helvetica,sans-Serif" font-size="10.00">lmms::ComboBoxModel</text>
<text xml:space="preserve" text-anchor="start" x="88.88" y="-307" font-family="Helvetica,sans-Serif" font-size="10.00">&#45;</text>
<text xml:space="preserve" text-anchor="start" x="100.5" y="-307" font-family="Helvetica,sans-Serif" font-size="10.00">m_items</text>
<text xml:space="preserve" text-anchor="start" x="87.38" y="-291.75" font-family="Helvetica,sans-Serif" font-size="10.00">+</text>
<text xml:space="preserve" text-anchor="start" x="100.5" y="-291.75" font-family="Helvetica,sans-Serif" font-size="10.00">ComboBoxModel()</text>
<text xml:space="preserve" text-anchor="start" x="87.38" y="-276.5" font-family="Helvetica,sans-Serif" font-size="10.00">+</text>
<text xml:space="preserve" text-anchor="start" x="100.5" y="-276.5" font-family="Helvetica,sans-Serif" font-size="10.00">addItem()</text>
<text xml:space="preserve" text-anchor="start" x="87.38" y="-261.25" font-family="Helvetica,sans-Serif" font-size="10.00">+</text>
<text xml:space="preserve" text-anchor="start" x="100.5" y="-261.25" font-family="Helvetica,sans-Serif" font-size="10.00">replaceItem()</text>
<text xml:space="preserve" text-anchor="start" x="87.38" y="-246" font-family="Helvetica,sans-Serif" font-size="10.00">+</text>
<text xml:space="preserve" text-anchor="start" x="100.5" y="-246" font-family="Helvetica,sans-Serif" font-size="10.00">clear()</text>
<text xml:space="preserve" text-anchor="start" x="87.38" y="-230.75" font-family="Helvetica,sans-Serif" font-size="10.00">+</text>
<text xml:space="preserve" text-anchor="start" x="100.5" y="-230.75" font-family="Helvetica,sans-Serif" font-size="10.00">findText()</text>
<text xml:space="preserve" text-anchor="start" x="87.38" y="-215.5" font-family="Helvetica,sans-Serif" font-size="10.00">+</text>
<text xml:space="preserve" text-anchor="start" x="100.5" y="-215.5" font-family="Helvetica,sans-Serif" font-size="10.00">currentText()</text>
<text xml:space="preserve" text-anchor="start" x="87.38" y="-200.25" font-family="Helvetica,sans-Serif" font-size="10.00">+</text>
<text xml:space="preserve" text-anchor="start" x="100.5" y="-200.25" font-family="Helvetica,sans-Serif" font-size="10.00">currentData()</text>
<text xml:space="preserve" text-anchor="start" x="87.38" y="-185" font-family="Helvetica,sans-Serif" font-size="10.00">+</text>
<text xml:space="preserve" text-anchor="start" x="100.5" y="-185" font-family="Helvetica,sans-Serif" font-size="10.00">itemText()</text>
<text xml:space="preserve" text-anchor="start" x="87.38" y="-169.75" font-family="Helvetica,sans-Serif" font-size="10.00">+</text>
<text xml:space="preserve" text-anchor="start" x="100.5" y="-169.75" font-family="Helvetica,sans-Serif" font-size="10.00">itemPixmap()</text>
<text xml:space="preserve" text-anchor="start" x="87.38" y="-154.5" font-family="Helvetica,sans-Serif" font-size="10.00">+</text>
<text xml:space="preserve" text-anchor="start" x="100.5" y="-154.5" font-family="Helvetica,sans-Serif" font-size="10.00">size()</text>
<polygon fill="#666666" stroke="#666666" points="80.25,-318.5 80.25,-318.5 190.25,-318.5 190.25,-318.5 80.25,-318.5"/>
<polygon fill="#666666" stroke="#666666" points="80.25,-303.25 80.25,-303.25 98.5,-303.25 98.5,-303.25 80.25,-303.25"/>
<polygon fill="#666666" stroke="#666666" points="98.5,-303.25 98.5,-303.25 190.25,-303.25 190.25,-303.25 98.5,-303.25"/>
<polygon fill="none" stroke="#666666" points="80.25,-148.75 80.25,-335.75 190.25,-335.75 190.25,-148.75 80.25,-148.75"/>
</a>
</g>
</g>
<!-- Node3&#45;&gt;Node1 -->
<g id="edge2_Node000001_Node000003" class="edge">
<title>Node3&#45;&gt;Node1</title>
<g id="a_edge2_Node000001_Node000003"><a xlink:title=" ">
<path fill="none" stroke="#63b8ff" d="M106.15,-148.8C100.05,-129.45 93.84,-109.71 88.43,-92.51"/>
<polygon fill="none" stroke="#63b8ff" points="88.42,-92.5 82.8,-87.97 84.82,-81.05 90.44,-85.57 88.42,-92.5"/>
</a>
</g>
<text xml:space="preserve" text-anchor="start" x="102.98" y="-118.25" font-family="Helvetica,sans-Serif" font-size="10.00" fill="grey">+m_backendModel</text>
<text xml:space="preserve" text-anchor="start" x="102.98" y="-103" font-family="Helvetica,sans-Serif" font-size="10.00" fill="grey">+m_deviceModel</text>
</g>
<!-- Node4 -->
<g id="Node000004" class="node">
<title>Node4</title>
<g id="a_Node000004"><a xlink:href="classlmms_1_1IntModel.html" target="_top" xlink:title=" ">
<polygon fill="white" stroke="none" points="174.62,-437.75 95.88,-437.75 95.88,-372.75 174.62,-372.75 174.62,-437.75"/>
<text xml:space="preserve" text-anchor="start" x="102.25" y="-424.25" font-family="Helvetica,sans-Serif" font-size="10.00">lmms::IntModel</text>
<text xml:space="preserve" text-anchor="start" x="133.75" y="-409" font-family="Helvetica,sans-Serif" font-size="10.00"> </text>
<text xml:space="preserve" text-anchor="start" x="99.88" y="-393.75" font-family="Helvetica,sans-Serif" font-size="10.00">+</text>
<text xml:space="preserve" text-anchor="start" x="109.88" y="-393.75" font-family="Helvetica,sans-Serif" font-size="10.00">IntModel()</text>
<text xml:space="preserve" text-anchor="start" x="99.88" y="-378.5" font-family="Helvetica,sans-Serif" font-size="10.00">+</text>
<text xml:space="preserve" text-anchor="start" x="109.88" y="-378.5" font-family="Helvetica,sans-Serif" font-size="10.00">displayValue()</text>
<polygon fill="#666666" stroke="#666666" points="95.88,-420.5 95.88,-420.5 174.62,-420.5 174.62,-420.5 95.88,-420.5"/>
<polygon fill="#666666" stroke="#666666" points="95.88,-405.25 95.88,-405.25 174.62,-405.25 174.62,-405.25 95.88,-405.25"/>
<polygon fill="none" stroke="#666666" points="95.88,-372.75 95.88,-437.75 174.62,-437.75 174.62,-372.75 95.88,-372.75"/>
</a>
</g>
</g>
<!-- Node4&#45;&gt;Node3 -->
<g id="edge3_Node000003_Node000004" class="edge">
<title>Node4&#45;&gt;Node3</title>
<g id="a_edge3_Node000003_Node000004"><a xlink:title=" ">
<path fill="none" stroke="#63b8ff" d="M135.25,-361.43C135.25,-353.3 135.25,-344.5 135.25,-335.5"/>
<polygon fill="none" stroke="#63b8ff" points="131.75,-361.31 135.25,-371.31 138.75,-361.31 131.75,-361.31"/>
</a>
</g>
</g>
<!-- Node5 -->
<g id="Node000005" class="node">
<title>Node5</title>
<g id="a_Node000005"><a xlink:href="classlmms_1_1TypedAutomatableModel.html" target="_top" xlink:title=" ">
<polygon fill="#fff0f0" stroke="none" points="207.12,-596.75 63.38,-596.75 63.38,-474.75 207.12,-474.75 207.12,-596.75"/>
<text xml:space="preserve" text-anchor="start" x="67.38" y="-583.25" font-family="Helvetica,sans-Serif" font-size="10.00">lmms::TypedAutomatableModel</text>
<text xml:space="preserve" text-anchor="start" x="121.75" y="-572" font-family="Helvetica,sans-Serif" font-size="10.00">&lt; int &gt;</text>
<text xml:space="preserve" text-anchor="start" x="133.75" y="-556.75" font-family="Helvetica,sans-Serif" font-size="10.00"> </text>
<text xml:space="preserve" text-anchor="start" x="77.06" y="-541.5" font-family="Helvetica,sans-Serif" font-size="10.00">+</text>
<text xml:space="preserve" text-anchor="start" x="96.75" y="-541.5" font-family="Helvetica,sans-Serif" font-size="10.00">AutomatableModel()</text>
<text xml:space="preserve" text-anchor="start" x="77.06" y="-526.25" font-family="Helvetica,sans-Serif" font-size="10.00">+</text>
<text xml:space="preserve" text-anchor="start" x="96.75" y="-526.25" font-family="Helvetica,sans-Serif" font-size="10.00">value()</text>
<text xml:space="preserve" text-anchor="start" x="77.06" y="-511" font-family="Helvetica,sans-Serif" font-size="10.00">+</text>
<text xml:space="preserve" text-anchor="start" x="96.75" y="-511" font-family="Helvetica,sans-Serif" font-size="10.00">initValue()</text>
<text xml:space="preserve" text-anchor="start" x="77.06" y="-495.75" font-family="Helvetica,sans-Serif" font-size="10.00">+</text>
<text xml:space="preserve" text-anchor="start" x="96.75" y="-495.75" font-family="Helvetica,sans-Serif" font-size="10.00">minValue()</text>
<text xml:space="preserve" text-anchor="start" x="77.06" y="-480.5" font-family="Helvetica,sans-Serif" font-size="10.00">+</text>
<text xml:space="preserve" text-anchor="start" x="96.75" y="-480.5" font-family="Helvetica,sans-Serif" font-size="10.00">maxValue()</text>
<polygon fill="red" stroke="red" points="63.38,-568.25 63.38,-568.25 207.12,-568.25 207.12,-568.25 63.38,-568.25"/>
<polygon fill="red" stroke="red" points="63.38,-553 63.38,-553 207.12,-553 207.12,-553 63.38,-553"/>
<polygon fill="none" stroke="red" points="63.38,-474.75 63.38,-596.75 207.12,-596.75 207.12,-474.75 63.38,-474.75"/>
</a>
</g>
</g>
<!-- Node5&#45;&gt;Node4 -->
<g id="edge4_Node000004_Node000005" class="edge">
<title>Node5&#45;&gt;Node4</title>
<g id="a_edge4_Node000004_Node000005"><a xlink:title=" ">
<path fill="none" stroke="#63b8ff" d="M135.25,-463.75C135.25,-454.55 135.25,-445.54 135.25,-437.47"/>
<polygon fill="none" stroke="#63b8ff" points="131.75,-463.5 135.25,-473.5 138.75,-463.5 131.75,-463.5"/>
</a>
</g>
</g>
</g>
</svg>
