<?xml version="1.0" encoding="UTF-8" standalone="no"?>
<!DOCTYPE svg PUBLIC "-//W3C//DTD SVG 1.1//EN"
 "http://www.w3.org/Graphics/SVG/1.1/DTD/svg11.dtd">
<!-- Generated by graphviz version 14.0.2 (0)
 -->
<!-- Title: lmms::EnvelopeAndLfoParameters::instances Pages: 1 -->
<!--zoomable 215 -->

<svg id="main" version="1.1" xmlns="http://www.w3.org/2000/svg" xmlns:xlink="http://www.w3.org/1999/xlink" xml:space="preserve" onload="init(evt)">

<style type="text/css"><![CDATA[
.node, .edge {opacity: 0.7;}
.node.selected, .edge.selected {opacity: 1;}
.edge:hover path { stroke: red; }
.edge:hover polygon { stroke: red; fill: red; }
]]></style>

<defs>
  <circle id="rim" cx="0" cy="0" r="7"/>
  <circle id="rim2" cx="0" cy="0" r="3.5"/>
  <g id="zoomPlus">
    <use xlink:href="#rim" fill="#404040"><set attributeName="fill" to="#808080" begin="zoomplus.mouseover" end="zoomplus.mouseout"/></use>
    <path d="M-4,0h8M0,-4v8" fill="none" stroke="white" stroke-width="1.5" pointer-events="none"/>
  </g>
  <g id="zoomMin">
    <use xlink:href="#rim" fill="#404040"><set attributeName="fill" to="#808080" begin="zoomminus.mouseover" end="zoomminus.mouseout"/></use>
    <path d="M-4,0h8" fill="none" stroke="white" stroke-width="1.5" pointer-events="none"/>
  </g>
  <g id="arrowUp" transform="translate(30 24)">
    <use xlink:href="#rim"/>
    <path pointer-events="none" fill="none" stroke="white" stroke-width="1.5" d="M0,-3.0v7 M-2.5,-0.5L0,-3.0L2.5,-0.5"/>
  </g>
  <g id="arrowRight" transform="rotate(90) translate(36 -43)">
    <use xlink:href="#rim"/>
    <path pointer-events="none" fill="none" stroke="white" stroke-width="1.5" d="M0,-3.0v7 M-2.5,-0.5L0,-3.0L2.5,-0.5"/>
  </g>
  <g id="arrowDown" transform="rotate(180) translate(-30 -48)">
    <use xlink:href="#rim"/>
    <path pointer-events="none" fill="none" stroke="white" stroke-width="1.5" d="M0,-3.0v7 M-2.5,-0.5L0,-3.0L2.5,-0.5"/>
  </g>
  <g id="arrowLeft" transform="rotate(270) translate(-36 17)">
    <use xlink:href="#rim"/>
    <path pointer-events="none" fill="none" stroke="white" stroke-width="1.5" d="M0,-3.0v7 M-2.5,-0.5L0,-3.0L2.5,-0.5"/>
  </g>
  <g id="resetDef">
    <use xlink:href="#rim2" fill="#404040"><set attributeName="fill" to="#808080" begin="reset.mouseover" end="reset.mouseout"/></use>
  </g>
</defs>
<script type="application/ecmascript">
var viewWidth = 780;
var viewHeight = 215;
var sectionId = 'dynsection-12';
</script>
<script type="application/ecmascript" xlink:href="svg.min.js"/>
<svg id="graph" class="graph">
<g id="viewport">
<title>lmms::EnvelopeAndLfoParameters::instances</title>
<!-- Node1 -->
<g id="Node000001" class="node">
<title>Node1</title>
<g id="a_Node000001"><a xlink:title=" ">
<polygon fill="#999999" stroke="#666666" points="772,-94.5 606,-94.5 606,-64 772,-64 772,-94.5"/>
<text xml:space="preserve" text-anchor="start" x="614" y="-81" font-family="Helvetica,sans-Serif" font-size="10.00">lmms::EnvelopeAndLfoParameters</text>
<text xml:space="preserve" text-anchor="middle" x="689" y="-69.75" font-family="Helvetica,sans-Serif" font-size="10.00">::instances</text>
</a>
</g>
</g>
<!-- Node2 -->
<g id="Node000002" class="node">
<title>Node2</title>
<g id="a_Node000002"><a xlink:href="classlmms_1_1EnvelopeAndLfoParameters.html#ac90515aa6fc6bb6628e11f1d52bbb191" target="_top" xlink:title=" ">
<polygon fill="white" stroke="#666666" points="570,-181.5 404,-181.5 404,-151 570,-151 570,-181.5"/>
<text xml:space="preserve" text-anchor="start" x="412" y="-168" font-family="Helvetica,sans-Serif" font-size="10.00">lmms::EnvelopeAndLfoParameters</text>
<text xml:space="preserve" text-anchor="middle" x="487" y="-156.75" font-family="Helvetica,sans-Serif" font-size="10.00">::EnvelopeAndLfoParameters</text>
</a>
</g>
</g>
<!-- Node1&#45;&gt;Node2 -->
<g id="edge1_Node000001_Node000002" class="edge">
<title>Node1&#45;&gt;Node2</title>
<g id="a_edge1_Node000001_Node000002"><a xlink:title=" ">
<path fill="none" stroke="#63b8ff" d="M642.05,-99.24C606.22,-114.82 557.17,-136.16 524.12,-150.54"/>
<polygon fill="#63b8ff" stroke="#63b8ff" points="643.08,-102.61 650.86,-95.41 640.29,-96.19 643.08,-102.61"/>
</a>
</g>
</g>
<!-- Node5 -->
<g id="Node000005" class="node">
<title>Node5</title>
<g id="a_Node000005"><a xlink:href="classlmms_1_1EnvelopeAndLfoParameters.html#a1bd8622b04f159ae872a3819280568cb" target="_top" xlink:title=" ">
<polygon fill="white" stroke="#666666" points="166,-126.5 0,-126.5 0,-96 166,-96 166,-126.5"/>
<text xml:space="preserve" text-anchor="start" x="8" y="-113" font-family="Helvetica,sans-Serif" font-size="10.00">lmms::EnvelopeAndLfoParameters</text>
<text xml:space="preserve" text-anchor="middle" x="83" y="-101.75" font-family="Helvetica,sans-Serif" font-size="10.00">::~EnvelopeAndLfoParameters</text>
</a>
</g>
</g>
<!-- Node1&#45;&gt;Node5 -->
<g id="edge11_Node000001_Node000005" class="edge">
<title>Node1&#45;&gt;Node5</title>
<g id="a_edge11_Node000001_Node000005"><a xlink:title=" ">
<path fill="none" stroke="#63b8ff" d="M594.16,-84.22C476.85,-90.44 277.93,-100.98 166.3,-106.89"/>
<polygon fill="#63b8ff" stroke="#63b8ff" points="594.29,-87.72 604.09,-83.7 593.92,-80.73 594.29,-87.72"/>
</a>
</g>
</g>
<!-- Node6 -->
<g id="Node000006" class="node">
<title>Node6</title>
<g id="a_Node000006"><a xlink:href="classlmms_1_1Song.html#abb55419e8eabaed5d3693e94edfb9f95" target="_top" xlink:title=" ">
<polygon fill="white" stroke="#666666" points="562.88,-67.88 411.12,-67.88 411.12,-48.62 562.88,-48.62 562.88,-67.88"/>
<text xml:space="preserve" text-anchor="middle" x="487" y="-54.38" font-family="Helvetica,sans-Serif" font-size="10.00">lmms::Song::processNextBuffer</text>
</a>
</g>
</g>
<!-- Node1&#45;&gt;Node6 -->
<g id="edge6_Node000001_Node000006" class="edge">
<title>Node1&#45;&gt;Node6</title>
<g id="a_edge6_Node000001_Node000006"><a xlink:title=" ">
<path fill="none" stroke="#63b8ff" d="M594.46,-69.43C583.96,-68.33 573.37,-67.21 563.15,-66.14"/>
<polygon fill="#63b8ff" stroke="#63b8ff" points="593.97,-72.9 604.28,-70.46 594.7,-65.93 593.97,-72.9"/>
</a>
</g>
</g>
<!-- Node16 -->
<g id="Node000016" class="node">
<title>Node16</title>
<g id="a_Node000016"><a xlink:href="classlmms_1_1AudioEngine.html#a985d0f3cee6086e9ff6c89acd46aa453" target="_top" xlink:title=" ">
<polygon fill="white" stroke="#666666" points="538.5,-30.5 435.5,-30.5 435.5,0 538.5,0 538.5,-30.5"/>
<text xml:space="preserve" text-anchor="start" x="443.5" y="-17" font-family="Helvetica,sans-Serif" font-size="10.00">lmms::AudioEngine::</text>
<text xml:space="preserve" text-anchor="middle" x="487" y="-5.75" font-family="Helvetica,sans-Serif" font-size="10.00">renderStageMix</text>
</a>
</g>
</g>
<!-- Node1&#45;&gt;Node16 -->
<g id="edge9_Node000001_Node000016" class="edge">
<title>Node1&#45;&gt;Node16</title>
<g id="a_edge9_Node000001_Node000016"><a xlink:title=" ">
<path fill="none" stroke="#63b8ff" d="M632.42,-59.87C612.76,-53.16 590.45,-45.71 570,-39.25 559.96,-36.08 549.18,-32.82 538.84,-29.77"/>
<polygon fill="#63b8ff" stroke="#63b8ff" points="631.01,-63.09 641.61,-63.02 633.28,-56.47 631.01,-63.09"/>
</a>
</g>
</g>
<!-- Node3 -->
<g id="Node000003" class="node">
<title>Node3</title>
<g id="a_Node000003"><a xlink:href="classlmms_1_1EnvelopeAndLfoParameters_1_1LfoInstances.html#a2a6febb33877ad139ff4bc0c72ffd8c6" target="_top" xlink:title=" ">
<polygon fill="white" stroke="#666666" points="368,-206.5 202,-206.5 202,-176 368,-176 368,-206.5"/>
<text xml:space="preserve" text-anchor="start" x="210" y="-193" font-family="Helvetica,sans-Serif" font-size="10.00">lmms::EnvelopeAndLfoParameters</text>
<text xml:space="preserve" text-anchor="middle" x="285" y="-181.75" font-family="Helvetica,sans-Serif" font-size="10.00">::LfoInstances::add</text>
</a>
</g>
</g>
<!-- Node2&#45;&gt;Node3 -->
<g id="edge2_Node000002_Node000003" class="edge">
<title>Node2&#45;&gt;Node3</title>
<g id="a_edge2_Node000002_Node000003"><a xlink:title=" ">
<path fill="none" stroke="#63b8ff" d="M392.37,-171.22C381.36,-172.55 370.24,-174.01 359.56,-175.52"/>
<polygon fill="#63b8ff" stroke="#63b8ff" points="392.76,-174.69 402.28,-170.05 391.94,-167.74 392.76,-174.69"/>
</a>
</g>
</g>
<!-- Node4 -->
<g id="Node000004" class="node">
<title>Node4</title>
<g id="a_Node000004"><a xlink:href="classlmms_1_1EnvelopeAndLfoParameters_1_1LfoInstances.html#ae07e5800b4cd92839354be5721ed589b" target="_top" xlink:title=" ">
<polygon fill="white" stroke="#666666" points="368,-157.5 202,-157.5 202,-127 368,-127 368,-157.5"/>
<text xml:space="preserve" text-anchor="start" x="210" y="-144" font-family="Helvetica,sans-Serif" font-size="10.00">lmms::EnvelopeAndLfoParameters</text>
<text xml:space="preserve" text-anchor="middle" x="285" y="-132.75" font-family="Helvetica,sans-Serif" font-size="10.00">::LfoInstances::remove</text>
</a>
</g>
</g>
<!-- Node2&#45;&gt;Node4 -->
<g id="edge4_Node000002_Node000004" class="edge">
<title>Node2&#45;&gt;Node4</title>
<g id="a_edge4_Node000002_Node000004"><a xlink:title=" ">
<path fill="none" stroke="#63b8ff" d="M392.42,-155.02C384.34,-154.05 376.2,-153.07 368.22,-152.12"/>
<polygon fill="#63b8ff" stroke="#63b8ff" points="391.94,-158.49 402.28,-156.2 392.77,-151.54 391.94,-158.49"/>
</a>
</g>
</g>
<!-- Node3&#45;&gt;Node2 -->
<g id="edge3_Node000003_Node000002" class="edge">
<title>Node3&#45;&gt;Node2</title>
<g id="a_edge3_Node000003_Node000002"><a xlink:title=" ">
<path fill="none" stroke="#63b8ff" d="M379.63,-186.28C390.62,-184.95 401.72,-183.5 412.38,-181.99"/>
<polygon fill="#63b8ff" stroke="#63b8ff" points="379.26,-182.8 369.74,-187.45 380.08,-189.76 379.26,-182.8"/>
</a>
</g>
</g>
<!-- Node4&#45;&gt;Node5 -->
<g id="edge5_Node000004_Node000005" class="edge">
<title>Node4&#45;&gt;Node5</title>
<g id="a_edge5_Node000004_Node000005"><a xlink:title=" ">
<path fill="none" stroke="#63b8ff" d="M190.42,-127.75C182.34,-126.49 174.2,-125.23 166.22,-123.99"/>
<polygon fill="#63b8ff" stroke="#63b8ff" points="189.87,-131.2 200.29,-129.28 190.94,-124.28 189.87,-131.2"/>
</a>
</g>
</g>
<!-- Node7 -->
<g id="Node000007" class="node">
<title>Node7</title>
<g id="a_Node000007"><a xlink:href="classlmms_1_1AudioEngine.html#a611b3bfeb904c4c93074dd135908b0da" target="_top" xlink:title=" ">
<polygon fill="white" stroke="#666666" points="342.5,-71.5 227.5,-71.5 227.5,-41 342.5,-41 342.5,-71.5"/>
<text xml:space="preserve" text-anchor="start" x="235.5" y="-58" font-family="Helvetica,sans-Serif" font-size="10.00">lmms::AudioEngine::</text>
<text xml:space="preserve" text-anchor="middle" x="285" y="-46.75" font-family="Helvetica,sans-Serif" font-size="10.00">renderStageNoteSetup</text>
</a>
</g>
</g>
<!-- Node6&#45;&gt;Node7 -->
<g id="edge7_Node000006_Node000007" class="edge">
<title>Node6&#45;&gt;Node7</title>
<g id="a_edge7_Node000006_Node000007"><a xlink:title=" ">
<path fill="none" stroke="#63b8ff" d="M399.22,-57.38C380.14,-57.19 360.4,-56.99 342.86,-56.82"/>
<polygon fill="#63b8ff" stroke="#63b8ff" points="399.13,-60.88 409.16,-57.48 399.2,-53.88 399.13,-60.88"/>
</a>
</g>
</g>
<!-- Node8 -->
<g id="Node000008" class="node">
<title>Node8</title>
<g id="a_Node000008"><a xlink:href="classlmms_1_1AudioEngine.html#a8500391cfa7815e0dcc1e2e0839242d9" target="_top" xlink:title=" ">
<polygon fill="#fff0f0" stroke="red" points="134.5,-59.5 31.5,-59.5 31.5,-29 134.5,-29 134.5,-59.5"/>
<text xml:space="preserve" text-anchor="start" x="39.5" y="-46" font-family="Helvetica,sans-Serif" font-size="10.00">lmms::AudioEngine::</text>
<text xml:space="preserve" text-anchor="middle" x="83" y="-34.75" font-family="Helvetica,sans-Serif" font-size="10.00">renderNextBuffer</text>
</a>
</g>
</g>
<!-- Node7&#45;&gt;Node8 -->
<g id="edge8_Node000007_Node000008" class="edge">
<title>Node7&#45;&gt;Node8</title>
<g id="a_edge8_Node000007_Node000008"><a xlink:title=" ">
<path fill="none" stroke="#63b8ff" d="M216.05,-52.17C189.44,-50.58 159.45,-48.78 134.78,-47.3"/>
<polygon fill="#63b8ff" stroke="#63b8ff" points="215.52,-55.65 225.71,-52.75 215.94,-48.66 215.52,-55.65"/>
</a>
</g>
</g>
<!-- Node16&#45;&gt;Node8 -->
<g id="edge10_Node000016_Node000008" class="edge">
<title>Node16&#45;&gt;Node8</title>
<g id="a_edge10_Node000016_Node000008"><a xlink:title=" ">
<path fill="none" stroke="#63b8ff" d="M423.71,-18.23C366.14,-21.17 278.23,-26.1 202,-32.25 179.94,-34.03 155.59,-36.43 134.78,-38.62"/>
<polygon fill="#63b8ff" stroke="#63b8ff" points="423.84,-21.73 433.65,-17.73 423.49,-14.74 423.84,-21.73"/>
</a>
</g>
</g>
</g>
</svg>

<g id="navigator" transform="translate(0 0)" fill="#404254">
  <rect fill="#f2f5e9" fill-opacity="0.5" stroke="#606060" stroke-width=".5" x="0" y="0" width="60" height="60"/>
  <use id="zoomplus" xlink:href="#zoomPlus" x="17" y="9" onmousedown="handleZoom(evt,'in')"/>
  <use id="zoomminus" xlink:href="#zoomMin" x="42" y="9" onmousedown="handleZoom(evt,'out')"/>
  <use id="reset" xlink:href="#resetDef" x="30" y="36" onmousedown="handleReset()"/>
   <use id="arrowup" xlink:href="#arrowUp" x="0" y="0" onmousedown="handlePan(0,-1)"/>
  <use id="arrowright" xlink:href="#arrowRight" x="0" y="0" onmousedown="handlePan(1,0)"/>
  <use id="arrowdown" xlink:href="#arrowDown" x="0" y="0" onmousedown="handlePan(0,1)"/>
  <use id="arrowleft" xlink:href="#arrowLeft" x="0" y="0" onmousedown="handlePan(-1,0)"/>
</g>
<svg viewBox="0 0 15 15" width="100%" height="30px" preserveAspectRatio="xMaxYMin meet">
 <g id="arrow_out" transform="scale(0.3 0.3)">
  <a xlink:href="classlmms_1_1EnvelopeAndLfoParameters_a9c0db93512f1d933669cd663187967c8_icgraph_org.svg" target="_base">
   <rect id="button" ry="5" rx="5" y="6" x="6" height="38" width="38"
        fill="#f2f5e9" fill-opacity="0.5" stroke="#606060" stroke-width="1.0"/>
   <path id="arrow"
     d="M 11.500037,31.436501 C 11.940474,20.09759 22.043105,11.32322 32.158766,21.979434 L 37.068811,17.246167 C 37.068811,17.246167 37.088388,32 37.088388,32 L 22.160133,31.978069 C 22.160133,31.978069 26.997745,27.140456 26.997745,27.140456 C 18.528582,18.264221 13.291696,25.230495 11.500037,31.436501 z"
     style="fill:#404040;"/>
  </a>
 </g>
</svg>

<style type='text/css'>
<![CDATA[
[data-mouse-over-selected='false'] { opacity: 0.7; }
[data-mouse-over-selected='true']  { opacity: 1.0; }
]]>
</style>
<script type="application/ecmascript"><![CDATA[
document.addEventListener('DOMContentLoaded', (event) => {
  highlightEdges();
  highlightAdjacentNodes();
});
]]></script>
</svg>
