<?xml version="1.0" encoding="UTF-8" standalone="no"?>
<!DOCTYPE svg PUBLIC "-//W3C//DTD SVG 1.1//EN"
 "http://www.w3.org/Graphics/SVG/1.1/DTD/svg11.dtd">
<!-- Generated by graphviz version 14.0.2 (0)
 -->
<!-- Title: lmms::MixerRoute::receiver Pages: 1 -->
<!--zoomable 97 -->

<svg id="main" version="1.1" xmlns="http://www.w3.org/2000/svg" xmlns:xlink="http://www.w3.org/1999/xlink" xml:space="preserve" onload="init(evt)">

<style type="text/css"><![CDATA[
.node, .edge {opacity: 0.7;}
.node.selected, .edge.selected {opacity: 1;}
.edge:hover path { stroke: red; }
.edge:hover polygon { stroke: red; fill: red; }
]]></style>

<defs>
  <circle id="rim" cx="0" cy="0" r="7"/>
  <circle id="rim2" cx="0" cy="0" r="3.5"/>
  <g id="zoomPlus">
    <use xlink:href="#rim" fill="#404040"><set attributeName="fill" to="#808080" begin="zoomplus.mouseover" end="zoomplus.mouseout"/></use>
    <path d="M-4,0h8M0,-4v8" fill="none" stroke="white" stroke-width="1.5" pointer-events="none"/>
  </g>
  <g id="zoomMin">
    <use xlink:href="#rim" fill="#404040"><set attributeName="fill" to="#808080" begin="zoomminus.mouseover" end="zoomminus.mouseout"/></use>
    <path d="M-4,0h8" fill="none" stroke="white" stroke-width="1.5" pointer-events="none"/>
  </g>
  <g id="arrowUp" transform="translate(30 24)">
    <use xlink:href="#rim"/>
    <path pointer-events="none" fill="none" stroke="white" stroke-width="1.5" d="M0,-3.0v7 M-2.5,-0.5L0,-3.0L2.5,-0.5"/>
  </g>
  <g id="arrowRight" transform="rotate(90) translate(36 -43)">
    <use xlink:href="#rim"/>
    <path pointer-events="none" fill="none" stroke="white" stroke-width="1.5" d="M0,-3.0v7 M-2.5,-0.5L0,-3.0L2.5,-0.5"/>
  </g>
  <g id="arrowDown" transform="rotate(180) translate(-30 -48)">
    <use xlink:href="#rim"/>
    <path pointer-events="none" fill="none" stroke="white" stroke-width="1.5" d="M0,-3.0v7 M-2.5,-0.5L0,-3.0L2.5,-0.5"/>
  </g>
  <g id="arrowLeft" transform="rotate(270) translate(-36 17)">
    <use xlink:href="#rim"/>
    <path pointer-events="none" fill="none" stroke="white" stroke-width="1.5" d="M0,-3.0v7 M-2.5,-0.5L0,-3.0L2.5,-0.5"/>
  </g>
  <g id="resetDef">
    <use xlink:href="#rim2" fill="#404040"><set attributeName="fill" to="#808080" begin="reset.mouseover" end="reset.mouseout"/></use>
  </g>
</defs>
<script type="application/ecmascript">
var viewWidth = 891;
var viewHeight = 97;
var sectionId = 'dynsection-4';
</script>
<script type="application/ecmascript" xlink:href="svg.min.js"/>
<svg id="graph" class="graph">
<g id="viewport">
<title>lmms::MixerRoute::receiver</title>
<!-- Node1 -->
<g id="Node000001" class="node">
<title>Node1</title>
<g id="a_Node000001"><a xlink:title=" ">
<polygon fill="#999999" stroke="#666666" points="883.25,-40.25 751,-40.25 751,-21 883.25,-21 883.25,-40.25"/>
<text xml:space="preserve" text-anchor="middle" x="817.12" y="-26.75" font-family="Helvetica,sans-Serif" font-size="10.00">lmms::MixerRoute::receiver</text>
</a>
</g>
</g>
<!-- Node2 -->
<g id="Node000002" class="node">
<title>Node2</title>
<g id="a_Node000002"><a xlink:href="classlmms_1_1Mixer.html#af514c09d3774cdb7af43db6b975963f5" target="_top" xlink:title=" ">
<polygon fill="white" stroke="#666666" points="701.12,-67.88 572.62,-67.88 572.62,-37.38 701.12,-37.38 701.12,-67.88"/>
<text xml:space="preserve" text-anchor="start" x="580.62" y="-54.38" font-family="Helvetica,sans-Serif" font-size="10.00">lmms::Mixer::channelSend</text>
<text xml:space="preserve" text-anchor="middle" x="636.88" y="-43.12" font-family="Helvetica,sans-Serif" font-size="10.00">Model</text>
</a>
</g>
</g>
<!-- Node1&#45;&gt;Node2 -->
<g id="edge1_Node000001_Node000002" class="edge">
<title>Node1&#45;&gt;Node2</title>
<g id="a_edge1_Node000001_Node000002"><a xlink:title=" ">
<path fill="none" stroke="#63b8ff" d="M739.12,-40.13C726.59,-41.68 713.74,-43.26 701.57,-44.76"/>
<polygon fill="#63b8ff" stroke="#63b8ff" points="739.51,-43.61 749.01,-38.91 738.66,-36.66 739.51,-43.61"/>
</a>
</g>
</g>
<!-- Node6 -->
<g id="Node000006" class="node">
<title>Node6</title>
<g id="a_Node000006"><a xlink:href="classlmms_1_1Mixer.html#aac570010ffce8ef20b81c1af457a75e5" target="_top" xlink:title=" ">
<polygon fill="white" stroke="#666666" points="715,-19.25 558.75,-19.25 558.75,0 715,0 715,-19.25"/>
<text xml:space="preserve" text-anchor="middle" x="636.88" y="-5.75" font-family="Helvetica,sans-Serif" font-size="10.00">lmms::Mixer::deleteChannelSend</text>
</a>
</g>
</g>
<!-- Node1&#45;&gt;Node6 -->
<g id="edge6_Node000001_Node000006" class="edge">
<title>Node1&#45;&gt;Node6</title>
<g id="a_edge6_Node000001_Node000006"><a xlink:title=" ">
<path fill="none" stroke="#63b8ff" d="M739.12,-21.55C731.27,-20.63 723.29,-19.69 715.43,-18.76"/>
<polygon fill="#63b8ff" stroke="#63b8ff" points="738.67,-25.02 749.01,-22.72 739.49,-18.07 738.67,-25.02"/>
</a>
</g>
</g>
<!-- Node3 -->
<g id="Node000003" class="node">
<title>Node3</title>
<g id="a_Node000003"><a xlink:href="classlmms_1_1gui_1_1SendButtonIndicator.html#ad1bd5ffd2e0682ca205faed379364570" target="_top" xlink:title=" ">
<polygon fill="white" stroke="#666666" points="522.75,-88.88 372.5,-88.88 372.5,-58.38 522.75,-58.38 522.75,-88.88"/>
<text xml:space="preserve" text-anchor="start" x="380.5" y="-75.38" font-family="Helvetica,sans-Serif" font-size="10.00">lmms::gui::SendButtonIndicator</text>
<text xml:space="preserve" text-anchor="middle" x="447.62" y="-64.12" font-family="Helvetica,sans-Serif" font-size="10.00">::getSendModel</text>
</a>
</g>
</g>
<!-- Node2&#45;&gt;Node3 -->
<g id="edge2_Node000002_Node000003" class="edge">
<title>Node2&#45;&gt;Node3</title>
<g id="a_edge2_Node000002_Node000003"><a xlink:title=" ">
<path fill="none" stroke="#63b8ff" d="M560.93,-61.03C548.46,-62.43 535.54,-63.88 523.09,-65.27"/>
<polygon fill="#63b8ff" stroke="#63b8ff" points="561.17,-64.53 570.72,-59.93 560.39,-57.57 561.17,-64.53"/>
</a>
</g>
</g>
<!-- Node5 -->
<g id="Node000005" class="node">
<title>Node5</title>
<g id="a_Node000005"><a xlink:href="classlmms_1_1gui_1_1SendButtonIndicator.html#a5f5a0e38e67ba001ceb1ef75a327493b" target="_top" xlink:title=" ">
<polygon fill="white" stroke="#666666" points="150.25,-66.88 0,-66.88 0,-36.38 150.25,-36.38 150.25,-66.88"/>
<text xml:space="preserve" text-anchor="start" x="8" y="-53.38" font-family="Helvetica,sans-Serif" font-size="10.00">lmms::gui::SendButtonIndicator</text>
<text xml:space="preserve" text-anchor="middle" x="75.12" y="-42.12" font-family="Helvetica,sans-Serif" font-size="10.00">::mousePressEvent</text>
</a>
</g>
</g>
<!-- Node2&#45;&gt;Node5 -->
<g id="edge5_Node000002_Node000005" class="edge">
<title>Node2&#45;&gt;Node5</title>
<g id="a_edge5_Node000002_Node000005"><a xlink:title=" ">
<path fill="none" stroke="#63b8ff" d="M560.67,-50.35C548.01,-50.05 535.01,-49.79 522.75,-49.62 373.21,-47.64 335.8,-48.27 186.25,-49.62 174.68,-49.73 162.43,-49.9 150.47,-50.09"/>
<polygon fill="#63b8ff" stroke="#63b8ff" points="560.57,-53.85 570.65,-50.6 560.74,-46.85 560.57,-53.85"/>
</a>
</g>
</g>
<!-- Node4 -->
<g id="Node000004" class="node">
<title>Node4</title>
<g id="a_Node000004"><a xlink:href="classlmms_1_1gui_1_1SendButtonIndicator.html#a64572090f7b076045211cd8489d3dbe3" target="_top" xlink:title=" ">
<polygon fill="white" stroke="#666666" points="336.5,-88.88 186.25,-88.88 186.25,-58.38 336.5,-58.38 336.5,-88.88"/>
<text xml:space="preserve" text-anchor="start" x="194.25" y="-75.38" font-family="Helvetica,sans-Serif" font-size="10.00">lmms::gui::SendButtonIndicator</text>
<text xml:space="preserve" text-anchor="middle" x="261.38" y="-64.12" font-family="Helvetica,sans-Serif" font-size="10.00">::updateLightStatus</text>
</a>
</g>
</g>
<!-- Node3&#45;&gt;Node4 -->
<g id="edge3_Node000003_Node000004" class="edge">
<title>Node3&#45;&gt;Node4</title>
<g id="a_edge3_Node000003_Node000004"><a xlink:title=" ">
<path fill="none" stroke="#63b8ff" d="M360.89,-73.62C352.83,-73.62 344.71,-73.62 336.76,-73.62"/>
<polygon fill="#63b8ff" stroke="#63b8ff" points="360.7,-77.13 370.7,-73.63 360.7,-70.13 360.7,-77.13"/>
</a>
</g>
</g>
<!-- Node4&#45;&gt;Node5 -->
<g id="edge4_Node000004_Node000005" class="edge">
<title>Node4&#45;&gt;Node5</title>
<g id="a_edge4_Node000004_Node000005"><a xlink:title=" ">
<path fill="none" stroke="#63b8ff" d="M174.64,-63.39C166.58,-62.43 158.46,-61.46 150.51,-60.51"/>
<polygon fill="#63b8ff" stroke="#63b8ff" points="174.12,-66.85 184.46,-64.56 174.95,-59.9 174.12,-66.85"/>
</a>
</g>
</g>
</g>
</svg>

<g id="navigator" transform="translate(0 0)" fill="#404254">
  <rect fill="#f2f5e9" fill-opacity="0.5" stroke="#606060" stroke-width=".5" x="0" y="0" width="60" height="60"/>
  <use id="zoomplus" xlink:href="#zoomPlus" x="17" y="9" onmousedown="handleZoom(evt,'in')"/>
  <use id="zoomminus" xlink:href="#zoomMin" x="42" y="9" onmousedown="handleZoom(evt,'out')"/>
  <use id="reset" xlink:href="#resetDef" x="30" y="36" onmousedown="handleReset()"/>
   <use id="arrowup" xlink:href="#arrowUp" x="0" y="0" onmousedown="handlePan(0,-1)"/>
  <use id="arrowright" xlink:href="#arrowRight" x="0" y="0" onmousedown="handlePan(1,0)"/>
  <use id="arrowdown" xlink:href="#arrowDown" x="0" y="0" onmousedown="handlePan(0,1)"/>
  <use id="arrowleft" xlink:href="#arrowLeft" x="0" y="0" onmousedown="handlePan(-1,0)"/>
</g>
<svg viewBox="0 0 15 15" width="100%" height="30px" preserveAspectRatio="xMaxYMin meet">
 <g id="arrow_out" transform="scale(0.3 0.3)">
  <a xlink:href="classlmms_1_1MixerRoute_ae385a711e26d0b55d012937386668cc3_icgraph_org.svg" target="_base">
   <rect id="button" ry="5" rx="5" y="6" x="6" height="38" width="38"
        fill="#f2f5e9" fill-opacity="0.5" stroke="#606060" stroke-width="1.0"/>
   <path id="arrow"
     d="M 11.500037,31.436501 C 11.940474,20.09759 22.043105,11.32322 32.158766,21.979434 L 37.068811,17.246167 C 37.068811,17.246167 37.088388,32 37.088388,32 L 22.160133,31.978069 C 22.160133,31.978069 26.997745,27.140456 26.997745,27.140456 C 18.528582,18.264221 13.291696,25.230495 11.500037,31.436501 z"
     style="fill:#404040;"/>
  </a>
 </g>
</svg>

<style type='text/css'>
<![CDATA[
[data-mouse-over-selected='false'] { opacity: 0.7; }
[data-mouse-over-selected='true']  { opacity: 1.0; }
]]>
</style>
<script type="application/ecmascript"><![CDATA[
document.addEventListener('DOMContentLoaded', (event) => {
  highlightEdges();
  highlightAdjacentNodes();
});
]]></script>
</svg>
