<?xml version="1.0" encoding="UTF-8" standalone="no"?>
<!DOCTYPE svg PUBLIC "-//W3C//DTD SVG 1.1//EN"
 "http://www.w3.org/Graphics/SVG/1.1/DTD/svg11.dtd">
<!-- Generated by graphviz version 14.0.2 (0)
 -->
<!-- Title: juce::MemoryMappedAiffReader::MemoryMappedAiffReader Pages: 1 -->
<!--zoomable 143 -->

<svg id="main" version="1.1" xmlns="http://www.w3.org/2000/svg" xmlns:xlink="http://www.w3.org/1999/xlink" xml:space="preserve" onload="init(evt)">

<style type="text/css"><![CDATA[
.node, .edge {opacity: 0.7;}
.node.selected, .edge.selected {opacity: 1;}
.edge:hover path { stroke: red; }
.edge:hover polygon { stroke: red; fill: red; }
]]></style>

<defs>
  <circle id="rim" cx="0" cy="0" r="7"/>
  <circle id="rim2" cx="0" cy="0" r="3.5"/>
  <g id="zoomPlus">
    <use xlink:href="#rim" fill="#404040"><set attributeName="fill" to="#808080" begin="zoomplus.mouseover" end="zoomplus.mouseout"/></use>
    <path d="M-4,0h8M0,-4v8" fill="none" stroke="white" stroke-width="1.5" pointer-events="none"/>
  </g>
  <g id="zoomMin">
    <use xlink:href="#rim" fill="#404040"><set attributeName="fill" to="#808080" begin="zoomminus.mouseover" end="zoomminus.mouseout"/></use>
    <path d="M-4,0h8" fill="none" stroke="white" stroke-width="1.5" pointer-events="none"/>
  </g>
  <g id="arrowUp" transform="translate(30 24)">
    <use xlink:href="#rim"/>
    <path pointer-events="none" fill="none" stroke="white" stroke-width="1.5" d="M0,-3.0v7 M-2.5,-0.5L0,-3.0L2.5,-0.5"/>
  </g>
  <g id="arrowRight" transform="rotate(90) translate(36 -43)">
    <use xlink:href="#rim"/>
    <path pointer-events="none" fill="none" stroke="white" stroke-width="1.5" d="M0,-3.0v7 M-2.5,-0.5L0,-3.0L2.5,-0.5"/>
  </g>
  <g id="arrowDown" transform="rotate(180) translate(-30 -48)">
    <use xlink:href="#rim"/>
    <path pointer-events="none" fill="none" stroke="white" stroke-width="1.5" d="M0,-3.0v7 M-2.5,-0.5L0,-3.0L2.5,-0.5"/>
  </g>
  <g id="arrowLeft" transform="rotate(270) translate(-36 17)">
    <use xlink:href="#rim"/>
    <path pointer-events="none" fill="none" stroke="white" stroke-width="1.5" d="M0,-3.0v7 M-2.5,-0.5L0,-3.0L2.5,-0.5"/>
  </g>
  <g id="resetDef">
    <use xlink:href="#rim2" fill="#404040"><set attributeName="fill" to="#808080" begin="reset.mouseover" end="reset.mouseout"/></use>
  </g>
</defs>
<script type="application/ecmascript">
var viewWidth = 564;
var viewHeight = 143;
var sectionId = 'dynsection-2';
</script>
<script type="application/ecmascript" xlink:href="svg.min.js"/>
<svg id="graph" class="graph">
<g id="viewport">
<title>juce::MemoryMappedAiffReader::MemoryMappedAiffReader</title>
<!-- Node1 -->
<g id="Node000001" class="node">
<title>Node1</title>
<g id="a_Node000001"><a xlink:title=" ">
<polygon fill="#999999" stroke="#666666" points="152.5,-67.88 0,-67.88 0,-37.38 152.5,-37.38 152.5,-67.88"/>
<text xml:space="preserve" text-anchor="start" x="8" y="-54.38" font-family="Helvetica,sans-Serif" font-size="10.00">juce::MemoryMappedAiffReader</text>
<text xml:space="preserve" text-anchor="middle" x="76.25" y="-43.12" font-family="Helvetica,sans-Serif" font-size="10.00">::MemoryMappedAiffReader</text>
</a>
</g>
</g>
<!-- Node2 -->
<g id="Node000002" class="node">
<title>Node2</title>
<g id="a_Node000002"><a xlink:href="classjuce_1_1MemoryMappedAudioFormatReader.html#a089e8769b85ae454f6915042f7259473" target="_top" xlink:title=" ">
<polygon fill="white" stroke="#666666" points="395,-67.88 188.5,-67.88 188.5,-37.38 395,-37.38 395,-67.88"/>
<text xml:space="preserve" text-anchor="start" x="196.5" y="-54.38" font-family="Helvetica,sans-Serif" font-size="10.00">juce::MemoryMappedAudioFormat</text>
<text xml:space="preserve" text-anchor="middle" x="291.75" y="-43.12" font-family="Helvetica,sans-Serif" font-size="10.00">Reader::MemoryMappedAudioFormatReader</text>
</a>
</g>
</g>
<!-- Node1&#45;&gt;Node2 -->
<g id="edge1_Node000001_Node000002" class="edge">
<title>Node1&#45;&gt;Node2</title>
<g id="a_edge1_Node000001_Node000002"><a xlink:title=" ">
<path fill="none" stroke="#63b8ff" d="M152.82,-52.62C160.65,-52.62 168.72,-52.62 176.85,-52.62"/>
<polygon fill="#63b8ff" stroke="#63b8ff" points="176.84,-56.13 186.84,-52.63 176.84,-49.13 176.84,-56.13"/>
</a>
</g>
</g>
<!-- Node2&#45;&gt;Node2 -->
<g id="edge5_Node000002_Node000002" class="edge">
<title>Node2&#45;&gt;Node2</title>
<g id="a_edge5_Node000002_Node000002"><a xlink:title=" ">
<path fill="none" stroke="#63b8ff" d="M256.02,-68.36C248.73,-77.43 260.64,-85.88 291.75,-85.88 308.76,-85.88 320.03,-83.35 325.56,-79.58"/>
<polygon fill="#63b8ff" stroke="#63b8ff" points="328.99,-80.3 327.22,-69.85 322.09,-79.12 328.99,-80.3"/>
</a>
</g>
</g>
<!-- Node3 -->
<g id="Node000003" class="node">
<title>Node3</title>
<g id="a_Node000003"><a xlink:href="classjuce_1_1AudioFormatReader.html#ac0eaf7e9c914bf328e56ae555d9a2b5b" target="_top" xlink:title=" ">
<polygon fill="white" stroke="#666666" points="555.75,-116.88 431,-116.88 431,-86.38 555.75,-86.38 555.75,-116.88"/>
<text xml:space="preserve" text-anchor="start" x="439" y="-103.38" font-family="Helvetica,sans-Serif" font-size="10.00">juce::AudioFormatReader</text>
<text xml:space="preserve" text-anchor="middle" x="493.38" y="-92.12" font-family="Helvetica,sans-Serif" font-size="10.00">::AudioFormatReader</text>
</a>
</g>
</g>
<!-- Node2&#45;&gt;Node3 -->
<g id="edge2_Node000002_Node000003" class="edge">
<title>Node2&#45;&gt;Node3</title>
<g id="a_edge2_Node000002_Node000003"><a xlink:title=" ">
<path fill="none" stroke="#63b8ff" d="M356.74,-68.33C376.84,-73.27 399.19,-78.75 419.84,-83.82"/>
<polygon fill="#63b8ff" stroke="#63b8ff" points="418.78,-87.16 429.32,-86.15 420.45,-80.37 418.78,-87.16"/>
</a>
</g>
</g>
<!-- Node4 -->
<g id="Node000004" class="node">
<title>Node4</title>
<g id="a_Node000004"><a xlink:href="classjuce_1_1AudioFormatReader.html#a519a10d217e59d8e4ecd807ab0f2daf5" target="_top" xlink:title=" ">
<polygon fill="white" stroke="#666666" points="555.75,-67.88 431,-67.88 431,-37.38 555.75,-37.38 555.75,-67.88"/>
<text xml:space="preserve" text-anchor="start" x="439" y="-54.38" font-family="Helvetica,sans-Serif" font-size="10.00">juce::AudioFormatReader</text>
<text xml:space="preserve" text-anchor="middle" x="493.38" y="-43.12" font-family="Helvetica,sans-Serif" font-size="10.00">::getFormatName</text>
</a>
</g>
</g>
<!-- Node2&#45;&gt;Node4 -->
<g id="edge4_Node000002_Node000004" class="edge">
<title>Node2&#45;&gt;Node4</title>
<g id="a_edge4_Node000002_Node000004"><a xlink:title=" ">
<path fill="none" stroke="#63b8ff" d="M395.49,-52.62C403.57,-52.62 411.64,-52.62 419.46,-52.62"/>
<polygon fill="#63b8ff" stroke="#63b8ff" points="419.21,-56.13 429.21,-52.63 419.21,-49.13 419.21,-56.13"/>
</a>
</g>
</g>
<!-- Node5 -->
<g id="Node000005" class="node">
<title>Node5</title>
<g id="a_Node000005"><a xlink:href="iasiodrv_8h.html#aa7fc430175ea32f087a7111520a49592" target="_top" xlink:title=" ">
<polygon fill="white" stroke="#666666" points="511.12,-19.25 475.62,-19.25 475.62,0 511.12,0 511.12,-19.25"/>
<text xml:space="preserve" text-anchor="middle" x="493.38" y="-5.75" font-family="Helvetica,sans-Serif" font-size="10.00">start</text>
</a>
</g>
</g>
<!-- Node2&#45;&gt;Node5 -->
<g id="edge6_Node000002_Node000005" class="edge">
<title>Node2&#45;&gt;Node5</title>
<g id="a_edge6_Node000002_Node000005"><a xlink:title=" ">
<path fill="none" stroke="#63b8ff" d="M365.67,-36.92C399.9,-29.55 438.69,-21.19 464.23,-15.69"/>
<polygon fill="#63b8ff" stroke="#63b8ff" points="464.78,-19.15 473.82,-13.62 463.3,-12.31 464.78,-19.15"/>
</a>
</g>
</g>
<!-- Node3&#45;&gt;Node3 -->
<g id="edge3_Node000003_Node000003" class="edge">
<title>Node3&#45;&gt;Node3</title>
<g id="a_edge3_Node000003_Node000003"><a xlink:title=" ">
<path fill="none" stroke="#63b8ff" d="M457.65,-117.36C450.36,-126.43 462.26,-134.88 493.38,-134.88 510.39,-134.88 521.66,-132.35 527.19,-128.58"/>
<polygon fill="#63b8ff" stroke="#63b8ff" points="530.62,-129.3 528.85,-118.85 523.71,-128.12 530.62,-129.3"/>
</a>
</g>
</g>
</g>
</svg>

<g id="navigator" transform="translate(0 0)" fill="#404254">
  <rect fill="#f2f5e9" fill-opacity="0.5" stroke="#606060" stroke-width=".5" x="0" y="0" width="60" height="60"/>
  <use id="zoomplus" xlink:href="#zoomPlus" x="17" y="9" onmousedown="handleZoom(evt,'in')"/>
  <use id="zoomminus" xlink:href="#zoomMin" x="42" y="9" onmousedown="handleZoom(evt,'out')"/>
  <use id="reset" xlink:href="#resetDef" x="30" y="36" onmousedown="handleReset()"/>
   <use id="arrowup" xlink:href="#arrowUp" x="0" y="0" onmousedown="handlePan(0,-1)"/>
  <use id="arrowright" xlink:href="#arrowRight" x="0" y="0" onmousedown="handlePan(1,0)"/>
  <use id="arrowdown" xlink:href="#arrowDown" x="0" y="0" onmousedown="handlePan(0,1)"/>
  <use id="arrowleft" xlink:href="#arrowLeft" x="0" y="0" onmousedown="handlePan(-1,0)"/>
</g>
<svg viewBox="0 0 15 15" width="100%" height="30px" preserveAspectRatio="xMaxYMin meet">
 <g id="arrow_out" transform="scale(0.3 0.3)">
  <a xlink:href="classjuce_1_1MemoryMappedAiffReader_a08786bb506708d3f160c608b84d1bbe5_cgraph_org.svg" target="_base">
   <rect id="button" ry="5" rx="5" y="6" x="6" height="38" width="38"
        fill="#f2f5e9" fill-opacity="0.5" stroke="#606060" stroke-width="1.0"/>
   <path id="arrow"
     d="M 11.500037,31.436501 C 11.940474,20.09759 22.043105,11.32322 32.158766,21.979434 L 37.068811,17.246167 C 37.068811,17.246167 37.088388,32 37.088388,32 L 22.160133,31.978069 C 22.160133,31.978069 26.997745,27.140456 26.997745,27.140456 C 18.528582,18.264221 13.291696,25.230495 11.500037,31.436501 z"
     style="fill:#404040;"/>
  </a>
 </g>
</svg>

<style type='text/css'>
<![CDATA[
[data-mouse-over-selected='false'] { opacity: 0.7; }
[data-mouse-over-selected='true']  { opacity: 1.0; }
]]>
</style>
<script type="application/ecmascript"><![CDATA[
document.addEventListener('DOMContentLoaded', (event) => {
  highlightEdges();
  highlightAdjacentNodes();
});
]]></script>
</svg>
