<?xml version="1.0" encoding="UTF-8" standalone="no"?>
<!DOCTYPE svg PUBLIC "-//W3C//DTD SVG 1.1//EN"
 "http://www.w3.org/Graphics/SVG/1.1/DTD/svg11.dtd">
<!-- Generated by graphviz version 14.0.2 (0)
 -->
<!-- Title: juce::IPAddress::IPAddress Pages: 1 -->
<!--zoomable 913 -->

<svg id="main" version="1.1" xmlns="http://www.w3.org/2000/svg" xmlns:xlink="http://www.w3.org/1999/xlink" xml:space="preserve" onload="init(evt)">

<style type="text/css"><![CDATA[
.node, .edge {opacity: 0.7;}
.node.selected, .edge.selected {opacity: 1;}
.edge:hover path { stroke: red; }
.edge:hover polygon { stroke: red; fill: red; }
]]></style>

<defs>
  <circle id="rim" cx="0" cy="0" r="7"/>
  <circle id="rim2" cx="0" cy="0" r="3.5"/>
  <g id="zoomPlus">
    <use xlink:href="#rim" fill="#404040"><set attributeName="fill" to="#808080" begin="zoomplus.mouseover" end="zoomplus.mouseout"/></use>
    <path d="M-4,0h8M0,-4v8" fill="none" stroke="white" stroke-width="1.5" pointer-events="none"/>
  </g>
  <g id="zoomMin">
    <use xlink:href="#rim" fill="#404040"><set attributeName="fill" to="#808080" begin="zoomminus.mouseover" end="zoomminus.mouseout"/></use>
    <path d="M-4,0h8" fill="none" stroke="white" stroke-width="1.5" pointer-events="none"/>
  </g>
  <g id="arrowUp" transform="translate(30 24)">
    <use xlink:href="#rim"/>
    <path pointer-events="none" fill="none" stroke="white" stroke-width="1.5" d="M0,-3.0v7 M-2.5,-0.5L0,-3.0L2.5,-0.5"/>
  </g>
  <g id="arrowRight" transform="rotate(90) translate(36 -43)">
    <use xlink:href="#rim"/>
    <path pointer-events="none" fill="none" stroke="white" stroke-width="1.5" d="M0,-3.0v7 M-2.5,-0.5L0,-3.0L2.5,-0.5"/>
  </g>
  <g id="arrowDown" transform="rotate(180) translate(-30 -48)">
    <use xlink:href="#rim"/>
    <path pointer-events="none" fill="none" stroke="white" stroke-width="1.5" d="M0,-3.0v7 M-2.5,-0.5L0,-3.0L2.5,-0.5"/>
  </g>
  <g id="arrowLeft" transform="rotate(270) translate(-36 17)">
    <use xlink:href="#rim"/>
    <path pointer-events="none" fill="none" stroke="white" stroke-width="1.5" d="M0,-3.0v7 M-2.5,-0.5L0,-3.0L2.5,-0.5"/>
  </g>
  <g id="resetDef">
    <use xlink:href="#rim2" fill="#404040"><set attributeName="fill" to="#808080" begin="reset.mouseover" end="reset.mouseout"/></use>
  </g>
</defs>
<script type="application/ecmascript">
var viewWidth = 876;
var viewHeight = 913;
var sectionId = 'dynsection-2';
</script>
<script type="application/ecmascript" xlink:href="svg.min.js"/>
<svg id="graph" class="graph">
<g id="viewport">
<title>juce::IPAddress::IPAddress</title>
<!-- Node1 -->
<g id="Node000001" class="node">
<title>Node1</title>
<g id="a_Node000001"><a xlink:title=" ">
<polygon fill="#999999" stroke="#666666" points="867.5,-481.25 733,-481.25 733,-462 867.5,-462 867.5,-481.25"/>
<text xml:space="preserve" text-anchor="middle" x="800.25" y="-467.75" font-family="Helvetica,sans-Serif" font-size="10.00">juce::IPAddress::IPAddress</text>
</a>
</g>
</g>
<!-- Node1&#45;&gt;Node1 -->
<g id="edge27_Node000001_Node000001" class="edge">
<title>Node1&#45;&gt;Node1</title>
<g id="a_edge27_Node000001_Node000001"><a xlink:title=" ">
<path fill="none" stroke="#63b8ff" d="M832.59,-491.98C829.2,-496.21 818.42,-499.25 800.25,-499.25 768.83,-499.25 759.5,-490.15 772.27,-481.54"/>
<polygon fill="#63b8ff" stroke="#63b8ff" points="835.9,-490.81 828.82,-482.93 829.44,-493.51 835.9,-490.81"/>
</a>
</g>
</g>
<!-- Node2 -->
<g id="Node000002" class="node">
<title>Node2</title>
<g id="a_Node000002"><a xlink:href="classjuce_1_1IPAddress.html#a54a0b1788b228e614e7641629a743ad6" target="_top" xlink:title=" ">
<polygon fill="white" stroke="#666666" points="673.38,-887.25 569.62,-887.25 569.62,-868 673.38,-868 673.38,-887.25"/>
<text xml:space="preserve" text-anchor="middle" x="621.5" y="-873.75" font-family="Helvetica,sans-Serif" font-size="10.00">juce::IPAddress::any</text>
</a>
</g>
</g>
<!-- Node1&#45;&gt;Node2 -->
<g id="edge1_Node000001_Node000002" class="edge">
<title>Node1&#45;&gt;Node2</title>
<g id="a_edge1_Node000001_Node000002"><a xlink:title=" ">
<path fill="none" stroke="#63b8ff" d="M796.55,-492.72C786.75,-565.84 750.87,-806.86 697,-859.62 690.54,-865.96 682.25,-870.19 673.57,-873"/>
<polygon fill="#63b8ff" stroke="#63b8ff" points="800,-493.31 797.83,-482.94 793.06,-492.4 800,-493.31"/>
</a>
</g>
</g>
<!-- Node3 -->
<g id="Node000003" class="node">
<title>Node3</title>
<g id="a_Node000003"><a xlink:href="classjuce_1_1IPAddress.html#a6d95c70ed86c3842c360545ee7fc30e8" target="_top" xlink:title=" ">
<polygon fill="white" stroke="#666666" points="687.25,-832.25 555.75,-832.25 555.75,-813 687.25,-813 687.25,-832.25"/>
<text xml:space="preserve" text-anchor="middle" x="621.5" y="-818.75" font-family="Helvetica,sans-Serif" font-size="10.00">juce::IPAddress::broadcast</text>
</a>
</g>
</g>
<!-- Node1&#45;&gt;Node3 -->
<g id="edge3_Node000001_Node000003" class="edge">
<title>Node1&#45;&gt;Node3</title>
<g id="a_edge3_Node000001_Node000003"><a xlink:title=" ">
<path fill="none" stroke="#63b8ff" d="M799,-492.71C797.14,-550.14 784.02,-710.86 697,-798.62 690.97,-804.7 683.4,-809.25 675.41,-812.64"/>
<polygon fill="#63b8ff" stroke="#63b8ff" points="802.49,-493.12 799.22,-483.05 795.49,-492.96 802.49,-493.12"/>
</a>
</g>
</g>
<!-- Node4 -->
<g id="Node000004" class="node">
<title>Node4</title>
<g id="a_Node000004"><a xlink:href="classjuce_1_1IPAddress.html#a655add8dfc6ec572dcf3bdee2f4c2503" target="_top" xlink:title=" ">
<polygon fill="white" stroke="#666666" points="310.62,-561.25 184.38,-561.25 184.38,-542 310.62,-542 310.62,-561.25"/>
<text xml:space="preserve" text-anchor="middle" x="247.5" y="-547.75" font-family="Helvetica,sans-Serif" font-size="10.00">juce::IPAddress::compare</text>
</a>
</g>
</g>
<!-- Node1&#45;&gt;Node4 -->
<g id="edge5_Node000001_Node000004" class="edge">
<title>Node1&#45;&gt;Node4</title>
<g id="a_edge5_Node000001_Node000004"><a xlink:title=" ">
<path fill="none" stroke="#63b8ff" d="M762.46,-485.55C743.22,-492.3 719.12,-499.95 697,-504.62 561.04,-533.36 398,-544.84 310.8,-549.18"/>
<polygon fill="#63b8ff" stroke="#63b8ff" points="763.52,-488.89 771.75,-482.21 761.16,-482.3 763.52,-488.89"/>
</a>
</g>
</g>
<!-- Node5 -->
<g id="Node000005" class="node">
<title>Node5</title>
<g id="a_Node000005"><a xlink:href="classjuce_1_1IPAddress.html#ac266bf3cfa8f0633b45dfdb452b900ef" target="_top" xlink:title=" ">
<polygon fill="white" stroke="#666666" points="135.25,-782.25 0.75,-782.25 0.75,-763 135.25,-763 135.25,-782.25"/>
<text xml:space="preserve" text-anchor="middle" x="68" y="-768.75" font-family="Helvetica,sans-Serif" font-size="10.00">juce::IPAddress::IPAddress</text>
</a>
</g>
</g>
<!-- Node1&#45;&gt;Node5 -->
<g id="edge29_Node000001_Node000005" class="edge">
<title>Node1&#45;&gt;Node5</title>
<g id="a_edge29_Node000001_Node000005"><a xlink:title=" ">
<path fill="none" stroke="#63b8ff" d="M798.64,-492.79C795.84,-545.61 780.5,-683.37 697,-744.62 609.44,-808.86 278.53,-790.15 135.51,-778.63"/>
<polygon fill="#63b8ff" stroke="#63b8ff" points="802.12,-493.2 799.04,-483.06 795.13,-492.91 802.12,-493.2"/>
</a>
</g>
</g>
<!-- Node6 -->
<g id="Node000006" class="node">
<title>Node6</title>
<g id="a_Node000006"><a xlink:href="classjuce_1_1IPAddress.html#a4abd48b9113abb233a6cb6d9b3ea1365" target="_top" xlink:title=" ">
<polygon fill="white" stroke="#666666" points="134.5,-699.25 1.5,-699.25 1.5,-680 134.5,-680 134.5,-699.25"/>
<text xml:space="preserve" text-anchor="middle" x="68" y="-685.75" font-family="Helvetica,sans-Serif" font-size="10.00">juce::IPAddress::operator!=</text>
</a>
</g>
</g>
<!-- Node1&#45;&gt;Node6 -->
<g id="edge49_Node000001_Node000006" class="edge">
<title>Node1&#45;&gt;Node6</title>
<g id="a_edge49_Node000001_Node000006"><a xlink:title=" ">
<path fill="none" stroke="#63b8ff" d="M797.55,-492.77C792.38,-541.51 772.23,-661.72 697,-715.62 605.63,-781.08 254.67,-724.36 121.06,-699.7"/>
<polygon fill="#63b8ff" stroke="#63b8ff" points="801.01,-493.3 798.46,-483.02 794.05,-492.65 801.01,-493.3"/>
</a>
</g>
</g>
<!-- Node7 -->
<g id="Node000007" class="node">
<title>Node7</title>
<g id="a_Node000007"><a xlink:href="classjuce_1_1IPAddress.html#a568f64ae80c49390d217b4522b39c927" target="_top" xlink:title=" ">
<polygon fill="white" stroke="#666666" points="133,-572.25 3,-572.25 3,-553 133,-553 133,-572.25"/>
<text xml:space="preserve" text-anchor="middle" x="68" y="-558.75" font-family="Helvetica,sans-Serif" font-size="10.00">juce::IPAddress::operator&lt;</text>
</a>
</g>
</g>
<!-- Node1&#45;&gt;Node7 -->
<g id="edge50_Node000001_Node000007" class="edge">
<title>Node1&#45;&gt;Node7</title>
<g id="a_edge50_Node000001_Node000007"><a xlink:title=" ">
<path fill="none" stroke="#63b8ff" d="M795.84,-492.73C787.63,-535.96 762.35,-634.14 697,-677.62 488.44,-816.38 158.68,-620.52 84.26,-572.71"/>
<polygon fill="#63b8ff" stroke="#63b8ff" points="799.25,-493.59 797.54,-483.13 792.35,-492.37 799.25,-493.59"/>
</a>
</g>
</g>
<!-- Node8 -->
<g id="Node000008" class="node">
<title>Node8</title>
<g id="a_Node000008"><a xlink:href="classjuce_1_1IPAddress.html#ae6a0a789e8c8119ef0f0bfd129f1ac8a" target="_top" xlink:title=" ">
<polygon fill="white" stroke="#666666" points="136,-517.25 0,-517.25 0,-498 136,-498 136,-517.25"/>
<text xml:space="preserve" text-anchor="middle" x="68" y="-503.75" font-family="Helvetica,sans-Serif" font-size="10.00">juce::IPAddress::operator&lt;=</text>
</a>
</g>
</g>
<!-- Node1&#45;&gt;Node8 -->
<g id="edge51_Node000001_Node000008" class="edge">
<title>Node1&#45;&gt;Node8</title>
<g id="a_edge51_Node000001_Node000008"><a xlink:title=" ">
<path fill="none" stroke="#63b8ff" d="M721.17,-475.47C577.13,-482.57 271.98,-497.62 136.38,-504.3"/>
<polygon fill="#63b8ff" stroke="#63b8ff" points="721.18,-478.98 731,-474.99 720.84,-471.99 721.18,-478.98"/>
</a>
</g>
</g>
<!-- Node9 -->
<g id="Node000009" class="node">
<title>Node9</title>
<g id="a_Node000009"><a xlink:href="classjuce_1_1IPAddress.html#a0b509580b8fa72a542c034752f90bf8f" target="_top" xlink:title=" ">
<polygon fill="white" stroke="#666666" points="136,-471.25 0,-471.25 0,-452 136,-452 136,-471.25"/>
<text xml:space="preserve" text-anchor="middle" x="68" y="-457.75" font-family="Helvetica,sans-Serif" font-size="10.00">juce::IPAddress::operator==</text>
</a>
</g>
</g>
<!-- Node1&#45;&gt;Node9 -->
<g id="edge52_Node000001_Node000009" class="edge">
<title>Node1&#45;&gt;Node9</title>
<g id="a_edge52_Node000001_Node000009"><a xlink:title=" ">
<path fill="none" stroke="#63b8ff" d="M721.17,-470.56C577.13,-468.58 271.98,-464.4 136.38,-462.55"/>
<polygon fill="#63b8ff" stroke="#63b8ff" points="720.95,-474.05 731,-470.69 721.04,-467.05 720.95,-474.05"/>
</a>
</g>
</g>
<!-- Node10 -->
<g id="Node000010" class="node">
<title>Node10</title>
<g id="a_Node000010"><a xlink:href="classjuce_1_1IPAddress.html#a067a9e80e4ed2234c26fa784929d3edf" target="_top" xlink:title=" ">
<polygon fill="white" stroke="#666666" points="133,-429.25 3,-429.25 3,-410 133,-410 133,-429.25"/>
<text xml:space="preserve" text-anchor="middle" x="68" y="-415.75" font-family="Helvetica,sans-Serif" font-size="10.00">juce::IPAddress::operator&gt;</text>
</a>
</g>
</g>
<!-- Node1&#45;&gt;Node10 -->
<g id="edge53_Node000001_Node000010" class="edge">
<title>Node1&#45;&gt;Node10</title>
<g id="a_edge53_Node000001_Node000010"><a xlink:title=" ">
<path fill="none" stroke="#63b8ff" d="M721.09,-466.06C575.98,-455.73 267.57,-433.76 133.49,-424.22"/>
<polygon fill="#63b8ff" stroke="#63b8ff" points="720.78,-469.55 731,-466.76 721.27,-462.56 720.78,-469.55"/>
</a>
</g>
</g>
<!-- Node11 -->
<g id="Node000011" class="node">
<title>Node11</title>
<g id="a_Node000011"><a xlink:href="classjuce_1_1IPAddress.html#a24d3af505137253b1ab568b7905bcbac" target="_top" xlink:title=" ">
<polygon fill="white" stroke="#666666" points="136,-392.25 0,-392.25 0,-373 136,-373 136,-392.25"/>
<text xml:space="preserve" text-anchor="middle" x="68" y="-378.75" font-family="Helvetica,sans-Serif" font-size="10.00">juce::IPAddress::operator&gt;=</text>
</a>
</g>
</g>
<!-- Node1&#45;&gt;Node11 -->
<g id="edge54_Node000001_Node000011" class="edge">
<title>Node1&#45;&gt;Node11</title>
<g id="a_edge54_Node000001_Node000011"><a xlink:title=" ">
<path fill="none" stroke="#63b8ff" d="M743.42,-459.16C728.4,-456.08 712.12,-452.99 697,-450.62 493.85,-418.84 251.4,-397.14 136.19,-387.8"/>
<polygon fill="#63b8ff" stroke="#63b8ff" points="742.64,-462.57 753.14,-461.19 744.07,-455.72 742.64,-462.57"/>
</a>
</g>
</g>
<!-- Node12 -->
<g id="Node000012" class="node">
<title>Node12</title>
<g id="a_Node000012"><a xlink:href="classjuce_1_1IPAddress.html#ad36f22ca73b0374c415d2685259918ce" target="_top" xlink:title=" ">
<polygon fill="white" stroke="#666666" points="690.62,-330.88 552.38,-330.88 552.38,-300.38 690.62,-300.38 690.62,-330.88"/>
<text xml:space="preserve" text-anchor="start" x="560.38" y="-317.38" font-family="Helvetica,sans-Serif" font-size="10.00">juce::IPAddress::convert</text>
<text xml:space="preserve" text-anchor="middle" x="621.5" y="-306.12" font-family="Helvetica,sans-Serif" font-size="10.00">IPv4AddressToIPv4Mapped</text>
</a>
</g>
</g>
<!-- Node1&#45;&gt;Node12 -->
<g id="edge14_Node000001_Node000012" class="edge">
<title>Node1&#45;&gt;Node12</title>
<g id="a_edge14_Node000001_Node000012"><a xlink:title=" ">
<path fill="none" stroke="#63b8ff" d="M784.4,-453.1C765.54,-430.24 731.32,-390.95 697,-362.62 682.73,-350.85 665.31,-339.7 650.9,-331.22"/>
<polygon fill="#63b8ff" stroke="#63b8ff" points="781.51,-455.09 790.54,-460.63 786.94,-450.67 781.51,-455.09"/>
</a>
</g>
</g>
<!-- Node13 -->
<g id="Node000013" class="node">
<title>Node13</title>
<g id="a_Node000013"><a xlink:href="classjuce_1_1IPAddress.html#ae06cfae7493bb43fda2d9ca355794a93" target="_top" xlink:title=" ">
<polygon fill="white" stroke="#666666" points="503.62,-662.88 365.38,-662.88 365.38,-632.38 503.62,-632.38 503.62,-662.88"/>
<text xml:space="preserve" text-anchor="start" x="373.38" y="-649.38" font-family="Helvetica,sans-Serif" font-size="10.00">juce::IPAddress::convert</text>
<text xml:space="preserve" text-anchor="middle" x="434.5" y="-638.12" font-family="Helvetica,sans-Serif" font-size="10.00">IPv4MappedAddressToIPv4</text>
</a>
</g>
</g>
<!-- Node1&#45;&gt;Node13 -->
<g id="edge16_Node000001_Node000013" class="edge">
<title>Node1&#45;&gt;Node13</title>
<g id="a_edge16_Node000001_Node000013"><a xlink:title=" ">
<path fill="none" stroke="#63b8ff" d="M794.63,-492.56C784.65,-532.06 756.98,-616.71 697,-651.62 632.64,-689.08 543.42,-676.91 487.61,-663.32"/>
<polygon fill="#63b8ff" stroke="#63b8ff" points="798.01,-493.46 796.91,-482.92 791.2,-491.84 798.01,-493.46"/>
</a>
</g>
</g>
<!-- Node14 -->
<g id="Node000014" class="node">
<title>Node14</title>
<g id="a_Node000014"><a xlink:href="classjuce_1_1IPAddress.html#a49ee9bf1cb89d2d67fc957915fcb736d" target="_top" xlink:title=" ">
<polygon fill="white" stroke="#666666" points="691.75,-263.88 551.25,-263.88 551.25,-233.38 691.75,-233.38 691.75,-263.88"/>
<text xml:space="preserve" text-anchor="start" x="559.25" y="-250.38" font-family="Helvetica,sans-Serif" font-size="10.00">juce::IPAddress::getInterface</text>
<text xml:space="preserve" text-anchor="middle" x="621.5" y="-239.12" font-family="Helvetica,sans-Serif" font-size="10.00">BroadcastAddress</text>
</a>
</g>
</g>
<!-- Node1&#45;&gt;Node14 -->
<g id="edge19_Node000001_Node000014" class="edge">
<title>Node1&#45;&gt;Node14</title>
<g id="a_edge19_Node000001_Node000014"><a xlink:title=" ">
<path fill="none" stroke="#63b8ff" d="M791.87,-451.32C777.99,-415.42 745.01,-339.97 697,-291.62 685.95,-280.5 671.43,-271.27 658.15,-264.24"/>
<polygon fill="#63b8ff" stroke="#63b8ff" points="788.51,-452.34 795.3,-460.47 795.06,-449.87 788.51,-452.34"/>
</a>
</g>
</g>
<!-- Node17 -->
<g id="Node000017" class="node">
<title>Node17</title>
<g id="a_Node000017"><a xlink:href="classjuce_1_1IPAddress.html#a070df54f7de76827030186c4e6cd1bb1" target="_top" xlink:title=" ">
<polygon fill="white" stroke="#666666" points="684.62,-141.88 558.38,-141.88 558.38,-111.38 684.62,-111.38 684.62,-141.88"/>
<text xml:space="preserve" text-anchor="start" x="566.38" y="-128.38" font-family="Helvetica,sans-Serif" font-size="10.00">juce::IPAddress::getLocal</text>
<text xml:space="preserve" text-anchor="middle" x="621.5" y="-117.12" font-family="Helvetica,sans-Serif" font-size="10.00">Address</text>
</a>
</g>
</g>
<!-- Node1&#45;&gt;Node17 -->
<g id="edge25_Node000001_Node000017" class="edge">
<title>Node1&#45;&gt;Node17</title>
<g id="a_edge25_Node000001_Node000017"><a xlink:title=" ">
<path fill="none" stroke="#63b8ff" d="M797.3,-450.49C791.4,-397.34 769.44,-256.14 697,-168.62 687.82,-157.53 674.9,-148.81 662.39,-142.27"/>
<polygon fill="#63b8ff" stroke="#63b8ff" points="793.8,-450.66 798.3,-460.25 800.76,-449.95 793.8,-450.66"/>
</a>
</g>
</g>
<!-- Node18 -->
<g id="Node000018" class="node">
<title>Node18</title>
<g id="a_Node000018"><a xlink:href="classjuce_1_1IPAddress.html#a8b5c1e2cebdd7d49fd0eb932ba191238" target="_top" xlink:title=" ">
<polygon fill="white" stroke="#666666" points="501.75,-576.25 367.25,-576.25 367.25,-557 501.75,-557 501.75,-576.25"/>
<text xml:space="preserve" text-anchor="middle" x="434.5" y="-562.75" font-family="Helvetica,sans-Serif" font-size="10.00">juce::IPAddress::IPAddress</text>
</a>
</g>
</g>
<!-- Node1&#45;&gt;Node18 -->
<g id="edge28_Node000001_Node000018" class="edge">
<title>Node1&#45;&gt;Node18</title>
<g id="a_edge28_Node000001_Node000018"><a xlink:title=" ">
<path fill="none" stroke="#63b8ff" d="M780.55,-489.15C761.25,-506.07 729.46,-530.8 697,-542.62 633.6,-565.71 556.11,-570.13 502,-569.74"/>
<polygon fill="#63b8ff" stroke="#63b8ff" points="782.76,-491.87 787.84,-482.58 778.07,-486.67 782.76,-491.87"/>
</a>
</g>
</g>
<!-- Node19 -->
<g id="Node000019" class="node">
<title>Node19</title>
<g id="a_Node000019"><a xlink:href="classjuce_1_1IPAddress.html#aa09e7c4d87237e8d35b1d1d27f299352" target="_top" xlink:title=" ">
<polygon fill="white" stroke="#666666" points="688.75,-93.25 554.25,-93.25 554.25,-74 688.75,-74 688.75,-93.25"/>
<text xml:space="preserve" text-anchor="middle" x="621.5" y="-79.75" font-family="Helvetica,sans-Serif" font-size="10.00">juce::IPAddress::IPAddress</text>
</a>
</g>
</g>
<!-- Node1&#45;&gt;Node19 -->
<g id="edge30_Node000001_Node000019" class="edge">
<title>Node1&#45;&gt;Node19</title>
<g id="a_edge30_Node000001_Node000019"><a xlink:title=" ">
<path fill="none" stroke="#63b8ff" d="M796.17,-450.22C785.51,-379.15 748.08,-152.66 697,-102.62 693.28,-98.98 688.97,-96.01 684.32,-93.58"/>
<polygon fill="#63b8ff" stroke="#63b8ff" points="792.7,-450.72 797.62,-460.11 799.63,-449.71 792.7,-450.72"/>
</a>
</g>
</g>
<!-- Node20 -->
<g id="Node000020" class="node">
<title>Node20</title>
<g id="a_Node000020"><a xlink:href="classjuce_1_1IPAddress.html#ae439336841dd23ad56357e3b32a933a8" target="_top" xlink:title=" ">
<polygon fill="white" stroke="#666666" points="688.75,-56.25 554.25,-56.25 554.25,-37 688.75,-37 688.75,-56.25"/>
<text xml:space="preserve" text-anchor="middle" x="621.5" y="-42.75" font-family="Helvetica,sans-Serif" font-size="10.00">juce::IPAddress::IPAddress</text>
</a>
</g>
</g>
<!-- Node1&#45;&gt;Node20 -->
<g id="edge31_Node000001_Node000020" class="edge">
<title>Node1&#45;&gt;Node20</title>
<g id="a_edge31_Node000001_Node000020"><a xlink:title=" ">
<path fill="none" stroke="#63b8ff" d="M796.82,-450.48C787.71,-375 753.26,-120.37 697,-64.62 693.79,-61.44 690.11,-58.78 686.16,-56.57"/>
<polygon fill="#63b8ff" stroke="#63b8ff" points="793.32,-450.68 797.96,-460.21 800.27,-449.86 793.32,-450.68"/>
</a>
</g>
</g>
<!-- Node21 -->
<g id="Node000021" class="node">
<title>Node21</title>
<g id="a_Node000021"><a xlink:href="classjuce_1_1IPAddress.html#abc9e620d897c3d515a9970fcf35ec9fc" target="_top" xlink:title=" ">
<polygon fill="white" stroke="#666666" points="688.75,-19.25 554.25,-19.25 554.25,0 688.75,0 688.75,-19.25"/>
<text xml:space="preserve" text-anchor="middle" x="621.5" y="-5.75" font-family="Helvetica,sans-Serif" font-size="10.00">juce::IPAddress::IPAddress</text>
</a>
</g>
</g>
<!-- Node1&#45;&gt;Node21 -->
<g id="edge32_Node000001_Node000021" class="edge">
<title>Node1&#45;&gt;Node21</title>
<g id="a_edge32_Node000001_Node000021"><a xlink:title=" ">
<path fill="none" stroke="#63b8ff" d="M797.31,-450.63C789.52,-371.05 757.99,-89.27 697,-27.62 693.91,-24.5 690.38,-21.89 686.58,-19.7"/>
<polygon fill="#63b8ff" stroke="#63b8ff" points="793.78,-450.48 798.21,-460.1 800.74,-449.81 793.78,-450.48"/>
</a>
</g>
</g>
<!-- Node22 -->
<g id="Node000022" class="node">
<title>Node22</title>
<g id="a_Node000022"><a xlink:href="classjuce_1_1IPAddress.html#a48ef95c73aeea7b3321dd59c7f78e58c" target="_top" xlink:title=" ">
<polygon fill="white" stroke="#666666" points="697,-624.88 546,-624.88 546,-594.38 697,-594.38 697,-624.88"/>
<text xml:space="preserve" text-anchor="start" x="554" y="-611.38" font-family="Helvetica,sans-Serif" font-size="10.00">juce::IPAddress::isIPv4Mapped</text>
<text xml:space="preserve" text-anchor="middle" x="621.5" y="-600.12" font-family="Helvetica,sans-Serif" font-size="10.00">Address</text>
</a>
</g>
</g>
<!-- Node1&#45;&gt;Node22 -->
<g id="edge33_Node000001_Node000022" class="edge">
<title>Node1&#45;&gt;Node22</title>
<g id="a_edge33_Node000001_Node000022"><a xlink:title=" ">
<path fill="none" stroke="#63b8ff" d="M785.78,-490.54C767.91,-514.43 734.25,-555.46 697,-580.62 689.41,-585.75 680.78,-590.17 672.16,-593.89"/>
<polygon fill="#63b8ff" stroke="#63b8ff" points="788.46,-492.8 791.54,-482.67 782.81,-488.67 788.46,-492.8"/>
</a>
</g>
</g>
<!-- Node23 -->
<g id="Node000023" class="node">
<title>Node23</title>
<g id="a_Node000023"><a xlink:href="classjuce_1_1IPAddress.html#a0de6ca43dfcbd2c7ffea0141c14d5310" target="_top" xlink:title=" ">
<polygon fill="white" stroke="#666666" points="676,-197.25 567,-197.25 567,-178 676,-178 676,-197.25"/>
<text xml:space="preserve" text-anchor="middle" x="621.5" y="-183.75" font-family="Helvetica,sans-Serif" font-size="10.00">juce::IPAddress::local</text>
</a>
</g>
</g>
<!-- Node1&#45;&gt;Node23 -->
<g id="edge38_Node000001_Node000023" class="edge">
<title>Node1&#45;&gt;Node23</title>
<g id="a_edge38_Node000001_Node000023"><a xlink:title=" ">
<path fill="none" stroke="#63b8ff" d="M795.65,-450.25C786.8,-403.72 759.97,-292.06 697,-224.62 685.57,-212.38 669.2,-203.64 654.72,-197.73"/>
<polygon fill="#63b8ff" stroke="#63b8ff" points="792.2,-450.84 797.41,-460.06 799.09,-449.6 792.2,-450.84"/>
</a>
</g>
</g>
<!-- Node2&#45;&gt;Node2 -->
<g id="edge2_Node000002_Node000002" class="edge">
<title>Node2&#45;&gt;Node2</title>
<g id="a_edge2_Node000002_Node000002"><a xlink:title=" ">
<path fill="none" stroke="#63b8ff" d="M653.84,-897.98C650.45,-902.21 639.67,-905.25 621.5,-905.25 590.08,-905.25 580.75,-896.15 593.52,-887.54"/>
<polygon fill="#63b8ff" stroke="#63b8ff" points="657.15,-896.81 650.07,-888.93 650.69,-899.51 657.15,-896.81"/>
</a>
</g>
</g>
<!-- Node3&#45;&gt;Node3 -->
<g id="edge4_Node000003_Node000003" class="edge">
<title>Node3&#45;&gt;Node3</title>
<g id="a_edge4_Node000003_Node000003"><a xlink:title=" ">
<path fill="none" stroke="#63b8ff" d="M653.84,-842.98C650.45,-847.21 639.67,-850.25 621.5,-850.25 590.08,-850.25 580.75,-841.15 593.52,-832.54"/>
<polygon fill="#63b8ff" stroke="#63b8ff" points="657.15,-841.81 650.07,-833.93 650.69,-844.51 657.15,-841.81"/>
</a>
</g>
</g>
<!-- Node4&#45;&gt;Node4 -->
<g id="edge6_Node000004_Node000004" class="edge">
<title>Node4&#45;&gt;Node4</title>
<g id="a_edge6_Node000004_Node000004"><a xlink:title=" ">
<path fill="none" stroke="#63b8ff" d="M279.98,-571.98C276.57,-576.21 265.74,-579.25 247.5,-579.25 215.95,-579.25 206.58,-570.15 219.4,-561.54"/>
<polygon fill="#63b8ff" stroke="#63b8ff" points="283.28,-570.8 276.19,-562.93 276.83,-573.51 283.28,-570.8"/>
</a>
</g>
</g>
<!-- Node4&#45;&gt;Node5 -->
<g id="edge7_Node000004_Node000005" class="edge">
<title>Node4&#45;&gt;Node5</title>
<g id="a_edge7_Node000004_Node000005"><a xlink:title=" ">
<path fill="none" stroke="#63b8ff" d="M234.5,-571.18C215.32,-601.78 175.88,-662.3 136,-708.62 118.16,-729.35 94.47,-750.77 80.56,-762.83"/>
<polygon fill="#63b8ff" stroke="#63b8ff" points="237.3,-573.3 239.6,-562.96 231.35,-569.61 237.3,-573.3"/>
</a>
</g>
</g>
<!-- Node4&#45;&gt;Node6 -->
<g id="edge8_Node000004_Node000006" class="edge">
<title>Node4&#45;&gt;Node6</title>
<g id="a_edge8_Node000004_Node000006"><a xlink:title=" ">
<path fill="none" stroke="#63b8ff" d="M224.65,-568.62C187.12,-597.79 111.6,-656.51 81.65,-679.79"/>
<polygon fill="#63b8ff" stroke="#63b8ff" points="226.79,-571.38 232.54,-562.48 222.5,-565.85 226.79,-571.38"/>
</a>
</g>
</g>
<!-- Node4&#45;&gt;Node7 -->
<g id="edge9_Node000004_Node000007" class="edge">
<title>Node4&#45;&gt;Node7</title>
<g id="a_edge9_Node000004_Node000007"><a xlink:title=" ">
<path fill="none" stroke="#63b8ff" d="M172.62,-556.2C159.6,-557.01 146.15,-557.84 133.41,-558.63"/>
<polygon fill="#63b8ff" stroke="#63b8ff" points="172.65,-559.71 182.41,-555.6 172.21,-552.72 172.65,-559.71"/>
</a>
</g>
</g>
<!-- Node4&#45;&gt;Node8 -->
<g id="edge10_Node000004_Node000008" class="edge">
<title>Node4&#45;&gt;Node8</title>
<g id="a_edge10_Node000004_Node000008"><a xlink:title=" ">
<path fill="none" stroke="#63b8ff" d="M194.94,-538.84C167.86,-532.13 135.14,-524.02 109.84,-517.75"/>
<polygon fill="#63b8ff" stroke="#63b8ff" points="193.76,-542.16 204.31,-541.17 195.44,-535.36 193.76,-542.16"/>
</a>
</g>
</g>
<!-- Node4&#45;&gt;Node9 -->
<g id="edge11_Node000004_Node000009" class="edge">
<title>Node4&#45;&gt;Node9</title>
<g id="a_edge11_Node000004_Node000009"><a xlink:title=" ">
<path fill="none" stroke="#63b8ff" d="M220.78,-535.64C198.72,-522.26 165.86,-503.07 136,-488.62 123.24,-482.45 108.69,-476.47 96.42,-471.71"/>
<polygon fill="#63b8ff" stroke="#63b8ff" points="218.75,-538.5 229.11,-540.74 222.4,-532.53 218.75,-538.5"/>
</a>
</g>
</g>
<!-- Node4&#45;&gt;Node10 -->
<g id="edge12_Node000004_Node000010" class="edge">
<title>Node4&#45;&gt;Node10</title>
<g id="a_edge12_Node000004_Node000010"><a xlink:title=" ">
<path fill="none" stroke="#63b8ff" d="M232.03,-532.85C212.59,-508.81 175.86,-467.32 136,-442.62 127.43,-437.31 117.47,-433.05 107.9,-429.7"/>
<polygon fill="#63b8ff" stroke="#63b8ff" points="229.15,-534.85 238.1,-540.52 234.63,-530.5 229.15,-534.85"/>
</a>
</g>
</g>
<!-- Node4&#45;&gt;Node11 -->
<g id="edge13_Node000004_Node000011" class="edge">
<title>Node4&#45;&gt;Node11</title>
<g id="a_edge13_Node000004_Node000011"><a xlink:title=" ">
<path fill="none" stroke="#63b8ff" d="M237.43,-531.62C221.61,-499.06 185.86,-434.79 136,-400.62 131.33,-397.43 126.12,-394.79 120.72,-392.63"/>
<polygon fill="#63b8ff" stroke="#63b8ff" points="234.11,-532.79 241.54,-540.35 240.44,-529.81 234.11,-532.79"/>
</a>
</g>
</g>
<!-- Node12&#45;&gt;Node12 -->
<g id="edge15_Node000012_Node000012" class="edge">
<title>Node12&#45;&gt;Node12</title>
<g id="a_edge15_Node000012_Node000012"><a xlink:title=" ">
<path fill="none" stroke="#63b8ff" d="M651.48,-342.58C646.58,-346.35 636.58,-348.88 621.5,-348.88 593.92,-348.88 583.36,-340.43 589.83,-331.36"/>
<polygon fill="#63b8ff" stroke="#63b8ff" points="654.91,-343.27 652.95,-332.86 647.99,-342.22 654.91,-343.27"/>
</a>
</g>
</g>
<!-- Node13&#45;&gt;Node4 -->
<g id="edge17_Node000013_Node000004" class="edge">
<title>Node13&#45;&gt;Node4</title>
<g id="a_edge17_Node000013_Node000004"><a xlink:title=" ">
<path fill="none" stroke="#63b8ff" d="M378.98,-627.67C372.17,-624.81 365.37,-621.77 359,-618.62 323.18,-600.96 283.75,-575.47 263.05,-561.58"/>
<polygon fill="#63b8ff" stroke="#63b8ff" points="377.63,-630.9 388.21,-631.43 380.27,-624.42 377.63,-630.9"/>
</a>
</g>
</g>
<!-- Node13&#45;&gt;Node13 -->
<g id="edge18_Node000013_Node000013" class="edge">
<title>Node13&#45;&gt;Node13</title>
<g id="a_edge18_Node000013_Node000013"><a xlink:title=" ">
<path fill="none" stroke="#63b8ff" d="M465.86,-674.58C460.73,-678.35 450.28,-680.88 434.5,-680.88 405.65,-680.88 394.6,-672.43 401.36,-663.36"/>
<polygon fill="#63b8ff" stroke="#63b8ff" points="469.29,-675.28 467.4,-664.86 462.38,-674.19 469.29,-675.28"/>
</a>
</g>
</g>
<!-- Node14&#45;&gt;Node14 -->
<g id="edge20_Node000014_Node000014" class="edge">
<title>Node14&#45;&gt;Node14</title>
<g id="a_edge20_Node000014_Node000014"><a xlink:title=" ">
<path fill="none" stroke="#63b8ff" d="M651.48,-275.58C646.58,-279.35 636.58,-281.88 621.5,-281.88 593.92,-281.88 583.36,-273.43 589.83,-264.36"/>
<polygon fill="#63b8ff" stroke="#63b8ff" points="654.91,-276.27 652.95,-265.86 647.99,-275.22 654.91,-276.27"/>
</a>
</g>
</g>
<!-- Node15 -->
<g id="Node000015" class="node">
<title>Node15</title>
<g id="a_Node000015"><a xlink:href="structjuce_1_1NetworkServiceDiscovery_1_1Advertiser.html#a1a3077473c73fb7286a671d692c5f96c" target="_top" xlink:title=" ">
<polygon fill="white" stroke="#666666" points="510,-266.88 359,-266.88 359,-236.38 510,-236.38 510,-266.88"/>
<text xml:space="preserve" text-anchor="start" x="367" y="-253.38" font-family="Helvetica,sans-Serif" font-size="10.00">juce::NetworkServiceDiscovery</text>
<text xml:space="preserve" text-anchor="middle" x="434.5" y="-242.12" font-family="Helvetica,sans-Serif" font-size="10.00">::Advertiser::sendBroadcast</text>
</a>
</g>
</g>
<!-- Node14&#45;&gt;Node15 -->
<g id="edge21_Node000014_Node000015" class="edge">
<title>Node14&#45;&gt;Node15</title>
<g id="a_edge21_Node000014_Node000015"><a xlink:title=" ">
<path fill="none" stroke="#63b8ff" d="M539.54,-249.94C529.85,-250.1 519.98,-250.26 510.37,-250.41"/>
<polygon fill="#63b8ff" stroke="#63b8ff" points="539.37,-253.44 549.31,-249.78 539.25,-246.44 539.37,-253.44"/>
</a>
</g>
</g>
<!-- Node15&#45;&gt;Node15 -->
<g id="edge24_Node000015_Node000015" class="edge">
<title>Node15&#45;&gt;Node15</title>
<g id="a_edge24_Node000015_Node000015"><a xlink:title=" ">
<path fill="none" stroke="#63b8ff" d="M465.86,-278.58C460.73,-282.35 450.28,-284.88 434.5,-284.88 405.65,-284.88 394.6,-276.43 401.36,-267.36"/>
<polygon fill="#63b8ff" stroke="#63b8ff" points="469.29,-279.28 467.4,-268.86 462.38,-278.19 469.29,-279.28"/>
</a>
</g>
</g>
<!-- Node16 -->
<g id="Node000016" class="node">
<title>Node16</title>
<g id="a_Node000016"><a xlink:href="structjuce_1_1NetworkServiceDiscovery_1_1Advertiser.html#a33d6c28321e2e2e3d4d4976e3c631ef2" target="_top" xlink:title=" ">
<polygon fill="white" stroke="#666666" points="323,-266.88 172,-266.88 172,-236.38 323,-236.38 323,-266.88"/>
<text xml:space="preserve" text-anchor="start" x="180" y="-253.38" font-family="Helvetica,sans-Serif" font-size="10.00">juce::NetworkServiceDiscovery</text>
<text xml:space="preserve" text-anchor="middle" x="247.5" y="-242.12" font-family="Helvetica,sans-Serif" font-size="10.00">::Advertiser::run</text>
</a>
</g>
</g>
<!-- Node15&#45;&gt;Node16 -->
<g id="edge22_Node000015_Node000016" class="edge">
<title>Node15&#45;&gt;Node16</title>
<g id="a_edge22_Node000015_Node000016"><a xlink:title=" ">
<path fill="none" stroke="#63b8ff" d="M347.26,-251.62C339.25,-251.62 331.18,-251.62 323.29,-251.62"/>
<polygon fill="#63b8ff" stroke="#63b8ff" points="347.01,-255.13 357.01,-251.63 347.01,-248.13 347.01,-255.13"/>
</a>
</g>
</g>
<!-- Node16&#45;&gt;Node16 -->
<g id="edge23_Node000016_Node000016" class="edge">
<title>Node16&#45;&gt;Node16</title>
<g id="a_edge23_Node000016_Node000016"><a xlink:title=" ">
<path fill="none" stroke="#63b8ff" d="M277.6,-278.58C272.68,-282.35 262.65,-284.88 247.5,-284.88 219.8,-284.88 209.2,-276.43 215.69,-267.36"/>
<polygon fill="#63b8ff" stroke="#63b8ff" points="281.04,-279.27 279.08,-268.86 274.12,-278.22 281.04,-279.27"/>
</a>
</g>
</g>
<!-- Node17&#45;&gt;Node17 -->
<g id="edge26_Node000017_Node000017" class="edge">
<title>Node17&#45;&gt;Node17</title>
<g id="a_edge26_Node000017_Node000017"><a xlink:title=" ">
<path fill="none" stroke="#63b8ff" d="M651.48,-153.58C646.58,-157.35 636.58,-159.88 621.5,-159.88 593.92,-159.88 583.36,-151.43 589.83,-142.36"/>
<polygon fill="#63b8ff" stroke="#63b8ff" points="654.91,-154.27 652.95,-143.86 647.99,-153.22 654.91,-154.27"/>
</a>
</g>
</g>
<!-- Node22&#45;&gt;Node4 -->
<g id="edge34_Node000022_Node000004" class="edge">
<title>Node22&#45;&gt;Node4</title>
<g id="a_edge34_Node000022_Node000004"><a xlink:title=" ">
<path fill="none" stroke="#63b8ff" d="M534.15,-606.2C482.88,-603.05 416.8,-597.04 359,-585.62 329.86,-579.87 297.48,-569.4 275.35,-561.6"/>
<polygon fill="#63b8ff" stroke="#63b8ff" points="533.82,-609.68 544.01,-606.77 534.23,-602.69 533.82,-609.68"/>
</a>
</g>
</g>
<!-- Node22&#45;&gt;Node13 -->
<g id="edge35_Node000022_Node000013" class="edge">
<title>Node22&#45;&gt;Node13</title>
<g id="a_edge35_Node000022_Node000013"><a xlink:title=" ">
<path fill="none" stroke="#63b8ff" d="M534.5,-627.29C524.28,-629.39 513.95,-631.51 504.02,-633.55"/>
<polygon fill="#63b8ff" stroke="#63b8ff" points="534.95,-630.77 544.04,-625.33 533.54,-623.91 534.95,-630.77"/>
</a>
</g>
</g>
<!-- Node22&#45;&gt;Node18 -->
<g id="edge36_Node000022_Node000018" class="edge">
<title>Node22&#45;&gt;Node18</title>
<g id="a_edge36_Node000022_Node000018"><a xlink:title=" ">
<path fill="none" stroke="#63b8ff" d="M541.8,-591.33C520.29,-586.33 497.76,-581.1 479.01,-576.74"/>
<polygon fill="#63b8ff" stroke="#63b8ff" points="540.92,-594.72 551.45,-593.58 542.5,-587.9 540.92,-594.72"/>
</a>
</g>
</g>
<!-- Node22&#45;&gt;Node22 -->
<g id="edge37_Node000022_Node000022" class="edge">
<title>Node22&#45;&gt;Node22</title>
<g id="a_edge37_Node000022_Node000022"><a xlink:title=" ">
<path fill="none" stroke="#63b8ff" d="M651.48,-636.58C646.58,-640.35 636.58,-642.88 621.5,-642.88 593.92,-642.88 583.36,-634.43 589.83,-625.36"/>
<polygon fill="#63b8ff" stroke="#63b8ff" points="654.91,-637.27 652.95,-626.86 647.99,-636.22 654.91,-637.27"/>
</a>
</g>
</g>
<!-- Node23&#45;&gt;Node15 -->
<g id="edge48_Node000023_Node000015" class="edge">
<title>Node23&#45;&gt;Node15</title>
<g id="a_edge48_Node000023_Node000015"><a xlink:title=" ">
<path fill="none" stroke="#63b8ff" d="M581.56,-201.53C560.42,-209.04 533.81,-218.43 510,-226.62 501.1,-229.69 491.58,-232.92 482.43,-236"/>
<polygon fill="#63b8ff" stroke="#63b8ff" points="582.71,-204.84 590.96,-198.19 580.36,-198.25 582.71,-204.84"/>
</a>
</g>
</g>
<!-- Node23&#45;&gt;Node23 -->
<g id="edge47_Node000023_Node000023" class="edge">
<title>Node23&#45;&gt;Node23</title>
<g id="a_edge47_Node000023_Node000023"><a xlink:title=" ">
<path fill="none" stroke="#63b8ff" d="M653.84,-207.98C650.45,-212.21 639.67,-215.25 621.5,-215.25 590.08,-215.25 580.75,-206.15 593.52,-197.54"/>
<polygon fill="#63b8ff" stroke="#63b8ff" points="657.15,-206.81 650.07,-198.93 650.69,-209.51 657.15,-206.81"/>
</a>
</g>
</g>
<!-- Node24 -->
<g id="Node000024" class="node">
<title>Node24</title>
<g id="a_Node000024"><a xlink:href="namespacejuce_1_1SocketHelpers.html#acc0ed8d33072000cc4b627f9e2dd5f0b" target="_top" xlink:title=" ">
<polygon fill="white" stroke="#666666" points="486,-199.88 383,-199.88 383,-169.38 486,-169.38 486,-199.88"/>
<text xml:space="preserve" text-anchor="start" x="391" y="-186.38" font-family="Helvetica,sans-Serif" font-size="10.00">juce::SocketHelpers</text>
<text xml:space="preserve" text-anchor="middle" x="434.5" y="-175.12" font-family="Helvetica,sans-Serif" font-size="10.00">::closeSocket</text>
</a>
</g>
</g>
<!-- Node23&#45;&gt;Node24 -->
<g id="edge39_Node000023_Node000024" class="edge">
<title>Node23&#45;&gt;Node24</title>
<g id="a_edge39_Node000023_Node000024"><a xlink:title=" ">
<path fill="none" stroke="#63b8ff" d="M555.71,-186.57C532.97,-186.21 507.77,-185.8 486.35,-185.45"/>
<polygon fill="#63b8ff" stroke="#63b8ff" points="555.42,-190.07 565.48,-186.73 555.54,-183.07 555.42,-190.07"/>
</a>
</g>
</g>
<!-- Node30 -->
<g id="Node000030" class="node">
<title>Node30</title>
<g id="a_Node000030"><a xlink:href="classjuce_1_1InterprocessConnection.html#a3ebcc9ad9ba014c75b924e671f21fb08" target="_top" xlink:title=" ">
<polygon fill="white" stroke="#666666" points="505.12,-132.88 363.88,-132.88 363.88,-102.38 505.12,-102.38 505.12,-132.88"/>
<text xml:space="preserve" text-anchor="start" x="371.88" y="-119.38" font-family="Helvetica,sans-Serif" font-size="10.00">juce::InterprocessConnection</text>
<text xml:space="preserve" text-anchor="middle" x="434.5" y="-108.12" font-family="Helvetica,sans-Serif" font-size="10.00">::getConnectedHostName</text>
</a>
</g>
</g>
<!-- Node23&#45;&gt;Node30 -->
<g id="edge45_Node000023_Node000030" class="edge">
<title>Node23&#45;&gt;Node30</title>
<g id="a_edge45_Node000023_Node000030"><a xlink:title=" ">
<path fill="none" stroke="#63b8ff" d="M564.85,-174.63C558.44,-172.78 552.04,-170.77 546,-168.62 517.92,-158.66 487.25,-144.2 465.37,-133.22"/>
<polygon fill="#63b8ff" stroke="#63b8ff" points="563.56,-177.9 574.13,-177.18 565.41,-171.15 563.56,-177.9"/>
</a>
</g>
</g>
<!-- Node24&#45;&gt;Node24 -->
<g id="edge42_Node000024_Node000024" class="edge">
<title>Node24&#45;&gt;Node24</title>
<g id="a_edge42_Node000024_Node000024"><a xlink:title=" ">
<path fill="none" stroke="#63b8ff" d="M465.86,-211.58C460.73,-215.35 450.28,-217.88 434.5,-217.88 405.65,-217.88 394.6,-209.43 401.36,-200.36"/>
<polygon fill="#63b8ff" stroke="#63b8ff" points="469.29,-212.28 467.4,-201.86 462.38,-211.19 469.29,-212.28"/>
</a>
</g>
</g>
<!-- Node25 -->
<g id="Node000025" class="node">
<title>Node25</title>
<g id="a_Node000025"><a xlink:href="classjuce_1_1StreamingSocket.html#acd023c50fca5a6013a1f7edb81cbc24c" target="_top" xlink:title=" ">
<polygon fill="#fff0f0" stroke="red" points="304.25,-132.88 190.75,-132.88 190.75,-102.38 304.25,-102.38 304.25,-132.88"/>
<text xml:space="preserve" text-anchor="start" x="198.75" y="-119.38" font-family="Helvetica,sans-Serif" font-size="10.00">juce::StreamingSocket</text>
<text xml:space="preserve" text-anchor="middle" x="247.5" y="-108.12" font-family="Helvetica,sans-Serif" font-size="10.00">::close</text>
</a>
</g>
</g>
<!-- Node24&#45;&gt;Node25 -->
<g id="edge40_Node000024_Node000025" class="edge">
<title>Node24&#45;&gt;Node25</title>
<g id="a_edge40_Node000024_Node000025"><a xlink:title=" ">
<path fill="none" stroke="#63b8ff" d="M375.2,-165.31C369.71,-163.41 364.24,-161.5 359,-159.62 335.62,-151.26 309.65,-141.42 288.77,-133.37"/>
<polygon fill="#63b8ff" stroke="#63b8ff" points="373.68,-168.49 384.28,-168.41 375.95,-161.86 373.68,-168.49"/>
</a>
</g>
</g>
<!-- Node29 -->
<g id="Node000029" class="node">
<title>Node29</title>
<g id="a_Node000029"><a xlink:href="classjuce_1_1DatagramSocket.html#a00deab701e3ce98a6057b7ae005749f1" target="_top" xlink:title=" ">
<polygon fill="white" stroke="#666666" points="303.12,-199.88 191.88,-199.88 191.88,-169.38 303.12,-169.38 303.12,-199.88"/>
<text xml:space="preserve" text-anchor="start" x="199.88" y="-186.38" font-family="Helvetica,sans-Serif" font-size="10.00">juce::DatagramSocket</text>
<text xml:space="preserve" text-anchor="middle" x="247.5" y="-175.12" font-family="Helvetica,sans-Serif" font-size="10.00">::shutdown</text>
</a>
</g>
</g>
<!-- Node24&#45;&gt;Node29 -->
<g id="edge43_Node000024_Node000029" class="edge">
<title>Node24&#45;&gt;Node29</title>
<g id="a_edge43_Node000024_Node000029"><a xlink:title=" ">
<path fill="none" stroke="#63b8ff" d="M371.69,-184.62C349.64,-184.62 324.97,-184.62 303.54,-184.62"/>
<polygon fill="#63b8ff" stroke="#63b8ff" points="371.43,-188.13 381.43,-184.63 371.43,-181.13 371.43,-188.13"/>
</a>
</g>
</g>
<!-- Node25&#45;&gt;Node25 -->
<g id="edge41_Node000025_Node000025" class="edge">
<title>Node25&#45;&gt;Node25</title>
<g id="a_edge41_Node000025_Node000025"><a xlink:title=" ">
<path fill="none" stroke="#63b8ff" d="M277.6,-144.58C272.68,-148.35 262.65,-150.88 247.5,-150.88 219.8,-150.88 209.2,-142.43 215.69,-133.36"/>
<polygon fill="#63b8ff" stroke="#63b8ff" points="281.04,-145.27 279.08,-134.86 274.12,-144.22 281.04,-145.27"/>
</a>
</g>
</g>
<!-- Node29&#45;&gt;Node29 -->
<g id="edge44_Node000029_Node000029" class="edge">
<title>Node29&#45;&gt;Node29</title>
<g id="a_edge44_Node000029_Node000029"><a xlink:title=" ">
<path fill="none" stroke="#63b8ff" d="M277.6,-211.58C272.68,-215.35 262.65,-217.88 247.5,-217.88 219.8,-217.88 209.2,-209.43 215.69,-200.36"/>
<polygon fill="#63b8ff" stroke="#63b8ff" points="281.04,-212.27 279.08,-201.86 274.12,-211.22 281.04,-212.27"/>
</a>
</g>
</g>
<!-- Node30&#45;&gt;Node30 -->
<g id="edge46_Node000030_Node000030" class="edge">
<title>Node30&#45;&gt;Node30</title>
<g id="a_edge46_Node000030_Node000030"><a xlink:title=" ">
<path fill="none" stroke="#63b8ff" d="M465.86,-144.58C460.73,-148.35 450.28,-150.88 434.5,-150.88 405.65,-150.88 394.6,-142.43 401.36,-133.36"/>
<polygon fill="#63b8ff" stroke="#63b8ff" points="469.29,-145.28 467.4,-134.86 462.38,-144.19 469.29,-145.28"/>
</a>
</g>
</g>
</g>
</svg>

<g id="navigator" transform="translate(0 0)" fill="#404254">
  <rect fill="#f2f5e9" fill-opacity="0.5" stroke="#606060" stroke-width=".5" x="0" y="0" width="60" height="60"/>
  <use id="zoomplus" xlink:href="#zoomPlus" x="17" y="9" onmousedown="handleZoom(evt,'in')"/>
  <use id="zoomminus" xlink:href="#zoomMin" x="42" y="9" onmousedown="handleZoom(evt,'out')"/>
  <use id="reset" xlink:href="#resetDef" x="30" y="36" onmousedown="handleReset()"/>
   <use id="arrowup" xlink:href="#arrowUp" x="0" y="0" onmousedown="handlePan(0,-1)"/>
  <use id="arrowright" xlink:href="#arrowRight" x="0" y="0" onmousedown="handlePan(1,0)"/>
  <use id="arrowdown" xlink:href="#arrowDown" x="0" y="0" onmousedown="handlePan(0,1)"/>
  <use id="arrowleft" xlink:href="#arrowLeft" x="0" y="0" onmousedown="handlePan(-1,0)"/>
</g>
<svg viewBox="0 0 15 15" width="100%" height="30px" preserveAspectRatio="xMaxYMin meet">
 <g id="arrow_out" transform="scale(0.3 0.3)">
  <a xlink:href="classjuce_1_1IPAddress_ae8edfc9158f5ae86b0e2b9e2f792254c_icgraph_org.svg" target="_base">
   <rect id="button" ry="5" rx="5" y="6" x="6" height="38" width="38"
        fill="#f2f5e9" fill-opacity="0.5" stroke="#606060" stroke-width="1.0"/>
   <path id="arrow"
     d="M 11.500037,31.436501 C 11.940474,20.09759 22.043105,11.32322 32.158766,21.979434 L 37.068811,17.246167 C 37.068811,17.246167 37.088388,32 37.088388,32 L 22.160133,31.978069 C 22.160133,31.978069 26.997745,27.140456 26.997745,27.140456 C 18.528582,18.264221 13.291696,25.230495 11.500037,31.436501 z"
     style="fill:#404040;"/>
  </a>
 </g>
</svg>

<style type='text/css'>
<![CDATA[
[data-mouse-over-selected='false'] { opacity: 0.7; }
[data-mouse-over-selected='true']  { opacity: 1.0; }
]]>
</style>
<script type="application/ecmascript"><![CDATA[
document.addEventListener('DOMContentLoaded', (event) => {
  highlightEdges();
  highlightAdjacentNodes();
});
]]></script>
</svg>
