<?xml version="1.0" encoding="UTF-8" standalone="no"?>
<!DOCTYPE svg PUBLIC "-//W3C//DTD SVG 1.1//EN"
 "http://www.w3.org/Graphics/SVG/1.1/DTD/svg11.dtd">
<!-- Generated by graphviz version 14.0.2 (0)
 -->
<!-- Title: lmms::AutomatableModel::linkModels Pages: 1 -->
<svg width="665pt" height="302pt"
 viewBox="0.00 0.00 665.00 302.00" xmlns="http://www.w3.org/2000/svg" xmlns:xlink="http://www.w3.org/1999/xlink">
<g id="graph0" class="graph" transform="scale(1 1) rotate(0) translate(4 297.5)">
<title>lmms::AutomatableModel::linkModels</title>
<!-- Node1 -->
<g id="Node000001" class="node">
<title>Node1</title>
<g id="a_Node000001"><a xlink:title="link m1 and m2, let m1 take the values of m2">
<polygon fill="#999999" stroke="#666666" points="657.25,-79.5 531.75,-79.5 531.75,-49 657.25,-49 657.25,-79.5"/>
<text xml:space="preserve" text-anchor="start" x="539.75" y="-66" font-family="Helvetica,sans-Serif" font-size="10.00">lmms::AutomatableModel</text>
<text xml:space="preserve" text-anchor="middle" x="594.5" y="-54.75" font-family="Helvetica,sans-Serif" font-size="10.00">::linkModels</text>
</a>
</g>
</g>
<!-- Node2 -->
<g id="Node000002" class="node">
<title>Node2</title>
<g id="a_Node000002"><a xlink:href="classlmms_1_1gui_1_1FloatModelEditorBase.html#ad57e0e0c2bfd1289c10ff32b352d7237" target="_top" xlink:title=" ">
<polygon fill="white" stroke="#666666" points="495.75,-146.5 361.25,-146.5 361.25,-116 495.75,-116 495.75,-146.5"/>
<text xml:space="preserve" text-anchor="start" x="369.25" y="-133" font-family="Helvetica,sans-Serif" font-size="10.00">lmms::gui::FloatModelEditor</text>
<text xml:space="preserve" text-anchor="middle" x="428.5" y="-121.75" font-family="Helvetica,sans-Serif" font-size="10.00">Base::dropEvent</text>
</a>
</g>
</g>
<!-- Node1&#45;&gt;Node2 -->
<g id="edge1_Node000001_Node000002" class="edge">
<title>Node1&#45;&gt;Node2</title>
<g id="a_edge1_Node000001_Node000002"><a xlink:title=" ">
<path fill="none" stroke="#63b8ff" d="M547.56,-84.49C531.27,-91.54 512.75,-99.39 495.75,-106.25 488.11,-109.33 479.93,-112.51 472.02,-115.53"/>
<polygon fill="#63b8ff" stroke="#63b8ff" points="548.75,-87.79 556.52,-80.6 545.96,-81.37 548.75,-87.79"/>
</a>
</g>
</g>
<!-- Node22 -->
<g id="Node000022" class="node">
<title>Node22</title>
<g id="a_Node000022"><a xlink:href="classlmms_1_1LadspaControl.html#a13ad53ee5d6cb48cf5fe3b29c191cb8b" target="_top" xlink:title=" ">
<polygon fill="white" stroke="#666666" points="482.25,-79.5 374.75,-79.5 374.75,-49 482.25,-49 482.25,-79.5"/>
<text xml:space="preserve" text-anchor="start" x="382.75" y="-66" font-family="Helvetica,sans-Serif" font-size="10.00">lmms::LadspaControl</text>
<text xml:space="preserve" text-anchor="middle" x="428.5" y="-54.75" font-family="Helvetica,sans-Serif" font-size="10.00">::linkControls</text>
</a>
</g>
</g>
<!-- Node1&#45;&gt;Node22 -->
<g id="edge11_Node000001_Node000022" class="edge">
<title>Node1&#45;&gt;Node22</title>
<g id="a_edge11_Node000001_Node000022"><a xlink:title=" ">
<path fill="none" stroke="#63b8ff" d="M520.06,-64.25C507.49,-64.25 494.65,-64.25 482.74,-64.25"/>
<polygon fill="#63b8ff" stroke="#63b8ff" points="519.99,-67.75 529.99,-64.25 519.99,-60.75 519.99,-67.75"/>
</a>
</g>
</g>
<!-- Node24 -->
<g id="Node000024" class="node">
<title>Node24</title>
<g id="a_Node000024"><a xlink:href="classlmms_1_1LinkedModelGroup.html#a81c995e5653842f6ce353a68f3ae894c" target="_top" xlink:title=" ">
<polygon fill="white" stroke="#666666" points="491.62,-30.5 365.38,-30.5 365.38,0 491.62,0 491.62,-30.5"/>
<text xml:space="preserve" text-anchor="start" x="373.38" y="-17" font-family="Helvetica,sans-Serif" font-size="10.00">lmms::LinkedModelGroup</text>
<text xml:space="preserve" text-anchor="middle" x="428.5" y="-5.75" font-family="Helvetica,sans-Serif" font-size="10.00">::linkControls</text>
</a>
</g>
</g>
<!-- Node1&#45;&gt;Node24 -->
<g id="edge14_Node000001_Node000024" class="edge">
<title>Node1&#45;&gt;Node24</title>
<g id="a_edge14_Node000001_Node000024"><a xlink:title=" ">
<path fill="none" stroke="#63b8ff" d="M530.34,-45.38C514.43,-40.63 497.52,-35.57 482.19,-30.99"/>
<polygon fill="#63b8ff" stroke="#63b8ff" points="529.12,-48.67 539.71,-48.18 531.13,-41.96 529.12,-48.67"/>
</a>
</g>
</g>
<!-- Node3 -->
<g id="Node000003" class="node">
<title>Node3</title>
<g id="a_Node000003"><a xlink:href="classlmms_1_1gui_1_1FloatModelEditorBase.html#acaad408e2de4d3389e731e9ed252626f" target="_top" xlink:title=" ">
<polygon fill="white" stroke="#666666" points="325.25,-146.5 190.75,-146.5 190.75,-116 325.25,-116 325.25,-146.5"/>
<text xml:space="preserve" text-anchor="start" x="198.75" y="-133" font-family="Helvetica,sans-Serif" font-size="10.00">lmms::gui::FloatModelEditor</text>
<text xml:space="preserve" text-anchor="middle" x="258" y="-121.75" font-family="Helvetica,sans-Serif" font-size="10.00">Base::sliderMoved</text>
</a>
</g>
</g>
<!-- Node2&#45;&gt;Node3 -->
<g id="edge2_Node000002_Node000003" class="edge">
<title>Node2&#45;&gt;Node3</title>
<g id="a_edge2_Node000002_Node000003"><a xlink:title=" ">
<path fill="none" stroke="#63b8ff" d="M349.65,-131.25C341.64,-131.25 333.54,-131.25 325.66,-131.25"/>
<polygon fill="#63b8ff" stroke="#63b8ff" points="349.39,-134.75 359.39,-131.25 349.39,-127.75 349.39,-134.75"/>
</a>
</g>
</g>
<!-- Node4 -->
<g id="Node000004" class="node">
<title>Node4</title>
<g id="a_Node000004"><a xlink:href="classlmms_1_1gui_1_1TempoSyncBarModelEditor.html#a9119000ecaba7ebdfd2c9f7d0d625af6" target="_top" xlink:title=" ">
<polygon fill="#fff0f0" stroke="red" points="154.75,-293.5 0,-293.5 0,-263 154.75,-263 154.75,-293.5"/>
<text xml:space="preserve" text-anchor="start" x="8" y="-280" font-family="Helvetica,sans-Serif" font-size="10.00">lmms::gui::TempoSyncBarModel</text>
<text xml:space="preserve" text-anchor="middle" x="77.38" y="-268.75" font-family="Helvetica,sans-Serif" font-size="10.00">Editor::modelChanged</text>
</a>
</g>
</g>
<!-- Node3&#45;&gt;Node4 -->
<g id="edge3_Node000003_Node000004" class="edge">
<title>Node3&#45;&gt;Node4</title>
<g id="a_edge3_Node000003_Node000004"><a xlink:title=" ">
<path fill="none" stroke="#63b8ff" d="M242,-156.44C224.39,-183.97 192.71,-227.57 154.75,-253.25 149.43,-256.85 143.56,-259.96 137.51,-262.64"/>
<polygon fill="#63b8ff" stroke="#63b8ff" points="244.93,-158.37 247.25,-148.03 238.99,-154.67 244.93,-158.37"/>
</a>
</g>
</g>
<!-- Node6 -->
<g id="Node000006" class="node">
<title>Node6</title>
<g id="a_Node000006"><a xlink:href="classlmms_1_1gui_1_1TempoSyncKnob.html#a23ed79ef085fdc8806705bdc45ca2fee" target="_top" xlink:title=" ">
<polygon fill="white" stroke="#666666" points="145.38,-244.5 9.38,-244.5 9.38,-214 145.38,-214 145.38,-244.5"/>
<text xml:space="preserve" text-anchor="start" x="17.38" y="-231" font-family="Helvetica,sans-Serif" font-size="10.00">lmms::gui::TempoSyncKnob</text>
<text xml:space="preserve" text-anchor="middle" x="77.38" y="-219.75" font-family="Helvetica,sans-Serif" font-size="10.00">::modelChanged</text>
</a>
</g>
</g>
<!-- Node3&#45;&gt;Node6 -->
<g id="edge4_Node000003_Node000006" class="edge">
<title>Node3&#45;&gt;Node6</title>
<g id="a_edge4_Node000003_Node000006"><a xlink:title=" ">
<path fill="none" stroke="#63b8ff" d="M230.13,-153.9C210.31,-169.72 182.14,-190.4 154.75,-204.25 147.9,-207.71 140.47,-210.84 133.02,-213.62"/>
<polygon fill="#63b8ff" stroke="#63b8ff" points="232.15,-156.77 237.71,-147.75 227.74,-151.34 232.15,-156.77"/>
</a>
</g>
</g>
<!-- Node7 -->
<g id="Node000007" class="node">
<title>Node7</title>
<g id="a_Node000007"><a xlink:href="classlmms_1_1gui_1_1Draggable.html#ae79d9fcd6491e9b23860665efd714470" target="_top" xlink:title=" ">
<polygon fill="white" stroke="#666666" points="130,-195.5 24.75,-195.5 24.75,-165 130,-165 130,-195.5"/>
<text xml:space="preserve" text-anchor="start" x="32.75" y="-182" font-family="Helvetica,sans-Serif" font-size="10.00">lmms::gui::Draggable</text>
<text xml:space="preserve" text-anchor="middle" x="77.38" y="-170.75" font-family="Helvetica,sans-Serif" font-size="10.00">::mouseMoveEvent</text>
</a>
</g>
</g>
<!-- Node3&#45;&gt;Node7 -->
<g id="edge5_Node000003_Node000007" class="edge">
<title>Node3&#45;&gt;Node7</title>
<g id="a_edge5_Node000003_Node000007"><a xlink:title=" ">
<path fill="none" stroke="#63b8ff" d="M189.03,-149.89C169.56,-155.24 148.65,-160.97 130.31,-166"/>
<polygon fill="#63b8ff" stroke="#63b8ff" points="189.81,-153.31 198.53,-147.29 187.96,-146.56 189.81,-153.31"/>
</a>
</g>
</g>
<!-- Node8 -->
<g id="Node000008" class="node">
<title>Node8</title>
<g id="a_Node000008"><a xlink:href="classlmms_1_1gui_1_1FloatModelEditorBase.html#ac2eb4e42abbe376fdff1baf709f7a532" target="_top" xlink:title=" ">
<polygon fill="white" stroke="#666666" points="144.62,-146.5 10.12,-146.5 10.12,-116 144.62,-116 144.62,-146.5"/>
<text xml:space="preserve" text-anchor="start" x="18.12" y="-133" font-family="Helvetica,sans-Serif" font-size="10.00">lmms::gui::FloatModelEditor</text>
<text xml:space="preserve" text-anchor="middle" x="77.38" y="-121.75" font-family="Helvetica,sans-Serif" font-size="10.00">Base::mouseMoveEvent</text>
</a>
</g>
</g>
<!-- Node3&#45;&gt;Node8 -->
<g id="edge6_Node000003_Node000008" class="edge">
<title>Node3&#45;&gt;Node8</title>
<g id="a_edge6_Node000003_Node000008"><a xlink:title=" ">
<path fill="none" stroke="#63b8ff" d="M179.19,-124.55C167.77,-124.45 156.1,-124.5 144.94,-124.7"/>
<polygon fill="#63b8ff" stroke="#63b8ff" points="178.93,-128.05 188.97,-124.68 179.02,-121.05 178.93,-128.05"/>
</a>
</g>
</g>
<!-- Node9 -->
<g id="Node000009" class="node">
<title>Node9</title>
<g id="a_Node000009"><a xlink:href="classlmms_1_1gui_1_1AudioFileProcessorWaveView_1_1knob.html#a3df09d0ba36e57d1e0ab42c0b7998daf" target="_top" xlink:title=" ">
<polygon fill="#fff0f0" stroke="red" points="150.62,-97.5 4.12,-97.5 4.12,-67 150.62,-67 150.62,-97.5"/>
<text xml:space="preserve" text-anchor="start" x="12.12" y="-84" font-family="Helvetica,sans-Serif" font-size="10.00">lmms::gui::AudioFileProcessor</text>
<text xml:space="preserve" text-anchor="middle" x="77.38" y="-72.75" font-family="Helvetica,sans-Serif" font-size="10.00">WaveView::knob::slideTo</text>
</a>
</g>
</g>
<!-- Node3&#45;&gt;Node9 -->
<g id="edge8_Node000003_Node000009" class="edge">
<title>Node3&#45;&gt;Node9</title>
<g id="a_edge8_Node000003_Node000009"><a xlink:title=" ">
<path fill="none" stroke="#63b8ff" d="M189.2,-112.65C171.59,-107.82 152.78,-102.66 135.76,-97.99"/>
<polygon fill="#63b8ff" stroke="#63b8ff" points="187.96,-115.94 198.53,-115.21 189.81,-109.19 187.96,-115.94"/>
</a>
</g>
</g>
<!-- Node21 -->
<g id="Node000021" class="node">
<title>Node21</title>
<g id="a_Node000021"><a xlink:href="classlmms_1_1gui_1_1FloatModelEditorBase.html#a697f842e73f3799ccf6ec38b3439b2f0" target="_top" xlink:title=" ">
<polygon fill="white" stroke="#666666" points="144.62,-48.5 10.12,-48.5 10.12,-18 144.62,-18 144.62,-48.5"/>
<text xml:space="preserve" text-anchor="start" x="18.12" y="-35" font-family="Helvetica,sans-Serif" font-size="10.00">lmms::gui::FloatModelEditor</text>
<text xml:space="preserve" text-anchor="middle" x="77.38" y="-23.75" font-family="Helvetica,sans-Serif" font-size="10.00">Base::wheelEvent</text>
</a>
</g>
</g>
<!-- Node3&#45;&gt;Node21 -->
<g id="edge9_Node000003_Node000021" class="edge">
<title>Node3&#45;&gt;Node21</title>
<g id="a_edge9_Node000003_Node000021"><a xlink:title=" ">
<path fill="none" stroke="#63b8ff" d="M233.34,-108.88C220.49,-99.8 204.47,-89.36 190.75,-79.25 173.99,-66.89 172.97,-59.34 154.75,-49.25 151.58,-47.49 148.26,-45.84 144.86,-44.28"/>
<polygon fill="#63b8ff" stroke="#63b8ff" points="231.09,-111.57 241.23,-114.65 235.22,-105.92 231.09,-111.57"/>
</a>
</g>
</g>
<!-- Node8&#45;&gt;Node3 -->
<g id="edge7_Node000008_Node000003" class="edge">
<title>Node8&#45;&gt;Node3</title>
<g id="a_edge7_Node000008_Node000003"><a xlink:title=" ">
<path fill="none" stroke="#63b8ff" d="M156.25,-137.95C167.66,-138.05 179.33,-138 190.49,-137.8"/>
<polygon fill="#63b8ff" stroke="#63b8ff" points="156.5,-134.45 146.46,-137.82 156.41,-141.45 156.5,-134.45"/>
</a>
</g>
</g>
<!-- Node21&#45;&gt;Node3 -->
<g id="edge10_Node000021_Node000003" class="edge">
<title>Node21&#45;&gt;Node3</title>
<g id="a_edge10_Node000021_Node000003"><a xlink:title=" ">
<path fill="none" stroke="#63b8ff" d="M120.64,-52.6C132.08,-56.67 144.2,-61.41 154.75,-67.25 172.97,-77.34 173.99,-84.89 190.75,-97.25 199.25,-103.51 208.63,-109.9 217.59,-115.52"/>
<polygon fill="#63b8ff" stroke="#63b8ff" points="121.98,-49.36 111.39,-49.38 119.69,-55.97 121.98,-49.36"/>
</a>
</g>
</g>
<!-- Node22&#45;&gt;Node22 -->
<g id="edge12_Node000022_Node000022" class="edge">
<title>Node22&#45;&gt;Node22</title>
<g id="a_edge12_Node000022_Node000022"><a xlink:title=" ">
<path fill="none" stroke="#63b8ff" d="M456.34,-91.2C451.79,-94.97 442.51,-97.5 428.5,-97.5 402.89,-97.5 393.08,-89.06 399.08,-79.99"/>
<polygon fill="#63b8ff" stroke="#63b8ff" points="459.78,-91.87 457.7,-81.48 452.85,-90.9 459.78,-91.87"/>
</a>
</g>
</g>
<!-- Node23 -->
<g id="Node000023" class="node">
<title>Node23</title>
<g id="a_Node000023"><a xlink:href="classlmms_1_1LadspaControl.html#ae818987179a087a7026e46e9b6bb7a77" target="_top" xlink:title=" ">
<polygon fill="white" stroke="#666666" points="311.75,-79.5 204.25,-79.5 204.25,-49 311.75,-49 311.75,-79.5"/>
<text xml:space="preserve" text-anchor="start" x="212.25" y="-66" font-family="Helvetica,sans-Serif" font-size="10.00">lmms::LadspaControl</text>
<text xml:space="preserve" text-anchor="middle" x="258" y="-54.75" font-family="Helvetica,sans-Serif" font-size="10.00">::~LadspaControl</text>
</a>
</g>
</g>
<!-- Node22&#45;&gt;Node23 -->
<g id="edge13_Node000022_Node000023" class="edge">
<title>Node22&#45;&gt;Node23</title>
<g id="a_edge13_Node000022_Node000023"><a xlink:title=" ">
<path fill="none" stroke="#63b8ff" d="M363.21,-64.25C346.38,-64.25 328.43,-64.25 312.24,-64.25"/>
<polygon fill="#63b8ff" stroke="#63b8ff" points="363.13,-67.75 373.13,-64.25 363.13,-60.75 363.13,-67.75"/>
</a>
</g>
</g>
</g>
</svg>
