<?xml version="1.0" encoding="UTF-8" standalone="no"?>
<!DOCTYPE svg PUBLIC "-//W3C//DTD SVG 1.1//EN"
 "http://www.w3.org/Graphics/SVG/1.1/DTD/svg11.dtd">
<!-- Generated by graphviz version 14.0.2 (0)
 -->
<!-- Title: lmms::gui::LOMMControlDialog::mousePressEvent Pages: 1 -->
<svg width="1007pt" height="244pt"
 viewBox="0.00 0.00 1007.00 244.00" xmlns="http://www.w3.org/2000/svg" xmlns:xlink="http://www.w3.org/1999/xlink">
<g id="graph0" class="graph" transform="scale(1 1) rotate(0) translate(4 239.6)">
<title>lmms::gui::LOMMControlDialog::mousePressEvent</title>
<!-- Node1 -->
<g id="Node000001" class="node">
<title>Node1</title>
<g id="a_Node000001"><a xlink:title=" ">
<polygon fill="#999999" stroke="#666666" points="149.5,-181.97 0,-181.97 0,-151.47 149.5,-151.47 149.5,-181.97"/>
<text xml:space="preserve" text-anchor="start" x="8" y="-168.47" font-family="Helvetica,sans-Serif" font-size="10.00">lmms::gui::LOMMControlDialog</text>
<text xml:space="preserve" text-anchor="middle" x="74.75" y="-157.22" font-family="Helvetica,sans-Serif" font-size="10.00">::mousePressEvent</text>
</a>
</g>
</g>
<!-- Node2 -->
<g id="Node000002" class="node">
<title>Node2</title>
<g id="a_Node000002"><a xlink:href="classlmms_1_1gui_1_1LOMMControlDialog.html#a40965d73976be12aa9ddf3291ab3c0c0" target="_top" xlink:title=" ">
<polygon fill="white" stroke="#666666" points="335,-206.97 185.5,-206.97 185.5,-176.47 335,-176.47 335,-206.97"/>
<text xml:space="preserve" text-anchor="start" x="193.5" y="-193.47" font-family="Helvetica,sans-Serif" font-size="10.00">lmms::gui::LOMMControlDialog</text>
<text xml:space="preserve" text-anchor="middle" x="260.25" y="-182.22" font-family="Helvetica,sans-Serif" font-size="10.00">::dbfsToX</text>
</a>
</g>
</g>
<!-- Node1&#45;&gt;Node2 -->
<g id="edge1_Node000001_Node000002" class="edge">
<title>Node1&#45;&gt;Node2</title>
<g id="a_edge1_Node000001_Node000002"><a xlink:title=" ">
<path fill="none" stroke="#63b8ff" d="M149.86,-176.81C157.77,-177.89 165.86,-178.99 173.89,-180.09"/>
<polygon fill="#63b8ff" stroke="#63b8ff" points="173.28,-183.54 183.66,-181.42 174.23,-176.6 173.28,-183.54"/>
</a>
</g>
</g>
<!-- Node3 -->
<g id="Node000003" class="node">
<title>Node3</title>
<g id="a_Node000003"><a xlink:href="classlmms_1_1AutomatableModel.html#af9c9c4bf433e45b10ea51ce7fc6eeb3b" target="_top" xlink:title=" ">
<polygon fill="white" stroke="#666666" points="323,-157.97 197.5,-157.97 197.5,-127.47 323,-127.47 323,-157.97"/>
<text xml:space="preserve" text-anchor="start" x="205.5" y="-144.47" font-family="Helvetica,sans-Serif" font-size="10.00">lmms::AutomatableModel</text>
<text xml:space="preserve" text-anchor="middle" x="260.25" y="-133.22" font-family="Helvetica,sans-Serif" font-size="10.00">::reset</text>
</a>
</g>
</g>
<!-- Node1&#45;&gt;Node3 -->
<g id="edge2_Node000001_Node000003" class="edge">
<title>Node1&#45;&gt;Node3</title>
<g id="a_edge2_Node000001_Node000003"><a xlink:title=" ">
<path fill="none" stroke="#63b8ff" d="M149.86,-157.03C161.77,-155.47 174.09,-153.86 185.98,-152.3"/>
<polygon fill="#63b8ff" stroke="#63b8ff" points="186.26,-155.79 195.72,-151.03 185.35,-148.85 186.26,-155.79"/>
</a>
</g>
</g>
<!-- Node4 -->
<g id="Node000004" class="node">
<title>Node4</title>
<g id="a_Node000004"><a xlink:href="classlmms_1_1AutomatableModel.html#a183f055e378837915d65a818f70cb344" target="_top" xlink:title=" ">
<polygon fill="white" stroke="#666666" points="496.5,-219.97 371,-219.97 371,-189.47 496.5,-189.47 496.5,-219.97"/>
<text xml:space="preserve" text-anchor="start" x="379" y="-206.47" font-family="Helvetica,sans-Serif" font-size="10.00">lmms::AutomatableModel</text>
<text xml:space="preserve" text-anchor="middle" x="433.75" y="-195.22" font-family="Helvetica,sans-Serif" font-size="10.00">::initValue</text>
</a>
</g>
</g>
<!-- Node3&#45;&gt;Node4 -->
<g id="edge3_Node000003_Node000004" class="edge">
<title>Node3&#45;&gt;Node4</title>
<g id="a_edge3_Node000003_Node000004"><a xlink:title=" ">
<path fill="none" stroke="#63b8ff" d="M308.15,-158.34C317.09,-161.4 326.35,-164.61 335,-167.72 350.26,-173.19 366.77,-179.35 381.8,-185.05"/>
<polygon fill="#63b8ff" stroke="#63b8ff" points="380.44,-188.27 391.03,-188.56 382.93,-181.73 380.44,-188.27"/>
</a>
</g>
</g>
<!-- Node6 -->
<g id="Node000006" class="node">
<title>Node6</title>
<g id="a_Node000006"><a xlink:href="classlmms_1_1AutomatableModel.html#ad812a45d139b9b3471a915b3f0688929" target="_top" xlink:title=" ">
<polygon fill="white" stroke="#666666" points="496.5,-133.97 371,-133.97 371,-103.47 496.5,-103.47 496.5,-133.97"/>
<text xml:space="preserve" text-anchor="start" x="379" y="-120.47" font-family="Helvetica,sans-Serif" font-size="10.00">lmms::AutomatableModel</text>
<text xml:space="preserve" text-anchor="middle" x="433.75" y="-109.22" font-family="Helvetica,sans-Serif" font-size="10.00">::setValue</text>
</a>
</g>
</g>
<!-- Node3&#45;&gt;Node6 -->
<g id="edge5_Node000003_Node000006" class="edge">
<title>Node3&#45;&gt;Node6</title>
<g id="a_edge5_Node000003_Node000006"><a xlink:title=" ">
<path fill="none" stroke="#63b8ff" d="M323.17,-134.05C334.87,-132.42 347.22,-130.69 359.24,-129"/>
<polygon fill="#63b8ff" stroke="#63b8ff" points="359.72,-132.47 369.14,-127.62 358.75,-125.54 359.72,-132.47"/>
</a>
</g>
</g>
<!-- Node5 -->
<g id="Node000005" class="node">
<title>Node5</title>
<g id="a_Node000005"><a xlink:href="classlmms_1_1AutomatableModel.html#a2d0ab04d1824131ff47fd748ff8c812f" target="_top" xlink:title=" ">
<polygon fill="white" stroke="#666666" points="999,-155.97 873.5,-155.97 873.5,-125.47 999,-125.47 999,-155.97"/>
<text xml:space="preserve" text-anchor="start" x="881.5" y="-142.47" font-family="Helvetica,sans-Serif" font-size="10.00">lmms::AutomatableModel</text>
<text xml:space="preserve" text-anchor="middle" x="936.25" y="-131.22" font-family="Helvetica,sans-Serif" font-size="10.00">::castValue</text>
</a>
</g>
</g>
<!-- Node4&#45;&gt;Node5 -->
<g id="edge4_Node000004_Node000005" class="edge">
<title>Node4&#45;&gt;Node5</title>
<g id="a_edge4_Node000004_Node000005"><a xlink:title=" ">
<path fill="none" stroke="#63b8ff" d="M496.8,-218.63C508.6,-220.75 520.88,-222.6 532.5,-223.72 667.78,-236.74 709.68,-247.89 837.5,-201.72 862.65,-192.63 888.19,-176.4 906.86,-162.96"/>
<polygon fill="#63b8ff" stroke="#63b8ff" points="908.77,-165.9 914.74,-157.14 904.61,-160.27 908.77,-165.9"/>
</a>
</g>
</g>
<!-- Node7 -->
<g id="Node000007" class="node">
<title>Node7</title>
<g id="a_Node000007"><a xlink:href="classlmms_1_1JournallingObject.html#a62e07ac956ab880eac1ac93c9fcda862" target="_top" xlink:title=" ">
<polygon fill="#fff0f0" stroke="red" points="664,-214.97 544.5,-214.97 544.5,-184.47 664,-184.47 664,-214.97"/>
<text xml:space="preserve" text-anchor="start" x="552.5" y="-201.47" font-family="Helvetica,sans-Serif" font-size="10.00">lmms::JournallingObject</text>
<text xml:space="preserve" text-anchor="middle" x="604.25" y="-190.22" font-family="Helvetica,sans-Serif" font-size="10.00">::addJournalCheckPoint</text>
</a>
</g>
</g>
<!-- Node6&#45;&gt;Node7 -->
<g id="edge6_Node000006_Node000007" class="edge">
<title>Node6&#45;&gt;Node7</title>
<g id="a_edge6_Node000006_Node000007"><a xlink:title=" ">
<path fill="none" stroke="#63b8ff" d="M462.18,-134.26C481.57,-145.01 508.31,-159.36 532.5,-170.72 538.89,-173.72 545.67,-176.72 552.42,-179.6"/>
<polygon fill="#63b8ff" stroke="#63b8ff" points="550.94,-182.78 561.52,-183.41 553.65,-176.32 550.94,-182.78"/>
</a>
</g>
</g>
<!-- Node13 -->
<g id="Node000013" class="node">
<title>Node13</title>
<g id="a_Node000013"><a xlink:href="classlmms_1_1JournallingObject.html#a7eabf06aa65616076298ea6ff2243647" target="_top" xlink:title=" ">
<polygon fill="white" stroke="#666666" points="834.5,-192.97 715,-192.97 715,-162.47 834.5,-162.47 834.5,-192.97"/>
<text xml:space="preserve" text-anchor="start" x="723" y="-179.47" font-family="Helvetica,sans-Serif" font-size="10.00">lmms::JournallingObject</text>
<text xml:space="preserve" text-anchor="middle" x="774.75" y="-168.22" font-family="Helvetica,sans-Serif" font-size="10.00">::isJournalling</text>
</a>
</g>
</g>
<!-- Node6&#45;&gt;Node13 -->
<g id="edge13_Node000006_Node000013" class="edge">
<title>Node6&#45;&gt;Node13</title>
<g id="a_edge13_Node000006_Node000013"><a xlink:title=" ">
<path fill="none" stroke="#63b8ff" d="M496.75,-131.04C508.61,-133.32 520.93,-135.63 532.5,-137.72 589.94,-148.06 655.27,-158.83 703.44,-166.59"/>
<polygon fill="#63b8ff" stroke="#63b8ff" points="702.76,-170.02 713.19,-168.15 703.87,-163.11 702.76,-170.02"/>
</a>
</g>
</g>
<!-- Node21 -->
<g id="Node000021" class="node">
<title>Node21</title>
<g id="a_Node000021"><a xlink:href="classlmms_1_1Model.html#a140ee903da70ba289abf1ee473df34cb" target="_top" xlink:title=" ">
<polygon fill="white" stroke="#666666" points="670.38,-128.34 538.12,-128.34 538.12,-109.09 670.38,-109.09 670.38,-128.34"/>
<text xml:space="preserve" text-anchor="middle" x="604.25" y="-114.84" font-family="Helvetica,sans-Serif" font-size="10.00">lmms::Model::dataChanged</text>
</a>
</g>
</g>
<!-- Node6&#45;&gt;Node21 -->
<g id="edge8_Node000006_Node000021" class="edge">
<title>Node6&#45;&gt;Node21</title>
<g id="a_edge8_Node000006_Node000021"><a xlink:title=" ">
<path fill="none" stroke="#63b8ff" d="M496.54,-118.72C506.3,-118.72 516.49,-118.72 526.54,-118.72"/>
<polygon fill="#63b8ff" stroke="#63b8ff" points="526.28,-122.22 536.28,-118.72 526.28,-115.22 526.28,-122.22"/>
</a>
</g>
</g>
<!-- Node22 -->
<g id="Node000022" class="node">
<title>Node22</title>
<g id="a_Node000022"><a xlink:href="classlmms_1_1Model.html#a13c8e5bc88ce513dfe7cb00cb3149dcb" target="_top" xlink:title=" ">
<polygon fill="white" stroke="#666666" points="676,-91.34 532.5,-91.34 532.5,-72.09 676,-72.09 676,-91.34"/>
<text xml:space="preserve" text-anchor="middle" x="604.25" y="-77.84" font-family="Helvetica,sans-Serif" font-size="10.00">lmms::Model::dataUnchanged</text>
</a>
</g>
</g>
<!-- Node6&#45;&gt;Node22 -->
<g id="edge9_Node000006_Node000022" class="edge">
<title>Node6&#45;&gt;Node22</title>
<g id="a_edge9_Node000006_Node000022"><a xlink:title=" ">
<path fill="none" stroke="#63b8ff" d="M496.54,-105.15C512.87,-101.56 530.41,-97.71 546.47,-94.19"/>
<polygon fill="#63b8ff" stroke="#63b8ff" points="546.81,-97.69 555.83,-92.13 545.31,-90.86 546.81,-97.69"/>
</a>
</g>
</g>
<!-- Node23 -->
<g id="Node000023" class="node">
<title>Node23</title>
<g id="a_Node000023"><a xlink:href="classlmms_1_1AutomatableModel.html#a8861a9d36bed20267a67e3cdddec0850" target="_top" xlink:title=" ">
<polygon fill="#fff0f0" stroke="red" points="667,-53.97 541.5,-53.97 541.5,-23.47 667,-23.47 667,-53.97"/>
<text xml:space="preserve" text-anchor="start" x="549.5" y="-40.47" font-family="Helvetica,sans-Serif" font-size="10.00">lmms::AutomatableModel</text>
<text xml:space="preserve" text-anchor="middle" x="604.25" y="-29.22" font-family="Helvetica,sans-Serif" font-size="10.00">::fittedValue</text>
</a>
</g>
</g>
<!-- Node6&#45;&gt;Node23 -->
<g id="edge10_Node000006_Node000023" class="edge">
<title>Node6&#45;&gt;Node23</title>
<g id="a_edge10_Node000006_Node000023"><a xlink:title=" ">
<path fill="none" stroke="#63b8ff" d="M458.97,-103.09C478.34,-91.02 506.47,-74.46 532.5,-62.72 535.65,-61.3 538.91,-59.91 542.22,-58.57"/>
<polygon fill="#63b8ff" stroke="#63b8ff" points="543.44,-61.86 551.51,-54.99 540.92,-55.32 543.44,-61.86"/>
</a>
</g>
</g>
<!-- Node26 -->
<g id="Node000026" class="node">
<title>Node26</title>
<g id="a_Node000026"><a xlink:href="classlmms_1_1AutomatableModel.html#a7b214a86f5fb6a23fe8a997602a36505" target="_top" xlink:title=" ">
<polygon fill="#fff0f0" stroke="red" points="837.5,-53.97 712,-53.97 712,-23.47 837.5,-23.47 837.5,-53.97"/>
<text xml:space="preserve" text-anchor="start" x="720" y="-40.47" font-family="Helvetica,sans-Serif" font-size="10.00">lmms::AutomatableModel</text>
<text xml:space="preserve" text-anchor="middle" x="774.75" y="-29.22" font-family="Helvetica,sans-Serif" font-size="10.00">::value</text>
</a>
</g>
</g>
<!-- Node6&#45;&gt;Node26 -->
<g id="edge14_Node000006_Node000026" class="edge">
<title>Node6&#45;&gt;Node26</title>
<g id="a_edge14_Node000006_Node000026"><a xlink:title=" ">
<path fill="none" stroke="#63b8ff" d="M443.43,-103.36C458.11,-79.12 490.42,-32.91 532.5,-14.72 593.92,11.84 672.09,-3.84 722.52,-19.54"/>
<polygon fill="#63b8ff" stroke="#63b8ff" points="721.44,-22.87 732.03,-22.62 723.6,-16.21 721.44,-22.87"/>
</a>
</g>
</g>
<!-- Node7&#45;&gt;Node13 -->
<g id="edge7_Node000007_Node000013" class="edge">
<title>Node7&#45;&gt;Node13</title>
<g id="a_edge7_Node000007_Node000013"><a xlink:title=" ">
<path fill="none" stroke="#63b8ff" d="M664.18,-192.02C676.81,-190.38 690.27,-188.62 703.28,-186.92"/>
<polygon fill="#63b8ff" stroke="#63b8ff" points="703.6,-190.41 713.06,-185.64 702.7,-183.47 703.6,-190.41"/>
</a>
</g>
</g>
<!-- Node23&#45;&gt;Node26 -->
<g id="edge11_Node000023_Node000026" class="edge">
<title>Node23&#45;&gt;Node26</title>
<g id="a_edge11_Node000023_Node000026"><a xlink:title=" ">
<path fill="none" stroke="#63b8ff" d="M667.04,-38.72C677.84,-38.72 689.18,-38.72 700.26,-38.72"/>
<polygon fill="#63b8ff" stroke="#63b8ff" points="700.18,-42.22 710.18,-38.72 700.18,-35.22 700.18,-42.22"/>
</a>
</g>
</g>
<!-- Node26&#45;&gt;Node5 -->
<g id="edge12_Node000026_Node000005" class="edge">
<title>Node26&#45;&gt;Node5</title>
<g id="a_edge12_Node000026_Node000005"><a xlink:title=" ">
<path fill="none" stroke="#63b8ff" d="M800.32,-54.43C827.37,-71.73 871.02,-99.64 901.32,-119.02"/>
<polygon fill="#63b8ff" stroke="#63b8ff" points="899.06,-121.73 909.37,-124.17 902.84,-115.83 899.06,-121.73"/>
</a>
</g>
</g>
</g>
</svg>
