<?xml version="1.0" encoding="UTF-8" standalone="no"?>
<!DOCTYPE svg PUBLIC "-//W3C//DTD SVG 1.1//EN"
 "http://www.w3.org/Graphics/SVG/1.1/DTD/svg11.dtd">
<!-- Generated by graphviz version 14.0.2 (0)
 -->
<!-- Title: juce::PopupMenu::showMenuAsync Pages: 1 -->
<svg width="680pt" height="137pt"
 viewBox="0.00 0.00 680.00 137.00" xmlns="http://www.w3.org/2000/svg" xmlns:xlink="http://www.w3.org/1999/xlink">
<g id="graph0" class="graph" transform="scale(1 1) rotate(0) translate(4 132.88)">
<title>juce::PopupMenu::showMenuAsync</title>
<!-- Node1 -->
<g id="Node000001" class="node">
<title>Node1</title>
<g id="a_Node000001"><a xlink:title=" ">
<polygon fill="#999999" stroke="#666666" points="142,-51.88 0,-51.88 0,-21.38 142,-21.38 142,-51.88"/>
<text xml:space="preserve" text-anchor="start" x="8" y="-38.38" font-family="Helvetica,sans-Serif" font-size="10.00">juce::PopupMenu::showMenu</text>
<text xml:space="preserve" text-anchor="middle" x="71" y="-27.12" font-family="Helvetica,sans-Serif" font-size="10.00">Async</text>
</a>
</g>
</g>
<!-- Node1&#45;&gt;Node1 -->
<g id="edge1_Node000001_Node000001" class="edge">
<title>Node1&#45;&gt;Node1</title>
<g id="a_edge1_Node000001_Node000001"><a xlink:title=" ">
<path fill="none" stroke="#63b8ff" d="M39.86,-52.36C33.5,-61.43 43.88,-69.88 71,-69.88 85.83,-69.88 95.65,-67.35 100.47,-63.58"/>
<polygon fill="#63b8ff" stroke="#63b8ff" points="103.91,-64.26 101.92,-53.86 96.99,-63.23 103.91,-64.26"/>
</a>
</g>
</g>
<!-- Node2 -->
<g id="Node000002" class="node">
<title>Node2</title>
<g id="a_Node000002"><a xlink:href="classjuce_1_1PopupMenu.html#aeaaa94962bdb5cc105055ef4b66a947c" target="_top" xlink:title=" ">
<polygon fill="white" stroke="#666666" points="315.5,-51.88 178,-51.88 178,-21.38 315.5,-21.38 315.5,-51.88"/>
<text xml:space="preserve" text-anchor="start" x="186" y="-38.38" font-family="Helvetica,sans-Serif" font-size="10.00">juce::PopupMenu::showWith</text>
<text xml:space="preserve" text-anchor="middle" x="246.75" y="-27.12" font-family="Helvetica,sans-Serif" font-size="10.00">OptionalCallback</text>
</a>
</g>
</g>
<!-- Node1&#45;&gt;Node2 -->
<g id="edge2_Node000001_Node000002" class="edge">
<title>Node1&#45;&gt;Node2</title>
<g id="a_edge2_Node000001_Node000002"><a xlink:title=" ">
<path fill="none" stroke="#63b8ff" d="M142.42,-36.62C150.35,-36.62 158.47,-36.62 166.5,-36.62"/>
<polygon fill="#63b8ff" stroke="#63b8ff" points="166.25,-40.13 176.25,-36.63 166.25,-33.13 166.25,-40.13"/>
</a>
</g>
</g>
<!-- Node2&#45;&gt;Node2 -->
<g id="edge10_Node000002_Node000002" class="edge">
<title>Node2&#45;&gt;Node2</title>
<g id="a_edge10_Node000002_Node000002"><a xlink:title=" ">
<path fill="none" stroke="#63b8ff" d="M215.61,-52.36C209.25,-61.43 219.63,-69.88 246.75,-69.88 261.58,-69.88 271.4,-67.35 276.22,-63.58"/>
<polygon fill="#63b8ff" stroke="#63b8ff" points="279.66,-64.26 277.67,-53.86 272.74,-63.23 279.66,-64.26"/>
</a>
</g>
</g>
<!-- Node3 -->
<g id="Node000003" class="node">
<title>Node3</title>
<g id="a_Node000003"><a xlink:href="classjuce_1_1PopupMenu.html#aee6b1d920558284db19372cd4cdd07fc" target="_top" xlink:title=" ">
<polygon fill="white" stroke="#666666" points="507.75,-74.25 351.5,-74.25 351.5,-55 507.75,-55 507.75,-74.25"/>
<text xml:space="preserve" text-anchor="middle" x="429.62" y="-60.75" font-family="Helvetica,sans-Serif" font-size="10.00">juce::PopupMenu::createWindow</text>
</a>
</g>
</g>
<!-- Node2&#45;&gt;Node3 -->
<g id="edge3_Node000002_Node000003" class="edge">
<title>Node2&#45;&gt;Node3</title>
<g id="a_edge3_Node000002_Node000003"><a xlink:title=" ">
<path fill="none" stroke="#63b8ff" d="M315.87,-47.17C327.64,-48.99 339.94,-50.9 351.91,-52.75"/>
<polygon fill="#63b8ff" stroke="#63b8ff" points="351.34,-56.2 361.76,-54.27 352.41,-49.29 351.34,-56.2"/>
</a>
</g>
</g>
<!-- Node7 -->
<g id="Node000007" class="node">
<title>Node7</title>
<g id="a_Node000007"><a xlink:href="namespacejuce.html#a86deae84ff8b95d7e40214a493b3dfe0" target="_top" xlink:title=" ">
<polygon fill="white" stroke="#666666" points="478.88,-19.25 380.38,-19.25 380.38,0 478.88,0 478.88,-19.25"/>
<text xml:space="preserve" text-anchor="middle" x="429.62" y="-5.75" font-family="Helvetica,sans-Serif" font-size="10.00">juce::ignoreUnused</text>
</a>
</g>
</g>
<!-- Node2&#45;&gt;Node7 -->
<g id="edge8_Node000002_Node000007" class="edge">
<title>Node2&#45;&gt;Node7</title>
<g id="a_edge8_Node000002_Node000007"><a xlink:title=" ">
<path fill="none" stroke="#63b8ff" d="M315.87,-26.46C333.37,-23.84 352.06,-21.05 369.08,-18.51"/>
<polygon fill="#63b8ff" stroke="#63b8ff" points="369.13,-22.04 378.5,-17.11 368.1,-15.12 369.13,-22.04"/>
</a>
</g>
</g>
<!-- Node3&#45;&gt;Node3 -->
<g id="edge4_Node000003_Node000003" class="edge">
<title>Node3&#45;&gt;Node3</title>
<g id="a_edge4_Node000003_Node000003"><a xlink:title=" ">
<path fill="none" stroke="#63b8ff" d="M401.7,-74.54C388.96,-83.15 398.27,-92.25 429.62,-92.25 447.75,-92.25 458.51,-89.21 461.9,-84.98"/>
<polygon fill="#63b8ff" stroke="#63b8ff" points="465.21,-83.82 458.13,-75.94 458.75,-86.51 465.21,-83.82"/>
</a>
</g>
</g>
<!-- Node4 -->
<g id="Node000004" class="node">
<title>Node4</title>
<g id="a_Node000004"><a xlink:href="classjuce_1_1PopupMenu_1_1Options.html#ae38766b7503c63633fcb43185fecd8aa" target="_top" xlink:title=" ">
<polygon fill="white" stroke="#666666" points="672.25,-128.88 543.75,-128.88 543.75,-98.38 672.25,-98.38 672.25,-128.88"/>
<text xml:space="preserve" text-anchor="start" x="551.75" y="-115.38" font-family="Helvetica,sans-Serif" font-size="10.00">juce::PopupMenu::Options</text>
<text xml:space="preserve" text-anchor="middle" x="608" y="-104.12" font-family="Helvetica,sans-Serif" font-size="10.00">::getTargetComponent</text>
</a>
</g>
</g>
<!-- Node3&#45;&gt;Node4 -->
<g id="edge5_Node000003_Node000004" class="edge">
<title>Node3&#45;&gt;Node4</title>
<g id="a_edge5_Node000003_Node000004"><a xlink:title=" ">
<path fill="none" stroke="#63b8ff" d="M466.74,-74.66C487.72,-80.49 514.83,-88.02 539.62,-94.91"/>
<polygon fill="#63b8ff" stroke="#63b8ff" points="538.41,-98.2 548.98,-97.51 540.28,-91.46 538.41,-98.2"/>
</a>
</g>
</g>
<!-- Node5 -->
<g id="Node000005" class="node">
<title>Node5</title>
<g id="a_Node000005"><a xlink:href="classjuce_1_1PopupMenu_1_1Options.html#a3b43f0fba57398984b2485b98dde4047" target="_top" xlink:title=" ">
<polygon fill="white" stroke="#666666" points="672.25,-79.88 543.75,-79.88 543.75,-49.38 672.25,-49.38 672.25,-79.88"/>
<text xml:space="preserve" text-anchor="start" x="551.75" y="-66.38" font-family="Helvetica,sans-Serif" font-size="10.00">juce::PopupMenu::Options</text>
<text xml:space="preserve" text-anchor="middle" x="608" y="-55.12" font-family="Helvetica,sans-Serif" font-size="10.00">::getTargetScreenArea</text>
</a>
</g>
</g>
<!-- Node3&#45;&gt;Node5 -->
<g id="edge6_Node000003_Node000005" class="edge">
<title>Node3&#45;&gt;Node5</title>
<g id="a_edge6_Node000003_Node000005"><a xlink:title=" ">
<path fill="none" stroke="#63b8ff" d="M508.24,-64.62C516.13,-64.62 524.13,-64.62 531.99,-64.62"/>
<polygon fill="#63b8ff" stroke="#63b8ff" points="531.85,-68.13 541.85,-64.63 531.85,-61.13 531.85,-68.13"/>
</a>
</g>
</g>
<!-- Node6 -->
<g id="Node000006" class="node">
<title>Node6</title>
<g id="a_Node000006"><a xlink:href="classjuce_1_1Rectangle.html#ad403d2302452b0ae218fb3a4d9b04492" target="_top" xlink:title=" ">
<polygon fill="white" stroke="#666666" points="668.5,-31.25 547.5,-31.25 547.5,-12 668.5,-12 668.5,-31.25"/>
<text xml:space="preserve" text-anchor="middle" x="608" y="-17.75" font-family="Helvetica,sans-Serif" font-size="10.00">juce::Rectangle::isEmpty</text>
</a>
</g>
</g>
<!-- Node3&#45;&gt;Node6 -->
<g id="edge7_Node000003_Node000006" class="edge">
<title>Node3&#45;&gt;Node6</title>
<g id="a_edge7_Node000003_Node000006"><a xlink:title=" ">
<path fill="none" stroke="#63b8ff" d="M474.3,-54.57C485.23,-52.02 496.93,-49.25 507.75,-46.62 523.73,-42.75 541.13,-38.41 556.83,-34.44"/>
<polygon fill="#63b8ff" stroke="#63b8ff" points="557.61,-37.86 566.45,-32.01 555.89,-31.07 557.61,-37.86"/>
</a>
</g>
</g>
<!-- Node7&#45;&gt;Node7 -->
<g id="edge9_Node000007_Node000007" class="edge">
<title>Node7&#45;&gt;Node7</title>
<g id="a_edge9_Node000007_Node000007"><a xlink:title=" ">
<path fill="none" stroke="#63b8ff" d="M401.7,-19.54C388.96,-28.15 398.27,-37.25 429.62,-37.25 447.75,-37.25 458.51,-34.21 461.9,-29.98"/>
<polygon fill="#63b8ff" stroke="#63b8ff" points="465.21,-28.82 458.13,-20.94 458.75,-31.51 465.21,-28.82"/>
</a>
</g>
</g>
</g>
</svg>
