<?xml version="1.0" encoding="UTF-8" standalone="no"?>
<!DOCTYPE svg PUBLIC "-//W3C//DTD SVG 1.1//EN"
 "http://www.w3.org/Graphics/SVG/1.1/DTD/svg11.dtd">
<!-- Generated by graphviz version 14.0.2 (0)
 -->
<!-- Title: juce::ARADocumentControllerSpecialisation::ARADocumentControllerImpl::willDestroyAudioSource Pages: 1 -->
<!--zoomable 98 -->

<svg id="main" version="1.1" xmlns="http://www.w3.org/2000/svg" xmlns:xlink="http://www.w3.org/1999/xlink" xml:space="preserve" onload="init(evt)">

<style type="text/css"><![CDATA[
.node, .edge {opacity: 0.7;}
.node.selected, .edge.selected {opacity: 1;}
.edge:hover path { stroke: red; }
.edge:hover polygon { stroke: red; fill: red; }
]]></style>

<defs>
  <circle id="rim" cx="0" cy="0" r="7"/>
  <circle id="rim2" cx="0" cy="0" r="3.5"/>
  <g id="zoomPlus">
    <use xlink:href="#rim" fill="#404040"><set attributeName="fill" to="#808080" begin="zoomplus.mouseover" end="zoomplus.mouseout"/></use>
    <path d="M-4,0h8M0,-4v8" fill="none" stroke="white" stroke-width="1.5" pointer-events="none"/>
  </g>
  <g id="zoomMin">
    <use xlink:href="#rim" fill="#404040"><set attributeName="fill" to="#808080" begin="zoomminus.mouseover" end="zoomminus.mouseout"/></use>
    <path d="M-4,0h8" fill="none" stroke="white" stroke-width="1.5" pointer-events="none"/>
  </g>
  <g id="arrowUp" transform="translate(30 24)">
    <use xlink:href="#rim"/>
    <path pointer-events="none" fill="none" stroke="white" stroke-width="1.5" d="M0,-3.0v7 M-2.5,-0.5L0,-3.0L2.5,-0.5"/>
  </g>
  <g id="arrowRight" transform="rotate(90) translate(36 -43)">
    <use xlink:href="#rim"/>
    <path pointer-events="none" fill="none" stroke="white" stroke-width="1.5" d="M0,-3.0v7 M-2.5,-0.5L0,-3.0L2.5,-0.5"/>
  </g>
  <g id="arrowDown" transform="rotate(180) translate(-30 -48)">
    <use xlink:href="#rim"/>
    <path pointer-events="none" fill="none" stroke="white" stroke-width="1.5" d="M0,-3.0v7 M-2.5,-0.5L0,-3.0L2.5,-0.5"/>
  </g>
  <g id="arrowLeft" transform="rotate(270) translate(-36 17)">
    <use xlink:href="#rim"/>
    <path pointer-events="none" fill="none" stroke="white" stroke-width="1.5" d="M0,-3.0v7 M-2.5,-0.5L0,-3.0L2.5,-0.5"/>
  </g>
  <g id="resetDef">
    <use xlink:href="#rim2" fill="#404040"><set attributeName="fill" to="#808080" begin="reset.mouseover" end="reset.mouseout"/></use>
  </g>
</defs>
<script type="application/ecmascript">
var viewWidth = 553;
var viewHeight = 98;
var sectionId = 'dynsection-129';
</script>
<script type="application/ecmascript" xlink:href="svg.min.js"/>
<svg id="graph" class="graph">
<g id="viewport">
<title>juce::ARADocumentControllerSpecialisation::ARADocumentControllerImpl::willDestroyAudioSource</title>
<!-- Node1 -->
<g id="Node000001" class="node">
<title>Node1</title>
<g id="a_Node000001"><a xlink:title=" ">
<polygon fill="#999999" stroke="#666666" points="187,-63.12 0,-63.12 0,-21.38 187,-21.38 187,-63.12"/>
<text xml:space="preserve" text-anchor="start" x="8" y="-49.62" font-family="Helvetica,sans-Serif" font-size="10.00">juce::ARADocumentController</text>
<text xml:space="preserve" text-anchor="start" x="8" y="-38.38" font-family="Helvetica,sans-Serif" font-size="10.00">Specialisation::ARADocumentController</text>
<text xml:space="preserve" text-anchor="middle" x="93.5" y="-27.12" font-family="Helvetica,sans-Serif" font-size="10.00">Impl::willDestroyAudioSource</text>
</a>
</g>
</g>
<!-- Node1&#45;&gt;Node1 -->
<g id="edge5_Node000001_Node000001" class="edge">
<title>Node1&#45;&gt;Node1</title>
<g id="a_edge5_Node000001_Node000001"><a xlink:title=" ">
<path fill="none" stroke="#63b8ff" d="M52.34,-63.44C48.42,-72.92 62.14,-81.12 93.5,-81.12 111.87,-81.12 124.19,-78.31 130.46,-74.07"/>
<polygon fill="#63b8ff" stroke="#63b8ff" points="133.68,-75.44 134.1,-64.85 127.17,-72.86 133.68,-75.44"/>
</a>
</g>
</g>
<!-- Node2 -->
<g id="Node000002" class="node">
<title>Node2</title>
<g id="a_Node000002"><a xlink:href="classjuce_1_1ARADocumentControllerSpecialisation_1_1ARADocumentControllerImpl.html#a18eee2ed77db9bc0e8e131ebb5dc8685" target="_top" xlink:title=" ">
<polygon fill="white" stroke="#666666" points="410,-90.12 223,-90.12 223,-48.38 410,-48.38 410,-90.12"/>
<text xml:space="preserve" text-anchor="start" x="231" y="-76.62" font-family="Helvetica,sans-Serif" font-size="10.00">juce::ARADocumentController</text>
<text xml:space="preserve" text-anchor="start" x="231" y="-65.38" font-family="Helvetica,sans-Serif" font-size="10.00">Specialisation::ARADocumentController</text>
<text xml:space="preserve" text-anchor="middle" x="316.5" y="-54.12" font-family="Helvetica,sans-Serif" font-size="10.00">Impl::notifyListeners</text>
</a>
</g>
</g>
<!-- Node1&#45;&gt;Node2 -->
<g id="edge1_Node000001_Node000002" class="edge">
<title>Node1&#45;&gt;Node2</title>
<g id="a_edge1_Node000001_Node000002"><a xlink:title=" ">
<path fill="none" stroke="#63b8ff" d="M187.26,-53.58C195.21,-54.55 203.29,-55.54 211.32,-56.52"/>
<polygon fill="#63b8ff" stroke="#63b8ff" points="210.77,-59.98 221.12,-57.72 211.62,-53.03 210.77,-59.98"/>
</a>
</g>
</g>
<!-- Node3 -->
<g id="Node000003" class="node">
<title>Node3</title>
<g id="a_Node000003"><a xlink:href="classjuce_1_1ARAAudioSourceListener.html#a56ef0f4fad7e4ef5c4f906605fff9787" target="_top" xlink:title=" ">
<polygon fill="white" stroke="#666666" points="391.25,-30.5 241.75,-30.5 241.75,0 391.25,0 391.25,-30.5"/>
<text xml:space="preserve" text-anchor="start" x="249.75" y="-17" font-family="Helvetica,sans-Serif" font-size="10.00">juce::ARAAudioSourceListener</text>
<text xml:space="preserve" text-anchor="middle" x="316.5" y="-5.75" font-family="Helvetica,sans-Serif" font-size="10.00">::willDestroyAudioSource</text>
</a>
</g>
</g>
<!-- Node1&#45;&gt;Node3 -->
<g id="edge2_Node000001_Node000003" class="edge">
<title>Node1&#45;&gt;Node3</title>
<g id="a_edge2_Node000001_Node000003"><a xlink:title=" ">
<path fill="none" stroke="#63b8ff" d="M187.26,-30.92C201.52,-29.17 216.19,-27.38 230.28,-25.66"/>
<polygon fill="#63b8ff" stroke="#63b8ff" points="230.43,-29.17 239.93,-24.48 229.58,-22.22 230.43,-29.17"/>
</a>
</g>
</g>
<!-- Node4 -->
<g id="Node000004" class="node">
<title>Node4</title>
<g id="a_Node000004"><a xlink:href="namespacejuce.html#a86deae84ff8b95d7e40214a493b3dfe0" target="_top" xlink:title=" ">
<polygon fill="white" stroke="#666666" points="544.5,-24.88 446,-24.88 446,-5.63 544.5,-5.63 544.5,-24.88"/>
<text xml:space="preserve" text-anchor="middle" x="495.25" y="-11.38" font-family="Helvetica,sans-Serif" font-size="10.00">juce::ignoreUnused</text>
</a>
</g>
</g>
<!-- Node3&#45;&gt;Node4 -->
<g id="edge3_Node000003_Node000004" class="edge">
<title>Node3&#45;&gt;Node4</title>
<g id="a_edge3_Node000003_Node000004"><a xlink:title=" ">
<path fill="none" stroke="#63b8ff" d="M391.69,-15.25C405.93,-15.25 420.68,-15.25 434.41,-15.25"/>
<polygon fill="#63b8ff" stroke="#63b8ff" points="434.14,-18.75 444.14,-15.25 434.14,-11.75 434.14,-18.75"/>
</a>
</g>
</g>
<!-- Node4&#45;&gt;Node4 -->
<g id="edge4_Node000004_Node000004" class="edge">
<title>Node4&#45;&gt;Node4</title>
<g id="a_edge4_Node000004_Node000004"><a xlink:title=" ">
<path fill="none" stroke="#63b8ff" d="M467.27,-25.16C454.5,-33.77 463.83,-42.88 495.25,-42.88 513.42,-42.88 524.2,-39.83 527.59,-35.6"/>
<polygon fill="#63b8ff" stroke="#63b8ff" points="530.9,-34.44 523.82,-26.56 524.44,-37.14 530.9,-34.44"/>
</a>
</g>
</g>
</g>
</svg>

<g id="navigator" transform="translate(0 0)" fill="#404254">
  <rect fill="#f2f5e9" fill-opacity="0.5" stroke="#606060" stroke-width=".5" x="0" y="0" width="60" height="60"/>
  <use id="zoomplus" xlink:href="#zoomPlus" x="17" y="9" onmousedown="handleZoom(evt,'in')"/>
  <use id="zoomminus" xlink:href="#zoomMin" x="42" y="9" onmousedown="handleZoom(evt,'out')"/>
  <use id="reset" xlink:href="#resetDef" x="30" y="36" onmousedown="handleReset()"/>
   <use id="arrowup" xlink:href="#arrowUp" x="0" y="0" onmousedown="handlePan(0,-1)"/>
  <use id="arrowright" xlink:href="#arrowRight" x="0" y="0" onmousedown="handlePan(1,0)"/>
  <use id="arrowdown" xlink:href="#arrowDown" x="0" y="0" onmousedown="handlePan(0,1)"/>
  <use id="arrowleft" xlink:href="#arrowLeft" x="0" y="0" onmousedown="handlePan(-1,0)"/>
</g>
<svg viewBox="0 0 15 15" width="100%" height="30px" preserveAspectRatio="xMaxYMin meet">
 <g id="arrow_out" transform="scale(0.3 0.3)">
  <a xlink:href="classjuce_1_1ARADocumentControllerSpecialisation_1_1ARADocumentControllerImpl_a6cb750de8f5b6178b2c567c8c92035be_cgraph_org.svg" target="_base">
   <rect id="button" ry="5" rx="5" y="6" x="6" height="38" width="38"
        fill="#f2f5e9" fill-opacity="0.5" stroke="#606060" stroke-width="1.0"/>
   <path id="arrow"
     d="M 11.500037,31.436501 C 11.940474,20.09759 22.043105,11.32322 32.158766,21.979434 L 37.068811,17.246167 C 37.068811,17.246167 37.088388,32 37.088388,32 L 22.160133,31.978069 C 22.160133,31.978069 26.997745,27.140456 26.997745,27.140456 C 18.528582,18.264221 13.291696,25.230495 11.500037,31.436501 z"
     style="fill:#404040;"/>
  </a>
 </g>
</svg>

<style type='text/css'>
<![CDATA[
[data-mouse-over-selected='false'] { opacity: 0.7; }
[data-mouse-over-selected='true']  { opacity: 1.0; }
]]>
</style>
<script type="application/ecmascript"><![CDATA[
document.addEventListener('DOMContentLoaded', (event) => {
  highlightEdges();
  highlightAdjacentNodes();
});
]]></script>
</svg>
