<?xml version="1.0" encoding="UTF-8" standalone="no"?>
<!DOCTYPE svg PUBLIC "-//W3C//DTD SVG 1.1//EN"
 "http://www.w3.org/Graphics/SVG/1.1/DTD/svg11.dtd">
<!-- Generated by graphviz version 14.0.2 (0)
 -->
<!-- Title: juce::SortedSet::removeValuesIn Pages: 1 -->
<svg width="323pt" height="101pt"
 viewBox="0.00 0.00 323.00 101.00" xmlns="http://www.w3.org/2000/svg" xmlns:xlink="http://www.w3.org/1999/xlink">
<g id="graph0" class="graph" transform="scale(1 1) rotate(0) translate(4 97.25)">
<title>juce::SortedSet::removeValuesIn</title>
<!-- Node1 -->
<g id="Node000001" class="node">
<title>Node1</title>
<g id="a_Node000001"><a xlink:title=" ">
<polygon fill="#999999" stroke="#666666" points="157,-56.25 0,-56.25 0,-37 157,-37 157,-56.25"/>
<text xml:space="preserve" text-anchor="middle" x="78.5" y="-42.75" font-family="Helvetica,sans-Serif" font-size="10.00">juce::SortedSet::removeValuesIn</text>
</a>
</g>
</g>
<!-- Node2 -->
<g id="Node000002" class="node">
<title>Node2</title>
<g id="a_Node000002"><a xlink:href="classjuce_1_1SortedSet.html#ae4f23d7af3dee599ece9e10cf819faa5" target="_top" xlink:title=" ">
<polygon fill="white" stroke="#666666" points="307.62,-93.25 200.12,-93.25 200.12,-74 307.62,-74 307.62,-93.25"/>
<text xml:space="preserve" text-anchor="middle" x="253.88" y="-79.75" font-family="Helvetica,sans-Serif" font-size="10.00">juce::SortedSet::clear</text>
</a>
</g>
</g>
<!-- Node1&#45;&gt;Node2 -->
<g id="edge1_Node000001_Node000002" class="edge">
<title>Node1&#45;&gt;Node2</title>
<g id="a_edge1_Node000001_Node000002"><a xlink:title=" ">
<path fill="none" stroke="#63b8ff" d="M126.88,-56.74C147.71,-61.18 172.38,-66.45 194.35,-71.14"/>
<polygon fill="#63b8ff" stroke="#63b8ff" points="193.57,-74.55 204.08,-73.21 195.03,-67.7 193.57,-74.55"/>
</a>
</g>
</g>
<!-- Node3 -->
<g id="Node000003" class="node">
<title>Node3</title>
<g id="a_Node000003"><a xlink:href="classjuce_1_1SortedSet.html#aadc4aee7c8854ead9f7b9276189dc309" target="_top" xlink:title=" ">
<polygon fill="white" stroke="#666666" points="314.75,-56.25 193,-56.25 193,-37 314.75,-37 314.75,-56.25"/>
<text xml:space="preserve" text-anchor="middle" x="253.88" y="-42.75" font-family="Helvetica,sans-Serif" font-size="10.00">juce::SortedSet::getLock</text>
</a>
</g>
</g>
<!-- Node1&#45;&gt;Node3 -->
<g id="edge2_Node000001_Node000003" class="edge">
<title>Node1&#45;&gt;Node3</title>
<g id="a_edge2_Node000001_Node000003"><a xlink:title=" ">
<path fill="none" stroke="#63b8ff" d="M157.31,-46.62C165.3,-46.62 173.38,-46.62 181.29,-46.62"/>
<polygon fill="#63b8ff" stroke="#63b8ff" points="181.22,-50.13 191.22,-46.63 181.22,-43.13 181.22,-50.13"/>
</a>
</g>
</g>
<!-- Node4 -->
<g id="Node000004" class="node">
<title>Node4</title>
<g id="a_Node000004"><a xlink:href="classjuce_1_1SortedSet.html#a0b60e411ade99708792278aeab7d52dc" target="_top" xlink:title=" ">
<polygon fill="white" stroke="#666666" points="313.25,-19.25 194.5,-19.25 194.5,0 313.25,0 313.25,-19.25"/>
<text xml:space="preserve" text-anchor="middle" x="253.88" y="-5.75" font-family="Helvetica,sans-Serif" font-size="10.00">juce::SortedSet::remove</text>
</a>
</g>
</g>
<!-- Node1&#45;&gt;Node4 -->
<g id="edge3_Node000001_Node000004" class="edge">
<title>Node1&#45;&gt;Node4</title>
<g id="a_edge3_Node000001_Node000004"><a xlink:title=" ">
<path fill="none" stroke="#63b8ff" d="M126.88,-36.51C147.71,-32.07 172.38,-26.8 194.35,-22.11"/>
<polygon fill="#63b8ff" stroke="#63b8ff" points="195.03,-25.55 204.08,-20.04 193.57,-18.7 195.03,-25.55"/>
</a>
</g>
</g>
</g>
</svg>
