<?xml version="1.0" encoding="UTF-8" standalone="no"?>
<!DOCTYPE svg PUBLIC "-//W3C//DTD SVG 1.1//EN"
 "http://www.w3.org/Graphics/SVG/1.1/DTD/svg11.dtd">
<!-- Generated by graphviz version 14.0.2 (0)
 -->
<!-- Title: zyncarla::AbsTime::time Pages: 1 -->
<svg width="665pt" height="160pt"
 viewBox="0.00 0.00 665.00 160.00" xmlns="http://www.w3.org/2000/svg" xmlns:xlink="http://www.w3.org/1999/xlink">
<g id="graph0" class="graph" transform="scale(1 1) rotate(0) translate(4 156.25)">
<title>zyncarla::AbsTime::time</title>
<!-- Node1 -->
<g id="Node000001" class="node">
<title>Node1</title>
<g id="a_Node000001"><a xlink:title=" ">
<polygon fill="#999999" stroke="#666666" points="657.25,-68.25 539.25,-68.25 539.25,-49 657.25,-49 657.25,-68.25"/>
<text xml:space="preserve" text-anchor="middle" x="598.25" y="-54.75" font-family="Helvetica,sans-Serif" font-size="10.00">zyncarla::AbsTime::time</text>
</a>
</g>
</g>
<!-- Node2 -->
<g id="Node000002" class="node">
<title>Node2</title>
<g id="a_Node000002"><a xlink:href="classlmms_1_1MidiImport.html#abbfc26e18bb9d31ee94fe149bb7a1fb0" target="_top" xlink:title=" ">
<polygon fill="white" stroke="#666666" points="489,-117.25 354.5,-117.25 354.5,-98 489,-98 489,-117.25"/>
<text xml:space="preserve" text-anchor="middle" x="421.75" y="-103.75" font-family="Helvetica,sans-Serif" font-size="10.00">lmms::MidiImport::readSMF</text>
</a>
</g>
</g>
<!-- Node1&#45;&gt;Node2 -->
<g id="edge1_Node000001_Node000002" class="edge">
<title>Node1&#45;&gt;Node2</title>
<g id="a_edge1_Node000001_Node000002"><a xlink:title=" ">
<path fill="none" stroke="#63b8ff" d="M556.85,-72.27C540.32,-77.66 520.96,-83.72 503.25,-88.62 491.9,-91.77 479.57,-94.85 468.04,-97.58"/>
<polygon fill="#63b8ff" stroke="#63b8ff" points="557.95,-75.6 566.35,-69.14 555.76,-68.95 557.95,-75.6"/>
</a>
</g>
</g>
<!-- Node5 -->
<g id="Node000005" class="node">
<title>Node5</title>
<g id="a_Node000005"><a xlink:href="structcalf__plugins_1_1tap__button__param__control.html#aaabfddef90441696194bbdf893dd333a" target="_top" xlink:title=" ">
<polygon fill="white" stroke="#666666" points="488.25,-79.5 355.25,-79.5 355.25,-37.75 488.25,-37.75 488.25,-79.5"/>
<text xml:space="preserve" text-anchor="start" x="363.25" y="-66" font-family="Helvetica,sans-Serif" font-size="10.00">calf_plugins::tap_button</text>
<text xml:space="preserve" text-anchor="start" x="363.25" y="-54.75" font-family="Helvetica,sans-Serif" font-size="10.00">_param_control::tap_button</text>
<text xml:space="preserve" text-anchor="middle" x="421.75" y="-43.5" font-family="Helvetica,sans-Serif" font-size="10.00">_pressed</text>
</a>
</g>
</g>
<!-- Node1&#45;&gt;Node5 -->
<g id="edge5_Node000001_Node000005" class="edge">
<title>Node1&#45;&gt;Node5</title>
<g id="a_edge5_Node000001_Node000005"><a xlink:title=" ">
<path fill="none" stroke="#63b8ff" d="M527.96,-58.62C515.03,-58.62 501.56,-58.62 488.74,-58.62"/>
<polygon fill="#63b8ff" stroke="#63b8ff" points="527.63,-62.13 537.63,-58.63 527.63,-55.13 527.63,-62.13"/>
</a>
</g>
</g>
<!-- Node7 -->
<g id="Node000007" class="node">
<title>Node7</title>
<g id="a_Node000007"><a xlink:href="classlmms_1_1MidiExport.html#af0aeb7517a0ec3b83df343f1be6ca5f0" target="_top" xlink:title=" ">
<polygon fill="white" stroke="#666666" points="503.25,-19.25 340.25,-19.25 340.25,0 503.25,0 503.25,-19.25"/>
<text xml:space="preserve" text-anchor="middle" x="421.75" y="-5.75" font-family="Helvetica,sans-Serif" font-size="10.00">lmms::MidiExport::writePatternClip</text>
</a>
</g>
</g>
<!-- Node1&#45;&gt;Node7 -->
<g id="edge7_Node000001_Node000007" class="edge">
<title>Node1&#45;&gt;Node7</title>
<g id="a_edge7_Node000001_Node000007"><a xlink:title=" ">
<path fill="none" stroke="#63b8ff" d="M556.85,-44.98C540.32,-39.59 520.96,-33.53 503.25,-28.62 491.9,-25.48 479.57,-22.4 468.04,-19.67"/>
<polygon fill="#63b8ff" stroke="#63b8ff" points="555.76,-48.3 566.35,-48.11 557.95,-41.65 555.76,-48.3"/>
</a>
</g>
</g>
<!-- Node3 -->
<g id="Node000003" class="node">
<title>Node3</title>
<g id="a_Node000003"><a xlink:href="classlmms_1_1MidiImport.html#a626af497bdce185af5cd51ebdee2481f" target="_top" xlink:title=" ">
<polygon fill="white" stroke="#666666" points="304.25,-152.25 169,-152.25 169,-133 304.25,-133 304.25,-152.25"/>
<text xml:space="preserve" text-anchor="middle" x="236.62" y="-138.75" font-family="Helvetica,sans-Serif" font-size="10.00">lmms::MidiImport::readRIFF</text>
</a>
</g>
</g>
<!-- Node2&#45;&gt;Node3 -->
<g id="edge2_Node000002_Node000003" class="edge">
<title>Node2&#45;&gt;Node3</title>
<g id="a_edge2_Node000002_Node000003"><a xlink:title=" ">
<path fill="none" stroke="#63b8ff" d="M356.7,-119.87C335.06,-124 311.15,-128.57 290.47,-132.52"/>
<polygon fill="#63b8ff" stroke="#63b8ff" points="357.13,-123.35 366.3,-118.03 355.82,-116.47 357.13,-123.35"/>
</a>
</g>
</g>
<!-- Node4 -->
<g id="Node000004" class="node">
<title>Node4</title>
<g id="a_Node000004"><a xlink:href="classlmms_1_1MidiImport.html#a616537b4787e6861ccfb1e47f6547542" target="_top" xlink:title=" ">
<polygon fill="white" stroke="#666666" points="133,-133.25 0,-133.25 0,-114 133,-114 133,-133.25"/>
<text xml:space="preserve" text-anchor="middle" x="66.5" y="-119.75" font-family="Helvetica,sans-Serif" font-size="10.00">lmms::MidiImport::tryImport</text>
</a>
</g>
</g>
<!-- Node2&#45;&gt;Node4 -->
<g id="edge4_Node000002_Node000004" class="edge">
<title>Node2&#45;&gt;Node4</title>
<g id="a_edge4_Node000002_Node000004"><a xlink:title=" ">
<path fill="none" stroke="#63b8ff" d="M342.88,-111.15C280.07,-114 192.71,-117.95 133.35,-120.64"/>
<polygon fill="#63b8ff" stroke="#63b8ff" points="342.96,-114.65 352.79,-110.7 342.65,-107.66 342.96,-114.65"/>
</a>
</g>
</g>
<!-- Node3&#45;&gt;Node4 -->
<g id="edge3_Node000003_Node000004" class="edge">
<title>Node3&#45;&gt;Node4</title>
<g id="a_edge3_Node000003_Node000004"><a xlink:title=" ">
<path fill="none" stroke="#63b8ff" d="M157.41,-133.79C149.37,-132.88 141.26,-131.96 133.38,-131.07"/>
<polygon fill="#63b8ff" stroke="#63b8ff" points="156.86,-137.25 167.19,-134.89 157.65,-130.29 156.86,-137.25"/>
</a>
</g>
</g>
<!-- Node6 -->
<g id="Node000006" class="node">
<title>Node6</title>
<g id="a_Node000006"><a xlink:href="structcalf__plugins_1_1tap__button__param__control.html#ac30dcfc58b1ddc6d141767ad488b8459" target="_top" xlink:title="called to create a widget for a control">
<polygon fill="white" stroke="#666666" points="295.62,-73.88 177.62,-73.88 177.62,-43.38 295.62,-43.38 295.62,-73.88"/>
<text xml:space="preserve" text-anchor="start" x="185.62" y="-60.38" font-family="Helvetica,sans-Serif" font-size="10.00">calf_plugins::tap_button</text>
<text xml:space="preserve" text-anchor="middle" x="236.62" y="-49.12" font-family="Helvetica,sans-Serif" font-size="10.00">_param_control::create</text>
</a>
</g>
</g>
<!-- Node5&#45;&gt;Node6 -->
<g id="edge6_Node000005_Node000006" class="edge">
<title>Node5&#45;&gt;Node6</title>
<g id="a_edge6_Node000005_Node000006"><a xlink:title=" ">
<path fill="none" stroke="#63b8ff" d="M343.44,-58.62C327.52,-58.62 311.02,-58.62 295.91,-58.62"/>
<polygon fill="#63b8ff" stroke="#63b8ff" points="343.38,-62.13 353.38,-58.63 343.38,-55.13 343.38,-62.13"/>
</a>
</g>
</g>
<!-- Node8 -->
<g id="Node000008" class="node">
<title>Node8</title>
<g id="a_Node000008"><a xlink:href="classlmms_1_1MidiExport.html#a99f06944e9bd5878c24a0bf7467d0312" target="_top" xlink:title=" ">
<polygon fill="white" stroke="#666666" points="302.38,-19.25 170.88,-19.25 170.88,0 302.38,0 302.38,-19.25"/>
<text xml:space="preserve" text-anchor="middle" x="236.62" y="-5.75" font-family="Helvetica,sans-Serif" font-size="10.00">lmms::MidiExport::tryExport</text>
</a>
</g>
</g>
<!-- Node7&#45;&gt;Node8 -->
<g id="edge8_Node000007_Node000008" class="edge">
<title>Node7&#45;&gt;Node8</title>
<g id="a_edge8_Node000007_Node000008"><a xlink:title=" ">
<path fill="none" stroke="#63b8ff" d="M328.46,-9.62C319.75,-9.62 311.04,-9.62 302.66,-9.62"/>
<polygon fill="#63b8ff" stroke="#63b8ff" points="328.38,-13.13 338.38,-9.63 328.38,-6.13 328.38,-13.13"/>
</a>
</g>
</g>
</g>
</svg>
