<?xml version="1.0" encoding="UTF-8" standalone="no"?>
<!DOCTYPE svg PUBLIC "-//W3C//DTD SVG 1.1//EN"
 "http://www.w3.org/Graphics/SVG/1.1/DTD/svg11.dtd">
<!-- Generated by graphviz version 14.0.2 (0)
 -->
<!-- Title: lmms::gui::FloatModelEditorBase::friendlyUpdate Pages: 1 -->
<!--zoomable 382 -->

<svg id="main" version="1.1" xmlns="http://www.w3.org/2000/svg" xmlns:xlink="http://www.w3.org/1999/xlink" xml:space="preserve" onload="init(evt)">

<style type="text/css"><![CDATA[
.node, .edge {opacity: 0.7;}
.node.selected, .edge.selected {opacity: 1;}
.edge:hover path { stroke: red; }
.edge:hover polygon { stroke: red; fill: red; }
]]></style>

<defs>
  <circle id="rim" cx="0" cy="0" r="7"/>
  <circle id="rim2" cx="0" cy="0" r="3.5"/>
  <g id="zoomPlus">
    <use xlink:href="#rim" fill="#404040"><set attributeName="fill" to="#808080" begin="zoomplus.mouseover" end="zoomplus.mouseout"/></use>
    <path d="M-4,0h8M0,-4v8" fill="none" stroke="white" stroke-width="1.5" pointer-events="none"/>
  </g>
  <g id="zoomMin">
    <use xlink:href="#rim" fill="#404040"><set attributeName="fill" to="#808080" begin="zoomminus.mouseover" end="zoomminus.mouseout"/></use>
    <path d="M-4,0h8" fill="none" stroke="white" stroke-width="1.5" pointer-events="none"/>
  </g>
  <g id="arrowUp" transform="translate(30 24)">
    <use xlink:href="#rim"/>
    <path pointer-events="none" fill="none" stroke="white" stroke-width="1.5" d="M0,-3.0v7 M-2.5,-0.5L0,-3.0L2.5,-0.5"/>
  </g>
  <g id="arrowRight" transform="rotate(90) translate(36 -43)">
    <use xlink:href="#rim"/>
    <path pointer-events="none" fill="none" stroke="white" stroke-width="1.5" d="M0,-3.0v7 M-2.5,-0.5L0,-3.0L2.5,-0.5"/>
  </g>
  <g id="arrowDown" transform="rotate(180) translate(-30 -48)">
    <use xlink:href="#rim"/>
    <path pointer-events="none" fill="none" stroke="white" stroke-width="1.5" d="M0,-3.0v7 M-2.5,-0.5L0,-3.0L2.5,-0.5"/>
  </g>
  <g id="arrowLeft" transform="rotate(270) translate(-36 17)">
    <use xlink:href="#rim"/>
    <path pointer-events="none" fill="none" stroke="white" stroke-width="1.5" d="M0,-3.0v7 M-2.5,-0.5L0,-3.0L2.5,-0.5"/>
  </g>
  <g id="resetDef">
    <use xlink:href="#rim2" fill="#404040"><set attributeName="fill" to="#808080" begin="reset.mouseover" end="reset.mouseout"/></use>
  </g>
</defs>
<script type="application/ecmascript">
var viewWidth = 674;
var viewHeight = 382;
var sectionId = 'dynsection-22';
</script>
<script type="application/ecmascript" xlink:href="svg.min.js"/>
<svg id="graph" class="graph">
<g id="viewport">
<title>lmms::gui::FloatModelEditorBase::friendlyUpdate</title>
<!-- Node1 -->
<g id="Node000001" class="node">
<title>Node1</title>
<g id="a_Node000001"><a xlink:title=" ">
<polygon fill="#999999" stroke="#666666" points="666.25,-226.5 531.75,-226.5 531.75,-196 666.25,-196 666.25,-226.5"/>
<text xml:space="preserve" text-anchor="start" x="539.75" y="-213" font-family="Helvetica,sans-Serif" font-size="10.00">lmms::gui::FloatModelEditor</text>
<text xml:space="preserve" text-anchor="middle" x="599" y="-201.75" font-family="Helvetica,sans-Serif" font-size="10.00">Base::friendlyUpdate</text>
</a>
</g>
</g>
<!-- Node2 -->
<g id="Node000002" class="node">
<title>Node2</title>
<g id="a_Node000002"><a xlink:href="classlmms_1_1gui_1_1FloatModelEditorBase.html#ae638e8873daa786385ac3fda352c7e76" target="_top" xlink:title=" ">
<polygon fill="white" stroke="#666666" points="495.75,-226.5 361.25,-226.5 361.25,-196 495.75,-196 495.75,-226.5"/>
<text xml:space="preserve" text-anchor="start" x="369.25" y="-213" font-family="Helvetica,sans-Serif" font-size="10.00">lmms::gui::FloatModelEditor</text>
<text xml:space="preserve" text-anchor="middle" x="428.5" y="-201.75" font-family="Helvetica,sans-Serif" font-size="10.00">Base::doConnections</text>
</a>
</g>
</g>
<!-- Node1&#45;&gt;Node2 -->
<g id="edge1_Node000001_Node000002" class="edge">
<title>Node1&#45;&gt;Node2</title>
<g id="a_edge1_Node000001_Node000002"><a xlink:title=" ">
<path fill="none" stroke="#63b8ff" d="M520.15,-211.25C512.14,-211.25 504.04,-211.25 496.16,-211.25"/>
<polygon fill="#63b8ff" stroke="#63b8ff" points="519.89,-214.75 529.89,-211.25 519.89,-207.75 519.89,-214.75"/>
</a>
</g>
</g>
<!-- Node3 -->
<g id="Node000003" class="node">
<title>Node3</title>
<g id="a_Node000003"><a xlink:href="classlmms_1_1gui_1_1FloatModelEditorBase.html#a7a6be0cdaf2ed5860ba5ffbe82f6b9ec" target="_top" xlink:title="to be called by ctors">
<polygon fill="white" stroke="#666666" points="325.25,-324.5 190.75,-324.5 190.75,-294 325.25,-294 325.25,-324.5"/>
<text xml:space="preserve" text-anchor="start" x="198.75" y="-311" font-family="Helvetica,sans-Serif" font-size="10.00">lmms::gui::FloatModelEditor</text>
<text xml:space="preserve" text-anchor="middle" x="258" y="-299.75" font-family="Helvetica,sans-Serif" font-size="10.00">Base::initUi</text>
</a>
</g>
</g>
<!-- Node2&#45;&gt;Node3 -->
<g id="edge2_Node000002_Node000003" class="edge">
<title>Node2&#45;&gt;Node3</title>
<g id="a_edge2_Node000002_Node000003"><a xlink:title=" ">
<path fill="none" stroke="#63b8ff" d="M390.68,-232.67C359.1,-251.03 314.35,-277.06 286.01,-293.54"/>
<polygon fill="#63b8ff" stroke="#63b8ff" points="392.23,-235.81 399.12,-227.76 388.72,-229.76 392.23,-235.81"/>
</a>
</g>
</g>
<!-- Node34 -->
<g id="Node000034" class="node">
<title>Node34</title>
<g id="a_Node000034"><a xlink:href="classlmms_1_1gui_1_1FloatModelEditorBase.html#acaad408e2de4d3389e731e9ed252626f" target="_top" xlink:title=" ">
<polygon fill="white" stroke="#666666" points="325.25,-128.5 190.75,-128.5 190.75,-98 325.25,-98 325.25,-128.5"/>
<text xml:space="preserve" text-anchor="start" x="198.75" y="-115" font-family="Helvetica,sans-Serif" font-size="10.00">lmms::gui::FloatModelEditor</text>
<text xml:space="preserve" text-anchor="middle" x="258" y="-103.75" font-family="Helvetica,sans-Serif" font-size="10.00">Base::sliderMoved</text>
</a>
</g>
</g>
<!-- Node2&#45;&gt;Node34 -->
<g id="edge5_Node000002_Node000034" class="edge">
<title>Node2&#45;&gt;Node34</title>
<g id="a_edge5_Node000002_Node000034"><a xlink:title=" ">
<path fill="none" stroke="#63b8ff" d="M390.68,-189.83C359.1,-171.47 314.35,-145.44 286.01,-128.96"/>
<polygon fill="#63b8ff" stroke="#63b8ff" points="388.72,-192.74 399.12,-194.74 392.23,-186.69 388.72,-192.74"/>
</a>
</g>
</g>
<!-- Node4 -->
<g id="Node000004" class="node">
<title>Node4</title>
<g id="a_Node000004"><a xlink:href="classlmms_1_1gui_1_1FloatModelEditorBase.html#a2d78d76b7a4cc49a08c4a472a6a279c1" target="_top" xlink:title="default ctor">
<polygon fill="#fff0f0" stroke="red" points="146.5,-373.5 8.25,-373.5 8.25,-343 146.5,-343 146.5,-373.5"/>
<text xml:space="preserve" text-anchor="start" x="16.25" y="-360" font-family="Helvetica,sans-Serif" font-size="10.00">lmms::gui::FloatModelEditor</text>
<text xml:space="preserve" text-anchor="middle" x="77.38" y="-348.75" font-family="Helvetica,sans-Serif" font-size="10.00">Base::FloatModelEditorBase</text>
</a>
</g>
</g>
<!-- Node3&#45;&gt;Node4 -->
<g id="edge3_Node000003_Node000004" class="edge">
<title>Node3&#45;&gt;Node4</title>
<g id="a_edge3_Node000003_Node000004"><a xlink:title=" ">
<path fill="none" stroke="#63b8ff" d="M189.2,-327.85C171.59,-332.68 152.78,-337.84 135.76,-342.51"/>
<polygon fill="#63b8ff" stroke="#63b8ff" points="189.81,-331.31 198.53,-325.29 187.96,-324.56 189.81,-331.31"/>
</a>
</g>
</g>
<!-- Node33 -->
<g id="Node000033" class="node">
<title>Node33</title>
<g id="a_Node000033"><a xlink:href="classlmms_1_1gui_1_1FloatModelEditorBase.html#a6d8fa326499d8620630c9cb87f4ce688" target="_top" xlink:title=" ">
<polygon fill="white" stroke="#666666" points="150.62,-324.5 4.12,-324.5 4.12,-294 150.62,-294 150.62,-324.5"/>
<text xml:space="preserve" text-anchor="start" x="12.12" y="-311" font-family="Helvetica,sans-Serif" font-size="10.00">lmms::gui::FloatModelEditor</text>
<text xml:space="preserve" text-anchor="middle" x="77.38" y="-299.75" font-family="Helvetica,sans-Serif" font-size="10.00">Base::mapPropertyFromModel</text>
</a>
</g>
</g>
<!-- Node3&#45;&gt;Node33 -->
<g id="edge4_Node000003_Node000033" class="edge">
<title>Node3&#45;&gt;Node33</title>
<g id="a_edge4_Node000003_Node000033"><a xlink:title=" ">
<path fill="none" stroke="#63b8ff" d="M179.16,-309.25C169.79,-309.25 160.24,-309.25 150.94,-309.25"/>
<polygon fill="#63b8ff" stroke="#63b8ff" points="178.97,-312.75 188.97,-309.25 178.97,-305.75 178.97,-312.75"/>
</a>
</g>
</g>
<!-- Node35 -->
<g id="Node000035" class="node">
<title>Node35</title>
<g id="a_Node000035"><a xlink:href="classlmms_1_1gui_1_1TempoSyncBarModelEditor.html#a9119000ecaba7ebdfd2c9f7d0d625af6" target="_top" xlink:title=" ">
<polygon fill="#fff0f0" stroke="red" points="154.75,-275.5 0,-275.5 0,-245 154.75,-245 154.75,-275.5"/>
<text xml:space="preserve" text-anchor="start" x="8" y="-262" font-family="Helvetica,sans-Serif" font-size="10.00">lmms::gui::TempoSyncBarModel</text>
<text xml:space="preserve" text-anchor="middle" x="77.38" y="-250.75" font-family="Helvetica,sans-Serif" font-size="10.00">Editor::modelChanged</text>
</a>
</g>
</g>
<!-- Node34&#45;&gt;Node35 -->
<g id="edge6_Node000034_Node000035" class="edge">
<title>Node34&#45;&gt;Node35</title>
<g id="a_edge6_Node000034_Node000035"><a xlink:title=" ">
<path fill="none" stroke="#63b8ff" d="M242,-138.44C224.39,-165.97 192.71,-209.57 154.75,-235.25 149.43,-238.85 143.56,-241.96 137.51,-244.64"/>
<polygon fill="#63b8ff" stroke="#63b8ff" points="244.93,-140.37 247.25,-130.03 238.99,-136.67 244.93,-140.37"/>
</a>
</g>
</g>
<!-- Node36 -->
<g id="Node000036" class="node">
<title>Node36</title>
<g id="a_Node000036"><a xlink:href="classlmms_1_1gui_1_1TempoSyncKnob.html#a23ed79ef085fdc8806705bdc45ca2fee" target="_top" xlink:title=" ">
<polygon fill="white" stroke="#666666" points="145.38,-226.5 9.38,-226.5 9.38,-196 145.38,-196 145.38,-226.5"/>
<text xml:space="preserve" text-anchor="start" x="17.38" y="-213" font-family="Helvetica,sans-Serif" font-size="10.00">lmms::gui::TempoSyncKnob</text>
<text xml:space="preserve" text-anchor="middle" x="77.38" y="-201.75" font-family="Helvetica,sans-Serif" font-size="10.00">::modelChanged</text>
</a>
</g>
</g>
<!-- Node34&#45;&gt;Node36 -->
<g id="edge7_Node000034_Node000036" class="edge">
<title>Node34&#45;&gt;Node36</title>
<g id="a_edge7_Node000034_Node000036"><a xlink:title=" ">
<path fill="none" stroke="#63b8ff" d="M230.13,-135.9C210.31,-151.72 182.14,-172.4 154.75,-186.25 147.9,-189.71 140.47,-192.84 133.02,-195.62"/>
<polygon fill="#63b8ff" stroke="#63b8ff" points="232.15,-138.77 237.71,-129.75 227.74,-133.34 232.15,-138.77"/>
</a>
</g>
</g>
<!-- Node37 -->
<g id="Node000037" class="node">
<title>Node37</title>
<g id="a_Node000037"><a xlink:href="classlmms_1_1gui_1_1Draggable.html#ae79d9fcd6491e9b23860665efd714470" target="_top" xlink:title=" ">
<polygon fill="white" stroke="#666666" points="130,-177.5 24.75,-177.5 24.75,-147 130,-147 130,-177.5"/>
<text xml:space="preserve" text-anchor="start" x="32.75" y="-164" font-family="Helvetica,sans-Serif" font-size="10.00">lmms::gui::Draggable</text>
<text xml:space="preserve" text-anchor="middle" x="77.38" y="-152.75" font-family="Helvetica,sans-Serif" font-size="10.00">::mouseMoveEvent</text>
</a>
</g>
</g>
<!-- Node34&#45;&gt;Node37 -->
<g id="edge8_Node000034_Node000037" class="edge">
<title>Node34&#45;&gt;Node37</title>
<g id="a_edge8_Node000034_Node000037"><a xlink:title=" ">
<path fill="none" stroke="#63b8ff" d="M189.03,-131.89C169.56,-137.24 148.65,-142.97 130.31,-148"/>
<polygon fill="#63b8ff" stroke="#63b8ff" points="189.81,-135.31 198.53,-129.29 187.96,-128.56 189.81,-135.31"/>
</a>
</g>
</g>
<!-- Node38 -->
<g id="Node000038" class="node">
<title>Node38</title>
<g id="a_Node000038"><a xlink:href="classlmms_1_1gui_1_1FloatModelEditorBase.html#ac2eb4e42abbe376fdff1baf709f7a532" target="_top" xlink:title=" ">
<polygon fill="white" stroke="#666666" points="144.62,-128.5 10.12,-128.5 10.12,-98 144.62,-98 144.62,-128.5"/>
<text xml:space="preserve" text-anchor="start" x="18.12" y="-115" font-family="Helvetica,sans-Serif" font-size="10.00">lmms::gui::FloatModelEditor</text>
<text xml:space="preserve" text-anchor="middle" x="77.38" y="-103.75" font-family="Helvetica,sans-Serif" font-size="10.00">Base::mouseMoveEvent</text>
</a>
</g>
</g>
<!-- Node34&#45;&gt;Node38 -->
<g id="edge9_Node000034_Node000038" class="edge">
<title>Node34&#45;&gt;Node38</title>
<g id="a_edge9_Node000034_Node000038"><a xlink:title=" ">
<path fill="none" stroke="#63b8ff" d="M179.19,-106.55C167.77,-106.45 156.1,-106.5 144.94,-106.7"/>
<polygon fill="#63b8ff" stroke="#63b8ff" points="178.93,-110.05 188.97,-106.68 179.02,-103.05 178.93,-110.05"/>
</a>
</g>
</g>
<!-- Node39 -->
<g id="Node000039" class="node">
<title>Node39</title>
<g id="a_Node000039"><a xlink:href="classlmms_1_1gui_1_1AudioFileProcessorWaveView_1_1knob.html#a3df09d0ba36e57d1e0ab42c0b7998daf" target="_top" xlink:title=" ">
<polygon fill="#fff0f0" stroke="red" points="150.62,-79.5 4.12,-79.5 4.12,-49 150.62,-49 150.62,-79.5"/>
<text xml:space="preserve" text-anchor="start" x="12.12" y="-66" font-family="Helvetica,sans-Serif" font-size="10.00">lmms::gui::AudioFileProcessor</text>
<text xml:space="preserve" text-anchor="middle" x="77.38" y="-54.75" font-family="Helvetica,sans-Serif" font-size="10.00">WaveView::knob::slideTo</text>
</a>
</g>
</g>
<!-- Node34&#45;&gt;Node39 -->
<g id="edge11_Node000034_Node000039" class="edge">
<title>Node34&#45;&gt;Node39</title>
<g id="a_edge11_Node000034_Node000039"><a xlink:title=" ">
<path fill="none" stroke="#63b8ff" d="M189.2,-94.65C171.59,-89.82 152.78,-84.66 135.76,-79.99"/>
<polygon fill="#63b8ff" stroke="#63b8ff" points="187.96,-97.94 198.53,-97.21 189.81,-91.19 187.96,-97.94"/>
</a>
</g>
</g>
<!-- Node51 -->
<g id="Node000051" class="node">
<title>Node51</title>
<g id="a_Node000051"><a xlink:href="classlmms_1_1gui_1_1FloatModelEditorBase.html#a697f842e73f3799ccf6ec38b3439b2f0" target="_top" xlink:title=" ">
<polygon fill="white" stroke="#666666" points="144.62,-30.5 10.12,-30.5 10.12,0 144.62,0 144.62,-30.5"/>
<text xml:space="preserve" text-anchor="start" x="18.12" y="-17" font-family="Helvetica,sans-Serif" font-size="10.00">lmms::gui::FloatModelEditor</text>
<text xml:space="preserve" text-anchor="middle" x="77.38" y="-5.75" font-family="Helvetica,sans-Serif" font-size="10.00">Base::wheelEvent</text>
</a>
</g>
</g>
<!-- Node34&#45;&gt;Node51 -->
<g id="edge12_Node000034_Node000051" class="edge">
<title>Node34&#45;&gt;Node51</title>
<g id="a_edge12_Node000034_Node000051"><a xlink:title=" ">
<path fill="none" stroke="#63b8ff" d="M237.3,-89.54C217.52,-71.18 185.64,-46.87 154.75,-31.25 151.64,-29.68 148.4,-28.17 145.1,-26.74"/>
<polygon fill="#63b8ff" stroke="#63b8ff" points="234.8,-91.99 244.4,-96.45 239.68,-86.97 234.8,-91.99"/>
</a>
</g>
</g>
<!-- Node38&#45;&gt;Node34 -->
<g id="edge10_Node000038_Node000034" class="edge">
<title>Node38&#45;&gt;Node34</title>
<g id="a_edge10_Node000038_Node000034"><a xlink:title=" ">
<path fill="none" stroke="#63b8ff" d="M156.25,-119.95C167.66,-120.05 179.33,-120 190.49,-119.8"/>
<polygon fill="#63b8ff" stroke="#63b8ff" points="156.5,-116.45 146.46,-119.82 156.41,-123.45 156.5,-116.45"/>
</a>
</g>
</g>
<!-- Node51&#45;&gt;Node34 -->
<g id="edge13_Node000051_Node000034" class="edge">
<title>Node51&#45;&gt;Node34</title>
<g id="a_edge13_Node000051_Node000034"><a xlink:title=" ">
<path fill="none" stroke="#63b8ff" d="M119.1,-34.67C130.9,-38.86 143.6,-43.61 154.75,-49.25 181.81,-62.93 209.63,-83.28 229.4,-97.58"/>
<polygon fill="#63b8ff" stroke="#63b8ff" points="120.61,-31.49 110.02,-31.48 118.29,-38.1 120.61,-31.49"/>
</a>
</g>
</g>
</g>
</svg>

<g id="navigator" transform="translate(0 0)" fill="#404254">
  <rect fill="#f2f5e9" fill-opacity="0.5" stroke="#606060" stroke-width=".5" x="0" y="0" width="60" height="60"/>
  <use id="zoomplus" xlink:href="#zoomPlus" x="17" y="9" onmousedown="handleZoom(evt,'in')"/>
  <use id="zoomminus" xlink:href="#zoomMin" x="42" y="9" onmousedown="handleZoom(evt,'out')"/>
  <use id="reset" xlink:href="#resetDef" x="30" y="36" onmousedown="handleReset()"/>
   <use id="arrowup" xlink:href="#arrowUp" x="0" y="0" onmousedown="handlePan(0,-1)"/>
  <use id="arrowright" xlink:href="#arrowRight" x="0" y="0" onmousedown="handlePan(1,0)"/>
  <use id="arrowdown" xlink:href="#arrowDown" x="0" y="0" onmousedown="handlePan(0,1)"/>
  <use id="arrowleft" xlink:href="#arrowLeft" x="0" y="0" onmousedown="handlePan(-1,0)"/>
</g>
<svg viewBox="0 0 15 15" width="100%" height="30px" preserveAspectRatio="xMaxYMin meet">
 <g id="arrow_out" transform="scale(0.3 0.3)">
  <a xlink:href="classlmms_1_1gui_1_1FloatModelEditorBase_ace26aa637b84d840128001e3f266dd59_icgraph_org.svg" target="_base">
   <rect id="button" ry="5" rx="5" y="6" x="6" height="38" width="38"
        fill="#f2f5e9" fill-opacity="0.5" stroke="#606060" stroke-width="1.0"/>
   <path id="arrow"
     d="M 11.500037,31.436501 C 11.940474,20.09759 22.043105,11.32322 32.158766,21.979434 L 37.068811,17.246167 C 37.068811,17.246167 37.088388,32 37.088388,32 L 22.160133,31.978069 C 22.160133,31.978069 26.997745,27.140456 26.997745,27.140456 C 18.528582,18.264221 13.291696,25.230495 11.500037,31.436501 z"
     style="fill:#404040;"/>
  </a>
 </g>
</svg>

<style type='text/css'>
<![CDATA[
[data-mouse-over-selected='false'] { opacity: 0.7; }
[data-mouse-over-selected='true']  { opacity: 1.0; }
]]>
</style>
<script type="application/ecmascript"><![CDATA[
document.addEventListener('DOMContentLoaded', (event) => {
  highlightEdges();
  highlightAdjacentNodes();
});
]]></script>
</svg>
