<?xml version="1.0" encoding="UTF-8" standalone="no"?>
<!DOCTYPE svg PUBLIC "-//W3C//DTD SVG 1.1//EN"
 "http://www.w3.org/Graphics/SVG/1.1/DTD/svg11.dtd">
<!-- Generated by graphviz version 14.0.2 (0)
 -->
<!-- Title: juce::FileTreeComponent::refresh Pages: 1 -->
<svg width="672pt" height="112pt"
 viewBox="0.00 0.00 672.00 112.00" xmlns="http://www.w3.org/2000/svg" xmlns:xlink="http://www.w3.org/1999/xlink">
<g id="graph0" class="graph" transform="scale(1 1) rotate(0) translate(4 107.88)">
<title>juce::FileTreeComponent::refresh</title>
<!-- Node1 -->
<g id="Node000001" class="node">
<title>Node1</title>
<g id="a_Node000001"><a xlink:title=" ">
<polygon fill="#999999" stroke="#666666" points="123.25,-54.88 0,-54.88 0,-24.38 123.25,-24.38 123.25,-54.88"/>
<text xml:space="preserve" text-anchor="start" x="8" y="-41.38" font-family="Helvetica,sans-Serif" font-size="10.00">juce::FileTreeComponent</text>
<text xml:space="preserve" text-anchor="middle" x="61.62" y="-30.12" font-family="Helvetica,sans-Serif" font-size="10.00">::refresh</text>
</a>
</g>
</g>
<!-- Node1&#45;&gt;Node1 -->
<g id="edge9_Node000001_Node000001" class="edge">
<title>Node1&#45;&gt;Node1</title>
<g id="a_edge9_Node000001_Node000001"><a xlink:title=" ">
<path fill="none" stroke="#63b8ff" d="M31.01,-55.36C24.77,-64.43 34.97,-72.88 61.62,-72.88 76.2,-72.88 85.86,-70.35 90.6,-66.58"/>
<polygon fill="#63b8ff" stroke="#63b8ff" points="94.03,-67.26 92.02,-56.86 87.11,-66.25 94.03,-67.26"/>
</a>
</g>
</g>
<!-- Node2 -->
<g id="Node000002" class="node">
<title>Node2</title>
<g id="a_Node000002"><a xlink:href="classjuce_1_1TreeView.html#aefb5e21ee03d6d2c0346578f34c91ae9" target="_top" xlink:title=" ">
<polygon fill="white" stroke="#666666" points="309.5,-68.25 159.25,-68.25 159.25,-49 309.5,-49 309.5,-68.25"/>
<text xml:space="preserve" text-anchor="middle" x="234.38" y="-54.75" font-family="Helvetica,sans-Serif" font-size="10.00">juce::TreeView::deleteRootItem</text>
</a>
</g>
</g>
<!-- Node1&#45;&gt;Node2 -->
<g id="edge1_Node000001_Node000002" class="edge">
<title>Node1&#45;&gt;Node2</title>
<g id="a_edge1_Node000001_Node000002"><a xlink:title=" ">
<path fill="none" stroke="#63b8ff" d="M123.31,-46.38C131.21,-47.26 139.43,-48.17 147.65,-49.09"/>
<polygon fill="#63b8ff" stroke="#63b8ff" points="147.01,-52.54 157.33,-50.16 147.78,-45.58 147.01,-52.54"/>
</a>
</g>
</g>
<!-- Node3 -->
<g id="Node000003" class="node">
<title>Node3</title>
<g id="a_Node000003"><a xlink:href="classjuce_1_1TreeView.html#afcc347c24db7b4d8c7a58a2a31d56265" target="_top" xlink:title=" ">
<polygon fill="white" stroke="#666666" points="483,-49.25 345.5,-49.25 345.5,-30 483,-30 483,-49.25"/>
<text xml:space="preserve" text-anchor="middle" x="414.25" y="-35.75" font-family="Helvetica,sans-Serif" font-size="10.00">juce::TreeView::setRootItem</text>
</a>
</g>
</g>
<!-- Node1&#45;&gt;Node3 -->
<g id="edge10_Node000001_Node000003" class="edge">
<title>Node1&#45;&gt;Node3</title>
<g id="a_edge10_Node000001_Node000003"><a xlink:title=" ">
<path fill="none" stroke="#63b8ff" d="M123.7,-39.62C182,-39.62 270.16,-39.62 333.89,-39.62"/>
<polygon fill="#63b8ff" stroke="#63b8ff" points="333.57,-43.13 343.57,-39.63 333.57,-36.13 333.57,-43.13"/>
</a>
</g>
</g>
<!-- Node2&#45;&gt;Node2 -->
<g id="edge2_Node000002_Node000002" class="edge">
<title>Node2&#45;&gt;Node2</title>
<g id="a_edge2_Node000002_Node000002"><a xlink:title=" ">
<path fill="none" stroke="#63b8ff" d="M207.33,-68.54C194.99,-77.15 204.01,-86.25 234.38,-86.25 251.46,-86.25 261.78,-83.37 265.35,-79.32"/>
<polygon fill="#63b8ff" stroke="#63b8ff" points="268.65,-78.16 261.94,-69.96 262.08,-80.55 268.65,-78.16"/>
</a>
</g>
</g>
<!-- Node2&#45;&gt;Node3 -->
<g id="edge3_Node000002_Node000003" class="edge">
<title>Node2&#45;&gt;Node3</title>
<g id="a_edge3_Node000002_Node000003"><a xlink:title=" ">
<path fill="none" stroke="#63b8ff" d="M309.78,-50.68C317.74,-49.83 325.86,-48.96 333.87,-48.1"/>
<polygon fill="#63b8ff" stroke="#63b8ff" points="334.03,-51.61 343.6,-47.07 333.28,-44.65 334.03,-51.61"/>
</a>
</g>
</g>
<!-- Node3&#45;&gt;Node3 -->
<g id="edge6_Node000003_Node000003" class="edge">
<title>Node3&#45;&gt;Node3</title>
<g id="a_edge6_Node000003_Node000003"><a xlink:title=" ">
<path fill="none" stroke="#63b8ff" d="M386.5,-49.54C373.84,-58.15 383.09,-67.25 414.25,-67.25 431.78,-67.25 442.37,-64.37 446.03,-60.32"/>
<polygon fill="#63b8ff" stroke="#63b8ff" points="449.31,-59.09 442.53,-50.96 442.76,-61.55 449.31,-59.09"/>
</a>
</g>
</g>
<!-- Node4 -->
<g id="Node000004" class="node">
<title>Node4</title>
<g id="a_Node000004"><a xlink:href="classjuce_1_1TreeViewItem.html#abf7249d096d9e9c56e8798d11dd20107" target="_top" xlink:title=" ">
<polygon fill="#fff0f0" stroke="red" points="641.12,-85.88 541.88,-85.88 541.88,-55.38 641.12,-55.38 641.12,-85.88"/>
<text xml:space="preserve" text-anchor="start" x="549.88" y="-72.38" font-family="Helvetica,sans-Serif" font-size="10.00">juce::TreeViewItem</text>
<text xml:space="preserve" text-anchor="middle" x="591.5" y="-61.12" font-family="Helvetica,sans-Serif" font-size="10.00">::setOwnerView</text>
</a>
</g>
</g>
<!-- Node3&#45;&gt;Node4 -->
<g id="edge4_Node000003_Node000004" class="edge">
<title>Node3&#45;&gt;Node4</title>
<g id="a_edge4_Node000003_Node000004"><a xlink:title=" ">
<path fill="none" stroke="#63b8ff" d="M472.15,-49.69C490.78,-52.98 511.52,-56.65 530.38,-59.99"/>
<polygon fill="#63b8ff" stroke="#63b8ff" points="529.59,-63.4 540.05,-61.7 530.81,-56.51 529.59,-63.4"/>
</a>
</g>
</g>
<!-- Node63 -->
<g id="Node000063" class="node">
<title>Node63</title>
<g id="a_Node000063"><a xlink:href="classjuce_1_1TreeView.html#a6738ac8dd5a9abdf2aa124691a8c7cfe" target="_top" xlink:title=" ">
<polygon fill="#fff0f0" stroke="red" points="664,-19.25 519,-19.25 519,0 664,0 664,-19.25"/>
<text xml:space="preserve" text-anchor="middle" x="591.5" y="-5.75" font-family="Helvetica,sans-Serif" font-size="10.00">juce::TreeView::TreeViewItem</text>
</a>
</g>
</g>
<!-- Node3&#45;&gt;Node63 -->
<g id="edge7_Node000003_Node000063" class="edge">
<title>Node3&#45;&gt;Node63</title>
<g id="a_edge7_Node000003_Node000063"><a xlink:title=" ">
<path fill="none" stroke="#63b8ff" d="M474.09,-29.55C488.98,-27 505.11,-24.24 520.48,-21.61"/>
<polygon fill="#63b8ff" stroke="#63b8ff" points="520.76,-25.12 530.02,-19.98 519.57,-18.22 520.76,-25.12"/>
</a>
</g>
</g>
<!-- Node4&#45;&gt;Node4 -->
<g id="edge5_Node000004_Node000004" class="edge">
<title>Node4&#45;&gt;Node4</title>
<g id="a_edge5_Node000004_Node000004"><a xlink:title=" ">
<path fill="none" stroke="#63b8ff" d="M560.09,-86.36C553.68,-95.43 564.15,-103.88 591.5,-103.88 606.46,-103.88 616.36,-101.35 621.23,-97.58"/>
<polygon fill="#63b8ff" stroke="#63b8ff" points="624.66,-98.27 622.68,-87.86 617.74,-97.23 624.66,-98.27"/>
</a>
</g>
</g>
<!-- Node63&#45;&gt;Node63 -->
<g id="edge8_Node000063_Node000063" class="edge">
<title>Node63&#45;&gt;Node63</title>
<g id="a_edge8_Node000063_Node000063"><a xlink:title=" ">
<path fill="none" stroke="#63b8ff" d="M563.75,-19.54C551.09,-28.15 560.34,-37.25 591.5,-37.25 609.03,-37.25 619.62,-34.37 623.28,-30.32"/>
<polygon fill="#63b8ff" stroke="#63b8ff" points="626.56,-29.09 619.78,-20.96 620.01,-31.55 626.56,-29.09"/>
</a>
</g>
</g>
</g>
</svg>
