<?xml version="1.0" encoding="UTF-8" standalone="no"?>
<!DOCTYPE svg PUBLIC "-//W3C//DTD SVG 1.1//EN"
 "http://www.w3.org/Graphics/SVG/1.1/DTD/svg11.dtd">
<!-- Generated by graphviz version 14.0.2 (0)
 -->
<!-- Title: juce::AudioProcessorParameter::setValue Pages: 1 -->
<!--zoomable 176 -->

<svg id="main" version="1.1" xmlns="http://www.w3.org/2000/svg" xmlns:xlink="http://www.w3.org/1999/xlink" xml:space="preserve" onload="init(evt)">

<style type="text/css"><![CDATA[
.node, .edge {opacity: 0.7;}
.node.selected, .edge.selected {opacity: 1;}
.edge:hover path { stroke: red; }
.edge:hover polygon { stroke: red; fill: red; }
]]></style>

<defs>
  <circle id="rim" cx="0" cy="0" r="7"/>
  <circle id="rim2" cx="0" cy="0" r="3.5"/>
  <g id="zoomPlus">
    <use xlink:href="#rim" fill="#404040"><set attributeName="fill" to="#808080" begin="zoomplus.mouseover" end="zoomplus.mouseout"/></use>
    <path d="M-4,0h8M0,-4v8" fill="none" stroke="white" stroke-width="1.5" pointer-events="none"/>
  </g>
  <g id="zoomMin">
    <use xlink:href="#rim" fill="#404040"><set attributeName="fill" to="#808080" begin="zoomminus.mouseover" end="zoomminus.mouseout"/></use>
    <path d="M-4,0h8" fill="none" stroke="white" stroke-width="1.5" pointer-events="none"/>
  </g>
  <g id="arrowUp" transform="translate(30 24)">
    <use xlink:href="#rim"/>
    <path pointer-events="none" fill="none" stroke="white" stroke-width="1.5" d="M0,-3.0v7 M-2.5,-0.5L0,-3.0L2.5,-0.5"/>
  </g>
  <g id="arrowRight" transform="rotate(90) translate(36 -43)">
    <use xlink:href="#rim"/>
    <path pointer-events="none" fill="none" stroke="white" stroke-width="1.5" d="M0,-3.0v7 M-2.5,-0.5L0,-3.0L2.5,-0.5"/>
  </g>
  <g id="arrowDown" transform="rotate(180) translate(-30 -48)">
    <use xlink:href="#rim"/>
    <path pointer-events="none" fill="none" stroke="white" stroke-width="1.5" d="M0,-3.0v7 M-2.5,-0.5L0,-3.0L2.5,-0.5"/>
  </g>
  <g id="arrowLeft" transform="rotate(270) translate(-36 17)">
    <use xlink:href="#rim"/>
    <path pointer-events="none" fill="none" stroke="white" stroke-width="1.5" d="M0,-3.0v7 M-2.5,-0.5L0,-3.0L2.5,-0.5"/>
  </g>
  <g id="resetDef">
    <use xlink:href="#rim2" fill="#404040"><set attributeName="fill" to="#808080" begin="reset.mouseover" end="reset.mouseout"/></use>
  </g>
</defs>
<script type="application/ecmascript">
var viewWidth = 770;
var viewHeight = 176;
var sectionId = 'dynsection-42';
</script>
<script type="application/ecmascript" xlink:href="svg.min.js"/>
<svg id="graph" class="graph">
<g id="viewport">
<title>juce::AudioProcessorParameter::setValue</title>
<!-- Node1 -->
<g id="Node000001" class="node">
<title>Node1</title>
<g id="a_Node000001"><a xlink:title=" ">
<polygon fill="#999999" stroke="#666666" points="152.5,-63.5 0,-63.5 0,-33 152.5,-33 152.5,-63.5"/>
<text xml:space="preserve" text-anchor="start" x="8" y="-50" font-family="Helvetica,sans-Serif" font-size="10.00">juce::AudioProcessorParameter</text>
<text xml:space="preserve" text-anchor="middle" x="76.25" y="-38.75" font-family="Helvetica,sans-Serif" font-size="10.00">::setValue</text>
</a>
</g>
</g>
<!-- Node2 -->
<g id="Node000002" class="node">
<title>Node2</title>
<g id="a_Node000002"><a xlink:href="classjuce_1_1AudioProcessorParameter.html#a3edab6efb40c5d07502b74123ee535cd" target="_top" xlink:title=" ">
<polygon fill="white" stroke="#666666" points="551.25,-149.5 398.75,-149.5 398.75,-119 551.25,-119 551.25,-149.5"/>
<text xml:space="preserve" text-anchor="start" x="406.75" y="-136" font-family="Helvetica,sans-Serif" font-size="10.00">juce::AudioProcessorParameter</text>
<text xml:space="preserve" text-anchor="middle" x="475" y="-124.75" font-family="Helvetica,sans-Serif" font-size="10.00">::beginChangeGesture</text>
</a>
</g>
</g>
<!-- Node1&#45;&gt;Node2 -->
<g id="edge1_Node000001_Node000002" class="edge">
<title>Node1&#45;&gt;Node2</title>
<g id="a_edge1_Node000001_Node000002"><a xlink:title=" ">
<path fill="none" stroke="#63b8ff" d="M93.33,-63.7C113.63,-82.06 150.5,-111.78 188.5,-124.25 252.67,-145.31 329.35,-146.8 387.08,-143.57"/>
<polygon fill="#63b8ff" stroke="#63b8ff" points="387.09,-147.08 396.85,-142.96 386.65,-140.09 387.09,-147.08"/>
</a>
</g>
</g>
<!-- Node4 -->
<g id="Node000004" class="node">
<title>Node4</title>
<g id="a_Node000004"><a xlink:href="classjuce_1_1AudioProcessorParameter.html#a76511163033624d588bced11f4832fe1" target="_top" xlink:title=" ">
<polygon fill="white" stroke="#666666" points="341,-97.5 188.5,-97.5 188.5,-67 341,-67 341,-97.5"/>
<text xml:space="preserve" text-anchor="start" x="196.5" y="-84" font-family="Helvetica,sans-Serif" font-size="10.00">juce::AudioProcessorParameter</text>
<text xml:space="preserve" text-anchor="middle" x="264.75" y="-72.75" font-family="Helvetica,sans-Serif" font-size="10.00">::endChangeGesture</text>
</a>
</g>
</g>
<!-- Node1&#45;&gt;Node4 -->
<g id="edge4_Node000001_Node000004" class="edge">
<title>Node1&#45;&gt;Node4</title>
<g id="a_edge4_Node000001_Node000004"><a xlink:title=" ">
<path fill="none" stroke="#63b8ff" d="M152.84,-62.03C160.73,-63.47 168.8,-64.94 176.8,-66.4"/>
<polygon fill="#63b8ff" stroke="#63b8ff" points="176.1,-69.83 186.57,-68.18 177.36,-62.94 176.1,-69.83"/>
</a>
</g>
</g>
<!-- Node5 -->
<g id="Node000005" class="node">
<title>Node5</title>
<g id="a_Node000005"><a xlink:href="classjuce_1_1AudioProcessorParameter.html#a71740140e0c811bd78747709b1781579" target="_top" xlink:title=" ">
<polygon fill="white" stroke="#666666" points="341,-30.5 188.5,-30.5 188.5,0 341,0 341,-30.5"/>
<text xml:space="preserve" text-anchor="start" x="196.5" y="-17" font-family="Helvetica,sans-Serif" font-size="10.00">juce::AudioProcessorParameter</text>
<text xml:space="preserve" text-anchor="middle" x="264.75" y="-5.75" font-family="Helvetica,sans-Serif" font-size="10.00">::setValueNotifyingHost</text>
</a>
</g>
</g>
<!-- Node1&#45;&gt;Node5 -->
<g id="edge7_Node000001_Node000005" class="edge">
<title>Node1&#45;&gt;Node5</title>
<g id="a_edge7_Node000001_Node000005"><a xlink:title=" ">
<path fill="none" stroke="#63b8ff" d="M131.19,-32.52C145.48,-29.56 161.27,-26.58 176.82,-23.9"/>
<polygon fill="#63b8ff" stroke="#63b8ff" points="177.31,-27.36 186.59,-22.25 176.15,-20.46 177.31,-27.36"/>
</a>
</g>
</g>
<!-- Node2&#45;&gt;Node2 -->
<g id="edge2_Node000002_Node000002" class="edge">
<title>Node2&#45;&gt;Node2</title>
<g id="a_edge2_Node000002_Node000002"><a xlink:title=" ">
<path fill="none" stroke="#63b8ff" d="M437.74,-149.99C430.14,-159.06 442.56,-167.5 475,-167.5 492.74,-167.5 504.49,-164.97 510.26,-161.2"/>
<polygon fill="#63b8ff" stroke="#63b8ff" points="513.68,-161.93 511.99,-151.48 506.79,-160.71 513.68,-161.93"/>
</a>
</g>
</g>
<!-- Node3 -->
<g id="Node000003" class="node">
<title>Node3</title>
<g id="a_Node000003"><a xlink:href="classjuce_1_1AudioProcessorParameter.html#aafa99f6114fee8de0062a2e9649bf461" target="_top" xlink:title=" ">
<polygon fill="white" stroke="#666666" points="761.5,-97.5 609,-97.5 609,-67 761.5,-67 761.5,-97.5"/>
<text xml:space="preserve" text-anchor="start" x="617" y="-84" font-family="Helvetica,sans-Serif" font-size="10.00">juce::AudioProcessorParameter</text>
<text xml:space="preserve" text-anchor="middle" x="685.25" y="-72.75" font-family="Helvetica,sans-Serif" font-size="10.00">::getParameterIndex</text>
</a>
</g>
</g>
<!-- Node2&#45;&gt;Node3 -->
<g id="edge3_Node000002_Node000003" class="edge">
<title>Node2&#45;&gt;Node3</title>
<g id="a_edge3_Node000002_Node000003"><a xlink:title=" ">
<path fill="none" stroke="#63b8ff" d="M539.05,-118.51C561.58,-112.88 587.16,-106.49 610.51,-100.66"/>
<polygon fill="#63b8ff" stroke="#63b8ff" points="611.09,-104.12 619.95,-98.31 609.4,-97.33 611.09,-104.12"/>
</a>
</g>
</g>
<!-- Node4&#45;&gt;Node3 -->
<g id="edge6_Node000004_Node000003" class="edge">
<title>Node4&#45;&gt;Node3</title>
<g id="a_edge6_Node000004_Node000003"><a xlink:title=" ">
<path fill="none" stroke="#63b8ff" d="M341.05,-82.25C413.13,-82.25 521.78,-82.25 597.46,-82.25"/>
<polygon fill="#63b8ff" stroke="#63b8ff" points="597.33,-85.75 607.33,-82.25 597.33,-78.75 597.33,-85.75"/>
</a>
</g>
</g>
<!-- Node4&#45;&gt;Node4 -->
<g id="edge5_Node000004_Node000004" class="edge">
<title>Node4&#45;&gt;Node4</title>
<g id="a_edge5_Node000004_Node000004"><a xlink:title=" ">
<path fill="none" stroke="#63b8ff" d="M231.35,-97.99C224.53,-107.06 235.67,-115.5 264.75,-115.5 280.66,-115.5 291.19,-112.97 296.36,-109.2"/>
<polygon fill="#63b8ff" stroke="#63b8ff" points="299.79,-109.91 297.91,-99.48 292.88,-108.8 299.79,-109.91"/>
</a>
</g>
</g>
<!-- Node5&#45;&gt;Node1 -->
<g id="edge11_Node000005_Node000001" class="edge">
<title>Node5&#45;&gt;Node1</title>
<g id="a_edge11_Node000005_Node000001"><a xlink:title=" ">
<path fill="none" stroke="#63b8ff" d="M209.81,-30.98C195.5,-33.95 179.69,-36.93 164.11,-39.62"/>
<polygon fill="#63b8ff" stroke="#63b8ff" points="163.61,-36.15 154.33,-41.26 164.77,-43.05 163.61,-36.15"/>
</a>
</g>
</g>
<!-- Node5&#45;&gt;Node5 -->
<g id="edge12_Node000005_Node000005" class="edge">
<title>Node5&#45;&gt;Node5</title>
<g id="a_edge12_Node000005_Node000005"><a xlink:title=" ">
<path fill="none" stroke="#63b8ff" d="M231.35,-30.99C224.53,-40.06 235.67,-48.5 264.75,-48.5 280.66,-48.5 291.19,-45.97 296.36,-42.2"/>
<polygon fill="#63b8ff" stroke="#63b8ff" points="299.79,-42.91 297.91,-32.48 292.88,-41.8 299.79,-42.91"/>
</a>
</g>
</g>
<!-- Node6 -->
<g id="Node000006" class="node">
<title>Node6</title>
<g id="a_Node000006"><a xlink:href="classjuce_1_1AudioProcessorParameter.html#a09365c0043887e2591e2581119a34919" target="_top" xlink:title=" ">
<polygon fill="white" stroke="#666666" points="573,-33.5 377,-33.5 377,-3 573,-3 573,-33.5"/>
<text xml:space="preserve" text-anchor="start" x="385" y="-20" font-family="Helvetica,sans-Serif" font-size="10.00">juce::AudioProcessorParameter</text>
<text xml:space="preserve" text-anchor="middle" x="475" y="-8.75" font-family="Helvetica,sans-Serif" font-size="10.00">::sendValueChangedMessageToListeners</text>
</a>
</g>
</g>
<!-- Node5&#45;&gt;Node6 -->
<g id="edge8_Node000005_Node000006" class="edge">
<title>Node5&#45;&gt;Node6</title>
<g id="a_edge8_Node000005_Node000006"><a xlink:title=" ">
<path fill="none" stroke="#63b8ff" d="M341.23,-16.34C349.06,-16.45 357.13,-16.57 365.23,-16.68"/>
<polygon fill="#63b8ff" stroke="#63b8ff" points="365.13,-20.18 375.18,-16.83 365.23,-13.18 365.13,-20.18"/>
</a>
</g>
</g>
<!-- Node6&#45;&gt;Node3 -->
<g id="edge9_Node000006_Node000003" class="edge">
<title>Node6&#45;&gt;Node3</title>
<g id="a_edge9_Node000006_Node000003"><a xlink:title=" ">
<path fill="none" stroke="#63b8ff" d="M527.21,-33.99C555.96,-42.82 592.03,-53.91 622.35,-63.23"/>
<polygon fill="#63b8ff" stroke="#63b8ff" points="621.2,-66.54 631.79,-66.13 623.26,-59.84 621.2,-66.54"/>
</a>
</g>
</g>
<!-- Node6&#45;&gt;Node6 -->
<g id="edge10_Node000006_Node000006" class="edge">
<title>Node6&#45;&gt;Node6</title>
<g id="a_edge10_Node000006_Node000006"><a xlink:title=" ">
<path fill="none" stroke="#63b8ff" d="M437.74,-33.99C430.14,-43.06 442.56,-51.5 475,-51.5 492.74,-51.5 504.49,-48.97 510.26,-45.2"/>
<polygon fill="#63b8ff" stroke="#63b8ff" points="513.68,-45.93 511.99,-35.48 506.79,-44.71 513.68,-45.93"/>
</a>
</g>
</g>
</g>
</svg>

<g id="navigator" transform="translate(0 0)" fill="#404254">
  <rect fill="#f2f5e9" fill-opacity="0.5" stroke="#606060" stroke-width=".5" x="0" y="0" width="60" height="60"/>
  <use id="zoomplus" xlink:href="#zoomPlus" x="17" y="9" onmousedown="handleZoom(evt,'in')"/>
  <use id="zoomminus" xlink:href="#zoomMin" x="42" y="9" onmousedown="handleZoom(evt,'out')"/>
  <use id="reset" xlink:href="#resetDef" x="30" y="36" onmousedown="handleReset()"/>
   <use id="arrowup" xlink:href="#arrowUp" x="0" y="0" onmousedown="handlePan(0,-1)"/>
  <use id="arrowright" xlink:href="#arrowRight" x="0" y="0" onmousedown="handlePan(1,0)"/>
  <use id="arrowdown" xlink:href="#arrowDown" x="0" y="0" onmousedown="handlePan(0,1)"/>
  <use id="arrowleft" xlink:href="#arrowLeft" x="0" y="0" onmousedown="handlePan(-1,0)"/>
</g>
<svg viewBox="0 0 15 15" width="100%" height="30px" preserveAspectRatio="xMaxYMin meet">
 <g id="arrow_out" transform="scale(0.3 0.3)">
  <a xlink:href="classjuce_1_1AudioProcessorParameter_a1fe3f3b695a87b5f5ac29576d4bdcd0a_cgraph_org.svg" target="_base">
   <rect id="button" ry="5" rx="5" y="6" x="6" height="38" width="38"
        fill="#f2f5e9" fill-opacity="0.5" stroke="#606060" stroke-width="1.0"/>
   <path id="arrow"
     d="M 11.500037,31.436501 C 11.940474,20.09759 22.043105,11.32322 32.158766,21.979434 L 37.068811,17.246167 C 37.068811,17.246167 37.088388,32 37.088388,32 L 22.160133,31.978069 C 22.160133,31.978069 26.997745,27.140456 26.997745,27.140456 C 18.528582,18.264221 13.291696,25.230495 11.500037,31.436501 z"
     style="fill:#404040;"/>
  </a>
 </g>
</svg>

<style type='text/css'>
<![CDATA[
[data-mouse-over-selected='false'] { opacity: 0.7; }
[data-mouse-over-selected='true']  { opacity: 1.0; }
]]>
</style>
<script type="application/ecmascript"><![CDATA[
document.addEventListener('DOMContentLoaded', (event) => {
  highlightEdges();
  highlightAdjacentNodes();
});
]]></script>
</svg>
