<?xml version="1.0" encoding="UTF-8" standalone="no"?>
<!DOCTYPE svg PUBLIC "-//W3C//DTD SVG 1.1//EN"
 "http://www.w3.org/Graphics/SVG/1.1/DTD/svg11.dtd">
<!-- Generated by graphviz version 14.0.2 (0)
 -->
<!-- Title: juce::TextEditor::parentHierarchyChanged Pages: 1 -->
<!--zoomable 325 -->

<svg id="main" version="1.1" xmlns="http://www.w3.org/2000/svg" xmlns:xlink="http://www.w3.org/1999/xlink" xml:space="preserve" onload="init(evt)">

<style type="text/css"><![CDATA[
.node, .edge {opacity: 0.7;}
.node.selected, .edge.selected {opacity: 1;}
.edge:hover path { stroke: red; }
.edge:hover polygon { stroke: red; fill: red; }
]]></style>

<defs>
  <circle id="rim" cx="0" cy="0" r="7"/>
  <circle id="rim2" cx="0" cy="0" r="3.5"/>
  <g id="zoomPlus">
    <use xlink:href="#rim" fill="#404040"><set attributeName="fill" to="#808080" begin="zoomplus.mouseover" end="zoomplus.mouseout"/></use>
    <path d="M-4,0h8M0,-4v8" fill="none" stroke="white" stroke-width="1.5" pointer-events="none"/>
  </g>
  <g id="zoomMin">
    <use xlink:href="#rim" fill="#404040"><set attributeName="fill" to="#808080" begin="zoomminus.mouseover" end="zoomminus.mouseout"/></use>
    <path d="M-4,0h8" fill="none" stroke="white" stroke-width="1.5" pointer-events="none"/>
  </g>
  <g id="arrowUp" transform="translate(30 24)">
    <use xlink:href="#rim"/>
    <path pointer-events="none" fill="none" stroke="white" stroke-width="1.5" d="M0,-3.0v7 M-2.5,-0.5L0,-3.0L2.5,-0.5"/>
  </g>
  <g id="arrowRight" transform="rotate(90) translate(36 -43)">
    <use xlink:href="#rim"/>
    <path pointer-events="none" fill="none" stroke="white" stroke-width="1.5" d="M0,-3.0v7 M-2.5,-0.5L0,-3.0L2.5,-0.5"/>
  </g>
  <g id="arrowDown" transform="rotate(180) translate(-30 -48)">
    <use xlink:href="#rim"/>
    <path pointer-events="none" fill="none" stroke="white" stroke-width="1.5" d="M0,-3.0v7 M-2.5,-0.5L0,-3.0L2.5,-0.5"/>
  </g>
  <g id="arrowLeft" transform="rotate(270) translate(-36 17)">
    <use xlink:href="#rim"/>
    <path pointer-events="none" fill="none" stroke="white" stroke-width="1.5" d="M0,-3.0v7 M-2.5,-0.5L0,-3.0L2.5,-0.5"/>
  </g>
  <g id="resetDef">
    <use xlink:href="#rim2" fill="#404040"><set attributeName="fill" to="#808080" begin="reset.mouseover" end="reset.mouseout"/></use>
  </g>
</defs>
<script type="application/ecmascript">
var viewWidth = 603;
var viewHeight = 325;
var sectionId = 'dynsection-161';
</script>
<script type="application/ecmascript" xlink:href="svg.min.js"/>
<svg id="graph" class="graph">
<g id="viewport">
<title>juce::TextEditor::parentHierarchyChanged</title>
<!-- Node1 -->
<g id="Node000001" class="node">
<title>Node1</title>
<g id="a_Node000001"><a xlink:title=" ">
<polygon fill="#999999" stroke="#666666" points="113.5,-130.5 0,-130.5 0,-100 113.5,-100 113.5,-130.5"/>
<text xml:space="preserve" text-anchor="start" x="8" y="-117" font-family="Helvetica,sans-Serif" font-size="10.00">juce::TextEditor::parent</text>
<text xml:space="preserve" text-anchor="middle" x="56.75" y="-105.75" font-family="Helvetica,sans-Serif" font-size="10.00">HierarchyChanged</text>
</a>
</g>
</g>
<!-- Node1&#45;&gt;Node1 -->
<g id="edge17_Node000001_Node000001" class="edge">
<title>Node1&#45;&gt;Node1</title>
<g id="a_edge17_Node000001_Node000001"><a xlink:title=" ">
<path fill="none" stroke="#63b8ff" d="M29.53,-130.99C23.97,-140.06 33.05,-148.5 56.75,-148.5 69.71,-148.5 78.3,-145.97 82.51,-142.2"/>
<polygon fill="#63b8ff" stroke="#63b8ff" points="85.96,-142.85 83.78,-132.49 79.02,-141.95 85.96,-142.85"/>
</a>
</g>
</g>
<!-- Node2 -->
<g id="Node000002" class="node">
<title>Node2</title>
<g id="a_Node000002"><a xlink:href="classjuce_1_1TextEditor.html#aa43d8f0db0e45ef8d47b11607e61b298" target="_top" xlink:title=" ">
<polygon fill="white" stroke="#666666" points="271.25,-130.5 149.5,-130.5 149.5,-100 271.25,-100 271.25,-130.5"/>
<text xml:space="preserve" text-anchor="start" x="157.5" y="-117" font-family="Helvetica,sans-Serif" font-size="10.00">juce::TextEditor::lookAnd</text>
<text xml:space="preserve" text-anchor="middle" x="210.38" y="-105.75" font-family="Helvetica,sans-Serif" font-size="10.00">FeelChanged</text>
</a>
</g>
</g>
<!-- Node1&#45;&gt;Node2 -->
<g id="edge1_Node000001_Node000002" class="edge">
<title>Node1&#45;&gt;Node2</title>
<g id="a_edge1_Node000001_Node000002"><a xlink:title=" ">
<path fill="none" stroke="#63b8ff" d="M113.78,-115.25C121.63,-115.25 129.79,-115.25 137.89,-115.25"/>
<polygon fill="#63b8ff" stroke="#63b8ff" points="137.74,-118.75 147.74,-115.25 137.74,-111.75 137.74,-118.75"/>
</a>
</g>
</g>
<!-- Node2&#45;&gt;Node2 -->
<g id="edge2_Node000002_Node000002" class="edge">
<title>Node2&#45;&gt;Node2</title>
<g id="a_edge2_Node000002_Node000002"><a xlink:title=" ">
<path fill="none" stroke="#63b8ff" d="M183.15,-130.99C177.6,-140.06 186.67,-148.5 210.38,-148.5 223.34,-148.5 231.93,-145.97 236.14,-142.2"/>
<polygon fill="#63b8ff" stroke="#63b8ff" points="239.58,-142.85 237.4,-132.49 232.64,-141.95 239.58,-142.85"/>
</a>
</g>
</g>
<!-- Node3 -->
<g id="Node000003" class="node">
<title>Node3</title>
<g id="a_Node000003"><a xlink:href="classjuce_1_1TextEditor.html#a7685697d758a813291367a9e413b11d3" target="_top" xlink:title=" ">
<polygon fill="white" stroke="#666666" points="429,-197.5 307.25,-197.5 307.25,-167 429,-167 429,-197.5"/>
<text xml:space="preserve" text-anchor="start" x="315.25" y="-184" font-family="Helvetica,sans-Serif" font-size="10.00">juce::TextEditor::recreate</text>
<text xml:space="preserve" text-anchor="middle" x="368.12" y="-172.75" font-family="Helvetica,sans-Serif" font-size="10.00">Caret</text>
</a>
</g>
</g>
<!-- Node2&#45;&gt;Node3 -->
<g id="edge3_Node000002_Node000003" class="edge">
<title>Node2&#45;&gt;Node3</title>
<g id="a_edge3_Node000002_Node000003"><a xlink:title=" ">
<path fill="none" stroke="#63b8ff" d="M247.89,-130.96C269.49,-140.25 297.07,-152.11 320.26,-162.09"/>
<polygon fill="#63b8ff" stroke="#63b8ff" points="318.61,-165.19 329.18,-165.93 321.37,-158.76 318.61,-165.19"/>
</a>
</g>
</g>
<!-- Node35 -->
<g id="Node000035" class="node">
<title>Node35</title>
<g id="a_Node000035"><a xlink:href="classjuce_1_1Component.html#a8a7b37be680ae337c88ea0d4c244d308" target="_top" xlink:title=" ">
<polygon fill="white" stroke="#666666" points="429,-91.88 307.25,-91.88 307.25,-72.62 429,-72.62 429,-91.88"/>
<text xml:space="preserve" text-anchor="middle" x="368.12" y="-78.38" font-family="Helvetica,sans-Serif" font-size="10.00">juce::Component::repaint</text>
</a>
</g>
</g>
<!-- Node2&#45;&gt;Node35 -->
<g id="edge11_Node000002_Node000035" class="edge">
<title>Node2&#45;&gt;Node35</title>
<g id="a_edge11_Node000002_Node000035"><a xlink:title=" ">
<path fill="none" stroke="#63b8ff" d="M271.59,-102.49C283.78,-99.91 296.58,-97.2 308.71,-94.63"/>
<polygon fill="#63b8ff" stroke="#63b8ff" points="309.08,-98.13 318.14,-92.63 307.63,-91.28 309.08,-98.13"/>
</a>
</g>
</g>
<!-- Node3&#45;&gt;Node3 -->
<g id="edge8_Node000003_Node000003" class="edge">
<title>Node3&#45;&gt;Node3</title>
<g id="a_edge8_Node000003_Node000003"><a xlink:title=" ">
<path fill="none" stroke="#63b8ff" d="M340.17,-197.99C334.47,-207.06 343.78,-215.5 368.12,-215.5 381.44,-215.5 390.25,-212.97 394.58,-209.2"/>
<polygon fill="#63b8ff" stroke="#63b8ff" points="398.02,-209.86 395.88,-199.49 391.08,-208.93 398.02,-209.86"/>
</a>
</g>
</g>
<!-- Node4 -->
<g id="Node000004" class="node">
<title>Node4</title>
<g id="a_Node000004"><a xlink:href="classjuce_1_1Component.html#ad55f2def99fd7d05f6a71ef505e1a43b" target="_top" xlink:title=" ">
<polygon fill="#fff0f0" stroke="red" points="593.88,-298.5 466.12,-298.5 466.12,-268 593.88,-268 593.88,-298.5"/>
<text xml:space="preserve" text-anchor="start" x="474.12" y="-285" font-family="Helvetica,sans-Serif" font-size="10.00">juce::Component::getLook</text>
<text xml:space="preserve" text-anchor="middle" x="530" y="-273.75" font-family="Helvetica,sans-Serif" font-size="10.00">AndFeel</text>
</a>
</g>
</g>
<!-- Node3&#45;&gt;Node4 -->
<g id="edge4_Node000003_Node000004" class="edge">
<title>Node3&#45;&gt;Node4</title>
<g id="a_edge4_Node000003_Node000004"><a xlink:title=" ">
<path fill="none" stroke="#63b8ff" d="M385.67,-197.92C403.94,-214.59 434.79,-240.9 465,-258.25 467.76,-259.84 470.65,-261.37 473.6,-262.83"/>
<polygon fill="#63b8ff" stroke="#63b8ff" points="471.88,-265.89 482.42,-266.92 474.82,-259.54 471.88,-265.89"/>
</a>
</g>
</g>
<!-- Node13 -->
<g id="Node000013" class="node">
<title>Node13</title>
<g id="a_Node000013"><a xlink:href="classjuce_1_1TextEditor.html#abfa0e5e96204cf06168e4831db464c61" target="_top" xlink:title=" ">
<polygon fill="#fff0f0" stroke="red" points="588.62,-231.5 471.38,-231.5 471.38,-201 588.62,-201 588.62,-231.5"/>
<text xml:space="preserve" text-anchor="start" x="479.38" y="-218" font-family="Helvetica,sans-Serif" font-size="10.00">juce::TextEditor::isCaret</text>
<text xml:space="preserve" text-anchor="middle" x="530" y="-206.75" font-family="Helvetica,sans-Serif" font-size="10.00">Visible</text>
</a>
</g>
</g>
<!-- Node3&#45;&gt;Node13 -->
<g id="edge6_Node000003_Node000013" class="edge">
<title>Node3&#45;&gt;Node13</title>
<g id="a_edge6_Node000003_Node000013"><a xlink:title=" ">
<path fill="none" stroke="#63b8ff" d="M429.11,-195.01C439.2,-197.15 449.74,-199.39 460.03,-201.58"/>
<polygon fill="#63b8ff" stroke="#63b8ff" points="459.07,-204.96 469.58,-203.61 460.53,-198.11 459.07,-204.96"/>
</a>
</g>
</g>
<!-- Node16 -->
<g id="Node000016" class="node">
<title>Node16</title>
<g id="a_Node000016"><a xlink:href="classjuce_1_1TextEditor.html#a744067197ef652bb3601f67d765eb7c8" target="_top" xlink:title=" ">
<polygon fill="#fff0f0" stroke="red" points="587.88,-164.5 472.12,-164.5 472.12,-134 587.88,-134 587.88,-164.5"/>
<text xml:space="preserve" text-anchor="start" x="480.12" y="-151" font-family="Helvetica,sans-Serif" font-size="10.00">juce::TextEditor::update</text>
<text xml:space="preserve" text-anchor="middle" x="530" y="-139.75" font-family="Helvetica,sans-Serif" font-size="10.00">CaretPosition</text>
</a>
</g>
</g>
<!-- Node3&#45;&gt;Node16 -->
<g id="edge9_Node000003_Node000016" class="edge">
<title>Node3&#45;&gt;Node16</title>
<g id="a_edge9_Node000003_Node000016"><a xlink:title=" ">
<path fill="none" stroke="#63b8ff" d="M429.11,-169.87C439.39,-167.75 450.14,-165.53 460.62,-163.36"/>
<polygon fill="#63b8ff" stroke="#63b8ff" points="461.29,-166.8 470.37,-161.35 459.87,-159.95 461.29,-166.8"/>
</a>
</g>
</g>
<!-- Node4&#45;&gt;Node4 -->
<g id="edge5_Node000004_Node000004" class="edge">
<title>Node4&#45;&gt;Node4</title>
<g id="a_edge5_Node000004_Node000004"><a xlink:title=" ">
<path fill="none" stroke="#63b8ff" d="M501.32,-298.99C495.46,-308.06 505.02,-316.5 530,-316.5 543.66,-316.5 552.71,-313.97 557.15,-310.2"/>
<polygon fill="#63b8ff" stroke="#63b8ff" points="560.59,-310.87 558.48,-300.49 553.65,-309.92 560.59,-310.87"/>
</a>
</g>
</g>
<!-- Node13&#45;&gt;Node13 -->
<g id="edge7_Node000013_Node000013" class="edge">
<title>Node13&#45;&gt;Node13</title>
<g id="a_edge7_Node000013_Node000013"><a xlink:title=" ">
<path fill="none" stroke="#63b8ff" d="M501.32,-231.99C495.46,-241.06 505.02,-249.5 530,-249.5 543.66,-249.5 552.71,-246.97 557.15,-243.2"/>
<polygon fill="#63b8ff" stroke="#63b8ff" points="560.59,-243.87 558.48,-233.49 553.65,-242.92 560.59,-243.87"/>
</a>
</g>
</g>
<!-- Node16&#45;&gt;Node16 -->
<g id="edge10_Node000016_Node000016" class="edge">
<title>Node16&#45;&gt;Node16</title>
<g id="a_edge10_Node000016_Node000016"><a xlink:title=" ">
<path fill="none" stroke="#63b8ff" d="M501.32,-164.99C495.46,-174.06 505.02,-182.5 530,-182.5 543.66,-182.5 552.71,-179.97 557.15,-176.2"/>
<polygon fill="#63b8ff" stroke="#63b8ff" points="560.59,-176.87 558.48,-166.49 553.65,-175.92 560.59,-176.87"/>
</a>
</g>
</g>
<!-- Node35&#45;&gt;Node35 -->
<g id="edge16_Node000035_Node000035" class="edge">
<title>Node35&#45;&gt;Node35</title>
<g id="a_edge16_Node000035_Node000035"><a xlink:title=" ">
<path fill="none" stroke="#63b8ff" d="M343.43,-92.16C332.16,-100.77 340.4,-109.88 368.12,-109.88 383.72,-109.88 393.15,-106.99 396.41,-102.94"/>
<polygon fill="#63b8ff" stroke="#63b8ff" points="399.78,-101.98 393.3,-93.6 393.14,-104.19 399.78,-101.98"/>
</a>
</g>
</g>
<!-- Node36 -->
<g id="Node000036" class="node">
<title>Node36</title>
<g id="a_Node000036"><a xlink:href="classjuce_1_1Component.html#ad886e26b7514369fe38fdc03074b7c80" target="_top" xlink:title=" ">
<polygon fill="white" stroke="#666666" points="595,-97.5 465,-97.5 465,-67 595,-67 595,-97.5"/>
<text xml:space="preserve" text-anchor="start" x="473" y="-84" font-family="Helvetica,sans-Serif" font-size="10.00">juce::Component::getLocal</text>
<text xml:space="preserve" text-anchor="middle" x="530" y="-72.75" font-family="Helvetica,sans-Serif" font-size="10.00">Bounds</text>
</a>
</g>
</g>
<!-- Node35&#45;&gt;Node36 -->
<g id="edge12_Node000035_Node000036" class="edge">
<title>Node35&#45;&gt;Node36</title>
<g id="a_edge12_Node000035_Node000036"><a xlink:title=" ">
<path fill="none" stroke="#63b8ff" d="M429.11,-82.25C437,-82.25 445.17,-82.25 453.28,-82.25"/>
<polygon fill="#63b8ff" stroke="#63b8ff" points="453.15,-85.75 463.15,-82.25 453.15,-78.75 453.15,-85.75"/>
</a>
</g>
</g>
<!-- Node37 -->
<g id="Node000037" class="node">
<title>Node37</title>
<g id="a_Node000037"><a xlink:href="classjuce_1_1Component.html#ad51044b0140c4c46c1fe67b4e6d86bb0" target="_top" xlink:title=" ">
<polygon fill="#fff0f0" stroke="red" points="592,-30.5 468,-30.5 468,0 592,0 592,-30.5"/>
<text xml:space="preserve" text-anchor="start" x="476" y="-17" font-family="Helvetica,sans-Serif" font-size="10.00">juce::Component::internal</text>
<text xml:space="preserve" text-anchor="middle" x="530" y="-5.75" font-family="Helvetica,sans-Serif" font-size="10.00">RepaintUnchecked</text>
</a>
</g>
</g>
<!-- Node35&#45;&gt;Node37 -->
<g id="edge14_Node000035_Node000037" class="edge">
<title>Node35&#45;&gt;Node37</title>
<g id="a_edge14_Node000035_Node000037"><a xlink:title=" ">
<path fill="none" stroke="#63b8ff" d="M393.06,-72.22C416.26,-62.5 452.1,-47.48 481.15,-35.3"/>
<polygon fill="#63b8ff" stroke="#63b8ff" points="482.25,-38.64 490.12,-31.54 479.55,-32.18 482.25,-38.64"/>
</a>
</g>
</g>
<!-- Node36&#45;&gt;Node36 -->
<g id="edge13_Node000036_Node000036" class="edge">
<title>Node36&#45;&gt;Node36</title>
<g id="a_edge13_Node000036_Node000036"><a xlink:title=" ">
<path fill="none" stroke="#63b8ff" d="M501.32,-97.99C495.46,-107.06 505.02,-115.5 530,-115.5 543.66,-115.5 552.71,-112.97 557.15,-109.2"/>
<polygon fill="#63b8ff" stroke="#63b8ff" points="560.59,-109.87 558.48,-99.49 553.65,-108.92 560.59,-109.87"/>
</a>
</g>
</g>
<!-- Node37&#45;&gt;Node37 -->
<g id="edge15_Node000037_Node000037" class="edge">
<title>Node37&#45;&gt;Node37</title>
<g id="a_edge15_Node000037_Node000037"><a xlink:title=" ">
<path fill="none" stroke="#63b8ff" d="M501.32,-30.99C495.46,-40.06 505.02,-48.5 530,-48.5 543.66,-48.5 552.71,-45.97 557.15,-42.2"/>
<polygon fill="#63b8ff" stroke="#63b8ff" points="560.59,-42.87 558.48,-32.49 553.65,-41.92 560.59,-42.87"/>
</a>
</g>
</g>
</g>
</svg>

<g id="navigator" transform="translate(0 0)" fill="#404254">
  <rect fill="#f2f5e9" fill-opacity="0.5" stroke="#606060" stroke-width=".5" x="0" y="0" width="60" height="60"/>
  <use id="zoomplus" xlink:href="#zoomPlus" x="17" y="9" onmousedown="handleZoom(evt,'in')"/>
  <use id="zoomminus" xlink:href="#zoomMin" x="42" y="9" onmousedown="handleZoom(evt,'out')"/>
  <use id="reset" xlink:href="#resetDef" x="30" y="36" onmousedown="handleReset()"/>
   <use id="arrowup" xlink:href="#arrowUp" x="0" y="0" onmousedown="handlePan(0,-1)"/>
  <use id="arrowright" xlink:href="#arrowRight" x="0" y="0" onmousedown="handlePan(1,0)"/>
  <use id="arrowdown" xlink:href="#arrowDown" x="0" y="0" onmousedown="handlePan(0,1)"/>
  <use id="arrowleft" xlink:href="#arrowLeft" x="0" y="0" onmousedown="handlePan(-1,0)"/>
</g>
<svg viewBox="0 0 15 15" width="100%" height="30px" preserveAspectRatio="xMaxYMin meet">
 <g id="arrow_out" transform="scale(0.3 0.3)">
  <a xlink:href="classjuce_1_1TextEditor_aea7eb39cdb6745a052b7f633bb4b5e85_cgraph_org.svg" target="_base">
   <rect id="button" ry="5" rx="5" y="6" x="6" height="38" width="38"
        fill="#f2f5e9" fill-opacity="0.5" stroke="#606060" stroke-width="1.0"/>
   <path id="arrow"
     d="M 11.500037,31.436501 C 11.940474,20.09759 22.043105,11.32322 32.158766,21.979434 L 37.068811,17.246167 C 37.068811,17.246167 37.088388,32 37.088388,32 L 22.160133,31.978069 C 22.160133,31.978069 26.997745,27.140456 26.997745,27.140456 C 18.528582,18.264221 13.291696,25.230495 11.500037,31.436501 z"
     style="fill:#404040;"/>
  </a>
 </g>
</svg>

<style type='text/css'>
<![CDATA[
[data-mouse-over-selected='false'] { opacity: 0.7; }
[data-mouse-over-selected='true']  { opacity: 1.0; }
]]>
</style>
<script type="application/ecmascript"><![CDATA[
document.addEventListener('DOMContentLoaded', (event) => {
  highlightEdges();
  highlightAdjacentNodes();
});
]]></script>
</svg>
