<?xml version="1.0" encoding="UTF-8" standalone="no"?>
<!DOCTYPE svg PUBLIC "-//W3C//DTD SVG 1.1//EN"
 "http://www.w3.org/Graphics/SVG/1.1/DTD/svg11.dtd">
<!-- Generated by graphviz version 14.0.2 (0)
 -->
<!-- Title: juce::AlertWindow::addButton Pages: 1 -->
<svg width="467pt" height="116pt"
 viewBox="0.00 0.00 467.00 116.00" xmlns="http://www.w3.org/2000/svg" xmlns:xlink="http://www.w3.org/1999/xlink">

<svg id="main" version="1.1" xmlns="http://www.w3.org/2000/svg" xmlns:xlink="http://www.w3.org/1999/xlink" xml:space="preserve">

<style type="text/css"><![CDATA[
.node, .edge {opacity: 0.7;}
.node.selected, .edge.selected {opacity: 1;}
.edge:hover path { stroke: red; }
.edge:hover polygon { stroke: red; fill: red; }
]]></style>
<script type="application/ecmascript" xlink:href="svg.min.js"/>
<svg id="graph" class="graph">
<g id="graph0" class="graph" transform="scale(1 1) rotate(0) translate(4 112.12)">
<title>juce::AlertWindow::addButton</title>
<!-- Node1 -->
<g id="Node000001" class="node">
<title>Node1</title>
<g id="a_Node000001"><a xlink:title=" ">
<polygon fill="#999999" stroke="#666666" points="459,-63.12 361.25,-63.12 361.25,-32.62 459,-32.62 459,-63.12"/>
<text xml:space="preserve" text-anchor="start" x="369.25" y="-49.62" font-family="Helvetica,sans-Serif" font-size="10.00">juce::AlertWindow::</text>
<text xml:space="preserve" text-anchor="middle" x="410.12" y="-38.38" font-family="Helvetica,sans-Serif" font-size="10.00">addButton</text>
</a>
</g>
</g>
<!-- Node1&#45;&gt;Node1 -->
<g id="edge1_Node000001_Node000001" class="edge">
<title>Node1&#45;&gt;Node1</title>
<g id="a_edge1_Node000001_Node000001"><a xlink:title=" ">
<path fill="none" stroke="#63b8ff" d="M439.1,-74.83C434.36,-78.6 424.7,-81.12 410.12,-81.12 383.47,-81.12 373.27,-72.68 379.51,-63.61"/>
<polygon fill="#63b8ff" stroke="#63b8ff" points="442.53,-75.51 440.52,-65.11 435.61,-74.5 442.53,-75.51"/>
</a>
</g>
</g>
<!-- Node2 -->
<g id="Node000002" class="node">
<title>Node2</title>
<g id="a_Node000002"><a xlink:href="classjuce_1_1LookAndFeel__V2.html#a4f8d0a21e395b16cddb7c3782375cd79" target="_top" xlink:title=" ">
<polygon fill="white" stroke="#666666" points="294.12,-90.12 180.62,-90.12 180.62,-59.62 294.12,-59.62 294.12,-90.12"/>
<text xml:space="preserve" text-anchor="start" x="188.62" y="-76.62" font-family="Helvetica,sans-Serif" font-size="10.00">juce::LookAndFeel_V2</text>
<text xml:space="preserve" text-anchor="middle" x="237.38" y="-65.38" font-family="Helvetica,sans-Serif" font-size="10.00">::createAlertWindow</text>
</a>
</g>
</g>
<!-- Node1&#45;&gt;Node2 -->
<g id="edge2_Node000001_Node000002" class="edge">
<title>Node1&#45;&gt;Node2</title>
<g id="a_edge2_Node000001_Node000002"><a xlink:title=" ">
<path fill="none" stroke="#63b8ff" d="M349.88,-57.24C331.91,-60.08 312.24,-63.2 294.48,-66"/>
<polygon fill="#63b8ff" stroke="#63b8ff" points="350.28,-60.72 359.61,-55.7 349.19,-53.81 350.28,-60.72"/>
</a>
</g>
</g>
<!-- Node4 -->
<g id="Node000004" class="node">
<title>Node4</title>
<g id="a_Node000004"><a xlink:href="classjuce_1_1KeyMappingEditorComponent_1_1ChangeKeyButton_1_1KeyEntryWindow.html#aad058a87393460e12e4d3a67a213db36" target="_top" xlink:title=" ">
<polygon fill="white" stroke="#666666" points="325.25,-41.75 149.5,-41.75 149.5,0 325.25,0 325.25,-41.75"/>
<text xml:space="preserve" text-anchor="start" x="157.5" y="-28.25" font-family="Helvetica,sans-Serif" font-size="10.00">juce::KeyMappingEditorComponent</text>
<text xml:space="preserve" text-anchor="start" x="157.5" y="-17" font-family="Helvetica,sans-Serif" font-size="10.00">::ChangeKeyButton::KeyEntryWindow</text>
<text xml:space="preserve" text-anchor="middle" x="237.38" y="-5.75" font-family="Helvetica,sans-Serif" font-size="10.00">::KeyEntryWindow</text>
</a>
</g>
</g>
<!-- Node1&#45;&gt;Node4 -->
<g id="edge6_Node000001_Node000004" class="edge">
<title>Node1&#45;&gt;Node4</title>
<g id="a_edge6_Node000001_Node000004"><a xlink:title=" ">
<path fill="none" stroke="#63b8ff" d="M349.83,-38.5C341.95,-37.25 333.74,-35.95 325.5,-34.65"/>
<polygon fill="#63b8ff" stroke="#63b8ff" points="349.19,-41.94 359.61,-40.05 350.28,-35.03 349.19,-41.94"/>
</a>
</g>
</g>
<!-- Node2&#45;&gt;Node2 -->
<g id="edge3_Node000002_Node000002" class="edge">
<title>Node2&#45;&gt;Node2</title>
<g id="a_edge3_Node000002_Node000002"><a xlink:title=" ">
<path fill="none" stroke="#63b8ff" d="M266.35,-101.83C261.61,-105.6 251.95,-108.12 237.38,-108.12 210.72,-108.12 200.52,-99.68 206.76,-90.61"/>
<polygon fill="#63b8ff" stroke="#63b8ff" points="269.78,-102.51 267.77,-92.11 262.86,-101.5 269.78,-102.51"/>
</a>
</g>
</g>
<!-- Node3 -->
<g id="Node000003" class="node">
<title>Node3</title>
<g id="a_Node000003"><a xlink:href="classjuce_1_1LookAndFeel__V4.html#ad957a460b64b7b66ad09a1ad3975d999" target="_top" xlink:title=" ">
<polygon fill="white" stroke="#666666" points="113.5,-90.12 0,-90.12 0,-59.62 113.5,-59.62 113.5,-90.12"/>
<text xml:space="preserve" text-anchor="start" x="8" y="-76.62" font-family="Helvetica,sans-Serif" font-size="10.00">juce::LookAndFeel_V4</text>
<text xml:space="preserve" text-anchor="middle" x="56.75" y="-65.38" font-family="Helvetica,sans-Serif" font-size="10.00">::createAlertWindow</text>
</a>
</g>
</g>
<!-- Node2&#45;&gt;Node3 -->
<g id="edge4_Node000002_Node000003" class="edge">
<title>Node2&#45;&gt;Node3</title>
<g id="a_edge4_Node000002_Node000003"><a xlink:title=" ">
<path fill="none" stroke="#63b8ff" d="M168.94,-74.88C150.79,-74.88 131.35,-74.88 113.89,-74.88"/>
<polygon fill="#63b8ff" stroke="#63b8ff" points="168.83,-78.38 178.83,-74.88 168.83,-71.38 168.83,-78.38"/>
</a>
</g>
</g>
<!-- Node3&#45;&gt;Node3 -->
<g id="edge5_Node000003_Node000003" class="edge">
<title>Node3&#45;&gt;Node3</title>
<g id="a_edge5_Node000003_Node000003"><a xlink:title=" ">
<path fill="none" stroke="#63b8ff" d="M87.04,-101.83C82.09,-105.6 71.99,-108.12 56.75,-108.12 28.88,-108.12 18.21,-99.68 24.74,-90.61"/>
<polygon fill="#63b8ff" stroke="#63b8ff" points="90.48,-102.52 88.53,-92.11 83.56,-101.46 90.48,-102.52"/>
</a>
</g>
</g>
</g>
</svg>
</svg>

<style type='text/css'>
<![CDATA[
[data-mouse-over-selected='false'] { opacity: 0.7; }
[data-mouse-over-selected='true']  { opacity: 1.0; }
]]>
</style>
<script type="application/ecmascript"><![CDATA[
document.addEventListener('DOMContentLoaded', (event) => {
  highlightEdges();
  highlightAdjacentNodes();
});
]]></script>
</svg>
