<?xml version="1.0" encoding="UTF-8" standalone="no"?>
<!DOCTYPE svg PUBLIC "-//W3C//DTD SVG 1.1//EN"
 "http://www.w3.org/Graphics/SVG/1.1/DTD/svg11.dtd">
<!-- Generated by graphviz version 14.0.2 (0)
 -->
<!-- Title: lmms::LadspaControl::ledChanged Pages: 1 -->
<svg width="546pt" height="57pt"
 viewBox="0.00 0.00 546.00 57.00" xmlns="http://www.w3.org/2000/svg" xmlns:xlink="http://www.w3.org/1999/xlink">
<g id="graph0" class="graph" transform="scale(1 1) rotate(0) translate(4 52.5)">
<title>lmms::LadspaControl::ledChanged</title>
<!-- Node1 -->
<g id="Node000001" class="node">
<title>Node1</title>
<g id="a_Node000001"><a xlink:title=" ">
<polygon fill="#999999" stroke="#666666" points="538,-30.5 430.5,-30.5 430.5,0 538,0 538,-30.5"/>
<text xml:space="preserve" text-anchor="start" x="438.5" y="-17" font-family="Helvetica,sans-Serif" font-size="10.00">lmms::LadspaControl</text>
<text xml:space="preserve" text-anchor="middle" x="484.25" y="-5.75" font-family="Helvetica,sans-Serif" font-size="10.00">::ledChanged</text>
</a>
</g>
</g>
<!-- Node1&#45;&gt;Node1 -->
<g id="edge1_Node000001_Node000001" class="edge">
<title>Node1&#45;&gt;Node1</title>
<g id="a_edge1_Node000001_Node000001"><a xlink:title=" ">
<path fill="none" stroke="#63b8ff" d="M508.32,-42.2C504.38,-45.97 496.36,-48.5 484.25,-48.5 462.11,-48.5 453.63,-40.06 458.82,-30.99"/>
<polygon fill="#63b8ff" stroke="#63b8ff" points="511.76,-42.84 509.5,-32.49 504.81,-41.99 511.76,-42.84"/>
</a>
</g>
</g>
<!-- Node2 -->
<g id="Node000002" class="node">
<title>Node2</title>
<g id="a_Node000002"><a xlink:href="classlmms_1_1LadspaControl.html#a4c6187e59d5730a7f849fa9703ae3548" target="_top" xlink:title=" ">
<polygon fill="white" stroke="#666666" points="394.5,-30.5 287,-30.5 287,0 394.5,0 394.5,-30.5"/>
<text xml:space="preserve" text-anchor="start" x="295" y="-17" font-family="Helvetica,sans-Serif" font-size="10.00">lmms::LadspaControl</text>
<text xml:space="preserve" text-anchor="middle" x="340.75" y="-5.75" font-family="Helvetica,sans-Serif" font-size="10.00">::linkChanged</text>
</a>
</g>
</g>
<!-- Node1&#45;&gt;Node2 -->
<g id="edge2_Node000001_Node000002" class="edge">
<title>Node1&#45;&gt;Node2</title>
<g id="a_edge2_Node000001_Node000002"><a xlink:title=" ">
<path fill="none" stroke="#63b8ff" d="M418.84,-15.25C410.75,-15.25 402.55,-15.25 394.67,-15.25"/>
<polygon fill="#63b8ff" stroke="#63b8ff" points="418.64,-18.75 428.64,-15.25 418.64,-11.75 418.64,-18.75"/>
</a>
</g>
</g>
<!-- Node3 -->
<g id="Node000003" class="node">
<title>Node3</title>
<g id="a_Node000003"><a xlink:href="classlmms_1_1LadspaControl.html#a82f59f7c77688f67c877f864b17617c4" target="_top" xlink:title=" ">
<polygon fill="white" stroke="#666666" points="251,-30.5 143.5,-30.5 143.5,0 251,0 251,-30.5"/>
<text xml:space="preserve" text-anchor="start" x="151.5" y="-17" font-family="Helvetica,sans-Serif" font-size="10.00">lmms::LadspaControl</text>
<text xml:space="preserve" text-anchor="middle" x="197.25" y="-5.75" font-family="Helvetica,sans-Serif" font-size="10.00">::linkStateChanged</text>
</a>
</g>
</g>
<!-- Node2&#45;&gt;Node3 -->
<g id="edge3_Node000002_Node000003" class="edge">
<title>Node2&#45;&gt;Node3</title>
<g id="a_edge3_Node000002_Node000003"><a xlink:title=" ">
<path fill="none" stroke="#63b8ff" d="M275.34,-8.52C267.25,-8.46 259.05,-8.52 251.17,-8.69"/>
<polygon fill="#63b8ff" stroke="#63b8ff" points="275.09,-12.02 285.14,-8.67 275.2,-5.02 275.09,-12.02"/>
</a>
</g>
</g>
<!-- Node3&#45;&gt;Node2 -->
<g id="edge5_Node000003_Node000002" class="edge">
<title>Node3&#45;&gt;Node2</title>
<g id="a_edge5_Node000003_Node000002"><a xlink:title=" ">
<path fill="none" stroke="#63b8ff" d="M262.48,-21.97C270.57,-22.04 278.77,-21.98 286.66,-21.81"/>
<polygon fill="#63b8ff" stroke="#63b8ff" points="262.73,-18.48 252.68,-21.83 262.63,-25.48 262.73,-18.48"/>
</a>
</g>
</g>
<!-- Node3&#45;&gt;Node3 -->
<g id="edge6_Node000003_Node000003" class="edge">
<title>Node3&#45;&gt;Node3</title>
<g id="a_edge6_Node000003_Node000003"><a xlink:title=" ">
<path fill="none" stroke="#63b8ff" d="M221.32,-42.2C217.38,-45.97 209.36,-48.5 197.25,-48.5 175.11,-48.5 166.63,-40.06 171.82,-30.99"/>
<polygon fill="#63b8ff" stroke="#63b8ff" points="224.76,-42.84 222.5,-32.49 217.81,-41.99 224.76,-42.84"/>
</a>
</g>
</g>
<!-- Node4 -->
<g id="Node000004" class="node">
<title>Node4</title>
<g id="a_Node000004"><a xlink:href="classlmms_1_1LadspaControl.html#a463643a383bd0efbde25f43ab637d8f7" target="_top" xlink:title=" ">
<polygon fill="#fff0f0" stroke="red" points="107.5,-30.5 0,-30.5 0,0 107.5,0 107.5,-30.5"/>
<text xml:space="preserve" text-anchor="start" x="8" y="-17" font-family="Helvetica,sans-Serif" font-size="10.00">lmms::LadspaControl</text>
<text xml:space="preserve" text-anchor="middle" x="53.75" y="-5.75" font-family="Helvetica,sans-Serif" font-size="10.00">::LadspaControl</text>
</a>
</g>
</g>
<!-- Node3&#45;&gt;Node4 -->
<g id="edge4_Node000003_Node000004" class="edge">
<title>Node3&#45;&gt;Node4</title>
<g id="a_edge4_Node000003_Node000004"><a xlink:title=" ">
<path fill="none" stroke="#63b8ff" d="M131.84,-15.25C123.75,-15.25 115.55,-15.25 107.67,-15.25"/>
<polygon fill="#63b8ff" stroke="#63b8ff" points="131.64,-18.75 141.64,-15.25 131.64,-11.75 131.64,-18.75"/>
</a>
</g>
</g>
</g>
</svg>
