<?xml version="1.0" encoding="UTF-8" standalone="no"?>
<!DOCTYPE svg PUBLIC "-//W3C//DTD SVG 1.1//EN"
 "http://www.w3.org/Graphics/SVG/1.1/DTD/svg11.dtd">
<!-- Generated by graphviz version 14.0.2 (0)
 -->
<!-- Title: hiir::HalfBandSse::process_sample Pages: 1 -->
<svg width="528pt" height="57pt"
 viewBox="0.00 0.00 528.00 57.00" xmlns="http://www.w3.org/2000/svg" xmlns:xlink="http://www.w3.org/1999/xlink">
<g id="graph0" class="graph" transform="scale(1 1) rotate(0) translate(4 52.5)">
<title>hiir::HalfBandSse::process_sample</title>
<!-- Node1 -->
<g id="Node000001" class="node">
<title>Node1</title>
<g id="a_Node000001"><a xlink:title=" ">
<polygon fill="#999999" stroke="#666666" points="95.5,-30.5 0,-30.5 0,0 95.5,0 95.5,-30.5"/>
<text xml:space="preserve" text-anchor="start" x="8" y="-17" font-family="Helvetica,sans-Serif" font-size="10.00">hiir::HalfBandSse::</text>
<text xml:space="preserve" text-anchor="middle" x="47.75" y="-5.75" font-family="Helvetica,sans-Serif" font-size="10.00">process_sample</text>
</a>
</g>
</g>
<!-- Node2 -->
<g id="Node000002" class="node">
<title>Node2</title>
<g id="a_Node000002"><a xlink:href="classhiir_1_1HalfBandSse.html#af13bec6db9995419b5b74ff9294a2c6e" target="_top" xlink:title=" ">
<polygon fill="white" stroke="#666666" points="227,-30.5 131.5,-30.5 131.5,0 227,0 227,-30.5"/>
<text xml:space="preserve" text-anchor="start" x="139.5" y="-17" font-family="Helvetica,sans-Serif" font-size="10.00">hiir::HalfBandSse::</text>
<text xml:space="preserve" text-anchor="middle" x="179.25" y="-5.75" font-family="Helvetica,sans-Serif" font-size="10.00">process_2_paths</text>
</a>
</g>
</g>
<!-- Node1&#45;&gt;Node2 -->
<g id="edge1_Node000001_Node000002" class="edge">
<title>Node1&#45;&gt;Node2</title>
<g id="a_edge1_Node000001_Node000002"><a xlink:title=" ">
<path fill="none" stroke="#63b8ff" d="M95.87,-15.25C103.73,-15.25 111.97,-15.25 120.08,-15.25"/>
<polygon fill="#63b8ff" stroke="#63b8ff" points="119.87,-18.75 129.87,-15.25 119.87,-11.75 119.87,-18.75"/>
</a>
</g>
</g>
<!-- Node3 -->
<g id="Node000003" class="node">
<title>Node3</title>
<g id="a_Node000003"><a xlink:href="classhiir_1_1StageProcSseV4.html#a3437fdfebfab52076d834bd88d8a8913" target="_top" xlink:title=" ">
<polygon fill="white" stroke="#666666" points="375.75,-30.5 263,-30.5 263,0 375.75,0 375.75,-30.5"/>
<text xml:space="preserve" text-anchor="start" x="271" y="-17" font-family="Helvetica,sans-Serif" font-size="10.00">hiir::StageProcSseV4</text>
<text xml:space="preserve" text-anchor="middle" x="319.38" y="-5.75" font-family="Helvetica,sans-Serif" font-size="10.00">::process_sample_pos</text>
</a>
</g>
</g>
<!-- Node2&#45;&gt;Node3 -->
<g id="edge2_Node000002_Node000003" class="edge">
<title>Node2&#45;&gt;Node3</title>
<g id="a_edge2_Node000002_Node000003"><a xlink:title=" ">
<path fill="none" stroke="#63b8ff" d="M227.4,-15.25C235.15,-15.25 243.32,-15.25 251.45,-15.25"/>
<polygon fill="#63b8ff" stroke="#63b8ff" points="251.35,-18.75 261.35,-15.25 251.35,-11.75 251.35,-18.75"/>
</a>
</g>
</g>
<!-- Node3&#45;&gt;Node3 -->
<g id="edge3_Node000003_Node000003" class="edge">
<title>Node3&#45;&gt;Node3</title>
<g id="a_edge3_Node000003_Node000003"><a xlink:title=" ">
<path fill="none" stroke="#63b8ff" d="M294.54,-30.99C289.48,-40.06 297.75,-48.5 319.38,-48.5 331.2,-48.5 339.03,-45.97 342.87,-42.2"/>
<polygon fill="#63b8ff" stroke="#63b8ff" points="346.32,-42.83 344.03,-32.49 339.37,-42.01 346.32,-42.83"/>
</a>
</g>
</g>
<!-- Node4 -->
<g id="Node000004" class="node">
<title>Node4</title>
<g id="a_Node000004"><a xlink:href="classhiir_1_1StageProcSseV4.html#ad5e29c01a5efc8a1838f7875c519e368" target="_top" xlink:title=" ">
<polygon fill="white" stroke="#666666" points="520,-30.5 411.75,-30.5 411.75,0 520,0 520,-30.5"/>
<text xml:space="preserve" text-anchor="start" x="419.75" y="-17" font-family="Helvetica,sans-Serif" font-size="10.00">hiir::StageProcSseV4</text>
<text xml:space="preserve" text-anchor="middle" x="465.88" y="-5.75" font-family="Helvetica,sans-Serif" font-size="10.00">::StageProcSseV4</text>
</a>
</g>
</g>
<!-- Node3&#45;&gt;Node4 -->
<g id="edge4_Node000003_Node000004" class="edge">
<title>Node3&#45;&gt;Node4</title>
<g id="a_edge4_Node000003_Node000004"><a xlink:title=" ">
<path fill="none" stroke="#63b8ff" d="M376.24,-15.25C384.03,-15.25 392.09,-15.25 400.03,-15.25"/>
<polygon fill="#63b8ff" stroke="#63b8ff" points="400.02,-18.75 410.02,-15.25 400.02,-11.75 400.02,-18.75"/>
</a>
</g>
</g>
</g>
</svg>
