<?xml version="1.0" encoding="UTF-8" standalone="no"?>
<!DOCTYPE svg PUBLIC "-//W3C//DTD SVG 1.1//EN"
 "http://www.w3.org/Graphics/SVG/1.1/DTD/svg11.dtd">
<!-- Generated by graphviz version 14.0.2 (0)
 -->
<!-- Title: CarlaHostWindow::closeEvent Pages: 1 -->
<!--zoomable 122 -->

<svg id="main" version="1.1" xmlns="http://www.w3.org/2000/svg" xmlns:xlink="http://www.w3.org/1999/xlink" xml:space="preserve" onload="init(evt)">

<style type="text/css"><![CDATA[
.node, .edge {opacity: 0.7;}
.node.selected, .edge.selected {opacity: 1;}
.edge:hover path { stroke: red; }
.edge:hover polygon { stroke: red; fill: red; }
]]></style>

<defs>
  <circle id="rim" cx="0" cy="0" r="7"/>
  <circle id="rim2" cx="0" cy="0" r="3.5"/>
  <g id="zoomPlus">
    <use xlink:href="#rim" fill="#404040"><set attributeName="fill" to="#808080" begin="zoomplus.mouseover" end="zoomplus.mouseout"/></use>
    <path d="M-4,0h8M0,-4v8" fill="none" stroke="white" stroke-width="1.5" pointer-events="none"/>
  </g>
  <g id="zoomMin">
    <use xlink:href="#rim" fill="#404040"><set attributeName="fill" to="#808080" begin="zoomminus.mouseover" end="zoomminus.mouseout"/></use>
    <path d="M-4,0h8" fill="none" stroke="white" stroke-width="1.5" pointer-events="none"/>
  </g>
  <g id="arrowUp" transform="translate(30 24)">
    <use xlink:href="#rim"/>
    <path pointer-events="none" fill="none" stroke="white" stroke-width="1.5" d="M0,-3.0v7 M-2.5,-0.5L0,-3.0L2.5,-0.5"/>
  </g>
  <g id="arrowRight" transform="rotate(90) translate(36 -43)">
    <use xlink:href="#rim"/>
    <path pointer-events="none" fill="none" stroke="white" stroke-width="1.5" d="M0,-3.0v7 M-2.5,-0.5L0,-3.0L2.5,-0.5"/>
  </g>
  <g id="arrowDown" transform="rotate(180) translate(-30 -48)">
    <use xlink:href="#rim"/>
    <path pointer-events="none" fill="none" stroke="white" stroke-width="1.5" d="M0,-3.0v7 M-2.5,-0.5L0,-3.0L2.5,-0.5"/>
  </g>
  <g id="arrowLeft" transform="rotate(270) translate(-36 17)">
    <use xlink:href="#rim"/>
    <path pointer-events="none" fill="none" stroke="white" stroke-width="1.5" d="M0,-3.0v7 M-2.5,-0.5L0,-3.0L2.5,-0.5"/>
  </g>
  <g id="resetDef">
    <use xlink:href="#rim2" fill="#404040"><set attributeName="fill" to="#808080" begin="reset.mouseover" end="reset.mouseout"/></use>
  </g>
</defs>
<script type="application/ecmascript">
var viewWidth = 764;
var viewHeight = 122;
var sectionId = 'dynsection-4';
</script>
<script type="application/ecmascript" xlink:href="svg.min.js"/>
<svg id="graph" class="graph">
<g id="viewport">
<title>CarlaHostWindow::closeEvent</title>
<!-- Node1 -->
<g id="Node000001" class="node">
<title>Node1</title>
<g id="a_Node000001"><a xlink:title=" ">
<polygon fill="#999999" stroke="#666666" points="146.5,-85.88 0,-85.88 0,-66.62 146.5,-66.62 146.5,-85.88"/>
<text xml:space="preserve" text-anchor="middle" x="73.25" y="-72.38" font-family="Helvetica,sans-Serif" font-size="10.00">CarlaHostWindow::closeEvent</text>
</a>
</g>
</g>
<!-- Node2 -->
<g id="Node000002" class="node">
<title>Node2</title>
<g id="a_Node000002"><a xlink:href="group__CarlaHostAPI.html#gad972674ac418a3e5990fc8e5b911e628" target="_top" xlink:title=" ">
<polygon fill="white" stroke="#666666" points="604.75,-95.88 484.5,-95.88 484.5,-76.62 604.75,-76.62 604.75,-95.88"/>
<text xml:space="preserve" text-anchor="middle" x="544.62" y="-82.38" font-family="Helvetica,sans-Serif" font-size="10.00">carla_is_engine_running</text>
</a>
</g>
</g>
<!-- Node1&#45;&gt;Node2 -->
<g id="edge1_Node000001_Node000002" class="edge">
<title>Node1&#45;&gt;Node2</title>
<g id="a_edge1_Node000001_Node000002"><a xlink:title=" ">
<path fill="none" stroke="#63b8ff" d="M121.44,-86.37C140.33,-89.94 162.35,-93.5 182.5,-95.25 300.28,-105.51 330.41,-100.82 448.5,-95.25 456.33,-94.88 464.51,-94.34 472.64,-93.71"/>
<polygon fill="#63b8ff" stroke="#63b8ff" points="472.88,-97.2 482.55,-92.88 472.3,-90.22 472.88,-97.2"/>
</a>
</g>
</g>
<!-- Node4 -->
<g id="Node000004" class="node">
<title>Node4</title>
<g id="a_Node000004"><a xlink:href="group__CarlaHostAPI.html#gac1e7842c80d7125707f5f3fe04b4e88a" target="_top" xlink:title=" ">
<polygon fill="white" stroke="#666666" points="298.25,-85.88 182.5,-85.88 182.5,-66.62 298.25,-66.62 298.25,-85.88"/>
<text xml:space="preserve" text-anchor="middle" x="240.38" y="-72.38" font-family="Helvetica,sans-Serif" font-size="10.00">carla_show_custom_ui</text>
</a>
</g>
</g>
<!-- Node1&#45;&gt;Node4 -->
<g id="edge4_Node000001_Node000004" class="edge">
<title>Node1&#45;&gt;Node4</title>
<g id="a_edge4_Node000001_Node000004"><a xlink:title=" ">
<path fill="none" stroke="#63b8ff" d="M146.68,-76.25C154.8,-76.25 163.07,-76.25 171.14,-76.25"/>
<polygon fill="#63b8ff" stroke="#63b8ff" points="170.88,-79.75 180.88,-76.25 170.88,-72.75 170.88,-79.75"/>
</a>
</g>
</g>
<!-- Node6 -->
<g id="Node000006" class="node">
<title>Node6</title>
<g id="a_Node000006"><a xlink:href="classCarlaHostWindow.html#ac3688bd972ce93dd661cd479c470d427" target="_top" xlink:title=" ">
<polygon fill="white" stroke="#666666" points="297.5,-39.5 183.25,-39.5 183.25,-9 297.5,-9 297.5,-39.5"/>
<text xml:space="preserve" text-anchor="start" x="191.25" y="-26" font-family="Helvetica,sans-Serif" font-size="10.00">CarlaHostWindow::slot</text>
<text xml:space="preserve" text-anchor="middle" x="240.38" y="-14.75" font-family="Helvetica,sans-Serif" font-size="10.00">_engineStop</text>
</a>
</g>
</g>
<!-- Node1&#45;&gt;Node6 -->
<g id="edge6_Node000001_Node000006" class="edge">
<title>Node1&#45;&gt;Node6</title>
<g id="a_edge6_Node000001_Node000006"><a xlink:title=" ">
<path fill="none" stroke="#63b8ff" d="M106.09,-66.22C126.66,-59.75 154.09,-51.11 178.72,-43.35"/>
<polygon fill="#63b8ff" stroke="#63b8ff" points="179.51,-46.77 188,-40.43 177.41,-40.1 179.51,-46.77"/>
</a>
</g>
</g>
<!-- Node3 -->
<g id="Node000003" class="node">
<title>Node3</title>
<g id="a_Node000003"><a xlink:href="classCarlaEngine.html#ab14908b8b381cbef30837a3604cea88e" target="_top" xlink:title=" ">
<polygon fill="white" stroke="#666666" points="755.75,-95.88 640.75,-95.88 640.75,-76.62 755.75,-76.62 755.75,-95.88"/>
<text xml:space="preserve" text-anchor="middle" x="698.25" y="-82.38" font-family="Helvetica,sans-Serif" font-size="10.00">CarlaEngine::isRunning</text>
</a>
</g>
</g>
<!-- Node2&#45;&gt;Node3 -->
<g id="edge2_Node000002_Node000003" class="edge">
<title>Node2&#45;&gt;Node3</title>
<g id="a_edge2_Node000002_Node000003"><a xlink:title=" ">
<path fill="none" stroke="#63b8ff" d="M605.12,-86.25C612.92,-86.25 620.97,-86.25 628.9,-86.25"/>
<polygon fill="#63b8ff" stroke="#63b8ff" points="628.9,-89.75 638.9,-86.25 628.9,-82.75 628.9,-89.75"/>
</a>
</g>
</g>
<!-- Node3&#45;&gt;Node3 -->
<g id="edge3_Node000003_Node000003" class="edge">
<title>Node3&#45;&gt;Node3</title>
<g id="a_edge3_Node000003_Node000003"><a xlink:title=" ">
<path fill="none" stroke="#63b8ff" d="M674.2,-96.16C663.23,-104.77 671.25,-113.88 698.25,-113.88 713.44,-113.88 722.62,-110.99 725.8,-106.94"/>
<polygon fill="#63b8ff" stroke="#63b8ff" points="729.18,-106.04 722.77,-97.6 722.52,-108.19 729.18,-106.04"/>
</a>
</g>
</g>
<!-- Node5 -->
<g id="Node000005" class="node">
<title>Node5</title>
<g id="a_Node000005"><a xlink:href="classCarlaEngine.html#ab4d000875fe4901a3207f17bbe7a3bff" target="_top" xlink:title=" ">
<polygon fill="white" stroke="#666666" points="447.75,-85.88 335,-85.88 335,-66.62 447.75,-66.62 447.75,-85.88"/>
<text xml:space="preserve" text-anchor="middle" x="391.38" y="-72.38" font-family="Helvetica,sans-Serif" font-size="10.00">CarlaEngine::getPlugin</text>
</a>
</g>
</g>
<!-- Node4&#45;&gt;Node5 -->
<g id="edge5_Node000004_Node000005" class="edge">
<title>Node4&#45;&gt;Node5</title>
<g id="a_edge5_Node000004_Node000005"><a xlink:title=" ">
<path fill="none" stroke="#63b8ff" d="M298.56,-76.25C306.59,-76.25 314.91,-76.25 323.1,-76.25"/>
<polygon fill="#63b8ff" stroke="#63b8ff" points="323.06,-79.75 333.06,-76.25 323.06,-72.75 323.06,-79.75"/>
</a>
</g>
</g>
<!-- Node7 -->
<g id="Node000007" class="node">
<title>Node7</title>
<g id="a_Node000007"><a xlink:href="classCarlaHostWindow.html#aad0bb69a38e802c82558af5577dcb49c" target="_top" xlink:title=" ">
<polygon fill="white" stroke="#666666" points="448.5,-30.5 334.25,-30.5 334.25,0 448.5,0 448.5,-30.5"/>
<text xml:space="preserve" text-anchor="start" x="342.25" y="-17" font-family="Helvetica,sans-Serif" font-size="10.00">CarlaHostWindow::slot</text>
<text xml:space="preserve" text-anchor="middle" x="391.38" y="-5.75" font-family="Helvetica,sans-Serif" font-size="10.00">_engineStopTryAgain</text>
</a>
</g>
</g>
<!-- Node6&#45;&gt;Node7 -->
<g id="edge7_Node000006_Node000007" class="edge">
<title>Node6&#45;&gt;Node7</title>
<g id="a_edge7_Node000006_Node000007"><a xlink:title=" ">
<path fill="none" stroke="#63b8ff" d="M297.71,-20.85C305.86,-20.35 314.33,-19.84 322.69,-19.34"/>
<polygon fill="#63b8ff" stroke="#63b8ff" points="322.68,-22.85 332.45,-18.75 322.26,-15.86 322.68,-22.85"/>
</a>
</g>
</g>
<!-- Node7&#45;&gt;Node2 -->
<g id="edge8_Node000007_Node000002" class="edge">
<title>Node7&#45;&gt;Node2</title>
<g id="a_edge8_Node000007_Node000002"><a xlink:title=" ">
<path fill="none" stroke="#63b8ff" d="M425.57,-30.83C451.29,-42.9 486.68,-59.52 512,-71.4"/>
<polygon fill="#63b8ff" stroke="#63b8ff" points="510.26,-74.46 520.8,-75.54 513.24,-68.12 510.26,-74.46"/>
</a>
</g>
</g>
<!-- Node7&#45;&gt;Node7 -->
<g id="edge10_Node000007_Node000007" class="edge">
<title>Node7&#45;&gt;Node7</title>
<g id="a_edge10_Node000007_Node000007"><a xlink:title=" ">
<path fill="none" stroke="#63b8ff" d="M364.62,-30.99C359.16,-40.06 368.08,-48.5 391.38,-48.5 404.12,-48.5 412.56,-45.97 416.7,-42.2"/>
<polygon fill="#63b8ff" stroke="#63b8ff" points="420.14,-42.85 417.94,-32.49 413.2,-41.96 420.14,-42.85"/>
</a>
</g>
</g>
<!-- Node8 -->
<g id="Node000008" class="node">
<title>Node8</title>
<g id="a_Node000008"><a xlink:href="group__CarlaHostAPI.html#ga85d3a84e243f4604e2c0d761d030d8ca" target="_top" xlink:title=" ">
<polygon fill="#fff0f0" stroke="red" points="604,-30.5 485.25,-30.5 485.25,0 604,0 604,-30.5"/>
<text xml:space="preserve" text-anchor="start" x="493.25" y="-17" font-family="Helvetica,sans-Serif" font-size="10.00">carla_set_engine_about</text>
<text xml:space="preserve" text-anchor="middle" x="544.62" y="-5.75" font-family="Helvetica,sans-Serif" font-size="10.00">_to_close</text>
</a>
</g>
</g>
<!-- Node7&#45;&gt;Node8 -->
<g id="edge9_Node000007_Node000008" class="edge">
<title>Node7&#45;&gt;Node8</title>
<g id="a_edge9_Node000007_Node000008"><a xlink:title=" ">
<path fill="none" stroke="#63b8ff" d="M448.69,-15.25C456.84,-15.25 465.3,-15.25 473.67,-15.25"/>
<polygon fill="#63b8ff" stroke="#63b8ff" points="473.47,-18.75 483.47,-15.25 473.47,-11.75 473.47,-18.75"/>
</a>
</g>
</g>
</g>
</svg>

<g id="navigator" transform="translate(0 0)" fill="#404254">
  <rect fill="#f2f5e9" fill-opacity="0.5" stroke="#606060" stroke-width=".5" x="0" y="0" width="60" height="60"/>
  <use id="zoomplus" xlink:href="#zoomPlus" x="17" y="9" onmousedown="handleZoom(evt,'in')"/>
  <use id="zoomminus" xlink:href="#zoomMin" x="42" y="9" onmousedown="handleZoom(evt,'out')"/>
  <use id="reset" xlink:href="#resetDef" x="30" y="36" onmousedown="handleReset()"/>
   <use id="arrowup" xlink:href="#arrowUp" x="0" y="0" onmousedown="handlePan(0,-1)"/>
  <use id="arrowright" xlink:href="#arrowRight" x="0" y="0" onmousedown="handlePan(1,0)"/>
  <use id="arrowdown" xlink:href="#arrowDown" x="0" y="0" onmousedown="handlePan(0,1)"/>
  <use id="arrowleft" xlink:href="#arrowLeft" x="0" y="0" onmousedown="handlePan(-1,0)"/>
</g>
<svg viewBox="0 0 15 15" width="100%" height="30px" preserveAspectRatio="xMaxYMin meet">
 <g id="arrow_out" transform="scale(0.3 0.3)">
  <a xlink:href="classCarlaHostWindow_adc898947253ae8b29d9e9582dc66d9ed_cgraph_org.svg" target="_base">
   <rect id="button" ry="5" rx="5" y="6" x="6" height="38" width="38"
        fill="#f2f5e9" fill-opacity="0.5" stroke="#606060" stroke-width="1.0"/>
   <path id="arrow"
     d="M 11.500037,31.436501 C 11.940474,20.09759 22.043105,11.32322 32.158766,21.979434 L 37.068811,17.246167 C 37.068811,17.246167 37.088388,32 37.088388,32 L 22.160133,31.978069 C 22.160133,31.978069 26.997745,27.140456 26.997745,27.140456 C 18.528582,18.264221 13.291696,25.230495 11.500037,31.436501 z"
     style="fill:#404040;"/>
  </a>
 </g>
</svg>

<style type='text/css'>
<![CDATA[
[data-mouse-over-selected='false'] { opacity: 0.7; }
[data-mouse-over-selected='true']  { opacity: 1.0; }
]]>
</style>
<script type="application/ecmascript"><![CDATA[
document.addEventListener('DOMContentLoaded', (event) => {
  highlightEdges();
  highlightAdjacentNodes();
});
]]></script>
</svg>
