<?xml version="1.0" encoding="UTF-8" standalone="no"?>
<!DOCTYPE svg PUBLIC "-//W3C//DTD SVG 1.1//EN"
 "http://www.w3.org/Graphics/SVG/1.1/DTD/svg11.dtd">
<!-- Generated by graphviz version 14.0.2 (0)
 -->
<!-- Title: juce::AudioDeviceManager::CallbackHandler::CallbackHandler Pages: 1 -->
<svg width="342pt" height="57pt"
 viewBox="0.00 0.00 342.00 57.00" xmlns="http://www.w3.org/2000/svg" xmlns:xlink="http://www.w3.org/1999/xlink">
<g id="graph0" class="graph" transform="scale(1 1) rotate(0) translate(4 52.5)">
<title>juce::AudioDeviceManager::CallbackHandler::CallbackHandler</title>
<!-- Node1 -->
<g id="Node000001" class="node">
<title>Node1</title>
<g id="a_Node000001"><a xlink:title=" ">
<polygon fill="#999999" stroke="#666666" points="167.5,-30.5 0,-30.5 0,0 167.5,0 167.5,-30.5"/>
<text xml:space="preserve" text-anchor="start" x="8" y="-17" font-family="Helvetica,sans-Serif" font-size="10.00">juce::AudioDeviceManager</text>
<text xml:space="preserve" text-anchor="middle" x="83.75" y="-5.75" font-family="Helvetica,sans-Serif" font-size="10.00">::CallbackHandler::CallbackHandler</text>
</a>
</g>
</g>
<!-- Node2 -->
<g id="Node000002" class="node">
<title>Node2</title>
<g id="a_Node000002"><a xlink:href="classjuce_1_1AudioDeviceManager.html#a0f94252c05cdcfb54bbe5268b8c899c1" target="_top" xlink:title=" ">
<polygon fill="white" stroke="#666666" points="334.25,-30.5 203.5,-30.5 203.5,0 334.25,0 334.25,-30.5"/>
<text xml:space="preserve" text-anchor="start" x="211.5" y="-17" font-family="Helvetica,sans-Serif" font-size="10.00">juce::AudioDeviceManager</text>
<text xml:space="preserve" text-anchor="middle" x="268.88" y="-5.75" font-family="Helvetica,sans-Serif" font-size="10.00">::AudioDeviceManager</text>
</a>
</g>
</g>
<!-- Node1&#45;&gt;Node2 -->
<g id="edge1_Node000001_Node000002" class="edge">
<title>Node1&#45;&gt;Node2</title>
<g id="a_edge1_Node000001_Node000002"><a xlink:title=" ">
<path fill="none" stroke="#63b8ff" d="M167.74,-15.25C175.69,-15.25 183.72,-15.25 191.6,-15.25"/>
<polygon fill="#63b8ff" stroke="#63b8ff" points="191.49,-18.75 201.49,-15.25 191.49,-11.75 191.49,-18.75"/>
</a>
</g>
</g>
<!-- Node2&#45;&gt;Node2 -->
<g id="edge2_Node000002_Node000002" class="edge">
<title>Node2&#45;&gt;Node2</title>
<g id="a_edge2_Node000002_Node000002"><a xlink:title=" ">
<path fill="none" stroke="#63b8ff" d="M236.07,-30.99C229.38,-40.06 240.31,-48.5 268.88,-48.5 284.5,-48.5 294.84,-45.97 299.92,-42.2"/>
<polygon fill="#63b8ff" stroke="#63b8ff" points="303.35,-42.9 301.44,-32.48 296.44,-41.82 303.35,-42.9"/>
</a>
</g>
</g>
</g>
</svg>
