<?xml version="1.0" encoding="UTF-8" standalone="no"?>
<!DOCTYPE svg PUBLIC "-//W3C//DTD SVG 1.1//EN"
 "http://www.w3.org/Graphics/SVG/1.1/DTD/svg11.dtd">
<!-- Generated by graphviz version 14.0.2 (0)
 -->
<!-- Title: calf_utils::gkeyfile_config_db::handle_error Pages: 1 -->
<svg width="274pt" height="186pt"
 viewBox="0.00 0.00 274.00 186.00" xmlns="http://www.w3.org/2000/svg" xmlns:xlink="http://www.w3.org/1999/xlink">

<svg id="main" version="1.1" xmlns="http://www.w3.org/2000/svg" xmlns:xlink="http://www.w3.org/1999/xlink" xml:space="preserve">

<style type="text/css"><![CDATA[
.node, .edge {opacity: 0.7;}
.node.selected, .edge.selected {opacity: 1;}
.edge:hover path { stroke: red; }
.edge:hover polygon { stroke: red; fill: red; }
]]></style>
<script type="application/ecmascript" xlink:href="svg.min.js"/>
<svg id="graph" class="graph">
<g id="graph0" class="graph" transform="scale(1 1) rotate(0) translate(4 181.5)">
<title>calf_utils::gkeyfile_config_db::handle_error</title>
<!-- Node1 -->
<g id="Node000001" class="node">
<title>Node1</title>
<g id="a_Node000001"><a xlink:title=" ">
<polygon fill="#999999" stroke="#666666" points="266,-103.5 145.75,-103.5 145.75,-73 266,-73 266,-103.5"/>
<text xml:space="preserve" text-anchor="start" x="153.75" y="-90" font-family="Helvetica,sans-Serif" font-size="10.00">calf_utils::gkeyfile</text>
<text xml:space="preserve" text-anchor="middle" x="205.88" y="-78.75" font-family="Helvetica,sans-Serif" font-size="10.00">_config_db::handle_error</text>
</a>
</g>
</g>
<!-- Node2 -->
<g id="Node000002" class="node">
<title>Node2</title>
<g id="a_Node000002"><a xlink:href="classcalf__utils_1_1gkeyfile__config__db.html#aa9fcf16b85626359a6d21a4239b94c79" target="_top" xlink:title=" ">
<polygon fill="white" stroke="#666666" points="106.75,-177.5 3,-177.5 3,-147 106.75,-147 106.75,-177.5"/>
<text xml:space="preserve" text-anchor="start" x="11" y="-164" font-family="Helvetica,sans-Serif" font-size="10.00">calf_utils::gkeyfile</text>
<text xml:space="preserve" text-anchor="middle" x="54.88" y="-152.75" font-family="Helvetica,sans-Serif" font-size="10.00">_config_db::get_bool</text>
</a>
</g>
</g>
<!-- Node1&#45;&gt;Node2 -->
<g id="edge1_Node000001_Node000002" class="edge">
<title>Node1&#45;&gt;Node2</title>
<g id="a_edge1_Node000001_Node000002"><a xlink:title=" ">
<path fill="none" stroke="#63b8ff" d="M165.32,-109.09C148.3,-117.93 128.13,-128.26 109.75,-137.25 103.45,-140.33 96.7,-143.54 90.18,-146.59"/>
<polygon fill="#63b8ff" stroke="#63b8ff" points="166.88,-112.22 174.13,-104.49 163.64,-106.02 166.88,-112.22"/>
</a>
</g>
</g>
<!-- Node3 -->
<g id="Node000003" class="node">
<title>Node3</title>
<g id="a_Node000003"><a xlink:href="classcalf__utils_1_1gkeyfile__config__db.html#aa325462bbbb831516153368948c471b5" target="_top" xlink:title=" ">
<polygon fill="white" stroke="#666666" points="103,-128.5 6.75,-128.5 6.75,-98 103,-98 103,-128.5"/>
<text xml:space="preserve" text-anchor="start" x="14.75" y="-115" font-family="Helvetica,sans-Serif" font-size="10.00">calf_utils::gkeyfile</text>
<text xml:space="preserve" text-anchor="middle" x="54.88" y="-103.75" font-family="Helvetica,sans-Serif" font-size="10.00">_config_db::get_int</text>
</a>
</g>
</g>
<!-- Node1&#45;&gt;Node3 -->
<g id="edge2_Node000001_Node000003" class="edge">
<title>Node1&#45;&gt;Node3</title>
<g id="a_edge2_Node000001_Node000003"><a xlink:title=" ">
<path fill="none" stroke="#63b8ff" d="M134.52,-100.05C123.86,-101.84 113.08,-103.65 103.06,-105.33"/>
<polygon fill="#63b8ff" stroke="#63b8ff" points="134.78,-103.56 144.07,-98.45 133.62,-96.66 134.78,-103.56"/>
</a>
</g>
</g>
<!-- Node4 -->
<g id="Node000004" class="node">
<title>Node4</title>
<g id="a_Node000004"><a xlink:href="classcalf__utils_1_1gkeyfile__config__db.html#a109b9d9cc9b3a6ae8172805bf53974ff" target="_top" xlink:title=" ">
<polygon fill="white" stroke="#666666" points="109.75,-79.5 0,-79.5 0,-49 109.75,-49 109.75,-79.5"/>
<text xml:space="preserve" text-anchor="start" x="8" y="-66" font-family="Helvetica,sans-Serif" font-size="10.00">calf_utils::gkeyfile</text>
<text xml:space="preserve" text-anchor="middle" x="54.88" y="-54.75" font-family="Helvetica,sans-Serif" font-size="10.00">_config_db::get_string</text>
</a>
</g>
</g>
<!-- Node1&#45;&gt;Node4 -->
<g id="edge3_Node000001_Node000004" class="edge">
<title>Node1&#45;&gt;Node4</title>
<g id="a_edge3_Node000001_Node000004"><a xlink:title=" ">
<path fill="none" stroke="#63b8ff" d="M134.21,-76.87C126.12,-75.57 117.98,-74.25 110.15,-72.99"/>
<polygon fill="#63b8ff" stroke="#63b8ff" points="133.63,-80.32 144.06,-78.45 134.75,-73.41 133.63,-80.32"/>
</a>
</g>
</g>
<!-- Node5 -->
<g id="Node000005" class="node">
<title>Node5</title>
<g id="a_Node000005"><a xlink:href="classcalf__utils_1_1gkeyfile__config__db.html#a4ff40a8968de8dcc32b0f37f0975fe19" target="_top" xlink:title=" ">
<polygon fill="white" stroke="#666666" points="100.75,-30.5 9,-30.5 9,0 100.75,0 100.75,-30.5"/>
<text xml:space="preserve" text-anchor="start" x="17" y="-17" font-family="Helvetica,sans-Serif" font-size="10.00">calf_utils::gkeyfile</text>
<text xml:space="preserve" text-anchor="middle" x="54.88" y="-5.75" font-family="Helvetica,sans-Serif" font-size="10.00">_config_db::save</text>
</a>
</g>
</g>
<!-- Node1&#45;&gt;Node5 -->
<g id="edge4_Node000001_Node000005" class="edge">
<title>Node1&#45;&gt;Node5</title>
<g id="a_edge4_Node000001_Node000005"><a xlink:title=" ">
<path fill="none" stroke="#63b8ff" d="M164.51,-67.51C147.65,-58.95 127.81,-48.99 109.75,-40.25 103.44,-37.19 96.68,-34 90.16,-30.95"/>
<polygon fill="#63b8ff" stroke="#63b8ff" points="162.74,-70.54 173.24,-71.96 165.91,-64.3 162.74,-70.54"/>
</a>
</g>
</g>
</g>
</svg>
</svg>

<style type='text/css'>
<![CDATA[
[data-mouse-over-selected='false'] { opacity: 0.7; }
[data-mouse-over-selected='true']  { opacity: 1.0; }
]]>
</style>
<script type="application/ecmascript"><![CDATA[
document.addEventListener('DOMContentLoaded', (event) => {
  highlightEdges();
  highlightAdjacentNodes();
});
]]></script>
</svg>
