<?xml version="1.0" encoding="UTF-8" standalone="no"?>
<!DOCTYPE svg PUBLIC "-//W3C//DTD SVG 1.1//EN"
 "http://www.w3.org/Graphics/SVG/1.1/DTD/svg11.dtd">
<!-- Generated by graphviz version 14.0.2 (0)
 -->
<!-- Title: juce::XmlElement::getFirstChildElement Pages: 1 -->
<svg width="840pt" height="437pt"
 viewBox="0.00 0.00 840.00 437.00" xmlns="http://www.w3.org/2000/svg" xmlns:xlink="http://www.w3.org/1999/xlink">
<g id="graph0" class="graph" transform="scale(1 1) rotate(0) translate(4 432.88)">
<title>juce::XmlElement::getFirstChildElement</title>
<!-- Node1 -->
<g id="Node000001" class="node">
<title>Node1</title>
<g id="a_Node000001"><a xlink:title=" ">
<polygon fill="#999999" stroke="#666666" points="831.5,-194.5 703,-194.5 703,-164 831.5,-164 831.5,-194.5"/>
<text xml:space="preserve" text-anchor="start" x="711" y="-181" font-family="Helvetica,sans-Serif" font-size="10.00">juce::XmlElement::getFirst</text>
<text xml:space="preserve" text-anchor="middle" x="767.25" y="-169.75" font-family="Helvetica,sans-Serif" font-size="10.00">ChildElement</text>
</a>
</g>
</g>
<!-- Node1&#45;&gt;Node1 -->
<g id="edge24_Node000001_Node000001" class="edge">
<title>Node1&#45;&gt;Node1</title>
<g id="a_edge24_Node000001_Node000001"><a xlink:title=" ">
<path fill="none" stroke="#63b8ff" d="M795.03,-206.2C790.48,-209.97 781.23,-212.5 767.25,-212.5 741.69,-212.5 731.91,-204.06 737.9,-194.99"/>
<polygon fill="#63b8ff" stroke="#63b8ff" points="798.47,-206.87 796.39,-196.48 791.53,-205.9 798.47,-206.87"/>
</a>
</g>
</g>
<!-- Node2 -->
<g id="Node000002" class="node">
<title>Node2</title>
<g id="a_Node000002"><a xlink:href="classjuce_1_1XmlElement.html#aca70f8067f15c7e3ece54cec0b034d9f" target="_top" xlink:title=" ">
<polygon fill="white" stroke="#666666" points="667,-194.5 536.25,-194.5 536.25,-164 667,-164 667,-194.5"/>
<text xml:space="preserve" text-anchor="start" x="544.25" y="-181" font-family="Helvetica,sans-Serif" font-size="10.00">juce::XmlElement::getChild</text>
<text xml:space="preserve" text-anchor="middle" x="601.62" y="-169.75" font-family="Helvetica,sans-Serif" font-size="10.00">Iterator</text>
</a>
</g>
</g>
<!-- Node1&#45;&gt;Node2 -->
<g id="edge1_Node000001_Node000002" class="edge">
<title>Node1&#45;&gt;Node2</title>
<g id="a_edge1_Node000001_Node000002"><a xlink:title=" ">
<path fill="none" stroke="#63b8ff" d="M691.27,-179.25C683.25,-179.25 675.14,-179.25 667.26,-179.25"/>
<polygon fill="#63b8ff" stroke="#63b8ff" points="691.01,-182.75 701.01,-179.25 691.01,-175.75 691.01,-182.75"/>
</a>
</g>
</g>
<!-- Node3 -->
<g id="Node000003" class="node">
<title>Node3</title>
<g id="a_Node000003"><a xlink:href="classjuce_1_1ValueTree.html#ab8a5a466ca25d4dfd6ca182325980813" target="_top" xlink:title=" ">
<polygon fill="white" stroke="#666666" points="496.12,-379.88 372.12,-379.88 372.12,-360.62 496.12,-360.62 496.12,-379.88"/>
<text xml:space="preserve" text-anchor="middle" x="434.12" y="-366.38" font-family="Helvetica,sans-Serif" font-size="10.00">juce::ValueTree::fromXml</text>
</a>
</g>
</g>
<!-- Node2&#45;&gt;Node3 -->
<g id="edge2_Node000002_Node000003" class="edge">
<title>Node2&#45;&gt;Node3</title>
<g id="a_edge2_Node000002_Node000003"><a xlink:title=" ">
<path fill="none" stroke="#63b8ff" d="M581.7,-203.58C561.92,-228.74 529.72,-268.93 500.25,-302.25 481.41,-323.56 458.09,-347.31 445.09,-360.35"/>
<polygon fill="#63b8ff" stroke="#63b8ff" points="584.3,-205.94 587.71,-195.91 578.79,-201.63 584.3,-205.94"/>
</a>
</g>
</g>
<!-- Node5 -->
<g id="Node000005" class="node">
<title>Node5</title>
<g id="a_Node000005"><a xlink:href="classjuce_1_1SVGState.html#a3d691cf5a8aab1a035d34cb728e2789f" target="_top" xlink:title=" ">
<polygon fill="white" stroke="#666666" points="498.38,-293.5 369.88,-293.5 369.88,-263 498.38,-263 498.38,-293.5"/>
<text xml:space="preserve" text-anchor="start" x="377.88" y="-280" font-family="Helvetica,sans-Serif" font-size="10.00">juce::SVGState::parseSub</text>
<text xml:space="preserve" text-anchor="middle" x="434.12" y="-268.75" font-family="Helvetica,sans-Serif" font-size="10.00">Elements</text>
</a>
</g>
</g>
<!-- Node2&#45;&gt;Node5 -->
<g id="edge5_Node000002_Node000005" class="edge">
<title>Node2&#45;&gt;Node5</title>
<g id="a_edge5_Node000002_Node000005"><a xlink:title=" ">
<path fill="none" stroke="#63b8ff" d="M570.4,-201.49C550.87,-215.41 524.63,-233.3 500.25,-247.25 490.8,-252.66 480.24,-257.98 470.44,-262.63"/>
<polygon fill="#63b8ff" stroke="#63b8ff" points="572.39,-204.37 578.46,-195.69 568.3,-198.69 572.39,-204.37"/>
</a>
</g>
</g>
<!-- Node26 -->
<g id="Node000026" class="node">
<title>Node26</title>
<g id="a_Node000026"><a xlink:href="classjuce_1_1SVGState.html#adaf702c69bab0a8c99374e8f4426b916" target="_top" xlink:title=" ">
<polygon fill="white" stroke="#666666" points="499.12,-219.88 369.12,-219.88 369.12,-200.62 499.12,-200.62 499.12,-219.88"/>
<text xml:space="preserve" text-anchor="middle" x="434.12" y="-206.38" font-family="Helvetica,sans-Serif" font-size="10.00">juce::SVGState::parseText</text>
</a>
</g>
</g>
<!-- Node2&#45;&gt;Node26 -->
<g id="edge13_Node000002_Node000026" class="edge">
<title>Node2&#45;&gt;Node26</title>
<g id="a_edge13_Node000002_Node000026"><a xlink:title=" ">
<path fill="none" stroke="#63b8ff" d="M525.07,-193.4C512.89,-195.68 500.5,-198 488.97,-200.17"/>
<polygon fill="#63b8ff" stroke="#63b8ff" points="525.49,-196.88 534.68,-191.6 524.2,-190 525.49,-196.88"/>
</a>
</g>
</g>
<!-- Node28 -->
<g id="Node000028" class="node">
<title>Node28</title>
<g id="a_Node000028"><a xlink:href="classjuce_1_1KnownPluginList.html#a1cc4860729d6300a1413e3634060e91e" target="_top" xlink:title=" ">
<polygon fill="white" stroke="#666666" points="490.12,-164.5 378.12,-164.5 378.12,-134 490.12,-134 490.12,-164.5"/>
<text xml:space="preserve" text-anchor="start" x="386.12" y="-151" font-family="Helvetica,sans-Serif" font-size="10.00">juce::KnownPluginList</text>
<text xml:space="preserve" text-anchor="middle" x="434.12" y="-139.75" font-family="Helvetica,sans-Serif" font-size="10.00">::recreateFromXml</text>
</a>
</g>
</g>
<!-- Node2&#45;&gt;Node28 -->
<g id="edge18_Node000002_Node000028" class="edge">
<title>Node2&#45;&gt;Node28</title>
<g id="a_edge18_Node000002_Node000028"><a xlink:title=" ">
<path fill="none" stroke="#63b8ff" d="M525.1,-165.56C513.46,-163.45 501.64,-161.31 490.55,-159.3"/>
<polygon fill="#63b8ff" stroke="#63b8ff" points="524.21,-168.96 534.68,-167.3 525.46,-162.07 524.21,-168.96"/>
</a>
</g>
</g>
<!-- Node29 -->
<g id="Node000029" class="node">
<title>Node29</title>
<g id="a_Node000029"><a xlink:href="classjuce_1_1KeyPressMappingSet.html#ae19dfdb721b29631ec42c598754818b4" target="_top" xlink:title=" ">
<polygon fill="white" stroke="#666666" points="500.25,-97.5 368,-97.5 368,-67 500.25,-67 500.25,-97.5"/>
<text xml:space="preserve" text-anchor="start" x="376" y="-84" font-family="Helvetica,sans-Serif" font-size="10.00">juce::KeyPressMappingSet</text>
<text xml:space="preserve" text-anchor="middle" x="434.12" y="-72.75" font-family="Helvetica,sans-Serif" font-size="10.00">::restoreFromXml</text>
</a>
</g>
</g>
<!-- Node2&#45;&gt;Node29 -->
<g id="edge20_Node000002_Node000029" class="edge">
<title>Node2&#45;&gt;Node29</title>
<g id="a_edge20_Node000002_Node000029"><a xlink:title=" ">
<path fill="none" stroke="#63b8ff" d="M564.49,-158.07C533.58,-139.95 489.79,-114.29 461.92,-97.96"/>
<polygon fill="#63b8ff" stroke="#63b8ff" points="562.33,-160.86 572.73,-162.9 565.87,-154.82 562.33,-160.86"/>
</a>
</g>
</g>
<!-- Node30 -->
<g id="Node000030" class="node">
<title>Node30</title>
<g id="a_Node000030"><a xlink:href="classjuce_1_1TreeViewItem.html#a4f3120a793b173cd89f90604adf46086" target="_top" xlink:title=" ">
<polygon fill="white" stroke="#666666" points="493.12,-30.5 375.12,-30.5 375.12,0 493.12,0 493.12,-30.5"/>
<text xml:space="preserve" text-anchor="start" x="383.12" y="-17" font-family="Helvetica,sans-Serif" font-size="10.00">juce::TreeViewItem</text>
<text xml:space="preserve" text-anchor="middle" x="434.12" y="-5.75" font-family="Helvetica,sans-Serif" font-size="10.00">::restoreOpennessState</text>
</a>
</g>
</g>
<!-- Node2&#45;&gt;Node30 -->
<g id="edge22_Node000002_Node000030" class="edge">
<title>Node2&#45;&gt;Node30</title>
<g id="a_edge22_Node000002_Node000030"><a xlink:title=" ">
<path fill="none" stroke="#63b8ff" d="M583.68,-154.78C565.07,-128.96 533.41,-87.98 500.25,-58.25 488.85,-48.03 474.83,-38.45 462.71,-30.94"/>
<polygon fill="#63b8ff" stroke="#63b8ff" points="580.62,-156.52 589.27,-162.64 586.33,-152.46 580.62,-156.52"/>
</a>
</g>
</g>
<!-- Node3&#45;&gt;Node3 -->
<g id="edge4_Node000003_Node000003" class="edge">
<title>Node3&#45;&gt;Node3</title>
<g id="a_edge4_Node000003_Node000003"><a xlink:title=" ">
<path fill="none" stroke="#63b8ff" d="M464.16,-390.94C460.7,-394.99 450.69,-397.88 434.12,-397.88 404.68,-397.88 395.94,-388.77 407.9,-380.16"/>
<polygon fill="#63b8ff" stroke="#63b8ff" points="467.49,-389.85 460.85,-381.59 460.89,-392.18 467.49,-389.85"/>
</a>
</g>
</g>
<!-- Node4 -->
<g id="Node000004" class="node">
<title>Node4</title>
<g id="a_Node000004"><a xlink:href="classjuce_1_1ValueTree.html#a789c94aa0f5fb82ee19698f35a0e0af9" target="_top" xlink:title=" ">
<polygon fill="white" stroke="#666666" points="310.25,-428.88 186.25,-428.88 186.25,-409.62 310.25,-409.62 310.25,-428.88"/>
<text xml:space="preserve" text-anchor="middle" x="248.25" y="-415.38" font-family="Helvetica,sans-Serif" font-size="10.00">juce::ValueTree::fromXml</text>
</a>
</g>
</g>
<!-- Node3&#45;&gt;Node4 -->
<g id="edge3_Node000003_Node000004" class="edge">
<title>Node3&#45;&gt;Node4</title>
<g id="a_edge3_Node000003_Node000004"><a xlink:title=" ">
<path fill="none" stroke="#63b8ff" d="M391.92,-383.73C373.66,-389.49 351.86,-396.06 332,-401.25 321.33,-404.04 309.81,-406.74 298.86,-409.16"/>
<polygon fill="#63b8ff" stroke="#63b8ff" points="392.87,-387.1 401.34,-380.73 390.75,-380.43 392.87,-387.1"/>
</a>
</g>
</g>
<!-- Node6 -->
<g id="Node000006" class="node">
<title>Node6</title>
<g id="a_Node000006"><a xlink:href="classjuce_1_1SVGState.html#a965ec2d44e5bdf5767c32105013abf4d" target="_top" xlink:title=" ">
<polygon fill="white" stroke="#666666" points="321.5,-391.88 175,-391.88 175,-372.62 321.5,-372.62 321.5,-391.88"/>
<text xml:space="preserve" text-anchor="middle" x="248.25" y="-378.38" font-family="Helvetica,sans-Serif" font-size="10.00">juce::SVGState::applyClipPath</text>
</a>
</g>
</g>
<!-- Node5&#45;&gt;Node6 -->
<g id="edge6_Node000005_Node000006" class="edge">
<title>Node5&#45;&gt;Node6</title>
<g id="a_edge6_Node000005_Node000006"><a xlink:title=" ">
<path fill="none" stroke="#63b8ff" d="M411.57,-301.74C392.49,-321.11 362.93,-347.83 332,-363.25 324.74,-366.87 316.79,-369.81 308.76,-372.19"/>
<polygon fill="#63b8ff" stroke="#63b8ff" points="413.87,-304.4 418.28,-294.77 408.82,-299.55 413.87,-304.4"/>
</a>
</g>
</g>
<!-- Node7 -->
<g id="Node000007" class="node">
<title>Node7</title>
<g id="a_Node000007"><a xlink:href="classjuce_1_1SVGState.html#ab86dd50465247ebe6f828f070458951f" target="_top" xlink:title=" ">
<polygon fill="#fff0f0" stroke="red" points="317,-336.5 179.5,-336.5 179.5,-306 317,-306 317,-336.5"/>
<text xml:space="preserve" text-anchor="start" x="187.5" y="-323" font-family="Helvetica,sans-Serif" font-size="10.00">juce::SVGState::parseGroup</text>
<text xml:space="preserve" text-anchor="middle" x="248.25" y="-311.75" font-family="Helvetica,sans-Serif" font-size="10.00">Element</text>
</a>
</g>
</g>
<!-- Node5&#45;&gt;Node7 -->
<g id="edge7_Node000005_Node000007" class="edge">
<title>Node5&#45;&gt;Node7</title>
<g id="a_edge7_Node000005_Node000007"><a xlink:title=" ">
<path fill="none" stroke="#63b8ff" d="M358.58,-295.68C344.68,-298.93 330.22,-302.31 316.55,-305.51"/>
<polygon fill="#63b8ff" stroke="#63b8ff" points="359.17,-299.14 368.11,-293.45 357.58,-292.32 359.17,-299.14"/>
</a>
</g>
</g>
<!-- Node11 -->
<g id="Node000011" class="node">
<title>Node11</title>
<g id="a_Node000011"><a xlink:href="classjuce_1_1SVGState.html#ad678d565e41fc0bd55bc93dbb9bfde05" target="_top" xlink:title=" ">
<polygon fill="#fff0f0" stroke="red" points="332,-287.88 164.5,-287.88 164.5,-268.62 332,-268.62 332,-287.88"/>
<text xml:space="preserve" text-anchor="middle" x="248.25" y="-274.38" font-family="Helvetica,sans-Serif" font-size="10.00">juce::SVGState::parseSVGElement</text>
</a>
</g>
</g>
<!-- Node5&#45;&gt;Node11 -->
<g id="edge11_Node000005_Node000011" class="edge">
<title>Node5&#45;&gt;Node11</title>
<g id="a_edge11_Node000005_Node000011"><a xlink:title=" ">
<path fill="none" stroke="#63b8ff" d="M358.12,-278.25C349.59,-278.25 340.87,-278.25 332.25,-278.25"/>
<polygon fill="#63b8ff" stroke="#63b8ff" points="358.07,-281.75 368.07,-278.25 358.07,-274.75 358.07,-281.75"/>
</a>
</g>
</g>
<!-- Node7&#45;&gt;Node7 -->
<g id="edge8_Node000007_Node000007" class="edge">
<title>Node7&#45;&gt;Node7</title>
<g id="a_edge8_Node000007_Node000007"><a xlink:title=" ">
<path fill="none" stroke="#63b8ff" d="M279.11,-348.2C274.06,-351.97 263.78,-354.5 248.25,-354.5 219.86,-354.5 208.99,-346.06 215.65,-336.99"/>
<polygon fill="#63b8ff" stroke="#63b8ff" points="282.54,-348.9 280.62,-338.48 275.62,-347.82 282.54,-348.9"/>
</a>
</g>
</g>
<!-- Node9 -->
<g id="Node000009" class="node">
<title>Node9</title>
<g id="a_Node000009"><a xlink:href="classjuce_1_1SVGState.html#aee0307da1c12eebe6fe494486eeeb448" target="_top" xlink:title=" ">
<polygon fill="white" stroke="#666666" points="128.5,-255.5 0,-255.5 0,-225 128.5,-225 128.5,-255.5"/>
<text xml:space="preserve" text-anchor="start" x="8" y="-242" font-family="Helvetica,sans-Serif" font-size="10.00">juce::SVGState::parseSub</text>
<text xml:space="preserve" text-anchor="middle" x="64.25" y="-230.75" font-family="Helvetica,sans-Serif" font-size="10.00">Element</text>
</a>
</g>
</g>
<!-- Node7&#45;&gt;Node9 -->
<g id="edge9_Node000007_Node000009" class="edge">
<title>Node7&#45;&gt;Node9</title>
<g id="a_edge9_Node000007_Node000009"><a xlink:title=" ">
<path fill="none" stroke="#63b8ff" d="M176.26,-301.89C172.25,-300.41 168.3,-298.87 164.5,-297.25 137.43,-285.75 108.49,-268.5 88.89,-255.98"/>
<polygon fill="#63b8ff" stroke="#63b8ff" points="174.97,-305.14 185.56,-305.12 177.27,-298.53 174.97,-305.14"/>
</a>
</g>
</g>
<!-- Node9&#45;&gt;Node5 -->
<g id="edge10_Node000009_Node000005" class="edge">
<title>Node9&#45;&gt;Node5</title>
<g id="a_edge10_Node000009_Node000005"><a xlink:title=" ">
<path fill="none" stroke="#63b8ff" d="M140.24,-243.29C193.82,-246.03 267.55,-250.93 332,-259.25 344.14,-260.82 357.02,-262.91 369.38,-265.12"/>
<polygon fill="#63b8ff" stroke="#63b8ff" points="140.45,-239.8 130.29,-242.8 140.11,-246.79 140.45,-239.8"/>
</a>
</g>
</g>
<!-- Node11&#45;&gt;Node9 -->
<g id="edge12_Node000011_Node000009" class="edge">
<title>Node11&#45;&gt;Node9</title>
<g id="a_edge12_Node000011_Node000009"><a xlink:title=" ">
<path fill="none" stroke="#63b8ff" d="M187.81,-265.84C168.95,-261.9 148.02,-257.53 128.87,-253.53"/>
<polygon fill="#63b8ff" stroke="#63b8ff" points="186.97,-269.24 197.47,-267.86 188.4,-262.39 186.97,-269.24"/>
</a>
</g>
</g>
<!-- Node26&#45;&gt;Node9 -->
<g id="edge14_Node000026_Node000009" class="edge">
<title>Node26&#45;&gt;Node9</title>
<g id="a_edge14_Node000026_Node000009"><a xlink:title=" ">
<path fill="none" stroke="#63b8ff" d="M357.51,-213.12C303.61,-215.57 229.49,-219.74 164.5,-226.25 152.99,-227.4 140.76,-228.9 128.96,-230.49"/>
<polygon fill="#63b8ff" stroke="#63b8ff" points="357.34,-216.63 367.18,-212.69 357.03,-209.64 357.34,-216.63"/>
</a>
</g>
</g>
<!-- Node26&#45;&gt;Node26 -->
<g id="edge15_Node000026_Node000026" class="edge">
<title>Node26&#45;&gt;Node26</title>
<g id="a_edge15_Node000026_Node000026"><a xlink:title=" ">
<path fill="none" stroke="#63b8ff" d="M464.16,-230.94C460.7,-234.99 450.69,-237.88 434.12,-237.88 404.68,-237.88 395.94,-228.77 407.9,-220.16"/>
<polygon fill="#63b8ff" stroke="#63b8ff" points="467.49,-229.85 460.85,-221.59 460.89,-232.18 467.49,-229.85"/>
</a>
</g>
</g>
<!-- Node27 -->
<g id="Node000027" class="node">
<title>Node27</title>
<g id="a_Node000027"><a xlink:href="classjuce_1_1SVGState.html#aeb847ea99a5d271c8a93a107c1a56043" target="_top" xlink:title=" ">
<polygon fill="white" stroke="#666666" points="312.88,-174.5 183.62,-174.5 183.62,-144 312.88,-144 312.88,-174.5"/>
<text xml:space="preserve" text-anchor="start" x="191.62" y="-161" font-family="Helvetica,sans-Serif" font-size="10.00">juce::SVGState::parseUse</text>
<text xml:space="preserve" text-anchor="middle" x="248.25" y="-149.75" font-family="Helvetica,sans-Serif" font-size="10.00">Other</text>
</a>
</g>
</g>
<!-- Node26&#45;&gt;Node27 -->
<g id="edge16_Node000026_Node000027" class="edge">
<title>Node26&#45;&gt;Node27</title>
<g id="a_edge16_Node000026_Node000027"><a xlink:title=" ">
<path fill="none" stroke="#63b8ff" d="M385.99,-197.18C361.53,-190.39 331.48,-182.06 305.78,-174.93"/>
<polygon fill="#63b8ff" stroke="#63b8ff" points="384.77,-200.47 395.34,-199.77 386.64,-193.72 384.77,-200.47"/>
</a>
</g>
</g>
<!-- Node27&#45;&gt;Node9 -->
<g id="edge17_Node000027_Node000009" class="edge">
<title>Node27&#45;&gt;Node9</title>
<g id="a_edge17_Node000027_Node000009"><a xlink:title=" ">
<path fill="none" stroke="#63b8ff" d="M187.91,-178.87C179.97,-181.83 171.99,-185 164.5,-188.25 139.52,-199.1 112.18,-213.64 92.53,-224.58"/>
<polygon fill="#63b8ff" stroke="#63b8ff" points="189.04,-182.18 197.24,-175.47 186.64,-175.6 189.04,-182.18"/>
</a>
</g>
</g>
<!-- Node28&#45;&gt;Node28 -->
<g id="edge19_Node000028_Node000028" class="edge">
<title>Node28&#45;&gt;Node28</title>
<g id="a_edge19_Node000028_Node000028"><a xlink:title=" ">
<path fill="none" stroke="#63b8ff" d="M462.21,-176.2C457.62,-179.97 448.26,-182.5 434.12,-182.5 408.28,-182.5 398.39,-174.06 404.44,-164.99"/>
<polygon fill="#63b8ff" stroke="#63b8ff" points="465.65,-176.88 463.59,-166.48 458.72,-175.89 465.65,-176.88"/>
</a>
</g>
</g>
<!-- Node29&#45;&gt;Node29 -->
<g id="edge21_Node000029_Node000029" class="edge">
<title>Node29&#45;&gt;Node29</title>
<g id="a_edge21_Node000029_Node000029"><a xlink:title=" ">
<path fill="none" stroke="#63b8ff" d="M462.21,-109.2C457.62,-112.97 448.26,-115.5 434.12,-115.5 408.28,-115.5 398.39,-107.06 404.44,-97.99"/>
<polygon fill="#63b8ff" stroke="#63b8ff" points="465.65,-109.88 463.59,-99.48 458.72,-108.89 465.65,-109.88"/>
</a>
</g>
</g>
<!-- Node30&#45;&gt;Node30 -->
<g id="edge23_Node000030_Node000030" class="edge">
<title>Node30&#45;&gt;Node30</title>
<g id="a_edge23_Node000030_Node000030"><a xlink:title=" ">
<path fill="none" stroke="#63b8ff" d="M462.21,-42.2C457.62,-45.97 448.26,-48.5 434.12,-48.5 408.28,-48.5 398.39,-40.06 404.44,-30.99"/>
<polygon fill="#63b8ff" stroke="#63b8ff" points="465.65,-42.88 463.59,-32.48 458.72,-41.89 465.65,-42.88"/>
</a>
</g>
</g>
</g>
</svg>
