<?xml version="1.0" encoding="UTF-8" standalone="no"?>
<!DOCTYPE svg PUBLIC "-//W3C//DTD SVG 1.1//EN"
 "http://www.w3.org/Graphics/SVG/1.1/DTD/svg11.dtd">
<!-- Generated by graphviz version 14.0.2 (0)
 -->
<!-- Title: juce::Thread::killThread Pages: 1 -->
<svg width="852pt" height="1077pt"
 viewBox="0.00 0.00 852.00 1077.00" xmlns="http://www.w3.org/2000/svg" xmlns:xlink="http://www.w3.org/1999/xlink">
<g id="graph0" class="graph" transform="scale(1 1) rotate(0) translate(4 1072.5)">
<title>juce::Thread::killThread</title>
<!-- Node1 -->
<g id="Node000001" class="node">
<title>Node1</title>
<g id="a_Node000001"><a xlink:title=" ">
<polygon fill="#999999" stroke="#666666" points="843.5,-419.88 728.5,-419.88 728.5,-400.62 843.5,-400.62 843.5,-419.88"/>
<text xml:space="preserve" text-anchor="middle" x="786" y="-406.38" font-family="Helvetica,sans-Serif" font-size="10.00">juce::Thread::killThread</text>
</a>
</g>
</g>
<!-- Node1&#45;&gt;Node1 -->
<g id="edge1_Node000001_Node000001" class="edge">
<title>Node1&#45;&gt;Node1</title>
<g id="a_edge1_Node000001_Node000001"><a xlink:title=" ">
<path fill="none" stroke="#63b8ff" d="M813.68,-430.94C810.49,-434.99 801.26,-437.88 786,-437.88 758.86,-437.88 750.81,-428.77 761.83,-420.16"/>
<polygon fill="#63b8ff" stroke="#63b8ff" points="817.06,-430.03 810.64,-421.6 810.41,-432.19 817.06,-430.03"/>
</a>
</g>
</g>
<!-- Node2 -->
<g id="Node000002" class="node">
<title>Node2</title>
<g id="a_Node000002"><a xlink:href="classjuce_1_1Thread.html#a18583d51411d6a34c59b63f0adff4697" target="_top" xlink:title=" ">
<polygon fill="white" stroke="#666666" points="692.5,-419.88 570.75,-419.88 570.75,-400.62 692.5,-400.62 692.5,-419.88"/>
<text xml:space="preserve" text-anchor="middle" x="631.62" y="-406.38" font-family="Helvetica,sans-Serif" font-size="10.00">juce::Thread::stopThread</text>
</a>
</g>
</g>
<!-- Node1&#45;&gt;Node2 -->
<g id="edge2_Node000001_Node000002" class="edge">
<title>Node1&#45;&gt;Node2</title>
<g id="a_edge2_Node000001_Node000002"><a xlink:title=" ">
<path fill="none" stroke="#63b8ff" d="M716.77,-410.25C708.84,-410.25 700.8,-410.25 692.98,-410.25"/>
<polygon fill="#63b8ff" stroke="#63b8ff" points="716.75,-413.75 726.75,-410.25 716.75,-406.75 716.75,-413.75"/>
</a>
</g>
</g>
<!-- Node2&#45;&gt;Node2 -->
<g id="edge25_Node000002_Node000002" class="edge">
<title>Node2&#45;&gt;Node2</title>
<g id="a_edge25_Node000002_Node000002"><a xlink:title=" ">
<path fill="none" stroke="#63b8ff" d="M659.31,-430.94C656.12,-434.99 646.89,-437.88 631.62,-437.88 604.49,-437.88 596.43,-428.77 607.46,-420.16"/>
<polygon fill="#63b8ff" stroke="#63b8ff" points="662.69,-430.03 656.26,-421.6 656.03,-432.19 662.69,-430.03"/>
</a>
</g>
</g>
<!-- Node3 -->
<g id="Node000003" class="node">
<title>Node3</title>
<g id="a_Node000003"><a xlink:href="classjuce_1_1CoreAudioClasses_1_1AudioIODeviceCombiner.html#ad3ae6fd98197a3f43d5ec31c542a0ec3" target="_top" xlink:title=" ">
<polygon fill="white" stroke="#666666" points="506.62,-982.12 379.62,-982.12 379.62,-940.38 506.62,-940.38 506.62,-982.12"/>
<text xml:space="preserve" text-anchor="start" x="387.62" y="-968.62" font-family="Helvetica,sans-Serif" font-size="10.00">juce::CoreAudioClasses</text>
<text xml:space="preserve" text-anchor="start" x="387.62" y="-957.38" font-family="Helvetica,sans-Serif" font-size="10.00">::AudioIODeviceCombiner</text>
<text xml:space="preserve" text-anchor="middle" x="443.12" y="-946.12" font-family="Helvetica,sans-Serif" font-size="10.00">::close</text>
</a>
</g>
</g>
<!-- Node2&#45;&gt;Node3 -->
<g id="edge3_Node000002_Node000003" class="edge">
<title>Node2&#45;&gt;Node3</title>
<g id="a_edge3_Node000002_Node000003"><a xlink:title=" ">
<path fill="none" stroke="#63b8ff" d="M628.49,-431.44C621.62,-494.1 596.77,-683.1 534.75,-826.25 515.78,-870.02 482.36,-914.84 461.84,-940.24"/>
<polygon fill="#63b8ff" stroke="#63b8ff" points="631.94,-432.16 629.51,-421.85 624.98,-431.42 631.94,-432.16"/>
</a>
</g>
</g>
<!-- Node9 -->
<g id="Node000009" class="node">
<title>Node9</title>
<g id="a_Node000009"><a xlink:href="classjuce_1_1WasapiClasses_1_1WASAPIAudioIODevice.html#acf7a76a4b240e9388489a3fa918584b6" target="_top" xlink:title=" ">
<polygon fill="white" stroke="#666666" points="505.5,-817.12 380.75,-817.12 380.75,-775.38 505.5,-775.38 505.5,-817.12"/>
<text xml:space="preserve" text-anchor="start" x="388.75" y="-803.62" font-family="Helvetica,sans-Serif" font-size="10.00">juce::WasapiClasses</text>
<text xml:space="preserve" text-anchor="start" x="388.75" y="-792.38" font-family="Helvetica,sans-Serif" font-size="10.00">::WASAPIAudioIODevice</text>
<text xml:space="preserve" text-anchor="middle" x="443.12" y="-781.12" font-family="Helvetica,sans-Serif" font-size="10.00">::close</text>
</a>
</g>
</g>
<!-- Node2&#45;&gt;Node9 -->
<g id="edge9_Node000002_Node000009" class="edge">
<title>Node2&#45;&gt;Node9</title>
<g id="a_edge9_Node000002_Node000009"><a xlink:title=" ">
<path fill="none" stroke="#63b8ff" d="M629.55,-431.46C625.74,-487.37 608.72,-641.22 534.75,-739.25 523.55,-754.09 507.28,-766.03 491.6,-775.08"/>
<polygon fill="#63b8ff" stroke="#63b8ff" points="633.03,-431.95 630.14,-421.76 626.04,-431.53 633.03,-431.95"/>
</a>
</g>
</g>
<!-- Node13 -->
<g id="Node000013" class="node">
<title>Node13</title>
<g id="a_Node000013"><a xlink:href="classjuce_1_1DSoundAudioIODevice.html#af7abd8e827a76fde4054ad5217df0ac2" target="_top" xlink:title=" ">
<polygon fill="white" stroke="#666666" points="512.25,-730.5 374,-730.5 374,-700 512.25,-700 512.25,-730.5"/>
<text xml:space="preserve" text-anchor="start" x="382" y="-717" font-family="Helvetica,sans-Serif" font-size="10.00">juce::DSoundAudioIODevice</text>
<text xml:space="preserve" text-anchor="middle" x="443.12" y="-705.75" font-family="Helvetica,sans-Serif" font-size="10.00">::closeDevice</text>
</a>
</g>
</g>
<!-- Node2&#45;&gt;Node13 -->
<g id="edge14_Node000002_Node000013" class="edge">
<title>Node2&#45;&gt;Node13</title>
<g id="a_edge14_Node000002_Node000013"><a xlink:title=" ">
<path fill="none" stroke="#63b8ff" d="M629.87,-431.65C626.84,-484.03 611.56,-619.63 534.75,-691.25 528.32,-697.24 520.57,-701.78 512.35,-705.2"/>
<polygon fill="#63b8ff" stroke="#63b8ff" points="633.37,-431.88 630.34,-421.73 626.37,-431.55 633.37,-431.88"/>
</a>
</g>
</g>
<!-- Node18 -->
<g id="Node000018" class="node">
<title>Node18</title>
<g id="a_Node000018"><a xlink:href="classjuce_1_1Thread.html#a7ab346d5c4a177c46ac7ef99720444b7" target="_top" xlink:title=" ">
<polygon fill="white" stroke="#666666" points="486.38,-681.88 399.88,-681.88 399.88,-662.62 486.38,-662.62 486.38,-681.88"/>
<text xml:space="preserve" text-anchor="middle" x="443.12" y="-668.38" font-family="Helvetica,sans-Serif" font-size="10.00">juce::Thread::run</text>
</a>
</g>
</g>
<!-- Node2&#45;&gt;Node18 -->
<g id="edge18_Node000002_Node000018" class="edge">
<title>Node2&#45;&gt;Node18</title>
<g id="a_edge18_Node000002_Node000018"><a xlink:title=" ">
<path fill="none" stroke="#63b8ff" d="M628.83,-431.54C623.63,-479.17 604.13,-594.72 534.75,-653.25 521.48,-664.45 503.28,-669.58 486.67,-671.77"/>
<polygon fill="#63b8ff" stroke="#63b8ff" points="632.3,-432.05 629.78,-421.76 625.33,-431.37 632.3,-432.05"/>
</a>
</g>
</g>
<!-- Node19 -->
<g id="Node000019" class="node">
<title>Node19</title>
<g id="a_Node000019"><a xlink:href="classjuce_1_1InterprocessConnectionServer.html#ad63c72c9f85387fefd14bc32e2b9bcda" target="_top" xlink:title=" ">
<polygon fill="white" stroke="#666666" points="513.75,-626.5 372.5,-626.5 372.5,-596 513.75,-596 513.75,-626.5"/>
<text xml:space="preserve" text-anchor="start" x="380.5" y="-613" font-family="Helvetica,sans-Serif" font-size="10.00">juce::InterprocessConnection</text>
<text xml:space="preserve" text-anchor="middle" x="443.12" y="-601.75" font-family="Helvetica,sans-Serif" font-size="10.00">Server::stop</text>
</a>
</g>
</g>
<!-- Node2&#45;&gt;Node19 -->
<g id="edge19_Node000002_Node000019" class="edge">
<title>Node2&#45;&gt;Node19</title>
<g id="a_edge19_Node000002_Node000019"><a xlink:title=" ">
<path fill="none" stroke="#63b8ff" d="M625.2,-430.85C614.41,-467.74 586.67,-545.06 534.75,-586.25 528.61,-591.12 521.59,-595.04 514.23,-598.2"/>
<polygon fill="#63b8ff" stroke="#63b8ff" points="628.51,-432.03 627.82,-421.46 621.76,-430.15 628.51,-432.03"/>
</a>
</g>
</g>
<!-- Node20 -->
<g id="Node000020" class="node">
<title>Node20</title>
<g id="a_Node000020"><a xlink:href="classjuce_1_1MidiOutput.html#a43c2aca0135c28963f33b1bd550267a4" target="_top" xlink:title=" ">
<polygon fill="white" stroke="#666666" points="523.5,-559.5 362.75,-559.5 362.75,-529 523.5,-529 523.5,-559.5"/>
<text xml:space="preserve" text-anchor="start" x="370.75" y="-546" font-family="Helvetica,sans-Serif" font-size="10.00">juce::MidiOutput::stopBackground</text>
<text xml:space="preserve" text-anchor="middle" x="443.12" y="-534.75" font-family="Helvetica,sans-Serif" font-size="10.00">Thread</text>
</a>
</g>
</g>
<!-- Node2&#45;&gt;Node20 -->
<g id="edge21_Node000002_Node000020" class="edge">
<title>Node2&#45;&gt;Node20</title>
<g id="a_edge21_Node000002_Node000020"><a xlink:title=" ">
<path fill="none" stroke="#63b8ff" d="M618.68,-429.75C602.62,-454.3 571.78,-496.07 534.75,-519.25 528.94,-522.89 522.6,-526 516.05,-528.67"/>
<polygon fill="#63b8ff" stroke="#63b8ff" points="621.59,-431.69 623.99,-421.38 615.68,-427.94 621.59,-431.69"/>
</a>
</g>
</g>
<!-- Node25 -->
<g id="Node000025" class="node">
<title>Node25</title>
<g id="a_Node000025"><a xlink:href="classjuce_1_1ThreadWithProgressWindow.html#a53cc47d5bad483583d5a7d259e91c066" target="_top" xlink:title=" ">
<polygon fill="white" stroke="#666666" points="506.62,-492.5 379.62,-492.5 379.62,-462 506.62,-462 506.62,-492.5"/>
<text xml:space="preserve" text-anchor="start" x="387.62" y="-479" font-family="Helvetica,sans-Serif" font-size="10.00">juce::ThreadWithProgress</text>
<text xml:space="preserve" text-anchor="middle" x="443.12" y="-467.75" font-family="Helvetica,sans-Serif" font-size="10.00">Window::timerCallback</text>
</a>
</g>
</g>
<!-- Node2&#45;&gt;Node25 -->
<g id="edge26_Node000002_Node000025" class="edge">
<title>Node2&#45;&gt;Node25</title>
<g id="a_edge26_Node000002_Node000025"><a xlink:title=" ">
<path fill="none" stroke="#63b8ff" d="M599.81,-425.1C581.23,-433.71 556.94,-444.38 534.75,-452.25 525.37,-455.58 515.31,-458.74 505.43,-461.63"/>
<polygon fill="#63b8ff" stroke="#63b8ff" points="601.09,-428.37 608.66,-420.95 598.12,-422.03 601.09,-428.37"/>
</a>
</g>
</g>
<!-- Node26 -->
<g id="Node000026" class="node">
<title>Node26</title>
<g id="a_Node000026"><a xlink:href="structjuce_1_1NetworkServiceDiscovery_1_1Advertiser.html#aacaaf2e275309f23c7bd2d6195d7b5c7" target="_top" xlink:title=" ">
<polygon fill="white" stroke="#666666" points="518.62,-425.5 367.62,-425.5 367.62,-395 518.62,-395 518.62,-425.5"/>
<text xml:space="preserve" text-anchor="start" x="375.62" y="-412" font-family="Helvetica,sans-Serif" font-size="10.00">juce::NetworkServiceDiscovery</text>
<text xml:space="preserve" text-anchor="middle" x="443.12" y="-400.75" font-family="Helvetica,sans-Serif" font-size="10.00">::Advertiser::~Advertiser</text>
</a>
</g>
</g>
<!-- Node2&#45;&gt;Node26 -->
<g id="edge28_Node000002_Node000026" class="edge">
<title>Node2&#45;&gt;Node26</title>
<g id="a_edge28_Node000002_Node000026"><a xlink:title=" ">
<path fill="none" stroke="#63b8ff" d="M558.98,-410.25C545.85,-410.25 532.12,-410.25 518.91,-410.25"/>
<polygon fill="#63b8ff" stroke="#63b8ff" points="558.82,-413.75 568.82,-410.25 558.82,-406.75 558.82,-413.75"/>
</a>
</g>
</g>
<!-- Node27 -->
<g id="Node000027" class="node">
<title>Node27</title>
<g id="a_Node000027"><a xlink:href="structjuce_1_1NetworkServiceDiscovery_1_1AvailableServiceList.html#a6342a4590cc8acea67d360f66c42f07b" target="_top" xlink:title=" ">
<polygon fill="white" stroke="#666666" points="518.62,-359.12 367.62,-359.12 367.62,-317.38 518.62,-317.38 518.62,-359.12"/>
<text xml:space="preserve" text-anchor="start" x="375.62" y="-345.62" font-family="Helvetica,sans-Serif" font-size="10.00">juce::NetworkServiceDiscovery</text>
<text xml:space="preserve" text-anchor="start" x="375.62" y="-334.38" font-family="Helvetica,sans-Serif" font-size="10.00">::AvailableServiceList::</text>
<text xml:space="preserve" text-anchor="middle" x="443.12" y="-323.12" font-family="Helvetica,sans-Serif" font-size="10.00">~AvailableServiceList</text>
</a>
</g>
</g>
<!-- Node2&#45;&gt;Node27 -->
<g id="edge30_Node000002_Node000027" class="edge">
<title>Node2&#45;&gt;Node27</title>
<g id="a_edge30_Node000002_Node000027"><a xlink:title=" ">
<path fill="none" stroke="#63b8ff" d="M594.17,-396.18C567.18,-385.76 529.96,-371.39 499.33,-359.56"/>
<polygon fill="#63b8ff" stroke="#63b8ff" points="592.69,-399.36 603.28,-399.69 595.21,-392.83 592.69,-399.36"/>
</a>
</g>
</g>
<!-- Node28 -->
<g id="Node000028" class="node">
<title>Node28</title>
<g id="a_Node000028"><a xlink:href="structjuce_1_1ChildProcessCoordinator_1_1Connection.html#af355f9735701b720dffe89dab92ea972" target="_top" xlink:title=" ">
<polygon fill="white" stroke="#666666" points="507,-299.5 379.25,-299.5 379.25,-269 507,-269 507,-299.5"/>
<text xml:space="preserve" text-anchor="start" x="387.25" y="-286" font-family="Helvetica,sans-Serif" font-size="10.00">ChildProcessCoordinator</text>
<text xml:space="preserve" text-anchor="middle" x="443.12" y="-274.75" font-family="Helvetica,sans-Serif" font-size="10.00">::Connection::~Connection</text>
</a>
</g>
</g>
<!-- Node2&#45;&gt;Node28 -->
<g id="edge32_Node000002_Node000028" class="edge">
<title>Node2&#45;&gt;Node28</title>
<g id="a_edge32_Node000002_Node000028"><a xlink:title=" ">
<path fill="none" stroke="#63b8ff" d="M617.69,-390.95C601.17,-367.82 570.41,-329.51 534.75,-308.25 526.36,-303.25 516.93,-299.27 507.4,-296.12"/>
<polygon fill="#63b8ff" stroke="#63b8ff" points="614.81,-392.94 623.38,-399.16 620.56,-388.95 614.81,-392.94"/>
</a>
</g>
</g>
<!-- Node29 -->
<g id="Node000029" class="node">
<title>Node29</title>
<g id="a_Node000029"><a xlink:href="structjuce_1_1ChildProcessWorker_1_1Connection.html#a5dc6ea8f8ce2a3920eb0cc30eebb0be0" target="_top" xlink:title=" ">
<polygon fill="white" stroke="#666666" points="507,-250.5 379.25,-250.5 379.25,-220 507,-220 507,-250.5"/>
<text xml:space="preserve" text-anchor="start" x="387.25" y="-237" font-family="Helvetica,sans-Serif" font-size="10.00">ChildProcessWorker</text>
<text xml:space="preserve" text-anchor="middle" x="443.12" y="-225.75" font-family="Helvetica,sans-Serif" font-size="10.00">::Connection::~Connection</text>
</a>
</g>
</g>
<!-- Node2&#45;&gt;Node29 -->
<g id="edge33_Node000002_Node000029" class="edge">
<title>Node2&#45;&gt;Node29</title>
<g id="a_edge33_Node000002_Node000029"><a xlink:title=" ">
<path fill="none" stroke="#63b8ff" d="M623.26,-390C610.42,-357.58 580.82,-294.24 534.75,-260.25 526.61,-254.24 517.09,-249.68 507.35,-246.21"/>
<polygon fill="#63b8ff" stroke="#63b8ff" points="619.87,-390.92 626.69,-399.02 626.41,-388.43 619.87,-390.92"/>
</a>
</g>
</g>
<!-- Node30 -->
<g id="Node000030" class="node">
<title>Node30</title>
<g id="a_Node000030"><a xlink:href="classjuce_1_1Thread.html#a37d9edd3a1a776cbc27dedff949c9726" target="_top" xlink:title=" ">
<polygon fill="white" stroke="#666666" points="497.25,-201.88 389,-201.88 389,-182.62 497.25,-182.62 497.25,-201.88"/>
<text xml:space="preserve" text-anchor="middle" x="443.12" y="-188.38" font-family="Helvetica,sans-Serif" font-size="10.00">juce::Thread::~Thread</text>
</a>
</g>
</g>
<!-- Node2&#45;&gt;Node30 -->
<g id="edge34_Node000002_Node000030" class="edge">
<title>Node2&#45;&gt;Node30</title>
<g id="a_edge34_Node000002_Node000030"><a xlink:title=" ">
<path fill="none" stroke="#63b8ff" d="M626.84,-389.23C618.29,-348.14 593.46,-257.21 534.75,-211.25 524.12,-202.93 510.71,-198.02 497.48,-195.18"/>
<polygon fill="#63b8ff" stroke="#63b8ff" points="623.4,-389.85 628.74,-399 630.27,-388.51 623.4,-389.85"/>
</a>
</g>
</g>
<!-- Node31 -->
<g id="Node000031" class="node">
<title>Node31</title>
<g id="a_Node000031"><a xlink:href="classjuce_1_1ThreadWithProgressWindow.html#a407db6229c67c527360b73bb137e4a64" target="_top" xlink:title=" ">
<polygon fill="white" stroke="#666666" points="534.75,-146.5 351.5,-146.5 351.5,-116 534.75,-116 534.75,-146.5"/>
<text xml:space="preserve" text-anchor="start" x="359.5" y="-133" font-family="Helvetica,sans-Serif" font-size="10.00">juce::ThreadWithProgress</text>
<text xml:space="preserve" text-anchor="middle" x="443.12" y="-121.75" font-family="Helvetica,sans-Serif" font-size="10.00">Window::~ThreadWithProgressWindow</text>
</a>
</g>
</g>
<!-- Node2&#45;&gt;Node31 -->
<g id="edge35_Node000002_Node000031" class="edge">
<title>Node2&#45;&gt;Node31</title>
<g id="a_edge35_Node000002_Node000031"><a xlink:title=" ">
<path fill="none" stroke="#63b8ff" d="M627.41,-389.02C619.54,-343.79 595.31,-236.89 534.75,-173.25 523.87,-161.82 509.28,-153.21 494.98,-146.86"/>
<polygon fill="#63b8ff" stroke="#63b8ff" points="623.94,-389.48 629.01,-398.79 630.85,-388.36 623.94,-389.48"/>
</a>
</g>
</g>
<!-- Node32 -->
<g id="Node000032" class="node">
<title>Node32</title>
<g id="a_Node000032"><a xlink:href="classjuce_1_1Timer_1_1TimerThread.html#a555be770ba39e01d9641ce40cbb9628a" target="_top" xlink:title=" ">
<polygon fill="white" stroke="#666666" points="504.38,-97.5 381.88,-97.5 381.88,-67 504.38,-67 504.38,-97.5"/>
<text xml:space="preserve" text-anchor="start" x="389.88" y="-84" font-family="Helvetica,sans-Serif" font-size="10.00">juce::Timer::TimerThread</text>
<text xml:space="preserve" text-anchor="middle" x="443.12" y="-72.75" font-family="Helvetica,sans-Serif" font-size="10.00">::~TimerThread</text>
</a>
</g>
</g>
<!-- Node2&#45;&gt;Node32 -->
<g id="edge37_Node000002_Node000032" class="edge">
<title>Node2&#45;&gt;Node32</title>
<g id="a_edge37_Node000002_Node000032"><a xlink:title=" ">
<path fill="none" stroke="#63b8ff" d="M630.44,-388.73C628.75,-333.57 616.41,-185.93 534.75,-107.25 526.4,-99.21 515.72,-93.71 504.63,-89.95"/>
<polygon fill="#63b8ff" stroke="#63b8ff" points="626.94,-388.69 630.64,-398.62 633.93,-388.55 626.94,-388.69"/>
</a>
</g>
</g>
<!-- Node33 -->
<g id="Node000033" class="node">
<title>Node33</title>
<g id="a_Node000033"><a xlink:href="classjuce_1_1TimeSliceThread.html#a446f5a1d02a566531be8853c026834bf" target="_top" xlink:title=" ">
<polygon fill="white" stroke="#666666" points="499.12,-30.5 387.12,-30.5 387.12,0 499.12,0 499.12,-30.5"/>
<text xml:space="preserve" text-anchor="start" x="395.12" y="-17" font-family="Helvetica,sans-Serif" font-size="10.00">juce::TimeSliceThread</text>
<text xml:space="preserve" text-anchor="middle" x="443.12" y="-5.75" font-family="Helvetica,sans-Serif" font-size="10.00">::~TimeSliceThread</text>
</a>
</g>
</g>
<!-- Node2&#45;&gt;Node33 -->
<g id="edge38_Node000002_Node000033" class="edge">
<title>Node2&#45;&gt;Node33</title>
<g id="a_edge38_Node000002_Node000033"><a xlink:title=" ">
<path fill="none" stroke="#63b8ff" d="M630.7,-389.01C629.82,-329.63 619.58,-159.61 534.75,-58.25 524.69,-46.23 510.5,-37.35 496.33,-30.88"/>
<polygon fill="#63b8ff" stroke="#63b8ff" points="627.2,-388.73 630.76,-398.71 634.2,-388.69 627.2,-388.73"/>
</a>
</g>
</g>
<!-- Node4 -->
<g id="Node000004" class="node">
<title>Node4</title>
<g id="a_Node000004"><a xlink:href="classjuce_1_1CoreAudioClasses_1_1AudioIODeviceCombiner.html#a1102beed2fac65cb6f2f71b9bb495cbc" target="_top" xlink:title=" ">
<polygon fill="white" stroke="#666666" points="315.5,-1068.5 163,-1068.5 163,-1038 315.5,-1038 315.5,-1068.5"/>
<text xml:space="preserve" text-anchor="start" x="171" y="-1055" font-family="Helvetica,sans-Serif" font-size="10.00">juce::CoreAudioClasses</text>
<text xml:space="preserve" text-anchor="middle" x="239.25" y="-1043.75" font-family="Helvetica,sans-Serif" font-size="10.00">::AudioIODeviceCombiner::open</text>
</a>
</g>
</g>
<!-- Node3&#45;&gt;Node4 -->
<g id="edge4_Node000003_Node000004" class="edge">
<title>Node3&#45;&gt;Node4</title>
<g id="a_edge4_Node000003_Node000004"><a xlink:title=" ">
<path fill="none" stroke="#63b8ff" d="M391.61,-987.74C368.62,-999.44 340.93,-1013.05 315.5,-1024.25 305.12,-1028.82 293.78,-1033.4 283.12,-1037.53"/>
<polygon fill="#63b8ff" stroke="#63b8ff" points="393.16,-990.88 400.46,-983.21 389.97,-984.65 393.16,-990.88"/>
</a>
</g>
</g>
<!-- Node5 -->
<g id="Node000005" class="node">
<title>Node5</title>
<g id="a_Node000005"><a xlink:href="classjuce_1_1CoreAudioClasses_1_1AudioIODeviceCombiner.html#a4ed8383e42ae4d20f19094a3339ad6f9" target="_top" xlink:title=" ">
<polygon fill="#fff0f0" stroke="red" points="127,-1052.12 0,-1052.12 0,-1010.38 127,-1010.38 127,-1052.12"/>
<text xml:space="preserve" text-anchor="start" x="8" y="-1038.62" font-family="Helvetica,sans-Serif" font-size="10.00">juce::CoreAudioClasses</text>
<text xml:space="preserve" text-anchor="start" x="8" y="-1027.38" font-family="Helvetica,sans-Serif" font-size="10.00">::AudioIODeviceCombiner</text>
<text xml:space="preserve" text-anchor="middle" x="63.5" y="-1016.12" font-family="Helvetica,sans-Serif" font-size="10.00">::restart</text>
</a>
</g>
</g>
<!-- Node3&#45;&gt;Node5 -->
<g id="edge6_Node000003_Node000005" class="edge">
<title>Node3&#45;&gt;Node5</title>
<g id="a_edge6_Node000003_Node000005"><a xlink:title=" ">
<path fill="none" stroke="#63b8ff" d="M368.08,-979.77C350.87,-983.8 332.59,-987.87 315.5,-991.25 251.76,-1003.86 178.3,-1015.2 127.39,-1022.56"/>
<polygon fill="#63b8ff" stroke="#63b8ff" points="368.81,-983.19 377.73,-977.48 367.2,-976.38 368.81,-983.19"/>
</a>
</g>
</g>
<!-- Node7 -->
<g id="Node000007" class="node">
<title>Node7</title>
<g id="a_Node000007"><a xlink:href="classjuce_1_1CoreAudioClasses_1_1AudioIODeviceCombiner.html#ad5ec56cbe86e23e12697b1338e2209f1" target="_top" xlink:title=" ">
<polygon fill="white" stroke="#666666" points="302.75,-982.12 175.75,-982.12 175.75,-940.38 302.75,-940.38 302.75,-982.12"/>
<text xml:space="preserve" text-anchor="start" x="183.75" y="-968.62" font-family="Helvetica,sans-Serif" font-size="10.00">juce::CoreAudioClasses</text>
<text xml:space="preserve" text-anchor="start" x="183.75" y="-957.38" font-family="Helvetica,sans-Serif" font-size="10.00">::AudioIODeviceCombiner</text>
<text xml:space="preserve" text-anchor="middle" x="239.25" y="-946.12" font-family="Helvetica,sans-Serif" font-size="10.00">::restartAsync</text>
</a>
</g>
</g>
<!-- Node3&#45;&gt;Node7 -->
<g id="edge7_Node000003_Node000007" class="edge">
<title>Node3&#45;&gt;Node7</title>
<g id="a_edge7_Node000003_Node000007"><a xlink:title=" ">
<path fill="none" stroke="#63b8ff" d="M368.03,-961.25C346.67,-961.25 323.58,-961.25 302.98,-961.25"/>
<polygon fill="#63b8ff" stroke="#63b8ff" points="367.84,-964.75 377.84,-961.25 367.84,-957.75 367.84,-964.75"/>
</a>
</g>
</g>
<!-- Node8 -->
<g id="Node000008" class="node">
<title>Node8</title>
<g id="a_Node000008"><a xlink:href="classjuce_1_1CoreAudioClasses_1_1AudioIODeviceCombiner.html#a1355c66f1fe3f281c379706d35ef1932" target="_top" xlink:title=" ">
<polygon fill="white" stroke="#666666" points="305.38,-922.12 173.12,-922.12 173.12,-880.38 305.38,-880.38 305.38,-922.12"/>
<text xml:space="preserve" text-anchor="start" x="181.12" y="-908.62" font-family="Helvetica,sans-Serif" font-size="10.00">juce::CoreAudioClasses</text>
<text xml:space="preserve" text-anchor="start" x="181.12" y="-897.38" font-family="Helvetica,sans-Serif" font-size="10.00">::AudioIODeviceCombiner</text>
<text xml:space="preserve" text-anchor="middle" x="239.25" y="-886.12" font-family="Helvetica,sans-Serif" font-size="10.00">::~AudioIODeviceCombiner</text>
</a>
</g>
</g>
<!-- Node3&#45;&gt;Node8 -->
<g id="edge8_Node000003_Node000008" class="edge">
<title>Node3&#45;&gt;Node8</title>
<g id="a_edge8_Node000003_Node000008"><a xlink:title=" ">
<path fill="none" stroke="#63b8ff" d="M368.47,-939.36C347.95,-933.26 325.79,-926.67 305.77,-920.72"/>
<polygon fill="#63b8ff" stroke="#63b8ff" points="367.32,-942.67 377.91,-942.16 369.32,-935.96 367.32,-942.67"/>
</a>
</g>
</g>
<!-- Node4&#45;&gt;Node5 -->
<g id="edge5_Node000004_Node000005" class="edge">
<title>Node4&#45;&gt;Node5</title>
<g id="a_edge5_Node000004_Node000005"><a xlink:title=" ">
<path fill="none" stroke="#63b8ff" d="M151.24,-1042.23C143.23,-1041.22 135.21,-1040.2 127.47,-1039.22"/>
<polygon fill="#63b8ff" stroke="#63b8ff" points="150.68,-1045.69 161.04,-1043.47 151.56,-1038.75 150.68,-1045.69"/>
</a>
</g>
</g>
<!-- Node10 -->
<g id="Node000010" class="node">
<title>Node10</title>
<g id="a_Node000010"><a xlink:href="classjuce_1_1WasapiClasses_1_1WASAPIAudioIODevice.html#a6b29ff8d9092017b1d8190770eb5f6f5" target="_top" xlink:title=" ">
<polygon fill="white" stroke="#666666" points="125.88,-852.12 1.13,-852.12 1.13,-810.38 125.88,-810.38 125.88,-852.12"/>
<text xml:space="preserve" text-anchor="start" x="9.13" y="-838.62" font-family="Helvetica,sans-Serif" font-size="10.00">juce::WasapiClasses</text>
<text xml:space="preserve" text-anchor="start" x="9.13" y="-827.38" font-family="Helvetica,sans-Serif" font-size="10.00">::WASAPIAudioIODevice</text>
<text xml:space="preserve" text-anchor="middle" x="63.5" y="-816.12" font-family="Helvetica,sans-Serif" font-size="10.00">::handleAsyncUpdate</text>
</a>
</g>
</g>
<!-- Node9&#45;&gt;Node10 -->
<g id="edge10_Node000009_Node000010" class="edge">
<title>Node9&#45;&gt;Node10</title>
<g id="a_edge10_Node000009_Node000010"><a xlink:title=" ">
<path fill="none" stroke="#63b8ff" d="M371.08,-820.85C353.16,-825.98 333.81,-830.63 315.5,-833.25 248.41,-842.85 230.77,-833.94 163,-833.25 151.11,-833.13 138.42,-832.93 126.24,-832.7"/>
<polygon fill="#63b8ff" stroke="#63b8ff" points="371.99,-824.23 380.58,-818.03 370,-817.52 371.99,-824.23"/>
</a>
</g>
</g>
<!-- Node11 -->
<g id="Node000011" class="node">
<title>Node11</title>
<g id="a_Node000011"><a xlink:href="classjuce_1_1WasapiClasses_1_1WASAPIAudioIODevice.html#a7b469375ba5c1974cd7e4536c4c1add9" target="_top" xlink:title=" ">
<polygon fill="white" stroke="#666666" points="314.38,-824.5 164.12,-824.5 164.12,-794 314.38,-794 314.38,-824.5"/>
<text xml:space="preserve" text-anchor="start" x="172.12" y="-811" font-family="Helvetica,sans-Serif" font-size="10.00">juce::WasapiClasses</text>
<text xml:space="preserve" text-anchor="middle" x="239.25" y="-799.75" font-family="Helvetica,sans-Serif" font-size="10.00">::WASAPIAudioIODevice::open</text>
</a>
</g>
</g>
<!-- Node9&#45;&gt;Node11 -->
<g id="edge11_Node000009_Node000011" class="edge">
<title>Node9&#45;&gt;Node11</title>
<g id="a_edge11_Node000009_Node000011"><a xlink:title=" ">
<path fill="none" stroke="#63b8ff" d="M369.04,-800.96C351.36,-802.1 332.44,-803.31 314.69,-804.46"/>
<polygon fill="#63b8ff" stroke="#63b8ff" points="369.19,-804.45 378.95,-800.32 368.74,-797.47 369.19,-804.45"/>
</a>
</g>
</g>
<!-- Node12 -->
<g id="Node000012" class="node">
<title>Node12</title>
<g id="a_Node000012"><a xlink:href="classjuce_1_1WasapiClasses_1_1WASAPIAudioIODevice.html#a95973df2a7e677062e5123dff4a411c4" target="_top" xlink:title=" ">
<polygon fill="white" stroke="#666666" points="304.25,-776.12 174.25,-776.12 174.25,-734.38 304.25,-734.38 304.25,-776.12"/>
<text xml:space="preserve" text-anchor="start" x="182.25" y="-762.62" font-family="Helvetica,sans-Serif" font-size="10.00">juce::WasapiClasses</text>
<text xml:space="preserve" text-anchor="start" x="182.25" y="-751.38" font-family="Helvetica,sans-Serif" font-size="10.00">::WASAPIAudioIODevice</text>
<text xml:space="preserve" text-anchor="middle" x="239.25" y="-740.12" font-family="Helvetica,sans-Serif" font-size="10.00">::~WASAPIAudioIODevice</text>
</a>
</g>
</g>
<!-- Node9&#45;&gt;Node12 -->
<g id="edge13_Node000009_Node000012" class="edge">
<title>Node9&#45;&gt;Node12</title>
<g id="a_edge13_Node000009_Node000012"><a xlink:title=" ">
<path fill="none" stroke="#63b8ff" d="M369.27,-781.45C348.15,-777.16 325.25,-772.51 304.68,-768.34"/>
<polygon fill="#63b8ff" stroke="#63b8ff" points="368.48,-784.86 378.98,-783.42 369.87,-778 368.48,-784.86"/>
</a>
</g>
</g>
<!-- Node11&#45;&gt;Node10 -->
<g id="edge12_Node000011_Node000010" class="edge">
<title>Node11&#45;&gt;Node10</title>
<g id="a_edge12_Node000011_Node000010"><a xlink:title=" ">
<path fill="none" stroke="#63b8ff" d="M152.59,-820.1C143.7,-821.22 134.79,-822.35 126.24,-823.43"/>
<polygon fill="#63b8ff" stroke="#63b8ff" points="152.83,-823.59 162.31,-818.87 151.95,-816.65 152.83,-823.59"/>
</a>
</g>
</g>
<!-- Node14 -->
<g id="Node000014" class="node">
<title>Node14</title>
<g id="a_Node000014"><a xlink:href="classjuce_1_1DSoundAudioIODevice.html#a58093b9995f1174531a0f7ffabb3e9d4" target="_top" xlink:title=" ">
<polygon fill="#fff0f0" stroke="red" points="308.38,-716.5 170.12,-716.5 170.12,-686 308.38,-686 308.38,-716.5"/>
<text xml:space="preserve" text-anchor="start" x="178.12" y="-703" font-family="Helvetica,sans-Serif" font-size="10.00">juce::DSoundAudioIODevice</text>
<text xml:space="preserve" text-anchor="middle" x="239.25" y="-691.75" font-family="Helvetica,sans-Serif" font-size="10.00">::close</text>
</a>
</g>
</g>
<!-- Node13&#45;&gt;Node14 -->
<g id="edge15_Node000013_Node000014" class="edge">
<title>Node13&#45;&gt;Node14</title>
<g id="a_edge15_Node000013_Node000014"><a xlink:title=" ">
<path fill="none" stroke="#63b8ff" d="M362.32,-709.72C344.64,-708.49 326.05,-707.2 308.87,-706.01"/>
<polygon fill="#63b8ff" stroke="#63b8ff" points="362.05,-713.21 372.27,-710.41 362.54,-706.22 362.05,-713.21"/>
</a>
</g>
</g>
<!-- Node16 -->
<g id="Node000016" class="node">
<title>Node16</title>
<g id="a_Node000016"><a xlink:href="classjuce_1_1DSoundAudioIODevice.html#a7321857cd4fd3aeabf755486ed552911" target="_top" xlink:title=" ">
<polygon fill="#fff0f0" stroke="red" points="308.38,-649.5 170.12,-649.5 170.12,-619 308.38,-619 308.38,-649.5"/>
<text xml:space="preserve" text-anchor="start" x="178.12" y="-636" font-family="Helvetica,sans-Serif" font-size="10.00">juce::DSoundAudioIODevice</text>
<text xml:space="preserve" text-anchor="middle" x="239.25" y="-624.75" font-family="Helvetica,sans-Serif" font-size="10.00">::openDevice</text>
</a>
</g>
</g>
<!-- Node13&#45;&gt;Node16 -->
<g id="edge16_Node000013_Node000016" class="edge">
<title>Node13&#45;&gt;Node16</title>
<g id="a_edge16_Node000013_Node000016"><a xlink:title=" ">
<path fill="none" stroke="#63b8ff" d="M365.63,-696.26C360.81,-694.67 356.07,-693 351.5,-691.25 321.51,-679.75 289.01,-662.5 266.93,-649.98"/>
<polygon fill="#63b8ff" stroke="#63b8ff" points="364.22,-699.48 374.81,-699.14 366.31,-692.81 364.22,-699.48"/>
</a>
</g>
</g>
<!-- Node16&#45;&gt;Node16 -->
<g id="edge17_Node000016_Node000016" class="edge">
<title>Node16&#45;&gt;Node16</title>
<g id="a_edge17_Node000016_Node000016"><a xlink:title=" ">
<path fill="none" stroke="#63b8ff" d="M268.72,-661.2C263.9,-664.97 254.08,-667.5 239.25,-667.5 212.13,-667.5 201.75,-659.06 208.11,-649.99"/>
<polygon fill="#63b8ff" stroke="#63b8ff" points="272.16,-661.89 270.17,-651.48 265.24,-660.86 272.16,-661.89"/>
</a>
</g>
</g>
<!-- Node19&#45;&gt;Node19 -->
<g id="edge20_Node000019_Node000019" class="edge">
<title>Node19&#45;&gt;Node19</title>
<g id="a_edge20_Node000019_Node000019"><a xlink:title=" ">
<path fill="none" stroke="#63b8ff" d="M474.74,-638.2C469.57,-641.97 459.03,-644.5 443.12,-644.5 414.04,-644.5 402.91,-636.06 409.72,-626.99"/>
<polygon fill="#63b8ff" stroke="#63b8ff" points="478.17,-638.91 476.29,-628.48 471.26,-637.8 478.17,-638.91"/>
</a>
</g>
</g>
<!-- Node20&#45;&gt;Node20 -->
<g id="edge24_Node000020_Node000020" class="edge">
<title>Node20&#45;&gt;Node20</title>
<g id="a_edge24_Node000020_Node000020"><a xlink:title=" ">
<path fill="none" stroke="#63b8ff" d="M474.74,-571.2C469.57,-574.97 459.03,-577.5 443.12,-577.5 414.04,-577.5 402.91,-569.06 409.72,-559.99"/>
<polygon fill="#63b8ff" stroke="#63b8ff" points="478.17,-571.91 476.29,-561.48 471.26,-570.8 478.17,-571.91"/>
</a>
</g>
</g>
<!-- Node21 -->
<g id="Node000021" class="node">
<title>Node21</title>
<g id="a_Node000021"><a xlink:href="classCarlaEngineJuce.html#a7de557469a571f13924afe89b48f35b3" target="_top" xlink:title=" ">
<polygon fill="#fff0f0" stroke="red" points="297.5,-570.88 181,-570.88 181,-551.62 297.5,-551.62 297.5,-570.88"/>
<text xml:space="preserve" text-anchor="middle" x="239.25" y="-557.38" font-family="Helvetica,sans-Serif" font-size="10.00">CarlaEngineJuce::close</text>
</a>
</g>
</g>
<!-- Node20&#45;&gt;Node21 -->
<g id="edge22_Node000020_Node000021" class="edge">
<title>Node20&#45;&gt;Node21</title>
<g id="a_edge22_Node000020_Node000021"><a xlink:title=" ">
<path fill="none" stroke="#63b8ff" d="M350.9,-551.93C332.91,-553.45 314.5,-555 297.99,-556.39"/>
<polygon fill="#63b8ff" stroke="#63b8ff" points="351.16,-555.42 360.83,-551.1 350.57,-548.45 351.16,-555.42"/>
</a>
</g>
</g>
<!-- Node24 -->
<g id="Node000024" class="node">
<title>Node24</title>
<g id="a_Node000024"><a xlink:href="classCarlaEngineJuce.html#ae7c5983a7f39a8c31a6963f59edec373" target="_top" xlink:title=" ">
<polygon fill="white" stroke="#666666" points="309.5,-533.5 169,-533.5 169,-503 309.5,-503 309.5,-533.5"/>
<text xml:space="preserve" text-anchor="start" x="177" y="-520" font-family="Helvetica,sans-Serif" font-size="10.00">CarlaEngineJuce::disconnect</text>
<text xml:space="preserve" text-anchor="middle" x="239.25" y="-508.75" font-family="Helvetica,sans-Serif" font-size="10.00">ExternalGraphPort</text>
</a>
</g>
</g>
<!-- Node20&#45;&gt;Node24 -->
<g id="edge23_Node000020_Node000024" class="edge">
<title>Node20&#45;&gt;Node24</title>
<g id="a_edge23_Node000020_Node000024"><a xlink:title=" ">
<path fill="none" stroke="#63b8ff" d="M351.29,-532.55C337.43,-530.77 323.3,-528.95 309.98,-527.23"/>
<polygon fill="#63b8ff" stroke="#63b8ff" points="350.47,-535.97 360.84,-533.78 351.37,-529.03 350.47,-535.97"/>
</a>
</g>
</g>
<!-- Node25&#45;&gt;Node25 -->
<g id="edge27_Node000025_Node000025" class="edge">
<title>Node25&#45;&gt;Node25</title>
<g id="a_edge27_Node000025_Node000025"><a xlink:title=" ">
<path fill="none" stroke="#63b8ff" d="M474.74,-504.2C469.57,-507.97 459.03,-510.5 443.12,-510.5 414.04,-510.5 402.91,-502.06 409.72,-492.99"/>
<polygon fill="#63b8ff" stroke="#63b8ff" points="478.17,-504.91 476.29,-494.48 471.26,-503.8 478.17,-504.91"/>
</a>
</g>
</g>
<!-- Node26&#45;&gt;Node26 -->
<g id="edge29_Node000026_Node000026" class="edge">
<title>Node26&#45;&gt;Node26</title>
<g id="a_edge29_Node000026_Node000026"><a xlink:title=" ">
<path fill="none" stroke="#63b8ff" d="M474.74,-437.2C469.57,-440.97 459.03,-443.5 443.12,-443.5 414.04,-443.5 402.91,-435.06 409.72,-425.99"/>
<polygon fill="#63b8ff" stroke="#63b8ff" points="478.17,-437.91 476.29,-427.48 471.26,-436.8 478.17,-437.91"/>
</a>
</g>
</g>
<!-- Node27&#45;&gt;Node27 -->
<g id="edge31_Node000027_Node000027" class="edge">
<title>Node27&#45;&gt;Node27</title>
<g id="a_edge31_Node000027_Node000027"><a xlink:title=" ">
<path fill="none" stroke="#63b8ff" d="M474.15,-370.24C468.79,-374.38 458.45,-377.12 443.12,-377.12 416.62,-377.12 405.02,-368.92 408.33,-359.44"/>
<polygon fill="#63b8ff" stroke="#63b8ff" points="477.43,-371.47 477.42,-360.87 470.82,-369.16 477.43,-371.47"/>
</a>
</g>
</g>
<!-- Node31&#45;&gt;Node31 -->
<g id="edge36_Node000031_Node000031" class="edge">
<title>Node31&#45;&gt;Node31</title>
<g id="a_edge36_Node000031_Node000031"><a xlink:title=" ">
<path fill="none" stroke="#63b8ff" d="M474.74,-158.2C469.57,-161.97 459.03,-164.5 443.12,-164.5 414.04,-164.5 402.91,-156.06 409.72,-146.99"/>
<polygon fill="#63b8ff" stroke="#63b8ff" points="478.17,-158.91 476.29,-148.48 471.26,-157.8 478.17,-158.91"/>
</a>
</g>
</g>
<!-- Node33&#45;&gt;Node33 -->
<g id="edge39_Node000033_Node000033" class="edge">
<title>Node33&#45;&gt;Node33</title>
<g id="a_edge39_Node000033_Node000033"><a xlink:title=" ">
<path fill="none" stroke="#63b8ff" d="M474.74,-42.2C469.57,-45.97 459.03,-48.5 443.12,-48.5 414.04,-48.5 402.91,-40.06 409.72,-30.99"/>
<polygon fill="#63b8ff" stroke="#63b8ff" points="478.17,-42.91 476.29,-32.48 471.26,-41.8 478.17,-42.91"/>
</a>
</g>
</g>
</g>
</svg>
