<?xml version="1.0" encoding="UTF-8" standalone="no"?>
<!DOCTYPE svg PUBLIC "-//W3C//DTD SVG 1.1//EN"
 "http://www.w3.org/Graphics/SVG/1.1/DTD/svg11.dtd">
<!-- Generated by graphviz version 14.0.2 (0)
 -->
<!-- Title: juce::Slider::Pimpl::handleAsyncUpdate Pages: 1 -->
<!--zoomable 477 -->

<svg id="main" version="1.1" xmlns="http://www.w3.org/2000/svg" xmlns:xlink="http://www.w3.org/1999/xlink" xml:space="preserve" onload="init(evt)">

<style type="text/css"><![CDATA[
.node, .edge {opacity: 0.7;}
.node.selected, .edge.selected {opacity: 1;}
.edge:hover path { stroke: red; }
.edge:hover polygon { stroke: red; fill: red; }
]]></style>

<defs>
  <circle id="rim" cx="0" cy="0" r="7"/>
  <circle id="rim2" cx="0" cy="0" r="3.5"/>
  <g id="zoomPlus">
    <use xlink:href="#rim" fill="#404040"><set attributeName="fill" to="#808080" begin="zoomplus.mouseover" end="zoomplus.mouseout"/></use>
    <path d="M-4,0h8M0,-4v8" fill="none" stroke="white" stroke-width="1.5" pointer-events="none"/>
  </g>
  <g id="zoomMin">
    <use xlink:href="#rim" fill="#404040"><set attributeName="fill" to="#808080" begin="zoomminus.mouseover" end="zoomminus.mouseout"/></use>
    <path d="M-4,0h8" fill="none" stroke="white" stroke-width="1.5" pointer-events="none"/>
  </g>
  <g id="arrowUp" transform="translate(30 24)">
    <use xlink:href="#rim"/>
    <path pointer-events="none" fill="none" stroke="white" stroke-width="1.5" d="M0,-3.0v7 M-2.5,-0.5L0,-3.0L2.5,-0.5"/>
  </g>
  <g id="arrowRight" transform="rotate(90) translate(36 -43)">
    <use xlink:href="#rim"/>
    <path pointer-events="none" fill="none" stroke="white" stroke-width="1.5" d="M0,-3.0v7 M-2.5,-0.5L0,-3.0L2.5,-0.5"/>
  </g>
  <g id="arrowDown" transform="rotate(180) translate(-30 -48)">
    <use xlink:href="#rim"/>
    <path pointer-events="none" fill="none" stroke="white" stroke-width="1.5" d="M0,-3.0v7 M-2.5,-0.5L0,-3.0L2.5,-0.5"/>
  </g>
  <g id="arrowLeft" transform="rotate(270) translate(-36 17)">
    <use xlink:href="#rim"/>
    <path pointer-events="none" fill="none" stroke="white" stroke-width="1.5" d="M0,-3.0v7 M-2.5,-0.5L0,-3.0L2.5,-0.5"/>
  </g>
  <g id="resetDef">
    <use xlink:href="#rim2" fill="#404040"><set attributeName="fill" to="#808080" begin="reset.mouseover" end="reset.mouseout"/></use>
  </g>
</defs>
<script type="application/ecmascript">
var viewWidth = 837;
var viewHeight = 477;
var sectionId = 'dynsection-18';
</script>
<script type="application/ecmascript" xlink:href="svg.min.js"/>
<svg id="graph" class="graph">
<g id="viewport">
<title>juce::Slider::Pimpl::handleAsyncUpdate</title>
<!-- Node1 -->
<g id="Node000001" class="node">
<title>Node1</title>
<g id="a_Node000001"><a xlink:title=" ">
<polygon fill="#999999" stroke="#666666" points="828.75,-382.58 721.25,-382.58 721.25,-352.08 828.75,-352.08 828.75,-382.58"/>
<text xml:space="preserve" text-anchor="start" x="729.25" y="-369.08" font-family="Helvetica,sans-Serif" font-size="10.00">juce::Slider::Pimpl</text>
<text xml:space="preserve" text-anchor="middle" x="775" y="-357.83" font-family="Helvetica,sans-Serif" font-size="10.00">::handleAsyncUpdate</text>
</a>
</g>
</g>
<!-- Node2 -->
<g id="Node000002" class="node">
<title>Node2</title>
<g id="a_Node000002"><a xlink:href="classjuce_1_1Slider_1_1Pimpl.html#ad2b886bad467b65058f5e54bfdaa2a09" target="_top" xlink:title=" ">
<polygon fill="white" stroke="#666666" points="685.25,-382.58 565,-382.58 565,-352.08 685.25,-352.08 685.25,-382.58"/>
<text xml:space="preserve" text-anchor="start" x="573" y="-369.08" font-family="Helvetica,sans-Serif" font-size="10.00">juce::Slider::Pimpl</text>
<text xml:space="preserve" text-anchor="middle" x="625.12" y="-357.83" font-family="Helvetica,sans-Serif" font-size="10.00">::triggerChangeMessage</text>
</a>
</g>
</g>
<!-- Node1&#45;&gt;Node2 -->
<g id="edge1_Node000001_Node000002" class="edge">
<title>Node1&#45;&gt;Node2</title>
<g id="a_edge1_Node000001_Node000002"><a xlink:title=" ">
<path fill="none" stroke="#63b8ff" d="M709.78,-367.33C701.71,-367.33 693.49,-367.33 685.5,-367.33"/>
<polygon fill="#63b8ff" stroke="#63b8ff" points="709.52,-370.83 719.52,-367.33 709.52,-363.83 709.52,-370.83"/>
</a>
</g>
</g>
<!-- Node3 -->
<g id="Node000003" class="node">
<title>Node3</title>
<g id="a_Node000003"><a xlink:href="classjuce_1_1Slider_1_1Pimpl.html#ac395d905e2c414245f177e5c6ac14592" target="_top" xlink:title=" ">
<polygon fill="white" stroke="#666666" points="517.75,-468.58 425.25,-468.58 425.25,-438.08 517.75,-438.08 517.75,-468.58"/>
<text xml:space="preserve" text-anchor="start" x="433.25" y="-455.08" font-family="Helvetica,sans-Serif" font-size="10.00">juce::Slider::Pimpl</text>
<text xml:space="preserve" text-anchor="middle" x="471.5" y="-443.83" font-family="Helvetica,sans-Serif" font-size="10.00">::mouseUp</text>
</a>
</g>
</g>
<!-- Node2&#45;&gt;Node3 -->
<g id="edge2_Node000002_Node000003" class="edge">
<title>Node2&#45;&gt;Node3</title>
<g id="a_edge2_Node000002_Node000003"><a xlink:title=" ">
<path fill="none" stroke="#63b8ff" d="M589.25,-388.97C571.4,-399.86 549.21,-413.1 529,-424.33 521,-428.77 512.25,-433.38 504.07,-437.59"/>
<polygon fill="#63b8ff" stroke="#63b8ff" points="590.96,-392.03 597.66,-383.82 587.31,-386.06 590.96,-392.03"/>
</a>
</g>
</g>
<!-- Node4 -->
<g id="Node000004" class="node">
<title>Node4</title>
<g id="a_Node000004"><a xlink:href="classjuce_1_1Slider_1_1Pimpl.html#a260f03dd3ceee31e06589fbc3eb9d2f4" target="_top" xlink:title=" ">
<polygon fill="white" stroke="#666666" points="363.75,-382.58 271.25,-382.58 271.25,-352.08 363.75,-352.08 363.75,-382.58"/>
<text xml:space="preserve" text-anchor="start" x="279.25" y="-369.08" font-family="Helvetica,sans-Serif" font-size="10.00">juce::Slider::Pimpl</text>
<text xml:space="preserve" text-anchor="middle" x="317.5" y="-357.83" font-family="Helvetica,sans-Serif" font-size="10.00">::setMaxValue</text>
</a>
</g>
</g>
<!-- Node2&#45;&gt;Node4 -->
<g id="edge3_Node000002_Node000004" class="edge">
<title>Node2&#45;&gt;Node4</title>
<g id="a_edge3_Node000002_Node000004"><a xlink:title=" ">
<path fill="none" stroke="#63b8ff" d="M553.5,-367.33C495.23,-367.33 414.26,-367.33 364.18,-367.33"/>
<polygon fill="#63b8ff" stroke="#63b8ff" points="553.32,-370.83 563.32,-367.33 553.32,-363.83 553.32,-370.83"/>
</a>
</g>
</g>
<!-- Node7 -->
<g id="Node000007" class="node">
<title>Node7</title>
<g id="a_Node000007"><a xlink:href="classjuce_1_1Slider_1_1Pimpl.html#a78d80569de59ea8bf1fc48bcdad89414" target="_top" xlink:title=" ">
<polygon fill="white" stroke="#666666" points="221,-382.58 128.5,-382.58 128.5,-352.08 221,-352.08 221,-382.58"/>
<text xml:space="preserve" text-anchor="start" x="136.5" y="-369.08" font-family="Helvetica,sans-Serif" font-size="10.00">juce::Slider::Pimpl</text>
<text xml:space="preserve" text-anchor="middle" x="174.75" y="-357.83" font-family="Helvetica,sans-Serif" font-size="10.00">::setMinValue</text>
</a>
</g>
</g>
<!-- Node2&#45;&gt;Node7 -->
<g id="edge13_Node000002_Node000007" class="edge">
<title>Node2&#45;&gt;Node7</title>
<g id="a_edge13_Node000002_Node000007"><a xlink:title=" ">
<path fill="none" stroke="#63b8ff" d="M553.64,-380.61C479.48,-392.56 359.52,-406.15 257,-391.33 244.92,-389.58 232.13,-386.44 220.36,-383"/>
<polygon fill="#63b8ff" stroke="#63b8ff" points="553.9,-384.12 563.2,-379.03 552.76,-377.21 553.9,-384.12"/>
</a>
</g>
</g>
<!-- Node12 -->
<g id="Node000012" class="node">
<title>Node12</title>
<g id="a_Node000012"><a xlink:href="classjuce_1_1Slider_1_1Pimpl.html#a0d0fee18149bd00949a91fc138d19cdf" target="_top" xlink:title=" ">
<polygon fill="white" stroke="#666666" points="529,-226.58 414,-226.58 414,-196.08 529,-196.08 529,-226.58"/>
<text xml:space="preserve" text-anchor="start" x="422" y="-213.08" font-family="Helvetica,sans-Serif" font-size="10.00">juce::Slider::Pimpl</text>
<text xml:space="preserve" text-anchor="middle" x="471.5" y="-201.83" font-family="Helvetica,sans-Serif" font-size="10.00">::setMinAndMaxValues</text>
</a>
</g>
</g>
<!-- Node2&#45;&gt;Node12 -->
<g id="edge12_Node000002_Node000012" class="edge">
<title>Node2&#45;&gt;Node12</title>
<g id="a_edge12_Node000002_Node000012"><a xlink:title=" ">
<path fill="none" stroke="#63b8ff" d="M611.03,-341.84C595.07,-312.92 565.64,-265.94 529,-236.33 524.66,-232.82 519.75,-229.71 514.69,-226.97"/>
<polygon fill="#63b8ff" stroke="#63b8ff" points="607.94,-343.48 615.76,-350.63 614.11,-340.17 607.94,-343.48"/>
</a>
</g>
</g>
<!-- Node13 -->
<g id="Node000013" class="node">
<title>Node13</title>
<g id="a_Node000013"><a xlink:href="classjuce_1_1Slider_1_1Pimpl.html#a1df53da4205c3ad2848c4075c2aa5bfd" target="_top" xlink:title=" ">
<polygon fill="white" stroke="#666666" points="517.75,-275.58 425.25,-275.58 425.25,-245.08 517.75,-245.08 517.75,-275.58"/>
<text xml:space="preserve" text-anchor="start" x="433.25" y="-262.08" font-family="Helvetica,sans-Serif" font-size="10.00">juce::Slider::Pimpl</text>
<text xml:space="preserve" text-anchor="middle" x="471.5" y="-250.83" font-family="Helvetica,sans-Serif" font-size="10.00">::setValue</text>
</a>
</g>
</g>
<!-- Node2&#45;&gt;Node13 -->
<g id="edge14_Node000002_Node000013" class="edge">
<title>Node2&#45;&gt;Node13</title>
<g id="a_edge14_Node000002_Node000013"><a xlink:title=" ">
<path fill="none" stroke="#63b8ff" d="M592.71,-345.16C563.39,-324.47 520.41,-294.14 494.57,-275.91"/>
<polygon fill="#63b8ff" stroke="#63b8ff" points="590.65,-347.99 600.84,-350.9 594.69,-342.27 590.65,-347.99"/>
</a>
</g>
</g>
<!-- Node5 -->
<g id="Node000005" class="node">
<title>Node5</title>
<g id="a_Node000005"><a xlink:href="classjuce_1_1Slider_1_1Pimpl.html#a9e7b0c3f403b4a27bbc0c4d68d986a8c" target="_top" xlink:title=" ">
<polygon fill="#fff0f0" stroke="red" points="92.5,-425.58 0,-425.58 0,-395.08 92.5,-395.08 92.5,-425.58"/>
<text xml:space="preserve" text-anchor="start" x="8" y="-412.08" font-family="Helvetica,sans-Serif" font-size="10.00">juce::Slider::Pimpl</text>
<text xml:space="preserve" text-anchor="middle" x="46.25" y="-400.83" font-family="Helvetica,sans-Serif" font-size="10.00">::mouseDrag</text>
</a>
</g>
</g>
<!-- Node4&#45;&gt;Node5 -->
<g id="edge4_Node000004_Node000005" class="edge">
<title>Node4&#45;&gt;Node5</title>
<g id="a_edge4_Node000004_Node000005"><a xlink:title=" ">
<path fill="none" stroke="#63b8ff" d="M260.12,-382.86C247.33,-386 233.75,-389.04 221,-391.33 177.84,-399.07 128.05,-404.13 92.86,-407.06"/>
<polygon fill="#63b8ff" stroke="#63b8ff" points="260.81,-386.3 269.65,-380.46 259.09,-379.51 260.81,-386.3"/>
</a>
</g>
</g>
<!-- Node4&#45;&gt;Node7 -->
<g id="edge5_Node000004_Node000007" class="edge">
<title>Node4&#45;&gt;Node7</title>
<g id="a_edge5_Node000004_Node000007"><a xlink:title=" ">
<path fill="none" stroke="#63b8ff" d="M259.36,-360.69C246.66,-360.48 233.37,-360.57 221.22,-360.97"/>
<polygon fill="#63b8ff" stroke="#63b8ff" points="259.21,-364.18 269.29,-360.93 259.38,-357.19 259.21,-364.18"/>
</a>
</g>
</g>
<!-- Node8 -->
<g id="Node000008" class="node">
<title>Node8</title>
<g id="a_Node000008"><a xlink:href="classjuce_1_1Slider_1_1Pimpl.html#aab3e2ee9cbd6b62c6c8b3a6c2cd0032d" target="_top" xlink:title=" ">
<polygon fill="#fff0f0" stroke="red" points="92.5,-339.58 0,-339.58 0,-309.08 92.5,-309.08 92.5,-339.58"/>
<text xml:space="preserve" text-anchor="start" x="8" y="-326.08" font-family="Helvetica,sans-Serif" font-size="10.00">juce::Slider::Pimpl</text>
<text xml:space="preserve" text-anchor="middle" x="46.25" y="-314.83" font-family="Helvetica,sans-Serif" font-size="10.00">::updateRange</text>
</a>
</g>
</g>
<!-- Node4&#45;&gt;Node8 -->
<g id="edge10_Node000004_Node000008" class="edge">
<title>Node4&#45;&gt;Node8</title>
<g id="a_edge10_Node000004_Node000008"><a xlink:title=" ">
<path fill="none" stroke="#63b8ff" d="M260.12,-351.8C247.33,-348.66 233.75,-345.62 221,-343.33 177.84,-335.58 128.05,-330.53 92.86,-327.59"/>
<polygon fill="#63b8ff" stroke="#63b8ff" points="259.09,-355.15 269.65,-354.2 260.81,-348.36 259.09,-355.15"/>
</a>
</g>
</g>
<!-- Node11 -->
<g id="Node000011" class="node">
<title>Node11</title>
<g id="a_Node000011"><a xlink:href="classjuce_1_1Slider_1_1Pimpl.html#a77348263e2504ca0d2062258293e1e2d" target="_top" xlink:title=" ">
<polygon fill="white" stroke="#666666" points="92.5,-215.58 0,-215.58 0,-185.08 92.5,-185.08 92.5,-215.58"/>
<text xml:space="preserve" text-anchor="start" x="8" y="-202.08" font-family="Helvetica,sans-Serif" font-size="10.00">juce::Slider::Pimpl</text>
<text xml:space="preserve" text-anchor="middle" x="46.25" y="-190.83" font-family="Helvetica,sans-Serif" font-size="10.00">::valueChanged</text>
</a>
</g>
</g>
<!-- Node4&#45;&gt;Node11 -->
<g id="edge11_Node000004_Node000011" class="edge">
<title>Node4&#45;&gt;Node11</title>
<g id="a_edge11_Node000004_Node000011"><a xlink:title=" ">
<path fill="none" stroke="#63b8ff" d="M281.49,-345.61C226.33,-311.4 120.54,-245.79 72.32,-215.88"/>
<polygon fill="#63b8ff" stroke="#63b8ff" points="279.54,-348.52 289.88,-350.82 283.23,-342.57 279.54,-348.52"/>
</a>
</g>
</g>
<!-- Node7&#45;&gt;Node4 -->
<g id="edge7_Node000007_Node000004" class="edge">
<title>Node7&#45;&gt;Node4</title>
<g id="a_edge7_Node000007_Node000004"><a xlink:title=" ">
<path fill="none" stroke="#63b8ff" d="M232.65,-373.97C245.34,-374.18 258.63,-374.09 270.8,-373.7"/>
<polygon fill="#63b8ff" stroke="#63b8ff" points="232.81,-370.47 222.73,-373.73 232.64,-377.47 232.81,-370.47"/>
</a>
</g>
</g>
<!-- Node7&#45;&gt;Node5 -->
<g id="edge6_Node000007_Node000005" class="edge">
<title>Node7&#45;&gt;Node5</title>
<g id="a_edge6_Node000007_Node000005"><a xlink:title=" ">
<path fill="none" stroke="#63b8ff" d="M117.42,-386.48C109.2,-389.27 100.82,-392.12 92.85,-394.83"/>
<polygon fill="#63b8ff" stroke="#63b8ff" points="118.31,-389.87 126.65,-383.34 116.05,-383.24 118.31,-389.87"/>
</a>
</g>
</g>
<!-- Node7&#45;&gt;Node8 -->
<g id="edge8_Node000007_Node000008" class="edge">
<title>Node7&#45;&gt;Node8</title>
<g id="a_edge8_Node000007_Node000008"><a xlink:title=" ">
<path fill="none" stroke="#63b8ff" d="M117.42,-348.18C109.2,-345.39 100.82,-342.54 92.85,-339.83"/>
<polygon fill="#63b8ff" stroke="#63b8ff" points="116.05,-351.41 126.65,-351.32 118.31,-344.79 116.05,-351.41"/>
</a>
</g>
</g>
<!-- Node7&#45;&gt;Node11 -->
<g id="edge9_Node000007_Node000011" class="edge">
<title>Node7&#45;&gt;Node11</title>
<g id="a_edge9_Node000007_Node000011"><a xlink:title=" ">
<path fill="none" stroke="#63b8ff" d="M154.96,-342.53C128.43,-307.49 80.76,-244.56 58.84,-215.63"/>
<polygon fill="#63b8ff" stroke="#63b8ff" points="152.11,-344.55 160.94,-350.41 157.69,-340.33 152.11,-344.55"/>
</a>
</g>
</g>
<!-- Node13&#45;&gt;Node4 -->
<g id="edge20_Node000013_Node000004" class="edge">
<title>Node13&#45;&gt;Node4</title>
<g id="a_edge20_Node000013_Node000004"><a xlink:title=" ">
<path fill="none" stroke="#63b8ff" d="M446.28,-283.65C428.34,-300.17 402.81,-322.18 378,-338.33 370.58,-343.16 362.25,-347.7 354.21,-351.7"/>
<polygon fill="#63b8ff" stroke="#63b8ff" points="448.41,-286.44 453.33,-277.06 443.63,-281.33 448.41,-286.44"/>
</a>
</g>
</g>
<!-- Node13&#45;&gt;Node5 -->
<g id="edge18_Node000013_Node000005" class="edge">
<title>Node13&#45;&gt;Node5</title>
<g id="a_edge18_Node000013_Node000005"><a xlink:title=" ">
<path fill="none" stroke="#63b8ff" d="M459.96,-286.43C446.08,-317.11 418.59,-366.92 378,-391.33 288.78,-444.97 160.38,-432.26 92.81,-420.21"/>
<polygon fill="#63b8ff" stroke="#63b8ff" points="463.08,-288.03 463.85,-277.47 456.66,-285.24 463.08,-288.03"/>
</a>
</g>
</g>
<!-- Node13&#45;&gt;Node7 -->
<g id="edge21_Node000013_Node000007" class="edge">
<title>Node13&#45;&gt;Node7</title>
<g id="a_edge21_Node000013_Node000007"><a xlink:title=" ">
<path fill="none" stroke="#63b8ff" d="M431.25,-281.1C415.02,-289.24 395.86,-298.3 378,-305.33 363.22,-311.15 276.05,-337.42 221.08,-353.84"/>
<polygon fill="#63b8ff" stroke="#63b8ff" points="432.77,-284.25 440.1,-276.59 429.6,-278.01 432.77,-284.25"/>
</a>
</g>
</g>
<!-- Node13&#45;&gt;Node8 -->
<g id="edge23_Node000013_Node000008" class="edge">
<title>Node13&#45;&gt;Node8</title>
<g id="a_edge23_Node000013_Node000008"><a xlink:title=" ">
<path fill="none" stroke="#63b8ff" d="M413.39,-258.19C401.69,-257.83 389.45,-257.51 378,-257.33 324.23,-256.46 310.14,-249.05 257,-257.33 194.68,-267.04 125.56,-292.07 84.29,-308.63"/>
<polygon fill="#63b8ff" stroke="#63b8ff" points="413.25,-261.68 423.36,-258.51 413.47,-254.69 413.25,-261.68"/>
</a>
</g>
</g>
<!-- Node13&#45;&gt;Node11 -->
<g id="edge24_Node000013_Node000011" class="edge">
<title>Node13&#45;&gt;Node11</title>
<g id="a_edge24_Node000013_Node000011"><a xlink:title=" ">
<path fill="none" stroke="#63b8ff" d="M416.41,-238.14C415.56,-237.24 414.76,-236.3 414,-235.33 355.55,-160.27 450.71,-85.68 378,-24.33 269.13,67.54 104.48,-126.58 59.16,-184.61"/>
<polygon fill="#63b8ff" stroke="#63b8ff" points="413.87,-240.58 423.78,-244.34 418.38,-235.23 413.87,-240.58"/>
</a>
</g>
</g>
<!-- Node14 -->
<g id="Node000014" class="node">
<title>Node14</title>
<g id="a_Node000014"><a xlink:href="classjuce_1_1Slider_1_1Pimpl.html#a10199f4000ef003af140a2d091e11bfd" target="_top" xlink:title=" ">
<polygon fill="#fff0f0" stroke="red" points="378,-296.58 257,-296.58 257,-266.08 378,-266.08 378,-296.58"/>
<text xml:space="preserve" text-anchor="start" x="265" y="-283.08" font-family="Helvetica,sans-Serif" font-size="10.00">juce::Slider::Pimpl</text>
<text xml:space="preserve" text-anchor="middle" x="317.5" y="-271.83" font-family="Helvetica,sans-Serif" font-size="10.00">::incrementOrDecrement</text>
</a>
</g>
</g>
<!-- Node13&#45;&gt;Node14 -->
<g id="edge15_Node000013_Node000014" class="edge">
<title>Node13&#45;&gt;Node14</title>
<g id="a_edge15_Node000013_Node000014"><a xlink:title=" ">
<path fill="none" stroke="#63b8ff" d="M413.65,-268.18C402.15,-269.77 390.03,-271.45 378.43,-273.05"/>
<polygon fill="#63b8ff" stroke="#63b8ff" points="413.97,-271.67 423.4,-266.84 413.01,-264.74 413.97,-271.67"/>
</a>
</g>
</g>
<!-- Node16 -->
<g id="Node000016" class="node">
<title>Node16</title>
<g id="a_Node000016"><a xlink:href="classjuce_1_1Slider_1_1Pimpl.html#a3997ba0d3df954c189feda8faf8efef7" target="_top" xlink:title=" ">
<polygon fill="white" stroke="#666666" points="363.75,-210.58 271.25,-210.58 271.25,-180.08 363.75,-180.08 363.75,-210.58"/>
<text xml:space="preserve" text-anchor="start" x="279.25" y="-197.08" font-family="Helvetica,sans-Serif" font-size="10.00">juce::Slider::Pimpl</text>
<text xml:space="preserve" text-anchor="middle" x="317.5" y="-185.83" font-family="Helvetica,sans-Serif" font-size="10.00">::keyPressed</text>
</a>
</g>
</g>
<!-- Node13&#45;&gt;Node16 -->
<g id="edge16_Node000013_Node000016" class="edge">
<title>Node13&#45;&gt;Node16</title>
<g id="a_edge16_Node000013_Node000016"><a xlink:title=" ">
<path fill="none" stroke="#63b8ff" d="M423.28,-240.14C401.35,-230.76 375.67,-219.78 355.22,-211.03"/>
<polygon fill="#63b8ff" stroke="#63b8ff" points="421.74,-243.29 432.31,-244 424.5,-236.85 421.74,-243.29"/>
</a>
</g>
</g>
<!-- Node17 -->
<g id="Node000017" class="node">
<title>Node17</title>
<g id="a_Node000017"><a xlink:href="classjuce_1_1Slider_1_1Pimpl.html#a341b65d1ed4ab9f8b876da7e77291a59" target="_top" xlink:title=" ">
<polygon fill="#fff0f0" stroke="red" points="368.25,-161.58 266.75,-161.58 266.75,-131.08 368.25,-131.08 368.25,-161.58"/>
<text xml:space="preserve" text-anchor="start" x="274.75" y="-148.08" font-family="Helvetica,sans-Serif" font-size="10.00">juce::Slider::Pimpl</text>
<text xml:space="preserve" text-anchor="middle" x="317.5" y="-136.83" font-family="Helvetica,sans-Serif" font-size="10.00">::mouseDoubleClick</text>
</a>
</g>
</g>
<!-- Node13&#45;&gt;Node17 -->
<g id="edge17_Node000013_Node000017" class="edge">
<title>Node13&#45;&gt;Node17</title>
<g id="a_edge17_Node000013_Node000017"><a xlink:title=" ">
<path fill="none" stroke="#63b8ff" d="M417.81,-238.52C416.49,-237.5 415.22,-236.43 414,-235.33 389.84,-213.38 402.36,-193.05 378,-171.33 373.99,-167.75 369.38,-164.63 364.56,-161.93"/>
<polygon fill="#63b8ff" stroke="#63b8ff" points="415.52,-241.2 425.79,-243.82 419.4,-235.37 415.52,-241.2"/>
</a>
</g>
</g>
<!-- Node18 -->
<g id="Node000018" class="node">
<title>Node18</title>
<g id="a_Node000018"><a xlink:href="classjuce_1_1Slider_1_1Pimpl.html#aecc186014389b650ab208c8bb49a70ed" target="_top" xlink:title=" ">
<polygon fill="white" stroke="#666666" points="367.88,-112.58 267.12,-112.58 267.12,-82.08 367.88,-82.08 367.88,-112.58"/>
<text xml:space="preserve" text-anchor="start" x="275.12" y="-99.08" font-family="Helvetica,sans-Serif" font-size="10.00">juce::Slider::Pimpl</text>
<text xml:space="preserve" text-anchor="middle" x="317.5" y="-87.83" font-family="Helvetica,sans-Serif" font-size="10.00">::mouseWheelMove</text>
</a>
</g>
</g>
<!-- Node13&#45;&gt;Node18 -->
<g id="edge19_Node000013_Node000018" class="edge">
<title>Node13&#45;&gt;Node18</title>
<g id="a_edge19_Node000013_Node000018"><a xlink:title=" ">
<path fill="none" stroke="#63b8ff" d="M416.2,-237.62C415.44,-236.88 414.71,-236.11 414,-235.33 378.8,-196.1 413.57,-161.23 378,-122.33 374.75,-118.77 370.91,-115.71 366.78,-113.07"/>
<polygon fill="#63b8ff" stroke="#63b8ff" points="413.98,-240.32 424,-243.76 418.31,-234.82 413.98,-240.32"/>
</a>
</g>
</g>
<!-- Node19 -->
<g id="Node000019" class="node">
<title>Node19</title>
<g id="a_Node000019"><a xlink:href="classjuce_1_1Slider_1_1Pimpl.html#a647ae6c9a997be3134c6fa4202ad2722" target="_top" xlink:title=" ">
<polygon fill="#fff0f0" stroke="red" points="363.75,-63.58 271.25,-63.58 271.25,-33.08 363.75,-33.08 363.75,-63.58"/>
<text xml:space="preserve" text-anchor="start" x="279.25" y="-50.08" font-family="Helvetica,sans-Serif" font-size="10.00">juce::Slider::Pimpl</text>
<text xml:space="preserve" text-anchor="middle" x="317.5" y="-38.83" font-family="Helvetica,sans-Serif" font-size="10.00">::textChanged</text>
</a>
</g>
</g>
<!-- Node13&#45;&gt;Node19 -->
<g id="edge22_Node000013_Node000019" class="edge">
<title>Node13&#45;&gt;Node19</title>
<g id="a_edge22_Node000013_Node000019"><a xlink:title=" ">
<path fill="none" stroke="#63b8ff" d="M416.1,-237.7C415.37,-236.94 414.67,-236.15 414,-235.33 367.25,-178.28 425.28,-129.94 378,-73.33 374.19,-68.77 369.41,-65.03 364.22,-61.96"/>
<polygon fill="#63b8ff" stroke="#63b8ff" points="413.77,-240.31 423.69,-244.02 418.24,-234.93 413.77,-240.31"/>
</a>
</g>
</g>
</g>
</svg>

<g id="navigator" transform="translate(0 0)" fill="#404254">
  <rect fill="#f2f5e9" fill-opacity="0.5" stroke="#606060" stroke-width=".5" x="0" y="0" width="60" height="60"/>
  <use id="zoomplus" xlink:href="#zoomPlus" x="17" y="9" onmousedown="handleZoom(evt,'in')"/>
  <use id="zoomminus" xlink:href="#zoomMin" x="42" y="9" onmousedown="handleZoom(evt,'out')"/>
  <use id="reset" xlink:href="#resetDef" x="30" y="36" onmousedown="handleReset()"/>
   <use id="arrowup" xlink:href="#arrowUp" x="0" y="0" onmousedown="handlePan(0,-1)"/>
  <use id="arrowright" xlink:href="#arrowRight" x="0" y="0" onmousedown="handlePan(1,0)"/>
  <use id="arrowdown" xlink:href="#arrowDown" x="0" y="0" onmousedown="handlePan(0,1)"/>
  <use id="arrowleft" xlink:href="#arrowLeft" x="0" y="0" onmousedown="handlePan(-1,0)"/>
</g>
<svg viewBox="0 0 15 15" width="100%" height="30px" preserveAspectRatio="xMaxYMin meet">
 <g id="arrow_out" transform="scale(0.3 0.3)">
  <a xlink:href="classjuce_1_1Slider_1_1Pimpl_a2fa5a1c4aa8843f2d2d282beed7e46a4_icgraph_org.svg" target="_base">
   <rect id="button" ry="5" rx="5" y="6" x="6" height="38" width="38"
        fill="#f2f5e9" fill-opacity="0.5" stroke="#606060" stroke-width="1.0"/>
   <path id="arrow"
     d="M 11.500037,31.436501 C 11.940474,20.09759 22.043105,11.32322 32.158766,21.979434 L 37.068811,17.246167 C 37.068811,17.246167 37.088388,32 37.088388,32 L 22.160133,31.978069 C 22.160133,31.978069 26.997745,27.140456 26.997745,27.140456 C 18.528582,18.264221 13.291696,25.230495 11.500037,31.436501 z"
     style="fill:#404040;"/>
  </a>
 </g>
</svg>

<style type='text/css'>
<![CDATA[
[data-mouse-over-selected='false'] { opacity: 0.7; }
[data-mouse-over-selected='true']  { opacity: 1.0; }
]]>
</style>
<script type="application/ecmascript"><![CDATA[
document.addEventListener('DOMContentLoaded', (event) => {
  highlightEdges();
  highlightAdjacentNodes();
});
]]></script>
</svg>
