<?xml version="1.0" encoding="UTF-8" standalone="no"?>
<!DOCTYPE svg PUBLIC "-//W3C//DTD SVG 1.1//EN"
 "http://www.w3.org/Graphics/SVG/1.1/DTD/svg11.dtd">
<!-- Generated by graphviz version 14.0.2 (0)
 -->
<!-- Title: juce::PerformanceCounter::~PerformanceCounter Pages: 1 -->
<svg width="627pt" height="258pt"
 viewBox="0.00 0.00 627.00 258.00" xmlns="http://www.w3.org/2000/svg" xmlns:xlink="http://www.w3.org/1999/xlink">
<g id="graph0" class="graph" transform="scale(1 1) rotate(0) translate(4 253.88)">
<title>juce::PerformanceCounter::~PerformanceCounter</title>
<!-- Node1 -->
<g id="Node000001" class="node">
<title>Node1</title>
<g id="a_Node000001"><a xlink:title=" ">
<polygon fill="#999999" stroke="#666666" points="127.75,-145.5 0,-145.5 0,-115 127.75,-115 127.75,-145.5"/>
<text xml:space="preserve" text-anchor="start" x="8" y="-132" font-family="Helvetica,sans-Serif" font-size="10.00">juce::PerformanceCounter</text>
<text xml:space="preserve" text-anchor="middle" x="63.88" y="-120.75" font-family="Helvetica,sans-Serif" font-size="10.00">::~PerformanceCounter</text>
</a>
</g>
</g>
<!-- Node1&#45;&gt;Node1 -->
<g id="edge14_Node000001_Node000001" class="edge">
<title>Node1&#45;&gt;Node1</title>
<g id="a_edge14_Node000001_Node000001"><a xlink:title=" ">
<path fill="none" stroke="#63b8ff" d="M34.86,-145.99C28.94,-155.06 38.61,-163.5 63.88,-163.5 77.69,-163.5 86.85,-160.97 91.34,-157.2"/>
<polygon fill="#63b8ff" stroke="#63b8ff" points="94.78,-157.87 92.68,-147.49 87.84,-156.91 94.78,-157.87"/>
</a>
</g>
</g>
<!-- Node2 -->
<g id="Node000002" class="node">
<title>Node2</title>
<g id="a_Node000002"><a xlink:href="classjuce_1_1PerformanceCounter.html#af366ffbf636fdbad46382dd7169248b2" target="_top" xlink:title=" ">
<polygon fill="white" stroke="#666666" points="291.5,-145.5 163.75,-145.5 163.75,-115 291.5,-115 291.5,-145.5"/>
<text xml:space="preserve" text-anchor="start" x="171.75" y="-132" font-family="Helvetica,sans-Serif" font-size="10.00">juce::PerformanceCounter</text>
<text xml:space="preserve" text-anchor="middle" x="227.62" y="-120.75" font-family="Helvetica,sans-Serif" font-size="10.00">::printStatistics</text>
</a>
</g>
</g>
<!-- Node1&#45;&gt;Node2 -->
<g id="edge1_Node000001_Node000002" class="edge">
<title>Node1&#45;&gt;Node2</title>
<g id="a_edge1_Node000001_Node000002"><a xlink:title=" ">
<path fill="none" stroke="#63b8ff" d="M127.87,-130.25C135.77,-130.25 143.91,-130.25 151.97,-130.25"/>
<polygon fill="#63b8ff" stroke="#63b8ff" points="151.75,-133.75 161.75,-130.25 151.75,-126.75 151.75,-133.75"/>
</a>
</g>
</g>
<!-- Node2&#45;&gt;Node2 -->
<g id="edge6_Node000002_Node000002" class="edge">
<title>Node2&#45;&gt;Node2</title>
<g id="a_edge6_Node000002_Node000002"><a xlink:title=" ">
<path fill="none" stroke="#63b8ff" d="M198.61,-145.99C192.69,-155.06 202.36,-163.5 227.62,-163.5 241.44,-163.5 250.6,-160.97 255.09,-157.2"/>
<polygon fill="#63b8ff" stroke="#63b8ff" points="258.53,-157.87 256.43,-147.49 251.59,-156.91 258.53,-157.87"/>
</a>
</g>
</g>
<!-- Node3 -->
<g id="Node000003" class="node">
<title>Node3</title>
<g id="a_Node000003"><a xlink:href="namespacejuce.html#af947a6ac76ff137e97954feefdd0cb21" target="_top" xlink:title=" ">
<polygon fill="white" stroke="#666666" points="439.88,-231.88 342.88,-231.88 342.88,-212.62 439.88,-212.62 439.88,-231.88"/>
<text xml:space="preserve" text-anchor="middle" x="391.38" y="-218.38" font-family="Helvetica,sans-Serif" font-size="10.00">juce::appendToFile</text>
</a>
</g>
</g>
<!-- Node2&#45;&gt;Node3 -->
<g id="edge2_Node000002_Node000003" class="edge">
<title>Node2&#45;&gt;Node3</title>
<g id="a_edge2_Node000002_Node000003"><a xlink:title=" ">
<path fill="none" stroke="#63b8ff" d="M245.98,-145.98C264.83,-162.33 296.41,-187.66 327.5,-203.25 331.18,-205.1 335.08,-206.8 339.05,-208.36"/>
<polygon fill="#63b8ff" stroke="#63b8ff" points="337.65,-211.58 348.24,-211.67 340.02,-204.99 337.65,-211.58"/>
</a>
</g>
</g>
<!-- Node4 -->
<g id="Node000004" class="node">
<title>Node4</title>
<g id="a_Node000004"><a xlink:href="classjuce_1_1PerformanceCounter.html#ab024947109c5d8bab7650488ad3281cd" target="_top" xlink:title=" ">
<polygon fill="white" stroke="#666666" points="455.25,-176.5 327.5,-176.5 327.5,-146 455.25,-146 455.25,-176.5"/>
<text xml:space="preserve" text-anchor="start" x="335.5" y="-163" font-family="Helvetica,sans-Serif" font-size="10.00">juce::PerformanceCounter</text>
<text xml:space="preserve" text-anchor="middle" x="391.38" y="-151.75" font-family="Helvetica,sans-Serif" font-size="10.00">::getStatisticsAndReset</text>
</a>
</g>
</g>
<!-- Node2&#45;&gt;Node4 -->
<g id="edge4_Node000002_Node000004" class="edge">
<title>Node2&#45;&gt;Node4</title>
<g id="a_edge4_Node000002_Node000004"><a xlink:title=" ">
<path fill="none" stroke="#63b8ff" d="M291.62,-142.32C299.52,-143.84 307.66,-145.4 315.72,-146.94"/>
<polygon fill="#63b8ff" stroke="#63b8ff" points="315.05,-150.38 325.53,-148.82 316.37,-143.5 315.05,-150.38"/>
</a>
</g>
</g>
<!-- Node5 -->
<g id="Node000005" class="node">
<title>Node5</title>
<g id="a_Node000005"><a xlink:href="namespacejuce.html#a32172a5ec52cc845d24a9dcff702e26e" target="_top" xlink:title=" ">
<polygon fill="white" stroke="#666666" points="427.5,-109.88 355.25,-109.88 355.25,-90.62 427.5,-90.62 427.5,-109.88"/>
<text xml:space="preserve" text-anchor="middle" x="391.38" y="-96.38" font-family="Helvetica,sans-Serif" font-size="10.00">juce::toString</text>
</a>
</g>
</g>
<!-- Node2&#45;&gt;Node5 -->
<g id="edge7_Node000002_Node000005" class="edge">
<title>Node2&#45;&gt;Node5</title>
<g id="a_edge7_Node000002_Node000005"><a xlink:title=" ">
<path fill="none" stroke="#63b8ff" d="M291.62,-118.57C309.07,-115.33 327.68,-111.88 343.98,-108.85"/>
<polygon fill="#63b8ff" stroke="#63b8ff" points="344.18,-112.38 353.37,-107.11 342.9,-105.49 344.18,-112.38"/>
</a>
</g>
</g>
<!-- Node6 -->
<g id="Node000006" class="node">
<title>Node6</title>
<g id="a_Node000006"><a xlink:href="classjuce_1_1Logger.html#a98fe023eb7cf28c7fe6589a7733171e4" target="_top" xlink:title=" ">
<polygon fill="white" stroke="#666666" points="452.25,-54.88 330.5,-54.88 330.5,-35.62 452.25,-35.62 452.25,-54.88"/>
<text xml:space="preserve" text-anchor="middle" x="391.38" y="-41.38" font-family="Helvetica,sans-Serif" font-size="10.00">juce::Logger::writeToLog</text>
</a>
</g>
</g>
<!-- Node2&#45;&gt;Node6 -->
<g id="edge9_Node000002_Node000006" class="edge">
<title>Node2&#45;&gt;Node6</title>
<g id="a_edge9_Node000002_Node000006"><a xlink:title=" ">
<path fill="none" stroke="#63b8ff" d="M258.29,-114.66C287.7,-99.21 332.44,-75.69 361.55,-60.4"/>
<polygon fill="#63b8ff" stroke="#63b8ff" points="362.94,-63.62 370.17,-55.87 359.69,-57.42 362.94,-63.62"/>
</a>
</g>
</g>
<!-- Node3&#45;&gt;Node3 -->
<g id="edge3_Node000003_Node000003" class="edge">
<title>Node3&#45;&gt;Node3</title>
<g id="a_edge3_Node000003_Node000003"><a xlink:title=" ">
<path fill="none" stroke="#63b8ff" d="M365.74,-232.16C354.05,-240.77 362.59,-249.88 391.38,-249.88 407.57,-249.88 417.35,-246.99 420.74,-242.94"/>
<polygon fill="#63b8ff" stroke="#63b8ff" points="424.08,-241.9 417.51,-233.59 417.47,-244.19 424.08,-241.9"/>
</a>
</g>
</g>
<!-- Node4&#45;&gt;Node4 -->
<g id="edge5_Node000004_Node000004" class="edge">
<title>Node4&#45;&gt;Node4</title>
<g id="a_edge5_Node000004_Node000004"><a xlink:title=" ">
<path fill="none" stroke="#63b8ff" d="M362.36,-176.99C356.44,-186.06 366.11,-194.5 391.38,-194.5 405.19,-194.5 414.35,-191.97 418.84,-188.2"/>
<polygon fill="#63b8ff" stroke="#63b8ff" points="422.28,-188.87 420.18,-178.49 415.34,-187.91 422.28,-188.87"/>
</a>
</g>
</g>
<!-- Node5&#45;&gt;Node5 -->
<g id="edge8_Node000005_Node000005" class="edge">
<title>Node5&#45;&gt;Node5</title>
<g id="a_edge8_Node000005_Node000005"><a xlink:title=" ">
<path fill="none" stroke="#63b8ff" d="M365.74,-110.16C354.05,-118.77 362.59,-127.88 391.38,-127.88 407.57,-127.88 417.35,-124.99 420.74,-120.94"/>
<polygon fill="#63b8ff" stroke="#63b8ff" points="424.08,-119.9 417.51,-111.59 417.47,-122.19 424.08,-119.9"/>
</a>
</g>
</g>
<!-- Node6&#45;&gt;Node6 -->
<g id="edge13_Node000006_Node000006" class="edge">
<title>Node6&#45;&gt;Node6</title>
<g id="a_edge13_Node000006_Node000006"><a xlink:title=" ">
<path fill="none" stroke="#63b8ff" d="M365.74,-55.16C354.05,-63.77 362.59,-72.88 391.38,-72.88 407.57,-72.88 417.35,-69.99 420.74,-65.94"/>
<polygon fill="#63b8ff" stroke="#63b8ff" points="424.08,-64.9 417.51,-56.59 417.47,-67.19 424.08,-64.9"/>
</a>
</g>
</g>
<!-- Node7 -->
<g id="Node000007" class="node">
<title>Node7</title>
<g id="a_Node000007"><a xlink:href="adplugdb_8cpp.html#afadda4184a4f0275271a46b2b0cc7f8b" target="_top" xlink:title=" ">
<polygon fill="white" stroke="#666666" points="583,-85.88 527.25,-85.88 527.25,-66.62 583,-66.62 583,-85.88"/>
<text xml:space="preserve" text-anchor="middle" x="555.12" y="-72.38" font-family="Helvetica,sans-Serif" font-size="10.00">message</text>
</a>
</g>
</g>
<!-- Node6&#45;&gt;Node7 -->
<g id="edge10_Node000006_Node000007" class="edge">
<title>Node6&#45;&gt;Node7</title>
<g id="a_edge10_Node000006_Node000007"><a xlink:title=" ">
<path fill="none" stroke="#63b8ff" d="M444.89,-55.31C467.93,-59.73 494.48,-64.82 515.64,-68.87"/>
<polygon fill="#63b8ff" stroke="#63b8ff" points="514.82,-72.28 525.3,-70.73 516.13,-65.41 514.82,-72.28"/>
</a>
</g>
</g>
<!-- Node8 -->
<g id="Node000008" class="node">
<title>Node8</title>
<g id="a_Node000008"><a xlink:href="classjuce_1_1Logger.html#ac3df99a64a0ec8711e125e59b46a380e" target="_top" xlink:title=" ">
<polygon fill="white" stroke="#666666" points="619,-30.5 491.25,-30.5 491.25,0 619,0 619,-30.5"/>
<text xml:space="preserve" text-anchor="start" x="499.25" y="-17" font-family="Helvetica,sans-Serif" font-size="10.00">juce::Logger::outputDebug</text>
<text xml:space="preserve" text-anchor="middle" x="555.12" y="-5.75" font-family="Helvetica,sans-Serif" font-size="10.00">String</text>
</a>
</g>
</g>
<!-- Node6&#45;&gt;Node8 -->
<g id="edge11_Node000006_Node000008" class="edge">
<title>Node6&#45;&gt;Node8</title>
<g id="a_edge11_Node000006_Node000008"><a xlink:title=" ">
<path fill="none" stroke="#63b8ff" d="M446.69,-35.18C457.35,-33.2 468.72,-31.09 479.91,-29.01"/>
<polygon fill="#63b8ff" stroke="#63b8ff" points="480.33,-32.5 489.52,-27.23 479.05,-25.61 480.33,-32.5"/>
</a>
</g>
</g>
<!-- Node8&#45;&gt;Node8 -->
<g id="edge12_Node000008_Node000008" class="edge">
<title>Node8&#45;&gt;Node8</title>
<g id="a_edge12_Node000008_Node000008"><a xlink:title=" ">
<path fill="none" stroke="#63b8ff" d="M526.11,-30.99C520.19,-40.06 529.86,-48.5 555.12,-48.5 568.94,-48.5 578.1,-45.97 582.59,-42.2"/>
<polygon fill="#63b8ff" stroke="#63b8ff" points="586.03,-42.87 583.93,-32.49 579.09,-41.91 586.03,-42.87"/>
</a>
</g>
</g>
</g>
</svg>
