<?xml version="1.0" encoding="UTF-8" standalone="no"?>
<!DOCTYPE svg PUBLIC "-//W3C//DTD SVG 1.1//EN"
 "http://www.w3.org/Graphics/SVG/1.1/DTD/svg11.dtd">
<!-- Generated by graphviz version 14.0.2 (0)
 -->
<!-- Title: CarlaPluginNative::handleUiParameterChanged Pages: 1 -->
<!--zoomable 82 -->

<svg id="main" version="1.1" xmlns="http://www.w3.org/2000/svg" xmlns:xlink="http://www.w3.org/1999/xlink" xml:space="preserve" onload="init(evt)">

<style type="text/css"><![CDATA[
.node, .edge {opacity: 0.7;}
.node.selected, .edge.selected {opacity: 1;}
.edge:hover path { stroke: red; }
.edge:hover polygon { stroke: red; fill: red; }
]]></style>

<defs>
  <circle id="rim" cx="0" cy="0" r="7"/>
  <circle id="rim2" cx="0" cy="0" r="3.5"/>
  <g id="zoomPlus">
    <use xlink:href="#rim" fill="#404040"><set attributeName="fill" to="#808080" begin="zoomplus.mouseover" end="zoomplus.mouseout"/></use>
    <path d="M-4,0h8M0,-4v8" fill="none" stroke="white" stroke-width="1.5" pointer-events="none"/>
  </g>
  <g id="zoomMin">
    <use xlink:href="#rim" fill="#404040"><set attributeName="fill" to="#808080" begin="zoomminus.mouseover" end="zoomminus.mouseout"/></use>
    <path d="M-4,0h8" fill="none" stroke="white" stroke-width="1.5" pointer-events="none"/>
  </g>
  <g id="arrowUp" transform="translate(30 24)">
    <use xlink:href="#rim"/>
    <path pointer-events="none" fill="none" stroke="white" stroke-width="1.5" d="M0,-3.0v7 M-2.5,-0.5L0,-3.0L2.5,-0.5"/>
  </g>
  <g id="arrowRight" transform="rotate(90) translate(36 -43)">
    <use xlink:href="#rim"/>
    <path pointer-events="none" fill="none" stroke="white" stroke-width="1.5" d="M0,-3.0v7 M-2.5,-0.5L0,-3.0L2.5,-0.5"/>
  </g>
  <g id="arrowDown" transform="rotate(180) translate(-30 -48)">
    <use xlink:href="#rim"/>
    <path pointer-events="none" fill="none" stroke="white" stroke-width="1.5" d="M0,-3.0v7 M-2.5,-0.5L0,-3.0L2.5,-0.5"/>
  </g>
  <g id="arrowLeft" transform="rotate(270) translate(-36 17)">
    <use xlink:href="#rim"/>
    <path pointer-events="none" fill="none" stroke="white" stroke-width="1.5" d="M0,-3.0v7 M-2.5,-0.5L0,-3.0L2.5,-0.5"/>
  </g>
  <g id="resetDef">
    <use xlink:href="#rim2" fill="#404040"><set attributeName="fill" to="#808080" begin="reset.mouseover" end="reset.mouseout"/></use>
  </g>
</defs>
<script type="application/ecmascript">
var viewWidth = 604;
var viewHeight = 82;
var sectionId = 'dynsection-37';
</script>
<script type="application/ecmascript" xlink:href="svg.min.js"/>
<svg id="graph" class="graph">
<g id="viewport">
<title>CarlaPluginNative::handleUiParameterChanged</title>
<!-- Node1 -->
<g id="Node000001" class="node">
<title>Node1</title>
<g id="a_Node000001"><a xlink:title=" ">
<polygon fill="#999999" stroke="#666666" points="137.5,-73.5 0,-73.5 0,-43 137.5,-43 137.5,-73.5"/>
<text xml:space="preserve" text-anchor="start" x="8" y="-60" font-family="Helvetica,sans-Serif" font-size="10.00">CarlaPluginNative::</text>
<text xml:space="preserve" text-anchor="middle" x="68.75" y="-48.75" font-family="Helvetica,sans-Serif" font-size="10.00">handleUiParameterChanged</text>
</a>
</g>
</g>
<!-- Node2 -->
<g id="Node000002" class="node">
<title>Node2</title>
<g id="a_Node000002"><a xlink:href="classCarlaPluginNative.html#a89eca38e6c8344ec3ff7bd381fa6669a" target="_top" xlink:title=" ">
<polygon fill="white" stroke="#666666" points="272.75,-73.5 173.5,-73.5 173.5,-43 272.75,-43 272.75,-73.5"/>
<text xml:space="preserve" text-anchor="start" x="181.5" y="-60" font-family="Helvetica,sans-Serif" font-size="10.00">CarlaPluginNative::</text>
<text xml:space="preserve" text-anchor="middle" x="223.12" y="-48.75" font-family="Helvetica,sans-Serif" font-size="10.00">setParameterValue</text>
</a>
</g>
</g>
<!-- Node1&#45;&gt;Node2 -->
<g id="edge1_Node000001_Node000002" class="edge">
<title>Node1&#45;&gt;Node2</title>
<g id="a_edge1_Node000001_Node000002"><a xlink:title=" ">
<path fill="none" stroke="#63b8ff" d="M137.92,-58.25C145.9,-58.25 154.01,-58.25 161.87,-58.25"/>
<polygon fill="#63b8ff" stroke="#63b8ff" points="161.68,-61.75 171.68,-58.25 161.68,-54.75 161.68,-61.75"/>
</a>
</g>
</g>
<!-- Node3 -->
<g id="Node000003" class="node">
<title>Node3</title>
<g id="a_Node000003"><a xlink:href="classCarlaPlugin.html#a24b05ac813adca1104e4fded22ddf11d" target="_top" xlink:title=" ">
<polygon fill="white" stroke="#666666" points="437.25,-73.5 308.75,-73.5 308.75,-43 437.25,-43 437.25,-73.5"/>
<text xml:space="preserve" text-anchor="start" x="316.75" y="-60" font-family="Helvetica,sans-Serif" font-size="10.00">CarlaPlugin::setParameter</text>
<text xml:space="preserve" text-anchor="middle" x="373" y="-48.75" font-family="Helvetica,sans-Serif" font-size="10.00">Value</text>
</a>
</g>
</g>
<!-- Node2&#45;&gt;Node3 -->
<g id="edge2_Node000002_Node000003" class="edge">
<title>Node2&#45;&gt;Node3</title>
<g id="a_edge2_Node000002_Node000003"><a xlink:title=" ">
<path fill="none" stroke="#63b8ff" d="M272.95,-58.25C280.67,-58.25 288.81,-58.25 296.96,-58.25"/>
<polygon fill="#63b8ff" stroke="#63b8ff" points="296.94,-61.75 306.94,-58.25 296.94,-54.75 296.94,-61.75"/>
</a>
</g>
</g>
<!-- Node4 -->
<g id="Node000004" class="node">
<title>Node4</title>
<g id="a_Node000004"><a xlink:href="classCarlaPlugin.html#adf471acc5dad9ea93cf1e61fe5a6fd11" target="_top" xlink:title=" ">
<polygon fill="#fff0f0" stroke="red" points="586.75,-67.88 482.25,-67.88 482.25,-48.62 586.75,-48.62 586.75,-67.88"/>
<text xml:space="preserve" text-anchor="middle" x="534.5" y="-54.38" font-family="Helvetica,sans-Serif" font-size="10.00">CarlaPlugin::getType</text>
</a>
</g>
</g>
<!-- Node3&#45;&gt;Node4 -->
<g id="edge3_Node000003_Node000004" class="edge">
<title>Node3&#45;&gt;Node4</title>
<g id="a_edge3_Node000003_Node000004"><a xlink:title=" ">
<path fill="none" stroke="#63b8ff" d="M437.5,-51.63C448.46,-51.45 459.85,-51.46 470.79,-51.64"/>
<polygon fill="#63b8ff" stroke="#63b8ff" points="470.4,-55.13 480.48,-51.86 470.56,-48.13 470.4,-55.13"/>
</a>
</g>
</g>
<!-- Node291 -->
<g id="Node000291" class="node">
<title>Node291</title>
<g id="a_Node000291"><a xlink:href="classCarlaPlugin.html#a369256d388f8c7dd31b72859d87a1cea" target="_top" xlink:title=" ">
<polygon fill="#fff0f0" stroke="red" points="595.75,-30.5 473.25,-30.5 473.25,0 595.75,0 595.75,-30.5"/>
<text xml:space="preserve" text-anchor="start" x="481.25" y="-17" font-family="Helvetica,sans-Serif" font-size="10.00">CarlaPlugin::uiParameter</text>
<text xml:space="preserve" text-anchor="middle" x="534.5" y="-5.75" font-family="Helvetica,sans-Serif" font-size="10.00">Change</text>
</a>
</g>
</g>
<!-- Node3&#45;&gt;Node291 -->
<g id="edge5_Node000003_Node000291" class="edge">
<title>Node3&#45;&gt;Node291</title>
<g id="a_edge5_Node000003_Node000291"><a xlink:title=" ">
<path fill="none" stroke="#63b8ff" d="M432.03,-42.6C442.48,-39.79 453.46,-36.83 464.19,-33.94"/>
<polygon fill="#63b8ff" stroke="#63b8ff" points="465.04,-37.33 473.78,-31.35 463.21,-30.57 465.04,-37.33"/>
</a>
</g>
</g>
<!-- Node4&#45;&gt;Node3 -->
<g id="edge4_Node000004_Node000003" class="edge">
<title>Node4&#45;&gt;Node3</title>
<g id="a_edge4_Node000004_Node000003"><a xlink:title=" ">
<path fill="none" stroke="#63b8ff" d="M481.99,-64.61C471.36,-64.92 459.95,-65.04 448.69,-64.99"/>
<polygon fill="#63b8ff" stroke="#63b8ff" points="449.05,-61.49 439.01,-64.89 448.97,-68.49 449.05,-61.49"/>
</a>
</g>
</g>
</g>
</svg>

<g id="navigator" transform="translate(0 0)" fill="#404254">
  <rect fill="#f2f5e9" fill-opacity="0.5" stroke="#606060" stroke-width=".5" x="0" y="0" width="60" height="60"/>
  <use id="zoomplus" xlink:href="#zoomPlus" x="17" y="9" onmousedown="handleZoom(evt,'in')"/>
  <use id="zoomminus" xlink:href="#zoomMin" x="42" y="9" onmousedown="handleZoom(evt,'out')"/>
  <use id="reset" xlink:href="#resetDef" x="30" y="36" onmousedown="handleReset()"/>
   <use id="arrowup" xlink:href="#arrowUp" x="0" y="0" onmousedown="handlePan(0,-1)"/>
  <use id="arrowright" xlink:href="#arrowRight" x="0" y="0" onmousedown="handlePan(1,0)"/>
  <use id="arrowdown" xlink:href="#arrowDown" x="0" y="0" onmousedown="handlePan(0,1)"/>
  <use id="arrowleft" xlink:href="#arrowLeft" x="0" y="0" onmousedown="handlePan(-1,0)"/>
</g>
<svg viewBox="0 0 15 15" width="100%" height="30px" preserveAspectRatio="xMaxYMin meet">
 <g id="arrow_out" transform="scale(0.3 0.3)">
  <a xlink:href="classCarlaPluginNative_a391857b34aab9e80ba52de5415b70108_cgraph_org.svg" target="_base">
   <rect id="button" ry="5" rx="5" y="6" x="6" height="38" width="38"
        fill="#f2f5e9" fill-opacity="0.5" stroke="#606060" stroke-width="1.0"/>
   <path id="arrow"
     d="M 11.500037,31.436501 C 11.940474,20.09759 22.043105,11.32322 32.158766,21.979434 L 37.068811,17.246167 C 37.068811,17.246167 37.088388,32 37.088388,32 L 22.160133,31.978069 C 22.160133,31.978069 26.997745,27.140456 26.997745,27.140456 C 18.528582,18.264221 13.291696,25.230495 11.500037,31.436501 z"
     style="fill:#404040;"/>
  </a>
 </g>
</svg>

<style type='text/css'>
<![CDATA[
[data-mouse-over-selected='false'] { opacity: 0.7; }
[data-mouse-over-selected='true']  { opacity: 1.0; }
]]>
</style>
<script type="application/ecmascript"><![CDATA[
document.addEventListener('DOMContentLoaded', (event) => {
  highlightEdges();
  highlightAdjacentNodes();
});
]]></script>
</svg>
