<?xml version="1.0" encoding="UTF-8" standalone="no"?>
<!DOCTYPE svg PUBLIC "-//W3C//DTD SVG 1.1//EN"
 "http://www.w3.org/Graphics/SVG/1.1/DTD/svg11.dtd">
<!-- Generated by graphviz version 14.0.2 (0)
 -->
<!-- Title: hiir::HalfBandNeon::set_coefs Pages: 1 -->
<svg width="317pt" height="60pt"
 viewBox="0.00 0.00 317.00 60.00" xmlns="http://www.w3.org/2000/svg" xmlns:xlink="http://www.w3.org/1999/xlink">
<g id="graph0" class="graph" transform="scale(1 1) rotate(0) translate(4 55.5)">
<title>hiir::HalfBandNeon::set_coefs</title>
<!-- Node1 -->
<g id="Node000001" class="node">
<title>Node1</title>
<g id="a_Node000001"><a xlink:title=" ">
<polygon fill="#999999" stroke="#666666" points="97,-51.5 0,-51.5 0,-21 97,-21 97,-51.5"/>
<text xml:space="preserve" text-anchor="start" x="8" y="-38" font-family="Helvetica,sans-Serif" font-size="10.00">hiir::HalfBandNeon</text>
<text xml:space="preserve" text-anchor="middle" x="48.5" y="-26.75" font-family="Helvetica,sans-Serif" font-size="10.00">::set_coefs</text>
</a>
</g>
</g>
<!-- Node2 -->
<g id="Node000002" class="node">
<title>Node2</title>
<g id="a_Node000002"><a xlink:href="Spc__Cpu_8h.html#a2569713fe026f7b153bba6e89d64498f" target="_top" xlink:title=" ">
<polygon fill="white" stroke="#666666" points="309,-45.88 266,-45.88 266,-26.62 309,-26.62 309,-45.88"/>
<text xml:space="preserve" text-anchor="middle" x="287.5" y="-32.38" font-family="Helvetica,sans-Serif" font-size="10.00">assert</text>
</a>
</g>
</g>
<!-- Node1&#45;&gt;Node2 -->
<g id="edge1_Node000001_Node000002" class="edge">
<title>Node1&#45;&gt;Node2</title>
<g id="a_edge1_Node000001_Node000002"><a xlink:title=" ">
<path fill="none" stroke="#63b8ff" d="M97.18,-38.26C108.89,-38.67 121.4,-39.04 133,-39.25 176.1,-40.02 186.9,-40.39 230,-39.25 237.82,-39.04 246.25,-38.67 254.15,-38.26"/>
<polygon fill="#63b8ff" stroke="#63b8ff" points="254.28,-41.76 264.07,-37.71 253.89,-34.77 254.28,-41.76"/>
</a>
</g>
</g>
<!-- Node3 -->
<g id="Node000003" class="node">
<title>Node3</title>
<g id="a_Node000003"><a xlink:href="classhiir_1_1HalfBandNeon.html#aa5a4db0f9ea728e551ae19ec28caca8b" target="_top" xlink:title=" ">
<polygon fill="white" stroke="#666666" points="230,-30.5 133,-30.5 133,0 230,0 230,-30.5"/>
<text xml:space="preserve" text-anchor="start" x="141" y="-17" font-family="Helvetica,sans-Serif" font-size="10.00">hiir::HalfBandNeon</text>
<text xml:space="preserve" text-anchor="middle" x="181.5" y="-5.75" font-family="Helvetica,sans-Serif" font-size="10.00">::set_single_coef</text>
</a>
</g>
</g>
<!-- Node1&#45;&gt;Node3 -->
<g id="edge2_Node000001_Node000003" class="edge">
<title>Node1&#45;&gt;Node3</title>
<g id="a_edge2_Node000001_Node000003"><a xlink:title=" ">
<path fill="none" stroke="#63b8ff" d="M97.16,-28.61C105.02,-27.35 113.25,-26.03 121.34,-24.73"/>
<polygon fill="#63b8ff" stroke="#63b8ff" points="121.84,-28.2 131.16,-23.16 120.73,-21.29 121.84,-28.2"/>
</a>
</g>
</g>
<!-- Node3&#45;&gt;Node2 -->
<g id="edge3_Node000003_Node000002" class="edge">
<title>Node3&#45;&gt;Node2</title>
<g id="a_edge3_Node000003_Node000002"><a xlink:title=" ">
<path fill="none" stroke="#63b8ff" d="M230.24,-24.89C238.47,-26.55 246.84,-28.24 254.52,-29.79"/>
<polygon fill="#63b8ff" stroke="#63b8ff" points="253.56,-33.17 264.06,-31.72 254.95,-26.31 253.56,-33.17"/>
</a>
</g>
</g>
</g>
</svg>
