<?xml version="1.0" encoding="UTF-8" standalone="no"?>
<!DOCTYPE svg PUBLIC "-//W3C//DTD SVG 1.1//EN"
 "http://www.w3.org/Graphics/SVG/1.1/DTD/svg11.dtd">
<!-- Generated by graphviz version 14.0.2 (0)
 -->
<!-- Title: OutMgr::addSmps Pages: 1 -->
<svg width="370pt" height="64pt"
 viewBox="0.00 0.00 370.00 64.00" xmlns="http://www.w3.org/2000/svg" xmlns:xlink="http://www.w3.org/1999/xlink">

<svg id="main" version="1.1" xmlns="http://www.w3.org/2000/svg" xmlns:xlink="http://www.w3.org/1999/xlink" xml:space="preserve">

<style type="text/css"><![CDATA[
.node, .edge {opacity: 0.7;}
.node.selected, .edge.selected {opacity: 1;}
.edge:hover path { stroke: red; }
.edge:hover polygon { stroke: red; fill: red; }
]]></style>
<script type="application/ecmascript" xlink:href="svg.min.js"/>
<svg id="graph" class="graph">
<g id="graph0" class="graph" transform="scale(1 1) rotate(0) translate(4 60.25)">
<title>OutMgr::addSmps</title>
<!-- Node1 -->
<g id="Node000001" class="node">
<title>Node1</title>
<g id="a_Node000001"><a xlink:title=" ">
<polygon fill="#999999" stroke="#666666" points="94,-38.25 0,-38.25 0,-19 94,-19 94,-38.25"/>
<text xml:space="preserve" text-anchor="middle" x="47" y="-24.75" font-family="Helvetica,sans-Serif" font-size="10.00">OutMgr::addSmps</text>
</a>
</g>
</g>
<!-- Node2 -->
<g id="Node000002" class="node">
<title>Node2</title>
<g id="a_Node000002"><a xlink:href="ZynAddSubFx_2zynaddsubfx_2src_2Nio_2OutMgr_8cpp.html#af97cc5cd2f8871233c508ed701f8c585" target="_top" xlink:title=" ">
<polygon fill="white" stroke="#666666" points="185.75,-38.25 130,-38.25 130,-19 185.75,-19 185.75,-38.25"/>
<text xml:space="preserve" text-anchor="middle" x="157.88" y="-24.75" font-family="Helvetica,sans-Serif" font-size="10.00">resample</text>
</a>
</g>
</g>
<!-- Node1&#45;&gt;Node2 -->
<g id="edge1_Node000001_Node000002" class="edge">
<title>Node1&#45;&gt;Node2</title>
<g id="a_edge1_Node000001_Node000002"><a xlink:title=" ">
<path fill="none" stroke="#63b8ff" d="M94.49,-28.62C102.47,-28.62 110.69,-28.62 118.43,-28.62"/>
<polygon fill="#63b8ff" stroke="#63b8ff" points="118.21,-32.13 128.21,-28.63 118.21,-25.13 118.21,-32.13"/>
</a>
</g>
</g>
<!-- Node3 -->
<g id="Node000003" class="node">
<title>Node3</title>
<g id="a_Node000003"><a xlink:href="unzipfx-carla-control_2unzip_8h.html#a6146ec4ac32d62cf01b4c4c6587d5131" target="_top" xlink:title=" ">
<polygon fill="white" stroke="#666666" points="354.65,-56.25 325.85,-56.25 325.85,-37 354.65,-37 354.65,-56.25"/>
<text xml:space="preserve" text-anchor="middle" x="340.25" y="-42.75" font-family="Helvetica,sans-Serif" font-size="10.00">int</text>
</a>
</g>
</g>
<!-- Node2&#45;&gt;Node3 -->
<g id="edge2_Node000002_Node000003" class="edge">
<title>Node2&#45;&gt;Node3</title>
<g id="a_edge2_Node000002_Node000003"><a xlink:title=" ">
<path fill="none" stroke="#63b8ff" d="M185.88,-31.32C220.72,-34.8 280.83,-40.79 314.52,-44.16"/>
<polygon fill="#63b8ff" stroke="#63b8ff" points="313.84,-47.61 324.14,-45.12 314.53,-40.64 313.84,-47.61"/>
</a>
</g>
</g>
<!-- Node4 -->
<g id="Node000004" class="node">
<title>Node4</title>
<g id="a_Node000004"><a xlink:href="ZynAddSubFx_2zynaddsubfx_2src_2Misc_2Util_8cpp.html#abe03c58170c8d71a87fe5c5354786b87" target="_top" xlink:title=" ">
<polygon fill="white" stroke="#666666" points="282.75,-19.25 221.75,-19.25 221.75,0 282.75,0 282.75,-19.25"/>
<text xml:space="preserve" text-anchor="middle" x="252.25" y="-5.75" font-family="Helvetica,sans-Serif" font-size="10.00">interpolate</text>
</a>
</g>
</g>
<!-- Node2&#45;&gt;Node4 -->
<g id="edge3_Node000002_Node000004" class="edge">
<title>Node2&#45;&gt;Node4</title>
<g id="a_edge3_Node000002_Node000004"><a xlink:title=" ">
<path fill="none" stroke="#63b8ff" d="M186.09,-23.03C193.61,-21.48 201.95,-19.76 210.08,-18.09"/>
<polygon fill="#63b8ff" stroke="#63b8ff" points="210.75,-21.53 219.84,-16.09 209.34,-14.67 210.75,-21.53"/>
</a>
</g>
</g>
<!-- Node4&#45;&gt;Node3 -->
<g id="edge5_Node000004_Node000003" class="edge">
<title>Node4&#45;&gt;Node3</title>
<g id="a_edge5_Node000004_Node000003"><a xlink:title=" ">
<path fill="none" stroke="#63b8ff" d="M276.75,-19.74C288.58,-24.83 302.92,-30.99 314.87,-36.14"/>
<polygon fill="#63b8ff" stroke="#63b8ff" points="313.49,-39.35 324.05,-40.09 316.25,-32.92 313.49,-39.35"/>
</a>
</g>
</g>
<!-- Node5 -->
<g id="Node000005" class="node">
<title>Node5</title>
<g id="a_Node000005"><a xlink:href="Spc__Cpu_8h.html#a2569713fe026f7b153bba6e89d64498f" target="_top" xlink:title=" ">
<polygon fill="white" stroke="#666666" points="361.75,-19.25 318.75,-19.25 318.75,0 361.75,0 361.75,-19.25"/>
<text xml:space="preserve" text-anchor="middle" x="340.25" y="-5.75" font-family="Helvetica,sans-Serif" font-size="10.00">assert</text>
</a>
</g>
</g>
<!-- Node4&#45;&gt;Node5 -->
<g id="edge4_Node000004_Node000005" class="edge">
<title>Node4&#45;&gt;Node5</title>
<g id="a_edge4_Node000004_Node000005"><a xlink:title=" ">
<path fill="none" stroke="#63b8ff" d="M282.85,-9.62C290.59,-9.62 298.98,-9.62 306.86,-9.62"/>
<polygon fill="#63b8ff" stroke="#63b8ff" points="306.77,-13.13 316.77,-9.63 306.77,-6.13 306.77,-13.13"/>
</a>
</g>
</g>
</g>
</svg>
</svg>

<style type='text/css'>
<![CDATA[
[data-mouse-over-selected='false'] { opacity: 0.7; }
[data-mouse-over-selected='true']  { opacity: 1.0; }
]]>
</style>
<script type="application/ecmascript"><![CDATA[
document.addEventListener('DOMContentLoaded', (event) => {
  highlightEdges();
  highlightAdjacentNodes();
});
]]></script>
</svg>
