<?xml version="1.0" encoding="UTF-8" standalone="no"?>
<!DOCTYPE svg PUBLIC "-//W3C//DTD SVG 1.1//EN"
 "http://www.w3.org/Graphics/SVG/1.1/DTD/svg11.dtd">
<!-- Generated by graphviz version 14.0.2 (0)
 -->
<!-- Title: juce::X11DragState::sendExternalDragAndDropLeave Pages: 1 -->
<!--zoomable 143 -->

<svg id="main" version="1.1" xmlns="http://www.w3.org/2000/svg" xmlns:xlink="http://www.w3.org/1999/xlink" xml:space="preserve" onload="init(evt)">

<style type="text/css"><![CDATA[
.node, .edge {opacity: 0.7;}
.node.selected, .edge.selected {opacity: 1;}
.edge:hover path { stroke: red; }
.edge:hover polygon { stroke: red; fill: red; }
]]></style>

<defs>
  <circle id="rim" cx="0" cy="0" r="7"/>
  <circle id="rim2" cx="0" cy="0" r="3.5"/>
  <g id="zoomPlus">
    <use xlink:href="#rim" fill="#404040"><set attributeName="fill" to="#808080" begin="zoomplus.mouseover" end="zoomplus.mouseout"/></use>
    <path d="M-4,0h8M0,-4v8" fill="none" stroke="white" stroke-width="1.5" pointer-events="none"/>
  </g>
  <g id="zoomMin">
    <use xlink:href="#rim" fill="#404040"><set attributeName="fill" to="#808080" begin="zoomminus.mouseover" end="zoomminus.mouseout"/></use>
    <path d="M-4,0h8" fill="none" stroke="white" stroke-width="1.5" pointer-events="none"/>
  </g>
  <g id="arrowUp" transform="translate(30 24)">
    <use xlink:href="#rim"/>
    <path pointer-events="none" fill="none" stroke="white" stroke-width="1.5" d="M0,-3.0v7 M-2.5,-0.5L0,-3.0L2.5,-0.5"/>
  </g>
  <g id="arrowRight" transform="rotate(90) translate(36 -43)">
    <use xlink:href="#rim"/>
    <path pointer-events="none" fill="none" stroke="white" stroke-width="1.5" d="M0,-3.0v7 M-2.5,-0.5L0,-3.0L2.5,-0.5"/>
  </g>
  <g id="arrowDown" transform="rotate(180) translate(-30 -48)">
    <use xlink:href="#rim"/>
    <path pointer-events="none" fill="none" stroke="white" stroke-width="1.5" d="M0,-3.0v7 M-2.5,-0.5L0,-3.0L2.5,-0.5"/>
  </g>
  <g id="arrowLeft" transform="rotate(270) translate(-36 17)">
    <use xlink:href="#rim"/>
    <path pointer-events="none" fill="none" stroke="white" stroke-width="1.5" d="M0,-3.0v7 M-2.5,-0.5L0,-3.0L2.5,-0.5"/>
  </g>
  <g id="resetDef">
    <use xlink:href="#rim2" fill="#404040"><set attributeName="fill" to="#808080" begin="reset.mouseover" end="reset.mouseout"/></use>
  </g>
</defs>
<script type="application/ecmascript">
var viewWidth = 514;
var viewHeight = 143;
var sectionId = 'dynsection-37';
</script>
<script type="application/ecmascript" xlink:href="svg.min.js"/>
<svg id="graph" class="graph">
<g id="viewport">
<title>juce::X11DragState::sendExternalDragAndDropLeave</title>
<!-- Node1 -->
<g id="Node000001" class="node">
<title>Node1</title>
<g id="a_Node000001"><a xlink:title=" ">
<polygon fill="#999999" stroke="#666666" points="160.75,-85.88 0,-85.88 0,-55.38 160.75,-55.38 160.75,-85.88"/>
<text xml:space="preserve" text-anchor="start" x="8" y="-72.38" font-family="Helvetica,sans-Serif" font-size="10.00">juce::X11DragState</text>
<text xml:space="preserve" text-anchor="middle" x="80.38" y="-61.12" font-family="Helvetica,sans-Serif" font-size="10.00">::sendExternalDragAndDropLeave</text>
</a>
</g>
</g>
<!-- Node2 -->
<g id="Node000002" class="node">
<title>Node2</title>
<g id="a_Node000002"><a xlink:href="classjuce_1_1X11DragState.html#a7bbab2a8da709be1318d767741604ba8" target="_top" xlink:title=" ">
<polygon fill="white" stroke="#666666" points="333.12,-134.88 233.88,-134.88 233.88,-104.38 333.12,-104.38 333.12,-134.88"/>
<text xml:space="preserve" text-anchor="start" x="241.88" y="-121.38" font-family="Helvetica,sans-Serif" font-size="10.00">juce::X11DragState</text>
<text xml:space="preserve" text-anchor="middle" x="283.5" y="-110.12" font-family="Helvetica,sans-Serif" font-size="10.00">::getAtoms</text>
</a>
</g>
</g>
<!-- Node1&#45;&gt;Node2 -->
<g id="edge1_Node000001_Node000002" class="edge">
<title>Node1&#45;&gt;Node2</title>
<g id="a_edge1_Node000001_Node000002"><a xlink:title=" ">
<path fill="none" stroke="#63b8ff" d="M145.84,-86.33C170.34,-92.3 198.14,-99.07 222.23,-104.94"/>
<polygon fill="#63b8ff" stroke="#63b8ff" points="221.36,-108.33 231.91,-107.3 223.02,-101.53 221.36,-108.33"/>
</a>
</g>
</g>
<!-- Node3 -->
<g id="Node000003" class="node">
<title>Node3</title>
<g id="a_Node000003"><a xlink:href="classjuce_1_1X11DragState.html#aa7b34af17e66e058e0d3ac8e4ae380dd" target="_top" xlink:title=" ">
<polygon fill="white" stroke="#666666" points="370.25,-85.88 196.75,-85.88 196.75,-55.38 370.25,-55.38 370.25,-85.88"/>
<text xml:space="preserve" text-anchor="start" x="204.75" y="-72.38" font-family="Helvetica,sans-Serif" font-size="10.00">juce::X11DragState</text>
<text xml:space="preserve" text-anchor="middle" x="283.5" y="-61.12" font-family="Helvetica,sans-Serif" font-size="10.00">::sendExternalDragAndDropMessage</text>
</a>
</g>
</g>
<!-- Node1&#45;&gt;Node3 -->
<g id="edge2_Node000001_Node000003" class="edge">
<title>Node1&#45;&gt;Node3</title>
<g id="a_edge2_Node000001_Node000003"><a xlink:title=" ">
<path fill="none" stroke="#63b8ff" d="M161.15,-70.62C169.06,-70.62 177.14,-70.62 185.19,-70.62"/>
<polygon fill="#63b8ff" stroke="#63b8ff" points="185.02,-74.13 195.02,-70.63 185.02,-67.13 185.02,-74.13"/>
</a>
</g>
</g>
<!-- Node5 -->
<g id="Node000005" class="node">
<title>Node5</title>
<g id="a_Node000005"><a xlink:href="namespacejuce.html#a11d8fa1921494e90708d443dea17a1b8" target="_top" xlink:title=" ">
<polygon fill="white" stroke="#666666" points="324.12,-19.25 242.88,-19.25 242.88,0 324.12,0 324.12,-19.25"/>
<text xml:space="preserve" text-anchor="middle" x="283.5" y="-5.75" font-family="Helvetica,sans-Serif" font-size="10.00">juce::zerostruct</text>
</a>
</g>
</g>
<!-- Node1&#45;&gt;Node5 -->
<g id="edge4_Node000001_Node000005" class="edge">
<title>Node1&#45;&gt;Node5</title>
<g id="a_edge4_Node000001_Node000005"><a xlink:title=" ">
<path fill="none" stroke="#63b8ff" d="M133.17,-54.92C165.72,-45.04 207.26,-32.44 238.26,-23.04"/>
<polygon fill="#63b8ff" stroke="#63b8ff" points="239.17,-26.42 247.72,-20.17 237.14,-19.73 239.17,-26.42"/>
</a>
</g>
</g>
<!-- Node4 -->
<g id="Node000004" class="node">
<title>Node4</title>
<g id="a_Node000004"><a xlink:href="classjuce_1_1X11DragState.html#a579476bcce0c29849dcc2f5ad1bc7893" target="_top" xlink:title=" ">
<polygon fill="white" stroke="#666666" points="505.5,-85.88 406.25,-85.88 406.25,-55.38 505.5,-55.38 505.5,-85.88"/>
<text xml:space="preserve" text-anchor="start" x="414.25" y="-72.38" font-family="Helvetica,sans-Serif" font-size="10.00">juce::X11DragState</text>
<text xml:space="preserve" text-anchor="middle" x="455.88" y="-61.12" font-family="Helvetica,sans-Serif" font-size="10.00">::getDisplay</text>
</a>
</g>
</g>
<!-- Node3&#45;&gt;Node4 -->
<g id="edge3_Node000003_Node000004" class="edge">
<title>Node3&#45;&gt;Node4</title>
<g id="a_edge3_Node000003_Node000004"><a xlink:title=" ">
<path fill="none" stroke="#63b8ff" d="M370.69,-70.62C378.69,-70.62 386.68,-70.62 394.37,-70.62"/>
<polygon fill="#63b8ff" stroke="#63b8ff" points="394.28,-74.13 404.28,-70.63 394.28,-67.13 394.28,-74.13"/>
</a>
</g>
</g>
<!-- Node5&#45;&gt;Node5 -->
<g id="edge5_Node000005_Node000005" class="edge">
<title>Node5&#45;&gt;Node5</title>
<g id="a_edge5_Node000005_Node000005"><a xlink:title=" ">
<path fill="none" stroke="#63b8ff" d="M256.51,-19.54C244.2,-28.15 253.2,-37.25 283.5,-37.25 300.54,-37.25 310.85,-34.37 314.41,-30.32"/>
<polygon fill="#63b8ff" stroke="#63b8ff" points="317.71,-29.16 311,-20.96 311.13,-31.55 317.71,-29.16"/>
</a>
</g>
</g>
</g>
</svg>

<g id="navigator" transform="translate(0 0)" fill="#404254">
  <rect fill="#f2f5e9" fill-opacity="0.5" stroke="#606060" stroke-width=".5" x="0" y="0" width="60" height="60"/>
  <use id="zoomplus" xlink:href="#zoomPlus" x="17" y="9" onmousedown="handleZoom(evt,'in')"/>
  <use id="zoomminus" xlink:href="#zoomMin" x="42" y="9" onmousedown="handleZoom(evt,'out')"/>
  <use id="reset" xlink:href="#resetDef" x="30" y="36" onmousedown="handleReset()"/>
   <use id="arrowup" xlink:href="#arrowUp" x="0" y="0" onmousedown="handlePan(0,-1)"/>
  <use id="arrowright" xlink:href="#arrowRight" x="0" y="0" onmousedown="handlePan(1,0)"/>
  <use id="arrowdown" xlink:href="#arrowDown" x="0" y="0" onmousedown="handlePan(0,1)"/>
  <use id="arrowleft" xlink:href="#arrowLeft" x="0" y="0" onmousedown="handlePan(-1,0)"/>
</g>
<svg viewBox="0 0 15 15" width="100%" height="30px" preserveAspectRatio="xMaxYMin meet">
 <g id="arrow_out" transform="scale(0.3 0.3)">
  <a xlink:href="classjuce_1_1X11DragState_a4c9b12e3ead6998f21c32ac6f5fa6a39_cgraph_org.svg" target="_base">
   <rect id="button" ry="5" rx="5" y="6" x="6" height="38" width="38"
        fill="#f2f5e9" fill-opacity="0.5" stroke="#606060" stroke-width="1.0"/>
   <path id="arrow"
     d="M 11.500037,31.436501 C 11.940474,20.09759 22.043105,11.32322 32.158766,21.979434 L 37.068811,17.246167 C 37.068811,17.246167 37.088388,32 37.088388,32 L 22.160133,31.978069 C 22.160133,31.978069 26.997745,27.140456 26.997745,27.140456 C 18.528582,18.264221 13.291696,25.230495 11.500037,31.436501 z"
     style="fill:#404040;"/>
  </a>
 </g>
</svg>

<style type='text/css'>
<![CDATA[
[data-mouse-over-selected='false'] { opacity: 0.7; }
[data-mouse-over-selected='true']  { opacity: 1.0; }
]]>
</style>
<script type="application/ecmascript"><![CDATA[
document.addEventListener('DOMContentLoaded', (event) => {
  highlightEdges();
  highlightAdjacentNodes();
});
]]></script>
</svg>
