<?xml version="1.0" encoding="UTF-8" standalone="no"?>
<!DOCTYPE svg PUBLIC "-//W3C//DTD SVG 1.1//EN"
 "http://www.w3.org/Graphics/SVG/1.1/DTD/svg11.dtd">
<!-- Generated by graphviz version 14.0.2 (0)
 -->
<!-- Title: Copl::setchip Pages: 1 -->
<svg width="207pt" height="138pt"
 viewBox="0.00 0.00 207.00 138.00" xmlns="http://www.w3.org/2000/svg" xmlns:xlink="http://www.w3.org/1999/xlink">

<svg id="main" version="1.1" xmlns="http://www.w3.org/2000/svg" xmlns:xlink="http://www.w3.org/1999/xlink" xml:space="preserve">

<style type="text/css"><![CDATA[
.node, .edge {opacity: 0.7;}
.node.selected, .edge.selected {opacity: 1;}
.edge:hover path { stroke: red; }
.edge:hover polygon { stroke: red; fill: red; }
]]></style>
<script type="application/ecmascript" xlink:href="svg.min.js"/>
<svg id="graph" class="graph">
<g id="graph0" class="graph" transform="scale(1 1) rotate(0) translate(4 134.25)">
<title>Copl::setchip</title>
<!-- Node1 -->
<g id="Node000001" class="node">
<title>Node1</title>
<g id="a_Node000001"><a xlink:title=" ">
<polygon fill="#999999" stroke="#666666" points="198.5,-74.25 127,-74.25 127,-55 198.5,-55 198.5,-74.25"/>
<text xml:space="preserve" text-anchor="middle" x="162.75" y="-60.75" font-family="Helvetica,sans-Serif" font-size="10.00">Copl::setchip</text>
</a>
</g>
</g>
<!-- Node2 -->
<g id="Node000002" class="node">
<title>Node2</title>
<g id="a_Node000002"><a xlink:href="classCRealopl.html#a618601423b761f1983ff646c62a41f21" target="_top" xlink:title=" ">
<polygon fill="white" stroke="#666666" points="88.75,-130.25 2.25,-130.25 2.25,-111 88.75,-111 88.75,-130.25"/>
<text xml:space="preserve" text-anchor="middle" x="45.5" y="-116.75" font-family="Helvetica,sans-Serif" font-size="10.00">CRealopl::detect</text>
</a>
</g>
</g>
<!-- Node1&#45;&gt;Node2 -->
<g id="edge1_Node000001_Node000002" class="edge">
<title>Node1&#45;&gt;Node2</title>
<g id="a_edge1_Node000001_Node000002"><a xlink:title=" ">
<path fill="none" stroke="#63b8ff" d="M134.55,-80.13C121.54,-87.31 105.64,-95.76 91,-102.62 85.12,-105.39 78.69,-108.14 72.59,-110.62"/>
<polygon fill="#63b8ff" stroke="#63b8ff" points="135.94,-83.36 142.96,-75.43 132.53,-77.25 135.94,-83.36"/>
</a>
</g>
</g>
<!-- Node3 -->
<g id="Node000003" class="node">
<title>Node3</title>
<g id="a_Node000003"><a xlink:href="classCRealopl.html#aed950e91295d427d2d25d0bc30ecf050" target="_top" xlink:title=" ">
<polygon fill="white" stroke="#666666" points="81.62,-93.25 9.38,-93.25 9.38,-74 81.62,-74 81.62,-93.25"/>
<text xml:space="preserve" text-anchor="middle" x="45.5" y="-79.75" font-family="Helvetica,sans-Serif" font-size="10.00">CRealopl::init</text>
</a>
</g>
</g>
<!-- Node1&#45;&gt;Node3 -->
<g id="edge2_Node000001_Node000003" class="edge">
<title>Node1&#45;&gt;Node3</title>
<g id="a_edge2_Node000001_Node000003"><a xlink:title=" ">
<path fill="none" stroke="#63b8ff" d="M115.23,-72.29C104.11,-74.13 92.41,-76.06 81.89,-77.79"/>
<polygon fill="#63b8ff" stroke="#63b8ff" points="115.75,-75.76 125.05,-70.68 114.62,-68.85 115.75,-75.76"/>
</a>
</g>
</g>
<!-- Node4 -->
<g id="Node000004" class="node">
<title>Node4</title>
<g id="a_Node000004"><a xlink:href="classCDiskopl.html#af7b0b37d782f789398f55d8ec8e03e68" target="_top" xlink:title=" ">
<polygon fill="white" stroke="#666666" points="91,-56.25 0,-56.25 0,-37 91,-37 91,-56.25"/>
<text xml:space="preserve" text-anchor="middle" x="45.5" y="-42.75" font-family="Helvetica,sans-Serif" font-size="10.00">CDiskopl::setchip</text>
</a>
</g>
</g>
<!-- Node1&#45;&gt;Node4 -->
<g id="edge3_Node000001_Node000004" class="edge">
<title>Node1&#45;&gt;Node4</title>
<g id="a_edge3_Node000001_Node000004"><a xlink:title=" ">
<path fill="none" stroke="#63b8ff" d="M115.24,-57.36C107.34,-56.13 99.14,-54.85 91.29,-53.62"/>
<polygon fill="#63b8ff" stroke="#63b8ff" points="114.63,-60.81 125.05,-58.89 115.71,-53.89 114.63,-60.81"/>
</a>
</g>
</g>
<!-- Node5 -->
<g id="Node000005" class="node">
<title>Node5</title>
<g id="a_Node000005"><a xlink:href="classTestopl.html#a26b5f6be7ea12b6f673c4097d30b19da" target="_top" xlink:title=" ">
<polygon fill="white" stroke="#666666" points="87.62,-19.25 3.38,-19.25 3.38,0 87.62,0 87.62,-19.25"/>
<text xml:space="preserve" text-anchor="middle" x="45.5" y="-5.75" font-family="Helvetica,sans-Serif" font-size="10.00">Testopl::setchip</text>
</a>
</g>
</g>
<!-- Node1&#45;&gt;Node5 -->
<g id="edge4_Node000001_Node000005" class="edge">
<title>Node1&#45;&gt;Node5</title>
<g id="a_edge4_Node000001_Node000005"><a xlink:title=" ">
<path fill="none" stroke="#63b8ff" d="M133.59,-49.09C120.74,-42.22 105.25,-34.22 91,-27.62 85.1,-24.9 78.66,-22.16 72.57,-19.67"/>
<polygon fill="#63b8ff" stroke="#63b8ff" points="131.88,-52.15 142.34,-53.83 135.21,-45.99 131.88,-52.15"/>
</a>
</g>
</g>
</g>
</svg>
</svg>

<style type='text/css'>
<![CDATA[
[data-mouse-over-selected='false'] { opacity: 0.7; }
[data-mouse-over-selected='true']  { opacity: 1.0; }
]]>
</style>
<script type="application/ecmascript"><![CDATA[
document.addEventListener('DOMContentLoaded', (event) => {
  highlightEdges();
  highlightAdjacentNodes();
});
]]></script>
</svg>
