<?xml version="1.0" encoding="UTF-8" standalone="no"?>
<!DOCTYPE svg PUBLIC "-//W3C//DTD SVG 1.1//EN"
 "http://www.w3.org/Graphics/SVG/1.1/DTD/svg11.dtd">
<!-- Generated by graphviz version 14.0.2 (0)
 -->
<!-- Title: hiir::HalfBand8Avx::process_2_paths Pages: 1 -->
<svg width="394pt" height="186pt"
 viewBox="0.00 0.00 394.00 186.00" xmlns="http://www.w3.org/2000/svg" xmlns:xlink="http://www.w3.org/1999/xlink">
<g id="graph0" class="graph" transform="scale(1 1) rotate(0) translate(4 181.5)">
<title>hiir::HalfBand8Avx::process_2_paths</title>
<!-- Node1 -->
<g id="Node000001" class="node">
<title>Node1</title>
<g id="a_Node000001"><a xlink:title=" ">
<polygon fill="#999999" stroke="#666666" points="386.25,-103.5 290.75,-103.5 290.75,-73 386.25,-73 386.25,-103.5"/>
<text xml:space="preserve" text-anchor="start" x="298.75" y="-90" font-family="Helvetica,sans-Serif" font-size="10.00">hiir::HalfBand8Avx</text>
<text xml:space="preserve" text-anchor="middle" x="338.5" y="-78.75" font-family="Helvetica,sans-Serif" font-size="10.00">::process_2_paths</text>
</a>
</g>
</g>
<!-- Node2 -->
<g id="Node000002" class="node">
<title>Node2</title>
<g id="a_Node000002"><a xlink:href="classhiir_1_1HalfBand8Avx.html#a94b90e7b95f5d8016c9c9ab94c07ac82" target="_top" xlink:title=" ">
<polygon fill="white" stroke="#666666" points="254.75,-177.5 131.5,-177.5 131.5,-147 254.75,-147 254.75,-177.5"/>
<text xml:space="preserve" text-anchor="start" x="139.5" y="-164" font-family="Helvetica,sans-Serif" font-size="10.00">hiir::HalfBand8Avx</text>
<text xml:space="preserve" text-anchor="middle" x="193.12" y="-152.75" font-family="Helvetica,sans-Serif" font-size="10.00">::process_block_2_paths</text>
</a>
</g>
</g>
<!-- Node1&#45;&gt;Node2 -->
<g id="edge1_Node000001_Node000002" class="edge">
<title>Node1&#45;&gt;Node2</title>
<g id="a_edge1_Node000001_Node000002"><a xlink:title=" ">
<path fill="none" stroke="#63b8ff" d="M303.36,-109.96C288.67,-118.91 271.14,-129.07 254.75,-137.25 248.33,-140.45 241.4,-143.59 234.6,-146.51"/>
<polygon fill="#63b8ff" stroke="#63b8ff" points="305.07,-113.02 311.74,-104.79 301.4,-107.06 305.07,-113.02"/>
</a>
</g>
</g>
<!-- Node3 -->
<g id="Node000003" class="node">
<title>Node3</title>
<g id="a_Node000003"><a xlink:href="classhiir_1_1HalfBand8Avx.html#a0514a984f4786f271d1aa31f433cdd08" target="_top" xlink:title=" ">
<polygon fill="white" stroke="#666666" points="240.88,-128.5 145.38,-128.5 145.38,-98 240.88,-98 240.88,-128.5"/>
<text xml:space="preserve" text-anchor="start" x="153.38" y="-115" font-family="Helvetica,sans-Serif" font-size="10.00">hiir::HalfBand8Avx</text>
<text xml:space="preserve" text-anchor="middle" x="193.12" y="-103.75" font-family="Helvetica,sans-Serif" font-size="10.00">::process_sample</text>
</a>
</g>
</g>
<!-- Node1&#45;&gt;Node3 -->
<g id="edge2_Node000001_Node000003" class="edge">
<title>Node1&#45;&gt;Node3</title>
<g id="a_edge2_Node000001_Node000003"><a xlink:title=" ">
<path fill="none" stroke="#63b8ff" d="M279.54,-98.36C266.79,-100.58 253.44,-102.91 241.18,-105.05"/>
<polygon fill="#63b8ff" stroke="#63b8ff" points="279.81,-101.86 289.06,-96.7 278.61,-94.97 279.81,-101.86"/>
</a>
</g>
</g>
<!-- Node5 -->
<g id="Node000005" class="node">
<title>Node5</title>
<g id="a_Node000005"><a xlink:href="classhiir_1_1HalfBand8Avx.html#a35bc3fa3bdc9b2f4881f7e7a90e779a0" target="_top" xlink:title=" ">
<polygon fill="white" stroke="#666666" points="248.38,-79.5 137.88,-79.5 137.88,-49 248.38,-49 248.38,-79.5"/>
<text xml:space="preserve" text-anchor="start" x="145.88" y="-66" font-family="Helvetica,sans-Serif" font-size="10.00">hiir::HalfBand8Avx</text>
<text xml:space="preserve" text-anchor="middle" x="193.12" y="-54.75" font-family="Helvetica,sans-Serif" font-size="10.00">::process_sample_hpf</text>
</a>
</g>
</g>
<!-- Node1&#45;&gt;Node5 -->
<g id="edge4_Node000001_Node000005" class="edge">
<title>Node1&#45;&gt;Node5</title>
<g id="a_edge4_Node000001_Node000005"><a xlink:title=" ">
<path fill="none" stroke="#63b8ff" d="M279.32,-78.51C269.18,-76.81 258.68,-75.06 248.65,-73.38"/>
<polygon fill="#63b8ff" stroke="#63b8ff" points="278.62,-81.94 289.06,-80.14 279.78,-75.04 278.62,-81.94"/>
</a>
</g>
</g>
<!-- Node6 -->
<g id="Node000006" class="node">
<title>Node6</title>
<g id="a_Node000006"><a xlink:href="classhiir_1_1HalfBand8Avx.html#a25863ca289cbd990fbe8256294b4445d" target="_top" xlink:title=" ">
<polygon fill="white" stroke="#666666" points="250.62,-30.5 135.62,-30.5 135.62,0 250.62,0 250.62,-30.5"/>
<text xml:space="preserve" text-anchor="start" x="143.62" y="-17" font-family="Helvetica,sans-Serif" font-size="10.00">hiir::HalfBand8Avx</text>
<text xml:space="preserve" text-anchor="middle" x="193.12" y="-5.75" font-family="Helvetica,sans-Serif" font-size="10.00">::process_sample_split</text>
</a>
</g>
</g>
<!-- Node1&#45;&gt;Node6 -->
<g id="edge6_Node000001_Node000006" class="edge">
<title>Node1&#45;&gt;Node6</title>
<g id="a_edge6_Node000001_Node000006"><a xlink:title=" ">
<path fill="none" stroke="#63b8ff" d="M302.99,-66.84C288.36,-58.13 270.97,-48.25 254.75,-40.25 248.22,-37.03 241.16,-33.85 234.25,-30.9"/>
<polygon fill="#63b8ff" stroke="#63b8ff" points="300.96,-69.7 311.33,-71.87 304.57,-63.71 300.96,-69.7"/>
</a>
</g>
</g>
<!-- Node4 -->
<g id="Node000004" class="node">
<title>Node4</title>
<g id="a_Node000004"><a xlink:href="classhiir_1_1HalfBand8Avx.html#af6ed6181b1d7491c68e55a8c6d18afdd" target="_top" xlink:title=" ">
<polygon fill="white" stroke="#666666" points="95.5,-79.5 0,-79.5 0,-49 95.5,-49 95.5,-79.5"/>
<text xml:space="preserve" text-anchor="start" x="8" y="-66" font-family="Helvetica,sans-Serif" font-size="10.00">hiir::HalfBand8Avx</text>
<text xml:space="preserve" text-anchor="middle" x="47.75" y="-54.75" font-family="Helvetica,sans-Serif" font-size="10.00">::operator=</text>
</a>
</g>
</g>
<!-- Node3&#45;&gt;Node4 -->
<g id="edge3_Node000003_Node000004" class="edge">
<title>Node3&#45;&gt;Node4</title>
<g id="a_edge3_Node000003_Node000004"><a xlink:title=" ">
<path fill="none" stroke="#63b8ff" d="M135.65,-93.95C122.02,-89.29 107.63,-84.37 94.57,-79.91"/>
<polygon fill="#63b8ff" stroke="#63b8ff" points="134.34,-97.2 144.93,-97.12 136.6,-90.58 134.34,-97.2"/>
</a>
</g>
</g>
<!-- Node5&#45;&gt;Node4 -->
<g id="edge5_Node000005_Node000004" class="edge">
<title>Node5&#45;&gt;Node4</title>
<g id="a_edge5_Node000005_Node000004"><a xlink:title=" ">
<path fill="none" stroke="#63b8ff" d="M126.06,-64.25C115.82,-64.25 105.43,-64.25 95.72,-64.25"/>
<polygon fill="#63b8ff" stroke="#63b8ff" points="126,-67.75 136,-64.25 126,-60.75 126,-67.75"/>
</a>
</g>
</g>
<!-- Node6&#45;&gt;Node4 -->
<g id="edge7_Node000006_Node000004" class="edge">
<title>Node6&#45;&gt;Node4</title>
<g id="a_edge7_Node000006_Node000004"><a xlink:title=" ">
<path fill="none" stroke="#63b8ff" d="M135.65,-34.55C122.02,-39.21 107.63,-44.13 94.57,-48.59"/>
<polygon fill="#63b8ff" stroke="#63b8ff" points="136.6,-37.92 144.93,-31.38 134.34,-31.3 136.6,-37.92"/>
</a>
</g>
</g>
</g>
</svg>
