<?xml version="1.0" encoding="UTF-8" standalone="no"?>
<!DOCTYPE svg PUBLIC "-//W3C//DTD SVG 1.1//EN"
 "http://www.w3.org/Graphics/SVG/1.1/DTD/svg11.dtd">
<!-- Generated by graphviz version 14.0.2 (0)
 -->
<!-- Title: juce::ComSmartPtr::release Pages: 1 -->
<!--zoomable 988 -->

<svg id="main" version="1.1" xmlns="http://www.w3.org/2000/svg" xmlns:xlink="http://www.w3.org/1999/xlink" xml:space="preserve" onload="init(evt)">

<style type="text/css"><![CDATA[
.node, .edge {opacity: 0.7;}
.node.selected, .edge.selected {opacity: 1;}
.edge:hover path { stroke: red; }
.edge:hover polygon { stroke: red; fill: red; }
]]></style>

<defs>
  <circle id="rim" cx="0" cy="0" r="7"/>
  <circle id="rim2" cx="0" cy="0" r="3.5"/>
  <g id="zoomPlus">
    <use xlink:href="#rim" fill="#404040"><set attributeName="fill" to="#808080" begin="zoomplus.mouseover" end="zoomplus.mouseout"/></use>
    <path d="M-4,0h8M0,-4v8" fill="none" stroke="white" stroke-width="1.5" pointer-events="none"/>
  </g>
  <g id="zoomMin">
    <use xlink:href="#rim" fill="#404040"><set attributeName="fill" to="#808080" begin="zoomminus.mouseover" end="zoomminus.mouseout"/></use>
    <path d="M-4,0h8" fill="none" stroke="white" stroke-width="1.5" pointer-events="none"/>
  </g>
  <g id="arrowUp" transform="translate(30 24)">
    <use xlink:href="#rim"/>
    <path pointer-events="none" fill="none" stroke="white" stroke-width="1.5" d="M0,-3.0v7 M-2.5,-0.5L0,-3.0L2.5,-0.5"/>
  </g>
  <g id="arrowRight" transform="rotate(90) translate(36 -43)">
    <use xlink:href="#rim"/>
    <path pointer-events="none" fill="none" stroke="white" stroke-width="1.5" d="M0,-3.0v7 M-2.5,-0.5L0,-3.0L2.5,-0.5"/>
  </g>
  <g id="arrowDown" transform="rotate(180) translate(-30 -48)">
    <use xlink:href="#rim"/>
    <path pointer-events="none" fill="none" stroke="white" stroke-width="1.5" d="M0,-3.0v7 M-2.5,-0.5L0,-3.0L2.5,-0.5"/>
  </g>
  <g id="arrowLeft" transform="rotate(270) translate(-36 17)">
    <use xlink:href="#rim"/>
    <path pointer-events="none" fill="none" stroke="white" stroke-width="1.5" d="M0,-3.0v7 M-2.5,-0.5L0,-3.0L2.5,-0.5"/>
  </g>
  <g id="resetDef">
    <use xlink:href="#rim2" fill="#404040"><set attributeName="fill" to="#808080" begin="reset.mouseover" end="reset.mouseout"/></use>
  </g>
</defs>
<script type="application/ecmascript">
var viewWidth = 894;
var viewHeight = 988;
var sectionId = 'dynsection-14';
</script>
<script type="application/ecmascript" xlink:href="svg.min.js"/>
<svg id="graph" class="graph">
<g id="viewport">
<title>juce::ComSmartPtr::release</title>
<!-- Node1 -->
<g id="Node000001" class="node">
<title>Node1</title>
<g id="a_Node000001"><a xlink:title=" ">
<polygon fill="#999999" stroke="#666666" points="885.5,-469.12 783.25,-469.12 783.25,-438.62 885.5,-438.62 885.5,-469.12"/>
<text xml:space="preserve" text-anchor="start" x="791.25" y="-455.62" font-family="Helvetica,sans-Serif" font-size="10.00">juce::ComSmartPtr::</text>
<text xml:space="preserve" text-anchor="middle" x="834.38" y="-444.38" font-family="Helvetica,sans-Serif" font-size="10.00">release</text>
</a>
</g>
</g>
<!-- Node2 -->
<g id="Node000002" class="node">
<title>Node2</title>
<g id="a_Node000002"><a xlink:href="classjuce_1_1ComSmartPtr.html#a2f499e348fd98574582f00522a30e02a" target="_top" xlink:title=" ">
<polygon fill="white" stroke="#666666" points="729.62,-518.12 627.38,-518.12 627.38,-487.62 729.62,-487.62 729.62,-518.12"/>
<text xml:space="preserve" text-anchor="start" x="635.38" y="-504.62" font-family="Helvetica,sans-Serif" font-size="10.00">juce::ComSmartPtr::</text>
<text xml:space="preserve" text-anchor="middle" x="678.5" y="-493.38" font-family="Helvetica,sans-Serif" font-size="10.00">operator=</text>
</a>
</g>
</g>
<!-- Node1&#45;&gt;Node2 -->
<g id="edge1_Node000001_Node000002" class="edge">
<title>Node1&#45;&gt;Node2</title>
<g id="a_edge1_Node000001_Node000002"><a xlink:title=" ">
<path fill="none" stroke="#63b8ff" d="M773.68,-472.88C758.88,-477.6 743.18,-482.6 728.94,-487.13"/>
<polygon fill="#63b8ff" stroke="#63b8ff" points="774.36,-476.34 782.82,-469.97 772.23,-469.67 774.36,-476.34"/>
</a>
</g>
</g>
<!-- Node3 -->
<g id="Node000003" class="node">
<title>Node3</title>
<g id="a_Node000003"><a xlink:href="classjuce_1_1ComSmartPtr.html#a719b6e40223f6be85c0ca699feefe66d" target="_top" xlink:title=" ">
<polygon fill="white" stroke="#666666" points="747.25,-469.12 609.75,-469.12 609.75,-438.62 747.25,-438.62 747.25,-469.12"/>
<text xml:space="preserve" text-anchor="start" x="617.75" y="-455.62" font-family="Helvetica,sans-Serif" font-size="10.00">juce::ComSmartPtr::</text>
<text xml:space="preserve" text-anchor="middle" x="678.5" y="-444.38" font-family="Helvetica,sans-Serif" font-size="10.00">resetAndGetPointerAddress</text>
</a>
</g>
</g>
<!-- Node1&#45;&gt;Node3 -->
<g id="edge2_Node000001_Node000003" class="edge">
<title>Node1&#45;&gt;Node3</title>
<g id="a_edge2_Node000001_Node000003"><a xlink:title=" ">
<path fill="none" stroke="#63b8ff" d="M771.62,-453.88C763.72,-453.88 755.6,-453.88 747.61,-453.88"/>
<polygon fill="#63b8ff" stroke="#63b8ff" points="771.48,-457.38 781.48,-453.88 771.48,-450.38 771.48,-457.38"/>
</a>
</g>
</g>
<!-- Node54 -->
<g id="Node000054" class="node">
<title>Node54</title>
<g id="a_Node000054"><a xlink:href="classjuce_1_1ComSmartPtr.html#a34210e56f1cea4a40698a5ab29039644" target="_top" xlink:title=" ">
<polygon fill="white" stroke="#666666" points="729.62,-420.12 627.38,-420.12 627.38,-389.62 729.62,-389.62 729.62,-420.12"/>
<text xml:space="preserve" text-anchor="start" x="635.38" y="-406.62" font-family="Helvetica,sans-Serif" font-size="10.00">juce::ComSmartPtr::</text>
<text xml:space="preserve" text-anchor="middle" x="678.5" y="-395.38" font-family="Helvetica,sans-Serif" font-size="10.00">~ComSmartPtr</text>
</a>
</g>
</g>
<!-- Node1&#45;&gt;Node54 -->
<g id="edge45_Node000001_Node000054" class="edge">
<title>Node1&#45;&gt;Node54</title>
<g id="a_edge45_Node000001_Node000054"><a xlink:title=" ">
<path fill="none" stroke="#63b8ff" d="M773.68,-434.87C758.88,-430.15 743.18,-425.15 728.94,-420.62"/>
<polygon fill="#63b8ff" stroke="#63b8ff" points="772.23,-438.08 782.82,-437.78 774.36,-431.41 772.23,-438.08"/>
</a>
</g>
</g>
<!-- Node4 -->
<g id="Node000004" class="node">
<title>Node4</title>
<g id="a_Node000004"><a xlink:href="classjuce_1_1WinRTWrapper.html#ae647a1413a0aa17244c8136b5aacd043" target="_top" xlink:title=" ">
<polygon fill="white" stroke="#666666" points="318.5,-962.12 214.75,-962.12 214.75,-931.62 318.5,-931.62 318.5,-962.12"/>
<text xml:space="preserve" text-anchor="start" x="222.75" y="-948.62" font-family="Helvetica,sans-Serif" font-size="10.00">juce::WinRTWrapper</text>
<text xml:space="preserve" text-anchor="middle" x="266.62" y="-937.38" font-family="Helvetica,sans-Serif" font-size="10.00">::activateInstance</text>
</a>
</g>
</g>
<!-- Node3&#45;&gt;Node4 -->
<g id="edge3_Node000003_Node000004" class="edge">
<title>Node3&#45;&gt;Node4</title>
<g id="a_edge3_Node000003_Node000004"><a xlink:title=" ">
<path fill="none" stroke="#63b8ff" d="M611.08,-477.23C610.62,-477.77 610.18,-478.31 609.75,-478.88 554.6,-551.01 634.38,-818.29 573.75,-885.88 509.7,-957.28 387.88,-959.1 318.79,-953.43"/>
<polygon fill="#63b8ff" stroke="#63b8ff" points="613.31,-479.93 618.35,-470.61 608.6,-474.75 613.31,-479.93"/>
</a>
</g>
</g>
<!-- Node5 -->
<g id="Node000005" class="node">
<title>Node5</title>
<g id="a_Node000005"><a xlink:href="namespacejuce.html#af2f65a1c631a0fb627c131560f5b3d4d" target="_top" xlink:title=" ">
<polygon fill="white" stroke="#666666" points="330.12,-895.5 203.12,-895.5 203.12,-876.25 330.12,-876.25 330.12,-895.5"/>
<text xml:space="preserve" text-anchor="middle" x="266.62" y="-882" font-family="Helvetica,sans-Serif" font-size="10.00">juce::addHandlersToArray</text>
</a>
</g>
</g>
<!-- Node3&#45;&gt;Node5 -->
<g id="edge5_Node000003_Node000005" class="edge">
<title>Node3&#45;&gt;Node5</title>
<g id="a_edge5_Node000003_Node000005"><a xlink:title=" ">
<path fill="none" stroke="#63b8ff" d="M611.08,-477.24C610.63,-477.77 610.18,-478.32 609.75,-478.88 560.05,-543.19 630.04,-784.23 573.75,-842.88 508.62,-910.73 389.2,-905.83 320.34,-895.99"/>
<polygon fill="#63b8ff" stroke="#63b8ff" points="613.32,-479.94 618.38,-470.63 608.62,-474.75 613.32,-479.94"/>
</a>
</g>
</g>
<!-- Node7 -->
<g id="Node000007" class="node">
<title>Node7</title>
<g id="a_Node000007"><a xlink:href="classjuce_1_1ComSmartPtr.html#a9bbc5e808c6bbcdef7120d94c09a4a24" target="_top" xlink:title=" ">
<polygon fill="white" stroke="#666666" points="530.25,-671.12 428,-671.12 428,-640.62 530.25,-640.62 530.25,-671.12"/>
<text xml:space="preserve" text-anchor="start" x="436" y="-657.62" font-family="Helvetica,sans-Serif" font-size="10.00">juce::ComSmartPtr::</text>
<text xml:space="preserve" text-anchor="middle" x="479.12" y="-646.38" font-family="Helvetica,sans-Serif" font-size="10.00">CoCreateInstance</text>
</a>
</g>
</g>
<!-- Node3&#45;&gt;Node7 -->
<g id="edge8_Node000003_Node000007" class="edge">
<title>Node3&#45;&gt;Node7</title>
<g id="a_edge8_Node000003_Node000007"><a xlink:title=" ">
<path fill="none" stroke="#63b8ff" d="M611.97,-476.56C611.2,-477.3 610.46,-478.08 609.75,-478.88 564.71,-529.41 620.12,-577.55 573.75,-626.88 562.44,-638.9 546.26,-645.98 530.53,-650.13"/>
<polygon fill="#63b8ff" stroke="#63b8ff" points="614.12,-479.31 619.81,-470.38 609.79,-473.81 614.12,-479.31"/>
</a>
</g>
</g>
<!-- Node8 -->
<g id="Node000008" class="node">
<title>Node8</title>
<g id="a_Node000008"><a xlink:href="classjuce_1_1WasapiClasses_1_1WASAPIAudioIODevice.html#a41b66762d8ca4743c9b65c6a2f9be45d" target="_top" xlink:title=" ">
<polygon fill="#fff0f0" stroke="red" points="329,-704.75 204.25,-704.75 204.25,-663 329,-663 329,-704.75"/>
<text xml:space="preserve" text-anchor="start" x="212.25" y="-691.25" font-family="Helvetica,sans-Serif" font-size="10.00">juce::WasapiClasses</text>
<text xml:space="preserve" text-anchor="start" x="212.25" y="-680" font-family="Helvetica,sans-Serif" font-size="10.00">::WASAPIAudioIODevice</text>
<text xml:space="preserve" text-anchor="middle" x="266.62" y="-668.75" font-family="Helvetica,sans-Serif" font-size="10.00">::createDevices</text>
</a>
</g>
</g>
<!-- Node3&#45;&gt;Node8 -->
<g id="edge18_Node000003_Node000008" class="edge">
<title>Node3&#45;&gt;Node8</title>
<g id="a_edge18_Node000003_Node000008"><a xlink:title=" ">
<path fill="none" stroke="#63b8ff" d="M611.47,-476.92C610.88,-477.55 610.3,-478.2 609.75,-478.88 546.95,-554.94 648.94,-634.03 573.75,-697.88 538.21,-728.05 407.87,-710.35 329.18,-696.18"/>
<polygon fill="#63b8ff" stroke="#63b8ff" points="613.56,-479.73 618.92,-470.59 609.03,-474.4 613.56,-479.73"/>
</a>
</g>
</g>
<!-- Node11 -->
<g id="Node000011" class="node">
<title>Node11</title>
<g id="a_Node000011"><a xlink:href="structjuce_1_1WasapiClasses_1_1MMDeviceMasterVolume.html#a08d115f54b243139cbde055c11f758d5" target="_top" xlink:title=" ">
<polygon fill="white" stroke="#666666" points="331.62,-644.75 201.62,-644.75 201.62,-603 331.62,-603 331.62,-644.75"/>
<text xml:space="preserve" text-anchor="start" x="209.62" y="-631.25" font-family="Helvetica,sans-Serif" font-size="10.00">juce::WasapiClasses</text>
<text xml:space="preserve" text-anchor="start" x="209.62" y="-620" font-family="Helvetica,sans-Serif" font-size="10.00">::MMDeviceMasterVolume</text>
<text xml:space="preserve" text-anchor="middle" x="266.62" y="-608.75" font-family="Helvetica,sans-Serif" font-size="10.00">::MMDeviceMasterVolume</text>
</a>
</g>
</g>
<!-- Node3&#45;&gt;Node11 -->
<g id="edge31_Node000003_Node000011" class="edge">
<title>Node3&#45;&gt;Node11</title>
<g id="a_edge31_Node000003_Node000011"><a xlink:title=" ">
<path fill="none" stroke="#63b8ff" d="M612.46,-476.26C611.53,-477.1 610.62,-477.97 609.75,-478.88 574.06,-515.92 613.61,-556.36 573.75,-588.88 537.89,-618.12 410.7,-623.82 331.99,-624.45"/>
<polygon fill="#63b8ff" stroke="#63b8ff" points="614.43,-479.16 620.41,-470.42 610.28,-473.52 614.43,-479.16"/>
</a>
</g>
</g>
<!-- Node14 -->
<g id="Node000014" class="node">
<title>Node14</title>
<g id="a_Node000014"><a xlink:href="classjuce_1_1WasapiClasses_1_1WASAPIDeviceBase.html#a95ed092063efa8f5bd4c2f3912de437c" target="_top" xlink:title=" ">
<polygon fill="white" stroke="#666666" points="537.38,-546.75 420.88,-546.75 420.88,-505 537.38,-505 537.38,-546.75"/>
<text xml:space="preserve" text-anchor="start" x="428.88" y="-533.25" font-family="Helvetica,sans-Serif" font-size="10.00">juce::WasapiClasses</text>
<text xml:space="preserve" text-anchor="start" x="428.88" y="-522" font-family="Helvetica,sans-Serif" font-size="10.00">::WASAPIDeviceBase::</text>
<text xml:space="preserve" text-anchor="middle" x="479.12" y="-510.75" font-family="Helvetica,sans-Serif" font-size="10.00">createClient</text>
</a>
</g>
</g>
<!-- Node3&#45;&gt;Node14 -->
<g id="edge14_Node000003_Node000014" class="edge">
<title>Node3&#45;&gt;Node14</title>
<g id="a_edge14_Node000003_Node000014"><a xlink:title=" ">
<path fill="none" stroke="#63b8ff" d="M622.45,-473.73C618.13,-475.42 613.86,-477.15 609.75,-478.88 593.43,-485.72 590.21,-489.38 573.75,-495.88 562.16,-500.45 549.57,-504.85 537.48,-508.81"/>
<polygon fill="#63b8ff" stroke="#63b8ff" points="623.7,-477 631.77,-470.14 621.18,-470.46 623.7,-477"/>
</a>
</g>
</g>
<!-- Node24 -->
<g id="Node000024" class="node">
<title>Node24</title>
<g id="a_Node000024"><a xlink:href="classjuce_1_1Direct2DLowLevelGraphicsContext.html#a57b5d016df80943a812195a0d20ac8c9" target="_top" xlink:title=" ">
<polygon fill="white" stroke="#666666" points="558,-469.12 400.25,-469.12 400.25,-438.62 558,-438.62 558,-469.12"/>
<text xml:space="preserve" text-anchor="start" x="408.25" y="-455.62" font-family="Helvetica,sans-Serif" font-size="10.00">juce::Direct2DLowLevelGraphics</text>
<text xml:space="preserve" text-anchor="middle" x="479.12" y="-444.38" font-family="Helvetica,sans-Serif" font-size="10.00">Context::drawImage</text>
</a>
</g>
</g>
<!-- Node3&#45;&gt;Node24 -->
<g id="edge19_Node000003_Node000024" class="edge">
<title>Node3&#45;&gt;Node24</title>
<g id="a_edge19_Node000003_Node000024"><a xlink:title=" ">
<path fill="none" stroke="#63b8ff" d="M598,-453.88C584.98,-453.88 571.49,-453.88 558.5,-453.88"/>
<polygon fill="#63b8ff" stroke="#63b8ff" points="597.78,-457.38 607.78,-453.88 597.78,-450.38 597.78,-457.38"/>
</a>
</g>
</g>
<!-- Node25 -->
<g id="Node000025" class="node">
<title>Node25</title>
<g id="a_Node000025"><a xlink:href="namespacejuce.html#a6abd3f5edd2d839c50779c750616b541" target="_top" xlink:title=" ">
<polygon fill="white" stroke="#666666" points="552,-402.12 406.25,-402.12 406.25,-371.62 552,-371.62 552,-402.12"/>
<text xml:space="preserve" text-anchor="start" x="414.25" y="-388.62" font-family="Helvetica,sans-Serif" font-size="10.00">juce::getProviderWithChecked</text>
<text xml:space="preserve" text-anchor="middle" x="479.12" y="-377.38" font-family="Helvetica,sans-Serif" font-size="10.00">Wrapper</text>
</a>
</g>
</g>
<!-- Node3&#45;&gt;Node25 -->
<g id="edge21_Node000003_Node000025" class="edge">
<title>Node3&#45;&gt;Node25</title>
<g id="a_edge21_Node000003_Node000025"><a xlink:title=" ">
<path fill="none" stroke="#63b8ff" d="M620.53,-434.54C590.67,-424.4 554.57,-412.15 526.45,-402.6"/>
<polygon fill="#63b8ff" stroke="#63b8ff" points="619.2,-437.78 629.79,-437.68 621.45,-431.15 619.2,-437.78"/>
</a>
</g>
</g>
<!-- Node37 -->
<g id="Node000037" class="node">
<title>Node37</title>
<g id="a_Node000037"><a xlink:href="classjuce_1_1WinRTWrapper.html#a4c5d7996c196a0cf0822a39424fdc5c5" target="_top" xlink:title=" ">
<polygon fill="white" stroke="#666666" points="531,-353.12 427.25,-353.12 427.25,-322.62 531,-322.62 531,-353.12"/>
<text xml:space="preserve" text-anchor="start" x="435.25" y="-339.62" font-family="Helvetica,sans-Serif" font-size="10.00">juce::WinRTWrapper</text>
<text xml:space="preserve" text-anchor="middle" x="479.12" y="-328.38" font-family="Helvetica,sans-Serif" font-size="10.00">::getWRLFactory</text>
</a>
</g>
</g>
<!-- Node3&#45;&gt;Node37 -->
<g id="edge27_Node000003_Node000037" class="edge">
<title>Node3&#45;&gt;Node37</title>
<g id="a_edge27_Node000003_Node000037"><a xlink:title=" ">
<path fill="none" stroke="#63b8ff" d="M614.24,-432.42C612.69,-431.3 611.19,-430.11 609.75,-428.88 584.46,-407.03 600.02,-383.52 573.75,-362.88 561.58,-353.31 546.07,-347.39 531.18,-343.73"/>
<polygon fill="#63b8ff" stroke="#63b8ff" points="612.03,-435.16 622.37,-437.46 615.71,-429.21 612.03,-435.16"/>
</a>
</g>
</g>
<!-- Node38 -->
<g id="Node000038" class="node">
<title>Node38</title>
<g id="a_Node000038"><a xlink:href="namespacejuce_1_1WindowsAccessibility.html#a3d793b38c783c3cc75dda60adafe3fd8" target="_top" xlink:title=" ">
<polygon fill="white" stroke="#666666" points="545.62,-286.12 412.62,-286.12 412.62,-255.62 545.62,-255.62 545.62,-286.12"/>
<text xml:space="preserve" text-anchor="start" x="420.62" y="-272.62" font-family="Helvetica,sans-Serif" font-size="10.00">juce::WindowsAccessibility</text>
<text xml:space="preserve" text-anchor="middle" x="479.12" y="-261.38" font-family="Helvetica,sans-Serif" font-size="10.00">::handleWmGetObject</text>
</a>
</g>
</g>
<!-- Node3&#45;&gt;Node38 -->
<g id="edge28_Node000003_Node000038" class="edge">
<title>Node3&#45;&gt;Node38</title>
<g id="a_edge28_Node000003_Node000038"><a xlink:title=" ">
<path fill="none" stroke="#63b8ff" d="M612.45,-431.5C611.51,-430.66 610.61,-429.78 609.75,-428.88 572.84,-390.07 609.14,-354.08 573.75,-313.88 563.11,-301.79 548.38,-292.89 533.75,-286.43"/>
<polygon fill="#63b8ff" stroke="#63b8ff" points="610.24,-434.23 620.36,-437.37 614.41,-428.61 610.24,-434.23"/>
</a>
</g>
</g>
<!-- Node40 -->
<g id="Node000040" class="node">
<title>Node40</title>
<g id="a_Node000040"><a xlink:href="structjuce_1_1Direct2DLowLevelGraphicsContext_1_1Pimpl.html#abf1e34148560878a6afbca8ad8320b71" target="_top" xlink:title=" ">
<polygon fill="white" stroke="#666666" points="566.62,-237.12 391.62,-237.12 391.62,-206.62 566.62,-206.62 566.62,-237.12"/>
<text xml:space="preserve" text-anchor="start" x="399.62" y="-223.62" font-family="Helvetica,sans-Serif" font-size="10.00">juce::Direct2DLowLevelGraphics</text>
<text xml:space="preserve" text-anchor="middle" x="479.12" y="-212.38" font-family="Helvetica,sans-Serif" font-size="10.00">Context::Pimpl::pathToPathGeometry</text>
</a>
</g>
</g>
<!-- Node3&#45;&gt;Node40 -->
<g id="edge32_Node000003_Node000040" class="edge">
<title>Node3&#45;&gt;Node40</title>
<g id="a_edge32_Node000003_Node000040"><a xlink:title=" ">
<path fill="none" stroke="#63b8ff" d="M611.86,-431.18C611.13,-430.44 610.43,-429.67 609.75,-428.88 556.23,-366.14 630.11,-307.06 573.75,-246.88 570.42,-243.31 566.63,-240.24 562.55,-237.58"/>
<polygon fill="#63b8ff" stroke="#63b8ff" points="609.38,-433.67 619.34,-437.29 613.81,-428.25 609.38,-433.67"/>
</a>
</g>
</g>
<!-- Node41 -->
<g id="Node000041" class="node">
<title>Node41</title>
<g id="a_Node000041"><a xlink:href="classjuce_1_1ComSmartPtr.html#ad0628fe8c8859799c224b07719eaaf23" target="_top" xlink:title=" ">
<polygon fill="white" stroke="#666666" points="530.25,-834.12 428,-834.12 428,-803.62 530.25,-803.62 530.25,-834.12"/>
<text xml:space="preserve" text-anchor="start" x="436" y="-820.62" font-family="Helvetica,sans-Serif" font-size="10.00">juce::ComSmartPtr::</text>
<text xml:space="preserve" text-anchor="middle" x="479.12" y="-809.38" font-family="Helvetica,sans-Serif" font-size="10.00">QueryInterface</text>
</a>
</g>
</g>
<!-- Node3&#45;&gt;Node41 -->
<g id="edge33_Node000003_Node000041" class="edge">
<title>Node3&#45;&gt;Node41</title>
<g id="a_edge33_Node000003_Node000041"><a xlink:title=" ">
<path fill="none" stroke="#63b8ff" d="M611.45,-476.9C610.86,-477.54 610.3,-478.2 609.75,-478.88 538.65,-566.88 625.91,-630.48 573.75,-730.88 557.71,-761.76 526.45,-787.68 504.48,-803.22"/>
<polygon fill="#63b8ff" stroke="#63b8ff" points="613.55,-479.71 618.84,-470.53 608.98,-474.41 613.55,-479.71"/>
</a>
</g>
</g>
<!-- Node48 -->
<g id="Node000048" class="node">
<title>Node48</title>
<g id="a_Node000048"><a xlink:href="classjuce_1_1WindowsMediaCodec_1_1WMAudioReader.html#a683d8f49c65af7e4efb862abdee05818" target="_top" xlink:title=" ">
<polygon fill="#fff0f0" stroke="red" points="148.75,-724.75 0,-724.75 0,-683 148.75,-683 148.75,-724.75"/>
<text xml:space="preserve" text-anchor="start" x="8" y="-711.25" font-family="Helvetica,sans-Serif" font-size="10.00">juce::WindowsMediaCodec</text>
<text xml:space="preserve" text-anchor="start" x="8" y="-700" font-family="Helvetica,sans-Serif" font-size="10.00">::WMAudioReader::scanFileFor</text>
<text xml:space="preserve" text-anchor="middle" x="74.38" y="-688.75" font-family="Helvetica,sans-Serif" font-size="10.00">Details</text>
</a>
</g>
</g>
<!-- Node3&#45;&gt;Node48 -->
<g id="edge43_Node000003_Node000048" class="edge">
<title>Node3&#45;&gt;Node48</title>
<g id="a_edge43_Node000003_Node000048"><a xlink:title=" ">
<path fill="none" stroke="#63b8ff" d="M613.54,-475.68C612.23,-476.7 610.96,-477.76 609.75,-478.88 581.94,-504.45 604.6,-534.07 573.75,-555.88 502.83,-606.02 263.23,-556.66 184.75,-593.88 142.9,-613.72 107.91,-656.56 89.46,-682.53"/>
<polygon fill="#63b8ff" stroke="#63b8ff" points="615.06,-478.86 621.48,-470.44 611.21,-473.02 615.06,-478.86"/>
</a>
</g>
</g>
<!-- Node51 -->
<g id="Node000051" class="node">
<title>Node51</title>
<g id="a_Node000051"><a xlink:href="classjuce_1_1WindowsMediaCodec_1_1WMAudioReader.html#abfdc92361df5ccf2046bc4e872d93656" target="_top" xlink:title=" ">
<polygon fill="white" stroke="#666666" points="556.5,-188.12 401.75,-188.12 401.75,-157.62 556.5,-157.62 556.5,-188.12"/>
<text xml:space="preserve" text-anchor="start" x="409.75" y="-174.62" font-family="Helvetica,sans-Serif" font-size="10.00">juce::WindowsMediaCodec</text>
<text xml:space="preserve" text-anchor="middle" x="479.12" y="-163.38" font-family="Helvetica,sans-Serif" font-size="10.00">::WMAudioReader::readSamples</text>
</a>
</g>
</g>
<!-- Node3&#45;&gt;Node51 -->
<g id="edge40_Node000003_Node000051" class="edge">
<title>Node3&#45;&gt;Node51</title>
<g id="a_edge40_Node000003_Node000051"><a xlink:title=" ">
<path fill="none" stroke="#63b8ff" d="M611.46,-430.84C610.87,-430.2 610.3,-429.55 609.75,-428.88 543.94,-348.47 643.21,-275.15 573.75,-197.88 568.91,-192.49 563.06,-188.22 556.67,-184.82"/>
<polygon fill="#63b8ff" stroke="#63b8ff" points="609.01,-433.35 618.89,-437.19 613.56,-428.03 609.01,-433.35"/>
</a>
</g>
</g>
<!-- Node52 -->
<g id="Node000052" class="node">
<title>Node52</title>
<g id="a_Node000052"><a xlink:href="structjuce_1_1Direct2DLowLevelGraphicsContext_1_1Pimpl.html#a25988fd2f3f0e0521ec368f1abf4fa45" target="_top" xlink:title=" ">
<polygon fill="white" stroke="#666666" points="573.75,-139.12 384.5,-139.12 384.5,-108.62 573.75,-108.62 573.75,-139.12"/>
<text xml:space="preserve" text-anchor="start" x="392.5" y="-125.62" font-family="Helvetica,sans-Serif" font-size="10.00">juce::Direct2DLowLevelGraphics</text>
<text xml:space="preserve" text-anchor="middle" x="479.12" y="-114.38" font-family="Helvetica,sans-Serif" font-size="10.00">Context::Pimpl::rectListToPathGeometry</text>
</a>
</g>
</g>
<!-- Node3&#45;&gt;Node52 -->
<g id="edge41_Node000003_Node000052" class="edge">
<title>Node3&#45;&gt;Node52</title>
<g id="a_edge41_Node000003_Node000052"><a xlink:title=" ">
<path fill="none" stroke="#63b8ff" d="M611.44,-430.86C610.85,-430.22 610.29,-429.56 609.75,-428.88 531.58,-330.73 656.38,-243.3 573.75,-148.88 570.65,-145.33 567.1,-142.26 563.25,-139.61"/>
<polygon fill="#63b8ff" stroke="#63b8ff" points="608.95,-433.34 618.79,-437.26 613.55,-428.06 608.95,-433.34"/>
</a>
</g>
</g>
<!-- Node44 -->
<g id="Node000044" class="node">
<title>Node44</title>
<g id="a_Node000044"><a xlink:href="classjuce_1_1WasapiClasses_1_1WASAPIAudioIODeviceType.html#a566ff9118ec534129f50884eeea1fc92" target="_top" xlink:title=" ">
<polygon fill="#fff0f0" stroke="red" points="564.75,-90.12 393.5,-90.12 393.5,-59.62 564.75,-59.62 564.75,-90.12"/>
<text xml:space="preserve" text-anchor="start" x="401.5" y="-76.62" font-family="Helvetica,sans-Serif" font-size="10.00">juce::WasapiClasses</text>
<text xml:space="preserve" text-anchor="middle" x="479.12" y="-65.38" font-family="Helvetica,sans-Serif" font-size="10.00">::WASAPIAudioIODeviceType::scan</text>
</a>
</g>
</g>
<!-- Node3&#45;&gt;Node44 -->
<g id="edge42_Node000003_Node000044" class="edge">
<title>Node3&#45;&gt;Node44</title>
<g id="a_edge42_Node000003_Node000044"><a xlink:title=" ">
<path fill="none" stroke="#63b8ff" d="M611.42,-430.88C610.84,-430.23 610.29,-429.56 609.75,-428.88 519.2,-312.95 669.57,-211.48 573.75,-99.88 570.68,-96.3 567.16,-93.21 563.33,-90.54"/>
<polygon fill="#63b8ff" stroke="#63b8ff" points="608.91,-433.33 618.72,-437.32 613.54,-428.08 608.91,-433.33"/>
</a>
</g>
</g>
<!-- Node53 -->
<g id="Node000053" class="node">
<title>Node53</title>
<g id="a_Node000053"><a xlink:href="classjuce_1_1AccessibilityHandler_1_1AccessibilityNativeImpl.html#aa1f862f22a3d0deb2a50fab0d9bdbd2b" target="_top" xlink:title=" ">
<polygon fill="white" stroke="#666666" points="543,-41.75 415.25,-41.75 415.25,0 543,0 543,-41.75"/>
<text xml:space="preserve" text-anchor="start" x="423.25" y="-28.25" font-family="Helvetica,sans-Serif" font-size="10.00">juce::AccessibilityHandler</text>
<text xml:space="preserve" text-anchor="start" x="423.25" y="-17" font-family="Helvetica,sans-Serif" font-size="10.00">::AccessibilityNativeImpl</text>
<text xml:space="preserve" text-anchor="middle" x="479.12" y="-5.75" font-family="Helvetica,sans-Serif" font-size="10.00">::~AccessibilityNativeImpl</text>
</a>
</g>
</g>
<!-- Node3&#45;&gt;Node53 -->
<g id="edge44_Node000003_Node000053" class="edge">
<title>Node3&#45;&gt;Node53</title>
<g id="a_edge44_Node000003_Node000053"><a xlink:title=" ">
<path fill="none" stroke="#63b8ff" d="M611.08,-430.51C610.62,-429.98 610.18,-429.43 609.75,-428.88 506.8,-295.16 679.58,-182.33 573.75,-50.88 565.94,-41.17 554.97,-34.56 543.27,-30.07"/>
<polygon fill="#63b8ff" stroke="#63b8ff" points="608.61,-433 618.37,-437.13 613.32,-427.82 608.61,-433"/>
</a>
</g>
</g>
<!-- Node4&#45;&gt;Node4 -->
<g id="edge4_Node000004_Node000004" class="edge">
<title>Node4&#45;&gt;Node4</title>
<g id="a_edge4_Node000004_Node000004"><a xlink:title=" ">
<path fill="none" stroke="#63b8ff" d="M298.87,-973.83C293.59,-977.6 282.85,-980.12 266.62,-980.12 236.96,-980.12 225.61,-971.68 232.56,-962.61"/>
<polygon fill="#63b8ff" stroke="#63b8ff" points="302.3,-974.54 300.45,-964.1 295.39,-973.41 302.3,-974.54"/>
</a>
</g>
</g>
<!-- Node5&#45;&gt;Node5 -->
<g id="edge6_Node000005_Node000005" class="edge">
<title>Node5&#45;&gt;Node5</title>
<g id="a_edge6_Node000005_Node000005"><a xlink:title=" ">
<path fill="none" stroke="#63b8ff" d="M301.41,-906.23C297.76,-910.46 286.16,-913.5 266.62,-913.5 232.83,-913.5 222.8,-904.4 236.53,-895.79"/>
<polygon fill="#63b8ff" stroke="#63b8ff" points="304.63,-904.86 297.34,-897.17 298.25,-907.72 304.63,-904.86"/>
</a>
</g>
</g>
<!-- Node6 -->
<g id="Node000006" class="node">
<title>Node6</title>
<g id="a_Node000006"><a xlink:href="classjuce_1_1UIASelectionProvider.html#a046ced9f4863974fed6190a03dcb734d" target="_top" xlink:title=" ">
<polygon fill="white" stroke="#666666" points="140.5,-901.12 8.25,-901.12 8.25,-870.62 140.5,-870.62 140.5,-901.12"/>
<text xml:space="preserve" text-anchor="start" x="16.25" y="-887.62" font-family="Helvetica,sans-Serif" font-size="10.00">juce::UIASelectionProvider</text>
<text xml:space="preserve" text-anchor="middle" x="74.38" y="-876.38" font-family="Helvetica,sans-Serif" font-size="10.00">::GetSelection</text>
</a>
</g>
</g>
<!-- Node5&#45;&gt;Node6 -->
<g id="edge7_Node000005_Node000006" class="edge">
<title>Node5&#45;&gt;Node6</title>
<g id="a_edge7_Node000005_Node000006"><a xlink:title=" ">
<path fill="none" stroke="#63b8ff" d="M191.4,-885.88C174.69,-885.88 157.06,-885.88 140.74,-885.88"/>
<polygon fill="#63b8ff" stroke="#63b8ff" points="191.29,-889.38 201.29,-885.88 191.29,-882.38 191.29,-889.38"/>
</a>
</g>
</g>
<!-- Node7&#45;&gt;Node7 -->
<g id="edge9_Node000007_Node000007" class="edge">
<title>Node7&#45;&gt;Node7</title>
<g id="a_edge9_Node000007_Node000007"><a xlink:title=" ">
<path fill="none" stroke="#63b8ff" d="M512.56,-682.83C507.09,-686.6 495.95,-689.12 479.12,-689.12 448.36,-689.12 436.59,-680.68 443.8,-671.61"/>
<polygon fill="#63b8ff" stroke="#63b8ff" points="515.99,-683.55 514.2,-673.1 509.09,-682.38 515.99,-683.55"/>
</a>
</g>
</g>
<!-- Node7&#45;&gt;Node8 -->
<g id="edge10_Node000007_Node000008" class="edge">
<title>Node7&#45;&gt;Node8</title>
<g id="a_edge10_Node000007_Node000008"><a xlink:title=" ">
<path fill="none" stroke="#63b8ff" d="M416.64,-664.05C389.14,-667.71 356.8,-672.01 329.28,-675.67"/>
<polygon fill="#63b8ff" stroke="#63b8ff" points="416.75,-667.57 426.2,-662.78 415.83,-660.63 416.75,-667.57"/>
</a>
</g>
</g>
<!-- Node7&#45;&gt;Node11 -->
<g id="edge11_Node000007_Node000011" class="edge">
<title>Node7&#45;&gt;Node11</title>
<g id="a_edge11_Node000007_Node000011"><a xlink:title=" ">
<path fill="none" stroke="#63b8ff" d="M416.61,-646.52C390.02,-642.48 358.9,-637.75 332,-633.66"/>
<polygon fill="#63b8ff" stroke="#63b8ff" points="415.8,-649.94 426.21,-647.98 416.85,-643.02 415.8,-649.94"/>
</a>
</g>
</g>
<!-- Node12 -->
<g id="Node000012" class="node">
<title>Node12</title>
<g id="a_Node000012"><a xlink:href="namespacejuce.html#af115f6e22974fb0a4b9579c302746a08" target="_top" xlink:title=" ">
<polygon fill="#fff0f0" stroke="red" points="331.25,-742.5 202,-742.5 202,-723.25 331.25,-723.25 331.25,-742.5"/>
<text xml:space="preserve" text-anchor="middle" x="266.62" y="-729" font-family="Helvetica,sans-Serif" font-size="10.00">juce::readWindowsLnkFile</text>
</a>
</g>
</g>
<!-- Node7&#45;&gt;Node12 -->
<g id="edge12_Node000007_Node000012" class="edge">
<title>Node7&#45;&gt;Node12</title>
<g id="a_edge12_Node000007_Node000012"><a xlink:title=" ">
<path fill="none" stroke="#63b8ff" d="M437.37,-676.52C412.23,-688.64 379.06,-703.55 348.5,-713.88 338.52,-717.24 327.66,-720.24 317.23,-722.79"/>
<polygon fill="#63b8ff" stroke="#63b8ff" points="438.81,-679.71 446.26,-672.18 435.74,-673.42 438.81,-679.71"/>
</a>
</g>
</g>
<!-- Node12&#45;&gt;Node12 -->
<g id="edge13_Node000012_Node000012" class="edge">
<title>Node12&#45;&gt;Node12</title>
<g id="a_edge13_Node000012_Node000012"><a xlink:title=" ">
<path fill="none" stroke="#63b8ff" d="M301.41,-753.23C297.76,-757.46 286.16,-760.5 266.62,-760.5 232.83,-760.5 222.8,-751.4 236.53,-742.79"/>
<polygon fill="#63b8ff" stroke="#63b8ff" points="304.63,-751.86 297.34,-744.17 298.25,-754.72 304.63,-751.86"/>
</a>
</g>
</g>
<!-- Node15 -->
<g id="Node000015" class="node">
<title>Node15</title>
<g id="a_Node000015"><a xlink:href="classjuce_1_1WasapiClasses_1_1WASAPIDeviceBase.html#acffd8a56bc47117f16e89ecb3d8019e1" target="_top" xlink:title=" ">
<polygon fill="#fff0f0" stroke="red" points="324.88,-546.75 208.38,-546.75 208.38,-505 324.88,-505 324.88,-546.75"/>
<text xml:space="preserve" text-anchor="start" x="216.38" y="-533.25" font-family="Helvetica,sans-Serif" font-size="10.00">juce::WasapiClasses</text>
<text xml:space="preserve" text-anchor="start" x="216.38" y="-522" font-family="Helvetica,sans-Serif" font-size="10.00">::WASAPIDeviceBase::</text>
<text xml:space="preserve" text-anchor="middle" x="266.62" y="-510.75" font-family="Helvetica,sans-Serif" font-size="10.00">initialiseStandardClient</text>
</a>
</g>
</g>
<!-- Node14&#45;&gt;Node15 -->
<g id="edge15_Node000014_Node000015" class="edge">
<title>Node14&#45;&gt;Node15</title>
<g id="a_edge15_Node000014_Node000015"><a xlink:title=" ">
<path fill="none" stroke="#63b8ff" d="M409.19,-525.88C381.97,-525.88 351.06,-525.88 325.08,-525.88"/>
<polygon fill="#63b8ff" stroke="#63b8ff" points="409.09,-529.38 419.09,-525.88 409.09,-522.38 409.09,-529.38"/>
</a>
</g>
</g>
<!-- Node17 -->
<g id="Node000017" class="node">
<title>Node17</title>
<g id="a_Node000017"><a xlink:href="classjuce_1_1WasapiClasses_1_1WASAPIDeviceBase.html#a494edf88e99ee4e15e9b675d7df1a145" target="_top" xlink:title=" ">
<polygon fill="#fff0f0" stroke="red" points="324.88,-486.75 208.38,-486.75 208.38,-445 324.88,-445 324.88,-486.75"/>
<text xml:space="preserve" text-anchor="start" x="216.38" y="-473.25" font-family="Helvetica,sans-Serif" font-size="10.00">juce::WasapiClasses</text>
<text xml:space="preserve" text-anchor="start" x="216.38" y="-462" font-family="Helvetica,sans-Serif" font-size="10.00">::WASAPIDeviceBase::</text>
<text xml:space="preserve" text-anchor="middle" x="266.62" y="-450.75" font-family="Helvetica,sans-Serif" font-size="10.00">openClient</text>
</a>
</g>
</g>
<!-- Node14&#45;&gt;Node17 -->
<g id="edge16_Node000014_Node000017" class="edge">
<title>Node14&#45;&gt;Node17</title>
<g id="a_edge16_Node000014_Node000017"><a xlink:title=" ">
<path fill="none" stroke="#63b8ff" d="M409.55,-506.33C382.25,-498.55 351.17,-489.69 325.08,-482.25"/>
<polygon fill="#63b8ff" stroke="#63b8ff" points="408.57,-509.69 419.15,-509.06 410.49,-502.96 408.57,-509.69"/>
</a>
</g>
</g>
<!-- Node20 -->
<g id="Node000020" class="node">
<title>Node20</title>
<g id="a_Node000020"><a xlink:href="classjuce_1_1WasapiClasses_1_1WASAPIDeviceBase.html#abc3a8482148124d2722d56a799577297" target="_top" xlink:title=" ">
<polygon fill="#fff0f0" stroke="red" points="324.88,-426.75 208.38,-426.75 208.38,-385 324.88,-385 324.88,-426.75"/>
<text xml:space="preserve" text-anchor="start" x="216.38" y="-413.25" font-family="Helvetica,sans-Serif" font-size="10.00">juce::WasapiClasses</text>
<text xml:space="preserve" text-anchor="start" x="216.38" y="-402" font-family="Helvetica,sans-Serif" font-size="10.00">::WASAPIDeviceBase::</text>
<text xml:space="preserve" text-anchor="middle" x="266.62" y="-390.75" font-family="Helvetica,sans-Serif" font-size="10.00">WASAPIDeviceBase</text>
</a>
</g>
</g>
<!-- Node14&#45;&gt;Node20 -->
<g id="edge17_Node000014_Node000020" class="edge">
<title>Node14&#45;&gt;Node20</title>
<g id="a_edge17_Node000014_Node000020"><a xlink:title=" ">
<path fill="none" stroke="#63b8ff" d="M409.73,-510.44C400.7,-506.6 392,-501.82 384.5,-495.88 360.13,-476.56 372.43,-455.74 348.5,-435.88 341.59,-430.14 333.47,-425.44 325.1,-421.61"/>
<polygon fill="#63b8ff" stroke="#63b8ff" points="408.41,-513.68 419,-513.99 410.91,-507.14 408.41,-513.68"/>
</a>
</g>
</g>
<!-- Node24&#45;&gt;Node24 -->
<g id="edge20_Node000024_Node000024" class="edge">
<title>Node24&#45;&gt;Node24</title>
<g id="a_edge20_Node000024_Node000024"><a xlink:title=" ">
<path fill="none" stroke="#63b8ff" d="M512.56,-480.83C507.09,-484.6 495.95,-487.12 479.12,-487.12 448.36,-487.12 436.59,-478.68 443.8,-469.61"/>
<polygon fill="#63b8ff" stroke="#63b8ff" points="515.99,-481.55 514.2,-471.1 509.09,-480.38 515.99,-481.55"/>
</a>
</g>
</g>
<!-- Node25&#45;&gt;Node25 -->
<g id="edge22_Node000025_Node000025" class="edge">
<title>Node25&#45;&gt;Node25</title>
<g id="a_edge22_Node000025_Node000025"><a xlink:title=" ">
<path fill="none" stroke="#63b8ff" d="M512.56,-413.83C507.09,-417.6 495.95,-420.12 479.12,-420.12 448.36,-420.12 436.59,-411.68 443.8,-402.61"/>
<polygon fill="#63b8ff" stroke="#63b8ff" points="515.99,-414.55 514.2,-404.1 509.09,-413.38 515.99,-414.55"/>
</a>
</g>
</g>
<!-- Node26 -->
<g id="Node000026" class="node">
<title>Node26</title>
<g id="a_Node000026"><a xlink:href="namespacejuce.html#abbb7f87a4694da071a12f91e3be38b64" target="_top" xlink:title=" ">
<polygon fill="#fff0f0" stroke="red" points="348.5,-349.12 184.75,-349.12 184.75,-318.62 348.5,-318.62 348.5,-349.12"/>
<text xml:space="preserve" text-anchor="start" x="192.75" y="-335.62" font-family="Helvetica,sans-Serif" font-size="10.00">juce::sendAccessibilityAutomation</text>
<text xml:space="preserve" text-anchor="middle" x="266.62" y="-324.38" font-family="Helvetica,sans-Serif" font-size="10.00">Event</text>
</a>
</g>
</g>
<!-- Node25&#45;&gt;Node26 -->
<g id="edge23_Node000025_Node000026" class="edge">
<title>Node25&#45;&gt;Node26</title>
<g id="a_edge23_Node000025_Node000026"><a xlink:title=" ">
<path fill="none" stroke="#63b8ff" d="M404.83,-368.42C380.47,-362.29 353.6,-355.52 330.13,-349.61"/>
<polygon fill="#63b8ff" stroke="#63b8ff" points="403.8,-371.77 414.35,-370.82 405.51,-364.98 403.8,-371.77"/>
</a>
</g>
</g>
<!-- Node33 -->
<g id="Node000033" class="node">
<title>Node33</title>
<g id="a_Node000033"><a xlink:href="namespacejuce.html#a70d1970438dd35d1193da3dbe08d2d5b" target="_top" xlink:title=" ">
<polygon fill="#fff0f0" stroke="red" points="341.75,-282.12 191.5,-282.12 191.5,-251.62 341.75,-251.62 341.75,-282.12"/>
<text xml:space="preserve" text-anchor="start" x="199.5" y="-268.62" font-family="Helvetica,sans-Serif" font-size="10.00">juce::sendAccessibilityProperty</text>
<text xml:space="preserve" text-anchor="middle" x="266.62" y="-257.38" font-family="Helvetica,sans-Serif" font-size="10.00">ChangedEvent</text>
</a>
</g>
</g>
<!-- Node25&#45;&gt;Node33 -->
<g id="edge25_Node000025_Node000033" class="edge">
<title>Node25&#45;&gt;Node33</title>
<g id="a_edge25_Node000025_Node000033"><a xlink:title=" ">
<path fill="none" stroke="#63b8ff" d="M395.98,-368.75C391.97,-366.7 388.11,-364.42 384.5,-361.88 361.51,-345.7 369.5,-328.56 348.5,-309.88 336.02,-298.78 320.18,-289.55 305.82,-282.53"/>
<polygon fill="#63b8ff" stroke="#63b8ff" points="394.29,-371.83 404.84,-372.76 397.17,-365.45 394.29,-371.83"/>
</a>
</g>
</g>
<!-- Node26&#45;&gt;Node26 -->
<g id="edge24_Node000026_Node000026" class="edge">
<title>Node26&#45;&gt;Node26</title>
<g id="a_edge24_Node000026_Node000026"><a xlink:title=" ">
<path fill="none" stroke="#63b8ff" d="M298.87,-360.83C293.59,-364.6 282.85,-367.12 266.62,-367.12 236.96,-367.12 225.61,-358.68 232.56,-349.61"/>
<polygon fill="#63b8ff" stroke="#63b8ff" points="302.3,-361.54 300.45,-351.1 295.39,-360.41 302.3,-361.54"/>
</a>
</g>
</g>
<!-- Node33&#45;&gt;Node33 -->
<g id="edge26_Node000033_Node000033" class="edge">
<title>Node33&#45;&gt;Node33</title>
<g id="a_edge26_Node000033_Node000033"><a xlink:title=" ">
<path fill="none" stroke="#63b8ff" d="M298.87,-293.83C293.59,-297.6 282.85,-300.12 266.62,-300.12 236.96,-300.12 225.61,-291.68 232.56,-282.61"/>
<polygon fill="#63b8ff" stroke="#63b8ff" points="302.3,-294.54 300.45,-284.1 295.39,-293.41 302.3,-294.54"/>
</a>
</g>
</g>
<!-- Node38&#45;&gt;Node38 -->
<g id="edge29_Node000038_Node000038" class="edge">
<title>Node38&#45;&gt;Node38</title>
<g id="a_edge29_Node000038_Node000038"><a xlink:title=" ">
<path fill="none" stroke="#63b8ff" d="M512.56,-297.83C507.09,-301.6 495.95,-304.12 479.12,-304.12 448.36,-304.12 436.59,-295.68 443.8,-286.61"/>
<polygon fill="#63b8ff" stroke="#63b8ff" points="515.99,-298.55 514.2,-288.1 509.09,-297.38 515.99,-298.55"/>
</a>
</g>
</g>
<!-- Node39 -->
<g id="Node000039" class="node">
<title>Node39</title>
<g id="a_Node000039"><a xlink:href="classjuce_1_1HWNDComponentPeer.html#a8c9cebf76fede76fe2b1b9c6600b2f97" target="_top" xlink:title=" ">
<polygon fill="white" stroke="#666666" points="336.12,-233.12 197.12,-233.12 197.12,-202.62 336.12,-202.62 336.12,-233.12"/>
<text xml:space="preserve" text-anchor="start" x="205.12" y="-219.62" font-family="Helvetica,sans-Serif" font-size="10.00">juce::HWNDComponentPeer</text>
<text xml:space="preserve" text-anchor="middle" x="266.62" y="-208.38" font-family="Helvetica,sans-Serif" font-size="10.00">::peerWindowProc</text>
</a>
</g>
</g>
<!-- Node38&#45;&gt;Node39 -->
<g id="edge30_Node000038_Node000039" class="edge">
<title>Node38&#45;&gt;Node39</title>
<g id="a_edge30_Node000038_Node000039"><a xlink:title=" ">
<path fill="none" stroke="#63b8ff" d="M404.83,-252.42C380.47,-246.29 353.6,-239.52 330.13,-233.61"/>
<polygon fill="#63b8ff" stroke="#63b8ff" points="403.8,-255.77 414.35,-254.82 405.51,-248.98 403.8,-255.77"/>
</a>
</g>
</g>
<!-- Node41&#45;&gt;Node4 -->
<g id="edge34_Node000041_Node000004" class="edge">
<title>Node41&#45;&gt;Node4</title>
<g id="a_edge34_Node000041_Node000004"><a xlink:title=" ">
<path fill="none" stroke="#63b8ff" d="M454.83,-842.3C430.32,-865.74 389.66,-901.33 348.5,-922.88 339.29,-927.7 328.96,-931.69 318.85,-934.95"/>
<polygon fill="#63b8ff" stroke="#63b8ff" points="456.98,-845.09 461.71,-835.62 452.1,-840.07 456.98,-845.09"/>
</a>
</g>
</g>
<!-- Node41&#45;&gt;Node5 -->
<g id="edge35_Node000041_Node000005" class="edge">
<title>Node41&#45;&gt;Node5</title>
<g id="a_edge35_Node000041_Node000005"><a xlink:title=" ">
<path fill="none" stroke="#63b8ff" d="M429.06,-838.68C405.02,-847.96 375.5,-858.74 348.5,-866.88 337.73,-870.12 326.01,-873.15 314.93,-875.8"/>
<polygon fill="#63b8ff" stroke="#63b8ff" points="430.24,-841.97 438.29,-835.08 427.7,-835.45 430.24,-841.97"/>
</a>
</g>
</g>
<!-- Node41&#45;&gt;Node12 -->
<g id="edge39_Node000041_Node000012" class="edge">
<title>Node41&#45;&gt;Node12</title>
<g id="a_edge39_Node000041_Node000012"><a xlink:title=" ">
<path fill="none" stroke="#63b8ff" d="M429.51,-799.01C386.62,-781.49 325.86,-756.67 292.3,-742.96"/>
<polygon fill="#63b8ff" stroke="#63b8ff" points="428.02,-802.19 438.6,-802.73 430.67,-795.71 428.02,-802.19"/>
</a>
</g>
</g>
<!-- Node42 -->
<g id="Node000042" class="node">
<title>Node42</title>
<g id="a_Node000042"><a xlink:href="classjuce_1_1ComSmartPtr.html#aed2bd61e0cfe324049396a0e3c0582eb" target="_top" xlink:title=" ">
<polygon fill="#fff0f0" stroke="red" points="317.75,-858.12 215.5,-858.12 215.5,-827.62 317.75,-827.62 317.75,-858.12"/>
<text xml:space="preserve" text-anchor="start" x="223.5" y="-844.62" font-family="Helvetica,sans-Serif" font-size="10.00">juce::ComSmartPtr::</text>
<text xml:space="preserve" text-anchor="middle" x="266.62" y="-833.38" font-family="Helvetica,sans-Serif" font-size="10.00">getInterface</text>
</a>
</g>
</g>
<!-- Node41&#45;&gt;Node42 -->
<g id="edge36_Node000041_Node000042" class="edge">
<title>Node41&#45;&gt;Node42</title>
<g id="a_edge36_Node000041_Node000042"><a xlink:title=" ">
<path fill="none" stroke="#63b8ff" d="M416.47,-825.9C385.15,-829.48 347.56,-833.76 318,-837.13"/>
<polygon fill="#63b8ff" stroke="#63b8ff" points="416.66,-829.41 426.2,-824.8 415.87,-822.45 416.66,-829.41"/>
</a>
</g>
</g>
<!-- Node50 -->
<g id="Node000050" class="node">
<title>Node50</title>
<g id="a_Node000050"><a xlink:href="classjuce_1_1ComSmartPtr.html#a77a9359106a73f70ae5997bf06491aa7" target="_top" xlink:title=" ">
<polygon fill="white" stroke="#666666" points="317.75,-809.12 215.5,-809.12 215.5,-778.62 317.75,-778.62 317.75,-809.12"/>
<text xml:space="preserve" text-anchor="start" x="223.5" y="-795.62" font-family="Helvetica,sans-Serif" font-size="10.00">juce::ComSmartPtr::</text>
<text xml:space="preserve" text-anchor="middle" x="266.62" y="-784.38" font-family="Helvetica,sans-Serif" font-size="10.00">QueryInterface</text>
</a>
</g>
</g>
<!-- Node41&#45;&gt;Node50 -->
<g id="edge38_Node000041_Node000050" class="edge">
<title>Node41&#45;&gt;Node50</title>
<g id="a_edge38_Node000041_Node000050"><a xlink:title=" ">
<path fill="none" stroke="#63b8ff" d="M416.47,-811.55C385.15,-807.83 347.56,-803.37 318,-799.86"/>
<polygon fill="#63b8ff" stroke="#63b8ff" points="415.86,-815 426.2,-812.71 416.68,-808.05 415.86,-815"/>
</a>
</g>
</g>
<!-- Node42&#45;&gt;Node48 -->
<g id="edge37_Node000042_Node000048" class="edge">
<title>Node42&#45;&gt;Node48</title>
<g id="a_edge37_Node000042_Node000048"><a xlink:title=" ">
<path fill="none" stroke="#63b8ff" d="M204.83,-827.81C197.82,-825 190.97,-821.71 184.75,-817.88 144.84,-793.24 109.44,-750.65 90.34,-725.09"/>
<polygon fill="#63b8ff" stroke="#63b8ff" points="203.13,-830.92 213.73,-831.07 205.54,-824.35 203.13,-830.92"/>
</a>
</g>
</g>
</g>
</svg>

<g id="navigator" transform="translate(0 0)" fill="#404254">
  <rect fill="#f2f5e9" fill-opacity="0.5" stroke="#606060" stroke-width=".5" x="0" y="0" width="60" height="60"/>
  <use id="zoomplus" xlink:href="#zoomPlus" x="17" y="9" onmousedown="handleZoom(evt,'in')"/>
  <use id="zoomminus" xlink:href="#zoomMin" x="42" y="9" onmousedown="handleZoom(evt,'out')"/>
  <use id="reset" xlink:href="#resetDef" x="30" y="36" onmousedown="handleReset()"/>
   <use id="arrowup" xlink:href="#arrowUp" x="0" y="0" onmousedown="handlePan(0,-1)"/>
  <use id="arrowright" xlink:href="#arrowRight" x="0" y="0" onmousedown="handlePan(1,0)"/>
  <use id="arrowdown" xlink:href="#arrowDown" x="0" y="0" onmousedown="handlePan(0,1)"/>
  <use id="arrowleft" xlink:href="#arrowLeft" x="0" y="0" onmousedown="handlePan(-1,0)"/>
</g>
<svg viewBox="0 0 15 15" width="100%" height="30px" preserveAspectRatio="xMaxYMin meet">
 <g id="arrow_out" transform="scale(0.3 0.3)">
  <a xlink:href="classjuce_1_1ComSmartPtr_a8dc49d1f7e7bcae973daf99811739272_icgraph_org.svg" target="_base">
   <rect id="button" ry="5" rx="5" y="6" x="6" height="38" width="38"
        fill="#f2f5e9" fill-opacity="0.5" stroke="#606060" stroke-width="1.0"/>
   <path id="arrow"
     d="M 11.500037,31.436501 C 11.940474,20.09759 22.043105,11.32322 32.158766,21.979434 L 37.068811,17.246167 C 37.068811,17.246167 37.088388,32 37.088388,32 L 22.160133,31.978069 C 22.160133,31.978069 26.997745,27.140456 26.997745,27.140456 C 18.528582,18.264221 13.291696,25.230495 11.500037,31.436501 z"
     style="fill:#404040;"/>
  </a>
 </g>
</svg>

<style type='text/css'>
<![CDATA[
[data-mouse-over-selected='false'] { opacity: 0.7; }
[data-mouse-over-selected='true']  { opacity: 1.0; }
]]>
</style>
<script type="application/ecmascript"><![CDATA[
document.addEventListener('DOMContentLoaded', (event) => {
  highlightEdges();
  highlightAdjacentNodes();
});
]]></script>
</svg>
