<?xml version="1.0" encoding="UTF-8" standalone="no"?>
<!DOCTYPE svg PUBLIC "-//W3C//DTD SVG 1.1//EN"
 "http://www.w3.org/Graphics/SVG/1.1/DTD/svg11.dtd">
<!-- Generated by graphviz version 14.0.2 (0)
 -->
<!-- Title: lmms::VecControls::VecControls Pages: 1 -->
<!--zoomable 112 -->

<svg id="main" version="1.1" xmlns="http://www.w3.org/2000/svg" xmlns:xlink="http://www.w3.org/1999/xlink" xml:space="preserve" onload="init(evt)">

<style type="text/css"><![CDATA[
.node, .edge {opacity: 0.7;}
.node.selected, .edge.selected {opacity: 1;}
.edge:hover path { stroke: red; }
.edge:hover polygon { stroke: red; fill: red; }
]]></style>

<defs>
  <circle id="rim" cx="0" cy="0" r="7"/>
  <circle id="rim2" cx="0" cy="0" r="3.5"/>
  <g id="zoomPlus">
    <use xlink:href="#rim" fill="#404040"><set attributeName="fill" to="#808080" begin="zoomplus.mouseover" end="zoomplus.mouseout"/></use>
    <path d="M-4,0h8M0,-4v8" fill="none" stroke="white" stroke-width="1.5" pointer-events="none"/>
  </g>
  <g id="zoomMin">
    <use xlink:href="#rim" fill="#404040"><set attributeName="fill" to="#808080" begin="zoomminus.mouseover" end="zoomminus.mouseout"/></use>
    <path d="M-4,0h8" fill="none" stroke="white" stroke-width="1.5" pointer-events="none"/>
  </g>
  <g id="arrowUp" transform="translate(30 24)">
    <use xlink:href="#rim"/>
    <path pointer-events="none" fill="none" stroke="white" stroke-width="1.5" d="M0,-3.0v7 M-2.5,-0.5L0,-3.0L2.5,-0.5"/>
  </g>
  <g id="arrowRight" transform="rotate(90) translate(36 -43)">
    <use xlink:href="#rim"/>
    <path pointer-events="none" fill="none" stroke="white" stroke-width="1.5" d="M0,-3.0v7 M-2.5,-0.5L0,-3.0L2.5,-0.5"/>
  </g>
  <g id="arrowDown" transform="rotate(180) translate(-30 -48)">
    <use xlink:href="#rim"/>
    <path pointer-events="none" fill="none" stroke="white" stroke-width="1.5" d="M0,-3.0v7 M-2.5,-0.5L0,-3.0L2.5,-0.5"/>
  </g>
  <g id="arrowLeft" transform="rotate(270) translate(-36 17)">
    <use xlink:href="#rim"/>
    <path pointer-events="none" fill="none" stroke="white" stroke-width="1.5" d="M0,-3.0v7 M-2.5,-0.5L0,-3.0L2.5,-0.5"/>
  </g>
  <g id="resetDef">
    <use xlink:href="#rim2" fill="#404040"><set attributeName="fill" to="#808080" begin="reset.mouseover" end="reset.mouseout"/></use>
  </g>
</defs>
<script type="application/ecmascript">
var viewWidth = 575;
var viewHeight = 112;
var sectionId = 'dynsection-2';
</script>
<script type="application/ecmascript" xlink:href="svg.min.js"/>
<svg id="graph" class="graph">
<g id="viewport">
<title>lmms::VecControls::VecControls</title>
<!-- Node1 -->
<g id="Node000001" class="node">
<title>Node1</title>
<g id="a_Node000001"><a xlink:title=" ">
<polygon fill="#999999" stroke="#666666" points="102.25,-78.88 0,-78.88 0,-48.38 102.25,-48.38 102.25,-78.88"/>
<text xml:space="preserve" text-anchor="start" x="8" y="-65.38" font-family="Helvetica,sans-Serif" font-size="10.00">lmms::VecControls::</text>
<text xml:space="preserve" text-anchor="middle" x="51.12" y="-54.12" font-family="Helvetica,sans-Serif" font-size="10.00">VecControls</text>
</a>
</g>
</g>
<!-- Node2 -->
<g id="Node000002" class="node">
<title>Node2</title>
<g id="a_Node000002"><a xlink:href="classlmms_1_1EffectControls.html#a3a1b5b714bb3e10909a1061f30f2b6fc" target="_top" xlink:title=" ">
<polygon fill="white" stroke="#666666" points="243.5,-103.88 138.25,-103.88 138.25,-73.38 243.5,-73.38 243.5,-103.88"/>
<text xml:space="preserve" text-anchor="start" x="146.25" y="-90.38" font-family="Helvetica,sans-Serif" font-size="10.00">lmms::EffectControls</text>
<text xml:space="preserve" text-anchor="middle" x="190.88" y="-79.12" font-family="Helvetica,sans-Serif" font-size="10.00">::effect</text>
</a>
</g>
</g>
<!-- Node1&#45;&gt;Node2 -->
<g id="edge1_Node000001_Node000002" class="edge">
<title>Node1&#45;&gt;Node2</title>
<g id="a_edge1_Node000001_Node000002"><a xlink:title=" ">
<path fill="none" stroke="#63b8ff" d="M102.64,-72.79C110.46,-74.21 118.63,-75.7 126.7,-77.16"/>
<polygon fill="#63b8ff" stroke="#63b8ff" points="126.03,-80.6 136.5,-78.94 127.28,-73.71 126.03,-80.6"/>
</a>
</g>
</g>
<!-- Node3 -->
<g id="Node000003" class="node">
<title>Node3</title>
<g id="a_Node000003"><a xlink:href="classlmms_1_1EffectControls.html#abb7d11234acf6867799073241f9834bc" target="_top" xlink:title=" ">
<polygon fill="white" stroke="#666666" points="243.5,-54.88 138.25,-54.88 138.25,-24.38 243.5,-24.38 243.5,-54.88"/>
<text xml:space="preserve" text-anchor="start" x="146.25" y="-41.38" font-family="Helvetica,sans-Serif" font-size="10.00">lmms::EffectControls</text>
<text xml:space="preserve" text-anchor="middle" x="190.88" y="-30.12" font-family="Helvetica,sans-Serif" font-size="10.00">::EffectControls</text>
</a>
</g>
</g>
<!-- Node1&#45;&gt;Node3 -->
<g id="edge2_Node000001_Node000003" class="edge">
<title>Node1&#45;&gt;Node3</title>
<g id="a_edge2_Node000001_Node000003"><a xlink:title=" ">
<path fill="none" stroke="#63b8ff" d="M102.64,-54.82C110.46,-53.46 118.63,-52.04 126.7,-50.63"/>
<polygon fill="#63b8ff" stroke="#63b8ff" points="127.24,-54.09 136.49,-48.93 126.04,-47.19 127.24,-54.09"/>
</a>
</g>
</g>
<!-- Node4 -->
<g id="Node000004" class="node">
<title>Node4</title>
<g id="a_Node000004"><a xlink:href="classlmms_1_1JournallingObject.html#a851a380f109424ab92ff103ead6cc8fe" target="_top" xlink:title=" ">
<polygon fill="white" stroke="#666666" points="399,-85.88 279.5,-85.88 279.5,-55.38 399,-55.38 399,-85.88"/>
<text xml:space="preserve" text-anchor="start" x="287.5" y="-72.38" font-family="Helvetica,sans-Serif" font-size="10.00">lmms::JournallingObject</text>
<text xml:space="preserve" text-anchor="middle" x="339.25" y="-61.12" font-family="Helvetica,sans-Serif" font-size="10.00">::JournallingObject</text>
</a>
</g>
</g>
<!-- Node3&#45;&gt;Node4 -->
<g id="edge3_Node000003_Node000004" class="edge">
<title>Node3&#45;&gt;Node4</title>
<g id="a_edge3_Node000003_Node000004"><a xlink:title=" ">
<path fill="none" stroke="#63b8ff" d="M243.89,-50.64C251.75,-52.3 259.95,-54.04 268.11,-55.77"/>
<polygon fill="#63b8ff" stroke="#63b8ff" points="267.18,-59.15 277.69,-57.8 268.63,-52.3 267.18,-59.15"/>
</a>
</g>
</g>
<!-- Node6 -->
<g id="Node000006" class="node">
<title>Node6</title>
<g id="a_Node000006"><a xlink:href="classlmms_1_1Model.html#a91562bd45ea0e4d557f4f3139021482c" target="_top" xlink:title=" ">
<polygon fill="white" stroke="#666666" points="390,-19.25 288.5,-19.25 288.5,0 390,0 390,-19.25"/>
<text xml:space="preserve" text-anchor="middle" x="339.25" y="-5.75" font-family="Helvetica,sans-Serif" font-size="10.00">lmms::Model::Model</text>
</a>
</g>
</g>
<!-- Node3&#45;&gt;Node6 -->
<g id="edge5_Node000003_Node000006" class="edge">
<title>Node3&#45;&gt;Node6</title>
<g id="a_edge5_Node000003_Node000006"><a xlink:title=" ">
<path fill="none" stroke="#63b8ff" d="M243.89,-28.96C254.86,-26.72 266.53,-24.32 277.78,-22.02"/>
<polygon fill="#63b8ff" stroke="#63b8ff" points="278.27,-25.49 287.37,-20.05 276.87,-18.63 278.27,-25.49"/>
</a>
</g>
</g>
<!-- Node5 -->
<g id="Node000005" class="node">
<title>Node5</title>
<g id="a_Node000005"><a xlink:href="classlmms_1_1SerializingObject.html#ad7b2e464b4c71111ce2d11da0578ff67" target="_top" xlink:title=" ">
<polygon fill="white" stroke="#666666" points="559.38,-85.88 442.12,-85.88 442.12,-55.38 559.38,-55.38 559.38,-85.88"/>
<text xml:space="preserve" text-anchor="start" x="450.12" y="-72.38" font-family="Helvetica,sans-Serif" font-size="10.00">lmms::SerializingObject</text>
<text xml:space="preserve" text-anchor="middle" x="500.75" y="-61.12" font-family="Helvetica,sans-Serif" font-size="10.00">::SerializingObject</text>
</a>
</g>
</g>
<!-- Node4&#45;&gt;Node5 -->
<g id="edge4_Node000004_Node000005" class="edge">
<title>Node4&#45;&gt;Node5</title>
<g id="a_edge4_Node000004_Node000005"><a xlink:title=" ">
<path fill="none" stroke="#63b8ff" d="M399.19,-70.62C409.42,-70.62 420.14,-70.62 430.62,-70.62"/>
<polygon fill="#63b8ff" stroke="#63b8ff" points="430.34,-74.13 440.34,-70.63 430.34,-67.13 430.34,-74.13"/>
</a>
</g>
</g>
<!-- Node6&#45;&gt;Node6 -->
<g id="edge7_Node000006_Node000006" class="edge">
<title>Node6&#45;&gt;Node6</title>
<g id="a_edge7_Node000006_Node000006"><a xlink:title=" ">
<path fill="none" stroke="#63b8ff" d="M316.02,-19.54C305.43,-28.15 313.17,-37.25 339.25,-37.25 353.92,-37.25 362.79,-34.37 365.86,-30.32"/>
<polygon fill="#63b8ff" stroke="#63b8ff" points="369.26,-29.48 362.93,-20.98 362.58,-31.57 369.26,-29.48"/>
</a>
</g>
</g>
<!-- Node7 -->
<g id="Node000007" class="node">
<title>Node7</title>
<g id="a_Node000007"><a xlink:href="classlmms_1_1Model.html#a75b9a85f3cebbb54c6f8b6552881919d" target="_top" xlink:title=" ">
<polygon fill="white" stroke="#666666" points="566.5,-19.25 435,-19.25 435,0 566.5,0 566.5,-19.25"/>
<text xml:space="preserve" text-anchor="middle" x="500.75" y="-5.75" font-family="Helvetica,sans-Serif" font-size="10.00">lmms::Model::displayName</text>
</a>
</g>
</g>
<!-- Node6&#45;&gt;Node7 -->
<g id="edge6_Node000006_Node000007" class="edge">
<title>Node6&#45;&gt;Node7</title>
<g id="a_edge6_Node000006_Node000007"><a xlink:title=" ">
<path fill="none" stroke="#63b8ff" d="M390.28,-9.62C400.83,-9.62 412.19,-9.62 423.46,-9.62"/>
<polygon fill="#63b8ff" stroke="#63b8ff" points="423.16,-13.13 433.16,-9.63 423.15,-6.13 423.16,-13.13"/>
</a>
</g>
</g>
</g>
</svg>

<g id="navigator" transform="translate(0 0)" fill="#404254">
  <rect fill="#f2f5e9" fill-opacity="0.5" stroke="#606060" stroke-width=".5" x="0" y="0" width="60" height="60"/>
  <use id="zoomplus" xlink:href="#zoomPlus" x="17" y="9" onmousedown="handleZoom(evt,'in')"/>
  <use id="zoomminus" xlink:href="#zoomMin" x="42" y="9" onmousedown="handleZoom(evt,'out')"/>
  <use id="reset" xlink:href="#resetDef" x="30" y="36" onmousedown="handleReset()"/>
   <use id="arrowup" xlink:href="#arrowUp" x="0" y="0" onmousedown="handlePan(0,-1)"/>
  <use id="arrowright" xlink:href="#arrowRight" x="0" y="0" onmousedown="handlePan(1,0)"/>
  <use id="arrowdown" xlink:href="#arrowDown" x="0" y="0" onmousedown="handlePan(0,1)"/>
  <use id="arrowleft" xlink:href="#arrowLeft" x="0" y="0" onmousedown="handlePan(-1,0)"/>
</g>
<svg viewBox="0 0 15 15" width="100%" height="30px" preserveAspectRatio="xMaxYMin meet">
 <g id="arrow_out" transform="scale(0.3 0.3)">
  <a xlink:href="classlmms_1_1VecControls_aac93a50a3f601a73db022a3a3013671d_cgraph_org.svg" target="_base">
   <rect id="button" ry="5" rx="5" y="6" x="6" height="38" width="38"
        fill="#f2f5e9" fill-opacity="0.5" stroke="#606060" stroke-width="1.0"/>
   <path id="arrow"
     d="M 11.500037,31.436501 C 11.940474,20.09759 22.043105,11.32322 32.158766,21.979434 L 37.068811,17.246167 C 37.068811,17.246167 37.088388,32 37.088388,32 L 22.160133,31.978069 C 22.160133,31.978069 26.997745,27.140456 26.997745,27.140456 C 18.528582,18.264221 13.291696,25.230495 11.500037,31.436501 z"
     style="fill:#404040;"/>
  </a>
 </g>
</svg>

<style type='text/css'>
<![CDATA[
[data-mouse-over-selected='false'] { opacity: 0.7; }
[data-mouse-over-selected='true']  { opacity: 1.0; }
]]>
</style>
<script type="application/ecmascript"><![CDATA[
document.addEventListener('DOMContentLoaded', (event) => {
  highlightEdges();
  highlightAdjacentNodes();
});
]]></script>
</svg>
