<?xml version="1.0" encoding="UTF-8" standalone="no"?>
<!DOCTYPE svg PUBLIC "-//W3C//DTD SVG 1.1//EN"
 "http://www.w3.org/Graphics/SVG/1.1/DTD/svg11.dtd">
<!-- Generated by graphviz version 14.0.2 (0)
 -->
<!-- Title: AdlibDriver::update_setupPrimaryEffect1 Pages: 1 -->
<svg width="427pt" height="82pt"
 viewBox="0.00 0.00 427.00 82.00" xmlns="http://www.w3.org/2000/svg" xmlns:xlink="http://www.w3.org/1999/xlink">

<svg id="main" version="1.1" xmlns="http://www.w3.org/2000/svg" xmlns:xlink="http://www.w3.org/1999/xlink" xml:space="preserve">

<style type="text/css"><![CDATA[
.node, .edge {opacity: 0.7;}
.node.selected, .edge.selected {opacity: 1;}
.edge:hover path { stroke: red; }
.edge:hover polygon { stroke: red; fill: red; }
]]></style>
<script type="application/ecmascript" xlink:href="svg.min.js"/>
<svg id="graph" class="graph">
<g id="graph0" class="graph" transform="scale(1 1) rotate(0) translate(4 78.25)">
<title>AdlibDriver::update_setupPrimaryEffect1</title>
<!-- Node1 -->
<g id="Node000001" class="node">
<title>Node1</title>
<g id="a_Node000001"><a xlink:title=" ">
<polygon fill="#999999" stroke="#666666" points="108.25,-42.88 0,-42.88 0,-12.37 108.25,-12.37 108.25,-42.88"/>
<text xml:space="preserve" text-anchor="start" x="8" y="-29.38" font-family="Helvetica,sans-Serif" font-size="10.00">AdlibDriver::update</text>
<text xml:space="preserve" text-anchor="middle" x="54.12" y="-18.12" font-family="Helvetica,sans-Serif" font-size="10.00">_setupPrimaryEffect1</text>
</a>
</g>
</g>
<!-- Node2 -->
<g id="Node000002" class="node">
<title>Node2</title>
<g id="a_Node000002"><a xlink:href="classAdlibDriver.html#ad9bfde1c2733dad4907ed5152388aa83" target="_top" xlink:title=" ">
<polygon fill="white" stroke="#666666" points="273.5,-56.25 144.25,-56.25 144.25,-37 273.5,-37 273.5,-56.25"/>
<text xml:space="preserve" text-anchor="middle" x="208.88" y="-42.75" font-family="Helvetica,sans-Serif" font-size="10.00">AdlibDriver::primaryEffect1</text>
</a>
</g>
</g>
<!-- Node1&#45;&gt;Node2 -->
<g id="edge1_Node000001_Node000002" class="edge">
<title>Node1&#45;&gt;Node2</title>
<g id="a_edge1_Node000001_Node000002"><a xlink:title=" ">
<path fill="none" stroke="#63b8ff" d="M108.55,-34.27C116.33,-35.24 124.45,-36.25 132.57,-37.26"/>
<polygon fill="#63b8ff" stroke="#63b8ff" points="132.13,-40.73 142.48,-38.49 132.99,-33.78 132.13,-40.73"/>
</a>
</g>
</g>
<!-- Node5 -->
<g id="Node000005" class="node">
<title>Node5</title>
<g id="a_Node000005"><a xlink:href="adl_8cpp.html#aaa590245ce457d382a1cf1ff0aa18b4a" target="_top" xlink:title=" ">
<polygon fill="white" stroke="#666666" points="258.88,-19.25 158.88,-19.25 158.88,0 258.88,0 258.88,-19.25"/>
<text xml:space="preserve" text-anchor="middle" x="208.88" y="-5.75" font-family="Helvetica,sans-Serif" font-size="10.00">READ_BE_UINT16</text>
</a>
</g>
</g>
<!-- Node1&#45;&gt;Node5 -->
<g id="edge4_Node000001_Node000005" class="edge">
<title>Node1&#45;&gt;Node5</title>
<g id="a_edge4_Node000001_Node000005"><a xlink:title=" ">
<path fill="none" stroke="#63b8ff" d="M108.55,-21.33C121.13,-19.85 134.62,-18.26 147.48,-16.74"/>
<polygon fill="#63b8ff" stroke="#63b8ff" points="147.55,-20.26 157.07,-15.61 146.73,-13.31 147.55,-20.26"/>
</a>
</g>
</g>
<!-- Node3 -->
<g id="Node000003" class="node">
<title>Node3</title>
<g id="a_Node000003"><a xlink:href="adl_8cpp.html#ad23cda966c4a2fee3e06ed65250131cf" target="_top" xlink:title=" ">
<polygon fill="white" stroke="#666666" points="388.5,-74.25 339.5,-74.25 339.5,-55 388.5,-55 388.5,-74.25"/>
<text xml:space="preserve" text-anchor="middle" x="364" y="-60.75" font-family="Helvetica,sans-Serif" font-size="10.00">debugC</text>
</a>
</g>
</g>
<!-- Node2&#45;&gt;Node3 -->
<g id="edge2_Node000002_Node000003" class="edge">
<title>Node2&#45;&gt;Node3</title>
<g id="a_edge2_Node000002_Node000003"><a xlink:title=" ">
<path fill="none" stroke="#63b8ff" d="M273.93,-54.15C292.52,-56.34 312.13,-58.65 328.2,-60.53"/>
<polygon fill="#63b8ff" stroke="#63b8ff" points="327.37,-63.96 337.71,-61.65 328.19,-57.01 327.37,-63.96"/>
</a>
</g>
</g>
<!-- Node4 -->
<g id="Node000004" class="node">
<title>Node4</title>
<g id="a_Node000004"><a xlink:href="classAdlibDriver.html#a65d8c9bbfcc54bb8d558d2987c4881a4" target="_top" xlink:title=" ">
<polygon fill="white" stroke="#666666" points="418.5,-37.25 309.5,-37.25 309.5,-18 418.5,-18 418.5,-37.25"/>
<text xml:space="preserve" text-anchor="middle" x="364" y="-23.75" font-family="Helvetica,sans-Serif" font-size="10.00">AdlibDriver::writeOPL</text>
</a>
</g>
</g>
<!-- Node2&#45;&gt;Node4 -->
<g id="edge3_Node000002_Node000004" class="edge">
<title>Node2&#45;&gt;Node4</title>
<g id="a_edge3_Node000002_Node000004"><a xlink:title=" ">
<path fill="none" stroke="#63b8ff" d="M273.93,-38.68C281.95,-37.68 290.16,-36.66 298.19,-35.67"/>
<polygon fill="#63b8ff" stroke="#63b8ff" points="298.4,-39.17 307.89,-34.46 297.53,-32.22 298.4,-39.17"/>
</a>
</g>
</g>
</g>
</svg>
</svg>

<style type='text/css'>
<![CDATA[
[data-mouse-over-selected='false'] { opacity: 0.7; }
[data-mouse-over-selected='true']  { opacity: 1.0; }
]]>
</style>
<script type="application/ecmascript"><![CDATA[
document.addEventListener('DOMContentLoaded', (event) => {
  highlightEdges();
  highlightAdjacentNodes();
});
]]></script>
</svg>
