<?xml version="1.0" encoding="UTF-8" standalone="no"?>
<!DOCTYPE svg PUBLIC "-//W3C//DTD SVG 1.1//EN"
 "http://www.w3.org/Graphics/SVG/1.1/DTD/svg11.dtd">
<!-- Generated by graphviz version 14.0.2 (0)
 -->
<!-- Title: juce::Button::keyPressed Pages: 1 -->
<svg width="644pt" height="143pt"
 viewBox="0.00 0.00 644.00 143.00" xmlns="http://www.w3.org/2000/svg" xmlns:xlink="http://www.w3.org/1999/xlink">
<g id="graph0" class="graph" transform="scale(1 1) rotate(0) translate(4 138.88)">
<title>juce::Button::keyPressed</title>
<!-- Node1 -->
<g id="Node000001" class="node">
<title>Node1</title>
<g id="a_Node000001"><a xlink:title=" ">
<polygon fill="#999999" stroke="#666666" points="122.5,-79.88 0,-79.88 0,-60.62 122.5,-60.62 122.5,-79.88"/>
<text xml:space="preserve" text-anchor="middle" x="61.25" y="-66.38" font-family="Helvetica,sans-Serif" font-size="10.00">juce::Button::keyPressed</text>
</a>
</g>
</g>
<!-- Node1&#45;&gt;Node1 -->
<g id="edge4_Node000001_Node000001" class="edge">
<title>Node1&#45;&gt;Node1</title>
<g id="a_edge4_Node000001_Node000001"><a xlink:title=" ">
<path fill="none" stroke="#63b8ff" d="M35.5,-80.16C23.75,-88.77 32.33,-97.88 61.25,-97.88 77.52,-97.88 87.35,-94.99 90.75,-90.94"/>
<polygon fill="#63b8ff" stroke="#63b8ff" points="94.09,-89.89 87.5,-81.59 87.47,-92.19 94.09,-89.89"/>
</a>
</g>
</g>
<!-- Node2 -->
<g id="Node000002" class="node">
<title>Node2</title>
<g id="a_Node000002"><a xlink:href="classjuce_1_1Component.html#ac936a5feadcb2a6f46d84e30e3483d17" target="_top" xlink:title=" ">
<polygon fill="white" stroke="#666666" points="293,-116.88 158.5,-116.88 158.5,-97.62 293,-97.62 293,-116.88"/>
<text xml:space="preserve" text-anchor="middle" x="225.75" y="-103.38" font-family="Helvetica,sans-Serif" font-size="10.00">juce::Component::isEnabled</text>
</a>
</g>
</g>
<!-- Node1&#45;&gt;Node2 -->
<g id="edge1_Node000001_Node000002" class="edge">
<title>Node1&#45;&gt;Node2</title>
<g id="a_edge1_Node000001_Node000002"><a xlink:title=" ">
<path fill="none" stroke="#63b8ff" d="M106.65,-80.36C126,-84.77 148.88,-89.98 169.33,-94.63"/>
<polygon fill="#63b8ff" stroke="#63b8ff" points="168.4,-98.01 178.92,-96.82 169.95,-91.18 168.4,-98.01"/>
</a>
</g>
</g>
<!-- Node3 -->
<g id="Node000003" class="node">
<title>Node3</title>
<g id="a_Node000003"><a xlink:href="classjuce_1_1KeyPress.html#a64dc495e0fa9fde3f39888073241a05e" target="_top" xlink:title=" ">
<polygon fill="white" stroke="#666666" points="291.5,-79.88 160,-79.88 160,-60.62 291.5,-60.62 291.5,-79.88"/>
<text xml:space="preserve" text-anchor="middle" x="225.75" y="-66.38" font-family="Helvetica,sans-Serif" font-size="10.00">juce::KeyPress::isKeyCode</text>
</a>
</g>
</g>
<!-- Node1&#45;&gt;Node3 -->
<g id="edge3_Node000001_Node000003" class="edge">
<title>Node1&#45;&gt;Node3</title>
<g id="a_edge3_Node000001_Node000003"><a xlink:title=" ">
<path fill="none" stroke="#63b8ff" d="M122.76,-70.25C131.01,-70.25 139.57,-70.25 148.06,-70.25"/>
<polygon fill="#63b8ff" stroke="#63b8ff" points="148.04,-73.75 158.04,-70.25 148.04,-66.75 148.04,-73.75"/>
</a>
</g>
</g>
<!-- Node4 -->
<g id="Node000004" class="node">
<title>Node4</title>
<g id="a_Node000004"><a xlink:href="classjuce_1_1Button.html#acd902a3be23ff490a057ce011571352e" target="_top" xlink:title=" ">
<polygon fill="white" stroke="#666666" points="285.88,-24.88 165.62,-24.88 165.62,-5.63 285.88,-5.63 285.88,-24.88"/>
<text xml:space="preserve" text-anchor="middle" x="225.75" y="-11.38" font-family="Helvetica,sans-Serif" font-size="10.00">juce::Button::triggerClick</text>
</a>
</g>
</g>
<!-- Node1&#45;&gt;Node4 -->
<g id="edge5_Node000001_Node000004" class="edge">
<title>Node1&#45;&gt;Node4</title>
<g id="a_edge5_Node000001_Node000004"><a xlink:title=" ">
<path fill="none" stroke="#63b8ff" d="M92.06,-60.16C117.86,-51.43 155.42,-38.72 184,-29.04"/>
<polygon fill="#63b8ff" stroke="#63b8ff" points="185.08,-32.37 193.43,-25.85 182.83,-25.74 185.08,-32.37"/>
</a>
</g>
</g>
<!-- Node2&#45;&gt;Node2 -->
<g id="edge2_Node000002_Node000002" class="edge">
<title>Node2&#45;&gt;Node2</title>
<g id="a_edge2_Node000002_Node000002"><a xlink:title=" ">
<path fill="none" stroke="#63b8ff" d="M200,-117.16C188.25,-125.77 196.83,-134.88 225.75,-134.88 242.02,-134.88 251.85,-131.99 255.25,-127.94"/>
<polygon fill="#63b8ff" stroke="#63b8ff" points="258.59,-126.89 252,-118.59 251.97,-129.19 258.59,-126.89"/>
</a>
</g>
</g>
<!-- Node4&#45;&gt;Node4 -->
<g id="edge10_Node000004_Node000004" class="edge">
<title>Node4&#45;&gt;Node4</title>
<g id="a_edge10_Node000004_Node000004"><a xlink:title=" ">
<path fill="none" stroke="#63b8ff" d="M200,-25.16C188.25,-33.77 196.83,-42.88 225.75,-42.88 242.02,-42.88 251.85,-39.99 255.25,-35.94"/>
<polygon fill="#63b8ff" stroke="#63b8ff" points="258.59,-34.89 252,-26.59 251.97,-37.19 258.59,-34.89"/>
</a>
</g>
</g>
<!-- Node5 -->
<g id="Node000005" class="node">
<title>Node5</title>
<g id="a_Node000005"><a xlink:href="classjuce_1_1Component.html#a875c0680228d0b246f87f8a038ff6b4b" target="_top" xlink:title=" ">
<polygon fill="white" stroke="#666666" points="484.5,-30.5 329,-30.5 329,0 484.5,0 484.5,-30.5"/>
<text xml:space="preserve" text-anchor="start" x="337" y="-17" font-family="Helvetica,sans-Serif" font-size="10.00">juce::Component::postCommand</text>
<text xml:space="preserve" text-anchor="middle" x="406.75" y="-5.75" font-family="Helvetica,sans-Serif" font-size="10.00">Message</text>
</a>
</g>
</g>
<!-- Node4&#45;&gt;Node5 -->
<g id="edge6_Node000004_Node000005" class="edge">
<title>Node4&#45;&gt;Node5</title>
<g id="a_edge6_Node000004_Node000005"><a xlink:title=" ">
<path fill="none" stroke="#63b8ff" d="M286.35,-15.25C296.29,-15.25 306.78,-15.25 317.25,-15.25"/>
<polygon fill="#63b8ff" stroke="#63b8ff" points="317.06,-18.75 327.06,-15.25 317.06,-11.75 317.06,-18.75"/>
</a>
</g>
</g>
<!-- Node5&#45;&gt;Node5 -->
<g id="edge9_Node000005_Node000005" class="edge">
<title>Node5&#45;&gt;Node5</title>
<g id="a_edge9_Node000005_Node000005"><a xlink:title=" ">
<path fill="none" stroke="#63b8ff" d="M376.34,-30.99C370.13,-40.06 380.27,-48.5 406.75,-48.5 421.23,-48.5 430.83,-45.97 435.53,-42.2"/>
<polygon fill="#63b8ff" stroke="#63b8ff" points="438.97,-42.88 436.94,-32.48 432.04,-41.88 438.97,-42.88"/>
</a>
</g>
</g>
<!-- Node6 -->
<g id="Node000006" class="node">
<title>Node6</title>
<g id="a_Node000006"><a xlink:href="classjuce_1_1MessageManager.html#a0a24b21503a5744700d17a10233da46b" target="_top" xlink:title=" ">
<polygon fill="white" stroke="#666666" points="636.25,-30.5 520.5,-30.5 520.5,0 636.25,0 636.25,-30.5"/>
<text xml:space="preserve" text-anchor="start" x="528.5" y="-17" font-family="Helvetica,sans-Serif" font-size="10.00">juce::MessageManager</text>
<text xml:space="preserve" text-anchor="middle" x="578.38" y="-5.75" font-family="Helvetica,sans-Serif" font-size="10.00">::callAsync</text>
</a>
</g>
</g>
<!-- Node5&#45;&gt;Node6 -->
<g id="edge7_Node000005_Node000006" class="edge">
<title>Node5&#45;&gt;Node6</title>
<g id="a_edge7_Node000005_Node000006"><a xlink:title=" ">
<path fill="none" stroke="#63b8ff" d="M484.62,-15.25C492.63,-15.25 500.74,-15.25 508.65,-15.25"/>
<polygon fill="#63b8ff" stroke="#63b8ff" points="508.55,-18.75 518.55,-15.25 508.55,-11.75 508.55,-18.75"/>
</a>
</g>
</g>
<!-- Node6&#45;&gt;Node6 -->
<g id="edge8_Node000006_Node000006" class="edge">
<title>Node6&#45;&gt;Node6</title>
<g id="a_edge8_Node000006_Node000006"><a xlink:title=" ">
<path fill="none" stroke="#63b8ff" d="M547.96,-30.99C541.76,-40.06 551.89,-48.5 578.38,-48.5 592.86,-48.5 602.45,-45.97 607.16,-42.2"/>
<polygon fill="#63b8ff" stroke="#63b8ff" points="610.59,-42.88 608.57,-32.48 603.67,-41.88 610.59,-42.88"/>
</a>
</g>
</g>
</g>
</svg>
