<?xml version="1.0" encoding="UTF-8" standalone="no"?>
<!DOCTYPE svg PUBLIC "-//W3C//DTD SVG 1.1//EN"
 "http://www.w3.org/Graphics/SVG/1.1/DTD/svg11.dtd">
<!-- Generated by graphviz version 14.0.2 (0)
 -->
<!-- Title: CarlaStyle::pixelMetric Pages: 1 -->
<svg width="299pt" height="156pt"
 viewBox="0.00 0.00 299.00 156.00" xmlns="http://www.w3.org/2000/svg" xmlns:xlink="http://www.w3.org/1999/xlink">
<g id="graph0" class="graph" transform="scale(1 1) rotate(0) translate(4 152.25)">
<title>CarlaStyle::pixelMetric</title>
<!-- Node1 -->
<g id="Node000001" class="node">
<title>Node1</title>
<g id="a_Node000001"><a xlink:title=" ">
<polygon fill="#999999" stroke="#666666" points="290.75,-74.25 179.5,-74.25 179.5,-55 290.75,-55 290.75,-74.25"/>
<text xml:space="preserve" text-anchor="middle" x="235.12" y="-60.75" font-family="Helvetica,sans-Serif" font-size="10.00">CarlaStyle::pixelMetric</text>
</a>
</g>
</g>
<!-- Node2 -->
<g id="Node000002" class="node">
<title>Node2</title>
<g id="a_Node000002"><a xlink:href="classCarlaStyle.html#a2e9ed5bdd55f08742a598c5b1d527097" target="_top" xlink:title=" ">
<polygon fill="white" stroke="#666666" points="130,-148.25 13.5,-148.25 13.5,-129 130,-129 130,-148.25"/>
<text xml:space="preserve" text-anchor="middle" x="71.75" y="-134.75" font-family="Helvetica,sans-Serif" font-size="10.00">CarlaStyle::drawControl</text>
</a>
</g>
</g>
<!-- Node1&#45;&gt;Node2 -->
<g id="edge1_Node000001_Node000002" class="edge">
<title>Node1&#45;&gt;Node2</title>
<g id="a_edge1_Node000001_Node000002"><a xlink:title=" ">
<path fill="none" stroke="#63b8ff" d="M211.76,-81.14C194.03,-93.55 168.21,-110.14 143.5,-120.62 136.27,-123.69 128.39,-126.33 120.6,-128.57"/>
<polygon fill="#63b8ff" stroke="#63b8ff" points="213.38,-84.28 219.48,-75.62 209.31,-78.58 213.38,-84.28"/>
</a>
</g>
</g>
<!-- Node3 -->
<g id="Node000003" class="node">
<title>Node3</title>
<g id="a_Node000003"><a xlink:href="classCarlaStyle.html#a93dcf51c22d7d3b079fca2b12cfb8239" target="_top" xlink:title=" ">
<polygon fill="white" stroke="#666666" points="133.75,-93.25 9.75,-93.25 9.75,-74 133.75,-74 133.75,-93.25"/>
<text xml:space="preserve" text-anchor="middle" x="71.75" y="-79.75" font-family="Helvetica,sans-Serif" font-size="10.00">CarlaStyle::drawPrimitive</text>
</a>
</g>
</g>
<!-- Node1&#45;&gt;Node3 -->
<g id="edge2_Node000001_Node000003" class="edge">
<title>Node1&#45;&gt;Node3</title>
<g id="a_edge2_Node000001_Node000003"><a xlink:title=" ">
<path fill="none" stroke="#63b8ff" d="M167.68,-72.45C156.61,-73.75 145.17,-75.1 134.23,-76.39"/>
<polygon fill="#63b8ff" stroke="#63b8ff" points="168.01,-75.93 177.54,-71.29 167.2,-68.98 168.01,-75.93"/>
</a>
</g>
</g>
<!-- Node4 -->
<g id="Node000004" class="node">
<title>Node4</title>
<g id="a_Node000004"><a xlink:href="classCarlaStyle.html#af04a0659bf0d28937d7ab718a4f86e77" target="_top" xlink:title=" ">
<polygon fill="white" stroke="#666666" points="143.5,-56.25 0,-56.25 0,-37 143.5,-37 143.5,-56.25"/>
<text xml:space="preserve" text-anchor="middle" x="71.75" y="-42.75" font-family="Helvetica,sans-Serif" font-size="10.00">CarlaStyle::sizeFromContents</text>
</a>
</g>
</g>
<!-- Node1&#45;&gt;Node4 -->
<g id="edge4_Node000001_Node000004" class="edge">
<title>Node1&#45;&gt;Node4</title>
<g id="a_edge4_Node000001_Node000004"><a xlink:title=" ">
<path fill="none" stroke="#63b8ff" d="M167.69,-57.21C159.83,-56.34 151.78,-55.44 143.85,-54.56"/>
<polygon fill="#63b8ff" stroke="#63b8ff" points="167.21,-60.68 177.54,-58.31 167.99,-53.73 167.21,-60.68"/>
</a>
</g>
</g>
<!-- Node5 -->
<g id="Node000005" class="node">
<title>Node5</title>
<g id="a_Node000005"><a xlink:href="classCarlaStyle.html#a87dd847687a7743b681fda7e8cac502b" target="_top" xlink:title=" ">
<polygon fill="white" stroke="#666666" points="137.5,-19.25 6,-19.25 6,0 137.5,0 137.5,-19.25"/>
<text xml:space="preserve" text-anchor="middle" x="71.75" y="-5.75" font-family="Helvetica,sans-Serif" font-size="10.00">CarlaStyle::subControlRect</text>
</a>
</g>
</g>
<!-- Node1&#45;&gt;Node5 -->
<g id="edge5_Node000001_Node000005" class="edge">
<title>Node1&#45;&gt;Node5</title>
<g id="a_edge5_Node000001_Node000005"><a xlink:title=" ">
<path fill="none" stroke="#63b8ff" d="M201.56,-50.05C184.49,-42.74 163.1,-34.08 143.5,-27.62 134.83,-24.77 125.44,-22.09 116.43,-19.73"/>
<polygon fill="#63b8ff" stroke="#63b8ff" points="200.15,-53.25 210.71,-54.03 202.93,-46.83 200.15,-53.25"/>
</a>
</g>
</g>
<!-- Node3&#45;&gt;Node3 -->
<g id="edge3_Node000003_Node000003" class="edge">
<title>Node3&#45;&gt;Node3</title>
<g id="a_edge3_Node000003_Node000003"><a xlink:title=" ">
<path fill="none" stroke="#63b8ff" d="M101.04,-104.32C97.67,-108.37 87.9,-111.25 71.75,-111.25 43.03,-111.25 34.51,-102.15 46.17,-93.54"/>
<polygon fill="#63b8ff" stroke="#63b8ff" points="104.39,-103.28 97.82,-94.97 97.77,-105.56 104.39,-103.28"/>
</a>
</g>
</g>
</g>
</svg>
