<?xml version="1.0" encoding="UTF-8" standalone="no"?>
<!DOCTYPE svg PUBLIC "-//W3C//DTD SVG 1.1//EN"
 "http://www.w3.org/Graphics/SVG/1.1/DTD/svg11.dtd">
<!-- Generated by graphviz version 14.0.2 (0)
 -->
<!-- Title: juce::FillType::operator!= Pages: 1 -->
<svg width="276pt" height="82pt"
 viewBox="0.00 0.00 276.00 82.00" xmlns="http://www.w3.org/2000/svg" xmlns:xlink="http://www.w3.org/1999/xlink">

<svg id="main" version="1.1" xmlns="http://www.w3.org/2000/svg" xmlns:xlink="http://www.w3.org/1999/xlink" xml:space="preserve">

<style type="text/css"><![CDATA[
.node, .edge {opacity: 0.7;}
.node.selected, .edge.selected {opacity: 1;}
.edge:hover path { stroke: red; }
.edge:hover polygon { stroke: red; fill: red; }
]]></style>
<script type="application/ecmascript" xlink:href="svg.min.js"/>
<svg id="graph" class="graph">
<g id="graph0" class="graph" transform="scale(1 1) rotate(0) translate(4 78.25)">
<title>juce::FillType::operator!=</title>
<!-- Node1 -->
<g id="Node000001" class="node">
<title>Node1</title>
<g id="a_Node000001"><a xlink:title=" ">
<polygon fill="#999999" stroke="#666666" points="121,-37.25 0,-37.25 0,-18 121,-18 121,-37.25"/>
<text xml:space="preserve" text-anchor="middle" x="60.5" y="-23.75" font-family="Helvetica,sans-Serif" font-size="10.00">juce::FillType::operator!=</text>
</a>
</g>
</g>
<!-- Node2 -->
<g id="Node000002" class="node">
<title>Node2</title>
<g id="a_Node000002"><a xlink:href="classjuce_1_1FillType.html#abb637de3374a131990ef493f7c5a3536" target="_top" xlink:title=" ">
<polygon fill="white" stroke="#666666" points="267.5,-56.25 157,-56.25 157,-37 267.5,-37 267.5,-56.25"/>
<text xml:space="preserve" text-anchor="middle" x="212.25" y="-42.75" font-family="Helvetica,sans-Serif" font-size="10.00">juce::FillType::FillType</text>
</a>
</g>
</g>
<!-- Node1&#45;&gt;Node2 -->
<g id="edge1_Node000001_Node000002" class="edge">
<title>Node1&#45;&gt;Node2</title>
<g id="a_edge1_Node000001_Node000002"><a xlink:title=" ">
<path fill="none" stroke="#63b8ff" d="M121.12,-35.19C129.1,-36.2 137.32,-37.25 145.41,-38.27"/>
<polygon fill="#63b8ff" stroke="#63b8ff" points="144.83,-41.73 155.2,-39.51 145.72,-34.78 144.83,-41.73"/>
</a>
</g>
</g>
<!-- Node3 -->
<g id="Node000003" class="node">
<title>Node3</title>
<g id="a_Node000003"><a xlink:href="ScopedPointer_8hpp.html#a44c6f65eba15909069b2ae838cbd96d1" target="_top" xlink:title=" ">
<polygon fill="white" stroke="#666666" points="243.88,-19.25 180.62,-19.25 180.62,0 243.88,0 243.88,-19.25"/>
<text xml:space="preserve" text-anchor="middle" x="212.25" y="-5.75" font-family="Helvetica,sans-Serif" font-size="10.00">operator==</text>
</a>
</g>
</g>
<!-- Node1&#45;&gt;Node3 -->
<g id="edge3_Node000001_Node000003" class="edge">
<title>Node1&#45;&gt;Node3</title>
<g id="a_edge3_Node000001_Node000003"><a xlink:title=" ">
<path fill="none" stroke="#63b8ff" d="M121.12,-20.46C137.08,-18.54 154,-16.51 168.83,-14.72"/>
<polygon fill="#63b8ff" stroke="#63b8ff" points="169.19,-18.21 178.7,-13.54 168.36,-11.26 169.19,-18.21"/>
</a>
</g>
</g>
<!-- Node2&#45;&gt;Node2 -->
<g id="edge2_Node000002_Node000002" class="edge">
<title>Node2&#45;&gt;Node2</title>
<g id="a_edge2_Node000002_Node000002"><a xlink:title=" ">
<path fill="none" stroke="#63b8ff" d="M188.49,-56.54C177.66,-65.15 185.58,-74.25 212.25,-74.25 227.25,-74.25 236.32,-71.37 239.46,-67.32"/>
<polygon fill="#63b8ff" stroke="#63b8ff" points="242.85,-66.43 236.47,-57.98 236.19,-68.57 242.85,-66.43"/>
</a>
</g>
</g>
</g>
</svg>
</svg>

<style type='text/css'>
<![CDATA[
[data-mouse-over-selected='false'] { opacity: 0.7; }
[data-mouse-over-selected='true']  { opacity: 1.0; }
]]>
</style>
<script type="application/ecmascript"><![CDATA[
document.addEventListener('DOMContentLoaded', (event) => {
  highlightEdges();
  highlightAdjacentNodes();
});
]]></script>
</svg>
