<?xml version="1.0" encoding="UTF-8" standalone="no"?>
<!DOCTYPE svg PUBLIC "-//W3C//DTD SVG 1.1//EN"
 "http://www.w3.org/Graphics/SVG/1.1/DTD/svg11.dtd">
<!-- Generated by graphviz version 14.0.2 (0)
 -->
<!-- Title: juce::AudioDeviceManager::addMidiInputDeviceCallback Pages: 1 -->
<svg width="348pt" height="161pt"
 viewBox="0.00 0.00 348.00 161.00" xmlns="http://www.w3.org/2000/svg" xmlns:xlink="http://www.w3.org/1999/xlink">

<svg id="main" version="1.1" xmlns="http://www.w3.org/2000/svg" xmlns:xlink="http://www.w3.org/1999/xlink" xml:space="preserve">

<style type="text/css"><![CDATA[
.node, .edge {opacity: 0.7;}
.node.selected, .edge.selected {opacity: 1;}
.edge:hover path { stroke: red; }
.edge:hover polygon { stroke: red; fill: red; }
]]></style>
<script type="application/ecmascript" xlink:href="svg.min.js"/>
<svg id="graph" class="graph">
<g id="graph0" class="graph" transform="scale(1 1) rotate(0) translate(4 156.88)">
<title>juce::AudioDeviceManager::addMidiInputDeviceCallback</title>
<!-- Node1 -->
<g id="Node000001" class="node">
<title>Node1</title>
<g id="a_Node000001"><a xlink:title=" ">
<polygon fill="#999999" stroke="#666666" points="143.5,-97.5 0,-97.5 0,-67 143.5,-67 143.5,-97.5"/>
<text xml:space="preserve" text-anchor="start" x="8" y="-84" font-family="Helvetica,sans-Serif" font-size="10.00">juce::AudioDeviceManager</text>
<text xml:space="preserve" text-anchor="middle" x="71.75" y="-72.75" font-family="Helvetica,sans-Serif" font-size="10.00">::addMidiInputDeviceCallback</text>
</a>
</g>
</g>
<!-- Node1&#45;&gt;Node1 -->
<g id="edge1_Node000001_Node000001" class="edge">
<title>Node1&#45;&gt;Node1</title>
<g id="a_edge1_Node000001_Node000001"><a xlink:title=" ">
<path fill="none" stroke="#63b8ff" d="M38.48,-97.99C31.69,-107.06 42.78,-115.5 71.75,-115.5 87.59,-115.5 98.09,-112.97 103.24,-109.2"/>
<polygon fill="#63b8ff" stroke="#63b8ff" points="106.67,-109.91 104.78,-99.48 99.75,-108.81 106.67,-109.91"/>
</a>
</g>
</g>
<!-- Node2 -->
<g id="Node000002" class="node">
<title>Node2</title>
<g id="a_Node000002"><a xlink:href="classjuce_1_1String.html#a1f0c785b3834720c20a115ff82f138de" target="_top" xlink:title=" ">
<polygon fill="white" stroke="#666666" points="311,-152.88 208,-152.88 208,-133.62 311,-133.62 311,-152.88"/>
<text xml:space="preserve" text-anchor="middle" x="259.5" y="-139.38" font-family="Helvetica,sans-Serif" font-size="10.00">juce::String::isEmpty</text>
</a>
</g>
</g>
<!-- Node1&#45;&gt;Node2 -->
<g id="edge2_Node000001_Node000002" class="edge">
<title>Node1&#45;&gt;Node2</title>
<g id="a_edge2_Node000001_Node000002"><a xlink:title=" ">
<path fill="none" stroke="#63b8ff" d="M108.86,-97.9C129.33,-106.41 155.57,-116.7 179.5,-124.25 186.38,-126.42 193.66,-128.48 200.91,-130.39"/>
<polygon fill="#63b8ff" stroke="#63b8ff" points="199.81,-133.72 210.37,-132.79 201.54,-126.94 199.81,-133.72"/>
</a>
</g>
</g>
<!-- Node3 -->
<g id="Node000003" class="node">
<title>Node3</title>
<g id="a_Node000003"><a xlink:href="classjuce_1_1AudioDeviceManager.html#a05f7a258bad375339b3e8c9edd778553" target="_top" xlink:title=" ">
<polygon fill="white" stroke="#666666" points="325.62,-97.5 193.38,-97.5 193.38,-67 325.62,-67 325.62,-97.5"/>
<text xml:space="preserve" text-anchor="start" x="201.38" y="-84" font-family="Helvetica,sans-Serif" font-size="10.00">juce::AudioDeviceManager</text>
<text xml:space="preserve" text-anchor="middle" x="259.5" y="-72.75" font-family="Helvetica,sans-Serif" font-size="10.00">::isMidiInputDeviceEnabled</text>
</a>
</g>
</g>
<!-- Node1&#45;&gt;Node3 -->
<g id="edge3_Node000001_Node000003" class="edge">
<title>Node1&#45;&gt;Node3</title>
<g id="a_edge3_Node000001_Node000003"><a xlink:title=" ">
<path fill="none" stroke="#63b8ff" d="M143.77,-82.25C156.16,-82.25 169.1,-82.25 181.64,-82.25"/>
<polygon fill="#63b8ff" stroke="#63b8ff" points="181.5,-85.75 191.5,-82.25 181.5,-78.75 181.5,-85.75"/>
</a>
</g>
</g>
<!-- Node4 -->
<g id="Node000004" class="node">
<title>Node4</title>
<g id="a_Node000004"><a xlink:href="classjuce_1_1AudioDeviceManager.html#a2d96aaea232d73697ea0a1b9b20b1419" target="_top" xlink:title=" ">
<polygon fill="white" stroke="#666666" points="339.5,-30.5 179.5,-30.5 179.5,0 339.5,0 339.5,-30.5"/>
<text xml:space="preserve" text-anchor="start" x="187.5" y="-17" font-family="Helvetica,sans-Serif" font-size="10.00">juce::AudioDeviceManager</text>
<text xml:space="preserve" text-anchor="middle" x="259.5" y="-5.75" font-family="Helvetica,sans-Serif" font-size="10.00">::removeMidiInputDeviceCallback</text>
</a>
</g>
</g>
<!-- Node1&#45;&gt;Node4 -->
<g id="edge5_Node000001_Node000004" class="edge">
<title>Node1&#45;&gt;Node4</title>
<g id="a_edge5_Node000001_Node000004"><a xlink:title=" ">
<path fill="none" stroke="#63b8ff" d="M116.3,-66.54C142.52,-57.08 176.13,-44.96 204.1,-34.87"/>
<polygon fill="#63b8ff" stroke="#63b8ff" points="205.26,-38.18 213.48,-31.49 202.88,-31.59 205.26,-38.18"/>
</a>
</g>
</g>
<!-- Node3&#45;&gt;Node3 -->
<g id="edge4_Node000003_Node000003" class="edge">
<title>Node3&#45;&gt;Node3</title>
<g id="a_edge4_Node000003_Node000003"><a xlink:title=" ">
<path fill="none" stroke="#63b8ff" d="M226.23,-97.99C219.44,-107.06 230.53,-115.5 259.5,-115.5 275.34,-115.5 285.84,-112.97 290.99,-109.2"/>
<polygon fill="#63b8ff" stroke="#63b8ff" points="294.42,-109.91 292.53,-99.48 287.5,-108.81 294.42,-109.91"/>
</a>
</g>
</g>
<!-- Node4&#45;&gt;Node4 -->
<g id="edge6_Node000004_Node000004" class="edge">
<title>Node4&#45;&gt;Node4</title>
<g id="a_edge6_Node000004_Node000004"><a xlink:title=" ">
<path fill="none" stroke="#63b8ff" d="M226.23,-30.99C219.44,-40.06 230.53,-48.5 259.5,-48.5 275.34,-48.5 285.84,-45.97 290.99,-42.2"/>
<polygon fill="#63b8ff" stroke="#63b8ff" points="294.42,-42.91 292.53,-32.48 287.5,-41.81 294.42,-42.91"/>
</a>
</g>
</g>
</g>
</svg>
</svg>

<style type='text/css'>
<![CDATA[
[data-mouse-over-selected='false'] { opacity: 0.7; }
[data-mouse-over-selected='true']  { opacity: 1.0; }
]]>
</style>
<script type="application/ecmascript"><![CDATA[
document.addEventListener('DOMContentLoaded', (event) => {
  highlightEdges();
  highlightAdjacentNodes();
});
]]></script>
</svg>
