<?xml version="1.0" encoding="UTF-8" standalone="no"?>
<!DOCTYPE svg PUBLIC "-//W3C//DTD SVG 1.1//EN"
 "http://www.w3.org/Graphics/SVG/1.1/DTD/svg11.dtd">
<!-- Generated by graphviz version 14.0.2 (0)
 -->
<!-- Title: juce::TableListBox::tableColumnDraggingChanged Pages: 1 -->
<svg width="835pt" height="192pt"
 viewBox="0.00 0.00 835.00 192.00" xmlns="http://www.w3.org/2000/svg" xmlns:xlink="http://www.w3.org/1999/xlink">
<g id="graph0" class="graph" transform="scale(1 1) rotate(0) translate(4 187.88)">
<title>juce::TableListBox::tableColumnDraggingChanged</title>
<!-- Node1 -->
<g id="Node000001" class="node">
<title>Node1</title>
<g id="a_Node000001"><a xlink:title=" ">
<polygon fill="#999999" stroke="#666666" points="151,-131.88 0,-131.88 0,-101.38 151,-101.38 151,-131.88"/>
<text xml:space="preserve" text-anchor="start" x="8" y="-118.38" font-family="Helvetica,sans-Serif" font-size="10.00">juce::TableListBox</text>
<text xml:space="preserve" text-anchor="middle" x="75.5" y="-107.12" font-family="Helvetica,sans-Serif" font-size="10.00">::tableColumnDraggingChanged</text>
</a>
</g>
</g>
<!-- Node1&#45;&gt;Node1 -->
<g id="edge14_Node000001_Node000001" class="edge">
<title>Node1&#45;&gt;Node1</title>
<g id="a_edge14_Node000001_Node000001"><a xlink:title=" ">
<path fill="none" stroke="#63b8ff" d="M44.96,-132.36C38.72,-141.43 48.9,-149.88 75.5,-149.88 90.05,-149.88 99.68,-147.35 104.41,-143.58"/>
<polygon fill="#63b8ff" stroke="#63b8ff" points="107.85,-144.26 105.83,-133.86 100.92,-143.25 107.85,-144.26"/>
</a>
</g>
</g>
<!-- Node2 -->
<g id="Node000002" class="node">
<title>Node2</title>
<g id="a_Node000002"><a xlink:href="classjuce_1_1Component.html#a8a7b37be680ae337c88ea0d4c244d308" target="_top" xlink:title=" ">
<polygon fill="white" stroke="#666666" points="308.75,-126.25 187,-126.25 187,-107 308.75,-107 308.75,-126.25"/>
<text xml:space="preserve" text-anchor="middle" x="247.88" y="-112.75" font-family="Helvetica,sans-Serif" font-size="10.00">juce::Component::repaint</text>
</a>
</g>
</g>
<!-- Node1&#45;&gt;Node2 -->
<g id="edge1_Node000001_Node000002" class="edge">
<title>Node1&#45;&gt;Node2</title>
<g id="a_edge1_Node000001_Node000002"><a xlink:title=" ">
<path fill="none" stroke="#63b8ff" d="M151.23,-116.62C159.16,-116.62 167.21,-116.62 175.11,-116.62"/>
<polygon fill="#63b8ff" stroke="#63b8ff" points="175.01,-120.13 185.01,-116.63 175.01,-113.13 175.01,-120.13"/>
</a>
</g>
</g>
<!-- Node2&#45;&gt;Node2 -->
<g id="edge13_Node000002_Node000002" class="edge">
<title>Node2&#45;&gt;Node2</title>
<g id="a_edge13_Node000002_Node000002"><a xlink:title=" ">
<path fill="none" stroke="#63b8ff" d="M222.53,-126.54C210.97,-135.15 219.42,-144.25 247.88,-144.25 263.88,-144.25 273.56,-141.37 276.9,-137.32"/>
<polygon fill="#63b8ff" stroke="#63b8ff" points="280.25,-136.3 273.71,-127.97 273.63,-138.56 280.25,-136.3"/>
</a>
</g>
</g>
<!-- Node3 -->
<g id="Node000003" class="node">
<title>Node3</title>
<g id="a_Node000003"><a xlink:href="classjuce_1_1Component.html#ad886e26b7514369fe38fdc03074b7c80" target="_top" xlink:title=" ">
<polygon fill="white" stroke="#666666" points="474.75,-165.88 344.75,-165.88 344.75,-135.38 474.75,-135.38 474.75,-165.88"/>
<text xml:space="preserve" text-anchor="start" x="352.75" y="-152.38" font-family="Helvetica,sans-Serif" font-size="10.00">juce::Component::getLocal</text>
<text xml:space="preserve" text-anchor="middle" x="409.75" y="-141.12" font-family="Helvetica,sans-Serif" font-size="10.00">Bounds</text>
</a>
</g>
</g>
<!-- Node2&#45;&gt;Node3 -->
<g id="edge2_Node000002_Node000003" class="edge">
<title>Node2&#45;&gt;Node3</title>
<g id="a_edge2_Node000002_Node000003"><a xlink:title=" ">
<path fill="none" stroke="#63b8ff" d="M296.41,-126.73C308.09,-129.22 320.87,-131.94 333.5,-134.62"/>
<polygon fill="#63b8ff" stroke="#63b8ff" points="332.54,-137.99 343.04,-136.65 333.99,-131.15 332.54,-137.99"/>
</a>
</g>
</g>
<!-- Node4 -->
<g id="Node000004" class="node">
<title>Node4</title>
<g id="a_Node000004"><a xlink:href="classjuce_1_1Component.html#ad51044b0140c4c46c1fe67b4e6d86bb0" target="_top" xlink:title=" ">
<polygon fill="white" stroke="#666666" points="471.75,-98.88 347.75,-98.88 347.75,-68.38 471.75,-68.38 471.75,-98.88"/>
<text xml:space="preserve" text-anchor="start" x="355.75" y="-85.38" font-family="Helvetica,sans-Serif" font-size="10.00">juce::Component::internal</text>
<text xml:space="preserve" text-anchor="middle" x="409.75" y="-74.12" font-family="Helvetica,sans-Serif" font-size="10.00">RepaintUnchecked</text>
</a>
</g>
</g>
<!-- Node2&#45;&gt;Node4 -->
<g id="edge4_Node000002_Node000004" class="edge">
<title>Node2&#45;&gt;Node4</title>
<g id="a_edge4_Node000002_Node000004"><a xlink:title=" ">
<path fill="none" stroke="#63b8ff" d="M297.71,-106.54C309.98,-104.01 323.4,-101.24 336.55,-98.53"/>
<polygon fill="#63b8ff" stroke="#63b8ff" points="336.92,-102.02 346.01,-96.58 335.51,-95.17 336.92,-102.02"/>
</a>
</g>
</g>
<!-- Node3&#45;&gt;Node3 -->
<g id="edge3_Node000003_Node000003" class="edge">
<title>Node3&#45;&gt;Node3</title>
<g id="a_edge3_Node000003_Node000003"><a xlink:title=" ">
<path fill="none" stroke="#63b8ff" d="M381.07,-166.36C375.21,-175.43 384.77,-183.88 409.75,-183.88 423.41,-183.88 432.46,-181.35 436.9,-177.58"/>
<polygon fill="#63b8ff" stroke="#63b8ff" points="440.34,-178.24 438.23,-167.86 433.4,-177.29 440.34,-178.24"/>
</a>
</g>
</g>
<!-- Node4&#45;&gt;Node4 -->
<g id="edge11_Node000004_Node000004" class="edge">
<title>Node4&#45;&gt;Node4</title>
<g id="a_edge11_Node000004_Node000004"><a xlink:title=" ">
<path fill="none" stroke="#63b8ff" d="M381.07,-99.36C375.21,-108.43 384.77,-116.88 409.75,-116.88 423.41,-116.88 432.46,-114.35 436.9,-110.58"/>
<polygon fill="#63b8ff" stroke="#63b8ff" points="440.34,-111.24 438.23,-100.86 433.4,-110.29 440.34,-111.24"/>
</a>
</g>
</g>
<!-- Node5 -->
<g id="Node000005" class="node">
<title>Node5</title>
<g id="a_Node000005"><a xlink:href="structjuce_1_1Component_1_1ComponentHelpers.html#a378357a80af0b45ac23b244b228ffd3e" target="_top" xlink:title=" ">
<polygon fill="#fff0f0" stroke="red" points="664.75,-179.88 510.75,-179.88 510.75,-149.38 664.75,-149.38 664.75,-179.88"/>
<text xml:space="preserve" text-anchor="start" x="518.75" y="-166.38" font-family="Helvetica,sans-Serif" font-size="10.00">juce::Component::Component</text>
<text xml:space="preserve" text-anchor="middle" x="587.75" y="-155.12" font-family="Helvetica,sans-Serif" font-size="10.00">Helpers::convertToParentSpace</text>
</a>
</g>
</g>
<!-- Node4&#45;&gt;Node5 -->
<g id="edge5_Node000004_Node000005" class="edge">
<title>Node4&#45;&gt;Node5</title>
<g id="a_edge5_Node000004_Node000005"><a xlink:title=" ">
<path fill="none" stroke="#63b8ff" d="M438.77,-99.3C458.59,-110.11 485.94,-124.48 510.75,-135.62 517.67,-138.73 525.04,-141.82 532.36,-144.75"/>
<polygon fill="#63b8ff" stroke="#63b8ff" points="530.99,-147.97 541.58,-148.36 533.55,-141.45 530.99,-147.97"/>
</a>
</g>
</g>
<!-- Node9 -->
<g id="Node000009" class="node">
<title>Node9</title>
<g id="a_Node000009"><a xlink:href="classjuce_1_1Component.html#ad13a2ae74f3e252382a58cf3e1e92a58" target="_top" xlink:title=" ">
<polygon fill="#fff0f0" stroke="red" points="827,-152.25 700.75,-152.25 700.75,-133 827,-133 827,-152.25"/>
<text xml:space="preserve" text-anchor="middle" x="763.88" y="-138.75" font-family="Helvetica,sans-Serif" font-size="10.00">juce::Component::getPeer</text>
</a>
</g>
</g>
<!-- Node4&#45;&gt;Node9 -->
<g id="edge9_Node000004_Node000009" class="edge">
<title>Node4&#45;&gt;Node9</title>
<g id="a_edge9_Node000004_Node000009"><a xlink:title=" ">
<path fill="none" stroke="#63b8ff" d="M472.04,-95.58C484.82,-97.98 498.22,-100.44 510.75,-102.62 570.72,-113.08 638.93,-123.83 689.26,-131.55"/>
<polygon fill="#63b8ff" stroke="#63b8ff" points="688.45,-134.97 698.86,-133.02 689.51,-128.05 688.45,-134.97"/>
</a>
</g>
</g>
<!-- Node21 -->
<g id="Node000021" class="node">
<title>Node21</title>
<g id="a_Node000021"><a xlink:href="classjuce_1_1Component.html#a5b7a932d5731db79424fbc8acd247805" target="_top" xlink:title=" ">
<polygon fill="white" stroke="#666666" points="655,-93.25 520.5,-93.25 520.5,-74 655,-74 655,-93.25"/>
<text xml:space="preserve" text-anchor="middle" x="587.75" y="-79.75" font-family="Helvetica,sans-Serif" font-size="10.00">juce::Component::getHeight</text>
</a>
</g>
</g>
<!-- Node4&#45;&gt;Node21 -->
<g id="edge8_Node000004_Node000021" class="edge">
<title>Node4&#45;&gt;Node21</title>
<g id="a_edge8_Node000004_Node000021"><a xlink:title=" ">
<path fill="none" stroke="#63b8ff" d="M471.81,-83.62C483.75,-83.62 496.41,-83.62 508.81,-83.62"/>
<polygon fill="#63b8ff" stroke="#63b8ff" points="508.57,-87.13 518.57,-83.63 508.57,-80.13 508.57,-87.13"/>
</a>
</g>
</g>
<!-- Node22 -->
<g id="Node000022" class="node">
<title>Node22</title>
<g id="a_Node000022"><a xlink:href="classjuce_1_1Component.html#ac109beb72e9dafdc724da22b8cb883c0" target="_top" xlink:title=" ">
<polygon fill="white" stroke="#666666" points="653.12,-56.25 522.38,-56.25 522.38,-37 653.12,-37 653.12,-56.25"/>
<text xml:space="preserve" text-anchor="middle" x="587.75" y="-42.75" font-family="Helvetica,sans-Serif" font-size="10.00">juce::Component::getWidth</text>
</a>
</g>
</g>
<!-- Node4&#45;&gt;Node22 -->
<g id="edge10_Node000004_Node000022" class="edge">
<title>Node4&#45;&gt;Node22</title>
<g id="a_edge10_Node000004_Node000022"><a xlink:title=" ">
<path fill="none" stroke="#63b8ff" d="M471.81,-70.79C489.9,-66.99 509.66,-62.83 527.62,-59.06"/>
<polygon fill="#63b8ff" stroke="#63b8ff" points="528.29,-62.49 537.35,-57.01 526.85,-55.64 528.29,-62.49"/>
</a>
</g>
</g>
<!-- Node23 -->
<g id="Node000023" class="node">
<title>Node23</title>
<g id="a_Node000023"><a xlink:href="classjuce_1_1Rectangle.html#ad403d2302452b0ae218fb3a4d9b04492" target="_top" xlink:title=" ">
<polygon fill="white" stroke="#666666" points="648.25,-19.25 527.25,-19.25 527.25,0 648.25,0 648.25,-19.25"/>
<text xml:space="preserve" text-anchor="middle" x="587.75" y="-5.75" font-family="Helvetica,sans-Serif" font-size="10.00">juce::Rectangle::isEmpty</text>
</a>
</g>
</g>
<!-- Node4&#45;&gt;Node23 -->
<g id="edge12_Node000004_Node000023" class="edge">
<title>Node4&#45;&gt;Node23</title>
<g id="a_edge12_Node000004_Node000023"><a xlink:title=" ">
<path fill="none" stroke="#63b8ff" d="M434.08,-68.09C453.78,-55.59 483.12,-38.39 510.75,-27.62 515.16,-25.91 519.77,-24.33 524.46,-22.87"/>
<polygon fill="#63b8ff" stroke="#63b8ff" points="525.36,-26.25 534,-20.13 523.43,-19.53 525.36,-26.25"/>
</a>
</g>
</g>
<!-- Node5&#45;&gt;Node9 -->
<g id="edge6_Node000005_Node000009" class="edge">
<title>Node5&#45;&gt;Node9</title>
<g id="a_edge6_Node000005_Node000009"><a xlink:title=" ">
<path fill="none" stroke="#63b8ff" d="M665.12,-154.98C673.14,-153.96 681.27,-152.94 689.25,-151.93"/>
<polygon fill="#63b8ff" stroke="#63b8ff" points="689.42,-155.43 698.9,-150.71 688.54,-148.49 689.42,-155.43"/>
</a>
</g>
</g>
<!-- Node9&#45;&gt;Node9 -->
<g id="edge7_Node000009_Node000009" class="edge">
<title>Node9&#45;&gt;Node9</title>
<g id="a_edge7_Node000009_Node000009"><a xlink:title=" ">
<path fill="none" stroke="#63b8ff" d="M736.3,-152.54C723.72,-161.15 732.92,-170.25 763.88,-170.25 781.29,-170.25 791.82,-167.37 795.46,-163.32"/>
<polygon fill="#63b8ff" stroke="#63b8ff" points="798.74,-162.11 791.98,-153.96 792.18,-164.55 798.74,-162.11"/>
</a>
</g>
</g>
</g>
</svg>
