<?xml version="1.0" encoding="UTF-8" standalone="no"?>
<!DOCTYPE svg PUBLIC "-//W3C//DTD SVG 1.1//EN"
 "http://www.w3.org/Graphics/SVG/1.1/DTD/svg11.dtd">
<!-- Generated by graphviz version 14.0.2 (0)
 -->
<!-- Title: Test2&lt; sync_type &gt; Pages: 1 -->
<svg width="141pt" height="281pt"
 viewBox="0.00 0.00 141.00 281.00" xmlns="http://www.w3.org/2000/svg" xmlns:xlink="http://www.w3.org/1999/xlink">

<svg id="main" version="1.1" xmlns="http://www.w3.org/2000/svg" xmlns:xlink="http://www.w3.org/1999/xlink" xml:space="preserve">

<style type="text/css"><![CDATA[
.node, .edge {opacity: 0.7;}
.node.selected, .edge.selected {opacity: 1;}
.edge:hover path { stroke: red; }
.edge:hover polygon { stroke: red; fill: red; }
]]></style>
<script type="application/ecmascript" xlink:href="svg.min.js"/>
<svg id="graph" class="graph">
<g id="graph0" class="graph" transform="scale(1 1) rotate(0) translate(4 276.75)">
<title>Test2&lt; sync_type &gt;</title>
<!-- Node1 -->
<g id="Node000001" class="node">
<title>Node1</title>
<g id="a_Node000001"><a xlink:title=" ">
<polygon fill="#999999" stroke="none" points="113,-141.25 20.25,-141.25 20.25,0 113,0 113,-141.25"/>
<text xml:space="preserve" text-anchor="start" x="24.25" y="-127.75" font-family="Helvetica,sans-Serif" font-size="10.00">Test2&lt; sync_type &gt;</text>
<text xml:space="preserve" text-anchor="start" x="33.56" y="-112.5" font-family="Helvetica,sans-Serif" font-size="10.00">&#45;</text>
<text xml:space="preserve" text-anchor="start" x="49.88" y="-112.5" font-family="Helvetica,sans-Serif" font-size="10.00">fSynchro1</text>
<text xml:space="preserve" text-anchor="start" x="33.56" y="-97.25" font-family="Helvetica,sans-Serif" font-size="10.00">&#45;</text>
<text xml:space="preserve" text-anchor="start" x="49.88" y="-97.25" font-family="Helvetica,sans-Serif" font-size="10.00">fSynchro2</text>
<text xml:space="preserve" text-anchor="start" x="33.56" y="-82" font-family="Helvetica,sans-Serif" font-size="10.00">&#45;</text>
<text xml:space="preserve" text-anchor="start" x="49.88" y="-82" font-family="Helvetica,sans-Serif" font-size="10.00">fSynchro1</text>
<text xml:space="preserve" text-anchor="start" x="33.56" y="-66.75" font-family="Helvetica,sans-Serif" font-size="10.00">&#45;</text>
<text xml:space="preserve" text-anchor="start" x="49.88" y="-66.75" font-family="Helvetica,sans-Serif" font-size="10.00">fSynchro2</text>
<text xml:space="preserve" text-anchor="start" x="32.06" y="-51.5" font-family="Helvetica,sans-Serif" font-size="10.00">+</text>
<text xml:space="preserve" text-anchor="start" x="49.88" y="-51.5" font-family="Helvetica,sans-Serif" font-size="10.00">Test2()</text>
<text xml:space="preserve" text-anchor="start" x="32.06" y="-36.25" font-family="Helvetica,sans-Serif" font-size="10.00">+</text>
<text xml:space="preserve" text-anchor="start" x="49.88" y="-36.25" font-family="Helvetica,sans-Serif" font-size="10.00">Execute()</text>
<text xml:space="preserve" text-anchor="start" x="32.06" y="-21" font-family="Helvetica,sans-Serif" font-size="10.00">+</text>
<text xml:space="preserve" text-anchor="start" x="49.88" y="-21" font-family="Helvetica,sans-Serif" font-size="10.00">Test2()</text>
<text xml:space="preserve" text-anchor="start" x="32.06" y="-5.75" font-family="Helvetica,sans-Serif" font-size="10.00">+</text>
<text xml:space="preserve" text-anchor="start" x="49.88" y="-5.75" font-family="Helvetica,sans-Serif" font-size="10.00">Execute()</text>
<polygon fill="#666666" stroke="#666666" points="20.25,-124 20.25,-124 113,-124 113,-124 20.25,-124"/>
<polygon fill="#666666" stroke="#666666" points="20.25,-63 20.25,-63 47.88,-63 47.88,-63 20.25,-63"/>
<polygon fill="#666666" stroke="#666666" points="47.88,-63 47.88,-63 113,-63 113,-63 47.88,-63"/>
<polygon fill="none" stroke="#666666" points="20.25,0 20.25,-141.25 113,-141.25 113,0 20.25,0"/>
</a>
</g>
</g>
<!-- Node2 -->
<g id="Node000002" class="node">
<title>Node2</title>
<g id="a_Node000002"><a xlink:href="classJack_1_1JackRunnableInterface.html" target="_top" xlink:title="The base class for runnable objects, that have an &#160;Init &#160;and &#160;Execute &#160;method to be called in a threa...">
<polygon fill="white" stroke="none" points="133.25,-272.75 0,-272.75 0,-177.25 133.25,-177.25 133.25,-272.75"/>
<text xml:space="preserve" text-anchor="start" x="4" y="-259.25" font-family="Helvetica,sans-Serif" font-size="10.00">Jack::JackRunnableInterface</text>
<text xml:space="preserve" text-anchor="start" x="65.12" y="-244" font-family="Helvetica,sans-Serif" font-size="10.00"> </text>
<text xml:space="preserve" text-anchor="start" x="5.06" y="-228.75" font-family="Helvetica,sans-Serif" font-size="10.00">+</text>
<text xml:space="preserve" text-anchor="start" x="16.12" y="-228.75" font-family="Helvetica,sans-Serif" font-size="10.00">Init()</text>
<text xml:space="preserve" text-anchor="start" x="5.06" y="-213.5" font-family="Helvetica,sans-Serif" font-size="10.00">+</text>
<text xml:space="preserve" text-anchor="start" x="16.12" y="-213.5" font-family="Helvetica,sans-Serif" font-size="10.00">Execute()</text>
<text xml:space="preserve" text-anchor="start" x="5.44" y="-198.25" font-family="Helvetica,sans-Serif" font-size="10.00">#</text>
<text xml:space="preserve" text-anchor="start" x="16.12" y="-198.25" font-family="Helvetica,sans-Serif" font-size="10.00">JackRunnableInterface()</text>
<text xml:space="preserve" text-anchor="start" x="5.44" y="-183" font-family="Helvetica,sans-Serif" font-size="10.00">#</text>
<text xml:space="preserve" text-anchor="start" x="16.12" y="-183" font-family="Helvetica,sans-Serif" font-size="10.00">~JackRunnableInterface()</text>
<polygon fill="#666666" stroke="#666666" points="0,-255.5 0,-255.5 133.25,-255.5 133.25,-255.5 0,-255.5"/>
<polygon fill="#666666" stroke="#666666" points="0,-240.25 0,-240.25 133.25,-240.25 133.25,-240.25 0,-240.25"/>
<polygon fill="none" stroke="#666666" points="0,-177.25 0,-272.75 133.25,-272.75 133.25,-177.25 0,-177.25"/>
</a>
</g>
</g>
<!-- Node2&#45;&gt;Node1 -->
<g id="edge1_Node000001_Node000002" class="edge">
<title>Node2&#45;&gt;Node1</title>
<g id="a_edge1_Node000001_Node000002"><a xlink:title=" ">
<path fill="none" stroke="#63b8ff" d="M60.05,-166.15C59.89,-157.99 59.84,-149.53 59.9,-141.17"/>
<polygon fill="none" stroke="#63b8ff" points="56.55,-166.04 60.31,-175.94 63.55,-165.85 56.55,-166.04"/>
</a>
</g>
</g>
<!-- Node2&#45;&gt;Node1 -->
<g id="edge2_Node000001_Node000002" class="edge">
<title>Node2&#45;&gt;Node1</title>
<g id="a_edge2_Node000001_Node000002"><a xlink:title=" ">
<path fill="none" stroke="#63b8ff" d="M73.2,-166.15C73.36,-157.99 73.41,-149.53 73.35,-141.17"/>
<polygon fill="none" stroke="#63b8ff" points="69.7,-165.85 72.94,-175.94 76.7,-166.04 69.7,-165.85"/>
</a>
</g>
</g>
</g>
</svg>
</svg>

<style type='text/css'>
<![CDATA[
[data-mouse-over-selected='false'] { opacity: 0.7; }
[data-mouse-over-selected='true']  { opacity: 1.0; }
]]>
</style>
<script type="application/ecmascript"><![CDATA[
document.addEventListener('DOMContentLoaded', (event) => {
  highlightEdges();
  highlightAdjacentNodes();
});
]]></script>
</svg>
