<?xml version="1.0" encoding="UTF-8" standalone="no"?>
<!DOCTYPE svg PUBLIC "-//W3C//DTD SVG 1.1//EN"
 "http://www.w3.org/Graphics/SVG/1.1/DTD/svg11.dtd">
<!-- Generated by graphviz version 14.0.2 (0)
 -->
<!-- Title: Classic_Emu::start_track_ Pages: 1 -->
<svg width="412pt" height="249pt"
 viewBox="0.00 0.00 412.00 249.00" xmlns="http://www.w3.org/2000/svg" xmlns:xlink="http://www.w3.org/1999/xlink">

<svg id="main" version="1.1" xmlns="http://www.w3.org/2000/svg" xmlns:xlink="http://www.w3.org/1999/xlink" xml:space="preserve">

<style type="text/css"><![CDATA[
.node, .edge {opacity: 0.7;}
.node.selected, .edge.selected {opacity: 1;}
.edge:hover path { stroke: red; }
.edge:hover polygon { stroke: red; fill: red; }
]]></style>
<script type="application/ecmascript" xlink:href="svg.min.js"/>
<svg id="graph" class="graph">
<g id="graph0" class="graph" transform="scale(1 1) rotate(0) translate(4 245.25)">
<title>Classic_Emu::start_track_</title>
<!-- Node1 -->
<g id="Node000001" class="node">
<title>Node1</title>
<g id="a_Node000001"><a xlink:title=" ">
<polygon fill="#999999" stroke="#666666" points="404.25,-135.88 307.25,-135.88 307.25,-105.38 404.25,-105.38 404.25,-135.88"/>
<text xml:space="preserve" text-anchor="start" x="315.25" y="-122.38" font-family="Helvetica,sans-Serif" font-size="10.00">Classic_Emu::start</text>
<text xml:space="preserve" text-anchor="middle" x="355.75" y="-111.12" font-family="Helvetica,sans-Serif" font-size="10.00">_track_</text>
</a>
</g>
</g>
<!-- Node2 -->
<g id="Node000002" class="node">
<title>Node2</title>
<g id="a_Node000002"><a xlink:href="classAy__Emu.html#a19e05d58daba65b4b9043518220b7f0f" target="_top" xlink:title=" ">
<polygon fill="white" stroke="#666666" points="266.75,-241.25 158.5,-241.25 158.5,-222 266.75,-222 266.75,-241.25"/>
<text xml:space="preserve" text-anchor="middle" x="212.62" y="-227.75" font-family="Helvetica,sans-Serif" font-size="10.00">Ay_Emu::start_track_</text>
</a>
</g>
</g>
<!-- Node1&#45;&gt;Node2 -->
<g id="edge1_Node000001_Node000002" class="edge">
<title>Node1&#45;&gt;Node2</title>
<g id="a_edge1_Node000001_Node000002"><a xlink:title=" ">
<path fill="none" stroke="#63b8ff" d="M338.33,-145.4C323.21,-166.38 298.99,-195.81 271.25,-213.62 266.4,-216.74 260.97,-219.35 255.44,-221.52"/>
<polygon fill="#63b8ff" stroke="#63b8ff" points="341.07,-147.59 343.93,-137.39 335.33,-143.58 341.07,-147.59"/>
</a>
</g>
</g>
<!-- Node3 -->
<g id="Node000003" class="node">
<title>Node3</title>
<g id="a_Node000003"><a xlink:href="classGbs__Emu.html#a651690e4ccc79b9ef056052c3e0504a5" target="_top" xlink:title=" ">
<polygon fill="white" stroke="#666666" points="270.12,-204.25 155.12,-204.25 155.12,-185 270.12,-185 270.12,-204.25"/>
<text xml:space="preserve" text-anchor="middle" x="212.62" y="-190.75" font-family="Helvetica,sans-Serif" font-size="10.00">Gbs_Emu::start_track_</text>
</a>
</g>
</g>
<!-- Node1&#45;&gt;Node3 -->
<g id="edge2_Node000001_Node000003" class="edge">
<title>Node1&#45;&gt;Node3</title>
<g id="a_edge2_Node000001_Node000003"><a xlink:title=" ">
<path fill="none" stroke="#63b8ff" d="M326.07,-142.87C310.5,-154.15 290.54,-167.38 271.25,-176.62 265.01,-179.61 258.16,-182.26 251.43,-184.54"/>
<polygon fill="#63b8ff" stroke="#63b8ff" points="327.97,-145.82 333.93,-137.06 323.81,-140.19 327.97,-145.82"/>
</a>
</g>
</g>
<!-- Node4 -->
<g id="Node000004" class="node">
<title>Node4</title>
<g id="a_Node000004"><a xlink:href="classHes__Emu.html#acd30650dc8ce109e243fdc5871157c23" target="_top" xlink:title=" ">
<polygon fill="white" stroke="#666666" points="270.12,-167.25 155.12,-167.25 155.12,-148 270.12,-148 270.12,-167.25"/>
<text xml:space="preserve" text-anchor="middle" x="212.62" y="-153.75" font-family="Helvetica,sans-Serif" font-size="10.00">Hes_Emu::start_track_</text>
</a>
</g>
</g>
<!-- Node1&#45;&gt;Node4 -->
<g id="edge3_Node000001_Node000004" class="edge">
<title>Node1&#45;&gt;Node4</title>
<g id="a_edge3_Node000001_Node000004"><a xlink:title=" ">
<path fill="none" stroke="#63b8ff" d="M296.27,-135.96C281.33,-139.88 265.64,-143.99 252,-147.56"/>
<polygon fill="#63b8ff" stroke="#63b8ff" points="296.72,-139.46 305.51,-133.54 294.95,-132.69 296.72,-139.46"/>
</a>
</g>
</g>
<!-- Node5 -->
<g id="Node000005" class="node">
<title>Node5</title>
<g id="a_Node000005"><a xlink:href="classKss__Emu.html#a2cf27945cccdab42bd0c0af41a4b606e" target="_top" xlink:title=" ">
<polygon fill="white" stroke="#666666" points="269.75,-130.25 155.5,-130.25 155.5,-111 269.75,-111 269.75,-130.25"/>
<text xml:space="preserve" text-anchor="middle" x="212.62" y="-116.75" font-family="Helvetica,sans-Serif" font-size="10.00">Kss_Emu::start_track_</text>
</a>
</g>
</g>
<!-- Node1&#45;&gt;Node5 -->
<g id="edge4_Node000001_Node000005" class="edge">
<title>Node1&#45;&gt;Node5</title>
<g id="a_edge4_Node000001_Node000005"><a xlink:title=" ">
<path fill="none" stroke="#63b8ff" d="M295.64,-120.62C287.2,-120.62 278.53,-120.62 270.14,-120.62"/>
<polygon fill="#63b8ff" stroke="#63b8ff" points="295.46,-124.13 305.46,-120.63 295.46,-117.13 295.46,-124.13"/>
</a>
</g>
</g>
<!-- Node6 -->
<g id="Node000006" class="node">
<title>Node6</title>
<g id="a_Node000006"><a xlink:href="classNsf__Emu.html#a7f26b8195e21f513a6f42024b18cac16" target="_top" xlink:title=" ">
<polygon fill="white" stroke="#666666" points="269,-93.25 156.25,-93.25 156.25,-74 269,-74 269,-93.25"/>
<text xml:space="preserve" text-anchor="middle" x="212.62" y="-79.75" font-family="Helvetica,sans-Serif" font-size="10.00">Nsf_Emu::start_track_</text>
</a>
</g>
</g>
<!-- Node1&#45;&gt;Node6 -->
<g id="edge5_Node000001_Node000006" class="edge">
<title>Node1&#45;&gt;Node6</title>
<g id="a_edge5_Node000001_Node000006"><a xlink:title=" ">
<path fill="none" stroke="#63b8ff" d="M296.27,-105.29C281.33,-101.37 265.64,-97.26 252,-93.69"/>
<polygon fill="#63b8ff" stroke="#63b8ff" points="294.95,-108.56 305.51,-107.71 296.72,-101.79 294.95,-108.56"/>
</a>
</g>
</g>
<!-- Node8 -->
<g id="Node000008" class="node">
<title>Node8</title>
<g id="a_Node000008"><a xlink:href="classSap__Emu.html#a9b4fc97717361c04f0e645f77fc0d4c5" target="_top" xlink:title=" ">
<polygon fill="white" stroke="#666666" points="269.75,-56.25 155.5,-56.25 155.5,-37 269.75,-37 269.75,-56.25"/>
<text xml:space="preserve" text-anchor="middle" x="212.62" y="-42.75" font-family="Helvetica,sans-Serif" font-size="10.00">Sap_Emu::start_track_</text>
</a>
</g>
</g>
<!-- Node1&#45;&gt;Node8 -->
<g id="edge7_Node000001_Node000008" class="edge">
<title>Node1&#45;&gt;Node8</title>
<g id="a_edge7_Node000001_Node000008"><a xlink:title=" ">
<path fill="none" stroke="#63b8ff" d="M326.07,-98.38C310.5,-87.1 290.54,-73.87 271.25,-64.62 265.01,-61.64 258.16,-58.99 251.43,-56.71"/>
<polygon fill="#63b8ff" stroke="#63b8ff" points="323.81,-101.06 333.93,-104.19 327.97,-95.43 323.81,-101.06"/>
</a>
</g>
</g>
<!-- Node9 -->
<g id="Node000009" class="node">
<title>Node9</title>
<g id="a_Node000009"><a xlink:href="classVgm__Emu.html#aa3628384e4cfe12dd10574fbd0333b9e" target="_top" xlink:title=" ">
<polygon fill="white" stroke="#666666" points="271.25,-19.25 154,-19.25 154,0 271.25,0 271.25,-19.25"/>
<text xml:space="preserve" text-anchor="middle" x="212.62" y="-5.75" font-family="Helvetica,sans-Serif" font-size="10.00">Vgm_Emu::start_track_</text>
</a>
</g>
</g>
<!-- Node1&#45;&gt;Node9 -->
<g id="edge8_Node000001_Node000009" class="edge">
<title>Node1&#45;&gt;Node9</title>
<g id="a_edge8_Node000001_Node000009"><a xlink:title=" ">
<path fill="none" stroke="#63b8ff" d="M338.33,-95.85C323.21,-74.87 298.99,-45.44 271.25,-27.62 266.4,-24.51 260.97,-21.9 255.44,-19.73"/>
<polygon fill="#63b8ff" stroke="#63b8ff" points="335.33,-97.67 343.93,-103.86 341.07,-93.66 335.33,-97.67"/>
</a>
</g>
</g>
<!-- Node7 -->
<g id="Node000007" class="node">
<title>Node7</title>
<g id="a_Node000007"><a xlink:href="classNsfe__Emu.html#a97be1fe3304298bab28a7d7367d9b339" target="_top" xlink:title=" ">
<polygon fill="white" stroke="#666666" points="118,-93.25 0,-93.25 0,-74 118,-74 118,-93.25"/>
<text xml:space="preserve" text-anchor="middle" x="59" y="-79.75" font-family="Helvetica,sans-Serif" font-size="10.00">Nsfe_Emu::start_track_</text>
</a>
</g>
</g>
<!-- Node6&#45;&gt;Node7 -->
<g id="edge6_Node000006_Node000007" class="edge">
<title>Node6&#45;&gt;Node7</title>
<g id="a_edge6_Node000006_Node000007"><a xlink:title=" ">
<path fill="none" stroke="#63b8ff" d="M144.65,-83.62C135.9,-83.62 126.99,-83.62 118.39,-83.62"/>
<polygon fill="#63b8ff" stroke="#63b8ff" points="144.51,-87.13 154.51,-83.63 144.51,-80.13 144.51,-87.13"/>
</a>
</g>
</g>
</g>
</svg>
</svg>

<style type='text/css'>
<![CDATA[
[data-mouse-over-selected='false'] { opacity: 0.7; }
[data-mouse-over-selected='true']  { opacity: 1.0; }
]]>
</style>
<script type="application/ecmascript"><![CDATA[
document.addEventListener('DOMContentLoaded', (event) => {
  highlightEdges();
  highlightAdjacentNodes();
});
]]></script>
</svg>
