<?xml version="1.0" encoding="UTF-8" standalone="no"?>
<!DOCTYPE svg PUBLIC "-//W3C//DTD SVG 1.1//EN"
 "http://www.w3.org/Graphics/SVG/1.1/DTD/svg11.dtd">
<!-- Generated by graphviz version 14.0.2 (0)
 -->
<!-- Title: juce::FileBasedDocument::Pimpl::saveAsInteractiveAsync Pages: 1 -->
<!--zoomable 247 -->

<svg id="main" version="1.1" xmlns="http://www.w3.org/2000/svg" xmlns:xlink="http://www.w3.org/1999/xlink" xml:space="preserve" onload="init(evt)">

<style type="text/css"><![CDATA[
.node, .edge {opacity: 0.7;}
.node.selected, .edge.selected {opacity: 1;}
.edge:hover path { stroke: red; }
.edge:hover polygon { stroke: red; fill: red; }
]]></style>

<defs>
  <circle id="rim" cx="0" cy="0" r="7"/>
  <circle id="rim2" cx="0" cy="0" r="3.5"/>
  <g id="zoomPlus">
    <use xlink:href="#rim" fill="#404040"><set attributeName="fill" to="#808080" begin="zoomplus.mouseover" end="zoomplus.mouseout"/></use>
    <path d="M-4,0h8M0,-4v8" fill="none" stroke="white" stroke-width="1.5" pointer-events="none"/>
  </g>
  <g id="zoomMin">
    <use xlink:href="#rim" fill="#404040"><set attributeName="fill" to="#808080" begin="zoomminus.mouseover" end="zoomminus.mouseout"/></use>
    <path d="M-4,0h8" fill="none" stroke="white" stroke-width="1.5" pointer-events="none"/>
  </g>
  <g id="arrowUp" transform="translate(30 24)">
    <use xlink:href="#rim"/>
    <path pointer-events="none" fill="none" stroke="white" stroke-width="1.5" d="M0,-3.0v7 M-2.5,-0.5L0,-3.0L2.5,-0.5"/>
  </g>
  <g id="arrowRight" transform="rotate(90) translate(36 -43)">
    <use xlink:href="#rim"/>
    <path pointer-events="none" fill="none" stroke="white" stroke-width="1.5" d="M0,-3.0v7 M-2.5,-0.5L0,-3.0L2.5,-0.5"/>
  </g>
  <g id="arrowDown" transform="rotate(180) translate(-30 -48)">
    <use xlink:href="#rim"/>
    <path pointer-events="none" fill="none" stroke="white" stroke-width="1.5" d="M0,-3.0v7 M-2.5,-0.5L0,-3.0L2.5,-0.5"/>
  </g>
  <g id="arrowLeft" transform="rotate(270) translate(-36 17)">
    <use xlink:href="#rim"/>
    <path pointer-events="none" fill="none" stroke="white" stroke-width="1.5" d="M0,-3.0v7 M-2.5,-0.5L0,-3.0L2.5,-0.5"/>
  </g>
  <g id="resetDef">
    <use xlink:href="#rim2" fill="#404040"><set attributeName="fill" to="#808080" begin="reset.mouseover" end="reset.mouseout"/></use>
  </g>
</defs>
<script type="application/ecmascript">
var viewWidth = 728;
var viewHeight = 247;
var sectionId = 'dynsection-21';
</script>
<script type="application/ecmascript" xlink:href="svg.min.js"/>
<svg id="graph" class="graph">
<g id="viewport">
<title>juce::FileBasedDocument::Pimpl::saveAsInteractiveAsync</title>
<!-- Node1 -->
<g id="Node000001" class="node">
<title>Node1</title>
<g id="a_Node000001"><a xlink:title=" ">
<polygon fill="#999999" stroke="#666666" points="155.5,-148.88 0,-148.88 0,-118.38 155.5,-118.38 155.5,-148.88"/>
<text xml:space="preserve" text-anchor="start" x="8" y="-135.38" font-family="Helvetica,sans-Serif" font-size="10.00">juce::FileBasedDocument</text>
<text xml:space="preserve" text-anchor="middle" x="77.75" y="-124.12" font-family="Helvetica,sans-Serif" font-size="10.00">::Pimpl::saveAsInteractiveAsync</text>
</a>
</g>
</g>
<!-- Node2 -->
<g id="Node000002" class="node">
<title>Node2</title>
<g id="a_Node000002"><a xlink:href="classjuce_1_1FileBasedDocument_1_1Pimpl.html#a2d18469753c8478a44b0153415bb5d1f" target="_top" xlink:title=" ">
<polygon fill="white" stroke="#666666" points="365.75,-148.88 191.5,-148.88 191.5,-118.38 365.75,-118.38 365.75,-148.88"/>
<text xml:space="preserve" text-anchor="start" x="199.5" y="-135.38" font-family="Helvetica,sans-Serif" font-size="10.00">juce::FileBasedDocument</text>
<text xml:space="preserve" text-anchor="middle" x="278.62" y="-124.12" font-family="Helvetica,sans-Serif" font-size="10.00">::Pimpl::saveAsInteractiveAsyncImpl</text>
</a>
</g>
</g>
<!-- Node1&#45;&gt;Node2 -->
<g id="edge1_Node000001_Node000002" class="edge">
<title>Node1&#45;&gt;Node2</title>
<g id="a_edge1_Node000001_Node000002"><a xlink:title=" ">
<path fill="none" stroke="#63b8ff" d="M155.92,-133.62C163.79,-133.62 171.85,-133.62 179.9,-133.62"/>
<polygon fill="#63b8ff" stroke="#63b8ff" points="179.73,-137.13 189.73,-133.63 179.73,-130.13 179.73,-137.13"/>
</a>
</g>
</g>
<!-- Node3 -->
<g id="Node000003" class="node">
<title>Node3</title>
<g id="a_Node000003"><a xlink:href="classjuce_1_1FileBasedDocument_1_1Pimpl.html#a1b2f79527aea27168aef865daa4e4e40" target="_top" xlink:title=" ">
<polygon fill="white" stroke="#666666" points="549,-148.88 401.75,-148.88 401.75,-118.38 549,-118.38 549,-148.88"/>
<text xml:space="preserve" text-anchor="start" x="409.75" y="-135.38" font-family="Helvetica,sans-Serif" font-size="10.00">juce::FileBasedDocument</text>
<text xml:space="preserve" text-anchor="middle" x="475.38" y="-124.12" font-family="Helvetica,sans-Serif" font-size="10.00">::Pimpl::saveAsInteractiveImpl</text>
</a>
</g>
</g>
<!-- Node2&#45;&gt;Node3 -->
<g id="edge2_Node000002_Node000003" class="edge">
<title>Node2&#45;&gt;Node3</title>
<g id="a_edge2_Node000002_Node000003"><a xlink:title=" ">
<path fill="none" stroke="#63b8ff" d="M366.18,-133.62C374.1,-133.62 382.11,-133.62 390.01,-133.62"/>
<polygon fill="#63b8ff" stroke="#63b8ff" points="389.96,-137.13 399.96,-133.63 389.96,-130.13 389.96,-137.13"/>
</a>
</g>
</g>
<!-- Node4 -->
<g id="Node000004" class="node">
<title>Node4</title>
<g id="a_Node000004"><a xlink:href="classjuce_1_1File.html#aec22e75cf76048360e1dda14d724d06d" target="_top" xlink:title=" ">
<polygon fill="white" stroke="#666666" points="694.38,-239.25 610.12,-239.25 610.12,-220 694.38,-220 694.38,-239.25"/>
<text xml:space="preserve" text-anchor="middle" x="652.25" y="-225.75" font-family="Helvetica,sans-Serif" font-size="10.00">juce::File::exists</text>
</a>
</g>
</g>
<!-- Node3&#45;&gt;Node4 -->
<g id="edge3_Node000003_Node000004" class="edge">
<title>Node3&#45;&gt;Node4</title>
<g id="a_edge3_Node000003_Node000004"><a xlink:title=" ">
<path fill="none" stroke="#63b8ff" d="M493.94,-149.31C514.43,-166.85 549.99,-194.97 585,-211.62 589.48,-213.76 594.25,-215.67 599.11,-217.38"/>
<polygon fill="#63b8ff" stroke="#63b8ff" points="597.75,-220.62 608.34,-220.35 599.89,-213.96 597.75,-220.62"/>
</a>
</g>
</g>
<!-- Node5 -->
<g id="Node000005" class="node">
<title>Node5</title>
<g id="a_Node000005"><a xlink:href="classjuce_1_1File.html#a2ddaa0281a3af3022c970199950e312e" target="_top" xlink:title=" ">
<polygon fill="#fff0f0" stroke="red" points="717.25,-202.25 587.25,-202.25 587.25,-183 717.25,-183 717.25,-202.25"/>
<text xml:space="preserve" text-anchor="middle" x="652.25" y="-188.75" font-family="Helvetica,sans-Serif" font-size="10.00">juce::File::getFileExtension</text>
</a>
</g>
</g>
<!-- Node3&#45;&gt;Node5 -->
<g id="edge4_Node000003_Node000005" class="edge">
<title>Node3&#45;&gt;Node5</title>
<g id="a_edge4_Node000003_Node000005"><a xlink:title=" ">
<path fill="none" stroke="#63b8ff" d="M515.27,-149.34C535.84,-157.38 561.6,-167.05 585,-174.62 590.12,-176.28 595.49,-177.91 600.87,-179.48"/>
<polygon fill="#63b8ff" stroke="#63b8ff" points="599.8,-182.81 610.38,-182.17 601.71,-176.08 599.8,-182.81"/>
</a>
</g>
</g>
<!-- Node7 -->
<g id="Node000007" class="node">
<title>Node7</title>
<g id="a_Node000007"><a xlink:href="classjuce_1_1String.html#a1f0c785b3834720c20a115ff82f138de" target="_top" xlink:title=" ">
<polygon fill="white" stroke="#666666" points="703.75,-165.25 600.75,-165.25 600.75,-146 703.75,-146 703.75,-165.25"/>
<text xml:space="preserve" text-anchor="middle" x="652.25" y="-151.75" font-family="Helvetica,sans-Serif" font-size="10.00">juce::String::isEmpty</text>
</a>
</g>
</g>
<!-- Node3&#45;&gt;Node7 -->
<g id="edge5_Node000003_Node000007" class="edge">
<title>Node3&#45;&gt;Node7</title>
<g id="a_edge5_Node000003_Node000007"><a xlink:title=" ">
<path fill="none" stroke="#63b8ff" d="M549.27,-142.8C562.54,-144.46 576.26,-146.19 589.18,-147.82"/>
<polygon fill="#63b8ff" stroke="#63b8ff" points="588.43,-151.25 598.78,-149.02 589.3,-144.3 588.43,-151.25"/>
</a>
</g>
</g>
<!-- Node8 -->
<g id="Node000008" class="node">
<title>Node8</title>
<g id="a_Node000008"><a xlink:href="classjuce_1_1FileBasedDocument.html#af0fd7685e1810b0fce525aa9e66970d6" target="_top" xlink:title=" ">
<polygon fill="#fff0f0" stroke="red" points="718,-127.88 586.5,-127.88 586.5,-97.38 718,-97.38 718,-127.88"/>
<text xml:space="preserve" text-anchor="start" x="594.5" y="-114.38" font-family="Helvetica,sans-Serif" font-size="10.00">juce::FileBasedDocument</text>
<text xml:space="preserve" text-anchor="middle" x="652.25" y="-103.12" font-family="Helvetica,sans-Serif" font-size="10.00">::setLastDocumentOpened</text>
</a>
</g>
</g>
<!-- Node3&#45;&gt;Node8 -->
<g id="edge6_Node000003_Node000008" class="edge">
<title>Node3&#45;&gt;Node8</title>
<g id="a_edge6_Node000003_Node000008"><a xlink:title=" ">
<path fill="none" stroke="#63b8ff" d="M549.27,-124.87C557.65,-123.87 566.21,-122.84 574.63,-121.83"/>
<polygon fill="#63b8ff" stroke="#63b8ff" points="574.99,-125.31 584.5,-120.64 574.15,-118.36 574.99,-125.31"/>
</a>
</g>
</g>
<!-- Node21 -->
<g id="Node000021" class="node">
<title>Node21</title>
<g id="a_Node000021"><a xlink:href="classjuce_1_1FileBasedDocument_1_1Pimpl_1_1SafeParentPointer.html#a4fe95678b9d6cf2599c1f943dae82f43" target="_top" xlink:title=" ">
<polygon fill="white" stroke="#666666" points="716.88,-79.5 587.62,-79.5 587.62,-37.75 716.88,-37.75 716.88,-79.5"/>
<text xml:space="preserve" text-anchor="start" x="595.62" y="-66" font-family="Helvetica,sans-Serif" font-size="10.00">juce::FileBasedDocument</text>
<text xml:space="preserve" text-anchor="start" x="595.62" y="-54.75" font-family="Helvetica,sans-Serif" font-size="10.00">::Pimpl::SafeParentPointer</text>
<text xml:space="preserve" text-anchor="middle" x="652.25" y="-43.5" font-family="Helvetica,sans-Serif" font-size="10.00">::shouldExitAsyncCallback</text>
</a>
</g>
</g>
<!-- Node3&#45;&gt;Node21 -->
<g id="edge7_Node000003_Node000021" class="edge">
<title>Node3&#45;&gt;Node21</title>
<g id="a_edge7_Node000003_Node000021"><a xlink:title=" ">
<path fill="none" stroke="#63b8ff" d="M513.03,-117.9C535.66,-108.2 565.22,-95.52 591.2,-84.38"/>
<polygon fill="#63b8ff" stroke="#63b8ff" points="592.5,-87.63 600.31,-80.47 589.74,-81.2 592.5,-87.63"/>
</a>
</g>
</g>
<!-- Node17 -->
<g id="Node000017" class="node">
<title>Node17</title>
<g id="a_Node000017"><a xlink:href="classjuce_1_1File.html#ac31f041a838c7fdde643ef556aa4e785" target="_top" xlink:title=" ">
<polygon fill="#fff0f0" stroke="red" points="719.5,-19.25 585,-19.25 585,0 719.5,0 719.5,-19.25"/>
<text xml:space="preserve" text-anchor="middle" x="652.25" y="-5.75" font-family="Helvetica,sans-Serif" font-size="10.00">juce::File::withFileExtension</text>
</a>
</g>
</g>
<!-- Node3&#45;&gt;Node17 -->
<g id="edge8_Node000003_Node000017" class="edge">
<title>Node3&#45;&gt;Node17</title>
<g id="a_edge8_Node000003_Node000017"><a xlink:title=" ">
<path fill="none" stroke="#63b8ff" d="M488.3,-117.98C506.61,-95.03 543.89,-52.37 585,-28.62 588.01,-26.89 591.19,-25.3 594.47,-23.85"/>
<polygon fill="#63b8ff" stroke="#63b8ff" points="595.7,-27.12 603.73,-20.22 593.15,-20.6 595.7,-27.12"/>
</a>
</g>
</g>
</g>
</svg>

<g id="navigator" transform="translate(0 0)" fill="#404254">
  <rect fill="#f2f5e9" fill-opacity="0.5" stroke="#606060" stroke-width=".5" x="0" y="0" width="60" height="60"/>
  <use id="zoomplus" xlink:href="#zoomPlus" x="17" y="9" onmousedown="handleZoom(evt,'in')"/>
  <use id="zoomminus" xlink:href="#zoomMin" x="42" y="9" onmousedown="handleZoom(evt,'out')"/>
  <use id="reset" xlink:href="#resetDef" x="30" y="36" onmousedown="handleReset()"/>
   <use id="arrowup" xlink:href="#arrowUp" x="0" y="0" onmousedown="handlePan(0,-1)"/>
  <use id="arrowright" xlink:href="#arrowRight" x="0" y="0" onmousedown="handlePan(1,0)"/>
  <use id="arrowdown" xlink:href="#arrowDown" x="0" y="0" onmousedown="handlePan(0,1)"/>
  <use id="arrowleft" xlink:href="#arrowLeft" x="0" y="0" onmousedown="handlePan(-1,0)"/>
</g>
<svg viewBox="0 0 15 15" width="100%" height="30px" preserveAspectRatio="xMaxYMin meet">
 <g id="arrow_out" transform="scale(0.3 0.3)">
  <a xlink:href="classjuce_1_1FileBasedDocument_1_1Pimpl_a91deeab00e09515d5f1ea3455cdb802a_cgraph_org.svg" target="_base">
   <rect id="button" ry="5" rx="5" y="6" x="6" height="38" width="38"
        fill="#f2f5e9" fill-opacity="0.5" stroke="#606060" stroke-width="1.0"/>
   <path id="arrow"
     d="M 11.500037,31.436501 C 11.940474,20.09759 22.043105,11.32322 32.158766,21.979434 L 37.068811,17.246167 C 37.068811,17.246167 37.088388,32 37.088388,32 L 22.160133,31.978069 C 22.160133,31.978069 26.997745,27.140456 26.997745,27.140456 C 18.528582,18.264221 13.291696,25.230495 11.500037,31.436501 z"
     style="fill:#404040;"/>
  </a>
 </g>
</svg>

<style type='text/css'>
<![CDATA[
[data-mouse-over-selected='false'] { opacity: 0.7; }
[data-mouse-over-selected='true']  { opacity: 1.0; }
]]>
</style>
<script type="application/ecmascript"><![CDATA[
document.addEventListener('DOMContentLoaded', (event) => {
  highlightEdges();
  highlightAdjacentNodes();
});
]]></script>
</svg>
