<?xml version="1.0" encoding="UTF-8" standalone="no"?>
<!DOCTYPE svg PUBLIC "-//W3C//DTD SVG 1.1//EN"
 "http://www.w3.org/Graphics/SVG/1.1/DTD/svg11.dtd">
<!-- Generated by graphviz version 14.0.2 (0)
 -->
<!-- Title: juce::XmlElement::addTextElement Pages: 1 -->
<svg width="652pt" height="88pt"
 viewBox="0.00 0.00 652.00 88.00" xmlns="http://www.w3.org/2000/svg" xmlns:xlink="http://www.w3.org/1999/xlink">
<g id="graph0" class="graph" transform="scale(1 1) rotate(0) translate(4 83.5)">
<title>juce::XmlElement::addTextElement</title>
<!-- Node1 -->
<g id="Node000001" class="node">
<title>Node1</title>
<g id="a_Node000001"><a xlink:title=" ">
<polygon fill="#999999" stroke="#666666" points="130,-54.5 0,-54.5 0,-24 130,-24 130,-54.5"/>
<text xml:space="preserve" text-anchor="start" x="8" y="-41" font-family="Helvetica,sans-Serif" font-size="10.00">juce::XmlElement::addText</text>
<text xml:space="preserve" text-anchor="middle" x="65" y="-29.75" font-family="Helvetica,sans-Serif" font-size="10.00">Element</text>
</a>
</g>
</g>
<!-- Node2 -->
<g id="Node000002" class="node">
<title>Node2</title>
<g id="a_Node000002"><a xlink:href="classjuce_1_1XmlElement.html#a3fc0d6a40e665d3596f9aaa367464d3c" target="_top" xlink:title=" ">
<polygon fill="white" stroke="#666666" points="299,-79.5 166,-79.5 166,-49 299,-49 299,-79.5"/>
<text xml:space="preserve" text-anchor="start" x="174" y="-66" font-family="Helvetica,sans-Serif" font-size="10.00">juce::XmlElement::addChild</text>
<text xml:space="preserve" text-anchor="middle" x="232.5" y="-54.75" font-family="Helvetica,sans-Serif" font-size="10.00">Element</text>
</a>
</g>
</g>
<!-- Node1&#45;&gt;Node2 -->
<g id="edge1_Node000001_Node000002" class="edge">
<title>Node1&#45;&gt;Node2</title>
<g id="a_edge1_Node000001_Node000002"><a xlink:title=" ">
<path fill="none" stroke="#63b8ff" d="M130.46,-48.99C138.3,-50.17 146.36,-51.39 154.35,-52.6"/>
<polygon fill="#63b8ff" stroke="#63b8ff" points="153.67,-56.03 164.08,-54.07 154.72,-49.11 153.67,-56.03"/>
</a>
</g>
</g>
<!-- Node7 -->
<g id="Node000007" class="node">
<title>Node7</title>
<g id="a_Node000007"><a xlink:href="classjuce_1_1XmlElement.html#a932a48afdd810a82619fd2b726fb6c23" target="_top" xlink:title=" ">
<polygon fill="white" stroke="#666666" points="293.75,-30.5 171.25,-30.5 171.25,0 293.75,0 293.75,-30.5"/>
<text xml:space="preserve" text-anchor="start" x="179.25" y="-17" font-family="Helvetica,sans-Serif" font-size="10.00">juce::XmlElement::create</text>
<text xml:space="preserve" text-anchor="middle" x="232.5" y="-5.75" font-family="Helvetica,sans-Serif" font-size="10.00">TextElement</text>
</a>
</g>
</g>
<!-- Node1&#45;&gt;Node7 -->
<g id="edge4_Node000001_Node000007" class="edge">
<title>Node1&#45;&gt;Node7</title>
<g id="a_edge4_Node000001_Node000007"><a xlink:title=" ">
<path fill="none" stroke="#63b8ff" d="M130.46,-29.9C140.05,-28.51 149.98,-27.07 159.71,-25.66"/>
<polygon fill="#63b8ff" stroke="#63b8ff" points="160.11,-29.14 169.51,-24.24 159.11,-22.21 160.11,-29.14"/>
</a>
</g>
</g>
<!-- Node3 -->
<g id="Node000003" class="node">
<title>Node3</title>
<g id="a_Node000003"><a xlink:href="classjuce_1_1XmlElement.html#a147b952a2a71a0a6ea555a1adb1b06b4" target="_top" xlink:title=" ">
<polygon fill="white" stroke="#666666" points="483,-48.88 335,-48.88 335,-29.62 483,-29.62 483,-48.88"/>
<text xml:space="preserve" text-anchor="middle" x="409" y="-35.38" font-family="Helvetica,sans-Serif" font-size="10.00">juce::XmlElement::XmlElement</text>
</a>
</g>
</g>
<!-- Node2&#45;&gt;Node3 -->
<g id="edge2_Node000002_Node000003" class="edge">
<title>Node2&#45;&gt;Node3</title>
<g id="a_edge2_Node000002_Node000003"><a xlink:title=" ">
<path fill="none" stroke="#63b8ff" d="M299.47,-54.8C308.23,-53.54 317.28,-52.25 326.26,-50.96"/>
<polygon fill="#63b8ff" stroke="#63b8ff" points="326.67,-54.44 336.07,-49.56 325.67,-47.51 326.67,-54.44"/>
</a>
</g>
</g>
<!-- Node4 -->
<g id="Node000004" class="node">
<title>Node4</title>
<g id="a_Node000004"><a xlink:href="classjuce_1_1XmlElement.html#ad9b6a06ea5dd3d5bef03b088f529f8db" target="_top" xlink:title=" ">
<polygon fill="#fff0f0" stroke="red" points="643.75,-54.5 519,-54.5 519,-24 643.75,-24 643.75,-54.5"/>
<text xml:space="preserve" text-anchor="start" x="527" y="-41" font-family="Helvetica,sans-Serif" font-size="10.00">juce::XmlElement::isValid</text>
<text xml:space="preserve" text-anchor="middle" x="581.38" y="-29.75" font-family="Helvetica,sans-Serif" font-size="10.00">XmlName</text>
</a>
</g>
</g>
<!-- Node3&#45;&gt;Node4 -->
<g id="edge3_Node000003_Node000004" class="edge">
<title>Node3&#45;&gt;Node4</title>
<g id="a_edge3_Node000003_Node000004"><a xlink:title=" ">
<path fill="none" stroke="#63b8ff" d="M483.24,-39.25C491.18,-39.25 499.26,-39.25 507.2,-39.25"/>
<polygon fill="#63b8ff" stroke="#63b8ff" points="507.18,-42.75 517.18,-39.25 507.18,-35.75 507.18,-42.75"/>
</a>
</g>
</g>
<!-- Node7&#45;&gt;Node3 -->
<g id="edge5_Node000007_Node000003" class="edge">
<title>Node7&#45;&gt;Node3</title>
<g id="a_edge5_Node000007_Node000003"><a xlink:title=" ">
<path fill="none" stroke="#63b8ff" d="M294.04,-23.58C303.55,-24.88 313.54,-26.26 323.47,-27.62"/>
<polygon fill="#63b8ff" stroke="#63b8ff" points="322.75,-31.06 333.14,-28.95 323.71,-24.12 322.75,-31.06"/>
</a>
</g>
</g>
</g>
</svg>
