<?xml version="1.0" encoding="UTF-8" standalone="no"?>
<!DOCTYPE svg PUBLIC "-//W3C//DTD SVG 1.1//EN"
 "http://www.w3.org/Graphics/SVG/1.1/DTD/svg11.dtd">
<!-- Generated by graphviz version 14.0.2 (0)
 -->
<!-- Title: juce::OwnedArray::add Pages: 1 -->
<!--zoomable 484 -->

<svg id="main" version="1.1" xmlns="http://www.w3.org/2000/svg" xmlns:xlink="http://www.w3.org/1999/xlink" xml:space="preserve" onload="init(evt)">

<style type="text/css"><![CDATA[
.node, .edge {opacity: 0.7;}
.node.selected, .edge.selected {opacity: 1;}
.edge:hover path { stroke: red; }
.edge:hover polygon { stroke: red; fill: red; }
]]></style>

<defs>
  <circle id="rim" cx="0" cy="0" r="7"/>
  <circle id="rim2" cx="0" cy="0" r="3.5"/>
  <g id="zoomPlus">
    <use xlink:href="#rim" fill="#404040"><set attributeName="fill" to="#808080" begin="zoomplus.mouseover" end="zoomplus.mouseout"/></use>
    <path d="M-4,0h8M0,-4v8" fill="none" stroke="white" stroke-width="1.5" pointer-events="none"/>
  </g>
  <g id="zoomMin">
    <use xlink:href="#rim" fill="#404040"><set attributeName="fill" to="#808080" begin="zoomminus.mouseover" end="zoomminus.mouseout"/></use>
    <path d="M-4,0h8" fill="none" stroke="white" stroke-width="1.5" pointer-events="none"/>
  </g>
  <g id="arrowUp" transform="translate(30 24)">
    <use xlink:href="#rim"/>
    <path pointer-events="none" fill="none" stroke="white" stroke-width="1.5" d="M0,-3.0v7 M-2.5,-0.5L0,-3.0L2.5,-0.5"/>
  </g>
  <g id="arrowRight" transform="rotate(90) translate(36 -43)">
    <use xlink:href="#rim"/>
    <path pointer-events="none" fill="none" stroke="white" stroke-width="1.5" d="M0,-3.0v7 M-2.5,-0.5L0,-3.0L2.5,-0.5"/>
  </g>
  <g id="arrowDown" transform="rotate(180) translate(-30 -48)">
    <use xlink:href="#rim"/>
    <path pointer-events="none" fill="none" stroke="white" stroke-width="1.5" d="M0,-3.0v7 M-2.5,-0.5L0,-3.0L2.5,-0.5"/>
  </g>
  <g id="arrowLeft" transform="rotate(270) translate(-36 17)">
    <use xlink:href="#rim"/>
    <path pointer-events="none" fill="none" stroke="white" stroke-width="1.5" d="M0,-3.0v7 M-2.5,-0.5L0,-3.0L2.5,-0.5"/>
  </g>
  <g id="resetDef">
    <use xlink:href="#rim2" fill="#404040"><set attributeName="fill" to="#808080" begin="reset.mouseover" end="reset.mouseout"/></use>
  </g>
</defs>
<script type="application/ecmascript">
var viewWidth = 704;
var viewHeight = 484;
var sectionId = 'dynsection-7';
</script>
<script type="application/ecmascript" xlink:href="svg.min.js"/>
<svg id="graph" class="graph">
<g id="viewport">
<title>juce::OwnedArray::add</title>
<!-- Node1 -->
<g id="Node000001" class="node">
<title>Node1</title>
<g id="a_Node000001"><a xlink:title=" ">
<polygon fill="#999999" stroke="#666666" points="696.25,-225.88 584.25,-225.88 584.25,-206.62 696.25,-206.62 696.25,-225.88"/>
<text xml:space="preserve" text-anchor="middle" x="640.25" y="-212.38" font-family="Helvetica,sans-Serif" font-size="10.00">juce::OwnedArray::add</text>
</a>
</g>
</g>
<!-- Node2 -->
<g id="Node000002" class="node">
<title>Node2</title>
<g id="a_Node000002"><a xlink:href="classjuce_1_1OwnedArray.html#a225ca27e9056048aacd7aa90b1ee83b0" target="_top" xlink:title=" ">
<polygon fill="white" stroke="#666666" points="522.38,-399.88 410.38,-399.88 410.38,-380.62 522.38,-380.62 522.38,-399.88"/>
<text xml:space="preserve" text-anchor="middle" x="466.38" y="-386.38" font-family="Helvetica,sans-Serif" font-size="10.00">juce::OwnedArray::add</text>
</a>
</g>
</g>
<!-- Node1&#45;&gt;Node2 -->
<g id="edge1_Node000001_Node000002" class="edge">
<title>Node1&#45;&gt;Node2</title>
<g id="a_edge1_Node000001_Node000002"><a xlink:title=" ">
<path fill="none" stroke="#63b8ff" d="M633.15,-237.07C622.08,-270.99 595.38,-337.83 548.25,-372.25 540.7,-377.76 531.77,-381.64 522.65,-384.35"/>
<polygon fill="#63b8ff" stroke="#63b8ff" points="636.46,-238.22 636.08,-227.63 629.77,-236.14 636.46,-238.22"/>
</a>
</g>
</g>
<!-- Node3 -->
<g id="Node000003" class="node">
<title>Node3</title>
<g id="a_Node000003"><a xlink:href="classjuce_1_1ThreadPool.html#a1197e29778cf12efee7375de84b62dfa" target="_top" xlink:title=" ">
<polygon fill="white" stroke="#666666" points="548.25,-344.88 384.5,-344.88 384.5,-325.62 548.25,-325.62 548.25,-344.88"/>
<text xml:space="preserve" text-anchor="middle" x="466.38" y="-331.38" font-family="Helvetica,sans-Serif" font-size="10.00">juce::ThreadPool::addToDeleteList</text>
</a>
</g>
</g>
<!-- Node1&#45;&gt;Node3 -->
<g id="edge2_Node000001_Node000003" class="edge">
<title>Node1&#45;&gt;Node3</title>
<g id="a_edge2_Node000001_Node000003"><a xlink:title=" ">
<path fill="none" stroke="#63b8ff" d="M626.35,-235.81C610.58,-258.15 581.81,-294.21 548.25,-314.25 540.65,-318.79 532.08,-322.35 523.44,-325.15"/>
<polygon fill="#63b8ff" stroke="#63b8ff" points="629.22,-237.82 631.98,-227.59 623.44,-233.86 629.22,-237.82"/>
</a>
</g>
</g>
<!-- Node10 -->
<g id="Node000010" class="node">
<title>Node10</title>
<g id="a_Node000010"><a xlink:href="namespacejuce.html#a727d3164eaff983bd9104230c48b9285" target="_top" xlink:title=" ">
<polygon fill="white" stroke="#666666" points="530.25,-286.88 402.5,-286.88 402.5,-267.62 530.25,-267.62 530.25,-286.88"/>
<text xml:space="preserve" text-anchor="middle" x="466.38" y="-273.38" font-family="Helvetica,sans-Serif" font-size="10.00">juce::getIconFromIcnsFile</text>
</a>
</g>
</g>
<!-- Node1&#45;&gt;Node10 -->
<g id="edge16_Node000001_Node000010" class="edge">
<title>Node1&#45;&gt;Node10</title>
<g id="a_edge16_Node000001_Node000010"><a xlink:title=" ">
<path fill="none" stroke="#63b8ff" d="M610.37,-231.4C592.78,-240.17 569.64,-250.89 548.25,-258.25 538.43,-261.63 527.74,-264.61 517.44,-267.15"/>
<polygon fill="#63b8ff" stroke="#63b8ff" points="611.85,-234.57 619.19,-226.93 608.69,-228.33 611.85,-234.57"/>
</a>
</g>
</g>
<!-- Node11 -->
<g id="Node000011" class="node">
<title>Node11</title>
<g id="a_Node000011"><a xlink:href="classjuce_1_1BufferingAudioReader.html#ae8060cd4881e143a8fef8d1d61b1e6a0" target="_top" xlink:title=" ">
<polygon fill="white" stroke="#666666" points="532.5,-231.5 400.25,-231.5 400.25,-201 532.5,-201 532.5,-231.5"/>
<text xml:space="preserve" text-anchor="start" x="408.25" y="-218" font-family="Helvetica,sans-Serif" font-size="10.00">juce::BufferingAudioReader</text>
<text xml:space="preserve" text-anchor="middle" x="466.38" y="-206.75" font-family="Helvetica,sans-Serif" font-size="10.00">::readNextBufferChunk</text>
</a>
</g>
</g>
<!-- Node1&#45;&gt;Node11 -->
<g id="edge18_Node000001_Node000011" class="edge">
<title>Node1&#45;&gt;Node11</title>
<g id="a_edge18_Node000001_Node000011"><a xlink:title=" ">
<path fill="none" stroke="#63b8ff" d="M572.62,-216.25C559.54,-216.25 545.83,-216.25 532.79,-216.25"/>
<polygon fill="#63b8ff" stroke="#63b8ff" points="572.41,-219.75 582.41,-216.25 572.41,-212.75 572.41,-219.75"/>
</a>
</g>
</g>
<!-- Node13 -->
<g id="Node000013" class="node">
<title>Node13</title>
<g id="a_Node000013"><a xlink:href="classjuce_1_1MixerAudioSource.html#a7c0d72b67c07797a461f5699aad976e4" target="_top" xlink:title=" ">
<polygon fill="white" stroke="#666666" points="525,-164.5 407.75,-164.5 407.75,-134 525,-134 525,-164.5"/>
<text xml:space="preserve" text-anchor="start" x="415.75" y="-151" font-family="Helvetica,sans-Serif" font-size="10.00">juce::MixerAudioSource</text>
<text xml:space="preserve" text-anchor="middle" x="466.38" y="-139.75" font-family="Helvetica,sans-Serif" font-size="10.00">::removeAllInputs</text>
</a>
</g>
</g>
<!-- Node1&#45;&gt;Node13 -->
<g id="edge22_Node000001_Node000013" class="edge">
<title>Node1&#45;&gt;Node13</title>
<g id="a_edge22_Node000001_Node000013"><a xlink:title=" ">
<path fill="none" stroke="#63b8ff" d="M603.02,-202.13C575.11,-191.25 536.55,-176.21 507.67,-164.96"/>
<polygon fill="#63b8ff" stroke="#63b8ff" points="601.52,-205.3 612.11,-205.67 604.06,-198.78 601.52,-205.3"/>
</a>
</g>
</g>
<!-- Node15 -->
<g id="Node000015" class="node">
<title>Node15</title>
<g id="a_Node000015"><a xlink:href="classjuce_1_1KnownPluginList.html#a2f50cad66021d808d47aec1860d1f6e8" target="_top" xlink:title=" ">
<polygon fill="white" stroke="#666666" points="522.38,-97.5 410.38,-97.5 410.38,-67 522.38,-67 522.38,-97.5"/>
<text xml:space="preserve" text-anchor="start" x="418.38" y="-84" font-family="Helvetica,sans-Serif" font-size="10.00">juce::KnownPluginList</text>
<text xml:space="preserve" text-anchor="middle" x="466.38" y="-72.75" font-family="Helvetica,sans-Serif" font-size="10.00">::scanAndAddFile</text>
</a>
</g>
</g>
<!-- Node1&#45;&gt;Node15 -->
<g id="edge26_Node000001_Node000015" class="edge">
<title>Node1&#45;&gt;Node15</title>
<g id="a_edge26_Node000001_Node000015"><a xlink:title=" ">
<path fill="none" stroke="#63b8ff" d="M623.63,-197.63C606.51,-177.99 577.58,-146.95 548.25,-125.25 534.06,-114.75 516.97,-105.27 502.16,-97.9"/>
<polygon fill="#63b8ff" stroke="#63b8ff" points="620.88,-199.8 630.04,-205.11 626.19,-195.24 620.88,-199.8"/>
</a>
</g>
</g>
<!-- Node17 -->
<g id="Node000017" class="node">
<title>Node17</title>
<g id="a_Node000017"><a xlink:href="classjuce_1_1ComponentBuilder.html#a56a51b14018929286c404df8113fe847" target="_top" xlink:title=" ">
<polygon fill="white" stroke="#666666" points="529.5,-30.5 403.25,-30.5 403.25,0 529.5,0 529.5,-30.5"/>
<text xml:space="preserve" text-anchor="start" x="411.25" y="-17" font-family="Helvetica,sans-Serif" font-size="10.00">juce::ComponentBuilder</text>
<text xml:space="preserve" text-anchor="middle" x="466.38" y="-5.75" font-family="Helvetica,sans-Serif" font-size="10.00">::updateChildComponents</text>
</a>
</g>
</g>
<!-- Node1&#45;&gt;Node17 -->
<g id="edge30_Node000001_Node000017" class="edge">
<title>Node1&#45;&gt;Node17</title>
<g id="a_edge30_Node000001_Node000017"><a xlink:title=" ">
<path fill="none" stroke="#63b8ff" d="M631.9,-196.06C619.21,-163.51 590.41,-99.01 548.25,-58.25 536.59,-46.98 521.38,-37.86 507.3,-30.97"/>
<polygon fill="#63b8ff" stroke="#63b8ff" points="628.5,-196.96 635.31,-205.08 635.05,-194.49 628.5,-196.96"/>
</a>
</g>
</g>
<!-- Node3&#45;&gt;Node3 -->
<g id="edge3_Node000003_Node000003" class="edge">
<title>Node3&#45;&gt;Node3</title>
<g id="a_edge3_Node000003_Node000003"><a xlink:title=" ">
<path fill="none" stroke="#63b8ff" d="M497.55,-355.94C493.96,-359.99 483.57,-362.88 466.38,-362.88 435.81,-362.88 426.74,-353.77 439.15,-345.16"/>
<polygon fill="#63b8ff" stroke="#63b8ff" points="500.85,-354.77 494.12,-346.58 494.28,-357.18 500.85,-354.77"/>
</a>
</g>
</g>
<!-- Node4 -->
<g id="Node000004" class="node">
<title>Node4</title>
<g id="a_Node000004"><a xlink:href="classjuce_1_1ThreadPool.html#a3301fca9e00f0aa37230d4f729b25f4e" target="_top" xlink:title=" ">
<polygon fill="white" stroke="#666666" points="328.62,-457.5 197.88,-457.5 197.88,-427 328.62,-427 328.62,-457.5"/>
<text xml:space="preserve" text-anchor="start" x="205.88" y="-444" font-family="Helvetica,sans-Serif" font-size="10.00">juce::ThreadPool::pickNext</text>
<text xml:space="preserve" text-anchor="middle" x="263.25" y="-432.75" font-family="Helvetica,sans-Serif" font-size="10.00">JobToRun</text>
</a>
</g>
</g>
<!-- Node3&#45;&gt;Node4 -->
<g id="edge4_Node000003_Node000004" class="edge">
<title>Node3&#45;&gt;Node4</title>
<g id="a_edge4_Node000003_Node000004"><a xlink:title=" ">
<path fill="none" stroke="#63b8ff" d="M424.06,-349.48C410.74,-355.13 396.36,-362.41 384.5,-371.25 364.79,-385.94 368.84,-399.43 348.5,-413.25 340.7,-418.55 331.83,-422.98 322.84,-426.64"/>
<polygon fill="#63b8ff" stroke="#63b8ff" points="425.08,-352.85 433.05,-345.87 422.47,-346.35 425.08,-352.85"/>
</a>
</g>
</g>
<!-- Node5 -->
<g id="Node000005" class="node">
<title>Node5</title>
<g id="a_Node000005"><a xlink:href="classjuce_1_1ThreadPool.html#a7096e08b93fd825a11e2c25d17d05c03" target="_top" xlink:title=" ">
<polygon fill="white" stroke="#666666" points="142,-429.88 0,-429.88 0,-410.62 142,-410.62 142,-429.88"/>
<text xml:space="preserve" text-anchor="middle" x="71" y="-416.38" font-family="Helvetica,sans-Serif" font-size="10.00">juce::ThreadPool::runNextJob</text>
</a>
</g>
</g>
<!-- Node3&#45;&gt;Node5 -->
<g id="edge15_Node000003_Node000005" class="edge">
<title>Node3&#45;&gt;Node5</title>
<g id="a_edge15_Node000003_Node000005"><a xlink:title=" ">
<path fill="none" stroke="#63b8ff" d="M433.63,-349.7C410.47,-359.69 378.1,-372.51 348.5,-380.25 279.63,-398.25 198.86,-408.75 142.46,-414.45"/>
<polygon fill="#63b8ff" stroke="#63b8ff" points="434.75,-353.03 442.5,-345.81 431.93,-346.62 434.75,-353.03"/>
</a>
</g>
</g>
<!-- Node6 -->
<g id="Node000006" class="node">
<title>Node6</title>
<g id="a_Node000006"><a xlink:href="classjuce_1_1ThreadPool.html#a857c6477cae0597630009846eab69969" target="_top" xlink:title=" ">
<polygon fill="white" stroke="#666666" points="325.62,-353.5 200.88,-353.5 200.88,-323 325.62,-323 325.62,-353.5"/>
<text xml:space="preserve" text-anchor="start" x="208.88" y="-340" font-family="Helvetica,sans-Serif" font-size="10.00">juce::ThreadPool::remove</text>
<text xml:space="preserve" text-anchor="middle" x="263.25" y="-328.75" font-family="Helvetica,sans-Serif" font-size="10.00">AllJobs</text>
</a>
</g>
</g>
<!-- Node3&#45;&gt;Node6 -->
<g id="edge8_Node000003_Node000006" class="edge">
<title>Node3&#45;&gt;Node6</title>
<g id="a_edge8_Node000003_Node000006"><a xlink:title=" ">
<path fill="none" stroke="#63b8ff" d="M372.69,-336.63C356.85,-336.87 340.75,-337.11 325.98,-337.33"/>
<polygon fill="#63b8ff" stroke="#63b8ff" points="372.69,-340.13 382.64,-336.48 372.59,-333.13 372.69,-340.13"/>
</a>
</g>
</g>
<!-- Node9 -->
<g id="Node000009" class="node">
<title>Node9</title>
<g id="a_Node000009"><a xlink:href="classjuce_1_1ThreadPool.html#ad99a84529b272e51aec64fdc53017792" target="_top" xlink:title=" ">
<polygon fill="white" stroke="#666666" points="333.5,-286.88 193,-286.88 193,-267.62 333.5,-267.62 333.5,-286.88"/>
<text xml:space="preserve" text-anchor="middle" x="263.25" y="-273.38" font-family="Helvetica,sans-Serif" font-size="10.00">juce::ThreadPool::removeJob</text>
</a>
</g>
</g>
<!-- Node3&#45;&gt;Node9 -->
<g id="edge13_Node000003_Node000009" class="edge">
<title>Node3&#45;&gt;Node9</title>
<g id="a_edge13_Node000003_Node000009"><a xlink:title=" ">
<path fill="none" stroke="#63b8ff" d="M414.07,-322.3C404.23,-319.71 394.03,-316.95 384.5,-314.25 354.24,-305.67 319.97,-295.04 295.78,-287.37"/>
<polygon fill="#63b8ff" stroke="#63b8ff" points="412.94,-325.62 423.5,-324.75 414.71,-318.84 412.94,-325.62"/>
</a>
</g>
</g>
<!-- Node4&#45;&gt;Node4 -->
<g id="edge5_Node000004_Node000004" class="edge">
<title>Node4&#45;&gt;Node4</title>
<g id="a_edge5_Node000004_Node000004"><a xlink:title=" ">
<path fill="none" stroke="#63b8ff" d="M295.49,-469.2C290.22,-472.97 279.47,-475.5 263.25,-475.5 233.59,-475.5 222.23,-467.06 229.18,-457.99"/>
<polygon fill="#63b8ff" stroke="#63b8ff" points="298.92,-469.91 297.07,-459.48 292.01,-468.79 298.92,-469.91"/>
</a>
</g>
</g>
<!-- Node4&#45;&gt;Node5 -->
<g id="edge6_Node000004_Node000005" class="edge">
<title>Node4&#45;&gt;Node5</title>
<g id="a_edge6_Node000004_Node000005"><a xlink:title=" ">
<path fill="none" stroke="#63b8ff" d="M186.14,-433.45C171.69,-431.78 156.63,-430.04 142.36,-428.39"/>
<polygon fill="#63b8ff" stroke="#63b8ff" points="185.74,-436.93 196.07,-434.6 186.54,-429.97 185.74,-436.93"/>
</a>
</g>
</g>
<!-- Node5&#45;&gt;Node5 -->
<g id="edge7_Node000005_Node000005" class="edge">
<title>Node5&#45;&gt;Node5</title>
<g id="a_edge7_Node000005_Node000005"><a xlink:title=" ">
<path fill="none" stroke="#63b8ff" d="M105.79,-440.6C102.13,-444.83 90.54,-447.88 71,-447.88 37.21,-447.88 27.17,-438.77 40.9,-430.16"/>
<polygon fill="#63b8ff" stroke="#63b8ff" points="109.01,-439.23 101.72,-431.54 102.62,-442.1 109.01,-439.23"/>
</a>
</g>
</g>
<!-- Node6&#45;&gt;Node6 -->
<g id="edge9_Node000006_Node000006" class="edge">
<title>Node6&#45;&gt;Node6</title>
<g id="a_edge9_Node000006_Node000006"><a xlink:title=" ">
<path fill="none" stroke="#63b8ff" d="M295.49,-365.2C290.22,-368.97 279.47,-371.5 263.25,-371.5 233.59,-371.5 222.23,-363.06 229.18,-353.99"/>
<polygon fill="#63b8ff" stroke="#63b8ff" points="298.92,-365.91 297.07,-355.48 292.01,-364.79 298.92,-365.91"/>
</a>
</g>
</g>
<!-- Node7 -->
<g id="Node000007" class="node">
<title>Node7</title>
<g id="a_Node000007"><a xlink:href="classjuce_1_1ThreadPool.html#aa04dba977e2f69eeb9e8312eefd66f76" target="_top" xlink:title=" ">
<polygon fill="white" stroke="#666666" points="133.38,-362.5 8.63,-362.5 8.63,-332 133.38,-332 133.38,-362.5"/>
<text xml:space="preserve" text-anchor="start" x="16.62" y="-349" font-family="Helvetica,sans-Serif" font-size="10.00">juce::ThreadPool::remove</text>
<text xml:space="preserve" text-anchor="middle" x="71" y="-337.75" font-family="Helvetica,sans-Serif" font-size="10.00">AllJobs</text>
</a>
</g>
</g>
<!-- Node6&#45;&gt;Node7 -->
<g id="edge10_Node000006_Node000007" class="edge">
<title>Node6&#45;&gt;Node7</title>
<g id="a_edge10_Node000006_Node000007"><a xlink:title=" ">
<path fill="none" stroke="#63b8ff" d="M189,-341.72C170.77,-342.58 151.4,-343.49 133.78,-344.33"/>
<polygon fill="#63b8ff" stroke="#63b8ff" points="189.15,-345.21 198.97,-341.24 188.82,-338.22 189.15,-345.21"/>
</a>
</g>
</g>
<!-- Node8 -->
<g id="Node000008" class="node">
<title>Node8</title>
<g id="a_Node000008"><a xlink:href="classjuce_1_1ThreadPool.html#a9b7a3a6f04746507a0be6892df85419b" target="_top" xlink:title=" ">
<polygon fill="white" stroke="#666666" points="117.25,-295.5 24.75,-295.5 24.75,-265 117.25,-265 117.25,-295.5"/>
<text xml:space="preserve" text-anchor="start" x="32.75" y="-282" font-family="Helvetica,sans-Serif" font-size="10.00">juce::ThreadPool::</text>
<text xml:space="preserve" text-anchor="middle" x="71" y="-270.75" font-family="Helvetica,sans-Serif" font-size="10.00">~ThreadPool</text>
</a>
</g>
</g>
<!-- Node6&#45;&gt;Node8 -->
<g id="edge11_Node000006_Node000008" class="edge">
<title>Node6&#45;&gt;Node8</title>
<g id="a_edge11_Node000006_Node000008"><a xlink:title=" ">
<path fill="none" stroke="#63b8ff" d="M195.68,-319.51C189.69,-317.75 183.73,-315.99 178,-314.25 158.12,-308.23 136.24,-301.27 117.55,-295.22"/>
<polygon fill="#63b8ff" stroke="#63b8ff" points="194.4,-322.78 204.98,-322.21 196.35,-316.06 194.4,-322.78"/>
</a>
</g>
</g>
<!-- Node8&#45;&gt;Node8 -->
<g id="edge12_Node000008_Node000008" class="edge">
<title>Node8&#45;&gt;Node8</title>
<g id="a_edge12_Node000008_Node000008"><a xlink:title=" ">
<path fill="none" stroke="#63b8ff" d="M103.24,-307.2C97.97,-310.97 87.22,-313.5 71,-313.5 41.34,-313.5 29.98,-305.06 36.93,-295.99"/>
<polygon fill="#63b8ff" stroke="#63b8ff" points="106.67,-307.91 104.82,-297.48 99.76,-306.79 106.67,-307.91"/>
</a>
</g>
</g>
<!-- Node9&#45;&gt;Node9 -->
<g id="edge14_Node000009_Node000009" class="edge">
<title>Node9&#45;&gt;Node9</title>
<g id="a_edge14_Node000009_Node000009"><a xlink:title=" ">
<path fill="none" stroke="#63b8ff" d="M298.04,-297.6C294.38,-301.83 282.79,-304.88 263.25,-304.88 229.46,-304.88 219.42,-295.77 233.15,-287.16"/>
<polygon fill="#63b8ff" stroke="#63b8ff" points="301.26,-296.23 293.97,-288.54 294.87,-299.1 301.26,-296.23"/>
</a>
</g>
</g>
<!-- Node10&#45;&gt;Node10 -->
<g id="edge17_Node000010_Node000010" class="edge">
<title>Node10&#45;&gt;Node10</title>
<g id="a_edge17_Node000010_Node000010"><a xlink:title=" ">
<path fill="none" stroke="#63b8ff" d="M497.55,-297.94C493.96,-301.99 483.57,-304.88 466.38,-304.88 435.81,-304.88 426.74,-295.77 439.15,-287.16"/>
<polygon fill="#63b8ff" stroke="#63b8ff" points="500.85,-296.77 494.12,-288.58 494.28,-299.18 500.85,-296.77"/>
</a>
</g>
</g>
<!-- Node11&#45;&gt;Node11 -->
<g id="edge19_Node000011_Node000011" class="edge">
<title>Node11&#45;&gt;Node11</title>
<g id="a_edge19_Node000011_Node000011"><a xlink:title=" ">
<path fill="none" stroke="#63b8ff" d="M495.53,-243.2C490.77,-246.97 481.05,-249.5 466.38,-249.5 439.55,-249.5 429.28,-241.06 435.56,-231.99"/>
<polygon fill="#63b8ff" stroke="#63b8ff" points="498.97,-243.89 496.97,-233.48 492.05,-242.87 498.97,-243.89"/>
</a>
</g>
</g>
<!-- Node12 -->
<g id="Node000012" class="node">
<title>Node12</title>
<g id="a_Node000012"><a xlink:href="classjuce_1_1BufferingAudioReader.html#aeb70f2399c8efce86a18fd58ab2d4bd2" target="_top" xlink:title=" ">
<polygon fill="white" stroke="#666666" points="329.38,-231.5 197.12,-231.5 197.12,-201 329.38,-201 329.38,-231.5"/>
<text xml:space="preserve" text-anchor="start" x="205.12" y="-218" font-family="Helvetica,sans-Serif" font-size="10.00">juce::BufferingAudioReader</text>
<text xml:space="preserve" text-anchor="middle" x="263.25" y="-206.75" font-family="Helvetica,sans-Serif" font-size="10.00">::useTimeSlice</text>
</a>
</g>
</g>
<!-- Node11&#45;&gt;Node12 -->
<g id="edge20_Node000011_Node000012" class="edge">
<title>Node11&#45;&gt;Node12</title>
<g id="a_edge20_Node000011_Node000012"><a xlink:title=" ">
<path fill="none" stroke="#63b8ff" d="M388.55,-216.25C369.16,-216.25 348.51,-216.25 329.74,-216.25"/>
<polygon fill="#63b8ff" stroke="#63b8ff" points="388.28,-219.75 398.28,-216.25 388.28,-212.75 388.28,-219.75"/>
</a>
</g>
</g>
<!-- Node12&#45;&gt;Node12 -->
<g id="edge21_Node000012_Node000012" class="edge">
<title>Node12&#45;&gt;Node12</title>
<g id="a_edge21_Node000012_Node000012"><a xlink:title=" ">
<path fill="none" stroke="#63b8ff" d="M295.49,-243.2C290.22,-246.97 279.47,-249.5 263.25,-249.5 233.59,-249.5 222.23,-241.06 229.18,-231.99"/>
<polygon fill="#63b8ff" stroke="#63b8ff" points="298.92,-243.91 297.07,-233.48 292.01,-242.79 298.92,-243.91"/>
</a>
</g>
</g>
<!-- Node13&#45;&gt;Node13 -->
<g id="edge23_Node000013_Node000013" class="edge">
<title>Node13&#45;&gt;Node13</title>
<g id="a_edge23_Node000013_Node000013"><a xlink:title=" ">
<path fill="none" stroke="#63b8ff" d="M495.53,-176.2C490.77,-179.97 481.05,-182.5 466.38,-182.5 439.55,-182.5 429.28,-174.06 435.56,-164.99"/>
<polygon fill="#63b8ff" stroke="#63b8ff" points="498.97,-176.89 496.97,-166.48 492.05,-175.87 498.97,-176.89"/>
</a>
</g>
</g>
<!-- Node14 -->
<g id="Node000014" class="node">
<title>Node14</title>
<g id="a_Node000014"><a xlink:href="classjuce_1_1MixerAudioSource.html#acae465ae1a91ab302a7b22050fb7cef7" target="_top" xlink:title=" ">
<polygon fill="white" stroke="#666666" points="321.88,-164.5 204.62,-164.5 204.62,-134 321.88,-134 321.88,-164.5"/>
<text xml:space="preserve" text-anchor="start" x="212.62" y="-151" font-family="Helvetica,sans-Serif" font-size="10.00">juce::MixerAudioSource</text>
<text xml:space="preserve" text-anchor="middle" x="263.25" y="-139.75" font-family="Helvetica,sans-Serif" font-size="10.00">::~MixerAudioSource</text>
</a>
</g>
</g>
<!-- Node13&#45;&gt;Node14 -->
<g id="edge24_Node000013_Node000014" class="edge">
<title>Node13&#45;&gt;Node14</title>
<g id="a_edge24_Node000013_Node000014"><a xlink:title=" ">
<path fill="none" stroke="#63b8ff" d="M396.22,-149.25C372.07,-149.25 345.23,-149.25 322.09,-149.25"/>
<polygon fill="#63b8ff" stroke="#63b8ff" points="395.96,-152.75 405.96,-149.25 395.96,-145.75 395.96,-152.75"/>
</a>
</g>
</g>
<!-- Node14&#45;&gt;Node14 -->
<g id="edge25_Node000014_Node000014" class="edge">
<title>Node14&#45;&gt;Node14</title>
<g id="a_edge25_Node000014_Node000014"><a xlink:title=" ">
<path fill="none" stroke="#63b8ff" d="M295.49,-176.2C290.22,-179.97 279.47,-182.5 263.25,-182.5 233.59,-182.5 222.23,-174.06 229.18,-164.99"/>
<polygon fill="#63b8ff" stroke="#63b8ff" points="298.92,-176.91 297.07,-166.48 292.01,-175.79 298.92,-176.91"/>
</a>
</g>
</g>
<!-- Node15&#45;&gt;Node15 -->
<g id="edge29_Node000015_Node000015" class="edge">
<title>Node15&#45;&gt;Node15</title>
<g id="a_edge29_Node000015_Node000015"><a xlink:title=" ">
<path fill="none" stroke="#63b8ff" d="M495.53,-109.2C490.77,-112.97 481.05,-115.5 466.38,-115.5 439.55,-115.5 429.28,-107.06 435.56,-97.99"/>
<polygon fill="#63b8ff" stroke="#63b8ff" points="498.97,-109.89 496.97,-99.48 492.05,-108.87 498.97,-109.89"/>
</a>
</g>
</g>
<!-- Node16 -->
<g id="Node000016" class="node">
<title>Node16</title>
<g id="a_Node000016"><a xlink:href="classjuce_1_1KnownPluginList.html#a73def62dbd2469cd05f4e9c71166ce35" target="_top" xlink:title=" ">
<polygon fill="white" stroke="#666666" points="348.5,-97.5 178,-97.5 178,-67 348.5,-67 348.5,-97.5"/>
<text xml:space="preserve" text-anchor="start" x="186" y="-84" font-family="Helvetica,sans-Serif" font-size="10.00">juce::KnownPluginList</text>
<text xml:space="preserve" text-anchor="middle" x="263.25" y="-72.75" font-family="Helvetica,sans-Serif" font-size="10.00">::scanAndAddDragAndDroppedFiles</text>
</a>
</g>
</g>
<!-- Node15&#45;&gt;Node16 -->
<g id="edge27_Node000015_Node000016" class="edge">
<title>Node15&#45;&gt;Node16</title>
<g id="a_edge27_Node000015_Node000016"><a xlink:title=" ">
<path fill="none" stroke="#63b8ff" d="M398.57,-82.25C382.69,-82.25 365.53,-82.25 348.96,-82.25"/>
<polygon fill="#63b8ff" stroke="#63b8ff" points="398.37,-85.75 408.37,-82.25 398.37,-78.75 398.37,-85.75"/>
</a>
</g>
</g>
<!-- Node16&#45;&gt;Node16 -->
<g id="edge28_Node000016_Node000016" class="edge">
<title>Node16&#45;&gt;Node16</title>
<g id="a_edge28_Node000016_Node000016"><a xlink:title=" ">
<path fill="none" stroke="#63b8ff" d="M295.49,-109.2C290.22,-112.97 279.47,-115.5 263.25,-115.5 233.59,-115.5 222.23,-107.06 229.18,-97.99"/>
<polygon fill="#63b8ff" stroke="#63b8ff" points="298.92,-109.91 297.07,-99.48 292.01,-108.79 298.92,-109.91"/>
</a>
</g>
</g>
<!-- Node17&#45;&gt;Node17 -->
<g id="edge31_Node000017_Node000017" class="edge">
<title>Node17&#45;&gt;Node17</title>
<g id="a_edge31_Node000017_Node000017"><a xlink:title=" ">
<path fill="none" stroke="#63b8ff" d="M495.53,-42.2C490.77,-45.97 481.05,-48.5 466.38,-48.5 439.55,-48.5 429.28,-40.06 435.56,-30.99"/>
<polygon fill="#63b8ff" stroke="#63b8ff" points="498.97,-42.89 496.97,-32.48 492.05,-41.87 498.97,-42.89"/>
</a>
</g>
</g>
</g>
</svg>

<g id="navigator" transform="translate(0 0)" fill="#404254">
  <rect fill="#f2f5e9" fill-opacity="0.5" stroke="#606060" stroke-width=".5" x="0" y="0" width="60" height="60"/>
  <use id="zoomplus" xlink:href="#zoomPlus" x="17" y="9" onmousedown="handleZoom(evt,'in')"/>
  <use id="zoomminus" xlink:href="#zoomMin" x="42" y="9" onmousedown="handleZoom(evt,'out')"/>
  <use id="reset" xlink:href="#resetDef" x="30" y="36" onmousedown="handleReset()"/>
   <use id="arrowup" xlink:href="#arrowUp" x="0" y="0" onmousedown="handlePan(0,-1)"/>
  <use id="arrowright" xlink:href="#arrowRight" x="0" y="0" onmousedown="handlePan(1,0)"/>
  <use id="arrowdown" xlink:href="#arrowDown" x="0" y="0" onmousedown="handlePan(0,1)"/>
  <use id="arrowleft" xlink:href="#arrowLeft" x="0" y="0" onmousedown="handlePan(-1,0)"/>
</g>
<svg viewBox="0 0 15 15" width="100%" height="30px" preserveAspectRatio="xMaxYMin meet">
 <g id="arrow_out" transform="scale(0.3 0.3)">
  <a xlink:href="classjuce_1_1OwnedArray_a6e8d229d0e1f406460a410c8e04a10f7_icgraph_org.svg" target="_base">
   <rect id="button" ry="5" rx="5" y="6" x="6" height="38" width="38"
        fill="#f2f5e9" fill-opacity="0.5" stroke="#606060" stroke-width="1.0"/>
   <path id="arrow"
     d="M 11.500037,31.436501 C 11.940474,20.09759 22.043105,11.32322 32.158766,21.979434 L 37.068811,17.246167 C 37.068811,17.246167 37.088388,32 37.088388,32 L 22.160133,31.978069 C 22.160133,31.978069 26.997745,27.140456 26.997745,27.140456 C 18.528582,18.264221 13.291696,25.230495 11.500037,31.436501 z"
     style="fill:#404040;"/>
  </a>
 </g>
</svg>

<style type='text/css'>
<![CDATA[
[data-mouse-over-selected='false'] { opacity: 0.7; }
[data-mouse-over-selected='true']  { opacity: 1.0; }
]]>
</style>
<script type="application/ecmascript"><![CDATA[
document.addEventListener('DOMContentLoaded', (event) => {
  highlightEdges();
  highlightAdjacentNodes();
});
]]></script>
</svg>
