<?xml version="1.0" encoding="UTF-8" standalone="no"?>
<!DOCTYPE svg PUBLIC "-//W3C//DTD SVG 1.1//EN"
 "http://www.w3.org/Graphics/SVG/1.1/DTD/svg11.dtd">
<!-- Generated by graphviz version 14.0.2 (0)
 -->
<!-- Title: lmms::Track::setColor Pages: 1 -->
<svg width="621pt" height="137pt"
 viewBox="0.00 0.00 621.00 137.00" xmlns="http://www.w3.org/2000/svg" xmlns:xlink="http://www.w3.org/1999/xlink">
<g id="graph0" class="graph" transform="scale(1 1) rotate(0) translate(4 132.5)">
<title>lmms::Track::setColor</title>
<!-- Node1 -->
<g id="Node000001" class="node">
<title>Node1</title>
<g id="a_Node000001"><a xlink:title=" ">
<polygon fill="#999999" stroke="#666666" points="613,-36.88 503.25,-36.88 503.25,-17.62 613,-17.62 613,-36.88"/>
<text xml:space="preserve" text-anchor="middle" x="558.12" y="-23.38" font-family="Helvetica,sans-Serif" font-size="10.00">lmms::Track::setColor</text>
</a>
</g>
</g>
<!-- Node2 -->
<g id="Node000002" class="node">
<title>Node2</title>
<g id="a_Node000002"><a xlink:href="classlmms_1_1Track.html#af60eb069d7dd7bf53a293de7daf225a6" target="_top" xlink:title="Load the settings from a file.">
<polygon fill="white" stroke="#666666" points="467.25,-36.88 350.75,-36.88 350.75,-17.62 467.25,-17.62 467.25,-36.88"/>
<text xml:space="preserve" text-anchor="middle" x="409" y="-23.38" font-family="Helvetica,sans-Serif" font-size="10.00">lmms::Track::loadTrack</text>
</a>
</g>
</g>
<!-- Node1&#45;&gt;Node2 -->
<g id="edge1_Node000001_Node000002" class="edge">
<title>Node1&#45;&gt;Node2</title>
<g id="a_edge1_Node000001_Node000002"><a xlink:title=" ">
<path fill="none" stroke="#63b8ff" d="M491.31,-27.25C483.4,-27.25 475.37,-27.25 467.6,-27.25"/>
<polygon fill="#63b8ff" stroke="#63b8ff" points="491.25,-30.75 501.25,-27.25 491.25,-23.75 491.25,-30.75"/>
</a>
</g>
</g>
<!-- Node3 -->
<g id="Node000003" class="node">
<title>Node3</title>
<g id="a_Node000003"><a xlink:href="classlmms_1_1Track.html#a972fffba646e8eb294c5fcb4ff466c26" target="_top" xlink:title=" ">
<polygon fill="white" stroke="#666666" points="311,-73.88 190.75,-73.88 190.75,-54.62 311,-54.62 311,-73.88"/>
<text xml:space="preserve" text-anchor="middle" x="250.88" y="-60.38" font-family="Helvetica,sans-Serif" font-size="10.00">lmms::Track::loadPreset</text>
</a>
</g>
</g>
<!-- Node2&#45;&gt;Node3 -->
<g id="edge2_Node000002_Node000003" class="edge">
<title>Node2&#45;&gt;Node3</title>
<g id="a_edge2_Node000002_Node000003"><a xlink:title=" ">
<path fill="none" stroke="#63b8ff" d="M354.15,-40.01C334.64,-44.63 312.89,-49.79 294.49,-54.15"/>
<polygon fill="#63b8ff" stroke="#63b8ff" points="354.94,-43.42 363.87,-37.71 353.33,-36.61 354.94,-43.42"/>
</a>
</g>
</g>
<!-- Node17 -->
<g id="Node000017" class="node">
<title>Node17</title>
<g id="a_Node000017"><a xlink:href="classlmms_1_1Track.html#aee30f9954d1240a9641772d363307e82" target="_top" xlink:title=" ">
<polygon fill="white" stroke="#666666" points="314.75,-36.88 187,-36.88 187,-17.62 314.75,-17.62 314.75,-36.88"/>
<text xml:space="preserve" text-anchor="middle" x="250.88" y="-23.38" font-family="Helvetica,sans-Serif" font-size="10.00">lmms::Track::loadSettings</text>
</a>
</g>
</g>
<!-- Node2&#45;&gt;Node17 -->
<g id="edge7_Node000002_Node000017" class="edge">
<title>Node2&#45;&gt;Node17</title>
<g id="a_edge7_Node000002_Node000017"><a xlink:title=" ">
<path fill="none" stroke="#63b8ff" d="M338.86,-27.25C330.95,-27.25 322.93,-27.25 315.11,-27.25"/>
<polygon fill="#63b8ff" stroke="#63b8ff" points="338.79,-30.75 348.79,-27.25 338.79,-23.75 338.79,-30.75"/>
</a>
</g>
</g>
<!-- Node4 -->
<g id="Node000004" class="node">
<title>Node4</title>
<g id="a_Node000004"><a xlink:href="classlmms_1_1gui_1_1TrackContainerView.html#a080800c3d13c42dcbd652f9a495405ff" target="_top" xlink:title=" ">
<polygon fill="#fff0f0" stroke="red" points="139.38,-128.5 11.62,-128.5 11.62,-98 139.38,-98 139.38,-128.5"/>
<text xml:space="preserve" text-anchor="start" x="19.62" y="-115" font-family="Helvetica,sans-Serif" font-size="10.00">lmms::gui::TrackContainer</text>
<text xml:space="preserve" text-anchor="middle" x="75.5" y="-103.75" font-family="Helvetica,sans-Serif" font-size="10.00">View::dropEvent</text>
</a>
</g>
</g>
<!-- Node3&#45;&gt;Node4 -->
<g id="edge3_Node000003_Node000004" class="edge">
<title>Node3&#45;&gt;Node4</title>
<g id="a_edge3_Node000003_Node000004"><a xlink:title=" ">
<path fill="none" stroke="#63b8ff" d="M203.34,-77.4C181.41,-83.6 155.07,-91.04 132.1,-97.54"/>
<polygon fill="#63b8ff" stroke="#63b8ff" points="204.24,-80.78 212.92,-74.7 202.34,-74.05 204.24,-80.78"/>
</a>
</g>
</g>
<!-- Node6 -->
<g id="Node000006" class="node">
<title>Node6</title>
<g id="a_Node000006"><a xlink:href="classlmms_1_1Track.html#a9ac95f1a5fbc42fb9b2172486c01037a" target="_top" xlink:title=" ">
<polygon fill="white" stroke="#666666" points="151,-30.5 0,-30.5 0,0 151,0 151,-30.5"/>
<text xml:space="preserve" text-anchor="start" x="8" y="-17" font-family="Helvetica,sans-Serif" font-size="10.00">lmms::Track::loadTrackSpecific</text>
<text xml:space="preserve" text-anchor="middle" x="75.5" y="-5.75" font-family="Helvetica,sans-Serif" font-size="10.00">Settings</text>
</a>
</g>
</g>
<!-- Node3&#45;&gt;Node6 -->
<g id="edge4_Node000003_Node000006" class="edge">
<title>Node3&#45;&gt;Node6</title>
<g id="a_edge4_Node000003_Node000006"><a xlink:title=" ">
<path fill="none" stroke="#63b8ff" d="M203.34,-51.1C181.41,-44.9 155.07,-37.46 132.1,-30.96"/>
<polygon fill="#63b8ff" stroke="#63b8ff" points="202.34,-54.45 212.92,-53.8 204.24,-47.72 202.34,-54.45"/>
</a>
</g>
</g>
<!-- Node7 -->
<g id="Node000007" class="node">
<title>Node7</title>
<g id="a_Node000007"><a xlink:href="classlmms_1_1InstrumentTrack.html#a182732355befc0545cf4798ba30f16da" target="_top" xlink:title=" ">
<polygon fill="#fff0f0" stroke="red" points="133.38,-79.5 17.62,-79.5 17.62,-49 133.38,-49 133.38,-79.5"/>
<text xml:space="preserve" text-anchor="start" x="25.62" y="-66" font-family="Helvetica,sans-Serif" font-size="10.00">lmms::InstrumentTrack</text>
<text xml:space="preserve" text-anchor="middle" x="75.5" y="-54.75" font-family="Helvetica,sans-Serif" font-size="10.00">::replaceInstrument</text>
</a>
</g>
</g>
<!-- Node3&#45;&gt;Node7 -->
<g id="edge6_Node000003_Node000007" class="edge">
<title>Node3&#45;&gt;Node7</title>
<g id="a_edge6_Node000003_Node000007"><a xlink:title=" ">
<path fill="none" stroke="#63b8ff" d="M179.26,-64.25C164.09,-64.25 148.24,-64.25 133.66,-64.25"/>
<polygon fill="#63b8ff" stroke="#63b8ff" points="179.18,-67.75 189.18,-64.25 179.18,-60.75 179.18,-67.75"/>
</a>
</g>
</g>
<!-- Node6&#45;&gt;Node2 -->
<g id="edge5_Node000006_Node000002" class="edge">
<title>Node6&#45;&gt;Node2</title>
<g id="a_edge5_Node000006_Node000002"><a xlink:title=" ">
<path fill="none" stroke="#63b8ff" d="M162.54,-7.35C207.92,-4.54 264.46,-3.18 314.75,-8.25 332.17,-10.01 351.16,-13.57 367.42,-17.13"/>
<polygon fill="#63b8ff" stroke="#63b8ff" points="162.52,-3.85 152.77,-7.99 162.98,-10.83 162.52,-3.85"/>
</a>
</g>
</g>
<!-- Node17&#45;&gt;Node6 -->
<g id="edge8_Node000017_Node000006" class="edge">
<title>Node17&#45;&gt;Node6</title>
<g id="a_edge8_Node000017_Node000006"><a xlink:title=" ">
<path fill="none" stroke="#63b8ff" d="M175.56,-22.11C167.53,-21.55 159.36,-20.99 151.32,-20.43"/>
<polygon fill="#63b8ff" stroke="#63b8ff" points="175.06,-25.58 185.28,-22.78 175.55,-18.6 175.06,-25.58"/>
</a>
</g>
</g>
</g>
</svg>
