<?xml version="1.0" encoding="UTF-8" standalone="no"?>
<!DOCTYPE svg PUBLIC "-//W3C//DTD SVG 1.1//EN"
 "http://www.w3.org/Graphics/SVG/1.1/DTD/svg11.dtd">
<!-- Generated by graphviz version 14.0.2 (0)
 -->
<!-- Title: Scc_Apu::write Pages: 1 -->
<svg width="350pt" height="82pt"
 viewBox="0.00 0.00 350.00 82.00" xmlns="http://www.w3.org/2000/svg" xmlns:xlink="http://www.w3.org/1999/xlink">

<svg id="main" version="1.1" xmlns="http://www.w3.org/2000/svg" xmlns:xlink="http://www.w3.org/1999/xlink" xml:space="preserve">

<style type="text/css"><![CDATA[
.node, .edge {opacity: 0.7;}
.node.selected, .edge.selected {opacity: 1;}
.edge:hover path { stroke: red; }
.edge:hover polygon { stroke: red; fill: red; }
]]></style>
<script type="application/ecmascript" xlink:href="svg.min.js"/>
<svg id="graph" class="graph">
<g id="graph0" class="graph" transform="scale(1 1) rotate(0) translate(4 78.25)">
<title>Scc_Apu::write</title>
<!-- Node1 -->
<g id="Node000001" class="node">
<title>Node1</title>
<g id="a_Node000001"><a xlink:title=" ">
<polygon fill="#999999" stroke="#666666" points="81.25,-55.25 0,-55.25 0,-36 81.25,-36 81.25,-55.25"/>
<text xml:space="preserve" text-anchor="middle" x="40.62" y="-41.75" font-family="Helvetica,sans-Serif" font-size="10.00">Scc_Apu::write</text>
</a>
</g>
</g>
<!-- Node2 -->
<g id="Node000002" class="node">
<title>Node2</title>
<g id="a_Node000002"><a xlink:href="Spc__Cpu_8h.html#a2569713fe026f7b153bba6e89d64498f" target="_top" xlink:title=" ">
<polygon fill="white" stroke="#666666" points="187.25,-74.25 144.25,-74.25 144.25,-55 187.25,-55 187.25,-74.25"/>
<text xml:space="preserve" text-anchor="middle" x="165.75" y="-60.75" font-family="Helvetica,sans-Serif" font-size="10.00">assert</text>
</a>
</g>
</g>
<!-- Node1&#45;&gt;Node2 -->
<g id="edge1_Node000001_Node000002" class="edge">
<title>Node1&#45;&gt;Node2</title>
<g id="a_edge1_Node000001_Node000002"><a xlink:title=" ">
<path fill="none" stroke="#63b8ff" d="M81.6,-51.79C98.16,-54.35 117.11,-57.27 132.73,-59.68"/>
<polygon fill="#63b8ff" stroke="#63b8ff" points="132.02,-63.12 142.44,-61.18 133.09,-56.2 132.02,-63.12"/>
</a>
</g>
</g>
<!-- Node3 -->
<g id="Node000003" class="node">
<title>Node3</title>
<g id="a_Node000003"><a xlink:href="classScc__Apu.html#a9e3ba4251f02e8c6763f005b5a8577de" target="_top" xlink:title=" ">
<polygon fill="white" stroke="#666666" points="214.25,-37.25 117.25,-37.25 117.25,-18 214.25,-18 214.25,-37.25"/>
<text xml:space="preserve" text-anchor="middle" x="165.75" y="-23.75" font-family="Helvetica,sans-Serif" font-size="10.00">Scc_Apu::run_until</text>
</a>
</g>
</g>
<!-- Node1&#45;&gt;Node3 -->
<g id="edge2_Node000001_Node000003" class="edge">
<title>Node1&#45;&gt;Node3</title>
<g id="a_edge2_Node000001_Node000003"><a xlink:title=" ">
<path fill="none" stroke="#63b8ff" d="M81.6,-39.78C89.24,-38.66 97.38,-37.47 105.47,-36.29"/>
<polygon fill="#63b8ff" stroke="#63b8ff" points="105.93,-39.76 115.32,-34.85 104.92,-32.83 105.93,-39.76"/>
</a>
</g>
</g>
<!-- Node4 -->
<g id="Node000004" class="node">
<title>Node4</title>
<g id="a_Node000004"><a xlink:href="classScc__Apu.html#ac32d257bb3da41f4c5a3c4f959996b09" target="_top" xlink:title=" ">
<polygon fill="white" stroke="#666666" points="339.75,-56.25 252.5,-56.25 252.5,-37 339.75,-37 339.75,-56.25"/>
<text xml:space="preserve" text-anchor="middle" x="296.12" y="-42.75" font-family="Helvetica,sans-Serif" font-size="10.00">Scc_Apu::output</text>
</a>
</g>
</g>
<!-- Node3&#45;&gt;Node4 -->
<g id="edge3_Node000003_Node000004" class="edge">
<title>Node3&#45;&gt;Node4</title>
<g id="a_edge3_Node000003_Node000004"><a xlink:title=" ">
<path fill="none" stroke="#63b8ff" d="M214.55,-34.7C223.18,-35.98 232.22,-37.32 241.01,-38.62"/>
<polygon fill="#63b8ff" stroke="#63b8ff" points="240.46,-42.07 250.86,-40.07 241.48,-35.15 240.46,-42.07"/>
</a>
</g>
</g>
<!-- Node5 -->
<g id="Node000005" class="node">
<title>Node5</title>
<g id="a_Node000005"><a xlink:href="classScc__Apu.html#a9683b018b4ec137e293a6e907a581159" target="_top" xlink:title=" ">
<polygon fill="white" stroke="#666666" points="342,-19.25 250.25,-19.25 250.25,0 342,0 342,-19.25"/>
<text xml:space="preserve" text-anchor="middle" x="296.12" y="-5.75" font-family="Helvetica,sans-Serif" font-size="10.00">Scc_Apu::volume</text>
</a>
</g>
</g>
<!-- Node3&#45;&gt;Node5 -->
<g id="edge5_Node000003_Node000005" class="edge">
<title>Node3&#45;&gt;Node5</title>
<g id="a_edge5_Node000003_Node000005"><a xlink:title=" ">
<path fill="none" stroke="#63b8ff" d="M214.55,-20.92C222.4,-19.82 230.6,-18.67 238.64,-17.55"/>
<polygon fill="#63b8ff" stroke="#63b8ff" points="238.92,-21.04 248.34,-16.19 237.95,-14.11 238.92,-21.04"/>
</a>
</g>
</g>
<!-- Node4&#45;&gt;Node4 -->
<g id="edge4_Node000004_Node000004" class="edge">
<title>Node4&#45;&gt;Node4</title>
<g id="a_edge4_Node000004_Node000004"><a xlink:title=" ">
<path fill="none" stroke="#63b8ff" d="M275.71,-56.54C266.4,-65.15 273.21,-74.25 296.12,-74.25 308.66,-74.25 316.37,-71.53 319.27,-67.65"/>
<polygon fill="#63b8ff" stroke="#63b8ff" points="322.68,-66.88 316.9,-58.01 315.88,-68.55 322.68,-66.88"/>
</a>
</g>
</g>
</g>
</svg>
</svg>

<style type='text/css'>
<![CDATA[
[data-mouse-over-selected='false'] { opacity: 0.7; }
[data-mouse-over-selected='true']  { opacity: 1.0; }
]]>
</style>
<script type="application/ecmascript"><![CDATA[
document.addEventListener('DOMContentLoaded', (event) => {
  highlightEdges();
  highlightAdjacentNodes();
});
]]></script>
</svg>
