<?xml version="1.0" encoding="UTF-8" standalone="no"?>
<!DOCTYPE svg PUBLIC "-//W3C//DTD SVG 1.1//EN"
 "http://www.w3.org/Graphics/SVG/1.1/DTD/svg11.dtd">
<!-- Generated by graphviz version 14.0.2 (0)
 -->
<!-- Title: juce::MPESynthesiser::noteReleased Pages: 1 -->
<svg width="436pt" height="57pt"
 viewBox="0.00 0.00 436.00 57.00" xmlns="http://www.w3.org/2000/svg" xmlns:xlink="http://www.w3.org/1999/xlink">

<svg id="main" version="1.1" xmlns="http://www.w3.org/2000/svg" xmlns:xlink="http://www.w3.org/1999/xlink" xml:space="preserve">

<style type="text/css"><![CDATA[
.node, .edge {opacity: 0.7;}
.node.selected, .edge.selected {opacity: 1;}
.edge:hover path { stroke: red; }
.edge:hover polygon { stroke: red; fill: red; }
]]></style>
<script type="application/ecmascript" xlink:href="svg.min.js"/>
<svg id="graph" class="graph">
<g id="graph0" class="graph" transform="scale(1 1) rotate(0) translate(4 52.5)">
<title>juce::MPESynthesiser::noteReleased</title>
<!-- Node1 -->
<g id="Node000001" class="node">
<title>Node1</title>
<g id="a_Node000001"><a xlink:title=" ">
<polygon fill="#999999" stroke="#666666" points="110.5,-30.5 0,-30.5 0,0 110.5,0 110.5,-30.5"/>
<text xml:space="preserve" text-anchor="start" x="8" y="-17" font-family="Helvetica,sans-Serif" font-size="10.00">juce::MPESynthesiser</text>
<text xml:space="preserve" text-anchor="middle" x="55.25" y="-5.75" font-family="Helvetica,sans-Serif" font-size="10.00">::noteReleased</text>
</a>
</g>
</g>
<!-- Node1&#45;&gt;Node1 -->
<g id="edge1_Node000001_Node000001" class="edge">
<title>Node1&#45;&gt;Node1</title>
<g id="a_edge1_Node000001_Node000001"><a xlink:title=" ">
<path fill="none" stroke="#63b8ff" d="M29.29,-30.99C23.99,-40.06 32.65,-48.5 55.25,-48.5 67.61,-48.5 75.8,-45.97 79.82,-42.2"/>
<polygon fill="#63b8ff" stroke="#63b8ff" points="83.27,-42.84 81.02,-32.49 76.32,-41.98 83.27,-42.84"/>
</a>
</g>
</g>
<!-- Node2 -->
<g id="Node000002" class="node">
<title>Node2</title>
<g id="a_Node000002"><a xlink:href="classjuce_1_1MPESynthesiser.html#a2b7f768beb2f6556fc31e1782671f10b" target="_top" xlink:title=" ">
<polygon fill="white" stroke="#666666" points="257,-30.5 146.5,-30.5 146.5,0 257,0 257,-30.5"/>
<text xml:space="preserve" text-anchor="start" x="154.5" y="-17" font-family="Helvetica,sans-Serif" font-size="10.00">juce::MPESynthesiser</text>
<text xml:space="preserve" text-anchor="middle" x="201.75" y="-5.75" font-family="Helvetica,sans-Serif" font-size="10.00">::stopVoice</text>
</a>
</g>
</g>
<!-- Node1&#45;&gt;Node2 -->
<g id="edge2_Node000001_Node000002" class="edge">
<title>Node1&#45;&gt;Node2</title>
<g id="a_edge2_Node000001_Node000002"><a xlink:title=" ">
<path fill="none" stroke="#63b8ff" d="M110.88,-15.25C118.61,-15.25 126.63,-15.25 134.55,-15.25"/>
<polygon fill="#63b8ff" stroke="#63b8ff" points="134.53,-18.75 144.53,-15.25 134.53,-11.75 134.53,-18.75"/>
</a>
</g>
</g>
<!-- Node2&#45;&gt;Node2 -->
<g id="edge5_Node000002_Node000002" class="edge">
<title>Node2&#45;&gt;Node2</title>
<g id="a_edge5_Node000002_Node000002"><a xlink:title=" ">
<path fill="none" stroke="#63b8ff" d="M175.79,-30.99C170.49,-40.06 179.15,-48.5 201.75,-48.5 214.11,-48.5 222.3,-45.97 226.32,-42.2"/>
<polygon fill="#63b8ff" stroke="#63b8ff" points="229.77,-42.84 227.52,-32.49 222.82,-41.98 229.77,-42.84"/>
</a>
</g>
</g>
<!-- Node3 -->
<g id="Node000003" class="node">
<title>Node3</title>
<g id="a_Node000003"><a xlink:href="classjuce_1_1MPESynthesiserVoice.html#aa0ddb5ab76042c15ecca5dbc7983af92" target="_top" xlink:title=" ">
<polygon fill="white" stroke="#666666" points="428.25,-30.5 293,-30.5 293,0 428.25,0 428.25,-30.5"/>
<text xml:space="preserve" text-anchor="start" x="301" y="-17" font-family="Helvetica,sans-Serif" font-size="10.00">juce::MPESynthesiserVoice</text>
<text xml:space="preserve" text-anchor="middle" x="360.62" y="-5.75" font-family="Helvetica,sans-Serif" font-size="10.00">::noteStopped</text>
</a>
</g>
</g>
<!-- Node2&#45;&gt;Node3 -->
<g id="edge3_Node000002_Node000003" class="edge">
<title>Node2&#45;&gt;Node3</title>
<g id="a_edge3_Node000002_Node000003"><a xlink:title=" ">
<path fill="none" stroke="#63b8ff" d="M257.18,-15.25C264.94,-15.25 273.04,-15.25 281.15,-15.25"/>
<polygon fill="#63b8ff" stroke="#63b8ff" points="281.06,-18.75 291.06,-15.25 281.06,-11.75 281.06,-18.75"/>
</a>
</g>
</g>
<!-- Node3&#45;&gt;Node3 -->
<g id="edge4_Node000003_Node000003" class="edge">
<title>Node3&#45;&gt;Node3</title>
<g id="a_edge4_Node000003_Node000003"><a xlink:title=" ">
<path fill="none" stroke="#63b8ff" d="M332.47,-30.99C326.73,-40.06 336.11,-48.5 360.62,-48.5 374.03,-48.5 382.91,-45.97 387.27,-42.2"/>
<polygon fill="#63b8ff" stroke="#63b8ff" points="390.71,-42.86 388.58,-32.49 383.77,-41.93 390.71,-42.86"/>
</a>
</g>
</g>
</g>
</svg>
</svg>

<style type='text/css'>
<![CDATA[
[data-mouse-over-selected='false'] { opacity: 0.7; }
[data-mouse-over-selected='true']  { opacity: 1.0; }
]]>
</style>
<script type="application/ecmascript"><![CDATA[
document.addEventListener('DOMContentLoaded', (event) => {
  highlightEdges();
  highlightAdjacentNodes();
});
]]></script>
</svg>
