<?xml version="1.0" encoding="UTF-8" standalone="no"?>
<!DOCTYPE svg PUBLIC "-//W3C//DTD SVG 1.1//EN"
 "http://www.w3.org/Graphics/SVG/1.1/DTD/svg11.dtd">
<!-- Generated by graphviz version 14.0.2 (0)
 -->
<!-- Title: lmms::gui::EqHandle::getLowCutCurve Pages: 1 -->
<svg width="418pt" height="259pt"
 viewBox="0.00 0.00 418.00 259.00" xmlns="http://www.w3.org/2000/svg" xmlns:xlink="http://www.w3.org/1999/xlink">

<svg id="main" version="1.1" xmlns="http://www.w3.org/2000/svg" xmlns:xlink="http://www.w3.org/1999/xlink" xml:space="preserve">

<style type="text/css"><![CDATA[
.node, .edge {opacity: 0.7;}
.node.selected, .edge.selected {opacity: 1;}
.edge:hover path { stroke: red; }
.edge:hover polygon { stroke: red; fill: red; }
]]></style>
<script type="application/ecmascript" xlink:href="svg.min.js"/>
<svg id="graph" class="graph">
<g id="graph0" class="graph" transform="scale(1 1) rotate(0) translate(4 255.27)">
<title>lmms::gui::EqHandle::getLowCutCurve</title>
<!-- Node1 -->
<g id="Node000001" class="node">
<title>Node1</title>
<g id="a_Node000001"><a xlink:title=" ">
<polygon fill="#999999" stroke="#666666" points="103.75,-152.5 0,-152.5 0,-122 103.75,-122 103.75,-152.5"/>
<text xml:space="preserve" text-anchor="start" x="8" y="-139" font-family="Helvetica,sans-Serif" font-size="10.00">lmms::gui::EqHandle</text>
<text xml:space="preserve" text-anchor="middle" x="51.88" y="-127.75" font-family="Helvetica,sans-Serif" font-size="10.00">::getLowCutCurve</text>
</a>
</g>
</g>
<!-- Node2 -->
<g id="Node000002" class="node">
<title>Node2</title>
<g id="a_Node000002"><a xlink:href="classlmms_1_1Engine.html#a6877e216489d342e0d50925d47b56ae4" target="_top" xlink:title=" ">
<polygon fill="white" stroke="#666666" points="410.25,-241.88 279.5,-241.88 279.5,-222.62 410.25,-222.62 410.25,-241.88"/>
<text xml:space="preserve" text-anchor="middle" x="344.88" y="-228.38" font-family="Helvetica,sans-Serif" font-size="10.00">lmms::Engine::audioEngine</text>
</a>
</g>
</g>
<!-- Node1&#45;&gt;Node2 -->
<g id="edge1_Node000001_Node000002" class="edge">
<title>Node1&#45;&gt;Node2</title>
<g id="a_edge1_Node000001_Node000002"><a xlink:title=" ">
<path fill="none" stroke="#63b8ff" d="M61,-152.83C74.02,-175.9 102.01,-218.27 139.75,-235.25 188.31,-257.09 250.17,-252.27 293,-244.55"/>
<polygon fill="#63b8ff" stroke="#63b8ff" points="293.63,-247.99 302.79,-242.66 292.3,-241.12 293.63,-247.99"/>
</a>
</g>
</g>
<!-- Node3 -->
<g id="Node000003" class="node">
<title>Node3</title>
<g id="a_Node000003"><a xlink:href="classlmms_1_1gui_1_1EqHandle.html#ad5222d007061c36758177a676343bae9" target="_top" xlink:title=" ">
<polygon fill="white" stroke="#666666" points="243.5,-226.5 139.75,-226.5 139.75,-196 243.5,-196 243.5,-226.5"/>
<text xml:space="preserve" text-anchor="start" x="147.75" y="-213" font-family="Helvetica,sans-Serif" font-size="10.00">lmms::gui::EqHandle</text>
<text xml:space="preserve" text-anchor="middle" x="191.62" y="-201.75" font-family="Helvetica,sans-Serif" font-size="10.00">::calculateGain</text>
</a>
</g>
</g>
<!-- Node1&#45;&gt;Node3 -->
<g id="edge2_Node000001_Node000003" class="edge">
<title>Node1&#45;&gt;Node3</title>
<g id="a_edge2_Node000001_Node000003"><a xlink:title=" ">
<path fill="none" stroke="#63b8ff" d="M79.66,-152.88C96.72,-162.7 119.38,-175.51 139.75,-186.25 142.39,-187.64 145.12,-189.06 147.89,-190.47"/>
<polygon fill="#63b8ff" stroke="#63b8ff" points="146.06,-193.47 156.57,-194.84 149.21,-187.22 146.06,-193.47"/>
</a>
</g>
</g>
<!-- Node4 -->
<g id="Node000004" class="node">
<title>Node4</title>
<g id="a_Node000004"><a xlink:href="classlmms_1_1gui_1_1EqHandle.html#ada89212db3d14cb23b0745585fd9bcb7" target="_top" xlink:title=" ">
<polygon fill="white" stroke="#666666" points="243.5,-177.5 139.75,-177.5 139.75,-147 243.5,-147 243.5,-177.5"/>
<text xml:space="preserve" text-anchor="start" x="147.75" y="-164" font-family="Helvetica,sans-Serif" font-size="10.00">lmms::gui::EqHandle</text>
<text xml:space="preserve" text-anchor="middle" x="191.62" y="-152.75" font-family="Helvetica,sans-Serif" font-size="10.00">::gainToYPixel</text>
</a>
</g>
</g>
<!-- Node1&#45;&gt;Node4 -->
<g id="edge4_Node000001_Node000004" class="edge">
<title>Node1&#45;&gt;Node4</title>
<g id="a_edge4_Node000001_Node000004"><a xlink:title=" ">
<path fill="none" stroke="#63b8ff" d="M104.17,-146.56C111.97,-147.97 120.09,-149.45 128.09,-150.9"/>
<polygon fill="#63b8ff" stroke="#63b8ff" points="127.34,-154.32 137.8,-152.66 128.59,-147.43 127.34,-154.32"/>
</a>
</g>
</g>
<!-- Node5 -->
<g id="Node000005" class="node">
<title>Node5</title>
<g id="a_Node000005"><a xlink:href="classlmms_1_1gui_1_1EqHandle.html#a4b0f2306d27ba65c52bfeb0e34a7c30e" target="_top" xlink:title=" ">
<polygon fill="white" stroke="#666666" points="243.5,-128.5 139.75,-128.5 139.75,-98 243.5,-98 243.5,-128.5"/>
<text xml:space="preserve" text-anchor="start" x="147.75" y="-115" font-family="Helvetica,sans-Serif" font-size="10.00">lmms::gui::EqHandle</text>
<text xml:space="preserve" text-anchor="middle" x="191.62" y="-103.75" font-family="Helvetica,sans-Serif" font-size="10.00">::getResonance</text>
</a>
</g>
</g>
<!-- Node1&#45;&gt;Node5 -->
<g id="edge5_Node000001_Node000005" class="edge">
<title>Node1&#45;&gt;Node5</title>
<g id="a_edge5_Node000001_Node000005"><a xlink:title=" ">
<path fill="none" stroke="#63b8ff" d="M104.17,-128.31C111.97,-126.95 120.09,-125.54 128.09,-124.14"/>
<polygon fill="#63b8ff" stroke="#63b8ff" points="128.55,-127.62 137.8,-122.45 127.35,-120.72 128.55,-127.62"/>
</a>
</g>
</g>
<!-- Node6 -->
<g id="Node000006" class="node">
<title>Node6</title>
<g id="a_Node000006"><a xlink:href="classlmms_1_1AudioEngine.html#ae54878acfbb31b2dc25f92855e038e4a" target="_top" xlink:title=" ">
<polygon fill="white" stroke="#666666" points="243.12,-79.5 140.12,-79.5 140.12,-49 243.12,-49 243.12,-79.5"/>
<text xml:space="preserve" text-anchor="start" x="148.12" y="-66" font-family="Helvetica,sans-Serif" font-size="10.00">lmms::AudioEngine::</text>
<text xml:space="preserve" text-anchor="middle" x="191.62" y="-54.75" font-family="Helvetica,sans-Serif" font-size="10.00">outputSampleRate</text>
</a>
</g>
</g>
<!-- Node1&#45;&gt;Node6 -->
<g id="edge6_Node000001_Node000006" class="edge">
<title>Node1&#45;&gt;Node6</title>
<g id="a_edge6_Node000001_Node000006"><a xlink:title=" ">
<path fill="none" stroke="#63b8ff" d="M80.47,-121.56C97.46,-112.01 119.74,-99.69 139.75,-89.25 142.44,-87.85 145.22,-86.42 148.02,-85"/>
<polygon fill="#63b8ff" stroke="#63b8ff" points="149.49,-88.18 156.86,-80.57 146.35,-81.92 149.49,-88.18"/>
</a>
</g>
</g>
<!-- Node7 -->
<g id="Node000007" class="node">
<title>Node7</title>
<g id="a_Node000007"><a xlink:href="classlmms_1_1gui_1_1EqHandle.html#a6836ef41b03270be5fe1194f43f355ef" target="_top" xlink:title=" ">
<polygon fill="white" stroke="#666666" points="243.5,-30.5 139.75,-30.5 139.75,0 243.5,0 243.5,-30.5"/>
<text xml:space="preserve" text-anchor="start" x="147.75" y="-17" font-family="Helvetica,sans-Serif" font-size="10.00">lmms::gui::EqHandle</text>
<text xml:space="preserve" text-anchor="middle" x="191.62" y="-5.75" font-family="Helvetica,sans-Serif" font-size="10.00">::xPixelToFreq</text>
</a>
</g>
</g>
<!-- Node1&#45;&gt;Node7 -->
<g id="edge7_Node000001_Node000007" class="edge">
<title>Node1&#45;&gt;Node7</title>
<g id="a_edge7_Node000001_Node000007"><a xlink:title=" ">
<path fill="none" stroke="#63b8ff" d="M63.73,-121.79C78.87,-101.12 108.04,-64.28 139.75,-40.25 141.29,-39.09 142.89,-37.95 144.53,-36.85"/>
<polygon fill="#63b8ff" stroke="#63b8ff" points="146.26,-39.9 153,-31.72 142.64,-33.91 146.26,-39.9"/>
</a>
</g>
</g>
<!-- Node3&#45;&gt;Node2 -->
<g id="edge3_Node000003_Node000002" class="edge">
<title>Node3&#45;&gt;Node2</title>
<g id="a_edge3_Node000003_Node000002"><a xlink:title=" ">
<path fill="none" stroke="#63b8ff" d="M243.83,-218.36C251.52,-219.43 259.59,-220.55 267.66,-221.67"/>
<polygon fill="#63b8ff" stroke="#63b8ff" points="267.16,-225.13 277.55,-223.04 268.12,-218.2 267.16,-225.13"/>
</a>
</g>
</g>
<!-- Node8 -->
<g id="Node000008" class="node">
<title>Node8</title>
<g id="a_Node000008"><a xlink:href="namespacelmms.html#afcda7a70293fe10671e0495f34569678" target="_top" xlink:title=" ">
<polygon fill="white" stroke="#666666" points="391.88,-24.88 297.88,-24.88 297.88,-5.63 391.88,-5.63 391.88,-24.88"/>
<text xml:space="preserve" text-anchor="middle" x="344.88" y="-11.38" font-family="Helvetica,sans-Serif" font-size="10.00">lmms::fastPow10f</text>
</a>
</g>
</g>
<!-- Node7&#45;&gt;Node8 -->
<g id="edge8_Node000007_Node000008" class="edge">
<title>Node7&#45;&gt;Node8</title>
<g id="a_edge8_Node000007_Node000008"><a xlink:title=" ">
<path fill="none" stroke="#63b8ff" d="M243.83,-15.25C257.42,-15.25 272.19,-15.25 286.11,-15.25"/>
<polygon fill="#63b8ff" stroke="#63b8ff" points="286.04,-18.75 296.04,-15.25 286.04,-11.75 286.04,-18.75"/>
</a>
</g>
</g>
</g>
</svg>
</svg>

<style type='text/css'>
<![CDATA[
[data-mouse-over-selected='false'] { opacity: 0.7; }
[data-mouse-over-selected='true']  { opacity: 1.0; }
]]>
</style>
<script type="application/ecmascript"><![CDATA[
document.addEventListener('DOMContentLoaded', (event) => {
  highlightEdges();
  highlightAdjacentNodes();
});
]]></script>
</svg>
