<?xml version="1.0" encoding="UTF-8" standalone="no"?>
<!DOCTYPE svg PUBLIC "-//W3C//DTD SVG 1.1//EN"
 "http://www.w3.org/Graphics/SVG/1.1/DTD/svg11.dtd">
<!-- Generated by graphviz version 14.0.2 (0)
 -->
<!-- Title: juce::Component::internalMouseDrag Pages: 1 -->
<!--zoomable 174 -->

<svg id="main" version="1.1" xmlns="http://www.w3.org/2000/svg" xmlns:xlink="http://www.w3.org/1999/xlink" xml:space="preserve" onload="init(evt)">

<style type="text/css"><![CDATA[
.node, .edge {opacity: 0.7;}
.node.selected, .edge.selected {opacity: 1;}
.edge:hover path { stroke: red; }
.edge:hover polygon { stroke: red; fill: red; }
]]></style>

<defs>
  <circle id="rim" cx="0" cy="0" r="7"/>
  <circle id="rim2" cx="0" cy="0" r="3.5"/>
  <g id="zoomPlus">
    <use xlink:href="#rim" fill="#404040"><set attributeName="fill" to="#808080" begin="zoomplus.mouseover" end="zoomplus.mouseout"/></use>
    <path d="M-4,0h8M0,-4v8" fill="none" stroke="white" stroke-width="1.5" pointer-events="none"/>
  </g>
  <g id="zoomMin">
    <use xlink:href="#rim" fill="#404040"><set attributeName="fill" to="#808080" begin="zoomminus.mouseover" end="zoomminus.mouseout"/></use>
    <path d="M-4,0h8" fill="none" stroke="white" stroke-width="1.5" pointer-events="none"/>
  </g>
  <g id="arrowUp" transform="translate(30 24)">
    <use xlink:href="#rim"/>
    <path pointer-events="none" fill="none" stroke="white" stroke-width="1.5" d="M0,-3.0v7 M-2.5,-0.5L0,-3.0L2.5,-0.5"/>
  </g>
  <g id="arrowRight" transform="rotate(90) translate(36 -43)">
    <use xlink:href="#rim"/>
    <path pointer-events="none" fill="none" stroke="white" stroke-width="1.5" d="M0,-3.0v7 M-2.5,-0.5L0,-3.0L2.5,-0.5"/>
  </g>
  <g id="arrowDown" transform="rotate(180) translate(-30 -48)">
    <use xlink:href="#rim"/>
    <path pointer-events="none" fill="none" stroke="white" stroke-width="1.5" d="M0,-3.0v7 M-2.5,-0.5L0,-3.0L2.5,-0.5"/>
  </g>
  <g id="arrowLeft" transform="rotate(270) translate(-36 17)">
    <use xlink:href="#rim"/>
    <path pointer-events="none" fill="none" stroke="white" stroke-width="1.5" d="M0,-3.0v7 M-2.5,-0.5L0,-3.0L2.5,-0.5"/>
  </g>
  <g id="resetDef">
    <use xlink:href="#rim2" fill="#404040"><set attributeName="fill" to="#808080" begin="reset.mouseover" end="reset.mouseout"/></use>
  </g>
</defs>
<script type="application/ecmascript">
var viewWidth = 886;
var viewHeight = 174;
var sectionId = 'dynsection-208';
</script>
<script type="application/ecmascript" xlink:href="svg.min.js"/>
<svg id="graph" class="graph">
<g id="viewport">
<title>juce::Component::internalMouseDrag</title>
<!-- Node1 -->
<g id="Node000001" class="node">
<title>Node1</title>
<g id="a_Node000001"><a xlink:title=" ">
<polygon fill="#999999" stroke="#666666" points="878,-94.5 754,-94.5 754,-64 878,-64 878,-94.5"/>
<text xml:space="preserve" text-anchor="start" x="762" y="-81" font-family="Helvetica,sans-Serif" font-size="10.00">juce::Component::internal</text>
<text xml:space="preserve" text-anchor="middle" x="816" y="-69.75" font-family="Helvetica,sans-Serif" font-size="10.00">MouseDrag</text>
</a>
</g>
</g>
<!-- Node1&#45;&gt;Node1 -->
<g id="edge1_Node000001_Node000001" class="edge">
<title>Node1&#45;&gt;Node1</title>
<g id="a_edge1_Node000001_Node000001"><a xlink:title=" ">
<path fill="none" stroke="#63b8ff" d="M845.22,-106.2C840.44,-109.97 830.7,-112.5 816,-112.5 789.11,-112.5 778.82,-104.06 785.12,-94.99"/>
<polygon fill="#63b8ff" stroke="#63b8ff" points="848.66,-106.89 846.66,-96.48 841.73,-105.87 848.66,-106.89"/>
</a>
</g>
</g>
<!-- Node2 -->
<g id="Node000002" class="node">
<title>Node2</title>
<g id="a_Node000002"><a xlink:href="classjuce_1_1MouseInputSourceInternal.html#aaa1f08cf64518ccd447c6c5fcde32c50" target="_top" xlink:title=" ">
<polygon fill="white" stroke="#666666" points="718,-94.5 565.5,-94.5 565.5,-64 718,-64 718,-94.5"/>
<text xml:space="preserve" text-anchor="start" x="573.5" y="-81" font-family="Helvetica,sans-Serif" font-size="10.00">juce::MouseInputSourceInternal</text>
<text xml:space="preserve" text-anchor="middle" x="641.75" y="-69.75" font-family="Helvetica,sans-Serif" font-size="10.00">::sendMouseDrag</text>
</a>
</g>
</g>
<!-- Node1&#45;&gt;Node2 -->
<g id="edge2_Node000001_Node000002" class="edge">
<title>Node1&#45;&gt;Node2</title>
<g id="a_edge2_Node000001_Node000002"><a xlink:title=" ">
<path fill="none" stroke="#63b8ff" d="M742.28,-79.25C734.33,-79.25 726.22,-79.25 718.24,-79.25"/>
<polygon fill="#63b8ff" stroke="#63b8ff" points="742.27,-82.75 752.27,-79.25 742.27,-75.75 742.27,-82.75"/>
</a>
</g>
</g>
<!-- Node3 -->
<g id="Node000003" class="node">
<title>Node3</title>
<g id="a_Node000003"><a xlink:href="classjuce_1_1MouseInputSourceInternal.html#af1ec766baab968f9cef1340872e986ff" target="_top" xlink:title=" ">
<polygon fill="white" stroke="#666666" points="529.5,-94.5 377,-94.5 377,-64 529.5,-64 529.5,-94.5"/>
<text xml:space="preserve" text-anchor="start" x="385" y="-81" font-family="Helvetica,sans-Serif" font-size="10.00">juce::MouseInputSourceInternal</text>
<text xml:space="preserve" text-anchor="middle" x="453.25" y="-69.75" font-family="Helvetica,sans-Serif" font-size="10.00">::setPointerState</text>
</a>
</g>
</g>
<!-- Node2&#45;&gt;Node3 -->
<g id="edge3_Node000002_Node000003" class="edge">
<title>Node2&#45;&gt;Node3</title>
<g id="a_edge3_Node000002_Node000003"><a xlink:title=" ">
<path fill="none" stroke="#63b8ff" d="M553.91,-79.25C545.91,-79.25 537.84,-79.25 529.95,-79.25"/>
<polygon fill="#63b8ff" stroke="#63b8ff" points="553.65,-82.75 563.65,-79.25 553.65,-75.75 553.65,-82.75"/>
</a>
</g>
</g>
<!-- Node4 -->
<g id="Node000004" class="node">
<title>Node4</title>
<g id="a_Node000004"><a xlink:href="classjuce_1_1MouseInputSourceInternal.html#abd307e1a7a3ec4ac37173ee877736d90" target="_top" xlink:title=" ">
<polygon fill="#fff0f0" stroke="red" points="341,-165.5 188.5,-165.5 188.5,-135 341,-135 341,-165.5"/>
<text xml:space="preserve" text-anchor="start" x="196.5" y="-152" font-family="Helvetica,sans-Serif" font-size="10.00">juce::MouseInputSourceInternal</text>
<text xml:space="preserve" text-anchor="middle" x="264.75" y="-140.75" font-family="Helvetica,sans-Serif" font-size="10.00">::getTargetForGesture</text>
</a>
</g>
</g>
<!-- Node3&#45;&gt;Node4 -->
<g id="edge4_Node000003_Node000004" class="edge">
<title>Node3&#45;&gt;Node4</title>
<g id="a_edge4_Node000003_Node000004"><a xlink:title=" ">
<path fill="none" stroke="#63b8ff" d="M405.59,-99.41C385.8,-107.74 362.4,-117.28 341,-125.25 332.49,-128.42 323.36,-131.62 314.5,-134.62"/>
<polygon fill="#63b8ff" stroke="#63b8ff" points="406.94,-102.64 414.79,-95.52 404.22,-96.19 406.94,-102.64"/>
</a>
</g>
</g>
<!-- Node7 -->
<g id="Node000007" class="node">
<title>Node7</title>
<g id="a_Node000007"><a xlink:href="classjuce_1_1MouseInputSourceInternal.html#a34e481018bc09c49a0ddb99368e9c3a6" target="_top" xlink:title=" ">
<polygon fill="white" stroke="#666666" points="341,-116.5 188.5,-116.5 188.5,-86 341,-86 341,-116.5"/>
<text xml:space="preserve" text-anchor="start" x="196.5" y="-103" font-family="Helvetica,sans-Serif" font-size="10.00">juce::MouseInputSourceInternal</text>
<text xml:space="preserve" text-anchor="middle" x="264.75" y="-91.75" font-family="Helvetica,sans-Serif" font-size="10.00">::handleAsyncUpdate</text>
</a>
</g>
</g>
<!-- Node3&#45;&gt;Node7 -->
<g id="edge5_Node000003_Node000007" class="edge">
<title>Node3&#45;&gt;Node7</title>
<g id="a_edge5_Node000003_Node000007"><a xlink:title=" ">
<path fill="none" stroke="#63b8ff" d="M365.41,-89.49C357.41,-90.44 349.34,-91.39 341.45,-92.32"/>
<polygon fill="#63b8ff" stroke="#63b8ff" points="365.64,-92.99 375.16,-88.34 364.82,-86.04 365.64,-92.99"/>
</a>
</g>
</g>
<!-- Node8 -->
<g id="Node000008" class="node">
<title>Node8</title>
<g id="a_Node000008"><a xlink:href="classjuce_1_1MouseInputSourceInternal.html#a22eca076b36ff03d3c99dbd038e4fc0c" target="_top" xlink:title=" ">
<polygon fill="white" stroke="#666666" points="152.5,-51.5 0,-51.5 0,-21 152.5,-21 152.5,-51.5"/>
<text xml:space="preserve" text-anchor="start" x="8" y="-38" font-family="Helvetica,sans-Serif" font-size="10.00">juce::MouseInputSourceInternal</text>
<text xml:space="preserve" text-anchor="middle" x="76.25" y="-26.75" font-family="Helvetica,sans-Serif" font-size="10.00">::handleEvent</text>
</a>
</g>
</g>
<!-- Node3&#45;&gt;Node8 -->
<g id="edge6_Node000003_Node000008" class="edge">
<title>Node3&#45;&gt;Node8</title>
<g id="a_edge6_Node000003_Node000008"><a xlink:title=" ">
<path fill="none" stroke="#63b8ff" d="M365.48,-69.3C301.17,-61.93 214.38,-51.97 152.89,-44.92"/>
<polygon fill="#63b8ff" stroke="#63b8ff" points="364.98,-72.77 375.31,-70.43 365.77,-65.81 364.98,-72.77"/>
</a>
</g>
</g>
<!-- Node9 -->
<g id="Node000009" class="node">
<title>Node9</title>
<g id="a_Node000009"><a xlink:href="classjuce_1_1MouseInputSourceInternal.html#aaca8d2ce0b152ac9cf95f216515d8820" target="_top" xlink:title=" ">
<polygon fill="#fff0f0" stroke="red" points="341,-30.5 188.5,-30.5 188.5,0 341,0 341,-30.5"/>
<text xml:space="preserve" text-anchor="start" x="196.5" y="-17" font-family="Helvetica,sans-Serif" font-size="10.00">juce::MouseInputSourceInternal</text>
<text xml:space="preserve" text-anchor="middle" x="264.75" y="-5.75" font-family="Helvetica,sans-Serif" font-size="10.00">::setButtons</text>
</a>
</g>
</g>
<!-- Node3&#45;&gt;Node9 -->
<g id="edge7_Node000003_Node000009" class="edge">
<title>Node3&#45;&gt;Node9</title>
<g id="a_edge7_Node000003_Node000009"><a xlink:title=" ">
<path fill="none" stroke="#63b8ff" d="M395.79,-59.88C368.83,-50.62 336.98,-39.69 311.55,-30.97"/>
<polygon fill="#63b8ff" stroke="#63b8ff" points="394.6,-63.17 405.2,-63.1 396.87,-56.55 394.6,-63.17"/>
</a>
</g>
</g>
<!-- Node9&#45;&gt;Node8 -->
<g id="edge8_Node000009_Node000008" class="edge">
<title>Node9&#45;&gt;Node8</title>
<g id="a_edge8_Node000009_Node000008"><a xlink:title=" ">
<path fill="none" stroke="#63b8ff" d="M176.91,-25.03C168.91,-25.93 160.84,-26.84 152.95,-27.73"/>
<polygon fill="#63b8ff" stroke="#63b8ff" points="177.11,-28.53 186.66,-23.93 176.33,-21.57 177.11,-28.53"/>
</a>
</g>
</g>
</g>
</svg>

<g id="navigator" transform="translate(0 0)" fill="#404254">
  <rect fill="#f2f5e9" fill-opacity="0.5" stroke="#606060" stroke-width=".5" x="0" y="0" width="60" height="60"/>
  <use id="zoomplus" xlink:href="#zoomPlus" x="17" y="9" onmousedown="handleZoom(evt,'in')"/>
  <use id="zoomminus" xlink:href="#zoomMin" x="42" y="9" onmousedown="handleZoom(evt,'out')"/>
  <use id="reset" xlink:href="#resetDef" x="30" y="36" onmousedown="handleReset()"/>
   <use id="arrowup" xlink:href="#arrowUp" x="0" y="0" onmousedown="handlePan(0,-1)"/>
  <use id="arrowright" xlink:href="#arrowRight" x="0" y="0" onmousedown="handlePan(1,0)"/>
  <use id="arrowdown" xlink:href="#arrowDown" x="0" y="0" onmousedown="handlePan(0,1)"/>
  <use id="arrowleft" xlink:href="#arrowLeft" x="0" y="0" onmousedown="handlePan(-1,0)"/>
</g>
<svg viewBox="0 0 15 15" width="100%" height="30px" preserveAspectRatio="xMaxYMin meet">
 <g id="arrow_out" transform="scale(0.3 0.3)">
  <a xlink:href="classjuce_1_1Component_aa9f40cfd01cc4117cefdbdb1e724fb0d_icgraph_org.svg" target="_base">
   <rect id="button" ry="5" rx="5" y="6" x="6" height="38" width="38"
        fill="#f2f5e9" fill-opacity="0.5" stroke="#606060" stroke-width="1.0"/>
   <path id="arrow"
     d="M 11.500037,31.436501 C 11.940474,20.09759 22.043105,11.32322 32.158766,21.979434 L 37.068811,17.246167 C 37.068811,17.246167 37.088388,32 37.088388,32 L 22.160133,31.978069 C 22.160133,31.978069 26.997745,27.140456 26.997745,27.140456 C 18.528582,18.264221 13.291696,25.230495 11.500037,31.436501 z"
     style="fill:#404040;"/>
  </a>
 </g>
</svg>

<style type='text/css'>
<![CDATA[
[data-mouse-over-selected='false'] { opacity: 0.7; }
[data-mouse-over-selected='true']  { opacity: 1.0; }
]]>
</style>
<script type="application/ecmascript"><![CDATA[
document.addEventListener('DOMContentLoaded', (event) => {
  highlightEdges();
  highlightAdjacentNodes();
});
]]></script>
</svg>
