<?xml version="1.0" encoding="UTF-8" standalone="no"?>
<!DOCTYPE svg PUBLIC "-//W3C//DTD SVG 1.1//EN"
 "http://www.w3.org/Graphics/SVG/1.1/DTD/svg11.dtd">
<!-- Generated by graphviz version 14.0.2 (0)
 -->
<!-- Title: juce::ImagePreviewComponent::timerCallback Pages: 1 -->
<!--zoomable 550 -->

<svg id="main" version="1.1" xmlns="http://www.w3.org/2000/svg" xmlns:xlink="http://www.w3.org/1999/xlink" xml:space="preserve" onload="init(evt)">

<style type="text/css"><![CDATA[
.node, .edge {opacity: 0.7;}
.node.selected, .edge.selected {opacity: 1;}
.edge:hover path { stroke: red; }
.edge:hover polygon { stroke: red; fill: red; }
]]></style>

<defs>
  <circle id="rim" cx="0" cy="0" r="7"/>
  <circle id="rim2" cx="0" cy="0" r="3.5"/>
  <g id="zoomPlus">
    <use xlink:href="#rim" fill="#404040"><set attributeName="fill" to="#808080" begin="zoomplus.mouseover" end="zoomplus.mouseout"/></use>
    <path d="M-4,0h8M0,-4v8" fill="none" stroke="white" stroke-width="1.5" pointer-events="none"/>
  </g>
  <g id="zoomMin">
    <use xlink:href="#rim" fill="#404040"><set attributeName="fill" to="#808080" begin="zoomminus.mouseover" end="zoomminus.mouseout"/></use>
    <path d="M-4,0h8" fill="none" stroke="white" stroke-width="1.5" pointer-events="none"/>
  </g>
  <g id="arrowUp" transform="translate(30 24)">
    <use xlink:href="#rim"/>
    <path pointer-events="none" fill="none" stroke="white" stroke-width="1.5" d="M0,-3.0v7 M-2.5,-0.5L0,-3.0L2.5,-0.5"/>
  </g>
  <g id="arrowRight" transform="rotate(90) translate(36 -43)">
    <use xlink:href="#rim"/>
    <path pointer-events="none" fill="none" stroke="white" stroke-width="1.5" d="M0,-3.0v7 M-2.5,-0.5L0,-3.0L2.5,-0.5"/>
  </g>
  <g id="arrowDown" transform="rotate(180) translate(-30 -48)">
    <use xlink:href="#rim"/>
    <path pointer-events="none" fill="none" stroke="white" stroke-width="1.5" d="M0,-3.0v7 M-2.5,-0.5L0,-3.0L2.5,-0.5"/>
  </g>
  <g id="arrowLeft" transform="rotate(270) translate(-36 17)">
    <use xlink:href="#rim"/>
    <path pointer-events="none" fill="none" stroke="white" stroke-width="1.5" d="M0,-3.0v7 M-2.5,-0.5L0,-3.0L2.5,-0.5"/>
  </g>
  <g id="resetDef">
    <use xlink:href="#rim2" fill="#404040"><set attributeName="fill" to="#808080" begin="reset.mouseover" end="reset.mouseout"/></use>
  </g>
</defs>
<script type="application/ecmascript">
var viewWidth = 883;
var viewHeight = 550;
var sectionId = 'dynsection-14';
</script>
<script type="application/ecmascript" xlink:href="svg.min.js"/>
<svg id="graph" class="graph">
<g id="viewport">
<title>juce::ImagePreviewComponent::timerCallback</title>
<!-- Node1 -->
<g id="Node000001" class="node">
<title>Node1</title>
<g id="a_Node000001"><a xlink:title=" ">
<polygon fill="#999999" stroke="#666666" points="150.25,-280.88 0,-280.88 0,-250.38 150.25,-250.38 150.25,-280.88"/>
<text xml:space="preserve" text-anchor="start" x="8" y="-267.38" font-family="Helvetica,sans-Serif" font-size="10.00">juce::ImagePreviewComponent</text>
<text xml:space="preserve" text-anchor="middle" x="75.12" y="-256.12" font-family="Helvetica,sans-Serif" font-size="10.00">::timerCallback</text>
</a>
</g>
</g>
<!-- Node1&#45;&gt;Node1 -->
<g id="edge38_Node000001_Node000001" class="edge">
<title>Node1&#45;&gt;Node1</title>
<g id="a_edge38_Node000001_Node000001"><a xlink:title=" ">
<path fill="none" stroke="#63b8ff" d="M42.12,-281.36C35.39,-290.43 46.39,-298.88 75.12,-298.88 90.84,-298.88 101.25,-296.35 106.36,-292.58"/>
<polygon fill="#63b8ff" stroke="#63b8ff" points="109.79,-293.28 107.89,-282.86 102.88,-292.19 109.79,-293.28"/>
</a>
</g>
</g>
<!-- Node2 -->
<g id="Node000002" class="node">
<title>Node2</title>
<g id="a_Node000002"><a xlink:href="classFile.html#ad2e185e371e1d304b2110d5a03f4dd25" target="_top" xlink:title=" ">
<polygon fill="white" stroke="#666666" points="321.88,-488.88 200.88,-488.88 200.88,-458.38 321.88,-458.38 321.88,-488.88"/>
<text xml:space="preserve" text-anchor="start" x="208.88" y="-475.38" font-family="Helvetica,sans-Serif" font-size="10.00">File::descriptionOfSizeIn</text>
<text xml:space="preserve" text-anchor="middle" x="261.38" y="-464.12" font-family="Helvetica,sans-Serif" font-size="10.00">Bytes</text>
</a>
</g>
</g>
<!-- Node1&#45;&gt;Node2 -->
<g id="edge1_Node000001_Node000002" class="edge">
<title>Node1&#45;&gt;Node2</title>
<g id="a_edge1_Node000001_Node000002"><a xlink:title=" ">
<path fill="none" stroke="#63b8ff" d="M81.24,-281.13C93.58,-316.17 128.31,-402.04 186.25,-448.62 187.78,-449.85 189.37,-451.02 191.01,-452.14"/>
<polygon fill="#63b8ff" stroke="#63b8ff" points="189.19,-455.13 199.59,-457.15 192.73,-449.08 189.19,-455.13"/>
</a>
</g>
</g>
<!-- Node3 -->
<g id="Node000003" class="node">
<title>Node3</title>
<g id="a_Node000003"><a xlink:href="classjuce_1_1ImageFileFormat.html#a9507abe492483469531aba9d93bd6fea" target="_top" xlink:title=" ">
<polygon fill="white" stroke="#666666" points="330.88,-421.88 191.88,-421.88 191.88,-391.38 330.88,-391.38 330.88,-421.88"/>
<text xml:space="preserve" text-anchor="start" x="199.88" y="-408.38" font-family="Helvetica,sans-Serif" font-size="10.00">juce::ImageFileFormat</text>
<text xml:space="preserve" text-anchor="middle" x="261.38" y="-397.12" font-family="Helvetica,sans-Serif" font-size="10.00">::findImageFormatForStream</text>
</a>
</g>
</g>
<!-- Node1&#45;&gt;Node3 -->
<g id="edge2_Node000001_Node000003" class="edge">
<title>Node1&#45;&gt;Node3</title>
<g id="a_edge2_Node000001_Node000003"><a xlink:title=" ">
<path fill="none" stroke="#63b8ff" d="M96.55,-281.25C129.2,-306.24 193.29,-355.29 230.9,-384.07"/>
<polygon fill="#63b8ff" stroke="#63b8ff" points="228.59,-386.71 238.66,-390.01 232.85,-381.15 228.59,-386.71"/>
</a>
</g>
</g>
<!-- Node83 -->
<g id="Node000083" class="node">
<title>Node83</title>
<g id="a_Node000083"><a xlink:href="classjuce_1_1ImagePreviewComponent.html#ada0a28d99f184b8e4159fe3ec991520e" target="_top" xlink:title=" ">
<polygon fill="white" stroke="#666666" points="336.5,-280.88 186.25,-280.88 186.25,-250.38 336.5,-250.38 336.5,-280.88"/>
<text xml:space="preserve" text-anchor="start" x="194.25" y="-267.38" font-family="Helvetica,sans-Serif" font-size="10.00">juce::ImagePreviewComponent</text>
<text xml:space="preserve" text-anchor="middle" x="261.38" y="-256.12" font-family="Helvetica,sans-Serif" font-size="10.00">::getThumbSize</text>
</a>
</g>
</g>
<!-- Node1&#45;&gt;Node83 -->
<g id="edge11_Node000001_Node000083" class="edge">
<title>Node1&#45;&gt;Node83</title>
<g id="a_edge11_Node000001_Node000083"><a xlink:title=" ">
<path fill="none" stroke="#63b8ff" d="M150.54,-265.62C158.48,-265.62 166.6,-265.62 174.66,-265.62"/>
<polygon fill="#63b8ff" stroke="#63b8ff" points="174.47,-269.13 184.47,-265.63 174.47,-262.13 174.47,-269.13"/>
</a>
</g>
</g>
<!-- Node88 -->
<g id="Node000088" class="node">
<title>Node88</title>
<g id="a_Node000088"><a xlink:href="classjuce_1_1Component.html#a8a7b37be680ae337c88ea0d4c244d308" target="_top" xlink:title=" ">
<polygon fill="white" stroke="#666666" points="322.25,-155.25 200.5,-155.25 200.5,-136 322.25,-136 322.25,-155.25"/>
<text xml:space="preserve" text-anchor="middle" x="261.38" y="-141.75" font-family="Helvetica,sans-Serif" font-size="10.00">juce::Component::repaint</text>
</a>
</g>
</g>
<!-- Node1&#45;&gt;Node88 -->
<g id="edge20_Node000001_Node000088" class="edge">
<title>Node1&#45;&gt;Node88</title>
<g id="a_edge20_Node000001_Node000088"><a xlink:title=" ">
<path fill="none" stroke="#63b8ff" d="M100.21,-249.94C135.19,-227.16 199.74,-185.12 235.28,-161.97"/>
<polygon fill="#63b8ff" stroke="#63b8ff" points="237.16,-164.92 243.63,-156.53 233.34,-159.06 237.16,-164.92"/>
</a>
</g>
</g>
<!-- Node109 -->
<g id="Node000109" class="node">
<title>Node109</title>
<g id="a_Node000109"><a xlink:href="classjuce_1_1Timer.html#a2ff70b860a8c875658b4baa91c8bcef0" target="_top" xlink:title=" ">
<polygon fill="white" stroke="#666666" points="317,-70.25 205.75,-70.25 205.75,-51 317,-51 317,-70.25"/>
<text xml:space="preserve" text-anchor="middle" x="261.38" y="-56.75" font-family="Helvetica,sans-Serif" font-size="10.00">juce::Timer::stopTimer</text>
</a>
</g>
</g>
<!-- Node1&#45;&gt;Node109 -->
<g id="edge33_Node000001_Node000109" class="edge">
<title>Node1&#45;&gt;Node109</title>
<g id="a_edge33_Node000001_Node000109"><a xlink:title=" ">
<path fill="none" stroke="#63b8ff" d="M87.2,-249.9C106.18,-223.36 146.73,-168.49 186.25,-126.62 203,-108.88 223.9,-90.57 239.23,-77.75"/>
<polygon fill="#63b8ff" stroke="#63b8ff" points="241.33,-80.57 246.81,-71.5 236.87,-75.17 241.33,-80.57"/>
</a>
</g>
</g>
<!-- Node3&#45;&gt;Node3 -->
<g id="edge3_Node000003_Node000003" class="edge">
<title>Node3&#45;&gt;Node3</title>
<g id="a_edge3_Node000003_Node000003"><a xlink:title=" ">
<path fill="none" stroke="#63b8ff" d="M228.37,-422.36C221.64,-431.43 232.64,-439.88 261.38,-439.88 277.09,-439.88 287.5,-437.35 292.61,-433.58"/>
<polygon fill="#63b8ff" stroke="#63b8ff" points="296.04,-434.28 294.14,-423.86 289.13,-433.19 296.04,-434.28"/>
</a>
</g>
</g>
<!-- Node4 -->
<g id="Node000004" class="node">
<title>Node4</title>
<g id="a_Node000004"><a xlink:href="structjuce_1_1DefaultImageFormats.html#a05b793435f903c4eb44ea3250293f0ed" target="_top" xlink:title=" ">
<polygon fill="white" stroke="#666666" points="522.75,-395.25 372.5,-395.25 372.5,-376 522.75,-376 522.75,-395.25"/>
<text xml:space="preserve" text-anchor="middle" x="447.62" y="-381.75" font-family="Helvetica,sans-Serif" font-size="10.00">juce::DefaultImageFormats::get</text>
</a>
</g>
</g>
<!-- Node3&#45;&gt;Node4 -->
<g id="edge4_Node000003_Node000004" class="edge">
<title>Node3&#45;&gt;Node4</title>
<g id="a_edge4_Node000003_Node000004"><a xlink:title=" ">
<path fill="none" stroke="#63b8ff" d="M331.24,-398.78C340.97,-397.67 351.07,-396.52 361.07,-395.38"/>
<polygon fill="#63b8ff" stroke="#63b8ff" points="361.24,-398.88 370.78,-394.27 360.45,-391.92 361.24,-398.88"/>
</a>
</g>
</g>
<!-- Node6 -->
<g id="Node000006" class="node">
<title>Node6</title>
<g id="a_Node000006"><a xlink:href="classjuce_1_1InputStream.html#a05731142be8eecd1e13b1ac2a490de61" target="_top" xlink:title=" ">
<polygon fill="white" stroke="#666666" points="495.75,-541.88 399.5,-541.88 399.5,-511.38 495.75,-511.38 495.75,-541.88"/>
<text xml:space="preserve" text-anchor="start" x="407.5" y="-528.38" font-family="Helvetica,sans-Serif" font-size="10.00">juce::InputStream::</text>
<text xml:space="preserve" text-anchor="middle" x="447.62" y="-517.12" font-family="Helvetica,sans-Serif" font-size="10.00">getPosition</text>
</a>
</g>
</g>
<!-- Node3&#45;&gt;Node6 -->
<g id="edge6_Node000003_Node000006" class="edge">
<title>Node3&#45;&gt;Node6</title>
<g id="a_edge6_Node000003_Node000006"><a xlink:title=" ">
<path fill="none" stroke="#63b8ff" d="M296.22,-422.19C309.66,-429.37 324.69,-438.73 336.5,-449.62 357.15,-468.69 350.04,-484.72 372.5,-501.62 377.45,-505.35 382.99,-508.54 388.75,-511.27"/>
<polygon fill="#63b8ff" stroke="#63b8ff" points="387.32,-514.47 397.89,-515.12 390.03,-508.01 387.32,-514.47"/>
</a>
</g>
</g>
<!-- Node7 -->
<g id="Node000007" class="node">
<title>Node7</title>
<g id="a_Node000007"><a xlink:href="classjuce_1_1ImageFileFormat.html#aaba1508584f3939f90530fcb5e38719a" target="_top" xlink:title=" ">
<polygon fill="white" stroke="#666666" points="503.62,-492.88 391.62,-492.88 391.62,-462.38 503.62,-462.38 503.62,-492.88"/>
<text xml:space="preserve" text-anchor="start" x="399.62" y="-479.38" font-family="Helvetica,sans-Serif" font-size="10.00">juce::ImageFileFormat</text>
<text xml:space="preserve" text-anchor="middle" x="447.62" y="-468.12" font-family="Helvetica,sans-Serif" font-size="10.00">::ImageFileFormat</text>
</a>
</g>
</g>
<!-- Node3&#45;&gt;Node7 -->
<g id="edge7_Node000003_Node000007" class="edge">
<title>Node3&#45;&gt;Node7</title>
<g id="a_edge7_Node000003_Node000007"><a xlink:title=" ">
<path fill="none" stroke="#63b8ff" d="M297.83,-422.18C319.29,-431.41 347.3,-443.12 372.5,-452.62 377.48,-454.5 382.67,-456.39 387.9,-458.24"/>
<polygon fill="#63b8ff" stroke="#63b8ff" points="386.58,-461.49 397.17,-461.48 388.88,-454.88 386.58,-461.49"/>
</a>
</g>
</g>
<!-- Node8 -->
<g id="Node000008" class="node">
<title>Node8</title>
<g id="a_Node000008"><a xlink:href="classjuce_1_1InputStream.html#a7485703a307cc06f0bd9f35aaf63cf2e" target="_top" xlink:title=" ">
<polygon fill="white" stroke="#666666" points="495.75,-443.88 399.5,-443.88 399.5,-413.38 495.75,-413.38 495.75,-443.88"/>
<text xml:space="preserve" text-anchor="start" x="407.5" y="-430.38" font-family="Helvetica,sans-Serif" font-size="10.00">juce::InputStream::</text>
<text xml:space="preserve" text-anchor="middle" x="447.62" y="-419.12" font-family="Helvetica,sans-Serif" font-size="10.00">setPosition</text>
</a>
</g>
</g>
<!-- Node3&#45;&gt;Node8 -->
<g id="edge8_Node000003_Node000008" class="edge">
<title>Node3&#45;&gt;Node8</title>
<g id="a_edge8_Node000003_Node000008"><a xlink:title=" ">
<path fill="none" stroke="#63b8ff" d="M331.24,-414.85C349.86,-417.07 369.84,-419.46 387.85,-421.61"/>
<polygon fill="#63b8ff" stroke="#63b8ff" points="387.22,-425.06 397.57,-422.77 388.05,-418.11 387.22,-425.06"/>
</a>
</g>
</g>
<!-- Node5 -->
<g id="Node000005" class="node">
<title>Node5</title>
<g id="a_Node000005"><a xlink:href="structjuce_1_1DefaultImageFormats.html#ab76b776367c9f3e631ef0d49e5c47207" target="_top" xlink:title=" ">
<polygon fill="white" stroke="#666666" points="701.88,-397.88 569.62,-397.88 569.62,-367.38 701.88,-367.38 701.88,-397.88"/>
<text xml:space="preserve" text-anchor="start" x="577.62" y="-384.38" font-family="Helvetica,sans-Serif" font-size="10.00">juce::DefaultImageFormats</text>
<text xml:space="preserve" text-anchor="middle" x="635.75" y="-373.12" font-family="Helvetica,sans-Serif" font-size="10.00">::DefaultImageFormats</text>
</a>
</g>
</g>
<!-- Node4&#45;&gt;Node5 -->
<g id="edge5_Node000004_Node000005" class="edge">
<title>Node4&#45;&gt;Node5</title>
<g id="a_edge5_Node000004_Node000005"><a xlink:title=" ">
<path fill="none" stroke="#63b8ff" d="M522.99,-384.43C534.46,-384.24 546.32,-384.05 557.84,-383.86"/>
<polygon fill="#63b8ff" stroke="#63b8ff" points="557.77,-387.37 567.71,-383.71 557.65,-380.37 557.77,-387.37"/>
</a>
</g>
</g>
<!-- Node9 -->
<g id="Node000009" class="node">
<title>Node9</title>
<g id="a_Node000009"><a xlink:href="classjuce_1_1InputStream.html#aa9962cebd2eb9356ef9a8ba1a747b842" target="_top" xlink:title=" ">
<polygon fill="#fff0f0" stroke="red" points="683.88,-446.88 587.62,-446.88 587.62,-416.38 683.88,-416.38 683.88,-446.88"/>
<text xml:space="preserve" text-anchor="start" x="595.62" y="-433.38" font-family="Helvetica,sans-Serif" font-size="10.00">juce::InputStream::</text>
<text xml:space="preserve" text-anchor="middle" x="635.75" y="-422.12" font-family="Helvetica,sans-Serif" font-size="10.00">skipNextBytes</text>
</a>
</g>
</g>
<!-- Node8&#45;&gt;Node9 -->
<g id="edge9_Node000008_Node000009" class="edge">
<title>Node8&#45;&gt;Node9</title>
<g id="a_edge9_Node000008_Node000009"><a xlink:title=" ">
<path fill="none" stroke="#63b8ff" d="M496.07,-429.39C520.36,-429.78 550.15,-430.26 575.88,-430.68"/>
<polygon fill="#63b8ff" stroke="#63b8ff" points="575.82,-434.18 585.87,-430.84 575.93,-427.18 575.82,-434.18"/>
</a>
</g>
</g>
<!-- Node9&#45;&gt;Node9 -->
<g id="edge10_Node000009_Node000009" class="edge">
<title>Node9&#45;&gt;Node9</title>
<g id="a_edge10_Node000009_Node000009"><a xlink:title=" ">
<path fill="none" stroke="#63b8ff" d="M604.54,-447.36C598.17,-456.43 608.57,-464.88 635.75,-464.88 650.61,-464.88 660.46,-462.35 665.29,-458.58"/>
<polygon fill="#63b8ff" stroke="#63b8ff" points="668.72,-459.26 666.74,-448.86 661.8,-458.23 668.72,-459.26"/>
</a>
</g>
</g>
<!-- Node83&#45;&gt;Node83 -->
<g id="edge13_Node000083_Node000083" class="edge">
<title>Node83&#45;&gt;Node83</title>
<g id="a_edge13_Node000083_Node000083"><a xlink:title=" ">
<path fill="none" stroke="#63b8ff" d="M228.37,-281.36C221.64,-290.43 232.64,-298.88 261.38,-298.88 277.09,-298.88 287.5,-296.35 292.61,-292.58"/>
<polygon fill="#63b8ff" stroke="#63b8ff" points="296.04,-293.28 294.14,-282.86 289.13,-292.19 296.04,-293.28"/>
</a>
</g>
</g>
<!-- Node84 -->
<g id="Node000084" class="node">
<title>Node84</title>
<g id="a_Node000084"><a xlink:href="classjuce_1_1Component.html#a5b7a932d5731db79424fbc8acd247805" target="_top" xlink:title=" ">
<polygon fill="white" stroke="#666666" points="703,-235.25 568.5,-235.25 568.5,-216 703,-216 703,-235.25"/>
<text xml:space="preserve" text-anchor="middle" x="635.75" y="-221.75" font-family="Helvetica,sans-Serif" font-size="10.00">juce::Component::getHeight</text>
</a>
</g>
</g>
<!-- Node83&#45;&gt;Node84 -->
<g id="edge12_Node000083_Node000084" class="edge">
<title>Node83&#45;&gt;Node84</title>
<g id="a_edge12_Node000083_Node000084"><a xlink:title=" ">
<path fill="none" stroke="#63b8ff" d="M336.84,-257.63C400.61,-250.78 492.13,-240.95 556.86,-233.99"/>
<polygon fill="#63b8ff" stroke="#63b8ff" points="557.15,-237.48 566.72,-232.93 556.4,-230.52 557.15,-237.48"/>
</a>
</g>
</g>
<!-- Node85 -->
<g id="Node000085" class="node">
<title>Node85</title>
<g id="a_Node000085"><a xlink:href="CarlaEngineGraph_8cpp.html#a51eb9b3403bff872a24b0b65fcf49b62" target="_top" xlink:title=" ">
<polygon fill="white" stroke="#666666" points="464.62,-358.25 430.62,-358.25 430.62,-339 464.62,-339 464.62,-358.25"/>
<text xml:space="preserve" text-anchor="middle" x="447.62" y="-344.75" font-family="Helvetica,sans-Serif" font-size="10.00">jmin</text>
</a>
</g>
</g>
<!-- Node83&#45;&gt;Node85 -->
<g id="edge14_Node000083_Node000085" class="edge">
<title>Node83&#45;&gt;Node85</title>
<g id="a_edge14_Node000083_Node000085"><a xlink:title=" ">
<path fill="none" stroke="#63b8ff" d="M285.04,-281.31C306.67,-295.65 340.58,-316.55 372.5,-329.62 387.48,-335.76 405,-340.36 419.24,-343.5"/>
<polygon fill="#63b8ff" stroke="#63b8ff" points="418.32,-346.88 428.83,-345.48 419.74,-340.03 418.32,-346.88"/>
</a>
</g>
</g>
<!-- Node86 -->
<g id="Node000086" class="node">
<title>Node86</title>
<g id="a_Node000086"><a xlink:href="classjuce_1_1Component.html#a06269c7e4691852353960e510265374f" target="_top" xlink:title=" ">
<polygon fill="white" stroke="#666666" points="515.25,-302.88 380,-302.88 380,-272.38 515.25,-272.38 515.25,-302.88"/>
<text xml:space="preserve" text-anchor="start" x="388" y="-289.38" font-family="Helvetica,sans-Serif" font-size="10.00">juce::Component::proportion</text>
<text xml:space="preserve" text-anchor="middle" x="447.62" y="-278.12" font-family="Helvetica,sans-Serif" font-size="10.00">OfWidth</text>
</a>
</g>
</g>
<!-- Node83&#45;&gt;Node86 -->
<g id="edge15_Node000083_Node000086" class="edge">
<title>Node83&#45;&gt;Node86</title>
<g id="a_edge15_Node000083_Node000086"><a xlink:title=" ">
<path fill="none" stroke="#63b8ff" d="M336.79,-274.51C347.2,-275.75 357.93,-277.03 368.41,-278.29"/>
<polygon fill="#63b8ff" stroke="#63b8ff" points="367.82,-281.74 378.16,-279.45 368.65,-274.79 367.82,-281.74"/>
</a>
</g>
</g>
<!-- Node87 -->
<g id="Node000087" class="node">
<title>Node87</title>
<g id="a_Node000087"><a xlink:href="namespacejuce.html#af0e7f88f33180df5f8f74d53290e11fc" target="_top" xlink:title=" ">
<polygon fill="white" stroke="#666666" points="678.25,-285.25 593.25,-285.25 593.25,-266 678.25,-266 678.25,-285.25"/>
<text xml:space="preserve" text-anchor="middle" x="635.75" y="-271.75" font-family="Helvetica,sans-Serif" font-size="10.00">juce::roundToInt</text>
</a>
</g>
</g>
<!-- Node83&#45;&gt;Node87 -->
<g id="edge19_Node000083_Node000087" class="edge">
<title>Node83&#45;&gt;Node87</title>
<g id="a_edge19_Node000083_Node000087"><a xlink:title=" ">
<path fill="none" stroke="#63b8ff" d="M336.78,-262.65C388.89,-261.15 460.12,-260.28 522.75,-263.62 541.99,-264.65 563.02,-266.67 581.6,-268.76"/>
<polygon fill="#63b8ff" stroke="#63b8ff" points="580.98,-272.21 591.32,-269.89 581.79,-265.26 580.98,-272.21"/>
</a>
</g>
</g>
<!-- Node86&#45;&gt;Node86 -->
<g id="edge16_Node000086_Node000086" class="edge">
<title>Node86&#45;&gt;Node86</title>
<g id="a_edge16_Node000086_Node000086"><a xlink:title=" ">
<path fill="none" stroke="#63b8ff" d="M414.62,-303.36C407.89,-312.43 418.89,-320.88 447.62,-320.88 463.34,-320.88 473.75,-318.35 478.86,-314.58"/>
<polygon fill="#63b8ff" stroke="#63b8ff" points="482.29,-315.28 480.39,-304.86 475.38,-314.19 482.29,-315.28"/>
</a>
</g>
</g>
<!-- Node86&#45;&gt;Node87 -->
<g id="edge17_Node000086_Node000087" class="edge">
<title>Node86&#45;&gt;Node87</title>
<g id="a_edge17_Node000086_Node000087"><a xlink:title=" ">
<path fill="none" stroke="#63b8ff" d="M515.56,-283.31C537.26,-281.91 561.04,-280.38 581.6,-279.05"/>
<polygon fill="#63b8ff" stroke="#63b8ff" points="581.71,-282.55 591.47,-278.42 581.26,-275.57 581.71,-282.55"/>
</a>
</g>
</g>
<!-- Node87&#45;&gt;Node87 -->
<g id="edge18_Node000087_Node000087" class="edge">
<title>Node87&#45;&gt;Node87</title>
<g id="a_edge18_Node000087_Node000087"><a xlink:title=" ">
<path fill="none" stroke="#63b8ff" d="M608.18,-285.54C595.6,-294.15 604.79,-303.25 635.75,-303.25 653.16,-303.25 663.69,-300.37 667.33,-296.32"/>
<polygon fill="#63b8ff" stroke="#63b8ff" points="670.62,-295.11 663.85,-286.96 664.06,-297.55 670.62,-295.11"/>
</a>
</g>
</g>
<!-- Node88&#45;&gt;Node88 -->
<g id="edge32_Node000088_Node000088" class="edge">
<title>Node88&#45;&gt;Node88</title>
<g id="a_edge32_Node000088_Node000088"><a xlink:title=" ">
<path fill="none" stroke="#63b8ff" d="M232.22,-155.54C218.92,-164.15 228.64,-173.25 261.38,-173.25 280.3,-173.25 291.54,-170.21 295.08,-165.98"/>
<polygon fill="#63b8ff" stroke="#63b8ff" points="298.34,-164.7 291.14,-156.93 291.92,-167.49 298.34,-164.7"/>
</a>
</g>
</g>
<!-- Node89 -->
<g id="Node000089" class="node">
<title>Node89</title>
<g id="a_Node000089"><a xlink:href="classjuce_1_1Component.html#ad886e26b7514369fe38fdc03074b7c80" target="_top" xlink:title=" ">
<polygon fill="white" stroke="#666666" points="512.62,-93.88 382.62,-93.88 382.62,-63.38 512.62,-63.38 512.62,-93.88"/>
<text xml:space="preserve" text-anchor="start" x="390.62" y="-80.38" font-family="Helvetica,sans-Serif" font-size="10.00">juce::Component::getLocal</text>
<text xml:space="preserve" text-anchor="middle" x="447.62" y="-69.12" font-family="Helvetica,sans-Serif" font-size="10.00">Bounds</text>
</a>
</g>
</g>
<!-- Node88&#45;&gt;Node89 -->
<g id="edge21_Node000088_Node000089" class="edge">
<title>Node88&#45;&gt;Node89</title>
<g id="a_edge21_Node000088_Node000089"><a xlink:title=" ">
<path fill="none" stroke="#63b8ff" d="M289.96,-135.59C317.04,-125.75 359.09,-110.46 392.8,-98.2"/>
<polygon fill="#63b8ff" stroke="#63b8ff" points="393.8,-101.56 402.01,-94.85 391.41,-94.98 393.8,-101.56"/>
</a>
</g>
</g>
<!-- Node90 -->
<g id="Node000090" class="node">
<title>Node90</title>
<g id="a_Node000090"><a xlink:href="classjuce_1_1Component.html#ad51044b0140c4c46c1fe67b4e6d86bb0" target="_top" xlink:title=" ">
<polygon fill="white" stroke="#666666" points="509.62,-160.88 385.62,-160.88 385.62,-130.38 509.62,-130.38 509.62,-160.88"/>
<text xml:space="preserve" text-anchor="start" x="393.62" y="-147.38" font-family="Helvetica,sans-Serif" font-size="10.00">juce::Component::internal</text>
<text xml:space="preserve" text-anchor="middle" x="447.62" y="-136.12" font-family="Helvetica,sans-Serif" font-size="10.00">RepaintUnchecked</text>
</a>
</g>
</g>
<!-- Node88&#45;&gt;Node90 -->
<g id="edge23_Node000088_Node000090" class="edge">
<title>Node88&#45;&gt;Node90</title>
<g id="a_edge23_Node000088_Node000090"><a xlink:title=" ">
<path fill="none" stroke="#63b8ff" d="M322.71,-145.62C339.15,-145.62 357.13,-145.62 374.18,-145.62"/>
<polygon fill="#63b8ff" stroke="#63b8ff" points="373.7,-149.13 383.7,-145.63 373.7,-142.13 373.7,-149.13"/>
</a>
</g>
</g>
<!-- Node89&#45;&gt;Node89 -->
<g id="edge22_Node000089_Node000089" class="edge">
<title>Node89&#45;&gt;Node89</title>
<g id="a_edge22_Node000089_Node000089"><a xlink:title=" ">
<path fill="none" stroke="#63b8ff" d="M414.62,-94.36C407.89,-103.43 418.89,-111.88 447.62,-111.88 463.34,-111.88 473.75,-109.35 478.86,-105.58"/>
<polygon fill="#63b8ff" stroke="#63b8ff" points="482.29,-106.28 480.39,-95.86 475.38,-105.19 482.29,-106.28"/>
</a>
</g>
</g>
<!-- Node90&#45;&gt;Node84 -->
<g id="edge27_Node000090_Node000084" class="edge">
<title>Node90&#45;&gt;Node84</title>
<g id="a_edge27_Node000090_Node000084"><a xlink:title=" ">
<path fill="none" stroke="#63b8ff" d="M471.73,-161.18C493.39,-175.13 527.08,-195.24 558.75,-207.62 563.15,-209.35 567.77,-210.93 572.46,-212.39"/>
<polygon fill="#63b8ff" stroke="#63b8ff" points="571.42,-215.73 582,-215.14 573.36,-209.01 571.42,-215.73"/>
</a>
</g>
</g>
<!-- Node90&#45;&gt;Node90 -->
<g id="edge30_Node000090_Node000090" class="edge">
<title>Node90&#45;&gt;Node90</title>
<g id="a_edge30_Node000090_Node000090"><a xlink:title=" ">
<path fill="none" stroke="#63b8ff" d="M414.62,-161.36C407.89,-170.43 418.89,-178.88 447.62,-178.88 463.34,-178.88 473.75,-176.35 478.86,-172.58"/>
<polygon fill="#63b8ff" stroke="#63b8ff" points="482.29,-173.28 480.39,-162.86 475.38,-172.19 482.29,-173.28"/>
</a>
</g>
</g>
<!-- Node91 -->
<g id="Node000091" class="node">
<title>Node91</title>
<g id="a_Node000091"><a xlink:href="structjuce_1_1Component_1_1ComponentHelpers.html#a378357a80af0b45ac23b244b228ffd3e" target="_top" xlink:title=" ">
<polygon fill="#fff0f0" stroke="red" points="712.75,-160.88 558.75,-160.88 558.75,-130.38 712.75,-130.38 712.75,-160.88"/>
<text xml:space="preserve" text-anchor="start" x="566.75" y="-147.38" font-family="Helvetica,sans-Serif" font-size="10.00">juce::Component::Component</text>
<text xml:space="preserve" text-anchor="middle" x="635.75" y="-136.12" font-family="Helvetica,sans-Serif" font-size="10.00">Helpers::convertToParentSpace</text>
</a>
</g>
</g>
<!-- Node90&#45;&gt;Node91 -->
<g id="edge24_Node000090_Node000091" class="edge">
<title>Node90&#45;&gt;Node91</title>
<g id="a_edge24_Node000090_Node000091"><a xlink:title=" ">
<path fill="none" stroke="#63b8ff" d="M510.09,-145.62C521.92,-145.62 534.53,-145.62 547.01,-145.62"/>
<polygon fill="#63b8ff" stroke="#63b8ff" points="546.9,-149.13 556.9,-145.63 546.9,-142.13 546.9,-149.13"/>
</a>
</g>
</g>
<!-- Node95 -->
<g id="Node000095" class="node">
<title>Node95</title>
<g id="a_Node000095"><a xlink:href="classjuce_1_1Component.html#ad13a2ae74f3e252382a58cf3e1e92a58" target="_top" xlink:title=" ">
<polygon fill="#fff0f0" stroke="red" points="875,-133.25 748.75,-133.25 748.75,-114 875,-114 875,-133.25"/>
<text xml:space="preserve" text-anchor="middle" x="811.88" y="-119.75" font-family="Helvetica,sans-Serif" font-size="10.00">juce::Component::getPeer</text>
</a>
</g>
</g>
<!-- Node90&#45;&gt;Node95 -->
<g id="edge28_Node000090_Node000095" class="edge">
<title>Node90&#45;&gt;Node95</title>
<g id="a_edge28_Node000090_Node000095"><a xlink:title=" ">
<path fill="none" stroke="#63b8ff" d="M509.69,-129.88C525.56,-126.46 542.7,-123.35 558.75,-121.62 626.8,-114.3 644.31,-120.93 712.75,-121.62 720.57,-121.7 728.73,-121.82 736.87,-121.96"/>
<polygon fill="#63b8ff" stroke="#63b8ff" points="736.75,-125.45 746.81,-122.13 736.88,-118.46 736.75,-125.45"/>
</a>
</g>
</g>
<!-- Node107 -->
<g id="Node000107" class="node">
<title>Node107</title>
<g id="a_Node000107"><a xlink:href="classjuce_1_1Component.html#ac109beb72e9dafdc724da22b8cb883c0" target="_top" xlink:title=" ">
<polygon fill="white" stroke="#666666" points="701.12,-74.25 570.38,-74.25 570.38,-55 701.12,-55 701.12,-74.25"/>
<text xml:space="preserve" text-anchor="middle" x="635.75" y="-60.75" font-family="Helvetica,sans-Serif" font-size="10.00">juce::Component::getWidth</text>
</a>
</g>
</g>
<!-- Node90&#45;&gt;Node107 -->
<g id="edge29_Node000090_Node000107" class="edge">
<title>Node90&#45;&gt;Node107</title>
<g id="a_edge29_Node000090_Node000107"><a xlink:title=" ">
<path fill="none" stroke="#63b8ff" d="M503.57,-129.9C510.21,-127.19 516.76,-124.1 522.75,-120.62 541.26,-109.88 540.13,-99.19 558.75,-88.62 565.78,-84.63 573.56,-81.21 581.39,-78.31"/>
<polygon fill="#63b8ff" stroke="#63b8ff" points="582.25,-81.72 590.58,-75.16 579.99,-75.09 582.25,-81.72"/>
</a>
</g>
</g>
<!-- Node108 -->
<g id="Node000108" class="node">
<title>Node108</title>
<g id="a_Node000108"><a xlink:href="classjuce_1_1Rectangle.html#ad403d2302452b0ae218fb3a4d9b04492" target="_top" xlink:title=" ">
<polygon fill="white" stroke="#666666" points="696.25,-198.25 575.25,-198.25 575.25,-179 696.25,-179 696.25,-198.25"/>
<text xml:space="preserve" text-anchor="middle" x="635.75" y="-184.75" font-family="Helvetica,sans-Serif" font-size="10.00">juce::Rectangle::isEmpty</text>
</a>
</g>
</g>
<!-- Node90&#45;&gt;Node108 -->
<g id="edge31_Node000090_Node000108" class="edge">
<title>Node90&#45;&gt;Node108</title>
<g id="a_edge31_Node000090_Node000108"><a xlink:title=" ">
<path fill="none" stroke="#63b8ff" d="M510.09,-159.82C532.63,-165.03 557.98,-170.89 579.9,-175.95"/>
<polygon fill="#63b8ff" stroke="#63b8ff" points="579.02,-179.34 589.55,-178.18 580.59,-172.52 579.02,-179.34"/>
</a>
</g>
</g>
<!-- Node91&#45;&gt;Node95 -->
<g id="edge25_Node000091_Node000095" class="edge">
<title>Node91&#45;&gt;Node95</title>
<g id="a_edge25_Node000091_Node000095"><a xlink:title=" ">
<path fill="none" stroke="#63b8ff" d="M713.12,-135.98C721.14,-134.96 729.27,-133.94 737.25,-132.93"/>
<polygon fill="#63b8ff" stroke="#63b8ff" points="737.42,-136.43 746.9,-131.71 736.54,-129.49 737.42,-136.43"/>
</a>
</g>
</g>
<!-- Node95&#45;&gt;Node95 -->
<g id="edge26_Node000095_Node000095" class="edge">
<title>Node95&#45;&gt;Node95</title>
<g id="a_edge26_Node000095_Node000095"><a xlink:title=" ">
<path fill="none" stroke="#63b8ff" d="M784.3,-133.54C771.72,-142.15 780.92,-151.25 811.88,-151.25 829.29,-151.25 839.82,-148.37 843.46,-144.32"/>
<polygon fill="#63b8ff" stroke="#63b8ff" points="846.74,-143.11 839.98,-134.96 840.18,-145.55 846.74,-143.11"/>
</a>
</g>
</g>
<!-- Node109&#45;&gt;Node109 -->
<g id="edge37_Node000109_Node000109" class="edge">
<title>Node109&#45;&gt;Node109</title>
<g id="a_edge37_Node000109_Node000109"><a xlink:title=" ">
<path fill="none" stroke="#63b8ff" d="M232.22,-70.54C218.92,-79.15 228.64,-88.25 261.38,-88.25 280.3,-88.25 291.54,-85.21 295.08,-80.98"/>
<polygon fill="#63b8ff" stroke="#63b8ff" points="298.34,-79.7 291.14,-71.93 291.92,-82.49 298.34,-79.7"/>
</a>
</g>
</g>
<!-- Node110 -->
<g id="Node000110" class="node">
<title>Node110</title>
<g id="a_Node000110"><a xlink:href="classjuce_1_1Timer_1_1TimerThread.html#a9f2dfcf96fd77637a1afd6beadf0f3c4" target="_top" xlink:title=" ">
<polygon fill="white" stroke="#666666" points="508.88,-34.88 386.38,-34.88 386.38,-4.37 508.88,-4.37 508.88,-34.88"/>
<text xml:space="preserve" text-anchor="start" x="394.38" y="-21.38" font-family="Helvetica,sans-Serif" font-size="10.00">juce::Timer::TimerThread</text>
<text xml:space="preserve" text-anchor="middle" x="447.62" y="-10.12" font-family="Helvetica,sans-Serif" font-size="10.00">::remove</text>
</a>
</g>
</g>
<!-- Node109&#45;&gt;Node110 -->
<g id="edge34_Node000109_Node000110" class="edge">
<title>Node109&#45;&gt;Node110</title>
<g id="a_edge34_Node000109_Node000110"><a xlink:title=" ">
<path fill="none" stroke="#63b8ff" d="M307.45,-50.6C327.77,-46.07 352.28,-40.62 375.02,-35.56"/>
<polygon fill="#63b8ff" stroke="#63b8ff" points="375.54,-39.03 384.54,-33.44 374.02,-32.2 375.54,-39.03"/>
</a>
</g>
</g>
<!-- Node111 -->
<g id="Node000111" class="node">
<title>Node111</title>
<g id="a_Node000111"><a xlink:href="classjuce_1_1Timer.html#a4517f6b34af45ee3edc05c468959146e" target="_top" xlink:title=" ">
<polygon fill="white" stroke="#666666" points="682,-19.25 589.5,-19.25 589.5,0 682,0 682,-19.25"/>
<text xml:space="preserve" text-anchor="middle" x="635.75" y="-5.75" font-family="Helvetica,sans-Serif" font-size="10.00">juce::Timer::Timer</text>
</a>
</g>
</g>
<!-- Node110&#45;&gt;Node111 -->
<g id="edge35_Node000110_Node000111" class="edge">
<title>Node110&#45;&gt;Node111</title>
<g id="a_edge35_Node000110_Node000111"><a xlink:title=" ">
<path fill="none" stroke="#63b8ff" d="M509.31,-16.36C531.34,-15.18 556.14,-13.85 577.83,-12.68"/>
<polygon fill="#63b8ff" stroke="#63b8ff" points="577.89,-16.19 587.68,-12.15 577.51,-9.2 577.89,-16.19"/>
</a>
</g>
</g>
<!-- Node111&#45;&gt;Node111 -->
<g id="edge36_Node000111_Node000111" class="edge">
<title>Node111&#45;&gt;Node111</title>
<g id="a_edge36_Node000111_Node000111"><a xlink:title=" ">
<path fill="none" stroke="#63b8ff" d="M608.18,-19.54C595.6,-28.15 604.79,-37.25 635.75,-37.25 653.16,-37.25 663.69,-34.37 667.33,-30.32"/>
<polygon fill="#63b8ff" stroke="#63b8ff" points="670.62,-29.11 663.85,-20.96 664.06,-31.55 670.62,-29.11"/>
</a>
</g>
</g>
</g>
</svg>

<g id="navigator" transform="translate(0 0)" fill="#404254">
  <rect fill="#f2f5e9" fill-opacity="0.5" stroke="#606060" stroke-width=".5" x="0" y="0" width="60" height="60"/>
  <use id="zoomplus" xlink:href="#zoomPlus" x="17" y="9" onmousedown="handleZoom(evt,'in')"/>
  <use id="zoomminus" xlink:href="#zoomMin" x="42" y="9" onmousedown="handleZoom(evt,'out')"/>
  <use id="reset" xlink:href="#resetDef" x="30" y="36" onmousedown="handleReset()"/>
   <use id="arrowup" xlink:href="#arrowUp" x="0" y="0" onmousedown="handlePan(0,-1)"/>
  <use id="arrowright" xlink:href="#arrowRight" x="0" y="0" onmousedown="handlePan(1,0)"/>
  <use id="arrowdown" xlink:href="#arrowDown" x="0" y="0" onmousedown="handlePan(0,1)"/>
  <use id="arrowleft" xlink:href="#arrowLeft" x="0" y="0" onmousedown="handlePan(-1,0)"/>
</g>
<svg viewBox="0 0 15 15" width="100%" height="30px" preserveAspectRatio="xMaxYMin meet">
 <g id="arrow_out" transform="scale(0.3 0.3)">
  <a xlink:href="classjuce_1_1ImagePreviewComponent_aed02175482e6010edc154debf1290b8b_cgraph_org.svg" target="_base">
   <rect id="button" ry="5" rx="5" y="6" x="6" height="38" width="38"
        fill="#f2f5e9" fill-opacity="0.5" stroke="#606060" stroke-width="1.0"/>
   <path id="arrow"
     d="M 11.500037,31.436501 C 11.940474,20.09759 22.043105,11.32322 32.158766,21.979434 L 37.068811,17.246167 C 37.068811,17.246167 37.088388,32 37.088388,32 L 22.160133,31.978069 C 22.160133,31.978069 26.997745,27.140456 26.997745,27.140456 C 18.528582,18.264221 13.291696,25.230495 11.500037,31.436501 z"
     style="fill:#404040;"/>
  </a>
 </g>
</svg>

<style type='text/css'>
<![CDATA[
[data-mouse-over-selected='false'] { opacity: 0.7; }
[data-mouse-over-selected='true']  { opacity: 1.0; }
]]>
</style>
<script type="application/ecmascript"><![CDATA[
document.addEventListener('DOMContentLoaded', (event) => {
  highlightEdges();
  highlightAdjacentNodes();
});
]]></script>
</svg>
