<?xml version="1.0" encoding="UTF-8" standalone="no"?>
<!DOCTYPE svg PUBLIC "-//W3C//DTD SVG 1.1//EN"
 "http://www.w3.org/Graphics/SVG/1.1/DTD/svg11.dtd">
<!-- Generated by graphviz version 14.0.2 (0)
 -->
<!-- Title: CarlaEngineJackClient::deactivate Pages: 1 -->
<svg width="699pt" height="256pt"
 viewBox="0.00 0.00 699.00 256.00" xmlns="http://www.w3.org/2000/svg" xmlns:xlink="http://www.w3.org/1999/xlink">
<g id="graph0" class="graph" transform="scale(1 1) rotate(0) translate(4 252.18)">
<title>CarlaEngineJackClient::deactivate</title>
<!-- Node1 -->
<g id="Node000001" class="node">
<title>Node1</title>
<g id="a_Node000001"><a xlink:title=" ">
<polygon fill="#999999" stroke="#666666" points="113.5,-178.5 0,-178.5 0,-148 113.5,-148 113.5,-178.5"/>
<text xml:space="preserve" text-anchor="start" x="8" y="-165" font-family="Helvetica,sans-Serif" font-size="10.00">CarlaEngineJackClient</text>
<text xml:space="preserve" text-anchor="middle" x="56.75" y="-153.75" font-family="Helvetica,sans-Serif" font-size="10.00">::deactivate</text>
</a>
</g>
</g>
<!-- Node2 -->
<g id="Node000002" class="node">
<title>Node2</title>
<g id="a_Node000002"><a xlink:href="CarlaUtils_8hpp.html#ac78ad69fd16caf2847fbb0ceca9c9d92" target="_top" xlink:title=" ">
<polygon fill="white" stroke="#666666" points="368.62,-242.88 318.12,-242.88 318.12,-223.62 368.62,-223.62 368.62,-242.88"/>
<text xml:space="preserve" text-anchor="middle" x="343.38" y="-229.38" font-family="Helvetica,sans-Serif" font-size="10.00">bool2str</text>
</a>
</g>
</g>
<!-- Node1&#45;&gt;Node2 -->
<g id="edge1_Node000001_Node000002" class="edge">
<title>Node1&#45;&gt;Node2</title>
<g id="a_edge1_Node000001_Node000002"><a xlink:title=" ">
<path fill="none" stroke="#63b8ff" d="M71.08,-178.88C87.44,-196.73 117.02,-224.91 149.5,-236.25 201.76,-254.5 266.94,-247.93 306.57,-240.99"/>
<polygon fill="#63b8ff" stroke="#63b8ff" points="307.09,-244.45 316.28,-239.17 305.81,-237.57 307.09,-244.45"/>
</a>
</g>
</g>
<!-- Node3 -->
<g id="Node000003" class="node">
<title>Node3</title>
<g id="a_Node000003"><a xlink:href="classCarlaEngineClient.html#a0c7ba89daaf7d60e45c2a70a78fe860e" target="_top" xlink:title=" ">
<polygon fill="white" stroke="#666666" points="253.25,-227.5 156.25,-227.5 156.25,-197 253.25,-197 253.25,-227.5"/>
<text xml:space="preserve" text-anchor="start" x="164.25" y="-214" font-family="Helvetica,sans-Serif" font-size="10.00">CarlaEngineClient::</text>
<text xml:space="preserve" text-anchor="middle" x="204.75" y="-202.75" font-family="Helvetica,sans-Serif" font-size="10.00">deactivate</text>
</a>
</g>
</g>
<!-- Node1&#45;&gt;Node3 -->
<g id="edge2_Node000001_Node000003" class="edge">
<title>Node1&#45;&gt;Node3</title>
<g id="a_edge2_Node000001_Node000003"><a xlink:title=" ">
<path fill="none" stroke="#63b8ff" d="M104.35,-178.89C117.58,-183.33 132.16,-188.22 145.97,-192.86"/>
<polygon fill="#63b8ff" stroke="#63b8ff" points="144.82,-196.16 155.41,-196.03 147.04,-189.53 144.82,-196.16"/>
</a>
</g>
</g>
<!-- Node4 -->
<g id="Node000004" class="node">
<title>Node4</title>
<g id="a_Node000004"><a xlink:href="classCarlaEngineClient.html#ac4315813c5dca5cdf07a3de8eaa90c79" target="_top" xlink:title=" ">
<polygon fill="white" stroke="#666666" points="253.25,-178.5 156.25,-178.5 156.25,-148 253.25,-148 253.25,-178.5"/>
<text xml:space="preserve" text-anchor="start" x="164.25" y="-165" font-family="Helvetica,sans-Serif" font-size="10.00">CarlaEngineClient::</text>
<text xml:space="preserve" text-anchor="middle" x="204.75" y="-153.75" font-family="Helvetica,sans-Serif" font-size="10.00">getProcessMode</text>
</a>
</g>
</g>
<!-- Node1&#45;&gt;Node4 -->
<g id="edge4_Node000001_Node000004" class="edge">
<title>Node1&#45;&gt;Node4</title>
<g id="a_edge4_Node000001_Node000004"><a xlink:title=" ">
<path fill="none" stroke="#63b8ff" d="M113.78,-163.25C123.95,-163.25 134.58,-163.25 144.82,-163.25"/>
<polygon fill="#63b8ff" stroke="#63b8ff" points="144.67,-166.75 154.67,-163.25 144.67,-159.75 144.67,-166.75"/>
</a>
</g>
</g>
<!-- Node5 -->
<g id="Node000005" class="node">
<title>Node5</title>
<g id="a_Node000005"><a xlink:href="classCarlaEngineClient.html#a4a72721474ebbfc00503f28b3321982d" target="_top" xlink:title=" ">
<polygon fill="white" stroke="#666666" points="253.25,-129.5 156.25,-129.5 156.25,-99 253.25,-99 253.25,-129.5"/>
<text xml:space="preserve" text-anchor="start" x="164.25" y="-116" font-family="Helvetica,sans-Serif" font-size="10.00">CarlaEngineClient::</text>
<text xml:space="preserve" text-anchor="middle" x="204.75" y="-104.75" font-family="Helvetica,sans-Serif" font-size="10.00">isActive</text>
</a>
</g>
</g>
<!-- Node1&#45;&gt;Node5 -->
<g id="edge5_Node000001_Node000005" class="edge">
<title>Node1&#45;&gt;Node5</title>
<g id="a_edge5_Node000001_Node000005"><a xlink:title=" ">
<path fill="none" stroke="#63b8ff" d="M104.35,-147.61C117.58,-143.17 132.16,-138.28 145.97,-133.64"/>
<polygon fill="#63b8ff" stroke="#63b8ff" points="147.04,-136.97 155.41,-130.47 144.82,-130.34 147.04,-136.97"/>
</a>
</g>
</g>
<!-- Node6 -->
<g id="Node000006" class="node">
<title>Node6</title>
<g id="a_Node000006"><a xlink:href="JackBridgeExport_8cpp.html#a423c556ed40fdc099f3c7b38d0f6170e" target="_top" xlink:title=" ">
<polygon fill="white" stroke="#666666" points="260,-80.88 149.5,-80.88 149.5,-61.62 260,-61.62 260,-80.88"/>
<text xml:space="preserve" text-anchor="middle" x="204.75" y="-67.38" font-family="Helvetica,sans-Serif" font-size="10.00">jackbridge_deactivate</text>
</a>
</g>
</g>
<!-- Node1&#45;&gt;Node6 -->
<g id="edge6_Node000001_Node000006" class="edge">
<title>Node1&#45;&gt;Node6</title>
<g id="a_edge6_Node000001_Node000006"><a xlink:title=" ">
<path fill="none" stroke="#63b8ff" d="M73.78,-147.7C91.2,-131.5 120.45,-106.29 149.5,-90.25 152.5,-88.59 155.68,-87.04 158.93,-85.58"/>
<polygon fill="#63b8ff" stroke="#63b8ff" points="160.08,-88.89 168.02,-81.88 157.44,-82.41 160.08,-88.89"/>
</a>
</g>
</g>
<!-- Node3&#45;&gt;Node2 -->
<g id="edge3_Node000003_Node000002" class="edge">
<title>Node3&#45;&gt;Node2</title>
<g id="a_edge3_Node000003_Node000002"><a xlink:title=" ">
<path fill="none" stroke="#63b8ff" d="M253.53,-219.59C271,-222.28 290.43,-225.27 306.66,-227.76"/>
<polygon fill="#63b8ff" stroke="#63b8ff" points="305.92,-231.19 316.34,-229.25 306.99,-224.27 305.92,-231.19"/>
</a>
</g>
</g>
<!-- Node7 -->
<g id="Node000007" class="node">
<title>Node7</title>
<g id="a_Node000007"><a xlink:href="testSem_8cpp.html#a5cbf99e8849f2e3ea613ea0a2df2f272" target="_top" xlink:title=" ">
<polygon fill="white" stroke="#666666" points="497.5,-99.88 458.25,-99.88 458.25,-80.62 497.5,-80.62 497.5,-99.88"/>
<text xml:space="preserve" text-anchor="middle" x="477.88" y="-86.38" font-family="Helvetica,sans-Serif" font-size="10.00">client</text>
</a>
</g>
</g>
<!-- Node6&#45;&gt;Node7 -->
<g id="edge7_Node000006_Node000007" class="edge">
<title>Node6&#45;&gt;Node7</title>
<g id="a_edge7_Node000006_Node000007"><a xlink:title=" ">
<path fill="none" stroke="#63b8ff" d="M260.29,-75.07C316.38,-79 401.71,-84.98 446.69,-88.13"/>
<polygon fill="#63b8ff" stroke="#63b8ff" points="446.26,-91.61 456.48,-88.82 446.75,-84.63 446.26,-91.61"/>
</a>
</g>
</g>
<!-- Node11 -->
<g id="Node000011" class="node">
<title>Node11</title>
<g id="a_Node000011"><a xlink:href="JackBridge1_8cpp.html#a6b2147f1b721f3b08c283a1cd897ee12" target="_top" xlink:title=" ">
<polygon fill="white" stroke="#666666" points="390.75,-61.88 296,-61.88 296,-42.62 390.75,-42.62 390.75,-61.88"/>
<text xml:space="preserve" text-anchor="middle" x="343.38" y="-48.38" font-family="Helvetica,sans-Serif" font-size="10.00">getBridgeInstance</text>
</a>
</g>
</g>
<!-- Node6&#45;&gt;Node11 -->
<g id="edge11_Node000006_Node000011" class="edge">
<title>Node6&#45;&gt;Node11</title>
<g id="a_edge11_Node000006_Node000011"><a xlink:title=" ">
<path fill="none" stroke="#63b8ff" d="M260.14,-63.69C268.13,-62.57 276.39,-61.43 284.45,-60.31"/>
<polygon fill="#63b8ff" stroke="#63b8ff" points="284.74,-63.8 294.16,-58.95 283.78,-56.87 284.74,-63.8"/>
</a>
</g>
</g>
<!-- Node12 -->
<g id="Node000012" class="node">
<title>Node12</title>
<g id="a_Node000012"><a xlink:href="JackBridgeExport_8cpp.html#adee3844cf738d3cb8a9a94adf3ddb4af" target="_top" xlink:title=" ">
<polygon fill="white" stroke="#666666" points="390.75,-24.88 296,-24.88 296,-5.63 390.75,-5.63 390.75,-24.88"/>
<text xml:space="preserve" text-anchor="middle" x="343.38" y="-11.38" font-family="Helvetica,sans-Serif" font-size="10.00">getBridgeInstance</text>
</a>
</g>
</g>
<!-- Node6&#45;&gt;Node12 -->
<g id="edge12_Node000006_Node000012" class="edge">
<title>Node6&#45;&gt;Node12</title>
<g id="a_edge12_Node000006_Node000012"><a xlink:title=" ">
<path fill="none" stroke="#63b8ff" d="M229.05,-61.23C247.23,-53.46 273.15,-42.49 296,-33.25 299.18,-31.96 302.49,-30.64 305.81,-29.33"/>
<polygon fill="#63b8ff" stroke="#63b8ff" points="306.88,-32.67 314.92,-25.76 304.33,-26.15 306.88,-32.67"/>
</a>
</g>
</g>
<!-- Node20 -->
<g id="Node000020" class="node">
<title>Node20</title>
<g id="a_Node000020"><a xlink:href="group__ClientFunctions.html#ga2c6447b766b13d3aa356aba2b48e51fa" target="_top" xlink:title=" ">
<polygon fill="white" stroke="#666666" points="385.5,-137.88 301.25,-137.88 301.25,-118.62 385.5,-118.62 385.5,-137.88"/>
<text xml:space="preserve" text-anchor="middle" x="343.38" y="-124.38" font-family="Helvetica,sans-Serif" font-size="10.00">jack_deactivate</text>
</a>
</g>
</g>
<!-- Node6&#45;&gt;Node20 -->
<g id="edge14_Node000006_Node000020" class="edge">
<title>Node6&#45;&gt;Node20</title>
<g id="a_edge14_Node000006_Node000020"><a xlink:title=" ">
<path fill="none" stroke="#63b8ff" d="M236.07,-81.3C243.92,-84.05 252.32,-87.14 260,-90.25 277.44,-97.31 296.53,-106.05 311.95,-113.37"/>
<polygon fill="#63b8ff" stroke="#63b8ff" points="310.07,-116.35 320.6,-117.52 313.09,-110.04 310.07,-116.35"/>
</a>
</g>
</g>
<!-- Node8 -->
<g id="Node000008" class="node">
<title>Node8</title>
<g id="a_Node000008"><a xlink:href="classJack_1_1detail_1_1JackSynchro.html#af1e9982635110dde560d91082679f1b0" target="_top" xlink:title=" ">
<polygon fill="white" stroke="#666666" points="690.5,-154.5 565,-154.5 565,-124 690.5,-124 690.5,-154.5"/>
<text xml:space="preserve" text-anchor="start" x="573" y="-141" font-family="Helvetica,sans-Serif" font-size="10.00">Jack::detail::JackSynchro</text>
<text xml:space="preserve" text-anchor="middle" x="627.75" y="-129.75" font-family="Helvetica,sans-Serif" font-size="10.00">::Connect</text>
</a>
</g>
</g>
<!-- Node7&#45;&gt;Node8 -->
<g id="edge8_Node000007_Node000008" class="edge">
<title>Node7&#45;&gt;Node8</title>
<g id="a_edge8_Node000007_Node000008"><a xlink:title=" ">
<path fill="none" stroke="#63b8ff" d="M497.9,-96.56C515.86,-102.5 543.7,-111.73 568.92,-120.09"/>
<polygon fill="#63b8ff" stroke="#63b8ff" points="567.5,-123.3 578.09,-123.13 569.7,-116.66 567.5,-123.3"/>
</a>
</g>
</g>
<!-- Node9 -->
<g id="Node000009" class="node">
<title>Node9</title>
<g id="a_Node000009"><a xlink:href="classJack_1_1detail_1_1JackSynchro.html#ab8dc6db56bb10b4cfea9625a5c002841" target="_top" xlink:title=" ">
<polygon fill="white" stroke="#666666" points="690.5,-105.5 565,-105.5 565,-75 690.5,-75 690.5,-105.5"/>
<text xml:space="preserve" text-anchor="start" x="573" y="-92" font-family="Helvetica,sans-Serif" font-size="10.00">Jack::detail::JackSynchro</text>
<text xml:space="preserve" text-anchor="middle" x="627.75" y="-80.75" font-family="Helvetica,sans-Serif" font-size="10.00">::Signal</text>
</a>
</g>
</g>
<!-- Node7&#45;&gt;Node9 -->
<g id="edge9_Node000007_Node000009" class="edge">
<title>Node7&#45;&gt;Node9</title>
<g id="a_edge9_Node000007_Node000009"><a xlink:title=" ">
<path fill="none" stroke="#63b8ff" d="M497.9,-90.25C512.19,-90.25 532.73,-90.25 553.23,-90.25"/>
<polygon fill="#63b8ff" stroke="#63b8ff" points="553.06,-93.75 563.06,-90.25 553.06,-86.75 553.06,-93.75"/>
</a>
</g>
</g>
<!-- Node10 -->
<g id="Node000010" class="node">
<title>Node10</title>
<g id="a_Node000010"><a xlink:href="classJack_1_1detail_1_1JackSynchro.html#a8a39f2065be5d07800e2f06e0f2b2f10" target="_top" xlink:title=" ">
<polygon fill="white" stroke="#666666" points="690.5,-56.5 565,-56.5 565,-26 690.5,-26 690.5,-56.5"/>
<text xml:space="preserve" text-anchor="start" x="573" y="-43" font-family="Helvetica,sans-Serif" font-size="10.00">Jack::detail::JackSynchro</text>
<text xml:space="preserve" text-anchor="middle" x="627.75" y="-31.75" font-family="Helvetica,sans-Serif" font-size="10.00">::Wait</text>
</a>
</g>
</g>
<!-- Node7&#45;&gt;Node10 -->
<g id="edge10_Node000007_Node000010" class="edge">
<title>Node7&#45;&gt;Node10</title>
<g id="a_edge10_Node000007_Node000010"><a xlink:title=" ">
<path fill="none" stroke="#63b8ff" d="M497.9,-83.94C515.86,-78 543.7,-68.77 568.92,-60.41"/>
<polygon fill="#63b8ff" stroke="#63b8ff" points="569.7,-63.84 578.09,-57.37 567.5,-57.2 569.7,-63.84"/>
</a>
</g>
</g>
<!-- Node13 -->
<g id="Node000013" class="node">
<title>Node13</title>
<g id="a_Node000013"><a xlink:href="classJackBridgeExported.html#ae11f0182cc8fe081b82562b64dcf2dc9" target="_top" xlink:title=" ">
<polygon fill="#fff0f0" stroke="red" points="529,-30.5 426.75,-30.5 426.75,0 529,0 529,-30.5"/>
<text xml:space="preserve" text-anchor="start" x="434.75" y="-17" font-family="Helvetica,sans-Serif" font-size="10.00">JackBridgeExported</text>
<text xml:space="preserve" text-anchor="middle" x="477.88" y="-5.75" font-family="Helvetica,sans-Serif" font-size="10.00">::getFunctions</text>
</a>
</g>
</g>
<!-- Node12&#45;&gt;Node13 -->
<g id="edge13_Node000012_Node000013" class="edge">
<title>Node12&#45;&gt;Node13</title>
<g id="a_edge13_Node000012_Node000013"><a xlink:title=" ">
<path fill="none" stroke="#63b8ff" d="M391.09,-15.25C398.89,-15.25 407.08,-15.25 415.19,-15.25"/>
<polygon fill="#63b8ff" stroke="#63b8ff" points="415.02,-18.75 425.02,-15.25 415.02,-11.75 415.02,-18.75"/>
</a>
</g>
</g>
<!-- Node20&#45;&gt;Node7 -->
<g id="edge16_Node000020_Node000007" class="edge">
<title>Node20&#45;&gt;Node7</title>
<g id="a_edge16_Node000020_Node000007"><a xlink:title=" ">
<path fill="none" stroke="#63b8ff" d="M379.53,-118.17C400.56,-112.14 426.98,-104.56 446.99,-98.82"/>
<polygon fill="#63b8ff" stroke="#63b8ff" points="447.84,-102.22 456.48,-96.1 445.91,-95.49 447.84,-102.22"/>
</a>
</g>
</g>
<!-- Node21 -->
<g id="Node000021" class="node">
<title>Node21</title>
<g id="a_Node000021"><a xlink:href="structJack_1_1JackGlobals.html#adf4bc0472a237936fd3c5a974c49ffbc" target="_top" xlink:title=" ">
<polygon fill="white" stroke="#666666" points="527.88,-148.5 427.88,-148.5 427.88,-118 527.88,-118 527.88,-148.5"/>
<text xml:space="preserve" text-anchor="start" x="435.88" y="-135" font-family="Helvetica,sans-Serif" font-size="10.00">Jack::JackGlobals::</text>
<text xml:space="preserve" text-anchor="middle" x="477.88" y="-123.75" font-family="Helvetica,sans-Serif" font-size="10.00">CheckContext</text>
</a>
</g>
</g>
<!-- Node20&#45;&gt;Node21 -->
<g id="edge15_Node000020_Node000021" class="edge">
<title>Node20&#45;&gt;Node21</title>
<g id="a_edge15_Node000020_Node000021"><a xlink:title=" ">
<path fill="none" stroke="#63b8ff" d="M385.94,-129.82C395.53,-130.18 405.93,-130.57 416.16,-130.96"/>
<polygon fill="#63b8ff" stroke="#63b8ff" points="415.93,-134.45 426.06,-131.33 416.2,-127.46 415.93,-134.45"/>
</a>
</g>
</g>
</g>
</svg>
