<?xml version="1.0" encoding="UTF-8" standalone="no"?>
<!DOCTYPE svg PUBLIC "-//W3C//DTD SVG 1.1//EN"
 "http://www.w3.org/Graphics/SVG/1.1/DTD/svg11.dtd">
<!-- Generated by graphviz version 14.0.2 (0)
 -->
<!-- Title: juce::StretchableObjectResizer::resizeToFit Pages: 1 -->
<svg width="252pt" height="119pt"
 viewBox="0.00 0.00 252.00 119.00" xmlns="http://www.w3.org/2000/svg" xmlns:xlink="http://www.w3.org/1999/xlink">
<g id="graph0" class="graph" transform="scale(1 1) rotate(0) translate(4 115.25)">
<title>juce::StretchableObjectResizer::resizeToFit</title>
<!-- Node1 -->
<g id="Node000001" class="node">
<title>Node1</title>
<g id="a_Node000001"><a xlink:title=" ">
<polygon fill="#999999" stroke="#666666" points="148.75,-61.88 0,-61.88 0,-31.38 148.75,-31.38 148.75,-61.88"/>
<text xml:space="preserve" text-anchor="start" x="8" y="-48.38" font-family="Helvetica,sans-Serif" font-size="10.00">juce::StretchableObjectResizer</text>
<text xml:space="preserve" text-anchor="middle" x="74.38" y="-37.12" font-family="Helvetica,sans-Serif" font-size="10.00">::resizeToFit</text>
</a>
</g>
</g>
<!-- Node1&#45;&gt;Node1 -->
<g id="edge5_Node000001_Node000001" class="edge">
<title>Node1&#45;&gt;Node1</title>
<g id="a_edge5_Node000001_Node000001"><a xlink:title=" ">
<path fill="none" stroke="#63b8ff" d="M49.61,-62.36C44.56,-71.43 52.81,-79.88 74.38,-79.88 86.17,-79.88 93.98,-77.35 97.81,-73.58"/>
<polygon fill="#63b8ff" stroke="#63b8ff" points="101.26,-74.21 98.96,-63.86 94.31,-73.38 101.26,-74.21"/>
</a>
</g>
</g>
<!-- Node2 -->
<g id="Node000002" class="node">
<title>Node2</title>
<g id="a_Node000002"><a xlink:href="namespacejuce.html#a595f2864812b76f88ed833402d0dfc93" target="_top" xlink:title=" ">
<polygon fill="white" stroke="#666666" points="243.5,-93.25 184.75,-93.25 184.75,-74 243.5,-74 243.5,-93.25"/>
<text xml:space="preserve" text-anchor="middle" x="214.12" y="-79.75" font-family="Helvetica,sans-Serif" font-size="10.00">juce::jlimit</text>
</a>
</g>
</g>
<!-- Node1&#45;&gt;Node2 -->
<g id="edge1_Node000001_Node000002" class="edge">
<title>Node1&#45;&gt;Node2</title>
<g id="a_edge1_Node000001_Node000002"><a xlink:title=" ">
<path fill="none" stroke="#63b8ff" d="M133.79,-62.32C147.16,-65.91 161.05,-69.64 173.42,-72.96"/>
<polygon fill="#63b8ff" stroke="#63b8ff" points="172.25,-76.27 182.82,-75.48 174.07,-69.51 172.25,-76.27"/>
</a>
</g>
</g>
<!-- Node3 -->
<g id="Node000003" class="node">
<title>Node3</title>
<g id="a_Node000003"><a xlink:href="CarlaEngineGraph_8cpp.html#ad294b8477886cae80a4cbfaffbdf3772" target="_top" xlink:title=" ">
<polygon fill="white" stroke="#666666" points="232.25,-56.25 196,-56.25 196,-37 232.25,-37 232.25,-56.25"/>
<text xml:space="preserve" text-anchor="middle" x="214.12" y="-42.75" font-family="Helvetica,sans-Serif" font-size="10.00">jmax</text>
</a>
</g>
</g>
<!-- Node1&#45;&gt;Node3 -->
<g id="edge3_Node000001_Node000003" class="edge">
<title>Node1&#45;&gt;Node3</title>
<g id="a_edge3_Node000001_Node000003"><a xlink:title=" ">
<path fill="none" stroke="#63b8ff" d="M149.09,-46.62C161.59,-46.62 173.89,-46.62 184.3,-46.62"/>
<polygon fill="#63b8ff" stroke="#63b8ff" points="184.06,-50.13 194.06,-46.63 184.06,-43.13 184.06,-50.13"/>
</a>
</g>
</g>
<!-- Node4 -->
<g id="Node000004" class="node">
<title>Node4</title>
<g id="a_Node000004"><a xlink:href="CarlaEngineGraph_8cpp.html#a51eb9b3403bff872a24b0b65fcf49b62" target="_top" xlink:title=" ">
<polygon fill="white" stroke="#666666" points="231.12,-19.25 197.12,-19.25 197.12,0 231.12,0 231.12,-19.25"/>
<text xml:space="preserve" text-anchor="middle" x="214.12" y="-5.75" font-family="Helvetica,sans-Serif" font-size="10.00">jmin</text>
</a>
</g>
</g>
<!-- Node1&#45;&gt;Node4 -->
<g id="edge4_Node000001_Node000004" class="edge">
<title>Node1&#45;&gt;Node4</title>
<g id="a_edge4_Node000001_Node000004"><a xlink:title=" ">
<path fill="none" stroke="#63b8ff" d="M133.79,-30.93C151.85,-26.08 170.88,-20.97 185.78,-16.97"/>
<polygon fill="#63b8ff" stroke="#63b8ff" points="186.53,-20.39 195.28,-14.42 184.71,-13.63 186.53,-20.39"/>
</a>
</g>
</g>
<!-- Node2&#45;&gt;Node2 -->
<g id="edge2_Node000002_Node000002" class="edge">
<title>Node2&#45;&gt;Node2</title>
<g id="a_edge2_Node000002_Node000002"><a xlink:title=" ">
<path fill="none" stroke="#63b8ff" d="M192.25,-93.54C182.27,-102.15 189.56,-111.25 214.12,-111.25 227.56,-111.25 235.83,-108.53 238.93,-104.65"/>
<polygon fill="#63b8ff" stroke="#63b8ff" points="242.32,-103.78 236.39,-95 235.55,-105.56 242.32,-103.78"/>
</a>
</g>
</g>
</g>
</svg>
