<?xml version="1.0" encoding="UTF-8" standalone="no"?>
<!DOCTYPE svg PUBLIC "-//W3C//DTD SVG 1.1//EN"
 "http://www.w3.org/Graphics/SVG/1.1/DTD/svg11.dtd">
<!-- Generated by graphviz version 14.0.2 (0)
 -->
<!-- Title: juce::TabbedButtonBar::resized Pages: 1 -->
<svg width="451pt" height="370pt"
 viewBox="0.00 0.00 451.00 370.00" xmlns="http://www.w3.org/2000/svg" xmlns:xlink="http://www.w3.org/1999/xlink">
<g id="graph0" class="graph" transform="scale(1 1) rotate(0) translate(4 365.5)">
<title>juce::TabbedButtonBar::resized</title>
<!-- Node1 -->
<g id="Node000001" class="node">
<title>Node1</title>
<g id="a_Node000001"><a xlink:title=" ">
<polygon fill="#999999" stroke="#666666" points="443.25,-197.5 329,-197.5 329,-167 443.25,-167 443.25,-197.5"/>
<text xml:space="preserve" text-anchor="start" x="337" y="-184" font-family="Helvetica,sans-Serif" font-size="10.00">juce::TabbedButtonBar</text>
<text xml:space="preserve" text-anchor="middle" x="386.12" y="-172.75" font-family="Helvetica,sans-Serif" font-size="10.00">::resized</text>
</a>
</g>
</g>
<!-- Node1&#45;&gt;Node1 -->
<g id="edge5_Node000001_Node000001" class="edge">
<title>Node1&#45;&gt;Node1</title>
<g id="a_edge5_Node000001_Node000001"><a xlink:title=" ">
<path fill="none" stroke="#63b8ff" d="M413.71,-209.2C409.2,-212.97 400.01,-215.5 386.12,-215.5 360.74,-215.5 351.03,-207.06 356.98,-197.99"/>
<polygon fill="#63b8ff" stroke="#63b8ff" points="417.15,-209.87 415.07,-199.48 410.22,-208.91 417.15,-209.87"/>
</a>
</g>
</g>
<!-- Node2 -->
<g id="Node000002" class="node">
<title>Node2</title>
<g id="a_Node000002"><a xlink:href="classjuce_1_1TabbedButtonBar.html#af2c69d50f2ae7966c754115385b5eda8" target="_top" xlink:title=" ">
<polygon fill="white" stroke="#666666" points="114.25,-343.5 0,-343.5 0,-313 114.25,-313 114.25,-343.5"/>
<text xml:space="preserve" text-anchor="start" x="8" y="-330" font-family="Helvetica,sans-Serif" font-size="10.00">juce::TabbedButtonBar</text>
<text xml:space="preserve" text-anchor="middle" x="57.12" y="-318.75" font-family="Helvetica,sans-Serif" font-size="10.00">::addTab</text>
</a>
</g>
</g>
<!-- Node1&#45;&gt;Node2 -->
<g id="edge1_Node000001_Node000002" class="edge">
<title>Node1&#45;&gt;Node2</title>
<g id="a_edge1_Node000001_Node000002"><a xlink:title=" ">
<path fill="none" stroke="#63b8ff" d="M376.91,-208.51C364.72,-242.46 338.27,-300.19 293,-325.25 238.24,-355.57 164.7,-350.61 114.59,-341.77"/>
<polygon fill="#63b8ff" stroke="#63b8ff" points="380.1,-210.01 380.02,-199.42 373.47,-207.75 380.1,-210.01"/>
</a>
</g>
</g>
<!-- Node3 -->
<g id="Node000003" class="node">
<title>Node3</title>
<g id="a_Node000003"><a xlink:href="classjuce_1_1TabbedButtonBar.html#adf5bf2c07b23c8c33c0c3ed7f146d7f8" target="_top" xlink:title=" ">
<polygon fill="white" stroke="#666666" points="278.75,-298.5 164.5,-298.5 164.5,-268 278.75,-268 278.75,-298.5"/>
<text xml:space="preserve" text-anchor="start" x="172.5" y="-285" font-family="Helvetica,sans-Serif" font-size="10.00">juce::TabbedButtonBar</text>
<text xml:space="preserve" text-anchor="middle" x="221.62" y="-273.75" font-family="Helvetica,sans-Serif" font-size="10.00">::lookAndFeelChanged</text>
</a>
</g>
</g>
<!-- Node1&#45;&gt;Node3 -->
<g id="edge3_Node000001_Node000003" class="edge">
<title>Node1&#45;&gt;Node3</title>
<g id="a_edge3_Node000001_Node000003"><a xlink:title=" ">
<path fill="none" stroke="#63b8ff" d="M361.75,-205.48C344.09,-222 318.58,-243.76 293,-258.25 286.91,-261.7 280.26,-264.81 273.55,-267.57"/>
<polygon fill="#63b8ff" stroke="#63b8ff" points="363.84,-208.32 368.67,-198.88 359.01,-203.25 363.84,-208.32"/>
</a>
</g>
</g>
<!-- Node4 -->
<g id="Node000004" class="node">
<title>Node4</title>
<g id="a_Node000004"><a xlink:href="classjuce_1_1TabbedButtonBar.html#a89f0e99607c3d2d6060adfe8ddd4009d" target="_top" xlink:title=" ">
<polygon fill="white" stroke="#666666" points="278.75,-231.5 164.5,-231.5 164.5,-201 278.75,-201 278.75,-231.5"/>
<text xml:space="preserve" text-anchor="start" x="172.5" y="-218" font-family="Helvetica,sans-Serif" font-size="10.00">juce::TabbedButtonBar</text>
<text xml:space="preserve" text-anchor="middle" x="221.62" y="-206.75" font-family="Helvetica,sans-Serif" font-size="10.00">::setCurrentTabIndex</text>
</a>
</g>
</g>
<!-- Node1&#45;&gt;Node4 -->
<g id="edge6_Node000001_Node000004" class="edge">
<title>Node1&#45;&gt;Node4</title>
<g id="a_edge6_Node000001_Node000004"><a xlink:title=" ">
<path fill="none" stroke="#63b8ff" d="M317.66,-196.37C304.86,-199.04 291.59,-201.82 279.18,-204.42"/>
<polygon fill="#63b8ff" stroke="#63b8ff" points="318.19,-199.83 327.26,-194.36 316.76,-192.98 318.19,-199.83"/>
</a>
</g>
</g>
<!-- Node7 -->
<g id="Node000007" class="node">
<title>Node7</title>
<g id="a_Node000007"><a xlink:href="classjuce_1_1TabbedButtonBar.html#aeb147e5d28d6555385d4ece93c237d5f" target="_top" xlink:title=" ">
<polygon fill="white" stroke="#666666" points="293,-164.5 150.25,-164.5 150.25,-134 293,-134 293,-164.5"/>
<text xml:space="preserve" text-anchor="start" x="158.25" y="-151" font-family="Helvetica,sans-Serif" font-size="10.00">juce::TabbedButtonBar</text>
<text xml:space="preserve" text-anchor="middle" x="221.62" y="-139.75" font-family="Helvetica,sans-Serif" font-size="10.00">::setMinimumTabScaleFactor</text>
</a>
</g>
</g>
<!-- Node1&#45;&gt;Node7 -->
<g id="edge13_Node000001_Node000007" class="edge">
<title>Node1&#45;&gt;Node7</title>
<g id="a_edge13_Node000001_Node000007"><a xlink:title=" ">
<path fill="none" stroke="#63b8ff" d="M317.54,-168.53C309.51,-166.89 301.29,-165.23 293.22,-163.59"/>
<polygon fill="#63b8ff" stroke="#63b8ff" points="316.77,-171.94 327.26,-170.5 318.16,-165.08 316.77,-171.94"/>
</a>
</g>
</g>
<!-- Node8 -->
<g id="Node000008" class="node">
<title>Node8</title>
<g id="a_Node000008"><a xlink:href="classjuce_1_1TabbedButtonBar.html#a62fb683bab91ff017e966b7ffbf3acc1" target="_top" xlink:title=" ">
<polygon fill="white" stroke="#666666" points="278.75,-97.5 164.5,-97.5 164.5,-67 278.75,-67 278.75,-97.5"/>
<text xml:space="preserve" text-anchor="start" x="172.5" y="-84" font-family="Helvetica,sans-Serif" font-size="10.00">juce::TabbedButtonBar</text>
<text xml:space="preserve" text-anchor="middle" x="221.62" y="-72.75" font-family="Helvetica,sans-Serif" font-size="10.00">::setOrientation</text>
</a>
</g>
</g>
<!-- Node1&#45;&gt;Node8 -->
<g id="edge15_Node000001_Node000008" class="edge">
<title>Node1&#45;&gt;Node8</title>
<g id="a_edge15_Node000001_Node000008"><a xlink:title=" ">
<path fill="none" stroke="#63b8ff" d="M350.46,-160.74C333.21,-150.05 312.02,-136.94 293,-125.25 278.24,-116.18 261.71,-106.07 248.38,-97.94"/>
<polygon fill="#63b8ff" stroke="#63b8ff" points="348.49,-163.64 358.84,-165.93 352.18,-157.69 348.49,-163.64"/>
</a>
</g>
</g>
<!-- Node9 -->
<g id="Node000009" class="node">
<title>Node9</title>
<g id="a_Node000009"><a xlink:href="classjuce_1_1TabbedButtonBar.html#a17876b05a7d7b6724217b5ab7326692d" target="_top" xlink:title=" ">
<polygon fill="white" stroke="#666666" points="278.75,-30.5 164.5,-30.5 164.5,0 278.75,0 278.75,-30.5"/>
<text xml:space="preserve" text-anchor="start" x="172.5" y="-17" font-family="Helvetica,sans-Serif" font-size="10.00">juce::TabbedButtonBar</text>
<text xml:space="preserve" text-anchor="middle" x="221.62" y="-5.75" font-family="Helvetica,sans-Serif" font-size="10.00">::setTabName</text>
</a>
</g>
</g>
<!-- Node1&#45;&gt;Node9 -->
<g id="edge17_Node000001_Node000009" class="edge">
<title>Node1&#45;&gt;Node9</title>
<g id="a_edge17_Node000001_Node000009"><a xlink:title=" ">
<path fill="none" stroke="#63b8ff" d="M370.36,-156.88C353.91,-130.11 325.34,-87.79 293,-58.25 281.37,-47.63 266.74,-38.2 253.84,-30.89"/>
<polygon fill="#63b8ff" stroke="#63b8ff" points="367.31,-158.59 375.47,-165.35 373.3,-154.98 367.31,-158.59"/>
</a>
</g>
</g>
<!-- Node2&#45;&gt;Node2 -->
<g id="edge2_Node000002_Node000002" class="edge">
<title>Node2&#45;&gt;Node2</title>
<g id="a_edge2_Node000002_Node000002"><a xlink:title=" ">
<path fill="none" stroke="#63b8ff" d="M84.71,-355.2C80.2,-358.97 71.01,-361.5 57.12,-361.5 31.74,-361.5 22.03,-353.06 27.98,-343.99"/>
<polygon fill="#63b8ff" stroke="#63b8ff" points="88.15,-355.87 86.07,-345.48 81.22,-354.91 88.15,-355.87"/>
</a>
</g>
</g>
<!-- Node3&#45;&gt;Node3 -->
<g id="edge4_Node000003_Node000003" class="edge">
<title>Node3&#45;&gt;Node3</title>
<g id="a_edge4_Node000003_Node000003"><a xlink:title=" ">
<path fill="none" stroke="#63b8ff" d="M249.21,-310.2C244.7,-313.97 235.51,-316.5 221.62,-316.5 196.24,-316.5 186.53,-308.06 192.48,-298.99"/>
<polygon fill="#63b8ff" stroke="#63b8ff" points="252.65,-310.87 250.57,-300.48 245.72,-309.91 252.65,-310.87"/>
</a>
</g>
</g>
<!-- Node4&#45;&gt;Node2 -->
<g id="edge7_Node000004_Node000002" class="edge">
<title>Node4&#45;&gt;Node2</title>
<g id="a_edge7_Node000004_Node000002"><a xlink:title=" ">
<path fill="none" stroke="#63b8ff" d="M184.09,-237.68C173.07,-244.38 161.05,-251.93 150.25,-259.25 124.61,-276.63 96.25,-298.26 77.86,-312.62"/>
<polygon fill="#63b8ff" stroke="#63b8ff" points="185.79,-240.74 192.55,-232.58 182.18,-234.74 185.79,-240.74"/>
</a>
</g>
</g>
<!-- Node4&#45;&gt;Node4 -->
<g id="edge12_Node000004_Node000004" class="edge">
<title>Node4&#45;&gt;Node4</title>
<g id="a_edge12_Node000004_Node000004"><a xlink:title=" ">
<path fill="none" stroke="#63b8ff" d="M249.21,-243.2C244.7,-246.97 235.51,-249.5 221.62,-249.5 196.24,-249.5 186.53,-241.06 192.48,-231.99"/>
<polygon fill="#63b8ff" stroke="#63b8ff" points="252.65,-243.87 250.57,-233.48 245.72,-242.91 252.65,-243.87"/>
</a>
</g>
</g>
<!-- Node5 -->
<g id="Node000005" class="node">
<title>Node5</title>
<g id="a_Node000005"><a xlink:href="classjuce_1_1TabbedButtonBar.html#acc1fedd50614b51d29fbd7674f890321" target="_top" xlink:title=" ">
<polygon fill="white" stroke="#666666" points="114.25,-246.5 0,-246.5 0,-216 114.25,-216 114.25,-246.5"/>
<text xml:space="preserve" text-anchor="start" x="8" y="-233" font-family="Helvetica,sans-Serif" font-size="10.00">juce::TabbedButtonBar</text>
<text xml:space="preserve" text-anchor="middle" x="57.12" y="-221.75" font-family="Helvetica,sans-Serif" font-size="10.00">::clearTabs</text>
</a>
</g>
</g>
<!-- Node4&#45;&gt;Node5 -->
<g id="edge8_Node000004_Node000005" class="edge">
<title>Node4&#45;&gt;Node5</title>
<g id="a_edge8_Node000004_Node000005"><a xlink:title=" ">
<path fill="none" stroke="#63b8ff" d="M153.16,-222.48C140.36,-223.66 127.09,-224.88 114.68,-226.03"/>
<polygon fill="#63b8ff" stroke="#63b8ff" points="153.1,-226 162.74,-221.59 152.46,-219.03 153.1,-226"/>
</a>
</g>
</g>
<!-- Node6 -->
<g id="Node000006" class="node">
<title>Node6</title>
<g id="a_Node000006"><a xlink:href="classjuce_1_1TabbedButtonBar.html#a7c251e0ebc8a56eb32c406afc0fec16d" target="_top" xlink:title=" ">
<polygon fill="white" stroke="#666666" points="114.25,-179.5 0,-179.5 0,-149 114.25,-149 114.25,-179.5"/>
<text xml:space="preserve" text-anchor="start" x="8" y="-166" font-family="Helvetica,sans-Serif" font-size="10.00">juce::TabbedButtonBar</text>
<text xml:space="preserve" text-anchor="middle" x="57.12" y="-154.75" font-family="Helvetica,sans-Serif" font-size="10.00">::removeTab</text>
</a>
</g>
</g>
<!-- Node4&#45;&gt;Node6 -->
<g id="edge10_Node000004_Node000006" class="edge">
<title>Node4&#45;&gt;Node6</title>
<g id="a_edge10_Node000004_Node000006"><a xlink:title=" ">
<path fill="none" stroke="#63b8ff" d="M160.68,-197.07C143.06,-191.43 124,-185.33 107.15,-179.94"/>
<polygon fill="#63b8ff" stroke="#63b8ff" points="159.4,-200.33 169.99,-200.05 161.53,-193.66 159.4,-200.33"/>
</a>
</g>
</g>
<!-- Node5&#45;&gt;Node5 -->
<g id="edge9_Node000005_Node000005" class="edge">
<title>Node5&#45;&gt;Node5</title>
<g id="a_edge9_Node000005_Node000005"><a xlink:title=" ">
<path fill="none" stroke="#63b8ff" d="M84.71,-258.2C80.2,-261.97 71.01,-264.5 57.12,-264.5 31.74,-264.5 22.03,-256.06 27.98,-246.99"/>
<polygon fill="#63b8ff" stroke="#63b8ff" points="88.15,-258.87 86.07,-248.48 81.22,-257.91 88.15,-258.87"/>
</a>
</g>
</g>
<!-- Node6&#45;&gt;Node6 -->
<g id="edge11_Node000006_Node000006" class="edge">
<title>Node6&#45;&gt;Node6</title>
<g id="a_edge11_Node000006_Node000006"><a xlink:title=" ">
<path fill="none" stroke="#63b8ff" d="M84.71,-191.2C80.2,-194.97 71.01,-197.5 57.12,-197.5 31.74,-197.5 22.03,-189.06 27.98,-179.99"/>
<polygon fill="#63b8ff" stroke="#63b8ff" points="88.15,-191.87 86.07,-181.48 81.22,-190.91 88.15,-191.87"/>
</a>
</g>
</g>
<!-- Node7&#45;&gt;Node7 -->
<g id="edge14_Node000007_Node000007" class="edge">
<title>Node7&#45;&gt;Node7</title>
<g id="a_edge14_Node000007_Node000007"><a xlink:title=" ">
<path fill="none" stroke="#63b8ff" d="M249.21,-176.2C244.7,-179.97 235.51,-182.5 221.62,-182.5 196.24,-182.5 186.53,-174.06 192.48,-164.99"/>
<polygon fill="#63b8ff" stroke="#63b8ff" points="252.65,-176.87 250.57,-166.48 245.72,-175.91 252.65,-176.87"/>
</a>
</g>
</g>
<!-- Node8&#45;&gt;Node8 -->
<g id="edge16_Node000008_Node000008" class="edge">
<title>Node8&#45;&gt;Node8</title>
<g id="a_edge16_Node000008_Node000008"><a xlink:title=" ">
<path fill="none" stroke="#63b8ff" d="M249.21,-109.2C244.7,-112.97 235.51,-115.5 221.62,-115.5 196.24,-115.5 186.53,-107.06 192.48,-97.99"/>
<polygon fill="#63b8ff" stroke="#63b8ff" points="252.65,-109.87 250.57,-99.48 245.72,-108.91 252.65,-109.87"/>
</a>
</g>
</g>
<!-- Node9&#45;&gt;Node9 -->
<g id="edge18_Node000009_Node000009" class="edge">
<title>Node9&#45;&gt;Node9</title>
<g id="a_edge18_Node000009_Node000009"><a xlink:title=" ">
<path fill="none" stroke="#63b8ff" d="M249.21,-42.2C244.7,-45.97 235.51,-48.5 221.62,-48.5 196.24,-48.5 186.53,-40.06 192.48,-30.99"/>
<polygon fill="#63b8ff" stroke="#63b8ff" points="252.65,-42.87 250.57,-32.48 245.72,-41.91 252.65,-42.87"/>
</a>
</g>
</g>
</g>
</svg>
