<?xml version="1.0" encoding="UTF-8" standalone="no"?>
<!DOCTYPE svg PUBLIC "-//W3C//DTD SVG 1.1//EN"
 "http://www.w3.org/Graphics/SVG/1.1/DTD/svg11.dtd">
<!-- Generated by graphviz version 14.0.2 (0)
 -->
<!-- Title: lmms::StereoEnhancerEffect::StereoEnhancerEffect Pages: 1 -->
<!--zoomable 189 -->

<svg id="main" version="1.1" xmlns="http://www.w3.org/2000/svg" xmlns:xlink="http://www.w3.org/1999/xlink" xml:space="preserve" onload="init(evt)">

<style type="text/css"><![CDATA[
.node, .edge {opacity: 0.7;}
.node.selected, .edge.selected {opacity: 1;}
.edge:hover path { stroke: red; }
.edge:hover polygon { stroke: red; fill: red; }
]]></style>

<defs>
  <circle id="rim" cx="0" cy="0" r="7"/>
  <circle id="rim2" cx="0" cy="0" r="3.5"/>
  <g id="zoomPlus">
    <use xlink:href="#rim" fill="#404040"><set attributeName="fill" to="#808080" begin="zoomplus.mouseover" end="zoomplus.mouseout"/></use>
    <path d="M-4,0h8M0,-4v8" fill="none" stroke="white" stroke-width="1.5" pointer-events="none"/>
  </g>
  <g id="zoomMin">
    <use xlink:href="#rim" fill="#404040"><set attributeName="fill" to="#808080" begin="zoomminus.mouseover" end="zoomminus.mouseout"/></use>
    <path d="M-4,0h8" fill="none" stroke="white" stroke-width="1.5" pointer-events="none"/>
  </g>
  <g id="arrowUp" transform="translate(30 24)">
    <use xlink:href="#rim"/>
    <path pointer-events="none" fill="none" stroke="white" stroke-width="1.5" d="M0,-3.0v7 M-2.5,-0.5L0,-3.0L2.5,-0.5"/>
  </g>
  <g id="arrowRight" transform="rotate(90) translate(36 -43)">
    <use xlink:href="#rim"/>
    <path pointer-events="none" fill="none" stroke="white" stroke-width="1.5" d="M0,-3.0v7 M-2.5,-0.5L0,-3.0L2.5,-0.5"/>
  </g>
  <g id="arrowDown" transform="rotate(180) translate(-30 -48)">
    <use xlink:href="#rim"/>
    <path pointer-events="none" fill="none" stroke="white" stroke-width="1.5" d="M0,-3.0v7 M-2.5,-0.5L0,-3.0L2.5,-0.5"/>
  </g>
  <g id="arrowLeft" transform="rotate(270) translate(-36 17)">
    <use xlink:href="#rim"/>
    <path pointer-events="none" fill="none" stroke="white" stroke-width="1.5" d="M0,-3.0v7 M-2.5,-0.5L0,-3.0L2.5,-0.5"/>
  </g>
  <g id="resetDef">
    <use xlink:href="#rim2" fill="#404040"><set attributeName="fill" to="#808080" begin="reset.mouseover" end="reset.mouseout"/></use>
  </g>
</defs>
<script type="application/ecmascript">
var viewWidth = 669;
var viewHeight = 189;
var sectionId = 'dynsection-2';
</script>
<script type="application/ecmascript" xlink:href="svg.min.js"/>
<svg id="graph" class="graph">
<g id="viewport">
<title>lmms::StereoEnhancerEffect::StereoEnhancerEffect</title>
<!-- Node1 -->
<g id="Node000001" class="node">
<title>Node1</title>
<g id="a_Node000001"><a xlink:title=" ">
<polygon fill="#999999" stroke="#666666" points="138.25,-158.88 0,-158.88 0,-128.38 138.25,-128.38 138.25,-158.88"/>
<text xml:space="preserve" text-anchor="start" x="8" y="-145.38" font-family="Helvetica,sans-Serif" font-size="10.00">lmms::StereoEnhancerEffect</text>
<text xml:space="preserve" text-anchor="middle" x="69.12" y="-134.12" font-family="Helvetica,sans-Serif" font-size="10.00">::StereoEnhancerEffect</text>
</a>
</g>
</g>
<!-- Node2 -->
<g id="Node000002" class="node">
<title>Node2</title>
<g id="a_Node000002"><a xlink:href="classlmms_1_1StereoEnhancerEffect.html#a9983fdc5793dc3968501910e65395dad" target="_top" xlink:title=" ">
<polygon fill="white" stroke="#666666" points="312.5,-180.88 174.25,-180.88 174.25,-150.38 312.5,-150.38 312.5,-180.88"/>
<text xml:space="preserve" text-anchor="start" x="182.25" y="-167.38" font-family="Helvetica,sans-Serif" font-size="10.00">lmms::StereoEnhancerEffect</text>
<text xml:space="preserve" text-anchor="middle" x="243.38" y="-156.12" font-family="Helvetica,sans-Serif" font-size="10.00">::clearMyBuffer</text>
</a>
</g>
</g>
<!-- Node1&#45;&gt;Node2 -->
<g id="edge1_Node000001_Node000002" class="edge">
<title>Node1&#45;&gt;Node2</title>
<g id="a_edge1_Node000001_Node000002"><a xlink:title=" ">
<path fill="none" stroke="#63b8ff" d="M138.7,-152.38C146.54,-153.38 154.59,-154.41 162.56,-155.43"/>
<polygon fill="#63b8ff" stroke="#63b8ff" points="161.89,-158.87 172.26,-156.67 162.78,-151.93 161.89,-158.87"/>
</a>
</g>
</g>
<!-- Node3 -->
<g id="Node000003" class="node">
<title>Node3</title>
<g id="a_Node000003"><a xlink:href="classlmms_1_1Effect.html#a48b2935ccf87ccdb457e84dc0e05f777" target="_top" xlink:title=" ">
<polygon fill="white" stroke="#666666" points="292.62,-132.25 194.12,-132.25 194.12,-113 292.62,-113 292.62,-132.25"/>
<text xml:space="preserve" text-anchor="middle" x="243.38" y="-118.75" font-family="Helvetica,sans-Serif" font-size="10.00">lmms::Effect::Effect</text>
</a>
</g>
</g>
<!-- Node1&#45;&gt;Node3 -->
<g id="edge2_Node000001_Node000003" class="edge">
<title>Node1&#45;&gt;Node3</title>
<g id="a_edge2_Node000001_Node000003"><a xlink:title=" ">
<path fill="none" stroke="#63b8ff" d="M138.7,-135.26C153.21,-133.5 168.41,-131.64 182.57,-129.92"/>
<polygon fill="#63b8ff" stroke="#63b8ff" points="182.65,-133.43 192.16,-128.75 181.81,-126.48 182.65,-133.43"/>
</a>
</g>
</g>
<!-- Node4 -->
<g id="Node000004" class="node">
<title>Node4</title>
<g id="a_Node000004"><a xlink:href="classlmms_1_1Model.html#a140ee903da70ba289abf1ee473df34cb" target="_top" xlink:title=" ">
<polygon fill="white" stroke="#666666" points="493.12,-169.25 360.88,-169.25 360.88,-150 493.12,-150 493.12,-169.25"/>
<text xml:space="preserve" text-anchor="middle" x="427" y="-155.75" font-family="Helvetica,sans-Serif" font-size="10.00">lmms::Model::dataChanged</text>
</a>
</g>
</g>
<!-- Node3&#45;&gt;Node4 -->
<g id="edge3_Node000003_Node000004" class="edge">
<title>Node3&#45;&gt;Node4</title>
<g id="a_edge3_Node000003_Node000004"><a xlink:title=" ">
<path fill="none" stroke="#63b8ff" d="M293.05,-132.54C315.26,-137.07 341.8,-142.47 365.3,-147.26"/>
<polygon fill="#63b8ff" stroke="#63b8ff" points="364.58,-150.68 375.08,-149.25 365.98,-143.83 364.58,-150.68"/>
</a>
</g>
</g>
<!-- Node5 -->
<g id="Node000005" class="node">
<title>Node5</title>
<g id="a_Node000005"><a xlink:href="classlmms_1_1Effect.html#a8efee3cd9edc420d6f19543863d8d672" target="_top" xlink:title=" ">
<polygon fill="white" stroke="#666666" points="505.5,-132.25 348.5,-132.25 348.5,-113 505.5,-113 505.5,-132.25"/>
<text xml:space="preserve" text-anchor="middle" x="427" y="-118.75" font-family="Helvetica,sans-Serif" font-size="10.00">lmms::Effect::onEnabledChanged</text>
</a>
</g>
</g>
<!-- Node3&#45;&gt;Node5 -->
<g id="edge4_Node000003_Node000005" class="edge">
<title>Node3&#45;&gt;Node5</title>
<g id="a_edge4_Node000003_Node000005"><a xlink:title=" ">
<path fill="none" stroke="#63b8ff" d="M293.05,-122.62C306.53,-122.62 321.6,-122.62 336.62,-122.62"/>
<polygon fill="#63b8ff" stroke="#63b8ff" points="336.56,-126.13 346.56,-122.63 336.56,-119.13 336.56,-126.13"/>
</a>
</g>
</g>
<!-- Node6 -->
<g id="Node000006" class="node">
<title>Node6</title>
<g id="a_Node000006"><a xlink:href="classlmms_1_1Plugin.html#a605284c1f4663ee10ea8e65765f83313" target="_top" xlink:title=" ">
<polygon fill="white" stroke="#666666" points="478.5,-95.25 375.5,-95.25 375.5,-76 478.5,-76 478.5,-95.25"/>
<text xml:space="preserve" text-anchor="middle" x="427" y="-81.75" font-family="Helvetica,sans-Serif" font-size="10.00">lmms::Plugin::Plugin</text>
</a>
</g>
</g>
<!-- Node3&#45;&gt;Node6 -->
<g id="edge5_Node000003_Node000006" class="edge">
<title>Node3&#45;&gt;Node6</title>
<g id="a_edge5_Node000003_Node000006"><a xlink:title=" ">
<path fill="none" stroke="#63b8ff" d="M293.05,-112.71C315.26,-108.18 341.8,-102.78 365.3,-97.99"/>
<polygon fill="#63b8ff" stroke="#63b8ff" points="365.98,-101.42 375.08,-96 364.58,-94.57 365.98,-101.42"/>
</a>
</g>
</g>
<!-- Node7 -->
<g id="Node000007" class="node">
<title>Node7</title>
<g id="a_Node000007"><a xlink:href="classlmms_1_1Plugin.html#ad9c1e8ac0570b970dfb74e7d863b21df" target="_top" xlink:title="Return plugin Descriptor.">
<polygon fill="white" stroke="#666666" points="660.62,-160.25 541.88,-160.25 541.88,-141 660.62,-141 660.62,-160.25"/>
<text xml:space="preserve" text-anchor="middle" x="601.25" y="-146.75" font-family="Helvetica,sans-Serif" font-size="10.00">lmms::Plugin::descriptor</text>
</a>
</g>
</g>
<!-- Node6&#45;&gt;Node7 -->
<g id="edge6_Node000006_Node000007" class="edge">
<title>Node6&#45;&gt;Node7</title>
<g id="a_edge6_Node000006_Node000007"><a xlink:title=" ">
<path fill="none" stroke="#63b8ff" d="M478.69,-94.06C487.86,-96.51 497.15,-99.64 505.5,-103.62 523.8,-112.34 523.59,-122.14 541.5,-131.62 544.77,-133.36 548.22,-134.96 551.75,-136.45"/>
<polygon fill="#63b8ff" stroke="#63b8ff" points="550.46,-139.71 561.05,-140.02 552.97,-133.17 550.46,-139.71"/>
</a>
</g>
</g>
<!-- Node8 -->
<g id="Node000008" class="node">
<title>Node8</title>
<g id="a_Node000008"><a xlink:href="classlmms_1_1JournallingObject.html#a851a380f109424ab92ff103ead6cc8fe" target="_top" xlink:title=" ">
<polygon fill="#fff0f0" stroke="red" points="661,-122.88 541.5,-122.88 541.5,-92.38 661,-92.38 661,-122.88"/>
<text xml:space="preserve" text-anchor="start" x="549.5" y="-109.38" font-family="Helvetica,sans-Serif" font-size="10.00">lmms::JournallingObject</text>
<text xml:space="preserve" text-anchor="middle" x="601.25" y="-98.12" font-family="Helvetica,sans-Serif" font-size="10.00">::JournallingObject</text>
</a>
</g>
</g>
<!-- Node6&#45;&gt;Node8 -->
<g id="edge7_Node000006_Node000008" class="edge">
<title>Node6&#45;&gt;Node8</title>
<g id="a_edge7_Node000006_Node000008"><a xlink:title=" ">
<path fill="none" stroke="#63b8ff" d="M478.75,-92.11C494.79,-94.15 512.8,-96.46 529.95,-98.65"/>
<polygon fill="#63b8ff" stroke="#63b8ff" points="529.21,-102.08 539.57,-99.87 530.09,-95.14 529.21,-102.08"/>
</a>
</g>
</g>
<!-- Node10 -->
<g id="Node000010" class="node">
<title>Node10</title>
<g id="a_Node000010"><a xlink:href="classlmms_1_1Plugin.html#ac37c1fbf1f7d4d93588c02c1fa4d6c45" target="_top" xlink:title=" ">
<polygon fill="white" stroke="#666666" points="646.75,-74.25 555.75,-74.25 555.75,-55 646.75,-55 646.75,-74.25"/>
<text xml:space="preserve" text-anchor="middle" x="601.25" y="-60.75" font-family="Helvetica,sans-Serif" font-size="10.00">lmms::Plugin::key</text>
</a>
</g>
</g>
<!-- Node6&#45;&gt;Node10 -->
<g id="edge8_Node000006_Node000010" class="edge">
<title>Node6&#45;&gt;Node10</title>
<g id="a_edge8_Node000006_Node000010"><a xlink:title=" ">
<path fill="none" stroke="#63b8ff" d="M478.75,-79.44C499.26,-76.94 523.02,-74.04 544.05,-71.48"/>
<polygon fill="#63b8ff" stroke="#63b8ff" points="544.42,-74.96 553.92,-70.27 543.57,-68.01 544.42,-74.96"/>
</a>
</g>
</g>
<!-- Node11 -->
<g id="Node000011" class="node">
<title>Node11</title>
<g id="a_Node000011"><a xlink:href="classlmms_1_1Model.html#a91562bd45ea0e4d557f4f3139021482c" target="_top" xlink:title=" ">
<polygon fill="#fff0f0" stroke="red" points="652,-19.25 550.5,-19.25 550.5,0 652,0 652,-19.25"/>
<text xml:space="preserve" text-anchor="middle" x="601.25" y="-5.75" font-family="Helvetica,sans-Serif" font-size="10.00">lmms::Model::Model</text>
</a>
</g>
</g>
<!-- Node6&#45;&gt;Node11 -->
<g id="edge9_Node000006_Node000011" class="edge">
<title>Node6&#45;&gt;Node11</title>
<g id="a_edge9_Node000006_Node000011"><a xlink:title=" ">
<path fill="none" stroke="#63b8ff" d="M450.87,-75.53C480.68,-62.38 533.03,-39.29 567.16,-24.22"/>
<polygon fill="#63b8ff" stroke="#63b8ff" points="568.44,-27.49 576.17,-20.25 565.61,-21.08 568.44,-27.49"/>
</a>
</g>
</g>
<!-- Node11&#45;&gt;Node11 -->
<g id="edge10_Node000011_Node000011" class="edge">
<title>Node11&#45;&gt;Node11</title>
<g id="a_edge10_Node000011_Node000011"><a xlink:title=" ">
<path fill="none" stroke="#63b8ff" d="M573.97,-19.54C561.53,-28.15 570.62,-37.25 601.25,-37.25 618.48,-37.25 628.89,-34.37 632.49,-30.32"/>
<polygon fill="#63b8ff" stroke="#63b8ff" points="635.79,-29.14 629.05,-20.96 629.22,-31.55 635.79,-29.14"/>
</a>
</g>
</g>
</g>
</svg>

<g id="navigator" transform="translate(0 0)" fill="#404254">
  <rect fill="#f2f5e9" fill-opacity="0.5" stroke="#606060" stroke-width=".5" x="0" y="0" width="60" height="60"/>
  <use id="zoomplus" xlink:href="#zoomPlus" x="17" y="9" onmousedown="handleZoom(evt,'in')"/>
  <use id="zoomminus" xlink:href="#zoomMin" x="42" y="9" onmousedown="handleZoom(evt,'out')"/>
  <use id="reset" xlink:href="#resetDef" x="30" y="36" onmousedown="handleReset()"/>
   <use id="arrowup" xlink:href="#arrowUp" x="0" y="0" onmousedown="handlePan(0,-1)"/>
  <use id="arrowright" xlink:href="#arrowRight" x="0" y="0" onmousedown="handlePan(1,0)"/>
  <use id="arrowdown" xlink:href="#arrowDown" x="0" y="0" onmousedown="handlePan(0,1)"/>
  <use id="arrowleft" xlink:href="#arrowLeft" x="0" y="0" onmousedown="handlePan(-1,0)"/>
</g>
<svg viewBox="0 0 15 15" width="100%" height="30px" preserveAspectRatio="xMaxYMin meet">
 <g id="arrow_out" transform="scale(0.3 0.3)">
  <a xlink:href="classlmms_1_1StereoEnhancerEffect_ac4137b7fc6389d06e5643b4fae324f9d_cgraph_org.svg" target="_base">
   <rect id="button" ry="5" rx="5" y="6" x="6" height="38" width="38"
        fill="#f2f5e9" fill-opacity="0.5" stroke="#606060" stroke-width="1.0"/>
   <path id="arrow"
     d="M 11.500037,31.436501 C 11.940474,20.09759 22.043105,11.32322 32.158766,21.979434 L 37.068811,17.246167 C 37.068811,17.246167 37.088388,32 37.088388,32 L 22.160133,31.978069 C 22.160133,31.978069 26.997745,27.140456 26.997745,27.140456 C 18.528582,18.264221 13.291696,25.230495 11.500037,31.436501 z"
     style="fill:#404040;"/>
  </a>
 </g>
</svg>

<style type='text/css'>
<![CDATA[
[data-mouse-over-selected='false'] { opacity: 0.7; }
[data-mouse-over-selected='true']  { opacity: 1.0; }
]]>
</style>
<script type="application/ecmascript"><![CDATA[
document.addEventListener('DOMContentLoaded', (event) => {
  highlightEdges();
  highlightAdjacentNodes();
});
]]></script>
</svg>
