<?xml version="1.0" encoding="UTF-8" standalone="no"?>
<!DOCTYPE svg PUBLIC "-//W3C//DTD SVG 1.1//EN"
 "http://www.w3.org/Graphics/SVG/1.1/DTD/svg11.dtd">
<!-- Generated by graphviz version 14.0.2 (0)
 -->
<!-- Title: zyncarla::ADnote::setupVoiceMod Pages: 1 -->
<!--zoomable 177 -->

<svg id="main" version="1.1" xmlns="http://www.w3.org/2000/svg" xmlns:xlink="http://www.w3.org/1999/xlink" xml:space="preserve" onload="init(evt)">

<style type="text/css"><![CDATA[
.node, .edge {opacity: 0.7;}
.node.selected, .edge.selected {opacity: 1;}
.edge:hover path { stroke: red; }
.edge:hover polygon { stroke: red; fill: red; }
]]></style>

<defs>
  <circle id="rim" cx="0" cy="0" r="7"/>
  <circle id="rim2" cx="0" cy="0" r="3.5"/>
  <g id="zoomPlus">
    <use xlink:href="#rim" fill="#404040"><set attributeName="fill" to="#808080" begin="zoomplus.mouseover" end="zoomplus.mouseout"/></use>
    <path d="M-4,0h8M0,-4v8" fill="none" stroke="white" stroke-width="1.5" pointer-events="none"/>
  </g>
  <g id="zoomMin">
    <use xlink:href="#rim" fill="#404040"><set attributeName="fill" to="#808080" begin="zoomminus.mouseover" end="zoomminus.mouseout"/></use>
    <path d="M-4,0h8" fill="none" stroke="white" stroke-width="1.5" pointer-events="none"/>
  </g>
  <g id="arrowUp" transform="translate(30 24)">
    <use xlink:href="#rim"/>
    <path pointer-events="none" fill="none" stroke="white" stroke-width="1.5" d="M0,-3.0v7 M-2.5,-0.5L0,-3.0L2.5,-0.5"/>
  </g>
  <g id="arrowRight" transform="rotate(90) translate(36 -43)">
    <use xlink:href="#rim"/>
    <path pointer-events="none" fill="none" stroke="white" stroke-width="1.5" d="M0,-3.0v7 M-2.5,-0.5L0,-3.0L2.5,-0.5"/>
  </g>
  <g id="arrowDown" transform="rotate(180) translate(-30 -48)">
    <use xlink:href="#rim"/>
    <path pointer-events="none" fill="none" stroke="white" stroke-width="1.5" d="M0,-3.0v7 M-2.5,-0.5L0,-3.0L2.5,-0.5"/>
  </g>
  <g id="arrowLeft" transform="rotate(270) translate(-36 17)">
    <use xlink:href="#rim"/>
    <path pointer-events="none" fill="none" stroke="white" stroke-width="1.5" d="M0,-3.0v7 M-2.5,-0.5L0,-3.0L2.5,-0.5"/>
  </g>
  <g id="resetDef">
    <use xlink:href="#rim2" fill="#404040"><set attributeName="fill" to="#808080" begin="reset.mouseover" end="reset.mouseout"/></use>
  </g>
</defs>
<script type="application/ecmascript">
var viewWidth = 588;
var viewHeight = 177;
var sectionId = 'dynsection-39';
</script>
<script type="application/ecmascript" xlink:href="svg.min.js"/>
<svg id="graph" class="graph">
<g id="viewport">
<title>zyncarla::ADnote::setupVoiceMod</title>
<!-- Node1 -->
<g id="Node000001" class="node">
<title>Node1</title>
<g id="a_Node000001"><a xlink:title=" ">
<polygon fill="#999999" stroke="#666666" points="160,-93.25 0,-93.25 0,-74 160,-74 160,-93.25"/>
<text xml:space="preserve" text-anchor="middle" x="80" y="-79.75" font-family="Helvetica,sans-Serif" font-size="10.00">zyncarla::ADnote::setupVoiceMod</text>
</a>
</g>
</g>
<!-- Node2 -->
<g id="Node000002" class="node">
<title>Node2</title>
<g id="a_Node000002"><a xlink:href="classzyncarla_1_1ADnote.html#afc533be63b608c8c2bc5b6cf565ad4df" target="_top" xlink:title=" ">
<polygon fill="white" stroke="#666666" points="377,-169.25 196,-169.25 196,-150 377,-150 377,-169.25"/>
<text xml:space="preserve" text-anchor="middle" x="286.5" y="-155.75" font-family="Helvetica,sans-Serif" font-size="10.00">zyncarla::ADnote::getFMvoicebasefreq</text>
</a>
</g>
</g>
<!-- Node1&#45;&gt;Node2 -->
<g id="edge1_Node000001_Node000002" class="edge">
<title>Node1&#45;&gt;Node2</title>
<g id="a_edge1_Node000001_Node000002"><a xlink:title=" ">
<path fill="none" stroke="#63b8ff" d="M100.54,-93.64C123.1,-104.93 161.54,-123.31 196,-135.62 207.25,-139.65 219.5,-143.35 231.23,-146.59"/>
<polygon fill="#63b8ff" stroke="#63b8ff" points="230.24,-149.95 240.81,-149.16 232.05,-143.19 230.24,-149.95"/>
</a>
</g>
</g>
<!-- Node3 -->
<g id="Node000003" class="node">
<title>Node3</title>
<g id="a_Node000003"><a xlink:href="classzyncarla_1_1ADnote.html#add9d26dfbc31f9288a42403c282c7564" target="_top" xlink:title=" ">
<polygon fill="white" stroke="#666666" points="579.75,-150.25 413,-150.25 413,-131 579.75,-131 579.75,-150.25"/>
<text xml:space="preserve" text-anchor="middle" x="496.38" y="-136.75" font-family="Helvetica,sans-Serif" font-size="10.00">zyncarla::ADnote::getvoicebasefreq</text>
</a>
</g>
</g>
<!-- Node1&#45;&gt;Node3 -->
<g id="edge3_Node000001_Node000003" class="edge">
<title>Node1&#45;&gt;Node3</title>
<g id="a_edge3_Node000001_Node000003"><a xlink:title=" ">
<path fill="none" stroke="#63b8ff" d="M139.44,-93.72C157.54,-96.72 177.58,-99.94 196,-102.62 264.67,-112.65 342.43,-122.48 401.49,-129.62"/>
<polygon fill="#63b8ff" stroke="#63b8ff" points="400.82,-133.07 411.16,-130.79 401.65,-126.12 400.82,-133.07"/>
</a>
</g>
</g>
<!-- Node4 -->
<g id="Node000004" class="node">
<title>Node4</title>
<g id="a_Node000004"><a xlink:href="unzipfx-carla-control_2unzip_8h.html#a6146ec4ac32d62cf01b4c4c6587d5131" target="_top" xlink:title=" ">
<polygon fill="white" stroke="#666666" points="300.9,-93.25 272.1,-93.25 272.1,-74 300.9,-74 300.9,-93.25"/>
<text xml:space="preserve" text-anchor="middle" x="286.5" y="-79.75" font-family="Helvetica,sans-Serif" font-size="10.00">int</text>
</a>
</g>
</g>
<!-- Node1&#45;&gt;Node4 -->
<g id="edge4_Node000001_Node000004" class="edge">
<title>Node1&#45;&gt;Node4</title>
<g id="a_edge4_Node000001_Node000004"><a xlink:title=" ">
<path fill="none" stroke="#63b8ff" d="M160.36,-83.62C196.09,-83.62 235.75,-83.62 260.65,-83.62"/>
<polygon fill="#63b8ff" stroke="#63b8ff" points="260.4,-87.13 270.4,-83.63 260.4,-80.13 260.4,-87.13"/>
</a>
</g>
</g>
<!-- Node5 -->
<g id="Node000005" class="node">
<title>Node5</title>
<g id="a_Node000005"><a xlink:href="namespacezyncarla.html#a8eb2b83efdfbc3b3fbacb1ca55d6b892" target="_top" xlink:title=" ">
<polygon fill="white" stroke="#666666" points="323.75,-56.25 249.25,-56.25 249.25,-37 323.75,-37 323.75,-56.25"/>
<text xml:space="preserve" text-anchor="middle" x="286.5" y="-42.75" font-family="Helvetica,sans-Serif" font-size="10.00">zyncarla::prng</text>
</a>
</g>
</g>
<!-- Node1&#45;&gt;Node5 -->
<g id="edge5_Node000001_Node000005" class="edge">
<title>Node1&#45;&gt;Node5</title>
<g id="a_edge5_Node000001_Node000005"><a xlink:title=" ">
<path fill="none" stroke="#63b8ff" d="M136.88,-73.51C168.55,-67.78 207.75,-60.69 237.93,-55.23"/>
<polygon fill="#63b8ff" stroke="#63b8ff" points="238.32,-58.72 247.54,-53.49 237.08,-51.83 238.32,-58.72"/>
</a>
</g>
</g>
<!-- Node7 -->
<g id="Node000007" class="node">
<title>Node7</title>
<g id="a_Node000007"><a xlink:href="namespacezyncarla.html#a64e9711330019f813c106a6d56847838" target="_top" xlink:title=" ">
<polygon fill="white" stroke="#666666" points="324.5,-19.25 248.5,-19.25 248.5,0 324.5,0 324.5,-19.25"/>
<text xml:space="preserve" text-anchor="middle" x="286.5" y="-5.75" font-family="Helvetica,sans-Serif" font-size="10.00">zyncarla::VelF</text>
</a>
</g>
</g>
<!-- Node1&#45;&gt;Node7 -->
<g id="edge7_Node000001_Node000007" class="edge">
<title>Node1&#45;&gt;Node7</title>
<g id="a_edge7_Node000001_Node000007"><a xlink:title=" ">
<path fill="none" stroke="#63b8ff" d="M97.95,-73.66C119.88,-61.17 159.6,-39.92 196,-27.62 209.14,-23.19 223.75,-19.68 237.3,-16.98"/>
<polygon fill="#63b8ff" stroke="#63b8ff" points="237.69,-20.47 246.88,-15.19 236.41,-13.59 237.69,-20.47"/>
</a>
</g>
</g>
<!-- Node2&#45;&gt;Node3 -->
<g id="edge2_Node000002_Node000003" class="edge">
<title>Node2&#45;&gt;Node3</title>
<g id="a_edge2_Node000002_Node000003"><a xlink:title=" ">
<path fill="none" stroke="#63b8ff" d="M377.47,-151.4C385.45,-150.67 393.54,-149.93 401.55,-149.2"/>
<polygon fill="#63b8ff" stroke="#63b8ff" points="401.66,-152.71 411.3,-148.31 401.02,-145.73 401.66,-152.71"/>
</a>
</g>
</g>
<!-- Node6 -->
<g id="Node000006" class="node">
<title>Node6</title>
<g id="a_Node000006"><a xlink:href="namespacezyncarla.html#a41db9ef6a1f9fc078ef21376b1150226" target="_top" xlink:title=" ">
<polygon fill="white" stroke="#666666" points="537.75,-56.25 455,-56.25 455,-37 537.75,-37 537.75,-56.25"/>
<text xml:space="preserve" text-anchor="middle" x="496.38" y="-42.75" font-family="Helvetica,sans-Serif" font-size="10.00">zyncarla::prng_r</text>
</a>
</g>
</g>
<!-- Node5&#45;&gt;Node6 -->
<g id="edge6_Node000005_Node000006" class="edge">
<title>Node5&#45;&gt;Node6</title>
<g id="a_edge6_Node000005_Node000006"><a xlink:title=" ">
<path fill="none" stroke="#63b8ff" d="M324.19,-46.62C357.35,-46.62 406.53,-46.62 443.68,-46.62"/>
<polygon fill="#63b8ff" stroke="#63b8ff" points="443.28,-50.13 453.28,-46.63 443.28,-43.13 443.28,-50.13"/>
</a>
</g>
</g>
</g>
</svg>

<g id="navigator" transform="translate(0 0)" fill="#404254">
  <rect fill="#f2f5e9" fill-opacity="0.5" stroke="#606060" stroke-width=".5" x="0" y="0" width="60" height="60"/>
  <use id="zoomplus" xlink:href="#zoomPlus" x="17" y="9" onmousedown="handleZoom(evt,'in')"/>
  <use id="zoomminus" xlink:href="#zoomMin" x="42" y="9" onmousedown="handleZoom(evt,'out')"/>
  <use id="reset" xlink:href="#resetDef" x="30" y="36" onmousedown="handleReset()"/>
   <use id="arrowup" xlink:href="#arrowUp" x="0" y="0" onmousedown="handlePan(0,-1)"/>
  <use id="arrowright" xlink:href="#arrowRight" x="0" y="0" onmousedown="handlePan(1,0)"/>
  <use id="arrowdown" xlink:href="#arrowDown" x="0" y="0" onmousedown="handlePan(0,1)"/>
  <use id="arrowleft" xlink:href="#arrowLeft" x="0" y="0" onmousedown="handlePan(-1,0)"/>
</g>
<svg viewBox="0 0 15 15" width="100%" height="30px" preserveAspectRatio="xMaxYMin meet">
 <g id="arrow_out" transform="scale(0.3 0.3)">
  <a xlink:href="classzyncarla_1_1ADnote_a7f6e49f53ac6aab2fe9cf88925ca7f09_cgraph_org.svg" target="_base">
   <rect id="button" ry="5" rx="5" y="6" x="6" height="38" width="38"
        fill="#f2f5e9" fill-opacity="0.5" stroke="#606060" stroke-width="1.0"/>
   <path id="arrow"
     d="M 11.500037,31.436501 C 11.940474,20.09759 22.043105,11.32322 32.158766,21.979434 L 37.068811,17.246167 C 37.068811,17.246167 37.088388,32 37.088388,32 L 22.160133,31.978069 C 22.160133,31.978069 26.997745,27.140456 26.997745,27.140456 C 18.528582,18.264221 13.291696,25.230495 11.500037,31.436501 z"
     style="fill:#404040;"/>
  </a>
 </g>
</svg>

<style type='text/css'>
<![CDATA[
[data-mouse-over-selected='false'] { opacity: 0.7; }
[data-mouse-over-selected='true']  { opacity: 1.0; }
]]>
</style>
<script type="application/ecmascript"><![CDATA[
document.addEventListener('DOMContentLoaded', (event) => {
  highlightEdges();
  highlightAdjacentNodes();
});
]]></script>
</svg>
