<?xml version="1.0" encoding="UTF-8" standalone="no"?>
<!DOCTYPE svg PUBLIC "-//W3C//DTD SVG 1.1//EN"
 "http://www.w3.org/Graphics/SVG/1.1/DTD/svg11.dtd">
<!-- Generated by graphviz version 14.0.2 (0)
 -->
<!-- Title: juce::dsp::Reverb Pages: 1 -->
<svg width="632pt" height="1110pt"
 viewBox="0.00 0.00 632.00 1110.00" xmlns="http://www.w3.org/2000/svg" xmlns:xlink="http://www.w3.org/1999/xlink">
<g id="graph0" class="graph" transform="scale(1 1) rotate(0) translate(4 1106)">
<title>juce::dsp::Reverb</title>
<!-- Node1 -->
<g id="Node000001" class="node">
<title>Node1</title>
<g id="a_Node000001"><a xlink:title=" ">
<polygon fill="#999999" stroke="none" points="301.88,-156.5 214.12,-156.5 214.12,0 301.88,0 301.88,-156.5"/>
<text xml:space="preserve" text-anchor="start" x="221.25" y="-143" font-family="Helvetica,sans-Serif" font-size="10.00">juce::dsp::Reverb</text>
<text xml:space="preserve" text-anchor="start" x="219.62" y="-127.75" font-family="Helvetica,sans-Serif" font-size="10.00">&#45;</text>
<text xml:space="preserve" text-anchor="start" x="228.12" y="-127.75" font-family="Helvetica,sans-Serif" font-size="10.00">enabled</text>
<text xml:space="preserve" text-anchor="start" x="218.12" y="-112.5" font-family="Helvetica,sans-Serif" font-size="10.00">+</text>
<text xml:space="preserve" text-anchor="start" x="228.12" y="-112.5" font-family="Helvetica,sans-Serif" font-size="10.00">Reverb()</text>
<text xml:space="preserve" text-anchor="start" x="218.12" y="-97.25" font-family="Helvetica,sans-Serif" font-size="10.00">+</text>
<text xml:space="preserve" text-anchor="start" x="228.12" y="-97.25" font-family="Helvetica,sans-Serif" font-size="10.00">getParameters()</text>
<text xml:space="preserve" text-anchor="start" x="218.12" y="-82" font-family="Helvetica,sans-Serif" font-size="10.00">+</text>
<text xml:space="preserve" text-anchor="start" x="228.12" y="-82" font-family="Helvetica,sans-Serif" font-size="10.00">setParameters()</text>
<text xml:space="preserve" text-anchor="start" x="218.12" y="-66.75" font-family="Helvetica,sans-Serif" font-size="10.00">+</text>
<text xml:space="preserve" text-anchor="start" x="228.12" y="-66.75" font-family="Helvetica,sans-Serif" font-size="10.00">isEnabled()</text>
<text xml:space="preserve" text-anchor="start" x="218.12" y="-51.5" font-family="Helvetica,sans-Serif" font-size="10.00">+</text>
<text xml:space="preserve" text-anchor="start" x="228.12" y="-51.5" font-family="Helvetica,sans-Serif" font-size="10.00">setEnabled()</text>
<text xml:space="preserve" text-anchor="start" x="218.12" y="-36.25" font-family="Helvetica,sans-Serif" font-size="10.00">+</text>
<text xml:space="preserve" text-anchor="start" x="228.12" y="-36.25" font-family="Helvetica,sans-Serif" font-size="10.00">prepare()</text>
<text xml:space="preserve" text-anchor="start" x="218.12" y="-21" font-family="Helvetica,sans-Serif" font-size="10.00">+</text>
<text xml:space="preserve" text-anchor="start" x="228.12" y="-21" font-family="Helvetica,sans-Serif" font-size="10.00">reset()</text>
<text xml:space="preserve" text-anchor="start" x="218.12" y="-5.75" font-family="Helvetica,sans-Serif" font-size="10.00">+</text>
<text xml:space="preserve" text-anchor="start" x="228.12" y="-5.75" font-family="Helvetica,sans-Serif" font-size="10.00">process()</text>
<polygon fill="#666666" stroke="#666666" points="214.12,-139.25 214.12,-139.25 301.88,-139.25 301.88,-139.25 214.12,-139.25"/>
<polygon fill="#666666" stroke="#666666" points="214.12,-124 214.12,-124 226.12,-124 226.12,-124 214.12,-124"/>
<polygon fill="#666666" stroke="#666666" points="226.12,-124 226.12,-124 301.88,-124 301.88,-124 226.12,-124"/>
<polygon fill="none" stroke="#666666" points="214.12,0 214.12,-156.5 301.88,-156.5 301.88,0 214.12,0"/>
</a>
</g>
</g>
<!-- Node2 -->
<g id="Node000002" class="node">
<title>Node2</title>
<g id="a_Node000002"><a xlink:href="classjuce_1_1Reverb.html" target="_top" xlink:title=" ">
<polygon fill="white" stroke="none" points="303.75,-396.75 212.25,-396.75 212.25,-209.75 303.75,-209.75 303.75,-396.75"/>
<text xml:space="preserve" text-anchor="start" x="231.38" y="-383.25" font-family="Helvetica,sans-Serif" font-size="10.00">juce::Reverb</text>
<text xml:space="preserve" text-anchor="start" x="217.75" y="-368" font-family="Helvetica,sans-Serif" font-size="10.00">&#45;</text>
<text xml:space="preserve" text-anchor="start" x="226.25" y="-368" font-family="Helvetica,sans-Serif" font-size="10.00">gain</text>
<text xml:space="preserve" text-anchor="start" x="216.25" y="-352.75" font-family="Helvetica,sans-Serif" font-size="10.00">+</text>
<text xml:space="preserve" text-anchor="start" x="226.25" y="-352.75" font-family="Helvetica,sans-Serif" font-size="10.00">Reverb()</text>
<text xml:space="preserve" text-anchor="start" x="216.25" y="-337.5" font-family="Helvetica,sans-Serif" font-size="10.00">+</text>
<text xml:space="preserve" text-anchor="start" x="226.25" y="-337.5" font-family="Helvetica,sans-Serif" font-size="10.00">getParameters()</text>
<text xml:space="preserve" text-anchor="start" x="216.25" y="-322.25" font-family="Helvetica,sans-Serif" font-size="10.00">+</text>
<text xml:space="preserve" text-anchor="start" x="226.25" y="-322.25" font-family="Helvetica,sans-Serif" font-size="10.00">setParameters()</text>
<text xml:space="preserve" text-anchor="start" x="216.25" y="-307" font-family="Helvetica,sans-Serif" font-size="10.00">+</text>
<text xml:space="preserve" text-anchor="start" x="226.25" y="-307" font-family="Helvetica,sans-Serif" font-size="10.00">setSampleRate()</text>
<text xml:space="preserve" text-anchor="start" x="216.25" y="-291.75" font-family="Helvetica,sans-Serif" font-size="10.00">+</text>
<text xml:space="preserve" text-anchor="start" x="226.25" y="-291.75" font-family="Helvetica,sans-Serif" font-size="10.00">reset()</text>
<text xml:space="preserve" text-anchor="start" x="216.25" y="-276.5" font-family="Helvetica,sans-Serif" font-size="10.00">+</text>
<text xml:space="preserve" text-anchor="start" x="226.25" y="-276.5" font-family="Helvetica,sans-Serif" font-size="10.00">processStereo()</text>
<text xml:space="preserve" text-anchor="start" x="216.25" y="-261.25" font-family="Helvetica,sans-Serif" font-size="10.00">+</text>
<text xml:space="preserve" text-anchor="start" x="226.25" y="-261.25" font-family="Helvetica,sans-Serif" font-size="10.00">processMono()</text>
<text xml:space="preserve" text-anchor="start" x="217.75" y="-246" font-family="Helvetica,sans-Serif" font-size="10.00">&#45;</text>
<text xml:space="preserve" text-anchor="start" x="226.25" y="-246" font-family="Helvetica,sans-Serif" font-size="10.00">updateDamping()</text>
<text xml:space="preserve" text-anchor="start" x="217.75" y="-230.75" font-family="Helvetica,sans-Serif" font-size="10.00">&#45;</text>
<text xml:space="preserve" text-anchor="start" x="226.25" y="-230.75" font-family="Helvetica,sans-Serif" font-size="10.00">setDamping()</text>
<text xml:space="preserve" text-anchor="start" x="217.75" y="-215.5" font-family="Helvetica,sans-Serif" font-size="10.00">&#45;</text>
<text xml:space="preserve" text-anchor="start" x="226.25" y="-215.5" font-family="Helvetica,sans-Serif" font-size="10.00">isFrozen()</text>
<polygon fill="#666666" stroke="#666666" points="212.25,-379.5 212.25,-379.5 303.75,-379.5 303.75,-379.5 212.25,-379.5"/>
<polygon fill="#666666" stroke="#666666" points="212.25,-364.25 212.25,-364.25 224.25,-364.25 224.25,-364.25 212.25,-364.25"/>
<polygon fill="#666666" stroke="#666666" points="224.25,-364.25 224.25,-364.25 303.75,-364.25 303.75,-364.25 224.25,-364.25"/>
<polygon fill="none" stroke="#666666" points="212.25,-209.75 212.25,-396.75 303.75,-396.75 303.75,-209.75 212.25,-209.75"/>
</a>
</g>
</g>
<!-- Node2&#45;&gt;Node1 -->
<g id="edge1_Node000001_Node000002" class="edge">
<title>Node2&#45;&gt;Node1</title>
<g id="a_edge1_Node000001_Node000002"><a xlink:title=" ">
<path fill="none" stroke="#63b8ff" d="M258,-209.94C258,-196.41 258,-182.49 258,-169.01"/>
<polygon fill="none" stroke="#63b8ff" points="258,-169.15 254,-163.15 258,-157.15 262,-163.15 258,-169.15"/>
</a>
</g>
<text xml:space="preserve" text-anchor="start" x="261" y="-179.25" font-family="Helvetica,sans-Serif" font-size="10.00" fill="grey">&#45;reverb</text>
</g>
<!-- Node3 -->
<g id="Node000003" class="node">
<title>Node3</title>
<g id="a_Node000003"><a xlink:href="structjuce_1_1Reverb_1_1Parameters.html" target="_top" xlink:title=" ">
<polygon fill="white" stroke="none" points="116,-673.12 0,-673.12 0,-547.12 116,-547.12 116,-673.12"/>
<text xml:space="preserve" text-anchor="start" x="4" y="-659.62" font-family="Helvetica,sans-Serif" font-size="10.00">juce::Reverb::Parameters</text>
<text xml:space="preserve" text-anchor="start" x="15.94" y="-644.38" font-family="Helvetica,sans-Serif" font-size="10.00">+</text>
<text xml:space="preserve" text-anchor="start" x="37.88" y="-644.38" font-family="Helvetica,sans-Serif" font-size="10.00">roomSize</text>
<text xml:space="preserve" text-anchor="start" x="15.94" y="-629.12" font-family="Helvetica,sans-Serif" font-size="10.00">+</text>
<text xml:space="preserve" text-anchor="start" x="37.88" y="-629.12" font-family="Helvetica,sans-Serif" font-size="10.00">damping</text>
<text xml:space="preserve" text-anchor="start" x="15.94" y="-613.88" font-family="Helvetica,sans-Serif" font-size="10.00">+</text>
<text xml:space="preserve" text-anchor="start" x="37.88" y="-613.88" font-family="Helvetica,sans-Serif" font-size="10.00">wetLevel</text>
<text xml:space="preserve" text-anchor="start" x="15.94" y="-598.62" font-family="Helvetica,sans-Serif" font-size="10.00">+</text>
<text xml:space="preserve" text-anchor="start" x="37.88" y="-598.62" font-family="Helvetica,sans-Serif" font-size="10.00">dryLevel</text>
<text xml:space="preserve" text-anchor="start" x="15.94" y="-583.38" font-family="Helvetica,sans-Serif" font-size="10.00">+</text>
<text xml:space="preserve" text-anchor="start" x="37.88" y="-583.38" font-family="Helvetica,sans-Serif" font-size="10.00">width</text>
<text xml:space="preserve" text-anchor="start" x="15.94" y="-568.12" font-family="Helvetica,sans-Serif" font-size="10.00">+</text>
<text xml:space="preserve" text-anchor="start" x="37.88" y="-568.12" font-family="Helvetica,sans-Serif" font-size="10.00">freezeMode</text>
<text xml:space="preserve" text-anchor="start" x="56.5" y="-552.88" font-family="Helvetica,sans-Serif" font-size="10.00"> </text>
<polygon fill="#666666" stroke="#666666" points="0,-655.88 0,-655.88 116,-655.88 116,-655.88 0,-655.88"/>
<polygon fill="#666666" stroke="#666666" points="0,-564.38 0,-564.38 35.88,-564.38 35.88,-564.38 0,-564.38"/>
<polygon fill="#666666" stroke="#666666" points="35.88,-564.38 35.88,-564.38 116,-564.38 116,-564.38 35.88,-564.38"/>
<polygon fill="none" stroke="#666666" points="0,-547.12 0,-673.12 116,-673.12 116,-547.12 0,-547.12"/>
</a>
</g>
</g>
<!-- Node3&#45;&gt;Node2 -->
<g id="edge2_Node000002_Node000003" class="edge">
<title>Node3&#45;&gt;Node2</title>
<g id="a_edge2_Node000002_Node000003"><a xlink:title=" ">
<path fill="none" stroke="#63b8ff" d="M83.38,-547.51C100.95,-507.99 126.32,-456.45 155.25,-414.75 169.36,-394.4 187.06,-374.02 203.78,-356.4"/>
<polygon fill="none" stroke="#63b8ff" points="203.45,-356.74 204.73,-349.64 211.78,-348.1 210.49,-355.19 203.45,-356.74"/>
</a>
</g>
<text xml:space="preserve" text-anchor="start" x="158.25" y="-450" font-family="Helvetica,sans-Serif" font-size="10.00" fill="grey">&#45;parameters</text>
</g>
<!-- Node4 -->
<g id="Node000004" class="node">
<title>Node4</title>
<g id="a_Node000004"><a xlink:href="classjuce_1_1Reverb_1_1CombFilter.html" target="_top" xlink:title=" ">
<polygon fill="white" stroke="none" points="247.5,-673.12 134.5,-673.12 134.5,-547.12 247.5,-547.12 247.5,-673.12"/>
<text xml:space="preserve" text-anchor="start" x="138.5" y="-659.62" font-family="Helvetica,sans-Serif" font-size="10.00">juce::Reverb::CombFilter</text>
<text xml:space="preserve" text-anchor="start" x="150.44" y="-644.38" font-family="Helvetica,sans-Serif" font-size="10.00">&#45;</text>
<text xml:space="preserve" text-anchor="start" x="169.38" y="-644.38" font-family="Helvetica,sans-Serif" font-size="10.00">bufferSize</text>
<text xml:space="preserve" text-anchor="start" x="150.44" y="-629.12" font-family="Helvetica,sans-Serif" font-size="10.00">&#45;</text>
<text xml:space="preserve" text-anchor="start" x="169.38" y="-629.12" font-family="Helvetica,sans-Serif" font-size="10.00">bufferIndex</text>
<text xml:space="preserve" text-anchor="start" x="150.44" y="-613.88" font-family="Helvetica,sans-Serif" font-size="10.00">&#45;</text>
<text xml:space="preserve" text-anchor="start" x="169.38" y="-613.88" font-family="Helvetica,sans-Serif" font-size="10.00">last</text>
<text xml:space="preserve" text-anchor="start" x="148.94" y="-598.62" font-family="Helvetica,sans-Serif" font-size="10.00">+</text>
<text xml:space="preserve" text-anchor="start" x="169.38" y="-598.62" font-family="Helvetica,sans-Serif" font-size="10.00">CombFilter()</text>
<text xml:space="preserve" text-anchor="start" x="148.94" y="-583.38" font-family="Helvetica,sans-Serif" font-size="10.00">+</text>
<text xml:space="preserve" text-anchor="start" x="169.38" y="-583.38" font-family="Helvetica,sans-Serif" font-size="10.00">setSize()</text>
<text xml:space="preserve" text-anchor="start" x="148.94" y="-568.12" font-family="Helvetica,sans-Serif" font-size="10.00">+</text>
<text xml:space="preserve" text-anchor="start" x="169.38" y="-568.12" font-family="Helvetica,sans-Serif" font-size="10.00">clear()</text>
<text xml:space="preserve" text-anchor="start" x="148.94" y="-552.88" font-family="Helvetica,sans-Serif" font-size="10.00">+</text>
<text xml:space="preserve" text-anchor="start" x="169.38" y="-552.88" font-family="Helvetica,sans-Serif" font-size="10.00">process()</text>
<polygon fill="#666666" stroke="#666666" points="134.5,-655.88 134.5,-655.88 247.5,-655.88 247.5,-655.88 134.5,-655.88"/>
<polygon fill="#666666" stroke="#666666" points="134.5,-610.12 134.5,-610.12 167.38,-610.12 167.38,-610.12 134.5,-610.12"/>
<polygon fill="#666666" stroke="#666666" points="167.38,-610.12 167.38,-610.12 247.5,-610.12 247.5,-610.12 167.38,-610.12"/>
<polygon fill="none" stroke="#666666" points="134.5,-547.12 134.5,-673.12 247.5,-673.12 247.5,-547.12 134.5,-547.12"/>
</a>
</g>
</g>
<!-- Node4&#45;&gt;Node2 -->
<g id="edge3_Node000002_Node000004" class="edge">
<title>Node4&#45;&gt;Node2</title>
<g id="a_edge3_Node000002_Node000004"><a xlink:title=" ">
<path fill="none" stroke="#63b8ff" d="M204.56,-547.43C213.28,-507.74 224.84,-455.16 234.97,-409.04"/>
<polygon fill="none" stroke="#63b8ff" points="234.95,-409.13 232.33,-402.41 237.53,-397.41 240.15,-404.13 234.95,-409.13"/>
</a>
</g>
<text xml:space="preserve" text-anchor="start" x="235.47" y="-450" font-family="Helvetica,sans-Serif" font-size="10.00" fill="grey">&#45;comb</text>
</g>
<!-- Node5 -->
<g id="Node000005" class="node">
<title>Node5</title>
<g id="a_Node000005"><a xlink:href="classjuce_1_1HeapBlock.html" target="_top" xlink:title=" ">
<polygon fill="#fff0f0" stroke="none" points="272.38,-1102 139.62,-1102 139.62,-762.5 272.38,-762.5 272.38,-1102"/>
<text xml:space="preserve" text-anchor="start" x="153.5" y="-1088.5" font-family="Helvetica,sans-Serif" font-size="10.00">juce::HeapBlock&lt; float &gt;</text>
<text xml:space="preserve" text-anchor="start" x="145.12" y="-1073.25" font-family="Helvetica,sans-Serif" font-size="10.00">&#45;</text>
<text xml:space="preserve" text-anchor="start" x="153.62" y="-1073.25" font-family="Helvetica,sans-Serif" font-size="10.00">data</text>
<text xml:space="preserve" text-anchor="start" x="143.62" y="-1058" font-family="Helvetica,sans-Serif" font-size="10.00">+</text>
<text xml:space="preserve" text-anchor="start" x="153.62" y="-1058" font-family="Helvetica,sans-Serif" font-size="10.00">~HeapBlock()</text>
<text xml:space="preserve" text-anchor="start" x="143.62" y="-1042.75" font-family="Helvetica,sans-Serif" font-size="10.00">+</text>
<text xml:space="preserve" text-anchor="start" x="153.62" y="-1042.75" font-family="Helvetica,sans-Serif" font-size="10.00">operator=()</text>
<text xml:space="preserve" text-anchor="start" x="143.62" y="-1027.5" font-family="Helvetica,sans-Serif" font-size="10.00">+</text>
<text xml:space="preserve" text-anchor="start" x="153.62" y="-1027.5" font-family="Helvetica,sans-Serif" font-size="10.00">operator float *()</text>
<text xml:space="preserve" text-anchor="start" x="143.62" y="-1012.25" font-family="Helvetica,sans-Serif" font-size="10.00">+</text>
<text xml:space="preserve" text-anchor="start" x="153.62" y="-1012.25" font-family="Helvetica,sans-Serif" font-size="10.00">get()</text>
<text xml:space="preserve" text-anchor="start" x="143.62" y="-997" font-family="Helvetica,sans-Serif" font-size="10.00">+</text>
<text xml:space="preserve" text-anchor="start" x="153.62" y="-997" font-family="Helvetica,sans-Serif" font-size="10.00">getData()</text>
<text xml:space="preserve" text-anchor="start" x="143.62" y="-981.75" font-family="Helvetica,sans-Serif" font-size="10.00">+</text>
<text xml:space="preserve" text-anchor="start" x="153.62" y="-981.75" font-family="Helvetica,sans-Serif" font-size="10.00">operator void *()</text>
<text xml:space="preserve" text-anchor="start" x="143.62" y="-966.5" font-family="Helvetica,sans-Serif" font-size="10.00">+</text>
<text xml:space="preserve" text-anchor="start" x="153.62" y="-966.5" font-family="Helvetica,sans-Serif" font-size="10.00">operator const void *()</text>
<text xml:space="preserve" text-anchor="start" x="143.62" y="-951.25" font-family="Helvetica,sans-Serif" font-size="10.00">+</text>
<text xml:space="preserve" text-anchor="start" x="153.62" y="-951.25" font-family="Helvetica,sans-Serif" font-size="10.00">operator&#45;&gt;()</text>
<text xml:space="preserve" text-anchor="start" x="143.62" y="-936" font-family="Helvetica,sans-Serif" font-size="10.00">+</text>
<text xml:space="preserve" text-anchor="start" x="153.62" y="-936" font-family="Helvetica,sans-Serif" font-size="10.00">operator[]()</text>
<text xml:space="preserve" text-anchor="start" x="143.62" y="-920.75" font-family="Helvetica,sans-Serif" font-size="10.00">+</text>
<text xml:space="preserve" text-anchor="start" x="153.62" y="-920.75" font-family="Helvetica,sans-Serif" font-size="10.00">operator+()</text>
<text xml:space="preserve" text-anchor="start" x="143.62" y="-905.5" font-family="Helvetica,sans-Serif" font-size="10.00">+</text>
<text xml:space="preserve" text-anchor="start" x="153.62" y="-905.5" font-family="Helvetica,sans-Serif" font-size="10.00">operator==()</text>
<text xml:space="preserve" text-anchor="start" x="143.62" y="-890.25" font-family="Helvetica,sans-Serif" font-size="10.00">+</text>
<text xml:space="preserve" text-anchor="start" x="153.62" y="-890.25" font-family="Helvetica,sans-Serif" font-size="10.00">operator!=()</text>
<text xml:space="preserve" text-anchor="start" x="143.62" y="-875" font-family="Helvetica,sans-Serif" font-size="10.00">+</text>
<text xml:space="preserve" text-anchor="start" x="153.62" y="-875" font-family="Helvetica,sans-Serif" font-size="10.00">malloc()</text>
<text xml:space="preserve" text-anchor="start" x="143.62" y="-859.75" font-family="Helvetica,sans-Serif" font-size="10.00">+</text>
<text xml:space="preserve" text-anchor="start" x="153.62" y="-859.75" font-family="Helvetica,sans-Serif" font-size="10.00">calloc()</text>
<text xml:space="preserve" text-anchor="start" x="143.62" y="-844.5" font-family="Helvetica,sans-Serif" font-size="10.00">+</text>
<text xml:space="preserve" text-anchor="start" x="153.62" y="-844.5" font-family="Helvetica,sans-Serif" font-size="10.00">allocate()</text>
<text xml:space="preserve" text-anchor="start" x="143.62" y="-829.25" font-family="Helvetica,sans-Serif" font-size="10.00">+</text>
<text xml:space="preserve" text-anchor="start" x="153.62" y="-829.25" font-family="Helvetica,sans-Serif" font-size="10.00">realloc()</text>
<text xml:space="preserve" text-anchor="start" x="143.62" y="-814" font-family="Helvetica,sans-Serif" font-size="10.00">+</text>
<text xml:space="preserve" text-anchor="start" x="153.62" y="-814" font-family="Helvetica,sans-Serif" font-size="10.00">free()</text>
<text xml:space="preserve" text-anchor="start" x="143.62" y="-798.75" font-family="Helvetica,sans-Serif" font-size="10.00">+</text>
<text xml:space="preserve" text-anchor="start" x="153.62" y="-798.75" font-family="Helvetica,sans-Serif" font-size="10.00">swapWith()</text>
<text xml:space="preserve" text-anchor="start" x="143.62" y="-783.5" font-family="Helvetica,sans-Serif" font-size="10.00">+</text>
<text xml:space="preserve" text-anchor="start" x="153.62" y="-783.5" font-family="Helvetica,sans-Serif" font-size="10.00">clear()</text>
<text xml:space="preserve" text-anchor="start" x="145.12" y="-768.25" font-family="Helvetica,sans-Serif" font-size="10.00">&#45;</text>
<text xml:space="preserve" text-anchor="start" x="153.62" y="-768.25" font-family="Helvetica,sans-Serif" font-size="10.00">throwOnAllocationFailure()</text>
<polygon fill="red" stroke="red" points="139.62,-1084.75 139.62,-1084.75 272.38,-1084.75 272.38,-1084.75 139.62,-1084.75"/>
<polygon fill="red" stroke="red" points="139.62,-1069.5 139.62,-1069.5 151.62,-1069.5 151.62,-1069.5 139.62,-1069.5"/>
<polygon fill="red" stroke="red" points="151.62,-1069.5 151.62,-1069.5 272.38,-1069.5 272.38,-1069.5 151.62,-1069.5"/>
<polygon fill="none" stroke="red" points="139.62,-762.5 139.62,-1102 272.38,-1102 272.38,-762.5 139.62,-762.5"/>
</a>
</g>
</g>
<!-- Node5&#45;&gt;Node4 -->
<g id="edge4_Node000004_Node000005" class="edge">
<title>Node5&#45;&gt;Node4</title>
<g id="a_edge4_Node000004_Node000005"><a xlink:title=" ">
<path fill="none" stroke="#63b8ff" d="M198.1,-762.75C196.84,-735.8 195.59,-709.18 194.51,-685.94"/>
<polygon fill="none" stroke="#63b8ff" points="194.5,-685.92 190.23,-680.11 193.94,-673.93 198.22,-679.74 194.5,-685.92"/>
</a>
</g>
<text xml:space="preserve" text-anchor="start" x="200.16" y="-732" font-family="Helvetica,sans-Serif" font-size="10.00" fill="grey">&#45;buffer</text>
</g>
<!-- Node7 -->
<g id="Node000007" class="node">
<title>Node7</title>
<g id="a_Node000007"><a xlink:href="classjuce_1_1Reverb_1_1AllPassFilter.html" target="_top" xlink:title=" ">
<polygon fill="white" stroke="none" points="386.62,-665.5 265.38,-665.5 265.38,-554.75 386.62,-554.75 386.62,-665.5"/>
<text xml:space="preserve" text-anchor="start" x="269.38" y="-652" font-family="Helvetica,sans-Serif" font-size="10.00">juce::Reverb::AllPassFilter</text>
<text xml:space="preserve" text-anchor="start" x="281.31" y="-636.75" font-family="Helvetica,sans-Serif" font-size="10.00">&#45;</text>
<text xml:space="preserve" text-anchor="start" x="300.25" y="-636.75" font-family="Helvetica,sans-Serif" font-size="10.00">bufferSize</text>
<text xml:space="preserve" text-anchor="start" x="281.31" y="-621.5" font-family="Helvetica,sans-Serif" font-size="10.00">&#45;</text>
<text xml:space="preserve" text-anchor="start" x="300.25" y="-621.5" font-family="Helvetica,sans-Serif" font-size="10.00">bufferIndex</text>
<text xml:space="preserve" text-anchor="start" x="279.81" y="-606.25" font-family="Helvetica,sans-Serif" font-size="10.00">+</text>
<text xml:space="preserve" text-anchor="start" x="300.25" y="-606.25" font-family="Helvetica,sans-Serif" font-size="10.00">AllPassFilter()</text>
<text xml:space="preserve" text-anchor="start" x="279.81" y="-591" font-family="Helvetica,sans-Serif" font-size="10.00">+</text>
<text xml:space="preserve" text-anchor="start" x="300.25" y="-591" font-family="Helvetica,sans-Serif" font-size="10.00">setSize()</text>
<text xml:space="preserve" text-anchor="start" x="279.81" y="-575.75" font-family="Helvetica,sans-Serif" font-size="10.00">+</text>
<text xml:space="preserve" text-anchor="start" x="300.25" y="-575.75" font-family="Helvetica,sans-Serif" font-size="10.00">clear()</text>
<text xml:space="preserve" text-anchor="start" x="279.81" y="-560.5" font-family="Helvetica,sans-Serif" font-size="10.00">+</text>
<text xml:space="preserve" text-anchor="start" x="300.25" y="-560.5" font-family="Helvetica,sans-Serif" font-size="10.00">process()</text>
<polygon fill="#666666" stroke="#666666" points="265.38,-648.25 265.38,-648.25 386.62,-648.25 386.62,-648.25 265.38,-648.25"/>
<polygon fill="#666666" stroke="#666666" points="265.38,-617.75 265.38,-617.75 298.25,-617.75 298.25,-617.75 265.38,-617.75"/>
<polygon fill="#666666" stroke="#666666" points="298.25,-617.75 298.25,-617.75 386.62,-617.75 386.62,-617.75 298.25,-617.75"/>
<polygon fill="none" stroke="#666666" points="265.38,-554.75 265.38,-665.5 386.62,-665.5 386.62,-554.75 265.38,-554.75"/>
</a>
</g>
</g>
<!-- Node5&#45;&gt;Node7 -->
<g id="edge6_Node000007_Node000005" class="edge">
<title>Node5&#45;&gt;Node7</title>
<g id="a_edge6_Node000007_Node000005"><a xlink:title=" ">
<path fill="none" stroke="#63b8ff" d="M269.16,-762.75C280.57,-732.33 291.82,-702.32 301.26,-677.12"/>
<polygon fill="none" stroke="#63b8ff" points="301.22,-677.24 299.58,-670.22 305.43,-666.01 307.07,-673.03 301.22,-677.24"/>
</a>
</g>
<text xml:space="preserve" text-anchor="start" x="283.28" y="-732" font-family="Helvetica,sans-Serif" font-size="10.00" fill="grey">&#45;buffer</text>
</g>
<!-- Node7&#45;&gt;Node2 -->
<g id="edge5_Node000002_Node000007" class="edge">
<title>Node7&#45;&gt;Node2</title>
<g id="a_edge5_Node000002_Node000007"><a xlink:title=" ">
<path fill="none" stroke="#63b8ff" d="M313.92,-554.97C304.92,-514.6 292.33,-458.18 281.38,-409.09"/>
<polygon fill="none" stroke="#63b8ff" points="281.37,-409.05 276.16,-404.06 278.76,-397.33 283.97,-402.32 281.37,-409.05"/>
</a>
</g>
<text xml:space="preserve" text-anchor="start" x="303.09" y="-450" font-family="Helvetica,sans-Serif" font-size="10.00" fill="grey">&#45;allPass</text>
</g>
<!-- Node8 -->
<g id="Node000008" class="node">
<title>Node8</title>
<g id="a_Node000008"><a xlink:href="classjuce_1_1SmoothedValue.html" target="_top" xlink:title=" ">
<polygon fill="white" stroke="none" points="503.75,-709.25 404.25,-709.25 404.25,-511 503.75,-511 503.75,-709.25"/>
<text xml:space="preserve" text-anchor="start" x="408.25" y="-695.75" font-family="Helvetica,sans-Serif" font-size="10.00">juce::SmoothedValue</text>
<text xml:space="preserve" text-anchor="start" x="436.75" y="-684.5" font-family="Helvetica,sans-Serif" font-size="10.00">&lt; float &gt;</text>
<text xml:space="preserve" text-anchor="start" x="410.06" y="-669.25" font-family="Helvetica,sans-Serif" font-size="10.00">&#45;</text>
<text xml:space="preserve" text-anchor="start" x="418.88" y="-669.25" font-family="Helvetica,sans-Serif" font-size="10.00">step</text>
<text xml:space="preserve" text-anchor="start" x="410.06" y="-654" font-family="Helvetica,sans-Serif" font-size="10.00">&#45;</text>
<text xml:space="preserve" text-anchor="start" x="418.88" y="-654" font-family="Helvetica,sans-Serif" font-size="10.00">stepsToTarget</text>
<text xml:space="preserve" text-anchor="start" x="408.56" y="-638.75" font-family="Helvetica,sans-Serif" font-size="10.00">+</text>
<text xml:space="preserve" text-anchor="start" x="418.88" y="-638.75" font-family="Helvetica,sans-Serif" font-size="10.00">SmoothedValue()</text>
<text xml:space="preserve" text-anchor="start" x="408.56" y="-623.5" font-family="Helvetica,sans-Serif" font-size="10.00">+</text>
<text xml:space="preserve" text-anchor="start" x="418.88" y="-623.5" font-family="Helvetica,sans-Serif" font-size="10.00">reset()</text>
<text xml:space="preserve" text-anchor="start" x="408.56" y="-608.25" font-family="Helvetica,sans-Serif" font-size="10.00">+</text>
<text xml:space="preserve" text-anchor="start" x="418.88" y="-608.25" font-family="Helvetica,sans-Serif" font-size="10.00">setTargetValue()</text>
<text xml:space="preserve" text-anchor="start" x="408.56" y="-593" font-family="Helvetica,sans-Serif" font-size="10.00">+</text>
<text xml:space="preserve" text-anchor="start" x="418.88" y="-593" font-family="Helvetica,sans-Serif" font-size="10.00">getNextValue()</text>
<text xml:space="preserve" text-anchor="start" x="408.56" y="-577.75" font-family="Helvetica,sans-Serif" font-size="10.00">+</text>
<text xml:space="preserve" text-anchor="start" x="418.88" y="-577.75" font-family="Helvetica,sans-Serif" font-size="10.00">skip()</text>
<text xml:space="preserve" text-anchor="start" x="408.56" y="-562.5" font-family="Helvetica,sans-Serif" font-size="10.00">+</text>
<text xml:space="preserve" text-anchor="start" x="418.88" y="-562.5" font-family="Helvetica,sans-Serif" font-size="10.00">setValue()</text>
<text xml:space="preserve" text-anchor="start" x="410.06" y="-547.25" font-family="Helvetica,sans-Serif" font-size="10.00">&#45;</text>
<text xml:space="preserve" text-anchor="start" x="418.88" y="-547.25" font-family="Helvetica,sans-Serif" font-size="10.00">setStepSize()</text>
<text xml:space="preserve" text-anchor="start" x="410.06" y="-532" font-family="Helvetica,sans-Serif" font-size="10.00">&#45;</text>
<text xml:space="preserve" text-anchor="start" x="418.88" y="-532" font-family="Helvetica,sans-Serif" font-size="10.00">setNextValue()</text>
<text xml:space="preserve" text-anchor="start" x="410.06" y="-516.75" font-family="Helvetica,sans-Serif" font-size="10.00">&#45;</text>
<text xml:space="preserve" text-anchor="start" x="418.88" y="-516.75" font-family="Helvetica,sans-Serif" font-size="10.00">skipCurrentValue()</text>
<polygon fill="#666666" stroke="#666666" points="404.25,-680.75 404.25,-680.75 503.75,-680.75 503.75,-680.75 404.25,-680.75"/>
<polygon fill="#666666" stroke="#666666" points="404.25,-650.25 404.25,-650.25 416.88,-650.25 416.88,-650.25 404.25,-650.25"/>
<polygon fill="#666666" stroke="#666666" points="416.88,-650.25 416.88,-650.25 503.75,-650.25 503.75,-650.25 416.88,-650.25"/>
<polygon fill="none" stroke="#666666" points="404.25,-511 404.25,-709.25 503.75,-709.25 503.75,-511 404.25,-511"/>
</a>
</g>
</g>
<!-- Node8&#45;&gt;Node2 -->
<g id="edge7_Node000002_Node000008" class="edge">
<title>Node8&#45;&gt;Node2</title>
<g id="a_edge7_Node000002_Node000008"><a xlink:title=" ">
<path fill="none" stroke="#63b8ff" d="M404.49,-513.93C386.76,-481.78 365.96,-446.12 345,-414.75 334.75,-399.41 322.97,-383.5 311.46,-368.69"/>
<polygon fill="none" stroke="#63b8ff" points="311.53,-368.78 304.68,-366.53 304.11,-359.34 310.96,-361.59 311.53,-368.78"/>
</a>
</g>
<text xml:space="preserve" text-anchor="start" x="392.81" y="-480.5" font-family="Helvetica,sans-Serif" font-size="10.00" fill="grey">&#45;damping</text>
<text xml:space="preserve" text-anchor="start" x="392.81" y="-465.25" font-family="Helvetica,sans-Serif" font-size="10.00" fill="grey">&#45;dryGain</text>
<text xml:space="preserve" text-anchor="start" x="392.81" y="-450" font-family="Helvetica,sans-Serif" font-size="10.00" fill="grey">&#45;feedback</text>
<text xml:space="preserve" text-anchor="start" x="392.81" y="-434.75" font-family="Helvetica,sans-Serif" font-size="10.00" fill="grey">&#45;wetGain1</text>
<text xml:space="preserve" text-anchor="start" x="392.81" y="-419.5" font-family="Helvetica,sans-Serif" font-size="10.00" fill="grey">&#45;wetGain2</text>
</g>
<!-- Node9 -->
<g id="Node000009" class="node">
<title>Node9</title>
<g id="a_Node000009"><a xlink:href="classjuce_1_1SmoothedValueBase.html" target="_top" xlink:title=" ">
<polygon fill="#fff0f0" stroke="none" points="465.88,-1014.12 310.12,-1014.12 310.12,-850.38 465.88,-850.38 465.88,-1014.12"/>
<text xml:space="preserve" text-anchor="start" x="314.12" y="-1000.62" font-family="Helvetica,sans-Serif" font-size="10.00">juce::SmoothedValueBase</text>
<text xml:space="preserve" text-anchor="start" x="314.12" y="-989.38" font-family="Helvetica,sans-Serif" font-size="10.00">&lt; SmoothedValue&lt; float,</text>
<text xml:space="preserve" text-anchor="start" x="314.12" y="-978.12" font-family="Helvetica,sans-Serif" font-size="10.00"> ValueSmoothingTypes::Linear &gt; &gt;</text>
<text xml:space="preserve" text-anchor="start" x="318.75" y="-962.88" font-family="Helvetica,sans-Serif" font-size="10.00">#</text>
<text xml:space="preserve" text-anchor="start" x="332.62" y="-962.88" font-family="Helvetica,sans-Serif" font-size="10.00">countdown</text>
<text xml:space="preserve" text-anchor="start" x="318.38" y="-947.62" font-family="Helvetica,sans-Serif" font-size="10.00">+</text>
<text xml:space="preserve" text-anchor="start" x="332.62" y="-947.62" font-family="Helvetica,sans-Serif" font-size="10.00">SmoothedValueBase()</text>
<text xml:space="preserve" text-anchor="start" x="318.38" y="-932.38" font-family="Helvetica,sans-Serif" font-size="10.00">+</text>
<text xml:space="preserve" text-anchor="start" x="332.62" y="-932.38" font-family="Helvetica,sans-Serif" font-size="10.00">isSmoothing()</text>
<text xml:space="preserve" text-anchor="start" x="318.38" y="-917.12" font-family="Helvetica,sans-Serif" font-size="10.00">+</text>
<text xml:space="preserve" text-anchor="start" x="332.62" y="-917.12" font-family="Helvetica,sans-Serif" font-size="10.00">getCurrentValue()</text>
<text xml:space="preserve" text-anchor="start" x="318.38" y="-901.88" font-family="Helvetica,sans-Serif" font-size="10.00">+</text>
<text xml:space="preserve" text-anchor="start" x="332.62" y="-901.88" font-family="Helvetica,sans-Serif" font-size="10.00">getTargetValue()</text>
<text xml:space="preserve" text-anchor="start" x="318.38" y="-886.62" font-family="Helvetica,sans-Serif" font-size="10.00">+</text>
<text xml:space="preserve" text-anchor="start" x="332.62" y="-886.62" font-family="Helvetica,sans-Serif" font-size="10.00">setCurrentAndTargetValue()</text>
<text xml:space="preserve" text-anchor="start" x="318.38" y="-871.38" font-family="Helvetica,sans-Serif" font-size="10.00">+</text>
<text xml:space="preserve" text-anchor="start" x="332.62" y="-871.38" font-family="Helvetica,sans-Serif" font-size="10.00">applyGain()</text>
<text xml:space="preserve" text-anchor="start" x="319.88" y="-856.12" font-family="Helvetica,sans-Serif" font-size="10.00">&#45;</text>
<text xml:space="preserve" text-anchor="start" x="332.62" y="-856.12" font-family="Helvetica,sans-Serif" font-size="10.00">getNextSmoothedValue()</text>
<polygon fill="red" stroke="red" points="310.12,-974.38 310.12,-974.38 465.88,-974.38 465.88,-974.38 310.12,-974.38"/>
<polygon fill="red" stroke="red" points="310.12,-959.12 310.12,-959.12 330.62,-959.12 330.62,-959.12 310.12,-959.12"/>
<polygon fill="red" stroke="red" points="330.62,-959.12 330.62,-959.12 465.88,-959.12 465.88,-959.12 330.62,-959.12"/>
<polygon fill="none" stroke="red" points="310.12,-850.38 310.12,-1014.12 465.88,-1014.12 465.88,-850.38 310.12,-850.38"/>
</a>
</g>
</g>
<!-- Node9&#45;&gt;Node8 -->
<g id="edge8_Node000008_Node000009" class="edge">
<title>Node9&#45;&gt;Node8</title>
<g id="a_edge8_Node000008_Node000009"><a xlink:title=" ">
<path fill="none" stroke="#63b8ff" d="M406.93,-839.44C415.34,-798.62 425.26,-750.52 433.82,-709.02"/>
<polygon fill="none" stroke="#63b8ff" points="403.55,-838.49 404.96,-848.99 410.41,-839.9 403.55,-838.49"/>
</a>
</g>
</g>
<!-- Node14 -->
<g id="Node000014" class="node">
<title>Node14</title>
<g id="a_Node000014"><a xlink:href="classjuce_1_1SmoothedValue.html" target="_top" xlink:title=" ">
<polygon fill="#fff0f0" stroke="none" points="624,-1069.5 484,-1069.5 484,-795 624,-795 624,-1069.5"/>
<text xml:space="preserve" text-anchor="start" x="488" y="-1056" font-family="Helvetica,sans-Serif" font-size="10.00">juce::SmoothedValue</text>
<text xml:space="preserve" text-anchor="start" x="488" y="-1044.75" font-family="Helvetica,sans-Serif" font-size="10.00">&lt; FloatType, SmoothingType &gt;</text>
<text xml:space="preserve" text-anchor="start" x="499.94" y="-1029.5" font-family="Helvetica,sans-Serif" font-size="10.00">&#45;</text>
<text xml:space="preserve" text-anchor="start" x="518.88" y="-1029.5" font-family="Helvetica,sans-Serif" font-size="10.00">step</text>
<text xml:space="preserve" text-anchor="start" x="499.94" y="-1014.25" font-family="Helvetica,sans-Serif" font-size="10.00">&#45;</text>
<text xml:space="preserve" text-anchor="start" x="518.88" y="-1014.25" font-family="Helvetica,sans-Serif" font-size="10.00">stepsToTarget</text>
<text xml:space="preserve" text-anchor="start" x="498.44" y="-999" font-family="Helvetica,sans-Serif" font-size="10.00">+</text>
<text xml:space="preserve" text-anchor="start" x="518.88" y="-999" font-family="Helvetica,sans-Serif" font-size="10.00">SmoothedValue()</text>
<text xml:space="preserve" text-anchor="start" x="498.44" y="-983.75" font-family="Helvetica,sans-Serif" font-size="10.00">+</text>
<text xml:space="preserve" text-anchor="start" x="518.88" y="-983.75" font-family="Helvetica,sans-Serif" font-size="10.00">SmoothedValue()</text>
<text xml:space="preserve" text-anchor="start" x="498.44" y="-968.5" font-family="Helvetica,sans-Serif" font-size="10.00">+</text>
<text xml:space="preserve" text-anchor="start" x="518.88" y="-968.5" font-family="Helvetica,sans-Serif" font-size="10.00">reset()</text>
<text xml:space="preserve" text-anchor="start" x="498.44" y="-953.25" font-family="Helvetica,sans-Serif" font-size="10.00">+</text>
<text xml:space="preserve" text-anchor="start" x="518.88" y="-953.25" font-family="Helvetica,sans-Serif" font-size="10.00">reset()</text>
<text xml:space="preserve" text-anchor="start" x="498.44" y="-938" font-family="Helvetica,sans-Serif" font-size="10.00">+</text>
<text xml:space="preserve" text-anchor="start" x="518.88" y="-938" font-family="Helvetica,sans-Serif" font-size="10.00">setTargetValue()</text>
<text xml:space="preserve" text-anchor="start" x="498.44" y="-922.75" font-family="Helvetica,sans-Serif" font-size="10.00">+</text>
<text xml:space="preserve" text-anchor="start" x="518.88" y="-922.75" font-family="Helvetica,sans-Serif" font-size="10.00">getNextValue()</text>
<text xml:space="preserve" text-anchor="start" x="498.44" y="-907.5" font-family="Helvetica,sans-Serif" font-size="10.00">+</text>
<text xml:space="preserve" text-anchor="start" x="518.88" y="-907.5" font-family="Helvetica,sans-Serif" font-size="10.00">skip()</text>
<text xml:space="preserve" text-anchor="start" x="498.44" y="-892.25" font-family="Helvetica,sans-Serif" font-size="10.00">+</text>
<text xml:space="preserve" text-anchor="start" x="518.88" y="-892.25" font-family="Helvetica,sans-Serif" font-size="10.00">setValue()</text>
<text xml:space="preserve" text-anchor="start" x="499.94" y="-877" font-family="Helvetica,sans-Serif" font-size="10.00">&#45;</text>
<text xml:space="preserve" text-anchor="start" x="518.88" y="-877" font-family="Helvetica,sans-Serif" font-size="10.00">setStepSize()</text>
<text xml:space="preserve" text-anchor="start" x="499.94" y="-861.75" font-family="Helvetica,sans-Serif" font-size="10.00">&#45;</text>
<text xml:space="preserve" text-anchor="start" x="518.88" y="-861.75" font-family="Helvetica,sans-Serif" font-size="10.00">setStepSize()</text>
<text xml:space="preserve" text-anchor="start" x="499.94" y="-846.5" font-family="Helvetica,sans-Serif" font-size="10.00">&#45;</text>
<text xml:space="preserve" text-anchor="start" x="518.88" y="-846.5" font-family="Helvetica,sans-Serif" font-size="10.00">setNextValue()</text>
<text xml:space="preserve" text-anchor="start" x="499.94" y="-831.25" font-family="Helvetica,sans-Serif" font-size="10.00">&#45;</text>
<text xml:space="preserve" text-anchor="start" x="518.88" y="-831.25" font-family="Helvetica,sans-Serif" font-size="10.00">setNextValue()</text>
<text xml:space="preserve" text-anchor="start" x="499.94" y="-816" font-family="Helvetica,sans-Serif" font-size="10.00">&#45;</text>
<text xml:space="preserve" text-anchor="start" x="518.88" y="-816" font-family="Helvetica,sans-Serif" font-size="10.00">skipCurrentValue()</text>
<text xml:space="preserve" text-anchor="start" x="499.94" y="-800.75" font-family="Helvetica,sans-Serif" font-size="10.00">&#45;</text>
<text xml:space="preserve" text-anchor="start" x="518.88" y="-800.75" font-family="Helvetica,sans-Serif" font-size="10.00">skipCurrentValue()</text>
<polygon fill="red" stroke="red" points="484,-1041 484,-1041 624,-1041 624,-1041 484,-1041"/>
<polygon fill="red" stroke="red" points="484,-1010.5 484,-1010.5 516.88,-1010.5 516.88,-1010.5 484,-1010.5"/>
<polygon fill="red" stroke="red" points="516.88,-1010.5 516.88,-1010.5 624,-1010.5 624,-1010.5 516.88,-1010.5"/>
<polygon fill="none" stroke="red" points="484,-795 484,-1069.5 624,-1069.5 624,-795 484,-795"/>
</a>
</g>
</g>
<!-- Node14&#45;&gt;Node8 -->
<g id="edge9_Node000008_Node000014" class="edge">
<title>Node14&#45;&gt;Node8</title>
<g id="a_edge9_Node000008_Node000014"><a xlink:title=" ">
<path fill="none" stroke="orange" d="M508.04,-784.13C500.08,-758.64 491.98,-732.71 484.56,-708.94"/>
<polygon fill="orange" stroke="orange" points="504.67,-785.08 510.99,-793.58 511.35,-782.99 504.67,-785.08"/>
</a>
</g>
<text xml:space="preserve" text-anchor="start" x="498.04" y="-732" font-family="Helvetica,sans-Serif" font-size="10.00" fill="grey">&lt; float &gt;</text>
</g>
</g>
</svg>
