<?xml version="1.0" encoding="UTF-8" standalone="no"?>
<!DOCTYPE svg PUBLIC "-//W3C//DTD SVG 1.1//EN"
 "http://www.w3.org/Graphics/SVG/1.1/DTD/svg11.dtd">
<!-- Generated by graphviz version 14.0.2 (0)
 -->
<!-- Title: lmms::gui::TapTempoView::closeEvent Pages: 1 -->
<svg width="398pt" height="82pt"
 viewBox="0.00 0.00 398.00 82.00" xmlns="http://www.w3.org/2000/svg" xmlns:xlink="http://www.w3.org/1999/xlink">
<g id="graph0" class="graph" transform="scale(1 1) rotate(0) translate(4 78.25)">
<title>lmms::gui::TapTempoView::closeEvent</title>
<!-- Node1 -->
<g id="Node000001" class="node">
<title>Node1</title>
<g id="a_Node000001"><a xlink:title=" ">
<polygon fill="#999999" stroke="#666666" points="130,-42.88 0,-42.88 0,-12.37 130,-12.37 130,-42.88"/>
<text xml:space="preserve" text-anchor="start" x="8" y="-29.38" font-family="Helvetica,sans-Serif" font-size="10.00">lmms::gui::TapTempoView</text>
<text xml:space="preserve" text-anchor="middle" x="65" y="-18.12" font-family="Helvetica,sans-Serif" font-size="10.00">::closeEvent</text>
</a>
</g>
</g>
<!-- Node2 -->
<g id="Node000002" class="node">
<title>Node2</title>
<g id="a_Node000002"><a xlink:href="classlmms_1_1gui_1_1TapTempoView.html#ad0ba3a80b5d7cb9ecfcebb7d8a0fe748" target="_top" xlink:title=" ">
<polygon fill="white" stroke="#666666" points="296,-42.88 166,-42.88 166,-12.37 296,-12.37 296,-42.88"/>
<text xml:space="preserve" text-anchor="start" x="174" y="-29.38" font-family="Helvetica,sans-Serif" font-size="10.00">lmms::gui::TapTempoView</text>
<text xml:space="preserve" text-anchor="middle" x="231" y="-18.12" font-family="Helvetica,sans-Serif" font-size="10.00">::updateLabels</text>
</a>
</g>
</g>
<!-- Node1&#45;&gt;Node2 -->
<g id="edge1_Node000001_Node000002" class="edge">
<title>Node1&#45;&gt;Node2</title>
<g id="a_edge1_Node000001_Node000002"><a xlink:title=" ">
<path fill="none" stroke="#63b8ff" d="M130.35,-27.62C138.21,-27.62 146.31,-27.62 154.33,-27.62"/>
<polygon fill="#63b8ff" stroke="#63b8ff" points="154.06,-31.13 164.06,-27.63 154.06,-24.13 154.06,-31.13"/>
</a>
</g>
</g>
<!-- Node3 -->
<g id="Node000003" class="node">
<title>Node3</title>
<g id="a_Node000003"><a xlink:href="ZynAddSubFx_2zynaddsubfx_2src_2Synth_2OscilGen_8cpp.html#a8ba7098a5809423372cf8cbbe6f3b504" target="_top" xlink:title=" ">
<polygon fill="white" stroke="#666666" points="375.75,-56.25 346.25,-56.25 346.25,-37 375.75,-37 375.75,-56.25"/>
<text xml:space="preserve" text-anchor="middle" x="361" y="-42.75" font-family="Helvetica,sans-Serif" font-size="10.00">arg</text>
</a>
</g>
</g>
<!-- Node2&#45;&gt;Node3 -->
<g id="edge2_Node000002_Node000003" class="edge">
<title>Node2&#45;&gt;Node3</title>
<g id="a_edge2_Node000002_Node000003"><a xlink:title=" ">
<path fill="none" stroke="#63b8ff" d="M296.37,-37.18C309.94,-39.19 323.49,-41.21 334.58,-42.85"/>
<polygon fill="#63b8ff" stroke="#63b8ff" points="334.01,-46.31 344.42,-44.31 335.04,-39.38 334.01,-46.31"/>
</a>
</g>
</g>
<!-- Node4 -->
<g id="Node000004" class="node">
<title>Node4</title>
<g id="a_Node000004"><a xlink:href="namespacestd.html#a68ac792afb5bde925f0d8444a4643fe5" target="_top" xlink:title=" ">
<polygon fill="white" stroke="#666666" points="390,-19.25 332,-19.25 332,0 390,0 390,-19.25"/>
<text xml:space="preserve" text-anchor="middle" x="361" y="-5.75" font-family="Helvetica,sans-Serif" font-size="10.00">std::round</text>
</a>
</g>
</g>
<!-- Node2&#45;&gt;Node4 -->
<g id="edge4_Node000002_Node000004" class="edge">
<title>Node2&#45;&gt;Node4</title>
<g id="a_edge4_Node000002_Node000004"><a xlink:title=" ">
<path fill="none" stroke="#63b8ff" d="M296.37,-18.57C304.64,-17.41 312.9,-16.25 320.6,-15.17"/>
<polygon fill="#63b8ff" stroke="#63b8ff" points="320.87,-18.66 330.29,-13.8 319.9,-11.73 320.87,-18.66"/>
</a>
</g>
</g>
<!-- Node3&#45;&gt;Node3 -->
<g id="edge3_Node000003_Node000003" class="edge">
<title>Node3&#45;&gt;Node3</title>
<g id="a_edge3_Node000003_Node000003"><a xlink:title=" ">
<path fill="none" stroke="#63b8ff" d="M346.15,-52.59C329.64,-62.09 334.59,-74.25 361,-74.25 380.8,-74.25 388.54,-67.41 384.21,-59.98"/>
<polygon fill="#63b8ff" stroke="#63b8ff" points="386.8,-57.6 376.99,-53.6 382.16,-62.84 386.8,-57.6"/>
</a>
</g>
</g>
</g>
</svg>
