<?xml version="1.0" encoding="UTF-8" standalone="no"?>
<!DOCTYPE svg PUBLIC "-//W3C//DTD SVG 1.1//EN"
 "http://www.w3.org/Graphics/SVG/1.1/DTD/svg11.dtd">
<!-- Generated by graphviz version 14.0.2 (0)
 -->
<!-- Title: juce::AudioFormatWriter::writeFromAudioSource Pages: 1 -->
<svg width="622pt" height="167pt"
 viewBox="0.00 0.00 622.00 167.00" xmlns="http://www.w3.org/2000/svg" xmlns:xlink="http://www.w3.org/1999/xlink">
<g id="graph0" class="graph" transform="scale(1 1) rotate(0) translate(4 162.5)">
<title>juce::AudioFormatWriter::writeFromAudioSource</title>
<!-- Node1 -->
<g id="Node000001" class="node">
<title>Node1</title>
<g id="a_Node000001"><a xlink:title=" ">
<polygon fill="#999999" stroke="#666666" points="613.75,-32.5 494.25,-32.5 494.25,-2 613.75,-2 613.75,-32.5"/>
<text xml:space="preserve" text-anchor="start" x="502.25" y="-19" font-family="Helvetica,sans-Serif" font-size="10.00">juce::AudioFormatWriter</text>
<text xml:space="preserve" text-anchor="middle" x="554" y="-7.75" font-family="Helvetica,sans-Serif" font-size="10.00">::writeFromAudioSource</text>
</a>
</g>
</g>
<!-- Node1&#45;&gt;Node1 -->
<g id="edge12_Node000001_Node000001" class="edge">
<title>Node1&#45;&gt;Node1</title>
<g id="a_edge12_Node000001_Node000001"><a xlink:title=" ">
<path fill="none" stroke="#63b8ff" d="M580.08,-44.2C575.81,-47.97 567.12,-50.5 554,-50.5 530.01,-50.5 520.82,-42.06 526.45,-32.99"/>
<polygon fill="#63b8ff" stroke="#63b8ff" points="583.52,-44.86 581.36,-34.49 576.58,-43.94 583.52,-44.86"/>
</a>
</g>
</g>
<!-- Node2 -->
<g id="Node000002" class="node">
<title>Node2</title>
<g id="a_Node000002"><a xlink:href="classjuce_1_1AudioFormatWriter.html#a6b5943dcd297f67be7040658d37163d6" target="_top" xlink:title=" ">
<polygon fill="white" stroke="#666666" points="458.25,-73.5 338.75,-73.5 338.75,-43 458.25,-43 458.25,-73.5"/>
<text xml:space="preserve" text-anchor="start" x="346.75" y="-60" font-family="Helvetica,sans-Serif" font-size="10.00">juce::AudioFormatWriter</text>
<text xml:space="preserve" text-anchor="middle" x="398.5" y="-48.75" font-family="Helvetica,sans-Serif" font-size="10.00">::write</text>
</a>
</g>
</g>
<!-- Node1&#45;&gt;Node2 -->
<g id="edge1_Node000001_Node000002" class="edge">
<title>Node1&#45;&gt;Node2</title>
<g id="a_edge1_Node000001_Node000002"><a xlink:title=" ">
<path fill="none" stroke="#63b8ff" d="M483.22,-35.89C474.87,-38.12 466.42,-40.38 458.25,-42.56"/>
<polygon fill="#63b8ff" stroke="#63b8ff" points="483.87,-39.34 492.63,-33.37 482.07,-32.57 483.87,-39.34"/>
</a>
</g>
</g>
<!-- Node3 -->
<g id="Node000003" class="node">
<title>Node3</title>
<g id="a_Node000003"><a xlink:href="classjuce_1_1AudioFormatWriter.html#a0789c066dfe3fce71c874e78fe01f886" target="_top" xlink:title=" ">
<polygon fill="white" stroke="#666666" points="302.75,-140.5 183.25,-140.5 183.25,-110 302.75,-110 302.75,-140.5"/>
<text xml:space="preserve" text-anchor="start" x="191.25" y="-127" font-family="Helvetica,sans-Serif" font-size="10.00">juce::AudioFormatWriter</text>
<text xml:space="preserve" text-anchor="middle" x="243" y="-115.75" font-family="Helvetica,sans-Serif" font-size="10.00">::writeFromAudioReader</text>
</a>
</g>
</g>
<!-- Node2&#45;&gt;Node3 -->
<g id="edge2_Node000002_Node000003" class="edge">
<title>Node2&#45;&gt;Node3</title>
<g id="a_edge2_Node000002_Node000003"><a xlink:title=" ">
<path fill="none" stroke="#63b8ff" d="M332.64,-78.26C322.64,-82.57 312.43,-87.05 302.75,-91.25 289.43,-97.04 274.36,-103.45 262.82,-109.53"/>
<polygon fill="#63b8ff" stroke="#63b8ff" points="333.73,-81.6 341.56,-74.46 330.98,-75.16 333.73,-81.6"/>
</a>
</g>
</g>
<!-- Node4 -->
<g id="Node000004" class="node">
<title>Node4</title>
<g id="a_Node000004"><a xlink:href="classjuce_1_1AudioFormatWriter.html#a0d118f9fa332150fac135518029249f3" target="_top" xlink:title=" ">
<polygon fill="white" stroke="#666666" points="302.75,-73.5 183.25,-73.5 183.25,-43 302.75,-43 302.75,-73.5"/>
<text xml:space="preserve" text-anchor="start" x="191.25" y="-60" font-family="Helvetica,sans-Serif" font-size="10.00">juce::AudioFormatWriter</text>
<text xml:space="preserve" text-anchor="middle" x="243" y="-48.75" font-family="Helvetica,sans-Serif" font-size="10.00">::writeFromFloatArrays</text>
</a>
</g>
</g>
<!-- Node2&#45;&gt;Node4 -->
<g id="edge5_Node000002_Node000004" class="edge">
<title>Node2&#45;&gt;Node4</title>
<g id="a_edge5_Node000002_Node000004"><a xlink:title=" ">
<path fill="none" stroke="#63b8ff" d="M327.24,-51.52C319.14,-51.47 310.94,-51.51 303,-51.66"/>
<polygon fill="#63b8ff" stroke="#63b8ff" points="327.04,-55.02 337.08,-51.65 327.12,-48.02 327.04,-55.02"/>
</a>
</g>
</g>
<!-- Node3&#45;&gt;Node2 -->
<g id="edge3_Node000003_Node000002" class="edge">
<title>Node3&#45;&gt;Node2</title>
<g id="a_edge3_Node000003_Node000002"><a xlink:title=" ">
<path fill="none" stroke="#63b8ff" d="M312.59,-104.95C336.37,-94.53 361.27,-83.2 377.94,-73.91"/>
<polygon fill="#63b8ff" stroke="#63b8ff" points="311.29,-101.7 303.53,-108.91 314.09,-108.12 311.29,-101.7"/>
</a>
</g>
</g>
<!-- Node3&#45;&gt;Node3 -->
<g id="edge4_Node000003_Node000003" class="edge">
<title>Node3&#45;&gt;Node3</title>
<g id="a_edge4_Node000003_Node000003"><a xlink:title=" ">
<path fill="none" stroke="#63b8ff" d="M269.08,-152.2C264.81,-155.97 256.12,-158.5 243,-158.5 219.01,-158.5 209.82,-150.06 215.45,-140.99"/>
<polygon fill="#63b8ff" stroke="#63b8ff" points="272.52,-152.86 270.36,-142.49 265.58,-151.94 272.52,-152.86"/>
</a>
</g>
</g>
<!-- Node4&#45;&gt;Node2 -->
<g id="edge6_Node000004_Node000002" class="edge">
<title>Node4&#45;&gt;Node2</title>
<g id="a_edge6_Node000004_Node000002"><a xlink:title=" ">
<path fill="none" stroke="#63b8ff" d="M314.36,-64.98C322.46,-65.03 330.66,-64.98 338.59,-64.84"/>
<polygon fill="#63b8ff" stroke="#63b8ff" points="314.56,-61.48 304.52,-64.86 314.47,-68.48 314.56,-61.48"/>
</a>
</g>
</g>
<!-- Node4&#45;&gt;Node4 -->
<g id="edge11_Node000004_Node000004" class="edge">
<title>Node4&#45;&gt;Node4</title>
<g id="a_edge11_Node000004_Node000004"><a xlink:title=" ">
<path fill="none" stroke="#63b8ff" d="M269.08,-85.2C264.81,-88.97 256.12,-91.5 243,-91.5 219.01,-91.5 209.82,-83.06 215.45,-73.99"/>
<polygon fill="#63b8ff" stroke="#63b8ff" points="272.52,-85.86 270.36,-75.49 265.58,-84.94 272.52,-85.86"/>
</a>
</g>
</g>
<!-- Node5 -->
<g id="Node000005" class="node">
<title>Node5</title>
<g id="a_Node000005"><a xlink:href="classjuce_1_1AudioFormatWriter.html#a96c311f9c0da9e3a8349a9d9470ecf28" target="_top" xlink:title=" ">
<polygon fill="white" stroke="#666666" points="147.25,-30.5 0,-30.5 0,0 147.25,0 147.25,-30.5"/>
<text xml:space="preserve" text-anchor="start" x="8" y="-17" font-family="Helvetica,sans-Serif" font-size="10.00">juce::AudioFormatWriter</text>
<text xml:space="preserve" text-anchor="middle" x="73.62" y="-5.75" font-family="Helvetica,sans-Serif" font-size="10.00">::writeFromAudioSampleBuffer</text>
</a>
</g>
</g>
<!-- Node4&#45;&gt;Node5 -->
<g id="edge7_Node000004_Node000005" class="edge">
<title>Node4&#45;&gt;Node5</title>
<g id="a_edge7_Node000004_Node000005"><a xlink:title=" ">
<path fill="none" stroke="#63b8ff" d="M172.03,-40.27C159.95,-37.17 147.47,-33.97 135.65,-30.93"/>
<polygon fill="#63b8ff" stroke="#63b8ff" points="170.97,-43.61 181.52,-42.71 172.71,-36.83 170.97,-43.61"/>
</a>
</g>
</g>
<!-- Node5&#45;&gt;Node1 -->
<g id="edge10_Node000005_Node000001" class="edge">
<title>Node5&#45;&gt;Node1</title>
<g id="a_edge10_Node000005_Node000001"><a xlink:title=" ">
<path fill="none" stroke="#63b8ff" d="M159.13,-15.6C255.26,-16.01 409.79,-16.65 493.86,-17"/>
<polygon fill="#63b8ff" stroke="#63b8ff" points="159.23,-12.1 149.21,-15.56 159.2,-19.1 159.23,-12.1"/>
</a>
</g>
</g>
<!-- Node5&#45;&gt;Node2 -->
<g id="edge8_Node000005_Node000002" class="edge">
<title>Node5&#45;&gt;Node2</title>
<g id="a_edge8_Node000005_Node000002"><a xlink:title=" ">
<path fill="none" stroke="#63b8ff" d="M159.02,-18.95C202.22,-21.69 255.52,-26.36 302.75,-34.25 315.55,-36.39 329.17,-39.39 341.96,-42.55"/>
<polygon fill="#63b8ff" stroke="#63b8ff" points="159.4,-15.47 149.2,-18.35 158.97,-22.45 159.4,-15.47"/>
</a>
</g>
</g>
<!-- Node5&#45;&gt;Node5 -->
<g id="edge9_Node000005_Node000005" class="edge">
<title>Node5&#45;&gt;Node5</title>
<g id="a_edge9_Node000005_Node000005"><a xlink:title=" ">
<path fill="none" stroke="#63b8ff" d="M102.03,-42.2C97.39,-45.97 87.92,-48.5 73.62,-48.5 47.49,-48.5 37.49,-40.06 43.61,-30.99"/>
<polygon fill="#63b8ff" stroke="#63b8ff" points="105.47,-42.88 103.42,-32.48 98.54,-41.89 105.47,-42.88"/>
</a>
</g>
</g>
</g>
</svg>
