<?xml version="1.0" encoding="UTF-8" standalone="no"?>
<!DOCTYPE svg PUBLIC "-//W3C//DTD SVG 1.1//EN"
 "http://www.w3.org/Graphics/SVG/1.1/DTD/svg11.dtd">
<!-- Generated by graphviz version 14.0.2 (0)
 -->
<!-- Title: rtosc::MidiMappernRT::generateNewBijection Pages: 1 -->
<svg width="448pt" height="174pt"
 viewBox="0.00 0.00 448.00 174.00" xmlns="http://www.w3.org/2000/svg" xmlns:xlink="http://www.w3.org/1999/xlink">

<svg id="main" version="1.1" xmlns="http://www.w3.org/2000/svg" xmlns:xlink="http://www.w3.org/1999/xlink" xml:space="preserve">

<style type="text/css"><![CDATA[
.node, .edge {opacity: 0.7;}
.node.selected, .edge.selected {opacity: 1;}
.edge:hover path { stroke: red; }
.edge:hover polygon { stroke: red; fill: red; }
]]></style>
<script type="application/ecmascript" xlink:href="svg.min.js"/>
<svg id="graph" class="graph">
<g id="graph0" class="graph" transform="scale(1 1) rotate(0) translate(4 169.5)">
<title>rtosc::MidiMappernRT::generateNewBijection</title>
<!-- Node1 -->
<g id="Node000001" class="node">
<title>Node1</title>
<g id="a_Node000001"><a xlink:title=" ">
<polygon fill="#999999" stroke="#666666" points="115.75,-94.5 0,-94.5 0,-64 115.75,-64 115.75,-94.5"/>
<text xml:space="preserve" text-anchor="start" x="8" y="-81" font-family="Helvetica,sans-Serif" font-size="10.00">rtosc::MidiMappernRT</text>
<text xml:space="preserve" text-anchor="middle" x="57.88" y="-69.75" font-family="Helvetica,sans-Serif" font-size="10.00">::generateNewBijection</text>
</a>
</g>
</g>
<!-- Node2 -->
<g id="Node000002" class="node">
<title>Node2</title>
<g id="a_Node000002"><a xlink:href="classrtosc_1_1MidiMapperStorage_1_1TinyVector.html#ae14274f633b40e415a95c3016859f2c6" target="_top" xlink:title=" ">
<polygon fill="white" stroke="#666666" points="278,-165.5 151.75,-165.5 151.75,-135 278,-135 278,-165.5"/>
<text xml:space="preserve" text-anchor="start" x="159.75" y="-152" font-family="Helvetica,sans-Serif" font-size="10.00">rtosc::MidiMapperStorage</text>
<text xml:space="preserve" text-anchor="middle" x="214.88" y="-140.75" font-family="Helvetica,sans-Serif" font-size="10.00">::TinyVector::clone</text>
</a>
</g>
</g>
<!-- Node1&#45;&gt;Node2 -->
<g id="edge1_Node000001_Node000002" class="edge">
<title>Node1&#45;&gt;Node2</title>
<g id="a_edge1_Node000001_Node000002"><a xlink:title=" ">
<path fill="none" stroke="#63b8ff" d="M89.13,-94.97C107.15,-104.15 130.57,-115.76 151.75,-125.25 155.47,-126.92 159.34,-128.6 163.24,-130.25"/>
<polygon fill="#63b8ff" stroke="#63b8ff" points="161.61,-133.36 172.18,-133.98 164.3,-126.9 161.61,-133.36"/>
</a>
</g>
</g>
<!-- Node4 -->
<g id="Node000004" class="node">
<title>Node4</title>
<g id="a_Node000004"><a xlink:href="classrtosc_1_1MidiMapperStorage_1_1TinyVector.html#ab3053826fc9d7ae42fe68a05ac79ab38" target="_top" xlink:title=" ">
<polygon fill="white" stroke="#666666" points="278,-116.5 151.75,-116.5 151.75,-86 278,-86 278,-116.5"/>
<text xml:space="preserve" text-anchor="start" x="159.75" y="-103" font-family="Helvetica,sans-Serif" font-size="10.00">rtosc::MidiMapperStorage</text>
<text xml:space="preserve" text-anchor="middle" x="214.88" y="-91.75" font-family="Helvetica,sans-Serif" font-size="10.00">::TinyVector::insert</text>
</a>
</g>
</g>
<!-- Node1&#45;&gt;Node4 -->
<g id="edge3_Node000001_Node000004" class="edge">
<title>Node1&#45;&gt;Node4</title>
<g id="a_edge3_Node000001_Node000004"><a xlink:title=" ">
<path fill="none" stroke="#63b8ff" d="M116.15,-87.38C123.95,-88.49 132.04,-89.63 140.07,-90.77"/>
<polygon fill="#63b8ff" stroke="#63b8ff" points="139.47,-94.22 149.86,-92.16 140.45,-87.29 139.47,-94.22"/>
</a>
</g>
</g>
<!-- Node5 -->
<g id="Node000005" class="node">
<title>Node5</title>
<g id="a_Node000005"><a xlink:href="rtosc_8h.html#a4ee38fd3157a519b0e31818a5550e126" target="_top" xlink:title=" ">
<polygon fill="white" stroke="#666666" points="256.25,-67.88 173.5,-67.88 173.5,-48.62 256.25,-48.62 256.25,-67.88"/>
<text xml:space="preserve" text-anchor="middle" x="214.88" y="-54.38" font-family="Helvetica,sans-Serif" font-size="10.00">rtosc_message</text>
</a>
</g>
</g>
<!-- Node1&#45;&gt;Node5 -->
<g id="edge5_Node000001_Node000005" class="edge">
<title>Node1&#45;&gt;Node5</title>
<g id="a_edge5_Node000001_Node000005"><a xlink:title=" ">
<path fill="none" stroke="#63b8ff" d="M116.15,-71.49C131.27,-69.44 147.49,-67.24 162.29,-65.24"/>
<polygon fill="#63b8ff" stroke="#63b8ff" points="162.35,-68.76 171.79,-63.95 161.41,-61.83 162.35,-68.76"/>
</a>
</g>
</g>
<!-- Node6 -->
<g id="Node000006" class="node">
<title>Node6</title>
<g id="a_Node000006"><a xlink:href="classrtosc_1_1MidiMapperStorage_1_1TinyVector.html#acbb33844776a99ffc3ccc2014d0d170b" target="_top" xlink:title=" ">
<polygon fill="white" stroke="#666666" points="278,-30.5 151.75,-30.5 151.75,0 278,0 278,-30.5"/>
<text xml:space="preserve" text-anchor="start" x="159.75" y="-17" font-family="Helvetica,sans-Serif" font-size="10.00">rtosc::MidiMapperStorage</text>
<text xml:space="preserve" text-anchor="middle" x="214.88" y="-5.75" font-family="Helvetica,sans-Serif" font-size="10.00">::TinyVector::size</text>
</a>
</g>
</g>
<!-- Node1&#45;&gt;Node6 -->
<g id="edge6_Node000001_Node000006" class="edge">
<title>Node1&#45;&gt;Node6</title>
<g id="a_edge6_Node000001_Node000006"><a xlink:title=" ">
<path fill="none" stroke="#63b8ff" d="M94.46,-63.55C111.7,-56.04 132.73,-47.01 151.75,-39.25 155.12,-37.87 158.6,-36.47 162.12,-35.07"/>
<polygon fill="#63b8ff" stroke="#63b8ff" points="163.26,-38.39 171.28,-31.46 160.69,-31.87 163.26,-38.39"/>
</a>
</g>
</g>
<!-- Node3 -->
<g id="Node000003" class="node">
<title>Node3</title>
<g id="a_Node000003"><a xlink:href="classrtosc_1_1MidiMapperStorage_1_1TinyVector.html#aadfa9be21b9388f1f91712726bf8b47a" target="_top" xlink:title=" ">
<polygon fill="white" stroke="#666666" points="440.25,-140.5 314,-140.5 314,-110 440.25,-110 440.25,-140.5"/>
<text xml:space="preserve" text-anchor="start" x="322" y="-127" font-family="Helvetica,sans-Serif" font-size="10.00">rtosc::MidiMapperStorage</text>
<text xml:space="preserve" text-anchor="middle" x="377.12" y="-115.75" font-family="Helvetica,sans-Serif" font-size="10.00">::TinyVector::TinyVector</text>
</a>
</g>
</g>
<!-- Node2&#45;&gt;Node3 -->
<g id="edge2_Node000002_Node000003" class="edge">
<title>Node2&#45;&gt;Node3</title>
<g id="a_edge2_Node000002_Node000003"><a xlink:title=" ">
<path fill="none" stroke="#63b8ff" d="M278.29,-140.51C286.18,-139.28 294.3,-138.02 302.34,-136.76"/>
<polygon fill="#63b8ff" stroke="#63b8ff" points="302.78,-140.23 312.12,-135.24 301.7,-133.32 302.78,-140.23"/>
</a>
</g>
</g>
<!-- Node4&#45;&gt;Node3 -->
<g id="edge4_Node000004_Node000003" class="edge">
<title>Node4&#45;&gt;Node3</title>
<g id="a_edge4_Node000004_Node000003"><a xlink:title=" ">
<path fill="none" stroke="#63b8ff" d="M278.29,-110.6C286.18,-111.78 294.3,-113 302.34,-114.2"/>
<polygon fill="#63b8ff" stroke="#63b8ff" points="301.71,-117.64 312.12,-115.66 302.75,-110.72 301.71,-117.64"/>
</a>
</g>
</g>
</g>
</svg>
</svg>

<style type='text/css'>
<![CDATA[
[data-mouse-over-selected='false'] { opacity: 0.7; }
[data-mouse-over-selected='true']  { opacity: 1.0; }
]]>
</style>
<script type="application/ecmascript"><![CDATA[
document.addEventListener('DOMContentLoaded', (event) => {
  highlightEdges();
  highlightAdjacentNodes();
});
]]></script>
</svg>
