<?xml version="1.0" encoding="UTF-8" standalone="no"?>
<!DOCTYPE svg PUBLIC "-//W3C//DTD SVG 1.1//EN"
 "http://www.w3.org/Graphics/SVG/1.1/DTD/svg11.dtd">
<!-- Generated by graphviz version 14.0.2 (0)
 -->
<!-- Title: lmms::gui::AutomationEditorWindow::open Pages: 1 -->
<!--zoomable 295 -->

<svg id="main" version="1.1" xmlns="http://www.w3.org/2000/svg" xmlns:xlink="http://www.w3.org/1999/xlink" xml:space="preserve" onload="init(evt)">

<style type="text/css"><![CDATA[
.node, .edge {opacity: 0.7;}
.node.selected, .edge.selected {opacity: 1;}
.edge:hover path { stroke: red; }
.edge:hover polygon { stroke: red; fill: red; }
]]></style>

<defs>
  <circle id="rim" cx="0" cy="0" r="7"/>
  <circle id="rim2" cx="0" cy="0" r="3.5"/>
  <g id="zoomPlus">
    <use xlink:href="#rim" fill="#404040"><set attributeName="fill" to="#808080" begin="zoomplus.mouseover" end="zoomplus.mouseout"/></use>
    <path d="M-4,0h8M0,-4v8" fill="none" stroke="white" stroke-width="1.5" pointer-events="none"/>
  </g>
  <g id="zoomMin">
    <use xlink:href="#rim" fill="#404040"><set attributeName="fill" to="#808080" begin="zoomminus.mouseover" end="zoomminus.mouseout"/></use>
    <path d="M-4,0h8" fill="none" stroke="white" stroke-width="1.5" pointer-events="none"/>
  </g>
  <g id="arrowUp" transform="translate(30 24)">
    <use xlink:href="#rim"/>
    <path pointer-events="none" fill="none" stroke="white" stroke-width="1.5" d="M0,-3.0v7 M-2.5,-0.5L0,-3.0L2.5,-0.5"/>
  </g>
  <g id="arrowRight" transform="rotate(90) translate(36 -43)">
    <use xlink:href="#rim"/>
    <path pointer-events="none" fill="none" stroke="white" stroke-width="1.5" d="M0,-3.0v7 M-2.5,-0.5L0,-3.0L2.5,-0.5"/>
  </g>
  <g id="arrowDown" transform="rotate(180) translate(-30 -48)">
    <use xlink:href="#rim"/>
    <path pointer-events="none" fill="none" stroke="white" stroke-width="1.5" d="M0,-3.0v7 M-2.5,-0.5L0,-3.0L2.5,-0.5"/>
  </g>
  <g id="arrowLeft" transform="rotate(270) translate(-36 17)">
    <use xlink:href="#rim"/>
    <path pointer-events="none" fill="none" stroke="white" stroke-width="1.5" d="M0,-3.0v7 M-2.5,-0.5L0,-3.0L2.5,-0.5"/>
  </g>
  <g id="resetDef">
    <use xlink:href="#rim2" fill="#404040"><set attributeName="fill" to="#808080" begin="reset.mouseover" end="reset.mouseout"/></use>
  </g>
</defs>
<script type="application/ecmascript">
var viewWidth = 670;
var viewHeight = 295;
var sectionId = 'dynsection-9';
</script>
<script type="application/ecmascript" xlink:href="svg.min.js"/>
<svg id="graph" class="graph">
<g id="viewport">
<title>lmms::gui::AutomationEditorWindow::open</title>
<!-- Node1 -->
<g id="Node000001" class="node">
<title>Node1</title>
<g id="a_Node000001"><a xlink:title=" ">
<polygon fill="#999999" stroke="#666666" points="136,-218.5 0,-218.5 0,-188 136,-188 136,-218.5"/>
<text xml:space="preserve" text-anchor="start" x="8" y="-205" font-family="Helvetica,sans-Serif" font-size="10.00">lmms::gui::AutomationEditor</text>
<text xml:space="preserve" text-anchor="middle" x="68" y="-193.75" font-family="Helvetica,sans-Serif" font-size="10.00">Window::open</text>
</a>
</g>
</g>
<!-- Node2 -->
<g id="Node000002" class="node">
<title>Node2</title>
<g id="a_Node000002"><a xlink:href="classlmms_1_1gui_1_1AutomationEditorWindow.html#aa9af5ad7cecdefe9831361a30541b164" target="_top" xlink:title=" ">
<polygon fill="white" stroke="#666666" points="308,-218.5 172,-218.5 172,-188 308,-188 308,-218.5"/>
<text xml:space="preserve" text-anchor="start" x="180" y="-205" font-family="Helvetica,sans-Serif" font-size="10.00">lmms::gui::AutomationEditor</text>
<text xml:space="preserve" text-anchor="middle" x="240" y="-193.75" font-family="Helvetica,sans-Serif" font-size="10.00">Window::setCurrentClip</text>
</a>
</g>
</g>
<!-- Node1&#45;&gt;Node2 -->
<g id="edge1_Node000001_Node000002" class="edge">
<title>Node1&#45;&gt;Node2</title>
<g id="a_edge1_Node000001_Node000002"><a xlink:title=" ">
<path fill="none" stroke="#63b8ff" d="M136.19,-203.25C144.14,-203.25 152.3,-203.25 160.39,-203.25"/>
<polygon fill="#63b8ff" stroke="#63b8ff" points="160.23,-206.75 170.23,-203.25 160.23,-199.75 160.23,-206.75"/>
</a>
</g>
</g>
<!-- Node3 -->
<g id="Node000003" class="node">
<title>Node3</title>
<g id="a_Node000003"><a xlink:href="ZynAddSubFx_2zynaddsubfx_2src_2Synth_2OscilGen_8cpp.html#a8ba7098a5809423372cf8cbbe6f3b504" target="_top" xlink:title=" ">
<polygon fill="white" stroke="#666666" points="608.5,-258.88 579,-258.88 579,-239.62 608.5,-239.62 608.5,-258.88"/>
<text xml:space="preserve" text-anchor="middle" x="593.75" y="-245.38" font-family="Helvetica,sans-Serif" font-size="10.00">arg</text>
</a>
</g>
</g>
<!-- Node2&#45;&gt;Node3 -->
<g id="edge2_Node000002_Node000003" class="edge">
<title>Node2&#45;&gt;Node3</title>
<g id="a_edge2_Node000002_Node000003"><a xlink:title=" ">
<path fill="none" stroke="#63b8ff" d="M256.37,-218.92C275.12,-236.8 308.71,-265.01 344,-276.25 423.01,-301.41 522.49,-274.04 567.99,-258.49"/>
<polygon fill="#63b8ff" stroke="#63b8ff" points="568.91,-261.87 577.17,-255.24 566.57,-255.27 568.91,-261.87"/>
</a>
</g>
</g>
<!-- Node4 -->
<g id="Node000004" class="node">
<title>Node4</title>
<g id="a_Node000004"><a xlink:href="classlmms_1_1gui_1_1AutomationEditorWindow.html#af9c981bb2da75e926ce6ebd4480e4539" target="_top" xlink:title=" ">
<polygon fill="white" stroke="#666666" points="484.88,-267.5 348.88,-267.5 348.88,-237 484.88,-237 484.88,-267.5"/>
<text xml:space="preserve" text-anchor="start" x="356.88" y="-254" font-family="Helvetica,sans-Serif" font-size="10.00">lmms::gui::AutomationEditor</text>
<text xml:space="preserve" text-anchor="middle" x="416.88" y="-242.75" font-family="Helvetica,sans-Serif" font-size="10.00">Window::clearCurrentClip</text>
</a>
</g>
</g>
<!-- Node2&#45;&gt;Node4 -->
<g id="edge4_Node000002_Node000004" class="edge">
<title>Node2&#45;&gt;Node4</title>
<g id="a_edge4_Node000002_Node000004"><a xlink:title=" ">
<path fill="none" stroke="#63b8ff" d="M308.36,-215.54C328.7,-220.9 350.56,-227.21 369.23,-233.13"/>
<polygon fill="#63b8ff" stroke="#63b8ff" points="368.07,-236.43 378.67,-236.19 370.23,-229.78 368.07,-236.43"/>
</a>
</g>
</g>
<!-- Node5 -->
<g id="Node000005" class="node">
<title>Node5</title>
<g id="a_Node000005"><a xlink:href="classlmms_1_1gui_1_1AutomationEditorWindow.html#af2f0465f2b710aaf458555ee08d16f49" target="_top" xlink:title=" ">
<polygon fill="white" stroke="#666666" points="661.75,-128.5 525.75,-128.5 525.75,-98 661.75,-98 661.75,-128.5"/>
<text xml:space="preserve" text-anchor="start" x="533.75" y="-115" font-family="Helvetica,sans-Serif" font-size="10.00">lmms::gui::AutomationEditor</text>
<text xml:space="preserve" text-anchor="middle" x="593.75" y="-103.75" font-family="Helvetica,sans-Serif" font-size="10.00">Window::currentClip</text>
</a>
</g>
</g>
<!-- Node2&#45;&gt;Node5 -->
<g id="edge6_Node000002_Node000005" class="edge">
<title>Node2&#45;&gt;Node5</title>
<g id="a_edge6_Node000002_Node000005"><a xlink:title=" ">
<path fill="none" stroke="#63b8ff" d="M256.85,-187.68C275.8,-170.19 309.32,-142.61 344,-130.25 398.47,-110.83 463.83,-107.05 513.88,-107.88"/>
<polygon fill="#63b8ff" stroke="#63b8ff" points="513.7,-111.37 523.78,-108.11 513.86,-104.37 513.7,-111.37"/>
</a>
</g>
</g>
<!-- Node6 -->
<g id="Node000006" class="node">
<title>Node6</title>
<g id="a_Node000006"><a xlink:href="classlmms_1_1gui_1_1AutomationEditorWindow.html#a0c9d143e1207791762af9b9e11fe8651" target="_top" xlink:title=" ">
<polygon fill="white" stroke="#666666" points="486.75,-169.5 347,-169.5 347,-139 486.75,-139 486.75,-169.5"/>
<text xml:space="preserve" text-anchor="start" x="355" y="-156" font-family="Helvetica,sans-Serif" font-size="10.00">lmms::gui::AutomationEditor</text>
<text xml:space="preserve" text-anchor="middle" x="416.88" y="-144.75" font-family="Helvetica,sans-Serif" font-size="10.00">Window::currentClipChanged</text>
</a>
</g>
</g>
<!-- Node2&#45;&gt;Node6 -->
<g id="edge7_Node000002_Node000006" class="edge">
<title>Node2&#45;&gt;Node6</title>
<g id="a_edge7_Node000002_Node000006"><a xlink:title=" ">
<path fill="none" stroke="#63b8ff" d="M296.81,-187.61C313.29,-182.99 331.51,-177.89 348.63,-173.09"/>
<polygon fill="#63b8ff" stroke="#63b8ff" points="349.55,-176.47 358.24,-170.4 347.66,-169.73 349.55,-176.47"/>
</a>
</g>
</g>
<!-- Node7 -->
<g id="Node000007" class="node">
<title>Node7</title>
<g id="a_Node000007"><a xlink:href="classlmms_1_1gui_1_1AutomationEditorWindow.html#addff95ca1dceb2ec5a52976d6eeb6d52" target="_top" xlink:title="The Edit Tangent edit mode should only be available for Cubic Hermite progressions,...">
<polygon fill="white" stroke="#666666" points="489.75,-82.5 344,-82.5 344,-52 489.75,-52 489.75,-82.5"/>
<text xml:space="preserve" text-anchor="start" x="352" y="-69" font-family="Helvetica,sans-Serif" font-size="10.00">lmms::gui::AutomationEditor</text>
<text xml:space="preserve" text-anchor="middle" x="416.88" y="-57.75" font-family="Helvetica,sans-Serif" font-size="10.00">Window::updateEditTanButton</text>
</a>
</g>
</g>
<!-- Node2&#45;&gt;Node7 -->
<g id="edge8_Node000002_Node000007" class="edge">
<title>Node2&#45;&gt;Node7</title>
<g id="a_edge8_Node000002_Node000007"><a xlink:title=" ">
<path fill="none" stroke="#63b8ff" d="M252.75,-187.64C270.41,-165.08 305.82,-123.24 344,-97.25 349.03,-93.83 354.51,-90.68 360.13,-87.82"/>
<polygon fill="#63b8ff" stroke="#63b8ff" points="361.43,-91.08 368.96,-83.63 358.43,-84.75 361.43,-91.08"/>
</a>
</g>
</g>
<!-- Node10 -->
<g id="Node000010" class="node">
<title>Node10</title>
<g id="a_Node000010"><a xlink:href="classlmms_1_1gui_1_1AutomationEditorWindow.html#a594c6617161de7a00c9751ff129b2122" target="_top" xlink:title=" ">
<polygon fill="white" stroke="#666666" points="485.62,-218.5 348.12,-218.5 348.12,-188 485.62,-188 485.62,-218.5"/>
<text xml:space="preserve" text-anchor="start" x="356.12" y="-205" font-family="Helvetica,sans-Serif" font-size="10.00">lmms::gui::AutomationEditor</text>
<text xml:space="preserve" text-anchor="middle" x="416.88" y="-193.75" font-family="Helvetica,sans-Serif" font-size="10.00">Window::updateWindowTitle</text>
</a>
</g>
</g>
<!-- Node2&#45;&gt;Node10 -->
<g id="edge12_Node000002_Node000010" class="edge">
<title>Node2&#45;&gt;Node10</title>
<g id="a_edge12_Node000002_Node000010"><a xlink:title=" ">
<path fill="none" stroke="#63b8ff" d="M308.36,-203.25C317.53,-203.25 327,-203.25 336.36,-203.25"/>
<polygon fill="#63b8ff" stroke="#63b8ff" points="336.17,-206.75 346.17,-203.25 336.17,-199.75 336.17,-206.75"/>
</a>
</g>
</g>
<!-- Node3&#45;&gt;Node3 -->
<g id="edge3_Node000003_Node000003" class="edge">
<title>Node3&#45;&gt;Node3</title>
<g id="a_edge3_Node000003_Node000003"><a xlink:title=" ">
<path fill="none" stroke="#63b8ff" d="M578.85,-253.21C550.27,-262.9 555.23,-276.88 593.75,-276.88 626.55,-276.88 635.02,-266.74 619.16,-257.75"/>
<polygon fill="#63b8ff" stroke="#63b8ff" points="620.6,-254.56 610.04,-253.81 617.83,-260.99 620.6,-254.56"/>
</a>
</g>
</g>
<!-- Node4&#45;&gt;Node2 -->
<g id="edge5_Node000004_Node000002" class="edge">
<title>Node4&#45;&gt;Node2</title>
<g id="a_edge5_Node000004_Node000002"><a xlink:title=" ">
<path fill="none" stroke="#63b8ff" d="M348.59,-239.98C328.39,-234.65 306.67,-228.4 288.08,-222.51"/>
<polygon fill="#63b8ff" stroke="#63b8ff" points="289.27,-219.21 278.67,-219.46 287.11,-225.87 289.27,-219.21"/>
</a>
</g>
</g>
<!-- Node7&#45;&gt;Node5 -->
<g id="edge9_Node000007_Node000005" class="edge">
<title>Node7&#45;&gt;Node5</title>
<g id="a_edge9_Node000007_Node000005"><a xlink:title=" ">
<path fill="none" stroke="#63b8ff" d="M477.57,-82.95C491.84,-86.71 507.21,-90.75 521.93,-94.62"/>
<polygon fill="#63b8ff" stroke="#63b8ff" points="521,-98 531.57,-97.16 522.79,-91.23 521,-98"/>
</a>
</g>
</g>
<!-- Node8 -->
<g id="Node000008" class="node">
<title>Node8</title>
<g id="a_Node000008"><a xlink:href="classlmms_1_1AutomationClip.html#a7db6702cdc749f687ccb6900d8d14ff4" target="_top" xlink:title=" ">
<polygon fill="white" stroke="#666666" points="649,-79.5 538.5,-79.5 538.5,-49 649,-49 649,-79.5"/>
<text xml:space="preserve" text-anchor="start" x="546.5" y="-66" font-family="Helvetica,sans-Serif" font-size="10.00">lmms::AutomationClip</text>
<text xml:space="preserve" text-anchor="middle" x="593.75" y="-54.75" font-family="Helvetica,sans-Serif" font-size="10.00">::progressionType</text>
</a>
</g>
</g>
<!-- Node7&#45;&gt;Node8 -->
<g id="edge10_Node000007_Node000008" class="edge">
<title>Node7&#45;&gt;Node8</title>
<g id="a_edge10_Node000007_Node000008"><a xlink:title=" ">
<path fill="none" stroke="#63b8ff" d="M490.01,-66.01C502.21,-65.8 514.81,-65.59 526.83,-65.38"/>
<polygon fill="#63b8ff" stroke="#63b8ff" points="526.7,-68.88 536.63,-65.21 526.58,-61.88 526.7,-68.88"/>
</a>
</g>
</g>
<!-- Node9 -->
<g id="Node000009" class="node">
<title>Node9</title>
<g id="a_Node000009"><a xlink:href="classlmms_1_1AutomationClip.html#adef70f770055c7ded0266e68ae6f3af6" target="_top" xlink:title=" ">
<polygon fill="white" stroke="#666666" points="655,-30.5 532.5,-30.5 532.5,0 655,0 655,-30.5"/>
<text xml:space="preserve" text-anchor="start" x="540.5" y="-17" font-family="Helvetica,sans-Serif" font-size="10.00">lmms::AutomationClip</text>
<text xml:space="preserve" text-anchor="middle" x="593.75" y="-5.75" font-family="Helvetica,sans-Serif" font-size="10.00">::supportsTangentEditing</text>
</a>
</g>
</g>
<!-- Node7&#45;&gt;Node9 -->
<g id="edge11_Node000007_Node000009" class="edge">
<title>Node7&#45;&gt;Node9</title>
<g id="a_edge11_Node000007_Node000009"><a xlink:title=" ">
<path fill="none" stroke="#63b8ff" d="M470.82,-51.51C489.14,-46.06 509.86,-39.9 528.96,-34.22"/>
<polygon fill="#63b8ff" stroke="#63b8ff" points="529.95,-37.58 538.54,-31.37 527.95,-30.87 529.95,-37.58"/>
</a>
</g>
</g>
<!-- Node10&#45;&gt;Node3 -->
<g id="edge13_Node000010_Node000003" class="edge">
<title>Node10&#45;&gt;Node3</title>
<g id="a_edge13_Node000010_Node000003"><a xlink:title=" ">
<path fill="none" stroke="#63b8ff" d="M477.57,-218.95C508.41,-227.06 544.38,-236.53 567.81,-242.69"/>
<polygon fill="#63b8ff" stroke="#63b8ff" points="566.8,-246.04 577.36,-245.2 568.58,-239.27 566.8,-246.04"/>
</a>
</g>
</g>
</g>
</svg>

<g id="navigator" transform="translate(0 0)" fill="#404254">
  <rect fill="#f2f5e9" fill-opacity="0.5" stroke="#606060" stroke-width=".5" x="0" y="0" width="60" height="60"/>
  <use id="zoomplus" xlink:href="#zoomPlus" x="17" y="9" onmousedown="handleZoom(evt,'in')"/>
  <use id="zoomminus" xlink:href="#zoomMin" x="42" y="9" onmousedown="handleZoom(evt,'out')"/>
  <use id="reset" xlink:href="#resetDef" x="30" y="36" onmousedown="handleReset()"/>
   <use id="arrowup" xlink:href="#arrowUp" x="0" y="0" onmousedown="handlePan(0,-1)"/>
  <use id="arrowright" xlink:href="#arrowRight" x="0" y="0" onmousedown="handlePan(1,0)"/>
  <use id="arrowdown" xlink:href="#arrowDown" x="0" y="0" onmousedown="handlePan(0,1)"/>
  <use id="arrowleft" xlink:href="#arrowLeft" x="0" y="0" onmousedown="handlePan(-1,0)"/>
</g>
<svg viewBox="0 0 15 15" width="100%" height="30px" preserveAspectRatio="xMaxYMin meet">
 <g id="arrow_out" transform="scale(0.3 0.3)">
  <a xlink:href="classlmms_1_1gui_1_1AutomationEditorWindow_a745c3daf81e98f7dbd9875dbc7d16262_cgraph_org.svg" target="_base">
   <rect id="button" ry="5" rx="5" y="6" x="6" height="38" width="38"
        fill="#f2f5e9" fill-opacity="0.5" stroke="#606060" stroke-width="1.0"/>
   <path id="arrow"
     d="M 11.500037,31.436501 C 11.940474,20.09759 22.043105,11.32322 32.158766,21.979434 L 37.068811,17.246167 C 37.068811,17.246167 37.088388,32 37.088388,32 L 22.160133,31.978069 C 22.160133,31.978069 26.997745,27.140456 26.997745,27.140456 C 18.528582,18.264221 13.291696,25.230495 11.500037,31.436501 z"
     style="fill:#404040;"/>
  </a>
 </g>
</svg>

<style type='text/css'>
<![CDATA[
[data-mouse-over-selected='false'] { opacity: 0.7; }
[data-mouse-over-selected='true']  { opacity: 1.0; }
]]>
</style>
<script type="application/ecmascript"><![CDATA[
document.addEventListener('DOMContentLoaded', (event) => {
  highlightEdges();
  highlightAdjacentNodes();
});
]]></script>
</svg>
