<?xml version="1.0" encoding="UTF-8" standalone="no"?>
<!DOCTYPE svg PUBLIC "-//W3C//DTD SVG 1.1//EN"
 "http://www.w3.org/Graphics/SVG/1.1/DTD/svg11.dtd">
<!-- Generated by graphviz version 14.0.2 (0)
 -->
<!-- Title: hiir::Downsampler2x4F64Avx::operator= Pages: 1 -->
<!--zoomable 302 -->

<svg id="main" version="1.1" xmlns="http://www.w3.org/2000/svg" xmlns:xlink="http://www.w3.org/1999/xlink" xml:space="preserve" onload="init(evt)">

<style type="text/css"><![CDATA[
.node, .edge {opacity: 0.7;}
.node.selected, .edge.selected {opacity: 1;}
.edge:hover path { stroke: red; }
.edge:hover polygon { stroke: red; fill: red; }
]]></style>

<defs>
  <circle id="rim" cx="0" cy="0" r="7"/>
  <circle id="rim2" cx="0" cy="0" r="3.5"/>
  <g id="zoomPlus">
    <use xlink:href="#rim" fill="#404040"><set attributeName="fill" to="#808080" begin="zoomplus.mouseover" end="zoomplus.mouseout"/></use>
    <path d="M-4,0h8M0,-4v8" fill="none" stroke="white" stroke-width="1.5" pointer-events="none"/>
  </g>
  <g id="zoomMin">
    <use xlink:href="#rim" fill="#404040"><set attributeName="fill" to="#808080" begin="zoomminus.mouseover" end="zoomminus.mouseout"/></use>
    <path d="M-4,0h8" fill="none" stroke="white" stroke-width="1.5" pointer-events="none"/>
  </g>
  <g id="arrowUp" transform="translate(30 24)">
    <use xlink:href="#rim"/>
    <path pointer-events="none" fill="none" stroke="white" stroke-width="1.5" d="M0,-3.0v7 M-2.5,-0.5L0,-3.0L2.5,-0.5"/>
  </g>
  <g id="arrowRight" transform="rotate(90) translate(36 -43)">
    <use xlink:href="#rim"/>
    <path pointer-events="none" fill="none" stroke="white" stroke-width="1.5" d="M0,-3.0v7 M-2.5,-0.5L0,-3.0L2.5,-0.5"/>
  </g>
  <g id="arrowDown" transform="rotate(180) translate(-30 -48)">
    <use xlink:href="#rim"/>
    <path pointer-events="none" fill="none" stroke="white" stroke-width="1.5" d="M0,-3.0v7 M-2.5,-0.5L0,-3.0L2.5,-0.5"/>
  </g>
  <g id="arrowLeft" transform="rotate(270) translate(-36 17)">
    <use xlink:href="#rim"/>
    <path pointer-events="none" fill="none" stroke="white" stroke-width="1.5" d="M0,-3.0v7 M-2.5,-0.5L0,-3.0L2.5,-0.5"/>
  </g>
  <g id="resetDef">
    <use xlink:href="#rim2" fill="#404040"><set attributeName="fill" to="#808080" begin="reset.mouseover" end="reset.mouseout"/></use>
  </g>
</defs>
<script type="application/ecmascript">
var viewWidth = 581;
var viewHeight = 302;
var sectionId = 'dynsection-9';
</script>
<script type="application/ecmascript" xlink:href="svg.min.js"/>
<svg id="graph" class="graph">
<g id="viewport">
<title>hiir::Downsampler2x4F64Avx::operator=</title>
<!-- Node1 -->
<g id="Node000001" class="node">
<title>Node1</title>
<g id="a_Node000001"><a xlink:title=" ">
<polygon fill="#999999" stroke="#666666" points="140.5,-165.5 0,-165.5 0,-135 140.5,-135 140.5,-165.5"/>
<text xml:space="preserve" text-anchor="start" x="8" y="-152" font-family="Helvetica,sans-Serif" font-size="10.00">hiir::Downsampler2x4F64Avx</text>
<text xml:space="preserve" text-anchor="middle" x="70.25" y="-140.75" font-family="Helvetica,sans-Serif" font-size="10.00">::operator=</text>
</a>
</g>
</g>
<!-- Node2 -->
<g id="Node000002" class="node">
<title>Node2</title>
<g id="a_Node000002"><a xlink:href="classhiir_1_1Downsampler2x4F64Avx.html#a5461aad1b00bdb74a1737989ea9d0f00" target="_top" xlink:title=" ">
<polygon fill="white" stroke="#666666" points="493.5,-293.5 353,-293.5 353,-263 493.5,-263 493.5,-293.5"/>
<text xml:space="preserve" text-anchor="start" x="361" y="-280" font-family="Helvetica,sans-Serif" font-size="10.00">hiir::Downsampler2x4F64Avx</text>
<text xml:space="preserve" text-anchor="middle" x="423.25" y="-268.75" font-family="Helvetica,sans-Serif" font-size="10.00">::clear_buffers</text>
</a>
</g>
</g>
<!-- Node1&#45;&gt;Node2 -->
<g id="edge1_Node000001_Node000002" class="edge">
<title>Node1&#45;&gt;Node2</title>
<g id="a_edge1_Node000001_Node000002"><a xlink:title=" ">
<path fill="none" stroke="#63b8ff" d="M79.8,-165.83C95.18,-192.09 130.28,-244.41 176.5,-266.25 227.56,-290.37 291.42,-292.78 341.25,-289.47"/>
<polygon fill="#63b8ff" stroke="#63b8ff" points="341.41,-292.97 351.11,-288.71 340.87,-285.99 341.41,-292.97"/>
</a>
</g>
</g>
<!-- Node3 -->
<g id="Node000003" class="node">
<title>Node3</title>
<g id="a_Node000003"><a xlink:href="classhiir_1_1Downsampler2x4F64Avx.html#a4e53bb5e7f287fc2c845df54ec6f2659" target="_top" xlink:title=" ">
<polygon fill="white" stroke="#666666" points="317,-257.5 176.5,-257.5 176.5,-227 317,-227 317,-257.5"/>
<text xml:space="preserve" text-anchor="start" x="184.5" y="-244" font-family="Helvetica,sans-Serif" font-size="10.00">hiir::Downsampler2x4F64Avx</text>
<text xml:space="preserve" text-anchor="middle" x="246.75" y="-232.75" font-family="Helvetica,sans-Serif" font-size="10.00">::Downsampler2x4F64Avx</text>
</a>
</g>
</g>
<!-- Node1&#45;&gt;Node3 -->
<g id="edge2_Node000001_Node000003" class="edge">
<title>Node1&#45;&gt;Node3</title>
<g id="a_edge2_Node000001_Node000003"><a xlink:title=" ">
<path fill="none" stroke="#63b8ff" d="M92.6,-165.83C113.31,-180.45 145.98,-202.25 176.5,-217.25 179.99,-218.96 183.63,-220.62 187.33,-222.22"/>
<polygon fill="#63b8ff" stroke="#63b8ff" points="185.88,-225.41 196.46,-225.96 188.53,-218.93 185.88,-225.41"/>
</a>
</g>
</g>
<!-- Node4 -->
<g id="Node000004" class="node">
<title>Node4</title>
<g id="a_Node000004"><a xlink:href="classhiir_1_1Downsampler2x4F64Avx.html#ad9f9a410f9f7639acaddc4a6b432f838" target="_top" xlink:title=" ">
<polygon fill="white" stroke="#666666" points="317,-208.5 176.5,-208.5 176.5,-178 317,-178 317,-208.5"/>
<text xml:space="preserve" text-anchor="start" x="184.5" y="-195" font-family="Helvetica,sans-Serif" font-size="10.00">hiir::Downsampler2x4F64Avx</text>
<text xml:space="preserve" text-anchor="middle" x="246.75" y="-183.75" font-family="Helvetica,sans-Serif" font-size="10.00">::process_block</text>
</a>
</g>
</g>
<!-- Node1&#45;&gt;Node4 -->
<g id="edge4_Node000001_Node000004" class="edge">
<title>Node1&#45;&gt;Node4</title>
<g id="a_edge4_Node000001_Node000004"><a xlink:title=" ">
<path fill="none" stroke="#63b8ff" d="M134.74,-165.9C146.53,-168.8 158.95,-171.86 171.03,-174.84"/>
<polygon fill="#63b8ff" stroke="#63b8ff" points="170,-178.19 180.54,-177.18 171.67,-171.39 170,-178.19"/>
</a>
</g>
</g>
<!-- Node6 -->
<g id="Node000006" class="node">
<title>Node6</title>
<g id="a_Node000006"><a xlink:href="classhiir_1_1Downsampler2x4F64Avx.html#acac38b5f39b90bd8324b690a7ac2e0bb" target="_top" xlink:title=" ">
<polygon fill="white" stroke="#666666" points="493.5,-183.5 353,-183.5 353,-153 493.5,-153 493.5,-183.5"/>
<text xml:space="preserve" text-anchor="start" x="361" y="-170" font-family="Helvetica,sans-Serif" font-size="10.00">hiir::Downsampler2x4F64Avx</text>
<text xml:space="preserve" text-anchor="middle" x="423.25" y="-158.75" font-family="Helvetica,sans-Serif" font-size="10.00">::process_sample</text>
</a>
</g>
</g>
<!-- Node1&#45;&gt;Node6 -->
<g id="edge14_Node000001_Node000006" class="edge">
<title>Node1&#45;&gt;Node6</title>
<g id="a_edge14_Node000001_Node000006"><a xlink:title=" ">
<path fill="none" stroke="#63b8ff" d="M140.6,-153.81C198.31,-156.77 280.56,-160.98 341.29,-164.1"/>
<polygon fill="#63b8ff" stroke="#63b8ff" points="341.07,-167.59 351.24,-164.61 341.43,-160.6 341.07,-167.59"/>
</a>
</g>
</g>
<!-- Node7 -->
<g id="Node000007" class="node">
<title>Node7</title>
<g id="a_Node000007"><a xlink:href="classhiir_1_1Downsampler2x4F64Avx.html#a57a6e47c4b33b43eb459fbcd9cb64c81" target="_top" xlink:title=" ">
<polygon fill="white" stroke="#666666" points="317,-122.5 176.5,-122.5 176.5,-92 317,-92 317,-122.5"/>
<text xml:space="preserve" text-anchor="start" x="184.5" y="-109" font-family="Helvetica,sans-Serif" font-size="10.00">hiir::Downsampler2x4F64Avx</text>
<text xml:space="preserve" text-anchor="middle" x="246.75" y="-97.75" font-family="Helvetica,sans-Serif" font-size="10.00">::process_block_split</text>
</a>
</g>
</g>
<!-- Node1&#45;&gt;Node7 -->
<g id="edge9_Node000001_Node000007" class="edge">
<title>Node1&#45;&gt;Node7</title>
<g id="a_edge9_Node000001_Node000007"><a xlink:title=" ">
<path fill="none" stroke="#63b8ff" d="M134.74,-134.6C146.53,-131.7 158.95,-128.64 171.03,-125.66"/>
<polygon fill="#63b8ff" stroke="#63b8ff" points="171.67,-129.11 180.54,-123.32 170,-122.31 171.67,-129.11"/>
</a>
</g>
</g>
<!-- Node8 -->
<g id="Node000008" class="node">
<title>Node8</title>
<g id="a_Node000008"><a xlink:href="classhiir_1_1Downsampler2x4F64Avx.html#a9988c949d17bd931c2a4983a28ec0db4" target="_top" xlink:title=" ">
<polygon fill="white" stroke="#666666" points="493.5,-79.5 353,-79.5 353,-49 493.5,-49 493.5,-79.5"/>
<text xml:space="preserve" text-anchor="start" x="361" y="-66" font-family="Helvetica,sans-Serif" font-size="10.00">hiir::Downsampler2x4F64Avx</text>
<text xml:space="preserve" text-anchor="middle" x="423.25" y="-54.75" font-family="Helvetica,sans-Serif" font-size="10.00">::process_sample_split</text>
</a>
</g>
</g>
<!-- Node1&#45;&gt;Node8 -->
<g id="edge15_Node000001_Node000008" class="edge">
<title>Node1&#45;&gt;Node8</title>
<g id="a_edge15_Node000001_Node000008"><a xlink:title=" ">
<path fill="none" stroke="#63b8ff" d="M89.57,-134.57C109.5,-118.53 143.01,-94.42 176.5,-83.25 229.49,-65.57 292.33,-60.98 341.21,-60.73"/>
<polygon fill="#63b8ff" stroke="#63b8ff" points="341.16,-64.23 351.17,-60.74 341.17,-57.23 341.16,-64.23"/>
</a>
</g>
</g>
<!-- Node9 -->
<g id="Node000009" class="node">
<title>Node9</title>
<g id="a_Node000009"><a xlink:href="classhiir_1_1Downsampler2x4F64Avx.html#a3a44938496bed99b151339e75f1e5f47" target="_top" xlink:title=" ">
<polygon fill="white" stroke="#666666" points="493.5,-30.5 353,-30.5 353,0 493.5,0 493.5,-30.5"/>
<text xml:space="preserve" text-anchor="start" x="361" y="-17" font-family="Helvetica,sans-Serif" font-size="10.00">hiir::Downsampler2x4F64Avx</text>
<text xml:space="preserve" text-anchor="middle" x="423.25" y="-5.75" font-family="Helvetica,sans-Serif" font-size="10.00">::set_coefs</text>
</a>
</g>
</g>
<!-- Node1&#45;&gt;Node9 -->
<g id="edge16_Node000001_Node000009" class="edge">
<title>Node1&#45;&gt;Node9</title>
<g id="a_edge16_Node000001_Node000009"><a xlink:title=" ">
<path fill="none" stroke="#63b8ff" d="M83.71,-134.83C101.76,-113.63 137.35,-75.99 176.5,-57.25 228.02,-32.59 291.73,-22.19 341.37,-17.9"/>
<polygon fill="#63b8ff" stroke="#63b8ff" points="341.5,-21.41 351.19,-17.13 340.95,-14.43 341.5,-21.41"/>
</a>
</g>
</g>
<!-- Node3&#45;&gt;Node2 -->
<g id="edge3_Node000003_Node000002" class="edge">
<title>Node3&#45;&gt;Node2</title>
<g id="a_edge3_Node000003_Node000002"><a xlink:title=" ">
<path fill="none" stroke="#63b8ff" d="M317.47,-256.63C325.34,-258.26 333.41,-259.92 341.41,-261.57"/>
<polygon fill="#63b8ff" stroke="#63b8ff" points="340.66,-264.99 351.16,-263.58 342.07,-258.14 340.66,-264.99"/>
</a>
</g>
</g>
<!-- Node5 -->
<g id="Node000005" class="node">
<title>Node5</title>
<g id="a_Node000005"><a xlink:href="Spc__Cpu_8h.html#a2569713fe026f7b153bba6e89d64498f" target="_top" xlink:title=" ">
<polygon fill="white" stroke="#666666" points="572.5,-134.88 529.5,-134.88 529.5,-115.62 572.5,-115.62 572.5,-134.88"/>
<text xml:space="preserve" text-anchor="middle" x="551" y="-121.38" font-family="Helvetica,sans-Serif" font-size="10.00">assert</text>
</a>
</g>
</g>
<!-- Node4&#45;&gt;Node5 -->
<g id="edge5_Node000004_Node000005" class="edge">
<title>Node4&#45;&gt;Node5</title>
<g id="a_edge5_Node000004_Node000005"><a xlink:title=" ">
<path fill="none" stroke="#63b8ff" d="M289.27,-208.91C340.53,-225.5 428.86,-244.9 493.5,-210.25 518.7,-196.74 534.57,-166.5 542.87,-145.98"/>
<polygon fill="#63b8ff" stroke="#63b8ff" points="546.14,-147.23 546.36,-136.64 539.58,-144.78 546.14,-147.23"/>
</a>
</g>
</g>
<!-- Node4&#45;&gt;Node6 -->
<g id="edge6_Node000004_Node000006" class="edge">
<title>Node4&#45;&gt;Node6</title>
<g id="a_edge6_Node000004_Node000006"><a xlink:title=" ">
<path fill="none" stroke="#63b8ff" d="M317.47,-183.26C325.34,-182.13 333.41,-180.98 341.41,-179.83"/>
<polygon fill="#63b8ff" stroke="#63b8ff" points="341.74,-183.32 351.14,-178.44 340.75,-176.39 341.74,-183.32"/>
</a>
</g>
</g>
<!-- Node6&#45;&gt;Node5 -->
<g id="edge7_Node000006_Node000005" class="edge">
<title>Node6&#45;&gt;Node5</title>
<g id="a_edge7_Node000006_Node000005"><a xlink:title=" ">
<path fill="none" stroke="#63b8ff" d="M470,-152.6C486.12,-147.09 503.86,-141.03 518.53,-136.01"/>
<polygon fill="#63b8ff" stroke="#63b8ff" points="519.31,-139.44 527.64,-132.89 517.05,-132.82 519.31,-139.44"/>
</a>
</g>
</g>
<!-- Node6&#45;&gt;Node6 -->
<g id="edge8_Node000006_Node000006" class="edge">
<title>Node6&#45;&gt;Node6</title>
<g id="a_edge8_Node000006_Node000006"><a xlink:title=" ">
<path fill="none" stroke="#63b8ff" d="M400.61,-183.99C395.99,-193.06 403.54,-201.5 423.25,-201.5 434.03,-201.5 441.17,-198.97 444.67,-195.2"/>
<polygon fill="#63b8ff" stroke="#63b8ff" points="448.13,-195.81 445.72,-185.49 441.17,-195.06 448.13,-195.81"/>
</a>
</g>
</g>
<!-- Node7&#45;&gt;Node5 -->
<g id="edge10_Node000007_Node000005" class="edge">
<title>Node7&#45;&gt;Node5</title>
<g id="a_edge10_Node000007_Node000005"><a xlink:title=" ">
<path fill="none" stroke="#63b8ff" d="M317.47,-111.4C380.5,-115.16 470.46,-120.51 517.89,-123.34"/>
<polygon fill="#63b8ff" stroke="#63b8ff" points="517.56,-126.82 527.75,-123.92 517.97,-119.84 517.56,-126.82"/>
</a>
</g>
</g>
<!-- Node7&#45;&gt;Node8 -->
<g id="edge11_Node000007_Node000008" class="edge">
<title>Node7&#45;&gt;Node8</title>
<g id="a_edge11_Node000007_Node000008"><a xlink:title=" ">
<path fill="none" stroke="#63b8ff" d="M311.24,-91.6C323.03,-88.7 335.45,-85.64 347.53,-82.66"/>
<polygon fill="#63b8ff" stroke="#63b8ff" points="348.17,-86.11 357.04,-80.32 346.5,-79.31 348.17,-86.11"/>
</a>
</g>
</g>
<!-- Node8&#45;&gt;Node5 -->
<g id="edge12_Node000008_Node000005" class="edge">
<title>Node8&#45;&gt;Node5</title>
<g id="a_edge12_Node000008_Node000005"><a xlink:title=" ">
<path fill="none" stroke="#63b8ff" d="M456.63,-79.96C475.82,-89.27 500.02,-101 518.96,-110.19"/>
<polygon fill="#63b8ff" stroke="#63b8ff" points="517.28,-113.27 527.8,-114.48 520.33,-106.97 517.28,-113.27"/>
</a>
</g>
</g>
<!-- Node8&#45;&gt;Node8 -->
<g id="edge13_Node000008_Node000008" class="edge">
<title>Node8&#45;&gt;Node8</title>
<g id="a_edge13_Node000008_Node000008"><a xlink:title=" ">
<path fill="none" stroke="#63b8ff" d="M400.61,-79.99C395.99,-89.06 403.54,-97.5 423.25,-97.5 434.03,-97.5 441.17,-94.97 444.67,-91.2"/>
<polygon fill="#63b8ff" stroke="#63b8ff" points="448.13,-91.81 445.72,-81.49 441.17,-91.06 448.13,-91.81"/>
</a>
</g>
</g>
<!-- Node9&#45;&gt;Node5 -->
<g id="edge17_Node000009_Node000005" class="edge">
<title>Node9&#45;&gt;Node5</title>
<g id="a_edge17_Node000009_Node000005"><a xlink:title=" ">
<path fill="none" stroke="#63b8ff" d="M478.61,-30.97C483.9,-33.62 488.97,-36.7 493.5,-40.25 515.54,-57.54 531.9,-85.89 541.2,-105.05"/>
<polygon fill="#63b8ff" stroke="#63b8ff" points="537.95,-106.37 545.32,-113.98 544.31,-103.44 537.95,-106.37"/>
</a>
</g>
</g>
</g>
</svg>

<g id="navigator" transform="translate(0 0)" fill="#404254">
  <rect fill="#f2f5e9" fill-opacity="0.5" stroke="#606060" stroke-width=".5" x="0" y="0" width="60" height="60"/>
  <use id="zoomplus" xlink:href="#zoomPlus" x="17" y="9" onmousedown="handleZoom(evt,'in')"/>
  <use id="zoomminus" xlink:href="#zoomMin" x="42" y="9" onmousedown="handleZoom(evt,'out')"/>
  <use id="reset" xlink:href="#resetDef" x="30" y="36" onmousedown="handleReset()"/>
   <use id="arrowup" xlink:href="#arrowUp" x="0" y="0" onmousedown="handlePan(0,-1)"/>
  <use id="arrowright" xlink:href="#arrowRight" x="0" y="0" onmousedown="handlePan(1,0)"/>
  <use id="arrowdown" xlink:href="#arrowDown" x="0" y="0" onmousedown="handlePan(0,1)"/>
  <use id="arrowleft" xlink:href="#arrowLeft" x="0" y="0" onmousedown="handlePan(-1,0)"/>
</g>
<svg viewBox="0 0 15 15" width="100%" height="30px" preserveAspectRatio="xMaxYMin meet">
 <g id="arrow_out" transform="scale(0.3 0.3)">
  <a xlink:href="classhiir_1_1Downsampler2x4F64Avx_a242e93c8d5a8b389d3c617327858ef31_cgraph_org.svg" target="_base">
   <rect id="button" ry="5" rx="5" y="6" x="6" height="38" width="38"
        fill="#f2f5e9" fill-opacity="0.5" stroke="#606060" stroke-width="1.0"/>
   <path id="arrow"
     d="M 11.500037,31.436501 C 11.940474,20.09759 22.043105,11.32322 32.158766,21.979434 L 37.068811,17.246167 C 37.068811,17.246167 37.088388,32 37.088388,32 L 22.160133,31.978069 C 22.160133,31.978069 26.997745,27.140456 26.997745,27.140456 C 18.528582,18.264221 13.291696,25.230495 11.500037,31.436501 z"
     style="fill:#404040;"/>
  </a>
 </g>
</svg>

<style type='text/css'>
<![CDATA[
[data-mouse-over-selected='false'] { opacity: 0.7; }
[data-mouse-over-selected='true']  { opacity: 1.0; }
]]>
</style>
<script type="application/ecmascript"><![CDATA[
document.addEventListener('DOMContentLoaded', (event) => {
  highlightEdges();
  highlightAdjacentNodes();
});
]]></script>
</svg>
