<?xml version="1.0" encoding="UTF-8" standalone="no"?>
<!DOCTYPE svg PUBLIC "-//W3C//DTD SVG 1.1//EN"
 "http://www.w3.org/Graphics/SVG/1.1/DTD/svg11.dtd">
<!-- Generated by graphviz version 14.0.2 (0)
 -->
<!-- Title: juce::ActiveXControlComponent::Pimpl::nativeScaleFactorChanged Pages: 1 -->
<svg width="749pt" height="212pt"
 viewBox="0.00 0.00 749.00 212.00" xmlns="http://www.w3.org/2000/svg" xmlns:xlink="http://www.w3.org/1999/xlink">
<g id="graph0" class="graph" transform="scale(1 1) rotate(0) translate(4 208.25)">
<title>juce::ActiveXControlComponent::Pimpl::nativeScaleFactorChanged</title>
<!-- Node1 -->
<g id="Node000001" class="node">
<title>Node1</title>
<g id="a_Node000001"><a xlink:title=" ">
<polygon fill="#999999" stroke="#666666" points="166.75,-116.88 0,-116.88 0,-86.38 166.75,-86.38 166.75,-116.88"/>
<text xml:space="preserve" text-anchor="start" x="8" y="-103.38" font-family="Helvetica,sans-Serif" font-size="10.00">juce::ActiveXControlComponent</text>
<text xml:space="preserve" text-anchor="middle" x="83.38" y="-92.12" font-family="Helvetica,sans-Serif" font-size="10.00">::Pimpl::nativeScaleFactorChanged</text>
</a>
</g>
</g>
<!-- Node2 -->
<g id="Node000002" class="node">
<title>Node2</title>
<g id="a_Node000002"><a xlink:href="classjuce_1_1ActiveXControlComponent_1_1Pimpl.html#a8eba0b7078def5da306b1c025d6f5fd6" target="_top" xlink:title=" ">
<polygon fill="white" stroke="#666666" points="374.75,-116.88 202.75,-116.88 202.75,-86.38 374.75,-86.38 374.75,-116.88"/>
<text xml:space="preserve" text-anchor="start" x="210.75" y="-103.38" font-family="Helvetica,sans-Serif" font-size="10.00">juce::ActiveXControlComponent</text>
<text xml:space="preserve" text-anchor="middle" x="288.75" y="-92.12" font-family="Helvetica,sans-Serif" font-size="10.00">::Pimpl::componentMovedOrResized</text>
</a>
</g>
</g>
<!-- Node1&#45;&gt;Node2 -->
<g id="edge1_Node000001_Node000002" class="edge">
<title>Node1&#45;&gt;Node2</title>
<g id="a_edge1_Node000001_Node000002"><a xlink:title=" ">
<path fill="none" stroke="#63b8ff" d="M167.1,-101.62C175.02,-101.62 183.1,-101.62 191.14,-101.62"/>
<polygon fill="#63b8ff" stroke="#63b8ff" points="190.94,-105.13 200.94,-101.63 190.94,-98.13 190.94,-105.13"/>
</a>
</g>
</g>
<!-- Node3 -->
<g id="Node000003" class="node">
<title>Node3</title>
<g id="a_Node000003"><a xlink:href="classjuce_1_1ActiveXControlComponent_1_1Pimpl.html#abdd8d395f49754d97eb2af8ac134f159" target="_top" xlink:title=" ">
<polygon fill="white" stroke="#666666" points="564,-116.88 410.75,-116.88 410.75,-86.38 564,-86.38 564,-116.88"/>
<text xml:space="preserve" text-anchor="start" x="418.75" y="-103.38" font-family="Helvetica,sans-Serif" font-size="10.00">juce::ActiveXControlComponent</text>
<text xml:space="preserve" text-anchor="middle" x="487.38" y="-92.12" font-family="Helvetica,sans-Serif" font-size="10.00">::Pimpl::setControlBounds</text>
</a>
</g>
</g>
<!-- Node2&#45;&gt;Node3 -->
<g id="edge2_Node000002_Node000003" class="edge">
<title>Node2&#45;&gt;Node3</title>
<g id="a_edge2_Node000002_Node000003"><a xlink:title=" ">
<path fill="none" stroke="#63b8ff" d="M375.13,-101.62C383,-101.62 390.98,-101.62 398.87,-101.62"/>
<polygon fill="#63b8ff" stroke="#63b8ff" points="398.82,-105.13 408.82,-101.63 398.82,-98.13 398.82,-105.13"/>
</a>
</g>
</g>
<!-- Node4 -->
<g id="Node000004" class="node">
<title>Node4</title>
<g id="a_Node000004"><a xlink:href="classjuce_1_1Rectangle.html#af0576a54be467c9c7eb3bd63ea802a26" target="_top" xlink:title=" ">
<polygon fill="white" stroke="#666666" points="734.5,-204.25 606,-204.25 606,-185 734.5,-185 734.5,-204.25"/>
<text xml:space="preserve" text-anchor="middle" x="670.25" y="-190.75" font-family="Helvetica,sans-Serif" font-size="10.00">juce::Rectangle::getHeight</text>
</a>
</g>
</g>
<!-- Node3&#45;&gt;Node4 -->
<g id="edge3_Node000003_Node000004" class="edge">
<title>Node3&#45;&gt;Node4</title>
<g id="a_edge3_Node000003_Node000004"><a xlink:title=" ">
<path fill="none" stroke="#63b8ff" d="M507.35,-117.32C528.65,-134.23 564.87,-160.81 600,-176.62 603.5,-178.2 607.17,-179.66 610.92,-181.01"/>
<polygon fill="#63b8ff" stroke="#63b8ff" points="609.55,-184.24 620.14,-184.04 611.73,-177.59 609.55,-184.24"/>
</a>
</g>
</g>
<!-- Node5 -->
<g id="Node000005" class="node">
<title>Node5</title>
<g id="a_Node000005"><a xlink:href="classjuce_1_1Rectangle.html#a73169c838bc653d9309beedc6618cbfe" target="_top" xlink:title=" ">
<polygon fill="white" stroke="#666666" points="732.62,-167.25 607.88,-167.25 607.88,-148 732.62,-148 732.62,-167.25"/>
<text xml:space="preserve" text-anchor="middle" x="670.25" y="-153.75" font-family="Helvetica,sans-Serif" font-size="10.00">juce::Rectangle::getWidth</text>
</a>
</g>
</g>
<!-- Node3&#45;&gt;Node5 -->
<g id="edge4_Node000003_Node000005" class="edge">
<title>Node3&#45;&gt;Node5</title>
<g id="a_edge4_Node000003_Node000005"><a xlink:title=" ">
<path fill="none" stroke="#63b8ff" d="M532.14,-117.36C552.63,-124.51 577.45,-132.87 600,-139.62 605.73,-141.34 611.75,-143.05 617.75,-144.69"/>
<polygon fill="#63b8ff" stroke="#63b8ff" points="616.44,-147.96 627,-147.17 618.25,-141.2 616.44,-147.96"/>
</a>
</g>
</g>
<!-- Node6 -->
<g id="Node000006" class="node">
<title>Node6</title>
<g id="a_Node000006"><a xlink:href="classjuce_1_1Rectangle.html#a30d7087a3d380a470369419fb20f289c" target="_top" xlink:title=" ">
<polygon fill="white" stroke="#666666" points="723.62,-130.25 616.88,-130.25 616.88,-111 723.62,-111 723.62,-130.25"/>
<text xml:space="preserve" text-anchor="middle" x="670.25" y="-116.75" font-family="Helvetica,sans-Serif" font-size="10.00">juce::Rectangle::getX</text>
</a>
</g>
</g>
<!-- Node3&#45;&gt;Node6 -->
<g id="edge5_Node000003_Node000006" class="edge">
<title>Node3&#45;&gt;Node6</title>
<g id="a_edge5_Node000003_Node000006"><a xlink:title=" ">
<path fill="none" stroke="#63b8ff" d="M564.3,-109.6C577.9,-111.03 591.96,-112.51 605.2,-113.9"/>
<polygon fill="#63b8ff" stroke="#63b8ff" points="604.77,-117.37 615.08,-114.93 605.5,-110.41 604.77,-117.37"/>
</a>
</g>
</g>
<!-- Node7 -->
<g id="Node000007" class="node">
<title>Node7</title>
<g id="a_Node000007"><a xlink:href="classjuce_1_1Rectangle.html#ab609583763c1c6b04208143088b124de" target="_top" xlink:title=" ">
<polygon fill="white" stroke="#666666" points="723.62,-93.25 616.88,-93.25 616.88,-74 723.62,-74 723.62,-93.25"/>
<text xml:space="preserve" text-anchor="middle" x="670.25" y="-79.75" font-family="Helvetica,sans-Serif" font-size="10.00">juce::Rectangle::getY</text>
</a>
</g>
</g>
<!-- Node3&#45;&gt;Node7 -->
<g id="edge6_Node000003_Node000007" class="edge">
<title>Node3&#45;&gt;Node7</title>
<g id="a_edge6_Node000003_Node000007"><a xlink:title=" ">
<path fill="none" stroke="#63b8ff" d="M564.3,-94.07C577.9,-92.72 591.96,-91.32 605.2,-90"/>
<polygon fill="#63b8ff" stroke="#63b8ff" points="605.47,-93.49 615.08,-89.02 604.78,-86.52 605.47,-93.49"/>
</a>
</g>
</g>
<!-- Node8 -->
<g id="Node000008" class="node">
<title>Node8</title>
<g id="a_Node000008"><a xlink:href="classjuce_1_1Rectangle.html#a38a89430c24fe081a9502db5e4f2ae74" target="_top" xlink:title=" ">
<polygon fill="#fff0f0" stroke="red" points="732.62,-56.25 607.88,-56.25 607.88,-37 732.62,-37 732.62,-56.25"/>
<text xml:space="preserve" text-anchor="middle" x="670.25" y="-42.75" font-family="Helvetica,sans-Serif" font-size="10.00">juce::Rectangle::toDouble</text>
</a>
</g>
</g>
<!-- Node3&#45;&gt;Node8 -->
<g id="edge7_Node000003_Node000008" class="edge">
<title>Node3&#45;&gt;Node8</title>
<g id="a_edge7_Node000003_Node000008"><a xlink:title=" ">
<path fill="none" stroke="#63b8ff" d="M533.51,-85.91C553.75,-79.06 577.97,-71.13 600,-64.62 605.73,-62.93 611.76,-61.24 617.76,-59.61"/>
<polygon fill="#63b8ff" stroke="#63b8ff" points="618.26,-63.1 627.02,-57.14 616.45,-56.33 618.26,-63.1"/>
</a>
</g>
</g>
<!-- Node10 -->
<g id="Node000010" class="node">
<title>Node10</title>
<g id="a_Node000010"><a xlink:href="classjuce_1_1Rectangle.html#a4f5fc754b8b371ffa0c61eb5c4ad43e0" target="_top" xlink:title=" ">
<polygon fill="#fff0f0" stroke="red" points="740.5,-19.25 600,-19.25 600,0 740.5,0 740.5,-19.25"/>
<text xml:space="preserve" text-anchor="middle" x="670.25" y="-5.75" font-family="Helvetica,sans-Serif" font-size="10.00">juce::Rectangle::toNearestInt</text>
</a>
</g>
</g>
<!-- Node3&#45;&gt;Node10 -->
<g id="edge8_Node000003_Node000010" class="edge">
<title>Node3&#45;&gt;Node10</title>
<g id="a_edge8_Node000003_Node000010"><a xlink:title=" ">
<path fill="none" stroke="#63b8ff" d="M507.38,-86.15C528.72,-69.48 564.97,-43.26 600,-27.62 603.57,-26.03 607.3,-24.56 611.11,-23.2"/>
<polygon fill="#63b8ff" stroke="#63b8ff" points="612.1,-26.56 620.53,-20.14 609.93,-19.9 612.1,-26.56"/>
</a>
</g>
</g>
</g>
</svg>
