<?xml version="1.0" encoding="UTF-8" standalone="no"?>
<!DOCTYPE svg PUBLIC "-//W3C//DTD SVG 1.1//EN"
 "http://www.w3.org/Graphics/SVG/1.1/DTD/svg11.dtd">
<!-- Generated by graphviz version 14.0.2 (0)
 -->
<!-- Title: juce::ResizableEdgeComponent::isVertical Pages: 1 -->
<svg width="535pt" height="161pt"
 viewBox="0.00 0.00 535.00 161.00" xmlns="http://www.w3.org/2000/svg" xmlns:xlink="http://www.w3.org/1999/xlink">
<g id="graph0" class="graph" transform="scale(1 1) rotate(0) translate(4 156.5)">
<title>juce::ResizableEdgeComponent::isVertical</title>
<!-- Node1 -->
<g id="Node000001" class="node">
<title>Node1</title>
<g id="a_Node000001"><a xlink:title=" ">
<polygon fill="#999999" stroke="#666666" points="527.25,-91.5 375.5,-91.5 375.5,-61 527.25,-61 527.25,-91.5"/>
<text xml:space="preserve" text-anchor="start" x="383.5" y="-78" font-family="Helvetica,sans-Serif" font-size="10.00">juce::ResizableEdgeComponent</text>
<text xml:space="preserve" text-anchor="middle" x="451.38" y="-66.75" font-family="Helvetica,sans-Serif" font-size="10.00">::isVertical</text>
</a>
</g>
</g>
<!-- Node1&#45;&gt;Node1 -->
<g id="edge1_Node000001_Node000001" class="edge">
<title>Node1&#45;&gt;Node1</title>
<g id="a_edge1_Node000001_Node000001"><a xlink:title=" ">
<path fill="none" stroke="#63b8ff" d="M482.86,-103.2C477.71,-106.97 467.22,-109.5 451.38,-109.5 422.41,-109.5 411.32,-101.06 418.11,-91.99"/>
<polygon fill="#63b8ff" stroke="#63b8ff" points="486.29,-103.91 484.41,-93.48 479.38,-102.81 486.29,-103.91"/>
</a>
</g>
</g>
<!-- Node2 -->
<g id="Node000002" class="node">
<title>Node2</title>
<g id="a_Node000002"><a xlink:href="classjuce_1_1ResizableEdgeComponent.html#a98a103538a799d34e657ca650939ebd7" target="_top" xlink:title=" ">
<polygon fill="white" stroke="#666666" points="339.5,-134.5 187.75,-134.5 187.75,-104 339.5,-104 339.5,-134.5"/>
<text xml:space="preserve" text-anchor="start" x="195.75" y="-121" font-family="Helvetica,sans-Serif" font-size="10.00">juce::ResizableEdgeComponent</text>
<text xml:space="preserve" text-anchor="middle" x="263.62" y="-109.75" font-family="Helvetica,sans-Serif" font-size="10.00">::paint</text>
</a>
</g>
</g>
<!-- Node1&#45;&gt;Node2 -->
<g id="edge2_Node000001_Node000002" class="edge">
<title>Node1&#45;&gt;Node2</title>
<g id="a_edge2_Node000001_Node000002"><a xlink:title=" ">
<path fill="none" stroke="#63b8ff" d="M371.32,-94.55C358.44,-97.53 345.19,-100.6 332.6,-103.51"/>
<polygon fill="#63b8ff" stroke="#63b8ff" points="372.1,-97.96 381.05,-92.3 370.52,-91.14 372.1,-97.96"/>
</a>
</g>
</g>
<!-- Node3 -->
<g id="Node000003" class="node">
<title>Node3</title>
<g id="a_Node000003"><a xlink:href="classjuce_1_1ResizableEdgeComponent.html#a2648d3758bff7865186b83bf4c50f573" target="_top" xlink:title=" ">
<polygon fill="white" stroke="#666666" points="151.75,-112.5 0,-112.5 0,-82 151.75,-82 151.75,-112.5"/>
<text xml:space="preserve" text-anchor="start" x="8" y="-99" font-family="Helvetica,sans-Serif" font-size="10.00">juce::ResizableEdgeComponent</text>
<text xml:space="preserve" text-anchor="middle" x="75.88" y="-87.75" font-family="Helvetica,sans-Serif" font-size="10.00">::~ResizableEdgeComponent</text>
</a>
</g>
</g>
<!-- Node1&#45;&gt;Node3 -->
<g id="edge7_Node000001_Node000003" class="edge">
<title>Node1&#45;&gt;Node3</title>
<g id="a_edge7_Node000001_Node000003"><a xlink:title=" ">
<path fill="none" stroke="#63b8ff" d="M363.96,-81.11C299.9,-84.71 213.46,-89.57 152.21,-93.01"/>
<polygon fill="#63b8ff" stroke="#63b8ff" points="363.94,-84.62 373.73,-80.56 363.55,-77.63 363.94,-84.62"/>
</a>
</g>
</g>
<!-- Node4 -->
<g id="Node000004" class="node">
<title>Node4</title>
<g id="a_Node000004"><a xlink:href="classjuce_1_1ResizableEdgeComponent.html#a8d73046b25fc95e7376deb36cd8fa38d" target="_top" xlink:title=" ">
<polygon fill="white" stroke="#666666" points="339.5,-30.5 187.75,-30.5 187.75,0 339.5,0 339.5,-30.5"/>
<text xml:space="preserve" text-anchor="start" x="195.75" y="-17" font-family="Helvetica,sans-Serif" font-size="10.00">juce::ResizableEdgeComponent</text>
<text xml:space="preserve" text-anchor="middle" x="263.62" y="-5.75" font-family="Helvetica,sans-Serif" font-size="10.00">::ResizableEdgeComponent</text>
</a>
</g>
</g>
<!-- Node1&#45;&gt;Node4 -->
<g id="edge5_Node000001_Node000004" class="edge">
<title>Node1&#45;&gt;Node4</title>
<g id="a_edge5_Node000001_Node000004"><a xlink:title=" ">
<path fill="none" stroke="#63b8ff" d="M391.84,-57.03C366.22,-48.61 336.54,-38.87 312.3,-30.91"/>
<polygon fill="#63b8ff" stroke="#63b8ff" points="390.51,-60.27 401.1,-60.07 392.69,-53.62 390.51,-60.27"/>
</a>
</g>
</g>
<!-- Node2&#45;&gt;Node2 -->
<g id="edge3_Node000002_Node000002" class="edge">
<title>Node2&#45;&gt;Node2</title>
<g id="a_edge3_Node000002_Node000002"><a xlink:title=" ">
<path fill="none" stroke="#63b8ff" d="M295.11,-146.2C289.96,-149.97 279.47,-152.5 263.62,-152.5 234.66,-152.5 223.57,-144.06 230.36,-134.99"/>
<polygon fill="#63b8ff" stroke="#63b8ff" points="298.54,-146.91 296.66,-136.48 291.63,-145.81 298.54,-146.91"/>
</a>
</g>
</g>
<!-- Node2&#45;&gt;Node3 -->
<g id="edge4_Node000002_Node000003" class="edge">
<title>Node2&#45;&gt;Node3</title>
<g id="a_edge4_Node000002_Node000003"><a xlink:title=" ">
<path fill="none" stroke="#63b8ff" d="M176.04,-108.99C168,-108.04 159.89,-107.08 151.96,-106.14"/>
<polygon fill="#63b8ff" stroke="#63b8ff" points="175.5,-112.45 185.84,-110.16 176.32,-105.5 175.5,-112.45"/>
</a>
</g>
</g>
<!-- Node4&#45;&gt;Node4 -->
<g id="edge6_Node000004_Node000004" class="edge">
<title>Node4&#45;&gt;Node4</title>
<g id="a_edge6_Node000004_Node000004"><a xlink:title=" ">
<path fill="none" stroke="#63b8ff" d="M295.11,-42.2C289.96,-45.97 279.47,-48.5 263.62,-48.5 234.66,-48.5 223.57,-40.06 230.36,-30.99"/>
<polygon fill="#63b8ff" stroke="#63b8ff" points="298.54,-42.91 296.66,-32.48 291.63,-41.81 298.54,-42.91"/>
</a>
</g>
</g>
</g>
</svg>
