<?xml version="1.0" encoding="UTF-8" standalone="no"?>
<!DOCTYPE svg PUBLIC "-//W3C//DTD SVG 1.1//EN"
 "http://www.w3.org/Graphics/SVG/1.1/DTD/svg11.dtd">
<!-- Generated by graphviz version 14.0.2 (0)
 -->
<!-- Title: CarlaPipeCommon::unlockPipe Pages: 1 -->
<svg width="601pt" height="101pt"
 viewBox="0.00 0.00 601.00 101.00" xmlns="http://www.w3.org/2000/svg" xmlns:xlink="http://www.w3.org/1999/xlink">
<g id="graph0" class="graph" transform="scale(1 1) rotate(0) translate(4 96.88)">
<title>CarlaPipeCommon::unlockPipe</title>
<!-- Node1 -->
<g id="Node000001" class="node">
<title>Node1</title>
<g id="a_Node000001"><a xlink:title=" ">
<polygon fill="#999999" stroke="#666666" points="592.75,-40.25 443.25,-40.25 443.25,-21 592.75,-21 592.75,-40.25"/>
<text xml:space="preserve" text-anchor="middle" x="518" y="-26.75" font-family="Helvetica,sans-Serif" font-size="10.00">CarlaPipeCommon::unlockPipe</text>
</a>
</g>
</g>
<!-- Node2 -->
<g id="Node000002" class="node">
<title>Node2</title>
<g id="a_Node000002"><a xlink:href="group__CarlaUtilsAPI.html#gaa6b2d11431c4087134cf5a5ac38379ba" target="_top" xlink:title=" ">
<polygon fill="white" stroke="#666666" points="407.25,-67.88 293,-67.88 293,-37.38 407.25,-37.38 407.25,-67.88"/>
<text xml:space="preserve" text-anchor="start" x="301" y="-54.38" font-family="Helvetica,sans-Serif" font-size="10.00">carla_pipe_client_sync</text>
<text xml:space="preserve" text-anchor="middle" x="350.12" y="-43.12" font-family="Helvetica,sans-Serif" font-size="10.00">_and_unlock</text>
</a>
</g>
</g>
<!-- Node1&#45;&gt;Node2 -->
<g id="edge1_Node000001_Node000002" class="edge">
<title>Node1&#45;&gt;Node2</title>
<g id="a_edge1_Node000001_Node000002"><a xlink:title=" ">
<path fill="none" stroke="#63b8ff" d="M431.59,-41.95C423.37,-43.04 415.18,-44.13 407.35,-45.17"/>
<polygon fill="#63b8ff" stroke="#63b8ff" points="431.84,-45.45 441.29,-40.67 430.92,-38.51 431.84,-45.45"/>
</a>
</g>
</g>
<!-- Node7 -->
<g id="Node000007" class="node">
<title>Node7</title>
<g id="a_Node000007"><a xlink:href="tests_8old_2CarlaPipeUtils_8cpp.html#ac0f2228420376f4db7e1274f2b41667c" target="_top" xlink:title=" ">
<polygon fill="white" stroke="#666666" points="368.62,-19.25 331.62,-19.25 331.62,0 368.62,0 368.62,-19.25"/>
<text xml:space="preserve" text-anchor="middle" x="350.12" y="-5.75" font-family="Helvetica,sans-Serif" font-size="10.00">main</text>
</a>
</g>
</g>
<!-- Node1&#45;&gt;Node7 -->
<g id="edge5_Node000001_Node000007" class="edge">
<title>Node1&#45;&gt;Node7</title>
<g id="a_edge5_Node000001_Node000007"><a xlink:title=" ">
<path fill="none" stroke="#63b8ff" d="M431.5,-19.8C407.72,-16.79 384.21,-13.81 368.82,-11.87"/>
<polygon fill="#63b8ff" stroke="#63b8ff" points="430.93,-23.26 441.29,-21.04 431.81,-16.31 430.93,-23.26"/>
</a>
</g>
</g>
<!-- Node3 -->
<g id="Node000003" class="node">
<title>Node3</title>
<g id="a_Node000003"><a xlink:href="group__CarlaUtilsAPI.html#ga309fb5044eadf70a48145995b5ddbe99" target="_top" xlink:title=" ">
<polygon fill="white" stroke="#666666" points="257,-67.88 142.75,-67.88 142.75,-37.38 257,-37.38 257,-67.88"/>
<text xml:space="preserve" text-anchor="start" x="150.75" y="-54.38" font-family="Helvetica,sans-Serif" font-size="10.00">carla_pipe_client_flush</text>
<text xml:space="preserve" text-anchor="middle" x="199.88" y="-43.12" font-family="Helvetica,sans-Serif" font-size="10.00">_and_unlock</text>
</a>
</g>
</g>
<!-- Node2&#45;&gt;Node3 -->
<g id="edge2_Node000002_Node000003" class="edge">
<title>Node2&#45;&gt;Node3</title>
<g id="a_edge2_Node000002_Node000003"><a xlink:title=" ">
<path fill="none" stroke="#63b8ff" d="M281.34,-52.62C273.26,-52.62 265.08,-52.62 257.19,-52.62"/>
<polygon fill="#63b8ff" stroke="#63b8ff" points="281.14,-56.13 291.14,-52.63 281.14,-49.13 281.14,-56.13"/>
</a>
</g>
</g>
<!-- Node4 -->
<g id="Node000004" class="node">
<title>Node4</title>
<g id="a_Node000004"><a xlink:href="JackBridgeExport_8cpp.html#aa0d566ea1619f274959879fb9d6ffc53" target="_top" xlink:title=" ">
<polygon fill="#fff0f0" stroke="red" points="106.75,-92.88 0,-92.88 0,-62.38 106.75,-62.38 106.75,-92.88"/>
<text xml:space="preserve" text-anchor="start" x="8" y="-79.38" font-family="Helvetica,sans-Serif" font-size="10.00">jackbridge_discovery</text>
<text xml:space="preserve" text-anchor="middle" x="53.38" y="-68.12" font-family="Helvetica,sans-Serif" font-size="10.00">_pipe_destroy</text>
</a>
</g>
</g>
<!-- Node3&#45;&gt;Node4 -->
<g id="edge3_Node000003_Node000004" class="edge">
<title>Node3&#45;&gt;Node4</title>
<g id="a_edge3_Node000003_Node000004"><a xlink:title=" ">
<path fill="none" stroke="#63b8ff" d="M131.47,-64.29C123.24,-65.71 114.93,-67.15 106.96,-68.53"/>
<polygon fill="#63b8ff" stroke="#63b8ff" points="131.85,-67.77 141.1,-62.62 130.65,-60.88 131.85,-67.77"/>
</a>
</g>
</g>
<!-- Node6 -->
<g id="Node000006" class="node">
<title>Node6</title>
<g id="a_Node000006"><a xlink:href="JackBridgeExport_8cpp.html#a1f8bedc6f770194595bfc02e395bdabb" target="_top" xlink:title=" ">
<polygon fill="#fff0f0" stroke="red" points="106.75,-43.88 0,-43.88 0,-13.37 106.75,-13.37 106.75,-43.88"/>
<text xml:space="preserve" text-anchor="start" x="8" y="-30.38" font-family="Helvetica,sans-Serif" font-size="10.00">jackbridge_discovery</text>
<text xml:space="preserve" text-anchor="middle" x="53.38" y="-19.12" font-family="Helvetica,sans-Serif" font-size="10.00">_pipe_message</text>
</a>
</g>
</g>
<!-- Node3&#45;&gt;Node6 -->
<g id="edge4_Node000003_Node000006" class="edge">
<title>Node3&#45;&gt;Node6</title>
<g id="a_edge4_Node000003_Node000006"><a xlink:title=" ">
<path fill="none" stroke="#63b8ff" d="M131.47,-41.43C123.24,-40.06 114.93,-38.68 106.96,-37.36"/>
<polygon fill="#63b8ff" stroke="#63b8ff" points="130.66,-44.84 141.1,-43.03 131.81,-37.94 130.66,-44.84"/>
</a>
</g>
</g>
</g>
</svg>
