<?xml version="1.0" encoding="UTF-8" standalone="no"?>
<!DOCTYPE svg PUBLIC "-//W3C//DTD SVG 1.1//EN"
 "http://www.w3.org/Graphics/SVG/1.1/DTD/svg11.dtd">
<!-- Generated by graphviz version 14.0.2 (0)
 -->
<!-- Title: hiir::PhaseHalfPi2F64Sse2::clear_buffers Pages: 1 -->
<svg width="477pt" height="333pt"
 viewBox="0.00 0.00 477.00 333.00" xmlns="http://www.w3.org/2000/svg" xmlns:xlink="http://www.w3.org/1999/xlink">

<svg id="main" version="1.1" xmlns="http://www.w3.org/2000/svg" xmlns:xlink="http://www.w3.org/1999/xlink" xml:space="preserve">

<style type="text/css"><![CDATA[
.node, .edge {opacity: 0.7;}
.node.selected, .edge.selected {opacity: 1;}
.edge:hover path { stroke: red; }
.edge:hover polygon { stroke: red; fill: red; }
]]></style>
<script type="application/ecmascript" xlink:href="svg.min.js"/>
<svg id="graph" class="graph">
<g id="graph0" class="graph" transform="scale(1 1) rotate(0) translate(4 328.5)">
<title>hiir::PhaseHalfPi2F64Sse2::clear_buffers</title>
<!-- Node1 -->
<g id="Node000001" class="node">
<title>Node1</title>
<g id="a_Node000001"><a xlink:title=" ">
<polygon fill="#999999" stroke="#666666" points="468.75,-222.5 336.5,-222.5 336.5,-192 468.75,-192 468.75,-222.5"/>
<text xml:space="preserve" text-anchor="start" x="344.5" y="-209" font-family="Helvetica,sans-Serif" font-size="10.00">hiir::PhaseHalfPi2F64Sse2</text>
<text xml:space="preserve" text-anchor="middle" x="402.62" y="-197.75" font-family="Helvetica,sans-Serif" font-size="10.00">::clear_buffers</text>
</a>
</g>
</g>
<!-- Node2 -->
<g id="Node000002" class="node">
<title>Node2</title>
<g id="a_Node000002"><a xlink:href="classhiir_1_1PhaseHalfPi2F64Sse2.html#a4198d9169fb8495dd0f88922dbd7755f" target="_top" xlink:title=" ">
<polygon fill="white" stroke="#666666" points="132.25,-324.5 0,-324.5 0,-294 132.25,-294 132.25,-324.5"/>
<text xml:space="preserve" text-anchor="start" x="8" y="-311" font-family="Helvetica,sans-Serif" font-size="10.00">hiir::PhaseHalfPi2F64Sse2</text>
<text xml:space="preserve" text-anchor="middle" x="66.12" y="-299.75" font-family="Helvetica,sans-Serif" font-size="10.00">::operator=</text>
</a>
</g>
</g>
<!-- Node1&#45;&gt;Node2 -->
<g id="edge1_Node000001_Node000002" class="edge">
<title>Node1&#45;&gt;Node2</title>
<g id="a_edge1_Node000001_Node000002"><a xlink:title=" ">
<path fill="none" stroke="#63b8ff" d="M339.41,-226.22C275.81,-245.62 178.16,-275.39 118.72,-293.52"/>
<polygon fill="#63b8ff" stroke="#63b8ff" points="340.1,-229.67 348.64,-223.41 338.06,-222.97 340.1,-229.67"/>
</a>
</g>
</g>
<!-- Node3 -->
<g id="Node000003" class="node">
<title>Node3</title>
<g id="a_Node000003"><a xlink:href="classhiir_1_1PhaseHalfPi2F64Sse2.html#a66b520b794ea85d6862e46f691f9cdcf" target="_top" xlink:title=" ">
<polygon fill="white" stroke="#666666" points="300.5,-201.5 168.25,-201.5 168.25,-171 300.5,-171 300.5,-201.5"/>
<text xml:space="preserve" text-anchor="start" x="176.25" y="-188" font-family="Helvetica,sans-Serif" font-size="10.00">hiir::PhaseHalfPi2F64Sse2</text>
<text xml:space="preserve" text-anchor="middle" x="234.38" y="-176.75" font-family="Helvetica,sans-Serif" font-size="10.00">::PhaseHalfPi2F64Sse2</text>
</a>
</g>
</g>
<!-- Node1&#45;&gt;Node3 -->
<g id="edge2_Node000001_Node000003" class="edge">
<title>Node1&#45;&gt;Node3</title>
<g id="a_edge2_Node000001_Node000003"><a xlink:title=" ">
<path fill="none" stroke="#63b8ff" d="M325.09,-197.58C317.03,-196.56 308.88,-195.54 300.96,-194.53"/>
<polygon fill="#63b8ff" stroke="#63b8ff" points="324.53,-201.04 334.89,-198.82 325.41,-194.1 324.53,-201.04"/>
</a>
</g>
</g>
<!-- Node3&#45;&gt;Node2 -->
<g id="edge5_Node000003_Node000002" class="edge">
<title>Node3&#45;&gt;Node2</title>
<g id="a_edge5_Node000003_Node000002"><a xlink:title=" ">
<path fill="none" stroke="#63b8ff" d="M211.1,-209.93C186.89,-235.27 149.38,-273.32 132.25,-284.25 126.84,-287.7 120.88,-290.8 114.83,-293.54"/>
<polygon fill="#63b8ff" stroke="#63b8ff" points="213.36,-212.63 217.71,-202.97 208.28,-207.81 213.36,-212.63"/>
</a>
</g>
</g>
<!-- Node4 -->
<g id="Node000004" class="node">
<title>Node4</title>
<g id="a_Node000004"><a xlink:href="classhiir_1_1PhaseHalfPi2F64Sse2.html#a2c86fa56d11940e74024aed51fcb59bd" target="_top" xlink:title=" ">
<polygon fill="white" stroke="#666666" points="132.25,-275.5 0,-275.5 0,-245 132.25,-245 132.25,-275.5"/>
<text xml:space="preserve" text-anchor="start" x="8" y="-262" font-family="Helvetica,sans-Serif" font-size="10.00">hiir::PhaseHalfPi2F64Sse2</text>
<text xml:space="preserve" text-anchor="middle" x="66.12" y="-250.75" font-family="Helvetica,sans-Serif" font-size="10.00">::operator!=</text>
</a>
</g>
</g>
<!-- Node3&#45;&gt;Node4 -->
<g id="edge3_Node000003_Node000004" class="edge">
<title>Node3&#45;&gt;Node4</title>
<g id="a_edge3_Node000003_Node000004"><a xlink:title=" ">
<path fill="none" stroke="#63b8ff" d="M192.42,-207.07C174.17,-216.1 152.3,-226.56 132.25,-235.25 124.92,-238.43 117.03,-241.63 109.38,-244.63"/>
<polygon fill="#63b8ff" stroke="#63b8ff" points="193.96,-210.21 201.35,-202.62 190.84,-203.95 193.96,-210.21"/>
</a>
</g>
</g>
<!-- Node5 -->
<g id="Node000005" class="node">
<title>Node5</title>
<g id="a_Node000005"><a xlink:href="classhiir_1_1PhaseHalfPi2F64Sse2.html#a65175c1e68e7fa852a80e4acf2836c1b" target="_top" xlink:title=" ">
<polygon fill="white" stroke="#666666" points="132.25,-226.5 0,-226.5 0,-196 132.25,-196 132.25,-226.5"/>
<text xml:space="preserve" text-anchor="start" x="8" y="-213" font-family="Helvetica,sans-Serif" font-size="10.00">hiir::PhaseHalfPi2F64Sse2</text>
<text xml:space="preserve" text-anchor="middle" x="66.12" y="-201.75" font-family="Helvetica,sans-Serif" font-size="10.00">::operator=</text>
</a>
</g>
</g>
<!-- Node3&#45;&gt;Node5 -->
<g id="edge4_Node000003_Node000005" class="edge">
<title>Node3&#45;&gt;Node5</title>
<g id="a_edge4_Node000003_Node000005"><a xlink:title=" ">
<path fill="none" stroke="#63b8ff" d="M156.84,-197.76C148.78,-198.97 140.63,-200.2 132.71,-201.39"/>
<polygon fill="#63b8ff" stroke="#63b8ff" points="157.28,-201.23 166.65,-196.28 156.24,-194.31 157.28,-201.23"/>
</a>
</g>
</g>
<!-- Node6 -->
<g id="Node000006" class="node">
<title>Node6</title>
<g id="a_Node000006"><a xlink:href="classhiir_1_1PhaseHalfPi2F64Sse2.html#ae20edb68da63d18dcee54d397f1fc04e" target="_top" xlink:title=" ">
<polygon fill="white" stroke="#666666" points="132.25,-177.5 0,-177.5 0,-147 132.25,-147 132.25,-177.5"/>
<text xml:space="preserve" text-anchor="start" x="8" y="-164" font-family="Helvetica,sans-Serif" font-size="10.00">hiir::PhaseHalfPi2F64Sse2</text>
<text xml:space="preserve" text-anchor="middle" x="66.12" y="-152.75" font-family="Helvetica,sans-Serif" font-size="10.00">::operator==</text>
</a>
</g>
</g>
<!-- Node3&#45;&gt;Node6 -->
<g id="edge6_Node000003_Node000006" class="edge">
<title>Node3&#45;&gt;Node6</title>
<g id="a_edge6_Node000003_Node000006"><a xlink:title=" ">
<path fill="none" stroke="#63b8ff" d="M156.84,-175.2C148.78,-174.04 140.63,-172.86 132.71,-171.72"/>
<polygon fill="#63b8ff" stroke="#63b8ff" points="156.25,-178.65 166.65,-176.62 157.25,-171.72 156.25,-178.65"/>
</a>
</g>
</g>
<!-- Node7 -->
<g id="Node000007" class="node">
<title>Node7</title>
<g id="a_Node000007"><a xlink:href="classhiir_1_1PhaseHalfPi2F64Sse2.html#a276776b268b6824a107a75a0562381d5" target="_top" xlink:title=" ">
<polygon fill="white" stroke="#666666" points="132.25,-128.5 0,-128.5 0,-98 132.25,-98 132.25,-128.5"/>
<text xml:space="preserve" text-anchor="start" x="8" y="-115" font-family="Helvetica,sans-Serif" font-size="10.00">hiir::PhaseHalfPi2F64Sse2</text>
<text xml:space="preserve" text-anchor="middle" x="66.12" y="-103.75" font-family="Helvetica,sans-Serif" font-size="10.00">::PhaseHalfPi2F64Sse2</text>
</a>
</g>
</g>
<!-- Node3&#45;&gt;Node7 -->
<g id="edge7_Node000003_Node000007" class="edge">
<title>Node3&#45;&gt;Node7</title>
<g id="a_edge7_Node000003_Node000007"><a xlink:title=" ">
<path fill="none" stroke="#63b8ff" d="M191.97,-165.72C173.79,-156.93 152.11,-146.76 132.25,-138.25 124.9,-135.1 117.02,-131.91 109.35,-128.92"/>
<polygon fill="#63b8ff" stroke="#63b8ff" points="190.34,-168.82 200.87,-170.04 193.4,-162.52 190.34,-168.82"/>
</a>
</g>
</g>
<!-- Node8 -->
<g id="Node000008" class="node">
<title>Node8</title>
<g id="a_Node000008"><a xlink:href="classhiir_1_1PhaseHalfPi2F64Sse2.html#a857ef9f58194b0dbf4a5a3eee495fd93" target="_top" xlink:title=" ">
<polygon fill="white" stroke="#666666" points="132.25,-79.5 0,-79.5 0,-49 132.25,-49 132.25,-79.5"/>
<text xml:space="preserve" text-anchor="start" x="8" y="-66" font-family="Helvetica,sans-Serif" font-size="10.00">hiir::PhaseHalfPi2F64Sse2</text>
<text xml:space="preserve" text-anchor="middle" x="66.12" y="-54.75" font-family="Helvetica,sans-Serif" font-size="10.00">::PhaseHalfPi2F64Sse2</text>
</a>
</g>
</g>
<!-- Node3&#45;&gt;Node8 -->
<g id="edge8_Node000003_Node000008" class="edge">
<title>Node3&#45;&gt;Node8</title>
<g id="a_edge8_Node000003_Node000008"><a xlink:title=" ">
<path fill="none" stroke="#63b8ff" d="M213.39,-162.25C194.39,-140.7 164.06,-109.44 132.25,-89.25 126.83,-85.81 120.86,-82.72 114.81,-79.99"/>
<polygon fill="#63b8ff" stroke="#63b8ff" points="210.64,-164.41 219.82,-169.69 215.93,-159.83 210.64,-164.41"/>
</a>
</g>
</g>
<!-- Node9 -->
<g id="Node000009" class="node">
<title>Node9</title>
<g id="a_Node000009"><a xlink:href="classhiir_1_1PhaseHalfPi2F64Sse2.html#a89f859eae1dffe7ab9096a239b30da03" target="_top" xlink:title=" ">
<polygon fill="white" stroke="#666666" points="132.25,-30.5 0,-30.5 0,0 132.25,0 132.25,-30.5"/>
<text xml:space="preserve" text-anchor="start" x="8" y="-17" font-family="Helvetica,sans-Serif" font-size="10.00">hiir::PhaseHalfPi2F64Sse2</text>
<text xml:space="preserve" text-anchor="middle" x="66.12" y="-5.75" font-family="Helvetica,sans-Serif" font-size="10.00">::~PhaseHalfPi2F64Sse2</text>
</a>
</g>
</g>
<!-- Node3&#45;&gt;Node9 -->
<g id="edge9_Node000003_Node000009" class="edge">
<title>Node3&#45;&gt;Node9</title>
<g id="a_edge9_Node000003_Node000009"><a xlink:title=" ">
<path fill="none" stroke="#63b8ff" d="M221.72,-160.77C205.78,-128.54 174.3,-73.27 132.25,-40.25 127.68,-36.66 122.53,-33.54 117.19,-30.83"/>
<polygon fill="#63b8ff" stroke="#63b8ff" points="218.37,-161.9 225.86,-169.39 224.68,-158.86 218.37,-161.9"/>
</a>
</g>
</g>
</g>
</svg>
</svg>

<style type='text/css'>
<![CDATA[
[data-mouse-over-selected='false'] { opacity: 0.7; }
[data-mouse-over-selected='true']  { opacity: 1.0; }
]]>
</style>
<script type="application/ecmascript"><![CDATA[
document.addEventListener('DOMContentLoaded', (event) => {
  highlightEdges();
  highlightAdjacentNodes();
});
]]></script>
</svg>
