<?xml version="1.0" encoding="UTF-8" standalone="no"?>
<!DOCTYPE svg PUBLIC "-//W3C//DTD SVG 1.1//EN"
 "http://www.w3.org/Graphics/SVG/1.1/DTD/svg11.dtd">
<!-- Generated by graphviz version 14.0.2 (0)
 -->
<!-- Title: lmms::PluginFactory::descriptors Pages: 1 -->
<!--zoomable 88 -->

<svg id="main" version="1.1" xmlns="http://www.w3.org/2000/svg" xmlns:xlink="http://www.w3.org/1999/xlink" xml:space="preserve" onload="init(evt)">

<style type="text/css"><![CDATA[
.node, .edge {opacity: 0.7;}
.node.selected, .edge.selected {opacity: 1;}
.edge:hover path { stroke: red; }
.edge:hover polygon { stroke: red; fill: red; }
]]></style>

<defs>
  <circle id="rim" cx="0" cy="0" r="7"/>
  <circle id="rim2" cx="0" cy="0" r="3.5"/>
  <g id="zoomPlus">
    <use xlink:href="#rim" fill="#404040"><set attributeName="fill" to="#808080" begin="zoomplus.mouseover" end="zoomplus.mouseout"/></use>
    <path d="M-4,0h8M0,-4v8" fill="none" stroke="white" stroke-width="1.5" pointer-events="none"/>
  </g>
  <g id="zoomMin">
    <use xlink:href="#rim" fill="#404040"><set attributeName="fill" to="#808080" begin="zoomminus.mouseover" end="zoomminus.mouseout"/></use>
    <path d="M-4,0h8" fill="none" stroke="white" stroke-width="1.5" pointer-events="none"/>
  </g>
  <g id="arrowUp" transform="translate(30 24)">
    <use xlink:href="#rim"/>
    <path pointer-events="none" fill="none" stroke="white" stroke-width="1.5" d="M0,-3.0v7 M-2.5,-0.5L0,-3.0L2.5,-0.5"/>
  </g>
  <g id="arrowRight" transform="rotate(90) translate(36 -43)">
    <use xlink:href="#rim"/>
    <path pointer-events="none" fill="none" stroke="white" stroke-width="1.5" d="M0,-3.0v7 M-2.5,-0.5L0,-3.0L2.5,-0.5"/>
  </g>
  <g id="arrowDown" transform="rotate(180) translate(-30 -48)">
    <use xlink:href="#rim"/>
    <path pointer-events="none" fill="none" stroke="white" stroke-width="1.5" d="M0,-3.0v7 M-2.5,-0.5L0,-3.0L2.5,-0.5"/>
  </g>
  <g id="arrowLeft" transform="rotate(270) translate(-36 17)">
    <use xlink:href="#rim"/>
    <path pointer-events="none" fill="none" stroke="white" stroke-width="1.5" d="M0,-3.0v7 M-2.5,-0.5L0,-3.0L2.5,-0.5"/>
  </g>
  <g id="resetDef">
    <use xlink:href="#rim2" fill="#404040"><set attributeName="fill" to="#808080" begin="reset.mouseover" end="reset.mouseout"/></use>
  </g>
</defs>
<script type="application/ecmascript">
var viewWidth = 713;
var viewHeight = 88;
var sectionId = 'dynsection-4';
</script>
<script type="application/ecmascript" xlink:href="svg.min.js"/>
<svg id="graph" class="graph">
<g id="viewport">
<title>lmms::PluginFactory::descriptors</title>
<!-- Node1 -->
<g id="Node000001" class="node">
<title>Node1</title>
<g id="a_Node000001"><a xlink:title="Returns a list of all found plugins&#39; descriptors.">
<polygon fill="#999999" stroke="#666666" points="704.75,-54.5 601,-54.5 601,-24 704.75,-24 704.75,-54.5"/>
<text xml:space="preserve" text-anchor="start" x="609" y="-41" font-family="Helvetica,sans-Serif" font-size="10.00">lmms::PluginFactory</text>
<text xml:space="preserve" text-anchor="middle" x="652.88" y="-29.75" font-family="Helvetica,sans-Serif" font-size="10.00">::descriptors</text>
</a>
</g>
</g>
<!-- Node2 -->
<g id="Node000002" class="node">
<title>Node2</title>
<g id="a_Node000002"><a xlink:href="classlmms_1_1gui_1_1PluginBrowser.html#a4c9d2afe9fae568725011252b41dc0df" target="_top" xlink:title=" ">
<polygon fill="white" stroke="#666666" points="565,-79.5 440.25,-79.5 440.25,-49 565,-49 565,-79.5"/>
<text xml:space="preserve" text-anchor="start" x="448.25" y="-66" font-family="Helvetica,sans-Serif" font-size="10.00">lmms::gui::PluginBrowser</text>
<text xml:space="preserve" text-anchor="middle" x="502.62" y="-54.75" font-family="Helvetica,sans-Serif" font-size="10.00">::addPlugins</text>
</a>
</g>
</g>
<!-- Node1&#45;&gt;Node2 -->
<g id="edge1_Node000001_Node000002" class="edge">
<title>Node1&#45;&gt;Node2</title>
<g id="a_edge1_Node000001_Node000002"><a xlink:title=" ">
<path fill="none" stroke="#63b8ff" d="M589.7,-49.73C581.69,-51.09 573.49,-52.47 565.49,-53.82"/>
<polygon fill="#63b8ff" stroke="#63b8ff" points="590.08,-53.22 599.36,-48.11 588.92,-46.32 590.08,-53.22"/>
</a>
</g>
</g>
<!-- Node4 -->
<g id="Node000004" class="node">
<title>Node4</title>
<g id="a_Node000004"><a xlink:href="classlmms_1_1PluginFactory.html#aefc3f202e82b5b2d773e294f804fd8d2" target="_top" xlink:title=" ">
<polygon fill="white" stroke="#666666" points="554.5,-30.5 450.75,-30.5 450.75,0 554.5,0 554.5,-30.5"/>
<text xml:space="preserve" text-anchor="start" x="458.75" y="-17" font-family="Helvetica,sans-Serif" font-size="10.00">lmms::PluginFactory</text>
<text xml:space="preserve" text-anchor="middle" x="502.62" y="-5.75" font-family="Helvetica,sans-Serif" font-size="10.00">::discoverPlugins</text>
</a>
</g>
</g>
<!-- Node1&#45;&gt;Node4 -->
<g id="edge3_Node000001_Node000004" class="edge">
<title>Node1&#45;&gt;Node4</title>
<g id="a_edge3_Node000001_Node000004"><a xlink:title=" ">
<path fill="none" stroke="#63b8ff" d="M589.52,-29.16C578.02,-27.29 566.12,-25.37 554.99,-23.57"/>
<polygon fill="#63b8ff" stroke="#63b8ff" points="588.93,-32.61 599.36,-30.75 590.05,-25.7 588.93,-32.61"/>
</a>
</g>
</g>
<!-- Node3 -->
<g id="Node000003" class="node">
<title>Node3</title>
<g id="a_Node000003"><a xlink:href="classlmms_1_1gui_1_1PluginBrowser.html#a3c85647f7987995cb35a2ce5a42e9a15" target="_top" xlink:title=" ">
<polygon fill="white" stroke="#666666" points="404.25,-79.5 279.5,-79.5 279.5,-49 404.25,-49 404.25,-79.5"/>
<text xml:space="preserve" text-anchor="start" x="287.5" y="-66" font-family="Helvetica,sans-Serif" font-size="10.00">lmms::gui::PluginBrowser</text>
<text xml:space="preserve" text-anchor="middle" x="341.88" y="-54.75" font-family="Helvetica,sans-Serif" font-size="10.00">::PluginBrowser</text>
</a>
</g>
</g>
<!-- Node2&#45;&gt;Node3 -->
<g id="edge2_Node000002_Node000003" class="edge">
<title>Node2&#45;&gt;Node3</title>
<g id="a_edge2_Node000002_Node000003"><a xlink:title=" ">
<path fill="none" stroke="#63b8ff" d="M428.54,-64.25C420.52,-64.25 412.4,-64.25 404.54,-64.25"/>
<polygon fill="#63b8ff" stroke="#63b8ff" points="428.28,-67.75 438.28,-64.25 428.28,-60.75 428.28,-67.75"/>
</a>
</g>
</g>
<!-- Node5 -->
<g id="Node000005" class="node">
<title>Node5</title>
<g id="a_Node000005"><a xlink:href="classlmms_1_1PluginFactory.html#af8653b7eeee16b2ea58e6038f0ab3875" target="_top" xlink:title=" ">
<polygon fill="white" stroke="#666666" points="393.75,-30.5 290,-30.5 290,0 393.75,0 393.75,-30.5"/>
<text xml:space="preserve" text-anchor="start" x="298" y="-17" font-family="Helvetica,sans-Serif" font-size="10.00">lmms::PluginFactory</text>
<text xml:space="preserve" text-anchor="middle" x="341.88" y="-5.75" font-family="Helvetica,sans-Serif" font-size="10.00">::PluginFactory</text>
</a>
</g>
</g>
<!-- Node4&#45;&gt;Node5 -->
<g id="edge4_Node000004_Node000005" class="edge">
<title>Node4&#45;&gt;Node5</title>
<g id="a_edge4_Node000004_Node000005"><a xlink:title=" ">
<path fill="none" stroke="#63b8ff" d="M439.29,-15.25C424.34,-15.25 408.54,-15.25 394.15,-15.25"/>
<polygon fill="#63b8ff" stroke="#63b8ff" points="439.01,-18.75 449.01,-15.25 439.01,-11.75 439.01,-18.75"/>
</a>
</g>
</g>
<!-- Node6 -->
<g id="Node000006" class="node">
<title>Node6</title>
<g id="a_Node000006"><a xlink:href="classlmms_1_1PluginFactory.html#a36dd74714f9331f7b185c758b37b1e4e" target="_top" xlink:title=" ">
<polygon fill="#fff0f0" stroke="red" points="243.5,-52.5 139.75,-52.5 139.75,-22 243.5,-22 243.5,-52.5"/>
<text xml:space="preserve" text-anchor="start" x="147.75" y="-39" font-family="Helvetica,sans-Serif" font-size="10.00">lmms::PluginFactory</text>
<text xml:space="preserve" text-anchor="middle" x="191.62" y="-27.75" font-family="Helvetica,sans-Serif" font-size="10.00">::instance</text>
</a>
</g>
</g>
<!-- Node5&#45;&gt;Node6 -->
<g id="edge5_Node000005_Node000006" class="edge">
<title>Node5&#45;&gt;Node6</title>
<g id="a_edge5_Node000005_Node000006"><a xlink:title=" ">
<path fill="none" stroke="#63b8ff" d="M278.52,-24.5C267.02,-26.21 255.12,-27.98 243.99,-29.63"/>
<polygon fill="#63b8ff" stroke="#63b8ff" points="278.98,-27.97 288.36,-23.04 277.95,-21.05 278.98,-27.97"/>
</a>
</g>
</g>
<!-- Node68 -->
<g id="Node000068" class="node">
<title>Node68</title>
<g id="a_Node000068"><a xlink:href="classlmms_1_1PluginFactory.html#a99ca27885ad0992ac944ddb5dd05ad76" target="_top" xlink:title=" ">
<polygon fill="white" stroke="#666666" points="103.75,-30.5 0,-30.5 0,0 103.75,0 103.75,-30.5"/>
<text xml:space="preserve" text-anchor="start" x="8" y="-17" font-family="Helvetica,sans-Serif" font-size="10.00">lmms::PluginFactory</text>
<text xml:space="preserve" text-anchor="middle" x="51.88" y="-5.75" font-family="Helvetica,sans-Serif" font-size="10.00">::~PluginFactory</text>
</a>
</g>
</g>
<!-- Node5&#45;&gt;Node68 -->
<g id="edge7_Node000005_Node000068" class="edge">
<title>Node5&#45;&gt;Node68</title>
<g id="a_edge7_Node000005_Node000068"><a xlink:title=" ">
<path fill="none" stroke="#63b8ff" d="M278.22,-13.77C266.67,-13.56 254.72,-13.37 243.5,-13.25 197.39,-12.78 185.86,-12.72 139.75,-13.25 128.13,-13.38 115.65,-13.62 103.86,-13.88"/>
<polygon fill="#63b8ff" stroke="#63b8ff" points="278,-17.27 288.07,-13.97 278.14,-10.27 278,-17.27"/>
</a>
</g>
</g>
<!-- Node6&#45;&gt;Node68 -->
<g id="edge6_Node000006_Node000068" class="edge">
<title>Node6&#45;&gt;Node68</title>
<g id="a_edge6_Node000006_Node000068"><a xlink:title=" ">
<path fill="none" stroke="#63b8ff" d="M128.14,-27.27C120.13,-25.99 112.01,-24.69 104.21,-23.45"/>
<polygon fill="#63b8ff" stroke="#63b8ff" points="127.41,-30.7 137.84,-28.82 128.51,-23.79 127.41,-30.7"/>
</a>
</g>
</g>
</g>
</svg>

<g id="navigator" transform="translate(0 0)" fill="#404254">
  <rect fill="#f2f5e9" fill-opacity="0.5" stroke="#606060" stroke-width=".5" x="0" y="0" width="60" height="60"/>
  <use id="zoomplus" xlink:href="#zoomPlus" x="17" y="9" onmousedown="handleZoom(evt,'in')"/>
  <use id="zoomminus" xlink:href="#zoomMin" x="42" y="9" onmousedown="handleZoom(evt,'out')"/>
  <use id="reset" xlink:href="#resetDef" x="30" y="36" onmousedown="handleReset()"/>
   <use id="arrowup" xlink:href="#arrowUp" x="0" y="0" onmousedown="handlePan(0,-1)"/>
  <use id="arrowright" xlink:href="#arrowRight" x="0" y="0" onmousedown="handlePan(1,0)"/>
  <use id="arrowdown" xlink:href="#arrowDown" x="0" y="0" onmousedown="handlePan(0,1)"/>
  <use id="arrowleft" xlink:href="#arrowLeft" x="0" y="0" onmousedown="handlePan(-1,0)"/>
</g>
<svg viewBox="0 0 15 15" width="100%" height="30px" preserveAspectRatio="xMaxYMin meet">
 <g id="arrow_out" transform="scale(0.3 0.3)">
  <a xlink:href="classlmms_1_1PluginFactory_a4ecc5717fd7f8c36a6e2a73137545692_icgraph_org.svg" target="_base">
   <rect id="button" ry="5" rx="5" y="6" x="6" height="38" width="38"
        fill="#f2f5e9" fill-opacity="0.5" stroke="#606060" stroke-width="1.0"/>
   <path id="arrow"
     d="M 11.500037,31.436501 C 11.940474,20.09759 22.043105,11.32322 32.158766,21.979434 L 37.068811,17.246167 C 37.068811,17.246167 37.088388,32 37.088388,32 L 22.160133,31.978069 C 22.160133,31.978069 26.997745,27.140456 26.997745,27.140456 C 18.528582,18.264221 13.291696,25.230495 11.500037,31.436501 z"
     style="fill:#404040;"/>
  </a>
 </g>
</svg>

<style type='text/css'>
<![CDATA[
[data-mouse-over-selected='false'] { opacity: 0.7; }
[data-mouse-over-selected='true']  { opacity: 1.0; }
]]>
</style>
<script type="application/ecmascript"><![CDATA[
document.addEventListener('DOMContentLoaded', (event) => {
  highlightEdges();
  highlightAdjacentNodes();
});
]]></script>
</svg>
