<?xml version="1.0" encoding="UTF-8" standalone="no"?>
<!DOCTYPE svg PUBLIC "-//W3C//DTD SVG 1.1//EN"
 "http://www.w3.org/Graphics/SVG/1.1/DTD/svg11.dtd">
<!-- Generated by graphviz version 14.0.2 (0)
 -->
<!-- Title: lmms::gui::TrackContainerView::TrackContainerView Pages: 1 -->
<svg width="478pt" height="272pt"
 viewBox="0.00 0.00 478.00 272.00" xmlns="http://www.w3.org/2000/svg" xmlns:xlink="http://www.w3.org/1999/xlink">
<g id="graph0" class="graph" transform="scale(1 1) rotate(0) translate(4 267.5)">
<title>lmms::gui::TrackContainerView::TrackContainerView</title>
<!-- Node1 -->
<g id="Node000001" class="node">
<title>Node1</title>
<g id="a_Node000001"><a xlink:title=" ">
<polygon fill="#999999" stroke="#666666" points="130,-152.5 0,-152.5 0,-122 130,-122 130,-152.5"/>
<text xml:space="preserve" text-anchor="start" x="8" y="-139" font-family="Helvetica,sans-Serif" font-size="10.00">lmms::gui::TrackContainer</text>
<text xml:space="preserve" text-anchor="middle" x="65" y="-127.75" font-family="Helvetica,sans-Serif" font-size="10.00">View::TrackContainerView</text>
</a>
</g>
</g>
<!-- Node2 -->
<g id="Node000002" class="node">
<title>Node2</title>
<g id="a_Node000002"><a xlink:href="classlmms_1_1gui_1_1TrackContainerView.html#a16c2e4814c3c43eccdf3963b70f3a1eb" target="_top" xlink:title=" ">
<polygon fill="white" stroke="#666666" points="300.12,-263.5 172.38,-263.5 172.38,-233 300.12,-233 300.12,-263.5"/>
<text xml:space="preserve" text-anchor="start" x="180.38" y="-250" font-family="Helvetica,sans-Serif" font-size="10.00">lmms::gui::TrackContainer</text>
<text xml:space="preserve" text-anchor="middle" x="236.25" y="-238.75" font-family="Helvetica,sans-Serif" font-size="10.00">View::createTrackView</text>
</a>
</g>
</g>
<!-- Node1&#45;&gt;Node2 -->
<g id="edge1_Node000001_Node000002" class="edge">
<title>Node1&#45;&gt;Node2</title>
<g id="a_edge1_Node000001_Node000002"><a xlink:title=" ">
<path fill="none" stroke="#63b8ff" d="M80.17,-152.8C98.38,-171.96 131.75,-204.42 166,-224.25 168.15,-225.49 170.37,-226.69 172.64,-227.83"/>
<polygon fill="#63b8ff" stroke="#63b8ff" points="170.94,-230.9 181.48,-231.89 173.86,-224.54 170.94,-230.9"/>
</a>
</g>
</g>
<!-- Node4 -->
<g id="Node000004" class="node">
<title>Node4</title>
<g id="a_Node000004"><a xlink:href="classlmms_1_1Engine.html#a8b943018d0245555391473f4a7d75b5b" target="_top" xlink:title=" ">
<polygon fill="white" stroke="#666666" points="293.38,-214.88 179.12,-214.88 179.12,-195.62 293.38,-195.62 293.38,-214.88"/>
<text xml:space="preserve" text-anchor="middle" x="236.25" y="-201.38" font-family="Helvetica,sans-Serif" font-size="10.00">lmms::Engine::getSong</text>
</a>
</g>
</g>
<!-- Node1&#45;&gt;Node4 -->
<g id="edge3_Node000001_Node000004" class="edge">
<title>Node1&#45;&gt;Node4</title>
<g id="a_edge3_Node000001_Node000004"><a xlink:title=" ">
<path fill="none" stroke="#63b8ff" d="M94.25,-152.87C113.94,-163.31 141.05,-176.81 166,-186.25 171.33,-188.27 176.96,-190.17 182.62,-191.93"/>
<polygon fill="#63b8ff" stroke="#63b8ff" points="181.43,-195.23 192.01,-194.72 183.42,-188.52 181.43,-195.23"/>
</a>
</g>
</g>
<!-- Node5 -->
<g id="Node000005" class="node">
<title>Node5</title>
<g id="a_Node000005"><a xlink:href="classlmms_1_1JournallingObject.html#a851a380f109424ab92ff103ead6cc8fe" target="_top" xlink:title=" ">
<polygon fill="white" stroke="#666666" points="296,-177.5 176.5,-177.5 176.5,-147 296,-147 296,-177.5"/>
<text xml:space="preserve" text-anchor="start" x="184.5" y="-164" font-family="Helvetica,sans-Serif" font-size="10.00">lmms::JournallingObject</text>
<text xml:space="preserve" text-anchor="middle" x="236.25" y="-152.75" font-family="Helvetica,sans-Serif" font-size="10.00">::JournallingObject</text>
</a>
</g>
</g>
<!-- Node1&#45;&gt;Node5 -->
<g id="edge4_Node000001_Node000005" class="edge">
<title>Node1&#45;&gt;Node5</title>
<g id="a_edge4_Node000001_Node000005"><a xlink:title=" ">
<path fill="none" stroke="#63b8ff" d="M130.47,-146.77C141.75,-148.44 153.54,-150.18 164.96,-151.87"/>
<polygon fill="#63b8ff" stroke="#63b8ff" points="164.34,-155.31 174.74,-153.31 165.36,-148.39 164.34,-155.31"/>
</a>
</g>
</g>
<!-- Node7 -->
<g id="Node000007" class="node">
<title>Node7</title>
<g id="a_Node000007"><a xlink:href="classlmms_1_1gui_1_1ModelView.html#a780137a2876c215debff0c81df4d01bc" target="_top" xlink:title=" ">
<polygon fill="white" stroke="#666666" points="291.12,-128.5 181.38,-128.5 181.38,-98 291.12,-98 291.12,-128.5"/>
<text xml:space="preserve" text-anchor="start" x="189.38" y="-115" font-family="Helvetica,sans-Serif" font-size="10.00">lmms::gui::ModelView</text>
<text xml:space="preserve" text-anchor="middle" x="236.25" y="-103.75" font-family="Helvetica,sans-Serif" font-size="10.00">::ModelView</text>
</a>
</g>
</g>
<!-- Node1&#45;&gt;Node7 -->
<g id="edge6_Node000001_Node000007" class="edge">
<title>Node1&#45;&gt;Node7</title>
<g id="a_edge6_Node000001_Node000007"><a xlink:title=" ">
<path fill="none" stroke="#63b8ff" d="M130.47,-128.11C143.33,-126.28 156.85,-124.37 169.75,-122.54"/>
<polygon fill="#63b8ff" stroke="#63b8ff" points="169.98,-126.04 179.39,-121.17 168.99,-119.11 169.98,-126.04"/>
</a>
</g>
</g>
<!-- Node10 -->
<g id="Node000010" class="node">
<title>Node10</title>
<g id="a_Node000010"><a xlink:href="classlmms_1_1gui_1_1TrackContainerView.html#aef98872926655feb70fb9ce660b7e8b9" target="_top" xlink:title=" ">
<polygon fill="white" stroke="#666666" points="300.12,-79.5 172.38,-79.5 172.38,-49 300.12,-49 300.12,-79.5"/>
<text xml:space="preserve" text-anchor="start" x="180.38" y="-66" font-family="Helvetica,sans-Serif" font-size="10.00">lmms::gui::TrackContainer</text>
<text xml:space="preserve" text-anchor="middle" x="236.25" y="-54.75" font-family="Helvetica,sans-Serif" font-size="10.00">View::realignTracks</text>
</a>
</g>
</g>
<!-- Node1&#45;&gt;Node10 -->
<g id="edge9_Node000001_Node000010" class="edge">
<title>Node1&#45;&gt;Node10</title>
<g id="a_edge9_Node000001_Node000010"><a xlink:title=" ">
<path fill="none" stroke="#63b8ff" d="M96.71,-121.51C116.31,-111.72 142.38,-99.15 166,-89.25 170.31,-87.44 174.8,-85.64 179.33,-83.88"/>
<polygon fill="#63b8ff" stroke="#63b8ff" points="180.4,-87.22 188.51,-80.41 177.92,-80.68 180.4,-87.22"/>
</a>
</g>
</g>
<!-- Node12 -->
<g id="Node000012" class="node">
<title>Node12</title>
<g id="a_Node000012"><a xlink:href="classlmms_1_1SerializingObjectHook.html#a0506214b0d5961563fdf611c75c7454a" target="_top" xlink:title=" ">
<polygon fill="white" stroke="#666666" points="306.5,-30.5 166,-30.5 166,0 306.5,0 306.5,-30.5"/>
<text xml:space="preserve" text-anchor="start" x="174" y="-17" font-family="Helvetica,sans-Serif" font-size="10.00">lmms::SerializingObjectHook</text>
<text xml:space="preserve" text-anchor="middle" x="236.25" y="-5.75" font-family="Helvetica,sans-Serif" font-size="10.00">::SerializingObjectHook</text>
</a>
</g>
</g>
<!-- Node1&#45;&gt;Node12 -->
<g id="edge11_Node000001_Node000012" class="edge">
<title>Node1&#45;&gt;Node12</title>
<g id="a_edge11_Node000001_Node000012"><a xlink:title=" ">
<path fill="none" stroke="#63b8ff" d="M78.32,-121.72C95.79,-100.62 129.69,-62.93 166,-40.25 168.55,-38.65 171.23,-37.14 173.97,-35.71"/>
<polygon fill="#63b8ff" stroke="#63b8ff" points="175.26,-38.97 182.78,-31.52 172.25,-32.65 175.26,-38.97"/>
</a>
</g>
</g>
<!-- Node3 -->
<g id="Node000003" class="node">
<title>Node3</title>
<g id="a_Node000003"><a xlink:href="classlmms_1_1Track.html#a4adee72ff57807c7b12085b221ba7f56" target="_top" xlink:title=" ">
<polygon fill="white" stroke="#666666" points="467.62,-257.88 345.12,-257.88 345.12,-238.62 467.62,-238.62 467.62,-257.88"/>
<text xml:space="preserve" text-anchor="middle" x="406.38" y="-244.38" font-family="Helvetica,sans-Serif" font-size="10.00">lmms::Track::createView</text>
</a>
</g>
</g>
<!-- Node2&#45;&gt;Node3 -->
<g id="edge2_Node000002_Node000003" class="edge">
<title>Node2&#45;&gt;Node3</title>
<g id="a_edge2_Node000002_Node000003"><a xlink:title=" ">
<path fill="none" stroke="#63b8ff" d="M300.33,-248.25C311.12,-248.25 322.4,-248.25 333.4,-248.25"/>
<polygon fill="#63b8ff" stroke="#63b8ff" points="333.21,-251.75 343.21,-248.25 333.21,-244.75 333.21,-251.75"/>
</a>
</g>
</g>
<!-- Node6 -->
<g id="Node000006" class="node">
<title>Node6</title>
<g id="a_Node000006"><a xlink:href="classlmms_1_1SerializingObject.html#ad7b2e464b4c71111ce2d11da0578ff67" target="_top" xlink:title=" ">
<polygon fill="white" stroke="#666666" points="465,-198.5 347.75,-198.5 347.75,-168 465,-168 465,-198.5"/>
<text xml:space="preserve" text-anchor="start" x="355.75" y="-185" font-family="Helvetica,sans-Serif" font-size="10.00">lmms::SerializingObject</text>
<text xml:space="preserve" text-anchor="middle" x="406.38" y="-173.75" font-family="Helvetica,sans-Serif" font-size="10.00">::SerializingObject</text>
</a>
</g>
</g>
<!-- Node5&#45;&gt;Node6 -->
<g id="edge5_Node000005_Node000006" class="edge">
<title>Node5&#45;&gt;Node6</title>
<g id="a_edge5_Node000005_Node000006"><a xlink:title=" ">
<path fill="none" stroke="#63b8ff" d="M296.05,-169.59C309.07,-171.22 322.98,-172.96 336.37,-174.63"/>
<polygon fill="#63b8ff" stroke="#63b8ff" points="335.6,-178.06 345.96,-175.83 336.47,-171.12 335.6,-178.06"/>
</a>
</g>
</g>
<!-- Node8 -->
<g id="Node000008" class="node">
<title>Node8</title>
<g id="a_Node000008"><a xlink:href="classlmms_1_1gui_1_1ModelView.html#a327f035b406407a77b1f8fe1e7fdee3f" target="_top" xlink:title=" ">
<polygon fill="white" stroke="#666666" points="461.25,-149.5 351.5,-149.5 351.5,-119 461.25,-119 461.25,-149.5"/>
<text xml:space="preserve" text-anchor="start" x="359.5" y="-136" font-family="Helvetica,sans-Serif" font-size="10.00">lmms::gui::ModelView</text>
<text xml:space="preserve" text-anchor="middle" x="406.38" y="-124.75" font-family="Helvetica,sans-Serif" font-size="10.00">::model</text>
</a>
</g>
</g>
<!-- Node7&#45;&gt;Node8 -->
<g id="edge7_Node000007_Node000008" class="edge">
<title>Node7&#45;&gt;Node8</title>
<g id="a_edge7_Node000007_Node000008"><a xlink:title=" ">
<path fill="none" stroke="#63b8ff" d="M291.37,-120.01C306.89,-121.95 323.98,-124.08 340.1,-126.1"/>
<polygon fill="#63b8ff" stroke="#63b8ff" points="339.21,-129.51 349.57,-127.28 340.08,-122.57 339.21,-129.51"/>
</a>
</g>
</g>
<!-- Node9 -->
<g id="Node000009" class="node">
<title>Node9</title>
<g id="a_Node000009"><a xlink:href="classlmms_1_1gui_1_1ModelView.html#a20499da452f52175dacea1cb6c129b20" target="_top" xlink:title=" ">
<polygon fill="white" stroke="#666666" points="461.25,-100.5 351.5,-100.5 351.5,-70 461.25,-70 461.25,-100.5"/>
<text xml:space="preserve" text-anchor="start" x="359.5" y="-87" font-family="Helvetica,sans-Serif" font-size="10.00">lmms::gui::ModelView</text>
<text xml:space="preserve" text-anchor="middle" x="406.38" y="-75.75" font-family="Helvetica,sans-Serif" font-size="10.00">::widget</text>
</a>
</g>
</g>
<!-- Node7&#45;&gt;Node9 -->
<g id="edge8_Node000007_Node000009" class="edge">
<title>Node7&#45;&gt;Node9</title>
<g id="a_edge8_Node000007_Node000009"><a xlink:title=" ">
<path fill="none" stroke="#63b8ff" d="M291.37,-104.24C306.89,-101.65 323.98,-98.81 340.1,-96.12"/>
<polygon fill="#63b8ff" stroke="#63b8ff" points="340.29,-99.64 349.57,-94.54 339.14,-92.73 340.29,-99.64"/>
</a>
</g>
</g>
<!-- Node11 -->
<g id="Node000011" class="node">
<title>Node11</title>
<g id="a_Node000011"><a xlink:href="classlmms_1_1gui_1_1TrackContainerView.html#adddd1e947720f45309127e67276c2d0b" target="_top" xlink:title=" ">
<polygon fill="white" stroke="#666666" points="470.25,-51.5 342.5,-51.5 342.5,-21 470.25,-21 470.25,-51.5"/>
<text xml:space="preserve" text-anchor="start" x="350.5" y="-38" font-family="Helvetica,sans-Serif" font-size="10.00">lmms::gui::TrackContainer</text>
<text xml:space="preserve" text-anchor="middle" x="406.38" y="-26.75" font-family="Helvetica,sans-Serif" font-size="10.00">View::tracksRealigned</text>
</a>
</g>
</g>
<!-- Node10&#45;&gt;Node11 -->
<g id="edge10_Node000010_Node000011" class="edge">
<title>Node10&#45;&gt;Node11</title>
<g id="a_edge10_Node000010_Node000011"><a xlink:title=" ">
<path fill="none" stroke="#63b8ff" d="M300.33,-53.74C310.39,-52.07 320.88,-50.32 331.16,-48.61"/>
<polygon fill="#63b8ff" stroke="#63b8ff" points="331.44,-52.11 340.73,-47.02 330.29,-45.21 331.44,-52.11"/>
</a>
</g>
</g>
</g>
</svg>
