<?xml version="1.0" encoding="UTF-8" standalone="no"?>
<!DOCTYPE svg PUBLIC "-//W3C//DTD SVG 1.1//EN"
 "http://www.w3.org/Graphics/SVG/1.1/DTD/svg11.dtd">
<!-- Generated by graphviz version 14.0.2 (0)
 -->
<!-- Title: juce::SplashScreen::timerCallback Pages: 1 -->
<svg width="635pt" height="222pt"
 viewBox="0.00 0.00 635.00 222.00" xmlns="http://www.w3.org/2000/svg" xmlns:xlink="http://www.w3.org/1999/xlink">
<g id="graph0" class="graph" transform="scale(1 1) rotate(0) translate(4 217.88)">
<title>juce::SplashScreen::timerCallback</title>
<!-- Node1 -->
<g id="Node000001" class="node">
<title>Node1</title>
<g id="a_Node000001"><a xlink:title=" ">
<polygon fill="#999999" stroke="#666666" points="99.25,-118.5 0,-118.5 0,-88 99.25,-88 99.25,-118.5"/>
<text xml:space="preserve" text-anchor="start" x="8" y="-105" font-family="Helvetica,sans-Serif" font-size="10.00">juce::SplashScreen</text>
<text xml:space="preserve" text-anchor="middle" x="49.62" y="-93.75" font-family="Helvetica,sans-Serif" font-size="10.00">::timerCallback</text>
</a>
</g>
</g>
<!-- Node1&#45;&gt;Node1 -->
<g id="edge17_Node000001_Node000001" class="edge">
<title>Node1&#45;&gt;Node1</title>
<g id="a_edge17_Node000001_Node000001"><a xlink:title=" ">
<path fill="none" stroke="#63b8ff" d="M22.8,-118.99C17.33,-128.06 26.27,-136.5 49.62,-136.5 62.4,-136.5 70.86,-133.97 75.01,-130.2"/>
<polygon fill="#63b8ff" stroke="#63b8ff" points="78.46,-130.85 76.26,-120.49 71.51,-129.96 78.46,-130.85"/>
</a>
</g>
</g>
<!-- Node2 -->
<g id="Node000002" class="node">
<title>Node2</title>
<g id="a_Node000002"><a xlink:href="classjuce_1_1Time.html#a7d90f51eb13a727e38520cf414459bfc" target="_top" xlink:title=" ">
<polygon fill="white" stroke="#666666" points="266.75,-140.88 135.25,-140.88 135.25,-121.62 266.75,-121.62 266.75,-140.88"/>
<text xml:space="preserve" text-anchor="middle" x="201" y="-127.38" font-family="Helvetica,sans-Serif" font-size="10.00">juce::Time::getCurrentTime</text>
</a>
</g>
</g>
<!-- Node1&#45;&gt;Node2 -->
<g id="edge1_Node000001_Node000002" class="edge">
<title>Node1&#45;&gt;Node2</title>
<g id="a_edge1_Node000001_Node000002"><a xlink:title=" ">
<path fill="none" stroke="#63b8ff" d="M99.54,-112.42C110.82,-114.53 123,-116.82 134.85,-119.04"/>
<polygon fill="#63b8ff" stroke="#63b8ff" points="134.11,-122.46 144.59,-120.86 135.4,-115.58 134.11,-122.46"/>
</a>
</g>
</g>
<!-- Node5 -->
<g id="Node000005" class="node">
<title>Node5</title>
<g id="a_Node000005"><a xlink:href="classjuce_1_1Desktop.html#a9adf64fbbd6f9740c0272f50bee5342c" target="_top" xlink:title=" ">
<polygon fill="white" stroke="#666666" points="266,-85.88 136,-85.88 136,-66.62 266,-66.62 266,-85.88"/>
<text xml:space="preserve" text-anchor="middle" x="201" y="-72.38" font-family="Helvetica,sans-Serif" font-size="10.00">juce::Desktop::getInstance</text>
</a>
</g>
</g>
<!-- Node1&#45;&gt;Node5 -->
<g id="edge7_Node000001_Node000005" class="edge">
<title>Node1&#45;&gt;Node5</title>
<g id="a_edge7_Node000001_Node000005"><a xlink:title=" ">
<path fill="none" stroke="#63b8ff" d="M99.54,-94.41C110.26,-92.47 121.79,-90.39 133.07,-88.35"/>
<polygon fill="#63b8ff" stroke="#63b8ff" points="133.54,-91.82 142.76,-86.6 132.29,-84.93 133.54,-91.82"/>
</a>
</g>
</g>
<!-- Node2&#45;&gt;Node2 -->
<g id="edge4_Node000002_Node000002" class="edge">
<title>Node2&#45;&gt;Node2</title>
<g id="a_edge4_Node000002_Node000002"><a xlink:title=" ">
<path fill="none" stroke="#63b8ff" d="M177.3,-141.16C166.49,-149.77 174.39,-158.88 201,-158.88 215.97,-158.88 225.02,-155.99 228.14,-151.94"/>
<polygon fill="#63b8ff" stroke="#63b8ff" points="231.54,-151.06 225.16,-142.6 224.87,-153.2 231.54,-151.06"/>
</a>
</g>
</g>
<!-- Node3 -->
<g id="Node000003" class="node">
<title>Node3</title>
<g id="a_Node000003"><a xlink:href="classjuce_1_1Time.html#a76187258e8cae4038850fd0ff3476db0" target="_top" xlink:title=" ">
<polygon fill="white" stroke="#666666" points="441.75,-195.88 302.75,-195.88 302.75,-176.62 441.75,-176.62 441.75,-195.88"/>
<text xml:space="preserve" text-anchor="middle" x="372.25" y="-182.38" font-family="Helvetica,sans-Serif" font-size="10.00">juce::Time::currentTimeMillis</text>
</a>
</g>
</g>
<!-- Node2&#45;&gt;Node3 -->
<g id="edge2_Node000002_Node000003" class="edge">
<title>Node2&#45;&gt;Node3</title>
<g id="a_edge2_Node000002_Node000003"><a xlink:title=" ">
<path fill="none" stroke="#63b8ff" d="M227.44,-141.36C247.68,-149.21 276.8,-160.09 302.75,-168.25 308.11,-169.93 313.74,-171.59 319.37,-173.18"/>
<polygon fill="#63b8ff" stroke="#63b8ff" points="318.11,-176.46 328.68,-175.73 319.96,-169.71 318.11,-176.46"/>
</a>
</g>
</g>
<!-- Node4 -->
<g id="Node000004" class="node">
<title>Node4</title>
<g id="a_Node000004"><a xlink:href="classjuce_1_1Time.html#a2b2d33fdacb3190901ac10c4b9f0e000" target="_top" xlink:title=" ">
<polygon fill="white" stroke="#666666" points="415.5,-140.88 329,-140.88 329,-121.62 415.5,-121.62 415.5,-140.88"/>
<text xml:space="preserve" text-anchor="middle" x="372.25" y="-127.38" font-family="Helvetica,sans-Serif" font-size="10.00">juce::Time::Time</text>
</a>
</g>
</g>
<!-- Node2&#45;&gt;Node4 -->
<g id="edge5_Node000002_Node000004" class="edge">
<title>Node2&#45;&gt;Node4</title>
<g id="a_edge5_Node000002_Node000004"><a xlink:title=" ">
<path fill="none" stroke="#63b8ff" d="M266.95,-131.25C283.61,-131.25 301.33,-131.25 317.36,-131.25"/>
<polygon fill="#63b8ff" stroke="#63b8ff" points="317.18,-134.75 327.18,-131.25 317.18,-127.75 317.18,-134.75"/>
</a>
</g>
</g>
<!-- Node3&#45;&gt;Node3 -->
<g id="edge3_Node000003_Node000003" class="edge">
<title>Node3&#45;&gt;Node3</title>
<g id="a_edge3_Node000003_Node000003"><a xlink:title=" ">
<path fill="none" stroke="#63b8ff" d="M345.44,-196.16C333.21,-204.77 342.15,-213.88 372.25,-213.88 389.18,-213.88 399.42,-210.99 402.96,-206.94"/>
<polygon fill="#63b8ff" stroke="#63b8ff" points="406.27,-205.8 399.57,-197.59 399.68,-208.18 406.27,-205.8"/>
</a>
</g>
</g>
<!-- Node4&#45;&gt;Node4 -->
<g id="edge6_Node000004_Node000004" class="edge">
<title>Node4&#45;&gt;Node4</title>
<g id="a_edge6_Node000004_Node000004"><a xlink:title=" ">
<path fill="none" stroke="#63b8ff" d="M345.44,-141.16C333.21,-149.77 342.15,-158.88 372.25,-158.88 389.18,-158.88 399.42,-155.99 402.96,-151.94"/>
<polygon fill="#63b8ff" stroke="#63b8ff" points="406.27,-150.8 399.57,-142.59 399.68,-153.18 406.27,-150.8"/>
</a>
</g>
</g>
<!-- Node5&#45;&gt;Node5 -->
<g id="edge16_Node000005_Node000005" class="edge">
<title>Node5&#45;&gt;Node5</title>
<g id="a_edge16_Node000005_Node000005"><a xlink:title=" ">
<path fill="none" stroke="#63b8ff" d="M177.3,-86.16C166.49,-94.77 174.39,-103.88 201,-103.88 215.97,-103.88 225.02,-100.99 228.14,-96.94"/>
<polygon fill="#63b8ff" stroke="#63b8ff" points="231.54,-96.06 225.16,-87.6 224.87,-98.2 231.54,-96.06"/>
</a>
</g>
</g>
<!-- Node6 -->
<g id="Node000006" class="node">
<title>Node6</title>
<g id="a_Node000006"><a xlink:href="classjuce_1_1Desktop.html#abd1c8fd0b06db22247d73b5d672a8869" target="_top" xlink:title=" ">
<polygon fill="white" stroke="#666666" points="429.75,-85.88 314.75,-85.88 314.75,-66.62 429.75,-66.62 429.75,-85.88"/>
<text xml:space="preserve" text-anchor="middle" x="372.25" y="-72.38" font-family="Helvetica,sans-Serif" font-size="10.00">juce::Desktop::Desktop</text>
</a>
</g>
</g>
<!-- Node5&#45;&gt;Node6 -->
<g id="edge8_Node000005_Node000006" class="edge">
<title>Node5&#45;&gt;Node6</title>
<g id="a_edge8_Node000005_Node000006"><a xlink:title=" ">
<path fill="none" stroke="#63b8ff" d="M266.47,-76.25C278.43,-76.25 290.97,-76.25 303.04,-76.25"/>
<polygon fill="#63b8ff" stroke="#63b8ff" points="302.92,-79.75 312.92,-76.25 302.92,-72.75 302.92,-79.75"/>
</a>
</g>
</g>
<!-- Node6&#45;&gt;Node6 -->
<g id="edge11_Node000006_Node000006" class="edge">
<title>Node6&#45;&gt;Node6</title>
<g id="a_edge11_Node000006_Node000006"><a xlink:title=" ">
<path fill="none" stroke="#63b8ff" d="M345.44,-86.16C333.21,-94.77 342.15,-103.88 372.25,-103.88 389.18,-103.88 399.42,-100.99 402.96,-96.94"/>
<polygon fill="#63b8ff" stroke="#63b8ff" points="406.27,-95.8 399.57,-87.59 399.68,-98.18 406.27,-95.8"/>
</a>
</g>
</g>
<!-- Node7 -->
<g id="Node000007" class="node">
<title>Node7</title>
<g id="a_Node000007"><a xlink:href="classjuce_1_1Desktop.html#addda2d1ba54a534ecdfa4eca80f3a510" target="_top" xlink:title=" ">
<polygon fill="white" stroke="#666666" points="626.5,-152.5 477.75,-152.5 477.75,-122 626.5,-122 626.5,-152.5"/>
<text xml:space="preserve" text-anchor="start" x="485.75" y="-139" font-family="Helvetica,sans-Serif" font-size="10.00">juce::Desktop::createNative</text>
<text xml:space="preserve" text-anchor="middle" x="552.12" y="-127.75" font-family="Helvetica,sans-Serif" font-size="10.00">DarkModeChangeDetectorImpl</text>
</a>
</g>
</g>
<!-- Node6&#45;&gt;Node7 -->
<g id="edge9_Node000006_Node000007" class="edge">
<title>Node6&#45;&gt;Node7</title>
<g id="a_edge9_Node000006_Node000007"><a xlink:title=" ">
<path fill="none" stroke="#63b8ff" d="M401.13,-86.33C422.14,-93.87 451.7,-104.38 477.75,-113.25 482.37,-114.82 487.16,-116.44 491.98,-118.04"/>
<polygon fill="#63b8ff" stroke="#63b8ff" points="490.49,-121.24 501.09,-121.06 492.7,-114.59 490.49,-121.24"/>
</a>
</g>
</g>
<!-- Node8 -->
<g id="Node000008" class="node">
<title>Node8</title>
<g id="a_Node000008"><a xlink:href="classjuce_1_1Desktop.html#af2aa5afb6ba8acb24e156284fc503bd9" target="_top" xlink:title=" ">
<polygon fill="white" stroke="#666666" points="610,-85.88 494.25,-85.88 494.25,-66.62 610,-66.62 610,-85.88"/>
<text xml:space="preserve" text-anchor="middle" x="552.12" y="-72.38" font-family="Helvetica,sans-Serif" font-size="10.00">juce::Desktop::Displays</text>
</a>
</g>
</g>
<!-- Node6&#45;&gt;Node8 -->
<g id="edge12_Node000006_Node000008" class="edge">
<title>Node6&#45;&gt;Node8</title>
<g id="a_edge12_Node000006_Node000008"><a xlink:title=" ">
<path fill="none" stroke="#63b8ff" d="M430.02,-76.25C446.78,-76.25 465.31,-76.25 482.73,-76.25"/>
<polygon fill="#63b8ff" stroke="#63b8ff" points="482.47,-79.75 492.47,-76.25 482.47,-72.75 482.47,-79.75"/>
</a>
</g>
</g>
<!-- Node9 -->
<g id="Node000009" class="node">
<title>Node9</title>
<g id="a_Node000009"><a xlink:href="classjuce_1_1Desktop.html#a9c4533b63bdf1ccb9ae1242ba578d3a6" target="_top" xlink:title=" ">
<polygon fill="white" stroke="#666666" points="613.75,-30.5 490.5,-30.5 490.5,0 613.75,0 613.75,-30.5"/>
<text xml:space="preserve" text-anchor="start" x="498.5" y="-17" font-family="Helvetica,sans-Serif" font-size="10.00">juce::Desktop::getDefault</text>
<text xml:space="preserve" text-anchor="middle" x="552.12" y="-5.75" font-family="Helvetica,sans-Serif" font-size="10.00">MasterScale</text>
</a>
</g>
</g>
<!-- Node6&#45;&gt;Node9 -->
<g id="edge14_Node000006_Node000009" class="edge">
<title>Node6&#45;&gt;Node9</title>
<g id="a_edge14_Node000006_Node000009"><a xlink:title=" ">
<path fill="none" stroke="#63b8ff" d="M402.62,-66.18C427.6,-57.61 464.18,-45.07 494.79,-34.57"/>
<polygon fill="#63b8ff" stroke="#63b8ff" points="495.58,-38 503.9,-31.44 493.31,-31.38 495.58,-38"/>
</a>
</g>
</g>
<!-- Node7&#45;&gt;Node7 -->
<g id="edge10_Node000007_Node000007" class="edge">
<title>Node7&#45;&gt;Node7</title>
<g id="a_edge10_Node000007_Node000007"><a xlink:title=" ">
<path fill="none" stroke="#63b8ff" d="M520.25,-152.99C513.75,-162.06 524.37,-170.5 552.12,-170.5 567.3,-170.5 577.36,-167.97 582.29,-164.2"/>
<polygon fill="#63b8ff" stroke="#63b8ff" points="585.73,-164.9 583.77,-154.48 578.8,-163.84 585.73,-164.9"/>
</a>
</g>
</g>
<!-- Node8&#45;&gt;Node8 -->
<g id="edge13_Node000008_Node000008" class="edge">
<title>Node8&#45;&gt;Node8</title>
<g id="a_edge13_Node000008_Node000008"><a xlink:title=" ">
<path fill="none" stroke="#63b8ff" d="M523.96,-86.16C511.12,-94.77 520.51,-103.88 552.12,-103.88 570.4,-103.88 581.25,-100.83 584.67,-96.6"/>
<polygon fill="#63b8ff" stroke="#63b8ff" points="587.97,-95.42 580.87,-87.56 581.52,-98.13 587.97,-95.42"/>
</a>
</g>
</g>
<!-- Node9&#45;&gt;Node9 -->
<g id="edge15_Node000009_Node000009" class="edge">
<title>Node9&#45;&gt;Node9</title>
<g id="a_edge15_Node000009_Node000009"><a xlink:title=" ">
<path fill="none" stroke="#63b8ff" d="M520.25,-30.99C513.75,-40.06 524.37,-48.5 552.12,-48.5 567.3,-48.5 577.36,-45.97 582.29,-42.2"/>
<polygon fill="#63b8ff" stroke="#63b8ff" points="585.73,-42.9 583.77,-32.48 578.8,-41.84 585.73,-42.9"/>
</a>
</g>
</g>
</g>
</svg>
