<?xml version="1.0" encoding="UTF-8" standalone="no"?>
<!DOCTYPE svg PUBLIC "-//W3C//DTD SVG 1.1//EN"
 "http://www.w3.org/Graphics/SVG/1.1/DTD/svg11.dtd">
<!-- Generated by graphviz version 14.0.2 (0)
 -->
<!-- Title: lmms::PatternTrack::findPatternTrack Pages: 1 -->
<!--zoomable 351 -->

<svg id="main" version="1.1" xmlns="http://www.w3.org/2000/svg" xmlns:xlink="http://www.w3.org/1999/xlink" xml:space="preserve" onload="init(evt)">

<style type="text/css"><![CDATA[
.node, .edge {opacity: 0.7;}
.node.selected, .edge.selected {opacity: 1;}
.edge:hover path { stroke: red; }
.edge:hover polygon { stroke: red; fill: red; }
]]></style>

<defs>
  <circle id="rim" cx="0" cy="0" r="7"/>
  <circle id="rim2" cx="0" cy="0" r="3.5"/>
  <g id="zoomPlus">
    <use xlink:href="#rim" fill="#404040"><set attributeName="fill" to="#808080" begin="zoomplus.mouseover" end="zoomplus.mouseout"/></use>
    <path d="M-4,0h8M0,-4v8" fill="none" stroke="white" stroke-width="1.5" pointer-events="none"/>
  </g>
  <g id="zoomMin">
    <use xlink:href="#rim" fill="#404040"><set attributeName="fill" to="#808080" begin="zoomminus.mouseover" end="zoomminus.mouseout"/></use>
    <path d="M-4,0h8" fill="none" stroke="white" stroke-width="1.5" pointer-events="none"/>
  </g>
  <g id="arrowUp" transform="translate(30 24)">
    <use xlink:href="#rim"/>
    <path pointer-events="none" fill="none" stroke="white" stroke-width="1.5" d="M0,-3.0v7 M-2.5,-0.5L0,-3.0L2.5,-0.5"/>
  </g>
  <g id="arrowRight" transform="rotate(90) translate(36 -43)">
    <use xlink:href="#rim"/>
    <path pointer-events="none" fill="none" stroke="white" stroke-width="1.5" d="M0,-3.0v7 M-2.5,-0.5L0,-3.0L2.5,-0.5"/>
  </g>
  <g id="arrowDown" transform="rotate(180) translate(-30 -48)">
    <use xlink:href="#rim"/>
    <path pointer-events="none" fill="none" stroke="white" stroke-width="1.5" d="M0,-3.0v7 M-2.5,-0.5L0,-3.0L2.5,-0.5"/>
  </g>
  <g id="arrowLeft" transform="rotate(270) translate(-36 17)">
    <use xlink:href="#rim"/>
    <path pointer-events="none" fill="none" stroke="white" stroke-width="1.5" d="M0,-3.0v7 M-2.5,-0.5L0,-3.0L2.5,-0.5"/>
  </g>
  <g id="resetDef">
    <use xlink:href="#rim2" fill="#404040"><set attributeName="fill" to="#808080" begin="reset.mouseover" end="reset.mouseout"/></use>
  </g>
</defs>
<script type="application/ecmascript">
var viewWidth = 656;
var viewHeight = 351;
var sectionId = 'dynsection-9';
</script>
<script type="application/ecmascript" xlink:href="svg.min.js"/>
<svg id="graph" class="graph">
<g id="viewport">
<title>lmms::PatternTrack::findPatternTrack</title>
<!-- Node1 -->
<g id="Node000001" class="node">
<title>Node1</title>
<g id="a_Node000001"><a xlink:title=" ">
<polygon fill="#999999" stroke="#666666" points="647.5,-213.5 546.75,-213.5 546.75,-183 647.5,-183 647.5,-213.5"/>
<text xml:space="preserve" text-anchor="start" x="554.75" y="-200" font-family="Helvetica,sans-Serif" font-size="10.00">lmms::PatternTrack</text>
<text xml:space="preserve" text-anchor="middle" x="597.12" y="-188.75" font-family="Helvetica,sans-Serif" font-size="10.00">::findPatternTrack</text>
</a>
</g>
</g>
<!-- Node2 -->
<g id="Node000002" class="node">
<title>Node2</title>
<g id="a_Node000002"><a xlink:href="classlmms_1_1gui_1_1PatternEditor.html#a8615d974337d26c4d42121b33651ee52" target="_top" xlink:title=" ">
<polygon fill="white" stroke="#666666" points="493.88,-342.5 375.88,-342.5 375.88,-312 493.88,-312 493.88,-342.5"/>
<text xml:space="preserve" text-anchor="start" x="383.88" y="-329" font-family="Helvetica,sans-Serif" font-size="10.00">lmms::gui::PatternEditor</text>
<text xml:space="preserve" text-anchor="middle" x="434.88" y="-317.75" font-family="Helvetica,sans-Serif" font-size="10.00">::cloneClip</text>
</a>
</g>
</g>
<!-- Node1&#45;&gt;Node2 -->
<g id="edge1_Node000001_Node000002" class="edge">
<title>Node1&#45;&gt;Node2</title>
<g id="a_edge1_Node000001_Node000002"><a xlink:title=" ">
<path fill="none" stroke="#63b8ff" d="M581.44,-223.25C566.44,-246.76 541.09,-281.37 510.75,-302.25 505.56,-305.82 499.81,-308.92 493.88,-311.6"/>
<polygon fill="#63b8ff" stroke="#63b8ff" points="584.32,-225.26 586.61,-214.91 578.37,-221.57 584.32,-225.26"/>
</a>
</g>
</g>
<!-- Node3 -->
<g id="Node000003" class="node">
<title>Node3</title>
<g id="a_Node000003"><a xlink:href="classlmms_1_1InstrumentTrack.html#a9d13e34e0a2fdc985f653b0041594cb2" target="_top" xlink:title=" ">
<polygon fill="white" stroke="#666666" points="492.75,-293.5 377,-293.5 377,-263 492.75,-263 492.75,-293.5"/>
<text xml:space="preserve" text-anchor="start" x="385" y="-280" font-family="Helvetica,sans-Serif" font-size="10.00">lmms::InstrumentTrack</text>
<text xml:space="preserve" text-anchor="middle" x="434.88" y="-268.75" font-family="Helvetica,sans-Serif" font-size="10.00">::play</text>
</a>
</g>
</g>
<!-- Node1&#45;&gt;Node3 -->
<g id="edge2_Node000001_Node000003" class="edge">
<title>Node1&#45;&gt;Node3</title>
<g id="a_edge2_Node000001_Node000003"><a xlink:title=" ">
<path fill="none" stroke="#63b8ff" d="M566.38,-220.63C550.48,-231.84 530.22,-244.95 510.75,-254.25 504.34,-257.31 497.45,-260.11 490.53,-262.64"/>
<polygon fill="#63b8ff" stroke="#63b8ff" points="568.36,-223.52 574.43,-214.84 564.27,-217.84 568.36,-223.52"/>
</a>
</g>
</g>
<!-- Node4 -->
<g id="Node000004" class="node">
<title>Node4</title>
<g id="a_Node000004"><a xlink:href="classlmms_1_1SampleTrack.html#a501a6ecb6ea86ebf6a84759de48e2545" target="_top" xlink:title=" ">
<polygon fill="white" stroke="#666666" points="496.88,-244.88 372.88,-244.88 372.88,-225.62 496.88,-225.62 496.88,-244.88"/>
<text xml:space="preserve" text-anchor="middle" x="434.88" y="-231.38" font-family="Helvetica,sans-Serif" font-size="10.00">lmms::SampleTrack::play</text>
</a>
</g>
</g>
<!-- Node1&#45;&gt;Node4 -->
<g id="edge3_Node000001_Node000004" class="edge">
<title>Node1&#45;&gt;Node4</title>
<g id="a_edge3_Node000001_Node000004"><a xlink:title=" ">
<path fill="none" stroke="#63b8ff" d="M535.31,-212.29C516.81,-216.56 496.85,-221.17 479.7,-225.13"/>
<polygon fill="#63b8ff" stroke="#63b8ff" points="535.87,-215.75 544.82,-210.09 534.29,-208.93 535.87,-215.75"/>
</a>
</g>
</g>
<!-- Node5 -->
<g id="Node000005" class="node">
<title>Node5</title>
<g id="a_Node000005"><a xlink:href="classlmms_1_1Song.html#abb55419e8eabaed5d3693e94edfb9f95" target="_top" xlink:title=" ">
<polygon fill="white" stroke="#666666" points="510.75,-207.88 359,-207.88 359,-188.62 510.75,-188.62 510.75,-207.88"/>
<text xml:space="preserve" text-anchor="middle" x="434.88" y="-194.38" font-family="Helvetica,sans-Serif" font-size="10.00">lmms::Song::processNextBuffer</text>
</a>
</g>
</g>
<!-- Node1&#45;&gt;Node5 -->
<g id="edge4_Node000001_Node000005" class="edge">
<title>Node1&#45;&gt;Node5</title>
<g id="a_edge4_Node000001_Node000005"><a xlink:title=" ">
<path fill="none" stroke="#63b8ff" d="M535,-198.25C527.14,-198.25 519.02,-198.25 510.97,-198.25"/>
<polygon fill="#63b8ff" stroke="#63b8ff" points="534.79,-201.75 544.79,-198.25 534.79,-194.75 534.79,-201.75"/>
</a>
</g>
</g>
<!-- Node15 -->
<g id="Node000015" class="node">
<title>Node15</title>
<g id="a_Node000015"><a xlink:href="classlmms_1_1PatternStore.html#ac2d1c8cec570f0e7aabae22372b6bdfc" target="_top" xlink:title=" ">
<polygon fill="white" stroke="#666666" points="484.5,-129.5 385.25,-129.5 385.25,-99 484.5,-99 484.5,-129.5"/>
<text xml:space="preserve" text-anchor="start" x="393.25" y="-116" font-family="Helvetica,sans-Serif" font-size="10.00">lmms::PatternStore</text>
<text xml:space="preserve" text-anchor="middle" x="434.88" y="-104.75" font-family="Helvetica,sans-Serif" font-size="10.00">::updateComboBox</text>
</a>
</g>
</g>
<!-- Node1&#45;&gt;Node15 -->
<g id="edge7_Node000001_Node000015" class="edge">
<title>Node1&#45;&gt;Node15</title>
<g id="a_edge7_Node000001_Node000015"><a xlink:title=" ">
<path fill="none" stroke="#63b8ff" d="M562.71,-176.37C547.2,-166.61 528.34,-155.31 510.75,-146.25 499.56,-140.49 487.11,-134.87 475.61,-129.98"/>
<polygon fill="#63b8ff" stroke="#63b8ff" points="560.77,-179.28 571.09,-181.7 564.53,-173.38 560.77,-179.28"/>
</a>
</g>
</g>
<!-- Node26 -->
<g id="Node000026" class="node">
<title>Node26</title>
<g id="a_Node000026"><a xlink:href="classlmms_1_1PatternStore.html#a830bccf616ac22f4812f18570be8976e" target="_top" xlink:title=" ">
<polygon fill="white" stroke="#666666" points="487.88,-56.5 381.88,-56.5 381.88,-26 487.88,-26 487.88,-56.5"/>
<text xml:space="preserve" text-anchor="start" x="389.88" y="-43" font-family="Helvetica,sans-Serif" font-size="10.00">lmms::PatternStore</text>
<text xml:space="preserve" text-anchor="middle" x="434.88" y="-31.75" font-family="Helvetica,sans-Serif" font-size="10.00">::updatePatternTrack</text>
</a>
</g>
</g>
<!-- Node1&#45;&gt;Node26 -->
<g id="edge14_Node000001_Node000026" class="edge">
<title>Node1&#45;&gt;Node26</title>
<g id="a_edge14_Node000001_Node000026"><a xlink:title=" ">
<path fill="none" stroke="#63b8ff" d="M579.79,-173.17C563.93,-149.98 538.25,-115.4 510.75,-90.25 496.76,-77.46 479.1,-65.73 464.45,-56.96"/>
<polygon fill="#63b8ff" stroke="#63b8ff" points="576.84,-175.05 585.32,-181.39 582.65,-171.14 576.84,-175.05"/>
</a>
</g>
</g>
<!-- Node6 -->
<g id="Node000006" class="node">
<title>Node6</title>
<g id="a_Node000006"><a xlink:href="classlmms_1_1AudioEngine.html#a611b3bfeb904c4c93074dd135908b0da" target="_top" xlink:title=" ">
<polygon fill="white" stroke="#666666" points="308.38,-226.5 193.38,-226.5 193.38,-196 308.38,-196 308.38,-226.5"/>
<text xml:space="preserve" text-anchor="start" x="201.38" y="-213" font-family="Helvetica,sans-Serif" font-size="10.00">lmms::AudioEngine::</text>
<text xml:space="preserve" text-anchor="middle" x="250.88" y="-201.75" font-family="Helvetica,sans-Serif" font-size="10.00">renderStageNoteSetup</text>
</a>
</g>
</g>
<!-- Node5&#45;&gt;Node6 -->
<g id="edge5_Node000005_Node000006" class="edge">
<title>Node5&#45;&gt;Node6</title>
<g id="a_edge5_Node000005_Node000006"><a xlink:title=" ">
<path fill="none" stroke="#63b8ff" d="M347.15,-204.44C334.13,-205.37 321,-206.31 308.81,-207.18"/>
<polygon fill="#63b8ff" stroke="#63b8ff" points="347.3,-207.94 357.03,-203.74 346.8,-200.96 347.3,-207.94"/>
</a>
</g>
</g>
<!-- Node7 -->
<g id="Node000007" class="node">
<title>Node7</title>
<g id="a_Node000007"><a xlink:href="classlmms_1_1AudioEngine.html#a8500391cfa7815e0dcc1e2e0839242d9" target="_top" xlink:title=" ">
<polygon fill="#fff0f0" stroke="red" points="122.88,-226.5 19.88,-226.5 19.88,-196 122.88,-196 122.88,-226.5"/>
<text xml:space="preserve" text-anchor="start" x="27.88" y="-213" font-family="Helvetica,sans-Serif" font-size="10.00">lmms::AudioEngine::</text>
<text xml:space="preserve" text-anchor="middle" x="71.38" y="-201.75" font-family="Helvetica,sans-Serif" font-size="10.00">renderNextBuffer</text>
</a>
</g>
</g>
<!-- Node6&#45;&gt;Node7 -->
<g id="edge6_Node000006_Node000007" class="edge">
<title>Node6&#45;&gt;Node7</title>
<g id="a_edge6_Node000006_Node000007"><a xlink:title=" ">
<path fill="none" stroke="#63b8ff" d="M181.91,-211.25C162.37,-211.25 141.4,-211.25 123.09,-211.25"/>
<polygon fill="#63b8ff" stroke="#63b8ff" points="181.71,-214.75 191.71,-211.25 181.71,-207.75 181.71,-214.75"/>
</a>
</g>
</g>
<!-- Node16 -->
<g id="Node000016" class="node">
<title>Node16</title>
<g id="a_Node000016"><a xlink:href="classlmms_1_1PatternTrack.html#a26f49071b4375c5fb1dcac6898e114aa" target="_top" xlink:title=" ">
<polygon fill="white" stroke="#666666" points="301.25,-177.5 200.5,-177.5 200.5,-147 301.25,-147 301.25,-177.5"/>
<text xml:space="preserve" text-anchor="start" x="208.5" y="-164" font-family="Helvetica,sans-Serif" font-size="10.00">lmms::PatternTrack</text>
<text xml:space="preserve" text-anchor="middle" x="250.88" y="-152.75" font-family="Helvetica,sans-Serif" font-size="10.00">::PatternTrack</text>
</a>
</g>
</g>
<!-- Node15&#45;&gt;Node16 -->
<g id="edge8_Node000015_Node000016" class="edge">
<title>Node15&#45;&gt;Node16</title>
<g id="a_edge8_Node000015_Node000016"><a xlink:title=" ">
<path fill="none" stroke="#63b8ff" d="M374.22,-129.98C350.77,-136.17 324.14,-143.19 301.73,-149.1"/>
<polygon fill="#63b8ff" stroke="#63b8ff" points="374.86,-133.43 383.64,-127.5 373.08,-126.67 374.86,-133.43"/>
</a>
</g>
</g>
<!-- Node24 -->
<g id="Node000024" class="node">
<title>Node24</title>
<g id="a_Node000024"><a xlink:href="classlmms_1_1PatternStore.html#af411034d48e92901b3f1242e187f6800" target="_top" xlink:title=" ">
<polygon fill="white" stroke="#666666" points="300.5,-128.5 201.25,-128.5 201.25,-98 300.5,-98 300.5,-128.5"/>
<text xml:space="preserve" text-anchor="start" x="209.25" y="-115" font-family="Helvetica,sans-Serif" font-size="10.00">lmms::PatternStore</text>
<text xml:space="preserve" text-anchor="middle" x="250.88" y="-103.75" font-family="Helvetica,sans-Serif" font-size="10.00">::swapPattern</text>
</a>
</g>
</g>
<!-- Node15&#45;&gt;Node24 -->
<g id="edge11_Node000015_Node000024" class="edge">
<title>Node15&#45;&gt;Node24</title>
<g id="a_edge11_Node000015_Node000024"><a xlink:title=" ">
<path fill="none" stroke="#63b8ff" d="M373.77,-113.92C350.09,-113.79 323.24,-113.64 300.78,-113.52"/>
<polygon fill="#63b8ff" stroke="#63b8ff" points="373.57,-117.42 383.59,-113.97 373.61,-110.42 373.57,-117.42"/>
</a>
</g>
</g>
<!-- Node25 -->
<g id="Node000025" class="node">
<title>Node25</title>
<g id="a_Node000025"><a xlink:href="classlmms_1_1PatternTrack.html#a3830b6074b52df3e70f67699a358c438" target="_top" xlink:title=" ">
<polygon fill="white" stroke="#666666" points="301.25,-79.5 200.5,-79.5 200.5,-49 301.25,-49 301.25,-79.5"/>
<text xml:space="preserve" text-anchor="start" x="208.5" y="-66" font-family="Helvetica,sans-Serif" font-size="10.00">lmms::PatternTrack</text>
<text xml:space="preserve" text-anchor="middle" x="250.88" y="-54.75" font-family="Helvetica,sans-Serif" font-size="10.00">::~PatternTrack</text>
</a>
</g>
</g>
<!-- Node15&#45;&gt;Node25 -->
<g id="edge13_Node000015_Node000025" class="edge">
<title>Node15&#45;&gt;Node25</title>
<g id="a_edge13_Node000015_Node000025"><a xlink:title=" ">
<path fill="none" stroke="#63b8ff" d="M374.22,-97.86C350.77,-91.42 324.14,-84.1 301.73,-77.95"/>
<polygon fill="#63b8ff" stroke="#63b8ff" points="373.07,-101.18 383.64,-100.45 374.93,-94.43 373.07,-101.18"/>
</a>
</g>
</g>
<!-- Node16&#45;&gt;Node1 -->
<g id="edge9_Node000016_Node000001" class="edge">
<title>Node16&#45;&gt;Node1</title>
<g id="a_edge9_Node000016_Node000001"><a xlink:title=" ">
<path fill="none" stroke="#63b8ff" d="M313.23,-163.63C365.86,-165.45 443.6,-169.63 510.75,-179.25 522.32,-180.91 534.66,-183.29 546.25,-185.8"/>
<polygon fill="#63b8ff" stroke="#63b8ff" points="313.36,-160.13 303.25,-163.31 313.13,-167.13 313.36,-160.13"/>
</a>
</g>
</g>
<!-- Node17 -->
<g id="Node000017" class="node">
<title>Node17</title>
<g id="a_Node000017"><a xlink:href="classlmms_1_1PatternTrack.html#aa683933dfdffe9b7ca96bbe0fe05cdc0" target="_top" xlink:title=" ">
<polygon fill="#fff0f0" stroke="red" points="124,-152.5 18.75,-152.5 18.75,-122 124,-122 124,-152.5"/>
<text xml:space="preserve" text-anchor="start" x="26.75" y="-139" font-family="Helvetica,sans-Serif" font-size="10.00">lmms::PatternTrack</text>
<text xml:space="preserve" text-anchor="middle" x="71.38" y="-127.75" font-family="Helvetica,sans-Serif" font-size="10.00">::swapPatternTracks</text>
</a>
</g>
</g>
<!-- Node16&#45;&gt;Node17 -->
<g id="edge10_Node000016_Node000017" class="edge">
<title>Node16&#45;&gt;Node17</title>
<g id="a_edge10_Node000016_Node000017"><a xlink:title=" ">
<path fill="none" stroke="#63b8ff" d="M189.31,-153.72C168.19,-150.75 144.7,-147.44 124.34,-144.57"/>
<polygon fill="#63b8ff" stroke="#63b8ff" points="188.54,-157.15 198.93,-155.08 189.52,-150.21 188.54,-157.15"/>
</a>
</g>
</g>
<!-- Node24&#45;&gt;Node17 -->
<g id="edge12_Node000024_Node000017" class="edge">
<title>Node24&#45;&gt;Node17</title>
<g id="a_edge12_Node000024_Node000017"><a xlink:title=" ">
<path fill="none" stroke="#63b8ff" d="M189.72,-121.38C168.48,-124.26 144.79,-127.46 124.29,-130.23"/>
<polygon fill="#63b8ff" stroke="#63b8ff" points="189.96,-124.88 199.4,-120.07 189.02,-117.95 189.96,-124.88"/>
</a>
</g>
</g>
<!-- Node27 -->
<g id="Node000027" class="node">
<title>Node27</title>
<g id="a_Node000027"><a xlink:href="classlmms_1_1MidiClip.html#adb8b31d36a04ef111a606334fea578a9" target="_top" xlink:title=" ">
<polygon fill="white" stroke="#666666" points="323,-30.5 178.75,-30.5 178.75,0 323,0 323,-30.5"/>
<text xml:space="preserve" text-anchor="start" x="186.75" y="-17" font-family="Helvetica,sans-Serif" font-size="10.00">lmms::MidiClip::updatePattern</text>
<text xml:space="preserve" text-anchor="middle" x="250.88" y="-5.75" font-family="Helvetica,sans-Serif" font-size="10.00">Track</text>
</a>
</g>
</g>
<!-- Node26&#45;&gt;Node27 -->
<g id="edge15_Node000026_Node000027" class="edge">
<title>Node26&#45;&gt;Node27</title>
<g id="a_edge15_Node000026_Node000027"><a xlink:title=" ">
<path fill="none" stroke="#63b8ff" d="M370.36,-32.18C355.18,-30.01 338.88,-27.68 323.37,-25.46"/>
<polygon fill="#63b8ff" stroke="#63b8ff" points="369.83,-35.64 380.22,-33.59 370.82,-28.71 369.83,-35.64"/>
</a>
</g>
</g>
<!-- Node28 -->
<g id="Node000028" class="node">
<title>Node28</title>
<g id="a_Node000028"><a xlink:href="classlmms_1_1MidiClip.html#a2815315e632b0a3c1d000d99ad6d8748" target="_top" xlink:title=" ">
<polygon fill="#fff0f0" stroke="red" points="142.75,-24.88 0,-24.88 0,-5.63 142.75,-5.63 142.75,-24.88"/>
<text xml:space="preserve" text-anchor="middle" x="71.38" y="-11.38" font-family="Helvetica,sans-Serif" font-size="10.00">lmms::MidiClip::updateLength</text>
</a>
</g>
</g>
<!-- Node27&#45;&gt;Node28 -->
<g id="edge16_Node000027_Node000028" class="edge">
<title>Node27&#45;&gt;Node28</title>
<g id="a_edge16_Node000027_Node000028"><a xlink:title=" ">
<path fill="none" stroke="#63b8ff" d="M167.15,-15.25C159.1,-15.25 150.99,-15.25 143.08,-15.25"/>
<polygon fill="#63b8ff" stroke="#63b8ff" points="166.93,-18.75 176.93,-15.25 166.93,-11.75 166.93,-18.75"/>
</a>
</g>
</g>
</g>
</svg>

<g id="navigator" transform="translate(0 0)" fill="#404254">
  <rect fill="#f2f5e9" fill-opacity="0.5" stroke="#606060" stroke-width=".5" x="0" y="0" width="60" height="60"/>
  <use id="zoomplus" xlink:href="#zoomPlus" x="17" y="9" onmousedown="handleZoom(evt,'in')"/>
  <use id="zoomminus" xlink:href="#zoomMin" x="42" y="9" onmousedown="handleZoom(evt,'out')"/>
  <use id="reset" xlink:href="#resetDef" x="30" y="36" onmousedown="handleReset()"/>
   <use id="arrowup" xlink:href="#arrowUp" x="0" y="0" onmousedown="handlePan(0,-1)"/>
  <use id="arrowright" xlink:href="#arrowRight" x="0" y="0" onmousedown="handlePan(1,0)"/>
  <use id="arrowdown" xlink:href="#arrowDown" x="0" y="0" onmousedown="handlePan(0,1)"/>
  <use id="arrowleft" xlink:href="#arrowLeft" x="0" y="0" onmousedown="handlePan(-1,0)"/>
</g>
<svg viewBox="0 0 15 15" width="100%" height="30px" preserveAspectRatio="xMaxYMin meet">
 <g id="arrow_out" transform="scale(0.3 0.3)">
  <a xlink:href="classlmms_1_1PatternTrack_a43831b38736a3dca869ebc0d4a0a775c_icgraph_org.svg" target="_base">
   <rect id="button" ry="5" rx="5" y="6" x="6" height="38" width="38"
        fill="#f2f5e9" fill-opacity="0.5" stroke="#606060" stroke-width="1.0"/>
   <path id="arrow"
     d="M 11.500037,31.436501 C 11.940474,20.09759 22.043105,11.32322 32.158766,21.979434 L 37.068811,17.246167 C 37.068811,17.246167 37.088388,32 37.088388,32 L 22.160133,31.978069 C 22.160133,31.978069 26.997745,27.140456 26.997745,27.140456 C 18.528582,18.264221 13.291696,25.230495 11.500037,31.436501 z"
     style="fill:#404040;"/>
  </a>
 </g>
</svg>

<style type='text/css'>
<![CDATA[
[data-mouse-over-selected='false'] { opacity: 0.7; }
[data-mouse-over-selected='true']  { opacity: 1.0; }
]]>
</style>
<script type="application/ecmascript"><![CDATA[
document.addEventListener('DOMContentLoaded', (event) => {
  highlightEdges();
  highlightAdjacentNodes();
});
]]></script>
</svg>
