<?xml version="1.0" encoding="UTF-8" standalone="no"?>
<!DOCTYPE svg PUBLIC "-//W3C//DTD SVG 1.1//EN"
 "http://www.w3.org/Graphics/SVG/1.1/DTD/svg11.dtd">
<!-- Generated by graphviz version 14.0.2 (0)
 -->
<!-- Title: lmms::gui::PianoRoll::updatePosition Pages: 1 -->
<svg width="436pt" height="199pt"
 viewBox="0.00 0.00 436.00 199.00" xmlns="http://www.w3.org/2000/svg" xmlns:xlink="http://www.w3.org/1999/xlink">

<svg id="main" version="1.1" xmlns="http://www.w3.org/2000/svg" xmlns:xlink="http://www.w3.org/1999/xlink" xml:space="preserve">

<style type="text/css"><![CDATA[
.node, .edge {opacity: 0.7;}
.node.selected, .edge.selected {opacity: 1;}
.edge:hover path { stroke: red; }
.edge:hover polygon { stroke: red; fill: red; }
]]></style>
<script type="application/ecmascript" xlink:href="svg.min.js"/>
<svg id="graph" class="graph">
<g id="graph0" class="graph" transform="scale(1 1) rotate(0) translate(4 194.5)">
<title>lmms::gui::PianoRoll::updatePosition</title>
<!-- Node1 -->
<g id="Node000001" class="node">
<title>Node1</title>
<g id="a_Node000001"><a xlink:title=" ">
<polygon fill="#999999" stroke="#666666" points="103,-110.5 0,-110.5 0,-80 103,-80 103,-110.5"/>
<text xml:space="preserve" text-anchor="start" x="8" y="-97" font-family="Helvetica,sans-Serif" font-size="10.00">lmms::gui::PianoRoll</text>
<text xml:space="preserve" text-anchor="middle" x="51.5" y="-85.75" font-family="Helvetica,sans-Serif" font-size="10.00">::updatePosition</text>
</a>
</g>
</g>
<!-- Node1&#45;&gt;Node1 -->
<g id="edge9_Node000001_Node000001" class="edge">
<title>Node1&#45;&gt;Node1</title>
<g id="a_edge9_Node000001_Node000001"><a xlink:title=" ">
<path fill="none" stroke="#63b8ff" d="M25.87,-110.99C20.64,-120.06 29.18,-128.5 51.5,-128.5 63.7,-128.5 71.79,-125.97 75.75,-122.2"/>
<polygon fill="#63b8ff" stroke="#63b8ff" points="79.2,-122.84 76.94,-112.49 72.25,-121.99 79.2,-122.84"/>
</a>
</g>
</g>
<!-- Node2 -->
<g id="Node000002" class="node">
<title>Node2</title>
<g id="a_Node000002"><a xlink:href="classlmms_1_1gui_1_1PianoRoll.html#a1d3202c8a2a2c03450b12a2f3f473188" target="_top" xlink:title=" ">
<polygon fill="white" stroke="#666666" points="247.62,-172.5 144.62,-172.5 144.62,-142 247.62,-142 247.62,-172.5"/>
<text xml:space="preserve" text-anchor="start" x="152.62" y="-159" font-family="Helvetica,sans-Serif" font-size="10.00">lmms::gui::PianoRoll</text>
<text xml:space="preserve" text-anchor="middle" x="196.12" y="-147.75" font-family="Helvetica,sans-Serif" font-size="10.00">::autoScroll</text>
</a>
</g>
</g>
<!-- Node1&#45;&gt;Node2 -->
<g id="edge1_Node000001_Node000002" class="edge">
<title>Node1&#45;&gt;Node2</title>
<g id="a_edge1_Node000001_Node000002"><a xlink:title=" ">
<path fill="none" stroke="#63b8ff" d="M88.49,-110.9C106.73,-118.83 129.1,-128.55 148.63,-137.04"/>
<polygon fill="#63b8ff" stroke="#63b8ff" points="147.19,-140.23 157.76,-141.01 149.98,-133.81 147.19,-140.23"/>
</a>
</g>
</g>
<!-- Node4 -->
<g id="Node000004" class="node">
<title>Node4</title>
<g id="a_Node000004"><a xlink:href="classlmms_1_1TimePos.html#ac47e9df2390423d50a509c8ba0167e83" target="_top" xlink:title=" ">
<polygon fill="white" stroke="#666666" points="428.25,-126.88 289.25,-126.88 289.25,-107.62 428.25,-107.62 428.25,-126.88"/>
<text xml:space="preserve" text-anchor="middle" x="358.75" y="-113.38" font-family="Helvetica,sans-Serif" font-size="10.00">lmms::TimePos::ticksPerBar</text>
</a>
</g>
</g>
<!-- Node1&#45;&gt;Node4 -->
<g id="edge8_Node000001_Node000004" class="edge">
<title>Node1&#45;&gt;Node4</title>
<g id="a_edge8_Node000001_Node000004"><a xlink:title=" ">
<path fill="none" stroke="#63b8ff" d="M103.25,-98.91C150.75,-102.33 222.48,-107.5 277.7,-111.48"/>
<polygon fill="#63b8ff" stroke="#63b8ff" points="277.12,-114.95 287.35,-112.18 277.63,-107.97 277.12,-114.95"/>
</a>
</g>
</g>
<!-- Node5 -->
<g id="Node000005" class="node">
<title>Node5</title>
<g id="a_Node000005"><a xlink:href="classlmms_1_1Engine.html#a8b943018d0245555391473f4a7d75b5b" target="_top" xlink:title=" ">
<polygon fill="white" stroke="#666666" points="253.25,-85.88 139,-85.88 139,-66.62 253.25,-66.62 253.25,-85.88"/>
<text xml:space="preserve" text-anchor="middle" x="196.12" y="-72.38" font-family="Helvetica,sans-Serif" font-size="10.00">lmms::Engine::getSong</text>
</a>
</g>
</g>
<!-- Node1&#45;&gt;Node5 -->
<g id="edge5_Node000001_Node000005" class="edge">
<title>Node1&#45;&gt;Node5</title>
<g id="a_edge5_Node000001_Node000005"><a xlink:title=" ">
<path fill="none" stroke="#63b8ff" d="M103.19,-88.5C111.11,-87.44 119.41,-86.34 127.64,-85.24"/>
<polygon fill="#63b8ff" stroke="#63b8ff" points="127.83,-88.75 137.28,-83.96 126.91,-81.81 127.83,-88.75"/>
</a>
</g>
</g>
<!-- Node6 -->
<g id="Node000006" class="node">
<title>Node6</title>
<g id="a_Node000006"><a xlink:href="classlmms_1_1gui_1_1PianoRoll.html#a307006a8ce19719cb38d9103a1fd676b" target="_top" xlink:title=" ">
<polygon fill="white" stroke="#666666" points="247.62,-30.5 144.62,-30.5 144.62,0 247.62,0 247.62,-30.5"/>
<text xml:space="preserve" text-anchor="start" x="152.62" y="-17" font-family="Helvetica,sans-Serif" font-size="10.00">lmms::gui::PianoRoll</text>
<text xml:space="preserve" text-anchor="middle" x="196.12" y="-5.75" font-family="Helvetica,sans-Serif" font-size="10.00">::keyAreaTop</text>
</a>
</g>
</g>
<!-- Node1&#45;&gt;Node6 -->
<g id="edge6_Node000001_Node000006" class="edge">
<title>Node1&#45;&gt;Node6</title>
<g id="a_edge6_Node000001_Node000006"><a xlink:title=" ">
<path fill="none" stroke="#63b8ff" d="M80.34,-79.64C102.33,-67.3 133.24,-49.96 157.44,-36.39"/>
<polygon fill="#63b8ff" stroke="#63b8ff" points="159.03,-39.51 166.04,-31.57 155.6,-33.41 159.03,-39.51"/>
</a>
</g>
</g>
<!-- Node2&#45;&gt;Node2 -->
<g id="edge2_Node000002_Node000002" class="edge">
<title>Node2&#45;&gt;Node2</title>
<g id="a_edge2_Node000002_Node000002"><a xlink:title=" ">
<path fill="none" stroke="#63b8ff" d="M170.5,-172.99C165.27,-182.06 173.81,-190.5 196.12,-190.5 208.33,-190.5 216.41,-187.97 220.38,-184.2"/>
<polygon fill="#63b8ff" stroke="#63b8ff" points="223.83,-184.84 221.57,-174.49 216.88,-183.99 223.83,-184.84"/>
</a>
</g>
</g>
<!-- Node3 -->
<g id="Node000003" class="node">
<title>Node3</title>
<g id="a_Node000003"><a xlink:href="classlmms_1_1TimePos.html#a2b4296b769b901cc2800668c34a89fa7" target="_top" xlink:title=" ">
<polygon fill="white" stroke="#666666" points="417,-166.88 300.5,-166.88 300.5,-147.62 417,-147.62 417,-166.88"/>
<text xml:space="preserve" text-anchor="middle" x="358.75" y="-153.38" font-family="Helvetica,sans-Serif" font-size="10.00">lmms::TimePos::getBar</text>
</a>
</g>
</g>
<!-- Node2&#45;&gt;Node3 -->
<g id="edge3_Node000002_Node000003" class="edge">
<title>Node2&#45;&gt;Node3</title>
<g id="a_edge3_Node000002_Node000003"><a xlink:title=" ">
<path fill="none" stroke="#63b8ff" d="M247.95,-157.25C260.94,-157.25 275.14,-157.25 288.88,-157.25"/>
<polygon fill="#63b8ff" stroke="#63b8ff" points="288.76,-160.75 298.76,-157.25 288.76,-153.75 288.76,-160.75"/>
</a>
</g>
</g>
<!-- Node2&#45;&gt;Node4 -->
<g id="edge4_Node000002_Node000004" class="edge">
<title>Node2&#45;&gt;Node4</title>
<g id="a_edge4_Node000002_Node000004"><a xlink:title=" ">
<path fill="none" stroke="#63b8ff" d="M247.95,-144.59C266.53,-139.97 287.56,-134.73 306.2,-130.09"/>
<polygon fill="#63b8ff" stroke="#63b8ff" points="306.84,-133.54 315.7,-127.72 305.15,-126.74 306.84,-133.54"/>
</a>
</g>
</g>
<!-- Node6&#45;&gt;Node6 -->
<g id="edge7_Node000006_Node000006" class="edge">
<title>Node6&#45;&gt;Node6</title>
<g id="a_edge7_Node000006_Node000006"><a xlink:title=" ">
<path fill="none" stroke="#63b8ff" d="M170.5,-30.99C165.27,-40.06 173.81,-48.5 196.12,-48.5 208.33,-48.5 216.41,-45.97 220.38,-42.2"/>
<polygon fill="#63b8ff" stroke="#63b8ff" points="223.83,-42.84 221.57,-32.49 216.88,-41.99 223.83,-42.84"/>
</a>
</g>
</g>
</g>
</svg>
</svg>

<style type='text/css'>
<![CDATA[
[data-mouse-over-selected='false'] { opacity: 0.7; }
[data-mouse-over-selected='true']  { opacity: 1.0; }
]]>
</style>
<script type="application/ecmascript"><![CDATA[
document.addEventListener('DOMContentLoaded', (event) => {
  highlightEdges();
  highlightAdjacentNodes();
});
]]></script>
</svg>
