<?xml version="1.0" encoding="UTF-8" standalone="no"?>
<!DOCTYPE svg PUBLIC "-//W3C//DTD SVG 1.1//EN"
 "http://www.w3.org/Graphics/SVG/1.1/DTD/svg11.dtd">
<!-- Generated by graphviz version 14.0.2 (0)
 -->
<!-- Title: juce::Expression::getNumInputs Pages: 1 -->
<svg width="341pt" height="57pt"
 viewBox="0.00 0.00 341.00 57.00" xmlns="http://www.w3.org/2000/svg" xmlns:xlink="http://www.w3.org/1999/xlink">
<g id="graph0" class="graph" transform="scale(1 1) rotate(0) translate(4 52.5)">
<title>juce::Expression::getNumInputs</title>
<!-- Node1 -->
<g id="Node000001" class="node">
<title>Node1</title>
<g id="a_Node000001"><a xlink:title=" ">
<polygon fill="#999999" stroke="#666666" points="332.75,-30.5 208,-30.5 208,0 332.75,0 332.75,-30.5"/>
<text xml:space="preserve" text-anchor="start" x="216" y="-17" font-family="Helvetica,sans-Serif" font-size="10.00">juce::Expression::getNum</text>
<text xml:space="preserve" text-anchor="middle" x="270.38" y="-5.75" font-family="Helvetica,sans-Serif" font-size="10.00">Inputs</text>
</a>
</g>
</g>
<!-- Node1&#45;&gt;Node1 -->
<g id="edge3_Node000001_Node000001" class="edge">
<title>Node1&#45;&gt;Node1</title>
<g id="a_edge3_Node000001_Node000001"><a xlink:title=" ">
<path fill="none" stroke="#63b8ff" d="M301.29,-42.2C296.24,-45.97 285.93,-48.5 270.38,-48.5 241.93,-48.5 231.04,-40.06 237.7,-30.99"/>
<polygon fill="#63b8ff" stroke="#63b8ff" points="304.73,-42.9 302.81,-32.48 297.81,-41.82 304.73,-42.9"/>
</a>
</g>
</g>
<!-- Node2 -->
<g id="Node000002" class="node">
<title>Node2</title>
<g id="a_Node000002"><a xlink:href="namespacejuce_1_1RelativeRectangleHelpers.html#ad5727f9964f994c37cb3eda5273b40eb" target="_top" xlink:title=" ">
<polygon fill="white" stroke="#666666" points="172,-30.5 0,-30.5 0,0 172,0 172,-30.5"/>
<text xml:space="preserve" text-anchor="start" x="8" y="-17" font-family="Helvetica,sans-Serif" font-size="10.00">juce::RelativeRectangleHelpers</text>
<text xml:space="preserve" text-anchor="middle" x="86" y="-5.75" font-family="Helvetica,sans-Serif" font-size="10.00">::dependsOnSymbolsOtherThanThis</text>
</a>
</g>
</g>
<!-- Node1&#45;&gt;Node2 -->
<g id="edge1_Node000001_Node000002" class="edge">
<title>Node1&#45;&gt;Node2</title>
<g id="a_edge1_Node000001_Node000002"><a xlink:title=" ">
<path fill="none" stroke="#63b8ff" d="M196.25,-15.25C188.37,-15.25 180.3,-15.25 172.3,-15.25"/>
<polygon fill="#63b8ff" stroke="#63b8ff" points="196.12,-18.75 206.12,-15.25 196.12,-11.75 196.12,-18.75"/>
</a>
</g>
</g>
<!-- Node2&#45;&gt;Node2 -->
<g id="edge2_Node000002_Node000002" class="edge">
<title>Node2&#45;&gt;Node2</title>
<g id="a_edge2_Node000002_Node000002"><a xlink:title=" ">
<path fill="none" stroke="#63b8ff" d="M116.92,-42.2C111.86,-45.97 101.56,-48.5 86,-48.5 57.55,-48.5 46.66,-40.06 53.33,-30.99"/>
<polygon fill="#63b8ff" stroke="#63b8ff" points="120.35,-42.9 118.44,-32.48 113.44,-41.82 120.35,-42.9"/>
</a>
</g>
</g>
</g>
</svg>
