<?xml version="1.0" encoding="UTF-8" standalone="no"?>
<!DOCTYPE svg PUBLIC "-//W3C//DTD SVG 1.1//EN"
 "http://www.w3.org/Graphics/SVG/1.1/DTD/svg11.dtd">
<!-- Generated by graphviz version 14.0.2 (0)
 -->
<!-- Title: juce::String::matchesWildcard Pages: 1 -->
<!--zoomable 106 -->

<svg id="main" version="1.1" xmlns="http://www.w3.org/2000/svg" xmlns:xlink="http://www.w3.org/1999/xlink" xml:space="preserve" onload="init(evt)">

<style type="text/css"><![CDATA[
.node, .edge {opacity: 0.7;}
.node.selected, .edge.selected {opacity: 1;}
.edge:hover path { stroke: red; }
.edge:hover polygon { stroke: red; fill: red; }
]]></style>

<defs>
  <circle id="rim" cx="0" cy="0" r="7"/>
  <circle id="rim2" cx="0" cy="0" r="3.5"/>
  <g id="zoomPlus">
    <use xlink:href="#rim" fill="#404040"><set attributeName="fill" to="#808080" begin="zoomplus.mouseover" end="zoomplus.mouseout"/></use>
    <path d="M-4,0h8M0,-4v8" fill="none" stroke="white" stroke-width="1.5" pointer-events="none"/>
  </g>
  <g id="zoomMin">
    <use xlink:href="#rim" fill="#404040"><set attributeName="fill" to="#808080" begin="zoomminus.mouseover" end="zoomminus.mouseout"/></use>
    <path d="M-4,0h8" fill="none" stroke="white" stroke-width="1.5" pointer-events="none"/>
  </g>
  <g id="arrowUp" transform="translate(30 24)">
    <use xlink:href="#rim"/>
    <path pointer-events="none" fill="none" stroke="white" stroke-width="1.5" d="M0,-3.0v7 M-2.5,-0.5L0,-3.0L2.5,-0.5"/>
  </g>
  <g id="arrowRight" transform="rotate(90) translate(36 -43)">
    <use xlink:href="#rim"/>
    <path pointer-events="none" fill="none" stroke="white" stroke-width="1.5" d="M0,-3.0v7 M-2.5,-0.5L0,-3.0L2.5,-0.5"/>
  </g>
  <g id="arrowDown" transform="rotate(180) translate(-30 -48)">
    <use xlink:href="#rim"/>
    <path pointer-events="none" fill="none" stroke="white" stroke-width="1.5" d="M0,-3.0v7 M-2.5,-0.5L0,-3.0L2.5,-0.5"/>
  </g>
  <g id="arrowLeft" transform="rotate(270) translate(-36 17)">
    <use xlink:href="#rim"/>
    <path pointer-events="none" fill="none" stroke="white" stroke-width="1.5" d="M0,-3.0v7 M-2.5,-0.5L0,-3.0L2.5,-0.5"/>
  </g>
  <g id="resetDef">
    <use xlink:href="#rim2" fill="#404040"><set attributeName="fill" to="#808080" begin="reset.mouseover" end="reset.mouseout"/></use>
  </g>
</defs>
<script type="application/ecmascript">
var viewWidth = 608;
var viewHeight = 106;
var sectionId = 'dynsection-155';
</script>
<script type="application/ecmascript" xlink:href="svg.min.js"/>
<svg id="graph" class="graph">
<g id="viewport">
<title>juce::String::matchesWildcard</title>
<!-- Node1 -->
<g id="Node000001" class="node">
<title>Node1</title>
<g id="a_Node000001"><a xlink:title=" ">
<polygon fill="#999999" stroke="#666666" points="143.5,-24.88 0,-24.88 0,-5.63 143.5,-5.63 143.5,-24.88"/>
<text xml:space="preserve" text-anchor="middle" x="71.75" y="-11.38" font-family="Helvetica,sans-Serif" font-size="10.00">juce::String::matchesWildcard</text>
</a>
</g>
</g>
<!-- Node1&#45;&gt;Node1 -->
<g id="edge7_Node000001_Node000001" class="edge">
<title>Node1&#45;&gt;Node1</title>
<g id="a_edge7_Node000001_Node000001"><a xlink:title=" ">
<path fill="none" stroke="#63b8ff" d="M46.06,-25.16C34.34,-33.77 42.9,-42.88 71.75,-42.88 87.98,-42.88 97.79,-39.99 101.18,-35.94"/>
<polygon fill="#63b8ff" stroke="#63b8ff" points="104.52,-34.9 97.94,-26.59 97.91,-37.19 104.52,-34.9"/>
</a>
</g>
</g>
<!-- Node2 -->
<g id="Node000002" class="node">
<title>Node2</title>
<g id="a_Node000002"><a xlink:href="structjuce_1_1WildCardMatcher.html#a39b300a19e5e56c0716170fc3b772993" target="_top" xlink:title=" ">
<polygon fill="white" stroke="#666666" points="292.25,-30.5 179.5,-30.5 179.5,0 292.25,0 292.25,-30.5"/>
<text xml:space="preserve" text-anchor="start" x="187.5" y="-17" font-family="Helvetica,sans-Serif" font-size="10.00">juce::WildCardMatcher</text>
<text xml:space="preserve" text-anchor="middle" x="235.88" y="-5.75" font-family="Helvetica,sans-Serif" font-size="10.00">::matches</text>
</a>
</g>
</g>
<!-- Node1&#45;&gt;Node2 -->
<g id="edge1_Node000001_Node000002" class="edge">
<title>Node1&#45;&gt;Node2</title>
<g id="a_edge1_Node000001_Node000002"><a xlink:title=" ">
<path fill="none" stroke="#63b8ff" d="M143.86,-15.25C151.86,-15.25 160,-15.25 167.94,-15.25"/>
<polygon fill="#63b8ff" stroke="#63b8ff" points="167.9,-18.75 177.9,-15.25 167.9,-11.75 167.9,-18.75"/>
</a>
</g>
</g>
<!-- Node3 -->
<g id="Node000003" class="node">
<title>Node3</title>
<g id="a_Node000003"><a xlink:href="structjuce_1_1WildCardMatcher.html#a30f5b5e03afcfd0dc833a30f59c7e991" target="_top" xlink:title=" ">
<polygon fill="white" stroke="#666666" points="441,-79.5 328.25,-79.5 328.25,-49 441,-49 441,-79.5"/>
<text xml:space="preserve" text-anchor="start" x="336.25" y="-66" font-family="Helvetica,sans-Serif" font-size="10.00">juce::WildCardMatcher</text>
<text xml:space="preserve" text-anchor="middle" x="384.62" y="-54.75" font-family="Helvetica,sans-Serif" font-size="10.00">::characterMatches</text>
</a>
</g>
</g>
<!-- Node2&#45;&gt;Node3 -->
<g id="edge2_Node000002_Node000003" class="edge">
<title>Node2&#45;&gt;Node3</title>
<g id="a_edge2_Node000002_Node000003"><a xlink:title=" ">
<path fill="none" stroke="#63b8ff" d="M283.71,-30.89C297.15,-35.37 311.95,-40.32 325.96,-45"/>
<polygon fill="#63b8ff" stroke="#63b8ff" points="324.45,-48.18 335.04,-48.03 326.67,-41.54 324.45,-48.18"/>
</a>
</g>
</g>
<!-- Node5 -->
<g id="Node000005" class="node">
<title>Node5</title>
<g id="a_Node000005"><a xlink:href="structjuce_1_1WildCardMatcher.html#af7f249cb8c104d6699fd5e201c10343e" target="_top" xlink:title=" ">
<polygon fill="white" stroke="#666666" points="441,-30.5 328.25,-30.5 328.25,0 441,0 441,-30.5"/>
<text xml:space="preserve" text-anchor="start" x="336.25" y="-17" font-family="Helvetica,sans-Serif" font-size="10.00">juce::WildCardMatcher</text>
<text xml:space="preserve" text-anchor="middle" x="384.62" y="-5.75" font-family="Helvetica,sans-Serif" font-size="10.00">::matchesAnywhere</text>
</a>
</g>
</g>
<!-- Node2&#45;&gt;Node5 -->
<g id="edge5_Node000002_Node000005" class="edge">
<title>Node2&#45;&gt;Node5</title>
<g id="a_edge5_Node000002_Node000005"><a xlink:title=" ">
<path fill="none" stroke="#63b8ff" d="M292.35,-8.68C300.3,-8.52 308.54,-8.46 316.68,-8.52"/>
<polygon fill="#63b8ff" stroke="#63b8ff" points="316.51,-12.02 326.55,-8.66 316.6,-5.02 316.51,-12.02"/>
</a>
</g>
</g>
<!-- Node4 -->
<g id="Node000004" class="node">
<title>Node4</title>
<g id="a_Node000004"><a xlink:href="classjuce_1_1CharacterFunctions.html#a0766ac1d4f2cb017c1d6ed8e47fd1384" target="_top" xlink:title=" ">
<polygon fill="white" stroke="#666666" points="600.25,-79.5 477,-79.5 477,-49 600.25,-49 600.25,-79.5"/>
<text xml:space="preserve" text-anchor="start" x="485" y="-66" font-family="Helvetica,sans-Serif" font-size="10.00">juce::CharacterFunctions</text>
<text xml:space="preserve" text-anchor="middle" x="538.62" y="-54.75" font-family="Helvetica,sans-Serif" font-size="10.00">::toLowerCase</text>
</a>
</g>
</g>
<!-- Node3&#45;&gt;Node4 -->
<g id="edge3_Node000003_Node000004" class="edge">
<title>Node3&#45;&gt;Node4</title>
<g id="a_edge3_Node000003_Node000004"><a xlink:title=" ">
<path fill="none" stroke="#63b8ff" d="M441.36,-64.25C449.14,-64.25 457.22,-64.25 465.24,-64.25"/>
<polygon fill="#63b8ff" stroke="#63b8ff" points="465,-67.75 475,-64.25 465,-60.75 465,-67.75"/>
</a>
</g>
</g>
<!-- Node4&#45;&gt;Node4 -->
<g id="edge4_Node000004_Node000004" class="edge">
<title>Node4&#45;&gt;Node4</title>
<g id="a_edge4_Node000004_Node000004"><a xlink:title=" ">
<path fill="none" stroke="#63b8ff" d="M511.34,-79.99C505.77,-89.06 514.86,-97.5 538.62,-97.5 551.62,-97.5 560.23,-94.97 564.45,-91.2"/>
<polygon fill="#63b8ff" stroke="#63b8ff" points="567.9,-91.86 565.72,-81.49 560.95,-90.95 567.9,-91.86"/>
</a>
</g>
</g>
<!-- Node5&#45;&gt;Node2 -->
<g id="edge6_Node000005_Node000002" class="edge">
<title>Node5&#45;&gt;Node2</title>
<g id="a_edge6_Node000005_Node000002"><a xlink:title=" ">
<path fill="none" stroke="#63b8ff" d="M328.07,-21.82C320.12,-21.98 311.88,-22.04 303.74,-21.98"/>
<polygon fill="#63b8ff" stroke="#63b8ff" points="303.92,-18.48 293.87,-21.84 303.82,-25.48 303.92,-18.48"/>
</a>
</g>
</g>
</g>
</svg>

<g id="navigator" transform="translate(0 0)" fill="#404254">
  <rect fill="#f2f5e9" fill-opacity="0.5" stroke="#606060" stroke-width=".5" x="0" y="0" width="60" height="60"/>
  <use id="zoomplus" xlink:href="#zoomPlus" x="17" y="9" onmousedown="handleZoom(evt,'in')"/>
  <use id="zoomminus" xlink:href="#zoomMin" x="42" y="9" onmousedown="handleZoom(evt,'out')"/>
  <use id="reset" xlink:href="#resetDef" x="30" y="36" onmousedown="handleReset()"/>
   <use id="arrowup" xlink:href="#arrowUp" x="0" y="0" onmousedown="handlePan(0,-1)"/>
  <use id="arrowright" xlink:href="#arrowRight" x="0" y="0" onmousedown="handlePan(1,0)"/>
  <use id="arrowdown" xlink:href="#arrowDown" x="0" y="0" onmousedown="handlePan(0,1)"/>
  <use id="arrowleft" xlink:href="#arrowLeft" x="0" y="0" onmousedown="handlePan(-1,0)"/>
</g>
<svg viewBox="0 0 15 15" width="100%" height="30px" preserveAspectRatio="xMaxYMin meet">
 <g id="arrow_out" transform="scale(0.3 0.3)">
  <a xlink:href="classjuce_1_1String_a7fb6b84a567ee51945f3b4082e0f43cf_cgraph_org.svg" target="_base">
   <rect id="button" ry="5" rx="5" y="6" x="6" height="38" width="38"
        fill="#f2f5e9" fill-opacity="0.5" stroke="#606060" stroke-width="1.0"/>
   <path id="arrow"
     d="M 11.500037,31.436501 C 11.940474,20.09759 22.043105,11.32322 32.158766,21.979434 L 37.068811,17.246167 C 37.068811,17.246167 37.088388,32 37.088388,32 L 22.160133,31.978069 C 22.160133,31.978069 26.997745,27.140456 26.997745,27.140456 C 18.528582,18.264221 13.291696,25.230495 11.500037,31.436501 z"
     style="fill:#404040;"/>
  </a>
 </g>
</svg>

<style type='text/css'>
<![CDATA[
[data-mouse-over-selected='false'] { opacity: 0.7; }
[data-mouse-over-selected='true']  { opacity: 1.0; }
]]>
</style>
<script type="application/ecmascript"><![CDATA[
document.addEventListener('DOMContentLoaded', (event) => {
  highlightEdges();
  highlightAdjacentNodes();
});
]]></script>
</svg>
