<?xml version="1.0" encoding="UTF-8" standalone="no"?>
<!DOCTYPE svg PUBLIC "-//W3C//DTD SVG 1.1//EN"
 "http://www.w3.org/Graphics/SVG/1.1/DTD/svg11.dtd">
<!-- Generated by graphviz version 14.0.2 (0)
 -->
<!-- Title: water::File::deleteRecursively Pages: 1 -->
<svg width="651pt" height="168pt"
 viewBox="0.00 0.00 651.00 168.00" xmlns="http://www.w3.org/2000/svg" xmlns:xlink="http://www.w3.org/1999/xlink">
<g id="graph0" class="graph" transform="scale(1 1) rotate(0) translate(4 163.88)">
<title>water::File::deleteRecursively</title>
<!-- Node1 -->
<g id="Node000001" class="node">
<title>Node1</title>
<g id="a_Node000001"><a xlink:title=" ">
<polygon fill="#999999" stroke="#666666" points="141.25,-84.88 0,-84.88 0,-65.62 141.25,-65.62 141.25,-84.88"/>
<text xml:space="preserve" text-anchor="middle" x="70.62" y="-71.38" font-family="Helvetica,sans-Serif" font-size="10.00">water::File::deleteRecursively</text>
</a>
</g>
</g>
<!-- Node2 -->
<g id="Node000002" class="node">
<title>Node2</title>
<g id="a_Node000002"><a xlink:href="classwater_1_1File.html#a2edd4fa2e4c9f0b26d165c7d1962d6ec" target="_top" xlink:title=" ">
<polygon fill="white" stroke="#666666" points="291.88,-122.88 185.12,-122.88 185.12,-103.62 291.88,-103.62 291.88,-122.88"/>
<text xml:space="preserve" text-anchor="middle" x="238.5" y="-109.38" font-family="Helvetica,sans-Serif" font-size="10.00">water::File::deleteFile</text>
</a>
</g>
</g>
<!-- Node1&#45;&gt;Node2 -->
<g id="edge1_Node000001_Node000002" class="edge">
<title>Node1&#45;&gt;Node2</title>
<g id="a_edge1_Node000001_Node000002"><a xlink:title=" ">
<path fill="none" stroke="#63b8ff" d="M115.64,-85.33C136.16,-90.03 160.78,-95.67 182.51,-100.65"/>
<polygon fill="#63b8ff" stroke="#63b8ff" points="181.56,-104.03 192.09,-102.85 183.13,-97.2 181.56,-104.03"/>
</a>
</g>
</g>
<!-- Node4 -->
<g id="Node000004" class="node">
<title>Node4</title>
<g id="a_Node000004"><a xlink:href="classwater_1_1File.html#ab63d8f52d53bfa12fbcc614716d1b63b" target="_top" xlink:title=" ">
<polygon fill="white" stroke="#666666" points="456.38,-85.88 345.88,-85.88 345.88,-66.62 456.38,-66.62 456.38,-85.88"/>
<text xml:space="preserve" text-anchor="middle" x="401.12" y="-72.38" font-family="Helvetica,sans-Serif" font-size="10.00">water::File::isDirectory</text>
</a>
</g>
</g>
<!-- Node1&#45;&gt;Node4 -->
<g id="edge11_Node000001_Node000004" class="edge">
<title>Node1&#45;&gt;Node4</title>
<g id="a_edge11_Node000001_Node000004"><a xlink:title=" ">
<path fill="none" stroke="#63b8ff" d="M141.69,-75.46C198.72,-75.64 278.63,-75.88 334.44,-76.05"/>
<polygon fill="#63b8ff" stroke="#63b8ff" points="334.09,-79.55 344.1,-76.08 334.12,-72.55 334.09,-79.55"/>
</a>
</g>
</g>
<!-- Node15 -->
<g id="Node000015" class="node">
<title>Node15</title>
<g id="a_Node000015"><a xlink:href="classwater_1_1File.html#af97558ca82053e5c752bc73ccf931aaf" target="_top" xlink:title=" ">
<polygon fill="white" stroke="#666666" points="299.75,-35.88 177.25,-35.88 177.25,-16.62 299.75,-16.62 299.75,-35.88"/>
<text xml:space="preserve" text-anchor="middle" x="238.5" y="-22.38" font-family="Helvetica,sans-Serif" font-size="10.00">water::File::findChildFiles</text>
</a>
</g>
</g>
<!-- Node1&#45;&gt;Node15 -->
<g id="edge8_Node000001_Node000015" class="edge">
<title>Node1&#45;&gt;Node15</title>
<g id="a_edge8_Node000001_Node000015"><a xlink:title=" ">
<path fill="none" stroke="#63b8ff" d="M105.59,-65.22C130.67,-57.81 165.05,-47.65 192.42,-39.57"/>
<polygon fill="#63b8ff" stroke="#63b8ff" points="193.24,-42.97 201.84,-36.78 191.26,-36.26 193.24,-42.97"/>
</a>
</g>
</g>
<!-- Node3 -->
<g id="Node000003" class="node">
<title>Node3</title>
<g id="a_Node000003"><a xlink:href="classwater_1_1File.html#aa9301dd660332db29ef764111aa40278" target="_top" xlink:title=" ">
<polygon fill="white" stroke="#666666" points="446.25,-159.88 356,-159.88 356,-140.62 446.25,-140.62 446.25,-159.88"/>
<text xml:space="preserve" text-anchor="middle" x="401.12" y="-146.38" font-family="Helvetica,sans-Serif" font-size="10.00">water::File::exists</text>
</a>
</g>
</g>
<!-- Node2&#45;&gt;Node3 -->
<g id="edge2_Node000002_Node000003" class="edge">
<title>Node2&#45;&gt;Node3</title>
<g id="a_edge2_Node000002_Node000003"><a xlink:title=" ">
<path fill="none" stroke="#63b8ff" d="M283.39,-123.36C302.51,-127.77 325.13,-132.98 345.34,-137.63"/>
<polygon fill="#63b8ff" stroke="#63b8ff" points="344.28,-140.98 354.81,-139.81 345.85,-134.16 344.28,-140.98"/>
</a>
</g>
</g>
<!-- Node2&#45;&gt;Node4 -->
<g id="edge3_Node000002_Node000004" class="edge">
<title>Node2&#45;&gt;Node4</title>
<g id="a_edge3_Node000002_Node000004"><a xlink:title=" ">
<path fill="none" stroke="#63b8ff" d="M283.39,-103.14C302.51,-98.73 325.13,-93.52 345.34,-88.87"/>
<polygon fill="#63b8ff" stroke="#63b8ff" points="345.85,-92.34 354.81,-86.69 344.28,-85.52 345.85,-92.34"/>
</a>
</g>
</g>
<!-- Node5 -->
<g id="Node000005" class="node">
<title>Node5</title>
<g id="a_Node000005"><a xlink:href="classwater_1_1File.html#af793f7c4bd8c2e1835a0c0345aa69661" target="_top" xlink:title=" ">
<polygon fill="white" stroke="#666666" points="466.5,-122.88 335.75,-122.88 335.75,-103.62 466.5,-103.62 466.5,-122.88"/>
<text xml:space="preserve" text-anchor="middle" x="401.12" y="-109.38" font-family="Helvetica,sans-Serif" font-size="10.00">water::File::isSymbolicLink</text>
</a>
</g>
</g>
<!-- Node2&#45;&gt;Node5 -->
<g id="edge4_Node000002_Node000005" class="edge">
<title>Node2&#45;&gt;Node5</title>
<g id="a_edge4_Node000002_Node000005"><a xlink:title=" ">
<path fill="none" stroke="#63b8ff" d="M292.09,-113.25C302.35,-113.25 313.29,-113.25 324.13,-113.25"/>
<polygon fill="#63b8ff" stroke="#63b8ff" points="323.83,-116.75 333.83,-113.25 323.83,-109.75 323.83,-116.75"/>
</a>
</g>
</g>
<!-- Node6 -->
<g id="Node000006" class="node">
<title>Node6</title>
<g id="a_Node000006"><a xlink:href="classwater_1_1File.html#abc3f6bb6f4dc73510452e61e880f0b10" target="_top" xlink:title=" ">
<polygon fill="white" stroke="#666666" points="643,-159.88 502.5,-159.88 502.5,-140.62 643,-140.62 643,-159.88"/>
<text xml:space="preserve" text-anchor="middle" x="572.75" y="-146.38" font-family="Helvetica,sans-Serif" font-size="10.00">water::File::getFullPathName</text>
</a>
</g>
</g>
<!-- Node5&#45;&gt;Node6 -->
<g id="edge5_Node000005_Node000006" class="edge">
<title>Node5&#45;&gt;Node6</title>
<g id="a_edge5_Node000005_Node000006"><a xlink:title=" ">
<path fill="none" stroke="#63b8ff" d="M448.48,-123.36C468.86,-127.81 493,-133.07 514.49,-137.76"/>
<polygon fill="#63b8ff" stroke="#63b8ff" points="513.46,-141.12 523.98,-139.83 514.95,-134.28 513.46,-141.12"/>
</a>
</g>
</g>
<!-- Node7 -->
<g id="Node000007" class="node">
<title>Node7</title>
<g id="a_Node000007"><a xlink:href="namespacewater.html#abf5a8eb256bbb9b9954d5ae6bef185dc" target="_top" xlink:title=" ">
<polygon fill="#fff0f0" stroke="red" points="624.25,-122.88 521.25,-122.88 521.25,-103.62 624.25,-103.62 624.25,-122.88"/>
<text xml:space="preserve" text-anchor="middle" x="572.75" y="-109.38" font-family="Helvetica,sans-Serif" font-size="10.00">water::getLinkedFile</text>
</a>
</g>
</g>
<!-- Node5&#45;&gt;Node7 -->
<g id="edge6_Node000005_Node000007" class="edge">
<title>Node5&#45;&gt;Node7</title>
<g id="a_edge6_Node000005_Node000007"><a xlink:title=" ">
<path fill="none" stroke="#63b8ff" d="M466.74,-113.25C480.71,-113.25 495.45,-113.25 509.34,-113.25"/>
<polygon fill="#63b8ff" stroke="#63b8ff" points="509.25,-116.75 519.25,-113.25 509.25,-109.75 509.25,-116.75"/>
</a>
</g>
</g>
<!-- Node14 -->
<g id="Node000014" class="node">
<title>Node14</title>
<g id="a_Node000014"><a xlink:href="classwater_1_1String.html#a383e0e755ddce6fc7c8784803742ffb3" target="_top" xlink:title=" ">
<polygon fill="white" stroke="#666666" points="635.12,-85.88 510.38,-85.88 510.38,-66.62 635.12,-66.62 635.12,-85.88"/>
<text xml:space="preserve" text-anchor="middle" x="572.75" y="-72.38" font-family="Helvetica,sans-Serif" font-size="10.00">water::String::isNotEmpty</text>
</a>
</g>
</g>
<!-- Node5&#45;&gt;Node14 -->
<g id="edge7_Node000005_Node000014" class="edge">
<title>Node5&#45;&gt;Node14</title>
<g id="a_edge7_Node000005_Node000014"><a xlink:title=" ">
<path fill="none" stroke="#63b8ff" d="M448.48,-103.14C468.86,-98.69 493,-93.43 514.49,-88.74"/>
<polygon fill="#63b8ff" stroke="#63b8ff" points="514.95,-92.22 523.98,-86.67 513.46,-85.38 514.95,-92.22"/>
</a>
</g>
</g>
<!-- Node16 -->
<g id="Node000016" class="node">
<title>Node16</title>
<g id="a_Node000016"><a xlink:href="classwater_1_1DirectoryIterator.html#aabd270b17c042f0cff5bf40e0ca5d42f" target="_top" xlink:title=" ">
<polygon fill="white" stroke="#666666" points="457.88,-30.5 344.38,-30.5 344.38,0 457.88,0 457.88,-30.5"/>
<text xml:space="preserve" text-anchor="start" x="352.38" y="-17" font-family="Helvetica,sans-Serif" font-size="10.00">water::DirectoryIterator</text>
<text xml:space="preserve" text-anchor="middle" x="401.12" y="-5.75" font-family="Helvetica,sans-Serif" font-size="10.00">::next</text>
</a>
</g>
</g>
<!-- Node15&#45;&gt;Node16 -->
<g id="edge9_Node000015_Node000016" class="edge">
<title>Node15&#45;&gt;Node16</title>
<g id="a_edge9_Node000015_Node000016"><a xlink:title=" ">
<path fill="none" stroke="#63b8ff" d="M300.23,-22.09C310.91,-21.36 322.08,-20.59 332.93,-19.85"/>
<polygon fill="#63b8ff" stroke="#63b8ff" points="332.83,-23.37 342.57,-19.19 332.35,-16.38 332.83,-23.37"/>
</a>
</g>
</g>
<!-- Node16&#45;&gt;Node16 -->
<g id="edge10_Node000016_Node000016" class="edge">
<title>Node16&#45;&gt;Node16</title>
<g id="a_edge10_Node000016_Node000016"><a xlink:title=" ">
<path fill="none" stroke="#63b8ff" d="M372.31,-30.99C366.43,-40.06 376.03,-48.5 401.12,-48.5 414.85,-48.5 423.94,-45.97 428.4,-42.2"/>
<polygon fill="#63b8ff" stroke="#63b8ff" points="431.84,-42.87 429.74,-32.49 424.9,-41.91 431.84,-42.87"/>
</a>
</g>
</g>
</g>
</svg>
