<?xml version="1.0" encoding="UTF-8" standalone="no"?>
<!DOCTYPE svg PUBLIC "-//W3C//DTD SVG 1.1//EN"
 "http://www.w3.org/Graphics/SVG/1.1/DTD/svg11.dtd">
<!-- Generated by graphviz version 14.0.2 (0)
 -->
<!-- Title: juce::ResizableWindow::isFullScreen Pages: 1 -->
<!--zoomable 130 -->

<svg id="main" version="1.1" xmlns="http://www.w3.org/2000/svg" xmlns:xlink="http://www.w3.org/1999/xlink" xml:space="preserve" onload="init(evt)">

<style type="text/css"><![CDATA[
.node, .edge {opacity: 0.7;}
.node.selected, .edge.selected {opacity: 1;}
.edge:hover path { stroke: red; }
.edge:hover polygon { stroke: red; fill: red; }
]]></style>

<defs>
  <circle id="rim" cx="0" cy="0" r="7"/>
  <circle id="rim2" cx="0" cy="0" r="3.5"/>
  <g id="zoomPlus">
    <use xlink:href="#rim" fill="#404040"><set attributeName="fill" to="#808080" begin="zoomplus.mouseover" end="zoomplus.mouseout"/></use>
    <path d="M-4,0h8M0,-4v8" fill="none" stroke="white" stroke-width="1.5" pointer-events="none"/>
  </g>
  <g id="zoomMin">
    <use xlink:href="#rim" fill="#404040"><set attributeName="fill" to="#808080" begin="zoomminus.mouseover" end="zoomminus.mouseout"/></use>
    <path d="M-4,0h8" fill="none" stroke="white" stroke-width="1.5" pointer-events="none"/>
  </g>
  <g id="arrowUp" transform="translate(30 24)">
    <use xlink:href="#rim"/>
    <path pointer-events="none" fill="none" stroke="white" stroke-width="1.5" d="M0,-3.0v7 M-2.5,-0.5L0,-3.0L2.5,-0.5"/>
  </g>
  <g id="arrowRight" transform="rotate(90) translate(36 -43)">
    <use xlink:href="#rim"/>
    <path pointer-events="none" fill="none" stroke="white" stroke-width="1.5" d="M0,-3.0v7 M-2.5,-0.5L0,-3.0L2.5,-0.5"/>
  </g>
  <g id="arrowDown" transform="rotate(180) translate(-30 -48)">
    <use xlink:href="#rim"/>
    <path pointer-events="none" fill="none" stroke="white" stroke-width="1.5" d="M0,-3.0v7 M-2.5,-0.5L0,-3.0L2.5,-0.5"/>
  </g>
  <g id="arrowLeft" transform="rotate(270) translate(-36 17)">
    <use xlink:href="#rim"/>
    <path pointer-events="none" fill="none" stroke="white" stroke-width="1.5" d="M0,-3.0v7 M-2.5,-0.5L0,-3.0L2.5,-0.5"/>
  </g>
  <g id="resetDef">
    <use xlink:href="#rim2" fill="#404040"><set attributeName="fill" to="#808080" begin="reset.mouseover" end="reset.mouseout"/></use>
  </g>
</defs>
<script type="application/ecmascript">
var viewWidth = 816;
var viewHeight = 130;
var sectionId = 'dynsection-27';
</script>
<script type="application/ecmascript" xlink:href="svg.min.js"/>
<svg id="graph" class="graph">
<g id="viewport">
<title>juce::ResizableWindow::isFullScreen</title>
<!-- Node1 -->
<g id="Node000001" class="node">
<title>Node1</title>
<g id="a_Node000001"><a xlink:title=" ">
<polygon fill="#999999" stroke="#666666" points="115,-51.88 0,-51.88 0,-21.38 115,-21.38 115,-51.88"/>
<text xml:space="preserve" text-anchor="start" x="8" y="-38.38" font-family="Helvetica,sans-Serif" font-size="10.00">juce::ResizableWindow</text>
<text xml:space="preserve" text-anchor="middle" x="57.5" y="-27.12" font-family="Helvetica,sans-Serif" font-size="10.00">::isFullScreen</text>
</a>
</g>
</g>
<!-- Node1&#45;&gt;Node1 -->
<g id="edge12_Node000001_Node000001" class="edge">
<title>Node1&#45;&gt;Node1</title>
<g id="a_edge12_Node000001_Node000001"><a xlink:title=" ">
<path fill="none" stroke="#63b8ff" d="M27.75,-52.36C21.68,-61.43 31.6,-69.88 57.5,-69.88 71.67,-69.88 81.05,-67.35 85.65,-63.58"/>
<polygon fill="#63b8ff" stroke="#63b8ff" points="89.09,-64.25 87.03,-53.86 82.16,-63.27 89.09,-64.25"/>
</a>
</g>
</g>
<!-- Node2 -->
<g id="Node000002" class="node">
<title>Node2</title>
<g id="a_Node000002"><a xlink:href="classjuce_1_1Component.html#ad13a2ae74f3e252382a58cf3e1e92a58" target="_top" xlink:title=" ">
<polygon fill="white" stroke="#666666" points="288.5,-74.25 162.25,-74.25 162.25,-55 288.5,-55 288.5,-74.25"/>
<text xml:space="preserve" text-anchor="middle" x="225.38" y="-60.75" font-family="Helvetica,sans-Serif" font-size="10.00">juce::Component::getPeer</text>
</a>
</g>
</g>
<!-- Node1&#45;&gt;Node2 -->
<g id="edge1_Node000001_Node000002" class="edge">
<title>Node1&#45;&gt;Node2</title>
<g id="a_edge1_Node000001_Node000002"><a xlink:title=" ">
<path fill="none" stroke="#63b8ff" d="M115.12,-46.18C127.46,-48.27 140.67,-50.5 153.48,-52.66"/>
<polygon fill="#63b8ff" stroke="#63b8ff" points="152.68,-56.07 163.12,-54.29 153.84,-49.17 152.68,-56.07"/>
</a>
</g>
</g>
<!-- Node11 -->
<g id="Node000011" class="node">
<title>Node11</title>
<g id="a_Node000011"><a xlink:href="classjuce_1_1Component.html#a92e991ac858aee5c340427ef3f888e50" target="_top" xlink:title=" ">
<polygon fill="white" stroke="#666666" points="299.75,-19.25 151,-19.25 151,0 299.75,0 299.75,-19.25"/>
<text xml:space="preserve" text-anchor="middle" x="225.38" y="-5.75" font-family="Helvetica,sans-Serif" font-size="10.00">juce::Component::isOnDesktop</text>
</a>
</g>
</g>
<!-- Node1&#45;&gt;Node11 -->
<g id="edge13_Node000001_Node000011" class="edge">
<title>Node1&#45;&gt;Node11</title>
<g id="a_edge13_Node000001_Node000011"><a xlink:title=" ">
<path fill="none" stroke="#63b8ff" d="M115.12,-27.41C126.76,-25.51 139.17,-23.49 151.3,-21.52"/>
<polygon fill="#63b8ff" stroke="#63b8ff" points="151.53,-25.03 160.83,-19.97 150.4,-18.12 151.53,-25.03"/>
</a>
</g>
</g>
<!-- Node2&#45;&gt;Node2 -->
<g id="edge4_Node000002_Node000002" class="edge">
<title>Node2&#45;&gt;Node2</title>
<g id="a_edge4_Node000002_Node000002"><a xlink:title=" ">
<path fill="none" stroke="#63b8ff" d="M199.09,-74.54C187.11,-83.15 195.87,-92.25 225.38,-92.25 241.97,-92.25 252.01,-89.37 255.48,-85.32"/>
<polygon fill="#63b8ff" stroke="#63b8ff" points="258.8,-84.22 252.16,-75.96 252.2,-86.56 258.8,-84.22"/>
</a>
</g>
</g>
<!-- Node3 -->
<g id="Node000003" class="node">
<title>Node3</title>
<g id="a_Node000003"><a xlink:href="classjuce_1_1Component.html#aeec6ceefbdc3b19e8f650d96f521cf3a" target="_top" xlink:title=" ">
<polygon fill="white" stroke="#666666" points="498,-104.25 335.75,-104.25 335.75,-85 498,-85 498,-104.25"/>
<text xml:space="preserve" text-anchor="middle" x="416.88" y="-90.75" font-family="Helvetica,sans-Serif" font-size="10.00">juce::Component::ComponentPeer</text>
</a>
</g>
</g>
<!-- Node2&#45;&gt;Node3 -->
<g id="edge2_Node000002_Node000003" class="edge">
<title>Node2&#45;&gt;Node3</title>
<g id="a_edge2_Node000002_Node000003"><a xlink:title=" ">
<path fill="none" stroke="#63b8ff" d="M288.95,-74.53C305.58,-77.16 323.7,-80.03 340.91,-82.76"/>
<polygon fill="#63b8ff" stroke="#63b8ff" points="340.15,-86.18 350.57,-84.29 341.25,-79.27 340.15,-86.18"/>
</a>
</g>
</g>
<!-- Node4 -->
<g id="Node000004" class="node">
<title>Node4</title>
<g id="a_Node000004"><a xlink:href="classjuce_1_1ComponentPeer.html#a99d000bad64e2706033b5c8a3de27703" target="_top" xlink:title=" ">
<polygon fill="white" stroke="#666666" points="471,-48.88 362.75,-48.88 362.75,-18.38 471,-18.38 471,-48.88"/>
<text xml:space="preserve" text-anchor="start" x="370.75" y="-35.38" font-family="Helvetica,sans-Serif" font-size="10.00">juce::ComponentPeer</text>
<text xml:space="preserve" text-anchor="middle" x="416.88" y="-24.12" font-family="Helvetica,sans-Serif" font-size="10.00">::getPeerFor</text>
</a>
</g>
</g>
<!-- Node2&#45;&gt;Node4 -->
<g id="edge5_Node000002_Node000004" class="edge">
<title>Node2&#45;&gt;Node4</title>
<g id="a_edge5_Node000002_Node000004"><a xlink:title=" ">
<path fill="none" stroke="#63b8ff" d="M288.16,-54.52C308.39,-51.21 330.91,-47.52 351.34,-44.18"/>
<polygon fill="#63b8ff" stroke="#63b8ff" points="351.65,-47.68 360.96,-42.61 350.52,-40.77 351.65,-47.68"/>
</a>
</g>
</g>
<!-- Node3&#45;&gt;Node3 -->
<g id="edge3_Node000003_Node000003" class="edge">
<title>Node3&#45;&gt;Node3</title>
<g id="a_edge3_Node000003_Node000003"><a xlink:title=" ">
<path fill="none" stroke="#63b8ff" d="M390.06,-104.54C377.84,-113.15 386.77,-122.25 416.88,-122.25 433.81,-122.25 444.04,-119.37 447.58,-115.32"/>
<polygon fill="#63b8ff" stroke="#63b8ff" points="450.89,-114.18 444.2,-105.96 444.31,-116.56 450.89,-114.18"/>
</a>
</g>
</g>
<!-- Node4&#45;&gt;Node4 -->
<g id="edge11_Node000004_Node000004" class="edge">
<title>Node4&#45;&gt;Node4</title>
<g id="a_edge11_Node000004_Node000004"><a xlink:title=" ">
<path fill="none" stroke="#63b8ff" d="M386.53,-49.36C380.34,-58.43 390.45,-66.88 416.88,-66.88 431.33,-66.88 440.9,-64.35 445.59,-60.58"/>
<polygon fill="#63b8ff" stroke="#63b8ff" points="449.03,-61.26 447,-50.86 442.1,-60.25 449.03,-61.26"/>
</a>
</g>
</g>
<!-- Node5 -->
<g id="Node000005" class="node">
<title>Node5</title>
<g id="a_Node000005"><a xlink:href="classjuce_1_1ComponentPeer.html#a5b61d2e1abe97d25e310dc925a32da1d" target="_top" xlink:title=" ">
<polygon fill="white" stroke="#666666" points="642.25,-70.88 534,-70.88 534,-40.38 642.25,-40.38 642.25,-70.88"/>
<text xml:space="preserve" text-anchor="start" x="542" y="-57.38" font-family="Helvetica,sans-Serif" font-size="10.00">juce::ComponentPeer</text>
<text xml:space="preserve" text-anchor="middle" x="588.12" y="-46.12" font-family="Helvetica,sans-Serif" font-size="10.00">::ComponentPeer</text>
</a>
</g>
</g>
<!-- Node4&#45;&gt;Node5 -->
<g id="edge6_Node000004_Node000005" class="edge">
<title>Node4&#45;&gt;Node5</title>
<g id="a_edge6_Node000004_Node000005"><a xlink:title=" ">
<path fill="none" stroke="#63b8ff" d="M471.43,-40.59C487.56,-42.68 505.44,-45.01 522.22,-47.19"/>
<polygon fill="#63b8ff" stroke="#63b8ff" points="521.76,-50.66 532.13,-48.48 522.67,-43.72 521.76,-50.66"/>
</a>
</g>
</g>
<!-- Node6 -->
<g id="Node000006" class="node">
<title>Node6</title>
<g id="a_Node000006"><a xlink:href="classjuce_1_1Desktop.html#a9adf64fbbd6f9740c0272f50bee5342c" target="_top" xlink:title=" ">
<polygon fill="#fff0f0" stroke="red" points="808.25,-43.25 678.25,-43.25 678.25,-24 808.25,-24 808.25,-43.25"/>
<text xml:space="preserve" text-anchor="middle" x="743.25" y="-29.75" font-family="Helvetica,sans-Serif" font-size="10.00">juce::Desktop::getInstance</text>
</a>
</g>
</g>
<!-- Node4&#45;&gt;Node6 -->
<g id="edge10_Node000004_Node000006" class="edge">
<title>Node4&#45;&gt;Node6</title>
<g id="a_edge10_Node000004_Node000006"><a xlink:title=" ">
<path fill="none" stroke="#63b8ff" d="M471.35,-32.51C491.04,-32.15 513.53,-31.8 534,-31.62 582.11,-31.21 594.14,-31.14 642.25,-31.62 650.1,-31.7 658.29,-31.82 666.47,-31.95"/>
<polygon fill="#63b8ff" stroke="#63b8ff" points="666.4,-35.45 676.46,-32.12 666.52,-28.45 666.4,-35.45"/>
</a>
</g>
</g>
<!-- Node5&#45;&gt;Node5 -->
<g id="edge7_Node000005_Node000005" class="edge">
<title>Node5&#45;&gt;Node5</title>
<g id="a_edge7_Node000005_Node000005"><a xlink:title=" ">
<path fill="none" stroke="#63b8ff" d="M560.64,-71.36C555.03,-80.43 564.19,-88.88 588.12,-88.88 601.21,-88.88 609.89,-86.35 614.14,-82.58"/>
<polygon fill="#63b8ff" stroke="#63b8ff" points="617.58,-83.23 615.42,-72.86 610.64,-82.32 617.58,-83.23"/>
</a>
</g>
</g>
<!-- Node5&#45;&gt;Node6 -->
<g id="edge8_Node000005_Node000006" class="edge">
<title>Node5&#45;&gt;Node6</title>
<g id="a_edge8_Node000005_Node000006"><a xlink:title=" ">
<path fill="none" stroke="#63b8ff" d="M642.68,-47.93C650.42,-46.82 658.5,-45.66 666.57,-44.5"/>
<polygon fill="#63b8ff" stroke="#63b8ff" points="667.04,-47.97 676.44,-43.08 666.04,-41.04 667.04,-47.97"/>
</a>
</g>
</g>
<!-- Node6&#45;&gt;Node6 -->
<g id="edge9_Node000006_Node000006" class="edge">
<title>Node6&#45;&gt;Node6</title>
<g id="a_edge9_Node000006_Node000006"><a xlink:title=" ">
<path fill="none" stroke="#63b8ff" d="M718.96,-43.54C707.89,-52.15 715.98,-61.25 743.25,-61.25 758.59,-61.25 767.86,-58.37 771.07,-54.32"/>
<polygon fill="#63b8ff" stroke="#63b8ff" points="774.45,-53.39 768.01,-44.98 767.79,-55.57 774.45,-53.39"/>
</a>
</g>
</g>
<!-- Node11&#45;&gt;Node11 -->
<g id="edge14_Node000011_Node000011" class="edge">
<title>Node11&#45;&gt;Node11</title>
<g id="a_edge14_Node000011_Node000011"><a xlink:title=" ">
<path fill="none" stroke="#63b8ff" d="M199.09,-19.54C187.11,-28.15 195.87,-37.25 225.38,-37.25 241.97,-37.25 252.01,-34.37 255.48,-30.32"/>
<polygon fill="#63b8ff" stroke="#63b8ff" points="258.8,-29.22 252.16,-20.96 252.2,-31.56 258.8,-29.22"/>
</a>
</g>
</g>
</g>
</svg>

<g id="navigator" transform="translate(0 0)" fill="#404254">
  <rect fill="#f2f5e9" fill-opacity="0.5" stroke="#606060" stroke-width=".5" x="0" y="0" width="60" height="60"/>
  <use id="zoomplus" xlink:href="#zoomPlus" x="17" y="9" onmousedown="handleZoom(evt,'in')"/>
  <use id="zoomminus" xlink:href="#zoomMin" x="42" y="9" onmousedown="handleZoom(evt,'out')"/>
  <use id="reset" xlink:href="#resetDef" x="30" y="36" onmousedown="handleReset()"/>
   <use id="arrowup" xlink:href="#arrowUp" x="0" y="0" onmousedown="handlePan(0,-1)"/>
  <use id="arrowright" xlink:href="#arrowRight" x="0" y="0" onmousedown="handlePan(1,0)"/>
  <use id="arrowdown" xlink:href="#arrowDown" x="0" y="0" onmousedown="handlePan(0,1)"/>
  <use id="arrowleft" xlink:href="#arrowLeft" x="0" y="0" onmousedown="handlePan(-1,0)"/>
</g>
<svg viewBox="0 0 15 15" width="100%" height="30px" preserveAspectRatio="xMaxYMin meet">
 <g id="arrow_out" transform="scale(0.3 0.3)">
  <a xlink:href="classjuce_1_1ResizableWindow_a8a87055ed6ab0f9dd9a9c5f78a97120e_cgraph_org.svg" target="_base">
   <rect id="button" ry="5" rx="5" y="6" x="6" height="38" width="38"
        fill="#f2f5e9" fill-opacity="0.5" stroke="#606060" stroke-width="1.0"/>
   <path id="arrow"
     d="M 11.500037,31.436501 C 11.940474,20.09759 22.043105,11.32322 32.158766,21.979434 L 37.068811,17.246167 C 37.068811,17.246167 37.088388,32 37.088388,32 L 22.160133,31.978069 C 22.160133,31.978069 26.997745,27.140456 26.997745,27.140456 C 18.528582,18.264221 13.291696,25.230495 11.500037,31.436501 z"
     style="fill:#404040;"/>
  </a>
 </g>
</svg>

<style type='text/css'>
<![CDATA[
[data-mouse-over-selected='false'] { opacity: 0.7; }
[data-mouse-over-selected='true']  { opacity: 1.0; }
]]>
</style>
<script type="application/ecmascript"><![CDATA[
document.addEventListener('DOMContentLoaded', (event) => {
  highlightEdges();
  highlightAdjacentNodes();
});
]]></script>
</svg>
