<?xml version="1.0" encoding="UTF-8" standalone="no"?>
<!DOCTYPE svg PUBLIC "-//W3C//DTD SVG 1.1//EN"
 "http://www.w3.org/Graphics/SVG/1.1/DTD/svg11.dtd">
<!-- Generated by graphviz version 14.0.2 (0)
 -->
<!-- Title: ableton::link::MeasurementService&lt; Clock, IoContext &gt; Pages: 1 -->
<!--zoomable 698 -->

<svg id="main" version="1.1" xmlns="http://www.w3.org/2000/svg" xmlns:xlink="http://www.w3.org/1999/xlink" xml:space="preserve" onload="init(evt)">

<style type="text/css"><![CDATA[
.node, .edge {opacity: 0.7;}
.node.selected, .edge.selected {opacity: 1;}
.edge:hover path { stroke: red; }
.edge:hover polygon { stroke: red; fill: red; }
]]></style>

<defs>
  <circle id="rim" cx="0" cy="0" r="7"/>
  <circle id="rim2" cx="0" cy="0" r="3.5"/>
  <g id="zoomPlus">
    <use xlink:href="#rim" fill="#404040"><set attributeName="fill" to="#808080" begin="zoomplus.mouseover" end="zoomplus.mouseout"/></use>
    <path d="M-4,0h8M0,-4v8" fill="none" stroke="white" stroke-width="1.5" pointer-events="none"/>
  </g>
  <g id="zoomMin">
    <use xlink:href="#rim" fill="#404040"><set attributeName="fill" to="#808080" begin="zoomminus.mouseover" end="zoomminus.mouseout"/></use>
    <path d="M-4,0h8" fill="none" stroke="white" stroke-width="1.5" pointer-events="none"/>
  </g>
  <g id="arrowUp" transform="translate(30 24)">
    <use xlink:href="#rim"/>
    <path pointer-events="none" fill="none" stroke="white" stroke-width="1.5" d="M0,-3.0v7 M-2.5,-0.5L0,-3.0L2.5,-0.5"/>
  </g>
  <g id="arrowRight" transform="rotate(90) translate(36 -43)">
    <use xlink:href="#rim"/>
    <path pointer-events="none" fill="none" stroke="white" stroke-width="1.5" d="M0,-3.0v7 M-2.5,-0.5L0,-3.0L2.5,-0.5"/>
  </g>
  <g id="arrowDown" transform="rotate(180) translate(-30 -48)">
    <use xlink:href="#rim"/>
    <path pointer-events="none" fill="none" stroke="white" stroke-width="1.5" d="M0,-3.0v7 M-2.5,-0.5L0,-3.0L2.5,-0.5"/>
  </g>
  <g id="arrowLeft" transform="rotate(270) translate(-36 17)">
    <use xlink:href="#rim"/>
    <path pointer-events="none" fill="none" stroke="white" stroke-width="1.5" d="M0,-3.0v7 M-2.5,-0.5L0,-3.0L2.5,-0.5"/>
  </g>
  <g id="resetDef">
    <use xlink:href="#rim2" fill="#404040"><set attributeName="fill" to="#808080" begin="reset.mouseover" end="reset.mouseout"/></use>
  </g>
</defs>
<script type="application/ecmascript">
var viewWidth = 137;
var viewHeight = 698;
var sectionId = 'dynsection-1';
</script>
<script type="application/ecmascript" xlink:href="svg.min.js"/>
<svg id="graph" class="graph">
<g id="viewport">
<title>ableton::link::MeasurementService&lt; Clock, IoContext &gt;</title>
<!-- Node1 -->
<g id="Node000001" class="node">
<title>Node1</title>
<g id="a_Node000001"><a xlink:title=" ">
<polygon fill="#999999" stroke="none" points="128.75,-198.25 0,-198.25 0,0 128.75,0 128.75,-198.25"/>
<text xml:space="preserve" text-anchor="start" x="4" y="-184.75" font-family="Helvetica,sans-Serif" font-size="10.00">ableton::link::Measurement</text>
<text xml:space="preserve" text-anchor="start" x="4" y="-173.5" font-family="Helvetica,sans-Serif" font-size="10.00">Service&lt; Clock, IoContext &gt;</text>
<text xml:space="preserve" text-anchor="start" x="7.31" y="-158.25" font-family="Helvetica,sans-Serif" font-size="10.00">&#45;</text>
<text xml:space="preserve" text-anchor="start" x="17.62" y="-158.25" font-family="Helvetica,sans-Serif" font-size="10.00">mMeasurementMap</text>
<text xml:space="preserve" text-anchor="start" x="7.31" y="-143" font-family="Helvetica,sans-Serif" font-size="10.00">&#45;</text>
<text xml:space="preserve" text-anchor="start" x="17.62" y="-143" font-family="Helvetica,sans-Serif" font-size="10.00">mClock</text>
<text xml:space="preserve" text-anchor="start" x="7.31" y="-127.75" font-family="Helvetica,sans-Serif" font-size="10.00">&#45;</text>
<text xml:space="preserve" text-anchor="start" x="17.62" y="-127.75" font-family="Helvetica,sans-Serif" font-size="10.00">mPingResponder</text>
<text xml:space="preserve" text-anchor="start" x="5.81" y="-112.5" font-family="Helvetica,sans-Serif" font-size="10.00">+</text>
<text xml:space="preserve" text-anchor="start" x="17.62" y="-112.5" font-family="Helvetica,sans-Serif" font-size="10.00">MeasurementService()</text>
<text xml:space="preserve" text-anchor="start" x="5.81" y="-97.25" font-family="Helvetica,sans-Serif" font-size="10.00">+</text>
<text xml:space="preserve" text-anchor="start" x="17.62" y="-97.25" font-family="Helvetica,sans-Serif" font-size="10.00">MeasurementService()</text>
<text xml:space="preserve" text-anchor="start" x="5.81" y="-82" font-family="Helvetica,sans-Serif" font-size="10.00">+</text>
<text xml:space="preserve" text-anchor="start" x="17.62" y="-82" font-family="Helvetica,sans-Serif" font-size="10.00">MeasurementService()</text>
<text xml:space="preserve" text-anchor="start" x="5.81" y="-66.75" font-family="Helvetica,sans-Serif" font-size="10.00">+</text>
<text xml:space="preserve" text-anchor="start" x="17.62" y="-66.75" font-family="Helvetica,sans-Serif" font-size="10.00">~MeasurementService()</text>
<text xml:space="preserve" text-anchor="start" x="5.81" y="-51.5" font-family="Helvetica,sans-Serif" font-size="10.00">+</text>
<text xml:space="preserve" text-anchor="start" x="17.62" y="-51.5" font-family="Helvetica,sans-Serif" font-size="10.00">updateNodeState()</text>
<text xml:space="preserve" text-anchor="start" x="5.81" y="-36.25" font-family="Helvetica,sans-Serif" font-size="10.00">+</text>
<text xml:space="preserve" text-anchor="start" x="17.62" y="-36.25" font-family="Helvetica,sans-Serif" font-size="10.00">endpoint()</text>
<text xml:space="preserve" text-anchor="start" x="5.81" y="-21" font-family="Helvetica,sans-Serif" font-size="10.00">+</text>
<text xml:space="preserve" text-anchor="start" x="17.62" y="-21" font-family="Helvetica,sans-Serif" font-size="10.00">measurePeer()</text>
<text xml:space="preserve" text-anchor="start" x="5.81" y="-5.75" font-family="Helvetica,sans-Serif" font-size="10.00">+</text>
<text xml:space="preserve" text-anchor="start" x="17.62" y="-5.75" font-family="Helvetica,sans-Serif" font-size="10.00">filter()</text>
<polygon fill="#666666" stroke="#666666" points="0,-169.75 0,-169.75 128.75,-169.75 128.75,-169.75 0,-169.75"/>
<polygon fill="#666666" stroke="#666666" points="0,-124 0,-124 15.62,-124 15.62,-124 0,-124"/>
<polygon fill="#666666" stroke="#666666" points="15.62,-124 15.62,-124 128.75,-124 128.75,-124 15.62,-124"/>
<polygon fill="none" stroke="#666666" points="0,0 0,-198.25 128.75,-198.25 128.75,0 0,0"/>
</a>
</g>
</g>
<!-- Node2 -->
<g id="Node000002" class="node">
<title>Node2</title>
<g id="a_Node000002"><a xlink:href="structableton_1_1util_1_1Injected.html" target="_top" xlink:title=" ">
<polygon fill="white" stroke="none" points="112.25,-449.75 16.5,-449.75 16.5,-251.5 112.25,-251.5 112.25,-449.75"/>
<text xml:space="preserve" text-anchor="start" x="20.5" y="-436.25" font-family="Helvetica,sans-Serif" font-size="10.00">ableton::util::Injected</text>
<text xml:space="preserve" text-anchor="start" x="35.5" y="-425" font-family="Helvetica,sans-Serif" font-size="10.00">&lt; IoContext &gt;</text>
<text xml:space="preserve" text-anchor="start" x="27.38" y="-409.75" font-family="Helvetica,sans-Serif" font-size="10.00">+</text>
<text xml:space="preserve" text-anchor="start" x="44.25" y="-409.75" font-family="Helvetica,sans-Serif" font-size="10.00">val</text>
<text xml:space="preserve" text-anchor="start" x="27.38" y="-394.5" font-family="Helvetica,sans-Serif" font-size="10.00">+</text>
<text xml:space="preserve" text-anchor="start" x="44.25" y="-394.5" font-family="Helvetica,sans-Serif" font-size="10.00">Injected()</text>
<text xml:space="preserve" text-anchor="start" x="27.38" y="-379.25" font-family="Helvetica,sans-Serif" font-size="10.00">+</text>
<text xml:space="preserve" text-anchor="start" x="44.25" y="-379.25" font-family="Helvetica,sans-Serif" font-size="10.00">Injected()</text>
<text xml:space="preserve" text-anchor="start" x="27.38" y="-364" font-family="Helvetica,sans-Serif" font-size="10.00">+</text>
<text xml:space="preserve" text-anchor="start" x="44.25" y="-364" font-family="Helvetica,sans-Serif" font-size="10.00">Injected()</text>
<text xml:space="preserve" text-anchor="start" x="27.38" y="-348.75" font-family="Helvetica,sans-Serif" font-size="10.00">+</text>
<text xml:space="preserve" text-anchor="start" x="44.25" y="-348.75" font-family="Helvetica,sans-Serif" font-size="10.00">operator=()</text>
<text xml:space="preserve" text-anchor="start" x="27.38" y="-333.5" font-family="Helvetica,sans-Serif" font-size="10.00">+</text>
<text xml:space="preserve" text-anchor="start" x="44.25" y="-333.5" font-family="Helvetica,sans-Serif" font-size="10.00">Injected()</text>
<text xml:space="preserve" text-anchor="start" x="27.38" y="-318.25" font-family="Helvetica,sans-Serif" font-size="10.00">+</text>
<text xml:space="preserve" text-anchor="start" x="44.25" y="-318.25" font-family="Helvetica,sans-Serif" font-size="10.00">operator=()</text>
<text xml:space="preserve" text-anchor="start" x="27.38" y="-303" font-family="Helvetica,sans-Serif" font-size="10.00">+</text>
<text xml:space="preserve" text-anchor="start" x="44.25" y="-303" font-family="Helvetica,sans-Serif" font-size="10.00">operator&#45;&gt;()</text>
<text xml:space="preserve" text-anchor="start" x="27.38" y="-287.75" font-family="Helvetica,sans-Serif" font-size="10.00">+</text>
<text xml:space="preserve" text-anchor="start" x="44.25" y="-287.75" font-family="Helvetica,sans-Serif" font-size="10.00">operator&#45;&gt;()</text>
<text xml:space="preserve" text-anchor="start" x="27.38" y="-272.5" font-family="Helvetica,sans-Serif" font-size="10.00">+</text>
<text xml:space="preserve" text-anchor="start" x="44.25" y="-272.5" font-family="Helvetica,sans-Serif" font-size="10.00">operator*()</text>
<text xml:space="preserve" text-anchor="start" x="27.38" y="-257.25" font-family="Helvetica,sans-Serif" font-size="10.00">+</text>
<text xml:space="preserve" text-anchor="start" x="44.25" y="-257.25" font-family="Helvetica,sans-Serif" font-size="10.00">operator*()</text>
<polygon fill="#666666" stroke="#666666" points="16.5,-421.25 16.5,-421.25 112.25,-421.25 112.25,-421.25 16.5,-421.25"/>
<polygon fill="#666666" stroke="#666666" points="16.5,-406 16.5,-406 42.25,-406 42.25,-406 16.5,-406"/>
<polygon fill="#666666" stroke="#666666" points="42.25,-406 42.25,-406 112.25,-406 112.25,-406 42.25,-406"/>
<polygon fill="none" stroke="#666666" points="16.5,-251.5 16.5,-449.75 112.25,-449.75 112.25,-251.5 16.5,-251.5"/>
</a>
</g>
</g>
<!-- Node2&#45;&gt;Node1 -->
<g id="edge1_Node000001_Node000002" class="edge">
<title>Node2&#45;&gt;Node1</title>
<g id="a_edge1_Node000001_Node000002"><a xlink:title=" ">
<path fill="none" stroke="#63b8ff" d="M64.38,-251.73C64.38,-238.39 64.38,-224.61 64.38,-211.05"/>
<polygon fill="none" stroke="#63b8ff" points="64.38,-211.05 60.38,-205.05 64.38,-199.05 68.38,-205.05 64.38,-211.05"/>
</a>
</g>
<text xml:space="preserve" text-anchor="start" x="67.38" y="-221" font-family="Helvetica,sans-Serif" font-size="10.00" fill="grey">&#45;mIo</text>
</g>
<!-- Node3 -->
<g id="Node000003" class="node">
<title>Node3</title>
<g id="a_Node000003"><a xlink:href="structableton_1_1util_1_1Injected.html" target="_top" xlink:title=" ">
<polygon fill="white" stroke="none" points="123.5,-690 5.25,-690 5.25,-503 123.5,-503 123.5,-690"/>
<text xml:space="preserve" text-anchor="start" x="9.25" y="-676.5" font-family="Helvetica,sans-Serif" font-size="10.00">ableton::util::Injected&lt; T &gt;</text>
<text xml:space="preserve" text-anchor="start" x="21.75" y="-661.25" font-family="Helvetica,sans-Serif" font-size="10.00">+</text>
<text xml:space="preserve" text-anchor="start" x="44.25" y="-661.25" font-family="Helvetica,sans-Serif" font-size="10.00">val</text>
<text xml:space="preserve" text-anchor="start" x="21.75" y="-646" font-family="Helvetica,sans-Serif" font-size="10.00">+</text>
<text xml:space="preserve" text-anchor="start" x="44.25" y="-646" font-family="Helvetica,sans-Serif" font-size="10.00">Injected()</text>
<text xml:space="preserve" text-anchor="start" x="21.75" y="-630.75" font-family="Helvetica,sans-Serif" font-size="10.00">+</text>
<text xml:space="preserve" text-anchor="start" x="44.25" y="-630.75" font-family="Helvetica,sans-Serif" font-size="10.00">Injected()</text>
<text xml:space="preserve" text-anchor="start" x="21.75" y="-615.5" font-family="Helvetica,sans-Serif" font-size="10.00">+</text>
<text xml:space="preserve" text-anchor="start" x="44.25" y="-615.5" font-family="Helvetica,sans-Serif" font-size="10.00">Injected()</text>
<text xml:space="preserve" text-anchor="start" x="21.75" y="-600.25" font-family="Helvetica,sans-Serif" font-size="10.00">+</text>
<text xml:space="preserve" text-anchor="start" x="44.25" y="-600.25" font-family="Helvetica,sans-Serif" font-size="10.00">operator=()</text>
<text xml:space="preserve" text-anchor="start" x="21.75" y="-585" font-family="Helvetica,sans-Serif" font-size="10.00">+</text>
<text xml:space="preserve" text-anchor="start" x="44.25" y="-585" font-family="Helvetica,sans-Serif" font-size="10.00">Injected()</text>
<text xml:space="preserve" text-anchor="start" x="21.75" y="-569.75" font-family="Helvetica,sans-Serif" font-size="10.00">+</text>
<text xml:space="preserve" text-anchor="start" x="44.25" y="-569.75" font-family="Helvetica,sans-Serif" font-size="10.00">operator=()</text>
<text xml:space="preserve" text-anchor="start" x="21.75" y="-554.5" font-family="Helvetica,sans-Serif" font-size="10.00">+</text>
<text xml:space="preserve" text-anchor="start" x="44.25" y="-554.5" font-family="Helvetica,sans-Serif" font-size="10.00">operator&#45;&gt;()</text>
<text xml:space="preserve" text-anchor="start" x="21.75" y="-539.25" font-family="Helvetica,sans-Serif" font-size="10.00">+</text>
<text xml:space="preserve" text-anchor="start" x="44.25" y="-539.25" font-family="Helvetica,sans-Serif" font-size="10.00">operator&#45;&gt;()</text>
<text xml:space="preserve" text-anchor="start" x="21.75" y="-524" font-family="Helvetica,sans-Serif" font-size="10.00">+</text>
<text xml:space="preserve" text-anchor="start" x="44.25" y="-524" font-family="Helvetica,sans-Serif" font-size="10.00">operator*()</text>
<text xml:space="preserve" text-anchor="start" x="21.75" y="-508.75" font-family="Helvetica,sans-Serif" font-size="10.00">+</text>
<text xml:space="preserve" text-anchor="start" x="44.25" y="-508.75" font-family="Helvetica,sans-Serif" font-size="10.00">operator*()</text>
<polygon fill="#666666" stroke="#666666" points="5.25,-672.75 5.25,-672.75 123.5,-672.75 123.5,-672.75 5.25,-672.75"/>
<polygon fill="#666666" stroke="#666666" points="5.25,-657.5 5.25,-657.5 42.25,-657.5 42.25,-657.5 5.25,-657.5"/>
<polygon fill="#666666" stroke="#666666" points="42.25,-657.5 42.25,-657.5 123.5,-657.5 123.5,-657.5 42.25,-657.5"/>
<polygon fill="none" stroke="#666666" points="5.25,-503 5.25,-690 123.5,-690 123.5,-503 5.25,-503"/>
</a>
</g>
</g>
<!-- Node3&#45;&gt;Node2 -->
<g id="edge2_Node000002_Node000003" class="edge">
<title>Node3&#45;&gt;Node2</title>
<g id="a_edge2_Node000002_Node000003"><a xlink:title=" ">
<path fill="none" stroke="orange" d="M64.38,-492.1C64.38,-478.03 64.38,-463.62 64.38,-449.65"/>
<polygon fill="orange" stroke="orange" points="60.88,-491.79 64.38,-501.79 67.88,-491.79 60.88,-491.79"/>
</a>
</g>
<text xml:space="preserve" text-anchor="start" x="67.38" y="-472.5" font-family="Helvetica,sans-Serif" font-size="10.00" fill="grey">&lt; IoContext &gt;</text>
</g>
</g>
</svg>

<g id="navigator" transform="translate(0 0)" fill="#404254">
  <rect fill="#f2f5e9" fill-opacity="0.5" stroke="#606060" stroke-width=".5" x="0" y="0" width="60" height="60"/>
  <use id="zoomplus" xlink:href="#zoomPlus" x="17" y="9" onmousedown="handleZoom(evt,'in')"/>
  <use id="zoomminus" xlink:href="#zoomMin" x="42" y="9" onmousedown="handleZoom(evt,'out')"/>
  <use id="reset" xlink:href="#resetDef" x="30" y="36" onmousedown="handleReset()"/>
   <use id="arrowup" xlink:href="#arrowUp" x="0" y="0" onmousedown="handlePan(0,-1)"/>
  <use id="arrowright" xlink:href="#arrowRight" x="0" y="0" onmousedown="handlePan(1,0)"/>
  <use id="arrowdown" xlink:href="#arrowDown" x="0" y="0" onmousedown="handlePan(0,1)"/>
  <use id="arrowleft" xlink:href="#arrowLeft" x="0" y="0" onmousedown="handlePan(-1,0)"/>
</g>
<svg viewBox="0 0 15 15" width="100%" height="30px" preserveAspectRatio="xMaxYMin meet">
 <g id="arrow_out" transform="scale(0.3 0.3)">
  <a xlink:href="classableton_1_1link_1_1MeasurementService__coll__graph_org.svg" target="_base">
   <rect id="button" ry="5" rx="5" y="6" x="6" height="38" width="38"
        fill="#f2f5e9" fill-opacity="0.5" stroke="#606060" stroke-width="1.0"/>
   <path id="arrow"
     d="M 11.500037,31.436501 C 11.940474,20.09759 22.043105,11.32322 32.158766,21.979434 L 37.068811,17.246167 C 37.068811,17.246167 37.088388,32 37.088388,32 L 22.160133,31.978069 C 22.160133,31.978069 26.997745,27.140456 26.997745,27.140456 C 18.528582,18.264221 13.291696,25.230495 11.500037,31.436501 z"
     style="fill:#404040;"/>
  </a>
 </g>
</svg>

<style type='text/css'>
<![CDATA[
[data-mouse-over-selected='false'] { opacity: 0.7; }
[data-mouse-over-selected='true']  { opacity: 1.0; }
]]>
</style>
<script type="application/ecmascript"><![CDATA[
document.addEventListener('DOMContentLoaded', (event) => {
  highlightEdges();
  highlightAdjacentNodes();
});
]]></script>
</svg>
