<?xml version="1.0" encoding="UTF-8" standalone="no"?>
<!DOCTYPE svg PUBLIC "-//W3C//DTD SVG 1.1//EN"
 "http://www.w3.org/Graphics/SVG/1.1/DTD/svg11.dtd">
<!-- Generated by graphviz version 14.0.2 (0)
 -->
<!-- Title: juce::Win32WebView Pages: 1 -->
<!--zoomable 479 -->

<svg id="main" version="1.1" xmlns="http://www.w3.org/2000/svg" xmlns:xlink="http://www.w3.org/1999/xlink" xml:space="preserve" onload="init(evt)">

<style type="text/css"><![CDATA[
.node, .edge {opacity: 0.7;}
.node.selected, .edge.selected {opacity: 1;}
.edge:hover path { stroke: red; }
.edge:hover polygon { stroke: red; fill: red; }
]]></style>

<defs>
  <circle id="rim" cx="0" cy="0" r="7"/>
  <circle id="rim2" cx="0" cy="0" r="3.5"/>
  <g id="zoomPlus">
    <use xlink:href="#rim" fill="#404040"><set attributeName="fill" to="#808080" begin="zoomplus.mouseover" end="zoomplus.mouseout"/></use>
    <path d="M-4,0h8M0,-4v8" fill="none" stroke="white" stroke-width="1.5" pointer-events="none"/>
  </g>
  <g id="zoomMin">
    <use xlink:href="#rim" fill="#404040"><set attributeName="fill" to="#808080" begin="zoomminus.mouseover" end="zoomminus.mouseout"/></use>
    <path d="M-4,0h8" fill="none" stroke="white" stroke-width="1.5" pointer-events="none"/>
  </g>
  <g id="arrowUp" transform="translate(30 24)">
    <use xlink:href="#rim"/>
    <path pointer-events="none" fill="none" stroke="white" stroke-width="1.5" d="M0,-3.0v7 M-2.5,-0.5L0,-3.0L2.5,-0.5"/>
  </g>
  <g id="arrowRight" transform="rotate(90) translate(36 -43)">
    <use xlink:href="#rim"/>
    <path pointer-events="none" fill="none" stroke="white" stroke-width="1.5" d="M0,-3.0v7 M-2.5,-0.5L0,-3.0L2.5,-0.5"/>
  </g>
  <g id="arrowDown" transform="rotate(180) translate(-30 -48)">
    <use xlink:href="#rim"/>
    <path pointer-events="none" fill="none" stroke="white" stroke-width="1.5" d="M0,-3.0v7 M-2.5,-0.5L0,-3.0L2.5,-0.5"/>
  </g>
  <g id="arrowLeft" transform="rotate(270) translate(-36 17)">
    <use xlink:href="#rim"/>
    <path pointer-events="none" fill="none" stroke="white" stroke-width="1.5" d="M0,-3.0v7 M-2.5,-0.5L0,-3.0L2.5,-0.5"/>
  </g>
  <g id="resetDef">
    <use xlink:href="#rim2" fill="#404040"><set attributeName="fill" to="#808080" begin="reset.mouseover" end="reset.mouseout"/></use>
  </g>
</defs>
<script type="application/ecmascript">
var viewWidth = 280;
var viewHeight = 479;
var sectionId = 'dynsection-1';
</script>
<script type="application/ecmascript" xlink:href="svg.min.js"/>
<svg id="graph" class="graph">
<g id="viewport">
<title>juce::Win32WebView</title>
<!-- Node1 -->
<g id="Node000001" class="node">
<title>Node1</title>
<g id="a_Node000001"><a xlink:title=" ">
<polygon fill="#999999" stroke="none" points="204,-232.75 72,-232.75 72,0 204,0 204,-232.75"/>
<text xml:space="preserve" text-anchor="start" x="92.62" y="-219.25" font-family="Helvetica,sans-Serif" font-size="10.00">juce::Win32WebView</text>
<text xml:space="preserve" text-anchor="start" x="77.5" y="-204" font-family="Helvetica,sans-Serif" font-size="10.00">&#45;</text>
<text xml:space="preserve" text-anchor="start" x="86" y="-204" font-family="Helvetica,sans-Serif" font-size="10.00">browser</text>
<text xml:space="preserve" text-anchor="start" x="77.5" y="-188.75" font-family="Helvetica,sans-Serif" font-size="10.00">&#45;</text>
<text xml:space="preserve" text-anchor="start" x="86" y="-188.75" font-family="Helvetica,sans-Serif" font-size="10.00">connectionPoint</text>
<text xml:space="preserve" text-anchor="start" x="77.5" y="-173.5" font-family="Helvetica,sans-Serif" font-size="10.00">&#45;</text>
<text xml:space="preserve" text-anchor="start" x="86" y="-173.5" font-family="Helvetica,sans-Serif" font-size="10.00">adviseCookie</text>
<text xml:space="preserve" text-anchor="start" x="76" y="-158.25" font-family="Helvetica,sans-Serif" font-size="10.00">+</text>
<text xml:space="preserve" text-anchor="start" x="86" y="-158.25" font-family="Helvetica,sans-Serif" font-size="10.00">Win32WebView()</text>
<text xml:space="preserve" text-anchor="start" x="76" y="-143" font-family="Helvetica,sans-Serif" font-size="10.00">+</text>
<text xml:space="preserve" text-anchor="start" x="86" y="-143" font-family="Helvetica,sans-Serif" font-size="10.00">~Win32WebView()</text>
<text xml:space="preserve" text-anchor="start" x="76" y="-127.75" font-family="Helvetica,sans-Serif" font-size="10.00">+</text>
<text xml:space="preserve" text-anchor="start" x="86" y="-127.75" font-family="Helvetica,sans-Serif" font-size="10.00">createBrowser()</text>
<text xml:space="preserve" text-anchor="start" x="76" y="-112.5" font-family="Helvetica,sans-Serif" font-size="10.00">+</text>
<text xml:space="preserve" text-anchor="start" x="86" y="-112.5" font-family="Helvetica,sans-Serif" font-size="10.00">hasBrowserBeenCreated()</text>
<text xml:space="preserve" text-anchor="start" x="76" y="-97.25" font-family="Helvetica,sans-Serif" font-size="10.00">+</text>
<text xml:space="preserve" text-anchor="start" x="86" y="-97.25" font-family="Helvetica,sans-Serif" font-size="10.00">goToURL()</text>
<text xml:space="preserve" text-anchor="start" x="76" y="-82" font-family="Helvetica,sans-Serif" font-size="10.00">+</text>
<text xml:space="preserve" text-anchor="start" x="86" y="-82" font-family="Helvetica,sans-Serif" font-size="10.00">stop()</text>
<text xml:space="preserve" text-anchor="start" x="76" y="-66.75" font-family="Helvetica,sans-Serif" font-size="10.00">+</text>
<text xml:space="preserve" text-anchor="start" x="86" y="-66.75" font-family="Helvetica,sans-Serif" font-size="10.00">goBack()</text>
<text xml:space="preserve" text-anchor="start" x="76" y="-51.5" font-family="Helvetica,sans-Serif" font-size="10.00">+</text>
<text xml:space="preserve" text-anchor="start" x="86" y="-51.5" font-family="Helvetica,sans-Serif" font-size="10.00">goForward()</text>
<text xml:space="preserve" text-anchor="start" x="76" y="-36.25" font-family="Helvetica,sans-Serif" font-size="10.00">+</text>
<text xml:space="preserve" text-anchor="start" x="86" y="-36.25" font-family="Helvetica,sans-Serif" font-size="10.00">refresh()</text>
<text xml:space="preserve" text-anchor="start" x="76" y="-21" font-family="Helvetica,sans-Serif" font-size="10.00">+</text>
<text xml:space="preserve" text-anchor="start" x="86" y="-21" font-family="Helvetica,sans-Serif" font-size="10.00">focusGained()</text>
<text xml:space="preserve" text-anchor="start" x="76" y="-5.75" font-family="Helvetica,sans-Serif" font-size="10.00">+</text>
<text xml:space="preserve" text-anchor="start" x="86" y="-5.75" font-family="Helvetica,sans-Serif" font-size="10.00">setWebViewSize()</text>
<polygon fill="#666666" stroke="#666666" points="72,-215.5 72,-215.5 204,-215.5 204,-215.5 72,-215.5"/>
<polygon fill="#666666" stroke="#666666" points="72,-169.75 72,-169.75 84,-169.75 84,-169.75 72,-169.75"/>
<polygon fill="#666666" stroke="#666666" points="84,-169.75 84,-169.75 204,-169.75 204,-169.75 84,-169.75"/>
<polygon fill="none" stroke="#666666" points="72,0 72,-232.75 204,-232.75 204,0 72,0"/>
</a>
</g>
</g>
<!-- Node2 -->
<g id="Node000002" class="node">
<title>Node2</title>
<g id="a_Node000002"><a xlink:href="structjuce_1_1InternalWebViewType.html" target="_top" xlink:title=" ">
<polygon fill="white" stroke="none" points="132,-471 0,-471 0,-268.75 132,-268.75 132,-471"/>
<text xml:space="preserve" text-anchor="start" x="7.5" y="-457.5" font-family="Helvetica,sans-Serif" font-size="10.00">juce::InternalWebViewType</text>
<text xml:space="preserve" text-anchor="start" x="64.5" y="-442.25" font-family="Helvetica,sans-Serif" font-size="10.00"> </text>
<text xml:space="preserve" text-anchor="start" x="4" y="-427" font-family="Helvetica,sans-Serif" font-size="10.00">+</text>
<text xml:space="preserve" text-anchor="start" x="14" y="-427" font-family="Helvetica,sans-Serif" font-size="10.00">InternalWebViewType()</text>
<text xml:space="preserve" text-anchor="start" x="4" y="-411.75" font-family="Helvetica,sans-Serif" font-size="10.00">+</text>
<text xml:space="preserve" text-anchor="start" x="14" y="-411.75" font-family="Helvetica,sans-Serif" font-size="10.00">~InternalWebViewType()</text>
<text xml:space="preserve" text-anchor="start" x="4" y="-396.5" font-family="Helvetica,sans-Serif" font-size="10.00">+</text>
<text xml:space="preserve" text-anchor="start" x="14" y="-396.5" font-family="Helvetica,sans-Serif" font-size="10.00">createBrowser()</text>
<text xml:space="preserve" text-anchor="start" x="4" y="-381.25" font-family="Helvetica,sans-Serif" font-size="10.00">+</text>
<text xml:space="preserve" text-anchor="start" x="14" y="-381.25" font-family="Helvetica,sans-Serif" font-size="10.00">hasBrowserBeenCreated()</text>
<text xml:space="preserve" text-anchor="start" x="4" y="-366" font-family="Helvetica,sans-Serif" font-size="10.00">+</text>
<text xml:space="preserve" text-anchor="start" x="14" y="-366" font-family="Helvetica,sans-Serif" font-size="10.00">goToURL()</text>
<text xml:space="preserve" text-anchor="start" x="4" y="-350.75" font-family="Helvetica,sans-Serif" font-size="10.00">+</text>
<text xml:space="preserve" text-anchor="start" x="14" y="-350.75" font-family="Helvetica,sans-Serif" font-size="10.00">stop()</text>
<text xml:space="preserve" text-anchor="start" x="4" y="-335.5" font-family="Helvetica,sans-Serif" font-size="10.00">+</text>
<text xml:space="preserve" text-anchor="start" x="14" y="-335.5" font-family="Helvetica,sans-Serif" font-size="10.00">goBack()</text>
<text xml:space="preserve" text-anchor="start" x="4" y="-320.25" font-family="Helvetica,sans-Serif" font-size="10.00">+</text>
<text xml:space="preserve" text-anchor="start" x="14" y="-320.25" font-family="Helvetica,sans-Serif" font-size="10.00">goForward()</text>
<text xml:space="preserve" text-anchor="start" x="4" y="-305" font-family="Helvetica,sans-Serif" font-size="10.00">+</text>
<text xml:space="preserve" text-anchor="start" x="14" y="-305" font-family="Helvetica,sans-Serif" font-size="10.00">refresh()</text>
<text xml:space="preserve" text-anchor="start" x="4" y="-289.75" font-family="Helvetica,sans-Serif" font-size="10.00">+</text>
<text xml:space="preserve" text-anchor="start" x="14" y="-289.75" font-family="Helvetica,sans-Serif" font-size="10.00">focusGained()</text>
<text xml:space="preserve" text-anchor="start" x="4" y="-274.5" font-family="Helvetica,sans-Serif" font-size="10.00">+</text>
<text xml:space="preserve" text-anchor="start" x="14" y="-274.5" font-family="Helvetica,sans-Serif" font-size="10.00">setWebViewSize()</text>
<polygon fill="#666666" stroke="#666666" points="0,-453.75 0,-453.75 132,-453.75 132,-453.75 0,-453.75"/>
<polygon fill="#666666" stroke="#666666" points="0,-438.5 0,-438.5 132,-438.5 132,-438.5 0,-438.5"/>
<polygon fill="none" stroke="#666666" points="0,-268.75 0,-471 132,-471 132,-268.75 0,-268.75"/>
</a>
</g>
</g>
<!-- Node2&#45;&gt;Node1 -->
<g id="edge1_Node000001_Node000002" class="edge">
<title>Node2&#45;&gt;Node1</title>
<g id="a_edge1_Node000001_Node000002"><a xlink:title=" ">
<path fill="none" stroke="#63b8ff" d="M97.8,-257.78C100.21,-249.39 102.63,-240.91 105.04,-232.49"/>
<polygon fill="none" stroke="#63b8ff" points="94.47,-256.72 95.08,-267.3 101.2,-258.65 94.47,-256.72"/>
</a>
</g>
</g>
<!-- Node3 -->
<g id="Node000003" class="node">
<title>Node3</title>
<g id="a_Node000003"><a xlink:title=" ">
<polygon fill="white" stroke="none" points="272.38,-394.75 149.62,-394.75 149.62,-345 272.38,-345 272.38,-394.75"/>
<text xml:space="preserve" text-anchor="start" x="153.62" y="-381.25" font-family="Helvetica,sans-Serif" font-size="10.00">ActiveXControlComponent</text>
<text xml:space="preserve" text-anchor="start" x="209.5" y="-366" font-family="Helvetica,sans-Serif" font-size="10.00"> </text>
<text xml:space="preserve" text-anchor="start" x="209.5" y="-350.75" font-family="Helvetica,sans-Serif" font-size="10.00"> </text>
<polygon fill="#666666" stroke="#666666" points="149.62,-377.5 149.62,-377.5 272.38,-377.5 272.38,-377.5 149.62,-377.5"/>
<polygon fill="#666666" stroke="#666666" points="149.62,-362.25 149.62,-362.25 272.38,-362.25 272.38,-362.25 149.62,-362.25"/>
<polygon fill="none" stroke="#666666" points="149.62,-345 149.62,-394.75 272.38,-394.75 272.38,-345 149.62,-345"/>
</a>
</g>
</g>
<!-- Node3&#45;&gt;Node1 -->
<g id="edge2_Node000001_Node000003" class="edge">
<title>Node3&#45;&gt;Node1</title>
<g id="a_edge2_Node000001_Node000003"><a xlink:title=" ">
<path fill="none" stroke="#63b8ff" d="M200.95,-334.24C193.24,-307.71 182.15,-269.48 171.41,-232.48"/>
<polygon fill="none" stroke="#63b8ff" points="197.56,-335.13 203.71,-343.76 204.28,-333.18 197.56,-335.13"/>
</a>
</g>
</g>
</g>
</svg>

<g id="navigator" transform="translate(0 0)" fill="#404254">
  <rect fill="#f2f5e9" fill-opacity="0.5" stroke="#606060" stroke-width=".5" x="0" y="0" width="60" height="60"/>
  <use id="zoomplus" xlink:href="#zoomPlus" x="17" y="9" onmousedown="handleZoom(evt,'in')"/>
  <use id="zoomminus" xlink:href="#zoomMin" x="42" y="9" onmousedown="handleZoom(evt,'out')"/>
  <use id="reset" xlink:href="#resetDef" x="30" y="36" onmousedown="handleReset()"/>
   <use id="arrowup" xlink:href="#arrowUp" x="0" y="0" onmousedown="handlePan(0,-1)"/>
  <use id="arrowright" xlink:href="#arrowRight" x="0" y="0" onmousedown="handlePan(1,0)"/>
  <use id="arrowdown" xlink:href="#arrowDown" x="0" y="0" onmousedown="handlePan(0,1)"/>
  <use id="arrowleft" xlink:href="#arrowLeft" x="0" y="0" onmousedown="handlePan(-1,0)"/>
</g>
<svg viewBox="0 0 15 15" width="100%" height="30px" preserveAspectRatio="xMaxYMin meet">
 <g id="arrow_out" transform="scale(0.3 0.3)">
  <a xlink:href="classjuce_1_1Win32WebView__coll__graph_org.svg" target="_base">
   <rect id="button" ry="5" rx="5" y="6" x="6" height="38" width="38"
        fill="#f2f5e9" fill-opacity="0.5" stroke="#606060" stroke-width="1.0"/>
   <path id="arrow"
     d="M 11.500037,31.436501 C 11.940474,20.09759 22.043105,11.32322 32.158766,21.979434 L 37.068811,17.246167 C 37.068811,17.246167 37.088388,32 37.088388,32 L 22.160133,31.978069 C 22.160133,31.978069 26.997745,27.140456 26.997745,27.140456 C 18.528582,18.264221 13.291696,25.230495 11.500037,31.436501 z"
     style="fill:#404040;"/>
  </a>
 </g>
</svg>

<style type='text/css'>
<![CDATA[
[data-mouse-over-selected='false'] { opacity: 0.7; }
[data-mouse-over-selected='true']  { opacity: 1.0; }
]]>
</style>
<script type="application/ecmascript"><![CDATA[
document.addEventListener('DOMContentLoaded', (event) => {
  highlightEdges();
  highlightAdjacentNodes();
});
]]></script>
</svg>
