<?xml version="1.0" encoding="UTF-8" standalone="no"?>
<!DOCTYPE svg PUBLIC "-//W3C//DTD SVG 1.1//EN"
 "http://www.w3.org/Graphics/SVG/1.1/DTD/svg11.dtd">
<!-- Generated by graphviz version 14.0.2 (0)
 -->
<!-- Title: juce::TextPropertyComponent::Listener::textPropertyComponentChanged Pages: 1 -->
<svg width="527pt" height="62pt"
 viewBox="0.00 0.00 527.00 62.00" xmlns="http://www.w3.org/2000/svg" xmlns:xlink="http://www.w3.org/1999/xlink">
<g id="graph0" class="graph" transform="scale(1 1) rotate(0) translate(4 58.12)">
<title>juce::TextPropertyComponent::Listener::textPropertyComponentChanged</title>
<!-- Node1 -->
<g id="Node000001" class="node">
<title>Node1</title>
<g id="a_Node000001"><a xlink:title=" ">
<polygon fill="#999999" stroke="#666666" points="519,-41.75 357.5,-41.75 357.5,0 519,0 519,-41.75"/>
<text xml:space="preserve" text-anchor="start" x="365.5" y="-28.25" font-family="Helvetica,sans-Serif" font-size="10.00">juce::TextPropertyComponent</text>
<text xml:space="preserve" text-anchor="start" x="365.5" y="-17" font-family="Helvetica,sans-Serif" font-size="10.00">::Listener::textPropertyComponent</text>
<text xml:space="preserve" text-anchor="middle" x="438.25" y="-5.75" font-family="Helvetica,sans-Serif" font-size="10.00">Changed</text>
</a>
</g>
</g>
<!-- Node2 -->
<g id="Node000002" class="node">
<title>Node2</title>
<g id="a_Node000002"><a xlink:href="classjuce_1_1TextPropertyComponent.html#abea4715dd2e0a75424b0b09a59800273" target="_top" xlink:title=" ">
<polygon fill="white" stroke="#666666" points="321.5,-36.12 178.75,-36.12 178.75,-5.62 321.5,-5.62 321.5,-36.12"/>
<text xml:space="preserve" text-anchor="start" x="186.75" y="-22.62" font-family="Helvetica,sans-Serif" font-size="10.00">juce::TextPropertyComponent</text>
<text xml:space="preserve" text-anchor="middle" x="250.12" y="-11.38" font-family="Helvetica,sans-Serif" font-size="10.00">::callListeners</text>
</a>
</g>
</g>
<!-- Node1&#45;&gt;Node2 -->
<g id="edge1_Node000001_Node000002" class="edge">
<title>Node1&#45;&gt;Node2</title>
<g id="a_edge1_Node000001_Node000002"><a xlink:title=" ">
<path fill="none" stroke="#63b8ff" d="M345.91,-20.88C337.87,-20.88 329.81,-20.88 321.98,-20.88"/>
<polygon fill="#63b8ff" stroke="#63b8ff" points="345.72,-24.38 355.72,-20.88 345.72,-17.38 345.72,-24.38"/>
</a>
</g>
</g>
<!-- Node2&#45;&gt;Node2 -->
<g id="edge2_Node000002_Node000002" class="edge">
<title>Node2&#45;&gt;Node2</title>
<g id="a_edge2_Node000002_Node000002"><a xlink:title=" ">
<path fill="none" stroke="#63b8ff" d="M280.1,-47.83C275.2,-51.6 265.21,-54.12 250.12,-54.12 222.54,-54.12 211.99,-45.68 218.45,-36.61"/>
<polygon fill="#63b8ff" stroke="#63b8ff" points="283.54,-48.52 281.57,-38.11 276.62,-47.47 283.54,-48.52"/>
</a>
</g>
</g>
<!-- Node3 -->
<g id="Node000003" class="node">
<title>Node3</title>
<g id="a_Node000003"><a xlink:href="classjuce_1_1TextPropertyComponent.html#a3664f1ddcc7fbf63c5d958ac0361a7c8" target="_top" xlink:title=" ">
<polygon fill="white" stroke="#666666" points="142.75,-36.12 0,-36.12 0,-5.62 142.75,-5.62 142.75,-36.12"/>
<text xml:space="preserve" text-anchor="start" x="8" y="-22.62" font-family="Helvetica,sans-Serif" font-size="10.00">juce::TextPropertyComponent</text>
<text xml:space="preserve" text-anchor="middle" x="71.38" y="-11.38" font-family="Helvetica,sans-Serif" font-size="10.00">::textWasEdited</text>
</a>
</g>
</g>
<!-- Node2&#45;&gt;Node3 -->
<g id="edge3_Node000002_Node000003" class="edge">
<title>Node2&#45;&gt;Node3</title>
<g id="a_edge3_Node000002_Node000003"><a xlink:title=" ">
<path fill="none" stroke="#63b8ff" d="M166.98,-20.88C158.96,-20.88 150.87,-20.88 142.98,-20.88"/>
<polygon fill="#63b8ff" stroke="#63b8ff" points="166.74,-24.38 176.74,-20.88 166.74,-17.38 166.74,-24.38"/>
</a>
</g>
</g>
<!-- Node3&#45;&gt;Node3 -->
<g id="edge4_Node000003_Node000003" class="edge">
<title>Node3&#45;&gt;Node3</title>
<g id="a_edge4_Node000003_Node000003"><a xlink:title=" ">
<path fill="none" stroke="#63b8ff" d="M101.35,-47.83C96.45,-51.6 86.46,-54.12 71.38,-54.12 43.79,-54.12 33.24,-45.68 39.7,-36.61"/>
<polygon fill="#63b8ff" stroke="#63b8ff" points="104.79,-48.52 102.82,-38.11 97.87,-47.47 104.79,-48.52"/>
</a>
</g>
</g>
</g>
</svg>
