<?xml version="1.0" encoding="UTF-8" standalone="no"?>
<!DOCTYPE svg PUBLIC "-//W3C//DTD SVG 1.1//EN"
 "http://www.w3.org/Graphics/SVG/1.1/DTD/svg11.dtd">
<!-- Generated by graphviz version 14.0.2 (0)
 -->
<!-- Title: zyncarla::Distorsion::Distorsion Pages: 1 -->
<!--zoomable 304 -->

<svg id="main" version="1.1" xmlns="http://www.w3.org/2000/svg" xmlns:xlink="http://www.w3.org/1999/xlink" xml:space="preserve" onload="init(evt)">

<style type="text/css"><![CDATA[
.node, .edge {opacity: 0.7;}
.node.selected, .edge.selected {opacity: 1;}
.edge:hover path { stroke: red; }
.edge:hover polygon { stroke: red; fill: red; }
]]></style>

<defs>
  <circle id="rim" cx="0" cy="0" r="7"/>
  <circle id="rim2" cx="0" cy="0" r="3.5"/>
  <g id="zoomPlus">
    <use xlink:href="#rim" fill="#404040"><set attributeName="fill" to="#808080" begin="zoomplus.mouseover" end="zoomplus.mouseout"/></use>
    <path d="M-4,0h8M0,-4v8" fill="none" stroke="white" stroke-width="1.5" pointer-events="none"/>
  </g>
  <g id="zoomMin">
    <use xlink:href="#rim" fill="#404040"><set attributeName="fill" to="#808080" begin="zoomminus.mouseover" end="zoomminus.mouseout"/></use>
    <path d="M-4,0h8" fill="none" stroke="white" stroke-width="1.5" pointer-events="none"/>
  </g>
  <g id="arrowUp" transform="translate(30 24)">
    <use xlink:href="#rim"/>
    <path pointer-events="none" fill="none" stroke="white" stroke-width="1.5" d="M0,-3.0v7 M-2.5,-0.5L0,-3.0L2.5,-0.5"/>
  </g>
  <g id="arrowRight" transform="rotate(90) translate(36 -43)">
    <use xlink:href="#rim"/>
    <path pointer-events="none" fill="none" stroke="white" stroke-width="1.5" d="M0,-3.0v7 M-2.5,-0.5L0,-3.0L2.5,-0.5"/>
  </g>
  <g id="arrowDown" transform="rotate(180) translate(-30 -48)">
    <use xlink:href="#rim"/>
    <path pointer-events="none" fill="none" stroke="white" stroke-width="1.5" d="M0,-3.0v7 M-2.5,-0.5L0,-3.0L2.5,-0.5"/>
  </g>
  <g id="arrowLeft" transform="rotate(270) translate(-36 17)">
    <use xlink:href="#rim"/>
    <path pointer-events="none" fill="none" stroke="white" stroke-width="1.5" d="M0,-3.0v7 M-2.5,-0.5L0,-3.0L2.5,-0.5"/>
  </g>
  <g id="resetDef">
    <use xlink:href="#rim2" fill="#404040"><set attributeName="fill" to="#808080" begin="reset.mouseover" end="reset.mouseout"/></use>
  </g>
</defs>
<script type="application/ecmascript">
var viewWidth = 698;
var viewHeight = 304;
var sectionId = 'dynsection-2';
</script>
<script type="application/ecmascript" xlink:href="svg.min.js"/>
<svg id="graph" class="graph">
<g id="viewport">
<title>zyncarla::Distorsion::Distorsion</title>
<!-- Node1 -->
<g id="Node000001" class="node">
<title>Node1</title>
<g id="a_Node000001"><a xlink:title=" ">
<polygon fill="#999999" stroke="#666666" points="99.25,-283.5 0,-283.5 0,-253 99.25,-253 99.25,-283.5"/>
<text xml:space="preserve" text-anchor="start" x="8" y="-270" font-family="Helvetica,sans-Serif" font-size="10.00">zyncarla::Distorsion</text>
<text xml:space="preserve" text-anchor="middle" x="49.62" y="-258.75" font-family="Helvetica,sans-Serif" font-size="10.00">::Distorsion</text>
</a>
</g>
</g>
<!-- Node2 -->
<g id="Node000002" class="node">
<title>Node2</title>
<g id="a_Node000002"><a xlink:href="classzyncarla_1_1Distorsion.html#a0ef691abf0e7b93267416f7dd219a96d" target="_top" xlink:title=" ">
<polygon fill="white" stroke="#666666" points="689.75,-245.5 590.5,-245.5 590.5,-215 689.75,-215 689.75,-245.5"/>
<text xml:space="preserve" text-anchor="start" x="598.5" y="-232" font-family="Helvetica,sans-Serif" font-size="10.00">zyncarla::Distorsion</text>
<text xml:space="preserve" text-anchor="middle" x="640.12" y="-220.75" font-family="Helvetica,sans-Serif" font-size="10.00">::cleanup</text>
</a>
</g>
</g>
<!-- Node1&#45;&gt;Node2 -->
<g id="edge1_Node000001_Node000002" class="edge">
<title>Node1&#45;&gt;Node2</title>
<g id="a_edge1_Node000001_Node000002"><a xlink:title=" ">
<path fill="none" stroke="#63b8ff" d="M99.54,-281.16C111.16,-283.69 123.58,-285.96 135.25,-287.25 246.13,-299.54 275.38,-299.59 386.25,-287.25 453.34,-279.78 528.62,-261.5 579.47,-247.64"/>
<polygon fill="#63b8ff" stroke="#63b8ff" points="580.08,-251.1 588.79,-245.06 578.22,-244.35 580.08,-251.1"/>
</a>
</g>
</g>
<!-- Node3 -->
<g id="Node000003" class="node">
<title>Node3</title>
<g id="a_Node000003"><a xlink:href="classzyncarla_1_1Effect.html#a43eb2d38e3b8a47d8bd520dcc6faf998" target="_top" xlink:title=" ">
<polygon fill="white" stroke="#666666" points="245,-277.88 135.25,-277.88 135.25,-258.62 245,-258.62 245,-277.88"/>
<text xml:space="preserve" text-anchor="middle" x="190.12" y="-264.38" font-family="Helvetica,sans-Serif" font-size="10.00">zyncarla::Effect::Effect</text>
</a>
</g>
</g>
<!-- Node1&#45;&gt;Node3 -->
<g id="edge2_Node000001_Node000003" class="edge">
<title>Node1&#45;&gt;Node3</title>
<g id="a_edge2_Node000001_Node000003"><a xlink:title=" ">
<path fill="none" stroke="#63b8ff" d="M99.45,-268.25C107.29,-268.25 115.51,-268.25 123.65,-268.25"/>
<polygon fill="#63b8ff" stroke="#63b8ff" points="123.56,-271.75 133.56,-268.25 123.56,-264.75 123.56,-271.75"/>
</a>
</g>
</g>
<!-- Node5 -->
<g id="Node000005" class="node">
<title>Node5</title>
<g id="a_Node000005"><a xlink:href="classzyncarla_1_1Distorsion.html#a5180a60a85458f7363850ef7b9661305" target="_top" xlink:title=" ">
<polygon fill="white" stroke="#666666" points="239.75,-240.5 140.5,-240.5 140.5,-210 239.75,-210 239.75,-240.5"/>
<text xml:space="preserve" text-anchor="start" x="148.5" y="-227" font-family="Helvetica,sans-Serif" font-size="10.00">zyncarla::Distorsion</text>
<text xml:space="preserve" text-anchor="middle" x="190.12" y="-215.75" font-family="Helvetica,sans-Serif" font-size="10.00">::setpreset</text>
</a>
</g>
</g>
<!-- Node1&#45;&gt;Node5 -->
<g id="edge4_Node000001_Node000005" class="edge">
<title>Node1&#45;&gt;Node5</title>
<g id="a_edge4_Node000001_Node000005"><a xlink:title=" ">
<path fill="none" stroke="#63b8ff" d="M99.45,-253.09C109.18,-250.07 119.49,-246.87 129.53,-243.75"/>
<polygon fill="#63b8ff" stroke="#63b8ff" points="130.31,-247.17 138.82,-240.87 128.24,-240.49 130.31,-247.17"/>
</a>
</g>
</g>
<!-- Node4 -->
<g id="Node000004" class="node">
<title>Node4</title>
<g id="a_Node000004"><a xlink:href="classzyncarla_1_1Effect.html#a2bcce02ae72f91ea617a39ee3acff7af" target="_top" xlink:title=" ">
<polygon fill="white" stroke="#666666" points="386.25,-277.88 281,-277.88 281,-258.62 386.25,-258.62 386.25,-277.88"/>
<text xml:space="preserve" text-anchor="middle" x="333.62" y="-264.38" font-family="Helvetica,sans-Serif" font-size="10.00">zyncarla::Effect::alias</text>
</a>
</g>
</g>
<!-- Node3&#45;&gt;Node4 -->
<g id="edge3_Node000003_Node000004" class="edge">
<title>Node3&#45;&gt;Node4</title>
<g id="a_edge3_Node000003_Node000004"><a xlink:title=" ">
<path fill="none" stroke="#63b8ff" d="M245.43,-268.25C253.18,-268.25 261.21,-268.25 269.11,-268.25"/>
<polygon fill="#63b8ff" stroke="#63b8ff" points="269.05,-271.75 279.05,-268.25 269.05,-264.75 269.05,-271.75"/>
</a>
</g>
</g>
<!-- Node5&#45;&gt;Node2 -->
<g id="edge12_Node000005_Node000002" class="edge">
<title>Node5&#45;&gt;Node2</title>
<g id="a_edge12_Node000005_Node000002"><a xlink:title=" ">
<path fill="none" stroke="#63b8ff" d="M239.92,-225.79C322.37,-226.71 489.02,-228.57 578.71,-229.58"/>
<polygon fill="#63b8ff" stroke="#63b8ff" points="578.5,-233.07 588.53,-229.69 578.57,-226.07 578.5,-233.07"/>
</a>
</g>
</g>
<!-- Node6 -->
<g id="Node000006" class="node">
<title>Node6</title>
<g id="a_Node000006"><a xlink:href="classzyncarla_1_1Distorsion.html#ab5f9c5f4d309353c2c31471547dbb4b6" target="_top" xlink:title=" ">
<polygon fill="white" stroke="#666666" points="383.25,-132.5 284,-132.5 284,-102 383.25,-102 383.25,-132.5"/>
<text xml:space="preserve" text-anchor="start" x="292" y="-119" font-family="Helvetica,sans-Serif" font-size="10.00">zyncarla::Distorsion</text>
<text xml:space="preserve" text-anchor="middle" x="333.62" y="-107.75" font-family="Helvetica,sans-Serif" font-size="10.00">::changepar</text>
</a>
</g>
</g>
<!-- Node5&#45;&gt;Node6 -->
<g id="edge5_Node000005_Node000006" class="edge">
<title>Node5&#45;&gt;Node6</title>
<g id="a_edge5_Node000005_Node000006"><a xlink:title=" ">
<path fill="none" stroke="#63b8ff" d="M211.7,-209.55C235.7,-191.23 275.56,-160.8 302.92,-139.92"/>
<polygon fill="#63b8ff" stroke="#63b8ff" points="305,-142.74 310.82,-133.89 300.75,-137.18 305,-142.74"/>
</a>
</g>
</g>
<!-- Node7 -->
<g id="Node000007" class="node">
<title>Node7</title>
<g id="a_Node000007"><a xlink:href="classzyncarla_1_1Distorsion.html#aad4564da195372866c68dfa88bbfbc95" target="_top" xlink:title=" ">
<polygon fill="white" stroke="#666666" points="538,-202.5 438.75,-202.5 438.75,-172 538,-172 538,-202.5"/>
<text xml:space="preserve" text-anchor="start" x="446.75" y="-189" font-family="Helvetica,sans-Serif" font-size="10.00">zyncarla::Distorsion</text>
<text xml:space="preserve" text-anchor="middle" x="488.38" y="-177.75" font-family="Helvetica,sans-Serif" font-size="10.00">::sethpf</text>
</a>
</g>
</g>
<!-- Node6&#45;&gt;Node7 -->
<g id="edge6_Node000006_Node000007" class="edge">
<title>Node6&#45;&gt;Node7</title>
<g id="a_edge6_Node000006_Node000007"><a xlink:title=" ">
<path fill="none" stroke="#63b8ff" d="M363.05,-132.84C380.02,-141.89 402.11,-153.24 422.25,-162.25 426.07,-163.96 430.04,-165.66 434.06,-167.32"/>
<polygon fill="#63b8ff" stroke="#63b8ff" points="432.73,-170.56 443.31,-171.07 435.35,-164.07 432.73,-170.56"/>
</a>
</g>
</g>
<!-- Node8 -->
<g id="Node000008" class="node">
<title>Node8</title>
<g id="a_Node000008"><a xlink:href="classzyncarla_1_1Distorsion.html#ae9f0265fe811f697ee867f995cf8612e" target="_top" xlink:title=" ">
<polygon fill="white" stroke="#666666" points="538,-153.5 438.75,-153.5 438.75,-123 538,-123 538,-153.5"/>
<text xml:space="preserve" text-anchor="start" x="446.75" y="-140" font-family="Helvetica,sans-Serif" font-size="10.00">zyncarla::Distorsion</text>
<text xml:space="preserve" text-anchor="middle" x="488.38" y="-128.75" font-family="Helvetica,sans-Serif" font-size="10.00">::setlpf</text>
</a>
</g>
</g>
<!-- Node6&#45;&gt;Node8 -->
<g id="edge7_Node000006_Node000008" class="edge">
<title>Node6&#45;&gt;Node8</title>
<g id="a_edge7_Node000006_Node000008"><a xlink:title=" ">
<path fill="none" stroke="#63b8ff" d="M383.38,-123.95C397.22,-125.86 412.47,-127.95 426.92,-129.94"/>
<polygon fill="#63b8ff" stroke="#63b8ff" points="426.42,-133.4 436.8,-131.3 427.37,-126.47 426.42,-133.4"/>
</a>
</g>
</g>
<!-- Node9 -->
<g id="Node000009" class="node">
<title>Node9</title>
<g id="a_Node000009"><a xlink:href="classzyncarla_1_1Effect.html#a89c5db6067fafd25075842db56603caa" target="_top" xlink:title=" ">
<polygon fill="white" stroke="#666666" points="552.25,-104.88 424.5,-104.88 424.5,-85.62 552.25,-85.62 552.25,-104.88"/>
<text xml:space="preserve" text-anchor="middle" x="488.38" y="-91.38" font-family="Helvetica,sans-Serif" font-size="10.00">zyncarla::Effect::setlrcross</text>
</a>
</g>
</g>
<!-- Node6&#45;&gt;Node9 -->
<g id="edge8_Node000006_Node000009" class="edge">
<title>Node6&#45;&gt;Node9</title>
<g id="a_edge8_Node000006_Node000009"><a xlink:title=" ">
<path fill="none" stroke="#63b8ff" d="M383.38,-110.23C392.76,-108.88 402.8,-107.43 412.79,-105.99"/>
<polygon fill="#63b8ff" stroke="#63b8ff" points="413.12,-109.48 422.52,-104.59 412.12,-102.55 413.12,-109.48"/>
</a>
</g>
</g>
<!-- Node10 -->
<g id="Node000010" class="node">
<title>Node10</title>
<g id="a_Node000010"><a xlink:href="classzyncarla_1_1Effect.html#adcdb25c214449584a0fd238b8174baa8" target="_top" xlink:title=" ">
<polygon fill="white" stroke="#666666" points="554.5,-67.88 422.25,-67.88 422.25,-48.62 554.5,-48.62 554.5,-67.88"/>
<text xml:space="preserve" text-anchor="middle" x="488.38" y="-54.38" font-family="Helvetica,sans-Serif" font-size="10.00">zyncarla::Effect::setpanning</text>
</a>
</g>
</g>
<!-- Node6&#45;&gt;Node10 -->
<g id="edge9_Node000006_Node000010" class="edge">
<title>Node6&#45;&gt;Node10</title>
<g id="a_edge9_Node000006_Node000010"><a xlink:title=" ">
<path fill="none" stroke="#63b8ff" d="M364.91,-101.54C381.54,-93.31 402.71,-83.46 422.25,-76.25 426.64,-74.63 431.25,-73.07 435.9,-71.61"/>
<polygon fill="#63b8ff" stroke="#63b8ff" points="436.72,-75.01 445.29,-68.78 434.71,-68.31 436.72,-75.01"/>
</a>
</g>
</g>
<!-- Node11 -->
<g id="Node000011" class="node">
<title>Node11</title>
<g id="a_Node000011"><a xlink:href="classzyncarla_1_1Distorsion.html#a9d434f8fde47473e887326f1df5909b6" target="_top" xlink:title=" ">
<polygon fill="white" stroke="#666666" points="538,-30.5 438.75,-30.5 438.75,0 538,0 538,-30.5"/>
<text xml:space="preserve" text-anchor="start" x="446.75" y="-17" font-family="Helvetica,sans-Serif" font-size="10.00">zyncarla::Distorsion</text>
<text xml:space="preserve" text-anchor="middle" x="488.38" y="-5.75" font-family="Helvetica,sans-Serif" font-size="10.00">::setvolume</text>
</a>
</g>
</g>
<!-- Node6&#45;&gt;Node11 -->
<g id="edge10_Node000006_Node000011" class="edge">
<title>Node6&#45;&gt;Node11</title>
<g id="a_edge10_Node000006_Node000011"><a xlink:title=" ">
<path fill="none" stroke="#63b8ff" d="M348.75,-101.55C365.02,-84.27 393.26,-56.64 422.25,-39.25 424.15,-38.11 426.11,-37.01 428.12,-35.95"/>
<polygon fill="#63b8ff" stroke="#63b8ff" points="429.57,-39.14 437.06,-31.65 426.53,-32.83 429.57,-39.14"/>
</a>
</g>
</g>
<!-- Node11&#45;&gt;Node2 -->
<g id="edge11_Node000011_Node000002" class="edge">
<title>Node11&#45;&gt;Node2</title>
<g id="a_edge11_Node000011_Node000002"><a xlink:title=" ">
<path fill="none" stroke="#63b8ff" d="M538.49,-28.35C544.32,-31.29 549.84,-34.88 554.5,-39.25 602.91,-84.66 625.35,-162.75 634.22,-203.59"/>
<polygon fill="#63b8ff" stroke="#63b8ff" points="630.76,-204.18 636.2,-213.28 637.62,-202.78 630.76,-204.18"/>
</a>
</g>
</g>
</g>
</svg>

<g id="navigator" transform="translate(0 0)" fill="#404254">
  <rect fill="#f2f5e9" fill-opacity="0.5" stroke="#606060" stroke-width=".5" x="0" y="0" width="60" height="60"/>
  <use id="zoomplus" xlink:href="#zoomPlus" x="17" y="9" onmousedown="handleZoom(evt,'in')"/>
  <use id="zoomminus" xlink:href="#zoomMin" x="42" y="9" onmousedown="handleZoom(evt,'out')"/>
  <use id="reset" xlink:href="#resetDef" x="30" y="36" onmousedown="handleReset()"/>
   <use id="arrowup" xlink:href="#arrowUp" x="0" y="0" onmousedown="handlePan(0,-1)"/>
  <use id="arrowright" xlink:href="#arrowRight" x="0" y="0" onmousedown="handlePan(1,0)"/>
  <use id="arrowdown" xlink:href="#arrowDown" x="0" y="0" onmousedown="handlePan(0,1)"/>
  <use id="arrowleft" xlink:href="#arrowLeft" x="0" y="0" onmousedown="handlePan(-1,0)"/>
</g>
<svg viewBox="0 0 15 15" width="100%" height="30px" preserveAspectRatio="xMaxYMin meet">
 <g id="arrow_out" transform="scale(0.3 0.3)">
  <a xlink:href="classzyncarla_1_1Distorsion_a2f3f0834e1c8c02272eb4320973b5645_cgraph_org.svg" target="_base">
   <rect id="button" ry="5" rx="5" y="6" x="6" height="38" width="38"
        fill="#f2f5e9" fill-opacity="0.5" stroke="#606060" stroke-width="1.0"/>
   <path id="arrow"
     d="M 11.500037,31.436501 C 11.940474,20.09759 22.043105,11.32322 32.158766,21.979434 L 37.068811,17.246167 C 37.068811,17.246167 37.088388,32 37.088388,32 L 22.160133,31.978069 C 22.160133,31.978069 26.997745,27.140456 26.997745,27.140456 C 18.528582,18.264221 13.291696,25.230495 11.500037,31.436501 z"
     style="fill:#404040;"/>
  </a>
 </g>
</svg>

<style type='text/css'>
<![CDATA[
[data-mouse-over-selected='false'] { opacity: 0.7; }
[data-mouse-over-selected='true']  { opacity: 1.0; }
]]>
</style>
<script type="application/ecmascript"><![CDATA[
document.addEventListener('DOMContentLoaded', (event) => {
  highlightEdges();
  highlightAdjacentNodes();
});
]]></script>
</svg>
