<?xml version="1.0" encoding="UTF-8" standalone="no"?>
<!DOCTYPE svg PUBLIC "-//W3C//DTD SVG 1.1//EN"
 "http://www.w3.org/Graphics/SVG/1.1/DTD/svg11.dtd">
<!-- Generated by graphviz version 14.0.2 (0)
 -->
<!-- Title: Steinberg::Vst::ProgramList Pages: 1 -->
<svg width="404pt" height="1854pt"
 viewBox="0.00 0.00 404.00 1854.00" xmlns="http://www.w3.org/2000/svg" xmlns:xlink="http://www.w3.org/1999/xlink">
<g id="graph0" class="graph" transform="scale(1 1) rotate(0) translate(4 1849.75)">
<title>Steinberg::Vst::ProgramList</title>
<!-- Node1 -->
<g id="Node000001" class="node">
<title>Node1</title>
<g id="a_Node000001"><a xlink:title=" ">
<polygon fill="#999999" stroke="none" points="267.62,-278.5 141.12,-278.5 141.12,0 267.62,0 267.62,-278.5"/>
<text xml:space="preserve" text-anchor="start" x="145.12" y="-265" font-family="Helvetica,sans-Serif" font-size="10.00">Steinberg::Vst::ProgramList</text>
<text xml:space="preserve" text-anchor="start" x="152" y="-249.75" font-family="Helvetica,sans-Serif" font-size="10.00">#</text>
<text xml:space="preserve" text-anchor="start" x="168.12" y="-249.75" font-family="Helvetica,sans-Serif" font-size="10.00">unitId</text>
<text xml:space="preserve" text-anchor="start" x="152" y="-234.5" font-family="Helvetica,sans-Serif" font-size="10.00">#</text>
<text xml:space="preserve" text-anchor="start" x="168.12" y="-234.5" font-family="Helvetica,sans-Serif" font-size="10.00">programNames</text>
<text xml:space="preserve" text-anchor="start" x="152" y="-219.25" font-family="Helvetica,sans-Serif" font-size="10.00">#</text>
<text xml:space="preserve" text-anchor="start" x="168.12" y="-219.25" font-family="Helvetica,sans-Serif" font-size="10.00">programInfos</text>
<text xml:space="preserve" text-anchor="start" x="151.62" y="-204" font-family="Helvetica,sans-Serif" font-size="10.00">+</text>
<text xml:space="preserve" text-anchor="start" x="168.12" y="-204" font-family="Helvetica,sans-Serif" font-size="10.00">ProgramList()</text>
<text xml:space="preserve" text-anchor="start" x="151.62" y="-188.75" font-family="Helvetica,sans-Serif" font-size="10.00">+</text>
<text xml:space="preserve" text-anchor="start" x="168.12" y="-188.75" font-family="Helvetica,sans-Serif" font-size="10.00">ProgramList()</text>
<text xml:space="preserve" text-anchor="start" x="151.62" y="-173.5" font-family="Helvetica,sans-Serif" font-size="10.00">+</text>
<text xml:space="preserve" text-anchor="start" x="168.12" y="-173.5" font-family="Helvetica,sans-Serif" font-size="10.00">getInfo()</text>
<text xml:space="preserve" text-anchor="start" x="151.62" y="-158.25" font-family="Helvetica,sans-Serif" font-size="10.00">+</text>
<text xml:space="preserve" text-anchor="start" x="168.12" y="-158.25" font-family="Helvetica,sans-Serif" font-size="10.00">getID()</text>
<text xml:space="preserve" text-anchor="start" x="151.62" y="-143" font-family="Helvetica,sans-Serif" font-size="10.00">+</text>
<text xml:space="preserve" text-anchor="start" x="168.12" y="-143" font-family="Helvetica,sans-Serif" font-size="10.00">getName()</text>
<text xml:space="preserve" text-anchor="start" x="151.62" y="-127.75" font-family="Helvetica,sans-Serif" font-size="10.00">+</text>
<text xml:space="preserve" text-anchor="start" x="168.12" y="-127.75" font-family="Helvetica,sans-Serif" font-size="10.00">getCount()</text>
<text xml:space="preserve" text-anchor="start" x="151.62" y="-112.5" font-family="Helvetica,sans-Serif" font-size="10.00">+</text>
<text xml:space="preserve" text-anchor="start" x="168.12" y="-112.5" font-family="Helvetica,sans-Serif" font-size="10.00">getProgramName()</text>
<text xml:space="preserve" text-anchor="start" x="151.62" y="-97.25" font-family="Helvetica,sans-Serif" font-size="10.00">+</text>
<text xml:space="preserve" text-anchor="start" x="168.12" y="-97.25" font-family="Helvetica,sans-Serif" font-size="10.00">setProgramName()</text>
<text xml:space="preserve" text-anchor="start" x="151.62" y="-82" font-family="Helvetica,sans-Serif" font-size="10.00">+</text>
<text xml:space="preserve" text-anchor="start" x="168.12" y="-82" font-family="Helvetica,sans-Serif" font-size="10.00">getProgramInfo()</text>
<text xml:space="preserve" text-anchor="start" x="151.62" y="-66.75" font-family="Helvetica,sans-Serif" font-size="10.00">+</text>
<text xml:space="preserve" text-anchor="start" x="168.12" y="-66.75" font-family="Helvetica,sans-Serif" font-size="10.00">hasPitchNames()</text>
<text xml:space="preserve" text-anchor="start" x="151.62" y="-51.5" font-family="Helvetica,sans-Serif" font-size="10.00">+</text>
<text xml:space="preserve" text-anchor="start" x="168.12" y="-51.5" font-family="Helvetica,sans-Serif" font-size="10.00">getPitchName()</text>
<text xml:space="preserve" text-anchor="start" x="151.62" y="-36.25" font-family="Helvetica,sans-Serif" font-size="10.00">+</text>
<text xml:space="preserve" text-anchor="start" x="168.12" y="-36.25" font-family="Helvetica,sans-Serif" font-size="10.00">addProgram()</text>
<text xml:space="preserve" text-anchor="start" x="151.62" y="-21" font-family="Helvetica,sans-Serif" font-size="10.00">+</text>
<text xml:space="preserve" text-anchor="start" x="168.12" y="-21" font-family="Helvetica,sans-Serif" font-size="10.00">setProgramInfo()</text>
<text xml:space="preserve" text-anchor="start" x="151.62" y="-5.75" font-family="Helvetica,sans-Serif" font-size="10.00">+</text>
<text xml:space="preserve" text-anchor="start" x="168.12" y="-5.75" font-family="Helvetica,sans-Serif" font-size="10.00">getParameter()</text>
<polygon fill="#666666" stroke="#666666" points="141.12,-261.25 141.12,-261.25 267.62,-261.25 267.62,-261.25 141.12,-261.25"/>
<polygon fill="#666666" stroke="#666666" points="141.12,-215.5 141.12,-215.5 166.12,-215.5 166.12,-215.5 141.12,-215.5"/>
<polygon fill="#666666" stroke="#666666" points="166.12,-215.5 166.12,-215.5 267.62,-215.5 267.62,-215.5 166.12,-215.5"/>
<polygon fill="none" stroke="#666666" points="141.12,0 141.12,-278.5 267.62,-278.5 267.62,0 141.12,0"/>
</a>
</g>
</g>
<!-- Node2 -->
<g id="Node000002" class="node">
<title>Node2</title>
<g id="a_Node000002"><a xlink:href="classSteinberg_1_1FObject.html" target="_top" xlink:title=" ">
<polygon fill="white" stroke="none" points="255.75,-1079.25 153,-1079.25 153,-678.75 255.75,-678.75 255.75,-1079.25"/>
<text xml:space="preserve" text-anchor="start" x="164.25" y="-1065.75" font-family="Helvetica,sans-Serif" font-size="10.00">Steinberg::FObject</text>
<text xml:space="preserve" text-anchor="start" x="157.38" y="-1050.5" font-family="Helvetica,sans-Serif" font-size="10.00">#</text>
<text xml:space="preserve" text-anchor="start" x="167" y="-1050.5" font-family="Helvetica,sans-Serif" font-size="10.00">refCount</text>
<text xml:space="preserve" text-anchor="start" x="157" y="-1035.25" font-family="Helvetica,sans-Serif" font-size="10.00">+</text>
<text xml:space="preserve" text-anchor="start" x="167" y="-1035.25" font-family="Helvetica,sans-Serif" font-size="10.00">FObject()</text>
<text xml:space="preserve" text-anchor="start" x="157" y="-1020" font-family="Helvetica,sans-Serif" font-size="10.00">+</text>
<text xml:space="preserve" text-anchor="start" x="167" y="-1020" font-family="Helvetica,sans-Serif" font-size="10.00">FObject()</text>
<text xml:space="preserve" text-anchor="start" x="157" y="-1004.75" font-family="Helvetica,sans-Serif" font-size="10.00">+</text>
<text xml:space="preserve" text-anchor="start" x="167" y="-1004.75" font-family="Helvetica,sans-Serif" font-size="10.00">~FObject()</text>
<text xml:space="preserve" text-anchor="start" x="157" y="-989.5" font-family="Helvetica,sans-Serif" font-size="10.00">+</text>
<text xml:space="preserve" text-anchor="start" x="167" y="-989.5" font-family="Helvetica,sans-Serif" font-size="10.00">operator=()</text>
<text xml:space="preserve" text-anchor="start" x="157" y="-974.25" font-family="Helvetica,sans-Serif" font-size="10.00">+</text>
<text xml:space="preserve" text-anchor="start" x="167" y="-974.25" font-family="Helvetica,sans-Serif" font-size="10.00">isA()</text>
<text xml:space="preserve" text-anchor="start" x="157" y="-959" font-family="Helvetica,sans-Serif" font-size="10.00">+</text>
<text xml:space="preserve" text-anchor="start" x="167" y="-959" font-family="Helvetica,sans-Serif" font-size="10.00">isA()</text>
<text xml:space="preserve" text-anchor="start" x="157" y="-943.75" font-family="Helvetica,sans-Serif" font-size="10.00">+</text>
<text xml:space="preserve" text-anchor="start" x="167" y="-943.75" font-family="Helvetica,sans-Serif" font-size="10.00">isTypeOf()</text>
<text xml:space="preserve" text-anchor="start" x="157" y="-928.5" font-family="Helvetica,sans-Serif" font-size="10.00">+</text>
<text xml:space="preserve" text-anchor="start" x="167" y="-928.5" font-family="Helvetica,sans-Serif" font-size="10.00">getRefCount()</text>
<text xml:space="preserve" text-anchor="start" x="157" y="-913.25" font-family="Helvetica,sans-Serif" font-size="10.00">+</text>
<text xml:space="preserve" text-anchor="start" x="167" y="-913.25" font-family="Helvetica,sans-Serif" font-size="10.00">unknownCast()</text>
<text xml:space="preserve" text-anchor="start" x="157" y="-898" font-family="Helvetica,sans-Serif" font-size="10.00">+</text>
<text xml:space="preserve" text-anchor="start" x="167" y="-898" font-family="Helvetica,sans-Serif" font-size="10.00">queryInterface()</text>
<text xml:space="preserve" text-anchor="start" x="157" y="-882.75" font-family="Helvetica,sans-Serif" font-size="10.00">+</text>
<text xml:space="preserve" text-anchor="start" x="167" y="-882.75" font-family="Helvetica,sans-Serif" font-size="10.00">addRef()</text>
<text xml:space="preserve" text-anchor="start" x="157" y="-867.5" font-family="Helvetica,sans-Serif" font-size="10.00">+</text>
<text xml:space="preserve" text-anchor="start" x="167" y="-867.5" font-family="Helvetica,sans-Serif" font-size="10.00">release()</text>
<text xml:space="preserve" text-anchor="start" x="157" y="-852.25" font-family="Helvetica,sans-Serif" font-size="10.00">+</text>
<text xml:space="preserve" text-anchor="start" x="167" y="-852.25" font-family="Helvetica,sans-Serif" font-size="10.00">update()</text>
<text xml:space="preserve" text-anchor="start" x="157" y="-837" font-family="Helvetica,sans-Serif" font-size="10.00">+</text>
<text xml:space="preserve" text-anchor="start" x="167" y="-837" font-family="Helvetica,sans-Serif" font-size="10.00">addDependent()</text>
<text xml:space="preserve" text-anchor="start" x="157" y="-821.75" font-family="Helvetica,sans-Serif" font-size="10.00">+</text>
<text xml:space="preserve" text-anchor="start" x="167" y="-821.75" font-family="Helvetica,sans-Serif" font-size="10.00">removeDependent()</text>
<text xml:space="preserve" text-anchor="start" x="157" y="-806.5" font-family="Helvetica,sans-Serif" font-size="10.00">+</text>
<text xml:space="preserve" text-anchor="start" x="167" y="-806.5" font-family="Helvetica,sans-Serif" font-size="10.00">changed()</text>
<text xml:space="preserve" text-anchor="start" x="157" y="-791.25" font-family="Helvetica,sans-Serif" font-size="10.00">+</text>
<text xml:space="preserve" text-anchor="start" x="167" y="-791.25" font-family="Helvetica,sans-Serif" font-size="10.00">deferUpdate()</text>
<text xml:space="preserve" text-anchor="start" x="157" y="-776" font-family="Helvetica,sans-Serif" font-size="10.00">+</text>
<text xml:space="preserve" text-anchor="start" x="167" y="-776" font-family="Helvetica,sans-Serif" font-size="10.00">updateDone()</text>
<text xml:space="preserve" text-anchor="start" x="157" y="-760.75" font-family="Helvetica,sans-Serif" font-size="10.00">+</text>
<text xml:space="preserve" text-anchor="start" x="167" y="-760.75" font-family="Helvetica,sans-Serif" font-size="10.00">isEqualInstance()</text>
<text xml:space="preserve" text-anchor="start" x="157" y="-745.5" font-family="Helvetica,sans-Serif" font-size="10.00">+</text>
<text xml:space="preserve" text-anchor="start" x="167" y="-745.5" font-family="Helvetica,sans-Serif" font-size="10.00">getFClassID()</text>
<text xml:space="preserve" text-anchor="start" x="157" y="-730.25" font-family="Helvetica,sans-Serif" font-size="10.00">+</text>
<text xml:space="preserve" text-anchor="start" x="167" y="-730.25" font-family="Helvetica,sans-Serif" font-size="10.00">setUpdateHandler()</text>
<text xml:space="preserve" text-anchor="start" x="157" y="-715" font-family="Helvetica,sans-Serif" font-size="10.00">+</text>
<text xml:space="preserve" text-anchor="start" x="167" y="-715" font-family="Helvetica,sans-Serif" font-size="10.00">getUpdateHandler()</text>
<text xml:space="preserve" text-anchor="start" x="157" y="-699.75" font-family="Helvetica,sans-Serif" font-size="10.00">+</text>
<text xml:space="preserve" text-anchor="start" x="167" y="-699.75" font-family="Helvetica,sans-Serif" font-size="10.00">classIDsEqual()</text>
<text xml:space="preserve" text-anchor="start" x="157" y="-684.5" font-family="Helvetica,sans-Serif" font-size="10.00">+</text>
<text xml:space="preserve" text-anchor="start" x="167" y="-684.5" font-family="Helvetica,sans-Serif" font-size="10.00">unknownToObject()</text>
<polygon fill="#666666" stroke="#666666" points="153,-1062 153,-1062 255.75,-1062 255.75,-1062 153,-1062"/>
<polygon fill="#666666" stroke="#666666" points="153,-1046.75 153,-1046.75 165,-1046.75 165,-1046.75 153,-1046.75"/>
<polygon fill="#666666" stroke="#666666" points="165,-1046.75 165,-1046.75 255.75,-1046.75 255.75,-1046.75 165,-1046.75"/>
<polygon fill="none" stroke="#666666" points="153,-678.75 153,-1079.25 255.75,-1079.25 255.75,-678.75 153,-678.75"/>
</a>
</g>
</g>
<!-- Node2&#45;&gt;Node1 -->
<g id="edge1_Node000001_Node000002" class="edge">
<title>Node2&#45;&gt;Node1</title>
<g id="a_edge1_Node000001_Node000002"><a xlink:title=" ">
<path fill="none" stroke="#63b8ff" d="M204.38,-667.61C204.38,-542.71 204.38,-387.86 204.38,-278.35"/>
<polygon fill="none" stroke="#63b8ff" points="200.88,-667.33 204.38,-677.33 207.88,-667.33 200.88,-667.33"/>
</a>
</g>
</g>
<!-- Node8 -->
<g id="Node000008" class="node">
<title>Node8</title>
<g id="a_Node000008"><a xlink:href="classSteinberg_1_1Vst_1_1Parameter.html" target="_top" xlink:title=" ">
<polygon fill="white" stroke="none" points="176.5,-625.5 58.25,-625.5 58.25,-331.75 176.5,-331.75 176.5,-625.5"/>
<text xml:space="preserve" text-anchor="start" x="62.25" y="-612" font-family="Helvetica,sans-Serif" font-size="10.00">Steinberg::Vst::Parameter</text>
<text xml:space="preserve" text-anchor="start" x="69.69" y="-596.75" font-family="Helvetica,sans-Serif" font-size="10.00">#</text>
<text xml:space="preserve" text-anchor="start" x="86.38" y="-596.75" font-family="Helvetica,sans-Serif" font-size="10.00">valueNormalized</text>
<text xml:space="preserve" text-anchor="start" x="69.69" y="-581.5" font-family="Helvetica,sans-Serif" font-size="10.00">#</text>
<text xml:space="preserve" text-anchor="start" x="86.38" y="-581.5" font-family="Helvetica,sans-Serif" font-size="10.00">precision</text>
<text xml:space="preserve" text-anchor="start" x="69.31" y="-566.25" font-family="Helvetica,sans-Serif" font-size="10.00">+</text>
<text xml:space="preserve" text-anchor="start" x="86.38" y="-566.25" font-family="Helvetica,sans-Serif" font-size="10.00">Parameter()</text>
<text xml:space="preserve" text-anchor="start" x="69.31" y="-551" font-family="Helvetica,sans-Serif" font-size="10.00">+</text>
<text xml:space="preserve" text-anchor="start" x="86.38" y="-551" font-family="Helvetica,sans-Serif" font-size="10.00">Parameter()</text>
<text xml:space="preserve" text-anchor="start" x="69.31" y="-535.75" font-family="Helvetica,sans-Serif" font-size="10.00">+</text>
<text xml:space="preserve" text-anchor="start" x="86.38" y="-535.75" font-family="Helvetica,sans-Serif" font-size="10.00">Parameter()</text>
<text xml:space="preserve" text-anchor="start" x="69.31" y="-520.5" font-family="Helvetica,sans-Serif" font-size="10.00">+</text>
<text xml:space="preserve" text-anchor="start" x="86.38" y="-520.5" font-family="Helvetica,sans-Serif" font-size="10.00">~Parameter()</text>
<text xml:space="preserve" text-anchor="start" x="69.31" y="-505.25" font-family="Helvetica,sans-Serif" font-size="10.00">+</text>
<text xml:space="preserve" text-anchor="start" x="86.38" y="-505.25" font-family="Helvetica,sans-Serif" font-size="10.00">getInfo()</text>
<text xml:space="preserve" text-anchor="start" x="69.31" y="-490" font-family="Helvetica,sans-Serif" font-size="10.00">+</text>
<text xml:space="preserve" text-anchor="start" x="86.38" y="-490" font-family="Helvetica,sans-Serif" font-size="10.00">getInfo()</text>
<text xml:space="preserve" text-anchor="start" x="69.31" y="-474.75" font-family="Helvetica,sans-Serif" font-size="10.00">+</text>
<text xml:space="preserve" text-anchor="start" x="86.38" y="-474.75" font-family="Helvetica,sans-Serif" font-size="10.00">setUnitID()</text>
<text xml:space="preserve" text-anchor="start" x="69.31" y="-459.5" font-family="Helvetica,sans-Serif" font-size="10.00">+</text>
<text xml:space="preserve" text-anchor="start" x="86.38" y="-459.5" font-family="Helvetica,sans-Serif" font-size="10.00">getUnitID()</text>
<text xml:space="preserve" text-anchor="start" x="69.31" y="-444.25" font-family="Helvetica,sans-Serif" font-size="10.00">+</text>
<text xml:space="preserve" text-anchor="start" x="86.38" y="-444.25" font-family="Helvetica,sans-Serif" font-size="10.00">getNormalized()</text>
<text xml:space="preserve" text-anchor="start" x="69.31" y="-429" font-family="Helvetica,sans-Serif" font-size="10.00">+</text>
<text xml:space="preserve" text-anchor="start" x="86.38" y="-429" font-family="Helvetica,sans-Serif" font-size="10.00">setNormalized()</text>
<text xml:space="preserve" text-anchor="start" x="69.31" y="-413.75" font-family="Helvetica,sans-Serif" font-size="10.00">+</text>
<text xml:space="preserve" text-anchor="start" x="86.38" y="-413.75" font-family="Helvetica,sans-Serif" font-size="10.00">toString()</text>
<text xml:space="preserve" text-anchor="start" x="69.31" y="-398.5" font-family="Helvetica,sans-Serif" font-size="10.00">+</text>
<text xml:space="preserve" text-anchor="start" x="86.38" y="-398.5" font-family="Helvetica,sans-Serif" font-size="10.00">fromString()</text>
<text xml:space="preserve" text-anchor="start" x="69.31" y="-383.25" font-family="Helvetica,sans-Serif" font-size="10.00">+</text>
<text xml:space="preserve" text-anchor="start" x="86.38" y="-383.25" font-family="Helvetica,sans-Serif" font-size="10.00">toPlain()</text>
<text xml:space="preserve" text-anchor="start" x="69.31" y="-368" font-family="Helvetica,sans-Serif" font-size="10.00">+</text>
<text xml:space="preserve" text-anchor="start" x="86.38" y="-368" font-family="Helvetica,sans-Serif" font-size="10.00">toNormalized()</text>
<text xml:space="preserve" text-anchor="start" x="69.31" y="-352.75" font-family="Helvetica,sans-Serif" font-size="10.00">+</text>
<text xml:space="preserve" text-anchor="start" x="86.38" y="-352.75" font-family="Helvetica,sans-Serif" font-size="10.00">getPrecision()</text>
<text xml:space="preserve" text-anchor="start" x="69.31" y="-337.5" font-family="Helvetica,sans-Serif" font-size="10.00">+</text>
<text xml:space="preserve" text-anchor="start" x="86.38" y="-337.5" font-family="Helvetica,sans-Serif" font-size="10.00">setPrecision()</text>
<polygon fill="#666666" stroke="#666666" points="58.25,-608.25 58.25,-608.25 176.5,-608.25 176.5,-608.25 58.25,-608.25"/>
<polygon fill="#666666" stroke="#666666" points="58.25,-577.75 58.25,-577.75 84.38,-577.75 84.38,-577.75 58.25,-577.75"/>
<polygon fill="#666666" stroke="#666666" points="84.38,-577.75 84.38,-577.75 176.5,-577.75 176.5,-577.75 84.38,-577.75"/>
<polygon fill="none" stroke="#666666" points="58.25,-331.75 58.25,-625.5 176.5,-625.5 176.5,-331.75 58.25,-331.75"/>
</a>
</g>
</g>
<!-- Node2&#45;&gt;Node8 -->
<g id="edge12_Node000008_Node000002" class="edge">
<title>Node2&#45;&gt;Node8</title>
<g id="a_edge12_Node000008_Node000002"><a xlink:title=" ">
<path fill="none" stroke="#63b8ff" d="M158.48,-667.85C155.35,-653.53 152.24,-639.29 149.21,-625.42"/>
<polygon fill="none" stroke="#63b8ff" points="155,-668.31 160.55,-677.33 161.84,-666.82 155,-668.31"/>
</a>
</g>
</g>
<!-- Node3 -->
<g id="Node000003" class="node">
<title>Node3</title>
<g id="a_Node000003"><a xlink:href="classSteinberg_1_1IDependent.html" target="_top" xlink:title=" ">
<polygon fill="white" stroke="none" points="256,-1205.12 152.75,-1205.12 152.75,-1155.38 256,-1155.38 256,-1205.12"/>
<text xml:space="preserve" text-anchor="start" x="156.75" y="-1191.62" font-family="Helvetica,sans-Serif" font-size="10.00">Steinberg::IDependent</text>
<text xml:space="preserve" text-anchor="start" x="202.88" y="-1176.38" font-family="Helvetica,sans-Serif" font-size="10.00"> </text>
<text xml:space="preserve" text-anchor="start" x="169.25" y="-1161.12" font-family="Helvetica,sans-Serif" font-size="10.00">+</text>
<text xml:space="preserve" text-anchor="start" x="191.75" y="-1161.12" font-family="Helvetica,sans-Serif" font-size="10.00">update()</text>
<polygon fill="#666666" stroke="#666666" points="152.75,-1187.88 152.75,-1187.88 256,-1187.88 256,-1187.88 152.75,-1187.88"/>
<polygon fill="#666666" stroke="#666666" points="152.75,-1172.62 152.75,-1172.62 256,-1172.62 256,-1172.62 152.75,-1172.62"/>
<polygon fill="none" stroke="#666666" points="152.75,-1155.38 152.75,-1205.12 256,-1205.12 256,-1155.38 152.75,-1155.38"/>
</a>
</g>
</g>
<!-- Node3&#45;&gt;Node2 -->
<g id="edge2_Node000002_Node000003" class="edge">
<title>Node3&#45;&gt;Node2</title>
<g id="a_edge2_Node000002_Node000003"><a xlink:title=" ">
<path fill="none" stroke="#63b8ff" d="M204.38,-1144.01C204.38,-1126.52 204.38,-1103.86 204.38,-1079.18"/>
<polygon fill="none" stroke="#63b8ff" points="200.88,-1144 204.38,-1154 207.88,-1144 200.88,-1144"/>
</a>
</g>
</g>
<!-- Node4 -->
<g id="Node000004" class="node">
<title>Node4</title>
<g id="a_Node000004"><a xlink:href="classSteinberg_1_1FUnknown.html" target="_top" xlink:title=" ">
<polygon fill="white" stroke="none" points="310.88,-1361.5 209.88,-1361.5 209.88,-1281.25 310.88,-1281.25 310.88,-1361.5"/>
<text xml:space="preserve" text-anchor="start" x="213.88" y="-1348" font-family="Helvetica,sans-Serif" font-size="10.00">Steinberg::FUnknown</text>
<text xml:space="preserve" text-anchor="start" x="258.88" y="-1332.75" font-family="Helvetica,sans-Serif" font-size="10.00"> </text>
<text xml:space="preserve" text-anchor="start" x="217.75" y="-1317.5" font-family="Helvetica,sans-Serif" font-size="10.00">+</text>
<text xml:space="preserve" text-anchor="start" x="231.62" y="-1317.5" font-family="Helvetica,sans-Serif" font-size="10.00">queryInterface()</text>
<text xml:space="preserve" text-anchor="start" x="217.75" y="-1302.25" font-family="Helvetica,sans-Serif" font-size="10.00">+</text>
<text xml:space="preserve" text-anchor="start" x="231.62" y="-1302.25" font-family="Helvetica,sans-Serif" font-size="10.00">addRef()</text>
<text xml:space="preserve" text-anchor="start" x="217.75" y="-1287" font-family="Helvetica,sans-Serif" font-size="10.00">+</text>
<text xml:space="preserve" text-anchor="start" x="231.62" y="-1287" font-family="Helvetica,sans-Serif" font-size="10.00">release()</text>
<polygon fill="#666666" stroke="#666666" points="209.88,-1344.25 209.88,-1344.25 310.88,-1344.25 310.88,-1344.25 209.88,-1344.25"/>
<polygon fill="#666666" stroke="#666666" points="209.88,-1329 209.88,-1329 310.88,-1329 310.88,-1329 209.88,-1329"/>
<polygon fill="none" stroke="#666666" points="209.88,-1281.25 209.88,-1361.5 310.88,-1361.5 310.88,-1281.25 209.88,-1281.25"/>
</a>
</g>
</g>
<!-- Node4&#45;&gt;Node3 -->
<g id="edge3_Node000003_Node000004" class="edge">
<title>Node4&#45;&gt;Node3</title>
<g id="a_edge3_Node000003_Node000004"><a xlink:title=" ">
<path fill="none" stroke="#63b8ff" d="M240.44,-1270.85C231.4,-1248.39 221.13,-1222.88 213.87,-1204.84"/>
<polygon fill="none" stroke="#63b8ff" points="237.08,-1271.88 244.06,-1279.85 243.57,-1269.26 237.08,-1271.88"/>
</a>
</g>
</g>
<!-- Node6 -->
<g id="Node000006" class="node">
<title>Node6</title>
<g id="a_Node000006"><a xlink:href="classSteinberg_1_1IUpdateHandler.html" target="_top" xlink:title=" ">
<polygon fill="white" stroke="none" points="396.38,-1228 274.38,-1228 274.38,-1132.5 396.38,-1132.5 396.38,-1228"/>
<text xml:space="preserve" text-anchor="start" x="278.38" y="-1214.5" font-family="Helvetica,sans-Serif" font-size="10.00">Steinberg::IUpdateHandler</text>
<text xml:space="preserve" text-anchor="start" x="333.88" y="-1199.25" font-family="Helvetica,sans-Serif" font-size="10.00"> </text>
<text xml:space="preserve" text-anchor="start" x="283.19" y="-1184" font-family="Helvetica,sans-Serif" font-size="10.00">+</text>
<text xml:space="preserve" text-anchor="start" x="298" y="-1184" font-family="Helvetica,sans-Serif" font-size="10.00">addDependent()</text>
<text xml:space="preserve" text-anchor="start" x="283.19" y="-1168.75" font-family="Helvetica,sans-Serif" font-size="10.00">+</text>
<text xml:space="preserve" text-anchor="start" x="298" y="-1168.75" font-family="Helvetica,sans-Serif" font-size="10.00">removeDependent()</text>
<text xml:space="preserve" text-anchor="start" x="283.19" y="-1153.5" font-family="Helvetica,sans-Serif" font-size="10.00">+</text>
<text xml:space="preserve" text-anchor="start" x="298" y="-1153.5" font-family="Helvetica,sans-Serif" font-size="10.00">triggerUpdates()</text>
<text xml:space="preserve" text-anchor="start" x="283.19" y="-1138.25" font-family="Helvetica,sans-Serif" font-size="10.00">+</text>
<text xml:space="preserve" text-anchor="start" x="298" y="-1138.25" font-family="Helvetica,sans-Serif" font-size="10.00">deferUpdates()</text>
<polygon fill="#666666" stroke="#666666" points="274.38,-1210.75 274.38,-1210.75 396.38,-1210.75 396.38,-1210.75 274.38,-1210.75"/>
<polygon fill="#666666" stroke="#666666" points="274.38,-1195.5 274.38,-1195.5 396.38,-1195.5 396.38,-1195.5 274.38,-1195.5"/>
<polygon fill="none" stroke="#666666" points="274.38,-1132.5 274.38,-1228 396.38,-1228 396.38,-1132.5 274.38,-1132.5"/>
</a>
</g>
</g>
<!-- Node4&#45;&gt;Node6 -->
<g id="edge8_Node000006_Node000004" class="edge">
<title>Node4&#45;&gt;Node6</title>
<g id="a_edge8_Node000006_Node000004"><a xlink:title=" ">
<path fill="none" stroke="#63b8ff" d="M286.85,-1271.26C294.44,-1257.19 302.68,-1241.89 310.19,-1227.97"/>
<polygon fill="none" stroke="#63b8ff" points="283.85,-1269.46 282.18,-1279.92 290.01,-1272.78 283.85,-1269.46"/>
</a>
</g>
</g>
<!-- Node5 -->
<g id="Node000005" class="node">
<title>Node5</title>
<g id="a_Node000005"><a xlink:href="classSteinberg_1_1FUID.html" target="_top" xlink:title=" ">
<polygon fill="white" stroke="none" points="275.38,-1845.75 155.38,-1845.75 155.38,-1414.75 275.38,-1414.75 275.38,-1845.75"/>
<text xml:space="preserve" text-anchor="start" x="180.88" y="-1832.25" font-family="Helvetica,sans-Serif" font-size="10.00">Steinberg::FUID</text>
<text xml:space="preserve" text-anchor="start" x="159.75" y="-1817" font-family="Helvetica,sans-Serif" font-size="10.00">#</text>
<text xml:space="preserve" text-anchor="start" x="169.38" y="-1817" font-family="Helvetica,sans-Serif" font-size="10.00">data</text>
<text xml:space="preserve" text-anchor="start" x="159.38" y="-1801.75" font-family="Helvetica,sans-Serif" font-size="10.00">+</text>
<text xml:space="preserve" text-anchor="start" x="169.38" y="-1801.75" font-family="Helvetica,sans-Serif" font-size="10.00">FUID()</text>
<text xml:space="preserve" text-anchor="start" x="159.38" y="-1786.5" font-family="Helvetica,sans-Serif" font-size="10.00">+</text>
<text xml:space="preserve" text-anchor="start" x="169.38" y="-1786.5" font-family="Helvetica,sans-Serif" font-size="10.00">FUID()</text>
<text xml:space="preserve" text-anchor="start" x="159.38" y="-1771.25" font-family="Helvetica,sans-Serif" font-size="10.00">+</text>
<text xml:space="preserve" text-anchor="start" x="169.38" y="-1771.25" font-family="Helvetica,sans-Serif" font-size="10.00">FUID()</text>
<text xml:space="preserve" text-anchor="start" x="159.38" y="-1756" font-family="Helvetica,sans-Serif" font-size="10.00">+</text>
<text xml:space="preserve" text-anchor="start" x="169.38" y="-1756" font-family="Helvetica,sans-Serif" font-size="10.00">~FUID()</text>
<text xml:space="preserve" text-anchor="start" x="159.38" y="-1740.75" font-family="Helvetica,sans-Serif" font-size="10.00">+</text>
<text xml:space="preserve" text-anchor="start" x="169.38" y="-1740.75" font-family="Helvetica,sans-Serif" font-size="10.00">generate()</text>
<text xml:space="preserve" text-anchor="start" x="159.38" y="-1725.5" font-family="Helvetica,sans-Serif" font-size="10.00">+</text>
<text xml:space="preserve" text-anchor="start" x="169.38" y="-1725.5" font-family="Helvetica,sans-Serif" font-size="10.00">isValid()</text>
<text xml:space="preserve" text-anchor="start" x="159.38" y="-1710.25" font-family="Helvetica,sans-Serif" font-size="10.00">+</text>
<text xml:space="preserve" text-anchor="start" x="169.38" y="-1710.25" font-family="Helvetica,sans-Serif" font-size="10.00">operator=()</text>
<text xml:space="preserve" text-anchor="start" x="159.38" y="-1695" font-family="Helvetica,sans-Serif" font-size="10.00">+</text>
<text xml:space="preserve" text-anchor="start" x="169.38" y="-1695" font-family="Helvetica,sans-Serif" font-size="10.00">operator==()</text>
<text xml:space="preserve" text-anchor="start" x="159.38" y="-1679.75" font-family="Helvetica,sans-Serif" font-size="10.00">+</text>
<text xml:space="preserve" text-anchor="start" x="169.38" y="-1679.75" font-family="Helvetica,sans-Serif" font-size="10.00">operator&lt;()</text>
<text xml:space="preserve" text-anchor="start" x="159.38" y="-1664.5" font-family="Helvetica,sans-Serif" font-size="10.00">+</text>
<text xml:space="preserve" text-anchor="start" x="169.38" y="-1664.5" font-family="Helvetica,sans-Serif" font-size="10.00">operator!=()</text>
<text xml:space="preserve" text-anchor="start" x="159.38" y="-1649.25" font-family="Helvetica,sans-Serif" font-size="10.00">+</text>
<text xml:space="preserve" text-anchor="start" x="169.38" y="-1649.25" font-family="Helvetica,sans-Serif" font-size="10.00">getLong1()</text>
<text xml:space="preserve" text-anchor="start" x="159.38" y="-1634" font-family="Helvetica,sans-Serif" font-size="10.00">+</text>
<text xml:space="preserve" text-anchor="start" x="169.38" y="-1634" font-family="Helvetica,sans-Serif" font-size="10.00">getLong2()</text>
<text xml:space="preserve" text-anchor="start" x="159.38" y="-1618.75" font-family="Helvetica,sans-Serif" font-size="10.00">+</text>
<text xml:space="preserve" text-anchor="start" x="169.38" y="-1618.75" font-family="Helvetica,sans-Serif" font-size="10.00">getLong3()</text>
<text xml:space="preserve" text-anchor="start" x="159.38" y="-1603.5" font-family="Helvetica,sans-Serif" font-size="10.00">+</text>
<text xml:space="preserve" text-anchor="start" x="169.38" y="-1603.5" font-family="Helvetica,sans-Serif" font-size="10.00">getLong4()</text>
<text xml:space="preserve" text-anchor="start" x="159.38" y="-1588.25" font-family="Helvetica,sans-Serif" font-size="10.00">+</text>
<text xml:space="preserve" text-anchor="start" x="169.38" y="-1588.25" font-family="Helvetica,sans-Serif" font-size="10.00">from4Int()</text>
<text xml:space="preserve" text-anchor="start" x="159.38" y="-1573" font-family="Helvetica,sans-Serif" font-size="10.00">+</text>
<text xml:space="preserve" text-anchor="start" x="169.38" y="-1573" font-family="Helvetica,sans-Serif" font-size="10.00">to4Int()</text>
<text xml:space="preserve" text-anchor="start" x="159.38" y="-1557.75" font-family="Helvetica,sans-Serif" font-size="10.00">+</text>
<text xml:space="preserve" text-anchor="start" x="169.38" y="-1557.75" font-family="Helvetica,sans-Serif" font-size="10.00">toString()</text>
<text xml:space="preserve" text-anchor="start" x="159.38" y="-1542.5" font-family="Helvetica,sans-Serif" font-size="10.00">+</text>
<text xml:space="preserve" text-anchor="start" x="169.38" y="-1542.5" font-family="Helvetica,sans-Serif" font-size="10.00">fromString()</text>
<text xml:space="preserve" text-anchor="start" x="159.38" y="-1527.25" font-family="Helvetica,sans-Serif" font-size="10.00">+</text>
<text xml:space="preserve" text-anchor="start" x="169.38" y="-1527.25" font-family="Helvetica,sans-Serif" font-size="10.00">toRegistryString()</text>
<text xml:space="preserve" text-anchor="start" x="159.38" y="-1512" font-family="Helvetica,sans-Serif" font-size="10.00">+</text>
<text xml:space="preserve" text-anchor="start" x="169.38" y="-1512" font-family="Helvetica,sans-Serif" font-size="10.00">fromRegistryString()</text>
<text xml:space="preserve" text-anchor="start" x="159.38" y="-1496.75" font-family="Helvetica,sans-Serif" font-size="10.00">+</text>
<text xml:space="preserve" text-anchor="start" x="169.38" y="-1496.75" font-family="Helvetica,sans-Serif" font-size="10.00">print()</text>
<text xml:space="preserve" text-anchor="start" x="159.38" y="-1481.5" font-family="Helvetica,sans-Serif" font-size="10.00">+</text>
<text xml:space="preserve" text-anchor="start" x="169.38" y="-1481.5" font-family="Helvetica,sans-Serif" font-size="10.00">FUID()</text>
<text xml:space="preserve" text-anchor="start" x="159.38" y="-1466.25" font-family="Helvetica,sans-Serif" font-size="10.00">+</text>
<text xml:space="preserve" text-anchor="start" x="169.38" y="-1466.25" font-family="Helvetica,sans-Serif" font-size="10.00">toTUID()</text>
<text xml:space="preserve" text-anchor="start" x="159.38" y="-1451" font-family="Helvetica,sans-Serif" font-size="10.00">+</text>
<text xml:space="preserve" text-anchor="start" x="169.38" y="-1451" font-family="Helvetica,sans-Serif" font-size="10.00">operator const TUID &amp;()</text>
<text xml:space="preserve" text-anchor="start" x="159.38" y="-1435.75" font-family="Helvetica,sans-Serif" font-size="10.00">+</text>
<text xml:space="preserve" text-anchor="start" x="169.38" y="-1435.75" font-family="Helvetica,sans-Serif" font-size="10.00">toTUID()</text>
<text xml:space="preserve" text-anchor="start" x="159.38" y="-1420.5" font-family="Helvetica,sans-Serif" font-size="10.00">+</text>
<text xml:space="preserve" text-anchor="start" x="169.38" y="-1420.5" font-family="Helvetica,sans-Serif" font-size="10.00">fromTUID()</text>
<polygon fill="#666666" stroke="#666666" points="155.38,-1828.5 155.38,-1828.5 275.38,-1828.5 275.38,-1828.5 155.38,-1828.5"/>
<polygon fill="#666666" stroke="#666666" points="155.38,-1813.25 155.38,-1813.25 167.38,-1813.25 167.38,-1813.25 155.38,-1813.25"/>
<polygon fill="#666666" stroke="#666666" points="167.38,-1813.25 167.38,-1813.25 275.38,-1813.25 275.38,-1813.25 167.38,-1813.25"/>
<polygon fill="none" stroke="#666666" points="155.38,-1414.75 155.38,-1845.75 275.38,-1845.75 275.38,-1414.75 155.38,-1414.75"/>
</a>
</g>
</g>
<!-- Node5&#45;&gt;Node2 -->
<g id="edge6_Node000002_Node000005" class="edge">
<title>Node5&#45;&gt;Node2</title>
<g id="a_edge6_Node000002_Node000005"><a xlink:title=" ">
<path fill="none" stroke="#63b8ff" d="M159.5,-1415.01C143.17,-1327.54 132.32,-1225.3 143.38,-1132.5 145.26,-1116.71 147.78,-1100.48 150.72,-1084.23"/>
<polygon fill="none" stroke="#63b8ff" points="150.67,-1084.48 147.85,-1077.85 152.89,-1072.69 155.71,-1079.32 150.67,-1084.48"/>
</a>
</g>
<text xml:space="preserve" text-anchor="start" x="143.12" y="-1250.75" font-family="Helvetica,sans-Serif" font-size="10.00" fill="grey">+iid</text>
</g>
<!-- Node5&#45;&gt;Node3 -->
<g id="edge5_Node000003_Node000005" class="edge">
<title>Node5&#45;&gt;Node3</title>
<g id="a_edge5_Node000003_Node000005"><a xlink:title=" ">
<path fill="none" stroke="#63b8ff" d="M177.15,-1415.14C173.63,-1370.83 173.15,-1324.49 178.62,-1281.25 181.36,-1259.68 187.28,-1236.1 192.76,-1217.26"/>
<polygon fill="none" stroke="#63b8ff" points="192.8,-1217.12 190.7,-1210.22 196.26,-1205.63 198.36,-1212.53 192.8,-1217.12"/>
</a>
</g>
<text xml:space="preserve" text-anchor="start" x="181.62" y="-1317.5" font-family="Helvetica,sans-Serif" font-size="10.00" fill="grey">+iid</text>
</g>
<!-- Node5&#45;&gt;Node4 -->
<g id="edge4_Node000004_Node000005" class="edge">
<title>Node5&#45;&gt;Node4</title>
<g id="a_edge4_Node000004_Node000005"><a xlink:title=" ">
<path fill="none" stroke="#63b8ff" d="M246.81,-1414.86C248.97,-1400.16 250.99,-1386.35 252.79,-1374.11"/>
<polygon fill="none" stroke="#63b8ff" points="252.77,-1374.24 249.68,-1367.72 254.51,-1362.37 257.6,-1368.88 252.77,-1374.24"/>
</a>
</g>
<text xml:space="preserve" text-anchor="start" x="254.77" y="-1384.25" font-family="Helvetica,sans-Serif" font-size="10.00" fill="grey">+iid</text>
</g>
<!-- Node5&#45;&gt;Node6 -->
<g id="edge9_Node000006_Node000005" class="edge">
<title>Node5&#45;&gt;Node6</title>
<g id="a_edge9_Node000006_Node000005"><a xlink:title=" ">
<path fill="none" stroke="#63b8ff" d="M275.26,-1498.89C292.59,-1455.97 309.69,-1407.46 320.38,-1361.5 329.62,-1321.73 333.34,-1275.86 334.77,-1240.34"/>
<polygon fill="none" stroke="#63b8ff" points="334.76,-1240.65 330.96,-1234.52 335.17,-1228.66 338.96,-1234.79 334.76,-1240.65"/>
</a>
</g>
<text xml:space="preserve" text-anchor="start" x="335.13" y="-1317.5" font-family="Helvetica,sans-Serif" font-size="10.00" fill="grey">+iid</text>
</g>
<!-- Node6&#45;&gt;Node2 -->
<g id="edge7_Node000002_Node000006" class="edge">
<title>Node6&#45;&gt;Node2</title>
<g id="a_edge7_Node000002_Node000006"><a xlink:title=" ">
<path fill="none" stroke="#63b8ff" d="M315.05,-1132.82C300.5,-1099.59 280.16,-1053.12 260.88,-1009.07"/>
<polygon fill="none" stroke="#63b8ff" points="260.91,-1009.15 254.84,-1005.26 256.1,-998.16 262.17,-1002.05 260.91,-1009.15"/>
</a>
</g>
<text xml:space="preserve" text-anchor="start" x="306.72" y="-1102" font-family="Helvetica,sans-Serif" font-size="10.00" fill="grey">#gUpdateHandler</text>
</g>
<!-- Node7 -->
<g id="Node000007" class="node">
<title>Node7</title>
<g id="a_Node000007"><a xlink:href="structSteinberg_1_1Vst_1_1ProgramListInfo.html" target="_top" xlink:title=" ">
<polygon fill="white" stroke="none" points="375.88,-518.75 232.88,-518.75 232.88,-438.5 375.88,-438.5 375.88,-518.75"/>
<text xml:space="preserve" text-anchor="start" x="236.88" y="-505.25" font-family="Helvetica,sans-Serif" font-size="10.00">Steinberg::Vst::ProgramListInfo</text>
<text xml:space="preserve" text-anchor="start" x="252.94" y="-490" font-family="Helvetica,sans-Serif" font-size="10.00">+</text>
<text xml:space="preserve" text-anchor="start" x="279" y="-490" font-family="Helvetica,sans-Serif" font-size="10.00">id</text>
<text xml:space="preserve" text-anchor="start" x="252.94" y="-474.75" font-family="Helvetica,sans-Serif" font-size="10.00">+</text>
<text xml:space="preserve" text-anchor="start" x="279" y="-474.75" font-family="Helvetica,sans-Serif" font-size="10.00">name</text>
<text xml:space="preserve" text-anchor="start" x="252.94" y="-459.5" font-family="Helvetica,sans-Serif" font-size="10.00">+</text>
<text xml:space="preserve" text-anchor="start" x="279" y="-459.5" font-family="Helvetica,sans-Serif" font-size="10.00">programCount</text>
<text xml:space="preserve" text-anchor="start" x="302.88" y="-444.25" font-family="Helvetica,sans-Serif" font-size="10.00"> </text>
<polygon fill="#666666" stroke="#666666" points="232.88,-501.5 232.88,-501.5 375.88,-501.5 375.88,-501.5 232.88,-501.5"/>
<polygon fill="#666666" stroke="#666666" points="232.88,-455.75 232.88,-455.75 277,-455.75 277,-455.75 232.88,-455.75"/>
<polygon fill="#666666" stroke="#666666" points="277,-455.75 277,-455.75 375.88,-455.75 375.88,-455.75 277,-455.75"/>
<polygon fill="none" stroke="#666666" points="232.88,-438.5 232.88,-518.75 375.88,-518.75 375.88,-438.5 232.88,-438.5"/>
</a>
</g>
</g>
<!-- Node7&#45;&gt;Node1 -->
<g id="edge10_Node000001_Node000007" class="edge">
<title>Node7&#45;&gt;Node1</title>
<g id="a_edge10_Node000001_Node000007"><a xlink:title=" ">
<path fill="none" stroke="#63b8ff" d="M292.81,-438.59C281.98,-402.07 265.1,-345.12 248.98,-290.73"/>
<polygon fill="none" stroke="#63b8ff" points="249,-290.81 243.46,-286.2 245.59,-279.31 251.13,-283.93 249,-290.81"/>
</a>
</g>
<text xml:space="preserve" text-anchor="start" x="257.38" y="-301.25" font-family="Helvetica,sans-Serif" font-size="10.00" fill="grey">#info</text>
</g>
<!-- Node8&#45;&gt;Node1 -->
<g id="edge11_Node000001_Node000008" class="edge">
<title>Node8&#45;&gt;Node1</title>
<g id="a_edge11_Node000001_Node000008"><a xlink:title=" ">
<path fill="none" stroke="#63b8ff" d="M127.97,-332.07C130.08,-319.95 132.61,-307.96 135.62,-296.5 136.22,-294.23 136.85,-291.96 137.5,-289.68"/>
<polygon fill="none" stroke="#63b8ff" points="137.47,-289.78 135.39,-282.87 140.96,-278.29 143.04,-285.2 137.47,-289.78"/>
</a>
</g>
<text xml:space="preserve" text-anchor="start" x="138.62" y="-301.25" font-family="Helvetica,sans-Serif" font-size="10.00" fill="grey">#parameter</text>
</g>
<!-- Node9 -->
<g id="Node000009" class="node">
<title>Node9</title>
<g id="a_Node000009"><a xlink:href="structSteinberg_1_1Vst_1_1ParameterInfo.html" target="_top" xlink:title=" ">
<polygon fill="white" stroke="none" points="134.75,-957.25 0,-957.25 0,-800.75 134.75,-800.75 134.75,-957.25"/>
<text xml:space="preserve" text-anchor="start" x="4" y="-943.75" font-family="Helvetica,sans-Serif" font-size="10.00">Steinberg::Vst::ParameterInfo</text>
<text xml:space="preserve" text-anchor="start" x="7.5" y="-928.5" font-family="Helvetica,sans-Serif" font-size="10.00">+</text>
<text xml:space="preserve" text-anchor="start" x="21" y="-928.5" font-family="Helvetica,sans-Serif" font-size="10.00">id</text>
<text xml:space="preserve" text-anchor="start" x="7.5" y="-913.25" font-family="Helvetica,sans-Serif" font-size="10.00">+</text>
<text xml:space="preserve" text-anchor="start" x="21" y="-913.25" font-family="Helvetica,sans-Serif" font-size="10.00">title</text>
<text xml:space="preserve" text-anchor="start" x="7.5" y="-898" font-family="Helvetica,sans-Serif" font-size="10.00">+</text>
<text xml:space="preserve" text-anchor="start" x="21" y="-898" font-family="Helvetica,sans-Serif" font-size="10.00">shortTitle</text>
<text xml:space="preserve" text-anchor="start" x="7.5" y="-882.75" font-family="Helvetica,sans-Serif" font-size="10.00">+</text>
<text xml:space="preserve" text-anchor="start" x="21" y="-882.75" font-family="Helvetica,sans-Serif" font-size="10.00">units</text>
<text xml:space="preserve" text-anchor="start" x="7.5" y="-867.5" font-family="Helvetica,sans-Serif" font-size="10.00">+</text>
<text xml:space="preserve" text-anchor="start" x="21" y="-867.5" font-family="Helvetica,sans-Serif" font-size="10.00">stepCount</text>
<text xml:space="preserve" text-anchor="start" x="7.5" y="-852.25" font-family="Helvetica,sans-Serif" font-size="10.00">+</text>
<text xml:space="preserve" text-anchor="start" x="21" y="-852.25" font-family="Helvetica,sans-Serif" font-size="10.00">defaultNormalizedValue</text>
<text xml:space="preserve" text-anchor="start" x="7.5" y="-837" font-family="Helvetica,sans-Serif" font-size="10.00">+</text>
<text xml:space="preserve" text-anchor="start" x="21" y="-837" font-family="Helvetica,sans-Serif" font-size="10.00">unitId</text>
<text xml:space="preserve" text-anchor="start" x="7.5" y="-821.75" font-family="Helvetica,sans-Serif" font-size="10.00">+</text>
<text xml:space="preserve" text-anchor="start" x="21" y="-821.75" font-family="Helvetica,sans-Serif" font-size="10.00">flags</text>
<text xml:space="preserve" text-anchor="start" x="65.88" y="-806.5" font-family="Helvetica,sans-Serif" font-size="10.00"> </text>
<polygon fill="#666666" stroke="#666666" points="0,-940 0,-940 134.75,-940 134.75,-940 0,-940"/>
<polygon fill="#666666" stroke="#666666" points="0,-818 0,-818 19,-818 19,-818 0,-818"/>
<polygon fill="#666666" stroke="#666666" points="19,-818 19,-818 134.75,-818 134.75,-818 19,-818"/>
<polygon fill="none" stroke="#666666" points="0,-800.75 0,-957.25 134.75,-957.25 134.75,-800.75 0,-800.75"/>
</a>
</g>
</g>
<!-- Node9&#45;&gt;Node8 -->
<g id="edge13_Node000008_Node000009" class="edge">
<title>Node9&#45;&gt;Node8</title>
<g id="a_edge13_Node000008_Node000009"><a xlink:title=" ">
<path fill="none" stroke="#63b8ff" d="M77.02,-801.19C82.83,-754.84 90.46,-694.06 97.52,-637.83"/>
<polygon fill="none" stroke="#63b8ff" points="97.5,-637.96 94.28,-631.51 99,-626.05 102.22,-632.5 97.5,-637.96"/>
</a>
</g>
<text xml:space="preserve" text-anchor="start" x="98.37" y="-648.25" font-family="Helvetica,sans-Serif" font-size="10.00" fill="grey">#info</text>
</g>
</g>
</svg>
