<?xml version="1.0" encoding="UTF-8" standalone="no"?>
<!DOCTYPE svg PUBLIC "-//W3C//DTD SVG 1.1//EN"
 "http://www.w3.org/Graphics/SVG/1.1/DTD/svg11.dtd">
<!-- Generated by graphviz version 14.0.2 (0)
 -->
<!-- Title: Jack::JackWinMMEOutputPort Pages: 1 -->
<!--zoomable 540 -->

<svg id="main" version="1.1" xmlns="http://www.w3.org/2000/svg" xmlns:xlink="http://www.w3.org/1999/xlink" xml:space="preserve" onload="init(evt)">

<style type="text/css"><![CDATA[
.node, .edge {opacity: 0.7;}
.node.selected, .edge.selected {opacity: 1;}
.edge:hover path { stroke: red; }
.edge:hover polygon { stroke: red; fill: red; }
]]></style>

<defs>
  <circle id="rim" cx="0" cy="0" r="7"/>
  <circle id="rim2" cx="0" cy="0" r="3.5"/>
  <g id="zoomPlus">
    <use xlink:href="#rim" fill="#404040"><set attributeName="fill" to="#808080" begin="zoomplus.mouseover" end="zoomplus.mouseout"/></use>
    <path d="M-4,0h8M0,-4v8" fill="none" stroke="white" stroke-width="1.5" pointer-events="none"/>
  </g>
  <g id="zoomMin">
    <use xlink:href="#rim" fill="#404040"><set attributeName="fill" to="#808080" begin="zoomminus.mouseover" end="zoomminus.mouseout"/></use>
    <path d="M-4,0h8" fill="none" stroke="white" stroke-width="1.5" pointer-events="none"/>
  </g>
  <g id="arrowUp" transform="translate(30 24)">
    <use xlink:href="#rim"/>
    <path pointer-events="none" fill="none" stroke="white" stroke-width="1.5" d="M0,-3.0v7 M-2.5,-0.5L0,-3.0L2.5,-0.5"/>
  </g>
  <g id="arrowRight" transform="rotate(90) translate(36 -43)">
    <use xlink:href="#rim"/>
    <path pointer-events="none" fill="none" stroke="white" stroke-width="1.5" d="M0,-3.0v7 M-2.5,-0.5L0,-3.0L2.5,-0.5"/>
  </g>
  <g id="arrowDown" transform="rotate(180) translate(-30 -48)">
    <use xlink:href="#rim"/>
    <path pointer-events="none" fill="none" stroke="white" stroke-width="1.5" d="M0,-3.0v7 M-2.5,-0.5L0,-3.0L2.5,-0.5"/>
  </g>
  <g id="arrowLeft" transform="rotate(270) translate(-36 17)">
    <use xlink:href="#rim"/>
    <path pointer-events="none" fill="none" stroke="white" stroke-width="1.5" d="M0,-3.0v7 M-2.5,-0.5L0,-3.0L2.5,-0.5"/>
  </g>
  <g id="resetDef">
    <use xlink:href="#rim2" fill="#404040"><set attributeName="fill" to="#808080" begin="reset.mouseover" end="reset.mouseout"/></use>
  </g>
</defs>
<script type="application/ecmascript">
var viewWidth = 270;
var viewHeight = 540;
var sectionId = 'dynsection-0';
</script>
<script type="application/ecmascript" xlink:href="svg.min.js"/>
<svg id="graph" class="graph">
<g id="viewport">
<title>Jack::JackWinMMEOutputPort</title>
<!-- Node1 -->
<g id="Node000001" class="node">
<title>Node1</title>
<g id="a_Node000001"><a xlink:title=" ">
<polygon fill="#999999" stroke="none" points="196.12,-324.25 55.38,-324.25 55.38,0 196.12,0 196.12,-324.25"/>
<text xml:space="preserve" text-anchor="start" x="59.38" y="-310.75" font-family="Helvetica,sans-Serif" font-size="10.00">Jack::JackWinMMEOutputPort</text>
<text xml:space="preserve" text-anchor="start" x="61.94" y="-295.5" font-family="Helvetica,sans-Serif" font-size="10.00">&#45;</text>
<text xml:space="preserve" text-anchor="start" x="71.5" y="-295.5" font-family="Helvetica,sans-Serif" font-size="10.00">handle</text>
<text xml:space="preserve" text-anchor="start" x="61.94" y="-280.25" font-family="Helvetica,sans-Serif" font-size="10.00">&#45;</text>
<text xml:space="preserve" text-anchor="start" x="71.5" y="-280.25" font-family="Helvetica,sans-Serif" font-size="10.00">read_queue</text>
<text xml:space="preserve" text-anchor="start" x="61.94" y="-265" font-family="Helvetica,sans-Serif" font-size="10.00">&#45;</text>
<text xml:space="preserve" text-anchor="start" x="71.5" y="-265" font-family="Helvetica,sans-Serif" font-size="10.00">sysex_semaphore</text>
<text xml:space="preserve" text-anchor="start" x="61.94" y="-249.75" font-family="Helvetica,sans-Serif" font-size="10.00">&#45;</text>
<text xml:space="preserve" text-anchor="start" x="71.5" y="-249.75" font-family="Helvetica,sans-Serif" font-size="10.00">thread</text>
<text xml:space="preserve" text-anchor="start" x="61.94" y="-234.5" font-family="Helvetica,sans-Serif" font-size="10.00">&#45;</text>
<text xml:space="preserve" text-anchor="start" x="71.5" y="-234.5" font-family="Helvetica,sans-Serif" font-size="10.00">thread_queue</text>
<text xml:space="preserve" text-anchor="start" x="61.94" y="-219.25" font-family="Helvetica,sans-Serif" font-size="10.00">&#45;</text>
<text xml:space="preserve" text-anchor="start" x="71.5" y="-219.25" font-family="Helvetica,sans-Serif" font-size="10.00">thread_queue_semaphore</text>
<text xml:space="preserve" text-anchor="start" x="61.94" y="-204" font-family="Helvetica,sans-Serif" font-size="10.00">&#45;</text>
<text xml:space="preserve" text-anchor="start" x="71.5" y="-204" font-family="Helvetica,sans-Serif" font-size="10.00">timer</text>
<text xml:space="preserve" text-anchor="start" x="60.44" y="-188.75" font-family="Helvetica,sans-Serif" font-size="10.00">+</text>
<text xml:space="preserve" text-anchor="start" x="71.5" y="-188.75" font-family="Helvetica,sans-Serif" font-size="10.00">JackWinMMEOutputPort()</text>
<text xml:space="preserve" text-anchor="start" x="60.44" y="-173.5" font-family="Helvetica,sans-Serif" font-size="10.00">+</text>
<text xml:space="preserve" text-anchor="start" x="71.5" y="-173.5" font-family="Helvetica,sans-Serif" font-size="10.00">~JackWinMMEOutputPort()</text>
<text xml:space="preserve" text-anchor="start" x="60.44" y="-158.25" font-family="Helvetica,sans-Serif" font-size="10.00">+</text>
<text xml:space="preserve" text-anchor="start" x="71.5" y="-158.25" font-family="Helvetica,sans-Serif" font-size="10.00">Execute()</text>
<text xml:space="preserve" text-anchor="start" x="60.44" y="-143" font-family="Helvetica,sans-Serif" font-size="10.00">+</text>
<text xml:space="preserve" text-anchor="start" x="71.5" y="-143" font-family="Helvetica,sans-Serif" font-size="10.00">Init()</text>
<text xml:space="preserve" text-anchor="start" x="60.44" y="-127.75" font-family="Helvetica,sans-Serif" font-size="10.00">+</text>
<text xml:space="preserve" text-anchor="start" x="71.5" y="-127.75" font-family="Helvetica,sans-Serif" font-size="10.00">ProcessJack()</text>
<text xml:space="preserve" text-anchor="start" x="60.44" y="-112.5" font-family="Helvetica,sans-Serif" font-size="10.00">+</text>
<text xml:space="preserve" text-anchor="start" x="71.5" y="-112.5" font-family="Helvetica,sans-Serif" font-size="10.00">Start()</text>
<text xml:space="preserve" text-anchor="start" x="60.44" y="-97.25" font-family="Helvetica,sans-Serif" font-size="10.00">+</text>
<text xml:space="preserve" text-anchor="start" x="71.5" y="-97.25" font-family="Helvetica,sans-Serif" font-size="10.00">Stop()</text>
<text xml:space="preserve" text-anchor="start" x="61.94" y="-82" font-family="Helvetica,sans-Serif" font-size="10.00">&#45;</text>
<text xml:space="preserve" text-anchor="start" x="71.5" y="-82" font-family="Helvetica,sans-Serif" font-size="10.00">GetOutErrorString()</text>
<text xml:space="preserve" text-anchor="start" x="61.94" y="-66.75" font-family="Helvetica,sans-Serif" font-size="10.00">&#45;</text>
<text xml:space="preserve" text-anchor="start" x="71.5" y="-66.75" font-family="Helvetica,sans-Serif" font-size="10.00">HandleMessage()</text>
<text xml:space="preserve" text-anchor="start" x="61.94" y="-51.5" font-family="Helvetica,sans-Serif" font-size="10.00">&#45;</text>
<text xml:space="preserve" text-anchor="start" x="71.5" y="-51.5" font-family="Helvetica,sans-Serif" font-size="10.00">Signal()</text>
<text xml:space="preserve" text-anchor="start" x="61.94" y="-36.25" font-family="Helvetica,sans-Serif" font-size="10.00">&#45;</text>
<text xml:space="preserve" text-anchor="start" x="71.5" y="-36.25" font-family="Helvetica,sans-Serif" font-size="10.00">Wait()</text>
<text xml:space="preserve" text-anchor="start" x="61.94" y="-21" font-family="Helvetica,sans-Serif" font-size="10.00">&#45;</text>
<text xml:space="preserve" text-anchor="start" x="71.5" y="-21" font-family="Helvetica,sans-Serif" font-size="10.00">WriteOutError()</text>
<text xml:space="preserve" text-anchor="start" x="61.94" y="-5.75" font-family="Helvetica,sans-Serif" font-size="10.00">&#45;</text>
<text xml:space="preserve" text-anchor="start" x="71.5" y="-5.75" font-family="Helvetica,sans-Serif" font-size="10.00">HandleMessageEvent()</text>
<polygon fill="#666666" stroke="#666666" points="55.38,-307 55.38,-307 196.12,-307 196.12,-307 55.38,-307"/>
<polygon fill="#666666" stroke="#666666" points="55.38,-200.25 55.38,-200.25 69.5,-200.25 69.5,-200.25 55.38,-200.25"/>
<polygon fill="#666666" stroke="#666666" points="69.5,-200.25 69.5,-200.25 196.12,-200.25 196.12,-200.25 69.5,-200.25"/>
<polygon fill="none" stroke="#666666" points="55.38,0 55.38,-324.25 196.12,-324.25 196.12,0 55.38,0"/>
</a>
</g>
</g>
<!-- Node2 -->
<g id="Node000002" class="node">
<title>Node2</title>
<g id="a_Node000002"><a xlink:href="classJack_1_1JackWinMMEPort.html" target="_top" xlink:title=" ">
<polygon fill="white" stroke="none" points="111.5,-532 0,-532 0,-360.25 111.5,-360.25 111.5,-532"/>
<text xml:space="preserve" text-anchor="start" x="4" y="-518.5" font-family="Helvetica,sans-Serif" font-size="10.00">Jack::JackWinMMEPort</text>
<text xml:space="preserve" text-anchor="start" x="5.44" y="-503.25" font-family="Helvetica,sans-Serif" font-size="10.00">#</text>
<text xml:space="preserve" text-anchor="start" x="16.12" y="-503.25" font-family="Helvetica,sans-Serif" font-size="10.00">alias</text>
<text xml:space="preserve" text-anchor="start" x="5.44" y="-488" font-family="Helvetica,sans-Serif" font-size="10.00">#</text>
<text xml:space="preserve" text-anchor="start" x="16.12" y="-488" font-family="Helvetica,sans-Serif" font-size="10.00">name</text>
<text xml:space="preserve" text-anchor="start" x="5.44" y="-472.75" font-family="Helvetica,sans-Serif" font-size="10.00">#</text>
<text xml:space="preserve" text-anchor="start" x="16.12" y="-472.75" font-family="Helvetica,sans-Serif" font-size="10.00">device_name</text>
<text xml:space="preserve" text-anchor="start" x="5.06" y="-457.5" font-family="Helvetica,sans-Serif" font-size="10.00">+</text>
<text xml:space="preserve" text-anchor="start" x="16.12" y="-457.5" font-family="Helvetica,sans-Serif" font-size="10.00">JackWinMMEPort()</text>
<text xml:space="preserve" text-anchor="start" x="5.06" y="-442.25" font-family="Helvetica,sans-Serif" font-size="10.00">+</text>
<text xml:space="preserve" text-anchor="start" x="16.12" y="-442.25" font-family="Helvetica,sans-Serif" font-size="10.00">~JackWinMMEPort()</text>
<text xml:space="preserve" text-anchor="start" x="5.06" y="-427" font-family="Helvetica,sans-Serif" font-size="10.00">+</text>
<text xml:space="preserve" text-anchor="start" x="16.12" y="-427" font-family="Helvetica,sans-Serif" font-size="10.00">GetAlias()</text>
<text xml:space="preserve" text-anchor="start" x="5.06" y="-411.75" font-family="Helvetica,sans-Serif" font-size="10.00">+</text>
<text xml:space="preserve" text-anchor="start" x="16.12" y="-411.75" font-family="Helvetica,sans-Serif" font-size="10.00">GetName()</text>
<text xml:space="preserve" text-anchor="start" x="5.06" y="-396.5" font-family="Helvetica,sans-Serif" font-size="10.00">+</text>
<text xml:space="preserve" text-anchor="start" x="16.12" y="-396.5" font-family="Helvetica,sans-Serif" font-size="10.00">GetDeviceName()</text>
<text xml:space="preserve" text-anchor="start" x="5.06" y="-381.25" font-family="Helvetica,sans-Serif" font-size="10.00">+</text>
<text xml:space="preserve" text-anchor="start" x="16.12" y="-381.25" font-family="Helvetica,sans-Serif" font-size="10.00">GetOSErrorString()</text>
<text xml:space="preserve" text-anchor="start" x="5.06" y="-366" font-family="Helvetica,sans-Serif" font-size="10.00">+</text>
<text xml:space="preserve" text-anchor="start" x="16.12" y="-366" font-family="Helvetica,sans-Serif" font-size="10.00">WriteOSError()</text>
<polygon fill="#666666" stroke="#666666" points="0,-514.75 0,-514.75 111.5,-514.75 111.5,-514.75 0,-514.75"/>
<polygon fill="#666666" stroke="#666666" points="0,-469 0,-469 14.12,-469 14.12,-469 0,-469"/>
<polygon fill="#666666" stroke="#666666" points="14.12,-469 14.12,-469 111.5,-469 111.5,-469 14.12,-469"/>
<polygon fill="none" stroke="#666666" points="0,-360.25 0,-532 111.5,-532 111.5,-360.25 0,-360.25"/>
</a>
</g>
</g>
<!-- Node2&#45;&gt;Node1 -->
<g id="edge1_Node000001_Node000002" class="edge">
<title>Node2&#45;&gt;Node1</title>
<g id="a_edge1_Node000001_Node000002"><a xlink:title=" ">
<path fill="none" stroke="#63b8ff" d="M79.51,-349.4C81.57,-341.13 83.68,-332.63 85.81,-324.02"/>
<polygon fill="none" stroke="#63b8ff" points="76.13,-348.5 77.12,-359.05 82.92,-350.18 76.13,-348.5"/>
</a>
</g>
</g>
<!-- Node3 -->
<g id="Node000003" class="node">
<title>Node3</title>
<g id="a_Node000003"><a xlink:href="classJack_1_1JackRunnableInterface.html" target="_top" xlink:title="The base class for runnable objects, that have an &#160;Init &#160;and &#160;Execute &#160;method to be called in a threa...">
<polygon fill="white" stroke="none" points="262.38,-493.88 129.12,-493.88 129.12,-398.38 262.38,-398.38 262.38,-493.88"/>
<text xml:space="preserve" text-anchor="start" x="133.12" y="-480.38" font-family="Helvetica,sans-Serif" font-size="10.00">Jack::JackRunnableInterface</text>
<text xml:space="preserve" text-anchor="start" x="194.25" y="-465.12" font-family="Helvetica,sans-Serif" font-size="10.00"> </text>
<text xml:space="preserve" text-anchor="start" x="134.19" y="-449.88" font-family="Helvetica,sans-Serif" font-size="10.00">+</text>
<text xml:space="preserve" text-anchor="start" x="145.25" y="-449.88" font-family="Helvetica,sans-Serif" font-size="10.00">Init()</text>
<text xml:space="preserve" text-anchor="start" x="134.19" y="-434.62" font-family="Helvetica,sans-Serif" font-size="10.00">+</text>
<text xml:space="preserve" text-anchor="start" x="145.25" y="-434.62" font-family="Helvetica,sans-Serif" font-size="10.00">Execute()</text>
<text xml:space="preserve" text-anchor="start" x="134.56" y="-419.38" font-family="Helvetica,sans-Serif" font-size="10.00">#</text>
<text xml:space="preserve" text-anchor="start" x="145.25" y="-419.38" font-family="Helvetica,sans-Serif" font-size="10.00">JackRunnableInterface()</text>
<text xml:space="preserve" text-anchor="start" x="134.56" y="-404.12" font-family="Helvetica,sans-Serif" font-size="10.00">#</text>
<text xml:space="preserve" text-anchor="start" x="145.25" y="-404.12" font-family="Helvetica,sans-Serif" font-size="10.00">~JackRunnableInterface()</text>
<polygon fill="#666666" stroke="#666666" points="129.12,-476.62 129.12,-476.62 262.38,-476.62 262.38,-476.62 129.12,-476.62"/>
<polygon fill="#666666" stroke="#666666" points="129.12,-461.38 129.12,-461.38 262.38,-461.38 262.38,-461.38 129.12,-461.38"/>
<polygon fill="none" stroke="#666666" points="129.12,-398.38 129.12,-493.88 262.38,-493.88 262.38,-398.38 129.12,-398.38"/>
</a>
</g>
</g>
<!-- Node3&#45;&gt;Node1 -->
<g id="edge2_Node000001_Node000003" class="edge">
<title>Node3&#45;&gt;Node1</title>
<g id="a_edge2_Node000001_Node000003"><a xlink:title=" ">
<path fill="none" stroke="#63b8ff" d="M181.45,-387.54C176.77,-368.68 171.32,-346.71 165.69,-324.04"/>
<polygon fill="none" stroke="#63b8ff" points="178.02,-388.23 183.83,-397.09 184.81,-386.54 178.02,-388.23"/>
</a>
</g>
</g>
</g>
</svg>

<g id="navigator" transform="translate(0 0)" fill="#404254">
  <rect fill="#f2f5e9" fill-opacity="0.5" stroke="#606060" stroke-width=".5" x="0" y="0" width="60" height="60"/>
  <use id="zoomplus" xlink:href="#zoomPlus" x="17" y="9" onmousedown="handleZoom(evt,'in')"/>
  <use id="zoomminus" xlink:href="#zoomMin" x="42" y="9" onmousedown="handleZoom(evt,'out')"/>
  <use id="reset" xlink:href="#resetDef" x="30" y="36" onmousedown="handleReset()"/>
   <use id="arrowup" xlink:href="#arrowUp" x="0" y="0" onmousedown="handlePan(0,-1)"/>
  <use id="arrowright" xlink:href="#arrowRight" x="0" y="0" onmousedown="handlePan(1,0)"/>
  <use id="arrowdown" xlink:href="#arrowDown" x="0" y="0" onmousedown="handlePan(0,1)"/>
  <use id="arrowleft" xlink:href="#arrowLeft" x="0" y="0" onmousedown="handlePan(-1,0)"/>
</g>
<svg viewBox="0 0 15 15" width="100%" height="30px" preserveAspectRatio="xMaxYMin meet">
 <g id="arrow_out" transform="scale(0.3 0.3)">
  <a xlink:href="classJack_1_1JackWinMMEOutputPort__inherit__graph_org.svg" target="_base">
   <rect id="button" ry="5" rx="5" y="6" x="6" height="38" width="38"
        fill="#f2f5e9" fill-opacity="0.5" stroke="#606060" stroke-width="1.0"/>
   <path id="arrow"
     d="M 11.500037,31.436501 C 11.940474,20.09759 22.043105,11.32322 32.158766,21.979434 L 37.068811,17.246167 C 37.068811,17.246167 37.088388,32 37.088388,32 L 22.160133,31.978069 C 22.160133,31.978069 26.997745,27.140456 26.997745,27.140456 C 18.528582,18.264221 13.291696,25.230495 11.500037,31.436501 z"
     style="fill:#404040;"/>
  </a>
 </g>
</svg>

<style type='text/css'>
<![CDATA[
[data-mouse-over-selected='false'] { opacity: 0.7; }
[data-mouse-over-selected='true']  { opacity: 1.0; }
]]>
</style>
<script type="application/ecmascript"><![CDATA[
document.addEventListener('DOMContentLoaded', (event) => {
  highlightEdges();
  highlightAdjacentNodes();
});
]]></script>
</svg>
