<?xml version="1.0" encoding="UTF-8" standalone="no"?>
<!DOCTYPE svg PUBLIC "-//W3C//DTD SVG 1.1//EN"
 "http://www.w3.org/Graphics/SVG/1.1/DTD/svg11.dtd">
<!-- Generated by graphviz version 14.0.2 (0)
 -->
<!-- Title: lmms::gui::InstrumentTrackWindow::adjustTabSize Pages: 1 -->
<!--zoomable 88 -->

<svg id="main" version="1.1" xmlns="http://www.w3.org/2000/svg" xmlns:xlink="http://www.w3.org/1999/xlink" xml:space="preserve" onload="init(evt)">

<style type="text/css"><![CDATA[
.node, .edge {opacity: 0.7;}
.node.selected, .edge.selected {opacity: 1;}
.edge:hover path { stroke: red; }
.edge:hover polygon { stroke: red; fill: red; }
]]></style>

<defs>
  <circle id="rim" cx="0" cy="0" r="7"/>
  <circle id="rim2" cx="0" cy="0" r="3.5"/>
  <g id="zoomPlus">
    <use xlink:href="#rim" fill="#404040"><set attributeName="fill" to="#808080" begin="zoomplus.mouseover" end="zoomplus.mouseout"/></use>
    <path d="M-4,0h8M0,-4v8" fill="none" stroke="white" stroke-width="1.5" pointer-events="none"/>
  </g>
  <g id="zoomMin">
    <use xlink:href="#rim" fill="#404040"><set attributeName="fill" to="#808080" begin="zoomminus.mouseover" end="zoomminus.mouseout"/></use>
    <path d="M-4,0h8" fill="none" stroke="white" stroke-width="1.5" pointer-events="none"/>
  </g>
  <g id="arrowUp" transform="translate(30 24)">
    <use xlink:href="#rim"/>
    <path pointer-events="none" fill="none" stroke="white" stroke-width="1.5" d="M0,-3.0v7 M-2.5,-0.5L0,-3.0L2.5,-0.5"/>
  </g>
  <g id="arrowRight" transform="rotate(90) translate(36 -43)">
    <use xlink:href="#rim"/>
    <path pointer-events="none" fill="none" stroke="white" stroke-width="1.5" d="M0,-3.0v7 M-2.5,-0.5L0,-3.0L2.5,-0.5"/>
  </g>
  <g id="arrowDown" transform="rotate(180) translate(-30 -48)">
    <use xlink:href="#rim"/>
    <path pointer-events="none" fill="none" stroke="white" stroke-width="1.5" d="M0,-3.0v7 M-2.5,-0.5L0,-3.0L2.5,-0.5"/>
  </g>
  <g id="arrowLeft" transform="rotate(270) translate(-36 17)">
    <use xlink:href="#rim"/>
    <path pointer-events="none" fill="none" stroke="white" stroke-width="1.5" d="M0,-3.0v7 M-2.5,-0.5L0,-3.0L2.5,-0.5"/>
  </g>
  <g id="resetDef">
    <use xlink:href="#rim2" fill="#404040"><set attributeName="fill" to="#808080" begin="reset.mouseover" end="reset.mouseout"/></use>
  </g>
</defs>
<script type="application/ecmascript">
var viewWidth = 731;
var viewHeight = 88;
var sectionId = 'dynsection-3';
</script>
<script type="application/ecmascript" xlink:href="svg.min.js"/>
<svg id="graph" class="graph">
<g id="viewport">
<title>lmms::gui::InstrumentTrackWindow::adjustTabSize</title>
<!-- Node1 -->
<g id="Node000001" class="node">
<title>Node1</title>
<g id="a_Node000001"><a xlink:title=" ">
<polygon fill="#999999" stroke="#666666" points="722.5,-54.5 589.5,-54.5 589.5,-24 722.5,-24 722.5,-54.5"/>
<text xml:space="preserve" text-anchor="start" x="597.5" y="-41" font-family="Helvetica,sans-Serif" font-size="10.00">lmms::gui::InstrumentTrack</text>
<text xml:space="preserve" text-anchor="middle" x="656" y="-29.75" font-family="Helvetica,sans-Serif" font-size="10.00">Window::adjustTabSize</text>
</a>
</g>
</g>
<!-- Node2 -->
<g id="Node000002" class="node">
<title>Node2</title>
<g id="a_Node000002"><a xlink:href="classlmms_1_1gui_1_1InstrumentTrackWindow.html#a28de065cc8cfe95e2737b33c379c0dfd" target="_top" xlink:title=" ">
<polygon fill="white" stroke="#666666" points="543.75,-79.5 410.75,-79.5 410.75,-49 543.75,-49 543.75,-79.5"/>
<text xml:space="preserve" text-anchor="start" x="418.75" y="-66" font-family="Helvetica,sans-Serif" font-size="10.00">lmms::gui::InstrumentTrack</text>
<text xml:space="preserve" text-anchor="middle" x="477.25" y="-54.75" font-family="Helvetica,sans-Serif" font-size="10.00">Window::resizeEvent</text>
</a>
</g>
</g>
<!-- Node1&#45;&gt;Node2 -->
<g id="edge1_Node000001_Node000002" class="edge">
<title>Node1&#45;&gt;Node2</title>
<g id="a_edge1_Node000001_Node000002"><a xlink:title=" ">
<path fill="none" stroke="#63b8ff" d="M578,-50.14C566.71,-51.74 555.16,-53.37 544.12,-54.93"/>
<polygon fill="#63b8ff" stroke="#63b8ff" points="578.27,-53.64 587.69,-48.77 577.29,-46.71 578.27,-53.64"/>
</a>
</g>
</g>
<!-- Node3 -->
<g id="Node000003" class="node">
<title>Node3</title>
<g id="a_Node000003"><a xlink:href="classlmms_1_1gui_1_1InstrumentTrackWindow.html#aea423a1a46bbdc48c78e4f83c79a0566" target="_top" xlink:title=" ">
<polygon fill="white" stroke="#666666" points="553.5,-30.5 401,-30.5 401,0 553.5,0 553.5,-30.5"/>
<text xml:space="preserve" text-anchor="start" x="409" y="-17" font-family="Helvetica,sans-Serif" font-size="10.00">lmms::gui::InstrumentTrack</text>
<text xml:space="preserve" text-anchor="middle" x="477.25" y="-5.75" font-family="Helvetica,sans-Serif" font-size="10.00">Window::updateInstrumentView</text>
</a>
</g>
</g>
<!-- Node1&#45;&gt;Node3 -->
<g id="edge2_Node000001_Node000003" class="edge">
<title>Node1&#45;&gt;Node3</title>
<g id="a_edge2_Node000001_Node000003"><a xlink:title=" ">
<path fill="none" stroke="#63b8ff" d="M578.01,-28.8C570.03,-27.71 561.92,-26.61 553.95,-25.53"/>
<polygon fill="#63b8ff" stroke="#63b8ff" points="577.31,-32.23 587.69,-30.11 578.25,-25.3 577.31,-32.23"/>
</a>
</g>
</g>
<!-- Node4 -->
<g id="Node000004" class="node">
<title>Node4</title>
<g id="a_Node000004"><a xlink:href="classlmms_1_1gui_1_1InstrumentTrackWindow.html#af650c889e7a1e8e308df0204d680ace1" target="_top" xlink:title=" ">
<polygon fill="white" stroke="#666666" points="365,-79.5 204.25,-79.5 204.25,-49 365,-49 365,-79.5"/>
<text xml:space="preserve" text-anchor="start" x="212.25" y="-66" font-family="Helvetica,sans-Serif" font-size="10.00">lmms::gui::InstrumentTrack</text>
<text xml:space="preserve" text-anchor="middle" x="284.62" y="-54.75" font-family="Helvetica,sans-Serif" font-size="10.00">Window::InstrumentTrackWindow</text>
</a>
</g>
</g>
<!-- Node3&#45;&gt;Node4 -->
<g id="edge3_Node000003_Node000004" class="edge">
<title>Node3&#45;&gt;Node4</title>
<g id="a_edge3_Node000003_Node000004"><a xlink:title=" ">
<path fill="none" stroke="#63b8ff" d="M404.18,-33.78C385.24,-38.64 365,-43.85 346.71,-48.55"/>
<polygon fill="#63b8ff" stroke="#63b8ff" points="404.87,-37.21 413.68,-31.33 403.13,-30.43 404.87,-37.21"/>
</a>
</g>
</g>
<!-- Node5 -->
<g id="Node000005" class="node">
<title>Node5</title>
<g id="a_Node000005"><a xlink:href="classlmms_1_1gui_1_1InstrumentTrackWindow.html#a77c66b9e8911943684e47639a279f1f9" target="_top" xlink:title=" ">
<polygon fill="white" stroke="#666666" points="351.12,-30.5 218.12,-30.5 218.12,0 351.12,0 351.12,-30.5"/>
<text xml:space="preserve" text-anchor="start" x="226.12" y="-17" font-family="Helvetica,sans-Serif" font-size="10.00">lmms::gui::InstrumentTrack</text>
<text xml:space="preserve" text-anchor="middle" x="284.62" y="-5.75" font-family="Helvetica,sans-Serif" font-size="10.00">Window::modelChanged</text>
</a>
</g>
</g>
<!-- Node3&#45;&gt;Node5 -->
<g id="edge4_Node000003_Node000005" class="edge">
<title>Node3&#45;&gt;Node5</title>
<g id="a_edge4_Node000003_Node000005"><a xlink:title=" ">
<path fill="none" stroke="#63b8ff" d="M389.13,-8.52C376.51,-8.45 363.7,-8.54 351.59,-8.79"/>
<polygon fill="#63b8ff" stroke="#63b8ff" points="389.09,-12.02 399.12,-8.62 389.16,-5.02 389.09,-12.02"/>
</a>
</g>
</g>
<!-- Node5&#45;&gt;Node3 -->
<g id="edge5_Node000005_Node000003" class="edge">
<title>Node5&#45;&gt;Node3</title>
<g id="a_edge5_Node000005_Node000003"><a xlink:title=" ">
<path fill="none" stroke="#63b8ff" d="M362.88,-21.89C375.34,-22.04 388.22,-22.04 400.64,-21.87"/>
<polygon fill="#63b8ff" stroke="#63b8ff" points="363.16,-18.4 353.11,-21.73 363.05,-25.39 363.16,-18.4"/>
</a>
</g>
</g>
<!-- Node6 -->
<g id="Node000006" class="node">
<title>Node6</title>
<g id="a_Node000006"><a xlink:href="classlmms_1_1gui_1_1InstrumentTrackWindow.html#af16b7696eb7d31639e8f38bbb41709dd" target="_top" xlink:title=" ">
<polygon fill="#fff0f0" stroke="red" points="168.25,-30.5 0,-30.5 0,0 168.25,0 168.25,-30.5"/>
<text xml:space="preserve" text-anchor="start" x="8" y="-17" font-family="Helvetica,sans-Serif" font-size="10.00">lmms::gui::InstrumentTrack</text>
<text xml:space="preserve" text-anchor="middle" x="84.12" y="-5.75" font-family="Helvetica,sans-Serif" font-size="10.00">Window::viewInstrumentInDirection</text>
</a>
</g>
</g>
<!-- Node5&#45;&gt;Node6 -->
<g id="edge6_Node000005_Node000006" class="edge">
<title>Node5&#45;&gt;Node6</title>
<g id="a_edge6_Node000005_Node000006"><a xlink:title=" ">
<path fill="none" stroke="#63b8ff" d="M206.51,-15.25C194.03,-15.25 181.06,-15.25 168.45,-15.25"/>
<polygon fill="#63b8ff" stroke="#63b8ff" points="206.29,-18.75 216.29,-15.25 206.29,-11.75 206.29,-18.75"/>
</a>
</g>
</g>
</g>
</svg>

<g id="navigator" transform="translate(0 0)" fill="#404254">
  <rect fill="#f2f5e9" fill-opacity="0.5" stroke="#606060" stroke-width=".5" x="0" y="0" width="60" height="60"/>
  <use id="zoomplus" xlink:href="#zoomPlus" x="17" y="9" onmousedown="handleZoom(evt,'in')"/>
  <use id="zoomminus" xlink:href="#zoomMin" x="42" y="9" onmousedown="handleZoom(evt,'out')"/>
  <use id="reset" xlink:href="#resetDef" x="30" y="36" onmousedown="handleReset()"/>
   <use id="arrowup" xlink:href="#arrowUp" x="0" y="0" onmousedown="handlePan(0,-1)"/>
  <use id="arrowright" xlink:href="#arrowRight" x="0" y="0" onmousedown="handlePan(1,0)"/>
  <use id="arrowdown" xlink:href="#arrowDown" x="0" y="0" onmousedown="handlePan(0,1)"/>
  <use id="arrowleft" xlink:href="#arrowLeft" x="0" y="0" onmousedown="handlePan(-1,0)"/>
</g>
<svg viewBox="0 0 15 15" width="100%" height="30px" preserveAspectRatio="xMaxYMin meet">
 <g id="arrow_out" transform="scale(0.3 0.3)">
  <a xlink:href="classlmms_1_1gui_1_1InstrumentTrackWindow_a02b6059e096842a84d89e0c5b0ed037b_icgraph_org.svg" target="_base">
   <rect id="button" ry="5" rx="5" y="6" x="6" height="38" width="38"
        fill="#f2f5e9" fill-opacity="0.5" stroke="#606060" stroke-width="1.0"/>
   <path id="arrow"
     d="M 11.500037,31.436501 C 11.940474,20.09759 22.043105,11.32322 32.158766,21.979434 L 37.068811,17.246167 C 37.068811,17.246167 37.088388,32 37.088388,32 L 22.160133,31.978069 C 22.160133,31.978069 26.997745,27.140456 26.997745,27.140456 C 18.528582,18.264221 13.291696,25.230495 11.500037,31.436501 z"
     style="fill:#404040;"/>
  </a>
 </g>
</svg>

<style type='text/css'>
<![CDATA[
[data-mouse-over-selected='false'] { opacity: 0.7; }
[data-mouse-over-selected='true']  { opacity: 1.0; }
]]>
</style>
<script type="application/ecmascript"><![CDATA[
document.addEventListener('DOMContentLoaded', (event) => {
  highlightEdges();
  highlightAdjacentNodes();
});
]]></script>
</svg>
