<?xml version="1.0" encoding="UTF-8" standalone="no"?>
<!DOCTYPE svg PUBLIC "-//W3C//DTD SVG 1.1//EN"
 "http://www.w3.org/Graphics/SVG/1.1/DTD/svg11.dtd">
<!-- Generated by graphviz version 14.0.2 (0)
 -->
<!-- Title: juce::TabbedComponent::paint Pages: 1 -->
<!--zoomable 640 -->

<svg id="main" version="1.1" xmlns="http://www.w3.org/2000/svg" xmlns:xlink="http://www.w3.org/1999/xlink" xml:space="preserve" onload="init(evt)">

<style type="text/css"><![CDATA[
.node, .edge {opacity: 0.7;}
.node.selected, .edge.selected {opacity: 1;}
.edge:hover path { stroke: red; }
.edge:hover polygon { stroke: red; fill: red; }
]]></style>

<defs>
  <circle id="rim" cx="0" cy="0" r="7"/>
  <circle id="rim2" cx="0" cy="0" r="3.5"/>
  <g id="zoomPlus">
    <use xlink:href="#rim" fill="#404040"><set attributeName="fill" to="#808080" begin="zoomplus.mouseover" end="zoomplus.mouseout"/></use>
    <path d="M-4,0h8M0,-4v8" fill="none" stroke="white" stroke-width="1.5" pointer-events="none"/>
  </g>
  <g id="zoomMin">
    <use xlink:href="#rim" fill="#404040"><set attributeName="fill" to="#808080" begin="zoomminus.mouseover" end="zoomminus.mouseout"/></use>
    <path d="M-4,0h8" fill="none" stroke="white" stroke-width="1.5" pointer-events="none"/>
  </g>
  <g id="arrowUp" transform="translate(30 24)">
    <use xlink:href="#rim"/>
    <path pointer-events="none" fill="none" stroke="white" stroke-width="1.5" d="M0,-3.0v7 M-2.5,-0.5L0,-3.0L2.5,-0.5"/>
  </g>
  <g id="arrowRight" transform="rotate(90) translate(36 -43)">
    <use xlink:href="#rim"/>
    <path pointer-events="none" fill="none" stroke="white" stroke-width="1.5" d="M0,-3.0v7 M-2.5,-0.5L0,-3.0L2.5,-0.5"/>
  </g>
  <g id="arrowDown" transform="rotate(180) translate(-30 -48)">
    <use xlink:href="#rim"/>
    <path pointer-events="none" fill="none" stroke="white" stroke-width="1.5" d="M0,-3.0v7 M-2.5,-0.5L0,-3.0L2.5,-0.5"/>
  </g>
  <g id="arrowLeft" transform="rotate(270) translate(-36 17)">
    <use xlink:href="#rim"/>
    <path pointer-events="none" fill="none" stroke="white" stroke-width="1.5" d="M0,-3.0v7 M-2.5,-0.5L0,-3.0L2.5,-0.5"/>
  </g>
  <g id="resetDef">
    <use xlink:href="#rim2" fill="#404040"><set attributeName="fill" to="#808080" begin="reset.mouseover" end="reset.mouseout"/></use>
  </g>
</defs>
<script type="application/ecmascript">
var viewWidth = 683;
var viewHeight = 640;
var sectionId = 'dynsection-37';
</script>
<script type="application/ecmascript" xlink:href="svg.min.js"/>
<svg id="graph" class="graph">
<g id="viewport">
<title>juce::TabbedComponent::paint</title>
<!-- Node1 -->
<g id="Node000001" class="node">
<title>Node1</title>
<g id="a_Node000001"><a xlink:title=" ">
<polygon fill="#999999" stroke="#666666" points="120.25,-363.88 0,-363.88 0,-333.38 120.25,-333.38 120.25,-363.88"/>
<text xml:space="preserve" text-anchor="start" x="8" y="-350.38" font-family="Helvetica,sans-Serif" font-size="10.00">juce::TabbedComponent</text>
<text xml:space="preserve" text-anchor="middle" x="60.12" y="-339.12" font-family="Helvetica,sans-Serif" font-size="10.00">::paint</text>
</a>
</g>
</g>
<!-- Node1&#45;&gt;Node1 -->
<g id="edge41_Node000001_Node000001" class="edge">
<title>Node1&#45;&gt;Node1</title>
<g id="a_edge41_Node000001_Node000001"><a xlink:title=" ">
<path fill="none" stroke="#63b8ff" d="M29.05,-364.36C22.71,-373.43 33.07,-381.88 60.12,-381.88 74.92,-381.88 84.73,-379.35 89.54,-375.58"/>
<polygon fill="#63b8ff" stroke="#63b8ff" points="92.97,-376.26 90.98,-365.86 86.05,-375.24 92.97,-376.26"/>
</a>
</g>
</g>
<!-- Node2 -->
<g id="Node000002" class="node">
<title>Node2</title>
<g id="a_Node000002"><a xlink:href="classjuce_1_1Graphics.html#af28f0dff675b147194e188c6ac115f8e" target="_top" xlink:title=" ">
<polygon fill="white" stroke="#666666" points="286.62,-611.25 184.38,-611.25 184.38,-592 286.62,-592 286.62,-611.25"/>
<text xml:space="preserve" text-anchor="middle" x="235.5" y="-597.75" font-family="Helvetica,sans-Serif" font-size="10.00">juce::Graphics::fillAll</text>
</a>
</g>
</g>
<!-- Node1&#45;&gt;Node2 -->
<g id="edge1_Node000001_Node000002" class="edge">
<title>Node1&#45;&gt;Node2</title>
<g id="a_edge1_Node000001_Node000002"><a xlink:title=" ">
<path fill="none" stroke="#63b8ff" d="M62.81,-364.33C68.17,-406.14 88.62,-521.08 156.25,-580.62 161.25,-585.03 167.09,-588.53 173.27,-591.3"/>
<polygon fill="#63b8ff" stroke="#63b8ff" points="171.92,-594.53 182.51,-594.77 174.39,-587.97 171.92,-594.53"/>
</a>
</g>
</g>
<!-- Node4 -->
<g id="Node000004" class="node">
<title>Node4</title>
<g id="a_Node000004"><a xlink:href="classjuce_1_1Component.html#ab858d73201f7fed14b04f1f79e5c9b58" target="_top" xlink:title=" ">
<polygon fill="white" stroke="#666666" points="303.12,-553.25 167.88,-553.25 167.88,-534 303.12,-534 303.12,-553.25"/>
<text xml:space="preserve" text-anchor="middle" x="235.5" y="-539.75" font-family="Helvetica,sans-Serif" font-size="10.00">juce::Component::findColour</text>
</a>
</g>
</g>
<!-- Node1&#45;&gt;Node4 -->
<g id="edge5_Node000001_Node000004" class="edge">
<title>Node1&#45;&gt;Node4</title>
<g id="a_edge5_Node000001_Node000004"><a xlink:title=" ">
<path fill="none" stroke="#63b8ff" d="M64.89,-364.12C74.12,-398.65 101.23,-482.21 156.25,-524.62 157.99,-525.97 159.82,-527.22 161.71,-528.38"/>
<polygon fill="#63b8ff" stroke="#63b8ff" points="159.79,-531.33 170.28,-532.81 163,-525.11 159.79,-531.33"/>
</a>
</g>
</g>
<!-- Node17 -->
<g id="Node000017" class="node">
<title>Node17</title>
<g id="a_Node000017"><a xlink:href="classjuce_1_1TabbedComponent.html#a50a82292c2a62a48025da0e9dcfe8e2b" target="_top" xlink:title=" ">
<polygon fill="white" stroke="#666666" points="295.62,-497.88 175.38,-497.88 175.38,-467.38 295.62,-467.38 295.62,-497.88"/>
<text xml:space="preserve" text-anchor="start" x="183.38" y="-484.38" font-family="Helvetica,sans-Serif" font-size="10.00">juce::TabbedComponent</text>
<text xml:space="preserve" text-anchor="middle" x="235.5" y="-473.12" font-family="Helvetica,sans-Serif" font-size="10.00">::getCurrentTabIndex</text>
</a>
</g>
</g>
<!-- Node1&#45;&gt;Node17 -->
<g id="edge16_Node000001_Node000017" class="edge">
<title>Node1&#45;&gt;Node17</title>
<g id="a_edge16_Node000001_Node000017"><a xlink:title=" ">
<path fill="none" stroke="#63b8ff" d="M70.55,-364C85.73,-387.53 117.84,-432.39 156.25,-457.62 158.99,-459.42 161.86,-461.1 164.83,-462.66"/>
<polygon fill="#63b8ff" stroke="#63b8ff" points="163.3,-465.81 173.84,-466.9 166.28,-459.48 163.3,-465.81"/>
</a>
</g>
</g>
<!-- Node18 -->
<g id="Node000018" class="node">
<title>Node18</title>
<g id="a_Node000018"><a xlink:href="classjuce_1_1Component.html#ad886e26b7514369fe38fdc03074b7c80" target="_top" xlink:title=" ">
<polygon fill="white" stroke="#666666" points="300.5,-430.88 170.5,-430.88 170.5,-400.38 300.5,-400.38 300.5,-430.88"/>
<text xml:space="preserve" text-anchor="start" x="178.5" y="-417.38" font-family="Helvetica,sans-Serif" font-size="10.00">juce::Component::getLocal</text>
<text xml:space="preserve" text-anchor="middle" x="235.5" y="-406.12" font-family="Helvetica,sans-Serif" font-size="10.00">Bounds</text>
</a>
</g>
</g>
<!-- Node1&#45;&gt;Node18 -->
<g id="edge18_Node000001_Node000018" class="edge">
<title>Node1&#45;&gt;Node18</title>
<g id="a_edge18_Node000001_Node000018"><a xlink:title=" ">
<path fill="none" stroke="#63b8ff" d="M94.22,-364.28C112.35,-372.58 135.32,-382.69 156.25,-390.62 161.45,-392.6 166.88,-394.55 172.35,-396.44"/>
<polygon fill="#63b8ff" stroke="#63b8ff" points="170.85,-399.63 181.44,-399.51 173.09,-392.99 170.85,-399.63"/>
</a>
</g>
</g>
<!-- Node19 -->
<g id="Node000019" class="node">
<title>Node19</title>
<g id="a_Node000019"><a xlink:href="classjuce_1_1TabbedComponent.html#ac4b08f2aec164772708c7a9ddf22495d" target="_top" xlink:title=" ">
<polygon fill="white" stroke="#666666" points="295.62,-363.88 175.38,-363.88 175.38,-333.38 295.62,-333.38 295.62,-363.88"/>
<text xml:space="preserve" text-anchor="start" x="183.38" y="-350.38" font-family="Helvetica,sans-Serif" font-size="10.00">juce::TabbedComponent</text>
<text xml:space="preserve" text-anchor="middle" x="235.5" y="-339.12" font-family="Helvetica,sans-Serif" font-size="10.00">::getOrientation</text>
</a>
</g>
</g>
<!-- Node1&#45;&gt;Node19 -->
<g id="edge20_Node000001_Node000019" class="edge">
<title>Node1&#45;&gt;Node19</title>
<g id="a_edge20_Node000001_Node000019"><a xlink:title=" ">
<path fill="none" stroke="#63b8ff" d="M120.31,-348.62C134.24,-348.62 149.23,-348.62 163.62,-348.62"/>
<polygon fill="#63b8ff" stroke="#63b8ff" points="163.48,-352.13 173.48,-348.63 163.48,-345.13 163.48,-352.13"/>
</a>
</g>
</g>
<!-- Node20 -->
<g id="Node000020" class="node">
<title>Node20</title>
<g id="a_Node000020"><a xlink:href="namespacejuce_1_1TabbedComponentHelpers.html#a1c744ee6b496772bdda5b989d6264169" target="_top" xlink:title=" ">
<polygon fill="white" stroke="#666666" points="312.5,-296.88 158.5,-296.88 158.5,-266.38 312.5,-266.38 312.5,-296.88"/>
<text xml:space="preserve" text-anchor="start" x="166.5" y="-283.38" font-family="Helvetica,sans-Serif" font-size="10.00">juce::TabbedComponentHelpers</text>
<text xml:space="preserve" text-anchor="middle" x="235.5" y="-272.12" font-family="Helvetica,sans-Serif" font-size="10.00">::getTabArea</text>
</a>
</g>
</g>
<!-- Node1&#45;&gt;Node20 -->
<g id="edge22_Node000001_Node000020" class="edge">
<title>Node1&#45;&gt;Node20</title>
<g id="a_edge22_Node000001_Node000020"><a xlink:title=" ">
<path fill="none" stroke="#63b8ff" d="M101.77,-332.92C126.14,-323.5 157.34,-311.44 183.37,-301.38"/>
<polygon fill="#63b8ff" stroke="#63b8ff" points="184.33,-304.77 192.39,-297.9 181.8,-298.24 184.33,-304.77"/>
</a>
</g>
</g>
<!-- Node32 -->
<g id="Node000032" class="node">
<title>Node32</title>
<g id="a_Node000032"><a xlink:href="classjuce_1_1Graphics.html#ab5888b8d34e501f079d68d72b06483ae" target="_top" xlink:title=" ">
<polygon fill="white" stroke="#666666" points="299.38,-229.88 171.62,-229.88 171.62,-199.38 299.38,-199.38 299.38,-229.88"/>
<text xml:space="preserve" text-anchor="start" x="179.62" y="-216.38" font-family="Helvetica,sans-Serif" font-size="10.00">juce::Graphics::reduceClip</text>
<text xml:space="preserve" text-anchor="middle" x="235.5" y="-205.12" font-family="Helvetica,sans-Serif" font-size="10.00">Region</text>
</a>
</g>
</g>
<!-- Node1&#45;&gt;Node32 -->
<g id="edge42_Node000001_Node000032" class="edge">
<title>Node1&#45;&gt;Node32</title>
<g id="a_edge42_Node000001_Node000032"><a xlink:title=" ">
<path fill="none" stroke="#63b8ff" d="M74.89,-333.17C92.51,-313.96 124.55,-280.87 156.25,-257.62 167.17,-249.61 179.76,-242.06 191.6,-235.58"/>
<polygon fill="#63b8ff" stroke="#63b8ff" points="193.23,-238.68 200.41,-230.9 189.94,-232.5 193.23,-238.68"/>
</a>
</g>
</g>
<!-- Node33 -->
<g id="Node000033" class="node">
<title>Node33</title>
<g id="a_Node000033"><a xlink:href="classjuce_1_1RectangleList.html#a2cb316c71c36651e23eadbb5051317cb" target="_top" xlink:title=" ">
<polygon fill="white" stroke="#666666" points="284.75,-117.88 186.25,-117.88 186.25,-87.38 284.75,-87.38 284.75,-117.88"/>
<text xml:space="preserve" text-anchor="start" x="194.25" y="-104.38" font-family="Helvetica,sans-Serif" font-size="10.00">juce::RectangleList</text>
<text xml:space="preserve" text-anchor="middle" x="235.5" y="-93.12" font-family="Helvetica,sans-Serif" font-size="10.00">::subtract</text>
</a>
</g>
</g>
<!-- Node1&#45;&gt;Node33 -->
<g id="edge44_Node000001_Node000033" class="edge">
<title>Node1&#45;&gt;Node33</title>
<g id="a_edge44_Node000001_Node000033"><a xlink:title=" ">
<path fill="none" stroke="#63b8ff" d="M69.16,-333.22C84.52,-304.26 119.82,-240.14 156.25,-190.62 173.17,-167.63 194.92,-143.53 211.19,-126.38"/>
<polygon fill="#63b8ff" stroke="#63b8ff" points="213.7,-128.82 218.1,-119.18 208.65,-123.97 213.7,-128.82"/>
</a>
</g>
</g>
<!-- Node38 -->
<g id="Node000038" class="node">
<title>Node38</title>
<g id="a_Node000038"><a xlink:href="classjuce_1_1BorderSize.html#a99fa9866bf5a27b8538f14e4bd1d21ad" target="_top" xlink:title=" ">
<polygon fill="white" stroke="#666666" points="314.75,-69.25 156.25,-69.25 156.25,-50 314.75,-50 314.75,-69.25"/>
<text xml:space="preserve" text-anchor="middle" x="235.5" y="-55.75" font-family="Helvetica,sans-Serif" font-size="10.00">juce::BorderSize::subtractedFrom</text>
</a>
</g>
</g>
<!-- Node1&#45;&gt;Node38 -->
<g id="edge49_Node000001_Node000038" class="edge">
<title>Node1&#45;&gt;Node38</title>
<g id="a_edge49_Node000001_Node000038"><a xlink:title=" ">
<path fill="none" stroke="#63b8ff" d="M61.7,-333.05C64.28,-286.77 78.47,-148.96 156.25,-78.62 157.36,-77.62 158.51,-76.67 159.7,-75.77"/>
<polygon fill="#63b8ff" stroke="#63b8ff" points="161.52,-78.76 168.19,-70.54 157.84,-72.8 161.52,-78.76"/>
</a>
</g>
</g>
<!-- Node2&#45;&gt;Node2 -->
<g id="edge2_Node000002_Node000002" class="edge">
<title>Node2&#45;&gt;Node2</title>
<g id="a_edge2_Node000002_Node000002"><a xlink:title=" ">
<path fill="none" stroke="#63b8ff" d="M208.04,-611.54C195.52,-620.15 204.67,-629.25 235.5,-629.25 252.84,-629.25 263.32,-626.37 266.95,-622.32"/>
<polygon fill="#63b8ff" stroke="#63b8ff" points="270.24,-621.12 263.48,-612.96 263.67,-623.55 270.24,-621.12"/>
</a>
</g>
</g>
<!-- Node3 -->
<g id="Node000003" class="node">
<title>Node3</title>
<g id="a_Node000003"><a xlink:href="classjuce_1_1Graphics.html#a8ec4ee2940467eeac346453851ecea42" target="_top" xlink:title=" ">
<polygon fill="white" stroke="#666666" points="485.62,-614.25 374.38,-614.25 374.38,-595 485.62,-595 485.62,-614.25"/>
<text xml:space="preserve" text-anchor="middle" x="430" y="-600.75" font-family="Helvetica,sans-Serif" font-size="10.00">juce::Graphics::fillRect</text>
</a>
</g>
</g>
<!-- Node2&#45;&gt;Node3 -->
<g id="edge3_Node000002_Node000003" class="edge">
<title>Node2&#45;&gt;Node3</title>
<g id="a_edge3_Node000002_Node000003"><a xlink:title=" ">
<path fill="none" stroke="#63b8ff" d="M287.08,-602.41C310.16,-602.77 337.8,-603.2 362.53,-603.59"/>
<polygon fill="#63b8ff" stroke="#63b8ff" points="362.46,-607.09 372.52,-603.74 362.57,-600.09 362.46,-607.09"/>
</a>
</g>
</g>
<!-- Node3&#45;&gt;Node3 -->
<g id="edge4_Node000003_Node000003" class="edge">
<title>Node3&#45;&gt;Node3</title>
<g id="a_edge4_Node000003_Node000003"><a xlink:title=" ">
<path fill="none" stroke="#63b8ff" d="M401.78,-614.54C388.91,-623.15 398.32,-632.25 430,-632.25 448.32,-632.25 459.19,-629.21 462.61,-624.98"/>
<polygon fill="#63b8ff" stroke="#63b8ff" points="465.91,-623.79 458.81,-615.93 459.46,-626.51 465.91,-623.79"/>
</a>
</g>
</g>
<!-- Node4&#45;&gt;Node4 -->
<g id="edge6_Node000004_Node000004" class="edge">
<title>Node4&#45;&gt;Node4</title>
<g id="a_edge6_Node000004_Node000004"><a xlink:title=" ">
<path fill="none" stroke="#63b8ff" d="M208.04,-553.54C195.52,-562.15 204.67,-571.25 235.5,-571.25 252.84,-571.25 263.32,-568.37 266.95,-564.32"/>
<polygon fill="#63b8ff" stroke="#63b8ff" points="270.24,-563.12 263.48,-554.96 263.67,-565.55 270.24,-563.12"/>
</a>
</g>
</g>
<!-- Node5 -->
<g id="Node000005" class="node">
<title>Node5</title>
<g id="a_Node000005"><a xlink:href="structjuce_1_1Component_1_1ComponentHelpers.html#a41a45f847fdf96fac6864300938871f2" target="_top" xlink:title=" ">
<polygon fill="white" stroke="#666666" points="501,-503.88 359,-503.88 359,-473.38 501,-473.38 501,-503.88"/>
<text xml:space="preserve" text-anchor="start" x="367" y="-490.38" font-family="Helvetica,sans-Serif" font-size="10.00">juce::Component::Component</text>
<text xml:space="preserve" text-anchor="middle" x="430" y="-479.12" font-family="Helvetica,sans-Serif" font-size="10.00">Helpers::getColourPropertyID</text>
</a>
</g>
</g>
<!-- Node4&#45;&gt;Node5 -->
<g id="edge7_Node000004_Node000005" class="edge">
<title>Node4&#45;&gt;Node5</title>
<g id="a_edge7_Node000004_Node000005"><a xlink:title=" ">
<path fill="none" stroke="#63b8ff" d="M280.09,-533.59C291.42,-530.83 303.57,-527.74 314.75,-524.62 333.08,-519.52 352.91,-513.46 370.81,-507.79"/>
<polygon fill="#63b8ff" stroke="#63b8ff" points="371.78,-511.15 380.24,-504.78 369.65,-504.48 371.78,-511.15"/>
</a>
</g>
</g>
<!-- Node8 -->
<g id="Node000008" class="node">
<title>Node8</title>
<g id="a_Node000008"><a xlink:href="classjuce_1_1Component.html#ad55f2def99fd7d05f6a71ef505e1a43b" target="_top" xlink:title=" ">
<polygon fill="white" stroke="#666666" points="493.88,-558.88 366.12,-558.88 366.12,-528.38 493.88,-528.38 493.88,-558.88"/>
<text xml:space="preserve" text-anchor="start" x="374.12" y="-545.38" font-family="Helvetica,sans-Serif" font-size="10.00">juce::Component::getLook</text>
<text xml:space="preserve" text-anchor="middle" x="430" y="-534.12" font-family="Helvetica,sans-Serif" font-size="10.00">AndFeel</text>
</a>
</g>
</g>
<!-- Node4&#45;&gt;Node8 -->
<g id="edge12_Node000004_Node000008" class="edge">
<title>Node4&#45;&gt;Node8</title>
<g id="a_edge12_Node000004_Node000008"><a xlink:title=" ">
<path fill="none" stroke="#63b8ff" d="M303.56,-543.62C319.95,-543.62 337.6,-543.62 354.33,-543.62"/>
<polygon fill="#63b8ff" stroke="#63b8ff" points="354.23,-547.13 364.23,-543.63 354.23,-540.13 354.23,-547.13"/>
</a>
</g>
</g>
<!-- Node6 -->
<g id="Node000006" class="node">
<title>Node6</title>
<g id="a_Node000006"><a xlink:href="namespacejuce.html#a5050fe52825e9808a414c41cb63f203d" target="_top" xlink:title=" ">
<polygon fill="white" stroke="#666666" points="637.38,-498.25 583.12,-498.25 583.12,-479 637.38,-479 637.38,-498.25"/>
<text xml:space="preserve" text-anchor="middle" x="610.25" y="-484.75" font-family="Helvetica,sans-Serif" font-size="10.00">juce::end</text>
</a>
</g>
</g>
<!-- Node5&#45;&gt;Node6 -->
<g id="edge8_Node000005_Node000006" class="edge">
<title>Node5&#45;&gt;Node6</title>
<g id="a_edge8_Node000005_Node000006"><a xlink:title=" ">
<path fill="none" stroke="#63b8ff" d="M501.45,-488.62C525.37,-488.62 551.16,-488.62 571.52,-488.62"/>
<polygon fill="#63b8ff" stroke="#63b8ff" points="571.31,-492.13 581.31,-488.63 571.31,-485.13 571.31,-492.13"/>
</a>
</g>
</g>
<!-- Node7 -->
<g id="Node000007" class="node">
<title>Node7</title>
<g id="a_Node000007"><a xlink:href="namespacejuce.html#af55f43e59a0579af844c014471730b02" target="_top" xlink:title=" ">
<polygon fill="white" stroke="#666666" points="674.5,-443.25 546,-443.25 546,-424 674.5,-424 674.5,-443.25"/>
<text xml:space="preserve" text-anchor="middle" x="610.25" y="-429.75" font-family="Helvetica,sans-Serif" font-size="10.00">juce::numElementsInArray</text>
</a>
</g>
</g>
<!-- Node5&#45;&gt;Node7 -->
<g id="edge10_Node000005_Node000007" class="edge">
<title>Node5&#45;&gt;Node7</title>
<g id="a_edge10_Node000005_Node000007"><a xlink:title=" ">
<path fill="none" stroke="#63b8ff" d="M481.6,-473.01C508.14,-464.82 540.32,-454.89 565.73,-447.05"/>
<polygon fill="#63b8ff" stroke="#63b8ff" points="566.56,-450.46 575.08,-444.17 564.5,-443.77 566.56,-450.46"/>
</a>
</g>
</g>
<!-- Node6&#45;&gt;Node6 -->
<g id="edge9_Node000006_Node000006" class="edge">
<title>Node6&#45;&gt;Node6</title>
<g id="a_edge9_Node000006_Node000006"><a xlink:title=" ">
<path fill="none" stroke="#63b8ff" d="M582.92,-497.97C568.75,-506.74 577.86,-516.25 610.25,-516.25 630.49,-516.25 641.64,-512.53 643.7,-507.6"/>
<polygon fill="#63b8ff" stroke="#63b8ff" points="646.7,-505.81 638.39,-499.24 640.79,-509.56 646.7,-505.81"/>
</a>
</g>
</g>
<!-- Node7&#45;&gt;Node7 -->
<g id="edge11_Node000007_Node000007" class="edge">
<title>Node7&#45;&gt;Node7</title>
<g id="a_edge11_Node000007_Node000007"><a xlink:title=" ">
<path fill="none" stroke="#63b8ff" d="M582.03,-443.54C569.16,-452.15 578.57,-461.25 610.25,-461.25 628.57,-461.25 639.44,-458.21 642.86,-453.98"/>
<polygon fill="#63b8ff" stroke="#63b8ff" points="646.16,-452.79 639.06,-444.93 639.71,-455.51 646.16,-452.79"/>
</a>
</g>
</g>
<!-- Node8&#45;&gt;Node8 -->
<g id="edge15_Node000008_Node000008" class="edge">
<title>Node8&#45;&gt;Node8</title>
<g id="a_edge15_Node000008_Node000008"><a xlink:title=" ">
<path fill="none" stroke="#63b8ff" d="M398.06,-559.36C391.54,-568.43 402.19,-576.88 430,-576.88 445.21,-576.88 455.29,-574.35 460.23,-570.58"/>
<polygon fill="#63b8ff" stroke="#63b8ff" points="463.66,-571.27 461.71,-560.86 456.74,-570.21 463.66,-571.27"/>
</a>
</g>
</g>
<!-- Node9 -->
<g id="Node000009" class="node">
<title>Node9</title>
<g id="a_Node000009"><a xlink:href="classjuce_1_1LookAndFeel.html#a02a1038087637804ca8e15a3a672059e" target="_top" xlink:title=" ">
<polygon fill="#fff0f0" stroke="red" points="669.25,-564.88 551.25,-564.88 551.25,-534.38 669.25,-534.38 669.25,-564.88"/>
<text xml:space="preserve" text-anchor="start" x="559.25" y="-551.38" font-family="Helvetica,sans-Serif" font-size="10.00">juce::LookAndFeel::</text>
<text xml:space="preserve" text-anchor="middle" x="610.25" y="-540.12" font-family="Helvetica,sans-Serif" font-size="10.00">getDefaultLookAndFeel</text>
</a>
</g>
</g>
<!-- Node8&#45;&gt;Node9 -->
<g id="edge13_Node000008_Node000009" class="edge">
<title>Node8&#45;&gt;Node9</title>
<g id="a_edge13_Node000008_Node000009"><a xlink:title=" ">
<path fill="none" stroke="#63b8ff" d="M494.35,-545.76C509.02,-546.25 524.71,-546.78 539.64,-547.28"/>
<polygon fill="#63b8ff" stroke="#63b8ff" points="539.24,-550.77 549.36,-547.61 539.48,-543.77 539.24,-550.77"/>
</a>
</g>
</g>
<!-- Node9&#45;&gt;Node9 -->
<g id="edge14_Node000009_Node000009" class="edge">
<title>Node9&#45;&gt;Node9</title>
<g id="a_edge14_Node000009_Node000009"><a xlink:title=" ">
<path fill="none" stroke="#63b8ff" d="M578.31,-565.36C571.79,-574.43 582.44,-582.88 610.25,-582.88 625.46,-582.88 635.54,-580.35 640.48,-576.58"/>
<polygon fill="#63b8ff" stroke="#63b8ff" points="643.91,-577.27 641.96,-566.86 636.99,-576.21 643.91,-577.27"/>
</a>
</g>
</g>
<!-- Node17&#45;&gt;Node17 -->
<g id="edge17_Node000017_Node000017" class="edge">
<title>Node17&#45;&gt;Node17</title>
<g id="a_edge17_Node000017_Node000017"><a xlink:title=" ">
<path fill="none" stroke="#63b8ff" d="M204.42,-498.36C198.08,-507.43 208.44,-515.88 235.5,-515.88 250.3,-515.88 260.1,-513.35 264.91,-509.58"/>
<polygon fill="#63b8ff" stroke="#63b8ff" points="268.35,-510.26 266.35,-499.86 261.42,-509.24 268.35,-510.26"/>
</a>
</g>
</g>
<!-- Node18&#45;&gt;Node18 -->
<g id="edge19_Node000018_Node000018" class="edge">
<title>Node18&#45;&gt;Node18</title>
<g id="a_edge19_Node000018_Node000018"><a xlink:title=" ">
<path fill="none" stroke="#63b8ff" d="M204.42,-431.36C198.08,-440.43 208.44,-448.88 235.5,-448.88 250.3,-448.88 260.1,-446.35 264.91,-442.58"/>
<polygon fill="#63b8ff" stroke="#63b8ff" points="268.35,-443.26 266.35,-432.86 261.42,-442.24 268.35,-443.26"/>
</a>
</g>
</g>
<!-- Node19&#45;&gt;Node19 -->
<g id="edge21_Node000019_Node000019" class="edge">
<title>Node19&#45;&gt;Node19</title>
<g id="a_edge21_Node000019_Node000019"><a xlink:title=" ">
<path fill="none" stroke="#63b8ff" d="M204.42,-364.36C198.08,-373.43 208.44,-381.88 235.5,-381.88 250.3,-381.88 260.1,-379.35 264.91,-375.58"/>
<polygon fill="#63b8ff" stroke="#63b8ff" points="268.35,-376.26 266.35,-365.86 261.42,-375.24 268.35,-376.26"/>
</a>
</g>
</g>
<!-- Node20&#45;&gt;Node20 -->
<g id="edge23_Node000020_Node000020" class="edge">
<title>Node20&#45;&gt;Node20</title>
<g id="a_edge23_Node000020_Node000020"><a xlink:title=" ">
<path fill="none" stroke="#63b8ff" d="M204.42,-297.36C198.08,-306.43 208.44,-314.88 235.5,-314.88 250.3,-314.88 260.1,-312.35 264.91,-308.58"/>
<polygon fill="#63b8ff" stroke="#63b8ff" points="268.35,-309.26 266.35,-298.86 261.42,-308.24 268.35,-309.26"/>
</a>
</g>
</g>
<!-- Node21 -->
<g id="Node000021" class="node">
<title>Node21</title>
<g id="a_Node000021"><a xlink:href="classjuce_1_1Rectangle.html#a442335ef017f62704336a2ce3ffc2187" target="_top" xlink:title=" ">
<polygon fill="white" stroke="#666666" points="500.62,-178.88 359.38,-178.88 359.38,-148.38 500.62,-148.38 500.62,-178.88"/>
<text xml:space="preserve" text-anchor="start" x="367.38" y="-165.38" font-family="Helvetica,sans-Serif" font-size="10.00">juce::Rectangle::removeFrom</text>
<text xml:space="preserve" text-anchor="middle" x="430" y="-154.12" font-family="Helvetica,sans-Serif" font-size="10.00">Bottom</text>
</a>
</g>
</g>
<!-- Node20&#45;&gt;Node21 -->
<g id="edge24_Node000020_Node000021" class="edge">
<title>Node20&#45;&gt;Node21</title>
<g id="a_edge24_Node000020_Node000021"><a xlink:title=" ">
<path fill="none" stroke="#63b8ff" d="M300.66,-265.88C305.7,-263.25 310.48,-260.19 314.75,-256.62 340.98,-234.69 324.52,-210.56 350.75,-188.62 352.22,-187.4 353.74,-186.23 355.32,-185.12"/>
<polygon fill="#63b8ff" stroke="#63b8ff" points="356.8,-188.32 363.55,-180.15 353.18,-182.33 356.8,-188.32"/>
</a>
</g>
</g>
<!-- Node24 -->
<g id="Node000024" class="node">
<title>Node24</title>
<g id="a_Node000024"><a xlink:href="classjuce_1_1Rectangle.html#aa0a6050d737d96fdd2abcab9e30de741" target="_top" xlink:title=" ">
<polygon fill="white" stroke="#666666" points="509.25,-265.25 350.75,-265.25 350.75,-246 509.25,-246 509.25,-265.25"/>
<text xml:space="preserve" text-anchor="middle" x="430" y="-251.75" font-family="Helvetica,sans-Serif" font-size="10.00">juce::Rectangle::removeFromLeft</text>
</a>
</g>
</g>
<!-- Node20&#45;&gt;Node24 -->
<g id="edge28_Node000020_Node000024" class="edge">
<title>Node20&#45;&gt;Node24</title>
<g id="a_edge28_Node000020_Node000024"><a xlink:title=" ">
<path fill="none" stroke="#63b8ff" d="M312.86,-271.31C322.77,-269.97 332.98,-268.59 343.04,-267.24"/>
<polygon fill="#63b8ff" stroke="#63b8ff" points="343.37,-270.72 352.81,-265.92 342.43,-263.79 343.37,-270.72"/>
</a>
</g>
</g>
<!-- Node26 -->
<g id="Node000026" class="node">
<title>Node26</title>
<g id="a_Node000026"><a xlink:href="classjuce_1_1Rectangle.html#a2d1810f0e2dee05950a41102dc3d7731" target="_top" xlink:title=" ">
<polygon fill="white" stroke="#666666" points="500.62,-227.88 359.38,-227.88 359.38,-197.38 500.62,-197.38 500.62,-227.88"/>
<text xml:space="preserve" text-anchor="start" x="367.38" y="-214.38" font-family="Helvetica,sans-Serif" font-size="10.00">juce::Rectangle::removeFrom</text>
<text xml:space="preserve" text-anchor="middle" x="430" y="-203.12" font-family="Helvetica,sans-Serif" font-size="10.00">Right</text>
</a>
</g>
</g>
<!-- Node20&#45;&gt;Node26 -->
<g id="edge31_Node000020_Node000026" class="edge">
<title>Node20&#45;&gt;Node26</title>
<g id="a_edge31_Node000020_Node000026"><a xlink:title=" ">
<path fill="none" stroke="#63b8ff" d="M290.48,-265.93C298.71,-263.09 307.03,-259.96 314.75,-256.62 331.55,-249.36 333.91,-243.79 350.75,-236.62 354.5,-235.03 358.39,-233.49 362.35,-232.01"/>
<polygon fill="#63b8ff" stroke="#63b8ff" points="363.24,-235.41 371.49,-228.77 360.89,-228.82 363.24,-235.41"/>
</a>
</g>
</g>
<!-- Node27 -->
<g id="Node000027" class="node">
<title>Node27</title>
<g id="a_Node000027"><a xlink:href="classjuce_1_1Rectangle.html#a8c2405d2914324a03d2862b89f2c31fd" target="_top" xlink:title=" ">
<polygon fill="white" stroke="#666666" points="508.88,-450.25 351.12,-450.25 351.12,-431 508.88,-431 508.88,-450.25"/>
<text xml:space="preserve" text-anchor="middle" x="430" y="-436.75" font-family="Helvetica,sans-Serif" font-size="10.00">juce::Rectangle::removeFromTop</text>
</a>
</g>
</g>
<!-- Node20&#45;&gt;Node27 -->
<g id="edge34_Node000020_Node000027" class="edge">
<title>Node20&#45;&gt;Node27</title>
<g id="a_edge34_Node000020_Node000027"><a xlink:title=" ">
<path fill="none" stroke="#63b8ff" d="M277.4,-297.18C290.78,-303.92 304.74,-312.99 314.75,-324.62 345,-359.81 315.94,-391.94 350.75,-422.62 351.53,-423.31 352.33,-423.97 353.14,-424.61"/>
<polygon fill="#63b8ff" stroke="#63b8ff" points="350.95,-427.36 361.27,-429.75 354.69,-421.45 350.95,-427.36"/>
</a>
</g>
</g>
<!-- Node28 -->
<g id="Node000028" class="node">
<title>Node28</title>
<g id="a_Node000028"><a xlink:href="classjuce_1_1BorderSize.html#ad6d19c49047b4ed963f38992977de702" target="_top" xlink:title=" ">
<polygon fill="white" stroke="#666666" points="497.62,-413.25 362.38,-413.25 362.38,-394 497.62,-394 497.62,-413.25"/>
<text xml:space="preserve" text-anchor="middle" x="430" y="-399.75" font-family="Helvetica,sans-Serif" font-size="10.00">juce::BorderSize::setBottom</text>
</a>
</g>
</g>
<!-- Node20&#45;&gt;Node28 -->
<g id="edge37_Node000020_Node000028" class="edge">
<title>Node20&#45;&gt;Node28</title>
<g id="a_edge37_Node000020_Node000028"><a xlink:title=" ">
<path fill="none" stroke="#63b8ff" d="M274.26,-297.23C288.09,-304.2 303.18,-313.4 314.75,-324.62 337.35,-346.54 325.35,-367.03 350.75,-385.62 352.09,-386.6 353.47,-387.53 354.88,-388.41"/>
<polygon fill="#63b8ff" stroke="#63b8ff" points="352.88,-391.31 363.37,-392.81 356.1,-385.09 352.88,-391.31"/>
</a>
</g>
</g>
<!-- Node29 -->
<g id="Node000029" class="node">
<title>Node29</title>
<g id="a_Node000029"><a xlink:href="classjuce_1_1BorderSize.html#ae983f890502d4c5f24194ac127370e8d" target="_top" xlink:title=" ">
<polygon fill="white" stroke="#666666" points="490.5,-376.25 369.5,-376.25 369.5,-357 490.5,-357 490.5,-376.25"/>
<text xml:space="preserve" text-anchor="middle" x="430" y="-362.75" font-family="Helvetica,sans-Serif" font-size="10.00">juce::BorderSize::setLeft</text>
</a>
</g>
</g>
<!-- Node20&#45;&gt;Node29 -->
<g id="edge38_Node000020_Node000029" class="edge">
<title>Node20&#45;&gt;Node29</title>
<g id="a_edge38_Node000020_Node000029"><a xlink:title=" ">
<path fill="none" stroke="#63b8ff" d="M266.57,-297.37C281.26,-305.26 299.11,-315.14 314.75,-324.62 331.19,-334.6 333.09,-341.01 350.75,-348.62 354.74,-350.35 358.92,-351.91 363.18,-353.34"/>
<polygon fill="#63b8ff" stroke="#63b8ff" points="361.85,-356.6 372.44,-356.17 363.9,-349.9 361.85,-356.6"/>
</a>
</g>
</g>
<!-- Node30 -->
<g id="Node000030" class="node">
<title>Node30</title>
<g id="a_Node000030"><a xlink:href="classjuce_1_1BorderSize.html#a1860c2ef3cf0d9031cf9dde9baccbffd" target="_top" xlink:title=" ">
<polygon fill="white" stroke="#666666" points="493.12,-339.25 366.88,-339.25 366.88,-320 493.12,-320 493.12,-339.25"/>
<text xml:space="preserve" text-anchor="middle" x="430" y="-325.75" font-family="Helvetica,sans-Serif" font-size="10.00">juce::BorderSize::setRight</text>
</a>
</g>
</g>
<!-- Node20&#45;&gt;Node30 -->
<g id="edge39_Node000020_Node000030" class="edge">
<title>Node20&#45;&gt;Node30</title>
<g id="a_edge39_Node000020_Node000030"><a xlink:title=" ">
<path fill="none" stroke="#63b8ff" d="M294.83,-297.31C312.74,-302.03 332.53,-307.14 350.75,-311.62 358.03,-313.42 365.7,-315.25 373.27,-317.03"/>
<polygon fill="#63b8ff" stroke="#63b8ff" points="372.25,-320.38 382.78,-319.24 373.83,-313.56 372.25,-320.38"/>
</a>
</g>
</g>
<!-- Node31 -->
<g id="Node000031" class="node">
<title>Node31</title>
<g id="a_Node000031"><a xlink:href="classjuce_1_1BorderSize.html#a12c78ef96230e254158faf8ccd8e86cf" target="_top" xlink:title=" ">
<polygon fill="white" stroke="#666666" points="490.12,-302.25 369.88,-302.25 369.88,-283 490.12,-283 490.12,-302.25"/>
<text xml:space="preserve" text-anchor="middle" x="430" y="-288.75" font-family="Helvetica,sans-Serif" font-size="10.00">juce::BorderSize::setTop</text>
</a>
</g>
</g>
<!-- Node20&#45;&gt;Node31 -->
<g id="edge40_Node000020_Node000031" class="edge">
<title>Node20&#45;&gt;Node31</title>
<g id="a_edge40_Node000020_Node000031"><a xlink:title=" ">
<path fill="none" stroke="#63b8ff" d="M312.86,-285.99C327.91,-286.85 343.65,-287.75 358.5,-288.6"/>
<polygon fill="#63b8ff" stroke="#63b8ff" points="357.97,-292.07 368.15,-289.15 358.37,-285.08 357.97,-292.07"/>
</a>
</g>
</g>
<!-- Node22 -->
<g id="Node000022" class="node">
<title>Node22</title>
<g id="a_Node000022"><a xlink:href="CarlaEngineGraph_8cpp.html#a51eb9b3403bff872a24b0b65fcf49b62" target="_top" xlink:title=" ">
<polygon fill="white" stroke="#666666" points="627.25,-200.25 593.25,-200.25 593.25,-181 627.25,-181 627.25,-200.25"/>
<text xml:space="preserve" text-anchor="middle" x="610.25" y="-186.75" font-family="Helvetica,sans-Serif" font-size="10.00">jmin</text>
</a>
</g>
</g>
<!-- Node21&#45;&gt;Node22 -->
<g id="edge25_Node000021_Node000022" class="edge">
<title>Node21&#45;&gt;Node22</title>
<g id="a_edge25_Node000021_Node000022"><a xlink:title=" ">
<path fill="none" stroke="#63b8ff" d="M500.94,-174.22C529.12,-178.49 559.98,-183.16 581.53,-186.43"/>
<polygon fill="#63b8ff" stroke="#63b8ff" points="580.85,-189.86 591.26,-187.9 581.9,-182.94 580.85,-189.86"/>
</a>
</g>
</g>
<!-- Node23 -->
<g id="Node000023" class="node">
<title>Node23</title>
<g id="a_Node000023"><a xlink:href="classjuce_1_1Rectangle.html#a9b0852de9d45cf8a1b602ce114984ae1" target="_top" xlink:title=" ">
<polygon fill="white" stroke="#666666" points="675.25,-243.25 545.25,-243.25 545.25,-224 675.25,-224 675.25,-243.25"/>
<text xml:space="preserve" text-anchor="middle" x="610.25" y="-229.75" font-family="Helvetica,sans-Serif" font-size="10.00">juce::Rectangle::Rectangle</text>
</a>
</g>
</g>
<!-- Node21&#45;&gt;Node23 -->
<g id="edge26_Node000021_Node000023" class="edge">
<title>Node21&#45;&gt;Node23</title>
<g id="a_edge26_Node000021_Node000023"><a xlink:title=" ">
<path fill="none" stroke="#63b8ff" d="M485.46,-179.32C493.54,-182.14 501.69,-185.26 509.25,-188.62 526.17,-196.16 528.52,-201.68 545.25,-209.62 552.61,-213.12 560.62,-216.47 568.41,-219.49"/>
<polygon fill="#63b8ff" stroke="#63b8ff" points="567.17,-222.77 577.76,-223.01 569.64,-216.21 567.17,-222.77"/>
</a>
</g>
</g>
<!-- Node23&#45;&gt;Node23 -->
<g id="edge27_Node000023_Node000023" class="edge">
<title>Node23&#45;&gt;Node23</title>
<g id="a_edge27_Node000023_Node000023"><a xlink:title=" ">
<path fill="none" stroke="#63b8ff" d="M582.03,-243.54C569.16,-252.15 578.57,-261.25 610.25,-261.25 628.57,-261.25 639.44,-258.21 642.86,-253.98"/>
<polygon fill="#63b8ff" stroke="#63b8ff" points="646.16,-252.79 639.06,-244.93 639.71,-255.51 646.16,-252.79"/>
</a>
</g>
</g>
<!-- Node24&#45;&gt;Node23 -->
<g id="edge30_Node000024_Node000023" class="edge">
<title>Node24&#45;&gt;Node23</title>
<g id="a_edge30_Node000024_Node000023"><a xlink:title=" ">
<path fill="none" stroke="#63b8ff" d="M509.7,-245.91C517.6,-244.94 525.6,-243.95 533.47,-242.98"/>
<polygon fill="#63b8ff" stroke="#63b8ff" points="533.86,-246.46 543.36,-241.76 533,-239.51 533.86,-246.46"/>
</a>
</g>
</g>
<!-- Node25 -->
<g id="Node000025" class="node">
<title>Node25</title>
<g id="a_Node000025"><a xlink:href="namespacejuce.html#a31dc5897289f074362c29fe54016f2dd" target="_top" xlink:title=" ">
<polygon fill="white" stroke="#666666" points="638.5,-342.25 582,-342.25 582,-323 638.5,-323 638.5,-342.25"/>
<text xml:space="preserve" text-anchor="middle" x="610.25" y="-328.75" font-family="Helvetica,sans-Serif" font-size="10.00">juce::jmin</text>
</a>
</g>
</g>
<!-- Node24&#45;&gt;Node25 -->
<g id="edge29_Node000024_Node000025" class="edge">
<title>Node24&#45;&gt;Node25</title>
<g id="a_edge29_Node000024_Node000025"><a xlink:title=" ">
<path fill="none" stroke="#63b8ff" d="M484.71,-265.67C493.06,-267.89 501.48,-270.53 509.25,-273.62 537.15,-284.76 566.46,-302.92 586.07,-316.16"/>
<polygon fill="#63b8ff" stroke="#63b8ff" points="583.92,-318.93 594.15,-321.71 587.89,-313.16 583.92,-318.93"/>
</a>
</g>
</g>
<!-- Node26&#45;&gt;Node22 -->
<g id="edge32_Node000026_Node000022" class="edge">
<title>Node26&#45;&gt;Node22</title>
<g id="a_edge32_Node000026_Node000022"><a xlink:title=" ">
<path fill="none" stroke="#63b8ff" d="M500.94,-203.99C529.12,-200.52 559.98,-196.71 581.53,-194.05"/>
<polygon fill="#63b8ff" stroke="#63b8ff" points="581.76,-197.54 591.25,-192.85 580.9,-190.6 581.76,-197.54"/>
</a>
</g>
</g>
<!-- Node26&#45;&gt;Node23 -->
<g id="edge33_Node000026_Node000023" class="edge">
<title>Node26&#45;&gt;Node23</title>
<g id="a_edge33_Node000026_Node000023"><a xlink:title=" ">
<path fill="none" stroke="#63b8ff" d="M500.94,-220.86C511.72,-222.14 522.9,-223.45 533.8,-224.74"/>
<polygon fill="#63b8ff" stroke="#63b8ff" points="533.19,-228.19 543.53,-225.88 534.01,-221.24 533.19,-228.19"/>
</a>
</g>
</g>
<!-- Node27&#45;&gt;Node23 -->
<g id="edge36_Node000027_Node000023" class="edge">
<title>Node27&#45;&gt;Node23</title>
<g id="a_edge36_Node000027_Node000023"><a xlink:title=" ">
<path fill="none" stroke="#63b8ff" d="M497.57,-430.69C501.79,-428.48 505.75,-425.82 509.25,-422.62 546.96,-388.26 520.93,-358.47 545.25,-313.62 557.87,-290.36 577.44,-267.11 591.62,-251.72"/>
<polygon fill="#63b8ff" stroke="#63b8ff" points="593.9,-254.41 598.21,-244.73 588.8,-249.6 593.9,-254.41"/>
</a>
</g>
</g>
<!-- Node27&#45;&gt;Node25 -->
<g id="edge35_Node000027_Node000025" class="edge">
<title>Node27&#45;&gt;Node25</title>
<g id="a_edge35_Node000027_Node000025"><a xlink:title=" ">
<path fill="none" stroke="#63b8ff" d="M489.86,-430.53C496.58,-428.38 503.19,-425.78 509.25,-422.62 543.93,-404.59 576.01,-371.67 594.06,-351.03"/>
<polygon fill="#63b8ff" stroke="#63b8ff" points="596.52,-353.55 600.35,-343.67 591.19,-349 596.52,-353.55"/>
</a>
</g>
</g>
<!-- Node32&#45;&gt;Node32 -->
<g id="edge43_Node000032_Node000032" class="edge">
<title>Node32&#45;&gt;Node32</title>
<g id="a_edge43_Node000032_Node000032"><a xlink:title=" ">
<path fill="none" stroke="#63b8ff" d="M204.42,-230.36C198.08,-239.43 208.44,-247.88 235.5,-247.88 250.3,-247.88 260.1,-245.35 264.91,-241.58"/>
<polygon fill="#63b8ff" stroke="#63b8ff" points="268.35,-242.26 266.35,-231.86 261.42,-241.24 268.35,-242.26"/>
</a>
</g>
</g>
<!-- Node34 -->
<g id="Node000034" class="node">
<title>Node34</title>
<g id="a_Node000034"><a xlink:href="classjuce_1_1Rectangle.html#af0576a54be467c9c7eb3bd63ea802a26" target="_top" xlink:title=" ">
<polygon fill="white" stroke="#666666" points="494.25,-93.25 365.75,-93.25 365.75,-74 494.25,-74 494.25,-93.25"/>
<text xml:space="preserve" text-anchor="middle" x="430" y="-79.75" font-family="Helvetica,sans-Serif" font-size="10.00">juce::Rectangle::getHeight</text>
</a>
</g>
</g>
<!-- Node33&#45;&gt;Node34 -->
<g id="edge45_Node000033_Node000034" class="edge">
<title>Node33&#45;&gt;Node34</title>
<g id="a_edge45_Node000033_Node000034"><a xlink:title=" ">
<path fill="none" stroke="#63b8ff" d="M285.08,-97.83C306.04,-95.76 331.04,-93.29 354.27,-91"/>
<polygon fill="#63b8ff" stroke="#63b8ff" points="354.4,-94.51 364,-90.04 353.71,-87.54 354.4,-94.51"/>
</a>
</g>
</g>
<!-- Node35 -->
<g id="Node000035" class="node">
<title>Node35</title>
<g id="a_Node000035"><a xlink:href="classjuce_1_1Rectangle.html#a73169c838bc653d9309beedc6618cbfe" target="_top" xlink:title=" ">
<polygon fill="white" stroke="#666666" points="492.38,-56.25 367.62,-56.25 367.62,-37 492.38,-37 492.38,-56.25"/>
<text xml:space="preserve" text-anchor="middle" x="430" y="-42.75" font-family="Helvetica,sans-Serif" font-size="10.00">juce::Rectangle::getWidth</text>
</a>
</g>
</g>
<!-- Node33&#45;&gt;Node35 -->
<g id="edge46_Node000033_Node000035" class="edge">
<title>Node33&#45;&gt;Node35</title>
<g id="a_edge46_Node000033_Node000035"><a xlink:title=" ">
<path fill="none" stroke="#63b8ff" d="M285.1,-88.32C294.96,-85.25 305.22,-81.93 314.75,-78.62 330.97,-72.99 334.34,-69.67 350.75,-64.62 356.81,-62.76 363.19,-60.99 369.58,-59.34"/>
<polygon fill="#63b8ff" stroke="#63b8ff" points="369.96,-62.85 378.82,-57.04 368.27,-56.06 369.96,-62.85"/>
</a>
</g>
</g>
<!-- Node36 -->
<g id="Node000036" class="node">
<title>Node36</title>
<g id="a_Node000036"><a xlink:href="classjuce_1_1Rectangle.html#a30d7087a3d380a470369419fb20f289c" target="_top" xlink:title=" ">
<polygon fill="white" stroke="#666666" points="483.38,-19.25 376.62,-19.25 376.62,0 483.38,0 483.38,-19.25"/>
<text xml:space="preserve" text-anchor="middle" x="430" y="-5.75" font-family="Helvetica,sans-Serif" font-size="10.00">juce::Rectangle::getX</text>
</a>
</g>
</g>
<!-- Node33&#45;&gt;Node36 -->
<g id="edge47_Node000033_Node000036" class="edge">
<title>Node33&#45;&gt;Node36</title>
<g id="a_edge47_Node000033_Node000036"><a xlink:title=" ">
<path fill="none" stroke="#63b8ff" d="M285.18,-93.11C295.55,-89.65 306,-84.96 314.75,-78.62 337.22,-62.35 327.71,-43.09 350.75,-27.62 355.29,-24.58 360.27,-22.05 365.45,-19.94"/>
<polygon fill="#63b8ff" stroke="#63b8ff" points="366.56,-23.26 374.87,-16.68 364.27,-16.64 366.56,-23.26"/>
</a>
</g>
</g>
<!-- Node37 -->
<g id="Node000037" class="node">
<title>Node37</title>
<g id="a_Node000037"><a xlink:href="classjuce_1_1Rectangle.html#ab609583763c1c6b04208143088b124de" target="_top" xlink:title=" ">
<polygon fill="white" stroke="#666666" points="483.38,-130.25 376.62,-130.25 376.62,-111 483.38,-111 483.38,-130.25"/>
<text xml:space="preserve" text-anchor="middle" x="430" y="-116.75" font-family="Helvetica,sans-Serif" font-size="10.00">juce::Rectangle::getY</text>
</a>
</g>
</g>
<!-- Node33&#45;&gt;Node37 -->
<g id="edge48_Node000033_Node000037" class="edge">
<title>Node33&#45;&gt;Node37</title>
<g id="a_edge48_Node000033_Node000037"><a xlink:title=" ">
<path fill="none" stroke="#63b8ff" d="M285.08,-107.17C309.33,-109.44 338.99,-112.21 365.07,-114.65"/>
<polygon fill="#63b8ff" stroke="#63b8ff" points="364.59,-118.12 374.88,-115.56 365.24,-111.15 364.59,-118.12"/>
</a>
</g>
</g>
</g>
</svg>

<g id="navigator" transform="translate(0 0)" fill="#404254">
  <rect fill="#f2f5e9" fill-opacity="0.5" stroke="#606060" stroke-width=".5" x="0" y="0" width="60" height="60"/>
  <use id="zoomplus" xlink:href="#zoomPlus" x="17" y="9" onmousedown="handleZoom(evt,'in')"/>
  <use id="zoomminus" xlink:href="#zoomMin" x="42" y="9" onmousedown="handleZoom(evt,'out')"/>
  <use id="reset" xlink:href="#resetDef" x="30" y="36" onmousedown="handleReset()"/>
   <use id="arrowup" xlink:href="#arrowUp" x="0" y="0" onmousedown="handlePan(0,-1)"/>
  <use id="arrowright" xlink:href="#arrowRight" x="0" y="0" onmousedown="handlePan(1,0)"/>
  <use id="arrowdown" xlink:href="#arrowDown" x="0" y="0" onmousedown="handlePan(0,1)"/>
  <use id="arrowleft" xlink:href="#arrowLeft" x="0" y="0" onmousedown="handlePan(-1,0)"/>
</g>
<svg viewBox="0 0 15 15" width="100%" height="30px" preserveAspectRatio="xMaxYMin meet">
 <g id="arrow_out" transform="scale(0.3 0.3)">
  <a xlink:href="classjuce_1_1TabbedComponent_a3085626294e2ca4214144e7dd3f091a4_cgraph_org.svg" target="_base">
   <rect id="button" ry="5" rx="5" y="6" x="6" height="38" width="38"
        fill="#f2f5e9" fill-opacity="0.5" stroke="#606060" stroke-width="1.0"/>
   <path id="arrow"
     d="M 11.500037,31.436501 C 11.940474,20.09759 22.043105,11.32322 32.158766,21.979434 L 37.068811,17.246167 C 37.068811,17.246167 37.088388,32 37.088388,32 L 22.160133,31.978069 C 22.160133,31.978069 26.997745,27.140456 26.997745,27.140456 C 18.528582,18.264221 13.291696,25.230495 11.500037,31.436501 z"
     style="fill:#404040;"/>
  </a>
 </g>
</svg>

<style type='text/css'>
<![CDATA[
[data-mouse-over-selected='false'] { opacity: 0.7; }
[data-mouse-over-selected='true']  { opacity: 1.0; }
]]>
</style>
<script type="application/ecmascript"><![CDATA[
document.addEventListener('DOMContentLoaded', (event) => {
  highlightEdges();
  highlightAdjacentNodes();
});
]]></script>
</svg>
