<?xml version="1.0" encoding="UTF-8" standalone="no"?>
<!DOCTYPE svg PUBLIC "-//W3C//DTD SVG 1.1//EN"
 "http://www.w3.org/Graphics/SVG/1.1/DTD/svg11.dtd">
<!-- Generated by graphviz version 14.0.2 (0)
 -->
<!-- Title: juce::Rectangle::fromString Pages: 1 -->
<svg width="458pt" height="179pt"
 viewBox="0.00 0.00 458.00 179.00" xmlns="http://www.w3.org/2000/svg" xmlns:xlink="http://www.w3.org/1999/xlink">
<g id="graph0" class="graph" transform="scale(1 1) rotate(0) translate(4 174.88)">
<title>juce::Rectangle::fromString</title>
<!-- Node1 -->
<g id="Node000001" class="node">
<title>Node1</title>
<g id="a_Node000001"><a xlink:title=" ">
<polygon fill="#999999" stroke="#666666" points="131.5,-80.25 0,-80.25 0,-61 131.5,-61 131.5,-80.25"/>
<text xml:space="preserve" text-anchor="middle" x="65.75" y="-66.75" font-family="Helvetica,sans-Serif" font-size="10.00">juce::Rectangle::fromString</text>
</a>
</g>
</g>
<!-- Node2 -->
<g id="Node000002" class="node">
<title>Node2</title>
<g id="a_Node000002"><a xlink:href="classjuce_1_1StringArray.html#af979e313d58f2feb4fb0eb4c427bf2c4" target="_top" xlink:title=" ">
<polygon fill="white" stroke="#666666" points="278,-152.88 187,-152.88 187,-122.38 278,-122.38 278,-152.88"/>
<text xml:space="preserve" text-anchor="start" x="195" y="-139.38" font-family="Helvetica,sans-Serif" font-size="10.00">juce::StringArray::</text>
<text xml:space="preserve" text-anchor="middle" x="232.5" y="-128.12" font-family="Helvetica,sans-Serif" font-size="10.00">addTokens</text>
</a>
</g>
</g>
<!-- Node1&#45;&gt;Node2 -->
<g id="edge1_Node000001_Node000002" class="edge">
<title>Node1&#45;&gt;Node2</title>
<g id="a_edge1_Node000001_Node000002"><a xlink:title=" ">
<path fill="none" stroke="#63b8ff" d="M90.3,-80.62C110.68,-89.23 140.97,-101.91 167.5,-112.62 171.61,-114.29 175.88,-115.99 180.17,-117.69"/>
<polygon fill="#63b8ff" stroke="#63b8ff" points="178.82,-120.92 189.41,-121.34 181.39,-114.41 178.82,-120.92"/>
</a>
</g>
</g>
<!-- Node3 -->
<g id="Node000003" class="node">
<title>Node3</title>
<g id="a_Node000003"><a xlink:href="namespacejuce_1_1detail.html#a1740c416aae5754926ef56bc2fbb43bf" target="_top" xlink:title=" ">
<polygon fill="white" stroke="#666666" points="288.12,-85.88 176.88,-85.88 176.88,-55.38 288.12,-55.38 288.12,-85.88"/>
<text xml:space="preserve" text-anchor="start" x="184.88" y="-72.38" font-family="Helvetica,sans-Serif" font-size="10.00">juce::detail::parseAfter</text>
<text xml:space="preserve" text-anchor="middle" x="232.5" y="-61.12" font-family="Helvetica,sans-Serif" font-size="10.00">Space</text>
</a>
</g>
</g>
<!-- Node1&#45;&gt;Node3 -->
<g id="edge3_Node000001_Node000003" class="edge">
<title>Node1&#45;&gt;Node3</title>
<g id="a_edge3_Node000001_Node000003"><a xlink:title=" ">
<path fill="none" stroke="#63b8ff" d="M131.86,-70.62C142.81,-70.62 154.18,-70.62 165.16,-70.62"/>
<polygon fill="#63b8ff" stroke="#63b8ff" points="164.91,-74.13 174.91,-70.63 164.91,-67.13 164.91,-74.13"/>
</a>
</g>
</g>
<!-- Node5 -->
<g id="Node000005" class="node">
<title>Node5</title>
<g id="a_Node000005"><a xlink:href="classjuce_1_1Rectangle.html#a9b0852de9d45cf8a1b602ce114984ae1" target="_top" xlink:title=" ">
<polygon fill="white" stroke="#666666" points="297.5,-19.25 167.5,-19.25 167.5,0 297.5,0 297.5,-19.25"/>
<text xml:space="preserve" text-anchor="middle" x="232.5" y="-5.75" font-family="Helvetica,sans-Serif" font-size="10.00">juce::Rectangle::Rectangle</text>
</a>
</g>
</g>
<!-- Node1&#45;&gt;Node5 -->
<g id="edge7_Node000001_Node000005" class="edge">
<title>Node1&#45;&gt;Node5</title>
<g id="a_edge7_Node000001_Node000005"><a xlink:title=" ">
<path fill="none" stroke="#63b8ff" d="M93.96,-60.55C121.14,-50.49 163.17,-34.93 193.61,-23.65"/>
<polygon fill="#63b8ff" stroke="#63b8ff" points="194.67,-26.99 202.84,-20.24 192.24,-20.43 194.67,-26.99"/>
</a>
</g>
</g>
<!-- Node2&#45;&gt;Node2 -->
<g id="edge2_Node000002_Node000002" class="edge">
<title>Node2&#45;&gt;Node2</title>
<g id="a_edge2_Node000002_Node000002"><a xlink:title=" ">
<path fill="none" stroke="#63b8ff" d="M204.28,-153.36C198.52,-162.43 207.93,-170.88 232.5,-170.88 245.94,-170.88 254.84,-168.35 259.21,-164.58"/>
<polygon fill="#63b8ff" stroke="#63b8ff" points="262.65,-165.24 260.52,-154.86 255.71,-164.3 262.65,-165.24"/>
</a>
</g>
</g>
<!-- Node3&#45;&gt;Node3 -->
<g id="edge6_Node000003_Node000003" class="edge">
<title>Node3&#45;&gt;Node3</title>
<g id="a_edge6_Node000003_Node000003"><a xlink:title=" ">
<path fill="none" stroke="#63b8ff" d="M204.28,-86.36C198.52,-95.43 207.93,-103.88 232.5,-103.88 245.94,-103.88 254.84,-101.35 259.21,-97.58"/>
<polygon fill="#63b8ff" stroke="#63b8ff" points="262.65,-98.24 260.52,-87.86 255.71,-97.3 262.65,-98.24"/>
</a>
</g>
</g>
<!-- Node4 -->
<g id="Node000004" class="node">
<title>Node4</title>
<g id="a_Node000004"><a xlink:href="namespacejuce_1_1detail.html#ae6d278d918a429922909ce1fa03f7813" target="_top" xlink:title=" ">
<polygon fill="white" stroke="#666666" points="450,-85.88 333.5,-85.88 333.5,-55.38 450,-55.38 450,-85.88"/>
<text xml:space="preserve" text-anchor="start" x="341.5" y="-72.38" font-family="Helvetica,sans-Serif" font-size="10.00">juce::detail::getNumeric</text>
<text xml:space="preserve" text-anchor="middle" x="391.75" y="-61.12" font-family="Helvetica,sans-Serif" font-size="10.00">Value</text>
</a>
</g>
</g>
<!-- Node3&#45;&gt;Node4 -->
<g id="edge4_Node000003_Node000004" class="edge">
<title>Node3&#45;&gt;Node4</title>
<g id="a_edge4_Node000003_Node000004"><a xlink:title=" ">
<path fill="none" stroke="#63b8ff" d="M288.5,-70.62C299.21,-70.62 310.57,-70.62 321.67,-70.62"/>
<polygon fill="#63b8ff" stroke="#63b8ff" points="321.6,-74.13 331.6,-70.63 321.6,-67.13 321.6,-74.13"/>
</a>
</g>
</g>
<!-- Node4&#45;&gt;Node4 -->
<g id="edge5_Node000004_Node000004" class="edge">
<title>Node4&#45;&gt;Node4</title>
<g id="a_edge5_Node000004_Node000004"><a xlink:title=" ">
<path fill="none" stroke="#63b8ff" d="M363.53,-86.36C357.77,-95.43 367.18,-103.88 391.75,-103.88 405.19,-103.88 414.09,-101.35 418.46,-97.58"/>
<polygon fill="#63b8ff" stroke="#63b8ff" points="421.9,-98.24 419.77,-87.86 414.96,-97.3 421.9,-98.24"/>
</a>
</g>
</g>
<!-- Node5&#45;&gt;Node5 -->
<g id="edge8_Node000005_Node000005" class="edge">
<title>Node5&#45;&gt;Node5</title>
<g id="a_edge8_Node000005_Node000005"><a xlink:title=" ">
<path fill="none" stroke="#63b8ff" d="M207.57,-19.54C196.2,-28.15 204.51,-37.25 232.5,-37.25 248.25,-37.25 257.76,-34.37 261.06,-30.32"/>
<polygon fill="#63b8ff" stroke="#63b8ff" points="264.42,-29.34 257.91,-20.97 257.78,-31.57 264.42,-29.34"/>
</a>
</g>
</g>
</g>
</svg>
