<?xml version="1.0" encoding="UTF-8" standalone="no"?>
<!DOCTYPE svg PUBLIC "-//W3C//DTD SVG 1.1//EN"
 "http://www.w3.org/Graphics/SVG/1.1/DTD/svg11.dtd">
<!-- Generated by graphviz version 14.0.2 (0)
 -->
<!-- Title: zyncarla::OscilGen::paste Pages: 1 -->
<svg width="545pt" height="289pt"
 viewBox="0.00 0.00 545.00 289.00" xmlns="http://www.w3.org/2000/svg" xmlns:xlink="http://www.w3.org/1999/xlink">
<g id="graph0" class="graph" transform="scale(1 1) rotate(0) translate(4 284.89)">
<title>zyncarla::OscilGen::paste</title>
<!-- Node1 -->
<g id="Node000001" class="node">
<title>Node1</title>
<g id="a_Node000001"><a xlink:title=" ">
<polygon fill="#999999" stroke="#666666" points="96.25,-92.51 0,-92.51 0,-62.01 96.25,-62.01 96.25,-92.51"/>
<text xml:space="preserve" text-anchor="start" x="8" y="-79.01" font-family="Helvetica,sans-Serif" font-size="10.00">zyncarla::OscilGen</text>
<text xml:space="preserve" text-anchor="middle" x="48.12" y="-67.76" font-family="Helvetica,sans-Serif" font-size="10.00">::paste</text>
</a>
</g>
</g>
<!-- Node2 -->
<g id="Node000002" class="node">
<title>Node2</title>
<g id="a_Node000002"><a xlink:href="classzyncarla_1_1OscilGen.html#a9287f0aa00c6e3b2271d8bf90b42b8a8" target="_top" xlink:title=" ">
<polygon fill="white" stroke="#666666" points="239.75,-203.51 132.25,-203.51 132.25,-173.01 239.75,-173.01 239.75,-203.51"/>
<text xml:space="preserve" text-anchor="start" x="140.25" y="-190.01" font-family="Helvetica,sans-Serif" font-size="10.00">zyncarla::OscilGen</text>
<text xml:space="preserve" text-anchor="middle" x="186" y="-178.76" font-family="Helvetica,sans-Serif" font-size="10.00">::changebasefunction</text>
</a>
</g>
</g>
<!-- Node1&#45;&gt;Node2 -->
<g id="edge1_Node000001_Node000002" class="edge">
<title>Node1&#45;&gt;Node2</title>
<g id="a_edge1_Node000001_Node000002"><a xlink:title=" ">
<path fill="none" stroke="#63b8ff" d="M68.3,-92.93C91.47,-111.85 130.62,-143.83 157.12,-165.48"/>
<polygon fill="#63b8ff" stroke="#63b8ff" points="154.79,-168.1 164.75,-171.71 159.22,-162.68 154.79,-168.1"/>
</a>
</g>
</g>
<!-- Node11 -->
<g id="Node000011" class="node">
<title>Node11</title>
<g id="a_Node000011"><a xlink:href="classzyncarla_1_1OscilGen.html#a206c54f4aeeb03810f7e8daee8c26bff" target="_top" xlink:title=" ">
<polygon fill="white" stroke="#666666" points="234.12,-92.51 137.88,-92.51 137.88,-62.01 234.12,-62.01 234.12,-92.51"/>
<text xml:space="preserve" text-anchor="start" x="145.88" y="-79.01" font-family="Helvetica,sans-Serif" font-size="10.00">zyncarla::OscilGen</text>
<text xml:space="preserve" text-anchor="middle" x="186" y="-67.76" font-family="Helvetica,sans-Serif" font-size="10.00">::OscilGen</text>
</a>
</g>
</g>
<!-- Node1&#45;&gt;Node11 -->
<g id="edge7_Node000001_Node000011" class="edge">
<title>Node1&#45;&gt;Node11</title>
<g id="a_edge7_Node000001_Node000011"><a xlink:title=" ">
<path fill="none" stroke="#63b8ff" d="M96.65,-77.26C106.22,-77.26 116.38,-77.26 126.29,-77.26"/>
<polygon fill="#63b8ff" stroke="#63b8ff" points="126.22,-80.76 136.22,-77.26 126.22,-73.76 126.22,-80.76"/>
</a>
</g>
</g>
<!-- Node13 -->
<g id="Node000013" class="node">
<title>Node13</title>
<g id="a_Node000013"><a xlink:href="classzyncarla_1_1OscilGen.html#a161b04faa0339b7cd6b97df6539fd3fb" target="_top" xlink:title=" ">
<polygon fill="white" stroke="#666666" points="520.75,-54.51 424.5,-54.51 424.5,-24.01 520.75,-24.01 520.75,-54.51"/>
<text xml:space="preserve" text-anchor="start" x="432.5" y="-41.01" font-family="Helvetica,sans-Serif" font-size="10.00">zyncarla::OscilGen</text>
<text xml:space="preserve" text-anchor="middle" x="472.62" y="-29.76" font-family="Helvetica,sans-Serif" font-size="10.00">::prepare</text>
</a>
</g>
</g>
<!-- Node1&#45;&gt;Node13 -->
<g id="edge14_Node000001_Node000013" class="edge">
<title>Node1&#45;&gt;Node13</title>
<g id="a_edge14_Node000001_Node000013"><a xlink:title=" ">
<path fill="none" stroke="#63b8ff" d="M80.98,-61.55C138.65,-35.01 264.36,14.1 372,-4.26 390.09,-7.34 409.26,-13.37 425.9,-19.56"/>
<polygon fill="#63b8ff" stroke="#63b8ff" points="424.43,-22.74 435.02,-23.08 426.95,-16.21 424.43,-22.74"/>
</a>
</g>
</g>
<!-- Node3 -->
<g id="Node000003" class="node">
<title>Node3</title>
<g id="a_Node000003"><a xlink:href="namespacezyncarla.html#a07ecb0942610ca25bd7ae78d0e3a2d71" target="_top" xlink:title=" ">
<polygon fill="white" stroke="#666666" points="516.62,-124.89 428.62,-124.89 428.62,-105.64 516.62,-105.64 516.62,-124.89"/>
<text xml:space="preserve" text-anchor="middle" x="472.62" y="-111.39" font-family="Helvetica,sans-Serif" font-size="10.00">zyncarla::clearAll</text>
</a>
</g>
</g>
<!-- Node2&#45;&gt;Node3 -->
<g id="edge2_Node000002_Node000003" class="edge">
<title>Node2&#45;&gt;Node3</title>
<g id="a_edge2_Node000002_Node000003"><a xlink:title=" ">
<path fill="none" stroke="#63b8ff" d="M240.21,-196.87C277.94,-200.93 329.26,-202.24 372,-188.26 404.93,-177.49 435.97,-151.24 454.4,-133.34"/>
<polygon fill="#63b8ff" stroke="#63b8ff" points="456.73,-135.95 461.31,-126.39 451.78,-131.01 456.73,-135.95"/>
</a>
</g>
</g>
<!-- Node4 -->
<g id="Node000004" class="node">
<title>Node4</title>
<g id="a_Node000004"><a xlink:href="namespacezyncarla.html#a84a4bda2f499ad6261d074db61d6440e" target="_top" xlink:title=" ">
<polygon fill="white" stroke="#666666" points="369,-178.89 278.75,-178.89 278.75,-159.64 369,-159.64 369,-178.89"/>
<text xml:space="preserve" text-anchor="middle" x="323.88" y="-165.39" font-family="Helvetica,sans-Serif" font-size="10.00">zyncarla::clearDC</text>
</a>
</g>
</g>
<!-- Node2&#45;&gt;Node4 -->
<g id="edge3_Node000002_Node000004" class="edge">
<title>Node2&#45;&gt;Node4</title>
<g id="a_edge3_Node000002_Node000004"><a xlink:title=" ">
<path fill="none" stroke="#63b8ff" d="M239.92,-180.86C248.93,-179.6 258.32,-178.29 267.39,-177.02"/>
<polygon fill="#63b8ff" stroke="#63b8ff" points="267.75,-180.5 277.17,-175.65 266.78,-173.57 267.75,-180.5"/>
</a>
</g>
</g>
<!-- Node5 -->
<g id="Node000005" class="node">
<title>Node5</title>
<g id="a_Node000005"><a xlink:href="classzyncarla_1_1OscilGen.html#a5e9d81e4de43b7554bef1098eaf93d52" target="_top" xlink:title=" ">
<polygon fill="white" stroke="#666666" points="372,-265.51 275.75,-265.51 275.75,-235.01 372,-235.01 372,-265.51"/>
<text xml:space="preserve" text-anchor="start" x="283.75" y="-252.01" font-family="Helvetica,sans-Serif" font-size="10.00">zyncarla::OscilGen</text>
<text xml:space="preserve" text-anchor="middle" x="323.88" y="-240.76" font-family="Helvetica,sans-Serif" font-size="10.00">::getbasefunction</text>
</a>
</g>
</g>
<!-- Node2&#45;&gt;Node5 -->
<g id="edge4_Node000002_Node000005" class="edge">
<title>Node2&#45;&gt;Node5</title>
<g id="a_edge4_Node000002_Node000005"><a xlink:title=" ">
<path fill="none" stroke="#63b8ff" d="M221.29,-203.91C238.59,-211.8 259.78,-221.47 278.32,-229.93"/>
<polygon fill="#63b8ff" stroke="#63b8ff" points="276.67,-233.02 287.22,-233.99 279.58,-226.66 276.67,-233.02"/>
</a>
</g>
</g>
<!-- Node6 -->
<g id="Node000006" class="node">
<title>Node6</title>
<g id="a_Node000006"><a xlink:href="namespacezyncarla.html#a0a8fd21e846a3bb6644e09287ebd93fa" target="_top" xlink:title=" ">
<polygon fill="#fff0f0" stroke="red" points="537.25,-280.89 408,-280.89 408,-261.64 537.25,-261.64 537.25,-280.89"/>
<text xml:space="preserve" text-anchor="middle" x="472.62" y="-267.39" font-family="Helvetica,sans-Serif" font-size="10.00">zyncarla::getBaseFunction</text>
</a>
</g>
</g>
<!-- Node5&#45;&gt;Node6 -->
<g id="edge5_Node000005_Node000006" class="edge">
<title>Node5&#45;&gt;Node6</title>
<g id="a_edge5_Node000005_Node000006"><a xlink:title=" ">
<path fill="none" stroke="#63b8ff" d="M372.12,-257.02C379.89,-258.13 388.12,-259.31 396.38,-260.49"/>
<polygon fill="#63b8ff" stroke="#63b8ff" points="395.73,-263.93 406.12,-261.89 396.72,-257.01 395.73,-263.93"/>
</a>
</g>
</g>
<!-- Node8 -->
<g id="Node000008" class="node">
<title>Node8</title>
<g id="a_Node000008"><a xlink:href="classzyncarla_1_1OscilGen.html#ab0af7fec109e6aac05090180758ca9ab" target="_top" xlink:title=" ">
<polygon fill="#fff0f0" stroke="red" points="520.75,-243.51 424.5,-243.51 424.5,-213.01 520.75,-213.01 520.75,-243.51"/>
<text xml:space="preserve" text-anchor="start" x="432.5" y="-230.01" font-family="Helvetica,sans-Serif" font-size="10.00">zyncarla::OscilGen</text>
<text xml:space="preserve" text-anchor="middle" x="472.62" y="-218.76" font-family="Helvetica,sans-Serif" font-size="10.00">::userfunc</text>
</a>
</g>
</g>
<!-- Node5&#45;&gt;Node8 -->
<g id="edge6_Node000005_Node000008" class="edge">
<title>Node5&#45;&gt;Node8</title>
<g id="a_edge6_Node000005_Node000008"><a xlink:title=" ">
<path fill="none" stroke="#63b8ff" d="M372.12,-243.18C385.14,-241.23 399.43,-239.08 413.02,-237.05"/>
<polygon fill="#63b8ff" stroke="#63b8ff" points="413.35,-240.53 422.72,-235.59 412.32,-233.61 413.35,-240.53"/>
</a>
</g>
</g>
<!-- Node12 -->
<g id="Node000012" class="node">
<title>Node12</title>
<g id="a_Node000012"><a xlink:href="classzyncarla_1_1OscilGen.html#a1518c3791dd4329ee3acb9c22b894263" target="_top" xlink:title=" ">
<polygon fill="white" stroke="#666666" points="372,-92.51 275.75,-92.51 275.75,-62.01 372,-62.01 372,-92.51"/>
<text xml:space="preserve" text-anchor="start" x="283.75" y="-79.01" font-family="Helvetica,sans-Serif" font-size="10.00">zyncarla::OscilGen</text>
<text xml:space="preserve" text-anchor="middle" x="323.88" y="-67.76" font-family="Helvetica,sans-Serif" font-size="10.00">::defaults</text>
</a>
</g>
</g>
<!-- Node11&#45;&gt;Node12 -->
<g id="edge8_Node000011_Node000012" class="edge">
<title>Node11&#45;&gt;Node12</title>
<g id="a_edge8_Node000011_Node000012"><a xlink:title=" ">
<path fill="none" stroke="#63b8ff" d="M234.52,-77.26C244.09,-77.26 254.26,-77.26 264.16,-77.26"/>
<polygon fill="#63b8ff" stroke="#63b8ff" points="264.1,-80.76 274.1,-77.26 264.1,-73.76 264.1,-80.76"/>
</a>
</g>
</g>
<!-- Node14 -->
<g id="Node000014" class="node">
<title>Node14</title>
<g id="a_Node000014"><a xlink:href="classzyncarla_1_1Presets.html#a05fca4076bdfaef5c26b9c1bf35e68df" target="_top" xlink:title=" ">
<polygon fill="white" stroke="#666666" points="370.88,-43.51 276.88,-43.51 276.88,-13.01 370.88,-13.01 370.88,-43.51"/>
<text xml:space="preserve" text-anchor="start" x="284.88" y="-30.01" font-family="Helvetica,sans-Serif" font-size="10.00">zyncarla::Presets::</text>
<text xml:space="preserve" text-anchor="middle" x="323.88" y="-18.76" font-family="Helvetica,sans-Serif" font-size="10.00">Presets</text>
</a>
</g>
</g>
<!-- Node11&#45;&gt;Node14 -->
<g id="edge12_Node000011_Node000014" class="edge">
<title>Node11&#45;&gt;Node14</title>
<g id="a_edge12_Node000011_Node000014"><a xlink:title=" ">
<path fill="none" stroke="#63b8ff" d="M230.37,-61.62C242.62,-57.2 256.11,-52.34 268.91,-47.72"/>
<polygon fill="#63b8ff" stroke="#63b8ff" points="269.81,-51.12 278.03,-44.43 267.44,-44.53 269.81,-51.12"/>
</a>
</g>
</g>
<!-- Node15 -->
<g id="Node000015" class="node">
<title>Node15</title>
<g id="a_Node000015"><a xlink:href="classzyncarla_1_1Presets.html#a460e4a2c824700d625aa8cbbda858ba9" target="_top" xlink:title=" ">
<polygon fill="white" stroke="#666666" points="370.88,-141.51 276.88,-141.51 276.88,-111.01 370.88,-111.01 370.88,-141.51"/>
<text xml:space="preserve" text-anchor="start" x="284.88" y="-128.01" font-family="Helvetica,sans-Serif" font-size="10.00">zyncarla::Presets::</text>
<text xml:space="preserve" text-anchor="middle" x="323.88" y="-116.76" font-family="Helvetica,sans-Serif" font-size="10.00">setpresettype</text>
</a>
</g>
</g>
<!-- Node11&#45;&gt;Node15 -->
<g id="edge13_Node000011_Node000015" class="edge">
<title>Node11&#45;&gt;Node15</title>
<g id="a_edge13_Node000011_Node000015"><a xlink:title=" ">
<path fill="none" stroke="#63b8ff" d="M230.37,-92.9C242.62,-97.32 256.11,-102.18 268.91,-106.8"/>
<polygon fill="#63b8ff" stroke="#63b8ff" points="267.44,-109.99 278.03,-110.09 269.81,-103.4 267.44,-109.99"/>
</a>
</g>
</g>
<!-- Node12&#45;&gt;Node3 -->
<g id="edge9_Node000012_Node000003" class="edge">
<title>Node12&#45;&gt;Node3</title>
<g id="a_edge9_Node000012_Node000003"><a xlink:title=" ">
<path fill="none" stroke="#63b8ff" d="M372.12,-89.49C388.05,-93.62 405.87,-98.23 421.98,-102.4"/>
<polygon fill="#63b8ff" stroke="#63b8ff" points="420.79,-105.71 431.35,-104.83 422.54,-98.94 420.79,-105.71"/>
</a>
</g>
</g>
<!-- Node12&#45;&gt;Node13 -->
<g id="edge10_Node000012_Node000013" class="edge">
<title>Node12&#45;&gt;Node13</title>
<g id="a_edge10_Node000012_Node000013"><a xlink:title=" ">
<path fill="none" stroke="#63b8ff" d="M372.12,-65.03C385.27,-61.62 399.72,-57.88 413.43,-54.33"/>
<polygon fill="#63b8ff" stroke="#63b8ff" points="413.95,-57.81 422.76,-51.91 412.2,-51.03 413.95,-57.81"/>
</a>
</g>
</g>
<!-- Node13&#45;&gt;Node13 -->
<g id="edge11_Node000013_Node000013" class="edge">
<title>Node13&#45;&gt;Node13</title>
<g id="a_edge11_Node000013_Node000013"><a xlink:title=" ">
<path fill="none" stroke="#63b8ff" d="M446.27,-55C440.89,-64.07 449.67,-72.51 472.62,-72.51 485.18,-72.51 493.49,-69.98 497.57,-66.21"/>
<polygon fill="#63b8ff" stroke="#63b8ff" points="501.02,-66.86 498.79,-56.5 494.07,-65.98 501.02,-66.86"/>
</a>
</g>
</g>
</g>
</svg>
