<?xml version="1.0" encoding="UTF-8" standalone="no"?>
<!DOCTYPE svg PUBLIC "-//W3C//DTD SVG 1.1//EN"
 "http://www.w3.org/Graphics/SVG/1.1/DTD/svg11.dtd">
<!-- Generated by graphviz version 14.0.2 (0)
 -->
<!-- Title: CAdPlug::factory Pages: 1 -->
<svg width="252pt" height="156pt"
 viewBox="0.00 0.00 252.00 156.00" xmlns="http://www.w3.org/2000/svg" xmlns:xlink="http://www.w3.org/1999/xlink">
<g id="graph0" class="graph" transform="scale(1 1) rotate(0) translate(4 152.25)">
<title>CAdPlug::factory</title>
<!-- Node1 -->
<g id="Node000001" class="node">
<title>Node1</title>
<g id="a_Node000001"><a xlink:title=" ">
<polygon fill="#999999" stroke="#666666" points="88,-83.25 0,-83.25 0,-64 88,-64 88,-83.25"/>
<text xml:space="preserve" text-anchor="middle" x="44" y="-69.75" font-family="Helvetica,sans-Serif" font-size="10.00">CAdPlug::factory</text>
</a>
</g>
</g>
<!-- Node2 -->
<g id="Node000002" class="node">
<title>Node2</title>
<g id="a_Node000002"><a xlink:href="debug_8h.html#a1609b3f679e356ada9f4312b24dc9173" target="_top" xlink:title=" ">
<polygon fill="white" stroke="#666666" points="230,-148.25 138.25,-148.25 138.25,-129 230,-129 230,-148.25"/>
<text xml:space="preserve" text-anchor="middle" x="184.12" y="-134.75" font-family="Helvetica,sans-Serif" font-size="10.00">AdPlug_LogWrite</text>
</a>
</g>
</g>
<!-- Node1&#45;&gt;Node2 -->
<g id="edge1_Node000001_Node000002" class="edge">
<title>Node1&#45;&gt;Node2</title>
<g id="a_edge1_Node000001_Node000002"><a xlink:title=" ">
<path fill="none" stroke="#63b8ff" d="M59.28,-83.56C74.69,-93.93 100.21,-110.11 124,-120.62 127.34,-122.1 130.83,-123.5 134.38,-124.82"/>
<polygon fill="#63b8ff" stroke="#63b8ff" points="133.07,-128.07 143.67,-128.04 135.36,-121.46 133.07,-128.07"/>
</a>
</g>
</g>
<!-- Node3 -->
<g id="Node000003" class="node">
<title>Node3</title>
<g id="a_Node000003"><a xlink:href="classCAdPlug.html#ae1ef8950e4cc26647cba74fa2a238ac5" target="_top" xlink:title=" ">
<polygon fill="white" stroke="#666666" points="230.38,-111.25 137.88,-111.25 137.88,-92 230.38,-92 230.38,-111.25"/>
<text xml:space="preserve" text-anchor="middle" x="184.12" y="-97.75" font-family="Helvetica,sans-Serif" font-size="10.00">CAdPlug::CPlayer</text>
</a>
</g>
</g>
<!-- Node1&#45;&gt;Node3 -->
<g id="edge2_Node000001_Node000003" class="edge">
<title>Node1&#45;&gt;Node3</title>
<g id="a_edge2_Node000001_Node000003"><a xlink:title=" ">
<path fill="none" stroke="#63b8ff" d="M88.32,-82.41C100.44,-84.86 113.79,-87.57 126.55,-90.16"/>
<polygon fill="#63b8ff" stroke="#63b8ff" points="125.59,-93.53 136.08,-92.09 126.98,-86.67 125.59,-93.53"/>
</a>
</g>
</g>
<!-- Node4 -->
<g id="Node000004" class="node">
<title>Node4</title>
<g id="a_Node000004"><a xlink:href="classCFileProvider.html#a01c4cd270752342a32fdf7962abaaa15" target="_top" xlink:title=" ">
<polygon fill="white" stroke="#666666" points="244.25,-56.25 124,-56.25 124,-37 244.25,-37 244.25,-56.25"/>
<text xml:space="preserve" text-anchor="middle" x="184.12" y="-42.75" font-family="Helvetica,sans-Serif" font-size="10.00">CFileProvider::extension</text>
</a>
</g>
</g>
<!-- Node1&#45;&gt;Node4 -->
<g id="edge3_Node000001_Node000004" class="edge">
<title>Node1&#45;&gt;Node4</title>
<g id="a_edge3_Node000001_Node000004"><a xlink:title=" ">
<path fill="none" stroke="#63b8ff" d="M88.32,-65.16C98.54,-63.16 109.64,-60.99 120.51,-58.86"/>
<polygon fill="#63b8ff" stroke="#63b8ff" points="121.1,-62.32 130.24,-56.96 119.76,-55.45 121.1,-62.32"/>
</a>
</g>
</g>
<!-- Node5 -->
<g id="Node000005" class="node">
<title>Node5</title>
<g id="a_Node000005"><a xlink:href="classCPlayer.html#a32571dbc531981b228a5d663395b3286" target="_top" xlink:title=" ">
<polygon fill="white" stroke="#666666" points="220.25,-19.25 148,-19.25 148,0 220.25,0 220.25,-19.25"/>
<text xml:space="preserve" text-anchor="middle" x="184.12" y="-5.75" font-family="Helvetica,sans-Serif" font-size="10.00">CPlayer::load</text>
</a>
</g>
</g>
<!-- Node1&#45;&gt;Node5 -->
<g id="edge5_Node000001_Node000005" class="edge">
<title>Node1&#45;&gt;Node5</title>
<g id="a_edge5_Node000001_Node000005"><a xlink:title=" ">
<path fill="none" stroke="#63b8ff" d="M59.89,-63.54C75.37,-53.4 100.58,-37.84 124,-27.62 128.09,-25.84 132.41,-24.16 136.77,-22.6"/>
<polygon fill="#63b8ff" stroke="#63b8ff" points="137.82,-25.94 146.19,-19.45 135.6,-19.31 137.82,-25.94"/>
</a>
</g>
</g>
<!-- Node4&#45;&gt;Node4 -->
<g id="edge4_Node000004_Node000004" class="edge">
<title>Node4&#45;&gt;Node4</title>
<g id="a_edge4_Node000004_Node000004"><a xlink:title=" ">
<path fill="none" stroke="#63b8ff" d="M162.19,-56.54C152.18,-65.15 159.49,-74.25 184.12,-74.25 197.6,-74.25 205.89,-71.53 209,-67.65"/>
<polygon fill="#63b8ff" stroke="#63b8ff" points="212.39,-66.78 206.45,-58 205.62,-68.56 212.39,-66.78"/>
</a>
</g>
</g>
</g>
</svg>
