<?xml version="1.0" encoding="UTF-8" standalone="no"?>
<!DOCTYPE svg PUBLIC "-//W3C//DTD SVG 1.1//EN"
 "http://www.w3.org/Graphics/SVG/1.1/DTD/svg11.dtd">
<!-- Generated by graphviz version 14.0.2 (0)
 -->
<!-- Title: juce::ScrollBar::mouseDown Pages: 1 -->
<svg width="1166pt" height="359pt"
 viewBox="0.00 0.00 1166.00 359.00" xmlns="http://www.w3.org/2000/svg" xmlns:xlink="http://www.w3.org/1999/xlink">
<g id="graph0" class="graph" transform="scale(1 1) rotate(0) translate(4 354.88)">
<title>juce::ScrollBar::mouseDown</title>
<!-- Node1 -->
<g id="Node000001" class="node">
<title>Node1</title>
<g id="a_Node000001"><a xlink:title=" ">
<polygon fill="#999999" stroke="#666666" points="136.75,-204.88 0,-204.88 0,-185.62 136.75,-185.62 136.75,-204.88"/>
<text xml:space="preserve" text-anchor="middle" x="68.38" y="-191.38" font-family="Helvetica,sans-Serif" font-size="10.00">juce::ScrollBar::mouseDown</text>
</a>
</g>
</g>
<!-- Node1&#45;&gt;Node1 -->
<g id="edge9_Node000001_Node000001" class="edge">
<title>Node1&#45;&gt;Node1</title>
<g id="a_edge9_Node000001_Node000001"><a xlink:title=" ">
<path fill="none" stroke="#63b8ff" d="M40.68,-205.16C28.05,-213.77 37.28,-222.88 68.38,-222.88 85.86,-222.88 96.44,-219.99 100.09,-215.94"/>
<polygon fill="#63b8ff" stroke="#63b8ff" points="103.37,-214.72 96.6,-206.58 96.81,-217.17 103.37,-214.72"/>
</a>
</g>
</g>
<!-- Node2 -->
<g id="Node000002" class="node">
<title>Node2</title>
<g id="a_Node000002"><a xlink:href="classjuce_1_1Component.html#ad55f2def99fd7d05f6a71ef505e1a43b" target="_top" xlink:title=" ">
<polygon fill="white" stroke="#666666" points="838.25,-307.5 710.5,-307.5 710.5,-277 838.25,-277 838.25,-307.5"/>
<text xml:space="preserve" text-anchor="start" x="718.5" y="-294" font-family="Helvetica,sans-Serif" font-size="10.00">juce::Component::getLook</text>
<text xml:space="preserve" text-anchor="middle" x="774.38" y="-282.75" font-family="Helvetica,sans-Serif" font-size="10.00">AndFeel</text>
</a>
</g>
</g>
<!-- Node1&#45;&gt;Node2 -->
<g id="edge1_Node000001_Node000002" class="edge">
<title>Node1&#45;&gt;Node2</title>
<g id="a_edge1_Node000001_Node000002"><a xlink:title=" ">
<path fill="none" stroke="#63b8ff" d="M90.31,-205.22C110.88,-214.66 143.38,-228.64 172.75,-237.25 388.65,-300.51 449.93,-317.83 674.5,-304.25 682.45,-303.77 690.74,-303.07 698.99,-302.25"/>
<polygon fill="#63b8ff" stroke="#63b8ff" points="699.1,-305.76 708.68,-301.23 698.36,-298.8 699.1,-305.76"/>
</a>
</g>
</g>
<!-- Node11 -->
<g id="Node000011" class="node">
<title>Node11</title>
<g id="a_Node000011"><a xlink:href="classjuce_1_1ScrollBar.html#a1d9e568af264d9e45b3373d2d9b4d0bb" target="_top" xlink:title=" ">
<polygon fill="white" stroke="#666666" points="317.75,-210.5 172.75,-210.5 172.75,-180 317.75,-180 317.75,-210.5"/>
<text xml:space="preserve" text-anchor="start" x="180.75" y="-197" font-family="Helvetica,sans-Serif" font-size="10.00">juce::ScrollBar::moveScrollbar</text>
<text xml:space="preserve" text-anchor="middle" x="245.25" y="-185.75" font-family="Helvetica,sans-Serif" font-size="10.00">InPages</text>
</a>
</g>
</g>
<!-- Node1&#45;&gt;Node11 -->
<g id="edge10_Node000001_Node000011" class="edge">
<title>Node1&#45;&gt;Node11</title>
<g id="a_edge10_Node000001_Node000011"><a xlink:title=" ">
<path fill="none" stroke="#63b8ff" d="M137.24,-195.25C145.07,-195.25 153.12,-195.25 161.12,-195.25"/>
<polygon fill="#63b8ff" stroke="#63b8ff" points="160.86,-198.75 170.86,-195.25 160.86,-191.75 160.86,-198.75"/>
</a>
</g>
</g>
<!-- Node58 -->
<g id="Node000058" class="node">
<title>Node58</title>
<g id="a_Node000058"><a xlink:href="classjuce_1_1Timer.html#acb43e06d5742106830080af3d50b422d" target="_top" xlink:title=" ">
<polygon fill="white" stroke="#666666" points="301.25,-102.88 189.25,-102.88 189.25,-83.62 301.25,-83.62 301.25,-102.88"/>
<text xml:space="preserve" text-anchor="middle" x="245.25" y="-89.38" font-family="Helvetica,sans-Serif" font-size="10.00">juce::Timer::startTimer</text>
</a>
</g>
</g>
<!-- Node1&#45;&gt;Node58 -->
<g id="edge22_Node000001_Node000058" class="edge">
<title>Node1&#45;&gt;Node58</title>
<g id="a_edge22_Node000001_Node000058"><a xlink:title=" ">
<path fill="none" stroke="#63b8ff" d="M86.46,-185.28C116.89,-167.54 180.69,-130.32 217.15,-109.06"/>
<polygon fill="#63b8ff" stroke="#63b8ff" points="218.91,-112.08 225.79,-104.02 215.39,-106.03 218.91,-112.08"/>
</a>
</g>
</g>
<!-- Node2&#45;&gt;Node2 -->
<g id="edge8_Node000002_Node000002" class="edge">
<title>Node2&#45;&gt;Node2</title>
<g id="a_edge8_Node000002_Node000002"><a xlink:title=" ">
<path fill="none" stroke="#63b8ff" d="M746.22,-307.99C740.48,-317.06 749.86,-325.5 774.38,-325.5 787.78,-325.5 796.66,-322.97 801.02,-319.2"/>
<polygon fill="#63b8ff" stroke="#63b8ff" points="804.46,-319.86 802.33,-309.49 797.52,-318.93 804.46,-319.86"/>
</a>
</g>
</g>
<!-- Node3 -->
<g id="Node000003" class="node">
<title>Node3</title>
<g id="a_Node000003"><a xlink:href="classjuce_1_1LookAndFeel.html#a02a1038087637804ca8e15a3a672059e" target="_top" xlink:title=" ">
<polygon fill="white" stroke="#666666" points="992.25,-307.5 874.25,-307.5 874.25,-277 992.25,-277 992.25,-307.5"/>
<text xml:space="preserve" text-anchor="start" x="882.25" y="-294" font-family="Helvetica,sans-Serif" font-size="10.00">juce::LookAndFeel::</text>
<text xml:space="preserve" text-anchor="middle" x="933.25" y="-282.75" font-family="Helvetica,sans-Serif" font-size="10.00">getDefaultLookAndFeel</text>
</a>
</g>
</g>
<!-- Node2&#45;&gt;Node3 -->
<g id="edge2_Node000002_Node000003" class="edge">
<title>Node2&#45;&gt;Node3</title>
<g id="a_edge2_Node000002_Node000003"><a xlink:title=" ">
<path fill="none" stroke="#63b8ff" d="M838.73,-292.25C846.56,-292.25 854.59,-292.25 862.51,-292.25"/>
<polygon fill="#63b8ff" stroke="#63b8ff" points="862.47,-295.75 872.47,-292.25 862.47,-288.75 862.47,-295.75"/>
</a>
</g>
</g>
<!-- Node3&#45;&gt;Node3 -->
<g id="edge3_Node000003_Node000003" class="edge">
<title>Node3&#45;&gt;Node3</title>
<g id="a_edge3_Node000003_Node000003"><a xlink:title=" ">
<path fill="none" stroke="#63b8ff" d="M905.1,-307.99C899.35,-317.06 908.74,-325.5 933.25,-325.5 946.66,-325.5 955.54,-322.97 959.89,-319.2"/>
<polygon fill="#63b8ff" stroke="#63b8ff" points="963.34,-319.86 961.2,-309.49 956.4,-318.93 963.34,-319.86"/>
</a>
</g>
</g>
<!-- Node4 -->
<g id="Node000004" class="node">
<title>Node4</title>
<g id="a_Node000004"><a xlink:href="classjuce_1_1Desktop.html#a9adf64fbbd6f9740c0272f50bee5342c" target="_top" xlink:title=" ">
<polygon fill="#fff0f0" stroke="red" points="1158.25,-332.88 1028.25,-332.88 1028.25,-313.62 1158.25,-313.62 1158.25,-332.88"/>
<text xml:space="preserve" text-anchor="middle" x="1093.25" y="-319.38" font-family="Helvetica,sans-Serif" font-size="10.00">juce::Desktop::getInstance</text>
</a>
</g>
</g>
<!-- Node3&#45;&gt;Node4 -->
<g id="edge4_Node000003_Node000004" class="edge">
<title>Node3&#45;&gt;Node4</title>
<g id="a_edge4_Node000003_Node000004"><a xlink:title=" ">
<path fill="none" stroke="#63b8ff" d="M992.63,-303.71C1004.75,-306.08 1017.56,-308.6 1029.81,-311"/>
<polygon fill="#63b8ff" stroke="#63b8ff" points="1028.9,-314.39 1039.39,-312.88 1030.25,-307.52 1028.9,-314.39"/>
</a>
</g>
</g>
<!-- Node9 -->
<g id="Node000009" class="node">
<title>Node9</title>
<g id="a_Node000009"><a xlink:href="classjuce_1_1LookAndFeel.html#a0c8dd553893177c312c12fc12b8a6dce" target="_top" xlink:title=" ">
<polygon fill="#fff0f0" stroke="red" points="1143.62,-277.5 1042.88,-277.5 1042.88,-247 1143.62,-247 1143.62,-277.5"/>
<text xml:space="preserve" text-anchor="start" x="1050.88" y="-264" font-family="Helvetica,sans-Serif" font-size="10.00">juce::LookAndFeel::</text>
<text xml:space="preserve" text-anchor="middle" x="1093.25" y="-252.75" font-family="Helvetica,sans-Serif" font-size="10.00">LookAndFeel</text>
</a>
</g>
</g>
<!-- Node3&#45;&gt;Node9 -->
<g id="edge6_Node000003_Node000009" class="edge">
<title>Node3&#45;&gt;Node9</title>
<g id="a_edge6_Node000003_Node000009"><a xlink:title=" ">
<path fill="none" stroke="#63b8ff" d="M992.63,-281.16C1005.28,-278.76 1018.68,-276.22 1031.42,-273.8"/>
<polygon fill="#63b8ff" stroke="#63b8ff" points="1031.75,-277.3 1040.92,-272 1030.44,-270.42 1031.75,-277.3"/>
</a>
</g>
</g>
<!-- Node4&#45;&gt;Node4 -->
<g id="edge5_Node000004_Node000004" class="edge">
<title>Node4&#45;&gt;Node4</title>
<g id="a_edge5_Node000004_Node000004"><a xlink:title=" ">
<path fill="none" stroke="#63b8ff" d="M1068.2,-333.16C1056.78,-341.77 1065.12,-350.88 1093.25,-350.88 1109.07,-350.88 1118.63,-347.99 1121.94,-343.94"/>
<polygon fill="#63b8ff" stroke="#63b8ff" points="1125.3,-342.95 1118.78,-334.6 1118.67,-345.19 1125.3,-342.95"/>
</a>
</g>
</g>
<!-- Node9&#45;&gt;Node9 -->
<g id="edge7_Node000009_Node000009" class="edge">
<title>Node9&#45;&gt;Node9</title>
<g id="a_edge7_Node000009_Node000009"><a xlink:title=" ">
<path fill="none" stroke="#63b8ff" d="M1064.9,-277.99C1059.11,-287.06 1068.56,-295.5 1093.25,-295.5 1106.75,-295.5 1115.7,-292.97 1120.08,-289.2"/>
<polygon fill="#63b8ff" stroke="#63b8ff" points="1123.52,-289.87 1121.4,-279.49 1116.59,-288.93 1123.52,-289.87"/>
</a>
</g>
</g>
<!-- Node11&#45;&gt;Node11 -->
<g id="edge11_Node000011_Node000011" class="edge">
<title>Node11&#45;&gt;Node11</title>
<g id="a_edge11_Node000011_Node000011"><a xlink:title=" ">
<path fill="none" stroke="#63b8ff" d="M213.91,-210.99C207.51,-220.06 217.96,-228.5 245.25,-228.5 260.17,-228.5 270.06,-225.97 274.91,-222.2"/>
<polygon fill="#63b8ff" stroke="#63b8ff" points="278.35,-222.89 276.37,-212.48 271.43,-221.85 278.35,-222.89"/>
</a>
</g>
</g>
<!-- Node12 -->
<g id="Node000012" class="node">
<title>Node12</title>
<g id="a_Node000012"><a xlink:href="classjuce_1_1ScrollBar.html#a2c3a3dbad65bbe0c494dbb335d8f656c" target="_top" xlink:title=" ">
<polygon fill="white" stroke="#666666" points="489,-210.5 361.25,-210.5 361.25,-180 489,-180 489,-210.5"/>
<text xml:space="preserve" text-anchor="start" x="369.25" y="-197" font-family="Helvetica,sans-Serif" font-size="10.00">juce::ScrollBar::setCurrent</text>
<text xml:space="preserve" text-anchor="middle" x="425.12" y="-185.75" font-family="Helvetica,sans-Serif" font-size="10.00">Range</text>
</a>
</g>
</g>
<!-- Node11&#45;&gt;Node12 -->
<g id="edge12_Node000011_Node000012" class="edge">
<title>Node11&#45;&gt;Node12</title>
<g id="a_edge12_Node000011_Node000012"><a xlink:title=" ">
<path fill="none" stroke="#63b8ff" d="M318.09,-195.25C328.49,-195.25 339.23,-195.25 349.69,-195.25"/>
<polygon fill="#63b8ff" stroke="#63b8ff" points="349.39,-198.75 359.39,-195.25 349.39,-191.75 349.39,-198.75"/>
</a>
</g>
</g>
<!-- Node12&#45;&gt;Node12 -->
<g id="edge15_Node000012_Node000012" class="edge">
<title>Node12&#45;&gt;Node12</title>
<g id="a_edge15_Node000012_Node000012"><a xlink:title=" ">
<path fill="none" stroke="#63b8ff" d="M393.52,-210.99C387.07,-220.06 397.6,-228.5 425.12,-228.5 440.18,-228.5 450.15,-225.97 455.04,-222.2"/>
<polygon fill="#63b8ff" stroke="#63b8ff" points="458.47,-222.89 456.51,-212.48 451.55,-221.85 458.47,-222.89"/>
</a>
</g>
</g>
<!-- Node13 -->
<g id="Node000013" class="node">
<title>Node13</title>
<g id="a_Node000013"><a xlink:href="classjuce_1_1AsyncUpdater.html#a466a04a16ea40482a18fa30b99d19d98" target="_top" xlink:title=" ">
<polygon fill="#fff0f0" stroke="red" points="673.75,-210.5 533.25,-210.5 533.25,-180 673.75,-180 673.75,-210.5"/>
<text xml:space="preserve" text-anchor="start" x="541.25" y="-197" font-family="Helvetica,sans-Serif" font-size="10.00">juce::AsyncUpdater</text>
<text xml:space="preserve" text-anchor="middle" x="603.5" y="-185.75" font-family="Helvetica,sans-Serif" font-size="10.00">::handleUpdateNowIfNeeded</text>
</a>
</g>
</g>
<!-- Node12&#45;&gt;Node13 -->
<g id="edge13_Node000012_Node000013" class="edge">
<title>Node12&#45;&gt;Node13</title>
<g id="a_edge13_Node000012_Node000013"><a xlink:title=" ">
<path fill="none" stroke="#63b8ff" d="M489.3,-195.25C499.79,-195.25 510.8,-195.25 521.65,-195.25"/>
<polygon fill="#63b8ff" stroke="#63b8ff" points="521.37,-198.75 531.37,-195.25 521.37,-191.75 521.37,-198.75"/>
</a>
</g>
</g>
<!-- Node15 -->
<g id="Node000015" class="node">
<title>Node15</title>
<g id="a_Node000015"><a xlink:href="classjuce_1_1AsyncUpdater.html#ad0efdd9d03210cede6c6a7886519cf31" target="_top" xlink:title=" ">
<polygon fill="white" stroke="#666666" points="827.38,-101.5 721.38,-101.5 721.38,-71 827.38,-71 827.38,-101.5"/>
<text xml:space="preserve" text-anchor="start" x="729.38" y="-88" font-family="Helvetica,sans-Serif" font-size="10.00">juce::AsyncUpdater</text>
<text xml:space="preserve" text-anchor="middle" x="774.38" y="-76.75" font-family="Helvetica,sans-Serif" font-size="10.00">::triggerAsyncUpdate</text>
</a>
</g>
</g>
<!-- Node12&#45;&gt;Node15 -->
<g id="edge16_Node000012_Node000015" class="edge">
<title>Node12&#45;&gt;Node15</title>
<g id="a_edge16_Node000012_Node000015"><a xlink:title=" ">
<path fill="none" stroke="#63b8ff" d="M476.25,-179.52C538.7,-159.91 645.34,-126.44 712.44,-105.38"/>
<polygon fill="#63b8ff" stroke="#63b8ff" points="713.33,-108.77 721.82,-102.43 711.23,-102.09 713.33,-108.77"/>
</a>
</g>
</g>
<!-- Node16 -->
<g id="Node000016" class="node">
<title>Node16</title>
<g id="a_Node000016"><a xlink:href="classjuce_1_1ScrollBar.html#a3ff2cb8784136bc1fd4f945e2b7feac2" target="_top" xlink:title=" ">
<polygon fill="#fff0f0" stroke="red" points="674.5,-277.5 532.5,-277.5 532.5,-247 674.5,-247 674.5,-277.5"/>
<text xml:space="preserve" text-anchor="start" x="540.5" y="-264" font-family="Helvetica,sans-Serif" font-size="10.00">juce::ScrollBar::updateThumb</text>
<text xml:space="preserve" text-anchor="middle" x="603.5" y="-252.75" font-family="Helvetica,sans-Serif" font-size="10.00">Position</text>
</a>
</g>
</g>
<!-- Node12&#45;&gt;Node16 -->
<g id="edge18_Node000012_Node000016" class="edge">
<title>Node12&#45;&gt;Node16</title>
<g id="a_edge18_Node000012_Node000016"><a xlink:title=" ">
<path fill="none" stroke="#63b8ff" d="M464.91,-210.92C485.02,-218.95 510.01,-228.8 532.5,-237.25 537.38,-239.08 542.46,-240.96 547.55,-242.82"/>
<polygon fill="#63b8ff" stroke="#63b8ff" points="545.97,-245.97 556.56,-246.08 548.35,-239.39 545.97,-245.97"/>
</a>
</g>
</g>
<!-- Node13&#45;&gt;Node13 -->
<g id="edge14_Node000013_Node000013" class="edge">
<title>Node13&#45;&gt;Node13</title>
<g id="a_edge14_Node000013_Node000013"><a xlink:title=" ">
<path fill="none" stroke="#63b8ff" d="M573.22,-210.99C567.04,-220.06 577.13,-228.5 603.5,-228.5 617.92,-228.5 627.47,-225.97 632.16,-222.2"/>
<polygon fill="#63b8ff" stroke="#63b8ff" points="635.59,-222.88 633.56,-212.48 628.67,-221.88 635.59,-222.88"/>
</a>
</g>
</g>
<!-- Node15&#45;&gt;Node15 -->
<g id="edge17_Node000015_Node000015" class="edge">
<title>Node15&#45;&gt;Node15</title>
<g id="a_edge17_Node000015_Node000015"><a xlink:title=" ">
<path fill="none" stroke="#63b8ff" d="M746.22,-101.99C740.48,-111.06 749.86,-119.5 774.38,-119.5 787.78,-119.5 796.66,-116.97 801.02,-113.2"/>
<polygon fill="#63b8ff" stroke="#63b8ff" points="804.46,-113.86 802.33,-103.49 797.52,-112.93 804.46,-113.86"/>
</a>
</g>
</g>
<!-- Node16&#45;&gt;Node2 -->
<g id="edge19_Node000016_Node000002" class="edge">
<title>Node16&#45;&gt;Node2</title>
<g id="a_edge19_Node000016_Node000002"><a xlink:title=" ">
<path fill="none" stroke="#63b8ff" d="M674.65,-274.71C682.66,-276.13 690.84,-277.59 698.9,-279.02"/>
<polygon fill="#63b8ff" stroke="#63b8ff" points="698.24,-282.46 708.7,-280.76 699.46,-275.56 698.24,-282.46"/>
</a>
</g>
</g>
<!-- Node16&#45;&gt;Node16 -->
<g id="edge21_Node000016_Node000016" class="edge">
<title>Node16&#45;&gt;Node16</title>
<g id="a_edge21_Node000016_Node000016"><a xlink:title=" ">
<path fill="none" stroke="#63b8ff" d="M573.22,-277.99C567.04,-287.06 577.13,-295.5 603.5,-295.5 617.92,-295.5 627.47,-292.97 632.16,-289.2"/>
<polygon fill="#63b8ff" stroke="#63b8ff" points="635.59,-289.88 633.56,-279.48 628.67,-288.88 635.59,-289.88"/>
</a>
</g>
</g>
<!-- Node20 -->
<g id="Node000020" class="node">
<title>Node20</title>
<g id="a_Node000020"><a xlink:href="CarlaEngineGraph_8cpp.html#ad294b8477886cae80a4cbfaffbdf3772" target="_top" xlink:title=" ">
<polygon fill="white" stroke="#666666" points="792.5,-175.88 756.25,-175.88 756.25,-156.62 792.5,-156.62 792.5,-175.88"/>
<text xml:space="preserve" text-anchor="middle" x="774.38" y="-162.38" font-family="Helvetica,sans-Serif" font-size="10.00">jmax</text>
</a>
</g>
</g>
<!-- Node16&#45;&gt;Node20 -->
<g id="edge20_Node000016_Node000020" class="edge">
<title>Node16&#45;&gt;Node20</title>
<g id="a_edge20_Node000016_Node000020"><a xlink:title=" ">
<path fill="none" stroke="#63b8ff" d="M653.82,-246.61C660.9,-243.8 667.99,-240.67 674.5,-237.25 703.64,-221.97 733.91,-199.02 753.15,-183.37"/>
<polygon fill="#63b8ff" stroke="#63b8ff" points="755.26,-186.17 760.74,-177.11 750.8,-180.78 755.26,-186.17"/>
</a>
</g>
</g>
<!-- Node58&#45;&gt;Node20 -->
<g id="edge28_Node000058_Node000020" class="edge">
<title>Node58&#45;&gt;Node20</title>
<g id="a_edge28_Node000058_Node000020"><a xlink:title=" ">
<path fill="none" stroke="#63b8ff" d="M301.67,-100.92C413.02,-116.35 660.49,-150.62 744.68,-162.28"/>
<polygon fill="#63b8ff" stroke="#63b8ff" points="744,-165.72 754.39,-163.62 744.96,-158.78 744,-165.72"/>
</a>
</g>
</g>
<!-- Node58&#45;&gt;Node58 -->
<g id="edge31_Node000058_Node000058" class="edge">
<title>Node58&#45;&gt;Node58</title>
<g id="a_edge31_Node000058_Node000058"><a xlink:title=" ">
<path fill="none" stroke="#63b8ff" d="M217.56,-103.16C204.93,-111.77 214.16,-120.88 245.25,-120.88 262.74,-120.88 273.31,-117.99 276.97,-113.94"/>
<polygon fill="#63b8ff" stroke="#63b8ff" points="280.25,-112.72 273.47,-104.58 273.69,-115.17 280.25,-112.72"/>
</a>
</g>
</g>
<!-- Node59 -->
<g id="Node000059" class="node">
<title>Node59</title>
<g id="a_Node000059"><a xlink:href="classjuce_1_1Timer_1_1TimerThread.html#a8ce6a6b87440d489d122d2b55bc74a85" target="_top" xlink:title=" ">
<polygon fill="white" stroke="#666666" points="496.5,-37.88 353.75,-37.88 353.75,-18.62 496.5,-18.62 496.5,-37.88"/>
<text xml:space="preserve" text-anchor="middle" x="425.12" y="-24.38" font-family="Helvetica,sans-Serif" font-size="10.00">juce::Timer::TimerThread::add</text>
</a>
</g>
</g>
<!-- Node58&#45;&gt;Node59 -->
<g id="edge23_Node000058_Node000059" class="edge">
<title>Node58&#45;&gt;Node59</title>
<g id="a_edge23_Node000058_Node000059"><a xlink:title=" ">
<path fill="none" stroke="#63b8ff" d="M267.32,-83.19C288.74,-73.2 323.06,-57.9 353.75,-47.25 359.58,-45.23 365.74,-43.29 371.89,-41.47"/>
<polygon fill="#63b8ff" stroke="#63b8ff" points="372.78,-44.86 381.44,-38.75 370.86,-38.12 372.78,-44.86"/>
</a>
</g>
</g>
<!-- Node63 -->
<g id="Node000063" class="node">
<title>Node63</title>
<g id="a_Node000063"><a xlink:href="classjuce_1_1Timer_1_1TimerThread.html#a576eec1fcba40894c4ee2fe0d61519b9" target="_top" xlink:title=" ">
<polygon fill="white" stroke="#666666" points="486.38,-86.5 363.88,-86.5 363.88,-56 486.38,-56 486.38,-86.5"/>
<text xml:space="preserve" text-anchor="start" x="371.88" y="-73" font-family="Helvetica,sans-Serif" font-size="10.00">juce::Timer::TimerThread</text>
<text xml:space="preserve" text-anchor="middle" x="425.12" y="-61.75" font-family="Helvetica,sans-Serif" font-size="10.00">::resetCounter</text>
</a>
</g>
</g>
<!-- Node58&#45;&gt;Node63 -->
<g id="edge29_Node000058_Node000063" class="edge">
<title>Node58&#45;&gt;Node63</title>
<g id="a_edge29_Node000058_Node000063"><a xlink:title=" ">
<path fill="none" stroke="#63b8ff" d="M301.56,-86.41C317.7,-84.41 335.58,-82.2 352.58,-80.1"/>
<polygon fill="#63b8ff" stroke="#63b8ff" points="352.6,-83.62 362.09,-78.92 351.74,-76.68 352.6,-83.62"/>
</a>
</g>
</g>
<!-- Node60 -->
<g id="Node000060" class="node">
<title>Node60</title>
<g id="a_Node000060"><a xlink:href="classjuce_1_1Timer.html#a4517f6b34af45ee3edc05c468959146e" target="_top" xlink:title=" ">
<polygon fill="white" stroke="#666666" points="649.75,-67.88 557.25,-67.88 557.25,-48.62 649.75,-48.62 649.75,-67.88"/>
<text xml:space="preserve" text-anchor="middle" x="603.5" y="-54.38" font-family="Helvetica,sans-Serif" font-size="10.00">juce::Timer::Timer</text>
</a>
</g>
</g>
<!-- Node59&#45;&gt;Node60 -->
<g id="edge24_Node000059_Node000060" class="edge">
<title>Node59&#45;&gt;Node60</title>
<g id="a_edge24_Node000059_Node000060"><a xlink:title=" ">
<path fill="none" stroke="#63b8ff" d="M485.35,-38.32C504.75,-41.62 526.25,-45.28 545.49,-48.55"/>
<polygon fill="#63b8ff" stroke="#63b8ff" points="544.88,-52 555.33,-50.23 546.06,-45.1 544.88,-52"/>
</a>
</g>
</g>
<!-- Node61 -->
<g id="Node000061" class="node">
<title>Node61</title>
<g id="a_Node000061"><a xlink:href="classjuce_1_1Timer_1_1TimerThread.html#a8d18fc470fc7b0c11d3cbdbaf0f5c451" target="_top" xlink:title=" ">
<polygon fill="#fff0f0" stroke="red" points="664.75,-30.5 542.25,-30.5 542.25,0 664.75,0 664.75,-30.5"/>
<text xml:space="preserve" text-anchor="start" x="550.25" y="-17" font-family="Helvetica,sans-Serif" font-size="10.00">juce::Timer::TimerThread</text>
<text xml:space="preserve" text-anchor="middle" x="603.5" y="-5.75" font-family="Helvetica,sans-Serif" font-size="10.00">::TimerThread</text>
</a>
</g>
</g>
<!-- Node59&#45;&gt;Node61 -->
<g id="edge26_Node000059_Node000061" class="edge">
<title>Node59&#45;&gt;Node61</title>
<g id="a_edge26_Node000059_Node000061"><a xlink:title=" ">
<path fill="none" stroke="#63b8ff" d="M496.85,-23.04C507.94,-22.22 519.42,-21.37 530.55,-20.55"/>
<polygon fill="#63b8ff" stroke="#63b8ff" points="530.75,-24.05 540.47,-19.82 530.24,-17.07 530.75,-24.05"/>
</a>
</g>
</g>
<!-- Node60&#45;&gt;Node60 -->
<g id="edge25_Node000060_Node000060" class="edge">
<title>Node60&#45;&gt;Node60</title>
<g id="a_edge25_Node000060_Node000060"><a xlink:title=" ">
<path fill="none" stroke="#63b8ff" d="M576.75,-68.16C564.55,-76.77 573.46,-85.88 603.5,-85.88 620.4,-85.88 630.61,-82.99 634.14,-78.94"/>
<polygon fill="#63b8ff" stroke="#63b8ff" points="637.45,-77.81 630.76,-69.59 630.87,-80.18 637.45,-77.81"/>
</a>
</g>
</g>
<!-- Node61&#45;&gt;Node15 -->
<g id="edge27_Node000061_Node000015" class="edge">
<title>Node61&#45;&gt;Node15</title>
<g id="a_edge27_Node000061_Node000015"><a xlink:title=" ">
<path fill="none" stroke="#63b8ff" d="M652.59,-30.93C659.98,-33.57 667.48,-36.39 674.5,-39.25 693.92,-47.17 714.97,-56.99 732.63,-65.61"/>
<polygon fill="#63b8ff" stroke="#63b8ff" points="730.73,-68.57 741.25,-69.85 733.82,-62.29 730.73,-68.57"/>
</a>
</g>
</g>
<!-- Node63&#45;&gt;Node60 -->
<g id="edge30_Node000063_Node000060" class="edge">
<title>Node63&#45;&gt;Node60</title>
<g id="a_edge30_Node000063_Node000060"><a xlink:title=" ">
<path fill="none" stroke="#63b8ff" d="M486.82,-66.78C505.89,-65.37 526.85,-63.83 545.64,-62.44"/>
<polygon fill="#63b8ff" stroke="#63b8ff" points="545.79,-65.94 555.51,-61.71 545.28,-58.96 545.79,-65.94"/>
</a>
</g>
</g>
</g>
</svg>
