<?xml version="1.0" encoding="UTF-8" standalone="no"?>
<!DOCTYPE svg PUBLIC "-//W3C//DTD SVG 1.1//EN"
 "http://www.w3.org/Graphics/SVG/1.1/DTD/svg11.dtd">
<!-- Generated by graphviz version 14.0.2 (0)
 -->
<!-- Title: calf_plugins::plugin_gui::on_idle Pages: 1 -->
<svg width="538pt" height="125pt"
 viewBox="0.00 0.00 538.00 125.00" xmlns="http://www.w3.org/2000/svg" xmlns:xlink="http://www.w3.org/1999/xlink">
<g id="graph0" class="graph" transform="scale(1 1) rotate(0) translate(4 120.88)">
<title>calf_plugins::plugin_gui::on_idle</title>
<!-- Node1 -->
<g id="Node000001" class="node">
<title>Node1</title>
<g id="a_Node000001"><a xlink:title=" ">
<polygon fill="#999999" stroke="#666666" points="529.75,-45.88 432,-45.88 432,-15.37 529.75,-15.37 529.75,-45.88"/>
<text xml:space="preserve" text-anchor="start" x="440" y="-32.38" font-family="Helvetica,sans-Serif" font-size="10.00">calf_plugins::plugin</text>
<text xml:space="preserve" text-anchor="middle" x="480.88" y="-21.12" font-family="Helvetica,sans-Serif" font-size="10.00">_gui::on_idle</text>
</a>
</g>
</g>
<!-- Node2 -->
<g id="Node000002" class="node">
<title>Node2</title>
<g id="a_Node000002"><a xlink:href="classcalf__plugins_1_1plugin__gui__widget.html#a4a468dbab3ba3f083fae64b854d311e1" target="_top" xlink:title=" ">
<polygon fill="white" stroke="#666666" points="396,-67.88 293,-67.88 293,-37.38 396,-37.38 396,-67.88"/>
<text xml:space="preserve" text-anchor="start" x="301" y="-54.38" font-family="Helvetica,sans-Serif" font-size="10.00">calf_plugins::plugin</text>
<text xml:space="preserve" text-anchor="middle" x="344.5" y="-43.12" font-family="Helvetica,sans-Serif" font-size="10.00">_gui_widget::on_idle</text>
</a>
</g>
</g>
<!-- Node1&#45;&gt;Node2 -->
<g id="edge1_Node000001_Node000002" class="edge">
<title>Node1&#45;&gt;Node2</title>
<g id="a_edge1_Node000001_Node000002"><a xlink:title=" ">
<path fill="none" stroke="#63b8ff" d="M420.54,-40.34C412.52,-41.65 404.34,-42.99 396.48,-44.28"/>
<polygon fill="#63b8ff" stroke="#63b8ff" points="420.95,-43.82 430.25,-38.75 419.81,-36.91 420.95,-43.82"/>
</a>
</g>
</g>
<!-- Node11 -->
<g id="Node000011" class="node">
<title>Node11</title>
<g id="a_Node000011"><a xlink:href="lv2gui_8cpp.html#a991a3bb8a78830c0db2c8a2e990b29a5" target="_top" xlink:title=" ">
<polygon fill="white" stroke="#666666" points="383.25,-19.25 305.75,-19.25 305.75,0 383.25,0 383.25,-19.25"/>
<text xml:space="preserve" text-anchor="middle" x="344.5" y="-5.75" font-family="Helvetica,sans-Serif" font-size="10.00">plugin_on_idle</text>
</a>
</g>
</g>
<!-- Node1&#45;&gt;Node11 -->
<g id="edge5_Node000001_Node000011" class="edge">
<title>Node1&#45;&gt;Node11</title>
<g id="a_edge5_Node000001_Node000011"><a xlink:title=" ">
<path fill="none" stroke="#63b8ff" d="M420.42,-21.33C407.93,-19.38 395.07,-17.37 383.61,-15.58"/>
<polygon fill="#63b8ff" stroke="#63b8ff" points="419.83,-24.78 430.25,-22.87 420.91,-17.87 419.83,-24.78"/>
</a>
</g>
</g>
<!-- Node3 -->
<g id="Node000003" class="node">
<title>Node3</title>
<g id="a_Node000003"><a xlink:href="classcalf__plugins_1_1plugin__gui__widget.html#a9f575b527349427be88d4f583a5586f7" target="_top" xlink:title=" ">
<polygon fill="white" stroke="#666666" points="257,-67.88 139.75,-67.88 139.75,-37.38 257,-37.38 257,-67.88"/>
<text xml:space="preserve" text-anchor="start" x="147.75" y="-54.38" font-family="Helvetica,sans-Serif" font-size="10.00">calf_plugins::plugin</text>
<text xml:space="preserve" text-anchor="middle" x="198.38" y="-43.12" font-family="Helvetica,sans-Serif" font-size="10.00">_gui_widget::create_gui</text>
</a>
</g>
</g>
<!-- Node2&#45;&gt;Node3 -->
<g id="edge2_Node000002_Node000003" class="edge">
<title>Node2&#45;&gt;Node3</title>
<g id="a_edge2_Node000002_Node000003"><a xlink:title=" ">
<path fill="none" stroke="#63b8ff" d="M281.43,-52.62C273.35,-52.62 265.11,-52.62 257.11,-52.62"/>
<polygon fill="#63b8ff" stroke="#63b8ff" points="281.17,-56.13 291.17,-52.63 281.17,-49.13 281.17,-56.13"/>
</a>
</g>
</g>
<!-- Node4 -->
<g id="Node000004" class="node">
<title>Node4</title>
<g id="a_Node000004"><a xlink:href="classcalf__plugins_1_1plugin__gui__widget.html#acdfdc8d782ed961b70c9fb629ea0e5ce" target="_top" xlink:title=" ">
<polygon fill="#fff0f0" stroke="red" points="101.5,-116.88 2.25,-116.88 2.25,-86.38 101.5,-86.38 101.5,-116.88"/>
<text xml:space="preserve" text-anchor="start" x="10.25" y="-103.38" font-family="Helvetica,sans-Serif" font-size="10.00">calf_plugins::plugin</text>
<text xml:space="preserve" text-anchor="middle" x="51.88" y="-92.12" font-family="Helvetica,sans-Serif" font-size="10.00">_gui_widget::create</text>
</a>
</g>
</g>
<!-- Node3&#45;&gt;Node4 -->
<g id="edge3_Node000003_Node000004" class="edge">
<title>Node3&#45;&gt;Node4</title>
<g id="a_edge3_Node000003_Node000004"><a xlink:title=" ">
<path fill="none" stroke="#63b8ff" d="M140.45,-71.93C126.72,-76.58 112.22,-81.5 99.05,-85.97"/>
<polygon fill="#63b8ff" stroke="#63b8ff" points="141.48,-75.28 149.82,-68.75 139.23,-68.65 141.48,-75.28"/>
</a>
</g>
</g>
<!-- Node8 -->
<g id="Node000008" class="node">
<title>Node8</title>
<g id="a_Node000008"><a xlink:href="classcalf__plugins_1_1plugin__gui__window.html#a1feb613765dc69a67c4592a6a4282d46" target="_top" xlink:title=" ">
<polygon fill="#fff0f0" stroke="red" points="103.75,-67.88 0,-67.88 0,-37.38 103.75,-37.38 103.75,-67.88"/>
<text xml:space="preserve" text-anchor="start" x="8" y="-54.38" font-family="Helvetica,sans-Serif" font-size="10.00">calf_plugins::plugin</text>
<text xml:space="preserve" text-anchor="middle" x="51.88" y="-43.12" font-family="Helvetica,sans-Serif" font-size="10.00">_gui_window::create</text>
</a>
</g>
</g>
<!-- Node3&#45;&gt;Node8 -->
<g id="edge4_Node000003_Node000008" class="edge">
<title>Node3&#45;&gt;Node8</title>
<g id="a_edge4_Node000003_Node000008"><a xlink:title=" ">
<path fill="none" stroke="#63b8ff" d="M128,-52.62C119.85,-52.62 111.66,-52.62 103.84,-52.62"/>
<polygon fill="#63b8ff" stroke="#63b8ff" points="127.92,-56.13 137.92,-52.63 127.92,-49.13 127.92,-56.13"/>
</a>
</g>
</g>
<!-- Node12 -->
<g id="Node000012" class="node">
<title>Node12</title>
<g id="a_Node000012"><a xlink:href="lv2gui_8cpp.html#ad6a18516eda34a8f92c635d109583029" target="_top" xlink:title=" ">
<polygon fill="white" stroke="#666666" points="237.88,-19.25 158.88,-19.25 158.88,0 237.88,0 237.88,-19.25"/>
<text xml:space="preserve" text-anchor="middle" x="198.38" y="-5.75" font-family="Helvetica,sans-Serif" font-size="10.00">gui_instantiate</text>
</a>
</g>
</g>
<!-- Node11&#45;&gt;Node12 -->
<g id="edge6_Node000011_Node000012" class="edge">
<title>Node11&#45;&gt;Node12</title>
<g id="a_edge6_Node000011_Node000012"><a xlink:title=" ">
<path fill="none" stroke="#63b8ff" d="M293.96,-9.62C275.76,-9.62 255.43,-9.62 238.3,-9.62"/>
<polygon fill="#63b8ff" stroke="#63b8ff" points="293.74,-13.13 303.74,-9.63 293.74,-6.13 293.74,-13.13"/>
</a>
</g>
</g>
<!-- Node13 -->
<g id="Node000013" class="node">
<title>Node13</title>
<g id="a_Node000013"><a xlink:href="group__ui.html#ga22524cc6eebab1bc49fd872fab28d187" target="_top" xlink:title=" ">
<polygon fill="white" stroke="#666666" points="94,-19.25 9.75,-19.25 9.75,0 94,0 94,-19.25"/>
<text xml:space="preserve" text-anchor="middle" x="51.88" y="-5.75" font-family="Helvetica,sans-Serif" font-size="10.00">lv2ui_descriptor</text>
</a>
</g>
</g>
<!-- Node12&#45;&gt;Node13 -->
<g id="edge7_Node000012_Node000013" class="edge">
<title>Node12&#45;&gt;Node13</title>
<g id="a_edge7_Node000012_Node000013"><a xlink:title=" ">
<path fill="none" stroke="#63b8ff" d="M147.6,-9.62C130.29,-9.62 111.07,-9.62 94.49,-9.62"/>
<polygon fill="#63b8ff" stroke="#63b8ff" points="147.14,-13.13 157.14,-9.63 147.14,-6.13 147.14,-13.13"/>
</a>
</g>
</g>
</g>
</svg>
