<?xml version="1.0" encoding="UTF-8" standalone="no"?>
<!DOCTYPE svg PUBLIC "-//W3C//DTD SVG 1.1//EN"
 "http://www.w3.org/Graphics/SVG/1.1/DTD/svg11.dtd">
<!-- Generated by graphviz version 14.0.2 (0)
 -->
<!-- Title: water::AudioProcessorGraph::~AudioProcessorGraph Pages: 1 -->
<!--zoomable 109 -->

<svg id="main" version="1.1" xmlns="http://www.w3.org/2000/svg" xmlns:xlink="http://www.w3.org/1999/xlink" xml:space="preserve" onload="init(evt)">

<style type="text/css"><![CDATA[
.node, .edge {opacity: 0.7;}
.node.selected, .edge.selected {opacity: 1;}
.edge:hover path { stroke: red; }
.edge:hover polygon { stroke: red; fill: red; }
]]></style>

<defs>
  <circle id="rim" cx="0" cy="0" r="7"/>
  <circle id="rim2" cx="0" cy="0" r="3.5"/>
  <g id="zoomPlus">
    <use xlink:href="#rim" fill="#404040"><set attributeName="fill" to="#808080" begin="zoomplus.mouseover" end="zoomplus.mouseout"/></use>
    <path d="M-4,0h8M0,-4v8" fill="none" stroke="white" stroke-width="1.5" pointer-events="none"/>
  </g>
  <g id="zoomMin">
    <use xlink:href="#rim" fill="#404040"><set attributeName="fill" to="#808080" begin="zoomminus.mouseover" end="zoomminus.mouseout"/></use>
    <path d="M-4,0h8" fill="none" stroke="white" stroke-width="1.5" pointer-events="none"/>
  </g>
  <g id="arrowUp" transform="translate(30 24)">
    <use xlink:href="#rim"/>
    <path pointer-events="none" fill="none" stroke="white" stroke-width="1.5" d="M0,-3.0v7 M-2.5,-0.5L0,-3.0L2.5,-0.5"/>
  </g>
  <g id="arrowRight" transform="rotate(90) translate(36 -43)">
    <use xlink:href="#rim"/>
    <path pointer-events="none" fill="none" stroke="white" stroke-width="1.5" d="M0,-3.0v7 M-2.5,-0.5L0,-3.0L2.5,-0.5"/>
  </g>
  <g id="arrowDown" transform="rotate(180) translate(-30 -48)">
    <use xlink:href="#rim"/>
    <path pointer-events="none" fill="none" stroke="white" stroke-width="1.5" d="M0,-3.0v7 M-2.5,-0.5L0,-3.0L2.5,-0.5"/>
  </g>
  <g id="arrowLeft" transform="rotate(270) translate(-36 17)">
    <use xlink:href="#rim"/>
    <path pointer-events="none" fill="none" stroke="white" stroke-width="1.5" d="M0,-3.0v7 M-2.5,-0.5L0,-3.0L2.5,-0.5"/>
  </g>
  <g id="resetDef">
    <use xlink:href="#rim2" fill="#404040"><set attributeName="fill" to="#808080" begin="reset.mouseover" end="reset.mouseout"/></use>
  </g>
</defs>
<script type="application/ecmascript">
var viewWidth = 667;
var viewHeight = 109;
var sectionId = 'dynsection-3';
</script>
<script type="application/ecmascript" xlink:href="svg.min.js"/>
<svg id="graph" class="graph">
<g id="viewport">
<title>water::AudioProcessorGraph::~AudioProcessorGraph</title>
<!-- Node1 -->
<g id="Node000001" class="node">
<title>Node1</title>
<g id="a_Node000001"><a xlink:title=" ">
<polygon fill="#999999" stroke="#666666" points="139.75,-75.5 0,-75.5 0,-45 139.75,-45 139.75,-75.5"/>
<text xml:space="preserve" text-anchor="start" x="8" y="-62" font-family="Helvetica,sans-Serif" font-size="10.00">water::AudioProcessorGraph</text>
<text xml:space="preserve" text-anchor="middle" x="69.88" y="-50.75" font-family="Helvetica,sans-Serif" font-size="10.00">::~AudioProcessorGraph</text>
</a>
</g>
</g>
<!-- Node2 -->
<g id="Node000002" class="node">
<title>Node2</title>
<g id="a_Node000002"><a xlink:href="classwater_1_1AudioProcessorGraph.html#ad1796f2386f9821ccd83f13496582009" target="_top" xlink:title=" ">
<polygon fill="white" stroke="#666666" points="315.5,-100.5 175.75,-100.5 175.75,-70 315.5,-70 315.5,-100.5"/>
<text xml:space="preserve" text-anchor="start" x="183.75" y="-87" font-family="Helvetica,sans-Serif" font-size="10.00">water::AudioProcessorGraph</text>
<text xml:space="preserve" text-anchor="middle" x="245.62" y="-75.75" font-family="Helvetica,sans-Serif" font-size="10.00">::clear</text>
</a>
</g>
</g>
<!-- Node1&#45;&gt;Node2 -->
<g id="edge1_Node000001_Node000002" class="edge">
<title>Node1&#45;&gt;Node2</title>
<g id="a_edge1_Node000001_Node000002"><a xlink:title=" ">
<path fill="none" stroke="#63b8ff" d="M140.04,-70.2C147.96,-71.34 156.07,-72.51 164.12,-73.67"/>
<polygon fill="#63b8ff" stroke="#63b8ff" points="163.51,-77.12 173.91,-75.08 164.51,-70.19 163.51,-77.12"/>
</a>
</g>
</g>
<!-- Node3 -->
<g id="Node000003" class="node">
<title>Node3</title>
<g id="a_Node000003"><a xlink:href="classwater_1_1AudioProcessorGraph.html#ae4a4400156e678bc176164884891af1c" target="_top" xlink:title=" ">
<polygon fill="white" stroke="#666666" points="315.5,-51.5 175.75,-51.5 175.75,-21 315.5,-21 315.5,-51.5"/>
<text xml:space="preserve" text-anchor="start" x="183.75" y="-38" font-family="Helvetica,sans-Serif" font-size="10.00">water::AudioProcessorGraph</text>
<text xml:space="preserve" text-anchor="middle" x="245.62" y="-26.75" font-family="Helvetica,sans-Serif" font-size="10.00">::clearRenderingSequence</text>
</a>
</g>
</g>
<!-- Node1&#45;&gt;Node3 -->
<g id="edge2_Node000001_Node000003" class="edge">
<title>Node1&#45;&gt;Node3</title>
<g id="a_edge2_Node000001_Node000003"><a xlink:title=" ">
<path fill="none" stroke="#63b8ff" d="M140.04,-50.7C147.96,-49.6 156.07,-48.48 164.12,-47.37"/>
<polygon fill="#63b8ff" stroke="#63b8ff" points="164.48,-50.85 173.91,-46.02 163.53,-43.92 164.48,-50.85"/>
</a>
</g>
</g>
<!-- Node4 -->
<g id="Node000004" class="node">
<title>Node4</title>
<g id="a_Node000004"><a xlink:href="namespacewater.html#a8e4c8e14d7ec5016ed5da0642f37b06f" target="_top" xlink:title=" ">
<polygon fill="white" stroke="#666666" points="488.25,-67.88 351.5,-67.88 351.5,-48.62 488.25,-48.62 488.25,-67.88"/>
<text xml:space="preserve" text-anchor="middle" x="419.88" y="-54.38" font-family="Helvetica,sans-Serif" font-size="10.00">water::deleteRenderOpArray</text>
</a>
</g>
</g>
<!-- Node3&#45;&gt;Node4 -->
<g id="edge3_Node000003_Node000004" class="edge">
<title>Node3&#45;&gt;Node4</title>
<g id="a_edge3_Node000003_Node000004"><a xlink:title=" ">
<path fill="none" stroke="#63b8ff" d="M315.69,-45.07C323.65,-46.09 331.8,-47.13 339.87,-48.16"/>
<polygon fill="#63b8ff" stroke="#63b8ff" points="339.33,-51.62 349.69,-49.41 340.22,-44.68 339.33,-51.62"/>
</a>
</g>
</g>
<!-- Node8 -->
<g id="Node000008" class="node">
<title>Node8</title>
<g id="a_Node000008"><a xlink:href="classwater_1_1AudioProcessor.html#a32ed7f0e1f90544fbf1de5f2cdb7a56e" target="_top" xlink:title=" ">
<polygon fill="white" stroke="#666666" points="476.62,-30.5 363.12,-30.5 363.12,0 476.62,0 476.62,-30.5"/>
<text xml:space="preserve" text-anchor="start" x="371.12" y="-17" font-family="Helvetica,sans-Serif" font-size="10.00">water::AudioProcessor</text>
<text xml:space="preserve" text-anchor="middle" x="419.88" y="-5.75" font-family="Helvetica,sans-Serif" font-size="10.00">::getCallbackLock</text>
</a>
</g>
</g>
<!-- Node3&#45;&gt;Node8 -->
<g id="edge6_Node000003_Node000008" class="edge">
<title>Node3&#45;&gt;Node8</title>
<g id="a_edge6_Node000003_Node000008"><a xlink:title=" ">
<path fill="none" stroke="#63b8ff" d="M315.69,-27.83C327.54,-26.39 339.83,-24.89 351.63,-23.45"/>
<polygon fill="#63b8ff" stroke="#63b8ff" points="351.75,-26.96 361.25,-22.28 350.9,-20.01 351.75,-26.96"/>
</a>
</g>
</g>
<!-- Node5 -->
<g id="Node000005" class="node">
<title>Node5</title>
<g id="a_Node000005"><a xlink:href="classwater_1_1Array.html#a8ca93e8472397dda8bfc59e00d82792b" target="_top" xlink:title=" ">
<polygon fill="#fff0f0" stroke="red" points="658.75,-85.88 524.25,-85.88 524.25,-66.62 658.75,-66.62 658.75,-85.88"/>
<text xml:space="preserve" text-anchor="middle" x="591.5" y="-72.38" font-family="Helvetica,sans-Serif" font-size="10.00">water::Array::getUnchecked</text>
</a>
</g>
</g>
<!-- Node4&#45;&gt;Node5 -->
<g id="edge4_Node000004_Node000005" class="edge">
<title>Node4&#45;&gt;Node5</title>
<g id="a_edge4_Node000004_Node000005"><a xlink:title=" ">
<path fill="none" stroke="#63b8ff" d="M488.4,-65.42C496.31,-66.26 504.44,-67.12 512.48,-67.97"/>
<polygon fill="#63b8ff" stroke="#63b8ff" points="511.94,-71.43 522.25,-69.01 512.68,-64.47 511.94,-71.43"/>
</a>
</g>
</g>
<!-- Node7 -->
<g id="Node000007" class="node">
<title>Node7</title>
<g id="a_Node000007"><a xlink:href="classwater_1_1Array.html#a6288289a39c72eab5eb91c870879affa" target="_top" xlink:title=" ">
<polygon fill="white" stroke="#666666" points="635.88,-48.88 547.12,-48.88 547.12,-29.62 635.88,-29.62 635.88,-48.88"/>
<text xml:space="preserve" text-anchor="middle" x="591.5" y="-35.38" font-family="Helvetica,sans-Serif" font-size="10.00">water::Array::size</text>
</a>
</g>
</g>
<!-- Node4&#45;&gt;Node7 -->
<g id="edge5_Node000004_Node000007" class="edge">
<title>Node4&#45;&gt;Node7</title>
<g id="a_edge5_Node000004_Node000007"><a xlink:title=" ">
<path fill="none" stroke="#63b8ff" d="M488.4,-50.69C504.08,-48.93 520.59,-47.08 535.65,-45.39"/>
<polygon fill="#63b8ff" stroke="#63b8ff" points="535.79,-48.9 545.34,-44.31 535.01,-41.94 535.79,-48.9"/>
</a>
</g>
</g>
</g>
</svg>

<g id="navigator" transform="translate(0 0)" fill="#404254">
  <rect fill="#f2f5e9" fill-opacity="0.5" stroke="#606060" stroke-width=".5" x="0" y="0" width="60" height="60"/>
  <use id="zoomplus" xlink:href="#zoomPlus" x="17" y="9" onmousedown="handleZoom(evt,'in')"/>
  <use id="zoomminus" xlink:href="#zoomMin" x="42" y="9" onmousedown="handleZoom(evt,'out')"/>
  <use id="reset" xlink:href="#resetDef" x="30" y="36" onmousedown="handleReset()"/>
   <use id="arrowup" xlink:href="#arrowUp" x="0" y="0" onmousedown="handlePan(0,-1)"/>
  <use id="arrowright" xlink:href="#arrowRight" x="0" y="0" onmousedown="handlePan(1,0)"/>
  <use id="arrowdown" xlink:href="#arrowDown" x="0" y="0" onmousedown="handlePan(0,1)"/>
  <use id="arrowleft" xlink:href="#arrowLeft" x="0" y="0" onmousedown="handlePan(-1,0)"/>
</g>
<svg viewBox="0 0 15 15" width="100%" height="30px" preserveAspectRatio="xMaxYMin meet">
 <g id="arrow_out" transform="scale(0.3 0.3)">
  <a xlink:href="classwater_1_1AudioProcessorGraph_a3938057fb041bfe82f119b38334134d0_cgraph_org.svg" target="_base">
   <rect id="button" ry="5" rx="5" y="6" x="6" height="38" width="38"
        fill="#f2f5e9" fill-opacity="0.5" stroke="#606060" stroke-width="1.0"/>
   <path id="arrow"
     d="M 11.500037,31.436501 C 11.940474,20.09759 22.043105,11.32322 32.158766,21.979434 L 37.068811,17.246167 C 37.068811,17.246167 37.088388,32 37.088388,32 L 22.160133,31.978069 C 22.160133,31.978069 26.997745,27.140456 26.997745,27.140456 C 18.528582,18.264221 13.291696,25.230495 11.500037,31.436501 z"
     style="fill:#404040;"/>
  </a>
 </g>
</svg>

<style type='text/css'>
<![CDATA[
[data-mouse-over-selected='false'] { opacity: 0.7; }
[data-mouse-over-selected='true']  { opacity: 1.0; }
]]>
</style>
<script type="application/ecmascript"><![CDATA[
document.addEventListener('DOMContentLoaded', (event) => {
  highlightEdges();
  highlightAdjacentNodes();
});
]]></script>
</svg>
