<?xml version="1.0" encoding="UTF-8" standalone="no"?>
<!DOCTYPE svg PUBLIC "-//W3C//DTD SVG 1.1//EN"
 "http://www.w3.org/Graphics/SVG/1.1/DTD/svg11.dtd">
<!-- Generated by graphviz version 14.0.2 (0)
 -->
<!-- Title: juce::MultiDocumentPanel::getContainerComp Pages: 1 -->
<svg width="1008pt" height="506pt"
 viewBox="0.00 0.00 1008.00 506.00" xmlns="http://www.w3.org/2000/svg" xmlns:xlink="http://www.w3.org/1999/xlink">
<g id="graph0" class="graph" transform="scale(1 1) rotate(0) translate(4 502.48)">
<title>juce::MultiDocumentPanel::getContainerComp</title>
<!-- Node1 -->
<g id="Node000001" class="node">
<title>Node1</title>
<g id="a_Node000001"><a xlink:title=" ">
<polygon fill="#999999" stroke="#666666" points="999.75,-205.5 871.25,-205.5 871.25,-175 999.75,-175 999.75,-205.5"/>
<text xml:space="preserve" text-anchor="start" x="879.25" y="-192" font-family="Helvetica,sans-Serif" font-size="10.00">juce::MultiDocumentPanel</text>
<text xml:space="preserve" text-anchor="middle" x="935.5" y="-180.75" font-family="Helvetica,sans-Serif" font-size="10.00">::getContainerComp</text>
</a>
</g>
</g>
<!-- Node1&#45;&gt;Node1 -->
<g id="edge1_Node000001_Node000001" class="edge">
<title>Node1&#45;&gt;Node1</title>
<g id="a_edge1_Node000001_Node000001"><a xlink:title=" ">
<path fill="none" stroke="#63b8ff" d="M964.47,-217.2C959.73,-220.97 950.08,-223.5 935.5,-223.5 908.85,-223.5 898.64,-215.06 904.89,-205.99"/>
<polygon fill="#63b8ff" stroke="#63b8ff" points="967.91,-217.88 965.89,-207.48 960.98,-216.87 967.91,-217.88"/>
</a>
</g>
</g>
<!-- Node2 -->
<g id="Node000002" class="node">
<title>Node2</title>
<g id="a_Node000002"><a xlink:href="classjuce_1_1MultiDocumentPanel.html#a618eb336b8d659377fbef00b13d884b3" target="_top" xlink:title=" ">
<polygon fill="white" stroke="#666666" points="835.25,-205.5 690.25,-205.5 690.25,-175 835.25,-175 835.25,-205.5"/>
<text xml:space="preserve" text-anchor="start" x="698.25" y="-192" font-family="Helvetica,sans-Serif" font-size="10.00">juce::MultiDocumentPanel</text>
<text xml:space="preserve" text-anchor="middle" x="762.75" y="-180.75" font-family="Helvetica,sans-Serif" font-size="10.00">::MultiDocumentPanelWindow</text>
</a>
</g>
</g>
<!-- Node1&#45;&gt;Node2 -->
<g id="edge2_Node000001_Node000002" class="edge">
<title>Node1&#45;&gt;Node2</title>
<g id="a_edge2_Node000001_Node000002"><a xlink:title=" ">
<path fill="none" stroke="#63b8ff" d="M859.48,-183.54C851.58,-183.48 843.57,-183.49 835.72,-183.57"/>
<polygon fill="#63b8ff" stroke="#63b8ff" points="859.36,-187.04 869.41,-183.68 859.45,-180.04 859.36,-187.04"/>
</a>
</g>
</g>
<!-- Node14 -->
<g id="Node000014" class="node">
<title>Node14</title>
<g id="a_Node000014"><a xlink:href="classjuce_1_1MultiDocumentPanel.html#a9744ba72865ed2af94213ccf07b3adf4" target="_top" xlink:title=" ">
<polygon fill="white" stroke="#666666" points="645.25,-410.5 516.75,-410.5 516.75,-380 645.25,-380 645.25,-410.5"/>
<text xml:space="preserve" text-anchor="start" x="524.75" y="-397" font-family="Helvetica,sans-Serif" font-size="10.00">juce::MultiDocumentPanel</text>
<text xml:space="preserve" text-anchor="middle" x="581" y="-385.75" font-family="Helvetica,sans-Serif" font-size="10.00">::setActiveDocument</text>
</a>
</g>
</g>
<!-- Node1&#45;&gt;Node14 -->
<g id="edge34_Node000001_Node000014" class="edge">
<title>Node1&#45;&gt;Node14</title>
<g id="a_edge34_Node000001_Node000014"><a xlink:title=" ">
<path fill="none" stroke="#63b8ff" d="M900.23,-211.81C847.84,-244.52 744.42,-308.21 654.25,-358.25 641.07,-365.57 626.28,-373.23 613.54,-379.67"/>
<polygon fill="#63b8ff" stroke="#63b8ff" points="901.8,-214.95 908.42,-206.68 898.09,-209.02 901.8,-214.95"/>
</a>
</g>
</g>
<!-- Node2&#45;&gt;Node1 -->
<g id="edge27_Node000002_Node000001" class="edge">
<title>Node2&#45;&gt;Node1</title>
<g id="a_edge27_Node000002_Node000001"><a xlink:title=" ">
<path fill="none" stroke="#63b8ff" d="M847.03,-197C855.06,-197.01 863.12,-196.95 870.92,-196.8"/>
<polygon fill="#63b8ff" stroke="#63b8ff" points="847.25,-193.5 837.23,-196.94 847.21,-200.5 847.25,-193.5"/>
</a>
</g>
</g>
<!-- Node2&#45;&gt;Node2 -->
<g id="edge28_Node000002_Node000002" class="edge">
<title>Node2&#45;&gt;Node2</title>
<g id="a_edge28_Node000002_Node000002"><a xlink:title=" ">
<path fill="none" stroke="#63b8ff" d="M791.72,-217.2C786.98,-220.97 777.33,-223.5 762.75,-223.5 736.1,-223.5 725.89,-215.06 732.14,-205.99"/>
<polygon fill="#63b8ff" stroke="#63b8ff" points="795.16,-217.88 793.14,-207.48 788.23,-216.87 795.16,-217.88"/>
</a>
</g>
</g>
<!-- Node3 -->
<g id="Node000003" class="node">
<title>Node3</title>
<g id="a_Node000003"><a xlink:href="classjuce_1_1MultiDocumentPanel.html#ac2caa7d5c69513d96a18724e6eb61a76" target="_top" xlink:title=" ">
<polygon fill="white" stroke="#666666" points="469.5,-282.5 341,-282.5 341,-252 469.5,-252 469.5,-282.5"/>
<text xml:space="preserve" text-anchor="start" x="349" y="-269" font-family="Helvetica,sans-Serif" font-size="10.00">juce::MultiDocumentPanel</text>
<text xml:space="preserve" text-anchor="middle" x="405.25" y="-257.75" font-family="Helvetica,sans-Serif" font-size="10.00">::closeDocumentInternal</text>
</a>
</g>
</g>
<!-- Node2&#45;&gt;Node3 -->
<g id="edge3_Node000002_Node000003" class="edge">
<title>Node2&#45;&gt;Node3</title>
<g id="a_edge3_Node000002_Node000003"><a xlink:title=" ">
<path fill="none" stroke="#63b8ff" d="M730.52,-168.43C709.91,-155.39 681.73,-140.09 654.25,-133.25 591.06,-117.53 566.06,-104.27 507.75,-133.25 457.05,-158.45 424.9,-222.41 412.31,-251.91"/>
<polygon fill="#63b8ff" stroke="#63b8ff" points="728.44,-171.24 738.73,-173.77 732.26,-165.38 728.44,-171.24"/>
</a>
</g>
</g>
<!-- Node5 -->
<g id="Node000005" class="node">
<title>Node5</title>
<g id="a_Node000005"><a xlink:href="classjuce_1_1MultiDocumentPanel.html#a5d1b5fec49fae04a44fdcd502292fb7a" target="_top" xlink:title=" ">
<polygon fill="white" stroke="#666666" points="302.75,-218.5 164.5,-218.5 164.5,-188 302.75,-188 302.75,-218.5"/>
<text xml:space="preserve" text-anchor="start" x="172.5" y="-205" font-family="Helvetica,sans-Serif" font-size="10.00">juce::MultiDocumentPanel</text>
<text xml:space="preserve" text-anchor="middle" x="233.62" y="-193.75" font-family="Helvetica,sans-Serif" font-size="10.00">::tryToCloseDocumentAsync</text>
</a>
</g>
</g>
<!-- Node2&#45;&gt;Node5 -->
<g id="edge30_Node000002_Node000005" class="edge">
<title>Node2&#45;&gt;Node5</title>
<g id="a_edge30_Node000002_Node000005"><a xlink:title=" ">
<path fill="none" stroke="#63b8ff" d="M738.57,-166.63C718.33,-147.81 687.11,-122.92 654.25,-112.25 509.78,-65.36 329.47,-150.75 261.88,-187.57"/>
<polygon fill="#63b8ff" stroke="#63b8ff" points="736.07,-169.08 745.71,-173.48 740.91,-164.03 736.07,-169.08"/>
</a>
</g>
</g>
<!-- Node7 -->
<g id="Node000007" class="node">
<title>Node7</title>
<g id="a_Node000007"><a xlink:href="classjuce_1_1MultiDocumentPanel.html#a25fb785e24152407b3312681aa0ae356" target="_top" xlink:title=" ">
<polygon fill="white" stroke="#666666" points="471.75,-30.5 338.75,-30.5 338.75,0 471.75,0 471.75,-30.5"/>
<text xml:space="preserve" text-anchor="start" x="346.75" y="-17" font-family="Helvetica,sans-Serif" font-size="10.00">juce::MultiDocumentPanel</text>
<text xml:space="preserve" text-anchor="middle" x="405.25" y="-5.75" font-family="Helvetica,sans-Serif" font-size="10.00">::componentNameChanged</text>
</a>
</g>
</g>
<!-- Node2&#45;&gt;Node7 -->
<g id="edge11_Node000002_Node000007" class="edge">
<title>Node2&#45;&gt;Node7</title>
<g id="a_edge11_Node000002_Node000007"><a xlink:title=" ">
<path fill="none" stroke="#63b8ff" d="M747.91,-165.04C730.24,-135.42 696.81,-87.17 654.25,-62.25 598.47,-29.59 524.64,-18.96 472.08,-15.82"/>
<polygon fill="#63b8ff" stroke="#63b8ff" points="744.69,-166.46 752.73,-173.36 750.74,-162.95 744.69,-166.46"/>
</a>
</g>
</g>
<!-- Node8 -->
<g id="Node000008" class="node">
<title>Node8</title>
<g id="a_Node000008"><a xlink:href="classjuce_1_1MultiDocumentPanel.html#a1987015662da35d3ca457e4fee04113b" target="_top" xlink:title=" ">
<polygon fill="white" stroke="#666666" points="654.25,-239.5 507.75,-239.5 507.75,-209 654.25,-209 654.25,-239.5"/>
<text xml:space="preserve" text-anchor="start" x="515.75" y="-226" font-family="Helvetica,sans-Serif" font-size="10.00">juce::MultiDocumentPanel</text>
<text xml:space="preserve" text-anchor="middle" x="581" y="-214.75" font-family="Helvetica,sans-Serif" font-size="10.00">::createNewDocumentWindow</text>
</a>
</g>
</g>
<!-- Node2&#45;&gt;Node8 -->
<g id="edge14_Node000002_Node000008" class="edge">
<title>Node2&#45;&gt;Node8</title>
<g id="a_edge14_Node000002_Node000008"><a xlink:title=" ">
<path fill="none" stroke="#63b8ff" d="M678.65,-205.97C670.61,-207.49 662.51,-209.02 654.58,-210.52"/>
<polygon fill="#63b8ff" stroke="#63b8ff" points="679.27,-209.41 688.45,-204.12 677.97,-202.54 679.27,-209.41"/>
</a>
</g>
</g>
<!-- Node11 -->
<g id="Node000011" class="node">
<title>Node11</title>
<g id="a_Node000011"><a xlink:href="classjuce_1_1MultiDocumentPanel.html#a18b881ab38bfacfac998621ac0d07e00" target="_top" xlink:title=" ">
<polygon fill="white" stroke="#666666" points="128.5,-440.5 0,-440.5 0,-410 128.5,-410 128.5,-440.5"/>
<text xml:space="preserve" text-anchor="start" x="8" y="-427" font-family="Helvetica,sans-Serif" font-size="10.00">juce::MultiDocumentPanel</text>
<text xml:space="preserve" text-anchor="middle" x="64.25" y="-415.75" font-family="Helvetica,sans-Serif" font-size="10.00">::setLayoutMode</text>
</a>
</g>
</g>
<!-- Node2&#45;&gt;Node11 -->
<g id="edge29_Node000002_Node000011" class="edge">
<title>Node2&#45;&gt;Node11</title>
<g id="a_edge29_Node000002_Node000011"><a xlink:title=" ">
<path fill="none" stroke="#63b8ff" d="M759.37,-216.89C753.04,-269.77 730.64,-387.19 654.25,-437.25 480.17,-551.34 210.66,-476.46 107.44,-440.95"/>
<polygon fill="#63b8ff" stroke="#63b8ff" points="762.81,-217.59 760.41,-207.28 755.85,-216.84 762.81,-217.59"/>
</a>
</g>
</g>
<!-- Node12 -->
<g id="Node000012" class="node">
<title>Node12</title>
<g id="a_Node000012"><a xlink:href="classjuce_1_1MultiDocumentPanel.html#a83abd1f7088fbcd23ce167615e03840f" target="_top" xlink:title=" ">
<polygon fill="white" stroke="#666666" points="645.25,-306.5 516.75,-306.5 516.75,-276 645.25,-276 645.25,-306.5"/>
<text xml:space="preserve" text-anchor="start" x="524.75" y="-293" font-family="Helvetica,sans-Serif" font-size="10.00">juce::MultiDocumentPanel</text>
<text xml:space="preserve" text-anchor="middle" x="581" y="-281.75" font-family="Helvetica,sans-Serif" font-size="10.00">::getActiveDocument</text>
</a>
</g>
</g>
<!-- Node2&#45;&gt;Node12 -->
<g id="edge24_Node000002_Node000012" class="edge">
<title>Node2&#45;&gt;Node12</title>
<g id="a_edge24_Node000002_Node000012"><a xlink:title=" ">
<path fill="none" stroke="#63b8ff" d="M734.44,-212.85C713.5,-229.33 683.34,-251.31 654.25,-266.25 647.64,-269.64 640.46,-272.75 633.28,-275.53"/>
<polygon fill="#63b8ff" stroke="#63b8ff" points="736.57,-215.63 742.19,-206.65 732.2,-210.16 736.57,-215.63"/>
</a>
</g>
</g>
<!-- Node13 -->
<g id="Node000013" class="node">
<title>Node13</title>
<g id="a_Node000013"><a xlink:href="classjuce_1_1MultiDocumentPanel.html#a9b1bf3cb2319277883a82cafa3096117" target="_top" xlink:title=" ">
<polygon fill="white" stroke="#666666" points="645.25,-172.5 516.75,-172.5 516.75,-142 645.25,-142 645.25,-172.5"/>
<text xml:space="preserve" text-anchor="start" x="524.75" y="-159" font-family="Helvetica,sans-Serif" font-size="10.00">juce::MultiDocumentPanel</text>
<text xml:space="preserve" text-anchor="middle" x="581" y="-147.75" font-family="Helvetica,sans-Serif" font-size="10.00">::updateOrder</text>
</a>
</g>
</g>
<!-- Node2&#45;&gt;Node13 -->
<g id="edge31_Node000002_Node000013" class="edge">
<title>Node2&#45;&gt;Node13</title>
<g id="a_edge31_Node000002_Node000013"><a xlink:title=" ">
<path fill="none" stroke="#63b8ff" d="M698.7,-172.2C681.52,-168.68 662.9,-165.26 645.68,-162.45"/>
<polygon fill="#63b8ff" stroke="#63b8ff" points="697.77,-175.58 708.28,-174.21 699.21,-168.73 697.77,-175.58"/>
</a>
</g>
</g>
<!-- Node3&#45;&gt;Node3 -->
<g id="edge6_Node000003_Node000003" class="edge">
<title>Node3&#45;&gt;Node3</title>
<g id="a_edge6_Node000003_Node000003"><a xlink:title=" ">
<path fill="none" stroke="#63b8ff" d="M434.03,-294.2C429.33,-297.97 419.73,-300.5 405.25,-300.5 378.77,-300.5 368.63,-292.06 374.84,-282.99"/>
<polygon fill="#63b8ff" stroke="#63b8ff" points="437.47,-294.88 435.44,-284.48 430.54,-293.88 437.47,-294.88"/>
</a>
</g>
</g>
<!-- Node4 -->
<g id="Node000004" class="node">
<title>Node4</title>
<g id="a_Node000004"><a xlink:href="classjuce_1_1MultiDocumentPanel.html#aa5b47a5618245e8e9036fe18c4972e04" target="_top" xlink:title=" ">
<polygon fill="white" stroke="#666666" points="128.5,-240.5 0,-240.5 0,-210 128.5,-210 128.5,-240.5"/>
<text xml:space="preserve" text-anchor="start" x="8" y="-227" font-family="Helvetica,sans-Serif" font-size="10.00">juce::MultiDocumentPanel</text>
<text xml:space="preserve" text-anchor="middle" x="64.25" y="-215.75" font-family="Helvetica,sans-Serif" font-size="10.00">::closeDocumentAsync</text>
</a>
</g>
</g>
<!-- Node3&#45;&gt;Node4 -->
<g id="edge4_Node000003_Node000004" class="edge">
<title>Node3&#45;&gt;Node4</title>
<g id="a_edge4_Node000003_Node000004"><a xlink:title=" ">
<path fill="none" stroke="#63b8ff" d="M329.57,-258C269.44,-250.55 185.85,-240.19 128.88,-233.13"/>
<polygon fill="#63b8ff" stroke="#63b8ff" points="329.03,-261.46 339.38,-259.21 329.89,-254.51 329.03,-261.46"/>
</a>
</g>
</g>
<!-- Node3&#45;&gt;Node5 -->
<g id="edge7_Node000003_Node000005" class="edge">
<title>Node3&#45;&gt;Node5</title>
<g id="a_edge7_Node000003_Node000005"><a xlink:title=" ">
<path fill="none" stroke="#63b8ff" d="M352.24,-247.63C327.86,-238.43 299.2,-227.62 276.28,-218.97"/>
<polygon fill="#63b8ff" stroke="#63b8ff" points="350.75,-250.8 361.34,-251.06 353.22,-244.25 350.75,-250.8"/>
</a>
</g>
</g>
<!-- Node6 -->
<g id="Node000006" class="node">
<title>Node6</title>
<g id="a_Node000006"><a xlink:href="classjuce_1_1MultiDocumentPanel.html#ae72e77c8d9304a4a925705a994f7956e" target="_top" xlink:title=" ">
<polygon fill="white" stroke="#666666" points="297.88,-304.5 169.38,-304.5 169.38,-274 297.88,-274 297.88,-304.5"/>
<text xml:space="preserve" text-anchor="start" x="177.38" y="-291" font-family="Helvetica,sans-Serif" font-size="10.00">juce::MultiDocumentPanel</text>
<text xml:space="preserve" text-anchor="middle" x="233.62" y="-279.75" font-family="Helvetica,sans-Serif" font-size="10.00">::~MultiDocumentPanel</text>
</a>
</g>
</g>
<!-- Node3&#45;&gt;Node6 -->
<g id="edge9_Node000003_Node000006" class="edge">
<title>Node3&#45;&gt;Node6</title>
<g id="a_edge9_Node000003_Node000006"><a xlink:title=" ">
<path fill="none" stroke="#63b8ff" d="M329.45,-276.95C319.08,-278.3 308.49,-279.67 298.34,-280.99"/>
<polygon fill="#63b8ff" stroke="#63b8ff" points="329.64,-280.46 339.1,-275.7 328.74,-273.51 329.64,-280.46"/>
</a>
</g>
</g>
<!-- Node4&#45;&gt;Node4 -->
<g id="edge5_Node000004_Node000004" class="edge">
<title>Node4&#45;&gt;Node4</title>
<g id="a_edge5_Node000004_Node000004"><a xlink:title=" ">
<path fill="none" stroke="#63b8ff" d="M92.65,-252.2C88.01,-255.97 78.54,-258.5 64.25,-258.5 38.12,-258.5 28.11,-250.06 34.24,-240.99"/>
<polygon fill="#63b8ff" stroke="#63b8ff" points="96.09,-252.88 94.05,-242.48 89.16,-251.89 96.09,-252.88"/>
</a>
</g>
</g>
<!-- Node5&#45;&gt;Node4 -->
<g id="edge8_Node000005_Node000004" class="edge">
<title>Node5&#45;&gt;Node4</title>
<g id="a_edge8_Node000005_Node000004"><a xlink:title=" ">
<path fill="none" stroke="#63b8ff" d="M152.78,-213.74C144.75,-214.8 136.68,-215.86 128.86,-216.89"/>
<polygon fill="#63b8ff" stroke="#63b8ff" points="153.11,-217.23 162.56,-212.46 152.19,-210.29 153.11,-217.23"/>
</a>
</g>
</g>
<!-- Node6&#45;&gt;Node6 -->
<g id="edge10_Node000006_Node000006" class="edge">
<title>Node6&#45;&gt;Node6</title>
<g id="a_edge10_Node000006_Node000006"><a xlink:title=" ">
<path fill="none" stroke="#63b8ff" d="M262.03,-316.2C257.39,-319.97 247.92,-322.5 233.62,-322.5 207.49,-322.5 197.49,-314.06 203.61,-304.99"/>
<polygon fill="#63b8ff" stroke="#63b8ff" points="265.47,-316.88 263.42,-306.48 258.54,-315.89 265.47,-316.88"/>
</a>
</g>
</g>
<!-- Node7&#45;&gt;Node5 -->
<g id="edge13_Node000007_Node000005" class="edge">
<title>Node7&#45;&gt;Node5</title>
<g id="a_edge13_Node000007_Node000005"><a xlink:title=" ">
<path fill="none" stroke="#63b8ff" d="M369.29,-37.3C358.92,-44.62 347.9,-53.22 338.75,-62.25 297.8,-102.64 260.56,-160.24 243.87,-187.63"/>
<polygon fill="#63b8ff" stroke="#63b8ff" points="371.03,-40.35 377.31,-31.82 367.08,-34.57 371.03,-40.35"/>
</a>
</g>
</g>
<!-- Node7&#45;&gt;Node7 -->
<g id="edge12_Node000007_Node000007" class="edge">
<title>Node7&#45;&gt;Node7</title>
<g id="a_edge12_Node000007_Node000007"><a xlink:title=" ">
<path fill="none" stroke="#63b8ff" d="M434.03,-42.2C429.33,-45.97 419.73,-48.5 405.25,-48.5 378.77,-48.5 368.63,-40.06 374.84,-30.99"/>
<polygon fill="#63b8ff" stroke="#63b8ff" points="437.47,-42.88 435.44,-32.48 430.54,-41.88 437.47,-42.88"/>
</a>
</g>
</g>
<!-- Node8&#45;&gt;Node5 -->
<g id="edge23_Node000008_Node000005" class="edge">
<title>Node8&#45;&gt;Node5</title>
<g id="a_edge23_Node000008_Node000005"><a xlink:title=" ">
<path fill="none" stroke="#63b8ff" d="M496.4,-219.17C437.15,-215.56 358.65,-210.79 303.11,-207.41"/>
<polygon fill="#63b8ff" stroke="#63b8ff" points="495.89,-222.64 506.09,-219.76 496.32,-215.66 495.89,-222.64"/>
</a>
</g>
</g>
<!-- Node8&#45;&gt;Node8 -->
<g id="edge22_Node000008_Node000008" class="edge">
<title>Node8&#45;&gt;Node8</title>
<g id="a_edge22_Node000008_Node000008"><a xlink:title=" ">
<path fill="none" stroke="#63b8ff" d="M610.47,-251.2C605.65,-254.97 595.83,-257.5 581,-257.5 553.88,-257.5 543.5,-249.06 549.86,-239.99"/>
<polygon fill="#63b8ff" stroke="#63b8ff" points="613.91,-251.89 611.92,-241.48 606.99,-250.86 613.91,-251.89"/>
</a>
</g>
</g>
<!-- Node9 -->
<g id="Node000009" class="node">
<title>Node9</title>
<g id="a_Node000009"><a xlink:href="classjuce_1_1MultiDocumentPanel.html#ad627cacb2e43701b38aa601f2fbec61d" target="_top" xlink:title=" ">
<polygon fill="white" stroke="#666666" points="469.5,-349.5 341,-349.5 341,-319 469.5,-319 469.5,-349.5"/>
<text xml:space="preserve" text-anchor="start" x="349" y="-336" font-family="Helvetica,sans-Serif" font-size="10.00">juce::MultiDocumentPanel</text>
<text xml:space="preserve" text-anchor="middle" x="405.25" y="-324.75" font-family="Helvetica,sans-Serif" font-size="10.00">::addWindow</text>
</a>
</g>
</g>
<!-- Node8&#45;&gt;Node9 -->
<g id="edge15_Node000008_Node000009" class="edge">
<title>Node8&#45;&gt;Node9</title>
<g id="a_edge15_Node000008_Node000009"><a xlink:title=" ">
<path fill="none" stroke="#63b8ff" d="M538.73,-245.68C528.17,-251.99 517.14,-259.34 507.75,-267.25 488.94,-283.08 491.85,-295.1 471.75,-309.25 466.77,-312.75 461.24,-315.84 455.56,-318.54"/>
<polygon fill="#63b8ff" stroke="#63b8ff" points="540.42,-248.75 547.34,-240.72 536.93,-242.68 540.42,-248.75"/>
</a>
</g>
</g>
<!-- Node9&#45;&gt;Node2 -->
<g id="edge21_Node000009_Node000002" class="edge">
<title>Node9&#45;&gt;Node2</title>
<g id="a_edge21_Node000009_Node000002"><a xlink:title=" ">
<path fill="none" stroke="#63b8ff" d="M481.32,-350.71C532.71,-358.09 600.94,-360 654.25,-333.25 708.66,-305.95 742.77,-236.63 755.77,-205.63"/>
<polygon fill="#63b8ff" stroke="#63b8ff" points="481.87,-347.26 471.45,-349.18 480.8,-354.17 481.87,-347.26"/>
</a>
</g>
</g>
<!-- Node9&#45;&gt;Node9 -->
<g id="edge20_Node000009_Node000009" class="edge">
<title>Node9&#45;&gt;Node9</title>
<g id="a_edge20_Node000009_Node000009"><a xlink:title=" ">
<path fill="none" stroke="#63b8ff" d="M434.03,-361.2C429.33,-364.97 419.73,-367.5 405.25,-367.5 378.77,-367.5 368.63,-359.06 374.84,-349.99"/>
<polygon fill="#63b8ff" stroke="#63b8ff" points="437.47,-361.88 435.44,-351.48 430.54,-360.88 437.47,-361.88"/>
</a>
</g>
</g>
<!-- Node10 -->
<g id="Node000010" class="node">
<title>Node10</title>
<g id="a_Node000010"><a xlink:href="classjuce_1_1MultiDocumentPanel.html#ab7810b44235cfcaa37bc2d82262dfc32" target="_top" xlink:title=" ">
<polygon fill="white" stroke="#666666" points="297.88,-410.5 169.38,-410.5 169.38,-380 297.88,-380 297.88,-410.5"/>
<text xml:space="preserve" text-anchor="start" x="177.38" y="-397" font-family="Helvetica,sans-Serif" font-size="10.00">juce::MultiDocumentPanel</text>
<text xml:space="preserve" text-anchor="middle" x="233.62" y="-385.75" font-family="Helvetica,sans-Serif" font-size="10.00">::addDocument</text>
</a>
</g>
</g>
<!-- Node9&#45;&gt;Node10 -->
<g id="edge16_Node000009_Node000010" class="edge">
<title>Node9&#45;&gt;Node10</title>
<g id="a_edge16_Node000009_Node000010"><a xlink:title=" ">
<path fill="none" stroke="#63b8ff" d="M349.85,-353.81C326.67,-362.15 300,-371.74 278.16,-379.59"/>
<polygon fill="#63b8ff" stroke="#63b8ff" points="350.92,-357.15 359.14,-350.47 348.55,-350.56 350.92,-357.15"/>
</a>
</g>
</g>
<!-- Node10&#45;&gt;Node10 -->
<g id="edge17_Node000010_Node000010" class="edge">
<title>Node10&#45;&gt;Node10</title>
<g id="a_edge17_Node000010_Node000010"><a xlink:title=" ">
<path fill="none" stroke="#63b8ff" d="M262.03,-422.2C257.39,-425.97 247.92,-428.5 233.62,-428.5 207.49,-428.5 197.49,-420.06 203.61,-410.99"/>
<polygon fill="#63b8ff" stroke="#63b8ff" points="265.47,-422.88 263.42,-412.48 258.54,-421.89 265.47,-422.88"/>
</a>
</g>
</g>
<!-- Node10&#45;&gt;Node11 -->
<g id="edge18_Node000010_Node000011" class="edge">
<title>Node10&#45;&gt;Node11</title>
<g id="a_edge18_Node000010_Node000011"><a xlink:title=" ">
<path fill="none" stroke="#63b8ff" d="M158.04,-408.62C148.31,-410.36 138.42,-412.14 128.89,-413.84"/>
<polygon fill="#63b8ff" stroke="#63b8ff" points="158.63,-412.07 167.86,-406.86 157.4,-405.18 158.63,-412.07"/>
</a>
</g>
</g>
<!-- Node11&#45;&gt;Node11 -->
<g id="edge19_Node000011_Node000011" class="edge">
<title>Node11&#45;&gt;Node11</title>
<g id="a_edge19_Node000011_Node000011"><a xlink:title=" ">
<path fill="none" stroke="#63b8ff" d="M92.65,-452.2C88.01,-455.97 78.54,-458.5 64.25,-458.5 38.12,-458.5 28.11,-450.06 34.24,-440.99"/>
<polygon fill="#63b8ff" stroke="#63b8ff" points="96.09,-452.88 94.05,-442.48 89.16,-451.89 96.09,-452.88"/>
</a>
</g>
</g>
<!-- Node12&#45;&gt;Node3 -->
<g id="edge25_Node000012_Node000003" class="edge">
<title>Node12&#45;&gt;Node3</title>
<g id="a_edge25_Node000012_Node000003"><a xlink:title=" ">
<path fill="none" stroke="#63b8ff" d="M505.16,-280.91C493.43,-279.29 481.4,-277.63 469.95,-276.05"/>
<polygon fill="#63b8ff" stroke="#63b8ff" points="504.4,-284.34 514.79,-282.24 505.36,-277.41 504.4,-284.34"/>
</a>
</g>
</g>
<!-- Node12&#45;&gt;Node12 -->
<g id="edge26_Node000012_Node000012" class="edge">
<title>Node12&#45;&gt;Node12</title>
<g id="a_edge26_Node000012_Node000012"><a xlink:title=" ">
<path fill="none" stroke="#63b8ff" d="M610.47,-318.2C605.65,-321.97 595.83,-324.5 581,-324.5 553.88,-324.5 543.5,-316.06 549.86,-306.99"/>
<polygon fill="#63b8ff" stroke="#63b8ff" points="613.91,-318.89 611.92,-308.48 606.99,-317.86 613.91,-318.89"/>
</a>
</g>
</g>
<!-- Node13&#45;&gt;Node2 -->
<g id="edge32_Node000013_Node000002" class="edge">
<title>Node13&#45;&gt;Node2</title>
<g id="a_edge32_Node000013_Node000002"><a xlink:title=" ">
<path fill="none" stroke="#63b8ff" d="M644.94,-175.28C659.48,-178.25 675.05,-181.16 689.93,-183.69"/>
<polygon fill="#63b8ff" stroke="#63b8ff" points="646.04,-171.93 635.54,-173.31 644.6,-178.78 646.04,-171.93"/>
</a>
</g>
</g>
<!-- Node13&#45;&gt;Node13 -->
<g id="edge33_Node000013_Node000013" class="edge">
<title>Node13&#45;&gt;Node13</title>
<g id="a_edge33_Node000013_Node000013"><a xlink:title=" ">
<path fill="none" stroke="#63b8ff" d="M610.47,-184.2C605.65,-187.97 595.83,-190.5 581,-190.5 553.88,-190.5 543.5,-182.06 549.86,-172.99"/>
<polygon fill="#63b8ff" stroke="#63b8ff" points="613.91,-184.89 611.92,-174.48 606.99,-183.86 613.91,-184.89"/>
</a>
</g>
</g>
<!-- Node14&#45;&gt;Node3 -->
<g id="edge36_Node000014_Node000003" class="edge">
<title>Node14&#45;&gt;Node3</title>
<g id="a_edge36_Node000014_Node000003"><a xlink:title=" ">
<path fill="none" stroke="#63b8ff" d="M552.57,-372.66C530.98,-355.14 499.93,-330.51 471.75,-310.25 458.61,-300.8 443.53,-290.85 431.16,-282.9"/>
<polygon fill="#63b8ff" stroke="#63b8ff" points="550.08,-375.14 560.04,-378.75 554.5,-369.72 550.08,-375.14"/>
</a>
</g>
</g>
<!-- Node14&#45;&gt;Node10 -->
<g id="edge35_Node000014_Node000010" class="edge">
<title>Node14&#45;&gt;Node10</title>
<g id="a_edge35_Node000014_Node000010"><a xlink:title=" ">
<path fill="none" stroke="#63b8ff" d="M505.02,-395.25C443.29,-395.25 356.71,-395.25 298.29,-395.25"/>
<polygon fill="#63b8ff" stroke="#63b8ff" points="504.74,-398.75 514.74,-395.25 504.74,-391.75 504.74,-398.75"/>
</a>
</g>
</g>
<!-- Node14&#45;&gt;Node14 -->
<g id="edge37_Node000014_Node000014" class="edge">
<title>Node14&#45;&gt;Node14</title>
<g id="a_edge37_Node000014_Node000014"><a xlink:title=" ">
<path fill="none" stroke="#63b8ff" d="M610.47,-422.2C605.65,-425.97 595.83,-428.5 581,-428.5 553.88,-428.5 543.5,-420.06 549.86,-410.99"/>
<polygon fill="#63b8ff" stroke="#63b8ff" points="613.91,-422.89 611.92,-412.48 606.99,-421.86 613.91,-422.89"/>
</a>
</g>
</g>
</g>
</svg>
