<?xml version="1.0" encoding="UTF-8" standalone="no"?>
<!DOCTYPE svg PUBLIC "-//W3C//DTD SVG 1.1//EN"
 "http://www.w3.org/Graphics/SVG/1.1/DTD/svg11.dtd">
<!-- Generated by graphviz version 14.0.2 (0)
 -->
<!-- Title: juce::Time::getMonthName Pages: 1 -->
<!--zoomable 82 -->

<svg id="main" version="1.1" xmlns="http://www.w3.org/2000/svg" xmlns:xlink="http://www.w3.org/1999/xlink" xml:space="preserve" onload="init(evt)">

<style type="text/css"><![CDATA[
.node, .edge {opacity: 0.7;}
.node.selected, .edge.selected {opacity: 1;}
.edge:hover path { stroke: red; }
.edge:hover polygon { stroke: red; fill: red; }
]]></style>

<defs>
  <circle id="rim" cx="0" cy="0" r="7"/>
  <circle id="rim2" cx="0" cy="0" r="3.5"/>
  <g id="zoomPlus">
    <use xlink:href="#rim" fill="#404040"><set attributeName="fill" to="#808080" begin="zoomplus.mouseover" end="zoomplus.mouseout"/></use>
    <path d="M-4,0h8M0,-4v8" fill="none" stroke="white" stroke-width="1.5" pointer-events="none"/>
  </g>
  <g id="zoomMin">
    <use xlink:href="#rim" fill="#404040"><set attributeName="fill" to="#808080" begin="zoomminus.mouseover" end="zoomminus.mouseout"/></use>
    <path d="M-4,0h8" fill="none" stroke="white" stroke-width="1.5" pointer-events="none"/>
  </g>
  <g id="arrowUp" transform="translate(30 24)">
    <use xlink:href="#rim"/>
    <path pointer-events="none" fill="none" stroke="white" stroke-width="1.5" d="M0,-3.0v7 M-2.5,-0.5L0,-3.0L2.5,-0.5"/>
  </g>
  <g id="arrowRight" transform="rotate(90) translate(36 -43)">
    <use xlink:href="#rim"/>
    <path pointer-events="none" fill="none" stroke="white" stroke-width="1.5" d="M0,-3.0v7 M-2.5,-0.5L0,-3.0L2.5,-0.5"/>
  </g>
  <g id="arrowDown" transform="rotate(180) translate(-30 -48)">
    <use xlink:href="#rim"/>
    <path pointer-events="none" fill="none" stroke="white" stroke-width="1.5" d="M0,-3.0v7 M-2.5,-0.5L0,-3.0L2.5,-0.5"/>
  </g>
  <g id="arrowLeft" transform="rotate(270) translate(-36 17)">
    <use xlink:href="#rim"/>
    <path pointer-events="none" fill="none" stroke="white" stroke-width="1.5" d="M0,-3.0v7 M-2.5,-0.5L0,-3.0L2.5,-0.5"/>
  </g>
  <g id="resetDef">
    <use xlink:href="#rim2" fill="#404040"><set attributeName="fill" to="#808080" begin="reset.mouseover" end="reset.mouseout"/></use>
  </g>
</defs>
<script type="application/ecmascript">
var viewWidth = 533;
var viewHeight = 82;
var sectionId = 'dynsection-43';
</script>
<script type="application/ecmascript" xlink:href="svg.min.js"/>
<svg id="graph" class="graph">
<g id="viewport">
<title>juce::Time::getMonthName</title>
<!-- Node1 -->
<g id="Node000001" class="node">
<title>Node1</title>
<g id="a_Node000001"><a xlink:title=" ">
<polygon fill="#999999" stroke="#666666" points="131.5,-46.25 0,-46.25 0,-27 131.5,-27 131.5,-46.25"/>
<text xml:space="preserve" text-anchor="middle" x="65.75" y="-32.75" font-family="Helvetica,sans-Serif" font-size="10.00">juce::Time::getMonthName</text>
</a>
</g>
</g>
<!-- Node1&#45;&gt;Node1 -->
<g id="edge8_Node000001_Node000001" class="edge">
<title>Node1&#45;&gt;Node1</title>
<g id="a_edge8_Node000001_Node000001"><a xlink:title=" ">
<path fill="none" stroke="#63b8ff" d="M41.58,-46.54C30.56,-55.15 38.61,-64.25 65.75,-64.25 81.01,-64.25 90.24,-61.37 93.43,-57.32"/>
<polygon fill="#63b8ff" stroke="#63b8ff" points="96.81,-56.4 90.39,-47.98 90.16,-58.57 96.81,-56.4"/>
</a>
</g>
</g>
<!-- Node2 -->
<g id="Node000002" class="node">
<title>Node2</title>
<g id="a_Node000002"><a xlink:href="classjuce_1_1Time.html#a7b183122438a29eba618c72c763c2d5d" target="_top" xlink:title=" ">
<polygon fill="white" stroke="#666666" points="272.75,-46.25 167.5,-46.25 167.5,-27 272.75,-27 272.75,-46.25"/>
<text xml:space="preserve" text-anchor="middle" x="220.12" y="-32.75" font-family="Helvetica,sans-Serif" font-size="10.00">juce::Time::getMonth</text>
</a>
</g>
</g>
<!-- Node1&#45;&gt;Node2 -->
<g id="edge1_Node000001_Node000002" class="edge">
<title>Node1&#45;&gt;Node2</title>
<g id="a_edge1_Node000001_Node000002"><a xlink:title=" ">
<path fill="none" stroke="#63b8ff" d="M131.81,-36.62C139.75,-36.62 147.85,-36.62 155.76,-36.62"/>
<polygon fill="#63b8ff" stroke="#63b8ff" points="155.65,-40.13 165.65,-36.63 155.65,-33.13 155.65,-40.13"/>
</a>
</g>
</g>
<!-- Node2&#45;&gt;Node2 -->
<g id="edge2_Node000002_Node000002" class="edge">
<title>Node2&#45;&gt;Node2</title>
<g id="a_edge2_Node000002_Node000002"><a xlink:title=" ">
<path fill="none" stroke="#63b8ff" d="M198.54,-46.54C188.69,-55.15 195.89,-64.25 220.12,-64.25 233.38,-64.25 241.54,-61.53 244.6,-57.65"/>
<polygon fill="#63b8ff" stroke="#63b8ff" points="247.99,-56.8 242.09,-48 241.22,-58.56 247.99,-56.8"/>
</a>
</g>
</g>
<!-- Node3 -->
<g id="Node000003" class="node">
<title>Node3</title>
<g id="a_Node000003"><a xlink:href="namespacejuce_1_1TimeHelpers.html#ae5b88232e728d97b72e9fb5cf76b86b0" target="_top" xlink:title=" ">
<polygon fill="white" stroke="#666666" points="407.25,-51.88 308.75,-51.88 308.75,-21.38 407.25,-21.38 407.25,-51.88"/>
<text xml:space="preserve" text-anchor="start" x="316.75" y="-38.38" font-family="Helvetica,sans-Serif" font-size="10.00">juce::TimeHelpers::</text>
<text xml:space="preserve" text-anchor="middle" x="358" y="-27.12" font-family="Helvetica,sans-Serif" font-size="10.00">millisToLocal</text>
</a>
</g>
</g>
<!-- Node2&#45;&gt;Node3 -->
<g id="edge3_Node000002_Node000003" class="edge">
<title>Node2&#45;&gt;Node3</title>
<g id="a_edge3_Node000002_Node000003"><a xlink:title=" ">
<path fill="none" stroke="#63b8ff" d="M272.88,-36.62C280.83,-36.62 289.1,-36.62 297.21,-36.62"/>
<polygon fill="#63b8ff" stroke="#63b8ff" points="297,-40.13 307,-36.63 297,-33.13 297,-40.13"/>
</a>
</g>
</g>
<!-- Node3&#45;&gt;Node3 -->
<g id="edge5_Node000003_Node000003" class="edge">
<title>Node3&#45;&gt;Node3</title>
<g id="a_edge5_Node000003_Node000003"><a xlink:title=" ">
<path fill="none" stroke="#63b8ff" d="M335.69,-52.36C331.14,-61.43 338.58,-69.88 358,-69.88 368.62,-69.88 375.66,-67.35 379.11,-63.58"/>
<polygon fill="#63b8ff" stroke="#63b8ff" points="382.56,-64.18 380.14,-53.87 375.6,-63.44 382.56,-64.18"/>
</a>
</g>
</g>
<!-- Node4 -->
<g id="Node000004" class="node">
<title>Node4</title>
<g id="a_Node000004"><a xlink:href="unzipfx-carla-control_2unix_2unxcfg_8h.html#a1f836073d4e03ffd6ee41147f3288e6d" target="_top" xlink:title=" ">
<polygon fill="white" stroke="#666666" points="511.38,-74.25 456.38,-74.25 456.38,-55 511.38,-55 511.38,-74.25"/>
<text xml:space="preserve" text-anchor="middle" x="483.88" y="-60.75" font-family="Helvetica,sans-Serif" font-size="10.00">localtime</text>
</a>
</g>
</g>
<!-- Node3&#45;&gt;Node4 -->
<g id="edge4_Node000003_Node000004" class="edge">
<title>Node3&#45;&gt;Node4</title>
<g id="a_edge4_Node000003_Node000004"><a xlink:title=" ">
<path fill="none" stroke="#63b8ff" d="M407.6,-47.61C420.14,-50.44 433.43,-53.45 445.31,-56.13"/>
<polygon fill="#63b8ff" stroke="#63b8ff" points="444.19,-59.47 454.71,-58.26 445.73,-52.64 444.19,-59.47"/>
</a>
</g>
</g>
<!-- Node5 -->
<g id="Node000005" class="node">
<title>Node5</title>
<g id="a_Node000005"><a xlink:href="namespacejuce.html#a11d8fa1921494e90708d443dea17a1b8" target="_top" xlink:title=" ">
<polygon fill="white" stroke="#666666" points="524.5,-19.25 443.25,-19.25 443.25,0 524.5,0 524.5,-19.25"/>
<text xml:space="preserve" text-anchor="middle" x="483.88" y="-5.75" font-family="Helvetica,sans-Serif" font-size="10.00">juce::zerostruct</text>
</a>
</g>
</g>
<!-- Node3&#45;&gt;Node5 -->
<g id="edge6_Node000003_Node000005" class="edge">
<title>Node3&#45;&gt;Node5</title>
<g id="a_edge6_Node000003_Node000005"><a xlink:title=" ">
<path fill="none" stroke="#63b8ff" d="M407.6,-26.03C415.53,-24.3 423.76,-22.51 431.74,-20.77"/>
<polygon fill="#63b8ff" stroke="#63b8ff" points="432.3,-24.23 441.32,-18.68 430.81,-17.39 432.3,-24.23"/>
</a>
</g>
</g>
<!-- Node5&#45;&gt;Node5 -->
<g id="edge7_Node000005_Node000005" class="edge">
<title>Node5&#45;&gt;Node5</title>
<g id="a_edge7_Node000005_Node000005"><a xlink:title=" ">
<path fill="none" stroke="#63b8ff" d="M464.17,-19.54C455.18,-28.15 461.75,-37.25 483.88,-37.25 495.98,-37.25 503.42,-34.53 506.22,-30.65"/>
<polygon fill="#63b8ff" stroke="#63b8ff" points="509.64,-29.93 503.93,-21.01 502.83,-31.55 509.64,-29.93"/>
</a>
</g>
</g>
</g>
</svg>

<g id="navigator" transform="translate(0 0)" fill="#404254">
  <rect fill="#f2f5e9" fill-opacity="0.5" stroke="#606060" stroke-width=".5" x="0" y="0" width="60" height="60"/>
  <use id="zoomplus" xlink:href="#zoomPlus" x="17" y="9" onmousedown="handleZoom(evt,'in')"/>
  <use id="zoomminus" xlink:href="#zoomMin" x="42" y="9" onmousedown="handleZoom(evt,'out')"/>
  <use id="reset" xlink:href="#resetDef" x="30" y="36" onmousedown="handleReset()"/>
   <use id="arrowup" xlink:href="#arrowUp" x="0" y="0" onmousedown="handlePan(0,-1)"/>
  <use id="arrowright" xlink:href="#arrowRight" x="0" y="0" onmousedown="handlePan(1,0)"/>
  <use id="arrowdown" xlink:href="#arrowDown" x="0" y="0" onmousedown="handlePan(0,1)"/>
  <use id="arrowleft" xlink:href="#arrowLeft" x="0" y="0" onmousedown="handlePan(-1,0)"/>
</g>
<svg viewBox="0 0 15 15" width="100%" height="30px" preserveAspectRatio="xMaxYMin meet">
 <g id="arrow_out" transform="scale(0.3 0.3)">
  <a xlink:href="classjuce_1_1Time_ac2c4b6fc9298a723df2dee10238687b0_cgraph_org.svg" target="_base">
   <rect id="button" ry="5" rx="5" y="6" x="6" height="38" width="38"
        fill="#f2f5e9" fill-opacity="0.5" stroke="#606060" stroke-width="1.0"/>
   <path id="arrow"
     d="M 11.500037,31.436501 C 11.940474,20.09759 22.043105,11.32322 32.158766,21.979434 L 37.068811,17.246167 C 37.068811,17.246167 37.088388,32 37.088388,32 L 22.160133,31.978069 C 22.160133,31.978069 26.997745,27.140456 26.997745,27.140456 C 18.528582,18.264221 13.291696,25.230495 11.500037,31.436501 z"
     style="fill:#404040;"/>
  </a>
 </g>
</svg>

<style type='text/css'>
<![CDATA[
[data-mouse-over-selected='false'] { opacity: 0.7; }
[data-mouse-over-selected='true']  { opacity: 1.0; }
]]>
</style>
<script type="application/ecmascript"><![CDATA[
document.addEventListener('DOMContentLoaded', (event) => {
  highlightEdges();
  highlightAdjacentNodes();
});
]]></script>
</svg>
