<?xml version="1.0" encoding="UTF-8" standalone="no"?>
<!DOCTYPE svg PUBLIC "-//W3C//DTD SVG 1.1//EN"
 "http://www.w3.org/Graphics/SVG/1.1/DTD/svg11.dtd">
<!-- Generated by graphviz version 14.0.2 (0)
 -->
<!-- Title: lmms::gui::SlewDistortionHelpView Pages: 1 -->
<svg width="137pt" height="170pt"
 viewBox="0.00 0.00 137.00 170.00" xmlns="http://www.w3.org/2000/svg" xmlns:xlink="http://www.w3.org/1999/xlink">
<g id="graph0" class="graph" transform="scale(1 1) rotate(0) translate(4 166)">
<title>lmms::gui::SlewDistortionHelpView</title>
<!-- Node1 -->
<g id="Node000001" class="node">
<title>Node1</title>
<g id="a_Node000001"><a xlink:title=" ">
<polygon fill="#999999" stroke="none" points="129,-76.25 0,-76.25 0,0 129,0 129,-76.25"/>
<text xml:space="preserve" text-anchor="start" x="10.12" y="-62.75" font-family="Helvetica,sans-Serif" font-size="10.00">lmms::gui::SlewDistortion</text>
<text xml:space="preserve" text-anchor="start" x="43.5" y="-51.5" font-family="Helvetica,sans-Serif" font-size="10.00">HelpView</text>
<text xml:space="preserve" text-anchor="start" x="5.5" y="-36.25" font-family="Helvetica,sans-Serif" font-size="10.00">&#45;</text>
<text xml:space="preserve" text-anchor="start" x="14" y="-36.25" font-family="Helvetica,sans-Serif" font-size="10.00">s_helpText</text>
<text xml:space="preserve" text-anchor="start" x="4" y="-21" font-family="Helvetica,sans-Serif" font-size="10.00">+</text>
<text xml:space="preserve" text-anchor="start" x="14" y="-21" font-family="Helvetica,sans-Serif" font-size="10.00">getInstance()</text>
<text xml:space="preserve" text-anchor="start" x="5.5" y="-5.75" font-family="Helvetica,sans-Serif" font-size="10.00">&#45;</text>
<text xml:space="preserve" text-anchor="start" x="14" y="-5.75" font-family="Helvetica,sans-Serif" font-size="10.00">SlewDistortionHelpView()</text>
<polygon fill="#666666" stroke="#666666" points="0,-47.75 0,-47.75 129,-47.75 129,-47.75 0,-47.75"/>
<polygon fill="#666666" stroke="#666666" points="0,-32.5 0,-32.5 12,-32.5 12,-32.5 0,-32.5"/>
<polygon fill="#666666" stroke="#666666" points="12,-32.5 12,-32.5 129,-32.5 129,-32.5 12,-32.5"/>
<polygon fill="none" stroke="#666666" points="0,0 0,-76.25 129,-76.25 129,0 0,0"/>
</a>
</g>
</g>
<!-- Node2 -->
<g id="Node000002" class="node">
<title>Node2</title>
<g id="a_Node000002"><a xlink:title=" ">
<polygon fill="white" stroke="none" points="89.88,-162 39.12,-162 39.12,-112.25 89.88,-112.25 89.88,-162"/>
<text xml:space="preserve" text-anchor="start" x="43.12" y="-148.5" font-family="Helvetica,sans-Serif" font-size="10.00">QTextEdit</text>
<text xml:space="preserve" text-anchor="start" x="63" y="-133.25" font-family="Helvetica,sans-Serif" font-size="10.00"> </text>
<text xml:space="preserve" text-anchor="start" x="63" y="-118" font-family="Helvetica,sans-Serif" font-size="10.00"> </text>
<polygon fill="#666666" stroke="#666666" points="39.12,-144.75 39.12,-144.75 89.88,-144.75 89.88,-144.75 39.12,-144.75"/>
<polygon fill="#666666" stroke="#666666" points="39.12,-129.5 39.12,-129.5 89.88,-129.5 89.88,-129.5 39.12,-129.5"/>
<polygon fill="none" stroke="#666666" points="39.12,-112.25 39.12,-162 89.88,-162 89.88,-112.25 39.12,-112.25"/>
</a>
</g>
</g>
<!-- Node2&#45;&gt;Node1 -->
<g id="edge1_Node000001_Node000002" class="edge">
<title>Node2&#45;&gt;Node1</title>
<g id="a_edge1_Node000001_Node000002"><a xlink:title=" ">
<path fill="none" stroke="#63b8ff" d="M64.5,-101.18C64.5,-93.01 64.5,-84.27 64.5,-76.01"/>
<polygon fill="none" stroke="#63b8ff" points="61,-101.13 64.5,-111.13 68,-101.13 61,-101.13"/>
</a>
</g>
</g>
</g>
</svg>
