<?xml version="1.0" encoding="UTF-8" standalone="no"?>
<!DOCTYPE svg PUBLIC "-//W3C//DTD SVG 1.1//EN"
 "http://www.w3.org/Graphics/SVG/1.1/DTD/svg11.dtd">
<!-- Generated by graphviz version 14.0.2 (0)
 -->
<!-- Title: lmms::gui::TrackView::getTrackSettingsWidget Pages: 1 -->
<svg width="310pt" height="186pt"
 viewBox="0.00 0.00 310.00 186.00" xmlns="http://www.w3.org/2000/svg" xmlns:xlink="http://www.w3.org/1999/xlink">

<svg id="main" version="1.1" xmlns="http://www.w3.org/2000/svg" xmlns:xlink="http://www.w3.org/1999/xlink" xml:space="preserve">

<style type="text/css"><![CDATA[
.node, .edge {opacity: 0.7;}
.node.selected, .edge.selected {opacity: 1;}
.edge:hover path { stroke: red; }
.edge:hover polygon { stroke: red; fill: red; }
]]></style>
<script type="application/ecmascript" xlink:href="svg.min.js"/>
<svg id="graph" class="graph">
<g id="graph0" class="graph" transform="scale(1 1) rotate(0) translate(4 181.5)">
<title>lmms::gui::TrackView::getTrackSettingsWidget</title>
<!-- Node1 -->
<g id="Node000001" class="node">
<title>Node1</title>
<g id="a_Node000001"><a xlink:title=" ">
<polygon fill="#999999" stroke="#666666" points="302,-103.5 177.25,-103.5 177.25,-73 302,-73 302,-103.5"/>
<text xml:space="preserve" text-anchor="start" x="185.25" y="-90" font-family="Helvetica,sans-Serif" font-size="10.00">lmms::gui::TrackView</text>
<text xml:space="preserve" text-anchor="middle" x="239.62" y="-78.75" font-family="Helvetica,sans-Serif" font-size="10.00">::getTrackSettingsWidget</text>
</a>
</g>
</g>
<!-- Node2 -->
<g id="Node000002" class="node">
<title>Node2</title>
<g id="a_Node000002"><a xlink:href="classlmms_1_1gui_1_1AutomationTrackView.html#abc256986c9c69fdbcd183a0426599945" target="_top" xlink:title=" ">
<polygon fill="white" stroke="#666666" points="139.75,-177.5 1.5,-177.5 1.5,-147 139.75,-147 139.75,-177.5"/>
<text xml:space="preserve" text-anchor="start" x="9.5" y="-164" font-family="Helvetica,sans-Serif" font-size="10.00">lmms::gui::AutomationTrack</text>
<text xml:space="preserve" text-anchor="middle" x="70.62" y="-152.75" font-family="Helvetica,sans-Serif" font-size="10.00">View::AutomationTrackView</text>
</a>
</g>
</g>
<!-- Node1&#45;&gt;Node2 -->
<g id="edge1_Node000001_Node000002" class="edge">
<title>Node1&#45;&gt;Node2</title>
<g id="a_edge1_Node000001_Node000002"><a xlink:title=" ">
<path fill="none" stroke="#63b8ff" d="M199.74,-109.18C182.12,-118.31 160.88,-128.83 141.25,-137.25 133.7,-140.49 125.57,-143.68 117.63,-146.63"/>
<polygon fill="#63b8ff" stroke="#63b8ff" points="201.08,-112.43 208.32,-104.69 197.84,-106.22 201.08,-112.43"/>
</a>
</g>
</g>
<!-- Node3 -->
<g id="Node000003" class="node">
<title>Node3</title>
<g id="a_Node000003"><a xlink:href="classlmms_1_1gui_1_1InstrumentTrackView.html#a859b7477c7def84c0d013529b8766e14" target="_top" xlink:title=" ">
<polygon fill="white" stroke="#666666" points="138.25,-128.5 3,-128.5 3,-98 138.25,-98 138.25,-128.5"/>
<text xml:space="preserve" text-anchor="start" x="11" y="-115" font-family="Helvetica,sans-Serif" font-size="10.00">lmms::gui::InstrumentTrack</text>
<text xml:space="preserve" text-anchor="middle" x="70.62" y="-103.75" font-family="Helvetica,sans-Serif" font-size="10.00">View::InstrumentTrackView</text>
</a>
</g>
</g>
<!-- Node1&#45;&gt;Node3 -->
<g id="edge2_Node000001_Node000003" class="edge">
<title>Node1&#45;&gt;Node3</title>
<g id="a_edge2_Node000001_Node000003"><a xlink:title=" ">
<path fill="none" stroke="#63b8ff" d="M165.67,-99.17C156.71,-100.51 147.57,-101.88 138.7,-103.21"/>
<polygon fill="#63b8ff" stroke="#63b8ff" points="166.05,-102.65 175.42,-97.71 165.01,-95.73 166.05,-102.65"/>
</a>
</g>
</g>
<!-- Node4 -->
<g id="Node000004" class="node">
<title>Node4</title>
<g id="a_Node000004"><a xlink:href="classlmms_1_1gui_1_1PatternTrackView.html#afb4100873f2f730ac97a8b5631369869" target="_top" xlink:title=" ">
<polygon fill="white" stroke="#666666" points="140.5,-79.5 0.75,-79.5 0.75,-49 140.5,-49 140.5,-79.5"/>
<text xml:space="preserve" text-anchor="start" x="8.75" y="-66" font-family="Helvetica,sans-Serif" font-size="10.00">lmms::gui::PatternTrackView</text>
<text xml:space="preserve" text-anchor="middle" x="70.62" y="-54.75" font-family="Helvetica,sans-Serif" font-size="10.00">::PatternTrackView</text>
</a>
</g>
</g>
<!-- Node1&#45;&gt;Node4 -->
<g id="edge3_Node000001_Node000004" class="edge">
<title>Node1&#45;&gt;Node4</title>
<g id="a_edge3_Node000001_Node000004"><a xlink:title=" ">
<path fill="none" stroke="#63b8ff" d="M165.79,-77.78C157.55,-76.6 149.16,-75.39 140.96,-74.21"/>
<polygon fill="#63b8ff" stroke="#63b8ff" points="165.02,-81.21 175.42,-79.17 166.02,-74.28 165.02,-81.21"/>
</a>
</g>
</g>
<!-- Node5 -->
<g id="Node000005" class="node">
<title>Node5</title>
<g id="a_Node000005"><a xlink:href="classlmms_1_1gui_1_1SampleTrackView.html#a2834655eda82850cd2f99fcece159350" target="_top" xlink:title=" ">
<polygon fill="white" stroke="#666666" points="141.25,-30.5 0,-30.5 0,0 141.25,0 141.25,-30.5"/>
<text xml:space="preserve" text-anchor="start" x="8" y="-17" font-family="Helvetica,sans-Serif" font-size="10.00">lmms::gui::SampleTrackView</text>
<text xml:space="preserve" text-anchor="middle" x="70.62" y="-5.75" font-family="Helvetica,sans-Serif" font-size="10.00">::SampleTrackView</text>
</a>
</g>
</g>
<!-- Node1&#45;&gt;Node5 -->
<g id="edge4_Node000001_Node000005" class="edge">
<title>Node1&#45;&gt;Node5</title>
<g id="a_edge4_Node000001_Node000005"><a xlink:title=" ">
<path fill="none" stroke="#63b8ff" d="M199.31,-67.61C181.75,-58.72 160.68,-48.5 141.25,-40.25 133.68,-37.04 125.55,-33.87 117.6,-30.92"/>
<polygon fill="#63b8ff" stroke="#63b8ff" points="197.35,-70.54 207.85,-71.97 200.54,-64.3 197.35,-70.54"/>
</a>
</g>
</g>
</g>
</svg>
</svg>

<style type='text/css'>
<![CDATA[
[data-mouse-over-selected='false'] { opacity: 0.7; }
[data-mouse-over-selected='true']  { opacity: 1.0; }
]]>
</style>
<script type="application/ecmascript"><![CDATA[
document.addEventListener('DOMContentLoaded', (event) => {
  highlightEdges();
  highlightAdjacentNodes();
});
]]></script>
</svg>
