<?xml version="1.0" encoding="UTF-8" standalone="no"?>
<!DOCTYPE svg PUBLIC "-//W3C//DTD SVG 1.1//EN"
 "http://www.w3.org/Graphics/SVG/1.1/DTD/svg11.dtd">
<!-- Generated by graphviz version 14.0.2 (0)
 -->
<!-- Title: juce::TreeView::getItemComponent Pages: 1 -->
<svg width="897pt" height="82pt"
 viewBox="0.00 0.00 897.00 82.00" xmlns="http://www.w3.org/2000/svg" xmlns:xlink="http://www.w3.org/1999/xlink">
<g id="graph0" class="graph" transform="scale(1 1) rotate(0) translate(4 77.88)">
<title>juce::TreeView::getItemComponent</title>
<!-- Node1 -->
<g id="Node000001" class="node">
<title>Node1</title>
<g id="a_Node000001"><a xlink:title=" ">
<polygon fill="#999999" stroke="#666666" points="166.75,-55.88 0,-55.88 0,-36.62 166.75,-36.62 166.75,-55.88"/>
<text xml:space="preserve" text-anchor="middle" x="83.38" y="-42.38" font-family="Helvetica,sans-Serif" font-size="10.00">juce::TreeView::getItemComponent</text>
</a>
</g>
</g>
<!-- Node1&#45;&gt;Node1 -->
<g id="edge3_Node000001_Node000001" class="edge">
<title>Node1&#45;&gt;Node1</title>
<g id="a_edge3_Node000001_Node000001"><a xlink:title=" ">
<path fill="none" stroke="#63b8ff" d="M53.34,-56.16C39.63,-64.77 49.65,-73.88 83.38,-73.88 102.87,-73.88 114.45,-70.83 118.09,-66.6"/>
<polygon fill="#63b8ff" stroke="#63b8ff" points="121.32,-65.24 114.03,-57.54 114.93,-68.1 121.32,-65.24"/>
</a>
</g>
</g>
<!-- Node2 -->
<g id="Node000002" class="node">
<title>Node2</title>
<g id="a_Node000002"><a xlink:href="classjuce_1_1Component.html#a8eca44b2145f084bd354edc8db696ad7" target="_top" xlink:title=" ">
<polygon fill="white" stroke="#666666" points="889.25,-55.88 747.25,-55.88 747.25,-36.62 889.25,-36.62 889.25,-55.88"/>
<text xml:space="preserve" text-anchor="middle" x="818.25" y="-42.38" font-family="Helvetica,sans-Serif" font-size="10.00">juce::Component::Component</text>
</a>
</g>
</g>
<!-- Node1&#45;&gt;Node2 -->
<g id="edge1_Node000001_Node000002" class="edge">
<title>Node1&#45;&gt;Node2</title>
<g id="a_edge1_Node000001_Node000002"><a xlink:title=" ">
<path fill="none" stroke="#63b8ff" d="M167.12,-53.23C179.07,-54.04 191.22,-54.75 202.75,-55.25 428.54,-65.07 485.52,-66.22 711.25,-55.25 719.18,-54.86 727.43,-54.36 735.67,-53.77"/>
<polygon fill="#63b8ff" stroke="#63b8ff" points="735.66,-57.29 745.37,-53.05 735.14,-50.3 735.66,-57.29"/>
</a>
</g>
</g>
<!-- Node3 -->
<g id="Node000003" class="node">
<title>Node3</title>
<g id="a_Node000003"><a xlink:href="classjuce_1_1TreeView.html#a6738ac8dd5a9abdf2aa124691a8c7cfe" target="_top" xlink:title=" ">
<polygon fill="white" stroke="#666666" points="347.75,-27.88 202.75,-27.88 202.75,-8.62 347.75,-8.62 347.75,-27.88"/>
<text xml:space="preserve" text-anchor="middle" x="275.25" y="-14.38" font-family="Helvetica,sans-Serif" font-size="10.00">juce::TreeView::TreeViewItem</text>
</a>
</g>
</g>
<!-- Node1&#45;&gt;Node3 -->
<g id="edge4_Node000001_Node000003" class="edge">
<title>Node1&#45;&gt;Node3</title>
<g id="a_edge4_Node000001_Node000003"><a xlink:title=" ">
<path fill="none" stroke="#63b8ff" d="M152.92,-36.14C166.5,-34.14 180.86,-32.02 194.77,-29.97"/>
<polygon fill="#63b8ff" stroke="#63b8ff" points="194.92,-33.49 204.3,-28.56 193.9,-26.56 194.92,-33.49"/>
</a>
</g>
</g>
<!-- Node2&#45;&gt;Node2 -->
<g id="edge2_Node000002_Node000002" class="edge">
<title>Node2&#45;&gt;Node2</title>
<g id="a_edge2_Node000002_Node000002"><a xlink:title=" ">
<path fill="none" stroke="#63b8ff" d="M791.67,-56.16C779.55,-64.77 788.41,-73.88 818.25,-73.88 835.03,-73.88 845.18,-70.99 848.69,-66.94"/>
<polygon fill="#63b8ff" stroke="#63b8ff" points="852,-65.82 845.34,-57.59 845.41,-68.18 852,-65.82"/>
</a>
</g>
</g>
<!-- Node3&#45;&gt;Node3 -->
<g id="edge10_Node000003_Node000003" class="edge">
<title>Node3&#45;&gt;Node3</title>
<g id="a_edge10_Node000003_Node000003"><a xlink:title=" ">
<path fill="none" stroke="#63b8ff" d="M245.27,-28.16C231.59,-36.77 241.59,-45.88 275.25,-45.88 294.71,-45.88 306.26,-42.83 309.9,-38.6"/>
<polygon fill="#63b8ff" stroke="#63b8ff" points="313.13,-37.24 305.85,-29.54 306.74,-40.1 313.13,-37.24"/>
</a>
</g>
</g>
<!-- Node4 -->
<g id="Node000004" class="node">
<title>Node4</title>
<g id="a_Node000004"><a xlink:href="classjuce_1_1TreeView.html#a55ade2c10e17d28a0cabacc2a01d80f9" target="_top" xlink:title=" ">
<polygon fill="white" stroke="#666666" points="549.75,-30.5 383.75,-30.5 383.75,0 549.75,0 549.75,-30.5"/>
<text xml:space="preserve" text-anchor="start" x="391.75" y="-17" font-family="Helvetica,sans-Serif" font-size="10.00">juce::TreeView::createAccessibility</text>
<text xml:space="preserve" text-anchor="middle" x="466.75" y="-5.75" font-family="Helvetica,sans-Serif" font-size="10.00">Handler</text>
</a>
</g>
</g>
<!-- Node3&#45;&gt;Node4 -->
<g id="edge5_Node000003_Node000004" class="edge">
<title>Node3&#45;&gt;Node4</title>
<g id="a_edge5_Node000003_Node000004"><a xlink:title=" ">
<path fill="none" stroke="#63b8ff" d="M348.16,-17.11C355.99,-16.99 364.04,-16.86 372.08,-16.73"/>
<polygon fill="#63b8ff" stroke="#63b8ff" points="371.96,-20.24 381.9,-16.58 371.85,-13.24 371.96,-20.24"/>
</a>
</g>
</g>
<!-- Node4&#45;&gt;Node4 -->
<g id="edge6_Node000004_Node000004" class="edge">
<title>Node4&#45;&gt;Node4</title>
<g id="a_edge6_Node000004_Node000004"><a xlink:title=" ">
<path fill="none" stroke="#63b8ff" d="M434.54,-30.99C427.97,-40.06 438.71,-48.5 466.75,-48.5 482.09,-48.5 492.25,-45.97 497.23,-42.2"/>
<polygon fill="#63b8ff" stroke="#63b8ff" points="500.66,-42.9 498.73,-32.48 493.75,-41.83 500.66,-42.9"/>
</a>
</g>
</g>
<!-- Node5 -->
<g id="Node000005" class="node">
<title>Node5</title>
<g id="a_Node000005"><a xlink:href="classjuce_1_1TreeView.html#a35d3a0ece59e56f6d9b6f247851fc08d" target="_top" xlink:title=" ">
<polygon fill="#fff0f0" stroke="red" points="711.25,-27.88 585.75,-27.88 585.75,-8.62 711.25,-8.62 711.25,-27.88"/>
<text xml:space="preserve" text-anchor="middle" x="648.5" y="-14.38" font-family="Helvetica,sans-Serif" font-size="10.00">juce::TreeView::TreeView</text>
</a>
</g>
</g>
<!-- Node4&#45;&gt;Node5 -->
<g id="edge7_Node000004_Node000005" class="edge">
<title>Node4&#45;&gt;Node5</title>
<g id="a_edge7_Node000004_Node000005"><a xlink:title=" ">
<path fill="none" stroke="#63b8ff" d="M550,-16.62C558.01,-16.76 566.1,-16.89 574.02,-17.02"/>
<polygon fill="#63b8ff" stroke="#63b8ff" points="573.9,-20.52 583.95,-17.19 574.01,-13.52 573.9,-20.52"/>
</a>
</g>
</g>
<!-- Node5&#45;&gt;Node2 -->
<g id="edge8_Node000005_Node000002" class="edge">
<title>Node5&#45;&gt;Node2</title>
<g id="a_edge8_Node000005_Node000002"><a xlink:title=" ">
<path fill="none" stroke="#63b8ff" d="M710.06,-28.36C721.58,-30.28 733.74,-32.31 745.57,-34.29"/>
<polygon fill="#63b8ff" stroke="#63b8ff" points="744.84,-37.71 755.28,-35.91 746,-30.81 744.84,-37.71"/>
</a>
</g>
</g>
<!-- Node5&#45;&gt;Node5 -->
<g id="edge9_Node000005_Node000005" class="edge">
<title>Node5&#45;&gt;Node5</title>
<g id="a_edge9_Node000005_Node000005"><a xlink:title=" ">
<path fill="none" stroke="#63b8ff" d="M621.92,-28.16C609.8,-36.77 618.66,-45.88 648.5,-45.88 665.28,-45.88 675.43,-42.99 678.94,-38.94"/>
<polygon fill="#63b8ff" stroke="#63b8ff" points="682.25,-37.82 675.59,-29.59 675.66,-40.18 682.25,-37.82"/>
</a>
</g>
</g>
</g>
</svg>
