<?xml version="1.0" encoding="UTF-8" standalone="no"?>
<!DOCTYPE svg PUBLIC "-//W3C//DTD SVG 1.1//EN"
 "http://www.w3.org/Graphics/SVG/1.1/DTD/svg11.dtd">
<!-- Generated by graphviz version 14.0.2 (0)
 -->
<!-- Title: EngineInternalTime::preProcess Pages: 1 -->
<svg width="364pt" height="113pt"
 viewBox="0.00 0.00 364.00 113.00" xmlns="http://www.w3.org/2000/svg" xmlns:xlink="http://www.w3.org/1999/xlink">
<g id="graph0" class="graph" transform="scale(1 1) rotate(0) translate(4 109.25)">
<title>EngineInternalTime::preProcess</title>
<!-- Node1 -->
<g id="Node000001" class="node">
<title>Node1</title>
<g id="a_Node000001"><a xlink:title=" ">
<polygon fill="#999999" stroke="#666666" points="99.25,-67.88 0,-67.88 0,-37.38 99.25,-37.38 99.25,-67.88"/>
<text xml:space="preserve" text-anchor="start" x="8" y="-54.38" font-family="Helvetica,sans-Serif" font-size="10.00">EngineInternalTime</text>
<text xml:space="preserve" text-anchor="middle" x="49.62" y="-43.12" font-family="Helvetica,sans-Serif" font-size="10.00">::preProcess</text>
</a>
</g>
</g>
<!-- Node2 -->
<g id="Node000002" class="node">
<title>Node2</title>
<g id="a_Node000002"><a xlink:href="CarlaMathUtils_8hpp.html#a1e74ad162c0bbb4601b774f77e172720" target="_top" xlink:title=" ">
<polygon fill="white" stroke="#666666" points="229.62,-105.25 140.12,-105.25 140.12,-86 229.62,-86 229.62,-105.25"/>
<text xml:space="preserve" text-anchor="middle" x="184.88" y="-91.75" font-family="Helvetica,sans-Serif" font-size="10.00">carla_isNotEqual</text>
</a>
</g>
</g>
<!-- Node1&#45;&gt;Node2 -->
<g id="edge1_Node000001_Node000002" class="edge">
<title>Node1&#45;&gt;Node2</title>
<g id="a_edge1_Node000001_Node000002"><a xlink:title=" ">
<path fill="none" stroke="#63b8ff" d="M99.11,-68.27C113.06,-72.77 128.16,-77.65 141.7,-82.02"/>
<polygon fill="#63b8ff" stroke="#63b8ff" points="140.61,-85.34 151.2,-85.08 142.76,-78.68 140.61,-85.34"/>
</a>
</g>
</g>
<!-- Node3 -->
<g id="Node000003" class="node">
<title>Node3</title>
<g id="a_Node000003"><a xlink:href="classEngineInternalTime.html#ae81c1794ec6c4287647e05b5c41d33f7" target="_top" xlink:title=" ">
<polygon fill="white" stroke="#666666" points="234.5,-67.88 135.25,-67.88 135.25,-37.38 234.5,-37.38 234.5,-67.88"/>
<text xml:space="preserve" text-anchor="start" x="143.25" y="-54.38" font-family="Helvetica,sans-Serif" font-size="10.00">EngineInternalTime</text>
<text xml:space="preserve" text-anchor="middle" x="184.88" y="-43.12" font-family="Helvetica,sans-Serif" font-size="10.00">::fillEngineTimeInfo</text>
</a>
</g>
</g>
<!-- Node1&#45;&gt;Node3 -->
<g id="edge2_Node000001_Node000003" class="edge">
<title>Node1&#45;&gt;Node3</title>
<g id="a_edge2_Node000001_Node000003"><a xlink:title=" ">
<path fill="none" stroke="#63b8ff" d="M99.49,-52.62C107.36,-52.62 115.59,-52.62 123.7,-52.62"/>
<polygon fill="#63b8ff" stroke="#63b8ff" points="123.51,-56.13 133.51,-52.63 123.51,-49.13 123.51,-56.13"/>
</a>
</g>
</g>
<!-- Node5 -->
<g id="Node000005" class="node">
<title>Node5</title>
<g id="a_Node000005"><a xlink:href="hylia_8cpp.html#ae8d40a3c0dcff44619f5e98b9b23fd4d" target="_top" xlink:title=" ">
<polygon fill="white" stroke="#666666" points="222.5,-19.25 147.25,-19.25 147.25,0 222.5,0 222.5,-19.25"/>
<text xml:space="preserve" text-anchor="middle" x="184.88" y="-5.75" font-family="Helvetica,sans-Serif" font-size="10.00">hylia_process</text>
</a>
</g>
</g>
<!-- Node1&#45;&gt;Node5 -->
<g id="edge4_Node000001_Node000005" class="edge">
<title>Node1&#45;&gt;Node5</title>
<g id="a_edge4_Node000001_Node000005"><a xlink:title=" ">
<path fill="none" stroke="#63b8ff" d="M99.11,-36.98C113.06,-32.48 128.16,-27.6 141.7,-23.23"/>
<polygon fill="#63b8ff" stroke="#63b8ff" points="142.76,-26.57 151.2,-20.17 140.61,-19.91 142.76,-26.57"/>
</a>
</g>
</g>
<!-- Node4 -->
<g id="Node000004" class="node">
<title>Node4</title>
<g id="a_Node000004"><a xlink:href="CarlaMathUtils_8hpp.html#a608c8fff8be733d133c566c1b13cf430" target="_top" xlink:title=" ">
<polygon fill="white" stroke="#666666" points="355.5,-62.25 270.5,-62.25 270.5,-43 355.5,-43 355.5,-62.25"/>
<text xml:space="preserve" text-anchor="middle" x="313" y="-48.75" font-family="Helvetica,sans-Serif" font-size="10.00">carla_isNotZero</text>
</a>
</g>
</g>
<!-- Node3&#45;&gt;Node4 -->
<g id="edge3_Node000003_Node000004" class="edge">
<title>Node3&#45;&gt;Node4</title>
<g id="a_edge3_Node000003_Node000004"><a xlink:title=" ">
<path fill="none" stroke="#63b8ff" d="M235,-52.62C242.81,-52.62 250.91,-52.62 258.81,-52.62"/>
<polygon fill="#63b8ff" stroke="#63b8ff" points="258.65,-56.13 268.65,-52.63 258.65,-49.13 258.65,-56.13"/>
</a>
</g>
</g>
</g>
</svg>
