<?xml version="1.0" encoding="UTF-8" standalone="no"?>
<!DOCTYPE svg PUBLIC "-//W3C//DTD SVG 1.1//EN"
 "http://www.w3.org/Graphics/SVG/1.1/DTD/svg11.dtd">
<!-- Generated by graphviz version 14.0.2 (0)
 -->
<!-- Title: juce::DeviceChangeDetector::DeviceChangeDetector Pages: 1 -->
<!--zoomable 202 -->

<svg id="main" version="1.1" xmlns="http://www.w3.org/2000/svg" xmlns:xlink="http://www.w3.org/1999/xlink" xml:space="preserve" onload="init(evt)">

<style type="text/css"><![CDATA[
.node, .edge {opacity: 0.7;}
.node.selected, .edge.selected {opacity: 1;}
.edge:hover path { stroke: red; }
.edge:hover polygon { stroke: red; fill: red; }
]]></style>

<defs>
  <circle id="rim" cx="0" cy="0" r="7"/>
  <circle id="rim2" cx="0" cy="0" r="3.5"/>
  <g id="zoomPlus">
    <use xlink:href="#rim" fill="#404040"><set attributeName="fill" to="#808080" begin="zoomplus.mouseover" end="zoomplus.mouseout"/></use>
    <path d="M-4,0h8M0,-4v8" fill="none" stroke="white" stroke-width="1.5" pointer-events="none"/>
  </g>
  <g id="zoomMin">
    <use xlink:href="#rim" fill="#404040"><set attributeName="fill" to="#808080" begin="zoomminus.mouseover" end="zoomminus.mouseout"/></use>
    <path d="M-4,0h8" fill="none" stroke="white" stroke-width="1.5" pointer-events="none"/>
  </g>
  <g id="arrowUp" transform="translate(30 24)">
    <use xlink:href="#rim"/>
    <path pointer-events="none" fill="none" stroke="white" stroke-width="1.5" d="M0,-3.0v7 M-2.5,-0.5L0,-3.0L2.5,-0.5"/>
  </g>
  <g id="arrowRight" transform="rotate(90) translate(36 -43)">
    <use xlink:href="#rim"/>
    <path pointer-events="none" fill="none" stroke="white" stroke-width="1.5" d="M0,-3.0v7 M-2.5,-0.5L0,-3.0L2.5,-0.5"/>
  </g>
  <g id="arrowDown" transform="rotate(180) translate(-30 -48)">
    <use xlink:href="#rim"/>
    <path pointer-events="none" fill="none" stroke="white" stroke-width="1.5" d="M0,-3.0v7 M-2.5,-0.5L0,-3.0L2.5,-0.5"/>
  </g>
  <g id="arrowLeft" transform="rotate(270) translate(-36 17)">
    <use xlink:href="#rim"/>
    <path pointer-events="none" fill="none" stroke="white" stroke-width="1.5" d="M0,-3.0v7 M-2.5,-0.5L0,-3.0L2.5,-0.5"/>
  </g>
  <g id="resetDef">
    <use xlink:href="#rim2" fill="#404040"><set attributeName="fill" to="#808080" begin="reset.mouseover" end="reset.mouseout"/></use>
  </g>
</defs>
<script type="application/ecmascript">
var viewWidth = 526;
var viewHeight = 202;
var sectionId = 'dynsection-3';
</script>
<script type="application/ecmascript" xlink:href="svg.min.js"/>
<svg id="graph" class="graph">
<g id="viewport">
<title>juce::DeviceChangeDetector::DeviceChangeDetector</title>
<!-- Node1 -->
<g id="Node000001" class="node">
<title>Node1</title>
<g id="a_Node000001"><a xlink:title=" ">
<polygon fill="#999999" stroke="#666666" points="518.25,-144.75 380,-144.75 380,-114.25 518.25,-114.25 518.25,-144.75"/>
<text xml:space="preserve" text-anchor="start" x="388" y="-131.25" font-family="Helvetica,sans-Serif" font-size="10.00">juce::DeviceChangeDetector</text>
<text xml:space="preserve" text-anchor="middle" x="449.12" y="-120" font-family="Helvetica,sans-Serif" font-size="10.00">::DeviceChangeDetector</text>
</a>
</g>
</g>
<!-- Node2 -->
<g id="Node000002" class="node">
<title>Node2</title>
<g id="a_Node000002"><a xlink:href="classjuce_1_1DeviceChangeDetector.html#addc9f3468196771e0968379de3ce5e46" target="_top" xlink:title=" ">
<polygon fill="white" stroke="#666666" points="335,-193.75 190.75,-193.75 190.75,-163.25 335,-163.25 335,-193.75"/>
<text xml:space="preserve" text-anchor="start" x="198.75" y="-180.25" font-family="Helvetica,sans-Serif" font-size="10.00">juce::DeviceChangeDetector</text>
<text xml:space="preserve" text-anchor="middle" x="262.88" y="-169" font-family="Helvetica,sans-Serif" font-size="10.00">::deviceChangeEventCallback</text>
</a>
</g>
</g>
<!-- Node1&#45;&gt;Node2 -->
<g id="edge1_Node000001_Node000002" class="edge">
<title>Node1&#45;&gt;Node2</title>
<g id="a_edge1_Node000001_Node000002"><a xlink:title=" ">
<path fill="none" stroke="#63b8ff" d="M368.65,-143.94C345.54,-149.88 321.36,-156.68 302.05,-162.75"/>
<polygon fill="#63b8ff" stroke="#63b8ff" points="369.21,-147.41 378.05,-141.57 367.5,-140.62 369.21,-147.41"/>
</a>
</g>
</g>
<!-- Node3 -->
<g id="Node000003" class="node">
<title>Node3</title>
<g id="a_Node000003"><a xlink:href="classjuce_1_1DSoundAudioIODeviceType.html#af32a34a5e03b30800f118be1d56f9805" target="_top" xlink:title=" ">
<polygon fill="white" stroke="#666666" points="344,-144.75 181.75,-144.75 181.75,-114.25 344,-114.25 344,-144.75"/>
<text xml:space="preserve" text-anchor="start" x="189.75" y="-131.25" font-family="Helvetica,sans-Serif" font-size="10.00">juce::DSoundAudioIODevice</text>
<text xml:space="preserve" text-anchor="middle" x="262.88" y="-120" font-family="Helvetica,sans-Serif" font-size="10.00">Type::DSoundAudioIODeviceType</text>
</a>
</g>
</g>
<!-- Node1&#45;&gt;Node3 -->
<g id="edge3_Node000001_Node000003" class="edge">
<title>Node1&#45;&gt;Node3</title>
<g id="a_edge3_Node000001_Node000003"><a xlink:title=" ">
<path fill="none" stroke="#63b8ff" d="M368.1,-129.5C360.22,-129.5 352.23,-129.5 344.35,-129.5"/>
<polygon fill="#63b8ff" stroke="#63b8ff" points="368,-133 378,-129.5 368,-126 368,-133"/>
</a>
</g>
</g>
<!-- Node4 -->
<g id="Node000004" class="node">
<title>Node4</title>
<g id="a_Node000004"><a xlink:href="structjuce_1_1MountedVolumeListChangeDetector_1_1Pimpl.html#acab7412cf0a08b112ce000892ddbccfb" target="_top" xlink:title=" ">
<polygon fill="white" stroke="#666666" points="342.12,-95.75 183.62,-95.75 183.62,-65.25 342.12,-65.25 342.12,-95.75"/>
<text xml:space="preserve" text-anchor="start" x="191.62" y="-82.25" font-family="Helvetica,sans-Serif" font-size="10.00">juce::MountedVolumeListChange</text>
<text xml:space="preserve" text-anchor="middle" x="262.88" y="-71" font-family="Helvetica,sans-Serif" font-size="10.00">Detector::Pimpl::Pimpl</text>
</a>
</g>
</g>
<!-- Node1&#45;&gt;Node4 -->
<g id="edge4_Node000001_Node000004" class="edge">
<title>Node1&#45;&gt;Node4</title>
<g id="a_edge4_Node000001_Node000004"><a xlink:title=" ">
<path fill="none" stroke="#63b8ff" d="M377.95,-110.84C359.79,-106.01 340.43,-100.86 322.91,-96.2"/>
<polygon fill="#63b8ff" stroke="#63b8ff" points="377.04,-114.22 387.6,-113.4 378.84,-107.45 377.04,-114.22"/>
</a>
</g>
</g>
<!-- Node5 -->
<g id="Node000005" class="node">
<title>Node5</title>
<g id="a_Node000005"><a xlink:href="classjuce_1_1WasapiClasses_1_1WASAPIAudioIODeviceType.html#a80e28b0a12437b1290d85caae762b8b7" target="_top" xlink:title=" ">
<polygon fill="white" stroke="#666666" points="335.75,-47.38 190,-47.38 190,-5.62 335.75,-5.62 335.75,-47.38"/>
<text xml:space="preserve" text-anchor="start" x="198" y="-33.88" font-family="Helvetica,sans-Serif" font-size="10.00">juce::WasapiClasses</text>
<text xml:space="preserve" text-anchor="start" x="198" y="-22.62" font-family="Helvetica,sans-Serif" font-size="10.00">::WASAPIAudioIODeviceType</text>
<text xml:space="preserve" text-anchor="middle" x="262.88" y="-11.38" font-family="Helvetica,sans-Serif" font-size="10.00">::WASAPIAudioIODeviceType</text>
</a>
</g>
</g>
<!-- Node1&#45;&gt;Node5 -->
<g id="edge5_Node000001_Node000005" class="edge">
<title>Node1&#45;&gt;Node5</title>
<g id="a_edge5_Node000001_Node000005"><a xlink:title=" ">
<path fill="none" stroke="#63b8ff" d="M420.14,-106.94C399.86,-91.34 371.32,-70.89 344,-56.5 338.09,-53.38 331.78,-50.44 325.39,-47.7"/>
<polygon fill="#63b8ff" stroke="#63b8ff" points="417.89,-109.62 427.92,-113.01 422.19,-104.1 417.89,-109.62"/>
</a>
</g>
</g>
<!-- Node2&#45;&gt;Node1 -->
<g id="edge2_Node000002_Node000001" class="edge">
<title>Node2&#45;&gt;Node1</title>
<g id="a_edge2_Node000002_Node000001"><a xlink:title=" ">
<path fill="none" stroke="#63b8ff" d="M346,-163.37C368.29,-157.6 391.38,-151.09 409.95,-145.25"/>
<polygon fill="#63b8ff" stroke="#63b8ff" points="345.43,-159.91 336.61,-165.77 347.16,-166.69 345.43,-159.91"/>
</a>
</g>
</g>
<!-- Node6 -->
<g id="Node000006" class="node">
<title>Node6</title>
<g id="a_Node000006"><a xlink:href="classjuce_1_1WasapiClasses_1_1WASAPIAudioIODeviceType_1_1ChangeNotificationClient.html#a07528f07874fbb7ede747b845a50b4ca" target="_top" xlink:title=" ">
<polygon fill="white" stroke="#666666" points="145.75,-53 0,-53 0,0 145.75,0 145.75,-53"/>
<text xml:space="preserve" text-anchor="start" x="8" y="-39.5" font-family="Helvetica,sans-Serif" font-size="10.00">juce::WasapiClasses</text>
<text xml:space="preserve" text-anchor="start" x="8" y="-28.25" font-family="Helvetica,sans-Serif" font-size="10.00">::WASAPIAudioIODeviceType</text>
<text xml:space="preserve" text-anchor="start" x="8" y="-17" font-family="Helvetica,sans-Serif" font-size="10.00">::ChangeNotificationClient</text>
<text xml:space="preserve" text-anchor="middle" x="72.88" y="-5.75" font-family="Helvetica,sans-Serif" font-size="10.00">::ChangeNotificationClient</text>
</a>
</g>
</g>
<!-- Node5&#45;&gt;Node6 -->
<g id="edge6_Node000005_Node000006" class="edge">
<title>Node5&#45;&gt;Node6</title>
<g id="a_edge6_Node000005_Node000006"><a xlink:title=" ">
<path fill="none" stroke="#63b8ff" d="M178.22,-26.5C167.52,-26.5 156.64,-26.5 146.14,-26.5"/>
<polygon fill="#63b8ff" stroke="#63b8ff" points="178.21,-30 188.21,-26.5 178.21,-23 178.21,-30"/>
</a>
</g>
</g>
</g>
</svg>

<g id="navigator" transform="translate(0 0)" fill="#404254">
  <rect fill="#f2f5e9" fill-opacity="0.5" stroke="#606060" stroke-width=".5" x="0" y="0" width="60" height="60"/>
  <use id="zoomplus" xlink:href="#zoomPlus" x="17" y="9" onmousedown="handleZoom(evt,'in')"/>
  <use id="zoomminus" xlink:href="#zoomMin" x="42" y="9" onmousedown="handleZoom(evt,'out')"/>
  <use id="reset" xlink:href="#resetDef" x="30" y="36" onmousedown="handleReset()"/>
   <use id="arrowup" xlink:href="#arrowUp" x="0" y="0" onmousedown="handlePan(0,-1)"/>
  <use id="arrowright" xlink:href="#arrowRight" x="0" y="0" onmousedown="handlePan(1,0)"/>
  <use id="arrowdown" xlink:href="#arrowDown" x="0" y="0" onmousedown="handlePan(0,1)"/>
  <use id="arrowleft" xlink:href="#arrowLeft" x="0" y="0" onmousedown="handlePan(-1,0)"/>
</g>
<svg viewBox="0 0 15 15" width="100%" height="30px" preserveAspectRatio="xMaxYMin meet">
 <g id="arrow_out" transform="scale(0.3 0.3)">
  <a xlink:href="classjuce_1_1DeviceChangeDetector_aaae78431ec0d1121bf53c1db40168ce5_icgraph_org.svg" target="_base">
   <rect id="button" ry="5" rx="5" y="6" x="6" height="38" width="38"
        fill="#f2f5e9" fill-opacity="0.5" stroke="#606060" stroke-width="1.0"/>
   <path id="arrow"
     d="M 11.500037,31.436501 C 11.940474,20.09759 22.043105,11.32322 32.158766,21.979434 L 37.068811,17.246167 C 37.068811,17.246167 37.088388,32 37.088388,32 L 22.160133,31.978069 C 22.160133,31.978069 26.997745,27.140456 26.997745,27.140456 C 18.528582,18.264221 13.291696,25.230495 11.500037,31.436501 z"
     style="fill:#404040;"/>
  </a>
 </g>
</svg>

<style type='text/css'>
<![CDATA[
[data-mouse-over-selected='false'] { opacity: 0.7; }
[data-mouse-over-selected='true']  { opacity: 1.0; }
]]>
</style>
<script type="application/ecmascript"><![CDATA[
document.addEventListener('DOMContentLoaded', (event) => {
  highlightEdges();
  highlightAdjacentNodes();
});
]]></script>
</svg>
