<?xml version="1.0" encoding="UTF-8" standalone="no"?>
<!DOCTYPE svg PUBLIC "-//W3C//DTD SVG 1.1//EN"
 "http://www.w3.org/Graphics/SVG/1.1/DTD/svg11.dtd">
<!-- Generated by graphviz version 14.0.2 (0)
 -->
<!-- Title: juce::Font::getDefaultSerifFontName Pages: 1 -->
<svg width="294pt" height="57pt"
 viewBox="0.00 0.00 294.00 57.00" xmlns="http://www.w3.org/2000/svg" xmlns:xlink="http://www.w3.org/1999/xlink">
<g id="graph0" class="graph" transform="scale(1 1) rotate(0) translate(4 52.5)">
<title>juce::Font::getDefaultSerifFontName</title>
<!-- Node1 -->
<g id="Node000001" class="node">
<title>Node1</title>
<g id="a_Node000001"><a xlink:title=" ">
<polygon fill="#999999" stroke="#666666" points="127,-30.5 0,-30.5 0,0 127,0 127,-30.5"/>
<text xml:space="preserve" text-anchor="start" x="8" y="-17" font-family="Helvetica,sans-Serif" font-size="10.00">juce::Font::getDefaultSerif</text>
<text xml:space="preserve" text-anchor="middle" x="63.5" y="-5.75" font-family="Helvetica,sans-Serif" font-size="10.00">FontName</text>
</a>
</g>
</g>
<!-- Node1&#45;&gt;Node1 -->
<g id="edge1_Node000001_Node000001" class="edge">
<title>Node1&#45;&gt;Node1</title>
<g id="a_edge1_Node000001_Node000001"><a xlink:title=" ">
<path fill="none" stroke="#63b8ff" d="M35.02,-30.99C29.2,-40.06 38.7,-48.5 63.5,-48.5 77.06,-48.5 86.05,-45.97 90.46,-42.2"/>
<polygon fill="#63b8ff" stroke="#63b8ff" points="93.9,-42.87 91.78,-32.49 86.96,-41.92 93.9,-42.87"/>
</a>
</g>
</g>
<!-- Node2 -->
<g id="Node000002" class="node">
<title>Node2</title>
<g id="a_Node000002"><a xlink:href="namespacejuce.html#a6539a11d64cb063e6149c4ec60c5a6be" target="_top" xlink:title=" ">
<polygon fill="white" stroke="#666666" points="285.5,-30.5 163,-30.5 163,0 285.5,0 285.5,-30.5"/>
<text xml:space="preserve" text-anchor="start" x="171" y="-17" font-family="Helvetica,sans-Serif" font-size="10.00">juce::getFontPlaceholder</text>
<text xml:space="preserve" text-anchor="middle" x="224.25" y="-5.75" font-family="Helvetica,sans-Serif" font-size="10.00">Names</text>
</a>
</g>
</g>
<!-- Node1&#45;&gt;Node2 -->
<g id="edge2_Node000001_Node000002" class="edge">
<title>Node1&#45;&gt;Node2</title>
<g id="a_edge2_Node000001_Node000002"><a xlink:title=" ">
<path fill="none" stroke="#63b8ff" d="M127.24,-15.25C135.14,-15.25 143.26,-15.25 151.28,-15.25"/>
<polygon fill="#63b8ff" stroke="#63b8ff" points="151,-18.75 161,-15.25 151,-11.75 151,-18.75"/>
</a>
</g>
</g>
<!-- Node2&#45;&gt;Node2 -->
<g id="edge3_Node000002_Node000002" class="edge">
<title>Node2&#45;&gt;Node2</title>
<g id="a_edge3_Node000002_Node000002"><a xlink:title=" ">
<path fill="none" stroke="#63b8ff" d="M195.77,-30.99C189.95,-40.06 199.45,-48.5 224.25,-48.5 237.81,-48.5 246.8,-45.97 251.21,-42.2"/>
<polygon fill="#63b8ff" stroke="#63b8ff" points="254.65,-42.87 252.53,-32.49 247.71,-41.92 254.65,-42.87"/>
</a>
</g>
</g>
</g>
</svg>
