<?xml version="1.0" encoding="UTF-8" standalone="no"?>
<!DOCTYPE svg PUBLIC "-//W3C//DTD SVG 1.1//EN"
 "http://www.w3.org/Graphics/SVG/1.1/DTD/svg11.dtd">
<!-- Generated by graphviz version 14.0.2 (0)
 -->
<!-- Title: juce::ValueTreePropertyWithDefault::SynchronousValueSource::setValue Pages: 1 -->
<!--zoomable 340 -->

<svg id="main" version="1.1" xmlns="http://www.w3.org/2000/svg" xmlns:xlink="http://www.w3.org/1999/xlink" xml:space="preserve" onload="init(evt)">

<style type="text/css"><![CDATA[
.node, .edge {opacity: 0.7;}
.node.selected, .edge.selected {opacity: 1;}
.edge:hover path { stroke: red; }
.edge:hover polygon { stroke: red; fill: red; }
]]></style>

<defs>
  <circle id="rim" cx="0" cy="0" r="7"/>
  <circle id="rim2" cx="0" cy="0" r="3.5"/>
  <g id="zoomPlus">
    <use xlink:href="#rim" fill="#404040"><set attributeName="fill" to="#808080" begin="zoomplus.mouseover" end="zoomplus.mouseout"/></use>
    <path d="M-4,0h8M0,-4v8" fill="none" stroke="white" stroke-width="1.5" pointer-events="none"/>
  </g>
  <g id="zoomMin">
    <use xlink:href="#rim" fill="#404040"><set attributeName="fill" to="#808080" begin="zoomminus.mouseover" end="zoomminus.mouseout"/></use>
    <path d="M-4,0h8" fill="none" stroke="white" stroke-width="1.5" pointer-events="none"/>
  </g>
  <g id="arrowUp" transform="translate(30 24)">
    <use xlink:href="#rim"/>
    <path pointer-events="none" fill="none" stroke="white" stroke-width="1.5" d="M0,-3.0v7 M-2.5,-0.5L0,-3.0L2.5,-0.5"/>
  </g>
  <g id="arrowRight" transform="rotate(90) translate(36 -43)">
    <use xlink:href="#rim"/>
    <path pointer-events="none" fill="none" stroke="white" stroke-width="1.5" d="M0,-3.0v7 M-2.5,-0.5L0,-3.0L2.5,-0.5"/>
  </g>
  <g id="arrowDown" transform="rotate(180) translate(-30 -48)">
    <use xlink:href="#rim"/>
    <path pointer-events="none" fill="none" stroke="white" stroke-width="1.5" d="M0,-3.0v7 M-2.5,-0.5L0,-3.0L2.5,-0.5"/>
  </g>
  <g id="arrowLeft" transform="rotate(270) translate(-36 17)">
    <use xlink:href="#rim"/>
    <path pointer-events="none" fill="none" stroke="white" stroke-width="1.5" d="M0,-3.0v7 M-2.5,-0.5L0,-3.0L2.5,-0.5"/>
  </g>
  <g id="resetDef">
    <use xlink:href="#rim2" fill="#404040"><set attributeName="fill" to="#808080" begin="reset.mouseover" end="reset.mouseout"/></use>
  </g>
</defs>
<script type="application/ecmascript">
var viewWidth = 631;
var viewHeight = 340;
var sectionId = 'dynsection-2';
</script>
<script type="application/ecmascript" xlink:href="svg.min.js"/>
<svg id="graph" class="graph">
<g id="viewport">
<title>juce::ValueTreePropertyWithDefault::SynchronousValueSource::setValue</title>
<!-- Node1 -->
<g id="Node000001" class="node">
<title>Node1</title>
<g id="a_Node000001"><a xlink:title=" ">
<polygon fill="#999999" stroke="#666666" points="163,-167.12 0,-167.12 0,-125.38 163,-125.38 163,-167.12"/>
<text xml:space="preserve" text-anchor="start" x="8" y="-153.62" font-family="Helvetica,sans-Serif" font-size="10.00">juce::ValueTreePropertyWith</text>
<text xml:space="preserve" text-anchor="start" x="8" y="-142.38" font-family="Helvetica,sans-Serif" font-size="10.00">Default::SynchronousValueSource</text>
<text xml:space="preserve" text-anchor="middle" x="81.5" y="-131.12" font-family="Helvetica,sans-Serif" font-size="10.00">::setValue</text>
</a>
</g>
</g>
<!-- Node2 -->
<g id="Node000002" class="node">
<title>Node2</title>
<g id="a_Node000002"><a xlink:href="classjuce_1_1var.html#ab7f42c7923ae3f234e291c3f13ea77a0" target="_top" xlink:title=" ">
<polygon fill="white" stroke="#666666" points="350,-247.88 199,-247.88 199,-228.62 350,-228.62 350,-247.88"/>
<text xml:space="preserve" text-anchor="middle" x="274.5" y="-234.38" font-family="Helvetica,sans-Serif" font-size="10.00">juce::var::equalsWithSameType</text>
</a>
</g>
</g>
<!-- Node1&#45;&gt;Node2 -->
<g id="edge1_Node000001_Node000002" class="edge">
<title>Node1&#45;&gt;Node2</title>
<g id="a_edge1_Node000001_Node000002"><a xlink:title=" ">
<path fill="none" stroke="#63b8ff" d="M126.8,-167.59C162.19,-184.63 210.9,-208.1 242.29,-223.22"/>
<polygon fill="#63b8ff" stroke="#63b8ff" points="240.74,-226.35 251.26,-227.54 243.77,-220.05 240.74,-226.35"/>
</a>
</g>
</g>
<!-- Node6 -->
<g id="Node000006" class="node">
<title>Node6</title>
<g id="a_Node000006"><a xlink:href="classjuce_1_1Value_1_1ValueSource.html#aaa7e1b01db4d7945a2e2608a542a8ec5" target="_top" xlink:title=" ">
<polygon fill="white" stroke="#666666" points="336.12,-131.5 212.88,-131.5 212.88,-101 336.12,-101 336.12,-131.5"/>
<text xml:space="preserve" text-anchor="start" x="220.88" y="-118" font-family="Helvetica,sans-Serif" font-size="10.00">juce::Value::ValueSource</text>
<text xml:space="preserve" text-anchor="middle" x="274.5" y="-106.75" font-family="Helvetica,sans-Serif" font-size="10.00">::sendChangeMessage</text>
</a>
</g>
</g>
<!-- Node1&#45;&gt;Node6 -->
<g id="edge11_Node000001_Node000006" class="edge">
<title>Node1&#45;&gt;Node6</title>
<g id="a_edge11_Node000001_Node000006"><a xlink:title=" ">
<path fill="none" stroke="#63b8ff" d="M163.22,-133.57C175.85,-131.59 188.83,-129.55 201.26,-127.6"/>
<polygon fill="#63b8ff" stroke="#63b8ff" points="201.65,-131.08 210.99,-126.07 200.56,-124.16 201.65,-131.08"/>
</a>
</g>
</g>
<!-- Node2&#45;&gt;Node2 -->
<g id="edge6_Node000002_Node000002" class="edge">
<title>Node2&#45;&gt;Node2</title>
<g id="a_edge6_Node000002_Node000002"><a xlink:title=" ">
<path fill="none" stroke="#63b8ff" d="M246.81,-248.16C234.18,-256.77 243.41,-265.88 274.5,-265.88 291.99,-265.88 302.56,-262.99 306.22,-258.94"/>
<polygon fill="#63b8ff" stroke="#63b8ff" points="309.5,-257.72 302.72,-249.58 302.94,-260.17 309.5,-257.72"/>
</a>
</g>
</g>
<!-- Node3 -->
<g id="Node000003" class="node">
<title>Node3</title>
<g id="a_Node000003"><a xlink:href="classjuce_1_1var.html#aa0baad0471288b84ca67bd4f8dd2c56f" target="_top" xlink:title=" ">
<polygon fill="white" stroke="#666666" points="493.88,-313.88 408.88,-313.88 408.88,-294.62 493.88,-294.62 493.88,-313.88"/>
<text xml:space="preserve" text-anchor="middle" x="451.38" y="-300.38" font-family="Helvetica,sans-Serif" font-size="10.00">juce::var::equals</text>
</a>
</g>
</g>
<!-- Node2&#45;&gt;Node3 -->
<g id="edge2_Node000002_Node000003" class="edge">
<title>Node2&#45;&gt;Node3</title>
<g id="a_edge2_Node000002_Node000003"><a xlink:title=" ">
<path fill="none" stroke="#63b8ff" d="M301.83,-248.31C324.2,-256.85 357.19,-269.4 386,-280.25 394.56,-283.47 403.76,-286.91 412.45,-290.16"/>
<polygon fill="#63b8ff" stroke="#63b8ff" points="411.1,-293.39 421.69,-293.6 413.54,-286.83 411.1,-293.39"/>
</a>
</g>
</g>
<!-- Node4 -->
<g id="Node000004" class="node">
<title>Node4</title>
<g id="a_Node000004"><a xlink:href="classjuce_1_1var.html#a458d8d10959d52c27897fb91b54ae972" target="_top" xlink:title=" ">
<polygon fill="white" stroke="#666666" points="622.75,-275.88 552.75,-275.88 552.75,-256.62 622.75,-256.62 622.75,-275.88"/>
<text xml:space="preserve" text-anchor="middle" x="587.75" y="-262.38" font-family="Helvetica,sans-Serif" font-size="10.00">juce::var::var</text>
</a>
</g>
</g>
<!-- Node2&#45;&gt;Node4 -->
<g id="edge10_Node000002_Node000004" class="edge">
<title>Node2&#45;&gt;Node4</title>
<g id="a_edge10_Node000002_Node000004"><a xlink:title=" ">
<path fill="none" stroke="#63b8ff" d="M350.45,-244.99C409.9,-250.34 491.06,-257.64 541.13,-262.15"/>
<polygon fill="#63b8ff" stroke="#63b8ff" points="540.77,-265.63 551.04,-263.04 541.4,-258.66 540.77,-265.63"/>
</a>
</g>
</g>
<!-- Node5 -->
<g id="Node000005" class="node">
<title>Node5</title>
<g id="a_Node000005"><a xlink:href="classjuce_1_1var.html#ae9ee28970e3a0d55bf489ed4e1b6f8c6" target="_top" xlink:title=" ">
<polygon fill="white" stroke="#666666" points="516.75,-219.88 386,-219.88 386,-200.62 516.75,-200.62 516.75,-219.88"/>
<text xml:space="preserve" text-anchor="middle" x="451.38" y="-206.38" font-family="Helvetica,sans-Serif" font-size="10.00">juce::var::hasSameTypeAs</text>
</a>
</g>
</g>
<!-- Node2&#45;&gt;Node5 -->
<g id="edge7_Node000002_Node000005" class="edge">
<title>Node2&#45;&gt;Node5</title>
<g id="a_edge7_Node000002_Node000005"><a xlink:title=" ">
<path fill="none" stroke="#63b8ff" d="M338.63,-228.14C350.77,-226.2 363.58,-224.15 376.03,-222.15"/>
<polygon fill="#63b8ff" stroke="#63b8ff" points="376.52,-225.62 385.84,-220.58 375.41,-218.71 376.52,-225.62"/>
</a>
</g>
</g>
<!-- Node3&#45;&gt;Node3 -->
<g id="edge3_Node000003_Node000003" class="edge">
<title>Node3&#45;&gt;Node3</title>
<g id="a_edge3_Node000003_Node000003"><a xlink:title=" ">
<path fill="none" stroke="#63b8ff" d="M430.02,-314.16C420.29,-322.77 427.4,-331.88 451.38,-331.88 464.48,-331.88 472.55,-329.15 475.58,-325.28"/>
<polygon fill="#63b8ff" stroke="#63b8ff" points="478.98,-324.44 473.1,-315.63 472.2,-326.19 478.98,-324.44"/>
</a>
</g>
</g>
<!-- Node3&#45;&gt;Node4 -->
<g id="edge4_Node000003_Node000004" class="edge">
<title>Node3&#45;&gt;Node4</title>
<g id="a_edge4_Node000003_Node000004"><a xlink:title=" ">
<path fill="none" stroke="#63b8ff" d="M488.03,-294.17C504.36,-289.55 523.9,-284.02 541.27,-279.11"/>
<polygon fill="#63b8ff" stroke="#63b8ff" points="542.19,-282.49 550.86,-276.4 540.29,-275.75 542.19,-282.49"/>
</a>
</g>
</g>
<!-- Node4&#45;&gt;Node4 -->
<g id="edge5_Node000004_Node000004" class="edge">
<title>Node4&#45;&gt;Node4</title>
<g id="a_edge5_Node000004_Node000004"><a xlink:title=" ">
<path fill="none" stroke="#63b8ff" d="M566.4,-276.16C556.66,-284.77 563.78,-293.88 587.75,-293.88 600.86,-293.88 608.93,-291.15 611.96,-287.28"/>
<polygon fill="#63b8ff" stroke="#63b8ff" points="615.36,-286.44 609.48,-277.63 608.58,-288.19 615.36,-286.44"/>
</a>
</g>
</g>
<!-- Node5&#45;&gt;Node4 -->
<g id="edge9_Node000005_Node000004" class="edge">
<title>Node5&#45;&gt;Node4</title>
<g id="a_edge9_Node000005_Node000004"><a xlink:title=" ">
<path fill="none" stroke="#63b8ff" d="M476.4,-220.26C497.48,-229.05 528.39,-241.93 552.14,-251.82"/>
<polygon fill="#63b8ff" stroke="#63b8ff" points="550.51,-254.94 561.08,-255.55 553.2,-248.48 550.51,-254.94"/>
</a>
</g>
</g>
<!-- Node5&#45;&gt;Node5 -->
<g id="edge8_Node000005_Node000005" class="edge">
<title>Node5&#45;&gt;Node5</title>
<g id="a_edge8_Node000005_Node000005"><a xlink:title=" ">
<path fill="none" stroke="#63b8ff" d="M430.02,-220.16C420.29,-228.77 427.4,-237.88 451.38,-237.88 464.48,-237.88 472.55,-235.15 475.58,-231.28"/>
<polygon fill="#63b8ff" stroke="#63b8ff" points="478.98,-230.44 473.1,-221.63 472.2,-232.19 478.98,-230.44"/>
</a>
</g>
</g>
<!-- Node6&#45;&gt;Node6 -->
<g id="edge14_Node000006_Node000006" class="edge">
<title>Node6&#45;&gt;Node6</title>
<g id="a_edge14_Node000006_Node000006"><a xlink:title=" ">
<path fill="none" stroke="#63b8ff" d="M243.16,-131.99C236.76,-141.06 247.21,-149.5 274.5,-149.5 289.42,-149.5 299.31,-146.97 304.16,-143.2"/>
<polygon fill="#63b8ff" stroke="#63b8ff" points="307.6,-143.89 305.62,-133.48 300.68,-142.85 307.6,-143.89"/>
</a>
</g>
</g>
<!-- Node7 -->
<g id="Node000007" class="node">
<title>Node7</title>
<g id="a_Node000007"><a xlink:href="classjuce_1_1AsyncUpdater.html#ad4eefc331e3628b8a3baf77ce62ab54c" target="_top" xlink:title=" ">
<polygon fill="white" stroke="#666666" points="509.25,-164.5 393.5,-164.5 393.5,-134 509.25,-134 509.25,-164.5"/>
<text xml:space="preserve" text-anchor="start" x="401.5" y="-151" font-family="Helvetica,sans-Serif" font-size="10.00">juce::AsyncUpdater</text>
<text xml:space="preserve" text-anchor="middle" x="451.38" y="-139.75" font-family="Helvetica,sans-Serif" font-size="10.00">::cancelPendingUpdate</text>
</a>
</g>
</g>
<!-- Node6&#45;&gt;Node7 -->
<g id="edge12_Node000006_Node000007" class="edge">
<title>Node6&#45;&gt;Node7</title>
<g id="a_edge12_Node000006_Node000007"><a xlink:title=" ">
<path fill="none" stroke="#63b8ff" d="M336.17,-127.7C351.02,-130.5 367,-133.52 382.17,-136.38"/>
<polygon fill="#63b8ff" stroke="#63b8ff" points="381.08,-139.74 391.56,-138.15 382.38,-132.86 381.08,-139.74"/>
</a>
</g>
</g>
<!-- Node8 -->
<g id="Node000008" class="node">
<title>Node8</title>
<g id="a_Node000008"><a xlink:href="classjuce_1_1AsyncUpdater.html#ad0efdd9d03210cede6c6a7886519cf31" target="_top" xlink:title=" ">
<polygon fill="white" stroke="#666666" points="504.38,-97.5 398.38,-97.5 398.38,-67 504.38,-67 504.38,-97.5"/>
<text xml:space="preserve" text-anchor="start" x="406.38" y="-84" font-family="Helvetica,sans-Serif" font-size="10.00">juce::AsyncUpdater</text>
<text xml:space="preserve" text-anchor="middle" x="451.38" y="-72.75" font-family="Helvetica,sans-Serif" font-size="10.00">::triggerAsyncUpdate</text>
</a>
</g>
</g>
<!-- Node6&#45;&gt;Node8 -->
<g id="edge15_Node000006_Node000008" class="edge">
<title>Node6&#45;&gt;Node8</title>
<g id="a_edge15_Node000006_Node000008"><a xlink:title=" ">
<path fill="none" stroke="#63b8ff" d="M336.17,-104.45C352.52,-101.27 370.26,-97.83 386.76,-94.62"/>
<polygon fill="#63b8ff" stroke="#63b8ff" points="387.33,-98.07 396.48,-92.73 385.99,-91.2 387.33,-98.07"/>
</a>
</g>
</g>
<!-- Node9 -->
<g id="Node000009" class="node">
<title>Node9</title>
<g id="a_Node000009"><a xlink:href="classjuce_1_1Value_1_1ValueSource.html#aeceedf6e1a7d48a588516ce2b1983d6f" target="_top" xlink:title=" ">
<polygon fill="white" stroke="#666666" points="513,-30.5 389.75,-30.5 389.75,0 513,0 513,-30.5"/>
<text xml:space="preserve" text-anchor="start" x="397.75" y="-17" font-family="Helvetica,sans-Serif" font-size="10.00">juce::Value::ValueSource</text>
<text xml:space="preserve" text-anchor="middle" x="451.38" y="-5.75" font-family="Helvetica,sans-Serif" font-size="10.00">::Value</text>
</a>
</g>
</g>
<!-- Node6&#45;&gt;Node9 -->
<g id="edge17_Node000006_Node000009" class="edge">
<title>Node6&#45;&gt;Node9</title>
<g id="a_edge17_Node000006_Node000009"><a xlink:title=" ">
<path fill="none" stroke="#63b8ff" d="M302.44,-100.69C332.14,-83.54 380.09,-55.84 413.31,-36.66"/>
<polygon fill="#63b8ff" stroke="#63b8ff" points="414.9,-39.78 421.8,-31.75 411.39,-33.72 414.9,-39.78"/>
</a>
</g>
</g>
<!-- Node7&#45;&gt;Node7 -->
<g id="edge13_Node000007_Node000007" class="edge">
<title>Node7&#45;&gt;Node7</title>
<g id="a_edge13_Node000007_Node000007"><a xlink:title=" ">
<path fill="none" stroke="#63b8ff" d="M427.21,-164.99C422.28,-174.06 430.33,-182.5 451.38,-182.5 462.88,-182.5 470.51,-179.97 474.25,-176.2"/>
<polygon fill="#63b8ff" stroke="#63b8ff" points="477.7,-176.82 475.37,-166.49 470.74,-176.02 477.7,-176.82"/>
</a>
</g>
</g>
<!-- Node8&#45;&gt;Node8 -->
<g id="edge16_Node000008_Node000008" class="edge">
<title>Node8&#45;&gt;Node8</title>
<g id="a_edge16_Node000008_Node000008"><a xlink:title=" ">
<path fill="none" stroke="#63b8ff" d="M427.21,-97.99C422.28,-107.06 430.33,-115.5 451.38,-115.5 462.88,-115.5 470.51,-112.97 474.25,-109.2"/>
<polygon fill="#63b8ff" stroke="#63b8ff" points="477.7,-109.82 475.37,-99.49 470.74,-109.02 477.7,-109.82"/>
</a>
</g>
</g>
<!-- Node9&#45;&gt;Node9 -->
<g id="edge18_Node000009_Node000009" class="edge">
<title>Node9&#45;&gt;Node9</title>
<g id="a_edge18_Node000009_Node000009"><a xlink:title=" ">
<path fill="none" stroke="#63b8ff" d="M427.21,-30.99C422.28,-40.06 430.33,-48.5 451.38,-48.5 462.88,-48.5 470.51,-45.97 474.25,-42.2"/>
<polygon fill="#63b8ff" stroke="#63b8ff" points="477.7,-42.82 475.37,-32.49 470.74,-42.02 477.7,-42.82"/>
</a>
</g>
</g>
</g>
</svg>

<g id="navigator" transform="translate(0 0)" fill="#404254">
  <rect fill="#f2f5e9" fill-opacity="0.5" stroke="#606060" stroke-width=".5" x="0" y="0" width="60" height="60"/>
  <use id="zoomplus" xlink:href="#zoomPlus" x="17" y="9" onmousedown="handleZoom(evt,'in')"/>
  <use id="zoomminus" xlink:href="#zoomMin" x="42" y="9" onmousedown="handleZoom(evt,'out')"/>
  <use id="reset" xlink:href="#resetDef" x="30" y="36" onmousedown="handleReset()"/>
   <use id="arrowup" xlink:href="#arrowUp" x="0" y="0" onmousedown="handlePan(0,-1)"/>
  <use id="arrowright" xlink:href="#arrowRight" x="0" y="0" onmousedown="handlePan(1,0)"/>
  <use id="arrowdown" xlink:href="#arrowDown" x="0" y="0" onmousedown="handlePan(0,1)"/>
  <use id="arrowleft" xlink:href="#arrowLeft" x="0" y="0" onmousedown="handlePan(-1,0)"/>
</g>
<svg viewBox="0 0 15 15" width="100%" height="30px" preserveAspectRatio="xMaxYMin meet">
 <g id="arrow_out" transform="scale(0.3 0.3)">
  <a xlink:href="classjuce_1_1ValueTreePropertyWithDefault_1_1SynchronousValueSource_a33226dcfe1e6f401e42f9292fd442464_cgraph_org.svg" target="_base">
   <rect id="button" ry="5" rx="5" y="6" x="6" height="38" width="38"
        fill="#f2f5e9" fill-opacity="0.5" stroke="#606060" stroke-width="1.0"/>
   <path id="arrow"
     d="M 11.500037,31.436501 C 11.940474,20.09759 22.043105,11.32322 32.158766,21.979434 L 37.068811,17.246167 C 37.068811,17.246167 37.088388,32 37.088388,32 L 22.160133,31.978069 C 22.160133,31.978069 26.997745,27.140456 26.997745,27.140456 C 18.528582,18.264221 13.291696,25.230495 11.500037,31.436501 z"
     style="fill:#404040;"/>
  </a>
 </g>
</svg>

<style type='text/css'>
<![CDATA[
[data-mouse-over-selected='false'] { opacity: 0.7; }
[data-mouse-over-selected='true']  { opacity: 1.0; }
]]>
</style>
<script type="application/ecmascript"><![CDATA[
document.addEventListener('DOMContentLoaded', (event) => {
  highlightEdges();
  highlightAdjacentNodes();
});
]]></script>
</svg>
