<?xml version="1.0" encoding="UTF-8" standalone="no"?>
<!DOCTYPE svg PUBLIC "-//W3C//DTD SVG 1.1//EN"
 "http://www.w3.org/Graphics/SVG/1.1/DTD/svg11.dtd">
<!-- Generated by graphviz version 14.0.2 (0)
 -->
<!-- Title: lmms::gui::MidiClipView::update Pages: 1 -->
<!--zoomable 182 -->

<svg id="main" version="1.1" xmlns="http://www.w3.org/2000/svg" xmlns:xlink="http://www.w3.org/1999/xlink" xml:space="preserve" onload="init(evt)">

<style type="text/css"><![CDATA[
.node, .edge {opacity: 0.7;}
.node.selected, .edge.selected {opacity: 1;}
.edge:hover path { stroke: red; }
.edge:hover polygon { stroke: red; fill: red; }
]]></style>

<defs>
  <circle id="rim" cx="0" cy="0" r="7"/>
  <circle id="rim2" cx="0" cy="0" r="3.5"/>
  <g id="zoomPlus">
    <use xlink:href="#rim" fill="#404040"><set attributeName="fill" to="#808080" begin="zoomplus.mouseover" end="zoomplus.mouseout"/></use>
    <path d="M-4,0h8M0,-4v8" fill="none" stroke="white" stroke-width="1.5" pointer-events="none"/>
  </g>
  <g id="zoomMin">
    <use xlink:href="#rim" fill="#404040"><set attributeName="fill" to="#808080" begin="zoomminus.mouseover" end="zoomminus.mouseout"/></use>
    <path d="M-4,0h8" fill="none" stroke="white" stroke-width="1.5" pointer-events="none"/>
  </g>
  <g id="arrowUp" transform="translate(30 24)">
    <use xlink:href="#rim"/>
    <path pointer-events="none" fill="none" stroke="white" stroke-width="1.5" d="M0,-3.0v7 M-2.5,-0.5L0,-3.0L2.5,-0.5"/>
  </g>
  <g id="arrowRight" transform="rotate(90) translate(36 -43)">
    <use xlink:href="#rim"/>
    <path pointer-events="none" fill="none" stroke="white" stroke-width="1.5" d="M0,-3.0v7 M-2.5,-0.5L0,-3.0L2.5,-0.5"/>
  </g>
  <g id="arrowDown" transform="rotate(180) translate(-30 -48)">
    <use xlink:href="#rim"/>
    <path pointer-events="none" fill="none" stroke="white" stroke-width="1.5" d="M0,-3.0v7 M-2.5,-0.5L0,-3.0L2.5,-0.5"/>
  </g>
  <g id="arrowLeft" transform="rotate(270) translate(-36 17)">
    <use xlink:href="#rim"/>
    <path pointer-events="none" fill="none" stroke="white" stroke-width="1.5" d="M0,-3.0v7 M-2.5,-0.5L0,-3.0L2.5,-0.5"/>
  </g>
  <g id="resetDef">
    <use xlink:href="#rim2" fill="#404040"><set attributeName="fill" to="#808080" begin="reset.mouseover" end="reset.mouseout"/></use>
  </g>
</defs>
<script type="application/ecmascript">
var viewWidth = 608;
var viewHeight = 182;
var sectionId = 'dynsection-31';
</script>
<script type="application/ecmascript" xlink:href="svg.min.js"/>
<svg id="graph" class="graph">
<g id="viewport">
<title>lmms::gui::MidiClipView::update</title>
<!-- Node1 -->
<g id="Node000001" class="node">
<title>Node1</title>
<g id="a_Node000001"><a xlink:title=" ">
<polygon fill="#999999" stroke="#666666" points="118,-123.88 0,-123.88 0,-93.38 118,-93.38 118,-123.88"/>
<text xml:space="preserve" text-anchor="start" x="8" y="-110.38" font-family="Helvetica,sans-Serif" font-size="10.00">lmms::gui::MidiClipView</text>
<text xml:space="preserve" text-anchor="middle" x="59" y="-99.12" font-family="Helvetica,sans-Serif" font-size="10.00">::update</text>
</a>
</g>
</g>
<!-- Node2 -->
<g id="Node000002" class="node">
<title>Node2</title>
<g id="a_Node000002"><a xlink:href="classlmms_1_1gui_1_1ClipView.html#ad4780889b72d781c69d93d60413c82a3" target="_top" xlink:title="Update a ClipView.">
<polygon fill="white" stroke="#666666" points="254,-123.88 154,-123.88 154,-93.38 254,-93.38 254,-123.88"/>
<text xml:space="preserve" text-anchor="start" x="162" y="-110.38" font-family="Helvetica,sans-Serif" font-size="10.00">lmms::gui::ClipView</text>
<text xml:space="preserve" text-anchor="middle" x="204" y="-99.12" font-family="Helvetica,sans-Serif" font-size="10.00">::update</text>
</a>
</g>
</g>
<!-- Node1&#45;&gt;Node2 -->
<g id="edge1_Node000001_Node000002" class="edge">
<title>Node1&#45;&gt;Node2</title>
<g id="a_edge1_Node000001_Node000002"><a xlink:title=" ">
<path fill="none" stroke="#63b8ff" d="M118.16,-108.62C126.06,-108.62 134.18,-108.62 142.13,-108.62"/>
<polygon fill="#63b8ff" stroke="#63b8ff" points="142.07,-112.13 152.07,-108.63 142.07,-105.13 142.07,-112.13"/>
</a>
</g>
</g>
<!-- Node2&#45;&gt;Node2 -->
<g id="edge4_Node000002_Node000002" class="edge">
<title>Node2&#45;&gt;Node2</title>
<g id="a_edge4_Node000002_Node000002"><a xlink:title=" ">
<path fill="none" stroke="#63b8ff" d="M178.31,-124.36C173.06,-133.43 181.63,-141.88 204,-141.88 216.24,-141.88 224.34,-139.35 228.32,-135.58"/>
<polygon fill="#63b8ff" stroke="#63b8ff" points="231.76,-136.22 229.51,-125.86 224.82,-135.36 231.76,-136.22"/>
</a>
</g>
</g>
<!-- Node3 -->
<g id="Node000003" class="node">
<title>Node3</title>
<g id="a_Node000003"><a xlink:href="classlmms_1_1gui_1_1ClipView.html#a4f233d3366e6544cd12ec84a9965e050" target="_top" xlink:title="Does this ClipView have a fixed Clip?">
<polygon fill="white" stroke="#666666" points="580,-155.88 480,-155.88 480,-125.38 580,-125.38 580,-155.88"/>
<text xml:space="preserve" text-anchor="start" x="488" y="-142.38" font-family="Helvetica,sans-Serif" font-size="10.00">lmms::gui::ClipView</text>
<text xml:space="preserve" text-anchor="middle" x="530" y="-131.12" font-family="Helvetica,sans-Serif" font-size="10.00">::fixedClips</text>
</a>
</g>
</g>
<!-- Node2&#45;&gt;Node3 -->
<g id="edge2_Node000002_Node000003" class="edge">
<title>Node2&#45;&gt;Node3</title>
<g id="a_edge2_Node000002_Node000003"><a xlink:title=" ">
<path fill="none" stroke="#63b8ff" d="M252.65,-124.26C264.71,-127.61 277.73,-130.72 290,-132.62 350.2,-141.99 419.91,-143.25 468.45,-142.61"/>
<polygon fill="#63b8ff" stroke="#63b8ff" points="468.24,-146.12 478.18,-142.45 468.13,-139.12 468.24,-146.12"/>
</a>
</g>
</g>
<!-- Node4 -->
<g id="Node000004" class="node">
<title>Node4</title>
<g id="a_Node000004"><a xlink:href="classlmms_1_1gui_1_1selectableObject.html#a4131961401899df5c158ed5a0151ff37" target="_top" xlink:title=" ">
<polygon fill="white" stroke="#666666" points="424.5,-123.88 290,-123.88 290,-93.38 424.5,-93.38 424.5,-123.88"/>
<text xml:space="preserve" text-anchor="start" x="298" y="-110.38" font-family="Helvetica,sans-Serif" font-size="10.00">lmms::gui::selectableObject</text>
<text xml:space="preserve" text-anchor="middle" x="357.25" y="-99.12" font-family="Helvetica,sans-Serif" font-size="10.00">::update</text>
</a>
</g>
</g>
<!-- Node2&#45;&gt;Node4 -->
<g id="edge5_Node000002_Node000004" class="edge">
<title>Node2&#45;&gt;Node4</title>
<g id="a_edge5_Node000002_Node000004"><a xlink:title=" ">
<path fill="none" stroke="#63b8ff" d="M254.11,-108.62C261.79,-108.62 269.88,-108.62 278.02,-108.62"/>
<polygon fill="#63b8ff" stroke="#63b8ff" points="278,-112.13 288,-108.63 278,-105.13 278,-112.13"/>
</a>
</g>
</g>
<!-- Node5 -->
<g id="Node000005" class="node">
<title>Node5</title>
<g id="a_Node000005"><a xlink:href="classlmms_1_1gui_1_1ClipView.html#acd8eec2bcf00405ab90e3f9b80f94f3e" target="_top" xlink:title="Updates a ClipView&#39;s length.">
<polygon fill="white" stroke="#666666" points="407.25,-56.88 307.25,-56.88 307.25,-26.38 407.25,-26.38 407.25,-56.88"/>
<text xml:space="preserve" text-anchor="start" x="315.25" y="-43.38" font-family="Helvetica,sans-Serif" font-size="10.00">lmms::gui::ClipView</text>
<text xml:space="preserve" text-anchor="middle" x="357.25" y="-32.12" font-family="Helvetica,sans-Serif" font-size="10.00">::updateLength</text>
</a>
</g>
</g>
<!-- Node2&#45;&gt;Node5 -->
<g id="edge6_Node000002_Node000005" class="edge">
<title>Node2&#45;&gt;Node5</title>
<g id="a_edge6_Node000002_Node000005"><a xlink:title=" ">
<path fill="none" stroke="#63b8ff" d="M240.46,-92.92C261.34,-83.67 287.97,-71.87 310.43,-61.92"/>
<polygon fill="#63b8ff" stroke="#63b8ff" points="311.64,-65.21 319.37,-57.96 308.8,-58.81 311.64,-65.21"/>
</a>
</g>
</g>
<!-- Node3&#45;&gt;Node3 -->
<g id="edge3_Node000003_Node000003" class="edge">
<title>Node3&#45;&gt;Node3</title>
<g id="a_edge3_Node000003_Node000003"><a xlink:title=" ">
<path fill="none" stroke="#63b8ff" d="M499.39,-156.36C493.14,-165.43 503.35,-173.88 530,-173.88 544.58,-173.88 554.23,-171.35 558.97,-167.58"/>
<polygon fill="#63b8ff" stroke="#63b8ff" points="562.41,-168.26 560.39,-157.86 555.48,-167.25 562.41,-168.26"/>
</a>
</g>
</g>
<!-- Node5&#45;&gt;Node3 -->
<g id="edge7_Node000005_Node000003" class="edge">
<title>Node5&#45;&gt;Node3</title>
<g id="a_edge7_Node000005_Node000003"><a xlink:title=" ">
<path fill="none" stroke="#63b8ff" d="M385.31,-57.31C414.16,-74.04 460.03,-100.63 492.16,-119.26"/>
<polygon fill="#63b8ff" stroke="#63b8ff" points="490.35,-122.26 500.76,-124.25 493.87,-116.21 490.35,-122.26"/>
</a>
</g>
</g>
<!-- Node5&#45;&gt;Node5 -->
<g id="edge11_Node000005_Node000005" class="edge">
<title>Node5&#45;&gt;Node5</title>
<g id="a_edge11_Node000005_Node000005"><a xlink:title=" ">
<path fill="none" stroke="#63b8ff" d="M330.09,-57.36C324.55,-66.43 333.6,-74.88 357.25,-74.88 370.18,-74.88 378.75,-72.35 382.95,-68.58"/>
<polygon fill="#63b8ff" stroke="#63b8ff" points="386.39,-69.23 384.21,-58.86 379.45,-68.33 386.39,-69.23"/>
</a>
</g>
</g>
<!-- Node6 -->
<g id="Node000006" class="node">
<title>Node6</title>
<g id="a_Node000006"><a xlink:href="classlmms_1_1gui_1_1ClipView.html#af65b63d846fa3fd54e9dbb16a0b0ce87" target="_top" xlink:title="How many pixels a bar takes for this ClipView.">
<polygon fill="white" stroke="#666666" points="580,-67.88 480,-67.88 480,-37.38 580,-37.38 580,-67.88"/>
<text xml:space="preserve" text-anchor="start" x="488" y="-54.38" font-family="Helvetica,sans-Serif" font-size="10.00">lmms::gui::ClipView</text>
<text xml:space="preserve" text-anchor="middle" x="530" y="-43.12" font-family="Helvetica,sans-Serif" font-size="10.00">::pixelsPerBar</text>
</a>
</g>
</g>
<!-- Node5&#45;&gt;Node6 -->
<g id="edge8_Node000005_Node000006" class="edge">
<title>Node5&#45;&gt;Node6</title>
<g id="a_edge8_Node000005_Node000006"><a xlink:title=" ">
<path fill="none" stroke="#63b8ff" d="M407.64,-44.81C426.58,-46.03 448.4,-47.43 468.28,-48.71"/>
<polygon fill="#63b8ff" stroke="#63b8ff" points="468.01,-52.2 478.21,-49.35 468.46,-45.22 468.01,-52.2"/>
</a>
</g>
</g>
<!-- Node7 -->
<g id="Node000007" class="node">
<title>Node7</title>
<g id="a_Node000007"><a xlink:href="classlmms_1_1TimePos.html#ac47e9df2390423d50a509c8ba0167e83" target="_top" xlink:title=" ">
<polygon fill="white" stroke="#666666" points="599.5,-19.25 460.5,-19.25 460.5,0 599.5,0 599.5,-19.25"/>
<text xml:space="preserve" text-anchor="middle" x="530" y="-5.75" font-family="Helvetica,sans-Serif" font-size="10.00">lmms::TimePos::ticksPerBar</text>
</a>
</g>
</g>
<!-- Node5&#45;&gt;Node7 -->
<g id="edge10_Node000005_Node000007" class="edge">
<title>Node5&#45;&gt;Node7</title>
<g id="a_edge10_Node000005_Node000007"><a xlink:title=" ">
<path fill="none" stroke="#63b8ff" d="M407.64,-32.37C425.26,-29.07 445.38,-25.3 464.1,-21.79"/>
<polygon fill="#63b8ff" stroke="#63b8ff" points="464.57,-25.26 473.76,-19.98 463.28,-18.38 464.57,-25.26"/>
</a>
</g>
</g>
<!-- Node6&#45;&gt;Node6 -->
<g id="edge9_Node000006_Node000006" class="edge">
<title>Node6&#45;&gt;Node6</title>
<g id="a_edge9_Node000006_Node000006"><a xlink:title=" ">
<path fill="none" stroke="#63b8ff" d="M499.39,-68.36C493.14,-77.43 503.35,-85.88 530,-85.88 544.58,-85.88 554.23,-83.35 558.97,-79.58"/>
<polygon fill="#63b8ff" stroke="#63b8ff" points="562.41,-80.26 560.39,-69.86 555.48,-79.25 562.41,-80.26"/>
</a>
</g>
</g>
</g>
</svg>

<g id="navigator" transform="translate(0 0)" fill="#404254">
  <rect fill="#f2f5e9" fill-opacity="0.5" stroke="#606060" stroke-width=".5" x="0" y="0" width="60" height="60"/>
  <use id="zoomplus" xlink:href="#zoomPlus" x="17" y="9" onmousedown="handleZoom(evt,'in')"/>
  <use id="zoomminus" xlink:href="#zoomMin" x="42" y="9" onmousedown="handleZoom(evt,'out')"/>
  <use id="reset" xlink:href="#resetDef" x="30" y="36" onmousedown="handleReset()"/>
   <use id="arrowup" xlink:href="#arrowUp" x="0" y="0" onmousedown="handlePan(0,-1)"/>
  <use id="arrowright" xlink:href="#arrowRight" x="0" y="0" onmousedown="handlePan(1,0)"/>
  <use id="arrowdown" xlink:href="#arrowDown" x="0" y="0" onmousedown="handlePan(0,1)"/>
  <use id="arrowleft" xlink:href="#arrowLeft" x="0" y="0" onmousedown="handlePan(-1,0)"/>
</g>
<svg viewBox="0 0 15 15" width="100%" height="30px" preserveAspectRatio="xMaxYMin meet">
 <g id="arrow_out" transform="scale(0.3 0.3)">
  <a xlink:href="classlmms_1_1gui_1_1MidiClipView_ace5b492ada1bb2f8c825423c149d3845_cgraph_org.svg" target="_base">
   <rect id="button" ry="5" rx="5" y="6" x="6" height="38" width="38"
        fill="#f2f5e9" fill-opacity="0.5" stroke="#606060" stroke-width="1.0"/>
   <path id="arrow"
     d="M 11.500037,31.436501 C 11.940474,20.09759 22.043105,11.32322 32.158766,21.979434 L 37.068811,17.246167 C 37.068811,17.246167 37.088388,32 37.088388,32 L 22.160133,31.978069 C 22.160133,31.978069 26.997745,27.140456 26.997745,27.140456 C 18.528582,18.264221 13.291696,25.230495 11.500037,31.436501 z"
     style="fill:#404040;"/>
  </a>
 </g>
</svg>

<style type='text/css'>
<![CDATA[
[data-mouse-over-selected='false'] { opacity: 0.7; }
[data-mouse-over-selected='true']  { opacity: 1.0; }
]]>
</style>
<script type="application/ecmascript"><![CDATA[
document.addEventListener('DOMContentLoaded', (event) => {
  highlightEdges();
  highlightAdjacentNodes();
});
]]></script>
</svg>
