<?xml version="1.0" encoding="UTF-8" standalone="no"?>
<!DOCTYPE svg PUBLIC "-//W3C//DTD SVG 1.1//EN"
 "http://www.w3.org/Graphics/SVG/1.1/DTD/svg11.dtd">
<!-- Generated by graphviz version 14.0.2 (0)
 -->
<!-- Title: juce::Win32WebView Pages: 1 -->
<svg width="280pt" height="479pt"
 viewBox="0.00 0.00 280.00 479.00" xmlns="http://www.w3.org/2000/svg" xmlns:xlink="http://www.w3.org/1999/xlink">
<g id="graph0" class="graph" transform="scale(1 1) rotate(0) translate(4 475)">
<title>juce::Win32WebView</title>
<!-- Node1 -->
<g id="Node000001" class="node">
<title>Node1</title>
<g id="a_Node000001"><a xlink:title=" ">
<polygon fill="#999999" stroke="none" points="204,-232.75 72,-232.75 72,0 204,0 204,-232.75"/>
<text xml:space="preserve" text-anchor="start" x="92.62" y="-219.25" font-family="Helvetica,sans-Serif" font-size="10.00">juce::Win32WebView</text>
<text xml:space="preserve" text-anchor="start" x="77.5" y="-204" font-family="Helvetica,sans-Serif" font-size="10.00">&#45;</text>
<text xml:space="preserve" text-anchor="start" x="86" y="-204" font-family="Helvetica,sans-Serif" font-size="10.00">browser</text>
<text xml:space="preserve" text-anchor="start" x="77.5" y="-188.75" font-family="Helvetica,sans-Serif" font-size="10.00">&#45;</text>
<text xml:space="preserve" text-anchor="start" x="86" y="-188.75" font-family="Helvetica,sans-Serif" font-size="10.00">connectionPoint</text>
<text xml:space="preserve" text-anchor="start" x="77.5" y="-173.5" font-family="Helvetica,sans-Serif" font-size="10.00">&#45;</text>
<text xml:space="preserve" text-anchor="start" x="86" y="-173.5" font-family="Helvetica,sans-Serif" font-size="10.00">adviseCookie</text>
<text xml:space="preserve" text-anchor="start" x="76" y="-158.25" font-family="Helvetica,sans-Serif" font-size="10.00">+</text>
<text xml:space="preserve" text-anchor="start" x="86" y="-158.25" font-family="Helvetica,sans-Serif" font-size="10.00">Win32WebView()</text>
<text xml:space="preserve" text-anchor="start" x="76" y="-143" font-family="Helvetica,sans-Serif" font-size="10.00">+</text>
<text xml:space="preserve" text-anchor="start" x="86" y="-143" font-family="Helvetica,sans-Serif" font-size="10.00">~Win32WebView()</text>
<text xml:space="preserve" text-anchor="start" x="76" y="-127.75" font-family="Helvetica,sans-Serif" font-size="10.00">+</text>
<text xml:space="preserve" text-anchor="start" x="86" y="-127.75" font-family="Helvetica,sans-Serif" font-size="10.00">createBrowser()</text>
<text xml:space="preserve" text-anchor="start" x="76" y="-112.5" font-family="Helvetica,sans-Serif" font-size="10.00">+</text>
<text xml:space="preserve" text-anchor="start" x="86" y="-112.5" font-family="Helvetica,sans-Serif" font-size="10.00">hasBrowserBeenCreated()</text>
<text xml:space="preserve" text-anchor="start" x="76" y="-97.25" font-family="Helvetica,sans-Serif" font-size="10.00">+</text>
<text xml:space="preserve" text-anchor="start" x="86" y="-97.25" font-family="Helvetica,sans-Serif" font-size="10.00">goToURL()</text>
<text xml:space="preserve" text-anchor="start" x="76" y="-82" font-family="Helvetica,sans-Serif" font-size="10.00">+</text>
<text xml:space="preserve" text-anchor="start" x="86" y="-82" font-family="Helvetica,sans-Serif" font-size="10.00">stop()</text>
<text xml:space="preserve" text-anchor="start" x="76" y="-66.75" font-family="Helvetica,sans-Serif" font-size="10.00">+</text>
<text xml:space="preserve" text-anchor="start" x="86" y="-66.75" font-family="Helvetica,sans-Serif" font-size="10.00">goBack()</text>
<text xml:space="preserve" text-anchor="start" x="76" y="-51.5" font-family="Helvetica,sans-Serif" font-size="10.00">+</text>
<text xml:space="preserve" text-anchor="start" x="86" y="-51.5" font-family="Helvetica,sans-Serif" font-size="10.00">goForward()</text>
<text xml:space="preserve" text-anchor="start" x="76" y="-36.25" font-family="Helvetica,sans-Serif" font-size="10.00">+</text>
<text xml:space="preserve" text-anchor="start" x="86" y="-36.25" font-family="Helvetica,sans-Serif" font-size="10.00">refresh()</text>
<text xml:space="preserve" text-anchor="start" x="76" y="-21" font-family="Helvetica,sans-Serif" font-size="10.00">+</text>
<text xml:space="preserve" text-anchor="start" x="86" y="-21" font-family="Helvetica,sans-Serif" font-size="10.00">focusGained()</text>
<text xml:space="preserve" text-anchor="start" x="76" y="-5.75" font-family="Helvetica,sans-Serif" font-size="10.00">+</text>
<text xml:space="preserve" text-anchor="start" x="86" y="-5.75" font-family="Helvetica,sans-Serif" font-size="10.00">setWebViewSize()</text>
<polygon fill="#666666" stroke="#666666" points="72,-215.5 72,-215.5 204,-215.5 204,-215.5 72,-215.5"/>
<polygon fill="#666666" stroke="#666666" points="72,-169.75 72,-169.75 84,-169.75 84,-169.75 72,-169.75"/>
<polygon fill="#666666" stroke="#666666" points="84,-169.75 84,-169.75 204,-169.75 204,-169.75 84,-169.75"/>
<polygon fill="none" stroke="#666666" points="72,0 72,-232.75 204,-232.75 204,0 72,0"/>
</a>
</g>
</g>
<!-- Node2 -->
<g id="Node000002" class="node">
<title>Node2</title>
<g id="a_Node000002"><a xlink:href="structjuce_1_1InternalWebViewType.html" target="_top" xlink:title=" ">
<polygon fill="white" stroke="none" points="132,-471 0,-471 0,-268.75 132,-268.75 132,-471"/>
<text xml:space="preserve" text-anchor="start" x="7.5" y="-457.5" font-family="Helvetica,sans-Serif" font-size="10.00">juce::InternalWebViewType</text>
<text xml:space="preserve" text-anchor="start" x="64.5" y="-442.25" font-family="Helvetica,sans-Serif" font-size="10.00"> </text>
<text xml:space="preserve" text-anchor="start" x="4" y="-427" font-family="Helvetica,sans-Serif" font-size="10.00">+</text>
<text xml:space="preserve" text-anchor="start" x="14" y="-427" font-family="Helvetica,sans-Serif" font-size="10.00">InternalWebViewType()</text>
<text xml:space="preserve" text-anchor="start" x="4" y="-411.75" font-family="Helvetica,sans-Serif" font-size="10.00">+</text>
<text xml:space="preserve" text-anchor="start" x="14" y="-411.75" font-family="Helvetica,sans-Serif" font-size="10.00">~InternalWebViewType()</text>
<text xml:space="preserve" text-anchor="start" x="4" y="-396.5" font-family="Helvetica,sans-Serif" font-size="10.00">+</text>
<text xml:space="preserve" text-anchor="start" x="14" y="-396.5" font-family="Helvetica,sans-Serif" font-size="10.00">createBrowser()</text>
<text xml:space="preserve" text-anchor="start" x="4" y="-381.25" font-family="Helvetica,sans-Serif" font-size="10.00">+</text>
<text xml:space="preserve" text-anchor="start" x="14" y="-381.25" font-family="Helvetica,sans-Serif" font-size="10.00">hasBrowserBeenCreated()</text>
<text xml:space="preserve" text-anchor="start" x="4" y="-366" font-family="Helvetica,sans-Serif" font-size="10.00">+</text>
<text xml:space="preserve" text-anchor="start" x="14" y="-366" font-family="Helvetica,sans-Serif" font-size="10.00">goToURL()</text>
<text xml:space="preserve" text-anchor="start" x="4" y="-350.75" font-family="Helvetica,sans-Serif" font-size="10.00">+</text>
<text xml:space="preserve" text-anchor="start" x="14" y="-350.75" font-family="Helvetica,sans-Serif" font-size="10.00">stop()</text>
<text xml:space="preserve" text-anchor="start" x="4" y="-335.5" font-family="Helvetica,sans-Serif" font-size="10.00">+</text>
<text xml:space="preserve" text-anchor="start" x="14" y="-335.5" font-family="Helvetica,sans-Serif" font-size="10.00">goBack()</text>
<text xml:space="preserve" text-anchor="start" x="4" y="-320.25" font-family="Helvetica,sans-Serif" font-size="10.00">+</text>
<text xml:space="preserve" text-anchor="start" x="14" y="-320.25" font-family="Helvetica,sans-Serif" font-size="10.00">goForward()</text>
<text xml:space="preserve" text-anchor="start" x="4" y="-305" font-family="Helvetica,sans-Serif" font-size="10.00">+</text>
<text xml:space="preserve" text-anchor="start" x="14" y="-305" font-family="Helvetica,sans-Serif" font-size="10.00">refresh()</text>
<text xml:space="preserve" text-anchor="start" x="4" y="-289.75" font-family="Helvetica,sans-Serif" font-size="10.00">+</text>
<text xml:space="preserve" text-anchor="start" x="14" y="-289.75" font-family="Helvetica,sans-Serif" font-size="10.00">focusGained()</text>
<text xml:space="preserve" text-anchor="start" x="4" y="-274.5" font-family="Helvetica,sans-Serif" font-size="10.00">+</text>
<text xml:space="preserve" text-anchor="start" x="14" y="-274.5" font-family="Helvetica,sans-Serif" font-size="10.00">setWebViewSize()</text>
<polygon fill="#666666" stroke="#666666" points="0,-453.75 0,-453.75 132,-453.75 132,-453.75 0,-453.75"/>
<polygon fill="#666666" stroke="#666666" points="0,-438.5 0,-438.5 132,-438.5 132,-438.5 0,-438.5"/>
<polygon fill="none" stroke="#666666" points="0,-268.75 0,-471 132,-471 132,-268.75 0,-268.75"/>
</a>
</g>
</g>
<!-- Node2&#45;&gt;Node1 -->
<g id="edge1_Node000001_Node000002" class="edge">
<title>Node2&#45;&gt;Node1</title>
<g id="a_edge1_Node000001_Node000002"><a xlink:title=" ">
<path fill="none" stroke="#63b8ff" d="M97.8,-257.78C100.21,-249.39 102.63,-240.91 105.04,-232.49"/>
<polygon fill="none" stroke="#63b8ff" points="94.47,-256.72 95.08,-267.3 101.2,-258.65 94.47,-256.72"/>
</a>
</g>
</g>
<!-- Node3 -->
<g id="Node000003" class="node">
<title>Node3</title>
<g id="a_Node000003"><a xlink:title=" ">
<polygon fill="white" stroke="none" points="272.38,-394.75 149.62,-394.75 149.62,-345 272.38,-345 272.38,-394.75"/>
<text xml:space="preserve" text-anchor="start" x="153.62" y="-381.25" font-family="Helvetica,sans-Serif" font-size="10.00">ActiveXControlComponent</text>
<text xml:space="preserve" text-anchor="start" x="209.5" y="-366" font-family="Helvetica,sans-Serif" font-size="10.00"> </text>
<text xml:space="preserve" text-anchor="start" x="209.5" y="-350.75" font-family="Helvetica,sans-Serif" font-size="10.00"> </text>
<polygon fill="#666666" stroke="#666666" points="149.62,-377.5 149.62,-377.5 272.38,-377.5 272.38,-377.5 149.62,-377.5"/>
<polygon fill="#666666" stroke="#666666" points="149.62,-362.25 149.62,-362.25 272.38,-362.25 272.38,-362.25 149.62,-362.25"/>
<polygon fill="none" stroke="#666666" points="149.62,-345 149.62,-394.75 272.38,-394.75 272.38,-345 149.62,-345"/>
</a>
</g>
</g>
<!-- Node3&#45;&gt;Node1 -->
<g id="edge2_Node000001_Node000003" class="edge">
<title>Node3&#45;&gt;Node1</title>
<g id="a_edge2_Node000001_Node000003"><a xlink:title=" ">
<path fill="none" stroke="#63b8ff" d="M200.95,-334.24C193.24,-307.71 182.15,-269.48 171.41,-232.48"/>
<polygon fill="none" stroke="#63b8ff" points="197.56,-335.13 203.71,-343.76 204.28,-333.18 197.56,-335.13"/>
</a>
</g>
</g>
</g>
</svg>
