<?xml version="1.0" encoding="UTF-8" standalone="no"?>
<!DOCTYPE svg PUBLIC "-//W3C//DTD SVG 1.1//EN"
 "http://www.w3.org/Graphics/SVG/1.1/DTD/svg11.dtd">
<!-- Generated by graphviz version 14.0.2 (0)
 -->
<!-- Title: juce::File::operator!= Pages: 1 -->
<svg width="268pt" height="100pt"
 viewBox="0.00 0.00 268.00 100.00" xmlns="http://www.w3.org/2000/svg" xmlns:xlink="http://www.w3.org/1999/xlink">
<g id="graph0" class="graph" transform="scale(1 1) rotate(0) translate(4 96.25)">
<title>juce::File::operator!=</title>
<!-- Node1 -->
<g id="Node000001" class="node">
<title>Node1</title>
<g id="a_Node000001"><a xlink:title=" ">
<polygon fill="#999999" stroke="#666666" points="103,-46.25 0,-46.25 0,-27 103,-27 103,-46.25"/>
<text xml:space="preserve" text-anchor="middle" x="51.5" y="-32.75" font-family="Helvetica,sans-Serif" font-size="10.00">juce::File::operator!=</text>
</a>
</g>
</g>
<!-- Node2 -->
<g id="Node000002" class="node">
<title>Node2</title>
<g id="a_Node000002"><a xlink:href="namespacejuce.html#ad22ed49c4a5a27d3469982c8a4a4331d" target="_top" xlink:title=" ">
<polygon fill="white" stroke="#666666" points="260,-74.25 139,-74.25 139,-55 260,-55 260,-74.25"/>
<text xml:space="preserve" text-anchor="middle" x="199.5" y="-60.75" font-family="Helvetica,sans-Serif" font-size="10.00">juce::compareFilenames</text>
</a>
</g>
</g>
<!-- Node1&#45;&gt;Node2 -->
<g id="edge1_Node000001_Node000002" class="edge">
<title>Node1&#45;&gt;Node2</title>
<g id="a_edge1_Node000001_Node000002"><a xlink:title=" ">
<path fill="none" stroke="#63b8ff" d="M103.15,-46.34C113.32,-48.29 124.12,-50.36 134.66,-52.38"/>
<polygon fill="#63b8ff" stroke="#63b8ff" points="133.99,-55.82 144.47,-54.26 135.3,-48.94 133.99,-55.82"/>
</a>
</g>
</g>
<!-- Node3 -->
<g id="Node000003" class="node">
<title>Node3</title>
<g id="a_Node000003"><a xlink:href="classjuce_1_1File.html#adc85753984112fd61b3d1cd4a8043225" target="_top" xlink:title=" ">
<polygon fill="white" stroke="#666666" points="236.75,-19.25 162.25,-19.25 162.25,0 236.75,0 236.75,-19.25"/>
<text xml:space="preserve" text-anchor="middle" x="199.5" y="-5.75" font-family="Helvetica,sans-Serif" font-size="10.00">juce::File::File</text>
</a>
</g>
</g>
<!-- Node1&#45;&gt;Node3 -->
<g id="edge3_Node000001_Node000003" class="edge">
<title>Node1&#45;&gt;Node3</title>
<g id="a_edge3_Node000001_Node000003"><a xlink:title=" ">
<path fill="none" stroke="#63b8ff" d="M103.15,-27.26C118.64,-24.39 135.62,-21.25 150.9,-18.43"/>
<polygon fill="#63b8ff" stroke="#63b8ff" points="151.51,-21.87 160.71,-16.61 150.24,-14.99 151.51,-21.87"/>
</a>
</g>
</g>
<!-- Node2&#45;&gt;Node2 -->
<g id="edge2_Node000002_Node000002" class="edge">
<title>Node2&#45;&gt;Node2</title>
<g id="a_edge2_Node000002_Node000002"><a xlink:title=" ">
<path fill="none" stroke="#63b8ff" d="M176.33,-74.54C165.76,-83.15 173.48,-92.25 199.5,-92.25 214.13,-92.25 222.98,-89.37 226.04,-85.32"/>
<polygon fill="#63b8ff" stroke="#63b8ff" points="229.44,-84.48 223.12,-75.98 222.76,-86.57 229.44,-84.48"/>
</a>
</g>
</g>
<!-- Node3&#45;&gt;Node3 -->
<g id="edge4_Node000003_Node000003" class="edge">
<title>Node3&#45;&gt;Node3</title>
<g id="a_edge4_Node000003_Node000003"><a xlink:title=" ">
<path fill="none" stroke="#63b8ff" d="M176.33,-19.54C165.76,-28.15 173.48,-37.25 199.5,-37.25 214.13,-37.25 222.98,-34.37 226.04,-30.32"/>
<polygon fill="#63b8ff" stroke="#63b8ff" points="229.44,-29.48 223.12,-20.98 222.76,-31.57 229.44,-29.48"/>
</a>
</g>
</g>
</g>
</svg>
