<?xml version="1.0" encoding="UTF-8" standalone="no"?>
<!DOCTYPE svg PUBLIC "-//W3C//DTD SVG 1.1//EN"
 "http://www.w3.org/Graphics/SVG/1.1/DTD/svg11.dtd">
<!-- Generated by graphviz version 14.0.2 (0)
 -->
<!-- Title: juce::BigInteger::setRange Pages: 1 -->
<svg width="623pt" height="64pt"
 viewBox="0.00 0.00 623.00 64.00" xmlns="http://www.w3.org/2000/svg" xmlns:xlink="http://www.w3.org/1999/xlink">
<g id="graph0" class="graph" transform="scale(1 1) rotate(0) translate(4 60.25)">
<title>juce::BigInteger::setRange</title>
<!-- Node1 -->
<g id="Node000001" class="node">
<title>Node1</title>
<g id="a_Node000001"><a xlink:title=" ">
<polygon fill="#999999" stroke="#666666" points="128.5,-19.25 0,-19.25 0,0 128.5,0 128.5,-19.25"/>
<text xml:space="preserve" text-anchor="middle" x="64.25" y="-5.75" font-family="Helvetica,sans-Serif" font-size="10.00">juce::BigInteger::setRange</text>
</a>
</g>
</g>
<!-- Node1&#45;&gt;Node1 -->
<g id="edge8_Node000001_Node000001" class="edge">
<title>Node1&#45;&gt;Node1</title>
<g id="a_edge8_Node000001_Node000001"><a xlink:title=" ">
<path fill="none" stroke="#63b8ff" d="M39.73,-19.54C28.54,-28.15 36.72,-37.25 64.25,-37.25 79.74,-37.25 89.1,-34.37 92.33,-30.32"/>
<polygon fill="#63b8ff" stroke="#63b8ff" points="95.71,-29.37 89.25,-20.98 89.06,-31.57 95.71,-29.37"/>
</a>
</g>
</g>
<!-- Node2 -->
<g id="Node000002" class="node">
<title>Node2</title>
<g id="a_Node000002"><a xlink:href="classjuce_1_1BigInteger.html#ab1e1ed243fd37773c1a998234c485d91" target="_top" xlink:title=" ">
<polygon fill="white" stroke="#666666" points="277.25,-19.25 164.5,-19.25 164.5,0 277.25,0 277.25,-19.25"/>
<text xml:space="preserve" text-anchor="middle" x="220.88" y="-5.75" font-family="Helvetica,sans-Serif" font-size="10.00">juce::BigInteger::setBit</text>
</a>
</g>
</g>
<!-- Node1&#45;&gt;Node2 -->
<g id="edge1_Node000001_Node000002" class="edge">
<title>Node1&#45;&gt;Node2</title>
<g id="a_edge1_Node000001_Node000002"><a xlink:title=" ">
<path fill="none" stroke="#63b8ff" d="M128.59,-9.62C136.64,-9.62 144.9,-9.62 153,-9.62"/>
<polygon fill="#63b8ff" stroke="#63b8ff" points="152.8,-13.13 162.8,-9.63 152.8,-6.13 152.8,-13.13"/>
</a>
</g>
</g>
<!-- Node2&#45;&gt;Node2 -->
<g id="edge7_Node000002_Node000002" class="edge">
<title>Node2&#45;&gt;Node2</title>
<g id="a_edge7_Node000002_Node000002"><a xlink:title=" ">
<path fill="none" stroke="#63b8ff" d="M196.35,-19.54C185.17,-28.15 193.34,-37.25 220.88,-37.25 236.36,-37.25 245.72,-34.37 248.96,-30.32"/>
<polygon fill="#63b8ff" stroke="#63b8ff" points="252.33,-29.37 245.87,-20.98 245.69,-31.57 252.33,-29.37"/>
</a>
</g>
</g>
<!-- Node3 -->
<g id="Node000003" class="node">
<title>Node3</title>
<g id="a_Node000003"><a xlink:href="classjuce_1_1BigInteger.html#ac275ec2646ef99b03321f5a1cb1b0460" target="_top" xlink:title=" ">
<polygon fill="white" stroke="#666666" points="448.5,-38.25 313.25,-38.25 313.25,-19 448.5,-19 448.5,-38.25"/>
<text xml:space="preserve" text-anchor="middle" x="380.88" y="-24.75" font-family="Helvetica,sans-Serif" font-size="10.00">juce::BigInteger::ensureSize</text>
</a>
</g>
</g>
<!-- Node2&#45;&gt;Node3 -->
<g id="edge2_Node000002_Node000003" class="edge">
<title>Node2&#45;&gt;Node3</title>
<g id="a_edge2_Node000002_Node000003"><a xlink:title=" ">
<path fill="none" stroke="#63b8ff" d="M277.58,-16.32C285.31,-17.25 293.37,-18.22 301.41,-19.19"/>
<polygon fill="#63b8ff" stroke="#63b8ff" points="300.91,-22.65 311.25,-20.37 301.74,-15.7 300.91,-22.65"/>
</a>
</g>
</g>
<!-- Node4 -->
<g id="Node000004" class="node">
<title>Node4</title>
<g id="a_Node000004"><a xlink:href="classjuce_1_1BigInteger.html#a5318c3040572d5c9f4556a7aa21beb5b" target="_top" xlink:title=" ">
<polygon fill="white" stroke="#666666" points="615.25,-19.25 484.5,-19.25 484.5,0 615.25,0 615.25,-19.25"/>
<text xml:space="preserve" text-anchor="middle" x="549.88" y="-5.75" font-family="Helvetica,sans-Serif" font-size="10.00">juce::BigInteger::getValues</text>
</a>
</g>
</g>
<!-- Node2&#45;&gt;Node4 -->
<g id="edge6_Node000002_Node000004" class="edge">
<title>Node2&#45;&gt;Node4</title>
<g id="a_edge6_Node000002_Node000004"><a xlink:title=" ">
<path fill="none" stroke="#63b8ff" d="M277.72,-9.62C331.53,-9.62 413.34,-9.62 473.03,-9.62"/>
<polygon fill="#63b8ff" stroke="#63b8ff" points="472.77,-13.13 482.77,-9.63 472.77,-6.13 472.77,-13.13"/>
</a>
</g>
</g>
<!-- Node3&#45;&gt;Node3 -->
<g id="edge3_Node000003_Node000003" class="edge">
<title>Node3&#45;&gt;Node3</title>
<g id="a_edge3_Node000003_Node000003"><a xlink:title=" ">
<path fill="none" stroke="#63b8ff" d="M355.83,-38.54C344.4,-47.15 352.75,-56.25 380.88,-56.25 396.7,-56.25 406.26,-53.37 409.56,-49.32"/>
<polygon fill="#63b8ff" stroke="#63b8ff" points="412.92,-48.33 406.41,-39.97 406.29,-50.57 412.92,-48.33"/>
</a>
</g>
</g>
<!-- Node3&#45;&gt;Node4 -->
<g id="edge4_Node000003_Node000004" class="edge">
<title>Node3&#45;&gt;Node4</title>
<g id="a_edge4_Node000003_Node000004"><a xlink:title=" ">
<path fill="none" stroke="#63b8ff" d="M448.84,-21.01C456.73,-20.11 464.83,-19.19 472.84,-18.28"/>
<polygon fill="#63b8ff" stroke="#63b8ff" points="473.03,-21.78 482.57,-17.17 472.23,-14.82 473.03,-21.78"/>
</a>
</g>
</g>
<!-- Node4&#45;&gt;Node4 -->
<g id="edge5_Node000004_Node000004" class="edge">
<title>Node4&#45;&gt;Node4</title>
<g id="a_edge5_Node000004_Node000004"><a xlink:title=" ">
<path fill="none" stroke="#63b8ff" d="M523.42,-19.54C511.35,-28.15 520.17,-37.25 549.88,-37.25 566.59,-37.25 576.69,-34.37 580.18,-30.32"/>
<polygon fill="#63b8ff" stroke="#63b8ff" points="583.5,-29.21 576.84,-20.96 576.91,-31.56 583.5,-29.21"/>
</a>
</g>
</g>
</g>
</svg>
