<?xml version="1.0" encoding="UTF-8" standalone="no"?>
<!DOCTYPE svg PUBLIC "-//W3C//DTD SVG 1.1//EN"
 "http://www.w3.org/Graphics/SVG/1.1/DTD/svg11.dtd">
<!-- Generated by graphviz version 14.0.2 (0)
 -->
<!-- Title: Jack::AudioInterface::longinfo Pages: 1 -->
<svg width="344pt" height="102pt"
 viewBox="0.00 0.00 344.00 102.00" xmlns="http://www.w3.org/2000/svg" xmlns:xlink="http://www.w3.org/1999/xlink">
<g id="graph0" class="graph" transform="scale(1 1) rotate(0) translate(4 98.04)">
<title>Jack::AudioInterface::longinfo</title>
<!-- Node1 -->
<g id="Node000001" class="node">
<title>Node1</title>
<g id="a_Node000001"><a xlink:title=" ">
<polygon fill="#999999" stroke="#666666" points="104.5,-79.5 0,-79.5 0,-49 104.5,-49 104.5,-79.5"/>
<text xml:space="preserve" text-anchor="start" x="8" y="-66" font-family="Helvetica,sans-Serif" font-size="10.00">Jack::AudioInterface</text>
<text xml:space="preserve" text-anchor="middle" x="52.25" y="-54.75" font-family="Helvetica,sans-Serif" font-size="10.00">::longinfo</text>
</a>
</g>
</g>
<!-- Node2 -->
<g id="Node000002" class="node">
<title>Node2</title>
<g id="a_Node000002"><a xlink:href="group__ControlAPI.html#ga21328fd378306e0da7270952196eb717" target="_top" xlink:title=" ">
<polygon fill="white" stroke="#666666" points="336,-73.88 281,-73.88 281,-54.62 336,-54.62 336,-73.88"/>
<text xml:space="preserve" text-anchor="middle" x="308.5" y="-60.38" font-family="Helvetica,sans-Serif" font-size="10.00">jack_info</text>
</a>
</g>
</g>
<!-- Node1&#45;&gt;Node2 -->
<g id="edge1_Node000001_Node000002" class="edge">
<title>Node1&#45;&gt;Node2</title>
<g id="a_edge1_Node000001_Node000002"><a xlink:title=" ">
<path fill="none" stroke="#63b8ff" d="M101.23,-79.93C113.86,-83.37 127.58,-86.51 140.5,-88.25 186.53,-94.46 199.33,-96.72 245,-88.25 255.55,-86.29 266.61,-82.63 276.45,-78.74"/>
<polygon fill="#63b8ff" stroke="#63b8ff" points="277.68,-82.02 285.54,-74.93 274.97,-75.57 277.68,-82.02"/>
</a>
</g>
</g>
<!-- Node3 -->
<g id="Node000003" class="node">
<title>Node3</title>
<g id="a_Node000003"><a xlink:href="classJack_1_1AudioInterface.html#a01ab391763a962ca6add0d43cd9b5507" target="_top" xlink:title=" ">
<polygon fill="white" stroke="#666666" points="245,-79.5 140.5,-79.5 140.5,-49 245,-49 245,-79.5"/>
<text xml:space="preserve" text-anchor="start" x="148.5" y="-66" font-family="Helvetica,sans-Serif" font-size="10.00">Jack::AudioInterface</text>
<text xml:space="preserve" text-anchor="middle" x="192.75" y="-54.75" font-family="Helvetica,sans-Serif" font-size="10.00">::printCardInfo</text>
</a>
</g>
</g>
<!-- Node1&#45;&gt;Node3 -->
<g id="edge2_Node000001_Node000003" class="edge">
<title>Node1&#45;&gt;Node3</title>
<g id="a_edge2_Node000001_Node000003"><a xlink:title=" ">
<path fill="none" stroke="#63b8ff" d="M104.82,-64.25C112.66,-64.25 120.83,-64.25 128.88,-64.25"/>
<polygon fill="#63b8ff" stroke="#63b8ff" points="128.62,-67.75 138.62,-64.25 128.62,-60.75 128.62,-67.75"/>
</a>
</g>
</g>
<!-- Node4 -->
<g id="Node000004" class="node">
<title>Node4</title>
<g id="a_Node000004"><a xlink:href="classJack_1_1AudioInterface.html#af4a9d648e78137a2d8d1db4c373796fc" target="_top" xlink:title=" ">
<polygon fill="white" stroke="#666666" points="245,-30.5 140.5,-30.5 140.5,0 245,0 245,-30.5"/>
<text xml:space="preserve" text-anchor="start" x="148.5" y="-17" font-family="Helvetica,sans-Serif" font-size="10.00">Jack::AudioInterface</text>
<text xml:space="preserve" text-anchor="middle" x="192.75" y="-5.75" font-family="Helvetica,sans-Serif" font-size="10.00">::printHWParams</text>
</a>
</g>
</g>
<!-- Node1&#45;&gt;Node4 -->
<g id="edge4_Node000001_Node000004" class="edge">
<title>Node1&#45;&gt;Node4</title>
<g id="a_edge4_Node000001_Node000004"><a xlink:title=" ">
<path fill="none" stroke="#63b8ff" d="M97.45,-48.61C109.95,-44.19 123.7,-39.33 136.74,-34.71"/>
<polygon fill="#63b8ff" stroke="#63b8ff" points="137.8,-38.05 146.06,-31.41 135.47,-31.45 137.8,-38.05"/>
</a>
</g>
</g>
<!-- Node3&#45;&gt;Node2 -->
<g id="edge3_Node000003_Node000002" class="edge">
<title>Node3&#45;&gt;Node2</title>
<g id="a_edge3_Node000003_Node000002"><a xlink:title=" ">
<path fill="none" stroke="#63b8ff" d="M245.3,-64.25C253.42,-64.25 261.68,-64.25 269.43,-64.25"/>
<polygon fill="#63b8ff" stroke="#63b8ff" points="269.17,-67.75 279.17,-64.25 269.17,-60.75 269.17,-67.75"/>
</a>
</g>
</g>
<!-- Node4&#45;&gt;Node2 -->
<g id="edge5_Node000004_Node000002" class="edge">
<title>Node4&#45;&gt;Node2</title>
<g id="a_edge5_Node000004_Node000002"><a xlink:title=" ">
<path fill="none" stroke="#63b8ff" d="M230.05,-30.89C244.01,-36.9 259.87,-43.73 273.59,-49.64"/>
<polygon fill="#63b8ff" stroke="#63b8ff" points="272.1,-52.81 282.67,-53.55 274.87,-46.38 272.1,-52.81"/>
</a>
</g>
</g>
</g>
</svg>
