<?xml version="1.0" encoding="UTF-8" standalone="no"?>
<!DOCTYPE svg PUBLIC "-//W3C//DTD SVG 1.1//EN"
 "http://www.w3.org/Graphics/SVG/1.1/DTD/svg11.dtd">
<!-- Generated by graphviz version 14.0.2 (0)
 -->
<!-- Title: juce::SystemTrayIconComponent::Pimpl::getPimpl Pages: 1 -->
<svg width="730pt" height="179pt"
 viewBox="0.00 0.00 730.00 179.00" xmlns="http://www.w3.org/2000/svg" xmlns:xlink="http://www.w3.org/1999/xlink">
<g id="graph0" class="graph" transform="scale(1 1) rotate(0) translate(4 174.88)">
<title>juce::SystemTrayIconComponent::Pimpl::getPimpl</title>
<!-- Node1 -->
<g id="Node000001" class="node">
<title>Node1</title>
<g id="a_Node000001"><a xlink:title=" ">
<polygon fill="#999999" stroke="#666666" points="158.5,-115.5 0,-115.5 0,-85 158.5,-85 158.5,-115.5"/>
<text xml:space="preserve" text-anchor="start" x="8" y="-102" font-family="Helvetica,sans-Serif" font-size="10.00">juce::SystemTrayIconComponent</text>
<text xml:space="preserve" text-anchor="middle" x="79.25" y="-90.75" font-family="Helvetica,sans-Serif" font-size="10.00">::Pimpl::getPimpl</text>
</a>
</g>
</g>
<!-- Node2 -->
<g id="Node000002" class="node">
<title>Node2</title>
<g id="a_Node000002"><a xlink:href="classjuce_1_1JuceWindowIdentifier.html#a787aaa19d69038401f54b247da153e68" target="_top" xlink:title=" ">
<polygon fill="white" stroke="#666666" points="339.12,-149.5 208.38,-149.5 208.38,-119 339.12,-119 339.12,-149.5"/>
<text xml:space="preserve" text-anchor="start" x="216.38" y="-136" font-family="Helvetica,sans-Serif" font-size="10.00">juce::JuceWindowIdentifier</text>
<text xml:space="preserve" text-anchor="middle" x="273.75" y="-124.75" font-family="Helvetica,sans-Serif" font-size="10.00">::isJUCEWindow</text>
</a>
</g>
</g>
<!-- Node1&#45;&gt;Node2 -->
<g id="edge1_Node000001_Node000002" class="edge">
<title>Node1&#45;&gt;Node2</title>
<g id="a_edge1_Node000001_Node000002"><a xlink:title=" ">
<path fill="none" stroke="#63b8ff" d="M158.82,-114.13C171.32,-116.34 184.23,-118.62 196.67,-120.81"/>
<polygon fill="#63b8ff" stroke="#63b8ff" points="195.99,-124.25 206.44,-122.54 197.2,-117.35 195.99,-124.25"/>
</a>
</g>
</g>
<!-- Node7 -->
<g id="Node000007" class="node">
<title>Node7</title>
<g id="a_Node000007"><a xlink:href="classjuce_1_1SystemTrayIconComponent_1_1Pimpl.html#a8916adfcce2ae93d076bc415c5f33b6d" target="_top" xlink:title=" ">
<polygon fill="white" stroke="#666666" points="353,-91.5 194.5,-91.5 194.5,-61 353,-61 353,-91.5"/>
<text xml:space="preserve" text-anchor="start" x="202.5" y="-78" font-family="Helvetica,sans-Serif" font-size="10.00">juce::SystemTrayIconComponent</text>
<text xml:space="preserve" text-anchor="middle" x="273.75" y="-66.75" font-family="Helvetica,sans-Serif" font-size="10.00">::Pimpl::Pimpl</text>
</a>
</g>
</g>
<!-- Node1&#45;&gt;Node7 -->
<g id="edge5_Node000001_Node000007" class="edge">
<title>Node1&#45;&gt;Node7</title>
<g id="a_edge5_Node000001_Node000007"><a xlink:title=" ">
<path fill="none" stroke="#63b8ff" d="M158.82,-90.45C166.74,-89.47 174.82,-88.46 182.84,-87.46"/>
<polygon fill="#63b8ff" stroke="#63b8ff" points="183.12,-90.95 192.61,-86.24 182.26,-84.01 183.12,-90.95"/>
</a>
</g>
</g>
<!-- Node3 -->
<g id="Node000003" class="node">
<title>Node3</title>
<g id="a_Node000003"><a xlink:href="classjuce_1_1JuceWindowIdentifier.html#af53dd050de458589766b9d39aeae7da4" target="_top" xlink:title=" ">
<polygon fill="white" stroke="#666666" points="540,-158.5 389,-158.5 389,-128 540,-128 540,-158.5"/>
<text xml:space="preserve" text-anchor="start" x="397" y="-145" font-family="Helvetica,sans-Serif" font-size="10.00">juce::JuceWindowIdentifier</text>
<text xml:space="preserve" text-anchor="middle" x="464.5" y="-133.75" font-family="Helvetica,sans-Serif" font-size="10.00">::getImprobableWindowNumber</text>
</a>
</g>
</g>
<!-- Node2&#45;&gt;Node3 -->
<g id="edge2_Node000002_Node000003" class="edge">
<title>Node2&#45;&gt;Node3</title>
<g id="a_edge2_Node000002_Node000003"><a xlink:title=" ">
<path fill="none" stroke="#63b8ff" d="M339.44,-137.33C351.74,-137.92 364.79,-138.54 377.62,-139.16"/>
<polygon fill="#63b8ff" stroke="#63b8ff" points="377.16,-142.64 387.31,-139.62 377.49,-135.64 377.16,-142.64"/>
</a>
</g>
</g>
<!-- Node4 -->
<g id="Node000004" class="node">
<title>Node4</title>
<g id="a_Node000004"><a xlink:href="classjuce_1_1Random.html#a920619774562df74aa9c530158d42112" target="_top" xlink:title=" ">
<polygon fill="#fff0f0" stroke="red" points="708.25,-152.88 589.5,-152.88 589.5,-133.62 708.25,-133.62 708.25,-152.88"/>
<text xml:space="preserve" text-anchor="middle" x="648.88" y="-139.38" font-family="Helvetica,sans-Serif" font-size="10.00">juce::Random::nextInt64</text>
</a>
</g>
</g>
<!-- Node3&#45;&gt;Node4 -->
<g id="edge3_Node000003_Node000004" class="edge">
<title>Node3&#45;&gt;Node4</title>
<g id="a_edge3_Node000003_Node000004"><a xlink:title=" ">
<path fill="none" stroke="#63b8ff" d="M540.47,-143.25C552.75,-143.25 565.44,-143.25 577.61,-143.25"/>
<polygon fill="#63b8ff" stroke="#63b8ff" points="577.57,-146.75 587.57,-143.25 577.57,-139.75 577.57,-146.75"/>
</a>
</g>
</g>
<!-- Node4&#45;&gt;Node4 -->
<g id="edge4_Node000004_Node000004" class="edge">
<title>Node4&#45;&gt;Node4</title>
<g id="a_edge4_Node000004_Node000004"><a xlink:title=" ">
<path fill="none" stroke="#63b8ff" d="M620.01,-153.16C606.84,-161.77 616.47,-170.88 648.88,-170.88 667.61,-170.88 678.73,-167.83 682.24,-163.6"/>
<polygon fill="#63b8ff" stroke="#63b8ff" points="685.51,-162.35 678.34,-154.55 679.08,-165.12 685.51,-162.35"/>
</a>
</g>
</g>
<!-- Node8 -->
<g id="Node000008" class="node">
<title>Node8</title>
<g id="a_Node000008"><a xlink:href="structjuce_1_1XWindowSystemUtilities_1_1Atoms.html#af68037f80a2ae35e068017aa15e171b3" target="_top" xlink:title=" ">
<polygon fill="white" stroke="#666666" points="537.38,-91.5 391.62,-91.5 391.62,-61 537.38,-61 537.38,-91.5"/>
<text xml:space="preserve" text-anchor="start" x="399.62" y="-78" font-family="Helvetica,sans-Serif" font-size="10.00">juce::XWindowSystemUtilities</text>
<text xml:space="preserve" text-anchor="middle" x="464.5" y="-66.75" font-family="Helvetica,sans-Serif" font-size="10.00">::Atoms::getCreating</text>
</a>
</g>
</g>
<!-- Node7&#45;&gt;Node8 -->
<g id="edge6_Node000007_Node000008" class="edge">
<title>Node7&#45;&gt;Node8</title>
<g id="a_edge6_Node000007_Node000008"><a xlink:title=" ">
<path fill="none" stroke="#63b8ff" d="M353.43,-76.25C362.15,-76.25 371.06,-76.25 379.84,-76.25"/>
<polygon fill="#63b8ff" stroke="#63b8ff" points="379.77,-79.75 389.77,-76.25 379.77,-72.75 379.77,-79.75"/>
</a>
</g>
</g>
<!-- Node9 -->
<g id="Node000009" class="node">
<title>Node9</title>
<g id="a_Node000009"><a xlink:href="classjuce_1_1String.html#aabef96ce5e32ca15473b3694309f2647" target="_top" xlink:title=" ">
<polygon fill="white" stroke="#666666" points="515.25,-24.88 413.75,-24.88 413.75,-5.63 515.25,-5.63 515.25,-24.88"/>
<text xml:space="preserve" text-anchor="middle" x="464.5" y="-11.38" font-family="Helvetica,sans-Serif" font-size="10.00">juce::String::toUTF8</text>
</a>
</g>
</g>
<!-- Node7&#45;&gt;Node9 -->
<g id="edge8_Node000007_Node000009" class="edge">
<title>Node7&#45;&gt;Node9</title>
<g id="a_edge8_Node000007_Node000009"><a xlink:title=" ">
<path fill="none" stroke="#63b8ff" d="M323.36,-60.54C353.77,-50.71 392.55,-38.18 421.6,-28.79"/>
<polygon fill="#63b8ff" stroke="#63b8ff" points="422.34,-32.23 430.78,-25.82 420.19,-25.57 422.34,-32.23"/>
</a>
</g>
</g>
<!-- Node8&#45;&gt;Node8 -->
<g id="edge7_Node000008_Node000008" class="edge">
<title>Node8&#45;&gt;Node8</title>
<g id="a_edge7_Node000008_Node000008"><a xlink:title=" ">
<path fill="none" stroke="#63b8ff" d="M431.83,-91.99C425.16,-101.06 436.05,-109.5 464.5,-109.5 480.06,-109.5 490.36,-106.97 495.42,-103.2"/>
<polygon fill="#63b8ff" stroke="#63b8ff" points="498.85,-103.9 496.94,-93.48 491.94,-102.82 498.85,-103.9"/>
</a>
</g>
</g>
<!-- Node9&#45;&gt;Node9 -->
<g id="edge10_Node000009_Node000009" class="edge">
<title>Node9&#45;&gt;Node9</title>
<g id="a_edge10_Node000009_Node000009"><a xlink:title=" ">
<path fill="none" stroke="#63b8ff" d="M435.64,-25.16C422.47,-33.77 432.09,-42.88 464.5,-42.88 483.24,-42.88 494.36,-39.83 497.86,-35.6"/>
<polygon fill="#63b8ff" stroke="#63b8ff" points="501.13,-34.35 493.96,-26.55 494.71,-37.12 501.13,-34.35"/>
</a>
</g>
</g>
<!-- Node10 -->
<g id="Node000010" class="node">
<title>Node10</title>
<g id="a_Node000010"><a xlink:href="structjuce_1_1StringEncodingConverter.html#a603c162437ab72dc9c0372197a9cf705" target="_top" xlink:title=" ">
<polygon fill="#fff0f0" stroke="red" points="721.75,-30.5 576,-30.5 576,0 721.75,0 721.75,-30.5"/>
<text xml:space="preserve" text-anchor="start" x="584" y="-17" font-family="Helvetica,sans-Serif" font-size="10.00">juce::StringEncodingConverter</text>
<text xml:space="preserve" text-anchor="middle" x="648.88" y="-5.75" font-family="Helvetica,sans-Serif" font-size="10.00">::convert</text>
</a>
</g>
</g>
<!-- Node9&#45;&gt;Node10 -->
<g id="edge9_Node000009_Node000010" class="edge">
<title>Node9&#45;&gt;Node10</title>
<g id="a_edge9_Node000009_Node000010"><a xlink:title=" ">
<path fill="none" stroke="#63b8ff" d="M515.33,-15.25C530.42,-15.25 547.41,-15.25 564.08,-15.25"/>
<polygon fill="#63b8ff" stroke="#63b8ff" points="564.02,-18.75 574.02,-15.25 564.02,-11.75 564.02,-18.75"/>
</a>
</g>
</g>
</g>
</svg>
