<?xml version="1.0" encoding="UTF-8" standalone="no"?>
<!DOCTYPE svg PUBLIC "-//W3C//DTD SVG 1.1//EN"
 "http://www.w3.org/Graphics/SVG/1.1/DTD/svg11.dtd">
<!-- Generated by graphviz version 14.0.2 (0)
 -->
<!-- Title: zyncarla::XMLwrapper::loadXMLfile Pages: 1 -->
<!--zoomable 359 -->

<svg id="main" version="1.1" xmlns="http://www.w3.org/2000/svg" xmlns:xlink="http://www.w3.org/1999/xlink" xml:space="preserve" onload="init(evt)">

<style type="text/css"><![CDATA[
.node, .edge {opacity: 0.7;}
.node.selected, .edge.selected {opacity: 1;}
.edge:hover path { stroke: red; }
.edge:hover polygon { stroke: red; fill: red; }
]]></style>

<defs>
  <circle id="rim" cx="0" cy="0" r="7"/>
  <circle id="rim2" cx="0" cy="0" r="3.5"/>
  <g id="zoomPlus">
    <use xlink:href="#rim" fill="#404040"><set attributeName="fill" to="#808080" begin="zoomplus.mouseover" end="zoomplus.mouseout"/></use>
    <path d="M-4,0h8M0,-4v8" fill="none" stroke="white" stroke-width="1.5" pointer-events="none"/>
  </g>
  <g id="zoomMin">
    <use xlink:href="#rim" fill="#404040"><set attributeName="fill" to="#808080" begin="zoomminus.mouseover" end="zoomminus.mouseout"/></use>
    <path d="M-4,0h8" fill="none" stroke="white" stroke-width="1.5" pointer-events="none"/>
  </g>
  <g id="arrowUp" transform="translate(30 24)">
    <use xlink:href="#rim"/>
    <path pointer-events="none" fill="none" stroke="white" stroke-width="1.5" d="M0,-3.0v7 M-2.5,-0.5L0,-3.0L2.5,-0.5"/>
  </g>
  <g id="arrowRight" transform="rotate(90) translate(36 -43)">
    <use xlink:href="#rim"/>
    <path pointer-events="none" fill="none" stroke="white" stroke-width="1.5" d="M0,-3.0v7 M-2.5,-0.5L0,-3.0L2.5,-0.5"/>
  </g>
  <g id="arrowDown" transform="rotate(180) translate(-30 -48)">
    <use xlink:href="#rim"/>
    <path pointer-events="none" fill="none" stroke="white" stroke-width="1.5" d="M0,-3.0v7 M-2.5,-0.5L0,-3.0L2.5,-0.5"/>
  </g>
  <g id="arrowLeft" transform="rotate(270) translate(-36 17)">
    <use xlink:href="#rim"/>
    <path pointer-events="none" fill="none" stroke="white" stroke-width="1.5" d="M0,-3.0v7 M-2.5,-0.5L0,-3.0L2.5,-0.5"/>
  </g>
  <g id="resetDef">
    <use xlink:href="#rim2" fill="#404040"><set attributeName="fill" to="#808080" begin="reset.mouseover" end="reset.mouseout"/></use>
  </g>
</defs>
<script type="application/ecmascript">
var viewWidth = 648;
var viewHeight = 359;
var sectionId = 'dynsection-38';
</script>
<script type="application/ecmascript" xlink:href="svg.min.js"/>
<svg id="graph" class="graph">
<g id="viewport">
<title>zyncarla::XMLwrapper::loadXMLfile</title>
<!-- Node1 -->
<g id="Node000001" class="node">
<title>Node1</title>
<g id="a_Node000001"><a xlink:title=" ">
<polygon fill="#999999" stroke="#666666" points="640,-178.88 528.75,-178.88 528.75,-148.38 640,-148.38 640,-178.88"/>
<text xml:space="preserve" text-anchor="start" x="536.75" y="-165.38" font-family="Helvetica,sans-Serif" font-size="10.00">zyncarla::XMLwrapper</text>
<text xml:space="preserve" text-anchor="middle" x="584.38" y="-154.12" font-family="Helvetica,sans-Serif" font-size="10.00">::loadXMLfile</text>
</a>
</g>
</g>
<!-- Node2 -->
<g id="Node000002" class="node">
<title>Node2</title>
<g id="a_Node000002"><a xlink:href="namespacezyncarla.html#a0599185f76890f43ea5f5e1a0e37062b" target="_top" xlink:title=" ">
<polygon fill="white" stroke="#666666" points="462,-216.25 360.5,-216.25 360.5,-197 462,-197 462,-216.25"/>
<text xml:space="preserve" text-anchor="middle" x="411.25" y="-202.75" font-family="Helvetica,sans-Serif" font-size="10.00">zyncarla::loadCache</text>
</a>
</g>
</g>
<!-- Node1&#45;&gt;Node2 -->
<g id="edge1_Node000001_Node000002" class="edge">
<title>Node1&#45;&gt;Node2</title>
<g id="a_edge1_Node000001_Node000002"><a xlink:title=" ">
<path fill="none" stroke="#63b8ff" d="M517.2,-181.37C508.97,-183.51 500.67,-185.64 492.75,-187.62 480.77,-190.62 467.75,-193.75 455.75,-196.59"/>
<polygon fill="#63b8ff" stroke="#63b8ff" points="518.07,-184.76 526.86,-178.84 516.3,-177.99 518.07,-184.76"/>
</a>
</g>
</g>
<!-- Node4 -->
<g id="Node000004" class="node">
<title>Node4</title>
<g id="a_Node000004"><a xlink:href="classzyncarla_1_1Master.html#aea818af7693cec09140af61d4d88bc38" target="_top" xlink:title=" ">
<polygon fill="white" stroke="#666666" points="475.88,-342.25 346.62,-342.25 346.62,-323 475.88,-323 475.88,-342.25"/>
<text xml:space="preserve" text-anchor="middle" x="411.25" y="-328.75" font-family="Helvetica,sans-Serif" font-size="10.00">zyncarla::Master::loadXML</text>
</a>
</g>
</g>
<!-- Node1&#45;&gt;Node4 -->
<g id="edge3_Node000001_Node000004" class="edge">
<title>Node1&#45;&gt;Node4</title>
<g id="a_edge3_Node000001_Node000004"><a xlink:title=" ">
<path fill="none" stroke="#63b8ff" d="M574.19,-189.85C561.23,-222.99 534.4,-279.45 492.75,-310.62 486.02,-315.66 478.21,-319.54 470.15,-322.54"/>
<polygon fill="#63b8ff" stroke="#63b8ff" points="577.42,-191.19 577.66,-180.6 570.87,-188.73 577.42,-191.19"/>
</a>
</g>
</g>
<!-- Node6 -->
<g id="Node000006" class="node">
<title>Node6</title>
<g id="a_Node000006"><a xlink:href="classzyncarla_1_1Microtonal.html#a48bd849294df6c0ecd0c0a3687c99944" target="_top" xlink:title=" ">
<polygon fill="white" stroke="#666666" points="461.62,-301.88 360.88,-301.88 360.88,-271.38 461.62,-271.38 461.62,-301.88"/>
<text xml:space="preserve" text-anchor="start" x="368.88" y="-288.38" font-family="Helvetica,sans-Serif" font-size="10.00">zyncarla::Microtonal</text>
<text xml:space="preserve" text-anchor="middle" x="411.25" y="-277.12" font-family="Helvetica,sans-Serif" font-size="10.00">::loadXML</text>
</a>
</g>
</g>
<!-- Node1&#45;&gt;Node6 -->
<g id="edge5_Node000001_Node000006" class="edge">
<title>Node1&#45;&gt;Node6</title>
<g id="a_edge5_Node000001_Node000006"><a xlink:title=" ">
<path fill="none" stroke="#63b8ff" d="M566.77,-188.34C550.44,-210.82 523.54,-243.34 492.75,-262.62 483.36,-268.51 472.45,-273.01 461.75,-276.44"/>
<polygon fill="#63b8ff" stroke="#63b8ff" points="569.52,-190.52 572.43,-180.33 563.8,-186.48 569.52,-190.52"/>
</a>
</g>
</g>
<!-- Node8 -->
<g id="Node000008" class="node">
<title>Node8</title>
<g id="a_Node000008"><a xlink:href="classzyncarla_1_1Part.html#a0753010cebdc7f752cf01212874093eb" target="_top" xlink:title=" ">
<polygon fill="white" stroke="#666666" points="492.75,-253.25 329.75,-253.25 329.75,-234 492.75,-234 492.75,-253.25"/>
<text xml:space="preserve" text-anchor="middle" x="411.25" y="-239.75" font-family="Helvetica,sans-Serif" font-size="10.00">zyncarla::Part::loadXMLinstrument</text>
</a>
</g>
</g>
<!-- Node1&#45;&gt;Node8 -->
<g id="edge7_Node000001_Node000008" class="edge">
<title>Node1&#45;&gt;Node8</title>
<g id="a_edge7_Node000001_Node000008"><a xlink:title=" ">
<path fill="none" stroke="#63b8ff" d="M556.28,-186.23C539.07,-199.52 515.76,-215.62 492.75,-225.62 485.53,-228.76 477.69,-231.39 469.84,-233.57"/>
<polygon fill="#63b8ff" stroke="#63b8ff" points="558.32,-189.08 563.99,-180.13 553.98,-183.59 558.32,-189.08"/>
</a>
</g>
</g>
<!-- Node11 -->
<g id="Node000011" class="node">
<title>Node11</title>
<g id="a_Node000011"><a xlink:href="classzyncarla_1_1PresetsStore.html#a886c1d1c8aebdc47345978b68ba4156a" target="_top" xlink:title=" ">
<polygon fill="white" stroke="#666666" points="467.62,-178.88 354.88,-178.88 354.88,-148.38 467.62,-148.38 467.62,-178.88"/>
<text xml:space="preserve" text-anchor="start" x="362.88" y="-165.38" font-family="Helvetica,sans-Serif" font-size="10.00">zyncarla::PresetsStore</text>
<text xml:space="preserve" text-anchor="middle" x="411.25" y="-154.12" font-family="Helvetica,sans-Serif" font-size="10.00">::pastepreset</text>
</a>
</g>
</g>
<!-- Node1&#45;&gt;Node11 -->
<g id="edge10_Node000001_Node000011" class="edge">
<title>Node1&#45;&gt;Node11</title>
<g id="a_edge10_Node000001_Node000011"><a xlink:title=" ">
<path fill="none" stroke="#63b8ff" d="M517.24,-163.62C501.02,-163.62 483.8,-163.62 468.11,-163.62"/>
<polygon fill="#63b8ff" stroke="#63b8ff" points="516.77,-167.13 526.77,-163.63 516.77,-160.13 516.77,-167.13"/>
</a>
</g>
</g>
<!-- Node12 -->
<g id="Node000012" class="node">
<title>Node12</title>
<g id="a_Node000012"><a xlink:href="namespacezyncarla.html#a6317c2f82ecd31a26f79c4e574c6f3f2" target="_top" xlink:title=" ">
<polygon fill="white" stroke="#666666" points="465.38,-130.25 357.12,-130.25 357.12,-111 465.38,-111 465.38,-130.25"/>
<text xml:space="preserve" text-anchor="middle" x="411.25" y="-116.75" font-family="Helvetica,sans-Serif" font-size="10.00">zyncarla::presetPaste</text>
</a>
</g>
</g>
<!-- Node1&#45;&gt;Node12 -->
<g id="edge11_Node000001_Node000012" class="edge">
<title>Node1&#45;&gt;Node12</title>
<g id="a_edge11_Node000001_Node000012"><a xlink:title=" ">
<path fill="none" stroke="#63b8ff" d="M517.2,-145.88C508.97,-143.74 500.67,-141.61 492.75,-139.62 480.77,-136.63 467.75,-133.5 455.75,-130.66"/>
<polygon fill="#63b8ff" stroke="#63b8ff" points="516.3,-149.26 526.86,-148.41 518.07,-142.49 516.3,-149.26"/>
</a>
</g>
</g>
<!-- Node13 -->
<g id="Node000013" class="node">
<title>Node13</title>
<g id="a_Node000013"><a xlink:href="namespacezyncarla.html#af791227e981e4397128bdbc9df9efbf1" target="_top" xlink:title=" ">
<polygon fill="white" stroke="#666666" points="476.62,-93.25 345.88,-93.25 345.88,-74 476.62,-74 476.62,-93.25"/>
<text xml:space="preserve" text-anchor="middle" x="411.25" y="-79.75" font-family="Helvetica,sans-Serif" font-size="10.00">zyncarla::presetPasteArray</text>
</a>
</g>
</g>
<!-- Node1&#45;&gt;Node13 -->
<g id="edge12_Node000001_Node000013" class="edge">
<title>Node1&#45;&gt;Node13</title>
<g id="a_edge12_Node000001_Node000013"><a xlink:title=" ">
<path fill="none" stroke="#63b8ff" d="M556.28,-141.02C539.07,-127.73 515.76,-111.63 492.75,-101.62 485.53,-98.49 477.69,-95.86 469.84,-93.68"/>
<polygon fill="#63b8ff" stroke="#63b8ff" points="553.98,-143.66 563.99,-147.12 558.32,-138.17 553.98,-143.66"/>
</a>
</g>
</g>
<!-- Node14 -->
<g id="Node000014" class="node">
<title>Node14</title>
<g id="a_Node000014"><a xlink:href="classzyncarla_1_1BankDb.html#acf110894ecae0f0e1c38a63432b6e611" target="_top" xlink:title=" ">
<polygon fill="white" stroke="#666666" points="482.62,-56.25 339.88,-56.25 339.88,-37 482.62,-37 482.62,-56.25"/>
<text xml:space="preserve" text-anchor="middle" x="411.25" y="-42.75" font-family="Helvetica,sans-Serif" font-size="10.00">zyncarla::BankDb::processXiz</text>
</a>
</g>
</g>
<!-- Node1&#45;&gt;Node14 -->
<g id="edge13_Node000001_Node000014" class="edge">
<title>Node1&#45;&gt;Node14</title>
<g id="a_edge13_Node000001_Node000014"><a xlink:title=" ">
<path fill="none" stroke="#63b8ff" d="M567.34,-138.79C551.25,-115.95 524.37,-82.93 492.75,-64.62 487.3,-61.47 481.34,-58.86 475.21,-56.72"/>
<polygon fill="#63b8ff" stroke="#63b8ff" points="564.37,-140.65 572.9,-146.94 570.15,-136.7 564.37,-140.65"/>
</a>
</g>
</g>
<!-- Node15 -->
<g id="Node000015" class="node">
<title>Node15</title>
<g id="a_Node000015"><a xlink:href="classzyncarla_1_1Config.html#a2ba7f381da4d7eb6f623711299681674" target="_top" xlink:title=" ">
<polygon fill="white" stroke="#666666" points="477.75,-19.25 344.75,-19.25 344.75,0 477.75,0 477.75,-19.25"/>
<text xml:space="preserve" text-anchor="middle" x="411.25" y="-5.75" font-family="Helvetica,sans-Serif" font-size="10.00">zyncarla::Config::readConfig</text>
</a>
</g>
</g>
<!-- Node1&#45;&gt;Node15 -->
<g id="edge15_Node000001_Node000015" class="edge">
<title>Node1&#45;&gt;Node15</title>
<g id="a_edge15_Node000001_Node000015"><a xlink:title=" ">
<path fill="none" stroke="#63b8ff" d="M573.27,-137.68C559.75,-106.54 532.75,-55.08 492.75,-27.62 488.15,-24.46 483.08,-21.85 477.79,-19.69"/>
<polygon fill="#63b8ff" stroke="#63b8ff" points="569.97,-138.88 577.05,-146.76 576.43,-136.18 569.97,-138.88"/>
</a>
</g>
</g>
<!-- Node3 -->
<g id="Node000003" class="node">
<title>Node3</title>
<g id="a_Node000003"><a xlink:href="classzyncarla_1_1BankDb.html#a72f8cb3be97e7f4ed8e059ec897eea65" target="_top" xlink:title=" ">
<polygon fill="white" stroke="#666666" points="293.75,-112.25 150.25,-112.25 150.25,-93 293.75,-93 293.75,-112.25"/>
<text xml:space="preserve" text-anchor="middle" x="222" y="-98.75" font-family="Helvetica,sans-Serif" font-size="10.00">zyncarla::BankDb::scanBanks</text>
</a>
</g>
</g>
<!-- Node2&#45;&gt;Node3 -->
<g id="edge2_Node000002_Node000003" class="edge">
<title>Node2&#45;&gt;Node3</title>
<g id="a_edge2_Node000002_Node000003"><a xlink:title=" ">
<path fill="none" stroke="#63b8ff" d="M349.42,-195.33C342.63,-193.18 335.94,-190.63 329.75,-187.62 289.26,-167.96 250.07,-130.66 232.55,-112.74"/>
<polygon fill="#63b8ff" stroke="#63b8ff" points="348.08,-198.59 358.65,-197.98 350.01,-191.86 348.08,-198.59"/>
</a>
</g>
</g>
<!-- Node5 -->
<g id="Node000005" class="node">
<title>Node5</title>
<g id="a_Node000005"><a xlink:href="classzyncarla_1_1MiddleWareImpl.html#a7553f7a20cf2735857ca319b2e765e3a" target="_top" xlink:title=" ">
<polygon fill="white" stroke="#666666" points="284.75,-350.88 159.25,-350.88 159.25,-320.38 284.75,-320.38 284.75,-350.88"/>
<text xml:space="preserve" text-anchor="start" x="167.25" y="-337.38" font-family="Helvetica,sans-Serif" font-size="10.00">zyncarla::MiddleWareImpl</text>
<text xml:space="preserve" text-anchor="middle" x="222" y="-326.12" font-family="Helvetica,sans-Serif" font-size="10.00">::loadMaster</text>
</a>
</g>
</g>
<!-- Node4&#45;&gt;Node5 -->
<g id="edge4_Node000004_Node000005" class="edge">
<title>Node4&#45;&gt;Node5</title>
<g id="a_edge4_Node000004_Node000005"><a xlink:title=" ">
<path fill="none" stroke="#63b8ff" d="M335.01,-333.83C318.42,-334.1 301.04,-334.37 285.05,-334.63"/>
<polygon fill="#63b8ff" stroke="#63b8ff" points="334.88,-337.33 344.82,-333.67 334.76,-330.33 334.88,-337.33"/>
</a>
</g>
</g>
<!-- Node7 -->
<g id="Node000007" class="node">
<title>Node7</title>
<g id="a_Node000007"><a xlink:href="classzyncarla_1_1MiddleWareImpl.html#a32863bb018eab5979cf011fb223c8686" target="_top" xlink:title=" ">
<polygon fill="white" stroke="#666666" points="284.75,-301.88 159.25,-301.88 159.25,-271.38 284.75,-271.38 284.75,-301.88"/>
<text xml:space="preserve" text-anchor="start" x="167.25" y="-288.38" font-family="Helvetica,sans-Serif" font-size="10.00">zyncarla::MiddleWareImpl</text>
<text xml:space="preserve" text-anchor="middle" x="222" y="-277.12" font-family="Helvetica,sans-Serif" font-size="10.00">::loadXsz</text>
</a>
</g>
</g>
<!-- Node6&#45;&gt;Node7 -->
<g id="edge6_Node000006_Node000007" class="edge">
<title>Node6&#45;&gt;Node7</title>
<g id="a_edge6_Node000006_Node000007"><a xlink:title=" ">
<path fill="none" stroke="#63b8ff" d="M349.1,-286.62C328.54,-286.62 305.61,-286.62 284.99,-286.62"/>
<polygon fill="#63b8ff" stroke="#63b8ff" points="349.05,-290.13 359.05,-286.63 349.05,-283.13 349.05,-290.13"/>
</a>
</g>
</g>
<!-- Node9 -->
<g id="Node000009" class="node">
<title>Node9</title>
<g id="a_Node000009"><a xlink:href="classzyncarla_1_1Bank.html#a8173839f74d4d030bec02d4680dc66f0" target="_top" xlink:title=" ">
<polygon fill="white" stroke="#666666" points="290,-253.25 154,-253.25 154,-234 290,-234 290,-253.25"/>
<text xml:space="preserve" text-anchor="middle" x="222" y="-239.75" font-family="Helvetica,sans-Serif" font-size="10.00">zyncarla::Bank::loadfromslot</text>
</a>
</g>
</g>
<!-- Node8&#45;&gt;Node9 -->
<g id="edge8_Node000008_Node000009" class="edge">
<title>Node8&#45;&gt;Node9</title>
<g id="a_edge8_Node000008_Node000009"><a xlink:title=" ">
<path fill="none" stroke="#63b8ff" d="M318.09,-243.62C308.72,-243.62 299.34,-243.62 290.31,-243.62"/>
<polygon fill="#63b8ff" stroke="#63b8ff" points="317.97,-247.13 327.97,-243.63 317.97,-240.13 317.97,-247.13"/>
</a>
</g>
</g>
<!-- Node10 -->
<g id="Node000010" class="node">
<title>Node10</title>
<g id="a_Node000010"><a xlink:href="classzyncarla_1_1MiddleWareImpl.html#a82e14e7db5265eeb06b4add037f51003" target="_top" xlink:title=" ">
<polygon fill="white" stroke="#666666" points="284.75,-215.88 159.25,-215.88 159.25,-185.38 284.75,-185.38 284.75,-215.88"/>
<text xml:space="preserve" text-anchor="start" x="167.25" y="-202.38" font-family="Helvetica,sans-Serif" font-size="10.00">zyncarla::MiddleWareImpl</text>
<text xml:space="preserve" text-anchor="middle" x="222" y="-191.12" font-family="Helvetica,sans-Serif" font-size="10.00">::loadPart</text>
</a>
</g>
</g>
<!-- Node8&#45;&gt;Node10 -->
<g id="edge9_Node000008_Node000010" class="edge">
<title>Node8&#45;&gt;Node10</title>
<g id="a_edge9_Node000008_Node000010"><a xlink:title=" ">
<path fill="none" stroke="#63b8ff" d="M353.52,-231.02C345.54,-229.22 337.44,-227.38 329.75,-225.62 315.28,-222.31 299.71,-218.7 285.07,-215.27"/>
<polygon fill="#63b8ff" stroke="#63b8ff" points="352.68,-234.41 363.2,-233.19 354.21,-227.58 352.68,-234.41"/>
</a>
</g>
</g>
<!-- Node14&#45;&gt;Node3 -->
<g id="edge14_Node000014_Node000003" class="edge">
<title>Node14&#45;&gt;Node3</title>
<g id="a_edge14_Node000014_Node000003"><a xlink:title=" ">
<path fill="none" stroke="#63b8ff" d="M349.44,-59.39C342.77,-61.04 336.1,-62.79 329.75,-64.62 301.59,-72.75 270.05,-84.29 248.6,-92.52"/>
<polygon fill="#63b8ff" stroke="#63b8ff" points="350.24,-62.8 359.15,-57.07 348.61,-55.99 350.24,-62.8"/>
</a>
</g>
</g>
<!-- Node16 -->
<g id="Node000016" class="node">
<title>Node16</title>
<g id="a_Node000016"><a xlink:href="classzyncarla_1_1Config.html#a91bcb187ed95ec673137e413a4d77203" target="_top" xlink:title=" ">
<polygon fill="white" stroke="#666666" points="272,-19.25 172,-19.25 172,0 272,0 272,-19.25"/>
<text xml:space="preserve" text-anchor="middle" x="222" y="-5.75" font-family="Helvetica,sans-Serif" font-size="10.00">zyncarla::Config::init</text>
</a>
</g>
</g>
<!-- Node15&#45;&gt;Node16 -->
<g id="edge16_Node000015_Node000016" class="edge">
<title>Node15&#45;&gt;Node16</title>
<g id="a_edge16_Node000015_Node000016"><a xlink:title=" ">
<path fill="none" stroke="#63b8ff" d="M333.22,-9.62C312.66,-9.62 291,-9.62 272.38,-9.62"/>
<polygon fill="#63b8ff" stroke="#63b8ff" points="332.98,-13.13 342.98,-9.63 332.98,-6.13 332.98,-13.13"/>
</a>
</g>
</g>
<!-- Node17 -->
<g id="Node000017" class="node">
<title>Node17</title>
<g id="a_Node000017"><a xlink:href="classzyncarla_1_1Config.html#abd0c571c116924871e30444b192b792a" target="_top" xlink:title=" ">
<polygon fill="#fff0f0" stroke="red" points="114.25,-19.25 0,-19.25 0,0 114.25,0 114.25,-19.25"/>
<text xml:space="preserve" text-anchor="middle" x="57.12" y="-5.75" font-family="Helvetica,sans-Serif" font-size="10.00">zyncarla::Config::Config</text>
</a>
</g>
</g>
<!-- Node16&#45;&gt;Node17 -->
<g id="edge17_Node000016_Node000017" class="edge">
<title>Node16&#45;&gt;Node17</title>
<g id="a_edge17_Node000016_Node000017"><a xlink:title=" ">
<path fill="none" stroke="#63b8ff" d="M160.46,-9.62C145.48,-9.62 129.48,-9.62 114.69,-9.62"/>
<polygon fill="#63b8ff" stroke="#63b8ff" points="160.18,-13.13 170.18,-9.63 160.18,-6.13 160.18,-13.13"/>
</a>
</g>
</g>
</g>
</svg>

<g id="navigator" transform="translate(0 0)" fill="#404254">
  <rect fill="#f2f5e9" fill-opacity="0.5" stroke="#606060" stroke-width=".5" x="0" y="0" width="60" height="60"/>
  <use id="zoomplus" xlink:href="#zoomPlus" x="17" y="9" onmousedown="handleZoom(evt,'in')"/>
  <use id="zoomminus" xlink:href="#zoomMin" x="42" y="9" onmousedown="handleZoom(evt,'out')"/>
  <use id="reset" xlink:href="#resetDef" x="30" y="36" onmousedown="handleReset()"/>
   <use id="arrowup" xlink:href="#arrowUp" x="0" y="0" onmousedown="handlePan(0,-1)"/>
  <use id="arrowright" xlink:href="#arrowRight" x="0" y="0" onmousedown="handlePan(1,0)"/>
  <use id="arrowdown" xlink:href="#arrowDown" x="0" y="0" onmousedown="handlePan(0,1)"/>
  <use id="arrowleft" xlink:href="#arrowLeft" x="0" y="0" onmousedown="handlePan(-1,0)"/>
</g>
<svg viewBox="0 0 15 15" width="100%" height="30px" preserveAspectRatio="xMaxYMin meet">
 <g id="arrow_out" transform="scale(0.3 0.3)">
  <a xlink:href="classzyncarla_1_1XMLwrapper_aa280a03bb170a0e5781f8852e96f3d1d_icgraph_org.svg" target="_base">
   <rect id="button" ry="5" rx="5" y="6" x="6" height="38" width="38"
        fill="#f2f5e9" fill-opacity="0.5" stroke="#606060" stroke-width="1.0"/>
   <path id="arrow"
     d="M 11.500037,31.436501 C 11.940474,20.09759 22.043105,11.32322 32.158766,21.979434 L 37.068811,17.246167 C 37.068811,17.246167 37.088388,32 37.088388,32 L 22.160133,31.978069 C 22.160133,31.978069 26.997745,27.140456 26.997745,27.140456 C 18.528582,18.264221 13.291696,25.230495 11.500037,31.436501 z"
     style="fill:#404040;"/>
  </a>
 </g>
</svg>

<style type='text/css'>
<![CDATA[
[data-mouse-over-selected='false'] { opacity: 0.7; }
[data-mouse-over-selected='true']  { opacity: 1.0; }
]]>
</style>
<script type="application/ecmascript"><![CDATA[
document.addEventListener('DOMContentLoaded', (event) => {
  highlightEdges();
  highlightAdjacentNodes();
});
]]></script>
</svg>
