<?xml version="1.0" encoding="UTF-8" standalone="no"?>
<!DOCTYPE svg PUBLIC "-//W3C//DTD SVG 1.1//EN"
 "http://www.w3.org/Graphics/SVG/1.1/DTD/svg11.dtd">
<!-- Generated by graphviz version 14.0.2 (0)
 -->
<!-- Title: lmms::Song::globalAutomationTrack Pages: 1 -->
<svg width="877pt" height="445pt"
 viewBox="0.00 0.00 877.00 445.00" xmlns="http://www.w3.org/2000/svg" xmlns:xlink="http://www.w3.org/1999/xlink">
<g id="graph0" class="graph" transform="scale(1 1) rotate(0) translate(4 440.88)">
<title>lmms::Song::globalAutomationTrack</title>
<!-- Node1 -->
<g id="Node000001" class="node">
<title>Node1</title>
<g id="a_Node000001"><a xlink:title=" ">
<polygon fill="#999999" stroke="#666666" points="869,-226.5 722.5,-226.5 722.5,-196 869,-196 869,-226.5"/>
<text xml:space="preserve" text-anchor="start" x="730.5" y="-213" font-family="Helvetica,sans-Serif" font-size="10.00">lmms::Song::globalAutomation</text>
<text xml:space="preserve" text-anchor="middle" x="795.75" y="-201.75" font-family="Helvetica,sans-Serif" font-size="10.00">Track</text>
</a>
</g>
</g>
<!-- Node2 -->
<g id="Node000002" class="node">
<title>Node2</title>
<g id="a_Node000002"><a xlink:href="classlmms_1_1AutomationClip.html#a10bf4471c6b914abfa55cad25c3cd4bc" target="_top" xlink:title=" ">
<polygon fill="white" stroke="#666666" points="686.5,-226.5 574.5,-226.5 574.5,-196 686.5,-196 686.5,-226.5"/>
<text xml:space="preserve" text-anchor="start" x="582.5" y="-213" font-family="Helvetica,sans-Serif" font-size="10.00">lmms::AutomationClip</text>
<text xml:space="preserve" text-anchor="middle" x="630.5" y="-201.75" font-family="Helvetica,sans-Serif" font-size="10.00">::globalAutomationClip</text>
</a>
</g>
</g>
<!-- Node1&#45;&gt;Node2 -->
<g id="edge1_Node000001_Node000002" class="edge">
<title>Node1&#45;&gt;Node2</title>
<g id="a_edge1_Node000001_Node000002"><a xlink:title=" ">
<path fill="none" stroke="#63b8ff" d="M710.69,-211.25C702.55,-211.25 694.44,-211.25 686.68,-211.25"/>
<polygon fill="#63b8ff" stroke="#63b8ff" points="710.68,-214.75 720.68,-211.25 710.68,-207.75 710.68,-214.75"/>
</a>
</g>
</g>
<!-- Node3 -->
<g id="Node000003" class="node">
<title>Node3</title>
<g id="a_Node000003"><a xlink:href="classlmms_1_1Song.html#a98adad5472c5d6f4cb37c02845ebf304" target="_top" xlink:title=" ">
<polygon fill="white" stroke="#666666" points="501.75,-398.88 378.5,-398.88 378.5,-379.62 501.75,-379.62 501.75,-398.88"/>
<text xml:space="preserve" text-anchor="middle" x="440.12" y="-385.38" font-family="Helvetica,sans-Serif" font-size="10.00">lmms::Song::clearProject</text>
</a>
</g>
</g>
<!-- Node2&#45;&gt;Node3 -->
<g id="edge2_Node000002_Node000003" class="edge">
<title>Node2&#45;&gt;Node3</title>
<g id="a_edge2_Node000002_Node000003"><a xlink:title=" ">
<path fill="none" stroke="#63b8ff" d="M604.9,-234.5C563.34,-273.76 480.92,-351.65 451.7,-379.26"/>
<polygon fill="#63b8ff" stroke="#63b8ff" points="607.15,-237.19 612.01,-227.77 602.34,-232.1 607.15,-237.19"/>
</a>
</g>
</g>
<!-- Node26 -->
<g id="Node000026" class="node">
<title>Node26</title>
<g id="a_Node000026"><a xlink:href="classlmms_1_1gui_1_1AutomatableModelViewSlots.html#a9ab5ae3b3183ef46efe497d7baa34b70" target="_top" xlink:title=" ">
<polygon fill="white" stroke="#666666" points="530.25,-275.5 350,-275.5 350,-245 530.25,-245 530.25,-275.5"/>
<text xml:space="preserve" text-anchor="start" x="358" y="-262" font-family="Helvetica,sans-Serif" font-size="10.00">lmms::gui::AutomatableModel</text>
<text xml:space="preserve" text-anchor="middle" x="440.12" y="-250.75" font-family="Helvetica,sans-Serif" font-size="10.00">ViewSlots::editSongGlobalAutomation</text>
</a>
</g>
</g>
<!-- Node2&#45;&gt;Node26 -->
<g id="edge6_Node000002_Node000026" class="edge">
<title>Node2&#45;&gt;Node26</title>
<g id="a_edge6_Node000002_Node000026"><a xlink:title=" ">
<path fill="none" stroke="#63b8ff" d="M563.29,-228.77C554.95,-230.96 546.53,-233.16 538.5,-235.25 526.93,-238.26 514.58,-241.45 502.69,-244.51"/>
<polygon fill="#63b8ff" stroke="#63b8ff" points="563.93,-232.22 572.71,-226.29 562.15,-225.45 563.93,-232.22"/>
</a>
</g>
</g>
<!-- Node27 -->
<g id="Node000027" class="node">
<title>Node27</title>
<g id="a_Node000027"><a xlink:href="classlmms_1_1AutomatableModel.html#a0ba79b9a16d61102f101e1fff24d7206" target="_top" xlink:title="Loads settings (value, automation links and controller connections) of AutomatableModel from specifie...">
<polygon fill="white" stroke="#666666" points="502.88,-226.5 377.38,-226.5 377.38,-196 502.88,-196 502.88,-226.5"/>
<text xml:space="preserve" text-anchor="start" x="385.38" y="-213" font-family="Helvetica,sans-Serif" font-size="10.00">lmms::AutomatableModel</text>
<text xml:space="preserve" text-anchor="middle" x="440.12" y="-201.75" font-family="Helvetica,sans-Serif" font-size="10.00">::loadSettings</text>
</a>
</g>
</g>
<!-- Node2&#45;&gt;Node27 -->
<g id="edge7_Node000002_Node000027" class="edge">
<title>Node2&#45;&gt;Node27</title>
<g id="a_edge7_Node000002_Node000027"><a xlink:title=" ">
<path fill="none" stroke="#63b8ff" d="M562.52,-211.25C543.19,-211.25 522.18,-211.25 503.16,-211.25"/>
<polygon fill="#63b8ff" stroke="#63b8ff" points="562.49,-214.75 572.49,-211.25 562.49,-207.75 562.49,-214.75"/>
</a>
</g>
</g>
<!-- Node36 -->
<g id="Node000036" class="node">
<title>Node36</title>
<g id="a_Node000036"><a xlink:href="classlmms_1_1gui_1_1AutomatableModelViewSlots.html#ae4a877bf36a855a728c6d0e038811c4b" target="_top" xlink:title=" ">
<polygon fill="white" stroke="#666666" points="538.5,-177.5 341.75,-177.5 341.75,-147 538.5,-147 538.5,-177.5"/>
<text xml:space="preserve" text-anchor="start" x="349.75" y="-164" font-family="Helvetica,sans-Serif" font-size="10.00">lmms::gui::AutomatableModel</text>
<text xml:space="preserve" text-anchor="middle" x="440.12" y="-152.75" font-family="Helvetica,sans-Serif" font-size="10.00">ViewSlots::removeSongGlobalAutomation</text>
</a>
</g>
</g>
<!-- Node2&#45;&gt;Node36 -->
<g id="edge15_Node000002_Node000036" class="edge">
<title>Node2&#45;&gt;Node36</title>
<g id="a_edge15_Node000002_Node000036"><a xlink:title=" ">
<path fill="none" stroke="#63b8ff" d="M563.29,-193.73C554.95,-191.54 546.53,-189.34 538.5,-187.25 526.93,-184.24 514.58,-181.05 502.69,-177.99"/>
<polygon fill="#63b8ff" stroke="#63b8ff" points="562.15,-197.05 572.71,-196.21 563.93,-190.28 562.15,-197.05"/>
</a>
</g>
</g>
<!-- Node37 -->
<g id="Node000037" class="node">
<title>Node37</title>
<g id="a_Node000037"><a xlink:href="classlmms_1_1MeterModel.html#ae8f281529833bb541417c645404a09c3" target="_top" xlink:title=" ">
<polygon fill="white" stroke="#666666" points="501,-76.88 379.25,-76.88 379.25,-57.62 501,-57.62 501,-76.88"/>
<text xml:space="preserve" text-anchor="middle" x="440.12" y="-63.38" font-family="Helvetica,sans-Serif" font-size="10.00">lmms::MeterModel::reset</text>
</a>
</g>
</g>
<!-- Node2&#45;&gt;Node37 -->
<g id="edge16_Node000002_Node000037" class="edge">
<title>Node2&#45;&gt;Node37</title>
<g id="a_edge16_Node000002_Node000037"><a xlink:title=" ">
<path fill="none" stroke="#63b8ff" d="M601.76,-188.45C583.87,-173.88 560.01,-154.7 538.5,-138.25 509.25,-115.88 474.2,-90.71 455.14,-77.16"/>
<polygon fill="#63b8ff" stroke="#63b8ff" points="599.4,-191.04 609.36,-194.65 603.83,-185.62 599.4,-191.04"/>
</a>
</g>
</g>
<!-- Node4 -->
<g id="Node000004" class="node">
<title>Node4</title>
<g id="a_Node000004"><a xlink:href="classlmms_1_1Song.html#a9e653f70911fc1f6637f4afbd06100f2" target="_top" xlink:title=" ">
<polygon fill="#fff0f0" stroke="red" points="305.75,-436.88 156.25,-436.88 156.25,-417.62 305.75,-417.62 305.75,-436.88"/>
<text xml:space="preserve" text-anchor="middle" x="231" y="-423.38" font-family="Helvetica,sans-Serif" font-size="10.00">lmms::Song::createNewProject</text>
</a>
</g>
</g>
<!-- Node3&#45;&gt;Node4 -->
<g id="edge3_Node000003_Node000004" class="edge">
<title>Node3&#45;&gt;Node4</title>
<g id="a_edge3_Node000003_Node000004"><a xlink:title=" ">
<path fill="none" stroke="#63b8ff" d="M372.95,-401.39C345.19,-406.48 313.28,-412.34 286.86,-417.19"/>
<polygon fill="#63b8ff" stroke="#63b8ff" points="373.47,-404.85 382.67,-399.61 372.21,-397.97 373.47,-404.85"/>
</a>
</g>
</g>
<!-- Node7 -->
<g id="Node000007" class="node">
<title>Node7</title>
<g id="a_Node000007"><a xlink:href="classlmms_1_1Song.html#ab2c13d77c9440d786ceb13c2a869cb2f" target="_top" xlink:title=" ">
<polygon fill="#fff0f0" stroke="red" points="120.25,-417.88 0,-417.88 0,-398.62 120.25,-398.62 120.25,-417.88"/>
<text xml:space="preserve" text-anchor="middle" x="60.12" y="-404.38" font-family="Helvetica,sans-Serif" font-size="10.00">lmms::Song::loadProject</text>
</a>
</g>
</g>
<!-- Node3&#45;&gt;Node7 -->
<g id="edge5_Node000003_Node000007" class="edge">
<title>Node3&#45;&gt;Node7</title>
<g id="a_edge5_Node000003_Node000007"><a xlink:title=" ">
<path fill="none" stroke="#63b8ff" d="M367.24,-392.86C295.71,-396.46 187.24,-401.91 120.46,-405.27"/>
<polygon fill="#63b8ff" stroke="#63b8ff" points="367.07,-396.38 376.88,-392.38 366.72,-389.39 367.07,-396.38"/>
</a>
</g>
</g>
<!-- Node4&#45;&gt;Node7 -->
<g id="edge4_Node000004_Node000007" class="edge">
<title>Node4&#45;&gt;Node7</title>
<g id="a_edge4_Node000004_Node000007"><a xlink:title=" ">
<path fill="none" stroke="#63b8ff" d="M144.55,-417.64C136.48,-416.73 128.43,-415.82 120.69,-414.95"/>
<polygon fill="#63b8ff" stroke="#63b8ff" points="144.1,-421.11 154.42,-418.75 144.88,-414.15 144.1,-421.11"/>
</a>
</g>
</g>
<!-- Node28 -->
<g id="Node000028" class="node">
<title>Node28</title>
<g id="a_Node000028"><a xlink:href="classlmms_1_1AutomatableModel.html#ab1d835d7b66a7ccbdac7067a8d97aab6" target="_top" xlink:title=" ">
<polygon fill="white" stroke="#666666" points="293.75,-361.5 168.25,-361.5 168.25,-331 293.75,-331 293.75,-361.5"/>
<text xml:space="preserve" text-anchor="start" x="176.25" y="-348" font-family="Helvetica,sans-Serif" font-size="10.00">lmms::AutomatableModel</text>
<text xml:space="preserve" text-anchor="middle" x="231" y="-336.75" font-family="Helvetica,sans-Serif" font-size="10.00">::loadSettings</text>
</a>
</g>
</g>
<!-- Node27&#45;&gt;Node28 -->
<g id="edge8_Node000027_Node000028" class="edge">
<title>Node27&#45;&gt;Node28</title>
<g id="a_edge8_Node000027_Node000028"><a xlink:title=" ">
<path fill="none" stroke="#63b8ff" d="M366.39,-221.84C357.44,-225.39 348.93,-230.07 341.75,-236.25 310.66,-263.02 335.81,-293.33 305.75,-321.25 301.89,-324.84 297.49,-327.91 292.81,-330.55"/>
<polygon fill="#63b8ff" stroke="#63b8ff" points="367.3,-225.23 375.63,-218.68 365.03,-218.61 367.3,-225.23"/>
</a>
</g>
</g>
<!-- Node29 -->
<g id="Node000029" class="node">
<title>Node29</title>
<g id="a_Node000029"><a xlink:href="classlmms_1_1CarlaParamFloatModel.html#ac6334baed1fdf0c1e55a9763869e0ac6" target="_top" xlink:title="Loads settings (value, automation links and controller connections) of AutomatableModel from specifie...">
<polygon fill="white" stroke="#666666" points="302.75,-312.5 159.25,-312.5 159.25,-282 302.75,-282 302.75,-312.5"/>
<text xml:space="preserve" text-anchor="start" x="167.25" y="-299" font-family="Helvetica,sans-Serif" font-size="10.00">lmms::CarlaParamFloatModel</text>
<text xml:space="preserve" text-anchor="middle" x="231" y="-287.75" font-family="Helvetica,sans-Serif" font-size="10.00">::loadSettings</text>
</a>
</g>
</g>
<!-- Node27&#45;&gt;Node29 -->
<g id="edge9_Node000027_Node000029" class="edge">
<title>Node27&#45;&gt;Node29</title>
<g id="a_edge9_Node000027_Node000029"><a xlink:title=" ">
<path fill="none" stroke="#63b8ff" d="M366.25,-225.21C357.71,-228.21 349.34,-231.85 341.75,-236.25 321.9,-247.75 325.23,-261.12 305.75,-273.25 300.72,-276.38 295.24,-279.15 289.62,-281.58"/>
<polygon fill="#63b8ff" stroke="#63b8ff" points="367.22,-228.58 375.68,-222.2 365.09,-221.91 367.22,-228.58"/>
</a>
</g>
</g>
<!-- Node30 -->
<g id="Node000030" class="node">
<title>Node30</title>
<g id="a_Node000030"><a xlink:href="classlmms_1_1Mixer.html#a7ccb3b73090436b263a162be6c037bc7" target="_top" xlink:title=" ">
<polygon fill="white" stroke="#666666" points="294.12,-263.88 167.88,-263.88 167.88,-244.62 294.12,-244.62 294.12,-263.88"/>
<text xml:space="preserve" text-anchor="middle" x="231" y="-250.38" font-family="Helvetica,sans-Serif" font-size="10.00">lmms::Mixer::loadSettings</text>
</a>
</g>
</g>
<!-- Node27&#45;&gt;Node30 -->
<g id="edge10_Node000027_Node000030" class="edge">
<title>Node27&#45;&gt;Node30</title>
<g id="a_edge10_Node000027_Node000030"><a xlink:title=" ">
<path fill="none" stroke="#63b8ff" d="M365.91,-226.45C337.62,-232.32 306.01,-238.89 280.61,-244.16"/>
<polygon fill="#63b8ff" stroke="#63b8ff" points="366.42,-229.92 375.5,-224.46 365,-223.06 366.42,-229.92"/>
</a>
</g>
</g>
<!-- Node31 -->
<g id="Node000031" class="node">
<title>Node31</title>
<g id="a_Node000031"><a xlink:href="classlmms_1_1SfxrNegPosOneFloatModel.html#a8fedb3f07b306093f261faf1ca834fd4" target="_top" xlink:title="Loads settings (value, automation links and controller connections) of AutomatableModel from specifie...">
<polygon fill="white" stroke="#666666" points="299.38,-226.5 162.62,-226.5 162.62,-196 299.38,-196 299.38,-226.5"/>
<text xml:space="preserve" text-anchor="start" x="170.62" y="-213" font-family="Helvetica,sans-Serif" font-size="10.00">lmms::SfxrNegPosOneFloat</text>
<text xml:space="preserve" text-anchor="middle" x="231" y="-201.75" font-family="Helvetica,sans-Serif" font-size="10.00">Model::loadSettings</text>
</a>
</g>
</g>
<!-- Node27&#45;&gt;Node31 -->
<g id="edge11_Node000027_Node000031" class="edge">
<title>Node27&#45;&gt;Node31</title>
<g id="a_edge11_Node000027_Node000031"><a xlink:title=" ">
<path fill="none" stroke="#63b8ff" d="M365.58,-211.25C344.06,-211.25 320.65,-211.25 299.52,-211.25"/>
<polygon fill="#63b8ff" stroke="#63b8ff" points="365.47,-214.75 375.47,-211.25 365.47,-207.75 365.47,-214.75"/>
</a>
</g>
</g>
<!-- Node32 -->
<g id="Node000032" class="node">
<title>Node32</title>
<g id="a_Node000032"><a xlink:href="classlmms_1_1SfxrZeroToOneFloatModel.html#a54f7b89e834765395d4018fa8aaae6cd" target="_top" xlink:title="Loads settings (value, automation links and controller connections) of AutomatableModel from specifie...">
<polygon fill="white" stroke="#666666" points="297.12,-177.5 164.88,-177.5 164.88,-147 297.12,-147 297.12,-177.5"/>
<text xml:space="preserve" text-anchor="start" x="172.88" y="-164" font-family="Helvetica,sans-Serif" font-size="10.00">lmms::SfxrZeroToOneFloat</text>
<text xml:space="preserve" text-anchor="middle" x="231" y="-152.75" font-family="Helvetica,sans-Serif" font-size="10.00">Model::loadSettings</text>
</a>
</g>
</g>
<!-- Node27&#45;&gt;Node32 -->
<g id="edge12_Node000027_Node000032" class="edge">
<title>Node27&#45;&gt;Node32</title>
<g id="a_edge12_Node000027_Node000032"><a xlink:title=" ">
<path fill="none" stroke="#63b8ff" d="M365.86,-193.92C343.52,-188.63 319.12,-182.86 297.34,-177.71"/>
<polygon fill="#63b8ff" stroke="#63b8ff" points="364.97,-197.3 375.51,-196.2 366.58,-190.49 364.97,-197.3"/>
</a>
</g>
</g>
<!-- Node33 -->
<g id="Node000033" class="node">
<title>Node33</title>
<g id="a_Node000033"><a xlink:href="classlmms_1_1TempoSyncKnobModel.html#aa09c8cbf7d088bb5fb63dae267ec3ae3" target="_top" xlink:title="Loads settings (value, automation links and controller connections) of AutomatableModel from specifie...">
<polygon fill="#fff0f0" stroke="red" points="303.5,-128.5 158.5,-128.5 158.5,-98 303.5,-98 303.5,-128.5"/>
<text xml:space="preserve" text-anchor="start" x="166.5" y="-115" font-family="Helvetica,sans-Serif" font-size="10.00">lmms::TempoSyncKnobModel</text>
<text xml:space="preserve" text-anchor="middle" x="231" y="-103.75" font-family="Helvetica,sans-Serif" font-size="10.00">::loadSettings</text>
</a>
</g>
</g>
<!-- Node27&#45;&gt;Node33 -->
<g id="edge13_Node000027_Node000033" class="edge">
<title>Node27&#45;&gt;Node33</title>
<g id="a_edge13_Node000027_Node000033"><a xlink:title=" ">
<path fill="none" stroke="#63b8ff" d="M366.31,-198.45C357.64,-195.25 349.23,-191.25 341.75,-186.25 319.58,-171.43 327.34,-153.9 305.75,-138.25 300.82,-134.68 295.35,-131.59 289.67,-128.93"/>
<polygon fill="#63b8ff" stroke="#63b8ff" points="364.94,-201.68 375.53,-201.5 367.14,-195.04 364.94,-201.68"/>
</a>
</g>
</g>
<!-- Node35 -->
<g id="Node000035" class="node">
<title>Node35</title>
<g id="a_Node000035"><a xlink:href="classlmms_1_1LinkedModelGroup.html#aec5246e2f0ace7da9955204daef6b390" target="_top" xlink:title=" ">
<polygon fill="white" stroke="#666666" points="294.12,-79.5 167.88,-79.5 167.88,-49 294.12,-49 294.12,-79.5"/>
<text xml:space="preserve" text-anchor="start" x="175.88" y="-66" font-family="Helvetica,sans-Serif" font-size="10.00">lmms::LinkedModelGroup</text>
<text xml:space="preserve" text-anchor="middle" x="231" y="-54.75" font-family="Helvetica,sans-Serif" font-size="10.00">::loadValues</text>
</a>
</g>
</g>
<!-- Node27&#45;&gt;Node35 -->
<g id="edge14_Node000027_Node000035" class="edge">
<title>Node27&#45;&gt;Node35</title>
<g id="a_edge14_Node000027_Node000035"><a xlink:title=" ">
<path fill="none" stroke="#63b8ff" d="M366.31,-201.03C357.33,-197.43 348.83,-192.63 341.75,-186.25 307.59,-155.47 338.73,-121.3 305.75,-89.25 302.07,-85.67 297.85,-82.6 293.34,-79.97"/>
<polygon fill="#63b8ff" stroke="#63b8ff" points="364.99,-204.27 375.59,-204.23 367.27,-197.66 364.99,-204.27"/>
</a>
</g>
</g>
<!-- Node38 -->
<g id="Node000038" class="node">
<title>Node38</title>
<g id="a_Node000038"><a xlink:href="classlmms_1_1MeterModel.html#a97aae6a3ba8d6cb728b54008d06f8f85" target="_top" xlink:title=" ">
<polygon fill="white" stroke="#666666" points="281,-30.5 181,-30.5 181,0 281,0 281,-30.5"/>
<text xml:space="preserve" text-anchor="start" x="189" y="-17" font-family="Helvetica,sans-Serif" font-size="10.00">lmms::MeterModel::</text>
<text xml:space="preserve" text-anchor="middle" x="231" y="-5.75" font-family="Helvetica,sans-Serif" font-size="10.00">~MeterModel</text>
</a>
</g>
</g>
<!-- Node37&#45;&gt;Node38 -->
<g id="edge17_Node000037_Node000038" class="edge">
<title>Node37&#45;&gt;Node38</title>
<g id="a_edge17_Node000037_Node000038"><a xlink:title=" ">
<path fill="none" stroke="#63b8ff" d="M388.1,-54.44C355.53,-46.26 313.54,-35.72 281.32,-27.63"/>
<polygon fill="#63b8ff" stroke="#63b8ff" points="387.17,-57.81 397.72,-56.86 388.87,-51.03 387.17,-57.81"/>
</a>
</g>
</g>
</g>
</svg>
