<?xml version="1.0" encoding="UTF-8" standalone="no"?>
<!DOCTYPE svg PUBLIC "-//W3C//DTD SVG 1.1//EN"
 "http://www.w3.org/Graphics/SVG/1.1/DTD/svg11.dtd">
<!-- Generated by graphviz version 14.0.2 (0)
 -->
<!-- Title: juce::Font::italicised Pages: 1 -->
<svg width="232pt" height="45pt"
 viewBox="0.00 0.00 232.00 45.00" xmlns="http://www.w3.org/2000/svg" xmlns:xlink="http://www.w3.org/1999/xlink">
<g id="graph0" class="graph" transform="scale(1 1) rotate(0) translate(4 41.25)">
<title>juce::Font::italicised</title>
<!-- Node1 -->
<g id="Node000001" class="node">
<title>Node1</title>
<g id="a_Node000001"><a xlink:title=" ">
<polygon fill="#999999" stroke="#666666" points="224,-19.25 123.25,-19.25 123.25,0 224,0 224,-19.25"/>
<text xml:space="preserve" text-anchor="middle" x="173.62" y="-5.75" font-family="Helvetica,sans-Serif" font-size="10.00">juce::Font::italicised</text>
</a>
</g>
</g>
<!-- Node1&#45;&gt;Node1 -->
<g id="edge1_Node000001_Node000001" class="edge">
<title>Node1&#45;&gt;Node1</title>
<g id="a_edge1_Node000001_Node000001"><a xlink:title=" ">
<path fill="none" stroke="#63b8ff" d="M196.7,-30.65C193.81,-34.53 186.12,-37.25 173.62,-37.25 150.77,-37.25 143.99,-28.15 153.27,-19.54"/>
<polygon fill="#63b8ff" stroke="#63b8ff" points="200.12,-29.89 194.34,-21.01 193.32,-31.55 200.12,-29.89"/>
</a>
</g>
</g>
<!-- Node2 -->
<g id="Node000002" class="node">
<title>Node2</title>
<g id="a_Node000002"><a xlink:href="classjuce_1_1Font.html#aa68d0571bddb9422ef07e443b3fd7dcc" target="_top" xlink:title=" ">
<polygon fill="white" stroke="#666666" points="87.25,-19.25 0,-19.25 0,0 87.25,0 87.25,-19.25"/>
<text xml:space="preserve" text-anchor="middle" x="43.62" y="-5.75" font-family="Helvetica,sans-Serif" font-size="10.00">juce::Font::~Font</text>
</a>
</g>
</g>
<!-- Node1&#45;&gt;Node2 -->
<g id="edge2_Node000001_Node000002" class="edge">
<title>Node1&#45;&gt;Node2</title>
<g id="a_edge2_Node000001_Node000002"><a xlink:title=" ">
<path fill="none" stroke="#63b8ff" d="M111.42,-9.62C103.33,-9.62 95.18,-9.62 87.49,-9.62"/>
<polygon fill="#63b8ff" stroke="#63b8ff" points="111.26,-13.13 121.26,-9.63 111.26,-6.13 111.26,-13.13"/>
</a>
</g>
</g>
</g>
</svg>
