<?xml version="1.0" encoding="UTF-8" standalone="no"?>
<!DOCTYPE svg PUBLIC "-//W3C//DTD SVG 1.1//EN"
 "http://www.w3.org/Graphics/SVG/1.1/DTD/svg11.dtd">
<!-- Generated by graphviz version 14.0.2 (0)
 -->
<!-- Title: juce::TimeSliceThread::run Pages: 1 -->
<svg width="495pt" height="390pt"
 viewBox="0.00 0.00 495.00 390.00" xmlns="http://www.w3.org/2000/svg" xmlns:xlink="http://www.w3.org/1999/xlink">
<g id="graph0" class="graph" transform="scale(1 1) rotate(0) translate(4 386.25)">
<title>juce::TimeSliceThread::run</title>
<!-- Node1 -->
<g id="Node000001" class="node">
<title>Node1</title>
<g id="a_Node000001"><a xlink:title=" ">
<polygon fill="#999999" stroke="#666666" points="130,-196.25 0,-196.25 0,-177 130,-177 130,-196.25"/>
<text xml:space="preserve" text-anchor="middle" x="65" y="-182.75" font-family="Helvetica,sans-Serif" font-size="10.00">juce::TimeSliceThread::run</text>
</a>
</g>
</g>
<!-- Node1&#45;&gt;Node1 -->
<g id="edge15_Node000001_Node000001" class="edge">
<title>Node1&#45;&gt;Node1</title>
<g id="a_edge15_Node000001_Node000001"><a xlink:title=" ">
<path fill="none" stroke="#63b8ff" d="M37.78,-196.54C25.36,-205.15 34.44,-214.25 65,-214.25 82.19,-214.25 92.58,-211.37 96.18,-207.32"/>
<polygon fill="#63b8ff" stroke="#63b8ff" points="99.47,-206.14 92.74,-197.96 92.9,-208.55 99.47,-206.14"/>
</a>
</g>
</g>
<!-- Node2 -->
<g id="Node000002" class="node">
<title>Node2</title>
<g id="a_Node000002"><a xlink:href="classjuce_1_1Time.html#a7d90f51eb13a727e38520cf414459bfc" target="_top" xlink:title=" ">
<polygon fill="white" stroke="#666666" points="304.62,-337.25 173.12,-337.25 173.12,-318 304.62,-318 304.62,-337.25"/>
<text xml:space="preserve" text-anchor="middle" x="238.88" y="-323.75" font-family="Helvetica,sans-Serif" font-size="10.00">juce::Time::getCurrentTime</text>
</a>
</g>
</g>
<!-- Node1&#45;&gt;Node2 -->
<g id="edge1_Node000001_Node000002" class="edge">
<title>Node1&#45;&gt;Node2</title>
<g id="a_edge1_Node000001_Node000002"><a xlink:title=" ">
<path fill="none" stroke="#63b8ff" d="M71.26,-196.63C84.11,-220.05 119.46,-278.71 166,-308.62 168.56,-310.27 171.25,-311.77 174.04,-313.15"/>
<polygon fill="#63b8ff" stroke="#63b8ff" points="172.48,-316.29 183.05,-316.98 175.22,-309.84 172.48,-316.29"/>
</a>
</g>
</g>
<!-- Node5 -->
<g id="Node000005" class="node">
<title>Node5</title>
<g id="a_Node000005"><a xlink:href="classjuce_1_1TimeSliceThread.html#a589049068ed17f3584e1a1ef6957cd56" target="_top" xlink:title=" ">
<polygon fill="white" stroke="#666666" points="294.88,-281.88 182.88,-281.88 182.88,-251.38 294.88,-251.38 294.88,-281.88"/>
<text xml:space="preserve" text-anchor="start" x="190.88" y="-268.38" font-family="Helvetica,sans-Serif" font-size="10.00">juce::TimeSliceThread</text>
<text xml:space="preserve" text-anchor="middle" x="238.88" y="-257.12" font-family="Helvetica,sans-Serif" font-size="10.00">::getNextClient</text>
</a>
</g>
</g>
<!-- Node1&#45;&gt;Node5 -->
<g id="edge7_Node000001_Node000005" class="edge">
<title>Node1&#45;&gt;Node5</title>
<g id="a_edge7_Node000001_Node000005"><a xlink:title=" ">
<path fill="none" stroke="#63b8ff" d="M81.8,-196.71C101.12,-208.74 135.06,-228.94 166,-242.62 169.31,-244.09 172.74,-245.51 176.22,-246.89"/>
<polygon fill="#63b8ff" stroke="#63b8ff" points="174.76,-250.08 185.35,-250.35 177.24,-243.54 174.76,-250.08"/>
</a>
</g>
</g>
<!-- Node6 -->
<g id="Node000006" class="node">
<title>Node6</title>
<g id="a_Node000006"><a xlink:href="unzipfx-carla-control_2unzip_8h.html#a6146ec4ac32d62cf01b4c4c6587d5131" target="_top" xlink:title=" ">
<polygon fill="white" stroke="#666666" points="253.28,-233.25 224.47,-233.25 224.47,-214 253.28,-214 253.28,-233.25"/>
<text xml:space="preserve" text-anchor="middle" x="238.88" y="-219.75" font-family="Helvetica,sans-Serif" font-size="10.00">int</text>
</a>
</g>
</g>
<!-- Node1&#45;&gt;Node6 -->
<g id="edge9_Node000001_Node000006" class="edge">
<title>Node1&#45;&gt;Node6</title>
<g id="a_edge9_Node000001_Node000006"><a xlink:title=" ">
<path fill="none" stroke="#63b8ff" d="M112.97,-196.74C145.23,-203.68 186.79,-212.63 212.89,-218.25"/>
<polygon fill="#63b8ff" stroke="#63b8ff" points="212.04,-221.64 222.55,-220.33 213.51,-214.8 212.04,-221.64"/>
</a>
</g>
</g>
<!-- Node7 -->
<g id="Node000007" class="node">
<title>Node7</title>
<g id="a_Node000007"><a xlink:href="namespacejuce.html#a31dc5897289f074362c29fe54016f2dd" target="_top" xlink:title=" ">
<polygon fill="white" stroke="#666666" points="267.12,-196.25 210.62,-196.25 210.62,-177 267.12,-177 267.12,-196.25"/>
<text xml:space="preserve" text-anchor="middle" x="238.88" y="-182.75" font-family="Helvetica,sans-Serif" font-size="10.00">juce::jmin</text>
</a>
</g>
</g>
<!-- Node1&#45;&gt;Node7 -->
<g id="edge10_Node000001_Node000007" class="edge">
<title>Node1&#45;&gt;Node7</title>
<g id="a_edge10_Node000001_Node000007"><a xlink:title=" ">
<path fill="none" stroke="#63b8ff" d="M130.49,-186.62C153.58,-186.62 178.88,-186.62 199.12,-186.62"/>
<polygon fill="#63b8ff" stroke="#63b8ff" points="198.88,-190.13 208.88,-186.63 198.88,-183.13 198.88,-190.13"/>
</a>
</g>
</g>
<!-- Node8 -->
<g id="Node000008" class="node">
<title>Node8</title>
<g id="a_Node000008"><a xlink:href="classjuce_1_1RelativeTime.html#a762c6e2c070067f12c93b1760153a519" target="_top" xlink:title=" ">
<polygon fill="white" stroke="#666666" points="286.62,-140.88 191.12,-140.88 191.12,-110.38 286.62,-110.38 286.62,-140.88"/>
<text xml:space="preserve" text-anchor="start" x="199.12" y="-127.38" font-family="Helvetica,sans-Serif" font-size="10.00">juce::RelativeTime</text>
<text xml:space="preserve" text-anchor="middle" x="238.88" y="-116.12" font-family="Helvetica,sans-Serif" font-size="10.00">::milliseconds</text>
</a>
</g>
</g>
<!-- Node1&#45;&gt;Node8 -->
<g id="edge11_Node000001_Node000008" class="edge">
<title>Node1&#45;&gt;Node8</title>
<g id="a_edge11_Node000001_Node000008"><a xlink:title=" ">
<path fill="none" stroke="#63b8ff" d="M94.38,-176.55C118.41,-168.02 153.56,-155.55 183.05,-145.08"/>
<polygon fill="#63b8ff" stroke="#63b8ff" points="183.95,-148.48 192.2,-141.83 181.61,-141.88 183.95,-148.48"/>
</a>
</g>
</g>
<!-- Node10 -->
<g id="Node000010" class="node">
<title>Node10</title>
<g id="a_Node000010"><a xlink:href="classjuce_1_1Thread.html#ab89b68d53514e0b3978460aab3202fd7" target="_top" xlink:title=" ">
<polygon fill="white" stroke="#666666" points="311.75,-74.25 166,-74.25 166,-55 311.75,-55 311.75,-74.25"/>
<text xml:space="preserve" text-anchor="middle" x="238.88" y="-60.75" font-family="Helvetica,sans-Serif" font-size="10.00">juce::Thread::threadShouldExit</text>
</a>
</g>
</g>
<!-- Node1&#45;&gt;Node10 -->
<g id="edge16_Node000001_Node000010" class="edge">
<title>Node1&#45;&gt;Node10</title>
<g id="a_edge16_Node000001_Node000010"><a xlink:title=" ">
<path fill="none" stroke="#63b8ff" d="M76.16,-176.59C93.56,-159.76 130.59,-125.33 166,-101.62 178.21,-93.45 192.45,-85.78 205.02,-79.56"/>
<polygon fill="#63b8ff" stroke="#63b8ff" points="206.26,-82.85 213.75,-75.35 203.22,-76.54 206.26,-82.85"/>
</a>
</g>
</g>
<!-- Node11 -->
<g id="Node000011" class="node">
<title>Node11</title>
<g id="a_Node000011"><a xlink:href="classjuce_1_1Thread.html#a99ac29606fd57fd418dfd169939f7b25" target="_top" xlink:title=" ">
<polygon fill="white" stroke="#666666" points="284.38,-19.25 193.38,-19.25 193.38,0 284.38,0 284.38,-19.25"/>
<text xml:space="preserve" text-anchor="middle" x="238.88" y="-5.75" font-family="Helvetica,sans-Serif" font-size="10.00">juce::Thread::wait</text>
</a>
</g>
</g>
<!-- Node1&#45;&gt;Node11 -->
<g id="edge18_Node000001_Node000011" class="edge">
<title>Node1&#45;&gt;Node11</title>
<g id="a_edge18_Node000001_Node000011"><a xlink:title=" ">
<path fill="none" stroke="#63b8ff" d="M70.77,-176.84C83.27,-152 119.31,-85.69 166,-45.62 175.97,-37.07 188.34,-29.93 199.98,-24.33"/>
<polygon fill="#63b8ff" stroke="#63b8ff" points="201.34,-27.56 209,-20.25 198.45,-21.19 201.34,-27.56"/>
</a>
</g>
</g>
<!-- Node2&#45;&gt;Node2 -->
<g id="edge4_Node000002_Node000002" class="edge">
<title>Node2&#45;&gt;Node2</title>
<g id="a_edge4_Node000002_Node000002"><a xlink:title=" ">
<path fill="none" stroke="#63b8ff" d="M211.65,-337.54C199.24,-346.15 208.31,-355.25 238.88,-355.25 256.07,-355.25 266.46,-352.37 270.05,-348.32"/>
<polygon fill="#63b8ff" stroke="#63b8ff" points="273.35,-347.14 266.62,-338.96 266.78,-349.55 273.35,-347.14"/>
</a>
</g>
</g>
<!-- Node3 -->
<g id="Node000003" class="node">
<title>Node3</title>
<g id="a_Node000003"><a xlink:href="classjuce_1_1Time.html#a76187258e8cae4038850fd0ff3476db0" target="_top" xlink:title=" ">
<polygon fill="white" stroke="#666666" points="486.75,-364.25 347.75,-364.25 347.75,-345 486.75,-345 486.75,-364.25"/>
<text xml:space="preserve" text-anchor="middle" x="417.25" y="-350.75" font-family="Helvetica,sans-Serif" font-size="10.00">juce::Time::currentTimeMillis</text>
</a>
</g>
</g>
<!-- Node2&#45;&gt;Node3 -->
<g id="edge2_Node000002_Node000003" class="edge">
<title>Node2&#45;&gt;Node3</title>
<g id="a_edge2_Node000002_Node000003"><a xlink:title=" ">
<path fill="none" stroke="#63b8ff" d="M305.05,-337.6C316.09,-339.29 327.65,-341.06 338.96,-342.79"/>
<polygon fill="#63b8ff" stroke="#63b8ff" points="338.25,-346.23 348.67,-344.28 339.31,-339.31 338.25,-346.23"/>
</a>
</g>
</g>
<!-- Node4 -->
<g id="Node000004" class="node">
<title>Node4</title>
<g id="a_Node000004"><a xlink:href="classjuce_1_1Time.html#a2b2d33fdacb3190901ac10c4b9f0e000" target="_top" xlink:title=" ">
<polygon fill="white" stroke="#666666" points="460.5,-309.25 374,-309.25 374,-290 460.5,-290 460.5,-309.25"/>
<text xml:space="preserve" text-anchor="middle" x="417.25" y="-295.75" font-family="Helvetica,sans-Serif" font-size="10.00">juce::Time::Time</text>
</a>
</g>
</g>
<!-- Node2&#45;&gt;Node4 -->
<g id="edge5_Node000002_Node000004" class="edge">
<title>Node2&#45;&gt;Node4</title>
<g id="a_edge5_Node000002_Node000004"><a xlink:title=" ">
<path fill="none" stroke="#63b8ff" d="M303.55,-317.52C322.83,-314.45 343.82,-311.12 362.39,-308.17"/>
<polygon fill="#63b8ff" stroke="#63b8ff" points="362.79,-311.66 372.12,-306.63 361.69,-304.74 362.79,-311.66"/>
</a>
</g>
</g>
<!-- Node3&#45;&gt;Node3 -->
<g id="edge3_Node000003_Node000003" class="edge">
<title>Node3&#45;&gt;Node3</title>
<g id="a_edge3_Node000003_Node000003"><a xlink:title=" ">
<path fill="none" stroke="#63b8ff" d="M389.32,-364.54C376.59,-373.15 385.9,-382.25 417.25,-382.25 435.38,-382.25 446.14,-379.21 449.53,-374.98"/>
<polygon fill="#63b8ff" stroke="#63b8ff" points="452.84,-373.82 445.76,-365.94 446.37,-376.51 452.84,-373.82"/>
</a>
</g>
</g>
<!-- Node4&#45;&gt;Node4 -->
<g id="edge6_Node000004_Node000004" class="edge">
<title>Node4&#45;&gt;Node4</title>
<g id="a_edge6_Node000004_Node000004"><a xlink:title=" ">
<path fill="none" stroke="#63b8ff" d="M389.32,-309.54C376.59,-318.15 385.9,-327.25 417.25,-327.25 435.38,-327.25 446.14,-324.21 449.53,-319.98"/>
<polygon fill="#63b8ff" stroke="#63b8ff" points="452.84,-318.82 445.76,-310.94 446.37,-321.51 452.84,-318.82"/>
</a>
</g>
</g>
<!-- Node5&#45;&gt;Node5 -->
<g id="edge8_Node000005_Node000005" class="edge">
<title>Node5&#45;&gt;Node5</title>
<g id="a_edge8_Node000005_Node000005"><a xlink:title=" ">
<path fill="none" stroke="#63b8ff" d="M208.06,-282.36C201.78,-291.43 212.05,-299.88 238.88,-299.88 253.55,-299.88 263.27,-297.35 268.03,-293.58"/>
<polygon fill="#63b8ff" stroke="#63b8ff" points="271.47,-294.26 269.47,-283.86 264.55,-293.24 271.47,-294.26"/>
</a>
</g>
</g>
<!-- Node8&#45;&gt;Node8 -->
<g id="edge12_Node000008_Node000008" class="edge">
<title>Node8&#45;&gt;Node8</title>
<g id="a_edge12_Node000008_Node000008"><a xlink:title=" ">
<path fill="none" stroke="#63b8ff" d="M208.06,-141.36C201.78,-150.43 212.05,-158.88 238.88,-158.88 253.55,-158.88 263.27,-156.35 268.03,-152.58"/>
<polygon fill="#63b8ff" stroke="#63b8ff" points="271.47,-153.26 269.47,-142.86 264.55,-152.24 271.47,-153.26"/>
</a>
</g>
</g>
<!-- Node9 -->
<g id="Node000009" class="node">
<title>Node9</title>
<g id="a_Node000009"><a xlink:href="classjuce_1_1RelativeTime.html#aebe34a052a453f4fda85cc4d44408f57" target="_top" xlink:title=" ">
<polygon fill="white" stroke="#666666" points="465,-140.88 369.5,-140.88 369.5,-110.38 465,-110.38 465,-140.88"/>
<text xml:space="preserve" text-anchor="start" x="377.5" y="-127.38" font-family="Helvetica,sans-Serif" font-size="10.00">juce::RelativeTime</text>
<text xml:space="preserve" text-anchor="middle" x="417.25" y="-116.12" font-family="Helvetica,sans-Serif" font-size="10.00">::RelativeTime</text>
</a>
</g>
</g>
<!-- Node8&#45;&gt;Node9 -->
<g id="edge13_Node000008_Node000009" class="edge">
<title>Node8&#45;&gt;Node9</title>
<g id="a_edge13_Node000008_Node000009"><a xlink:title=" ">
<path fill="none" stroke="#63b8ff" d="M286.68,-125.62C308.5,-125.62 334.7,-125.62 357.82,-125.62"/>
<polygon fill="#63b8ff" stroke="#63b8ff" points="357.72,-129.13 367.72,-125.63 357.72,-122.13 357.72,-129.13"/>
</a>
</g>
</g>
<!-- Node9&#45;&gt;Node9 -->
<g id="edge14_Node000009_Node000009" class="edge">
<title>Node9&#45;&gt;Node9</title>
<g id="a_edge14_Node000009_Node000009"><a xlink:title=" ">
<path fill="none" stroke="#63b8ff" d="M385.64,-141.36C379.19,-150.43 389.73,-158.88 417.25,-158.88 432.3,-158.88 442.27,-156.35 447.16,-152.58"/>
<polygon fill="#63b8ff" stroke="#63b8ff" points="450.6,-153.27 448.63,-142.86 443.68,-152.22 450.6,-153.27"/>
</a>
</g>
</g>
<!-- Node10&#45;&gt;Node10 -->
<g id="edge17_Node000010_Node000010" class="edge">
<title>Node10&#45;&gt;Node10</title>
<g id="a_edge17_Node000010_Node000010"><a xlink:title=" ">
<path fill="none" stroke="#63b8ff" d="M211.65,-74.54C199.24,-83.15 208.31,-92.25 238.88,-92.25 256.07,-92.25 266.46,-89.37 270.05,-85.32"/>
<polygon fill="#63b8ff" stroke="#63b8ff" points="273.35,-84.14 266.62,-75.96 266.78,-86.55 273.35,-84.14"/>
</a>
</g>
</g>
<!-- Node11&#45;&gt;Node11 -->
<g id="edge19_Node000011_Node000011" class="edge">
<title>Node11&#45;&gt;Node11</title>
<g id="a_edge19_Node000011_Node000011"><a xlink:title=" ">
<path fill="none" stroke="#63b8ff" d="M211.65,-19.54C199.24,-28.15 208.31,-37.25 238.88,-37.25 256.07,-37.25 266.46,-34.37 270.05,-30.32"/>
<polygon fill="#63b8ff" stroke="#63b8ff" points="273.35,-29.14 266.62,-20.96 266.78,-31.55 273.35,-29.14"/>
</a>
</g>
</g>
</g>
</svg>
