<?xml version="1.0" encoding="UTF-8" standalone="no"?>
<!DOCTYPE svg PUBLIC "-//W3C//DTD SVG 1.1//EN"
 "http://www.w3.org/Graphics/SVG/1.1/DTD/svg11.dtd">
<!-- Generated by graphviz version 14.0.2 (0)
 -->
<!-- Title: juce::MessageBoxOptions::withAssociatedComponent Pages: 1 -->
<svg width="474pt" height="60pt"
 viewBox="0.00 0.00 474.00 60.00" xmlns="http://www.w3.org/2000/svg" xmlns:xlink="http://www.w3.org/1999/xlink">
<g id="graph0" class="graph" transform="scale(1 1) rotate(0) translate(4 55.5)">
<title>juce::MessageBoxOptions::withAssociatedComponent</title>
<!-- Node1 -->
<g id="Node000001" class="node">
<title>Node1</title>
<g id="a_Node000001"><a xlink:title=" ">
<polygon fill="#999999" stroke="#666666" points="136.75,-51.5 0,-51.5 0,-21 136.75,-21 136.75,-51.5"/>
<text xml:space="preserve" text-anchor="start" x="8" y="-38" font-family="Helvetica,sans-Serif" font-size="10.00">juce::MessageBoxOptions</text>
<text xml:space="preserve" text-anchor="middle" x="68.38" y="-26.75" font-family="Helvetica,sans-Serif" font-size="10.00">::withAssociatedComponent</text>
</a>
</g>
</g>
<!-- Node2 -->
<g id="Node000002" class="node">
<title>Node2</title>
<g id="a_Node000002"><a xlink:href="classjuce_1_1MessageBoxOptions.html#a06c586b234383bcf806f4e792566ce6d" target="_top" xlink:title=" ">
<polygon fill="white" stroke="#666666" points="465.75,-51.5 337.25,-51.5 337.25,-21 465.75,-21 465.75,-51.5"/>
<text xml:space="preserve" text-anchor="start" x="345.25" y="-38" font-family="Helvetica,sans-Serif" font-size="10.00">juce::MessageBoxOptions</text>
<text xml:space="preserve" text-anchor="middle" x="401.5" y="-26.75" font-family="Helvetica,sans-Serif" font-size="10.00">::MessageBoxOptions</text>
</a>
</g>
</g>
<!-- Node1&#45;&gt;Node2 -->
<g id="edge1_Node000001_Node000002" class="edge">
<title>Node1&#45;&gt;Node2</title>
<g id="a_edge1_Node000001_Node000002"><a xlink:title=" ">
<path fill="none" stroke="#63b8ff" d="M137.21,-38.5C149.05,-38.81 161.26,-39.08 172.75,-39.25 229.86,-40.08 244.15,-40.11 301.25,-39.25 309.1,-39.13 317.3,-38.96 325.47,-38.76"/>
<polygon fill="#63b8ff" stroke="#63b8ff" points="325.55,-42.26 335.46,-38.5 325.37,-35.26 325.55,-42.26"/>
</a>
</g>
</g>
<!-- Node3 -->
<g id="Node000003" class="node">
<title>Node3</title>
<g id="a_Node000003"><a xlink:href="classjuce_1_1MessageBoxOptions.html#ac0150ff3a477f4f4e17a04447ab98812" target="_top" xlink:title=" ">
<polygon fill="white" stroke="#666666" points="301.25,-30.5 172.75,-30.5 172.75,0 301.25,0 301.25,-30.5"/>
<text xml:space="preserve" text-anchor="start" x="180.75" y="-17" font-family="Helvetica,sans-Serif" font-size="10.00">juce::MessageBoxOptions</text>
<text xml:space="preserve" text-anchor="middle" x="237" y="-5.75" font-family="Helvetica,sans-Serif" font-size="10.00">::with</text>
</a>
</g>
</g>
<!-- Node1&#45;&gt;Node3 -->
<g id="edge2_Node000001_Node000003" class="edge">
<title>Node1&#45;&gt;Node3</title>
<g id="a_edge2_Node000001_Node000003"><a xlink:title=" ">
<path fill="none" stroke="#63b8ff" d="M137.15,-27.71C145.05,-26.71 153.14,-25.69 161.13,-24.69"/>
<polygon fill="#63b8ff" stroke="#63b8ff" points="161.34,-28.19 170.82,-23.46 160.46,-21.24 161.34,-28.19"/>
</a>
</g>
</g>
<!-- Node3&#45;&gt;Node2 -->
<g id="edge3_Node000003_Node000002" class="edge">
<title>Node3&#45;&gt;Node2</title>
<g id="a_edge3_Node000003_Node000002"><a xlink:title=" ">
<path fill="none" stroke="#63b8ff" d="M301.29,-23.43C309.23,-24.45 317.4,-25.51 325.49,-26.56"/>
<polygon fill="#63b8ff" stroke="#63b8ff" points="324.98,-30.02 335.34,-27.83 325.88,-23.08 324.98,-30.02"/>
</a>
</g>
</g>
</g>
</svg>
