<?xml version="1.0" encoding="UTF-8" standalone="no"?>
<!DOCTYPE svg PUBLIC "-//W3C//DTD SVG 1.1//EN"
 "http://www.w3.org/Graphics/SVG/1.1/DTD/svg11.dtd">
<!-- Generated by graphviz version 14.0.2 (0)
 -->
<!-- Title: String::clear Pages: 1 -->
<svg width="402pt" height="27pt"
 viewBox="0.00 0.00 402.00 27.00" xmlns="http://www.w3.org/2000/svg" xmlns:xlink="http://www.w3.org/1999/xlink">
<g id="graph0" class="graph" transform="scale(1 1) rotate(0) translate(4 23.25)">
<title>String::clear</title>
<!-- Node1 -->
<g id="Node000001" class="node">
<title>Node1</title>
<g id="a_Node000001"><a xlink:title=" ">
<polygon fill="#999999" stroke="#666666" points="67,-19.25 0,-19.25 0,0 67,0 67,-19.25"/>
<text xml:space="preserve" text-anchor="middle" x="33.5" y="-5.75" font-family="Helvetica,sans-Serif" font-size="10.00">String::clear</text>
</a>
</g>
</g>
<!-- Node2 -->
<g id="Node000002" class="node">
<title>Node2</title>
<g id="a_Node000002"><a xlink:href="classString.html#ad2d4191127502787172693adc6020143" target="_top" xlink:title=" ">
<polygon fill="white" stroke="#666666" points="184.25,-19.25 103,-19.25 103,0 184.25,0 184.25,-19.25"/>
<text xml:space="preserve" text-anchor="middle" x="143.62" y="-5.75" font-family="Helvetica,sans-Serif" font-size="10.00">String::truncate</text>
</a>
</g>
</g>
<!-- Node1&#45;&gt;Node2 -->
<g id="edge1_Node000001_Node000002" class="edge">
<title>Node1&#45;&gt;Node2</title>
<g id="a_edge1_Node000001_Node000002"><a xlink:title=" ">
<path fill="none" stroke="#63b8ff" d="M67.23,-9.62C74.84,-9.62 83.11,-9.62 91.3,-9.62"/>
<polygon fill="#63b8ff" stroke="#63b8ff" points="91.24,-13.13 101.24,-9.63 91.24,-6.13 91.24,-13.13"/>
</a>
</g>
</g>
<!-- Node3 -->
<g id="Node000003" class="node">
<title>Node3</title>
<g id="a_Node000003"><a xlink:href="classString.html#a0225bb76bd3527b0e9ec9663c53f873d" target="_top" xlink:title=" ">
<polygon fill="white" stroke="#666666" points="291.75,-19.25 220.25,-19.25 220.25,0 291.75,0 291.75,-19.25"/>
<text xml:space="preserve" text-anchor="middle" x="256" y="-5.75" font-family="Helvetica,sans-Serif" font-size="10.00">String::String</text>
</a>
</g>
</g>
<!-- Node2&#45;&gt;Node3 -->
<g id="edge2_Node000002_Node000003" class="edge">
<title>Node2&#45;&gt;Node3</title>
<g id="a_edge2_Node000002_Node000003"><a xlink:title=" ">
<path fill="none" stroke="#63b8ff" d="M184.47,-9.62C192.27,-9.62 200.52,-9.62 208.51,-9.62"/>
<polygon fill="#63b8ff" stroke="#63b8ff" points="208.45,-13.13 218.45,-9.63 208.45,-6.13 208.45,-13.13"/>
</a>
</g>
</g>
<!-- Node4 -->
<g id="Node000004" class="node">
<title>Node4</title>
<g id="a_Node000004"><a xlink:href="classString.html#adea50dd7b4611202bc44c037661fd4a1" target="_top" xlink:title=" ">
<polygon fill="white" stroke="#666666" points="394,-19.25 327.75,-19.25 327.75,0 394,0 394,-19.25"/>
<text xml:space="preserve" text-anchor="middle" x="360.88" y="-5.75" font-family="Helvetica,sans-Serif" font-size="10.00">String::_null</text>
</a>
</g>
</g>
<!-- Node3&#45;&gt;Node4 -->
<g id="edge3_Node000003_Node000004" class="edge">
<title>Node3&#45;&gt;Node4</title>
<g id="a_edge3_Node000003_Node000004"><a xlink:title=" ">
<path fill="none" stroke="#63b8ff" d="M292.12,-9.62C299.78,-9.62 307.99,-9.62 315.95,-9.62"/>
<polygon fill="#63b8ff" stroke="#63b8ff" points="315.83,-13.13 325.83,-9.63 315.83,-6.13 315.83,-13.13"/>
</a>
</g>
</g>
</g>
</svg>
