<?xml version="1.0" encoding="UTF-8" standalone="no"?>
<!DOCTYPE svg PUBLIC "-//W3C//DTD SVG 1.1//EN"
 "http://www.w3.org/Graphics/SVG/1.1/DTD/svg11.dtd">
<!-- Generated by graphviz version 14.0.2 (0)
 -->
<!-- Title: juce::MPEZoneLayout::operator= Pages: 1 -->
<svg width="629pt" height="87pt"
 viewBox="0.00 0.00 629.00 87.00" xmlns="http://www.w3.org/2000/svg" xmlns:xlink="http://www.w3.org/1999/xlink">
<g id="graph0" class="graph" transform="scale(1 1) rotate(0) translate(4 82.5)">
<title>juce::MPEZoneLayout::operator=</title>
<!-- Node1 -->
<g id="Node000001" class="node">
<title>Node1</title>
<g id="a_Node000001"><a xlink:title=" ">
<polygon fill="#999999" stroke="#666666" points="110.5,-60.5 0,-60.5 0,-30 110.5,-30 110.5,-60.5"/>
<text xml:space="preserve" text-anchor="start" x="8" y="-47" font-family="Helvetica,sans-Serif" font-size="10.00">juce::MPEZoneLayout</text>
<text xml:space="preserve" text-anchor="middle" x="55.25" y="-35.75" font-family="Helvetica,sans-Serif" font-size="10.00">::operator=</text>
</a>
</g>
</g>
<!-- Node2 -->
<g id="Node000002" class="node">
<title>Node2</title>
<g id="a_Node000002"><a xlink:href="classjuce_1_1MPEZoneLayout.html#a2efbfa02cf729505df0964af2f00a865" target="_top" xlink:title=" ">
<polygon fill="white" stroke="#666666" points="620.5,-60.5 510,-60.5 510,-30 620.5,-30 620.5,-60.5"/>
<text xml:space="preserve" text-anchor="start" x="518" y="-47" font-family="Helvetica,sans-Serif" font-size="10.00">juce::MPEZoneLayout</text>
<text xml:space="preserve" text-anchor="middle" x="565.25" y="-35.75" font-family="Helvetica,sans-Serif" font-size="10.00">::MPEZoneLayout</text>
</a>
</g>
</g>
<!-- Node1&#45;&gt;Node2 -->
<g id="edge1_Node000001_Node000002" class="edge">
<title>Node1&#45;&gt;Node2</title>
<g id="a_edge1_Node000001_Node000002"><a xlink:title=" ">
<path fill="none" stroke="#63b8ff" d="M110.54,-53.65C122.36,-55.15 134.83,-56.48 146.5,-57.25 270.66,-65.47 415.95,-57.29 498.34,-51"/>
<polygon fill="#63b8ff" stroke="#63b8ff" points="498.57,-54.49 508.27,-50.22 498.03,-47.51 498.57,-54.49"/>
</a>
</g>
</g>
<!-- Node3 -->
<g id="Node000003" class="node">
<title>Node3</title>
<g id="a_Node000003"><a xlink:href="classjuce_1_1MPEZoneLayout.html#a432b669a0a15595087bfaac1f61c5eb9" target="_top" xlink:title=" ">
<polygon fill="white" stroke="#666666" points="290,-30.5 146.5,-30.5 146.5,0 290,0 290,-30.5"/>
<text xml:space="preserve" text-anchor="start" x="154.5" y="-17" font-family="Helvetica,sans-Serif" font-size="10.00">juce::MPEZoneLayout</text>
<text xml:space="preserve" text-anchor="middle" x="218.25" y="-5.75" font-family="Helvetica,sans-Serif" font-size="10.00">::sendLayoutChangeMessage</text>
</a>
</g>
</g>
<!-- Node1&#45;&gt;Node3 -->
<g id="edge3_Node000001_Node000003" class="edge">
<title>Node1&#45;&gt;Node3</title>
<g id="a_edge3_Node000001_Node000003"><a xlink:title=" ">
<path fill="none" stroke="#63b8ff" d="M110.76,-35.09C118.6,-33.63 126.81,-32.1 135.04,-30.57"/>
<polygon fill="#63b8ff" stroke="#63b8ff" points="135.57,-34.03 144.76,-28.76 134.29,-27.15 135.57,-34.03"/>
</a>
</g>
</g>
<!-- Node2&#45;&gt;Node2 -->
<g id="edge2_Node000002_Node000002" class="edge">
<title>Node2&#45;&gt;Node2</title>
<g id="a_edge2_Node000002_Node000002"><a xlink:title=" ">
<path fill="none" stroke="#63b8ff" d="M535.97,-60.99C529.99,-70.06 539.75,-78.5 565.25,-78.5 579.19,-78.5 588.43,-75.97 592.96,-72.2"/>
<polygon fill="#63b8ff" stroke="#63b8ff" points="596.4,-72.87 594.32,-62.48 589.47,-71.9 596.4,-72.87"/>
</a>
</g>
</g>
<!-- Node3&#45;&gt;Node3 -->
<g id="edge4_Node000003_Node000003" class="edge">
<title>Node3&#45;&gt;Node3</title>
<g id="a_edge4_Node000003_Node000003"><a xlink:title=" ">
<path fill="none" stroke="#63b8ff" d="M189.37,-30.99C183.47,-40.06 193.1,-48.5 218.25,-48.5 232,-48.5 241.12,-45.97 245.59,-42.2"/>
<polygon fill="#63b8ff" stroke="#63b8ff" points="249.03,-42.87 246.93,-32.49 242.09,-41.91 249.03,-42.87"/>
</a>
</g>
</g>
<!-- Node4 -->
<g id="Node000004" class="node">
<title>Node4</title>
<g id="a_Node000004"><a xlink:href="classjuce_1_1MPEZoneLayout_1_1Listener.html#a34bdf3ce7b2f629da5a06c5d719026eb" target="_top" xlink:title=" ">
<polygon fill="white" stroke="#666666" points="474,-39.5 326,-39.5 326,-9 474,-9 474,-39.5"/>
<text xml:space="preserve" text-anchor="start" x="334" y="-26" font-family="Helvetica,sans-Serif" font-size="10.00">juce::MPEZoneLayout</text>
<text xml:space="preserve" text-anchor="middle" x="400" y="-14.75" font-family="Helvetica,sans-Serif" font-size="10.00">::Listener::zoneLayoutChanged</text>
</a>
</g>
</g>
<!-- Node3&#45;&gt;Node4 -->
<g id="edge5_Node000003_Node000004" class="edge">
<title>Node3&#45;&gt;Node4</title>
<g id="a_edge5_Node000003_Node000004"><a xlink:title=" ">
<path fill="none" stroke="#63b8ff" d="M290.29,-18.81C298.16,-19.2 306.23,-19.61 314.25,-20.01"/>
<polygon fill="#63b8ff" stroke="#63b8ff" points="313.85,-23.49 324.01,-20.5 314.2,-16.5 313.85,-23.49"/>
</a>
</g>
</g>
<!-- Node4&#45;&gt;Node2 -->
<g id="edge6_Node000004_Node000002" class="edge">
<title>Node4&#45;&gt;Node2</title>
<g id="a_edge6_Node000004_Node000002"><a xlink:title=" ">
<path fill="none" stroke="#63b8ff" d="M474.03,-33.64C482.22,-34.7 490.53,-35.77 498.63,-36.81"/>
<polygon fill="#63b8ff" stroke="#63b8ff" points="498.02,-40.26 508.39,-38.06 498.91,-33.32 498.02,-40.26"/>
</a>
</g>
</g>
</g>
</svg>
