<?xml version="1.0" encoding="UTF-8" standalone="no"?>
<!DOCTYPE svg PUBLIC "-//W3C//DTD SVG 1.1//EN"
 "http://www.w3.org/Graphics/SVG/1.1/DTD/svg11.dtd">
<!-- Generated by graphviz version 14.0.2 (0)
 -->
<!-- Title: CarlaPluginLV2::setParamterValueCommon Pages: 1 -->
<svg width="795pt" height="484pt"
 viewBox="0.00 0.00 795.00 484.00" xmlns="http://www.w3.org/2000/svg" xmlns:xlink="http://www.w3.org/1999/xlink">
<g id="graph0" class="graph" transform="scale(1 1) rotate(0) translate(4 480.25)">
<title>CarlaPluginLV2::setParamterValueCommon</title>
<!-- Node1 -->
<g id="Node000001" class="node">
<title>Node1</title>
<g id="a_Node000001"><a xlink:title=" ">
<polygon fill="#999999" stroke="#666666" points="141.25,-259.88 0,-259.88 0,-229.38 141.25,-229.38 141.25,-259.88"/>
<text xml:space="preserve" text-anchor="start" x="8" y="-246.38" font-family="Helvetica,sans-Serif" font-size="10.00">CarlaPluginLV2::setParamter</text>
<text xml:space="preserve" text-anchor="middle" x="70.62" y="-235.12" font-family="Helvetica,sans-Serif" font-size="10.00">ValueCommon</text>
</a>
</g>
</g>
<!-- Node2 -->
<g id="Node000002" class="node">
<title>Node2</title>
<g id="a_Node000002"><a xlink:href="CarlaUtils_8hpp.html#adcbd5a9383b671ccea31bef34e761928" target="_top" xlink:title=" ">
<polygon fill="white" stroke="#666666" points="293,-476.25 220.75,-476.25 220.75,-457 293,-457 293,-476.25"/>
<text xml:space="preserve" text-anchor="middle" x="256.88" y="-462.75" font-family="Helvetica,sans-Serif" font-size="10.00">carla_stderr2</text>
</a>
</g>
</g>
<!-- Node1&#45;&gt;Node2 -->
<g id="edge1_Node000001_Node000002" class="edge">
<title>Node1&#45;&gt;Node2</title>
<g id="a_edge1_Node000001_Node000002"><a xlink:title=" ">
<path fill="none" stroke="#63b8ff" d="M74.97,-260.29C84.05,-298.84 112.93,-398.8 177.25,-448.62 186.47,-455.76 198,-460.16 209.38,-462.85"/>
<polygon fill="#63b8ff" stroke="#63b8ff" points="208.64,-466.27 219.12,-464.72 209.96,-459.4 208.64,-466.27"/>
</a>
</g>
</g>
<!-- Node4 -->
<g id="Node000004" class="node">
<title>Node4</title>
<g id="a_Node000004"><a xlink:href="classCarlaPluginLV2.html#a8b17166c01388b99c3b03d73dc6a0610" target="_top" xlink:title=" ">
<polygon fill="white" stroke="#666666" points="336.5,-439.25 177.25,-439.25 177.25,-420 336.5,-420 336.5,-439.25"/>
<text xml:space="preserve" text-anchor="middle" x="256.88" y="-425.75" font-family="Helvetica,sans-Serif" font-size="10.00">CarlaPluginLV2::getCustomURID</text>
</a>
</g>
</g>
<!-- Node1&#45;&gt;Node4 -->
<g id="edge3_Node000001_Node000004" class="edge">
<title>Node1&#45;&gt;Node4</title>
<g id="a_edge3_Node000001_Node000004"><a xlink:title=" ">
<path fill="none" stroke="#63b8ff" d="M76.81,-260.16C88.78,-293.55 121.67,-372.28 177.25,-411.62 178.64,-412.61 180.08,-413.54 181.56,-414.43"/>
<polygon fill="#63b8ff" stroke="#63b8ff" points="179.92,-417.52 190.42,-418.87 183.05,-411.26 179.92,-417.52"/>
</a>
</g>
</g>
<!-- Node5 -->
<g id="Node000005" class="node">
<title>Node5</title>
<g id="a_Node000005"><a xlink:href="CarlaPluginLV2_8cpp.html#ac8985bebb8126009c76a60cb5b017241" target="_top" xlink:title=" ">
<polygon fill="white" stroke="#666666" points="295.25,-402.25 218.5,-402.25 218.5,-383 295.25,-383 295.25,-402.25"/>
<text xml:space="preserve" text-anchor="middle" x="256.88" y="-388.75" font-family="Helvetica,sans-Serif" font-size="10.00">initAtomForge</text>
</a>
</g>
</g>
<!-- Node1&#45;&gt;Node5 -->
<g id="edge4_Node000001_Node000005" class="edge">
<title>Node1&#45;&gt;Node5</title>
<g id="a_edge4_Node000001_Node000005"><a xlink:title=" ">
<path fill="none" stroke="#63b8ff" d="M79.71,-260.27C94.88,-287.96 130.34,-345.43 177.25,-374.62 186.24,-380.22 196.79,-384.08 207.18,-386.75"/>
<polygon fill="#63b8ff" stroke="#63b8ff" points="206.32,-390.14 216.83,-388.86 207.82,-383.3 206.32,-390.14"/>
</a>
</g>
</g>
<!-- Node7 -->
<g id="Node000007" class="node">
<title>Node7</title>
<g id="a_Node000007"><a xlink:href="group__forge.html#ga226d076fa415fe84c6ca92a81b7f7738" target="_top" xlink:title=" ">
<polygon fill="white" stroke="#666666" points="309.88,-180.25 203.88,-180.25 203.88,-161 309.88,-161 309.88,-180.25"/>
<text xml:space="preserve" text-anchor="middle" x="256.88" y="-166.75" font-family="Helvetica,sans-Serif" font-size="10.00">lv2_atom_forge_bool</text>
</a>
</g>
</g>
<!-- Node1&#45;&gt;Node7 -->
<g id="edge6_Node000001_Node000007" class="edge">
<title>Node1&#45;&gt;Node7</title>
<g id="a_edge6_Node000001_Node000007"><a xlink:title=" ">
<path fill="none" stroke="#63b8ff" d="M96.37,-229.11C117.24,-216.61 148.27,-199.41 177.25,-188.62 182.24,-186.77 187.48,-185.07 192.78,-183.52"/>
<polygon fill="#63b8ff" stroke="#63b8ff" points="193.52,-186.94 202.25,-180.94 191.68,-180.19 193.52,-186.94"/>
</a>
</g>
</g>
<!-- Node15 -->
<g id="Node000015" class="node">
<title>Node15</title>
<g id="a_Node000015"><a xlink:href="group__forge.html#ga7f0533978a1972197362b692a4e25c13" target="_top" xlink:title=" ">
<polygon fill="white" stroke="#666666" points="315.12,-365.25 198.62,-365.25 198.62,-346 315.12,-346 315.12,-365.25"/>
<text xml:space="preserve" text-anchor="middle" x="256.88" y="-351.75" font-family="Helvetica,sans-Serif" font-size="10.00">lv2_atom_forge_double</text>
</a>
</g>
</g>
<!-- Node1&#45;&gt;Node15 -->
<g id="edge12_Node000001_Node000015" class="edge">
<title>Node1&#45;&gt;Node15</title>
<g id="a_edge12_Node000001_Node000015"><a xlink:title=" ">
<path fill="none" stroke="#63b8ff" d="M84.6,-260.09C103,-281 138.76,-317.91 177.25,-337.62 180.55,-339.32 184.01,-340.85 187.57,-342.24"/>
<polygon fill="#63b8ff" stroke="#63b8ff" points="186.4,-345.54 196.99,-345.51 188.69,-338.93 186.4,-345.54"/>
</a>
</g>
</g>
<!-- Node16 -->
<g id="Node000016" class="node">
<title>Node16</title>
<g id="a_Node000016"><a xlink:href="group__forge.html#gae97e8dff794cbd1e12202e3eddbaff6d" target="_top" xlink:title=" ">
<polygon fill="white" stroke="#666666" points="309.88,-328.25 203.88,-328.25 203.88,-309 309.88,-309 309.88,-328.25"/>
<text xml:space="preserve" text-anchor="middle" x="256.88" y="-314.75" font-family="Helvetica,sans-Serif" font-size="10.00">lv2_atom_forge_float</text>
</a>
</g>
</g>
<!-- Node1&#45;&gt;Node16 -->
<g id="edge14_Node000001_Node000016" class="edge">
<title>Node1&#45;&gt;Node16</title>
<g id="a_edge14_Node000001_Node000016"><a xlink:title=" ">
<path fill="none" stroke="#63b8ff" d="M96.37,-260.14C117.24,-272.64 148.27,-289.84 177.25,-300.62 182.24,-302.48 187.48,-304.18 192.78,-305.73"/>
<polygon fill="#63b8ff" stroke="#63b8ff" points="191.68,-309.06 202.25,-308.31 193.52,-302.31 191.68,-309.06"/>
</a>
</g>
</g>
<!-- Node17 -->
<g id="Node000017" class="node">
<title>Node17</title>
<g id="a_Node000017"><a xlink:href="group__forge.html#ga11a8911957f5caf277f0ed1156fda4a0" target="_top" xlink:title=" ">
<polygon fill="white" stroke="#666666" points="306.12,-291.25 207.62,-291.25 207.62,-272 306.12,-272 306.12,-291.25"/>
<text xml:space="preserve" text-anchor="middle" x="256.88" y="-277.75" font-family="Helvetica,sans-Serif" font-size="10.00">lv2_atom_forge_int</text>
</a>
</g>
</g>
<!-- Node1&#45;&gt;Node17 -->
<g id="edge16_Node000001_Node000017" class="edge">
<title>Node1&#45;&gt;Node17</title>
<g id="a_edge16_Node000001_Node000017"><a xlink:title=" ">
<path fill="none" stroke="#63b8ff" d="M141.54,-258.67C159.5,-262.27 178.65,-266.12 196.04,-269.61"/>
<polygon fill="#63b8ff" stroke="#63b8ff" points="195.21,-273.01 205.71,-271.55 196.59,-266.15 195.21,-273.01"/>
</a>
</g>
</g>
<!-- Node18 -->
<g id="Node000018" class="node">
<title>Node18</title>
<g id="a_Node000018"><a xlink:href="group__forge.html#gac08676ed8b00e873621bbb724159bc2c" target="_top" xlink:title=" ">
<polygon fill="white" stroke="#666666" points="486.38,-105.25 383.38,-105.25 383.38,-86 486.38,-86 486.38,-105.25"/>
<text xml:space="preserve" text-anchor="middle" x="434.88" y="-91.75" font-family="Helvetica,sans-Serif" font-size="10.00">lv2_atom_forge_key</text>
</a>
</g>
</g>
<!-- Node1&#45;&gt;Node18 -->
<g id="edge18_Node000001_Node000018" class="edge">
<title>Node1&#45;&gt;Node18</title>
<g id="a_edge18_Node000001_Node000018"><a xlink:title=" ">
<path fill="none" stroke="#63b8ff" d="M78.85,-229.16C93.09,-200.67 127.76,-140.47 177.25,-114.62 237.7,-83.06 317.3,-82.38 371.72,-86.98"/>
<polygon fill="#63b8ff" stroke="#63b8ff" points="371.14,-90.44 381.43,-87.89 371.8,-83.47 371.14,-90.44"/>
</a>
</g>
</g>
<!-- Node19 -->
<g id="Node000019" class="node">
<title>Node19</title>
<g id="a_Node000019"><a xlink:href="group__forge.html#ga4d85561ef1b6f91b2d5e65f0efc3cbf0" target="_top" xlink:title=" ">
<polygon fill="white" stroke="#666666" points="309.88,-254.25 203.88,-254.25 203.88,-235 309.88,-235 309.88,-254.25"/>
<text xml:space="preserve" text-anchor="middle" x="256.88" y="-240.75" font-family="Helvetica,sans-Serif" font-size="10.00">lv2_atom_forge_long</text>
</a>
</g>
</g>
<!-- Node1&#45;&gt;Node19 -->
<g id="edge20_Node000001_Node000019" class="edge">
<title>Node1&#45;&gt;Node19</title>
<g id="a_edge20_Node000001_Node000019"><a xlink:title=" ">
<path fill="none" stroke="#63b8ff" d="M141.54,-244.62C158.25,-244.62 176,-244.62 192.4,-244.62"/>
<polygon fill="#63b8ff" stroke="#63b8ff" points="191.99,-248.13 201.99,-244.63 191.99,-241.13 191.99,-248.13"/>
</a>
</g>
</g>
<!-- Node20 -->
<g id="Node000020" class="node">
<title>Node20</title>
<g id="a_Node000020"><a xlink:href="group__forge.html#gaf7a97fac49324f999ef540c0a6ed8907" target="_top" xlink:title=" ">
<polygon fill="white" stroke="#666666" points="314,-143.25 199.75,-143.25 199.75,-124 314,-124 314,-143.25"/>
<text xml:space="preserve" text-anchor="middle" x="256.88" y="-129.75" font-family="Helvetica,sans-Serif" font-size="10.00">lv2_atom_forge_object</text>
</a>
</g>
</g>
<!-- Node1&#45;&gt;Node20 -->
<g id="edge22_Node000001_Node000020" class="edge">
<title>Node1&#45;&gt;Node20</title>
<g id="a_edge22_Node000001_Node000020"><a xlink:title=" ">
<path fill="none" stroke="#63b8ff" d="M84.6,-229.16C103,-208.25 138.76,-171.34 177.25,-151.62 180.89,-149.76 184.73,-148.08 188.66,-146.58"/>
<polygon fill="#63b8ff" stroke="#63b8ff" points="189.47,-150 197.82,-143.48 187.23,-143.37 189.47,-150"/>
</a>
</g>
</g>
<!-- Node22 -->
<g id="Node000022" class="node">
<title>Node22</title>
<g id="a_Node000022"><a xlink:href="group__forge.html#ga7fcc0de4440ca566c1a4199fdedb6819" target="_top" xlink:title=" ">
<polygon fill="white" stroke="#666666" points="308.75,-19.25 205,-19.25 205,0 308.75,0 308.75,-19.25"/>
<text xml:space="preserve" text-anchor="middle" x="256.88" y="-5.75" font-family="Helvetica,sans-Serif" font-size="10.00">lv2_atom_forge_pop</text>
</a>
</g>
</g>
<!-- Node1&#45;&gt;Node22 -->
<g id="edge25_Node000001_Node000022" class="edge">
<title>Node1&#45;&gt;Node22</title>
<g id="a_edge25_Node000001_Node000022"><a xlink:title=" ">
<path fill="none" stroke="#63b8ff" d="M74.53,-229C82.8,-189 110.36,-82.33 177.25,-28.62 182.3,-24.57 188.08,-21.36 194.17,-18.82"/>
<polygon fill="#63b8ff" stroke="#63b8ff" points="194.92,-22.27 203.2,-15.65 192.61,-15.66 194.92,-22.27"/>
</a>
</g>
</g>
<!-- Node24 -->
<g id="Node000024" class="node">
<title>Node24</title>
<g id="a_Node000024"><a xlink:href="group__forge.html#gaa3acc6d834553b8f7d62b447163d5fa4" target="_top" xlink:title=" ">
<polygon fill="white" stroke="#666666" points="307.62,-67.88 206.12,-67.88 206.12,-37.38 307.62,-37.38 307.62,-67.88"/>
<text xml:space="preserve" text-anchor="start" x="214.12" y="-54.38" font-family="Helvetica,sans-Serif" font-size="10.00">lv2_atom_forge_set</text>
<text xml:space="preserve" text-anchor="middle" x="256.88" y="-43.12" font-family="Helvetica,sans-Serif" font-size="10.00">_buffer</text>
</a>
</g>
</g>
<!-- Node1&#45;&gt;Node24 -->
<g id="edge27_Node000001_Node000024" class="edge">
<title>Node1&#45;&gt;Node24</title>
<g id="a_edge27_Node000001_Node000024"><a xlink:title=" ">
<path fill="none" stroke="#63b8ff" d="M77.6,-229.25C90.79,-197.27 125.37,-123.12 177.25,-81.62 182.77,-77.21 189.02,-73.43 195.53,-70.2"/>
<polygon fill="#63b8ff" stroke="#63b8ff" points="196.83,-73.45 204.53,-66.18 193.97,-67.06 196.83,-73.45"/>
</a>
</g>
</g>
<!-- Node25 -->
<g id="Node000025" class="node">
<title>Node25</title>
<g id="a_Node000025"><a xlink:href="group__forge.html#ga6cccf9dabe079506add027ec0d6c0fed" target="_top" xlink:title=" ">
<polygon fill="white" stroke="#666666" points="308.75,-217.25 205,-217.25 205,-198 308.75,-198 308.75,-217.25"/>
<text xml:space="preserve" text-anchor="middle" x="256.88" y="-203.75" font-family="Helvetica,sans-Serif" font-size="10.00">lv2_atom_forge_urid</text>
</a>
</g>
</g>
<!-- Node1&#45;&gt;Node25 -->
<g id="edge28_Node000001_Node000025" class="edge">
<title>Node1&#45;&gt;Node25</title>
<g id="a_edge28_Node000001_Node000025"><a xlink:title=" ">
<path fill="none" stroke="#63b8ff" d="M141.54,-230.58C159,-227.08 177.58,-223.35 194.58,-219.93"/>
<polygon fill="#63b8ff" stroke="#63b8ff" points="194.9,-223.44 204.01,-218.04 193.52,-216.58 194.9,-223.44"/>
</a>
</g>
</g>
<!-- Node3 -->
<g id="Node000003" class="node">
<title>Node3</title>
<g id="a_Node000003"><a xlink:href="CarlaUtils_8hpp.html#a72c98b79b4bafee47a1e9249e83368f3" target="_top" xlink:title=" ">
<polygon fill="white" stroke="#666666" points="473.25,-476.25 396.5,-476.25 396.5,-457 473.25,-457 473.25,-476.25"/>
<text xml:space="preserve" text-anchor="middle" x="434.88" y="-462.75" font-family="Helvetica,sans-Serif" font-size="10.00">__carla_fopen</text>
</a>
</g>
</g>
<!-- Node2&#45;&gt;Node3 -->
<g id="edge2_Node000002_Node000003" class="edge">
<title>Node2&#45;&gt;Node3</title>
<g id="a_edge2_Node000002_Node000003"><a xlink:title=" ">
<path fill="none" stroke="#63b8ff" d="M293.49,-466.62C319.83,-466.62 356.01,-466.62 385.04,-466.62"/>
<polygon fill="#63b8ff" stroke="#63b8ff" points="384.67,-470.13 394.67,-466.63 384.67,-463.13 384.67,-470.13"/>
</a>
</g>
</g>
<!-- Node6 -->
<g id="Node000006" class="node">
<title>Node6</title>
<g id="a_Node000006"><a xlink:href="CarlaUtils_8hpp.html#a854f1ba7444a257e77d0821582d10281" target="_top" xlink:title=" ">
<polygon fill="white" stroke="#666666" points="478.12,-402.25 391.62,-402.25 391.62,-383 478.12,-383 478.12,-402.25"/>
<text xml:space="preserve" text-anchor="middle" x="434.88" y="-388.75" font-family="Helvetica,sans-Serif" font-size="10.00">carla_zeroStruct</text>
</a>
</g>
</g>
<!-- Node5&#45;&gt;Node6 -->
<g id="edge5_Node000005_Node000006" class="edge">
<title>Node5&#45;&gt;Node6</title>
<g id="a_edge5_Node000005_Node000006"><a xlink:title=" ">
<path fill="none" stroke="#63b8ff" d="M295.63,-392.62C320.2,-392.62 352.63,-392.62 379.9,-392.62"/>
<polygon fill="#63b8ff" stroke="#63b8ff" points="379.72,-396.13 389.72,-392.63 379.72,-389.13 379.72,-396.13"/>
</a>
</g>
</g>
<!-- Node8 -->
<g id="Node000008" class="node">
<title>Node8</title>
<g id="a_Node000008"><a xlink:href="group__forge.html#ga674fc19297102974ecc5940fdf7704e6" target="_top" xlink:title=" ">
<polygon fill="white" stroke="#666666" points="497.25,-254.25 372.5,-254.25 372.5,-235 497.25,-235 497.25,-254.25"/>
<text xml:space="preserve" text-anchor="middle" x="434.88" y="-240.75" font-family="Helvetica,sans-Serif" font-size="10.00">lv2_atom_forge_primitive</text>
</a>
</g>
</g>
<!-- Node7&#45;&gt;Node8 -->
<g id="edge7_Node000007_Node000008" class="edge">
<title>Node7&#45;&gt;Node8</title>
<g id="a_edge7_Node000007_Node000008"><a xlink:title=" ">
<path fill="none" stroke="#63b8ff" d="M310.13,-180.29C319.07,-182.6 328.16,-185.36 336.5,-188.62 363.13,-199.06 391.2,-215.91 410.33,-228.41"/>
<polygon fill="#63b8ff" stroke="#63b8ff" points="408.19,-231.19 418.45,-233.82 412.07,-225.37 408.19,-231.19"/>
</a>
</g>
</g>
<!-- Node9 -->
<g id="Node000009" class="node">
<title>Node9</title>
<g id="a_Node000009"><a xlink:href="group__forge.html#ga57a521ab2048dc849f2958969975c40c" target="_top" xlink:title=" ">
<polygon fill="#fff0f0" stroke="red" points="787.25,-199.25 683.5,-199.25 683.5,-180 787.25,-180 787.25,-199.25"/>
<text xml:space="preserve" text-anchor="middle" x="735.38" y="-185.75" font-family="Helvetica,sans-Serif" font-size="10.00">lv2_atom_forge_raw</text>
</a>
</g>
</g>
<!-- Node8&#45;&gt;Node9 -->
<g id="edge8_Node000008_Node000009" class="edge">
<title>Node8&#45;&gt;Node9</title>
<g id="a_edge8_Node000008_Node000009"><a xlink:title=" ">
<path fill="none" stroke="#63b8ff" d="M490.62,-234.54C542.01,-225.07 618.77,-210.92 672.39,-201.05"/>
<polygon fill="#63b8ff" stroke="#63b8ff" points="672.77,-204.54 681.97,-199.28 671.5,-197.65 672.77,-204.54"/>
</a>
</g>
</g>
<!-- Node11 -->
<g id="Node000011" class="node">
<title>Node11</title>
<g id="a_Node000011"><a xlink:href="group__forge.html#ga676fb26bff334dc0368518d3140248ca" target="_top" xlink:title=" ">
<polygon fill="#fff0f0" stroke="red" points="647.5,-256.25 533.25,-256.25 533.25,-237 647.5,-237 647.5,-256.25"/>
<text xml:space="preserve" text-anchor="middle" x="590.38" y="-242.75" font-family="Helvetica,sans-Serif" font-size="10.00">lv2_atom_forge_top_is</text>
</a>
</g>
</g>
<!-- Node8&#45;&gt;Node11 -->
<g id="edge9_Node000008_Node000011" class="edge">
<title>Node8&#45;&gt;Node11</title>
<g id="a_edge9_Node000008_Node000011"><a xlink:title=" ">
<path fill="none" stroke="#63b8ff" d="M497.42,-245.43C505.27,-245.53 513.34,-245.63 521.28,-245.74"/>
<polygon fill="#63b8ff" stroke="#63b8ff" points="521.22,-249.24 531.27,-245.87 521.32,-242.24 521.22,-249.24"/>
</a>
</g>
</g>
<!-- Node12 -->
<g id="Node000012" class="node">
<title>Node12</title>
<g id="a_Node000012"><a xlink:href="group__forge.html#ga7e7571d6c9e5b4b2b041ab6b08707956" target="_top" xlink:title=" ">
<polygon fill="#fff0f0" stroke="red" points="644.88,-180.25 535.88,-180.25 535.88,-161 644.88,-161 644.88,-180.25"/>
<text xml:space="preserve" text-anchor="middle" x="590.38" y="-166.75" font-family="Helvetica,sans-Serif" font-size="10.00">lv2_atom_forge_write</text>
</a>
</g>
</g>
<!-- Node8&#45;&gt;Node12 -->
<g id="edge10_Node000008_Node000012" class="edge">
<title>Node8&#45;&gt;Node12</title>
<g id="a_edge10_Node000008_Node000012"><a xlink:title=" ">
<path fill="none" stroke="#63b8ff" d="M454.35,-234.65C473.79,-224.26 505.39,-207.72 533.25,-194.62 540.15,-191.39 547.59,-188.07 554.74,-184.98"/>
<polygon fill="#63b8ff" stroke="#63b8ff" points="555.68,-188.39 563.51,-181.24 552.93,-181.95 555.68,-188.39"/>
</a>
</g>
</g>
<!-- Node12&#45;&gt;Node9 -->
<g id="edge11_Node000012_Node000009" class="edge">
<title>Node12&#45;&gt;Node9</title>
<g id="a_edge11_Node000012_Node000009"><a xlink:title=" ">
<path fill="none" stroke="#63b8ff" d="M645.03,-177.75C653.83,-178.92 663.02,-180.14 672.02,-181.34"/>
<polygon fill="#63b8ff" stroke="#63b8ff" points="671.39,-184.79 681.76,-182.63 672.31,-177.85 671.39,-184.79"/>
</a>
</g>
</g>
<!-- Node15&#45;&gt;Node8 -->
<g id="edge13_Node000015_Node000008" class="edge">
<title>Node15&#45;&gt;Node8</title>
<g id="a_edge13_Node000015_Node000008"><a xlink:title=" ">
<path fill="none" stroke="#63b8ff" d="M315.46,-346.26C322.77,-343.97 329.96,-341.14 336.5,-337.62 371.13,-318.99 402.3,-284.68 419.6,-263.35"/>
<polygon fill="#63b8ff" stroke="#63b8ff" points="422.15,-265.77 425.6,-255.75 416.65,-261.43 422.15,-265.77"/>
</a>
</g>
</g>
<!-- Node16&#45;&gt;Node8 -->
<g id="edge15_Node000016_Node000008" class="edge">
<title>Node16&#45;&gt;Node8</title>
<g id="a_edge15_Node000016_Node000008"><a xlink:title=" ">
<path fill="none" stroke="#63b8ff" d="M310.13,-308.96C319.07,-306.65 328.16,-303.89 336.5,-300.62 363.13,-290.19 391.2,-273.34 410.33,-260.84"/>
<polygon fill="#63b8ff" stroke="#63b8ff" points="412.07,-263.88 418.45,-255.43 408.19,-258.06 412.07,-263.88"/>
</a>
</g>
</g>
<!-- Node17&#45;&gt;Node8 -->
<g id="edge17_Node000017_Node000008" class="edge">
<title>Node17&#45;&gt;Node8</title>
<g id="a_edge17_Node000017_Node000008"><a xlink:title=" ">
<path fill="none" stroke="#63b8ff" d="M305.97,-271.51C327.21,-267.05 352.39,-261.75 374.77,-257.05"/>
<polygon fill="#63b8ff" stroke="#63b8ff" points="375.29,-260.52 384.36,-255.03 373.85,-253.67 375.29,-260.52"/>
</a>
</g>
</g>
<!-- Node18&#45;&gt;Node12 -->
<g id="edge19_Node000018_Node000012" class="edge">
<title>Node18&#45;&gt;Node12</title>
<g id="a_edge19_Node000018_Node000012"><a xlink:title=" ">
<path fill="none" stroke="#63b8ff" d="M476.06,-105.72C483.24,-108 490.56,-110.64 497.25,-113.62 522.21,-124.76 548.51,-141.62 566.59,-154.11"/>
<polygon fill="#63b8ff" stroke="#63b8ff" points="564.54,-156.95 574.74,-159.84 568.57,-151.23 564.54,-156.95"/>
</a>
</g>
</g>
<!-- Node19&#45;&gt;Node8 -->
<g id="edge21_Node000019_Node000008" class="edge">
<title>Node19&#45;&gt;Node8</title>
<g id="a_edge21_Node000019_Node000008"><a xlink:title=" ">
<path fill="none" stroke="#63b8ff" d="M310.2,-244.62C326.16,-244.62 344.01,-244.62 361.06,-244.62"/>
<polygon fill="#63b8ff" stroke="#63b8ff" points="360.62,-248.13 370.62,-244.63 360.62,-241.13 360.62,-248.13"/>
</a>
</g>
</g>
<!-- Node20&#45;&gt;Node12 -->
<g id="edge24_Node000020_Node000012" class="edge">
<title>Node20&#45;&gt;Node12</title>
<g id="a_edge24_Node000020_Node000012"><a xlink:title=" ">
<path fill="none" stroke="#63b8ff" d="M314.32,-143.27C332.82,-146.23 353.5,-149.3 372.5,-151.62 423.36,-157.84 481.18,-162.8 524.31,-166.09"/>
<polygon fill="#63b8ff" stroke="#63b8ff" points="524.05,-169.58 534.28,-166.84 524.57,-162.6 524.05,-169.58"/>
</a>
</g>
</g>
<!-- Node21 -->
<g id="Node000021" class="node">
<title>Node21</title>
<g id="a_Node000021"><a xlink:href="group__forge.html#ga0614723db5b4995426e63ec60b5e583f" target="_top" xlink:title=" ">
<polygon fill="white" stroke="#666666" points="489.38,-142.25 380.38,-142.25 380.38,-123 489.38,-123 489.38,-142.25"/>
<text xml:space="preserve" text-anchor="middle" x="434.88" y="-128.75" font-family="Helvetica,sans-Serif" font-size="10.00">lv2_atom_forge_push</text>
</a>
</g>
</g>
<!-- Node20&#45;&gt;Node21 -->
<g id="edge23_Node000020_Node000021" class="edge">
<title>Node20&#45;&gt;Node21</title>
<g id="a_edge23_Node000020_Node000021"><a xlink:title=" ">
<path fill="none" stroke="#63b8ff" d="M314.05,-133.31C331.46,-133.21 350.79,-133.1 368.76,-132.99"/>
<polygon fill="#63b8ff" stroke="#63b8ff" points="368.54,-136.5 378.52,-132.94 368.5,-129.5 368.54,-136.5"/>
</a>
</g>
</g>
<!-- Node23 -->
<g id="Node000023" class="node">
<title>Node23</title>
<g id="a_Node000023"><a xlink:href="Spc__Cpu_8h.html#a2569713fe026f7b153bba6e89d64498f" target="_top" xlink:title=" ">
<polygon fill="white" stroke="#666666" points="456.38,-19.25 413.38,-19.25 413.38,0 456.38,0 456.38,-19.25"/>
<text xml:space="preserve" text-anchor="middle" x="434.88" y="-5.75" font-family="Helvetica,sans-Serif" font-size="10.00">assert</text>
</a>
</g>
</g>
<!-- Node22&#45;&gt;Node23 -->
<g id="edge26_Node000022_Node000023" class="edge">
<title>Node22&#45;&gt;Node23</title>
<g id="a_edge26_Node000022_Node000023"><a xlink:title=" ">
<path fill="none" stroke="#63b8ff" d="M308.78,-9.62C338.76,-9.62 375.76,-9.62 401.71,-9.62"/>
<polygon fill="#63b8ff" stroke="#63b8ff" points="401.63,-13.13 411.63,-9.63 401.63,-6.13 401.63,-13.13"/>
</a>
</g>
</g>
<!-- Node25&#45;&gt;Node8 -->
<g id="edge29_Node000025_Node000008" class="edge">
<title>Node25&#45;&gt;Node8</title>
<g id="a_edge29_Node000025_Node000008"><a xlink:title=" ">
<path fill="none" stroke="#63b8ff" d="M305.97,-217.74C327.21,-222.2 352.39,-227.5 374.77,-232.2"/>
<polygon fill="#63b8ff" stroke="#63b8ff" points="373.85,-235.58 384.36,-234.22 375.29,-228.73 373.85,-235.58"/>
</a>
</g>
</g>
</g>
</svg>
