<?xml version="1.0" encoding="UTF-8" standalone="no"?>
<!DOCTYPE svg PUBLIC "-//W3C//DTD SVG 1.1//EN"
 "http://www.w3.org/Graphics/SVG/1.1/DTD/svg11.dtd">
<!-- Generated by graphviz version 14.0.2 (0)
 -->
<!-- Title: CarlaEngineJackEventPort::setMetaData Pages: 1 -->
<svg width="847pt" height="347pt"
 viewBox="0.00 0.00 847.00 347.00" xmlns="http://www.w3.org/2000/svg" xmlns:xlink="http://www.w3.org/1999/xlink">
<g id="graph0" class="graph" transform="scale(1 1) rotate(0) translate(4 343.02)">
<title>CarlaEngineJackEventPort::setMetaData</title>
<!-- Node1 -->
<g id="Node000001" class="node">
<title>Node1</title>
<g id="a_Node000001"><a xlink:title=" ">
<polygon fill="#999999" stroke="#666666" points="131.5,-199.64 0,-199.64 0,-169.14 131.5,-169.14 131.5,-199.64"/>
<text xml:space="preserve" text-anchor="start" x="8" y="-186.14" font-family="Helvetica,sans-Serif" font-size="10.00">CarlaEngineJackEventPort</text>
<text xml:space="preserve" text-anchor="middle" x="65.75" y="-174.89" font-family="Helvetica,sans-Serif" font-size="10.00">::setMetaData</text>
</a>
</g>
</g>
<!-- Node2 -->
<g id="Node000002" class="node">
<title>Node2</title>
<g id="a_Node000002"><a xlink:href="JackBridgeExport_8cpp.html#a1f945aa027ae1e98b426f75eb56f6e4b" target="_top" xlink:title=" ">
<polygon fill="white" stroke="#666666" points="293,-231.02 187.75,-231.02 187.75,-211.77 293,-211.77 293,-231.02"/>
<text xml:space="preserve" text-anchor="middle" x="240.38" y="-217.52" font-family="Helvetica,sans-Serif" font-size="10.00">jackbridge_port_uuid</text>
</a>
</g>
</g>
<!-- Node1&#45;&gt;Node2 -->
<g id="edge1_Node000001_Node000002" class="edge">
<title>Node1&#45;&gt;Node2</title>
<g id="a_edge1_Node000001_Node000002"><a xlink:title=" ">
<path fill="none" stroke="#63b8ff" d="M131.52,-198.28C147.92,-201.79 165.43,-205.55 181.47,-208.98"/>
<polygon fill="#63b8ff" stroke="#63b8ff" points="180.31,-212.32 190.83,-210.99 181.78,-205.47 180.31,-212.32"/>
</a>
</g>
</g>
<!-- Node16 -->
<g id="Node000016" class="node">
<title>Node16</title>
<g id="a_Node000016"><a xlink:href="JackBridgeExport_8cpp.html#a33f999734875cb9b55b3d0c7e14b7230" target="_top" xlink:title=" ">
<polygon fill="white" stroke="#666666" points="299.75,-194.02 181,-194.02 181,-174.77 299.75,-174.77 299.75,-194.02"/>
<text xml:space="preserve" text-anchor="middle" x="240.38" y="-180.52" font-family="Helvetica,sans-Serif" font-size="10.00">jackbridge_set_property</text>
</a>
</g>
</g>
<!-- Node1&#45;&gt;Node16 -->
<g id="edge9_Node000001_Node000016" class="edge">
<title>Node1&#45;&gt;Node16</title>
<g id="a_edge9_Node000001_Node000016"><a xlink:title=" ">
<path fill="none" stroke="#63b8ff" d="M131.52,-184.39C143.83,-184.39 156.76,-184.39 169.22,-184.39"/>
<polygon fill="#63b8ff" stroke="#63b8ff" points="168.99,-187.9 178.99,-184.39 168.99,-180.9 168.99,-187.9"/>
</a>
</g>
</g>
<!-- Node30 -->
<g id="Node000030" class="node">
<title>Node30</title>
<g id="a_Node000030"><a xlink:href="classCarlaEnginePort.html#aad9aa5d03933fce61f1ab124745571f6" target="_top" xlink:title=" ">
<polygon fill="white" stroke="#666666" points="313.25,-157.02 167.5,-157.02 167.5,-137.77 313.25,-137.77 313.25,-157.02"/>
<text xml:space="preserve" text-anchor="middle" x="240.38" y="-143.52" font-family="Helvetica,sans-Serif" font-size="10.00">CarlaEnginePort::setMetaData</text>
</a>
</g>
</g>
<!-- Node1&#45;&gt;Node30 -->
<g id="edge23_Node000001_Node000030" class="edge">
<title>Node1&#45;&gt;Node30</title>
<g id="a_edge23_Node000001_Node000030"><a xlink:title=" ">
<path fill="none" stroke="#63b8ff" d="M131.52,-170.51C147.92,-167 165.43,-163.24 181.47,-159.81"/>
<polygon fill="#63b8ff" stroke="#63b8ff" points="181.78,-163.32 190.83,-157.8 180.31,-156.47 181.78,-163.32"/>
</a>
</g>
</g>
<!-- Node3 -->
<g id="Node000003" class="node">
<title>Node3</title>
<g id="a_Node000003"><a xlink:href="JackBridge1_8cpp.html#a6b2147f1b721f3b08c283a1cd897ee12" target="_top" xlink:title=" ">
<polygon fill="white" stroke="#666666" points="444,-231.02 349.25,-231.02 349.25,-211.77 444,-211.77 444,-231.02"/>
<text xml:space="preserve" text-anchor="middle" x="396.62" y="-217.52" font-family="Helvetica,sans-Serif" font-size="10.00">getBridgeInstance</text>
</a>
</g>
</g>
<!-- Node2&#45;&gt;Node3 -->
<g id="edge2_Node000002_Node000003" class="edge">
<title>Node2&#45;&gt;Node3</title>
<g id="a_edge2_Node000002_Node000003"><a xlink:title=" ">
<path fill="none" stroke="#63b8ff" d="M293.17,-221.39C307.39,-221.39 322.91,-221.39 337.47,-221.39"/>
<polygon fill="#63b8ff" stroke="#63b8ff" points="337.38,-224.9 347.38,-221.39 337.38,-217.9 337.38,-224.9"/>
</a>
</g>
</g>
<!-- Node4 -->
<g id="Node000004" class="node">
<title>Node4</title>
<g id="a_Node000004"><a xlink:href="JackBridgeExport_8cpp.html#adee3844cf738d3cb8a9a94adf3ddb4af" target="_top" xlink:title=" ">
<polygon fill="white" stroke="#666666" points="444,-194.02 349.25,-194.02 349.25,-174.77 444,-174.77 444,-194.02"/>
<text xml:space="preserve" text-anchor="middle" x="396.62" y="-180.52" font-family="Helvetica,sans-Serif" font-size="10.00">getBridgeInstance</text>
</a>
</g>
</g>
<!-- Node2&#45;&gt;Node4 -->
<g id="edge3_Node000002_Node000004" class="edge">
<title>Node2&#45;&gt;Node4</title>
<g id="a_edge3_Node000002_Node000004"><a xlink:title=" ">
<path fill="none" stroke="#63b8ff" d="M283.52,-211.28C301.72,-206.92 323.21,-201.77 342.48,-197.14"/>
<polygon fill="#63b8ff" stroke="#63b8ff" points="343.15,-200.58 352.05,-194.85 341.51,-193.78 343.15,-200.58"/>
</a>
</g>
</g>
<!-- Node12 -->
<g id="Node000012" class="node">
<title>Node12</title>
<g id="a_Node000012"><a xlink:href="group__PortFunctions.html#gae563c918af166e1285b8d2811199c302" target="_top" xlink:title=" ">
<polygon fill="white" stroke="#666666" points="436.12,-280.02 357.12,-280.02 357.12,-260.77 436.12,-260.77 436.12,-280.02"/>
<text xml:space="preserve" text-anchor="middle" x="396.62" y="-266.52" font-family="Helvetica,sans-Serif" font-size="10.00">jack_port_uuid</text>
</a>
</g>
</g>
<!-- Node2&#45;&gt;Node12 -->
<g id="edge5_Node000002_Node000012" class="edge">
<title>Node2&#45;&gt;Node12</title>
<g id="a_edge5_Node000002_Node000012"><a xlink:title=" ">
<path fill="none" stroke="#63b8ff" d="M272.96,-231.43C296.07,-238.77 327.68,-248.81 353.02,-256.86"/>
<polygon fill="#63b8ff" stroke="#63b8ff" points="351.78,-260.14 362.37,-259.83 353.9,-253.47 351.78,-260.14"/>
</a>
</g>
</g>
<!-- Node5 -->
<g id="Node000005" class="node">
<title>Node5</title>
<g id="a_Node000005"><a xlink:href="classJackBridgeExported.html#ae11f0182cc8fe081b82562b64dcf2dc9" target="_top" xlink:title=" ">
<polygon fill="#fff0f0" stroke="red" points="592,-215.64 489.75,-215.64 489.75,-185.14 592,-185.14 592,-215.64"/>
<text xml:space="preserve" text-anchor="start" x="497.75" y="-202.14" font-family="Helvetica,sans-Serif" font-size="10.00">JackBridgeExported</text>
<text xml:space="preserve" text-anchor="middle" x="540.88" y="-190.89" font-family="Helvetica,sans-Serif" font-size="10.00">::getFunctions</text>
</a>
</g>
</g>
<!-- Node4&#45;&gt;Node5 -->
<g id="edge4_Node000004_Node000005" class="edge">
<title>Node4&#45;&gt;Node5</title>
<g id="a_edge4_Node000004_Node000005"><a xlink:title=" ">
<path fill="none" stroke="#63b8ff" d="M444.2,-189.63C455.02,-190.85 466.7,-192.16 478.06,-193.44"/>
<polygon fill="#63b8ff" stroke="#63b8ff" points="477.43,-196.89 487.76,-194.53 478.22,-189.94 477.43,-196.89"/>
</a>
</g>
</g>
<!-- Node13 -->
<g id="Node000013" class="node">
<title>Node13</title>
<g id="a_Node000013"><a xlink:href="structJack_1_1JackGlobals.html#adf4bc0472a237936fd3c5a974c49ffbc" target="_top" xlink:title=" ">
<polygon fill="white" stroke="#666666" points="590.88,-264.64 490.88,-264.64 490.88,-234.14 590.88,-234.14 590.88,-264.64"/>
<text xml:space="preserve" text-anchor="start" x="498.88" y="-251.14" font-family="Helvetica,sans-Serif" font-size="10.00">Jack::JackGlobals::</text>
<text xml:space="preserve" text-anchor="middle" x="540.88" y="-239.89" font-family="Helvetica,sans-Serif" font-size="10.00">CheckContext</text>
</a>
</g>
</g>
<!-- Node12&#45;&gt;Node13 -->
<g id="edge6_Node000012_Node000013" class="edge">
<title>Node12&#45;&gt;Node13</title>
<g id="a_edge6_Node000012_Node000013"><a xlink:title=" ">
<path fill="none" stroke="#63b8ff" d="M436.5,-264.66C449.8,-262.69 465.02,-260.45 479.61,-258.29"/>
<polygon fill="#63b8ff" stroke="#63b8ff" points="479.73,-261.81 489.11,-256.89 478.71,-254.89 479.73,-261.81"/>
</a>
</g>
</g>
<!-- Node14 -->
<g id="Node000014" class="node">
<title>Node14</title>
<g id="a_Node000014"><a xlink:href="JackAPI_8cpp.html#aab334f0d73fb8e55246c76cddc770188" target="_top" xlink:title=" ">
<polygon fill="white" stroke="#666666" points="571.75,-302.02 510,-302.02 510,-282.77 571.75,-282.77 571.75,-302.02"/>
<text xml:space="preserve" text-anchor="middle" x="540.88" y="-288.52" font-family="Helvetica,sans-Serif" font-size="10.00">CheckPort</text>
</a>
</g>
</g>
<!-- Node12&#45;&gt;Node14 -->
<g id="edge7_Node000012_Node000014" class="edge">
<title>Node12&#45;&gt;Node14</title>
<g id="a_edge7_Node000012_Node000014"><a xlink:title=" ">
<path fill="none" stroke="#63b8ff" d="M436.5,-276.41C455.66,-279.37 478.79,-282.95 498.3,-285.97"/>
<polygon fill="#63b8ff" stroke="#63b8ff" points="497.71,-289.41 508.12,-287.48 498.78,-282.5 497.71,-289.41"/>
</a>
</g>
</g>
<!-- Node15 -->
<g id="Node000015" class="node">
<title>Node15</title>
<g id="a_Node000015"><a xlink:href="JackAPI_8cpp.html#a2ed6964927ec08825e530c943f057834" target="_top" xlink:title=" ">
<polygon fill="white" stroke="#666666" points="601.75,-339.02 480,-339.02 480,-319.77 601.75,-319.77 601.75,-339.02"/>
<text xml:space="preserve" text-anchor="middle" x="540.88" y="-325.52" font-family="Helvetica,sans-Serif" font-size="10.00">jack_port_uuid_generate</text>
</a>
</g>
</g>
<!-- Node12&#45;&gt;Node15 -->
<g id="edge8_Node000012_Node000015" class="edge">
<title>Node12&#45;&gt;Node15</title>
<g id="a_edge8_Node000012_Node000015"><a xlink:title=" ">
<path fill="none" stroke="#63b8ff" d="M415.54,-280.42C431.96,-289.34 457.13,-302.34 480,-311.39 483.86,-312.92 487.9,-314.4 491.99,-315.8"/>
<polygon fill="#63b8ff" stroke="#63b8ff" points="490.77,-319.08 501.37,-318.85 492.94,-312.43 490.77,-319.08"/>
</a>
</g>
</g>
<!-- Node16&#45;&gt;Node3 -->
<g id="edge14_Node000016_Node000003" class="edge">
<title>Node16&#45;&gt;Node3</title>
<g id="a_edge14_Node000016_Node000003"><a xlink:title=" ">
<path fill="none" stroke="#63b8ff" d="M283.52,-194.51C301.72,-198.87 323.21,-204.02 342.48,-208.65"/>
<polygon fill="#63b8ff" stroke="#63b8ff" points="341.51,-212.01 352.05,-210.94 343.15,-205.21 341.51,-212.01"/>
</a>
</g>
</g>
<!-- Node16&#45;&gt;Node4 -->
<g id="edge15_Node000016_Node000004" class="edge">
<title>Node16&#45;&gt;Node4</title>
<g id="a_edge15_Node000016_Node000004"><a xlink:title=" ">
<path fill="none" stroke="#63b8ff" d="M300.13,-184.39C312.39,-184.39 325.31,-184.39 337.54,-184.39"/>
<polygon fill="#63b8ff" stroke="#63b8ff" points="337.5,-187.9 347.5,-184.39 337.5,-180.9 337.5,-187.9"/>
</a>
</g>
</g>
<!-- Node17 -->
<g id="Node000017" class="node">
<title>Node17</title>
<g id="a_Node000017"><a xlink:href="testSem_8cpp.html#a5cbf99e8849f2e3ea613ea0a2df2f272" target="_top" xlink:title=" ">
<polygon fill="white" stroke="#666666" points="677,-81.02 637.75,-81.02 637.75,-61.77 677,-61.77 677,-81.02"/>
<text xml:space="preserve" text-anchor="middle" x="657.38" y="-67.52" font-family="Helvetica,sans-Serif" font-size="10.00">client</text>
</a>
</g>
</g>
<!-- Node16&#45;&gt;Node17 -->
<g id="edge10_Node000016_Node000017" class="edge">
<title>Node16&#45;&gt;Node17</title>
<g id="a_edge10_Node000016_Node000017"><a xlink:title=" ">
<path fill="none" stroke="#63b8ff" d="M299.34,-174.28C304.29,-172.13 309.01,-169.54 313.25,-166.39 338.23,-147.88 328.07,-129.17 349.25,-106.39 397.63,-54.36 412.26,-35.84 480,-14.39 531.59,1.94 551.98,6.84 601.75,-14.39 619.63,-22.03 634.47,-38.7 644.14,-52.05"/>
<polygon fill="#63b8ff" stroke="#63b8ff" points="641.14,-53.85 649.65,-60.16 646.93,-49.92 641.14,-53.85"/>
</a>
</g>
</g>
<!-- Node21 -->
<g id="Node000021" class="node">
<title>Node21</title>
<g id="a_Node000021"><a xlink:href="group__Metadata.html#gae93daaae3727ad7b38d1156261889652" target="_top" xlink:title=" ">
<polygon fill="white" stroke="#666666" points="442.88,-135.02 350.38,-135.02 350.38,-115.77 442.88,-115.77 442.88,-135.02"/>
<text xml:space="preserve" text-anchor="middle" x="396.62" y="-121.52" font-family="Helvetica,sans-Serif" font-size="10.00">jack_set_property</text>
</a>
</g>
</g>
<!-- Node16&#45;&gt;Node21 -->
<g id="edge16_Node000016_Node000021" class="edge">
<title>Node16&#45;&gt;Node21</title>
<g id="a_edge16_Node000016_Node000021"><a xlink:title=" ">
<path fill="none" stroke="#63b8ff" d="M287.84,-174.33C296.39,-172.03 305.16,-169.38 313.25,-166.39 332.12,-159.43 352.36,-149.39 368.06,-141"/>
<polygon fill="#63b8ff" stroke="#63b8ff" points="369.69,-144.09 376.79,-136.23 366.34,-137.95 369.69,-144.09"/>
</a>
</g>
</g>
<!-- Node18 -->
<g id="Node000018" class="node">
<title>Node18</title>
<g id="a_Node000018"><a xlink:href="classJack_1_1detail_1_1JackSynchro.html#af1e9982635110dde560d91082679f1b0" target="_top" xlink:title=" ">
<polygon fill="white" stroke="#666666" points="838.5,-135.64 713,-135.64 713,-105.14 838.5,-105.14 838.5,-135.64"/>
<text xml:space="preserve" text-anchor="start" x="721" y="-122.14" font-family="Helvetica,sans-Serif" font-size="10.00">Jack::detail::JackSynchro</text>
<text xml:space="preserve" text-anchor="middle" x="775.75" y="-110.89" font-family="Helvetica,sans-Serif" font-size="10.00">::Connect</text>
</a>
</g>
</g>
<!-- Node17&#45;&gt;Node18 -->
<g id="edge11_Node000017_Node000018" class="edge">
<title>Node17&#45;&gt;Node18</title>
<g id="a_edge11_Node000017_Node000018"><a xlink:title=" ">
<path fill="none" stroke="#63b8ff" d="M677.28,-79.86C687.77,-84.52 701.07,-90.36 713,-95.39 716.85,-97.02 720.84,-98.68 724.86,-100.34"/>
<polygon fill="#63b8ff" stroke="#63b8ff" points="723.5,-103.57 734.08,-104.12 726.15,-97.09 723.5,-103.57"/>
</a>
</g>
</g>
<!-- Node19 -->
<g id="Node000019" class="node">
<title>Node19</title>
<g id="a_Node000019"><a xlink:href="classJack_1_1detail_1_1JackSynchro.html#ab8dc6db56bb10b4cfea9625a5c002841" target="_top" xlink:title=" ">
<polygon fill="white" stroke="#666666" points="838.5,-86.64 713,-86.64 713,-56.14 838.5,-56.14 838.5,-86.64"/>
<text xml:space="preserve" text-anchor="start" x="721" y="-73.14" font-family="Helvetica,sans-Serif" font-size="10.00">Jack::detail::JackSynchro</text>
<text xml:space="preserve" text-anchor="middle" x="775.75" y="-61.89" font-family="Helvetica,sans-Serif" font-size="10.00">::Signal</text>
</a>
</g>
</g>
<!-- Node17&#45;&gt;Node19 -->
<g id="edge12_Node000017_Node000019" class="edge">
<title>Node17&#45;&gt;Node19</title>
<g id="a_edge12_Node000017_Node000019"><a xlink:title=" ">
<path fill="none" stroke="#63b8ff" d="M677.33,-71.39C684.22,-71.39 692.47,-71.39 701.22,-71.39"/>
<polygon fill="#63b8ff" stroke="#63b8ff" points="701,-74.9 711,-71.39 701,-67.9 701,-74.9"/>
</a>
</g>
</g>
<!-- Node20 -->
<g id="Node000020" class="node">
<title>Node20</title>
<g id="a_Node000020"><a xlink:href="classJack_1_1detail_1_1JackSynchro.html#a8a39f2065be5d07800e2f06e0f2b2f10" target="_top" xlink:title=" ">
<polygon fill="white" stroke="#666666" points="838.5,-37.64 713,-37.64 713,-7.14 838.5,-7.14 838.5,-37.64"/>
<text xml:space="preserve" text-anchor="start" x="721" y="-24.14" font-family="Helvetica,sans-Serif" font-size="10.00">Jack::detail::JackSynchro</text>
<text xml:space="preserve" text-anchor="middle" x="775.75" y="-12.89" font-family="Helvetica,sans-Serif" font-size="10.00">::Wait</text>
</a>
</g>
</g>
<!-- Node17&#45;&gt;Node20 -->
<g id="edge13_Node000017_Node000020" class="edge">
<title>Node17&#45;&gt;Node20</title>
<g id="a_edge13_Node000017_Node000020"><a xlink:title=" ">
<path fill="none" stroke="#63b8ff" d="M677.28,-62.93C687.77,-58.27 701.07,-52.43 713,-47.39 716.85,-45.77 720.84,-44.11 724.86,-42.45"/>
<polygon fill="#63b8ff" stroke="#63b8ff" points="726.15,-45.7 734.08,-38.67 723.5,-39.22 726.15,-45.7"/>
</a>
</g>
</g>
<!-- Node21&#45;&gt;Node13 -->
<g id="edge17_Node000021_Node000013" class="edge">
<title>Node21&#45;&gt;Node13</title>
<g id="a_edge17_Node000021_Node000013"><a xlink:title=" ">
<path fill="none" stroke="#63b8ff" d="M411.21,-135.28C421.03,-142.83 434.23,-153.88 444,-165.39 463.87,-188.82 456.69,-204.39 480,-224.39 481.28,-225.5 482.62,-226.55 484,-227.57"/>
<polygon fill="#63b8ff" stroke="#63b8ff" points="482.05,-230.48 492.37,-232.87 485.8,-224.56 482.05,-230.48"/>
</a>
</g>
</g>
<!-- Node21&#45;&gt;Node17 -->
<g id="edge18_Node000021_Node000017" class="edge">
<title>Node21&#45;&gt;Node17</title>
<g id="a_edge18_Node000021_Node000017"><a xlink:title=" ">
<path fill="none" stroke="#63b8ff" d="M416.7,-115.38C433.04,-107.27 457.44,-96.26 480,-90.39 529.99,-77.39 590.19,-73.27 625.76,-71.97"/>
<polygon fill="#63b8ff" stroke="#63b8ff" points="625.85,-75.47 635.74,-71.67 625.64,-68.48 625.85,-75.47"/>
</a>
</g>
</g>
<!-- Node22 -->
<g id="Node000022" class="node">
<title>Node22</title>
<g id="a_Node000022"><a xlink:href="namespaceJack.html#a0d18e6453f501c905a66e17d28397baa" target="_top" xlink:title=" ">
<polygon fill="white" stroke="#666666" points="589.75,-43.02 492,-43.02 492,-23.77 589.75,-23.77 589.75,-43.02"/>
<text xml:space="preserve" text-anchor="middle" x="540.88" y="-29.52" font-family="Helvetica,sans-Serif" font-size="10.00">Jack::GetMetadata</text>
</a>
</g>
</g>
<!-- Node21&#45;&gt;Node22 -->
<g id="edge19_Node000021_Node000022" class="edge">
<title>Node21&#45;&gt;Node22</title>
<g id="a_edge19_Node000021_Node000022"><a xlink:title=" ">
<path fill="none" stroke="#63b8ff" d="M407.51,-115.48C422.23,-101.13 451.3,-74.43 480,-57.39 486,-53.83 492.63,-50.58 499.23,-47.7"/>
<polygon fill="#63b8ff" stroke="#63b8ff" points="500.15,-51.1 508.07,-44.06 497.49,-44.63 500.15,-51.1"/>
</a>
</g>
</g>
<!-- Node23 -->
<g id="Node000023" class="node">
<title>Node23</title>
<g id="a_Node000023"><a xlink:href="group__ControlAPI.html#ga35f69faaee3bb9b958ed8c9a5f62246c" target="_top" xlink:title=" ">
<polygon fill="white" stroke="#666666" points="566.88,-167.02 514.88,-167.02 514.88,-147.77 566.88,-147.77 566.88,-167.02"/>
<text xml:space="preserve" text-anchor="middle" x="540.88" y="-153.52" font-family="Helvetica,sans-Serif" font-size="10.00">jack_log</text>
</a>
</g>
</g>
<!-- Node21&#45;&gt;Node23 -->
<g id="edge20_Node000021_Node000023" class="edge">
<title>Node21&#45;&gt;Node23</title>
<g id="a_edge20_Node000021_Node000023"><a xlink:title=" ">
<path fill="none" stroke="#63b8ff" d="M442.63,-135.52C462.22,-139.93 484.88,-145.02 503.4,-149.19"/>
<polygon fill="#63b8ff" stroke="#63b8ff" points="502.61,-152.6 513.13,-151.38 504.14,-145.77 502.61,-152.6"/>
</a>
</g>
</g>
<!-- Node24 -->
<g id="Node000024" class="node">
<title>Node24</title>
<g id="a_Node000024"><a xlink:href="classJack_1_1JackMetadata.html#ae89df11c2caf6a1594b01622b8577540" target="_top" xlink:title=" ">
<polygon fill="#fff0f0" stroke="red" points="592.38,-129.64 489.38,-129.64 489.38,-99.14 592.38,-99.14 592.38,-129.64"/>
<text xml:space="preserve" text-anchor="start" x="497.38" y="-116.14" font-family="Helvetica,sans-Serif" font-size="10.00">Jack::JackMetadata</text>
<text xml:space="preserve" text-anchor="middle" x="540.88" y="-104.89" font-family="Helvetica,sans-Serif" font-size="10.00">::SetProperty</text>
</a>
</g>
</g>
<!-- Node21&#45;&gt;Node24 -->
<g id="edge21_Node000021_Node000024" class="edge">
<title>Node21&#45;&gt;Node24</title>
<g id="a_edge21_Node000021_Node000024"><a xlink:title=" ">
<path fill="none" stroke="#63b8ff" d="M443.02,-121.88C454,-121.04 465.92,-120.11 477.53,-119.22"/>
<polygon fill="#63b8ff" stroke="#63b8ff" points="477.77,-122.71 487.47,-118.45 477.23,-115.73 477.77,-122.71"/>
</a>
</g>
</g>
<!-- Node24&#45;&gt;Node17 -->
<g id="edge22_Node000024_Node000017" class="edge">
<title>Node24&#45;&gt;Node17</title>
<g id="a_edge22_Node000024_Node000017"><a xlink:title=" ">
<path fill="none" stroke="#63b8ff" d="M583.54,-98.75C597.92,-93.35 613.73,-87.41 626.93,-82.45"/>
<polygon fill="#63b8ff" stroke="#63b8ff" points="627.78,-85.87 635.91,-79.08 625.31,-79.32 627.78,-85.87"/>
</a>
</g>
</g>
</g>
</svg>
