<?xml version="1.0" encoding="UTF-8" standalone="no"?>
<!DOCTYPE svg PUBLIC "-//W3C//DTD SVG 1.1//EN"
 "http://www.w3.org/Graphics/SVG/1.1/DTD/svg11.dtd">
<!-- Generated by graphviz version 14.0.2 (0)
 -->
<!-- Title: lmms::Track::loadPreset Pages: 1 -->
<!--zoomable 542 -->

<svg id="main" version="1.1" xmlns="http://www.w3.org/2000/svg" xmlns:xlink="http://www.w3.org/1999/xlink" xml:space="preserve" onload="init(evt)">

<style type="text/css"><![CDATA[
.node, .edge {opacity: 0.7;}
.node.selected, .edge.selected {opacity: 1;}
.edge:hover path { stroke: red; }
.edge:hover polygon { stroke: red; fill: red; }
]]></style>

<defs>
  <circle id="rim" cx="0" cy="0" r="7"/>
  <circle id="rim2" cx="0" cy="0" r="3.5"/>
  <g id="zoomPlus">
    <use xlink:href="#rim" fill="#404040"><set attributeName="fill" to="#808080" begin="zoomplus.mouseover" end="zoomplus.mouseout"/></use>
    <path d="M-4,0h8M0,-4v8" fill="none" stroke="white" stroke-width="1.5" pointer-events="none"/>
  </g>
  <g id="zoomMin">
    <use xlink:href="#rim" fill="#404040"><set attributeName="fill" to="#808080" begin="zoomminus.mouseover" end="zoomminus.mouseout"/></use>
    <path d="M-4,0h8" fill="none" stroke="white" stroke-width="1.5" pointer-events="none"/>
  </g>
  <g id="arrowUp" transform="translate(30 24)">
    <use xlink:href="#rim"/>
    <path pointer-events="none" fill="none" stroke="white" stroke-width="1.5" d="M0,-3.0v7 M-2.5,-0.5L0,-3.0L2.5,-0.5"/>
  </g>
  <g id="arrowRight" transform="rotate(90) translate(36 -43)">
    <use xlink:href="#rim"/>
    <path pointer-events="none" fill="none" stroke="white" stroke-width="1.5" d="M0,-3.0v7 M-2.5,-0.5L0,-3.0L2.5,-0.5"/>
  </g>
  <g id="arrowDown" transform="rotate(180) translate(-30 -48)">
    <use xlink:href="#rim"/>
    <path pointer-events="none" fill="none" stroke="white" stroke-width="1.5" d="M0,-3.0v7 M-2.5,-0.5L0,-3.0L2.5,-0.5"/>
  </g>
  <g id="arrowLeft" transform="rotate(270) translate(-36 17)">
    <use xlink:href="#rim"/>
    <path pointer-events="none" fill="none" stroke="white" stroke-width="1.5" d="M0,-3.0v7 M-2.5,-0.5L0,-3.0L2.5,-0.5"/>
  </g>
  <g id="resetDef">
    <use xlink:href="#rim2" fill="#404040"><set attributeName="fill" to="#808080" begin="reset.mouseover" end="reset.mouseout"/></use>
  </g>
</defs>
<script type="application/ecmascript">
var viewWidth = 793;
var viewHeight = 542;
var sectionId = 'dynsection-31';
</script>
<script type="application/ecmascript" xlink:href="svg.min.js"/>
<svg id="graph" class="graph">
<g id="viewport">
<title>lmms::Track::loadPreset</title>
<!-- Node1 -->
<g id="Node000001" class="node">
<title>Node1</title>
<g id="a_Node000001"><a xlink:title=" ">
<polygon fill="#999999" stroke="#666666" points="120.25,-267.25 0,-267.25 0,-248 120.25,-248 120.25,-267.25"/>
<text xml:space="preserve" text-anchor="middle" x="60.12" y="-253.75" font-family="Helvetica,sans-Serif" font-size="10.00">lmms::Track::loadPreset</text>
</a>
</g>
</g>
<!-- Node2 -->
<g id="Node000002" class="node">
<title>Node2</title>
<g id="a_Node000002"><a xlink:href="classlmms_1_1Track.html#af60eb069d7dd7bf53a293de7daf225a6" target="_top" xlink:title="Load the settings from a file.">
<polygon fill="white" stroke="#666666" points="272.75,-248.25 156.25,-248.25 156.25,-229 272.75,-229 272.75,-248.25"/>
<text xml:space="preserve" text-anchor="middle" x="214.5" y="-234.75" font-family="Helvetica,sans-Serif" font-size="10.00">lmms::Track::loadTrack</text>
</a>
</g>
</g>
<!-- Node1&#45;&gt;Node2 -->
<g id="edge1_Node000001_Node000002" class="edge">
<title>Node1&#45;&gt;Node2</title>
<g id="a_edge1_Node000001_Node000002"><a xlink:title=" ">
<path fill="none" stroke="#63b8ff" d="M120.47,-250.22C128.43,-249.23 136.63,-248.21 144.73,-247.2"/>
<polygon fill="#63b8ff" stroke="#63b8ff" points="145.07,-250.68 154.56,-245.97 144.21,-243.74 145.07,-250.68"/>
</a>
</g>
</g>
<!-- Node3 -->
<g id="Node000003" class="node">
<title>Node3</title>
<g id="a_Node000003"><a xlink:href="classlmms_1_1Engine.html#a6877e216489d342e0d50925d47b56ae4" target="_top" xlink:title=" ">
<polygon fill="white" stroke="#666666" points="449.62,-324.25 318.88,-324.25 318.88,-305 449.62,-305 449.62,-324.25"/>
<text xml:space="preserve" text-anchor="middle" x="384.25" y="-310.75" font-family="Helvetica,sans-Serif" font-size="10.00">lmms::Engine::audioEngine</text>
</a>
</g>
</g>
<!-- Node2&#45;&gt;Node3 -->
<g id="edge2_Node000002_Node000003" class="edge">
<title>Node2&#45;&gt;Node3</title>
<g id="a_edge2_Node000002_Node000003"><a xlink:title=" ">
<path fill="none" stroke="#63b8ff" d="M231.18,-248.63C249.33,-259.91 280.36,-278.28 308.75,-290.62 317.53,-294.44 327.11,-297.98 336.4,-301.09"/>
<polygon fill="#63b8ff" stroke="#63b8ff" points="335.07,-304.34 345.66,-304.09 337.22,-297.68 335.07,-304.34"/>
</a>
</g>
</g>
<!-- Node4 -->
<g id="Node000004" class="node">
<title>Node4</title>
<g id="a_Node000004"><a xlink:href="classlmms_1_1Track.html#a1004f3f8f56127fb6a19409fa9c7cc46" target="_top" xlink:title=" ">
<polygon fill="white" stroke="#666666" points="785,-529.25 667.75,-529.25 667.75,-510 785,-510 785,-529.25"/>
<text xml:space="preserve" text-anchor="middle" x="726.38" y="-515.75" font-family="Helvetica,sans-Serif" font-size="10.00">lmms::Track::createClip</text>
</a>
</g>
</g>
<!-- Node2&#45;&gt;Node4 -->
<g id="edge3_Node000002_Node000004" class="edge">
<title>Node2&#45;&gt;Node4</title>
<g id="a_edge3_Node000002_Node000004"><a xlink:title=" ">
<path fill="none" stroke="#63b8ff" d="M220.34,-248.49C232.68,-272.95 267.25,-337.65 308.75,-381.62 379.64,-456.75 397.63,-487.34 495.75,-519.62 547.7,-536.72 609.92,-535.49 656.47,-530.67"/>
<polygon fill="#63b8ff" stroke="#63b8ff" points="656.61,-534.18 666.15,-529.58 655.82,-527.22 656.61,-534.18"/>
</a>
</g>
</g>
<!-- Node5 -->
<g id="Node000005" class="node">
<title>Node5</title>
<g id="a_Node000005"><a xlink:href="classlmms_1_1Track.html#ae347b8b792c817a22a228a8a7748ca07" target="_top" xlink:title="Remove all Clips from this track.">
<polygon fill="white" stroke="#666666" points="624.62,-251.25 502.88,-251.25 502.88,-232 624.62,-232 624.62,-251.25"/>
<text xml:space="preserve" text-anchor="middle" x="563.75" y="-237.75" font-family="Helvetica,sans-Serif" font-size="10.00">lmms::Track::deleteClips</text>
</a>
</g>
</g>
<!-- Node2&#45;&gt;Node5 -->
<g id="edge4_Node000002_Node000005" class="edge">
<title>Node2&#45;&gt;Node5</title>
<g id="a_edge4_Node000002_Node000005"><a xlink:title=" ">
<path fill="none" stroke="#63b8ff" d="M256.08,-248.74C272.34,-252.31 291.33,-255.87 308.75,-257.62 375.52,-264.36 392.84,-262.79 459.75,-257.62 471.84,-256.69 484.65,-255.15 496.99,-253.39"/>
<polygon fill="#63b8ff" stroke="#63b8ff" points="497.28,-256.88 506.65,-251.94 496.24,-249.96 497.28,-256.88"/>
</a>
</g>
</g>
<!-- Node6 -->
<g id="Node000006" class="node">
<title>Node6</title>
<g id="a_Node000006"><a xlink:href="classlmms_1_1Track.html#a9ac95f1a5fbc42fb9b2172486c01037a" target="_top" xlink:title=" ">
<polygon fill="white" stroke="#666666" points="459.75,-372.88 308.75,-372.88 308.75,-342.38 459.75,-342.38 459.75,-372.88"/>
<text xml:space="preserve" text-anchor="start" x="316.75" y="-359.38" font-family="Helvetica,sans-Serif" font-size="10.00">lmms::Track::loadTrackSpecific</text>
<text xml:space="preserve" text-anchor="middle" x="384.25" y="-348.12" font-family="Helvetica,sans-Serif" font-size="10.00">Settings</text>
</a>
</g>
</g>
<!-- Node2&#45;&gt;Node6 -->
<g id="edge5_Node000002_Node000006" class="edge">
<title>Node2&#45;&gt;Node6</title>
<g id="a_edge5_Node000002_Node000006"><a xlink:title=" ">
<path fill="none" stroke="#63b8ff" d="M224.11,-248.53C243.23,-270.33 289.09,-321.48 308.75,-333.62 310.74,-334.85 312.79,-336.02 314.9,-337.14"/>
<polygon fill="#63b8ff" stroke="#63b8ff" points="313.16,-340.19 323.7,-341.32 316.17,-333.87 313.16,-340.19"/>
</a>
</g>
</g>
<!-- Node23 -->
<g id="Node000023" class="node">
<title>Node23</title>
<g id="a_Node000023"><a xlink:href="classlmms_1_1SerializingObject.html#a3ad3aa4ade95dbb05bb3ee9cdbdd2d0c" target="_top" xlink:title=" ">
<polygon fill="#fff0f0" stroke="red" points="442.88,-134.88 325.62,-134.88 325.62,-104.38 442.88,-104.38 442.88,-134.88"/>
<text xml:space="preserve" text-anchor="start" x="333.62" y="-121.38" font-family="Helvetica,sans-Serif" font-size="10.00">lmms::SerializingObject</text>
<text xml:space="preserve" text-anchor="middle" x="384.25" y="-110.12" font-family="Helvetica,sans-Serif" font-size="10.00">::nodeName</text>
</a>
</g>
</g>
<!-- Node2&#45;&gt;Node23 -->
<g id="edge19_Node000002_Node000023" class="edge">
<title>Node2&#45;&gt;Node23</title>
<g id="a_edge19_Node000002_Node000023"><a xlink:title=" ">
<path fill="none" stroke="#63b8ff" d="M222.55,-228.75C236.72,-209.59 270.6,-167.18 308.75,-143.62 310.78,-142.37 312.89,-141.17 315.04,-140.04"/>
<polygon fill="#63b8ff" stroke="#63b8ff" points="316.54,-143.2 324.08,-135.76 313.55,-136.87 316.54,-143.2"/>
</a>
</g>
</g>
<!-- Node29 -->
<g id="Node000029" class="node">
<title>Node29</title>
<g id="a_Node000029"><a xlink:href="classlmms_1_1AudioEngine.html#af2c855b8d8f4e5e3702fe6ecb4dd664b" target="_top" xlink:title=" ">
<polygon fill="white" stroke="#666666" points="440.62,-85.88 327.88,-85.88 327.88,-55.38 440.62,-55.38 440.62,-85.88"/>
<text xml:space="preserve" text-anchor="start" x="335.88" y="-72.38" font-family="Helvetica,sans-Serif" font-size="10.00">lmms::AudioEngine::</text>
<text xml:space="preserve" text-anchor="middle" x="384.25" y="-61.12" font-family="Helvetica,sans-Serif" font-size="10.00">requestChangesGuard</text>
</a>
</g>
</g>
<!-- Node2&#45;&gt;Node29 -->
<g id="edge20_Node000002_Node000029" class="edge">
<title>Node2&#45;&gt;Node29</title>
<g id="a_edge20_Node000002_Node000029"><a xlink:title=" ">
<path fill="none" stroke="#63b8ff" d="M219.26,-228.67C229.5,-202.81 260.46,-132.98 308.75,-95.62 311.47,-93.52 314.37,-91.59 317.4,-89.82"/>
<polygon fill="#63b8ff" stroke="#63b8ff" points="318.77,-93.05 326.07,-85.37 315.57,-86.82 318.77,-93.05"/>
</a>
</g>
</g>
<!-- Node30 -->
<g id="Node000030" class="node">
<title>Node30</title>
<g id="a_Node000030"><a xlink:href="classlmms_1_1Track.html#a13e0001db9c11194aacff314e9c2aeb3" target="_top" xlink:title=" ">
<polygon fill="white" stroke="#666666" points="439.12,-37.25 329.38,-37.25 329.38,-18 439.12,-18 439.12,-37.25"/>
<text xml:space="preserve" text-anchor="middle" x="384.25" y="-23.75" font-family="Helvetica,sans-Serif" font-size="10.00">lmms::Track::setColor</text>
</a>
</g>
</g>
<!-- Node2&#45;&gt;Node30 -->
<g id="edge21_Node000002_Node000030" class="edge">
<title>Node2&#45;&gt;Node30</title>
<g id="a_edge21_Node000002_Node000030"><a xlink:title=" ">
<path fill="none" stroke="#63b8ff" d="M217.24,-228.86C223.42,-197.24 247.3,-96.75 308.75,-46.62 311.84,-44.1 315.23,-41.91 318.8,-40"/>
<polygon fill="#63b8ff" stroke="#63b8ff" points="320.15,-43.23 327.87,-35.97 317.31,-36.83 320.15,-43.23"/>
</a>
</g>
</g>
<!-- Node33 -->
<g id="Node000033" class="node">
<title>Node33</title>
<g id="a_Node000033"><a xlink:href="classlmms_1_1Track.html#a94a393326f28141895b87640a71309d7" target="_top" xlink:title=" ">
<polygon fill="white" stroke="#666666" points="441,-172.25 327.5,-172.25 327.5,-153 441,-153 441,-172.25"/>
<text xml:space="preserve" text-anchor="middle" x="384.25" y="-158.75" font-family="Helvetica,sans-Serif" font-size="10.00">lmms::Track::setName</text>
</a>
</g>
</g>
<!-- Node2&#45;&gt;Node33 -->
<g id="edge24_Node000002_Node000033" class="edge">
<title>Node2&#45;&gt;Node33</title>
<g id="a_edge24_Node000002_Node000033"><a xlink:title=" ">
<path fill="none" stroke="#63b8ff" d="M231.18,-228.62C249.33,-217.34 280.36,-198.97 308.75,-186.62 317.53,-182.81 327.11,-179.27 336.4,-176.16"/>
<polygon fill="#63b8ff" stroke="#63b8ff" points="337.22,-179.57 345.66,-173.16 335.07,-172.91 337.22,-179.57"/>
</a>
</g>
</g>
<!-- Node27 -->
<g id="Node000027" class="node">
<title>Node27</title>
<g id="a_Node000027"><a xlink:href="classlmms_1_1Track.html#a8f965707df2eff121cfc237753b36d77" target="_top" xlink:title=" ">
<polygon fill="white" stroke="#666666" points="430.12,-248.25 338.38,-248.25 338.38,-229 430.12,-229 430.12,-248.25"/>
<text xml:space="preserve" text-anchor="middle" x="384.25" y="-234.75" font-family="Helvetica,sans-Serif" font-size="10.00">lmms::Track::type</text>
</a>
</g>
</g>
<!-- Node2&#45;&gt;Node27 -->
<g id="edge27_Node000002_Node000027" class="edge">
<title>Node2&#45;&gt;Node27</title>
<g id="a_edge27_Node000002_Node000027"><a xlink:title=" ">
<path fill="none" stroke="#63b8ff" d="M273.23,-238.62C290.64,-238.62 309.73,-238.62 327.04,-238.62"/>
<polygon fill="#63b8ff" stroke="#63b8ff" points="326.62,-242.13 336.62,-238.63 326.62,-235.13 326.62,-242.13"/>
</a>
</g>
</g>
<!-- Node6&#45;&gt;Node1 -->
<g id="edge11_Node000006_Node000001" class="edge">
<title>Node6&#45;&gt;Node1</title>
<g id="a_edge11_Node000006_Node000001"><a xlink:title=" ">
<path fill="none" stroke="#63b8ff" d="M332.78,-341.96C269.93,-322.44 163.61,-289.44 104.34,-271.04"/>
<polygon fill="#63b8ff" stroke="#63b8ff" points="105.52,-267.74 94.93,-268.12 103.44,-274.43 105.52,-267.74"/>
</a>
</g>
</g>
<!-- Node6&#45;&gt;Node5 -->
<g id="edge7_Node000006_Node000005" class="edge">
<title>Node6&#45;&gt;Node5</title>
<g id="a_edge7_Node000006_Node000005"><a xlink:title=" ">
<path fill="none" stroke="#63b8ff" d="M447.56,-342.02C451.93,-339.61 456.06,-336.83 459.75,-333.62 487.37,-309.65 467.55,-282.91 495.75,-259.62 496.7,-258.84 497.69,-258.09 498.7,-257.37"/>
<polygon fill="#63b8ff" stroke="#63b8ff" points="500.21,-260.54 507.1,-252.49 496.7,-254.48 500.21,-260.54"/>
</a>
</g>
</g>
<!-- Node7 -->
<g id="Node000007" class="node">
<title>Node7</title>
<g id="a_Node000007"><a xlink:href="classlmms_1_1Track.html#a0796d64ad587058c0fa96228548dd6a2" target="_top" xlink:title="Add another Clip into this track.">
<polygon fill="#fff0f0" stroke="red" points="616.75,-473.25 510.75,-473.25 510.75,-454 616.75,-454 616.75,-473.25"/>
<text xml:space="preserve" text-anchor="middle" x="563.75" y="-459.75" font-family="Helvetica,sans-Serif" font-size="10.00">lmms::Track::addClip</text>
</a>
</g>
</g>
<!-- Node6&#45;&gt;Node7 -->
<g id="edge6_Node000006_Node000007" class="edge">
<title>Node6&#45;&gt;Node7</title>
<g id="a_edge6_Node000006_Node000007"><a xlink:title=" ">
<path fill="none" stroke="#63b8ff" d="M400.62,-373.35C420.73,-393.04 457.88,-426.51 495.75,-445.62 498.62,-447.08 501.63,-448.42 504.7,-449.66"/>
<polygon fill="#63b8ff" stroke="#63b8ff" points="503.33,-452.89 513.92,-453 505.71,-446.31 503.33,-452.89"/>
</a>
</g>
</g>
<!-- Node9 -->
<g id="Node000009" class="node">
<title>Node9</title>
<g id="a_Node000009"><a xlink:href="classlmms_1_1Track.html#ad76b7f90ed4e7d450b01dca54a519edf" target="_top" xlink:title="Get a Clip by number.">
<polygon fill="#fff0f0" stroke="red" points="615.62,-510.25 511.88,-510.25 511.88,-491 615.62,-491 615.62,-510.25"/>
<text xml:space="preserve" text-anchor="middle" x="563.75" y="-496.75" font-family="Helvetica,sans-Serif" font-size="10.00">lmms::Track::getClip</text>
</a>
</g>
</g>
<!-- Node6&#45;&gt;Node9 -->
<g id="edge8_Node000006_Node000009" class="edge">
<title>Node6&#45;&gt;Node9</title>
<g id="a_edge8_Node000006_Node000009"><a xlink:title=" ">
<path fill="none" stroke="#63b8ff" d="M394.7,-373.33C411.56,-399.98 449.46,-453.95 495.75,-482.62 497.75,-483.86 499.83,-485.02 501.98,-486.09"/>
<polygon fill="#63b8ff" stroke="#63b8ff" points="500.41,-489.23 510.97,-489.98 503.18,-482.8 500.41,-489.23"/>
</a>
</g>
</g>
<!-- Node11 -->
<g id="Node000011" class="node">
<title>Node11</title>
<g id="a_Node000011"><a xlink:href="classlmms_1_1Track.html#a94ad77a97536defaec8ed93038be08de" target="_top" xlink:title="Determine the given Clip&#39;s number in our array.">
<polygon fill="white" stroke="#666666" points="626.12,-436.25 501.38,-436.25 501.38,-417 626.12,-417 626.12,-436.25"/>
<text xml:space="preserve" text-anchor="middle" x="563.75" y="-422.75" font-family="Helvetica,sans-Serif" font-size="10.00">lmms::Track::getClipNum</text>
</a>
</g>
</g>
<!-- Node6&#45;&gt;Node11 -->
<g id="edge10_Node000006_Node000011" class="edge">
<title>Node6&#45;&gt;Node11</title>
<g id="a_edge10_Node000006_Node000011"><a xlink:title=" ">
<path fill="none" stroke="#63b8ff" d="M415.62,-373.35C437.5,-384.24 467.94,-398.55 495.75,-408.62 500.4,-410.31 505.28,-411.91 510.2,-413.43"/>
<polygon fill="#63b8ff" stroke="#63b8ff" points="508.92,-416.7 519.5,-416.15 510.88,-409.98 508.92,-416.7"/>
</a>
</g>
</g>
<!-- Node12 -->
<g id="Node000012" class="node">
<title>Node12</title>
<g id="a_Node000012"><a xlink:href="classlmms_1_1Track.html#aee30f9954d1240a9641772d363307e82" target="_top" xlink:title=" ">
<polygon fill="white" stroke="#666666" points="627.62,-214.25 499.88,-214.25 499.88,-195 627.62,-195 627.62,-214.25"/>
<text xml:space="preserve" text-anchor="middle" x="563.75" y="-200.75" font-family="Helvetica,sans-Serif" font-size="10.00">lmms::Track::loadSettings</text>
</a>
</g>
</g>
<!-- Node6&#45;&gt;Node12 -->
<g id="edge12_Node000006_Node000012" class="edge">
<title>Node6&#45;&gt;Node12</title>
<g id="a_edge12_Node000006_Node000012"><a xlink:title=" ">
<path fill="none" stroke="#63b8ff" d="M449.13,-341.93C452.98,-339.54 456.58,-336.79 459.75,-333.62 496.46,-296.99 458.15,-258.35 495.75,-222.62 496.37,-222.03 497.01,-221.46 497.67,-220.91"/>
<polygon fill="#63b8ff" stroke="#63b8ff" points="499.33,-224 505.7,-215.54 495.44,-218.19 499.33,-224"/>
</a>
</g>
</g>
<!-- Node13 -->
<g id="Node000013" class="node">
<title>Node13</title>
<g id="a_Node000013"><a xlink:href="classlmms_1_1Track.html#a9d8ecd4a10538a02b1791cfcb5303ec5" target="_top" xlink:title="Return the number of clips we contain.">
<polygon fill="white" stroke="#666666" points="626.12,-399.25 501.38,-399.25 501.38,-380 626.12,-380 626.12,-399.25"/>
<text xml:space="preserve" text-anchor="middle" x="563.75" y="-385.75" font-family="Helvetica,sans-Serif" font-size="10.00">lmms::Track::numOfClips</text>
</a>
</g>
</g>
<!-- Node6&#45;&gt;Node13 -->
<g id="edge14_Node000006_Node000013" class="edge">
<title>Node6&#45;&gt;Node13</title>
<g id="a_edge14_Node000006_Node000013"><a xlink:title=" ">
<path fill="none" stroke="#63b8ff" d="M460.01,-371.1C471.86,-373.24 484.05,-375.44 495.7,-377.54"/>
<polygon fill="#63b8ff" stroke="#63b8ff" points="494.73,-380.92 505.2,-379.25 495.98,-374.03 494.73,-380.92"/>
</a>
</g>
</g>
<!-- Node14 -->
<g id="Node000014" class="node">
<title>Node14</title>
<g id="a_Node000014"><a xlink:href="classlmms_1_1Track.html#a0c7e0b4054d1f1747d5e2ebf64159b9a" target="_top" xlink:title="Remove a given Clip from this track.">
<polygon fill="#fff0f0" stroke="red" points="625,-288.25 502.5,-288.25 502.5,-269 625,-269 625,-288.25"/>
<text xml:space="preserve" text-anchor="middle" x="563.75" y="-274.75" font-family="Helvetica,sans-Serif" font-size="10.00">lmms::Track::removeClip</text>
</a>
</g>
</g>
<!-- Node6&#45;&gt;Node14 -->
<g id="edge15_Node000006_Node000014" class="edge">
<title>Node6&#45;&gt;Node14</title>
<g id="a_edge15_Node000006_Node000014"><a xlink:title=" ">
<path fill="none" stroke="#63b8ff" d="M443.45,-341.99C449.13,-339.56 454.67,-336.78 459.75,-333.62 479.25,-321.53 475.96,-308.24 495.75,-296.62 497.94,-295.34 500.23,-294.14 502.58,-293.02"/>
<polygon fill="#63b8ff" stroke="#63b8ff" points="503.89,-296.27 511.81,-289.23 501.23,-289.8 503.89,-296.27"/>
</a>
</g>
</g>
<!-- Node20 -->
<g id="Node000020" class="node">
<title>Node20</title>
<g id="a_Node000020"><a xlink:href="classlmms_1_1Track.html#a1f6d22c3025d2d7208b738b99ed04937" target="_top" xlink:title=" ">
<polygon fill="#fff0f0" stroke="red" points="625.38,-362.25 502.12,-362.25 502.12,-343 625.38,-343 625.38,-362.25"/>
<text xml:space="preserve" text-anchor="middle" x="563.75" y="-348.75" font-family="Helvetica,sans-Serif" font-size="10.00">lmms::Track::savePreset</text>
</a>
</g>
</g>
<!-- Node6&#45;&gt;Node20 -->
<g id="edge17_Node000006_Node000020" class="edge">
<title>Node6&#45;&gt;Node20</title>
<g id="a_edge17_Node000006_Node000020"><a xlink:title=" ">
<path fill="none" stroke="#63b8ff" d="M460.01,-355.52C470.13,-355.23 480.5,-354.94 490.57,-354.66"/>
<polygon fill="#63b8ff" stroke="#63b8ff" points="490.38,-358.17 500.28,-354.38 490.18,-351.17 490.38,-358.17"/>
</a>
</g>
</g>
<!-- Node28 -->
<g id="Node000028" class="node">
<title>Node28</title>
<g id="a_Node000028"><a xlink:href="classlmms_1_1Track.html#a324ca719e111bb43c04702f95f27c20d" target="_top" xlink:title=" ">
<polygon fill="#fff0f0" stroke="red" points="629.12,-325.25 498.38,-325.25 498.38,-306 629.12,-306 629.12,-325.25"/>
<text xml:space="preserve" text-anchor="middle" x="563.75" y="-311.75" font-family="Helvetica,sans-Serif" font-size="10.00">lmms::Track::saveSettings</text>
</a>
</g>
</g>
<!-- Node6&#45;&gt;Node28 -->
<g id="edge18_Node000006_Node000028" class="edge">
<title>Node6&#45;&gt;Node28</title>
<g id="a_edge18_Node000006_Node000028"><a xlink:title=" ">
<path fill="none" stroke="#63b8ff" d="M451.6,-341.93C470.6,-337.43 491.06,-332.59 509.19,-328.3"/>
<polygon fill="#63b8ff" stroke="#63b8ff" points="509.74,-331.76 518.67,-326.06 508.13,-324.95 509.74,-331.76"/>
</a>
</g>
</g>
<!-- Node9&#45;&gt;Node4 -->
<g id="edge9_Node000009_Node000004" class="edge">
<title>Node9&#45;&gt;Node4</title>
<g id="a_edge9_Node000009_Node000004"><a xlink:title=" ">
<path fill="none" stroke="#63b8ff" d="M616.01,-506.69C628.78,-508.2 642.68,-509.84 656.16,-511.44"/>
<polygon fill="#63b8ff" stroke="#63b8ff" points="655.5,-514.88 665.84,-512.58 656.32,-507.93 655.5,-514.88"/>
</a>
</g>
</g>
<!-- Node12&#45;&gt;Node2 -->
<g id="edge13_Node000012_Node000002" class="edge">
<title>Node12&#45;&gt;Node2</title>
<g id="a_edge13_Node000012_Node000002"><a xlink:title=" ">
<path fill="none" stroke="#63b8ff" d="M499.62,-205.86C448.09,-207.47 373.47,-211.16 308.75,-219.62 295.95,-221.3 282.28,-223.72 269.46,-226.28"/>
<polygon fill="#63b8ff" stroke="#63b8ff" points="269.03,-222.79 259.94,-228.24 270.44,-229.65 269.03,-222.79"/>
</a>
</g>
</g>
<!-- Node15 -->
<g id="Node000015" class="node">
<title>Node15</title>
<g id="a_Node000015"><a xlink:href="classlmms_1_1Engine.html#a8b943018d0245555391473f4a7d75b5b" target="_top" xlink:title=" ">
<polygon fill="white" stroke="#666666" points="783.5,-232.25 669.25,-232.25 669.25,-213 783.5,-213 783.5,-232.25"/>
<text xml:space="preserve" text-anchor="middle" x="726.38" y="-218.75" font-family="Helvetica,sans-Serif" font-size="10.00">lmms::Engine::getSong</text>
</a>
</g>
</g>
<!-- Node14&#45;&gt;Node15 -->
<g id="edge16_Node000014_Node000015" class="edge">
<title>Node14&#45;&gt;Node15</title>
<g id="a_edge16_Node000014_Node000015"><a xlink:title=" ">
<path fill="none" stroke="#63b8ff" d="M605.38,-268.57C614.14,-266.16 623.3,-263.46 631.75,-260.62 652.27,-253.73 674.76,-244.66 692.55,-237.1"/>
<polygon fill="#63b8ff" stroke="#63b8ff" points="693.77,-240.39 701.57,-233.23 691.01,-233.96 693.77,-240.39"/>
</a>
</g>
</g>
<!-- Node31 -->
<g id="Node000031" class="node">
<title>Node31</title>
<g id="a_Node000031"><a xlink:href="classlmms_1_1Track.html#afed4d3a7323bf208ba194e07bf2372a1" target="_top" xlink:title=" ">
<polygon fill="white" stroke="#666666" points="611.12,-56.25 516.38,-56.25 516.38,-37 611.12,-37 611.12,-56.25"/>
<text xml:space="preserve" text-anchor="middle" x="563.75" y="-42.75" font-family="Helvetica,sans-Serif" font-size="10.00">lmms::Track::color</text>
</a>
</g>
</g>
<!-- Node30&#45;&gt;Node31 -->
<g id="edge22_Node000030_Node000031" class="edge">
<title>Node30&#45;&gt;Node31</title>
<g id="a_edge22_Node000030_Node000031"><a xlink:title=" ">
<path fill="none" stroke="#63b8ff" d="M439.47,-33.43C460.12,-35.64 483.71,-38.16 504.7,-40.41"/>
<polygon fill="#63b8ff" stroke="#63b8ff" points="504.24,-43.88 514.55,-41.47 504.98,-36.92 504.24,-43.88"/>
</a>
</g>
</g>
<!-- Node32 -->
<g id="Node000032" class="node">
<title>Node32</title>
<g id="a_Node000032"><a xlink:href="classlmms_1_1Track.html#a01d3db6195ec4f82df7491b61174a224" target="_top" xlink:title=" ">
<polygon fill="white" stroke="#666666" points="630.25,-19.25 497.25,-19.25 497.25,0 630.25,0 630.25,-19.25"/>
<text xml:space="preserve" text-anchor="middle" x="563.75" y="-5.75" font-family="Helvetica,sans-Serif" font-size="10.00">lmms::Track::colorChanged</text>
</a>
</g>
</g>
<!-- Node30&#45;&gt;Node32 -->
<g id="edge23_Node000030_Node000032" class="edge">
<title>Node30&#45;&gt;Node32</title>
<g id="a_edge23_Node000030_Node000032"><a xlink:title=" ">
<path fill="none" stroke="#63b8ff" d="M439.47,-22.13C454.07,-20.65 470.15,-19.02 485.74,-17.43"/>
<polygon fill="#63b8ff" stroke="#63b8ff" points="485.88,-20.94 495.47,-16.45 485.17,-13.97 485.88,-20.94"/>
</a>
</g>
</g>
<!-- Node33&#45;&gt;Node15 -->
<g id="edge25_Node000033_Node000015" class="edge">
<title>Node33&#45;&gt;Node15</title>
<g id="a_edge25_Node000033_Node000015"><a xlink:title=" ">
<path fill="none" stroke="#63b8ff" d="M441.3,-163.36C491.74,-165.07 567.58,-170.28 631.75,-185.62 653.43,-190.81 676.74,-200.01 694.68,-207.94"/>
<polygon fill="#63b8ff" stroke="#63b8ff" points="693.17,-211.09 703.72,-212.04 696.06,-204.72 693.17,-211.09"/>
</a>
</g>
</g>
<!-- Node34 -->
<g id="Node000034" class="node">
<title>Node34</title>
<g id="a_Node000034"><a xlink:href="classlmms_1_1Track.html#aa9b7818435363c40633d51531ae2ded4" target="_top" xlink:title=" ">
<polygon fill="white" stroke="#666666" points="631.75,-138.25 495.75,-138.25 495.75,-119 631.75,-119 631.75,-138.25"/>
<text xml:space="preserve" text-anchor="middle" x="563.75" y="-124.75" font-family="Helvetica,sans-Serif" font-size="10.00">lmms::Track::nameChanged</text>
</a>
</g>
</g>
<!-- Node33&#45;&gt;Node34 -->
<g id="edge26_Node000033_Node000034" class="edge">
<title>Node33&#45;&gt;Node34</title>
<g id="a_edge26_Node000033_Node000034"><a xlink:title=" ">
<path fill="none" stroke="#63b8ff" d="M438.03,-152.52C457.16,-148.85 478.99,-144.67 498.98,-140.84"/>
<polygon fill="#63b8ff" stroke="#63b8ff" points="499.53,-144.3 508.69,-138.98 498.21,-137.42 499.53,-144.3"/>
</a>
</g>
</g>
</g>
</svg>

<g id="navigator" transform="translate(0 0)" fill="#404254">
  <rect fill="#f2f5e9" fill-opacity="0.5" stroke="#606060" stroke-width=".5" x="0" y="0" width="60" height="60"/>
  <use id="zoomplus" xlink:href="#zoomPlus" x="17" y="9" onmousedown="handleZoom(evt,'in')"/>
  <use id="zoomminus" xlink:href="#zoomMin" x="42" y="9" onmousedown="handleZoom(evt,'out')"/>
  <use id="reset" xlink:href="#resetDef" x="30" y="36" onmousedown="handleReset()"/>
   <use id="arrowup" xlink:href="#arrowUp" x="0" y="0" onmousedown="handlePan(0,-1)"/>
  <use id="arrowright" xlink:href="#arrowRight" x="0" y="0" onmousedown="handlePan(1,0)"/>
  <use id="arrowdown" xlink:href="#arrowDown" x="0" y="0" onmousedown="handlePan(0,1)"/>
  <use id="arrowleft" xlink:href="#arrowLeft" x="0" y="0" onmousedown="handlePan(-1,0)"/>
</g>
<svg viewBox="0 0 15 15" width="100%" height="30px" preserveAspectRatio="xMaxYMin meet">
 <g id="arrow_out" transform="scale(0.3 0.3)">
  <a xlink:href="classlmms_1_1Track_a972fffba646e8eb294c5fcb4ff466c26_cgraph_org.svg" target="_base">
   <rect id="button" ry="5" rx="5" y="6" x="6" height="38" width="38"
        fill="#f2f5e9" fill-opacity="0.5" stroke="#606060" stroke-width="1.0"/>
   <path id="arrow"
     d="M 11.500037,31.436501 C 11.940474,20.09759 22.043105,11.32322 32.158766,21.979434 L 37.068811,17.246167 C 37.068811,17.246167 37.088388,32 37.088388,32 L 22.160133,31.978069 C 22.160133,31.978069 26.997745,27.140456 26.997745,27.140456 C 18.528582,18.264221 13.291696,25.230495 11.500037,31.436501 z"
     style="fill:#404040;"/>
  </a>
 </g>
</svg>

<style type='text/css'>
<![CDATA[
[data-mouse-over-selected='false'] { opacity: 0.7; }
[data-mouse-over-selected='true']  { opacity: 1.0; }
]]>
</style>
<script type="application/ecmascript"><![CDATA[
document.addEventListener('DOMContentLoaded', (event) => {
  highlightEdges();
  highlightAdjacentNodes();
});
]]></script>
</svg>
