<?xml version="1.0" encoding="UTF-8" standalone="no"?>
<!DOCTYPE svg PUBLIC "-//W3C//DTD SVG 1.1//EN"
 "http://www.w3.org/Graphics/SVG/1.1/DTD/svg11.dtd">
<!-- Generated by graphviz version 14.0.2 (0)
 -->
<!-- Title: dsp::stereo_auto_buffer&lt; N, T &gt; Pages: 1 -->
<!--zoomable 985 -->

<svg id="main" version="1.1" xmlns="http://www.w3.org/2000/svg" xmlns:xlink="http://www.w3.org/1999/xlink" xml:space="preserve" onload="init(evt)">

<style type="text/css"><![CDATA[
.node, .edge {opacity: 0.7;}
.node.selected, .edge.selected {opacity: 1;}
.edge:hover path { stroke: red; }
.edge:hover polygon { stroke: red; fill: red; }
]]></style>

<defs>
  <circle id="rim" cx="0" cy="0" r="7"/>
  <circle id="rim2" cx="0" cy="0" r="3.5"/>
  <g id="zoomPlus">
    <use xlink:href="#rim" fill="#404040"><set attributeName="fill" to="#808080" begin="zoomplus.mouseover" end="zoomplus.mouseout"/></use>
    <path d="M-4,0h8M0,-4v8" fill="none" stroke="white" stroke-width="1.5" pointer-events="none"/>
  </g>
  <g id="zoomMin">
    <use xlink:href="#rim" fill="#404040"><set attributeName="fill" to="#808080" begin="zoomminus.mouseover" end="zoomminus.mouseout"/></use>
    <path d="M-4,0h8" fill="none" stroke="white" stroke-width="1.5" pointer-events="none"/>
  </g>
  <g id="arrowUp" transform="translate(30 24)">
    <use xlink:href="#rim"/>
    <path pointer-events="none" fill="none" stroke="white" stroke-width="1.5" d="M0,-3.0v7 M-2.5,-0.5L0,-3.0L2.5,-0.5"/>
  </g>
  <g id="arrowRight" transform="rotate(90) translate(36 -43)">
    <use xlink:href="#rim"/>
    <path pointer-events="none" fill="none" stroke="white" stroke-width="1.5" d="M0,-3.0v7 M-2.5,-0.5L0,-3.0L2.5,-0.5"/>
  </g>
  <g id="arrowDown" transform="rotate(180) translate(-30 -48)">
    <use xlink:href="#rim"/>
    <path pointer-events="none" fill="none" stroke="white" stroke-width="1.5" d="M0,-3.0v7 M-2.5,-0.5L0,-3.0L2.5,-0.5"/>
  </g>
  <g id="arrowLeft" transform="rotate(270) translate(-36 17)">
    <use xlink:href="#rim"/>
    <path pointer-events="none" fill="none" stroke="white" stroke-width="1.5" d="M0,-3.0v7 M-2.5,-0.5L0,-3.0L2.5,-0.5"/>
  </g>
  <g id="resetDef">
    <use xlink:href="#rim2" fill="#404040"><set attributeName="fill" to="#808080" begin="reset.mouseover" end="reset.mouseout"/></use>
  </g>
</defs>
<script type="application/ecmascript">
var viewWidth = 361;
var viewHeight = 985;
var sectionId = 'dynsection-1';
</script>
<script type="application/ecmascript" xlink:href="svg.min.js"/>
<svg id="graph" class="graph">
<g id="viewport">
<title>dsp::stereo_auto_buffer&lt; N, T &gt;</title>
<!-- Node1 -->
<g id="Node000001" class="node">
<title>Node1</title>
<g id="a_Node000001"><a xlink:title="this is useless for now">
<polygon fill="#999999" stroke="none" points="225,-61 116.5,-61 116.5,0 225,0 225,-61"/>
<text xml:space="preserve" text-anchor="start" x="120.5" y="-47.5" font-family="Helvetica,sans-Serif" font-size="10.00">dsp::stereo_auto_buffer</text>
<text xml:space="preserve" text-anchor="start" x="153.12" y="-36.25" font-family="Helvetica,sans-Serif" font-size="10.00">&lt; N, T &gt;</text>
<text xml:space="preserve" text-anchor="start" x="169.25" y="-21" font-family="Helvetica,sans-Serif" font-size="10.00"> </text>
<text xml:space="preserve" text-anchor="start" x="169.25" y="-5.75" font-family="Helvetica,sans-Serif" font-size="10.00"> </text>
<polygon fill="#666666" stroke="#666666" points="116.5,-32.5 116.5,-32.5 225,-32.5 225,-32.5 116.5,-32.5"/>
<polygon fill="#666666" stroke="#666666" points="116.5,-17.25 116.5,-17.25 225,-17.25 225,-17.25 116.5,-17.25"/>
<polygon fill="none" stroke="#666666" points="116.5,0 116.5,-61 225,-61 225,0 116.5,0"/>
</a>
</g>
</g>
<!-- Node2 -->
<g id="Node000002" class="node">
<title>Node2</title>
<g id="a_Node000002"><a xlink:href="classdsp_1_1auto__buffer.html" target="_top" xlink:title=" ">
<polygon fill="white" stroke="none" points="229.12,-174.25 112.38,-174.25 112.38,-98 229.12,-98 229.12,-174.25"/>
<text xml:space="preserve" text-anchor="start" x="116.38" y="-160.75" font-family="Helvetica,sans-Serif" font-size="10.00">dsp::auto_buffer&lt; N,</text>
<text xml:space="preserve" text-anchor="start" x="116.38" y="-149.5" font-family="Helvetica,sans-Serif" font-size="10.00"> stereo_sample&lt; float &gt; &gt;</text>
<text xml:space="preserve" text-anchor="start" x="169.25" y="-134.25" font-family="Helvetica,sans-Serif" font-size="10.00"> </text>
<text xml:space="preserve" text-anchor="start" x="129.25" y="-119" font-family="Helvetica,sans-Serif" font-size="10.00">+</text>
<text xml:space="preserve" text-anchor="start" x="152.12" y="-119" font-family="Helvetica,sans-Serif" font-size="10.00">data()</text>
<text xml:space="preserve" text-anchor="start" x="129.25" y="-103.75" font-family="Helvetica,sans-Serif" font-size="10.00">+</text>
<text xml:space="preserve" text-anchor="start" x="152.12" y="-103.75" font-family="Helvetica,sans-Serif" font-size="10.00">operator[]()</text>
<polygon fill="#666666" stroke="#666666" points="112.38,-145.75 112.38,-145.75 229.12,-145.75 229.12,-145.75 112.38,-145.75"/>
<polygon fill="#666666" stroke="#666666" points="112.38,-130.5 112.38,-130.5 229.12,-130.5 229.12,-130.5 112.38,-130.5"/>
<polygon fill="none" stroke="#666666" points="112.38,-98 112.38,-174.25 229.12,-174.25 229.12,-98 112.38,-98"/>
</a>
</g>
</g>
<!-- Node2&#45;&gt;Node1 -->
<g id="edge1_Node000001_Node000002" class="edge">
<title>Node2&#45;&gt;Node1</title>
<g id="a_edge1_Node000001_Node000002"><a xlink:title=" ">
<path fill="none" stroke="#63b8ff" d="M170.75,-86.61C170.75,-77.83 170.75,-68.92 170.75,-60.89"/>
<polygon fill="none" stroke="#63b8ff" points="167.25,-86.49 170.75,-96.49 174.25,-86.49 167.25,-86.49"/>
</a>
</g>
</g>
<!-- Node3 -->
<g id="Node000003" class="node">
<title>Node3</title>
<g id="a_Node000003"><a xlink:href="classdsp_1_1fixed__size__buffer.html" target="_top" xlink:title=" ">
<polygon fill="white" stroke="none" points="135.5,-504.75 0,-504.75 0,-443.75 135.5,-443.75 135.5,-504.75"/>
<text xml:space="preserve" text-anchor="start" x="4" y="-491.25" font-family="Helvetica,sans-Serif" font-size="10.00">dsp::fixed_size_buffer</text>
<text xml:space="preserve" text-anchor="start" x="4" y="-480" font-family="Helvetica,sans-Serif" font-size="10.00">&lt; N, stereo_sample&lt; float &gt; &gt;</text>
<text xml:space="preserve" text-anchor="start" x="66.25" y="-464.75" font-family="Helvetica,sans-Serif" font-size="10.00"> </text>
<text xml:space="preserve" text-anchor="start" x="27.56" y="-449.5" font-family="Helvetica,sans-Serif" font-size="10.00">+</text>
<text xml:space="preserve" text-anchor="start" x="61.12" y="-449.5" font-family="Helvetica,sans-Serif" font-size="10.00">size()</text>
<polygon fill="#666666" stroke="#666666" points="0,-476.25 0,-476.25 135.5,-476.25 135.5,-476.25 0,-476.25"/>
<polygon fill="#666666" stroke="#666666" points="0,-461 0,-461 135.5,-461 135.5,-461 0,-461"/>
<polygon fill="none" stroke="#666666" points="0,-443.75 0,-504.75 135.5,-504.75 135.5,-443.75 0,-443.75"/>
</a>
</g>
</g>
<!-- Node3&#45;&gt;Node2 -->
<g id="edge2_Node000002_Node000003" class="edge">
<title>Node3&#45;&gt;Node2</title>
<g id="a_edge2_Node000002_Node000003"><a xlink:title=" ">
<path fill="none" stroke="#63b8ff" d="M69.69,-432.71C73.01,-385.69 81.94,-306.5 105.75,-242.75 114.87,-218.34 129.89,-193.41 143.19,-173.9"/>
<polygon fill="none" stroke="#63b8ff" points="66.22,-432.22 69.06,-442.43 73.2,-432.68 66.22,-432.22"/>
</a>
</g>
</g>
<!-- Node4 -->
<g id="Node000004" class="node">
<title>Node4</title>
<g id="a_Node000004"><a xlink:href="classdsp_1_1fixed__size__buffer.html" target="_top" xlink:title=" ">
<polygon fill="white" stroke="none" points="167.5,-976.5 68,-976.5 68,-915.5 167.5,-915.5 167.5,-976.5"/>
<text xml:space="preserve" text-anchor="start" x="72" y="-963" font-family="Helvetica,sans-Serif" font-size="10.00">dsp::fixed_size_buffer</text>
<text xml:space="preserve" text-anchor="start" x="100.12" y="-951.75" font-family="Helvetica,sans-Serif" font-size="10.00">&lt; N, T &gt;</text>
<text xml:space="preserve" text-anchor="start" x="116.25" y="-936.5" font-family="Helvetica,sans-Serif" font-size="10.00"> </text>
<text xml:space="preserve" text-anchor="start" x="86.56" y="-921.25" font-family="Helvetica,sans-Serif" font-size="10.00">+</text>
<text xml:space="preserve" text-anchor="start" x="111.12" y="-921.25" font-family="Helvetica,sans-Serif" font-size="10.00">size()</text>
<polygon fill="#666666" stroke="#666666" points="68,-948 68,-948 167.5,-948 167.5,-948 68,-948"/>
<polygon fill="#666666" stroke="#666666" points="68,-932.75 68,-932.75 167.5,-932.75 167.5,-932.75 68,-932.75"/>
<polygon fill="none" stroke="#666666" points="68,-915.5 68,-976.5 167.5,-976.5 167.5,-915.5 68,-915.5"/>
</a>
</g>
</g>
<!-- Node4&#45;&gt;Node3 -->
<g id="edge3_Node000003_Node000004" class="edge">
<title>Node4&#45;&gt;Node3</title>
<g id="a_edge3_Node000003_Node000004"><a xlink:title=" ">
<path fill="none" stroke="orange" d="M63.83,-907.03C61.59,-904.02 59.61,-900.84 58,-897.5 -6.77,-763.27 37.45,-576.02 58.43,-504.55"/>
<polygon fill="orange" stroke="orange" points="61.04,-909.16 70.24,-914.42 66.33,-904.57 61.04,-909.16"/>
</a>
</g>
<text xml:space="preserve" text-anchor="start" x="61" y="-885" font-family="Helvetica,sans-Serif" font-size="10.00" fill="grey">&lt; N, stereo_sample</text>
<text xml:space="preserve" text-anchor="start" x="61" y="-869.75" font-family="Helvetica,sans-Serif" font-size="10.00" fill="grey">  &lt; float &gt; &gt;</text>
</g>
<!-- Node8 -->
<g id="Node000008" class="node">
<title>Node8</title>
<g id="a_Node000008"><a xlink:href="classdsp_1_1fixed__size__buffer.html" target="_top" xlink:title=" ">
<polygon fill="white" stroke="none" points="220.5,-715.38 121,-715.38 121,-654.38 220.5,-654.38 220.5,-715.38"/>
<text xml:space="preserve" text-anchor="start" x="125" y="-701.88" font-family="Helvetica,sans-Serif" font-size="10.00">dsp::fixed_size_buffer</text>
<text xml:space="preserve" text-anchor="start" x="147.12" y="-690.62" font-family="Helvetica,sans-Serif" font-size="10.00">&lt; N, float &gt;</text>
<text xml:space="preserve" text-anchor="start" x="169.25" y="-675.38" font-family="Helvetica,sans-Serif" font-size="10.00"> </text>
<text xml:space="preserve" text-anchor="start" x="139.56" y="-660.12" font-family="Helvetica,sans-Serif" font-size="10.00">+</text>
<text xml:space="preserve" text-anchor="start" x="164.12" y="-660.12" font-family="Helvetica,sans-Serif" font-size="10.00">size()</text>
<polygon fill="#666666" stroke="#666666" points="121,-686.88 121,-686.88 220.5,-686.88 220.5,-686.88 121,-686.88"/>
<polygon fill="#666666" stroke="#666666" points="121,-671.62 121,-671.62 220.5,-671.62 220.5,-671.62 121,-671.62"/>
<polygon fill="none" stroke="#666666" points="121,-654.38 121,-715.38 220.5,-715.38 220.5,-654.38 121,-654.38"/>
</a>
</g>
</g>
<!-- Node4&#45;&gt;Node8 -->
<g id="edge8_Node000008_Node000004" class="edge">
<title>Node4&#45;&gt;Node8</title>
<g id="a_edge8_Node000008_Node000004"><a xlink:title=" ">
<path fill="none" stroke="orange" d="M148.97,-905.88C150.41,-903.13 151.69,-900.32 152.75,-897.5 176,-835.73 175.54,-756.87 173.15,-715.03"/>
<polygon fill="orange" stroke="orange" points="146.1,-903.86 143.99,-914.24 152.11,-907.44 146.1,-903.86"/>
</a>
</g>
<text xml:space="preserve" text-anchor="start" x="164.33" y="-877.38" font-family="Helvetica,sans-Serif" font-size="10.00" fill="grey">&lt; N, float &gt;</text>
</g>
<!-- Node5 -->
<g id="Node000005" class="node">
<title>Node5</title>
<g id="a_Node000005"><a xlink:href="structdsp_1_1stereo__sample.html" target="_top" xlink:title=" ">
<polygon fill="white" stroke="none" points="339.75,-425.75 247.75,-425.75 247.75,-242.75 339.75,-242.75 339.75,-425.75"/>
<text xml:space="preserve" text-anchor="start" x="251.75" y="-412.25" font-family="Helvetica,sans-Serif" font-size="10.00">dsp::stereo_sample</text>
<text xml:space="preserve" text-anchor="start" x="276.5" y="-401" font-family="Helvetica,sans-Serif" font-size="10.00">&lt; float &gt;</text>
<text xml:space="preserve" text-anchor="start" x="252.81" y="-385.75" font-family="Helvetica,sans-Serif" font-size="10.00">+</text>
<text xml:space="preserve" text-anchor="start" x="263.88" y="-385.75" font-family="Helvetica,sans-Serif" font-size="10.00">left</text>
<text xml:space="preserve" text-anchor="start" x="252.81" y="-370.5" font-family="Helvetica,sans-Serif" font-size="10.00">+</text>
<text xml:space="preserve" text-anchor="start" x="263.88" y="-370.5" font-family="Helvetica,sans-Serif" font-size="10.00">right</text>
<text xml:space="preserve" text-anchor="start" x="252.81" y="-355.25" font-family="Helvetica,sans-Serif" font-size="10.00">+</text>
<text xml:space="preserve" text-anchor="start" x="263.88" y="-355.25" font-family="Helvetica,sans-Serif" font-size="10.00">stereo_sample()</text>
<text xml:space="preserve" text-anchor="start" x="252.81" y="-340" font-family="Helvetica,sans-Serif" font-size="10.00">+</text>
<text xml:space="preserve" text-anchor="start" x="263.88" y="-340" font-family="Helvetica,sans-Serif" font-size="10.00">operator=()</text>
<text xml:space="preserve" text-anchor="start" x="252.81" y="-324.75" font-family="Helvetica,sans-Serif" font-size="10.00">+</text>
<text xml:space="preserve" text-anchor="start" x="263.88" y="-324.75" font-family="Helvetica,sans-Serif" font-size="10.00">operator*=()</text>
<text xml:space="preserve" text-anchor="start" x="252.81" y="-309.5" font-family="Helvetica,sans-Serif" font-size="10.00">+</text>
<text xml:space="preserve" text-anchor="start" x="263.88" y="-309.5" font-family="Helvetica,sans-Serif" font-size="10.00">operator+=()</text>
<text xml:space="preserve" text-anchor="start" x="252.81" y="-294.25" font-family="Helvetica,sans-Serif" font-size="10.00">+</text>
<text xml:space="preserve" text-anchor="start" x="263.88" y="-294.25" font-family="Helvetica,sans-Serif" font-size="10.00">operator&#45;=()</text>
<text xml:space="preserve" text-anchor="start" x="252.81" y="-279" font-family="Helvetica,sans-Serif" font-size="10.00">+</text>
<text xml:space="preserve" text-anchor="start" x="263.88" y="-279" font-family="Helvetica,sans-Serif" font-size="10.00">operator*()</text>
<text xml:space="preserve" text-anchor="start" x="252.81" y="-263.75" font-family="Helvetica,sans-Serif" font-size="10.00">+</text>
<text xml:space="preserve" text-anchor="start" x="263.88" y="-263.75" font-family="Helvetica,sans-Serif" font-size="10.00">operator+()</text>
<text xml:space="preserve" text-anchor="start" x="252.81" y="-248.5" font-family="Helvetica,sans-Serif" font-size="10.00">+</text>
<text xml:space="preserve" text-anchor="start" x="263.88" y="-248.5" font-family="Helvetica,sans-Serif" font-size="10.00">operator&#45;()</text>
<polygon fill="#666666" stroke="#666666" points="247.75,-397.25 247.75,-397.25 339.75,-397.25 339.75,-397.25 247.75,-397.25"/>
<polygon fill="#666666" stroke="#666666" points="247.75,-366.75 247.75,-366.75 261.88,-366.75 261.88,-366.75 247.75,-366.75"/>
<polygon fill="#666666" stroke="#666666" points="261.88,-366.75 261.88,-366.75 339.75,-366.75 339.75,-366.75 261.88,-366.75"/>
<polygon fill="none" stroke="#666666" points="247.75,-242.75 247.75,-425.75 339.75,-425.75 339.75,-242.75 247.75,-242.75"/>
</a>
</g>
</g>
<!-- Node5&#45;&gt;Node2 -->
<g id="edge4_Node000002_Node000005" class="edge">
<title>Node5&#45;&gt;Node2</title>
<g id="a_edge4_Node000002_Node000005"><a xlink:title=" ">
<path fill="none" stroke="#63b8ff" d="M287.52,-242.83C283.17,-224.91 276.34,-207.07 265.75,-192.25 258.76,-182.46 249.44,-174.15 239.37,-167.18"/>
<polygon fill="none" stroke="#63b8ff" points="239.57,-167.31 232.36,-167.48 229.43,-160.89 236.64,-160.72 239.57,-167.31"/>
</a>
</g>
<text xml:space="preserve" text-anchor="start" x="284.63" y="-204.62" font-family="Helvetica,sans-Serif" font-size="10.00" fill="grey">&#45;buf</text>
</g>
<!-- Node6 -->
<g id="Node000006" class="node">
<title>Node6</title>
<g id="a_Node000006"><a xlink:href="structdsp_1_1stereo__sample.html" target="_top" xlink:title=" ">
<polygon fill="white" stroke="none" points="353,-847 238.5,-847 238.5,-522.75 353,-522.75 353,-847"/>
<text xml:space="preserve" text-anchor="start" x="242.5" y="-833.5" font-family="Helvetica,sans-Serif" font-size="10.00">dsp::stereo_sample&lt; T &gt;</text>
<text xml:space="preserve" text-anchor="start" x="249.19" y="-818.25" font-family="Helvetica,sans-Serif" font-size="10.00">+</text>
<text xml:space="preserve" text-anchor="start" x="265.88" y="-818.25" font-family="Helvetica,sans-Serif" font-size="10.00">left</text>
<text xml:space="preserve" text-anchor="start" x="249.19" y="-803" font-family="Helvetica,sans-Serif" font-size="10.00">+</text>
<text xml:space="preserve" text-anchor="start" x="265.88" y="-803" font-family="Helvetica,sans-Serif" font-size="10.00">right</text>
<text xml:space="preserve" text-anchor="start" x="249.19" y="-787.75" font-family="Helvetica,sans-Serif" font-size="10.00">+</text>
<text xml:space="preserve" text-anchor="start" x="265.88" y="-787.75" font-family="Helvetica,sans-Serif" font-size="10.00">stereo_sample()</text>
<text xml:space="preserve" text-anchor="start" x="249.19" y="-772.5" font-family="Helvetica,sans-Serif" font-size="10.00">+</text>
<text xml:space="preserve" text-anchor="start" x="265.88" y="-772.5" font-family="Helvetica,sans-Serif" font-size="10.00">stereo_sample()</text>
<text xml:space="preserve" text-anchor="start" x="249.19" y="-757.25" font-family="Helvetica,sans-Serif" font-size="10.00">+</text>
<text xml:space="preserve" text-anchor="start" x="265.88" y="-757.25" font-family="Helvetica,sans-Serif" font-size="10.00">stereo_sample()</text>
<text xml:space="preserve" text-anchor="start" x="249.19" y="-742" font-family="Helvetica,sans-Serif" font-size="10.00">+</text>
<text xml:space="preserve" text-anchor="start" x="265.88" y="-742" font-family="Helvetica,sans-Serif" font-size="10.00">stereo_sample()</text>
<text xml:space="preserve" text-anchor="start" x="249.19" y="-726.75" font-family="Helvetica,sans-Serif" font-size="10.00">+</text>
<text xml:space="preserve" text-anchor="start" x="265.88" y="-726.75" font-family="Helvetica,sans-Serif" font-size="10.00">operator=()</text>
<text xml:space="preserve" text-anchor="start" x="249.19" y="-711.5" font-family="Helvetica,sans-Serif" font-size="10.00">+</text>
<text xml:space="preserve" text-anchor="start" x="265.88" y="-711.5" font-family="Helvetica,sans-Serif" font-size="10.00">operator=()</text>
<text xml:space="preserve" text-anchor="start" x="249.19" y="-696.25" font-family="Helvetica,sans-Serif" font-size="10.00">+</text>
<text xml:space="preserve" text-anchor="start" x="265.88" y="-696.25" font-family="Helvetica,sans-Serif" font-size="10.00">operator*=()</text>
<text xml:space="preserve" text-anchor="start" x="249.19" y="-681" font-family="Helvetica,sans-Serif" font-size="10.00">+</text>
<text xml:space="preserve" text-anchor="start" x="265.88" y="-681" font-family="Helvetica,sans-Serif" font-size="10.00">operator+=()</text>
<text xml:space="preserve" text-anchor="start" x="249.19" y="-665.75" font-family="Helvetica,sans-Serif" font-size="10.00">+</text>
<text xml:space="preserve" text-anchor="start" x="265.88" y="-665.75" font-family="Helvetica,sans-Serif" font-size="10.00">operator&#45;=()</text>
<text xml:space="preserve" text-anchor="start" x="249.19" y="-650.5" font-family="Helvetica,sans-Serif" font-size="10.00">+</text>
<text xml:space="preserve" text-anchor="start" x="265.88" y="-650.5" font-family="Helvetica,sans-Serif" font-size="10.00">operator*()</text>
<text xml:space="preserve" text-anchor="start" x="249.19" y="-635.25" font-family="Helvetica,sans-Serif" font-size="10.00">+</text>
<text xml:space="preserve" text-anchor="start" x="265.88" y="-635.25" font-family="Helvetica,sans-Serif" font-size="10.00">operator+()</text>
<text xml:space="preserve" text-anchor="start" x="249.19" y="-620" font-family="Helvetica,sans-Serif" font-size="10.00">+</text>
<text xml:space="preserve" text-anchor="start" x="265.88" y="-620" font-family="Helvetica,sans-Serif" font-size="10.00">operator&#45;()</text>
<text xml:space="preserve" text-anchor="start" x="249.19" y="-604.75" font-family="Helvetica,sans-Serif" font-size="10.00">+</text>
<text xml:space="preserve" text-anchor="start" x="265.88" y="-604.75" font-family="Helvetica,sans-Serif" font-size="10.00">operator+()</text>
<text xml:space="preserve" text-anchor="start" x="249.19" y="-589.5" font-family="Helvetica,sans-Serif" font-size="10.00">+</text>
<text xml:space="preserve" text-anchor="start" x="265.88" y="-589.5" font-family="Helvetica,sans-Serif" font-size="10.00">operator&#45;()</text>
<text xml:space="preserve" text-anchor="start" x="249.19" y="-574.25" font-family="Helvetica,sans-Serif" font-size="10.00">+</text>
<text xml:space="preserve" text-anchor="start" x="265.88" y="-574.25" font-family="Helvetica,sans-Serif" font-size="10.00">operator+()</text>
<text xml:space="preserve" text-anchor="start" x="249.19" y="-559" font-family="Helvetica,sans-Serif" font-size="10.00">+</text>
<text xml:space="preserve" text-anchor="start" x="265.88" y="-559" font-family="Helvetica,sans-Serif" font-size="10.00">operator&#45;()</text>
<text xml:space="preserve" text-anchor="start" x="249.19" y="-543.75" font-family="Helvetica,sans-Serif" font-size="10.00">+</text>
<text xml:space="preserve" text-anchor="start" x="265.88" y="-543.75" font-family="Helvetica,sans-Serif" font-size="10.00">operator+()</text>
<text xml:space="preserve" text-anchor="start" x="249.19" y="-528.5" font-family="Helvetica,sans-Serif" font-size="10.00">+</text>
<text xml:space="preserve" text-anchor="start" x="265.88" y="-528.5" font-family="Helvetica,sans-Serif" font-size="10.00">operator&#45;()</text>
<polygon fill="#666666" stroke="#666666" points="238.5,-829.75 238.5,-829.75 353,-829.75 353,-829.75 238.5,-829.75"/>
<polygon fill="#666666" stroke="#666666" points="238.5,-799.25 238.5,-799.25 263.88,-799.25 263.88,-799.25 238.5,-799.25"/>
<polygon fill="#666666" stroke="#666666" points="263.88,-799.25 263.88,-799.25 353,-799.25 353,-799.25 263.88,-799.25"/>
<polygon fill="none" stroke="#666666" points="238.5,-522.75 238.5,-847 353,-847 353,-522.75 238.5,-522.75"/>
</a>
</g>
</g>
<!-- Node6&#45;&gt;Node5 -->
<g id="edge5_Node000005_Node000006" class="edge">
<title>Node6&#45;&gt;Node5</title>
<g id="a_edge5_Node000005_Node000006"><a xlink:title=" ">
<path fill="none" stroke="orange" d="M294.76,-511.47C294.59,-481.81 294.42,-452.08 294.27,-425.71"/>
<polygon fill="orange" stroke="orange" points="291.26,-511.34 294.82,-521.32 298.26,-511.3 291.26,-511.34"/>
</a>
</g>
<text xml:space="preserve" text-anchor="start" x="297.69" y="-470.38" font-family="Helvetica,sans-Serif" font-size="10.00" fill="grey">&lt; float &gt;</text>
</g>
<!-- Node7 -->
<g id="Node000007" class="node">
<title>Node7</title>
<g id="a_Node000007"><a xlink:href="classdsp_1_1auto__buffer.html" target="_top" xlink:title=" ">
<polygon fill="white" stroke="none" points="226.5,-374.38 115,-374.38 115,-294.12 226.5,-294.12 226.5,-374.38"/>
<text xml:space="preserve" text-anchor="start" x="119" y="-360.88" font-family="Helvetica,sans-Serif" font-size="10.00">dsp::auto_buffer&lt; N, T &gt;</text>
<text xml:space="preserve" text-anchor="start" x="132.06" y="-345.62" font-family="Helvetica,sans-Serif" font-size="10.00">&#45;</text>
<text xml:space="preserve" text-anchor="start" x="152.12" y="-345.62" font-family="Helvetica,sans-Serif" font-size="10.00">buf</text>
<text xml:space="preserve" text-anchor="start" x="130.56" y="-330.38" font-family="Helvetica,sans-Serif" font-size="10.00">+</text>
<text xml:space="preserve" text-anchor="start" x="152.12" y="-330.38" font-family="Helvetica,sans-Serif" font-size="10.00">data()</text>
<text xml:space="preserve" text-anchor="start" x="130.56" y="-315.12" font-family="Helvetica,sans-Serif" font-size="10.00">+</text>
<text xml:space="preserve" text-anchor="start" x="152.12" y="-315.12" font-family="Helvetica,sans-Serif" font-size="10.00">operator[]()</text>
<text xml:space="preserve" text-anchor="start" x="130.56" y="-299.88" font-family="Helvetica,sans-Serif" font-size="10.00">+</text>
<text xml:space="preserve" text-anchor="start" x="152.12" y="-299.88" font-family="Helvetica,sans-Serif" font-size="10.00">operator[]()</text>
<polygon fill="#666666" stroke="#666666" points="115,-357.12 115,-357.12 226.5,-357.12 226.5,-357.12 115,-357.12"/>
<polygon fill="#666666" stroke="#666666" points="115,-341.88 115,-341.88 150.12,-341.88 150.12,-341.88 115,-341.88"/>
<polygon fill="#666666" stroke="#666666" points="150.12,-341.88 150.12,-341.88 226.5,-341.88 226.5,-341.88 150.12,-341.88"/>
<polygon fill="none" stroke="#666666" points="115,-294.12 115,-374.38 226.5,-374.38 226.5,-294.12 115,-294.12"/>
</a>
</g>
</g>
<!-- Node7&#45;&gt;Node2 -->
<g id="edge6_Node000002_Node000007" class="edge">
<title>Node7&#45;&gt;Node2</title>
<g id="a_edge6_Node000002_Node000007"><a xlink:title=" ">
<path fill="none" stroke="orange" d="M170.75,-283.39C170.75,-249.37 170.75,-205.03 170.75,-174.13"/>
<polygon fill="orange" stroke="orange" points="167.25,-282.99 170.75,-292.99 174.25,-282.99 167.25,-282.99"/>
</a>
</g>
<text xml:space="preserve" text-anchor="start" x="173.75" y="-212.25" font-family="Helvetica,sans-Serif" font-size="10.00" fill="grey">&lt; N, stereo_sample</text>
<text xml:space="preserve" text-anchor="start" x="173.75" y="-197" font-family="Helvetica,sans-Serif" font-size="10.00" fill="grey">  &lt; float &gt; &gt;</text>
</g>
<!-- Node8&#45;&gt;Node7 -->
<g id="edge7_Node000007_Node000008" class="edge">
<title>Node8&#45;&gt;Node7</title>
<g id="a_edge7_Node000007_Node000008"><a xlink:title=" ">
<path fill="none" stroke="#63b8ff" d="M170.75,-643C170.75,-575.24 170.75,-440.55 170.75,-374.13"/>
<polygon fill="none" stroke="#63b8ff" points="167.25,-642.94 170.75,-652.94 174.25,-642.94 167.25,-642.94"/>
</a>
</g>
</g>
</g>
</svg>

<g id="navigator" transform="translate(0 0)" fill="#404254">
  <rect fill="#f2f5e9" fill-opacity="0.5" stroke="#606060" stroke-width=".5" x="0" y="0" width="60" height="60"/>
  <use id="zoomplus" xlink:href="#zoomPlus" x="17" y="9" onmousedown="handleZoom(evt,'in')"/>
  <use id="zoomminus" xlink:href="#zoomMin" x="42" y="9" onmousedown="handleZoom(evt,'out')"/>
  <use id="reset" xlink:href="#resetDef" x="30" y="36" onmousedown="handleReset()"/>
   <use id="arrowup" xlink:href="#arrowUp" x="0" y="0" onmousedown="handlePan(0,-1)"/>
  <use id="arrowright" xlink:href="#arrowRight" x="0" y="0" onmousedown="handlePan(1,0)"/>
  <use id="arrowdown" xlink:href="#arrowDown" x="0" y="0" onmousedown="handlePan(0,1)"/>
  <use id="arrowleft" xlink:href="#arrowLeft" x="0" y="0" onmousedown="handlePan(-1,0)"/>
</g>
<svg viewBox="0 0 15 15" width="100%" height="30px" preserveAspectRatio="xMaxYMin meet">
 <g id="arrow_out" transform="scale(0.3 0.3)">
  <a xlink:href="classdsp_1_1stereo__auto__buffer__coll__graph_org.svg" target="_base">
   <rect id="button" ry="5" rx="5" y="6" x="6" height="38" width="38"
        fill="#f2f5e9" fill-opacity="0.5" stroke="#606060" stroke-width="1.0"/>
   <path id="arrow"
     d="M 11.500037,31.436501 C 11.940474,20.09759 22.043105,11.32322 32.158766,21.979434 L 37.068811,17.246167 C 37.068811,17.246167 37.088388,32 37.088388,32 L 22.160133,31.978069 C 22.160133,31.978069 26.997745,27.140456 26.997745,27.140456 C 18.528582,18.264221 13.291696,25.230495 11.500037,31.436501 z"
     style="fill:#404040;"/>
  </a>
 </g>
</svg>

<style type='text/css'>
<![CDATA[
[data-mouse-over-selected='false'] { opacity: 0.7; }
[data-mouse-over-selected='true']  { opacity: 1.0; }
]]>
</style>
<script type="application/ecmascript"><![CDATA[
document.addEventListener('DOMContentLoaded', (event) => {
  highlightEdges();
  highlightAdjacentNodes();
});
]]></script>
</svg>
