<?xml version="1.0" encoding="UTF-8" standalone="no"?>
<!DOCTYPE svg PUBLIC "-//W3C//DTD SVG 1.1//EN"
 "http://www.w3.org/Graphics/SVG/1.1/DTD/svg11.dtd">
<!-- Generated by graphviz version 14.0.2 (0)
 -->
<!-- Title: juce::TextEditor::pageUp Pages: 1 -->
<!--zoomable 363 -->

<svg id="main" version="1.1" xmlns="http://www.w3.org/2000/svg" xmlns:xlink="http://www.w3.org/1999/xlink" xml:space="preserve" onload="init(evt)">

<style type="text/css"><![CDATA[
.node, .edge {opacity: 0.7;}
.node.selected, .edge.selected {opacity: 1;}
.edge:hover path { stroke: red; }
.edge:hover polygon { stroke: red; fill: red; }
]]></style>

<defs>
  <circle id="rim" cx="0" cy="0" r="7"/>
  <circle id="rim2" cx="0" cy="0" r="3.5"/>
  <g id="zoomPlus">
    <use xlink:href="#rim" fill="#404040"><set attributeName="fill" to="#808080" begin="zoomplus.mouseover" end="zoomplus.mouseout"/></use>
    <path d="M-4,0h8M0,-4v8" fill="none" stroke="white" stroke-width="1.5" pointer-events="none"/>
  </g>
  <g id="zoomMin">
    <use xlink:href="#rim" fill="#404040"><set attributeName="fill" to="#808080" begin="zoomminus.mouseover" end="zoomminus.mouseout"/></use>
    <path d="M-4,0h8" fill="none" stroke="white" stroke-width="1.5" pointer-events="none"/>
  </g>
  <g id="arrowUp" transform="translate(30 24)">
    <use xlink:href="#rim"/>
    <path pointer-events="none" fill="none" stroke="white" stroke-width="1.5" d="M0,-3.0v7 M-2.5,-0.5L0,-3.0L2.5,-0.5"/>
  </g>
  <g id="arrowRight" transform="rotate(90) translate(36 -43)">
    <use xlink:href="#rim"/>
    <path pointer-events="none" fill="none" stroke="white" stroke-width="1.5" d="M0,-3.0v7 M-2.5,-0.5L0,-3.0L2.5,-0.5"/>
  </g>
  <g id="arrowDown" transform="rotate(180) translate(-30 -48)">
    <use xlink:href="#rim"/>
    <path pointer-events="none" fill="none" stroke="white" stroke-width="1.5" d="M0,-3.0v7 M-2.5,-0.5L0,-3.0L2.5,-0.5"/>
  </g>
  <g id="arrowLeft" transform="rotate(270) translate(-36 17)">
    <use xlink:href="#rim"/>
    <path pointer-events="none" fill="none" stroke="white" stroke-width="1.5" d="M0,-3.0v7 M-2.5,-0.5L0,-3.0L2.5,-0.5"/>
  </g>
  <g id="resetDef">
    <use xlink:href="#rim2" fill="#404040"><set attributeName="fill" to="#808080" begin="reset.mouseover" end="reset.mouseout"/></use>
  </g>
</defs>
<script type="application/ecmascript">
var viewWidth = 818;
var viewHeight = 363;
var sectionId = 'dynsection-155';
</script>
<script type="application/ecmascript" xlink:href="svg.min.js"/>
<svg id="graph" class="graph">
<g id="viewport">
<title>juce::TextEditor::pageUp</title>
<!-- Node1 -->
<g id="Node000001" class="node">
<title>Node1</title>
<g id="a_Node000001"><a xlink:title=" ">
<polygon fill="#999999" stroke="#666666" points="120.25,-177.25 0,-177.25 0,-158 120.25,-158 120.25,-177.25"/>
<text xml:space="preserve" text-anchor="middle" x="60.12" y="-163.75" font-family="Helvetica,sans-Serif" font-size="10.00">juce::TextEditor::pageUp</text>
</a>
</g>
</g>
<!-- Node1&#45;&gt;Node1 -->
<g id="edge28_Node000001_Node000001" class="edge">
<title>Node1&#45;&gt;Node1</title>
<g id="a_edge28_Node000001_Node000001"><a xlink:title=" ">
<path fill="none" stroke="#63b8ff" d="M34.61,-177.54C22.97,-186.15 31.47,-195.25 60.12,-195.25 76.24,-195.25 85.98,-192.37 89.35,-188.32"/>
<polygon fill="#63b8ff" stroke="#63b8ff" points="92.7,-187.29 86.14,-178.97 86.08,-189.56 92.7,-187.29"/>
</a>
</g>
</g>
<!-- Node2 -->
<g id="Node000002" class="node">
<title>Node2</title>
<g id="a_Node000002"><a xlink:href="classjuce_1_1TextEditor.html#aee6e8b53b6ac0aa716f205058e77d9be" target="_top" xlink:title=" ">
<polygon fill="white" stroke="#666666" points="454.5,-290.88 331.25,-290.88 331.25,-260.38 454.5,-260.38 454.5,-290.88"/>
<text xml:space="preserve" text-anchor="start" x="339.25" y="-277.38" font-family="Helvetica,sans-Serif" font-size="10.00">juce::TextEditor::getCaret</text>
<text xml:space="preserve" text-anchor="middle" x="392.88" y="-266.12" font-family="Helvetica,sans-Serif" font-size="10.00">RectangleFloat</text>
</a>
</g>
</g>
<!-- Node1&#45;&gt;Node2 -->
<g id="edge1_Node000001_Node000002" class="edge">
<title>Node1&#45;&gt;Node2</title>
<g id="a_edge1_Node000001_Node000002"><a xlink:title=" ">
<path fill="none" stroke="#63b8ff" d="M68.69,-177.7C83.27,-196.27 117.31,-235.55 156.25,-252.62 207.74,-275.2 271.47,-280.22 319.67,-280"/>
<polygon fill="#63b8ff" stroke="#63b8ff" points="319.48,-283.5 329.43,-279.87 319.39,-276.5 319.48,-283.5"/>
</a>
</g>
</g>
<!-- Node7 -->
<g id="Node000007" class="node">
<title>Node7</title>
<g id="a_Node000007"><a xlink:href="classjuce_1_1TextEditor.html#a9fa9cb0b08153fb4356d0d7d299b70d0" target="_top" xlink:title=" ">
<polygon fill="white" stroke="#666666" points="452.25,-223.88 333.5,-223.88 333.5,-193.38 452.25,-193.38 452.25,-223.88"/>
<text xml:space="preserve" text-anchor="start" x="341.5" y="-210.38" font-family="Helvetica,sans-Serif" font-size="10.00">juce::TextEditor::indexAt</text>
<text xml:space="preserve" text-anchor="middle" x="392.88" y="-199.12" font-family="Helvetica,sans-Serif" font-size="10.00">Position</text>
</a>
</g>
</g>
<!-- Node1&#45;&gt;Node7 -->
<g id="edge7_Node000001_Node000007" class="edge">
<title>Node1&#45;&gt;Node7</title>
<g id="a_edge7_Node000001_Node000007"><a xlink:title=" ">
<path fill="none" stroke="#63b8ff" d="M120.65,-170.44C166.98,-173.15 232.82,-178.11 290,-186.62 300.43,-188.18 311.38,-190.16 322.09,-192.3"/>
<polygon fill="#63b8ff" stroke="#63b8ff" points="321.14,-195.68 331.64,-194.27 322.56,-188.82 321.14,-195.68"/>
</a>
</g>
</g>
<!-- Node9 -->
<g id="Node000009" class="node">
<title>Node9</title>
<g id="a_Node000009"><a xlink:href="classjuce_1_1TextEditor.html#ae4d449754acbba1309a0fbcba6082210" target="_top" xlink:title=" ">
<polygon fill="white" stroke="#666666" points="290,-83.25 156.25,-83.25 156.25,-64 290,-64 290,-83.25"/>
<text xml:space="preserve" text-anchor="middle" x="223.12" y="-69.75" font-family="Helvetica,sans-Serif" font-size="10.00">juce::TextEditor::isMultiLine</text>
</a>
</g>
</g>
<!-- Node1&#45;&gt;Node9 -->
<g id="edge13_Node000001_Node000009" class="edge">
<title>Node1&#45;&gt;Node9</title>
<g id="a_edge13_Node000001_Node000009"><a xlink:title=" ">
<path fill="none" stroke="#63b8ff" d="M78.35,-157.57C106.44,-141.17 162.27,-108.57 195.49,-89.17"/>
<polygon fill="#63b8ff" stroke="#63b8ff" points="196.84,-92.44 203.71,-84.38 193.31,-86.39 196.84,-92.44"/>
</a>
</g>
</g>
<!-- Node10 -->
<g id="Node000010" class="node">
<title>Node10</title>
<g id="a_Node000010"><a xlink:href="classjuce_1_1TextEditor.html#abd43a5505cd44ff907638502cdd49dd2" target="_top" xlink:title=" ">
<polygon fill="white" stroke="#666666" points="290,-225.88 156.25,-225.88 156.25,-195.38 290,-195.38 290,-225.88"/>
<text xml:space="preserve" text-anchor="start" x="164.25" y="-212.38" font-family="Helvetica,sans-Serif" font-size="10.00">juce::TextEditor::moveCaret</text>
<text xml:space="preserve" text-anchor="middle" x="223.12" y="-201.12" font-family="Helvetica,sans-Serif" font-size="10.00">ToStartOfLine</text>
</a>
</g>
</g>
<!-- Node1&#45;&gt;Node10 -->
<g id="edge15_Node000001_Node000010" class="edge">
<title>Node1&#45;&gt;Node10</title>
<g id="a_edge15_Node000001_Node000010"><a xlink:title=" ">
<path fill="none" stroke="#63b8ff" d="M98.87,-177.71C114.8,-181.96 133.88,-187.06 152.21,-191.95"/>
<polygon fill="#63b8ff" stroke="#63b8ff" points="151.16,-195.3 161.73,-194.49 152.97,-188.53 151.16,-195.3"/>
</a>
</g>
</g>
<!-- Node11 -->
<g id="Node000011" class="node">
<title>Node11</title>
<g id="a_Node000011"><a xlink:href="classjuce_1_1TextEditor.html#ae58d83de40728ec715051ccdf2005995" target="_top" xlink:title=" ">
<polygon fill="white" stroke="#666666" points="459.75,-134.88 326,-134.88 326,-104.38 459.75,-104.38 459.75,-134.88"/>
<text xml:space="preserve" text-anchor="start" x="334" y="-121.38" font-family="Helvetica,sans-Serif" font-size="10.00">juce::TextEditor::moveCaret</text>
<text xml:space="preserve" text-anchor="middle" x="392.88" y="-110.12" font-family="Helvetica,sans-Serif" font-size="10.00">WithTransaction</text>
</a>
</g>
</g>
<!-- Node1&#45;&gt;Node11 -->
<g id="edge27_Node000001_Node000011" class="edge">
<title>Node1&#45;&gt;Node11</title>
<g id="a_edge27_Node000001_Node000011"><a xlink:title=" ">
<path fill="none" stroke="#63b8ff" d="M120.64,-158.99C174.89,-151.11 255.37,-139.44 314.57,-130.84"/>
<polygon fill="#63b8ff" stroke="#63b8ff" points="314.85,-134.34 324.25,-129.44 313.85,-127.41 314.85,-134.34"/>
</a>
</g>
</g>
<!-- Node2&#45;&gt;Node2 -->
<g id="edge2_Node000002_Node000002" class="edge">
<title>Node2&#45;&gt;Node2</title>
<g id="a_edge2_Node000002_Node000002"><a xlink:title=" ">
<path fill="none" stroke="#63b8ff" d="M362.8,-291.36C356.66,-300.43 366.68,-308.88 392.88,-308.88 407.2,-308.88 416.69,-306.35 421.34,-302.58"/>
<polygon fill="#63b8ff" stroke="#63b8ff" points="424.78,-303.26 422.74,-292.86 417.85,-302.26 424.78,-303.26"/>
</a>
</g>
</g>
<!-- Node3 -->
<g id="Node000003" class="node">
<title>Node3</title>
<g id="a_Node000003"><a xlink:href="classjuce_1_1TextEditor.html#abcc73bddefdce2b8c2dfdde2985b0441" target="_top" xlink:title=" ">
<polygon fill="white" stroke="#666666" points="633.62,-336.88 513.38,-336.88 513.38,-306.38 633.62,-306.38 633.62,-336.88"/>
<text xml:space="preserve" text-anchor="start" x="521.38" y="-323.38" font-family="Helvetica,sans-Serif" font-size="10.00">juce::TextEditor::getChar</text>
<text xml:space="preserve" text-anchor="middle" x="573.5" y="-312.12" font-family="Helvetica,sans-Serif" font-size="10.00">Position</text>
</a>
</g>
</g>
<!-- Node2&#45;&gt;Node3 -->
<g id="edge3_Node000002_Node000003" class="edge">
<title>Node2&#45;&gt;Node3</title>
<g id="a_edge3_Node000002_Node000003"><a xlink:title=" ">
<path fill="none" stroke="#63b8ff" d="M454.85,-291.33C470.12,-295.26 486.63,-299.51 502.31,-303.55"/>
<polygon fill="#63b8ff" stroke="#63b8ff" points="500.99,-306.82 511.55,-305.93 502.73,-300.04 500.99,-306.82"/>
</a>
</g>
</g>
<!-- Node3&#45;&gt;Node3 -->
<g id="edge4_Node000003_Node000003" class="edge">
<title>Node3&#45;&gt;Node3</title>
<g id="a_edge4_Node000003_Node000003"><a xlink:title=" ">
<path fill="none" stroke="#63b8ff" d="M542.49,-337.36C536.16,-346.43 546.5,-354.88 573.5,-354.88 588.27,-354.88 598.05,-352.35 602.85,-348.58"/>
<polygon fill="#63b8ff" stroke="#63b8ff" points="606.28,-349.26 604.29,-338.86 599.36,-348.24 606.28,-349.26"/>
</a>
</g>
</g>
<!-- Node4 -->
<g id="Node000004" class="node">
<title>Node4</title>
<g id="a_Node000004"><a xlink:href="classjuce_1_1TextEditor.html#afdca8f5f6b1d1fbe32cf843fd81347e1" target="_top" xlink:title=" ">
<polygon fill="#fff0f0" stroke="red" points="809.75,-314.88 687.25,-314.88 687.25,-284.38 809.75,-284.38 809.75,-314.88"/>
<text xml:space="preserve" text-anchor="start" x="695.25" y="-301.38" font-family="Helvetica,sans-Serif" font-size="10.00">juce::TextEditor::getWord</text>
<text xml:space="preserve" text-anchor="middle" x="748.5" y="-290.12" font-family="Helvetica,sans-Serif" font-size="10.00">WrapWidth</text>
</a>
</g>
</g>
<!-- Node3&#45;&gt;Node4 -->
<g id="edge5_Node000003_Node000004" class="edge">
<title>Node3&#45;&gt;Node4</title>
<g id="a_edge5_Node000003_Node000004"><a xlink:title=" ">
<path fill="none" stroke="#63b8ff" d="M634.04,-314.05C647.53,-312.34 662,-310.5 675.94,-308.73"/>
<polygon fill="#63b8ff" stroke="#63b8ff" points="675.99,-312.25 685.47,-307.51 675.11,-305.3 675.99,-312.25"/>
</a>
</g>
</g>
<!-- Node4&#45;&gt;Node4 -->
<g id="edge6_Node000004_Node000004" class="edge">
<title>Node4&#45;&gt;Node4</title>
<g id="a_edge6_Node000004_Node000004"><a xlink:title=" ">
<path fill="none" stroke="#63b8ff" d="M717.49,-315.36C711.16,-324.43 721.5,-332.88 748.5,-332.88 763.27,-332.88 773.05,-330.35 777.85,-326.58"/>
<polygon fill="#63b8ff" stroke="#63b8ff" points="781.28,-327.26 779.29,-316.86 774.36,-326.24 781.28,-327.26"/>
</a>
</g>
</g>
<!-- Node7&#45;&gt;Node4 -->
<g id="edge10_Node000007_Node000004" class="edge">
<title>Node7&#45;&gt;Node4</title>
<g id="a_edge10_Node000007_Node000004"><a xlink:title=" ">
<path fill="none" stroke="#63b8ff" d="M419.74,-224.37C439.79,-235.87 468.63,-250.91 495.75,-259.62 554.7,-278.56 624.42,-288.75 675.52,-294.09"/>
<polygon fill="#63b8ff" stroke="#63b8ff" points="674.98,-297.56 685.28,-295.07 675.67,-290.59 674.98,-297.56"/>
</a>
</g>
</g>
<!-- Node7&#45;&gt;Node7 -->
<g id="edge11_Node000007_Node000007" class="edge">
<title>Node7&#45;&gt;Node7</title>
<g id="a_edge11_Node000007_Node000007"><a xlink:title=" ">
<path fill="none" stroke="#63b8ff" d="M362.8,-224.36C356.66,-233.43 366.68,-241.88 392.88,-241.88 407.2,-241.88 416.69,-239.35 421.34,-235.58"/>
<polygon fill="#63b8ff" stroke="#63b8ff" points="424.78,-236.26 422.74,-225.86 417.85,-235.26 424.78,-236.26"/>
</a>
</g>
</g>
<!-- Node8 -->
<g id="Node000008" class="node">
<title>Node8</title>
<g id="a_Node000008"><a xlink:href="classjuce_1_1TextEditor.html#a52e8dc838fa191351893a6cac0e59711" target="_top" xlink:title=" ">
<polygon fill="white" stroke="#666666" points="634.38,-232.88 512.62,-232.88 512.62,-202.38 634.38,-202.38 634.38,-232.88"/>
<text xml:space="preserve" text-anchor="start" x="520.62" y="-219.38" font-family="Helvetica,sans-Serif" font-size="10.00">juce::TextEditor::getTotal</text>
<text xml:space="preserve" text-anchor="middle" x="573.5" y="-208.12" font-family="Helvetica,sans-Serif" font-size="10.00">NumChars</text>
</a>
</g>
</g>
<!-- Node7&#45;&gt;Node8 -->
<g id="edge8_Node000007_Node000008" class="edge">
<title>Node7&#45;&gt;Node8</title>
<g id="a_edge8_Node000007_Node000008"><a xlink:title=" ">
<path fill="none" stroke="#63b8ff" d="M452.36,-211.57C467.99,-212.36 485.05,-213.22 501.27,-214.04"/>
<polygon fill="#63b8ff" stroke="#63b8ff" points="500.67,-217.51 510.84,-214.52 501.03,-210.52 500.67,-217.51"/>
</a>
</g>
</g>
<!-- Node6 -->
<g id="Node000006" class="node">
<title>Node6</title>
<g id="a_Node000006"><a xlink:href="CarlaEngineGraph_8cpp.html#ad294b8477886cae80a4cbfaffbdf3772" target="_top" xlink:title=" ">
<polygon fill="white" stroke="#666666" points="591.62,-184.25 555.38,-184.25 555.38,-165 591.62,-165 591.62,-184.25"/>
<text xml:space="preserve" text-anchor="middle" x="573.5" y="-170.75" font-family="Helvetica,sans-Serif" font-size="10.00">jmax</text>
</a>
</g>
</g>
<!-- Node7&#45;&gt;Node6 -->
<g id="edge12_Node000007_Node000006" class="edge">
<title>Node7&#45;&gt;Node6</title>
<g id="a_edge12_Node000007_Node000006"><a xlink:title=" ">
<path fill="none" stroke="#63b8ff" d="M452.36,-197.49C483.14,-191.63 519.49,-184.72 544.08,-180.04"/>
<polygon fill="#63b8ff" stroke="#63b8ff" points="544.47,-183.52 553.64,-178.21 543.16,-176.65 544.47,-183.52"/>
</a>
</g>
</g>
<!-- Node8&#45;&gt;Node8 -->
<g id="edge9_Node000008_Node000008" class="edge">
<title>Node8&#45;&gt;Node8</title>
<g id="a_edge9_Node000008_Node000008"><a xlink:title=" ">
<path fill="none" stroke="#63b8ff" d="M542.49,-233.36C536.16,-242.43 546.5,-250.88 573.5,-250.88 588.27,-250.88 598.05,-248.35 602.85,-244.58"/>
<polygon fill="#63b8ff" stroke="#63b8ff" points="606.28,-245.26 604.29,-234.86 599.36,-244.24 606.28,-245.26"/>
</a>
</g>
</g>
<!-- Node9&#45;&gt;Node9 -->
<g id="edge14_Node000009_Node000009" class="edge">
<title>Node9&#45;&gt;Node9</title>
<g id="a_edge14_Node000009_Node000009"><a xlink:title=" ">
<path fill="none" stroke="#63b8ff" d="M197.61,-83.54C185.97,-92.15 194.47,-101.25 223.12,-101.25 239.24,-101.25 248.98,-98.37 252.35,-94.32"/>
<polygon fill="#63b8ff" stroke="#63b8ff" points="255.7,-93.29 249.14,-84.97 249.08,-95.56 255.7,-93.29"/>
</a>
</g>
</g>
<!-- Node10&#45;&gt;Node2 -->
<g id="edge16_Node000010_Node000002" class="edge">
<title>Node10&#45;&gt;Node2</title>
<g id="a_edge16_Node000010_Node000002"><a xlink:title=" ">
<path fill="none" stroke="#63b8ff" d="M263.76,-226.31C282.59,-233.73 305.44,-242.69 326,-250.62 330.43,-252.33 335.03,-254.1 339.65,-255.87"/>
<polygon fill="#63b8ff" stroke="#63b8ff" points="338.38,-259.13 348.97,-259.42 340.87,-252.59 338.38,-259.13"/>
</a>
</g>
</g>
<!-- Node10&#45;&gt;Node7 -->
<g id="edge17_Node000010_Node000007" class="edge">
<title>Node10&#45;&gt;Node7</title>
<g id="a_edge17_Node000010_Node000007"><a xlink:title=" ">
<path fill="none" stroke="#63b8ff" d="M290.42,-209.83C300.67,-209.71 311.28,-209.59 321.61,-209.46"/>
<polygon fill="#63b8ff" stroke="#63b8ff" points="321.65,-212.96 331.61,-209.34 321.57,-205.96 321.65,-212.96"/>
</a>
</g>
</g>
<!-- Node10&#45;&gt;Node10 -->
<g id="edge18_Node000010_Node000010" class="edge">
<title>Node10&#45;&gt;Node10</title>
<g id="a_edge18_Node000010_Node000010"><a xlink:title=" ">
<path fill="none" stroke="#63b8ff" d="M194.24,-226.36C188.35,-235.43 197.97,-243.88 223.12,-243.88 236.88,-243.88 245.99,-241.35 250.46,-237.58"/>
<polygon fill="#63b8ff" stroke="#63b8ff" points="253.9,-238.24 251.8,-227.86 246.97,-237.29 253.9,-238.24"/>
</a>
</g>
</g>
<!-- Node10&#45;&gt;Node11 -->
<g id="edge19_Node000010_Node000011" class="edge">
<title>Node10&#45;&gt;Node11</title>
<g id="a_edge19_Node000010_Node000011"><a xlink:title=" ">
<path fill="none" stroke="#63b8ff" d="M252.96,-194.98C280.57,-180.01 322.41,-157.31 352.96,-140.73"/>
<polygon fill="#63b8ff" stroke="#63b8ff" points="354.4,-143.94 361.52,-136.09 351.06,-137.78 354.4,-143.94"/>
</a>
</g>
</g>
<!-- Node11&#45;&gt;Node11 -->
<g id="edge24_Node000011_Node000011" class="edge">
<title>Node11&#45;&gt;Node11</title>
<g id="a_edge24_Node000011_Node000011"><a xlink:title=" ">
<path fill="none" stroke="#63b8ff" d="M362.8,-135.36C356.66,-144.43 366.68,-152.88 392.88,-152.88 407.2,-152.88 416.69,-150.35 421.34,-146.58"/>
<polygon fill="#63b8ff" stroke="#63b8ff" points="424.78,-147.26 422.74,-136.86 417.85,-146.26 424.78,-147.26"/>
</a>
</g>
</g>
<!-- Node12 -->
<g id="Node000012" class="node">
<title>Node12</title>
<g id="a_Node000012"><a xlink:href="classjuce_1_1Component.html#ad13a2ae74f3e252382a58cf3e1e92a58" target="_top" xlink:title=" ">
<polygon fill="#fff0f0" stroke="red" points="636.62,-129.25 510.38,-129.25 510.38,-110 636.62,-110 636.62,-129.25"/>
<text xml:space="preserve" text-anchor="middle" x="573.5" y="-115.75" font-family="Helvetica,sans-Serif" font-size="10.00">juce::Component::getPeer</text>
</a>
</g>
</g>
<!-- Node11&#45;&gt;Node12 -->
<g id="edge20_Node000011_Node000012" class="edge">
<title>Node11&#45;&gt;Node12</title>
<g id="a_edge20_Node000011_Node000012"><a xlink:title=" ">
<path fill="none" stroke="#63b8ff" d="M460.13,-119.62C472.6,-119.62 485.71,-119.62 498.4,-119.62"/>
<polygon fill="#63b8ff" stroke="#63b8ff" points="498.39,-123.13 508.39,-119.63 498.39,-116.13 498.39,-123.13"/>
</a>
</g>
</g>
<!-- Node21 -->
<g id="Node000021" class="node">
<title>Node21</title>
<g id="a_Node000021"><a xlink:href="classjuce_1_1TextEditor.html#a9c626a7fd83c82fd9a3f3072b9f2040b" target="_top" xlink:title=" ">
<polygon fill="#fff0f0" stroke="red" points="646,-74.25 501,-74.25 501,-55 646,-55 646,-74.25"/>
<text xml:space="preserve" text-anchor="middle" x="573.5" y="-60.75" font-family="Helvetica,sans-Serif" font-size="10.00">juce::TextEditor::moveCaretTo</text>
</a>
</g>
</g>
<!-- Node11&#45;&gt;Node21 -->
<g id="edge22_Node000011_Node000021" class="edge">
<title>Node11&#45;&gt;Node21</title>
<g id="a_edge22_Node000011_Node000021"><a xlink:title=" ">
<path fill="none" stroke="#63b8ff" d="M444.58,-104.01C471.18,-95.82 503.43,-85.89 528.89,-78.05"/>
<polygon fill="#63b8ff" stroke="#63b8ff" points="529.74,-81.45 538.26,-75.17 527.68,-74.76 529.74,-81.45"/>
</a>
</g>
</g>
<!-- Node51 -->
<g id="Node000051" class="node">
<title>Node51</title>
<g id="a_Node000051"><a xlink:href="classjuce_1_1TextEditor.html#a556ada10ac8186d9cce6c797b7231528" target="_top" xlink:title=" ">
<polygon fill="#fff0f0" stroke="red" points="651.25,-19.25 495.75,-19.25 495.75,0 651.25,0 651.25,-19.25"/>
<text xml:space="preserve" text-anchor="middle" x="573.5" y="-5.75" font-family="Helvetica,sans-Serif" font-size="10.00">juce::TextEditor::newTransaction</text>
</a>
</g>
</g>
<!-- Node11&#45;&gt;Node51 -->
<g id="edge25_Node000011_Node000051" class="edge">
<title>Node11&#45;&gt;Node51</title>
<g id="a_edge25_Node000011_Node000051"><a xlink:title=" ">
<path fill="none" stroke="#63b8ff" d="M413.03,-104.01C432.96,-88.18 465.44,-63.52 495.75,-45.62 509.05,-37.77 524.34,-30.31 537.76,-24.23"/>
<polygon fill="#63b8ff" stroke="#63b8ff" points="538.94,-27.54 546.66,-20.29 536.1,-21.14 538.94,-27.54"/>
</a>
</g>
</g>
<!-- Node12&#45;&gt;Node12 -->
<g id="edge21_Node000012_Node000012" class="edge">
<title>Node12&#45;&gt;Node12</title>
<g id="a_edge21_Node000012_Node000012"><a xlink:title=" ">
<path fill="none" stroke="#63b8ff" d="M546.1,-129.54C533.61,-138.15 542.74,-147.25 573.5,-147.25 590.8,-147.25 601.26,-144.37 604.88,-140.32"/>
<polygon fill="#63b8ff" stroke="#63b8ff" points="608.17,-139.13 601.42,-130.96 601.6,-141.55 608.17,-139.13"/>
</a>
</g>
</g>
<!-- Node21&#45;&gt;Node21 -->
<g id="edge23_Node000021_Node000021" class="edge">
<title>Node21&#45;&gt;Node21</title>
<g id="a_edge23_Node000021_Node000021"><a xlink:title=" ">
<path fill="none" stroke="#63b8ff" d="M546.1,-74.54C533.61,-83.15 542.74,-92.25 573.5,-92.25 590.8,-92.25 601.26,-89.37 604.88,-85.32"/>
<polygon fill="#63b8ff" stroke="#63b8ff" points="608.17,-84.13 601.42,-75.96 601.6,-86.55 608.17,-84.13"/>
</a>
</g>
</g>
<!-- Node51&#45;&gt;Node51 -->
<g id="edge26_Node000051_Node000051" class="edge">
<title>Node51&#45;&gt;Node51</title>
<g id="a_edge26_Node000051_Node000051"><a xlink:title=" ">
<path fill="none" stroke="#63b8ff" d="M546.1,-19.54C533.61,-28.15 542.74,-37.25 573.5,-37.25 590.8,-37.25 601.26,-34.37 604.88,-30.32"/>
<polygon fill="#63b8ff" stroke="#63b8ff" points="608.17,-29.13 601.42,-20.96 601.6,-31.55 608.17,-29.13"/>
</a>
</g>
</g>
</g>
</svg>

<g id="navigator" transform="translate(0 0)" fill="#404254">
  <rect fill="#f2f5e9" fill-opacity="0.5" stroke="#606060" stroke-width=".5" x="0" y="0" width="60" height="60"/>
  <use id="zoomplus" xlink:href="#zoomPlus" x="17" y="9" onmousedown="handleZoom(evt,'in')"/>
  <use id="zoomminus" xlink:href="#zoomMin" x="42" y="9" onmousedown="handleZoom(evt,'out')"/>
  <use id="reset" xlink:href="#resetDef" x="30" y="36" onmousedown="handleReset()"/>
   <use id="arrowup" xlink:href="#arrowUp" x="0" y="0" onmousedown="handlePan(0,-1)"/>
  <use id="arrowright" xlink:href="#arrowRight" x="0" y="0" onmousedown="handlePan(1,0)"/>
  <use id="arrowdown" xlink:href="#arrowDown" x="0" y="0" onmousedown="handlePan(0,1)"/>
  <use id="arrowleft" xlink:href="#arrowLeft" x="0" y="0" onmousedown="handlePan(-1,0)"/>
</g>
<svg viewBox="0 0 15 15" width="100%" height="30px" preserveAspectRatio="xMaxYMin meet">
 <g id="arrow_out" transform="scale(0.3 0.3)">
  <a xlink:href="classjuce_1_1TextEditor_ae60898b2f883a3d97802f7dbc404cb64_cgraph_org.svg" target="_base">
   <rect id="button" ry="5" rx="5" y="6" x="6" height="38" width="38"
        fill="#f2f5e9" fill-opacity="0.5" stroke="#606060" stroke-width="1.0"/>
   <path id="arrow"
     d="M 11.500037,31.436501 C 11.940474,20.09759 22.043105,11.32322 32.158766,21.979434 L 37.068811,17.246167 C 37.068811,17.246167 37.088388,32 37.088388,32 L 22.160133,31.978069 C 22.160133,31.978069 26.997745,27.140456 26.997745,27.140456 C 18.528582,18.264221 13.291696,25.230495 11.500037,31.436501 z"
     style="fill:#404040;"/>
  </a>
 </g>
</svg>

<style type='text/css'>
<![CDATA[
[data-mouse-over-selected='false'] { opacity: 0.7; }
[data-mouse-over-selected='true']  { opacity: 1.0; }
]]>
</style>
<script type="application/ecmascript"><![CDATA[
document.addEventListener('DOMContentLoaded', (event) => {
  highlightEdges();
  highlightAdjacentNodes();
});
]]></script>
</svg>
