<?xml version="1.0" encoding="UTF-8" standalone="no"?>
<!DOCTYPE svg PUBLIC "-//W3C//DTD SVG 1.1//EN"
 "http://www.w3.org/Graphics/SVG/1.1/DTD/svg11.dtd">
<!-- Generated by graphviz version 14.0.2 (0)
 -->
<!-- Title: juce::MPEZoneLayout::updateMasterPitchbend Pages: 1 -->
<svg width="656pt" height="124pt"
 viewBox="0.00 0.00 656.00 124.00" xmlns="http://www.w3.org/2000/svg" xmlns:xlink="http://www.w3.org/1999/xlink">
<g id="graph0" class="graph" transform="scale(1 1) rotate(0) translate(4 119.5)">
<title>juce::MPEZoneLayout::updateMasterPitchbend</title>
<!-- Node1 -->
<g id="Node000001" class="node">
<title>Node1</title>
<g id="a_Node000001"><a xlink:title=" ">
<polygon fill="#999999" stroke="#666666" points="123.25,-63.5 0,-63.5 0,-33 123.25,-33 123.25,-63.5"/>
<text xml:space="preserve" text-anchor="start" x="8" y="-50" font-family="Helvetica,sans-Serif" font-size="10.00">juce::MPEZoneLayout</text>
<text xml:space="preserve" text-anchor="middle" x="61.62" y="-38.75" font-family="Helvetica,sans-Serif" font-size="10.00">::updateMasterPitchbend</text>
</a>
</g>
</g>
<!-- Node1&#45;&gt;Node1 -->
<g id="edge10_Node000001_Node000001" class="edge">
<title>Node1&#45;&gt;Node1</title>
<g id="a_edge10_Node000001_Node000001"><a xlink:title=" ">
<path fill="none" stroke="#63b8ff" d="M30.35,-63.99C23.97,-73.06 34.39,-81.5 61.62,-81.5 76.52,-81.5 86.38,-78.97 91.22,-75.2"/>
<polygon fill="#63b8ff" stroke="#63b8ff" points="94.66,-75.89 92.68,-65.48 87.74,-74.86 94.66,-75.89"/>
</a>
</g>
</g>
<!-- Node2 -->
<g id="Node000002" class="node">
<title>Node2</title>
<g id="a_Node000002"><a xlink:href="classjuce_1_1MPEZoneLayout.html#a61de86c31b2962d219a028640a595d90" target="_top" xlink:title=" ">
<polygon fill="white" stroke="#666666" points="317,-97.5 159.25,-97.5 159.25,-67 317,-67 317,-97.5"/>
<text xml:space="preserve" text-anchor="start" x="167.25" y="-84" font-family="Helvetica,sans-Serif" font-size="10.00">juce::MPEZoneLayout</text>
<text xml:space="preserve" text-anchor="middle" x="238.12" y="-72.75" font-family="Helvetica,sans-Serif" font-size="10.00">::checkAndLimitZoneParameters</text>
</a>
</g>
</g>
<!-- Node1&#45;&gt;Node2 -->
<g id="edge1_Node000001_Node000002" class="edge">
<title>Node1&#45;&gt;Node2</title>
<g id="a_edge1_Node000001_Node000002"><a xlink:title=" ">
<path fill="none" stroke="#63b8ff" d="M123.66,-60.14C131.49,-61.67 139.64,-63.26 147.82,-64.85"/>
<polygon fill="#63b8ff" stroke="#63b8ff" points="146.98,-68.25 157.47,-66.73 148.32,-61.38 146.98,-68.25"/>
</a>
</g>
</g>
<!-- Node4 -->
<g id="Node000004" class="node">
<title>Node4</title>
<g id="a_Node000004"><a xlink:href="classjuce_1_1MPEZoneLayout.html#a432b669a0a15595087bfaac1f61c5eb9" target="_top" xlink:title=" ">
<polygon fill="white" stroke="#666666" points="309.88,-30.5 166.38,-30.5 166.38,0 309.88,0 309.88,-30.5"/>
<text xml:space="preserve" text-anchor="start" x="174.38" y="-17" font-family="Helvetica,sans-Serif" font-size="10.00">juce::MPEZoneLayout</text>
<text xml:space="preserve" text-anchor="middle" x="238.12" y="-5.75" font-family="Helvetica,sans-Serif" font-size="10.00">::sendLayoutChangeMessage</text>
</a>
</g>
</g>
<!-- Node1&#45;&gt;Node4 -->
<g id="edge5_Node000001_Node000004" class="edge">
<title>Node1&#45;&gt;Node4</title>
<g id="a_edge5_Node000001_Node000004"><a xlink:title=" ">
<path fill="none" stroke="#63b8ff" d="M123.66,-36.71C133.69,-34.81 144.23,-32.82 154.68,-30.84"/>
<polygon fill="#63b8ff" stroke="#63b8ff" points="155.29,-34.29 164.47,-28.99 153.99,-27.41 155.29,-34.29"/>
</a>
</g>
</g>
<!-- Node2&#45;&gt;Node2 -->
<g id="edge2_Node000002_Node000002" class="edge">
<title>Node2&#45;&gt;Node2</title>
<g id="a_edge2_Node000002_Node000002"><a xlink:title=" ">
<path fill="none" stroke="#63b8ff" d="M206.85,-97.99C200.47,-107.06 210.89,-115.5 238.12,-115.5 253.02,-115.5 262.88,-112.97 267.72,-109.2"/>
<polygon fill="#63b8ff" stroke="#63b8ff" points="271.16,-109.89 269.18,-99.48 264.24,-108.86 271.16,-109.89"/>
</a>
</g>
</g>
<!-- Node3 -->
<g id="Node000003" class="node">
<title>Node3</title>
<g id="a_Node000003"><a xlink:href="namespacejuce.html#a595f2864812b76f88ed833402d0dfc93" target="_top" xlink:title=" ">
<polygon fill="white" stroke="#666666" points="456.38,-91.88 397.62,-91.88 397.62,-72.62 456.38,-72.62 456.38,-91.88"/>
<text xml:space="preserve" text-anchor="middle" x="427" y="-78.38" font-family="Helvetica,sans-Serif" font-size="10.00">juce::jlimit</text>
</a>
</g>
</g>
<!-- Node2&#45;&gt;Node3 -->
<g id="edge3_Node000002_Node000003" class="edge">
<title>Node2&#45;&gt;Node3</title>
<g id="a_edge3_Node000002_Node000003"><a xlink:title=" ">
<path fill="none" stroke="#63b8ff" d="M317.29,-82.25C340.93,-82.25 365.9,-82.25 385.94,-82.25"/>
<polygon fill="#63b8ff" stroke="#63b8ff" points="385.91,-85.75 395.91,-82.25 385.91,-78.75 385.91,-85.75"/>
</a>
</g>
</g>
<!-- Node3&#45;&gt;Node3 -->
<g id="edge4_Node000003_Node000003" class="edge">
<title>Node3&#45;&gt;Node3</title>
<g id="a_edge4_Node000003_Node000003"><a xlink:title=" ">
<path fill="none" stroke="#63b8ff" d="M401.13,-92.16C389.33,-100.77 397.95,-109.88 427,-109.88 443.34,-109.88 453.22,-106.99 456.63,-102.94"/>
<polygon fill="#63b8ff" stroke="#63b8ff" points="459.97,-101.88 453.37,-93.59 453.36,-104.19 459.97,-101.88"/>
</a>
</g>
</g>
<!-- Node4&#45;&gt;Node4 -->
<g id="edge6_Node000004_Node000004" class="edge">
<title>Node4&#45;&gt;Node4</title>
<g id="a_edge6_Node000004_Node000004"><a xlink:title=" ">
<path fill="none" stroke="#63b8ff" d="M206.85,-30.99C200.47,-40.06 210.89,-48.5 238.12,-48.5 253.02,-48.5 262.88,-45.97 267.72,-42.2"/>
<polygon fill="#63b8ff" stroke="#63b8ff" points="271.16,-42.89 269.18,-32.48 264.24,-41.86 271.16,-42.89"/>
</a>
</g>
</g>
<!-- Node5 -->
<g id="Node000005" class="node">
<title>Node5</title>
<g id="a_Node000005"><a xlink:href="classjuce_1_1MPEZoneLayout_1_1Listener.html#a34bdf3ce7b2f629da5a06c5d719026eb" target="_top" xlink:title=" ">
<polygon fill="white" stroke="#666666" points="501,-30.5 353,-30.5 353,0 501,0 501,-30.5"/>
<text xml:space="preserve" text-anchor="start" x="361" y="-17" font-family="Helvetica,sans-Serif" font-size="10.00">juce::MPEZoneLayout</text>
<text xml:space="preserve" text-anchor="middle" x="427" y="-5.75" font-family="Helvetica,sans-Serif" font-size="10.00">::Listener::zoneLayoutChanged</text>
</a>
</g>
</g>
<!-- Node4&#45;&gt;Node5 -->
<g id="edge7_Node000004_Node000005" class="edge">
<title>Node4&#45;&gt;Node5</title>
<g id="a_edge7_Node000004_Node000005"><a xlink:title=" ">
<path fill="none" stroke="#63b8ff" d="M310.31,-15.25C320.35,-15.25 330.76,-15.25 341.03,-15.25"/>
<polygon fill="#63b8ff" stroke="#63b8ff" points="341.02,-18.75 351.02,-15.25 341.02,-11.75 341.02,-18.75"/>
</a>
</g>
</g>
<!-- Node6 -->
<g id="Node000006" class="node">
<title>Node6</title>
<g id="a_Node000006"><a xlink:href="classjuce_1_1MPEZoneLayout.html#a2efbfa02cf729505df0964af2f00a865" target="_top" xlink:title=" ">
<polygon fill="white" stroke="#666666" points="647.5,-30.5 537,-30.5 537,0 647.5,0 647.5,-30.5"/>
<text xml:space="preserve" text-anchor="start" x="545" y="-17" font-family="Helvetica,sans-Serif" font-size="10.00">juce::MPEZoneLayout</text>
<text xml:space="preserve" text-anchor="middle" x="592.25" y="-5.75" font-family="Helvetica,sans-Serif" font-size="10.00">::MPEZoneLayout</text>
</a>
</g>
</g>
<!-- Node5&#45;&gt;Node6 -->
<g id="edge8_Node000005_Node000006" class="edge">
<title>Node5&#45;&gt;Node6</title>
<g id="a_edge8_Node000005_Node000006"><a xlink:title=" ">
<path fill="none" stroke="#63b8ff" d="M501.03,-15.25C509.22,-15.25 517.53,-15.25 525.63,-15.25"/>
<polygon fill="#63b8ff" stroke="#63b8ff" points="525.37,-18.75 535.37,-15.25 525.37,-11.75 525.37,-18.75"/>
</a>
</g>
</g>
<!-- Node6&#45;&gt;Node6 -->
<g id="edge9_Node000006_Node000006" class="edge">
<title>Node6&#45;&gt;Node6</title>
<g id="a_edge9_Node000006_Node000006"><a xlink:title=" ">
<path fill="none" stroke="#63b8ff" d="M562.97,-30.99C556.99,-40.06 566.75,-48.5 592.25,-48.5 606.19,-48.5 615.43,-45.97 619.96,-42.2"/>
<polygon fill="#63b8ff" stroke="#63b8ff" points="623.4,-42.87 621.32,-32.48 616.47,-41.9 623.4,-42.87"/>
</a>
</g>
</g>
</g>
</svg>
