<?xml version="1.0" encoding="UTF-8" standalone="no"?>
<!DOCTYPE svg PUBLIC "-//W3C//DTD SVG 1.1//EN"
 "http://www.w3.org/Graphics/SVG/1.1/DTD/svg11.dtd">
<!-- Generated by graphviz version 14.0.2 (0)
 -->
<!-- Title: lmms::gui::PianoRoll::removeSelection Pages: 1 -->
<!--zoomable 213 -->

<svg id="main" version="1.1" xmlns="http://www.w3.org/2000/svg" xmlns:xlink="http://www.w3.org/1999/xlink" xml:space="preserve" onload="init(evt)">

<style type="text/css"><![CDATA[
.node, .edge {opacity: 0.7;}
.node.selected, .edge.selected {opacity: 1;}
.edge:hover path { stroke: red; }
.edge:hover polygon { stroke: red; fill: red; }
]]></style>

<defs>
  <circle id="rim" cx="0" cy="0" r="7"/>
  <circle id="rim2" cx="0" cy="0" r="3.5"/>
  <g id="zoomPlus">
    <use xlink:href="#rim" fill="#404040"><set attributeName="fill" to="#808080" begin="zoomplus.mouseover" end="zoomplus.mouseout"/></use>
    <path d="M-4,0h8M0,-4v8" fill="none" stroke="white" stroke-width="1.5" pointer-events="none"/>
  </g>
  <g id="zoomMin">
    <use xlink:href="#rim" fill="#404040"><set attributeName="fill" to="#808080" begin="zoomminus.mouseover" end="zoomminus.mouseout"/></use>
    <path d="M-4,0h8" fill="none" stroke="white" stroke-width="1.5" pointer-events="none"/>
  </g>
  <g id="arrowUp" transform="translate(30 24)">
    <use xlink:href="#rim"/>
    <path pointer-events="none" fill="none" stroke="white" stroke-width="1.5" d="M0,-3.0v7 M-2.5,-0.5L0,-3.0L2.5,-0.5"/>
  </g>
  <g id="arrowRight" transform="rotate(90) translate(36 -43)">
    <use xlink:href="#rim"/>
    <path pointer-events="none" fill="none" stroke="white" stroke-width="1.5" d="M0,-3.0v7 M-2.5,-0.5L0,-3.0L2.5,-0.5"/>
  </g>
  <g id="arrowDown" transform="rotate(180) translate(-30 -48)">
    <use xlink:href="#rim"/>
    <path pointer-events="none" fill="none" stroke="white" stroke-width="1.5" d="M0,-3.0v7 M-2.5,-0.5L0,-3.0L2.5,-0.5"/>
  </g>
  <g id="arrowLeft" transform="rotate(270) translate(-36 17)">
    <use xlink:href="#rim"/>
    <path pointer-events="none" fill="none" stroke="white" stroke-width="1.5" d="M0,-3.0v7 M-2.5,-0.5L0,-3.0L2.5,-0.5"/>
  </g>
  <g id="resetDef">
    <use xlink:href="#rim2" fill="#404040"><set attributeName="fill" to="#808080" begin="reset.mouseover" end="reset.mouseout"/></use>
  </g>
</defs>
<script type="application/ecmascript">
var viewWidth = 570;
var viewHeight = 213;
var sectionId = 'dynsection-131';
</script>
<script type="application/ecmascript" xlink:href="svg.min.js"/>
<svg id="graph" class="graph">
<g id="viewport">
<title>lmms::gui::PianoRoll::removeSelection</title>
<!-- Node1 -->
<g id="Node000001" class="node">
<title>Node1</title>
<g id="a_Node000001"><a xlink:title=" ">
<polygon fill="#999999" stroke="#666666" points="562,-30.5 459,-30.5 459,0 562,0 562,-30.5"/>
<text xml:space="preserve" text-anchor="start" x="467" y="-17" font-family="Helvetica,sans-Serif" font-size="10.00">lmms::gui::PianoRoll</text>
<text xml:space="preserve" text-anchor="middle" x="510.5" y="-5.75" font-family="Helvetica,sans-Serif" font-size="10.00">::removeSelection</text>
</a>
</g>
</g>
<!-- Node1&#45;&gt;Node1 -->
<g id="edge11_Node000001_Node000001" class="edge">
<title>Node1&#45;&gt;Node1</title>
<g id="a_edge11_Node000001_Node000001"><a xlink:title=" ">
<path fill="none" stroke="#63b8ff" d="M535.45,-42.2C531.37,-45.97 523.05,-48.5 510.5,-48.5 487.55,-48.5 478.76,-40.06 484.14,-30.99"/>
<polygon fill="#63b8ff" stroke="#63b8ff" points="538.89,-42.85 536.67,-32.49 531.95,-41.97 538.89,-42.85"/>
</a>
</g>
</g>
<!-- Node2 -->
<g id="Node000002" class="node">
<title>Node2</title>
<g id="a_Node000002"><a xlink:href="classlmms_1_1gui_1_1PianoRoll.html#a88b09f65945dcb07983d500fd469fdac" target="_top" xlink:title=" ">
<polygon fill="white" stroke="#666666" points="423,-85.5 300.5,-85.5 300.5,-55 423,-55 423,-85.5"/>
<text xml:space="preserve" text-anchor="start" x="308.5" y="-72" font-family="Helvetica,sans-Serif" font-size="10.00">lmms::gui::PianoRoll</text>
<text xml:space="preserve" text-anchor="middle" x="361.75" y="-60.75" font-family="Helvetica,sans-Serif" font-size="10.00">::computeSelectedNotes</text>
</a>
</g>
</g>
<!-- Node1&#45;&gt;Node2 -->
<g id="edge1_Node000001_Node000002" class="edge">
<title>Node1&#45;&gt;Node2</title>
<g id="a_edge1_Node000001_Node000002"><a xlink:title=" ">
<path fill="none" stroke="#63b8ff" d="M457.36,-34.79C440.12,-41.25 421.16,-48.36 404.77,-54.5"/>
<polygon fill="#63b8ff" stroke="#63b8ff" points="458.29,-38.18 466.42,-31.39 455.83,-31.63 458.29,-38.18"/>
</a>
</g>
</g>
<!-- Node6 -->
<g id="Node000006" class="node">
<title>Node6</title>
<g id="a_Node000006"><a xlink:href="classlmms_1_1gui_1_1PianoRoll.html#ae6c35547c1103a429c5d6df09337b0a6" target="_top" xlink:title=" ">
<polygon fill="#fff0f0" stroke="red" points="103,-30.5 0,-30.5 0,0 103,0 103,-30.5"/>
<text xml:space="preserve" text-anchor="start" x="8" y="-17" font-family="Helvetica,sans-Serif" font-size="10.00">lmms::gui::PianoRoll</text>
<text xml:space="preserve" text-anchor="middle" x="51.5" y="-5.75" font-family="Helvetica,sans-Serif" font-size="10.00">::PianoRoll</text>
</a>
</g>
</g>
<!-- Node1&#45;&gt;Node6 -->
<g id="edge10_Node000001_Node000006" class="edge">
<title>Node1&#45;&gt;Node6</title>
<g id="a_edge10_Node000001_Node000006"><a xlink:title=" ">
<path fill="none" stroke="#63b8ff" d="M447.2,-14.27C373.58,-13.26 247.37,-12 139,-13.25 127.43,-13.38 115,-13.62 103.27,-13.88"/>
<polygon fill="#63b8ff" stroke="#63b8ff" points="447,-17.77 457.04,-14.41 447.09,-10.77 447,-17.77"/>
</a>
</g>
</g>
<!-- Node2&#45;&gt;Node2 -->
<g id="edge2_Node000002_Node000002" class="edge">
<title>Node2&#45;&gt;Node2</title>
<g id="a_edge2_Node000002_Node000002"><a xlink:title=" ">
<path fill="none" stroke="#63b8ff" d="M386.7,-97.2C382.62,-100.97 374.3,-103.5 361.75,-103.5 338.8,-103.5 330.01,-95.06 335.39,-85.99"/>
<polygon fill="#63b8ff" stroke="#63b8ff" points="390.14,-97.85 387.92,-87.49 383.2,-96.97 390.14,-97.85"/>
</a>
</g>
</g>
<!-- Node3 -->
<g id="Node000003" class="node">
<title>Node3</title>
<g id="a_Node000003"><a xlink:href="classlmms_1_1gui_1_1PianoRoll.html#a947e2f215dd78475f598dc0ad5883d7a" target="_top" xlink:title=" ">
<polygon fill="white" stroke="#666666" points="253.25,-186.5 150.25,-186.5 150.25,-156 253.25,-156 253.25,-186.5"/>
<text xml:space="preserve" text-anchor="start" x="158.25" y="-173" font-family="Helvetica,sans-Serif" font-size="10.00">lmms::gui::PianoRoll</text>
<text xml:space="preserve" text-anchor="middle" x="201.75" y="-161.75" font-family="Helvetica,sans-Serif" font-size="10.00">::keyReleaseEvent</text>
</a>
</g>
</g>
<!-- Node2&#45;&gt;Node3 -->
<g id="edge3_Node000002_Node000003" class="edge">
<title>Node2&#45;&gt;Node3</title>
<g id="a_edge3_Node000002_Node000003"><a xlink:title=" ">
<path fill="none" stroke="#63b8ff" d="M335.62,-93.37C316.99,-109.66 290.44,-131.17 264.5,-146.25 258.7,-149.62 252.36,-152.75 246.02,-155.57"/>
<polygon fill="#63b8ff" stroke="#63b8ff" points="337.81,-96.11 342.96,-86.85 333.16,-90.87 337.81,-96.11"/>
</a>
</g>
</g>
<!-- Node4 -->
<g id="Node000004" class="node">
<title>Node4</title>
<g id="a_Node000004"><a xlink:href="classlmms_1_1gui_1_1PianoRoll.html#a8407aa0c4d5452ddeb7602f637bdd3d0" target="_top" xlink:title=" ">
<polygon fill="white" stroke="#666666" points="256.62,-119.5 146.88,-119.5 146.88,-89 256.62,-89 256.62,-119.5"/>
<text xml:space="preserve" text-anchor="start" x="154.88" y="-106" font-family="Helvetica,sans-Serif" font-size="10.00">lmms::gui::PianoRoll</text>
<text xml:space="preserve" text-anchor="middle" x="201.75" y="-94.75" font-family="Helvetica,sans-Serif" font-size="10.00">::mouseReleaseEvent</text>
</a>
</g>
</g>
<!-- Node2&#45;&gt;Node4 -->
<g id="edge5_Node000002_Node000004" class="edge">
<title>Node2&#45;&gt;Node4</title>
<g id="a_edge5_Node000002_Node000004"><a xlink:title=" ">
<path fill="none" stroke="#63b8ff" d="M289.01,-85.69C278.26,-88 267.33,-90.35 257.02,-92.57"/>
<polygon fill="#63b8ff" stroke="#63b8ff" points="289.6,-89.14 298.64,-83.62 288.12,-82.3 289.6,-89.14"/>
</a>
</g>
</g>
<!-- Node5 -->
<g id="Node000005" class="node">
<title>Node5</title>
<g id="a_Node000005"><a xlink:href="classlmms_1_1gui_1_1PianoRoll.html#aad05e6dbe2a517c48a70c70c582b3730" target="_top" xlink:title=" ">
<polygon fill="white" stroke="#666666" points="264.5,-52.5 139,-52.5 139,-22 264.5,-22 264.5,-52.5"/>
<text xml:space="preserve" text-anchor="start" x="147" y="-39" font-family="Helvetica,sans-Serif" font-size="10.00">lmms::gui::PianoRoll</text>
<text xml:space="preserve" text-anchor="middle" x="201.75" y="-27.75" font-family="Helvetica,sans-Serif" font-size="10.00">::selectRegionFromPixels</text>
</a>
</g>
</g>
<!-- Node2&#45;&gt;Node5 -->
<g id="edge7_Node000002_Node000005" class="edge">
<title>Node2&#45;&gt;Node5</title>
<g id="a_edge7_Node000002_Node000005"><a xlink:title=" ">
<path fill="none" stroke="#63b8ff" d="M288.86,-55.23C280.82,-53.56 272.69,-51.86 264.79,-50.21"/>
<polygon fill="#63b8ff" stroke="#63b8ff" points="288.13,-58.66 298.63,-57.28 289.56,-51.81 288.13,-58.66"/>
</a>
</g>
</g>
<!-- Node3&#45;&gt;Node3 -->
<g id="edge4_Node000003_Node000003" class="edge">
<title>Node3&#45;&gt;Node3</title>
<g id="a_edge4_Node000003_Node000003"><a xlink:title=" ">
<path fill="none" stroke="#63b8ff" d="M226.95,-198.2C222.83,-201.97 214.43,-204.5 201.75,-204.5 178.57,-204.5 169.69,-196.06 175.13,-186.99"/>
<polygon fill="#63b8ff" stroke="#63b8ff" points="230.39,-198.85 228.18,-188.49 223.45,-197.97 230.39,-198.85"/>
</a>
</g>
</g>
<!-- Node4&#45;&gt;Node4 -->
<g id="edge6_Node000004_Node000004" class="edge">
<title>Node4&#45;&gt;Node4</title>
<g id="a_edge6_Node000004_Node000004"><a xlink:title=" ">
<path fill="none" stroke="#63b8ff" d="M226.95,-131.2C222.83,-134.97 214.43,-137.5 201.75,-137.5 178.57,-137.5 169.69,-129.06 175.13,-119.99"/>
<polygon fill="#63b8ff" stroke="#63b8ff" points="230.39,-131.85 228.18,-121.49 223.45,-130.97 230.39,-131.85"/>
</a>
</g>
</g>
<!-- Node5&#45;&gt;Node5 -->
<g id="edge9_Node000005_Node000005" class="edge">
<title>Node5&#45;&gt;Node5</title>
<g id="a_edge9_Node000005_Node000005"><a xlink:title=" ">
<path fill="none" stroke="#63b8ff" d="M226.95,-64.2C222.83,-67.97 214.43,-70.5 201.75,-70.5 178.57,-70.5 169.69,-62.06 175.13,-52.99"/>
<polygon fill="#63b8ff" stroke="#63b8ff" points="230.39,-64.85 228.18,-54.49 223.45,-63.97 230.39,-64.85"/>
</a>
</g>
</g>
<!-- Node5&#45;&gt;Node6 -->
<g id="edge8_Node000005_Node000006" class="edge">
<title>Node5&#45;&gt;Node6</title>
<g id="a_edge8_Node000005_Node000006"><a xlink:title=" ">
<path fill="none" stroke="#63b8ff" d="M127.37,-26.36C119.29,-25.16 111.2,-23.96 103.48,-22.82"/>
<polygon fill="#63b8ff" stroke="#63b8ff" points="126.84,-29.82 137.24,-27.83 127.86,-22.9 126.84,-29.82"/>
</a>
</g>
</g>
</g>
</svg>

<g id="navigator" transform="translate(0 0)" fill="#404254">
  <rect fill="#f2f5e9" fill-opacity="0.5" stroke="#606060" stroke-width=".5" x="0" y="0" width="60" height="60"/>
  <use id="zoomplus" xlink:href="#zoomPlus" x="17" y="9" onmousedown="handleZoom(evt,'in')"/>
  <use id="zoomminus" xlink:href="#zoomMin" x="42" y="9" onmousedown="handleZoom(evt,'out')"/>
  <use id="reset" xlink:href="#resetDef" x="30" y="36" onmousedown="handleReset()"/>
   <use id="arrowup" xlink:href="#arrowUp" x="0" y="0" onmousedown="handlePan(0,-1)"/>
  <use id="arrowright" xlink:href="#arrowRight" x="0" y="0" onmousedown="handlePan(1,0)"/>
  <use id="arrowdown" xlink:href="#arrowDown" x="0" y="0" onmousedown="handlePan(0,1)"/>
  <use id="arrowleft" xlink:href="#arrowLeft" x="0" y="0" onmousedown="handlePan(-1,0)"/>
</g>
<svg viewBox="0 0 15 15" width="100%" height="30px" preserveAspectRatio="xMaxYMin meet">
 <g id="arrow_out" transform="scale(0.3 0.3)">
  <a xlink:href="classlmms_1_1gui_1_1PianoRoll_a9c94d93834104c9e24eff2b3e6f6c26b_icgraph_org.svg" target="_base">
   <rect id="button" ry="5" rx="5" y="6" x="6" height="38" width="38"
        fill="#f2f5e9" fill-opacity="0.5" stroke="#606060" stroke-width="1.0"/>
   <path id="arrow"
     d="M 11.500037,31.436501 C 11.940474,20.09759 22.043105,11.32322 32.158766,21.979434 L 37.068811,17.246167 C 37.068811,17.246167 37.088388,32 37.088388,32 L 22.160133,31.978069 C 22.160133,31.978069 26.997745,27.140456 26.997745,27.140456 C 18.528582,18.264221 13.291696,25.230495 11.500037,31.436501 z"
     style="fill:#404040;"/>
  </a>
 </g>
</svg>

<style type='text/css'>
<![CDATA[
[data-mouse-over-selected='false'] { opacity: 0.7; }
[data-mouse-over-selected='true']  { opacity: 1.0; }
]]>
</style>
<script type="application/ecmascript"><![CDATA[
document.addEventListener('DOMContentLoaded', (event) => {
  highlightEdges();
  highlightAdjacentNodes();
});
]]></script>
</svg>
