<?xml version="1.0" encoding="UTF-8" standalone="no"?>
<!DOCTYPE svg PUBLIC "-//W3C//DTD SVG 1.1//EN"
 "http://www.w3.org/Graphics/SVG/1.1/DTD/svg11.dtd">
<!-- Generated by graphviz version 14.0.2 (0)
 -->
<!-- Title: lmms::gui::EqHandle::getResonance Pages: 1 -->
<svg width="391pt" height="186pt"
 viewBox="0.00 0.00 391.00 186.00" xmlns="http://www.w3.org/2000/svg" xmlns:xlink="http://www.w3.org/1999/xlink">
<g id="graph0" class="graph" transform="scale(1 1) rotate(0) translate(4 181.5)">
<title>lmms::gui::EqHandle::getResonance</title>
<!-- Node1 -->
<g id="Node000001" class="node">
<title>Node1</title>
<g id="a_Node000001"><a xlink:title=" ">
<polygon fill="#999999" stroke="#666666" points="383.25,-103.5 279.5,-103.5 279.5,-73 383.25,-73 383.25,-103.5"/>
<text xml:space="preserve" text-anchor="start" x="287.5" y="-90" font-family="Helvetica,sans-Serif" font-size="10.00">lmms::gui::EqHandle</text>
<text xml:space="preserve" text-anchor="middle" x="331.38" y="-78.75" font-family="Helvetica,sans-Serif" font-size="10.00">::getResonance</text>
</a>
</g>
</g>
<!-- Node2 -->
<g id="Node000002" class="node">
<title>Node2</title>
<g id="a_Node000002"><a xlink:href="classlmms_1_1gui_1_1EqHandle.html#aba0610bcfafff29fca09539ea0dc1347" target="_top" xlink:title=" ">
<polygon fill="white" stroke="#666666" points="243.5,-177.5 139.75,-177.5 139.75,-147 243.5,-147 243.5,-177.5"/>
<text xml:space="preserve" text-anchor="start" x="147.75" y="-164" font-family="Helvetica,sans-Serif" font-size="10.00">lmms::gui::EqHandle</text>
<text xml:space="preserve" text-anchor="middle" x="191.62" y="-152.75" font-family="Helvetica,sans-Serif" font-size="10.00">::getHighCutCurve</text>
</a>
</g>
</g>
<!-- Node1&#45;&gt;Node2 -->
<g id="edge1_Node000001_Node000002" class="edge">
<title>Node1&#45;&gt;Node2</title>
<g id="a_edge1_Node000001_Node000002"><a xlink:title=" ">
<path fill="none" stroke="#63b8ff" d="M293.9,-109.43C278.46,-118.24 260.21,-128.44 243.5,-137.25 237.67,-140.32 231.4,-143.5 225.33,-146.52"/>
<polygon fill="#63b8ff" stroke="#63b8ff" points="295.34,-112.64 302.28,-104.63 291.86,-106.57 295.34,-112.64"/>
</a>
</g>
</g>
<!-- Node4 -->
<g id="Node000004" class="node">
<title>Node4</title>
<g id="a_Node000004"><a xlink:href="classlmms_1_1gui_1_1EqHandle.html#a05099df4db06652e35a80ea1d5c3d0b1" target="_top" xlink:title=" ">
<polygon fill="white" stroke="#666666" points="243.5,-128.5 139.75,-128.5 139.75,-98 243.5,-98 243.5,-128.5"/>
<text xml:space="preserve" text-anchor="start" x="147.75" y="-115" font-family="Helvetica,sans-Serif" font-size="10.00">lmms::gui::EqHandle</text>
<text xml:space="preserve" text-anchor="middle" x="191.62" y="-103.75" font-family="Helvetica,sans-Serif" font-size="10.00">::getLowCutCurve</text>
</a>
</g>
</g>
<!-- Node1&#45;&gt;Node4 -->
<g id="edge3_Node000001_Node000004" class="edge">
<title>Node1&#45;&gt;Node4</title>
<g id="a_edge3_Node000001_Node000004"><a xlink:title=" ">
<path fill="none" stroke="#63b8ff" d="M267.89,-99.59C259.88,-101.04 251.76,-102.52 243.96,-103.93"/>
<polygon fill="#63b8ff" stroke="#63b8ff" points="268.38,-103.06 277.59,-97.83 267.13,-96.17 268.38,-103.06"/>
</a>
</g>
</g>
<!-- Node5 -->
<g id="Node000005" class="node">
<title>Node5</title>
<g id="a_Node000005"><a xlink:href="classlmms_1_1gui_1_1EqHandle.html#a8c8d0d6410cabbfea02d40968be0e50c" target="_top" xlink:title=" ">
<polygon fill="white" stroke="#666666" points="243.5,-79.5 139.75,-79.5 139.75,-49 243.5,-49 243.5,-79.5"/>
<text xml:space="preserve" text-anchor="start" x="147.75" y="-66" font-family="Helvetica,sans-Serif" font-size="10.00">lmms::gui::EqHandle</text>
<text xml:space="preserve" text-anchor="middle" x="191.62" y="-54.75" font-family="Helvetica,sans-Serif" font-size="10.00">::getPeakCurve</text>
</a>
</g>
</g>
<!-- Node1&#45;&gt;Node5 -->
<g id="edge5_Node000001_Node000005" class="edge">
<title>Node1&#45;&gt;Node5</title>
<g id="a_edge5_Node000001_Node000005"><a xlink:title=" ">
<path fill="none" stroke="#63b8ff" d="M267.89,-77.36C259.88,-75.97 251.76,-74.55 243.96,-73.19"/>
<polygon fill="#63b8ff" stroke="#63b8ff" points="267.14,-80.79 277.59,-79.05 268.34,-73.89 267.14,-80.79"/>
</a>
</g>
</g>
<!-- Node6 -->
<g id="Node000006" class="node">
<title>Node6</title>
<g id="a_Node000006"><a xlink:href="classlmms_1_1gui_1_1EqHandle.html#a4b6adc1abd94d4302bf286d6d32b5712" target="_top" xlink:title=" ">
<polygon fill="white" stroke="#666666" points="243.5,-30.5 139.75,-30.5 139.75,0 243.5,0 243.5,-30.5"/>
<text xml:space="preserve" text-anchor="start" x="147.75" y="-17" font-family="Helvetica,sans-Serif" font-size="10.00">lmms::gui::EqHandle</text>
<text xml:space="preserve" text-anchor="middle" x="191.62" y="-5.75" font-family="Helvetica,sans-Serif" font-size="10.00">::paint</text>
</a>
</g>
</g>
<!-- Node1&#45;&gt;Node6 -->
<g id="edge7_Node000001_Node000006" class="edge">
<title>Node1&#45;&gt;Node6</title>
<g id="a_edge7_Node000001_Node000006"><a xlink:title=" ">
<path fill="none" stroke="#63b8ff" d="M293.15,-67.17C277.86,-58.65 259.92,-48.81 243.5,-40.25 237.57,-37.16 231.2,-33.94 225.04,-30.89"/>
<polygon fill="#63b8ff" stroke="#63b8ff" points="291.02,-69.99 301.46,-71.82 294.44,-63.88 291.02,-69.99"/>
</a>
</g>
</g>
<!-- Node3 -->
<g id="Node000003" class="node">
<title>Node3</title>
<g id="a_Node000003"><a xlink:href="classlmms_1_1gui_1_1EqHandle.html#abfb5fa4d6438d5d5372b1df5dba207ba" target="_top" xlink:title=" ">
<polygon fill="white" stroke="#666666" points="103.75,-128.5 0,-128.5 0,-98 103.75,-98 103.75,-128.5"/>
<text xml:space="preserve" text-anchor="start" x="8" y="-115" font-family="Helvetica,sans-Serif" font-size="10.00">lmms::gui::EqHandle</text>
<text xml:space="preserve" text-anchor="middle" x="51.88" y="-103.75" font-family="Helvetica,sans-Serif" font-size="10.00">::getCurvePath</text>
</a>
</g>
</g>
<!-- Node2&#45;&gt;Node3 -->
<g id="edge2_Node000002_Node000003" class="edge">
<title>Node2&#45;&gt;Node3</title>
<g id="a_edge2_Node000002_Node000003"><a xlink:title=" ">
<path fill="none" stroke="#63b8ff" d="M135.97,-142.81C123,-138.19 109.32,-133.33 96.89,-128.91"/>
<polygon fill="#63b8ff" stroke="#63b8ff" points="134.64,-146.05 145.24,-146.1 136.99,-139.46 134.64,-146.05"/>
</a>
</g>
</g>
<!-- Node4&#45;&gt;Node3 -->
<g id="edge4_Node000004_Node000003" class="edge">
<title>Node4&#45;&gt;Node3</title>
<g id="a_edge4_Node000004_Node000003"><a xlink:title=" ">
<path fill="none" stroke="#63b8ff" d="M127.86,-113.25C119.95,-113.25 111.92,-113.25 104.21,-113.25"/>
<polygon fill="#63b8ff" stroke="#63b8ff" points="127.82,-116.75 137.82,-113.25 127.82,-109.75 127.82,-116.75"/>
</a>
</g>
</g>
<!-- Node5&#45;&gt;Node3 -->
<g id="edge6_Node000005_Node000003" class="edge">
<title>Node5&#45;&gt;Node3</title>
<g id="a_edge6_Node000005_Node000003"><a xlink:title=" ">
<path fill="none" stroke="#63b8ff" d="M135.97,-83.69C123,-88.31 109.32,-93.17 96.89,-97.59"/>
<polygon fill="#63b8ff" stroke="#63b8ff" points="136.99,-87.04 145.24,-80.4 134.64,-80.45 136.99,-87.04"/>
</a>
</g>
</g>
</g>
</svg>
