<?xml version="1.0" encoding="UTF-8" standalone="no"?>
<!DOCTYPE svg PUBLIC "-//W3C//DTD SVG 1.1//EN"
 "http://www.w3.org/Graphics/SVG/1.1/DTD/svg11.dtd">
<!-- Generated by graphviz version 14.0.2 (0)
 -->
<!-- Title: lmms::gui::PianoRoll::newNoteLen Pages: 1 -->
<!--zoomable 553 -->

<svg id="main" version="1.1" xmlns="http://www.w3.org/2000/svg" xmlns:xlink="http://www.w3.org/1999/xlink" xml:space="preserve" onload="init(evt)">

<style type="text/css"><![CDATA[
.node, .edge {opacity: 0.7;}
.node.selected, .edge.selected {opacity: 1;}
.edge:hover path { stroke: red; }
.edge:hover polygon { stroke: red; fill: red; }
]]></style>

<defs>
  <circle id="rim" cx="0" cy="0" r="7"/>
  <circle id="rim2" cx="0" cy="0" r="3.5"/>
  <g id="zoomPlus">
    <use xlink:href="#rim" fill="#404040"><set attributeName="fill" to="#808080" begin="zoomplus.mouseover" end="zoomplus.mouseout"/></use>
    <path d="M-4,0h8M0,-4v8" fill="none" stroke="white" stroke-width="1.5" pointer-events="none"/>
  </g>
  <g id="zoomMin">
    <use xlink:href="#rim" fill="#404040"><set attributeName="fill" to="#808080" begin="zoomminus.mouseover" end="zoomminus.mouseout"/></use>
    <path d="M-4,0h8" fill="none" stroke="white" stroke-width="1.5" pointer-events="none"/>
  </g>
  <g id="arrowUp" transform="translate(30 24)">
    <use xlink:href="#rim"/>
    <path pointer-events="none" fill="none" stroke="white" stroke-width="1.5" d="M0,-3.0v7 M-2.5,-0.5L0,-3.0L2.5,-0.5"/>
  </g>
  <g id="arrowRight" transform="rotate(90) translate(36 -43)">
    <use xlink:href="#rim"/>
    <path pointer-events="none" fill="none" stroke="white" stroke-width="1.5" d="M0,-3.0v7 M-2.5,-0.5L0,-3.0L2.5,-0.5"/>
  </g>
  <g id="arrowDown" transform="rotate(180) translate(-30 -48)">
    <use xlink:href="#rim"/>
    <path pointer-events="none" fill="none" stroke="white" stroke-width="1.5" d="M0,-3.0v7 M-2.5,-0.5L0,-3.0L2.5,-0.5"/>
  </g>
  <g id="arrowLeft" transform="rotate(270) translate(-36 17)">
    <use xlink:href="#rim"/>
    <path pointer-events="none" fill="none" stroke="white" stroke-width="1.5" d="M0,-3.0v7 M-2.5,-0.5L0,-3.0L2.5,-0.5"/>
  </g>
  <g id="resetDef">
    <use xlink:href="#rim2" fill="#404040"><set attributeName="fill" to="#808080" begin="reset.mouseover" end="reset.mouseout"/></use>
  </g>
</defs>
<script type="application/ecmascript">
var viewWidth = 675;
var viewHeight = 553;
var sectionId = 'dynsection-94';
</script>
<script type="application/ecmascript" xlink:href="svg.min.js"/>
<svg id="graph" class="graph">
<g id="viewport">
<title>lmms::gui::PianoRoll::newNoteLen</title>
<!-- Node1 -->
<g id="Node000001" class="node">
<title>Node1</title>
<g id="a_Node000001"><a xlink:title=" ">
<polygon fill="#999999" stroke="#666666" points="666.5,-276.5 563.5,-276.5 563.5,-246 666.5,-246 666.5,-276.5"/>
<text xml:space="preserve" text-anchor="start" x="571.5" y="-263" font-family="Helvetica,sans-Serif" font-size="10.00">lmms::gui::PianoRoll</text>
<text xml:space="preserve" text-anchor="middle" x="615" y="-251.75" font-family="Helvetica,sans-Serif" font-size="10.00">::newNoteLen</text>
</a>
</g>
</g>
<!-- Node1&#45;&gt;Node1 -->
<g id="edge3_Node000001_Node000001" class="edge">
<title>Node1&#45;&gt;Node1</title>
<g id="a_edge3_Node000001_Node000001"><a xlink:title=" ">
<path fill="none" stroke="#63b8ff" d="M638.94,-288.2C635.03,-291.97 627.05,-294.5 615,-294.5 592.97,-294.5 584.54,-286.06 589.7,-276.99"/>
<polygon fill="#63b8ff" stroke="#63b8ff" points="642.39,-288.84 640.11,-278.49 635.44,-288 642.39,-288.84"/>
</a>
</g>
</g>
<!-- Node2 -->
<g id="Node000002" class="node">
<title>Node2</title>
<g id="a_Node000002"><a xlink:href="classlmms_1_1gui_1_1PianoRoll.html#ac093dfd3b676d0065be1a4a17da2afed" target="_top" xlink:title=" ">
<polygon fill="white" stroke="#666666" points="103,-502.5 0,-502.5 0,-472 103,-472 103,-502.5"/>
<text xml:space="preserve" text-anchor="start" x="8" y="-489" font-family="Helvetica,sans-Serif" font-size="10.00">lmms::gui::PianoRoll</text>
<text xml:space="preserve" text-anchor="middle" x="51.5" y="-477.75" font-family="Helvetica,sans-Serif" font-size="10.00">::mousePressEvent</text>
</a>
</g>
</g>
<!-- Node1&#45;&gt;Node2 -->
<g id="edge1_Node000001_Node000002" class="edge">
<title>Node1&#45;&gt;Node2</title>
<g id="a_edge1_Node000001_Node000002"><a xlink:title=" ">
<path fill="none" stroke="#63b8ff" d="M598.85,-286.74C566.38,-338.78 484.53,-456.77 381,-509.25 284.83,-558 244.41,-548.91 139,-526.25 117.9,-521.71 95.75,-511.61 79.14,-502.82"/>
<polygon fill="#63b8ff" stroke="#63b8ff" points="601.81,-288.6 604.06,-278.25 595.85,-284.94 601.81,-288.6"/>
</a>
</g>
</g>
<!-- Node3 -->
<g id="Node000003" class="node">
<title>Node3</title>
<g id="a_Node000003"><a xlink:href="classlmms_1_1gui_1_1PianoRoll.html#a925fdf6596eb9fa890f3bf71e439be5b" target="_top" xlink:title=" ">
<polygon fill="white" stroke="#666666" points="526,-243.5 418.5,-243.5 418.5,-213 526,-213 526,-243.5"/>
<text xml:space="preserve" text-anchor="start" x="426.5" y="-230" font-family="Helvetica,sans-Serif" font-size="10.00">lmms::gui::PianoRoll</text>
<text xml:space="preserve" text-anchor="middle" x="472.25" y="-218.75" font-family="Helvetica,sans-Serif" font-size="10.00">::noteLengthChanged</text>
</a>
</g>
</g>
<!-- Node1&#45;&gt;Node3 -->
<g id="edge4_Node000001_Node000003" class="edge">
<title>Node1&#45;&gt;Node3</title>
<g id="a_edge4_Node000001_Node000003"><a xlink:title=" ">
<path fill="none" stroke="#63b8ff" d="M552.06,-246.73C543.49,-244.72 534.75,-242.67 526.36,-240.7"/>
<polygon fill="#63b8ff" stroke="#63b8ff" points="551.18,-250.12 561.71,-248.99 552.78,-243.3 551.18,-250.12"/>
</a>
</g>
</g>
<!-- Node6 -->
<g id="Node000006" class="node">
<title>Node6</title>
<g id="a_Node000006"><a xlink:href="classlmms_1_1gui_1_1PianoRoll.html#a6201cc243d597b736f54aab8ee0fef78" target="_top" xlink:title=" ">
<polygon fill="white" stroke="#666666" points="523.75,-310.5 420.75,-310.5 420.75,-280 523.75,-280 523.75,-310.5"/>
<text xml:space="preserve" text-anchor="start" x="428.75" y="-297" font-family="Helvetica,sans-Serif" font-size="10.00">lmms::gui::PianoRoll</text>
<text xml:space="preserve" text-anchor="middle" x="472.25" y="-285.75" font-family="Helvetica,sans-Serif" font-size="10.00">::quantization</text>
</a>
</g>
</g>
<!-- Node1&#45;&gt;Node6 -->
<g id="edge8_Node000001_Node000006" class="edge">
<title>Node1&#45;&gt;Node6</title>
<g id="a_edge8_Node000001_Node000006"><a xlink:title=" ">
<path fill="none" stroke="#63b8ff" d="M552.24,-276.17C542.8,-278.45 533.16,-280.78 523.99,-282.99"/>
<polygon fill="#63b8ff" stroke="#63b8ff" points="552.82,-279.63 561.71,-273.88 551.17,-272.83 552.82,-279.63"/>
</a>
</g>
</g>
<!-- Node17 -->
<g id="Node000017" class="node">
<title>Node17</title>
<g id="a_Node000017"><a xlink:href="classlmms_1_1gui_1_1PianoRoll.html#a62eb81dba5e5e4ec748848c987099d94" target="_top" xlink:title=" ">
<polygon fill="white" stroke="#666666" points="527.5,-176.5 417,-176.5 417,-146 527.5,-146 527.5,-176.5"/>
<text xml:space="preserve" text-anchor="start" x="425" y="-163" font-family="Helvetica,sans-Serif" font-size="10.00">lmms::gui::PianoRoll</text>
<text xml:space="preserve" text-anchor="middle" x="472.25" y="-151.75" font-family="Helvetica,sans-Serif" font-size="10.00">::toggleStepRecording</text>
</a>
</g>
</g>
<!-- Node1&#45;&gt;Node17 -->
<g id="edge34_Node000001_Node000017" class="edge">
<title>Node1&#45;&gt;Node17</title>
<g id="a_edge34_Node000001_Node000017"><a xlink:title=" ">
<path fill="none" stroke="#63b8ff" d="M582.74,-239.04C556.13,-220.13 518.58,-193.45 495.09,-176.77"/>
<polygon fill="#63b8ff" stroke="#63b8ff" points="580.59,-241.81 590.77,-244.75 584.65,-236.1 580.59,-241.81"/>
</a>
</g>
</g>
<!-- Node2&#45;&gt;Node2 -->
<g id="edge2_Node000002_Node000002" class="edge">
<title>Node2&#45;&gt;Node2</title>
<g id="a_edge2_Node000002_Node000002"><a xlink:title=" ">
<path fill="none" stroke="#63b8ff" d="M74.81,-514.2C71,-517.97 63.23,-520.5 51.5,-520.5 30.05,-520.5 21.84,-512.06 26.87,-502.99"/>
<polygon fill="#63b8ff" stroke="#63b8ff" points="78.26,-514.83 75.95,-504.49 71.31,-514.01 78.26,-514.83"/>
</a>
</g>
</g>
<!-- Node3&#45;&gt;Node3 -->
<g id="edge5_Node000003_Node000003" class="edge">
<title>Node3&#45;&gt;Node3</title>
<g id="a_edge5_Node000003_Node000003"><a xlink:title=" ">
<path fill="none" stroke="#63b8ff" d="M496.19,-255.2C492.28,-258.97 484.3,-261.5 472.25,-261.5 450.22,-261.5 441.79,-253.06 446.95,-243.99"/>
<polygon fill="#63b8ff" stroke="#63b8ff" points="499.64,-255.84 497.36,-245.49 492.69,-255 499.64,-255.84"/>
</a>
</g>
</g>
<!-- Node4 -->
<g id="Node000004" class="node">
<title>Node4</title>
<g id="a_Node000004"><a xlink:href="classlmms_1_1gui_1_1PianoRoll.html#ae6c35547c1103a429c5d6df09337b0a6" target="_top" xlink:title=" ">
<polygon fill="white" stroke="#666666" points="381,-30.5 278,-30.5 278,0 381,0 381,-30.5"/>
<text xml:space="preserve" text-anchor="start" x="286" y="-17" font-family="Helvetica,sans-Serif" font-size="10.00">lmms::gui::PianoRoll</text>
<text xml:space="preserve" text-anchor="middle" x="329.5" y="-5.75" font-family="Helvetica,sans-Serif" font-size="10.00">::PianoRoll</text>
</a>
</g>
</g>
<!-- Node3&#45;&gt;Node4 -->
<g id="edge6_Node000003_Node000004" class="edge">
<title>Node3&#45;&gt;Node4</title>
<g id="a_edge6_Node000003_Node000004"><a xlink:title=" ">
<path fill="none" stroke="#63b8ff" d="M418.67,-205.2C418.1,-204.57 417.54,-203.92 417,-203.25 370.46,-145.48 426.74,-98.67 381,-40.25 378.23,-36.71 374.82,-33.63 371.09,-30.97"/>
<polygon fill="#63b8ff" stroke="#63b8ff" points="416.15,-207.64 426,-211.53 420.72,-202.34 416.15,-207.64"/>
</a>
</g>
</g>
<!-- Node5 -->
<g id="Node000005" class="node">
<title>Node5</title>
<g id="a_Node000005"><a xlink:href="classlmms_1_1gui_1_1PianoRoll.html#a137b6c06c546b8bf633bbb47b17903ba" target="_top" xlink:title=" ">
<polygon fill="white" stroke="#666666" points="242,-30.5 139,-30.5 139,0 242,0 242,-30.5"/>
<text xml:space="preserve" text-anchor="start" x="147" y="-17" font-family="Helvetica,sans-Serif" font-size="10.00">lmms::gui::PianoRoll</text>
<text xml:space="preserve" text-anchor="middle" x="190.5" y="-5.75" font-family="Helvetica,sans-Serif" font-size="10.00">::PianoRoll</text>
</a>
</g>
</g>
<!-- Node4&#45;&gt;Node5 -->
<g id="edge7_Node000004_Node000005" class="edge">
<title>Node4&#45;&gt;Node5</title>
<g id="a_edge7_Node000004_Node000005"><a xlink:title=" ">
<path fill="none" stroke="#63b8ff" d="M266.56,-15.25C258.47,-15.25 250.26,-15.25 242.37,-15.25"/>
<polygon fill="#63b8ff" stroke="#63b8ff" points="266.36,-18.75 276.36,-15.25 266.36,-11.75 266.36,-18.75"/>
</a>
</g>
</g>
<!-- Node6&#45;&gt;Node2 -->
<g id="edge22_Node000006_Node000002" class="edge">
<title>Node6&#45;&gt;Node2</title>
<g id="a_edge22_Node000006_Node000002"><a xlink:title=" ">
<path fill="none" stroke="#63b8ff" d="M466.91,-321.98C458.57,-363.66 435.97,-443.02 381,-478.25 296.22,-532.59 172.19,-516.28 103.34,-500.91"/>
<polygon fill="#63b8ff" stroke="#63b8ff" points="470.33,-322.77 468.71,-312.3 463.44,-321.5 470.33,-322.77"/>
</a>
</g>
</g>
<!-- Node6&#45;&gt;Node6 -->
<g id="edge27_Node000006_Node000006" class="edge">
<title>Node6&#45;&gt;Node6</title>
<g id="a_edge27_Node000006_Node000006"><a xlink:title=" ">
<path fill="none" stroke="#63b8ff" d="M496.19,-322.2C492.28,-325.97 484.3,-328.5 472.25,-328.5 450.22,-328.5 441.79,-320.06 446.95,-310.99"/>
<polygon fill="#63b8ff" stroke="#63b8ff" points="499.64,-322.84 497.36,-312.49 492.69,-322 499.64,-322.84"/>
</a>
</g>
</g>
<!-- Node7 -->
<g id="Node000007" class="node">
<title>Node7</title>
<g id="a_Node000007"><a xlink:href="classlmms_1_1gui_1_1PianoRoll.html#a62d90a575a941a4050e8b53f4f7d51ca" target="_top" xlink:title=" ">
<polygon fill="white" stroke="#666666" points="381,-384.5 278,-384.5 278,-354 381,-354 381,-384.5"/>
<text xml:space="preserve" text-anchor="start" x="286" y="-371" font-family="Helvetica,sans-Serif" font-size="10.00">lmms::gui::PianoRoll</text>
<text xml:space="preserve" text-anchor="middle" x="329.5" y="-359.75" font-family="Helvetica,sans-Serif" font-size="10.00">::dragNotes</text>
</a>
</g>
</g>
<!-- Node6&#45;&gt;Node7 -->
<g id="edge9_Node000006_Node000007" class="edge">
<title>Node6&#45;&gt;Node7</title>
<g id="a_edge9_Node000006_Node000007"><a xlink:title=" ">
<path fill="none" stroke="#63b8ff" d="M431.43,-316.19C408.83,-328.07 381.01,-342.69 360.31,-353.58"/>
<polygon fill="#63b8ff" stroke="#63b8ff" points="432.84,-319.4 440.06,-311.65 429.58,-313.2 432.84,-319.4"/>
</a>
</g>
</g>
<!-- Node8 -->
<g id="Node000008" class="node">
<title>Node8</title>
<g id="a_Node000008"><a xlink:href="classlmms_1_1gui_1_1PianoRoll.html#a8e1a98889e0ed93bf6873bb1deca002b" target="_top" xlink:title=" ">
<polygon fill="white" stroke="#666666" points="103,-341.5 0,-341.5 0,-311 103,-311 103,-341.5"/>
<text xml:space="preserve" text-anchor="start" x="8" y="-328" font-family="Helvetica,sans-Serif" font-size="10.00">lmms::gui::PianoRoll</text>
<text xml:space="preserve" text-anchor="middle" x="51.5" y="-316.75" font-family="Helvetica,sans-Serif" font-size="10.00">::keyPressEvent</text>
</a>
</g>
</g>
<!-- Node6&#45;&gt;Node8 -->
<g id="edge21_Node000006_Node000008" class="edge">
<title>Node6&#45;&gt;Node8</title>
<g id="a_edge21_Node000006_Node000008"><a xlink:title=" ">
<path fill="none" stroke="#63b8ff" d="M408.97,-304.15C399.61,-305.3 390.06,-306.39 381,-307.25 282.9,-316.6 167.85,-321.97 103.24,-324.49"/>
<polygon fill="#63b8ff" stroke="#63b8ff" points="409.28,-307.64 418.75,-302.9 408.39,-300.69 409.28,-307.64"/>
</a>
</g>
</g>
<!-- Node10 -->
<g id="Node000010" class="node">
<title>Node10</title>
<g id="a_Node000010"><a xlink:href="classlmms_1_1gui_1_1PianoRoll.html#aa91f2fa8d780077c360ce713152d7b56" target="_top" xlink:title=" ">
<polygon fill="white" stroke="#666666" points="381,-280.5 278,-280.5 278,-250 381,-250 381,-280.5"/>
<text xml:space="preserve" text-anchor="start" x="286" y="-267" font-family="Helvetica,sans-Serif" font-size="10.00">lmms::gui::PianoRoll</text>
<text xml:space="preserve" text-anchor="middle" x="329.5" y="-255.75" font-family="Helvetica,sans-Serif" font-size="10.00">::finishRecordNote</text>
</a>
</g>
</g>
<!-- Node6&#45;&gt;Node10 -->
<g id="edge16_Node000006_Node000010" class="edge">
<title>Node6&#45;&gt;Node10</title>
<g id="a_edge16_Node000006_Node000010"><a xlink:title=" ">
<path fill="none" stroke="#63b8ff" d="M409.19,-282.02C399.84,-280.03 390.31,-278 381.24,-276.06"/>
<polygon fill="#63b8ff" stroke="#63b8ff" points="408.45,-285.44 418.96,-284.1 409.91,-278.6 408.45,-285.44"/>
</a>
</g>
</g>
<!-- Node13 -->
<g id="Node000013" class="node">
<title>Node13</title>
<g id="a_Node000013"><a xlink:href="classlmms_1_1gui_1_1PianoRoll.html#a9e35f590e2716131c614494b1eeedbfc" target="_top" xlink:title=" ">
<polygon fill="white" stroke="#666666" points="381,-213.5 278,-213.5 278,-183 381,-183 381,-213.5"/>
<text xml:space="preserve" text-anchor="start" x="286" y="-200" font-family="Helvetica,sans-Serif" font-size="10.00">lmms::gui::PianoRoll</text>
<text xml:space="preserve" text-anchor="middle" x="329.5" y="-188.75" font-family="Helvetica,sans-Serif" font-size="10.00">::paintEvent</text>
</a>
</g>
</g>
<!-- Node6&#45;&gt;Node13 -->
<g id="edge23_Node000006_Node000013" class="edge">
<title>Node6&#45;&gt;Node13</title>
<g id="a_edge23_Node000006_Node000013"><a xlink:title=" ">
<path fill="none" stroke="#63b8ff" d="M423.63,-274.2C421.36,-272.92 419.14,-271.6 417,-270.25 409.77,-265.69 372,-233.72 348.83,-213.94"/>
<polygon fill="#63b8ff" stroke="#63b8ff" points="421.98,-277.29 432.46,-278.86 425.25,-271.1 421.98,-277.29"/>
</a>
</g>
</g>
<!-- Node14 -->
<g id="Node000014" class="node">
<title>Node14</title>
<g id="a_Node000014"><a xlink:href="classlmms_1_1gui_1_1PianoRoll.html#a46a9871dc6f1a0c8dd1da9f3a91a0777" target="_top" xlink:title=" ">
<polygon fill="white" stroke="#666666" points="381,-146.5 278,-146.5 278,-116 381,-116 381,-146.5"/>
<text xml:space="preserve" text-anchor="start" x="286" y="-133" font-family="Helvetica,sans-Serif" font-size="10.00">lmms::gui::PianoRoll</text>
<text xml:space="preserve" text-anchor="middle" x="329.5" y="-121.75" font-family="Helvetica,sans-Serif" font-size="10.00">::pasteNotes</text>
</a>
</g>
</g>
<!-- Node6&#45;&gt;Node14 -->
<g id="edge25_Node000006_Node000014" class="edge">
<title>Node6&#45;&gt;Node14</title>
<g id="a_edge25_Node000006_Node000014"><a xlink:title=" ">
<path fill="none" stroke="#63b8ff" d="M419.6,-272.84C418.7,-272.01 417.83,-271.14 417,-270.25 385.98,-236.87 407.18,-211.54 381,-174.25 373.66,-163.79 363.19,-154.32 353.68,-146.94"/>
<polygon fill="#63b8ff" stroke="#63b8ff" points="417.18,-275.4 427.25,-278.69 421.43,-269.83 417.18,-275.4"/>
</a>
</g>
</g>
<!-- Node15 -->
<g id="Node000015" class="node">
<title>Node15</title>
<g id="a_Node000015"><a xlink:href="classlmms_1_1gui_1_1PianoRoll.html#a064373158bb8fc6a4e725e1cfb120dbe" target="_top" xlink:title=" ">
<polygon fill="white" stroke="#666666" points="381,-79.5 278,-79.5 278,-49 381,-49 381,-79.5"/>
<text xml:space="preserve" text-anchor="start" x="286" y="-66" font-family="Helvetica,sans-Serif" font-size="10.00">lmms::gui::PianoRoll</text>
<text xml:space="preserve" text-anchor="middle" x="329.5" y="-54.75" font-family="Helvetica,sans-Serif" font-size="10.00">::quantizeNotes</text>
</a>
</g>
</g>
<!-- Node6&#45;&gt;Node15 -->
<g id="edge28_Node000006_Node000015" class="edge">
<title>Node6&#45;&gt;Node15</title>
<g id="a_edge28_Node000006_Node000015"><a xlink:title=" ">
<path fill="none" stroke="#63b8ff" d="M418.67,-272.2C418.1,-271.57 417.54,-270.92 417,-270.25 370.46,-212.48 419.23,-170.83 381,-107.25 374.53,-96.49 364.42,-87.1 354.93,-79.86"/>
<polygon fill="#63b8ff" stroke="#63b8ff" points="416.15,-274.64 426,-278.53 420.72,-269.34 416.15,-274.64"/>
</a>
</g>
</g>
<!-- Node16 -->
<g id="Node000016" class="node">
<title>Node16</title>
<g id="a_Node000016"><a xlink:href="classlmms_1_1gui_1_1PianoRoll.html#afbfd3f2f230209c63e31a888d843944d" target="_top" xlink:title=" ">
<polygon fill="white" stroke="#666666" points="381,-451.5 278,-451.5 278,-421 381,-421 381,-451.5"/>
<text xml:space="preserve" text-anchor="start" x="286" y="-438" font-family="Helvetica,sans-Serif" font-size="10.00">lmms::gui::PianoRoll</text>
<text xml:space="preserve" text-anchor="middle" x="329.5" y="-426.75" font-family="Helvetica,sans-Serif" font-size="10.00">::updateKnifePos</text>
</a>
</g>
</g>
<!-- Node6&#45;&gt;Node16 -->
<g id="edge30_Node000006_Node000016" class="edge">
<title>Node6&#45;&gt;Node16</title>
<g id="a_edge30_Node000006_Node000016"><a xlink:title=" ">
<path fill="none" stroke="#63b8ff" d="M456.29,-320.66C440.26,-346.17 412.79,-385.3 381,-411.25 376.83,-414.65 372.12,-417.75 367.3,-420.51"/>
<polygon fill="#63b8ff" stroke="#63b8ff" points="459.2,-322.61 461.45,-312.25 453.24,-318.94 459.2,-322.61"/>
</a>
</g>
</g>
<!-- Node7&#45;&gt;Node7 -->
<g id="edge10_Node000007_Node000007" class="edge">
<title>Node7&#45;&gt;Node7</title>
<g id="a_edge10_Node000007_Node000007"><a xlink:title=" ">
<path fill="none" stroke="#63b8ff" d="M352.81,-396.2C349,-399.97 341.23,-402.5 329.5,-402.5 308.05,-402.5 299.84,-394.06 304.87,-384.99"/>
<polygon fill="#63b8ff" stroke="#63b8ff" points="356.26,-396.83 353.95,-386.49 349.31,-396.01 356.26,-396.83"/>
</a>
</g>
</g>
<!-- Node7&#45;&gt;Node8 -->
<g id="edge11_Node000007_Node000008" class="edge">
<title>Node7&#45;&gt;Node8</title>
<g id="a_edge11_Node000007_Node000008"><a xlink:title=" ">
<path fill="none" stroke="#63b8ff" d="M266.68,-359.93C229.64,-354.31 181.61,-346.96 139,-340.25 127.43,-338.43 114.99,-336.44 103.26,-334.54"/>
<polygon fill="#63b8ff" stroke="#63b8ff" points="265.9,-363.35 276.31,-361.39 266.95,-356.43 265.9,-363.35"/>
</a>
</g>
</g>
<!-- Node9 -->
<g id="Node000009" class="node">
<title>Node9</title>
<g id="a_Node000009"><a xlink:href="classlmms_1_1gui_1_1PianoRoll.html#a0fe6a59c7ae70f228af8cb4e183f52ed" target="_top" xlink:title=" ">
<polygon fill="white" stroke="#666666" points="242,-422.5 139,-422.5 139,-392 242,-392 242,-422.5"/>
<text xml:space="preserve" text-anchor="start" x="147" y="-409" font-family="Helvetica,sans-Serif" font-size="10.00">lmms::gui::PianoRoll</text>
<text xml:space="preserve" text-anchor="middle" x="190.5" y="-397.75" font-family="Helvetica,sans-Serif" font-size="10.00">::mouseMoveEvent</text>
</a>
</g>
</g>
<!-- Node7&#45;&gt;Node9 -->
<g id="edge13_Node000007_Node000009" class="edge">
<title>Node7&#45;&gt;Node9</title>
<g id="a_edge13_Node000007_Node000009"><a xlink:title=" ">
<path fill="none" stroke="#63b8ff" d="M266.84,-386.35C258.66,-388.62 250.35,-390.93 242.37,-393.14"/>
<polygon fill="#63b8ff" stroke="#63b8ff" points="267.72,-389.74 276.42,-383.7 265.85,-383 267.72,-389.74"/>
</a>
</g>
</g>
<!-- Node8&#45;&gt;Node8 -->
<g id="edge12_Node000008_Node000008" class="edge">
<title>Node8&#45;&gt;Node8</title>
<g id="a_edge12_Node000008_Node000008"><a xlink:title=" ">
<path fill="none" stroke="#63b8ff" d="M74.81,-353.2C71,-356.97 63.23,-359.5 51.5,-359.5 30.05,-359.5 21.84,-351.06 26.87,-341.99"/>
<polygon fill="#63b8ff" stroke="#63b8ff" points="78.26,-353.83 75.95,-343.49 71.31,-353.01 78.26,-353.83"/>
</a>
</g>
</g>
<!-- Node9&#45;&gt;Node2 -->
<g id="edge15_Node000009_Node000002" class="edge">
<title>Node9&#45;&gt;Node2</title>
<g id="a_edge15_Node000009_Node000002"><a xlink:title=" ">
<path fill="none" stroke="#63b8ff" d="M152.91,-428.61C129.7,-442.17 100.18,-459.41 79.17,-471.67"/>
<polygon fill="#63b8ff" stroke="#63b8ff" points="154.58,-431.69 161.45,-423.63 151.05,-425.65 154.58,-431.69"/>
</a>
</g>
</g>
<!-- Node9&#45;&gt;Node9 -->
<g id="edge14_Node000009_Node000009" class="edge">
<title>Node9&#45;&gt;Node9</title>
<g id="a_edge14_Node000009_Node000009"><a xlink:title=" ">
<path fill="none" stroke="#63b8ff" d="M213.81,-434.2C210,-437.97 202.23,-440.5 190.5,-440.5 169.05,-440.5 160.84,-432.06 165.87,-422.99"/>
<polygon fill="#63b8ff" stroke="#63b8ff" points="217.26,-434.83 214.95,-424.49 210.31,-434.01 217.26,-434.83"/>
</a>
</g>
</g>
<!-- Node10&#45;&gt;Node10 -->
<g id="edge17_Node000010_Node000010" class="edge">
<title>Node10&#45;&gt;Node10</title>
<g id="a_edge17_Node000010_Node000010"><a xlink:title=" ">
<path fill="none" stroke="#63b8ff" d="M352.81,-292.2C349,-295.97 341.23,-298.5 329.5,-298.5 308.05,-298.5 299.84,-290.06 304.87,-280.99"/>
<polygon fill="#63b8ff" stroke="#63b8ff" points="356.26,-292.83 353.95,-282.49 349.31,-292.01 356.26,-292.83"/>
</a>
</g>
</g>
<!-- Node11 -->
<g id="Node000011" class="node">
<title>Node11</title>
<g id="a_Node000011"><a xlink:href="classlmms_1_1gui_1_1PianoRoll.html#a016ac28946dd74e2dcf4e9ac6757a070" target="_top" xlink:title=" ">
<polygon fill="#fff0f0" stroke="red" points="242,-280.5 139,-280.5 139,-250 242,-250 242,-280.5"/>
<text xml:space="preserve" text-anchor="start" x="147" y="-267" font-family="Helvetica,sans-Serif" font-size="10.00">lmms::gui::PianoRoll</text>
<text xml:space="preserve" text-anchor="middle" x="190.5" y="-255.75" font-family="Helvetica,sans-Serif" font-size="10.00">::setCurrentMidiClip</text>
</a>
</g>
</g>
<!-- Node10&#45;&gt;Node11 -->
<g id="edge18_Node000010_Node000011" class="edge">
<title>Node10&#45;&gt;Node11</title>
<g id="a_edge18_Node000010_Node000011"><a xlink:title=" ">
<path fill="none" stroke="#63b8ff" d="M266.56,-265.25C258.47,-265.25 250.26,-265.25 242.37,-265.25"/>
<polygon fill="#63b8ff" stroke="#63b8ff" points="266.36,-268.75 276.36,-265.25 266.36,-261.75 266.36,-268.75"/>
</a>
</g>
</g>
<!-- Node11&#45;&gt;Node8 -->
<g id="edge19_Node000011_Node000008" class="edge">
<title>Node11&#45;&gt;Node8</title>
<g id="a_edge19_Node000011_Node000008"><a xlink:title=" ">
<path fill="none" stroke="#63b8ff" d="M143.78,-285.61C125.48,-293.75 104.74,-302.99 87.66,-310.59"/>
<polygon fill="#63b8ff" stroke="#63b8ff" points="145.12,-288.84 152.84,-281.57 142.28,-282.44 145.12,-288.84"/>
</a>
</g>
</g>
<!-- Node11&#45;&gt;Node11 -->
<g id="edge20_Node000011_Node000011" class="edge">
<title>Node11&#45;&gt;Node11</title>
<g id="a_edge20_Node000011_Node000011"><a xlink:title=" ">
<path fill="none" stroke="#63b8ff" d="M213.81,-292.2C210,-295.97 202.23,-298.5 190.5,-298.5 169.05,-298.5 160.84,-290.06 165.87,-280.99"/>
<polygon fill="#63b8ff" stroke="#63b8ff" points="217.26,-292.83 214.95,-282.49 210.31,-292.01 217.26,-292.83"/>
</a>
</g>
</g>
<!-- Node13&#45;&gt;Node13 -->
<g id="edge24_Node000013_Node000013" class="edge">
<title>Node13&#45;&gt;Node13</title>
<g id="a_edge24_Node000013_Node000013"><a xlink:title=" ">
<path fill="none" stroke="#63b8ff" d="M352.81,-225.2C349,-228.97 341.23,-231.5 329.5,-231.5 308.05,-231.5 299.84,-223.06 304.87,-213.99"/>
<polygon fill="#63b8ff" stroke="#63b8ff" points="356.26,-225.83 353.95,-215.49 349.31,-225.01 356.26,-225.83"/>
</a>
</g>
</g>
<!-- Node14&#45;&gt;Node14 -->
<g id="edge26_Node000014_Node000014" class="edge">
<title>Node14&#45;&gt;Node14</title>
<g id="a_edge26_Node000014_Node000014"><a xlink:title=" ">
<path fill="none" stroke="#63b8ff" d="M352.81,-158.2C349,-161.97 341.23,-164.5 329.5,-164.5 308.05,-164.5 299.84,-156.06 304.87,-146.99"/>
<polygon fill="#63b8ff" stroke="#63b8ff" points="356.26,-158.83 353.95,-148.49 349.31,-158.01 356.26,-158.83"/>
</a>
</g>
</g>
<!-- Node15&#45;&gt;Node15 -->
<g id="edge29_Node000015_Node000015" class="edge">
<title>Node15&#45;&gt;Node15</title>
<g id="a_edge29_Node000015_Node000015"><a xlink:title=" ">
<path fill="none" stroke="#63b8ff" d="M352.81,-91.2C349,-94.97 341.23,-97.5 329.5,-97.5 308.05,-97.5 299.84,-89.06 304.87,-79.99"/>
<polygon fill="#63b8ff" stroke="#63b8ff" points="356.26,-91.83 353.95,-81.49 349.31,-91.01 356.26,-91.83"/>
</a>
</g>
</g>
<!-- Node16&#45;&gt;Node2 -->
<g id="edge32_Node000016_Node000002" class="edge">
<title>Node16&#45;&gt;Node2</title>
<g id="a_edge32_Node000016_Node000002"><a xlink:title=" ">
<path fill="none" stroke="#63b8ff" d="M266.4,-447.72C217.14,-456.83 149.15,-469.39 103.15,-477.89"/>
<polygon fill="#63b8ff" stroke="#63b8ff" points="266.87,-451.2 276.07,-445.94 265.6,-444.31 266.87,-451.2"/>
</a>
</g>
</g>
<!-- Node16&#45;&gt;Node9 -->
<g id="edge31_Node000016_Node000009" class="edge">
<title>Node16&#45;&gt;Node9</title>
<g id="a_edge31_Node000016_Node000009"><a xlink:title=" ">
<path fill="none" stroke="#63b8ff" d="M266.84,-423.2C258.66,-421.47 250.35,-419.71 242.37,-418.02"/>
<polygon fill="#63b8ff" stroke="#63b8ff" points="265.89,-426.57 276.39,-425.22 267.34,-419.73 265.89,-426.57"/>
</a>
</g>
</g>
<!-- Node16&#45;&gt;Node16 -->
<g id="edge33_Node000016_Node000016" class="edge">
<title>Node16&#45;&gt;Node16</title>
<g id="a_edge33_Node000016_Node000016"><a xlink:title=" ">
<path fill="none" stroke="#63b8ff" d="M352.81,-463.2C349,-466.97 341.23,-469.5 329.5,-469.5 308.05,-469.5 299.84,-461.06 304.87,-451.99"/>
<polygon fill="#63b8ff" stroke="#63b8ff" points="356.26,-463.83 353.95,-453.49 349.31,-463.01 356.26,-463.83"/>
</a>
</g>
</g>
<!-- Node17&#45;&gt;Node17 -->
<g id="edge35_Node000017_Node000017" class="edge">
<title>Node17&#45;&gt;Node17</title>
<g id="a_edge35_Node000017_Node000017"><a xlink:title=" ">
<path fill="none" stroke="#63b8ff" d="M496.19,-188.2C492.28,-191.97 484.3,-194.5 472.25,-194.5 450.22,-194.5 441.79,-186.06 446.95,-176.99"/>
<polygon fill="#63b8ff" stroke="#63b8ff" points="499.64,-188.84 497.36,-178.49 492.69,-188 499.64,-188.84"/>
</a>
</g>
</g>
</g>
</svg>

<g id="navigator" transform="translate(0 0)" fill="#404254">
  <rect fill="#f2f5e9" fill-opacity="0.5" stroke="#606060" stroke-width=".5" x="0" y="0" width="60" height="60"/>
  <use id="zoomplus" xlink:href="#zoomPlus" x="17" y="9" onmousedown="handleZoom(evt,'in')"/>
  <use id="zoomminus" xlink:href="#zoomMin" x="42" y="9" onmousedown="handleZoom(evt,'out')"/>
  <use id="reset" xlink:href="#resetDef" x="30" y="36" onmousedown="handleReset()"/>
   <use id="arrowup" xlink:href="#arrowUp" x="0" y="0" onmousedown="handlePan(0,-1)"/>
  <use id="arrowright" xlink:href="#arrowRight" x="0" y="0" onmousedown="handlePan(1,0)"/>
  <use id="arrowdown" xlink:href="#arrowDown" x="0" y="0" onmousedown="handlePan(0,1)"/>
  <use id="arrowleft" xlink:href="#arrowLeft" x="0" y="0" onmousedown="handlePan(-1,0)"/>
</g>
<svg viewBox="0 0 15 15" width="100%" height="30px" preserveAspectRatio="xMaxYMin meet">
 <g id="arrow_out" transform="scale(0.3 0.3)">
  <a xlink:href="classlmms_1_1gui_1_1PianoRoll_a084c0d92c78de2dd8d486719cf3b49ee_icgraph_org.svg" target="_base">
   <rect id="button" ry="5" rx="5" y="6" x="6" height="38" width="38"
        fill="#f2f5e9" fill-opacity="0.5" stroke="#606060" stroke-width="1.0"/>
   <path id="arrow"
     d="M 11.500037,31.436501 C 11.940474,20.09759 22.043105,11.32322 32.158766,21.979434 L 37.068811,17.246167 C 37.068811,17.246167 37.088388,32 37.088388,32 L 22.160133,31.978069 C 22.160133,31.978069 26.997745,27.140456 26.997745,27.140456 C 18.528582,18.264221 13.291696,25.230495 11.500037,31.436501 z"
     style="fill:#404040;"/>
  </a>
 </g>
</svg>

<style type='text/css'>
<![CDATA[
[data-mouse-over-selected='false'] { opacity: 0.7; }
[data-mouse-over-selected='true']  { opacity: 1.0; }
]]>
</style>
<script type="application/ecmascript"><![CDATA[
document.addEventListener('DOMContentLoaded', (event) => {
  highlightEdges();
  highlightAdjacentNodes();
});
]]></script>
</svg>
