<?xml version="1.0" encoding="UTF-8" standalone="no"?>
<!DOCTYPE svg PUBLIC "-//W3C//DTD SVG 1.1//EN"
 "http://www.w3.org/Graphics/SVG/1.1/DTD/svg11.dtd">
<!-- Generated by graphviz version 14.0.2 (0)
 -->
<!-- Title: lmms::gui::ClipView::paintTextLabel Pages: 1 -->
<svg width="277pt" height="186pt"
 viewBox="0.00 0.00 277.00 186.00" xmlns="http://www.w3.org/2000/svg" xmlns:xlink="http://www.w3.org/1999/xlink">

<svg id="main" version="1.1" xmlns="http://www.w3.org/2000/svg" xmlns:xlink="http://www.w3.org/1999/xlink" xml:space="preserve">

<style type="text/css"><![CDATA[
.node, .edge {opacity: 0.7;}
.node.selected, .edge.selected {opacity: 1;}
.edge:hover path { stroke: red; }
.edge:hover polygon { stroke: red; fill: red; }
]]></style>
<script type="application/ecmascript" xlink:href="svg.min.js"/>
<svg id="graph" class="graph">
<g id="graph0" class="graph" transform="scale(1 1) rotate(0) translate(4 181.5)">
<title>lmms::gui::ClipView::paintTextLabel</title>
<!-- Node1 -->
<g id="Node000001" class="node">
<title>Node1</title>
<g id="a_Node000001"><a xlink:title=" ">
<polygon fill="#999999" stroke="#666666" points="269,-103.5 169,-103.5 169,-73 269,-73 269,-103.5"/>
<text xml:space="preserve" text-anchor="start" x="177" y="-90" font-family="Helvetica,sans-Serif" font-size="10.00">lmms::gui::ClipView</text>
<text xml:space="preserve" text-anchor="middle" x="219" y="-78.75" font-family="Helvetica,sans-Serif" font-size="10.00">::paintTextLabel</text>
</a>
</g>
</g>
<!-- Node1&#45;&gt;Node1 -->
<g id="edge5_Node000001_Node000001" class="edge">
<title>Node1&#45;&gt;Node1</title>
<g id="a_edge5_Node000001_Node000001"><a xlink:title=" ">
<path fill="none" stroke="#63b8ff" d="M244.57,-115.2C240.39,-118.97 231.87,-121.5 219,-121.5 195.47,-121.5 186.46,-113.06 191.98,-103.99"/>
<polygon fill="#63b8ff" stroke="#63b8ff" points="248.02,-115.85 245.83,-105.49 241.08,-114.96 248.02,-115.85"/>
</a>
</g>
</g>
<!-- Node2 -->
<g id="Node000002" class="node">
<title>Node2</title>
<g id="a_Node000002"><a xlink:href="classlmms_1_1gui_1_1AutomationClipView.html#a8715fe23bb6563bb298282cd7003fea4" target="_top" xlink:title=" ">
<polygon fill="white" stroke="#666666" points="130.38,-177.5 2.62,-177.5 2.62,-147 130.38,-147 130.38,-177.5"/>
<text xml:space="preserve" text-anchor="start" x="10.62" y="-164" font-family="Helvetica,sans-Serif" font-size="10.00">lmms::gui::AutomationClip</text>
<text xml:space="preserve" text-anchor="middle" x="66.5" y="-152.75" font-family="Helvetica,sans-Serif" font-size="10.00">View::paintEvent</text>
</a>
</g>
</g>
<!-- Node1&#45;&gt;Node2 -->
<g id="edge1_Node000001_Node000002" class="edge">
<title>Node1&#45;&gt;Node2</title>
<g id="a_edge1_Node000001_Node000002"><a xlink:title=" ">
<path fill="none" stroke="#63b8ff" d="M183.75,-109.65C168.51,-118.74 150.16,-129.09 133,-137.25 126.18,-140.49 118.83,-143.63 111.59,-146.52"/>
<polygon fill="#63b8ff" stroke="#63b8ff" points="185.22,-112.85 191.97,-104.68 181.61,-106.86 185.22,-112.85"/>
</a>
</g>
</g>
<!-- Node3 -->
<g id="Node000003" class="node">
<title>Node3</title>
<g id="a_Node000003"><a xlink:href="classlmms_1_1gui_1_1MidiClipView.html#a041774f781d96edcfd26c400403f2160" target="_top" xlink:title=" ">
<polygon fill="white" stroke="#666666" points="125.5,-128.5 7.5,-128.5 7.5,-98 125.5,-98 125.5,-128.5"/>
<text xml:space="preserve" text-anchor="start" x="15.5" y="-115" font-family="Helvetica,sans-Serif" font-size="10.00">lmms::gui::MidiClipView</text>
<text xml:space="preserve" text-anchor="middle" x="66.5" y="-103.75" font-family="Helvetica,sans-Serif" font-size="10.00">::paintEvent</text>
</a>
</g>
</g>
<!-- Node1&#45;&gt;Node3 -->
<g id="edge2_Node000001_Node000003" class="edge">
<title>Node1&#45;&gt;Node3</title>
<g id="a_edge2_Node000001_Node000003"><a xlink:title=" ">
<path fill="none" stroke="#63b8ff" d="M157.55,-98.29C147.08,-100.03 136.21,-101.84 125.79,-103.57"/>
<polygon fill="#63b8ff" stroke="#63b8ff" points="157.94,-101.78 167.23,-96.68 156.79,-94.87 157.94,-101.78"/>
</a>
</g>
</g>
<!-- Node4 -->
<g id="Node000004" class="node">
<title>Node4</title>
<g id="a_Node000004"><a xlink:href="classlmms_1_1gui_1_1PatternClipView.html#a2dabf7930678c20420dac534a8eada2e" target="_top" xlink:title=" ">
<polygon fill="white" stroke="#666666" points="132.25,-79.5 0.75,-79.5 0.75,-49 132.25,-49 132.25,-79.5"/>
<text xml:space="preserve" text-anchor="start" x="8.75" y="-66" font-family="Helvetica,sans-Serif" font-size="10.00">lmms::gui::PatternClipView</text>
<text xml:space="preserve" text-anchor="middle" x="66.5" y="-54.75" font-family="Helvetica,sans-Serif" font-size="10.00">::paintEvent</text>
</a>
</g>
</g>
<!-- Node1&#45;&gt;Node4 -->
<g id="edge3_Node000001_Node000004" class="edge">
<title>Node1&#45;&gt;Node4</title>
<g id="a_edge3_Node000001_Node000004"><a xlink:title=" ">
<path fill="none" stroke="#63b8ff" d="M157.35,-78.58C149.17,-77.27 140.75,-75.93 132.5,-74.61"/>
<polygon fill="#63b8ff" stroke="#63b8ff" points="156.8,-82.03 167.23,-80.15 157.9,-75.12 156.8,-82.03"/>
</a>
</g>
</g>
<!-- Node5 -->
<g id="Node000005" class="node">
<title>Node5</title>
<g id="a_Node000005"><a xlink:href="classlmms_1_1gui_1_1SampleClipView.html#a92f9d8f255be088811e443ce43aae9b2" target="_top" xlink:title=" ">
<polygon fill="white" stroke="#666666" points="133,-30.5 0,-30.5 0,0 133,0 133,-30.5"/>
<text xml:space="preserve" text-anchor="start" x="8" y="-17" font-family="Helvetica,sans-Serif" font-size="10.00">lmms::gui::SampleClipView</text>
<text xml:space="preserve" text-anchor="middle" x="66.5" y="-5.75" font-family="Helvetica,sans-Serif" font-size="10.00">::paintEvent</text>
</a>
</g>
</g>
<!-- Node1&#45;&gt;Node5 -->
<g id="edge4_Node000001_Node000005" class="edge">
<title>Node1&#45;&gt;Node5</title>
<g id="a_edge4_Node000001_Node000005"><a xlink:title=" ">
<path fill="none" stroke="#63b8ff" d="M182.59,-66.69C167.57,-57.95 149.7,-48.1 133,-40.25 126.06,-36.99 118.57,-33.82 111.22,-30.89"/>
<polygon fill="#63b8ff" stroke="#63b8ff" points="180.79,-69.69 191.19,-71.75 184.35,-63.66 180.79,-69.69"/>
</a>
</g>
</g>
</g>
</svg>
</svg>

<style type='text/css'>
<![CDATA[
[data-mouse-over-selected='false'] { opacity: 0.7; }
[data-mouse-over-selected='true']  { opacity: 1.0; }
]]>
</style>
<script type="application/ecmascript"><![CDATA[
document.addEventListener('DOMContentLoaded', (event) => {
  highlightEdges();
  highlightAdjacentNodes();
});
]]></script>
</svg>
