<?xml version="1.0" encoding="UTF-8" standalone="no"?>
<!DOCTYPE svg PUBLIC "-//W3C//DTD SVG 1.1//EN"
 "http://www.w3.org/Graphics/SVG/1.1/DTD/svg11.dtd">
<!-- Generated by graphviz version 14.0.2 (0)
 -->
<!-- Title: lmms::ToolPlugin::ToolPlugin Pages: 1 -->
<svg width="480pt" height="168pt"
 viewBox="0.00 0.00 480.00 168.00" xmlns="http://www.w3.org/2000/svg" xmlns:xlink="http://www.w3.org/1999/xlink">
<g id="graph0" class="graph" transform="scale(1 1) rotate(0) translate(4 163.88)">
<title>lmms::ToolPlugin::ToolPlugin</title>
<!-- Node1 -->
<g id="Node000001" class="node">
<title>Node1</title>
<g id="a_Node000001"><a xlink:title=" ">
<polygon fill="#999999" stroke="#666666" points="471.75,-83.25 331.25,-83.25 331.25,-64 471.75,-64 471.75,-83.25"/>
<text xml:space="preserve" text-anchor="middle" x="401.5" y="-69.75" font-family="Helvetica,sans-Serif" font-size="10.00">lmms::ToolPlugin::ToolPlugin</text>
</a>
</g>
</g>
<!-- Node2 -->
<g id="Node000002" class="node">
<title>Node2</title>
<g id="a_Node000002"><a xlink:href="classlmms_1_1ToolPlugin.html#a7b4ecc96a48a34c008af2e1cbaeb9b30" target="_top" xlink:title=" ">
<polygon fill="white" stroke="#666666" points="294.12,-143.25 154.38,-143.25 154.38,-124 294.12,-124 294.12,-143.25"/>
<text xml:space="preserve" text-anchor="middle" x="224.25" y="-129.75" font-family="Helvetica,sans-Serif" font-size="10.00">lmms::ToolPlugin::instantiate</text>
</a>
</g>
</g>
<!-- Node1&#45;&gt;Node2 -->
<g id="edge1_Node000001_Node000002" class="edge">
<title>Node1&#45;&gt;Node2</title>
<g id="a_edge1_Node000001_Node000002"><a xlink:title=" ">
<path fill="none" stroke="#63b8ff" d="M360.33,-87.38C328.12,-98.41 283.65,-113.63 254.68,-123.55"/>
<polygon fill="#63b8ff" stroke="#63b8ff" points="361.41,-90.71 369.74,-84.16 359.14,-84.09 361.41,-90.71"/>
</a>
</g>
</g>
<!-- Node4 -->
<g id="Node000004" class="node">
<title>Node4</title>
<g id="a_Node000004"><a xlink:href="classlmms_1_1ToolPlugin.html#aca22928d5b10fe6f74e87975128c71c3" target="_top" xlink:title=" ">
<polygon fill="white" stroke="#666666" points="106,-110.88 11.25,-110.88 11.25,-80.38 106,-80.38 106,-110.88"/>
<text xml:space="preserve" text-anchor="start" x="19.25" y="-97.38" font-family="Helvetica,sans-Serif" font-size="10.00">lmms::ToolPlugin::</text>
<text xml:space="preserve" text-anchor="middle" x="58.62" y="-86.12" font-family="Helvetica,sans-Serif" font-size="10.00">~ToolPlugin</text>
</a>
</g>
</g>
<!-- Node1&#45;&gt;Node4 -->
<g id="edge6_Node000001_Node000004" class="edge">
<title>Node1&#45;&gt;Node4</title>
<g id="a_edge6_Node000001_Node000004"><a xlink:title=" ">
<path fill="none" stroke="#63b8ff" d="M319.82,-78.83C253.26,-83.13 161.15,-89.07 106.25,-92.62"/>
<polygon fill="#63b8ff" stroke="#63b8ff" points="319.84,-82.34 329.6,-78.2 319.39,-75.35 319.84,-82.34"/>
</a>
</g>
</g>
<!-- Node5 -->
<g id="Node000005" class="node">
<title>Node5</title>
<g id="a_Node000005"><a xlink:href="classlmms_1_1LadspaBrowser.html#a848c53cbe80d1f6df8d257659a26e3b6" target="_top" xlink:title=" ">
<polygon fill="white" stroke="#666666" points="280.62,-67.88 167.88,-67.88 167.88,-37.38 280.62,-37.38 280.62,-67.88"/>
<text xml:space="preserve" text-anchor="start" x="175.88" y="-54.38" font-family="Helvetica,sans-Serif" font-size="10.00">lmms::LadspaBrowser</text>
<text xml:space="preserve" text-anchor="middle" x="224.25" y="-43.12" font-family="Helvetica,sans-Serif" font-size="10.00">::LadspaBrowser</text>
</a>
</g>
</g>
<!-- Node1&#45;&gt;Node5 -->
<g id="edge4_Node000001_Node000005" class="edge">
<title>Node1&#45;&gt;Node5</title>
<g id="a_edge4_Node000001_Node000005"><a xlink:title=" ">
<path fill="none" stroke="#63b8ff" d="M319.57,-63.93C306.49,-62.36 293.21,-60.77 280.91,-59.29"/>
<polygon fill="#63b8ff" stroke="#63b8ff" points="319.14,-67.4 329.48,-65.11 319.97,-60.45 319.14,-67.4"/>
</a>
</g>
</g>
<!-- Node6 -->
<g id="Node000006" class="node">
<title>Node6</title>
<g id="a_Node000006"><a xlink:href="classlmms_1_1TapTempo.html#a2cd017d2001608180ce91c7931d76a41" target="_top" xlink:title=" ">
<polygon fill="white" stroke="#666666" points="295.25,-19.25 153.25,-19.25 153.25,0 295.25,0 295.25,-19.25"/>
<text xml:space="preserve" text-anchor="middle" x="224.25" y="-5.75" font-family="Helvetica,sans-Serif" font-size="10.00">lmms::TapTempo::TapTempo</text>
</a>
</g>
</g>
<!-- Node1&#45;&gt;Node6 -->
<g id="edge5_Node000001_Node000006" class="edge">
<title>Node1&#45;&gt;Node6</title>
<g id="a_edge5_Node000001_Node000006"><a xlink:title=" ">
<path fill="none" stroke="#63b8ff" d="M369.07,-58.83C348.38,-49.43 320.55,-37.42 295.25,-28.62 285.97,-25.4 275.85,-22.38 266.26,-19.73"/>
<polygon fill="#63b8ff" stroke="#63b8ff" points="367.55,-61.98 378.1,-62.98 370.47,-55.62 367.55,-61.98"/>
</a>
</g>
</g>
<!-- Node3 -->
<g id="Node000003" class="node">
<title>Node3</title>
<g id="a_Node000003"><a xlink:href="classlmms_1_1gui_1_1MainWindow.html#a0ee2d92b7c89612f9c2d6f1ace9ff7fc" target="_top" xlink:title=" ">
<polygon fill="white" stroke="#666666" points="117.25,-159.88 0,-159.88 0,-129.38 117.25,-129.38 117.25,-159.88"/>
<text xml:space="preserve" text-anchor="start" x="8" y="-146.38" font-family="Helvetica,sans-Serif" font-size="10.00">lmms::gui::MainWindow</text>
<text xml:space="preserve" text-anchor="middle" x="58.62" y="-135.12" font-family="Helvetica,sans-Serif" font-size="10.00">::finalize</text>
</a>
</g>
</g>
<!-- Node2&#45;&gt;Node3 -->
<g id="edge2_Node000002_Node000003" class="edge">
<title>Node2&#45;&gt;Node3</title>
<g id="a_edge2_Node000002_Node000003"><a xlink:title=" ">
<path fill="none" stroke="#63b8ff" d="M143.08,-139.01C134.48,-139.59 125.86,-140.17 117.6,-140.73"/>
<polygon fill="#63b8ff" stroke="#63b8ff" points="143.08,-142.52 152.82,-138.36 142.61,-135.54 143.08,-142.52"/>
</a>
</g>
</g>
<!-- Node2&#45;&gt;Node4 -->
<g id="edge3_Node000002_Node000004" class="edge">
<title>Node2&#45;&gt;Node4</title>
<g id="a_edge3_Node000002_Node000004"><a xlink:title=" ">
<path fill="none" stroke="#63b8ff" d="M168.89,-121C148.66,-116.3 125.9,-111.02 106.41,-106.49"/>
<polygon fill="#63b8ff" stroke="#63b8ff" points="167.82,-124.35 178.36,-123.2 169.41,-117.53 167.82,-124.35"/>
</a>
</g>
</g>
</g>
</svg>
