<?xml version="1.0" encoding="UTF-8" standalone="no"?>
<!DOCTYPE svg PUBLIC "-//W3C//DTD SVG 1.1//EN"
 "http://www.w3.org/Graphics/SVG/1.1/DTD/svg11.dtd">
<!-- Generated by graphviz version 14.0.2 (0)
 -->
<!-- Title: water::File::getFileName Pages: 1 -->
<svg width="824pt" height="695pt"
 viewBox="0.00 0.00 824.00 695.00" xmlns="http://www.w3.org/2000/svg" xmlns:xlink="http://www.w3.org/1999/xlink">
<g id="graph0" class="graph" transform="scale(1 1) rotate(0) translate(4 691.37)">
<title>water::File::getFileName</title>
<!-- Node1 -->
<g id="Node000001" class="node">
<title>Node1</title>
<g id="a_Node000001"><a xlink:title=" ">
<polygon fill="#999999" stroke="#666666" points="815.75,-398.25 695.5,-398.25 695.5,-379 815.75,-379 815.75,-398.25"/>
<text xml:space="preserve" text-anchor="middle" x="755.62" y="-384.75" font-family="Helvetica,sans-Serif" font-size="10.00">water::File::getFileName</text>
</a>
</g>
</g>
<!-- Node2 -->
<g id="Node000002" class="node">
<title>Node2</title>
<g id="a_Node000002"><a xlink:href="classwater_1_1File.html#a13d048bcc2191707e7e05350b783d90e" target="_top" xlink:title=" ">
<polygon fill="white" stroke="#666666" points="656.5,-668.25 522,-668.25 522,-649 656.5,-649 656.5,-668.25"/>
<text xml:space="preserve" text-anchor="middle" x="589.25" y="-654.75" font-family="Helvetica,sans-Serif" font-size="10.00">water::File::copyDirectoryTo</text>
</a>
</g>
</g>
<!-- Node1&#45;&gt;Node2 -->
<g id="edge1_Node000001_Node000002" class="edge">
<title>Node1&#45;&gt;Node2</title>
<g id="a_edge1_Node000001_Node000002"><a xlink:title=" ">
<path fill="none" stroke="#63b8ff" d="M744.42,-408.26C727.61,-440.28 692.65,-505.5 659.5,-558.62 638.37,-592.48 610.69,-630.85 597.66,-648.62"/>
<polygon fill="#63b8ff" stroke="#63b8ff" points="747.35,-410.22 748.88,-399.74 741.14,-406.98 747.35,-410.22"/>
</a>
</g>
</g>
<!-- Node77 -->
<g id="Node000077" class="node">
<title>Node77</title>
<g id="a_Node000077"><a xlink:href="CarlaEngine_8cpp.html#a0045a92b32b2abc07be7beafc56dab8b" target="_top" xlink:title=" ">
<polygon fill="white" stroke="#666666" points="649.38,-549.25 529.12,-549.25 529.12,-530 649.38,-530 649.38,-549.25"/>
<text xml:space="preserve" text-anchor="middle" x="589.25" y="-535.75" font-family="Helvetica,sans-Serif" font-size="10.00">findBinaryInCustomPath</text>
</a>
</g>
</g>
<!-- Node1&#45;&gt;Node77 -->
<g id="edge7_Node000001_Node000077" class="edge">
<title>Node1&#45;&gt;Node77</title>
<g id="a_edge7_Node000001_Node000077"><a xlink:title=" ">
<path fill="none" stroke="#63b8ff" d="M741.35,-407.79C724.34,-431.4 693.01,-471.8 659.5,-499.62 644.87,-511.78 626.06,-522.38 611.74,-529.61"/>
<polygon fill="#63b8ff" stroke="#63b8ff" points="744.13,-409.92 747.05,-399.74 738.42,-405.88 744.13,-409.92"/>
</a>
</g>
</g>
<!-- Node122 -->
<g id="Node000122" class="node">
<title>Node122</title>
<g id="a_Node000122"><a xlink:href="backend_2utils_2CachedPlugins_8cpp.html#a178efdbf484dea991904217601839d4d" target="_top" xlink:title=" ">
<polygon fill="white" stroke="#666666" points="646.75,-490.25 531.75,-490.25 531.75,-471 646.75,-471 646.75,-490.25"/>
<text xml:space="preserve" text-anchor="middle" x="589.25" y="-476.75" font-family="Helvetica,sans-Serif" font-size="10.00">get_cached_plugin_lv2</text>
</a>
</g>
</g>
<!-- Node1&#45;&gt;Node122 -->
<g id="edge13_Node000001_Node000122" class="edge">
<title>Node1&#45;&gt;Node122</title>
<g id="a_edge13_Node000001_Node000122"><a xlink:title=" ">
<path fill="none" stroke="#63b8ff" d="M726.99,-404.09C693.14,-423.04 636.77,-454.59 608.13,-470.62"/>
<polygon fill="#63b8ff" stroke="#63b8ff" points="728.38,-407.32 735.4,-399.38 724.96,-401.21 728.38,-407.32"/>
</a>
</g>
</g>
<!-- Node126 -->
<g id="Node000126" class="node">
<title>Node126</title>
<g id="a_Node000126"><a xlink:href="classCarlaPluginLV2.html#a2964e453b1fad292dc48eaca5417c32f" target="_top" xlink:title=" ">
<polygon fill="white" stroke="#666666" points="659.12,-311.88 519.38,-311.88 519.38,-281.38 659.12,-281.38 659.12,-311.88"/>
<text xml:space="preserve" text-anchor="start" x="527.38" y="-298.38" font-family="Helvetica,sans-Serif" font-size="10.00">CarlaPluginLV2::handleState</text>
<text xml:space="preserve" text-anchor="middle" x="589.25" y="-287.12" font-family="Helvetica,sans-Serif" font-size="10.00">MapToAbsolutePath</text>
</a>
</g>
</g>
<!-- Node1&#45;&gt;Node126 -->
<g id="edge17_Node000001_Node000126" class="edge">
<title>Node1&#45;&gt;Node126</title>
<g id="a_edge17_Node000001_Node000126"><a xlink:title=" ">
<path fill="none" stroke="#63b8ff" d="M726.83,-373.07C696.61,-356.15 648.57,-329.27 618.26,-312.3"/>
<polygon fill="#63b8ff" stroke="#63b8ff" points="724.96,-376.04 735.4,-377.87 728.38,-369.93 724.96,-376.04"/>
</a>
</g>
</g>
<!-- Node136 -->
<g id="Node000136" class="node">
<title>Node136</title>
<g id="a_Node000136"><a xlink:href="classCarlaPluginLV2.html#a909bc331682998d2f796aea357c71033" target="_top" xlink:title=" ">
<polygon fill="white" stroke="#666666" points="659.12,-262.88 519.38,-262.88 519.38,-232.38 659.12,-232.38 659.12,-262.88"/>
<text xml:space="preserve" text-anchor="start" x="527.38" y="-249.38" font-family="Helvetica,sans-Serif" font-size="10.00">CarlaPluginLV2::handleState</text>
<text xml:space="preserve" text-anchor="middle" x="589.25" y="-238.12" font-family="Helvetica,sans-Serif" font-size="10.00">MapToAbstractPath</text>
</a>
</g>
</g>
<!-- Node1&#45;&gt;Node136 -->
<g id="edge31_Node000001_Node000136" class="edge">
<title>Node1&#45;&gt;Node136</title>
<g id="a_edge31_Node000001_Node000136"><a xlink:title=" ">
<path fill="none" stroke="#63b8ff" d="M743.26,-369.03C727.51,-343.48 696.72,-298.93 659.5,-272.62 654.49,-269.08 648.92,-265.99 643.19,-263.31"/>
<polygon fill="#63b8ff" stroke="#63b8ff" points="740.14,-370.64 748.29,-377.42 746.15,-367.04 740.14,-370.64"/>
</a>
</g>
</g>
<!-- Node137 -->
<g id="Node000137" class="node">
<title>Node137</title>
<g id="a_Node000137"><a xlink:href="classwater_1_1File.html#a1fde5729c95440f3ba687fe856362725" target="_top" xlink:title=" ">
<polygon fill="white" stroke="#666666" points="659.5,-117.25 519,-117.25 519,-98 659.5,-98 659.5,-117.25"/>
<text xml:space="preserve" text-anchor="middle" x="589.25" y="-103.75" font-family="Helvetica,sans-Serif" font-size="10.00">water::File::withFileExtension</text>
</a>
</g>
</g>
<!-- Node1&#45;&gt;Node137 -->
<g id="edge32_Node000001_Node000137" class="edge">
<title>Node1&#45;&gt;Node137</title>
<g id="a_edge32_Node000001_Node000137"><a xlink:title=" ">
<path fill="none" stroke="#63b8ff" d="M743.41,-368.95C725.72,-337.96 690.18,-275.92 659.5,-223.62 636.36,-184.18 608.29,-137.52 596.23,-117.53"/>
<polygon fill="#63b8ff" stroke="#63b8ff" points="740.14,-370.28 748.14,-377.23 746.22,-366.81 740.14,-370.28"/>
</a>
</g>
</g>
<!-- Node2&#45;&gt;Node2 -->
<g id="edge3_Node000002_Node000002" class="edge">
<title>Node2&#45;&gt;Node2</title>
<g id="a_edge3_Node000002_Node000002"><a xlink:title=" ">
<path fill="none" stroke="#63b8ff" d="M619.08,-679.32C615.64,-683.37 605.7,-686.25 589.25,-686.25 560,-686.25 551.32,-677.15 563.2,-668.54"/>
<polygon fill="#63b8ff" stroke="#63b8ff" points="622.41,-678.24 615.8,-669.97 615.81,-680.56 622.41,-678.24"/>
</a>
</g>
</g>
<!-- Node3 -->
<g id="Node000003" class="node">
<title>Node3</title>
<g id="a_Node000003"><a xlink:href="classCarlaPluginLV2.html#a663def352bceab91e70d88646b9eec02" target="_top" xlink:title=" ">
<polygon fill="white" stroke="#666666" points="129.25,-673.88 0,-673.88 0,-643.38 129.25,-643.38 129.25,-673.88"/>
<text xml:space="preserve" text-anchor="start" x="8" y="-660.38" font-family="Helvetica,sans-Serif" font-size="10.00">CarlaPluginLV2::cloneLV2</text>
<text xml:space="preserve" text-anchor="middle" x="64.62" y="-649.12" font-family="Helvetica,sans-Serif" font-size="10.00">Files</text>
</a>
</g>
</g>
<!-- Node2&#45;&gt;Node3 -->
<g id="edge2_Node000002_Node000003" class="edge">
<title>Node2&#45;&gt;Node3</title>
<g id="a_edge2_Node000002_Node000003"><a xlink:title=" ">
<path fill="none" stroke="#63b8ff" d="M531.31,-670.82C515.72,-673.63 498.77,-676.21 483,-677.62 342.34,-690.22 305.85,-690.91 165.25,-677.62 153.68,-676.53 141.45,-674.74 129.68,-672.68"/>
<polygon fill="#63b8ff" stroke="#63b8ff" points="531.71,-674.3 540.89,-669.02 530.42,-667.42 531.71,-674.3"/>
</a>
</g>
</g>
<!-- Node4 -->
<g id="Node000004" class="node">
<title>Node4</title>
<g id="a_Node000004"><a xlink:href="classCarlaPlugin.html#a2889093a8fff1331822859d0ec96d744" target="_top" xlink:title=" ">
<polygon fill="white" stroke="#666666" points="465.75,-668.25 339.5,-668.25 339.5,-649 465.75,-649 465.75,-668.25"/>
<text xml:space="preserve" text-anchor="middle" x="402.62" y="-654.75" font-family="Helvetica,sans-Serif" font-size="10.00">CarlaPlugin::exportAsLV2</text>
</a>
</g>
</g>
<!-- Node2&#45;&gt;Node4 -->
<g id="edge4_Node000002_Node000004" class="edge">
<title>Node2&#45;&gt;Node4</title>
<g id="a_edge4_Node000002_Node000004"><a xlink:title=" ">
<path fill="none" stroke="#63b8ff" d="M510.43,-658.62C495.67,-658.62 480.4,-658.62 466.18,-658.62"/>
<polygon fill="#63b8ff" stroke="#63b8ff" points="510.08,-662.13 520.08,-658.63 510.08,-655.13 510.08,-662.13"/>
</a>
</g>
</g>
<!-- Node5 -->
<g id="Node000005" class="node">
<title>Node5</title>
<g id="a_Node000005"><a xlink:href="classCarlaPlugin.html#adf471acc5dad9ea93cf1e61fe5a6fd11" target="_top" xlink:title=" ">
<polygon fill="#fff0f0" stroke="red" points="278,-668.25 173.5,-668.25 173.5,-649 278,-649 278,-668.25"/>
<text xml:space="preserve" text-anchor="middle" x="225.75" y="-654.75" font-family="Helvetica,sans-Serif" font-size="10.00">CarlaPlugin::getType</text>
</a>
</g>
</g>
<!-- Node4&#45;&gt;Node5 -->
<g id="edge5_Node000004_Node000005" class="edge">
<title>Node4&#45;&gt;Node5</title>
<g id="a_edge5_Node000004_Node000005"><a xlink:title=" ">
<path fill="none" stroke="#63b8ff" d="M328.04,-658.62C311.31,-658.62 293.89,-658.62 278.31,-658.62"/>
<polygon fill="#63b8ff" stroke="#63b8ff" points="327.96,-662.13 337.96,-658.63 327.96,-655.13 327.96,-662.13"/>
</a>
</g>
</g>
<!-- Node5&#45;&gt;Node3 -->
<g id="edge6_Node000005_Node000003" class="edge">
<title>Node5&#45;&gt;Node3</title>
<g id="a_edge6_Node000005_Node000003"><a xlink:title=" ">
<path fill="none" stroke="#63b8ff" d="M161.79,-658.62C151.19,-658.62 140.18,-658.62 129.55,-658.62"/>
<polygon fill="#63b8ff" stroke="#63b8ff" points="161.57,-662.13 171.57,-658.63 161.57,-655.13 161.57,-662.13"/>
</a>
</g>
</g>
<!-- Node78 -->
<g id="Node000078" class="node">
<title>Node78</title>
<g id="a_Node000078"><a xlink:href="classCarlaEngine.html#af1715ed33b66c42cb72eb42c2a03a73f" target="_top" xlink:title=" ">
<polygon fill="white" stroke="#666666" points="463.12,-578.88 342.12,-578.88 342.12,-548.38 463.12,-548.38 463.12,-578.88"/>
<text xml:space="preserve" text-anchor="start" x="350.12" y="-565.38" font-family="Helvetica,sans-Serif" font-size="10.00">CarlaEngine::loadProject</text>
<text xml:space="preserve" text-anchor="middle" x="402.62" y="-554.12" font-family="Helvetica,sans-Serif" font-size="10.00">Internal</text>
</a>
</g>
</g>
<!-- Node77&#45;&gt;Node78 -->
<g id="edge8_Node000077_Node000078" class="edge">
<title>Node77&#45;&gt;Node78</title>
<g id="a_edge8_Node000077_Node000078"><a xlink:title=" ">
<path fill="none" stroke="#63b8ff" d="M517.6,-548.81C499.78,-551.13 480.82,-553.59 463.58,-555.83"/>
<polygon fill="#63b8ff" stroke="#63b8ff" points="517.85,-552.31 527.32,-547.55 516.95,-545.36 517.85,-552.31"/>
</a>
</g>
</g>
<!-- Node79 -->
<g id="Node000079" class="node">
<title>Node79</title>
<g id="a_Node000079"><a xlink:href="classCarlaEngine.html#a36efccb45856696250e11359b9495b0c" target="_top" xlink:title=" ">
<polygon fill="#fff0f0" stroke="red" points="286.25,-631.25 165.25,-631.25 165.25,-612 286.25,-612 286.25,-631.25"/>
<text xml:space="preserve" text-anchor="middle" x="225.75" y="-617.75" font-family="Helvetica,sans-Serif" font-size="10.00">CarlaEngine::loadProject</text>
</a>
</g>
</g>
<!-- Node78&#45;&gt;Node79 -->
<g id="edge9_Node000078_Node000079" class="edge">
<title>Node78&#45;&gt;Node79</title>
<g id="a_edge9_Node000078_Node000079"><a xlink:title=" ">
<path fill="none" stroke="#63b8ff" d="M347.01,-583.06C327.85,-589.75 306.15,-597.17 286.25,-603.62 278.04,-606.29 269.15,-609.05 260.81,-611.58"/>
<polygon fill="#63b8ff" stroke="#63b8ff" points="347.95,-586.44 356.23,-579.83 345.64,-579.83 347.95,-586.44"/>
</a>
</g>
</g>
<!-- Node92 -->
<g id="Node000092" class="node">
<title>Node92</title>
<g id="a_Node000092"><a xlink:href="classCarlaEngine.html#a42b525f191ce264fb351e911ea6123a2" target="_top" xlink:title=" ">
<polygon fill="#fff0f0" stroke="red" points="286.25,-576.25 165.25,-576.25 165.25,-557 286.25,-557 286.25,-576.25"/>
<text xml:space="preserve" text-anchor="middle" x="225.75" y="-562.75" font-family="Helvetica,sans-Serif" font-size="10.00">CarlaEngine::RackGraph</text>
</a>
</g>
</g>
<!-- Node78&#45;&gt;Node92 -->
<g id="edge10_Node000078_Node000092" class="edge">
<title>Node78&#45;&gt;Node92</title>
<g id="a_edge10_Node000078_Node000092"><a xlink:title=" ">
<path fill="none" stroke="#63b8ff" d="M330.83,-564.84C316.12,-565.09 300.74,-565.36 286.47,-565.6"/>
<polygon fill="#63b8ff" stroke="#63b8ff" points="330.48,-568.35 340.42,-564.68 330.36,-561.35 330.48,-568.35"/>
</a>
</g>
</g>
<!-- Node121 -->
<g id="Node000121" class="node">
<title>Node121</title>
<g id="a_Node000121"><a xlink:href="classCarlaEngineNative.html#a1ad526b83cb595c65613a3318b4981f3" target="_top" xlink:title=" ">
<polygon fill="white" stroke="#666666" points="276.12,-538.88 175.38,-538.88 175.38,-508.38 276.12,-508.38 276.12,-538.88"/>
<text xml:space="preserve" text-anchor="start" x="183.38" y="-525.38" font-family="Helvetica,sans-Serif" font-size="10.00">CarlaEngineNative::</text>
<text xml:space="preserve" text-anchor="middle" x="225.75" y="-514.12" font-family="Helvetica,sans-Serif" font-size="10.00">setState</text>
</a>
</g>
</g>
<!-- Node78&#45;&gt;Node121 -->
<g id="edge12_Node000078_Node000121" class="edge">
<title>Node78&#45;&gt;Node121</title>
<g id="a_edge12_Node000078_Node000121"><a xlink:title=" ">
<path fill="none" stroke="#63b8ff" d="M330.78,-547.42C312.61,-543.26 293.44,-538.88 276.58,-535.02"/>
<polygon fill="#63b8ff" stroke="#63b8ff" points="329.93,-550.82 340.46,-549.63 331.49,-543.99 329.93,-550.82"/>
</a>
</g>
</g>
<!-- Node92&#45;&gt;Node92 -->
<g id="edge11_Node000092_Node000092" class="edge">
<title>Node92&#45;&gt;Node92</title>
<g id="a_edge11_Node000092_Node000092"><a xlink:title=" ">
<path fill="none" stroke="#63b8ff" d="M254.64,-587.32C251.31,-591.37 241.68,-594.25 225.75,-594.25 197.43,-594.25 189.02,-585.15 200.53,-576.54"/>
<polygon fill="#63b8ff" stroke="#63b8ff" points="258,-586.31 251.46,-577.97 251.37,-588.57 258,-586.31"/>
</a>
</g>
</g>
<!-- Node123 -->
<g id="Node000123" class="node">
<title>Node123</title>
<g id="a_Node000123"><a xlink:href="backend_2utils_2CachedPlugins_8cpp.html#a8b52fd0c57a2097a21664859d0c9ad1f" target="_top" xlink:title=" ">
<polygon fill="white" stroke="#666666" points="474.75,-527.25 330.5,-527.25 330.5,-508 474.75,-508 474.75,-527.25"/>
<text xml:space="preserve" text-anchor="middle" x="402.62" y="-513.75" font-family="Helvetica,sans-Serif" font-size="10.00">carla_get_cached_plugin_info</text>
</a>
</g>
</g>
<!-- Node122&#45;&gt;Node123 -->
<g id="edge14_Node000122_Node000123" class="edge">
<title>Node122&#45;&gt;Node123</title>
<g id="a_edge14_Node000122_Node000123"><a xlink:title=" ">
<path fill="none" stroke="#63b8ff" d="M526.83,-492.93C503.19,-497.67 476.5,-503.02 454.01,-507.53"/>
<polygon fill="#63b8ff" stroke="#63b8ff" points="527.2,-496.43 536.32,-491.03 525.82,-489.57 527.2,-496.43"/>
</a>
</g>
</g>
<!-- Node124 -->
<g id="Node000124" class="node">
<title>Node124</title>
<g id="a_Node000124"><a xlink:href="carla-discovery_8cpp.html#a447022e36074a5ce2f4c665d38e79134" target="_top" xlink:title=" ">
<polygon fill="white" stroke="#666666" points="440.62,-490.25 364.62,-490.25 364.62,-471 440.62,-471 440.62,-490.25"/>
<text xml:space="preserve" text-anchor="middle" x="402.62" y="-476.75" font-family="Helvetica,sans-Serif" font-size="10.00">do_lv2_check</text>
</a>
</g>
</g>
<!-- Node122&#45;&gt;Node124 -->
<g id="edge15_Node000122_Node000124" class="edge">
<title>Node122&#45;&gt;Node124</title>
<g id="a_edge15_Node000122_Node000124"><a xlink:title=" ">
<path fill="none" stroke="#63b8ff" d="M520.11,-480.62C493.4,-480.62 463.78,-480.62 441.1,-480.62"/>
<polygon fill="#63b8ff" stroke="#63b8ff" points="519.84,-484.13 529.84,-480.63 519.84,-477.13 519.84,-484.13"/>
</a>
</g>
</g>
<!-- Node125 -->
<g id="Node000125" class="node">
<title>Node125</title>
<g id="a_Node000125"><a xlink:href="carla-discovery_8cpp.html#ac0f2228420376f4db7e1274f2b41667c" target="_top" xlink:title=" ">
<polygon fill="white" stroke="#666666" points="244.25,-490.25 207.25,-490.25 207.25,-471 244.25,-471 244.25,-490.25"/>
<text xml:space="preserve" text-anchor="middle" x="225.75" y="-476.75" font-family="Helvetica,sans-Serif" font-size="10.00">main</text>
</a>
</g>
</g>
<!-- Node124&#45;&gt;Node125 -->
<g id="edge16_Node000124_Node000125" class="edge">
<title>Node124&#45;&gt;Node125</title>
<g id="a_edge16_Node000124_Node000125"><a xlink:title=" ">
<path fill="none" stroke="#63b8ff" d="M353.25,-480.62C317.15,-480.62 269.86,-480.62 244.56,-480.62"/>
<polygon fill="#63b8ff" stroke="#63b8ff" points="353.02,-484.13 363.02,-480.63 353.02,-477.13 353.02,-484.13"/>
</a>
</g>
</g>
<!-- Node126&#45;&gt;Node3 -->
<g id="edge26_Node000126_Node000003" class="edge">
<title>Node126&#45;&gt;Node3</title>
<g id="a_edge26_Node000126_Node000003"><a xlink:title=" ">
<path fill="none" stroke="#63b8ff" d="M575.1,-322.05C558.18,-351.91 525.78,-400.32 483,-423.62 358.11,-491.68 281.76,-380.05 165.25,-461.62 101.2,-506.47 75.97,-604.94 68.36,-643.09"/>
<polygon fill="#63b8ff" stroke="#63b8ff" points="578.16,-323.75 579.9,-313.3 572.02,-320.38 578.16,-323.75"/>
</a>
</g>
</g>
<!-- Node127 -->
<g id="Node000127" class="node">
<title>Node127</title>
<g id="a_Node000127"><a xlink:href="classCarlaPluginLV2.html#a322c96d58478ef93f39e63390017a976" target="_top" xlink:title=" ">
<polygon fill="white" stroke="#666666" points="470.25,-414.88 335,-414.88 335,-384.38 470.25,-384.38 470.25,-414.88"/>
<text xml:space="preserve" text-anchor="start" x="343" y="-401.38" font-family="Helvetica,sans-Serif" font-size="10.00">CarlaPluginLV2::carla</text>
<text xml:space="preserve" text-anchor="middle" x="402.62" y="-390.12" font-family="Helvetica,sans-Serif" font-size="10.00">_lv2_state_make_path_real</text>
</a>
</g>
</g>
<!-- Node126&#45;&gt;Node127 -->
<g id="edge18_Node000126_Node000127" class="edge">
<title>Node126&#45;&gt;Node127</title>
<g id="a_edge18_Node000126_Node000127"><a xlink:title=" ">
<path fill="none" stroke="#63b8ff" d="M562.54,-319.52C542.17,-336.67 512.34,-359.67 483,-374.62 476.18,-378.1 468.78,-381.21 461.33,-383.96"/>
<polygon fill="#63b8ff" stroke="#63b8ff" points="564.74,-322.25 570.05,-313.08 560.18,-316.93 564.74,-322.25"/>
</a>
</g>
</g>
<!-- Node129 -->
<g id="Node000129" class="node">
<title>Node129</title>
<g id="a_Node000129"><a xlink:href="classCarlaPluginLV2.html#a0327b212916ddba7cafc54b54e54a1b6" target="_top" xlink:title=" ">
<polygon fill="white" stroke="#666666" points="470.62,-365.88 334.62,-365.88 334.62,-335.38 470.62,-335.38 470.62,-365.88"/>
<text xml:space="preserve" text-anchor="start" x="342.62" y="-352.38" font-family="Helvetica,sans-Serif" font-size="10.00">CarlaPluginLV2::carla</text>
<text xml:space="preserve" text-anchor="middle" x="402.62" y="-341.12" font-family="Helvetica,sans-Serif" font-size="10.00">_lv2_state_make_path_tmp</text>
</a>
</g>
</g>
<!-- Node126&#45;&gt;Node129 -->
<g id="edge20_Node000126_Node000129" class="edge">
<title>Node126&#45;&gt;Node129</title>
<g id="a_edge20_Node000126_Node000129"><a xlink:title=" ">
<path fill="none" stroke="#63b8ff" d="M524.02,-315.41C502.22,-321.79 478.11,-328.84 457.23,-334.95"/>
<polygon fill="#63b8ff" stroke="#63b8ff" points="524.78,-318.84 533.4,-312.67 522.82,-312.12 524.78,-318.84"/>
</a>
</g>
</g>
<!-- Node130 -->
<g id="Node000130" class="node">
<title>Node130</title>
<g id="a_Node000130"><a xlink:href="classCarlaPluginLV2.html#a100093f3d4f413e332b5a327a646a40e" target="_top" xlink:title=" ">
<polygon fill="white" stroke="#666666" points="472.88,-317.5 332.38,-317.5 332.38,-275.75 472.88,-275.75 472.88,-317.5"/>
<text xml:space="preserve" text-anchor="start" x="340.38" y="-304" font-family="Helvetica,sans-Serif" font-size="10.00">CarlaPluginLV2::carla</text>
<text xml:space="preserve" text-anchor="start" x="340.38" y="-292.75" font-family="Helvetica,sans-Serif" font-size="10.00">_lv2_state_map_to_absolute</text>
<text xml:space="preserve" text-anchor="middle" x="402.62" y="-281.5" font-family="Helvetica,sans-Serif" font-size="10.00">_path_real</text>
</a>
</g>
</g>
<!-- Node126&#45;&gt;Node130 -->
<g id="edge22_Node000126_Node000130" class="edge">
<title>Node126&#45;&gt;Node130</title>
<g id="a_edge22_Node000126_Node000130"><a xlink:title=" ">
<path fill="none" stroke="#63b8ff" d="M507.64,-296.62C496.19,-296.62 484.5,-296.62 473.29,-296.62"/>
<polygon fill="#63b8ff" stroke="#63b8ff" points="507.46,-300.13 517.46,-296.63 507.46,-293.13 507.46,-300.13"/>
</a>
</g>
</g>
<!-- Node131 -->
<g id="Node000131" class="node">
<title>Node131</title>
<g id="a_Node000131"><a xlink:href="classCarlaPluginLV2.html#ac72c02bdb64eaf694457c1c1183530cc" target="_top" xlink:title=" ">
<polygon fill="white" stroke="#666666" points="472.88,-257.5 332.38,-257.5 332.38,-215.75 472.88,-215.75 472.88,-257.5"/>
<text xml:space="preserve" text-anchor="start" x="340.38" y="-244" font-family="Helvetica,sans-Serif" font-size="10.00">CarlaPluginLV2::carla</text>
<text xml:space="preserve" text-anchor="start" x="340.38" y="-232.75" font-family="Helvetica,sans-Serif" font-size="10.00">_lv2_state_map_to_absolute</text>
<text xml:space="preserve" text-anchor="middle" x="402.62" y="-221.5" font-family="Helvetica,sans-Serif" font-size="10.00">_path_tmp</text>
</a>
</g>
</g>
<!-- Node126&#45;&gt;Node131 -->
<g id="edge24_Node000126_Node000131" class="edge">
<title>Node126&#45;&gt;Node131</title>
<g id="a_edge24_Node000126_Node000131"><a xlink:title=" ">
<path fill="none" stroke="#63b8ff" d="M529.5,-277.53C510.28,-271.29 488.82,-264.31 469.13,-257.91"/>
<polygon fill="#63b8ff" stroke="#63b8ff" points="528.19,-280.79 538.78,-280.55 530.36,-274.13 528.19,-280.79"/>
</a>
</g>
</g>
<!-- Node132 -->
<g id="Node000132" class="node">
<title>Node132</title>
<g id="a_Node000132"><a xlink:href="classCarlaPluginLV2.html#ab2039d02f1a1e7b37d8503ad9d67d5d6" target="_top" xlink:title=" ">
<polygon fill="white" stroke="#666666" points="481.12,-197.25 324.12,-197.25 324.12,-178 481.12,-178 481.12,-197.25"/>
<text xml:space="preserve" text-anchor="middle" x="402.62" y="-183.75" font-family="Helvetica,sans-Serif" font-size="10.00">CarlaPluginLV2::prepareForSave</text>
</a>
</g>
</g>
<!-- Node126&#45;&gt;Node132 -->
<g id="edge27_Node000126_Node000132" class="edge">
<title>Node126&#45;&gt;Node132</title>
<g id="a_edge27_Node000126_Node000132"><a xlink:title=" ">
<path fill="none" stroke="#63b8ff" d="M523.5,-275.13C521.94,-274.02 520.44,-272.85 519,-271.62 493.86,-250.21 509.29,-226.61 483,-206.62 478.26,-203.02 472.94,-200.09 467.36,-197.71"/>
<polygon fill="#63b8ff" stroke="#63b8ff" points="521.25,-277.86 531.6,-280.11 524.92,-271.9 521.25,-277.86"/>
</a>
</g>
</g>
<!-- Node133 -->
<g id="Node000133" class="node">
<title>Node133</title>
<g id="a_Node000133"><a xlink:href="classCarlaPluginLV2.html#a545b52834fccadf72e4bed40de74a418" target="_top" xlink:title=" ">
<polygon fill="white" stroke="#666666" points="470.62,-159.88 334.62,-159.88 334.62,-129.38 470.62,-129.38 470.62,-159.88"/>
<text xml:space="preserve" text-anchor="start" x="342.62" y="-146.38" font-family="Helvetica,sans-Serif" font-size="10.00">CarlaPluginLV2::restoreLV2</text>
<text xml:space="preserve" text-anchor="middle" x="402.62" y="-135.12" font-family="Helvetica,sans-Serif" font-size="10.00">State</text>
</a>
</g>
</g>
<!-- Node126&#45;&gt;Node133 -->
<g id="edge28_Node000126_Node000133" class="edge">
<title>Node126&#45;&gt;Node133</title>
<g id="a_edge28_Node000126_Node000133"><a xlink:title=" ">
<path fill="none" stroke="#63b8ff" d="M522.16,-274.57C521.07,-273.63 520.01,-272.65 519,-271.62 484.89,-237.16 518.01,-202.18 483,-168.62 479.36,-165.14 475.23,-162.16 470.82,-159.61"/>
<polygon fill="#63b8ff" stroke="#63b8ff" points="519.82,-277.19 529.99,-280.15 523.88,-271.49 519.82,-277.19"/>
</a>
</g>
</g>
<!-- Node134 -->
<g id="Node000134" class="node">
<title>Node134</title>
<g id="a_Node000134"><a xlink:href="classCarlaPluginLV2.html#ac14cfe0a0fe2d2fd93745abbcf0cdd7c" target="_top" xlink:title=" ">
<polygon fill="white" stroke="#666666" points="466.5,-111.25 338.75,-111.25 338.75,-92 466.5,-92 466.5,-111.25"/>
<text xml:space="preserve" text-anchor="middle" x="402.62" y="-97.75" font-family="Helvetica,sans-Serif" font-size="10.00">CarlaPluginLV2::setName</text>
</a>
</g>
</g>
<!-- Node126&#45;&gt;Node134 -->
<g id="edge29_Node000126_Node000134" class="edge">
<title>Node126&#45;&gt;Node134</title>
<g id="a_edge29_Node000126_Node000134"><a xlink:title=" ">
<path fill="none" stroke="#63b8ff" d="M521.2,-273.93C520.44,-273.18 519.71,-272.42 519,-271.62 473.03,-220.18 531.76,-169.43 483,-120.62 478.39,-116.01 472.88,-112.45 466.93,-109.7"/>
<polygon fill="#63b8ff" stroke="#63b8ff" points="518.96,-276.61 528.98,-280.06 523.29,-271.12 518.96,-276.61"/>
</a>
</g>
</g>
<!-- Node135 -->
<g id="Node000135" class="node">
<title>Node135</title>
<g id="a_Node000135"><a xlink:href="classCarlaPluginLV2.html#a0d2dbc68e942cc8a7cfec8109e9f342a" target="_top" xlink:title=" ">
<polygon fill="white" stroke="#666666" points="483,-74.25 322.25,-74.25 322.25,-55 483,-55 483,-74.25"/>
<text xml:space="preserve" text-anchor="middle" x="402.62" y="-60.75" font-family="Helvetica,sans-Serif" font-size="10.00">CarlaPluginLV2::~CarlaPluginLV2</text>
</a>
</g>
</g>
<!-- Node126&#45;&gt;Node135 -->
<g id="edge30_Node000126_Node000135" class="edge">
<title>Node126&#45;&gt;Node135</title>
<g id="a_edge30_Node000126_Node000135"><a xlink:title=" ">
<path fill="none" stroke="#63b8ff" d="M521.09,-273.91C520.37,-273.17 519.67,-272.41 519,-271.62 463.5,-206.57 542.4,-144.13 483,-82.62 479.96,-79.47 476.49,-76.82 472.74,-74.6"/>
<polygon fill="#63b8ff" stroke="#63b8ff" points="518.54,-276.34 528.49,-279.98 522.98,-270.93 518.54,-276.34"/>
</a>
</g>
</g>
<!-- Node128 -->
<g id="Node000128" class="node">
<title>Node128</title>
<g id="a_Node000128"><a xlink:href="classCarlaPluginLV2.html#a15eb91d185c447c0c94d29f23f751a68" target="_top" xlink:title=" ">
<polygon fill="white" stroke="#666666" points="276.12,-333.25 175.38,-333.25 175.38,-314 276.12,-314 276.12,-333.25"/>
<text xml:space="preserve" text-anchor="middle" x="225.75" y="-319.75" font-family="Helvetica,sans-Serif" font-size="10.00">CarlaPluginLV2::init</text>
</a>
</g>
</g>
<!-- Node127&#45;&gt;Node128 -->
<g id="edge19_Node000127_Node000128" class="edge">
<title>Node127&#45;&gt;Node128</title>
<g id="a_edge19_Node000127_Node000128"><a xlink:title=" ">
<path fill="none" stroke="#63b8ff" d="M336.59,-380.23C331.7,-378.44 326.87,-376.57 322.25,-374.62 293.49,-362.54 261.87,-344.68 243.2,-333.62"/>
<polygon fill="#63b8ff" stroke="#63b8ff" points="335.32,-383.49 345.91,-383.51 337.64,-376.89 335.32,-383.49"/>
</a>
</g>
</g>
<!-- Node129&#45;&gt;Node128 -->
<g id="edge21_Node000129_Node000128" class="edge">
<title>Node129&#45;&gt;Node128</title>
<g id="a_edge21_Node000129_Node000128"><a xlink:title=" ">
<path fill="none" stroke="#63b8ff" d="M323.32,-338.54C307.38,-336.07 291.03,-333.55 276.43,-331.29"/>
<polygon fill="#63b8ff" stroke="#63b8ff" points="322.35,-341.93 332.77,-339.99 323.42,-335.01 322.35,-341.93"/>
</a>
</g>
</g>
<!-- Node130&#45;&gt;Node128 -->
<g id="edge23_Node000130_Node000128" class="edge">
<title>Node130&#45;&gt;Node128</title>
<g id="a_edge23_Node000130_Node000128"><a xlink:title=" ">
<path fill="none" stroke="#63b8ff" d="M321.02,-309.07C305.83,-311.41 290.37,-313.8 276.47,-315.95"/>
<polygon fill="#63b8ff" stroke="#63b8ff" points="321.16,-312.59 330.51,-307.6 320.09,-305.67 321.16,-312.59"/>
</a>
</g>
</g>
<!-- Node131&#45;&gt;Node128 -->
<g id="edge25_Node000131_Node000128" class="edge">
<title>Node131&#45;&gt;Node128</title>
<g id="a_edge25_Node000131_Node000128"><a xlink:title=" ">
<path fill="none" stroke="#63b8ff" d="M331.24,-262.46C328.18,-263.82 325.17,-265.21 322.25,-266.62 292.52,-280.98 259.89,-301.59 241.51,-313.69"/>
<polygon fill="#63b8ff" stroke="#63b8ff" points="332.56,-265.7 340.37,-258.54 329.8,-259.27 332.56,-265.7"/>
</a>
</g>
</g>
<!-- Node138 -->
<g id="Node000138" class="node">
<title>Node138</title>
<g id="a_Node000138"><a xlink:href="classwater_1_1File.html#a2e42f679804f5af21476dd35b20a04a3" target="_top" xlink:title=" ">
<polygon fill="white" stroke="#666666" points="468.75,-19.25 336.5,-19.25 336.5,0 468.75,0 468.75,-19.25"/>
<text xml:space="preserve" text-anchor="middle" x="402.62" y="-5.75" font-family="Helvetica,sans-Serif" font-size="10.00">water::File::createTempFile</text>
</a>
</g>
</g>
<!-- Node137&#45;&gt;Node138 -->
<g id="edge33_Node000137_Node000138" class="edge">
<title>Node137&#45;&gt;Node138</title>
<g id="a_edge33_Node000137_Node000138"><a xlink:title=" ">
<path fill="none" stroke="#63b8ff" d="M562.73,-91.56C541.68,-78.55 510.85,-60.09 483,-45.62 464.74,-36.14 443.48,-26.57 427.56,-19.69"/>
<polygon fill="#63b8ff" stroke="#63b8ff" points="560.88,-94.52 571.22,-96.83 564.57,-88.58 560.88,-94.52"/>
</a>
</g>
</g>
<!-- Node138&#45;&gt;Node138 -->
<g id="edge34_Node000138_Node000138" class="edge">
<title>Node138&#45;&gt;Node138</title>
<g id="a_edge34_Node000138_Node000138"><a xlink:title=" ">
<path fill="none" stroke="#63b8ff" d="M434.34,-30.32C430.69,-34.37 420.11,-37.25 402.62,-37.25 371.53,-37.25 362.3,-28.15 374.93,-19.54"/>
<polygon fill="#63b8ff" stroke="#63b8ff" points="437.62,-29.1 430.85,-20.96 431.06,-31.55 437.62,-29.1"/>
</a>
</g>
</g>
</g>
</svg>
