<?xml version="1.0" encoding="UTF-8" standalone="no"?>
<!DOCTYPE svg PUBLIC "-//W3C//DTD SVG 1.1//EN"
 "http://www.w3.org/Graphics/SVG/1.1/DTD/svg11.dtd">
<!-- Generated by graphviz version 14.0.2 (0)
 -->
<!-- Title: CarlaEngineJackAudioPort::~CarlaEngineJackAudioPort Pages: 1 -->
<!--zoomable 192 -->

<svg id="main" version="1.1" xmlns="http://www.w3.org/2000/svg" xmlns:xlink="http://www.w3.org/1999/xlink" xml:space="preserve" onload="init(evt)">

<style type="text/css"><![CDATA[
.node, .edge {opacity: 0.7;}
.node.selected, .edge.selected {opacity: 1;}
.edge:hover path { stroke: red; }
.edge:hover polygon { stroke: red; fill: red; }
]]></style>

<defs>
  <circle id="rim" cx="0" cy="0" r="7"/>
  <circle id="rim2" cx="0" cy="0" r="3.5"/>
  <g id="zoomPlus">
    <use xlink:href="#rim" fill="#404040"><set attributeName="fill" to="#808080" begin="zoomplus.mouseover" end="zoomplus.mouseout"/></use>
    <path d="M-4,0h8M0,-4v8" fill="none" stroke="white" stroke-width="1.5" pointer-events="none"/>
  </g>
  <g id="zoomMin">
    <use xlink:href="#rim" fill="#404040"><set attributeName="fill" to="#808080" begin="zoomminus.mouseover" end="zoomminus.mouseout"/></use>
    <path d="M-4,0h8" fill="none" stroke="white" stroke-width="1.5" pointer-events="none"/>
  </g>
  <g id="arrowUp" transform="translate(30 24)">
    <use xlink:href="#rim"/>
    <path pointer-events="none" fill="none" stroke="white" stroke-width="1.5" d="M0,-3.0v7 M-2.5,-0.5L0,-3.0L2.5,-0.5"/>
  </g>
  <g id="arrowRight" transform="rotate(90) translate(36 -43)">
    <use xlink:href="#rim"/>
    <path pointer-events="none" fill="none" stroke="white" stroke-width="1.5" d="M0,-3.0v7 M-2.5,-0.5L0,-3.0L2.5,-0.5"/>
  </g>
  <g id="arrowDown" transform="rotate(180) translate(-30 -48)">
    <use xlink:href="#rim"/>
    <path pointer-events="none" fill="none" stroke="white" stroke-width="1.5" d="M0,-3.0v7 M-2.5,-0.5L0,-3.0L2.5,-0.5"/>
  </g>
  <g id="arrowLeft" transform="rotate(270) translate(-36 17)">
    <use xlink:href="#rim"/>
    <path pointer-events="none" fill="none" stroke="white" stroke-width="1.5" d="M0,-3.0v7 M-2.5,-0.5L0,-3.0L2.5,-0.5"/>
  </g>
  <g id="resetDef">
    <use xlink:href="#rim2" fill="#404040"><set attributeName="fill" to="#808080" begin="reset.mouseover" end="reset.mouseout"/></use>
  </g>
</defs>
<script type="application/ecmascript">
var viewWidth = 755;
var viewHeight = 192;
var sectionId = 'dynsection-4';
</script>
<script type="application/ecmascript" xlink:href="svg.min.js"/>
<svg id="graph" class="graph">
<g id="viewport">
<title>CarlaEngineJackAudioPort::~CarlaEngineJackAudioPort</title>
<!-- Node1 -->
<g id="Node000001" class="node">
<title>Node1</title>
<g id="a_Node000001"><a xlink:title=" ">
<polygon fill="#999999" stroke="#666666" points="141.25,-127.88 0,-127.88 0,-97.38 141.25,-97.38 141.25,-127.88"/>
<text xml:space="preserve" text-anchor="start" x="8" y="-114.38" font-family="Helvetica,sans-Serif" font-size="10.00">CarlaEngineJackAudioPort</text>
<text xml:space="preserve" text-anchor="middle" x="70.62" y="-103.12" font-family="Helvetica,sans-Serif" font-size="10.00">::~CarlaEngineJackAudioPort</text>
</a>
</g>
</g>
<!-- Node2 -->
<g id="Node000002" class="node">
<title>Node2</title>
<g id="a_Node000002"><a xlink:href="JackBridgeExport_8cpp.html#aa32f53ebd2bdc35d2fc12cd82a573592" target="_top" xlink:title=" ">
<polygon fill="white" stroke="#666666" points="307.25,-122.25 177.25,-122.25 177.25,-103 307.25,-103 307.25,-122.25"/>
<text xml:space="preserve" text-anchor="middle" x="242.25" y="-108.75" font-family="Helvetica,sans-Serif" font-size="10.00">jackbridge_port_unregister</text>
</a>
</g>
</g>
<!-- Node1&#45;&gt;Node2 -->
<g id="edge1_Node000001_Node000002" class="edge">
<title>Node1&#45;&gt;Node2</title>
<g id="a_edge1_Node000001_Node000002"><a xlink:title=" ">
<path fill="none" stroke="#63b8ff" d="M141.6,-112.62C149.45,-112.62 157.47,-112.62 165.39,-112.62"/>
<polygon fill="#63b8ff" stroke="#63b8ff" points="165.37,-116.13 175.37,-112.63 165.37,-109.13 165.37,-116.13"/>
</a>
</g>
</g>
<!-- Node3 -->
<g id="Node000003" class="node">
<title>Node3</title>
<g id="a_Node000003"><a xlink:href="testSem_8cpp.html#a5cbf99e8849f2e3ea613ea0a2df2f272" target="_top" xlink:title=" ">
<polygon fill="white" stroke="#666666" points="553.75,-105.25 514.5,-105.25 514.5,-86 553.75,-86 553.75,-105.25"/>
<text xml:space="preserve" text-anchor="middle" x="534.12" y="-91.75" font-family="Helvetica,sans-Serif" font-size="10.00">client</text>
</a>
</g>
</g>
<!-- Node2&#45;&gt;Node3 -->
<g id="edge2_Node000002_Node000003" class="edge">
<title>Node2&#45;&gt;Node3</title>
<g id="a_edge2_Node000002_Node000003"><a xlink:title=" ">
<path fill="none" stroke="#63b8ff" d="M307.58,-108.85C368.37,-105.29 456.89,-100.1 502.87,-97.4"/>
<polygon fill="#63b8ff" stroke="#63b8ff" points="502.83,-100.91 512.61,-96.83 502.42,-93.92 502.83,-100.91"/>
</a>
</g>
</g>
<!-- Node7 -->
<g id="Node000007" class="node">
<title>Node7</title>
<g id="a_Node000007"><a xlink:href="JackBridge1_8cpp.html#a6b2147f1b721f3b08c283a1cd897ee12" target="_top" xlink:title=" ">
<polygon fill="white" stroke="#666666" points="442.5,-141.25 347.75,-141.25 347.75,-122 442.5,-122 442.5,-141.25"/>
<text xml:space="preserve" text-anchor="middle" x="395.12" y="-127.75" font-family="Helvetica,sans-Serif" font-size="10.00">getBridgeInstance</text>
</a>
</g>
</g>
<!-- Node2&#45;&gt;Node7 -->
<g id="edge6_Node000002_Node000007" class="edge">
<title>Node2&#45;&gt;Node7</title>
<g id="a_edge6_Node000002_Node000007"><a xlink:title=" ">
<path fill="none" stroke="#63b8ff" d="M307.67,-120.74C317.12,-121.93 326.81,-123.15 336.13,-124.32"/>
<polygon fill="#63b8ff" stroke="#63b8ff" points="335.4,-127.76 345.76,-125.53 336.27,-120.81 335.4,-127.76"/>
</a>
</g>
</g>
<!-- Node8 -->
<g id="Node000008" class="node">
<title>Node8</title>
<g id="a_Node000008"><a xlink:href="JackBridgeExport_8cpp.html#adee3844cf738d3cb8a9a94adf3ddb4af" target="_top" xlink:title=" ">
<polygon fill="white" stroke="#666666" points="442.5,-178.25 347.75,-178.25 347.75,-159 442.5,-159 442.5,-178.25"/>
<text xml:space="preserve" text-anchor="middle" x="395.12" y="-164.75" font-family="Helvetica,sans-Serif" font-size="10.00">getBridgeInstance</text>
</a>
</g>
</g>
<!-- Node2&#45;&gt;Node8 -->
<g id="edge7_Node000002_Node000008" class="edge">
<title>Node2&#45;&gt;Node8</title>
<g id="a_edge7_Node000002_Node000008"><a xlink:title=" ">
<path fill="none" stroke="#63b8ff" d="M269.09,-122.63C289.24,-130.39 317.97,-141.35 343.25,-150.62 346.92,-151.97 350.75,-153.36 354.59,-154.74"/>
<polygon fill="#63b8ff" stroke="#63b8ff" points="353.27,-157.98 363.87,-158.05 355.63,-151.39 353.27,-157.98"/>
</a>
</g>
</g>
<!-- Node16 -->
<g id="Node000016" class="node">
<title>Node16</title>
<g id="a_Node000016"><a xlink:href="group__PortFunctions.html#ga24107cf66d41762b75301881dcaab2fa" target="_top" xlink:title=" ">
<polygon fill="white" stroke="#666666" points="447,-64.25 343.25,-64.25 343.25,-45 447,-45 447,-64.25"/>
<text xml:space="preserve" text-anchor="middle" x="395.12" y="-50.75" font-family="Helvetica,sans-Serif" font-size="10.00">jack_port_unregister</text>
</a>
</g>
</g>
<!-- Node2&#45;&gt;Node16 -->
<g id="edge9_Node000002_Node000016" class="edge">
<title>Node2&#45;&gt;Node16</title>
<g id="a_edge9_Node000002_Node000016"><a xlink:title=" ">
<path fill="none" stroke="#63b8ff" d="M269.53,-102.52C293.79,-93.19 330.08,-79.25 357.24,-68.8"/>
<polygon fill="#63b8ff" stroke="#63b8ff" points="358.4,-72.11 366.48,-65.25 355.89,-65.57 358.4,-72.11"/>
</a>
</g>
</g>
<!-- Node4 -->
<g id="Node000004" class="node">
<title>Node4</title>
<g id="a_Node000004"><a xlink:href="classJack_1_1detail_1_1JackSynchro.html#af1e9982635110dde560d91082679f1b0" target="_top" xlink:title=" ">
<polygon fill="white" stroke="#666666" points="746.75,-159.88 621.25,-159.88 621.25,-129.38 746.75,-129.38 746.75,-159.88"/>
<text xml:space="preserve" text-anchor="start" x="629.25" y="-146.38" font-family="Helvetica,sans-Serif" font-size="10.00">Jack::detail::JackSynchro</text>
<text xml:space="preserve" text-anchor="middle" x="684" y="-135.12" font-family="Helvetica,sans-Serif" font-size="10.00">::Connect</text>
</a>
</g>
</g>
<!-- Node3&#45;&gt;Node4 -->
<g id="edge3_Node000003_Node000004" class="edge">
<title>Node3&#45;&gt;Node4</title>
<g id="a_edge3_Node000003_Node000004"><a xlink:title=" ">
<path fill="none" stroke="#63b8ff" d="M554.15,-101.93C572.11,-107.88 599.95,-117.11 625.17,-125.46"/>
<polygon fill="#63b8ff" stroke="#63b8ff" points="623.75,-128.68 634.34,-128.5 625.95,-122.03 623.75,-128.68"/>
</a>
</g>
</g>
<!-- Node5 -->
<g id="Node000005" class="node">
<title>Node5</title>
<g id="a_Node000005"><a xlink:href="classJack_1_1detail_1_1JackSynchro.html#ab8dc6db56bb10b4cfea9625a5c002841" target="_top" xlink:title=" ">
<polygon fill="white" stroke="#666666" points="746.75,-110.88 621.25,-110.88 621.25,-80.38 746.75,-80.38 746.75,-110.88"/>
<text xml:space="preserve" text-anchor="start" x="629.25" y="-97.38" font-family="Helvetica,sans-Serif" font-size="10.00">Jack::detail::JackSynchro</text>
<text xml:space="preserve" text-anchor="middle" x="684" y="-86.12" font-family="Helvetica,sans-Serif" font-size="10.00">::Signal</text>
</a>
</g>
</g>
<!-- Node3&#45;&gt;Node5 -->
<g id="edge4_Node000003_Node000005" class="edge">
<title>Node3&#45;&gt;Node5</title>
<g id="a_edge4_Node000003_Node000005"><a xlink:title=" ">
<path fill="none" stroke="#63b8ff" d="M554.15,-95.62C568.44,-95.62 588.98,-95.62 609.48,-95.62"/>
<polygon fill="#63b8ff" stroke="#63b8ff" points="609.31,-99.13 619.31,-95.63 609.31,-92.13 609.31,-99.13"/>
</a>
</g>
</g>
<!-- Node6 -->
<g id="Node000006" class="node">
<title>Node6</title>
<g id="a_Node000006"><a xlink:href="classJack_1_1detail_1_1JackSynchro.html#a8a39f2065be5d07800e2f06e0f2b2f10" target="_top" xlink:title=" ">
<polygon fill="white" stroke="#666666" points="746.75,-61.88 621.25,-61.88 621.25,-31.38 746.75,-31.38 746.75,-61.88"/>
<text xml:space="preserve" text-anchor="start" x="629.25" y="-48.38" font-family="Helvetica,sans-Serif" font-size="10.00">Jack::detail::JackSynchro</text>
<text xml:space="preserve" text-anchor="middle" x="684" y="-37.12" font-family="Helvetica,sans-Serif" font-size="10.00">::Wait</text>
</a>
</g>
</g>
<!-- Node3&#45;&gt;Node6 -->
<g id="edge5_Node000003_Node000006" class="edge">
<title>Node3&#45;&gt;Node6</title>
<g id="a_edge5_Node000003_Node000006"><a xlink:title=" ">
<path fill="none" stroke="#63b8ff" d="M554.15,-89.32C572.11,-83.37 599.95,-74.14 625.17,-65.79"/>
<polygon fill="#63b8ff" stroke="#63b8ff" points="625.95,-69.22 634.34,-62.75 623.75,-62.57 625.95,-69.22"/>
</a>
</g>
</g>
<!-- Node9 -->
<g id="Node000009" class="node">
<title>Node9</title>
<g id="a_Node000009"><a xlink:href="classJackBridgeExported.html#ae11f0182cc8fe081b82562b64dcf2dc9" target="_top" xlink:title=" ">
<polygon fill="#fff0f0" stroke="red" points="585.25,-183.88 483,-183.88 483,-153.38 585.25,-153.38 585.25,-183.88"/>
<text xml:space="preserve" text-anchor="start" x="491" y="-170.38" font-family="Helvetica,sans-Serif" font-size="10.00">JackBridgeExported</text>
<text xml:space="preserve" text-anchor="middle" x="534.12" y="-159.12" font-family="Helvetica,sans-Serif" font-size="10.00">::getFunctions</text>
</a>
</g>
</g>
<!-- Node8&#45;&gt;Node9 -->
<g id="edge8_Node000008_Node000009" class="edge">
<title>Node8&#45;&gt;Node9</title>
<g id="a_edge8_Node000008_Node000009"><a xlink:title=" ">
<path fill="none" stroke="#63b8ff" d="M442.89,-168.62C452.04,-168.62 461.76,-168.62 471.31,-168.62"/>
<polygon fill="#63b8ff" stroke="#63b8ff" points="471.31,-172.13 481.31,-168.63 471.31,-165.13 471.31,-172.13"/>
</a>
</g>
</g>
<!-- Node16&#45;&gt;Node3 -->
<g id="edge12_Node000016_Node000003" class="edge">
<title>Node16&#45;&gt;Node3</title>
<g id="a_edge12_Node000016_Node000003"><a xlink:title=" ">
<path fill="none" stroke="#63b8ff" d="M429.64,-64.65C452.2,-71.41 481.68,-80.23 503.41,-86.73"/>
<polygon fill="#63b8ff" stroke="#63b8ff" points="502.25,-90.04 512.83,-89.55 504.26,-83.33 502.25,-90.04"/>
</a>
</g>
</g>
<!-- Node17 -->
<g id="Node000017" class="node">
<title>Node17</title>
<g id="a_Node000017"><a xlink:href="structJack_1_1JackGlobals.html#adf4bc0472a237936fd3c5a974c49ffbc" target="_top" xlink:title=" ">
<polygon fill="white" stroke="#666666" points="584.12,-67.88 484.12,-67.88 484.12,-37.38 584.12,-37.38 584.12,-67.88"/>
<text xml:space="preserve" text-anchor="start" x="492.12" y="-54.38" font-family="Helvetica,sans-Serif" font-size="10.00">Jack::JackGlobals::</text>
<text xml:space="preserve" text-anchor="middle" x="534.12" y="-43.12" font-family="Helvetica,sans-Serif" font-size="10.00">CheckContext</text>
</a>
</g>
</g>
<!-- Node16&#45;&gt;Node17 -->
<g id="edge10_Node000016_Node000017" class="edge">
<title>Node16&#45;&gt;Node17</title>
<g id="a_edge10_Node000016_Node000017"><a xlink:title=" ">
<path fill="none" stroke="#63b8ff" d="M447.14,-53.88C455.4,-53.76 464.03,-53.63 472.5,-53.51"/>
<polygon fill="#63b8ff" stroke="#63b8ff" points="472.43,-57.01 482.38,-53.37 472.33,-50.01 472.43,-57.01"/>
</a>
</g>
</g>
<!-- Node18 -->
<g id="Node000018" class="node">
<title>Node18</title>
<g id="a_Node000018"><a xlink:href="JackAPI_8cpp.html#aab334f0d73fb8e55246c76cddc770188" target="_top" xlink:title=" ">
<polygon fill="white" stroke="#666666" points="565,-19.25 503.25,-19.25 503.25,0 565,0 565,-19.25"/>
<text xml:space="preserve" text-anchor="middle" x="534.12" y="-5.75" font-family="Helvetica,sans-Serif" font-size="10.00">CheckPort</text>
</a>
</g>
</g>
<!-- Node16&#45;&gt;Node18 -->
<g id="edge11_Node000016_Node000018" class="edge">
<title>Node16&#45;&gt;Node18</title>
<g id="a_edge11_Node000016_Node000018"><a xlink:title=" ">
<path fill="none" stroke="#63b8ff" d="M426.87,-44.53C446.13,-38.2 471.18,-29.97 492.12,-23.09"/>
<polygon fill="#63b8ff" stroke="#63b8ff" points="493.11,-26.45 501.52,-20.01 490.92,-19.8 493.11,-26.45"/>
</a>
</g>
</g>
</g>
</svg>

<g id="navigator" transform="translate(0 0)" fill="#404254">
  <rect fill="#f2f5e9" fill-opacity="0.5" stroke="#606060" stroke-width=".5" x="0" y="0" width="60" height="60"/>
  <use id="zoomplus" xlink:href="#zoomPlus" x="17" y="9" onmousedown="handleZoom(evt,'in')"/>
  <use id="zoomminus" xlink:href="#zoomMin" x="42" y="9" onmousedown="handleZoom(evt,'out')"/>
  <use id="reset" xlink:href="#resetDef" x="30" y="36" onmousedown="handleReset()"/>
   <use id="arrowup" xlink:href="#arrowUp" x="0" y="0" onmousedown="handlePan(0,-1)"/>
  <use id="arrowright" xlink:href="#arrowRight" x="0" y="0" onmousedown="handlePan(1,0)"/>
  <use id="arrowdown" xlink:href="#arrowDown" x="0" y="0" onmousedown="handlePan(0,1)"/>
  <use id="arrowleft" xlink:href="#arrowLeft" x="0" y="0" onmousedown="handlePan(-1,0)"/>
</g>
<svg viewBox="0 0 15 15" width="100%" height="30px" preserveAspectRatio="xMaxYMin meet">
 <g id="arrow_out" transform="scale(0.3 0.3)">
  <a xlink:href="classCarlaEngineJackAudioPort_ab6433cf4c90b1aee0b5b9e6178364ffa_cgraph_org.svg" target="_base">
   <rect id="button" ry="5" rx="5" y="6" x="6" height="38" width="38"
        fill="#f2f5e9" fill-opacity="0.5" stroke="#606060" stroke-width="1.0"/>
   <path id="arrow"
     d="M 11.500037,31.436501 C 11.940474,20.09759 22.043105,11.32322 32.158766,21.979434 L 37.068811,17.246167 C 37.068811,17.246167 37.088388,32 37.088388,32 L 22.160133,31.978069 C 22.160133,31.978069 26.997745,27.140456 26.997745,27.140456 C 18.528582,18.264221 13.291696,25.230495 11.500037,31.436501 z"
     style="fill:#404040;"/>
  </a>
 </g>
</svg>

<style type='text/css'>
<![CDATA[
[data-mouse-over-selected='false'] { opacity: 0.7; }
[data-mouse-over-selected='true']  { opacity: 1.0; }
]]>
</style>
<script type="application/ecmascript"><![CDATA[
document.addEventListener('DOMContentLoaded', (event) => {
  highlightEdges();
  highlightAdjacentNodes();
});
]]></script>
</svg>
