<?xml version="1.0" encoding="UTF-8" standalone="no"?>
<!DOCTYPE svg PUBLIC "-//W3C//DTD SVG 1.1//EN"
 "http://www.w3.org/Graphics/SVG/1.1/DTD/svg11.dtd">
<!-- Generated by graphviz version 14.0.2 (0)
 -->
<!-- Title: lmms::gui::MixerChannelView::renameChannel Pages: 1 -->
<svg width="495pt" height="64pt"
 viewBox="0.00 0.00 495.00 64.00" xmlns="http://www.w3.org/2000/svg" xmlns:xlink="http://www.w3.org/1999/xlink">
<g id="graph0" class="graph" transform="scale(1 1) rotate(0) translate(4 60.25)">
<title>lmms::gui::MixerChannelView::renameChannel</title>
<!-- Node1 -->
<g id="Node000001" class="node">
<title>Node1</title>
<g id="a_Node000001"><a xlink:title=" ">
<polygon fill="#999999" stroke="#666666" points="142,-42.88 0,-42.88 0,-12.37 142,-12.37 142,-42.88"/>
<text xml:space="preserve" text-anchor="start" x="8" y="-29.38" font-family="Helvetica,sans-Serif" font-size="10.00">lmms::gui::MixerChannelView</text>
<text xml:space="preserve" text-anchor="middle" x="71" y="-18.12" font-family="Helvetica,sans-Serif" font-size="10.00">::renameChannel</text>
</a>
</g>
</g>
<!-- Node2 -->
<g id="Node000002" class="node">
<title>Node2</title>
<g id="a_Node000002"><a xlink:href="classlmms_1_1gui_1_1MixerChannelView.html#a7590ac96ac752b1417407130260da4fb" target="_top" xlink:title=" ">
<polygon fill="white" stroke="#666666" points="320,-42.88 178,-42.88 178,-12.37 320,-12.37 320,-42.88"/>
<text xml:space="preserve" text-anchor="start" x="186" y="-29.38" font-family="Helvetica,sans-Serif" font-size="10.00">lmms::gui::MixerChannelView</text>
<text xml:space="preserve" text-anchor="middle" x="249" y="-18.12" font-family="Helvetica,sans-Serif" font-size="10.00">::mixerChannel</text>
</a>
</g>
</g>
<!-- Node1&#45;&gt;Node2 -->
<g id="edge1_Node000001_Node000002" class="edge">
<title>Node1&#45;&gt;Node2</title>
<g id="a_edge1_Node000001_Node000002"><a xlink:title=" ">
<path fill="none" stroke="#63b8ff" d="M142.32,-27.62C150.19,-27.62 158.26,-27.62 166.27,-27.62"/>
<polygon fill="#63b8ff" stroke="#63b8ff" points="165.99,-31.13 175.99,-27.63 165.99,-24.13 165.99,-31.13"/>
</a>
</g>
</g>
<!-- Node3 -->
<g id="Node000003" class="node">
<title>Node3</title>
<g id="a_Node000003"><a xlink:href="classlmms_1_1Engine.html#aa447aa0e978e533d276e8e2bed27672e" target="_top" xlink:title=" ">
<polygon fill="white" stroke="#666666" points="472.12,-56.25 370.62,-56.25 370.62,-37 472.12,-37 472.12,-56.25"/>
<text xml:space="preserve" text-anchor="middle" x="421.38" y="-42.75" font-family="Helvetica,sans-Serif" font-size="10.00">lmms::Engine::mixer</text>
</a>
</g>
</g>
<!-- Node2&#45;&gt;Node3 -->
<g id="edge2_Node000002_Node000003" class="edge">
<title>Node2&#45;&gt;Node3</title>
<g id="a_edge2_Node000002_Node000003"><a xlink:title=" ">
<path fill="none" stroke="#63b8ff" d="M320.28,-35.46C333.12,-36.89 346.43,-38.38 358.99,-39.78"/>
<polygon fill="#63b8ff" stroke="#63b8ff" points="358.45,-43.24 368.78,-40.87 359.23,-36.28 358.45,-43.24"/>
</a>
</g>
</g>
<!-- Node4 -->
<g id="Node000004" class="node">
<title>Node4</title>
<g id="a_Node000004"><a xlink:href="classlmms_1_1Mixer.html#a06e41ca672ee06cd664191ee46b91255" target="_top" xlink:title=" ">
<polygon fill="white" stroke="#666666" points="486.75,-19.25 356,-19.25 356,0 486.75,0 486.75,-19.25"/>
<text xml:space="preserve" text-anchor="middle" x="421.38" y="-5.75" font-family="Helvetica,sans-Serif" font-size="10.00">lmms::Mixer::mixerChannel</text>
</a>
</g>
</g>
<!-- Node2&#45;&gt;Node4 -->
<g id="edge3_Node000002_Node000004" class="edge">
<title>Node2&#45;&gt;Node4</title>
<g id="a_edge3_Node000002_Node000004"><a xlink:title=" ">
<path fill="none" stroke="#63b8ff" d="M320.28,-20.2C328.26,-19.36 336.41,-18.5 344.45,-17.65"/>
<polygon fill="#63b8ff" stroke="#63b8ff" points="344.64,-21.15 354.22,-16.61 343.9,-14.18 344.64,-21.15"/>
</a>
</g>
</g>
</g>
</svg>
