<?xml version="1.0" encoding="UTF-8" standalone="no"?>
<!DOCTYPE svg PUBLIC "-//W3C//DTD SVG 1.1//EN"
 "http://www.w3.org/Graphics/SVG/1.1/DTD/svg11.dtd">
<!-- Generated by graphviz version 14.0.2 (0)
 -->
<!-- Title: juce::SystemTrayIconComponent::Pimpl::Pimpl Pages: 1 -->
<!--zoomable 227 -->

<svg id="main" version="1.1" xmlns="http://www.w3.org/2000/svg" xmlns:xlink="http://www.w3.org/1999/xlink" xml:space="preserve" onload="init(evt)">

<style type="text/css"><![CDATA[
.node, .edge {opacity: 0.7;}
.node.selected, .edge.selected {opacity: 1;}
.edge:hover path { stroke: red; }
.edge:hover polygon { stroke: red; fill: red; }
]]></style>

<defs>
  <circle id="rim" cx="0" cy="0" r="7"/>
  <circle id="rim2" cx="0" cy="0" r="3.5"/>
  <g id="zoomPlus">
    <use xlink:href="#rim" fill="#404040"><set attributeName="fill" to="#808080" begin="zoomplus.mouseover" end="zoomplus.mouseout"/></use>
    <path d="M-4,0h8M0,-4v8" fill="none" stroke="white" stroke-width="1.5" pointer-events="none"/>
  </g>
  <g id="zoomMin">
    <use xlink:href="#rim" fill="#404040"><set attributeName="fill" to="#808080" begin="zoomminus.mouseover" end="zoomminus.mouseout"/></use>
    <path d="M-4,0h8" fill="none" stroke="white" stroke-width="1.5" pointer-events="none"/>
  </g>
  <g id="arrowUp" transform="translate(30 24)">
    <use xlink:href="#rim"/>
    <path pointer-events="none" fill="none" stroke="white" stroke-width="1.5" d="M0,-3.0v7 M-2.5,-0.5L0,-3.0L2.5,-0.5"/>
  </g>
  <g id="arrowRight" transform="rotate(90) translate(36 -43)">
    <use xlink:href="#rim"/>
    <path pointer-events="none" fill="none" stroke="white" stroke-width="1.5" d="M0,-3.0v7 M-2.5,-0.5L0,-3.0L2.5,-0.5"/>
  </g>
  <g id="arrowDown" transform="rotate(180) translate(-30 -48)">
    <use xlink:href="#rim"/>
    <path pointer-events="none" fill="none" stroke="white" stroke-width="1.5" d="M0,-3.0v7 M-2.5,-0.5L0,-3.0L2.5,-0.5"/>
  </g>
  <g id="arrowLeft" transform="rotate(270) translate(-36 17)">
    <use xlink:href="#rim"/>
    <path pointer-events="none" fill="none" stroke="white" stroke-width="1.5" d="M0,-3.0v7 M-2.5,-0.5L0,-3.0L2.5,-0.5"/>
  </g>
  <g id="resetDef">
    <use xlink:href="#rim2" fill="#404040"><set attributeName="fill" to="#808080" begin="reset.mouseover" end="reset.mouseout"/></use>
  </g>
</defs>
<script type="application/ecmascript">
var viewWidth = 750;
var viewHeight = 227;
var sectionId = 'dynsection-3';
</script>
<script type="application/ecmascript" xlink:href="svg.min.js"/>
<svg id="graph" class="graph">
<g id="viewport">
<title>juce::SystemTrayIconComponent::Pimpl::Pimpl</title>
<!-- Node1 -->
<g id="Node000001" class="node">
<title>Node1</title>
<g id="a_Node000001"><a xlink:title=" ">
<polygon fill="#999999" stroke="#666666" points="158.5,-109.88 0,-109.88 0,-79.38 158.5,-79.38 158.5,-109.88"/>
<text xml:space="preserve" text-anchor="start" x="8" y="-96.38" font-family="Helvetica,sans-Serif" font-size="10.00">juce::SystemTrayIconComponent</text>
<text xml:space="preserve" text-anchor="middle" x="79.25" y="-85.12" font-family="Helvetica,sans-Serif" font-size="10.00">::Pimpl::Pimpl</text>
</a>
</g>
</g>
<!-- Node2 -->
<g id="Node000002" class="node">
<title>Node2</title>
<g id="a_Node000002"><a xlink:href="namespacejuce.html#a24b34ff88502de18986bc33323dea00a" target="_top" xlink:title=" ">
<polygon fill="white" stroke="#666666" points="334.25,-191.25 213.25,-191.25 213.25,-172 334.25,-172 334.25,-191.25"/>
<text xml:space="preserve" text-anchor="middle" x="273.75" y="-177.75" font-family="Helvetica,sans-Serif" font-size="10.00">juce::getUser32Function</text>
</a>
</g>
</g>
<!-- Node1&#45;&gt;Node2 -->
<g id="edge1_Node000001_Node000002" class="edge">
<title>Node1&#45;&gt;Node2</title>
<g id="a_edge1_Node000001_Node000002"><a xlink:title=" ">
<path fill="none" stroke="#63b8ff" d="M114.67,-110.18C150.24,-126.26 205.36,-151.17 240.23,-166.93"/>
<polygon fill="#63b8ff" stroke="#63b8ff" points="238.42,-169.95 248.97,-170.88 241.3,-163.57 238.42,-169.95"/>
</a>
</g>
</g>
<!-- Node5 -->
<g id="Node000005" class="node">
<title>Node5</title>
<g id="a_Node000005"><a xlink:href="classjuce_1_1SystemTrayIconComponent_1_1Pimpl.html#aaa1a4400c51e93507bbd9d82eb97179d" target="_top" xlink:title=" ">
<polygon fill="white" stroke="#666666" points="353,-134.88 194.5,-134.88 194.5,-104.38 353,-104.38 353,-134.88"/>
<text xml:space="preserve" text-anchor="start" x="202.5" y="-121.38" font-family="Helvetica,sans-Serif" font-size="10.00">juce::SystemTrayIconComponent</text>
<text xml:space="preserve" text-anchor="middle" x="273.75" y="-110.12" font-family="Helvetica,sans-Serif" font-size="10.00">::Pimpl::hookedWndProc</text>
</a>
</g>
</g>
<!-- Node1&#45;&gt;Node5 -->
<g id="edge5_Node000001_Node000005" class="edge">
<title>Node1&#45;&gt;Node5</title>
<g id="a_edge5_Node000001_Node000005"><a xlink:title=" ">
<path fill="none" stroke="#63b8ff" d="M158.82,-104.83C166.74,-105.86 174.82,-106.91 182.84,-107.95"/>
<polygon fill="#63b8ff" stroke="#63b8ff" points="182.25,-111.4 192.61,-109.22 183.15,-104.46 182.25,-111.4"/>
</a>
</g>
</g>
<!-- Node21 -->
<g id="Node000021" class="node">
<title>Node21</title>
<g id="a_Node000021"><a xlink:href="classjuce_1_1SystemTrayIconComponent_1_1Pimpl.html#a025615637e039737faf28e25f957844a" target="_top" xlink:title=" ">
<polygon fill="white" stroke="#666666" points="353,-85.88 194.5,-85.88 194.5,-55.38 353,-55.38 353,-85.88"/>
<text xml:space="preserve" text-anchor="start" x="202.5" y="-72.38" font-family="Helvetica,sans-Serif" font-size="10.00">juce::SystemTrayIconComponent</text>
<text xml:space="preserve" text-anchor="middle" x="273.75" y="-61.12" font-family="Helvetica,sans-Serif" font-size="10.00">::Pimpl::notify</text>
</a>
</g>
</g>
<!-- Node1&#45;&gt;Node21 -->
<g id="edge11_Node000001_Node000021" class="edge">
<title>Node1&#45;&gt;Node21</title>
<g id="a_edge11_Node000001_Node000021"><a xlink:title=" ">
<path fill="none" stroke="#63b8ff" d="M158.82,-84.83C166.74,-83.84 174.82,-82.83 182.84,-81.83"/>
<polygon fill="#63b8ff" stroke="#63b8ff" points="183.12,-85.33 192.61,-80.62 182.26,-78.38 183.12,-85.33"/>
</a>
</g>
</g>
<!-- Node22 -->
<g id="Node000022" class="node">
<title>Node22</title>
<g id="a_Node000022"><a xlink:href="namespacejuce.html#a11d8fa1921494e90708d443dea17a1b8" target="_top" xlink:title=" ">
<polygon fill="white" stroke="#666666" points="314.38,-19.25 233.12,-19.25 233.12,0 314.38,0 314.38,-19.25"/>
<text xml:space="preserve" text-anchor="middle" x="273.75" y="-5.75" font-family="Helvetica,sans-Serif" font-size="10.00">juce::zerostruct</text>
</a>
</g>
</g>
<!-- Node1&#45;&gt;Node22 -->
<g id="edge13_Node000001_Node000022" class="edge">
<title>Node1&#45;&gt;Node22</title>
<g id="a_edge13_Node000001_Node000022"><a xlink:title=" ">
<path fill="none" stroke="#63b8ff" d="M115.56,-79.03C150.91,-63.42 204.91,-39.58 239.52,-24.3"/>
<polygon fill="#63b8ff" stroke="#63b8ff" points="240.9,-27.51 248.64,-20.27 238.08,-21.11 240.9,-27.51"/>
</a>
</g>
</g>
<!-- Node2&#45;&gt;Node2 -->
<g id="edge4_Node000002_Node000002" class="edge">
<title>Node2&#45;&gt;Node2</title>
<g id="a_edge4_Node000002_Node000002"><a xlink:title=" ">
<path fill="none" stroke="#63b8ff" d="M243.3,-191.54C229.41,-200.15 239.56,-209.25 273.75,-209.25 293.52,-209.25 305.25,-206.21 308.94,-201.98"/>
<polygon fill="#63b8ff" stroke="#63b8ff" points="312.15,-200.57 304.83,-192.92 305.78,-203.47 312.15,-200.57"/>
</a>
</g>
</g>
<!-- Node3 -->
<g id="Node000003" class="node">
<title>Node3</title>
<g id="a_Node000003"><a xlink:href="swell_8cpp.html#ad41d3cba31b4d30dcb42ce507c933230" target="_top" xlink:title=" ">
<polygon fill="white" stroke="#666666" points="512.25,-210.25 424.25,-210.25 424.25,-191 512.25,-191 512.25,-210.25"/>
<text xml:space="preserve" text-anchor="middle" x="468.25" y="-196.75" font-family="Helvetica,sans-Serif" font-size="10.00">GetProcAddress</text>
</a>
</g>
</g>
<!-- Node2&#45;&gt;Node3 -->
<g id="edge2_Node000002_Node000003" class="edge">
<title>Node2&#45;&gt;Node3</title>
<g id="a_edge2_Node000002_Node000003"><a xlink:title=" ">
<path fill="none" stroke="#63b8ff" d="M334.6,-187.53C359.57,-190 388.36,-192.84 412.73,-195.24"/>
<polygon fill="#63b8ff" stroke="#63b8ff" points="412.14,-198.7 422.43,-196.2 412.83,-191.74 412.14,-198.7"/>
</a>
</g>
</g>
<!-- Node4 -->
<g id="Node000004" class="node">
<title>Node4</title>
<g id="a_Node000004"><a xlink:href="CarlaMacUtils_8hpp.html#a87bd50f90a645236de30786ac22e9c69" target="_top" xlink:title=" ">
<polygon fill="white" stroke="#666666" points="734.12,-218.88 591.38,-218.88 591.38,-188.38 734.12,-188.38 734.12,-218.88"/>
<text xml:space="preserve" text-anchor="start" x="599.38" y="-205.38" font-family="Helvetica,sans-Serif" font-size="10.00">CFBundleGetFunctionPointer</text>
<text xml:space="preserve" text-anchor="middle" x="662.75" y="-194.12" font-family="Helvetica,sans-Serif" font-size="10.00">ForName</text>
</a>
</g>
</g>
<!-- Node3&#45;&gt;Node4 -->
<g id="edge3_Node000003_Node000004" class="edge">
<title>Node3&#45;&gt;Node4</title>
<g id="a_edge3_Node000003_Node000004"><a xlink:title=" ">
<path fill="none" stroke="#63b8ff" d="M512.45,-201.3C532.36,-201.61 556.67,-201.99 579.85,-202.35"/>
<polygon fill="#63b8ff" stroke="#63b8ff" points="579.55,-205.84 589.6,-202.5 579.66,-198.85 579.55,-205.84"/>
</a>
</g>
</g>
<!-- Node6 -->
<g id="Node000006" class="node">
<title>Node6</title>
<g id="a_Node000006"><a xlink:href="classjuce_1_1SystemTrayIconComponent_1_1Pimpl.html#a8301a6820ce7a41098ba35ff168b9673" target="_top" xlink:title=" ">
<polygon fill="white" stroke="#666666" points="547.5,-166.88 389,-166.88 389,-136.38 547.5,-136.38 547.5,-166.88"/>
<text xml:space="preserve" text-anchor="start" x="397" y="-153.38" font-family="Helvetica,sans-Serif" font-size="10.00">juce::SystemTrayIconComponent</text>
<text xml:space="preserve" text-anchor="middle" x="468.25" y="-142.12" font-family="Helvetica,sans-Serif" font-size="10.00">::Pimpl::getPimpl</text>
</a>
</g>
</g>
<!-- Node5&#45;&gt;Node6 -->
<g id="edge6_Node000005_Node000006" class="edge">
<title>Node5&#45;&gt;Node6</title>
<g id="a_edge6_Node000005_Node000006"><a xlink:title=" ">
<path fill="none" stroke="#63b8ff" d="M353.32,-132.69C361.24,-134 369.32,-135.35 377.34,-136.68"/>
<polygon fill="#63b8ff" stroke="#63b8ff" points="376.68,-140.12 387.12,-138.3 377.83,-133.21 376.68,-140.12"/>
</a>
</g>
</g>
<!-- Node12 -->
<g id="Node000012" class="node">
<title>Node12</title>
<g id="a_Node000012"><a xlink:href="classjuce_1_1SystemTrayIconComponent_1_1Pimpl.html#a8916adfcce2ae93d076bc415c5f33b6d" target="_top" xlink:title=" ">
<polygon fill="#fff0f0" stroke="red" points="742,-120.88 583.5,-120.88 583.5,-90.38 742,-90.38 742,-120.88"/>
<text xml:space="preserve" text-anchor="start" x="591.5" y="-107.38" font-family="Helvetica,sans-Serif" font-size="10.00">juce::SystemTrayIconComponent</text>
<text xml:space="preserve" text-anchor="middle" x="662.75" y="-96.12" font-family="Helvetica,sans-Serif" font-size="10.00">::Pimpl::Pimpl</text>
</a>
</g>
</g>
<!-- Node5&#45;&gt;Node12 -->
<g id="edge10_Node000005_Node000012" class="edge">
<title>Node5&#45;&gt;Node12</title>
<g id="a_edge10_Node000005_Node000012"><a xlink:title=" ">
<path fill="none" stroke="#63b8ff" d="M353.07,-116.79C416.43,-114.5 505.71,-111.27 571.96,-108.87"/>
<polygon fill="#63b8ff" stroke="#63b8ff" points="571.84,-112.38 581.71,-108.52 571.59,-105.38 571.84,-112.38"/>
</a>
</g>
</g>
<!-- Node20 -->
<g id="Node000020" class="node">
<title>Node20</title>
<g id="a_Node000020"><a xlink:href="adplugdb_8cpp.html#afadda4184a4f0275271a46b2b0cc7f8b" target="_top" xlink:title=" ">
<polygon fill="white" stroke="#666666" points="496.12,-80.25 440.38,-80.25 440.38,-61 496.12,-61 496.12,-80.25"/>
<text xml:space="preserve" text-anchor="middle" x="468.25" y="-66.75" font-family="Helvetica,sans-Serif" font-size="10.00">message</text>
</a>
</g>
</g>
<!-- Node5&#45;&gt;Node20 -->
<g id="edge9_Node000005_Node000020" class="edge">
<title>Node5&#45;&gt;Node20</title>
<g id="a_edge9_Node000005_Node000020"><a xlink:title=" ">
<path fill="none" stroke="#63b8ff" d="M336.45,-103.92C366.82,-96.19 402.48,-87.11 428.88,-80.39"/>
<polygon fill="#63b8ff" stroke="#63b8ff" points="429.66,-83.81 438.49,-77.95 427.93,-77.02 429.66,-83.81"/>
</a>
</g>
</g>
<!-- Node7 -->
<g id="Node000007" class="node">
<title>Node7</title>
<g id="a_Node000007"><a xlink:href="classjuce_1_1JuceWindowIdentifier.html#a787aaa19d69038401f54b247da153e68" target="_top" xlink:title=" ">
<polygon fill="#fff0f0" stroke="red" points="728.12,-169.88 597.38,-169.88 597.38,-139.38 728.12,-139.38 728.12,-169.88"/>
<text xml:space="preserve" text-anchor="start" x="605.38" y="-156.38" font-family="Helvetica,sans-Serif" font-size="10.00">juce::JuceWindowIdentifier</text>
<text xml:space="preserve" text-anchor="middle" x="662.75" y="-145.12" font-family="Helvetica,sans-Serif" font-size="10.00">::isJUCEWindow</text>
</a>
</g>
</g>
<!-- Node6&#45;&gt;Node7 -->
<g id="edge7_Node000006_Node000007" class="edge">
<title>Node6&#45;&gt;Node7</title>
<g id="a_edge7_Node000006_Node000007"><a xlink:title=" ">
<path fill="none" stroke="#63b8ff" d="M547.82,-152.85C560.32,-153.04 573.23,-153.25 585.67,-153.44"/>
<polygon fill="#63b8ff" stroke="#63b8ff" points="585.37,-156.93 595.42,-153.59 585.47,-149.94 585.37,-156.93"/>
</a>
</g>
</g>
<!-- Node6&#45;&gt;Node12 -->
<g id="edge8_Node000006_Node000012" class="edge">
<title>Node6&#45;&gt;Node12</title>
<g id="a_edge8_Node000006_Node000012"><a xlink:title=" ">
<path fill="none" stroke="#63b8ff" d="M534.96,-135.92C551.13,-132.06 568.59,-127.89 585.22,-123.91"/>
<polygon fill="#63b8ff" stroke="#63b8ff" points="585.63,-127.41 594.54,-121.69 584,-120.61 585.63,-127.41"/>
</a>
</g>
</g>
<!-- Node21&#45;&gt;Node20 -->
<g id="edge12_Node000021_Node000020" class="edge">
<title>Node21&#45;&gt;Node20</title>
<g id="a_edge12_Node000021_Node000020"><a xlink:title=" ">
<path fill="none" stroke="#63b8ff" d="M353.32,-70.62C379.29,-70.62 407.03,-70.62 428.64,-70.62"/>
<polygon fill="#63b8ff" stroke="#63b8ff" points="428.45,-74.13 438.45,-70.63 428.45,-67.13 428.45,-74.13"/>
</a>
</g>
</g>
<!-- Node22&#45;&gt;Node22 -->
<g id="edge14_Node000022_Node000022" class="edge">
<title>Node22&#45;&gt;Node22</title>
<g id="a_edge14_Node000022_Node000022"><a xlink:title=" ">
<path fill="none" stroke="#63b8ff" d="M243.3,-19.54C229.41,-28.15 239.56,-37.25 273.75,-37.25 293.52,-37.25 305.25,-34.21 308.94,-29.98"/>
<polygon fill="#63b8ff" stroke="#63b8ff" points="312.15,-28.57 304.83,-20.92 305.78,-31.47 312.15,-28.57"/>
</a>
</g>
</g>
</g>
</svg>

<g id="navigator" transform="translate(0 0)" fill="#404254">
  <rect fill="#f2f5e9" fill-opacity="0.5" stroke="#606060" stroke-width=".5" x="0" y="0" width="60" height="60"/>
  <use id="zoomplus" xlink:href="#zoomPlus" x="17" y="9" onmousedown="handleZoom(evt,'in')"/>
  <use id="zoomminus" xlink:href="#zoomMin" x="42" y="9" onmousedown="handleZoom(evt,'out')"/>
  <use id="reset" xlink:href="#resetDef" x="30" y="36" onmousedown="handleReset()"/>
   <use id="arrowup" xlink:href="#arrowUp" x="0" y="0" onmousedown="handlePan(0,-1)"/>
  <use id="arrowright" xlink:href="#arrowRight" x="0" y="0" onmousedown="handlePan(1,0)"/>
  <use id="arrowdown" xlink:href="#arrowDown" x="0" y="0" onmousedown="handlePan(0,1)"/>
  <use id="arrowleft" xlink:href="#arrowLeft" x="0" y="0" onmousedown="handlePan(-1,0)"/>
</g>
<svg viewBox="0 0 15 15" width="100%" height="30px" preserveAspectRatio="xMaxYMin meet">
 <g id="arrow_out" transform="scale(0.3 0.3)">
  <a xlink:href="classjuce_1_1SystemTrayIconComponent_1_1Pimpl_adefb4e8f36d941b92316c06ea55f15c7_cgraph_org.svg" target="_base">
   <rect id="button" ry="5" rx="5" y="6" x="6" height="38" width="38"
        fill="#f2f5e9" fill-opacity="0.5" stroke="#606060" stroke-width="1.0"/>
   <path id="arrow"
     d="M 11.500037,31.436501 C 11.940474,20.09759 22.043105,11.32322 32.158766,21.979434 L 37.068811,17.246167 C 37.068811,17.246167 37.088388,32 37.088388,32 L 22.160133,31.978069 C 22.160133,31.978069 26.997745,27.140456 26.997745,27.140456 C 18.528582,18.264221 13.291696,25.230495 11.500037,31.436501 z"
     style="fill:#404040;"/>
  </a>
 </g>
</svg>

<style type='text/css'>
<![CDATA[
[data-mouse-over-selected='false'] { opacity: 0.7; }
[data-mouse-over-selected='true']  { opacity: 1.0; }
]]>
</style>
<script type="application/ecmascript"><![CDATA[
document.addEventListener('DOMContentLoaded', (event) => {
  highlightEdges();
  highlightAdjacentNodes();
});
]]></script>
</svg>
