<?xml version="1.0" encoding="UTF-8" standalone="no"?>
<!DOCTYPE svg PUBLIC "-//W3C//DTD SVG 1.1//EN"
 "http://www.w3.org/Graphics/SVG/1.1/DTD/svg11.dtd">
<!-- Generated by graphviz version 14.0.2 (0)
 -->
<!-- Title: lmms::AudioFileProcessor::setAudioFile Pages: 1 -->
<!--zoomable 380 -->

<svg id="main" version="1.1" xmlns="http://www.w3.org/2000/svg" xmlns:xlink="http://www.w3.org/1999/xlink" xml:space="preserve" onload="init(evt)">

<style type="text/css"><![CDATA[
.node, .edge {opacity: 0.7;}
.node.selected, .edge.selected {opacity: 1;}
.edge:hover path { stroke: red; }
.edge:hover polygon { stroke: red; fill: red; }
]]></style>

<defs>
  <circle id="rim" cx="0" cy="0" r="7"/>
  <circle id="rim2" cx="0" cy="0" r="3.5"/>
  <g id="zoomPlus">
    <use xlink:href="#rim" fill="#404040"><set attributeName="fill" to="#808080" begin="zoomplus.mouseover" end="zoomplus.mouseout"/></use>
    <path d="M-4,0h8M0,-4v8" fill="none" stroke="white" stroke-width="1.5" pointer-events="none"/>
  </g>
  <g id="zoomMin">
    <use xlink:href="#rim" fill="#404040"><set attributeName="fill" to="#808080" begin="zoomminus.mouseover" end="zoomminus.mouseout"/></use>
    <path d="M-4,0h8" fill="none" stroke="white" stroke-width="1.5" pointer-events="none"/>
  </g>
  <g id="arrowUp" transform="translate(30 24)">
    <use xlink:href="#rim"/>
    <path pointer-events="none" fill="none" stroke="white" stroke-width="1.5" d="M0,-3.0v7 M-2.5,-0.5L0,-3.0L2.5,-0.5"/>
  </g>
  <g id="arrowRight" transform="rotate(90) translate(36 -43)">
    <use xlink:href="#rim"/>
    <path pointer-events="none" fill="none" stroke="white" stroke-width="1.5" d="M0,-3.0v7 M-2.5,-0.5L0,-3.0L2.5,-0.5"/>
  </g>
  <g id="arrowDown" transform="rotate(180) translate(-30 -48)">
    <use xlink:href="#rim"/>
    <path pointer-events="none" fill="none" stroke="white" stroke-width="1.5" d="M0,-3.0v7 M-2.5,-0.5L0,-3.0L2.5,-0.5"/>
  </g>
  <g id="arrowLeft" transform="rotate(270) translate(-36 17)">
    <use xlink:href="#rim"/>
    <path pointer-events="none" fill="none" stroke="white" stroke-width="1.5" d="M0,-3.0v7 M-2.5,-0.5L0,-3.0L2.5,-0.5"/>
  </g>
  <g id="resetDef">
    <use xlink:href="#rim2" fill="#404040"><set attributeName="fill" to="#808080" begin="reset.mouseover" end="reset.mouseout"/></use>
  </g>
</defs>
<script type="application/ecmascript">
var viewWidth = 819;
var viewHeight = 380;
var sectionId = 'dynsection-19';
</script>
<script type="application/ecmascript" xlink:href="svg.min.js"/>
<svg id="graph" class="graph">
<g id="viewport">
<title>lmms::AudioFileProcessor::setAudioFile</title>
<!-- Node1 -->
<g id="Node000001" class="node">
<title>Node1</title>
<g id="a_Node000001"><a xlink:title=" ">
<polygon fill="#999999" stroke="#666666" points="129.25,-182.88 0,-182.88 0,-152.38 129.25,-152.38 129.25,-182.88"/>
<text xml:space="preserve" text-anchor="start" x="8" y="-169.38" font-family="Helvetica,sans-Serif" font-size="10.00">lmms::AudioFileProcessor</text>
<text xml:space="preserve" text-anchor="middle" x="64.62" y="-158.12" font-family="Helvetica,sans-Serif" font-size="10.00">::setAudioFile</text>
</a>
</g>
</g>
<!-- Node2 -->
<g id="Node000002" class="node">
<title>Node2</title>
<g id="a_Node000002"><a xlink:href="namespacelmms_1_1PathUtil.html#a30e48b81fa18dfc8812d1f04a623c9a4" target="_top" xlink:title="Get the filename for a path, handling prefixed paths correctly.">
<polygon fill="white" stroke="#666666" points="302.75,-312.25 169,-312.25 169,-293 302.75,-293 302.75,-312.25"/>
<text xml:space="preserve" text-anchor="middle" x="235.88" y="-298.75" font-family="Helvetica,sans-Serif" font-size="10.00">lmms::PathUtil::cleanName</text>
</a>
</g>
</g>
<!-- Node1&#45;&gt;Node2 -->
<g id="edge1_Node000001_Node000002" class="edge">
<title>Node1&#45;&gt;Node2</title>
<g id="a_edge1_Node000001_Node000002"><a xlink:title=" ">
<path fill="none" stroke="#63b8ff" d="M78.95,-183.31C97.03,-203.94 131.01,-240.51 165.25,-265.62 176.52,-273.89 189.87,-281.45 201.86,-287.55"/>
<polygon fill="#63b8ff" stroke="#63b8ff" points="200.07,-290.57 210.59,-291.85 203.16,-284.29 200.07,-290.57"/>
</a>
</g>
</g>
<!-- Node6 -->
<g id="Node000006" class="node">
<title>Node6</title>
<g id="a_Node000006"><a xlink:href="classlmms_1_1gui_1_1SampleLoader.html#a37caf962ec15d7ecef21393054860c7a" target="_top" xlink:title=" ">
<polygon fill="white" stroke="#666666" points="298.25,-256.88 173.5,-256.88 173.5,-226.38 298.25,-226.38 298.25,-256.88"/>
<text xml:space="preserve" text-anchor="start" x="181.5" y="-243.38" font-family="Helvetica,sans-Serif" font-size="10.00">lmms::gui::SampleLoader</text>
<text xml:space="preserve" text-anchor="middle" x="235.88" y="-232.12" font-family="Helvetica,sans-Serif" font-size="10.00">::createBufferFromFile</text>
</a>
</g>
</g>
<!-- Node1&#45;&gt;Node6 -->
<g id="edge6_Node000001_Node000006" class="edge">
<title>Node1&#45;&gt;Node6</title>
<g id="a_edge6_Node000001_Node000006"><a xlink:title=" ">
<path fill="none" stroke="#63b8ff" d="M95.3,-183.31C114.9,-193.4 141.29,-206.47 165.25,-216.62 169.51,-218.43 173.94,-220.22 178.42,-221.97"/>
<polygon fill="#63b8ff" stroke="#63b8ff" points="176.89,-225.13 187.48,-225.41 179.38,-218.59 176.89,-225.13"/>
</a>
</g>
</g>
<!-- Node55 -->
<g id="Node000055" class="node">
<title>Node55</title>
<g id="a_Node000055"><a xlink:href="classlmms_1_1Instrument.html#a0190782643cb68d41739520dd3451242" target="_top" xlink:title=" ">
<polygon fill="white" stroke="#666666" points="306.5,-207.88 165.25,-207.88 165.25,-177.38 306.5,-177.38 306.5,-207.88"/>
<text xml:space="preserve" text-anchor="start" x="173.25" y="-194.38" font-family="Helvetica,sans-Serif" font-size="10.00">lmms::Instrument::instrument</text>
<text xml:space="preserve" text-anchor="middle" x="235.88" y="-183.12" font-family="Helvetica,sans-Serif" font-size="10.00">Track</text>
</a>
</g>
</g>
<!-- Node1&#45;&gt;Node55 -->
<g id="edge12_Node000001_Node000055" class="edge">
<title>Node1&#45;&gt;Node55</title>
<g id="a_edge12_Node000001_Node000055"><a xlink:title=" ">
<path fill="none" stroke="#63b8ff" d="M129.61,-177.08C137.44,-178.23 145.51,-179.43 153.55,-180.61"/>
<polygon fill="#63b8ff" stroke="#63b8ff" points="152.96,-184.06 163.36,-182.06 153.98,-177.14 152.96,-184.06"/>
</a>
</g>
</g>
<!-- Node56 -->
<g id="Node000056" class="node">
<title>Node56</title>
<g id="a_Node000056"><a xlink:href="classlmms_1_1AudioFileProcessor.html#a5a4ece2dfd056ecc238c913821198f54" target="_top" xlink:title=" ">
<polygon fill="white" stroke="#666666" points="300.5,-158.88 171.25,-158.88 171.25,-128.38 300.5,-128.38 300.5,-158.88"/>
<text xml:space="preserve" text-anchor="start" x="179.25" y="-145.38" font-family="Helvetica,sans-Serif" font-size="10.00">lmms::AudioFileProcessor</text>
<text xml:space="preserve" text-anchor="middle" x="235.88" y="-134.12" font-family="Helvetica,sans-Serif" font-size="10.00">::loopPointChanged</text>
</a>
</g>
</g>
<!-- Node1&#45;&gt;Node56 -->
<g id="edge13_Node000001_Node000056" class="edge">
<title>Node1&#45;&gt;Node56</title>
<g id="a_edge13_Node000001_Node000056"><a xlink:title=" ">
<path fill="none" stroke="#63b8ff" d="M129.61,-158.55C139.41,-157.16 149.59,-155.72 159.6,-154.3"/>
<polygon fill="#63b8ff" stroke="#63b8ff" points="159.89,-157.79 169.3,-152.92 158.91,-150.86 159.89,-157.79"/>
</a>
</g>
</g>
<!-- Node59 -->
<g id="Node000059" class="node">
<title>Node59</title>
<g id="a_Node000059"><a xlink:href="classlmms_1_1AudioFileProcessor.html#a276d5afaeb92acca8ae72482728b6e3a" target="_top" xlink:title=" ">
<polygon fill="white" stroke="#666666" points="300.5,-109.88 171.25,-109.88 171.25,-79.38 300.5,-79.38 300.5,-109.88"/>
<text xml:space="preserve" text-anchor="start" x="179.25" y="-96.38" font-family="Helvetica,sans-Serif" font-size="10.00">lmms::AudioFileProcessor</text>
<text xml:space="preserve" text-anchor="middle" x="235.88" y="-85.12" font-family="Helvetica,sans-Serif" font-size="10.00">::sampleUpdated</text>
</a>
</g>
</g>
<!-- Node1&#45;&gt;Node59 -->
<g id="edge16_Node000001_Node000059" class="edge">
<title>Node1&#45;&gt;Node59</title>
<g id="a_edge16_Node000001_Node000059"><a xlink:title=" ">
<path fill="none" stroke="#63b8ff" d="M95.77,-152.09C115.34,-142.25 141.52,-129.57 165.25,-119.62 169.51,-117.84 173.96,-116.06 178.44,-114.32"/>
<polygon fill="#63b8ff" stroke="#63b8ff" points="179.39,-117.7 187.51,-110.89 176.91,-111.16 179.39,-117.7"/>
</a>
</g>
</g>
<!-- Node60 -->
<g id="Node000060" class="node">
<title>Node60</title>
<g id="a_Node000060"><a xlink:href="classlmms_1_1InstrumentTrack.html#a5820c282ac63e7cb2b4839580e744834" target="_top" xlink:title=" ">
<polygon fill="white" stroke="#666666" points="293.75,-60.88 178,-60.88 178,-30.38 293.75,-30.38 293.75,-60.88"/>
<text xml:space="preserve" text-anchor="start" x="186" y="-47.38" font-family="Helvetica,sans-Serif" font-size="10.00">lmms::InstrumentTrack</text>
<text xml:space="preserve" text-anchor="middle" x="235.88" y="-36.12" font-family="Helvetica,sans-Serif" font-size="10.00">::setName</text>
</a>
</g>
</g>
<!-- Node1&#45;&gt;Node60 -->
<g id="edge17_Node000001_Node000060" class="edge">
<title>Node1&#45;&gt;Node60</title>
<g id="a_edge17_Node000001_Node000060"><a xlink:title=" ">
<path fill="none" stroke="#63b8ff" d="M77.88,-152.08C95.26,-130.97 129.01,-93.26 165.25,-70.62 167.68,-69.11 170.22,-67.66 172.82,-66.29"/>
<polygon fill="#63b8ff" stroke="#63b8ff" points="174.25,-69.49 181.76,-62.02 171.23,-63.17 174.25,-69.49"/>
</a>
</g>
</g>
<!-- Node3 -->
<g id="Node000003" class="node">
<title>Node3</title>
<g id="a_Node000003"><a xlink:href="namespacelmms_1_1PathUtil.html#ab2f28c94cc70333f674eadaa6944a191" target="_top" xlink:title="Remove the prefix from a path, iff there is one.">
<polygon fill="white" stroke="#666666" points="470.62,-337.25 343.62,-337.25 343.62,-318 470.62,-318 470.62,-337.25"/>
<text xml:space="preserve" text-anchor="middle" x="407.12" y="-323.75" font-family="Helvetica,sans-Serif" font-size="10.00">lmms::PathUtil::stripPrefix</text>
</a>
</g>
</g>
<!-- Node2&#45;&gt;Node3 -->
<g id="edge2_Node000002_Node000003" class="edge">
<title>Node2&#45;&gt;Node3</title>
<g id="a_edge2_Node000002_Node000003"><a xlink:title=" ">
<path fill="none" stroke="#63b8ff" d="M302.8,-312.36C312.34,-313.77 322.21,-315.23 331.9,-316.66"/>
<polygon fill="#63b8ff" stroke="#63b8ff" points="331.26,-320.1 341.66,-318.1 332.28,-313.18 331.26,-320.1"/>
</a>
</g>
</g>
<!-- Node4 -->
<g id="Node000004" class="node">
<title>Node4</title>
<g id="a_Node000004"><a xlink:href="namespacelmms_1_1PathUtil.html#a232d23cb52de913c734bee7fb80eb46d" target="_top" xlink:title=" ">
<polygon fill="white" stroke="#666666" points="645.25,-372.25 507.75,-372.25 507.75,-353 645.25,-353 645.25,-372.25"/>
<text xml:space="preserve" text-anchor="middle" x="576.5" y="-358.75" font-family="Helvetica,sans-Serif" font-size="10.00">lmms::PathUtil::baseLookup</text>
</a>
</g>
</g>
<!-- Node3&#45;&gt;Node4 -->
<g id="edge3_Node000003_Node000004" class="edge">
<title>Node3&#45;&gt;Node4</title>
<g id="a_edge3_Node000003_Node000004"><a xlink:title=" ">
<path fill="none" stroke="#63b8ff" d="M456.54,-337.75C475.1,-341.63 496.5,-346.1 515.98,-350.18"/>
<polygon fill="#63b8ff" stroke="#63b8ff" points="515.21,-353.59 525.72,-352.21 516.64,-346.74 515.21,-353.59"/>
</a>
</g>
</g>
<!-- Node5 -->
<g id="Node000005" class="node">
<title>Node5</title>
<g id="a_Node000005"><a xlink:href="namespacelmms_1_1PathUtil.html#ac137f08ba93cc7257ee39ae09dd7dc12" target="_top" xlink:title="Return the prefix used to denote this base in path strings.">
<polygon fill="white" stroke="#666666" points="810.5,-353.25 681.25,-353.25 681.25,-334 810.5,-334 810.5,-353.25"/>
<text xml:space="preserve" text-anchor="middle" x="745.88" y="-339.75" font-family="Helvetica,sans-Serif" font-size="10.00">lmms::PathUtil::basePrefix</text>
</a>
</g>
</g>
<!-- Node3&#45;&gt;Node5 -->
<g id="edge5_Node000003_Node000005" class="edge">
<title>Node3&#45;&gt;Node5</title>
<g id="a_edge5_Node000003_Node000005"><a xlink:title=" ">
<path fill="none" stroke="#63b8ff" d="M471.07,-330.62C527.32,-333.29 609.82,-337.21 669.56,-340.05"/>
<polygon fill="#63b8ff" stroke="#63b8ff" points="669.14,-343.53 679.3,-340.51 669.47,-336.54 669.14,-343.53"/>
</a>
</g>
</g>
<!-- Node4&#45;&gt;Node5 -->
<g id="edge4_Node000004_Node000005" class="edge">
<title>Node4&#45;&gt;Node5</title>
<g id="a_edge4_Node000004_Node000005"><a xlink:title=" ">
<path fill="none" stroke="#63b8ff" d="M645.58,-354.9C653.51,-354 661.64,-353.07 669.67,-352.16"/>
<polygon fill="#63b8ff" stroke="#63b8ff" points="669.87,-355.66 679.41,-351.06 669.08,-348.71 669.87,-355.66"/>
</a>
</g>
</g>
<!-- Node7 -->
<g id="Node000007" class="node">
<title>Node7</title>
<g id="a_Node000007"><a xlink:href="classlmms_1_1gui_1_1SampleLoader.html#a170f67d7c7ece70117df27d8e8190972" target="_top" xlink:title=" ">
<polygon fill="white" stroke="#666666" points="469.5,-299.88 344.75,-299.88 344.75,-269.38 469.5,-269.38 469.5,-299.88"/>
<text xml:space="preserve" text-anchor="start" x="352.75" y="-286.38" font-family="Helvetica,sans-Serif" font-size="10.00">lmms::gui::SampleLoader</text>
<text xml:space="preserve" text-anchor="middle" x="407.12" y="-275.12" font-family="Helvetica,sans-Serif" font-size="10.00">::displayError</text>
</a>
</g>
</g>
<!-- Node6&#45;&gt;Node7 -->
<g id="edge7_Node000006_Node000007" class="edge">
<title>Node6&#45;&gt;Node7</title>
<g id="a_edge7_Node000006_Node000007"><a xlink:title=" ">
<path fill="none" stroke="#63b8ff" d="M298.46,-257.27C309.77,-260.15 321.69,-263.17 333.3,-266.12"/>
<polygon fill="#63b8ff" stroke="#63b8ff" points="332.28,-269.48 342.84,-268.55 334.01,-262.69 332.28,-269.48"/>
</a>
</g>
</g>
<!-- Node9 -->
<g id="Node000009" class="node">
<title>Node9</title>
<g id="a_Node000009"><a xlink:href="classlmms_1_1SampleBuffer.html#ac68f5453951576da0174eeeff33ebc71" target="_top" xlink:title=" ">
<polygon fill="white" stroke="#666666" points="458.62,-250.88 355.62,-250.88 355.62,-220.38 458.62,-220.38 458.62,-250.88"/>
<text xml:space="preserve" text-anchor="start" x="363.62" y="-237.38" font-family="Helvetica,sans-Serif" font-size="10.00">lmms::SampleBuffer</text>
<text xml:space="preserve" text-anchor="middle" x="407.12" y="-226.12" font-family="Helvetica,sans-Serif" font-size="10.00">::emptyBuffer</text>
</a>
</g>
</g>
<!-- Node6&#45;&gt;Node9 -->
<g id="edge9_Node000006_Node000009" class="edge">
<title>Node6&#45;&gt;Node9</title>
<g id="a_edge9_Node000006_Node000009"><a xlink:title=" ">
<path fill="none" stroke="#63b8ff" d="M298.46,-239.44C313.29,-238.92 329.16,-238.35 344.02,-237.83"/>
<polygon fill="#63b8ff" stroke="#63b8ff" points="343.77,-241.34 353.64,-237.49 343.52,-234.34 343.77,-241.34"/>
</a>
</g>
</g>
<!-- Node10 -->
<g id="Node000010" class="node">
<title>Node10</title>
<g id="a_Node000010"><a xlink:href="namespacelmms_1_1gui.html#a0f9bd49bea2bc61619a8b3966223cce5" target="_top" xlink:title=" ">
<polygon fill="white" stroke="#666666" points="453.75,-202.25 360.5,-202.25 360.5,-183 453.75,-183 453.75,-202.25"/>
<text xml:space="preserve" text-anchor="middle" x="407.12" y="-188.75" font-family="Helvetica,sans-Serif" font-size="10.00">lmms::gui::getGUI</text>
</a>
</g>
</g>
<!-- Node6&#45;&gt;Node10 -->
<g id="edge10_Node000006_Node000010" class="edge">
<title>Node6&#45;&gt;Node10</title>
<g id="a_edge10_Node000006_Node000010"><a xlink:title=" ">
<path fill="none" stroke="#63b8ff" d="M290.89,-225.99C313.3,-219.5 339.02,-212.05 360.46,-205.84"/>
<polygon fill="#63b8ff" stroke="#63b8ff" points="361.16,-209.29 369.79,-203.14 359.22,-202.56 361.16,-209.29"/>
</a>
</g>
</g>
<!-- Node8 -->
<g id="Node000008" class="node">
<title>Node8</title>
<g id="a_Node000008"><a xlink:href="adplugdb_8cpp.html#afadda4184a4f0275271a46b2b0cc7f8b" target="_top" xlink:title=" ">
<polygon fill="white" stroke="#666666" points="604.38,-294.25 548.62,-294.25 548.62,-275 604.38,-275 604.38,-294.25"/>
<text xml:space="preserve" text-anchor="middle" x="576.5" y="-280.75" font-family="Helvetica,sans-Serif" font-size="10.00">message</text>
</a>
</g>
</g>
<!-- Node7&#45;&gt;Node8 -->
<g id="edge8_Node000007_Node000008" class="edge">
<title>Node7&#45;&gt;Node8</title>
<g id="a_edge8_Node000007_Node000008"><a xlink:title=" ">
<path fill="none" stroke="#63b8ff" d="M469.97,-284.62C492.44,-284.62 517.17,-284.62 537.04,-284.62"/>
<polygon fill="#63b8ff" stroke="#63b8ff" points="536.9,-288.13 546.9,-284.63 536.9,-281.13 536.9,-288.13"/>
</a>
</g>
</g>
<!-- Node11 -->
<g id="Node000011" class="node">
<title>Node11</title>
<g id="a_Node000011"><a xlink:href="classlmms_1_1gui_1_1GuiApplication.html#ac376550c6eab0be216a675c26679b8b4" target="_top" xlink:title=" ">
<polygon fill="#fff0f0" stroke="red" points="638.88,-207.88 514.12,-207.88 514.12,-177.38 638.88,-177.38 638.88,-207.88"/>
<text xml:space="preserve" text-anchor="start" x="522.12" y="-194.38" font-family="Helvetica,sans-Serif" font-size="10.00">lmms::gui::GuiApplication</text>
<text xml:space="preserve" text-anchor="middle" x="576.5" y="-183.12" font-family="Helvetica,sans-Serif" font-size="10.00">::instance</text>
</a>
</g>
</g>
<!-- Node10&#45;&gt;Node11 -->
<g id="edge11_Node000010_Node000011" class="edge">
<title>Node10&#45;&gt;Node11</title>
<g id="a_edge11_Node000010_Node000011"><a xlink:title=" ">
<path fill="none" stroke="#63b8ff" d="M453.86,-192.62C468.88,-192.62 485.97,-192.62 502.5,-192.62"/>
<polygon fill="#63b8ff" stroke="#63b8ff" points="502.3,-196.13 512.3,-192.63 502.3,-189.13 502.3,-196.13"/>
</a>
</g>
</g>
<!-- Node57 -->
<g id="Node000057" class="node">
<title>Node57</title>
<g id="a_Node000057"><a xlink:href="classlmms_1_1AudioFileProcessor.html#a4f1e7a997c0baf266766c4e4209f90d3" target="_top" xlink:title=" ">
<polygon fill="white" stroke="#666666" points="471.75,-158.88 342.5,-158.88 342.5,-128.38 471.75,-128.38 471.75,-158.88"/>
<text xml:space="preserve" text-anchor="start" x="350.5" y="-145.38" font-family="Helvetica,sans-Serif" font-size="10.00">lmms::AudioFileProcessor</text>
<text xml:space="preserve" text-anchor="middle" x="407.12" y="-134.12" font-family="Helvetica,sans-Serif" font-size="10.00">::pointChanged</text>
</a>
</g>
</g>
<!-- Node56&#45;&gt;Node57 -->
<g id="edge14_Node000056_Node000057" class="edge">
<title>Node56&#45;&gt;Node57</title>
<g id="a_edge14_Node000056_Node000057"><a xlink:title=" ">
<path fill="none" stroke="#63b8ff" d="M300.86,-143.62C310.66,-143.62 320.84,-143.62 330.85,-143.62"/>
<polygon fill="#63b8ff" stroke="#63b8ff" points="330.53,-147.13 340.53,-143.63 330.53,-140.13 330.53,-147.13"/>
</a>
</g>
</g>
<!-- Node58 -->
<g id="Node000058" class="node">
<title>Node58</title>
<g id="a_Node000058"><a xlink:href="classlmms_1_1Model.html#a140ee903da70ba289abf1ee473df34cb" target="_top" xlink:title=" ">
<polygon fill="white" stroke="#666666" points="642.62,-153.25 510.38,-153.25 510.38,-134 642.62,-134 642.62,-153.25"/>
<text xml:space="preserve" text-anchor="middle" x="576.5" y="-139.75" font-family="Helvetica,sans-Serif" font-size="10.00">lmms::Model::dataChanged</text>
</a>
</g>
</g>
<!-- Node57&#45;&gt;Node58 -->
<g id="edge15_Node000057_Node000058" class="edge">
<title>Node57&#45;&gt;Node58</title>
<g id="a_edge15_Node000057_Node000058"><a xlink:title=" ">
<path fill="none" stroke="#63b8ff" d="M471.88,-143.62C480.65,-143.62 489.73,-143.62 498.7,-143.62"/>
<polygon fill="#63b8ff" stroke="#63b8ff" points="498.46,-147.13 508.46,-143.63 498.46,-140.13 498.46,-147.13"/>
</a>
</g>
</g>
<!-- Node61 -->
<g id="Node000061" class="node">
<title>Node61</title>
<g id="a_Node000061"><a xlink:href="classlmms_1_1Track.html#a02c11d1e451334fe608c82c135dc9f01" target="_top" xlink:title=" ">
<polygon fill="white" stroke="#666666" points="456,-74.25 358.25,-74.25 358.25,-55 456,-55 456,-74.25"/>
<text xml:space="preserve" text-anchor="middle" x="407.12" y="-60.75" font-family="Helvetica,sans-Serif" font-size="10.00">lmms::Track::name</text>
</a>
</g>
</g>
<!-- Node60&#45;&gt;Node61 -->
<g id="edge18_Node000060_Node000061" class="edge">
<title>Node60&#45;&gt;Node61</title>
<g id="a_edge18_Node000060_Node000061"><a xlink:title=" ">
<path fill="none" stroke="#63b8ff" d="M294.18,-52.06C311.17,-53.97 329.81,-56.06 346.92,-57.98"/>
<polygon fill="#63b8ff" stroke="#63b8ff" points="346.08,-61.41 356.4,-59.04 346.86,-54.45 346.08,-61.41"/>
</a>
</g>
</g>
<!-- Node62 -->
<g id="Node000062" class="node">
<title>Node62</title>
<g id="a_Node000062"><a xlink:href="classlmms_1_1Track.html#a94a393326f28141895b87640a71309d7" target="_top" xlink:title=" ">
<polygon fill="white" stroke="#666666" points="463.88,-37.25 350.38,-37.25 350.38,-18 463.88,-18 463.88,-37.25"/>
<text xml:space="preserve" text-anchor="middle" x="407.12" y="-23.75" font-family="Helvetica,sans-Serif" font-size="10.00">lmms::Track::setName</text>
</a>
</g>
</g>
<!-- Node60&#45;&gt;Node62 -->
<g id="edge19_Node000060_Node000062" class="edge">
<title>Node60&#45;&gt;Node62</title>
<g id="a_edge19_Node000060_Node000062"><a xlink:title=" ">
<path fill="none" stroke="#63b8ff" d="M294.18,-39.53C308.54,-38 324.09,-36.35 338.89,-34.78"/>
<polygon fill="#63b8ff" stroke="#63b8ff" points="338.95,-38.29 348.53,-33.75 338.21,-31.33 338.95,-38.29"/>
</a>
</g>
</g>
<!-- Node29 -->
<g id="Node000029" class="node">
<title>Node29</title>
<g id="a_Node000029"><a xlink:href="classlmms_1_1Engine.html#a8b943018d0245555391473f4a7d75b5b" target="_top" xlink:title=" ">
<polygon fill="white" stroke="#666666" points="633.62,-56.25 519.38,-56.25 519.38,-37 633.62,-37 633.62,-56.25"/>
<text xml:space="preserve" text-anchor="middle" x="576.5" y="-42.75" font-family="Helvetica,sans-Serif" font-size="10.00">lmms::Engine::getSong</text>
</a>
</g>
</g>
<!-- Node62&#45;&gt;Node29 -->
<g id="edge20_Node000062_Node000029" class="edge">
<title>Node62&#45;&gt;Node29</title>
<g id="a_edge20_Node000062_Node000029"><a xlink:title=" ">
<path fill="none" stroke="#63b8ff" d="M464.32,-34C478.19,-35.58 493.18,-37.28 507.54,-38.91"/>
<polygon fill="#63b8ff" stroke="#63b8ff" points="507.04,-42.38 517.38,-40.03 507.83,-35.42 507.04,-42.38"/>
</a>
</g>
</g>
<!-- Node63 -->
<g id="Node000063" class="node">
<title>Node63</title>
<g id="a_Node000063"><a xlink:href="classlmms_1_1Track.html#aa9b7818435363c40633d51531ae2ded4" target="_top" xlink:title=" ">
<polygon fill="white" stroke="#666666" points="644.5,-19.25 508.5,-19.25 508.5,0 644.5,0 644.5,-19.25"/>
<text xml:space="preserve" text-anchor="middle" x="576.5" y="-5.75" font-family="Helvetica,sans-Serif" font-size="10.00">lmms::Track::nameChanged</text>
</a>
</g>
</g>
<!-- Node62&#45;&gt;Node63 -->
<g id="edge21_Node000062_Node000063" class="edge">
<title>Node62&#45;&gt;Node63</title>
<g id="a_edge21_Node000062_Node000063"><a xlink:title=" ">
<path fill="none" stroke="#63b8ff" d="M464.32,-21.58C474.76,-20.46 485.83,-19.27 496.79,-18.09"/>
<polygon fill="#63b8ff" stroke="#63b8ff" points="497.06,-21.58 506.63,-17.03 496.31,-14.62 497.06,-21.58"/>
</a>
</g>
</g>
</g>
</svg>

<g id="navigator" transform="translate(0 0)" fill="#404254">
  <rect fill="#f2f5e9" fill-opacity="0.5" stroke="#606060" stroke-width=".5" x="0" y="0" width="60" height="60"/>
  <use id="zoomplus" xlink:href="#zoomPlus" x="17" y="9" onmousedown="handleZoom(evt,'in')"/>
  <use id="zoomminus" xlink:href="#zoomMin" x="42" y="9" onmousedown="handleZoom(evt,'out')"/>
  <use id="reset" xlink:href="#resetDef" x="30" y="36" onmousedown="handleReset()"/>
   <use id="arrowup" xlink:href="#arrowUp" x="0" y="0" onmousedown="handlePan(0,-1)"/>
  <use id="arrowright" xlink:href="#arrowRight" x="0" y="0" onmousedown="handlePan(1,0)"/>
  <use id="arrowdown" xlink:href="#arrowDown" x="0" y="0" onmousedown="handlePan(0,1)"/>
  <use id="arrowleft" xlink:href="#arrowLeft" x="0" y="0" onmousedown="handlePan(-1,0)"/>
</g>
<svg viewBox="0 0 15 15" width="100%" height="30px" preserveAspectRatio="xMaxYMin meet">
 <g id="arrow_out" transform="scale(0.3 0.3)">
  <a xlink:href="classlmms_1_1AudioFileProcessor_a11e554c4f230114c1c84d4ddc4b9495a_cgraph_org.svg" target="_base">
   <rect id="button" ry="5" rx="5" y="6" x="6" height="38" width="38"
        fill="#f2f5e9" fill-opacity="0.5" stroke="#606060" stroke-width="1.0"/>
   <path id="arrow"
     d="M 11.500037,31.436501 C 11.940474,20.09759 22.043105,11.32322 32.158766,21.979434 L 37.068811,17.246167 C 37.068811,17.246167 37.088388,32 37.088388,32 L 22.160133,31.978069 C 22.160133,31.978069 26.997745,27.140456 26.997745,27.140456 C 18.528582,18.264221 13.291696,25.230495 11.500037,31.436501 z"
     style="fill:#404040;"/>
  </a>
 </g>
</svg>

<style type='text/css'>
<![CDATA[
[data-mouse-over-selected='false'] { opacity: 0.7; }
[data-mouse-over-selected='true']  { opacity: 1.0; }
]]>
</style>
<script type="application/ecmascript"><![CDATA[
document.addEventListener('DOMContentLoaded', (event) => {
  highlightEdges();
  highlightAdjacentNodes();
});
]]></script>
</svg>
