<?xml version="1.0" encoding="UTF-8" standalone="no"?>
<!DOCTYPE svg PUBLIC "-//W3C//DTD SVG 1.1//EN"
 "http://www.w3.org/Graphics/SVG/1.1/DTD/svg11.dtd">
<!-- Generated by graphviz version 14.0.2 (0)
 -->
<!-- Title: juce::Component::resized Pages: 1 -->
<svg width="874pt" height="833pt"
 viewBox="0.00 0.00 874.00 833.00" xmlns="http://www.w3.org/2000/svg" xmlns:xlink="http://www.w3.org/1999/xlink">
<g id="graph0" class="graph" transform="scale(1 1) rotate(0) translate(4 828.5)">
<title>juce::Component::resized</title>
<!-- Node1 -->
<g id="Node000001" class="node">
<title>Node1</title>
<g id="a_Node000001"><a xlink:title=" ">
<polygon fill="#999999" stroke="#666666" points="866,-310.88 742.75,-310.88 742.75,-291.62 866,-291.62 866,-310.88"/>
<text xml:space="preserve" text-anchor="middle" x="804.38" y="-297.38" font-family="Helvetica,sans-Serif" font-size="10.00">juce::Component::resized</text>
</a>
</g>
</g>
<!-- Node1&#45;&gt;Node1 -->
<g id="edge1_Node000001_Node000001" class="edge">
<title>Node1&#45;&gt;Node1</title>
<g id="a_edge1_Node000001_Node000001"><a xlink:title=" ">
<path fill="none" stroke="#63b8ff" d="M834.75,-321.94C831.25,-325.99 821.12,-328.88 804.38,-328.88 774.6,-328.88 765.76,-319.77 777.86,-311.16"/>
<polygon fill="#63b8ff" stroke="#63b8ff" points="838.06,-320.83 831.4,-312.59 831.47,-323.18 838.06,-320.83"/>
</a>
</g>
</g>
<!-- Node2 -->
<g id="Node000002" class="node">
<title>Node2</title>
<g id="a_Node000002"><a xlink:href="classjuce_1_1DrawableButton.html#a2a4821072fd6ad627eb3a8e58d1938c1" target="_top" xlink:title=" ">
<polygon fill="white" stroke="#666666" points="688.75,-641.5 581.25,-641.5 581.25,-611 688.75,-611 688.75,-641.5"/>
<text xml:space="preserve" text-anchor="start" x="589.25" y="-628" font-family="Helvetica,sans-Serif" font-size="10.00">juce::DrawableButton</text>
<text xml:space="preserve" text-anchor="middle" x="635" y="-616.75" font-family="Helvetica,sans-Serif" font-size="10.00">::resized</text>
</a>
</g>
</g>
<!-- Node1&#45;&gt;Node2 -->
<g id="edge2_Node000001_Node000002" class="edge">
<title>Node1&#45;&gt;Node2</title>
<g id="a_edge2_Node000001_Node000002"><a xlink:title=" ">
<path fill="none" stroke="#63b8ff" d="M793,-321.39C762.19,-381.22 671.65,-557.02 644.07,-610.58"/>
<polygon fill="#63b8ff" stroke="#63b8ff" points="796.02,-323.17 797.49,-312.68 789.8,-319.97 796.02,-323.17"/>
</a>
</g>
</g>
<!-- Node8 -->
<g id="Node000008" class="node">
<title>Node8</title>
<g id="a_Node000008"><a xlink:href="classjuce_1_1Component.html#ae935f79620f7b4259ae3dd2307a8c96a" target="_top" xlink:title=" ">
<polygon fill="white" stroke="#666666" points="706.38,-350.5 563.62,-350.5 563.62,-320 706.38,-320 706.38,-350.5"/>
<text xml:space="preserve" text-anchor="start" x="571.62" y="-337" font-family="Helvetica,sans-Serif" font-size="10.00">juce::Component::sendMoved</text>
<text xml:space="preserve" text-anchor="middle" x="635" y="-325.75" font-family="Helvetica,sans-Serif" font-size="10.00">ResizedMessages</text>
</a>
</g>
</g>
<!-- Node1&#45;&gt;Node8 -->
<g id="edge14_Node000001_Node000008" class="edge">
<title>Node1&#45;&gt;Node8</title>
<g id="a_edge14_Node000001_Node000008"><a xlink:title=" ">
<path fill="none" stroke="#63b8ff" d="M742.63,-313.59C730.94,-315.96 718.61,-318.47 706.63,-320.9"/>
<polygon fill="#63b8ff" stroke="#63b8ff" points="743.02,-317.08 752.13,-311.66 741.63,-310.22 743.02,-317.08"/>
</a>
</g>
</g>
<!-- Node300 -->
<g id="Node000300" class="node">
<title>Node300</title>
<g id="a_Node000300"><a xlink:href="classjuce_1_1TableHeaderComponent.html#a0628ea49f1a32258e15426144d3bd0f2" target="_top" xlink:title=" ">
<polygon fill="white" stroke="#666666" points="706.75,-283.5 563.25,-283.5 563.25,-253 706.75,-253 706.75,-283.5"/>
<text xml:space="preserve" text-anchor="start" x="571.25" y="-270" font-family="Helvetica,sans-Serif" font-size="10.00">juce::TableHeaderComponent</text>
<text xml:space="preserve" text-anchor="middle" x="635" y="-258.75" font-family="Helvetica,sans-Serif" font-size="10.00">::setColumnVisible</text>
</a>
</g>
</g>
<!-- Node1&#45;&gt;Node300 -->
<g id="edge38_Node000001_Node000300" class="edge">
<title>Node1&#45;&gt;Node300</title>
<g id="a_edge38_Node000001_Node000300"><a xlink:title=" ">
<path fill="none" stroke="#63b8ff" d="M740.98,-288.95C729.95,-286.77 718.4,-284.5 707.15,-282.28"/>
<polygon fill="#63b8ff" stroke="#63b8ff" points="740.27,-292.38 750.76,-290.88 741.63,-285.51 740.27,-292.38"/>
</a>
</g>
</g>
<!-- Node304 -->
<g id="Node000304" class="node">
<title>Node304</title>
<g id="a_Node000304"><a xlink:href="classjuce_1_1TableHeaderComponent.html#ac0df72f5dedf9fc25ed8ed18b7e35948" target="_top" xlink:title=" ">
<polygon fill="white" stroke="#666666" points="706.75,-216.5 563.25,-216.5 563.25,-186 706.75,-186 706.75,-216.5"/>
<text xml:space="preserve" text-anchor="start" x="571.25" y="-203" font-family="Helvetica,sans-Serif" font-size="10.00">juce::TableHeaderComponent</text>
<text xml:space="preserve" text-anchor="middle" x="635" y="-191.75" font-family="Helvetica,sans-Serif" font-size="10.00">::setStretchToFitActive</text>
</a>
</g>
</g>
<!-- Node1&#45;&gt;Node304 -->
<g id="edge45_Node000001_Node000304" class="edge">
<title>Node1&#45;&gt;Node304</title>
<g id="a_edge45_Node000001_Node000304"><a xlink:title=" ">
<path fill="none" stroke="#63b8ff" d="M776.91,-285.44C745.49,-266.66 693.41,-235.55 662.13,-216.86"/>
<polygon fill="#63b8ff" stroke="#63b8ff" points="775.04,-288.4 785.42,-290.52 778.63,-282.39 775.04,-288.4"/>
</a>
</g>
</g>
<!-- Node2&#45;&gt;Node2 -->
<g id="edge11_Node000002_Node000002" class="edge">
<title>Node2&#45;&gt;Node2</title>
<g id="a_edge11_Node000002_Node000002"><a xlink:title=" ">
<path fill="none" stroke="#63b8ff" d="M663.4,-653.2C658.76,-656.97 649.29,-659.5 635,-659.5 608.87,-659.5 598.86,-651.06 604.99,-641.99"/>
<polygon fill="#63b8ff" stroke="#63b8ff" points="666.84,-653.88 664.8,-643.48 659.91,-652.89 666.84,-653.88"/>
</a>
</g>
</g>
<!-- Node3 -->
<g id="Node000003" class="node">
<title>Node3</title>
<g id="a_Node000003"><a xlink:href="classjuce_1_1DrawableButton.html#a4f65fb02d63c803817b993de7803312f" target="_top" xlink:title=" ">
<polygon fill="white" stroke="#666666" points="506.62,-723.5 397.62,-723.5 397.62,-693 506.62,-693 506.62,-723.5"/>
<text xml:space="preserve" text-anchor="start" x="405.62" y="-710" font-family="Helvetica,sans-Serif" font-size="10.00">juce::DrawableButton</text>
<text xml:space="preserve" text-anchor="middle" x="452.12" y="-698.75" font-family="Helvetica,sans-Serif" font-size="10.00">::buttonStateChanged</text>
</a>
</g>
</g>
<!-- Node2&#45;&gt;Node3 -->
<g id="edge3_Node000002_Node000003" class="edge">
<title>Node2&#45;&gt;Node3</title>
<g id="a_edge3_Node000002_Node000003"><a xlink:title=" ">
<path fill="none" stroke="#63b8ff" d="M589.33,-646.5C557.97,-660.72 516.63,-679.46 487.75,-692.55"/>
<polygon fill="#63b8ff" stroke="#63b8ff" points="590.51,-649.81 598.17,-642.49 587.62,-643.43 590.51,-649.81"/>
</a>
</g>
</g>
<!-- Node7 -->
<g id="Node000007" class="node">
<title>Node7</title>
<g id="a_Node000007"><a xlink:href="classjuce_1_1DrawableButton.html#aec80037b3d44b7a532ac1cca944995a3" target="_top" xlink:title=" ">
<polygon fill="white" stroke="#666666" points="505.88,-641.5 398.38,-641.5 398.38,-611 505.88,-611 505.88,-641.5"/>
<text xml:space="preserve" text-anchor="start" x="406.38" y="-628" font-family="Helvetica,sans-Serif" font-size="10.00">juce::DrawableButton</text>
<text xml:space="preserve" text-anchor="middle" x="452.12" y="-616.75" font-family="Helvetica,sans-Serif" font-size="10.00">::setEdgeIndent</text>
</a>
</g>
</g>
<!-- Node2&#45;&gt;Node7 -->
<g id="edge12_Node000002_Node000007" class="edge">
<title>Node2&#45;&gt;Node7</title>
<g id="a_edge12_Node000002_Node000007"><a xlink:title=" ">
<path fill="none" stroke="#63b8ff" d="M569.88,-626.25C549.07,-626.25 526.23,-626.25 506.31,-626.25"/>
<polygon fill="#63b8ff" stroke="#63b8ff" points="569.68,-629.75 579.68,-626.25 569.68,-622.75 569.68,-629.75"/>
</a>
</g>
</g>
<!-- Node3&#45;&gt;Node3 -->
<g id="edge4_Node000003_Node000003" class="edge">
<title>Node3&#45;&gt;Node3</title>
<g id="a_edge4_Node000003_Node000003"><a xlink:title=" ">
<path fill="none" stroke="#63b8ff" d="M482.6,-735.2C477.62,-738.97 467.46,-741.5 452.12,-741.5 424.08,-741.5 413.35,-733.06 419.92,-723.99"/>
<polygon fill="#63b8ff" stroke="#63b8ff" points="486.04,-735.9 484.1,-725.48 479.12,-734.83 486.04,-735.9"/>
</a>
</g>
</g>
<!-- Node4 -->
<g id="Node000004" class="node">
<title>Node4</title>
<g id="a_Node000004"><a xlink:href="classjuce_1_1DrawableButton.html#a86dd591968af2569f9ffb1eca3f0fdc1" target="_top" xlink:title=" ">
<polygon fill="white" stroke="#666666" points="324.88,-806.5 215.88,-806.5 215.88,-776 324.88,-776 324.88,-806.5"/>
<text xml:space="preserve" text-anchor="start" x="223.88" y="-793" font-family="Helvetica,sans-Serif" font-size="10.00">juce::DrawableButton</text>
<text xml:space="preserve" text-anchor="middle" x="270.38" y="-781.75" font-family="Helvetica,sans-Serif" font-size="10.00">::enablementChanged</text>
</a>
</g>
</g>
<!-- Node3&#45;&gt;Node4 -->
<g id="edge5_Node000003_Node000004" class="edge">
<title>Node3&#45;&gt;Node4</title>
<g id="a_edge5_Node000003_Node000004"><a xlink:title=" ">
<path fill="none" stroke="#63b8ff" d="M414.21,-729.35C393.13,-740.98 365.98,-755.25 341,-766.25 333.59,-769.51 325.62,-772.68 317.8,-775.61"/>
<polygon fill="#63b8ff" stroke="#63b8ff" points="415.69,-732.54 422.72,-724.62 412.28,-726.42 415.69,-732.54"/>
</a>
</g>
</g>
<!-- Node5 -->
<g id="Node000005" class="node">
<title>Node5</title>
<g id="a_Node000005"><a xlink:href="classjuce_1_1DrawableButton.html#a9eadf5ea619dba841d6b7e656a6015d8" target="_top" xlink:title=" ">
<polygon fill="white" stroke="#666666" points="324.12,-739.5 216.62,-739.5 216.62,-709 324.12,-709 324.12,-739.5"/>
<text xml:space="preserve" text-anchor="start" x="224.62" y="-726" font-family="Helvetica,sans-Serif" font-size="10.00">juce::DrawableButton</text>
<text xml:space="preserve" text-anchor="middle" x="270.38" y="-714.75" font-family="Helvetica,sans-Serif" font-size="10.00">::setButtonStyle</text>
</a>
</g>
</g>
<!-- Node3&#45;&gt;Node5 -->
<g id="edge7_Node000003_Node000005" class="edge">
<title>Node3&#45;&gt;Node5</title>
<g id="a_edge7_Node000003_Node000005"><a xlink:title=" ">
<path fill="none" stroke="#63b8ff" d="M385.85,-714.06C365.64,-715.86 343.62,-717.82 324.34,-719.54"/>
<polygon fill="#63b8ff" stroke="#63b8ff" points="386.04,-717.56 395.69,-713.18 385.42,-710.59 386.04,-717.56"/>
</a>
</g>
</g>
<!-- Node6 -->
<g id="Node000006" class="node">
<title>Node6</title>
<g id="a_Node000006"><a xlink:href="classjuce_1_1DrawableButton.html#a4f39ba0e006c79979691c3a8895e1746" target="_top" xlink:title=" ">
<polygon fill="white" stroke="#666666" points="324.12,-672.5 216.62,-672.5 216.62,-642 324.12,-642 324.12,-672.5"/>
<text xml:space="preserve" text-anchor="start" x="224.62" y="-659" font-family="Helvetica,sans-Serif" font-size="10.00">juce::DrawableButton</text>
<text xml:space="preserve" text-anchor="middle" x="270.38" y="-647.75" font-family="Helvetica,sans-Serif" font-size="10.00">::setImages</text>
</a>
</g>
</g>
<!-- Node3&#45;&gt;Node6 -->
<g id="edge9_Node000003_Node000006" class="edge">
<title>Node3&#45;&gt;Node6</title>
<g id="a_edge9_Node000003_Node000006"><a xlink:title=" ">
<path fill="none" stroke="#63b8ff" d="M386.14,-689.81C365.84,-684.05 343.71,-677.77 324.34,-672.28"/>
<polygon fill="#63b8ff" stroke="#63b8ff" points="385.16,-693.17 395.74,-692.54 387.07,-686.44 385.16,-693.17"/>
</a>
</g>
</g>
<!-- Node4&#45;&gt;Node4 -->
<g id="edge6_Node000004_Node000004" class="edge">
<title>Node4&#45;&gt;Node4</title>
<g id="a_edge6_Node000004_Node000004"><a xlink:title=" ">
<path fill="none" stroke="#63b8ff" d="M300.85,-818.2C295.87,-821.97 285.71,-824.5 270.38,-824.5 242.33,-824.5 231.6,-816.06 238.17,-806.99"/>
<polygon fill="#63b8ff" stroke="#63b8ff" points="304.29,-818.9 302.35,-808.48 297.37,-817.83 304.29,-818.9"/>
</a>
</g>
</g>
<!-- Node5&#45;&gt;Node5 -->
<g id="edge8_Node000005_Node000005" class="edge">
<title>Node5&#45;&gt;Node5</title>
<g id="a_edge8_Node000005_Node000005"><a xlink:title=" ">
<path fill="none" stroke="#63b8ff" d="M300.85,-751.2C295.87,-754.97 285.71,-757.5 270.38,-757.5 242.33,-757.5 231.6,-749.06 238.17,-739.99"/>
<polygon fill="#63b8ff" stroke="#63b8ff" points="304.29,-751.9 302.35,-741.48 297.37,-750.83 304.29,-751.9"/>
</a>
</g>
</g>
<!-- Node6&#45;&gt;Node6 -->
<g id="edge10_Node000006_Node000006" class="edge">
<title>Node6&#45;&gt;Node6</title>
<g id="a_edge10_Node000006_Node000006"><a xlink:title=" ">
<path fill="none" stroke="#63b8ff" d="M300.85,-684.2C295.87,-687.97 285.71,-690.5 270.38,-690.5 242.33,-690.5 231.6,-682.06 238.17,-672.99"/>
<polygon fill="#63b8ff" stroke="#63b8ff" points="304.29,-684.9 302.35,-674.48 297.37,-683.83 304.29,-684.9"/>
</a>
</g>
</g>
<!-- Node7&#45;&gt;Node7 -->
<g id="edge13_Node000007_Node000007" class="edge">
<title>Node7&#45;&gt;Node7</title>
<g id="a_edge13_Node000007_Node000007"><a xlink:title=" ">
<path fill="none" stroke="#63b8ff" d="M482.6,-653.2C477.62,-656.97 467.46,-659.5 452.12,-659.5 424.08,-659.5 413.35,-651.06 419.92,-641.99"/>
<polygon fill="#63b8ff" stroke="#63b8ff" points="486.04,-653.9 484.1,-643.48 479.12,-652.83 486.04,-653.9"/>
</a>
</g>
</g>
<!-- Node8&#45;&gt;Node8 -->
<g id="edge15_Node000008_Node000008" class="edge">
<title>Node8&#45;&gt;Node8</title>
<g id="a_edge15_Node000008_Node000008"><a xlink:title=" ">
<path fill="none" stroke="#63b8ff" d="M663.4,-362.2C658.76,-365.97 649.29,-368.5 635,-368.5 608.87,-368.5 598.86,-360.06 604.99,-350.99"/>
<polygon fill="#63b8ff" stroke="#63b8ff" points="666.84,-362.88 664.8,-352.48 659.91,-361.89 666.84,-362.88"/>
</a>
</g>
</g>
<!-- Node9 -->
<g id="Node000009" class="node">
<title>Node9</title>
<g id="a_Node000009"><a xlink:href="classjuce_1_1Component.html#a8b76fbbdbd20cecdfe1c947610363d29" target="_top" xlink:title=" ">
<polygon fill="white" stroke="#666666" points="523.5,-544.5 380.75,-544.5 380.75,-514 523.5,-514 523.5,-544.5"/>
<text xml:space="preserve" text-anchor="start" x="388.75" y="-531" font-family="Helvetica,sans-Serif" font-size="10.00">juce::Component::sendMoved</text>
<text xml:space="preserve" text-anchor="middle" x="452.12" y="-519.75" font-family="Helvetica,sans-Serif" font-size="10.00">ResizedMessagesIfPending</text>
</a>
</g>
</g>
<!-- Node8&#45;&gt;Node9 -->
<g id="edge16_Node000008_Node000009" class="edge">
<title>Node8&#45;&gt;Node9</title>
<g id="a_edge16_Node000008_Node000009"><a xlink:title=" ">
<path fill="none" stroke="#63b8ff" d="M611.89,-358.97C574.38,-399.19 499.31,-479.72 467.69,-513.63"/>
<polygon fill="#63b8ff" stroke="#63b8ff" points="614.21,-361.61 618.47,-351.9 609.09,-356.83 614.21,-361.61"/>
</a>
</g>
</g>
<!-- Node289 -->
<g id="Node000289" class="node">
<title>Node289</title>
<g id="a_Node000289"><a xlink:href="classjuce_1_1Component.html#a10e1f90d330f51fcc2010219c02051c9" target="_top" xlink:title=" ">
<polygon fill="white" stroke="#666666" points="527.25,-341.88 377,-341.88 377,-322.62 527.25,-322.62 527.25,-341.88"/>
<text xml:space="preserve" text-anchor="middle" x="452.12" y="-328.38" font-family="Helvetica,sans-Serif" font-size="10.00">juce::Component::setTransform</text>
</a>
</g>
</g>
<!-- Node8&#45;&gt;Node289 -->
<g id="edge23_Node000008_Node000289" class="edge">
<title>Node8&#45;&gt;Node289</title>
<g id="a_edge23_Node000008_Node000289"><a xlink:title=" ">
<path fill="none" stroke="#63b8ff" d="M551.94,-333.89C543.85,-333.75 535.67,-333.62 527.66,-333.49"/>
<polygon fill="#63b8ff" stroke="#63b8ff" points="551.72,-337.39 561.78,-334.05 551.84,-330.39 551.72,-337.39"/>
</a>
</g>
</g>
<!-- Node9&#45;&gt;Node9 -->
<g id="edge19_Node000009_Node000009" class="edge">
<title>Node9&#45;&gt;Node9</title>
<g id="a_edge19_Node000009_Node000009"><a xlink:title=" ">
<path fill="none" stroke="#63b8ff" d="M482.6,-556.2C477.62,-559.97 467.46,-562.5 452.12,-562.5 424.08,-562.5 413.35,-554.06 419.92,-544.99"/>
<polygon fill="#63b8ff" stroke="#63b8ff" points="486.04,-556.9 484.1,-546.48 479.12,-555.83 486.04,-556.9"/>
</a>
</g>
</g>
<!-- Node10 -->
<g id="Node000010" class="node">
<title>Node10</title>
<g id="a_Node000010"><a xlink:href="classjuce_1_1Component.html#a04cb5e9c37e2c043d5ebad5d7708aac9" target="_top" xlink:title=" ">
<polygon fill="#fff0f0" stroke="red" points="339.5,-605.5 201.25,-605.5 201.25,-575 339.5,-575 339.5,-605.5"/>
<text xml:space="preserve" text-anchor="start" x="209.25" y="-592" font-family="Helvetica,sans-Serif" font-size="10.00">juce::Component::paintEntire</text>
<text xml:space="preserve" text-anchor="middle" x="270.38" y="-580.75" font-family="Helvetica,sans-Serif" font-size="10.00">Component</text>
</a>
</g>
</g>
<!-- Node9&#45;&gt;Node10 -->
<g id="edge17_Node000009_Node000010" class="edge">
<title>Node9&#45;&gt;Node10</title>
<g id="a_edge17_Node000009_Node000010"><a xlink:title=" ">
<path fill="none" stroke="#63b8ff" d="M394.14,-548.59C369.43,-556.97 340.86,-566.67 317.51,-574.59"/>
<polygon fill="#63b8ff" stroke="#63b8ff" points="395.06,-551.97 403.4,-545.45 392.81,-545.34 395.06,-551.97"/>
</a>
</g>
</g>
<!-- Node29 -->
<g id="Node000029" class="node">
<title>Node29</title>
<g id="a_Node000029"><a xlink:href="classjuce_1_1Component.html#ab0878fbc1094b820133124bdd2452630" target="_top" xlink:title=" ">
<polygon fill="#fff0f0" stroke="red" points="339.88,-538.88 200.88,-538.88 200.88,-519.62 339.88,-519.62 339.88,-538.88"/>
<text xml:space="preserve" text-anchor="middle" x="270.38" y="-525.38" font-family="Helvetica,sans-Serif" font-size="10.00">juce::Component::setBounds</text>
</a>
</g>
</g>
<!-- Node9&#45;&gt;Node29 -->
<g id="edge20_Node000009_Node000029" class="edge">
<title>Node9&#45;&gt;Node29</title>
<g id="a_edge20_Node000009_Node000029"><a xlink:title=" ">
<path fill="none" stroke="#63b8ff" d="M369.12,-529.25C359.5,-529.25 349.75,-529.25 340.33,-529.25"/>
<polygon fill="#63b8ff" stroke="#63b8ff" points="368.83,-532.75 378.83,-529.25 368.83,-525.75 368.83,-532.75"/>
</a>
</g>
</g>
<!-- Node10&#45;&gt;Node10 -->
<g id="edge18_Node000010_Node000010" class="edge">
<title>Node10&#45;&gt;Node10</title>
<g id="a_edge18_Node000010_Node000010"><a xlink:title=" ">
<path fill="none" stroke="#63b8ff" d="M300.85,-617.2C295.87,-620.97 285.71,-623.5 270.38,-623.5 242.33,-623.5 231.6,-615.06 238.17,-605.99"/>
<polygon fill="#63b8ff" stroke="#63b8ff" points="304.29,-617.9 302.35,-607.48 297.37,-616.83 304.29,-617.9"/>
</a>
</g>
</g>
<!-- Node29&#45;&gt;Node29 -->
<g id="edge22_Node000029_Node000029" class="edge">
<title>Node29&#45;&gt;Node29</title>
<g id="a_edge22_Node000029_Node000029"><a xlink:title=" ">
<path fill="none" stroke="#63b8ff" d="M303.26,-549.6C299.81,-553.83 288.85,-556.88 270.38,-556.88 238.43,-556.88 228.94,-547.77 241.92,-539.16"/>
<polygon fill="#63b8ff" stroke="#63b8ff" points="306.55,-548.39 299.42,-540.56 300.11,-551.13 306.55,-548.39"/>
</a>
</g>
</g>
<!-- Node99 -->
<g id="Node000099" class="node">
<title>Node99</title>
<g id="a_Node000099"><a xlink:href="structjuce_1_1ComponentAnimator_1_1AnimationTask_1_1ProxyComponent.html#ad5b52f90cfb5036f8fd4d320e223fdc5" target="_top" xlink:title=" ">
<polygon fill="white" stroke="#666666" points="163.75,-531.12 0,-531.12 0,-489.38 163.75,-489.38 163.75,-531.12"/>
<text xml:space="preserve" text-anchor="start" x="8" y="-517.62" font-family="Helvetica,sans-Serif" font-size="10.00">juce::ComponentAnimator</text>
<text xml:space="preserve" text-anchor="start" x="8" y="-506.38" font-family="Helvetica,sans-Serif" font-size="10.00">::AnimationTask::ProxyComponent</text>
<text xml:space="preserve" text-anchor="middle" x="81.88" y="-495.12" font-family="Helvetica,sans-Serif" font-size="10.00">::ProxyComponent</text>
</a>
</g>
</g>
<!-- Node29&#45;&gt;Node99 -->
<g id="edge21_Node000029_Node000099" class="edge">
<title>Node29&#45;&gt;Node99</title>
<g id="a_edge21_Node000029_Node000099"><a xlink:title=" ">
<path fill="none" stroke="#63b8ff" d="M189.23,-521.09C180.91,-520.24 172.45,-519.38 164.12,-518.53"/>
<polygon fill="#63b8ff" stroke="#63b8ff" points="188.65,-524.54 198.95,-522.08 189.36,-517.58 188.65,-524.54"/>
</a>
</g>
</g>
<!-- Node289&#45;&gt;Node99 -->
<g id="edge26_Node000289_Node000099" class="edge">
<title>Node289&#45;&gt;Node99</title>
<g id="a_edge26_Node000289_Node000099"><a xlink:title=" ">
<path fill="none" stroke="#63b8ff" d="M441.67,-352.29C425.72,-383.64 390.33,-443.66 341,-472.25 311.66,-489.26 228.32,-499.37 164.19,-504.83"/>
<polygon fill="#63b8ff" stroke="#63b8ff" points="444.72,-354.02 445.99,-343.5 438.43,-350.94 444.72,-354.02"/>
</a>
</g>
</g>
<!-- Node289&#45;&gt;Node289 -->
<g id="edge35_Node000289_Node000289" class="edge">
<title>Node289&#45;&gt;Node289</title>
<g id="a_edge35_Node000289_Node000289"><a xlink:title=" ">
<path fill="none" stroke="#63b8ff" d="M485.01,-352.6C481.56,-356.83 470.6,-359.88 452.12,-359.88 420.18,-359.88 410.69,-350.77 423.67,-342.16"/>
<polygon fill="#63b8ff" stroke="#63b8ff" points="488.3,-351.39 481.17,-343.56 481.86,-354.13 488.3,-351.39"/>
</a>
</g>
</g>
<!-- Node290 -->
<g id="Node000290" class="node">
<title>Node290</title>
<g id="a_Node000290"><a xlink:href="classjuce_1_1Drawable.html#a1c45ccbc0ceeafdc648d5dd19e5e3993" target="_top" xlink:title=" ">
<polygon fill="white" stroke="#666666" points="332.38,-462.88 208.38,-462.88 208.38,-443.62 332.38,-443.62 332.38,-462.88"/>
<text xml:space="preserve" text-anchor="middle" x="270.38" y="-449.38" font-family="Helvetica,sans-Serif" font-size="10.00">juce::Drawable::Drawable</text>
</a>
</g>
</g>
<!-- Node289&#45;&gt;Node290 -->
<g id="edge24_Node000289_Node000290" class="edge">
<title>Node289&#45;&gt;Node290</title>
<g id="a_edge24_Node000289_Node000290"><a xlink:title=" ">
<path fill="none" stroke="#63b8ff" d="M435.82,-351.16C416.22,-374.15 380.08,-412.56 341,-434.25 334.54,-437.84 327.35,-440.78 320.13,-443.19"/>
<polygon fill="#63b8ff" stroke="#63b8ff" points="438.49,-353.43 442.2,-343.51 433.11,-348.95 438.49,-353.43"/>
</a>
</g>
</g>
<!-- Node200 -->
<g id="Node000200" class="node">
<title>Node200</title>
<g id="a_Node000200"><a xlink:href="structjuce_1_1Slider_1_1Pimpl_1_1PopupDisplayComponent.html#a6a6728184b38c19dcc258928a3270860" target="_top" xlink:title=" ">
<polygon fill="white" stroke="#666666" points="335,-425.12 205.75,-425.12 205.75,-383.38 335,-383.38 335,-425.12"/>
<text xml:space="preserve" text-anchor="start" x="213.75" y="-411.62" font-family="Helvetica,sans-Serif" font-size="10.00">juce::Slider::Pimpl</text>
<text xml:space="preserve" text-anchor="start" x="213.75" y="-400.38" font-family="Helvetica,sans-Serif" font-size="10.00">::PopupDisplayComponent</text>
<text xml:space="preserve" text-anchor="middle" x="270.38" y="-389.12" font-family="Helvetica,sans-Serif" font-size="10.00">::PopupDisplayComponent</text>
</a>
</g>
</g>
<!-- Node289&#45;&gt;Node200 -->
<g id="edge25_Node000289_Node000200" class="edge">
<title>Node289&#45;&gt;Node200</title>
<g id="a_edge25_Node000289_Node000200"><a xlink:title=" ">
<path fill="none" stroke="#63b8ff" d="M415.64,-346.46C389.66,-356.87 353.97,-371.17 324.58,-382.94"/>
<polygon fill="#63b8ff" stroke="#63b8ff" points="416.74,-349.79 424.73,-342.82 414.14,-343.29 416.74,-349.79"/>
</a>
</g>
</g>
<!-- Node291 -->
<g id="Node000291" class="node">
<title>Node291</title>
<g id="a_Node000291"><a xlink:href="classjuce_1_1DrawableComposite.html#af67ee81dbcda595357d71b436f5ca56a" target="_top" xlink:title=" ">
<polygon fill="#fff0f0" stroke="red" points="333.12,-347.5 207.62,-347.5 207.62,-317 333.12,-317 333.12,-347.5"/>
<text xml:space="preserve" text-anchor="start" x="215.62" y="-334" font-family="Helvetica,sans-Serif" font-size="10.00">juce::DrawableComposite</text>
<text xml:space="preserve" text-anchor="middle" x="270.38" y="-322.75" font-family="Helvetica,sans-Serif" font-size="10.00">::setBoundingBox</text>
</a>
</g>
</g>
<!-- Node289&#45;&gt;Node291 -->
<g id="edge27_Node000289_Node000291" class="edge">
<title>Node289&#45;&gt;Node291</title>
<g id="a_edge27_Node000289_Node000291"><a xlink:title=" ">
<path fill="none" stroke="#63b8ff" d="M365.5,-332.25C354.69,-332.25 343.79,-332.25 333.44,-332.25"/>
<polygon fill="#63b8ff" stroke="#63b8ff" points="365.2,-335.75 375.2,-332.25 365.2,-328.75 365.2,-335.75"/>
</a>
</g>
</g>
<!-- Node295 -->
<g id="Node000295" class="node">
<title>Node295</title>
<g id="a_Node000295"><a xlink:href="classjuce_1_1DrawableImage.html#a4a76aa8261dca4733b772b9c2aaa323c" target="_top" xlink:title=" ">
<polygon fill="#fff0f0" stroke="red" points="323.38,-280.5 217.38,-280.5 217.38,-250 323.38,-250 323.38,-280.5"/>
<text xml:space="preserve" text-anchor="start" x="225.38" y="-267" font-family="Helvetica,sans-Serif" font-size="10.00">juce::DrawableImage</text>
<text xml:space="preserve" text-anchor="middle" x="270.38" y="-255.75" font-family="Helvetica,sans-Serif" font-size="10.00">::setBoundingBox</text>
</a>
</g>
</g>
<!-- Node289&#45;&gt;Node295 -->
<g id="edge29_Node000289_Node000295" class="edge">
<title>Node289&#45;&gt;Node295</title>
<g id="a_edge29_Node000289_Node000295"><a xlink:title=" ">
<path fill="none" stroke="#63b8ff" d="M403.33,-318.94C394.52,-316.24 385.44,-313.29 377,-310.25 352.62,-301.47 325.76,-290 305.23,-280.84"/>
<polygon fill="#63b8ff" stroke="#63b8ff" points="402.25,-322.27 412.83,-321.78 404.26,-315.56 402.25,-322.27"/>
</a>
</g>
</g>
<!-- Node297 -->
<g id="Node000297" class="node">
<title>Node297</title>
<g id="a_Node000297"><a xlink:href="classjuce_1_1Drawable.html#a8da637e017b6b70d3a68a1664959415a" target="_top" xlink:title=" ">
<polygon fill="#fff0f0" stroke="red" points="331.62,-213.5 209.12,-213.5 209.12,-183 331.62,-183 331.62,-213.5"/>
<text xml:space="preserve" text-anchor="start" x="217.12" y="-200" font-family="Helvetica,sans-Serif" font-size="10.00">juce::Drawable::setOrigin</text>
<text xml:space="preserve" text-anchor="middle" x="270.38" y="-188.75" font-family="Helvetica,sans-Serif" font-size="10.00">WithOriginalSize</text>
</a>
</g>
</g>
<!-- Node289&#45;&gt;Node297 -->
<g id="edge31_Node000289_Node000297" class="edge">
<title>Node289&#45;&gt;Node297</title>
<g id="a_edge31_Node000289_Node000297"><a xlink:title=" ">
<path fill="none" stroke="#63b8ff" d="M387.56,-317.34C383.81,-315.28 380.25,-312.93 377,-310.25 350.31,-288.25 364.56,-266.58 341,-241.25 330.74,-230.22 317.04,-220.96 304.51,-213.88"/>
<polygon fill="#63b8ff" stroke="#63b8ff" points="385.94,-320.45 396.49,-321.52 388.92,-314.11 385.94,-320.45"/>
</a>
</g>
</g>
<!-- Node298 -->
<g id="Node000298" class="node">
<title>Node298</title>
<g id="a_Node000298"><a xlink:href="classjuce_1_1AudioProcessorEditor.html#a680fceaaa0b313d4a9028d31f1dbd7ae" target="_top" xlink:title=" ">
<polygon fill="white" stroke="#666666" points="336.5,-146.5 204.25,-146.5 204.25,-116 336.5,-116 336.5,-146.5"/>
<text xml:space="preserve" text-anchor="start" x="212.25" y="-133" font-family="Helvetica,sans-Serif" font-size="10.00">juce::AudioProcessorEditor</text>
<text xml:space="preserve" text-anchor="middle" x="270.38" y="-121.75" font-family="Helvetica,sans-Serif" font-size="10.00">::setScaleFactor</text>
</a>
</g>
</g>
<!-- Node289&#45;&gt;Node298 -->
<g id="edge33_Node000289_Node000298" class="edge">
<title>Node289&#45;&gt;Node298</title>
<g id="a_edge33_Node000289_Node000298"><a xlink:title=" ">
<path fill="none" stroke="#63b8ff" d="M384.49,-316.58C381.8,-314.7 379.28,-312.6 377,-310.25 333.45,-265.38 378.25,-224.47 341,-174.25 332.54,-162.84 320.06,-153.78 308,-146.98"/>
<polygon fill="#63b8ff" stroke="#63b8ff" points="382.47,-319.45 392.88,-321.39 385.95,-313.38 382.47,-319.45"/>
</a>
</g>
</g>
<!-- Node299 -->
<g id="Node000299" class="node">
<title>Node299</title>
<g id="a_Node000299"><a xlink:href="classjuce_1_1Drawable.html#ab59ad393c4f007861f87ee813eb6d45f" target="_top" xlink:title=" ">
<polygon fill="#fff0f0" stroke="red" points="341,-79.5 199.75,-79.5 199.75,-49 341,-49 341,-79.5"/>
<text xml:space="preserve" text-anchor="start" x="207.75" y="-66" font-family="Helvetica,sans-Serif" font-size="10.00">juce::Drawable::setTransform</text>
<text xml:space="preserve" text-anchor="middle" x="270.38" y="-54.75" font-family="Helvetica,sans-Serif" font-size="10.00">ToFit</text>
</a>
</g>
</g>
<!-- Node289&#45;&gt;Node299 -->
<g id="edge36_Node000289_Node000299" class="edge">
<title>Node289&#45;&gt;Node299</title>
<g id="a_edge36_Node000289_Node000299"><a xlink:title=" ">
<path fill="none" stroke="#63b8ff" d="M383.44,-316.2C381.12,-314.42 378.96,-312.44 377,-310.25 315.97,-241.9 392.48,-183.05 341,-107.25 333.1,-95.61 320.9,-86.55 308.9,-79.8"/>
<polygon fill="#63b8ff" stroke="#63b8ff" points="381.43,-319.07 391.78,-321.37 385.12,-313.12 381.43,-319.07"/>
</a>
</g>
</g>
<!-- Node291&#45;&gt;Node291 -->
<g id="edge28_Node000291_Node000291" class="edge">
<title>Node291&#45;&gt;Node291</title>
<g id="a_edge28_Node000291_Node000291"><a xlink:title=" ">
<path fill="none" stroke="#63b8ff" d="M300.85,-359.2C295.87,-362.97 285.71,-365.5 270.38,-365.5 242.33,-365.5 231.6,-357.06 238.17,-347.99"/>
<polygon fill="#63b8ff" stroke="#63b8ff" points="304.29,-359.9 302.35,-349.48 297.37,-358.83 304.29,-359.9"/>
</a>
</g>
</g>
<!-- Node295&#45;&gt;Node295 -->
<g id="edge30_Node000295_Node000295" class="edge">
<title>Node295&#45;&gt;Node295</title>
<g id="a_edge30_Node000295_Node000295"><a xlink:title=" ">
<path fill="none" stroke="#63b8ff" d="M300.85,-292.2C295.87,-295.97 285.71,-298.5 270.38,-298.5 242.33,-298.5 231.6,-290.06 238.17,-280.99"/>
<polygon fill="#63b8ff" stroke="#63b8ff" points="304.29,-292.9 302.35,-282.48 297.37,-291.83 304.29,-292.9"/>
</a>
</g>
</g>
<!-- Node297&#45;&gt;Node297 -->
<g id="edge32_Node000297_Node000297" class="edge">
<title>Node297&#45;&gt;Node297</title>
<g id="a_edge32_Node000297_Node000297"><a xlink:title=" ">
<path fill="none" stroke="#63b8ff" d="M300.85,-225.2C295.87,-228.97 285.71,-231.5 270.38,-231.5 242.33,-231.5 231.6,-223.06 238.17,-213.99"/>
<polygon fill="#63b8ff" stroke="#63b8ff" points="304.29,-225.9 302.35,-215.48 297.37,-224.83 304.29,-225.9"/>
</a>
</g>
</g>
<!-- Node298&#45;&gt;Node298 -->
<g id="edge34_Node000298_Node000298" class="edge">
<title>Node298&#45;&gt;Node298</title>
<g id="a_edge34_Node000298_Node000298"><a xlink:title=" ">
<path fill="none" stroke="#63b8ff" d="M300.85,-158.2C295.87,-161.97 285.71,-164.5 270.38,-164.5 242.33,-164.5 231.6,-156.06 238.17,-146.99"/>
<polygon fill="#63b8ff" stroke="#63b8ff" points="304.29,-158.9 302.35,-148.48 297.37,-157.83 304.29,-158.9"/>
</a>
</g>
</g>
<!-- Node299&#45;&gt;Node299 -->
<g id="edge37_Node000299_Node000299" class="edge">
<title>Node299&#45;&gt;Node299</title>
<g id="a_edge37_Node000299_Node000299"><a xlink:title=" ">
<path fill="none" stroke="#63b8ff" d="M300.85,-91.2C295.87,-94.97 285.71,-97.5 270.38,-97.5 242.33,-97.5 231.6,-89.06 238.17,-79.99"/>
<polygon fill="#63b8ff" stroke="#63b8ff" points="304.29,-91.9 302.35,-81.48 297.37,-90.83 304.29,-91.9"/>
</a>
</g>
</g>
<!-- Node300&#45;&gt;Node300 -->
<g id="edge44_Node000300_Node000300" class="edge">
<title>Node300&#45;&gt;Node300</title>
<g id="a_edge44_Node000300_Node000300"><a xlink:title=" ">
<path fill="none" stroke="#63b8ff" d="M663.4,-295.2C658.76,-298.97 649.29,-301.5 635,-301.5 608.87,-301.5 598.86,-293.06 604.99,-283.99"/>
<polygon fill="#63b8ff" stroke="#63b8ff" points="666.84,-295.88 664.8,-285.48 659.91,-294.89 666.84,-295.88"/>
</a>
</g>
</g>
<!-- Node301 -->
<g id="Node000301" class="node">
<title>Node301</title>
<g id="a_Node000301"><a xlink:href="classjuce_1_1TableHeaderComponent.html#a57073f1ea72df297a901f906c8fe42ba" target="_top" xlink:title=" ">
<polygon fill="white" stroke="#666666" points="523.88,-283.5 380.38,-283.5 380.38,-253 523.88,-253 523.88,-283.5"/>
<text xml:space="preserve" text-anchor="start" x="388.38" y="-270" font-family="Helvetica,sans-Serif" font-size="10.00">juce::TableHeaderComponent</text>
<text xml:space="preserve" text-anchor="middle" x="452.12" y="-258.75" font-family="Helvetica,sans-Serif" font-size="10.00">::reactToMenuItem</text>
</a>
</g>
</g>
<!-- Node300&#45;&gt;Node301 -->
<g id="edge39_Node000300_Node000301" class="edge">
<title>Node300&#45;&gt;Node301</title>
<g id="a_edge39_Node000300_Node000301"><a xlink:title=" ">
<path fill="none" stroke="#63b8ff" d="M551.39,-268.25C542.34,-268.25 533.18,-268.25 524.29,-268.25"/>
<polygon fill="#63b8ff" stroke="#63b8ff" points="551.26,-271.75 561.26,-268.25 551.26,-264.75 551.26,-271.75"/>
</a>
</g>
</g>
<!-- Node303 -->
<g id="Node000303" class="node">
<title>Node303</title>
<g id="a_Node000303"><a xlink:href="classjuce_1_1TableHeaderComponent.html#a78a148d12a56ec40a252e5181415ca61" target="_top" xlink:title=" ">
<polygon fill="white" stroke="#666666" points="523.88,-216.5 380.38,-216.5 380.38,-186 523.88,-186 523.88,-216.5"/>
<text xml:space="preserve" text-anchor="start" x="388.38" y="-203" font-family="Helvetica,sans-Serif" font-size="10.00">juce::TableHeaderComponent</text>
<text xml:space="preserve" text-anchor="middle" x="452.12" y="-191.75" font-family="Helvetica,sans-Serif" font-size="10.00">::restoreFromString</text>
</a>
</g>
</g>
<!-- Node300&#45;&gt;Node303 -->
<g id="edge42_Node000300_Node000303" class="edge">
<title>Node300&#45;&gt;Node303</title>
<g id="a_edge42_Node000300_Node000303"><a xlink:title=" ">
<path fill="none" stroke="#63b8ff" d="M578.48,-248.78C573.33,-246.93 568.19,-245.06 563.25,-243.25 540.1,-234.75 514.35,-224.94 493.57,-216.95"/>
<polygon fill="#63b8ff" stroke="#63b8ff" points="577.01,-251.97 587.6,-252.04 579.36,-245.38 577.01,-251.97"/>
</a>
</g>
</g>
<!-- Node301&#45;&gt;Node301 -->
<g id="edge40_Node000301_Node000301" class="edge">
<title>Node301&#45;&gt;Node301</title>
<g id="a_edge40_Node000301_Node000301"><a xlink:title=" ">
<path fill="none" stroke="#63b8ff" d="M482.6,-295.2C477.62,-298.97 467.46,-301.5 452.12,-301.5 424.08,-301.5 413.35,-293.06 419.92,-283.99"/>
<polygon fill="#63b8ff" stroke="#63b8ff" points="486.04,-295.9 484.1,-285.48 479.12,-294.83 486.04,-295.9"/>
</a>
</g>
</g>
<!-- Node302 -->
<g id="Node000302" class="node">
<title>Node302</title>
<g id="a_Node000302"><a xlink:href="classjuce_1_1TableListBox_1_1Header.html#a62edb90104d6ac04b57e560d49494b2c" target="_top" xlink:title=" ">
<polygon fill="white" stroke="#666666" points="336.88,-30.5 203.88,-30.5 203.88,0 336.88,0 336.88,-30.5"/>
<text xml:space="preserve" text-anchor="start" x="211.88" y="-17" font-family="Helvetica,sans-Serif" font-size="10.00">juce::TableListBox</text>
<text xml:space="preserve" text-anchor="middle" x="270.38" y="-5.75" font-family="Helvetica,sans-Serif" font-size="10.00">::Header::reactToMenuItem</text>
</a>
</g>
</g>
<!-- Node301&#45;&gt;Node302 -->
<g id="edge41_Node000301_Node000302" class="edge">
<title>Node301&#45;&gt;Node302</title>
<g id="a_edge41_Node000301_Node000302"><a xlink:title=" ">
<path fill="none" stroke="#63b8ff" d="M379.11,-245.54C378.38,-244.8 377.68,-244.04 377,-243.25 317.24,-173.79 400.09,-110.29 341,-40.25 337.94,-36.62 334.3,-33.51 330.33,-30.86"/>
<polygon fill="#63b8ff" stroke="#63b8ff" points="376.58,-248 386.54,-251.62 381.02,-242.58 376.58,-248"/>
</a>
</g>
</g>
<!-- Node303&#45;&gt;Node303 -->
<g id="edge43_Node000303_Node000303" class="edge">
<title>Node303&#45;&gt;Node303</title>
<g id="a_edge43_Node000303_Node000303"><a xlink:title=" ">
<path fill="none" stroke="#63b8ff" d="M482.6,-228.2C477.62,-231.97 467.46,-234.5 452.12,-234.5 424.08,-234.5 413.35,-226.06 419.92,-216.99"/>
<polygon fill="#63b8ff" stroke="#63b8ff" points="486.04,-228.9 484.1,-218.48 479.12,-227.83 486.04,-228.9"/>
</a>
</g>
</g>
<!-- Node304&#45;&gt;Node304 -->
<g id="edge46_Node000304_Node000304" class="edge">
<title>Node304&#45;&gt;Node304</title>
<g id="a_edge46_Node000304_Node000304"><a xlink:title=" ">
<path fill="none" stroke="#63b8ff" d="M663.4,-228.2C658.76,-231.97 649.29,-234.5 635,-234.5 608.87,-234.5 598.86,-226.06 604.99,-216.99"/>
<polygon fill="#63b8ff" stroke="#63b8ff" points="666.84,-228.88 664.8,-218.48 659.91,-227.89 666.84,-228.88"/>
</a>
</g>
</g>
</g>
</svg>
