<?xml version="1.0" encoding="UTF-8" standalone="no"?>
<!DOCTYPE svg PUBLIC "-//W3C//DTD SVG 1.1//EN"
 "http://www.w3.org/Graphics/SVG/1.1/DTD/svg11.dtd">
<!-- Generated by graphviz version 14.0.2 (0)
 -->
<!-- Title: CarlaEngine::transportRelocate Pages: 1 -->
<!--zoomable 358 -->

<svg id="main" version="1.1" xmlns="http://www.w3.org/2000/svg" xmlns:xlink="http://www.w3.org/1999/xlink" xml:space="preserve" onload="init(evt)">

<style type="text/css"><![CDATA[
.node, .edge {opacity: 0.7;}
.node.selected, .edge.selected {opacity: 1;}
.edge:hover path { stroke: red; }
.edge:hover polygon { stroke: red; fill: red; }
]]></style>

<defs>
  <circle id="rim" cx="0" cy="0" r="7"/>
  <circle id="rim2" cx="0" cy="0" r="3.5"/>
  <g id="zoomPlus">
    <use xlink:href="#rim" fill="#404040"><set attributeName="fill" to="#808080" begin="zoomplus.mouseover" end="zoomplus.mouseout"/></use>
    <path d="M-4,0h8M0,-4v8" fill="none" stroke="white" stroke-width="1.5" pointer-events="none"/>
  </g>
  <g id="zoomMin">
    <use xlink:href="#rim" fill="#404040"><set attributeName="fill" to="#808080" begin="zoomminus.mouseover" end="zoomminus.mouseout"/></use>
    <path d="M-4,0h8" fill="none" stroke="white" stroke-width="1.5" pointer-events="none"/>
  </g>
  <g id="arrowUp" transform="translate(30 24)">
    <use xlink:href="#rim"/>
    <path pointer-events="none" fill="none" stroke="white" stroke-width="1.5" d="M0,-3.0v7 M-2.5,-0.5L0,-3.0L2.5,-0.5"/>
  </g>
  <g id="arrowRight" transform="rotate(90) translate(36 -43)">
    <use xlink:href="#rim"/>
    <path pointer-events="none" fill="none" stroke="white" stroke-width="1.5" d="M0,-3.0v7 M-2.5,-0.5L0,-3.0L2.5,-0.5"/>
  </g>
  <g id="arrowDown" transform="rotate(180) translate(-30 -48)">
    <use xlink:href="#rim"/>
    <path pointer-events="none" fill="none" stroke="white" stroke-width="1.5" d="M0,-3.0v7 M-2.5,-0.5L0,-3.0L2.5,-0.5"/>
  </g>
  <g id="arrowLeft" transform="rotate(270) translate(-36 17)">
    <use xlink:href="#rim"/>
    <path pointer-events="none" fill="none" stroke="white" stroke-width="1.5" d="M0,-3.0v7 M-2.5,-0.5L0,-3.0L2.5,-0.5"/>
  </g>
  <g id="resetDef">
    <use xlink:href="#rim2" fill="#404040"><set attributeName="fill" to="#808080" begin="reset.mouseover" end="reset.mouseout"/></use>
  </g>
</defs>
<script type="application/ecmascript">
var viewWidth = 705;
var viewHeight = 358;
var sectionId = 'dynsection-129';
</script>
<script type="application/ecmascript" xlink:href="svg.min.js"/>
<svg id="graph" class="graph">
<g id="viewport">
<title>CarlaEngine::transportRelocate</title>
<!-- Node1 -->
<g id="Node000001" class="node">
<title>Node1</title>
<g id="a_Node000001"><a xlink:title=" ">
<polygon fill="#999999" stroke="#666666" points="697,-111.25 548.25,-111.25 548.25,-92 697,-92 697,-111.25"/>
<text xml:space="preserve" text-anchor="middle" x="622.62" y="-97.75" font-family="Helvetica,sans-Serif" font-size="10.00">CarlaEngine::transportRelocate</text>
</a>
</g>
</g>
<!-- Node2 -->
<g id="Node000002" class="node">
<title>Node2</title>
<g id="a_Node000002"><a xlink:href="group__CarlaHostAPI.html#ga5031a3e358d7b6ce92ffe40e5b3c8d2b" target="_top" xlink:title=" ">
<polygon fill="white" stroke="#666666" points="487.88,-246.25 367.62,-246.25 367.62,-227 487.88,-227 487.88,-246.25"/>
<text xml:space="preserve" text-anchor="middle" x="427.75" y="-232.75" font-family="Helvetica,sans-Serif" font-size="10.00">carla_transport_relocate</text>
</a>
</g>
</g>
<!-- Node1&#45;&gt;Node2 -->
<g id="edge1_Node000001_Node000002" class="edge">
<title>Node1&#45;&gt;Node2</title>
<g id="a_edge1_Node000001_Node000002"><a xlink:title=" ">
<path fill="none" stroke="#63b8ff" d="M598.11,-118.08C557.71,-146.36 476.29,-203.35 443.22,-226.5"/>
<polygon fill="#63b8ff" stroke="#63b8ff" points="600.02,-121.02 606.2,-112.42 596,-115.29 600.02,-121.02"/>
</a>
</g>
</g>
<!-- Node10 -->
<g id="Node000010" class="node">
<title>Node10</title>
<g id="a_Node000010"><a xlink:href="classCarlaEngine.html#a1f1b34e2e1bd9c44e4a63f41a7d23eef" target="_top" xlink:title=" ">
<polygon fill="white" stroke="#666666" points="512.25,-111.25 343.25,-111.25 343.25,-92 512.25,-92 512.25,-111.25"/>
<text xml:space="preserve" text-anchor="middle" x="427.75" y="-97.75" font-family="Helvetica,sans-Serif" font-size="10.00">CarlaEngine::getCurrentDriverName</text>
</a>
</g>
</g>
<!-- Node1&#45;&gt;Node10 -->
<g id="edge10_Node000001_Node000010" class="edge">
<title>Node1&#45;&gt;Node10</title>
<g id="a_edge10_Node000001_Node000010"><a xlink:title=" ">
<path fill="none" stroke="#63b8ff" d="M536.62,-101.62C528.59,-101.62 520.46,-101.62 512.44,-101.62"/>
<polygon fill="#63b8ff" stroke="#63b8ff" points="536.37,-105.13 546.37,-101.63 536.37,-98.13 536.37,-105.13"/>
</a>
</g>
</g>
<!-- Node53 -->
<g id="Node000053" class="node">
<title>Node53</title>
<g id="a_Node000053"><a xlink:href="classCarlaEngineJack.html#a8357103847d39acd9324e4c0232ed732" target="_top" xlink:title=" ">
<polygon fill="white" stroke="#666666" points="493.5,-49.88 362,-49.88 362,-19.38 493.5,-19.38 493.5,-49.88"/>
<text xml:space="preserve" text-anchor="start" x="370" y="-36.38" font-family="Helvetica,sans-Serif" font-size="10.00">CarlaEngineJack::transport</text>
<text xml:space="preserve" text-anchor="middle" x="427.75" y="-25.12" font-family="Helvetica,sans-Serif" font-size="10.00">Relocate</text>
</a>
</g>
</g>
<!-- Node1&#45;&gt;Node53 -->
<g id="edge20_Node000001_Node000053" class="edge">
<title>Node1&#45;&gt;Node53</title>
<g id="a_edge20_Node000001_Node000053"><a xlink:title=" ">
<path fill="none" stroke="#63b8ff" d="M582.2,-87.93C550.8,-77.02 506.8,-61.74 473.97,-50.33"/>
<polygon fill="#63b8ff" stroke="#63b8ff" points="580.73,-91.12 591.32,-91.1 583.02,-84.51 580.73,-91.12"/>
</a>
</g>
</g>
<!-- Node3 -->
<g id="Node000003" class="node">
<title>Node3</title>
<g id="a_Node000003"><a xlink:href="carla-host_8cpp.html#a3361f8fc2d8cf7fc8d3151855479063c" target="_top" xlink:title=" ">
<polygon fill="white" stroke="#666666" points="299.75,-349.88 185.5,-349.88 185.5,-319.38 299.75,-319.38 299.75,-349.88"/>
<text xml:space="preserve" text-anchor="start" x="193.5" y="-336.38" font-family="Helvetica,sans-Serif" font-size="10.00">handle_carla_transport</text>
<text xml:space="preserve" text-anchor="middle" x="242.62" y="-325.12" font-family="Helvetica,sans-Serif" font-size="10.00">_relocate</text>
</a>
</g>
</g>
<!-- Node2&#45;&gt;Node3 -->
<g id="edge2_Node000002_Node000003" class="edge">
<title>Node2&#45;&gt;Node3</title>
<g id="a_edge2_Node000002_Node000003"><a xlink:title=" ">
<path fill="none" stroke="#63b8ff" d="M402.59,-253.11C378.95,-268.83 341.57,-292.56 307.25,-309.62 300.66,-312.9 293.53,-316.06 286.51,-318.96"/>
<polygon fill="#63b8ff" stroke="#63b8ff" points="404.52,-256.03 410.88,-247.55 400.62,-250.22 404.52,-256.03"/>
</a>
</g>
</g>
<!-- Node5 -->
<g id="Node000005" class="node">
<title>Node5</title>
<g id="a_Node000005"><a xlink:href="classCarlaHostWindow.html#a0dc046a4d0a326577aa3b126a494c37a" target="_top" xlink:title=" ">
<polygon fill="white" stroke="#666666" points="299.75,-300.88 185.5,-300.88 185.5,-270.38 299.75,-270.38 299.75,-300.88"/>
<text xml:space="preserve" text-anchor="start" x="193.5" y="-287.38" font-family="Helvetica,sans-Serif" font-size="10.00">CarlaHostWindow::slot</text>
<text xml:space="preserve" text-anchor="middle" x="242.62" y="-276.12" font-family="Helvetica,sans-Serif" font-size="10.00">_transportBackwards</text>
</a>
</g>
</g>
<!-- Node2&#45;&gt;Node5 -->
<g id="edge4_Node000002_Node000005" class="edge">
<title>Node2&#45;&gt;Node5</title>
<g id="a_edge4_Node000002_Node000005"><a xlink:title=" ">
<path fill="none" stroke="#63b8ff" d="M378.28,-249.6C354.3,-256.01 325.21,-263.8 300.21,-270.48"/>
<polygon fill="#63b8ff" stroke="#63b8ff" points="379.03,-253.02 387.79,-247.05 377.22,-246.25 379.03,-253.02"/>
</a>
</g>
</g>
<!-- Node8 -->
<g id="Node000008" class="node">
<title>Node8</title>
<g id="a_Node000008"><a xlink:href="classCarlaHostWindow.html#a439528d07200eada63e37c0bec23e99b" target="_top" xlink:title=" ">
<polygon fill="white" stroke="#666666" points="299.75,-251.88 185.5,-251.88 185.5,-221.38 299.75,-221.38 299.75,-251.88"/>
<text xml:space="preserve" text-anchor="start" x="193.5" y="-238.38" font-family="Helvetica,sans-Serif" font-size="10.00">CarlaHostWindow::slot</text>
<text xml:space="preserve" text-anchor="middle" x="242.62" y="-227.12" font-family="Helvetica,sans-Serif" font-size="10.00">_transportForwards</text>
</a>
</g>
</g>
<!-- Node2&#45;&gt;Node8 -->
<g id="edge6_Node000002_Node000008" class="edge">
<title>Node2&#45;&gt;Node8</title>
<g id="a_edge6_Node000002_Node000008"><a xlink:title=" ">
<path fill="none" stroke="#63b8ff" d="M355.93,-236.62C337.39,-236.62 317.66,-236.62 299.98,-236.62"/>
<polygon fill="#63b8ff" stroke="#63b8ff" points="355.78,-240.13 365.78,-236.63 355.78,-233.13 355.78,-240.13"/>
</a>
</g>
</g>
<!-- Node9 -->
<g id="Node000009" class="node">
<title>Node9</title>
<g id="a_Node000009"><a xlink:href="classCarlaHostWindow.html#a65c4a956f00b5afe997a7a6abf920ec4" target="_top" xlink:title=" ">
<polygon fill="white" stroke="#666666" points="299.75,-202.88 185.5,-202.88 185.5,-172.38 299.75,-172.38 299.75,-202.88"/>
<text xml:space="preserve" text-anchor="start" x="193.5" y="-189.38" font-family="Helvetica,sans-Serif" font-size="10.00">CarlaHostWindow::slot</text>
<text xml:space="preserve" text-anchor="middle" x="242.62" y="-178.12" font-family="Helvetica,sans-Serif" font-size="10.00">_transportStop</text>
</a>
</g>
</g>
<!-- Node2&#45;&gt;Node9 -->
<g id="edge8_Node000002_Node000009" class="edge">
<title>Node2&#45;&gt;Node9</title>
<g id="a_edge8_Node000002_Node000009"><a xlink:title=" ">
<path fill="none" stroke="#63b8ff" d="M378.28,-223.65C354.3,-217.24 325.21,-209.45 300.21,-202.77"/>
<polygon fill="#63b8ff" stroke="#63b8ff" points="377.22,-227 387.79,-226.2 379.03,-220.23 377.22,-227"/>
</a>
</g>
</g>
<!-- Node4 -->
<g id="Node000004" class="node">
<title>Node4</title>
<g id="a_Node000004"><a xlink:href="rest-server_8cpp.html#a0fc34f49b0e6eaed5e5c3accb409b1d1" target="_top" xlink:title=" ">
<polygon fill="white" stroke="#666666" points="89.5,-344.25 52.5,-344.25 52.5,-325 89.5,-325 89.5,-344.25"/>
<text xml:space="preserve" text-anchor="middle" x="71" y="-330.75" font-family="Helvetica,sans-Serif" font-size="10.00">main</text>
</a>
</g>
</g>
<!-- Node3&#45;&gt;Node4 -->
<g id="edge3_Node000003_Node000004" class="edge">
<title>Node3&#45;&gt;Node4</title>
<g id="a_edge3_Node000003_Node000004"><a xlink:title=" ">
<path fill="none" stroke="#63b8ff" d="M173.66,-334.62C143.22,-334.62 109.77,-334.62 89.84,-334.62"/>
<polygon fill="#63b8ff" stroke="#63b8ff" points="173.63,-338.13 183.63,-334.63 173.63,-331.13 173.63,-338.13"/>
</a>
</g>
</g>
<!-- Node6 -->
<g id="Node000006" class="node">
<title>Node6</title>
<g id="a_Node000006"><a xlink:href="classCarlaHostWindow.html#af94a8f402e673b6872c7f2bf8e02b672" target="_top" xlink:title=" ">
<polygon fill="#fff0f0" stroke="red" points="142,-251.88 0,-251.88 0,-221.38 142,-221.38 142,-251.88"/>
<text xml:space="preserve" text-anchor="start" x="8" y="-238.38" font-family="Helvetica,sans-Serif" font-size="10.00">CarlaHostWindow::CarlaHost</text>
<text xml:space="preserve" text-anchor="middle" x="71" y="-227.12" font-family="Helvetica,sans-Serif" font-size="10.00">Window</text>
</a>
</g>
</g>
<!-- Node5&#45;&gt;Node6 -->
<g id="edge5_Node000005_Node000006" class="edge">
<title>Node5&#45;&gt;Node6</title>
<g id="a_edge5_Node000005_Node000006"><a xlink:title=" ">
<path fill="none" stroke="#63b8ff" d="M176.77,-266.89C160.18,-262.1 142.51,-256.99 126.5,-252.37"/>
<polygon fill="#63b8ff" stroke="#63b8ff" points="175.46,-270.15 186.03,-269.57 177.4,-263.43 175.46,-270.15"/>
</a>
</g>
</g>
<!-- Node8&#45;&gt;Node6 -->
<g id="edge7_Node000008_Node000006" class="edge">
<title>Node8&#45;&gt;Node6</title>
<g id="a_edge7_Node000008_Node000006"><a xlink:title=" ">
<path fill="none" stroke="#63b8ff" d="M173.7,-236.62C163.41,-236.62 152.77,-236.62 142.42,-236.62"/>
<polygon fill="#63b8ff" stroke="#63b8ff" points="173.63,-240.13 183.63,-236.63 173.63,-233.13 173.63,-240.13"/>
</a>
</g>
</g>
<!-- Node9&#45;&gt;Node6 -->
<g id="edge9_Node000009_Node000006" class="edge">
<title>Node9&#45;&gt;Node6</title>
<g id="a_edge9_Node000009_Node000006"><a xlink:title=" ">
<path fill="none" stroke="#63b8ff" d="M176.77,-206.36C160.18,-211.15 142.51,-216.26 126.5,-220.88"/>
<polygon fill="#63b8ff" stroke="#63b8ff" points="177.4,-209.82 186.03,-203.68 175.46,-203.1 177.4,-209.82"/>
</a>
</g>
</g>
<!-- Node10&#45;&gt;Node10 -->
<g id="edge11_Node000010_Node000010" class="edge">
<title>Node10&#45;&gt;Node10</title>
<g id="a_edge11_Node000010_Node000010"><a xlink:title=" ">
<path fill="none" stroke="#63b8ff" d="M461.25,-121.98C457.73,-126.21 446.56,-129.25 427.75,-129.25 395.21,-129.25 385.55,-120.15 398.77,-111.54"/>
<polygon fill="#63b8ff" stroke="#63b8ff" points="464.52,-120.72 457.33,-112.93 458.09,-123.49 464.52,-120.72"/>
</a>
</g>
</g>
<!-- Node11 -->
<g id="Node000011" class="node">
<title>Node11</title>
<g id="a_Node000011"><a xlink:href="classCarlaEngine.html#af1715ed33b66c42cb72eb42c2a03a73f" target="_top" xlink:title=" ">
<polygon fill="white" stroke="#666666" points="303.12,-116.88 182.12,-116.88 182.12,-86.38 303.12,-86.38 303.12,-116.88"/>
<text xml:space="preserve" text-anchor="start" x="190.12" y="-103.38" font-family="Helvetica,sans-Serif" font-size="10.00">CarlaEngine::loadProject</text>
<text xml:space="preserve" text-anchor="middle" x="242.62" y="-92.12" font-family="Helvetica,sans-Serif" font-size="10.00">Internal</text>
</a>
</g>
</g>
<!-- Node10&#45;&gt;Node11 -->
<g id="edge12_Node000010_Node000011" class="edge">
<title>Node10&#45;&gt;Node11</title>
<g id="a_edge12_Node000010_Node000011"><a xlink:title=" ">
<path fill="none" stroke="#63b8ff" d="M331.73,-101.62C322.16,-101.62 312.64,-101.62 303.59,-101.62"/>
<polygon fill="#63b8ff" stroke="#63b8ff" points="331.44,-105.13 341.44,-101.63 331.44,-98.13 331.44,-105.13"/>
</a>
</g>
</g>
<!-- Node35 -->
<g id="Node000035" class="node">
<title>Node35</title>
<g id="a_Node000035"><a xlink:href="classCarlaEngine.html#a771da8f6c73dc91eb4429746157d3ad3" target="_top" xlink:title=" ">
<polygon fill="#fff0f0" stroke="red" points="304.62,-67.88 180.62,-67.88 180.62,-37.38 304.62,-37.38 304.62,-67.88"/>
<text xml:space="preserve" text-anchor="start" x="188.62" y="-54.38" font-family="Helvetica,sans-Serif" font-size="10.00">CarlaEngine::saveProject</text>
<text xml:space="preserve" text-anchor="middle" x="242.62" y="-43.12" font-family="Helvetica,sans-Serif" font-size="10.00">Internal</text>
</a>
</g>
</g>
<!-- Node10&#45;&gt;Node35 -->
<g id="edge18_Node000010_Node000035" class="edge">
<title>Node10&#45;&gt;Node35</title>
<g id="a_edge18_Node000010_Node000035"><a xlink:title=" ">
<path fill="none" stroke="#63b8ff" d="M378.24,-88.64C354.95,-82.41 326.84,-74.89 302.35,-68.34"/>
<polygon fill="#63b8ff" stroke="#63b8ff" points="377.22,-92 387.79,-91.2 379.03,-85.23 377.22,-92"/>
</a>
</g>
</g>
<!-- Node12 -->
<g id="Node000012" class="node">
<title>Node12</title>
<g id="a_Node000012"><a xlink:href="classCarlaEngine.html#a36efccb45856696250e11359b9495b0c" target="_top" xlink:title=" ">
<polygon fill="#fff0f0" stroke="red" points="131.5,-154.25 10.5,-154.25 10.5,-135 131.5,-135 131.5,-154.25"/>
<text xml:space="preserve" text-anchor="middle" x="71" y="-140.75" font-family="Helvetica,sans-Serif" font-size="10.00">CarlaEngine::loadProject</text>
</a>
</g>
</g>
<!-- Node11&#45;&gt;Node12 -->
<g id="edge13_Node000011_Node000012" class="edge">
<title>Node11&#45;&gt;Node12</title>
<g id="a_edge13_Node000011_Node000012"><a xlink:title=" ">
<path fill="none" stroke="#63b8ff" d="M170.79,-119.58C150.67,-124.68 129.47,-130.06 111.9,-134.51"/>
<polygon fill="#63b8ff" stroke="#63b8ff" points="171.52,-123.01 180.35,-117.16 169.8,-116.22 171.52,-123.01"/>
</a>
</g>
</g>
<!-- Node24 -->
<g id="Node000024" class="node">
<title>Node24</title>
<g id="a_Node000024"><a xlink:href="classCarlaEngine.html#a42b525f191ce264fb351e911ea6123a2" target="_top" xlink:title=" ">
<polygon fill="#fff0f0" stroke="red" points="131.5,-50.25 10.5,-50.25 10.5,-31 131.5,-31 131.5,-50.25"/>
<text xml:space="preserve" text-anchor="middle" x="71" y="-36.75" font-family="Helvetica,sans-Serif" font-size="10.00">CarlaEngine::RackGraph</text>
</a>
</g>
</g>
<!-- Node11&#45;&gt;Node24 -->
<g id="edge15_Node000011_Node000024" class="edge">
<title>Node11&#45;&gt;Node24</title>
<g id="a_edge15_Node000011_Node000024"><a xlink:title=" ">
<path fill="none" stroke="#63b8ff" d="M187.13,-82.03C158.15,-71.6 123.72,-59.22 100.11,-50.73"/>
<polygon fill="#63b8ff" stroke="#63b8ff" points="185.92,-85.31 196.52,-85.4 188.29,-78.73 185.92,-85.31"/>
</a>
</g>
</g>
<!-- Node52 -->
<g id="Node000052" class="node">
<title>Node52</title>
<g id="a_Node000052"><a xlink:href="classCarlaEngineNative.html#a1ad526b83cb595c65613a3318b4981f3" target="_top" xlink:title=" ">
<polygon fill="white" stroke="#666666" points="121.38,-116.88 20.62,-116.88 20.62,-86.38 121.38,-86.38 121.38,-116.88"/>
<text xml:space="preserve" text-anchor="start" x="28.62" y="-103.38" font-family="Helvetica,sans-Serif" font-size="10.00">CarlaEngineNative::</text>
<text xml:space="preserve" text-anchor="middle" x="71" y="-92.12" font-family="Helvetica,sans-Serif" font-size="10.00">setState</text>
</a>
</g>
</g>
<!-- Node11&#45;&gt;Node52 -->
<g id="edge17_Node000011_Node000052" class="edge">
<title>Node11&#45;&gt;Node52</title>
<g id="a_edge17_Node000011_Node000052"><a xlink:title=" ">
<path fill="none" stroke="#63b8ff" d="M170.59,-101.62C154.17,-101.62 137.03,-101.62 121.74,-101.62"/>
<polygon fill="#63b8ff" stroke="#63b8ff" points="170.31,-105.13 180.31,-101.63 170.31,-98.13 170.31,-105.13"/>
</a>
</g>
</g>
<!-- Node12&#45;&gt;Node10 -->
<g id="edge14_Node000012_Node000010" class="edge">
<title>Node12&#45;&gt;Node10</title>
<g id="a_edge14_Node000012_Node000010"><a xlink:title=" ">
<path fill="none" stroke="#63b8ff" d="M142.92,-141.08C189.73,-138.2 252.33,-133.33 307.25,-125.62 332.5,-122.08 360.46,-116.56 382.98,-111.7"/>
<polygon fill="#63b8ff" stroke="#63b8ff" points="142.96,-137.57 133.18,-141.66 143.38,-144.56 142.96,-137.57"/>
</a>
</g>
</g>
<!-- Node24&#45;&gt;Node24 -->
<g id="edge16_Node000024_Node000024" class="edge">
<title>Node24&#45;&gt;Node24</title>
<g id="a_edge16_Node000024_Node000024"><a xlink:title=" ">
<path fill="none" stroke="#63b8ff" d="M101.77,-61.32C98.23,-65.37 87.97,-68.25 71,-68.25 40.83,-68.25 31.88,-59.15 44.13,-50.54"/>
<polygon fill="#63b8ff" stroke="#63b8ff" points="105.08,-60.17 98.38,-51.96 98.5,-62.56 105.08,-60.17"/>
</a>
</g>
</g>
<!-- Node35&#45;&gt;Node24 -->
<g id="edge19_Node000035_Node000024" class="edge">
<title>Node35&#45;&gt;Node24</title>
<g id="a_edge19_Node000035_Node000024"><a xlink:title=" ">
<path fill="none" stroke="#63b8ff" d="M169.08,-47.49C156.62,-46.61 143.8,-45.7 131.73,-44.85"/>
<polygon fill="#63b8ff" stroke="#63b8ff" points="168.65,-50.97 178.88,-48.19 169.15,-43.99 168.65,-50.97"/>
</a>
</g>
</g>
<!-- Node54 -->
<g id="Node000054" class="node">
<title>Node54</title>
<g id="a_Node000054"><a xlink:href="classCarlaEngineJack.html#a9c9392d8efda042ae162d44f332f6abf" target="_top" xlink:title=" ">
<polygon fill="white" stroke="#666666" points="307.25,-19.25 178,-19.25 178,0 307.25,0 307.25,-19.25"/>
<text xml:space="preserve" text-anchor="middle" x="242.62" y="-5.75" font-family="Helvetica,sans-Serif" font-size="10.00">CarlaEngineJack::callback</text>
</a>
</g>
</g>
<!-- Node53&#45;&gt;Node54 -->
<g id="edge21_Node000053_Node000054" class="edge">
<title>Node53&#45;&gt;Node54</title>
<g id="a_edge21_Node000053_Node000054"><a xlink:title=" ">
<path fill="none" stroke="#63b8ff" d="M350.38,-24.2C336.14,-22.26 321.39,-20.24 307.57,-18.35"/>
<polygon fill="#63b8ff" stroke="#63b8ff" points="349.79,-27.65 360.17,-25.54 350.74,-20.72 349.79,-27.65"/>
</a>
</g>
</g>
</g>
</svg>

<g id="navigator" transform="translate(0 0)" fill="#404254">
  <rect fill="#f2f5e9" fill-opacity="0.5" stroke="#606060" stroke-width=".5" x="0" y="0" width="60" height="60"/>
  <use id="zoomplus" xlink:href="#zoomPlus" x="17" y="9" onmousedown="handleZoom(evt,'in')"/>
  <use id="zoomminus" xlink:href="#zoomMin" x="42" y="9" onmousedown="handleZoom(evt,'out')"/>
  <use id="reset" xlink:href="#resetDef" x="30" y="36" onmousedown="handleReset()"/>
   <use id="arrowup" xlink:href="#arrowUp" x="0" y="0" onmousedown="handlePan(0,-1)"/>
  <use id="arrowright" xlink:href="#arrowRight" x="0" y="0" onmousedown="handlePan(1,0)"/>
  <use id="arrowdown" xlink:href="#arrowDown" x="0" y="0" onmousedown="handlePan(0,1)"/>
  <use id="arrowleft" xlink:href="#arrowLeft" x="0" y="0" onmousedown="handlePan(-1,0)"/>
</g>
<svg viewBox="0 0 15 15" width="100%" height="30px" preserveAspectRatio="xMaxYMin meet">
 <g id="arrow_out" transform="scale(0.3 0.3)">
  <a xlink:href="classCarlaEngine_a323ebf1dcb825572f6765a0352387a79_icgraph_org.svg" target="_base">
   <rect id="button" ry="5" rx="5" y="6" x="6" height="38" width="38"
        fill="#f2f5e9" fill-opacity="0.5" stroke="#606060" stroke-width="1.0"/>
   <path id="arrow"
     d="M 11.500037,31.436501 C 11.940474,20.09759 22.043105,11.32322 32.158766,21.979434 L 37.068811,17.246167 C 37.068811,17.246167 37.088388,32 37.088388,32 L 22.160133,31.978069 C 22.160133,31.978069 26.997745,27.140456 26.997745,27.140456 C 18.528582,18.264221 13.291696,25.230495 11.500037,31.436501 z"
     style="fill:#404040;"/>
  </a>
 </g>
</svg>

<style type='text/css'>
<![CDATA[
[data-mouse-over-selected='false'] { opacity: 0.7; }
[data-mouse-over-selected='true']  { opacity: 1.0; }
]]>
</style>
<script type="application/ecmascript"><![CDATA[
document.addEventListener('DOMContentLoaded', (event) => {
  highlightEdges();
  highlightAdjacentNodes();
});
]]></script>
</svg>
