<?xml version="1.0" encoding="UTF-8" standalone="no"?>
<!DOCTYPE svg PUBLIC "-//W3C//DTD SVG 1.1//EN"
 "http://www.w3.org/Graphics/SVG/1.1/DTD/svg11.dtd">
<!-- Generated by graphviz version 14.0.2 (0)
 -->
<!-- Title: JackEngine::_errorCallback Pages: 1 -->
<svg width="612pt" height="101pt"
 viewBox="0.00 0.00 612.00 101.00" xmlns="http://www.w3.org/2000/svg" xmlns:xlink="http://www.w3.org/1999/xlink">
<g id="graph0" class="graph" transform="scale(1 1) rotate(0) translate(4 97.25)">
<title>JackEngine::_errorCallback</title>
<!-- Node1 -->
<g id="Node000001" class="node">
<title>Node1</title>
<g id="a_Node000001"><a xlink:title=" ">
<polygon fill="#999999" stroke="#666666" points="604,-55.25 471,-55.25 471,-36 604,-36 604,-55.25"/>
<text xml:space="preserve" text-anchor="middle" x="537.5" y="-41.75" font-family="Helvetica,sans-Serif" font-size="10.00">JackEngine::_errorCallback</text>
</a>
</g>
</g>
<!-- Node2 -->
<g id="Node000002" class="node">
<title>Node2</title>
<g id="a_Node000002"><a xlink:href="classJackEngine.html#a22fda9695dc5b71489fcfb0da4edf484" target="_top" xlink:title=" ">
<polygon fill="white" stroke="#666666" points="435,-55.25 308.75,-55.25 308.75,-36 435,-36 435,-55.25"/>
<text xml:space="preserve" text-anchor="middle" x="371.88" y="-41.75" font-family="Helvetica,sans-Serif" font-size="10.00">JackEngine::connectJack</text>
</a>
</g>
</g>
<!-- Node1&#45;&gt;Node2 -->
<g id="edge1_Node000001_Node000002" class="edge">
<title>Node1&#45;&gt;Node2</title>
<g id="a_edge1_Node000001_Node000002"><a xlink:title=" ">
<path fill="none" stroke="#63b8ff" d="M459.5,-45.62C451.4,-45.62 443.23,-45.62 435.31,-45.62"/>
<polygon fill="#63b8ff" stroke="#63b8ff" points="459.38,-49.13 469.38,-45.63 459.38,-42.13 459.38,-49.13"/>
</a>
</g>
</g>
<!-- Node3 -->
<g id="Node000003" class="node">
<title>Node3</title>
<g id="a_Node000003"><a xlink:href="classJackEngine.html#ab3bd222b1e97835e629a265a65c78fa7" target="_top" xlink:title=" ">
<polygon fill="white" stroke="#666666" points="272.75,-74.25 156.25,-74.25 156.25,-55 272.75,-55 272.75,-74.25"/>
<text xml:space="preserve" text-anchor="middle" x="214.5" y="-60.75" font-family="Helvetica,sans-Serif" font-size="10.00">JackEngine::openAudio</text>
</a>
</g>
</g>
<!-- Node2&#45;&gt;Node3 -->
<g id="edge2_Node000002_Node000003" class="edge">
<title>Node2&#45;&gt;Node3</title>
<g id="a_edge2_Node000002_Node000003"><a xlink:title=" ">
<path fill="none" stroke="#63b8ff" d="M297.38,-54.61C289.12,-55.62 280.8,-56.64 272.78,-57.62"/>
<polygon fill="#63b8ff" stroke="#63b8ff" points="297.57,-58.12 307.07,-53.43 296.72,-51.17 297.57,-58.12"/>
</a>
</g>
</g>
<!-- Node6 -->
<g id="Node000006" class="node">
<title>Node6</title>
<g id="a_Node000006"><a xlink:href="classJackEngine.html#afea0ff43e2a9657506128fee0f050cd2" target="_top" xlink:title=" ">
<polygon fill="white" stroke="#666666" points="269.38,-37.25 159.62,-37.25 159.62,-18 269.38,-18 269.38,-37.25"/>
<text xml:space="preserve" text-anchor="middle" x="214.5" y="-23.75" font-family="Helvetica,sans-Serif" font-size="10.00">JackEngine::openMidi</text>
</a>
</g>
</g>
<!-- Node2&#45;&gt;Node6 -->
<g id="edge5_Node000002_Node000006" class="edge">
<title>Node2&#45;&gt;Node6</title>
<g id="a_edge5_Node000002_Node000006"><a xlink:title=" ">
<path fill="none" stroke="#63b8ff" d="M297.33,-37.11C288.06,-36.03 278.7,-34.95 269.8,-33.92"/>
<polygon fill="#63b8ff" stroke="#63b8ff" points="296.73,-40.56 307.07,-38.23 297.54,-33.61 296.73,-40.56"/>
</a>
</g>
</g>
<!-- Node4 -->
<g id="Node000004" class="node">
<title>Node4</title>
<g id="a_Node000004"><a xlink:href="classJackEngine.html#a24a9b3ba94257de6a58d48dcc886731a" target="_top" xlink:title=" ">
<polygon fill="white" stroke="#666666" points="120.25,-93.25 0,-93.25 0,-74 120.25,-74 120.25,-93.25"/>
<text xml:space="preserve" text-anchor="middle" x="60.12" y="-79.75" font-family="Helvetica,sans-Serif" font-size="10.00">JackEngine::setAudioEn</text>
</a>
</g>
</g>
<!-- Node3&#45;&gt;Node4 -->
<g id="edge3_Node000003_Node000004" class="edge">
<title>Node3&#45;&gt;Node4</title>
<g id="a_edge3_Node000003_Node000004"><a xlink:title=" ">
<path fill="none" stroke="#63b8ff" d="M144.65,-73.21C136.62,-74.21 128.48,-75.23 120.59,-76.21"/>
<polygon fill="#63b8ff" stroke="#63b8ff" points="144.9,-76.71 154.39,-72 144.04,-69.76 144.9,-76.71"/>
</a>
</g>
</g>
<!-- Node5 -->
<g id="Node000005" class="node">
<title>Node5</title>
<g id="a_Node000005"><a xlink:href="classJackEngine.html#acf5614544e3b9ef4fa0535fbdeae4326" target="_top" xlink:title=" ">
<polygon fill="white" stroke="#666666" points="106,-56.25 14.25,-56.25 14.25,-37 106,-37 106,-56.25"/>
<text xml:space="preserve" text-anchor="middle" x="60.12" y="-42.75" font-family="Helvetica,sans-Serif" font-size="10.00">JackEngine::Start</text>
</a>
</g>
</g>
<!-- Node3&#45;&gt;Node5 -->
<g id="edge4_Node000003_Node000005" class="edge">
<title>Node3&#45;&gt;Node5</title>
<g id="a_edge4_Node000003_Node000005"><a xlink:title=" ">
<path fill="none" stroke="#63b8ff" d="M144.63,-56.49C131.69,-54.96 118.46,-53.4 106.47,-51.98"/>
<polygon fill="#63b8ff" stroke="#63b8ff" points="144.05,-59.95 154.39,-57.64 144.87,-52.99 144.05,-59.95"/>
</a>
</g>
</g>
<!-- Node6&#45;&gt;Node5 -->
<g id="edge7_Node000006_Node000005" class="edge">
<title>Node6&#45;&gt;Node5</title>
<g id="a_edge7_Node000006_Node000005"><a xlink:title=" ">
<path fill="none" stroke="#63b8ff" d="M148.12,-35.78C133.93,-37.55 119.24,-39.38 106.05,-41.02"/>
<polygon fill="#63b8ff" stroke="#63b8ff" points="148.36,-39.27 157.85,-34.56 147.49,-32.33 148.36,-39.27"/>
</a>
</g>
</g>
<!-- Node7 -->
<g id="Node000007" class="node">
<title>Node7</title>
<g id="a_Node000007"><a xlink:href="classJackEngine.html#a9fb3b5cff8df9850cd893e059433ec60" target="_top" xlink:title=" ">
<polygon fill="white" stroke="#666666" points="116.88,-19.25 3.38,-19.25 3.38,0 116.88,0 116.88,-19.25"/>
<text xml:space="preserve" text-anchor="middle" x="60.12" y="-5.75" font-family="Helvetica,sans-Serif" font-size="10.00">JackEngine::setMidiEn</text>
</a>
</g>
</g>
<!-- Node6&#45;&gt;Node7 -->
<g id="edge6_Node000006_Node000007" class="edge">
<title>Node6&#45;&gt;Node7</title>
<g id="a_edge6_Node000006_Node000007"><a xlink:title=" ">
<path fill="none" stroke="#63b8ff" d="M147.93,-19.88C137.68,-18.67 127.17,-17.43 117.16,-16.24"/>
<polygon fill="#63b8ff" stroke="#63b8ff" points="147.5,-23.35 157.85,-21.05 148.33,-16.4 147.5,-23.35"/>
</a>
</g>
</g>
</g>
</svg>
