<?xml version="1.0" encoding="UTF-8" standalone="no"?>
<!DOCTYPE svg PUBLIC "-//W3C//DTD SVG 1.1//EN"
 "http://www.w3.org/Graphics/SVG/1.1/DTD/svg11.dtd">
<!-- Generated by graphviz version 14.0.2 (0)
 -->
<!-- Title: water::MidiMessage::allocateSpace Pages: 1 -->
<svg width="249pt" height="186pt"
 viewBox="0.00 0.00 249.00 186.00" xmlns="http://www.w3.org/2000/svg" xmlns:xlink="http://www.w3.org/1999/xlink">

<svg id="main" version="1.1" xmlns="http://www.w3.org/2000/svg" xmlns:xlink="http://www.w3.org/1999/xlink" xml:space="preserve">

<style type="text/css"><![CDATA[
.node, .edge {opacity: 0.7;}
.node.selected, .edge.selected {opacity: 1;}
.edge:hover path { stroke: red; }
.edge:hover polygon { stroke: red; fill: red; }
]]></style>
<script type="application/ecmascript" xlink:href="svg.min.js"/>
<svg id="graph" class="graph">
<g id="graph0" class="graph" transform="scale(1 1) rotate(0) translate(4 181.5)">
<title>water::MidiMessage::allocateSpace</title>
<!-- Node1 -->
<g id="Node000001" class="node">
<title>Node1</title>
<g id="a_Node000001"><a xlink:title=" ">
<polygon fill="#999999" stroke="#666666" points="240.5,-103.5 138.25,-103.5 138.25,-73 240.5,-73 240.5,-103.5"/>
<text xml:space="preserve" text-anchor="start" x="146.25" y="-90" font-family="Helvetica,sans-Serif" font-size="10.00">water::MidiMessage</text>
<text xml:space="preserve" text-anchor="middle" x="189.38" y="-78.75" font-family="Helvetica,sans-Serif" font-size="10.00">::allocateSpace</text>
</a>
</g>
</g>
<!-- Node2 -->
<g id="Node000002" class="node">
<title>Node2</title>
<g id="a_Node000002"><a xlink:href="classwater_1_1MidiMessage.html#a3d04ff067da989b109a4764ca217051b" target="_top" xlink:title=" ">
<polygon fill="white" stroke="#666666" points="102.25,-177.5 0,-177.5 0,-147 102.25,-147 102.25,-177.5"/>
<text xml:space="preserve" text-anchor="start" x="8" y="-164" font-family="Helvetica,sans-Serif" font-size="10.00">water::MidiMessage</text>
<text xml:space="preserve" text-anchor="middle" x="51.12" y="-152.75" font-family="Helvetica,sans-Serif" font-size="10.00">::MidiMessage</text>
</a>
</g>
</g>
<!-- Node1&#45;&gt;Node2 -->
<g id="edge1_Node000001_Node000002" class="edge">
<title>Node1&#45;&gt;Node2</title>
<g id="a_edge1_Node000001_Node000002"><a xlink:title=" ">
<path fill="none" stroke="#63b8ff" d="M152.2,-109.41C136.9,-118.21 118.81,-128.42 102.25,-137.25 96.5,-140.32 90.33,-143.49 84.35,-146.5"/>
<polygon fill="#63b8ff" stroke="#63b8ff" points="153.6,-112.65 160.51,-104.62 150.1,-106.59 153.6,-112.65"/>
</a>
</g>
</g>
<!-- Node3 -->
<g id="Node000003" class="node">
<title>Node3</title>
<g id="a_Node000003"><a xlink:href="classwater_1_1MidiMessage.html#abe824bdc133a7def7becf16e27772a62" target="_top" xlink:title=" ">
<polygon fill="white" stroke="#666666" points="102.25,-128.5 0,-128.5 0,-98 102.25,-98 102.25,-128.5"/>
<text xml:space="preserve" text-anchor="start" x="8" y="-115" font-family="Helvetica,sans-Serif" font-size="10.00">water::MidiMessage</text>
<text xml:space="preserve" text-anchor="middle" x="51.12" y="-103.75" font-family="Helvetica,sans-Serif" font-size="10.00">::MidiMessage</text>
</a>
</g>
</g>
<!-- Node1&#45;&gt;Node3 -->
<g id="edge2_Node000001_Node000003" class="edge">
<title>Node1&#45;&gt;Node3</title>
<g id="a_edge2_Node000001_Node000003"><a xlink:title=" ">
<path fill="none" stroke="#63b8ff" d="M126.78,-99.55C118.73,-101.03 110.56,-102.53 102.72,-103.97"/>
<polygon fill="#63b8ff" stroke="#63b8ff" points="127.33,-103.01 136.54,-97.76 126.07,-96.12 127.33,-103.01"/>
</a>
</g>
</g>
<!-- Node4 -->
<g id="Node000004" class="node">
<title>Node4</title>
<g id="a_Node000004"><a xlink:href="classwater_1_1MidiMessage.html#af0acc7b11cb30e0cca3d59f689530ef0" target="_top" xlink:title=" ">
<polygon fill="white" stroke="#666666" points="102.25,-79.5 0,-79.5 0,-49 102.25,-49 102.25,-79.5"/>
<text xml:space="preserve" text-anchor="start" x="8" y="-66" font-family="Helvetica,sans-Serif" font-size="10.00">water::MidiMessage</text>
<text xml:space="preserve" text-anchor="middle" x="51.12" y="-54.75" font-family="Helvetica,sans-Serif" font-size="10.00">::MidiMessage</text>
</a>
</g>
</g>
<!-- Node1&#45;&gt;Node4 -->
<g id="edge3_Node000001_Node000004" class="edge">
<title>Node1&#45;&gt;Node4</title>
<g id="a_edge3_Node000001_Node000004"><a xlink:title=" ">
<path fill="none" stroke="#63b8ff" d="M126.78,-77.4C118.73,-75.98 110.56,-74.54 102.72,-73.16"/>
<polygon fill="#63b8ff" stroke="#63b8ff" points="126.08,-80.83 136.54,-79.12 127.3,-73.94 126.08,-80.83"/>
</a>
</g>
</g>
<!-- Node5 -->
<g id="Node000005" class="node">
<title>Node5</title>
<g id="a_Node000005"><a xlink:href="classwater_1_1MidiMessage.html#ac373e234df8c459f1047cd0d4f854a58" target="_top" xlink:title=" ">
<polygon fill="white" stroke="#666666" points="102.25,-30.5 0,-30.5 0,0 102.25,0 102.25,-30.5"/>
<text xml:space="preserve" text-anchor="start" x="8" y="-17" font-family="Helvetica,sans-Serif" font-size="10.00">water::MidiMessage</text>
<text xml:space="preserve" text-anchor="middle" x="51.12" y="-5.75" font-family="Helvetica,sans-Serif" font-size="10.00">::MidiMessage</text>
</a>
</g>
</g>
<!-- Node1&#45;&gt;Node5 -->
<g id="edge4_Node000001_Node000005" class="edge">
<title>Node1&#45;&gt;Node5</title>
<g id="a_edge4_Node000001_Node000005"><a xlink:title=" ">
<path fill="none" stroke="#63b8ff" d="M151.03,-66.95C135.97,-58.48 118.36,-48.75 102.25,-40.25 96.4,-37.16 90.12,-33.95 84.06,-30.9"/>
<polygon fill="#63b8ff" stroke="#63b8ff" points="149.26,-69.97 159.69,-71.84 152.7,-63.87 149.26,-69.97"/>
</a>
</g>
</g>
</g>
</svg>
</svg>

<style type='text/css'>
<![CDATA[
[data-mouse-over-selected='false'] { opacity: 0.7; }
[data-mouse-over-selected='true']  { opacity: 1.0; }
]]>
</style>
<script type="application/ecmascript"><![CDATA[
document.addEventListener('DOMContentLoaded', (event) => {
  highlightEdges();
  highlightAdjacentNodes();
});
]]></script>
</svg>
