<?xml version="1.0" encoding="UTF-8" standalone="no"?>
<!DOCTYPE svg PUBLIC "-//W3C//DTD SVG 1.1//EN"
 "http://www.w3.org/Graphics/SVG/1.1/DTD/svg11.dtd">
<!-- Generated by graphviz version 14.0.2 (0)
 -->
<!-- Title: juce::PixelRGB::getNativeARGB Pages: 1 -->
<svg width="562pt" height="51pt"
 viewBox="0.00 0.00 562.00 51.00" xmlns="http://www.w3.org/2000/svg" xmlns:xlink="http://www.w3.org/1999/xlink">
<g id="graph0" class="graph" transform="scale(1 1) rotate(0) translate(4 46.88)">
<title>juce::PixelRGB::getNativeARGB</title>
<!-- Node1 -->
<g id="Node000001" class="node">
<title>Node1</title>
<g id="a_Node000001"><a xlink:title=" ">
<polygon fill="#999999" stroke="#666666" points="554.25,-24.88 399.5,-24.88 399.5,-5.63 554.25,-5.63 554.25,-24.88"/>
<text xml:space="preserve" text-anchor="middle" x="476.88" y="-11.38" font-family="Helvetica,sans-Serif" font-size="10.00">juce::PixelRGB::getNativeARGB</text>
</a>
</g>
</g>
<!-- Node1&#45;&gt;Node1 -->
<g id="edge3_Node000001_Node000001" class="edge">
<title>Node1&#45;&gt;Node1</title>
<g id="a_edge3_Node000001_Node000001"><a xlink:title=" ">
<path fill="none" stroke="#63b8ff" d="M511.73,-35.6C508.07,-39.83 496.45,-42.88 476.88,-42.88 443.02,-42.88 432.96,-33.77 446.72,-25.16"/>
<polygon fill="#63b8ff" stroke="#63b8ff" points="514.95,-34.23 507.65,-26.54 508.56,-37.1 514.95,-34.23"/>
</a>
</g>
</g>
<!-- Node2 -->
<g id="Node000002" class="node">
<title>Node2</title>
<g id="a_Node000002"><a xlink:href="classjuce_1_1PixelRGB.html#a34a278c8042024bd01ad65b779bc1330" target="_top" xlink:title=" ">
<polygon fill="white" stroke="#666666" points="363.5,-30.5 205,-30.5 205,0 363.5,0 363.5,-30.5"/>
<text xml:space="preserve" text-anchor="start" x="213" y="-17" font-family="Helvetica,sans-Serif" font-size="10.00">juce::PixelRGB::getInARGBMask</text>
<text xml:space="preserve" text-anchor="middle" x="284.25" y="-5.75" font-family="Helvetica,sans-Serif" font-size="10.00">Order</text>
</a>
</g>
</g>
<!-- Node1&#45;&gt;Node2 -->
<g id="edge1_Node000001_Node000002" class="edge">
<title>Node1&#45;&gt;Node2</title>
<g id="a_edge1_Node000001_Node000002"><a xlink:title=" ">
<path fill="none" stroke="#63b8ff" d="M387.66,-15.25C379.76,-15.25 371.79,-15.25 363.98,-15.25"/>
<polygon fill="#63b8ff" stroke="#63b8ff" points="387.65,-18.75 397.65,-15.25 387.65,-11.75 387.65,-18.75"/>
</a>
</g>
</g>
<!-- Node3 -->
<g id="Node000003" class="node">
<title>Node3</title>
<g id="a_Node000003"><a xlink:href="classjuce_1_1PixelRGB.html#ab3c5b57ce07470715e57bba10af9f03d" target="_top" xlink:title=" ">
<polygon fill="white" stroke="#666666" points="169,-30.5 0,-30.5 0,0 169,0 169,-30.5"/>
<text xml:space="preserve" text-anchor="start" x="8" y="-17" font-family="Helvetica,sans-Serif" font-size="10.00">juce::PixelRGB::getInARGBMemory</text>
<text xml:space="preserve" text-anchor="middle" x="84.5" y="-5.75" font-family="Helvetica,sans-Serif" font-size="10.00">Order</text>
</a>
</g>
</g>
<!-- Node2&#45;&gt;Node3 -->
<g id="edge2_Node000002_Node000003" class="edge">
<title>Node2&#45;&gt;Node3</title>
<g id="a_edge2_Node000002_Node000003"><a xlink:title=" ">
<path fill="none" stroke="#63b8ff" d="M193.08,-15.25C185.22,-15.25 177.28,-15.25 169.47,-15.25"/>
<polygon fill="#63b8ff" stroke="#63b8ff" points="193.01,-18.75 203.01,-15.25 193.01,-11.75 193.01,-18.75"/>
</a>
</g>
</g>
</g>
</svg>
