<?xml version="1.0" encoding="UTF-8" standalone="no"?>
<!DOCTYPE svg PUBLIC "-//W3C//DTD SVG 1.1//EN"
 "http://www.w3.org/Graphics/SVG/1.1/DTD/svg11.dtd">
<!-- Generated by graphviz version 14.0.2 (0)
 -->
<!-- Title: Jack::JackEngine::NotifyClientXRun Pages: 1 -->
<svg width="904pt" height="254pt"
 viewBox="0.00 0.00 904.00 254.00" xmlns="http://www.w3.org/2000/svg" xmlns:xlink="http://www.w3.org/1999/xlink">
<g id="graph0" class="graph" transform="scale(1 1) rotate(0) translate(4 249.88)">
<title>Jack::JackEngine::NotifyClientXRun</title>
<!-- Node1 -->
<g id="Node000001" class="node">
<title>Node1</title>
<g id="a_Node000001"><a xlink:title=" ">
<polygon fill="#999999" stroke="#666666" points="121.75,-71.88 0,-71.88 0,-41.38 121.75,-41.38 121.75,-71.88"/>
<text xml:space="preserve" text-anchor="start" x="8" y="-58.38" font-family="Helvetica,sans-Serif" font-size="10.00">Jack::JackEngine::Notify</text>
<text xml:space="preserve" text-anchor="middle" x="60.88" y="-47.12" font-family="Helvetica,sans-Serif" font-size="10.00">ClientXRun</text>
</a>
</g>
</g>
<!-- Node2 -->
<g id="Node000002" class="node">
<title>Node2</title>
<g id="a_Node000002"><a xlink:href="classJack_1_1JackEngine.html#afbd2b3b0c684fcaebcbf72606e5038ae" target="_top" xlink:title=" ">
<polygon fill="white" stroke="#666666" points="437.25,-93.88 315.5,-93.88 315.5,-63.38 437.25,-63.38 437.25,-93.88"/>
<text xml:space="preserve" text-anchor="start" x="323.5" y="-80.38" font-family="Helvetica,sans-Serif" font-size="10.00">Jack::JackEngine::Notify</text>
<text xml:space="preserve" text-anchor="middle" x="376.38" y="-69.12" font-family="Helvetica,sans-Serif" font-size="10.00">Client</text>
</a>
</g>
</g>
<!-- Node1&#45;&gt;Node2 -->
<g id="edge1_Node000001_Node000002" class="edge">
<title>Node1&#45;&gt;Node2</title>
<g id="a_edge1_Node000001_Node000002"><a xlink:title=" ">
<path fill="none" stroke="#63b8ff" d="M121.95,-60.84C173.82,-64.48 248.86,-69.75 303.83,-73.6"/>
<polygon fill="#63b8ff" stroke="#63b8ff" points="303.51,-77.09 313.73,-74.3 304,-70.11 303.51,-77.09"/>
</a>
</g>
</g>
<!-- Node12 -->
<g id="Node000012" class="node">
<title>Node12</title>
<g id="a_Node000012"><a xlink:href="classJack_1_1JackEngine.html#a1d8c43d14122ccbaf99159a21fb8a4e0" target="_top" xlink:title=" ">
<polygon fill="white" stroke="#666666" points="279.5,-50.88 157.75,-50.88 157.75,-20.38 279.5,-20.38 279.5,-50.88"/>
<text xml:space="preserve" text-anchor="start" x="165.75" y="-37.38" font-family="Helvetica,sans-Serif" font-size="10.00">Jack::JackEngine::Notify</text>
<text xml:space="preserve" text-anchor="middle" x="218.62" y="-26.12" font-family="Helvetica,sans-Serif" font-size="10.00">Clients</text>
</a>
</g>
</g>
<!-- Node1&#45;&gt;Node12 -->
<g id="edge13_Node000001_Node000012" class="edge">
<title>Node1&#45;&gt;Node12</title>
<g id="a_edge13_Node000001_Node000012"><a xlink:title=" ">
<path fill="none" stroke="#63b8ff" d="M122.09,-48.51C129.95,-47.45 138.05,-46.35 146.07,-45.27"/>
<polygon fill="#63b8ff" stroke="#63b8ff" points="146.37,-48.76 155.81,-43.96 145.43,-41.83 146.37,-48.76"/>
</a>
</g>
</g>
<!-- Node3 -->
<g id="Node000003" class="node">
<title>Node3</title>
<g id="a_Node000003"><a xlink:href="testSem_8cpp.html#a5cbf99e8849f2e3ea613ea0a2df2f272" target="_top" xlink:title=" ">
<polygon fill="white" stroke="#666666" points="701.75,-191.25 662.5,-191.25 662.5,-172 701.75,-172 701.75,-191.25"/>
<text xml:space="preserve" text-anchor="middle" x="682.12" y="-177.75" font-family="Helvetica,sans-Serif" font-size="10.00">client</text>
</a>
</g>
</g>
<!-- Node2&#45;&gt;Node3 -->
<g id="edge2_Node000002_Node000003" class="edge">
<title>Node2&#45;&gt;Node3</title>
<g id="a_edge2_Node000002_Node000003"><a xlink:title=" ">
<path fill="none" stroke="#63b8ff" d="M407.48,-94.34C426.09,-103.65 450.67,-115.24 473.25,-123.62 535.11,-146.59 610.24,-165.41 651.1,-174.92"/>
<polygon fill="#63b8ff" stroke="#63b8ff" points="650.15,-178.29 660.68,-177.11 651.72,-171.47 650.15,-178.29"/>
</a>
</g>
</g>
<!-- Node7 -->
<g id="Node000007" class="node">
<title>Node7</title>
<g id="a_Node000007"><a xlink:href="classJack_1_1JackEngine.html#ab9c02ae76d51a60d78d7c70f663cf8bb" target="_top" xlink:title=" ">
<polygon fill="white" stroke="#666666" points="594.25,-114.88 473.25,-114.88 473.25,-84.38 594.25,-84.38 594.25,-114.88"/>
<text xml:space="preserve" text-anchor="start" x="481.25" y="-101.38" font-family="Helvetica,sans-Serif" font-size="10.00">Jack::JackEngine::Client</text>
<text xml:space="preserve" text-anchor="middle" x="533.75" y="-90.12" font-family="Helvetica,sans-Serif" font-size="10.00">Notify</text>
</a>
</g>
</g>
<!-- Node2&#45;&gt;Node7 -->
<g id="edge6_Node000002_Node000007" class="edge">
<title>Node2&#45;&gt;Node7</title>
<g id="a_edge6_Node000002_Node000007"><a xlink:title=" ">
<path fill="none" stroke="#63b8ff" d="M437.45,-86.74C445.34,-87.81 453.49,-88.91 461.55,-90"/>
<polygon fill="#63b8ff" stroke="#63b8ff" points="460.96,-93.45 471.34,-91.32 461.9,-86.52 460.96,-93.45"/>
</a>
</g>
</g>
<!-- Node10 -->
<g id="Node000010" class="node">
<title>Node10</title>
<g id="a_Node000010"><a xlink:href="adplugdb_8cpp.html#afadda4184a4f0275271a46b2b0cc7f8b" target="_top" xlink:title=" ">
<polygon fill="white" stroke="#666666" points="710,-19.25 654.25,-19.25 654.25,0 710,0 710,-19.25"/>
<text xml:space="preserve" text-anchor="middle" x="682.12" y="-5.75" font-family="Helvetica,sans-Serif" font-size="10.00">message</text>
</a>
</g>
</g>
<!-- Node2&#45;&gt;Node10 -->
<g id="edge12_Node000002_Node000010" class="edge">
<title>Node2&#45;&gt;Node10</title>
<g id="a_edge12_Node000002_Node000010"><a xlink:title=" ">
<path fill="none" stroke="#63b8ff" d="M437.75,-64.91C498.87,-51.03 591.52,-29.98 643.08,-18.27"/>
<polygon fill="#63b8ff" stroke="#63b8ff" points="643.59,-21.74 652.57,-16.11 642.04,-14.91 643.59,-21.74"/>
</a>
</g>
</g>
<!-- Node4 -->
<g id="Node000004" class="node">
<title>Node4</title>
<g id="a_Node000004"><a xlink:href="classJack_1_1detail_1_1JackSynchro.html#af1e9982635110dde560d91082679f1b0" target="_top" xlink:title=" ">
<polygon fill="white" stroke="#666666" points="895.5,-245.88 770,-245.88 770,-215.38 895.5,-215.38 895.5,-245.88"/>
<text xml:space="preserve" text-anchor="start" x="778" y="-232.38" font-family="Helvetica,sans-Serif" font-size="10.00">Jack::detail::JackSynchro</text>
<text xml:space="preserve" text-anchor="middle" x="832.75" y="-221.12" font-family="Helvetica,sans-Serif" font-size="10.00">::Connect</text>
</a>
</g>
</g>
<!-- Node3&#45;&gt;Node4 -->
<g id="edge3_Node000003_Node000004" class="edge">
<title>Node3&#45;&gt;Node4</title>
<g id="a_edge3_Node000003_Node000004"><a xlink:title=" ">
<path fill="none" stroke="#63b8ff" d="M701.95,-187.83C719.92,-193.76 747.96,-203 773.39,-211.38"/>
<polygon fill="#63b8ff" stroke="#63b8ff" points="772.06,-214.63 782.65,-214.44 774.25,-207.98 772.06,-214.63"/>
</a>
</g>
</g>
<!-- Node5 -->
<g id="Node000005" class="node">
<title>Node5</title>
<g id="a_Node000005"><a xlink:href="classJack_1_1detail_1_1JackSynchro.html#ab8dc6db56bb10b4cfea9625a5c002841" target="_top" xlink:title=" ">
<polygon fill="white" stroke="#666666" points="895.5,-196.88 770,-196.88 770,-166.38 895.5,-166.38 895.5,-196.88"/>
<text xml:space="preserve" text-anchor="start" x="778" y="-183.38" font-family="Helvetica,sans-Serif" font-size="10.00">Jack::detail::JackSynchro</text>
<text xml:space="preserve" text-anchor="middle" x="832.75" y="-172.12" font-family="Helvetica,sans-Serif" font-size="10.00">::Signal</text>
</a>
</g>
</g>
<!-- Node3&#45;&gt;Node5 -->
<g id="edge4_Node000003_Node000005" class="edge">
<title>Node3&#45;&gt;Node5</title>
<g id="a_edge4_Node000003_Node000005"><a xlink:title=" ">
<path fill="none" stroke="#63b8ff" d="M701.95,-181.62C716.45,-181.62 737.5,-181.62 758.44,-181.62"/>
<polygon fill="#63b8ff" stroke="#63b8ff" points="758.17,-185.13 768.17,-181.63 758.17,-178.13 758.17,-185.13"/>
</a>
</g>
</g>
<!-- Node6 -->
<g id="Node000006" class="node">
<title>Node6</title>
<g id="a_Node000006"><a xlink:href="classJack_1_1detail_1_1JackSynchro.html#a8a39f2065be5d07800e2f06e0f2b2f10" target="_top" xlink:title=" ">
<polygon fill="white" stroke="#666666" points="895.5,-147.88 770,-147.88 770,-117.38 895.5,-117.38 895.5,-147.88"/>
<text xml:space="preserve" text-anchor="start" x="778" y="-134.38" font-family="Helvetica,sans-Serif" font-size="10.00">Jack::detail::JackSynchro</text>
<text xml:space="preserve" text-anchor="middle" x="832.75" y="-123.12" font-family="Helvetica,sans-Serif" font-size="10.00">::Wait</text>
</a>
</g>
</g>
<!-- Node3&#45;&gt;Node6 -->
<g id="edge5_Node000003_Node000006" class="edge">
<title>Node3&#45;&gt;Node6</title>
<g id="a_edge5_Node000003_Node000006"><a xlink:title=" ">
<path fill="none" stroke="#63b8ff" d="M701.95,-175.42C719.92,-169.49 747.96,-160.25 773.39,-151.87"/>
<polygon fill="#63b8ff" stroke="#63b8ff" points="774.25,-155.27 782.65,-148.81 772.06,-148.62 774.25,-155.27"/>
</a>
</g>
</g>
<!-- Node7&#45;&gt;Node3 -->
<g id="edge7_Node000007_Node000003" class="edge">
<title>Node7&#45;&gt;Node3</title>
<g id="a_edge7_Node000007_Node000003"><a xlink:title=" ">
<path fill="none" stroke="#63b8ff" d="M554.71,-115.17C573.42,-129.21 602.6,-149.75 630.25,-163.62 636.95,-166.99 644.44,-170.01 651.56,-172.57"/>
<polygon fill="#63b8ff" stroke="#63b8ff" points="650.27,-175.83 660.86,-175.72 652.51,-169.2 650.27,-175.83"/>
</a>
</g>
</g>
<!-- Node8 -->
<g id="Node000008" class="node">
<title>Node8</title>
<g id="a_Node000008"><a xlink:href="group__ControlAPI.html#ga35f69faaee3bb9b958ed8c9a5f62246c" target="_top" xlink:title=" ">
<polygon fill="white" stroke="#666666" points="708.12,-154.25 656.12,-154.25 656.12,-135 708.12,-135 708.12,-154.25"/>
<text xml:space="preserve" text-anchor="middle" x="682.12" y="-140.75" font-family="Helvetica,sans-Serif" font-size="10.00">jack_log</text>
</a>
</g>
</g>
<!-- Node7&#45;&gt;Node8 -->
<g id="edge8_Node000007_Node000008" class="edge">
<title>Node7&#45;&gt;Node8</title>
<g id="a_edge8_Node000007_Node000008"><a xlink:title=" ">
<path fill="none" stroke="#63b8ff" d="M585.94,-115.36C605.38,-121.34 627.09,-128.01 644.87,-133.48"/>
<polygon fill="#63b8ff" stroke="#63b8ff" points="643.61,-136.75 654.2,-136.35 645.67,-130.06 643.61,-136.75"/>
</a>
</g>
</g>
<!-- Node9 -->
<g id="Node000009" class="node">
<title>Node9</title>
<g id="a_Node000009"><a xlink:href="classJack_1_1JackLockAble.html#ade6b57b0ed9d970f402fdbb58c1824bb" target="_top" xlink:title=" ">
<polygon fill="white" stroke="#666666" points="734,-116.88 630.25,-116.88 630.25,-86.38 734,-86.38 734,-116.88"/>
<text xml:space="preserve" text-anchor="start" x="638.25" y="-103.38" font-family="Helvetica,sans-Serif" font-size="10.00">Jack::JackLockAble</text>
<text xml:space="preserve" text-anchor="middle" x="682.12" y="-92.12" font-family="Helvetica,sans-Serif" font-size="10.00">::Lock</text>
</a>
</g>
</g>
<!-- Node7&#45;&gt;Node9 -->
<g id="edge9_Node000007_Node000009" class="edge">
<title>Node7&#45;&gt;Node9</title>
<g id="a_edge9_Node000007_Node000009"><a xlink:title=" ">
<path fill="none" stroke="#63b8ff" d="M594.71,-100.44C602.56,-100.55 610.62,-100.66 618.51,-100.77"/>
<polygon fill="#63b8ff" stroke="#63b8ff" points="618.35,-104.27 628.4,-100.9 618.45,-97.27 618.35,-104.27"/>
</a>
</g>
</g>
<!-- Node7&#45;&gt;Node10 -->
<g id="edge10_Node000007_Node000010" class="edge">
<title>Node7&#45;&gt;Node10</title>
<g id="a_edge10_Node000007_Node000010"><a xlink:title=" ">
<path fill="none" stroke="#63b8ff" d="M570,-83.91C578.31,-79.5 586.88,-74.33 594.25,-68.62 613.16,-53.98 610.48,-42.08 630.25,-28.62 634.24,-25.91 638.67,-23.52 643.2,-21.43"/>
<polygon fill="#63b8ff" stroke="#63b8ff" points="644.46,-24.7 652.4,-17.68 641.82,-18.22 644.46,-24.7"/>
</a>
</g>
</g>
<!-- Node11 -->
<g id="Node000011" class="node">
<title>Node11</title>
<g id="a_Node000011"><a xlink:href="classJack_1_1JackLockAble.html#ac4e60dcf9985264b4f7be77eb2c4a550" target="_top" xlink:title=" ">
<polygon fill="white" stroke="#666666" points="734,-67.88 630.25,-67.88 630.25,-37.38 734,-37.38 734,-67.88"/>
<text xml:space="preserve" text-anchor="start" x="638.25" y="-54.38" font-family="Helvetica,sans-Serif" font-size="10.00">Jack::JackLockAble</text>
<text xml:space="preserve" text-anchor="middle" x="682.12" y="-43.12" font-family="Helvetica,sans-Serif" font-size="10.00">::Unlock</text>
</a>
</g>
</g>
<!-- Node7&#45;&gt;Node11 -->
<g id="edge11_Node000007_Node000011" class="edge">
<title>Node7&#45;&gt;Node11</title>
<g id="a_edge11_Node000007_Node000011"><a xlink:title=" ">
<path fill="none" stroke="#63b8ff" d="M583.49,-83.97C595.58,-80.09 608.68,-75.89 621.24,-71.85"/>
<polygon fill="#63b8ff" stroke="#63b8ff" points="622.21,-75.22 630.66,-68.83 620.07,-68.55 622.21,-75.22"/>
</a>
</g>
</g>
<!-- Node12&#45;&gt;Node2 -->
<g id="edge15_Node000012_Node000002" class="edge">
<title>Node12&#45;&gt;Node2</title>
<g id="a_edge15_Node000012_Node000002"><a xlink:title=" ">
<path fill="none" stroke="#63b8ff" d="M276.29,-51.27C286.49,-54.09 297.22,-57.05 307.69,-59.94"/>
<polygon fill="#63b8ff" stroke="#63b8ff" points="306.46,-63.23 317.03,-62.52 308.32,-56.48 306.46,-63.23"/>
</a>
</g>
</g>
<!-- Node12&#45;&gt;Node10 -->
<g id="edge14_Node000012_Node000010" class="edge">
<title>Node12&#45;&gt;Node10</title>
<g id="a_edge14_Node000012_Node000010"><a xlink:title=" ">
<path fill="none" stroke="#63b8ff" d="M279.96,-32.23C376.37,-26.79 562.45,-16.31 642.72,-11.79"/>
<polygon fill="#63b8ff" stroke="#63b8ff" points="642.48,-15.31 652.27,-11.25 642.08,-8.32 642.48,-15.31"/>
</a>
</g>
</g>
</g>
</svg>
