<?xml version="1.0" encoding="UTF-8" standalone="no"?>
<!DOCTYPE svg PUBLIC "-//W3C//DTD SVG 1.1//EN"
 "http://www.w3.org/Graphics/SVG/1.1/DTD/svg11.dtd">
<!-- Generated by graphviz version 14.0.2 (0)
 -->
<!-- Title: juce::LookAndFeel_V4::drawMenuBarBackground Pages: 1 -->
<!--zoomable 302 -->

<svg id="main" version="1.1" xmlns="http://www.w3.org/2000/svg" xmlns:xlink="http://www.w3.org/1999/xlink" xml:space="preserve" onload="init(evt)">

<style type="text/css"><![CDATA[
.node, .edge {opacity: 0.7;}
.node.selected, .edge.selected {opacity: 1;}
.edge:hover path { stroke: red; }
.edge:hover polygon { stroke: red; fill: red; }
]]></style>

<defs>
  <circle id="rim" cx="0" cy="0" r="7"/>
  <circle id="rim2" cx="0" cy="0" r="3.5"/>
  <g id="zoomPlus">
    <use xlink:href="#rim" fill="#404040"><set attributeName="fill" to="#808080" begin="zoomplus.mouseover" end="zoomplus.mouseout"/></use>
    <path d="M-4,0h8M0,-4v8" fill="none" stroke="white" stroke-width="1.5" pointer-events="none"/>
  </g>
  <g id="zoomMin">
    <use xlink:href="#rim" fill="#404040"><set attributeName="fill" to="#808080" begin="zoomminus.mouseover" end="zoomminus.mouseout"/></use>
    <path d="M-4,0h8" fill="none" stroke="white" stroke-width="1.5" pointer-events="none"/>
  </g>
  <g id="arrowUp" transform="translate(30 24)">
    <use xlink:href="#rim"/>
    <path pointer-events="none" fill="none" stroke="white" stroke-width="1.5" d="M0,-3.0v7 M-2.5,-0.5L0,-3.0L2.5,-0.5"/>
  </g>
  <g id="arrowRight" transform="rotate(90) translate(36 -43)">
    <use xlink:href="#rim"/>
    <path pointer-events="none" fill="none" stroke="white" stroke-width="1.5" d="M0,-3.0v7 M-2.5,-0.5L0,-3.0L2.5,-0.5"/>
  </g>
  <g id="arrowDown" transform="rotate(180) translate(-30 -48)">
    <use xlink:href="#rim"/>
    <path pointer-events="none" fill="none" stroke="white" stroke-width="1.5" d="M0,-3.0v7 M-2.5,-0.5L0,-3.0L2.5,-0.5"/>
  </g>
  <g id="arrowLeft" transform="rotate(270) translate(-36 17)">
    <use xlink:href="#rim"/>
    <path pointer-events="none" fill="none" stroke="white" stroke-width="1.5" d="M0,-3.0v7 M-2.5,-0.5L0,-3.0L2.5,-0.5"/>
  </g>
  <g id="resetDef">
    <use xlink:href="#rim2" fill="#404040"><set attributeName="fill" to="#808080" begin="reset.mouseover" end="reset.mouseout"/></use>
  </g>
</defs>
<script type="application/ecmascript">
var viewWidth = 662;
var viewHeight = 302;
var sectionId = 'dynsection-39';
</script>
<script type="application/ecmascript" xlink:href="svg.min.js"/>
<svg id="graph" class="graph">
<g id="viewport">
<title>juce::LookAndFeel_V4::drawMenuBarBackground</title>
<!-- Node1 -->
<g id="Node000001" class="node">
<title>Node1</title>
<g id="a_Node000001"><a xlink:title=" ">
<polygon fill="#999999" stroke="#666666" points="132.25,-171.5 0,-171.5 0,-141 132.25,-141 132.25,-171.5"/>
<text xml:space="preserve" text-anchor="start" x="8" y="-158" font-family="Helvetica,sans-Serif" font-size="10.00">juce::LookAndFeel_V4</text>
<text xml:space="preserve" text-anchor="middle" x="66.12" y="-146.75" font-family="Helvetica,sans-Serif" font-size="10.00">::drawMenuBarBackground</text>
</a>
</g>
</g>
<!-- Node1&#45;&gt;Node1 -->
<g id="edge1_Node000001_Node000001" class="edge">
<title>Node1&#45;&gt;Node1</title>
<g id="a_edge1_Node000001_Node000001"><a xlink:title=" ">
<path fill="none" stroke="#63b8ff" d="M34.05,-171.99C27.51,-181.06 38.2,-189.5 66.12,-189.5 81.4,-189.5 91.52,-186.97 96.48,-183.2"/>
<polygon fill="#63b8ff" stroke="#63b8ff" points="99.91,-183.9 97.97,-173.48 92.99,-182.84 99.91,-183.9"/>
</a>
</g>
</g>
<!-- Node2 -->
<g id="Node000002" class="node">
<title>Node2</title>
<g id="a_Node000002"><a xlink:href="classjuce_1_1Graphics.html#a8ec4ee2940467eeac346453851ecea42" target="_top" xlink:title=" ">
<polygon fill="white" stroke="#666666" points="302.75,-275.88 191.5,-275.88 191.5,-256.62 302.75,-256.62 302.75,-275.88"/>
<text xml:space="preserve" text-anchor="middle" x="247.12" y="-262.38" font-family="Helvetica,sans-Serif" font-size="10.00">juce::Graphics::fillRect</text>
</a>
</g>
</g>
<!-- Node1&#45;&gt;Node2 -->
<g id="edge2_Node000001_Node000002" class="edge">
<title>Node1&#45;&gt;Node2</title>
<g id="a_edge2_Node000001_Node000002"><a xlink:title=" ">
<path fill="none" stroke="#63b8ff" d="M79.81,-171.67C97.48,-192.1 131.5,-227.83 168.25,-247.25 172.15,-249.31 176.28,-251.15 180.53,-252.8"/>
<polygon fill="#63b8ff" stroke="#63b8ff" points="179.21,-256.05 189.81,-256.01 181.5,-249.43 179.21,-256.05"/>
</a>
</g>
</g>
<!-- Node3 -->
<g id="Node000003" class="node">
<title>Node3</title>
<g id="a_Node000003"><a xlink:href="classjuce_1_1Rectangle.html#a442335ef017f62704336a2ce3ffc2187" target="_top" xlink:title=" ">
<polygon fill="white" stroke="#666666" points="317.75,-238.5 176.5,-238.5 176.5,-208 317.75,-208 317.75,-238.5"/>
<text xml:space="preserve" text-anchor="start" x="184.5" y="-225" font-family="Helvetica,sans-Serif" font-size="10.00">juce::Rectangle::removeFrom</text>
<text xml:space="preserve" text-anchor="middle" x="247.12" y="-213.75" font-family="Helvetica,sans-Serif" font-size="10.00">Bottom</text>
</a>
</g>
</g>
<!-- Node1&#45;&gt;Node3 -->
<g id="edge4_Node000001_Node000003" class="edge">
<title>Node1&#45;&gt;Node3</title>
<g id="a_edge4_Node000001_Node000003"><a xlink:title=" ">
<path fill="none" stroke="#63b8ff" d="M101.41,-171.87C120.82,-180.45 145.67,-191 168.25,-199.25 172.66,-200.86 177.23,-202.46 181.86,-204.02"/>
<polygon fill="#63b8ff" stroke="#63b8ff" points="180.65,-207.31 191.24,-207.11 182.84,-200.66 180.65,-207.31"/>
</a>
</g>
</g>
<!-- Node6 -->
<g id="Node000006" class="node">
<title>Node6</title>
<g id="a_Node000006"><a xlink:href="classjuce_1_1Rectangle.html#a8c2405d2914324a03d2862b89f2c31fd" target="_top" xlink:title=" ">
<polygon fill="white" stroke="#666666" points="326,-189.88 168.25,-189.88 168.25,-170.62 326,-170.62 326,-189.88"/>
<text xml:space="preserve" text-anchor="middle" x="247.12" y="-176.38" font-family="Helvetica,sans-Serif" font-size="10.00">juce::Rectangle::removeFromTop</text>
</a>
</g>
</g>
<!-- Node1&#45;&gt;Node6 -->
<g id="edge8_Node000001_Node000006" class="edge">
<title>Node1&#45;&gt;Node6</title>
<g id="a_edge8_Node000001_Node000006"><a xlink:title=" ">
<path fill="none" stroke="#63b8ff" d="M132.51,-165.02C141.38,-166.21 150.6,-167.44 159.77,-168.67"/>
<polygon fill="#63b8ff" stroke="#63b8ff" points="159.04,-172.1 169.41,-169.96 159.97,-165.17 159.04,-172.1"/>
</a>
</g>
</g>
<!-- Node8 -->
<g id="Node000008" class="node">
<title>Node8</title>
<g id="a_Node000008"><a xlink:href="classjuce_1_1Graphics.html#aea91552df5f289de769876a78a561bfd" target="_top" xlink:title=" ">
<polygon fill="white" stroke="#666666" points="488.62,-140.88 365.38,-140.88 365.38,-121.62 488.62,-121.62 488.62,-140.88"/>
<text xml:space="preserve" text-anchor="middle" x="427" y="-127.38" font-family="Helvetica,sans-Serif" font-size="10.00">juce::Graphics::setColour</text>
</a>
</g>
</g>
<!-- Node1&#45;&gt;Node8 -->
<g id="edge11_Node000001_Node000008" class="edge">
<title>Node1&#45;&gt;Node8</title>
<g id="a_edge11_Node000001_Node000008"><a xlink:title=" ">
<path fill="none" stroke="#63b8ff" d="M132.53,-151.69C194.99,-147.34 288.93,-140.8 353.61,-136.29"/>
<polygon fill="#63b8ff" stroke="#63b8ff" points="353.69,-139.8 363.42,-135.61 353.21,-132.81 353.69,-139.8"/>
</a>
</g>
</g>
<!-- Node10 -->
<g id="Node000010" class="node">
<title>Node10</title>
<g id="a_Node000010"><a xlink:href="classjuce_1_1Graphics.html#a5fdfbc08727c841f198f27b371e98fe9" target="_top" xlink:title=" ">
<polygon fill="white" stroke="#666666" points="319.62,-87.88 174.62,-87.88 174.62,-68.62 319.62,-68.62 319.62,-87.88"/>
<text xml:space="preserve" text-anchor="middle" x="247.12" y="-74.38" font-family="Helvetica,sans-Serif" font-size="10.00">juce::Graphics::setGradientFill</text>
</a>
</g>
</g>
<!-- Node1&#45;&gt;Node10 -->
<g id="edge15_Node000001_Node000010" class="edge">
<title>Node1&#45;&gt;Node10</title>
<g id="a_edge15_Node000001_Node000010"><a xlink:title=" ">
<path fill="none" stroke="#63b8ff" d="M102.92,-140.65C134.86,-126.73 181.29,-106.5 212.54,-92.89"/>
<polygon fill="#63b8ff" stroke="#63b8ff" points="213.75,-96.17 221.52,-88.97 210.96,-89.76 213.75,-96.17"/>
</a>
</g>
</g>
<!-- Node12 -->
<g id="Node000012" class="node">
<title>Node12</title>
<g id="a_Node000012"><a xlink:href="classjuce_1_1ColourGradient.html#a3fafc7c9bd4cab361c063c4e8ed0d0c1" target="_top" xlink:title=" ">
<polygon fill="white" stroke="#666666" points="298.62,-32.5 195.62,-32.5 195.62,-2 298.62,-2 298.62,-32.5"/>
<text xml:space="preserve" text-anchor="start" x="203.62" y="-19" font-family="Helvetica,sans-Serif" font-size="10.00">juce::ColourGradient</text>
<text xml:space="preserve" text-anchor="middle" x="247.12" y="-7.75" font-family="Helvetica,sans-Serif" font-size="10.00">::vertical</text>
</a>
</g>
</g>
<!-- Node1&#45;&gt;Node12 -->
<g id="edge20_Node000001_Node000012" class="edge">
<title>Node1&#45;&gt;Node12</title>
<g id="a_edge20_Node000001_Node000012"><a xlink:title=" ">
<path fill="none" stroke="#63b8ff" d="M80.76,-140.79C99.22,-120.44 133.84,-84.32 168.25,-59.25 178.81,-51.55 190.96,-44.34 202.46,-38.13"/>
<polygon fill="#63b8ff" stroke="#63b8ff" points="203.78,-41.39 211.01,-33.64 200.53,-35.19 203.78,-41.39"/>
</a>
</g>
</g>
<!-- Node2&#45;&gt;Node2 -->
<g id="edge3_Node000002_Node000002" class="edge">
<title>Node2&#45;&gt;Node2</title>
<g id="a_edge3_Node000002_Node000002"><a xlink:title=" ">
<path fill="none" stroke="#63b8ff" d="M218.96,-276.16C206.12,-284.77 215.51,-293.88 247.12,-293.88 265.4,-293.88 276.25,-290.83 279.67,-286.6"/>
<polygon fill="#63b8ff" stroke="#63b8ff" points="282.97,-285.42 275.87,-277.56 276.52,-288.13 282.97,-285.42"/>
</a>
</g>
</g>
<!-- Node4 -->
<g id="Node000004" class="node">
<title>Node4</title>
<g id="a_Node000004"><a xlink:href="CarlaEngineGraph_8cpp.html#a51eb9b3403bff872a24b0b65fcf49b62" target="_top" xlink:title=" ">
<polygon fill="white" stroke="#666666" points="444,-287.88 410,-287.88 410,-268.62 444,-268.62 444,-287.88"/>
<text xml:space="preserve" text-anchor="middle" x="427" y="-274.38" font-family="Helvetica,sans-Serif" font-size="10.00">jmin</text>
</a>
</g>
</g>
<!-- Node3&#45;&gt;Node4 -->
<g id="edge5_Node000003_Node000004" class="edge">
<title>Node3&#45;&gt;Node4</title>
<g id="a_edge5_Node000003_Node000004"><a xlink:title=" ">
<path fill="none" stroke="#63b8ff" d="M300.18,-238.92C308.82,-241.63 317.68,-244.47 326,-247.25 342.13,-252.65 345.8,-255.05 362,-260.25 373.91,-264.07 387.2,-267.88 398.58,-271.01"/>
<polygon fill="#63b8ff" stroke="#63b8ff" points="397.57,-274.36 408.13,-273.59 399.39,-267.6 397.57,-274.36"/>
</a>
</g>
</g>
<!-- Node5 -->
<g id="Node000005" class="node">
<title>Node5</title>
<g id="a_Node000005"><a xlink:href="classjuce_1_1Rectangle.html#a9b0852de9d45cf8a1b602ce114984ae1" target="_top" xlink:title=" ">
<polygon fill="white" stroke="#666666" points="492,-232.88 362,-232.88 362,-213.62 492,-213.62 492,-232.88"/>
<text xml:space="preserve" text-anchor="middle" x="427" y="-219.38" font-family="Helvetica,sans-Serif" font-size="10.00">juce::Rectangle::Rectangle</text>
</a>
</g>
</g>
<!-- Node3&#45;&gt;Node5 -->
<g id="edge6_Node000003_Node000005" class="edge">
<title>Node3&#45;&gt;Node5</title>
<g id="a_edge6_Node000003_Node000005"><a xlink:title=" ">
<path fill="none" stroke="#63b8ff" d="M318.17,-223.25C328.67,-223.25 339.53,-223.25 350.14,-223.25"/>
<polygon fill="#63b8ff" stroke="#63b8ff" points="350.01,-226.75 360.01,-223.25 350.01,-219.75 350.01,-226.75"/>
</a>
</g>
</g>
<!-- Node5&#45;&gt;Node5 -->
<g id="edge7_Node000005_Node000005" class="edge">
<title>Node5&#45;&gt;Node5</title>
<g id="a_edge7_Node000005_Node000005"><a xlink:title=" ">
<path fill="none" stroke="#63b8ff" d="M401.31,-233.16C389.59,-241.77 398.15,-250.88 427,-250.88 443.23,-250.88 453.04,-247.99 456.43,-243.94"/>
<polygon fill="#63b8ff" stroke="#63b8ff" points="459.77,-242.9 453.19,-234.59 453.16,-245.19 459.77,-242.9"/>
</a>
</g>
</g>
<!-- Node6&#45;&gt;Node5 -->
<g id="edge10_Node000006_Node000005" class="edge">
<title>Node6&#45;&gt;Node5</title>
<g id="a_edge10_Node000006_Node000005"><a xlink:title=" ">
<path fill="none" stroke="#63b8ff" d="M289.83,-190.33C314.72,-196.35 346.56,-204.05 373.19,-210.48"/>
<polygon fill="#63b8ff" stroke="#63b8ff" points="372.24,-213.85 382.78,-212.8 373.88,-207.05 372.24,-213.85"/>
</a>
</g>
</g>
<!-- Node7 -->
<g id="Node000007" class="node">
<title>Node7</title>
<g id="a_Node000007"><a xlink:href="namespacejuce.html#a31dc5897289f074362c29fe54016f2dd" target="_top" xlink:title=" ">
<polygon fill="white" stroke="#666666" points="455.25,-195.88 398.75,-195.88 398.75,-176.62 455.25,-176.62 455.25,-195.88"/>
<text xml:space="preserve" text-anchor="middle" x="427" y="-182.38" font-family="Helvetica,sans-Serif" font-size="10.00">juce::jmin</text>
</a>
</g>
</g>
<!-- Node6&#45;&gt;Node7 -->
<g id="edge9_Node000006_Node000007" class="edge">
<title>Node6&#45;&gt;Node7</title>
<g id="a_edge9_Node000006_Node000007"><a xlink:title=" ">
<path fill="none" stroke="#63b8ff" d="M326.4,-182.89C347.4,-183.6 369.21,-184.33 387.05,-184.94"/>
<polygon fill="#63b8ff" stroke="#63b8ff" points="386.8,-188.43 396.91,-185.27 387.03,-181.43 386.8,-188.43"/>
</a>
</g>
</g>
<!-- Node8&#45;&gt;Node8 -->
<g id="edge14_Node000008_Node000008" class="edge">
<title>Node8&#45;&gt;Node8</title>
<g id="a_edge14_Node000008_Node000008"><a xlink:title=" ">
<path fill="none" stroke="#63b8ff" d="M401.31,-141.16C389.59,-149.77 398.15,-158.88 427,-158.88 443.23,-158.88 453.04,-155.99 456.43,-151.94"/>
<polygon fill="#63b8ff" stroke="#63b8ff" points="459.77,-150.9 453.19,-142.59 453.16,-153.19 459.77,-150.9"/>
</a>
</g>
</g>
<!-- Node9 -->
<g id="Node000009" class="node">
<title>Node9</title>
<g id="a_Node000009"><a xlink:href="classjuce_1_1Graphics.html#a1134cecf3f98d5f9dbf3bf627341a7fd" target="_top" xlink:title=" ">
<polygon fill="white" stroke="#666666" points="654.25,-118.5 528,-118.5 528,-88 654.25,-88 654.25,-118.5"/>
<text xml:space="preserve" text-anchor="start" x="536" y="-105" font-family="Helvetica,sans-Serif" font-size="10.00">juce::Graphics::saveState</text>
<text xml:space="preserve" text-anchor="middle" x="591.12" y="-93.75" font-family="Helvetica,sans-Serif" font-size="10.00">IfPending</text>
</a>
</g>
</g>
<!-- Node8&#45;&gt;Node9 -->
<g id="edge12_Node000008_Node000009" class="edge">
<title>Node8&#45;&gt;Node9</title>
<g id="a_edge12_Node000008_Node000009"><a xlink:title=" ">
<path fill="none" stroke="#63b8ff" d="M486.53,-121.14C496.22,-119.47 506.37,-117.71 516.38,-115.99"/>
<polygon fill="#63b8ff" stroke="#63b8ff" points="516.82,-119.46 526.08,-114.31 515.63,-112.56 516.82,-119.46"/>
</a>
</g>
</g>
<!-- Node9&#45;&gt;Node9 -->
<g id="edge13_Node000009_Node000009" class="edge">
<title>Node9&#45;&gt;Node9</title>
<g id="a_edge13_Node000009_Node000009"><a xlink:title=" ">
<path fill="none" stroke="#63b8ff" d="M562.04,-118.99C556.11,-128.06 565.8,-136.5 591.12,-136.5 604.97,-136.5 614.15,-133.97 618.65,-130.2"/>
<polygon fill="#63b8ff" stroke="#63b8ff" points="622.09,-130.87 620,-120.48 615.16,-129.91 622.09,-130.87"/>
</a>
</g>
</g>
<!-- Node10&#45;&gt;Node10 -->
<g id="edge19_Node000010_Node000010" class="edge">
<title>Node10&#45;&gt;Node10</title>
<g id="a_edge19_Node000010_Node000010"><a xlink:title=" ">
<path fill="none" stroke="#63b8ff" d="M218.96,-88.16C206.12,-96.77 215.51,-105.88 247.12,-105.88 265.4,-105.88 276.25,-102.83 279.67,-98.6"/>
<polygon fill="#63b8ff" stroke="#63b8ff" points="282.97,-97.42 275.87,-89.56 276.52,-100.13 282.97,-97.42"/>
</a>
</g>
</g>
<!-- Node11 -->
<g id="Node000011" class="node">
<title>Node11</title>
<g id="a_Node000011"><a xlink:href="classjuce_1_1Graphics.html#a5722dd8cf64207ec9620f859f7f207af" target="_top" xlink:title=" ">
<polygon fill="white" stroke="#666666" points="491.62,-85.88 362.38,-85.88 362.38,-66.62 491.62,-66.62 491.62,-85.88"/>
<text xml:space="preserve" text-anchor="middle" x="427" y="-72.38" font-family="Helvetica,sans-Serif" font-size="10.00">juce::Graphics::setFillType</text>
</a>
</g>
</g>
<!-- Node10&#45;&gt;Node11 -->
<g id="edge16_Node000010_Node000011" class="edge">
<title>Node10&#45;&gt;Node11</title>
<g id="a_edge16_Node000010_Node000011"><a xlink:title=" ">
<path fill="none" stroke="#63b8ff" d="M319.96,-77.44C330.05,-77.33 340.44,-77.21 350.59,-77.1"/>
<polygon fill="#63b8ff" stroke="#63b8ff" points="350.45,-80.6 360.41,-76.99 350.37,-73.6 350.45,-80.6"/>
</a>
</g>
</g>
<!-- Node11&#45;&gt;Node9 -->
<g id="edge17_Node000011_Node000009" class="edge">
<title>Node11&#45;&gt;Node9</title>
<g id="a_edge17_Node000011_Node000009"><a xlink:title=" ">
<path fill="none" stroke="#63b8ff" d="M488.37,-86.3C497.46,-87.82 506.92,-89.39 516.25,-90.95"/>
<polygon fill="#63b8ff" stroke="#63b8ff" points="515.61,-94.39 526.04,-92.58 516.76,-87.48 515.61,-94.39"/>
</a>
</g>
</g>
<!-- Node11&#45;&gt;Node11 -->
<g id="edge18_Node000011_Node000011" class="edge">
<title>Node11&#45;&gt;Node11</title>
<g id="a_edge18_Node000011_Node000011"><a xlink:title=" ">
<path fill="none" stroke="#63b8ff" d="M401.31,-86.16C389.59,-94.77 398.15,-103.88 427,-103.88 443.23,-103.88 453.04,-100.99 456.43,-96.94"/>
<polygon fill="#63b8ff" stroke="#63b8ff" points="459.77,-95.9 453.19,-87.59 453.16,-98.19 459.77,-95.9"/>
</a>
</g>
</g>
<!-- Node12&#45;&gt;Node12 -->
<g id="edge23_Node000012_Node000012" class="edge">
<title>Node12&#45;&gt;Node12</title>
<g id="a_edge23_Node000012_Node000012"><a xlink:title=" ">
<path fill="none" stroke="#63b8ff" d="M215.25,-32.99C208.75,-42.06 219.37,-50.5 247.12,-50.5 262.3,-50.5 272.36,-47.97 277.29,-44.2"/>
<polygon fill="#63b8ff" stroke="#63b8ff" points="280.73,-44.9 278.77,-34.48 273.8,-43.84 280.73,-44.9"/>
</a>
</g>
</g>
<!-- Node13 -->
<g id="Node000013" class="node">
<title>Node13</title>
<g id="a_Node000013"><a xlink:href="classjuce_1_1ColourGradient.html#a0820c9910c83eb8e37d8fbed7c2c4de4" target="_top" xlink:title=" ">
<polygon fill="white" stroke="#666666" points="478.5,-30.5 375.5,-30.5 375.5,0 478.5,0 478.5,-30.5"/>
<text xml:space="preserve" text-anchor="start" x="383.5" y="-17" font-family="Helvetica,sans-Serif" font-size="10.00">juce::ColourGradient</text>
<text xml:space="preserve" text-anchor="middle" x="427" y="-5.75" font-family="Helvetica,sans-Serif" font-size="10.00">::ColourGradient</text>
</a>
</g>
</g>
<!-- Node12&#45;&gt;Node13 -->
<g id="edge21_Node000012_Node000013" class="edge">
<title>Node12&#45;&gt;Node13</title>
<g id="a_edge21_Node000012_Node000013"><a xlink:title=" ">
<path fill="none" stroke="#63b8ff" d="M299.1,-16.68C319.19,-16.45 342.47,-16.19 363.56,-15.95"/>
<polygon fill="#63b8ff" stroke="#63b8ff" points="363.55,-19.45 373.51,-15.84 363.47,-12.45 363.55,-19.45"/>
</a>
</g>
</g>
<!-- Node13&#45;&gt;Node13 -->
<g id="edge22_Node000013_Node000013" class="edge">
<title>Node13&#45;&gt;Node13</title>
<g id="a_edge22_Node000013_Node000013"><a xlink:title=" ">
<path fill="none" stroke="#63b8ff" d="M397.92,-30.99C391.98,-40.06 401.68,-48.5 427,-48.5 440.85,-48.5 450.02,-45.97 454.52,-42.2"/>
<polygon fill="#63b8ff" stroke="#63b8ff" points="457.96,-42.87 455.87,-32.48 451.03,-41.91 457.96,-42.87"/>
</a>
</g>
</g>
</g>
</svg>

<g id="navigator" transform="translate(0 0)" fill="#404254">
  <rect fill="#f2f5e9" fill-opacity="0.5" stroke="#606060" stroke-width=".5" x="0" y="0" width="60" height="60"/>
  <use id="zoomplus" xlink:href="#zoomPlus" x="17" y="9" onmousedown="handleZoom(evt,'in')"/>
  <use id="zoomminus" xlink:href="#zoomMin" x="42" y="9" onmousedown="handleZoom(evt,'out')"/>
  <use id="reset" xlink:href="#resetDef" x="30" y="36" onmousedown="handleReset()"/>
   <use id="arrowup" xlink:href="#arrowUp" x="0" y="0" onmousedown="handlePan(0,-1)"/>
  <use id="arrowright" xlink:href="#arrowRight" x="0" y="0" onmousedown="handlePan(1,0)"/>
  <use id="arrowdown" xlink:href="#arrowDown" x="0" y="0" onmousedown="handlePan(0,1)"/>
  <use id="arrowleft" xlink:href="#arrowLeft" x="0" y="0" onmousedown="handlePan(-1,0)"/>
</g>
<svg viewBox="0 0 15 15" width="100%" height="30px" preserveAspectRatio="xMaxYMin meet">
 <g id="arrow_out" transform="scale(0.3 0.3)">
  <a xlink:href="classjuce_1_1LookAndFeel__V4_a7d300866b9e9d3d3361ce396f18415e4_cgraph_org.svg" target="_base">
   <rect id="button" ry="5" rx="5" y="6" x="6" height="38" width="38"
        fill="#f2f5e9" fill-opacity="0.5" stroke="#606060" stroke-width="1.0"/>
   <path id="arrow"
     d="M 11.500037,31.436501 C 11.940474,20.09759 22.043105,11.32322 32.158766,21.979434 L 37.068811,17.246167 C 37.068811,17.246167 37.088388,32 37.088388,32 L 22.160133,31.978069 C 22.160133,31.978069 26.997745,27.140456 26.997745,27.140456 C 18.528582,18.264221 13.291696,25.230495 11.500037,31.436501 z"
     style="fill:#404040;"/>
  </a>
 </g>
</svg>

<style type='text/css'>
<![CDATA[
[data-mouse-over-selected='false'] { opacity: 0.7; }
[data-mouse-over-selected='true']  { opacity: 1.0; }
]]>
</style>
<script type="application/ecmascript"><![CDATA[
document.addEventListener('DOMContentLoaded', (event) => {
  highlightEdges();
  highlightAdjacentNodes();
});
]]></script>
</svg>
