<?xml version="1.0" encoding="UTF-8" standalone="no"?>
<!DOCTYPE svg PUBLIC "-//W3C//DTD SVG 1.1//EN"
 "http://www.w3.org/Graphics/SVG/1.1/DTD/svg11.dtd">
<!-- Generated by graphviz version 14.0.2 (0)
 -->
<!-- Title: Jack::JackClientPipeThread::Execute Pages: 1 -->
<!--zoomable 237 -->

<svg id="main" version="1.1" xmlns="http://www.w3.org/2000/svg" xmlns:xlink="http://www.w3.org/1999/xlink" xml:space="preserve" onload="init(evt)">

<style type="text/css"><![CDATA[
.node, .edge {opacity: 0.7;}
.node.selected, .edge.selected {opacity: 1;}
.edge:hover path { stroke: red; }
.edge:hover polygon { stroke: red; fill: red; }
]]></style>

<defs>
  <circle id="rim" cx="0" cy="0" r="7"/>
  <circle id="rim2" cx="0" cy="0" r="3.5"/>
  <g id="zoomPlus">
    <use xlink:href="#rim" fill="#404040"><set attributeName="fill" to="#808080" begin="zoomplus.mouseover" end="zoomplus.mouseout"/></use>
    <path d="M-4,0h8M0,-4v8" fill="none" stroke="white" stroke-width="1.5" pointer-events="none"/>
  </g>
  <g id="zoomMin">
    <use xlink:href="#rim" fill="#404040"><set attributeName="fill" to="#808080" begin="zoomminus.mouseover" end="zoomminus.mouseout"/></use>
    <path d="M-4,0h8" fill="none" stroke="white" stroke-width="1.5" pointer-events="none"/>
  </g>
  <g id="arrowUp" transform="translate(30 24)">
    <use xlink:href="#rim"/>
    <path pointer-events="none" fill="none" stroke="white" stroke-width="1.5" d="M0,-3.0v7 M-2.5,-0.5L0,-3.0L2.5,-0.5"/>
  </g>
  <g id="arrowRight" transform="rotate(90) translate(36 -43)">
    <use xlink:href="#rim"/>
    <path pointer-events="none" fill="none" stroke="white" stroke-width="1.5" d="M0,-3.0v7 M-2.5,-0.5L0,-3.0L2.5,-0.5"/>
  </g>
  <g id="arrowDown" transform="rotate(180) translate(-30 -48)">
    <use xlink:href="#rim"/>
    <path pointer-events="none" fill="none" stroke="white" stroke-width="1.5" d="M0,-3.0v7 M-2.5,-0.5L0,-3.0L2.5,-0.5"/>
  </g>
  <g id="arrowLeft" transform="rotate(270) translate(-36 17)">
    <use xlink:href="#rim"/>
    <path pointer-events="none" fill="none" stroke="white" stroke-width="1.5" d="M0,-3.0v7 M-2.5,-0.5L0,-3.0L2.5,-0.5"/>
  </g>
  <g id="resetDef">
    <use xlink:href="#rim2" fill="#404040"><set attributeName="fill" to="#808080" begin="reset.mouseover" end="reset.mouseout"/></use>
  </g>
</defs>
<script type="application/ecmascript">
var viewWidth = 578;
var viewHeight = 237;
var sectionId = 'dynsection-9';
</script>
<script type="application/ecmascript" xlink:href="svg.min.js"/>
<svg id="graph" class="graph">
<g id="viewport">
<title>Jack::JackClientPipeThread::Execute</title>
<!-- Node1 -->
<g id="Node000001" class="node">
<title>Node1</title>
<g id="a_Node000001"><a xlink:title=" ">
<polygon fill="#999999" stroke="#666666" points="136.75,-127.88 0,-127.88 0,-97.38 136.75,-97.38 136.75,-127.88"/>
<text xml:space="preserve" text-anchor="start" x="8" y="-114.38" font-family="Helvetica,sans-Serif" font-size="10.00">Jack::JackClientPipeThread</text>
<text xml:space="preserve" text-anchor="middle" x="68.38" y="-103.12" font-family="Helvetica,sans-Serif" font-size="10.00">::Execute</text>
</a>
</g>
</g>
<!-- Node2 -->
<g id="Node000002" class="node">
<title>Node2</title>
<g id="a_Node000002"><a xlink:href="classJack_1_1JackClientPipeThread.html#a2b69fef73c57622c31322a216a2be390" target="_top" xlink:title=" ">
<polygon fill="white" stroke="#666666" points="309.5,-190.88 172.75,-190.88 172.75,-160.38 309.5,-160.38 309.5,-190.88"/>
<text xml:space="preserve" text-anchor="start" x="180.75" y="-177.38" font-family="Helvetica,sans-Serif" font-size="10.00">Jack::JackClientPipeThread</text>
<text xml:space="preserve" text-anchor="middle" x="241.12" y="-166.12" font-family="Helvetica,sans-Serif" font-size="10.00">::ClientKill</text>
</a>
</g>
</g>
<!-- Node1&#45;&gt;Node2 -->
<g id="edge1_Node000001_Node000002" class="edge">
<title>Node1&#45;&gt;Node2</title>
<g id="a_edge1_Node000001_Node000002"><a xlink:title=" ">
<path fill="none" stroke="#63b8ff" d="M112.02,-128.36C134.72,-136.74 162.85,-147.11 186.96,-156.01"/>
<polygon fill="#63b8ff" stroke="#63b8ff" points="185.71,-159.28 196.31,-159.46 188.14,-152.71 185.71,-159.28"/>
</a>
</g>
</g>
<!-- Node4 -->
<g id="Node000004" class="node">
<title>Node4</title>
<g id="a_Node000004"><a xlink:href="group__ControlAPI.html#ga35f69faaee3bb9b958ed8c9a5f62246c" target="_top" xlink:title=" ">
<polygon fill="white" stroke="#666666" points="570.25,-180.25 518.25,-180.25 518.25,-161 570.25,-161 570.25,-180.25"/>
<text xml:space="preserve" text-anchor="middle" x="544.25" y="-166.75" font-family="Helvetica,sans-Serif" font-size="10.00">jack_log</text>
</a>
</g>
</g>
<!-- Node1&#45;&gt;Node4 -->
<g id="edge5_Node000001_Node000004" class="edge">
<title>Node1&#45;&gt;Node4</title>
<g id="a_edge5_Node000001_Node000004"><a xlink:title=" ">
<path fill="none" stroke="#63b8ff" d="M137.02,-120.9C238.57,-133.33 426.97,-156.39 506.41,-166.12"/>
<polygon fill="#63b8ff" stroke="#63b8ff" points="505.9,-169.58 516.25,-167.32 506.75,-162.63 505.9,-169.58"/>
</a>
</g>
</g>
<!-- Node5 -->
<g id="Node000005" class="node">
<title>Node5</title>
<g id="a_Node000005"><a xlink:href="structJack_1_1JackRequest.html#ac7ae7d293feb78a12125baf66ff2dddc" target="_top" xlink:title=" ">
<polygon fill="white" stroke="#666666" points="303.88,-101.25 178.38,-101.25 178.38,-82 303.88,-82 303.88,-101.25"/>
<text xml:space="preserve" text-anchor="middle" x="241.12" y="-87.75" font-family="Helvetica,sans-Serif" font-size="10.00">Jack::JackRequest::Read</text>
</a>
</g>
</g>
<!-- Node1&#45;&gt;Node5 -->
<g id="edge6_Node000001_Node000005" class="edge">
<title>Node1&#45;&gt;Node5</title>
<g id="a_edge6_Node000001_Node000005"><a xlink:title=" ">
<path fill="none" stroke="#63b8ff" d="M136.86,-104.33C146.75,-103.11 156.97,-101.85 166.97,-100.62"/>
<polygon fill="#63b8ff" stroke="#63b8ff" points="167.13,-104.13 176.62,-99.43 166.27,-97.18 167.13,-104.13"/>
</a>
</g>
</g>
<!-- Node7 -->
<g id="Node000007" class="node">
<title>Node7</title>
<g id="a_Node000007"><a xlink:href="swell_8cpp.html#a413f21c7c7ff0ac25a7abc268287400d" target="_top" xlink:title=" ">
<polygon fill="white" stroke="#666666" points="293.75,-56.25 188.5,-56.25 188.5,-37 293.75,-37 293.75,-56.25"/>
<text xml:space="preserve" text-anchor="middle" x="241.12" y="-42.75" font-family="Helvetica,sans-Serif" font-size="10.00">WaitForSingleObject</text>
</a>
</g>
</g>
<!-- Node1&#45;&gt;Node7 -->
<g id="edge8_Node000001_Node000007" class="edge">
<title>Node1&#45;&gt;Node7</title>
<g id="a_edge8_Node000001_Node000007"><a xlink:title=" ">
<path fill="none" stroke="#63b8ff" d="M109.63,-97.04C128.75,-89.64 151.93,-80.67 172.75,-72.62 182.61,-68.82 193.28,-64.7 203.15,-60.89"/>
<polygon fill="#63b8ff" stroke="#63b8ff" points="204.4,-64.15 212.47,-57.29 201.88,-57.62 204.4,-64.15"/>
</a>
</g>
</g>
<!-- Node3 -->
<g id="Node000003" class="node">
<title>Node3</title>
<g id="a_Node000003"><a xlink:href="classJack_1_1JackClientPipeThread.html#ab9c6b495e2f1b66334366668c94dd90f" target="_top" xlink:title=" ">
<polygon fill="white" stroke="#666666" points="482.25,-228.88 345.5,-228.88 345.5,-198.38 482.25,-198.38 482.25,-228.88"/>
<text xml:space="preserve" text-anchor="start" x="353.5" y="-215.38" font-family="Helvetica,sans-Serif" font-size="10.00">Jack::JackClientPipeThread</text>
<text xml:space="preserve" text-anchor="middle" x="413.88" y="-204.12" font-family="Helvetica,sans-Serif" font-size="10.00">::Close</text>
</a>
</g>
</g>
<!-- Node2&#45;&gt;Node3 -->
<g id="edge2_Node000002_Node000003" class="edge">
<title>Node2&#45;&gt;Node3</title>
<g id="a_edge2_Node000002_Node000003"><a xlink:title=" ">
<path fill="none" stroke="#63b8ff" d="M309.61,-190.64C317.62,-192.43 325.85,-194.26 334,-196.07"/>
<polygon fill="#63b8ff" stroke="#63b8ff" points="333.04,-199.44 343.56,-198.2 334.56,-192.61 333.04,-199.44"/>
</a>
</g>
</g>
<!-- Node2&#45;&gt;Node4 -->
<g id="edge4_Node000002_Node000004" class="edge">
<title>Node2&#45;&gt;Node4</title>
<g id="a_edge4_Node000002_Node000004"><a xlink:title=" ">
<path fill="none" stroke="#63b8ff" d="M309.7,-174.5C370.58,-173.49 457.77,-172.04 506.57,-171.23"/>
<polygon fill="#63b8ff" stroke="#63b8ff" points="506.37,-174.74 516.31,-171.07 506.25,-167.74 506.37,-174.74"/>
</a>
</g>
</g>
<!-- Node3&#45;&gt;Node4 -->
<g id="edge3_Node000003_Node000004" class="edge">
<title>Node3&#45;&gt;Node4</title>
<g id="a_edge3_Node000003_Node000004"><a xlink:title=" ">
<path fill="none" stroke="#63b8ff" d="M461.58,-197.98C476.63,-192.94 493.07,-187.43 507.22,-182.69"/>
<polygon fill="#63b8ff" stroke="#63b8ff" points="508.21,-186.05 516.58,-179.56 505.99,-179.42 508.21,-186.05"/>
</a>
</g>
</g>
<!-- Node6 -->
<g id="Node000006" class="node">
<title>Node6</title>
<g id="a_Node000006"><a xlink:href="classJack_1_1detail_1_1JackChannelTransactionInterface.html#a36bf9867b552ae3035960ca49cb56151" target="_top" xlink:title=" ">
<polygon fill="white" stroke="#666666" points="480,-104.88 347.75,-104.88 347.75,-74.38 480,-74.38 480,-104.88"/>
<text xml:space="preserve" text-anchor="start" x="355.75" y="-91.38" font-family="Helvetica,sans-Serif" font-size="10.00">Jack::detail::JackChannel</text>
<text xml:space="preserve" text-anchor="middle" x="413.88" y="-80.12" font-family="Helvetica,sans-Serif" font-size="10.00">TransactionInterface::Read</text>
</a>
</g>
</g>
<!-- Node5&#45;&gt;Node6 -->
<g id="edge7_Node000005_Node000006" class="edge">
<title>Node5&#45;&gt;Node6</title>
<g id="a_edge7_Node000005_Node000006"><a xlink:title=" ">
<path fill="none" stroke="#63b8ff" d="M304.25,-90.9C314.55,-90.78 325.33,-90.65 335.94,-90.53"/>
<polygon fill="#63b8ff" stroke="#63b8ff" points="335.87,-94.03 345.83,-90.41 335.79,-87.03 335.87,-94.03"/>
</a>
</g>
</g>
<!-- Node8 -->
<g id="Node000008" class="node">
<title>Node8</title>
<g id="a_Node000008"><a xlink:href="swell_8cpp.html#a055326c81f9d62c1af40c24a13b436f5" target="_top" xlink:title=" ">
<polygon fill="white" stroke="#666666" points="451.88,-56.25 375.88,-56.25 375.88,-37 451.88,-37 451.88,-56.25"/>
<text xml:space="preserve" text-anchor="middle" x="413.88" y="-42.75" font-family="Helvetica,sans-Serif" font-size="10.00">GetTickCount</text>
</a>
</g>
</g>
<!-- Node7&#45;&gt;Node8 -->
<g id="edge9_Node000007_Node000008" class="edge">
<title>Node7&#45;&gt;Node8</title>
<g id="a_edge9_Node000007_Node000008"><a xlink:title=" ">
<path fill="none" stroke="#63b8ff" d="M293.82,-46.62C316.12,-46.62 342.07,-46.62 364.04,-46.62"/>
<polygon fill="#63b8ff" stroke="#63b8ff" points="363.94,-50.13 373.94,-46.63 363.94,-43.13 363.94,-50.13"/>
</a>
</g>
</g>
<!-- Node9 -->
<g id="Node000009" class="node">
<title>Node9</title>
<g id="a_Node000009"><a xlink:href="swell_8cpp.html#a4afa90abab5624ddd7bcd7b44fcb9c82" target="_top" xlink:title=" ">
<polygon fill="white" stroke="#666666" points="434.25,-19.25 393.5,-19.25 393.5,0 434.25,0 434.25,-19.25"/>
<text xml:space="preserve" text-anchor="middle" x="413.88" y="-5.75" font-family="Helvetica,sans-Serif" font-size="10.00">Sleep</text>
</a>
</g>
</g>
<!-- Node7&#45;&gt;Node9 -->
<g id="edge10_Node000007_Node000009" class="edge">
<title>Node7&#45;&gt;Node9</title>
<g id="a_edge10_Node000007_Node000009"><a xlink:title=" ">
<path fill="none" stroke="#63b8ff" d="M288.78,-36.51C318.58,-30.06 356.36,-21.87 382.37,-16.24"/>
<polygon fill="#63b8ff" stroke="#63b8ff" points="382.9,-19.7 391.93,-14.16 381.42,-12.86 382.9,-19.7"/>
</a>
</g>
</g>
</g>
</svg>

<g id="navigator" transform="translate(0 0)" fill="#404254">
  <rect fill="#f2f5e9" fill-opacity="0.5" stroke="#606060" stroke-width=".5" x="0" y="0" width="60" height="60"/>
  <use id="zoomplus" xlink:href="#zoomPlus" x="17" y="9" onmousedown="handleZoom(evt,'in')"/>
  <use id="zoomminus" xlink:href="#zoomMin" x="42" y="9" onmousedown="handleZoom(evt,'out')"/>
  <use id="reset" xlink:href="#resetDef" x="30" y="36" onmousedown="handleReset()"/>
   <use id="arrowup" xlink:href="#arrowUp" x="0" y="0" onmousedown="handlePan(0,-1)"/>
  <use id="arrowright" xlink:href="#arrowRight" x="0" y="0" onmousedown="handlePan(1,0)"/>
  <use id="arrowdown" xlink:href="#arrowDown" x="0" y="0" onmousedown="handlePan(0,1)"/>
  <use id="arrowleft" xlink:href="#arrowLeft" x="0" y="0" onmousedown="handlePan(-1,0)"/>
</g>
<svg viewBox="0 0 15 15" width="100%" height="30px" preserveAspectRatio="xMaxYMin meet">
 <g id="arrow_out" transform="scale(0.3 0.3)">
  <a xlink:href="classJack_1_1JackClientPipeThread_af7deecfde0e87766416b26c12a04c072_cgraph_org.svg" target="_base">
   <rect id="button" ry="5" rx="5" y="6" x="6" height="38" width="38"
        fill="#f2f5e9" fill-opacity="0.5" stroke="#606060" stroke-width="1.0"/>
   <path id="arrow"
     d="M 11.500037,31.436501 C 11.940474,20.09759 22.043105,11.32322 32.158766,21.979434 L 37.068811,17.246167 C 37.068811,17.246167 37.088388,32 37.088388,32 L 22.160133,31.978069 C 22.160133,31.978069 26.997745,27.140456 26.997745,27.140456 C 18.528582,18.264221 13.291696,25.230495 11.500037,31.436501 z"
     style="fill:#404040;"/>
  </a>
 </g>
</svg>

<style type='text/css'>
<![CDATA[
[data-mouse-over-selected='false'] { opacity: 0.7; }
[data-mouse-over-selected='true']  { opacity: 1.0; }
]]>
</style>
<script type="application/ecmascript"><![CDATA[
document.addEventListener('DOMContentLoaded', (event) => {
  highlightEdges();
  highlightAdjacentNodes();
});
]]></script>
</svg>
