<?xml version="1.0" encoding="UTF-8" standalone="no"?>
<!DOCTYPE svg PUBLIC "-//W3C//DTD SVG 1.1//EN"
 "http://www.w3.org/Graphics/SVG/1.1/DTD/svg11.dtd">
<!-- Generated by graphviz version 14.0.2 (0)
 -->
<!-- Title: juce::PopupMenu::showWithOptionalCallback Pages: 1 -->
<svg width="705pt" height="558pt"
 viewBox="0.00 0.00 705.00 558.00" xmlns="http://www.w3.org/2000/svg" xmlns:xlink="http://www.w3.org/1999/xlink">
<g id="graph0" class="graph" transform="scale(1 1) rotate(0) translate(4 553.5)">
<title>juce::PopupMenu::showWithOptionalCallback</title>
<!-- Node1 -->
<g id="Node000001" class="node">
<title>Node1</title>
<g id="a_Node000001"><a xlink:title=" ">
<polygon fill="#999999" stroke="#666666" points="697,-79.5 559.5,-79.5 559.5,-49 697,-49 697,-79.5"/>
<text xml:space="preserve" text-anchor="start" x="567.5" y="-66" font-family="Helvetica,sans-Serif" font-size="10.00">juce::PopupMenu::showWith</text>
<text xml:space="preserve" text-anchor="middle" x="628.25" y="-54.75" font-family="Helvetica,sans-Serif" font-size="10.00">OptionalCallback</text>
</a>
</g>
</g>
<!-- Node1&#45;&gt;Node1 -->
<g id="edge27_Node000001_Node000001" class="edge">
<title>Node1&#45;&gt;Node1</title>
<g id="a_edge27_Node000001_Node000001"><a xlink:title=" ">
<path fill="none" stroke="#63b8ff" d="M657.72,-91.2C652.9,-94.97 643.08,-97.5 628.25,-97.5 601.13,-97.5 590.75,-89.06 597.11,-79.99"/>
<polygon fill="#63b8ff" stroke="#63b8ff" points="661.16,-91.89 659.17,-81.48 654.24,-90.86 661.16,-91.89"/>
</a>
</g>
</g>
<!-- Node2 -->
<g id="Node000002" class="node">
<title>Node2</title>
<g id="a_Node000002"><a xlink:href="classjuce_1_1PopupMenu.html#a328d8319415861a65173ee41ddd24ccd" target="_top" xlink:title=" ">
<polygon fill="white" stroke="#666666" points="523.5,-244.5 381.5,-244.5 381.5,-214 523.5,-214 523.5,-244.5"/>
<text xml:space="preserve" text-anchor="start" x="389.5" y="-231" font-family="Helvetica,sans-Serif" font-size="10.00">juce::PopupMenu::showMenu</text>
<text xml:space="preserve" text-anchor="middle" x="452.5" y="-219.75" font-family="Helvetica,sans-Serif" font-size="10.00">Async</text>
</a>
</g>
</g>
<!-- Node1&#45;&gt;Node2 -->
<g id="edge1_Node000001_Node000002" class="edge">
<title>Node1&#45;&gt;Node2</title>
<g id="a_edge1_Node000001_Node000002"><a xlink:title=" ">
<path fill="none" stroke="#63b8ff" d="M602.88,-87.39C566.93,-121.53 500.65,-184.47 469.93,-213.65"/>
<polygon fill="#63b8ff" stroke="#63b8ff" points="604.97,-90.24 609.81,-80.82 600.15,-85.16 604.97,-90.24"/>
</a>
</g>
</g>
<!-- Node21 -->
<g id="Node000021" class="node">
<title>Node21</title>
<g id="a_Node000021"><a xlink:href="classjuce_1_1PopupMenu.html#a3b8698be3ecfa181126a75b3ad8721b7" target="_top" xlink:title=" ">
<polygon fill="white" stroke="#666666" points="333.5,-79.5 191.5,-79.5 191.5,-49 333.5,-49 333.5,-79.5"/>
<text xml:space="preserve" text-anchor="start" x="199.5" y="-66" font-family="Helvetica,sans-Serif" font-size="10.00">juce::PopupMenu::showMenu</text>
<text xml:space="preserve" text-anchor="middle" x="262.5" y="-54.75" font-family="Helvetica,sans-Serif" font-size="10.00">Async</text>
</a>
</g>
</g>
<!-- Node1&#45;&gt;Node21 -->
<g id="edge25_Node000001_Node000021" class="edge">
<title>Node1&#45;&gt;Node21</title>
<g id="a_edge25_Node000001_Node000021"><a xlink:title=" ">
<path fill="none" stroke="#63b8ff" d="M548.04,-64.25C484.22,-64.25 395.32,-64.25 333.95,-64.25"/>
<polygon fill="#63b8ff" stroke="#63b8ff" points="547.74,-67.75 557.74,-64.25 547.74,-60.75 547.74,-67.75"/>
</a>
</g>
</g>
<!-- Node22 -->
<g id="Node000022" class="node">
<title>Node22</title>
<g id="a_Node000022"><a xlink:href="classjuce_1_1PopupMenu.html#a7bfc9cc5ef91d95add059cbfc71e0a0a" target="_top" xlink:title=" ">
<polygon fill="white" stroke="#666666" points="333.5,-30.5 191.5,-30.5 191.5,0 333.5,0 333.5,-30.5"/>
<text xml:space="preserve" text-anchor="start" x="199.5" y="-17" font-family="Helvetica,sans-Serif" font-size="10.00">juce::PopupMenu::showMenu</text>
<text xml:space="preserve" text-anchor="middle" x="262.5" y="-5.75" font-family="Helvetica,sans-Serif" font-size="10.00">Async</text>
</a>
</g>
</g>
<!-- Node1&#45;&gt;Node22 -->
<g id="edge26_Node000001_Node000022" class="edge">
<title>Node1&#45;&gt;Node22</title>
<g id="a_edge26_Node000001_Node000022"><a xlink:title=" ">
<path fill="none" stroke="#63b8ff" d="M548.04,-53.58C484.22,-44.98 395.32,-33.01 333.95,-24.74"/>
<polygon fill="#63b8ff" stroke="#63b8ff" points="547.38,-57.02 557.76,-54.89 548.31,-50.09 547.38,-57.02"/>
</a>
</g>
</g>
<!-- Node2&#45;&gt;Node2 -->
<g id="edge16_Node000002_Node000002" class="edge">
<title>Node2&#45;&gt;Node2</title>
<g id="a_edge16_Node000002_Node000002"><a xlink:title=" ">
<path fill="none" stroke="#63b8ff" d="M481.97,-256.2C477.15,-259.97 467.33,-262.5 452.5,-262.5 425.38,-262.5 415,-254.06 421.36,-244.99"/>
<polygon fill="#63b8ff" stroke="#63b8ff" points="485.41,-256.89 483.42,-246.48 478.49,-255.86 485.41,-256.89"/>
</a>
</g>
</g>
<!-- Node3 -->
<g id="Node000003" class="node">
<title>Node3</title>
<g id="a_Node000003"><a xlink:href="classjuce_1_1KeyMappingEditorComponent_1_1ChangeKeyButton.html#ac5ce9520968aa34729f101e05931daa5" target="_top" xlink:title=" ">
<polygon fill="white" stroke="#666666" points="345.5,-195.5 179.5,-195.5 179.5,-165 345.5,-165 345.5,-195.5"/>
<text xml:space="preserve" text-anchor="start" x="187.5" y="-182" font-family="Helvetica,sans-Serif" font-size="10.00">juce::KeyMappingEditorComponent</text>
<text xml:space="preserve" text-anchor="middle" x="262.5" y="-170.75" font-family="Helvetica,sans-Serif" font-size="10.00">::ChangeKeyButton::clicked</text>
</a>
</g>
</g>
<!-- Node2&#45;&gt;Node3 -->
<g id="edge2_Node000002_Node000003" class="edge">
<title>Node2&#45;&gt;Node3</title>
<g id="a_edge2_Node000002_Node000003"><a xlink:title=" ">
<path fill="none" stroke="#63b8ff" d="M380.16,-210.66C361.56,-205.81 341.7,-200.63 323.74,-195.95"/>
<polygon fill="#63b8ff" stroke="#63b8ff" points="379.22,-214.03 389.78,-213.16 380.98,-207.25 379.22,-214.03"/>
</a>
</g>
</g>
<!-- Node4 -->
<g id="Node000004" class="node">
<title>Node4</title>
<g id="a_Node000004"><a xlink:href="classjuce_1_1CodeEditorComponent.html#a95420f31a94330d07e217789826eb67d" target="_top" xlink:title=" ">
<polygon fill="white" stroke="#666666" points="330.12,-128.5 194.88,-128.5 194.88,-98 330.12,-98 330.12,-128.5"/>
<text xml:space="preserve" text-anchor="start" x="202.88" y="-115" font-family="Helvetica,sans-Serif" font-size="10.00">juce::CodeEditorComponent</text>
<text xml:space="preserve" text-anchor="middle" x="262.5" y="-103.75" font-family="Helvetica,sans-Serif" font-size="10.00">::mouseDown</text>
</a>
</g>
</g>
<!-- Node2&#45;&gt;Node4 -->
<g id="edge3_Node000002_Node000004" class="edge">
<title>Node2&#45;&gt;Node4</title>
<g id="a_edge3_Node000002_Node000004"><a xlink:title=" ">
<path fill="none" stroke="#63b8ff" d="M421.19,-206.93C400.33,-191.94 371.76,-172.1 345.5,-156.25 329.4,-146.53 310.89,-136.71 295.53,-128.92"/>
<polygon fill="#63b8ff" stroke="#63b8ff" points="419.1,-209.74 429.25,-212.77 423.2,-204.07 419.1,-209.74"/>
</a>
</g>
</g>
<!-- Node5 -->
<g id="Node000005" class="node">
<title>Node5</title>
<g id="a_Node000005"><a xlink:href="classjuce_1_1ColourSelector_1_1SwatchComponent.html#a6333d1cd5ffdd264afdff564f76b8a0f" target="_top" xlink:title=" ">
<polygon fill="white" stroke="#666666" points="343.25,-549.5 181.75,-549.5 181.75,-519 343.25,-519 343.25,-549.5"/>
<text xml:space="preserve" text-anchor="start" x="189.75" y="-536" font-family="Helvetica,sans-Serif" font-size="10.00">juce::ColourSelector</text>
<text xml:space="preserve" text-anchor="middle" x="262.5" y="-524.75" font-family="Helvetica,sans-Serif" font-size="10.00">::SwatchComponent::mouseDown</text>
</a>
</g>
</g>
<!-- Node2&#45;&gt;Node5 -->
<g id="edge5_Node000002_Node000005" class="edge">
<title>Node2&#45;&gt;Node5</title>
<g id="a_edge5_Node000002_Node000005"><a xlink:title=" ">
<path fill="none" stroke="#63b8ff" d="M449.17,-256.34C442.91,-312.15 420.7,-440.56 345.5,-510.25 342.02,-513.48 338.13,-516.27 333.98,-518.69"/>
<polygon fill="#63b8ff" stroke="#63b8ff" points="452.65,-256.79 450.18,-246.48 445.68,-256.07 452.65,-256.79"/>
</a>
</g>
</g>
<!-- Node6 -->
<g id="Node000006" class="node">
<title>Node6</title>
<g id="a_Node000006"><a xlink:href="classjuce_1_1TextEditor.html#a4abbc96b42b14d79fe0c8357e8f1a8ba" target="_top" xlink:title=" ">
<polygon fill="white" stroke="#666666" points="332.75,-482.88 192.25,-482.88 192.25,-463.62 332.75,-463.62 332.75,-482.88"/>
<text xml:space="preserve" text-anchor="middle" x="262.5" y="-469.38" font-family="Helvetica,sans-Serif" font-size="10.00">juce::TextEditor::mouseDown</text>
</a>
</g>
</g>
<!-- Node2&#45;&gt;Node6 -->
<g id="edge6_Node000002_Node000006" class="edge">
<title>Node2&#45;&gt;Node6</title>
<g id="a_edge6_Node000002_Node000006"><a xlink:title=" ">
<path fill="none" stroke="#63b8ff" d="M446.72,-256.16C436.8,-303.78 409.33,-402.73 345.5,-454.25 341.07,-457.83 336.08,-460.76 330.81,-463.15"/>
<polygon fill="#63b8ff" stroke="#63b8ff" points="450.14,-256.92 448.63,-246.44 443.27,-255.57 450.14,-256.92"/>
</a>
</g>
</g>
<!-- Node7 -->
<g id="Node000007" class="node">
<title>Node7</title>
<g id="a_Node000007"><a xlink:href="classjuce_1_1TableHeaderComponent.html#a49c8d1e5ece9849203b55852a47f1943" target="_top" xlink:title=" ">
<polygon fill="white" stroke="#666666" points="334.25,-427.5 190.75,-427.5 190.75,-397 334.25,-397 334.25,-427.5"/>
<text xml:space="preserve" text-anchor="start" x="198.75" y="-414" font-family="Helvetica,sans-Serif" font-size="10.00">juce::TableHeaderComponent</text>
<text xml:space="preserve" text-anchor="middle" x="262.5" y="-402.75" font-family="Helvetica,sans-Serif" font-size="10.00">::showColumnChooserMenu</text>
</a>
</g>
</g>
<!-- Node2&#45;&gt;Node7 -->
<g id="edge8_Node000002_Node000007" class="edge">
<title>Node2&#45;&gt;Node7</title>
<g id="a_edge8_Node000002_Node000007"><a xlink:title=" ">
<path fill="none" stroke="#63b8ff" d="M440.83,-255.24C425.11,-290.33 392.43,-352.46 345.5,-387.25 340.6,-390.88 335.16,-393.99 329.49,-396.66"/>
<polygon fill="#63b8ff" stroke="#63b8ff" points="443.96,-256.82 444.73,-246.25 437.54,-254.03 443.96,-256.82"/>
</a>
</g>
</g>
<!-- Node9 -->
<g id="Node000009" class="node">
<title>Node9</title>
<g id="a_Node000009"><a xlink:href="classjuce_1_1TabbedButtonBar.html#acb878743fa2babce31da06ba61683ded" target="_top" xlink:title=" ">
<polygon fill="white" stroke="#666666" points="319.62,-360.5 205.38,-360.5 205.38,-330 319.62,-330 319.62,-360.5"/>
<text xml:space="preserve" text-anchor="start" x="213.38" y="-347" font-family="Helvetica,sans-Serif" font-size="10.00">juce::TabbedButtonBar</text>
<text xml:space="preserve" text-anchor="middle" x="262.5" y="-335.75" font-family="Helvetica,sans-Serif" font-size="10.00">::showExtraItemsMenu</text>
</a>
</g>
</g>
<!-- Node2&#45;&gt;Node9 -->
<g id="edge12_Node000002_Node000009" class="edge">
<title>Node2&#45;&gt;Node9</title>
<g id="a_edge12_Node000002_Node000009"><a xlink:title=" ">
<path fill="none" stroke="#63b8ff" d="M429.67,-252.86C409.58,-273.31 378.04,-302.36 345.5,-320.25 337.54,-324.62 328.72,-328.33 319.9,-331.45"/>
<polygon fill="#63b8ff" stroke="#63b8ff" points="432.09,-255.4 436.5,-245.76 427.04,-250.54 432.09,-255.4"/>
</a>
</g>
</g>
<!-- Node2&#45;&gt;Node21 -->
<g id="edge17_Node000002_Node000021" class="edge">
<title>Node2&#45;&gt;Node21</title>
<g id="a_edge17_Node000002_Node000021"><a xlink:title=" ">
<path fill="none" stroke="#63b8ff" d="M438.57,-203.48C421.47,-171.99 388.44,-119.22 345.5,-89.25 340.37,-85.67 334.72,-82.6 328.86,-79.95"/>
<polygon fill="#63b8ff" stroke="#63b8ff" points="435.47,-205.11 443.23,-212.32 441.66,-201.84 435.47,-205.11"/>
</a>
</g>
</g>
<!-- Node2&#45;&gt;Node22 -->
<g id="edge18_Node000002_Node000022" class="edge">
<title>Node2&#45;&gt;Node22</title>
<g id="a_edge18_Node000002_Node000022"><a xlink:title=" ">
<path fill="none" stroke="#63b8ff" d="M443.73,-202.71C430.39,-161.79 399.24,-83.52 345.5,-40.25 340.98,-36.61 335.93,-33.5 330.62,-30.84"/>
<polygon fill="#63b8ff" stroke="#63b8ff" points="440.38,-203.72 446.71,-212.22 447.06,-201.63 440.38,-203.72"/>
</a>
</g>
</g>
<!-- Node23 -->
<g id="Node000023" class="node">
<title>Node23</title>
<g id="a_Node000023"><a xlink:href="classjuce_1_1Toolbar.html#a2b1fe9e6ea6b31fb6cb352a2485ecccb" target="_top" xlink:title=" ">
<polygon fill="white" stroke="#666666" points="328.62,-293.5 196.38,-293.5 196.38,-263 328.62,-263 328.62,-293.5"/>
<text xml:space="preserve" text-anchor="start" x="204.38" y="-280" font-family="Helvetica,sans-Serif" font-size="10.00">juce::Toolbar::showMissing</text>
<text xml:space="preserve" text-anchor="middle" x="262.5" y="-268.75" font-family="Helvetica,sans-Serif" font-size="10.00">Items</text>
</a>
</g>
</g>
<!-- Node2&#45;&gt;Node23 -->
<g id="edge19_Node000002_Node000023" class="edge">
<title>Node2&#45;&gt;Node23</title>
<g id="a_edge19_Node000002_Node000023"><a xlink:title=" ">
<path fill="none" stroke="#63b8ff" d="M380.16,-247.84C361.56,-252.69 341.7,-257.87 323.74,-262.55"/>
<polygon fill="#63b8ff" stroke="#63b8ff" points="380.98,-251.25 389.78,-245.34 379.22,-244.47 380.98,-251.25"/>
</a>
</g>
</g>
<!-- Node32 -->
<g id="Node000032" class="node">
<title>Node32</title>
<g id="a_Node000032"><a xlink:href="classjuce_1_1Slider_1_1Pimpl.html#a32040e2e05ba3a1bcde8908a56f00ed9" target="_top" xlink:title=" ">
<polygon fill="white" stroke="#666666" points="310.25,-244.5 214.75,-244.5 214.75,-214 310.25,-214 310.25,-244.5"/>
<text xml:space="preserve" text-anchor="start" x="222.75" y="-231" font-family="Helvetica,sans-Serif" font-size="10.00">juce::Slider::Pimpl</text>
<text xml:space="preserve" text-anchor="middle" x="262.5" y="-219.75" font-family="Helvetica,sans-Serif" font-size="10.00">::showPopupMenu</text>
</a>
</g>
</g>
<!-- Node2&#45;&gt;Node32 -->
<g id="edge23_Node000002_Node000032" class="edge">
<title>Node2&#45;&gt;Node32</title>
<g id="a_edge23_Node000002_Node000032"><a xlink:title=" ">
<path fill="none" stroke="#63b8ff" d="M369.77,-229.25C349.54,-229.25 328.54,-229.25 310.6,-229.25"/>
<polygon fill="#63b8ff" stroke="#63b8ff" points="369.71,-232.75 379.71,-229.25 369.71,-225.75 369.71,-232.75"/>
</a>
</g>
</g>
<!-- Node4&#45;&gt;Node4 -->
<g id="edge4_Node000004_Node000004" class="edge">
<title>Node4&#45;&gt;Node4</title>
<g id="a_edge4_Node000004_Node000004"><a xlink:title=" ">
<path fill="none" stroke="#63b8ff" d="M294.36,-140.2C289.15,-143.97 278.53,-146.5 262.5,-146.5 233.18,-146.5 221.96,-138.06 228.83,-128.99"/>
<polygon fill="#63b8ff" stroke="#63b8ff" points="297.79,-140.91 295.93,-130.48 290.88,-139.8 297.79,-140.91"/>
</a>
</g>
</g>
<!-- Node6&#45;&gt;Node6 -->
<g id="edge7_Node000006_Node000006" class="edge">
<title>Node6&#45;&gt;Node6</title>
<g id="a_edge7_Node000006_Node000006"><a xlink:title=" ">
<path fill="none" stroke="#63b8ff" d="M296.88,-493.6C293.27,-497.83 281.81,-500.88 262.5,-500.88 229.1,-500.88 219.19,-491.77 232.75,-483.16"/>
<polygon fill="#63b8ff" stroke="#63b8ff" points="300.12,-492.27 292.86,-484.55 293.72,-495.11 300.12,-492.27"/>
</a>
</g>
</g>
<!-- Node7&#45;&gt;Node7 -->
<g id="edge11_Node000007_Node000007" class="edge">
<title>Node7&#45;&gt;Node7</title>
<g id="a_edge11_Node000007_Node000007"><a xlink:title=" ">
<path fill="none" stroke="#63b8ff" d="M294.36,-439.2C289.15,-442.97 278.53,-445.5 262.5,-445.5 233.18,-445.5 221.96,-437.06 228.83,-427.99"/>
<polygon fill="#63b8ff" stroke="#63b8ff" points="297.79,-439.91 295.93,-429.48 290.88,-438.8 297.79,-439.91"/>
</a>
</g>
</g>
<!-- Node8 -->
<g id="Node000008" class="node">
<title>Node8</title>
<g id="a_Node000008"><a xlink:href="classjuce_1_1TableHeaderComponent.html#aea200013ad562450abb4c613879d8787" target="_top" xlink:title=" ">
<polygon fill="white" stroke="#666666" points="143.5,-427.5 0,-427.5 0,-397 143.5,-397 143.5,-427.5"/>
<text xml:space="preserve" text-anchor="start" x="8" y="-414" font-family="Helvetica,sans-Serif" font-size="10.00">juce::TableHeaderComponent</text>
<text xml:space="preserve" text-anchor="middle" x="71.75" y="-402.75" font-family="Helvetica,sans-Serif" font-size="10.00">::mouseDown</text>
</a>
</g>
</g>
<!-- Node7&#45;&gt;Node8 -->
<g id="edge9_Node000007_Node000008" class="edge">
<title>Node7&#45;&gt;Node8</title>
<g id="a_edge9_Node000007_Node000008"><a xlink:title=" ">
<path fill="none" stroke="#63b8ff" d="M179.2,-412.25C167.39,-412.25 155.34,-412.25 143.78,-412.25"/>
<polygon fill="#63b8ff" stroke="#63b8ff" points="178.9,-415.75 188.9,-412.25 178.9,-408.75 178.9,-415.75"/>
</a>
</g>
</g>
<!-- Node8&#45;&gt;Node8 -->
<g id="edge10_Node000008_Node000008" class="edge">
<title>Node8&#45;&gt;Node8</title>
<g id="a_edge10_Node000008_Node000008"><a xlink:title=" ">
<path fill="none" stroke="#63b8ff" d="M103.74,-439.2C98.51,-442.97 87.85,-445.5 71.75,-445.5 42.32,-445.5 31.05,-437.06 37.95,-427.99"/>
<polygon fill="#63b8ff" stroke="#63b8ff" points="107.17,-439.91 105.31,-429.48 100.26,-438.79 107.17,-439.91"/>
</a>
</g>
</g>
<!-- Node9&#45;&gt;Node9 -->
<g id="edge13_Node000009_Node000009" class="edge">
<title>Node9&#45;&gt;Node9</title>
<g id="a_edge13_Node000009_Node000009"><a xlink:title=" ">
<path fill="none" stroke="#63b8ff" d="M294.36,-372.2C289.15,-375.97 278.53,-378.5 262.5,-378.5 233.18,-378.5 221.96,-370.06 228.83,-360.99"/>
<polygon fill="#63b8ff" stroke="#63b8ff" points="297.79,-372.91 295.93,-362.48 290.88,-371.8 297.79,-372.91"/>
</a>
</g>
</g>
<!-- Node10 -->
<g id="Node000010" class="node">
<title>Node10</title>
<g id="a_Node000010"><a xlink:href="classjuce_1_1TabbedButtonBar.html#a3c248efce8f094b7950e5d9a6ffca8a0" target="_top" xlink:title=" ">
<polygon fill="#fff0f0" stroke="red" points="128.88,-360.5 14.62,-360.5 14.62,-330 128.88,-330 128.88,-360.5"/>
<text xml:space="preserve" text-anchor="start" x="22.62" y="-347" font-family="Helvetica,sans-Serif" font-size="10.00">juce::TabbedButtonBar</text>
<text xml:space="preserve" text-anchor="middle" x="71.75" y="-335.75" font-family="Helvetica,sans-Serif" font-size="10.00">::updateTabPositions</text>
</a>
</g>
</g>
<!-- Node9&#45;&gt;Node10 -->
<g id="edge14_Node000009_Node000010" class="edge">
<title>Node9&#45;&gt;Node10</title>
<g id="a_edge14_Node000009_Node000010"><a xlink:title=" ">
<path fill="none" stroke="#63b8ff" d="M193.61,-345.25C172.48,-345.25 149.42,-345.25 129.16,-345.25"/>
<polygon fill="#63b8ff" stroke="#63b8ff" points="193.61,-348.75 203.61,-345.25 193.61,-341.75 193.61,-348.75"/>
</a>
</g>
</g>
<!-- Node10&#45;&gt;Node10 -->
<g id="edge15_Node000010_Node000010" class="edge">
<title>Node10&#45;&gt;Node10</title>
<g id="a_edge15_Node000010_Node000010"><a xlink:title=" ">
<path fill="none" stroke="#63b8ff" d="M103.74,-372.2C98.51,-375.97 87.85,-378.5 71.75,-378.5 42.32,-378.5 31.05,-370.06 37.95,-360.99"/>
<polygon fill="#63b8ff" stroke="#63b8ff" points="107.17,-372.91 105.31,-362.48 100.26,-371.79 107.17,-372.91"/>
</a>
</g>
</g>
<!-- Node23&#45;&gt;Node23 -->
<g id="edge22_Node000023_Node000023" class="edge">
<title>Node23&#45;&gt;Node23</title>
<g id="a_edge22_Node000023_Node000023"><a xlink:title=" ">
<path fill="none" stroke="#63b8ff" d="M294.36,-305.2C289.15,-308.97 278.53,-311.5 262.5,-311.5 233.18,-311.5 221.96,-303.06 228.83,-293.99"/>
<polygon fill="#63b8ff" stroke="#63b8ff" points="297.79,-305.91 295.93,-295.48 290.88,-304.8 297.79,-305.91"/>
</a>
</g>
</g>
<!-- Node24 -->
<g id="Node000024" class="node">
<title>Node24</title>
<g id="a_Node000024"><a xlink:href="classjuce_1_1Toolbar.html#ab5ba2e8819c4d6d852fda95adbc51972" target="_top" xlink:title=" ">
<polygon fill="#fff0f0" stroke="red" points="132.62,-293.5 10.88,-293.5 10.88,-263 132.62,-263 132.62,-293.5"/>
<text xml:space="preserve" text-anchor="start" x="18.88" y="-280" font-family="Helvetica,sans-Serif" font-size="10.00">juce::Toolbar::initMissing</text>
<text xml:space="preserve" text-anchor="middle" x="71.75" y="-268.75" font-family="Helvetica,sans-Serif" font-size="10.00">ItemButton</text>
</a>
</g>
</g>
<!-- Node23&#45;&gt;Node24 -->
<g id="edge20_Node000023_Node000024" class="edge">
<title>Node23&#45;&gt;Node24</title>
<g id="a_edge20_Node000023_Node000024"><a xlink:title=" ">
<path fill="none" stroke="#63b8ff" d="M184.83,-278.25C167.58,-278.25 149.52,-278.25 133.06,-278.25"/>
<polygon fill="#63b8ff" stroke="#63b8ff" points="184.5,-281.75 194.5,-278.25 184.5,-274.75 184.5,-281.75"/>
</a>
</g>
</g>
<!-- Node24&#45;&gt;Node24 -->
<g id="edge21_Node000024_Node000024" class="edge">
<title>Node24&#45;&gt;Node24</title>
<g id="a_edge21_Node000024_Node000024"><a xlink:title=" ">
<path fill="none" stroke="#63b8ff" d="M103.74,-305.2C98.51,-308.97 87.85,-311.5 71.75,-311.5 42.32,-311.5 31.05,-303.06 37.95,-293.99"/>
<polygon fill="#63b8ff" stroke="#63b8ff" points="107.17,-305.91 105.31,-295.48 100.26,-304.79 107.17,-305.91"/>
</a>
</g>
</g>
<!-- Node33 -->
<g id="Node000033" class="node">
<title>Node33</title>
<g id="a_Node000033"><a xlink:href="classjuce_1_1Slider_1_1Pimpl.html#ac687ce7a474ae7962470ae6b06d19127" target="_top" xlink:title=" ">
<polygon fill="white" stroke="#666666" points="118,-244.5 25.5,-244.5 25.5,-214 118,-214 118,-244.5"/>
<text xml:space="preserve" text-anchor="start" x="33.5" y="-231" font-family="Helvetica,sans-Serif" font-size="10.00">juce::Slider::Pimpl</text>
<text xml:space="preserve" text-anchor="middle" x="71.75" y="-219.75" font-family="Helvetica,sans-Serif" font-size="10.00">::mouseDown</text>
</a>
</g>
</g>
<!-- Node32&#45;&gt;Node33 -->
<g id="edge24_Node000032_Node000033" class="edge">
<title>Node32&#45;&gt;Node33</title>
<g id="a_edge24_Node000032_Node000033"><a xlink:title=" ">
<path fill="none" stroke="#63b8ff" d="M202.99,-229.25C175.72,-229.25 143.75,-229.25 118.32,-229.25"/>
<polygon fill="#63b8ff" stroke="#63b8ff" points="202.84,-232.75 212.84,-229.25 202.84,-225.75 202.84,-232.75"/>
</a>
</g>
</g>
</g>
</svg>
