<?xml version="1.0" encoding="UTF-8" standalone="no"?>
<!DOCTYPE svg PUBLIC "-//W3C//DTD SVG 1.1//EN"
 "http://www.w3.org/Graphics/SVG/1.1/DTD/svg11.dtd">
<!-- Generated by graphviz version 14.0.2 (0)
 -->
<!-- Title: juce::Thread::waitForThreadToExit Pages: 1 -->
<!--zoomable 1022 -->

<svg id="main" version="1.1" xmlns="http://www.w3.org/2000/svg" xmlns:xlink="http://www.w3.org/1999/xlink" xml:space="preserve" onload="init(evt)">

<style type="text/css"><![CDATA[
.node, .edge {opacity: 0.7;}
.node.selected, .edge.selected {opacity: 1;}
.edge:hover path { stroke: red; }
.edge:hover polygon { stroke: red; fill: red; }
]]></style>

<defs>
  <circle id="rim" cx="0" cy="0" r="7"/>
  <circle id="rim2" cx="0" cy="0" r="3.5"/>
  <g id="zoomPlus">
    <use xlink:href="#rim" fill="#404040"><set attributeName="fill" to="#808080" begin="zoomplus.mouseover" end="zoomplus.mouseout"/></use>
    <path d="M-4,0h8M0,-4v8" fill="none" stroke="white" stroke-width="1.5" pointer-events="none"/>
  </g>
  <g id="zoomMin">
    <use xlink:href="#rim" fill="#404040"><set attributeName="fill" to="#808080" begin="zoomminus.mouseover" end="zoomminus.mouseout"/></use>
    <path d="M-4,0h8" fill="none" stroke="white" stroke-width="1.5" pointer-events="none"/>
  </g>
  <g id="arrowUp" transform="translate(30 24)">
    <use xlink:href="#rim"/>
    <path pointer-events="none" fill="none" stroke="white" stroke-width="1.5" d="M0,-3.0v7 M-2.5,-0.5L0,-3.0L2.5,-0.5"/>
  </g>
  <g id="arrowRight" transform="rotate(90) translate(36 -43)">
    <use xlink:href="#rim"/>
    <path pointer-events="none" fill="none" stroke="white" stroke-width="1.5" d="M0,-3.0v7 M-2.5,-0.5L0,-3.0L2.5,-0.5"/>
  </g>
  <g id="arrowDown" transform="rotate(180) translate(-30 -48)">
    <use xlink:href="#rim"/>
    <path pointer-events="none" fill="none" stroke="white" stroke-width="1.5" d="M0,-3.0v7 M-2.5,-0.5L0,-3.0L2.5,-0.5"/>
  </g>
  <g id="arrowLeft" transform="rotate(270) translate(-36 17)">
    <use xlink:href="#rim"/>
    <path pointer-events="none" fill="none" stroke="white" stroke-width="1.5" d="M0,-3.0v7 M-2.5,-0.5L0,-3.0L2.5,-0.5"/>
  </g>
  <g id="resetDef">
    <use xlink:href="#rim2" fill="#404040"><set attributeName="fill" to="#808080" begin="reset.mouseover" end="reset.mouseout"/></use>
  </g>
</defs>
<script type="application/ecmascript">
var viewWidth = 894;
var viewHeight = 1022;
var sectionId = 'dynsection-61';
</script>
<script type="application/ecmascript" xlink:href="svg.min.js"/>
<svg id="graph" class="graph">
<g id="viewport">
<title>juce::Thread::waitForThreadToExit</title>
<!-- Node1 -->
<g id="Node000001" class="node">
<title>Node1</title>
<g id="a_Node000001"><a xlink:title=" ">
<polygon fill="#999999" stroke="#666666" points="885.5,-910.5 750.25,-910.5 750.25,-880 885.5,-880 885.5,-910.5"/>
<text xml:space="preserve" text-anchor="start" x="758.25" y="-897" font-family="Helvetica,sans-Serif" font-size="10.00">juce::Thread::waitForThread</text>
<text xml:space="preserve" text-anchor="middle" x="817.88" y="-885.75" font-family="Helvetica,sans-Serif" font-size="10.00">ToExit</text>
</a>
</g>
</g>
<!-- Node1&#45;&gt;Node1 -->
<g id="edge42_Node000001_Node000001" class="edge">
<title>Node1&#45;&gt;Node1</title>
<g id="a_edge42_Node000001_Node000001"><a xlink:title=" ">
<path fill="none" stroke="#63b8ff" d="M847.29,-922.2C842.48,-925.97 832.67,-928.5 817.88,-928.5 790.82,-928.5 780.46,-920.06 786.8,-910.99"/>
<polygon fill="#63b8ff" stroke="#63b8ff" points="850.72,-922.89 848.73,-912.48 843.8,-921.86 850.72,-922.89"/>
</a>
</g>
</g>
<!-- Node2 -->
<g id="Node000002" class="node">
<title>Node2</title>
<g id="a_Node000002"><a xlink:href="classjuce_1_1WebBrowserComponent_1_1Pimpl.html#a832f942d076f5fc5107cad3317876e5d" target="_top" xlink:title=" ">
<polygon fill="white" stroke="#666666" points="714.25,-953.5 570.75,-953.5 570.75,-923 714.25,-923 714.25,-953.5"/>
<text xml:space="preserve" text-anchor="start" x="578.75" y="-940" font-family="Helvetica,sans-Serif" font-size="10.00">juce::WebBrowserComponent</text>
<text xml:space="preserve" text-anchor="middle" x="642.5" y="-928.75" font-family="Helvetica,sans-Serif" font-size="10.00">::Pimpl::quit</text>
</a>
</g>
</g>
<!-- Node1&#45;&gt;Node2 -->
<g id="edge1_Node000001_Node000002" class="edge">
<title>Node1&#45;&gt;Node2</title>
<g id="a_edge1_Node000001_Node000002"><a xlink:title=" ">
<path fill="none" stroke="#63b8ff" d="M742.89,-913.6C730.88,-916.58 718.55,-919.64 706.83,-922.54"/>
<polygon fill="#63b8ff" stroke="#63b8ff" points="743.46,-917.06 752.32,-911.26 741.77,-910.27 743.46,-917.06"/>
</a>
</g>
</g>
<!-- Node4 -->
<g id="Node000004" class="node">
<title>Node4</title>
<g id="a_Node000004"><a xlink:href="classjuce_1_1Thread.html#a7ab346d5c4a177c46ac7ef99720444b7" target="_top" xlink:title=" ">
<polygon fill="white" stroke="#666666" points="486.38,-904.88 399.88,-904.88 399.88,-885.62 486.38,-885.62 486.38,-904.88"/>
<text xml:space="preserve" text-anchor="middle" x="443.12" y="-891.38" font-family="Helvetica,sans-Serif" font-size="10.00">juce::Thread::run</text>
</a>
</g>
</g>
<!-- Node1&#45;&gt;Node4 -->
<g id="edge3_Node000001_Node000004" class="edge">
<title>Node1&#45;&gt;Node4</title>
<g id="a_edge3_Node000001_Node000004"><a xlink:title=" ">
<path fill="none" stroke="#63b8ff" d="M738.31,-895.25C661.7,-895.25 548.05,-895.25 486.86,-895.25"/>
<polygon fill="#63b8ff" stroke="#63b8ff" points="738.29,-898.75 748.29,-895.25 738.29,-891.75 738.29,-898.75"/>
</a>
</g>
</g>
<!-- Node5 -->
<g id="Node000005" class="node">
<title>Node5</title>
<g id="a_Node000005"><a xlink:href="classjuce_1_1Thread.html#a18583d51411d6a34c59b63f0adff4697" target="_top" xlink:title=" ">
<polygon fill="white" stroke="#666666" points="703.38,-453.88 581.62,-453.88 581.62,-434.62 703.38,-434.62 703.38,-453.88"/>
<text xml:space="preserve" text-anchor="middle" x="642.5" y="-440.38" font-family="Helvetica,sans-Serif" font-size="10.00">juce::Thread::stopThread</text>
</a>
</g>
</g>
<!-- Node1&#45;&gt;Node5 -->
<g id="edge4_Node000001_Node000005" class="edge">
<title>Node1&#45;&gt;Node5</title>
<g id="a_edge4_Node000001_Node000005"><a xlink:title=" ">
<path fill="none" stroke="#63b8ff" d="M806.8,-869.05C773.64,-782.78 668.74,-509.9 647.34,-454.23"/>
<polygon fill="#63b8ff" stroke="#63b8ff" points="803.51,-870.23 810.36,-878.31 810.04,-867.72 803.51,-870.23"/>
</a>
</g>
</g>
<!-- Node3 -->
<g id="Node000003" class="node">
<title>Node3</title>
<g id="a_Node000003"><a xlink:href="classjuce_1_1WebBrowserComponent_1_1Pimpl.html#ac2cf16152b6a5ee79522ec841aa1f3c5" target="_top" xlink:title=" ">
<polygon fill="white" stroke="#666666" points="514.88,-953.5 371.38,-953.5 371.38,-923 514.88,-923 514.88,-953.5"/>
<text xml:space="preserve" text-anchor="start" x="379.38" y="-940" font-family="Helvetica,sans-Serif" font-size="10.00">juce::WebBrowserComponent</text>
<text xml:space="preserve" text-anchor="middle" x="443.12" y="-928.75" font-family="Helvetica,sans-Serif" font-size="10.00">::Pimpl::~Pimpl</text>
</a>
</g>
</g>
<!-- Node2&#45;&gt;Node3 -->
<g id="edge2_Node000002_Node000003" class="edge">
<title>Node2&#45;&gt;Node3</title>
<g id="a_edge2_Node000002_Node000003"><a xlink:title=" ">
<path fill="none" stroke="#63b8ff" d="M559.4,-938.25C544.7,-938.25 529.49,-938.25 515.14,-938.25"/>
<polygon fill="#63b8ff" stroke="#63b8ff" points="559.01,-941.75 569.01,-938.25 559.01,-934.75 559.01,-941.75"/>
</a>
</g>
</g>
<!-- Node5&#45;&gt;Node4 -->
<g id="edge20_Node000005_Node000004" class="edge">
<title>Node5&#45;&gt;Node4</title>
<g id="a_edge20_Node000005_Node000004"><a xlink:title=" ">
<path fill="none" stroke="#63b8ff" d="M639.25,-465.23C630.41,-543.58 595.57,-817.55 534.75,-876.25 522.03,-888.53 503.5,-893.76 486.52,-895.74"/>
<polygon fill="#63b8ff" stroke="#63b8ff" points="642.7,-465.86 640.32,-455.54 635.74,-465.09 642.7,-465.86"/>
</a>
</g>
</g>
<!-- Node5&#45;&gt;Node5 -->
<g id="edge27_Node000005_Node000005" class="edge">
<title>Node5&#45;&gt;Node5</title>
<g id="a_edge27_Node000005_Node000005"><a xlink:title=" ">
<path fill="none" stroke="#63b8ff" d="M673.95,-464.94C670.32,-468.99 659.84,-471.88 642.5,-471.88 611.67,-471.88 602.52,-462.77 615.04,-454.16"/>
<polygon fill="#63b8ff" stroke="#63b8ff" points="677.24,-463.75 670.48,-455.58 670.67,-466.18 677.24,-463.75"/>
</a>
</g>
</g>
<!-- Node6 -->
<g id="Node000006" class="node">
<title>Node6</title>
<g id="a_Node000006"><a xlink:href="classjuce_1_1CoreAudioClasses_1_1AudioIODeviceCombiner.html#ad3ae6fd98197a3f43d5ec31c542a0ec3" target="_top" xlink:title=" ">
<polygon fill="white" stroke="#666666" points="506.62,-867.12 379.62,-867.12 379.62,-825.38 506.62,-825.38 506.62,-867.12"/>
<text xml:space="preserve" text-anchor="start" x="387.62" y="-853.62" font-family="Helvetica,sans-Serif" font-size="10.00">juce::CoreAudioClasses</text>
<text xml:space="preserve" text-anchor="start" x="387.62" y="-842.38" font-family="Helvetica,sans-Serif" font-size="10.00">::AudioIODeviceCombiner</text>
<text xml:space="preserve" text-anchor="middle" x="443.12" y="-831.12" font-family="Helvetica,sans-Serif" font-size="10.00">::close</text>
</a>
</g>
</g>
<!-- Node5&#45;&gt;Node6 -->
<g id="edge5_Node000005_Node000006" class="edge">
<title>Node5&#45;&gt;Node6</title>
<g id="a_edge5_Node000005_Node000006"><a xlink:title=" ">
<path fill="none" stroke="#63b8ff" d="M639.18,-465.37C632.17,-521.1 607.07,-674.9 534.75,-777.25 521.06,-796.63 500.29,-813 482.09,-824.93"/>
<polygon fill="#63b8ff" stroke="#63b8ff" points="642.62,-466.04 640.32,-455.7 635.67,-465.22 642.62,-466.04"/>
</a>
</g>
</g>
<!-- Node12 -->
<g id="Node000012" class="node">
<title>Node12</title>
<g id="a_Node000012"><a xlink:href="classjuce_1_1WasapiClasses_1_1WASAPIAudioIODevice.html#acf7a76a4b240e9388489a3fa918584b6" target="_top" xlink:title=" ">
<polygon fill="white" stroke="#666666" points="505.5,-768.12 380.75,-768.12 380.75,-726.38 505.5,-726.38 505.5,-768.12"/>
<text xml:space="preserve" text-anchor="start" x="388.75" y="-754.62" font-family="Helvetica,sans-Serif" font-size="10.00">juce::WasapiClasses</text>
<text xml:space="preserve" text-anchor="start" x="388.75" y="-743.38" font-family="Helvetica,sans-Serif" font-size="10.00">::WASAPIAudioIODevice</text>
<text xml:space="preserve" text-anchor="middle" x="443.12" y="-732.12" font-family="Helvetica,sans-Serif" font-size="10.00">::close</text>
</a>
</g>
</g>
<!-- Node5&#45;&gt;Node12 -->
<g id="edge11_Node000005_Node000012" class="edge">
<title>Node5&#45;&gt;Node12</title>
<g id="a_edge11_Node000005_Node000012"><a xlink:title=" ">
<path fill="none" stroke="#63b8ff" d="M637.99,-465.3C629.01,-513.1 601.1,-631.18 534.75,-702.25 525.76,-711.88 514.26,-719.73 502.49,-726.02"/>
<polygon fill="#63b8ff" stroke="#63b8ff" points="641.38,-466.2 639.69,-455.74 634.49,-464.97 641.38,-466.2"/>
</a>
</g>
</g>
<!-- Node16 -->
<g id="Node000016" class="node">
<title>Node16</title>
<g id="a_Node000016"><a xlink:href="classjuce_1_1DSoundAudioIODevice.html#af7abd8e827a76fde4054ad5217df0ac2" target="_top" xlink:title=" ">
<polygon fill="white" stroke="#666666" points="512.25,-693.5 374,-693.5 374,-663 512.25,-663 512.25,-693.5"/>
<text xml:space="preserve" text-anchor="start" x="382" y="-680" font-family="Helvetica,sans-Serif" font-size="10.00">juce::DSoundAudioIODevice</text>
<text xml:space="preserve" text-anchor="middle" x="443.12" y="-668.75" font-family="Helvetica,sans-Serif" font-size="10.00">::closeDevice</text>
</a>
</g>
</g>
<!-- Node5&#45;&gt;Node16 -->
<g id="edge16_Node000005_Node000016" class="edge">
<title>Node5&#45;&gt;Node16</title>
<g id="a_edge16_Node000005_Node000016"><a xlink:title=" ">
<path fill="none" stroke="#63b8ff" d="M636.74,-465.47C626.12,-507.81 596.42,-602.99 534.75,-653.25 528.17,-658.61 520.53,-662.83 512.52,-666.14"/>
<polygon fill="#63b8ff" stroke="#63b8ff" points="640.12,-466.37 639.04,-455.83 633.31,-464.75 640.12,-466.37"/>
</a>
</g>
</g>
<!-- Node21 -->
<g id="Node000021" class="node">
<title>Node21</title>
<g id="a_Node000021"><a xlink:href="classjuce_1_1InterprocessConnectionServer.html#ad63c72c9f85387fefd14bc32e2b9bcda" target="_top" xlink:title=" ">
<polygon fill="white" stroke="#666666" points="513.75,-626.5 372.5,-626.5 372.5,-596 513.75,-596 513.75,-626.5"/>
<text xml:space="preserve" text-anchor="start" x="380.5" y="-613" font-family="Helvetica,sans-Serif" font-size="10.00">juce::InterprocessConnection</text>
<text xml:space="preserve" text-anchor="middle" x="443.12" y="-601.75" font-family="Helvetica,sans-Serif" font-size="10.00">Server::stop</text>
</a>
</g>
</g>
<!-- Node5&#45;&gt;Node21 -->
<g id="edge21_Node000005_Node000021" class="edge">
<title>Node5&#45;&gt;Node21</title>
<g id="a_edge21_Node000005_Node000021"><a xlink:title=" ">
<path fill="none" stroke="#63b8ff" d="M631.91,-464.32C616.09,-495.27 581.53,-554.41 534.75,-586.25 528.41,-590.57 521.34,-594.14 514.03,-597.1"/>
<polygon fill="#63b8ff" stroke="#63b8ff" points="634.91,-466.16 636.21,-455.65 628.63,-463.05 634.91,-466.16"/>
</a>
</g>
</g>
<!-- Node22 -->
<g id="Node000022" class="node">
<title>Node22</title>
<g id="a_Node000022"><a xlink:href="classjuce_1_1MidiOutput.html#a43c2aca0135c28963f33b1bd550267a4" target="_top" xlink:title=" ">
<polygon fill="white" stroke="#666666" points="523.5,-559.5 362.75,-559.5 362.75,-529 523.5,-529 523.5,-559.5"/>
<text xml:space="preserve" text-anchor="start" x="370.75" y="-546" font-family="Helvetica,sans-Serif" font-size="10.00">juce::MidiOutput::stopBackground</text>
<text xml:space="preserve" text-anchor="middle" x="443.12" y="-534.75" font-family="Helvetica,sans-Serif" font-size="10.00">Thread</text>
</a>
</g>
</g>
<!-- Node5&#45;&gt;Node22 -->
<g id="edge23_Node000005_Node000022" class="edge">
<title>Node5&#45;&gt;Node22</title>
<g id="a_edge23_Node000005_Node000022"><a xlink:title=" ">
<path fill="none" stroke="#63b8ff" d="M621.44,-461.55C600.91,-478.45 567.47,-503.82 534.75,-519.25 527.37,-522.73 519.41,-525.81 511.39,-528.5"/>
<polygon fill="#63b8ff" stroke="#63b8ff" points="623.59,-464.31 629.01,-455.2 619.09,-458.95 623.59,-464.31"/>
</a>
</g>
</g>
<!-- Node27 -->
<g id="Node000027" class="node">
<title>Node27</title>
<g id="a_Node000027"><a xlink:href="classjuce_1_1ThreadWithProgressWindow.html#a53cc47d5bad483583d5a7d259e91c066" target="_top" xlink:title=" ">
<polygon fill="white" stroke="#666666" points="506.62,-492.5 379.62,-492.5 379.62,-462 506.62,-462 506.62,-492.5"/>
<text xml:space="preserve" text-anchor="start" x="387.62" y="-479" font-family="Helvetica,sans-Serif" font-size="10.00">juce::ThreadWithProgress</text>
<text xml:space="preserve" text-anchor="middle" x="443.12" y="-467.75" font-family="Helvetica,sans-Serif" font-size="10.00">Window::timerCallback</text>
</a>
</g>
</g>
<!-- Node5&#45;&gt;Node27 -->
<g id="edge28_Node000005_Node000027" class="edge">
<title>Node5&#45;&gt;Node27</title>
<g id="a_edge28_Node000005_Node000027"><a xlink:title=" ">
<path fill="none" stroke="#63b8ff" d="M569.98,-456.21C549.41,-459.65 527.14,-463.37 507.12,-466.72"/>
<polygon fill="#63b8ff" stroke="#63b8ff" points="570.43,-459.68 579.72,-454.58 569.28,-452.78 570.43,-459.68"/>
</a>
</g>
</g>
<!-- Node28 -->
<g id="Node000028" class="node">
<title>Node28</title>
<g id="a_Node000028"><a xlink:href="structjuce_1_1NetworkServiceDiscovery_1_1Advertiser.html#aacaaf2e275309f23c7bd2d6195d7b5c7" target="_top" xlink:title=" ">
<polygon fill="white" stroke="#666666" points="518.62,-425.5 367.62,-425.5 367.62,-395 518.62,-395 518.62,-425.5"/>
<text xml:space="preserve" text-anchor="start" x="375.62" y="-412" font-family="Helvetica,sans-Serif" font-size="10.00">juce::NetworkServiceDiscovery</text>
<text xml:space="preserve" text-anchor="middle" x="443.12" y="-400.75" font-family="Helvetica,sans-Serif" font-size="10.00">::Advertiser::~Advertiser</text>
</a>
</g>
</g>
<!-- Node5&#45;&gt;Node28 -->
<g id="edge30_Node000005_Node000028" class="edge">
<title>Node5&#45;&gt;Node28</title>
<g id="a_edge30_Node000005_Node000028"><a xlink:title=" ">
<path fill="none" stroke="#63b8ff" d="M571.8,-432.24C554.73,-429.3 536.39,-426.14 519.08,-423.16"/>
<polygon fill="#63b8ff" stroke="#63b8ff" points="570.87,-435.64 581.32,-433.88 572.06,-428.74 570.87,-435.64"/>
</a>
</g>
</g>
<!-- Node29 -->
<g id="Node000029" class="node">
<title>Node29</title>
<g id="a_Node000029"><a xlink:href="structjuce_1_1NetworkServiceDiscovery_1_1AvailableServiceList.html#a6342a4590cc8acea67d360f66c42f07b" target="_top" xlink:title=" ">
<polygon fill="white" stroke="#666666" points="518.62,-359.12 367.62,-359.12 367.62,-317.38 518.62,-317.38 518.62,-359.12"/>
<text xml:space="preserve" text-anchor="start" x="375.62" y="-345.62" font-family="Helvetica,sans-Serif" font-size="10.00">juce::NetworkServiceDiscovery</text>
<text xml:space="preserve" text-anchor="start" x="375.62" y="-334.38" font-family="Helvetica,sans-Serif" font-size="10.00">::AvailableServiceList::</text>
<text xml:space="preserve" text-anchor="middle" x="443.12" y="-323.12" font-family="Helvetica,sans-Serif" font-size="10.00">~AvailableServiceList</text>
</a>
</g>
</g>
<!-- Node5&#45;&gt;Node29 -->
<g id="edge32_Node000005_Node000029" class="edge">
<title>Node5&#45;&gt;Node29</title>
<g id="a_edge32_Node000005_Node000029"><a xlink:title=" ">
<path fill="none" stroke="#63b8ff" d="M612.94,-428.63C591.46,-416.9 561.3,-400.49 534.75,-386.25 518.28,-377.41 500.07,-367.75 484.33,-359.42"/>
<polygon fill="#63b8ff" stroke="#63b8ff" points="611.24,-431.68 621.69,-433.41 614.59,-425.54 611.24,-431.68"/>
</a>
</g>
</g>
<!-- Node30 -->
<g id="Node000030" class="node">
<title>Node30</title>
<g id="a_Node000030"><a xlink:href="structjuce_1_1ChildProcessCoordinator_1_1Connection.html#af355f9735701b720dffe89dab92ea972" target="_top" xlink:title=" ">
<polygon fill="white" stroke="#666666" points="507,-299.5 379.25,-299.5 379.25,-269 507,-269 507,-299.5"/>
<text xml:space="preserve" text-anchor="start" x="387.25" y="-286" font-family="Helvetica,sans-Serif" font-size="10.00">ChildProcessCoordinator</text>
<text xml:space="preserve" text-anchor="middle" x="443.12" y="-274.75" font-family="Helvetica,sans-Serif" font-size="10.00">::Connection::~Connection</text>
</a>
</g>
</g>
<!-- Node5&#45;&gt;Node30 -->
<g id="edge34_Node000005_Node000030" class="edge">
<title>Node5&#45;&gt;Node30</title>
<g id="a_edge34_Node000005_Node000030"><a xlink:title=" ">
<path fill="none" stroke="#63b8ff" d="M631.28,-424.15C615,-394.21 580.33,-338.25 534.75,-308.25 526.46,-302.79 516.97,-298.57 507.33,-295.31"/>
<polygon fill="#63b8ff" stroke="#63b8ff" points="628.13,-425.68 635.89,-432.9 634.32,-422.42 628.13,-425.68"/>
</a>
</g>
</g>
<!-- Node31 -->
<g id="Node000031" class="node">
<title>Node31</title>
<g id="a_Node000031"><a xlink:href="structjuce_1_1ChildProcessWorker_1_1Connection.html#a5dc6ea8f8ce2a3920eb0cc30eebb0be0" target="_top" xlink:title=" ">
<polygon fill="white" stroke="#666666" points="507,-250.5 379.25,-250.5 379.25,-220 507,-220 507,-250.5"/>
<text xml:space="preserve" text-anchor="start" x="387.25" y="-237" font-family="Helvetica,sans-Serif" font-size="10.00">ChildProcessWorker</text>
<text xml:space="preserve" text-anchor="middle" x="443.12" y="-225.75" font-family="Helvetica,sans-Serif" font-size="10.00">::Connection::~Connection</text>
</a>
</g>
</g>
<!-- Node5&#45;&gt;Node31 -->
<g id="edge35_Node000005_Node000031" class="edge">
<title>Node5&#45;&gt;Node31</title>
<g id="a_edge35_Node000005_Node000031"><a xlink:title=" ">
<path fill="none" stroke="#63b8ff" d="M635.39,-423.74C622.93,-385.58 590.95,-303.61 534.75,-260.25 526.61,-253.97 516.99,-249.27 507.1,-245.74"/>
<polygon fill="#63b8ff" stroke="#63b8ff" points="631.97,-424.54 638.3,-433.04 638.65,-422.45 631.97,-424.54"/>
</a>
</g>
</g>
<!-- Node32 -->
<g id="Node000032" class="node">
<title>Node32</title>
<g id="a_Node000032"><a xlink:href="classjuce_1_1Thread.html#a37d9edd3a1a776cbc27dedff949c9726" target="_top" xlink:title=" ">
<polygon fill="white" stroke="#666666" points="497.25,-201.88 389,-201.88 389,-182.62 497.25,-182.62 497.25,-201.88"/>
<text xml:space="preserve" text-anchor="middle" x="443.12" y="-188.38" font-family="Helvetica,sans-Serif" font-size="10.00">juce::Thread::~Thread</text>
</a>
</g>
</g>
<!-- Node5&#45;&gt;Node32 -->
<g id="edge36_Node000005_Node000032" class="edge">
<title>Node5&#45;&gt;Node32</title>
<g id="a_edge36_Node000005_Node000032"><a xlink:title=" ">
<path fill="none" stroke="#63b8ff" d="M638.3,-423.14C630.13,-376.94 604.03,-266.58 534.75,-211.25 524.2,-202.82 510.81,-197.88 497.59,-195.04"/>
<polygon fill="#63b8ff" stroke="#63b8ff" points="634.83,-423.58 639.91,-432.88 641.73,-422.44 634.83,-423.58"/>
</a>
</g>
</g>
<!-- Node33 -->
<g id="Node000033" class="node">
<title>Node33</title>
<g id="a_Node000033"><a xlink:href="classjuce_1_1ThreadWithProgressWindow.html#a407db6229c67c527360b73bb137e4a64" target="_top" xlink:title=" ">
<polygon fill="white" stroke="#666666" points="534.75,-146.5 351.5,-146.5 351.5,-116 534.75,-116 534.75,-146.5"/>
<text xml:space="preserve" text-anchor="start" x="359.5" y="-133" font-family="Helvetica,sans-Serif" font-size="10.00">juce::ThreadWithProgress</text>
<text xml:space="preserve" text-anchor="middle" x="443.12" y="-121.75" font-family="Helvetica,sans-Serif" font-size="10.00">Window::~ThreadWithProgressWindow</text>
</a>
</g>
</g>
<!-- Node5&#45;&gt;Node33 -->
<g id="edge37_Node000005_Node000033" class="edge">
<title>Node5&#45;&gt;Node33</title>
<g id="a_edge37_Node000005_Node000033"><a xlink:title=" ">
<path fill="none" stroke="#63b8ff" d="M638.6,-423.03C630.76,-373.24 604.8,-247.54 534.75,-173.25 523.92,-161.77 509.34,-153.14 495.05,-146.79"/>
<polygon fill="#63b8ff" stroke="#63b8ff" points="635.11,-423.34 640.03,-432.72 642.03,-422.32 635.11,-423.34"/>
</a>
</g>
</g>
<!-- Node34 -->
<g id="Node000034" class="node">
<title>Node34</title>
<g id="a_Node000034"><a xlink:href="classjuce_1_1Timer_1_1TimerThread.html#a555be770ba39e01d9641ce40cbb9628a" target="_top" xlink:title=" ">
<polygon fill="white" stroke="#666666" points="504.38,-97.5 381.88,-97.5 381.88,-67 504.38,-67 504.38,-97.5"/>
<text xml:space="preserve" text-anchor="start" x="389.88" y="-84" font-family="Helvetica,sans-Serif" font-size="10.00">juce::Timer::TimerThread</text>
<text xml:space="preserve" text-anchor="middle" x="443.12" y="-72.75" font-family="Helvetica,sans-Serif" font-size="10.00">::~TimerThread</text>
</a>
</g>
</g>
<!-- Node5&#45;&gt;Node34 -->
<g id="edge39_Node000005_Node000034" class="edge">
<title>Node5&#45;&gt;Node34</title>
<g id="a_edge39_Node000005_Node000034"><a xlink:title=" ">
<path fill="none" stroke="#63b8ff" d="M641.36,-423.08C639.79,-364.04 627,-196.09 534.75,-107.25 526.4,-99.21 515.72,-93.71 504.63,-89.95"/>
<polygon fill="#63b8ff" stroke="#63b8ff" points="637.86,-422.79 641.53,-432.73 644.86,-422.67 637.86,-422.79"/>
</a>
</g>
</g>
<!-- Node35 -->
<g id="Node000035" class="node">
<title>Node35</title>
<g id="a_Node000035"><a xlink:href="classjuce_1_1TimeSliceThread.html#a446f5a1d02a566531be8853c026834bf" target="_top" xlink:title=" ">
<polygon fill="white" stroke="#666666" points="499.12,-30.5 387.12,-30.5 387.12,0 499.12,0 499.12,-30.5"/>
<text xml:space="preserve" text-anchor="start" x="395.12" y="-17" font-family="Helvetica,sans-Serif" font-size="10.00">juce::TimeSliceThread</text>
<text xml:space="preserve" text-anchor="middle" x="443.12" y="-5.75" font-family="Helvetica,sans-Serif" font-size="10.00">::~TimeSliceThread</text>
</a>
</g>
</g>
<!-- Node5&#45;&gt;Node35 -->
<g id="edge40_Node000005_Node000035" class="edge">
<title>Node5&#45;&gt;Node35</title>
<g id="a_edge40_Node000005_Node000035"><a xlink:title=" ">
<path fill="none" stroke="#63b8ff" d="M641.51,-423.04C640.44,-359.9 629.11,-170.55 534.75,-58.25 524.67,-46.25 510.47,-37.37 496.3,-30.91"/>
<polygon fill="#63b8ff" stroke="#63b8ff" points="638.01,-422.75 641.6,-432.72 645.01,-422.69 638.01,-422.75"/>
</a>
</g>
</g>
<!-- Node7 -->
<g id="Node000007" class="node">
<title>Node7</title>
<g id="a_Node000007"><a xlink:href="classjuce_1_1CoreAudioClasses_1_1AudioIODeviceCombiner.html#a1102beed2fac65cb6f2f71b9bb495cbc" target="_top" xlink:title=" ">
<polygon fill="white" stroke="#666666" points="315.5,-1013.5 163,-1013.5 163,-983 315.5,-983 315.5,-1013.5"/>
<text xml:space="preserve" text-anchor="start" x="171" y="-1000" font-family="Helvetica,sans-Serif" font-size="10.00">juce::CoreAudioClasses</text>
<text xml:space="preserve" text-anchor="middle" x="239.25" y="-988.75" font-family="Helvetica,sans-Serif" font-size="10.00">::AudioIODeviceCombiner::open</text>
</a>
</g>
</g>
<!-- Node6&#45;&gt;Node7 -->
<g id="edge6_Node000006_Node000007" class="edge">
<title>Node6&#45;&gt;Node7</title>
<g id="a_edge6_Node000006_Node000007"><a xlink:title=" ">
<path fill="none" stroke="#63b8ff" d="M369.17,-863.72C362.73,-867.17 356.7,-871.3 351.5,-876.25 319.39,-906.8 346.86,-937.93 315.5,-969.25 310.15,-974.59 303.71,-978.97 296.87,-982.55"/>
<polygon fill="#63b8ff" stroke="#63b8ff" points="370.63,-866.9 378.19,-859.48 367.65,-860.57 370.63,-866.9"/>
</a>
</g>
</g>
<!-- Node8 -->
<g id="Node000008" class="node">
<title>Node8</title>
<g id="a_Node000008"><a xlink:href="classjuce_1_1CoreAudioClasses_1_1AudioIODeviceCombiner.html#a4ed8383e42ae4d20f19094a3339ad6f9" target="_top" xlink:title=" ">
<polygon fill="#fff0f0" stroke="red" points="127,-997.12 0,-997.12 0,-955.38 127,-955.38 127,-997.12"/>
<text xml:space="preserve" text-anchor="start" x="8" y="-983.62" font-family="Helvetica,sans-Serif" font-size="10.00">juce::CoreAudioClasses</text>
<text xml:space="preserve" text-anchor="start" x="8" y="-972.38" font-family="Helvetica,sans-Serif" font-size="10.00">::AudioIODeviceCombiner</text>
<text xml:space="preserve" text-anchor="middle" x="63.5" y="-961.12" font-family="Helvetica,sans-Serif" font-size="10.00">::restart</text>
</a>
</g>
</g>
<!-- Node6&#45;&gt;Node8 -->
<g id="edge8_Node000006_Node000008" class="edge">
<title>Node6&#45;&gt;Node8</title>
<g id="a_edge8_Node000006_Node000008"><a xlink:title=" ">
<path fill="none" stroke="#63b8ff" d="M369.11,-865.12C362.83,-868.29 356.85,-871.97 351.5,-876.25 327.22,-895.68 341.27,-918.84 315.5,-936.25 285.61,-956.45 191.52,-967.16 127.42,-972.27"/>
<polygon fill="#63b8ff" stroke="#63b8ff" points="370.12,-868.51 377.78,-861.19 367.23,-862.13 370.12,-868.51"/>
</a>
</g>
</g>
<!-- Node10 -->
<g id="Node000010" class="node">
<title>Node10</title>
<g id="a_Node000010"><a xlink:href="classjuce_1_1CoreAudioClasses_1_1AudioIODeviceCombiner.html#ad5ec56cbe86e23e12697b1338e2209f1" target="_top" xlink:title=" ">
<polygon fill="white" stroke="#666666" points="302.75,-927.12 175.75,-927.12 175.75,-885.38 302.75,-885.38 302.75,-927.12"/>
<text xml:space="preserve" text-anchor="start" x="183.75" y="-913.62" font-family="Helvetica,sans-Serif" font-size="10.00">juce::CoreAudioClasses</text>
<text xml:space="preserve" text-anchor="start" x="183.75" y="-902.38" font-family="Helvetica,sans-Serif" font-size="10.00">::AudioIODeviceCombiner</text>
<text xml:space="preserve" text-anchor="middle" x="239.25" y="-891.12" font-family="Helvetica,sans-Serif" font-size="10.00">::restartAsync</text>
</a>
</g>
</g>
<!-- Node6&#45;&gt;Node10 -->
<g id="edge9_Node000006_Node000010" class="edge">
<title>Node6&#45;&gt;Node10</title>
<g id="a_edge9_Node000006_Node000010"><a xlink:title=" ">
<path fill="none" stroke="#63b8ff" d="M368.33,-868.18C346.88,-874.56 323.67,-881.46 302.98,-887.61"/>
<polygon fill="#63b8ff" stroke="#63b8ff" points="369.32,-871.54 377.91,-865.34 367.32,-864.83 369.32,-871.54"/>
</a>
</g>
</g>
<!-- Node11 -->
<g id="Node000011" class="node">
<title>Node11</title>
<g id="a_Node000011"><a xlink:href="classjuce_1_1CoreAudioClasses_1_1AudioIODeviceCombiner.html#a1355c66f1fe3f281c379706d35ef1932" target="_top" xlink:title=" ">
<polygon fill="white" stroke="#666666" points="305.38,-867.12 173.12,-867.12 173.12,-825.38 305.38,-825.38 305.38,-867.12"/>
<text xml:space="preserve" text-anchor="start" x="181.12" y="-853.62" font-family="Helvetica,sans-Serif" font-size="10.00">juce::CoreAudioClasses</text>
<text xml:space="preserve" text-anchor="start" x="181.12" y="-842.38" font-family="Helvetica,sans-Serif" font-size="10.00">::AudioIODeviceCombiner</text>
<text xml:space="preserve" text-anchor="middle" x="239.25" y="-831.12" font-family="Helvetica,sans-Serif" font-size="10.00">::~AudioIODeviceCombiner</text>
</a>
</g>
</g>
<!-- Node6&#45;&gt;Node11 -->
<g id="edge10_Node000006_Node000011" class="edge">
<title>Node6&#45;&gt;Node11</title>
<g id="a_edge10_Node000006_Node000011"><a xlink:title=" ">
<path fill="none" stroke="#63b8ff" d="M367.9,-846.25C347.54,-846.25 325.61,-846.25 305.77,-846.25"/>
<polygon fill="#63b8ff" stroke="#63b8ff" points="367.84,-849.75 377.84,-846.25 367.84,-842.75 367.84,-849.75"/>
</a>
</g>
</g>
<!-- Node7&#45;&gt;Node8 -->
<g id="edge7_Node000007_Node000008" class="edge">
<title>Node7&#45;&gt;Node8</title>
<g id="a_edge7_Node000007_Node000008"><a xlink:title=" ">
<path fill="none" stroke="#63b8ff" d="M151.24,-987.23C143.23,-986.22 135.21,-985.2 127.47,-984.22"/>
<polygon fill="#63b8ff" stroke="#63b8ff" points="150.68,-990.69 161.04,-988.47 151.56,-983.75 150.68,-990.69"/>
</a>
</g>
</g>
<!-- Node13 -->
<g id="Node000013" class="node">
<title>Node13</title>
<g id="a_Node000013"><a xlink:href="classjuce_1_1WasapiClasses_1_1WASAPIAudioIODevice.html#a6b29ff8d9092017b1d8190770eb5f6f5" target="_top" xlink:title=" ">
<polygon fill="white" stroke="#666666" points="125.88,-797.12 1.13,-797.12 1.13,-755.38 125.88,-755.38 125.88,-797.12"/>
<text xml:space="preserve" text-anchor="start" x="9.13" y="-783.62" font-family="Helvetica,sans-Serif" font-size="10.00">juce::WasapiClasses</text>
<text xml:space="preserve" text-anchor="start" x="9.13" y="-772.38" font-family="Helvetica,sans-Serif" font-size="10.00">::WASAPIAudioIODevice</text>
<text xml:space="preserve" text-anchor="middle" x="63.5" y="-761.12" font-family="Helvetica,sans-Serif" font-size="10.00">::handleAsyncUpdate</text>
</a>
</g>
</g>
<!-- Node12&#45;&gt;Node13 -->
<g id="edge12_Node000012_Node000013" class="edge">
<title>Node12&#45;&gt;Node13</title>
<g id="a_edge12_Node000012_Node000013"><a xlink:title=" ">
<path fill="none" stroke="#63b8ff" d="M369.75,-768.13C352.15,-772.33 333.27,-776.11 315.5,-778.25 248.21,-786.37 230.77,-778.94 163,-778.25 151.11,-778.13 138.42,-777.93 126.24,-777.7"/>
<polygon fill="#63b8ff" stroke="#63b8ff" points="370.18,-771.63 379.05,-765.84 368.51,-764.83 370.18,-771.63"/>
</a>
</g>
</g>
<!-- Node14 -->
<g id="Node000014" class="node">
<title>Node14</title>
<g id="a_Node000014"><a xlink:href="classjuce_1_1WasapiClasses_1_1WASAPIAudioIODevice.html#a7b469375ba5c1974cd7e4536c4c1add9" target="_top" xlink:title=" ">
<polygon fill="white" stroke="#666666" points="314.38,-769.5 164.12,-769.5 164.12,-739 314.38,-739 314.38,-769.5"/>
<text xml:space="preserve" text-anchor="start" x="172.12" y="-756" font-family="Helvetica,sans-Serif" font-size="10.00">juce::WasapiClasses</text>
<text xml:space="preserve" text-anchor="middle" x="239.25" y="-744.75" font-family="Helvetica,sans-Serif" font-size="10.00">::WASAPIAudioIODevice::open</text>
</a>
</g>
</g>
<!-- Node12&#45;&gt;Node14 -->
<g id="edge13_Node000012_Node000014" class="edge">
<title>Node12&#45;&gt;Node14</title>
<g id="a_edge13_Node000012_Node000014"><a xlink:title=" ">
<path fill="none" stroke="#63b8ff" d="M369.04,-749.78C351.36,-750.4 332.44,-751.05 314.69,-751.67"/>
<polygon fill="#63b8ff" stroke="#63b8ff" points="369.07,-753.29 378.95,-749.44 368.83,-746.29 369.07,-753.29"/>
</a>
</g>
</g>
<!-- Node15 -->
<g id="Node000015" class="node">
<title>Node15</title>
<g id="a_Node000015"><a xlink:href="classjuce_1_1WasapiClasses_1_1WASAPIAudioIODevice.html#a95973df2a7e677062e5123dff4a411c4" target="_top" xlink:title=" ">
<polygon fill="white" stroke="#666666" points="304.25,-721.12 174.25,-721.12 174.25,-679.38 304.25,-679.38 304.25,-721.12"/>
<text xml:space="preserve" text-anchor="start" x="182.25" y="-707.62" font-family="Helvetica,sans-Serif" font-size="10.00">juce::WasapiClasses</text>
<text xml:space="preserve" text-anchor="start" x="182.25" y="-696.38" font-family="Helvetica,sans-Serif" font-size="10.00">::WASAPIAudioIODevice</text>
<text xml:space="preserve" text-anchor="middle" x="239.25" y="-685.12" font-family="Helvetica,sans-Serif" font-size="10.00">::~WASAPIAudioIODevice</text>
</a>
</g>
</g>
<!-- Node12&#45;&gt;Node15 -->
<g id="edge15_Node000012_Node000015" class="edge">
<title>Node12&#45;&gt;Node15</title>
<g id="a_edge15_Node000012_Node000015"><a xlink:title=" ">
<path fill="none" stroke="#63b8ff" d="M369.27,-730.29C348.15,-725.37 325.25,-720.04 304.68,-715.25"/>
<polygon fill="#63b8ff" stroke="#63b8ff" points="368.45,-733.69 378.98,-732.55 370.04,-726.87 368.45,-733.69"/>
</a>
</g>
</g>
<!-- Node14&#45;&gt;Node13 -->
<g id="edge14_Node000014_Node000013" class="edge">
<title>Node14&#45;&gt;Node13</title>
<g id="a_edge14_Node000014_Node000013"><a xlink:title=" ">
<path fill="none" stroke="#63b8ff" d="M152.59,-765.1C143.7,-766.22 134.79,-767.35 126.24,-768.43"/>
<polygon fill="#63b8ff" stroke="#63b8ff" points="152.83,-768.59 162.31,-763.87 151.95,-761.65 152.83,-768.59"/>
</a>
</g>
</g>
<!-- Node17 -->
<g id="Node000017" class="node">
<title>Node17</title>
<g id="a_Node000017"><a xlink:href="classjuce_1_1DSoundAudioIODevice.html#a58093b9995f1174531a0f7ffabb3e9d4" target="_top" xlink:title=" ">
<polygon fill="#fff0f0" stroke="red" points="308.38,-661.5 170.12,-661.5 170.12,-631 308.38,-631 308.38,-661.5"/>
<text xml:space="preserve" text-anchor="start" x="178.12" y="-648" font-family="Helvetica,sans-Serif" font-size="10.00">juce::DSoundAudioIODevice</text>
<text xml:space="preserve" text-anchor="middle" x="239.25" y="-636.75" font-family="Helvetica,sans-Serif" font-size="10.00">::close</text>
</a>
</g>
</g>
<!-- Node16&#45;&gt;Node17 -->
<g id="edge17_Node000016_Node000017" class="edge">
<title>Node16&#45;&gt;Node17</title>
<g id="a_edge17_Node000016_Node000017"><a xlink:title=" ">
<path fill="none" stroke="#63b8ff" d="M362.57,-665.64C344.82,-662.83 326.14,-659.86 308.87,-657.13"/>
<polygon fill="#63b8ff" stroke="#63b8ff" points="361.86,-669.07 372.28,-667.18 362.96,-662.16 361.86,-669.07"/>
</a>
</g>
</g>
<!-- Node19 -->
<g id="Node000019" class="node">
<title>Node19</title>
<g id="a_Node000019"><a xlink:href="classjuce_1_1DSoundAudioIODevice.html#a7321857cd4fd3aeabf755486ed552911" target="_top" xlink:title=" ">
<polygon fill="#fff0f0" stroke="red" points="308.38,-594.5 170.12,-594.5 170.12,-564 308.38,-564 308.38,-594.5"/>
<text xml:space="preserve" text-anchor="start" x="178.12" y="-581" font-family="Helvetica,sans-Serif" font-size="10.00">juce::DSoundAudioIODevice</text>
<text xml:space="preserve" text-anchor="middle" x="239.25" y="-569.75" font-family="Helvetica,sans-Serif" font-size="10.00">::openDevice</text>
</a>
</g>
</g>
<!-- Node16&#45;&gt;Node19 -->
<g id="edge18_Node000016_Node000019" class="edge">
<title>Node16&#45;&gt;Node19</title>
<g id="a_edge18_Node000016_Node000019"><a xlink:title=" ">
<path fill="none" stroke="#63b8ff" d="M362.95,-658.71C359.01,-657.03 355.17,-655.21 351.5,-653.25 332.87,-643.31 332.75,-634.43 315.5,-622.25 301.37,-612.27 284.75,-602.57 270.73,-594.93"/>
<polygon fill="#63b8ff" stroke="#63b8ff" points="361.56,-661.92 372.14,-662.31 364.11,-655.4 361.56,-661.92"/>
</a>
</g>
</g>
<!-- Node19&#45;&gt;Node19 -->
<g id="edge19_Node000019_Node000019" class="edge">
<title>Node19&#45;&gt;Node19</title>
<g id="a_edge19_Node000019_Node000019"><a xlink:title=" ">
<path fill="none" stroke="#63b8ff" d="M268.72,-606.2C263.9,-609.97 254.08,-612.5 239.25,-612.5 212.13,-612.5 201.75,-604.06 208.11,-594.99"/>
<polygon fill="#63b8ff" stroke="#63b8ff" points="272.16,-606.89 270.17,-596.48 265.24,-605.86 272.16,-606.89"/>
</a>
</g>
</g>
<!-- Node21&#45;&gt;Node21 -->
<g id="edge22_Node000021_Node000021" class="edge">
<title>Node21&#45;&gt;Node21</title>
<g id="a_edge22_Node000021_Node000021"><a xlink:title=" ">
<path fill="none" stroke="#63b8ff" d="M476.56,-638.2C471.09,-641.97 459.95,-644.5 443.12,-644.5 412.36,-644.5 400.59,-636.06 407.8,-626.99"/>
<polygon fill="#63b8ff" stroke="#63b8ff" points="479.99,-638.92 478.2,-628.48 473.09,-637.76 479.99,-638.92"/>
</a>
</g>
</g>
<!-- Node22&#45;&gt;Node22 -->
<g id="edge26_Node000022_Node000022" class="edge">
<title>Node22&#45;&gt;Node22</title>
<g id="a_edge26_Node000022_Node000022"><a xlink:title=" ">
<path fill="none" stroke="#63b8ff" d="M476.56,-571.2C471.09,-574.97 459.95,-577.5 443.12,-577.5 412.36,-577.5 400.59,-569.06 407.8,-559.99"/>
<polygon fill="#63b8ff" stroke="#63b8ff" points="479.99,-571.92 478.2,-561.48 473.09,-570.76 479.99,-571.92"/>
</a>
</g>
</g>
<!-- Node23 -->
<g id="Node000023" class="node">
<title>Node23</title>
<g id="a_Node000023"><a xlink:href="classCarlaEngineJuce.html#a7de557469a571f13924afe89b48f35b3" target="_top" xlink:title=" ">
<polygon fill="#fff0f0" stroke="red" points="297.5,-545.88 181,-545.88 181,-526.62 297.5,-526.62 297.5,-545.88"/>
<text xml:space="preserve" text-anchor="middle" x="239.25" y="-532.38" font-family="Helvetica,sans-Serif" font-size="10.00">CarlaEngineJuce::close</text>
</a>
</g>
</g>
<!-- Node22&#45;&gt;Node23 -->
<g id="edge24_Node000022_Node000023" class="edge">
<title>Node22&#45;&gt;Node23</title>
<g id="a_edge24_Node000022_Node000023"><a xlink:title=" ">
<path fill="none" stroke="#63b8ff" d="M350.9,-540.64C332.91,-539.92 314.5,-539.19 297.99,-538.54"/>
<polygon fill="#63b8ff" stroke="#63b8ff" points="350.7,-544.13 360.83,-541.03 350.97,-537.13 350.7,-544.13"/>
</a>
</g>
</g>
<!-- Node26 -->
<g id="Node000026" class="node">
<title>Node26</title>
<g id="a_Node000026"><a xlink:href="classCarlaEngineJuce.html#ae7c5983a7f39a8c31a6963f59edec373" target="_top" xlink:title=" ">
<polygon fill="white" stroke="#666666" points="309.5,-508.5 169,-508.5 169,-478 309.5,-478 309.5,-508.5"/>
<text xml:space="preserve" text-anchor="start" x="177" y="-495" font-family="Helvetica,sans-Serif" font-size="10.00">CarlaEngineJuce::disconnect</text>
<text xml:space="preserve" text-anchor="middle" x="239.25" y="-483.75" font-family="Helvetica,sans-Serif" font-size="10.00">ExternalGraphPort</text>
</a>
</g>
</g>
<!-- Node22&#45;&gt;Node26 -->
<g id="edge25_Node000022_Node000026" class="edge">
<title>Node22&#45;&gt;Node26</title>
<g id="a_edge25_Node000022_Node000026"><a xlink:title=" ">
<path fill="none" stroke="#63b8ff" d="M369,-525.78C347.12,-520.25 323.35,-514.24 302.26,-508.92"/>
<polygon fill="#63b8ff" stroke="#63b8ff" points="367.89,-529.11 378.44,-528.16 369.6,-522.32 367.89,-529.11"/>
</a>
</g>
</g>
<!-- Node27&#45;&gt;Node27 -->
<g id="edge29_Node000027_Node000027" class="edge">
<title>Node27&#45;&gt;Node27</title>
<g id="a_edge29_Node000027_Node000027"><a xlink:title=" ">
<path fill="none" stroke="#63b8ff" d="M476.56,-504.2C471.09,-507.97 459.95,-510.5 443.12,-510.5 412.36,-510.5 400.59,-502.06 407.8,-492.99"/>
<polygon fill="#63b8ff" stroke="#63b8ff" points="479.99,-504.92 478.2,-494.48 473.09,-503.76 479.99,-504.92"/>
</a>
</g>
</g>
<!-- Node28&#45;&gt;Node28 -->
<g id="edge31_Node000028_Node000028" class="edge">
<title>Node28&#45;&gt;Node28</title>
<g id="a_edge31_Node000028_Node000028"><a xlink:title=" ">
<path fill="none" stroke="#63b8ff" d="M476.56,-437.2C471.09,-440.97 459.95,-443.5 443.12,-443.5 412.36,-443.5 400.59,-435.06 407.8,-425.99"/>
<polygon fill="#63b8ff" stroke="#63b8ff" points="479.99,-437.92 478.2,-427.48 473.09,-436.76 479.99,-437.92"/>
</a>
</g>
</g>
<!-- Node29&#45;&gt;Node29 -->
<g id="edge33_Node000029_Node000029" class="edge">
<title>Node29&#45;&gt;Node29</title>
<g id="a_edge33_Node000029_Node000029"><a xlink:title=" ">
<path fill="none" stroke="#63b8ff" d="M475.94,-370.24C470.27,-374.38 459.33,-377.12 443.12,-377.12 415.09,-377.12 402.82,-368.92 406.33,-359.44"/>
<polygon fill="#63b8ff" stroke="#63b8ff" points="479.22,-371.46 479.4,-360.86 472.65,-369.03 479.22,-371.46"/>
</a>
</g>
</g>
<!-- Node33&#45;&gt;Node33 -->
<g id="edge38_Node000033_Node000033" class="edge">
<title>Node33&#45;&gt;Node33</title>
<g id="a_edge38_Node000033_Node000033"><a xlink:title=" ">
<path fill="none" stroke="#63b8ff" d="M476.56,-158.2C471.09,-161.97 459.95,-164.5 443.12,-164.5 412.36,-164.5 400.59,-156.06 407.8,-146.99"/>
<polygon fill="#63b8ff" stroke="#63b8ff" points="479.99,-158.92 478.2,-148.48 473.09,-157.76 479.99,-158.92"/>
</a>
</g>
</g>
<!-- Node35&#45;&gt;Node35 -->
<g id="edge41_Node000035_Node000035" class="edge">
<title>Node35&#45;&gt;Node35</title>
<g id="a_edge41_Node000035_Node000035"><a xlink:title=" ">
<path fill="none" stroke="#63b8ff" d="M476.56,-42.2C471.09,-45.97 459.95,-48.5 443.12,-48.5 412.36,-48.5 400.59,-40.06 407.8,-30.99"/>
<polygon fill="#63b8ff" stroke="#63b8ff" points="479.99,-42.92 478.2,-32.48 473.09,-41.76 479.99,-42.92"/>
</a>
</g>
</g>
</g>
</svg>

<g id="navigator" transform="translate(0 0)" fill="#404254">
  <rect fill="#f2f5e9" fill-opacity="0.5" stroke="#606060" stroke-width=".5" x="0" y="0" width="60" height="60"/>
  <use id="zoomplus" xlink:href="#zoomPlus" x="17" y="9" onmousedown="handleZoom(evt,'in')"/>
  <use id="zoomminus" xlink:href="#zoomMin" x="42" y="9" onmousedown="handleZoom(evt,'out')"/>
  <use id="reset" xlink:href="#resetDef" x="30" y="36" onmousedown="handleReset()"/>
   <use id="arrowup" xlink:href="#arrowUp" x="0" y="0" onmousedown="handlePan(0,-1)"/>
  <use id="arrowright" xlink:href="#arrowRight" x="0" y="0" onmousedown="handlePan(1,0)"/>
  <use id="arrowdown" xlink:href="#arrowDown" x="0" y="0" onmousedown="handlePan(0,1)"/>
  <use id="arrowleft" xlink:href="#arrowLeft" x="0" y="0" onmousedown="handlePan(-1,0)"/>
</g>
<svg viewBox="0 0 15 15" width="100%" height="30px" preserveAspectRatio="xMaxYMin meet">
 <g id="arrow_out" transform="scale(0.3 0.3)">
  <a xlink:href="classjuce_1_1Thread_ad9b6494f25d5d8eb07ed6fc96178eac5_icgraph_org.svg" target="_base">
   <rect id="button" ry="5" rx="5" y="6" x="6" height="38" width="38"
        fill="#f2f5e9" fill-opacity="0.5" stroke="#606060" stroke-width="1.0"/>
   <path id="arrow"
     d="M 11.500037,31.436501 C 11.940474,20.09759 22.043105,11.32322 32.158766,21.979434 L 37.068811,17.246167 C 37.068811,17.246167 37.088388,32 37.088388,32 L 22.160133,31.978069 C 22.160133,31.978069 26.997745,27.140456 26.997745,27.140456 C 18.528582,18.264221 13.291696,25.230495 11.500037,31.436501 z"
     style="fill:#404040;"/>
  </a>
 </g>
</svg>

<style type='text/css'>
<![CDATA[
[data-mouse-over-selected='false'] { opacity: 0.7; }
[data-mouse-over-selected='true']  { opacity: 1.0; }
]]>
</style>
<script type="application/ecmascript"><![CDATA[
document.addEventListener('DOMContentLoaded', (event) => {
  highlightEdges();
  highlightAdjacentNodes();
});
]]></script>
</svg>
