<?xml version="1.0" encoding="UTF-8" standalone="no"?>
<!DOCTYPE svg PUBLIC "-//W3C//DTD SVG 1.1//EN"
 "http://www.w3.org/Graphics/SVG/1.1/DTD/svg11.dtd">
<!-- Generated by graphviz version 14.0.2 (0)
 -->
<!-- Title: Jack::JackClientSocket Pages: 1 -->
<svg width="326pt" height="557pt"
 viewBox="0.00 0.00 326.00 557.00" xmlns="http://www.w3.org/2000/svg" xmlns:xlink="http://www.w3.org/1999/xlink">
<g id="graph0" class="graph" transform="scale(1 1) rotate(0) translate(4 552.75)">
<title>Jack::JackClientSocket</title>
<!-- Node1 -->
<g id="Node000001" class="node">
<title>Node1</title>
<g id="a_Node000001"><a xlink:title="Client socket.">
<polygon fill="#999999" stroke="none" points="226.38,-232.75 116.38,-232.75 116.38,0 226.38,0 226.38,-232.75"/>
<text xml:space="preserve" text-anchor="start" x="120.38" y="-219.25" font-family="Helvetica,sans-Serif" font-size="10.00">Jack::JackClientSocket</text>
<text xml:space="preserve" text-anchor="start" x="124.25" y="-204" font-family="Helvetica,sans-Serif" font-size="10.00">&#45;</text>
<text xml:space="preserve" text-anchor="start" x="135.12" y="-204" font-family="Helvetica,sans-Serif" font-size="10.00">fSocket</text>
<text xml:space="preserve" text-anchor="start" x="124.25" y="-188.75" font-family="Helvetica,sans-Serif" font-size="10.00">&#45;</text>
<text xml:space="preserve" text-anchor="start" x="135.12" y="-188.75" font-family="Helvetica,sans-Serif" font-size="10.00">fTimeOut</text>
<text xml:space="preserve" text-anchor="start" x="124.25" y="-173.5" font-family="Helvetica,sans-Serif" font-size="10.00">&#45;</text>
<text xml:space="preserve" text-anchor="start" x="135.12" y="-173.5" font-family="Helvetica,sans-Serif" font-size="10.00">fPromiscuous</text>
<text xml:space="preserve" text-anchor="start" x="124.25" y="-158.25" font-family="Helvetica,sans-Serif" font-size="10.00">&#45;</text>
<text xml:space="preserve" text-anchor="start" x="135.12" y="-158.25" font-family="Helvetica,sans-Serif" font-size="10.00">fPromiscuousGid</text>
<text xml:space="preserve" text-anchor="start" x="122.75" y="-143" font-family="Helvetica,sans-Serif" font-size="10.00">+</text>
<text xml:space="preserve" text-anchor="start" x="135.12" y="-143" font-family="Helvetica,sans-Serif" font-size="10.00">JackClientSocket()</text>
<text xml:space="preserve" text-anchor="start" x="122.75" y="-127.75" font-family="Helvetica,sans-Serif" font-size="10.00">+</text>
<text xml:space="preserve" text-anchor="start" x="135.12" y="-127.75" font-family="Helvetica,sans-Serif" font-size="10.00">JackClientSocket()</text>
<text xml:space="preserve" text-anchor="start" x="122.75" y="-112.5" font-family="Helvetica,sans-Serif" font-size="10.00">+</text>
<text xml:space="preserve" text-anchor="start" x="135.12" y="-112.5" font-family="Helvetica,sans-Serif" font-size="10.00">Connect()</text>
<text xml:space="preserve" text-anchor="start" x="122.75" y="-97.25" font-family="Helvetica,sans-Serif" font-size="10.00">+</text>
<text xml:space="preserve" text-anchor="start" x="135.12" y="-97.25" font-family="Helvetica,sans-Serif" font-size="10.00">Close()</text>
<text xml:space="preserve" text-anchor="start" x="122.75" y="-82" font-family="Helvetica,sans-Serif" font-size="10.00">+</text>
<text xml:space="preserve" text-anchor="start" x="135.12" y="-82" font-family="Helvetica,sans-Serif" font-size="10.00">Read()</text>
<text xml:space="preserve" text-anchor="start" x="122.75" y="-66.75" font-family="Helvetica,sans-Serif" font-size="10.00">+</text>
<text xml:space="preserve" text-anchor="start" x="135.12" y="-66.75" font-family="Helvetica,sans-Serif" font-size="10.00">Write()</text>
<text xml:space="preserve" text-anchor="start" x="122.75" y="-51.5" font-family="Helvetica,sans-Serif" font-size="10.00">+</text>
<text xml:space="preserve" text-anchor="start" x="135.12" y="-51.5" font-family="Helvetica,sans-Serif" font-size="10.00">GetFd()</text>
<text xml:space="preserve" text-anchor="start" x="122.75" y="-36.25" font-family="Helvetica,sans-Serif" font-size="10.00">+</text>
<text xml:space="preserve" text-anchor="start" x="135.12" y="-36.25" font-family="Helvetica,sans-Serif" font-size="10.00">SetReadTimeOut()</text>
<text xml:space="preserve" text-anchor="start" x="122.75" y="-21" font-family="Helvetica,sans-Serif" font-size="10.00">+</text>
<text xml:space="preserve" text-anchor="start" x="135.12" y="-21" font-family="Helvetica,sans-Serif" font-size="10.00">SetWriteTimeOut()</text>
<text xml:space="preserve" text-anchor="start" x="122.75" y="-5.75" font-family="Helvetica,sans-Serif" font-size="10.00">+</text>
<text xml:space="preserve" text-anchor="start" x="135.12" y="-5.75" font-family="Helvetica,sans-Serif" font-size="10.00">SetNonBlocking()</text>
<polygon fill="#666666" stroke="#666666" points="116.38,-215.5 116.38,-215.5 226.38,-215.5 226.38,-215.5 116.38,-215.5"/>
<polygon fill="#666666" stroke="#666666" points="116.38,-154.5 116.38,-154.5 133.12,-154.5 133.12,-154.5 116.38,-154.5"/>
<polygon fill="#666666" stroke="#666666" points="133.12,-154.5 133.12,-154.5 226.38,-154.5 226.38,-154.5 133.12,-154.5"/>
<polygon fill="none" stroke="#666666" points="116.38,0 116.38,-232.75 226.38,-232.75 226.38,0 116.38,0"/>
</a>
</g>
</g>
<!-- Node2 -->
<g id="Node000002" class="node">
<title>Node2</title>
<g id="a_Node000002"><a xlink:href="classJack_1_1detail_1_1JackClientRequestInterface.html" target="_top" xlink:title=" ">
<polygon fill="white" stroke="none" points="246,-406 96.75,-406 96.75,-268.75 246,-268.75 246,-406"/>
<text xml:space="preserve" text-anchor="start" x="121.88" y="-392.5" font-family="Helvetica,sans-Serif" font-size="10.00">Jack::detail::JackClient</text>
<text xml:space="preserve" text-anchor="start" x="134.25" y="-381.25" font-family="Helvetica,sans-Serif" font-size="10.00">RequestInterface</text>
<text xml:space="preserve" text-anchor="start" x="169.88" y="-366" font-family="Helvetica,sans-Serif" font-size="10.00"> </text>
<text xml:space="preserve" text-anchor="start" x="100.75" y="-350.75" font-family="Helvetica,sans-Serif" font-size="10.00">+</text>
<text xml:space="preserve" text-anchor="start" x="110.75" y="-350.75" font-family="Helvetica,sans-Serif" font-size="10.00">JackClientRequestInterface()</text>
<text xml:space="preserve" text-anchor="start" x="100.75" y="-335.5" font-family="Helvetica,sans-Serif" font-size="10.00">+</text>
<text xml:space="preserve" text-anchor="start" x="110.75" y="-335.5" font-family="Helvetica,sans-Serif" font-size="10.00">~JackClientRequestInterface()</text>
<text xml:space="preserve" text-anchor="start" x="100.75" y="-320.25" font-family="Helvetica,sans-Serif" font-size="10.00">+</text>
<text xml:space="preserve" text-anchor="start" x="110.75" y="-320.25" font-family="Helvetica,sans-Serif" font-size="10.00">Read()</text>
<text xml:space="preserve" text-anchor="start" x="100.75" y="-305" font-family="Helvetica,sans-Serif" font-size="10.00">+</text>
<text xml:space="preserve" text-anchor="start" x="110.75" y="-305" font-family="Helvetica,sans-Serif" font-size="10.00">Write()</text>
<text xml:space="preserve" text-anchor="start" x="100.75" y="-289.75" font-family="Helvetica,sans-Serif" font-size="10.00">+</text>
<text xml:space="preserve" text-anchor="start" x="110.75" y="-289.75" font-family="Helvetica,sans-Serif" font-size="10.00">Connect()</text>
<text xml:space="preserve" text-anchor="start" x="100.75" y="-274.5" font-family="Helvetica,sans-Serif" font-size="10.00">+</text>
<text xml:space="preserve" text-anchor="start" x="110.75" y="-274.5" font-family="Helvetica,sans-Serif" font-size="10.00">Close()</text>
<polygon fill="#666666" stroke="#666666" points="96.75,-377.5 96.75,-377.5 246,-377.5 246,-377.5 96.75,-377.5"/>
<polygon fill="#666666" stroke="#666666" points="96.75,-362.25 96.75,-362.25 246,-362.25 246,-362.25 96.75,-362.25"/>
<polygon fill="none" stroke="#666666" points="96.75,-268.75 96.75,-406 246,-406 246,-268.75 96.75,-268.75"/>
</a>
</g>
</g>
<!-- Node2&#45;&gt;Node1 -->
<g id="edge1_Node000001_Node000002" class="edge">
<title>Node2&#45;&gt;Node1</title>
<g id="a_edge1_Node000001_Node000002"><a xlink:title=" ">
<path fill="none" stroke="#63b8ff" d="M171.38,-257.56C171.38,-249.43 171.38,-241.05 171.38,-232.62"/>
<polygon fill="none" stroke="#63b8ff" points="167.88,-257.37 171.38,-267.37 174.88,-257.37 167.88,-257.37"/>
</a>
</g>
</g>
<!-- Node3 -->
<g id="Node000003" class="node">
<title>Node3</title>
<g id="a_Node000003"><a xlink:href="classJack_1_1detail_1_1JackChannelTransactionInterface.html" target="_top" xlink:title=" ">
<polygon fill="white" stroke="none" points="174.75,-548.75 0,-548.75 0,-442 174.75,-442 174.75,-548.75"/>
<text xml:space="preserve" text-anchor="start" x="32.62" y="-535.25" font-family="Helvetica,sans-Serif" font-size="10.00">Jack::detail::JackChannel</text>
<text xml:space="preserve" text-anchor="start" x="42.75" y="-524" font-family="Helvetica,sans-Serif" font-size="10.00">TransactionInterface</text>
<text xml:space="preserve" text-anchor="start" x="85.88" y="-508.75" font-family="Helvetica,sans-Serif" font-size="10.00"> </text>
<text xml:space="preserve" text-anchor="start" x="4" y="-493.5" font-family="Helvetica,sans-Serif" font-size="10.00">+</text>
<text xml:space="preserve" text-anchor="start" x="14" y="-493.5" font-family="Helvetica,sans-Serif" font-size="10.00">JackChannelTransactionInterface()</text>
<text xml:space="preserve" text-anchor="start" x="4" y="-478.25" font-family="Helvetica,sans-Serif" font-size="10.00">+</text>
<text xml:space="preserve" text-anchor="start" x="14" y="-478.25" font-family="Helvetica,sans-Serif" font-size="10.00">~JackChannelTransactionInterface()</text>
<text xml:space="preserve" text-anchor="start" x="4" y="-463" font-family="Helvetica,sans-Serif" font-size="10.00">+</text>
<text xml:space="preserve" text-anchor="start" x="14" y="-463" font-family="Helvetica,sans-Serif" font-size="10.00">Read()</text>
<text xml:space="preserve" text-anchor="start" x="4" y="-447.75" font-family="Helvetica,sans-Serif" font-size="10.00">+</text>
<text xml:space="preserve" text-anchor="start" x="14" y="-447.75" font-family="Helvetica,sans-Serif" font-size="10.00">Write()</text>
<polygon fill="#666666" stroke="#666666" points="0,-520.25 0,-520.25 174.75,-520.25 174.75,-520.25 0,-520.25"/>
<polygon fill="#666666" stroke="#666666" points="0,-505 0,-505 174.75,-505 174.75,-505 0,-505"/>
<polygon fill="none" stroke="#666666" points="0,-442 0,-548.75 174.75,-548.75 174.75,-442 0,-442"/>
</a>
</g>
</g>
<!-- Node3&#45;&gt;Node2 -->
<g id="edge2_Node000002_Node000003" class="edge">
<title>Node3&#45;&gt;Node2</title>
<g id="a_edge2_Node000002_Node000003"><a xlink:title=" ">
<path fill="none" stroke="#63b8ff" d="M120.76,-432.38C125.44,-423.68 130.27,-414.71 135.01,-405.91"/>
<polygon fill="none" stroke="#63b8ff" points="117.72,-430.63 116.06,-441.1 123.89,-433.95 117.72,-430.63"/>
</a>
</g>
</g>
<!-- Node4 -->
<g id="Node000004" class="node">
<title>Node4</title>
<g id="a_Node000004"><a xlink:href="classJack_1_1detail_1_1JackRequestInterface.html" target="_top" xlink:title=" ">
<polygon fill="white" stroke="none" points="317.62,-548.75 193.12,-548.75 193.12,-442 317.62,-442 317.62,-548.75"/>
<text xml:space="preserve" text-anchor="start" x="200.25" y="-535.25" font-family="Helvetica,sans-Serif" font-size="10.00">Jack::detail::JackRequest</text>
<text xml:space="preserve" text-anchor="start" x="236.25" y="-524" font-family="Helvetica,sans-Serif" font-size="10.00">Interface</text>
<text xml:space="preserve" text-anchor="start" x="253.88" y="-508.75" font-family="Helvetica,sans-Serif" font-size="10.00"> </text>
<text xml:space="preserve" text-anchor="start" x="197.12" y="-493.5" font-family="Helvetica,sans-Serif" font-size="10.00">+</text>
<text xml:space="preserve" text-anchor="start" x="207.12" y="-493.5" font-family="Helvetica,sans-Serif" font-size="10.00">JackRequestInterface()</text>
<text xml:space="preserve" text-anchor="start" x="197.12" y="-478.25" font-family="Helvetica,sans-Serif" font-size="10.00">+</text>
<text xml:space="preserve" text-anchor="start" x="207.12" y="-478.25" font-family="Helvetica,sans-Serif" font-size="10.00">~JackRequestInterface()</text>
<text xml:space="preserve" text-anchor="start" x="197.12" y="-463" font-family="Helvetica,sans-Serif" font-size="10.00">+</text>
<text xml:space="preserve" text-anchor="start" x="207.12" y="-463" font-family="Helvetica,sans-Serif" font-size="10.00">Connect()</text>
<text xml:space="preserve" text-anchor="start" x="197.12" y="-447.75" font-family="Helvetica,sans-Serif" font-size="10.00">+</text>
<text xml:space="preserve" text-anchor="start" x="207.12" y="-447.75" font-family="Helvetica,sans-Serif" font-size="10.00">Close()</text>
<polygon fill="#666666" stroke="#666666" points="193.12,-520.25 193.12,-520.25 317.62,-520.25 317.62,-520.25 193.12,-520.25"/>
<polygon fill="#666666" stroke="#666666" points="193.12,-505 193.12,-505 317.62,-505 317.62,-505 193.12,-505"/>
<polygon fill="none" stroke="#666666" points="193.12,-442 193.12,-548.75 317.62,-548.75 317.62,-442 193.12,-442"/>
</a>
</g>
</g>
<!-- Node4&#45;&gt;Node2 -->
<g id="edge3_Node000002_Node000004" class="edge">
<title>Node4&#45;&gt;Node2</title>
<g id="a_edge3_Node000002_Node000004"><a xlink:title=" ">
<path fill="none" stroke="#63b8ff" d="M221.99,-432.38C217.31,-423.68 212.48,-414.71 207.74,-405.91"/>
<polygon fill="none" stroke="#63b8ff" points="218.86,-433.95 226.69,-441.1 225.03,-430.63 218.86,-433.95"/>
</a>
</g>
</g>
</g>
</svg>
