<?xml version="1.0" encoding="UTF-8" standalone="no"?>
<!DOCTYPE svg PUBLIC "-//W3C//DTD SVG 1.1//EN"
 "http://www.w3.org/Graphics/SVG/1.1/DTD/svg11.dtd">
<!-- Generated by graphviz version 14.0.2 (0)
 -->
<!-- Title: lmms::Sf2Instrument::reloadSynth Pages: 1 -->
<svg width="614pt" height="413pt"
 viewBox="0.00 0.00 614.00 413.00" xmlns="http://www.w3.org/2000/svg" xmlns:xlink="http://www.w3.org/1999/xlink">
<g id="graph0" class="graph" transform="scale(1 1) rotate(0) translate(4 408.88)">
<title>lmms::Sf2Instrument::reloadSynth</title>
<!-- Node1 -->
<g id="Node000001" class="node">
<title>Node1</title>
<g id="a_Node000001"><a xlink:title=" ">
<polygon fill="#999999" stroke="#666666" points="106,-244.5 0,-244.5 0,-214 106,-214 106,-244.5"/>
<text xml:space="preserve" text-anchor="start" x="8" y="-231" font-family="Helvetica,sans-Serif" font-size="10.00">lmms::Sf2Instrument</text>
<text xml:space="preserve" text-anchor="middle" x="53" y="-219.75" font-family="Helvetica,sans-Serif" font-size="10.00">::reloadSynth</text>
</a>
</g>
</g>
<!-- Node2 -->
<g id="Node000002" class="node">
<title>Node2</title>
<g id="a_Node000002"><a xlink:href="classlmms_1_1Engine.html#a6877e216489d342e0d50925d47b56ae4" target="_top" xlink:title=" ">
<polygon fill="white" stroke="#666666" points="272.75,-404.88 142,-404.88 142,-385.62 272.75,-385.62 272.75,-404.88"/>
<text xml:space="preserve" text-anchor="middle" x="207.38" y="-391.38" font-family="Helvetica,sans-Serif" font-size="10.00">lmms::Engine::audioEngine</text>
</a>
</g>
</g>
<!-- Node1&#45;&gt;Node2 -->
<g id="edge1_Node000001_Node000002" class="edge">
<title>Node1&#45;&gt;Node2</title>
<g id="a_edge1_Node000001_Node000002"><a xlink:title=" ">
<path fill="none" stroke="#63b8ff" d="M58.96,-244.72C69.37,-274.71 96.39,-340.91 142,-376.25 143.76,-377.61 145.62,-378.88 147.55,-380.06"/>
<polygon fill="#63b8ff" stroke="#63b8ff" points="145.84,-383.11 156.34,-384.53 149.01,-376.87 145.84,-383.11"/>
</a>
</g>
</g>
<!-- Node3 -->
<g id="Node000003" class="node">
<title>Node3</title>
<g id="a_Node000003"><a xlink:href="classlmms_1_1Sf2Instrument.html#af1a1db59ef98c7cf1f789f9a6888c7a0" target="_top" xlink:title=" ">
<polygon fill="white" stroke="#666666" points="260.38,-367.5 154.38,-367.5 154.38,-337 260.38,-337 260.38,-367.5"/>
<text xml:space="preserve" text-anchor="start" x="162.38" y="-354" font-family="Helvetica,sans-Serif" font-size="10.00">lmms::Sf2Instrument</text>
<text xml:space="preserve" text-anchor="middle" x="207.38" y="-342.75" font-family="Helvetica,sans-Serif" font-size="10.00">::updateChorus</text>
</a>
</g>
</g>
<!-- Node1&#45;&gt;Node3 -->
<g id="edge2_Node000001_Node000003" class="edge">
<title>Node1&#45;&gt;Node3</title>
<g id="a_edge2_Node000001_Node000003"><a xlink:title=" ">
<path fill="none" stroke="#63b8ff" d="M64.46,-244.91C79.38,-266.2 108.7,-304.24 142,-327.25 144.04,-328.66 146.18,-330.01 148.37,-331.29"/>
<polygon fill="#63b8ff" stroke="#63b8ff" points="146.5,-334.26 156.98,-335.82 149.76,-328.07 146.5,-334.26"/>
</a>
</g>
</g>
<!-- Node4 -->
<g id="Node000004" class="node">
<title>Node4</title>
<g id="a_Node000004"><a xlink:href="classlmms_1_1Sf2Instrument.html#ac3954a4320f95b43e6f2f6357c7328d0" target="_top" xlink:title=" ">
<polygon fill="white" stroke="#666666" points="260.38,-318.5 154.38,-318.5 154.38,-288 260.38,-288 260.38,-318.5"/>
<text xml:space="preserve" text-anchor="start" x="162.38" y="-305" font-family="Helvetica,sans-Serif" font-size="10.00">lmms::Sf2Instrument</text>
<text xml:space="preserve" text-anchor="middle" x="207.38" y="-293.75" font-family="Helvetica,sans-Serif" font-size="10.00">::updateChorusOn</text>
</a>
</g>
</g>
<!-- Node1&#45;&gt;Node4 -->
<g id="edge3_Node000001_Node000004" class="edge">
<title>Node1&#45;&gt;Node4</title>
<g id="a_edge3_Node000001_Node000004"><a xlink:title=" ">
<path fill="none" stroke="#63b8ff" d="M79.69,-244.79C96.99,-254.94 120.48,-268.14 142,-278.25 145.52,-279.91 149.19,-281.54 152.91,-283.14"/>
<polygon fill="#63b8ff" stroke="#63b8ff" points="151.46,-286.33 162.04,-286.94 154.15,-279.87 151.46,-286.33"/>
</a>
</g>
</g>
<!-- Node5 -->
<g id="Node000005" class="node">
<title>Node5</title>
<g id="a_Node000005"><a xlink:href="classlmms_1_1Sf2Instrument.html#a93aac21c8ac193334169aa1520f6ff4e" target="_top" xlink:title=" ">
<polygon fill="white" stroke="#666666" points="260.38,-269.5 154.38,-269.5 154.38,-239 260.38,-239 260.38,-269.5"/>
<text xml:space="preserve" text-anchor="start" x="162.38" y="-256" font-family="Helvetica,sans-Serif" font-size="10.00">lmms::Sf2Instrument</text>
<text xml:space="preserve" text-anchor="middle" x="207.38" y="-244.75" font-family="Helvetica,sans-Serif" font-size="10.00">::updateGain</text>
</a>
</g>
</g>
<!-- Node1&#45;&gt;Node5 -->
<g id="edge4_Node000001_Node000005" class="edge">
<title>Node1&#45;&gt;Node5</title>
<g id="a_edge4_Node000001_Node000005"><a xlink:title=" ">
<path fill="none" stroke="#63b8ff" d="M106.44,-237.85C118.24,-239.79 130.88,-241.86 143.07,-243.86"/>
<polygon fill="#63b8ff" stroke="#63b8ff" points="142.17,-247.26 152.6,-245.43 143.3,-240.35 142.17,-247.26"/>
</a>
</g>
</g>
<!-- Node6 -->
<g id="Node000006" class="node">
<title>Node6</title>
<g id="a_Node000006"><a xlink:href="classlmms_1_1Sf2Instrument.html#a8fbeece9d85419686f337404c8806d57" target="_top" xlink:title=" ">
<polygon fill="white" stroke="#666666" points="260.38,-220.5 154.38,-220.5 154.38,-190 260.38,-190 260.38,-220.5"/>
<text xml:space="preserve" text-anchor="start" x="162.38" y="-207" font-family="Helvetica,sans-Serif" font-size="10.00">lmms::Sf2Instrument</text>
<text xml:space="preserve" text-anchor="middle" x="207.38" y="-195.75" font-family="Helvetica,sans-Serif" font-size="10.00">::updatePatch</text>
</a>
</g>
</g>
<!-- Node1&#45;&gt;Node6 -->
<g id="edge5_Node000001_Node000006" class="edge">
<title>Node1&#45;&gt;Node6</title>
<g id="a_edge5_Node000001_Node000006"><a xlink:title=" ">
<path fill="none" stroke="#63b8ff" d="M106.44,-220.99C118.24,-219.13 130.88,-217.14 143.07,-215.22"/>
<polygon fill="#63b8ff" stroke="#63b8ff" points="143.27,-218.73 152.6,-213.72 142.18,-211.82 143.27,-218.73"/>
</a>
</g>
</g>
<!-- Node7 -->
<g id="Node000007" class="node">
<title>Node7</title>
<g id="a_Node000007"><a xlink:href="classlmms_1_1Sf2Instrument.html#a483d0872ef6d0cd0491690b516f318c1" target="_top" xlink:title=" ">
<polygon fill="white" stroke="#666666" points="260.38,-171.5 154.38,-171.5 154.38,-141 260.38,-141 260.38,-171.5"/>
<text xml:space="preserve" text-anchor="start" x="162.38" y="-158" font-family="Helvetica,sans-Serif" font-size="10.00">lmms::Sf2Instrument</text>
<text xml:space="preserve" text-anchor="middle" x="207.38" y="-146.75" font-family="Helvetica,sans-Serif" font-size="10.00">::updateReverb</text>
</a>
</g>
</g>
<!-- Node1&#45;&gt;Node7 -->
<g id="edge6_Node000001_Node000007" class="edge">
<title>Node1&#45;&gt;Node7</title>
<g id="a_edge6_Node000001_Node000007"><a xlink:title=" ">
<path fill="none" stroke="#63b8ff" d="M80.5,-213.63C97.73,-203.77 120.85,-191.07 142,-181.25 145.7,-179.53 149.55,-177.83 153.45,-176.17"/>
<polygon fill="#63b8ff" stroke="#63b8ff" points="154.5,-179.52 162.4,-172.47 151.82,-173.05 154.5,-179.52"/>
</a>
</g>
</g>
<!-- Node8 -->
<g id="Node000008" class="node">
<title>Node8</title>
<g id="a_Node000008"><a xlink:href="classlmms_1_1Sf2Instrument.html#a50c5c54a7bcc76fa8a4f0573b3c30b16" target="_top" xlink:title=" ">
<polygon fill="white" stroke="#666666" points="260.38,-122.5 154.38,-122.5 154.38,-92 260.38,-92 260.38,-122.5"/>
<text xml:space="preserve" text-anchor="start" x="162.38" y="-109" font-family="Helvetica,sans-Serif" font-size="10.00">lmms::Sf2Instrument</text>
<text xml:space="preserve" text-anchor="middle" x="207.38" y="-97.75" font-family="Helvetica,sans-Serif" font-size="10.00">::updateReverbOn</text>
</a>
</g>
</g>
<!-- Node1&#45;&gt;Node8 -->
<g id="edge7_Node000001_Node000008" class="edge">
<title>Node1&#45;&gt;Node8</title>
<g id="a_edge7_Node000001_Node000008"><a xlink:title=" ">
<path fill="none" stroke="#63b8ff" d="M64.49,-213.75C79.46,-192.69 108.83,-155.05 142,-132.25 144.09,-130.82 146.27,-129.45 148.51,-128.14"/>
<polygon fill="#63b8ff" stroke="#63b8ff" points="150.08,-131.27 157.33,-123.55 146.85,-125.06 150.08,-131.27"/>
</a>
</g>
</g>
<!-- Node9 -->
<g id="Node000009" class="node">
<title>Node9</title>
<g id="a_Node000009"><a xlink:href="classlmms_1_1Sf2Instrument.html#a803e44b47306f7525f8b39559144236b" target="_top" xlink:title=" ">
<polygon fill="white" stroke="#666666" points="260.38,-73.5 154.38,-73.5 154.38,-43 260.38,-43 260.38,-73.5"/>
<text xml:space="preserve" text-anchor="start" x="162.38" y="-60" font-family="Helvetica,sans-Serif" font-size="10.00">lmms::Sf2Instrument</text>
<text xml:space="preserve" text-anchor="middle" x="207.38" y="-48.75" font-family="Helvetica,sans-Serif" font-size="10.00">::updateTuning</text>
</a>
</g>
</g>
<!-- Node1&#45;&gt;Node9 -->
<g id="edge8_Node000001_Node000009" class="edge">
<title>Node1&#45;&gt;Node9</title>
<g id="a_edge8_Node000001_Node000009"><a xlink:title=" ">
<path fill="none" stroke="#63b8ff" d="M59.42,-213.76C70.47,-184.33 98.29,-120.02 142,-83.25 143.45,-82.03 144.97,-80.86 146.54,-79.75"/>
<polygon fill="#63b8ff" stroke="#63b8ff" points="148.02,-82.95 154.72,-74.74 144.36,-76.98 148.02,-82.95"/>
</a>
</g>
</g>
<!-- Node10 -->
<g id="Node000010" class="node">
<title>Node10</title>
<g id="a_Node000010"><a xlink:href="classlmms_1_1Instrument.html#a0190782643cb68d41739520dd3451242" target="_top" xlink:title=" ">
<polygon fill="white" stroke="#666666" points="450,-116.5 308.75,-116.5 308.75,-86 450,-86 450,-116.5"/>
<text xml:space="preserve" text-anchor="start" x="316.75" y="-103" font-family="Helvetica,sans-Serif" font-size="10.00">lmms::Instrument::instrument</text>
<text xml:space="preserve" text-anchor="middle" x="379.38" y="-91.75" font-family="Helvetica,sans-Serif" font-size="10.00">Track</text>
</a>
</g>
</g>
<!-- Node9&#45;&gt;Node10 -->
<g id="edge9_Node000009_Node000010" class="edge">
<title>Node9&#45;&gt;Node10</title>
<g id="a_edge9_Node000009_Node000010"><a xlink:title=" ">
<path fill="none" stroke="#63b8ff" d="M260.77,-71.5C274.9,-75.08 290.45,-79.01 305.48,-82.81"/>
<polygon fill="#63b8ff" stroke="#63b8ff" points="304.29,-86.12 314.84,-85.18 306,-79.33 304.29,-86.12"/>
</a>
</g>
</g>
<!-- Node11 -->
<g id="Node000011" class="node">
<title>Node11</title>
<g id="a_Node000011"><a xlink:href="classlmms_1_1Microtuner.html#a9ccb39af25210268dfa9579f41b9a228" target="_top" xlink:title="Return frequency for a given MIDI key, using the active mapping and scale.">
<polygon fill="white" stroke="#666666" points="449.62,-67.88 309.12,-67.88 309.12,-48.62 449.62,-48.62 449.62,-67.88"/>
<text xml:space="preserve" text-anchor="middle" x="379.38" y="-54.38" font-family="Helvetica,sans-Serif" font-size="10.00">lmms::Microtuner::keyToFreq</text>
</a>
</g>
</g>
<!-- Node9&#45;&gt;Node11 -->
<g id="edge10_Node000009_Node000011" class="edge">
<title>Node9&#45;&gt;Node11</title>
<g id="a_edge10_Node000009_Node000011"><a xlink:title=" ">
<path fill="none" stroke="#63b8ff" d="M260.77,-58.25C272.35,-58.25 284.87,-58.25 297.29,-58.25"/>
<polygon fill="#63b8ff" stroke="#63b8ff" points="297.12,-61.75 307.12,-58.25 297.12,-54.75 297.12,-61.75"/>
</a>
</g>
</g>
<!-- Node15 -->
<g id="Node000015" class="node">
<title>Node15</title>
<g id="a_Node000015"><a xlink:href="classlmms_1_1InstrumentTrack.html#a760798c5e7d05b16c1d47de5feea1687" target="_top" xlink:title=" ">
<polygon fill="white" stroke="#666666" points="437.25,-30.5 321.5,-30.5 321.5,0 437.25,0 437.25,-30.5"/>
<text xml:space="preserve" text-anchor="start" x="329.5" y="-17" font-family="Helvetica,sans-Serif" font-size="10.00">lmms::InstrumentTrack</text>
<text xml:space="preserve" text-anchor="middle" x="379.38" y="-5.75" font-family="Helvetica,sans-Serif" font-size="10.00">::microtuner</text>
</a>
</g>
</g>
<!-- Node9&#45;&gt;Node15 -->
<g id="edge14_Node000009_Node000015" class="edge">
<title>Node9&#45;&gt;Node15</title>
<g id="a_edge14_Node000009_Node000015"><a xlink:title=" ">
<path fill="none" stroke="#63b8ff" d="M260.77,-45C276.45,-41.03 293.89,-36.62 310.42,-32.44"/>
<polygon fill="#63b8ff" stroke="#63b8ff" points="310.82,-35.95 319.66,-30.1 309.11,-29.16 310.82,-35.95"/>
</a>
</g>
</g>
<!-- Node12 -->
<g id="Node000012" class="node">
<title>Node12</title>
<g id="a_Node000012"><a xlink:href="classlmms_1_1Song.html#a794068854c740eb701b1437e60c40160" target="_top" xlink:title=" ">
<polygon fill="white" stroke="#666666" points="606.25,-104.88 486,-104.88 486,-85.62 606.25,-85.62 606.25,-104.88"/>
<text xml:space="preserve" text-anchor="middle" x="546.12" y="-91.38" font-family="Helvetica,sans-Serif" font-size="10.00">lmms::Song::getKeymap</text>
</a>
</g>
</g>
<!-- Node11&#45;&gt;Node12 -->
<g id="edge11_Node000011_Node000012" class="edge">
<title>Node11&#45;&gt;Node12</title>
<g id="a_edge11_Node000011_Node000012"><a xlink:title=" ">
<path fill="none" stroke="#63b8ff" d="M425.39,-68.36C445.01,-72.77 468.21,-77.98 488.94,-82.63"/>
<polygon fill="#63b8ff" stroke="#63b8ff" points="488.16,-86.04 498.68,-84.82 489.69,-79.21 488.16,-86.04"/>
</a>
</g>
</g>
<!-- Node13 -->
<g id="Node000013" class="node">
<title>Node13</title>
<g id="a_Node000013"><a xlink:href="classlmms_1_1Song.html#a3a9849e63428400631cbedd662aa4757" target="_top" xlink:title=" ">
<polygon fill="white" stroke="#666666" points="601,-67.88 491.25,-67.88 491.25,-48.62 601,-48.62 601,-67.88"/>
<text xml:space="preserve" text-anchor="middle" x="546.12" y="-54.38" font-family="Helvetica,sans-Serif" font-size="10.00">lmms::Song::getScale</text>
</a>
</g>
</g>
<!-- Node11&#45;&gt;Node13 -->
<g id="edge12_Node000011_Node000013" class="edge">
<title>Node11&#45;&gt;Node13</title>
<g id="a_edge12_Node000011_Node000013"><a xlink:title=" ">
<path fill="none" stroke="#63b8ff" d="M449.77,-58.25C459.63,-58.25 469.74,-58.25 479.53,-58.25"/>
<polygon fill="#63b8ff" stroke="#63b8ff" points="479.31,-61.75 489.31,-58.25 479.31,-54.75 479.31,-61.75"/>
</a>
</g>
</g>
<!-- Node14 -->
<g id="Node000014" class="node">
<title>Node14</title>
<g id="a_Node000014"><a xlink:href="classlmms_1_1Engine.html#a8b943018d0245555391473f4a7d75b5b" target="_top" xlink:title=" ">
<polygon fill="white" stroke="#666666" points="603.25,-30.88 489,-30.88 489,-11.62 603.25,-11.62 603.25,-30.88"/>
<text xml:space="preserve" text-anchor="middle" x="546.12" y="-17.38" font-family="Helvetica,sans-Serif" font-size="10.00">lmms::Engine::getSong</text>
</a>
</g>
</g>
<!-- Node11&#45;&gt;Node14 -->
<g id="edge13_Node000011_Node000014" class="edge">
<title>Node11&#45;&gt;Node14</title>
<g id="a_edge13_Node000011_Node000014"><a xlink:title=" ">
<path fill="none" stroke="#63b8ff" d="M425.39,-48.14C445.01,-43.73 468.21,-38.52 488.94,-33.87"/>
<polygon fill="#63b8ff" stroke="#63b8ff" points="489.69,-37.29 498.68,-31.68 488.16,-30.46 489.69,-37.29"/>
</a>
</g>
</g>
</g>
</svg>
