<?xml version="1.0" encoding="UTF-8" standalone="no"?>
<!DOCTYPE svg PUBLIC "-//W3C//DTD SVG 1.1//EN"
 "http://www.w3.org/Graphics/SVG/1.1/DTD/svg11.dtd">
<!-- Generated by graphviz version 14.0.2 (0)
 -->
<!-- Title: juce::TreeView::moveSelectedRow Pages: 1 -->
<svg width="749pt" height="331pt"
 viewBox="0.00 0.00 749.00 331.00" xmlns="http://www.w3.org/2000/svg" xmlns:xlink="http://www.w3.org/1999/xlink">
<g id="graph0" class="graph" transform="scale(1 1) rotate(0) translate(4 326.88)">
<title>juce::TreeView::moveSelectedRow</title>
<!-- Node1 -->
<g id="Node000001" class="node">
<title>Node1</title>
<g id="a_Node000001"><a xlink:title=" ">
<polygon fill="#999999" stroke="#666666" points="166,-182.88 0,-182.88 0,-163.62 166,-163.62 166,-182.88"/>
<text xml:space="preserve" text-anchor="middle" x="83" y="-169.38" font-family="Helvetica,sans-Serif" font-size="10.00">juce::TreeView::moveSelectedRow</text>
</a>
</g>
</g>
<!-- Node1&#45;&gt;Node1 -->
<g id="edge14_Node000001_Node000001" class="edge">
<title>Node1&#45;&gt;Node1</title>
<g id="a_edge14_Node000001_Node000001"><a xlink:title=" ">
<path fill="none" stroke="#63b8ff" d="M52.2,-183.16C38.15,-191.77 48.42,-200.88 83,-200.88 102.99,-200.88 114.86,-197.83 118.6,-193.6"/>
<polygon fill="#63b8ff" stroke="#63b8ff" points="121.79,-192.16 114.43,-184.54 115.43,-195.09 121.79,-192.16"/>
</a>
</g>
</g>
<!-- Node2 -->
<g id="Node000002" class="node">
<title>Node2</title>
<g id="a_Node000002"><a xlink:href="classjuce_1_1TreeView.html#a1a8774bde7c6a76f62425b724dfc2e43" target="_top" xlink:title=" ">
<polygon fill="white" stroke="#666666" points="354.5,-304.88 205,-304.88 205,-285.62 354.5,-285.62 354.5,-304.88"/>
<text xml:space="preserve" text-anchor="middle" x="279.75" y="-291.38" font-family="Helvetica,sans-Serif" font-size="10.00">juce::TreeView::getItemOnRow</text>
</a>
</g>
</g>
<!-- Node1&#45;&gt;Node2 -->
<g id="edge1_Node000001_Node000002" class="edge">
<title>Node1&#45;&gt;Node2</title>
<g id="a_edge1_Node000001_Node000002"><a xlink:title=" ">
<path fill="none" stroke="#63b8ff" d="M92.34,-183.2C110.22,-203.85 154.49,-251.51 202,-276.25 205.69,-278.17 209.57,-279.9 213.57,-281.46"/>
<polygon fill="#63b8ff" stroke="#63b8ff" points="212.28,-284.72 222.87,-284.71 214.58,-278.11 212.28,-284.72"/>
</a>
</g>
</g>
<!-- Node10 -->
<g id="Node000010" class="node">
<title>Node10</title>
<g id="a_Node000010"><a xlink:href="classjuce_1_1TreeView.html#a2b0a893f8e6c1371d3ce4f2d2a6b9ac8" target="_top" xlink:title=" ">
<polygon fill="white" stroke="#666666" points="351.5,-249.5 208,-249.5 208,-219 351.5,-219 351.5,-249.5"/>
<text xml:space="preserve" text-anchor="start" x="216" y="-236" font-family="Helvetica,sans-Serif" font-size="10.00">juce::TreeView::getNumRows</text>
<text xml:space="preserve" text-anchor="middle" x="279.75" y="-224.75" font-family="Helvetica,sans-Serif" font-size="10.00">InTree</text>
</a>
</g>
</g>
<!-- Node1&#45;&gt;Node10 -->
<g id="edge7_Node000001_Node000010" class="edge">
<title>Node1&#45;&gt;Node10</title>
<g id="a_edge7_Node000001_Node000010"><a xlink:title=" ">
<path fill="none" stroke="#63b8ff" d="M116.05,-183.31C139.78,-190.75 172.91,-201.14 202,-210.25 207.06,-211.84 212.31,-213.48 217.59,-215.13"/>
<polygon fill="#63b8ff" stroke="#63b8ff" points="216.35,-218.41 226.94,-218.05 218.44,-211.73 216.35,-218.41"/>
</a>
</g>
</g>
<!-- Node11 -->
<g id="Node000011" class="node">
<title>Node11</title>
<g id="a_Node000011"><a xlink:href="classjuce_1_1TreeView.html#a081a3f1043653ec2f577c4fce7a72c7d" target="_top" xlink:title=" ">
<polygon fill="white" stroke="#666666" points="357.5,-182.88 202,-182.88 202,-163.62 357.5,-163.62 357.5,-182.88"/>
<text xml:space="preserve" text-anchor="middle" x="279.75" y="-169.38" font-family="Helvetica,sans-Serif" font-size="10.00">juce::TreeView::getSelectedItem</text>
</a>
</g>
</g>
<!-- Node1&#45;&gt;Node11 -->
<g id="edge9_Node000001_Node000011" class="edge">
<title>Node1&#45;&gt;Node11</title>
<g id="a_edge9_Node000001_Node000011"><a xlink:title=" ">
<path fill="none" stroke="#63b8ff" d="M166.31,-173.25C174.28,-173.25 182.39,-173.25 190.42,-173.25"/>
<polygon fill="#63b8ff" stroke="#63b8ff" points="190.18,-176.75 200.18,-173.25 190.18,-169.75 190.18,-176.75"/>
</a>
</g>
</g>
<!-- Node12 -->
<g id="Node000012" class="node">
<title>Node12</title>
<g id="a_Node000012"><a xlink:href="namespacejuce.html#a595f2864812b76f88ed833402d0dfc93" target="_top" xlink:title=" ">
<polygon fill="white" stroke="#666666" points="309.12,-127.88 250.38,-127.88 250.38,-108.62 309.12,-108.62 309.12,-127.88"/>
<text xml:space="preserve" text-anchor="middle" x="279.75" y="-114.38" font-family="Helvetica,sans-Serif" font-size="10.00">juce::jlimit</text>
</a>
</g>
</g>
<!-- Node1&#45;&gt;Node12 -->
<g id="edge12_Node000001_Node000012" class="edge">
<title>Node1&#45;&gt;Node12</title>
<g id="a_edge12_Node000001_Node000012"><a xlink:title=" ">
<path fill="none" stroke="#63b8ff" d="M119.72,-163.16C153.51,-153.62 204.12,-139.33 239.13,-129.44"/>
<polygon fill="#63b8ff" stroke="#63b8ff" points="239.78,-132.89 248.46,-126.81 237.88,-126.16 239.78,-132.89"/>
</a>
</g>
</g>
<!-- Node13 -->
<g id="Node000013" class="node">
<title>Node13</title>
<g id="a_Node000013"><a xlink:href="classjuce_1_1TreeView.html#aa03e98b8bf6b4cf36ead4603b6d96d73" target="_top" xlink:title=" ">
<polygon fill="white" stroke="#666666" points="339.12,-72.5 220.38,-72.5 220.38,-42 339.12,-42 339.12,-72.5"/>
<text xml:space="preserve" text-anchor="start" x="228.38" y="-59" font-family="Helvetica,sans-Serif" font-size="10.00">juce::TreeView::scrollTo</text>
<text xml:space="preserve" text-anchor="middle" x="279.75" y="-47.75" font-family="Helvetica,sans-Serif" font-size="10.00">KeepItemVisible</text>
</a>
</g>
</g>
<!-- Node1&#45;&gt;Node13 -->
<g id="edge15_Node000001_Node000013" class="edge">
<title>Node1&#45;&gt;Node13</title>
<g id="a_edge15_Node000001_Node000013"><a xlink:title=" ">
<path fill="none" stroke="#63b8ff" d="M99.47,-163.14C121.85,-148.6 164.66,-121.15 202,-99.25 213.98,-92.23 227.18,-84.86 239.22,-78.3"/>
<polygon fill="#63b8ff" stroke="#63b8ff" points="240.54,-81.56 247.67,-73.72 237.21,-75.41 240.54,-81.56"/>
</a>
</g>
</g>
<!-- Node2&#45;&gt;Node2 -->
<g id="edge2_Node000002_Node000002" class="edge">
<title>Node2&#45;&gt;Node2</title>
<g id="a_edge2_Node000002_Node000002"><a xlink:title=" ">
<path fill="none" stroke="#63b8ff" d="M250.59,-305.16C237.29,-313.77 247.01,-322.88 279.75,-322.88 298.68,-322.88 309.91,-319.83 313.45,-315.6"/>
<polygon fill="#63b8ff" stroke="#63b8ff" points="316.71,-314.32 309.51,-306.55 310.29,-317.12 316.71,-314.32"/>
</a>
</g>
</g>
<!-- Node3 -->
<g id="Node000003" class="node">
<title>Node3</title>
<g id="a_Node000003"><a xlink:href="classjuce_1_1TreeView.html#a6738ac8dd5a9abdf2aa124691a8c7cfe" target="_top" xlink:title=" ">
<polygon fill="white" stroke="#666666" points="538.5,-182.88 393.5,-182.88 393.5,-163.62 538.5,-163.62 538.5,-182.88"/>
<text xml:space="preserve" text-anchor="middle" x="466" y="-169.38" font-family="Helvetica,sans-Serif" font-size="10.00">juce::TreeView::TreeViewItem</text>
</a>
</g>
</g>
<!-- Node2&#45;&gt;Node3 -->
<g id="edge3_Node000002_Node000003" class="edge">
<title>Node2&#45;&gt;Node3</title>
<g id="a_edge3_Node000002_Node000003"><a xlink:title=" ">
<path fill="none" stroke="#63b8ff" d="M336.16,-285.24C343.57,-282.85 350.89,-279.89 357.5,-276.25 396.53,-254.76 431.74,-215.51 450.57,-192.16"/>
<polygon fill="#63b8ff" stroke="#63b8ff" points="453.24,-194.44 456.67,-184.42 447.74,-190.11 453.24,-194.44"/>
</a>
</g>
</g>
<!-- Node3&#45;&gt;Node3 -->
<g id="edge6_Node000003_Node000003" class="edge">
<title>Node3&#45;&gt;Node3</title>
<g id="a_edge6_Node000003_Node000003"><a xlink:title=" ">
<path fill="none" stroke="#63b8ff" d="M436.84,-183.16C423.54,-191.77 433.26,-200.88 466,-200.88 484.93,-200.88 496.16,-197.83 499.7,-193.6"/>
<polygon fill="#63b8ff" stroke="#63b8ff" points="502.96,-192.32 495.76,-184.55 496.54,-195.12 502.96,-192.32"/>
</a>
</g>
</g>
<!-- Node4 -->
<g id="Node000004" class="node">
<title>Node4</title>
<g id="a_Node000004"><a xlink:href="classjuce_1_1TreeView.html#a55ade2c10e17d28a0cabacc2a01d80f9" target="_top" xlink:title=" ">
<polygon fill="#fff0f0" stroke="red" points="740.5,-188.5 574.5,-188.5 574.5,-158 740.5,-158 740.5,-188.5"/>
<text xml:space="preserve" text-anchor="start" x="582.5" y="-175" font-family="Helvetica,sans-Serif" font-size="10.00">juce::TreeView::createAccessibility</text>
<text xml:space="preserve" text-anchor="middle" x="657.5" y="-163.75" font-family="Helvetica,sans-Serif" font-size="10.00">Handler</text>
</a>
</g>
</g>
<!-- Node3&#45;&gt;Node4 -->
<g id="edge4_Node000003_Node000004" class="edge">
<title>Node3&#45;&gt;Node4</title>
<g id="a_edge4_Node000003_Node000004"><a xlink:title=" ">
<path fill="none" stroke="#63b8ff" d="M538.91,-173.25C546.74,-173.25 554.79,-173.25 562.83,-173.25"/>
<polygon fill="#63b8ff" stroke="#63b8ff" points="562.65,-176.75 572.65,-173.25 562.65,-169.75 562.65,-176.75"/>
</a>
</g>
</g>
<!-- Node4&#45;&gt;Node4 -->
<g id="edge5_Node000004_Node000004" class="edge">
<title>Node4&#45;&gt;Node4</title>
<g id="a_edge5_Node000004_Node000004"><a xlink:title=" ">
<path fill="none" stroke="#63b8ff" d="M623.57,-188.99C616.64,-198.06 627.95,-206.5 657.5,-206.5 673.66,-206.5 684.36,-203.97 689.61,-200.2"/>
<polygon fill="#63b8ff" stroke="#63b8ff" points="693.05,-200.91 691.19,-190.48 686.14,-199.79 693.05,-200.91"/>
</a>
</g>
</g>
<!-- Node10&#45;&gt;Node10 -->
<g id="edge8_Node000010_Node000010" class="edge">
<title>Node10&#45;&gt;Node10</title>
<g id="a_edge8_Node000010_Node000010"><a xlink:title=" ">
<path fill="none" stroke="#63b8ff" d="M246.75,-249.99C240.01,-259.06 251.01,-267.5 279.75,-267.5 295.47,-267.5 305.88,-264.97 310.98,-261.2"/>
<polygon fill="#63b8ff" stroke="#63b8ff" points="314.42,-261.9 312.52,-251.48 307.5,-260.81 314.42,-261.9"/>
</a>
</g>
</g>
<!-- Node11&#45;&gt;Node3 -->
<g id="edge11_Node000011_Node000003" class="edge">
<title>Node11&#45;&gt;Node3</title>
<g id="a_edge11_Node000011_Node000003"><a xlink:title=" ">
<path fill="none" stroke="#63b8ff" d="M357.82,-173.25C365.8,-173.25 373.93,-173.25 381.97,-173.25"/>
<polygon fill="#63b8ff" stroke="#63b8ff" points="381.73,-176.75 391.73,-173.25 381.73,-169.75 381.73,-176.75"/>
</a>
</g>
</g>
<!-- Node11&#45;&gt;Node11 -->
<g id="edge10_Node000011_Node000011" class="edge">
<title>Node11&#45;&gt;Node11</title>
<g id="a_edge10_Node000011_Node000011"><a xlink:title=" ">
<path fill="none" stroke="#63b8ff" d="M250.59,-183.16C237.29,-191.77 247.01,-200.88 279.75,-200.88 298.68,-200.88 309.91,-197.83 313.45,-193.6"/>
<polygon fill="#63b8ff" stroke="#63b8ff" points="316.71,-192.32 309.51,-184.55 310.29,-195.12 316.71,-192.32"/>
</a>
</g>
</g>
<!-- Node12&#45;&gt;Node12 -->
<g id="edge13_Node000012_Node000012" class="edge">
<title>Node12&#45;&gt;Node12</title>
<g id="a_edge13_Node000012_Node000012"><a xlink:title=" ">
<path fill="none" stroke="#63b8ff" d="M250.59,-128.16C237.29,-136.77 247.01,-145.88 279.75,-145.88 298.68,-145.88 309.91,-142.83 313.45,-138.6"/>
<polygon fill="#63b8ff" stroke="#63b8ff" points="316.71,-137.32 309.51,-129.55 310.29,-140.12 316.71,-137.32"/>
</a>
</g>
</g>
<!-- Node13&#45;&gt;Node3 -->
<g id="edge21_Node000013_Node000003" class="edge">
<title>Node13&#45;&gt;Node3</title>
<g id="a_edge21_Node000013_Node000003"><a xlink:title=" ">
<path fill="none" stroke="#63b8ff" d="M311.06,-72.88C325.35,-80.49 342.51,-89.98 357.5,-99.25 374.07,-109.5 377.47,-113.19 393.5,-124.25 409.25,-135.11 426.99,-147.27 440.86,-156.76"/>
<polygon fill="#63b8ff" stroke="#63b8ff" points="438.71,-159.53 448.94,-162.29 442.66,-153.75 438.71,-159.53"/>
</a>
</g>
</g>
<!-- Node13&#45;&gt;Node13 -->
<g id="edge20_Node000013_Node000013" class="edge">
<title>Node13&#45;&gt;Node13</title>
<g id="a_edge20_Node000013_Node000013"><a xlink:title=" ">
<path fill="none" stroke="#63b8ff" d="M246.75,-72.99C240.01,-82.06 251.01,-90.5 279.75,-90.5 295.47,-90.5 305.88,-87.97 310.98,-84.2"/>
<polygon fill="#63b8ff" stroke="#63b8ff" points="314.42,-84.9 312.52,-74.48 307.5,-83.81 314.42,-84.9"/>
</a>
</g>
</g>
<!-- Node14 -->
<g id="Node000014" class="node">
<title>Node14</title>
<g id="a_Node000014"><a xlink:href="classjuce_1_1TreeViewItem.html#a4f4d225fe078b95c4115bebe2a79eabb" target="_top" xlink:title=" ">
<polygon fill="white" stroke="#666666" points="536.62,-97.5 395.38,-97.5 395.38,-67 536.62,-67 536.62,-97.5"/>
<text xml:space="preserve" text-anchor="start" x="403.38" y="-84" font-family="Helvetica,sans-Serif" font-size="10.00">juce::TreeViewItem</text>
<text xml:space="preserve" text-anchor="middle" x="466" y="-72.75" font-family="Helvetica,sans-Serif" font-size="10.00">::getDeepestOpenParentItem</text>
</a>
</g>
</g>
<!-- Node13&#45;&gt;Node14 -->
<g id="edge16_Node000013_Node000014" class="edge">
<title>Node13&#45;&gt;Node14</title>
<g id="a_edge16_Node000013_Node000014"><a xlink:title=" ">
<path fill="none" stroke="#63b8ff" d="M339.55,-65.23C353.65,-67.14 368.96,-69.22 383.87,-71.24"/>
<polygon fill="#63b8ff" stroke="#63b8ff" points="383.29,-74.7 393.67,-72.57 384.23,-67.76 383.29,-74.7"/>
</a>
</g>
</g>
<!-- Node16 -->
<g id="Node000016" class="node">
<title>Node16</title>
<g id="a_Node000016"><a xlink:href="classjuce_1_1TreeView.html#a31ed7a780cbd6317082ba315e6600937" target="_top" xlink:title=" ">
<polygon fill="white" stroke="#666666" points="537.38,-30.5 394.62,-30.5 394.62,0 537.38,0 537.38,-30.5"/>
<text xml:space="preserve" text-anchor="start" x="402.62" y="-17" font-family="Helvetica,sans-Serif" font-size="10.00">juce::TreeView::updateVisible</text>
<text xml:space="preserve" text-anchor="middle" x="466" y="-5.75" font-family="Helvetica,sans-Serif" font-size="10.00">Items</text>
</a>
</g>
</g>
<!-- Node13&#45;&gt;Node16 -->
<g id="edge22_Node000013_Node000016" class="edge">
<title>Node13&#45;&gt;Node16</title>
<g id="a_edge22_Node000013_Node000016"><a xlink:title=" ">
<path fill="none" stroke="#63b8ff" d="M339.55,-43.85C354.05,-40.54 369.81,-36.95 385.11,-33.46"/>
<polygon fill="#63b8ff" stroke="#63b8ff" points="385.7,-36.92 394.68,-31.28 384.15,-30.09 385.7,-36.92"/>
</a>
</g>
</g>
<!-- Node14&#45;&gt;Node14 -->
<g id="edge17_Node000014_Node000014" class="edge">
<title>Node14&#45;&gt;Node14</title>
<g id="a_edge17_Node000014_Node000014"><a xlink:title=" ">
<path fill="none" stroke="#63b8ff" d="M433,-97.99C426.26,-107.06 437.26,-115.5 466,-115.5 481.72,-115.5 492.13,-112.97 497.23,-109.2"/>
<polygon fill="#63b8ff" stroke="#63b8ff" points="500.67,-109.9 498.77,-99.48 493.75,-108.81 500.67,-109.9"/>
</a>
</g>
</g>
<!-- Node15 -->
<g id="Node000015" class="node">
<title>Node15</title>
<g id="a_Node000015"><a xlink:href="classjuce_1_1TreeViewItem.html#a84b8cef358628022e4173f3aea7ce47a" target="_top" xlink:title=" ">
<polygon fill="white" stroke="#666666" points="707.12,-97.5 607.88,-97.5 607.88,-67 707.12,-67 707.12,-97.5"/>
<text xml:space="preserve" text-anchor="start" x="615.88" y="-84" font-family="Helvetica,sans-Serif" font-size="10.00">juce::TreeViewItem</text>
<text xml:space="preserve" text-anchor="middle" x="657.5" y="-72.75" font-family="Helvetica,sans-Serif" font-size="10.00">::TreeViewItem</text>
</a>
</g>
</g>
<!-- Node14&#45;&gt;Node15 -->
<g id="edge18_Node000014_Node000015" class="edge">
<title>Node14&#45;&gt;Node15</title>
<g id="a_edge18_Node000014_Node000015"><a xlink:title=" ">
<path fill="none" stroke="#63b8ff" d="M537.02,-82.25C556.41,-82.25 577.27,-82.25 596.06,-82.25"/>
<polygon fill="#63b8ff" stroke="#63b8ff" points="595.94,-85.75 605.94,-82.25 595.94,-78.75 595.94,-85.75"/>
</a>
</g>
</g>
<!-- Node15&#45;&gt;Node15 -->
<g id="edge19_Node000015_Node000015" class="edge">
<title>Node15&#45;&gt;Node15</title>
<g id="a_edge19_Node000015_Node000015"><a xlink:title=" ">
<path fill="none" stroke="#63b8ff" d="M623.57,-97.99C616.64,-107.06 627.95,-115.5 657.5,-115.5 673.66,-115.5 684.36,-112.97 689.61,-109.2"/>
<polygon fill="#63b8ff" stroke="#63b8ff" points="693.05,-109.91 691.19,-99.48 686.14,-108.79 693.05,-109.91"/>
</a>
</g>
</g>
<!-- Node16&#45;&gt;Node16 -->
<g id="edge23_Node000016_Node000016" class="edge">
<title>Node16&#45;&gt;Node16</title>
<g id="a_edge23_Node000016_Node000016"><a xlink:title=" ">
<path fill="none" stroke="#63b8ff" d="M433,-30.99C426.26,-40.06 437.26,-48.5 466,-48.5 481.72,-48.5 492.13,-45.97 497.23,-42.2"/>
<polygon fill="#63b8ff" stroke="#63b8ff" points="500.67,-42.9 498.77,-32.48 493.75,-41.81 500.67,-42.9"/>
</a>
</g>
</g>
</g>
</svg>
