<?xml version="1.0" encoding="UTF-8" standalone="no"?>
<!DOCTYPE svg PUBLIC "-//W3C//DTD SVG 1.1//EN"
 "http://www.w3.org/Graphics/SVG/1.1/DTD/svg11.dtd">
<!-- Generated by graphviz version 14.0.2 (0)
 -->
<!-- Title: Gb_Cpu::remain Pages: 1 -->
<svg width="634pt" height="83pt"
 viewBox="0.00 0.00 634.00 83.00" xmlns="http://www.w3.org/2000/svg" xmlns:xlink="http://www.w3.org/1999/xlink">
<g id="graph0" class="graph" transform="scale(1 1) rotate(0) translate(4 79.25)">
<title>Gb_Cpu::remain</title>
<!-- Node1 -->
<g id="Node000001" class="node">
<title>Node1</title>
<g id="a_Node000001"><a xlink:title=" ">
<polygon fill="#999999" stroke="#666666" points="626,-19.25 541,-19.25 541,0 626,0 626,-19.25"/>
<text xml:space="preserve" text-anchor="middle" x="583.5" y="-5.75" font-family="Helvetica,sans-Serif" font-size="10.00">Gb_Cpu::remain</text>
</a>
</g>
</g>
<!-- Node2 -->
<g id="Node000002" class="node">
<title>Node2</title>
<g id="a_Node000002"><a xlink:href="classGbs__Emu.html#a0550aba61d3df22b7b897ffcbe9534f4" target="_top" xlink:title=" ">
<polygon fill="white" stroke="#666666" points="505,-38.25 418.5,-38.25 418.5,-19 505,-19 505,-38.25"/>
<text xml:space="preserve" text-anchor="middle" x="461.75" y="-24.75" font-family="Helvetica,sans-Serif" font-size="10.00">Gbs_Emu::clock</text>
</a>
</g>
</g>
<!-- Node1&#45;&gt;Node2 -->
<g id="edge1_Node000001_Node000002" class="edge">
<title>Node1&#45;&gt;Node2</title>
<g id="a_edge1_Node000001_Node000002"><a xlink:title=" ">
<path fill="none" stroke="#63b8ff" d="M529.36,-18.06C521.28,-19.34 513.03,-20.65 505.22,-21.89"/>
<polygon fill="#63b8ff" stroke="#63b8ff" points="529.79,-21.53 539.12,-16.51 528.7,-14.62 529.79,-21.53"/>
</a>
</g>
</g>
<!-- Node6 -->
<g id="Node000006" class="node">
<title>Node6</title>
<g id="a_Node000006"><a xlink:href="classGbs__Emu.html#a8ce77a61142a80d13f2b0783427f6371" target="_top" xlink:title=" ">
<polygon fill="white" stroke="#666666" points="110.5,-19.25 0,-19.25 0,0 110.5,0 110.5,-19.25"/>
<text xml:space="preserve" text-anchor="middle" x="55.25" y="-5.75" font-family="Helvetica,sans-Serif" font-size="10.00">Gbs_Emu::run_clocks</text>
</a>
</g>
</g>
<!-- Node1&#45;&gt;Node6 -->
<g id="edge6_Node000001_Node000006" class="edge">
<title>Node1&#45;&gt;Node6</title>
<g id="a_edge6_Node000001_Node000006"><a xlink:title=" ">
<path fill="none" stroke="#63b8ff" d="M529.4,-9.62C428.98,-9.62 212.22,-9.62 110.74,-9.62"/>
<polygon fill="#63b8ff" stroke="#63b8ff" points="529.25,-13.13 539.25,-9.63 529.25,-6.13 529.25,-13.13"/>
</a>
</g>
</g>
<!-- Node3 -->
<g id="Node000003" class="node">
<title>Node3</title>
<g id="a_Node000003"><a xlink:href="classGbs__Emu.html#aac3be3db51a6fe49ca850eb6ea22ba3e" target="_top" xlink:title=" ">
<polygon fill="white" stroke="#666666" points="381.38,-75.25 278.38,-75.25 278.38,-56 381.38,-56 381.38,-75.25"/>
<text xml:space="preserve" text-anchor="middle" x="329.88" y="-61.75" font-family="Helvetica,sans-Serif" font-size="10.00">Gbs_Emu::cpu_read</text>
</a>
</g>
</g>
<!-- Node2&#45;&gt;Node3 -->
<g id="edge2_Node000002_Node000003" class="edge">
<title>Node2&#45;&gt;Node3</title>
<g id="a_edge2_Node000002_Node000003"><a xlink:title=" ">
<path fill="none" stroke="#63b8ff" d="M414.59,-41.78C398.71,-46.3 381.21,-51.29 366.32,-55.53"/>
<polygon fill="#63b8ff" stroke="#63b8ff" points="415.15,-45.26 423.81,-39.15 413.23,-38.52 415.15,-45.26"/>
</a>
</g>
</g>
<!-- Node4 -->
<g id="Node000004" class="node">
<title>Node4</title>
<g id="a_Node000004"><a xlink:href="classGbs__Emu.html#a1540dd87a67f0dcbf37b50461fe08ff7" target="_top" xlink:title=" ">
<polygon fill="white" stroke="#666666" points="382.5,-38.25 277.25,-38.25 277.25,-19 382.5,-19 382.5,-38.25"/>
<text xml:space="preserve" text-anchor="middle" x="329.88" y="-24.75" font-family="Helvetica,sans-Serif" font-size="10.00">Gbs_Emu::cpu_write</text>
</a>
</g>
</g>
<!-- Node2&#45;&gt;Node4 -->
<g id="edge3_Node000002_Node000004" class="edge">
<title>Node2&#45;&gt;Node4</title>
<g id="a_edge3_Node000002_Node000004"><a xlink:title=" ">
<path fill="none" stroke="#63b8ff" d="M406.73,-28.62C398.73,-28.62 390.51,-28.62 382.56,-28.62"/>
<polygon fill="#63b8ff" stroke="#63b8ff" points="406.71,-32.13 416.71,-28.63 406.71,-25.13 406.71,-32.13"/>
</a>
</g>
</g>
<!-- Node5 -->
<g id="Node000005" class="node">
<title>Node5</title>
<g id="a_Node000005"><a xlink:href="classGbs__Emu.html#a3639713ba781047adcf39374b49c0549" target="_top" xlink:title=" ">
<polygon fill="#fff0f0" stroke="red" points="241.25,-38.25 146.5,-38.25 146.5,-19 241.25,-19 241.25,-38.25"/>
<text xml:space="preserve" text-anchor="middle" x="193.88" y="-24.75" font-family="Helvetica,sans-Serif" font-size="10.00">Gbs_Emu::cpu_jsr</text>
</a>
</g>
</g>
<!-- Node4&#45;&gt;Node5 -->
<g id="edge4_Node000004_Node000005" class="edge">
<title>Node4&#45;&gt;Node5</title>
<g id="a_edge4_Node000004_Node000005"><a xlink:title=" ">
<path fill="none" stroke="#63b8ff" d="M265.74,-28.62C257.65,-28.62 249.49,-28.62 241.73,-28.62"/>
<polygon fill="#63b8ff" stroke="#63b8ff" points="265.55,-32.13 275.55,-28.63 265.55,-25.13 265.55,-32.13"/>
</a>
</g>
</g>
<!-- Node5&#45;&gt;Node6 -->
<g id="edge5_Node000005_Node000006" class="edge">
<title>Node5&#45;&gt;Node6</title>
<g id="a_edge5_Node000005_Node000006"><a xlink:title=" ">
<path fill="none" stroke="#63b8ff" d="M135.01,-20.58C126.95,-19.46 118.68,-18.31 110.68,-17.19"/>
<polygon fill="#63b8ff" stroke="#63b8ff" points="134.35,-24.02 144.74,-21.93 135.32,-17.09 134.35,-24.02"/>
</a>
</g>
</g>
</g>
</svg>
