<?xml version="1.0" encoding="UTF-8" standalone="no"?>
<!DOCTYPE svg PUBLIC "-//W3C//DTD SVG 1.1//EN"
 "http://www.w3.org/Graphics/SVG/1.1/DTD/svg11.dtd">
<!-- Generated by graphviz version 14.0.2 (0)
 -->
<!-- Title: hiir::StageProc4F64Avx::process_sample_neg Pages: 1 -->
<svg width="279pt" height="57pt"
 viewBox="0.00 0.00 279.00 57.00" xmlns="http://www.w3.org/2000/svg" xmlns:xlink="http://www.w3.org/1999/xlink">
<g id="graph0" class="graph" transform="scale(1 1) rotate(0) translate(4 52.5)">
<title>hiir::StageProc4F64Avx::process_sample_neg</title>
<!-- Node1 -->
<g id="Node000001" class="node">
<title>Node1</title>
<g id="a_Node000001"><a xlink:title=" ">
<polygon fill="#999999" stroke="#666666" points="117.25,-30.5 0,-30.5 0,0 117.25,0 117.25,-30.5"/>
<text xml:space="preserve" text-anchor="start" x="8" y="-17" font-family="Helvetica,sans-Serif" font-size="10.00">hiir::StageProc4F64Avx</text>
<text xml:space="preserve" text-anchor="middle" x="58.62" y="-5.75" font-family="Helvetica,sans-Serif" font-size="10.00">::process_sample_neg</text>
</a>
</g>
</g>
<!-- Node1&#45;&gt;Node1 -->
<g id="edge1_Node000001_Node000001" class="edge">
<title>Node1&#45;&gt;Node1</title>
<g id="a_edge1_Node000001_Node000001"><a xlink:title=" ">
<path fill="none" stroke="#63b8ff" d="M31.47,-30.99C25.93,-40.06 34.98,-48.5 58.62,-48.5 71.56,-48.5 80.12,-45.97 84.33,-42.2"/>
<polygon fill="#63b8ff" stroke="#63b8ff" points="87.77,-42.85 85.59,-32.49 80.83,-41.95 87.77,-42.85"/>
</a>
</g>
</g>
<!-- Node2 -->
<g id="Node000002" class="node">
<title>Node2</title>
<g id="a_Node000002"><a xlink:href="classhiir_1_1StageProc4F64Avx.html#a2ed11fc8039b81893a7fc081d96ae51c" target="_top" xlink:title=" ">
<polygon fill="white" stroke="#666666" points="270.5,-30.5 153.25,-30.5 153.25,0 270.5,0 270.5,-30.5"/>
<text xml:space="preserve" text-anchor="start" x="161.25" y="-17" font-family="Helvetica,sans-Serif" font-size="10.00">hiir::StageProc4F64Avx</text>
<text xml:space="preserve" text-anchor="middle" x="211.88" y="-5.75" font-family="Helvetica,sans-Serif" font-size="10.00">::StageProc4F64Avx</text>
</a>
</g>
</g>
<!-- Node1&#45;&gt;Node2 -->
<g id="edge2_Node000001_Node000002" class="edge">
<title>Node1&#45;&gt;Node2</title>
<g id="a_edge2_Node000001_Node000002"><a xlink:title=" ">
<path fill="none" stroke="#63b8ff" d="M117.67,-15.25C125.6,-15.25 133.8,-15.25 141.89,-15.25"/>
<polygon fill="#63b8ff" stroke="#63b8ff" points="141.72,-18.75 151.72,-15.25 141.72,-11.75 141.72,-18.75"/>
</a>
</g>
</g>
</g>
</svg>
