<?xml version="1.0" encoding="UTF-8" standalone="no"?>
<!DOCTYPE svg PUBLIC "-//W3C//DTD SVG 1.1//EN"
 "http://www.w3.org/Graphics/SVG/1.1/DTD/svg11.dtd">
<!-- Generated by graphviz version 14.0.2 (0)
 -->
<!-- Title: hiir::PhaseHalfPiNeon::process_block_quad Pages: 1 -->
<svg width="587pt" height="245pt"
 viewBox="0.00 0.00 587.00 245.00" xmlns="http://www.w3.org/2000/svg" xmlns:xlink="http://www.w3.org/1999/xlink">
<g id="graph0" class="graph" transform="scale(1 1) rotate(0) translate(4 241.25)">
<title>hiir::PhaseHalfPiNeon::process_block_quad</title>
<!-- Node1 -->
<g id="Node000001" class="node">
<title>Node1</title>
<g id="a_Node000001"><a xlink:title=" ">
<polygon fill="#999999" stroke="#666666" points="111.25,-135.88 0,-135.88 0,-105.38 111.25,-105.38 111.25,-135.88"/>
<text xml:space="preserve" text-anchor="start" x="8" y="-122.38" font-family="Helvetica,sans-Serif" font-size="10.00">hiir::PhaseHalfPiNeon</text>
<text xml:space="preserve" text-anchor="middle" x="55.62" y="-111.12" font-family="Helvetica,sans-Serif" font-size="10.00">::process_block_quad</text>
</a>
</g>
</g>
<!-- Node2 -->
<g id="Node000002" class="node">
<title>Node2</title>
<g id="a_Node000002"><a xlink:href="Spc__Cpu_8h.html#a2569713fe026f7b153bba6e89d64498f" target="_top" xlink:title=" ">
<polygon fill="white" stroke="#666666" points="225.88,-237.25 182.88,-237.25 182.88,-218 225.88,-218 225.88,-237.25"/>
<text xml:space="preserve" text-anchor="middle" x="204.38" y="-223.75" font-family="Helvetica,sans-Serif" font-size="10.00">assert</text>
</a>
</g>
</g>
<!-- Node1&#45;&gt;Node2 -->
<g id="edge1_Node000001_Node000002" class="edge">
<title>Node1&#45;&gt;Node2</title>
<g id="a_edge1_Node000001_Node000002"><a xlink:title=" ">
<path fill="none" stroke="#63b8ff" d="M70.41,-136.1C87.16,-154.17 116.95,-184.08 147.25,-203.62 154.87,-208.54 163.66,-212.85 171.99,-216.41"/>
<polygon fill="#63b8ff" stroke="#63b8ff" points="170.55,-219.6 181.13,-220.08 173.16,-213.1 170.55,-219.6"/>
</a>
</g>
</g>
<!-- Node3 -->
<g id="Node000003" class="node">
<title>Node3</title>
<g id="a_Node000003"><a xlink:href="namespacehiir.html#ae628c30e55ebe84bd744c0fcf1c998bf" target="_top" xlink:title=" ">
<polygon fill="white" stroke="#666666" points="553,-190.25 491.25,-190.25 491.25,-171 553,-171 553,-190.25"/>
<text xml:space="preserve" text-anchor="middle" x="522.12" y="-176.75" font-family="Helvetica,sans-Serif" font-size="10.00">hiir::load4a</text>
</a>
</g>
</g>
<!-- Node1&#45;&gt;Node3 -->
<g id="edge2_Node000001_Node000003" class="edge">
<title>Node1&#45;&gt;Node3</title>
<g id="a_edge2_Node000001_Node000003"><a xlink:title=" ">
<path fill="none" stroke="#63b8ff" d="M84.24,-136.31C101.72,-145.43 125.12,-156.15 147.25,-161.62 265.04,-190.74 409.88,-187.5 479.66,-183.6"/>
<polygon fill="#63b8ff" stroke="#63b8ff" points="479.71,-187.11 489.49,-183.02 479.3,-180.12 479.71,-187.11"/>
</a>
</g>
</g>
<!-- Node4 -->
<g id="Node000004" class="node">
<title>Node4</title>
<g id="a_Node000004"><a xlink:href="namespacehiir.html#a5afe10070cb6f3d3b2a5ca298e618539" target="_top" xlink:title=" ">
<polygon fill="white" stroke="#666666" points="235.25,-152.25 173.5,-152.25 173.5,-133 235.25,-133 235.25,-152.25"/>
<text xml:space="preserve" text-anchor="middle" x="204.38" y="-138.75" font-family="Helvetica,sans-Serif" font-size="10.00">hiir::load4u</text>
</a>
</g>
</g>
<!-- Node1&#45;&gt;Node4 -->
<g id="edge3_Node000001_Node000004" class="edge">
<title>Node1&#45;&gt;Node4</title>
<g id="a_edge3_Node000001_Node000004"><a xlink:title=" ">
<path fill="none" stroke="#63b8ff" d="M111.69,-128.88C128.28,-131.37 146.2,-134.05 161.77,-136.39"/>
<polygon fill="#63b8ff" stroke="#63b8ff" points="161.24,-139.85 171.65,-137.87 162.28,-132.92 161.24,-139.85"/>
</a>
</g>
</g>
<!-- Node5 -->
<g id="Node000005" class="node">
<title>Node5</title>
<g id="a_Node000005"><a xlink:href="classhiir_1_1StageProcNeonV4.html#a4bea447aeeb5276252f0443c17c0cdda" target="_top" xlink:title=" ">
<polygon fill="white" stroke="#666666" points="261.5,-114.88 147.25,-114.88 147.25,-84.38 261.5,-84.38 261.5,-114.88"/>
<text xml:space="preserve" text-anchor="start" x="155.25" y="-101.38" font-family="Helvetica,sans-Serif" font-size="10.00">hiir::StageProcNeonV4</text>
<text xml:space="preserve" text-anchor="middle" x="204.38" y="-90.12" font-family="Helvetica,sans-Serif" font-size="10.00">::process_sample_neg</text>
</a>
</g>
</g>
<!-- Node1&#45;&gt;Node5 -->
<g id="edge4_Node000001_Node000005" class="edge">
<title>Node1&#45;&gt;Node5</title>
<g id="a_edge4_Node000001_Node000005"><a xlink:title=" ">
<path fill="none" stroke="#63b8ff" d="M111.69,-112.75C119.54,-111.62 127.68,-110.46 135.74,-109.3"/>
<polygon fill="#63b8ff" stroke="#63b8ff" points="136.12,-112.78 145.53,-107.9 135.13,-105.85 136.12,-112.78"/>
</a>
</g>
</g>
<!-- Node8 -->
<g id="Node000008" class="node">
<title>Node8</title>
<g id="a_Node000008"><a xlink:href="namespacehiir.html#a67ca25eb4100731059e1d36c561a16c8" target="_top" xlink:title=" ">
<polygon fill="white" stroke="#666666" points="552.25,-95.25 492,-95.25 492,-76 552.25,-76 552.25,-95.25"/>
<text xml:space="preserve" text-anchor="middle" x="522.12" y="-81.75" font-family="Helvetica,sans-Serif" font-size="10.00">hiir::storea</text>
</a>
</g>
</g>
<!-- Node1&#45;&gt;Node8 -->
<g id="edge11_Node000001_Node000008" class="edge">
<title>Node1&#45;&gt;Node8</title>
<g id="a_edge11_Node000001_Node000008"><a xlink:title=" ">
<path fill="none" stroke="#63b8ff" d="M80.46,-104.97C98.09,-94.36 123.14,-81.28 147.25,-75.62 265.57,-47.87 410.73,-66.04 480.24,-77.83"/>
<polygon fill="#63b8ff" stroke="#63b8ff" points="479.58,-81.26 490.03,-79.54 480.78,-74.37 479.58,-81.26"/>
</a>
</g>
</g>
<!-- Node9 -->
<g id="Node000009" class="node">
<title>Node9</title>
<g id="a_Node000009"><a xlink:href="namespacehiir.html#af46cace5bd3fa30c594a0c32053fbab4" target="_top" xlink:title=" ">
<polygon fill="white" stroke="#666666" points="234.5,-19.25 174.25,-19.25 174.25,0 234.5,0 234.5,-19.25"/>
<text xml:space="preserve" text-anchor="middle" x="204.38" y="-5.75" font-family="Helvetica,sans-Serif" font-size="10.00">hiir::storeu</text>
</a>
</g>
</g>
<!-- Node1&#45;&gt;Node9 -->
<g id="edge12_Node000001_Node000009" class="edge">
<title>Node1&#45;&gt;Node9</title>
<g id="a_edge12_Node000001_Node000009"><a xlink:title=" ">
<path fill="none" stroke="#63b8ff" d="M69.68,-105.03C86.16,-86.11 116.15,-54.21 147.25,-33.62 152.44,-30.19 158.21,-27.07 164.01,-24.29"/>
<polygon fill="#63b8ff" stroke="#63b8ff" points="165.27,-27.56 172.99,-20.3 162.43,-21.17 165.27,-27.56"/>
</a>
</g>
</g>
<!-- Node6 -->
<g id="Node000006" class="node">
<title>Node6</title>
<g id="a_Node000006"><a xlink:href="classhiir_1_1StageProcNeonV4.html#a3881a20507e0903b57420eae0764c068" target="_top" xlink:title=" ">
<polygon fill="white" stroke="#666666" points="429,-143.88 297.5,-143.88 297.5,-113.38 429,-113.38 429,-143.88"/>
<text xml:space="preserve" text-anchor="start" x="305.5" y="-130.38" font-family="Helvetica,sans-Serif" font-size="10.00">hiir::StageProcNeonV4</text>
<text xml:space="preserve" text-anchor="middle" x="363.25" y="-119.12" font-family="Helvetica,sans-Serif" font-size="10.00">::process_sample_neg_rec</text>
</a>
</g>
</g>
<!-- Node5&#45;&gt;Node6 -->
<g id="edge5_Node000005_Node000006" class="edge">
<title>Node5&#45;&gt;Node6</title>
<g id="a_edge5_Node000005_Node000006"><a xlink:title=" ">
<path fill="none" stroke="#63b8ff" d="M261.57,-110.01C269.49,-111.48 277.73,-113 285.95,-114.52"/>
<polygon fill="#63b8ff" stroke="#63b8ff" points="285.14,-117.93 295.61,-116.31 286.42,-111.05 285.14,-117.93"/>
</a>
</g>
</g>
<!-- Node5&#45;&gt;Node8 -->
<g id="edge10_Node000005_Node000008" class="edge">
<title>Node5&#45;&gt;Node8</title>
<g id="a_edge10_Node000005_Node000008"><a xlink:title=" ">
<path fill="none" stroke="#63b8ff" d="M261.82,-97.12C324.75,-94.33 424.97,-89.89 480.59,-87.42"/>
<polygon fill="#63b8ff" stroke="#63b8ff" points="480.4,-90.93 490.24,-86.99 480.09,-83.94 480.4,-90.93"/>
</a>
</g>
</g>
<!-- Node6&#45;&gt;Node3 -->
<g id="edge6_Node000006_Node000003" class="edge">
<title>Node6&#45;&gt;Node3</title>
<g id="a_edge6_Node000006_Node000003"><a xlink:title=" ">
<path fill="none" stroke="#63b8ff" d="M411.74,-144.37C433.61,-151.61 459.29,-160.13 480.27,-167.08"/>
<polygon fill="#63b8ff" stroke="#63b8ff" points="479.05,-170.37 489.64,-170.19 481.25,-163.72 479.05,-170.37"/>
</a>
</g>
</g>
<!-- Node6&#45;&gt;Node6 -->
<g id="edge7_Node000006_Node000006" class="edge">
<title>Node6&#45;&gt;Node6</title>
<g id="a_edge7_Node000006_Node000006"><a xlink:title=" ">
<path fill="none" stroke="#63b8ff" d="M335.1,-144.36C329.35,-153.43 338.74,-161.88 363.25,-161.88 376.66,-161.88 385.54,-159.35 389.89,-155.58"/>
<polygon fill="#63b8ff" stroke="#63b8ff" points="393.34,-156.24 391.2,-145.86 386.4,-155.3 393.34,-156.24"/>
</a>
</g>
</g>
<!-- Node7 -->
<g id="Node000007" class="node">
<title>Node7</title>
<g id="a_Node000007"><a xlink:href="classhiir_1_1StageProcNeonV4.html#a7d3fb973b42dbfd7499ada17b5c14533" target="_top" xlink:title=" ">
<polygon fill="white" stroke="#666666" points="579.25,-143.88 465,-143.88 465,-113.38 579.25,-113.38 579.25,-143.88"/>
<text xml:space="preserve" text-anchor="start" x="473" y="-130.38" font-family="Helvetica,sans-Serif" font-size="10.00">hiir::StageProcNeonV4</text>
<text xml:space="preserve" text-anchor="middle" x="522.12" y="-119.12" font-family="Helvetica,sans-Serif" font-size="10.00">::StageProcNeonV4</text>
</a>
</g>
</g>
<!-- Node6&#45;&gt;Node7 -->
<g id="edge8_Node000006_Node000007" class="edge">
<title>Node6&#45;&gt;Node7</title>
<g id="a_edge8_Node000006_Node000007"><a xlink:title=" ">
<path fill="none" stroke="#63b8ff" d="M429.42,-128.62C437.33,-128.62 445.44,-128.62 453.39,-128.62"/>
<polygon fill="#63b8ff" stroke="#63b8ff" points="453.39,-132.13 463.39,-128.63 453.39,-125.13 453.39,-132.13"/>
</a>
</g>
</g>
<!-- Node6&#45;&gt;Node8 -->
<g id="edge9_Node000006_Node000008" class="edge">
<title>Node6&#45;&gt;Node8</title>
<g id="a_edge9_Node000006_Node000008"><a xlink:title=" ">
<path fill="none" stroke="#63b8ff" d="M421.33,-112.98C440.97,-107.6 462.54,-101.68 480.59,-96.74"/>
<polygon fill="#63b8ff" stroke="#63b8ff" points="481.43,-100.14 490.15,-94.12 479.58,-93.38 481.43,-100.14"/>
</a>
</g>
</g>
</g>
</svg>
