<?xml version="1.0" encoding="UTF-8" standalone="no"?>
<!DOCTYPE svg PUBLIC "-//W3C//DTD SVG 1.1//EN"
 "http://www.w3.org/Graphics/SVG/1.1/DTD/svg11.dtd">
<!-- Generated by graphviz version 14.0.2 (0)
 -->
<!-- Title: juce::ARADocumentControllerSpecialisation::getDocumentController Pages: 1 -->
<svg width="613pt" height="484pt"
 viewBox="0.00 0.00 613.00 484.00" xmlns="http://www.w3.org/2000/svg" xmlns:xlink="http://www.w3.org/1999/xlink">
<g id="graph0" class="graph" transform="scale(1 1) rotate(0) translate(4 480.12)">
<title>juce::ARADocumentControllerSpecialisation::getDocumentController</title>
<!-- Node1 -->
<g id="Node000001" class="node">
<title>Node1</title>
<g id="a_Node000001"><a xlink:title=" ">
<polygon fill="#999999" stroke="#666666" points="604.5,-252.12 424.25,-252.12 424.25,-221.62 604.5,-221.62 604.5,-252.12"/>
<text xml:space="preserve" text-anchor="start" x="432.25" y="-238.62" font-family="Helvetica,sans-Serif" font-size="10.00">juce::ARADocumentController</text>
<text xml:space="preserve" text-anchor="middle" x="514.38" y="-227.38" font-family="Helvetica,sans-Serif" font-size="10.00">Specialisation::getDocumentController</text>
</a>
</g>
</g>
<!-- Node1&#45;&gt;Node1 -->
<g id="edge19_Node000001_Node000001" class="edge">
<title>Node1&#45;&gt;Node1</title>
<g id="a_edge19_Node000001_Node000001"><a xlink:title=" ">
<path fill="none" stroke="#63b8ff" d="M551.65,-263.83C545.55,-267.6 533.13,-270.12 514.38,-270.12 480.08,-270.12 466.95,-261.68 474.99,-252.61"/>
<polygon fill="#63b8ff" stroke="#63b8ff" points="555.07,-264.57 553.48,-254.1 548.19,-263.28 555.07,-264.57"/>
</a>
</g>
</g>
<!-- Node2 -->
<g id="Node000002" class="node">
<title>Node2</title>
<g id="a_Node000002"><a xlink:href="classjuce_1_1ARADocumentControllerSpecialisation.html#a70e5f4886a0507d8401e8de6b56d94f9" target="_top" xlink:title=" ">
<polygon fill="white" stroke="#666666" points="374.38,-458.12 209.88,-458.12 209.88,-427.62 374.38,-427.62 374.38,-458.12"/>
<text xml:space="preserve" text-anchor="start" x="217.88" y="-444.62" font-family="Helvetica,sans-Serif" font-size="10.00">juce::ARADocumentController</text>
<text xml:space="preserve" text-anchor="middle" x="292.12" y="-433.38" font-family="Helvetica,sans-Serif" font-size="10.00">Specialisation::doCreateDocument</text>
</a>
</g>
</g>
<!-- Node1&#45;&gt;Node2 -->
<g id="edge1_Node000001_Node000002" class="edge">
<title>Node1&#45;&gt;Node2</title>
<g id="a_edge1_Node000001_Node000002"><a xlink:title=" ">
<path fill="none" stroke="#63b8ff" d="M502.58,-262.92C484.78,-302.6 445.45,-377.77 388.25,-417.88 383.08,-421.5 377.41,-424.6 371.51,-427.25"/>
<polygon fill="#63b8ff" stroke="#63b8ff" points="505.73,-264.46 506.52,-253.9 499.31,-261.66 505.73,-264.46"/>
</a>
</g>
</g>
<!-- Node4 -->
<g id="Node000004" class="node">
<title>Node4</title>
<g id="a_Node000004"><a xlink:href="classjuce_1_1ARADocumentControllerSpecialisation.html#a01cf2cae7edb90c739631f97c208b501" target="_top" xlink:title=" ">
<polygon fill="white" stroke="#666666" points="384.12,-391.12 200.12,-391.12 200.12,-360.62 384.12,-360.62 384.12,-391.12"/>
<text xml:space="preserve" text-anchor="start" x="208.12" y="-377.62" font-family="Helvetica,sans-Serif" font-size="10.00">juce::ARADocumentController</text>
<text xml:space="preserve" text-anchor="middle" x="292.12" y="-366.38" font-family="Helvetica,sans-Serif" font-size="10.00">Specialisation::doCreateEditorRenderer</text>
</a>
</g>
</g>
<!-- Node1&#45;&gt;Node4 -->
<g id="edge4_Node000001_Node000004" class="edge">
<title>Node1&#45;&gt;Node4</title>
<g id="a_edge4_Node000001_Node000004"><a xlink:title=" ">
<path fill="none" stroke="#63b8ff" d="M493.53,-260.84C470.75,-286.81 430.98,-327.65 388.25,-350.88 381.65,-354.46 374.51,-357.56 367.21,-360.22"/>
<polygon fill="#63b8ff" stroke="#63b8ff" points="496,-263.34 499.87,-253.47 490.7,-258.77 496,-263.34"/>
</a>
</g>
</g>
<!-- Node5 -->
<g id="Node000005" class="node">
<title>Node5</title>
<g id="a_Node000005"><a xlink:href="classjuce_1_1ARADocumentControllerSpecialisation.html#af898baba48b3ab7309881810d9f14f04" target="_top" xlink:title=" ">
<polygon fill="white" stroke="#666666" points="375.5,-324.12 208.75,-324.12 208.75,-293.62 375.5,-293.62 375.5,-324.12"/>
<text xml:space="preserve" text-anchor="start" x="216.75" y="-310.62" font-family="Helvetica,sans-Serif" font-size="10.00">juce::ARADocumentController</text>
<text xml:space="preserve" text-anchor="middle" x="292.12" y="-299.38" font-family="Helvetica,sans-Serif" font-size="10.00">Specialisation::doCreateEditorView</text>
</a>
</g>
</g>
<!-- Node1&#45;&gt;Node5 -->
<g id="edge7_Node000001_Node000005" class="edge">
<title>Node1&#45;&gt;Node5</title>
<g id="a_edge7_Node000001_Node000005"><a xlink:title=" ">
<path fill="none" stroke="#63b8ff" d="M465.45,-256.8C442.35,-266.01 414.1,-276.69 388.25,-284.88 379.08,-287.78 369.32,-290.57 359.68,-293.16"/>
<polygon fill="#63b8ff" stroke="#63b8ff" points="466.63,-260.1 474.6,-253.12 464.02,-253.6 466.63,-260.1"/>
</a>
</g>
</g>
<!-- Node6 -->
<g id="Node000006" class="node">
<title>Node6</title>
<g id="a_Node000006"><a xlink:href="classjuce_1_1ARADocumentControllerSpecialisation.html#ab13ffa7da0de86a8c1c2f62ec890741a" target="_top" xlink:title=" ">
<polygon fill="white" stroke="#666666" points="372.12,-257.75 212.12,-257.75 212.12,-216 372.12,-216 372.12,-257.75"/>
<text xml:space="preserve" text-anchor="start" x="220.12" y="-244.25" font-family="Helvetica,sans-Serif" font-size="10.00">juce::ARADocumentController</text>
<text xml:space="preserve" text-anchor="start" x="220.12" y="-233" font-family="Helvetica,sans-Serif" font-size="10.00">Specialisation::doCreatePlayback</text>
<text xml:space="preserve" text-anchor="middle" x="292.12" y="-221.75" font-family="Helvetica,sans-Serif" font-size="10.00">Renderer</text>
</a>
</g>
</g>
<!-- Node1&#45;&gt;Node6 -->
<g id="edge10_Node000001_Node000006" class="edge">
<title>Node1&#45;&gt;Node6</title>
<g id="a_edge10_Node000001_Node000006"><a xlink:title=" ">
<path fill="none" stroke="#63b8ff" d="M412.53,-236.88C399.06,-236.88 385.4,-236.88 372.37,-236.88"/>
<polygon fill="#63b8ff" stroke="#63b8ff" points="412.28,-240.38 422.28,-236.88 412.28,-233.38 412.28,-240.38"/>
</a>
</g>
</g>
<!-- Node7 -->
<g id="Node000007" class="node">
<title>Node7</title>
<g id="a_Node000007"><a xlink:href="classjuce_1_1ARADocumentControllerSpecialisation.html#ad4c12b77c2048f530787bfefe64a78f0" target="_top" xlink:title=" ">
<polygon fill="white" stroke="#666666" points="370.25,-179.75 214,-179.75 214,-138 370.25,-138 370.25,-179.75"/>
<text xml:space="preserve" text-anchor="start" x="222" y="-166.25" font-family="Helvetica,sans-Serif" font-size="10.00">juce::ARADocumentController</text>
<text xml:space="preserve" text-anchor="start" x="222" y="-155" font-family="Helvetica,sans-Serif" font-size="10.00">Specialisation::doGetProcessing</text>
<text xml:space="preserve" text-anchor="middle" x="292.12" y="-143.75" font-family="Helvetica,sans-Serif" font-size="10.00">AlgorithmForAudioSource</text>
</a>
</g>
</g>
<!-- Node1&#45;&gt;Node7 -->
<g id="edge13_Node000001_Node000007" class="edge">
<title>Node1&#45;&gt;Node7</title>
<g id="a_edge13_Node000001_Node000007"><a xlink:title=" ">
<path fill="none" stroke="#63b8ff" d="M458.56,-217.46C426.54,-206.12 386.1,-191.8 353.22,-180.16"/>
<polygon fill="#63b8ff" stroke="#63b8ff" points="457.05,-220.64 467.64,-220.68 459.38,-214.04 457.05,-220.64"/>
</a>
</g>
</g>
<!-- Node8 -->
<g id="Node000008" class="node">
<title>Node8</title>
<g id="a_Node000008"><a xlink:href="classjuce_1_1ARADocumentControllerSpecialisation.html#aff7ed11b064a1353def7e68b3f3835e9" target="_top" xlink:title=" ">
<polygon fill="white" stroke="#666666" points="380.38,-101.75 203.88,-101.75 203.88,-60 380.38,-60 380.38,-101.75"/>
<text xml:space="preserve" text-anchor="start" x="211.88" y="-88.25" font-family="Helvetica,sans-Serif" font-size="10.00">juce::ARADocumentController</text>
<text xml:space="preserve" text-anchor="start" x="211.88" y="-77" font-family="Helvetica,sans-Serif" font-size="10.00">Specialisation::doRequestProcessing</text>
<text xml:space="preserve" text-anchor="middle" x="292.12" y="-65.75" font-family="Helvetica,sans-Serif" font-size="10.00">AlgorithmForAudioSource</text>
</a>
</g>
</g>
<!-- Node1&#45;&gt;Node8 -->
<g id="edge16_Node000001_Node000008" class="edge">
<title>Node1&#45;&gt;Node8</title>
<g id="a_edge16_Node000001_Node000008"><a xlink:title=" ">
<path fill="none" stroke="#63b8ff" d="M489.62,-213.22C465.46,-189.95 426.27,-154.32 388.25,-128.88 373.49,-119 356.42,-109.78 340.86,-102.11"/>
<polygon fill="#63b8ff" stroke="#63b8ff" points="487.12,-215.67 496.73,-220.14 492,-210.65 487.12,-215.67"/>
</a>
</g>
</g>
<!-- Node9 -->
<g id="Node000009" class="node">
<title>Node9</title>
<g id="a_Node000009"><a xlink:href="classjuce_1_1ARADocumentControllerSpecialisation.html#af8e4d3127daa64b901d6592a23bbd990" target="_top" xlink:title=" ">
<polygon fill="white" stroke="#666666" points="388.25,-41.75 196,-41.75 196,0 388.25,0 388.25,-41.75"/>
<text xml:space="preserve" text-anchor="start" x="204" y="-28.25" font-family="Helvetica,sans-Serif" font-size="10.00">juce::ARADocumentController</text>
<text xml:space="preserve" text-anchor="start" x="204" y="-17" font-family="Helvetica,sans-Serif" font-size="10.00">Specialisation::~ARADocumentController</text>
<text xml:space="preserve" text-anchor="middle" x="292.12" y="-5.75" font-family="Helvetica,sans-Serif" font-size="10.00">Specialisation</text>
</a>
</g>
</g>
<!-- Node1&#45;&gt;Node9 -->
<g id="edge20_Node000001_Node000009" class="edge">
<title>Node1&#45;&gt;Node9</title>
<g id="a_edge20_Node000001_Node000009"><a xlink:title=" ">
<path fill="none" stroke="#63b8ff" d="M502.67,-210.75C484.86,-170.53 445.39,-93.6 388.25,-50.88 383.95,-47.66 379.3,-44.78 374.44,-42.21"/>
<polygon fill="#63b8ff" stroke="#63b8ff" points="499.44,-212.1 506.61,-219.9 505.87,-209.34 499.44,-212.1"/>
</a>
</g>
</g>
<!-- Node2&#45;&gt;Node2 -->
<g id="edge2_Node000002_Node000002" class="edge">
<title>Node2&#45;&gt;Node2</title>
<g id="a_edge2_Node000002_Node000002"><a xlink:title=" ">
<path fill="none" stroke="#63b8ff" d="M327.7,-469.83C321.88,-473.6 310.02,-476.12 292.12,-476.12 259.39,-476.12 246.87,-467.68 254.54,-458.61"/>
<polygon fill="#63b8ff" stroke="#63b8ff" points="331.12,-470.56 329.45,-460.1 324.23,-469.32 331.12,-470.56"/>
</a>
</g>
</g>
<!-- Node3 -->
<g id="Node000003" class="node">
<title>Node3</title>
<g id="a_Node000003"><a xlink:href="classjuce_1_1ARADocumentControllerSpecialisation.html#a12a0dec54c17797b348d57834b767d3a" target="_top" xlink:title=" ">
<polygon fill="white" stroke="#666666" points="160,-293.75 0,-293.75 0,-252 160,-252 160,-293.75"/>
<text xml:space="preserve" text-anchor="start" x="8" y="-280.25" font-family="Helvetica,sans-Serif" font-size="10.00">juce::ARADocumentController</text>
<text xml:space="preserve" text-anchor="start" x="8" y="-269" font-family="Helvetica,sans-Serif" font-size="10.00">Specialisation::doStoreObjectsTo</text>
<text xml:space="preserve" text-anchor="middle" x="80" y="-257.75" font-family="Helvetica,sans-Serif" font-size="10.00">Stream</text>
</a>
</g>
</g>
<!-- Node2&#45;&gt;Node3 -->
<g id="edge3_Node000002_Node000003" class="edge">
<title>Node2&#45;&gt;Node3</title>
<g id="a_edge3_Node000002_Node000003"><a xlink:title=" ">
<path fill="none" stroke="#63b8ff" d="M203.59,-422.36C200.98,-420.96 198.44,-419.47 196,-417.88 147.04,-385.9 109.57,-326.1 92,-294.2"/>
<polygon fill="#63b8ff" stroke="#63b8ff" points="202.07,-425.51 212.6,-426.64 205.07,-419.19 202.07,-425.51"/>
</a>
</g>
</g>
<!-- Node4&#45;&gt;Node3 -->
<g id="edge6_Node000004_Node000003" class="edge">
<title>Node4&#45;&gt;Node3</title>
<g id="a_edge6_Node000004_Node000003"><a xlink:title=" ">
<path fill="none" stroke="#63b8ff" d="M209.45,-356.38C204.84,-354.68 200.33,-352.84 196,-350.88 163.05,-335.91 129.24,-311.7 106.88,-294.22"/>
<polygon fill="#63b8ff" stroke="#63b8ff" points="208.29,-359.69 218.88,-359.65 210.58,-353.07 208.29,-359.69"/>
</a>
</g>
</g>
<!-- Node4&#45;&gt;Node4 -->
<g id="edge5_Node000004_Node000004" class="edge">
<title>Node4&#45;&gt;Node4</title>
<g id="a_edge5_Node000004_Node000004"><a xlink:title=" ">
<path fill="none" stroke="#63b8ff" d="M327.7,-402.83C321.88,-406.6 310.02,-409.12 292.12,-409.12 259.39,-409.12 246.87,-400.68 254.54,-391.61"/>
<polygon fill="#63b8ff" stroke="#63b8ff" points="331.12,-403.56 329.45,-393.1 324.23,-402.32 331.12,-403.56"/>
</a>
</g>
</g>
<!-- Node5&#45;&gt;Node3 -->
<g id="edge9_Node000005_Node000003" class="edge">
<title>Node5&#45;&gt;Node3</title>
<g id="a_edge9_Node000005_Node000003"><a xlink:title=" ">
<path fill="none" stroke="#63b8ff" d="M197.14,-292.77C184.81,-290.66 172.28,-288.51 160.24,-286.45"/>
<polygon fill="#63b8ff" stroke="#63b8ff" points="196.44,-296.2 206.89,-294.44 197.62,-289.3 196.44,-296.2"/>
</a>
</g>
</g>
<!-- Node5&#45;&gt;Node5 -->
<g id="edge8_Node000005_Node000005" class="edge">
<title>Node5&#45;&gt;Node5</title>
<g id="a_edge8_Node000005_Node000005"><a xlink:title=" ">
<path fill="none" stroke="#63b8ff" d="M327.7,-335.83C321.88,-339.6 310.02,-342.12 292.12,-342.12 259.39,-342.12 246.87,-333.68 254.54,-324.61"/>
<polygon fill="#63b8ff" stroke="#63b8ff" points="331.12,-336.56 329.45,-326.1 324.23,-335.32 331.12,-336.56"/>
</a>
</g>
</g>
<!-- Node6&#45;&gt;Node3 -->
<g id="edge12_Node000006_Node000003" class="edge">
<title>Node6&#45;&gt;Node3</title>
<g id="a_edge12_Node000006_Node000003"><a xlink:title=" ">
<path fill="none" stroke="#63b8ff" d="M200.51,-252.4C187.1,-254.7 173.36,-257.05 160.2,-259.31"/>
<polygon fill="#63b8ff" stroke="#63b8ff" points="200.93,-255.88 210.19,-250.74 199.75,-248.98 200.93,-255.88"/>
</a>
</g>
</g>
<!-- Node6&#45;&gt;Node6 -->
<g id="edge11_Node000006_Node000006" class="edge">
<title>Node6&#45;&gt;Node6</title>
<g id="a_edge11_Node000006_Node000006"><a xlink:title=" ">
<path fill="none" stroke="#63b8ff" d="M327.51,-268.53C321.63,-272.86 309.84,-275.75 292.12,-275.75 262.29,-275.75 249.24,-267.55 252.97,-258.07"/>
<polygon fill="#63b8ff" stroke="#63b8ff" points="330.67,-270.09 330.76,-259.49 324.08,-267.72 330.67,-270.09"/>
</a>
</g>
</g>
<!-- Node7&#45;&gt;Node3 -->
<g id="edge15_Node000007_Node000003" class="edge">
<title>Node7&#45;&gt;Node3</title>
<g id="a_edge15_Node000007_Node000003"><a xlink:title=" ">
<path fill="none" stroke="#63b8ff" d="M237.57,-185.26C223.94,-192.16 209.37,-199.67 196,-206.88 169.25,-221.29 139.51,-238.38 116.98,-251.57"/>
<polygon fill="#63b8ff" stroke="#63b8ff" points="239.07,-188.43 246.43,-180.81 235.92,-182.18 239.07,-188.43"/>
</a>
</g>
</g>
<!-- Node7&#45;&gt;Node7 -->
<g id="edge14_Node000007_Node000007" class="edge">
<title>Node7&#45;&gt;Node7</title>
<g id="a_edge14_Node000007_Node000007"><a xlink:title=" ">
<path fill="none" stroke="#63b8ff" d="M327.51,-190.53C321.63,-194.86 309.84,-197.75 292.12,-197.75 262.29,-197.75 249.24,-189.55 252.97,-180.07"/>
<polygon fill="#63b8ff" stroke="#63b8ff" points="330.67,-192.09 330.76,-181.49 324.08,-189.72 330.67,-192.09"/>
</a>
</g>
</g>
<!-- Node8&#45;&gt;Node3 -->
<g id="edge18_Node000008_Node000003" class="edge">
<title>Node8&#45;&gt;Node3</title>
<g id="a_edge18_Node000008_Node000003"><a xlink:title=" ">
<path fill="none" stroke="#63b8ff" d="M229.17,-107.25C217.59,-113.51 206,-120.76 196,-128.88 151.42,-165.08 112.82,-221.31 93.73,-251.68"/>
<polygon fill="#63b8ff" stroke="#63b8ff" points="230.69,-110.41 237.96,-102.7 227.47,-104.19 230.69,-110.41"/>
</a>
</g>
</g>
<!-- Node8&#45;&gt;Node8 -->
<g id="edge17_Node000008_Node000008" class="edge">
<title>Node8&#45;&gt;Node8</title>
<g id="a_edge17_Node000008_Node000008"><a xlink:title=" ">
<path fill="none" stroke="#63b8ff" d="M327.51,-112.53C321.63,-116.86 309.84,-119.75 292.12,-119.75 262.29,-119.75 249.24,-111.55 252.97,-102.07"/>
<polygon fill="#63b8ff" stroke="#63b8ff" points="330.67,-114.09 330.76,-103.49 324.08,-111.72 330.67,-114.09"/>
</a>
</g>
</g>
</g>
</svg>
