<?xml version="1.0" encoding="UTF-8" standalone="no"?>
<!DOCTYPE svg PUBLIC "-//W3C//DTD SVG 1.1//EN"
 "http://www.w3.org/Graphics/SVG/1.1/DTD/svg11.dtd">
<!-- Generated by graphviz version 14.0.2 (0)
 -->
<!-- Title: juce::ProgressBar::visibilityChanged Pages: 1 -->
<svg width="608pt" height="170pt"
 viewBox="0.00 0.00 608.00 170.00" xmlns="http://www.w3.org/2000/svg" xmlns:xlink="http://www.w3.org/1999/xlink">
<g id="graph0" class="graph" transform="scale(1 1) rotate(0) translate(4 165.88)">
<title>juce::ProgressBar::visibilityChanged</title>
<!-- Node1 -->
<g id="Node000001" class="node">
<title>Node1</title>
<g id="a_Node000001"><a xlink:title=" ">
<polygon fill="#999999" stroke="#666666" points="97,-112.5 0,-112.5 0,-82 97,-82 97,-112.5"/>
<text xml:space="preserve" text-anchor="start" x="8" y="-99" font-family="Helvetica,sans-Serif" font-size="10.00">juce::ProgressBar::</text>
<text xml:space="preserve" text-anchor="middle" x="48.5" y="-87.75" font-family="Helvetica,sans-Serif" font-size="10.00">visibilityChanged</text>
</a>
</g>
</g>
<!-- Node1&#45;&gt;Node1 -->
<g id="edge15_Node000001_Node000001" class="edge">
<title>Node1&#45;&gt;Node1</title>
<g id="a_edge15_Node000001_Node000001"><a xlink:title=" ">
<path fill="none" stroke="#63b8ff" d="M22.08,-112.99C16.68,-122.06 25.49,-130.5 48.5,-130.5 61.08,-130.5 69.42,-127.97 73.51,-124.2"/>
<polygon fill="#63b8ff" stroke="#63b8ff" points="76.95,-124.85 74.74,-114.49 70.01,-123.97 76.95,-124.85"/>
</a>
</g>
</g>
<!-- Node2 -->
<g id="Node000002" class="node">
<title>Node2</title>
<g id="a_Node000002"><a xlink:href="classjuce_1_1Component.html#a38e3667e21d7f9ac222699597e8930e7" target="_top" xlink:title=" ">
<polygon fill="white" stroke="#666666" points="262.25,-161.88 133,-161.88 133,-142.62 262.25,-142.62 262.25,-161.88"/>
<text xml:space="preserve" text-anchor="middle" x="197.62" y="-148.38" font-family="Helvetica,sans-Serif" font-size="10.00">juce::Component::isVisible</text>
</a>
</g>
</g>
<!-- Node1&#45;&gt;Node2 -->
<g id="edge1_Node000001_Node000002" class="edge">
<title>Node1&#45;&gt;Node2</title>
<g id="a_edge1_Node000001_Node000002"><a xlink:title=" ">
<path fill="none" stroke="#63b8ff" d="M81.98,-112.92C97.26,-119.96 115.85,-128.06 133,-134.25 137.43,-135.85 142.08,-137.4 146.76,-138.88"/>
<polygon fill="#63b8ff" stroke="#63b8ff" points="145.62,-142.19 156.21,-141.73 147.65,-135.49 145.62,-142.19"/>
</a>
</g>
</g>
<!-- Node3 -->
<g id="Node000003" class="node">
<title>Node3</title>
<g id="a_Node000003"><a xlink:href="classjuce_1_1Timer.html#acb43e06d5742106830080af3d50b422d" target="_top" xlink:title=" ">
<polygon fill="white" stroke="#666666" points="253.62,-106.88 141.62,-106.88 141.62,-87.62 253.62,-87.62 253.62,-106.88"/>
<text xml:space="preserve" text-anchor="middle" x="197.62" y="-93.38" font-family="Helvetica,sans-Serif" font-size="10.00">juce::Timer::startTimer</text>
</a>
</g>
</g>
<!-- Node1&#45;&gt;Node3 -->
<g id="edge2_Node000001_Node000003" class="edge">
<title>Node1&#45;&gt;Node3</title>
<g id="a_edge2_Node000001_Node000003"><a xlink:title=" ">
<path fill="none" stroke="#63b8ff" d="M97.27,-97.25C107.67,-97.25 118.85,-97.25 129.84,-97.25"/>
<polygon fill="#63b8ff" stroke="#63b8ff" points="129.66,-100.75 139.66,-97.25 129.66,-93.75 129.66,-100.75"/>
</a>
</g>
</g>
<!-- Node11 -->
<g id="Node000011" class="node">
<title>Node11</title>
<g id="a_Node000011"><a xlink:href="classjuce_1_1Timer.html#a2ff70b860a8c875658b4baa91c8bcef0" target="_top" xlink:title=" ">
<polygon fill="white" stroke="#666666" points="253.25,-42.88 142,-42.88 142,-23.62 253.25,-23.62 253.25,-42.88"/>
<text xml:space="preserve" text-anchor="middle" x="197.62" y="-29.38" font-family="Helvetica,sans-Serif" font-size="10.00">juce::Timer::stopTimer</text>
</a>
</g>
</g>
<!-- Node1&#45;&gt;Node11 -->
<g id="edge11_Node000001_Node000011" class="edge">
<title>Node1&#45;&gt;Node11</title>
<g id="a_edge11_Node000001_Node000011"><a xlink:title=" ">
<path fill="none" stroke="#63b8ff" d="M85.49,-81.59C109.14,-71.31 139.87,-57.94 163.02,-47.87"/>
<polygon fill="#63b8ff" stroke="#63b8ff" points="164.23,-51.16 172,-43.96 161.43,-44.74 164.23,-51.16"/>
</a>
</g>
</g>
<!-- Node3&#45;&gt;Node3 -->
<g id="edge10_Node000003_Node000003" class="edge">
<title>Node3&#45;&gt;Node3</title>
<g id="a_edge10_Node000003_Node000003"><a xlink:title=" ">
<path fill="none" stroke="#63b8ff" d="M174.28,-107.16C163.63,-115.77 171.41,-124.88 197.62,-124.88 212.37,-124.88 221.28,-121.99 224.36,-117.94"/>
<polygon fill="#63b8ff" stroke="#63b8ff" points="227.77,-117.09 221.43,-108.61 221.09,-119.2 227.77,-117.09"/>
</a>
</g>
</g>
<!-- Node4 -->
<g id="Node000004" class="node">
<title>Node4</title>
<g id="a_Node000004"><a xlink:href="classjuce_1_1Timer_1_1TimerThread.html#a8ce6a6b87440d489d122d2b55bc74a85" target="_top" xlink:title=" ">
<polygon fill="white" stroke="#666666" points="441,-153.88 298.25,-153.88 298.25,-134.62 441,-134.62 441,-153.88"/>
<text xml:space="preserve" text-anchor="middle" x="369.62" y="-140.38" font-family="Helvetica,sans-Serif" font-size="10.00">juce::Timer::TimerThread::add</text>
</a>
</g>
</g>
<!-- Node3&#45;&gt;Node4 -->
<g id="edge3_Node000003_Node000004" class="edge">
<title>Node3&#45;&gt;Node4</title>
<g id="a_edge3_Node000003_Node000004"><a xlink:title=" ">
<path fill="none" stroke="#63b8ff" d="M232.21,-107.32C251.49,-113.03 276.18,-120.22 298.25,-126.25 304.48,-127.95 311.04,-129.7 317.55,-131.4"/>
<polygon fill="#63b8ff" stroke="#63b8ff" points="316.35,-134.7 326.91,-133.82 318.1,-127.92 316.35,-134.7"/>
</a>
</g>
</g>
<!-- Node9 -->
<g id="Node000009" class="node">
<title>Node9</title>
<g id="a_Node000009"><a xlink:href="CarlaEngineGraph_8cpp.html#ad294b8477886cae80a4cbfaffbdf3772" target="_top" xlink:title=" ">
<polygon fill="white" stroke="#666666" points="387.75,-116.88 351.5,-116.88 351.5,-97.62 387.75,-97.62 387.75,-116.88"/>
<text xml:space="preserve" text-anchor="middle" x="369.62" y="-103.38" font-family="Helvetica,sans-Serif" font-size="10.00">jmax</text>
</a>
</g>
</g>
<!-- Node3&#45;&gt;Node9 -->
<g id="edge7_Node000003_Node000009" class="edge">
<title>Node3&#45;&gt;Node9</title>
<g id="a_edge7_Node000003_Node000009"><a xlink:title=" ">
<path fill="none" stroke="#63b8ff" d="M253.82,-100.5C282.55,-102.19 316.48,-104.18 339.97,-105.56"/>
<polygon fill="#63b8ff" stroke="#63b8ff" points="339.52,-109.04 349.71,-106.14 339.93,-102.06 339.52,-109.04"/>
</a>
</g>
</g>
<!-- Node10 -->
<g id="Node000010" class="node">
<title>Node10</title>
<g id="a_Node000010"><a xlink:href="classjuce_1_1Timer_1_1TimerThread.html#a576eec1fcba40894c4ee2fe0d61519b9" target="_top" xlink:title=" ">
<polygon fill="white" stroke="#666666" points="430.88,-79.5 308.38,-79.5 308.38,-49 430.88,-49 430.88,-79.5"/>
<text xml:space="preserve" text-anchor="start" x="316.38" y="-66" font-family="Helvetica,sans-Serif" font-size="10.00">juce::Timer::TimerThread</text>
<text xml:space="preserve" text-anchor="middle" x="369.62" y="-54.75" font-family="Helvetica,sans-Serif" font-size="10.00">::resetCounter</text>
</a>
</g>
</g>
<!-- Node3&#45;&gt;Node10 -->
<g id="edge8_Node000003_Node000010" class="edge">
<title>Node3&#45;&gt;Node10</title>
<g id="a_edge8_Node000003_Node000010"><a xlink:title=" ">
<path fill="none" stroke="#63b8ff" d="M250.55,-87.17C265.17,-84.33 281.33,-81.2 296.88,-78.18"/>
<polygon fill="#63b8ff" stroke="#63b8ff" points="297.43,-81.64 306.58,-76.29 296.1,-74.76 297.43,-81.64"/>
</a>
</g>
</g>
<!-- Node5 -->
<g id="Node000005" class="node">
<title>Node5</title>
<g id="a_Node000005"><a xlink:href="classjuce_1_1Timer.html#a4517f6b34af45ee3edc05c468959146e" target="_top" xlink:title=" ">
<polygon fill="white" stroke="#666666" points="584.5,-73.88 492,-73.88 492,-54.62 584.5,-54.62 584.5,-73.88"/>
<text xml:space="preserve" text-anchor="middle" x="538.25" y="-60.38" font-family="Helvetica,sans-Serif" font-size="10.00">juce::Timer::Timer</text>
</a>
</g>
</g>
<!-- Node4&#45;&gt;Node5 -->
<g id="edge4_Node000004_Node000005" class="edge">
<title>Node4&#45;&gt;Node5</title>
<g id="a_edge4_Node000004_Node000005"><a xlink:title=" ">
<path fill="none" stroke="#63b8ff" d="M418.64,-134.18C426.26,-131.96 433.95,-129.33 441,-126.25 468.33,-114.33 496.69,-95.08 515.48,-81.2"/>
<polygon fill="#63b8ff" stroke="#63b8ff" points="517.54,-84.03 523.41,-75.21 513.32,-78.44 517.54,-84.03"/>
</a>
</g>
</g>
<!-- Node6 -->
<g id="Node000006" class="node">
<title>Node6</title>
<g id="a_Node000006"><a xlink:href="classjuce_1_1Timer_1_1TimerThread.html#a8d18fc470fc7b0c11d3cbdbaf0f5c451" target="_top" xlink:title=" ">
<polygon fill="#fff0f0" stroke="red" points="599.5,-159.5 477,-159.5 477,-129 599.5,-129 599.5,-159.5"/>
<text xml:space="preserve" text-anchor="start" x="485" y="-146" font-family="Helvetica,sans-Serif" font-size="10.00">juce::Timer::TimerThread</text>
<text xml:space="preserve" text-anchor="middle" x="538.25" y="-134.75" font-family="Helvetica,sans-Serif" font-size="10.00">::TimerThread</text>
</a>
</g>
</g>
<!-- Node4&#45;&gt;Node6 -->
<g id="edge6_Node000004_Node000006" class="edge">
<title>Node4&#45;&gt;Node6</title>
<g id="a_edge6_Node000004_Node000006"><a xlink:title=" ">
<path fill="none" stroke="#63b8ff" d="M441.29,-144.25C449.22,-144.25 457.3,-144.25 465.24,-144.25"/>
<polygon fill="#63b8ff" stroke="#63b8ff" points="465.23,-147.75 475.23,-144.25 465.23,-140.75 465.23,-147.75"/>
</a>
</g>
</g>
<!-- Node5&#45;&gt;Node5 -->
<g id="edge5_Node000005_Node000005" class="edge">
<title>Node5&#45;&gt;Node5</title>
<g id="a_edge5_Node000005_Node000005"><a xlink:title=" ">
<path fill="none" stroke="#63b8ff" d="M511.85,-74.16C499.81,-82.77 508.61,-91.88 538.25,-91.88 554.92,-91.88 565,-88.99 568.49,-84.94"/>
<polygon fill="#63b8ff" stroke="#63b8ff" points="571.81,-83.84 565.16,-75.59 565.21,-86.18 571.81,-83.84"/>
</a>
</g>
</g>
<!-- Node10&#45;&gt;Node5 -->
<g id="edge9_Node000010_Node000005" class="edge">
<title>Node10&#45;&gt;Node5</title>
<g id="a_edge9_Node000010_Node000005"><a xlink:title=" ">
<path fill="none" stroke="#63b8ff" d="M431.25,-64.25C447.28,-64.25 464.51,-64.25 480.33,-64.25"/>
<polygon fill="#63b8ff" stroke="#63b8ff" points="480.05,-67.75 490.05,-64.25 480.05,-60.75 480.05,-67.75"/>
</a>
</g>
</g>
<!-- Node11&#45;&gt;Node11 -->
<g id="edge14_Node000011_Node000011" class="edge">
<title>Node11&#45;&gt;Node11</title>
<g id="a_edge14_Node000011_Node000011"><a xlink:title=" ">
<path fill="none" stroke="#63b8ff" d="M174.28,-43.16C163.63,-51.77 171.41,-60.88 197.62,-60.88 212.37,-60.88 221.28,-57.99 224.36,-53.94"/>
<polygon fill="#63b8ff" stroke="#63b8ff" points="227.77,-53.09 221.43,-44.61 221.09,-55.2 227.77,-53.09"/>
</a>
</g>
</g>
<!-- Node12 -->
<g id="Node000012" class="node">
<title>Node12</title>
<g id="a_Node000012"><a xlink:href="classjuce_1_1Timer_1_1TimerThread.html#a9f2dfcf96fd77637a1afd6beadf0f3c4" target="_top" xlink:title=" ">
<polygon fill="white" stroke="#666666" points="430.88,-30.5 308.38,-30.5 308.38,0 430.88,0 430.88,-30.5"/>
<text xml:space="preserve" text-anchor="start" x="316.38" y="-17" font-family="Helvetica,sans-Serif" font-size="10.00">juce::Timer::TimerThread</text>
<text xml:space="preserve" text-anchor="middle" x="369.62" y="-5.75" font-family="Helvetica,sans-Serif" font-size="10.00">::remove</text>
</a>
</g>
</g>
<!-- Node11&#45;&gt;Node12 -->
<g id="edge12_Node000011_Node000012" class="edge">
<title>Node11&#45;&gt;Node12</title>
<g id="a_edge12_Node000011_Node000012"><a xlink:title=" ">
<path fill="none" stroke="#63b8ff" d="M253.35,-27.46C267.27,-25.98 282.44,-24.38 297.07,-22.83"/>
<polygon fill="#63b8ff" stroke="#63b8ff" points="297.03,-26.35 306.61,-21.82 296.3,-19.39 297.03,-26.35"/>
</a>
</g>
</g>
<!-- Node12&#45;&gt;Node5 -->
<g id="edge13_Node000012_Node000005" class="edge">
<title>Node12&#45;&gt;Node5</title>
<g id="a_edge13_Node000012_Node000005"><a xlink:title=" ">
<path fill="none" stroke="#63b8ff" d="M423.8,-30.89C445.76,-37.35 470.95,-44.75 492.01,-50.94"/>
<polygon fill="#63b8ff" stroke="#63b8ff" points="490.88,-54.26 501.46,-53.73 492.86,-47.55 490.88,-54.26"/>
</a>
</g>
</g>
</g>
</svg>
