<?xml version="1.0" encoding="UTF-8" standalone="no"?>
<!DOCTYPE svg PUBLIC "-//W3C//DTD SVG 1.1//EN"
 "http://www.w3.org/Graphics/SVG/1.1/DTD/svg11.dtd">
<!-- Generated by graphviz version 14.0.2 (0)
 -->
<!-- Title: juce::MenuBarComponent::menuDismissed Pages: 1 -->
<svg width="478pt" height="57pt"
 viewBox="0.00 0.00 478.00 57.00" xmlns="http://www.w3.org/2000/svg" xmlns:xlink="http://www.w3.org/1999/xlink">

<svg id="main" version="1.1" xmlns="http://www.w3.org/2000/svg" xmlns:xlink="http://www.w3.org/1999/xlink" xml:space="preserve">

<style type="text/css"><![CDATA[
.node, .edge {opacity: 0.7;}
.node.selected, .edge.selected {opacity: 1;}
.edge:hover path { stroke: red; }
.edge:hover polygon { stroke: red; fill: red; }
]]></style>
<script type="application/ecmascript" xlink:href="svg.min.js"/>
<svg id="graph" class="graph">
<g id="graph0" class="graph" transform="scale(1 1) rotate(0) translate(4 52.5)">
<title>juce::MenuBarComponent::menuDismissed</title>
<!-- Node1 -->
<g id="Node000001" class="node">
<title>Node1</title>
<g id="a_Node000001"><a xlink:title=" ">
<polygon fill="#999999" stroke="#666666" points="127,-30.5 0,-30.5 0,0 127,0 127,-30.5"/>
<text xml:space="preserve" text-anchor="start" x="8" y="-17" font-family="Helvetica,sans-Serif" font-size="10.00">juce::MenuBarComponent</text>
<text xml:space="preserve" text-anchor="middle" x="63.5" y="-5.75" font-family="Helvetica,sans-Serif" font-size="10.00">::menuDismissed</text>
</a>
</g>
</g>
<!-- Node1&#45;&gt;Node1 -->
<g id="edge1_Node000001_Node000001" class="edge">
<title>Node1&#45;&gt;Node1</title>
<g id="a_edge1_Node000001_Node000001"><a xlink:title=" ">
<path fill="none" stroke="#63b8ff" d="M32.09,-30.99C25.68,-40.06 36.15,-48.5 63.5,-48.5 78.46,-48.5 88.36,-45.97 93.23,-42.2"/>
<polygon fill="#63b8ff" stroke="#63b8ff" points="96.66,-42.89 94.68,-32.48 89.74,-41.85 96.66,-42.89"/>
</a>
</g>
</g>
<!-- Node2 -->
<g id="Node000002" class="node">
<title>Node2</title>
<g id="a_Node000002"><a xlink:href="classjuce_1_1Component.html#a875c0680228d0b246f87f8a038ff6b4b" target="_top" xlink:title=" ">
<polygon fill="white" stroke="#666666" points="318.5,-30.5 163,-30.5 163,0 318.5,0 318.5,-30.5"/>
<text xml:space="preserve" text-anchor="start" x="171" y="-17" font-family="Helvetica,sans-Serif" font-size="10.00">juce::Component::postCommand</text>
<text xml:space="preserve" text-anchor="middle" x="240.75" y="-5.75" font-family="Helvetica,sans-Serif" font-size="10.00">Message</text>
</a>
</g>
</g>
<!-- Node1&#45;&gt;Node2 -->
<g id="edge2_Node000001_Node000002" class="edge">
<title>Node1&#45;&gt;Node2</title>
<g id="a_edge2_Node000001_Node000002"><a xlink:title=" ">
<path fill="none" stroke="#63b8ff" d="M127.27,-15.25C135.08,-15.25 143.18,-15.25 151.29,-15.25"/>
<polygon fill="#63b8ff" stroke="#63b8ff" points="151.21,-18.75 161.21,-15.25 151.21,-11.75 151.21,-18.75"/>
</a>
</g>
</g>
<!-- Node2&#45;&gt;Node2 -->
<g id="edge5_Node000002_Node000002" class="edge">
<title>Node2&#45;&gt;Node2</title>
<g id="a_edge5_Node000002_Node000002"><a xlink:title=" ">
<path fill="none" stroke="#63b8ff" d="M210.34,-30.99C204.13,-40.06 214.27,-48.5 240.75,-48.5 255.23,-48.5 264.83,-45.97 269.53,-42.2"/>
<polygon fill="#63b8ff" stroke="#63b8ff" points="272.97,-42.88 270.94,-32.48 266.04,-41.88 272.97,-42.88"/>
</a>
</g>
</g>
<!-- Node3 -->
<g id="Node000003" class="node">
<title>Node3</title>
<g id="a_Node000003"><a xlink:href="classjuce_1_1MessageManager.html#a0a24b21503a5744700d17a10233da46b" target="_top" xlink:title=" ">
<polygon fill="white" stroke="#666666" points="470.25,-30.5 354.5,-30.5 354.5,0 470.25,0 470.25,-30.5"/>
<text xml:space="preserve" text-anchor="start" x="362.5" y="-17" font-family="Helvetica,sans-Serif" font-size="10.00">juce::MessageManager</text>
<text xml:space="preserve" text-anchor="middle" x="412.38" y="-5.75" font-family="Helvetica,sans-Serif" font-size="10.00">::callAsync</text>
</a>
</g>
</g>
<!-- Node2&#45;&gt;Node3 -->
<g id="edge3_Node000002_Node000003" class="edge">
<title>Node2&#45;&gt;Node3</title>
<g id="a_edge3_Node000002_Node000003"><a xlink:title=" ">
<path fill="none" stroke="#63b8ff" d="M318.62,-15.25C326.63,-15.25 334.74,-15.25 342.65,-15.25"/>
<polygon fill="#63b8ff" stroke="#63b8ff" points="342.55,-18.75 352.55,-15.25 342.55,-11.75 342.55,-18.75"/>
</a>
</g>
</g>
<!-- Node3&#45;&gt;Node3 -->
<g id="edge4_Node000003_Node000003" class="edge">
<title>Node3&#45;&gt;Node3</title>
<g id="a_edge4_Node000003_Node000003"><a xlink:title=" ">
<path fill="none" stroke="#63b8ff" d="M381.96,-30.99C375.76,-40.06 385.89,-48.5 412.38,-48.5 426.86,-48.5 436.45,-45.97 441.16,-42.2"/>
<polygon fill="#63b8ff" stroke="#63b8ff" points="444.59,-42.88 442.57,-32.48 437.67,-41.88 444.59,-42.88"/>
</a>
</g>
</g>
</g>
</svg>
</svg>

<style type='text/css'>
<![CDATA[
[data-mouse-over-selected='false'] { opacity: 0.7; }
[data-mouse-over-selected='true']  { opacity: 1.0; }
]]>
</style>
<script type="application/ecmascript"><![CDATA[
document.addEventListener('DOMContentLoaded', (event) => {
  highlightEdges();
  highlightAdjacentNodes();
});
]]></script>
</svg>
