<?xml version="1.0" encoding="UTF-8" standalone="no"?>
<!DOCTYPE svg PUBLIC "-//W3C//DTD SVG 1.1//EN"
 "http://www.w3.org/Graphics/SVG/1.1/DTD/svg11.dtd">
<!-- Generated by graphviz version 14.0.2 (0)
 -->
<!-- Title: juce::Typeface::getOutlineForGlyph Pages: 1 -->
<svg width="832pt" height="402pt"
 viewBox="0.00 0.00 832.00 402.00" xmlns="http://www.w3.org/2000/svg" xmlns:xlink="http://www.w3.org/1999/xlink">
<g id="graph0" class="graph" transform="scale(1 1) rotate(0) translate(4 397.88)">
<title>juce::Typeface::getOutlineForGlyph</title>
<!-- Node1 -->
<g id="Node000001" class="node">
<title>Node1</title>
<g id="a_Node000001"><a xlink:title=" ">
<polygon fill="#999999" stroke="#666666" points="127,-277.88 0,-277.88 0,-247.38 127,-247.38 127,-277.88"/>
<text xml:space="preserve" text-anchor="start" x="8" y="-264.38" font-family="Helvetica,sans-Serif" font-size="10.00">juce::Typeface::getOutline</text>
<text xml:space="preserve" text-anchor="middle" x="63.5" y="-253.12" font-family="Helvetica,sans-Serif" font-size="10.00">ForGlyph</text>
</a>
</g>
</g>
<!-- Node2 -->
<g id="Node000002" class="node">
<title>Node2</title>
<g id="a_Node000002"><a xlink:href="classjuce_1_1Typeface.html#a87627fa4c974699cfbffaee908835070" target="_top" xlink:title=" ">
<polygon fill="white" stroke="#666666" points="305,-277.88 163,-277.88 163,-247.38 305,-247.38 305,-277.88"/>
<text xml:space="preserve" text-anchor="start" x="171" y="-264.38" font-family="Helvetica,sans-Serif" font-size="10.00">juce::Typeface::getEdgeTable</text>
<text xml:space="preserve" text-anchor="middle" x="234" y="-253.12" font-family="Helvetica,sans-Serif" font-size="10.00">ForGlyph</text>
</a>
</g>
</g>
<!-- Node1&#45;&gt;Node2 -->
<g id="edge1_Node000001_Node000002" class="edge">
<title>Node1&#45;&gt;Node2</title>
<g id="a_edge1_Node000001_Node000002"><a xlink:title=" ">
<path fill="none" stroke="#63b8ff" d="M127.24,-256.07C135.07,-255.93 143.15,-255.86 151.21,-255.88"/>
<polygon fill="#63b8ff" stroke="#63b8ff" points="151.01,-259.38 161.04,-255.95 151.06,-252.38 151.01,-259.38"/>
</a>
</g>
</g>
<!-- Node2&#45;&gt;Node1 -->
<g id="edge13_Node000002_Node000001" class="edge">
<title>Node2&#45;&gt;Node1</title>
<g id="a_edge13_Node000002_Node000001"><a xlink:title=" ">
<path fill="none" stroke="#63b8ff" d="M162.55,-269.29C154.68,-269.39 146.64,-269.4 138.72,-269.33"/>
<polygon fill="#63b8ff" stroke="#63b8ff" points="138.8,-265.83 128.76,-269.2 138.71,-272.83 138.8,-265.83"/>
</a>
</g>
</g>
<!-- Node2&#45;&gt;Node2 -->
<g id="edge12_Node000002_Node000002" class="edge">
<title>Node2&#45;&gt;Node2</title>
<g id="a_edge12_Node000002_Node000002"><a xlink:title=" ">
<path fill="none" stroke="#63b8ff" d="M203.79,-278.36C197.62,-287.43 207.69,-295.88 234,-295.88 248.39,-295.88 257.92,-293.35 262.59,-289.58"/>
<polygon fill="#63b8ff" stroke="#63b8ff" points="266.03,-290.26 264,-279.86 259.1,-289.26 266.03,-290.26"/>
</a>
</g>
</g>
<!-- Node3 -->
<g id="Node000003" class="node">
<title>Node3</title>
<g id="a_Node000003"><a xlink:href="classjuce_1_1Typeface.html#a483158ffe38af365ce2e6358fe8ddd54" target="_top" xlink:title=" ">
<polygon fill="white" stroke="#666666" points="492.38,-375.88 354.12,-375.88 354.12,-345.38 492.38,-345.38 492.38,-375.88"/>
<text xml:space="preserve" text-anchor="start" x="362.12" y="-362.38" font-family="Helvetica,sans-Serif" font-size="10.00">juce::Typeface::applyVertical</text>
<text xml:space="preserve" text-anchor="middle" x="423.25" y="-351.12" font-family="Helvetica,sans-Serif" font-size="10.00">HintingTransform</text>
</a>
</g>
</g>
<!-- Node2&#45;&gt;Node3 -->
<g id="edge2_Node000002_Node000003" class="edge">
<title>Node2&#45;&gt;Node3</title>
<g id="a_edge2_Node000002_Node000003"><a xlink:title=" ">
<path fill="none" stroke="#63b8ff" d="M253.38,-278.25C273.66,-294.79 307.83,-320.67 341,-336.62 344.08,-338.11 347.27,-339.52 350.53,-340.86"/>
<polygon fill="#63b8ff" stroke="#63b8ff" points="349.09,-344.06 359.68,-344.36 351.6,-337.52 349.09,-344.06"/>
</a>
</g>
</g>
<!-- Node4 -->
<g id="Node000004" class="node">
<title>Node4</title>
<g id="a_Node000004"><a xlink:href="classjuce_1_1Rectangle.html#afbbc509044e4de192a6cd1a9bf92f61a" target="_top" xlink:title=" ">
<polygon fill="white" stroke="#666666" points="487.12,-327.25 359.38,-327.25 359.38,-308 487.12,-308 487.12,-327.25"/>
<text xml:space="preserve" text-anchor="middle" x="423.25" y="-313.75" font-family="Helvetica,sans-Serif" font-size="10.00">juce::Rectangle::expanded</text>
</a>
</g>
</g>
<!-- Node2&#45;&gt;Node4 -->
<g id="edge4_Node000002_Node000004" class="edge">
<title>Node2&#45;&gt;Node4</title>
<g id="a_edge4_Node000002_Node000004"><a xlink:title=" ">
<path fill="none" stroke="#63b8ff" d="M276.42,-278.36C295.86,-285.41 319.44,-293.5 341,-299.62 347.57,-301.49 354.48,-303.28 361.38,-304.96"/>
<polygon fill="#63b8ff" stroke="#63b8ff" points="360.16,-308.27 370.7,-307.16 361.77,-301.46 360.16,-308.27"/>
</a>
</g>
</g>
<!-- Node7 -->
<g id="Node000007" class="node">
<title>Node7</title>
<g id="a_Node000007"><a xlink:href="classjuce_1_1Path.html#a84656fe3a2ebf1328df3699ce815f5dc" target="_top" xlink:title=" ">
<polygon fill="white" stroke="#666666" points="505.5,-272.25 341,-272.25 341,-253 505.5,-253 505.5,-272.25"/>
<text xml:space="preserve" text-anchor="middle" x="423.25" y="-258.75" font-family="Helvetica,sans-Serif" font-size="10.00">juce::Path::getBoundsTransformed</text>
</a>
</g>
</g>
<!-- Node2&#45;&gt;Node7 -->
<g id="edge8_Node000002_Node000007" class="edge">
<title>Node2&#45;&gt;Node7</title>
<g id="a_edge8_Node000002_Node000007"><a xlink:title=" ">
<path fill="none" stroke="#63b8ff" d="M305.26,-262.62C313.09,-262.62 321.15,-262.62 329.21,-262.62"/>
<polygon fill="#63b8ff" stroke="#63b8ff" points="329.05,-266.13 339.05,-262.63 329.05,-259.13 329.05,-266.13"/>
</a>
</g>
</g>
<!-- Node9 -->
<g id="Node000009" class="node">
<title>Node9</title>
<g id="a_Node000009"><a xlink:href="classjuce_1_1Rectangle.html#a3812aee87fcd016b84ed8e939c39e636" target="_top" xlink:title=" ">
<polygon fill="white" stroke="#666666" points="492.38,-183.88 354.12,-183.88 354.12,-153.38 492.38,-153.38 492.38,-183.88"/>
<text xml:space="preserve" text-anchor="start" x="362.12" y="-170.38" font-family="Helvetica,sans-Serif" font-size="10.00">juce::Rectangle::getSmallest</text>
<text xml:space="preserve" text-anchor="middle" x="423.25" y="-159.12" font-family="Helvetica,sans-Serif" font-size="10.00">IntegerContainer</text>
</a>
</g>
</g>
<!-- Node2&#45;&gt;Node9 -->
<g id="edge14_Node000002_Node000009" class="edge">
<title>Node2&#45;&gt;Node9</title>
<g id="a_edge14_Node000002_Node000009"><a xlink:title=" ">
<path fill="none" stroke="#63b8ff" d="M266.34,-246.89C297.76,-231.12 346.31,-206.75 380.87,-189.4"/>
<polygon fill="#63b8ff" stroke="#63b8ff" points="382.4,-192.55 389.77,-184.93 379.26,-186.29 382.4,-192.55"/>
</a>
</g>
</g>
<!-- Node13 -->
<g id="Node000013" class="node">
<title>Node13</title>
<g id="a_Node000013"><a xlink:href="classjuce_1_1Path.html#af12226337c912d3b9124718179028cd7" target="_top" xlink:title=" ">
<polygon fill="white" stroke="#666666" points="472.12,-68.25 374.38,-68.25 374.38,-49 472.12,-49 472.12,-68.25"/>
<text xml:space="preserve" text-anchor="middle" x="423.25" y="-54.75" font-family="Helvetica,sans-Serif" font-size="10.00">juce::Path::isEmpty</text>
</a>
</g>
</g>
<!-- Node2&#45;&gt;Node13 -->
<g id="edge22_Node000002_Node000013" class="edge">
<title>Node2&#45;&gt;Node13</title>
<g id="a_edge22_Node000002_Node000013"><a xlink:title=" ">
<path fill="none" stroke="#63b8ff" d="M248.6,-247.24C268.65,-224.61 307.41,-181.08 341,-144.62 362.81,-120.95 388.36,-94.04 404.9,-76.72"/>
<polygon fill="#63b8ff" stroke="#63b8ff" points="407.23,-79.35 411.61,-69.7 402.17,-74.51 407.23,-79.35"/>
</a>
</g>
</g>
<!-- Node3&#45;&gt;Node3 -->
<g id="edge3_Node000003_Node000003" class="edge">
<title>Node3&#45;&gt;Node3</title>
<g id="a_edge3_Node000003_Node000003"><a xlink:title=" ">
<path fill="none" stroke="#63b8ff" d="M391.97,-376.36C385.59,-385.43 396.02,-393.88 423.25,-393.88 438.14,-393.88 448.01,-391.35 452.85,-387.58"/>
<polygon fill="#63b8ff" stroke="#63b8ff" points="456.29,-388.27 454.3,-377.86 449.36,-387.23 456.29,-388.27"/>
</a>
</g>
</g>
<!-- Node5 -->
<g id="Node000005" class="node">
<title>Node5</title>
<g id="a_Node000005"><a xlink:href="CarlaEngineGraph_8cpp.html#ad294b8477886cae80a4cbfaffbdf3772" target="_top" xlink:title=" ">
<polygon fill="white" stroke="#666666" points="617.88,-366.25 581.62,-366.25 581.62,-347 617.88,-347 617.88,-366.25"/>
<text xml:space="preserve" text-anchor="middle" x="599.75" y="-352.75" font-family="Helvetica,sans-Serif" font-size="10.00">jmax</text>
</a>
</g>
</g>
<!-- Node4&#45;&gt;Node5 -->
<g id="edge5_Node000004_Node000005" class="edge">
<title>Node4&#45;&gt;Node5</title>
<g id="a_edge5_Node000004_Node000005"><a xlink:title=" ">
<path fill="none" stroke="#63b8ff" d="M469.19,-327.67C501.03,-334.79 542.8,-344.12 570.18,-350.24"/>
<polygon fill="#63b8ff" stroke="#63b8ff" points="569.32,-353.63 579.84,-352.4 570.84,-346.8 569.32,-353.63"/>
</a>
</g>
</g>
<!-- Node6 -->
<g id="Node000006" class="node">
<title>Node6</title>
<g id="a_Node000006"><a xlink:href="classjuce_1_1Rectangle.html#a9b0852de9d45cf8a1b602ce114984ae1" target="_top" xlink:title=" ">
<polygon fill="white" stroke="#666666" points="824,-234.25 694,-234.25 694,-215 824,-215 824,-234.25"/>
<text xml:space="preserve" text-anchor="middle" x="759" y="-220.75" font-family="Helvetica,sans-Serif" font-size="10.00">juce::Rectangle::Rectangle</text>
</a>
</g>
</g>
<!-- Node4&#45;&gt;Node6 -->
<g id="edge6_Node000004_Node000006" class="edge">
<title>Node4&#45;&gt;Node6</title>
<g id="a_edge6_Node000004_Node000006"><a xlink:title=" ">
<path fill="none" stroke="#63b8ff" d="M487.58,-322.16C535.81,-323.41 603.06,-320.32 658,-299.62 690.81,-287.27 722.04,-260.64 740.61,-242.67"/>
<polygon fill="#63b8ff" stroke="#63b8ff" points="742.98,-245.25 747.59,-235.71 738.04,-240.29 742.98,-245.25"/>
</a>
</g>
</g>
<!-- Node6&#45;&gt;Node6 -->
<g id="edge7_Node000006_Node000006" class="edge">
<title>Node6&#45;&gt;Node6</title>
<g id="a_edge7_Node000006_Node000006"><a xlink:title=" ">
<path fill="none" stroke="#63b8ff" d="M734.07,-234.54C722.7,-243.15 731.01,-252.25 759,-252.25 774.75,-252.25 784.26,-249.37 787.56,-245.32"/>
<polygon fill="#63b8ff" stroke="#63b8ff" points="790.92,-244.34 784.41,-235.97 784.28,-246.57 790.92,-244.34"/>
</a>
</g>
</g>
<!-- Node7&#45;&gt;Node7 -->
<g id="edge11_Node000007_Node000007" class="edge">
<title>Node7&#45;&gt;Node7</title>
<g id="a_edge11_Node000007_Node000007"><a xlink:title=" ">
<path fill="none" stroke="#63b8ff" d="M395.62,-272.54C383.01,-281.15 392.22,-290.25 423.25,-290.25 440.7,-290.25 451.25,-287.37 454.9,-283.32"/>
<polygon fill="#63b8ff" stroke="#63b8ff" points="458.18,-282.1 451.41,-273.96 451.62,-284.55 458.18,-282.1"/>
</a>
</g>
</g>
<!-- Node8 -->
<g id="Node000008" class="node">
<title>Node8</title>
<g id="a_Node000008"><a xlink:href="classjuce_1_1Path.html#ab80a69a3e10d3f1c922699a93eaeaae8" target="_top" xlink:title=" ">
<polygon fill="white" stroke="#666666" points="654.62,-272.25 544.88,-272.25 544.88,-253 654.62,-253 654.62,-272.25"/>
<text xml:space="preserve" text-anchor="middle" x="599.75" y="-258.75" font-family="Helvetica,sans-Serif" font-size="10.00">juce::Path::getBounds</text>
</a>
</g>
</g>
<!-- Node7&#45;&gt;Node8 -->
<g id="edge9_Node000007_Node000008" class="edge">
<title>Node7&#45;&gt;Node8</title>
<g id="a_edge9_Node000007_Node000008"><a xlink:title=" ">
<path fill="none" stroke="#63b8ff" d="M505.88,-262.62C515.01,-262.62 524.22,-262.62 533.11,-262.62"/>
<polygon fill="#63b8ff" stroke="#63b8ff" points="533.07,-266.13 543.07,-262.63 533.07,-259.13 533.07,-266.13"/>
</a>
</g>
</g>
<!-- Node8&#45;&gt;Node8 -->
<g id="edge10_Node000008_Node000008" class="edge">
<title>Node8&#45;&gt;Node8</title>
<g id="a_edge10_Node000008_Node000008"><a xlink:title=" ">
<path fill="none" stroke="#63b8ff" d="M574.82,-272.54C563.45,-281.15 571.76,-290.25 599.75,-290.25 615.5,-290.25 625.01,-287.37 628.31,-283.32"/>
<polygon fill="#63b8ff" stroke="#63b8ff" points="631.67,-282.34 625.16,-273.97 625.03,-284.57 631.67,-282.34"/>
</a>
</g>
</g>
<!-- Node9&#45;&gt;Node6 -->
<g id="edge21_Node000009_Node000006" class="edge">
<title>Node9&#45;&gt;Node6</title>
<g id="a_edge21_Node000009_Node000006"><a xlink:title=" ">
<path fill="none" stroke="#63b8ff" d="M466.27,-184.34C488.36,-191.97 516.06,-200.56 541.5,-205.62 587.67,-214.82 640.26,-219.57 682.05,-222.02"/>
<polygon fill="#63b8ff" stroke="#63b8ff" points="681.85,-225.51 692.02,-222.56 682.23,-218.52 681.85,-225.51"/>
</a>
</g>
</g>
<!-- Node10 -->
<g id="Node000010" class="node">
<title>Node10</title>
<g id="a_Node000010"><a xlink:href="namespacejuce_1_1detail.html#ab23acb24b76aafebe3c0af08570be571" target="_top" xlink:title=" ">
<polygon fill="white" stroke="#666666" points="652,-178.25 547.5,-178.25 547.5,-159 652,-159 652,-178.25"/>
<text xml:space="preserve" text-anchor="middle" x="599.75" y="-164.75" font-family="Helvetica,sans-Serif" font-size="10.00">juce::detail::ceilAsInt</text>
</a>
</g>
</g>
<!-- Node9&#45;&gt;Node10 -->
<g id="edge15_Node000009_Node000010" class="edge">
<title>Node9&#45;&gt;Node10</title>
<g id="a_edge15_Node000009_Node000010"><a xlink:title=" ">
<path fill="none" stroke="#63b8ff" d="M492.72,-168.62C506.89,-168.62 521.76,-168.62 535.72,-168.62"/>
<polygon fill="#63b8ff" stroke="#63b8ff" points="535.7,-172.13 545.7,-168.63 535.7,-165.13 535.7,-172.13"/>
</a>
</g>
</g>
<!-- Node11 -->
<g id="Node000011" class="node">
<title>Node11</title>
<g id="a_Node000011"><a xlink:href="namespacejuce_1_1detail.html#a19d50b4c73b70417d55cf027b8a4adca" target="_top" xlink:title=" ">
<polygon fill="white" stroke="#666666" points="653.5,-123.25 546,-123.25 546,-104 653.5,-104 653.5,-123.25"/>
<text xml:space="preserve" text-anchor="middle" x="599.75" y="-109.75" font-family="Helvetica,sans-Serif" font-size="10.00">juce::detail::floorAsInt</text>
</a>
</g>
</g>
<!-- Node9&#45;&gt;Node11 -->
<g id="edge17_Node000009_Node000011" class="edge">
<title>Node9&#45;&gt;Node11</title>
<g id="a_edge17_Node000009_Node000011"><a xlink:title=" ">
<path fill="none" stroke="#63b8ff" d="M473.79,-153.01C499.65,-144.86 530.99,-134.98 555.81,-127.16"/>
<polygon fill="#63b8ff" stroke="#63b8ff" points="556.79,-130.52 565.28,-124.18 554.69,-123.84 556.79,-130.52"/>
</a>
</g>
</g>
<!-- Node12 -->
<g id="Node000012" class="node">
<title>Node12</title>
<g id="a_Node000012"><a xlink:href="classjuce_1_1Rectangle.html#a495e4452c3af0188055c1d852409f2c5" target="_top" xlink:title=" ">
<polygon fill="white" stroke="#666666" points="658,-85.88 541.5,-85.88 541.5,-55.38 658,-55.38 658,-85.88"/>
<text xml:space="preserve" text-anchor="start" x="549.5" y="-72.38" font-family="Helvetica,sans-Serif" font-size="10.00">juce::Rectangle::leftTop</text>
<text xml:space="preserve" text-anchor="middle" x="599.75" y="-61.12" font-family="Helvetica,sans-Serif" font-size="10.00">RightBottom</text>
</a>
</g>
</g>
<!-- Node9&#45;&gt;Node12 -->
<g id="edge19_Node000009_Node000012" class="edge">
<title>Node9&#45;&gt;Node12</title>
<g id="a_edge19_Node000009_Node000012"><a xlink:title=" ">
<path fill="none" stroke="#63b8ff" d="M446.5,-153.01C469.61,-137.18 507.12,-112.52 541.5,-94.62 543.84,-93.41 546.25,-92.2 548.71,-91.02"/>
<polygon fill="#63b8ff" stroke="#63b8ff" points="549.94,-94.31 557.56,-86.94 547.01,-87.95 549.94,-94.31"/>
</a>
</g>
</g>
<!-- Node10&#45;&gt;Node10 -->
<g id="edge16_Node000010_Node000010" class="edge">
<title>Node10&#45;&gt;Node10</title>
<g id="a_edge16_Node000010_Node000010"><a xlink:title=" ">
<path fill="none" stroke="#63b8ff" d="M574.82,-178.54C563.45,-187.15 571.76,-196.25 599.75,-196.25 615.5,-196.25 625.01,-193.37 628.31,-189.32"/>
<polygon fill="#63b8ff" stroke="#63b8ff" points="631.67,-188.34 625.16,-179.97 625.03,-190.57 631.67,-188.34"/>
</a>
</g>
</g>
<!-- Node11&#45;&gt;Node11 -->
<g id="edge18_Node000011_Node000011" class="edge">
<title>Node11&#45;&gt;Node11</title>
<g id="a_edge18_Node000011_Node000011"><a xlink:title=" ">
<path fill="none" stroke="#63b8ff" d="M574.82,-123.54C563.45,-132.15 571.76,-141.25 599.75,-141.25 615.5,-141.25 625.01,-138.37 628.31,-134.32"/>
<polygon fill="#63b8ff" stroke="#63b8ff" points="631.67,-133.34 625.16,-124.97 625.03,-135.57 631.67,-133.34"/>
</a>
</g>
</g>
<!-- Node12&#45;&gt;Node6 -->
<g id="edge20_Node000012_Node000006" class="edge">
<title>Node12&#45;&gt;Node6</title>
<g id="a_edge20_Node000012_Node000006"><a xlink:title=" ">
<path fill="none" stroke="#63b8ff" d="M644.89,-86.32C649.52,-88.77 653.99,-91.54 658,-94.62 698.44,-125.75 731.26,-177.01 747.32,-204.95"/>
<polygon fill="#63b8ff" stroke="#63b8ff" points="744.13,-206.41 752.07,-213.43 750.23,-202.99 744.13,-206.41"/>
</a>
</g>
</g>
<!-- Node13&#45;&gt;Node13 -->
<g id="edge23_Node000013_Node000013" class="edge">
<title>Node13&#45;&gt;Node13</title>
<g id="a_edge23_Node000013_Node000013"><a xlink:title=" ">
<path fill="none" stroke="#63b8ff" d="M395.62,-68.54C383.01,-77.15 392.22,-86.25 423.25,-86.25 440.7,-86.25 451.25,-83.37 454.9,-79.32"/>
<polygon fill="#63b8ff" stroke="#63b8ff" points="458.18,-78.1 451.41,-69.96 451.62,-80.55 458.18,-78.1"/>
</a>
</g>
</g>
<!-- Node14 -->
<g id="Node000014" class="node">
<title>Node14</title>
<g id="a_Node000014"><a xlink:href="namespacejuce.html#a752d9d6f7878f923753671380de9565e" target="_top" xlink:title=" ">
<polygon fill="white" stroke="#666666" points="637.75,-19.25 561.75,-19.25 561.75,0 637.75,0 637.75,-19.25"/>
<text xml:space="preserve" text-anchor="middle" x="599.75" y="-5.75" font-family="Helvetica,sans-Serif" font-size="10.00">juce::isMarker</text>
</a>
</g>
</g>
<!-- Node13&#45;&gt;Node14 -->
<g id="edge24_Node000013_Node000014" class="edge">
<title>Node13&#45;&gt;Node14</title>
<g id="a_edge24_Node000013_Node000014"><a xlink:title=" ">
<path fill="none" stroke="#63b8ff" d="M459.98,-48.59C486.48,-41.15 522.85,-30.94 551.71,-22.83"/>
<polygon fill="#63b8ff" stroke="#63b8ff" points="552.63,-26.21 561.31,-20.14 550.73,-19.47 552.63,-26.21"/>
</a>
</g>
</g>
<!-- Node14&#45;&gt;Node14 -->
<g id="edge25_Node000014_Node000014" class="edge">
<title>Node14&#45;&gt;Node14</title>
<g id="a_edge25_Node000014_Node000014"><a xlink:title=" ">
<path fill="none" stroke="#63b8ff" d="M574.82,-19.54C563.45,-28.15 571.76,-37.25 599.75,-37.25 615.5,-37.25 625.01,-34.37 628.31,-30.32"/>
<polygon fill="#63b8ff" stroke="#63b8ff" points="631.67,-29.34 625.16,-20.97 625.03,-31.57 631.67,-29.34"/>
</a>
</g>
</g>
</g>
</svg>
