<?xml version="1.0" encoding="UTF-8" standalone="no"?>
<!DOCTYPE svg PUBLIC "-//W3C//DTD SVG 1.1//EN"
 "http://www.w3.org/Graphics/SVG/1.1/DTD/svg11.dtd">
<!-- Generated by graphviz version 14.0.2 (0)
 -->
<!-- Title: juce::Font::getTypefaceStyle Pages: 1 -->
<svg width="424pt" height="162pt"
 viewBox="0.00 0.00 424.00 162.00" xmlns="http://www.w3.org/2000/svg" xmlns:xlink="http://www.w3.org/1999/xlink">
<g id="graph0" class="graph" transform="scale(1 1) rotate(0) translate(4 157.88)">
<title>juce::Font::getTypefaceStyle</title>
<!-- Node1 -->
<g id="Node000001" class="node">
<title>Node1</title>
<g id="a_Node000001"><a xlink:title=" ">
<polygon fill="#999999" stroke="#666666" points="415.5,-68.25 278,-68.25 278,-49 415.5,-49 415.5,-68.25"/>
<text xml:space="preserve" text-anchor="middle" x="346.75" y="-54.75" font-family="Helvetica,sans-Serif" font-size="10.00">juce::Font::getTypefaceStyle</text>
</a>
</g>
</g>
<!-- Node1&#45;&gt;Node1 -->
<g id="edge3_Node000001_Node000001" class="edge">
<title>Node1&#45;&gt;Node1</title>
<g id="a_edge3_Node000001_Node000001"><a xlink:title=" ">
<path fill="none" stroke="#63b8ff" d="M376.18,-79.32C372.79,-83.37 362.98,-86.25 346.75,-86.25 317.9,-86.25 309.34,-77.15 321.06,-68.54"/>
<polygon fill="#63b8ff" stroke="#63b8ff" points="379.52,-78.27 372.94,-69.97 372.91,-80.56 379.52,-78.27"/>
</a>
</g>
</g>
<!-- Node2 -->
<g id="Node000002" class="node">
<title>Node2</title>
<g id="a_Node000002"><a xlink:href="classjuce_1_1TypefaceCache.html#ae3a20ac88d77a70f098ccedb91562643" target="_top" xlink:title=" ">
<polygon fill="white" stroke="#666666" points="235.62,-153.88 129.62,-153.88 129.62,-123.38 235.62,-123.38 235.62,-153.88"/>
<text xml:space="preserve" text-anchor="start" x="137.62" y="-140.38" font-family="Helvetica,sans-Serif" font-size="10.00">juce::TypefaceCache</text>
<text xml:space="preserve" text-anchor="middle" x="182.62" y="-129.12" font-family="Helvetica,sans-Serif" font-size="10.00">::findTypefaceFor</text>
</a>
</g>
</g>
<!-- Node1&#45;&gt;Node2 -->
<g id="edge1_Node000001_Node000002" class="edge">
<title>Node1&#45;&gt;Node2</title>
<g id="a_edge1_Node000001_Node000002"><a xlink:title=" ">
<path fill="none" stroke="#63b8ff" d="M317.98,-74.15C297.27,-85.53 268.16,-101.12 242,-113.62 235.44,-116.76 228.38,-119.95 221.51,-122.94"/>
<polygon fill="#63b8ff" stroke="#63b8ff" points="319.6,-77.25 326.66,-69.35 316.22,-71.13 319.6,-77.25"/>
</a>
</g>
</g>
<!-- Node3 -->
<g id="Node000003" class="node">
<title>Node3</title>
<g id="a_Node000003"><a xlink:href="classjuce_1_1FreeTypeTypeface.html#a3c0159ccac191360b83cd585a043c3ba" target="_top" xlink:title=" ">
<polygon fill="white" stroke="#666666" points="242,-104.88 123.25,-104.88 123.25,-74.38 242,-74.38 242,-104.88"/>
<text xml:space="preserve" text-anchor="start" x="131.25" y="-91.38" font-family="Helvetica,sans-Serif" font-size="10.00">juce::FreeTypeTypeface</text>
<text xml:space="preserve" text-anchor="middle" x="182.62" y="-80.12" font-family="Helvetica,sans-Serif" font-size="10.00">::FreeTypeTypeface</text>
</a>
</g>
</g>
<!-- Node1&#45;&gt;Node3 -->
<g id="edge2_Node000001_Node000003" class="edge">
<title>Node1&#45;&gt;Node3</title>
<g id="a_edge2_Node000001_Node000003"><a xlink:title=" ">
<path fill="none" stroke="#63b8ff" d="M281.88,-70.84C268.89,-73.32 255.27,-75.93 242.45,-78.38"/>
<polygon fill="#63b8ff" stroke="#63b8ff" points="282.46,-74.29 291.63,-68.97 281.15,-67.41 282.46,-74.29"/>
</a>
</g>
</g>
<!-- Node4 -->
<g id="Node000004" class="node">
<title>Node4</title>
<g id="a_Node000004"><a xlink:href="classjuce_1_1Font.html#a75c2697ae4132911275de04a12f26fc3" target="_top" xlink:title=" ">
<polygon fill="white" stroke="#666666" points="230.75,-38.25 134.5,-38.25 134.5,-19 230.75,-19 230.75,-38.25"/>
<text xml:space="preserve" text-anchor="middle" x="182.62" y="-24.75" font-family="Helvetica,sans-Serif" font-size="10.00">juce::Font::toString</text>
</a>
</g>
</g>
<!-- Node1&#45;&gt;Node4 -->
<g id="edge4_Node000001_Node000004" class="edge">
<title>Node1&#45;&gt;Node4</title>
<g id="a_edge4_Node000001_Node000004"><a xlink:title=" ">
<path fill="none" stroke="#63b8ff" d="M280.13,-46.48C263.73,-43.45 246.46,-40.25 231.13,-37.42"/>
<polygon fill="#63b8ff" stroke="#63b8ff" points="279.36,-49.9 289.83,-48.28 280.63,-43.02 279.36,-49.9"/>
</a>
</g>
</g>
<!-- Node5 -->
<g id="Node000005" class="node">
<title>Node5</title>
<g id="a_Node000005"><a xlink:href="classjuce_1_1Font.html#aa68d0571bddb9422ef07e443b3fd7dcc" target="_top" xlink:title=" ">
<polygon fill="white" stroke="#666666" points="87.25,-19.25 0,-19.25 0,0 87.25,0 87.25,-19.25"/>
<text xml:space="preserve" text-anchor="middle" x="43.62" y="-5.75" font-family="Helvetica,sans-Serif" font-size="10.00">juce::Font::~Font</text>
</a>
</g>
</g>
<!-- Node1&#45;&gt;Node5 -->
<g id="edge7_Node000001_Node000005" class="edge">
<title>Node1&#45;&gt;Node5</title>
<g id="a_edge7_Node000001_Node000005"><a xlink:title=" ">
<path fill="none" stroke="#63b8ff" d="M320.66,-42.9C300.32,-31.13 270.47,-16.01 242,-9.62 189.84,2.07 127.96,-0.49 87.57,-4.27"/>
<polygon fill="#63b8ff" stroke="#63b8ff" points="318.69,-45.8 329.07,-47.91 322.27,-39.78 318.69,-45.8"/>
</a>
</g>
</g>
<!-- Node4&#45;&gt;Node4 -->
<g id="edge5_Node000004_Node000004" class="edge">
<title>Node4&#45;&gt;Node4</title>
<g id="a_edge5_Node000004_Node000004"><a xlink:title=" ">
<path fill="none" stroke="#63b8ff" d="M207.3,-49.65C204.21,-53.53 195.99,-56.25 182.62,-56.25 158.19,-56.25 150.94,-47.15 160.86,-38.54"/>
<polygon fill="#63b8ff" stroke="#63b8ff" points="210.69,-48.79 204.77,-40 203.92,-50.56 210.69,-48.79"/>
</a>
</g>
</g>
<!-- Node4&#45;&gt;Node5 -->
<g id="edge6_Node000004_Node000005" class="edge">
<title>Node4&#45;&gt;Node5</title>
<g id="a_edge6_Node000004_Node000005"><a xlink:title=" ">
<path fill="none" stroke="#63b8ff" d="M122.87,-20.48C110.99,-18.83 98.7,-17.12 87.49,-15.57"/>
<polygon fill="#63b8ff" stroke="#63b8ff" points="122.21,-23.92 132.59,-21.83 123.17,-16.98 122.21,-23.92"/>
</a>
</g>
</g>
</g>
</svg>
