<?xml version="1.0" encoding="UTF-8" standalone="no"?>
<!DOCTYPE svg PUBLIC "-//W3C//DTD SVG 1.1//EN"
 "http://www.w3.org/Graphics/SVG/1.1/DTD/svg11.dtd">
<!-- Generated by graphviz version 14.0.2 (0)
 -->
<!-- Title: hiir::HalfBandSse::set_single_coef Pages: 1 -->
<svg width="367pt" height="235pt"
 viewBox="0.00 0.00 367.00 235.00" xmlns="http://www.w3.org/2000/svg" xmlns:xlink="http://www.w3.org/1999/xlink">

<svg id="main" version="1.1" xmlns="http://www.w3.org/2000/svg" xmlns:xlink="http://www.w3.org/1999/xlink" xml:space="preserve">

<style type="text/css"><![CDATA[
.node, .edge {opacity: 0.7;}
.node.selected, .edge.selected {opacity: 1;}
.edge:hover path { stroke: red; }
.edge:hover polygon { stroke: red; fill: red; }
]]></style>
<script type="application/ecmascript" xlink:href="svg.min.js"/>
<svg id="graph" class="graph">
<g id="graph0" class="graph" transform="scale(1 1) rotate(0) translate(4 230.5)">
<title>hiir::HalfBandSse::set_single_coef</title>
<!-- Node1 -->
<g id="Node000001" class="node">
<title>Node1</title>
<g id="a_Node000001"><a xlink:title=" ">
<polygon fill="#999999" stroke="#666666" points="358.5,-78.5 263,-78.5 263,-48 358.5,-48 358.5,-78.5"/>
<text xml:space="preserve" text-anchor="start" x="271" y="-65" font-family="Helvetica,sans-Serif" font-size="10.00">hiir::HalfBandSse::</text>
<text xml:space="preserve" text-anchor="middle" x="310.75" y="-53.75" font-family="Helvetica,sans-Serif" font-size="10.00">set_single_coef</text>
</a>
</g>
</g>
<!-- Node2 -->
<g id="Node000002" class="node">
<title>Node2</title>
<g id="a_Node000002"><a xlink:href="classhiir_1_1HalfBandSse.html#a72e43b1dea570e0abdcaa28557318cba" target="_top" xlink:title=" ">
<polygon fill="white" stroke="#666666" points="227,-103.5 131.5,-103.5 131.5,-73 227,-73 227,-103.5"/>
<text xml:space="preserve" text-anchor="start" x="139.5" y="-90" font-family="Helvetica,sans-Serif" font-size="10.00">hiir::HalfBandSse::</text>
<text xml:space="preserve" text-anchor="middle" x="179.25" y="-78.75" font-family="Helvetica,sans-Serif" font-size="10.00">HalfBandSse</text>
</a>
</g>
</g>
<!-- Node1&#45;&gt;Node2 -->
<g id="edge1_Node000001_Node000002" class="edge">
<title>Node1&#45;&gt;Node2</title>
<g id="a_edge1_Node000001_Node000002"><a xlink:title=" ">
<path fill="none" stroke="#63b8ff" d="M251.6,-74.48C243.4,-76.06 235.06,-77.67 227.12,-79.2"/>
<polygon fill="#63b8ff" stroke="#63b8ff" points="251.99,-77.97 261.15,-72.63 250.66,-71.09 251.99,-77.97"/>
</a>
</g>
</g>
<!-- Node8 -->
<g id="Node000008" class="node">
<title>Node8</title>
<g id="a_Node000008"><a xlink:href="classhiir_1_1HalfBandSse.html#a09a9ef878ba74f1b5e5dd66e48508b1b" target="_top" xlink:title=" ">
<polygon fill="white" stroke="#666666" points="227,-54.5 131.5,-54.5 131.5,-24 227,-24 227,-54.5"/>
<text xml:space="preserve" text-anchor="start" x="139.5" y="-41" font-family="Helvetica,sans-Serif" font-size="10.00">hiir::HalfBandSse::</text>
<text xml:space="preserve" text-anchor="middle" x="179.25" y="-29.75" font-family="Helvetica,sans-Serif" font-size="10.00">set_coefs</text>
</a>
</g>
</g>
<!-- Node1&#45;&gt;Node8 -->
<g id="edge7_Node000001_Node000008" class="edge">
<title>Node1&#45;&gt;Node8</title>
<g id="a_edge7_Node000001_Node000008"><a xlink:title=" ">
<path fill="none" stroke="#63b8ff" d="M251.32,-52.42C243.21,-50.92 234.97,-49.39 227.12,-47.94"/>
<polygon fill="#63b8ff" stroke="#63b8ff" points="250.67,-55.86 261.14,-54.24 251.95,-48.98 250.67,-55.86"/>
</a>
</g>
</g>
<!-- Node3 -->
<g id="Node000003" class="node">
<title>Node3</title>
<g id="a_Node000003"><a xlink:href="classhiir_1_1HalfBandSse.html#a65e37024421ae2e6c18c780f8d8c9bd6" target="_top" xlink:title=" ">
<polygon fill="white" stroke="#666666" points="95.5,-226.5 0,-226.5 0,-196 95.5,-196 95.5,-226.5"/>
<text xml:space="preserve" text-anchor="start" x="8" y="-213" font-family="Helvetica,sans-Serif" font-size="10.00">hiir::HalfBandSse::</text>
<text xml:space="preserve" text-anchor="middle" x="47.75" y="-201.75" font-family="Helvetica,sans-Serif" font-size="10.00">HalfBandSse</text>
</a>
</g>
</g>
<!-- Node2&#45;&gt;Node3 -->
<g id="edge2_Node000002_Node000003" class="edge">
<title>Node2&#45;&gt;Node3</title>
<g id="a_edge2_Node000002_Node000003"><a xlink:title=" ">
<path fill="none" stroke="#63b8ff" d="M161.38,-113.11C146.03,-134.43 121.8,-164.97 95.5,-186.25 91.35,-189.61 86.68,-192.73 81.94,-195.54"/>
<polygon fill="#63b8ff" stroke="#63b8ff" points="164.21,-115.18 167.11,-104.99 158.49,-111.15 164.21,-115.18"/>
</a>
</g>
</g>
<!-- Node4 -->
<g id="Node000004" class="node">
<title>Node4</title>
<g id="a_Node000004"><a xlink:href="classhiir_1_1HalfBandSse.html#a1d057fb86df3d3eb6665b0caed9f2af1" target="_top" xlink:title=" ">
<polygon fill="white" stroke="#666666" points="95.5,-177.5 0,-177.5 0,-147 95.5,-147 95.5,-177.5"/>
<text xml:space="preserve" text-anchor="start" x="8" y="-164" font-family="Helvetica,sans-Serif" font-size="10.00">hiir::HalfBandSse::</text>
<text xml:space="preserve" text-anchor="middle" x="47.75" y="-152.75" font-family="Helvetica,sans-Serif" font-size="10.00">HalfBandSse</text>
</a>
</g>
</g>
<!-- Node2&#45;&gt;Node4 -->
<g id="edge3_Node000002_Node000004" class="edge">
<title>Node2&#45;&gt;Node4</title>
<g id="a_edge3_Node000002_Node000004"><a xlink:title=" ">
<path fill="none" stroke="#63b8ff" d="M142.71,-109.76C128.16,-118.44 111.1,-128.46 95.5,-137.25 90.05,-140.32 84.19,-143.52 78.53,-146.57"/>
<polygon fill="#63b8ff" stroke="#63b8ff" points="144.25,-112.91 151.03,-104.77 140.65,-106.91 144.25,-112.91"/>
</a>
</g>
</g>
<!-- Node5 -->
<g id="Node000005" class="node">
<title>Node5</title>
<g id="a_Node000005"><a xlink:href="classhiir_1_1HalfBandSse.html#a723fdfe04e1c696522762121abb7d5c6" target="_top" xlink:title=" ">
<polygon fill="white" stroke="#666666" points="95.5,-128.5 0,-128.5 0,-98 95.5,-98 95.5,-128.5"/>
<text xml:space="preserve" text-anchor="start" x="8" y="-115" font-family="Helvetica,sans-Serif" font-size="10.00">hiir::HalfBandSse::</text>
<text xml:space="preserve" text-anchor="middle" x="47.75" y="-103.75" font-family="Helvetica,sans-Serif" font-size="10.00">operator=</text>
</a>
</g>
</g>
<!-- Node2&#45;&gt;Node5 -->
<g id="edge4_Node000002_Node000005" class="edge">
<title>Node2&#45;&gt;Node5</title>
<g id="a_edge4_Node000002_Node000005"><a xlink:title=" ">
<path fill="none" stroke="#63b8ff" d="M120.1,-99.48C111.9,-101.06 103.56,-102.67 95.62,-104.2"/>
<polygon fill="#63b8ff" stroke="#63b8ff" points="120.49,-102.97 129.65,-97.63 119.16,-96.09 120.49,-102.97"/>
</a>
</g>
</g>
<!-- Node6 -->
<g id="Node000006" class="node">
<title>Node6</title>
<g id="a_Node000006"><a xlink:href="classhiir_1_1HalfBandSse.html#a02610e47424620b79b41115475583a82" target="_top" xlink:title=" ">
<polygon fill="white" stroke="#666666" points="95.5,-30.5 0,-30.5 0,0 95.5,0 95.5,-30.5"/>
<text xml:space="preserve" text-anchor="start" x="8" y="-17" font-family="Helvetica,sans-Serif" font-size="10.00">hiir::HalfBandSse::</text>
<text xml:space="preserve" text-anchor="middle" x="47.75" y="-5.75" font-family="Helvetica,sans-Serif" font-size="10.00">operator=</text>
</a>
</g>
</g>
<!-- Node2&#45;&gt;Node6 -->
<g id="edge5_Node000002_Node000006" class="edge">
<title>Node2&#45;&gt;Node6</title>
<g id="a_edge5_Node000002_Node000006"><a xlink:title=" ">
<path fill="none" stroke="#63b8ff" d="M138.52,-67.28C136.13,-65.93 133.78,-64.58 131.5,-63.25 115.12,-53.65 111.88,-49.85 95.5,-40.25 90.1,-37.09 84.27,-33.84 78.62,-30.78"/>
<polygon fill="#63b8ff" stroke="#63b8ff" points="136.61,-70.22 147.06,-71.99 139.99,-64.09 136.61,-70.22"/>
</a>
</g>
</g>
<!-- Node7 -->
<g id="Node000007" class="node">
<title>Node7</title>
<g id="a_Node000007"><a xlink:href="classhiir_1_1HalfBandSse.html#a33ae140771663b3b80cb0e31bd5f2848" target="_top" xlink:title=" ">
<polygon fill="white" stroke="#666666" points="95.5,-79.5 0,-79.5 0,-49 95.5,-49 95.5,-79.5"/>
<text xml:space="preserve" text-anchor="start" x="8" y="-66" font-family="Helvetica,sans-Serif" font-size="10.00">hiir::HalfBandSse::</text>
<text xml:space="preserve" text-anchor="middle" x="47.75" y="-54.75" font-family="Helvetica,sans-Serif" font-size="10.00">~HalfBandSse</text>
</a>
</g>
</g>
<!-- Node2&#45;&gt;Node7 -->
<g id="edge6_Node000002_Node000007" class="edge">
<title>Node2&#45;&gt;Node7</title>
<g id="a_edge6_Node000002_Node000007"><a xlink:title=" ">
<path fill="none" stroke="#63b8ff" d="M119.82,-77.42C111.71,-75.92 103.47,-74.39 95.62,-72.94"/>
<polygon fill="#63b8ff" stroke="#63b8ff" points="119.17,-80.86 129.64,-79.24 120.45,-73.98 119.17,-80.86"/>
</a>
</g>
</g>
<!-- Node8&#45;&gt;Node6 -->
<g id="edge8_Node000008_Node000006" class="edge">
<title>Node8&#45;&gt;Node6</title>
<g id="a_edge8_Node000008_Node000006"><a xlink:title=" ">
<path fill="none" stroke="#63b8ff" d="M119.82,-28.42C111.71,-26.92 103.47,-25.39 95.62,-23.94"/>
<polygon fill="#63b8ff" stroke="#63b8ff" points="119.17,-31.86 129.64,-30.24 120.45,-24.98 119.17,-31.86"/>
</a>
</g>
</g>
</g>
</svg>
</svg>

<style type='text/css'>
<![CDATA[
[data-mouse-over-selected='false'] { opacity: 0.7; }
[data-mouse-over-selected='true']  { opacity: 1.0; }
]]>
</style>
<script type="application/ecmascript"><![CDATA[
document.addEventListener('DOMContentLoaded', (event) => {
  highlightEdges();
  highlightAdjacentNodes();
});
]]></script>
</svg>
