<?xml version="1.0" encoding="UTF-8" standalone="no"?>
<!DOCTYPE svg PUBLIC "-//W3C//DTD SVG 1.1//EN"
 "http://www.w3.org/Graphics/SVG/1.1/DTD/svg11.dtd">
<!-- Generated by graphviz version 14.0.2 (0)
 -->
<!-- Title: juce::BigInteger::clearBit Pages: 1 -->
<svg width="638pt" height="100pt"
 viewBox="0.00 0.00 638.00 100.00" xmlns="http://www.w3.org/2000/svg" xmlns:xlink="http://www.w3.org/1999/xlink">
<g id="graph0" class="graph" transform="scale(1 1) rotate(0) translate(4 96.25)">
<title>juce::BigInteger::clearBit</title>
<!-- Node1 -->
<g id="Node000001" class="node">
<title>Node1</title>
<g id="a_Node000001"><a xlink:title=" ">
<polygon fill="#999999" stroke="#666666" points="120.25,-38.25 0,-38.25 0,-19 120.25,-19 120.25,-38.25"/>
<text xml:space="preserve" text-anchor="middle" x="60.12" y="-24.75" font-family="Helvetica,sans-Serif" font-size="10.00">juce::BigInteger::clearBit</text>
</a>
</g>
</g>
<!-- Node1&#45;&gt;Node1 -->
<g id="edge1_Node000001_Node000001" class="edge">
<title>Node1&#45;&gt;Node1</title>
<g id="a_edge1_Node000001_Node000001"><a xlink:title=" ">
<path fill="none" stroke="#63b8ff" d="M33.61,-38.54C21.51,-47.15 30.35,-56.25 60.12,-56.25 76.87,-56.25 87,-53.37 90.5,-49.32"/>
<polygon fill="#63b8ff" stroke="#63b8ff" points="93.81,-48.2 87.15,-39.96 87.22,-50.56 93.81,-48.2"/>
</a>
</g>
</g>
<!-- Node2 -->
<g id="Node000002" class="node">
<title>Node2</title>
<g id="a_Node000002"><a xlink:href="classjuce_1_1BigInteger.html#a6ddf19669fe71b0c262e82f1ca21b2cb" target="_top" xlink:title=" ">
<polygon fill="white" stroke="#666666" points="302.75,-57.25 156.25,-57.25 156.25,-38 302.75,-38 302.75,-57.25"/>
<text xml:space="preserve" text-anchor="middle" x="229.5" y="-43.75" font-family="Helvetica,sans-Serif" font-size="10.00">juce::BigInteger::getHighestBit</text>
</a>
</g>
</g>
<!-- Node1&#45;&gt;Node2 -->
<g id="edge2_Node000001_Node000002" class="edge">
<title>Node1&#45;&gt;Node2</title>
<g id="a_edge2_Node000001_Node000002"><a xlink:title=" ">
<path fill="none" stroke="#63b8ff" d="M120.61,-35.38C128.4,-36.26 136.5,-37.18 144.6,-38.1"/>
<polygon fill="#63b8ff" stroke="#63b8ff" points="144.18,-41.58 154.51,-39.23 144.97,-34.62 144.18,-41.58"/>
</a>
</g>
</g>
<!-- Node5 -->
<g id="Node000005" class="node">
<title>Node5</title>
<g id="a_Node000005"><a xlink:href="classjuce_1_1BigInteger.html#a5318c3040572d5c9f4556a7aa21beb5b" target="_top" xlink:title=" ">
<polygon fill="white" stroke="#666666" points="469.5,-19.25 338.75,-19.25 338.75,0 469.5,0 469.5,-19.25"/>
<text xml:space="preserve" text-anchor="middle" x="404.12" y="-5.75" font-family="Helvetica,sans-Serif" font-size="10.00">juce::BigInteger::getValues</text>
</a>
</g>
</g>
<!-- Node1&#45;&gt;Node5 -->
<g id="edge10_Node000001_Node000005" class="edge">
<title>Node1&#45;&gt;Node5</title>
<g id="a_edge10_Node000001_Node000005"><a xlink:title=" ">
<path fill="none" stroke="#63b8ff" d="M120.7,-25.32C177.99,-22.13 264.84,-17.31 327.09,-13.85"/>
<polygon fill="#63b8ff" stroke="#63b8ff" points="327.12,-17.35 336.91,-13.3 326.73,-10.36 327.12,-17.35"/>
</a>
</g>
</g>
<!-- Node2&#45;&gt;Node2 -->
<g id="edge7_Node000002_Node000002" class="edge">
<title>Node2&#45;&gt;Node2</title>
<g id="a_edge7_Node000002_Node000002"><a xlink:title=" ">
<path fill="none" stroke="#63b8ff" d="M202.98,-57.54C190.89,-66.15 199.73,-75.25 229.5,-75.25 246.25,-75.25 256.37,-72.37 259.87,-68.32"/>
<polygon fill="#63b8ff" stroke="#63b8ff" points="263.19,-67.2 256.53,-58.96 256.6,-69.56 263.19,-67.2"/>
</a>
</g>
</g>
<!-- Node3 -->
<g id="Node000003" class="node">
<title>Node3</title>
<g id="a_Node000003"><a xlink:href="namespacejuce.html#a3a831534f193f8d5fae5d9fe5ef7bb9e" target="_top" xlink:title=" ">
<polygon fill="white" stroke="#666666" points="461.25,-74.25 347,-74.25 347,-55 461.25,-55 461.25,-74.25"/>
<text xml:space="preserve" text-anchor="middle" x="404.12" y="-60.75" font-family="Helvetica,sans-Serif" font-size="10.00">juce::findHighestSetBit</text>
</a>
</g>
</g>
<!-- Node2&#45;&gt;Node3 -->
<g id="edge3_Node000002_Node000003" class="edge">
<title>Node2&#45;&gt;Node3</title>
<g id="a_edge3_Node000002_Node000003"><a xlink:title=" ">
<path fill="none" stroke="#63b8ff" d="M303.21,-54.79C313.9,-55.84 324.88,-56.92 335.46,-57.96"/>
<polygon fill="#63b8ff" stroke="#63b8ff" points="334.96,-61.43 345.25,-58.93 335.64,-54.46 334.96,-61.43"/>
</a>
</g>
</g>
<!-- Node2&#45;&gt;Node5 -->
<g id="edge8_Node000002_Node000005" class="edge">
<title>Node2&#45;&gt;Node5</title>
<g id="a_edge8_Node000002_Node000005"><a xlink:title=" ">
<path fill="none" stroke="#63b8ff" d="M276.31,-37.54C297.75,-32.82 323.52,-27.15 346.2,-22.16"/>
<polygon fill="#63b8ff" stroke="#63b8ff" points="346.91,-25.58 355.93,-20.02 345.41,-18.75 346.91,-25.58"/>
</a>
</g>
</g>
<!-- Node3&#45;&gt;Node3 -->
<g id="edge6_Node000003_Node000003" class="edge">
<title>Node3&#45;&gt;Node3</title>
<g id="a_edge6_Node000003_Node000003"><a xlink:title=" ">
<path fill="none" stroke="#63b8ff" d="M378.49,-74.54C366.8,-83.15 375.34,-92.25 404.12,-92.25 420.32,-92.25 430.1,-89.37 433.49,-85.32"/>
<polygon fill="#63b8ff" stroke="#63b8ff" points="436.83,-84.28 430.26,-75.97 430.22,-86.56 436.83,-84.28"/>
</a>
</g>
</g>
<!-- Node4 -->
<g id="Node000004" class="node">
<title>Node4</title>
<g id="a_Node000004"><a xlink:href="namespacejuce.html#a98f4320b482d42daa81a8d60aafce2fe" target="_top" xlink:title=" ">
<polygon fill="white" stroke="#666666" points="630.25,-74.25 505.5,-74.25 505.5,-55 630.25,-55 630.25,-74.25"/>
<text xml:space="preserve" text-anchor="middle" x="567.88" y="-60.75" font-family="Helvetica,sans-Serif" font-size="10.00">juce::countNumberOfBits</text>
</a>
</g>
</g>
<!-- Node3&#45;&gt;Node4 -->
<g id="edge4_Node000003_Node000004" class="edge">
<title>Node3&#45;&gt;Node4</title>
<g id="a_edge4_Node000003_Node000004"><a xlink:title=" ">
<path fill="none" stroke="#63b8ff" d="M461.7,-64.62C472,-64.62 482.88,-64.62 493.59,-64.62"/>
<polygon fill="#63b8ff" stroke="#63b8ff" points="493.58,-68.13 503.58,-64.63 493.58,-61.13 493.58,-68.13"/>
</a>
</g>
</g>
<!-- Node4&#45;&gt;Node4 -->
<g id="edge5_Node000004_Node000004" class="edge">
<title>Node4&#45;&gt;Node4</title>
<g id="a_edge5_Node000004_Node000004"><a xlink:title=" ">
<path fill="none" stroke="#63b8ff" d="M542.24,-74.54C530.55,-83.15 539.09,-92.25 567.88,-92.25 584.07,-92.25 593.85,-89.37 597.24,-85.32"/>
<polygon fill="#63b8ff" stroke="#63b8ff" points="600.58,-84.28 594.01,-75.97 593.97,-86.56 600.58,-84.28"/>
</a>
</g>
</g>
<!-- Node5&#45;&gt;Node5 -->
<g id="edge9_Node000005_Node000005" class="edge">
<title>Node5&#45;&gt;Node5</title>
<g id="a_edge9_Node000005_Node000005"><a xlink:title=" ">
<path fill="none" stroke="#63b8ff" d="M378.49,-19.54C366.8,-28.15 375.34,-37.25 404.12,-37.25 420.32,-37.25 430.1,-34.37 433.49,-30.32"/>
<polygon fill="#63b8ff" stroke="#63b8ff" points="436.83,-29.28 430.26,-20.97 430.22,-31.56 436.83,-29.28"/>
</a>
</g>
</g>
</g>
</svg>
