<?xml version="1.0" encoding="UTF-8" standalone="no"?>
<!DOCTYPE svg PUBLIC "-//W3C//DTD SVG 1.1//EN"
 "http://www.w3.org/Graphics/SVG/1.1/DTD/svg11.dtd">
<!-- Generated by graphviz version 14.0.2 (0)
 -->
<!-- Title: CarlaPluginLV2::handleUridMap Pages: 1 -->
<svg width="811pt" height="108pt"
 viewBox="0.00 0.00 811.00 108.00" xmlns="http://www.w3.org/2000/svg" xmlns:xlink="http://www.w3.org/1999/xlink">
<g id="graph0" class="graph" transform="scale(1 1) rotate(0) translate(4 104.25)">
<title>CarlaPluginLV2::handleUridMap</title>
<!-- Node1 -->
<g id="Node000001" class="node">
<title>Node1</title>
<g id="a_Node000001"><a xlink:title=" ">
<polygon fill="#999999" stroke="#666666" points="153.25,-40.25 0,-40.25 0,-21 153.25,-21 153.25,-40.25"/>
<text xml:space="preserve" text-anchor="middle" x="76.62" y="-26.75" font-family="Helvetica,sans-Serif" font-size="10.00">CarlaPluginLV2::handleUridMap</text>
</a>
</g>
</g>
<!-- Node2 -->
<g id="Node000002" class="node">
<title>Node2</title>
<g id="a_Node000002"><a xlink:href="classCarlaPluginLV2.html#ad733a0520058ebbe419b8771bc0564d1" target="_top" xlink:title=" ">
<polygon fill="white" stroke="#666666" points="298.25,-67.88 189.25,-67.88 189.25,-37.38 298.25,-37.38 298.25,-67.88"/>
<text xml:space="preserve" text-anchor="start" x="197.25" y="-54.38" font-family="Helvetica,sans-Serif" font-size="10.00">CarlaPluginLV2::carla</text>
<text xml:space="preserve" text-anchor="middle" x="243.75" y="-43.12" font-family="Helvetica,sans-Serif" font-size="10.00">_lv2_urid_unmap</text>
</a>
</g>
</g>
<!-- Node1&#45;&gt;Node2 -->
<g id="edge1_Node000001_Node000002" class="edge">
<title>Node1&#45;&gt;Node2</title>
<g id="a_edge1_Node000001_Node000002"><a xlink:title=" ">
<path fill="none" stroke="#63b8ff" d="M153.42,-40.72C161.6,-41.81 169.88,-42.92 177.91,-43.99"/>
<polygon fill="#63b8ff" stroke="#63b8ff" points="177.21,-47.42 187.58,-45.28 178.13,-40.49 177.21,-47.42"/>
</a>
</g>
</g>
<!-- Node8 -->
<g id="Node000008" class="node">
<title>Node8</title>
<g id="a_Node000008"><a xlink:href="CarlaUtils_8hpp.html#adcbd5a9383b671ccea31bef34e761928" target="_top" xlink:title=" ">
<polygon fill="white" stroke="#666666" points="279.88,-19.25 207.62,-19.25 207.62,0 279.88,0 279.88,-19.25"/>
<text xml:space="preserve" text-anchor="middle" x="243.75" y="-5.75" font-family="Helvetica,sans-Serif" font-size="10.00">carla_stderr2</text>
</a>
</g>
</g>
<!-- Node1&#45;&gt;Node8 -->
<g id="edge8_Node000001_Node000008" class="edge">
<title>Node1&#45;&gt;Node8</title>
<g id="a_edge8_Node000001_Node000008"><a xlink:title=" ">
<path fill="none" stroke="#63b8ff" d="M153.42,-20.99C167.98,-19.13 182.82,-17.25 196.11,-15.56"/>
<polygon fill="#63b8ff" stroke="#63b8ff" points="196.38,-19.05 205.85,-14.32 195.49,-12.11 196.38,-19.05"/>
</a>
</g>
</g>
<!-- Node3 -->
<g id="Node000003" class="node">
<title>Node3</title>
<g id="a_Node000003"><a xlink:href="classCarlaPluginLV2.html#a919521dd870c394c0457d329c9fe6c83" target="_top" xlink:title=" ">
<polygon fill="white" stroke="#666666" points="489.75,-62.25 334.25,-62.25 334.25,-43 489.75,-43 489.75,-62.25"/>
<text xml:space="preserve" text-anchor="middle" x="412" y="-48.75" font-family="Helvetica,sans-Serif" font-size="10.00">CarlaPluginLV2::CarlaPluginLV2</text>
</a>
</g>
</g>
<!-- Node2&#45;&gt;Node3 -->
<g id="edge2_Node000002_Node000003" class="edge">
<title>Node2&#45;&gt;Node3</title>
<g id="a_edge2_Node000002_Node000003"><a xlink:title=" ">
<path fill="none" stroke="#63b8ff" d="M298.73,-52.62C306.4,-52.62 314.44,-52.62 322.56,-52.62"/>
<polygon fill="#63b8ff" stroke="#63b8ff" points="322.53,-56.13 332.53,-52.63 322.53,-49.13 322.53,-56.13"/>
</a>
</g>
</g>
<!-- Node4 -->
<g id="Node000004" class="node">
<title>Node4</title>
<g id="a_Node000004"><a xlink:href="CarlaUtils_8hpp.html#a644bfc886a92ed8dd5314daeb23190a9" target="_top" xlink:title=" ">
<polygon fill="white" stroke="#666666" points="633.62,-100.25 537.38,-100.25 537.38,-81 633.62,-81 633.62,-100.25"/>
<text xml:space="preserve" text-anchor="middle" x="585.5" y="-86.75" font-family="Helvetica,sans-Serif" font-size="10.00">carla_zeroPointers</text>
</a>
</g>
</g>
<!-- Node3&#45;&gt;Node4 -->
<g id="edge3_Node000003_Node000004" class="edge">
<title>Node3&#45;&gt;Node4</title>
<g id="a_edge3_Node000003_Node000004"><a xlink:title=" ">
<path fill="none" stroke="#63b8ff" d="M458.51,-62.71C479.82,-67.43 505.41,-73.1 527.95,-78.09"/>
<polygon fill="#63b8ff" stroke="#63b8ff" points="527.08,-81.49 537.6,-80.23 528.59,-74.65 527.08,-81.49"/>
</a>
</g>
</g>
<!-- Node5 -->
<g id="Node000005" class="node">
<title>Node5</title>
<g id="a_Node000005"><a xlink:href="classCarlaPlugin.html#ab894a65c7e80864e9de7da5db3d571fa" target="_top" xlink:title=" ">
<polygon fill="white" stroke="#666666" points="803,-43.25 681.25,-43.25 681.25,-24 803,-24 803,-43.25"/>
<text xml:space="preserve" text-anchor="middle" x="742.12" y="-29.75" font-family="Helvetica,sans-Serif" font-size="10.00">CarlaPlugin::CarlaEngine</text>
</a>
</g>
</g>
<!-- Node3&#45;&gt;Node5 -->
<g id="edge4_Node000003_Node000005" class="edge">
<title>Node3&#45;&gt;Node5</title>
<g id="a_edge4_Node000003_Node000005"><a xlink:title=" ">
<path fill="none" stroke="#63b8ff" d="M489.93,-48.17C544.2,-45.03 616.38,-40.85 669.44,-37.78"/>
<polygon fill="#63b8ff" stroke="#63b8ff" points="669.5,-41.28 679.28,-37.21 669.1,-34.29 669.5,-41.28"/>
</a>
</g>
</g>
<!-- Node6 -->
<g id="Node000006" class="node">
<title>Node6</title>
<g id="a_Node000006"><a xlink:href="classCarlaPlugin.html#a5350be3419911f3a2add1fa8ae534761" target="_top" xlink:title=" ">
<polygon fill="#fff0f0" stroke="red" points="645.25,-24.25 525.75,-24.25 525.75,-5 645.25,-5 645.25,-24.25"/>
<text xml:space="preserve" text-anchor="middle" x="585.5" y="-10.75" font-family="Helvetica,sans-Serif" font-size="10.00">CarlaPlugin::CarlaPlugin</text>
</a>
</g>
</g>
<!-- Node3&#45;&gt;Node6 -->
<g id="edge6_Node000003_Node000006" class="edge">
<title>Node3&#45;&gt;Node6</title>
<g id="a_edge6_Node000003_Node000006"><a xlink:title=" ">
<path fill="none" stroke="#63b8ff" d="M458.51,-42.54C479.82,-37.82 505.41,-32.15 527.95,-27.16"/>
<polygon fill="#63b8ff" stroke="#63b8ff" points="528.59,-30.6 537.6,-25.02 527.08,-23.76 528.59,-30.6"/>
</a>
</g>
</g>
<!-- Node5&#45;&gt;Node5 -->
<g id="edge5_Node000005_Node000005" class="edge">
<title>Node5&#45;&gt;Node5</title>
<g id="a_edge5_Node000005_Node000005"><a xlink:title=" ">
<path fill="none" stroke="#63b8ff" d="M717.6,-43.54C706.42,-52.15 714.59,-61.25 742.12,-61.25 757.61,-61.25 766.97,-58.37 770.21,-54.32"/>
<polygon fill="#63b8ff" stroke="#63b8ff" points="773.58,-53.37 767.12,-44.98 766.94,-55.57 773.58,-53.37"/>
</a>
</g>
</g>
<!-- Node6&#45;&gt;Node5 -->
<g id="edge7_Node000006_Node000005" class="edge">
<title>Node6&#45;&gt;Node5</title>
<g id="a_edge7_Node000006_Node000005"><a xlink:title=" ">
<path fill="none" stroke="#63b8ff" d="M645.4,-21.86C653.29,-22.83 661.45,-23.83 669.53,-24.83"/>
<polygon fill="#63b8ff" stroke="#63b8ff" points="669,-28.29 679.35,-26.03 669.85,-21.34 669,-28.29"/>
</a>
</g>
</g>
<!-- Node9 -->
<g id="Node000009" class="node">
<title>Node9</title>
<g id="a_Node000009"><a xlink:href="CarlaUtils_8hpp.html#a72c98b79b4bafee47a1e9249e83368f3" target="_top" xlink:title=" ">
<polygon fill="white" stroke="#666666" points="450.38,-19.25 373.62,-19.25 373.62,0 450.38,0 450.38,-19.25"/>
<text xml:space="preserve" text-anchor="middle" x="412" y="-5.75" font-family="Helvetica,sans-Serif" font-size="10.00">__carla_fopen</text>
</a>
</g>
</g>
<!-- Node8&#45;&gt;Node9 -->
<g id="edge9_Node000008_Node000009" class="edge">
<title>Node8&#45;&gt;Node9</title>
<g id="a_edge9_Node000008_Node000009"><a xlink:title=" ">
<path fill="none" stroke="#63b8ff" d="M280.01,-9.62C303.84,-9.62 335.63,-9.62 361.92,-9.62"/>
<polygon fill="#63b8ff" stroke="#63b8ff" points="361.68,-13.13 371.68,-9.63 361.68,-6.13 361.68,-13.13"/>
</a>
</g>
</g>
</g>
</svg>
