<?xml version="1.0" encoding="UTF-8" standalone="no"?>
<!DOCTYPE svg PUBLIC "-//W3C//DTD SVG 1.1//EN"
 "http://www.w3.org/Graphics/SVG/1.1/DTD/svg11.dtd">
<!-- Generated by graphviz version 14.0.2 (0)
 -->
<!-- Title: lmms::Oscillator::recalcPhase Pages: 1 -->
<svg width="288pt" height="64pt"
 viewBox="0.00 0.00 288.00 64.00" xmlns="http://www.w3.org/2000/svg" xmlns:xlink="http://www.w3.org/1999/xlink">
<g id="graph0" class="graph" transform="scale(1 1) rotate(0) translate(4 60.25)">
<title>lmms::Oscillator::recalcPhase</title>
<!-- Node1 -->
<g id="Node000001" class="node">
<title>Node1</title>
<g id="a_Node000001"><a xlink:title=" ">
<polygon fill="#999999" stroke="#666666" points="116.5,-42.88 0,-42.88 0,-12.37 116.5,-12.37 116.5,-42.88"/>
<text xml:space="preserve" text-anchor="start" x="8" y="-29.38" font-family="Helvetica,sans-Serif" font-size="10.00">lmms::Oscillator::recalc</text>
<text xml:space="preserve" text-anchor="middle" x="58.25" y="-18.12" font-family="Helvetica,sans-Serif" font-size="10.00">Phase</text>
</a>
</g>
</g>
<!-- Node2 -->
<g id="Node000002" class="node">
<title>Node2</title>
<g id="a_Node000002"><a xlink:href="namespacelmms.html#a5249dbf3fce9e8677948ac63afdfff86" target="_top" xlink:title="Returns the wrapped fractional part of a float, a value between 0.0f and 1.0f.">
<polygon fill="white" stroke="#666666" points="264.12,-56.25 168.62,-56.25 168.62,-37 264.12,-37 264.12,-56.25"/>
<text xml:space="preserve" text-anchor="middle" x="216.38" y="-42.75" font-family="Helvetica,sans-Serif" font-size="10.00">lmms::absFraction</text>
</a>
</g>
</g>
<!-- Node1&#45;&gt;Node2 -->
<g id="edge1_Node000001_Node000002" class="edge">
<title>Node1&#45;&gt;Node2</title>
<g id="a_edge1_Node000001_Node000002"><a xlink:title=" ">
<path fill="none" stroke="#63b8ff" d="M116.94,-34.65C129.98,-36.23 143.82,-37.92 156.89,-39.51"/>
<polygon fill="#63b8ff" stroke="#63b8ff" points="156.28,-42.96 166.63,-40.69 157.12,-36.01 156.28,-42.96"/>
</a>
</g>
</g>
<!-- Node3 -->
<g id="Node000003" class="node">
<title>Node3</title>
<g id="a_Node000003"><a xlink:href="namespacelmms.html#ae12d389a0025e9b0464e57a22580a7d3" target="_top" xlink:title=" ">
<polygon fill="white" stroke="#666666" points="280.25,-19.25 152.5,-19.25 152.5,0 280.25,0 280.25,-19.25"/>
<text xml:space="preserve" text-anchor="middle" x="216.38" y="-5.75" font-family="Helvetica,sans-Serif" font-size="10.00">lmms::approximatelyEqual</text>
</a>
</g>
</g>
<!-- Node1&#45;&gt;Node3 -->
<g id="edge2_Node000001_Node000003" class="edge">
<title>Node1&#45;&gt;Node3</title>
<g id="a_edge2_Node000001_Node000003"><a xlink:title=" ">
<path fill="none" stroke="#63b8ff" d="M116.94,-20.97C124.73,-20.08 132.82,-19.14 140.85,-18.22"/>
<polygon fill="#63b8ff" stroke="#63b8ff" points="141.11,-21.71 150.64,-17.09 140.31,-14.76 141.11,-21.71"/>
</a>
</g>
</g>
</g>
</svg>
