<?xml version="1.0" encoding="UTF-8" standalone="no"?>
<!DOCTYPE svg PUBLIC "-//W3C//DTD SVG 1.1//EN"
 "http://www.w3.org/Graphics/SVG/1.1/DTD/svg11.dtd">
<!-- Generated by graphviz version 14.0.2 (0)
 -->
<!-- Title: juce::HWNDComponentPeer::toFront Pages: 1 -->
<svg width="801pt" height="309pt"
 viewBox="0.00 0.00 801.00 309.00" xmlns="http://www.w3.org/2000/svg" xmlns:xlink="http://www.w3.org/1999/xlink">
<g id="graph0" class="graph" transform="scale(1 1) rotate(0) translate(4 304.5)">
<title>juce::HWNDComponentPeer::toFront</title>
<!-- Node1 -->
<g id="Node000001" class="node">
<title>Node1</title>
<g id="a_Node000001"><a xlink:title=" ">
<polygon fill="#999999" stroke="#666666" points="139,-128.5 0,-128.5 0,-98 139,-98 139,-128.5"/>
<text xml:space="preserve" text-anchor="start" x="8" y="-115" font-family="Helvetica,sans-Serif" font-size="10.00">juce::HWNDComponentPeer</text>
<text xml:space="preserve" text-anchor="middle" x="69.5" y="-103.75" font-family="Helvetica,sans-Serif" font-size="10.00">::toFront</text>
</a>
</g>
</g>
<!-- Node2 -->
<g id="Node000002" class="node">
<title>Node2</title>
<g id="a_Node000002"><a xlink:href="classjuce_1_1HWNDComponentPeer.html#adb30b6d7177ce22ceead6fe2242e007b" target="_top" xlink:title=" ">
<polygon fill="white" stroke="#666666" points="314,-244.5 175,-244.5 175,-214 314,-214 314,-244.5"/>
<text xml:space="preserve" text-anchor="start" x="183" y="-231" font-family="Helvetica,sans-Serif" font-size="10.00">juce::HWNDComponentPeer</text>
<text xml:space="preserve" text-anchor="middle" x="244.5" y="-219.75" font-family="Helvetica,sans-Serif" font-size="10.00">::callFunctionIfNotLocked</text>
</a>
</g>
</g>
<!-- Node1&#45;&gt;Node2 -->
<g id="edge1_Node000001_Node000002" class="edge">
<title>Node1&#45;&gt;Node2</title>
<g id="a_edge1_Node000001_Node000002"><a xlink:title=" ">
<path fill="none" stroke="#63b8ff" d="M84.7,-128.73C103.63,-148.58 138.95,-182.97 175,-204.25 177.76,-205.88 180.64,-207.43 183.6,-208.9"/>
<polygon fill="#63b8ff" stroke="#63b8ff" points="181.93,-211.99 192.48,-212.98 184.85,-205.63 181.93,-211.99"/>
</a>
</g>
</g>
<!-- Node11 -->
<g id="Node000011" class="node">
<title>Node11</title>
<g id="a_Node000011"><a xlink:href="classjuce_1_1ComponentPeer.html#a9be92e6a6a52860ba38ef993ee6013a2" target="_top" xlink:title=" ">
<polygon fill="white" stroke="#666666" points="302.75,-177.5 186.25,-177.5 186.25,-147 302.75,-147 302.75,-177.5"/>
<text xml:space="preserve" text-anchor="start" x="194.25" y="-164" font-family="Helvetica,sans-Serif" font-size="10.00">juce::ComponentPeer</text>
<text xml:space="preserve" text-anchor="middle" x="244.5" y="-152.75" font-family="Helvetica,sans-Serif" font-size="10.00">::handleBroughtToFront</text>
</a>
</g>
</g>
<!-- Node1&#45;&gt;Node11 -->
<g id="edge8_Node000001_Node000011" class="edge">
<title>Node1&#45;&gt;Node11</title>
<g id="a_edge8_Node000001_Node000011"><a xlink:title=" ">
<path fill="none" stroke="#63b8ff" d="M125.71,-128.89C142.02,-133.51 160.04,-138.61 176.97,-143.41"/>
<polygon fill="#63b8ff" stroke="#63b8ff" points="175.89,-146.74 186.46,-146.1 177.8,-140 175.89,-146.74"/>
</a>
</g>
</g>
<!-- Node12 -->
<g id="Node000012" class="node">
<title>Node12</title>
<g id="a_Node000012"><a xlink:href="classjuce_1_1HWNDComponentPeer.html#aa2cce365421a73dece682a95c1ae1825" target="_top" xlink:title=" ">
<polygon fill="white" stroke="#666666" points="314,-128.5 175,-128.5 175,-98 314,-98 314,-128.5"/>
<text xml:space="preserve" text-anchor="start" x="183" y="-115" font-family="Helvetica,sans-Serif" font-size="10.00">juce::HWNDComponentPeer</text>
<text xml:space="preserve" text-anchor="middle" x="244.5" y="-103.75" font-family="Helvetica,sans-Serif" font-size="10.00">::setMinimised</text>
</a>
</g>
</g>
<!-- Node1&#45;&gt;Node12 -->
<g id="edge10_Node000001_Node000012" class="edge">
<title>Node1&#45;&gt;Node12</title>
<g id="a_edge10_Node000001_Node000012"><a xlink:title=" ">
<path fill="none" stroke="#63b8ff" d="M139.37,-113.25C147.25,-113.25 155.33,-113.25 163.34,-113.25"/>
<polygon fill="#63b8ff" stroke="#63b8ff" points="163.07,-116.75 173.07,-113.25 163.07,-109.75 163.07,-116.75"/>
</a>
</g>
</g>
<!-- Node38 -->
<g id="Node000038" class="node">
<title>Node38</title>
<g id="a_Node000038"><a xlink:href="classjuce_1_1HWNDComponentPeer.html#a04132ffb4d018d55897f18295e275e45" target="_top" xlink:title=" ">
<polygon fill="white" stroke="#666666" points="314,-79.5 175,-79.5 175,-49 314,-49 314,-79.5"/>
<text xml:space="preserve" text-anchor="start" x="183" y="-66" font-family="Helvetica,sans-Serif" font-size="10.00">juce::HWNDComponentPeer</text>
<text xml:space="preserve" text-anchor="middle" x="244.5" y="-54.75" font-family="Helvetica,sans-Serif" font-size="10.00">::toFrontCallback1</text>
</a>
</g>
</g>
<!-- Node1&#45;&gt;Node38 -->
<g id="edge16_Node000001_Node000038" class="edge">
<title>Node1&#45;&gt;Node38</title>
<g id="a_edge16_Node000001_Node000038"><a xlink:title=" ">
<path fill="none" stroke="#63b8ff" d="M125.71,-97.61C142.02,-92.99 160.04,-87.89 176.97,-83.09"/>
<polygon fill="#63b8ff" stroke="#63b8ff" points="177.8,-86.5 186.46,-80.4 175.89,-79.76 177.8,-86.5"/>
</a>
</g>
</g>
<!-- Node39 -->
<g id="Node000039" class="node">
<title>Node39</title>
<g id="a_Node000039"><a xlink:href="classjuce_1_1HWNDComponentPeer.html#a7abccb8660eda64b6dfc8081cecbf270" target="_top" xlink:title=" ">
<polygon fill="white" stroke="#666666" points="314,-30.5 175,-30.5 175,0 314,0 314,-30.5"/>
<text xml:space="preserve" text-anchor="start" x="183" y="-17" font-family="Helvetica,sans-Serif" font-size="10.00">juce::HWNDComponentPeer</text>
<text xml:space="preserve" text-anchor="middle" x="244.5" y="-5.75" font-family="Helvetica,sans-Serif" font-size="10.00">::toFrontCallback2</text>
</a>
</g>
</g>
<!-- Node1&#45;&gt;Node39 -->
<g id="edge17_Node000001_Node000039" class="edge">
<title>Node1&#45;&gt;Node39</title>
<g id="a_edge17_Node000001_Node000039"><a xlink:title=" ">
<path fill="none" stroke="#63b8ff" d="M89.56,-97.65C109.8,-81.64 143.2,-56.8 175,-40.25 178.26,-38.56 181.65,-36.92 185.12,-35.36"/>
<polygon fill="#63b8ff" stroke="#63b8ff" points="186.41,-38.62 194.25,-31.49 183.68,-32.17 186.41,-38.62"/>
</a>
</g>
</g>
<!-- Node3 -->
<g id="Node000003" class="node">
<title>Node3</title>
<g id="a_Node000003"><a xlink:href="classjuce_1_1MessageManager.html#afcdd74093b97dc37b02c91e0e413a15c" target="_top" xlink:title=" ">
<polygon fill="white" stroke="#666666" points="477.38,-244.5 361.62,-244.5 361.62,-214 477.38,-214 477.38,-244.5"/>
<text xml:space="preserve" text-anchor="start" x="369.62" y="-231" font-family="Helvetica,sans-Serif" font-size="10.00">juce::MessageManager</text>
<text xml:space="preserve" text-anchor="middle" x="419.5" y="-219.75" font-family="Helvetica,sans-Serif" font-size="10.00">::getInstance</text>
</a>
</g>
</g>
<!-- Node2&#45;&gt;Node3 -->
<g id="edge2_Node000002_Node000003" class="edge">
<title>Node2&#45;&gt;Node3</title>
<g id="a_edge2_Node000002_Node000003"><a xlink:title=" ">
<path fill="none" stroke="#63b8ff" d="M314.37,-229.25C326.03,-229.25 338.14,-229.25 349.8,-229.25"/>
<polygon fill="#63b8ff" stroke="#63b8ff" points="349.75,-232.75 359.75,-229.25 349.75,-225.75 349.75,-232.75"/>
</a>
</g>
</g>
<!-- Node3&#45;&gt;Node3 -->
<g id="edge5_Node000003_Node000003" class="edge">
<title>Node3&#45;&gt;Node3</title>
<g id="a_edge5_Node000003_Node000003"><a xlink:title=" ">
<path fill="none" stroke="#63b8ff" d="M388.49,-244.99C382.16,-254.06 392.5,-262.5 419.5,-262.5 434.27,-262.5 444.05,-259.97 448.85,-256.2"/>
<polygon fill="#63b8ff" stroke="#63b8ff" points="452.28,-256.89 450.29,-246.48 445.36,-255.86 452.28,-256.89"/>
</a>
</g>
</g>
<!-- Node4 -->
<g id="Node000004" class="node">
<title>Node4</title>
<g id="a_Node000004"><a xlink:href="classjuce_1_1MessageManager.html#a307f6cb1d2ae6a8a726eeaaf985238fc" target="_top" xlink:title=" ">
<polygon fill="#fff0f0" stroke="red" points="679,-282.5 525,-282.5 525,-252 679,-252 679,-282.5"/>
<text xml:space="preserve" text-anchor="start" x="533" y="-269" font-family="Helvetica,sans-Serif" font-size="10.00">juce::MessageManager</text>
<text xml:space="preserve" text-anchor="middle" x="602" y="-257.75" font-family="Helvetica,sans-Serif" font-size="10.00">::doPlatformSpecificInitialisation</text>
</a>
</g>
</g>
<!-- Node3&#45;&gt;Node4 -->
<g id="edge3_Node000003_Node000004" class="edge">
<title>Node3&#45;&gt;Node4</title>
<g id="a_edge3_Node000003_Node000004"><a xlink:title=" ">
<path fill="none" stroke="#63b8ff" d="M477.61,-241.27C489.59,-243.8 502.48,-246.51 515.25,-249.2"/>
<polygon fill="#63b8ff" stroke="#63b8ff" points="514.42,-252.6 524.93,-251.24 515.87,-245.75 514.42,-252.6"/>
</a>
</g>
</g>
<!-- Node8 -->
<g id="Node000008" class="node">
<title>Node8</title>
<g id="a_Node000008"><a xlink:href="classjuce_1_1MessageManager.html#af6ce7f376d200166069319402b7a18d0" target="_top" xlink:title=" ">
<polygon fill="#fff0f0" stroke="red" points="659.88,-215.5 544.12,-215.5 544.12,-185 659.88,-185 659.88,-215.5"/>
<text xml:space="preserve" text-anchor="start" x="552.12" y="-202" font-family="Helvetica,sans-Serif" font-size="10.00">juce::MessageManager</text>
<text xml:space="preserve" text-anchor="middle" x="602" y="-190.75" font-family="Helvetica,sans-Serif" font-size="10.00">::MessageManager</text>
</a>
</g>
</g>
<!-- Node3&#45;&gt;Node8 -->
<g id="edge6_Node000003_Node000008" class="edge">
<title>Node3&#45;&gt;Node8</title>
<g id="a_edge6_Node000003_Node000008"><a xlink:title=" ">
<path fill="none" stroke="#63b8ff" d="M477.61,-220.07C494.98,-217.28 514.24,-214.19 532.29,-211.29"/>
<polygon fill="#63b8ff" stroke="#63b8ff" points="532.83,-214.75 542.15,-209.71 531.72,-207.84 532.83,-214.75"/>
</a>
</g>
</g>
<!-- Node4&#45;&gt;Node4 -->
<g id="edge4_Node000004_Node000004" class="edge">
<title>Node4&#45;&gt;Node4</title>
<g id="a_edge4_Node000004_Node000004"><a xlink:title=" ">
<path fill="none" stroke="#63b8ff" d="M575.04,-282.99C569.54,-292.06 578.53,-300.5 602,-300.5 614.84,-300.5 623.34,-297.97 627.51,-294.2"/>
<polygon fill="#63b8ff" stroke="#63b8ff" points="630.96,-294.85 628.76,-284.49 624.01,-293.96 630.96,-294.85"/>
</a>
</g>
</g>
<!-- Node8&#45;&gt;Node8 -->
<g id="edge7_Node000008_Node000008" class="edge">
<title>Node8&#45;&gt;Node8</title>
<g id="a_edge7_Node000008_Node000008"><a xlink:title=" ">
<path fill="none" stroke="#63b8ff" d="M575.04,-215.99C569.54,-225.06 578.53,-233.5 602,-233.5 614.84,-233.5 623.34,-230.97 627.51,-227.2"/>
<polygon fill="#63b8ff" stroke="#63b8ff" points="630.96,-227.85 628.76,-217.49 624.01,-226.96 630.96,-227.85"/>
</a>
</g>
</g>
<!-- Node11&#45;&gt;Node11 -->
<g id="edge9_Node000011_Node000011" class="edge">
<title>Node11&#45;&gt;Node11</title>
<g id="a_edge9_Node000011_Node000011"><a xlink:title=" ">
<path fill="none" stroke="#63b8ff" d="M213.49,-177.99C207.16,-187.06 217.5,-195.5 244.5,-195.5 259.27,-195.5 269.05,-192.97 273.85,-189.2"/>
<polygon fill="#63b8ff" stroke="#63b8ff" points="277.28,-189.89 275.29,-179.48 270.36,-188.86 277.28,-189.89"/>
</a>
</g>
</g>
<!-- Node13 -->
<g id="Node000013" class="node">
<title>Node13</title>
<g id="a_Node000013"><a xlink:href="classjuce_1_1HWNDComponentPeer.html#adb6d73dee7944415fe0c7088737c5c66" target="_top" xlink:title=" ">
<polygon fill="white" stroke="#666666" points="489,-147.5 350,-147.5 350,-117 489,-117 489,-147.5"/>
<text xml:space="preserve" text-anchor="start" x="358" y="-134" font-family="Helvetica,sans-Serif" font-size="10.00">juce::HWNDComponentPeer</text>
<text xml:space="preserve" text-anchor="middle" x="419.5" y="-122.75" font-family="Helvetica,sans-Serif" font-size="10.00">::isMinimised</text>
</a>
</g>
</g>
<!-- Node12&#45;&gt;Node13 -->
<g id="edge11_Node000012_Node000013" class="edge">
<title>Node12&#45;&gt;Node13</title>
<g id="a_edge11_Node000012_Node000013"><a xlink:title=" ">
<path fill="none" stroke="#63b8ff" d="M314.37,-120.81C322.25,-121.68 330.33,-122.57 338.34,-123.45"/>
<polygon fill="#63b8ff" stroke="#63b8ff" points="337.76,-126.9 348.08,-124.52 338.52,-119.94 337.76,-126.9"/>
</a>
</g>
</g>
<!-- Node14 -->
<g id="Node000014" class="node">
<title>Node14</title>
<g id="a_Node000014"><a xlink:href="swell-wnd-generic_8cpp.html#af4f4dccd0327e4183f14e6610f987144" target="_top" xlink:title=" ">
<polygon fill="white" stroke="#666666" points="457.12,-98.88 381.88,-98.88 381.88,-79.62 457.12,-79.62 457.12,-98.88"/>
<text xml:space="preserve" text-anchor="middle" x="419.5" y="-85.38" font-family="Helvetica,sans-Serif" font-size="10.00">ShowWindow</text>
</a>
</g>
</g>
<!-- Node12&#45;&gt;Node14 -->
<g id="edge12_Node000012_Node000014" class="edge">
<title>Node12&#45;&gt;Node14</title>
<g id="a_edge12_Node000012_Node000014"><a xlink:title=" ">
<path fill="none" stroke="#63b8ff" d="M314.37,-103.7C333.23,-101.08 353.26,-98.3 370.66,-95.89"/>
<polygon fill="#63b8ff" stroke="#63b8ff" points="370.75,-99.41 380.18,-94.57 369.79,-92.47 370.75,-99.41"/>
</a>
</g>
</g>
<!-- Node15 -->
<g id="Node000015" class="node">
<title>Node15</title>
<g id="a_Node000015"><a xlink:href="swell-wnd-generic_8cpp.html#ae0ccac6023fe368a0247b9e9e5f44c90" target="_top" xlink:title=" ">
<polygon fill="#fff0f0" stroke="red" points="793.25,-80.88 715,-80.88 715,-61.62 793.25,-61.62 793.25,-80.88"/>
<text xml:space="preserve" text-anchor="middle" x="754.12" y="-67.38" font-family="Helvetica,sans-Serif" font-size="10.00">InvalidateRect</text>
</a>
</g>
</g>
<!-- Node14&#45;&gt;Node15 -->
<g id="edge13_Node000014_Node000015" class="edge">
<title>Node14&#45;&gt;Node15</title>
<g id="a_edge13_Node000014_Node000015"><a xlink:title=" ">
<path fill="none" stroke="#63b8ff" d="M457.44,-98.88C508.11,-110.54 601.69,-126.47 679,-108.25 696.51,-104.12 714.61,-95.19 728.54,-87.14"/>
<polygon fill="#63b8ff" stroke="#63b8ff" points="730.26,-90.19 737.01,-82.03 726.64,-84.2 730.26,-90.19"/>
</a>
</g>
</g>
<!-- Node19 -->
<g id="Node000019" class="node">
<title>Node19</title>
<g id="a_Node000019"><a xlink:href="swell-wnd-generic_8cpp.html#a373c961237b825d6241ff3b2807ac807" target="_top" xlink:title=" ">
<polygon fill="#fff0f0" stroke="red" points="659.12,-98.88 544.88,-98.88 544.88,-79.62 659.12,-79.62 659.12,-98.88"/>
<text xml:space="preserve" text-anchor="middle" x="602" y="-85.38" font-family="Helvetica,sans-Serif" font-size="10.00">SetForegroundWindow</text>
</a>
</g>
</g>
<!-- Node14&#45;&gt;Node19 -->
<g id="edge14_Node000014_Node000019" class="edge">
<title>Node14&#45;&gt;Node19</title>
<g id="a_edge14_Node000014_Node000019"><a xlink:title=" ">
<path fill="none" stroke="#63b8ff" d="M457.46,-89.25C479.29,-89.25 507.61,-89.25 533.31,-89.25"/>
<polygon fill="#63b8ff" stroke="#63b8ff" points="533.01,-92.75 543.01,-89.25 533.01,-85.75 533.01,-92.75"/>
</a>
</g>
</g>
<!-- Node35 -->
<g id="Node000035" class="node">
<title>Node35</title>
<g id="a_Node000035"><a xlink:href="swell-generic-headless_8cpp.html#a70f7765e60e4e52b3ba2752580765180" target="_top" xlink:title=" ">
<polygon fill="#fff0f0" stroke="red" points="665.5,-61.88 538.5,-61.88 538.5,-42.62 665.5,-42.62 665.5,-61.88"/>
<text xml:space="preserve" text-anchor="middle" x="602" y="-48.38" font-family="Helvetica,sans-Serif" font-size="10.00">swell_oswindow_manage</text>
</a>
</g>
</g>
<!-- Node14&#45;&gt;Node35 -->
<g id="edge15_Node000014_Node000035" class="edge">
<title>Node14&#45;&gt;Node35</title>
<g id="a_edge15_Node000014_Node000035"><a xlink:title=" ">
<path fill="none" stroke="#63b8ff" d="M457.46,-81.67C481.39,-76.77 513.11,-70.27 540.65,-64.62"/>
<polygon fill="#63b8ff" stroke="#63b8ff" points="541.18,-68.08 550.28,-62.65 539.78,-61.23 541.18,-68.08"/>
</a>
</g>
</g>
<!-- Node40 -->
<g id="Node000040" class="node">
<title>Node40</title>
<g id="a_Node000040"><a xlink:href="namespacejuce.html#a3b9ba83cebf088fed76410d611ac6a88" target="_top" xlink:title=" ">
<polygon fill="white" stroke="#666666" points="477.75,-24.88 361.25,-24.88 361.25,-5.63 477.75,-5.63 477.75,-24.88"/>
<text xml:space="preserve" text-anchor="middle" x="419.5" y="-11.38" font-family="Helvetica,sans-Serif" font-size="10.00">juce::setWindowZOrder</text>
</a>
</g>
</g>
<!-- Node39&#45;&gt;Node40 -->
<g id="edge18_Node000039_Node000040" class="edge">
<title>Node39&#45;&gt;Node40</title>
<g id="a_edge18_Node000039_Node000040"><a xlink:title=" ">
<path fill="none" stroke="#63b8ff" d="M314.37,-15.25C325.96,-15.25 337.99,-15.25 349.58,-15.25"/>
<polygon fill="#63b8ff" stroke="#63b8ff" points="349.48,-18.75 359.48,-15.25 349.48,-11.75 349.48,-18.75"/>
</a>
</g>
</g>
<!-- Node40&#45;&gt;Node40 -->
<g id="edge21_Node000040_Node000040" class="edge">
<title>Node40&#45;&gt;Node40</title>
<g id="a_edge21_Node000040_Node000040"><a xlink:title=" ">
<path fill="none" stroke="#63b8ff" d="M392.1,-25.16C379.61,-33.77 388.74,-42.88 419.5,-42.88 436.8,-42.88 447.26,-39.99 450.88,-35.94"/>
<polygon fill="#63b8ff" stroke="#63b8ff" points="454.17,-34.75 447.42,-26.58 447.6,-37.18 454.17,-34.75"/>
</a>
</g>
</g>
<!-- Node41 -->
<g id="Node000041" class="node">
<title>Node41</title>
<g id="a_Node000041"><a xlink:href="swell-wnd-generic_8cpp.html#a83ecee2fcd32e34a67d32aef2af050e2" target="_top" xlink:title=" ">
<polygon fill="#fff0f0" stroke="red" points="643.38,-24.88 560.62,-24.88 560.62,-5.63 643.38,-5.63 643.38,-24.88"/>
<text xml:space="preserve" text-anchor="middle" x="602" y="-11.38" font-family="Helvetica,sans-Serif" font-size="10.00">SetWindowPos</text>
</a>
</g>
</g>
<!-- Node40&#45;&gt;Node41 -->
<g id="edge19_Node000040_Node000041" class="edge">
<title>Node40&#45;&gt;Node41</title>
<g id="a_edge19_Node000040_Node000041"><a xlink:title=" ">
<path fill="none" stroke="#63b8ff" d="M478.11,-15.25C500.86,-15.25 526.82,-15.25 548.99,-15.25"/>
<polygon fill="#63b8ff" stroke="#63b8ff" points="548.69,-18.75 558.69,-15.25 548.69,-11.75 548.69,-18.75"/>
</a>
</g>
</g>
<!-- Node41&#45;&gt;Node15 -->
<g id="edge20_Node000041_Node000015" class="edge">
<title>Node41&#45;&gt;Node15</title>
<g id="a_edge20_Node000041_Node000015"><a xlink:title=" ">
<path fill="none" stroke="#63b8ff" d="M643.77,-23C655.32,-25.71 667.8,-29.12 679,-33.25 695.33,-39.27 712.68,-48.02 726.49,-55.61"/>
<polygon fill="#63b8ff" stroke="#63b8ff" points="724.54,-58.53 734.97,-60.38 727.97,-52.43 724.54,-58.53"/>
</a>
</g>
</g>
</g>
</svg>
