<?xml version="1.0" encoding="UTF-8" standalone="no"?>
<!DOCTYPE svg PUBLIC "-//W3C//DTD SVG 1.1//EN"
 "http://www.w3.org/Graphics/SVG/1.1/DTD/svg11.dtd">
<!-- Generated by graphviz version 14.0.2 (0)
 -->
<!-- Title: lmms::gui::EffectView::EffectView Pages: 1 -->
<!--zoomable 547 -->

<svg id="main" version="1.1" xmlns="http://www.w3.org/2000/svg" xmlns:xlink="http://www.w3.org/1999/xlink" xml:space="preserve" onload="init(evt)">

<style type="text/css"><![CDATA[
.node, .edge {opacity: 0.7;}
.node.selected, .edge.selected {opacity: 1;}
.edge:hover path { stroke: red; }
.edge:hover polygon { stroke: red; fill: red; }
]]></style>

<defs>
  <circle id="rim" cx="0" cy="0" r="7"/>
  <circle id="rim2" cx="0" cy="0" r="3.5"/>
  <g id="zoomPlus">
    <use xlink:href="#rim" fill="#404040"><set attributeName="fill" to="#808080" begin="zoomplus.mouseover" end="zoomplus.mouseout"/></use>
    <path d="M-4,0h8M0,-4v8" fill="none" stroke="white" stroke-width="1.5" pointer-events="none"/>
  </g>
  <g id="zoomMin">
    <use xlink:href="#rim" fill="#404040"><set attributeName="fill" to="#808080" begin="zoomminus.mouseover" end="zoomminus.mouseout"/></use>
    <path d="M-4,0h8" fill="none" stroke="white" stroke-width="1.5" pointer-events="none"/>
  </g>
  <g id="arrowUp" transform="translate(30 24)">
    <use xlink:href="#rim"/>
    <path pointer-events="none" fill="none" stroke="white" stroke-width="1.5" d="M0,-3.0v7 M-2.5,-0.5L0,-3.0L2.5,-0.5"/>
  </g>
  <g id="arrowRight" transform="rotate(90) translate(36 -43)">
    <use xlink:href="#rim"/>
    <path pointer-events="none" fill="none" stroke="white" stroke-width="1.5" d="M0,-3.0v7 M-2.5,-0.5L0,-3.0L2.5,-0.5"/>
  </g>
  <g id="arrowDown" transform="rotate(180) translate(-30 -48)">
    <use xlink:href="#rim"/>
    <path pointer-events="none" fill="none" stroke="white" stroke-width="1.5" d="M0,-3.0v7 M-2.5,-0.5L0,-3.0L2.5,-0.5"/>
  </g>
  <g id="arrowLeft" transform="rotate(270) translate(-36 17)">
    <use xlink:href="#rim"/>
    <path pointer-events="none" fill="none" stroke="white" stroke-width="1.5" d="M0,-3.0v7 M-2.5,-0.5L0,-3.0L2.5,-0.5"/>
  </g>
  <g id="resetDef">
    <use xlink:href="#rim2" fill="#404040"><set attributeName="fill" to="#808080" begin="reset.mouseover" end="reset.mouseout"/></use>
  </g>
</defs>
<script type="application/ecmascript">
var viewWidth = 748;
var viewHeight = 547;
var sectionId = 'dynsection-2';
</script>
<script type="application/ecmascript" xlink:href="svg.min.js"/>
<svg id="graph" class="graph">
<g id="viewport">
<title>lmms::gui::EffectView::EffectView</title>
<!-- Node1 -->
<g id="Node000001" class="node">
<title>Node1</title>
<g id="a_Node000001"><a xlink:title=" ">
<polygon fill="#999999" stroke="#666666" points="108.25,-316.5 0,-316.5 0,-286 108.25,-286 108.25,-316.5"/>
<text xml:space="preserve" text-anchor="start" x="8" y="-303" font-family="Helvetica,sans-Serif" font-size="10.00">lmms::gui::EffectView</text>
<text xml:space="preserve" text-anchor="middle" x="54.12" y="-291.75" font-family="Helvetica,sans-Serif" font-size="10.00">::EffectView</text>
</a>
</g>
</g>
<!-- Node2 -->
<g id="Node000002" class="node">
<title>Node2</title>
<g id="a_Node000002"><a xlink:href="classlmms_1_1gui_1_1MainWindow.html#a828627e96cbb8e5624d266597475fcdf" target="_top" xlink:title=" ">
<polygon fill="white" stroke="#666666" points="277.62,-538.5 160.38,-538.5 160.38,-508 277.62,-508 277.62,-538.5"/>
<text xml:space="preserve" text-anchor="start" x="168.38" y="-525" font-family="Helvetica,sans-Serif" font-size="10.00">lmms::gui::MainWindow</text>
<text xml:space="preserve" text-anchor="middle" x="219" y="-513.75" font-family="Helvetica,sans-Serif" font-size="10.00">::addWindowedWidget</text>
</a>
</g>
</g>
<!-- Node1&#45;&gt;Node2 -->
<g id="edge1_Node000001_Node000002" class="edge">
<title>Node1&#45;&gt;Node2</title>
<g id="a_edge1_Node000001_Node000002"><a xlink:title=" ">
<path fill="none" stroke="#63b8ff" d="M57.73,-316.9C64.73,-354.05 87.43,-448.27 144.25,-499.25 146.16,-500.97 148.2,-502.56 150.34,-504.04"/>
<polygon fill="#63b8ff" stroke="#63b8ff" points="148.51,-507.03 158.91,-509.06 152.05,-500.99 148.51,-507.03"/>
</a>
</g>
</g>
<!-- Node3 -->
<g id="Node000003" class="node">
<title>Node3</title>
<g id="a_Node000003"><a xlink:href="namespacelmms_1_1gui.html#af0fe77163df1b7648a2b00a5d289ec7c" target="_top" xlink:title=" ">
<polygon fill="white" stroke="#666666" points="293.75,-489.88 144.25,-489.88 144.25,-470.62 293.75,-470.62 293.75,-489.88"/>
<text xml:space="preserve" text-anchor="middle" x="219" y="-476.38" font-family="Helvetica,sans-Serif" font-size="10.00">lmms::gui::adjustedToPixelSize</text>
</a>
</g>
</g>
<!-- Node1&#45;&gt;Node3 -->
<g id="edge2_Node000001_Node000003" class="edge">
<title>Node1&#45;&gt;Node3</title>
<g id="a_edge2_Node000001_Node000003"><a xlink:title=" ">
<path fill="none" stroke="#63b8ff" d="M59.89,-316.96C70.14,-348.14 97.25,-418.1 144.25,-456.25 148.77,-459.92 153.87,-463.04 159.23,-465.68"/>
<polygon fill="#63b8ff" stroke="#63b8ff" points="157.79,-468.87 168.36,-469.61 160.56,-462.44 157.79,-468.87"/>
</a>
</g>
</g>
<!-- Node4 -->
<g id="Node000004" class="node">
<title>Node4</title>
<g id="a_Node000004"><a xlink:href="classlmms_1_1gui_1_1EffectView.html#ac7ab5adee43e258a3aa8c0f4a7ecb168" target="_top" xlink:title=" ">
<polygon fill="white" stroke="#666666" points="273.12,-414.5 164.88,-414.5 164.88,-384 273.12,-384 273.12,-414.5"/>
<text xml:space="preserve" text-anchor="start" x="172.88" y="-401" font-family="Helvetica,sans-Serif" font-size="10.00">lmms::gui::EffectView</text>
<text xml:space="preserve" text-anchor="middle" x="219" y="-389.75" font-family="Helvetica,sans-Serif" font-size="10.00">::closeEffects</text>
</a>
</g>
</g>
<!-- Node1&#45;&gt;Node4 -->
<g id="edge3_Node000001_Node000004" class="edge">
<title>Node1&#45;&gt;Node4</title>
<g id="a_edge3_Node000001_Node000004"><a xlink:title=" ">
<path fill="none" stroke="#63b8ff" d="M70.58,-316.89C87.41,-333.16 115.74,-358.43 144.25,-374.25 147.44,-376.02 150.78,-377.7 154.2,-379.28"/>
<polygon fill="#63b8ff" stroke="#63b8ff" points="152.67,-382.43 163.24,-383.14 155.42,-375.99 152.67,-382.43"/>
</a>
</g>
</g>
<!-- Node5 -->
<g id="Node000005" class="node">
<title>Node5</title>
<g id="a_Node000005"><a xlink:href="classlmms_1_1Effect.html#a07992ffbbfdbd817aa1acde056ec6930" target="_top" xlink:title=" ">
<polygon fill="white" stroke="#666666" points="438.75,-408.88 330.5,-408.88 330.5,-389.62 438.75,-389.62 438.75,-408.88"/>
<text xml:space="preserve" text-anchor="middle" x="384.62" y="-395.38" font-family="Helvetica,sans-Serif" font-size="10.00">lmms::Effect::controls</text>
</a>
</g>
</g>
<!-- Node1&#45;&gt;Node5 -->
<g id="edge12_Node000001_Node000005" class="edge">
<title>Node1&#45;&gt;Node5</title>
<g id="a_edge12_Node000001_Node000005"><a xlink:title=" ">
<path fill="none" stroke="#63b8ff" d="M60.98,-316.9C72.24,-344.41 99.81,-400.68 144.25,-423.25 211.27,-457.29 302.37,-431.6 350.57,-413.35"/>
<polygon fill="#63b8ff" stroke="#63b8ff" points="351.58,-416.71 359.61,-409.8 349.02,-410.19 351.58,-416.71"/>
</a>
</g>
</g>
<!-- Node77 -->
<g id="Node000077" class="node">
<title>Node77</title>
<g id="a_Node000077"><a xlink:href="classlmms_1_1gui_1_1EffectView.html#ae50e8e889cd0498acf7c4da890c8e913" target="_top" xlink:title=" ">
<polygon fill="white" stroke="#666666" points="438.75,-298.5 330.5,-298.5 330.5,-268 438.75,-268 438.75,-298.5"/>
<text xml:space="preserve" text-anchor="start" x="338.5" y="-285" font-family="Helvetica,sans-Serif" font-size="10.00">lmms::gui::EffectView</text>
<text xml:space="preserve" text-anchor="middle" x="384.62" y="-273.75" font-family="Helvetica,sans-Serif" font-size="10.00">::effect</text>
</a>
</g>
</g>
<!-- Node1&#45;&gt;Node77 -->
<g id="edge18_Node000001_Node000077" class="edge">
<title>Node1&#45;&gt;Node77</title>
<g id="a_edge18_Node000001_Node000077"><a xlink:title=" ">
<path fill="none" stroke="#63b8ff" d="M104.15,-285.57C117.06,-282.13 131.06,-278.99 144.25,-277.25 203.01,-269.48 270.56,-272.22 318.89,-276.18"/>
<polygon fill="#63b8ff" stroke="#63b8ff" points="318.36,-279.65 328.62,-277.02 318.96,-272.67 318.36,-279.65"/>
</a>
</g>
</g>
<!-- Node81 -->
<g id="Node000081" class="node">
<title>Node81</title>
<g id="a_Node000081"><a xlink:href="classlmms_1_1EffectControls.html#a01fc57d1b8b04e88116f67ddc083a222" target="_top" xlink:title=" ">
<polygon fill="white" stroke="#666666" points="271.62,-316.5 166.38,-316.5 166.38,-286 271.62,-286 271.62,-316.5"/>
<text xml:space="preserve" text-anchor="start" x="174.38" y="-303" font-family="Helvetica,sans-Serif" font-size="10.00">lmms::EffectControls</text>
<text xml:space="preserve" text-anchor="middle" x="219" y="-291.75" font-family="Helvetica,sans-Serif" font-size="10.00">::createView</text>
</a>
</g>
</g>
<!-- Node1&#45;&gt;Node81 -->
<g id="edge13_Node000001_Node000081" class="edge">
<title>Node1&#45;&gt;Node81</title>
<g id="a_edge13_Node000001_Node000081"><a xlink:title=" ">
<path fill="none" stroke="#63b8ff" d="M108.46,-301.25C123.17,-301.25 139.28,-301.25 154.5,-301.25"/>
<polygon fill="#63b8ff" stroke="#63b8ff" points="154.42,-304.75 164.42,-301.25 154.42,-297.75 154.42,-304.75"/>
</a>
</g>
</g>
<!-- Node82 -->
<g id="Node000082" class="node">
<title>Node82</title>
<g id="a_Node000082"><a xlink:href="classlmms_1_1gui_1_1EffectView.html#af58b73d34a4023d0ac3a22ee94dbd3ab" target="_top" xlink:title=" ">
<polygon fill="white" stroke="#666666" points="273.12,-365.5 164.88,-365.5 164.88,-335 273.12,-335 273.12,-365.5"/>
<text xml:space="preserve" text-anchor="start" x="172.88" y="-352" font-family="Helvetica,sans-Serif" font-size="10.00">lmms::gui::EffectView</text>
<text xml:space="preserve" text-anchor="middle" x="219" y="-340.75" font-family="Helvetica,sans-Serif" font-size="10.00">::editControls</text>
</a>
</g>
</g>
<!-- Node1&#45;&gt;Node82 -->
<g id="edge14_Node000001_Node000082" class="edge">
<title>Node1&#45;&gt;Node82</title>
<g id="a_edge14_Node000001_Node000082"><a xlink:title=" ">
<path fill="none" stroke="#63b8ff" d="M107.11,-316.89C122.31,-321.46 139.1,-326.51 154.91,-331.27"/>
<polygon fill="#63b8ff" stroke="#63b8ff" points="153.64,-334.54 164.22,-334.07 155.66,-327.84 153.64,-334.54"/>
</a>
</g>
</g>
<!-- Node36 -->
<g id="Node000036" class="node">
<title>Node36</title>
<g id="a_Node000036"><a xlink:href="namespacelmms_1_1gui.html#a0f9bd49bea2bc61619a8b3966223cce5" target="_top" xlink:title=" ">
<polygon fill="#fff0f0" stroke="red" points="265.62,-229.88 172.38,-229.88 172.38,-210.62 265.62,-210.62 265.62,-229.88"/>
<text xml:space="preserve" text-anchor="middle" x="219" y="-216.38" font-family="Helvetica,sans-Serif" font-size="10.00">lmms::gui::getGUI</text>
</a>
</g>
</g>
<!-- Node1&#45;&gt;Node36 -->
<g id="edge19_Node000001_Node000036" class="edge">
<title>Node1&#45;&gt;Node36</title>
<g id="a_edge19_Node000001_Node000036"><a xlink:title=" ">
<path fill="none" stroke="#63b8ff" d="M76.21,-285.58C93.73,-273.11 119.68,-255.87 144.25,-244.25 152.38,-240.4 161.29,-236.93 170.02,-233.9"/>
<polygon fill="#63b8ff" stroke="#63b8ff" points="171.07,-237.24 179.46,-230.77 168.87,-230.59 171.07,-237.24"/>
</a>
</g>
</g>
<!-- Node83 -->
<g id="Node000083" class="node">
<title>Node83</title>
<g id="a_Node000083"><a xlink:href="classlmms_1_1gui_1_1GuiApplication.html#a662943f6246d2b35896c4c7c9277fa3d" target="_top" xlink:title=" ">
<polygon fill="white" stroke="#666666" points="281.38,-192.5 156.62,-192.5 156.62,-162 281.38,-162 281.38,-192.5"/>
<text xml:space="preserve" text-anchor="start" x="164.62" y="-179" font-family="Helvetica,sans-Serif" font-size="10.00">lmms::gui::GuiApplication</text>
<text xml:space="preserve" text-anchor="middle" x="219" y="-167.75" font-family="Helvetica,sans-Serif" font-size="10.00">::mainWindow</text>
</a>
</g>
</g>
<!-- Node1&#45;&gt;Node83 -->
<g id="edge20_Node000001_Node000083" class="edge">
<title>Node1&#45;&gt;Node83</title>
<g id="a_edge20_Node000001_Node000083"><a xlink:title=" ">
<path fill="none" stroke="#63b8ff" d="M65.01,-285.73C79.71,-263.84 109.4,-224.02 144.25,-201.25 146.07,-200.06 147.95,-198.93 149.88,-197.85"/>
<polygon fill="#63b8ff" stroke="#63b8ff" points="151.12,-201.14 158.51,-193.54 147.99,-194.88 151.12,-201.14"/>
</a>
</g>
</g>
<!-- Node84 -->
<g id="Node000084" class="node">
<title>Node84</title>
<g id="a_Node000084"><a xlink:href="classlmms_1_1gui_1_1PluginView.html#a1a6f5a59b22edafb38779cc6c7b95f06" target="_top" xlink:title=" ">
<polygon fill="white" stroke="#666666" points="274.25,-143.5 163.75,-143.5 163.75,-113 274.25,-113 274.25,-143.5"/>
<text xml:space="preserve" text-anchor="start" x="171.75" y="-130" font-family="Helvetica,sans-Serif" font-size="10.00">lmms::gui::PluginView</text>
<text xml:space="preserve" text-anchor="middle" x="219" y="-118.75" font-family="Helvetica,sans-Serif" font-size="10.00">::PluginView</text>
</a>
</g>
</g>
<!-- Node1&#45;&gt;Node84 -->
<g id="edge21_Node000001_Node000084" class="edge">
<title>Node1&#45;&gt;Node84</title>
<g id="a_edge21_Node000001_Node000084"><a xlink:title=" ">
<path fill="none" stroke="#63b8ff" d="M60.3,-285.83C71.11,-255.92 98.92,-189.74 144.25,-153.25 147.09,-150.96 150.16,-148.88 153.36,-146.98"/>
<polygon fill="#63b8ff" stroke="#63b8ff" points="154.71,-150.22 161.99,-142.53 151.5,-144 154.71,-150.22"/>
</a>
</g>
</g>
<!-- Node87 -->
<g id="Node000087" class="node">
<title>Node87</title>
<g id="a_Node000087"><a xlink:href="classlmms_1_1gui_1_1ModelView.html#acee9a5fbac2e45336369560f8905caa7" target="_top" xlink:title=" ">
<polygon fill="white" stroke="#666666" points="273.88,-94.5 164.12,-94.5 164.12,-64 273.88,-64 273.88,-94.5"/>
<text xml:space="preserve" text-anchor="start" x="172.12" y="-81" font-family="Helvetica,sans-Serif" font-size="10.00">lmms::gui::ModelView</text>
<text xml:space="preserve" text-anchor="middle" x="219" y="-69.75" font-family="Helvetica,sans-Serif" font-size="10.00">::setModel</text>
</a>
</g>
</g>
<!-- Node1&#45;&gt;Node87 -->
<g id="edge25_Node000001_Node000087" class="edge">
<title>Node1&#45;&gt;Node87</title>
<g id="a_edge25_Node000001_Node000087"><a xlink:title=" ">
<path fill="none" stroke="#63b8ff" d="M57.8,-285.72C64.94,-248.85 87.93,-155.3 144.25,-104.25 147.19,-101.58 150.43,-99.2 153.86,-97.06"/>
<polygon fill="#63b8ff" stroke="#63b8ff" points="155.42,-100.2 162.6,-92.41 152.13,-94.02 155.42,-100.2"/>
</a>
</g>
</g>
<!-- Node4&#45;&gt;Node5 -->
<g id="edge4_Node000004_Node000005" class="edge">
<title>Node4&#45;&gt;Node5</title>
<g id="a_edge4_Node000004_Node000005"><a xlink:title=" ">
<path fill="none" stroke="#63b8ff" d="M273.58,-399.25C288.06,-399.25 303.89,-399.25 318.91,-399.25"/>
<polygon fill="#63b8ff" stroke="#63b8ff" points="318.69,-402.75 328.69,-399.25 318.69,-395.75 318.69,-402.75"/>
</a>
</g>
</g>
<!-- Node4&#45;&gt;Node77 -->
<g id="edge8_Node000004_Node000077" class="edge">
<title>Node4&#45;&gt;Node77</title>
<g id="a_edge8_Node000004_Node000077"><a xlink:title=" ">
<path fill="none" stroke="#63b8ff" d="M273.36,-385.27C280.53,-382.24 287.55,-378.6 293.75,-374.25 314.72,-359.55 311.93,-347.65 329.75,-329.25 337.48,-321.27 346.46,-313.19 354.85,-306.08"/>
<polygon fill="#63b8ff" stroke="#63b8ff" points="357.01,-308.84 362.47,-299.76 352.54,-303.46 357.01,-308.84"/>
</a>
</g>
</g>
<!-- Node80 -->
<g id="Node000080" class="node">
<title>Node80</title>
<g id="a_Node000080"><a xlink:href="classlmms_1_1EffectControls.html#a997c7dcf9f45015bf7d1c838a22af271" target="_top" xlink:title=" ">
<polygon fill="white" stroke="#666666" points="437.25,-368.5 332,-368.5 332,-338 437.25,-338 437.25,-368.5"/>
<text xml:space="preserve" text-anchor="start" x="340" y="-355" font-family="Helvetica,sans-Serif" font-size="10.00">lmms::EffectControls</text>
<text xml:space="preserve" text-anchor="middle" x="384.62" y="-343.75" font-family="Helvetica,sans-Serif" font-size="10.00">::setViewVisible</text>
</a>
</g>
</g>
<!-- Node4&#45;&gt;Node80 -->
<g id="edge11_Node000004_Node000080" class="edge">
<title>Node4&#45;&gt;Node80</title>
<g id="a_edge11_Node000004_Node000080"><a xlink:title=" ">
<path fill="none" stroke="#63b8ff" d="M273.58,-384.19C288.58,-379.97 305.02,-375.35 320.52,-370.99"/>
<polygon fill="#63b8ff" stroke="#63b8ff" points="321.46,-374.36 330.14,-368.29 319.57,-367.62 321.46,-374.36"/>
</a>
</g>
</g>
<!-- Node6 -->
<g id="Node000006" class="node">
<title>Node6</title>
<g id="a_Node000006"><a xlink:href="classlmms_1_1Effect.html#a48b2935ccf87ccdb457e84dc0e05f777" target="_top" xlink:title=" ">
<polygon fill="#fff0f0" stroke="red" points="734.38,-408.88 635.88,-408.88 635.88,-389.62 734.38,-389.62 734.38,-408.88"/>
<text xml:space="preserve" text-anchor="middle" x="685.12" y="-395.38" font-family="Helvetica,sans-Serif" font-size="10.00">lmms::Effect::Effect</text>
</a>
</g>
</g>
<!-- Node5&#45;&gt;Node6 -->
<g id="edge5_Node000005_Node000006" class="edge">
<title>Node5&#45;&gt;Node6</title>
<g id="a_edge5_Node000005_Node000006"><a xlink:title=" ">
<path fill="none" stroke="#63b8ff" d="M438.99,-399.25C491.02,-399.25 569.99,-399.25 624.16,-399.25"/>
<polygon fill="#63b8ff" stroke="#63b8ff" points="624.15,-402.75 634.15,-399.25 624.15,-395.75 624.15,-402.75"/>
</a>
</g>
</g>
<!-- Node16 -->
<g id="Node000016" class="node">
<title>Node16</title>
<g id="a_Node000016"><a xlink:href="classlmms_1_1Effect.html#a61e04f65a20c051b912f1364934005c0" target="_top" xlink:title=" ">
<polygon fill="#fff0f0" stroke="red" points="594.25,-389.88 475.5,-389.88 475.5,-370.62 594.25,-370.62 594.25,-389.88"/>
<text xml:space="preserve" text-anchor="middle" x="534.88" y="-376.38" font-family="Helvetica,sans-Serif" font-size="10.00">lmms::Effect::instantiate</text>
</a>
</g>
</g>
<!-- Node5&#45;&gt;Node16 -->
<g id="edge6_Node000005_Node000016" class="edge">
<title>Node5&#45;&gt;Node16</title>
<g id="a_edge6_Node000005_Node000016"><a xlink:title=" ">
<path fill="none" stroke="#63b8ff" d="M439.15,-392.39C447.19,-391.36 455.58,-390.28 463.9,-389.22"/>
<polygon fill="#63b8ff" stroke="#63b8ff" points="464.19,-392.71 473.66,-387.97 463.3,-385.77 464.19,-392.71"/>
</a>
</g>
</g>
<!-- Node16&#45;&gt;Node6 -->
<g id="edge7_Node000016_Node000006" class="edge">
<title>Node16&#45;&gt;Node6</title>
<g id="a_edge7_Node000016_Node000006"><a xlink:title=" ">
<path fill="none" stroke="#63b8ff" d="M594.47,-387.76C604.24,-389.01 614.39,-390.31 624.2,-391.57"/>
<polygon fill="#63b8ff" stroke="#63b8ff" points="623.64,-395.03 634,-392.83 624.53,-388.08 623.64,-395.03"/>
</a>
</g>
</g>
<!-- Node78 -->
<g id="Node000078" class="node">
<title>Node78</title>
<g id="a_Node000078"><a xlink:href="classlmms_1_1gui_1_1ModelView.html#ae2777d2efcf0f85a69623a93d574a9d9" target="_top" xlink:title=" ">
<polygon fill="white" stroke="#666666" points="589.75,-273.5 480,-273.5 480,-243 589.75,-243 589.75,-273.5"/>
<text xml:space="preserve" text-anchor="start" x="488" y="-260" font-family="Helvetica,sans-Serif" font-size="10.00">lmms::gui::ModelView</text>
<text xml:space="preserve" text-anchor="middle" x="534.88" y="-248.75" font-family="Helvetica,sans-Serif" font-size="10.00">::castModel</text>
</a>
</g>
</g>
<!-- Node77&#45;&gt;Node78 -->
<g id="edge9_Node000077_Node000078" class="edge">
<title>Node77&#45;&gt;Node78</title>
<g id="a_edge9_Node000077_Node000078"><a xlink:title=" ">
<path fill="none" stroke="#63b8ff" d="M439.15,-274.22C448.79,-272.6 458.94,-270.89 468.86,-269.21"/>
<polygon fill="#63b8ff" stroke="#63b8ff" points="469.16,-272.71 478.44,-267.6 468,-265.81 469.16,-272.71"/>
</a>
</g>
</g>
<!-- Node79 -->
<g id="Node000079" class="node">
<title>Node79</title>
<g id="a_Node000079"><a xlink:href="classlmms_1_1gui_1_1ModelView.html#a327f035b406407a77b1f8fe1e7fdee3f" target="_top" xlink:title=" ">
<polygon fill="white" stroke="#666666" points="740,-202.5 630.25,-202.5 630.25,-172 740,-172 740,-202.5"/>
<text xml:space="preserve" text-anchor="start" x="638.25" y="-189" font-family="Helvetica,sans-Serif" font-size="10.00">lmms::gui::ModelView</text>
<text xml:space="preserve" text-anchor="middle" x="685.12" y="-177.75" font-family="Helvetica,sans-Serif" font-size="10.00">::model</text>
</a>
</g>
</g>
<!-- Node78&#45;&gt;Node79 -->
<g id="edge10_Node000078_Node000079" class="edge">
<title>Node78&#45;&gt;Node79</title>
<g id="a_edge10_Node000078_Node000079"><a xlink:title=" ">
<path fill="none" stroke="#63b8ff" d="M568.41,-242.67C589.77,-232.44 617.94,-218.95 641.14,-207.83"/>
<polygon fill="#63b8ff" stroke="#63b8ff" points="642.54,-211.05 650.05,-203.57 639.52,-204.73 642.54,-211.05"/>
</a>
</g>
</g>
<!-- Node82&#45;&gt;Node5 -->
<g id="edge15_Node000082_Node000005" class="edge">
<title>Node82&#45;&gt;Node5</title>
<g id="a_edge15_Node000082_Node000005"><a xlink:title=" ">
<path fill="none" stroke="#63b8ff" d="M272.22,-365.89C293.69,-372.32 318.29,-379.68 338.91,-385.86"/>
<polygon fill="#63b8ff" stroke="#63b8ff" points="337.87,-389.2 348.46,-388.72 339.88,-382.5 337.87,-389.2"/>
</a>
</g>
</g>
<!-- Node82&#45;&gt;Node77 -->
<g id="edge16_Node000082_Node000077" class="edge">
<title>Node82&#45;&gt;Node77</title>
<g id="a_edge16_Node000082_Node000077"><a xlink:title=" ">
<path fill="none" stroke="#63b8ff" d="M268.68,-334.6C277.1,-331.65 285.72,-328.48 293.75,-325.25 309.85,-318.78 327.2,-310.9 342.32,-303.72"/>
<polygon fill="#63b8ff" stroke="#63b8ff" points="343.52,-307.02 351.02,-299.54 340.49,-300.71 343.52,-307.02"/>
</a>
</g>
</g>
<!-- Node82&#45;&gt;Node80 -->
<g id="edge17_Node000082_Node000080" class="edge">
<title>Node82&#45;&gt;Node80</title>
<g id="a_edge17_Node000082_Node000080"><a xlink:title=" ">
<path fill="none" stroke="#63b8ff" d="M273.58,-351.23C288.58,-351.51 305.02,-351.81 320.52,-352.09"/>
<polygon fill="#63b8ff" stroke="#63b8ff" points="320.02,-355.58 330.09,-352.27 320.15,-348.59 320.02,-355.58"/>
</a>
</g>
</g>
<!-- Node85 -->
<g id="Node000085" class="node">
<title>Node85</title>
<g id="a_Node000085"><a xlink:href="classlmms_1_1gui_1_1ModelView.html#a780137a2876c215debff0c81df4d01bc" target="_top" xlink:title=" ">
<polygon fill="white" stroke="#666666" points="439.5,-202.5 329.75,-202.5 329.75,-172 439.5,-172 439.5,-202.5"/>
<text xml:space="preserve" text-anchor="start" x="337.75" y="-189" font-family="Helvetica,sans-Serif" font-size="10.00">lmms::gui::ModelView</text>
<text xml:space="preserve" text-anchor="middle" x="384.62" y="-177.75" font-family="Helvetica,sans-Serif" font-size="10.00">::ModelView</text>
</a>
</g>
</g>
<!-- Node84&#45;&gt;Node85 -->
<g id="edge22_Node000084_Node000085" class="edge">
<title>Node84&#45;&gt;Node85</title>
<g id="a_edge22_Node000084_Node000085"><a xlink:title=" ">
<path fill="none" stroke="#63b8ff" d="M266.9,-143.88C275.84,-146.93 285.1,-150.15 293.75,-153.25 306.39,-157.78 319.96,-162.82 332.63,-167.61"/>
<polygon fill="#63b8ff" stroke="#63b8ff" points="331.02,-170.74 341.61,-171.01 333.5,-164.19 331.02,-170.74"/>
</a>
</g>
</g>
<!-- Node85&#45;&gt;Node79 -->
<g id="edge23_Node000085_Node000079" class="edge">
<title>Node85&#45;&gt;Node79</title>
<g id="a_edge23_Node000085_Node000079"><a xlink:title=" ">
<path fill="none" stroke="#63b8ff" d="M439.68,-187.25C489.92,-187.25 564.87,-187.25 618.52,-187.25"/>
<polygon fill="#63b8ff" stroke="#63b8ff" points="618.45,-190.75 628.45,-187.25 618.45,-183.75 618.45,-190.75"/>
</a>
</g>
</g>
<!-- Node86 -->
<g id="Node000086" class="node">
<title>Node86</title>
<g id="a_Node000086"><a xlink:href="classlmms_1_1gui_1_1ModelView.html#a20499da452f52175dacea1cb6c129b20" target="_top" xlink:title=" ">
<polygon fill="white" stroke="#666666" points="589.75,-159.5 480,-159.5 480,-129 589.75,-129 589.75,-159.5"/>
<text xml:space="preserve" text-anchor="start" x="488" y="-146" font-family="Helvetica,sans-Serif" font-size="10.00">lmms::gui::ModelView</text>
<text xml:space="preserve" text-anchor="middle" x="534.88" y="-134.75" font-family="Helvetica,sans-Serif" font-size="10.00">::widget</text>
</a>
</g>
</g>
<!-- Node85&#45;&gt;Node86 -->
<g id="edge24_Node000085_Node000086" class="edge">
<title>Node85&#45;&gt;Node86</title>
<g id="a_edge24_Node000085_Node000086"><a xlink:title=" ">
<path fill="none" stroke="#63b8ff" d="M439.57,-171.6C449.07,-168.85 459.05,-165.95 468.82,-163.12"/>
<polygon fill="#63b8ff" stroke="#63b8ff" points="469.64,-166.52 478.27,-160.38 467.69,-159.8 469.64,-166.52"/>
</a>
</g>
</g>
<!-- Node87&#45;&gt;Node79 -->
<g id="edge28_Node000087_Node000079" class="edge">
<title>Node87&#45;&gt;Node79</title>
<g id="a_edge28_Node000087_Node000079"><a xlink:title=" ">
<path fill="none" stroke="#63b8ff" d="M274.15,-78.07C291.87,-77.73 311.65,-77.41 329.75,-77.25 448.84,-76.16 487.31,-67.82 594.25,-120.25 617.91,-131.85 641.68,-149.92 658.83,-164.37"/>
<polygon fill="#63b8ff" stroke="#63b8ff" points="656.15,-166.69 666.01,-170.56 660.72,-161.38 656.15,-166.69"/>
</a>
</g>
</g>
<!-- Node87&#45;&gt;Node86 -->
<g id="edge30_Node000087_Node000086" class="edge">
<title>Node87&#45;&gt;Node86</title>
<g id="a_edge30_Node000087_Node000086"><a xlink:title=" ">
<path fill="none" stroke="#63b8ff" d="M270.51,-94.86C278.4,-97.73 286.37,-100.89 293.75,-104.25 310.61,-111.93 312.11,-119.59 329.75,-125.25 374.57,-139.63 427.56,-144.22 468.32,-145.3"/>
<polygon fill="#63b8ff" stroke="#63b8ff" points="468.16,-148.8 478.23,-145.49 468.3,-141.8 468.16,-148.8"/>
</a>
</g>
</g>
<!-- Node88 -->
<g id="Node000088" class="node">
<title>Node88</title>
<g id="a_Node000088"><a xlink:href="classlmms_1_1gui_1_1ModelView.html#a786dd25d7da672c17c0b6e69962e9e73" target="_top" xlink:title=" ">
<polygon fill="white" stroke="#666666" points="439.5,-116.5 329.75,-116.5 329.75,-86 439.5,-86 439.5,-116.5"/>
<text xml:space="preserve" text-anchor="start" x="337.75" y="-103" font-family="Helvetica,sans-Serif" font-size="10.00">lmms::gui::ModelView</text>
<text xml:space="preserve" text-anchor="middle" x="384.62" y="-91.75" font-family="Helvetica,sans-Serif" font-size="10.00">::doConnections</text>
</a>
</g>
</g>
<!-- Node87&#45;&gt;Node88 -->
<g id="edge26_Node000087_Node000088" class="edge">
<title>Node87&#45;&gt;Node88</title>
<g id="a_edge26_Node000087_Node000088"><a xlink:title=" ">
<path fill="none" stroke="#63b8ff" d="M274.03,-86.51C288.2,-88.42 303.63,-90.49 318.32,-92.47"/>
<polygon fill="#63b8ff" stroke="#63b8ff" points="317.49,-95.89 327.87,-93.75 318.43,-88.95 317.49,-95.89"/>
</a>
</g>
</g>
<!-- Node89 -->
<g id="Node000089" class="node">
<title>Node89</title>
<g id="a_Node000089"><a xlink:href="classlmms_1_1gui_1_1ModelView.html#acbf4188ed972599141cb3e93b161cb16" target="_top" xlink:title=" ">
<polygon fill="white" stroke="#666666" points="439.5,-30.5 329.75,-30.5 329.75,0 439.5,0 439.5,-30.5"/>
<text xml:space="preserve" text-anchor="start" x="337.75" y="-17" font-family="Helvetica,sans-Serif" font-size="10.00">lmms::gui::ModelView</text>
<text xml:space="preserve" text-anchor="middle" x="384.62" y="-5.75" font-family="Helvetica,sans-Serif" font-size="10.00">::modelChanged</text>
</a>
</g>
</g>
<!-- Node87&#45;&gt;Node89 -->
<g id="edge29_Node000087_Node000089" class="edge">
<title>Node87&#45;&gt;Node89</title>
<g id="a_edge29_Node000087_Node000089"><a xlink:title=" ">
<path fill="none" stroke="#63b8ff" d="M260.03,-63.59C282.02,-54.99 309.51,-44.24 332.98,-35.06"/>
<polygon fill="#63b8ff" stroke="#63b8ff" points="334,-38.42 342.03,-31.52 331.45,-31.9 334,-38.42"/>
</a>
</g>
</g>
<!-- Node88&#45;&gt;Node86 -->
<g id="edge27_Node000088_Node000086" class="edge">
<title>Node88&#45;&gt;Node86</title>
<g id="a_edge27_Node000088_Node000086"><a xlink:title=" ">
<path fill="none" stroke="#63b8ff" d="M439.57,-116.9C449.07,-119.65 459.05,-122.55 468.82,-125.38"/>
<polygon fill="#63b8ff" stroke="#63b8ff" points="467.69,-128.7 478.27,-128.12 469.64,-121.98 467.69,-128.7"/>
</a>
</g>
</g>
</g>
</svg>

<g id="navigator" transform="translate(0 0)" fill="#404254">
  <rect fill="#f2f5e9" fill-opacity="0.5" stroke="#606060" stroke-width=".5" x="0" y="0" width="60" height="60"/>
  <use id="zoomplus" xlink:href="#zoomPlus" x="17" y="9" onmousedown="handleZoom(evt,'in')"/>
  <use id="zoomminus" xlink:href="#zoomMin" x="42" y="9" onmousedown="handleZoom(evt,'out')"/>
  <use id="reset" xlink:href="#resetDef" x="30" y="36" onmousedown="handleReset()"/>
   <use id="arrowup" xlink:href="#arrowUp" x="0" y="0" onmousedown="handlePan(0,-1)"/>
  <use id="arrowright" xlink:href="#arrowRight" x="0" y="0" onmousedown="handlePan(1,0)"/>
  <use id="arrowdown" xlink:href="#arrowDown" x="0" y="0" onmousedown="handlePan(0,1)"/>
  <use id="arrowleft" xlink:href="#arrowLeft" x="0" y="0" onmousedown="handlePan(-1,0)"/>
</g>
<svg viewBox="0 0 15 15" width="100%" height="30px" preserveAspectRatio="xMaxYMin meet">
 <g id="arrow_out" transform="scale(0.3 0.3)">
  <a xlink:href="classlmms_1_1gui_1_1EffectView_a2b1e3b6ea46ac5b70d2ca94271a35678_cgraph_org.svg" target="_base">
   <rect id="button" ry="5" rx="5" y="6" x="6" height="38" width="38"
        fill="#f2f5e9" fill-opacity="0.5" stroke="#606060" stroke-width="1.0"/>
   <path id="arrow"
     d="M 11.500037,31.436501 C 11.940474,20.09759 22.043105,11.32322 32.158766,21.979434 L 37.068811,17.246167 C 37.068811,17.246167 37.088388,32 37.088388,32 L 22.160133,31.978069 C 22.160133,31.978069 26.997745,27.140456 26.997745,27.140456 C 18.528582,18.264221 13.291696,25.230495 11.500037,31.436501 z"
     style="fill:#404040;"/>
  </a>
 </g>
</svg>

<style type='text/css'>
<![CDATA[
[data-mouse-over-selected='false'] { opacity: 0.7; }
[data-mouse-over-selected='true']  { opacity: 1.0; }
]]>
</style>
<script type="application/ecmascript"><![CDATA[
document.addEventListener('DOMContentLoaded', (event) => {
  highlightEdges();
  highlightAdjacentNodes();
});
]]></script>
</svg>
