<?xml version="1.0" encoding="UTF-8" standalone="no"?>
<!DOCTYPE svg PUBLIC "-//W3C//DTD SVG 1.1//EN"
 "http://www.w3.org/Graphics/SVG/1.1/DTD/svg11.dtd">
<!-- Generated by graphviz version 14.0.2 (0)
 -->
<!-- Title: Nsfe_Emu::load_ Pages: 1 -->
<svg width="584pt" height="459pt"
 viewBox="0.00 0.00 584.00 459.00" xmlns="http://www.w3.org/2000/svg" xmlns:xlink="http://www.w3.org/1999/xlink">
<g id="graph0" class="graph" transform="scale(1 1) rotate(0) translate(4 454.88)">
<title>Nsfe_Emu::load_</title>
<!-- Node1 -->
<g id="Node000001" class="node">
<title>Node1</title>
<g id="a_Node000001"><a xlink:title=" ">
<polygon fill="#999999" stroke="#666666" points="89.5,-309.25 0,-309.25 0,-290 89.5,-290 89.5,-309.25"/>
<text xml:space="preserve" text-anchor="middle" x="44.75" y="-295.75" font-family="Helvetica,sans-Serif" font-size="10.00">Nsfe_Emu::load_</text>
</a>
</g>
</g>
<!-- Node2 -->
<g id="Node000002" class="node">
<title>Node2</title>
<g id="a_Node000002"><a xlink:href="classNsfe__Emu.html#a14616564d939b0d0ce1662e11dd0b80a" target="_top" xlink:title=" ">
<polygon fill="white" stroke="#666666" points="257.75,-386.25 125.5,-386.25 125.5,-367 257.75,-367 257.75,-386.25"/>
<text xml:space="preserve" text-anchor="middle" x="191.62" y="-372.75" font-family="Helvetica,sans-Serif" font-size="10.00">Nsfe_Emu::disable_playlist</text>
</a>
</g>
</g>
<!-- Node1&#45;&gt;Node2 -->
<g id="edge1_Node000001_Node000002" class="edge">
<title>Node1&#45;&gt;Node2</title>
<g id="a_edge1_Node000001_Node000002"><a xlink:title=" ">
<path fill="none" stroke="#63b8ff" d="M64.69,-309.69C89.42,-322.83 132.94,-345.97 161.78,-361.29"/>
<polygon fill="#63b8ff" stroke="#63b8ff" points="159.87,-364.24 170.34,-365.85 163.16,-358.06 159.87,-364.24"/>
</a>
</g>
</g>
<!-- Node4 -->
<g id="Node000004" class="node">
<title>Node4</title>
<g id="a_Node000004"><a xlink:href="classNsf__Emu.html#ad168ca42d56b2e685d25aad254d78a67" target="_top" xlink:title=" ">
<polygon fill="white" stroke="#666666" points="233.75,-291.25 149.5,-291.25 149.5,-272 233.75,-272 233.75,-291.25"/>
<text xml:space="preserve" text-anchor="middle" x="191.62" y="-277.75" font-family="Helvetica,sans-Serif" font-size="10.00">Nsf_Emu::load_</text>
</a>
</g>
</g>
<!-- Node1&#45;&gt;Node4 -->
<g id="edge3_Node000001_Node000004" class="edge">
<title>Node1&#45;&gt;Node4</title>
<g id="a_edge3_Node000001_Node000004"><a xlink:title=" ">
<path fill="none" stroke="#63b8ff" d="M89.61,-294.18C104.89,-292.28 122.19,-290.13 138.1,-288.15"/>
<polygon fill="#63b8ff" stroke="#63b8ff" points="138.4,-291.64 147.89,-286.93 137.53,-284.69 138.4,-291.64"/>
</a>
</g>
</g>
<!-- Node3 -->
<g id="Node000003" class="node">
<title>Node3</title>
<g id="a_Node000003"><a xlink:href="structGme__File.html#a509f0c32e8e87186bec17dfce3e0ca7e" target="_top" xlink:title=" ">
<polygon fill="white" stroke="#666666" points="403.88,-450.88 300.88,-450.88 300.88,-420.38 403.88,-420.38 403.88,-450.88"/>
<text xml:space="preserve" text-anchor="start" x="308.88" y="-437.38" font-family="Helvetica,sans-Serif" font-size="10.00">Gme_File::set_track</text>
<text xml:space="preserve" text-anchor="middle" x="352.38" y="-426.12" font-family="Helvetica,sans-Serif" font-size="10.00">_count</text>
</a>
</g>
</g>
<!-- Node2&#45;&gt;Node3 -->
<g id="edge2_Node000002_Node000003" class="edge">
<title>Node2&#45;&gt;Node3</title>
<g id="a_edge2_Node000002_Node000003"><a xlink:title=" ">
<path fill="none" stroke="#63b8ff" d="M219.55,-386.63C241.09,-394.64 271.95,-406.11 298.4,-415.94"/>
<polygon fill="#63b8ff" stroke="#63b8ff" points="297.03,-419.16 307.62,-419.36 299.47,-412.6 297.03,-419.16"/>
</a>
</g>
</g>
<!-- Node4&#45;&gt;Node3 -->
<g id="edge16_Node000004_Node000003" class="edge">
<title>Node4&#45;&gt;Node3</title>
<g id="a_edge16_Node000004_Node000003"><a xlink:title=" ">
<path fill="none" stroke="#63b8ff" d="M201.88,-291.63C214.88,-305.86 239.08,-332.97 257.75,-357.62 275.17,-380.62 271.48,-393.29 293.75,-411.62 294.69,-412.4 295.66,-413.15 296.66,-413.88"/>
<polygon fill="#63b8ff" stroke="#63b8ff" points="294.54,-416.69 304.86,-419.09 298.29,-410.78 294.54,-416.69"/>
</a>
</g>
</g>
<!-- Node5 -->
<g id="Node000005" class="node">
<title>Node5</title>
<g id="a_Node000005"><a xlink:href="Spc__Cpu_8h.html#a2569713fe026f7b153bba6e89d64498f" target="_top" xlink:title=" ">
<polygon fill="white" stroke="#666666" points="373.88,-402.25 330.88,-402.25 330.88,-383 373.88,-383 373.88,-402.25"/>
<text xml:space="preserve" text-anchor="middle" x="352.38" y="-388.75" font-family="Helvetica,sans-Serif" font-size="10.00">assert</text>
</a>
</g>
</g>
<!-- Node4&#45;&gt;Node5 -->
<g id="edge4_Node000004_Node000005" class="edge">
<title>Node4&#45;&gt;Node5</title>
<g id="a_edge4_Node000004_Node000005"><a xlink:title=" ">
<path fill="none" stroke="#63b8ff" d="M200.74,-291.57C216.65,-310.45 253.87,-351.63 293.75,-374.62 301.64,-379.18 310.82,-382.71 319.49,-385.4"/>
<polygon fill="#63b8ff" stroke="#63b8ff" points="318.43,-388.74 329.01,-388.04 320.31,-381.99 318.43,-388.74"/>
</a>
</g>
</g>
<!-- Node6 -->
<g id="Node000006" class="node">
<title>Node6</title>
<g id="a_Node000006"><a xlink:href="Nsf__Emu_8cpp.html#ad4c583956de73f267cb497ebccc9cb46" target="_top" xlink:title=" ">
<polygon fill="white" stroke="#666666" points="400.12,-365.25 304.62,-365.25 304.62,-346 400.12,-346 400.12,-365.25"/>
<text xml:space="preserve" text-anchor="middle" x="352.38" y="-351.75" font-family="Helvetica,sans-Serif" font-size="10.00">check_nsf_header</text>
</a>
</g>
</g>
<!-- Node4&#45;&gt;Node6 -->
<g id="edge5_Node000004_Node000006" class="edge">
<title>Node4&#45;&gt;Node6</title>
<g id="a_edge5_Node000004_Node000006"><a xlink:title=" ">
<path fill="none" stroke="#63b8ff" d="M208.23,-291.58C227.68,-303.68 262.2,-324.13 293.75,-337.62 297.28,-339.13 300.98,-340.58 304.72,-341.95"/>
<polygon fill="#63b8ff" stroke="#63b8ff" points="303.28,-345.16 313.88,-345.1 305.56,-338.54 303.28,-345.16"/>
</a>
</g>
</g>
<!-- Node7 -->
<g id="Node000007" class="node">
<title>Node7</title>
<g id="a_Node000007"><a xlink:href="blargg__endian_8h.html#a8e2f17598292f002a2cbcd4dbdf16a09" target="_top" xlink:title=" ">
<polygon fill="white" stroke="#666666" points="378.75,-328.25 326,-328.25 326,-309 378.75,-309 378.75,-328.25"/>
<text xml:space="preserve" text-anchor="middle" x="352.38" y="-314.75" font-family="Helvetica,sans-Serif" font-size="10.00">get_le16</text>
</a>
</g>
</g>
<!-- Node4&#45;&gt;Node7 -->
<g id="edge6_Node000004_Node000007" class="edge">
<title>Node4&#45;&gt;Node7</title>
<g id="a_edge6_Node000004_Node000007"><a xlink:title=" ">
<path fill="none" stroke="#63b8ff" d="M233.92,-291.25C258.87,-297.06 290.39,-304.41 314.5,-310.03"/>
<polygon fill="#63b8ff" stroke="#63b8ff" points="313.67,-313.43 324.2,-312.29 315.26,-306.61 313.67,-313.43"/>
</a>
</g>
</g>
<!-- Node8 -->
<g id="Node000008" class="node">
<title>Node8</title>
<g id="a_Node000008"><a xlink:href="classNsf__Emu.html#a8b6435338538bfb7c8379c9334863995" target="_top" xlink:title=" ">
<polygon fill="white" stroke="#666666" points="405,-291.25 299.75,-291.25 299.75,-272 405,-272 405,-291.25"/>
<text xml:space="preserve" text-anchor="middle" x="352.38" y="-277.75" font-family="Helvetica,sans-Serif" font-size="10.00">Nsf_Emu::init_sound</text>
</a>
</g>
</g>
<!-- Node4&#45;&gt;Node8 -->
<g id="edge7_Node000004_Node000008" class="edge">
<title>Node4&#45;&gt;Node8</title>
<g id="a_edge7_Node000004_Node000008"><a xlink:title=" ">
<path fill="none" stroke="#63b8ff" d="M233.92,-281.62C250.43,-281.62 269.81,-281.62 288.03,-281.62"/>
<polygon fill="#63b8ff" stroke="#63b8ff" points="287.96,-285.13 297.96,-281.63 287.96,-278.13 287.96,-285.13"/>
</a>
</g>
</g>
<!-- Node13 -->
<g id="Node000013" class="node">
<title>Node13</title>
<g id="a_Node000013"><a xlink:href="structGme__File.html#aa402c6eb3d5b92ef38f8832e7d926fc8" target="_top" xlink:title=" ">
<polygon fill="white" stroke="#666666" points="568.75,-253.25 453.75,-253.25 453.75,-234 568.75,-234 568.75,-253.25"/>
<text xml:space="preserve" text-anchor="middle" x="511.25" y="-239.75" font-family="Helvetica,sans-Serif" font-size="10.00">Gme_File::set_warning</text>
</a>
</g>
</g>
<!-- Node4&#45;&gt;Node13 -->
<g id="edge17_Node000004_Node000013" class="edge">
<title>Node4&#45;&gt;Node13</title>
<g id="a_edge17_Node000004_Node000013"><a xlink:title=" ">
<path fill="none" stroke="#63b8ff" d="M233.8,-272.94C252.1,-269.33 273.93,-265.35 293.75,-262.62 343.23,-255.82 399.42,-250.98 442.15,-247.88"/>
<polygon fill="#63b8ff" stroke="#63b8ff" points="442.32,-251.38 452.04,-247.18 441.82,-244.39 442.32,-251.38"/>
</a>
</g>
</g>
<!-- Node14 -->
<g id="Node000014" class="node">
<title>Node14</title>
<g id="a_Node000014"><a xlink:href="structMusic__Emu.html#a6d205a1619dfd7eddf7a3b93cd113c9d" target="_top" xlink:title=" ">
<polygon fill="white" stroke="#666666" points="411,-215.25 293.75,-215.25 293.75,-196 411,-196 411,-215.25"/>
<text xml:space="preserve" text-anchor="middle" x="352.38" y="-201.75" font-family="Helvetica,sans-Serif" font-size="10.00">Music_Emu::set_tempo</text>
</a>
</g>
</g>
<!-- Node4&#45;&gt;Node14 -->
<g id="edge13_Node000004_Node000014" class="edge">
<title>Node4&#45;&gt;Node14</title>
<g id="a_edge13_Node000004_Node000014"><a xlink:title=" ">
<path fill="none" stroke="#63b8ff" d="M211.04,-271.59C231.14,-260.77 264.39,-243.26 293.75,-229.62 300.67,-226.41 308.14,-223.15 315.34,-220.11"/>
<polygon fill="#63b8ff" stroke="#63b8ff" points="316.65,-223.36 324.54,-216.29 313.96,-216.89 316.65,-223.36"/>
</a>
</g>
</g>
<!-- Node17 -->
<g id="Node000017" class="node">
<title>Node17</title>
<g id="a_Node000017"><a xlink:href="classClassic__Emu.html#adf31e3cc78df8e1837401a273ec10474" target="_top" xlink:title=" ">
<polygon fill="white" stroke="#666666" points="403.12,-141.88 301.62,-141.88 301.62,-111.38 403.12,-111.38 403.12,-141.88"/>
<text xml:space="preserve" text-anchor="start" x="309.62" y="-128.38" font-family="Helvetica,sans-Serif" font-size="10.00">Classic_Emu::setup</text>
<text xml:space="preserve" text-anchor="middle" x="352.38" y="-117.12" font-family="Helvetica,sans-Serif" font-size="10.00">_buffer</text>
</a>
</g>
</g>
<!-- Node4&#45;&gt;Node17 -->
<g id="edge18_Node000004_Node000017" class="edge">
<title>Node4&#45;&gt;Node17</title>
<g id="a_edge18_Node000004_Node000017"><a xlink:title=" ">
<path fill="none" stroke="#63b8ff" d="M202.56,-271.93C227.32,-247.75 292.33,-184.28 327.67,-149.77"/>
<polygon fill="#63b8ff" stroke="#63b8ff" points="329.77,-152.61 334.48,-143.12 324.88,-147.6 329.77,-152.61"/>
</a>
</g>
</g>
<!-- Node23 -->
<g id="Node000023" class="node">
<title>Node23</title>
<g id="a_Node000023"><a xlink:href="structMusic__Emu.html#a2cdb88ba0554457cc9c3b04eaa1e25b0" target="_top" xlink:title=" ">
<polygon fill="white" stroke="#666666" points="401.62,-93.25 303.12,-93.25 303.12,-74 401.62,-74 401.62,-93.25"/>
<text xml:space="preserve" text-anchor="middle" x="352.38" y="-79.75" font-family="Helvetica,sans-Serif" font-size="10.00">Music_Emu::tempo</text>
</a>
</g>
</g>
<!-- Node4&#45;&gt;Node23 -->
<g id="edge23_Node000004_Node000023" class="edge">
<title>Node4&#45;&gt;Node23</title>
<g id="a_edge23_Node000004_Node000023"><a xlink:title=" ">
<path fill="none" stroke="#63b8ff" d="M195.38,-271.83C204.3,-241.89 235.27,-150.65 293.75,-102.62 295.26,-101.38 296.86,-100.22 298.51,-99.14"/>
<polygon fill="#63b8ff" stroke="#63b8ff" points="300.11,-102.26 307.24,-94.42 296.78,-96.1 300.11,-102.26"/>
</a>
</g>
</g>
<!-- Node24 -->
<g id="Node000024" class="node">
<title>Node24</title>
<g id="a_Node000024"><a xlink:href="structGme__File.html#a22ed24cbac95a31790e23ea9f1c1fa27" target="_top" xlink:title=" ">
<polygon fill="white" stroke="#666666" points="400.5,-56.25 304.25,-56.25 304.25,-37 400.5,-37 400.5,-56.25"/>
<text xml:space="preserve" text-anchor="middle" x="352.38" y="-42.75" font-family="Helvetica,sans-Serif" font-size="10.00">Gme_File::warning</text>
</a>
</g>
</g>
<!-- Node4&#45;&gt;Node24 -->
<g id="edge24_Node000004_Node000024" class="edge">
<title>Node4&#45;&gt;Node24</title>
<g id="a_edge24_Node000004_Node000024"><a xlink:title=" ">
<path fill="none" stroke="#63b8ff" d="M194.31,-271.72C200.64,-237.58 226.18,-123.74 293.75,-64.62 294.54,-63.93 295.36,-63.26 296.21,-62.62"/>
<polygon fill="#63b8ff" stroke="#63b8ff" points="297.96,-65.65 304.69,-57.47 294.33,-59.67 297.96,-65.65"/>
</a>
</g>
</g>
<!-- Node9 -->
<g id="Node000009" class="node">
<title>Node9</title>
<g id="a_Node000009"><a xlink:href="structMusic__Emu.html#a647e380e0139836dd21b26b26ca46026" target="_top" xlink:title=" ">
<polygon fill="white" stroke="#666666" points="556,-437.25 466.5,-437.25 466.5,-418 556,-418 556,-437.25"/>
<text xml:space="preserve" text-anchor="middle" x="511.25" y="-423.75" font-family="Helvetica,sans-Serif" font-size="10.00">Music_Emu::gain</text>
</a>
</g>
</g>
<!-- Node8&#45;&gt;Node9 -->
<g id="edge8_Node000008_Node000009" class="edge">
<title>Node8&#45;&gt;Node9</title>
<g id="a_edge8_Node000008_Node000009"><a xlink:title=" ">
<path fill="none" stroke="#63b8ff" d="M400,-291.71C404.03,-293.86 407.79,-296.46 411,-299.62 447.37,-335.41 410.44,-373.04 447,-408.62 449.67,-411.22 452.68,-413.47 455.91,-415.41"/>
<polygon fill="#63b8ff" stroke="#63b8ff" points="454.2,-418.47 464.72,-419.7 457.26,-412.17 454.2,-418.47"/>
</a>
</g>
</g>
<!-- Node10 -->
<g id="Node000010" class="node">
<title>Node10</title>
<g id="a_Node000010"><a xlink:href="structMusic__Emu.html#a0f256df05076e7a54f21a6a0810c7184" target="_top" xlink:title=" ">
<polygon fill="white" stroke="#666666" points="568,-399.88 454.5,-399.88 454.5,-369.38 568,-369.38 568,-399.88"/>
<text xml:space="preserve" text-anchor="start" x="462.5" y="-386.38" font-family="Helvetica,sans-Serif" font-size="10.00">Music_Emu::set_voice</text>
<text xml:space="preserve" text-anchor="middle" x="511.25" y="-375.12" font-family="Helvetica,sans-Serif" font-size="10.00">_count</text>
</a>
</g>
</g>
<!-- Node8&#45;&gt;Node10 -->
<g id="edge9_Node000008_Node000010" class="edge">
<title>Node8&#45;&gt;Node10</title>
<g id="a_edge9_Node000008_Node000010"><a xlink:title=" ">
<path fill="none" stroke="#63b8ff" d="M397.56,-291.67C402.36,-293.83 406.96,-296.45 411,-299.62 435.44,-318.85 423.28,-339.51 447,-359.62 448.45,-360.86 449.98,-362.04 451.56,-363.16"/>
<polygon fill="#63b8ff" stroke="#63b8ff" points="449.44,-365.97 459.79,-368.23 453.11,-360 449.44,-365.97"/>
</a>
</g>
</g>
<!-- Node11 -->
<g id="Node000011" class="node">
<title>Node11</title>
<g id="a_Node000011"><a xlink:href="structMusic__Emu.html#af83d1e85ca5ba5365693b481e677c453" target="_top" xlink:title=" ">
<polygon fill="white" stroke="#666666" points="568,-350.88 454.5,-350.88 454.5,-320.38 568,-320.38 568,-350.88"/>
<text xml:space="preserve" text-anchor="start" x="462.5" y="-337.38" font-family="Helvetica,sans-Serif" font-size="10.00">Music_Emu::set_voice</text>
<text xml:space="preserve" text-anchor="middle" x="511.25" y="-326.12" font-family="Helvetica,sans-Serif" font-size="10.00">_names</text>
</a>
</g>
</g>
<!-- Node8&#45;&gt;Node11 -->
<g id="edge10_Node000008_Node000011" class="edge">
<title>Node8&#45;&gt;Node11</title>
<g id="a_edge10_Node000008_Node000011"><a xlink:title=" ">
<path fill="none" stroke="#63b8ff" d="M386.67,-291.74C394.66,-294.25 403.15,-296.98 411,-299.62 426.23,-304.76 442.68,-310.61 457.72,-316.07"/>
<polygon fill="#63b8ff" stroke="#63b8ff" points="456.37,-319.3 466.96,-319.44 458.77,-312.73 456.37,-319.3"/>
</a>
</g>
</g>
<!-- Node12 -->
<g id="Node000012" class="node">
<title>Node12</title>
<g id="a_Node000012"><a xlink:href="classClassic__Emu.html#ab7d79f18e6b342941379b73f07d81527" target="_top" xlink:title=" ">
<polygon fill="white" stroke="#666666" points="571,-301.88 451.5,-301.88 451.5,-271.38 571,-271.38 571,-301.88"/>
<text xml:space="preserve" text-anchor="start" x="459.5" y="-288.38" font-family="Helvetica,sans-Serif" font-size="10.00">Classic_Emu::set_voice</text>
<text xml:space="preserve" text-anchor="middle" x="511.25" y="-277.12" font-family="Helvetica,sans-Serif" font-size="10.00">_types</text>
</a>
</g>
</g>
<!-- Node8&#45;&gt;Node12 -->
<g id="edge11_Node000008_Node000012" class="edge">
<title>Node8&#45;&gt;Node12</title>
<g id="a_edge11_Node000008_Node000012"><a xlink:title=" ">
<path fill="none" stroke="#63b8ff" d="M405.18,-283.28C416.22,-283.63 428.06,-284.01 439.68,-284.38"/>
<polygon fill="#63b8ff" stroke="#63b8ff" points="439.55,-287.87 449.66,-284.69 439.78,-280.88 439.55,-287.87"/>
</a>
</g>
</g>
<!-- Node8&#45;&gt;Node13 -->
<g id="edge12_Node000008_Node000013" class="edge">
<title>Node8&#45;&gt;Node13</title>
<g id="a_edge12_Node000008_Node000013"><a xlink:title=" ">
<path fill="none" stroke="#63b8ff" d="M395,-271.54C414.23,-266.88 437.27,-261.3 457.67,-256.36"/>
<polygon fill="#63b8ff" stroke="#63b8ff" points="458.33,-259.8 467.23,-254.05 456.69,-253 458.33,-259.8"/>
</a>
</g>
</g>
<!-- Node15 -->
<g id="Node000015" class="node">
<title>Node15</title>
<g id="a_Node000015"><a xlink:href="structMusic__Emu.html#a840406e0edcb399f0e91e790ce583075" target="_top" xlink:title=" ">
<polygon fill="white" stroke="#666666" points="573.62,-216.25 448.88,-216.25 448.88,-197 573.62,-197 573.62,-216.25"/>
<text xml:space="preserve" text-anchor="middle" x="511.25" y="-202.75" font-family="Helvetica,sans-Serif" font-size="10.00">Music_Emu::sample_rate</text>
</a>
</g>
</g>
<!-- Node14&#45;&gt;Node15 -->
<g id="edge14_Node000014_Node000015" class="edge">
<title>Node14&#45;&gt;Node15</title>
<g id="a_edge14_Node000014_Node000015"><a xlink:title=" ">
<path fill="none" stroke="#63b8ff" d="M411.34,-205.99C419.78,-206.05 428.55,-206.1 437.24,-206.16"/>
<polygon fill="#63b8ff" stroke="#63b8ff" points="437.04,-209.66 447.06,-206.22 437.08,-202.66 437.04,-209.66"/>
</a>
</g>
</g>
<!-- Node16 -->
<g id="Node000016" class="node">
<title>Node16</title>
<g id="a_Node000016"><a xlink:href="structMusic__Emu.html#a8b946b4be1608229d549c85bb3b22390" target="_top" xlink:title=" ">
<polygon fill="white" stroke="#666666" points="572.5,-179.25 450,-179.25 450,-160 572.5,-160 572.5,-179.25"/>
<text xml:space="preserve" text-anchor="middle" x="511.25" y="-165.75" font-family="Helvetica,sans-Serif" font-size="10.00">Music_Emu::set_tempo_</text>
</a>
</g>
</g>
<!-- Node14&#45;&gt;Node16 -->
<g id="edge15_Node000014_Node000016" class="edge">
<title>Node14&#45;&gt;Node16</title>
<g id="a_edge15_Node000014_Node000016"><a xlink:title=" ">
<path fill="none" stroke="#63b8ff" d="M397.49,-195.5C415.36,-191.4 436.19,-186.62 455.05,-182.29"/>
<polygon fill="#63b8ff" stroke="#63b8ff" points="455.75,-185.72 464.72,-180.07 454.19,-178.9 455.75,-185.72"/>
</a>
</g>
</g>
<!-- Node18 -->
<g id="Node000018" class="node">
<title>Node18</title>
<g id="a_Node000018"><a xlink:href="classClassic__Emu.html#af1964e85c14a6181d8d6fece5df22451" target="_top" xlink:title=" ">
<polygon fill="white" stroke="#666666" points="565.75,-141.88 456.75,-141.88 456.75,-111.38 565.75,-111.38 565.75,-141.88"/>
<text xml:space="preserve" text-anchor="start" x="464.75" y="-128.38" font-family="Helvetica,sans-Serif" font-size="10.00">Classic_Emu::change</text>
<text xml:space="preserve" text-anchor="middle" x="511.25" y="-117.12" font-family="Helvetica,sans-Serif" font-size="10.00">_clock_rate</text>
</a>
</g>
</g>
<!-- Node17&#45;&gt;Node18 -->
<g id="edge19_Node000017_Node000018" class="edge">
<title>Node17&#45;&gt;Node18</title>
<g id="a_edge19_Node000017_Node000018"><a xlink:title=" ">
<path fill="none" stroke="#63b8ff" d="M403.44,-126.62C416.61,-126.62 431.02,-126.62 444.86,-126.62"/>
<polygon fill="#63b8ff" stroke="#63b8ff" points="444.81,-130.13 454.81,-126.63 444.81,-123.13 444.81,-130.13"/>
</a>
</g>
</g>
<!-- Node19 -->
<g id="Node000019" class="node">
<title>Node19</title>
<g id="a_Node000019"><a xlink:href="structMusic__Emu.html#ab6823f1bfbece1ef709bd7e0cc1fed79" target="_top" xlink:title=" ">
<polygon fill="white" stroke="#666666" points="566.12,-93.25 456.38,-93.25 456.38,-74 566.12,-74 566.12,-93.25"/>
<text xml:space="preserve" text-anchor="middle" x="511.25" y="-79.75" font-family="Helvetica,sans-Serif" font-size="10.00">Music_Emu::equalizer</text>
</a>
</g>
</g>
<!-- Node17&#45;&gt;Node19 -->
<g id="edge20_Node000017_Node000019" class="edge">
<title>Node17&#45;&gt;Node19</title>
<g id="a_edge20_Node000017_Node000019"><a xlink:title=" ">
<path fill="none" stroke="#63b8ff" d="M403.44,-112.9C422.39,-107.71 443.9,-101.81 462.62,-96.68"/>
<polygon fill="#63b8ff" stroke="#63b8ff" points="463.39,-100.1 472.11,-94.08 461.54,-93.35 463.39,-100.1"/>
</a>
</g>
</g>
<!-- Node20 -->
<g id="Node000020" class="node">
<title>Node20</title>
<g id="a_Node000020"><a xlink:href="structMusic__Emu.html#ae88f73e79de47249f949e3aaa9fec931" target="_top" xlink:title=" ">
<polygon fill="#fff0f0" stroke="red" points="575.5,-56.25 447,-56.25 447,-37 575.5,-37 575.5,-56.25"/>
<text xml:space="preserve" text-anchor="middle" x="511.25" y="-42.75" font-family="Helvetica,sans-Serif" font-size="10.00">Music_Emu::set_equalizer</text>
</a>
</g>
</g>
<!-- Node17&#45;&gt;Node20 -->
<g id="edge21_Node000017_Node000020" class="edge">
<title>Node17&#45;&gt;Node20</title>
<g id="a_edge21_Node000017_Node000020"><a xlink:title=" ">
<path fill="none" stroke="#63b8ff" d="M396.6,-110.99C401.62,-108.49 406.54,-105.7 411,-102.62 430.15,-89.42 427.1,-76.68 447,-64.62 449.02,-63.4 451.13,-62.26 453.3,-61.19"/>
<polygon fill="#63b8ff" stroke="#63b8ff" points="454.56,-64.45 462.38,-57.31 451.81,-58.02 454.56,-64.45"/>
</a>
</g>
</g>
<!-- Node22 -->
<g id="Node000022" class="node">
<title>Node22</title>
<g id="a_Node000022"><a xlink:href="structMusic__Emu.html#ac22ea61b1e78090ed6cecde811cfd3fc" target="_top" xlink:title=" ">
<polygon fill="white" stroke="#666666" points="573.25,-19.25 449.25,-19.25 449.25,0 573.25,0 573.25,-19.25"/>
<text xml:space="preserve" text-anchor="middle" x="511.25" y="-5.75" font-family="Helvetica,sans-Serif" font-size="10.00">Music_Emu::voice_count</text>
</a>
</g>
</g>
<!-- Node17&#45;&gt;Node22 -->
<g id="edge22_Node000017_Node000022" class="edge">
<title>Node17&#45;&gt;Node22</title>
<g id="a_edge22_Node000017_Node000022"><a xlink:title=" ">
<path fill="none" stroke="#63b8ff" d="M399.93,-110.92C403.93,-108.51 407.7,-105.76 411,-102.62 437.83,-77.18 418.73,-51.45 447,-27.62 447.94,-26.83 448.91,-26.08 449.91,-25.35"/>
<polygon fill="#63b8ff" stroke="#63b8ff" points="451.39,-28.54 458.24,-20.47 447.85,-22.51 451.39,-28.54"/>
</a>
</g>
</g>
</g>
</svg>
