<?xml version="1.0" encoding="UTF-8" standalone="no"?>
<!DOCTYPE svg PUBLIC "-//W3C//DTD SVG 1.1//EN"
 "http://www.w3.org/Graphics/SVG/1.1/DTD/svg11.dtd">
<!-- Generated by graphviz version 14.0.2 (0)
 -->
<!-- Title: juce::CodeEditorComponent::cutToClipboard Pages: 1 -->
<svg width="701pt" height="273pt"
 viewBox="0.00 0.00 701.00 273.00" xmlns="http://www.w3.org/2000/svg" xmlns:xlink="http://www.w3.org/1999/xlink">
<g id="graph0" class="graph" transform="scale(1 1) rotate(0) translate(4 268.5)">
<title>juce::CodeEditorComponent::cutToClipboard</title>
<!-- Node1 -->
<g id="Node000001" class="node">
<title>Node1</title>
<g id="a_Node000001"><a xlink:title=" ">
<polygon fill="#999999" stroke="#666666" points="135.25,-176.5 0,-176.5 0,-146 135.25,-146 135.25,-176.5"/>
<text xml:space="preserve" text-anchor="start" x="8" y="-163" font-family="Helvetica,sans-Serif" font-size="10.00">juce::CodeEditorComponent</text>
<text xml:space="preserve" text-anchor="middle" x="67.62" y="-151.75" font-family="Helvetica,sans-Serif" font-size="10.00">::cutToClipboard</text>
</a>
</g>
</g>
<!-- Node1&#45;&gt;Node1 -->
<g id="edge18_Node000001_Node000001" class="edge">
<title>Node1&#45;&gt;Node1</title>
<g id="a_edge18_Node000001_Node000001"><a xlink:title=" ">
<path fill="none" stroke="#63b8ff" d="M35.68,-176.99C29.17,-186.06 39.81,-194.5 67.62,-194.5 82.83,-194.5 92.91,-191.97 97.85,-188.2"/>
<polygon fill="#63b8ff" stroke="#63b8ff" points="101.29,-188.9 99.34,-178.48 94.37,-187.84 101.29,-188.9"/>
</a>
</g>
</g>
<!-- Node2 -->
<g id="Node000002" class="node">
<title>Node2</title>
<g id="a_Node000002"><a xlink:href="classjuce_1_1CodeEditorComponent.html#ae4a468c8ca1413a37b719d57161ad61b" target="_top" xlink:title=" ">
<polygon fill="white" stroke="#666666" points="315.5,-219.5 180.25,-219.5 180.25,-189 315.5,-189 315.5,-219.5"/>
<text xml:space="preserve" text-anchor="start" x="188.25" y="-206" font-family="Helvetica,sans-Serif" font-size="10.00">juce::CodeEditorComponent</text>
<text xml:space="preserve" text-anchor="middle" x="247.88" y="-194.75" font-family="Helvetica,sans-Serif" font-size="10.00">::copyToClipboard</text>
</a>
</g>
</g>
<!-- Node1&#45;&gt;Node2 -->
<g id="edge1_Node000001_Node000002" class="edge">
<title>Node1&#45;&gt;Node2</title>
<g id="a_edge1_Node000001_Node000002"><a xlink:title=" ">
<path fill="none" stroke="#63b8ff" d="M133.73,-176.96C145.69,-179.84 158.27,-182.87 170.51,-185.83"/>
<polygon fill="#63b8ff" stroke="#63b8ff" points="169.63,-189.22 180.17,-188.16 171.27,-182.41 169.63,-189.22"/>
</a>
</g>
</g>
<!-- Node4 -->
<g id="Node000004" class="node">
<title>Node4</title>
<g id="a_Node000004"><a xlink:href="classjuce_1_1CodeEditorComponent.html#a34e8e9fbdeae5bc3271940a470a23e1f" target="_top" xlink:title=" ">
<polygon fill="white" stroke="#666666" points="495.75,-179.5 360.5,-179.5 360.5,-149 495.75,-149 495.75,-179.5"/>
<text xml:space="preserve" text-anchor="start" x="368.5" y="-166" font-family="Helvetica,sans-Serif" font-size="10.00">juce::CodeEditorComponent</text>
<text xml:space="preserve" text-anchor="middle" x="428.12" y="-154.75" font-family="Helvetica,sans-Serif" font-size="10.00">::newTransaction</text>
</a>
</g>
</g>
<!-- Node1&#45;&gt;Node4 -->
<g id="edge19_Node000001_Node000004" class="edge">
<title>Node1&#45;&gt;Node4</title>
<g id="a_edge19_Node000001_Node000004"><a xlink:title=" ">
<path fill="none" stroke="#63b8ff" d="M135.64,-161.81C196.14,-162.32 285.21,-163.06 348.94,-163.6"/>
<polygon fill="#63b8ff" stroke="#63b8ff" points="348.6,-167.09 358.63,-163.68 348.66,-160.09 348.6,-167.09"/>
</a>
</g>
</g>
<!-- Node5 -->
<g id="Node000005" class="node">
<title>Node5</title>
<g id="a_Node000005"><a xlink:href="classjuce_1_1CodeEditorComponent.html#aea1936413a09a2b521b529ced88d926c" target="_top" xlink:title=" ">
<polygon fill="white" stroke="#666666" points="324.5,-111.88 171.25,-111.88 171.25,-92.62 324.5,-92.62 324.5,-111.88"/>
<text xml:space="preserve" text-anchor="middle" x="247.88" y="-98.38" font-family="Helvetica,sans-Serif" font-size="10.00">juce::CodeEditorComponent::cut</text>
</a>
</g>
</g>
<!-- Node1&#45;&gt;Node5 -->
<g id="edge7_Node000001_Node000005" class="edge">
<title>Node1&#45;&gt;Node5</title>
<g id="a_edge7_Node000001_Node000005"><a xlink:title=" ">
<path fill="none" stroke="#63b8ff" d="M115.92,-145.59C143.94,-136.32 179.07,-124.69 205.9,-115.81"/>
<polygon fill="#63b8ff" stroke="#63b8ff" points="206.64,-119.25 215.04,-112.79 204.44,-112.61 206.64,-119.25"/>
</a>
</g>
</g>
<!-- Node2&#45;&gt;Node2 -->
<g id="edge4_Node000002_Node000002" class="edge">
<title>Node2&#45;&gt;Node2</title>
<g id="a_edge4_Node000002_Node000002"><a xlink:title=" ">
<path fill="none" stroke="#63b8ff" d="M215.93,-219.99C209.42,-229.06 220.06,-237.5 247.88,-237.5 263.08,-237.5 273.16,-234.97 278.1,-231.2"/>
<polygon fill="#63b8ff" stroke="#63b8ff" points="281.54,-231.9 279.59,-221.48 274.62,-230.84 281.54,-231.9"/>
</a>
</g>
</g>
<!-- Node3 -->
<g id="Node000003" class="node">
<title>Node3</title>
<g id="a_Node000003"><a xlink:href="classjuce_1_1SystemClipboard.html#a4b54f491bcee4ff296f66f29e650e546" target="_top" xlink:title=" ">
<polygon fill="white" stroke="#666666" points="484.12,-246.5 372.12,-246.5 372.12,-216 484.12,-216 484.12,-246.5"/>
<text xml:space="preserve" text-anchor="start" x="380.12" y="-233" font-family="Helvetica,sans-Serif" font-size="10.00">juce::SystemClipboard</text>
<text xml:space="preserve" text-anchor="middle" x="428.12" y="-221.75" font-family="Helvetica,sans-Serif" font-size="10.00">::copyTextToClipboard</text>
</a>
</g>
</g>
<!-- Node2&#45;&gt;Node3 -->
<g id="edge2_Node000002_Node000003" class="edge">
<title>Node2&#45;&gt;Node3</title>
<g id="a_edge2_Node000002_Node000003"><a xlink:title=" ">
<path fill="none" stroke="#63b8ff" d="M315.76,-214.38C330.48,-216.61 346.06,-218.97 360.76,-221.2"/>
<polygon fill="#63b8ff" stroke="#63b8ff" points="359.89,-224.61 370.31,-222.64 360.94,-217.69 359.89,-224.61"/>
</a>
</g>
</g>
<!-- Node2&#45;&gt;Node4 -->
<g id="edge5_Node000002_Node000004" class="edge">
<title>Node2&#45;&gt;Node4</title>
<g id="a_edge5_Node000002_Node000004"><a xlink:title=" ">
<path fill="none" stroke="#63b8ff" d="M315.76,-189.24C326.65,-186.8 338.01,-184.25 349.14,-181.75"/>
<polygon fill="#63b8ff" stroke="#63b8ff" points="349.7,-185.21 358.69,-179.61 348.17,-178.38 349.7,-185.21"/>
</a>
</g>
</g>
<!-- Node3&#45;&gt;Node3 -->
<g id="edge3_Node000003_Node000003" class="edge">
<title>Node3&#45;&gt;Node3</title>
<g id="a_edge3_Node000003_Node000003"><a xlink:title=" ">
<path fill="none" stroke="#63b8ff" d="M396.18,-246.99C389.67,-256.06 400.31,-264.5 428.12,-264.5 443.33,-264.5 453.41,-261.97 458.35,-258.2"/>
<polygon fill="#63b8ff" stroke="#63b8ff" points="461.79,-258.9 459.84,-248.48 454.87,-257.84 461.79,-258.9"/>
</a>
</g>
</g>
<!-- Node4&#45;&gt;Node4 -->
<g id="edge6_Node000004_Node000004" class="edge">
<title>Node4&#45;&gt;Node4</title>
<g id="a_edge6_Node000004_Node000004"><a xlink:title=" ">
<path fill="none" stroke="#63b8ff" d="M396.18,-179.99C389.67,-189.06 400.31,-197.5 428.12,-197.5 443.33,-197.5 453.41,-194.97 458.35,-191.2"/>
<polygon fill="#63b8ff" stroke="#63b8ff" points="461.79,-191.9 459.84,-181.48 454.87,-190.84 461.79,-191.9"/>
</a>
</g>
</g>
<!-- Node5&#45;&gt;Node5 -->
<g id="edge8_Node000005_Node000005" class="edge">
<title>Node5&#45;&gt;Node5</title>
<g id="a_edge8_Node000005_Node000005"><a xlink:title=" ">
<path fill="none" stroke="#63b8ff" d="M219.66,-112.16C206.78,-120.77 216.19,-129.88 247.88,-129.88 266.19,-129.88 277.06,-126.83 280.49,-122.6"/>
<polygon fill="#63b8ff" stroke="#63b8ff" points="283.79,-121.42 276.68,-113.56 277.34,-124.13 283.79,-121.42"/>
</a>
</g>
</g>
<!-- Node6 -->
<g id="Node000006" class="node">
<title>Node6</title>
<g id="a_Node000006"><a xlink:href="classjuce_1_1CodeEditorComponent.html#a89c04e51c36b0007a00ab691e2ec6b6e" target="_top" xlink:title=" ">
<polygon fill="white" stroke="#666666" points="495.75,-112.5 360.5,-112.5 360.5,-82 495.75,-82 495.75,-112.5"/>
<text xml:space="preserve" text-anchor="start" x="368.5" y="-99" font-family="Helvetica,sans-Serif" font-size="10.00">juce::CodeEditorComponent</text>
<text xml:space="preserve" text-anchor="middle" x="428.12" y="-87.75" font-family="Helvetica,sans-Serif" font-size="10.00">::insertText</text>
</a>
</g>
</g>
<!-- Node5&#45;&gt;Node6 -->
<g id="edge9_Node000005_Node000006" class="edge">
<title>Node5&#45;&gt;Node6</title>
<g id="a_edge9_Node000005_Node000006"><a xlink:title=" ">
<path fill="none" stroke="#63b8ff" d="M324.99,-100.12C332.87,-99.89 340.89,-99.67 348.8,-99.45"/>
<polygon fill="#63b8ff" stroke="#63b8ff" points="348.86,-102.95 358.76,-99.17 348.66,-95.95 348.86,-102.95"/>
</a>
</g>
</g>
<!-- Node6&#45;&gt;Node6 -->
<g id="edge14_Node000006_Node000006" class="edge">
<title>Node6&#45;&gt;Node6</title>
<g id="a_edge14_Node000006_Node000006"><a xlink:title=" ">
<path fill="none" stroke="#63b8ff" d="M396.18,-112.99C389.67,-122.06 400.31,-130.5 428.12,-130.5 443.33,-130.5 453.41,-127.97 458.35,-124.2"/>
<polygon fill="#63b8ff" stroke="#63b8ff" points="461.79,-124.9 459.84,-114.48 454.87,-123.84 461.79,-124.9"/>
</a>
</g>
</g>
<!-- Node7 -->
<g id="Node000007" class="node">
<title>Node7</title>
<g id="a_Node000007"><a xlink:href="classjuce_1_1CodeEditorComponent.html#a76ac13fd0933e6795840a57d4027b404" target="_top" xlink:title=" ">
<polygon fill="white" stroke="#666666" points="679.75,-201.5 544.5,-201.5 544.5,-171 679.75,-171 679.75,-201.5"/>
<text xml:space="preserve" text-anchor="start" x="552.5" y="-188" font-family="Helvetica,sans-Serif" font-size="10.00">juce::CodeEditorComponent</text>
<text xml:space="preserve" text-anchor="middle" x="612.12" y="-176.75" font-family="Helvetica,sans-Serif" font-size="10.00">::caretPositionMoved</text>
</a>
</g>
</g>
<!-- Node6&#45;&gt;Node7 -->
<g id="edge10_Node000006_Node000007" class="edge">
<title>Node6&#45;&gt;Node7</title>
<g id="a_edge10_Node000006_Node000007"><a xlink:title=" ">
<path fill="none" stroke="#63b8ff" d="M453.34,-112.8C481.05,-130.52 523.64,-157.52 531.75,-161.25 535.77,-163.1 539.96,-164.87 544.23,-166.54"/>
<polygon fill="#63b8ff" stroke="#63b8ff" points="542.93,-169.79 553.52,-169.98 545.36,-163.23 542.93,-169.79"/>
</a>
</g>
</g>
<!-- Node8 -->
<g id="Node000008" class="node">
<title>Node8</title>
<g id="a_Node000008"><a xlink:href="classjuce_1_1Component.html#a861fb2ec2cd56732e46f818c28029151" target="_top" xlink:title=" ">
<polygon fill="#fff0f0" stroke="red" points="692.5,-134.5 531.75,-134.5 531.75,-104 692.5,-104 692.5,-134.5"/>
<text xml:space="preserve" text-anchor="start" x="539.75" y="-121" font-family="Helvetica,sans-Serif" font-size="10.00">juce::Component::getAccessibility</text>
<text xml:space="preserve" text-anchor="middle" x="612.12" y="-109.75" font-family="Helvetica,sans-Serif" font-size="10.00">Handler</text>
</a>
</g>
</g>
<!-- Node6&#45;&gt;Node8 -->
<g id="edge12_Node000006_Node000008" class="edge">
<title>Node6&#45;&gt;Node8</title>
<g id="a_edge12_Node000006_Node000008"><a xlink:title=" ">
<path fill="none" stroke="#63b8ff" d="M496.12,-105.35C503.9,-106.29 511.94,-107.26 519.98,-108.23"/>
<polygon fill="#63b8ff" stroke="#63b8ff" points="519.47,-111.7 529.82,-109.42 520.31,-104.75 519.47,-111.7"/>
</a>
</g>
</g>
<!-- Node22 -->
<g id="Node000022" class="node">
<title>Node22</title>
<g id="a_Node000022"><a xlink:href="classjuce_1_1String.html#af5084463343819f82187154ccb62ea3a" target="_top" xlink:title=" ">
<polygon fill="white" stroke="#666666" points="671.5,-85.88 552.75,-85.88 552.75,-66.62 671.5,-66.62 671.5,-85.88"/>
<text xml:space="preserve" text-anchor="middle" x="612.12" y="-72.38" font-family="Helvetica,sans-Serif" font-size="10.00">juce::String::isNotEmpty</text>
</a>
</g>
</g>
<!-- Node6&#45;&gt;Node22 -->
<g id="edge15_Node000006_Node000022" class="edge">
<title>Node6&#45;&gt;Node22</title>
<g id="a_edge15_Node000006_Node000022"><a xlink:title=" ">
<path fill="none" stroke="#63b8ff" d="M496.12,-89.52C510.82,-87.82 526.42,-86.02 541.23,-84.31"/>
<polygon fill="#63b8ff" stroke="#63b8ff" points="541.34,-87.83 550.87,-83.2 540.53,-80.87 541.34,-87.83"/>
</a>
</g>
</g>
<!-- Node23 -->
<g id="Node000023" class="node">
<title>Node23</title>
<g id="a_Node000023"><a xlink:href="classjuce_1_1CodeEditorComponent.html#a506ef9e1fdfb163cfda71b5b43da10cd" target="_top" xlink:title=" ">
<polygon fill="#fff0f0" stroke="red" points="684.25,-30.5 540,-30.5 540,0 684.25,0 684.25,-30.5"/>
<text xml:space="preserve" text-anchor="start" x="548" y="-17" font-family="Helvetica,sans-Serif" font-size="10.00">juce::CodeEditorComponent</text>
<text xml:space="preserve" text-anchor="middle" x="612.12" y="-5.75" font-family="Helvetica,sans-Serif" font-size="10.00">::scrollToKeepCaretOnScreen</text>
</a>
</g>
</g>
<!-- Node6&#45;&gt;Node23 -->
<g id="edge16_Node000006_Node000023" class="edge">
<title>Node6&#45;&gt;Node23</title>
<g id="a_edge16_Node000006_Node000023"><a xlink:title=" ">
<path fill="none" stroke="#63b8ff" d="M463.79,-81.63C492.79,-68.57 534.38,-49.83 565.98,-35.59"/>
<polygon fill="#63b8ff" stroke="#63b8ff" points="567.22,-38.87 574.9,-31.57 564.35,-32.49 567.22,-38.87"/>
</a>
</g>
</g>
<!-- Node7&#45;&gt;Node7 -->
<g id="edge11_Node000007_Node000007" class="edge">
<title>Node7&#45;&gt;Node7</title>
<g id="a_edge11_Node000007_Node000007"><a xlink:title=" ">
<path fill="none" stroke="#63b8ff" d="M579.52,-201.99C572.87,-211.06 583.73,-219.5 612.12,-219.5 627.65,-219.5 637.94,-216.97 642.98,-213.2"/>
<polygon fill="#63b8ff" stroke="#63b8ff" points="646.42,-213.9 644.5,-203.48 639.5,-212.82 646.42,-213.9"/>
</a>
</g>
</g>
<!-- Node8&#45;&gt;Node8 -->
<g id="edge13_Node000008_Node000008" class="edge">
<title>Node8&#45;&gt;Node8</title>
<g id="a_edge13_Node000008_Node000008"><a xlink:title=" ">
<path fill="none" stroke="#63b8ff" d="M579.52,-134.99C572.87,-144.06 583.73,-152.5 612.12,-152.5 627.65,-152.5 637.94,-149.97 642.98,-146.2"/>
<polygon fill="#63b8ff" stroke="#63b8ff" points="646.42,-146.9 644.5,-136.48 639.5,-145.82 646.42,-146.9"/>
</a>
</g>
</g>
<!-- Node23&#45;&gt;Node23 -->
<g id="edge17_Node000023_Node000023" class="edge">
<title>Node23&#45;&gt;Node23</title>
<g id="a_edge17_Node000023_Node000023"><a xlink:title=" ">
<path fill="none" stroke="#63b8ff" d="M579.52,-30.99C572.87,-40.06 583.73,-48.5 612.12,-48.5 627.65,-48.5 637.94,-45.97 642.98,-42.2"/>
<polygon fill="#63b8ff" stroke="#63b8ff" points="646.42,-42.9 644.5,-32.48 639.5,-41.82 646.42,-42.9"/>
</a>
</g>
</g>
</g>
</svg>
