<?xml version="1.0" encoding="UTF-8" standalone="no"?>
<!DOCTYPE svg PUBLIC "-//W3C//DTD SVG 1.1//EN"
 "http://www.w3.org/Graphics/SVG/1.1/DTD/svg11.dtd">
<!-- Generated by graphviz version 14.0.2 (0)
 -->
<!-- Title: juce::ByteOrder::littleEndianShort Pages: 1 -->
<svg width="300pt" height="51pt"
 viewBox="0.00 0.00 300.00 51.00" xmlns="http://www.w3.org/2000/svg" xmlns:xlink="http://www.w3.org/1999/xlink">
<g id="graph0" class="graph" transform="scale(1 1) rotate(0) translate(4 46.88)">
<title>juce::ByteOrder::littleEndianShort</title>
<!-- Node1 -->
<g id="Node000001" class="node">
<title>Node1</title>
<g id="a_Node000001"><a xlink:title=" ">
<polygon fill="#999999" stroke="#666666" points="133.75,-30.5 0,-30.5 0,0 133.75,0 133.75,-30.5"/>
<text xml:space="preserve" text-anchor="start" x="8" y="-17" font-family="Helvetica,sans-Serif" font-size="10.00">juce::ByteOrder::littleEndian</text>
<text xml:space="preserve" text-anchor="middle" x="66.88" y="-5.75" font-family="Helvetica,sans-Serif" font-size="10.00">Short</text>
</a>
</g>
</g>
<!-- Node2 -->
<g id="Node000002" class="node">
<title>Node2</title>
<g id="a_Node000002"><a xlink:href="classjuce_1_1ByteOrder.html#a8760d546a7d4adbcaed7771861b65827" target="_top" xlink:title=" ">
<polygon fill="white" stroke="#666666" points="291.5,-24.88 169.75,-24.88 169.75,-5.63 291.5,-5.63 291.5,-24.88"/>
<text xml:space="preserve" text-anchor="middle" x="230.62" y="-11.38" font-family="Helvetica,sans-Serif" font-size="10.00">juce::ByteOrder::makeInt</text>
</a>
</g>
</g>
<!-- Node1&#45;&gt;Node2 -->
<g id="edge1_Node000001_Node000002" class="edge">
<title>Node1&#45;&gt;Node2</title>
<g id="a_edge1_Node000001_Node000002"><a xlink:title=" ">
<path fill="none" stroke="#63b8ff" d="M134.13,-15.25C141.99,-15.25 150.03,-15.25 157.96,-15.25"/>
<polygon fill="#63b8ff" stroke="#63b8ff" points="157.93,-18.75 167.93,-15.25 157.93,-11.75 157.93,-18.75"/>
</a>
</g>
</g>
<!-- Node2&#45;&gt;Node2 -->
<g id="edge2_Node000002_Node000002" class="edge">
<title>Node2&#45;&gt;Node2</title>
<g id="a_edge2_Node000002_Node000002"><a xlink:title=" ">
<path fill="none" stroke="#63b8ff" d="M204.99,-25.16C193.3,-33.77 201.84,-42.88 230.62,-42.88 246.82,-42.88 256.6,-39.99 259.99,-35.94"/>
<polygon fill="#63b8ff" stroke="#63b8ff" points="263.33,-34.9 256.76,-26.59 256.72,-37.19 263.33,-34.9"/>
</a>
</g>
</g>
</g>
</svg>
