<?xml version="1.0" encoding="UTF-8" standalone="no"?>
<!DOCTYPE svg PUBLIC "-//W3C//DTD SVG 1.1//EN"
 "http://www.w3.org/Graphics/SVG/1.1/DTD/svg11.dtd">
<!-- Generated by graphviz version 14.0.2 (0)
 -->
<!-- Title: lmms::RemotePluginBase::invalidate Pages: 1 -->
<!--zoomable 112 -->

<svg id="main" version="1.1" xmlns="http://www.w3.org/2000/svg" xmlns:xlink="http://www.w3.org/1999/xlink" xml:space="preserve" onload="init(evt)">

<style type="text/css"><![CDATA[
.node, .edge {opacity: 0.7;}
.node.selected, .edge.selected {opacity: 1;}
.edge:hover path { stroke: red; }
.edge:hover polygon { stroke: red; fill: red; }
]]></style>

<defs>
  <circle id="rim" cx="0" cy="0" r="7"/>
  <circle id="rim2" cx="0" cy="0" r="3.5"/>
  <g id="zoomPlus">
    <use xlink:href="#rim" fill="#404040"><set attributeName="fill" to="#808080" begin="zoomplus.mouseover" end="zoomplus.mouseout"/></use>
    <path d="M-4,0h8M0,-4v8" fill="none" stroke="white" stroke-width="1.5" pointer-events="none"/>
  </g>
  <g id="zoomMin">
    <use xlink:href="#rim" fill="#404040"><set attributeName="fill" to="#808080" begin="zoomminus.mouseover" end="zoomminus.mouseout"/></use>
    <path d="M-4,0h8" fill="none" stroke="white" stroke-width="1.5" pointer-events="none"/>
  </g>
  <g id="arrowUp" transform="translate(30 24)">
    <use xlink:href="#rim"/>
    <path pointer-events="none" fill="none" stroke="white" stroke-width="1.5" d="M0,-3.0v7 M-2.5,-0.5L0,-3.0L2.5,-0.5"/>
  </g>
  <g id="arrowRight" transform="rotate(90) translate(36 -43)">
    <use xlink:href="#rim"/>
    <path pointer-events="none" fill="none" stroke="white" stroke-width="1.5" d="M0,-3.0v7 M-2.5,-0.5L0,-3.0L2.5,-0.5"/>
  </g>
  <g id="arrowDown" transform="rotate(180) translate(-30 -48)">
    <use xlink:href="#rim"/>
    <path pointer-events="none" fill="none" stroke="white" stroke-width="1.5" d="M0,-3.0v7 M-2.5,-0.5L0,-3.0L2.5,-0.5"/>
  </g>
  <g id="arrowLeft" transform="rotate(270) translate(-36 17)">
    <use xlink:href="#rim"/>
    <path pointer-events="none" fill="none" stroke="white" stroke-width="1.5" d="M0,-3.0v7 M-2.5,-0.5L0,-3.0L2.5,-0.5"/>
  </g>
  <g id="resetDef">
    <use xlink:href="#rim2" fill="#404040"><set attributeName="fill" to="#808080" begin="reset.mouseover" end="reset.mouseout"/></use>
  </g>
</defs>
<script type="application/ecmascript">
var viewWidth = 620;
var viewHeight = 112;
var sectionId = 'dynsection-9';
</script>
<script type="application/ecmascript" xlink:href="svg.min.js"/>
<svg id="graph" class="graph">
<g id="viewport">
<title>lmms::RemotePluginBase::invalidate</title>
<!-- Node1 -->
<g id="Node000001" class="node">
<title>Node1</title>
<g id="a_Node000001"><a xlink:title=" ">
<polygon fill="#999999" stroke="#666666" points="612.25,-78.5 484.5,-78.5 484.5,-48 612.25,-48 612.25,-78.5"/>
<text xml:space="preserve" text-anchor="start" x="492.5" y="-65" font-family="Helvetica,sans-Serif" font-size="10.00">lmms::RemotePluginBase</text>
<text xml:space="preserve" text-anchor="middle" x="548.38" y="-53.75" font-family="Helvetica,sans-Serif" font-size="10.00">::invalidate</text>
</a>
</g>
</g>
<!-- Node2 -->
<g id="Node000002" class="node">
<title>Node2</title>
<g id="a_Node000002"><a xlink:href="classlmms_1_1RemotePlugin.html#ac9933915da112c7667edb62ac4d4a5e6" target="_top" xlink:title=" ">
<polygon fill="white" stroke="#666666" points="448.5,-103.5 343.25,-103.5 343.25,-73 448.5,-73 448.5,-103.5"/>
<text xml:space="preserve" text-anchor="start" x="351.25" y="-90" font-family="Helvetica,sans-Serif" font-size="10.00">lmms::RemotePlugin</text>
<text xml:space="preserve" text-anchor="middle" x="395.88" y="-78.75" font-family="Helvetica,sans-Serif" font-size="10.00">::init</text>
</a>
</g>
</g>
<!-- Node1&#45;&gt;Node2 -->
<g id="edge1_Node000001_Node000002" class="edge">
<title>Node1&#45;&gt;Node2</title>
<g id="a_edge1_Node000001_Node000002"><a xlink:title=" ">
<path fill="none" stroke="#63b8ff" d="M473.16,-75.58C464.86,-76.96 456.55,-78.34 448.63,-79.65"/>
<polygon fill="#63b8ff" stroke="#63b8ff" points="473.64,-79.05 482.93,-73.96 472.49,-72.14 473.64,-79.05"/>
</a>
</g>
</g>
<!-- Node3 -->
<g id="Node000003" class="node">
<title>Node3</title>
<g id="a_Node000003"><a xlink:href="classlmms_1_1RemotePlugin.html#a4a12dcd50fa4564a9a492c26c2bf3dda" target="_top" xlink:title=" ">
<polygon fill="white" stroke="#666666" points="448.5,-54.5 343.25,-54.5 343.25,-24 448.5,-24 448.5,-54.5"/>
<text xml:space="preserve" text-anchor="start" x="351.25" y="-41" font-family="Helvetica,sans-Serif" font-size="10.00">lmms::RemotePlugin</text>
<text xml:space="preserve" text-anchor="middle" x="395.88" y="-29.75" font-family="Helvetica,sans-Serif" font-size="10.00">::processFinished</text>
</a>
</g>
</g>
<!-- Node1&#45;&gt;Node3 -->
<g id="edge2_Node000001_Node000003" class="edge">
<title>Node1&#45;&gt;Node3</title>
<g id="a_edge2_Node000001_Node000003"><a xlink:title=" ">
<path fill="none" stroke="#63b8ff" d="M473.16,-51.41C464.86,-50.09 456.55,-48.77 448.63,-47.5"/>
<polygon fill="#63b8ff" stroke="#63b8ff" points="472.5,-54.85 482.93,-52.97 473.6,-47.94 472.5,-54.85"/>
</a>
</g>
</g>
<!-- Node4 -->
<g id="Node000004" class="node">
<title>Node4</title>
<g id="a_Node000004"><a xlink:href="classlmms_1_1RemotePlugin.html#a9b065a561632abfe205b779100775775" target="_top" xlink:title=" ">
<polygon fill="white" stroke="#666666" points="307.25,-79.5 202,-79.5 202,-49 307.25,-49 307.25,-79.5"/>
<text xml:space="preserve" text-anchor="start" x="210" y="-66" font-family="Helvetica,sans-Serif" font-size="10.00">lmms::RemotePlugin</text>
<text xml:space="preserve" text-anchor="middle" x="254.62" y="-54.75" font-family="Helvetica,sans-Serif" font-size="10.00">::ProcessWatcher</text>
</a>
</g>
</g>
<!-- Node3&#45;&gt;Node4 -->
<g id="edge3_Node000003_Node000004" class="edge">
<title>Node3&#45;&gt;Node4</title>
<g id="a_edge3_Node000003_Node000004"><a xlink:title=" ">
<path fill="none" stroke="#63b8ff" d="M331.71,-50.59C323.61,-52.04 315.4,-53.52 307.52,-54.93"/>
<polygon fill="#63b8ff" stroke="#63b8ff" points="332.31,-54.04 341.53,-48.83 331.07,-47.15 332.31,-54.04"/>
</a>
</g>
</g>
<!-- Node5 -->
<g id="Node000005" class="node">
<title>Node5</title>
<g id="a_Node000005"><a xlink:href="classlmms_1_1RemotePlugin.html#aec89f612111cc6fd8be76955e73dbc1f" target="_top" xlink:title=" ">
<polygon fill="white" stroke="#666666" points="307.25,-30.5 202,-30.5 202,0 307.25,0 307.25,-30.5"/>
<text xml:space="preserve" text-anchor="start" x="210" y="-17" font-family="Helvetica,sans-Serif" font-size="10.00">lmms::RemotePlugin</text>
<text xml:space="preserve" text-anchor="middle" x="254.62" y="-5.75" font-family="Helvetica,sans-Serif" font-size="10.00">::RemotePlugin</text>
</a>
</g>
</g>
<!-- Node3&#45;&gt;Node5 -->
<g id="edge5_Node000003_Node000005" class="edge">
<title>Node3&#45;&gt;Node5</title>
<g id="a_edge5_Node000003_Node000005"><a xlink:title=" ">
<path fill="none" stroke="#63b8ff" d="M331.71,-28.36C323.61,-26.97 315.4,-25.55 307.52,-24.19"/>
<polygon fill="#63b8ff" stroke="#63b8ff" points="331.08,-31.81 341.53,-30.06 332.27,-24.91 331.08,-31.81"/>
</a>
</g>
</g>
<!-- Node4&#45;&gt;Node4 -->
<g id="edge4_Node000004_Node000004" class="edge">
<title>Node4&#45;&gt;Node4</title>
<g id="a_edge4_Node000004_Node000004"><a xlink:title=" ">
<path fill="none" stroke="#63b8ff" d="M278.31,-91.2C274.44,-94.97 266.54,-97.5 254.62,-97.5 232.83,-97.5 224.49,-89.06 229.6,-79.99"/>
<polygon fill="#63b8ff" stroke="#63b8ff" points="281.76,-91.83 279.47,-81.49 274.81,-91 281.76,-91.83"/>
</a>
</g>
</g>
<!-- Node6 -->
<g id="Node000006" class="node">
<title>Node6</title>
<g id="a_Node000006"><a xlink:href="classlmms_1_1ZynAddSubFxRemotePlugin.html#a53e382625ae91bdf5c1166f2d63b03cc" target="_top" xlink:title=" ">
<polygon fill="white" stroke="#666666" points="166,-30.5 0,-30.5 0,0 166,0 166,-30.5"/>
<text xml:space="preserve" text-anchor="start" x="8" y="-17" font-family="Helvetica,sans-Serif" font-size="10.00">lmms::ZynAddSubFxRemotePlugin</text>
<text xml:space="preserve" text-anchor="middle" x="83" y="-5.75" font-family="Helvetica,sans-Serif" font-size="10.00">::ZynAddSubFxRemotePlugin</text>
</a>
</g>
</g>
<!-- Node5&#45;&gt;Node6 -->
<g id="edge6_Node000005_Node000006" class="edge">
<title>Node5&#45;&gt;Node6</title>
<g id="a_edge6_Node000005_Node000006"><a xlink:title=" ">
<path fill="none" stroke="#63b8ff" d="M190.52,-15.25C182.66,-15.25 174.54,-15.25 166.44,-15.25"/>
<polygon fill="#63b8ff" stroke="#63b8ff" points="190.3,-18.75 200.3,-15.25 190.3,-11.75 190.3,-18.75"/>
</a>
</g>
</g>
</g>
</svg>

<g id="navigator" transform="translate(0 0)" fill="#404254">
  <rect fill="#f2f5e9" fill-opacity="0.5" stroke="#606060" stroke-width=".5" x="0" y="0" width="60" height="60"/>
  <use id="zoomplus" xlink:href="#zoomPlus" x="17" y="9" onmousedown="handleZoom(evt,'in')"/>
  <use id="zoomminus" xlink:href="#zoomMin" x="42" y="9" onmousedown="handleZoom(evt,'out')"/>
  <use id="reset" xlink:href="#resetDef" x="30" y="36" onmousedown="handleReset()"/>
   <use id="arrowup" xlink:href="#arrowUp" x="0" y="0" onmousedown="handlePan(0,-1)"/>
  <use id="arrowright" xlink:href="#arrowRight" x="0" y="0" onmousedown="handlePan(1,0)"/>
  <use id="arrowdown" xlink:href="#arrowDown" x="0" y="0" onmousedown="handlePan(0,1)"/>
  <use id="arrowleft" xlink:href="#arrowLeft" x="0" y="0" onmousedown="handlePan(-1,0)"/>
</g>
<svg viewBox="0 0 15 15" width="100%" height="30px" preserveAspectRatio="xMaxYMin meet">
 <g id="arrow_out" transform="scale(0.3 0.3)">
  <a xlink:href="classlmms_1_1RemotePluginBase_a37cd65f72c933fcf29454f4370a9d6ee_icgraph_org.svg" target="_base">
   <rect id="button" ry="5" rx="5" y="6" x="6" height="38" width="38"
        fill="#f2f5e9" fill-opacity="0.5" stroke="#606060" stroke-width="1.0"/>
   <path id="arrow"
     d="M 11.500037,31.436501 C 11.940474,20.09759 22.043105,11.32322 32.158766,21.979434 L 37.068811,17.246167 C 37.068811,17.246167 37.088388,32 37.088388,32 L 22.160133,31.978069 C 22.160133,31.978069 26.997745,27.140456 26.997745,27.140456 C 18.528582,18.264221 13.291696,25.230495 11.500037,31.436501 z"
     style="fill:#404040;"/>
  </a>
 </g>
</svg>

<style type='text/css'>
<![CDATA[
[data-mouse-over-selected='false'] { opacity: 0.7; }
[data-mouse-over-selected='true']  { opacity: 1.0; }
]]>
</style>
<script type="application/ecmascript"><![CDATA[
document.addEventListener('DOMContentLoaded', (event) => {
  highlightEdges();
  highlightAdjacentNodes();
});
]]></script>
</svg>
