<?xml version="1.0" encoding="UTF-8" standalone="no"?>
<!DOCTYPE svg PUBLIC "-//W3C//DTD SVG 1.1//EN"
 "http://www.w3.org/Graphics/SVG/1.1/DTD/svg11.dtd">
<!-- Generated by graphviz version 14.0.2 (0)
 -->
<!-- Title: CarlaPluginVST3::deactivate Pages: 1 -->
<svg width="641pt" height="223pt"
 viewBox="0.00 0.00 641.00 223.00" xmlns="http://www.w3.org/2000/svg" xmlns:xlink="http://www.w3.org/1999/xlink">
<g id="graph0" class="graph" transform="scale(1 1) rotate(0) translate(4 218.5)">
<title>CarlaPluginVST3::deactivate</title>
<!-- Node1 -->
<g id="Node000001" class="node">
<title>Node1</title>
<g id="a_Node000001"><a xlink:title=" ">
<polygon fill="#999999" stroke="#666666" points="139.75,-122.88 0,-122.88 0,-103.62 139.75,-103.62 139.75,-122.88"/>
<text xml:space="preserve" text-anchor="middle" x="69.88" y="-109.38" font-family="Helvetica,sans-Serif" font-size="10.00">CarlaPluginVST3::deactivate</text>
</a>
</g>
</g>
<!-- Node2 -->
<g id="Node000002" class="node">
<title>Node2</title>
<g id="a_Node000002"><a xlink:href="classCarlaPluginVST3.html#a80b1f557cf6903df97c06002c8b47f3e" target="_top" xlink:title=" ">
<polygon fill="white" stroke="#666666" points="299.75,-128.5 175.75,-128.5 175.75,-98 299.75,-98 299.75,-128.5"/>
<text xml:space="preserve" text-anchor="start" x="183.75" y="-115" font-family="Helvetica,sans-Serif" font-size="10.00">CarlaPluginVST3::runIdle</text>
<text xml:space="preserve" text-anchor="middle" x="237.75" y="-103.75" font-family="Helvetica,sans-Serif" font-size="10.00">CallbacksAsNeeded</text>
</a>
</g>
</g>
<!-- Node1&#45;&gt;Node2 -->
<g id="edge1_Node000001_Node000002" class="edge">
<title>Node1&#45;&gt;Node2</title>
<g id="a_edge1_Node000001_Node000002"><a xlink:title=" ">
<path fill="none" stroke="#63b8ff" d="M139.78,-113.25C147.83,-113.25 156.05,-113.25 164.15,-113.25"/>
<polygon fill="#63b8ff" stroke="#63b8ff" points="163.96,-116.75 173.96,-113.25 163.96,-109.75 163.96,-116.75"/>
</a>
</g>
</g>
<!-- Node3 -->
<g id="Node000003" class="node">
<title>Node3</title>
<g id="a_Node000003"><a xlink:href="classAbstractLinkedList.html#a72f291bb900173c52860add6eb61c2bf" target="_top" xlink:title=" ">
<polygon fill="white" stroke="#666666" points="451.5,-214.5 353,-214.5 353,-184 451.5,-184 451.5,-214.5"/>
<text xml:space="preserve" text-anchor="start" x="361" y="-201" font-family="Helvetica,sans-Serif" font-size="10.00">AbstractLinkedList</text>
<text xml:space="preserve" text-anchor="middle" x="402.25" y="-189.75" font-family="Helvetica,sans-Serif" font-size="10.00">::begin2</text>
</a>
</g>
</g>
<!-- Node2&#45;&gt;Node3 -->
<g id="edge2_Node000002_Node000003" class="edge">
<title>Node2&#45;&gt;Node3</title>
<g id="a_edge2_Node000002_Node000003"><a xlink:title=" ">
<path fill="none" stroke="#63b8ff" d="M260.29,-128.96C279.44,-142.44 308.53,-161.76 335.75,-175.25 338.45,-176.59 341.25,-177.9 344.1,-179.16"/>
<polygon fill="#63b8ff" stroke="#63b8ff" points="342.59,-182.32 353.16,-182.98 345.31,-175.87 342.59,-182.32"/>
</a>
</g>
</g>
<!-- Node4 -->
<g id="Node000004" class="node">
<title>Node4</title>
<g id="a_Node000004"><a xlink:href="CarlaUtils_8hpp.html#abf1474557c4e39a89912ddcc3596874d" target="_top" xlink:title=" ">
<polygon fill="white" stroke="#666666" points="456,-165.88 348.5,-165.88 348.5,-146.62 456,-146.62 456,-165.88"/>
<text xml:space="preserve" text-anchor="middle" x="402.25" y="-152.38" font-family="Helvetica,sans-Serif" font-size="10.00">carla_safe_exception</text>
</a>
</g>
</g>
<!-- Node2&#45;&gt;Node4 -->
<g id="edge3_Node000002_Node000004" class="edge">
<title>Node2&#45;&gt;Node4</title>
<g id="a_edge3_Node000002_Node000004"><a xlink:title=" ">
<path fill="none" stroke="#63b8ff" d="M297.88,-128.9C315.74,-133.62 335.15,-138.76 352.28,-143.29"/>
<polygon fill="#63b8ff" stroke="#63b8ff" points="351.14,-146.61 361.7,-145.78 352.93,-139.84 351.14,-146.61"/>
</a>
</g>
</g>
<!-- Node7 -->
<g id="Node000007" class="node">
<title>Node7</title>
<g id="a_Node000007"><a xlink:href="namespacewater_1_1Time.html#aa9bbbe4fbe3fed5e5915d9b6d06b0bb0" target="_top" xlink:title=" ">
<polygon fill="white" stroke="#666666" points="468.75,-128.5 335.75,-128.5 335.75,-98 468.75,-98 468.75,-128.5"/>
<text xml:space="preserve" text-anchor="start" x="343.75" y="-115" font-family="Helvetica,sans-Serif" font-size="10.00">water::Time::getMillisecond</text>
<text xml:space="preserve" text-anchor="middle" x="402.25" y="-103.75" font-family="Helvetica,sans-Serif" font-size="10.00">Counter</text>
</a>
</g>
</g>
<!-- Node2&#45;&gt;Node7 -->
<g id="edge5_Node000002_Node000007" class="edge">
<title>Node2&#45;&gt;Node7</title>
<g id="a_edge5_Node000002_Node000007"><a xlink:title=" ">
<path fill="none" stroke="#63b8ff" d="M300.18,-113.25C308,-113.25 316.08,-113.25 324.11,-113.25"/>
<polygon fill="#63b8ff" stroke="#63b8ff" points="323.88,-116.75 333.88,-113.25 323.88,-109.75 323.88,-116.75"/>
</a>
</g>
</g>
<!-- Node9 -->
<g id="Node000009" class="node">
<title>Node9</title>
<g id="a_Node000009"><a xlink:href="classAbstractLinkedList.html#a1401d2fa7c8a68ff57c620727544561f" target="_top" xlink:title=" ">
<polygon fill="white" stroke="#666666" points="451.5,-79.5 353,-79.5 353,-49 451.5,-49 451.5,-79.5"/>
<text xml:space="preserve" text-anchor="start" x="361" y="-66" font-family="Helvetica,sans-Serif" font-size="10.00">AbstractLinkedList</text>
<text xml:space="preserve" text-anchor="middle" x="402.25" y="-54.75" font-family="Helvetica,sans-Serif" font-size="10.00">::isNotEmpty</text>
</a>
</g>
</g>
<!-- Node2&#45;&gt;Node9 -->
<g id="edge7_Node000002_Node000009" class="edge">
<title>Node2&#45;&gt;Node9</title>
<g id="a_edge7_Node000002_Node000009"><a xlink:title=" ">
<path fill="none" stroke="#63b8ff" d="M290.61,-97.61C306.92,-92.69 325.05,-87.23 341.84,-82.17"/>
<polygon fill="#63b8ff" stroke="#63b8ff" points="342.63,-85.58 351.19,-79.34 340.61,-78.88 342.63,-85.58"/>
</a>
</g>
</g>
<!-- Node10 -->
<g id="Node000010" class="node">
<title>Node10</title>
<g id="a_Node000010"><a xlink:href="classAbstractLinkedList_1_1Itenerator.html#a9548d1c1e467fcc2b3165b98f2f2f19b" target="_top" xlink:title=" ">
<polygon fill="white" stroke="#666666" points="451.5,-30.5 353,-30.5 353,0 451.5,0 451.5,-30.5"/>
<text xml:space="preserve" text-anchor="start" x="361" y="-17" font-family="Helvetica,sans-Serif" font-size="10.00">AbstractLinkedList</text>
<text xml:space="preserve" text-anchor="middle" x="402.25" y="-5.75" font-family="Helvetica,sans-Serif" font-size="10.00">::Itenerator::valid</text>
</a>
</g>
</g>
<!-- Node2&#45;&gt;Node10 -->
<g id="edge8_Node000002_Node000010" class="edge">
<title>Node2&#45;&gt;Node10</title>
<g id="a_edge8_Node000002_Node000010"><a xlink:title=" ">
<path fill="none" stroke="#63b8ff" d="M256.29,-97.63C274.96,-81.61 305.87,-56.77 335.75,-40.25 338.74,-38.6 341.87,-37 345.06,-35.48"/>
<polygon fill="#63b8ff" stroke="#63b8ff" points="346.32,-38.75 354.02,-31.47 343.46,-32.36 346.32,-38.75"/>
</a>
</g>
</g>
<!-- Node5 -->
<g id="Node000005" class="node">
<title>Node5</title>
<g id="a_Node000005"><a xlink:href="CarlaUtils_8hpp.html#adcbd5a9383b671ccea31bef34e761928" target="_top" xlink:title=" ">
<polygon fill="#fff0f0" stroke="red" points="604.75,-165.88 532.5,-165.88 532.5,-146.62 604.75,-146.62 604.75,-165.88"/>
<text xml:space="preserve" text-anchor="middle" x="568.62" y="-152.38" font-family="Helvetica,sans-Serif" font-size="10.00">carla_stderr2</text>
</a>
</g>
</g>
<!-- Node4&#45;&gt;Node5 -->
<g id="edge4_Node000004_Node000005" class="edge">
<title>Node4&#45;&gt;Node5</title>
<g id="a_edge4_Node000004_Node000005"><a xlink:title=" ">
<path fill="none" stroke="#63b8ff" d="M456.16,-156.25C477.03,-156.25 500.8,-156.25 521.01,-156.25"/>
<polygon fill="#63b8ff" stroke="#63b8ff" points="520.93,-159.75 530.93,-156.25 520.93,-152.75 520.93,-159.75"/>
</a>
</g>
</g>
<!-- Node8 -->
<g id="Node000008" class="node">
<title>Node8</title>
<g id="a_Node000008"><a xlink:href="namespacewater.html#a13fe47d216aab41988bf2f561709c6a3" target="_top" xlink:title=" ">
<polygon fill="white" stroke="#666666" points="632.5,-128.5 504.75,-128.5 504.75,-98 632.5,-98 632.5,-128.5"/>
<text xml:space="preserve" text-anchor="start" x="512.75" y="-115" font-family="Helvetica,sans-Serif" font-size="10.00">water::water_milliseconds</text>
<text xml:space="preserve" text-anchor="middle" x="568.62" y="-103.75" font-family="Helvetica,sans-Serif" font-size="10.00">SinceStartup</text>
</a>
</g>
</g>
<!-- Node7&#45;&gt;Node8 -->
<g id="edge6_Node000007_Node000008" class="edge">
<title>Node7&#45;&gt;Node8</title>
<g id="a_edge6_Node000007_Node000008"><a xlink:title=" ">
<path fill="none" stroke="#63b8ff" d="M469.16,-113.25C476.96,-113.25 484.97,-113.25 492.88,-113.25"/>
<polygon fill="#63b8ff" stroke="#63b8ff" points="492.86,-116.75 502.86,-113.25 492.86,-109.75 492.86,-116.75"/>
</a>
</g>
</g>
</g>
</svg>
