<?xml version="1.0" encoding="UTF-8" standalone="no"?>
<!DOCTYPE svg PUBLIC "-//W3C//DTD SVG 1.1//EN"
 "http://www.w3.org/Graphics/SVG/1.1/DTD/svg11.dtd">
<!-- Generated by graphviz version 14.0.2 (0)
 -->
<!-- Title: CarlaPluginLADSPADSSI::setCustomData Pages: 1 -->
<svg width="649pt" height="189pt"
 viewBox="0.00 0.00 649.00 189.00" xmlns="http://www.w3.org/2000/svg" xmlns:xlink="http://www.w3.org/1999/xlink">
<g id="graph0" class="graph" transform="scale(1 1) rotate(0) translate(4 185.25)">
<title>CarlaPluginLADSPADSSI::setCustomData</title>
<!-- Node1 -->
<g id="Node000001" class="node">
<title>Node1</title>
<g id="a_Node000001"><a xlink:title=" ">
<polygon fill="#999999" stroke="#666666" points="128.5,-110.88 0,-110.88 0,-80.38 128.5,-80.38 128.5,-110.88"/>
<text xml:space="preserve" text-anchor="start" x="8" y="-97.38" font-family="Helvetica,sans-Serif" font-size="10.00">CarlaPluginLADSPADSSI</text>
<text xml:space="preserve" text-anchor="middle" x="64.25" y="-86.12" font-family="Helvetica,sans-Serif" font-size="10.00">::setCustomData</text>
</a>
</g>
</g>
<!-- Node2 -->
<g id="Node000002" class="node">
<title>Node2</title>
<g id="a_Node000002"><a xlink:href="CarlaUtils_8hpp.html#ac78ad69fd16caf2847fbb0ceca9c9d92" target="_top" xlink:title=" ">
<polygon fill="white" stroke="#666666" points="427.5,-124.25 377,-124.25 377,-105 427.5,-105 427.5,-124.25"/>
<text xml:space="preserve" text-anchor="middle" x="402.25" y="-110.75" font-family="Helvetica,sans-Serif" font-size="10.00">bool2str</text>
</a>
</g>
</g>
<!-- Node1&#45;&gt;Node2 -->
<g id="edge1_Node000001_Node000002" class="edge">
<title>Node1&#45;&gt;Node2</title>
<g id="a_edge1_Node000001_Node000002"><a xlink:title=" ">
<path fill="none" stroke="#63b8ff" d="M128.8,-109.63C140.61,-111.71 152.89,-113.52 164.5,-114.62 235.46,-121.36 318.91,-118.97 365.38,-116.73"/>
<polygon fill="#63b8ff" stroke="#63b8ff" points="365.32,-120.23 375.13,-116.23 364.96,-113.24 365.32,-120.23"/>
</a>
</g>
</g>
<!-- Node3 -->
<g id="Node000003" class="node">
<title>Node3</title>
<g id="a_Node000003"><a xlink:href="CarlaUtils_8hpp.html#adcbd5a9383b671ccea31bef34e761928" target="_top" xlink:title=" ">
<polygon fill="white" stroke="#666666" points="269.38,-181.25 197.12,-181.25 197.12,-162 269.38,-162 269.38,-181.25"/>
<text xml:space="preserve" text-anchor="middle" x="233.25" y="-167.75" font-family="Helvetica,sans-Serif" font-size="10.00">carla_stderr2</text>
</a>
</g>
</g>
<!-- Node1&#45;&gt;Node3 -->
<g id="edge2_Node000001_Node000003" class="edge">
<title>Node1&#45;&gt;Node3</title>
<g id="a_edge2_Node000001_Node000003"><a xlink:title=" ">
<path fill="none" stroke="#63b8ff" d="M92.54,-111.27C112.2,-122.2 139.54,-136.73 164.5,-147.62 172.7,-151.2 181.63,-154.66 190.22,-157.79"/>
<polygon fill="#63b8ff" stroke="#63b8ff" points="188.84,-161.01 199.43,-161.04 191.17,-154.41 188.84,-161.01"/>
</a>
</g>
</g>
<!-- Node5 -->
<g id="Node000005" class="node">
<title>Node5</title>
<g id="a_Node000005"><a xlink:href="CarlaOscUtils_8hpp.html#abf52e4c6efd485d9c1f1d7df6c590468" target="_top" xlink:title=" ">
<polygon fill="white" stroke="#666666" points="284.38,-105.25 182.12,-105.25 182.12,-86 284.38,-86 284.38,-105.25"/>
<text xml:space="preserve" text-anchor="middle" x="233.25" y="-91.75" font-family="Helvetica,sans-Serif" font-size="10.00">osc_send_configure</text>
</a>
</g>
</g>
<!-- Node1&#45;&gt;Node5 -->
<g id="edge4_Node000001_Node000005" class="edge">
<title>Node1&#45;&gt;Node5</title>
<g id="a_edge4_Node000001_Node000005"><a xlink:title=" ">
<path fill="none" stroke="#63b8ff" d="M128.86,-95.62C142.54,-95.62 156.98,-95.62 170.59,-95.62"/>
<polygon fill="#63b8ff" stroke="#63b8ff" points="170.28,-99.13 180.28,-95.63 170.28,-92.13 170.28,-99.13"/>
</a>
</g>
</g>
<!-- Node6 -->
<g id="Node000006" class="node">
<title>Node6</title>
<g id="a_Node000006"><a xlink:href="classCarlaPluginLADSPADSSI.html#ac247fd75fd1d345829710792b1db416d" target="_top" xlink:title=" ">
<polygon fill="white" stroke="#666666" points="297.5,-67.88 169,-67.88 169,-37.38 297.5,-37.38 297.5,-67.88"/>
<text xml:space="preserve" text-anchor="start" x="177" y="-54.38" font-family="Helvetica,sans-Serif" font-size="10.00">CarlaPluginLADSPADSSI</text>
<text xml:space="preserve" text-anchor="middle" x="233.25" y="-43.12" font-family="Helvetica,sans-Serif" font-size="10.00">::reloadPrograms</text>
</a>
</g>
</g>
<!-- Node1&#45;&gt;Node6 -->
<g id="edge5_Node000001_Node000006" class="edge">
<title>Node1&#45;&gt;Node6</title>
<g id="a_edge5_Node000001_Node000006"><a xlink:title=" ">
<path fill="none" stroke="#63b8ff" d="M126.01,-79.98C137.18,-77.1 148.93,-74.08 160.39,-71.13"/>
<polygon fill="#63b8ff" stroke="#63b8ff" points="160.98,-74.59 169.79,-68.71 159.23,-67.81 160.98,-74.59"/>
</a>
</g>
</g>
<!-- Node262 -->
<g id="Node000262" class="node">
<title>Node262</title>
<g id="a_Node000262"><a xlink:href="classCarlaPlugin.html#a644affbf8ab8cd93c2ae747d63bd6c4b" target="_top" xlink:title=" ">
<polygon fill="#fff0f0" stroke="red" points="302,-19.25 164.5,-19.25 164.5,0 302,0 302,-19.25"/>
<text xml:space="preserve" text-anchor="middle" x="233.25" y="-5.75" font-family="Helvetica,sans-Serif" font-size="10.00">CarlaPlugin::setCustomData</text>
</a>
</g>
</g>
<!-- Node1&#45;&gt;Node262 -->
<g id="edge11_Node000001_Node000262" class="edge">
<title>Node1&#45;&gt;Node262</title>
<g id="a_edge11_Node000001_Node000262"><a xlink:title=" ">
<path fill="none" stroke="#63b8ff" d="M84.28,-80.04C103.48,-65 134.5,-42.51 164.5,-28.62 168.74,-26.66 173.23,-24.86 177.79,-23.22"/>
<polygon fill="#63b8ff" stroke="#63b8ff" points="178.67,-26.61 187.06,-20.14 176.47,-19.97 178.67,-26.61"/>
</a>
</g>
</g>
<!-- Node4 -->
<g id="Node000004" class="node">
<title>Node4</title>
<g id="a_Node000004"><a xlink:href="CarlaUtils_8hpp.html#a72c98b79b4bafee47a1e9249e83368f3" target="_top" xlink:title=" ">
<polygon fill="white" stroke="#666666" points="440.62,-181.25 363.88,-181.25 363.88,-162 440.62,-162 440.62,-181.25"/>
<text xml:space="preserve" text-anchor="middle" x="402.25" y="-167.75" font-family="Helvetica,sans-Serif" font-size="10.00">__carla_fopen</text>
</a>
</g>
</g>
<!-- Node3&#45;&gt;Node4 -->
<g id="edge3_Node000003_Node000004" class="edge">
<title>Node3&#45;&gt;Node4</title>
<g id="a_edge3_Node000003_Node000004"><a xlink:title=" ">
<path fill="none" stroke="#63b8ff" d="M269.67,-171.62C293.69,-171.62 325.76,-171.62 352.23,-171.62"/>
<polygon fill="#63b8ff" stroke="#63b8ff" points="352.05,-175.13 362.05,-171.63 352.05,-168.13 352.05,-175.13"/>
</a>
</g>
</g>
<!-- Node6&#45;&gt;Node2 -->
<g id="edge6_Node000006_Node000002" class="edge">
<title>Node6&#45;&gt;Node2</title>
<g id="a_edge6_Node000006_Node000002"><a xlink:title=" ">
<path fill="none" stroke="#63b8ff" d="M279.13,-68.35C286.77,-71.07 294.62,-73.91 302,-76.62 323.42,-84.52 347.32,-93.66 366.29,-100.99"/>
<polygon fill="#63b8ff" stroke="#63b8ff" points="364.84,-104.19 375.43,-104.54 367.37,-97.66 364.84,-104.19"/>
</a>
</g>
</g>
<!-- Node7 -->
<g id="Node000007" class="node">
<title>Node7</title>
<g id="a_Node000007"><a xlink:href="CarlaUtils_8hpp.html#a1ff5c959a9927010a97f05fb87c9ce22" target="_top" xlink:title=" ">
<polygon fill="white" stroke="#666666" points="436.88,-19.25 367.62,-19.25 367.62,0 436.88,0 436.88,-19.25"/>
<text xml:space="preserve" text-anchor="middle" x="402.25" y="-5.75" font-family="Helvetica,sans-Serif" font-size="10.00">carla_strdup</text>
</a>
</g>
</g>
<!-- Node6&#45;&gt;Node7 -->
<g id="edge7_Node000006_Node000007" class="edge">
<title>Node6&#45;&gt;Node7</title>
<g id="a_edge7_Node000006_Node000007"><a xlink:title=" ">
<path fill="none" stroke="#63b8ff" d="M295.01,-36.98C315.34,-31.74 337.62,-26.01 356.5,-21.15"/>
<polygon fill="#63b8ff" stroke="#63b8ff" points="357.2,-24.58 366.01,-18.7 355.45,-17.8 357.2,-24.58"/>
</a>
</g>
</g>
<!-- Node8 -->
<g id="Node000008" class="node">
<title>Node8</title>
<g id="a_Node000008"><a xlink:href="classCarlaPluginLADSPADSSI.html#a64eb5dadc4f73377b1bf82ce8731adff" target="_top" xlink:title=" ">
<polygon fill="white" stroke="#666666" points="466.5,-67.88 338,-67.88 338,-37.38 466.5,-37.38 466.5,-67.88"/>
<text xml:space="preserve" text-anchor="start" x="346" y="-54.38" font-family="Helvetica,sans-Serif" font-size="10.00">CarlaPluginLADSPADSSI</text>
<text xml:space="preserve" text-anchor="middle" x="402.25" y="-43.12" font-family="Helvetica,sans-Serif" font-size="10.00">::setMidiProgram</text>
</a>
</g>
</g>
<!-- Node6&#45;&gt;Node8 -->
<g id="edge8_Node000006_Node000008" class="edge">
<title>Node6&#45;&gt;Node8</title>
<g id="a_edge8_Node000006_Node000008"><a xlink:title=" ">
<path fill="none" stroke="#63b8ff" d="M297.86,-52.62C307.1,-52.62 316.69,-52.62 326.13,-52.62"/>
<polygon fill="#63b8ff" stroke="#63b8ff" points="326.02,-56.13 336.02,-52.63 326.02,-49.13 326.02,-56.13"/>
</a>
</g>
</g>
<!-- Node9 -->
<g id="Node000009" class="node">
<title>Node9</title>
<g id="a_Node000009"><a xlink:href="classCarlaPlugin.html#af0e6ed275980829e3b2e83b277d9c03f" target="_top" xlink:title=" ">
<polygon fill="#fff0f0" stroke="red" points="640.75,-83.25 502.5,-83.25 502.5,-64 640.75,-64 640.75,-83.25"/>
<text xml:space="preserve" text-anchor="middle" x="571.62" y="-69.75" font-family="Helvetica,sans-Serif" font-size="10.00">CarlaPlugin::setMidiProgram</text>
</a>
</g>
</g>
<!-- Node8&#45;&gt;Node9 -->
<g id="edge9_Node000008_Node000009" class="edge">
<title>Node8&#45;&gt;Node9</title>
<g id="a_edge9_Node000008_Node000009"><a xlink:title=" ">
<path fill="none" stroke="#63b8ff" d="M466.53,-60.56C474.55,-61.57 482.83,-62.61 491.06,-63.64"/>
<polygon fill="#63b8ff" stroke="#63b8ff" points="490.37,-67.08 500.72,-64.85 491.24,-60.14 490.37,-67.08"/>
</a>
</g>
</g>
<!-- Node294 -->
<g id="Node000294" class="node">
<title>Node294</title>
<g id="a_Node000294"><a xlink:href="classCarlaPluginLADSPADSSI.html#ae3a65ff185c1d09508402e39e308de81" target="_top" xlink:title=" ">
<polygon fill="white" stroke="#666666" points="635.88,-45.88 507.38,-45.88 507.38,-15.37 635.88,-15.37 635.88,-45.88"/>
<text xml:space="preserve" text-anchor="start" x="515.38" y="-32.38" font-family="Helvetica,sans-Serif" font-size="10.00">CarlaPluginLADSPADSSI</text>
<text xml:space="preserve" text-anchor="middle" x="571.62" y="-21.12" font-family="Helvetica,sans-Serif" font-size="10.00">::setMidiProgramInDSSI</text>
</a>
</g>
</g>
<!-- Node8&#45;&gt;Node294 -->
<g id="edge10_Node000008_Node000294" class="edge">
<title>Node8&#45;&gt;Node294</title>
<g id="a_edge10_Node000008_Node000294"><a xlink:title=" ">
<path fill="none" stroke="#63b8ff" d="M466.53,-44.31C476.04,-43.06 485.93,-41.76 495.66,-40.48"/>
<polygon fill="#63b8ff" stroke="#63b8ff" points="496.02,-43.96 505.48,-39.19 495.11,-37.02 496.02,-43.96"/>
</a>
</g>
</g>
<!-- Node262&#45;&gt;Node7 -->
<g id="edge12_Node000262_Node000007" class="edge">
<title>Node262&#45;&gt;Node7</title>
<g id="a_edge12_Node000262_Node000007"><a xlink:title=" ">
<path fill="none" stroke="#63b8ff" d="M302.18,-9.62C320.37,-9.62 339.59,-9.62 356.21,-9.62"/>
<polygon fill="#63b8ff" stroke="#63b8ff" points="355.74,-13.13 365.74,-9.63 355.74,-6.13 355.74,-13.13"/>
</a>
</g>
</g>
</g>
</svg>
