<?xml version="1.0" encoding="UTF-8" standalone="no"?>
<!DOCTYPE svg PUBLIC "-//W3C//DTD SVG 1.1//EN"
 "http://www.w3.org/Graphics/SVG/1.1/DTD/svg11.dtd">
<!-- Generated by graphviz version 14.0.2 (0)
 -->
<!-- Title: juce::MPESynthesiserVoice::isActive Pages: 1 -->
<!--zoomable 124 -->

<svg id="main" version="1.1" xmlns="http://www.w3.org/2000/svg" xmlns:xlink="http://www.w3.org/1999/xlink" xml:space="preserve" onload="init(evt)">

<style type="text/css"><![CDATA[
.node, .edge {opacity: 0.7;}
.node.selected, .edge.selected {opacity: 1;}
.edge:hover path { stroke: red; }
.edge:hover polygon { stroke: red; fill: red; }
]]></style>

<defs>
  <circle id="rim" cx="0" cy="0" r="7"/>
  <circle id="rim2" cx="0" cy="0" r="3.5"/>
  <g id="zoomPlus">
    <use xlink:href="#rim" fill="#404040"><set attributeName="fill" to="#808080" begin="zoomplus.mouseover" end="zoomplus.mouseout"/></use>
    <path d="M-4,0h8M0,-4v8" fill="none" stroke="white" stroke-width="1.5" pointer-events="none"/>
  </g>
  <g id="zoomMin">
    <use xlink:href="#rim" fill="#404040"><set attributeName="fill" to="#808080" begin="zoomminus.mouseover" end="zoomminus.mouseout"/></use>
    <path d="M-4,0h8" fill="none" stroke="white" stroke-width="1.5" pointer-events="none"/>
  </g>
  <g id="arrowUp" transform="translate(30 24)">
    <use xlink:href="#rim"/>
    <path pointer-events="none" fill="none" stroke="white" stroke-width="1.5" d="M0,-3.0v7 M-2.5,-0.5L0,-3.0L2.5,-0.5"/>
  </g>
  <g id="arrowRight" transform="rotate(90) translate(36 -43)">
    <use xlink:href="#rim"/>
    <path pointer-events="none" fill="none" stroke="white" stroke-width="1.5" d="M0,-3.0v7 M-2.5,-0.5L0,-3.0L2.5,-0.5"/>
  </g>
  <g id="arrowDown" transform="rotate(180) translate(-30 -48)">
    <use xlink:href="#rim"/>
    <path pointer-events="none" fill="none" stroke="white" stroke-width="1.5" d="M0,-3.0v7 M-2.5,-0.5L0,-3.0L2.5,-0.5"/>
  </g>
  <g id="arrowLeft" transform="rotate(270) translate(-36 17)">
    <use xlink:href="#rim"/>
    <path pointer-events="none" fill="none" stroke="white" stroke-width="1.5" d="M0,-3.0v7 M-2.5,-0.5L0,-3.0L2.5,-0.5"/>
  </g>
  <g id="resetDef">
    <use xlink:href="#rim2" fill="#404040"><set attributeName="fill" to="#808080" begin="reset.mouseover" end="reset.mouseout"/></use>
  </g>
</defs>
<script type="application/ecmascript">
var viewWidth = 608;
var viewHeight = 124;
var sectionId = 'dynsection-8';
</script>
<script type="application/ecmascript" xlink:href="svg.min.js"/>
<svg id="graph" class="graph">
<g id="viewport">
<title>juce::MPESynthesiserVoice::isActive</title>
<!-- Node1 -->
<g id="Node000001" class="node">
<title>Node1</title>
<g id="a_Node000001"><a xlink:title=" ">
<polygon fill="#999999" stroke="#666666" points="599.5,-63.5 464.25,-63.5 464.25,-33 599.5,-33 599.5,-63.5"/>
<text xml:space="preserve" text-anchor="start" x="472.25" y="-50" font-family="Helvetica,sans-Serif" font-size="10.00">juce::MPESynthesiserVoice</text>
<text xml:space="preserve" text-anchor="middle" x="531.88" y="-38.75" font-family="Helvetica,sans-Serif" font-size="10.00">::isActive</text>
</a>
</g>
</g>
<!-- Node2 -->
<g id="Node000002" class="node">
<title>Node2</title>
<g id="a_Node000002"><a xlink:href="classjuce_1_1MPESynthesiserVoice.html#aa177004a969556d05bc4d1c63943a60e" target="_top" xlink:title=" ">
<polygon fill="white" stroke="#666666" points="428.25,-97.5 293,-97.5 293,-67 428.25,-67 428.25,-97.5"/>
<text xml:space="preserve" text-anchor="start" x="301" y="-84" font-family="Helvetica,sans-Serif" font-size="10.00">juce::MPESynthesiserVoice</text>
<text xml:space="preserve" text-anchor="middle" x="360.62" y="-72.75" font-family="Helvetica,sans-Serif" font-size="10.00">::isCurrentlyPlayingNote</text>
</a>
</g>
</g>
<!-- Node1&#45;&gt;Node2 -->
<g id="edge1_Node000001_Node000002" class="edge">
<title>Node1&#45;&gt;Node2</title>
<g id="a_edge1_Node000001_Node000002"><a xlink:title=" ">
<path fill="none" stroke="#63b8ff" d="M452.96,-63.9C444.82,-65.54 436.59,-67.19 428.59,-68.8"/>
<polygon fill="#63b8ff" stroke="#63b8ff" points="453.38,-67.39 462.5,-61.99 452.01,-60.52 453.38,-67.39"/>
</a>
</g>
</g>
<!-- Node3 -->
<g id="Node000003" class="node">
<title>Node3</title>
<g id="a_Node000003"><a xlink:href="classjuce_1_1MPESynthesiserVoice.html#aeda7d897db5c126b90aceb9b28055d1d" target="_top" xlink:title=" ">
<polygon fill="white" stroke="#666666" points="428.25,-30.5 293,-30.5 293,0 428.25,0 428.25,-30.5"/>
<text xml:space="preserve" text-anchor="start" x="301" y="-17" font-family="Helvetica,sans-Serif" font-size="10.00">juce::MPESynthesiserVoice</text>
<text xml:space="preserve" text-anchor="middle" x="360.62" y="-5.75" font-family="Helvetica,sans-Serif" font-size="10.00">::isPlayingButReleased</text>
</a>
</g>
</g>
<!-- Node1&#45;&gt;Node3 -->
<g id="edge3_Node000001_Node000003" class="edge">
<title>Node1&#45;&gt;Node3</title>
<g id="a_edge3_Node000001_Node000003"><a xlink:title=" ">
<path fill="none" stroke="#63b8ff" d="M452.96,-33.06C444.82,-31.47 436.59,-29.87 428.59,-28.31"/>
<polygon fill="#63b8ff" stroke="#63b8ff" points="452.01,-36.44 462.5,-34.92 453.35,-29.57 452.01,-36.44"/>
</a>
</g>
</g>
<!-- Node2&#45;&gt;Node2 -->
<g id="edge2_Node000002_Node000002" class="edge">
<title>Node2&#45;&gt;Node2</title>
<g id="a_edge2_Node000002_Node000002"><a xlink:title=" ">
<path fill="none" stroke="#63b8ff" d="M387.27,-109.2C382.91,-112.97 374.03,-115.5 360.62,-115.5 336.11,-115.5 326.73,-107.06 332.47,-97.99"/>
<polygon fill="#63b8ff" stroke="#63b8ff" points="390.71,-109.86 388.58,-99.49 383.77,-108.93 390.71,-109.86"/>
</a>
</g>
</g>
<!-- Node3&#45;&gt;Node3 -->
<g id="edge8_Node000003_Node000003" class="edge">
<title>Node3&#45;&gt;Node3</title>
<g id="a_edge8_Node000003_Node000003"><a xlink:title=" ">
<path fill="none" stroke="#63b8ff" d="M387.27,-42.2C382.91,-45.97 374.03,-48.5 360.62,-48.5 336.11,-48.5 326.73,-40.06 332.47,-30.99"/>
<polygon fill="#63b8ff" stroke="#63b8ff" points="390.71,-42.86 388.58,-32.49 383.77,-41.93 390.71,-42.86"/>
</a>
</g>
</g>
<!-- Node4 -->
<g id="Node000004" class="node">
<title>Node4</title>
<g id="a_Node000004"><a xlink:href="classjuce_1_1MPESynthesiser.html#a9be6f2870ac7dbfa6db52ac2c91cebcd" target="_top" xlink:title=" ">
<polygon fill="white" stroke="#666666" points="257,-30.5 146.5,-30.5 146.5,0 257,0 257,-30.5"/>
<text xml:space="preserve" text-anchor="start" x="154.5" y="-17" font-family="Helvetica,sans-Serif" font-size="10.00">juce::MPESynthesiser</text>
<text xml:space="preserve" text-anchor="middle" x="201.75" y="-5.75" font-family="Helvetica,sans-Serif" font-size="10.00">::findVoiceToSteal</text>
</a>
</g>
</g>
<!-- Node3&#45;&gt;Node4 -->
<g id="edge4_Node000003_Node000004" class="edge">
<title>Node3&#45;&gt;Node4</title>
<g id="a_edge4_Node000003_Node000004"><a xlink:title=" ">
<path fill="none" stroke="#63b8ff" d="M281.2,-15.25C273.09,-15.25 264.97,-15.25 257.21,-15.25"/>
<polygon fill="#63b8ff" stroke="#63b8ff" points="281.13,-18.75 291.13,-15.25 281.13,-11.75 281.13,-18.75"/>
</a>
</g>
</g>
<!-- Node4&#45;&gt;Node4 -->
<g id="edge7_Node000004_Node000004" class="edge">
<title>Node4&#45;&gt;Node4</title>
<g id="a_edge7_Node000004_Node000004"><a xlink:title=" ">
<path fill="none" stroke="#63b8ff" d="M226.32,-42.2C222.3,-45.97 214.11,-48.5 201.75,-48.5 179.15,-48.5 170.49,-40.06 175.79,-30.99"/>
<polygon fill="#63b8ff" stroke="#63b8ff" points="229.77,-42.84 227.52,-32.49 222.82,-41.98 229.77,-42.84"/>
</a>
</g>
</g>
<!-- Node5 -->
<g id="Node000005" class="node">
<title>Node5</title>
<g id="a_Node000005"><a xlink:href="classjuce_1_1MPESynthesiser.html#a14efe61992d3bc6b1a00d62b45107e20" target="_top" xlink:title=" ">
<polygon fill="#fff0f0" stroke="red" points="110.5,-30.5 0,-30.5 0,0 110.5,0 110.5,-30.5"/>
<text xml:space="preserve" text-anchor="start" x="8" y="-17" font-family="Helvetica,sans-Serif" font-size="10.00">juce::MPESynthesiser</text>
<text xml:space="preserve" text-anchor="middle" x="55.25" y="-5.75" font-family="Helvetica,sans-Serif" font-size="10.00">::findFreeVoice</text>
</a>
</g>
</g>
<!-- Node4&#45;&gt;Node5 -->
<g id="edge5_Node000004_Node000005" class="edge">
<title>Node4&#45;&gt;Node5</title>
<g id="a_edge5_Node000004_Node000005"><a xlink:title=" ">
<path fill="none" stroke="#63b8ff" d="M134.63,-15.25C126.71,-15.25 118.69,-15.25 110.96,-15.25"/>
<polygon fill="#63b8ff" stroke="#63b8ff" points="134.61,-18.75 144.61,-15.25 134.61,-11.75 134.61,-18.75"/>
</a>
</g>
</g>
<!-- Node5&#45;&gt;Node5 -->
<g id="edge6_Node000005_Node000005" class="edge">
<title>Node5&#45;&gt;Node5</title>
<g id="a_edge6_Node000005_Node000005"><a xlink:title=" ">
<path fill="none" stroke="#63b8ff" d="M79.82,-42.2C75.8,-45.97 67.61,-48.5 55.25,-48.5 32.65,-48.5 23.99,-40.06 29.29,-30.99"/>
<polygon fill="#63b8ff" stroke="#63b8ff" points="83.27,-42.84 81.02,-32.49 76.32,-41.98 83.27,-42.84"/>
</a>
</g>
</g>
</g>
</svg>

<g id="navigator" transform="translate(0 0)" fill="#404254">
  <rect fill="#f2f5e9" fill-opacity="0.5" stroke="#606060" stroke-width=".5" x="0" y="0" width="60" height="60"/>
  <use id="zoomplus" xlink:href="#zoomPlus" x="17" y="9" onmousedown="handleZoom(evt,'in')"/>
  <use id="zoomminus" xlink:href="#zoomMin" x="42" y="9" onmousedown="handleZoom(evt,'out')"/>
  <use id="reset" xlink:href="#resetDef" x="30" y="36" onmousedown="handleReset()"/>
   <use id="arrowup" xlink:href="#arrowUp" x="0" y="0" onmousedown="handlePan(0,-1)"/>
  <use id="arrowright" xlink:href="#arrowRight" x="0" y="0" onmousedown="handlePan(1,0)"/>
  <use id="arrowdown" xlink:href="#arrowDown" x="0" y="0" onmousedown="handlePan(0,1)"/>
  <use id="arrowleft" xlink:href="#arrowLeft" x="0" y="0" onmousedown="handlePan(-1,0)"/>
</g>
<svg viewBox="0 0 15 15" width="100%" height="30px" preserveAspectRatio="xMaxYMin meet">
 <g id="arrow_out" transform="scale(0.3 0.3)">
  <a xlink:href="classjuce_1_1MPESynthesiserVoice_ac98faa75d8b0d3ba0ae773c9acd91d78_icgraph_org.svg" target="_base">
   <rect id="button" ry="5" rx="5" y="6" x="6" height="38" width="38"
        fill="#f2f5e9" fill-opacity="0.5" stroke="#606060" stroke-width="1.0"/>
   <path id="arrow"
     d="M 11.500037,31.436501 C 11.940474,20.09759 22.043105,11.32322 32.158766,21.979434 L 37.068811,17.246167 C 37.068811,17.246167 37.088388,32 37.088388,32 L 22.160133,31.978069 C 22.160133,31.978069 26.997745,27.140456 26.997745,27.140456 C 18.528582,18.264221 13.291696,25.230495 11.500037,31.436501 z"
     style="fill:#404040;"/>
  </a>
 </g>
</svg>

<style type='text/css'>
<![CDATA[
[data-mouse-over-selected='false'] { opacity: 0.7; }
[data-mouse-over-selected='true']  { opacity: 1.0; }
]]>
</style>
<script type="application/ecmascript"><![CDATA[
document.addEventListener('DOMContentLoaded', (event) => {
  highlightEdges();
  highlightAdjacentNodes();
});
]]></script>
</svg>
