<?xml version="1.0" encoding="UTF-8" standalone="no"?>
<!DOCTYPE svg PUBLIC "-//W3C//DTD SVG 1.1//EN"
 "http://www.w3.org/Graphics/SVG/1.1/DTD/svg11.dtd">
<!-- Generated by graphviz version 14.0.2 (0)
 -->
<!-- Title: Jack::JackProxyDriver::process_callback Pages: 1 -->
<!--zoomable 359 -->

<svg id="main" version="1.1" xmlns="http://www.w3.org/2000/svg" xmlns:xlink="http://www.w3.org/1999/xlink" xml:space="preserve" onload="init(evt)">

<style type="text/css"><![CDATA[
.node, .edge {opacity: 0.7;}
.node.selected, .edge.selected {opacity: 1;}
.edge:hover path { stroke: red; }
.edge:hover polygon { stroke: red; fill: red; }
]]></style>

<defs>
  <circle id="rim" cx="0" cy="0" r="7"/>
  <circle id="rim2" cx="0" cy="0" r="3.5"/>
  <g id="zoomPlus">
    <use xlink:href="#rim" fill="#404040"><set attributeName="fill" to="#808080" begin="zoomplus.mouseover" end="zoomplus.mouseout"/></use>
    <path d="M-4,0h8M0,-4v8" fill="none" stroke="white" stroke-width="1.5" pointer-events="none"/>
  </g>
  <g id="zoomMin">
    <use xlink:href="#rim" fill="#404040"><set attributeName="fill" to="#808080" begin="zoomminus.mouseover" end="zoomminus.mouseout"/></use>
    <path d="M-4,0h8" fill="none" stroke="white" stroke-width="1.5" pointer-events="none"/>
  </g>
  <g id="arrowUp" transform="translate(30 24)">
    <use xlink:href="#rim"/>
    <path pointer-events="none" fill="none" stroke="white" stroke-width="1.5" d="M0,-3.0v7 M-2.5,-0.5L0,-3.0L2.5,-0.5"/>
  </g>
  <g id="arrowRight" transform="rotate(90) translate(36 -43)">
    <use xlink:href="#rim"/>
    <path pointer-events="none" fill="none" stroke="white" stroke-width="1.5" d="M0,-3.0v7 M-2.5,-0.5L0,-3.0L2.5,-0.5"/>
  </g>
  <g id="arrowDown" transform="rotate(180) translate(-30 -48)">
    <use xlink:href="#rim"/>
    <path pointer-events="none" fill="none" stroke="white" stroke-width="1.5" d="M0,-3.0v7 M-2.5,-0.5L0,-3.0L2.5,-0.5"/>
  </g>
  <g id="arrowLeft" transform="rotate(270) translate(-36 17)">
    <use xlink:href="#rim"/>
    <path pointer-events="none" fill="none" stroke="white" stroke-width="1.5" d="M0,-3.0v7 M-2.5,-0.5L0,-3.0L2.5,-0.5"/>
  </g>
  <g id="resetDef">
    <use xlink:href="#rim2" fill="#404040"><set attributeName="fill" to="#808080" begin="reset.mouseover" end="reset.mouseout"/></use>
  </g>
</defs>
<script type="application/ecmascript">
var viewWidth = 607;
var viewHeight = 359;
var sectionId = 'dynsection-25';
</script>
<script type="application/ecmascript" xlink:href="svg.min.js"/>
<svg id="graph" class="graph">
<g id="viewport">
<title>Jack::JackProxyDriver::process_callback</title>
<!-- Node1 -->
<g id="Node000001" class="node">
<title>Node1</title>
<g id="a_Node000001"><a xlink:title=" ">
<polygon fill="#999999" stroke="#666666" points="112,-278.5 0,-278.5 0,-248 112,-248 112,-278.5"/>
<text xml:space="preserve" text-anchor="start" x="8" y="-265" font-family="Helvetica,sans-Serif" font-size="10.00">Jack::JackProxyDriver</text>
<text xml:space="preserve" text-anchor="middle" x="56" y="-253.75" font-family="Helvetica,sans-Serif" font-size="10.00">::process_callback</text>
</a>
</g>
</g>
<!-- Node2 -->
<g id="Node000002" class="node">
<title>Node2</title>
<g id="a_Node000002"><a xlink:href="ZynAddSubFx_2zynaddsubfx_2src_2Synth_2OscilGen_8cpp.html#a8ba7098a5809423372cf8cbbe6f3b504" target="_top" xlink:title=" ">
<polygon fill="white" stroke="#666666" points="219.12,-332.88 189.62,-332.88 189.62,-313.62 219.12,-313.62 219.12,-332.88"/>
<text xml:space="preserve" text-anchor="middle" x="204.38" y="-319.38" font-family="Helvetica,sans-Serif" font-size="10.00">arg</text>
</a>
</g>
</g>
<!-- Node1&#45;&gt;Node2 -->
<g id="edge1_Node000001_Node000002" class="edge">
<title>Node1&#45;&gt;Node2</title>
<g id="a_edge1_Node000001_Node000002"><a xlink:title=" ">
<path fill="none" stroke="#63b8ff" d="M95.08,-278.86C121.45,-289.67 155.8,-303.75 178.67,-313.12"/>
<polygon fill="#63b8ff" stroke="#63b8ff" points="177.21,-316.31 187.79,-316.86 179.86,-309.83 177.21,-316.31"/>
</a>
</g>
</g>
<!-- Node3 -->
<g id="Node000003" class="node">
<title>Node3</title>
<g id="a_Node000003"><a xlink:href="Spc__Cpu_8h.html#a2569713fe026f7b153bba6e89d64498f" target="_top" xlink:title=" ">
<polygon fill="white" stroke="#666666" points="382.12,-294.88 339.12,-294.88 339.12,-275.62 382.12,-275.62 382.12,-294.88"/>
<text xml:space="preserve" text-anchor="middle" x="360.62" y="-281.38" font-family="Helvetica,sans-Serif" font-size="10.00">assert</text>
</a>
</g>
</g>
<!-- Node1&#45;&gt;Node3 -->
<g id="edge3_Node000001_Node000003" class="edge">
<title>Node1&#45;&gt;Node3</title>
<g id="a_edge3_Node000001_Node000003"><a xlink:title=" ">
<path fill="none" stroke="#63b8ff" d="M112.15,-267.26C175.13,-271.84 276.05,-279.17 327.38,-282.91"/>
<polygon fill="#63b8ff" stroke="#63b8ff" points="326.99,-286.39 337.21,-283.62 327.49,-279.4 326.99,-286.39"/>
</a>
</g>
</g>
<!-- Node4 -->
<g id="Node000004" class="node">
<title>Node4</title>
<g id="a_Node000004"><a xlink:href="classJack_1_1JackProxyDriver.html#a4acac8ba2d3fbd0fdad50d96d27685f0" target="_top" xlink:title=" ">
<polygon fill="white" stroke="#666666" points="260.38,-257.5 148.38,-257.5 148.38,-227 260.38,-227 260.38,-257.5"/>
<text xml:space="preserve" text-anchor="start" x="156.38" y="-244" font-family="Helvetica,sans-Serif" font-size="10.00">Jack::JackProxyDriver</text>
<text xml:space="preserve" text-anchor="middle" x="204.38" y="-232.75" font-family="Helvetica,sans-Serif" font-size="10.00">::JackProxyDriver</text>
</a>
</g>
</g>
<!-- Node1&#45;&gt;Node4 -->
<g id="edge4_Node000001_Node000004" class="edge">
<title>Node1&#45;&gt;Node4</title>
<g id="a_edge4_Node000001_Node000004"><a xlink:title=" ">
<path fill="none" stroke="#63b8ff" d="M112.34,-255.31C120.26,-254.17 128.48,-252.99 136.6,-251.83"/>
<polygon fill="#63b8ff" stroke="#63b8ff" points="137.06,-255.3 146.46,-250.42 136.06,-248.37 137.06,-255.3"/>
</a>
</g>
</g>
<!-- Node12 -->
<g id="Node000012" class="node">
<title>Node12</title>
<g id="a_Node000012"><a xlink:href="classJack_1_1JackAudioDriver.html#a113fda70e041d100f4075b784150a2fb" target="_top" xlink:title=" ">
<polygon fill="white" stroke="#666666" points="260.75,-165.5 148,-165.5 148,-135 260.75,-135 260.75,-165.5"/>
<text xml:space="preserve" text-anchor="start" x="156" y="-152" font-family="Helvetica,sans-Serif" font-size="10.00">Jack::JackAudioDriver</text>
<text xml:space="preserve" text-anchor="middle" x="204.38" y="-140.75" font-family="Helvetica,sans-Serif" font-size="10.00">::Process</text>
</a>
</g>
</g>
<!-- Node1&#45;&gt;Node12 -->
<g id="edge9_Node000001_Node000012" class="edge">
<title>Node1&#45;&gt;Node12</title>
<g id="a_edge9_Node000001_Node000012"><a xlink:title=" ">
<path fill="none" stroke="#63b8ff" d="M77.35,-247.54C102.59,-228.06 145.76,-194.72 174.44,-172.59"/>
<polygon fill="#63b8ff" stroke="#63b8ff" points="176.22,-175.63 182,-166.75 171.94,-170.09 176.22,-175.63"/>
</a>
</g>
</g>
<!-- Node2&#45;&gt;Node2 -->
<g id="edge2_Node000002_Node000002" class="edge">
<title>Node2&#45;&gt;Node2</title>
<g id="a_edge2_Node000002_Node000002"><a xlink:title=" ">
<path fill="none" stroke="#63b8ff" d="M189.41,-328.27C168.23,-337.89 173.22,-350.88 204.38,-350.88 229.2,-350.88 237.41,-342.63 229.01,-334.41"/>
<polygon fill="#63b8ff" stroke="#63b8ff" points="230.94,-331.49 220.62,-329.08 227.18,-337.4 230.94,-331.49"/>
</a>
</g>
</g>
<!-- Node4&#45;&gt;Node3 -->
<g id="edge5_Node000004_Node000003" class="edge">
<title>Node4&#45;&gt;Node3</title>
<g id="a_edge5_Node000004_Node000003"><a xlink:title=" ">
<path fill="none" stroke="#63b8ff" d="M260.63,-257.65C283.21,-263.95 308.52,-271 327.9,-276.41"/>
<polygon fill="#63b8ff" stroke="#63b8ff" points="326.81,-279.74 337.38,-279.05 328.69,-272.99 326.81,-279.74"/>
</a>
</g>
</g>
<!-- Node5 -->
<g id="Node000005" class="node">
<title>Node5</title>
<g id="a_Node000005"><a xlink:href="group__ControlAPI.html#ga35f69faaee3bb9b958ed8c9a5f62246c" target="_top" xlink:title=" ">
<polygon fill="white" stroke="#666666" points="386.62,-208.88 334.62,-208.88 334.62,-189.62 386.62,-189.62 386.62,-208.88"/>
<text xml:space="preserve" text-anchor="middle" x="360.62" y="-195.38" font-family="Helvetica,sans-Serif" font-size="10.00">jack_log</text>
</a>
</g>
</g>
<!-- Node4&#45;&gt;Node5 -->
<g id="edge6_Node000004_Node000005" class="edge">
<title>Node4&#45;&gt;Node5</title>
<g id="a_edge6_Node000004_Node000005"><a xlink:title=" ">
<path fill="none" stroke="#63b8ff" d="M260.63,-226.85C281.53,-221.02 304.77,-214.54 323.48,-209.33"/>
<polygon fill="#63b8ff" stroke="#63b8ff" points="324.33,-212.72 333.02,-206.67 322.45,-205.98 324.33,-212.72"/>
</a>
</g>
</g>
<!-- Node6 -->
<g id="Node000006" class="node">
<title>Node6</title>
<g id="a_Node000006"><a xlink:href="classJack_1_1JackRestarterDriver.html#a1a6e07638193adfc4c703e846a4ec642" target="_top" xlink:title=" ">
<polygon fill="white" stroke="#666666" points="424.5,-257.5 296.75,-257.5 296.75,-227 424.5,-227 424.5,-257.5"/>
<text xml:space="preserve" text-anchor="start" x="304.75" y="-244" font-family="Helvetica,sans-Serif" font-size="10.00">Jack::JackRestarterDriver</text>
<text xml:space="preserve" text-anchor="middle" x="360.62" y="-232.75" font-family="Helvetica,sans-Serif" font-size="10.00">::JackRestarterDriver</text>
</a>
</g>
</g>
<!-- Node4&#45;&gt;Node6 -->
<g id="edge7_Node000004_Node000006" class="edge">
<title>Node4&#45;&gt;Node6</title>
<g id="a_edge7_Node000004_Node000006"><a xlink:title=" ">
<path fill="none" stroke="#63b8ff" d="M260.63,-242.25C268.5,-242.25 276.71,-242.25 284.87,-242.25"/>
<polygon fill="#63b8ff" stroke="#63b8ff" points="284.85,-245.75 294.85,-242.25 284.85,-238.75 284.85,-245.75"/>
</a>
</g>
</g>
<!-- Node7 -->
<g id="Node000007" class="node">
<title>Node7</title>
<g id="a_Node000007"><a xlink:href="classJack_1_1JackWaiterDriver.html#a151b52955a809fa730a0a1eccc6e0fa5" target="_top" xlink:title=" ">
<polygon fill="#fff0f0" stroke="red" points="587.5,-263.5 471.75,-263.5 471.75,-233 587.5,-233 587.5,-263.5"/>
<text xml:space="preserve" text-anchor="start" x="479.75" y="-250" font-family="Helvetica,sans-Serif" font-size="10.00">Jack::JackWaiterDriver</text>
<text xml:space="preserve" text-anchor="middle" x="529.62" y="-238.75" font-family="Helvetica,sans-Serif" font-size="10.00">::JackWaiterDriver</text>
</a>
</g>
</g>
<!-- Node6&#45;&gt;Node7 -->
<g id="edge8_Node000006_Node000007" class="edge">
<title>Node6&#45;&gt;Node7</title>
<g id="a_edge8_Node000006_Node000007"><a xlink:title=" ">
<path fill="none" stroke="#63b8ff" d="M424.76,-244.52C436.26,-244.93 448.31,-245.36 459.96,-245.78"/>
<polygon fill="#63b8ff" stroke="#63b8ff" points="459.81,-249.28 469.93,-246.14 460.06,-242.28 459.81,-249.28"/>
</a>
</g>
</g>
<!-- Node13 -->
<g id="Node000013" class="node">
<title>Node13</title>
<g id="a_Node000013"><a xlink:href="classJack_1_1JackAudioDriver.html#a3066fbe79f4e864609f4443bbcf49f74" target="_top" xlink:title=" ">
<polygon fill="white" stroke="#666666" points="417,-165.5 304.25,-165.5 304.25,-135 417,-135 417,-165.5"/>
<text xml:space="preserve" text-anchor="start" x="312.25" y="-152" font-family="Helvetica,sans-Serif" font-size="10.00">Jack::JackAudioDriver</text>
<text xml:space="preserve" text-anchor="middle" x="360.62" y="-140.75" font-family="Helvetica,sans-Serif" font-size="10.00">::ProcessAsync</text>
</a>
</g>
</g>
<!-- Node12&#45;&gt;Node13 -->
<g id="edge10_Node000012_Node000013" class="edge">
<title>Node12&#45;&gt;Node13</title>
<g id="a_edge10_Node000012_Node000013"><a xlink:title=" ">
<path fill="none" stroke="#63b8ff" d="M261.06,-150.25C271.27,-150.25 282.01,-150.25 292.51,-150.25"/>
<polygon fill="#63b8ff" stroke="#63b8ff" points="292.25,-153.75 302.25,-150.25 292.25,-146.75 292.25,-153.75"/>
</a>
</g>
</g>
<!-- Node29 -->
<g id="Node000029" class="node">
<title>Node29</title>
<g id="a_Node000029"><a xlink:href="classJack_1_1JackAudioDriver.html#a2f5b54a110d80957d88db18921aa5f6a" target="_top" xlink:title=" ">
<polygon fill="white" stroke="#666666" points="417,-116.5 304.25,-116.5 304.25,-86 417,-86 417,-116.5"/>
<text xml:space="preserve" text-anchor="start" x="312.25" y="-103" font-family="Helvetica,sans-Serif" font-size="10.00">Jack::JackAudioDriver</text>
<text xml:space="preserve" text-anchor="middle" x="360.62" y="-91.75" font-family="Helvetica,sans-Serif" font-size="10.00">::ProcessSync</text>
</a>
</g>
</g>
<!-- Node12&#45;&gt;Node29 -->
<g id="edge15_Node000012_Node000029" class="edge">
<title>Node12&#45;&gt;Node29</title>
<g id="a_edge15_Node000012_Node000029"><a xlink:title=" ">
<path fill="none" stroke="#63b8ff" d="M254.6,-134.61C268.87,-130.08 284.6,-125.08 299.45,-120.37"/>
<polygon fill="#63b8ff" stroke="#63b8ff" points="300.16,-123.81 308.63,-117.45 298.04,-117.14 300.16,-123.81"/>
</a>
</g>
</g>
<!-- Node14 -->
<g id="Node000014" class="node">
<title>Node14</title>
<g id="a_Node000014"><a xlink:href="classJack_1_1JackDriver.html#a2a74d83a0e4a4196a0e0528d6a898d6a" target="_top" xlink:title=" ">
<polygon fill="#fff0f0" stroke="red" points="598.75,-165.5 460.5,-165.5 460.5,-135 598.75,-135 598.75,-165.5"/>
<text xml:space="preserve" text-anchor="start" x="468.5" y="-152" font-family="Helvetica,sans-Serif" font-size="10.00">Jack::JackDriver::CycleTake</text>
<text xml:space="preserve" text-anchor="middle" x="529.62" y="-140.75" font-family="Helvetica,sans-Serif" font-size="10.00">EndTime</text>
</a>
</g>
</g>
<!-- Node13&#45;&gt;Node14 -->
<g id="edge11_Node000013_Node000014" class="edge">
<title>Node13&#45;&gt;Node14</title>
<g id="a_edge11_Node000013_Node000014"><a xlink:title=" ">
<path fill="none" stroke="#63b8ff" d="M417.23,-150.25C427.34,-150.25 438.06,-150.25 448.7,-150.25"/>
<polygon fill="#63b8ff" stroke="#63b8ff" points="448.67,-153.75 458.67,-150.25 448.67,-146.75 448.67,-153.75"/>
</a>
</g>
</g>
<!-- Node16 -->
<g id="Node000016" class="node">
<title>Node16</title>
<g id="a_Node000016"><a xlink:href="classJack_1_1JackAudioDriver.html#a5232e89c48e9887d80b0228fd6f6b204" target="_top" xlink:title=" ">
<polygon fill="#fff0f0" stroke="red" points="586,-214.5 473.25,-214.5 473.25,-184 586,-184 586,-214.5"/>
<text xml:space="preserve" text-anchor="start" x="481.25" y="-201" font-family="Helvetica,sans-Serif" font-size="10.00">Jack::JackAudioDriver</text>
<text xml:space="preserve" text-anchor="middle" x="529.62" y="-189.75" font-family="Helvetica,sans-Serif" font-size="10.00">::ProcessGraphAsync</text>
</a>
</g>
</g>
<!-- Node13&#45;&gt;Node16 -->
<g id="edge12_Node000013_Node000016" class="edge">
<title>Node13&#45;&gt;Node16</title>
<g id="a_edge12_Node000013_Node000016"><a xlink:title=" ">
<path fill="none" stroke="#63b8ff" d="M414.92,-165.89C430.51,-170.46 447.73,-175.51 463.94,-180.27"/>
<polygon fill="#63b8ff" stroke="#63b8ff" points="462.94,-183.62 473.52,-183.08 464.91,-176.91 462.94,-183.62"/>
</a>
</g>
</g>
<!-- Node25 -->
<g id="Node000025" class="node">
<title>Node25</title>
<g id="a_Node000025"><a xlink:href="classJack_1_1JackDriver.html#ab2d1c843ec282dd9a6cbceeb44213b41" target="_top" xlink:title=" ">
<polygon fill="white" stroke="#666666" points="587.12,-116.88 472.12,-116.88 472.12,-97.62 587.12,-97.62 587.12,-116.88"/>
<text xml:space="preserve" text-anchor="middle" x="529.62" y="-103.38" font-family="Helvetica,sans-Serif" font-size="10.00">Jack::JackDriver::Read</text>
</a>
</g>
</g>
<!-- Node13&#45;&gt;Node25 -->
<g id="edge13_Node000013_Node000025" class="edge">
<title>Node13&#45;&gt;Node25</title>
<g id="a_edge13_Node000013_Node000025"><a xlink:title=" ">
<path fill="none" stroke="#63b8ff" d="M417.23,-135.93C436.98,-130.85 459.09,-125.16 478.36,-120.19"/>
<polygon fill="#63b8ff" stroke="#63b8ff" points="479.07,-123.62 487.88,-117.74 477.32,-116.84 479.07,-123.62"/>
</a>
</g>
</g>
<!-- Node26 -->
<g id="Node000026" class="node">
<title>Node26</title>
<g id="a_Node000026"><a xlink:href="classJack_1_1JackAudioDriver.html#a56989c4455832898f2b6109235a585ef" target="_top" xlink:title=" ">
<polygon fill="#fff0f0" stroke="red" points="586,-79.5 473.25,-79.5 473.25,-49 586,-49 586,-79.5"/>
<text xml:space="preserve" text-anchor="start" x="481.25" y="-66" font-family="Helvetica,sans-Serif" font-size="10.00">Jack::JackAudioDriver</text>
<text xml:space="preserve" text-anchor="middle" x="529.62" y="-54.75" font-family="Helvetica,sans-Serif" font-size="10.00">::Write</text>
</a>
</g>
</g>
<!-- Node13&#45;&gt;Node26 -->
<g id="edge14_Node000013_Node000026" class="edge">
<title>Node13&#45;&gt;Node26</title>
<g id="a_edge14_Node000013_Node000026"><a xlink:title=" ">
<path fill="none" stroke="#63b8ff" d="M407.76,-134.54C413.59,-131.8 419.32,-128.71 424.5,-125.25 443.58,-112.51 441.17,-100.61 460.5,-88.25 462.32,-87.08 464.21,-85.97 466.14,-84.9"/>
<polygon fill="#63b8ff" stroke="#63b8ff" points="467.37,-88.19 474.76,-80.61 464.25,-81.93 467.37,-88.19"/>
</a>
</g>
</g>
<!-- Node29&#45;&gt;Node14 -->
<g id="edge16_Node000029_Node000014" class="edge">
<title>Node29&#45;&gt;Node14</title>
<g id="a_edge16_Node000029_Node000014"><a xlink:title=" ">
<path fill="none" stroke="#63b8ff" d="M414.92,-116.89C430.51,-121.46 447.73,-126.51 463.94,-131.27"/>
<polygon fill="#63b8ff" stroke="#63b8ff" points="462.94,-134.62 473.52,-134.08 464.91,-127.91 462.94,-134.62"/>
</a>
</g>
</g>
<!-- Node29&#45;&gt;Node25 -->
<g id="edge18_Node000029_Node000025" class="edge">
<title>Node29&#45;&gt;Node25</title>
<g id="a_edge18_Node000029_Node000025"><a xlink:title=" ">
<path fill="none" stroke="#63b8ff" d="M417.23,-103.25C431.08,-103.75 446.09,-104.28 460.47,-104.8"/>
<polygon fill="#63b8ff" stroke="#63b8ff" points="460.2,-108.29 470.32,-105.16 460.45,-101.3 460.2,-108.29"/>
</a>
</g>
</g>
<!-- Node29&#45;&gt;Node26 -->
<g id="edge19_Node000029_Node000026" class="edge">
<title>Node29&#45;&gt;Node26</title>
<g id="a_edge19_Node000029_Node000026"><a xlink:title=" ">
<path fill="none" stroke="#63b8ff" d="M417.23,-88.93C431.52,-85.76 447.05,-82.32 461.84,-79.05"/>
<polygon fill="#63b8ff" stroke="#63b8ff" points="462.49,-82.49 471.5,-76.91 460.98,-75.65 462.49,-82.49"/>
</a>
</g>
</g>
<!-- Node30 -->
<g id="Node000030" class="node">
<title>Node30</title>
<g id="a_Node000030"><a xlink:href="classJack_1_1JackAudioDriver.html#a85afd376fe3e542e8f114cf8d41fdf3b" target="_top" xlink:title=" ">
<polygon fill="#fff0f0" stroke="red" points="586,-30.5 473.25,-30.5 473.25,0 586,0 586,-30.5"/>
<text xml:space="preserve" text-anchor="start" x="481.25" y="-17" font-family="Helvetica,sans-Serif" font-size="10.00">Jack::JackAudioDriver</text>
<text xml:space="preserve" text-anchor="middle" x="529.62" y="-5.75" font-family="Helvetica,sans-Serif" font-size="10.00">::ProcessGraphSync</text>
</a>
</g>
</g>
<!-- Node29&#45;&gt;Node30 -->
<g id="edge17_Node000029_Node000030" class="edge">
<title>Node29&#45;&gt;Node30</title>
<g id="a_edge17_Node000029_Node000030"><a xlink:title=" ">
<path fill="none" stroke="#63b8ff" d="M384.06,-85.6C403.63,-72.39 433.11,-53.56 460.5,-40.25 464.01,-38.55 467.66,-36.89 471.37,-35.29"/>
<polygon fill="#63b8ff" stroke="#63b8ff" points="472.6,-38.57 480.53,-31.54 469.95,-32.1 472.6,-38.57"/>
</a>
</g>
</g>
</g>
</svg>

<g id="navigator" transform="translate(0 0)" fill="#404254">
  <rect fill="#f2f5e9" fill-opacity="0.5" stroke="#606060" stroke-width=".5" x="0" y="0" width="60" height="60"/>
  <use id="zoomplus" xlink:href="#zoomPlus" x="17" y="9" onmousedown="handleZoom(evt,'in')"/>
  <use id="zoomminus" xlink:href="#zoomMin" x="42" y="9" onmousedown="handleZoom(evt,'out')"/>
  <use id="reset" xlink:href="#resetDef" x="30" y="36" onmousedown="handleReset()"/>
   <use id="arrowup" xlink:href="#arrowUp" x="0" y="0" onmousedown="handlePan(0,-1)"/>
  <use id="arrowright" xlink:href="#arrowRight" x="0" y="0" onmousedown="handlePan(1,0)"/>
  <use id="arrowdown" xlink:href="#arrowDown" x="0" y="0" onmousedown="handlePan(0,1)"/>
  <use id="arrowleft" xlink:href="#arrowLeft" x="0" y="0" onmousedown="handlePan(-1,0)"/>
</g>
<svg viewBox="0 0 15 15" width="100%" height="30px" preserveAspectRatio="xMaxYMin meet">
 <g id="arrow_out" transform="scale(0.3 0.3)">
  <a xlink:href="classJack_1_1JackProxyDriver_aee8e0e61175f84fe4787989f8a350b1e_cgraph_org.svg" target="_base">
   <rect id="button" ry="5" rx="5" y="6" x="6" height="38" width="38"
        fill="#f2f5e9" fill-opacity="0.5" stroke="#606060" stroke-width="1.0"/>
   <path id="arrow"
     d="M 11.500037,31.436501 C 11.940474,20.09759 22.043105,11.32322 32.158766,21.979434 L 37.068811,17.246167 C 37.068811,17.246167 37.088388,32 37.088388,32 L 22.160133,31.978069 C 22.160133,31.978069 26.997745,27.140456 26.997745,27.140456 C 18.528582,18.264221 13.291696,25.230495 11.500037,31.436501 z"
     style="fill:#404040;"/>
  </a>
 </g>
</svg>

<style type='text/css'>
<![CDATA[
[data-mouse-over-selected='false'] { opacity: 0.7; }
[data-mouse-over-selected='true']  { opacity: 1.0; }
]]>
</style>
<script type="application/ecmascript"><![CDATA[
document.addEventListener('DOMContentLoaded', (event) => {
  highlightEdges();
  highlightAdjacentNodes();
});
]]></script>
</svg>
