<?xml version="1.0" encoding="UTF-8" standalone="no"?>
<!DOCTYPE svg PUBLIC "-//W3C//DTD SVG 1.1//EN"
 "http://www.w3.org/Graphics/SVG/1.1/DTD/svg11.dtd">
<!-- Generated by graphviz version 14.0.2 (0)
 -->
<!-- Title: water::TemporaryFile::TemporaryFile Pages: 1 -->
<!--zoomable 395 -->

<svg id="main" version="1.1" xmlns="http://www.w3.org/2000/svg" xmlns:xlink="http://www.w3.org/1999/xlink" xml:space="preserve" onload="init(evt)">

<style type="text/css"><![CDATA[
.node, .edge {opacity: 0.7;}
.node.selected, .edge.selected {opacity: 1;}
.edge:hover path { stroke: red; }
.edge:hover polygon { stroke: red; fill: red; }
]]></style>

<defs>
  <circle id="rim" cx="0" cy="0" r="7"/>
  <circle id="rim2" cx="0" cy="0" r="3.5"/>
  <g id="zoomPlus">
    <use xlink:href="#rim" fill="#404040"><set attributeName="fill" to="#808080" begin="zoomplus.mouseover" end="zoomplus.mouseout"/></use>
    <path d="M-4,0h8M0,-4v8" fill="none" stroke="white" stroke-width="1.5" pointer-events="none"/>
  </g>
  <g id="zoomMin">
    <use xlink:href="#rim" fill="#404040"><set attributeName="fill" to="#808080" begin="zoomminus.mouseover" end="zoomminus.mouseout"/></use>
    <path d="M-4,0h8" fill="none" stroke="white" stroke-width="1.5" pointer-events="none"/>
  </g>
  <g id="arrowUp" transform="translate(30 24)">
    <use xlink:href="#rim"/>
    <path pointer-events="none" fill="none" stroke="white" stroke-width="1.5" d="M0,-3.0v7 M-2.5,-0.5L0,-3.0L2.5,-0.5"/>
  </g>
  <g id="arrowRight" transform="rotate(90) translate(36 -43)">
    <use xlink:href="#rim"/>
    <path pointer-events="none" fill="none" stroke="white" stroke-width="1.5" d="M0,-3.0v7 M-2.5,-0.5L0,-3.0L2.5,-0.5"/>
  </g>
  <g id="arrowDown" transform="rotate(180) translate(-30 -48)">
    <use xlink:href="#rim"/>
    <path pointer-events="none" fill="none" stroke="white" stroke-width="1.5" d="M0,-3.0v7 M-2.5,-0.5L0,-3.0L2.5,-0.5"/>
  </g>
  <g id="arrowLeft" transform="rotate(270) translate(-36 17)">
    <use xlink:href="#rim"/>
    <path pointer-events="none" fill="none" stroke="white" stroke-width="1.5" d="M0,-3.0v7 M-2.5,-0.5L0,-3.0L2.5,-0.5"/>
  </g>
  <g id="resetDef">
    <use xlink:href="#rim2" fill="#404040"><set attributeName="fill" to="#808080" begin="reset.mouseover" end="reset.mouseout"/></use>
  </g>
</defs>
<script type="application/ecmascript">
var viewWidth = 764;
var viewHeight = 395;
var sectionId = 'dynsection-1';
</script>
<script type="application/ecmascript" xlink:href="svg.min.js"/>
<svg id="graph" class="graph">
<g id="viewport">
<title>water::TemporaryFile::TemporaryFile</title>
<!-- Node1 -->
<g id="Node000001" class="node">
<title>Node1</title>
<g id="a_Node000001"><a xlink:title=" ">
<polygon fill="#999999" stroke="#666666" points="106,-204.88 0,-204.88 0,-174.38 106,-174.38 106,-204.88"/>
<text xml:space="preserve" text-anchor="start" x="8" y="-191.38" font-family="Helvetica,sans-Serif" font-size="10.00">water::TemporaryFile</text>
<text xml:space="preserve" text-anchor="middle" x="53" y="-180.12" font-family="Helvetica,sans-Serif" font-size="10.00">::TemporaryFile</text>
</a>
</g>
</g>
<!-- Node2 -->
<g id="Node000002" class="node">
<title>Node2</title>
<g id="a_Node000002"><a xlink:href="namespacewater.html#a3f212e3cfbfea14773b3957916434033" target="_top" xlink:title=" ">
<polygon fill="white" stroke="#666666" points="254,-199.25 142,-199.25 142,-180 254,-180 254,-199.25"/>
<text xml:space="preserve" text-anchor="middle" x="198" y="-185.75" font-family="Helvetica,sans-Serif" font-size="10.00">water::createTempFile</text>
</a>
</g>
</g>
<!-- Node1&#45;&gt;Node2 -->
<g id="edge1_Node000001_Node000002" class="edge">
<title>Node1&#45;&gt;Node2</title>
<g id="a_edge1_Node000001_Node000002"><a xlink:title=" ">
<path fill="none" stroke="#63b8ff" d="M106.44,-189.62C114.24,-189.62 122.37,-189.62 130.41,-189.62"/>
<polygon fill="#63b8ff" stroke="#63b8ff" points="130.17,-193.13 140.17,-189.63 130.17,-186.13 130.17,-193.13"/>
</a>
</g>
</g>
<!-- Node3 -->
<g id="Node000003" class="node">
<title>Node3</title>
<g id="a_Node000003"><a xlink:href="classwater_1_1File.html#af735cc401c1aac7fc11947a764a32456" target="_top" xlink:title=" ">
<polygon fill="white" stroke="#666666" points="420,-204.88 290,-204.88 290,-174.38 420,-174.38 420,-204.88"/>
<text xml:space="preserve" text-anchor="start" x="298" y="-191.38" font-family="Helvetica,sans-Serif" font-size="10.00">water::File::getNonexistent</text>
<text xml:space="preserve" text-anchor="middle" x="355" y="-180.12" font-family="Helvetica,sans-Serif" font-size="10.00">ChildFile</text>
</a>
</g>
</g>
<!-- Node2&#45;&gt;Node3 -->
<g id="edge2_Node000002_Node000003" class="edge">
<title>Node2&#45;&gt;Node3</title>
<g id="a_edge2_Node000002_Node000003"><a xlink:title=" ">
<path fill="none" stroke="#63b8ff" d="M254.08,-189.62C261.89,-189.62 270.03,-189.62 278.14,-189.62"/>
<polygon fill="#63b8ff" stroke="#63b8ff" points="278.05,-193.13 288.05,-189.63 278.05,-186.13 278.05,-193.13"/>
</a>
</g>
</g>
<!-- Node4 -->
<g id="Node000004" class="node">
<title>Node4</title>
<g id="a_Node000004"><a xlink:href="classwater_1_1String.html#aedd69a9c74e837bed5358acd2a625fec" target="_top" xlink:title=" ">
<polygon fill="white" stroke="#666666" points="596.12,-387.25 465.38,-387.25 465.38,-368 596.12,-368 596.12,-387.25"/>
<text xml:space="preserve" text-anchor="middle" x="530.75" y="-373.75" font-family="Helvetica,sans-Serif" font-size="10.00">water::String::containsOnly</text>
</a>
</g>
</g>
<!-- Node3&#45;&gt;Node4 -->
<g id="edge3_Node000003_Node000004" class="edge">
<title>Node3&#45;&gt;Node4</title>
<g id="a_edge3_Node000003_Node000004"><a xlink:title=" ">
<path fill="none" stroke="#63b8ff" d="M360.61,-205.36C371.37,-239.2 401.45,-319.08 456,-359.62 457.32,-360.61 458.69,-361.54 460.1,-362.42"/>
<polygon fill="#63b8ff" stroke="#63b8ff" points="458.05,-365.3 468.53,-366.82 461.29,-359.09 458.05,-365.3"/>
</a>
</g>
</g>
<!-- Node5 -->
<g id="Node000005" class="node">
<title>Node5</title>
<g id="a_Node000005"><a xlink:href="classwater_1_1String.html#ac51eda3101fb9eab0795213573e176ac" target="_top" xlink:title=" ">
<polygon fill="white" stroke="#666666" points="598.38,-350.25 463.12,-350.25 463.12,-331 598.38,-331 598.38,-350.25"/>
<text xml:space="preserve" text-anchor="middle" x="530.75" y="-336.75" font-family="Helvetica,sans-Serif" font-size="10.00">water::String::endsWithChar</text>
</a>
</g>
</g>
<!-- Node3&#45;&gt;Node5 -->
<g id="edge4_Node000003_Node000005" class="edge">
<title>Node3&#45;&gt;Node5</title>
<g id="a_edge4_Node000003_Node000005"><a xlink:title=" ">
<path fill="none" stroke="#63b8ff" d="M364.26,-205.36C379.08,-232.09 412.73,-286.44 456,-316.62 461.45,-320.43 467.53,-323.65 473.81,-326.39"/>
<polygon fill="#63b8ff" stroke="#63b8ff" points="472.47,-329.62 483.06,-329.99 475.01,-323.1 472.47,-329.62"/>
</a>
</g>
</g>
<!-- Node6 -->
<g id="Node000006" class="node">
<title>Node6</title>
<g id="a_Node000006"><a xlink:href="classwater_1_1File.html#a49d460b45d501d6d9f7088dd90859f59" target="_top" xlink:title=" ">
<polygon fill="white" stroke="#666666" points="738.88,-301.25 658.38,-301.25 658.38,-282 738.88,-282 738.88,-301.25"/>
<text xml:space="preserve" text-anchor="middle" x="698.62" y="-287.75" font-family="Helvetica,sans-Serif" font-size="10.00">water::File::File</text>
</a>
</g>
</g>
<!-- Node3&#45;&gt;Node6 -->
<g id="edge5_Node000003_Node000006" class="edge">
<title>Node3&#45;&gt;Node6</title>
<g id="a_edge5_Node000003_Node000006"><a xlink:title=" ">
<path fill="none" stroke="#63b8ff" d="M366.74,-205.21C383.05,-227.38 416.39,-267.17 456,-283.62 517.85,-309.32 596.47,-306.09 646.93,-300.01"/>
<polygon fill="#63b8ff" stroke="#63b8ff" points="647.22,-303.51 656.68,-298.75 646.32,-296.56 647.22,-303.51"/>
</a>
</g>
</g>
<!-- Node7 -->
<g id="Node000007" class="node">
<title>Node7</title>
<g id="a_Node000007"><a xlink:href="classwater_1_1File.html#a83352daad02ae058ed311e368168844c" target="_top" xlink:title=" ">
<polygon fill="#fff0f0" stroke="red" points="588.62,-256.25 472.88,-256.25 472.88,-237 588.62,-237 588.62,-256.25"/>
<text xml:space="preserve" text-anchor="middle" x="530.75" y="-242.75" font-family="Helvetica,sans-Serif" font-size="10.00">water::File::getChildFile</text>
</a>
</g>
</g>
<!-- Node3&#45;&gt;Node7 -->
<g id="edge6_Node000003_Node000007" class="edge">
<title>Node3&#45;&gt;Node7</title>
<g id="a_edge6_Node000003_Node000007"><a xlink:title=" ">
<path fill="none" stroke="#63b8ff" d="M403.55,-205.36C420.14,-210.84 438.89,-217.02 456,-222.62 466.45,-226.05 477.73,-229.73 488.26,-233.15"/>
<polygon fill="#63b8ff" stroke="#63b8ff" points="486.85,-236.38 497.44,-236.14 489.02,-229.72 486.85,-236.38"/>
</a>
</g>
</g>
<!-- Node27 -->
<g id="Node000027" class="node">
<title>Node27</title>
<g id="a_Node000027"><a xlink:href="classwater_1_1String.html#ab98c301a56c302c0c5d327d0b5e18999" target="_top" xlink:title=" ">
<polygon fill="white" stroke="#666666" points="755.38,-252.88 641.88,-252.88 641.88,-222.38 755.38,-222.38 755.38,-252.88"/>
<text xml:space="preserve" text-anchor="start" x="649.88" y="-239.38" font-family="Helvetica,sans-Serif" font-size="10.00">water::String::lastIndex</text>
<text xml:space="preserve" text-anchor="middle" x="698.62" y="-228.12" font-family="Helvetica,sans-Serif" font-size="10.00">OfChar</text>
</a>
</g>
</g>
<!-- Node3&#45;&gt;Node27 -->
<g id="edge14_Node000003_Node000027" class="edge">
<title>Node3&#45;&gt;Node27</title>
<g id="a_edge14_Node000003_Node000027"><a xlink:title=" ">
<path fill="none" stroke="#63b8ff" d="M420.26,-198.65C480.3,-207.09 569.6,-219.64 630.54,-228.2"/>
<polygon fill="#63b8ff" stroke="#63b8ff" points="629.69,-231.61 640.08,-229.54 630.66,-224.68 629.69,-231.61"/>
</a>
</g>
</g>
<!-- Node28 -->
<g id="Node000028" class="node">
<title>Node28</title>
<g id="a_Node000028"><a xlink:href="classwater_1_1String.html#a790b963e9b372e2dc6ce7e2deaceb01f" target="_top" xlink:title=" ">
<polygon fill="#fff0f0" stroke="red" points="755.75,-196.25 641.5,-196.25 641.5,-177 755.75,-177 755.75,-196.25"/>
<text xml:space="preserve" text-anchor="middle" x="698.62" y="-182.75" font-family="Helvetica,sans-Serif" font-size="10.00">water::String::substring</text>
</a>
</g>
</g>
<!-- Node3&#45;&gt;Node28 -->
<g id="edge15_Node000003_Node000028" class="edge">
<title>Node3&#45;&gt;Node28</title>
<g id="a_edge15_Node000003_Node000028"><a xlink:title=" ">
<path fill="none" stroke="#63b8ff" d="M420.26,-189.06C480,-188.54 568.69,-187.76 629.61,-187.22"/>
<polygon fill="#63b8ff" stroke="#63b8ff" points="629.54,-190.72 639.51,-187.14 629.48,-183.72 629.54,-190.72"/>
</a>
</g>
</g>
<!-- Node32 -->
<g id="Node000032" class="node">
<title>Node32</title>
<g id="a_Node000032"><a xlink:href="classwater_1_1String.html#accbe0d347261658661458bad2c63dbe1" target="_top" xlink:title=" ">
<polygon fill="white" stroke="#666666" points="592.75,-142.25 468.75,-142.25 468.75,-123 592.75,-123 592.75,-142.25"/>
<text xml:space="preserve" text-anchor="middle" x="530.75" y="-128.75" font-family="Helvetica,sans-Serif" font-size="10.00">water::String::getIntValue</text>
</a>
</g>
</g>
<!-- Node3&#45;&gt;Node32 -->
<g id="edge11_Node000003_Node000032" class="edge">
<title>Node3&#45;&gt;Node32</title>
<g id="a_edge11_Node000003_Node000032"><a xlink:title=" ">
<path fill="none" stroke="#63b8ff" d="M403.55,-173.89C420.14,-168.41 438.89,-162.23 456,-156.62 466.45,-153.2 477.73,-149.52 488.26,-146.1"/>
<polygon fill="#63b8ff" stroke="#63b8ff" points="489.02,-149.53 497.44,-143.11 486.85,-142.87 489.02,-149.53"/>
</a>
</g>
</g>
<!-- Node33 -->
<g id="Node000033" class="node">
<title>Node33</title>
<g id="a_Node000033"><a xlink:href="classwater_1_1String.html#a55f14913bd97899646f4721542e23e7e" target="_top" xlink:title=" ">
<polygon fill="#fff0f0" stroke="red" points="605.5,-105.25 456,-105.25 456,-86 605.5,-86 605.5,-105.25"/>
<text xml:space="preserve" text-anchor="middle" x="530.75" y="-91.75" font-family="Helvetica,sans-Serif" font-size="10.00">water::String::getLastCharacter</text>
</a>
</g>
</g>
<!-- Node3&#45;&gt;Node33 -->
<g id="edge12_Node000003_Node000033" class="edge">
<title>Node3&#45;&gt;Node33</title>
<g id="a_edge12_Node000003_Node000033"><a xlink:title=" ">
<path fill="none" stroke="#63b8ff" d="M371.94,-174.13C390.59,-156.86 423.12,-129.29 456,-113.62 459.27,-112.07 462.69,-110.63 466.19,-109.32"/>
<polygon fill="#63b8ff" stroke="#63b8ff" points="467.06,-112.72 475.42,-106.21 464.82,-106.09 467.06,-112.72"/>
</a>
</g>
</g>
<!-- Node36 -->
<g id="Node000036" class="node">
<title>Node36</title>
<g id="a_Node000036"><a xlink:href="classwater_1_1CharacterFunctions.html#a2164948e6d21d991b472f939b91feb45" target="_top" xlink:title=" ">
<polygon fill="white" stroke="#666666" points="595.38,-67.88 466.12,-67.88 466.12,-37.38 595.38,-37.38 595.38,-67.88"/>
<text xml:space="preserve" text-anchor="start" x="474.12" y="-54.38" font-family="Helvetica,sans-Serif" font-size="10.00">water::CharacterFunctions</text>
<text xml:space="preserve" text-anchor="middle" x="530.75" y="-43.12" font-family="Helvetica,sans-Serif" font-size="10.00">::isDigit</text>
</a>
</g>
</g>
<!-- Node3&#45;&gt;Node36 -->
<g id="edge13_Node000003_Node000036" class="edge">
<title>Node3&#45;&gt;Node36</title>
<g id="a_edge13_Node000003_Node000036"><a xlink:title=" ">
<path fill="none" stroke="#63b8ff" d="M365.72,-174.11C381.67,-149.87 415.69,-103.06 456,-76.62 457.82,-75.43 459.69,-74.3 461.62,-73.21"/>
<polygon fill="#63b8ff" stroke="#63b8ff" points="462.87,-76.51 470.24,-68.9 459.73,-70.25 462.87,-76.51"/>
</a>
</g>
</g>
<!-- Node37 -->
<g id="Node000037" class="node">
<title>Node37</title>
<g id="a_Node000037"><a xlink:href="classwater_1_1String.html#a5ed648f71d99bb8aef15e8ba35422a30" target="_top" xlink:title=" ">
<polygon fill="#fff0f0" stroke="red" points="576.25,-19.25 485.25,-19.25 485.25,0 576.25,0 576.25,-19.25"/>
<text xml:space="preserve" text-anchor="middle" x="530.75" y="-5.75" font-family="Helvetica,sans-Serif" font-size="10.00">water::String::trim</text>
</a>
</g>
</g>
<!-- Node3&#45;&gt;Node37 -->
<g id="edge16_Node000003_Node000037" class="edge">
<title>Node3&#45;&gt;Node37</title>
<g id="a_edge16_Node000003_Node000037"><a xlink:title=" ">
<path fill="none" stroke="#63b8ff" d="M361.16,-174.03C372.7,-141.65 403.76,-67 456,-28.62 461.39,-24.66 467.54,-21.53 473.92,-19.04"/>
<polygon fill="#63b8ff" stroke="#63b8ff" points="474.97,-22.38 483.37,-15.92 472.78,-15.73 474.97,-22.38"/>
</a>
</g>
</g>
<!-- Node7&#45;&gt;Node6 -->
<g id="edge7_Node000007_Node000006" class="edge">
<title>Node7&#45;&gt;Node6</title>
<g id="a_edge7_Node000007_Node000006"><a xlink:title=" ">
<path fill="none" stroke="#63b8ff" d="M568.98,-256.72C592.77,-263.18 623.87,-271.62 649.53,-278.58"/>
<polygon fill="#63b8ff" stroke="#63b8ff" points="648.5,-281.92 659.06,-281.16 650.33,-275.17 648.5,-281.92"/>
</a>
</g>
</g>
<!-- Node7&#45;&gt;Node7 -->
<g id="edge8_Node000007_Node000007" class="edge">
<title>Node7&#45;&gt;Node7</title>
<g id="a_edge8_Node000007_Node000007"><a xlink:title=" ">
<path fill="none" stroke="#63b8ff" d="M504.47,-256.54C492.48,-265.15 501.24,-274.25 530.75,-274.25 547.35,-274.25 557.38,-271.37 560.85,-267.32"/>
<polygon fill="#63b8ff" stroke="#63b8ff" points="564.18,-266.22 557.54,-257.96 557.58,-268.56 564.18,-266.22"/>
</a>
</g>
</g>
<!-- Node7&#45;&gt;Node27 -->
<g id="edge9_Node000007_Node000027" class="edge">
<title>Node7&#45;&gt;Node27</title>
<g id="a_edge9_Node000007_Node000027"><a xlink:title=" ">
<path fill="none" stroke="#63b8ff" d="M588.83,-243.53C602.16,-242.8 616.47,-242.03 630.2,-241.28"/>
<polygon fill="#63b8ff" stroke="#63b8ff" points="630.25,-244.79 640.05,-240.75 629.87,-237.8 630.25,-244.79"/>
</a>
</g>
</g>
<!-- Node7&#45;&gt;Node28 -->
<g id="edge10_Node000007_Node000028" class="edge">
<title>Node7&#45;&gt;Node28</title>
<g id="a_edge10_Node000007_Node000028"><a xlink:title=" ">
<path fill="none" stroke="#63b8ff" d="M559.51,-236.58C586.78,-226.72 628.62,-211.59 659.1,-200.56"/>
<polygon fill="#63b8ff" stroke="#63b8ff" points="660.13,-203.91 668.35,-197.22 657.75,-197.33 660.13,-203.91"/>
</a>
</g>
</g>
</g>
</svg>

<g id="navigator" transform="translate(0 0)" fill="#404254">
  <rect fill="#f2f5e9" fill-opacity="0.5" stroke="#606060" stroke-width=".5" x="0" y="0" width="60" height="60"/>
  <use id="zoomplus" xlink:href="#zoomPlus" x="17" y="9" onmousedown="handleZoom(evt,'in')"/>
  <use id="zoomminus" xlink:href="#zoomMin" x="42" y="9" onmousedown="handleZoom(evt,'out')"/>
  <use id="reset" xlink:href="#resetDef" x="30" y="36" onmousedown="handleReset()"/>
   <use id="arrowup" xlink:href="#arrowUp" x="0" y="0" onmousedown="handlePan(0,-1)"/>
  <use id="arrowright" xlink:href="#arrowRight" x="0" y="0" onmousedown="handlePan(1,0)"/>
  <use id="arrowdown" xlink:href="#arrowDown" x="0" y="0" onmousedown="handlePan(0,1)"/>
  <use id="arrowleft" xlink:href="#arrowLeft" x="0" y="0" onmousedown="handlePan(-1,0)"/>
</g>
<svg viewBox="0 0 15 15" width="100%" height="30px" preserveAspectRatio="xMaxYMin meet">
 <g id="arrow_out" transform="scale(0.3 0.3)">
  <a xlink:href="classwater_1_1TemporaryFile_ab0a955e85787a48f75c3797ef8cfabbe_cgraph_org.svg" target="_base">
   <rect id="button" ry="5" rx="5" y="6" x="6" height="38" width="38"
        fill="#f2f5e9" fill-opacity="0.5" stroke="#606060" stroke-width="1.0"/>
   <path id="arrow"
     d="M 11.500037,31.436501 C 11.940474,20.09759 22.043105,11.32322 32.158766,21.979434 L 37.068811,17.246167 C 37.068811,17.246167 37.088388,32 37.088388,32 L 22.160133,31.978069 C 22.160133,31.978069 26.997745,27.140456 26.997745,27.140456 C 18.528582,18.264221 13.291696,25.230495 11.500037,31.436501 z"
     style="fill:#404040;"/>
  </a>
 </g>
</svg>

<style type='text/css'>
<![CDATA[
[data-mouse-over-selected='false'] { opacity: 0.7; }
[data-mouse-over-selected='true']  { opacity: 1.0; }
]]>
</style>
<script type="application/ecmascript"><![CDATA[
document.addEventListener('DOMContentLoaded', (event) => {
  highlightEdges();
  highlightAdjacentNodes();
});
]]></script>
</svg>
