<?xml version="1.0" encoding="UTF-8" standalone="no"?>
<!DOCTYPE svg PUBLIC "-//W3C//DTD SVG 1.1//EN"
 "http://www.w3.org/Graphics/SVG/1.1/DTD/svg11.dtd">
<!-- Generated by graphviz version 14.0.2 (0)
 -->
<!-- Title: juce::HWNDComponentPeer::updateModifiersFromWParam Pages: 1 -->
<!--zoomable 125 -->

<svg id="main" version="1.1" xmlns="http://www.w3.org/2000/svg" xmlns:xlink="http://www.w3.org/1999/xlink" xml:space="preserve" onload="init(evt)">

<style type="text/css"><![CDATA[
.node, .edge {opacity: 0.7;}
.node.selected, .edge.selected {opacity: 1;}
.edge:hover path { stroke: red; }
.edge:hover polygon { stroke: red; fill: red; }
]]></style>

<defs>
  <circle id="rim" cx="0" cy="0" r="7"/>
  <circle id="rim2" cx="0" cy="0" r="3.5"/>
  <g id="zoomPlus">
    <use xlink:href="#rim" fill="#404040"><set attributeName="fill" to="#808080" begin="zoomplus.mouseover" end="zoomplus.mouseout"/></use>
    <path d="M-4,0h8M0,-4v8" fill="none" stroke="white" stroke-width="1.5" pointer-events="none"/>
  </g>
  <g id="zoomMin">
    <use xlink:href="#rim" fill="#404040"><set attributeName="fill" to="#808080" begin="zoomminus.mouseover" end="zoomminus.mouseout"/></use>
    <path d="M-4,0h8" fill="none" stroke="white" stroke-width="1.5" pointer-events="none"/>
  </g>
  <g id="arrowUp" transform="translate(30 24)">
    <use xlink:href="#rim"/>
    <path pointer-events="none" fill="none" stroke="white" stroke-width="1.5" d="M0,-3.0v7 M-2.5,-0.5L0,-3.0L2.5,-0.5"/>
  </g>
  <g id="arrowRight" transform="rotate(90) translate(36 -43)">
    <use xlink:href="#rim"/>
    <path pointer-events="none" fill="none" stroke="white" stroke-width="1.5" d="M0,-3.0v7 M-2.5,-0.5L0,-3.0L2.5,-0.5"/>
  </g>
  <g id="arrowDown" transform="rotate(180) translate(-30 -48)">
    <use xlink:href="#rim"/>
    <path pointer-events="none" fill="none" stroke="white" stroke-width="1.5" d="M0,-3.0v7 M-2.5,-0.5L0,-3.0L2.5,-0.5"/>
  </g>
  <g id="arrowLeft" transform="rotate(270) translate(-36 17)">
    <use xlink:href="#rim"/>
    <path pointer-events="none" fill="none" stroke="white" stroke-width="1.5" d="M0,-3.0v7 M-2.5,-0.5L0,-3.0L2.5,-0.5"/>
  </g>
  <g id="resetDef">
    <use xlink:href="#rim2" fill="#404040"><set attributeName="fill" to="#808080" begin="reset.mouseover" end="reset.mouseout"/></use>
  </g>
</defs>
<script type="application/ecmascript">
var viewWidth = 682;
var viewHeight = 125;
var sectionId = 'dynsection-163';
</script>
<script type="application/ecmascript" xlink:href="svg.min.js"/>
<svg id="graph" class="graph">
<g id="viewport">
<title>juce::HWNDComponentPeer::updateModifiersFromWParam</title>
<!-- Node1 -->
<g id="Node000001" class="node">
<title>Node1</title>
<g id="a_Node000001"><a xlink:title=" ">
<polygon fill="#999999" stroke="#666666" points="673.75,-94.5 525,-94.5 525,-64 673.75,-64 673.75,-94.5"/>
<text xml:space="preserve" text-anchor="start" x="533" y="-81" font-family="Helvetica,sans-Serif" font-size="10.00">juce::HWNDComponentPeer</text>
<text xml:space="preserve" text-anchor="middle" x="599.38" y="-69.75" font-family="Helvetica,sans-Serif" font-size="10.00">::updateModifiersFromWParam</text>
</a>
</g>
</g>
<!-- Node2 -->
<g id="Node000002" class="node">
<title>Node2</title>
<g id="a_Node000002"><a xlink:href="classjuce_1_1HWNDComponentPeer.html#a12d6cf6880cb97c1e89028523ae7d584" target="_top" xlink:title=" ">
<polygon fill="white" stroke="#666666" points="314,-116.5 175,-116.5 175,-86 314,-86 314,-116.5"/>
<text xml:space="preserve" text-anchor="start" x="183" y="-103" font-family="Helvetica,sans-Serif" font-size="10.00">juce::HWNDComponentPeer</text>
<text xml:space="preserve" text-anchor="middle" x="244.5" y="-91.75" font-family="Helvetica,sans-Serif" font-size="10.00">::doMouseDown</text>
</a>
</g>
</g>
<!-- Node1&#45;&gt;Node2 -->
<g id="edge1_Node000001_Node000002" class="edge">
<title>Node1&#45;&gt;Node2</title>
<g id="a_edge1_Node000001_Node000002"><a xlink:title=" ">
<path fill="none" stroke="#63b8ff" d="M513.69,-84.53C452.72,-88.33 371.48,-93.4 314.45,-96.95"/>
<polygon fill="#63b8ff" stroke="#63b8ff" points="513.56,-88.04 523.32,-83.93 513.12,-81.06 513.56,-88.04"/>
</a>
</g>
</g>
<!-- Node4 -->
<g id="Node000004" class="node">
<title>Node4</title>
<g id="a_Node000004"><a xlink:href="classjuce_1_1HWNDComponentPeer.html#a4f8af89a10df105d58e6df1dabeebd75" target="_top" xlink:title=" ">
<polygon fill="white" stroke="#666666" points="489,-73.5 350,-73.5 350,-43 489,-43 489,-73.5"/>
<text xml:space="preserve" text-anchor="start" x="358" y="-60" font-family="Helvetica,sans-Serif" font-size="10.00">juce::HWNDComponentPeer</text>
<text xml:space="preserve" text-anchor="middle" x="419.5" y="-48.75" font-family="Helvetica,sans-Serif" font-size="10.00">::doMouseUp</text>
</a>
</g>
</g>
<!-- Node1&#45;&gt;Node4 -->
<g id="edge3_Node000001_Node000004" class="edge">
<title>Node1&#45;&gt;Node4</title>
<g id="a_edge3_Node000001_Node000004"><a xlink:title=" ">
<path fill="none" stroke="#63b8ff" d="M513.36,-69.21C505.27,-68.26 497.14,-67.3 489.23,-66.36"/>
<polygon fill="#63b8ff" stroke="#63b8ff" points="512.9,-72.68 523.24,-70.38 513.72,-65.73 512.9,-72.68"/>
</a>
</g>
</g>
<!-- Node3 -->
<g id="Node000003" class="node">
<title>Node3</title>
<g id="a_Node000003"><a xlink:href="classjuce_1_1HWNDComponentPeer.html#a8c9cebf76fede76fe2b1b9c6600b2f97" target="_top" xlink:title=" ">
<polygon fill="white" stroke="#666666" points="139,-73.5 0,-73.5 0,-43 139,-43 139,-73.5"/>
<text xml:space="preserve" text-anchor="start" x="8" y="-60" font-family="Helvetica,sans-Serif" font-size="10.00">juce::HWNDComponentPeer</text>
<text xml:space="preserve" text-anchor="middle" x="69.5" y="-48.75" font-family="Helvetica,sans-Serif" font-size="10.00">::peerWindowProc</text>
</a>
</g>
</g>
<!-- Node2&#45;&gt;Node3 -->
<g id="edge2_Node000002_Node000003" class="edge">
<title>Node2&#45;&gt;Node3</title>
<g id="a_edge2_Node000002_Node000003"><a xlink:title=" ">
<path fill="none" stroke="#63b8ff" d="M169.67,-82.9C157.69,-79.92 145.38,-76.86 133.69,-73.96"/>
<polygon fill="#63b8ff" stroke="#63b8ff" points="168.54,-86.22 179.08,-85.24 170.22,-79.43 168.54,-86.22"/>
</a>
</g>
</g>
<!-- Node4&#45;&gt;Node3 -->
<g id="edge6_Node000004_Node000003" class="edge">
<title>Node4&#45;&gt;Node3</title>
<g id="a_edge6_Node000004_Node000003"><a xlink:title=" ">
<path fill="none" stroke="#63b8ff" d="M338.39,-58.25C278.22,-58.25 196.67,-58.25 139.41,-58.25"/>
<polygon fill="#63b8ff" stroke="#63b8ff" points="338.23,-61.75 348.23,-58.25 338.23,-54.75 338.23,-61.75"/>
</a>
</g>
</g>
<!-- Node5 -->
<g id="Node000005" class="node">
<title>Node5</title>
<g id="a_Node000005"><a xlink:href="classjuce_1_1HWNDComponentPeer.html#a61eeb95a28b6bfc00b3caee231feddc2" target="_top" xlink:title=" ">
<polygon fill="white" stroke="#666666" points="314,-30.5 175,-30.5 175,0 314,0 314,-30.5"/>
<text xml:space="preserve" text-anchor="start" x="183" y="-17" font-family="Helvetica,sans-Serif" font-size="10.00">juce::HWNDComponentPeer</text>
<text xml:space="preserve" text-anchor="middle" x="244.5" y="-5.75" font-family="Helvetica,sans-Serif" font-size="10.00">::doCaptureChanged</text>
</a>
</g>
</g>
<!-- Node4&#45;&gt;Node5 -->
<g id="edge4_Node000004_Node000005" class="edge">
<title>Node4&#45;&gt;Node5</title>
<g id="a_edge4_Node000004_Node000005"><a xlink:title=" ">
<path fill="none" stroke="#63b8ff" d="M344.67,-39.9C332.69,-36.92 320.38,-33.86 308.69,-30.96"/>
<polygon fill="#63b8ff" stroke="#63b8ff" points="343.54,-43.22 354.08,-42.24 345.22,-36.43 343.54,-43.22"/>
</a>
</g>
</g>
<!-- Node5&#45;&gt;Node3 -->
<g id="edge5_Node000005_Node000003" class="edge">
<title>Node5&#45;&gt;Node3</title>
<g id="a_edge5_Node000005_Node000003"><a xlink:title=" ">
<path fill="none" stroke="#63b8ff" d="M169.67,-33.6C157.69,-36.58 145.38,-39.64 133.69,-42.54"/>
<polygon fill="#63b8ff" stroke="#63b8ff" points="170.22,-37.07 179.08,-31.26 168.54,-30.28 170.22,-37.07"/>
</a>
</g>
</g>
</g>
</svg>

<g id="navigator" transform="translate(0 0)" fill="#404254">
  <rect fill="#f2f5e9" fill-opacity="0.5" stroke="#606060" stroke-width=".5" x="0" y="0" width="60" height="60"/>
  <use id="zoomplus" xlink:href="#zoomPlus" x="17" y="9" onmousedown="handleZoom(evt,'in')"/>
  <use id="zoomminus" xlink:href="#zoomMin" x="42" y="9" onmousedown="handleZoom(evt,'out')"/>
  <use id="reset" xlink:href="#resetDef" x="30" y="36" onmousedown="handleReset()"/>
   <use id="arrowup" xlink:href="#arrowUp" x="0" y="0" onmousedown="handlePan(0,-1)"/>
  <use id="arrowright" xlink:href="#arrowRight" x="0" y="0" onmousedown="handlePan(1,0)"/>
  <use id="arrowdown" xlink:href="#arrowDown" x="0" y="0" onmousedown="handlePan(0,1)"/>
  <use id="arrowleft" xlink:href="#arrowLeft" x="0" y="0" onmousedown="handlePan(-1,0)"/>
</g>
<svg viewBox="0 0 15 15" width="100%" height="30px" preserveAspectRatio="xMaxYMin meet">
 <g id="arrow_out" transform="scale(0.3 0.3)">
  <a xlink:href="classjuce_1_1HWNDComponentPeer_a20eb393283b2bd067aefa601c1948264_icgraph_org.svg" target="_base">
   <rect id="button" ry="5" rx="5" y="6" x="6" height="38" width="38"
        fill="#f2f5e9" fill-opacity="0.5" stroke="#606060" stroke-width="1.0"/>
   <path id="arrow"
     d="M 11.500037,31.436501 C 11.940474,20.09759 22.043105,11.32322 32.158766,21.979434 L 37.068811,17.246167 C 37.068811,17.246167 37.088388,32 37.088388,32 L 22.160133,31.978069 C 22.160133,31.978069 26.997745,27.140456 26.997745,27.140456 C 18.528582,18.264221 13.291696,25.230495 11.500037,31.436501 z"
     style="fill:#404040;"/>
  </a>
 </g>
</svg>

<style type='text/css'>
<![CDATA[
[data-mouse-over-selected='false'] { opacity: 0.7; }
[data-mouse-over-selected='true']  { opacity: 1.0; }
]]>
</style>
<script type="application/ecmascript"><![CDATA[
document.addEventListener('DOMContentLoaded', (event) => {
  highlightEdges();
  highlightAdjacentNodes();
});
]]></script>
</svg>
