<?xml version="1.0" encoding="UTF-8" standalone="no"?>
<!DOCTYPE svg PUBLIC "-//W3C//DTD SVG 1.1//EN"
 "http://www.w3.org/Graphics/SVG/1.1/DTD/svg11.dtd">
<!-- Generated by graphviz version 14.0.2 (0)
 -->
<!-- Title: lmms::gui::ControllerView::ControllerView Pages: 1 -->
<!--zoomable 493 -->

<svg id="main" version="1.1" xmlns="http://www.w3.org/2000/svg" xmlns:xlink="http://www.w3.org/1999/xlink" xml:space="preserve" onload="init(evt)">

<style type="text/css"><![CDATA[
.node, .edge {opacity: 0.7;}
.node.selected, .edge.selected {opacity: 1;}
.edge:hover path { stroke: red; }
.edge:hover polygon { stroke: red; fill: red; }
]]></style>

<defs>
  <circle id="rim" cx="0" cy="0" r="7"/>
  <circle id="rim2" cx="0" cy="0" r="3.5"/>
  <g id="zoomPlus">
    <use xlink:href="#rim" fill="#404040"><set attributeName="fill" to="#808080" begin="zoomplus.mouseover" end="zoomplus.mouseout"/></use>
    <path d="M-4,0h8M0,-4v8" fill="none" stroke="white" stroke-width="1.5" pointer-events="none"/>
  </g>
  <g id="zoomMin">
    <use xlink:href="#rim" fill="#404040"><set attributeName="fill" to="#808080" begin="zoomminus.mouseover" end="zoomminus.mouseout"/></use>
    <path d="M-4,0h8" fill="none" stroke="white" stroke-width="1.5" pointer-events="none"/>
  </g>
  <g id="arrowUp" transform="translate(30 24)">
    <use xlink:href="#rim"/>
    <path pointer-events="none" fill="none" stroke="white" stroke-width="1.5" d="M0,-3.0v7 M-2.5,-0.5L0,-3.0L2.5,-0.5"/>
  </g>
  <g id="arrowRight" transform="rotate(90) translate(36 -43)">
    <use xlink:href="#rim"/>
    <path pointer-events="none" fill="none" stroke="white" stroke-width="1.5" d="M0,-3.0v7 M-2.5,-0.5L0,-3.0L2.5,-0.5"/>
  </g>
  <g id="arrowDown" transform="rotate(180) translate(-30 -48)">
    <use xlink:href="#rim"/>
    <path pointer-events="none" fill="none" stroke="white" stroke-width="1.5" d="M0,-3.0v7 M-2.5,-0.5L0,-3.0L2.5,-0.5"/>
  </g>
  <g id="arrowLeft" transform="rotate(270) translate(-36 17)">
    <use xlink:href="#rim"/>
    <path pointer-events="none" fill="none" stroke="white" stroke-width="1.5" d="M0,-3.0v7 M-2.5,-0.5L0,-3.0L2.5,-0.5"/>
  </g>
  <g id="resetDef">
    <use xlink:href="#rim2" fill="#404040"><set attributeName="fill" to="#808080" begin="reset.mouseover" end="reset.mouseout"/></use>
  </g>
</defs>
<script type="application/ecmascript">
var viewWidth = 622;
var viewHeight = 493;
var sectionId = 'dynsection-2';
</script>
<script type="application/ecmascript" xlink:href="svg.min.js"/>
<svg id="graph" class="graph">
<g id="viewport">
<title>lmms::gui::ControllerView::ControllerView</title>
<!-- Node1 -->
<g id="Node000001" class="node">
<title>Node1</title>
<g id="a_Node000001"><a xlink:title=" ">
<polygon fill="#999999" stroke="#666666" points="124.75,-251.5 0,-251.5 0,-221 124.75,-221 124.75,-251.5"/>
<text xml:space="preserve" text-anchor="start" x="8" y="-238" font-family="Helvetica,sans-Serif" font-size="10.00">lmms::gui::ControllerView</text>
<text xml:space="preserve" text-anchor="middle" x="62.38" y="-226.75" font-family="Helvetica,sans-Serif" font-size="10.00">::ControllerView</text>
</a>
</g>
</g>
<!-- Node2 -->
<g id="Node000002" class="node">
<title>Node2</title>
<g id="a_Node000002"><a xlink:href="classlmms_1_1gui_1_1MainWindow.html#a828627e96cbb8e5624d266597475fcdf" target="_top" xlink:title=" ">
<polygon fill="white" stroke="#666666" points="285.12,-484.5 167.88,-484.5 167.88,-454 285.12,-454 285.12,-484.5"/>
<text xml:space="preserve" text-anchor="start" x="175.88" y="-471" font-family="Helvetica,sans-Serif" font-size="10.00">lmms::gui::MainWindow</text>
<text xml:space="preserve" text-anchor="middle" x="226.5" y="-459.75" font-family="Helvetica,sans-Serif" font-size="10.00">::addWindowedWidget</text>
</a>
</g>
</g>
<!-- Node1&#45;&gt;Node2 -->
<g id="edge1_Node000001_Node000002" class="edge">
<title>Node1&#45;&gt;Node2</title>
<g id="a_edge1_Node000001_Node000002"><a xlink:title=" ">
<path fill="none" stroke="#63b8ff" d="M66.5,-251.92C74.88,-290.11 101.42,-388.9 160.75,-444.25 161.96,-445.38 163.23,-446.46 164.54,-447.49"/>
<polygon fill="#63b8ff" stroke="#63b8ff" points="162.28,-450.19 172.55,-452.81 166.16,-444.36 162.28,-450.19"/>
</a>
</g>
</g>
<!-- Node3 -->
<g id="Node000003" class="node">
<title>Node3</title>
<g id="a_Node000003"><a xlink:href="classlmms_1_1gui_1_1ControllerView.html#a9c7f694c0486608437ff5a4382d4f58f" target="_top" xlink:title=" ">
<polygon fill="white" stroke="#666666" points="288.88,-435.5 164.12,-435.5 164.12,-405 288.88,-405 288.88,-435.5"/>
<text xml:space="preserve" text-anchor="start" x="172.12" y="-422" font-family="Helvetica,sans-Serif" font-size="10.00">lmms::gui::ControllerView</text>
<text xml:space="preserve" text-anchor="middle" x="226.5" y="-410.75" font-family="Helvetica,sans-Serif" font-size="10.00">::closeControls</text>
</a>
</g>
</g>
<!-- Node1&#45;&gt;Node3 -->
<g id="edge2_Node000001_Node000003" class="edge">
<title>Node1&#45;&gt;Node3</title>
<g id="a_edge2_Node000001_Node000003"><a xlink:title=" ">
<path fill="none" stroke="#63b8ff" d="M68.88,-251.66C80.83,-283.01 112.02,-354.63 160.75,-395.25 162.21,-396.47 163.74,-397.63 165.33,-398.75"/>
<polygon fill="#63b8ff" stroke="#63b8ff" points="163.21,-401.56 173.57,-403.76 166.85,-395.57 163.21,-401.56"/>
</a>
</g>
</g>
<!-- Node4 -->
<g id="Node000004" class="node">
<title>Node4</title>
<g id="a_Node000004"><a xlink:href="classlmms_1_1Controller.html#a999924bb3dd416f07ad1aeb1ba9230e7" target="_top" xlink:title=" ">
<polygon fill="white" stroke="#666666" points="285.12,-386.5 167.88,-386.5 167.88,-356 285.12,-356 285.12,-386.5"/>
<text xml:space="preserve" text-anchor="start" x="175.88" y="-373" font-family="Helvetica,sans-Serif" font-size="10.00">lmms::Controller::create</text>
<text xml:space="preserve" text-anchor="middle" x="226.5" y="-361.75" font-family="Helvetica,sans-Serif" font-size="10.00">Dialog</text>
</a>
</g>
</g>
<!-- Node1&#45;&gt;Node4 -->
<g id="edge3_Node000001_Node000004" class="edge">
<title>Node1&#45;&gt;Node4</title>
<g id="a_edge3_Node000001_Node000004"><a xlink:title=" ">
<path fill="none" stroke="#63b8ff" d="M73.19,-251.69C88.95,-275.36 122.11,-320.65 160.75,-347.25 162.31,-348.32 163.93,-349.36 165.58,-350.35"/>
<polygon fill="#63b8ff" stroke="#63b8ff" points="163.63,-353.28 174.11,-354.9 166.93,-347.1 163.63,-353.28"/>
</a>
</g>
</g>
<!-- Node5 -->
<g id="Node000005" class="node">
<title>Node5</title>
<g id="a_Node000005"><a xlink:href="classlmms_1_1Model.html#a75b9a85f3cebbb54c6f8b6552881919d" target="_top" xlink:title=" ">
<polygon fill="white" stroke="#666666" points="292.25,-337.88 160.75,-337.88 160.75,-318.62 292.25,-318.62 292.25,-337.88"/>
<text xml:space="preserve" text-anchor="middle" x="226.5" y="-324.38" font-family="Helvetica,sans-Serif" font-size="10.00">lmms::Model::displayName</text>
</a>
</g>
</g>
<!-- Node1&#45;&gt;Node5 -->
<g id="edge4_Node000001_Node000005" class="edge">
<title>Node1&#45;&gt;Node5</title>
<g id="a_edge4_Node000001_Node000005"><a xlink:title=" ">
<path fill="none" stroke="#63b8ff" d="M80.06,-251.74C98.52,-268.14 129.77,-293.73 160.75,-309.25 164.48,-311.12 168.42,-312.83 172.45,-314.4"/>
<polygon fill="#63b8ff" stroke="#63b8ff" points="171.19,-317.67 181.78,-317.72 173.53,-311.07 171.19,-317.67"/>
</a>
</g>
</g>
<!-- Node6 -->
<g id="Node000006" class="node">
<title>Node6</title>
<g id="a_Node000006"><a xlink:href="classlmms_1_1gui_1_1ControllerView.html#a42bd888bf7536a0fd351c37827440696" target="_top" xlink:title=" ">
<polygon fill="white" stroke="#666666" points="288.88,-300.5 164.12,-300.5 164.12,-270 288.88,-270 288.88,-300.5"/>
<text xml:space="preserve" text-anchor="start" x="172.12" y="-287" font-family="Helvetica,sans-Serif" font-size="10.00">lmms::gui::ControllerView</text>
<text xml:space="preserve" text-anchor="middle" x="226.5" y="-275.75" font-family="Helvetica,sans-Serif" font-size="10.00">::editControls</text>
</a>
</g>
</g>
<!-- Node1&#45;&gt;Node6 -->
<g id="edge5_Node000001_Node000006" class="edge">
<title>Node1&#45;&gt;Node6</title>
<g id="a_edge5_Node000001_Node000006"><a xlink:title=" ">
<path fill="none" stroke="#63b8ff" d="M115.12,-251.89C130.25,-256.46 146.96,-261.51 162.7,-266.27"/>
<polygon fill="#63b8ff" stroke="#63b8ff" points="161.38,-269.53 171.97,-269.07 163.41,-262.83 161.38,-269.53"/>
</a>
</g>
</g>
<!-- Node7 -->
<g id="Node000007" class="node">
<title>Node7</title>
<g id="a_Node000007"><a xlink:href="classlmms_1_1gui_1_1ControllerView.html#a154a6ac16847f3bce19fed5ba1c74870" target="_top" xlink:title=" ">
<polygon fill="white" stroke="#666666" points="288.88,-251.5 164.12,-251.5 164.12,-221 288.88,-221 288.88,-251.5"/>
<text xml:space="preserve" text-anchor="start" x="172.12" y="-238" font-family="Helvetica,sans-Serif" font-size="10.00">lmms::gui::ControllerView</text>
<text xml:space="preserve" text-anchor="middle" x="226.5" y="-226.75" font-family="Helvetica,sans-Serif" font-size="10.00">::getController</text>
</a>
</g>
</g>
<!-- Node1&#45;&gt;Node7 -->
<g id="edge6_Node000001_Node000007" class="edge">
<title>Node1&#45;&gt;Node7</title>
<g id="a_edge6_Node000001_Node000007"><a xlink:title=" ">
<path fill="none" stroke="#63b8ff" d="M125.13,-236.25C134,-236.25 143.2,-236.25 152.27,-236.25"/>
<polygon fill="#63b8ff" stroke="#63b8ff" points="152.13,-239.75 162.13,-236.25 152.13,-232.75 152.13,-239.75"/>
</a>
</g>
</g>
<!-- Node10 -->
<g id="Node000010" class="node">
<title>Node10</title>
<g id="a_Node000010"><a xlink:href="namespacelmms_1_1gui.html#a0f9bd49bea2bc61619a8b3966223cce5" target="_top" xlink:title=" ">
<polygon fill="white" stroke="#666666" points="273.12,-116.88 179.88,-116.88 179.88,-97.62 273.12,-97.62 273.12,-116.88"/>
<text xml:space="preserve" text-anchor="middle" x="226.5" y="-103.38" font-family="Helvetica,sans-Serif" font-size="10.00">lmms::gui::getGUI</text>
</a>
</g>
</g>
<!-- Node1&#45;&gt;Node10 -->
<g id="edge9_Node000001_Node000010" class="edge">
<title>Node1&#45;&gt;Node10</title>
<g id="a_edge9_Node000001_Node000010"><a xlink:title=" ">
<path fill="none" stroke="#63b8ff" d="M73,-220.62C88.52,-196.73 121.35,-151.27 160.75,-126.25 163.35,-124.6 166.1,-123.09 168.94,-121.7"/>
<polygon fill="#63b8ff" stroke="#63b8ff" points="170.27,-124.94 178.11,-117.82 167.54,-118.49 170.27,-124.94"/>
</a>
</g>
</g>
<!-- Node55 -->
<g id="Node000055" class="node">
<title>Node55</title>
<g id="a_Node000055"><a xlink:href="classlmms_1_1gui_1_1GuiApplication.html#a662943f6246d2b35896c4c7c9277fa3d" target="_top" xlink:title=" ">
<polygon fill="white" stroke="#666666" points="288.88,-79.5 164.12,-79.5 164.12,-49 288.88,-49 288.88,-79.5"/>
<text xml:space="preserve" text-anchor="start" x="172.12" y="-66" font-family="Helvetica,sans-Serif" font-size="10.00">lmms::gui::GuiApplication</text>
<text xml:space="preserve" text-anchor="middle" x="226.5" y="-54.75" font-family="Helvetica,sans-Serif" font-size="10.00">::mainWindow</text>
</a>
</g>
</g>
<!-- Node1&#45;&gt;Node55 -->
<g id="edge12_Node000001_Node000055" class="edge">
<title>Node1&#45;&gt;Node55</title>
<g id="a_edge12_Node000001_Node000055"><a xlink:title=" ">
<path fill="none" stroke="#63b8ff" d="M69.53,-220.95C82.21,-191.23 114.05,-125.39 160.75,-88.25 161.86,-87.37 163,-86.52 164.18,-85.7"/>
<polygon fill="#63b8ff" stroke="#63b8ff" points="165.63,-88.91 172.37,-80.74 162.01,-82.92 165.63,-88.91"/>
</a>
</g>
</g>
<!-- Node56 -->
<g id="Node000056" class="node">
<title>Node56</title>
<g id="a_Node000056"><a xlink:href="classlmms_1_1gui_1_1ModelView.html#a780137a2876c215debff0c81df4d01bc" target="_top" xlink:title=" ">
<polygon fill="white" stroke="#666666" points="445.5,-251.5 335.75,-251.5 335.75,-221 445.5,-221 445.5,-251.5"/>
<text xml:space="preserve" text-anchor="start" x="343.75" y="-238" font-family="Helvetica,sans-Serif" font-size="10.00">lmms::gui::ModelView</text>
<text xml:space="preserve" text-anchor="middle" x="390.62" y="-226.75" font-family="Helvetica,sans-Serif" font-size="10.00">::ModelView</text>
</a>
</g>
</g>
<!-- Node1&#45;&gt;Node56 -->
<g id="edge13_Node000001_Node000056" class="edge">
<title>Node1&#45;&gt;Node56</title>
<g id="a_edge13_Node000001_Node000056"><a xlink:title=" ">
<path fill="none" stroke="#63b8ff" d="M117.28,-220.51C131.31,-217.09 146.49,-213.98 160.75,-212.25 218.77,-205.21 234.23,-205.21 292.25,-212.25 302.83,-213.54 313.92,-215.58 324.68,-217.94"/>
<polygon fill="#63b8ff" stroke="#63b8ff" points="323.71,-221.31 334.25,-220.16 325.3,-214.49 323.71,-221.31"/>
</a>
</g>
</g>
<!-- Node58 -->
<g id="Node000058" class="node">
<title>Node58</title>
<g id="a_Node000058"><a xlink:href="classlmms_1_1Controller.html#a7ef65198043185f346dae62bbac98be8" target="_top" xlink:title=" ">
<polygon fill="white" stroke="#666666" points="283.62,-30.88 169.38,-30.88 169.38,-11.62 283.62,-11.62 283.62,-30.88"/>
<text xml:space="preserve" text-anchor="middle" x="226.5" y="-17.38" font-family="Helvetica,sans-Serif" font-size="10.00">lmms::Controller::name</text>
</a>
</g>
</g>
<!-- Node1&#45;&gt;Node58 -->
<g id="edge16_Node000001_Node000058" class="edge">
<title>Node1&#45;&gt;Node58</title>
<g id="a_edge16_Node000001_Node000058"><a xlink:title=" ">
<path fill="none" stroke="#63b8ff" d="M66.63,-220.62C75.17,-183.55 101.78,-89.67 160.75,-40.25 162.23,-39.01 163.79,-37.85 165.41,-36.76"/>
<polygon fill="#63b8ff" stroke="#63b8ff" points="166.86,-39.96 173.93,-32.07 163.49,-33.83 166.86,-39.96"/>
</a>
</g>
</g>
<!-- Node59 -->
<g id="Node000059" class="node">
<title>Node59</title>
<g id="a_Node000059"><a xlink:href="classlmms_1_1gui_1_1ModelView.html#acee9a5fbac2e45336369560f8905caa7" target="_top" xlink:title=" ">
<polygon fill="white" stroke="#666666" points="281.38,-165.5 171.62,-165.5 171.62,-135 281.38,-135 281.38,-165.5"/>
<text xml:space="preserve" text-anchor="start" x="179.62" y="-152" font-family="Helvetica,sans-Serif" font-size="10.00">lmms::gui::ModelView</text>
<text xml:space="preserve" text-anchor="middle" x="226.5" y="-140.75" font-family="Helvetica,sans-Serif" font-size="10.00">::setModel</text>
</a>
</g>
</g>
<!-- Node1&#45;&gt;Node59 -->
<g id="edge17_Node000001_Node000059" class="edge">
<title>Node1&#45;&gt;Node59</title>
<g id="a_edge17_Node000001_Node000059"><a xlink:title=" ">
<path fill="none" stroke="#63b8ff" d="M88.18,-220.73C107.61,-208.81 135.5,-192.25 160.75,-179.25 166.43,-176.32 172.47,-173.39 178.49,-170.58"/>
<polygon fill="#63b8ff" stroke="#63b8ff" points="179.52,-173.96 187.16,-166.61 176.61,-167.59 179.52,-173.96"/>
</a>
</g>
</g>
<!-- Node8 -->
<g id="Node000008" class="node">
<title>Node8</title>
<g id="a_Node000008"><a xlink:href="classlmms_1_1gui_1_1ModelView.html#ae2777d2efcf0f85a69623a93d574a9d9" target="_top" xlink:title=" ">
<polygon fill="white" stroke="#666666" points="445.5,-300.5 335.75,-300.5 335.75,-270 445.5,-270 445.5,-300.5"/>
<text xml:space="preserve" text-anchor="start" x="343.75" y="-287" font-family="Helvetica,sans-Serif" font-size="10.00">lmms::gui::ModelView</text>
<text xml:space="preserve" text-anchor="middle" x="390.62" y="-275.75" font-family="Helvetica,sans-Serif" font-size="10.00">::castModel</text>
</a>
</g>
</g>
<!-- Node7&#45;&gt;Node8 -->
<g id="edge7_Node000007_Node000008" class="edge">
<title>Node7&#45;&gt;Node8</title>
<g id="a_edge7_Node000007_Node000008"><a xlink:title=" ">
<path fill="none" stroke="#63b8ff" d="M279.24,-251.89C294.38,-256.46 311.09,-261.51 326.83,-266.27"/>
<polygon fill="#63b8ff" stroke="#63b8ff" points="325.51,-269.53 336.09,-269.07 327.53,-262.83 325.51,-269.53"/>
</a>
</g>
</g>
<!-- Node9 -->
<g id="Node000009" class="node">
<title>Node9</title>
<g id="a_Node000009"><a xlink:href="classlmms_1_1gui_1_1ModelView.html#a327f035b406407a77b1f8fe1e7fdee3f" target="_top" xlink:title=" ">
<polygon fill="white" stroke="#666666" points="606.25,-251.5 496.5,-251.5 496.5,-221 606.25,-221 606.25,-251.5"/>
<text xml:space="preserve" text-anchor="start" x="504.5" y="-238" font-family="Helvetica,sans-Serif" font-size="10.00">lmms::gui::ModelView</text>
<text xml:space="preserve" text-anchor="middle" x="551.38" y="-226.75" font-family="Helvetica,sans-Serif" font-size="10.00">::model</text>
</a>
</g>
</g>
<!-- Node8&#45;&gt;Node9 -->
<g id="edge8_Node000008_Node000009" class="edge">
<title>Node8&#45;&gt;Node9</title>
<g id="a_edge8_Node000008_Node000009"><a xlink:title=" ">
<path fill="none" stroke="#63b8ff" d="M442.29,-269.61C456.97,-265.08 473.16,-260.08 488.44,-255.37"/>
<polygon fill="#63b8ff" stroke="#63b8ff" points="489.4,-258.73 497.93,-252.44 487.34,-252.04 489.4,-258.73"/>
</a>
</g>
</g>
<!-- Node11 -->
<g id="Node000011" class="node">
<title>Node11</title>
<g id="a_Node000011"><a xlink:href="classlmms_1_1gui_1_1GuiApplication.html#ac376550c6eab0be216a675c26679b8b4" target="_top" xlink:title=" ">
<polygon fill="white" stroke="#666666" points="453,-30.5 328.25,-30.5 328.25,0 453,0 453,-30.5"/>
<text xml:space="preserve" text-anchor="start" x="336.25" y="-17" font-family="Helvetica,sans-Serif" font-size="10.00">lmms::gui::GuiApplication</text>
<text xml:space="preserve" text-anchor="middle" x="390.62" y="-5.75" font-family="Helvetica,sans-Serif" font-size="10.00">::instance</text>
</a>
</g>
</g>
<!-- Node10&#45;&gt;Node11 -->
<g id="edge10_Node000010_Node000011" class="edge">
<title>Node10&#45;&gt;Node11</title>
<g id="a_edge10_Node000010_Node000011"><a xlink:title=" ">
<path fill="none" stroke="#63b8ff" d="M273.62,-97.47C280.16,-95.03 286.59,-92 292.25,-88.25 313.31,-74.29 308.34,-59.81 328.25,-44.25 331.91,-41.39 335.89,-38.73 340.01,-36.27"/>
<polygon fill="#63b8ff" stroke="#63b8ff" points="341.4,-39.5 348.48,-31.62 338.03,-33.36 341.4,-39.5"/>
</a>
</g>
</g>
<!-- Node12 -->
<g id="Node000012" class="node">
<title>Node12</title>
<g id="a_Node000012"><a xlink:href="classlmms_1_1gui_1_1GuiApplication.html#a47c3bf2bb04682c1057ffe0f06665a5f" target="_top" xlink:title=" ">
<polygon fill="#fff0f0" stroke="red" points="613.75,-30.5 489,-30.5 489,0 613.75,0 613.75,-30.5"/>
<text xml:space="preserve" text-anchor="start" x="497" y="-17" font-family="Helvetica,sans-Serif" font-size="10.00">lmms::gui::GuiApplication</text>
<text xml:space="preserve" text-anchor="middle" x="551.38" y="-5.75" font-family="Helvetica,sans-Serif" font-size="10.00">::GuiApplication</text>
</a>
</g>
</g>
<!-- Node11&#45;&gt;Node12 -->
<g id="edge11_Node000011_Node000012" class="edge">
<title>Node11&#45;&gt;Node12</title>
<g id="a_edge11_Node000011_Node000012"><a xlink:title=" ">
<path fill="none" stroke="#63b8ff" d="M453.46,-15.25C461.33,-15.25 469.44,-15.25 477.46,-15.25"/>
<polygon fill="#63b8ff" stroke="#63b8ff" points="477.2,-18.75 487.2,-15.25 477.2,-11.75 477.2,-18.75"/>
</a>
</g>
</g>
<!-- Node56&#45;&gt;Node9 -->
<g id="edge14_Node000056_Node000009" class="edge">
<title>Node56&#45;&gt;Node9</title>
<g id="a_edge14_Node000056_Node000009"><a xlink:title=" ">
<path fill="none" stroke="#63b8ff" d="M445.81,-236.25C458.39,-236.25 471.9,-236.25 484.9,-236.25"/>
<polygon fill="#63b8ff" stroke="#63b8ff" points="484.65,-239.75 494.65,-236.25 484.65,-232.75 484.65,-239.75"/>
</a>
</g>
</g>
<!-- Node57 -->
<g id="Node000057" class="node">
<title>Node57</title>
<g id="a_Node000057"><a xlink:href="classlmms_1_1gui_1_1ModelView.html#a20499da452f52175dacea1cb6c129b20" target="_top" xlink:title=" ">
<polygon fill="white" stroke="#666666" points="606.25,-116.5 496.5,-116.5 496.5,-86 606.25,-86 606.25,-116.5"/>
<text xml:space="preserve" text-anchor="start" x="504.5" y="-103" font-family="Helvetica,sans-Serif" font-size="10.00">lmms::gui::ModelView</text>
<text xml:space="preserve" text-anchor="middle" x="551.38" y="-91.75" font-family="Helvetica,sans-Serif" font-size="10.00">::widget</text>
</a>
</g>
</g>
<!-- Node56&#45;&gt;Node57 -->
<g id="edge15_Node000056_Node000057" class="edge">
<title>Node56&#45;&gt;Node57</title>
<g id="a_edge15_Node000056_Node000057"><a xlink:title=" ">
<path fill="none" stroke="#63b8ff" d="M409.84,-220.76C437.68,-197.09 490.99,-151.75 523.35,-124.23"/>
<polygon fill="#63b8ff" stroke="#63b8ff" points="525.38,-127.1 530.73,-117.95 520.85,-121.76 525.38,-127.1"/>
</a>
</g>
</g>
<!-- Node59&#45;&gt;Node9 -->
<g id="edge20_Node000059_Node000009" class="edge">
<title>Node59&#45;&gt;Node9</title>
<g id="a_edge20_Node000059_Node000009"><a xlink:title=" ">
<path fill="none" stroke="#63b8ff" d="M281.54,-164.64C337.65,-179.59 425.44,-202.97 485.31,-218.92"/>
<polygon fill="#63b8ff" stroke="#63b8ff" points="484.13,-222.23 494.69,-221.42 485.93,-215.46 484.13,-222.23"/>
</a>
</g>
</g>
<!-- Node59&#45;&gt;Node57 -->
<g id="edge22_Node000059_Node000057" class="edge">
<title>Node59&#45;&gt;Node57</title>
<g id="a_edge22_Node000059_Node000057"><a xlink:title=" ">
<path fill="none" stroke="#63b8ff" d="M278.5,-134.67C283.36,-132.22 288.04,-129.43 292.25,-126.25 313.83,-109.98 304.14,-89.45 328.25,-77.25 383.52,-49.28 456.27,-65.54 503.19,-81.74"/>
<polygon fill="#63b8ff" stroke="#63b8ff" points="501.93,-85.01 512.53,-85.1 504.3,-78.42 501.93,-85.01"/>
</a>
</g>
</g>
<!-- Node60 -->
<g id="Node000060" class="node">
<title>Node60</title>
<g id="a_Node000060"><a xlink:href="classlmms_1_1gui_1_1ModelView.html#a786dd25d7da672c17c0b6e69962e9e73" target="_top" xlink:title=" ">
<polygon fill="white" stroke="#666666" points="445.5,-116.5 335.75,-116.5 335.75,-86 445.5,-86 445.5,-116.5"/>
<text xml:space="preserve" text-anchor="start" x="343.75" y="-103" font-family="Helvetica,sans-Serif" font-size="10.00">lmms::gui::ModelView</text>
<text xml:space="preserve" text-anchor="middle" x="390.62" y="-91.75" font-family="Helvetica,sans-Serif" font-size="10.00">::doConnections</text>
</a>
</g>
</g>
<!-- Node59&#45;&gt;Node60 -->
<g id="edge18_Node000059_Node000060" class="edge">
<title>Node59&#45;&gt;Node60</title>
<g id="a_edge18_Node000059_Node000060"><a xlink:title=" ">
<path fill="none" stroke="#63b8ff" d="M279.24,-134.61C294.38,-130.04 311.09,-124.99 326.83,-120.23"/>
<polygon fill="#63b8ff" stroke="#63b8ff" points="327.53,-123.67 336.09,-117.43 325.51,-116.97 327.53,-123.67"/>
</a>
</g>
</g>
<!-- Node61 -->
<g id="Node000061" class="node">
<title>Node61</title>
<g id="a_Node000061"><a xlink:href="classlmms_1_1gui_1_1ModelView.html#acbf4188ed972599141cb3e93b161cb16" target="_top" xlink:title=" ">
<polygon fill="white" stroke="#666666" points="445.5,-165.5 335.75,-165.5 335.75,-135 445.5,-135 445.5,-165.5"/>
<text xml:space="preserve" text-anchor="start" x="343.75" y="-152" font-family="Helvetica,sans-Serif" font-size="10.00">lmms::gui::ModelView</text>
<text xml:space="preserve" text-anchor="middle" x="390.62" y="-140.75" font-family="Helvetica,sans-Serif" font-size="10.00">::modelChanged</text>
</a>
</g>
</g>
<!-- Node59&#45;&gt;Node61 -->
<g id="edge21_Node000059_Node000061" class="edge">
<title>Node59&#45;&gt;Node61</title>
<g id="a_edge21_Node000059_Node000061"><a xlink:title=" ">
<path fill="none" stroke="#63b8ff" d="M281.49,-150.25C295.15,-150.25 309.97,-150.25 324.14,-150.25"/>
<polygon fill="#63b8ff" stroke="#63b8ff" points="323.81,-153.75 333.81,-150.25 323.81,-146.75 323.81,-153.75"/>
</a>
</g>
</g>
<!-- Node60&#45;&gt;Node57 -->
<g id="edge19_Node000060_Node000057" class="edge">
<title>Node60&#45;&gt;Node57</title>
<g id="a_edge19_Node000060_Node000057"><a xlink:title=" ">
<path fill="none" stroke="#63b8ff" d="M445.81,-101.25C458.39,-101.25 471.9,-101.25 484.9,-101.25"/>
<polygon fill="#63b8ff" stroke="#63b8ff" points="484.65,-104.75 494.65,-101.25 484.65,-97.75 484.65,-104.75"/>
</a>
</g>
</g>
</g>
</svg>

<g id="navigator" transform="translate(0 0)" fill="#404254">
  <rect fill="#f2f5e9" fill-opacity="0.5" stroke="#606060" stroke-width=".5" x="0" y="0" width="60" height="60"/>
  <use id="zoomplus" xlink:href="#zoomPlus" x="17" y="9" onmousedown="handleZoom(evt,'in')"/>
  <use id="zoomminus" xlink:href="#zoomMin" x="42" y="9" onmousedown="handleZoom(evt,'out')"/>
  <use id="reset" xlink:href="#resetDef" x="30" y="36" onmousedown="handleReset()"/>
   <use id="arrowup" xlink:href="#arrowUp" x="0" y="0" onmousedown="handlePan(0,-1)"/>
  <use id="arrowright" xlink:href="#arrowRight" x="0" y="0" onmousedown="handlePan(1,0)"/>
  <use id="arrowdown" xlink:href="#arrowDown" x="0" y="0" onmousedown="handlePan(0,1)"/>
  <use id="arrowleft" xlink:href="#arrowLeft" x="0" y="0" onmousedown="handlePan(-1,0)"/>
</g>
<svg viewBox="0 0 15 15" width="100%" height="30px" preserveAspectRatio="xMaxYMin meet">
 <g id="arrow_out" transform="scale(0.3 0.3)">
  <a xlink:href="classlmms_1_1gui_1_1ControllerView_a5ba2f870583f1dfaed49d18a4f0f8cfb_cgraph_org.svg" target="_base">
   <rect id="button" ry="5" rx="5" y="6" x="6" height="38" width="38"
        fill="#f2f5e9" fill-opacity="0.5" stroke="#606060" stroke-width="1.0"/>
   <path id="arrow"
     d="M 11.500037,31.436501 C 11.940474,20.09759 22.043105,11.32322 32.158766,21.979434 L 37.068811,17.246167 C 37.068811,17.246167 37.088388,32 37.088388,32 L 22.160133,31.978069 C 22.160133,31.978069 26.997745,27.140456 26.997745,27.140456 C 18.528582,18.264221 13.291696,25.230495 11.500037,31.436501 z"
     style="fill:#404040;"/>
  </a>
 </g>
</svg>

<style type='text/css'>
<![CDATA[
[data-mouse-over-selected='false'] { opacity: 0.7; }
[data-mouse-over-selected='true']  { opacity: 1.0; }
]]>
</style>
<script type="application/ecmascript"><![CDATA[
document.addEventListener('DOMContentLoaded', (event) => {
  highlightEdges();
  highlightAdjacentNodes();
});
]]></script>
</svg>
