<?xml version="1.0" encoding="UTF-8" standalone="no"?>
<!DOCTYPE svg PUBLIC "-//W3C//DTD SVG 1.1//EN"
 "http://www.w3.org/Graphics/SVG/1.1/DTD/svg11.dtd">
<!-- Generated by graphviz version 14.0.2 (0)
 -->
<!-- Title: lmms::AudioEngine::doSetAudioDevice Pages: 1 -->
<svg width="400pt" height="39pt"
 viewBox="0.00 0.00 400.00 39.00" xmlns="http://www.w3.org/2000/svg" xmlns:xlink="http://www.w3.org/1999/xlink">
<g id="graph0" class="graph" transform="scale(1 1) rotate(0) translate(4 34.5)">
<title>lmms::AudioEngine::doSetAudioDevice</title>
<!-- Node1 -->
<g id="Node000001" class="node">
<title>Node1</title>
<g id="a_Node000001"><a xlink:title=" ">
<polygon fill="#999999" stroke="#666666" points="392.25,-30.5 289.25,-30.5 289.25,0 392.25,0 392.25,-30.5"/>
<text xml:space="preserve" text-anchor="start" x="297.25" y="-17" font-family="Helvetica,sans-Serif" font-size="10.00">lmms::AudioEngine::</text>
<text xml:space="preserve" text-anchor="middle" x="340.75" y="-5.75" font-family="Helvetica,sans-Serif" font-size="10.00">doSetAudioDevice</text>
</a>
</g>
</g>
<!-- Node2 -->
<g id="Node000002" class="node">
<title>Node2</title>
<g id="a_Node000002"><a xlink:href="classlmms_1_1AudioEngine.html#a5617ad985476b332414b01214ea528a5" target="_top" xlink:title=" ">
<polygon fill="white" stroke="#666666" points="253.25,-30.5 150.25,-30.5 150.25,0 253.25,0 253.25,-30.5"/>
<text xml:space="preserve" text-anchor="start" x="158.25" y="-17" font-family="Helvetica,sans-Serif" font-size="10.00">lmms::AudioEngine::</text>
<text xml:space="preserve" text-anchor="middle" x="201.75" y="-5.75" font-family="Helvetica,sans-Serif" font-size="10.00">setAudioDevice</text>
</a>
</g>
</g>
<!-- Node1&#45;&gt;Node2 -->
<g id="edge1_Node000001_Node000002" class="edge">
<title>Node1&#45;&gt;Node2</title>
<g id="a_edge1_Node000001_Node000002"><a xlink:title=" ">
<path fill="none" stroke="#63b8ff" d="M277.81,-15.25C269.72,-15.25 261.51,-15.25 253.62,-15.25"/>
<polygon fill="#63b8ff" stroke="#63b8ff" points="277.61,-18.75 287.61,-15.25 277.61,-11.75 277.61,-18.75"/>
</a>
</g>
</g>
<!-- Node3 -->
<g id="Node000003" class="node">
<title>Node3</title>
<g id="a_Node000003"><a xlink:href="classlmms_1_1ProjectRenderer.html#a5d6a766cbaee5228755d160869217401" target="_top" xlink:title=" ">
<polygon fill="white" stroke="#666666" points="114.25,-30.5 0,-30.5 0,0 114.25,0 114.25,-30.5"/>
<text xml:space="preserve" text-anchor="start" x="8" y="-17" font-family="Helvetica,sans-Serif" font-size="10.00">lmms::ProjectRenderer</text>
<text xml:space="preserve" text-anchor="middle" x="57.12" y="-5.75" font-family="Helvetica,sans-Serif" font-size="10.00">::startProcessing</text>
</a>
</g>
</g>
<!-- Node2&#45;&gt;Node3 -->
<g id="edge2_Node000002_Node000003" class="edge">
<title>Node2&#45;&gt;Node3</title>
<g id="a_edge2_Node000002_Node000003"><a xlink:title=" ">
<path fill="none" stroke="#63b8ff" d="M138.79,-15.25C130.7,-15.25 122.45,-15.25 114.47,-15.25"/>
<polygon fill="#63b8ff" stroke="#63b8ff" points="138.55,-18.75 148.55,-15.25 138.55,-11.75 138.55,-18.75"/>
</a>
</g>
</g>
</g>
</svg>
