<?xml version="1.0" encoding="UTF-8" standalone="no"?>
<!DOCTYPE svg PUBLIC "-//W3C//DTD SVG 1.1//EN"
 "http://www.w3.org/Graphics/SVG/1.1/DTD/svg11.dtd">
<!-- Generated by graphviz version 14.0.2 (0)
 -->
<!-- Title: lmms::Lv2Effect::processImpl Pages: 1 -->
<svg width="301pt" height="64pt"
 viewBox="0.00 0.00 301.00 64.00" xmlns="http://www.w3.org/2000/svg" xmlns:xlink="http://www.w3.org/1999/xlink">
<g id="graph0" class="graph" transform="scale(1 1) rotate(0) translate(4 60.25)">
<title>lmms::Lv2Effect::processImpl</title>
<!-- Node1 -->
<g id="Node000001" class="node">
<title>Node1</title>
<g id="a_Node000001"><a xlink:title=" ">
<polygon fill="#999999" stroke="#666666" points="143.5,-37.25 0,-37.25 0,-18 143.5,-18 143.5,-37.25"/>
<text xml:space="preserve" text-anchor="middle" x="71.75" y="-23.75" font-family="Helvetica,sans-Serif" font-size="10.00">lmms::Lv2Effect::processImpl</text>
</a>
</g>
</g>
<!-- Node2 -->
<g id="Node000002" class="node">
<title>Node2</title>
<g id="a_Node000002"><a xlink:href="classlmms_1_1Effect.html#accb24ad7013da18654de91d747e47b68" target="_top" xlink:title=" ">
<polygon fill="white" stroke="#666666" points="291.5,-56.25 181,-56.25 181,-37 291.5,-37 291.5,-56.25"/>
<text xml:space="preserve" text-anchor="middle" x="236.25" y="-42.75" font-family="Helvetica,sans-Serif" font-size="10.00">lmms::Effect::dryLevel</text>
</a>
</g>
</g>
<!-- Node1&#45;&gt;Node2 -->
<g id="edge1_Node000001_Node000002" class="edge">
<title>Node1&#45;&gt;Node2</title>
<g id="a_edge1_Node000001_Node000002"><a xlink:title=" ">
<path fill="none" stroke="#63b8ff" d="M143.55,-35.9C152.14,-36.91 160.88,-37.93 169.39,-38.92"/>
<polygon fill="#63b8ff" stroke="#63b8ff" points="168.97,-42.4 179.31,-40.08 169.78,-35.45 168.97,-42.4"/>
</a>
</g>
</g>
<!-- Node3 -->
<g id="Node000003" class="node">
<title>Node3</title>
<g id="a_Node000003"><a xlink:href="classlmms_1_1Effect.html#a5da9a5e3be1f2f6693db410f24cf1b39" target="_top" xlink:title=" ">
<polygon fill="white" stroke="#666666" points="293,-19.25 179.5,-19.25 179.5,0 293,0 293,-19.25"/>
<text xml:space="preserve" text-anchor="middle" x="236.25" y="-5.75" font-family="Helvetica,sans-Serif" font-size="10.00">lmms::Effect::wetLevel</text>
</a>
</g>
</g>
<!-- Node1&#45;&gt;Node3 -->
<g id="edge2_Node000001_Node000003" class="edge">
<title>Node1&#45;&gt;Node3</title>
<g id="a_edge2_Node000001_Node000003"><a xlink:title=" ">
<path fill="none" stroke="#63b8ff" d="M143.55,-19.78C151.69,-18.88 159.97,-17.96 168.06,-17.07"/>
<polygon fill="#63b8ff" stroke="#63b8ff" points="168.28,-20.57 177.83,-15.99 167.5,-13.61 168.28,-20.57"/>
</a>
</g>
</g>
</g>
</svg>
