<?xml version="1.0" encoding="UTF-8" standalone="no"?>
<!DOCTYPE svg PUBLIC "-//W3C//DTD SVG 1.1//EN"
 "http://www.w3.org/Graphics/SVG/1.1/DTD/svg11.dtd">
<!-- Generated by graphviz version 14.0.2 (0)
 -->
<!-- Title: juce::ResamplingAudioSource::setResamplingRatio Pages: 1 -->
<svg width="680pt" height="130pt"
 viewBox="0.00 0.00 680.00 130.00" xmlns="http://www.w3.org/2000/svg" xmlns:xlink="http://www.w3.org/1999/xlink">
<g id="graph0" class="graph" transform="scale(1 1) rotate(0) translate(4 125.5)">
<title>juce::ResamplingAudioSource::setResamplingRatio</title>
<!-- Node1 -->
<g id="Node000001" class="node">
<title>Node1</title>
<g id="a_Node000001"><a xlink:title=" ">
<polygon fill="#999999" stroke="#666666" points="671.5,-63.5 526.5,-63.5 526.5,-33 671.5,-33 671.5,-63.5"/>
<text xml:space="preserve" text-anchor="start" x="534.5" y="-50" font-family="Helvetica,sans-Serif" font-size="10.00">juce::ResamplingAudioSource</text>
<text xml:space="preserve" text-anchor="middle" x="599" y="-38.75" font-family="Helvetica,sans-Serif" font-size="10.00">::setResamplingRatio</text>
</a>
</g>
</g>
<!-- Node1&#45;&gt;Node1 -->
<g id="edge6_Node000001_Node000001" class="edge">
<title>Node1&#45;&gt;Node1</title>
<g id="a_edge6_Node000001_Node000001"><a xlink:title=" ">
<path fill="none" stroke="#63b8ff" d="M628.54,-75.2C623.71,-78.97 613.86,-81.5 599,-81.5 571.82,-81.5 561.42,-73.06 567.79,-63.99"/>
<polygon fill="#63b8ff" stroke="#63b8ff" points="631.97,-75.89 629.99,-65.48 625.05,-74.86 631.97,-75.89"/>
</a>
</g>
</g>
<!-- Node2 -->
<g id="Node000002" class="node">
<title>Node2</title>
<g id="a_Node000002"><a xlink:href="namespacejuce_1_1dsp.html#ad606f162be2bdf0e51f057ff42fe1510" target="_top" xlink:title=" ">
<polygon fill="white" stroke="#666666" points="489.38,-97.5 356.38,-97.5 356.38,-67 489.38,-67 489.38,-97.5"/>
<text xml:space="preserve" text-anchor="start" x="364.38" y="-84" font-family="Helvetica,sans-Serif" font-size="10.00">juce::dsp::resampleImpulse</text>
<text xml:space="preserve" text-anchor="middle" x="422.88" y="-72.75" font-family="Helvetica,sans-Serif" font-size="10.00">Response</text>
</a>
</g>
</g>
<!-- Node1&#45;&gt;Node2 -->
<g id="edge1_Node000001_Node000002" class="edge">
<title>Node1&#45;&gt;Node2</title>
<g id="a_edge1_Node000001_Node000002"><a xlink:title=" ">
<path fill="none" stroke="#63b8ff" d="M515.04,-64.45C506.53,-66.11 497.96,-67.78 489.68,-69.4"/>
<polygon fill="#63b8ff" stroke="#63b8ff" points="515.54,-67.92 524.69,-62.57 514.2,-61.05 515.54,-67.92"/>
</a>
</g>
</g>
<!-- Node10 -->
<g id="Node000010" class="node">
<title>Node10</title>
<g id="a_Node000010"><a xlink:href="classjuce_1_1AudioTransportSource.html#aab7c5b8c21979b69f30dee5ec6eb2b18" target="_top" xlink:title=" ">
<polygon fill="white" stroke="#666666" points="490.5,-30.5 355.25,-30.5 355.25,0 490.5,0 490.5,-30.5"/>
<text xml:space="preserve" text-anchor="start" x="363.25" y="-17" font-family="Helvetica,sans-Serif" font-size="10.00">juce::AudioTransportSource</text>
<text xml:space="preserve" text-anchor="middle" x="422.88" y="-5.75" font-family="Helvetica,sans-Serif" font-size="10.00">::setSource</text>
</a>
</g>
</g>
<!-- Node1&#45;&gt;Node10 -->
<g id="edge7_Node000001_Node000010" class="edge">
<title>Node1&#45;&gt;Node10</title>
<g id="a_edge7_Node000001_Node000010"><a xlink:title=" ">
<path fill="none" stroke="#63b8ff" d="M515.11,-32.54C506.95,-31 498.75,-29.44 490.79,-27.93"/>
<polygon fill="#63b8ff" stroke="#63b8ff" points="514.21,-35.93 524.68,-34.36 515.51,-29.05 514.21,-35.93"/>
</a>
</g>
</g>
<!-- Node2&#45;&gt;Node2 -->
<g id="edge5_Node000002_Node000002" class="edge">
<title>Node2&#45;&gt;Node2</title>
<g id="a_edge5_Node000002_Node000002"><a xlink:title=" ">
<path fill="none" stroke="#63b8ff" d="M451.91,-109.2C447.16,-112.97 437.48,-115.5 422.88,-115.5 396.16,-115.5 385.94,-107.06 392.2,-97.99"/>
<polygon fill="#63b8ff" stroke="#63b8ff" points="455.35,-109.89 453.33,-99.48 448.42,-108.87 455.35,-109.89"/>
</a>
</g>
</g>
<!-- Node3 -->
<g id="Node000003" class="node">
<title>Node3</title>
<g id="a_Node000003"><a xlink:href="classjuce_1_1dsp_1_1ConvolutionEngineFactory.html#a0442c6b10848bc7864a4752b35c6841b" target="_top" xlink:title=" ">
<polygon fill="white" stroke="#666666" points="319.25,-97.5 180.25,-97.5 180.25,-67 319.25,-67 319.25,-97.5"/>
<text xml:space="preserve" text-anchor="start" x="188.25" y="-84" font-family="Helvetica,sans-Serif" font-size="10.00">juce::dsp::ConvolutionEngine</text>
<text xml:space="preserve" text-anchor="middle" x="249.75" y="-72.75" font-family="Helvetica,sans-Serif" font-size="10.00">Factory::makeEngine</text>
</a>
</g>
</g>
<!-- Node2&#45;&gt;Node3 -->
<g id="edge2_Node000002_Node000003" class="edge">
<title>Node2&#45;&gt;Node3</title>
<g id="a_edge2_Node000002_Node000003"><a xlink:title=" ">
<path fill="none" stroke="#63b8ff" d="M344.85,-82.25C336.45,-82.25 327.94,-82.25 319.65,-82.25"/>
<polygon fill="#63b8ff" stroke="#63b8ff" points="344.69,-85.75 354.69,-82.25 344.69,-78.75 344.69,-85.75"/>
</a>
</g>
</g>
<!-- Node4 -->
<g id="Node000004" class="node">
<title>Node4</title>
<g id="a_Node000004"><a xlink:href="classjuce_1_1dsp_1_1ConvolutionEngineFactory.html#a6eca0976410b4bf395dac721207d7035" target="_top" xlink:title=" ">
<polygon fill="#fff0f0" stroke="red" points="144.25,-121.5 0,-121.5 0,-91 144.25,-91 144.25,-121.5"/>
<text xml:space="preserve" text-anchor="start" x="8" y="-108" font-family="Helvetica,sans-Serif" font-size="10.00">juce::dsp::ConvolutionEngine</text>
<text xml:space="preserve" text-anchor="middle" x="72.12" y="-96.75" font-family="Helvetica,sans-Serif" font-size="10.00">Factory::setImpulseResponse</text>
</a>
</g>
</g>
<!-- Node3&#45;&gt;Node4 -->
<g id="edge3_Node000003_Node000004" class="edge">
<title>Node3&#45;&gt;Node4</title>
<g id="a_edge3_Node000003_Node000004"><a xlink:title=" ">
<path fill="none" stroke="#63b8ff" d="M168.65,-93.2C160.67,-94.29 152.61,-95.39 144.72,-96.47"/>
<polygon fill="#63b8ff" stroke="#63b8ff" points="168.91,-96.69 178.34,-91.87 167.96,-89.76 168.91,-96.69"/>
</a>
</g>
</g>
<!-- Node9 -->
<g id="Node000009" class="node">
<title>Node9</title>
<g id="a_Node000009"><a xlink:href="classjuce_1_1dsp_1_1ConvolutionEngineFactory.html#a4999c3c61e8798a8a6091a36d7cc3d07" target="_top" xlink:title=" ">
<polygon fill="white" stroke="#666666" points="141.62,-72.5 2.62,-72.5 2.62,-42 141.62,-42 141.62,-72.5"/>
<text xml:space="preserve" text-anchor="start" x="10.62" y="-59" font-family="Helvetica,sans-Serif" font-size="10.00">juce::dsp::ConvolutionEngine</text>
<text xml:space="preserve" text-anchor="middle" x="72.12" y="-47.75" font-family="Helvetica,sans-Serif" font-size="10.00">Factory::setProcessSpec</text>
</a>
</g>
</g>
<!-- Node3&#45;&gt;Node9 -->
<g id="edge4_Node000003_Node000009" class="edge">
<title>Node3&#45;&gt;Node9</title>
<g id="a_edge4_Node000003_Node000009"><a xlink:title=" ">
<path fill="none" stroke="#63b8ff" d="M168.69,-70.85C159.82,-69.59 150.84,-68.31 142.12,-67.07"/>
<polygon fill="#63b8ff" stroke="#63b8ff" points="167.95,-74.28 178.34,-72.23 168.94,-67.35 167.95,-74.28"/>
</a>
</g>
</g>
<!-- Node10&#45;&gt;Node10 -->
<g id="edge8_Node000010_Node000010" class="edge">
<title>Node10&#45;&gt;Node10</title>
<g id="a_edge8_Node000010_Node000010"><a xlink:title=" ">
<path fill="none" stroke="#63b8ff" d="M451.91,-42.2C447.16,-45.97 437.48,-48.5 422.88,-48.5 396.16,-48.5 385.94,-40.06 392.2,-30.99"/>
<polygon fill="#63b8ff" stroke="#63b8ff" points="455.35,-42.89 453.33,-32.48 448.42,-41.87 455.35,-42.89"/>
</a>
</g>
</g>
<!-- Node11 -->
<g id="Node000011" class="node">
<title>Node11</title>
<g id="a_Node000011"><a xlink:href="classjuce_1_1AudioTransportSource.html#a8cd632bf9fc884975e2e9810401fe516" target="_top" xlink:title=" ">
<polygon fill="white" stroke="#666666" points="317.38,-30.5 182.12,-30.5 182.12,0 317.38,0 317.38,-30.5"/>
<text xml:space="preserve" text-anchor="start" x="190.12" y="-17" font-family="Helvetica,sans-Serif" font-size="10.00">juce::AudioTransportSource</text>
<text xml:space="preserve" text-anchor="middle" x="249.75" y="-5.75" font-family="Helvetica,sans-Serif" font-size="10.00">::~AudioTransportSource</text>
</a>
</g>
</g>
<!-- Node10&#45;&gt;Node11 -->
<g id="edge9_Node000010_Node000011" class="edge">
<title>Node10&#45;&gt;Node11</title>
<g id="a_edge9_Node000010_Node000011"><a xlink:title=" ">
<path fill="none" stroke="#63b8ff" d="M343.86,-15.25C335.15,-15.25 326.34,-15.25 317.78,-15.25"/>
<polygon fill="#63b8ff" stroke="#63b8ff" points="343.71,-18.75 353.71,-15.25 343.71,-11.75 343.71,-18.75"/>
</a>
</g>
</g>
<!-- Node11&#45;&gt;Node11 -->
<g id="edge10_Node000011_Node000011" class="edge">
<title>Node11&#45;&gt;Node11</title>
<g id="a_edge10_Node000011_Node000011"><a xlink:title=" ">
<path fill="none" stroke="#63b8ff" d="M278.78,-42.2C274.04,-45.97 264.36,-48.5 249.75,-48.5 223.04,-48.5 212.81,-40.06 219.07,-30.99"/>
<polygon fill="#63b8ff" stroke="#63b8ff" points="282.22,-42.89 280.21,-32.48 275.29,-41.87 282.22,-42.89"/>
</a>
</g>
</g>
</g>
</svg>
