<?xml version="1.0" encoding="UTF-8" standalone="no"?>
<!DOCTYPE svg PUBLIC "-//W3C//DTD SVG 1.1//EN"
 "http://www.w3.org/Graphics/SVG/1.1/DTD/svg11.dtd">
<!-- Generated by graphviz version 14.0.2 (0)
 -->
<!-- Title: CarlaPipeCommon::CarlaPipeCommon Pages: 1 -->
<!--zoomable 174 -->

<svg id="main" version="1.1" xmlns="http://www.w3.org/2000/svg" xmlns:xlink="http://www.w3.org/1999/xlink" xml:space="preserve" onload="init(evt)">

<style type="text/css"><![CDATA[
.node, .edge {opacity: 0.7;}
.node.selected, .edge.selected {opacity: 1;}
.edge:hover path { stroke: red; }
.edge:hover polygon { stroke: red; fill: red; }
]]></style>

<defs>
  <circle id="rim" cx="0" cy="0" r="7"/>
  <circle id="rim2" cx="0" cy="0" r="3.5"/>
  <g id="zoomPlus">
    <use xlink:href="#rim" fill="#404040"><set attributeName="fill" to="#808080" begin="zoomplus.mouseover" end="zoomplus.mouseout"/></use>
    <path d="M-4,0h8M0,-4v8" fill="none" stroke="white" stroke-width="1.5" pointer-events="none"/>
  </g>
  <g id="zoomMin">
    <use xlink:href="#rim" fill="#404040"><set attributeName="fill" to="#808080" begin="zoomminus.mouseover" end="zoomminus.mouseout"/></use>
    <path d="M-4,0h8" fill="none" stroke="white" stroke-width="1.5" pointer-events="none"/>
  </g>
  <g id="arrowUp" transform="translate(30 24)">
    <use xlink:href="#rim"/>
    <path pointer-events="none" fill="none" stroke="white" stroke-width="1.5" d="M0,-3.0v7 M-2.5,-0.5L0,-3.0L2.5,-0.5"/>
  </g>
  <g id="arrowRight" transform="rotate(90) translate(36 -43)">
    <use xlink:href="#rim"/>
    <path pointer-events="none" fill="none" stroke="white" stroke-width="1.5" d="M0,-3.0v7 M-2.5,-0.5L0,-3.0L2.5,-0.5"/>
  </g>
  <g id="arrowDown" transform="rotate(180) translate(-30 -48)">
    <use xlink:href="#rim"/>
    <path pointer-events="none" fill="none" stroke="white" stroke-width="1.5" d="M0,-3.0v7 M-2.5,-0.5L0,-3.0L2.5,-0.5"/>
  </g>
  <g id="arrowLeft" transform="rotate(270) translate(-36 17)">
    <use xlink:href="#rim"/>
    <path pointer-events="none" fill="none" stroke="white" stroke-width="1.5" d="M0,-3.0v7 M-2.5,-0.5L0,-3.0L2.5,-0.5"/>
  </g>
  <g id="resetDef">
    <use xlink:href="#rim2" fill="#404040"><set attributeName="fill" to="#808080" begin="reset.mouseover" end="reset.mouseout"/></use>
  </g>
</defs>
<script type="application/ecmascript">
var viewWidth = 656;
var viewHeight = 174;
var sectionId = 'dynsection-2';
</script>
<script type="application/ecmascript" xlink:href="svg.min.js"/>
<svg id="graph" class="graph">
<g id="viewport">
<title>CarlaPipeCommon::CarlaPipeCommon</title>
<!-- Node1 -->
<g id="Node000001" class="node">
<title>Node1</title>
<g id="a_Node000001"><a xlink:title=" ">
<polygon fill="#999999" stroke="#666666" points="648.25,-72.5 504.75,-72.5 504.75,-42 648.25,-42 648.25,-72.5"/>
<text xml:space="preserve" text-anchor="start" x="512.75" y="-59" font-family="Helvetica,sans-Serif" font-size="10.00">CarlaPipeCommon::CarlaPipe</text>
<text xml:space="preserve" text-anchor="middle" x="576.5" y="-47.75" font-family="Helvetica,sans-Serif" font-size="10.00">Common</text>
</a>
</g>
</g>
<!-- Node2 -->
<g id="Node000002" class="node">
<title>Node2</title>
<g id="a_Node000002"><a xlink:href="classCarlaPipeClient.html#a163ced1bbbd096d2dc97a9ce6439b513" target="_top" xlink:title=" ">
<polygon fill="white" stroke="#666666" points="466.88,-106.5 337.62,-106.5 337.62,-76 466.88,-76 466.88,-106.5"/>
<text xml:space="preserve" text-anchor="start" x="345.62" y="-93" font-family="Helvetica,sans-Serif" font-size="10.00">CarlaPipeClient::CarlaPipe</text>
<text xml:space="preserve" text-anchor="middle" x="402.25" y="-81.75" font-family="Helvetica,sans-Serif" font-size="10.00">Client</text>
</a>
</g>
</g>
<!-- Node1&#45;&gt;Node2 -->
<g id="edge1_Node000001_Node000002" class="edge">
<title>Node1&#45;&gt;Node2</title>
<g id="a_edge1_Node000001_Node000002"><a xlink:title=" ">
<path fill="none" stroke="#63b8ff" d="M493.38,-73.46C484.6,-75.19 475.77,-76.94 467.25,-78.62"/>
<polygon fill="#63b8ff" stroke="#63b8ff" points="493.83,-76.94 502.96,-71.57 492.47,-70.07 493.83,-76.94"/>
</a>
</g>
</g>
<!-- Node20 -->
<g id="Node000020" class="node">
<title>Node20</title>
<g id="a_Node000020"><a xlink:href="classCarlaPipeServer.html#a996ae453f7dfaf9cb39525d138abb753" target="_top" xlink:title=" ">
<polygon fill="white" stroke="#666666" points="468.75,-48.5 335.75,-48.5 335.75,-18 468.75,-18 468.75,-48.5"/>
<text xml:space="preserve" text-anchor="start" x="343.75" y="-35" font-family="Helvetica,sans-Serif" font-size="10.00">CarlaPipeServer::CarlaPipe</text>
<text xml:space="preserve" text-anchor="middle" x="402.25" y="-23.75" font-family="Helvetica,sans-Serif" font-size="10.00">Server</text>
</a>
</g>
</g>
<!-- Node1&#45;&gt;Node20 -->
<g id="edge6_Node000001_Node000020" class="edge">
<title>Node1&#45;&gt;Node20</title>
<g id="a_edge6_Node000001_Node000020"><a xlink:title=" ">
<path fill="none" stroke="#63b8ff" d="M493.14,-45.77C485.1,-44.65 477.01,-43.53 469.17,-42.43"/>
<polygon fill="#63b8ff" stroke="#63b8ff" points="492.56,-49.23 502.95,-47.14 493.52,-42.29 492.56,-49.23"/>
</a>
</g>
</g>
<!-- Node3 -->
<g id="Node000003" class="node">
<title>Node3</title>
<g id="a_Node000003"><a xlink:href="classCarlaBridgeFormat.html#a4690b36ad04acce197d15d3b371d981b" target="_top" xlink:title=" ">
<polygon fill="white" stroke="#666666" points="280.25,-165.5 178.75,-165.5 178.75,-135 280.25,-135 280.25,-165.5"/>
<text xml:space="preserve" text-anchor="start" x="186.75" y="-152" font-family="Helvetica,sans-Serif" font-size="10.00">CarlaBridgeFormat::</text>
<text xml:space="preserve" text-anchor="middle" x="229.5" y="-140.75" font-family="Helvetica,sans-Serif" font-size="10.00">CarlaBridgeFormat</text>
</a>
</g>
</g>
<!-- Node2&#45;&gt;Node3 -->
<g id="edge2_Node000002_Node000003" class="edge">
<title>Node2&#45;&gt;Node3</title>
<g id="a_edge2_Node000002_Node000003"><a xlink:title=" ">
<path fill="none" stroke="#63b8ff" d="M345.21,-110.61C322.78,-118.36 297.28,-127.18 276.02,-134.52"/>
<polygon fill="#63b8ff" stroke="#63b8ff" points="346.2,-113.97 354.51,-107.4 343.92,-107.36 346.2,-113.97"/>
</a>
</g>
</g>
<!-- Node18 -->
<g id="Node000018" class="node">
<title>Node18</title>
<g id="a_Node000018"><a xlink:href="classCarlaPipeClient2.html#aa9e78b5c100f33ffe6239fa78d6ae26a" target="_top" xlink:title=" ">
<polygon fill="white" stroke="#666666" points="296.75,-116.5 162.25,-116.5 162.25,-86 296.75,-86 296.75,-116.5"/>
<text xml:space="preserve" text-anchor="start" x="170.25" y="-103" font-family="Helvetica,sans-Serif" font-size="10.00">CarlaPipeClient2::CarlaPipe</text>
<text xml:space="preserve" text-anchor="middle" x="229.5" y="-91.75" font-family="Helvetica,sans-Serif" font-size="10.00">Client2</text>
</a>
</g>
</g>
<!-- Node2&#45;&gt;Node18 -->
<g id="edge4_Node000002_Node000018" class="edge">
<title>Node2&#45;&gt;Node18</title>
<g id="a_edge4_Node000002_Node000018"><a xlink:title=" ">
<path fill="none" stroke="#63b8ff" d="M325.71,-95.67C316.22,-96.23 306.55,-96.8 297.21,-97.34"/>
<polygon fill="#63b8ff" stroke="#63b8ff" points="325.89,-99.17 335.67,-95.09 325.48,-92.18 325.89,-99.17"/>
</a>
</g>
</g>
<!-- Node19 -->
<g id="Node000019" class="node">
<title>Node19</title>
<g id="a_Node000019"><a xlink:href="classZynPipeClient.html#a8849dba46b871bac7fc9c107c70242e9" target="_top" xlink:title=" ">
<polygon fill="white" stroke="#666666" points="299.75,-67.88 159.25,-67.88 159.25,-48.62 299.75,-48.62 299.75,-67.88"/>
<text xml:space="preserve" text-anchor="middle" x="229.5" y="-54.38" font-family="Helvetica,sans-Serif" font-size="10.00">ZynPipeClient::ZynPipeClient</text>
</a>
</g>
</g>
<!-- Node2&#45;&gt;Node19 -->
<g id="edge5_Node000002_Node000019" class="edge">
<title>Node2&#45;&gt;Node19</title>
<g id="a_edge5_Node000002_Node000019"><a xlink:title=" ">
<path fill="none" stroke="#63b8ff" d="M326.09,-76.72C311.44,-73.89 296.38,-70.98 282.68,-68.33"/>
<polygon fill="#63b8ff" stroke="#63b8ff" points="325.21,-80.12 335.7,-78.58 326.54,-73.25 325.21,-80.12"/>
</a>
</g>
</g>
<!-- Node4 -->
<g id="Node000004" class="node">
<title>Node4</title>
<g id="a_Node000004"><a xlink:href="classCarlaLv2Client.html#a19445ae2d238b1156bd19b9b01fdd2eb" target="_top" xlink:title=" ">
<polygon fill="#fff0f0" stroke="red" points="123.25,-165.5 0,-165.5 0,-135 123.25,-135 123.25,-165.5"/>
<text xml:space="preserve" text-anchor="start" x="8" y="-152" font-family="Helvetica,sans-Serif" font-size="10.00">CarlaLv2Client::CarlaLv2</text>
<text xml:space="preserve" text-anchor="middle" x="61.62" y="-140.75" font-family="Helvetica,sans-Serif" font-size="10.00">Client</text>
</a>
</g>
</g>
<!-- Node3&#45;&gt;Node4 -->
<g id="edge3_Node000003_Node000004" class="edge">
<title>Node3&#45;&gt;Node4</title>
<g id="a_edge3_Node000003_Node000004"><a xlink:title=" ">
<path fill="none" stroke="#63b8ff" d="M167.09,-150.25C152.86,-150.25 137.71,-150.25 123.5,-150.25"/>
<polygon fill="#63b8ff" stroke="#63b8ff" points="166.77,-153.75 176.77,-150.25 166.77,-146.75 166.77,-153.75"/>
</a>
</g>
</g>
<!-- Node21 -->
<g id="Node000021" class="node">
<title>Node21</title>
<g id="a_Node000021"><a xlink:href="classCarlaPipeServer2.html#a88f35e1290cade75a6c2c9f48bf088df" target="_top" xlink:title=" ">
<polygon fill="white" stroke="#666666" points="298.62,-30.5 160.38,-30.5 160.38,0 298.62,0 298.62,-30.5"/>
<text xml:space="preserve" text-anchor="start" x="168.38" y="-17" font-family="Helvetica,sans-Serif" font-size="10.00">CarlaPipeServer2::CarlaPipe</text>
<text xml:space="preserve" text-anchor="middle" x="229.5" y="-5.75" font-family="Helvetica,sans-Serif" font-size="10.00">Server2</text>
</a>
</g>
</g>
<!-- Node20&#45;&gt;Node21 -->
<g id="edge7_Node000020_Node000021" class="edge">
<title>Node20&#45;&gt;Node21</title>
<g id="a_edge7_Node000020_Node000021"><a xlink:title=" ">
<path fill="none" stroke="#63b8ff" d="M324.3,-25.14C315.86,-24.25 307.3,-23.35 298.97,-22.47"/>
<polygon fill="#63b8ff" stroke="#63b8ff" points="323.9,-28.62 334.22,-26.18 324.64,-21.65 323.9,-28.62"/>
</a>
</g>
</g>
</g>
</svg>

<g id="navigator" transform="translate(0 0)" fill="#404254">
  <rect fill="#f2f5e9" fill-opacity="0.5" stroke="#606060" stroke-width=".5" x="0" y="0" width="60" height="60"/>
  <use id="zoomplus" xlink:href="#zoomPlus" x="17" y="9" onmousedown="handleZoom(evt,'in')"/>
  <use id="zoomminus" xlink:href="#zoomMin" x="42" y="9" onmousedown="handleZoom(evt,'out')"/>
  <use id="reset" xlink:href="#resetDef" x="30" y="36" onmousedown="handleReset()"/>
   <use id="arrowup" xlink:href="#arrowUp" x="0" y="0" onmousedown="handlePan(0,-1)"/>
  <use id="arrowright" xlink:href="#arrowRight" x="0" y="0" onmousedown="handlePan(1,0)"/>
  <use id="arrowdown" xlink:href="#arrowDown" x="0" y="0" onmousedown="handlePan(0,1)"/>
  <use id="arrowleft" xlink:href="#arrowLeft" x="0" y="0" onmousedown="handlePan(-1,0)"/>
</g>
<svg viewBox="0 0 15 15" width="100%" height="30px" preserveAspectRatio="xMaxYMin meet">
 <g id="arrow_out" transform="scale(0.3 0.3)">
  <a xlink:href="classCarlaPipeCommon_a228af9dc8ccc67bca00f5febb049adf4_icgraph_org.svg" target="_base">
   <rect id="button" ry="5" rx="5" y="6" x="6" height="38" width="38"
        fill="#f2f5e9" fill-opacity="0.5" stroke="#606060" stroke-width="1.0"/>
   <path id="arrow"
     d="M 11.500037,31.436501 C 11.940474,20.09759 22.043105,11.32322 32.158766,21.979434 L 37.068811,17.246167 C 37.068811,17.246167 37.088388,32 37.088388,32 L 22.160133,31.978069 C 22.160133,31.978069 26.997745,27.140456 26.997745,27.140456 C 18.528582,18.264221 13.291696,25.230495 11.500037,31.436501 z"
     style="fill:#404040;"/>
  </a>
 </g>
</svg>

<style type='text/css'>
<![CDATA[
[data-mouse-over-selected='false'] { opacity: 0.7; }
[data-mouse-over-selected='true']  { opacity: 1.0; }
]]>
</style>
<script type="application/ecmascript"><![CDATA[
document.addEventListener('DOMContentLoaded', (event) => {
  highlightEdges();
  highlightAdjacentNodes();
});
]]></script>
</svg>
