<?xml version="1.0" encoding="UTF-8" standalone="no"?>
<!DOCTYPE svg PUBLIC "-//W3C//DTD SVG 1.1//EN"
 "http://www.w3.org/Graphics/SVG/1.1/DTD/svg11.dtd">
<!-- Generated by graphviz version 14.0.2 (0)
 -->
<!-- Title: AmpV::one_cycle Pages: 1 -->
<svg width="427pt" height="82pt"
 viewBox="0.00 0.00 427.00 82.00" xmlns="http://www.w3.org/2000/svg" xmlns:xlink="http://www.w3.org/1999/xlink">

<svg id="main" version="1.1" xmlns="http://www.w3.org/2000/svg" xmlns:xlink="http://www.w3.org/1999/xlink" xml:space="preserve">

<style type="text/css"><![CDATA[
.node, .edge {opacity: 0.7;}
.node.selected, .edge.selected {opacity: 1;}
.edge:hover path { stroke: red; }
.edge:hover polygon { stroke: red; fill: red; }
]]></style>
<script type="application/ecmascript" xlink:href="svg.min.js"/>
<svg id="graph" class="graph">
<g id="graph0" class="graph" transform="scale(1 1) rotate(0) translate(4 78.25)">
<title>AmpV::one_cycle</title>
<!-- Node1 -->
<g id="Node000001" class="node">
<title>Node1</title>
<g id="a_Node000001"><a xlink:title=" ">
<polygon fill="#999999" stroke="#666666" points="91,-37.25 0,-37.25 0,-18 91,-18 91,-37.25"/>
<text xml:space="preserve" text-anchor="middle" x="45.5" y="-23.75" font-family="Helvetica,sans-Serif" font-size="10.00">AmpV::one_cycle</text>
</a>
</g>
</g>
<!-- Node2 -->
<g id="Node000002" class="node">
<title>Node2</title>
<g id="a_Node000002"><a xlink:href="classPlugin.html#afc7fc54b9cb25d14b89311537b4a9d24" target="_top" xlink:title=" ">
<polygon fill="white" stroke="#666666" points="228.5,-56.25 151,-56.25 151,-37 228.5,-37 228.5,-56.25"/>
<text xml:space="preserve" text-anchor="middle" x="189.75" y="-42.75" font-family="Helvetica,sans-Serif" font-size="10.00">Plugin::getport</text>
</a>
</g>
</g>
<!-- Node1&#45;&gt;Node2 -->
<g id="edge1_Node000001_Node000002" class="edge">
<title>Node1&#45;&gt;Node2</title>
<g id="a_edge1_Node000001_Node000002"><a xlink:title=" ">
<path fill="none" stroke="#63b8ff" d="M91.12,-33.58C106.46,-35.63 123.72,-37.94 139.42,-40.04"/>
<polygon fill="#63b8ff" stroke="#63b8ff" points="138.64,-43.46 149.02,-41.32 139.57,-36.53 138.64,-43.46"/>
</a>
</g>
</g>
<!-- Node5 -->
<g id="Node000005" class="node">
<title>Node5</title>
<g id="a_Node000005"><a xlink:href="classAmpStub.html#abe39a3ab7ef14dd5b998033a60534222" target="_top" xlink:title=" ">
<polygon fill="white" stroke="#666666" points="252.5,-19.25 127,-19.25 127,0 252.5,0 252.5,-19.25"/>
<text xml:space="preserve" text-anchor="middle" x="189.75" y="-5.75" font-family="Helvetica,sans-Serif" font-size="10.00">AmpStub::power_transfer</text>
</a>
</g>
</g>
<!-- Node1&#45;&gt;Node5 -->
<g id="edge4_Node000001_Node000005" class="edge">
<title>Node1&#45;&gt;Node5</title>
<g id="a_edge4_Node000001_Node000005"><a xlink:title=" ">
<path fill="none" stroke="#63b8ff" d="M91.12,-21.98C98.85,-21 107.07,-19.96 115.33,-18.92"/>
<polygon fill="#63b8ff" stroke="#63b8ff" points="115.59,-22.41 125.07,-17.68 114.71,-15.47 115.59,-22.41"/>
</a>
</g>
</g>
<!-- Node3 -->
<g id="Node000003" class="node">
<title>Node3</title>
<g id="a_Node000003"><a xlink:href="basics_8h.html#aa7ec410319100f003dc22cf22d1bf362" target="_top" xlink:title=" ">
<polygon fill="white" stroke="#666666" points="374.62,-74.25 332.38,-74.25 332.38,-55 374.62,-55 374.62,-74.25"/>
<text xml:space="preserve" text-anchor="middle" x="353.5" y="-60.75" font-family="Helvetica,sans-Serif" font-size="10.00">clamp</text>
</a>
</g>
</g>
<!-- Node2&#45;&gt;Node3 -->
<g id="edge2_Node000002_Node000003" class="edge">
<title>Node2&#45;&gt;Node3</title>
<g id="a_edge2_Node000002_Node000003"><a xlink:title=" ">
<path fill="none" stroke="#63b8ff" d="M228.67,-50.85C256.69,-53.96 294.4,-58.16 320.81,-61.1"/>
<polygon fill="#63b8ff" stroke="#63b8ff" points="320.25,-64.56 330.58,-62.19 321.02,-57.6 320.25,-64.56"/>
</a>
</g>
</g>
<!-- Node4 -->
<g id="Node000004" class="node">
<title>Node4</title>
<g id="a_Node000004"><a xlink:href="classPlugin.html#a8dd172221b5f9e5fb621ff7eefe8d577" target="_top" xlink:title=" ">
<polygon fill="white" stroke="#666666" points="418.5,-37.25 288.5,-37.25 288.5,-18 418.5,-18 418.5,-37.25"/>
<text xml:space="preserve" text-anchor="middle" x="353.5" y="-23.75" font-family="Helvetica,sans-Serif" font-size="10.00">Plugin::getport_unclamped</text>
</a>
</g>
</g>
<!-- Node2&#45;&gt;Node4 -->
<g id="edge3_Node000002_Node000004" class="edge">
<title>Node2&#45;&gt;Node4</title>
<g id="a_edge3_Node000002_Node000004"><a xlink:title=" ">
<path fill="none" stroke="#63b8ff" d="M228.67,-42.17C243.23,-40.46 260.39,-38.44 277.24,-36.47"/>
<polygon fill="#63b8ff" stroke="#63b8ff" points="277.2,-39.99 286.72,-35.35 276.38,-33.04 277.2,-39.99"/>
</a>
</g>
</g>
</g>
</svg>
</svg>

<style type='text/css'>
<![CDATA[
[data-mouse-over-selected='false'] { opacity: 0.7; }
[data-mouse-over-selected='true']  { opacity: 1.0; }
]]>
</style>
<script type="application/ecmascript"><![CDATA[
document.addEventListener('DOMContentLoaded', (event) => {
  highlightEdges();
  highlightAdjacentNodes();
});
]]></script>
</svg>
