<?xml version="1.0" encoding="UTF-8" standalone="no"?>
<!DOCTYPE svg PUBLIC "-//W3C//DTD SVG 1.1//EN"
 "http://www.w3.org/Graphics/SVG/1.1/DTD/svg11.dtd">
<!-- Generated by graphviz version 14.0.2 (0)
 -->
<!-- Title: juce::PropertiesFile::saveAsBinary Pages: 1 -->
<!--zoomable 191 -->

<svg id="main" version="1.1" xmlns="http://www.w3.org/2000/svg" xmlns:xlink="http://www.w3.org/1999/xlink" xml:space="preserve" onload="init(evt)">

<style type="text/css"><![CDATA[
.node, .edge {opacity: 0.7;}
.node.selected, .edge.selected {opacity: 1;}
.edge:hover path { stroke: red; }
.edge:hover polygon { stroke: red; fill: red; }
]]></style>

<defs>
  <circle id="rim" cx="0" cy="0" r="7"/>
  <circle id="rim2" cx="0" cy="0" r="3.5"/>
  <g id="zoomPlus">
    <use xlink:href="#rim" fill="#404040"><set attributeName="fill" to="#808080" begin="zoomplus.mouseover" end="zoomplus.mouseout"/></use>
    <path d="M-4,0h8M0,-4v8" fill="none" stroke="white" stroke-width="1.5" pointer-events="none"/>
  </g>
  <g id="zoomMin">
    <use xlink:href="#rim" fill="#404040"><set attributeName="fill" to="#808080" begin="zoomminus.mouseover" end="zoomminus.mouseout"/></use>
    <path d="M-4,0h8" fill="none" stroke="white" stroke-width="1.5" pointer-events="none"/>
  </g>
  <g id="arrowUp" transform="translate(30 24)">
    <use xlink:href="#rim"/>
    <path pointer-events="none" fill="none" stroke="white" stroke-width="1.5" d="M0,-3.0v7 M-2.5,-0.5L0,-3.0L2.5,-0.5"/>
  </g>
  <g id="arrowRight" transform="rotate(90) translate(36 -43)">
    <use xlink:href="#rim"/>
    <path pointer-events="none" fill="none" stroke="white" stroke-width="1.5" d="M0,-3.0v7 M-2.5,-0.5L0,-3.0L2.5,-0.5"/>
  </g>
  <g id="arrowDown" transform="rotate(180) translate(-30 -48)">
    <use xlink:href="#rim"/>
    <path pointer-events="none" fill="none" stroke="white" stroke-width="1.5" d="M0,-3.0v7 M-2.5,-0.5L0,-3.0L2.5,-0.5"/>
  </g>
  <g id="arrowLeft" transform="rotate(270) translate(-36 17)">
    <use xlink:href="#rim"/>
    <path pointer-events="none" fill="none" stroke="white" stroke-width="1.5" d="M0,-3.0v7 M-2.5,-0.5L0,-3.0L2.5,-0.5"/>
  </g>
  <g id="resetDef">
    <use xlink:href="#rim2" fill="#404040"><set attributeName="fill" to="#808080" begin="reset.mouseover" end="reset.mouseout"/></use>
  </g>
</defs>
<script type="application/ecmascript">
var viewWidth = 510;
var viewHeight = 191;
var sectionId = 'dynsection-23';
</script>
<script type="application/ecmascript" xlink:href="svg.min.js"/>
<svg id="graph" class="graph">
<g id="viewport">
<title>juce::PropertiesFile::saveAsBinary</title>
<!-- Node1 -->
<g id="Node000001" class="node">
<title>Node1</title>
<g id="a_Node000001"><a xlink:title=" ">
<polygon fill="#999999" stroke="#666666" points="502,-97.5 403.5,-97.5 403.5,-67 502,-67 502,-97.5"/>
<text xml:space="preserve" text-anchor="start" x="411.5" y="-84" font-family="Helvetica,sans-Serif" font-size="10.00">juce::PropertiesFile</text>
<text xml:space="preserve" text-anchor="middle" x="452.75" y="-72.75" font-family="Helvetica,sans-Serif" font-size="10.00">::saveAsBinary</text>
</a>
</g>
</g>
<!-- Node1&#45;&gt;Node1 -->
<g id="edge11_Node000001_Node000001" class="edge">
<title>Node1&#45;&gt;Node1</title>
<g id="a_edge11_Node000001_Node000001"><a xlink:title=" ">
<path fill="none" stroke="#63b8ff" d="M475.31,-109.2C471.62,-112.97 464.1,-115.5 452.75,-115.5 432,-115.5 424.05,-107.06 428.92,-97.99"/>
<polygon fill="#63b8ff" stroke="#63b8ff" points="478.76,-109.82 476.41,-99.49 471.8,-109.03 478.76,-109.82"/>
</a>
</g>
</g>
<!-- Node2 -->
<g id="Node000002" class="node">
<title>Node2</title>
<g id="a_Node000002"><a xlink:href="classjuce_1_1PropertiesFile.html#aca499c71a2f7963ca58f6f5a4c06757f" target="_top" xlink:title=" ">
<polygon fill="white" stroke="#666666" points="367.5,-97.5 269,-97.5 269,-67 367.5,-67 367.5,-97.5"/>
<text xml:space="preserve" text-anchor="start" x="277" y="-84" font-family="Helvetica,sans-Serif" font-size="10.00">juce::PropertiesFile</text>
<text xml:space="preserve" text-anchor="middle" x="318.25" y="-72.75" font-family="Helvetica,sans-Serif" font-size="10.00">::save</text>
</a>
</g>
</g>
<!-- Node1&#45;&gt;Node2 -->
<g id="edge1_Node000001_Node000002" class="edge">
<title>Node1&#45;&gt;Node2</title>
<g id="a_edge1_Node000001_Node000002"><a xlink:title=" ">
<path fill="none" stroke="#63b8ff" d="M391.91,-82.25C383.85,-82.25 375.66,-82.25 367.83,-82.25"/>
<polygon fill="#63b8ff" stroke="#63b8ff" points="391.65,-85.75 401.65,-82.25 391.65,-78.75 391.65,-85.75"/>
</a>
</g>
</g>
<!-- Node2&#45;&gt;Node2 -->
<g id="edge2_Node000002_Node000002" class="edge">
<title>Node2&#45;&gt;Node2</title>
<g id="a_edge2_Node000002_Node000002"><a xlink:title=" ">
<path fill="none" stroke="#63b8ff" d="M340.81,-109.2C337.12,-112.97 329.6,-115.5 318.25,-115.5 297.5,-115.5 289.55,-107.06 294.42,-97.99"/>
<polygon fill="#63b8ff" stroke="#63b8ff" points="344.26,-109.82 341.91,-99.49 337.3,-109.03 344.26,-109.82"/>
</a>
</g>
</g>
<!-- Node3 -->
<g id="Node000003" class="node">
<title>Node3</title>
<g id="a_Node000003"><a xlink:href="classjuce_1_1PropertiesFile.html#ab2e07490a93b9bfbfce080fd3b7e8c82" target="_top" xlink:title=" ">
<polygon fill="white" stroke="#666666" points="233,-97.5 134.5,-97.5 134.5,-67 233,-67 233,-97.5"/>
<text xml:space="preserve" text-anchor="start" x="142.5" y="-84" font-family="Helvetica,sans-Serif" font-size="10.00">juce::PropertiesFile</text>
<text xml:space="preserve" text-anchor="middle" x="183.75" y="-72.75" font-family="Helvetica,sans-Serif" font-size="10.00">::saveIfNeeded</text>
</a>
</g>
</g>
<!-- Node2&#45;&gt;Node3 -->
<g id="edge3_Node000002_Node000003" class="edge">
<title>Node2&#45;&gt;Node3</title>
<g id="a_edge3_Node000002_Node000003"><a xlink:title=" ">
<path fill="none" stroke="#63b8ff" d="M257.41,-82.25C249.35,-82.25 241.16,-82.25 233.33,-82.25"/>
<polygon fill="#63b8ff" stroke="#63b8ff" points="257.15,-85.75 267.15,-82.25 257.15,-78.75 257.15,-85.75"/>
</a>
</g>
</g>
<!-- Node3&#45;&gt;Node3 -->
<g id="edge6_Node000003_Node000003" class="edge">
<title>Node3&#45;&gt;Node3</title>
<g id="a_edge6_Node000003_Node000003"><a xlink:title=" ">
<path fill="none" stroke="#63b8ff" d="M206.31,-109.2C202.62,-112.97 195.1,-115.5 183.75,-115.5 163,-115.5 155.05,-107.06 159.92,-97.99"/>
<polygon fill="#63b8ff" stroke="#63b8ff" points="209.76,-109.82 207.41,-99.49 202.8,-109.03 209.76,-109.82"/>
</a>
</g>
</g>
<!-- Node4 -->
<g id="Node000004" class="node">
<title>Node4</title>
<g id="a_Node000004"><a xlink:href="classjuce_1_1PropertiesFile.html#ad6ba6f0befb6d183110fffe71f2f3a6d" target="_top" xlink:title=" ">
<polygon fill="white" stroke="#666666" points="98.5,-164.5 0,-164.5 0,-134 98.5,-134 98.5,-164.5"/>
<text xml:space="preserve" text-anchor="start" x="8" y="-151" font-family="Helvetica,sans-Serif" font-size="10.00">juce::PropertiesFile</text>
<text xml:space="preserve" text-anchor="middle" x="49.25" y="-139.75" font-family="Helvetica,sans-Serif" font-size="10.00">::propertyChanged</text>
</a>
</g>
</g>
<!-- Node3&#45;&gt;Node4 -->
<g id="edge4_Node000003_Node000004" class="edge">
<title>Node3&#45;&gt;Node4</title>
<g id="a_edge4_Node000003_Node000004"><a xlink:title=" ">
<path fill="none" stroke="#63b8ff" d="M141.54,-103.09C122.02,-112.96 99.11,-124.54 81.12,-133.64"/>
<polygon fill="#63b8ff" stroke="#63b8ff" points="142.99,-106.28 150.33,-98.64 139.83,-100.03 142.99,-106.28"/>
</a>
</g>
</g>
<!-- Node5 -->
<g id="Node000005" class="node">
<title>Node5</title>
<g id="a_Node000005"><a xlink:href="classjuce_1_1PropertiesFile.html#a0b7694c7872115c5c0766c3f82bc4ac2" target="_top" xlink:title=" ">
<polygon fill="white" stroke="#666666" points="98.5,-97.5 0,-97.5 0,-67 98.5,-67 98.5,-97.5"/>
<text xml:space="preserve" text-anchor="start" x="8" y="-84" font-family="Helvetica,sans-Serif" font-size="10.00">juce::PropertiesFile</text>
<text xml:space="preserve" text-anchor="middle" x="49.25" y="-72.75" font-family="Helvetica,sans-Serif" font-size="10.00">::timerCallback</text>
</a>
</g>
</g>
<!-- Node3&#45;&gt;Node5 -->
<g id="edge7_Node000003_Node000005" class="edge">
<title>Node3&#45;&gt;Node5</title>
<g id="a_edge7_Node000003_Node000005"><a xlink:title=" ">
<path fill="none" stroke="#63b8ff" d="M122.91,-82.25C114.85,-82.25 106.66,-82.25 98.83,-82.25"/>
<polygon fill="#63b8ff" stroke="#63b8ff" points="122.65,-85.75 132.65,-82.25 122.65,-78.75 122.65,-85.75"/>
</a>
</g>
</g>
<!-- Node6 -->
<g id="Node000006" class="node">
<title>Node6</title>
<g id="a_Node000006"><a xlink:href="classjuce_1_1PropertiesFile.html#a0381f65642729cb10fa51dce623096b5" target="_top" xlink:title=" ">
<polygon fill="white" stroke="#666666" points="98.5,-30.5 0,-30.5 0,0 98.5,0 98.5,-30.5"/>
<text xml:space="preserve" text-anchor="start" x="8" y="-17" font-family="Helvetica,sans-Serif" font-size="10.00">juce::PropertiesFile</text>
<text xml:space="preserve" text-anchor="middle" x="49.25" y="-5.75" font-family="Helvetica,sans-Serif" font-size="10.00">::~PropertiesFile</text>
</a>
</g>
</g>
<!-- Node3&#45;&gt;Node6 -->
<g id="edge9_Node000003_Node000006" class="edge">
<title>Node3&#45;&gt;Node6</title>
<g id="a_edge9_Node000003_Node000006"><a xlink:title=" ">
<path fill="none" stroke="#63b8ff" d="M141.54,-61.41C122.02,-51.54 99.11,-39.96 81.12,-30.86"/>
<polygon fill="#63b8ff" stroke="#63b8ff" points="139.83,-64.47 150.33,-65.86 142.99,-58.22 139.83,-64.47"/>
</a>
</g>
</g>
<!-- Node4&#45;&gt;Node4 -->
<g id="edge5_Node000004_Node000004" class="edge">
<title>Node4&#45;&gt;Node4</title>
<g id="a_edge5_Node000004_Node000004"><a xlink:title=" ">
<path fill="none" stroke="#63b8ff" d="M71.81,-176.2C68.12,-179.97 60.6,-182.5 49.25,-182.5 28.5,-182.5 20.55,-174.06 25.42,-164.99"/>
<polygon fill="#63b8ff" stroke="#63b8ff" points="75.26,-176.82 72.91,-166.49 68.3,-176.03 75.26,-176.82"/>
</a>
</g>
</g>
<!-- Node5&#45;&gt;Node5 -->
<g id="edge8_Node000005_Node000005" class="edge">
<title>Node5&#45;&gt;Node5</title>
<g id="a_edge8_Node000005_Node000005"><a xlink:title=" ">
<path fill="none" stroke="#63b8ff" d="M71.81,-109.2C68.12,-112.97 60.6,-115.5 49.25,-115.5 28.5,-115.5 20.55,-107.06 25.42,-97.99"/>
<polygon fill="#63b8ff" stroke="#63b8ff" points="75.26,-109.82 72.91,-99.49 68.3,-109.03 75.26,-109.82"/>
</a>
</g>
</g>
<!-- Node6&#45;&gt;Node6 -->
<g id="edge10_Node000006_Node000006" class="edge">
<title>Node6&#45;&gt;Node6</title>
<g id="a_edge10_Node000006_Node000006"><a xlink:title=" ">
<path fill="none" stroke="#63b8ff" d="M71.81,-42.2C68.12,-45.97 60.6,-48.5 49.25,-48.5 28.5,-48.5 20.55,-40.06 25.42,-30.99"/>
<polygon fill="#63b8ff" stroke="#63b8ff" points="75.26,-42.82 72.91,-32.49 68.3,-42.03 75.26,-42.82"/>
</a>
</g>
</g>
</g>
</svg>

<g id="navigator" transform="translate(0 0)" fill="#404254">
  <rect fill="#f2f5e9" fill-opacity="0.5" stroke="#606060" stroke-width=".5" x="0" y="0" width="60" height="60"/>
  <use id="zoomplus" xlink:href="#zoomPlus" x="17" y="9" onmousedown="handleZoom(evt,'in')"/>
  <use id="zoomminus" xlink:href="#zoomMin" x="42" y="9" onmousedown="handleZoom(evt,'out')"/>
  <use id="reset" xlink:href="#resetDef" x="30" y="36" onmousedown="handleReset()"/>
   <use id="arrowup" xlink:href="#arrowUp" x="0" y="0" onmousedown="handlePan(0,-1)"/>
  <use id="arrowright" xlink:href="#arrowRight" x="0" y="0" onmousedown="handlePan(1,0)"/>
  <use id="arrowdown" xlink:href="#arrowDown" x="0" y="0" onmousedown="handlePan(0,1)"/>
  <use id="arrowleft" xlink:href="#arrowLeft" x="0" y="0" onmousedown="handlePan(-1,0)"/>
</g>
<svg viewBox="0 0 15 15" width="100%" height="30px" preserveAspectRatio="xMaxYMin meet">
 <g id="arrow_out" transform="scale(0.3 0.3)">
  <a xlink:href="classjuce_1_1PropertiesFile_aa15e18afc6d6d65791d118c3852cd458_icgraph_org.svg" target="_base">
   <rect id="button" ry="5" rx="5" y="6" x="6" height="38" width="38"
        fill="#f2f5e9" fill-opacity="0.5" stroke="#606060" stroke-width="1.0"/>
   <path id="arrow"
     d="M 11.500037,31.436501 C 11.940474,20.09759 22.043105,11.32322 32.158766,21.979434 L 37.068811,17.246167 C 37.068811,17.246167 37.088388,32 37.088388,32 L 22.160133,31.978069 C 22.160133,31.978069 26.997745,27.140456 26.997745,27.140456 C 18.528582,18.264221 13.291696,25.230495 11.500037,31.436501 z"
     style="fill:#404040;"/>
  </a>
 </g>
</svg>

<style type='text/css'>
<![CDATA[
[data-mouse-over-selected='false'] { opacity: 0.7; }
[data-mouse-over-selected='true']  { opacity: 1.0; }
]]>
</style>
<script type="application/ecmascript"><![CDATA[
document.addEventListener('DOMContentLoaded', (event) => {
  highlightEdges();
  highlightAdjacentNodes();
});
]]></script>
</svg>
