<?xml version="1.0" encoding="UTF-8" standalone="no"?>
<!DOCTYPE svg PUBLIC "-//W3C//DTD SVG 1.1//EN"
 "http://www.w3.org/Graphics/SVG/1.1/DTD/svg11.dtd">
<!-- Generated by graphviz version 14.0.2 (0)
 -->
<!-- Title: juce::ParameterListener::timerCallback Pages: 1 -->
<!--zoomable 240 -->

<svg id="main" version="1.1" xmlns="http://www.w3.org/2000/svg" xmlns:xlink="http://www.w3.org/1999/xlink" xml:space="preserve" onload="init(evt)">

<style type="text/css"><![CDATA[
.node, .edge {opacity: 0.7;}
.node.selected, .edge.selected {opacity: 1;}
.edge:hover path { stroke: red; }
.edge:hover polygon { stroke: red; fill: red; }
]]></style>

<defs>
  <circle id="rim" cx="0" cy="0" r="7"/>
  <circle id="rim2" cx="0" cy="0" r="3.5"/>
  <g id="zoomPlus">
    <use xlink:href="#rim" fill="#404040"><set attributeName="fill" to="#808080" begin="zoomplus.mouseover" end="zoomplus.mouseout"/></use>
    <path d="M-4,0h8M0,-4v8" fill="none" stroke="white" stroke-width="1.5" pointer-events="none"/>
  </g>
  <g id="zoomMin">
    <use xlink:href="#rim" fill="#404040"><set attributeName="fill" to="#808080" begin="zoomminus.mouseover" end="zoomminus.mouseout"/></use>
    <path d="M-4,0h8" fill="none" stroke="white" stroke-width="1.5" pointer-events="none"/>
  </g>
  <g id="arrowUp" transform="translate(30 24)">
    <use xlink:href="#rim"/>
    <path pointer-events="none" fill="none" stroke="white" stroke-width="1.5" d="M0,-3.0v7 M-2.5,-0.5L0,-3.0L2.5,-0.5"/>
  </g>
  <g id="arrowRight" transform="rotate(90) translate(36 -43)">
    <use xlink:href="#rim"/>
    <path pointer-events="none" fill="none" stroke="white" stroke-width="1.5" d="M0,-3.0v7 M-2.5,-0.5L0,-3.0L2.5,-0.5"/>
  </g>
  <g id="arrowDown" transform="rotate(180) translate(-30 -48)">
    <use xlink:href="#rim"/>
    <path pointer-events="none" fill="none" stroke="white" stroke-width="1.5" d="M0,-3.0v7 M-2.5,-0.5L0,-3.0L2.5,-0.5"/>
  </g>
  <g id="arrowLeft" transform="rotate(270) translate(-36 17)">
    <use xlink:href="#rim"/>
    <path pointer-events="none" fill="none" stroke="white" stroke-width="1.5" d="M0,-3.0v7 M-2.5,-0.5L0,-3.0L2.5,-0.5"/>
  </g>
  <g id="resetDef">
    <use xlink:href="#rim2" fill="#404040"><set attributeName="fill" to="#808080" begin="reset.mouseover" end="reset.mouseout"/></use>
  </g>
</defs>
<script type="application/ecmascript">
var viewWidth = 787;
var viewHeight = 240;
var sectionId = 'dynsection-5';
</script>
<script type="application/ecmascript" xlink:href="svg.min.js"/>
<svg id="graph" class="graph">
<g id="viewport">
<title>juce::ParameterListener::timerCallback</title>
<!-- Node1 -->
<g id="Node000001" class="node">
<title>Node1</title>
<g id="a_Node000001"><a xlink:title=" ">
<polygon fill="#999999" stroke="#666666" points="118.75,-151.5 0,-151.5 0,-121 118.75,-121 118.75,-151.5"/>
<text xml:space="preserve" text-anchor="start" x="8" y="-138" font-family="Helvetica,sans-Serif" font-size="10.00">juce::ParameterListener</text>
<text xml:space="preserve" text-anchor="middle" x="59.38" y="-126.75" font-family="Helvetica,sans-Serif" font-size="10.00">::timerCallback</text>
</a>
</g>
</g>
<!-- Node2 -->
<g id="Node000002" class="node">
<title>Node2</title>
<g id="a_Node000002"><a xlink:href="classjuce_1_1Timer.html#a3dd602cadcc8e2a3be6aeb6538b8d2c1" target="_top" xlink:title=" ">
<polygon fill="white" stroke="#666666" points="293.38,-231.88 155.12,-231.88 155.12,-212.62 293.38,-212.62 293.38,-231.88"/>
<text xml:space="preserve" text-anchor="middle" x="224.25" y="-218.38" font-family="Helvetica,sans-Serif" font-size="10.00">juce::Timer::getTimerInterval</text>
</a>
</g>
</g>
<!-- Node1&#45;&gt;Node2 -->
<g id="edge1_Node000001_Node000002" class="edge">
<title>Node1&#45;&gt;Node2</title>
<g id="a_edge1_Node000001_Node000002"><a xlink:title=" ">
<path fill="none" stroke="#63b8ff" d="M78.33,-151.91C96.48,-167 125.9,-189.53 154.75,-203.25 158.77,-205.16 163.02,-206.91 167.36,-208.51"/>
<polygon fill="#63b8ff" stroke="#63b8ff" points="166.19,-211.81 176.78,-211.69 168.42,-205.18 166.19,-211.81"/>
</a>
</g>
</g>
<!-- Node3 -->
<g id="Node000003" class="node">
<title>Node3</title>
<g id="a_Node000003"><a xlink:href="classjuce_1_1ParameterListener.html#af37edf8f495b995133bb55cb14a422a0" target="_top" xlink:title=" ">
<polygon fill="white" stroke="#666666" points="293.75,-194.5 154.75,-194.5 154.75,-164 293.75,-164 293.75,-194.5"/>
<text xml:space="preserve" text-anchor="start" x="162.75" y="-181" font-family="Helvetica,sans-Serif" font-size="10.00">juce::ParameterListener</text>
<text xml:space="preserve" text-anchor="middle" x="224.25" y="-169.75" font-family="Helvetica,sans-Serif" font-size="10.00">::handleNewParameterValue</text>
</a>
</g>
</g>
<!-- Node1&#45;&gt;Node3 -->
<g id="edge2_Node000001_Node000003" class="edge">
<title>Node1&#45;&gt;Node3</title>
<g id="a_edge2_Node000001_Node000003"><a xlink:title=" ">
<path fill="none" stroke="#63b8ff" d="M119.18,-151.77C130.04,-154.64 141.49,-157.67 152.67,-160.62"/>
<polygon fill="#63b8ff" stroke="#63b8ff" points="151.69,-163.98 162.25,-163.15 153.48,-157.21 151.69,-163.98"/>
</a>
</g>
</g>
<!-- Node4 -->
<g id="Node000004" class="node">
<title>Node4</title>
<g id="a_Node000004"><a xlink:href="namespacejuce.html#a31dc5897289f074362c29fe54016f2dd" target="_top" xlink:title=" ">
<polygon fill="white" stroke="#666666" points="252.5,-145.88 196,-145.88 196,-126.62 252.5,-126.62 252.5,-145.88"/>
<text xml:space="preserve" text-anchor="middle" x="224.25" y="-132.38" font-family="Helvetica,sans-Serif" font-size="10.00">juce::jmin</text>
</a>
</g>
</g>
<!-- Node1&#45;&gt;Node4 -->
<g id="edge3_Node000001_Node000004" class="edge">
<title>Node1&#45;&gt;Node4</title>
<g id="a_edge3_Node000001_Node000004"><a xlink:title=" ">
<path fill="none" stroke="#63b8ff" d="M119.18,-136.25C140.76,-136.25 164.64,-136.25 184.08,-136.25"/>
<polygon fill="#63b8ff" stroke="#63b8ff" points="184.04,-139.75 194.04,-136.25 184.04,-132.75 184.04,-139.75"/>
</a>
</g>
</g>
<!-- Node5 -->
<g id="Node000005" class="node">
<title>Node5</title>
<g id="a_Node000005"><a xlink:href="classjuce_1_1Timer.html#acb43e06d5742106830080af3d50b422d" target="_top" xlink:title=" ">
<polygon fill="white" stroke="#666666" points="441.75,-107.88 329.75,-107.88 329.75,-88.62 441.75,-88.62 441.75,-107.88"/>
<text xml:space="preserve" text-anchor="middle" x="385.75" y="-94.38" font-family="Helvetica,sans-Serif" font-size="10.00">juce::Timer::startTimer</text>
</a>
</g>
</g>
<!-- Node1&#45;&gt;Node5 -->
<g id="edge4_Node000001_Node000005" class="edge">
<title>Node1&#45;&gt;Node5</title>
<g id="a_edge4_Node000001_Node000005"><a xlink:title=" ">
<path fill="none" stroke="#63b8ff" d="M119.09,-123.33C130.86,-121.05 143.17,-118.89 154.75,-117.25 209.61,-109.49 272.31,-104.57 318.38,-101.68"/>
<polygon fill="#63b8ff" stroke="#63b8ff" points="318.43,-105.19 328.2,-101.09 318.01,-98.2 318.43,-105.19"/>
</a>
</g>
</g>
<!-- Node13 -->
<g id="Node000013" class="node">
<title>Node13</title>
<g id="a_Node000013"><a xlink:href="classjuce_1_1Timer.html#a49a4cf0bb438ca956bfae44c1010b0f9" target="_top" xlink:title=" ">
<polygon fill="white" stroke="#666666" points="286.25,-51.88 162.25,-51.88 162.25,-32.62 286.25,-32.62 286.25,-51.88"/>
<text xml:space="preserve" text-anchor="middle" x="224.25" y="-38.38" font-family="Helvetica,sans-Serif" font-size="10.00">juce::Timer::startTimerHz</text>
</a>
</g>
</g>
<!-- Node1&#45;&gt;Node13 -->
<g id="edge13_Node000001_Node000013" class="edge">
<title>Node1&#45;&gt;Node13</title>
<g id="a_edge13_Node000001_Node000013"><a xlink:title=" ">
<path fill="none" stroke="#63b8ff" d="M87.64,-120.52C117.77,-103.12 166.02,-75.28 196.11,-57.91"/>
<polygon fill="#63b8ff" stroke="#63b8ff" points="197.71,-61.03 204.62,-53 194.21,-54.97 197.71,-61.03"/>
</a>
</g>
</g>
<!-- Node5&#45;&gt;Node5 -->
<g id="edge12_Node000005_Node000005" class="edge">
<title>Node5&#45;&gt;Node5</title>
<g id="a_edge12_Node000005_Node000005"><a xlink:title=" ">
<path fill="none" stroke="#63b8ff" d="M360.47,-108.16C348.93,-116.77 357.36,-125.88 385.75,-125.88 401.72,-125.88 411.37,-122.99 414.71,-118.94"/>
<polygon fill="#63b8ff" stroke="#63b8ff" points="418.06,-117.93 411.52,-109.6 411.44,-120.19 418.06,-117.93"/>
</a>
</g>
</g>
<!-- Node6 -->
<g id="Node000006" class="node">
<title>Node6</title>
<g id="a_Node000006"><a xlink:href="classjuce_1_1Timer_1_1TimerThread.html#a8ce6a6b87440d489d122d2b55bc74a85" target="_top" xlink:title=" ">
<polygon fill="white" stroke="#666666" points="620.5,-153.88 477.75,-153.88 477.75,-134.62 620.5,-134.62 620.5,-153.88"/>
<text xml:space="preserve" text-anchor="middle" x="549.12" y="-140.38" font-family="Helvetica,sans-Serif" font-size="10.00">juce::Timer::TimerThread::add</text>
</a>
</g>
</g>
<!-- Node5&#45;&gt;Node6 -->
<g id="edge5_Node000005_Node000006" class="edge">
<title>Node5&#45;&gt;Node6</title>
<g id="a_edge5_Node000005_Node000006"><a xlink:title=" ">
<path fill="none" stroke="#63b8ff" d="M418.23,-108.34C435.7,-113.84 457.86,-120.65 477.75,-126.25 483.89,-127.98 490.36,-129.73 496.78,-131.42"/>
<polygon fill="#63b8ff" stroke="#63b8ff" points="495.45,-134.69 506.01,-133.83 497.21,-127.92 495.45,-134.69"/>
</a>
</g>
</g>
<!-- Node11 -->
<g id="Node000011" class="node">
<title>Node11</title>
<g id="a_Node000011"><a xlink:href="CarlaEngineGraph_8cpp.html#ad294b8477886cae80a4cbfaffbdf3772" target="_top" xlink:title=" ">
<polygon fill="white" stroke="#666666" points="567.25,-116.88 531,-116.88 531,-97.62 567.25,-97.62 567.25,-116.88"/>
<text xml:space="preserve" text-anchor="middle" x="549.12" y="-103.38" font-family="Helvetica,sans-Serif" font-size="10.00">jmax</text>
</a>
</g>
</g>
<!-- Node5&#45;&gt;Node11 -->
<g id="edge9_Node000005_Node000011" class="edge">
<title>Node5&#45;&gt;Node11</title>
<g id="a_edge9_Node000005_Node000011"><a xlink:title=" ">
<path fill="none" stroke="#63b8ff" d="M441.83,-101.32C467.91,-102.78 497.96,-104.45 519.44,-105.65"/>
<polygon fill="#63b8ff" stroke="#63b8ff" points="519.02,-109.13 529.2,-106.19 519.41,-102.14 519.02,-109.13"/>
</a>
</g>
</g>
<!-- Node12 -->
<g id="Node000012" class="node">
<title>Node12</title>
<g id="a_Node000012"><a xlink:href="classjuce_1_1Timer_1_1TimerThread.html#a576eec1fcba40894c4ee2fe0d61519b9" target="_top" xlink:title=" ">
<polygon fill="white" stroke="#666666" points="610.38,-79.5 487.88,-79.5 487.88,-49 610.38,-49 610.38,-79.5"/>
<text xml:space="preserve" text-anchor="start" x="495.88" y="-66" font-family="Helvetica,sans-Serif" font-size="10.00">juce::Timer::TimerThread</text>
<text xml:space="preserve" text-anchor="middle" x="549.12" y="-54.75" font-family="Helvetica,sans-Serif" font-size="10.00">::resetCounter</text>
</a>
</g>
</g>
<!-- Node5&#45;&gt;Node12 -->
<g id="edge10_Node000005_Node000012" class="edge">
<title>Node5&#45;&gt;Node12</title>
<g id="a_edge10_Node000005_Node000012"><a xlink:title=" ">
<path fill="none" stroke="#63b8ff" d="M434.73,-88.14C447.78,-85.39 462.2,-82.35 476.26,-79.39"/>
<polygon fill="#63b8ff" stroke="#63b8ff" points="476.89,-82.84 485.95,-77.35 475.44,-75.99 476.89,-82.84"/>
</a>
</g>
</g>
<!-- Node7 -->
<g id="Node000007" class="node">
<title>Node7</title>
<g id="a_Node000007"><a xlink:href="classjuce_1_1Timer.html#a4517f6b34af45ee3edc05c468959146e" target="_top" xlink:title=" ">
<polygon fill="white" stroke="#666666" points="764,-73.88 671.5,-73.88 671.5,-54.62 764,-54.62 764,-73.88"/>
<text xml:space="preserve" text-anchor="middle" x="717.75" y="-60.38" font-family="Helvetica,sans-Serif" font-size="10.00">juce::Timer::Timer</text>
</a>
</g>
</g>
<!-- Node6&#45;&gt;Node7 -->
<g id="edge6_Node000006_Node000007" class="edge">
<title>Node6&#45;&gt;Node7</title>
<g id="a_edge6_Node000006_Node000007"><a xlink:title=" ">
<path fill="none" stroke="#63b8ff" d="M598.14,-134.18C605.76,-131.96 613.45,-129.33 620.5,-126.25 647.83,-114.33 676.19,-95.08 694.98,-81.2"/>
<polygon fill="#63b8ff" stroke="#63b8ff" points="697.04,-84.03 702.91,-75.21 692.82,-78.44 697.04,-84.03"/>
</a>
</g>
</g>
<!-- Node8 -->
<g id="Node000008" class="node">
<title>Node8</title>
<g id="a_Node000008"><a xlink:href="classjuce_1_1Timer_1_1TimerThread.html#a8d18fc470fc7b0c11d3cbdbaf0f5c451" target="_top" xlink:title=" ">
<polygon fill="#fff0f0" stroke="red" points="779,-159.5 656.5,-159.5 656.5,-129 779,-129 779,-159.5"/>
<text xml:space="preserve" text-anchor="start" x="664.5" y="-146" font-family="Helvetica,sans-Serif" font-size="10.00">juce::Timer::TimerThread</text>
<text xml:space="preserve" text-anchor="middle" x="717.75" y="-134.75" font-family="Helvetica,sans-Serif" font-size="10.00">::TimerThread</text>
</a>
</g>
</g>
<!-- Node6&#45;&gt;Node8 -->
<g id="edge8_Node000006_Node000008" class="edge">
<title>Node6&#45;&gt;Node8</title>
<g id="a_edge8_Node000006_Node000008"><a xlink:title=" ">
<path fill="none" stroke="#63b8ff" d="M620.79,-144.25C628.72,-144.25 636.8,-144.25 644.74,-144.25"/>
<polygon fill="#63b8ff" stroke="#63b8ff" points="644.73,-147.75 654.73,-144.25 644.73,-140.75 644.73,-147.75"/>
</a>
</g>
</g>
<!-- Node7&#45;&gt;Node7 -->
<g id="edge7_Node000007_Node000007" class="edge">
<title>Node7&#45;&gt;Node7</title>
<g id="a_edge7_Node000007_Node000007"><a xlink:title=" ">
<path fill="none" stroke="#63b8ff" d="M691.35,-74.16C679.31,-82.77 688.11,-91.88 717.75,-91.88 734.42,-91.88 744.5,-88.99 747.99,-84.94"/>
<polygon fill="#63b8ff" stroke="#63b8ff" points="751.31,-83.84 744.66,-75.59 744.71,-86.18 751.31,-83.84"/>
</a>
</g>
</g>
<!-- Node12&#45;&gt;Node7 -->
<g id="edge11_Node000012_Node000007" class="edge">
<title>Node12&#45;&gt;Node7</title>
<g id="a_edge11_Node000012_Node000007"><a xlink:title=" ">
<path fill="none" stroke="#63b8ff" d="M610.75,-64.25C626.78,-64.25 644.01,-64.25 659.83,-64.25"/>
<polygon fill="#63b8ff" stroke="#63b8ff" points="659.55,-67.75 669.55,-64.25 659.55,-60.75 659.55,-67.75"/>
</a>
</g>
</g>
<!-- Node13&#45;&gt;Node5 -->
<g id="edge14_Node000013_Node000005" class="edge">
<title>Node13&#45;&gt;Node5</title>
<g id="a_edge14_Node000013_Node000005"><a xlink:title=" ">
<path fill="none" stroke="#63b8ff" d="M253.77,-52.26C279.24,-61.2 316.8,-74.39 345.18,-84.36"/>
<polygon fill="#63b8ff" stroke="#63b8ff" points="343.92,-87.62 354.52,-87.63 346.24,-81.02 343.92,-87.62"/>
</a>
</g>
</g>
<!-- Node13&#45;&gt;Node13 -->
<g id="edge15_Node000013_Node000013" class="edge">
<title>Node13&#45;&gt;Node13</title>
<g id="a_edge15_Node000013_Node000013"><a xlink:title=" ">
<path fill="none" stroke="#63b8ff" d="M198.97,-52.16C187.43,-60.77 195.86,-69.88 224.25,-69.88 240.22,-69.88 249.87,-66.99 253.21,-62.94"/>
<polygon fill="#63b8ff" stroke="#63b8ff" points="256.56,-61.93 250.02,-53.6 249.94,-64.19 256.56,-61.93"/>
</a>
</g>
</g>
<!-- Node14 -->
<g id="Node000014" class="node">
<title>Node14</title>
<g id="a_Node000014"><a xlink:href="classjuce_1_1Timer.html#a2ff70b860a8c875658b4baa91c8bcef0" target="_top" xlink:title=" ">
<polygon fill="white" stroke="#666666" points="441.38,-33.88 330.12,-33.88 330.12,-14.62 441.38,-14.62 441.38,-33.88"/>
<text xml:space="preserve" text-anchor="middle" x="385.75" y="-20.38" font-family="Helvetica,sans-Serif" font-size="10.00">juce::Timer::stopTimer</text>
</a>
</g>
</g>
<!-- Node13&#45;&gt;Node14 -->
<g id="edge16_Node000013_Node000014" class="edge">
<title>Node13&#45;&gt;Node14</title>
<g id="a_edge16_Node000013_Node000014"><a xlink:title=" ">
<path fill="none" stroke="#63b8ff" d="M286.46,-35.34C296.91,-34.16 307.81,-32.93 318.39,-31.74"/>
<polygon fill="#63b8ff" stroke="#63b8ff" points="318.66,-35.23 328.2,-30.63 317.87,-28.28 318.66,-35.23"/>
</a>
</g>
</g>
<!-- Node14&#45;&gt;Node14 -->
<g id="edge19_Node000014_Node000014" class="edge">
<title>Node14&#45;&gt;Node14</title>
<g id="a_edge19_Node000014_Node000014"><a xlink:title=" ">
<path fill="none" stroke="#63b8ff" d="M360.47,-34.16C348.93,-42.77 357.36,-51.88 385.75,-51.88 401.72,-51.88 411.37,-48.99 414.71,-44.94"/>
<polygon fill="#63b8ff" stroke="#63b8ff" points="418.06,-43.93 411.52,-35.6 411.44,-46.19 418.06,-43.93"/>
</a>
</g>
</g>
<!-- Node15 -->
<g id="Node000015" class="node">
<title>Node15</title>
<g id="a_Node000015"><a xlink:href="classjuce_1_1Timer_1_1TimerThread.html#a9f2dfcf96fd77637a1afd6beadf0f3c4" target="_top" xlink:title=" ">
<polygon fill="white" stroke="#666666" points="610.38,-30.5 487.88,-30.5 487.88,0 610.38,0 610.38,-30.5"/>
<text xml:space="preserve" text-anchor="start" x="495.88" y="-17" font-family="Helvetica,sans-Serif" font-size="10.00">juce::Timer::TimerThread</text>
<text xml:space="preserve" text-anchor="middle" x="549.12" y="-5.75" font-family="Helvetica,sans-Serif" font-size="10.00">::remove</text>
</a>
</g>
</g>
<!-- Node14&#45;&gt;Node15 -->
<g id="edge17_Node000014_Node000015" class="edge">
<title>Node14&#45;&gt;Node15</title>
<g id="a_edge17_Node000014_Node000015"><a xlink:title=" ">
<path fill="none" stroke="#63b8ff" d="M441.83,-21.18C452.86,-20.56 464.6,-19.91 476.1,-19.27"/>
<polygon fill="#63b8ff" stroke="#63b8ff" points="476.18,-22.77 485.97,-18.72 475.79,-15.78 476.18,-22.77"/>
</a>
</g>
</g>
<!-- Node15&#45;&gt;Node7 -->
<g id="edge18_Node000015_Node000007" class="edge">
<title>Node15&#45;&gt;Node7</title>
<g id="a_edge18_Node000015_Node000007"><a xlink:title=" ">
<path fill="none" stroke="#63b8ff" d="M603.3,-30.89C625.26,-37.35 650.45,-44.75 671.51,-50.94"/>
<polygon fill="#63b8ff" stroke="#63b8ff" points="670.38,-54.26 680.96,-53.73 672.36,-47.55 670.38,-54.26"/>
</a>
</g>
</g>
</g>
</svg>

<g id="navigator" transform="translate(0 0)" fill="#404254">
  <rect fill="#f2f5e9" fill-opacity="0.5" stroke="#606060" stroke-width=".5" x="0" y="0" width="60" height="60"/>
  <use id="zoomplus" xlink:href="#zoomPlus" x="17" y="9" onmousedown="handleZoom(evt,'in')"/>
  <use id="zoomminus" xlink:href="#zoomMin" x="42" y="9" onmousedown="handleZoom(evt,'out')"/>
  <use id="reset" xlink:href="#resetDef" x="30" y="36" onmousedown="handleReset()"/>
   <use id="arrowup" xlink:href="#arrowUp" x="0" y="0" onmousedown="handlePan(0,-1)"/>
  <use id="arrowright" xlink:href="#arrowRight" x="0" y="0" onmousedown="handlePan(1,0)"/>
  <use id="arrowdown" xlink:href="#arrowDown" x="0" y="0" onmousedown="handlePan(0,1)"/>
  <use id="arrowleft" xlink:href="#arrowLeft" x="0" y="0" onmousedown="handlePan(-1,0)"/>
</g>
<svg viewBox="0 0 15 15" width="100%" height="30px" preserveAspectRatio="xMaxYMin meet">
 <g id="arrow_out" transform="scale(0.3 0.3)">
  <a xlink:href="classjuce_1_1ParameterListener_a3ade2539d5162ff0fbf90bcaf96bfc46_cgraph_org.svg" target="_base">
   <rect id="button" ry="5" rx="5" y="6" x="6" height="38" width="38"
        fill="#f2f5e9" fill-opacity="0.5" stroke="#606060" stroke-width="1.0"/>
   <path id="arrow"
     d="M 11.500037,31.436501 C 11.940474,20.09759 22.043105,11.32322 32.158766,21.979434 L 37.068811,17.246167 C 37.068811,17.246167 37.088388,32 37.088388,32 L 22.160133,31.978069 C 22.160133,31.978069 26.997745,27.140456 26.997745,27.140456 C 18.528582,18.264221 13.291696,25.230495 11.500037,31.436501 z"
     style="fill:#404040;"/>
  </a>
 </g>
</svg>

<style type='text/css'>
<![CDATA[
[data-mouse-over-selected='false'] { opacity: 0.7; }
[data-mouse-over-selected='true']  { opacity: 1.0; }
]]>
</style>
<script type="application/ecmascript"><![CDATA[
document.addEventListener('DOMContentLoaded', (event) => {
  highlightEdges();
  highlightAdjacentNodes();
});
]]></script>
</svg>
