<?xml version="1.0" encoding="UTF-8" standalone="no"?>
<!DOCTYPE svg PUBLIC "-//W3C//DTD SVG 1.1//EN"
 "http://www.w3.org/Graphics/SVG/1.1/DTD/svg11.dtd">
<!-- Generated by graphviz version 14.0.2 (0)
 -->
<!-- Title: juce::EdgeTable::sanitiseLevels Pages: 1 -->
<svg width="662pt" height="279pt"
 viewBox="0.00 0.00 662.00 279.00" xmlns="http://www.w3.org/2000/svg" xmlns:xlink="http://www.w3.org/1999/xlink">
<g id="graph0" class="graph" transform="scale(1 1) rotate(0) translate(4 275.25)">
<title>juce::EdgeTable::sanitiseLevels</title>
<!-- Node1 -->
<g id="Node000001" class="node">
<title>Node1</title>
<g id="a_Node000001"><a xlink:title=" ">
<polygon fill="#999999" stroke="#666666" points="654.25,-238.88 531.75,-238.88 531.75,-208.38 654.25,-208.38 654.25,-238.88"/>
<text xml:space="preserve" text-anchor="start" x="539.75" y="-225.38" font-family="Helvetica,sans-Serif" font-size="10.00">juce::EdgeTable::sanitise</text>
<text xml:space="preserve" text-anchor="middle" x="593" y="-214.12" font-family="Helvetica,sans-Serif" font-size="10.00">Levels</text>
</a>
</g>
</g>
<!-- Node1&#45;&gt;Node1 -->
<g id="edge15_Node000001_Node000001" class="edge">
<title>Node1&#45;&gt;Node1</title>
<g id="a_edge15_Node000001_Node000001"><a xlink:title=" ">
<path fill="none" stroke="#63b8ff" d="M620.59,-250.58C616.08,-254.35 606.88,-256.88 593,-256.88 567.62,-256.88 557.9,-248.43 563.85,-239.36"/>
<polygon fill="#63b8ff" stroke="#63b8ff" points="624.03,-251.25 621.94,-240.86 617.09,-250.28 624.03,-251.25"/>
</a>
</g>
</g>
<!-- Node2 -->
<g id="Node000002" class="node">
<title>Node2</title>
<g id="a_Node000002"><a xlink:href="classjuce_1_1EdgeTable.html#a21ce30487dcaac78a78d4144d3b13883" target="_top" xlink:title=" ">
<polygon fill="white" stroke="#666666" points="324.12,-271.25 189.62,-271.25 189.62,-252 324.12,-252 324.12,-271.25"/>
<text xml:space="preserve" text-anchor="middle" x="256.88" y="-257.75" font-family="Helvetica,sans-Serif" font-size="10.00">juce::EdgeTable::EdgeTable</text>
</a>
</g>
</g>
<!-- Node1&#45;&gt;Node2 -->
<g id="edge1_Node000001_Node000002" class="edge">
<title>Node1&#45;&gt;Node2</title>
<g id="a_edge1_Node000001_Node000002"><a xlink:title=" ">
<path fill="none" stroke="#63b8ff" d="M520.27,-234.41C512.01,-235.55 503.7,-236.65 495.75,-237.62 438.08,-244.73 372.34,-251.24 324.61,-255.68"/>
<polygon fill="#63b8ff" stroke="#63b8ff" points="520.55,-237.91 529.97,-233.05 519.58,-230.97 520.55,-237.91"/>
</a>
</g>
</g>
<!-- Node3 -->
<g id="Node000003" class="node">
<title>Node3</title>
<g id="a_Node000003"><a xlink:href="classjuce_1_1EdgeTable.html#adfb64f9a093d65fac508c8f43b4a83ad" target="_top" xlink:title=" ">
<polygon fill="white" stroke="#666666" points="324.12,-234.25 189.62,-234.25 189.62,-215 324.12,-215 324.12,-234.25"/>
<text xml:space="preserve" text-anchor="middle" x="256.88" y="-220.75" font-family="Helvetica,sans-Serif" font-size="10.00">juce::EdgeTable::EdgeTable</text>
</a>
</g>
</g>
<!-- Node1&#45;&gt;Node3 -->
<g id="edge2_Node000001_Node000003" class="edge">
<title>Node1&#45;&gt;Node3</title>
<g id="a_edge2_Node000001_Node000003"><a xlink:title=" ">
<path fill="none" stroke="#63b8ff" d="M520.21,-223.84C462.18,-224.01 381.13,-224.26 324.52,-224.43"/>
<polygon fill="#63b8ff" stroke="#63b8ff" points="519.99,-227.34 529.98,-223.81 519.97,-220.34 519.99,-227.34"/>
</a>
</g>
</g>
<!-- Node4 -->
<g id="Node000004" class="node">
<title>Node4</title>
<g id="a_Node000004"><a xlink:href="classjuce_1_1EdgeTable.html#a3f039d3f11fcf10b2de4ad055e2e508b" target="_top" xlink:title=" ">
<polygon fill="white" stroke="#666666" points="495.75,-157.25 361.25,-157.25 361.25,-138 495.75,-138 495.75,-157.25"/>
<text xml:space="preserve" text-anchor="middle" x="428.5" y="-143.75" font-family="Helvetica,sans-Serif" font-size="10.00">juce::EdgeTable::EdgeTable</text>
</a>
</g>
</g>
<!-- Node1&#45;&gt;Node4 -->
<g id="edge3_Node000001_Node000004" class="edge">
<title>Node1&#45;&gt;Node4</title>
<g id="a_edge3_Node000001_Node000004"><a xlink:title=" ">
<path fill="none" stroke="#63b8ff" d="M548.03,-203.06C516.46,-188.3 475.31,-169.05 450.73,-157.55"/>
<polygon fill="#63b8ff" stroke="#63b8ff" points="546.42,-206.17 556.96,-207.24 549.38,-199.83 546.42,-206.17"/>
</a>
</g>
</g>
<!-- Node4&#45;&gt;Node2 -->
<g id="edge9_Node000004_Node000002" class="edge">
<title>Node4&#45;&gt;Node2</title>
<g id="a_edge9_Node000004_Node000002"><a xlink:title=" ">
<path fill="none" stroke="#63b8ff" d="M412.84,-166.09C394.59,-187.83 361.4,-223.52 325.25,-243.62 319.64,-246.74 313.47,-249.34 307.2,-251.5"/>
<polygon fill="#63b8ff" stroke="#63b8ff" points="415.33,-168.57 418.96,-158.62 409.91,-164.14 415.33,-168.57"/>
</a>
</g>
</g>
<!-- Node4&#45;&gt;Node3 -->
<g id="edge10_Node000004_Node000003" class="edge">
<title>Node4&#45;&gt;Node3</title>
<g id="a_edge10_Node000004_Node000003"><a xlink:title=" ">
<path fill="none" stroke="#63b8ff" d="M403.3,-164.03C383.14,-177.08 353.31,-195.02 325.25,-206.62 317.98,-209.63 310.05,-212.27 302.28,-214.54"/>
<polygon fill="#63b8ff" stroke="#63b8ff" points="405.2,-166.97 411.63,-158.54 401.35,-161.12 405.2,-166.97"/>
</a>
</g>
</g>
<!-- Node4&#45;&gt;Node4 -->
<g id="edge12_Node000004_Node000004" class="edge">
<title>Node4&#45;&gt;Node4</title>
<g id="a_edge12_Node000004_Node000004"><a xlink:title=" ">
<path fill="none" stroke="#63b8ff" d="M458,-168.32C454.6,-172.37 444.77,-175.25 428.5,-175.25 399.58,-175.25 391,-166.15 402.75,-157.54"/>
<polygon fill="#63b8ff" stroke="#63b8ff" points="461.34,-167.27 454.75,-158.97 454.72,-169.56 461.34,-167.27"/>
</a>
</g>
</g>
<!-- Node5 -->
<g id="Node000005" class="node">
<title>Node5</title>
<g id="a_Node000005"><a xlink:href="classjuce_1_1EdgeTable.html#a67113e81fcb953fec66a75448502447e" target="_top" xlink:title=" ">
<polygon fill="white" stroke="#666666" points="325.25,-141.88 188.5,-141.88 188.5,-111.38 325.25,-111.38 325.25,-141.88"/>
<text xml:space="preserve" text-anchor="start" x="196.5" y="-128.38" font-family="Helvetica,sans-Serif" font-size="10.00">juce::EdgeTable::clipToEdge</text>
<text xml:space="preserve" text-anchor="middle" x="256.88" y="-117.12" font-family="Helvetica,sans-Serif" font-size="10.00">Table</text>
</a>
</g>
</g>
<!-- Node4&#45;&gt;Node5 -->
<g id="edge4_Node000004_Node000005" class="edge">
<title>Node4&#45;&gt;Node5</title>
<g id="a_edge4_Node000004_Node000005"><a xlink:title=" ">
<path fill="none" stroke="#63b8ff" d="M349.68,-137.99C341.65,-137 333.54,-135.99 325.63,-135.01"/>
<polygon fill="#63b8ff" stroke="#63b8ff" points="349.09,-141.44 359.44,-139.2 349.95,-134.5 349.09,-141.44"/>
</a>
</g>
</g>
<!-- Node8 -->
<g id="Node000008" class="node">
<title>Node8</title>
<g id="a_Node000008"><a xlink:href="classjuce_1_1EdgeTable.html#af145965cf7efa8cfc6facc28693dc37f" target="_top" xlink:title=" ">
<polygon fill="white" stroke="#666666" points="324.12,-93.25 189.62,-93.25 189.62,-74 324.12,-74 324.12,-93.25"/>
<text xml:space="preserve" text-anchor="middle" x="256.88" y="-79.75" font-family="Helvetica,sans-Serif" font-size="10.00">juce::EdgeTable::EdgeTable</text>
</a>
</g>
</g>
<!-- Node4&#45;&gt;Node8 -->
<g id="edge8_Node000004_Node000008" class="edge">
<title>Node4&#45;&gt;Node8</title>
<g id="a_edge8_Node000004_Node000008"><a xlink:title=" ">
<path fill="none" stroke="#63b8ff" d="M396.7,-132.72C376.64,-123.35 349.74,-111.42 325.25,-102.62 316.21,-99.38 306.34,-96.33 297,-93.66"/>
<polygon fill="#63b8ff" stroke="#63b8ff" points="395.18,-135.87 405.72,-136.98 398.17,-129.54 395.18,-135.87"/>
</a>
</g>
</g>
<!-- Node9 -->
<g id="Node000009" class="node">
<title>Node9</title>
<g id="a_Node000009"><a xlink:href="classjuce_1_1EdgeTable.html#a0bf7b39bdc5bd8cca7bb683c4b62e3b1" target="_top" xlink:title=" ">
<polygon fill="white" stroke="#666666" points="324.12,-56.25 189.62,-56.25 189.62,-37 324.12,-37 324.12,-56.25"/>
<text xml:space="preserve" text-anchor="middle" x="256.88" y="-42.75" font-family="Helvetica,sans-Serif" font-size="10.00">juce::EdgeTable::EdgeTable</text>
</a>
</g>
</g>
<!-- Node4&#45;&gt;Node9 -->
<g id="edge11_Node000004_Node000009" class="edge">
<title>Node4&#45;&gt;Node9</title>
<g id="a_edge11_Node000004_Node000009"><a xlink:title=" ">
<path fill="none" stroke="#63b8ff" d="M410.02,-129.48C390.89,-110.63 358.49,-81.57 325.25,-64.62 319.1,-61.49 312.35,-58.86 305.57,-56.66"/>
<polygon fill="#63b8ff" stroke="#63b8ff" points="407.47,-131.87 417,-136.5 412.44,-126.94 407.47,-131.87"/>
</a>
</g>
</g>
<!-- Node10 -->
<g id="Node000010" class="node">
<title>Node10</title>
<g id="a_Node000010"><a xlink:href="classjuce_1_1EdgeTable.html#aca8e14770c97cb67b8a7d6c9d436a326" target="_top" xlink:title=" ">
<polygon fill="white" stroke="#666666" points="324.12,-19.25 189.62,-19.25 189.62,0 324.12,0 324.12,-19.25"/>
<text xml:space="preserve" text-anchor="middle" x="256.88" y="-5.75" font-family="Helvetica,sans-Serif" font-size="10.00">juce::EdgeTable::EdgeTable</text>
</a>
</g>
</g>
<!-- Node4&#45;&gt;Node10 -->
<g id="edge13_Node000004_Node000010" class="edge">
<title>Node4&#45;&gt;Node10</title>
<g id="a_edge13_Node000004_Node000010"><a xlink:title=" ">
<path fill="none" stroke="#63b8ff" d="M416.15,-128.03C399.62,-101.24 366.34,-53.56 325.25,-27.62 320.23,-24.46 314.67,-21.84 308.95,-19.69"/>
<polygon fill="#63b8ff" stroke="#63b8ff" points="413.09,-129.72 421.23,-136.5 419.09,-126.12 413.09,-129.72"/>
</a>
</g>
</g>
<!-- Node11 -->
<g id="Node000011" class="node">
<title>Node11</title>
<g id="a_Node000011"><a xlink:href="classjuce_1_1EdgeTable.html#a6a9818c9a81187f2d49d5dfeffcf4693" target="_top" xlink:title=" ">
<polygon fill="white" stroke="#666666" points="321.88,-197.25 191.88,-197.25 191.88,-178 321.88,-178 321.88,-197.25"/>
<text xml:space="preserve" text-anchor="middle" x="256.88" y="-183.75" font-family="Helvetica,sans-Serif" font-size="10.00">juce::EdgeTable::operator=</text>
</a>
</g>
</g>
<!-- Node4&#45;&gt;Node11 -->
<g id="edge14_Node000004_Node000011" class="edge">
<title>Node4&#45;&gt;Node11</title>
<g id="a_edge14_Node000004_Node000011"><a xlink:title=" ">
<path fill="none" stroke="#63b8ff" d="M373.8,-160.29C350.2,-165.85 322.86,-172.3 300.66,-177.53"/>
<polygon fill="#63b8ff" stroke="#63b8ff" points="374.29,-163.77 383.22,-158.07 372.69,-156.95 374.29,-163.77"/>
</a>
</g>
</g>
<!-- Node5&#45;&gt;Node5 -->
<g id="edge5_Node000005_Node000005" class="edge">
<title>Node5&#45;&gt;Node5</title>
<g id="a_edge5_Node000005_Node000005"><a xlink:title=" ">
<path fill="none" stroke="#63b8ff" d="M285.66,-153.58C280.95,-157.35 271.36,-159.88 256.88,-159.88 230.39,-159.88 220.26,-151.43 226.46,-142.36"/>
<polygon fill="#63b8ff" stroke="#63b8ff" points="289.09,-154.26 287.07,-143.86 282.17,-153.25 289.09,-154.26"/>
</a>
</g>
</g>
<!-- Node6 -->
<g id="Node000006" class="node">
<title>Node6</title>
<g id="a_Node000006"><a xlink:href="structjuce_1_1RenderingHelpers_1_1ClipRegions_1_1EdgeTableRegion.html#aa222f35a3749a4ca3d21fa3ee0b4e47f" target="_top" xlink:title=" ">
<polygon fill="white" stroke="#666666" points="152.5,-177.5 0,-177.5 0,-135.75 152.5,-135.75 152.5,-177.5"/>
<text xml:space="preserve" text-anchor="start" x="8" y="-164" font-family="Helvetica,sans-Serif" font-size="10.00">juce::RenderingHelpers</text>
<text xml:space="preserve" text-anchor="start" x="8" y="-152.75" font-family="Helvetica,sans-Serif" font-size="10.00">::ClipRegions::EdgeTableRegion</text>
<text xml:space="preserve" text-anchor="middle" x="76.25" y="-141.5" font-family="Helvetica,sans-Serif" font-size="10.00">::fillRectWithColour</text>
</a>
</g>
</g>
<!-- Node5&#45;&gt;Node6 -->
<g id="edge6_Node000005_Node000006" class="edge">
<title>Node5&#45;&gt;Node6</title>
<g id="a_edge6_Node000005_Node000006"><a xlink:title=" ">
<path fill="none" stroke="#63b8ff" d="M176.86,-139.89C168.85,-141.24 160.73,-142.61 152.75,-143.94"/>
<polygon fill="#63b8ff" stroke="#63b8ff" points="177.32,-143.37 186.6,-138.26 176.16,-136.46 177.32,-143.37"/>
</a>
</g>
</g>
<!-- Node7 -->
<g id="Node000007" class="node">
<title>Node7</title>
<g id="a_Node000007"><a xlink:href="structjuce_1_1RenderingHelpers_1_1ClipRegions_1_1EdgeTableRegion.html#aa21184de5e18f93d29f30d2d65e1e377" target="_top" xlink:title=" ">
<polygon fill="white" stroke="#666666" points="152.5,-117.5 0,-117.5 0,-75.75 152.5,-75.75 152.5,-117.5"/>
<text xml:space="preserve" text-anchor="start" x="8" y="-104" font-family="Helvetica,sans-Serif" font-size="10.00">juce::RenderingHelpers</text>
<text xml:space="preserve" text-anchor="start" x="8" y="-92.75" font-family="Helvetica,sans-Serif" font-size="10.00">::ClipRegions::EdgeTableRegion</text>
<text xml:space="preserve" text-anchor="middle" x="76.25" y="-81.5" font-family="Helvetica,sans-Serif" font-size="10.00">::fillRectWithColour</text>
</a>
</g>
</g>
<!-- Node5&#45;&gt;Node7 -->
<g id="edge7_Node000005_Node000007" class="edge">
<title>Node5&#45;&gt;Node7</title>
<g id="a_edge7_Node000005_Node000007"><a xlink:title=" ">
<path fill="none" stroke="#63b8ff" d="M176.86,-113.36C168.85,-112.01 160.73,-110.64 152.75,-109.31"/>
<polygon fill="#63b8ff" stroke="#63b8ff" points="176.16,-116.79 186.6,-114.99 177.32,-109.88 176.16,-116.79"/>
</a>
</g>
</g>
</g>
</svg>
