<?xml version="1.0" encoding="UTF-8" standalone="no"?>
<!DOCTYPE svg PUBLIC "-//W3C//DTD SVG 1.1//EN"
 "http://www.w3.org/Graphics/SVG/1.1/DTD/svg11.dtd">
<!-- Generated by graphviz version 14.0.2 (0)
 -->
<!-- Title: ImageBase::draw Pages: 1 -->
<svg width="236pt" height="45pt"
 viewBox="0.00 0.00 236.00 45.00" xmlns="http://www.w3.org/2000/svg" xmlns:xlink="http://www.w3.org/1999/xlink">
<g id="graph0" class="graph" transform="scale(1 1) rotate(0) translate(4 41.25)">
<title>ImageBase::draw</title>
<!-- Node1 -->
<g id="Node000001" class="node">
<title>Node1</title>
<g id="a_Node000001"><a xlink:title=" ">
<polygon fill="#999999" stroke="#666666" points="91,-19.25 0,-19.25 0,0 91,0 91,-19.25"/>
<text xml:space="preserve" text-anchor="middle" x="45.5" y="-5.75" font-family="Helvetica,sans-Serif" font-size="10.00">ImageBase::draw</text>
</a>
</g>
</g>
<!-- Node2 -->
<g id="Node000002" class="node">
<title>Node2</title>
<g id="a_Node000002"><a xlink:href="classImageBase.html#a16d58063acd1a1e6ae8bc3afdea610f8" target="_top" xlink:title=" ">
<polygon fill="white" stroke="#666666" points="227.75,-19.25 127,-19.25 127,0 227.75,0 227.75,-19.25"/>
<text xml:space="preserve" text-anchor="middle" x="177.38" y="-5.75" font-family="Helvetica,sans-Serif" font-size="10.00">ImageBase::drawAt</text>
</a>
</g>
</g>
<!-- Node1&#45;&gt;Node2 -->
<g id="edge1_Node000001_Node000002" class="edge">
<title>Node1&#45;&gt;Node2</title>
<g id="a_edge1_Node000001_Node000002"><a xlink:title=" ">
<path fill="none" stroke="#63b8ff" d="M91.2,-9.62C98.98,-9.62 107.19,-9.62 115.32,-9.62"/>
<polygon fill="#63b8ff" stroke="#63b8ff" points="115.19,-13.13 125.19,-9.63 115.19,-6.13 115.19,-13.13"/>
</a>
</g>
</g>
<!-- Node2&#45;&gt;Node2 -->
<g id="edge2_Node000002_Node000002" class="edge">
<title>Node2&#45;&gt;Node2</title>
<g id="a_edge2_Node000002_Node000002"><a xlink:title=" ">
<path fill="none" stroke="#63b8ff" d="M156.73,-19.54C147.31,-28.15 154.19,-37.25 177.38,-37.25 190.05,-37.25 197.85,-34.53 200.78,-30.65"/>
<polygon fill="#63b8ff" stroke="#63b8ff" points="204.19,-29.87 198.39,-21.01 197.4,-31.56 204.19,-29.87"/>
</a>
</g>
</g>
</g>
</svg>
