<?xml version="1.0" encoding="UTF-8" standalone="no"?>
<!DOCTYPE svg PUBLIC "-//W3C//DTD SVG 1.1//EN"
 "http://www.w3.org/Graphics/SVG/1.1/DTD/svg11.dtd">
<!-- Generated by graphviz version 14.0.2 (0)
 -->
<!-- Title: juce::TextEditor::lookAndFeelChanged Pages: 1 -->
<svg width="279pt" height="106pt"
 viewBox="0.00 0.00 279.00 106.00" xmlns="http://www.w3.org/2000/svg" xmlns:xlink="http://www.w3.org/1999/xlink">

<svg id="main" version="1.1" xmlns="http://www.w3.org/2000/svg" xmlns:xlink="http://www.w3.org/1999/xlink" xml:space="preserve">

<style type="text/css"><![CDATA[
.node, .edge {opacity: 0.7;}
.node.selected, .edge.selected {opacity: 1;}
.edge:hover path { stroke: red; }
.edge:hover polygon { stroke: red; fill: red; }
]]></style>
<script type="application/ecmascript" xlink:href="svg.min.js"/>
<svg id="graph" class="graph">
<g id="graph0" class="graph" transform="scale(1 1) rotate(0) translate(4 101.5)">
<title>juce::TextEditor::lookAndFeelChanged</title>
<!-- Node1 -->
<g id="Node000001" class="node">
<title>Node1</title>
<g id="a_Node000001"><a xlink:title=" ">
<polygon fill="#999999" stroke="#666666" points="271.25,-63.5 149.5,-63.5 149.5,-33 271.25,-33 271.25,-63.5"/>
<text xml:space="preserve" text-anchor="start" x="157.5" y="-50" font-family="Helvetica,sans-Serif" font-size="10.00">juce::TextEditor::lookAnd</text>
<text xml:space="preserve" text-anchor="middle" x="210.38" y="-38.75" font-family="Helvetica,sans-Serif" font-size="10.00">FeelChanged</text>
</a>
</g>
</g>
<!-- Node1&#45;&gt;Node1 -->
<g id="edge2_Node000001_Node000001" class="edge">
<title>Node1&#45;&gt;Node1</title>
<g id="a_edge2_Node000001_Node000001"><a xlink:title=" ">
<path fill="none" stroke="#63b8ff" d="M236.14,-75.2C231.93,-78.97 223.34,-81.5 210.38,-81.5 186.67,-81.5 177.6,-73.06 183.15,-63.99"/>
<polygon fill="#63b8ff" stroke="#63b8ff" points="239.58,-75.85 237.4,-65.49 232.64,-74.95 239.58,-75.85"/>
</a>
</g>
</g>
<!-- Node2 -->
<g id="Node000002" class="node">
<title>Node2</title>
<g id="a_Node000002"><a xlink:href="classjuce_1_1AlertTextComp.html#a6cc60c74907cb241dcd3dfb2173bcc57" target="_top" xlink:title=" ">
<polygon fill="white" stroke="#666666" points="108.25,-97.5 5.25,-97.5 5.25,-67 108.25,-67 108.25,-97.5"/>
<text xml:space="preserve" text-anchor="start" x="13.25" y="-84" font-family="Helvetica,sans-Serif" font-size="10.00">juce::AlertTextComp</text>
<text xml:space="preserve" text-anchor="middle" x="56.75" y="-72.75" font-family="Helvetica,sans-Serif" font-size="10.00">::AlertTextComp</text>
</a>
</g>
</g>
<!-- Node1&#45;&gt;Node2 -->
<g id="edge1_Node000001_Node000002" class="edge">
<title>Node1&#45;&gt;Node2</title>
<g id="a_edge1_Node000001_Node000002"><a xlink:title=" ">
<path fill="none" stroke="#63b8ff" d="M137.92,-64.27C128.03,-66.49 118.04,-68.73 108.63,-70.84"/>
<polygon fill="#63b8ff" stroke="#63b8ff" points="138.54,-67.72 147.54,-62.12 137.01,-60.89 138.54,-67.72"/>
</a>
</g>
</g>
<!-- Node3 -->
<g id="Node000003" class="node">
<title>Node3</title>
<g id="a_Node000003"><a xlink:href="classjuce_1_1TextEditor.html#aea7eb39cdb6745a052b7f633bb4b5e85" target="_top" xlink:title=" ">
<polygon fill="white" stroke="#666666" points="113.5,-30.5 0,-30.5 0,0 113.5,0 113.5,-30.5"/>
<text xml:space="preserve" text-anchor="start" x="8" y="-17" font-family="Helvetica,sans-Serif" font-size="10.00">juce::TextEditor::parent</text>
<text xml:space="preserve" text-anchor="middle" x="56.75" y="-5.75" font-family="Helvetica,sans-Serif" font-size="10.00">HierarchyChanged</text>
</a>
</g>
</g>
<!-- Node1&#45;&gt;Node3 -->
<g id="edge3_Node000001_Node000003" class="edge">
<title>Node1&#45;&gt;Node3</title>
<g id="a_edge3_Node000001_Node000003"><a xlink:title=" ">
<path fill="none" stroke="#63b8ff" d="M137.79,-32.67C129.79,-30.93 121.73,-29.17 113.96,-27.48"/>
<polygon fill="#63b8ff" stroke="#63b8ff" points="137.02,-36.08 147.53,-34.79 138.51,-29.24 137.02,-36.08"/>
</a>
</g>
</g>
<!-- Node3&#45;&gt;Node3 -->
<g id="edge4_Node000003_Node000003" class="edge">
<title>Node3&#45;&gt;Node3</title>
<g id="a_edge4_Node000003_Node000003"><a xlink:title=" ">
<path fill="none" stroke="#63b8ff" d="M82.51,-42.2C78.3,-45.97 69.71,-48.5 56.75,-48.5 33.05,-48.5 23.97,-40.06 29.53,-30.99"/>
<polygon fill="#63b8ff" stroke="#63b8ff" points="85.96,-42.85 83.78,-32.49 79.02,-41.95 85.96,-42.85"/>
</a>
</g>
</g>
</g>
</svg>
</svg>

<style type='text/css'>
<![CDATA[
[data-mouse-over-selected='false'] { opacity: 0.7; }
[data-mouse-over-selected='true']  { opacity: 1.0; }
]]>
</style>
<script type="application/ecmascript"><![CDATA[
document.addEventListener('DOMContentLoaded', (event) => {
  highlightEdges();
  highlightAdjacentNodes();
});
]]></script>
</svg>
