<?xml version="1.0" encoding="UTF-8" standalone="no"?>
<!DOCTYPE svg PUBLIC "-//W3C//DTD SVG 1.1//EN"
 "http://www.w3.org/Graphics/SVG/1.1/DTD/svg11.dtd">
<!-- Generated by graphviz version 14.0.2 (0)
 -->
<!-- Title: juce::CharPointer_UTF32::isLowerCase Pages: 1 -->
<svg width="451pt" height="57pt"
 viewBox="0.00 0.00 451.00 57.00" xmlns="http://www.w3.org/2000/svg" xmlns:xlink="http://www.w3.org/1999/xlink">
<g id="graph0" class="graph" transform="scale(1 1) rotate(0) translate(4 52.5)">
<title>juce::CharPointer_UTF32::isLowerCase</title>
<!-- Node1 -->
<g id="Node000001" class="node">
<title>Node1</title>
<g id="a_Node000001"><a xlink:title=" ">
<polygon fill="#999999" stroke="#666666" points="124.75,-30.5 0,-30.5 0,0 124.75,0 124.75,-30.5"/>
<text xml:space="preserve" text-anchor="start" x="8" y="-17" font-family="Helvetica,sans-Serif" font-size="10.00">juce::CharPointer_UTF32</text>
<text xml:space="preserve" text-anchor="middle" x="62.38" y="-5.75" font-family="Helvetica,sans-Serif" font-size="10.00">::isLowerCase</text>
</a>
</g>
</g>
<!-- Node2 -->
<g id="Node000002" class="node">
<title>Node2</title>
<g id="a_Node000002"><a xlink:href="classjuce_1_1CharacterFunctions.html#a822863d8457966d96d9eae4c04089058" target="_top" xlink:title=" ">
<polygon fill="white" stroke="#666666" points="284,-30.5 160.75,-30.5 160.75,0 284,0 284,-30.5"/>
<text xml:space="preserve" text-anchor="start" x="168.75" y="-17" font-family="Helvetica,sans-Serif" font-size="10.00">juce::CharacterFunctions</text>
<text xml:space="preserve" text-anchor="middle" x="222.38" y="-5.75" font-family="Helvetica,sans-Serif" font-size="10.00">::isLowerCase</text>
</a>
</g>
</g>
<!-- Node1&#45;&gt;Node2 -->
<g id="edge1_Node000001_Node000002" class="edge">
<title>Node1&#45;&gt;Node2</title>
<g id="a_edge1_Node000001_Node000002"><a xlink:title=" ">
<path fill="none" stroke="#63b8ff" d="M124.91,-15.25C132.81,-15.25 140.94,-15.25 148.99,-15.25"/>
<polygon fill="#63b8ff" stroke="#63b8ff" points="148.75,-18.75 158.75,-15.25 148.75,-11.75 148.75,-18.75"/>
</a>
</g>
</g>
<!-- Node2&#45;&gt;Node2 -->
<g id="edge2_Node000002_Node000002" class="edge">
<title>Node2&#45;&gt;Node2</title>
<g id="a_edge2_Node000002_Node000002"><a xlink:title=" ">
<path fill="none" stroke="#63b8ff" d="M194.16,-30.99C188.4,-40.06 197.8,-48.5 222.38,-48.5 235.81,-48.5 244.71,-45.97 249.08,-42.2"/>
<polygon fill="#63b8ff" stroke="#63b8ff" points="252.52,-42.86 250.39,-32.49 245.59,-41.93 252.52,-42.86"/>
</a>
</g>
</g>
<!-- Node3 -->
<g id="Node000003" class="node">
<title>Node3</title>
<g id="a_Node000003"><a xlink:href="classjuce_1_1CharacterFunctions.html#ad16adaa06bcb97d79d8d673680fbbe13" target="_top" xlink:title=" ">
<polygon fill="white" stroke="#666666" points="443.25,-30.5 320,-30.5 320,0 443.25,0 443.25,-30.5"/>
<text xml:space="preserve" text-anchor="start" x="328" y="-17" font-family="Helvetica,sans-Serif" font-size="10.00">juce::CharacterFunctions</text>
<text xml:space="preserve" text-anchor="middle" x="381.62" y="-5.75" font-family="Helvetica,sans-Serif" font-size="10.00">::toUpperCase</text>
</a>
</g>
</g>
<!-- Node2&#45;&gt;Node3 -->
<g id="edge3_Node000002_Node000003" class="edge">
<title>Node2&#45;&gt;Node3</title>
<g id="a_edge3_Node000002_Node000003"><a xlink:title=" ">
<path fill="none" stroke="#63b8ff" d="M284.17,-15.25C292.1,-15.25 300.29,-15.25 308.38,-15.25"/>
<polygon fill="#63b8ff" stroke="#63b8ff" points="308.22,-18.75 318.22,-15.25 308.22,-11.75 308.22,-18.75"/>
</a>
</g>
</g>
<!-- Node3&#45;&gt;Node3 -->
<g id="edge4_Node000003_Node000003" class="edge">
<title>Node3&#45;&gt;Node3</title>
<g id="a_edge4_Node000003_Node000003"><a xlink:title=" ">
<path fill="none" stroke="#63b8ff" d="M353.41,-30.99C347.65,-40.06 357.05,-48.5 381.62,-48.5 395.06,-48.5 403.96,-45.97 408.33,-42.2"/>
<polygon fill="#63b8ff" stroke="#63b8ff" points="411.77,-42.86 409.64,-32.49 404.84,-41.93 411.77,-42.86"/>
</a>
</g>
</g>
</g>
</svg>
