<?xml version="1.0" encoding="UTF-8" standalone="no"?>
<!DOCTYPE svg PUBLIC "-//W3C//DTD SVG 1.1//EN"
 "http://www.w3.org/Graphics/SVG/1.1/DTD/svg11.dtd">
<!-- Generated by graphviz version 14.0.2 (0)
 -->
<!-- Title: lmms::gui::InstrumentTrackWindow::closeEvent Pages: 1 -->
<svg width="592pt" height="39pt"
 viewBox="0.00 0.00 592.00 39.00" xmlns="http://www.w3.org/2000/svg" xmlns:xlink="http://www.w3.org/1999/xlink">
<g id="graph0" class="graph" transform="scale(1 1) rotate(0) translate(4 34.5)">
<title>lmms::gui::InstrumentTrackWindow::closeEvent</title>
<!-- Node1 -->
<g id="Node000001" class="node">
<title>Node1</title>
<g id="a_Node000001"><a xlink:title=" ">
<polygon fill="#999999" stroke="#666666" points="133,-30.5 0,-30.5 0,0 133,0 133,-30.5"/>
<text xml:space="preserve" text-anchor="start" x="8" y="-17" font-family="Helvetica,sans-Serif" font-size="10.00">lmms::gui::InstrumentTrack</text>
<text xml:space="preserve" text-anchor="middle" x="66.5" y="-5.75" font-family="Helvetica,sans-Serif" font-size="10.00">Window::closeEvent</text>
</a>
</g>
</g>
<!-- Node2 -->
<g id="Node000002" class="node">
<title>Node2</title>
<g id="a_Node000002"><a xlink:href="namespacelmms_1_1gui.html#a0f9bd49bea2bc61619a8b3966223cce5" target="_top" xlink:title=" ">
<polygon fill="white" stroke="#666666" points="262.25,-24.88 169,-24.88 169,-5.63 262.25,-5.63 262.25,-24.88"/>
<text xml:space="preserve" text-anchor="middle" x="215.62" y="-11.38" font-family="Helvetica,sans-Serif" font-size="10.00">lmms::gui::getGUI</text>
</a>
</g>
</g>
<!-- Node1&#45;&gt;Node2 -->
<g id="edge1_Node000001_Node000002" class="edge">
<title>Node1&#45;&gt;Node2</title>
<g id="a_edge1_Node000001_Node000002"><a xlink:title=" ">
<path fill="none" stroke="#63b8ff" d="M133.32,-15.25C141.34,-15.25 149.48,-15.25 157.36,-15.25"/>
<polygon fill="#63b8ff" stroke="#63b8ff" points="157.16,-18.75 167.16,-15.25 157.16,-11.75 157.16,-18.75"/>
</a>
</g>
</g>
<!-- Node3 -->
<g id="Node000003" class="node">
<title>Node3</title>
<g id="a_Node000003"><a xlink:href="classlmms_1_1gui_1_1GuiApplication.html#ac376550c6eab0be216a675c26679b8b4" target="_top" xlink:title=" ">
<polygon fill="white" stroke="#666666" points="423,-30.5 298.25,-30.5 298.25,0 423,0 423,-30.5"/>
<text xml:space="preserve" text-anchor="start" x="306.25" y="-17" font-family="Helvetica,sans-Serif" font-size="10.00">lmms::gui::GuiApplication</text>
<text xml:space="preserve" text-anchor="middle" x="360.62" y="-5.75" font-family="Helvetica,sans-Serif" font-size="10.00">::instance</text>
</a>
</g>
</g>
<!-- Node2&#45;&gt;Node3 -->
<g id="edge2_Node000002_Node000003" class="edge">
<title>Node2&#45;&gt;Node3</title>
<g id="a_edge2_Node000002_Node000003"><a xlink:title=" ">
<path fill="none" stroke="#63b8ff" d="M262.66,-15.25C270.26,-15.25 278.31,-15.25 286.38,-15.25"/>
<polygon fill="#63b8ff" stroke="#63b8ff" points="286.26,-18.75 296.26,-15.25 286.26,-11.75 286.26,-18.75"/>
</a>
</g>
</g>
<!-- Node4 -->
<g id="Node000004" class="node">
<title>Node4</title>
<g id="a_Node000004"><a xlink:href="classlmms_1_1gui_1_1GuiApplication.html#a47c3bf2bb04682c1057ffe0f06665a5f" target="_top" xlink:title=" ">
<polygon fill="#fff0f0" stroke="red" points="583.75,-30.5 459,-30.5 459,0 583.75,0 583.75,-30.5"/>
<text xml:space="preserve" text-anchor="start" x="467" y="-17" font-family="Helvetica,sans-Serif" font-size="10.00">lmms::gui::GuiApplication</text>
<text xml:space="preserve" text-anchor="middle" x="521.38" y="-5.75" font-family="Helvetica,sans-Serif" font-size="10.00">::GuiApplication</text>
</a>
</g>
</g>
<!-- Node3&#45;&gt;Node4 -->
<g id="edge3_Node000003_Node000004" class="edge">
<title>Node3&#45;&gt;Node4</title>
<g id="a_edge3_Node000003_Node000004"><a xlink:title=" ">
<path fill="none" stroke="#63b8ff" d="M423.46,-15.25C431.33,-15.25 439.44,-15.25 447.46,-15.25"/>
<polygon fill="#63b8ff" stroke="#63b8ff" points="447.2,-18.75 457.2,-15.25 447.2,-11.75 447.2,-18.75"/>
</a>
</g>
</g>
</g>
</svg>
