<?xml version="1.0" encoding="UTF-8" standalone="no"?>
<!DOCTYPE svg PUBLIC "-//W3C//DTD SVG 1.1//EN"
 "http://www.w3.org/Graphics/SVG/1.1/DTD/svg11.dtd">
<!-- Generated by graphviz version 14.0.2 (0)
 -->
<!-- Title: calf_plugins::mod_matrix_impl Pages: 1 -->
<svg width="294pt" height="561pt"
 viewBox="0.00 0.00 294.00 561.00" xmlns="http://www.w3.org/2000/svg" xmlns:xlink="http://www.w3.org/1999/xlink">
<g id="graph0" class="graph" transform="scale(1 1) rotate(0) translate(4 556.75)">
<title>calf_plugins::mod_matrix_impl</title>
<!-- Node1 -->
<g id="Node000001" class="node">
<title>Node1</title>
<g id="a_Node000001"><a xlink:title=" ">
<polygon fill="#999999" stroke="none" points="149.75,-167.75 12,-167.75 12,0 149.75,0 149.75,-167.75"/>
<text xml:space="preserve" text-anchor="start" x="16" y="-154.25" font-family="Helvetica,sans-Serif" font-size="10.00">calf_plugins::mod_matrix_impl</text>
<text xml:space="preserve" text-anchor="start" x="20.44" y="-139" font-family="Helvetica,sans-Serif" font-size="10.00">#</text>
<text xml:space="preserve" text-anchor="start" x="34.12" y="-139" font-family="Helvetica,sans-Serif" font-size="10.00">matrix_rows</text>
<text xml:space="preserve" text-anchor="start" x="20.44" y="-123.75" font-family="Helvetica,sans-Serif" font-size="10.00">#</text>
<text xml:space="preserve" text-anchor="start" x="34.12" y="-123.75" font-family="Helvetica,sans-Serif" font-size="10.00">scaling_coeffs</text>
<text xml:space="preserve" text-anchor="start" x="20.06" y="-108.5" font-family="Helvetica,sans-Serif" font-size="10.00">+</text>
<text xml:space="preserve" text-anchor="start" x="34.12" y="-108.5" font-family="Helvetica,sans-Serif" font-size="10.00">mod_matrix_impl()</text>
<text xml:space="preserve" text-anchor="start" x="20.06" y="-93.25" font-family="Helvetica,sans-Serif" font-size="10.00">+</text>
<text xml:space="preserve" text-anchor="start" x="34.12" y="-93.25" font-family="Helvetica,sans-Serif" font-size="10.00">calculate_modmatrix()</text>
<text xml:space="preserve" text-anchor="start" x="20.06" y="-78" font-family="Helvetica,sans-Serif" font-size="10.00">+</text>
<text xml:space="preserve" text-anchor="start" x="34.12" y="-78" font-family="Helvetica,sans-Serif" font-size="10.00">send_configures()</text>
<text xml:space="preserve" text-anchor="start" x="20.06" y="-62.75" font-family="Helvetica,sans-Serif" font-size="10.00">+</text>
<text xml:space="preserve" text-anchor="start" x="34.12" y="-62.75" font-family="Helvetica,sans-Serif" font-size="10.00">configure()</text>
<text xml:space="preserve" text-anchor="start" x="20.06" y="-47.5" font-family="Helvetica,sans-Serif" font-size="10.00">+</text>
<text xml:space="preserve" text-anchor="start" x="34.12" y="-47.5" font-family="Helvetica,sans-Serif" font-size="10.00">get_default_mod_matrix</text>
<text xml:space="preserve" text-anchor="start" x="34.12" y="-36.25" font-family="Helvetica,sans-Serif" font-size="10.00">_value()</text>
<text xml:space="preserve" text-anchor="start" x="21.56" y="-21" font-family="Helvetica,sans-Serif" font-size="10.00">&#45;</text>
<text xml:space="preserve" text-anchor="start" x="34.12" y="-21" font-family="Helvetica,sans-Serif" font-size="10.00">get_cell()</text>
<text xml:space="preserve" text-anchor="start" x="21.56" y="-5.75" font-family="Helvetica,sans-Serif" font-size="10.00">&#45;</text>
<text xml:space="preserve" text-anchor="start" x="34.12" y="-5.75" font-family="Helvetica,sans-Serif" font-size="10.00">set_cell()</text>
<polygon fill="#666666" stroke="#666666" points="12,-150.5 12,-150.5 149.75,-150.5 149.75,-150.5 12,-150.5"/>
<polygon fill="#666666" stroke="#666666" points="12,-120 12,-120 32.12,-120 32.12,-120 12,-120"/>
<polygon fill="#666666" stroke="#666666" points="32.12,-120 32.12,-120 149.75,-120 149.75,-120 32.12,-120"/>
<polygon fill="none" stroke="#666666" points="12,0 12,-167.75 149.75,-167.75 149.75,0 12,0"/>
</a>
</g>
</g>
<!-- Node2 -->
<g id="Node000002" class="node">
<title>Node2</title>
<g id="a_Node000002"><a xlink:href="structdsp_1_1modulation__entry.html" target="_top" xlink:title="Single entry in modulation matrix.">
<polygon fill="white" stroke="none" points="101.75,-362.25 0,-362.25 0,-221 101.75,-221 101.75,-362.25"/>
<text xml:space="preserve" text-anchor="start" x="4" y="-348.75" font-family="Helvetica,sans-Serif" font-size="10.00">dsp::modulation_entry</text>
<text xml:space="preserve" text-anchor="start" x="5.06" y="-333.5" font-family="Helvetica,sans-Serif" font-size="10.00">+</text>
<text xml:space="preserve" text-anchor="start" x="16.12" y="-333.5" font-family="Helvetica,sans-Serif" font-size="10.00">src1</text>
<text xml:space="preserve" text-anchor="start" x="5.06" y="-318.25" font-family="Helvetica,sans-Serif" font-size="10.00">+</text>
<text xml:space="preserve" text-anchor="start" x="16.12" y="-318.25" font-family="Helvetica,sans-Serif" font-size="10.00">mapping</text>
<text xml:space="preserve" text-anchor="start" x="5.06" y="-303" font-family="Helvetica,sans-Serif" font-size="10.00">+</text>
<text xml:space="preserve" text-anchor="start" x="16.12" y="-303" font-family="Helvetica,sans-Serif" font-size="10.00">src2</text>
<text xml:space="preserve" text-anchor="start" x="5.06" y="-287.75" font-family="Helvetica,sans-Serif" font-size="10.00">+</text>
<text xml:space="preserve" text-anchor="start" x="16.12" y="-287.75" font-family="Helvetica,sans-Serif" font-size="10.00">amount</text>
<text xml:space="preserve" text-anchor="start" x="5.06" y="-272.5" font-family="Helvetica,sans-Serif" font-size="10.00">+</text>
<text xml:space="preserve" text-anchor="start" x="16.12" y="-272.5" font-family="Helvetica,sans-Serif" font-size="10.00">dest</text>
<text xml:space="preserve" text-anchor="start" x="5.06" y="-257.25" font-family="Helvetica,sans-Serif" font-size="10.00">+</text>
<text xml:space="preserve" text-anchor="start" x="16.12" y="-257.25" font-family="Helvetica,sans-Serif" font-size="10.00">modulation_entry()</text>
<text xml:space="preserve" text-anchor="start" x="5.06" y="-242" font-family="Helvetica,sans-Serif" font-size="10.00">+</text>
<text xml:space="preserve" text-anchor="start" x="16.12" y="-242" font-family="Helvetica,sans-Serif" font-size="10.00">modulation_entry()</text>
<text xml:space="preserve" text-anchor="start" x="5.06" y="-226.75" font-family="Helvetica,sans-Serif" font-size="10.00">+</text>
<text xml:space="preserve" text-anchor="start" x="16.12" y="-226.75" font-family="Helvetica,sans-Serif" font-size="10.00">reset()</text>
<polygon fill="#666666" stroke="#666666" points="0,-345 0,-345 101.75,-345 101.75,-345 0,-345"/>
<polygon fill="#666666" stroke="#666666" points="0,-268.75 0,-268.75 14.12,-268.75 14.12,-268.75 0,-268.75"/>
<polygon fill="#666666" stroke="#666666" points="14.12,-268.75 14.12,-268.75 101.75,-268.75 101.75,-268.75 14.12,-268.75"/>
<polygon fill="none" stroke="#666666" points="0,-221 0,-362.25 101.75,-362.25 101.75,-221 0,-221"/>
</a>
</g>
</g>
<!-- Node2&#45;&gt;Node1 -->
<g id="edge1_Node000001_Node000002" class="edge">
<title>Node2&#45;&gt;Node1</title>
<g id="a_edge1_Node000001_Node000002"><a xlink:title=" ">
<path fill="none" stroke="#63b8ff" d="M60.99,-221.25C62.92,-208.03 64.97,-193.99 66.99,-180.12"/>
<polygon fill="none" stroke="#63b8ff" points="66.97,-180.24 63.88,-173.73 68.7,-168.37 71.79,-174.88 66.97,-180.24"/>
</a>
</g>
<text xml:space="preserve" text-anchor="start" x="68.88" y="-190.5" font-family="Helvetica,sans-Serif" font-size="10.00" fill="grey">#matrix</text>
</g>
<!-- Node3 -->
<g id="Node000003" class="node">
<title>Node3</title>
<g id="a_Node000003"><a xlink:href="classcalf__plugins_1_1mod__matrix__metadata.html" target="_top" xlink:title="Implementation of table_metadata_iface providing metadata for mod matrices.">
<polygon fill="white" stroke="none" points="239.88,-360.25 119.88,-360.25 119.88,-223 239.88,-223 239.88,-360.25"/>
<text xml:space="preserve" text-anchor="start" x="126.62" y="-346.75" font-family="Helvetica,sans-Serif" font-size="10.00">calf_plugins::mod_matrix</text>
<text xml:space="preserve" text-anchor="start" x="157" y="-335.5" font-family="Helvetica,sans-Serif" font-size="10.00">_metadata</text>
<text xml:space="preserve" text-anchor="start" x="123.88" y="-320.25" font-family="Helvetica,sans-Serif" font-size="10.00">+</text>
<text xml:space="preserve" text-anchor="start" x="133.88" y="-320.25" font-family="Helvetica,sans-Serif" font-size="10.00">mod_src_names</text>
<text xml:space="preserve" text-anchor="start" x="123.88" y="-305" font-family="Helvetica,sans-Serif" font-size="10.00">+</text>
<text xml:space="preserve" text-anchor="start" x="133.88" y="-305" font-family="Helvetica,sans-Serif" font-size="10.00">mod_dest_names</text>
<text xml:space="preserve" text-anchor="start" x="124.25" y="-289.75" font-family="Helvetica,sans-Serif" font-size="10.00">#</text>
<text xml:space="preserve" text-anchor="start" x="133.88" y="-289.75" font-family="Helvetica,sans-Serif" font-size="10.00">matrix_rows</text>
<text xml:space="preserve" text-anchor="start" x="123.88" y="-274.5" font-family="Helvetica,sans-Serif" font-size="10.00">+</text>
<text xml:space="preserve" text-anchor="start" x="133.88" y="-274.5" font-family="Helvetica,sans-Serif" font-size="10.00">mod_matrix_metadata()</text>
<text xml:space="preserve" text-anchor="start" x="123.88" y="-259.25" font-family="Helvetica,sans-Serif" font-size="10.00">+</text>
<text xml:space="preserve" text-anchor="start" x="133.88" y="-259.25" font-family="Helvetica,sans-Serif" font-size="10.00">get_table_columns()</text>
<text xml:space="preserve" text-anchor="start" x="123.88" y="-244" font-family="Helvetica,sans-Serif" font-size="10.00">+</text>
<text xml:space="preserve" text-anchor="start" x="133.88" y="-244" font-family="Helvetica,sans-Serif" font-size="10.00">get_table_rows()</text>
<text xml:space="preserve" text-anchor="start" x="123.88" y="-228.75" font-family="Helvetica,sans-Serif" font-size="10.00">+</text>
<text xml:space="preserve" text-anchor="start" x="133.88" y="-228.75" font-family="Helvetica,sans-Serif" font-size="10.00">get_configure_vars()</text>
<polygon fill="#666666" stroke="#666666" points="119.88,-331.75 119.88,-331.75 239.88,-331.75 239.88,-331.75 119.88,-331.75"/>
<polygon fill="#666666" stroke="#666666" points="119.88,-286 119.88,-286 131.88,-286 131.88,-286 119.88,-286"/>
<polygon fill="#666666" stroke="#666666" points="131.88,-286 131.88,-286 239.88,-286 239.88,-286 131.88,-286"/>
<polygon fill="none" stroke="#666666" points="119.88,-223 119.88,-360.25 239.88,-360.25 239.88,-223 119.88,-223"/>
</a>
</g>
</g>
<!-- Node3&#45;&gt;Node1 -->
<g id="edge2_Node000001_Node000003" class="edge">
<title>Node3&#45;&gt;Node1</title>
<g id="a_edge2_Node000001_Node000003"><a xlink:title=" ">
<path fill="none" stroke="#63b8ff" d="M147.46,-223.25C140.63,-209.06 133.3,-193.84 126.1,-178.86"/>
<polygon fill="none" stroke="#63b8ff" points="126.22,-179.11 120.01,-175.44 121.02,-168.3 127.22,-171.97 126.22,-179.11"/>
</a>
</g>
<text xml:space="preserve" text-anchor="start" x="139.3" y="-190.5" font-family="Helvetica,sans-Serif" font-size="10.00" fill="grey">#metadata</text>
</g>
<!-- Node4 -->
<g id="Node000004" class="node">
<title>Node4</title>
<g id="a_Node000004"><a xlink:href="structcalf__plugins_1_1table__metadata__iface.html" target="_top" xlink:title="&#39;has string parameters containing tabular data&#39; interface">
<polygon fill="white" stroke="none" points="180,-529.88 57.75,-529.88 57.75,-438.38 180,-438.38 180,-529.88"/>
<text xml:space="preserve" text-anchor="start" x="80.25" y="-516.38" font-family="Helvetica,sans-Serif" font-size="10.00">calf_plugins::table</text>
<text xml:space="preserve" text-anchor="start" x="82.88" y="-505.12" font-family="Helvetica,sans-Serif" font-size="10.00">_metadata_iface</text>
<text xml:space="preserve" text-anchor="start" x="117.38" y="-489.88" font-family="Helvetica,sans-Serif" font-size="10.00"> </text>
<text xml:space="preserve" text-anchor="start" x="61.75" y="-474.62" font-family="Helvetica,sans-Serif" font-size="10.00">+</text>
<text xml:space="preserve" text-anchor="start" x="71.75" y="-474.62" font-family="Helvetica,sans-Serif" font-size="10.00">get_table_columns()</text>
<text xml:space="preserve" text-anchor="start" x="61.75" y="-459.38" font-family="Helvetica,sans-Serif" font-size="10.00">+</text>
<text xml:space="preserve" text-anchor="start" x="71.75" y="-459.38" font-family="Helvetica,sans-Serif" font-size="10.00">get_table_rows()</text>
<text xml:space="preserve" text-anchor="start" x="61.75" y="-444.12" font-family="Helvetica,sans-Serif" font-size="10.00">+</text>
<text xml:space="preserve" text-anchor="start" x="71.75" y="-444.12" font-family="Helvetica,sans-Serif" font-size="10.00">~table_metadata_iface()</text>
<polygon fill="#666666" stroke="#666666" points="57.75,-501.38 57.75,-501.38 180,-501.38 180,-501.38 57.75,-501.38"/>
<polygon fill="#666666" stroke="#666666" points="57.75,-486.12 57.75,-486.12 180,-486.12 180,-486.12 57.75,-486.12"/>
<polygon fill="none" stroke="#666666" points="57.75,-438.38 57.75,-529.88 180,-529.88 180,-438.38 57.75,-438.38"/>
</a>
</g>
</g>
<!-- Node4&#45;&gt;Node3 -->
<g id="edge3_Node000003_Node000004" class="edge">
<title>Node4&#45;&gt;Node3</title>
<g id="a_edge3_Node000003_Node000004"><a xlink:title=" ">
<path fill="none" stroke="#63b8ff" d="M136.61,-427.73C143.38,-406.6 151.17,-382.28 158.25,-360.14"/>
<polygon fill="none" stroke="#63b8ff" points="133.35,-426.43 133.64,-437.02 140.02,-428.56 133.35,-426.43"/>
</a>
</g>
</g>
<!-- Node5 -->
<g id="Node000005" class="node">
<title>Node5</title>
<g id="a_Node000005"><a xlink:href="structcalf__plugins_1_1table__column__info.html" target="_top" xlink:title="parameters of">
<polygon fill="white" stroke="none" points="283.5,-552.75 198.25,-552.75 198.25,-415.5 283.5,-415.5 283.5,-552.75"/>
<text xml:space="preserve" text-anchor="start" x="202.25" y="-539.25" font-family="Helvetica,sans-Serif" font-size="10.00">calf_plugins::table</text>
<text xml:space="preserve" text-anchor="start" x="212" y="-528" font-family="Helvetica,sans-Serif" font-size="10.00">_column_info</text>
<text xml:space="preserve" text-anchor="start" x="208.56" y="-512.75" font-family="Helvetica,sans-Serif" font-size="10.00">+</text>
<text xml:space="preserve" text-anchor="start" x="224.88" y="-512.75" font-family="Helvetica,sans-Serif" font-size="10.00">name</text>
<text xml:space="preserve" text-anchor="start" x="208.56" y="-497.5" font-family="Helvetica,sans-Serif" font-size="10.00">+</text>
<text xml:space="preserve" text-anchor="start" x="224.88" y="-497.5" font-family="Helvetica,sans-Serif" font-size="10.00">type</text>
<text xml:space="preserve" text-anchor="start" x="208.56" y="-482.25" font-family="Helvetica,sans-Serif" font-size="10.00">+</text>
<text xml:space="preserve" text-anchor="start" x="224.88" y="-482.25" font-family="Helvetica,sans-Serif" font-size="10.00">min</text>
<text xml:space="preserve" text-anchor="start" x="208.56" y="-467" font-family="Helvetica,sans-Serif" font-size="10.00">+</text>
<text xml:space="preserve" text-anchor="start" x="224.88" y="-467" font-family="Helvetica,sans-Serif" font-size="10.00">max</text>
<text xml:space="preserve" text-anchor="start" x="208.56" y="-451.75" font-family="Helvetica,sans-Serif" font-size="10.00">+</text>
<text xml:space="preserve" text-anchor="start" x="224.88" y="-451.75" font-family="Helvetica,sans-Serif" font-size="10.00">def_value</text>
<text xml:space="preserve" text-anchor="start" x="208.56" y="-436.5" font-family="Helvetica,sans-Serif" font-size="10.00">+</text>
<text xml:space="preserve" text-anchor="start" x="224.88" y="-436.5" font-family="Helvetica,sans-Serif" font-size="10.00">values</text>
<text xml:space="preserve" text-anchor="start" x="239.38" y="-421.25" font-family="Helvetica,sans-Serif" font-size="10.00"> </text>
<polygon fill="#666666" stroke="#666666" points="198.25,-524.25 198.25,-524.25 283.5,-524.25 283.5,-524.25 198.25,-524.25"/>
<polygon fill="#666666" stroke="#666666" points="198.25,-432.75 198.25,-432.75 222.88,-432.75 222.88,-432.75 198.25,-432.75"/>
<polygon fill="#666666" stroke="#666666" points="222.88,-432.75 222.88,-432.75 283.5,-432.75 283.5,-432.75 222.88,-432.75"/>
<polygon fill="none" stroke="#666666" points="198.25,-415.5 198.25,-552.75 283.5,-552.75 283.5,-415.5 198.25,-415.5"/>
</a>
</g>
</g>
<!-- Node5&#45;&gt;Node3 -->
<g id="edge4_Node000003_Node000005" class="edge">
<title>Node5&#45;&gt;Node3</title>
<g id="a_edge4_Node000003_Node000005"><a xlink:title=" ">
<path fill="none" stroke="#63b8ff" d="M219.28,-415.69C214.76,-401.56 209.95,-386.53 205.3,-372.01"/>
<polygon fill="none" stroke="#63b8ff" points="205.37,-372.25 199.73,-367.76 201.71,-360.82 207.35,-365.32 205.37,-372.25"/>
</a>
</g>
<text xml:space="preserve" text-anchor="start" x="215.2" y="-385" font-family="Helvetica,sans-Serif" font-size="10.00" fill="grey">#table_columns</text>
</g>
</g>
</svg>
