<?xml version="1.0" encoding="UTF-8" standalone="no"?>
<!DOCTYPE svg PUBLIC "-//W3C//DTD SVG 1.1//EN"
 "http://www.w3.org/Graphics/SVG/1.1/DTD/svg11.dtd">
<!-- Generated by graphviz version 14.0.2 (0)
 -->
<!-- Title: _gfx_setfont Pages: 1 -->
<svg width="526pt" height="397pt"
 viewBox="0.00 0.00 526.00 397.00" xmlns="http://www.w3.org/2000/svg" xmlns:xlink="http://www.w3.org/1999/xlink">
<g id="graph0" class="graph" transform="scale(1 1) rotate(0) translate(4 393.25)">
<title>_gfx_setfont</title>
<!-- Node1 -->
<g id="Node000001" class="node">
<title>Node1</title>
<g id="a_Node000001"><a xlink:title=" ">
<polygon fill="#999999" stroke="#666666" points="69.25,-204.25 0,-204.25 0,-185 69.25,-185 69.25,-204.25"/>
<text xml:space="preserve" text-anchor="middle" x="34.62" y="-190.75" font-family="Helvetica,sans-Serif" font-size="10.00">_gfx_setfont</text>
</a>
</g>
</g>
<!-- Node2 -->
<g id="Node000002" class="node">
<title>Node2</title>
<g id="a_Node000002"><a xlink:href="classeel__lice__state.html#a7724fdeec0625f61c33bda6c7371d511" target="_top" xlink:title=" ">
<polygon fill="white" stroke="#666666" points="198.5,-209.88 105.25,-209.88 105.25,-179.38 198.5,-179.38 198.5,-209.88"/>
<text xml:space="preserve" text-anchor="start" x="113.25" y="-196.38" font-family="Helvetica,sans-Serif" font-size="10.00">eel_lice_state::gfx</text>
<text xml:space="preserve" text-anchor="middle" x="151.88" y="-185.12" font-family="Helvetica,sans-Serif" font-size="10.00">_setfont</text>
</a>
</g>
</g>
<!-- Node1&#45;&gt;Node2 -->
<g id="edge1_Node000001_Node000002" class="edge">
<title>Node1&#45;&gt;Node2</title>
<g id="a_edge1_Node000001_Node000002"><a xlink:title=" ">
<path fill="none" stroke="#63b8ff" d="M69.58,-194.62C77.07,-194.62 85.21,-194.62 93.34,-194.62"/>
<polygon fill="#63b8ff" stroke="#63b8ff" points="93.26,-198.13 103.26,-194.63 93.26,-191.13 93.26,-198.13"/>
</a>
</g>
</g>
<!-- Node3 -->
<g id="Node000003" class="node">
<title>Node3</title>
<g id="a_Node000003"><a xlink:href="eel__lice_8h.html#a2453c5850ab8aa7088091decf3d43ee6" target="_top" xlink:title=" ">
<polygon fill="white" stroke="#666666" points="347.25,-389.25 234.5,-389.25 234.5,-370 347.25,-370 347.25,-389.25"/>
<text xml:space="preserve" text-anchor="middle" x="290.88" y="-375.75" font-family="Helvetica,sans-Serif" font-size="10.00">__LICE_CreateBitmap</text>
</a>
</g>
</g>
<!-- Node2&#45;&gt;Node3 -->
<g id="edge2_Node000002_Node000003" class="edge">
<title>Node2&#45;&gt;Node3</title>
<g id="a_edge2_Node000002_Node000003"><a xlink:title=" ">
<path fill="none" stroke="#63b8ff" d="M156.12,-210C163.81,-242.74 186.26,-319.72 234.5,-361.62 235.42,-362.42 236.37,-363.18 237.35,-363.91"/>
<polygon fill="#63b8ff" stroke="#63b8ff" points="235.18,-366.69 245.57,-368.81 238.77,-360.68 235.18,-366.69"/>
</a>
</g>
</g>
<!-- Node4 -->
<g id="Node000004" class="node">
<title>Node4</title>
<g id="a_Node000004"><a xlink:href="swell-gdi-generic_8cpp.html#a49145dd8658ac8239ea20e60a124485d" target="_top" xlink:title=" ">
<polygon fill="white" stroke="#666666" points="322.88,-352.25 258.88,-352.25 258.88,-333 322.88,-333 322.88,-352.25"/>
<text xml:space="preserve" text-anchor="middle" x="290.88" y="-338.75" font-family="Helvetica,sans-Serif" font-size="10.00">CreateFont</text>
</a>
</g>
</g>
<!-- Node2&#45;&gt;Node4 -->
<g id="edge3_Node000002_Node000004" class="edge">
<title>Node2&#45;&gt;Node4</title>
<g id="a_edge3_Node000002_Node000004"><a xlink:title=" ">
<path fill="none" stroke="#63b8ff" d="M158.56,-210.31C169.22,-237.56 194.78,-293.66 234.5,-324.62 238.51,-327.75 243.08,-330.34 247.84,-332.49"/>
<polygon fill="#63b8ff" stroke="#63b8ff" points="246.4,-335.69 256.99,-335.98 248.89,-329.15 246.4,-335.69"/>
</a>
</g>
</g>
<!-- Node11 -->
<g id="Node000011" class="node">
<title>Node11</title>
<g id="a_Node000011"><a xlink:href="swell-gdi-generic_8cpp.html#a68dd65d1122fdaae701c6b1cebf19907" target="_top" xlink:title=" ">
<polygon fill="white" stroke="#666666" points="327,-315.25 254.75,-315.25 254.75,-296 327,-296 327,-315.25"/>
<text xml:space="preserve" text-anchor="middle" x="290.88" y="-301.75" font-family="Helvetica,sans-Serif" font-size="10.00">GetTextFace</text>
</a>
</g>
</g>
<!-- Node2&#45;&gt;Node11 -->
<g id="edge5_Node000002_Node000011" class="edge">
<title>Node2&#45;&gt;Node11</title>
<g id="a_edge5_Node000002_Node000011"><a xlink:title=" ">
<path fill="none" stroke="#63b8ff" d="M162.56,-210.1C176.18,-230.67 202.92,-266.83 234.5,-287.62 237.4,-289.54 240.53,-291.26 243.76,-292.81"/>
<polygon fill="#63b8ff" stroke="#63b8ff" points="242.33,-296.01 252.91,-296.61 245.02,-289.54 242.33,-296.01"/>
</a>
</g>
</g>
<!-- Node12 -->
<g id="Node000012" class="node">
<title>Node12</title>
<g id="a_Node000012"><a xlink:href="swell-gdi-generic_8cpp.html#a38b15e9aa63766fdebcd79c83e2b0b43" target="_top" xlink:title=" ">
<polygon fill="white" stroke="#666666" points="332.25,-167.25 249.5,-167.25 249.5,-148 332.25,-148 332.25,-167.25"/>
<text xml:space="preserve" text-anchor="middle" x="290.88" y="-153.75" font-family="Helvetica,sans-Serif" font-size="10.00">GetTextMetrics</text>
</a>
</g>
</g>
<!-- Node2&#45;&gt;Node12 -->
<g id="edge6_Node000002_Node000012" class="edge">
<title>Node2&#45;&gt;Node12</title>
<g id="a_edge6_Node000002_Node000012"><a xlink:title=" ">
<path fill="none" stroke="#63b8ff" d="M198.88,-182.2C212.61,-178.49 227.71,-174.41 241.59,-170.66"/>
<polygon fill="#63b8ff" stroke="#63b8ff" points="242.21,-174.12 250.96,-168.14 240.39,-167.36 242.21,-174.12"/>
</a>
</g>
</g>
<!-- Node9 -->
<g id="Node000009" class="node">
<title>Node9</title>
<g id="a_Node000009"><a xlink:href="unzipfx-carla-control_2unzip_8h.html#a6146ec4ac32d62cf01b4c4c6587d5131" target="_top" xlink:title=" ">
<polygon fill="white" stroke="#666666" points="305.27,-241.25 276.48,-241.25 276.48,-222 305.27,-222 305.27,-241.25"/>
<text xml:space="preserve" text-anchor="middle" x="290.88" y="-227.75" font-family="Helvetica,sans-Serif" font-size="10.00">int</text>
</a>
</g>
</g>
<!-- Node2&#45;&gt;Node9 -->
<g id="edge8_Node000002_Node000009" class="edge">
<title>Node2&#45;&gt;Node9</title>
<g id="a_edge8_Node000002_Node000009"><a xlink:title=" ">
<path fill="none" stroke="#63b8ff" d="M198.88,-207.05C221.07,-213.04 246.8,-219.99 265.23,-224.97"/>
<polygon fill="#63b8ff" stroke="#63b8ff" points="264.15,-228.3 274.71,-227.53 265.97,-221.54 264.15,-228.3"/>
</a>
</g>
</g>
<!-- Node14 -->
<g id="Node000014" class="node">
<title>Node14</title>
<g id="a_Node000014"><a xlink:href="eel__lice_8h.html#a0b075fc4e2c83e31ee59ba547192e9a1" target="_top" xlink:title=" ">
<polygon fill="white" stroke="#666666" points="329.62,-278.25 252.12,-278.25 252.12,-259 329.62,-259 329.62,-278.25"/>
<text xml:space="preserve" text-anchor="middle" x="290.88" y="-264.75" font-family="Helvetica,sans-Serif" font-size="10.00">LICE__GetDC</text>
</a>
</g>
</g>
<!-- Node2&#45;&gt;Node14 -->
<g id="edge9_Node000002_Node000014" class="edge">
<title>Node2&#45;&gt;Node14</title>
<g id="a_edge9_Node000002_Node000014"><a xlink:title=" ">
<path fill="none" stroke="#63b8ff" d="M172.34,-210.36C188.29,-222.65 211.84,-239.46 234.5,-250.62 237.25,-251.98 240.13,-253.27 243.07,-254.49"/>
<polygon fill="#63b8ff" stroke="#63b8ff" points="241.82,-257.76 252.41,-258.04 244.31,-251.21 241.82,-257.76"/>
</a>
</g>
</g>
<!-- Node16 -->
<g id="Node000016" class="node">
<title>Node16</title>
<g id="a_Node000016"><a xlink:href="eel__lice_8h.html#ad1e43e4902b006aaf834fdca9815aefc" target="_top" xlink:title=" ">
<polygon fill="white" stroke="#666666" points="347.25,-204.25 234.5,-204.25 234.5,-185 347.25,-185 347.25,-204.25"/>
<text xml:space="preserve" text-anchor="middle" x="290.88" y="-190.75" font-family="Helvetica,sans-Serif" font-size="10.00">LICE__SetFromHFont</text>
</a>
</g>
</g>
<!-- Node2&#45;&gt;Node16 -->
<g id="edge11_Node000002_Node000016" class="edge">
<title>Node2&#45;&gt;Node16</title>
<g id="a_edge11_Node000002_Node000016"><a xlink:title=" ">
<path fill="none" stroke="#63b8ff" d="M198.88,-194.62C206.59,-194.62 214.73,-194.62 222.85,-194.62"/>
<polygon fill="#63b8ff" stroke="#63b8ff" points="222.74,-198.13 232.74,-194.63 222.74,-191.13 222.74,-198.13"/>
</a>
</g>
</g>
<!-- Node18 -->
<g id="Node000018" class="node">
<title>Node18</title>
<g id="a_Node000018"><a xlink:href="eel__lice_8h.html#ab94fc3f68b7e774535018f58151f6577" target="_top" xlink:title=" ">
<polygon fill="white" stroke="#666666" points="336.38,-130.25 245.38,-130.25 245.38,-111 336.38,-111 336.38,-130.25"/>
<text xml:space="preserve" text-anchor="middle" x="290.88" y="-116.75" font-family="Helvetica,sans-Serif" font-size="10.00">LICE_CreateFont</text>
</a>
</g>
</g>
<!-- Node2&#45;&gt;Node18 -->
<g id="edge13_Node000002_Node000018" class="edge">
<title>Node2&#45;&gt;Node18</title>
<g id="a_edge13_Node000002_Node000018"><a xlink:title=" ">
<path fill="none" stroke="#63b8ff" d="M172.34,-178.89C188.29,-166.6 211.84,-149.79 234.5,-138.62 237.25,-137.27 240.13,-135.98 243.07,-134.76"/>
<polygon fill="#63b8ff" stroke="#63b8ff" points="244.31,-138.04 252.41,-131.21 241.82,-131.49 244.31,-138.04"/>
</a>
</g>
</g>
<!-- Node19 -->
<g id="Node000019" class="node">
<title>Node19</title>
<g id="a_Node000019"><a xlink:href="wdlcstring_8h.html#a5066dd0a9a219b8f78f66b852ef4e855" target="_top" xlink:title=" ">
<polygon fill="white" stroke="#666666" points="327.75,-93.25 254,-93.25 254,-74 327.75,-74 327.75,-93.25"/>
<text xml:space="preserve" text-anchor="middle" x="290.88" y="-79.75" font-family="Helvetica,sans-Serif" font-size="10.00">lstrcpyn_safe</text>
</a>
</g>
</g>
<!-- Node2&#45;&gt;Node19 -->
<g id="edge14_Node000002_Node000019" class="edge">
<title>Node2&#45;&gt;Node19</title>
<g id="a_edge14_Node000002_Node000019"><a xlink:title=" ">
<path fill="none" stroke="#63b8ff" d="M162.56,-179.15C176.18,-158.58 202.92,-122.42 234.5,-101.62 237.23,-99.83 240.16,-98.2 243.18,-96.72"/>
<polygon fill="#63b8ff" stroke="#63b8ff" points="244.48,-99.97 252.33,-92.85 241.76,-93.52 244.48,-99.97"/>
</a>
</g>
</g>
<!-- Node20 -->
<g id="Node000020" class="node">
<title>Node20</title>
<g id="a_Node000020"><a xlink:href="swell-gdi-generic_8cpp.html#a06aec2b6ae2c3ff6d41e203def153480" target="_top" xlink:title=" ">
<polygon fill="white" stroke="#666666" points="327,-56.25 254.75,-56.25 254.75,-37 327,-37 327,-56.25"/>
<text xml:space="preserve" text-anchor="middle" x="290.88" y="-42.75" font-family="Helvetica,sans-Serif" font-size="10.00">SelectObject</text>
</a>
</g>
</g>
<!-- Node2&#45;&gt;Node20 -->
<g id="edge15_Node000002_Node000020" class="edge">
<title>Node2&#45;&gt;Node20</title>
<g id="a_edge15_Node000002_Node000020"><a xlink:title=" ">
<path fill="none" stroke="#63b8ff" d="M158.56,-178.94C169.22,-151.69 194.78,-95.59 234.5,-64.62 237.41,-62.36 240.62,-60.37 243.97,-58.63"/>
<polygon fill="#63b8ff" stroke="#63b8ff" points="245.2,-61.91 252.97,-54.72 242.41,-55.49 245.2,-61.91"/>
</a>
</g>
</g>
<!-- Node22 -->
<g id="Node000022" class="node">
<title>Node22</title>
<g id="a_Node000022"><a xlink:href="wdlutf8_8h.html#a6a35f30ec1c07693dc1d158deb35fd2d" target="_top" xlink:title=" ">
<polygon fill="white" stroke="#666666" points="339,-19.25 242.75,-19.25 242.75,0 339,0 339,-19.25"/>
<text xml:space="preserve" text-anchor="middle" x="290.88" y="-5.75" font-family="Helvetica,sans-Serif" font-size="10.00">WDL_DetectUTF8</text>
</a>
</g>
</g>
<!-- Node2&#45;&gt;Node22 -->
<g id="edge18_Node000002_Node000022" class="edge">
<title>Node2&#45;&gt;Node22</title>
<g id="a_edge18_Node000002_Node000022"><a xlink:title=" ">
<path fill="none" stroke="#63b8ff" d="M156.12,-179.25C163.81,-146.51 186.26,-69.53 234.5,-27.62 235.42,-26.83 236.37,-26.07 237.35,-25.34"/>
<polygon fill="#63b8ff" stroke="#63b8ff" points="238.77,-28.57 245.57,-20.44 235.18,-22.56 238.77,-28.57"/>
</a>
</g>
</g>
<!-- Node5 -->
<g id="Node000005" class="node">
<title>Node5</title>
<g id="a_Node000005"><a xlink:href="swell-gdi-internalpool_8h.html#a3ffbf009e9d20f63868892b2797eb6b7" target="_top" xlink:title=" ">
<polygon fill="#fff0f0" stroke="red" points="504.62,-352.25 396.38,-352.25 396.38,-333 504.62,-333 504.62,-352.25"/>
<text xml:space="preserve" text-anchor="middle" x="450.5" y="-338.75" font-family="Helvetica,sans-Serif" font-size="10.00">GDP_OBJECT_NEW</text>
</a>
</g>
</g>
<!-- Node4&#45;&gt;Node5 -->
<g id="edge4_Node000004_Node000005" class="edge">
<title>Node4&#45;&gt;Node5</title>
<g id="a_edge4_Node000004_Node000005"><a xlink:title=" ">
<path fill="none" stroke="#63b8ff" d="M323.02,-342.62C340.66,-342.62 363.41,-342.62 384.74,-342.62"/>
<polygon fill="#63b8ff" stroke="#63b8ff" points="384.55,-346.13 394.55,-342.63 384.55,-339.13 384.55,-346.13"/>
</a>
</g>
</g>
<!-- Node13 -->
<g id="Node000013" class="node">
<title>Node13</title>
<g id="a_Node000013"><a xlink:href="swell-gdi-internalpool_8h.html#a86fdc2d8c669ee11dd0ac213922bfc88" target="_top" xlink:title=" ">
<polygon fill="white" stroke="#666666" points="486.25,-130.25 414.75,-130.25 414.75,-111 486.25,-111 486.25,-130.25"/>
<text xml:space="preserve" text-anchor="middle" x="450.5" y="-116.75" font-family="Helvetica,sans-Serif" font-size="10.00">HDC_VALID</text>
</a>
</g>
</g>
<!-- Node12&#45;&gt;Node13 -->
<g id="edge7_Node000012_Node000013" class="edge">
<title>Node12&#45;&gt;Node13</title>
<g id="a_edge7_Node000012_Node000013"><a xlink:title=" ">
<path fill="none" stroke="#63b8ff" d="M332.47,-148.1C354.16,-143 380.95,-136.72 403.42,-131.44"/>
<polygon fill="#63b8ff" stroke="#63b8ff" points="403.99,-134.9 412.93,-129.21 402.39,-128.09 403.99,-134.9"/>
</a>
</g>
</g>
<!-- Node15 -->
<g id="Node000015" class="node">
<title>Node15</title>
<g id="a_Node000015"><a xlink:href="classLICE__IBitmap.html#adba2c40409a5aca4300ab1bf615dd342" target="_top" xlink:title=" ">
<polygon fill="white" stroke="#666666" points="504.62,-278.25 396.38,-278.25 396.38,-259 504.62,-259 504.62,-278.25"/>
<text xml:space="preserve" text-anchor="middle" x="450.5" y="-264.75" font-family="Helvetica,sans-Serif" font-size="10.00">LICE_IBitmap::getDC</text>
</a>
</g>
</g>
<!-- Node14&#45;&gt;Node15 -->
<g id="edge10_Node000014_Node000015" class="edge">
<title>Node14&#45;&gt;Node15</title>
<g id="a_edge10_Node000014_Node000015"><a xlink:title=" ">
<path fill="none" stroke="#63b8ff" d="M330.03,-268.62C346.4,-268.62 366,-268.62 384.54,-268.62"/>
<polygon fill="#63b8ff" stroke="#63b8ff" points="384.4,-272.13 394.4,-268.63 384.4,-265.13 384.4,-272.13"/>
</a>
</g>
</g>
<!-- Node17 -->
<g id="Node000017" class="node">
<title>Node17</title>
<g id="a_Node000017"><a xlink:href="classLICE__IFont.html#a649a37a735c398d98afb644f436e5d19" target="_top" xlink:title=" ">
<polygon fill="white" stroke="#666666" points="517.75,-204.25 383.25,-204.25 383.25,-185 517.75,-185 517.75,-204.25"/>
<text xml:space="preserve" text-anchor="middle" x="450.5" y="-190.75" font-family="Helvetica,sans-Serif" font-size="10.00">LICE_IFont::SetFromHFont</text>
</a>
</g>
</g>
<!-- Node16&#45;&gt;Node17 -->
<g id="edge12_Node000016_Node000017" class="edge">
<title>Node16&#45;&gt;Node17</title>
<g id="a_edge12_Node000016_Node000017"><a xlink:title=" ">
<path fill="none" stroke="#63b8ff" d="M347.45,-194.62C355.22,-194.62 363.32,-194.62 371.41,-194.62"/>
<polygon fill="#63b8ff" stroke="#63b8ff" points="371.3,-198.13 381.3,-194.63 371.3,-191.13 371.3,-198.13"/>
</a>
</g>
</g>
<!-- Node20&#45;&gt;Node13 -->
<g id="edge16_Node000020_Node000013" class="edge">
<title>Node20&#45;&gt;Node13</title>
<g id="a_edge16_Node000020_Node000013"><a xlink:title=" ">
<path fill="none" stroke="#63b8ff" d="M326.22,-56.68C333.26,-59.05 340.57,-61.74 347.25,-64.62 374.15,-76.24 403.32,-92.63 423.6,-104.67"/>
<polygon fill="#63b8ff" stroke="#63b8ff" points="421.66,-107.59 432.03,-109.75 425.27,-101.6 421.66,-107.59"/>
</a>
</g>
</g>
<!-- Node21 -->
<g id="Node000021" class="node">
<title>Node21</title>
<g id="a_Node000021"><a xlink:href="swell-gdi-internalpool_8h.html#ab0ed5dc954dbfbe819c512a2df207f5c" target="_top" xlink:title=" ">
<polygon fill="white" stroke="#666666" points="497.88,-56.25 403.12,-56.25 403.12,-37 497.88,-37 497.88,-56.25"/>
<text xml:space="preserve" text-anchor="middle" x="450.5" y="-42.75" font-family="Helvetica,sans-Serif" font-size="10.00">HGDIOBJ_VALID</text>
</a>
</g>
</g>
<!-- Node20&#45;&gt;Node21 -->
<g id="edge17_Node000020_Node000021" class="edge">
<title>Node20&#45;&gt;Node21</title>
<g id="a_edge17_Node000020_Node000021"><a xlink:title=" ">
<path fill="none" stroke="#63b8ff" d="M327.25,-46.62C346.18,-46.62 369.96,-46.62 391.51,-46.62"/>
<polygon fill="#63b8ff" stroke="#63b8ff" points="391.36,-50.13 401.36,-46.63 391.36,-43.13 391.36,-50.13"/>
</a>
</g>
</g>
<!-- Node23 -->
<g id="Node000023" class="node">
<title>Node23</title>
<g id="a_Node000023"><a xlink:href="wdlutf8_8h.html#a582dc4e9c7f09b0fdc2a1a22e7e4a61c" target="_top" xlink:title=" ">
<polygon fill="white" stroke="#666666" points="500.88,-19.25 400.12,-19.25 400.12,0 500.88,0 500.88,-19.25"/>
<text xml:space="preserve" text-anchor="middle" x="450.5" y="-5.75" font-family="Helvetica,sans-Serif" font-size="10.00">wdl_utf8_parsechar</text>
</a>
</g>
</g>
<!-- Node22&#45;&gt;Node23 -->
<g id="edge19_Node000022_Node000023" class="edge">
<title>Node22&#45;&gt;Node23</title>
<g id="a_edge19_Node000022_Node000023"><a xlink:title=" ">
<path fill="none" stroke="#63b8ff" d="M339.17,-9.62C354.71,-9.62 372.22,-9.62 388.63,-9.62"/>
<polygon fill="#63b8ff" stroke="#63b8ff" points="388.26,-13.13 398.26,-9.63 388.26,-6.13 388.26,-13.13"/>
</a>
</g>
</g>
</g>
</svg>
