<?xml version="1.0" encoding="UTF-8" standalone="no"?>
<!DOCTYPE svg PUBLIC "-//W3C//DTD SVG 1.1//EN"
 "http://www.w3.org/Graphics/SVG/1.1/DTD/svg11.dtd">
<!-- Generated by graphviz version 14.0.2 (0)
 -->
<!-- Title: _gfx_drawchar Pages: 1 -->
<!--zoomable 462 -->

<svg id="main" version="1.1" xmlns="http://www.w3.org/2000/svg" xmlns:xlink="http://www.w3.org/1999/xlink" xml:space="preserve" onload="init(evt)">

<style type="text/css"><![CDATA[
.node, .edge {opacity: 0.7;}
.node.selected, .edge.selected {opacity: 1;}
.edge:hover path { stroke: red; }
.edge:hover polygon { stroke: red; fill: red; }
]]></style>

<defs>
  <circle id="rim" cx="0" cy="0" r="7"/>
  <circle id="rim2" cx="0" cy="0" r="3.5"/>
  <g id="zoomPlus">
    <use xlink:href="#rim" fill="#404040"><set attributeName="fill" to="#808080" begin="zoomplus.mouseover" end="zoomplus.mouseout"/></use>
    <path d="M-4,0h8M0,-4v8" fill="none" stroke="white" stroke-width="1.5" pointer-events="none"/>
  </g>
  <g id="zoomMin">
    <use xlink:href="#rim" fill="#404040"><set attributeName="fill" to="#808080" begin="zoomminus.mouseover" end="zoomminus.mouseout"/></use>
    <path d="M-4,0h8" fill="none" stroke="white" stroke-width="1.5" pointer-events="none"/>
  </g>
  <g id="arrowUp" transform="translate(30 24)">
    <use xlink:href="#rim"/>
    <path pointer-events="none" fill="none" stroke="white" stroke-width="1.5" d="M0,-3.0v7 M-2.5,-0.5L0,-3.0L2.5,-0.5"/>
  </g>
  <g id="arrowRight" transform="rotate(90) translate(36 -43)">
    <use xlink:href="#rim"/>
    <path pointer-events="none" fill="none" stroke="white" stroke-width="1.5" d="M0,-3.0v7 M-2.5,-0.5L0,-3.0L2.5,-0.5"/>
  </g>
  <g id="arrowDown" transform="rotate(180) translate(-30 -48)">
    <use xlink:href="#rim"/>
    <path pointer-events="none" fill="none" stroke="white" stroke-width="1.5" d="M0,-3.0v7 M-2.5,-0.5L0,-3.0L2.5,-0.5"/>
  </g>
  <g id="arrowLeft" transform="rotate(270) translate(-36 17)">
    <use xlink:href="#rim"/>
    <path pointer-events="none" fill="none" stroke="white" stroke-width="1.5" d="M0,-3.0v7 M-2.5,-0.5L0,-3.0L2.5,-0.5"/>
  </g>
  <g id="resetDef">
    <use xlink:href="#rim2" fill="#404040"><set attributeName="fill" to="#808080" begin="reset.mouseover" end="reset.mouseout"/></use>
  </g>
</defs>
<script type="application/ecmascript">
var viewWidth = 641;
var viewHeight = 462;
var sectionId = 'dynsection-17';
</script>
<script type="application/ecmascript" xlink:href="svg.min.js"/>
<svg id="graph" class="graph">
<g id="viewport">
<title>_gfx_drawchar</title>
<!-- Node1 -->
<g id="Node000001" class="node">
<title>Node1</title>
<g id="a_Node000001"><a xlink:title=" ">
<polygon fill="#999999" stroke="#666666" points="79,-173.25 0,-173.25 0,-154 79,-154 79,-173.25"/>
<text xml:space="preserve" text-anchor="middle" x="39.5" y="-159.75" font-family="Helvetica,sans-Serif" font-size="10.00">_gfx_drawchar</text>
</a>
</g>
</g>
<!-- Node2 -->
<g id="Node000002" class="node">
<title>Node2</title>
<g id="a_Node000002"><a xlink:href="classeel__lice__state.html#a93b6bd4451949ecc291f93a2cd139e7d" target="_top" xlink:title=" ">
<polygon fill="white" stroke="#666666" points="208.25,-178.88 115,-178.88 115,-148.38 208.25,-148.38 208.25,-178.88"/>
<text xml:space="preserve" text-anchor="start" x="123" y="-165.38" font-family="Helvetica,sans-Serif" font-size="10.00">eel_lice_state::gfx</text>
<text xml:space="preserve" text-anchor="middle" x="161.62" y="-154.12" font-family="Helvetica,sans-Serif" font-size="10.00">_drawchar</text>
</a>
</g>
</g>
<!-- Node1&#45;&gt;Node2 -->
<g id="edge1_Node000001_Node000002" class="edge">
<title>Node1&#45;&gt;Node2</title>
<g id="a_edge1_Node000001_Node000002"><a xlink:title=" ">
<path fill="none" stroke="#63b8ff" d="M79.17,-163.62C86.91,-163.62 95.19,-163.62 103.4,-163.62"/>
<polygon fill="#63b8ff" stroke="#63b8ff" points="103.39,-167.13 113.39,-163.63 103.39,-160.13 103.39,-167.13"/>
</a>
</g>
</g>
<!-- Node3 -->
<g id="Node000003" class="node">
<title>Node3</title>
<g id="a_Node000003"><a xlink:href="eel__lice_8h.html#a966af2c656fc8fd453edafd80e0b49ac" target="_top" xlink:title=" ">
<polygon fill="white" stroke="#666666" points="368.62,-361.25 263.37,-361.25 263.37,-342 368.62,-342 368.62,-361.25"/>
<text xml:space="preserve" text-anchor="middle" x="316" y="-347.75" font-family="Helvetica,sans-Serif" font-size="10.00">__drawTextWithFont</text>
</a>
</g>
</g>
<!-- Node2&#45;&gt;Node3 -->
<g id="edge2_Node000002_Node000003" class="edge">
<title>Node2&#45;&gt;Node3</title>
<g id="a_edge2_Node000002_Node000003"><a xlink:title=" ">
<path fill="none" stroke="#63b8ff" d="M173.57,-179.11C188.86,-200.54 217.72,-240.26 244.25,-272.62 261.81,-294.05 283.17,-317.58 297.8,-333.34"/>
<polygon fill="#63b8ff" stroke="#63b8ff" points="295.13,-335.62 304.52,-340.54 300.25,-330.84 295.13,-335.62"/>
</a>
</g>
</g>
<!-- Node16 -->
<g id="Node000016" class="node">
<title>Node16</title>
<g id="a_Node000016"><a xlink:href="unzipfx-carla-control_2unzip_8h.html#a6146ec4ac32d62cf01b4c4c6587d5131" target="_top" xlink:title=" ">
<polygon fill="white" stroke="#666666" points="632.8,-173.25 604,-173.25 604,-154 632.8,-154 632.8,-173.25"/>
<text xml:space="preserve" text-anchor="middle" x="618.4" y="-159.75" font-family="Helvetica,sans-Serif" font-size="10.00">int</text>
</a>
</g>
</g>
<!-- Node2&#45;&gt;Node16 -->
<g id="edge17_Node000002_Node000016" class="edge">
<title>Node2&#45;&gt;Node16</title>
<g id="a_edge17_Node000002_Node000016"><a xlink:title=" ">
<path fill="none" stroke="#63b8ff" d="M173.46,-179.19C187.37,-197.66 213.44,-227.5 244.25,-239.62 379.07,-292.67 436.42,-262.25 568,-201.62 579.11,-196.5 590.05,-188.49 598.79,-181.14"/>
<polygon fill="#63b8ff" stroke="#63b8ff" points="601.02,-183.84 606.2,-174.6 596.39,-178.6 601.02,-183.84"/>
</a>
</g>
</g>
<!-- Node18 -->
<g id="Node000018" class="node">
<title>Node18</title>
<g id="a_Node000018"><a xlink:href="classeel__lice__state.html#a2467b36108b136fe32f95788d1bba5c7" target="_top" xlink:title=" ">
<polygon fill="white" stroke="#666666" points="387.75,-230.25 244.25,-230.25 244.25,-211 387.75,-211 387.75,-230.25"/>
<text xml:space="preserve" text-anchor="middle" x="316" y="-216.75" font-family="Helvetica,sans-Serif" font-size="10.00">eel_lice_state::GetActiveFont</text>
</a>
</g>
</g>
<!-- Node2&#45;&gt;Node18 -->
<g id="edge10_Node000002_Node000018" class="edge">
<title>Node2&#45;&gt;Node18</title>
<g id="a_edge10_Node000002_Node000018"><a xlink:title=" ">
<path fill="none" stroke="#63b8ff" d="M200.24,-179.36C214.02,-184.98 229.78,-191.25 244.25,-196.62 253.7,-200.14 263.94,-203.73 273.61,-207.03"/>
<polygon fill="#63b8ff" stroke="#63b8ff" points="272.19,-210.24 282.79,-210.12 274.43,-203.61 272.19,-210.24"/>
</a>
</g>
</g>
<!-- Node19 -->
<g id="Node000019" class="node">
<title>Node19</title>
<g id="a_Node000019"><a xlink:href="classeel__lice__state.html#a221c7345043764c9ea217572de1d50ba" target="_top" xlink:title=" ">
<polygon fill="white" stroke="#666666" points="561.62,-192.25 430.12,-192.25 430.12,-173 561.62,-173 561.62,-192.25"/>
<text xml:space="preserve" text-anchor="middle" x="495.87" y="-178.75" font-family="Helvetica,sans-Serif" font-size="10.00">eel_lice_state::getCurColor</text>
</a>
</g>
</g>
<!-- Node2&#45;&gt;Node19 -->
<g id="edge11_Node000002_Node000019" class="edge">
<title>Node2&#45;&gt;Node19</title>
<g id="a_edge11_Node000002_Node000019"><a xlink:title=" ">
<path fill="none" stroke="#63b8ff" d="M208.47,-166.25C262.63,-169.34 353.55,-174.54 418.42,-178.25"/>
<polygon fill="#63b8ff" stroke="#63b8ff" points="418.12,-181.74 428.3,-178.82 418.52,-174.75 418.12,-181.74"/>
</a>
</g>
</g>
<!-- Node20 -->
<g id="Node000020" class="node">
<title>Node20</title>
<g id="a_Node000020"><a xlink:href="classeel__lice__state.html#ab29c20cb38ce8d088934ae60ebcec226" target="_top" xlink:title=" ">
<polygon fill="white" stroke="#666666" points="382.5,-154.25 249.5,-154.25 249.5,-135 382.5,-135 382.5,-154.25"/>
<text xml:space="preserve" text-anchor="middle" x="316" y="-140.75" font-family="Helvetica,sans-Serif" font-size="10.00">eel_lice_state::getCurMode</text>
</a>
</g>
</g>
<!-- Node2&#45;&gt;Node20 -->
<g id="edge13_Node000002_Node000020" class="edge">
<title>Node2&#45;&gt;Node20</title>
<g id="a_edge13_Node000002_Node000020"><a xlink:title=" ">
<path fill="none" stroke="#63b8ff" d="M208.34,-157.92C217.64,-156.76 227.67,-155.51 237.72,-154.26"/>
<polygon fill="#63b8ff" stroke="#63b8ff" points="238.04,-157.75 247.53,-153.04 237.18,-150.8 238.04,-157.75"/>
</a>
</g>
</g>
<!-- Node21 -->
<g id="Node000021" class="node">
<title>Node21</title>
<g id="a_Node000021"><a xlink:href="classeel__lice__state.html#a9f09ed187901264c3e681b2526ef7078" target="_top" xlink:title=" ">
<polygon fill="white" stroke="#666666" points="377.62,-116.88 254.37,-116.88 254.37,-86.38 377.62,-86.38 377.62,-116.88"/>
<text xml:space="preserve" text-anchor="start" x="262.37" y="-103.38" font-family="Helvetica,sans-Serif" font-size="10.00">eel_lice_state::GetImage</text>
<text xml:space="preserve" text-anchor="middle" x="316" y="-92.12" font-family="Helvetica,sans-Serif" font-size="10.00">ForIndex</text>
</a>
</g>
</g>
<!-- Node2&#45;&gt;Node21 -->
<g id="edge15_Node000002_Node000021" class="edge">
<title>Node2&#45;&gt;Node21</title>
<g id="a_edge15_Node000002_Node000021"><a xlink:title=" ">
<path fill="none" stroke="#63b8ff" d="M194.06,-148.02C209.08,-140.81 227.42,-132.37 244.25,-125.62 248.02,-124.11 251.93,-122.61 255.89,-121.14"/>
<polygon fill="#63b8ff" stroke="#63b8ff" points="256.78,-124.54 264.99,-117.84 254.39,-117.96 256.78,-124.54"/>
</a>
</g>
</g>
<!-- Node22 -->
<g id="Node000022" class="node">
<title>Node22</title>
<g id="a_Node000022"><a xlink:href="classeel__lice__state.html#a95e59e87342b4fa9e271bcf6b98624fc" target="_top" xlink:title=" ">
<polygon fill="white" stroke="#666666" points="377.25,-67.88 254.75,-67.88 254.75,-37.38 377.25,-37.38 377.25,-67.88"/>
<text xml:space="preserve" text-anchor="start" x="262.75" y="-54.38" font-family="Helvetica,sans-Serif" font-size="10.00">eel_lice_state::SetImage</text>
<text xml:space="preserve" text-anchor="middle" x="316" y="-43.12" font-family="Helvetica,sans-Serif" font-size="10.00">Dirty</text>
</a>
</g>
</g>
<!-- Node2&#45;&gt;Node22 -->
<g id="edge18_Node000002_Node000022" class="edge">
<title>Node2&#45;&gt;Node22</title>
<g id="a_edge18_Node000002_Node000022"><a xlink:title=" ">
<path fill="none" stroke="#63b8ff" d="M173.63,-148.15C187.91,-129.09 214.55,-96.9 244.25,-77.62 246.64,-76.07 249.14,-74.61 251.71,-73.22"/>
<polygon fill="#63b8ff" stroke="#63b8ff" points="253.09,-76.44 260.55,-68.91 250.02,-70.14 253.09,-76.44"/>
</a>
</g>
</g>
<!-- Node23 -->
<g id="Node000023" class="node">
<title>Node23</title>
<g id="a_Node000023"><a xlink:href="wdlutf8_8h.html#a5780dd2734ef4b080c3df11e1c733f13" target="_top" xlink:title=" ">
<polygon fill="white" stroke="#666666" points="369.37,-19.25 262.62,-19.25 262.62,0 369.37,0 369.37,-19.25"/>
<text xml:space="preserve" text-anchor="middle" x="316" y="-5.75" font-family="Helvetica,sans-Serif" font-size="10.00">WDL_MakeUTFChar</text>
</a>
</g>
</g>
<!-- Node2&#45;&gt;Node23 -->
<g id="edge20_Node000002_Node000023" class="edge">
<title>Node2&#45;&gt;Node23</title>
<g id="a_edge20_Node000002_Node000023"><a xlink:title=" ">
<path fill="none" stroke="#63b8ff" d="M167.65,-148.01C177.58,-119.74 202.44,-60.06 244.25,-28.62 246.69,-26.79 249.3,-25.13 252.02,-23.63"/>
<polygon fill="#63b8ff" stroke="#63b8ff" points="253.29,-26.9 260.88,-19.52 250.34,-20.55 253.29,-26.9"/>
</a>
</g>
</g>
<!-- Node3&#45;&gt;Node3 -->
<g id="edge3_Node000003_Node000003" class="edge">
<title>Node3&#45;&gt;Node3</title>
<g id="a_edge3_Node000003_Node000003"><a xlink:title=" ">
<path fill="none" stroke="#63b8ff" d="M291.83,-361.54C280.81,-370.15 288.86,-379.25 316,-379.25 331.26,-379.25 340.49,-376.37 343.68,-372.32"/>
<polygon fill="#63b8ff" stroke="#63b8ff" points="347.06,-371.4 340.64,-362.98 340.41,-373.57 347.06,-371.4"/>
</a>
</g>
</g>
<!-- Node4 -->
<g id="Node000004" class="node">
<title>Node4</title>
<g id="a_Node000004"><a xlink:href="ysfx__api__gfx__lice_8hpp.html#a478f5cc386ab3ba7cc2de9b5c30d4837" target="_top" xlink:title=" ">
<polygon fill="#fff0f0" stroke="red" points="540.62,-454.25 451.12,-454.25 451.12,-435 540.62,-435 540.62,-454.25"/>
<text xml:space="preserve" text-anchor="middle" x="495.87" y="-440.75" font-family="Helvetica,sans-Serif" font-size="10.00">LICE__DrawText</text>
</a>
</g>
</g>
<!-- Node3&#45;&gt;Node4 -->
<g id="edge4_Node000003_Node000004" class="edge">
<title>Node3&#45;&gt;Node4</title>
<g id="a_edge4_Node000003_Node000004"><a xlink:title=" ">
<path fill="none" stroke="#63b8ff" d="M328.29,-361.7C346.88,-377.77 385.67,-409.15 423.75,-426.62 428.9,-428.99 434.41,-431.07 439.99,-432.91"/>
<polygon fill="#63b8ff" stroke="#63b8ff" points="438.72,-436.18 449.31,-435.69 440.73,-429.47 438.72,-436.18"/>
</a>
</g>
</g>
<!-- Node6 -->
<g id="Node000006" class="node">
<title>Node6</title>
<g id="a_Node000006"><a xlink:href="eel__lice_8h.html#a478f5cc386ab3ba7cc2de9b5c30d4837" target="_top" xlink:title=" ">
<polygon fill="#fff0f0" stroke="red" points="540.62,-417.25 451.12,-417.25 451.12,-398 540.62,-398 540.62,-417.25"/>
<text xml:space="preserve" text-anchor="middle" x="495.87" y="-403.75" font-family="Helvetica,sans-Serif" font-size="10.00">LICE__DrawText</text>
</a>
</g>
</g>
<!-- Node3&#45;&gt;Node6 -->
<g id="edge5_Node000003_Node000006" class="edge">
<title>Node3&#45;&gt;Node6</title>
<g id="a_edge5_Node000003_Node000006"><a xlink:title=" ">
<path fill="none" stroke="#63b8ff" d="M343.09,-361.69C364.57,-369.78 395.89,-381.16 423.75,-389.62 429.46,-391.36 435.47,-393.06 441.47,-394.69"/>
<polygon fill="#63b8ff" stroke="#63b8ff" points="440.17,-397.97 450.73,-397.13 441.96,-391.2 440.17,-397.97"/>
</a>
</g>
</g>
<!-- Node7 -->
<g id="Node000007" class="node">
<title>Node7</title>
<g id="a_Node000007"><a xlink:href="eel__lice_8h.html#aed772757cc25ccd6f591c4f94220b3fb" target="_top" xlink:title=" ">
<polygon fill="#fff0f0" stroke="red" points="548.12,-380.25 443.62,-380.25 443.62,-361 548.12,-361 548.12,-380.25"/>
<text xml:space="preserve" text-anchor="middle" x="495.87" y="-366.75" font-family="Helvetica,sans-Serif" font-size="10.00">LICE__SetTextColor</text>
</a>
</g>
</g>
<!-- Node3&#45;&gt;Node7 -->
<g id="edge6_Node000003_Node000007" class="edge">
<title>Node3&#45;&gt;Node7</title>
<g id="a_edge6_Node000003_Node000007"><a xlink:title=" ">
<path fill="none" stroke="#63b8ff" d="M368.93,-357.17C388.65,-359.28 411.34,-361.7 431.97,-363.91"/>
<polygon fill="#63b8ff" stroke="#63b8ff" points="431.37,-367.36 441.69,-364.94 432.11,-360.4 431.37,-367.36"/>
</a>
</g>
</g>
<!-- Node9 -->
<g id="Node000009" class="node">
<title>Node9</title>
<g id="a_Node000009"><a xlink:href="eel__lice_8h.html#a095391c7730a85096072305510dbebd4" target="_top" xlink:title=" ">
<polygon fill="#fff0f0" stroke="red" points="568,-343.25 423.75,-343.25 423.75,-324 568,-324 568,-343.25"/>
<text xml:space="preserve" text-anchor="middle" x="495.87" y="-329.75" font-family="Helvetica,sans-Serif" font-size="10.00">LICE__SetTextCombineMode</text>
</a>
</g>
</g>
<!-- Node3&#45;&gt;Node9 -->
<g id="edge7_Node000003_Node000009" class="edge">
<title>Node3&#45;&gt;Node9</title>
<g id="a_edge7_Node000003_Node000009"><a xlink:title=" ">
<path fill="none" stroke="#63b8ff" d="M368.93,-346.37C382.49,-345 397.45,-343.48 412.19,-341.99"/>
<polygon fill="#63b8ff" stroke="#63b8ff" points="412.28,-345.5 421.88,-341.01 411.57,-338.54 412.28,-345.5"/>
</a>
</g>
</g>
<!-- Node11 -->
<g id="Node000011" class="node">
<title>Node11</title>
<g id="a_Node000011"><a xlink:href="lice__text_8cpp.html#ac2f94c6f6baefa234161b7504c227200" target="_top" xlink:title=" ">
<polygon fill="#fff0f0" stroke="red" points="538.75,-306.25 453,-306.25 453,-287 538.75,-287 538.75,-306.25"/>
<text xml:space="preserve" text-anchor="middle" x="495.87" y="-292.75" font-family="Helvetica,sans-Serif" font-size="10.00">LICE_DrawChar</text>
</a>
</g>
</g>
<!-- Node3&#45;&gt;Node11 -->
<g id="edge8_Node000003_Node000011" class="edge">
<title>Node3&#45;&gt;Node11</title>
<g id="a_edge8_Node000003_Node000011"><a xlink:title=" ">
<path fill="none" stroke="#63b8ff" d="M343.99,-341.55C365.45,-333.71 396.31,-322.83 423.75,-314.62 429.55,-312.89 435.64,-311.18 441.72,-309.54"/>
<polygon fill="#63b8ff" stroke="#63b8ff" points="442.34,-313 451.12,-307.08 440.56,-306.23 442.34,-313"/>
</a>
</g>
</g>
<!-- Node11&#45;&gt;Node16 -->
<g id="edge9_Node000011_Node000016" class="edge">
<title>Node11&#45;&gt;Node16</title>
<g id="a_edge9_Node000011_Node000016"><a xlink:title=" ">
<path fill="none" stroke="#63b8ff" d="M539.06,-288.63C549.43,-285.08 559.88,-279.97 568,-272.62 593.98,-249.12 607.17,-209.3 613.14,-184.84"/>
<polygon fill="#63b8ff" stroke="#63b8ff" points="616.55,-185.62 615.31,-175.1 609.72,-184.1 616.55,-185.62"/>
</a>
</g>
</g>
<!-- Node19&#45;&gt;Node16 -->
<g id="edge12_Node000019_Node000016" class="edge">
<title>Node19&#45;&gt;Node16</title>
<g id="a_edge12_Node000019_Node000016"><a xlink:title=" ">
<path fill="none" stroke="#63b8ff" d="M561.02,-172.51C572.28,-170.74 583.35,-168.99 592.67,-167.52"/>
<polygon fill="#63b8ff" stroke="#63b8ff" points="592.94,-171.02 602.27,-166.01 591.85,-164.11 592.94,-171.02"/>
</a>
</g>
</g>
<!-- Node20&#45;&gt;Node16 -->
<g id="edge14_Node000020_Node000016" class="edge">
<title>Node20&#45;&gt;Node16</title>
<g id="a_edge14_Node000020_Node000016"><a xlink:title=" ">
<path fill="none" stroke="#63b8ff" d="M382.92,-148.79C448.76,-152.96 546.52,-159.14 592.19,-162.03"/>
<polygon fill="#63b8ff" stroke="#63b8ff" points="591.91,-165.52 602.11,-162.66 592.35,-158.53 591.91,-165.52"/>
</a>
</g>
</g>
<!-- Node21&#45;&gt;Node16 -->
<g id="edge16_Node000021_Node000016" class="edge">
<title>Node21&#45;&gt;Node16</title>
<g id="a_edge16_Node000021_Node000016"><a xlink:title=" ">
<path fill="none" stroke="#63b8ff" d="M378.09,-110.51C429.22,-118.49 503.89,-131.44 568,-147.62 576.22,-149.7 585.07,-152.41 592.98,-155.01"/>
<polygon fill="#63b8ff" stroke="#63b8ff" points="591.67,-158.26 602.27,-158.16 593.92,-151.63 591.67,-158.26"/>
</a>
</g>
</g>
<!-- Node22&#45;&gt;Node16 -->
<g id="edge19_Node000022_Node000016" class="edge">
<title>Node22&#45;&gt;Node16</title>
<g id="a_edge19_Node000022_Node000016"><a xlink:title=" ">
<path fill="none" stroke="#63b8ff" d="M377.64,-58.4C430.67,-65.52 508.32,-81.1 568,-114.62 581.55,-122.23 593.95,-134.57 602.94,-144.96"/>
<polygon fill="#63b8ff" stroke="#63b8ff" points="600.16,-147.08 609.21,-152.59 605.57,-142.64 600.16,-147.08"/>
</a>
</g>
</g>
<!-- Node24 -->
<g id="Node000024" class="node">
<title>Node24</title>
<g id="a_Node000024"><a xlink:href="wdlutf8_8h.html#ae4c04b41b69c399cf5a8cfcf86056d68" target="_top" xlink:title=" ">
<polygon fill="white" stroke="#666666" points="546.25,-19.25 445.5,-19.25 445.5,0 546.25,0 546.25,-19.25"/>
<text xml:space="preserve" text-anchor="middle" x="495.87" y="-5.75" font-family="Helvetica,sans-Serif" font-size="10.00">wdl_utf8_makechar</text>
</a>
</g>
</g>
<!-- Node23&#45;&gt;Node24 -->
<g id="edge21_Node000023_Node000024" class="edge">
<title>Node23&#45;&gt;Node24</title>
<g id="a_edge21_Node000023_Node000024"><a xlink:title=" ">
<path fill="none" stroke="#63b8ff" d="M369.41,-9.62C389.64,-9.62 412.93,-9.62 433.9,-9.62"/>
<polygon fill="#63b8ff" stroke="#63b8ff" points="433.77,-13.13 443.77,-9.63 433.77,-6.13 433.77,-13.13"/>
</a>
</g>
</g>
</g>
</svg>

<g id="navigator" transform="translate(0 0)" fill="#404254">
  <rect fill="#f2f5e9" fill-opacity="0.5" stroke="#606060" stroke-width=".5" x="0" y="0" width="60" height="60"/>
  <use id="zoomplus" xlink:href="#zoomPlus" x="17" y="9" onmousedown="handleZoom(evt,'in')"/>
  <use id="zoomminus" xlink:href="#zoomMin" x="42" y="9" onmousedown="handleZoom(evt,'out')"/>
  <use id="reset" xlink:href="#resetDef" x="30" y="36" onmousedown="handleReset()"/>
   <use id="arrowup" xlink:href="#arrowUp" x="0" y="0" onmousedown="handlePan(0,-1)"/>
  <use id="arrowright" xlink:href="#arrowRight" x="0" y="0" onmousedown="handlePan(1,0)"/>
  <use id="arrowdown" xlink:href="#arrowDown" x="0" y="0" onmousedown="handlePan(0,1)"/>
  <use id="arrowleft" xlink:href="#arrowLeft" x="0" y="0" onmousedown="handlePan(-1,0)"/>
</g>
<svg viewBox="0 0 15 15" width="100%" height="30px" preserveAspectRatio="xMaxYMin meet">
 <g id="arrow_out" transform="scale(0.3 0.3)">
  <a xlink:href="eel__lice_8h_a6cbc24e14bc34ca9bfbd077327184e55_cgraph_org.svg" target="_base">
   <rect id="button" ry="5" rx="5" y="6" x="6" height="38" width="38"
        fill="#f2f5e9" fill-opacity="0.5" stroke="#606060" stroke-width="1.0"/>
   <path id="arrow"
     d="M 11.500037,31.436501 C 11.940474,20.09759 22.043105,11.32322 32.158766,21.979434 L 37.068811,17.246167 C 37.068811,17.246167 37.088388,32 37.088388,32 L 22.160133,31.978069 C 22.160133,31.978069 26.997745,27.140456 26.997745,27.140456 C 18.528582,18.264221 13.291696,25.230495 11.500037,31.436501 z"
     style="fill:#404040;"/>
  </a>
 </g>
</svg>

<style type='text/css'>
<![CDATA[
[data-mouse-over-selected='false'] { opacity: 0.7; }
[data-mouse-over-selected='true']  { opacity: 1.0; }
]]>
</style>
<script type="application/ecmascript"><![CDATA[
document.addEventListener('DOMContentLoaded', (event) => {
  highlightEdges();
  highlightAdjacentNodes();
});
]]></script>
</svg>
