<?xml version="1.0" encoding="UTF-8" standalone="no"?>
<!DOCTYPE svg PUBLIC "-//W3C//DTD SVG 1.1//EN"
 "http://www.w3.org/Graphics/SVG/1.1/DTD/svg11.dtd">
<!-- Generated by graphviz version 14.0.2 (0)
 -->
<!-- Title: plugins/FreeBoy/game&#45;music&#45;emu/gme/Effects_Buffer.h Pages: 1 -->
<svg width="276pt" height="128pt"
 viewBox="0.00 0.00 276.00 128.00" xmlns="http://www.w3.org/2000/svg" xmlns:xlink="http://www.w3.org/1999/xlink">
<g id="graph0" class="graph" transform="scale(1 1) rotate(0) translate(4 123.5)">
<title>plugins/FreeBoy/game&#45;music&#45;emu/gme/Effects_Buffer.h</title>
<!-- Node1 -->
<g id="Node000001" class="node">
<title>Node1</title>
<g id="a_Node000001"><a xlink:title=" ">
<polygon fill="#999999" stroke="#666666" points="192.75,-119.5 71,-119.5 71,-77.75 192.75,-77.75 192.75,-119.5"/>
<text xml:space="preserve" text-anchor="start" x="79" y="-106" font-family="Helvetica,sans-Serif" font-size="10.00">plugins/FreeBoy/game</text>
<text xml:space="preserve" text-anchor="start" x="79" y="-94.75" font-family="Helvetica,sans-Serif" font-size="10.00">&#45;music&#45;emu/gme/Effects</text>
<text xml:space="preserve" text-anchor="middle" x="131.88" y="-83.5" font-family="Helvetica,sans-Serif" font-size="10.00">_Buffer.h</text>
</a>
</g>
</g>
<!-- Node2 -->
<g id="Node000002" class="node">
<title>Node2</title>
<g id="a_Node000002"><a xlink:href="Effects__Buffer_8cpp.html" target="_top" xlink:title=" ">
<polygon fill="white" stroke="#666666" points="121.75,-41.75 0,-41.75 0,0 121.75,0 121.75,-41.75"/>
<text xml:space="preserve" text-anchor="start" x="8" y="-28.25" font-family="Helvetica,sans-Serif" font-size="10.00">plugins/FreeBoy/game</text>
<text xml:space="preserve" text-anchor="start" x="8" y="-17" font-family="Helvetica,sans-Serif" font-size="10.00">&#45;music&#45;emu/gme/Effects</text>
<text xml:space="preserve" text-anchor="middle" x="60.88" y="-5.75" font-family="Helvetica,sans-Serif" font-size="10.00">_Buffer.cpp</text>
</a>
</g>
</g>
<!-- Node1&#45;&gt;Node2 -->
<g id="edge1_Node000001_Node000002" class="edge">
<title>Node1&#45;&gt;Node2</title>
<g id="a_edge1_Node000001_Node000002"><a xlink:title=" ">
<path fill="none" stroke="#63b8ff" d="M105.1,-69.06C96.74,-60.14 87.68,-50.47 79.95,-42.23"/>
<polygon fill="#63b8ff" stroke="#63b8ff" points="102.42,-71.32 111.81,-76.22 107.53,-66.53 102.42,-71.32"/>
</a>
</g>
</g>
<!-- Node3 -->
<g id="Node000003" class="node">
<title>Node3</title>
<g id="a_Node000003"><a xlink:href="gme_8cpp.html" target="_top" xlink:title=" ">
<polygon fill="white" stroke="#666666" points="268.12,-36.12 139.62,-36.12 139.62,-5.62 268.12,-5.62 268.12,-36.12"/>
<text xml:space="preserve" text-anchor="start" x="147.62" y="-22.62" font-family="Helvetica,sans-Serif" font-size="10.00">plugins/FreeBoy/game</text>
<text xml:space="preserve" text-anchor="middle" x="203.88" y="-11.38" font-family="Helvetica,sans-Serif" font-size="10.00">&#45;music&#45;emu/gme/gme.cpp</text>
</a>
</g>
</g>
<!-- Node1&#45;&gt;Node3 -->
<g id="edge2_Node000001_Node000003" class="edge">
<title>Node1&#45;&gt;Node3</title>
<g id="a_edge2_Node000001_Node000003"><a xlink:title=" ">
<path fill="none" stroke="#63b8ff" d="M159.03,-69.05C169.68,-57.85 181.43,-45.49 190.23,-36.23"/>
<polygon fill="#63b8ff" stroke="#63b8ff" points="156.56,-66.57 152.21,-76.23 161.64,-71.39 156.56,-66.57"/>
</a>
</g>
</g>
</g>
</svg>
