<?xml version="1.0" encoding="UTF-8" standalone="no"?>
<!DOCTYPE svg PUBLIC "-//W3C//DTD SVG 1.1//EN"
 "http://www.w3.org/Graphics/SVG/1.1/DTD/svg11.dtd">
<!-- Generated by graphviz version 14.0.2 (0)
 -->
<!-- Title: include/EffectRackView.h Pages: 1 -->
<!--zoomable 304 -->

<svg id="main" version="1.1" xmlns="http://www.w3.org/2000/svg" xmlns:xlink="http://www.w3.org/1999/xlink" xml:space="preserve" onload="init(evt)">

<style type="text/css"><![CDATA[
.node, .edge {opacity: 0.7;}
.node.selected, .edge.selected {opacity: 1;}
.edge:hover path { stroke: red; }
.edge:hover polygon { stroke: red; fill: red; }
]]></style>

<defs>
  <circle id="rim" cx="0" cy="0" r="7"/>
  <circle id="rim2" cx="0" cy="0" r="3.5"/>
  <g id="zoomPlus">
    <use xlink:href="#rim" fill="#404040"><set attributeName="fill" to="#808080" begin="zoomplus.mouseover" end="zoomplus.mouseout"/></use>
    <path d="M-4,0h8M0,-4v8" fill="none" stroke="white" stroke-width="1.5" pointer-events="none"/>
  </g>
  <g id="zoomMin">
    <use xlink:href="#rim" fill="#404040"><set attributeName="fill" to="#808080" begin="zoomminus.mouseover" end="zoomminus.mouseout"/></use>
    <path d="M-4,0h8" fill="none" stroke="white" stroke-width="1.5" pointer-events="none"/>
  </g>
  <g id="arrowUp" transform="translate(30 24)">
    <use xlink:href="#rim"/>
    <path pointer-events="none" fill="none" stroke="white" stroke-width="1.5" d="M0,-3.0v7 M-2.5,-0.5L0,-3.0L2.5,-0.5"/>
  </g>
  <g id="arrowRight" transform="rotate(90) translate(36 -43)">
    <use xlink:href="#rim"/>
    <path pointer-events="none" fill="none" stroke="white" stroke-width="1.5" d="M0,-3.0v7 M-2.5,-0.5L0,-3.0L2.5,-0.5"/>
  </g>
  <g id="arrowDown" transform="rotate(180) translate(-30 -48)">
    <use xlink:href="#rim"/>
    <path pointer-events="none" fill="none" stroke="white" stroke-width="1.5" d="M0,-3.0v7 M-2.5,-0.5L0,-3.0L2.5,-0.5"/>
  </g>
  <g id="arrowLeft" transform="rotate(270) translate(-36 17)">
    <use xlink:href="#rim"/>
    <path pointer-events="none" fill="none" stroke="white" stroke-width="1.5" d="M0,-3.0v7 M-2.5,-0.5L0,-3.0L2.5,-0.5"/>
  </g>
  <g id="resetDef">
    <use xlink:href="#rim2" fill="#404040"><set attributeName="fill" to="#808080" begin="reset.mouseover" end="reset.mouseout"/></use>
  </g>
</defs>
<script type="application/ecmascript">
var viewWidth = 631;
var viewHeight = 304;
var sectionId = 'dynsection-0';
</script>
<script type="application/ecmascript" xlink:href="svg.min.js"/>
<svg id="graph" class="graph">
<g id="viewport">
<title>include/EffectRackView.h</title>
<!-- Node1 -->
<g id="Node000001" class="node">
<title>Node1</title>
<g id="a_Node000001"><a xlink:title=" ">
<polygon fill="#999999" stroke="#666666" points="527.7,-295.5 401.45,-295.5 401.45,-276.25 527.7,-276.25 527.7,-295.5"/>
<text xml:space="preserve" text-anchor="middle" x="464.57" y="-282" font-family="Helvetica,sans-Serif" font-size="10.00">include/EffectRackView.h</text>
</a>
</g>
</g>
<!-- Node2 -->
<g id="Node000002" class="node">
<title>Node2</title>
<g id="a_Node000002"><a xlink:title=" ">
<polygon fill="#e0e0e0" stroke="#999999" points="410.32,-240.25 356.82,-240.25 356.82,-221 410.32,-221 410.32,-240.25"/>
<text xml:space="preserve" text-anchor="middle" x="383.57" y="-226.75" font-family="Helvetica,sans-Serif" font-size="10.00">QWidget</text>
</a>
</g>
</g>
<!-- Node1&#45;&gt;Node2 -->
<g id="edge1_Node000001_Node000002" class="edge">
<title>Node1&#45;&gt;Node2</title>
<g id="a_edge1_Node000001_Node000002"><a xlink:title=" ">
<path fill="none" stroke="#63b8ff" d="M450.83,-275.84C438.85,-267.96 421.2,-256.36 406.99,-247.02"/>
<polygon fill="#63b8ff" stroke="#63b8ff" points="408.93,-244.1 398.65,-241.53 405.08,-249.95 408.93,-244.1"/>
</a>
</g>
</g>
<!-- Node3 -->
<g id="Node000003" class="node">
<title>Node3</title>
<g id="a_Node000003"><a xlink:href="EffectChain_8h.html" target="_top" xlink:title=" ">
<polygon fill="white" stroke="#666666" points="501.07,-240.25 428.07,-240.25 428.07,-221 501.07,-221 501.07,-240.25"/>
<text xml:space="preserve" text-anchor="middle" x="464.57" y="-226.75" font-family="Helvetica,sans-Serif" font-size="10.00">EffectChain.h</text>
</a>
</g>
</g>
<!-- Node1&#45;&gt;Node3 -->
<g id="edge2_Node000001_Node000003" class="edge">
<title>Node1&#45;&gt;Node3</title>
<g id="a_edge2_Node000001_Node000003"><a xlink:title=" ">
<path fill="none" stroke="#63b8ff" d="M464.57,-276.08C464.57,-269.57 464.57,-260.42 464.57,-252.12"/>
<polygon fill="#63b8ff" stroke="#63b8ff" points="468.07,-252.12 464.57,-242.12 461.07,-252.12 468.07,-252.12"/>
</a>
</g>
</g>
<!-- Node24 -->
<g id="Node000024" class="node">
<title>Node24</title>
<g id="a_Node000024"><a xlink:href="ModelView_8h.html" target="_top" xlink:title=" ">
<polygon fill="white" stroke="#666666" points="590.32,-240.25 518.82,-240.25 518.82,-221 590.32,-221 590.32,-240.25"/>
<text xml:space="preserve" text-anchor="middle" x="554.57" y="-226.75" font-family="Helvetica,sans-Serif" font-size="10.00">ModelView.h</text>
</a>
</g>
</g>
<!-- Node1&#45;&gt;Node24 -->
<g id="edge22_Node000001_Node000024" class="edge">
<title>Node1&#45;&gt;Node24</title>
<g id="a_edge22_Node000001_Node000024"><a xlink:title=" ">
<path fill="none" stroke="#63b8ff" d="M479.84,-275.84C493.42,-267.81 513.53,-255.91 529.47,-246.48"/>
<polygon fill="#63b8ff" stroke="#63b8ff" points="531.11,-249.58 537.93,-241.47 527.54,-243.55 531.11,-249.58"/>
</a>
</g>
</g>
<!-- Node4 -->
<g id="Node000004" class="node">
<title>Node4</title>
<g id="a_Node000004"><a xlink:href="Model_8h.html" target="_top" xlink:title=" ">
<polygon fill="white" stroke="#666666" points="542.45,-129.75 492.7,-129.75 492.7,-110.5 542.45,-110.5 542.45,-129.75"/>
<text xml:space="preserve" text-anchor="middle" x="517.57" y="-116.25" font-family="Helvetica,sans-Serif" font-size="10.00">Model.h</text>
</a>
</g>
</g>
<!-- Node3&#45;&gt;Node4 -->
<g id="edge3_Node000003_Node000004" class="edge">
<title>Node3&#45;&gt;Node4</title>
<g id="a_edge3_Node000003_Node000004"><a xlink:title=" ">
<path fill="none" stroke="#63b8ff" d="M468.91,-220.75C477.45,-203.26 496.62,-164.02 508.19,-140.34"/>
<polygon fill="#63b8ff" stroke="#63b8ff" points="511.27,-142.01 512.51,-131.49 504.98,-138.94 511.27,-142.01"/>
</a>
</g>
</g>
<!-- Node8 -->
<g id="Node000008" class="node">
<title>Node8</title>
<g id="a_Node000008"><a xlink:href="SerializingObject_8h.html" target="_top" xlink:title=" ">
<polygon fill="white" stroke="#666666" points="451.7,-74.5 355.45,-74.5 355.45,-55.25 451.7,-55.25 451.7,-74.5"/>
<text xml:space="preserve" text-anchor="middle" x="403.57" y="-61" font-family="Helvetica,sans-Serif" font-size="10.00">SerializingObject.h</text>
</a>
</g>
</g>
<!-- Node3&#45;&gt;Node8 -->
<g id="edge7_Node000003_Node000008" class="edge">
<title>Node3&#45;&gt;Node8</title>
<g id="a_edge7_Node000003_Node000008"><a xlink:title=" ">
<path fill="none" stroke="#63b8ff" d="M464.89,-220.72C465.26,-200.17 464.14,-148.28 445.57,-110.5 440.34,-99.84 431.68,-89.99 423.59,-82.28"/>
<polygon fill="#63b8ff" stroke="#63b8ff" points="426.13,-79.85 416.34,-75.81 421.47,-85.08 426.13,-79.85"/>
</a>
</g>
</g>
<!-- Node9 -->
<g id="Node000009" class="node">
<title>Node9</title>
<g id="a_Node000009"><a xlink:href="AutomatableModel_8h.html" target="_top" xlink:title=" ">
<polygon fill="white" stroke="#666666" points="295.82,-185 191.32,-185 191.32,-165.75 295.82,-165.75 295.82,-185"/>
<text xml:space="preserve" text-anchor="middle" x="243.57" y="-171.5" font-family="Helvetica,sans-Serif" font-size="10.00">AutomatableModel.h</text>
</a>
</g>
</g>
<!-- Node3&#45;&gt;Node9 -->
<g id="edge10_Node000003_Node000009" class="edge">
<title>Node3&#45;&gt;Node9</title>
<g id="a_edge10_Node000003_Node000009"><a xlink:title=" ">
<path fill="none" stroke="#63b8ff" d="M427.58,-220.71C390.52,-211.78 333.26,-197.98 292.47,-188.16"/>
<polygon fill="#63b8ff" stroke="#63b8ff" points="293.44,-184.79 282.9,-185.85 291.8,-191.6 293.44,-184.79"/>
</a>
</g>
</g>
<!-- Node5 -->
<g id="Node000005" class="node">
<title>Node5</title>
<g id="a_Node000005"><a xlink:title=" ">
<polygon fill="#e0e0e0" stroke="#999999" points="472.07,-19.25 423.07,-19.25 423.07,0 472.07,0 472.07,-19.25"/>
<text xml:space="preserve" text-anchor="middle" x="447.57" y="-5.75" font-family="Helvetica,sans-Serif" font-size="10.00">QString</text>
</a>
</g>
</g>
<!-- Node4&#45;&gt;Node5 -->
<g id="edge4_Node000004_Node000005" class="edge">
<title>Node4&#45;&gt;Node5</title>
<g id="a_edge4_Node000004_Node000005"><a xlink:title=" ">
<path fill="none" stroke="#63b8ff" d="M515.57,-110.29C512.38,-97.42 505.26,-73.09 493.57,-55.25 486.7,-44.75 476.95,-34.84 468.19,-27.04"/>
<polygon fill="#63b8ff" stroke="#63b8ff" points="470.63,-24.52 460.75,-20.71 466.1,-29.85 470.63,-24.52"/>
</a>
</g>
</g>
<!-- Node6 -->
<g id="Node000006" class="node">
<title>Node6</title>
<g id="a_Node000006"><a xlink:title=" ">
<polygon fill="#e0e0e0" stroke="#999999" points="597.57,-74.5 545.57,-74.5 545.57,-55.25 597.57,-55.25 597.57,-74.5"/>
<text xml:space="preserve" text-anchor="middle" x="571.57" y="-61" font-family="Helvetica,sans-Serif" font-size="10.00">QObject</text>
</a>
</g>
</g>
<!-- Node4&#45;&gt;Node6 -->
<g id="edge5_Node000004_Node000006" class="edge">
<title>Node4&#45;&gt;Node6</title>
<g id="a_edge5_Node000004_Node000006"><a xlink:title=" ">
<path fill="none" stroke="#63b8ff" d="M526.49,-110.33C534.03,-102.9 545.04,-92.04 554.3,-82.91"/>
<polygon fill="#63b8ff" stroke="#63b8ff" points="556.72,-85.44 561.39,-75.92 551.81,-80.45 556.72,-85.44"/>
</a>
</g>
</g>
<!-- Node7 -->
<g id="Node000007" class="node">
<title>Node7</title>
<g id="a_Node000007"><a xlink:title=" ">
<polygon fill="#e0e0e0" stroke="#999999" points="398.07,-19.25 319.07,-19.25 319.07,0 398.07,0 398.07,-19.25"/>
<text xml:space="preserve" text-anchor="middle" x="358.57" y="-5.75" font-family="Helvetica,sans-Serif" font-size="10.00">lmms_export.h</text>
</a>
</g>
</g>
<!-- Node4&#45;&gt;Node7 -->
<g id="edge6_Node000004_Node000007" class="edge">
<title>Node4&#45;&gt;Node7</title>
<g id="a_edge6_Node000004_Node000007"><a xlink:title=" ">
<path fill="none" stroke="#63b8ff" d="M511.53,-110.18C502.05,-96.71 482.47,-71.13 460.57,-55.25 441.91,-41.72 418.5,-31.11 398.82,-23.64"/>
<polygon fill="#63b8ff" stroke="#63b8ff" points="400.04,-20.36 389.44,-20.22 397.64,-26.94 400.04,-20.36"/>
</a>
</g>
</g>
<!-- Node8&#45;&gt;Node5 -->
<g id="edge8_Node000008_Node000005" class="edge">
<title>Node8&#45;&gt;Node5</title>
<g id="a_edge8_Node000008_Node000005"><a xlink:title=" ">
<path fill="none" stroke="#63b8ff" d="M410.84,-55.08C416.85,-47.8 425.59,-37.23 433.03,-28.23"/>
<polygon fill="#63b8ff" stroke="#63b8ff" points="435.52,-30.71 439.19,-20.78 430.12,-26.26 435.52,-30.71"/>
</a>
</g>
</g>
<!-- Node8&#45;&gt;Node7 -->
<g id="edge9_Node000008_Node000007" class="edge">
<title>Node8&#45;&gt;Node7</title>
<g id="a_edge9_Node000008_Node000007"><a xlink:title=" ">
<path fill="none" stroke="#63b8ff" d="M396.14,-55.08C389.99,-47.8 381.06,-37.23 373.45,-28.23"/>
<polygon fill="#63b8ff" stroke="#63b8ff" points="376.27,-26.14 367.14,-20.77 370.93,-30.66 376.27,-26.14"/>
</a>
</g>
</g>
<!-- Node9&#45;&gt;Node4 -->
<g id="edge16_Node000009_Node000004" class="edge">
<title>Node9&#45;&gt;Node4</title>
<g id="a_edge16_Node000009_Node000004"><a xlink:title=" ">
<path fill="none" stroke="#63b8ff" d="M290.37,-165.28C344.42,-154.78 432.2,-137.72 481.33,-128.17"/>
<polygon fill="#63b8ff" stroke="#63b8ff" points="481.73,-131.66 490.88,-126.31 480.39,-124.79 481.73,-131.66"/>
</a>
</g>
</g>
<!-- Node10 -->
<g id="Node000010" class="node">
<title>Node10</title>
<g id="a_Node000010"><a xlink:title=" ">
<polygon fill="#e0e0e0" stroke="#999999" points="58.07,-129.75 15.07,-129.75 15.07,-110.5 58.07,-110.5 58.07,-129.75"/>
<text xml:space="preserve" text-anchor="middle" x="36.57" y="-116.25" font-family="Helvetica,sans-Serif" font-size="10.00">cmath</text>
</a>
</g>
</g>
<!-- Node9&#45;&gt;Node10 -->
<g id="edge11_Node000009_Node000010" class="edge">
<title>Node9&#45;&gt;Node10</title>
<g id="a_edge11_Node000009_Node000010"><a xlink:title=" ">
<path fill="none" stroke="#63b8ff" d="M206.77,-165.3C173.41,-157.03 122.64,-144.28 69.57,-130.23"/>
<polygon fill="#63b8ff" stroke="#63b8ff" points="70.6,-126.89 60.04,-127.7 68.8,-133.65 70.6,-126.89"/>
</a>
</g>
</g>
<!-- Node11 -->
<g id="Node000011" class="node">
<title>Node11</title>
<g id="a_Node000011"><a xlink:title=" ">
<polygon fill="#e0e0e0" stroke="#999999" points="118.7,-129.75 76.45,-129.75 76.45,-110.5 118.7,-110.5 118.7,-129.75"/>
<text xml:space="preserve" text-anchor="middle" x="97.57" y="-116.25" font-family="Helvetica,sans-Serif" font-size="10.00">QMap</text>
</a>
</g>
</g>
<!-- Node9&#45;&gt;Node11 -->
<g id="edge12_Node000009_Node000011" class="edge">
<title>Node9&#45;&gt;Node11</title>
<g id="a_edge12_Node000009_Node000011"><a xlink:title=" ">
<path fill="none" stroke="#63b8ff" d="M218.81,-165.34C194.32,-156.41 156.72,-142.7 129.9,-132.91"/>
<polygon fill="#63b8ff" stroke="#63b8ff" points="131.14,-129.64 120.55,-129.5 128.74,-136.22 131.14,-129.64"/>
</a>
</g>
</g>
<!-- Node12 -->
<g id="Node000012" class="node">
<title>Node12</title>
<g id="a_Node000012"><a xlink:title=" ">
<polygon fill="#e0e0e0" stroke="#999999" points="186.45,-129.75 136.7,-129.75 136.7,-110.5 186.45,-110.5 186.45,-129.75"/>
<text xml:space="preserve" text-anchor="middle" x="161.57" y="-116.25" font-family="Helvetica,sans-Serif" font-size="10.00">QMutex</text>
</a>
</g>
</g>
<!-- Node9&#45;&gt;Node12 -->
<g id="edge13_Node000009_Node000012" class="edge">
<title>Node9&#45;&gt;Node12</title>
<g id="a_edge13_Node000009_Node000012"><a xlink:title=" ">
<path fill="none" stroke="#63b8ff" d="M229.66,-165.34C217.41,-157.39 199.32,-145.64 184.86,-136.25"/>
<polygon fill="#63b8ff" stroke="#63b8ff" points="187.12,-133.54 176.82,-131.03 183.3,-139.41 187.12,-133.54"/>
</a>
</g>
</g>
<!-- Node13 -->
<g id="Node000013" class="node">
<title>Node13</title>
<g id="a_Node000013"><a xlink:href="JournallingObject_8h.html" target="_top" xlink:title=" ">
<polygon fill="#fff0f0" stroke="red" points="436.82,-129.75 338.32,-129.75 338.32,-110.5 436.82,-110.5 436.82,-129.75"/>
<text xml:space="preserve" text-anchor="middle" x="387.57" y="-116.25" font-family="Helvetica,sans-Serif" font-size="10.00">JournallingObject.h</text>
</a>
</g>
</g>
<!-- Node9&#45;&gt;Node13 -->
<g id="edge14_Node000009_Node000013" class="edge">
<title>Node9&#45;&gt;Node13</title>
<g id="a_edge14_Node000009_Node000013"><a xlink:title=" ">
<path fill="none" stroke="#63b8ff" d="M268,-165.34C291.17,-156.77 326.24,-143.81 352.41,-134.13"/>
<polygon fill="#63b8ff" stroke="#63b8ff" points="353.44,-137.48 361.61,-130.73 351.01,-130.91 353.44,-137.48"/>
</a>
</g>
</g>
<!-- Node18 -->
<g id="Node000018" class="node">
<title>Node18</title>
<g id="a_Node000018"><a xlink:href="TimePos_8h.html" target="_top" xlink:title=" ">
<polygon fill="#fff0f0" stroke="red" points="337.82,-74.5 275.32,-74.5 275.32,-55.25 337.82,-55.25 337.82,-74.5"/>
<text xml:space="preserve" text-anchor="middle" x="306.57" y="-61" font-family="Helvetica,sans-Serif" font-size="10.00">TimePos.h</text>
</a>
</g>
</g>
<!-- Node9&#45;&gt;Node18 -->
<g id="edge17_Node000009_Node000018" class="edge">
<title>Node9&#45;&gt;Node18</title>
<g id="a_edge17_Node000009_Node000018"><a xlink:title=" ">
<path fill="none" stroke="#63b8ff" d="M257.04,-165.35C268,-157.29 283,-144.51 291.57,-129.75 299.38,-116.31 303.13,-99.06 304.92,-85.87"/>
<polygon fill="#63b8ff" stroke="#63b8ff" points="308.37,-86.55 305.96,-76.24 301.41,-85.81 308.37,-86.55"/>
</a>
</g>
</g>
<!-- Node21 -->
<g id="Node000021" class="node">
<title>Node21</title>
<g id="a_Node000021"><a xlink:href="ValueBuffer_8h.html" target="_top" xlink:title=" ">
<polygon fill="#fff0f0" stroke="red" points="140.45,-74.5 66.7,-74.5 66.7,-55.25 140.45,-55.25 140.45,-74.5"/>
<text xml:space="preserve" text-anchor="middle" x="103.57" y="-61" font-family="Helvetica,sans-Serif" font-size="10.00">ValueBuffer.h</text>
</a>
</g>
</g>
<!-- Node9&#45;&gt;Node21 -->
<g id="edge19_Node000009_Node000021" class="edge">
<title>Node9&#45;&gt;Node21</title>
<g id="a_edge19_Node000009_Node000021"><a xlink:title=" ">
<path fill="none" stroke="#63b8ff" d="M190.98,-172.1C128.16,-168.15 28.66,-157.57 5.57,-129.75 -13.62,-106.62 22.13,-88.89 55.71,-78.04"/>
<polygon fill="#63b8ff" stroke="#63b8ff" points="56.47,-81.47 65.01,-75.21 54.43,-74.77 56.47,-81.47"/>
</a>
</g>
</g>
<!-- Node23 -->
<g id="Node000023" class="node">
<title>Node23</title>
<g id="a_Node000023"><a xlink:href="ModelVisitor_8h.html" target="_top" xlink:title=" ">
<polygon fill="white" stroke="#666666" points="282.32,-129.75 204.82,-129.75 204.82,-110.5 282.32,-110.5 282.32,-129.75"/>
<text xml:space="preserve" text-anchor="middle" x="243.57" y="-116.25" font-family="Helvetica,sans-Serif" font-size="10.00">ModelVisitor.h</text>
</a>
</g>
</g>
<!-- Node9&#45;&gt;Node23 -->
<g id="edge21_Node000009_Node000023" class="edge">
<title>Node9&#45;&gt;Node23</title>
<g id="a_edge21_Node000009_Node000023"><a xlink:title=" ">
<path fill="none" stroke="#63b8ff" d="M243.57,-165.58C243.57,-159.07 243.57,-149.92 243.57,-141.62"/>
<polygon fill="#63b8ff" stroke="#63b8ff" points="247.07,-141.62 243.57,-131.62 240.07,-141.62 247.07,-141.62"/>
</a>
</g>
</g>
<!-- Node13&#45;&gt;Node8 -->
<g id="edge15_Node000013_Node000008" class="edge">
<title>Node13&#45;&gt;Node8</title>
<g id="a_edge15_Node000013_Node000008"><a xlink:title=" ">
<path fill="none" stroke="#63b8ff" d="M390.22,-110.33C392.22,-103.67 395.05,-94.24 397.59,-85.78"/>
<polygon fill="#63b8ff" stroke="#63b8ff" points="400.91,-86.89 400.44,-76.31 394.21,-84.88 400.91,-86.89"/>
</a>
</g>
</g>
<!-- Node18&#45;&gt;Node7 -->
<g id="edge18_Node000018_Node000007" class="edge">
<title>Node18&#45;&gt;Node7</title>
<g id="a_edge18_Node000018_Node000007"><a xlink:title=" ">
<path fill="none" stroke="#63b8ff" d="M315.16,-55.08C322.42,-47.65 333.03,-36.79 341.94,-27.66"/>
<polygon fill="#63b8ff" stroke="#63b8ff" points="344.26,-30.29 348.74,-20.69 339.25,-25.4 344.26,-30.29"/>
</a>
</g>
</g>
<!-- Node21&#45;&gt;Node7 -->
<g id="edge20_Node000021_Node000007" class="edge">
<title>Node21&#45;&gt;Node7</title>
<g id="a_edge20_Node000021_Node000007"><a xlink:title=" ">
<path fill="none" stroke="#63b8ff" d="M140.93,-56.07C184.95,-46.88 258.32,-31.56 307.56,-21.28"/>
<polygon fill="#63b8ff" stroke="#63b8ff" points="308.04,-24.75 317.12,-19.28 306.61,-17.9 308.04,-24.75"/>
</a>
</g>
</g>
<!-- Node24&#45;&gt;Node4 -->
<g id="edge24_Node000024_Node000004" class="edge">
<title>Node24&#45;&gt;Node4</title>
<g id="a_edge24_Node000024_Node000004"><a xlink:title=" ">
<path fill="none" stroke="#63b8ff" d="M551.55,-220.75C545.64,-203.42 532.44,-164.73 524.35,-140.99"/>
<polygon fill="#63b8ff" stroke="#63b8ff" points="527.67,-139.89 521.13,-131.56 521.05,-142.15 527.67,-139.89"/>
</a>
</g>
</g>
<!-- Node25 -->
<g id="Node000025" class="node">
<title>Node25</title>
<g id="a_Node000025"><a xlink:title=" ">
<polygon fill="#e0e0e0" stroke="#999999" points="622.7,-185 568.45,-185 568.45,-165.75 622.7,-165.75 622.7,-185"/>
<text xml:space="preserve" text-anchor="middle" x="595.57" y="-171.5" font-family="Helvetica,sans-Serif" font-size="10.00">QPointer</text>
</a>
</g>
</g>
<!-- Node24&#45;&gt;Node25 -->
<g id="edge23_Node000024_Node000025" class="edge">
<title>Node24&#45;&gt;Node25</title>
<g id="a_edge23_Node000024_Node000025"><a xlink:title=" ">
<path fill="none" stroke="#63b8ff" d="M561.35,-220.83C566.89,-213.63 574.92,-203.21 581.8,-194.26"/>
<polygon fill="#63b8ff" stroke="#63b8ff" points="584.41,-196.62 587.73,-186.56 578.86,-192.35 584.41,-196.62"/>
</a>
</g>
</g>
</g>
</svg>

<g id="navigator" transform="translate(0 0)" fill="#404254">
  <rect fill="#f2f5e9" fill-opacity="0.5" stroke="#606060" stroke-width=".5" x="0" y="0" width="60" height="60"/>
  <use id="zoomplus" xlink:href="#zoomPlus" x="17" y="9" onmousedown="handleZoom(evt,'in')"/>
  <use id="zoomminus" xlink:href="#zoomMin" x="42" y="9" onmousedown="handleZoom(evt,'out')"/>
  <use id="reset" xlink:href="#resetDef" x="30" y="36" onmousedown="handleReset()"/>
   <use id="arrowup" xlink:href="#arrowUp" x="0" y="0" onmousedown="handlePan(0,-1)"/>
  <use id="arrowright" xlink:href="#arrowRight" x="0" y="0" onmousedown="handlePan(1,0)"/>
  <use id="arrowdown" xlink:href="#arrowDown" x="0" y="0" onmousedown="handlePan(0,1)"/>
  <use id="arrowleft" xlink:href="#arrowLeft" x="0" y="0" onmousedown="handlePan(-1,0)"/>
</g>
<svg viewBox="0 0 15 15" width="100%" height="30px" preserveAspectRatio="xMaxYMin meet">
 <g id="arrow_out" transform="scale(0.3 0.3)">
  <a xlink:href="EffectRackView_8h__incl_org.svg" target="_base">
   <rect id="button" ry="5" rx="5" y="6" x="6" height="38" width="38"
        fill="#f2f5e9" fill-opacity="0.5" stroke="#606060" stroke-width="1.0"/>
   <path id="arrow"
     d="M 11.500037,31.436501 C 11.940474,20.09759 22.043105,11.32322 32.158766,21.979434 L 37.068811,17.246167 C 37.068811,17.246167 37.088388,32 37.088388,32 L 22.160133,31.978069 C 22.160133,31.978069 26.997745,27.140456 26.997745,27.140456 C 18.528582,18.264221 13.291696,25.230495 11.500037,31.436501 z"
     style="fill:#404040;"/>
  </a>
 </g>
</svg>

<style type='text/css'>
<![CDATA[
[data-mouse-over-selected='false'] { opacity: 0.7; }
[data-mouse-over-selected='true']  { opacity: 1.0; }
]]>
</style>
<script type="application/ecmascript"><![CDATA[
document.addEventListener('DOMContentLoaded', (event) => {
  highlightEdges();
  highlightAdjacentNodes();
});
]]></script>
</svg>
