<?xml version="1.0" encoding="UTF-8" standalone="no"?>
<!DOCTYPE svg PUBLIC "-//W3C//DTD SVG 1.1//EN"
 "http://www.w3.org/Graphics/SVG/1.1/DTD/svg11.dtd">
<!-- Generated by graphviz version 14.0.2 (0)
 -->
<!-- Title: plugins/CarlaBase/carla/source/modules/hylia/link/asio/executor_work_guard.hpp Pages: 1 -->
<svg width="1961pt" height="404pt"
 viewBox="0.00 0.00 1961.00 404.00" xmlns="http://www.w3.org/2000/svg" xmlns:xlink="http://www.w3.org/1999/xlink">
<g id="graph0" class="graph" transform="scale(1 1) rotate(0) translate(4 399.75)">
<title>plugins/CarlaBase/carla/source/modules/hylia/link/asio/executor_work_guard.hpp</title>
<!-- Node1 -->
<g id="Node000001" class="node">
<title>Node1</title>
<g id="a_Node000001"><a xlink:title=" ">
<polygon fill="#999999" stroke="#666666" points="344.75,-395.75 223.75,-395.75 223.75,-342.75 344.75,-342.75 344.75,-395.75"/>
<text xml:space="preserve" text-anchor="start" x="231.75" y="-382.25" font-family="Helvetica,sans-Serif" font-size="10.00">plugins/CarlaBase/carla</text>
<text xml:space="preserve" text-anchor="start" x="231.75" y="-371" font-family="Helvetica,sans-Serif" font-size="10.00">/source/modules/hylia</text>
<text xml:space="preserve" text-anchor="start" x="231.75" y="-359.75" font-family="Helvetica,sans-Serif" font-size="10.00">/link/asio/executor_work</text>
<text xml:space="preserve" text-anchor="middle" x="284.25" y="-348.5" font-family="Helvetica,sans-Serif" font-size="10.00">_guard.hpp</text>
</a>
</g>
</g>
<!-- Node2 -->
<g id="Node000002" class="node">
<title>Node2</title>
<g id="a_Node000002"><a xlink:href="config_8hpp.html" target="_top" xlink:title=" ">
<polygon fill="white" stroke="#666666" points="150.62,-80.12 43.88,-80.12 43.88,-60.88 150.62,-60.88 150.62,-80.12"/>
<text xml:space="preserve" text-anchor="middle" x="97.25" y="-66.62" font-family="Helvetica,sans-Serif" font-size="10.00">asio/detail/config.hpp</text>
</a>
</g>
</g>
<!-- Node1&#45;&gt;Node2 -->
<g id="edge1_Node000001_Node000002" class="edge">
<title>Node1&#45;&gt;Node2</title>
<g id="a_edge1_Node000001_Node000002"><a xlink:title=" ">
<path fill="none" stroke="#63b8ff" d="M223.36,-360.73C156.73,-348.7 59.25,-318.22 59.25,-242.88 59.25,-242.88 59.25,-242.88 59.25,-185.62 59.25,-150.77 75.4,-112.85 86.65,-90.68"/>
<polygon fill="#63b8ff" stroke="#63b8ff" points="89.68,-92.44 91.26,-81.96 83.49,-89.16 89.68,-92.44"/>
</a>
</g>
</g>
<!-- Node5 -->
<g id="Node000005" class="node">
<title>Node5</title>
<g id="a_Node000005"><a xlink:href="associated__executor_8hpp.html" target="_top" xlink:title=" ">
<polygon fill="white" stroke="#666666" points="406.38,-306.75 262.12,-306.75 262.12,-287.5 406.38,-287.5 406.38,-306.75"/>
<text xml:space="preserve" text-anchor="middle" x="334.25" y="-293.25" font-family="Helvetica,sans-Serif" font-size="10.00">asio/associated_executor.hpp</text>
</a>
</g>
</g>
<!-- Node1&#45;&gt;Node5 -->
<g id="edge4_Node000001_Node000005" class="edge">
<title>Node1&#45;&gt;Node5</title>
<g id="a_edge4_Node000001_Node000005"><a xlink:title=" ">
<path fill="none" stroke="#63b8ff" d="M302.58,-342.54C308.78,-333.85 315.56,-324.34 321.25,-316.36"/>
<polygon fill="#63b8ff" stroke="#63b8ff" points="323.92,-318.64 326.87,-308.47 318.22,-314.58 323.92,-318.64"/>
</a>
</g>
</g>
<!-- Node6 -->
<g id="Node000006" class="node">
<title>Node6</title>
<g id="a_Node000006"><a xlink:href="type__traits_8hpp.html" target="_top" xlink:title=" ">
<polygon fill="white" stroke="#666666" points="926.38,-141 800.12,-141 800.12,-121.75 926.38,-121.75 926.38,-141"/>
<text xml:space="preserve" text-anchor="middle" x="863.25" y="-127.5" font-family="Helvetica,sans-Serif" font-size="10.00">asio/detail/type_traits.hpp</text>
</a>
</g>
</g>
<!-- Node1&#45;&gt;Node6 -->
<g id="edge41_Node000001_Node000006" class="edge">
<title>Node1&#45;&gt;Node6</title>
<g id="a_edge41_Node000001_Node000006"><a xlink:title=" ">
<path fill="none" stroke="#63b8ff" d="M344.98,-366.05C417.93,-361.57 542.77,-347.98 641.25,-306.75 730.85,-269.24 814.78,-185.28 848.11,-149.29"/>
<polygon fill="#63b8ff" stroke="#63b8ff" points="850.29,-152.09 854.45,-142.35 845.12,-147.37 850.29,-152.09"/>
</a>
</g>
</g>
<!-- Node21 -->
<g id="Node000021" class="node">
<title>Node21</title>
<g id="a_Node000021"><a xlink:href="is__executor_8hpp.html" target="_top" xlink:title=" ">
<polygon fill="white" stroke="#666666" points="286.5,-251.5 182,-251.5 182,-232.25 286.5,-232.25 286.5,-251.5"/>
<text xml:space="preserve" text-anchor="middle" x="234.25" y="-238" font-family="Helvetica,sans-Serif" font-size="10.00">asio/is_executor.hpp</text>
</a>
</g>
</g>
<!-- Node1&#45;&gt;Node21 -->
<g id="edge42_Node000001_Node000021" class="edge">
<title>Node1&#45;&gt;Node21</title>
<g id="a_edge42_Node000001_Node000021"><a xlink:title=" ">
<path fill="none" stroke="#63b8ff" d="M269.93,-342.39C264.28,-331.57 258.02,-318.75 253.25,-306.75 247.49,-292.25 242.53,-275.29 239.12,-262.5"/>
<polygon fill="#63b8ff" stroke="#63b8ff" points="242.6,-262 236.73,-253.19 235.82,-263.74 242.6,-262"/>
</a>
</g>
</g>
<!-- Node23 -->
<g id="Node000023" class="node">
<title>Node23</title>
<g id="a_Node000023"><a xlink:href="push__options_8hpp.html" target="_top" xlink:title=" ">
<polygon fill="white" stroke="#666666" points="732.75,-141 593.75,-141 593.75,-121.75 732.75,-121.75 732.75,-141"/>
<text xml:space="preserve" text-anchor="middle" x="663.25" y="-127.5" font-family="Helvetica,sans-Serif" font-size="10.00">asio/detail/push_options.hpp</text>
</a>
</g>
</g>
<!-- Node1&#45;&gt;Node23 -->
<g id="edge43_Node000001_Node000023" class="edge">
<title>Node1&#45;&gt;Node23</title>
<g id="a_edge43_Node000001_Node000023"><a xlink:title=" ">
<path fill="none" stroke="#63b8ff" d="M345.1,-367.46C448.94,-362.3 656.29,-334.33 730.25,-196.25 741.26,-175.7 718.29,-157.94 696.31,-146.39"/>
<polygon fill="#63b8ff" stroke="#63b8ff" points="697.96,-143.31 687.44,-142.06 694.88,-149.59 697.96,-143.31"/>
</a>
</g>
</g>
<!-- Node24 -->
<g id="Node000024" class="node">
<title>Node24</title>
<g id="a_Node000024"><a xlink:href="pop__options_8hpp.html" target="_top" xlink:title=" ">
<polygon fill="white" stroke="#666666" points="340.12,-141 206.38,-141 206.38,-121.75 340.12,-121.75 340.12,-141"/>
<text xml:space="preserve" text-anchor="middle" x="273.25" y="-127.5" font-family="Helvetica,sans-Serif" font-size="10.00">asio/detail/pop_options.hpp</text>
</a>
</g>
</g>
<!-- Node1&#45;&gt;Node24 -->
<g id="edge44_Node000001_Node000024" class="edge">
<title>Node1&#45;&gt;Node24</title>
<g id="a_edge44_Node000001_Node000024"><a xlink:title=" ">
<path fill="none" stroke="#63b8ff" d="M247.95,-342.46C221.68,-321.39 188.24,-289.03 173.25,-251.5 155.56,-207.22 209.85,-167.35 245.23,-146.88"/>
<polygon fill="#63b8ff" stroke="#63b8ff" points="246.72,-150.05 253.75,-142.13 243.31,-143.94 246.72,-150.05"/>
</a>
</g>
</g>
<!-- Node3 -->
<g id="Node000003" class="node">
<title>Node3</title>
<g id="a_Node000003"><a xlink:title=" ">
<polygon fill="#e0e0e0" stroke="#999999" points="86.5,-19.25 0,-19.25 0,0 86.5,0 86.5,-19.25"/>
<text xml:space="preserve" text-anchor="middle" x="43.25" y="-5.75" font-family="Helvetica,sans-Serif" font-size="10.00">boost/config.hpp</text>
</a>
</g>
</g>
<!-- Node2&#45;&gt;Node3 -->
<g id="edge2_Node000002_Node000003" class="edge">
<title>Node2&#45;&gt;Node3</title>
<g id="a_edge2_Node000002_Node000003"><a xlink:title=" ">
<path fill="none" stroke="#63b8ff" d="M89.05,-60.56C81.12,-51.91 68.9,-38.59 59.07,-27.87"/>
<polygon fill="#63b8ff" stroke="#63b8ff" points="61.89,-25.77 52.55,-20.77 56.73,-30.5 61.89,-25.77"/>
</a>
</g>
</g>
<!-- Node4 -->
<g id="Node000004" class="node">
<title>Node4</title>
<g id="a_Node000004"><a xlink:title=" ">
<polygon fill="#e0e0e0" stroke="#999999" points="197.5,-19.25 105,-19.25 105,0 197.5,0 197.5,-19.25"/>
<text xml:space="preserve" text-anchor="middle" x="151.25" y="-5.75" font-family="Helvetica,sans-Serif" font-size="10.00">boost/version.hpp</text>
</a>
</g>
</g>
<!-- Node2&#45;&gt;Node4 -->
<g id="edge3_Node000002_Node000004" class="edge">
<title>Node2&#45;&gt;Node4</title>
<g id="a_edge3_Node000002_Node000004"><a xlink:title=" ">
<path fill="none" stroke="#63b8ff" d="M105.45,-60.56C113.38,-51.91 125.6,-38.59 135.43,-27.87"/>
<polygon fill="#63b8ff" stroke="#63b8ff" points="137.77,-30.5 141.95,-20.77 132.61,-25.77 137.77,-30.5"/>
</a>
</g>
</g>
<!-- Node5&#45;&gt;Node2 -->
<g id="edge5_Node000005_Node000002" class="edge">
<title>Node5&#45;&gt;Node2</title>
<g id="a_edge5_Node000005_Node000002"><a xlink:title=" ">
<path fill="none" stroke="#63b8ff" d="M261.9,-290C231.52,-284.16 197.66,-272.94 173.25,-251.5 124.47,-208.64 106.14,-129.23 100.01,-91.9"/>
<polygon fill="#63b8ff" stroke="#63b8ff" points="103.48,-91.45 98.54,-82.07 96.55,-92.48 103.48,-91.45"/>
</a>
</g>
</g>
<!-- Node5&#45;&gt;Node6 -->
<g id="edge6_Node000005_Node000006" class="edge">
<title>Node5&#45;&gt;Node6</title>
<g id="a_edge6_Node000005_Node000006"><a xlink:title=" ">
<path fill="none" stroke="#63b8ff" d="M406.81,-293.2C471.36,-288.88 567.61,-278.14 647.25,-251.5 723.68,-225.93 804.46,-173.58 841.9,-147.64"/>
<polygon fill="#63b8ff" stroke="#63b8ff" points="843.44,-150.83 849.62,-142.23 839.42,-145.1 843.44,-150.83"/>
</a>
</g>
</g>
<!-- Node5&#45;&gt;Node21 -->
<g id="edge22_Node000005_Node000021" class="edge">
<title>Node5&#45;&gt;Node21</title>
<g id="a_edge22_Node000005_Node000021"><a xlink:title=" ">
<path fill="none" stroke="#63b8ff" d="M317.29,-287.09C301.99,-278.94 279.22,-266.82 261.39,-257.33"/>
<polygon fill="#63b8ff" stroke="#63b8ff" points="263.1,-254.27 252.63,-252.66 259.81,-260.45 263.1,-254.27"/>
</a>
</g>
</g>
<!-- Node5&#45;&gt;Node23 -->
<g id="edge39_Node000005_Node000023" class="edge">
<title>Node5&#45;&gt;Node23</title>
<g id="a_edge39_Node000005_Node000023"><a xlink:title=" ">
<path fill="none" stroke="#63b8ff" d="M406.72,-288.38C507.24,-275.87 680.47,-247.31 714.25,-196.25 725.85,-178.71 706.94,-160.08 688.95,-147.49"/>
<polygon fill="#63b8ff" stroke="#63b8ff" points="691.34,-144.88 681.06,-142.33 687.51,-150.73 691.34,-144.88"/>
</a>
</g>
</g>
<!-- Node5&#45;&gt;Node24 -->
<g id="edge40_Node000005_Node000024" class="edge">
<title>Node5&#45;&gt;Node24</title>
<g id="a_edge40_Node000005_Node000024"><a xlink:title=" ">
<path fill="none" stroke="#63b8ff" d="M328.96,-287.08C319.14,-269.93 298.02,-231.26 286.25,-196.25 281.43,-181.93 278.11,-165.17 276.02,-152.42"/>
<polygon fill="#63b8ff" stroke="#63b8ff" points="279.52,-152.1 274.57,-142.73 272.59,-153.14 279.52,-152.1"/>
</a>
</g>
</g>
<!-- Node25 -->
<g id="Node000025" class="node">
<title>Node25</title>
<g id="a_Node000025"><a xlink:href="system__executor_8hpp.html" target="_top" xlink:title=" ">
<polygon fill="white" stroke="#666666" points="575.5,-251.5 447,-251.5 447,-232.25 575.5,-232.25 575.5,-251.5"/>
<text xml:space="preserve" text-anchor="middle" x="511.25" y="-238" font-family="Helvetica,sans-Serif" font-size="10.00">asio/system_executor.hpp</text>
</a>
</g>
</g>
<!-- Node5&#45;&gt;Node25 -->
<g id="edge31_Node000005_Node000025" class="edge">
<title>Node5&#45;&gt;Node25</title>
<g id="a_edge31_Node000005_Node000025"><a xlink:title=" ">
<path fill="none" stroke="#63b8ff" d="M364.28,-287.09C393.39,-278.33 437.79,-264.98 470.17,-255.23"/>
<polygon fill="#63b8ff" stroke="#63b8ff" points="471.06,-258.62 479.63,-252.39 469.04,-251.92 471.06,-258.62"/>
</a>
</g>
</g>
<!-- Node6&#45;&gt;Node2 -->
<g id="edge7_Node000006_Node000002" class="edge">
<title>Node6&#45;&gt;Node2</title>
<g id="a_edge7_Node000006_Node000002"><a xlink:title=" ">
<path fill="none" stroke="#63b8ff" d="M799.83,-125.74C781.28,-124.42 760.95,-122.99 742.25,-121.75 483.66,-104.54 416.8,-122.46 160.25,-85.75 154.91,-84.99 149.35,-84.01 143.85,-82.92"/>
<polygon fill="#63b8ff" stroke="#63b8ff" points="144.7,-79.52 134.2,-80.88 143.26,-86.37 144.7,-79.52"/>
</a>
</g>
</g>
<!-- Node7 -->
<g id="Node000007" class="node">
<title>Node7</title>
<g id="a_Node000007"><a xlink:title=" ">
<polygon fill="#e0e0e0" stroke="#999999" points="1779.62,-85.75 1672.88,-85.75 1672.88,-55.25 1779.62,-55.25 1779.62,-85.75"/>
<text xml:space="preserve" text-anchor="start" x="1680.88" y="-72.25" font-family="Helvetica,sans-Serif" font-size="10.00">boost/type_traits/add</text>
<text xml:space="preserve" text-anchor="middle" x="1726.25" y="-61" font-family="Helvetica,sans-Serif" font-size="10.00">_const.hpp</text>
</a>
</g>
</g>
<!-- Node6&#45;&gt;Node7 -->
<g id="edge8_Node000006_Node000007" class="edge">
<title>Node6&#45;&gt;Node7</title>
<g id="a_edge8_Node000006_Node000007"><a xlink:title=" ">
<path fill="none" stroke="#63b8ff" d="M926.86,-130.42C1060.96,-129.73 1382.54,-123.99 1661.26,-85.85"/>
<polygon fill="#63b8ff" stroke="#63b8ff" points="1661.48,-89.35 1670.9,-84.51 1660.52,-82.42 1661.48,-89.35"/>
</a>
</g>
</g>
<!-- Node8 -->
<g id="Node000008" class="node">
<title>Node8</title>
<g id="a_Node000008"><a xlink:title=" ">
<polygon fill="#e0e0e0" stroke="#999999" points="1953,-80.12 1797.5,-80.12 1797.5,-60.88 1953,-60.88 1953,-80.12"/>
<text xml:space="preserve" text-anchor="middle" x="1875.25" y="-66.62" font-family="Helvetica,sans-Serif" font-size="10.00">boost/type_traits/conditional.hpp</text>
</a>
</g>
</g>
<!-- Node6&#45;&gt;Node8 -->
<g id="edge9_Node000006_Node000008" class="edge">
<title>Node6&#45;&gt;Node8</title>
<g id="a_edge9_Node000006_Node000008"><a xlink:title=" ">
<path fill="none" stroke="#63b8ff" d="M926.81,-129.8C1077.04,-127.91 1465.68,-119.84 1788.25,-85.75 1796.72,-84.86 1805.61,-83.68 1814.35,-82.38"/>
<polygon fill="#63b8ff" stroke="#63b8ff" points="1814.85,-85.84 1824.2,-80.85 1813.78,-78.93 1814.85,-85.84"/>
</a>
</g>
</g>
<!-- Node9 -->
<g id="Node000009" class="node">
<title>Node9</title>
<g id="a_Node000009"><a xlink:title=" ">
<polygon fill="#e0e0e0" stroke="#999999" points="303.5,-80.12 169,-80.12 169,-60.88 303.5,-60.88 303.5,-80.12"/>
<text xml:space="preserve" text-anchor="middle" x="236.25" y="-66.62" font-family="Helvetica,sans-Serif" font-size="10.00">boost/type_traits/decay.hpp</text>
</a>
</g>
</g>
<!-- Node6&#45;&gt;Node9 -->
<g id="edge10_Node000006_Node000009" class="edge">
<title>Node6&#45;&gt;Node9</title>
<g id="a_edge10_Node000006_Node000009"><a xlink:title=" ">
<path fill="none" stroke="#63b8ff" d="M799.86,-125.6C665.48,-115.42 360.41,-92.01 313.25,-85.75 306.43,-84.85 299.31,-83.74 292.25,-82.55"/>
<polygon fill="#63b8ff" stroke="#63b8ff" points="292.86,-79.11 282.41,-80.83 291.65,-86 292.86,-79.11"/>
</a>
</g>
</g>
<!-- Node10 -->
<g id="Node000010" class="node">
<title>Node10</title>
<g id="a_Node000010"><a xlink:title=" ">
<polygon fill="#e0e0e0" stroke="#999999" points="444.5,-85.75 322,-85.75 322,-55.25 444.5,-55.25 444.5,-85.75"/>
<text xml:space="preserve" text-anchor="start" x="330" y="-72.25" font-family="Helvetica,sans-Serif" font-size="10.00">boost/type_traits/integral</text>
<text xml:space="preserve" text-anchor="middle" x="383.25" y="-61" font-family="Helvetica,sans-Serif" font-size="10.00">_constant.hpp</text>
</a>
</g>
</g>
<!-- Node6&#45;&gt;Node10 -->
<g id="edge11_Node000006_Node000010" class="edge">
<title>Node6&#45;&gt;Node10</title>
<g id="a_edge11_Node000006_Node000010"><a xlink:title=" ">
<path fill="none" stroke="#63b8ff" d="M799.96,-125.24C721.67,-118.49 584.09,-105.35 455.94,-85.91"/>
<polygon fill="#63b8ff" stroke="#63b8ff" points="456.67,-82.48 446.26,-84.43 455.61,-89.4 456.67,-82.48"/>
</a>
</g>
</g>
<!-- Node11 -->
<g id="Node000011" class="node">
<title>Node11</title>
<g id="a_Node000011"><a xlink:title=" ">
<polygon fill="#e0e0e0" stroke="#999999" points="561.5,-85.75 463,-85.75 463,-55.25 561.5,-55.25 561.5,-85.75"/>
<text xml:space="preserve" text-anchor="start" x="471" y="-72.25" font-family="Helvetica,sans-Serif" font-size="10.00">boost/type_traits/is</text>
<text xml:space="preserve" text-anchor="middle" x="512.25" y="-61" font-family="Helvetica,sans-Serif" font-size="10.00">_base_of.hpp</text>
</a>
</g>
</g>
<!-- Node6&#45;&gt;Node11 -->
<g id="edge12_Node000006_Node000011" class="edge">
<title>Node6&#45;&gt;Node11</title>
<g id="a_edge12_Node000006_Node000011"><a xlink:title=" ">
<path fill="none" stroke="#63b8ff" d="M799.75,-122.26C742.91,-114.64 657.07,-102.24 572.82,-85.95"/>
<polygon fill="#63b8ff" stroke="#63b8ff" points="573.73,-82.56 563.24,-84.07 572.38,-89.43 573.73,-82.56"/>
</a>
</g>
</g>
<!-- Node12 -->
<g id="Node000012" class="node">
<title>Node12</title>
<g id="a_Node000012"><a xlink:title=" ">
<polygon fill="#e0e0e0" stroke="#999999" points="678.5,-85.75 580,-85.75 580,-55.25 678.5,-55.25 678.5,-85.75"/>
<text xml:space="preserve" text-anchor="start" x="588" y="-72.25" font-family="Helvetica,sans-Serif" font-size="10.00">boost/type_traits/is</text>
<text xml:space="preserve" text-anchor="middle" x="629.25" y="-61" font-family="Helvetica,sans-Serif" font-size="10.00">_class.hpp</text>
</a>
</g>
</g>
<!-- Node6&#45;&gt;Node12 -->
<g id="edge13_Node000006_Node000012" class="edge">
<title>Node6&#45;&gt;Node12</title>
<g id="a_edge13_Node000006_Node000012"><a xlink:title=" ">
<path fill="none" stroke="#63b8ff" d="M827.2,-121.3C790.64,-112.11 733.4,-97.7 689.85,-86.75"/>
<polygon fill="#63b8ff" stroke="#63b8ff" points="690.83,-83.39 680.28,-84.34 689.13,-90.17 690.83,-83.39"/>
</a>
</g>
</g>
<!-- Node13 -->
<g id="Node000013" class="node">
<title>Node13</title>
<g id="a_Node000013"><a xlink:title=" ">
<polygon fill="#e0e0e0" stroke="#999999" points="795.5,-85.75 697,-85.75 697,-55.25 795.5,-55.25 795.5,-85.75"/>
<text xml:space="preserve" text-anchor="start" x="705" y="-72.25" font-family="Helvetica,sans-Serif" font-size="10.00">boost/type_traits/is</text>
<text xml:space="preserve" text-anchor="middle" x="746.25" y="-61" font-family="Helvetica,sans-Serif" font-size="10.00">_const.hpp</text>
</a>
</g>
</g>
<!-- Node6&#45;&gt;Node13 -->
<g id="edge14_Node000006_Node000013" class="edge">
<title>Node6&#45;&gt;Node13</title>
<g id="a_edge14_Node000006_Node000013"><a xlink:title=" ">
<path fill="none" stroke="#63b8ff" d="M845.23,-121.3C829.4,-113.34 805.81,-101.47 785.63,-91.32"/>
<polygon fill="#63b8ff" stroke="#63b8ff" points="787.31,-88.24 776.8,-86.88 784.16,-94.5 787.31,-88.24"/>
</a>
</g>
</g>
<!-- Node14 -->
<g id="Node000014" class="node">
<title>Node14</title>
<g id="a_Node000014"><a xlink:title=" ">
<polygon fill="#e0e0e0" stroke="#999999" points="912.5,-85.75 814,-85.75 814,-55.25 912.5,-55.25 912.5,-85.75"/>
<text xml:space="preserve" text-anchor="start" x="822" y="-72.25" font-family="Helvetica,sans-Serif" font-size="10.00">boost/type_traits/is</text>
<text xml:space="preserve" text-anchor="middle" x="863.25" y="-61" font-family="Helvetica,sans-Serif" font-size="10.00">_convertible.hpp</text>
</a>
</g>
</g>
<!-- Node6&#45;&gt;Node14 -->
<g id="edge15_Node000006_Node000014" class="edge">
<title>Node6&#45;&gt;Node14</title>
<g id="a_edge15_Node000006_Node000014"><a xlink:title=" ">
<path fill="none" stroke="#63b8ff" d="M863.25,-121.43C863.25,-114.98 863.25,-105.91 863.25,-97.26"/>
<polygon fill="#63b8ff" stroke="#63b8ff" points="866.75,-97.55 863.25,-87.55 859.75,-97.55 866.75,-97.55"/>
</a>
</g>
</g>
<!-- Node15 -->
<g id="Node000015" class="node">
<title>Node15</title>
<g id="a_Node000015"><a xlink:title=" ">
<polygon fill="#e0e0e0" stroke="#999999" points="1029.5,-85.75 931,-85.75 931,-55.25 1029.5,-55.25 1029.5,-85.75"/>
<text xml:space="preserve" text-anchor="start" x="939" y="-72.25" font-family="Helvetica,sans-Serif" font-size="10.00">boost/type_traits/is</text>
<text xml:space="preserve" text-anchor="middle" x="980.25" y="-61" font-family="Helvetica,sans-Serif" font-size="10.00">_function.hpp</text>
</a>
</g>
</g>
<!-- Node6&#45;&gt;Node15 -->
<g id="edge16_Node000006_Node000015" class="edge">
<title>Node6&#45;&gt;Node15</title>
<g id="a_edge16_Node000006_Node000015"><a xlink:title=" ">
<path fill="none" stroke="#63b8ff" d="M881.27,-121.3C897.1,-113.34 920.69,-101.47 940.87,-91.32"/>
<polygon fill="#63b8ff" stroke="#63b8ff" points="942.34,-94.5 949.7,-86.88 939.19,-88.24 942.34,-94.5"/>
</a>
</g>
</g>
<!-- Node16 -->
<g id="Node000016" class="node">
<title>Node16</title>
<g id="a_Node000016"><a xlink:title=" ">
<polygon fill="#e0e0e0" stroke="#999999" points="1146.5,-85.75 1048,-85.75 1048,-55.25 1146.5,-55.25 1146.5,-85.75"/>
<text xml:space="preserve" text-anchor="start" x="1056" y="-72.25" font-family="Helvetica,sans-Serif" font-size="10.00">boost/type_traits/is</text>
<text xml:space="preserve" text-anchor="middle" x="1097.25" y="-61" font-family="Helvetica,sans-Serif" font-size="10.00">_same.hpp</text>
</a>
</g>
</g>
<!-- Node6&#45;&gt;Node16 -->
<g id="edge17_Node000006_Node000016" class="edge">
<title>Node6&#45;&gt;Node16</title>
<g id="a_edge17_Node000006_Node000016"><a xlink:title=" ">
<path fill="none" stroke="#63b8ff" d="M899.3,-121.3C935.86,-112.11 993.1,-97.7 1036.65,-86.75"/>
<polygon fill="#63b8ff" stroke="#63b8ff" points="1037.37,-90.17 1046.22,-84.34 1035.67,-83.39 1037.37,-90.17"/>
</a>
</g>
</g>
<!-- Node17 -->
<g id="Node000017" class="node">
<title>Node17</title>
<g id="a_Node000017"><a xlink:title=" ">
<polygon fill="#e0e0e0" stroke="#999999" points="1287.88,-85.75 1164.62,-85.75 1164.62,-55.25 1287.88,-55.25 1287.88,-85.75"/>
<text xml:space="preserve" text-anchor="start" x="1172.62" y="-72.25" font-family="Helvetica,sans-Serif" font-size="10.00">boost/type_traits/remove</text>
<text xml:space="preserve" text-anchor="middle" x="1226.25" y="-61" font-family="Helvetica,sans-Serif" font-size="10.00">_pointer.hpp</text>
</a>
</g>
</g>
<!-- Node6&#45;&gt;Node17 -->
<g id="edge18_Node000006_Node000017" class="edge">
<title>Node6&#45;&gt;Node17</title>
<g id="a_edge18_Node000006_Node000017"><a xlink:title=" ">
<path fill="none" stroke="#63b8ff" d="M926.62,-121.56C983.31,-113.47 1068.97,-100.77 1153.02,-86.09"/>
<polygon fill="#63b8ff" stroke="#63b8ff" points="1153.59,-89.55 1162.84,-84.37 1152.38,-82.65 1153.59,-89.55"/>
</a>
</g>
</g>
<!-- Node18 -->
<g id="Node000018" class="node">
<title>Node18</title>
<g id="a_Node000018"><a xlink:title=" ">
<polygon fill="#e0e0e0" stroke="#999999" points="1428.88,-85.75 1305.62,-85.75 1305.62,-55.25 1428.88,-55.25 1428.88,-85.75"/>
<text xml:space="preserve" text-anchor="start" x="1313.62" y="-72.25" font-family="Helvetica,sans-Serif" font-size="10.00">boost/type_traits/remove</text>
<text xml:space="preserve" text-anchor="middle" x="1367.25" y="-61" font-family="Helvetica,sans-Serif" font-size="10.00">_reference.hpp</text>
</a>
</g>
</g>
<!-- Node6&#45;&gt;Node18 -->
<g id="edge19_Node000006_Node000018" class="edge">
<title>Node6&#45;&gt;Node18</title>
<g id="a_edge19_Node000006_Node000018"><a xlink:title=" ">
<path fill="none" stroke="#63b8ff" d="M926.75,-125.81C1009.29,-119.45 1158.11,-106.48 1294.43,-86.09"/>
<polygon fill="#63b8ff" stroke="#63b8ff" points="1294.61,-89.6 1303.98,-84.65 1293.56,-82.68 1294.61,-89.6"/>
</a>
</g>
</g>
<!-- Node19 -->
<g id="Node000019" class="node">
<title>Node19</title>
<g id="a_Node000019"><a xlink:title=" ">
<polygon fill="#e0e0e0" stroke="#999999" points="1543.75,-85.75 1446.75,-85.75 1446.75,-55.25 1543.75,-55.25 1543.75,-85.75"/>
<text xml:space="preserve" text-anchor="start" x="1454.75" y="-72.25" font-family="Helvetica,sans-Serif" font-size="10.00">boost/utility/enable</text>
<text xml:space="preserve" text-anchor="middle" x="1495.25" y="-61" font-family="Helvetica,sans-Serif" font-size="10.00">_if.hpp</text>
</a>
</g>
</g>
<!-- Node6&#45;&gt;Node19 -->
<g id="edge20_Node000006_Node000019" class="edge">
<title>Node6&#45;&gt;Node19</title>
<g id="a_edge20_Node000006_Node000019"><a xlink:title=" ">
<path fill="none" stroke="#63b8ff" d="M926.62,-128.92C1030.92,-125.77 1245.35,-116.11 1435.23,-86.07"/>
<polygon fill="#63b8ff" stroke="#63b8ff" points="1435.73,-89.53 1445.05,-84.49 1434.62,-82.62 1435.73,-89.53"/>
</a>
</g>
</g>
<!-- Node20 -->
<g id="Node000020" class="node">
<title>Node20</title>
<g id="a_Node000020"><a xlink:title=" ">
<polygon fill="#e0e0e0" stroke="#999999" points="1654.5,-85.75 1562,-85.75 1562,-55.25 1654.5,-55.25 1654.5,-85.75"/>
<text xml:space="preserve" text-anchor="start" x="1570" y="-72.25" font-family="Helvetica,sans-Serif" font-size="10.00">boost/utility/result</text>
<text xml:space="preserve" text-anchor="middle" x="1608.25" y="-61" font-family="Helvetica,sans-Serif" font-size="10.00">_of.hpp</text>
</a>
</g>
</g>
<!-- Node6&#45;&gt;Node20 -->
<g id="edge21_Node000006_Node000020" class="edge">
<title>Node6&#45;&gt;Node20</title>
<g id="a_edge21_Node000006_Node000020"><a xlink:title=" ">
<path fill="none" stroke="#63b8ff" d="M926.48,-130.26C1046.57,-129.19 1315.91,-122.65 1550.43,-86"/>
<polygon fill="#63b8ff" stroke="#63b8ff" points="1550.75,-89.5 1560.07,-84.47 1549.65,-82.58 1550.75,-89.5"/>
</a>
</g>
</g>
<!-- Node21&#45;&gt;Node2 -->
<g id="edge23_Node000021_Node000002" class="edge">
<title>Node21&#45;&gt;Node2</title>
<g id="a_edge23_Node000021_Node000002"><a xlink:title=" ">
<path fill="none" stroke="#63b8ff" d="M226.88,-231.77C205.04,-204.76 140.34,-124.77 111.45,-89.06"/>
<polygon fill="#63b8ff" stroke="#63b8ff" points="114.28,-86.99 105.27,-81.42 108.84,-91.4 114.28,-86.99"/>
</a>
</g>
</g>
<!-- Node22 -->
<g id="Node000022" class="node">
<title>Node22</title>
<g id="a_Node000022"><a xlink:href="detail_2is__executor_8hpp.html" target="_top" xlink:title=" ">
<polygon fill="white" stroke="#666666" points="445.62,-196.25 314.88,-196.25 314.88,-177 445.62,-177 445.62,-196.25"/>
<text xml:space="preserve" text-anchor="middle" x="380.25" y="-182.75" font-family="Helvetica,sans-Serif" font-size="10.00">asio/detail/is_executor.hpp</text>
</a>
</g>
</g>
<!-- Node21&#45;&gt;Node22 -->
<g id="edge24_Node000021_Node000022" class="edge">
<title>Node21&#45;&gt;Node22</title>
<g id="a_edge24_Node000021_Node000022"><a xlink:title=" ">
<path fill="none" stroke="#63b8ff" d="M259.02,-231.84C282.51,-223.27 318.06,-210.31 344.6,-200.63"/>
<polygon fill="#63b8ff" stroke="#63b8ff" points="345.74,-203.94 353.94,-197.22 343.35,-197.36 345.74,-203.94"/>
</a>
</g>
</g>
<!-- Node21&#45;&gt;Node23 -->
<g id="edge29_Node000021_Node000023" class="edge">
<title>Node21&#45;&gt;Node23</title>
<g id="a_edge29_Node000021_Node000023"><a xlink:title=" ">
<path fill="none" stroke="#63b8ff" d="M286.13,-231.81C330.92,-223.64 397.21,-210.72 454.25,-196.25 514.89,-180.87 584.12,-158.81 625.71,-145.05"/>
<polygon fill="#63b8ff" stroke="#63b8ff" points="626.61,-148.44 634.99,-141.96 624.4,-141.79 626.61,-148.44"/>
</a>
</g>
</g>
<!-- Node21&#45;&gt;Node24 -->
<g id="edge30_Node000021_Node000024" class="edge">
<title>Node21&#45;&gt;Node24</title>
<g id="a_edge30_Node000021_Node000024"><a xlink:title=" ">
<path fill="none" stroke="#63b8ff" d="M232.53,-231.84C230.52,-219.14 228.29,-195.47 235.25,-177 239.17,-166.6 246.67,-156.95 253.97,-149.3"/>
<polygon fill="#63b8ff" stroke="#63b8ff" points="256.38,-151.84 261.14,-142.37 251.52,-146.8 256.38,-151.84"/>
</a>
</g>
</g>
<!-- Node22&#45;&gt;Node2 -->
<g id="edge25_Node000022_Node000002" class="edge">
<title>Node22&#45;&gt;Node2</title>
<g id="a_edge25_Node000022_Node000002"><a xlink:title=" ">
<path fill="none" stroke="#63b8ff" d="M378.55,-176.58C375.39,-162.51 367.26,-135.54 349.25,-121.75 281.36,-69.76 243.96,-103.19 160.25,-85.75 156.17,-84.9 151.94,-84 147.7,-83.07"/>
<polygon fill="#63b8ff" stroke="#63b8ff" points="148.52,-79.67 138,-80.93 147.01,-86.5 148.52,-79.67"/>
</a>
</g>
</g>
<!-- Node22&#45;&gt;Node6 -->
<g id="edge26_Node000022_Node000006" class="edge">
<title>Node22&#45;&gt;Node6</title>
<g id="a_edge26_Node000022_Node000006"><a xlink:title=" ">
<path fill="none" stroke="#63b8ff" d="M445.89,-178.39C535.15,-168.55 694.42,-150.99 788.28,-140.64"/>
<polygon fill="#63b8ff" stroke="#63b8ff" points="788.61,-144.12 798.17,-139.55 787.85,-137.17 788.61,-144.12"/>
</a>
</g>
</g>
<!-- Node22&#45;&gt;Node23 -->
<g id="edge27_Node000022_Node000023" class="edge">
<title>Node22&#45;&gt;Node23</title>
<g id="a_edge27_Node000022_Node000023"><a xlink:title=" ">
<path fill="none" stroke="#63b8ff" d="M428.58,-176.53C477.11,-167.4 551.97,-153.31 604.05,-143.51"/>
<polygon fill="#63b8ff" stroke="#63b8ff" points="604.45,-147 613.63,-141.71 603.16,-140.12 604.45,-147"/>
</a>
</g>
</g>
<!-- Node22&#45;&gt;Node24 -->
<g id="edge28_Node000022_Node000024" class="edge">
<title>Node22&#45;&gt;Node24</title>
<g id="a_edge28_Node000022_Node000024"><a xlink:title=" ">
<path fill="none" stroke="#63b8ff" d="M362.1,-176.59C345.57,-168.37 320.91,-156.09 301.75,-146.56"/>
<polygon fill="#63b8ff" stroke="#63b8ff" points="303.36,-143.45 292.85,-142.13 300.24,-149.72 303.36,-143.45"/>
</a>
</g>
</g>
<!-- Node25&#45;&gt;Node2 -->
<g id="edge32_Node000025_Node000002" class="edge">
<title>Node25&#45;&gt;Node2</title>
<g id="a_edge32_Node000025_Node000002"><a xlink:title=" ">
<path fill="none" stroke="#63b8ff" d="M504.5,-231.97C494.43,-218.99 474.46,-194.53 454.25,-177 420.78,-147.95 412.43,-138.11 371.25,-121.75 282.84,-86.63 253.57,-104.25 160.25,-85.75 155.92,-84.89 151.43,-83.96 146.93,-83"/>
<polygon fill="#63b8ff" stroke="#63b8ff" points="147.82,-79.61 137.31,-80.89 146.33,-86.45 147.82,-79.61"/>
</a>
</g>
</g>
<!-- Node25&#45;&gt;Node23 -->
<g id="edge33_Node000025_Node000023" class="edge">
<title>Node25&#45;&gt;Node23</title>
<g id="a_edge33_Node000025_Node000023"><a xlink:title=" ">
<path fill="none" stroke="#63b8ff" d="M575.82,-233.97C623.65,-227.36 683.05,-215.51 698.25,-196.25 709.86,-181.54 696.29,-162.45 682.81,-148.98"/>
<polygon fill="#63b8ff" stroke="#63b8ff" points="685.47,-146.68 675.76,-142.44 680.71,-151.81 685.47,-146.68"/>
</a>
</g>
</g>
<!-- Node25&#45;&gt;Node24 -->
<g id="edge34_Node000025_Node000024" class="edge">
<title>Node25&#45;&gt;Node24</title>
<g id="a_edge34_Node000025_Node000024"><a xlink:title=" ">
<path fill="none" stroke="#63b8ff" d="M446.58,-232.88C395.03,-225.42 328,-212.93 306.25,-196.25 292.01,-185.33 283.36,-166.54 278.51,-152.15"/>
<polygon fill="#63b8ff" stroke="#63b8ff" points="281.94,-151.4 275.72,-142.82 275.23,-153.41 281.94,-151.4"/>
</a>
</g>
</g>
<!-- Node26 -->
<g id="Node000026" class="node">
<title>Node26</title>
<g id="a_Node000026"><a xlink:href="impl_2system__executor_8hpp.html" target="_top" xlink:title=" ">
<polygon fill="#fff0f0" stroke="red" points="689,-196.25 539.5,-196.25 539.5,-177 689,-177 689,-196.25"/>
<text xml:space="preserve" text-anchor="middle" x="614.25" y="-182.75" font-family="Helvetica,sans-Serif" font-size="10.00">asio/impl/system_executor.hpp</text>
</a>
</g>
</g>
<!-- Node25&#45;&gt;Node26 -->
<g id="edge35_Node000025_Node000026" class="edge">
<title>Node25&#45;&gt;Node26</title>
<g id="a_edge35_Node000025_Node000026"><a xlink:title=" ">
<path fill="none" stroke="#63b8ff" d="M528.72,-231.84C544.56,-223.66 568.16,-211.46 586.56,-201.94"/>
<polygon fill="#63b8ff" stroke="#63b8ff" points="588.07,-205.1 595.35,-197.4 584.86,-198.88 588.07,-205.1"/>
</a>
</g>
</g>
<!-- Node26&#45;&gt;Node6 -->
<g id="edge36_Node000026_Node000006" class="edge">
<title>Node26&#45;&gt;Node6</title>
<g id="a_edge36_Node000026_Node000006"><a xlink:title=" ">
<path fill="none" stroke="#63b8ff" d="M656.77,-176.53C699.03,-167.49 763.97,-153.61 809.71,-143.82"/>
<polygon fill="#63b8ff" stroke="#63b8ff" points="810.38,-147.26 819.42,-141.75 808.91,-140.42 810.38,-147.26"/>
</a>
</g>
</g>
<!-- Node26&#45;&gt;Node23 -->
<g id="edge37_Node000026_Node000023" class="edge">
<title>Node26&#45;&gt;Node23</title>
<g id="a_edge37_Node000026_Node000023"><a xlink:title=" ">
<path fill="none" stroke="#63b8ff" d="M622.34,-176.83C629.11,-169.48 638.97,-158.76 647.31,-149.69"/>
<polygon fill="#63b8ff" stroke="#63b8ff" points="649.76,-152.2 653.96,-142.47 644.61,-147.46 649.76,-152.2"/>
</a>
</g>
</g>
<!-- Node26&#45;&gt;Node24 -->
<g id="edge38_Node000026_Node000024" class="edge">
<title>Node26&#45;&gt;Node24</title>
<g id="a_edge38_Node000026_Node000024"><a xlink:title=" ">
<path fill="none" stroke="#63b8ff" d="M556.02,-176.53C496.89,-167.3 405.33,-153 342.52,-143.19"/>
<polygon fill="#63b8ff" stroke="#63b8ff" points="343.44,-139.79 333.02,-141.71 342.36,-146.71 343.44,-139.79"/>
</a>
</g>
</g>
</g>
</svg>
