<?xml version="1.0" encoding="UTF-8" standalone="no"?>
<!DOCTYPE svg PUBLIC "-//W3C//DTD SVG 1.1//EN"
 "http://www.w3.org/Graphics/SVG/1.1/DTD/svg11.dtd">
<!-- Generated by graphviz version 14.0.2 (0)
 -->
<!-- Title: main Pages: 1 -->
<svg width="273pt" height="125pt"
 viewBox="0.00 0.00 273.00 125.00" xmlns="http://www.w3.org/2000/svg" xmlns:xlink="http://www.w3.org/1999/xlink">

<svg id="main" version="1.1" xmlns="http://www.w3.org/2000/svg" xmlns:xlink="http://www.w3.org/1999/xlink" xml:space="preserve">

<style type="text/css"><![CDATA[
.node, .edge {opacity: 0.7;}
.node.selected, .edge.selected {opacity: 1;}
.edge:hover path { stroke: red; }
.edge:hover polygon { stroke: red; fill: red; }
]]></style>
<script type="application/ecmascript" xlink:href="svg.min.js"/>
<svg id="graph" class="graph">
<g id="graph0" class="graph" transform="scale(1 1) rotate(0) translate(4 120.5)">
<title>main</title>
<!-- Node1 -->
<g id="Node000001" class="node">
<title>Node1</title>
<g id="a_Node000001"><a xlink:title=" ">
<polygon fill="#999999" stroke="#666666" points="37,-67.88 0,-67.88 0,-48.62 37,-48.62 37,-67.88"/>
<text xml:space="preserve" text-anchor="middle" x="18.5" y="-54.38" font-family="Helvetica,sans-Serif" font-size="10.00">main</text>
</a>
</g>
</g>
<!-- Node2 -->
<g id="Node000002" class="node">
<title>Node2</title>
<g id="a_Node000002"><a xlink:href="exprtk__simple__example__18_8cpp.html#afabdd6f5e0842bae1f9e308ef908d0c5" target="_top" xlink:title=" ">
<polygon fill="white" stroke="#666666" points="113.75,-67.88 73,-67.88 73,-48.62 113.75,-48.62 113.75,-67.88"/>
<text xml:space="preserve" text-anchor="middle" x="93.38" y="-54.38" font-family="Helvetica,sans-Serif" font-size="10.00">file_io</text>
</a>
</g>
</g>
<!-- Node1&#45;&gt;Node2 -->
<g id="edge1_Node000001_Node000002" class="edge">
<title>Node1&#45;&gt;Node2</title>
<g id="a_edge1_Node000001_Node000002"><a xlink:title=" ">
<path fill="none" stroke="#63b8ff" d="M37.14,-58.25C44.41,-58.25 53.06,-58.25 61.33,-58.25"/>
<polygon fill="#63b8ff" stroke="#63b8ff" points="61.07,-61.75 71.07,-58.25 61.07,-54.75 61.07,-61.75"/>
</a>
</g>
</g>
<!-- Node3 -->
<g id="Node000003" class="node">
<title>Node3</title>
<g id="a_Node000003"><a xlink:href="classexprtk_1_1symbol__table.html#a43861e6f8c2534498637b5c8f73ba117" target="_top" xlink:title=" ">
<polygon fill="white" stroke="#666666" points="259.12,-116.5 155.38,-116.5 155.38,-86 259.12,-86 259.12,-116.5"/>
<text xml:space="preserve" text-anchor="start" x="163.38" y="-103" font-family="Helvetica,sans-Serif" font-size="10.00">exprtk::symbol_table</text>
<text xml:space="preserve" text-anchor="middle" x="207.25" y="-91.75" font-family="Helvetica,sans-Serif" font-size="10.00">::add_function</text>
</a>
</g>
</g>
<!-- Node2&#45;&gt;Node3 -->
<g id="edge2_Node000002_Node000003" class="edge">
<title>Node2&#45;&gt;Node3</title>
<g id="a_edge2_Node000002_Node000003"><a xlink:title=" ">
<path fill="none" stroke="#63b8ff" d="M114.12,-65.84C125.53,-70.22 140.45,-75.96 154.96,-81.54"/>
<polygon fill="#63b8ff" stroke="#63b8ff" points="153.39,-84.68 163.98,-85 155.9,-78.15 153.39,-84.68"/>
</a>
</g>
</g>
<!-- Node4 -->
<g id="Node000004" class="node">
<title>Node4</title>
<g id="a_Node000004"><a xlink:href="classexprtk_1_1parser.html#a1d44f3682429df87cea0572774b7a0f5" target="_top" xlink:title=" ">
<polygon fill="white" stroke="#666666" points="263.25,-67.88 151.25,-67.88 151.25,-48.62 263.25,-48.62 263.25,-67.88"/>
<text xml:space="preserve" text-anchor="middle" x="207.25" y="-54.38" font-family="Helvetica,sans-Serif" font-size="10.00">exprtk::parser::compile</text>
</a>
</g>
</g>
<!-- Node2&#45;&gt;Node4 -->
<g id="edge3_Node000002_Node000004" class="edge">
<title>Node2&#45;&gt;Node4</title>
<g id="a_edge3_Node000002_Node000004"><a xlink:title=" ">
<path fill="none" stroke="#63b8ff" d="M114.12,-58.25C121.52,-58.25 130.41,-58.25 139.7,-58.25"/>
<polygon fill="#63b8ff" stroke="#63b8ff" points="139.65,-61.75 149.65,-58.25 139.65,-54.75 139.65,-61.75"/>
</a>
</g>
</g>
<!-- Node5 -->
<g id="Node000005" class="node">
<title>Node5</title>
<g id="a_Node000005"><a xlink:href="classexprtk_1_1expression.html#a52978dd5c48291cde0d6b6b8e5a754f2" target="_top" xlink:title=" ">
<polygon fill="white" stroke="#666666" points="264.75,-30.5 149.75,-30.5 149.75,0 264.75,0 264.75,-30.5"/>
<text xml:space="preserve" text-anchor="start" x="157.75" y="-17" font-family="Helvetica,sans-Serif" font-size="10.00">exprtk::expression</text>
<text xml:space="preserve" text-anchor="middle" x="207.25" y="-5.75" font-family="Helvetica,sans-Serif" font-size="10.00">::register_symbol_table</text>
</a>
</g>
</g>
<!-- Node2&#45;&gt;Node5 -->
<g id="edge4_Node000002_Node000005" class="edge">
<title>Node2&#45;&gt;Node5</title>
<g id="a_edge4_Node000002_Node000005"><a xlink:title=" ">
<path fill="none" stroke="#63b8ff" d="M114.12,-50.66C125.53,-46.28 140.45,-40.54 154.96,-34.96"/>
<polygon fill="#63b8ff" stroke="#63b8ff" points="155.9,-38.35 163.98,-31.5 153.39,-31.82 155.9,-38.35"/>
</a>
</g>
</g>
</g>
</svg>
</svg>

<style type='text/css'>
<![CDATA[
[data-mouse-over-selected='false'] { opacity: 0.7; }
[data-mouse-over-selected='true']  { opacity: 1.0; }
]]>
</style>
<script type="application/ecmascript"><![CDATA[
document.addEventListener('DOMContentLoaded', (event) => {
  highlightEdges();
  highlightAdjacentNodes();
});
]]></script>
</svg>
