<?xml version="1.0" encoding="UTF-8" standalone="no"?>
<!DOCTYPE svg PUBLIC "-//W3C//DTD SVG 1.1//EN"
 "http://www.w3.org/Graphics/SVG/1.1/DTD/svg11.dtd">
<!-- Generated by graphviz version 14.0.2 (0)
 -->
<!-- Title: include/FileSearchJob.h Pages: 1 -->
<svg width="240pt" height="83pt"
 viewBox="0.00 0.00 240.00 83.00" xmlns="http://www.w3.org/2000/svg" xmlns:xlink="http://www.w3.org/1999/xlink">
<g id="graph0" class="graph" transform="scale(1 1) rotate(0) translate(4 78.5)">
<title>include/FileSearchJob.h</title>
<!-- Node1 -->
<g id="Node000001" class="node">
<title>Node1</title>
<g id="a_Node000001"><a xlink:title=" ">
<polygon fill="#999999" stroke="#666666" points="173.5,-74.5 54,-74.5 54,-55.25 173.5,-55.25 173.5,-74.5"/>
<text xml:space="preserve" text-anchor="middle" x="113.75" y="-61" font-family="Helvetica,sans-Serif" font-size="10.00">include/FileSearchJob.h</text>
</a>
</g>
</g>
<!-- Node2 -->
<g id="Node000002" class="node">
<title>Node2</title>
<g id="a_Node000002"><a xlink:title=" ">
<polygon fill="#e0e0e0" stroke="#999999" points="35.5,-19.25 0,-19.25 0,0 35.5,0 35.5,-19.25"/>
<text xml:space="preserve" text-anchor="middle" x="17.75" y="-5.75" font-family="Helvetica,sans-Serif" font-size="10.00">QDir</text>
</a>
</g>
</g>
<!-- Node1&#45;&gt;Node2 -->
<g id="edge1_Node000001_Node000002" class="edge">
<title>Node1&#45;&gt;Node2</title>
<g id="a_edge1_Node000001_Node000002"><a xlink:title=" ">
<path fill="none" stroke="#63b8ff" d="M97.46,-54.84C82.85,-46.73 61.12,-34.68 44.04,-25.21"/>
<polygon fill="#63b8ff" stroke="#63b8ff" points="45.88,-22.23 35.44,-20.44 42.49,-28.35 45.88,-22.23"/>
</a>
</g>
</g>
<!-- Node3 -->
<g id="Node000003" class="node">
<title>Node3</title>
<g id="a_Node000003"><a xlink:title=" ">
<polygon fill="#e0e0e0" stroke="#999999" points="105.75,-19.25 53.75,-19.25 53.75,0 105.75,0 105.75,-19.25"/>
<text xml:space="preserve" text-anchor="middle" x="79.75" y="-5.75" font-family="Helvetica,sans-Serif" font-size="10.00">QObject</text>
</a>
</g>
</g>
<!-- Node1&#45;&gt;Node3 -->
<g id="edge2_Node000001_Node000003" class="edge">
<title>Node1&#45;&gt;Node3</title>
<g id="a_edge2_Node000001_Node000003"><a xlink:title=" ">
<path fill="none" stroke="#63b8ff" d="M108.14,-55.08C103.63,-48.03 97.16,-37.9 91.54,-29.08"/>
<polygon fill="#63b8ff" stroke="#63b8ff" points="94.63,-27.43 86.3,-20.88 88.73,-31.2 94.63,-27.43"/>
</a>
</g>
</g>
<!-- Node4 -->
<g id="Node000004" class="node">
<title>Node4</title>
<g id="a_Node000004"><a xlink:title=" ">
<polygon fill="#e0e0e0" stroke="#999999" points="173.25,-19.25 124.25,-19.25 124.25,0 173.25,0 173.25,-19.25"/>
<text xml:space="preserve" text-anchor="middle" x="148.75" y="-5.75" font-family="Helvetica,sans-Serif" font-size="10.00">QString</text>
</a>
</g>
</g>
<!-- Node1&#45;&gt;Node4 -->
<g id="edge3_Node000001_Node000004" class="edge">
<title>Node1&#45;&gt;Node4</title>
<g id="a_edge3_Node000001_Node000004"><a xlink:title=" ">
<path fill="none" stroke="#63b8ff" d="M119.53,-55.08C124.16,-48.03 130.82,-37.9 136.62,-29.08"/>
<polygon fill="#63b8ff" stroke="#63b8ff" points="139.45,-31.15 142.01,-20.87 133.6,-27.31 139.45,-31.15"/>
</a>
</g>
</g>
<!-- Node5 -->
<g id="Node000005" class="node">
<title>Node5</title>
<g id="a_Node000005"><a xlink:title=" ">
<polygon fill="#e0e0e0" stroke="#999999" points="232.12,-19.25 191.38,-19.25 191.38,0 232.12,0 232.12,-19.25"/>
<text xml:space="preserve" text-anchor="middle" x="211.75" y="-5.75" font-family="Helvetica,sans-Serif" font-size="10.00">future</text>
</a>
</g>
</g>
<!-- Node1&#45;&gt;Node5 -->
<g id="edge4_Node000001_Node000005" class="edge">
<title>Node1&#45;&gt;Node5</title>
<g id="a_edge4_Node000001_Node000005"><a xlink:title=" ">
<path fill="none" stroke="#63b8ff" d="M130.37,-54.84C145.44,-46.66 167.89,-34.46 185.4,-24.94"/>
<polygon fill="#63b8ff" stroke="#63b8ff" points="186.6,-28.27 193.71,-20.43 183.26,-22.12 186.6,-28.27"/>
</a>
</g>
</g>
</g>
</svg>
