<?xml version="1.0" encoding="UTF-8" standalone="no"?>
<!DOCTYPE svg PUBLIC "-//W3C//DTD SVG 1.1//EN"
 "http://www.w3.org/Graphics/SVG/1.1/DTD/svg11.dtd">
<!-- Generated by graphviz version 14.0.2 (0)
 -->
<!-- Title: plugins/CarlaBase/carla/source/native&#45;plugins/external/zynaddsubfx/UI/Fl_Osc_Choice.cpp Pages: 1 -->
<svg width="644pt" height="172pt"
 viewBox="0.00 0.00 644.00 172.00" xmlns="http://www.w3.org/2000/svg" xmlns:xlink="http://www.w3.org/1999/xlink">
<g id="graph0" class="graph" transform="scale(1 1) rotate(0) translate(4 167.5)">
<title>plugins/CarlaBase/carla/source/native&#45;plugins/external/zynaddsubfx/UI/Fl_Osc_Choice.cpp</title>
<!-- Node1 -->
<g id="Node000001" class="node">
<title>Node1</title>
<g id="a_Node000001"><a xlink:title=" ">
<polygon fill="#999999" stroke="#666666" points="445.5,-163.5 323,-163.5 323,-110.5 445.5,-110.5 445.5,-163.5"/>
<text xml:space="preserve" text-anchor="start" x="331" y="-150" font-family="Helvetica,sans-Serif" font-size="10.00">plugins/CarlaBase/carla</text>
<text xml:space="preserve" text-anchor="start" x="331" y="-138.75" font-family="Helvetica,sans-Serif" font-size="10.00">/source/native&#45;plugins</text>
<text xml:space="preserve" text-anchor="start" x="331" y="-127.5" font-family="Helvetica,sans-Serif" font-size="10.00">/external/zynaddsubfx/UI</text>
<text xml:space="preserve" text-anchor="middle" x="384.25" y="-116.25" font-family="Helvetica,sans-Serif" font-size="10.00">/Fl_Osc_Choice.cpp</text>
</a>
</g>
</g>
<!-- Node2 -->
<g id="Node000002" class="node">
<title>Node2</title>
<g id="a_Node000002"><a xlink:title=" ">
<polygon fill="#e0e0e0" stroke="#999999" points="92.5,-74.5 0,-74.5 0,-55.25 92.5,-55.25 92.5,-74.5"/>
<text xml:space="preserve" text-anchor="middle" x="46.25" y="-61" font-family="Helvetica,sans-Serif" font-size="10.00">Fl_Osc_Choice.H</text>
</a>
</g>
</g>
<!-- Node1&#45;&gt;Node2 -->
<g id="edge1_Node000001_Node000002" class="edge">
<title>Node1&#45;&gt;Node2</title>
<g id="a_edge1_Node000001_Node000002"><a xlink:title=" ">
<path fill="none" stroke="#63b8ff" d="M322.65,-123.22C259.5,-110.12 162.2,-89.93 101.48,-77.33"/>
<polygon fill="#63b8ff" stroke="#63b8ff" points="102.2,-73.91 91.7,-75.3 100.78,-80.76 102.2,-73.91"/>
</a>
</g>
</g>
<!-- Node3 -->
<g id="Node000003" class="node">
<title>Node3</title>
<g id="a_Node000003"><a xlink:href="Fl__Osc__Interface_8h.html" target="_top" xlink:title=" ">
<polygon fill="white" stroke="#666666" points="209.5,-74.5 111,-74.5 111,-55.25 209.5,-55.25 209.5,-74.5"/>
<text xml:space="preserve" text-anchor="middle" x="160.25" y="-61" font-family="Helvetica,sans-Serif" font-size="10.00">Fl_Osc_Interface.h</text>
</a>
</g>
</g>
<!-- Node1&#45;&gt;Node3 -->
<g id="edge2_Node000001_Node000003" class="edge">
<title>Node1&#45;&gt;Node3</title>
<g id="a_edge2_Node000001_Node000003"><a xlink:title=" ">
<path fill="none" stroke="#63b8ff" d="M322.74,-116.75C283.65,-104.51 234.17,-89.01 200.14,-78.36"/>
<polygon fill="#63b8ff" stroke="#63b8ff" points="201.26,-75.05 190.67,-75.4 199.17,-81.73 201.26,-75.05"/>
</a>
</g>
</g>
<!-- Node6 -->
<g id="Node000006" class="node">
<title>Node6</title>
<g id="a_Node000006"><a xlink:title=" ">
<polygon fill="#e0e0e0" stroke="#999999" points="312.75,-74.5 227.75,-74.5 227.75,-55.25 312.75,-55.25 312.75,-74.5"/>
<text xml:space="preserve" text-anchor="middle" x="270.25" y="-61" font-family="Helvetica,sans-Serif" font-size="10.00">Fl_Osc_Pane.H</text>
</a>
</g>
</g>
<!-- Node1&#45;&gt;Node6 -->
<g id="edge5_Node000001_Node000006" class="edge">
<title>Node1&#45;&gt;Node6</title>
<g id="a_edge5_Node000001_Node000006"><a xlink:title=" ">
<path fill="none" stroke="#63b8ff" d="M342.12,-110.09C326.15,-100.26 308.51,-89.41 294.7,-80.91"/>
<polygon fill="#63b8ff" stroke="#63b8ff" points="296.61,-77.98 286.26,-75.72 292.95,-83.95 296.61,-77.98"/>
</a>
</g>
</g>
<!-- Node7 -->
<g id="Node000007" class="node">
<title>Node7</title>
<g id="a_Node000007"><a xlink:title=" ">
<polygon fill="#e0e0e0" stroke="#999999" points="375.5,-74.5 331,-74.5 331,-55.25 375.5,-55.25 375.5,-74.5"/>
<text xml:space="preserve" text-anchor="middle" x="353.25" y="-61" font-family="Helvetica,sans-Serif" font-size="10.00">cstdlib</text>
</a>
</g>
</g>
<!-- Node1&#45;&gt;Node7 -->
<g id="edge6_Node000001_Node000007" class="edge">
<title>Node1&#45;&gt;Node7</title>
<g id="a_edge6_Node000001_Node000007"><a xlink:title=" ">
<path fill="none" stroke="#63b8ff" d="M372.88,-110.29C369.26,-102.08 365.31,-93.14 361.9,-85.45"/>
<polygon fill="#63b8ff" stroke="#63b8ff" points="365.13,-84.1 357.89,-76.37 358.73,-86.93 365.13,-84.1"/>
</a>
</g>
</g>
<!-- Node8 -->
<g id="Node000008" class="node">
<title>Node8</title>
<g id="a_Node000008"><a xlink:title=" ">
<polygon fill="#e0e0e0" stroke="#999999" points="438.88,-74.5 393.62,-74.5 393.62,-55.25 438.88,-55.25 438.88,-74.5"/>
<text xml:space="preserve" text-anchor="middle" x="416.25" y="-61" font-family="Helvetica,sans-Serif" font-size="10.00">cstring</text>
</a>
</g>
</g>
<!-- Node1&#45;&gt;Node8 -->
<g id="edge7_Node000001_Node000008" class="edge">
<title>Node1&#45;&gt;Node8</title>
<g id="a_edge7_Node000001_Node000008"><a xlink:title=" ">
<path fill="none" stroke="#63b8ff" d="M395.98,-110.29C399.73,-102.08 403.81,-93.14 407.32,-85.45"/>
<polygon fill="#63b8ff" stroke="#63b8ff" points="410.5,-86.91 411.46,-76.36 404.13,-84.01 410.5,-86.91"/>
</a>
</g>
</g>
<!-- Node9 -->
<g id="Node000009" class="node">
<title>Node9</title>
<g id="a_Node000009"><a xlink:title=" ">
<polygon fill="#e0e0e0" stroke="#999999" points="499.75,-74.5 456.75,-74.5 456.75,-55.25 499.75,-55.25 499.75,-74.5"/>
<text xml:space="preserve" text-anchor="middle" x="478.25" y="-61" font-family="Helvetica,sans-Serif" font-size="10.00">cmath</text>
</a>
</g>
</g>
<!-- Node1&#45;&gt;Node9 -->
<g id="edge8_Node000001_Node000009" class="edge">
<title>Node1&#45;&gt;Node9</title>
<g id="a_edge8_Node000001_Node000009"><a xlink:title=" ">
<path fill="none" stroke="#63b8ff" d="M418.99,-110.09C431.77,-100.55 445.85,-90.05 457.08,-81.67"/>
<polygon fill="#63b8ff" stroke="#63b8ff" points="458.97,-84.62 464.9,-75.84 454.79,-79.01 458.97,-84.62"/>
</a>
</g>
</g>
<!-- Node10 -->
<g id="Node000010" class="node">
<title>Node10</title>
<g id="a_Node000010"><a xlink:title=" ">
<polygon fill="#e0e0e0" stroke="#999999" points="566.38,-74.5 518.12,-74.5 518.12,-55.25 566.38,-55.25 566.38,-74.5"/>
<text xml:space="preserve" text-anchor="middle" x="542.25" y="-61" font-family="Helvetica,sans-Serif" font-size="10.00">cassert</text>
</a>
</g>
</g>
<!-- Node1&#45;&gt;Node10 -->
<g id="edge9_Node000001_Node000010" class="edge">
<title>Node1&#45;&gt;Node10</title>
<g id="a_edge9_Node000001_Node000010"><a xlink:title=" ">
<path fill="none" stroke="#63b8ff" d="M442.63,-110.09C465.96,-99.73 491.87,-88.23 511.42,-79.56"/>
<polygon fill="#63b8ff" stroke="#63b8ff" points="512.74,-82.8 520.46,-75.55 509.9,-76.4 512.74,-82.8"/>
</a>
</g>
</g>
<!-- Node11 -->
<g id="Node000011" class="node">
<title>Node11</title>
<g id="a_Node000011"><a xlink:title=" ">
<polygon fill="#e0e0e0" stroke="#999999" points="635.88,-74.5 584.62,-74.5 584.62,-55.25 635.88,-55.25 635.88,-74.5"/>
<text xml:space="preserve" text-anchor="middle" x="610.25" y="-61" font-family="Helvetica,sans-Serif" font-size="10.00">sstream</text>
</a>
</g>
</g>
<!-- Node1&#45;&gt;Node11 -->
<g id="edge10_Node000001_Node000011" class="edge">
<title>Node1&#45;&gt;Node11</title>
<g id="a_edge10_Node000001_Node000011"><a xlink:title=" ">
<path fill="none" stroke="#63b8ff" d="M445.71,-116.93C486.63,-104.23 539.04,-87.97 573.58,-77.25"/>
<polygon fill="#63b8ff" stroke="#63b8ff" points="574.17,-80.73 582.68,-74.43 572.1,-74.05 574.17,-80.73"/>
</a>
</g>
</g>
<!-- Node4 -->
<g id="Node000004" class="node">
<title>Node4</title>
<g id="a_Node000004"><a xlink:title=" ">
<polygon fill="#e0e0e0" stroke="#999999" points="152.5,-19.25 108,-19.25 108,0 152.5,0 152.5,-19.25"/>
<text xml:space="preserve" text-anchor="middle" x="130.25" y="-5.75" font-family="Helvetica,sans-Serif" font-size="10.00">stdio.h</text>
</a>
</g>
</g>
<!-- Node3&#45;&gt;Node4 -->
<g id="edge3_Node000003_Node000004" class="edge">
<title>Node3&#45;&gt;Node4</title>
<g id="a_edge3_Node000003_Node000004"><a xlink:title=" ">
<path fill="none" stroke="#63b8ff" d="M155.3,-55.08C151.37,-48.11 145.74,-38.12 140.81,-29.37"/>
<polygon fill="#63b8ff" stroke="#63b8ff" points="144.01,-27.92 136.05,-20.93 137.91,-31.36 144.01,-27.92"/>
</a>
</g>
</g>
<!-- Node5 -->
<g id="Node000005" class="node">
<title>Node5</title>
<g id="a_Node000005"><a xlink:title=" ">
<polygon fill="#e0e0e0" stroke="#999999" points="210.25,-19.25 170.25,-19.25 170.25,0 210.25,0 210.25,-19.25"/>
<text xml:space="preserve" text-anchor="middle" x="190.25" y="-5.75" font-family="Helvetica,sans-Serif" font-size="10.00">string</text>
</a>
</g>
</g>
<!-- Node3&#45;&gt;Node5 -->
<g id="edge4_Node000003_Node000005" class="edge">
<title>Node3&#45;&gt;Node5</title>
<g id="a_edge4_Node000003_Node000005"><a xlink:title=" ">
<path fill="none" stroke="#63b8ff" d="M165.2,-55.08C169.13,-48.11 174.76,-38.12 179.69,-29.37"/>
<polygon fill="#63b8ff" stroke="#63b8ff" points="182.59,-31.36 184.45,-20.93 176.49,-27.92 182.59,-31.36"/>
</a>
</g>
</g>
</g>
</svg>
