<?xml version="1.0" encoding="UTF-8" standalone="no"?>
<!DOCTYPE svg PUBLIC "-//W3C//DTD SVG 1.1//EN"
 "http://www.w3.org/Graphics/SVG/1.1/DTD/svg11.dtd">
<!-- Generated by graphviz version 14.0.2 (0)
 -->
<!-- Title: include/Graph.h Pages: 1 -->
<svg width="469pt" height="193pt"
 viewBox="0.00 0.00 469.00 193.00" xmlns="http://www.w3.org/2000/svg" xmlns:xlink="http://www.w3.org/1999/xlink">
<g id="graph0" class="graph" transform="scale(1 1) rotate(0) translate(4 189)">
<title>include/Graph.h</title>
<!-- Node1 -->
<g id="Node000001" class="node">
<title>Node1</title>
<g id="a_Node000001"><a xlink:title=" ">
<polygon fill="#999999" stroke="#666666" points="240.5,-185 157,-185 157,-165.75 240.5,-165.75 240.5,-185"/>
<text xml:space="preserve" text-anchor="middle" x="198.75" y="-171.5" font-family="Helvetica,sans-Serif" font-size="10.00">include/Graph.h</text>
</a>
</g>
</g>
<!-- Node2 -->
<g id="Node000002" class="node">
<title>Node2</title>
<g id="a_Node000002"><a xlink:title=" ">
<polygon fill="#e0e0e0" stroke="#999999" points="53.5,-129.75 0,-129.75 0,-110.5 53.5,-110.5 53.5,-129.75"/>
<text xml:space="preserve" text-anchor="middle" x="26.75" y="-116.25" font-family="Helvetica,sans-Serif" font-size="10.00">QWidget</text>
</a>
</g>
</g>
<!-- Node1&#45;&gt;Node2 -->
<g id="edge1_Node000001_Node000002" class="edge">
<title>Node1&#45;&gt;Node2</title>
<g id="a_edge1_Node000001_Node000002"><a xlink:title=" ">
<path fill="none" stroke="#63b8ff" d="M169.57,-165.34C140.59,-156.37 96.03,-142.58 64.4,-132.78"/>
<polygon fill="#63b8ff" stroke="#63b8ff" points="65.83,-129.56 55.25,-129.95 63.76,-136.25 65.83,-129.56"/>
</a>
</g>
</g>
<!-- Node3 -->
<g id="Node000003" class="node">
<title>Node3</title>
<g id="a_Node000003"><a xlink:title=" ">
<polygon fill="#e0e0e0" stroke="#999999" points="127.62,-129.75 71.88,-129.75 71.88,-110.5 127.62,-110.5 127.62,-129.75"/>
<text xml:space="preserve" text-anchor="middle" x="99.75" y="-116.25" font-family="Helvetica,sans-Serif" font-size="10.00">QPixmap</text>
</a>
</g>
</g>
<!-- Node1&#45;&gt;Node3 -->
<g id="edge2_Node000001_Node000003" class="edge">
<title>Node1&#45;&gt;Node3</title>
<g id="a_edge2_Node000001_Node000003"><a xlink:title=" ">
<path fill="none" stroke="#63b8ff" d="M181.96,-165.34C166.74,-157.16 144.05,-144.96 126.37,-135.44"/>
<polygon fill="#63b8ff" stroke="#63b8ff" points="128.42,-132.57 117.96,-130.92 125.11,-138.74 128.42,-132.57"/>
</a>
</g>
</g>
<!-- Node4 -->
<g id="Node000004" class="node">
<title>Node4</title>
<g id="a_Node000004"><a xlink:title=" ">
<polygon fill="#e0e0e0" stroke="#999999" points="197.75,-129.75 145.75,-129.75 145.75,-110.5 197.75,-110.5 197.75,-129.75"/>
<text xml:space="preserve" text-anchor="middle" x="171.75" y="-116.25" font-family="Helvetica,sans-Serif" font-size="10.00">QCursor</text>
</a>
</g>
</g>
<!-- Node1&#45;&gt;Node4 -->
<g id="edge3_Node000001_Node000004" class="edge">
<title>Node1&#45;&gt;Node4</title>
<g id="a_edge3_Node000001_Node000004"><a xlink:title=" ">
<path fill="none" stroke="#63b8ff" d="M194.29,-165.58C190.8,-158.69 185.8,-148.84 181.4,-140.16"/>
<polygon fill="#63b8ff" stroke="#63b8ff" points="184.63,-138.8 176.99,-131.46 178.39,-141.96 184.63,-138.8"/>
</a>
</g>
</g>
<!-- Node5 -->
<g id="Node000005" class="node">
<title>Node5</title>
<g id="a_Node000005"><a xlink:href="Model_8h.html" target="_top" xlink:title=" ">
<polygon fill="white" stroke="#666666" points="250.62,-74.5 200.88,-74.5 200.88,-55.25 250.62,-55.25 250.62,-74.5"/>
<text xml:space="preserve" text-anchor="middle" x="225.75" y="-61" font-family="Helvetica,sans-Serif" font-size="10.00">Model.h</text>
</a>
</g>
</g>
<!-- Node1&#45;&gt;Node5 -->
<g id="edge4_Node000001_Node000005" class="edge">
<title>Node1&#45;&gt;Node5</title>
<g id="a_edge4_Node000001_Node000005"><a xlink:title=" ">
<path fill="none" stroke="#63b8ff" d="M200.96,-165.5C205.27,-148.17 214.9,-109.48 220.81,-85.74"/>
<polygon fill="#63b8ff" stroke="#63b8ff" points="224.13,-86.89 223.14,-76.35 217.33,-85.2 224.13,-86.89"/>
</a>
</g>
</g>
<!-- Node9 -->
<g id="Node000009" class="node">
<title>Node9</title>
<g id="a_Node000009"><a xlink:href="ModelView_8h.html" target="_top" xlink:title=" ">
<polygon fill="white" stroke="#666666" points="325.5,-129.75 254,-129.75 254,-110.5 325.5,-110.5 325.5,-129.75"/>
<text xml:space="preserve" text-anchor="middle" x="289.75" y="-116.25" font-family="Helvetica,sans-Serif" font-size="10.00">ModelView.h</text>
</a>
</g>
</g>
<!-- Node1&#45;&gt;Node9 -->
<g id="edge8_Node000001_Node000009" class="edge">
<title>Node1&#45;&gt;Node9</title>
<g id="a_edge8_Node000001_Node000009"><a xlink:title=" ">
<path fill="none" stroke="#63b8ff" d="M214.19,-165.34C227.91,-157.31 248.25,-145.41 264.37,-135.98"/>
<polygon fill="#63b8ff" stroke="#63b8ff" points="266.07,-139.04 272.93,-130.97 262.53,-133 266.07,-139.04"/>
</a>
</g>
</g>
<!-- Node11 -->
<g id="Node000011" class="node">
<title>Node11</title>
<g id="a_Node000011"><a xlink:href="LmmsTypes_8h.html" target="_top" xlink:title=" ">
<polygon fill="white" stroke="#666666" points="421.5,-129.75 344,-129.75 344,-110.5 421.5,-110.5 421.5,-129.75"/>
<text xml:space="preserve" text-anchor="middle" x="382.75" y="-116.25" font-family="Helvetica,sans-Serif" font-size="10.00">LmmsTypes.h</text>
</a>
</g>
</g>
<!-- Node1&#45;&gt;Node11 -->
<g id="edge11_Node000001_Node000011" class="edge">
<title>Node1&#45;&gt;Node11</title>
<g id="a_edge11_Node000001_Node000011"><a xlink:title=" ">
<path fill="none" stroke="#63b8ff" d="M229.96,-165.34C260.36,-156.54 306.79,-143.11 340.49,-133.36"/>
<polygon fill="#63b8ff" stroke="#63b8ff" points="341.3,-136.77 349.93,-130.62 339.35,-130.04 341.3,-136.77"/>
</a>
</g>
</g>
<!-- Node6 -->
<g id="Node000006" class="node">
<title>Node6</title>
<g id="a_Node000006"><a xlink:title=" ">
<polygon fill="#e0e0e0" stroke="#999999" points="181.25,-19.25 132.25,-19.25 132.25,0 181.25,0 181.25,-19.25"/>
<text xml:space="preserve" text-anchor="middle" x="156.75" y="-5.75" font-family="Helvetica,sans-Serif" font-size="10.00">QString</text>
</a>
</g>
</g>
<!-- Node5&#45;&gt;Node6 -->
<g id="edge5_Node000005_Node000006" class="edge">
<title>Node5&#45;&gt;Node6</title>
<g id="a_edge5_Node000005_Node000006"><a xlink:title=" ">
<path fill="none" stroke="#63b8ff" d="M214.05,-54.84C203.97,-47.07 189.21,-35.67 177.19,-26.4"/>
<polygon fill="#63b8ff" stroke="#63b8ff" points="179.54,-23.79 169.48,-20.45 175.26,-29.33 179.54,-23.79"/>
</a>
</g>
</g>
<!-- Node7 -->
<g id="Node000007" class="node">
<title>Node7</title>
<g id="a_Node000007"><a xlink:title=" ">
<polygon fill="#e0e0e0" stroke="#999999" points="251.75,-19.25 199.75,-19.25 199.75,0 251.75,0 251.75,-19.25"/>
<text xml:space="preserve" text-anchor="middle" x="225.75" y="-5.75" font-family="Helvetica,sans-Serif" font-size="10.00">QObject</text>
</a>
</g>
</g>
<!-- Node5&#45;&gt;Node7 -->
<g id="edge6_Node000005_Node000007" class="edge">
<title>Node5&#45;&gt;Node7</title>
<g id="a_edge6_Node000005_Node000007"><a xlink:title=" ">
<path fill="none" stroke="#63b8ff" d="M225.75,-55.08C225.75,-48.57 225.75,-39.42 225.75,-31.12"/>
<polygon fill="#63b8ff" stroke="#63b8ff" points="229.25,-31.12 225.75,-21.12 222.25,-31.12 229.25,-31.12"/>
</a>
</g>
</g>
<!-- Node8 -->
<g id="Node000008" class="node">
<title>Node8</title>
<g id="a_Node000008"><a xlink:title=" ">
<polygon fill="#e0e0e0" stroke="#999999" points="349.25,-19.25 270.25,-19.25 270.25,0 349.25,0 349.25,-19.25"/>
<text xml:space="preserve" text-anchor="middle" x="309.75" y="-5.75" font-family="Helvetica,sans-Serif" font-size="10.00">lmms_export.h</text>
</a>
</g>
</g>
<!-- Node5&#45;&gt;Node8 -->
<g id="edge7_Node000005_Node000008" class="edge">
<title>Node5&#45;&gt;Node8</title>
<g id="a_edge7_Node000005_Node000008"><a xlink:title=" ">
<path fill="none" stroke="#63b8ff" d="M240,-54.84C252.55,-46.89 271.08,-35.14 285.89,-25.75"/>
<polygon fill="#63b8ff" stroke="#63b8ff" points="287.58,-28.82 294.15,-20.51 283.83,-22.91 287.58,-28.82"/>
</a>
</g>
</g>
<!-- Node9&#45;&gt;Node5 -->
<g id="edge10_Node000009_Node000005" class="edge">
<title>Node9&#45;&gt;Node5</title>
<g id="a_edge10_Node000009_Node000005"><a xlink:title=" ">
<path fill="none" stroke="#63b8ff" d="M278.89,-110.09C269.64,-102.4 256.13,-91.15 245.04,-81.93"/>
<polygon fill="#63b8ff" stroke="#63b8ff" points="247.54,-79.45 237.61,-75.74 243.06,-84.83 247.54,-79.45"/>
</a>
</g>
</g>
<!-- Node10 -->
<g id="Node000010" class="node">
<title>Node10</title>
<g id="a_Node000010"><a xlink:title=" ">
<polygon fill="#e0e0e0" stroke="#999999" points="322.88,-74.5 268.62,-74.5 268.62,-55.25 322.88,-55.25 322.88,-74.5"/>
<text xml:space="preserve" text-anchor="middle" x="295.75" y="-61" font-family="Helvetica,sans-Serif" font-size="10.00">QPointer</text>
</a>
</g>
</g>
<!-- Node9&#45;&gt;Node10 -->
<g id="edge9_Node000009_Node000010" class="edge">
<title>Node9&#45;&gt;Node10</title>
<g id="a_edge9_Node000009_Node000010"><a xlink:title=" ">
<path fill="none" stroke="#63b8ff" d="M290.74,-110.33C291.48,-103.74 292.53,-94.46 293.47,-86.07"/>
<polygon fill="#63b8ff" stroke="#63b8ff" points="296.93,-86.69 294.57,-76.36 289.97,-85.91 296.93,-86.69"/>
</a>
</g>
</g>
<!-- Node12 -->
<g id="Node000012" class="node">
<title>Node12</title>
<g id="a_Node000012"><a xlink:title=" ">
<polygon fill="#e0e0e0" stroke="#999999" points="397.88,-74.5 349.62,-74.5 349.62,-55.25 397.88,-55.25 397.88,-74.5"/>
<text xml:space="preserve" text-anchor="middle" x="373.75" y="-61" font-family="Helvetica,sans-Serif" font-size="10.00">cstddef</text>
</a>
</g>
</g>
<!-- Node11&#45;&gt;Node12 -->
<g id="edge12_Node000011_Node000012" class="edge">
<title>Node11&#45;&gt;Node12</title>
<g id="a_edge12_Node000011_Node000012"><a xlink:title=" ">
<path fill="none" stroke="#63b8ff" d="M381.26,-110.33C380.15,-103.74 378.58,-94.46 377.16,-86.07"/>
<polygon fill="#63b8ff" stroke="#63b8ff" points="380.64,-85.63 375.52,-76.35 373.74,-86.8 380.64,-85.63"/>
</a>
</g>
</g>
<!-- Node13 -->
<g id="Node000013" class="node">
<title>Node13</title>
<g id="a_Node000013"><a xlink:title=" ">
<polygon fill="#e0e0e0" stroke="#999999" points="461.38,-74.5 416.12,-74.5 416.12,-55.25 461.38,-55.25 461.38,-74.5"/>
<text xml:space="preserve" text-anchor="middle" x="438.75" y="-61" font-family="Helvetica,sans-Serif" font-size="10.00">cstdint</text>
</a>
</g>
</g>
<!-- Node11&#45;&gt;Node13 -->
<g id="edge13_Node000011_Node000013" class="edge">
<title>Node11&#45;&gt;Node13</title>
<g id="a_edge13_Node000011_Node000013"><a xlink:title=" ">
<path fill="none" stroke="#63b8ff" d="M392.25,-110.09C400.18,-102.55 411.7,-91.6 421.29,-82.48"/>
<polygon fill="#63b8ff" stroke="#63b8ff" points="423.46,-85.24 428.29,-75.82 418.64,-80.17 423.46,-85.24"/>
</a>
</g>
</g>
</g>
</svg>
