<?xml version="1.0" encoding="UTF-8" standalone="no"?>
<!DOCTYPE svg PUBLIC "-//W3C//DTD SVG 1.1//EN"
 "http://www.w3.org/Graphics/SVG/1.1/DTD/svg11.dtd">
<!-- Generated by graphviz version 14.0.2 (0)
 -->
<!-- Title: carla_get_transport_info Pages: 1 -->
<svg width="484pt" height="125pt"
 viewBox="0.00 0.00 484.00 125.00" xmlns="http://www.w3.org/2000/svg" xmlns:xlink="http://www.w3.org/1999/xlink">

<svg id="main" version="1.1" xmlns="http://www.w3.org/2000/svg" xmlns:xlink="http://www.w3.org/1999/xlink" xml:space="preserve">

<style type="text/css"><![CDATA[
.node, .edge {opacity: 0.7;}
.node.selected, .edge.selected {opacity: 1;}
.edge:hover path { stroke: red; }
.edge:hover polygon { stroke: red; fill: red; }
]]></style>
<script type="application/ecmascript" xlink:href="svg.min.js"/>
<svg id="graph" class="graph">
<g id="graph0" class="graph" transform="scale(1 1) rotate(0) translate(4 120.88)">
<title>carla_get_transport_info</title>
<!-- Node1 -->
<g id="Node000001" class="node">
<title>Node1</title>
<g id="a_Node000001"><a xlink:title=" ">
<polygon fill="#999999" stroke="#666666" points="475.5,-94.88 355.25,-94.88 355.25,-75.62 475.5,-75.62 475.5,-94.88"/>
<text xml:space="preserve" text-anchor="middle" x="415.38" y="-81.38" font-family="Helvetica,sans-Serif" font-size="10.00">carla_get_transport_info</text>
</a>
</g>
</g>
<!-- Node2 -->
<g id="Node000002" class="node">
<title>Node2</title>
<g id="a_Node000002"><a xlink:href="carla-host_8cpp.html#a43db5e7d6259daf997e8ccc4db55e4ce" target="_top" xlink:title=" ">
<polygon fill="white" stroke="#666666" points="319.25,-116.88 165.25,-116.88 165.25,-97.62 319.25,-97.62 319.25,-116.88"/>
<text xml:space="preserve" text-anchor="middle" x="242.25" y="-103.38" font-family="Helvetica,sans-Serif" font-size="10.00">handle_carla_get_transport_info</text>
</a>
</g>
</g>
<!-- Node1&#45;&gt;Node2 -->
<g id="edge1_Node000001_Node000002" class="edge">
<title>Node1&#45;&gt;Node2</title>
<g id="a_edge1_Node000001_Node000002"><a xlink:title=" ">
<path fill="none" stroke="#63b8ff" d="M343.6,-94.35C335.71,-95.36 327.65,-96.4 319.7,-97.42"/>
<polygon fill="#63b8ff" stroke="#63b8ff" points="344.03,-97.82 353.5,-93.08 343.14,-90.88 344.03,-97.82"/>
</a>
</g>
</g>
<!-- Node4 -->
<g id="Node000004" class="node">
<title>Node4</title>
<g id="a_Node000004"><a xlink:href="structCarlaHostWindow_1_1PrivateData.html#a6e9256bef83f10091c00b45de312b735" target="_top" xlink:title=" ">
<polygon fill="white" stroke="#666666" points="306.88,-79.5 177.62,-79.5 177.62,-49 306.88,-49 306.88,-79.5"/>
<text xml:space="preserve" text-anchor="start" x="185.62" y="-66" font-family="Helvetica,sans-Serif" font-size="10.00">CarlaHostWindow::Private</text>
<text xml:space="preserve" text-anchor="middle" x="242.25" y="-54.75" font-family="Helvetica,sans-Serif" font-size="10.00">Data::refreshTransport</text>
</a>
</g>
</g>
<!-- Node1&#45;&gt;Node4 -->
<g id="edge3_Node000001_Node000004" class="edge">
<title>Node1&#45;&gt;Node4</title>
<g id="a_edge3_Node000001_Node000004"><a xlink:title=" ">
<path fill="none" stroke="#63b8ff" d="M343.59,-76.56C331.53,-75.08 319.06,-73.55 307.18,-72.1"/>
<polygon fill="#63b8ff" stroke="#63b8ff" points="343.15,-80.04 353.5,-77.78 344,-73.09 343.15,-80.04"/>
</a>
</g>
</g>
<!-- Node3 -->
<g id="Node000003" class="node">
<title>Node3</title>
<g id="a_Node000003"><a xlink:href="rest-server_8cpp.html#a0fc34f49b0e6eaed5e5c3accb409b1d1" target="_top" xlink:title=" ">
<polygon fill="white" stroke="#666666" points="83.12,-116.88 46.12,-116.88 46.12,-97.62 83.12,-97.62 83.12,-116.88"/>
<text xml:space="preserve" text-anchor="middle" x="64.62" y="-103.38" font-family="Helvetica,sans-Serif" font-size="10.00">main</text>
</a>
</g>
</g>
<!-- Node2&#45;&gt;Node3 -->
<g id="edge2_Node000002_Node000003" class="edge">
<title>Node2&#45;&gt;Node3</title>
<g id="a_edge2_Node000002_Node000003"><a xlink:title=" ">
<path fill="none" stroke="#63b8ff" d="M153.61,-107.25C127,-107.25 100.37,-107.25 83.49,-107.25"/>
<polygon fill="#63b8ff" stroke="#63b8ff" points="153.47,-110.75 163.47,-107.25 153.47,-103.75 153.47,-110.75"/>
</a>
</g>
</g>
<!-- Node5 -->
<g id="Node000005" class="node">
<title>Node5</title>
<g id="a_Node000005"><a xlink:href="structCarlaHostWindow_1_1PrivateData.html#a0b8c90a174ab2253f0b6930b7c08cfa4" target="_top" xlink:title=" ">
<polygon fill="white" stroke="#666666" points="129.25,-79.5 0,-79.5 0,-49 129.25,-49 129.25,-79.5"/>
<text xml:space="preserve" text-anchor="start" x="8" y="-66" font-family="Helvetica,sans-Serif" font-size="10.00">CarlaHostWindow::Private</text>
<text xml:space="preserve" text-anchor="middle" x="64.62" y="-54.75" font-family="Helvetica,sans-Serif" font-size="10.00">Data::idleFast</text>
</a>
</g>
</g>
<!-- Node4&#45;&gt;Node5 -->
<g id="edge4_Node000004_Node000005" class="edge">
<title>Node4&#45;&gt;Node5</title>
<g id="a_edge4_Node000004_Node000005"><a xlink:title=" ">
<path fill="none" stroke="#63b8ff" d="M165.86,-64.25C153.74,-64.25 141.29,-64.25 129.48,-64.25"/>
<polygon fill="#63b8ff" stroke="#63b8ff" points="165.84,-67.75 175.83,-64.25 165.83,-60.75 165.84,-67.75"/>
</a>
</g>
</g>
<!-- Node6 -->
<g id="Node000006" class="node">
<title>Node6</title>
<g id="a_Node000006"><a xlink:href="structCarlaHostWindow_1_1PrivateData.html#a415b08a76cc886af73cf6aff4343e9e1" target="_top" xlink:title=" ">
<polygon fill="white" stroke="#666666" points="129.25,-30.5 0,-30.5 0,0 129.25,0 129.25,-30.5"/>
<text xml:space="preserve" text-anchor="start" x="8" y="-17" font-family="Helvetica,sans-Serif" font-size="10.00">CarlaHostWindow::Private</text>
<text xml:space="preserve" text-anchor="middle" x="64.62" y="-5.75" font-family="Helvetica,sans-Serif" font-size="10.00">Data::updateSampleRate</text>
</a>
</g>
</g>
<!-- Node4&#45;&gt;Node6 -->
<g id="edge5_Node000004_Node000006" class="edge">
<title>Node4&#45;&gt;Node6</title>
<g id="a_edge5_Node000004_Node000006"><a xlink:title=" ">
<path fill="none" stroke="#63b8ff" d="M174.59,-45.65C157.27,-40.82 138.78,-35.66 122.05,-30.99"/>
<polygon fill="#63b8ff" stroke="#63b8ff" points="173.17,-48.89 183.74,-48.2 175.05,-42.15 173.17,-48.89"/>
</a>
</g>
</g>
</g>
</svg>
</svg>

<style type='text/css'>
<![CDATA[
[data-mouse-over-selected='false'] { opacity: 0.7; }
[data-mouse-over-selected='true']  { opacity: 1.0; }
]]>
</style>
<script type="application/ecmascript"><![CDATA[
document.addEventListener('DOMContentLoaded', (event) => {
  highlightEdges();
  highlightAdjacentNodes();
});
]]></script>
</svg>
