<?xml version="1.0" encoding="UTF-8" standalone="no"?>
<!DOCTYPE svg PUBLIC "-//W3C//DTD SVG 1.1//EN"
 "http://www.w3.org/Graphics/SVG/1.1/DTD/svg11.dtd">
<!-- Generated by graphviz version 14.0.2 (0)
 -->
<!-- Title: jackctl_server_add_slave Pages: 1 -->
<!--zoomable 373 -->

<svg id="main" version="1.1" xmlns="http://www.w3.org/2000/svg" xmlns:xlink="http://www.w3.org/1999/xlink" xml:space="preserve" onload="init(evt)">

<style type="text/css"><![CDATA[
.node, .edge {opacity: 0.7;}
.node.selected, .edge.selected {opacity: 1;}
.edge:hover path { stroke: red; }
.edge:hover polygon { stroke: red; fill: red; }
]]></style>

<defs>
  <circle id="rim" cx="0" cy="0" r="7"/>
  <circle id="rim2" cx="0" cy="0" r="3.5"/>
  <g id="zoomPlus">
    <use xlink:href="#rim" fill="#404040"><set attributeName="fill" to="#808080" begin="zoomplus.mouseover" end="zoomplus.mouseout"/></use>
    <path d="M-4,0h8M0,-4v8" fill="none" stroke="white" stroke-width="1.5" pointer-events="none"/>
  </g>
  <g id="zoomMin">
    <use xlink:href="#rim" fill="#404040"><set attributeName="fill" to="#808080" begin="zoomminus.mouseover" end="zoomminus.mouseout"/></use>
    <path d="M-4,0h8" fill="none" stroke="white" stroke-width="1.5" pointer-events="none"/>
  </g>
  <g id="arrowUp" transform="translate(30 24)">
    <use xlink:href="#rim"/>
    <path pointer-events="none" fill="none" stroke="white" stroke-width="1.5" d="M0,-3.0v7 M-2.5,-0.5L0,-3.0L2.5,-0.5"/>
  </g>
  <g id="arrowRight" transform="rotate(90) translate(36 -43)">
    <use xlink:href="#rim"/>
    <path pointer-events="none" fill="none" stroke="white" stroke-width="1.5" d="M0,-3.0v7 M-2.5,-0.5L0,-3.0L2.5,-0.5"/>
  </g>
  <g id="arrowDown" transform="rotate(180) translate(-30 -48)">
    <use xlink:href="#rim"/>
    <path pointer-events="none" fill="none" stroke="white" stroke-width="1.5" d="M0,-3.0v7 M-2.5,-0.5L0,-3.0L2.5,-0.5"/>
  </g>
  <g id="arrowLeft" transform="rotate(270) translate(-36 17)">
    <use xlink:href="#rim"/>
    <path pointer-events="none" fill="none" stroke="white" stroke-width="1.5" d="M0,-3.0v7 M-2.5,-0.5L0,-3.0L2.5,-0.5"/>
  </g>
  <g id="resetDef">
    <use xlink:href="#rim2" fill="#404040"><set attributeName="fill" to="#808080" begin="reset.mouseover" end="reset.mouseout"/></use>
  </g>
</defs>
<script type="application/ecmascript">
var viewWidth = 663;
var viewHeight = 373;
var sectionId = 'dynsection-20';
</script>
<script type="application/ecmascript" xlink:href="svg.min.js"/>
<svg id="graph" class="graph">
<g id="viewport">
<title>jackctl_server_add_slave</title>
<!-- Node1 -->
<g id="Node000001" class="node">
<title>Node1</title>
<g id="a_Node000001"><a xlink:title=" ">
<polygon fill="#999999" stroke="#666666" points="97.75,-100.88 0,-100.88 0,-70.38 97.75,-70.38 97.75,-100.88"/>
<text xml:space="preserve" text-anchor="start" x="8" y="-87.38" font-family="Helvetica,sans-Serif" font-size="10.00">jackctl_server_add</text>
<text xml:space="preserve" text-anchor="middle" x="48.88" y="-76.12" font-family="Helvetica,sans-Serif" font-size="10.00">_slave</text>
</a>
</g>
</g>
<!-- Node2 -->
<g id="Node000002" class="node">
<title>Node2</title>
<g id="a_Node000002"><a xlink:href="classJack_1_1JackServer.html#aaaac6d2596bd930079426e8a2df45c54" target="_top" xlink:title=" ">
<polygon fill="white" stroke="#666666" points="272,-261.25 134.5,-261.25 134.5,-242 272,-242 272,-261.25"/>
<text xml:space="preserve" text-anchor="middle" x="203.25" y="-247.75" font-family="Helvetica,sans-Serif" font-size="10.00">Jack::JackServer::AddSlave</text>
</a>
</g>
</g>
<!-- Node1&#45;&gt;Node2 -->
<g id="edge1_Node000001_Node000002" class="edge">
<title>Node1&#45;&gt;Node2</title>
<g id="a_edge1_Node000001_Node000002"><a xlink:title=" ">
<path fill="none" stroke="#63b8ff" d="M64.21,-101.24C92.52,-132.08 155.45,-200.64 185.56,-233.45"/>
<polygon fill="#63b8ff" stroke="#63b8ff" points="182.77,-235.58 192.11,-240.58 187.92,-230.84 182.77,-235.58"/>
</a>
</g>
</g>
<!-- Node7 -->
<g id="Node000007" class="node">
<title>Node7</title>
<g id="a_Node000007"><a xlink:href="classJack_1_1JackServer.html#ae24fa7135f14bda00ac71cd03a032a28" target="_top" xlink:title=" ">
<polygon fill="white" stroke="#666666" points="272.75,-132.25 133.75,-132.25 133.75,-113 272.75,-113 272.75,-132.25"/>
<text xml:space="preserve" text-anchor="middle" x="203.25" y="-118.75" font-family="Helvetica,sans-Serif" font-size="10.00">Jack::JackServer::IsRunning</text>
</a>
</g>
</g>
<!-- Node1&#45;&gt;Node7 -->
<g id="edge6_Node000001_Node000007" class="edge">
<title>Node1&#45;&gt;Node7</title>
<g id="a_edge6_Node000001_Node000007"><a xlink:title=" ">
<path fill="none" stroke="#63b8ff" d="M98.09,-97.33C114.61,-101.34 133.17,-105.85 150,-109.94"/>
<polygon fill="#63b8ff" stroke="#63b8ff" points="148.75,-113.24 159.29,-112.19 150.4,-106.43 148.75,-113.24"/>
</a>
</g>
</g>
<!-- Node10 -->
<g id="Node000010" class="node">
<title>Node10</title>
<g id="a_Node000010"><a xlink:href="common_2jack_2jslist_8h.html#a510326de6c1ac25668bc1b85876e2177" target="_top" xlink:title=" ">
<polygon fill="white" stroke="#666666" points="429,-56.25 335,-56.25 335,-37 429,-37 429,-56.25"/>
<text xml:space="preserve" text-anchor="middle" x="382" y="-42.75" font-family="Helvetica,sans-Serif" font-size="10.00">jack_slist_append</text>
</a>
</g>
</g>
<!-- Node1&#45;&gt;Node10 -->
<g id="edge9_Node000001_Node000010" class="edge">
<title>Node1&#45;&gt;Node10</title>
<g id="a_edge9_Node000001_Node000010"><a xlink:title=" ">
<path fill="none" stroke="#63b8ff" d="M98,-73.49C109.64,-70.9 122.09,-68.41 133.75,-66.62 198.32,-56.75 273.18,-51.56 323.46,-48.96"/>
<polygon fill="#63b8ff" stroke="#63b8ff" points="323.42,-52.47 333.24,-48.48 323.08,-45.48 323.42,-52.47"/>
</a>
</g>
</g>
<!-- Node14 -->
<g id="Node000014" class="node">
<title>Node14</title>
<g id="a_Node000014"><a xlink:href="JackControlAPI_8cpp.html#a4656d52ec2f2bd65d1b8ad0a52c0508b" target="_top" xlink:title=" ">
<polygon fill="white" stroke="#666666" points="266.75,-95.25 139.75,-95.25 139.75,-76 266.75,-76 266.75,-95.25"/>
<text xml:space="preserve" text-anchor="middle" x="203.25" y="-81.75" font-family="Helvetica,sans-Serif" font-size="10.00">jackctl_create_param_list</text>
</a>
</g>
</g>
<!-- Node1&#45;&gt;Node14 -->
<g id="edge13_Node000001_Node000014" class="edge">
<title>Node1&#45;&gt;Node14</title>
<g id="a_edge13_Node000001_Node000014"><a xlink:title=" ">
<path fill="none" stroke="#63b8ff" d="M98.09,-85.62C107.59,-85.62 117.77,-85.62 127.9,-85.62"/>
<polygon fill="#63b8ff" stroke="#63b8ff" points="127.77,-89.13 137.77,-85.63 127.77,-82.13 127.77,-89.13"/>
</a>
</g>
</g>
<!-- Node15 -->
<g id="Node000015" class="node">
<title>Node15</title>
<g id="a_Node000015"><a xlink:href="JackControlAPI_8cpp.html#a95c0c95350a2fe813738c0e6d7c02679" target="_top" xlink:title=" ">
<polygon fill="white" stroke="#666666" points="447.75,-19.25 316.25,-19.25 316.25,0 447.75,0 447.75,-19.25"/>
<text xml:space="preserve" text-anchor="middle" x="382" y="-5.75" font-family="Helvetica,sans-Serif" font-size="10.00">jackctl_destroy_param_list</text>
</a>
</g>
</g>
<!-- Node1&#45;&gt;Node15 -->
<g id="edge18_Node000001_Node000015" class="edge">
<title>Node1&#45;&gt;Node15</title>
<g id="a_edge18_Node000001_Node000015"><a xlink:title=" ">
<path fill="none" stroke="#63b8ff" d="M80.23,-69.95C95.85,-62.48 115.43,-54.01 133.75,-48.62 189.83,-32.14 255.25,-22.21 304.7,-16.5"/>
<polygon fill="#63b8ff" stroke="#63b8ff" points="304.9,-20 314.45,-15.41 304.12,-13.04 304.9,-20"/>
</a>
</g>
</g>
<!-- Node3 -->
<g id="Node000003" class="node">
<title>Node3</title>
<g id="a_Node000003"><a xlink:href="classJack_1_1JackDriverInterface.html#a087723b5af6c10f6e671aae059d1e5da" target="_top" xlink:title=" ">
<polygon fill="white" stroke="#666666" points="445.12,-217.88 318.88,-217.88 318.88,-187.38 445.12,-187.38 445.12,-217.88"/>
<text xml:space="preserve" text-anchor="start" x="326.88" y="-204.38" font-family="Helvetica,sans-Serif" font-size="10.00">Jack::JackDriverInterface</text>
<text xml:space="preserve" text-anchor="middle" x="382" y="-193.12" font-family="Helvetica,sans-Serif" font-size="10.00">::Attach</text>
</a>
</g>
</g>
<!-- Node2&#45;&gt;Node3 -->
<g id="edge2_Node000002_Node000003" class="edge">
<title>Node2&#45;&gt;Node3</title>
<g id="a_edge2_Node000002_Node000003"><a xlink:title=" ">
<path fill="none" stroke="#63b8ff" d="M240.44,-241.59C261.47,-235.76 288.64,-228.23 313.47,-221.34"/>
<polygon fill="#63b8ff" stroke="#63b8ff" points="314.16,-224.79 322.86,-218.74 312.29,-218.04 314.16,-224.79"/>
</a>
</g>
</g>
<!-- Node4 -->
<g id="Node000004" class="node">
<title>Node4</title>
<g id="a_Node000004"><a xlink:href="classJack_1_1JackClientInterface.html#af4549da0dd3c1cb23f188199c01b90e4" target="_top" xlink:title=" ">
<polygon fill="white" stroke="#666666" points="444.75,-364.88 319.25,-364.88 319.25,-334.38 444.75,-334.38 444.75,-364.88"/>
<text xml:space="preserve" text-anchor="start" x="327.25" y="-351.38" font-family="Helvetica,sans-Serif" font-size="10.00">Jack::JackClientInterface</text>
<text xml:space="preserve" text-anchor="middle" x="382" y="-340.12" font-family="Helvetica,sans-Serif" font-size="10.00">::Close</text>
</a>
</g>
</g>
<!-- Node2&#45;&gt;Node4 -->
<g id="edge3_Node000002_Node000004" class="edge">
<title>Node2&#45;&gt;Node4</title>
<g id="a_edge3_Node000002_Node000004"><a xlink:title=" ">
<path fill="none" stroke="#63b8ff" d="M216.09,-261.56C234.77,-276.83 272.67,-306.23 308.75,-324.62 312.23,-326.4 315.86,-328.09 319.56,-329.7"/>
<polygon fill="#63b8ff" stroke="#63b8ff" points="318.14,-332.9 328.72,-333.45 320.79,-326.42 318.14,-332.9"/>
</a>
</g>
</g>
<!-- Node5 -->
<g id="Node000005" class="node">
<title>Node5</title>
<g id="a_Node000005"><a xlink:href="classJack_1_1JackServer.html#ae29dc3cdd837bf4f7794f265bdf33a72" target="_top" xlink:title=" ">
<polygon fill="white" stroke="#666666" points="455.25,-315.88 308.75,-315.88 308.75,-285.38 455.25,-285.38 455.25,-315.88"/>
<text xml:space="preserve" text-anchor="start" x="316.75" y="-302.38" font-family="Helvetica,sans-Serif" font-size="10.00">Jack::JackServer::GetSynchro</text>
<text xml:space="preserve" text-anchor="middle" x="382" y="-291.12" font-family="Helvetica,sans-Serif" font-size="10.00">Table</text>
</a>
</g>
</g>
<!-- Node2&#45;&gt;Node5 -->
<g id="edge4_Node000002_Node000005" class="edge">
<title>Node2&#45;&gt;Node5</title>
<g id="a_edge4_Node000002_Node000005"><a xlink:title=" ">
<path fill="none" stroke="#63b8ff" d="M240.44,-261.66C261.47,-267.49 288.64,-275.02 313.47,-281.91"/>
<polygon fill="#63b8ff" stroke="#63b8ff" points="312.29,-285.21 322.86,-284.51 314.16,-278.46 312.29,-285.21"/>
</a>
</g>
</g>
<!-- Node6 -->
<g id="Node000006" class="node">
<title>Node6</title>
<g id="a_Node000006"><a xlink:href="classJack_1_1JackDriverInterface.html#a289bd2040d9342e69a0cc16663066413" target="_top" xlink:title=" ">
<polygon fill="white" stroke="#666666" points="445.12,-266.88 318.88,-266.88 318.88,-236.38 445.12,-236.38 445.12,-266.88"/>
<text xml:space="preserve" text-anchor="start" x="326.88" y="-253.38" font-family="Helvetica,sans-Serif" font-size="10.00">Jack::JackDriverInterface</text>
<text xml:space="preserve" text-anchor="middle" x="382" y="-242.12" font-family="Helvetica,sans-Serif" font-size="10.00">::SetMaster</text>
</a>
</g>
</g>
<!-- Node2&#45;&gt;Node6 -->
<g id="edge5_Node000002_Node000006" class="edge">
<title>Node2&#45;&gt;Node6</title>
<g id="a_edge5_Node000002_Node000006"><a xlink:title=" ">
<path fill="none" stroke="#63b8ff" d="M272.33,-251.62C283.71,-251.62 295.56,-251.62 307.08,-251.62"/>
<polygon fill="#63b8ff" stroke="#63b8ff" points="306.94,-255.13 316.94,-251.63 306.94,-248.13 306.94,-255.13"/>
</a>
</g>
</g>
<!-- Node8 -->
<g id="Node000008" class="node">
<title>Node8</title>
<g id="a_Node000008"><a xlink:href="Spc__Cpu_8h.html#a2569713fe026f7b153bba6e89d64498f" target="_top" xlink:title=" ">
<polygon fill="white" stroke="#666666" points="403.5,-132.25 360.5,-132.25 360.5,-113 403.5,-113 403.5,-132.25"/>
<text xml:space="preserve" text-anchor="middle" x="382" y="-118.75" font-family="Helvetica,sans-Serif" font-size="10.00">assert</text>
</a>
</g>
</g>
<!-- Node7&#45;&gt;Node8 -->
<g id="edge7_Node000007_Node000008" class="edge">
<title>Node7&#45;&gt;Node8</title>
<g id="a_edge7_Node000007_Node000008"><a xlink:title=" ">
<path fill="none" stroke="#63b8ff" d="M273.09,-122.62C299.31,-122.62 327.93,-122.62 349.11,-122.62"/>
<polygon fill="#63b8ff" stroke="#63b8ff" points="348.83,-126.13 358.83,-122.63 348.83,-119.13 348.83,-126.13"/>
</a>
</g>
</g>
<!-- Node9 -->
<g id="Node000009" class="node">
<title>Node9</title>
<g id="a_Node000009"><a xlink:href="group__ControlAPI.html#ga35f69faaee3bb9b958ed8c9a5f62246c" target="_top" xlink:title=" ">
<polygon fill="white" stroke="#666666" points="408,-169.25 356,-169.25 356,-150 408,-150 408,-169.25"/>
<text xml:space="preserve" text-anchor="middle" x="382" y="-155.75" font-family="Helvetica,sans-Serif" font-size="10.00">jack_log</text>
</a>
</g>
</g>
<!-- Node7&#45;&gt;Node9 -->
<g id="edge8_Node000007_Node000009" class="edge">
<title>Node7&#45;&gt;Node9</title>
<g id="a_edge8_Node000007_Node000009"><a xlink:title=" ">
<path fill="none" stroke="#63b8ff" d="M252.55,-132.74C281.57,-138.81 317.92,-146.42 344.53,-151.99"/>
<polygon fill="#63b8ff" stroke="#63b8ff" points="343.67,-155.39 354.17,-154.01 345.1,-148.53 343.67,-155.39"/>
</a>
</g>
</g>
<!-- Node11 -->
<g id="Node000011" class="node">
<title>Node11</title>
<g id="a_Node000011"><a xlink:href="common_2jack_2jslist_8h.html#a7116c3ccae707282d8f665cd4bb0ce89" target="_top" xlink:title=" ">
<polygon fill="white" stroke="#666666" points="574,-19.25 491.25,-19.25 491.25,0 574,0 574,-19.25"/>
<text xml:space="preserve" text-anchor="middle" x="532.62" y="-5.75" font-family="Helvetica,sans-Serif" font-size="10.00">jack_slist_alloc</text>
</a>
</g>
</g>
<!-- Node10&#45;&gt;Node11 -->
<g id="edge10_Node000010_Node000011" class="edge">
<title>Node10&#45;&gt;Node11</title>
<g id="a_edge10_Node000010_Node000011"><a xlink:title=" ">
<path fill="none" stroke="#63b8ff" d="M423.61,-36.51C440.98,-32.19 461.46,-27.09 479.9,-22.5"/>
<polygon fill="#63b8ff" stroke="#63b8ff" points="480.73,-25.9 489.59,-20.09 479.04,-19.11 480.73,-25.9"/>
</a>
</g>
</g>
<!-- Node13 -->
<g id="Node000013" class="node">
<title>Node13</title>
<g id="a_Node000013"><a xlink:href="common_2jack_2jslist_8h.html#a91dc33019b2582c75263ffa9083ba943" target="_top" xlink:title=" ">
<polygon fill="white" stroke="#666666" points="571.75,-56.25 493.5,-56.25 493.5,-37 571.75,-37 571.75,-56.25"/>
<text xml:space="preserve" text-anchor="middle" x="532.62" y="-42.75" font-family="Helvetica,sans-Serif" font-size="10.00">jack_slist_last</text>
</a>
</g>
</g>
<!-- Node10&#45;&gt;Node13 -->
<g id="edge12_Node000010_Node000013" class="edge">
<title>Node10&#45;&gt;Node13</title>
<g id="a_edge12_Node000010_Node000013"><a xlink:title=" ">
<path fill="none" stroke="#63b8ff" d="M429.21,-46.62C445.97,-46.62 464.96,-46.62 481.99,-46.62"/>
<polygon fill="#63b8ff" stroke="#63b8ff" points="481.91,-50.13 491.91,-46.63 481.91,-43.13 481.91,-50.13"/>
</a>
</g>
</g>
<!-- Node12 -->
<g id="Node000012" class="node">
<title>Node12</title>
<g id="a_Node000012"><a xlink:href="unzipfx-carla-control_2unzpriv_8h.html#ae8006e5e5b63d623442f5d3286fe9117" target="_top" xlink:title=" ">
<polygon fill="white" stroke="#666666" points="654.5,-56.25 610,-56.25 610,-37 654.5,-37 654.5,-56.25"/>
<text xml:space="preserve" text-anchor="middle" x="632.25" y="-42.75" font-family="Helvetica,sans-Serif" font-size="10.00">malloc</text>
</a>
</g>
</g>
<!-- Node11&#45;&gt;Node12 -->
<g id="edge11_Node000011_Node000012" class="edge">
<title>Node11&#45;&gt;Node12</title>
<g id="a_edge11_Node000011_Node000012"><a xlink:title=" ">
<path fill="none" stroke="#63b8ff" d="M560.3,-19.74C572.27,-24.27 586.48,-29.66 599.03,-34.41"/>
<polygon fill="#63b8ff" stroke="#63b8ff" points="597.53,-37.59 608.12,-37.86 600.01,-31.04 597.53,-37.59"/>
</a>
</g>
</g>
<!-- Node14&#45;&gt;Node8 -->
<g id="edge14_Node000014_Node000008" class="edge">
<title>Node14&#45;&gt;Node8</title>
<g id="a_edge14_Node000014_Node000008"><a xlink:title=" ">
<path fill="none" stroke="#63b8ff" d="M252.55,-95.74C283.35,-102.18 322.4,-110.36 349.32,-115.99"/>
<polygon fill="#63b8ff" stroke="#63b8ff" points="348.41,-119.38 358.92,-118 349.85,-112.53 348.41,-119.38"/>
</a>
</g>
</g>
<!-- Node14&#45;&gt;Node10 -->
<g id="edge15_Node000014_Node000010" class="edge">
<title>Node14&#45;&gt;Node10</title>
<g id="a_edge15_Node000014_Node000010"><a xlink:title=" ">
<path fill="none" stroke="#63b8ff" d="M249.77,-75.58C272.46,-70.57 300.13,-64.47 324.2,-59.16"/>
<polygon fill="#63b8ff" stroke="#63b8ff" points="324.84,-62.6 333.85,-57.03 323.33,-55.77 324.84,-62.6"/>
</a>
</g>
</g>
<!-- Node14&#45;&gt;Node12 -->
<g id="edge17_Node000014_Node000012" class="edge">
<title>Node14&#45;&gt;Node12</title>
<g id="a_edge17_Node000014_Node000012"><a xlink:title=" ">
<path fill="none" stroke="#63b8ff" d="M267.01,-87.28C341.06,-88.07 467.57,-85.79 574,-65.62 582.18,-64.07 590.81,-61.65 598.81,-59.05"/>
<polygon fill="#63b8ff" stroke="#63b8ff" points="599.85,-62.4 608.16,-55.82 597.57,-55.78 599.85,-62.4"/>
</a>
</g>
</g>
<!-- Node14&#45;&gt;Node15 -->
<g id="edge16_Node000014_Node000015" class="edge">
<title>Node14&#45;&gt;Node15</title>
<g id="a_edge16_Node000014_Node000015"><a xlink:title=" ">
<path fill="none" stroke="#63b8ff" d="M219.21,-75.66C238.96,-62.9 275.16,-40.86 308.75,-27.62 313.08,-25.92 317.62,-24.34 322.23,-22.88"/>
<polygon fill="#63b8ff" stroke="#63b8ff" points="322.97,-26.31 331.58,-20.12 320.99,-19.59 322.97,-26.31"/>
</a>
</g>
</g>
</g>
</svg>

<g id="navigator" transform="translate(0 0)" fill="#404254">
  <rect fill="#f2f5e9" fill-opacity="0.5" stroke="#606060" stroke-width=".5" x="0" y="0" width="60" height="60"/>
  <use id="zoomplus" xlink:href="#zoomPlus" x="17" y="9" onmousedown="handleZoom(evt,'in')"/>
  <use id="zoomminus" xlink:href="#zoomMin" x="42" y="9" onmousedown="handleZoom(evt,'out')"/>
  <use id="reset" xlink:href="#resetDef" x="30" y="36" onmousedown="handleReset()"/>
   <use id="arrowup" xlink:href="#arrowUp" x="0" y="0" onmousedown="handlePan(0,-1)"/>
  <use id="arrowright" xlink:href="#arrowRight" x="0" y="0" onmousedown="handlePan(1,0)"/>
  <use id="arrowdown" xlink:href="#arrowDown" x="0" y="0" onmousedown="handlePan(0,1)"/>
  <use id="arrowleft" xlink:href="#arrowLeft" x="0" y="0" onmousedown="handlePan(-1,0)"/>
</g>
<svg viewBox="0 0 15 15" width="100%" height="30px" preserveAspectRatio="xMaxYMin meet">
 <g id="arrow_out" transform="scale(0.3 0.3)">
  <a xlink:href="group__ControlAPI_gadacbb19d2f9e614ce33c8aedaa04fda1_cgraph_org.svg" target="_base">
   <rect id="button" ry="5" rx="5" y="6" x="6" height="38" width="38"
        fill="#f2f5e9" fill-opacity="0.5" stroke="#606060" stroke-width="1.0"/>
   <path id="arrow"
     d="M 11.500037,31.436501 C 11.940474,20.09759 22.043105,11.32322 32.158766,21.979434 L 37.068811,17.246167 C 37.068811,17.246167 37.088388,32 37.088388,32 L 22.160133,31.978069 C 22.160133,31.978069 26.997745,27.140456 26.997745,27.140456 C 18.528582,18.264221 13.291696,25.230495 11.500037,31.436501 z"
     style="fill:#404040;"/>
  </a>
 </g>
</svg>

<style type='text/css'>
<![CDATA[
[data-mouse-over-selected='false'] { opacity: 0.7; }
[data-mouse-over-selected='true']  { opacity: 1.0; }
]]>
</style>
<script type="application/ecmascript"><![CDATA[
document.addEventListener('DOMContentLoaded', (event) => {
  highlightEdges();
  highlightAdjacentNodes();
});
]]></script>
</svg>
