<?xml version="1.0" encoding="UTF-8" standalone="no"?>
<!DOCTYPE svg PUBLIC "-//W3C//DTD SVG 1.1//EN"
 "http://www.w3.org/Graphics/SVG/1.1/DTD/svg11.dtd">
<!-- Generated by graphviz version 14.0.2 (0)
 -->
<!-- Title: jackctl_server_close Pages: 1 -->
<!--zoomable 301 -->

<svg id="main" version="1.1" xmlns="http://www.w3.org/2000/svg" xmlns:xlink="http://www.w3.org/1999/xlink" xml:space="preserve" onload="init(evt)">

<style type="text/css"><![CDATA[
.node, .edge {opacity: 0.7;}
.node.selected, .edge.selected {opacity: 1;}
.edge:hover path { stroke: red; }
.edge:hover polygon { stroke: red; fill: red; }
]]></style>

<defs>
  <circle id="rim" cx="0" cy="0" r="7"/>
  <circle id="rim2" cx="0" cy="0" r="3.5"/>
  <g id="zoomPlus">
    <use xlink:href="#rim" fill="#404040"><set attributeName="fill" to="#808080" begin="zoomplus.mouseover" end="zoomplus.mouseout"/></use>
    <path d="M-4,0h8M0,-4v8" fill="none" stroke="white" stroke-width="1.5" pointer-events="none"/>
  </g>
  <g id="zoomMin">
    <use xlink:href="#rim" fill="#404040"><set attributeName="fill" to="#808080" begin="zoomminus.mouseover" end="zoomminus.mouseout"/></use>
    <path d="M-4,0h8" fill="none" stroke="white" stroke-width="1.5" pointer-events="none"/>
  </g>
  <g id="arrowUp" transform="translate(30 24)">
    <use xlink:href="#rim"/>
    <path pointer-events="none" fill="none" stroke="white" stroke-width="1.5" d="M0,-3.0v7 M-2.5,-0.5L0,-3.0L2.5,-0.5"/>
  </g>
  <g id="arrowRight" transform="rotate(90) translate(36 -43)">
    <use xlink:href="#rim"/>
    <path pointer-events="none" fill="none" stroke="white" stroke-width="1.5" d="M0,-3.0v7 M-2.5,-0.5L0,-3.0L2.5,-0.5"/>
  </g>
  <g id="arrowDown" transform="rotate(180) translate(-30 -48)">
    <use xlink:href="#rim"/>
    <path pointer-events="none" fill="none" stroke="white" stroke-width="1.5" d="M0,-3.0v7 M-2.5,-0.5L0,-3.0L2.5,-0.5"/>
  </g>
  <g id="arrowLeft" transform="rotate(270) translate(-36 17)">
    <use xlink:href="#rim"/>
    <path pointer-events="none" fill="none" stroke="white" stroke-width="1.5" d="M0,-3.0v7 M-2.5,-0.5L0,-3.0L2.5,-0.5"/>
  </g>
  <g id="resetDef">
    <use xlink:href="#rim2" fill="#404040"><set attributeName="fill" to="#808080" begin="reset.mouseover" end="reset.mouseout"/></use>
  </g>
</defs>
<script type="application/ecmascript">
var viewWidth = 614;
var viewHeight = 301;
var sectionId = 'dynsection-22';
</script>
<script type="application/ecmascript" xlink:href="svg.min.js"/>
<svg id="graph" class="graph">
<g id="viewport">
<title>jackctl_server_close</title>
<!-- Node1 -->
<g id="Node000001" class="node">
<title>Node1</title>
<g id="a_Node000001"><a xlink:title=" ">
<polygon fill="#999999" stroke="#666666" points="105.25,-130.88 0,-130.88 0,-111.62 105.25,-111.62 105.25,-130.88"/>
<text xml:space="preserve" text-anchor="middle" x="52.62" y="-117.38" font-family="Helvetica,sans-Serif" font-size="10.00">jackctl_server_close</text>
</a>
</g>
</g>
<!-- Node2 -->
<g id="Node000002" class="node">
<title>Node2</title>
<g id="a_Node000002"><a xlink:href="structJack_1_1JackTools.html#adacc314b70a09f21322aac32d2c826a9" target="_top" xlink:title=" ">
<polygon fill="white" stroke="#666666" points="267.5,-260.5 141.25,-260.5 141.25,-230 267.5,-230 267.5,-260.5"/>
<text xml:space="preserve" text-anchor="start" x="149.25" y="-247" font-family="Helvetica,sans-Serif" font-size="10.00">Jack::JackTools::Cleanup</text>
<text xml:space="preserve" text-anchor="middle" x="204.38" y="-235.75" font-family="Helvetica,sans-Serif" font-size="10.00">Files</text>
</a>
</g>
</g>
<!-- Node1&#45;&gt;Node2 -->
<g id="edge1_Node000001_Node000002" class="edge">
<title>Node1&#45;&gt;Node2</title>
<g id="a_edge1_Node000001_Node000002"><a xlink:title=" ">
<path fill="none" stroke="#63b8ff" d="M65.63,-131.19C89.35,-150.83 142.81,-195.1 175.71,-222.34"/>
<polygon fill="#63b8ff" stroke="#63b8ff" points="173.31,-224.9 183.24,-228.58 177.77,-219.5 173.31,-224.9"/>
</a>
</g>
</g>
<!-- Node6 -->
<g id="Node000006" class="node">
<title>Node6</title>
<g id="a_Node000006"><a xlink:href="classJack_1_1JackServer.html#a85ca7a4c2954406452df11ad104b7a7c" target="_top" xlink:title=" ">
<polygon fill="white" stroke="#666666" points="264.5,-168.88 144.25,-168.88 144.25,-149.62 264.5,-149.62 264.5,-168.88"/>
<text xml:space="preserve" text-anchor="middle" x="204.38" y="-155.38" font-family="Helvetica,sans-Serif" font-size="10.00">Jack::JackServer::Close</text>
</a>
</g>
</g>
<!-- Node1&#45;&gt;Node6 -->
<g id="edge5_Node000001_Node000006" class="edge">
<title>Node1&#45;&gt;Node6</title>
<g id="a_edge5_Node000001_Node000006"><a xlink:title=" ">
<path fill="none" stroke="#63b8ff" d="M93.36,-131.33C111.54,-135.95 133.3,-141.47 152.64,-146.38"/>
<polygon fill="#63b8ff" stroke="#63b8ff" points="151.69,-149.75 162.25,-148.81 153.41,-142.96 151.69,-149.75"/>
</a>
</g>
</g>
<!-- Node9 -->
<g id="Node000009" class="node">
<title>Node9</title>
<g id="a_Node000009"><a xlink:href="group__ControlAPI.html#ga35f69faaee3bb9b958ed8c9a5f62246c" target="_top" xlink:title=" ">
<polygon fill="white" stroke="#666666" points="395.25,-131.88 343.25,-131.88 343.25,-112.62 395.25,-112.62 395.25,-131.88"/>
<text xml:space="preserve" text-anchor="middle" x="369.25" y="-118.38" font-family="Helvetica,sans-Serif" font-size="10.00">jack_log</text>
</a>
</g>
</g>
<!-- Node1&#45;&gt;Node9 -->
<g id="edge13_Node000001_Node000009" class="edge">
<title>Node1&#45;&gt;Node9</title>
<g id="a_edge13_Node000001_Node000009"><a xlink:title=" ">
<path fill="none" stroke="#63b8ff" d="M105.58,-121.42C169.32,-121.62 275.77,-121.96 331.57,-122.13"/>
<polygon fill="#63b8ff" stroke="#63b8ff" points="331.48,-125.63 341.49,-122.16 331.5,-118.63 331.48,-125.63"/>
</a>
</g>
</g>
<!-- Node10 -->
<g id="Node000010" class="node">
<title>Node10</title>
<g id="a_Node000010"><a xlink:href="Shm_8cpp.html#a5fab518b092b29db7f8d6f13cc620b0e" target="_top" xlink:title=" ">
<polygon fill="white" stroke="#666666" points="252.88,-90.88 155.88,-90.88 155.88,-71.62 252.88,-71.62 252.88,-90.88"/>
<text xml:space="preserve" text-anchor="middle" x="204.38" y="-77.38" font-family="Helvetica,sans-Serif" font-size="10.00">jack_cleanup_shm</text>
</a>
</g>
</g>
<!-- Node1&#45;&gt;Node10 -->
<g id="edge9_Node000001_Node000010" class="edge">
<title>Node1&#45;&gt;Node10</title>
<g id="a_edge9_Node000001_Node000010"><a xlink:title=" ">
<path fill="none" stroke="#63b8ff" d="M91.41,-111.16C110.57,-106.04 134.05,-99.77 154.56,-94.29"/>
<polygon fill="#63b8ff" stroke="#63b8ff" points="155.38,-97.69 164.14,-91.73 153.57,-90.93 155.38,-97.69"/>
</a>
</g>
</g>
<!-- Node22 -->
<g id="Node000022" class="node">
<title>Node22</title>
<g id="a_Node000022"><a xlink:href="Shm_8cpp.html#ac499b5fe39ccaa88a26a12096fd084c3" target="_top" xlink:title=" ">
<polygon fill="white" stroke="#666666" points="261.5,-45.88 147.25,-45.88 147.25,-26.62 261.5,-26.62 261.5,-45.88"/>
<text xml:space="preserve" text-anchor="middle" x="204.38" y="-32.38" font-family="Helvetica,sans-Serif" font-size="10.00">jack_unregister_server</text>
</a>
</g>
</g>
<!-- Node1&#45;&gt;Node22 -->
<g id="edge14_Node000001_Node000022" class="edge">
<title>Node1&#45;&gt;Node22</title>
<g id="a_edge14_Node000001_Node000022"><a xlink:title=" ">
<path fill="none" stroke="#63b8ff" d="M66.77,-111.2C83.47,-98.71 113.48,-77.22 141.25,-62.25 148.98,-58.08 157.52,-54.12 165.73,-50.61"/>
<polygon fill="#63b8ff" stroke="#63b8ff" points="166.93,-53.9 174.84,-46.84 164.26,-47.43 166.93,-53.9"/>
</a>
</g>
</g>
<!-- Node3 -->
<g id="Node000003" class="node">
<title>Node3</title>
<g id="a_Node000003"><a xlink:href="structJack_1_1JackTools.html#a2ee61a0711fc6de8e2bc5f28e1079092" target="_top" xlink:title=" ">
<polygon fill="white" stroke="#666666" points="435,-292.88 303.5,-292.88 303.5,-273.62 435,-273.62 435,-292.88"/>
<text xml:space="preserve" text-anchor="middle" x="369.25" y="-279.38" font-family="Helvetica,sans-Serif" font-size="10.00">Jack::JackTools::ServerDir</text>
</a>
</g>
</g>
<!-- Node2&#45;&gt;Node3 -->
<g id="edge2_Node000002_Node000003" class="edge">
<title>Node2&#45;&gt;Node3</title>
<g id="a_edge2_Node000002_Node000003"><a xlink:title=" ">
<path fill="none" stroke="#63b8ff" d="M267.88,-259.83C283.18,-263.4 299.42,-267.19 314.28,-270.66"/>
<polygon fill="#63b8ff" stroke="#63b8ff" points="313.33,-274.03 323.86,-272.89 314.92,-267.21 313.33,-274.03"/>
</a>
</g>
</g>
<!-- Node4 -->
<g id="Node000004" class="node">
<title>Node4</title>
<g id="a_Node000004"><a xlink:href="structJack_1_1JackTools.html#a034adcab30f4473aaa0e5adae8f61dd6" target="_top" xlink:title=" ">
<polygon fill="#fff0f0" stroke="red" points="600.25,-273.88 476.25,-273.88 476.25,-254.62 600.25,-254.62 600.25,-273.88"/>
<text xml:space="preserve" text-anchor="middle" x="538.25" y="-260.38" font-family="Helvetica,sans-Serif" font-size="10.00">Jack::JackTools::UserDir</text>
</a>
</g>
</g>
<!-- Node2&#45;&gt;Node4 -->
<g id="edge4_Node000002_Node000004" class="edge">
<title>Node2&#45;&gt;Node4</title>
<g id="a_edge4_Node000002_Node000004"><a xlink:title=" ">
<path fill="none" stroke="#63b8ff" d="M267.8,-248.82C323.69,-252.02 405.66,-256.72 464.5,-260.09"/>
<polygon fill="#63b8ff" stroke="#63b8ff" points="464.25,-263.58 474.44,-260.65 464.65,-256.59 464.25,-263.58"/>
</a>
</g>
</g>
<!-- Node3&#45;&gt;Node4 -->
<g id="edge3_Node000003_Node000004" class="edge">
<title>Node3&#45;&gt;Node4</title>
<g id="a_edge3_Node000003_Node000004"><a xlink:title=" ">
<path fill="none" stroke="#63b8ff" d="M435.29,-275.85C444.91,-274.76 454.86,-273.62 464.61,-272.51"/>
<polygon fill="#63b8ff" stroke="#63b8ff" points="464.89,-276.01 474.43,-271.4 464.1,-269.05 464.89,-276.01"/>
</a>
</g>
</g>
<!-- Node7 -->
<g id="Node000007" class="node">
<title>Node7</title>
<g id="a_Node000007"><a xlink:href="classJack_1_1JackMessageBuffer.html#a14b7273de8c420317a19bd51dfbb3f33" target="_top" xlink:title=" ">
<polygon fill="white" stroke="#666666" points="433.12,-217.5 305.38,-217.5 305.38,-187 433.12,-187 433.12,-217.5"/>
<text xml:space="preserve" text-anchor="start" x="313.38" y="-204" font-family="Helvetica,sans-Serif" font-size="10.00">Jack::JackMessageBuffer</text>
<text xml:space="preserve" text-anchor="middle" x="369.25" y="-192.75" font-family="Helvetica,sans-Serif" font-size="10.00">::Destroy</text>
</a>
</g>
</g>
<!-- Node6&#45;&gt;Node7 -->
<g id="edge6_Node000006_Node000007" class="edge">
<title>Node6&#45;&gt;Node7</title>
<g id="a_edge6_Node000006_Node000007"><a xlink:title=" ">
<path fill="none" stroke="#63b8ff" d="M243.56,-169.33C259.68,-173.59 278.98,-178.68 297.52,-183.58"/>
<polygon fill="#63b8ff" stroke="#63b8ff" points="296.6,-186.95 307.17,-186.12 298.39,-180.19 296.6,-186.95"/>
</a>
</g>
</g>
<!-- Node8 -->
<g id="Node000008" class="node">
<title>Node8</title>
<g id="a_Node000008"><a xlink:href="JackTime_8h.html#a5f96abaf349c1fa6e8ecdaab144ba6f7" target="_top" xlink:title=" ">
<polygon fill="white" stroke="#666666" points="396.38,-168.88 342.12,-168.88 342.12,-149.62 396.38,-149.62 396.38,-168.88"/>
<text xml:space="preserve" text-anchor="middle" x="369.25" y="-155.38" font-family="Helvetica,sans-Serif" font-size="10.00">EndTime</text>
</a>
</g>
</g>
<!-- Node6&#45;&gt;Node8 -->
<g id="edge7_Node000006_Node000008" class="edge">
<title>Node6&#45;&gt;Node8</title>
<g id="a_edge7_Node000006_Node000008"><a xlink:title=" ">
<path fill="none" stroke="#63b8ff" d="M264.64,-159.25C286.63,-159.25 310.96,-159.25 330.52,-159.25"/>
<polygon fill="#63b8ff" stroke="#63b8ff" points="330.5,-162.75 340.5,-159.25 330.5,-155.75 330.5,-162.75"/>
</a>
</g>
</g>
<!-- Node6&#45;&gt;Node9 -->
<g id="edge8_Node000006_Node000009" class="edge">
<title>Node6&#45;&gt;Node9</title>
<g id="a_edge8_Node000006_Node000009"><a xlink:title=" ">
<path fill="none" stroke="#63b8ff" d="M249.88,-149.14C275.62,-143.29 307.61,-136.03 331.84,-130.52"/>
<polygon fill="#63b8ff" stroke="#63b8ff" points="332.59,-133.94 341.57,-128.31 331.04,-127.11 332.59,-133.94"/>
</a>
</g>
</g>
<!-- Node11 -->
<g id="Node000011" class="node">
<title>Node11</title>
<g id="a_Node000011"><a xlink:href="classandroid_1_1Shm.html#ae8378f15e1ff9ad6452739bb51c02ee8" target="_top" xlink:title=" ">
<polygon fill="white" stroke="#666666" points="416.62,-94.5 321.88,-94.5 321.88,-64 416.62,-64 416.62,-94.5"/>
<text xml:space="preserve" text-anchor="start" x="329.88" y="-81" font-family="Helvetica,sans-Serif" font-size="10.00">android::Shm::jack</text>
<text xml:space="preserve" text-anchor="middle" x="369.25" y="-69.75" font-family="Helvetica,sans-Serif" font-size="10.00">_cleanup_shm</text>
</a>
</g>
</g>
<!-- Node10&#45;&gt;Node11 -->
<g id="edge10_Node000010_Node000011" class="edge">
<title>Node10&#45;&gt;Node11</title>
<g id="a_edge10_Node000010_Node000011"><a xlink:title=" ">
<path fill="none" stroke="#63b8ff" d="M253.36,-80.66C271.16,-80.44 291.53,-80.19 310.13,-79.96"/>
<polygon fill="#63b8ff" stroke="#63b8ff" points="309.98,-83.47 319.93,-79.84 309.89,-76.47 309.98,-83.47"/>
</a>
</g>
</g>
<!-- Node12 -->
<g id="Node000012" class="node">
<title>Node12</title>
<g id="a_Node000012"><a xlink:href="classandroid_1_1Shm.html#ad2bc0d47cad10ddfca2d63552c952829" target="_top" xlink:title=" ">
<polygon fill="#fff0f0" stroke="red" points="605.5,-104.88 471,-104.88 471,-85.62 605.5,-85.62 605.5,-104.88"/>
<text xml:space="preserve" text-anchor="middle" x="538.25" y="-91.38" font-family="Helvetica,sans-Serif" font-size="10.00">android::Shm::cleanup_shm</text>
</a>
</g>
</g>
<!-- Node11&#45;&gt;Node12 -->
<g id="edge11_Node000011_Node000012" class="edge">
<title>Node11&#45;&gt;Node12</title>
<g id="a_edge11_Node000011_Node000012"><a xlink:title=" ">
<path fill="none" stroke="#63b8ff" d="M416.77,-83.71C430.07,-84.98 444.95,-86.41 459.58,-87.81"/>
<polygon fill="#63b8ff" stroke="#63b8ff" points="458.9,-91.26 469.19,-88.73 459.57,-84.29 458.9,-91.26"/>
</a>
</g>
</g>
<!-- Node20 -->
<g id="Node000020" class="node">
<title>Node20</title>
<g id="a_Node000020"><a xlink:href="classandroid_1_1Shm.html#ab76391faafacd8ad44da770df37835a7" target="_top" xlink:title=" ">
<polygon fill="#fff0f0" stroke="red" points="599.5,-67.88 477,-67.88 477,-48.62 599.5,-48.62 599.5,-67.88"/>
<text xml:space="preserve" text-anchor="middle" x="538.25" y="-54.38" font-family="Helvetica,sans-Serif" font-size="10.00">android::Shm::Instantiate</text>
</a>
</g>
</g>
<!-- Node11&#45;&gt;Node20 -->
<g id="edge12_Node000011_Node000020" class="edge">
<title>Node11&#45;&gt;Node20</title>
<g id="a_edge12_Node000011_Node000020"><a xlink:title=" ">
<path fill="none" stroke="#63b8ff" d="M416.77,-73.4C431.82,-71.51 448.89,-69.36 465.34,-67.29"/>
<polygon fill="#63b8ff" stroke="#63b8ff" points="465.62,-70.79 475.1,-66.06 464.74,-63.84 465.62,-70.79"/>
</a>
</g>
</g>
<!-- Node23 -->
<g id="Node000023" class="node">
<title>Node23</title>
<g id="a_Node000023"><a xlink:href="classandroid_1_1Shm.html#a93b27537c17d88cb3044daf2a8a032ca" target="_top" xlink:title=" ">
<polygon fill="white" stroke="#666666" points="417.38,-45.5 321.12,-45.5 321.12,-15 417.38,-15 417.38,-45.5"/>
<text xml:space="preserve" text-anchor="start" x="329.12" y="-32" font-family="Helvetica,sans-Serif" font-size="10.00">android::Shm::jack</text>
<text xml:space="preserve" text-anchor="middle" x="369.25" y="-20.75" font-family="Helvetica,sans-Serif" font-size="10.00">_unregister_server</text>
</a>
</g>
</g>
<!-- Node22&#45;&gt;Node23 -->
<g id="edge15_Node000022_Node000023" class="edge">
<title>Node22&#45;&gt;Node23</title>
<g id="a_edge15_Node000022_Node000023"><a xlink:title=" ">
<path fill="none" stroke="#63b8ff" d="M261.88,-34.17C277.34,-33.6 294.11,-32.98 309.68,-32.41"/>
<polygon fill="#63b8ff" stroke="#63b8ff" points="309.38,-35.92 319.25,-32.06 309.13,-28.93 309.38,-35.92"/>
</a>
</g>
</g>
<!-- Node23&#45;&gt;Node20 -->
<g id="edge16_Node000023_Node000020" class="edge">
<title>Node23&#45;&gt;Node20</title>
<g id="a_edge16_Node000023_Node000020"><a xlink:title=" ">
<path fill="none" stroke="#63b8ff" d="M417.66,-38.2C432.62,-40.71 449.5,-43.54 465.76,-46.26"/>
<polygon fill="#63b8ff" stroke="#63b8ff" points="464.96,-49.68 475.4,-47.88 466.11,-42.77 464.96,-49.68"/>
</a>
</g>
</g>
<!-- Node24 -->
<g id="Node000024" class="node">
<title>Node24</title>
<g id="a_Node000024"><a xlink:href="classandroid_1_1Shm.html#ab1767010b4714405a511aeead38c72a7" target="_top" xlink:title=" ">
<polygon fill="#fff0f0" stroke="red" points="598,-30.5 478.5,-30.5 478.5,0 598,0 598,-30.5"/>
<text xml:space="preserve" text-anchor="start" x="486.5" y="-17" font-family="Helvetica,sans-Serif" font-size="10.00">android::Shm::unregister</text>
<text xml:space="preserve" text-anchor="middle" x="538.25" y="-5.75" font-family="Helvetica,sans-Serif" font-size="10.00">_server</text>
</a>
</g>
</g>
<!-- Node23&#45;&gt;Node24 -->
<g id="edge17_Node000023_Node000024" class="edge">
<title>Node23&#45;&gt;Node24</title>
<g id="a_edge17_Node000023_Node000024"><a xlink:title=" ">
<path fill="none" stroke="#63b8ff" d="M417.66,-25.99C432.94,-24.62 450.21,-23.07 466.78,-21.58"/>
<polygon fill="#63b8ff" stroke="#63b8ff" points="466.96,-25.08 476.6,-20.7 466.33,-18.11 466.96,-25.08"/>
</a>
</g>
</g>
</g>
</svg>

<g id="navigator" transform="translate(0 0)" fill="#404254">
  <rect fill="#f2f5e9" fill-opacity="0.5" stroke="#606060" stroke-width=".5" x="0" y="0" width="60" height="60"/>
  <use id="zoomplus" xlink:href="#zoomPlus" x="17" y="9" onmousedown="handleZoom(evt,'in')"/>
  <use id="zoomminus" xlink:href="#zoomMin" x="42" y="9" onmousedown="handleZoom(evt,'out')"/>
  <use id="reset" xlink:href="#resetDef" x="30" y="36" onmousedown="handleReset()"/>
   <use id="arrowup" xlink:href="#arrowUp" x="0" y="0" onmousedown="handlePan(0,-1)"/>
  <use id="arrowright" xlink:href="#arrowRight" x="0" y="0" onmousedown="handlePan(1,0)"/>
  <use id="arrowdown" xlink:href="#arrowDown" x="0" y="0" onmousedown="handlePan(0,1)"/>
  <use id="arrowleft" xlink:href="#arrowLeft" x="0" y="0" onmousedown="handlePan(-1,0)"/>
</g>
<svg viewBox="0 0 15 15" width="100%" height="30px" preserveAspectRatio="xMaxYMin meet">
 <g id="arrow_out" transform="scale(0.3 0.3)">
  <a xlink:href="group__ControlAPI_gab09dea0a3ffc38e439cbceaa33951a2c_cgraph_org.svg" target="_base">
   <rect id="button" ry="5" rx="5" y="6" x="6" height="38" width="38"
        fill="#f2f5e9" fill-opacity="0.5" stroke="#606060" stroke-width="1.0"/>
   <path id="arrow"
     d="M 11.500037,31.436501 C 11.940474,20.09759 22.043105,11.32322 32.158766,21.979434 L 37.068811,17.246167 C 37.068811,17.246167 37.088388,32 37.088388,32 L 22.160133,31.978069 C 22.160133,31.978069 26.997745,27.140456 26.997745,27.140456 C 18.528582,18.264221 13.291696,25.230495 11.500037,31.436501 z"
     style="fill:#404040;"/>
  </a>
 </g>
</svg>

<style type='text/css'>
<![CDATA[
[data-mouse-over-selected='false'] { opacity: 0.7; }
[data-mouse-over-selected='true']  { opacity: 1.0; }
]]>
</style>
<script type="application/ecmascript"><![CDATA[
document.addEventListener('DOMContentLoaded', (event) => {
  highlightEdges();
  highlightAdjacentNodes();
});
]]></script>
</svg>
