<?xml version="1.0" encoding="UTF-8" standalone="no"?>
<!DOCTYPE svg PUBLIC "-//W3C//DTD SVG 1.1//EN"
 "http://www.w3.org/Graphics/SVG/1.1/DTD/svg11.dtd">
<!-- Generated by graphviz version 14.0.2 (0)
 -->
<!-- Title: carla_transport_bpm Pages: 1 -->
<svg width="281pt" height="82pt"
 viewBox="0.00 0.00 281.00 82.00" xmlns="http://www.w3.org/2000/svg" xmlns:xlink="http://www.w3.org/1999/xlink">
<g id="graph0" class="graph" transform="scale(1 1) rotate(0) translate(4 78.25)">
<title>carla_transport_bpm</title>
<!-- Node1 -->
<g id="Node000001" class="node">
<title>Node1</title>
<g id="a_Node000001"><a xlink:title=" ">
<polygon fill="#999999" stroke="#666666" points="104.5,-37.25 0,-37.25 0,-18 104.5,-18 104.5,-37.25"/>
<text xml:space="preserve" text-anchor="middle" x="52.25" y="-23.75" font-family="Helvetica,sans-Serif" font-size="10.00">carla_transport_bpm</text>
</a>
</g>
</g>
<!-- Node2 -->
<g id="Node000002" class="node">
<title>Node2</title>
<g id="a_Node000002"><a xlink:href="classCarlaEngine.html#ab14908b8b381cbef30837a3604cea88e" target="_top" xlink:title=" ">
<polygon fill="white" stroke="#666666" points="264.12,-56.25 149.12,-56.25 149.12,-37 264.12,-37 264.12,-56.25"/>
<text xml:space="preserve" text-anchor="middle" x="206.62" y="-42.75" font-family="Helvetica,sans-Serif" font-size="10.00">CarlaEngine::isRunning</text>
</a>
</g>
</g>
<!-- Node1&#45;&gt;Node2 -->
<g id="edge1_Node000001_Node000002" class="edge">
<title>Node1&#45;&gt;Node2</title>
<g id="a_edge1_Node000001_Node000002"><a xlink:title=" ">
<path fill="none" stroke="#63b8ff" d="M104.84,-34.06C115.35,-35.37 126.55,-36.77 137.54,-38.13"/>
<polygon fill="#63b8ff" stroke="#63b8ff" points="137,-41.6 147.36,-39.36 137.87,-34.65 137,-41.6"/>
</a>
</g>
</g>
<!-- Node3 -->
<g id="Node000003" class="node">
<title>Node3</title>
<g id="a_Node000003"><a xlink:href="classCarlaEngine.html#a20624ced07052d0fe218abba776b0d96" target="_top" xlink:title=" ">
<polygon fill="white" stroke="#666666" points="272.75,-19.25 140.5,-19.25 140.5,0 272.75,0 272.75,-19.25"/>
<text xml:space="preserve" text-anchor="middle" x="206.62" y="-5.75" font-family="Helvetica,sans-Serif" font-size="10.00">CarlaEngine::transportBPM</text>
</a>
</g>
</g>
<!-- Node1&#45;&gt;Node3 -->
<g id="edge3_Node000001_Node000003" class="edge">
<title>Node1&#45;&gt;Node3</title>
<g id="a_edge3_Node000001_Node000003"><a xlink:title=" ">
<path fill="none" stroke="#63b8ff" d="M104.84,-21.53C112.52,-20.62 120.59,-19.67 128.66,-18.72"/>
<polygon fill="#63b8ff" stroke="#63b8ff" points="129.02,-22.2 138.54,-17.55 128.2,-15.25 129.02,-22.2"/>
</a>
</g>
</g>
<!-- Node2&#45;&gt;Node2 -->
<g id="edge2_Node000002_Node000002" class="edge">
<title>Node2&#45;&gt;Node2</title>
<g id="a_edge2_Node000002_Node000002"><a xlink:title=" ">
<path fill="none" stroke="#63b8ff" d="M182.46,-56.54C171.43,-65.15 179.49,-74.25 206.62,-74.25 221.89,-74.25 231.12,-71.37 234.31,-67.32"/>
<polygon fill="#63b8ff" stroke="#63b8ff" points="237.69,-66.4 231.26,-57.98 231.03,-68.57 237.69,-66.4"/>
</a>
</g>
</g>
</g>
</svg>
