<?xml version="1.0" encoding="UTF-8" standalone="no"?>
<!DOCTYPE svg PUBLIC "-//W3C//DTD SVG 1.1//EN"
 "http://www.w3.org/Graphics/SVG/1.1/DTD/svg11.dtd">
<!-- Generated by graphviz version 14.0.2 (0)
 -->
<!-- Title: plugins/CarlaBase/carla/source/modules/dgl/ImageBaseWidgets.hpp Pages: 1 -->
<!--zoomable 461 -->

<svg id="main" version="1.1" xmlns="http://www.w3.org/2000/svg" xmlns:xlink="http://www.w3.org/1999/xlink" xml:space="preserve" onload="init(evt)">

<style type="text/css"><![CDATA[
.node, .edge {opacity: 0.7;}
.node.selected, .edge.selected {opacity: 1;}
.edge:hover path { stroke: red; }
.edge:hover polygon { stroke: red; fill: red; }
]]></style>

<defs>
  <circle id="rim" cx="0" cy="0" r="7"/>
  <circle id="rim2" cx="0" cy="0" r="3.5"/>
  <g id="zoomPlus">
    <use xlink:href="#rim" fill="#404040"><set attributeName="fill" to="#808080" begin="zoomplus.mouseover" end="zoomplus.mouseout"/></use>
    <path d="M-4,0h8M0,-4v8" fill="none" stroke="white" stroke-width="1.5" pointer-events="none"/>
  </g>
  <g id="zoomMin">
    <use xlink:href="#rim" fill="#404040"><set attributeName="fill" to="#808080" begin="zoomminus.mouseover" end="zoomminus.mouseout"/></use>
    <path d="M-4,0h8" fill="none" stroke="white" stroke-width="1.5" pointer-events="none"/>
  </g>
  <g id="arrowUp" transform="translate(30 24)">
    <use xlink:href="#rim"/>
    <path pointer-events="none" fill="none" stroke="white" stroke-width="1.5" d="M0,-3.0v7 M-2.5,-0.5L0,-3.0L2.5,-0.5"/>
  </g>
  <g id="arrowRight" transform="rotate(90) translate(36 -43)">
    <use xlink:href="#rim"/>
    <path pointer-events="none" fill="none" stroke="white" stroke-width="1.5" d="M0,-3.0v7 M-2.5,-0.5L0,-3.0L2.5,-0.5"/>
  </g>
  <g id="arrowDown" transform="rotate(180) translate(-30 -48)">
    <use xlink:href="#rim"/>
    <path pointer-events="none" fill="none" stroke="white" stroke-width="1.5" d="M0,-3.0v7 M-2.5,-0.5L0,-3.0L2.5,-0.5"/>
  </g>
  <g id="arrowLeft" transform="rotate(270) translate(-36 17)">
    <use xlink:href="#rim"/>
    <path pointer-events="none" fill="none" stroke="white" stroke-width="1.5" d="M0,-3.0v7 M-2.5,-0.5L0,-3.0L2.5,-0.5"/>
  </g>
  <g id="resetDef">
    <use xlink:href="#rim2" fill="#404040"><set attributeName="fill" to="#808080" begin="reset.mouseover" end="reset.mouseout"/></use>
  </g>
</defs>
<script type="application/ecmascript">
var viewWidth = 1254;
var viewHeight = 461;
var sectionId = 'dynsection-1';
</script>
<script type="application/ecmascript" xlink:href="svg.min.js"/>
<svg id="graph" class="graph">
<g id="viewport">
<title>plugins/CarlaBase/carla/source/modules/dgl/ImageBaseWidgets.hpp</title>
<!-- Node1 -->
<g id="Node000001" class="node">
<title>Node1</title>
<g id="a_Node000001"><a xlink:title=" ">
<polygon fill="#999999" stroke="#666666" points="990.88,-453 834.62,-453 834.62,-411.25 990.88,-411.25 990.88,-453"/>
<text xml:space="preserve" text-anchor="start" x="842.62" y="-439.5" font-family="Helvetica,sans-Serif" font-size="10.00">plugins/CarlaBase/carla</text>
<text xml:space="preserve" text-anchor="start" x="842.62" y="-428.25" font-family="Helvetica,sans-Serif" font-size="10.00">/source/modules/dgl/ImageBase</text>
<text xml:space="preserve" text-anchor="middle" x="912.75" y="-417" font-family="Helvetica,sans-Serif" font-size="10.00">Widgets.hpp</text>
</a>
</g>
</g>
<!-- Node2 -->
<g id="Node000002" class="node">
<title>Node2</title>
<g id="a_Node000002"><a xlink:href="ImageWidgets_8hpp.html" target="_top" xlink:title=" ">
<polygon fill="white" stroke="#666666" points="697.25,-219.75 510.25,-219.75 510.25,-189.25 697.25,-189.25 697.25,-219.75"/>
<text xml:space="preserve" text-anchor="start" x="518.25" y="-206.25" font-family="Helvetica,sans-Serif" font-size="10.00">plugins/CarlaBase/carla</text>
<text xml:space="preserve" text-anchor="middle" x="603.75" y="-195" font-family="Helvetica,sans-Serif" font-size="10.00">/source/modules/dgl/ImageWidgets.hpp</text>
</a>
</g>
</g>
<!-- Node1&#45;&gt;Node2 -->
<g id="edge1_Node000001_Node000002" class="edge">
<title>Node1&#45;&gt;Node2</title>
<g id="a_edge1_Node000001_Node000002"><a xlink:title=" ">
<path fill="none" stroke="#63b8ff" d="M852.69,-406.28C801.3,-383.12 727.2,-345.03 672.75,-297.5 646.28,-274.39 623.59,-239.57 612,-220.07"/>
<polygon fill="#63b8ff" stroke="#63b8ff" points="851.04,-409.38 861.6,-410.24 853.88,-402.98 851.04,-409.38"/>
</a>
</g>
</g>
<!-- Node16 -->
<g id="Node000016" class="node">
<title>Node16</title>
<g id="a_Node000016"><a xlink:href="OpenGL_8hpp.html" target="_top" xlink:title=" ">
<polygon fill="white" stroke="#666666" points="993.5,-369.62 832,-369.62 832,-339.12 993.5,-339.12 993.5,-369.62"/>
<text xml:space="preserve" text-anchor="start" x="840" y="-356.12" font-family="Helvetica,sans-Serif" font-size="10.00">plugins/CarlaBase/carla</text>
<text xml:space="preserve" text-anchor="middle" x="912.75" y="-344.88" font-family="Helvetica,sans-Serif" font-size="10.00">/source/modules/dgl/OpenGL.hpp</text>
</a>
</g>
</g>
<!-- Node1&#45;&gt;Node16 -->
<g id="edge15_Node000001_Node000016" class="edge">
<title>Node1&#45;&gt;Node16</title>
<g id="a_edge15_Node000001_Node000016"><a xlink:title=" ">
<path fill="none" stroke="#63b8ff" d="M912.75,-399.56C912.75,-389.19 912.75,-378.17 912.75,-369.73"/>
<polygon fill="#63b8ff" stroke="#63b8ff" points="909.25,-399.31 912.75,-409.31 916.25,-399.31 909.25,-399.31"/>
</a>
</g>
</g>
<!-- Node23 -->
<g id="Node000023" class="node">
<title>Node23</title>
<g id="a_Node000023"><a xlink:href="ImageBaseWidgets_8cpp.html" target="_top" xlink:title=" ">
<polygon fill="white" stroke="#666666" points="1245.62,-375.25 1123.88,-375.25 1123.88,-333.5 1245.62,-333.5 1245.62,-375.25"/>
<text xml:space="preserve" text-anchor="start" x="1131.88" y="-361.75" font-family="Helvetica,sans-Serif" font-size="10.00">plugins/CarlaBase/carla</text>
<text xml:space="preserve" text-anchor="start" x="1131.88" y="-350.5" font-family="Helvetica,sans-Serif" font-size="10.00">/source/modules/dgl/src</text>
<text xml:space="preserve" text-anchor="middle" x="1184.75" y="-339.25" font-family="Helvetica,sans-Serif" font-size="10.00">/ImageBaseWidgets.cpp</text>
</a>
</g>
</g>
<!-- Node1&#45;&gt;Node23 -->
<g id="edge25_Node000001_Node000023" class="edge">
<title>Node1&#45;&gt;Node23</title>
<g id="a_edge25_Node000001_Node000023"><a xlink:title=" ">
<path fill="none" stroke="#63b8ff" d="M996.72,-407.74C1037.73,-396.32 1086.18,-382.83 1123.63,-372.4"/>
<polygon fill="#63b8ff" stroke="#63b8ff" points="995.79,-404.36 987.1,-410.42 997.67,-411.11 995.79,-404.36"/>
</a>
</g>
</g>
<!-- Node3 -->
<g id="Node000003" class="node">
<title>Node3</title>
<g id="a_Node000003"><a xlink:href="OpenGL_8cpp.html" target="_top" xlink:title=" ">
<polygon fill="white" stroke="#666666" points="1032.88,-136.38 912.62,-136.38 912.62,-94.62 1032.88,-94.62 1032.88,-136.38"/>
<text xml:space="preserve" text-anchor="start" x="920.62" y="-122.88" font-family="Helvetica,sans-Serif" font-size="10.00">plugins/CarlaBase/carla</text>
<text xml:space="preserve" text-anchor="start" x="920.62" y="-111.62" font-family="Helvetica,sans-Serif" font-size="10.00">/source/modules/dgl/src</text>
<text xml:space="preserve" text-anchor="middle" x="972.75" y="-100.38" font-family="Helvetica,sans-Serif" font-size="10.00">/OpenGL.cpp</text>
</a>
</g>
</g>
<!-- Node2&#45;&gt;Node3 -->
<g id="edge2_Node000002_Node000003" class="edge">
<title>Node2&#45;&gt;Node3</title>
<g id="a_edge2_Node000002_Node000003"><a xlink:title=" ">
<path fill="none" stroke="#63b8ff" d="M671.61,-186.08C683.3,-183.25 695.35,-180.45 706.75,-178 793.33,-159.35 817.28,-165.24 902.75,-142 908.37,-140.47 914.17,-138.69 919.92,-136.8"/>
<polygon fill="#63b8ff" stroke="#63b8ff" points="670.9,-182.65 662.01,-188.42 672.56,-189.45 670.9,-182.65"/>
</a>
</g>
</g>
<!-- Node4 -->
<g id="Node000004" class="node">
<title>Node4</title>
<g id="a_Node000004"><a xlink:href="DistrhoUI3BandEQ_8hpp.html" target="_top" xlink:title=" ">
<polygon fill="white" stroke="#666666" points="757.12,-142 632.38,-142 632.38,-89 757.12,-89 757.12,-142"/>
<text xml:space="preserve" text-anchor="start" x="640.38" y="-128.5" font-family="Helvetica,sans-Serif" font-size="10.00">plugins/CarlaBase/carla</text>
<text xml:space="preserve" text-anchor="start" x="640.38" y="-117.25" font-family="Helvetica,sans-Serif" font-size="10.00">/source/native&#45;plugins</text>
<text xml:space="preserve" text-anchor="start" x="640.38" y="-106" font-family="Helvetica,sans-Serif" font-size="10.00">/external/distrho&#45;3bandeq</text>
<text xml:space="preserve" text-anchor="middle" x="694.75" y="-94.75" font-family="Helvetica,sans-Serif" font-size="10.00">/DistrhoUI3BandEQ.hpp</text>
</a>
</g>
</g>
<!-- Node2&#45;&gt;Node4 -->
<g id="edge3_Node000002_Node000004" class="edge">
<title>Node2&#45;&gt;Node4</title>
<g id="a_edge3_Node000002_Node000004"><a xlink:title=" ">
<path fill="none" stroke="#63b8ff" d="M626.82,-181.44C639.22,-169.59 654.58,-154.9 667.56,-142.5"/>
<polygon fill="#63b8ff" stroke="#63b8ff" points="624.68,-178.65 619.87,-188.09 629.52,-183.71 624.68,-178.65"/>
</a>
</g>
</g>
<!-- Node6 -->
<g id="Node000006" class="node">
<title>Node6</title>
<g id="a_Node000006"><a xlink:href="DistrhoUI3BandSplitter_8hpp.html" target="_top" xlink:title=" ">
<polygon fill="white" stroke="#666666" points="143.5,-142 0,-142 0,-89 143.5,-89 143.5,-142"/>
<text xml:space="preserve" text-anchor="start" x="8" y="-128.5" font-family="Helvetica,sans-Serif" font-size="10.00">plugins/CarlaBase/carla</text>
<text xml:space="preserve" text-anchor="start" x="8" y="-117.25" font-family="Helvetica,sans-Serif" font-size="10.00">/source/native&#45;plugins</text>
<text xml:space="preserve" text-anchor="start" x="8" y="-106" font-family="Helvetica,sans-Serif" font-size="10.00">/external/distrho&#45;3bandsplitter</text>
<text xml:space="preserve" text-anchor="middle" x="71.75" y="-94.75" font-family="Helvetica,sans-Serif" font-size="10.00">/DistrhoUI3BandSplitter.hpp</text>
</a>
</g>
</g>
<!-- Node2&#45;&gt;Node6 -->
<g id="edge5_Node000002_Node000006" class="edge">
<title>Node2&#45;&gt;Node6</title>
<g id="a_edge5_Node000002_Node000006"><a xlink:title=" ">
<path fill="none" stroke="#63b8ff" d="M498.81,-194.27C406.83,-184.98 269.9,-168.23 152.75,-142 149.73,-141.32 146.66,-140.59 143.57,-139.8"/>
<polygon fill="#63b8ff" stroke="#63b8ff" points="498.27,-197.74 508.57,-195.25 498.97,-190.77 498.27,-197.74"/>
</a>
</g>
</g>
<!-- Node8 -->
<g id="Node000008" class="node">
<title>Node8</title>
<g id="a_Node000008"><a xlink:href="DistrhoUINekobi_8hpp.html" target="_top" xlink:title=" ">
<polygon fill="white" stroke="#666666" points="894.12,-142 775.38,-142 775.38,-89 894.12,-89 894.12,-142"/>
<text xml:space="preserve" text-anchor="start" x="783.38" y="-128.5" font-family="Helvetica,sans-Serif" font-size="10.00">plugins/CarlaBase/carla</text>
<text xml:space="preserve" text-anchor="start" x="783.38" y="-117.25" font-family="Helvetica,sans-Serif" font-size="10.00">/source/native&#45;plugins</text>
<text xml:space="preserve" text-anchor="start" x="783.38" y="-106" font-family="Helvetica,sans-Serif" font-size="10.00">/external/distrho&#45;nekobi</text>
<text xml:space="preserve" text-anchor="middle" x="834.75" y="-94.75" font-family="Helvetica,sans-Serif" font-size="10.00">/DistrhoUINekobi.hpp</text>
</a>
</g>
</g>
<!-- Node2&#45;&gt;Node8 -->
<g id="edge7_Node000002_Node000008" class="edge">
<title>Node2&#45;&gt;Node8</title>
<g id="a_edge7_Node000002_Node000008"><a xlink:title=" ">
<path fill="none" stroke="#63b8ff" d="M653.33,-184.83C689.06,-171.37 737.43,-153.15 775.24,-138.91"/>
<polygon fill="#63b8ff" stroke="#63b8ff" points="652.22,-181.51 644.09,-188.31 654.68,-188.06 652.22,-181.51"/>
</a>
</g>
</g>
<!-- Node10 -->
<g id="Node000010" class="node">
<title>Node10</title>
<g id="a_Node000010"><a xlink:href="DistrhoUIPingPongPan_8hpp.html" target="_top" xlink:title=" ">
<polygon fill="white" stroke="#666666" points="304.12,-142 161.38,-142 161.38,-89 304.12,-89 304.12,-142"/>
<text xml:space="preserve" text-anchor="start" x="169.38" y="-128.5" font-family="Helvetica,sans-Serif" font-size="10.00">plugins/CarlaBase/carla</text>
<text xml:space="preserve" text-anchor="start" x="169.38" y="-117.25" font-family="Helvetica,sans-Serif" font-size="10.00">/source/native&#45;plugins</text>
<text xml:space="preserve" text-anchor="start" x="169.38" y="-106" font-family="Helvetica,sans-Serif" font-size="10.00">/external/distrho&#45;pingpongpan</text>
<text xml:space="preserve" text-anchor="middle" x="232.75" y="-94.75" font-family="Helvetica,sans-Serif" font-size="10.00">/DistrhoUIPingPongPan.hpp</text>
</a>
</g>
</g>
<!-- Node2&#45;&gt;Node10 -->
<g id="edge9_Node000002_Node000010" class="edge">
<title>Node2&#45;&gt;Node10</title>
<g id="a_edge9_Node000002_Node000010"><a xlink:title=" ">
<path fill="none" stroke="#63b8ff" d="M512.31,-186.62C454.7,-175.38 378.97,-159.51 312.75,-142 310.07,-141.29 307.35,-140.55 304.61,-139.78"/>
<polygon fill="#63b8ff" stroke="#63b8ff" points="511.61,-190.05 522.09,-188.51 512.94,-183.18 511.61,-190.05"/>
</a>
</g>
</g>
<!-- Node12 -->
<g id="Node000012" class="node">
<title>Node12</title>
<g id="a_Node000012"><a xlink:href="VectorJuiceUI_8hpp.html" target="_top" xlink:title=" ">
<polygon fill="white" stroke="#666666" points="457.38,-142 322.12,-142 322.12,-89 457.38,-89 457.38,-142"/>
<text xml:space="preserve" text-anchor="start" x="330.12" y="-128.5" font-family="Helvetica,sans-Serif" font-size="10.00">plugins/CarlaBase/carla</text>
<text xml:space="preserve" text-anchor="start" x="330.12" y="-117.25" font-family="Helvetica,sans-Serif" font-size="10.00">/source/native&#45;plugins</text>
<text xml:space="preserve" text-anchor="start" x="330.12" y="-106" font-family="Helvetica,sans-Serif" font-size="10.00">/external/distrho&#45;vectorjuice</text>
<text xml:space="preserve" text-anchor="middle" x="389.75" y="-94.75" font-family="Helvetica,sans-Serif" font-size="10.00">/VectorJuiceUI.hpp</text>
</a>
</g>
</g>
<!-- Node2&#45;&gt;Node12 -->
<g id="edge11_Node000002_Node000012" class="edge">
<title>Node2&#45;&gt;Node12</title>
<g id="a_edge11_Node000002_Node000012"><a xlink:title=" ">
<path fill="none" stroke="#63b8ff" d="M557.6,-184.74C527.16,-172.36 486.88,-155.99 453.41,-142.38"/>
<polygon fill="#63b8ff" stroke="#63b8ff" points="555.95,-187.84 566.53,-188.37 558.58,-181.36 555.95,-187.84"/>
</a>
</g>
</g>
<!-- Node14 -->
<g id="Node000014" class="node">
<title>Node14</title>
<g id="a_Node000014"><a xlink:href="WobbleJuiceUI_8hpp.html" target="_top" xlink:title=" ">
<polygon fill="white" stroke="#666666" points="614.25,-142 475.25,-142 475.25,-89 614.25,-89 614.25,-142"/>
<text xml:space="preserve" text-anchor="start" x="483.25" y="-128.5" font-family="Helvetica,sans-Serif" font-size="10.00">plugins/CarlaBase/carla</text>
<text xml:space="preserve" text-anchor="start" x="483.25" y="-117.25" font-family="Helvetica,sans-Serif" font-size="10.00">/source/native&#45;plugins</text>
<text xml:space="preserve" text-anchor="start" x="483.25" y="-106" font-family="Helvetica,sans-Serif" font-size="10.00">/external/distrho&#45;wobblejuice</text>
<text xml:space="preserve" text-anchor="middle" x="544.75" y="-94.75" font-family="Helvetica,sans-Serif" font-size="10.00">/WobbleJuiceUI.hpp</text>
</a>
</g>
</g>
<!-- Node2&#45;&gt;Node14 -->
<g id="edge13_Node000002_Node000014" class="edge">
<title>Node2&#45;&gt;Node14</title>
<g id="a_edge13_Node000002_Node000014"><a xlink:title=" ">
<path fill="none" stroke="#63b8ff" d="M587.62,-179.71C579.8,-168.18 570.39,-154.31 562.38,-142.5"/>
<polygon fill="#63b8ff" stroke="#63b8ff" points="584.65,-181.57 593.16,-187.88 590.44,-177.64 584.65,-181.57"/>
</a>
</g>
</g>
<!-- Node5 -->
<g id="Node000005" class="node">
<title>Node5</title>
<g id="a_Node000005"><a xlink:href="DistrhoUI3BandEQ_8cpp.html" target="_top" xlink:title=" ">
<polygon fill="white" stroke="#666666" points="757.12,-53 632.38,-53 632.38,0 757.12,0 757.12,-53"/>
<text xml:space="preserve" text-anchor="start" x="640.38" y="-39.5" font-family="Helvetica,sans-Serif" font-size="10.00">plugins/CarlaBase/carla</text>
<text xml:space="preserve" text-anchor="start" x="640.38" y="-28.25" font-family="Helvetica,sans-Serif" font-size="10.00">/source/native&#45;plugins</text>
<text xml:space="preserve" text-anchor="start" x="640.38" y="-17" font-family="Helvetica,sans-Serif" font-size="10.00">/external/distrho&#45;3bandeq</text>
<text xml:space="preserve" text-anchor="middle" x="694.75" y="-5.75" font-family="Helvetica,sans-Serif" font-size="10.00">/DistrhoUI3BandEQ.cpp</text>
</a>
</g>
</g>
<!-- Node4&#45;&gt;Node5 -->
<g id="edge4_Node000004_Node000005" class="edge">
<title>Node4&#45;&gt;Node5</title>
<g id="a_edge4_Node000004_Node000005"><a xlink:title=" ">
<path fill="none" stroke="#63b8ff" d="M694.75,-77.61C694.75,-69.41 694.75,-60.89 694.75,-53.25"/>
<polygon fill="#63b8ff" stroke="#63b8ff" points="691.25,-77.35 694.75,-87.35 698.25,-77.35 691.25,-77.35"/>
</a>
</g>
</g>
<!-- Node7 -->
<g id="Node000007" class="node">
<title>Node7</title>
<g id="a_Node000007"><a xlink:href="DistrhoUI3BandSplitter_8cpp.html" target="_top" xlink:title=" ">
<polygon fill="white" stroke="#666666" points="143.5,-53 0,-53 0,0 143.5,0 143.5,-53"/>
<text xml:space="preserve" text-anchor="start" x="8" y="-39.5" font-family="Helvetica,sans-Serif" font-size="10.00">plugins/CarlaBase/carla</text>
<text xml:space="preserve" text-anchor="start" x="8" y="-28.25" font-family="Helvetica,sans-Serif" font-size="10.00">/source/native&#45;plugins</text>
<text xml:space="preserve" text-anchor="start" x="8" y="-17" font-family="Helvetica,sans-Serif" font-size="10.00">/external/distrho&#45;3bandsplitter</text>
<text xml:space="preserve" text-anchor="middle" x="71.75" y="-5.75" font-family="Helvetica,sans-Serif" font-size="10.00">/DistrhoUI3BandSplitter.cpp</text>
</a>
</g>
</g>
<!-- Node6&#45;&gt;Node7 -->
<g id="edge6_Node000006_Node000007" class="edge">
<title>Node6&#45;&gt;Node7</title>
<g id="a_edge6_Node000006_Node000007"><a xlink:title=" ">
<path fill="none" stroke="#63b8ff" d="M71.75,-77.61C71.75,-69.41 71.75,-60.89 71.75,-53.25"/>
<polygon fill="#63b8ff" stroke="#63b8ff" points="68.25,-77.35 71.75,-87.35 75.25,-77.35 68.25,-77.35"/>
</a>
</g>
</g>
<!-- Node9 -->
<g id="Node000009" class="node">
<title>Node9</title>
<g id="a_Node000009"><a xlink:href="DistrhoUINekobi_8cpp.html" target="_top" xlink:title=" ">
<polygon fill="white" stroke="#666666" points="894.12,-53 775.38,-53 775.38,0 894.12,0 894.12,-53"/>
<text xml:space="preserve" text-anchor="start" x="783.38" y="-39.5" font-family="Helvetica,sans-Serif" font-size="10.00">plugins/CarlaBase/carla</text>
<text xml:space="preserve" text-anchor="start" x="783.38" y="-28.25" font-family="Helvetica,sans-Serif" font-size="10.00">/source/native&#45;plugins</text>
<text xml:space="preserve" text-anchor="start" x="783.38" y="-17" font-family="Helvetica,sans-Serif" font-size="10.00">/external/distrho&#45;nekobi</text>
<text xml:space="preserve" text-anchor="middle" x="834.75" y="-5.75" font-family="Helvetica,sans-Serif" font-size="10.00">/DistrhoUINekobi.cpp</text>
</a>
</g>
</g>
<!-- Node8&#45;&gt;Node9 -->
<g id="edge8_Node000008_Node000009" class="edge">
<title>Node8&#45;&gt;Node9</title>
<g id="a_edge8_Node000008_Node000009"><a xlink:title=" ">
<path fill="none" stroke="#63b8ff" d="M834.75,-77.61C834.75,-69.41 834.75,-60.89 834.75,-53.25"/>
<polygon fill="#63b8ff" stroke="#63b8ff" points="831.25,-77.35 834.75,-87.35 838.25,-77.35 831.25,-77.35"/>
</a>
</g>
</g>
<!-- Node11 -->
<g id="Node000011" class="node">
<title>Node11</title>
<g id="a_Node000011"><a xlink:href="DistrhoUIPingPongPan_8cpp.html" target="_top" xlink:title=" ">
<polygon fill="white" stroke="#666666" points="304.12,-53 161.38,-53 161.38,0 304.12,0 304.12,-53"/>
<text xml:space="preserve" text-anchor="start" x="169.38" y="-39.5" font-family="Helvetica,sans-Serif" font-size="10.00">plugins/CarlaBase/carla</text>
<text xml:space="preserve" text-anchor="start" x="169.38" y="-28.25" font-family="Helvetica,sans-Serif" font-size="10.00">/source/native&#45;plugins</text>
<text xml:space="preserve" text-anchor="start" x="169.38" y="-17" font-family="Helvetica,sans-Serif" font-size="10.00">/external/distrho&#45;pingpongpan</text>
<text xml:space="preserve" text-anchor="middle" x="232.75" y="-5.75" font-family="Helvetica,sans-Serif" font-size="10.00">/DistrhoUIPingPongPan.cpp</text>
</a>
</g>
</g>
<!-- Node10&#45;&gt;Node11 -->
<g id="edge10_Node000010_Node000011" class="edge">
<title>Node10&#45;&gt;Node11</title>
<g id="a_edge10_Node000010_Node000011"><a xlink:title=" ">
<path fill="none" stroke="#63b8ff" d="M232.75,-77.61C232.75,-69.41 232.75,-60.89 232.75,-53.25"/>
<polygon fill="#63b8ff" stroke="#63b8ff" points="229.25,-77.35 232.75,-87.35 236.25,-77.35 229.25,-77.35"/>
</a>
</g>
</g>
<!-- Node13 -->
<g id="Node000013" class="node">
<title>Node13</title>
<g id="a_Node000013"><a xlink:href="VectorJuiceUI_8cpp.html" target="_top" xlink:title=" ">
<polygon fill="white" stroke="#666666" points="457.38,-53 322.12,-53 322.12,0 457.38,0 457.38,-53"/>
<text xml:space="preserve" text-anchor="start" x="330.12" y="-39.5" font-family="Helvetica,sans-Serif" font-size="10.00">plugins/CarlaBase/carla</text>
<text xml:space="preserve" text-anchor="start" x="330.12" y="-28.25" font-family="Helvetica,sans-Serif" font-size="10.00">/source/native&#45;plugins</text>
<text xml:space="preserve" text-anchor="start" x="330.12" y="-17" font-family="Helvetica,sans-Serif" font-size="10.00">/external/distrho&#45;vectorjuice</text>
<text xml:space="preserve" text-anchor="middle" x="389.75" y="-5.75" font-family="Helvetica,sans-Serif" font-size="10.00">/VectorJuiceUI.cpp</text>
</a>
</g>
</g>
<!-- Node12&#45;&gt;Node13 -->
<g id="edge12_Node000012_Node000013" class="edge">
<title>Node12&#45;&gt;Node13</title>
<g id="a_edge12_Node000012_Node000013"><a xlink:title=" ">
<path fill="none" stroke="#63b8ff" d="M389.75,-77.61C389.75,-69.41 389.75,-60.89 389.75,-53.25"/>
<polygon fill="#63b8ff" stroke="#63b8ff" points="386.25,-77.35 389.75,-87.35 393.25,-77.35 386.25,-77.35"/>
</a>
</g>
</g>
<!-- Node15 -->
<g id="Node000015" class="node">
<title>Node15</title>
<g id="a_Node000015"><a xlink:href="WobbleJuiceUI_8cpp.html" target="_top" xlink:title=" ">
<polygon fill="white" stroke="#666666" points="614.25,-53 475.25,-53 475.25,0 614.25,0 614.25,-53"/>
<text xml:space="preserve" text-anchor="start" x="483.25" y="-39.5" font-family="Helvetica,sans-Serif" font-size="10.00">plugins/CarlaBase/carla</text>
<text xml:space="preserve" text-anchor="start" x="483.25" y="-28.25" font-family="Helvetica,sans-Serif" font-size="10.00">/source/native&#45;plugins</text>
<text xml:space="preserve" text-anchor="start" x="483.25" y="-17" font-family="Helvetica,sans-Serif" font-size="10.00">/external/distrho&#45;wobblejuice</text>
<text xml:space="preserve" text-anchor="middle" x="544.75" y="-5.75" font-family="Helvetica,sans-Serif" font-size="10.00">/WobbleJuiceUI.cpp</text>
</a>
</g>
</g>
<!-- Node14&#45;&gt;Node15 -->
<g id="edge14_Node000014_Node000015" class="edge">
<title>Node14&#45;&gt;Node15</title>
<g id="a_edge14_Node000014_Node000015"><a xlink:title=" ">
<path fill="none" stroke="#63b8ff" d="M544.75,-77.61C544.75,-69.41 544.75,-60.89 544.75,-53.25"/>
<polygon fill="#63b8ff" stroke="#63b8ff" points="541.25,-77.35 544.75,-87.35 548.25,-77.35 541.25,-77.35"/>
</a>
</g>
</g>
<!-- Node16&#45;&gt;Node3 -->
<g id="edge22_Node000016_Node000003" class="edge">
<title>Node16&#45;&gt;Node3</title>
<g id="a_edge22_Node000016_Node000003"><a xlink:title=" ">
<path fill="none" stroke="#63b8ff" d="M895.26,-329.23C889.45,-319.8 883.71,-308.61 880.75,-297.5 871.78,-263.8 891.47,-185.28 895.75,-178 905.64,-161.19 921.99,-147.16 937.09,-136.76"/>
<polygon fill="#63b8ff" stroke="#63b8ff" points="892.22,-330.97 900.64,-337.41 898.07,-327.13 892.22,-330.97"/>
</a>
</g>
</g>
<!-- Node17 -->
<g id="Node000017" class="node">
<title>Node17</title>
<g id="a_Node000017"><a xlink:href="Image_8hpp.html" target="_top" xlink:title=" ">
<polygon fill="white" stroke="#666666" points="833.62,-297.5 681.88,-297.5 681.88,-267 833.62,-267 833.62,-297.5"/>
<text xml:space="preserve" text-anchor="start" x="689.88" y="-284" font-family="Helvetica,sans-Serif" font-size="10.00">plugins/CarlaBase/carla</text>
<text xml:space="preserve" text-anchor="middle" x="757.75" y="-272.75" font-family="Helvetica,sans-Serif" font-size="10.00">/source/modules/dgl/Image.hpp</text>
</a>
</g>
</g>
<!-- Node16&#45;&gt;Node17 -->
<g id="edge16_Node000016_Node000017" class="edge">
<title>Node16&#45;&gt;Node17</title>
<g id="a_edge16_Node000016_Node000017"><a xlink:title=" ">
<path fill="none" stroke="#63b8ff" d="M869.88,-333.98C844.68,-322.58 813.34,-308.4 790.2,-297.93"/>
<polygon fill="#63b8ff" stroke="#63b8ff" points="868.32,-337.12 878.88,-338.05 871.21,-330.74 868.32,-337.12"/>
</a>
</g>
</g>
<!-- Node19 -->
<g id="Node000019" class="node">
<title>Node19</title>
<g id="a_Node000019"><a xlink:href="NanoVG_8hpp.html" target="_top" xlink:title=" ">
<polygon fill="white" stroke="#666666" points="1217.88,-297.5 1055.62,-297.5 1055.62,-267 1217.88,-267 1217.88,-297.5"/>
<text xml:space="preserve" text-anchor="start" x="1063.62" y="-284" font-family="Helvetica,sans-Serif" font-size="10.00">plugins/CarlaBase/carla</text>
<text xml:space="preserve" text-anchor="middle" x="1136.75" y="-272.75" font-family="Helvetica,sans-Serif" font-size="10.00">/source/modules/dgl/NanoVG.hpp</text>
</a>
</g>
</g>
<!-- Node16&#45;&gt;Node19 -->
<g id="edge20_Node000016_Node000019" class="edge">
<title>Node16&#45;&gt;Node19</title>
<g id="a_edge20_Node000016_Node000019"><a xlink:title=" ">
<path fill="none" stroke="#63b8ff" d="M970.36,-335.34C1007.46,-323.72 1055.07,-308.82 1089.85,-297.93"/>
<polygon fill="#63b8ff" stroke="#63b8ff" points="969.65,-331.89 961.15,-338.22 971.74,-338.57 969.65,-331.89"/>
</a>
</g>
</g>
<!-- Node21 -->
<g id="Node000021" class="node">
<title>Node21</title>
<g id="a_Node000021"><a xlink:href="ui__launcher_8cpp.html" target="_top" xlink:title=" ">
<polygon fill="white" stroke="#666666" points="1037.38,-297.5 890.12,-297.5 890.12,-267 1037.38,-267 1037.38,-297.5"/>
<text xml:space="preserve" text-anchor="start" x="898.12" y="-284" font-family="Helvetica,sans-Serif" font-size="10.00">plugins/CarlaBase/carla</text>
<text xml:space="preserve" text-anchor="middle" x="963.75" y="-272.75" font-family="Helvetica,sans-Serif" font-size="10.00">/source/plugin/ui_launcher.cpp</text>
</a>
</g>
</g>
<!-- Node16&#45;&gt;Node21 -->
<g id="edge23_Node000016_Node000021" class="edge">
<title>Node16&#45;&gt;Node21</title>
<g id="a_edge23_Node000016_Node000021"><a xlink:title=" ">
<path fill="none" stroke="#63b8ff" d="M929.98,-329.69C937.67,-319.11 946.5,-306.97 953.2,-297.76"/>
<polygon fill="#63b8ff" stroke="#63b8ff" points="927.26,-327.48 924.21,-337.62 932.92,-331.59 927.26,-327.48"/>
</a>
</g>
</g>
<!-- Node17&#45;&gt;Node2 -->
<g id="edge17_Node000017_Node000002" class="edge">
<title>Node17&#45;&gt;Node2</title>
<g id="a_edge17_Node000017_Node000002"><a xlink:title=" ">
<path fill="none" stroke="#63b8ff" d="M718.01,-261.7C691.67,-248.75 657.66,-232.02 633.61,-220.19"/>
<polygon fill="#63b8ff" stroke="#63b8ff" points="716.18,-264.7 726.7,-265.98 719.27,-258.42 716.18,-264.7"/>
</a>
</g>
</g>
<!-- Node18 -->
<g id="Node000018" class="node">
<title>Node18</title>
<g id="a_Node000018"><a xlink:href="NekoWidget_8hpp.html" target="_top" xlink:title=" ">
<polygon fill="white" stroke="#666666" points="834.12,-231 715.38,-231 715.38,-178 834.12,-178 834.12,-231"/>
<text xml:space="preserve" text-anchor="start" x="723.38" y="-217.5" font-family="Helvetica,sans-Serif" font-size="10.00">plugins/CarlaBase/carla</text>
<text xml:space="preserve" text-anchor="start" x="723.38" y="-206.25" font-family="Helvetica,sans-Serif" font-size="10.00">/source/native&#45;plugins</text>
<text xml:space="preserve" text-anchor="start" x="723.38" y="-195" font-family="Helvetica,sans-Serif" font-size="10.00">/external/distrho&#45;nekobi</text>
<text xml:space="preserve" text-anchor="middle" x="774.75" y="-183.75" font-family="Helvetica,sans-Serif" font-size="10.00">/NekoWidget.hpp</text>
</a>
</g>
</g>
<!-- Node17&#45;&gt;Node18 -->
<g id="edge18_Node000017_Node000018" class="edge">
<title>Node17&#45;&gt;Node18</title>
<g id="a_edge18_Node000017_Node000018"><a xlink:title=" ">
<path fill="none" stroke="#63b8ff" d="M763.51,-255.6C765.26,-247.8 767.18,-239.23 768.94,-231.41"/>
<polygon fill="#63b8ff" stroke="#63b8ff" points="760.13,-254.64 761.36,-265.17 766.96,-256.18 760.13,-254.64"/>
</a>
</g>
</g>
<!-- Node18&#45;&gt;Node8 -->
<g id="edge19_Node000018_Node000008" class="edge">
<title>Node18&#45;&gt;Node8</title>
<g id="a_edge19_Node000018_Node000008"><a xlink:title=" ">
<path fill="none" stroke="#63b8ff" d="M798.83,-168.59C804.9,-159.79 811.3,-150.5 816.99,-142.25"/>
<polygon fill="#63b8ff" stroke="#63b8ff" points="796.08,-166.4 793.29,-176.62 801.85,-170.38 796.08,-166.4"/>
</a>
</g>
</g>
<!-- Node20 -->
<g id="Node000020" class="node">
<title>Node20</title>
<g id="a_Node000020"><a xlink:href="NanoVG_8cpp.html" target="_top" xlink:title=" ">
<polygon fill="white" stroke="#666666" points="1196.88,-225.38 1076.62,-225.38 1076.62,-183.62 1196.88,-183.62 1196.88,-225.38"/>
<text xml:space="preserve" text-anchor="start" x="1084.62" y="-211.88" font-family="Helvetica,sans-Serif" font-size="10.00">plugins/CarlaBase/carla</text>
<text xml:space="preserve" text-anchor="start" x="1084.62" y="-200.62" font-family="Helvetica,sans-Serif" font-size="10.00">/source/modules/dgl/src</text>
<text xml:space="preserve" text-anchor="middle" x="1136.75" y="-189.38" font-family="Helvetica,sans-Serif" font-size="10.00">/NanoVG.cpp</text>
</a>
</g>
</g>
<!-- Node19&#45;&gt;Node20 -->
<g id="edge21_Node000019_Node000020" class="edge">
<title>Node19&#45;&gt;Node20</title>
<g id="a_edge21_Node000019_Node000020"><a xlink:title=" ">
<path fill="none" stroke="#63b8ff" d="M1136.75,-255.26C1136.75,-245.63 1136.75,-234.84 1136.75,-225.79"/>
<polygon fill="#63b8ff" stroke="#63b8ff" points="1133.25,-255.13 1136.75,-265.13 1140.25,-255.13 1133.25,-255.13"/>
</a>
</g>
</g>
<!-- Node22 -->
<g id="Node000022" class="node">
<title>Node22</title>
<g id="a_Node000022"><a xlink:href="carla-vst-export_8cpp.html" target="_top" xlink:title=" ">
<polygon fill="white" stroke="#666666" points="1023.12,-225.38 904.38,-225.38 904.38,-183.62 1023.12,-183.62 1023.12,-225.38"/>
<text xml:space="preserve" text-anchor="start" x="912.38" y="-211.88" font-family="Helvetica,sans-Serif" font-size="10.00">plugins/CarlaBase/carla</text>
<text xml:space="preserve" text-anchor="start" x="912.38" y="-200.62" font-family="Helvetica,sans-Serif" font-size="10.00">/source/plugin/carla&#45;vst</text>
<text xml:space="preserve" text-anchor="middle" x="963.75" y="-189.38" font-family="Helvetica,sans-Serif" font-size="10.00">&#45;export.cpp</text>
</a>
</g>
</g>
<!-- Node21&#45;&gt;Node22 -->
<g id="edge24_Node000021_Node000022" class="edge">
<title>Node21&#45;&gt;Node22</title>
<g id="a_edge24_Node000021_Node000022"><a xlink:title=" ">
<path fill="none" stroke="#63b8ff" d="M963.75,-255.26C963.75,-245.63 963.75,-234.84 963.75,-225.79"/>
<polygon fill="#63b8ff" stroke="#63b8ff" points="960.25,-255.13 963.75,-265.13 967.25,-255.13 960.25,-255.13"/>
</a>
</g>
</g>
<!-- Node23&#45;&gt;Node3 -->
<g id="edge26_Node000023_Node000003" class="edge">
<title>Node23&#45;&gt;Node3</title>
<g id="a_edge26_Node000023_Node000003"><a xlink:title=" ">
<path fill="none" stroke="#63b8ff" d="M1212.07,-324.3C1218.07,-316.21 1223.57,-307.01 1226.75,-297.5 1238.68,-261.77 1210.41,-182.79 1205.75,-178 1181.96,-153.57 1094,-135.32 1033.24,-125.28"/>
<polygon fill="#63b8ff" stroke="#63b8ff" points="1209.38,-322.07 1205.86,-332.06 1214.84,-326.44 1209.38,-322.07"/>
</a>
</g>
</g>
</g>
</svg>

<g id="navigator" transform="translate(0 0)" fill="#404254">
  <rect fill="#f2f5e9" fill-opacity="0.5" stroke="#606060" stroke-width=".5" x="0" y="0" width="60" height="60"/>
  <use id="zoomplus" xlink:href="#zoomPlus" x="17" y="9" onmousedown="handleZoom(evt,'in')"/>
  <use id="zoomminus" xlink:href="#zoomMin" x="42" y="9" onmousedown="handleZoom(evt,'out')"/>
  <use id="reset" xlink:href="#resetDef" x="30" y="36" onmousedown="handleReset()"/>
   <use id="arrowup" xlink:href="#arrowUp" x="0" y="0" onmousedown="handlePan(0,-1)"/>
  <use id="arrowright" xlink:href="#arrowRight" x="0" y="0" onmousedown="handlePan(1,0)"/>
  <use id="arrowdown" xlink:href="#arrowDown" x="0" y="0" onmousedown="handlePan(0,1)"/>
  <use id="arrowleft" xlink:href="#arrowLeft" x="0" y="0" onmousedown="handlePan(-1,0)"/>
</g>
<svg viewBox="0 0 15 15" width="100%" height="30px" preserveAspectRatio="xMaxYMin meet">
 <g id="arrow_out" transform="scale(0.3 0.3)">
  <a xlink:href="ImageBaseWidgets_8hpp__dep__incl_org.svg" target="_base">
   <rect id="button" ry="5" rx="5" y="6" x="6" height="38" width="38"
        fill="#f2f5e9" fill-opacity="0.5" stroke="#606060" stroke-width="1.0"/>
   <path id="arrow"
     d="M 11.500037,31.436501 C 11.940474,20.09759 22.043105,11.32322 32.158766,21.979434 L 37.068811,17.246167 C 37.068811,17.246167 37.088388,32 37.088388,32 L 22.160133,31.978069 C 22.160133,31.978069 26.997745,27.140456 26.997745,27.140456 C 18.528582,18.264221 13.291696,25.230495 11.500037,31.436501 z"
     style="fill:#404040;"/>
  </a>
 </g>
</svg>

<style type='text/css'>
<![CDATA[
[data-mouse-over-selected='false'] { opacity: 0.7; }
[data-mouse-over-selected='true']  { opacity: 1.0; }
]]>
</style>
<script type="application/ecmascript"><![CDATA[
document.addEventListener('DOMContentLoaded', (event) => {
  highlightEdges();
  highlightAdjacentNodes();
});
]]></script>
</svg>
