<?xml version="1.0" encoding="UTF-8" standalone="no"?>
<!DOCTYPE svg PUBLIC "-//W3C//DTD SVG 1.1//EN"
 "http://www.w3.org/Graphics/SVG/1.1/DTD/svg11.dtd">
<!-- Generated by graphviz version 14.0.2 (0)
 -->
<!-- Title: plugins/CarlaBase/carla/source/modules/dgl/ImageBase.hpp Pages: 1 -->
<svg width="344pt" height="204pt"
 viewBox="0.00 0.00 344.00 204.00" xmlns="http://www.w3.org/2000/svg" xmlns:xlink="http://www.w3.org/1999/xlink">

<svg id="main" version="1.1" xmlns="http://www.w3.org/2000/svg" xmlns:xlink="http://www.w3.org/1999/xlink" xml:space="preserve">

<style type="text/css"><![CDATA[
.node, .edge {opacity: 0.7;}
.node.selected, .edge.selected {opacity: 1;}
.edge:hover path { stroke: red; }
.edge:hover polygon { stroke: red; fill: red; }
]]></style>
<script type="application/ecmascript" xlink:href="svg.min.js"/>
<svg id="graph" class="graph">
<g id="graph0" class="graph" transform="scale(1 1) rotate(0) translate(4 200.25)">
<title>plugins/CarlaBase/carla/source/modules/dgl/ImageBase.hpp</title>
<!-- Node1 -->
<g id="Node000001" class="node">
<title>Node1</title>
<g id="a_Node000001"><a xlink:title=" ">
<polygon fill="#999999" stroke="#666666" points="253.25,-196.25 79,-196.25 79,-165.75 253.25,-165.75 253.25,-196.25"/>
<text xml:space="preserve" text-anchor="start" x="87" y="-182.75" font-family="Helvetica,sans-Serif" font-size="10.00">plugins/CarlaBase/carla</text>
<text xml:space="preserve" text-anchor="middle" x="166.12" y="-171.5" font-family="Helvetica,sans-Serif" font-size="10.00">/source/modules/dgl/ImageBase.hpp</text>
</a>
</g>
</g>
<!-- Node2 -->
<g id="Node000002" class="node">
<title>Node2</title>
<g id="a_Node000002"><a xlink:href="Geometry_8hpp.html" target="_top" xlink:title=" ">
<polygon fill="white" stroke="#666666" points="204.12,-129.75 128.12,-129.75 128.12,-110.5 204.12,-110.5 204.12,-129.75"/>
<text xml:space="preserve" text-anchor="middle" x="166.12" y="-116.25" font-family="Helvetica,sans-Serif" font-size="10.00">Geometry.hpp</text>
</a>
</g>
</g>
<!-- Node1&#45;&gt;Node2 -->
<g id="edge1_Node000001_Node000002" class="edge">
<title>Node1&#45;&gt;Node2</title>
<g id="a_edge1_Node000001_Node000002"><a xlink:title=" ">
<path fill="none" stroke="#63b8ff" d="M166.12,-165.45C166.12,-158.21 166.12,-149.34 166.12,-141.44"/>
<polygon fill="#63b8ff" stroke="#63b8ff" points="169.63,-141.71 166.13,-131.71 162.63,-141.71 169.63,-141.71"/>
</a>
</g>
</g>
<!-- Node3 -->
<g id="Node000003" class="node">
<title>Node3</title>
<g id="a_Node000003"><a xlink:href="Base_8hpp.html" target="_top" xlink:title=" ">
<polygon fill="white" stroke="#666666" points="194.38,-74.5 137.88,-74.5 137.88,-55.25 194.38,-55.25 194.38,-74.5"/>
<text xml:space="preserve" text-anchor="middle" x="166.12" y="-61" font-family="Helvetica,sans-Serif" font-size="10.00">Base.hpp</text>
</a>
</g>
</g>
<!-- Node2&#45;&gt;Node3 -->
<g id="edge2_Node000002_Node000003" class="edge">
<title>Node2&#45;&gt;Node3</title>
<g id="a_edge2_Node000002_Node000003"><a xlink:title=" ">
<path fill="none" stroke="#63b8ff" d="M166.12,-110.33C166.12,-103.82 166.12,-94.67 166.12,-86.37"/>
<polygon fill="#63b8ff" stroke="#63b8ff" points="169.63,-86.37 166.13,-76.37 162.63,-86.37 169.63,-86.37"/>
</a>
</g>
</g>
<!-- Node4 -->
<g id="Node000004" class="node">
<title>Node4</title>
<g id="a_Node000004"><a xlink:href="LeakDetector_8hpp.html" target="_top" xlink:title=" ">
<polygon fill="#fff0f0" stroke="red" points="156.25,-19.25 0,-19.25 0,0 156.25,0 156.25,-19.25"/>
<text xml:space="preserve" text-anchor="middle" x="78.12" y="-5.75" font-family="Helvetica,sans-Serif" font-size="10.00">../distrho/extra/LeakDetector.hpp</text>
</a>
</g>
</g>
<!-- Node3&#45;&gt;Node4 -->
<g id="edge3_Node000003_Node000004" class="edge">
<title>Node3&#45;&gt;Node4</title>
<g id="a_edge3_Node000003_Node000004"><a xlink:title=" ">
<path fill="none" stroke="#63b8ff" d="M151.2,-54.84C137.92,-46.81 118.26,-34.91 102.67,-25.48"/>
<polygon fill="#63b8ff" stroke="#63b8ff" points="104.79,-22.67 94.42,-20.49 101.16,-28.66 104.79,-22.67"/>
</a>
</g>
</g>
<!-- Node14 -->
<g id="Node000014" class="node">
<title>Node14</title>
<g id="a_Node000014"><a xlink:href="ScopedPointer_8hpp.html" target="_top" xlink:title=" ">
<polygon fill="#fff0f0" stroke="red" points="335.88,-19.25 174.38,-19.25 174.38,0 335.88,0 335.88,-19.25"/>
<text xml:space="preserve" text-anchor="middle" x="255.12" y="-5.75" font-family="Helvetica,sans-Serif" font-size="10.00">../distrho/extra/ScopedPointer.hpp</text>
</a>
</g>
</g>
<!-- Node3&#45;&gt;Node14 -->
<g id="edge4_Node000003_Node000014" class="edge">
<title>Node3&#45;&gt;Node14</title>
<g id="a_edge4_Node000003_Node000014"><a xlink:title=" ">
<path fill="none" stroke="#63b8ff" d="M181.22,-54.84C194.65,-46.81 214.54,-34.91 230.3,-25.48"/>
<polygon fill="#63b8ff" stroke="#63b8ff" points="231.87,-28.62 238.65,-20.48 228.28,-22.61 231.87,-28.62"/>
</a>
</g>
</g>
</g>
</svg>
</svg>

<style type='text/css'>
<![CDATA[
[data-mouse-over-selected='false'] { opacity: 0.7; }
[data-mouse-over-selected='true']  { opacity: 1.0; }
]]>
</style>
<script type="application/ecmascript"><![CDATA[
document.addEventListener('DOMContentLoaded', (event) => {
  highlightEdges();
  highlightAdjacentNodes();
});
]]></script>
</svg>
