<?xml version="1.0" encoding="UTF-8" standalone="no"?>
<!DOCTYPE svg PUBLIC "-//W3C//DTD SVG 1.1//EN"
 "http://www.w3.org/Graphics/SVG/1.1/DTD/svg11.dtd">
<!-- Generated by graphviz version 14.0.2 (0)
 -->
<!-- Title: Graphical Class Hierarchy Pages: 1 -->
<svg width="528pt" height="330pt"
 viewBox="0.00 0.00 528.00 330.00" xmlns="http://www.w3.org/2000/svg" xmlns:xlink="http://www.w3.org/1999/xlink">
<g id="graph0" class="graph" transform="scale(1 1) rotate(0) translate(4 325.5)">
<title>Graphical Class Hierarchy</title>
<!-- Node0 -->
<g id="Node000000" class="node">
<title>Node0</title>
<g id="a_Node000000"><a xlink:href="classJack_1_1JackMidiReadQueue.html" target="_top" xlink:title=" ">
<polygon fill="white" stroke="#666666" points="131.5,-263.88 0,-263.88 0,-244.62 131.5,-244.62 131.5,-263.88"/>
<text xml:space="preserve" text-anchor="middle" x="65.75" y="-250.38" font-family="Helvetica,sans-Serif" font-size="10.00">Jack::JackMidiReadQueue</text>
</a>
</g>
</g>
<!-- Node1 -->
<g id="Node000001" class="node">
<title>Node1</title>
<g id="a_Node000001"><a xlink:href="classJack_1_1JackMidiAsyncQueue.html" target="_top" xlink:title=" ">
<polygon fill="white" stroke="#666666" points="311.38,-202.88 175.38,-202.88 175.38,-183.62 311.38,-183.62 311.38,-202.88"/>
<text xml:space="preserve" text-anchor="middle" x="243.38" y="-189.38" font-family="Helvetica,sans-Serif" font-size="10.00">Jack::JackMidiAsyncQueue</text>
</a>
</g>
</g>
<!-- Node0&#45;&gt;Node1 -->
<g id="edge1959_Node000000_Node000001" class="edge">
<title>Node0&#45;&gt;Node1</title>
<g id="a_edge1959_Node000000_Node000001"><a xlink:title=" ">
<path fill="none" stroke="#63b8ff" d="M121.09,-240.53C124.66,-239.21 128.16,-237.78 131.5,-236.25 148.98,-228.24 149.93,-220.06 167.5,-212.25 175.47,-208.71 184.21,-205.74 192.83,-203.28"/>
<polygon fill="#63b8ff" stroke="#63b8ff" points="120.05,-237.19 111.7,-243.72 122.3,-243.82 120.05,-237.19"/>
</a>
</g>
</g>
<!-- Node4 -->
<g id="Node000004" class="node">
<title>Node4</title>
<g id="a_Node000004"><a xlink:href="classJack_1_1JackMidiBufferReadQueue.html" target="_top" xlink:title=" ">
<polygon fill="white" stroke="#666666" points="307.62,-251.5 179.12,-251.5 179.12,-221 307.62,-221 307.62,-251.5"/>
<text xml:space="preserve" text-anchor="start" x="187.12" y="-238" font-family="Helvetica,sans-Serif" font-size="10.00">Jack::JackMidiBufferRead</text>
<text xml:space="preserve" text-anchor="middle" x="243.38" y="-226.75" font-family="Helvetica,sans-Serif" font-size="10.00">Queue</text>
</a>
</g>
</g>
<!-- Node0&#45;&gt;Node4 -->
<g id="edge1961_Node000000_Node000004" class="edge">
<title>Node0&#45;&gt;Node4</title>
<g id="a_edge1961_Node000000_Node000004"><a xlink:title=" ">
<path fill="none" stroke="#63b8ff" d="M143.01,-246.43C154.99,-245.21 167.26,-243.95 178.91,-242.75"/>
<polygon fill="#63b8ff" stroke="#63b8ff" points="142.74,-242.94 133.15,-247.44 143.46,-249.91 142.74,-242.94"/>
</a>
</g>
</g>
<!-- Node5 -->
<g id="Node000005" class="node">
<title>Node5</title>
<g id="a_Node000005"><a xlink:href="classJack_1_1JackMidiReceiveQueue.html" target="_top" xlink:title=" ">
<polygon fill="white" stroke="#666666" points="315.5,-288.88 171.25,-288.88 171.25,-269.62 315.5,-269.62 315.5,-288.88"/>
<text xml:space="preserve" text-anchor="middle" x="243.38" y="-275.38" font-family="Helvetica,sans-Serif" font-size="10.00">Jack::JackMidiReceiveQueue</text>
</a>
</g>
</g>
<!-- Node0&#45;&gt;Node5 -->
<g id="edge1962_Node000000_Node000005" class="edge">
<title>Node0&#45;&gt;Node5</title>
<g id="a_edge1962_Node000000_Node000005"><a xlink:title=" ">
<path fill="none" stroke="#63b8ff" d="M142.76,-265.07C152.32,-266.43 162.07,-267.82 171.54,-269.17"/>
<polygon fill="#63b8ff" stroke="#63b8ff" points="143.54,-261.65 133.15,-263.7 142.55,-268.58 143.54,-261.65"/>
</a>
</g>
</g>
<!-- Node2 -->
<g id="Node000002" class="node">
<title>Node2</title>
<g id="a_Node000002"><a xlink:href="classJack_1_1JackMidiAsyncWaitQueue.html" target="_top" xlink:title=" ">
<polygon fill="white" stroke="#666666" points="515.25,-202.88 359.75,-202.88 359.75,-183.62 515.25,-183.62 515.25,-202.88"/>
<text xml:space="preserve" text-anchor="middle" x="437.5" y="-189.38" font-family="Helvetica,sans-Serif" font-size="10.00">Jack::JackMidiAsyncWaitQueue</text>
</a>
</g>
</g>
<!-- Node1&#45;&gt;Node2 -->
<g id="edge1960_Node000001_Node000002" class="edge">
<title>Node1&#45;&gt;Node2</title>
<g id="a_edge1960_Node000001_Node000002"><a xlink:title=" ">
<path fill="none" stroke="#63b8ff" d="M323.16,-193.25C335.11,-193.25 347.43,-193.25 359.34,-193.25"/>
<polygon fill="#63b8ff" stroke="#63b8ff" points="323.35,-189.75 313.35,-193.25 323.35,-196.75 323.35,-189.75"/>
</a>
</g>
</g>
<!-- Node6 -->
<g id="Node000006" class="node">
<title>Node6</title>
<g id="a_Node000006"><a xlink:href="classJack_1_1JackALSARawMidiReceiveQueue.html" target="_top" xlink:title=" ">
<polygon fill="white" stroke="#666666" points="518.25,-272.5 356.75,-272.5 356.75,-242 518.25,-242 518.25,-272.5"/>
<text xml:space="preserve" text-anchor="start" x="364.75" y="-259" font-family="Helvetica,sans-Serif" font-size="10.00">Jack::JackALSARawMidiReceive</text>
<text xml:space="preserve" text-anchor="middle" x="437.5" y="-247.75" font-family="Helvetica,sans-Serif" font-size="10.00">Queue</text>
</a>
</g>
</g>
<!-- Node5&#45;&gt;Node6 -->
<g id="edge1963_Node000005_Node000006" class="edge">
<title>Node5&#45;&gt;Node6</title>
<g id="a_edge1963_Node000005_Node000006"><a xlink:title=" ">
<path fill="none" stroke="#63b8ff" d="M327.21,-269.76C336.93,-268.65 346.82,-267.52 356.5,-266.41"/>
<polygon fill="#63b8ff" stroke="#63b8ff" points="326.96,-266.27 317.42,-270.89 327.75,-273.23 326.96,-266.27"/>
</a>
</g>
</g>
<!-- Node7 -->
<g id="Node000007" class="node">
<title>Node7</title>
<g id="a_Node000007"><a xlink:href="classJack_1_1JackFFADOMidiReceiveQueue.html" target="_top" xlink:title=" ">
<polygon fill="white" stroke="#666666" points="511.88,-321.5 363.12,-321.5 363.12,-291 511.88,-291 511.88,-321.5"/>
<text xml:space="preserve" text-anchor="start" x="371.12" y="-308" font-family="Helvetica,sans-Serif" font-size="10.00">Jack::JackFFADOMidiReceive</text>
<text xml:space="preserve" text-anchor="middle" x="437.5" y="-296.75" font-family="Helvetica,sans-Serif" font-size="10.00">Queue</text>
</a>
</g>
</g>
<!-- Node5&#45;&gt;Node7 -->
<g id="edge1964_Node000005_Node000007" class="edge">
<title>Node5&#45;&gt;Node7</title>
<g id="a_edge1964_Node000005_Node000007"><a xlink:title=" ">
<path fill="none" stroke="#63b8ff" d="M327.13,-290.88C338.94,-292.54 351.03,-294.24 362.65,-295.87"/>
<polygon fill="#63b8ff" stroke="#63b8ff" points="327.8,-287.44 317.41,-289.51 326.83,-294.37 327.8,-287.44"/>
</a>
</g>
</g>
<!-- Node3 -->
<g id="Node000003" class="node">
<title>Node3</title>
<g id="a_Node000003"><a xlink:href="classJackMidiReadQueue.html" target="_top" xlink:title=" ">
<polygon fill="white" stroke="#666666" points="118.75,-226.88 12.75,-226.88 12.75,-207.62 118.75,-207.62 118.75,-226.88"/>
<text xml:space="preserve" text-anchor="middle" x="65.75" y="-213.38" font-family="Helvetica,sans-Serif" font-size="10.00">JackMidiReadQueue</text>
</a>
</g>
</g>
<!-- Node3&#45;&gt;Node1 -->
<g id="edge1965_Node000003_Node000001" class="edge">
<title>Node3&#45;&gt;Node1</title>
<g id="a_edge1965_Node000003_Node000001"><a xlink:title=" ">
<path fill="none" stroke="#63b8ff" d="M130.37,-208.56C144.89,-206.57 160.37,-204.46 175.04,-202.45"/>
<polygon fill="#63b8ff" stroke="#63b8ff" points="129.9,-205.09 120.47,-209.91 130.85,-212.02 129.9,-205.09"/>
</a>
</g>
</g>
<!-- Node3&#45;&gt;Node4 -->
<g id="edge1966_Node000003_Node000004" class="edge">
<title>Node3&#45;&gt;Node4</title>
<g id="a_edge1966_Node000003_Node000004"><a xlink:title=" ">
<path fill="none" stroke="#63b8ff" d="M130.25,-224.12C146.08,-225.83 163.04,-227.67 178.87,-229.38"/>
<polygon fill="#63b8ff" stroke="#63b8ff" points="130.79,-220.66 120.47,-223.06 130.04,-227.62 130.79,-220.66"/>
</a>
</g>
</g>
<!-- Node3&#45;&gt;Node5 -->
<g id="edge1967_Node000003_Node000005" class="edge">
<title>Node3&#45;&gt;Node5</title>
<g id="a_edge1967_Node000003_Node000005"><a xlink:title=" ">
<path fill="none" stroke="#63b8ff" d="M121.29,-230.96C124.8,-232.28 128.23,-233.71 131.5,-235.25 149.13,-243.53 149.78,-252.17 167.5,-260.25 175.31,-263.81 183.89,-266.78 192.38,-269.23"/>
<polygon fill="#63b8ff" stroke="#63b8ff" points="122.69,-227.74 112.1,-227.79 120.41,-234.36 122.69,-227.74"/>
</a>
</g>
</g>
<!-- Node8 -->
<g id="Node000008" class="node">
<title>Node8</title>
<g id="a_Node000008"><a xlink:href="classJack_1_1JackMidiWriteQueue.html" target="_top" xlink:title=" ">
<polygon fill="white" stroke="#666666" points="131.5,-128.88 0,-128.88 0,-109.62 131.5,-109.62 131.5,-128.88"/>
<text xml:space="preserve" text-anchor="middle" x="65.75" y="-115.38" font-family="Helvetica,sans-Serif" font-size="10.00">Jack::JackMidiWriteQueue</text>
</a>
</g>
</g>
<!-- Node8&#45;&gt;Node1 -->
<g id="edge1968_Node000008_Node000001" class="edge">
<title>Node8&#45;&gt;Node1</title>
<g id="a_edge1968_Node000008_Node000001"><a xlink:title=" ">
<path fill="none" stroke="#63b8ff" d="M91.72,-135.19C111.61,-147.31 140.49,-163.65 167.5,-174.25 176.24,-177.68 185.8,-180.66 195.07,-183.17"/>
<polygon fill="#63b8ff" stroke="#63b8ff" points="93.84,-132.38 83.49,-130.09 90.15,-138.33 93.84,-132.38"/>
</a>
</g>
</g>
<!-- Node9 -->
<g id="Node000009" class="node">
<title>Node9</title>
<g id="a_Node000009"><a xlink:href="classJack_1_1JackMidiBufferWriteQueue.html" target="_top" xlink:title=" ">
<polygon fill="white" stroke="#666666" points="307.62,-30.5 179.12,-30.5 179.12,0 307.62,0 307.62,-30.5"/>
<text xml:space="preserve" text-anchor="start" x="187.12" y="-17" font-family="Helvetica,sans-Serif" font-size="10.00">Jack::JackMidiBufferWrite</text>
<text xml:space="preserve" text-anchor="middle" x="243.38" y="-5.75" font-family="Helvetica,sans-Serif" font-size="10.00">Queue</text>
</a>
</g>
</g>
<!-- Node8&#45;&gt;Node9 -->
<g id="edge1969_Node000008_Node000009" class="edge">
<title>Node8&#45;&gt;Node9</title>
<g id="a_edge1969_Node000008_Node000009"><a xlink:title=" ">
<path fill="none" stroke="#63b8ff" d="M127.87,-103.83C129.12,-103.01 130.33,-102.15 131.5,-101.25 156.71,-81.77 142.67,-59.22 167.5,-39.25 171.44,-36.08 175.8,-33.33 180.38,-30.94"/>
<polygon fill="#63b8ff" stroke="#63b8ff" points="126.22,-100.74 119.07,-108.55 129.53,-106.91 126.22,-100.74"/>
</a>
</g>
</g>
<!-- Node11 -->
<g id="Node000011" class="node">
<title>Node11</title>
<g id="a_Node000011"><a xlink:href="classJack_1_1JackMidiRawInputWriteQueue.html" target="_top" xlink:title=" ">
<polygon fill="white" stroke="#666666" points="315.5,-165.5 171.25,-165.5 171.25,-135 315.5,-135 315.5,-165.5"/>
<text xml:space="preserve" text-anchor="start" x="179.25" y="-152" font-family="Helvetica,sans-Serif" font-size="10.00">Jack::JackMidiRawInputWrite</text>
<text xml:space="preserve" text-anchor="middle" x="243.38" y="-140.75" font-family="Helvetica,sans-Serif" font-size="10.00">Queue</text>
</a>
</g>
</g>
<!-- Node8&#45;&gt;Node11 -->
<g id="edge1970_Node000008_Node000011" class="edge">
<title>Node8&#45;&gt;Node11</title>
<g id="a_edge1970_Node000008_Node000011"><a xlink:title=" ">
<path fill="none" stroke="#63b8ff" d="M134.9,-131.28C146.7,-133.36 158.99,-135.53 170.88,-137.63"/>
<polygon fill="#63b8ff" stroke="#63b8ff" points="135.72,-127.87 125.26,-129.58 134.5,-134.76 135.72,-127.87"/>
</a>
</g>
</g>
<!-- Node12 -->
<g id="Node000012" class="node">
<title>Node12</title>
<g id="a_Node000012"><a xlink:href="classJack_1_1JackMidiRawOutputWriteQueue.html" target="_top" xlink:title=" ">
<polygon fill="white" stroke="#666666" points="319.25,-116.5 167.5,-116.5 167.5,-86 319.25,-86 319.25,-116.5"/>
<text xml:space="preserve" text-anchor="start" x="175.5" y="-103" font-family="Helvetica,sans-Serif" font-size="10.00">Jack::JackMidiRawOutputWrite</text>
<text xml:space="preserve" text-anchor="middle" x="243.38" y="-91.75" font-family="Helvetica,sans-Serif" font-size="10.00">Queue</text>
</a>
</g>
</g>
<!-- Node8&#45;&gt;Node12 -->
<g id="edge1971_Node000008_Node000012" class="edge">
<title>Node8&#45;&gt;Node12</title>
<g id="a_edge1971_Node000008_Node000012"><a xlink:title=" ">
<path fill="none" stroke="#63b8ff" d="M142.87,-111.45C150.9,-110.63 159.05,-109.79 167.06,-108.97"/>
<polygon fill="#63b8ff" stroke="#63b8ff" points="142.74,-107.94 133.15,-112.44 143.46,-114.91 142.74,-107.94"/>
</a>
</g>
</g>
<!-- Node13 -->
<g id="Node000013" class="node">
<title>Node13</title>
<g id="a_Node000013"><a xlink:href="classJack_1_1JackMidiSendQueue.html" target="_top" xlink:title=" ">
<polygon fill="white" stroke="#666666" points="309.12,-67.88 177.62,-67.88 177.62,-48.62 309.12,-48.62 309.12,-67.88"/>
<text xml:space="preserve" text-anchor="middle" x="243.38" y="-54.38" font-family="Helvetica,sans-Serif" font-size="10.00">Jack::JackMidiSendQueue</text>
</a>
</g>
</g>
<!-- Node8&#45;&gt;Node13 -->
<g id="edge1972_Node000008_Node000013" class="edge">
<title>Node8&#45;&gt;Node13</title>
<g id="a_edge1972_Node000008_Node000013"><a xlink:title=" ">
<path fill="none" stroke="#63b8ff" d="M121.09,-105.53C124.66,-104.21 128.16,-102.78 131.5,-101.25 148.98,-93.24 149.93,-85.06 167.5,-77.25 175.47,-73.71 184.21,-70.74 192.83,-68.28"/>
<polygon fill="#63b8ff" stroke="#63b8ff" points="120.05,-102.19 111.7,-108.72 122.3,-108.82 120.05,-102.19"/>
</a>
</g>
</g>
<!-- Node14 -->
<g id="Node000014" class="node">
<title>Node14</title>
<g id="a_Node000014"><a xlink:href="classJack_1_1JackALSARawMidiSendQueue.html" target="_top" xlink:title=" ">
<polygon fill="white" stroke="#666666" points="511.88,-51.5 363.12,-51.5 363.12,-21 511.88,-21 511.88,-51.5"/>
<text xml:space="preserve" text-anchor="start" x="371.12" y="-38" font-family="Helvetica,sans-Serif" font-size="10.00">Jack::JackALSARawMidiSend</text>
<text xml:space="preserve" text-anchor="middle" x="437.5" y="-26.75" font-family="Helvetica,sans-Serif" font-size="10.00">Queue</text>
</a>
</g>
</g>
<!-- Node13&#45;&gt;Node14 -->
<g id="edge1973_Node000013_Node000014" class="edge">
<title>Node13&#45;&gt;Node14</title>
<g id="a_edge1973_Node000013_Node000014"><a xlink:title=" ">
<path fill="none" stroke="#63b8ff" d="M320.48,-49.54C334.46,-47.93 349.02,-46.27 362.92,-44.68"/>
<polygon fill="#63b8ff" stroke="#63b8ff" points="320.46,-46.01 310.92,-50.63 321.26,-52.97 320.46,-46.01"/>
</a>
</g>
</g>
<!-- Node15 -->
<g id="Node000015" class="node">
<title>Node15</title>
<g id="a_Node000015"><a xlink:href="classJack_1_1JackFFADOMidiSendQueue.html" target="_top" xlink:title=" ">
<polygon fill="white" stroke="#666666" points="519.75,-88.88 355.25,-88.88 355.25,-69.62 519.75,-69.62 519.75,-88.88"/>
<text xml:space="preserve" text-anchor="middle" x="437.5" y="-75.38" font-family="Helvetica,sans-Serif" font-size="10.00">Jack::JackFFADOMidiSendQueue</text>
</a>
</g>
</g>
<!-- Node13&#45;&gt;Node15 -->
<g id="edge1974_Node000013_Node000015" class="edge">
<title>Node13&#45;&gt;Node15</title>
<g id="a_edge1974_Node000013_Node000015"><a xlink:title=" ">
<path fill="none" stroke="#63b8ff" d="M320.54,-66.57C331.8,-67.81 343.46,-69.08 354.83,-70.32"/>
<polygon fill="#63b8ff" stroke="#63b8ff" points="321.25,-63.13 310.92,-65.52 320.48,-70.09 321.25,-63.13"/>
</a>
</g>
</g>
<!-- Node10 -->
<g id="Node000010" class="node">
<title>Node10</title>
<g id="a_Node000010"><a xlink:href="classJackMidiWriteQueue.html" target="_top" xlink:title=" ">
<polygon fill="white" stroke="#666666" points="118.75,-91.88 12.75,-91.88 12.75,-72.62 118.75,-72.62 118.75,-91.88"/>
<text xml:space="preserve" text-anchor="middle" x="65.75" y="-78.38" font-family="Helvetica,sans-Serif" font-size="10.00">JackMidiWriteQueue</text>
</a>
</g>
</g>
<!-- Node10&#45;&gt;Node1 -->
<g id="edge1975_Node000010_Node000001" class="edge">
<title>Node10&#45;&gt;Node1</title>
<g id="a_edge1975_Node000010_Node000001"><a xlink:title=" ">
<path fill="none" stroke="#63b8ff" d="M128.51,-97.95C129.54,-98.68 130.54,-99.45 131.5,-100.25 159.6,-123.66 139.14,-151.16 167.5,-174.25 171.97,-177.89 177.05,-180.84 182.42,-183.24"/>
<polygon fill="#63b8ff" stroke="#63b8ff" points="130.35,-94.96 119.94,-92.99 126.84,-101.02 130.35,-94.96"/>
</a>
</g>
</g>
<!-- Node10&#45;&gt;Node9 -->
<g id="edge1976_Node000010_Node000009" class="edge">
<title>Node10&#45;&gt;Node9</title>
<g id="a_edge1976_Node000010_Node000009"><a xlink:title=" ">
<path fill="none" stroke="#63b8ff" d="M99.03,-67.56C118.65,-58.87 144.3,-47.9 167.5,-39.25 175.17,-36.39 183.36,-33.55 191.41,-30.88"/>
<polygon fill="#63b8ff" stroke="#63b8ff" points="97.61,-64.37 89.91,-71.64 100.46,-70.76 97.61,-64.37"/>
</a>
</g>
</g>
<!-- Node10&#45;&gt;Node11 -->
<g id="edge1977_Node000010_Node000011" class="edge">
<title>Node10&#45;&gt;Node11</title>
<g id="a_edge1977_Node000010_Node000011"><a xlink:title=" ">
<path fill="none" stroke="#63b8ff" d="M121.29,-95.96C124.8,-97.28 128.23,-98.71 131.5,-100.25 149.13,-108.53 150.09,-116.52 167.5,-125.25 174.36,-128.69 181.8,-131.82 189.24,-134.61"/>
<polygon fill="#63b8ff" stroke="#63b8ff" points="122.69,-92.74 112.1,-92.79 120.41,-99.36 122.69,-92.74"/>
</a>
</g>
</g>
<!-- Node10&#45;&gt;Node12 -->
<g id="edge1978_Node000010_Node000012" class="edge">
<title>Node10&#45;&gt;Node12</title>
<g id="a_edge1978_Node000010_Node000012"><a xlink:title=" ">
<path fill="none" stroke="#63b8ff" d="M130.25,-89.12C142.27,-90.42 154.95,-91.79 167.28,-93.13"/>
<polygon fill="#63b8ff" stroke="#63b8ff" points="130.79,-85.66 120.47,-88.06 130.04,-92.62 130.79,-85.66"/>
</a>
</g>
</g>
<!-- Node10&#45;&gt;Node13 -->
<g id="edge1979_Node000010_Node000013" class="edge">
<title>Node10&#45;&gt;Node13</title>
<g id="a_edge1979_Node000010_Node000013"><a xlink:title=" ">
<path fill="none" stroke="#63b8ff" d="M129.95,-73.61C145.33,-71.51 161.81,-69.26 177.28,-67.15"/>
<polygon fill="#63b8ff" stroke="#63b8ff" points="129.9,-70.09 120.47,-74.91 130.85,-77.02 129.9,-70.09"/>
</a>
</g>
</g>
</g>
</svg>
