<?xml version="1.0" encoding="UTF-8" standalone="no"?>
<!DOCTYPE svg PUBLIC "-//W3C//DTD SVG 1.1//EN"
 "http://www.w3.org/Graphics/SVG/1.1/DTD/svg11.dtd">
<!-- Generated by graphviz version 14.0.2 (0)
 -->
<!-- Title: jackbridge_set_buffer_size_callback Pages: 1 -->
<svg width="286pt" height="113pt"
 viewBox="0.00 0.00 286.00 113.00" xmlns="http://www.w3.org/2000/svg" xmlns:xlink="http://www.w3.org/1999/xlink">
<g id="graph0" class="graph" transform="scale(1 1) rotate(0) translate(4 108.88)">
<title>jackbridge_set_buffer_size_callback</title>
<!-- Node1 -->
<g id="Node000001" class="node">
<title>Node1</title>
<g id="a_Node000001"><a xlink:title=" ">
<polygon fill="#999999" stroke="#666666" points="278,-73.5 169.75,-73.5 169.75,-43 278,-43 278,-73.5"/>
<text xml:space="preserve" text-anchor="start" x="177.75" y="-60" font-family="Helvetica,sans-Serif" font-size="10.00">jackbridge_set_buffer</text>
<text xml:space="preserve" text-anchor="middle" x="223.88" y="-48.75" font-family="Helvetica,sans-Serif" font-size="10.00">_size_callback</text>
</a>
</g>
</g>
<!-- Node2 -->
<g id="Node000002" class="node">
<title>Node2</title>
<g id="a_Node000002"><a xlink:href="classCarlaEngineJack.html#a521cb672b34e33ebef7d1de779dc3184" target="_top" xlink:title=" ">
<polygon fill="white" stroke="#666666" points="133.75,-104.88 0,-104.88 0,-85.62 133.75,-85.62 133.75,-104.88"/>
<text xml:space="preserve" text-anchor="middle" x="66.88" y="-91.38" font-family="Helvetica,sans-Serif" font-size="10.00">CarlaEngineJack::addClient</text>
</a>
</g>
</g>
<!-- Node1&#45;&gt;Node2 -->
<g id="edge1_Node000001_Node000002" class="edge">
<title>Node1&#45;&gt;Node2</title>
<g id="a_edge1_Node000001_Node000002"><a xlink:title=" ">
<path fill="none" stroke="#63b8ff" d="M158.4,-73.64C142.07,-77.54 124.96,-81.62 110.06,-85.18"/>
<polygon fill="#63b8ff" stroke="#63b8ff" points="159.15,-77.06 168.06,-71.33 157.52,-70.25 159.15,-77.06"/>
</a>
</g>
</g>
<!-- Node3 -->
<g id="Node000003" class="node">
<title>Node3</title>
<g id="a_Node000003"><a xlink:href="classCarlaEngineJack.html#a152110375ddf4891f666a2db287ba993" target="_top" xlink:title=" ">
<polygon fill="white" stroke="#666666" points="119.88,-67.88 13.88,-67.88 13.88,-48.62 119.88,-48.62 119.88,-67.88"/>
<text xml:space="preserve" text-anchor="middle" x="66.88" y="-54.38" font-family="Helvetica,sans-Serif" font-size="10.00">CarlaEngineJack::init</text>
</a>
</g>
</g>
<!-- Node1&#45;&gt;Node3 -->
<g id="edge2_Node000001_Node000003" class="edge">
<title>Node1&#45;&gt;Node3</title>
<g id="a_edge2_Node000001_Node000003"><a xlink:title=" ">
<path fill="none" stroke="#63b8ff" d="M158.12,-58.25C145.5,-58.25 132.42,-58.25 120.27,-58.25"/>
<polygon fill="#63b8ff" stroke="#63b8ff" points="158.02,-61.75 168.02,-58.25 158.02,-54.75 158.02,-61.75"/>
</a>
</g>
</g>
<!-- Node4 -->
<g id="Node000004" class="node">
<title>Node4</title>
<g id="a_Node000004"><a xlink:href="JackBridge3_8cpp.html#aede31335666c1c498c12faf88079264f" target="_top" xlink:title=" ">
<polygon fill="white" stroke="#666666" points="127.38,-30.5 6.38,-30.5 6.38,0 127.38,0 127.38,-30.5"/>
<text xml:space="preserve" text-anchor="start" x="14.38" y="-17" font-family="Helvetica,sans-Serif" font-size="10.00">jackbridge_get_exported</text>
<text xml:space="preserve" text-anchor="middle" x="66.88" y="-5.75" font-family="Helvetica,sans-Serif" font-size="10.00">_functions</text>
</a>
</g>
</g>
<!-- Node1&#45;&gt;Node4 -->
<g id="edge3_Node000001_Node000004" class="edge">
<title>Node1&#45;&gt;Node4</title>
<g id="a_edge3_Node000001_Node000004"><a xlink:title=" ">
<path fill="none" stroke="#63b8ff" d="M158.78,-40.47C147.41,-37.31 135.64,-34.05 124.49,-30.96"/>
<polygon fill="#63b8ff" stroke="#63b8ff" points="157.5,-43.75 168.07,-43.05 159.37,-37 157.5,-43.75"/>
</a>
</g>
</g>
</g>
</svg>
