<?xml version="1.0" encoding="UTF-8" standalone="no"?>
<!DOCTYPE svg PUBLIC "-//W3C//DTD SVG 1.1//EN"
 "http://www.w3.org/Graphics/SVG/1.1/DTD/svg11.dtd">
<!-- Generated by graphviz version 14.0.2 (0)
 -->
<!-- Title: src/3rdparty/jack2/common/JackAudioAdapter.cpp Pages: 1 -->
<!--zoomable 260 -->

<svg id="main" version="1.1" xmlns="http://www.w3.org/2000/svg" xmlns:xlink="http://www.w3.org/1999/xlink" xml:space="preserve" onload="init(evt)">

<style type="text/css"><![CDATA[
.node, .edge {opacity: 0.7;}
.node.selected, .edge.selected {opacity: 1;}
.edge:hover path { stroke: red; }
.edge:hover polygon { stroke: red; fill: red; }
]]></style>

<defs>
  <circle id="rim" cx="0" cy="0" r="7"/>
  <circle id="rim2" cx="0" cy="0" r="3.5"/>
  <g id="zoomPlus">
    <use xlink:href="#rim" fill="#404040"><set attributeName="fill" to="#808080" begin="zoomplus.mouseover" end="zoomplus.mouseout"/></use>
    <path d="M-4,0h8M0,-4v8" fill="none" stroke="white" stroke-width="1.5" pointer-events="none"/>
  </g>
  <g id="zoomMin">
    <use xlink:href="#rim" fill="#404040"><set attributeName="fill" to="#808080" begin="zoomminus.mouseover" end="zoomminus.mouseout"/></use>
    <path d="M-4,0h8" fill="none" stroke="white" stroke-width="1.5" pointer-events="none"/>
  </g>
  <g id="arrowUp" transform="translate(30 24)">
    <use xlink:href="#rim"/>
    <path pointer-events="none" fill="none" stroke="white" stroke-width="1.5" d="M0,-3.0v7 M-2.5,-0.5L0,-3.0L2.5,-0.5"/>
  </g>
  <g id="arrowRight" transform="rotate(90) translate(36 -43)">
    <use xlink:href="#rim"/>
    <path pointer-events="none" fill="none" stroke="white" stroke-width="1.5" d="M0,-3.0v7 M-2.5,-0.5L0,-3.0L2.5,-0.5"/>
  </g>
  <g id="arrowDown" transform="rotate(180) translate(-30 -48)">
    <use xlink:href="#rim"/>
    <path pointer-events="none" fill="none" stroke="white" stroke-width="1.5" d="M0,-3.0v7 M-2.5,-0.5L0,-3.0L2.5,-0.5"/>
  </g>
  <g id="arrowLeft" transform="rotate(270) translate(-36 17)">
    <use xlink:href="#rim"/>
    <path pointer-events="none" fill="none" stroke="white" stroke-width="1.5" d="M0,-3.0v7 M-2.5,-0.5L0,-3.0L2.5,-0.5"/>
  </g>
  <g id="resetDef">
    <use xlink:href="#rim2" fill="#404040"><set attributeName="fill" to="#808080" begin="reset.mouseover" end="reset.mouseout"/></use>
  </g>
</defs>
<script type="application/ecmascript">
var viewWidth = 1454;
var viewHeight = 260;
var sectionId = 'dynsection-0';
</script>
<script type="application/ecmascript" xlink:href="svg.min.js"/>
<svg id="graph" class="graph">
<g id="viewport">
<title>src/3rdparty/jack2/common/JackAudioAdapter.cpp</title>
<!-- Node1 -->
<g id="Node000001" class="node">
<title>Node1</title>
<g id="a_Node000001"><a xlink:title=" ">
<polygon fill="#999999" stroke="#666666" points="651,-251.5 494,-251.5 494,-221 651,-221 651,-251.5"/>
<text xml:space="preserve" text-anchor="start" x="502" y="-238" font-family="Helvetica,sans-Serif" font-size="10.00">src/3rdparty/jack2</text>
<text xml:space="preserve" text-anchor="middle" x="572.5" y="-226.75" font-family="Helvetica,sans-Serif" font-size="10.00">/common/JackAudioAdapter.cpp</text>
</a>
</g>
</g>
<!-- Node2 -->
<g id="Node000002" class="node">
<title>Node2</title>
<g id="a_Node000002"><a xlink:href="JackAudioAdapter_8h.html" target="_top" xlink:title=" ">
<polygon fill="white" stroke="#666666" points="276,-185 173,-185 173,-165.75 276,-165.75 276,-185"/>
<text xml:space="preserve" text-anchor="middle" x="224.5" y="-171.5" font-family="Helvetica,sans-Serif" font-size="10.00">JackAudioAdapter.h</text>
</a>
</g>
</g>
<!-- Node1&#45;&gt;Node2 -->
<g id="edge1_Node000001_Node000002" class="edge">
<title>Node1&#45;&gt;Node2</title>
<g id="a_edge1_Node000001_Node000002"><a xlink:title=" ">
<path fill="none" stroke="#63b8ff" d="M493.53,-221.89C431.21,-211.35 345.42,-196.83 287.62,-187.05"/>
<polygon fill="#63b8ff" stroke="#63b8ff" points="288.38,-183.63 277.94,-185.42 287.22,-190.54 288.38,-183.63"/>
</a>
</g>
</g>
<!-- Node23 -->
<g id="Node000023" class="node">
<title>Node23</title>
<g id="a_Node000023"><a xlink:title=" ">
<polygon fill="#e0e0e0" stroke="#999999" points="321.88,-19.25 275.12,-19.25 275.12,0 321.88,0 321.88,-19.25"/>
<text xml:space="preserve" text-anchor="middle" x="298.5" y="-5.75" font-family="Helvetica,sans-Serif" font-size="10.00">stdlib.h</text>
</a>
</g>
</g>
<!-- Node1&#45;&gt;Node23 -->
<g id="edge36_Node000001_Node000023" class="edge">
<title>Node1&#45;&gt;Node23</title>
<g id="a_edge36_Node000001_Node000023"><a xlink:title=" ">
<path fill="none" stroke="#63b8ff" d="M555.28,-220.77C544.4,-211.2 530.39,-198.04 519.5,-185 475.3,-132.09 489.22,-97.19 434.5,-55.25 404.73,-32.43 362.77,-21.01 333.36,-15.47"/>
<polygon fill="#63b8ff" stroke="#63b8ff" points="334.31,-12.09 323.86,-13.83 333.12,-18.98 334.31,-12.09"/>
</a>
</g>
</g>
<!-- Node24 -->
<g id="Node000024" class="node">
<title>Node24</title>
<g id="a_Node000024"><a xlink:title=" ">
<polygon fill="#e0e0e0" stroke="#999999" points="242.75,-74.5 198.25,-74.5 198.25,-55.25 242.75,-55.25 242.75,-74.5"/>
<text xml:space="preserve" text-anchor="middle" x="220.5" y="-61" font-family="Helvetica,sans-Serif" font-size="10.00">stdio.h</text>
</a>
</g>
</g>
<!-- Node1&#45;&gt;Node24 -->
<g id="edge35_Node000001_Node000024" class="edge">
<title>Node1&#45;&gt;Node24</title>
<g id="a_edge35_Node000001_Node000024"><a xlink:title=" ">
<path fill="none" stroke="#63b8ff" d="M530.81,-220.51C504.42,-210.93 469.7,-197.87 439.5,-185 386.97,-162.61 373.62,-157.12 323.5,-129.75 295.22,-114.31 263.92,-94.49 243.33,-81.05"/>
<polygon fill="#63b8ff" stroke="#63b8ff" points="245.42,-78.23 235.14,-75.67 241.58,-84.08 245.42,-78.23"/>
</a>
</g>
</g>
<!-- Node27 -->
<g id="Node000027" class="node">
<title>Node27</title>
<g id="a_Node000027"><a xlink:title=" ">
<polygon fill="#e0e0e0" stroke="#999999" points="525.38,-74.5 481.62,-74.5 481.62,-55.25 525.38,-55.25 525.38,-74.5"/>
<text xml:space="preserve" text-anchor="middle" x="503.5" y="-61" font-family="Helvetica,sans-Serif" font-size="10.00">jslist.h</text>
</a>
</g>
</g>
<!-- Node1&#45;&gt;Node27 -->
<g id="edge34_Node000001_Node000027" class="edge">
<title>Node1&#45;&gt;Node27</title>
<g id="a_edge34_Node000001_Node000027"><a xlink:title=" ">
<path fill="none" stroke="#63b8ff" d="M557.17,-220.77C548.12,-211.39 537.16,-198.45 530.5,-185 514.47,-152.62 507.82,-110.57 505.16,-86.07"/>
<polygon fill="#63b8ff" stroke="#63b8ff" points="508.66,-85.85 504.23,-76.22 501.69,-86.51 508.66,-85.85"/>
</a>
</g>
</g>
<!-- Node16 -->
<g id="Node000016" class="node">
<title>Node16</title>
<g id="a_Node000016"><a xlink:href="JackCompilerDeps_8h.html" target="_top" xlink:title=" ">
<polygon fill="#fff0f0" stroke="red" points="679.12,-74.5 573.88,-74.5 573.88,-55.25 679.12,-55.25 679.12,-74.5"/>
<text xml:space="preserve" text-anchor="middle" x="626.5" y="-61" font-family="Helvetica,sans-Serif" font-size="10.00">JackCompilerDeps.h</text>
</a>
</g>
</g>
<!-- Node1&#45;&gt;Node16 -->
<g id="edge16_Node000001_Node000016" class="edge">
<title>Node1&#45;&gt;Node16</title>
<g id="a_edge16_Node000001_Node000016"><a xlink:title=" ">
<path fill="none" stroke="#63b8ff" d="M586.71,-220.81C595.56,-211.24 606.7,-198.09 614.5,-185 628.03,-162.3 631.52,-155.71 636.5,-129.75 639.35,-114.88 636.42,-97.95 633.01,-85.25"/>
<polygon fill="#63b8ff" stroke="#63b8ff" points="636.47,-84.58 630.21,-76.03 629.77,-86.62 636.47,-84.58"/>
</a>
</g>
</g>
<!-- Node30 -->
<g id="Node000030" class="node">
<title>Node30</title>
<g id="a_Node000030"><a xlink:href="JackError_8h.html" target="_top" xlink:title=" ">
<polygon fill="white" stroke="#666666" points="823.88,-129.75 759.12,-129.75 759.12,-110.5 823.88,-110.5 823.88,-129.75"/>
<text xml:space="preserve" text-anchor="middle" x="791.5" y="-116.25" font-family="Helvetica,sans-Serif" font-size="10.00">JackError.h</text>
</a>
</g>
</g>
<!-- Node1&#45;&gt;Node30 -->
<g id="edge12_Node000001_Node000030" class="edge">
<title>Node1&#45;&gt;Node30</title>
<g id="a_edge12_Node000001_Node000030"><a xlink:title=" ">
<path fill="none" stroke="#63b8ff" d="M600.95,-220.55C620.3,-210.55 646.45,-197 669.5,-185 702.01,-168.07 739.34,-148.51 764.05,-135.54"/>
<polygon fill="#63b8ff" stroke="#63b8ff" points="765.57,-138.7 772.8,-130.95 762.32,-132.5 765.57,-138.7"/>
</a>
</g>
</g>
<!-- Node32 -->
<g id="Node000032" class="node">
<title>Node32</title>
<g id="a_Node000032"><a xlink:href="JackTools_8h.html" target="_top" xlink:title=" ">
<polygon fill="white" stroke="#666666" points="994.75,-185 926.25,-185 926.25,-165.75 994.75,-165.75 994.75,-185"/>
<text xml:space="preserve" text-anchor="middle" x="960.5" y="-171.5" font-family="Helvetica,sans-Serif" font-size="10.00">JackTools.h</text>
</a>
</g>
</g>
<!-- Node1&#45;&gt;Node32 -->
<g id="edge17_Node000001_Node000032" class="edge">
<title>Node1&#45;&gt;Node32</title>
<g id="a_edge17_Node000001_Node000032"><a xlink:title=" ">
<path fill="none" stroke="#63b8ff" d="M651.49,-223.26C730.71,-211.24 849.97,-193.15 914.72,-183.32"/>
<polygon fill="#63b8ff" stroke="#63b8ff" points="914.92,-186.83 924.28,-181.87 913.87,-179.91 914.92,-186.83"/>
</a>
</g>
</g>
<!-- Node42 -->
<g id="Node000042" class="node">
<title>Node42</title>
<g id="a_Node000042"><a xlink:href="JackTime_8h.html" target="_top" xlink:title=" ">
<polygon fill="white" stroke="#666666" points="605.62,-185 539.38,-185 539.38,-165.75 605.62,-165.75 605.62,-185"/>
<text xml:space="preserve" text-anchor="middle" x="572.5" y="-171.5" font-family="Helvetica,sans-Serif" font-size="10.00">JackTime.h</text>
</a>
</g>
</g>
<!-- Node1&#45;&gt;Node42 -->
<g id="edge30_Node000001_Node000042" class="edge">
<title>Node1&#45;&gt;Node42</title>
<g id="a_edge30_Node000001_Node000042"><a xlink:title=" ">
<path fill="none" stroke="#63b8ff" d="M572.5,-220.7C572.5,-213.46 572.5,-204.59 572.5,-196.69"/>
<polygon fill="#63b8ff" stroke="#63b8ff" points="576,-196.96 572.5,-186.96 569,-196.96 576,-196.96"/>
</a>
</g>
</g>
<!-- Node43 -->
<g id="Node000043" class="node">
<title>Node43</title>
<g id="a_Node000043"><a xlink:href="assert_8h.html" target="_top" xlink:title=" ">
<polygon fill="white" stroke="#666666" points="1063.75,-185 1013.25,-185 1013.25,-165.75 1063.75,-165.75 1063.75,-185"/>
<text xml:space="preserve" text-anchor="middle" x="1038.5" y="-171.5" font-family="Helvetica,sans-Serif" font-size="10.00">assert.h</text>
</a>
</g>
</g>
<!-- Node1&#45;&gt;Node43 -->
<g id="edge37_Node000001_Node000043" class="edge">
<title>Node1&#45;&gt;Node43</title>
<g id="a_edge37_Node000001_Node000043"><a xlink:title=" ">
<path fill="none" stroke="#63b8ff" d="M651.19,-229.06C735.47,-221.76 873.29,-207.89 1001.76,-185.08"/>
<polygon fill="#63b8ff" stroke="#63b8ff" points="1002.25,-188.54 1011.48,-183.33 1001.01,-181.66 1002.25,-188.54"/>
</a>
</g>
</g>
<!-- Node3 -->
<g id="Node000003" class="node">
<title>Node3</title>
<g id="a_Node000003"><a xlink:href="JackAudioAdapterInterface_8h.html" target="_top" xlink:title=" ">
<polygon fill="white" stroke="#666666" points="247.12,-129.75 105.88,-129.75 105.88,-110.5 247.12,-110.5 247.12,-129.75"/>
<text xml:space="preserve" text-anchor="middle" x="176.5" y="-116.25" font-family="Helvetica,sans-Serif" font-size="10.00">JackAudioAdapterInterface.h</text>
</a>
</g>
</g>
<!-- Node2&#45;&gt;Node3 -->
<g id="edge2_Node000002_Node000003" class="edge">
<title>Node2&#45;&gt;Node3</title>
<g id="a_edge2_Node000002_Node000003"><a xlink:title=" ">
<path fill="none" stroke="#63b8ff" d="M216.57,-165.58C209.94,-158.23 200.28,-147.51 192.11,-138.44"/>
<polygon fill="#63b8ff" stroke="#63b8ff" points="194.91,-136.32 185.61,-131.23 189.71,-141 194.91,-136.32"/>
</a>
</g>
</g>
<!-- Node25 -->
<g id="Node000025" class="node">
<title>Node25</title>
<g id="a_Node000025"><a xlink:href="driver__interface_8h.html" target="_top" xlink:title=" ">
<polygon fill="white" stroke="#666666" points="422.62,-129.75 332.38,-129.75 332.38,-110.5 422.62,-110.5 422.62,-129.75"/>
<text xml:space="preserve" text-anchor="middle" x="377.5" y="-116.25" font-family="Helvetica,sans-Serif" font-size="10.00">driver_interface.h</text>
</a>
</g>
</g>
<!-- Node2&#45;&gt;Node25 -->
<g id="edge7_Node000002_Node000025" class="edge">
<title>Node2&#45;&gt;Node25</title>
<g id="a_edge7_Node000002_Node000025"><a xlink:title=" ">
<path fill="none" stroke="#63b8ff" d="M250.45,-165.34C275.29,-156.7 313,-143.57 340.88,-133.87"/>
<polygon fill="#63b8ff" stroke="#63b8ff" points="341.69,-137.29 349.99,-130.7 339.39,-130.68 341.69,-137.29"/>
</a>
</g>
</g>
<!-- Node4 -->
<g id="Node000004" class="node">
<title>Node4</title>
<g id="a_Node000004"><a xlink:href="JackResampler_8h.html" target="_top" xlink:title=" ">
<polygon fill="#fff0f0" stroke="red" points="91,-74.5 0,-74.5 0,-55.25 91,-55.25 91,-74.5"/>
<text xml:space="preserve" text-anchor="middle" x="45.5" y="-61" font-family="Helvetica,sans-Serif" font-size="10.00">JackResampler.h</text>
</a>
</g>
</g>
<!-- Node3&#45;&gt;Node4 -->
<g id="edge3_Node000003_Node000004" class="edge">
<title>Node3&#45;&gt;Node4</title>
<g id="a_edge3_Node000003_Node000004"><a xlink:title=" ">
<path fill="none" stroke="#63b8ff" d="M154.28,-110.09C133.48,-101.64 102.15,-88.9 78.45,-79.27"/>
<polygon fill="#63b8ff" stroke="#63b8ff" points="79.82,-76.05 69.23,-75.52 77.18,-82.53 79.82,-76.05"/>
</a>
</g>
</g>
<!-- Node7 -->
<g id="Node000007" class="node">
<title>Node7</title>
<g id="a_Node000007"><a xlink:href="JackFilters_8h.html" target="_top" xlink:title=" ">
<polygon fill="#fff0f0" stroke="red" points="180.25,-74.5 108.75,-74.5 108.75,-55.25 180.25,-55.25 180.25,-74.5"/>
<text xml:space="preserve" text-anchor="middle" x="144.5" y="-61" font-family="Helvetica,sans-Serif" font-size="10.00">JackFilters.h</text>
</a>
</g>
</g>
<!-- Node3&#45;&gt;Node7 -->
<g id="edge4_Node000003_Node000007" class="edge">
<title>Node3&#45;&gt;Node7</title>
<g id="a_edge4_Node000003_Node000007"><a xlink:title=" ">
<path fill="none" stroke="#63b8ff" d="M171.22,-110.33C167.03,-103.36 161.02,-93.37 155.77,-84.62"/>
<polygon fill="#63b8ff" stroke="#63b8ff" points="158.83,-82.93 150.68,-76.16 152.83,-86.53 158.83,-82.93"/>
</a>
</g>
</g>
<!-- Node3&#45;&gt;Node24 -->
<g id="edge6_Node000003_Node000024" class="edge">
<title>Node3&#45;&gt;Node24</title>
<g id="a_edge6_Node000003_Node000024"><a xlink:title=" ">
<path fill="none" stroke="#63b8ff" d="M183.77,-110.33C189.78,-103.05 198.51,-92.48 205.96,-83.48"/>
<polygon fill="#63b8ff" stroke="#63b8ff" points="208.44,-85.96 212.11,-76.03 203.04,-81.51 208.44,-85.96"/>
</a>
</g>
</g>
<!-- Node7&#45;&gt;Node23 -->
<g id="edge5_Node000007_Node000023" class="edge">
<title>Node7&#45;&gt;Node23</title>
<g id="a_edge5_Node000007_Node000023"><a xlink:title=" ">
<path fill="none" stroke="#63b8ff" d="M170.62,-54.84C196.38,-45.94 235.89,-32.28 264.17,-22.5"/>
<polygon fill="#63b8ff" stroke="#63b8ff" points="265.04,-25.9 273.35,-19.32 262.76,-19.28 265.04,-25.9"/>
</a>
</g>
</g>
<!-- Node26 -->
<g id="Node000026" class="node">
<title>Node26</title>
<g id="a_Node000026"><a xlink:title=" ">
<polygon fill="#e0e0e0" stroke="#999999" points="307.88,-74.5 261.12,-74.5 261.12,-55.25 307.88,-55.25 307.88,-74.5"/>
<text xml:space="preserve" text-anchor="middle" x="284.5" y="-61" font-family="Helvetica,sans-Serif" font-size="10.00">limits.h</text>
</a>
</g>
</g>
<!-- Node25&#45;&gt;Node26 -->
<g id="edge8_Node000025_Node000026" class="edge">
<title>Node25&#45;&gt;Node26</title>
<g id="a_edge8_Node000025_Node000026"><a xlink:title=" ">
<path fill="none" stroke="#63b8ff" d="M361.72,-110.09C347.56,-101.98 326.52,-89.93 309.97,-80.46"/>
<polygon fill="#63b8ff" stroke="#63b8ff" points="312.08,-77.64 301.67,-75.7 308.61,-83.71 312.08,-77.64"/>
</a>
</g>
</g>
<!-- Node25&#45;&gt;Node27 -->
<g id="edge9_Node000025_Node000027" class="edge">
<title>Node25&#45;&gt;Node27</title>
<g id="a_edge9_Node000025_Node000027"><a xlink:title=" ">
<path fill="none" stroke="#63b8ff" d="M398.87,-110.09C418.79,-101.68 448.74,-89.02 471.5,-79.4"/>
<polygon fill="#63b8ff" stroke="#63b8ff" points="472.78,-82.66 480.63,-75.54 470.05,-76.21 472.78,-82.66"/>
</a>
</g>
</g>
<!-- Node25&#45;&gt;Node16 -->
<g id="edge10_Node000025_Node000016" class="edge">
<title>Node25&#45;&gt;Node16</title>
<g id="a_edge10_Node000025_Node000016"><a xlink:title=" ">
<path fill="none" stroke="#63b8ff" d="M420.02,-110.03C462.28,-100.99 527.22,-87.11 572.96,-77.32"/>
<polygon fill="#63b8ff" stroke="#63b8ff" points="573.63,-80.76 582.67,-75.25 572.16,-73.92 573.63,-80.76"/>
</a>
</g>
</g>
<!-- Node28 -->
<g id="Node000028" class="node">
<title>Node28</title>
<g id="a_Node000028"><a xlink:href="JackSystemDeps_8h.html" target="_top" xlink:title=" ">
<polygon fill="#fff0f0" stroke="red" points="425.5,-74.5 325.5,-74.5 325.5,-55.25 425.5,-55.25 425.5,-74.5"/>
<text xml:space="preserve" text-anchor="middle" x="375.5" y="-61" font-family="Helvetica,sans-Serif" font-size="10.00">JackSystemDeps.h</text>
</a>
</g>
</g>
<!-- Node25&#45;&gt;Node28 -->
<g id="edge11_Node000025_Node000028" class="edge">
<title>Node25&#45;&gt;Node28</title>
<g id="a_edge11_Node000025_Node000028"><a xlink:title=" ">
<path fill="none" stroke="#63b8ff" d="M377.17,-110.33C376.92,-103.74 376.57,-94.46 376.26,-86.07"/>
<polygon fill="#63b8ff" stroke="#63b8ff" points="379.77,-86.23 375.89,-76.37 372.77,-86.5 379.77,-86.23"/>
</a>
</g>
</g>
<!-- Node30&#45;&gt;Node16 -->
<g id="edge15_Node000030_Node000016" class="edge">
<title>Node30&#45;&gt;Node16</title>
<g id="a_edge15_Node000030_Node000016"><a xlink:title=" ">
<path fill="none" stroke="#63b8ff" d="M763.51,-110.09C736.49,-101.37 695.34,-88.09 665.19,-78.36"/>
<polygon fill="#63b8ff" stroke="#63b8ff" points="666.66,-75.16 656.07,-75.42 664.51,-81.82 666.66,-75.16"/>
</a>
</g>
</g>
<!-- Node20 -->
<g id="Node000020" class="node">
<title>Node20</title>
<g id="a_Node000020"><a xlink:title=" ">
<polygon fill="#e0e0e0" stroke="#999999" points="783.25,-74.5 735.75,-74.5 735.75,-55.25 783.25,-55.25 783.25,-74.5"/>
<text xml:space="preserve" text-anchor="middle" x="759.5" y="-61" font-family="Helvetica,sans-Serif" font-size="10.00">string.h</text>
</a>
</g>
</g>
<!-- Node30&#45;&gt;Node20 -->
<g id="edge13_Node000030_Node000020" class="edge">
<title>Node30&#45;&gt;Node20</title>
<g id="a_edge13_Node000030_Node000020"><a xlink:title=" ">
<path fill="none" stroke="#63b8ff" d="M786.22,-110.33C782.03,-103.36 776.02,-93.37 770.77,-84.62"/>
<polygon fill="#63b8ff" stroke="#63b8ff" points="773.83,-82.93 765.68,-76.16 767.83,-86.53 773.83,-82.93"/>
</a>
</g>
</g>
<!-- Node31 -->
<g id="Node000031" class="node">
<title>Node31</title>
<g id="a_Node000031"><a xlink:title=" ">
<polygon fill="#e0e0e0" stroke="#999999" points="846.12,-74.5 800.88,-74.5 800.88,-55.25 846.12,-55.25 846.12,-74.5"/>
<text xml:space="preserve" text-anchor="middle" x="823.5" y="-61" font-family="Helvetica,sans-Serif" font-size="10.00">errno.h</text>
</a>
</g>
</g>
<!-- Node30&#45;&gt;Node31 -->
<g id="edge14_Node000030_Node000031" class="edge">
<title>Node30&#45;&gt;Node31</title>
<g id="a_edge14_Node000030_Node000031"><a xlink:title=" ">
<path fill="none" stroke="#63b8ff" d="M796.78,-110.33C800.97,-103.36 806.98,-93.37 812.23,-84.62"/>
<polygon fill="#63b8ff" stroke="#63b8ff" points="815.17,-86.53 817.32,-76.16 809.17,-82.93 815.17,-86.53"/>
</a>
</g>
</g>
<!-- Node32&#45;&gt;Node27 -->
<g id="edge22_Node000032_Node000027" class="edge">
<title>Node32&#45;&gt;Node27</title>
<g id="a_edge22_Node000032_Node000027"><a xlink:title=" ">
<path fill="none" stroke="#63b8ff" d="M925.83,-169.71C876.82,-162.78 784.63,-148.55 707.5,-129.75 646.33,-114.84 576.64,-91.64 536.59,-77.69"/>
<polygon fill="#63b8ff" stroke="#63b8ff" points="537.9,-74.43 527.3,-74.43 535.58,-81.04 537.9,-74.43"/>
</a>
</g>
</g>
<!-- Node32&#45;&gt;Node16 -->
<g id="edge23_Node000032_Node000016" class="edge">
<title>Node32&#45;&gt;Node16</title>
<g id="a_edge23_Node000032_Node000016"><a xlink:title=" ">
<path fill="none" stroke="#63b8ff" d="M925.9,-169.91C883.63,-163.8 810.36,-151.09 750.5,-129.75 731.12,-122.84 682.81,-96.95 652.54,-80.33"/>
<polygon fill="#63b8ff" stroke="#63b8ff" points="654.43,-77.37 643.98,-75.61 651.05,-83.5 654.43,-77.37"/>
</a>
</g>
</g>
<!-- Node32&#45;&gt;Node30 -->
<g id="edge24_Node000032_Node000030" class="edge">
<title>Node32&#45;&gt;Node30</title>
<g id="a_edge24_Node000032_Node000030"><a xlink:title=" ">
<path fill="none" stroke="#63b8ff" d="M931.83,-165.34C904.15,-156.62 862.01,-143.34 831.13,-133.61"/>
<polygon fill="#63b8ff" stroke="#63b8ff" points="832.34,-130.32 821.75,-130.66 830.24,-137 832.34,-130.32"/>
</a>
</g>
</g>
<!-- Node33 -->
<g id="Node000033" class="node">
<title>Node33</title>
<g id="a_Node000033"><a xlink:title=" ">
<polygon fill="#e0e0e0" stroke="#999999" points="1296.5,-129.75 1238.5,-129.75 1238.5,-110.5 1296.5,-110.5 1296.5,-129.75"/>
<text xml:space="preserve" text-anchor="middle" x="1267.5" y="-116.25" font-family="Helvetica,sans-Serif" font-size="10.00">sys/stat.h</text>
</a>
</g>
</g>
<!-- Node32&#45;&gt;Node33 -->
<g id="edge18_Node000032_Node000033" class="edge">
<title>Node32&#45;&gt;Node33</title>
<g id="a_edge18_Node000032_Node000033"><a xlink:title=" ">
<path fill="none" stroke="#63b8ff" d="M995.07,-167.48C998.25,-166.88 1001.43,-166.3 1004.5,-165.75 1100.7,-148.63 1128.16,-148.92 1226.99,-130.13"/>
<polygon fill="#63b8ff" stroke="#63b8ff" points="1227.43,-133.61 1236.59,-128.29 1226.11,-126.74 1227.43,-133.61"/>
</a>
</g>
</g>
<!-- Node34 -->
<g id="Node000034" class="node">
<title>Node34</title>
<g id="a_Node000034"><a xlink:title=" ">
<polygon fill="#e0e0e0" stroke="#999999" points="1378.88,-129.75 1314.12,-129.75 1314.12,-110.5 1378.88,-110.5 1378.88,-129.75"/>
<text xml:space="preserve" text-anchor="middle" x="1346.5" y="-116.25" font-family="Helvetica,sans-Serif" font-size="10.00">sys/types.h</text>
</a>
</g>
</g>
<!-- Node32&#45;&gt;Node34 -->
<g id="edge19_Node000032_Node000034" class="edge">
<title>Node32&#45;&gt;Node34</title>
<g id="a_edge19_Node000032_Node000034"><a xlink:title=" ">
<path fill="none" stroke="#63b8ff" d="M995.04,-167.35C998.24,-166.78 1001.42,-166.23 1004.5,-165.75 1133.95,-145.35 1170.57,-151.28 1302.52,-130.11"/>
<polygon fill="#63b8ff" stroke="#63b8ff" points="1303.07,-133.57 1312.38,-128.5 1301.95,-126.66 1303.07,-133.57"/>
</a>
</g>
</g>
<!-- Node35 -->
<g id="Node000035" class="node">
<title>Node35</title>
<g id="a_Node000035"><a xlink:title=" ">
<polygon fill="#e0e0e0" stroke="#999999" points="1446.38,-129.75 1396.62,-129.75 1396.62,-110.5 1446.38,-110.5 1446.38,-129.75"/>
<text xml:space="preserve" text-anchor="middle" x="1421.5" y="-116.25" font-family="Helvetica,sans-Serif" font-size="10.00">unistd.h</text>
</a>
</g>
</g>
<!-- Node32&#45;&gt;Node35 -->
<g id="edge20_Node000032_Node000035" class="edge">
<title>Node32&#45;&gt;Node35</title>
<g id="a_edge20_Node000032_Node000035"><a xlink:title=" ">
<path fill="none" stroke="#63b8ff" d="M995.03,-167.27C998.23,-166.71 1001.42,-166.2 1004.5,-165.75 1170.08,-141.8 1217.02,-158.12 1385.09,-129.89"/>
<polygon fill="#63b8ff" stroke="#63b8ff" points="1385.58,-133.36 1394.85,-128.22 1384.4,-126.46 1385.58,-133.36"/>
</a>
</g>
</g>
<!-- Node36 -->
<g id="Node000036" class="node">
<title>Node36</title>
<g id="a_Node000036"><a xlink:title=" ">
<polygon fill="#e0e0e0" stroke="#999999" points="889.25,-129.75 841.75,-129.75 841.75,-110.5 889.25,-110.5 889.25,-129.75"/>
<text xml:space="preserve" text-anchor="middle" x="865.5" y="-116.25" font-family="Helvetica,sans-Serif" font-size="10.00">dirent.h</text>
</a>
</g>
</g>
<!-- Node32&#45;&gt;Node36 -->
<g id="edge21_Node000032_Node000036" class="edge">
<title>Node32&#45;&gt;Node36</title>
<g id="a_edge21_Node000032_Node000036"><a xlink:title=" ">
<path fill="none" stroke="#63b8ff" d="M944.38,-165.34C929.92,-157.23 908.42,-145.18 891.52,-135.71"/>
<polygon fill="#63b8ff" stroke="#63b8ff" points="893.45,-132.78 883.01,-130.94 890.03,-138.89 893.45,-132.78"/>
</a>
</g>
</g>
<!-- Node37 -->
<g id="Node000037" class="node">
<title>Node37</title>
<g id="a_Node000037"><a xlink:title=" ">
<polygon fill="#e0e0e0" stroke="#999999" points="947.5,-129.75 907.5,-129.75 907.5,-110.5 947.5,-110.5 947.5,-129.75"/>
<text xml:space="preserve" text-anchor="middle" x="927.5" y="-116.25" font-family="Helvetica,sans-Serif" font-size="10.00">string</text>
</a>
</g>
</g>
<!-- Node32&#45;&gt;Node37 -->
<g id="edge25_Node000032_Node000037" class="edge">
<title>Node32&#45;&gt;Node37</title>
<g id="a_edge25_Node000032_Node000037"><a xlink:title=" ">
<path fill="none" stroke="#63b8ff" d="M955.05,-165.58C950.73,-158.61 944.54,-148.62 939.12,-139.87"/>
<polygon fill="#63b8ff" stroke="#63b8ff" points="942.11,-138.05 933.86,-131.4 936.16,-141.74 942.11,-138.05"/>
</a>
</g>
</g>
<!-- Node38 -->
<g id="Node000038" class="node">
<title>Node38</title>
<g id="a_Node000038"><a xlink:title=" ">
<polygon fill="#e0e0e0" stroke="#999999" points="1021.38,-129.75 965.62,-129.75 965.62,-110.5 1021.38,-110.5 1021.38,-129.75"/>
<text xml:space="preserve" text-anchor="middle" x="993.5" y="-116.25" font-family="Helvetica,sans-Serif" font-size="10.00">algorithm</text>
</a>
</g>
</g>
<!-- Node32&#45;&gt;Node38 -->
<g id="edge26_Node000032_Node000038" class="edge">
<title>Node32&#45;&gt;Node38</title>
<g id="a_edge26_Node000032_Node000038"><a xlink:title=" ">
<path fill="none" stroke="#63b8ff" d="M965.95,-165.58C970.27,-158.61 976.46,-148.62 981.88,-139.87"/>
<polygon fill="#63b8ff" stroke="#63b8ff" points="984.84,-141.74 987.14,-131.4 978.89,-138.05 984.84,-141.74"/>
</a>
</g>
</g>
<!-- Node39 -->
<g id="Node000039" class="node">
<title>Node39</title>
<g id="a_Node000039"><a xlink:title=" ">
<polygon fill="#e0e0e0" stroke="#999999" points="1082,-129.75 1039,-129.75 1039,-110.5 1082,-110.5 1082,-129.75"/>
<text xml:space="preserve" text-anchor="middle" x="1060.5" y="-116.25" font-family="Helvetica,sans-Serif" font-size="10.00">vector</text>
</a>
</g>
</g>
<!-- Node32&#45;&gt;Node39 -->
<g id="edge27_Node000032_Node000039" class="edge">
<title>Node32&#45;&gt;Node39</title>
<g id="a_edge27_Node000032_Node000039"><a xlink:title=" ">
<path fill="none" stroke="#63b8ff" d="M977.46,-165.34C992.76,-157.19 1015.53,-145.07 1033.36,-135.58"/>
<polygon fill="#63b8ff" stroke="#63b8ff" points="1034.94,-138.7 1042.12,-130.91 1031.65,-132.52 1034.94,-138.7"/>
</a>
</g>
</g>
<!-- Node40 -->
<g id="Node000040" class="node">
<title>Node40</title>
<g id="a_Node000040"><a xlink:title=" ">
<polygon fill="#e0e0e0" stroke="#999999" points="1153.25,-129.75 1099.75,-129.75 1099.75,-110.5 1153.25,-110.5 1153.25,-129.75"/>
<text xml:space="preserve" text-anchor="middle" x="1126.5" y="-116.25" font-family="Helvetica,sans-Serif" font-size="10.00">iostream</text>
</a>
</g>
</g>
<!-- Node32&#45;&gt;Node40 -->
<g id="edge28_Node000032_Node000040" class="edge">
<title>Node32&#45;&gt;Node40</title>
<g id="a_edge28_Node000032_Node000040"><a xlink:title=" ">
<path fill="none" stroke="#63b8ff" d="M988.66,-165.34C1016.18,-156.52 1058.25,-143.02 1088.67,-133.26"/>
<polygon fill="#63b8ff" stroke="#63b8ff" points="1089.41,-136.7 1097.87,-130.31 1087.27,-130.03 1089.41,-136.7"/>
</a>
</g>
</g>
<!-- Node41 -->
<g id="Node000041" class="node">
<title>Node41</title>
<g id="a_Node000041"><a xlink:title=" ">
<polygon fill="#e0e0e0" stroke="#999999" points="1220,-129.75 1171,-129.75 1171,-110.5 1220,-110.5 1220,-129.75"/>
<text xml:space="preserve" text-anchor="middle" x="1195.5" y="-116.25" font-family="Helvetica,sans-Serif" font-size="10.00">fstream</text>
</a>
</g>
</g>
<!-- Node32&#45;&gt;Node41 -->
<g id="edge29_Node000032_Node000041" class="edge">
<title>Node32&#45;&gt;Node41</title>
<g id="a_edge29_Node000032_Node000041"><a xlink:title=" ">
<path fill="none" stroke="#63b8ff" d="M994.9,-167.19C1032.98,-159.15 1096.42,-145.49 1159.69,-130.36"/>
<polygon fill="#63b8ff" stroke="#63b8ff" points="1160.28,-133.82 1169.19,-128.08 1158.65,-127.01 1160.28,-133.82"/>
</a>
</g>
</g>
<!-- Node42&#45;&gt;Node16 -->
<g id="edge31_Node000042_Node000016" class="edge">
<title>Node42&#45;&gt;Node16</title>
<g id="a_edge31_Node000042_Node000016"><a xlink:title=" ">
<path fill="none" stroke="#63b8ff" d="M564.23,-165.28C553.66,-152.5 537.92,-128.74 548.5,-110.5 556.69,-96.38 571.21,-86.35 585.52,-79.42"/>
<polygon fill="#63b8ff" stroke="#63b8ff" points="586.67,-82.74 594.42,-75.52 583.86,-76.33 586.67,-82.74"/>
</a>
</g>
</g>
<!-- Node15 -->
<g id="Node000015" class="node">
<title>Node15</title>
<g id="a_Node000015"><a xlink:href="JackTypes_8h.html" target="_top" xlink:title=" ">
<polygon fill="#fff0f0" stroke="red" points="627.88,-129.75 557.12,-129.75 557.12,-110.5 627.88,-110.5 627.88,-129.75"/>
<text xml:space="preserve" text-anchor="middle" x="592.5" y="-116.25" font-family="Helvetica,sans-Serif" font-size="10.00">JackTypes.h</text>
</a>
</g>
</g>
<!-- Node42&#45;&gt;Node15 -->
<g id="edge32_Node000042_Node000015" class="edge">
<title>Node42&#45;&gt;Node15</title>
<g id="a_edge32_Node000042_Node000015"><a xlink:title=" ">
<path fill="none" stroke="#63b8ff" d="M575.8,-165.58C578.33,-158.84 581.93,-149.27 585.13,-140.74"/>
<polygon fill="#63b8ff" stroke="#63b8ff" points="588.35,-142.12 588.59,-131.53 581.8,-139.66 588.35,-142.12"/>
</a>
</g>
</g>
<!-- Node15&#45;&gt;Node16 -->
<g id="edge33_Node000015_Node000016" class="edge">
<title>Node15&#45;&gt;Node16</title>
<g id="a_edge33_Node000015_Node000016"><a xlink:title=" ">
<path fill="none" stroke="#63b8ff" d="M598.11,-110.33C602.62,-103.28 609.09,-93.15 614.71,-84.33"/>
<polygon fill="#63b8ff" stroke="#63b8ff" points="617.52,-86.45 619.95,-76.13 611.62,-82.68 617.52,-86.45"/>
</a>
</g>
</g>
</g>
</svg>

<g id="navigator" transform="translate(0 0)" fill="#404254">
  <rect fill="#f2f5e9" fill-opacity="0.5" stroke="#606060" stroke-width=".5" x="0" y="0" width="60" height="60"/>
  <use id="zoomplus" xlink:href="#zoomPlus" x="17" y="9" onmousedown="handleZoom(evt,'in')"/>
  <use id="zoomminus" xlink:href="#zoomMin" x="42" y="9" onmousedown="handleZoom(evt,'out')"/>
  <use id="reset" xlink:href="#resetDef" x="30" y="36" onmousedown="handleReset()"/>
   <use id="arrowup" xlink:href="#arrowUp" x="0" y="0" onmousedown="handlePan(0,-1)"/>
  <use id="arrowright" xlink:href="#arrowRight" x="0" y="0" onmousedown="handlePan(1,0)"/>
  <use id="arrowdown" xlink:href="#arrowDown" x="0" y="0" onmousedown="handlePan(0,1)"/>
  <use id="arrowleft" xlink:href="#arrowLeft" x="0" y="0" onmousedown="handlePan(-1,0)"/>
</g>
<svg viewBox="0 0 15 15" width="100%" height="30px" preserveAspectRatio="xMaxYMin meet">
 <g id="arrow_out" transform="scale(0.3 0.3)">
  <a xlink:href="JackAudioAdapter_8cpp__incl_org.svg" target="_base">
   <rect id="button" ry="5" rx="5" y="6" x="6" height="38" width="38"
        fill="#f2f5e9" fill-opacity="0.5" stroke="#606060" stroke-width="1.0"/>
   <path id="arrow"
     d="M 11.500037,31.436501 C 11.940474,20.09759 22.043105,11.32322 32.158766,21.979434 L 37.068811,17.246167 C 37.068811,17.246167 37.088388,32 37.088388,32 L 22.160133,31.978069 C 22.160133,31.978069 26.997745,27.140456 26.997745,27.140456 C 18.528582,18.264221 13.291696,25.230495 11.500037,31.436501 z"
     style="fill:#404040;"/>
  </a>
 </g>
</svg>

<style type='text/css'>
<![CDATA[
[data-mouse-over-selected='false'] { opacity: 0.7; }
[data-mouse-over-selected='true']  { opacity: 1.0; }
]]>
</style>
<script type="application/ecmascript"><![CDATA[
document.addEventListener('DOMContentLoaded', (event) => {
  highlightEdges();
  highlightAdjacentNodes();
});
]]></script>
</svg>
