<?xml version="1.0" encoding="UTF-8" standalone="no"?>
<!DOCTYPE svg PUBLIC "-//W3C//DTD SVG 1.1//EN"
 "http://www.w3.org/Graphics/SVG/1.1/DTD/svg11.dtd">
<!-- Generated by graphviz version 14.0.2 (0)
 -->
<!-- Title: jackbridge_shm_is_valid Pages: 1 -->
<svg width="487pt" height="444pt"
 viewBox="0.00 0.00 487.00 444.00" xmlns="http://www.w3.org/2000/svg" xmlns:xlink="http://www.w3.org/1999/xlink">
<g id="graph0" class="graph" transform="scale(1 1) rotate(0) translate(4 440.25)">
<title>jackbridge_shm_is_valid</title>
<!-- Node1 -->
<g id="Node000001" class="node">
<title>Node1</title>
<g id="a_Node000001"><a xlink:title=" ">
<polygon fill="#999999" stroke="#666666" points="479.25,-230.25 356.75,-230.25 356.75,-211 479.25,-211 479.25,-230.25"/>
<text xml:space="preserve" text-anchor="middle" x="418" y="-216.75" font-family="Helvetica,sans-Serif" font-size="10.00">jackbridge_shm_is_valid</text>
</a>
</g>
</g>
<!-- Node2 -->
<g id="Node000002" class="node">
<title>Node2</title>
<g id="a_Node000002"><a xlink:href="structBridgeAudioPool.html#ae545e2d69005627d60426a3dcae6046d" target="_top" xlink:title=" ">
<polygon fill="white" stroke="#666666" points="320.75,-436.25 176.5,-436.25 176.5,-417 320.75,-417 320.75,-436.25"/>
<text xml:space="preserve" text-anchor="middle" x="248.62" y="-422.75" font-family="Helvetica,sans-Serif" font-size="10.00">BridgeAudioPool::attachClient</text>
</a>
</g>
</g>
<!-- Node1&#45;&gt;Node2 -->
<g id="edge1_Node000001_Node000002" class="edge">
<title>Node1&#45;&gt;Node2</title>
<g id="a_edge1_Node000001_Node000002"><a xlink:title=" ">
<path fill="none" stroke="#63b8ff" d="M412.16,-241.73C402.12,-280.63 375.28,-363.69 320.75,-407.62 316.27,-411.23 311.17,-414.16 305.8,-416.53"/>
<polygon fill="#63b8ff" stroke="#63b8ff" points="415.56,-242.57 414.53,-232.02 408.76,-240.91 415.56,-242.57"/>
</a>
</g>
</g>
<!-- Node3 -->
<g id="Node000003" class="node">
<title>Node3</title>
<g id="a_Node000003"><a xlink:href="structBridgeNonRtClientControl.html#a1d72765184b060b0e671bff0fc50928a" target="_top" xlink:title=" ">
<polygon fill="white" stroke="#666666" points="312.12,-398.88 185.12,-398.88 185.12,-368.38 312.12,-368.38 312.12,-398.88"/>
<text xml:space="preserve" text-anchor="start" x="193.12" y="-385.38" font-family="Helvetica,sans-Serif" font-size="10.00">BridgeNonRtClientControl</text>
<text xml:space="preserve" text-anchor="middle" x="248.62" y="-374.12" font-family="Helvetica,sans-Serif" font-size="10.00">::attachClient</text>
</a>
</g>
</g>
<!-- Node1&#45;&gt;Node3 -->
<g id="edge2_Node000001_Node000003" class="edge">
<title>Node1&#45;&gt;Node3</title>
<g id="a_edge2_Node000001_Node000003"><a xlink:title=" ">
<path fill="none" stroke="#63b8ff" d="M407.89,-240.99C393.52,-270.91 362.84,-326.64 320.75,-358.62 316.06,-362.19 310.82,-365.27 305.37,-367.93"/>
<polygon fill="#63b8ff" stroke="#63b8ff" points="411.06,-242.48 412.1,-231.93 404.71,-239.53 411.06,-242.48"/>
</a>
</g>
</g>
<!-- Node4 -->
<g id="Node000004" class="node">
<title>Node4</title>
<g id="a_Node000004"><a xlink:href="structBridgeNonRtServerControl.html#a7573d83d81db53b2ce5ee5fc9dbe3b58" target="_top" xlink:title=" ">
<polygon fill="white" stroke="#666666" points="314,-349.88 183.25,-349.88 183.25,-319.38 314,-319.38 314,-349.88"/>
<text xml:space="preserve" text-anchor="start" x="191.25" y="-336.38" font-family="Helvetica,sans-Serif" font-size="10.00">BridgeNonRtServerControl</text>
<text xml:space="preserve" text-anchor="middle" x="248.62" y="-325.12" font-family="Helvetica,sans-Serif" font-size="10.00">::attachClient</text>
</a>
</g>
</g>
<!-- Node1&#45;&gt;Node4 -->
<g id="edge3_Node000001_Node000004" class="edge">
<title>Node1&#45;&gt;Node4</title>
<g id="a_edge3_Node000001_Node000004"><a xlink:title=" ">
<path fill="none" stroke="#63b8ff" d="M401.32,-239.06C383.56,-258.92 352.9,-290.26 320.75,-309.62 314.92,-313.14 308.52,-316.25 302.03,-318.99"/>
<polygon fill="#63b8ff" stroke="#63b8ff" points="403.79,-241.56 407.74,-231.73 398.52,-236.94 403.79,-241.56"/>
</a>
</g>
</g>
<!-- Node5 -->
<g id="Node000005" class="node">
<title>Node5</title>
<g id="a_Node000005"><a xlink:href="structBridgeRtClientControl.html#a6a1345f4b54c35f23c23d05e50f20f55" target="_top" xlink:title=" ">
<polygon fill="white" stroke="#666666" points="303.12,-300.88 194.12,-300.88 194.12,-270.38 303.12,-270.38 303.12,-300.88"/>
<text xml:space="preserve" text-anchor="start" x="202.12" y="-287.38" font-family="Helvetica,sans-Serif" font-size="10.00">BridgeRtClientControl</text>
<text xml:space="preserve" text-anchor="middle" x="248.62" y="-276.12" font-family="Helvetica,sans-Serif" font-size="10.00">::attachClient</text>
</a>
</g>
</g>
<!-- Node1&#45;&gt;Node5 -->
<g id="edge4_Node000001_Node000005" class="edge">
<title>Node1&#45;&gt;Node5</title>
<g id="a_edge4_Node000001_Node000005"><a xlink:title=" ">
<path fill="none" stroke="#63b8ff" d="M384.13,-235.37C365.65,-243.47 342.07,-253.5 320.75,-261.62 313.32,-264.46 305.39,-267.3 297.63,-269.99"/>
<polygon fill="#63b8ff" stroke="#63b8ff" points="385.52,-238.58 393.26,-231.34 382.69,-232.18 385.52,-238.58"/>
</a>
</g>
</g>
<!-- Node6 -->
<g id="Node000006" class="node">
<title>Node6</title>
<g id="a_Node000006"><a xlink:href="structBridgeAudioPool.html#ae9643cbe6f24c79d55d372203d62ff79" target="_top" xlink:title=" ">
<polygon fill="white" stroke="#666666" points="305.38,-252.25 191.88,-252.25 191.88,-233 305.38,-233 305.38,-252.25"/>
<text xml:space="preserve" text-anchor="middle" x="248.62" y="-238.75" font-family="Helvetica,sans-Serif" font-size="10.00">BridgeAudioPool::clear</text>
</a>
</g>
</g>
<!-- Node1&#45;&gt;Node6 -->
<g id="edge5_Node000001_Node000006" class="edge">
<title>Node1&#45;&gt;Node6</title>
<g id="a_edge5_Node000001_Node000006"><a xlink:title=" ">
<path fill="none" stroke="#63b8ff" d="M345.54,-230.02C332.25,-231.77 318.53,-233.57 305.78,-235.24"/>
<polygon fill="#63b8ff" stroke="#63b8ff" points="345.61,-233.54 355.07,-228.76 344.7,-226.6 345.61,-233.54"/>
</a>
</g>
</g>
<!-- Node8 -->
<g id="Node000008" class="node">
<title>Node8</title>
<g id="a_Node000008"><a xlink:href="structBridgeNonRtClientControl.html#a5dbda74d76d9b9c9878f094bb0226372" target="_top" xlink:title=" ">
<polygon fill="white" stroke="#666666" points="312.12,-214.88 185.12,-214.88 185.12,-184.38 312.12,-184.38 312.12,-214.88"/>
<text xml:space="preserve" text-anchor="start" x="193.12" y="-201.38" font-family="Helvetica,sans-Serif" font-size="10.00">BridgeNonRtClientControl</text>
<text xml:space="preserve" text-anchor="middle" x="248.62" y="-190.12" font-family="Helvetica,sans-Serif" font-size="10.00">::clear</text>
</a>
</g>
</g>
<!-- Node1&#45;&gt;Node8 -->
<g id="edge7_Node000001_Node000008" class="edge">
<title>Node1&#45;&gt;Node8</title>
<g id="a_edge7_Node000001_Node000008"><a xlink:title=" ">
<path fill="none" stroke="#63b8ff" d="M345.33,-211.63C334.41,-210.26 323.21,-208.86 312.5,-207.51"/>
<polygon fill="#63b8ff" stroke="#63b8ff" points="344.71,-215.08 355.07,-212.86 345.59,-208.14 344.71,-215.08"/>
</a>
</g>
</g>
<!-- Node9 -->
<g id="Node000009" class="node">
<title>Node9</title>
<g id="a_Node000009"><a xlink:href="structBridgeNonRtServerControl.html#ab57b30c793edc2ba26eca9b33187765c" target="_top" xlink:title=" ">
<polygon fill="white" stroke="#666666" points="314,-165.88 183.25,-165.88 183.25,-135.38 314,-135.38 314,-165.88"/>
<text xml:space="preserve" text-anchor="start" x="191.25" y="-152.38" font-family="Helvetica,sans-Serif" font-size="10.00">BridgeNonRtServerControl</text>
<text xml:space="preserve" text-anchor="middle" x="248.62" y="-141.12" font-family="Helvetica,sans-Serif" font-size="10.00">::clear</text>
</a>
</g>
</g>
<!-- Node1&#45;&gt;Node9 -->
<g id="edge8_Node000001_Node000009" class="edge">
<title>Node1&#45;&gt;Node9</title>
<g id="a_edge8_Node000001_Node000009"><a xlink:title=" ">
<path fill="none" stroke="#63b8ff" d="M386.67,-205.5C367.89,-196.37 343.16,-184.78 320.75,-175.62 312.99,-172.46 304.67,-169.31 296.55,-166.37"/>
<polygon fill="#63b8ff" stroke="#63b8ff" points="385.1,-208.63 395.62,-209.89 388.18,-202.34 385.1,-208.63"/>
</a>
</g>
</g>
<!-- Node10 -->
<g id="Node000010" class="node">
<title>Node10</title>
<g id="a_Node000010"><a xlink:href="structBridgeRtClientControl.html#a03e1a9d66c896d9ec3f0fe4479bfd0b4" target="_top" xlink:title=" ">
<polygon fill="white" stroke="#666666" points="303.12,-116.88 194.12,-116.88 194.12,-86.38 303.12,-86.38 303.12,-116.88"/>
<text xml:space="preserve" text-anchor="start" x="202.12" y="-103.38" font-family="Helvetica,sans-Serif" font-size="10.00">BridgeRtClientControl</text>
<text xml:space="preserve" text-anchor="middle" x="248.62" y="-92.12" font-family="Helvetica,sans-Serif" font-size="10.00">::clear</text>
</a>
</g>
</g>
<!-- Node1&#45;&gt;Node10 -->
<g id="edge9_Node000001_Node000010" class="edge">
<title>Node1&#45;&gt;Node10</title>
<g id="a_edge9_Node000001_Node000010"><a xlink:title=" ">
<path fill="none" stroke="#63b8ff" d="M402.08,-201.76C384.61,-180.78 353.81,-147.16 320.75,-126.62 315.08,-123.1 308.85,-119.99 302.5,-117.27"/>
<polygon fill="#63b8ff" stroke="#63b8ff" points="399.36,-203.95 408.38,-209.5 404.78,-199.53 399.36,-203.95"/>
</a>
</g>
</g>
<!-- Node14 -->
<g id="Node000014" class="node">
<title>Node14</title>
<g id="a_Node000014"><a xlink:href="JackBridge3_8cpp.html#aede31335666c1c498c12faf88079264f" target="_top" xlink:title=" ">
<polygon fill="white" stroke="#666666" points="309.12,-67.88 188.12,-67.88 188.12,-37.38 309.12,-37.38 309.12,-67.88"/>
<text xml:space="preserve" text-anchor="start" x="196.12" y="-54.38" font-family="Helvetica,sans-Serif" font-size="10.00">jackbridge_get_exported</text>
<text xml:space="preserve" text-anchor="middle" x="248.62" y="-43.12" font-family="Helvetica,sans-Serif" font-size="10.00">_functions</text>
</a>
</g>
</g>
<!-- Node1&#45;&gt;Node14 -->
<g id="edge13_Node000001_Node000014" class="edge">
<title>Node1&#45;&gt;Node14</title>
<g id="a_edge13_Node000001_Node000014"><a xlink:title=" ">
<path fill="none" stroke="#63b8ff" d="M408.48,-200.37C394.53,-169.59 364,-111.06 320.75,-77.62 316.09,-74.02 310.87,-70.91 305.43,-68.24"/>
<polygon fill="#63b8ff" stroke="#63b8ff" points="405.18,-201.56 412.39,-209.32 411.59,-198.76 405.18,-201.56"/>
</a>
</g>
</g>
<!-- Node15 -->
<g id="Node000015" class="node">
<title>Node15</title>
<g id="a_Node000015"><a xlink:href="structBridgeAudioPool.html#a23c426e1a7171ce2eeb6cd9f9d792296" target="_top" xlink:title=" ">
<polygon fill="white" stroke="#666666" points="307.62,-19.25 189.62,-19.25 189.62,0 307.62,0 307.62,-19.25"/>
<text xml:space="preserve" text-anchor="middle" x="248.62" y="-5.75" font-family="Helvetica,sans-Serif" font-size="10.00">BridgeAudioPool::resize</text>
</a>
</g>
</g>
<!-- Node1&#45;&gt;Node15 -->
<g id="edge14_Node000001_Node000015" class="edge">
<title>Node1&#45;&gt;Node15</title>
<g id="a_edge14_Node000001_Node000015"><a xlink:title=" ">
<path fill="none" stroke="#63b8ff" d="M412.53,-199.78C402.95,-160.21 376.57,-74.1 320.75,-28.62 316.29,-24.99 311.2,-22.05 305.84,-19.67"/>
<polygon fill="#63b8ff" stroke="#63b8ff" points="409.09,-200.44 414.74,-209.41 415.92,-198.88 409.09,-200.44"/>
</a>
</g>
</g>
<!-- Node7 -->
<g id="Node000007" class="node">
<title>Node7</title>
<g id="a_Node000007"><a xlink:href="structBridgeAudioPool.html#a5f711dcc2703f5ea1be77ab5a511e36f" target="_top" xlink:title=" ">
<polygon fill="white" stroke="#666666" points="133,-257.88 7.5,-257.88 7.5,-227.38 133,-227.38 133,-257.88"/>
<text xml:space="preserve" text-anchor="start" x="15.5" y="-244.38" font-family="Helvetica,sans-Serif" font-size="10.00">BridgeAudioPool::~Bridge</text>
<text xml:space="preserve" text-anchor="middle" x="70.25" y="-233.12" font-family="Helvetica,sans-Serif" font-size="10.00">AudioPool</text>
</a>
</g>
</g>
<!-- Node6&#45;&gt;Node7 -->
<g id="edge6_Node000006_Node000007" class="edge">
<title>Node6&#45;&gt;Node7</title>
<g id="a_edge6_Node000006_Node000007"><a xlink:title=" ">
<path fill="none" stroke="#63b8ff" d="M180.71,-242.62C165.19,-242.62 148.74,-242.62 133.43,-242.62"/>
<polygon fill="#63b8ff" stroke="#63b8ff" points="180.31,-246.13 190.31,-242.63 180.31,-239.13 180.31,-246.13"/>
</a>
</g>
</g>
<!-- Node11 -->
<g id="Node000011" class="node">
<title>Node11</title>
<g id="a_Node000011"><a xlink:href="structBridgeNonRtClientControl.html#af27e281178b18d5490827e205ea68e7c" target="_top" xlink:title=" ">
<polygon fill="white" stroke="#666666" points="138.62,-165.88 1.88,-165.88 1.88,-135.38 138.62,-135.38 138.62,-165.88"/>
<text xml:space="preserve" text-anchor="start" x="9.88" y="-152.38" font-family="Helvetica,sans-Serif" font-size="10.00">BridgeNonRtClientControl</text>
<text xml:space="preserve" text-anchor="middle" x="70.25" y="-141.12" font-family="Helvetica,sans-Serif" font-size="10.00">::~BridgeNonRtClientControl</text>
</a>
</g>
</g>
<!-- Node10&#45;&gt;Node11 -->
<g id="edge10_Node000010_Node000011" class="edge">
<title>Node10&#45;&gt;Node11</title>
<g id="a_edge10_Node000010_Node000011"><a xlink:title=" ">
<path fill="none" stroke="#63b8ff" d="M182.75,-119.65C164.74,-124.65 145.34,-130.04 127.85,-134.9"/>
<polygon fill="#63b8ff" stroke="#63b8ff" points="183.59,-123.05 192.29,-117 181.72,-116.3 183.59,-123.05"/>
</a>
</g>
</g>
<!-- Node12 -->
<g id="Node000012" class="node">
<title>Node12</title>
<g id="a_Node000012"><a xlink:href="structBridgeNonRtServerControl.html#a3511efed20e2836c388615064b7f9c8a" target="_top" xlink:title=" ">
<polygon fill="white" stroke="#666666" points="140.5,-116.88 0,-116.88 0,-86.38 140.5,-86.38 140.5,-116.88"/>
<text xml:space="preserve" text-anchor="start" x="8" y="-103.38" font-family="Helvetica,sans-Serif" font-size="10.00">BridgeNonRtServerControl</text>
<text xml:space="preserve" text-anchor="middle" x="70.25" y="-92.12" font-family="Helvetica,sans-Serif" font-size="10.00">::~BridgeNonRtServerControl</text>
</a>
</g>
</g>
<!-- Node10&#45;&gt;Node12 -->
<g id="edge11_Node000010_Node000012" class="edge">
<title>Node10&#45;&gt;Node12</title>
<g id="a_edge11_Node000010_Node000012"><a xlink:title=" ">
<path fill="none" stroke="#63b8ff" d="M182.53,-101.62C168.92,-101.62 154.51,-101.62 140.75,-101.62"/>
<polygon fill="#63b8ff" stroke="#63b8ff" points="182.23,-105.13 192.23,-101.63 182.23,-98.13 182.23,-105.13"/>
</a>
</g>
</g>
<!-- Node13 -->
<g id="Node000013" class="node">
<title>Node13</title>
<g id="a_Node000013"><a xlink:href="structBridgeRtClientControl.html#a08c9d73912b14bcb200b98aa5aa38b3f" target="_top" xlink:title=" ">
<polygon fill="white" stroke="#666666" points="129.62,-67.88 10.88,-67.88 10.88,-37.38 129.62,-37.38 129.62,-67.88"/>
<text xml:space="preserve" text-anchor="start" x="18.88" y="-54.38" font-family="Helvetica,sans-Serif" font-size="10.00">BridgeRtClientControl</text>
<text xml:space="preserve" text-anchor="middle" x="70.25" y="-43.12" font-family="Helvetica,sans-Serif" font-size="10.00">::~BridgeRtClientControl</text>
</a>
</g>
</g>
<!-- Node10&#45;&gt;Node13 -->
<g id="edge12_Node000010_Node000013" class="edge">
<title>Node10&#45;&gt;Node13</title>
<g id="a_edge12_Node000010_Node000013"><a xlink:title=" ">
<path fill="none" stroke="#63b8ff" d="M182.75,-83.6C164.74,-78.6 145.34,-73.21 127.85,-68.35"/>
<polygon fill="#63b8ff" stroke="#63b8ff" points="181.72,-86.95 192.29,-86.25 183.59,-80.2 181.72,-86.95"/>
</a>
</g>
</g>
</g>
</svg>
