<?xml version="1.0" encoding="UTF-8" standalone="no"?>
<!DOCTYPE svg PUBLIC "-//W3C//DTD SVG 1.1//EN"
 "http://www.w3.org/Graphics/SVG/1.1/DTD/svg11.dtd">
<!-- Generated by graphviz version 14.0.2 (0)
 -->
<!-- Title: src/3rdparty/jack2/posix/JackSocketServerChannel.h Pages: 1 -->
<svg width="1034pt" height="105pt"
 viewBox="0.00 0.00 1034.00 105.00" xmlns="http://www.w3.org/2000/svg" xmlns:xlink="http://www.w3.org/1999/xlink">
<g id="graph0" class="graph" transform="scale(1 1) rotate(0) translate(4 101)">
<title>src/3rdparty/jack2/posix/JackSocketServerChannel.h</title>
<!-- Node1 -->
<g id="Node000001" class="node">
<title>Node1</title>
<g id="a_Node000001"><a xlink:title=" ">
<polygon fill="#999999" stroke="#666666" points="581.75,-97 414.25,-97 414.25,-66.5 581.75,-66.5 581.75,-97"/>
<text xml:space="preserve" text-anchor="start" x="422.25" y="-83.5" font-family="Helvetica,sans-Serif" font-size="10.00">src/3rdparty/jack2</text>
<text xml:space="preserve" text-anchor="middle" x="498" y="-72.25" font-family="Helvetica,sans-Serif" font-size="10.00">/posix/JackSocketServerChannel.h</text>
</a>
</g>
</g>
<!-- Node2 -->
<g id="Node000002" class="node">
<title>Node2</title>
<g id="a_Node000002"><a xlink:href="android_2JackPlatformPlug__os_8h.html" target="_top" xlink:title=" ">
<polygon fill="white" stroke="#666666" points="154,-30.5 0,-30.5 0,0 154,0 154,-30.5"/>
<text xml:space="preserve" text-anchor="start" x="8" y="-17" font-family="Helvetica,sans-Serif" font-size="10.00">src/3rdparty/jack2</text>
<text xml:space="preserve" text-anchor="middle" x="77" y="-5.75" font-family="Helvetica,sans-Serif" font-size="10.00">/android/JackPlatformPlug_os.h</text>
</a>
</g>
</g>
<!-- Node1&#45;&gt;Node2 -->
<g id="edge1_Node000001_Node000002" class="edge">
<title>Node1&#45;&gt;Node2</title>
<g id="a_edge1_Node000001_Node000002"><a xlink:title=" ">
<path fill="none" stroke="#63b8ff" d="M402.58,-66.83C335.52,-56.96 243.72,-43.24 163,-30.5 160.16,-30.05 157.27,-29.59 154.35,-29.12"/>
<polygon fill="#63b8ff" stroke="#63b8ff" points="402.06,-70.3 412.47,-68.29 403.08,-63.37 402.06,-70.3"/>
</a>
</g>
</g>
<!-- Node3 -->
<g id="Node000003" class="node">
<title>Node3</title>
<g id="a_Node000003"><a xlink:href="freebsd_2JackPlatformPlug__os_8h.html" target="_top" xlink:title=" ">
<polygon fill="white" stroke="#666666" points="326.38,-30.5 171.62,-30.5 171.62,0 326.38,0 326.38,-30.5"/>
<text xml:space="preserve" text-anchor="start" x="179.62" y="-17" font-family="Helvetica,sans-Serif" font-size="10.00">src/3rdparty/jack2</text>
<text xml:space="preserve" text-anchor="middle" x="249" y="-5.75" font-family="Helvetica,sans-Serif" font-size="10.00">/freebsd/JackPlatformPlug_os.h</text>
</a>
</g>
</g>
<!-- Node1&#45;&gt;Node3 -->
<g id="edge2_Node000001_Node000003" class="edge">
<title>Node1&#45;&gt;Node3</title>
<g id="a_edge2_Node000001_Node000003"><a xlink:title=" ">
<path fill="none" stroke="#63b8ff" d="M430.17,-63.18C391.11,-53.06 342.57,-40.49 305.57,-30.9"/>
<polygon fill="#63b8ff" stroke="#63b8ff" points="429.16,-66.53 439.72,-65.65 430.92,-59.76 429.16,-66.53"/>
</a>
</g>
</g>
<!-- Node4 -->
<g id="Node000004" class="node">
<title>Node4</title>
<g id="a_Node000004"><a xlink:href="linux_2JackPlatformPlug__os_8h.html" target="_top" xlink:title=" ">
<polygon fill="white" stroke="#666666" points="486,-30.5 344,-30.5 344,0 486,0 486,-30.5"/>
<text xml:space="preserve" text-anchor="start" x="352" y="-17" font-family="Helvetica,sans-Serif" font-size="10.00">src/3rdparty/jack2</text>
<text xml:space="preserve" text-anchor="middle" x="415" y="-5.75" font-family="Helvetica,sans-Serif" font-size="10.00">/linux/JackPlatformPlug_os.h</text>
</a>
</g>
</g>
<!-- Node1&#45;&gt;Node4 -->
<g id="edge3_Node000001_Node000004" class="edge">
<title>Node1&#45;&gt;Node4</title>
<g id="a_edge3_Node000001_Node000004"><a xlink:title=" ">
<path fill="none" stroke="#63b8ff" d="M470.39,-59.29C458.36,-49.94 444.57,-39.23 433.76,-30.83"/>
<polygon fill="#63b8ff" stroke="#63b8ff" points="467.93,-61.81 477.97,-65.19 472.22,-56.29 467.93,-61.81"/>
</a>
</g>
</g>
<!-- Node5 -->
<g id="Node000005" class="node">
<title>Node5</title>
<g id="a_Node000005"><a xlink:href="macosx_2JackPlatformPlug__os_8h.html" target="_top" xlink:title=" ">
<polygon fill="white" stroke="#666666" points="660.12,-30.5 503.88,-30.5 503.88,0 660.12,0 660.12,-30.5"/>
<text xml:space="preserve" text-anchor="start" x="511.88" y="-17" font-family="Helvetica,sans-Serif" font-size="10.00">src/3rdparty/jack2</text>
<text xml:space="preserve" text-anchor="middle" x="582" y="-5.75" font-family="Helvetica,sans-Serif" font-size="10.00">/macosx/JackPlatformPlug_os.h</text>
</a>
</g>
</g>
<!-- Node1&#45;&gt;Node5 -->
<g id="edge4_Node000001_Node000005" class="edge">
<title>Node1&#45;&gt;Node5</title>
<g id="a_edge4_Node000001_Node000005"><a xlink:title=" ">
<path fill="none" stroke="#63b8ff" d="M525.94,-59.29C538.12,-49.94 552.07,-39.23 563.01,-30.83"/>
<polygon fill="#63b8ff" stroke="#63b8ff" points="524.06,-56.33 518.26,-65.19 528.32,-61.88 524.06,-56.33"/>
</a>
</g>
</g>
<!-- Node6 -->
<g id="Node000006" class="node">
<title>Node6</title>
<g id="a_Node000006"><a xlink:href="JackSocketServerChannel_8cpp.html" target="_top" xlink:title=" ">
<polygon fill="white" stroke="#666666" points="856,-30.5 678,-30.5 678,0 856,0 856,-30.5"/>
<text xml:space="preserve" text-anchor="start" x="686" y="-17" font-family="Helvetica,sans-Serif" font-size="10.00">src/3rdparty/jack2</text>
<text xml:space="preserve" text-anchor="middle" x="767" y="-5.75" font-family="Helvetica,sans-Serif" font-size="10.00">/posix/JackSocketServerChannel.cpp</text>
</a>
</g>
</g>
<!-- Node1&#45;&gt;Node6 -->
<g id="edge5_Node000001_Node000006" class="edge">
<title>Node1&#45;&gt;Node6</title>
<g id="a_edge5_Node000001_Node000006"><a xlink:title=" ">
<path fill="none" stroke="#63b8ff" d="M570.46,-63.38C612.81,-53.22 665.66,-40.55 705.89,-30.9"/>
<polygon fill="#63b8ff" stroke="#63b8ff" points="569.76,-59.95 560.85,-65.68 571.39,-66.75 569.76,-59.95"/>
</a>
</g>
</g>
<!-- Node7 -->
<g id="Node000007" class="node">
<title>Node7</title>
<g id="a_Node000007"><a xlink:href="solaris_2JackPlatformPlug__os_8h.html" target="_top" xlink:title=" ">
<polygon fill="white" stroke="#666666" points="1025.5,-30.5 874.5,-30.5 874.5,0 1025.5,0 1025.5,-30.5"/>
<text xml:space="preserve" text-anchor="start" x="882.5" y="-17" font-family="Helvetica,sans-Serif" font-size="10.00">src/3rdparty/jack2</text>
<text xml:space="preserve" text-anchor="middle" x="950" y="-5.75" font-family="Helvetica,sans-Serif" font-size="10.00">/solaris/JackPlatformPlug_os.h</text>
</a>
</g>
</g>
<!-- Node1&#45;&gt;Node7 -->
<g id="edge6_Node000001_Node000007" class="edge">
<title>Node1&#45;&gt;Node7</title>
<g id="a_edge6_Node000001_Node000007"><a xlink:title=" ">
<path fill="none" stroke="#63b8ff" d="M593.08,-68.53C667.24,-58.8 772.78,-44.54 865,-30.5 867.96,-30.05 870.97,-29.58 874.02,-29.1"/>
<polygon fill="#63b8ff" stroke="#63b8ff" points="592.88,-65.02 583.42,-69.79 593.79,-71.97 592.88,-65.02"/>
</a>
</g>
</g>
</g>
</svg>
