<?xml version="1.0" encoding="UTF-8" standalone="no"?>
<!DOCTYPE svg PUBLIC "-//W3C//DTD SVG 1.1//EN"
 "http://www.w3.org/Graphics/SVG/1.1/DTD/svg11.dtd">
<!-- Generated by graphviz version 14.0.2 (0)
 -->
<!-- Title: jackbridge_on_shutdown Pages: 1 -->
<svg width="564pt" height="266pt"
 viewBox="0.00 0.00 564.00 266.00" xmlns="http://www.w3.org/2000/svg" xmlns:xlink="http://www.w3.org/1999/xlink">
<g id="graph0" class="graph" transform="scale(1 1) rotate(0) translate(4 262.25)">
<title>jackbridge_on_shutdown</title>
<!-- Node1 -->
<g id="Node000001" class="node">
<title>Node1</title>
<g id="a_Node000001"><a xlink:title=" ">
<polygon fill="#999999" stroke="#666666" points="123.25,-162.25 0,-162.25 0,-143 123.25,-143 123.25,-162.25"/>
<text xml:space="preserve" text-anchor="middle" x="61.62" y="-148.75" font-family="Helvetica,sans-Serif" font-size="10.00">jackbridge_on_shutdown</text>
</a>
</g>
</g>
<!-- Node2 -->
<g id="Node000002" class="node">
<title>Node2</title>
<g id="a_Node000002"><a xlink:href="ZynAddSubFx_2zynaddsubfx_2src_2Synth_2OscilGen_8cpp.html#a8ba7098a5809423372cf8cbbe6f3b504" target="_top" xlink:title=" ">
<polygon fill="white" stroke="#666666" points="358.12,-240.25 328.62,-240.25 328.62,-221 358.12,-221 358.12,-240.25"/>
<text xml:space="preserve" text-anchor="middle" x="343.38" y="-226.75" font-family="Helvetica,sans-Serif" font-size="10.00">arg</text>
</a>
</g>
</g>
<!-- Node1&#45;&gt;Node2 -->
<g id="edge1_Node000001_Node000002" class="edge">
<title>Node1&#45;&gt;Node2</title>
<g id="a_edge1_Node000001_Node000002"><a xlink:title=" ">
<path fill="none" stroke="#63b8ff" d="M75.86,-162.67C93.73,-175.65 127.07,-197.87 159.25,-208.62 213.31,-226.69 280.74,-230.27 316.8,-230.77"/>
<polygon fill="#63b8ff" stroke="#63b8ff" points="316.64,-234.27 326.66,-230.83 316.68,-227.27 316.64,-234.27"/>
</a>
</g>
</g>
<!-- Node3 -->
<g id="Node000003" class="node">
<title>Node3</title>
<g id="a_Node000003"><a xlink:href="testSem_8cpp.html#a5cbf99e8849f2e3ea613ea0a2df2f272" target="_top" xlink:title=" ">
<polygon fill="white" stroke="#666666" points="363,-154.25 323.75,-154.25 323.75,-135 363,-135 363,-154.25"/>
<text xml:space="preserve" text-anchor="middle" x="343.38" y="-140.75" font-family="Helvetica,sans-Serif" font-size="10.00">client</text>
</a>
</g>
</g>
<!-- Node1&#45;&gt;Node3 -->
<g id="edge3_Node000001_Node000003" class="edge">
<title>Node1&#45;&gt;Node3</title>
<g id="a_edge3_Node000001_Node000003"><a xlink:title=" ">
<path fill="none" stroke="#63b8ff" d="M104.69,-142.51C121.55,-138.94 141.21,-135.38 159.25,-133.62 202.16,-129.45 213.23,-130.89 256.25,-133.62 274.89,-134.81 295.67,-137.43 312.14,-139.81"/>
<polygon fill="#63b8ff" stroke="#63b8ff" points="311.38,-143.23 321.79,-141.26 312.42,-136.31 311.38,-143.23"/>
</a>
</g>
</g>
<!-- Node7 -->
<g id="Node000007" class="node">
<title>Node7</title>
<g id="a_Node000007"><a xlink:href="JackBridge1_8cpp.html#a6b2147f1b721f3b08c283a1cd897ee12" target="_top" xlink:title=" ">
<polygon fill="white" stroke="#666666" points="255.12,-162.25 160.38,-162.25 160.38,-143 255.12,-143 255.12,-162.25"/>
<text xml:space="preserve" text-anchor="middle" x="207.75" y="-148.75" font-family="Helvetica,sans-Serif" font-size="10.00">getBridgeInstance</text>
</a>
</g>
</g>
<!-- Node1&#45;&gt;Node7 -->
<g id="edge7_Node000001_Node000007" class="edge">
<title>Node1&#45;&gt;Node7</title>
<g id="a_edge7_Node000001_Node000007"><a xlink:title=" ">
<path fill="none" stroke="#63b8ff" d="M123.75,-152.62C131.99,-152.62 140.42,-152.62 148.61,-152.62"/>
<polygon fill="#63b8ff" stroke="#63b8ff" points="148.45,-156.13 158.45,-152.63 148.45,-149.13 148.45,-156.13"/>
</a>
</g>
</g>
<!-- Node8 -->
<g id="Node000008" class="node">
<title>Node8</title>
<g id="a_Node000008"><a xlink:href="JackBridgeExport_8cpp.html#adee3844cf738d3cb8a9a94adf3ddb4af" target="_top" xlink:title=" ">
<polygon fill="white" stroke="#666666" points="255.12,-78.25 160.38,-78.25 160.38,-59 255.12,-59 255.12,-78.25"/>
<text xml:space="preserve" text-anchor="middle" x="207.75" y="-64.75" font-family="Helvetica,sans-Serif" font-size="10.00">getBridgeInstance</text>
</a>
</g>
</g>
<!-- Node1&#45;&gt;Node8 -->
<g id="edge8_Node000001_Node000008" class="edge">
<title>Node1&#45;&gt;Node8</title>
<g id="a_edge8_Node000001_Node000008"><a xlink:title=" ">
<path fill="none" stroke="#63b8ff" d="M79.72,-142.66C104.54,-128.2 150.75,-101.26 180.07,-84.17"/>
<polygon fill="#63b8ff" stroke="#63b8ff" points="181.49,-87.4 188.37,-79.34 177.96,-81.35 181.49,-87.4"/>
</a>
</g>
</g>
<!-- Node16 -->
<g id="Node000016" class="node">
<title>Node16</title>
<g id="a_Node000016"><a xlink:href="group__ClientCallbacks.html#gab3e5bc09f4d165c898f7279c5b0db036" target="_top" xlink:title=" ">
<polygon fill="white" stroke="#666666" points="256.25,-199.25 159.25,-199.25 159.25,-180 256.25,-180 256.25,-199.25"/>
<text xml:space="preserve" text-anchor="middle" x="207.75" y="-185.75" font-family="Helvetica,sans-Serif" font-size="10.00">jack_on_shutdown</text>
</a>
</g>
</g>
<!-- Node1&#45;&gt;Node16 -->
<g id="edge12_Node000001_Node000016" class="edge">
<title>Node1&#45;&gt;Node16</title>
<g id="a_edge12_Node000001_Node000016"><a xlink:title=" ">
<path fill="none" stroke="#63b8ff" d="M102.01,-162.74C118.77,-167.04 138.52,-172.11 156.33,-176.68"/>
<polygon fill="#63b8ff" stroke="#63b8ff" points="155.39,-180.05 165.95,-179.15 157.13,-173.27 155.39,-180.05"/>
</a>
</g>
</g>
<!-- Node2&#45;&gt;Node2 -->
<g id="edge2_Node000002_Node000002" class="edge">
<title>Node2&#45;&gt;Node2</title>
<g id="a_edge2_Node000002_Node000002"><a xlink:title=" ">
<path fill="none" stroke="#63b8ff" d="M328.13,-236.46C310.61,-245.97 315.69,-258.25 343.38,-258.25 364.57,-258.25 372.51,-251.05 367.21,-243.41"/>
<polygon fill="#63b8ff" stroke="#63b8ff" points="369.77,-240.98 359.8,-237.41 365.37,-246.42 369.77,-240.98"/>
</a>
</g>
</g>
<!-- Node4 -->
<g id="Node000004" class="node">
<title>Node4</title>
<g id="a_Node000004"><a xlink:href="classJack_1_1detail_1_1JackSynchro.html#af1e9982635110dde560d91082679f1b0" target="_top" xlink:title=" ">
<polygon fill="white" stroke="#666666" points="556,-116.88 430.5,-116.88 430.5,-86.38 556,-86.38 556,-116.88"/>
<text xml:space="preserve" text-anchor="start" x="438.5" y="-103.38" font-family="Helvetica,sans-Serif" font-size="10.00">Jack::detail::JackSynchro</text>
<text xml:space="preserve" text-anchor="middle" x="493.25" y="-92.12" font-family="Helvetica,sans-Serif" font-size="10.00">::Connect</text>
</a>
</g>
</g>
<!-- Node3&#45;&gt;Node4 -->
<g id="edge4_Node000003_Node000004" class="edge">
<title>Node3&#45;&gt;Node4</title>
<g id="a_edge4_Node000003_Node000004"><a xlink:title=" ">
<path fill="none" stroke="#63b8ff" d="M363.4,-139.09C379.7,-134.35 404.15,-127.24 427.39,-120.49"/>
<polygon fill="#63b8ff" stroke="#63b8ff" points="428.22,-123.89 436.84,-117.74 426.26,-117.17 428.22,-123.89"/>
</a>
</g>
</g>
<!-- Node5 -->
<g id="Node000005" class="node">
<title>Node5</title>
<g id="a_Node000005"><a xlink:href="classJack_1_1detail_1_1JackSynchro.html#ab8dc6db56bb10b4cfea9625a5c002841" target="_top" xlink:title=" ">
<polygon fill="white" stroke="#666666" points="556,-214.88 430.5,-214.88 430.5,-184.38 556,-184.38 556,-214.88"/>
<text xml:space="preserve" text-anchor="start" x="438.5" y="-201.38" font-family="Helvetica,sans-Serif" font-size="10.00">Jack::detail::JackSynchro</text>
<text xml:space="preserve" text-anchor="middle" x="493.25" y="-190.12" font-family="Helvetica,sans-Serif" font-size="10.00">::Signal</text>
</a>
</g>
</g>
<!-- Node3&#45;&gt;Node5 -->
<g id="edge5_Node000003_Node000005" class="edge">
<title>Node3&#45;&gt;Node5</title>
<g id="a_edge5_Node000003_Node000005"><a xlink:title=" ">
<path fill="none" stroke="#63b8ff" d="M363.4,-151.7C382.53,-158.82 412.89,-170.11 439.34,-179.95"/>
<polygon fill="#63b8ff" stroke="#63b8ff" points="438,-183.18 448.59,-183.39 440.44,-176.62 438,-183.18"/>
</a>
</g>
</g>
<!-- Node6 -->
<g id="Node000006" class="node">
<title>Node6</title>
<g id="a_Node000006"><a xlink:href="classJack_1_1detail_1_1JackSynchro.html#a8a39f2065be5d07800e2f06e0f2b2f10" target="_top" xlink:title=" ">
<polygon fill="white" stroke="#666666" points="556,-165.88 430.5,-165.88 430.5,-135.38 556,-135.38 556,-165.88"/>
<text xml:space="preserve" text-anchor="start" x="438.5" y="-152.38" font-family="Helvetica,sans-Serif" font-size="10.00">Jack::detail::JackSynchro</text>
<text xml:space="preserve" text-anchor="middle" x="493.25" y="-141.12" font-family="Helvetica,sans-Serif" font-size="10.00">::Wait</text>
</a>
</g>
</g>
<!-- Node3&#45;&gt;Node6 -->
<g id="edge6_Node000003_Node000006" class="edge">
<title>Node3&#45;&gt;Node6</title>
<g id="a_edge6_Node000003_Node000006"><a xlink:title=" ">
<path fill="none" stroke="#63b8ff" d="M363.4,-145.4C377.69,-145.98 398.23,-146.81 418.73,-147.64"/>
<polygon fill="#63b8ff" stroke="#63b8ff" points="418.43,-151.13 428.57,-148.04 418.72,-144.14 418.43,-151.13"/>
</a>
</g>
</g>
<!-- Node9 -->
<g id="Node000009" class="node">
<title>Node9</title>
<g id="a_Node000009"><a xlink:href="classJackBridgeExported.html#ae11f0182cc8fe081b82562b64dcf2dc9" target="_top" xlink:title=" ">
<polygon fill="white" stroke="#666666" points="394.5,-67.88 292.25,-67.88 292.25,-37.38 394.5,-37.38 394.5,-67.88"/>
<text xml:space="preserve" text-anchor="start" x="300.25" y="-54.38" font-family="Helvetica,sans-Serif" font-size="10.00">JackBridgeExported</text>
<text xml:space="preserve" text-anchor="middle" x="343.38" y="-43.12" font-family="Helvetica,sans-Serif" font-size="10.00">::getFunctions</text>
</a>
</g>
</g>
<!-- Node8&#45;&gt;Node9 -->
<g id="edge9_Node000008_Node000009" class="edge">
<title>Node8&#45;&gt;Node9</title>
<g id="a_edge9_Node000008_Node000009"><a xlink:title=" ">
<path fill="none" stroke="#63b8ff" d="M255.49,-63.03C263.56,-62.06 272.06,-61.04 280.46,-60.04"/>
<polygon fill="#63b8ff" stroke="#63b8ff" points="280.78,-63.53 290.29,-58.86 279.95,-56.57 280.78,-63.53"/>
</a>
</g>
</g>
<!-- Node10 -->
<g id="Node000010" class="node">
<title>Node10</title>
<g id="a_Node000010"><a xlink:href="CarlaUtils_8hpp.html#a854f1ba7444a257e77d0821582d10281" target="_top" xlink:title=" ">
<polygon fill="white" stroke="#666666" points="536.5,-19.25 450,-19.25 450,0 536.5,0 536.5,-19.25"/>
<text xml:space="preserve" text-anchor="middle" x="493.25" y="-5.75" font-family="Helvetica,sans-Serif" font-size="10.00">carla_zeroStruct</text>
</a>
</g>
</g>
<!-- Node9&#45;&gt;Node10 -->
<g id="edge10_Node000009_Node000010" class="edge">
<title>Node9&#45;&gt;Node10</title>
<g id="a_edge10_Node000009_Node000010"><a xlink:title=" ">
<path fill="none" stroke="#63b8ff" d="M394.85,-37.95C411.71,-33.04 430.39,-27.61 446.84,-22.83"/>
<polygon fill="#63b8ff" stroke="#63b8ff" points="447.74,-26.21 456.37,-20.06 445.79,-19.49 447.74,-26.21"/>
</a>
</g>
</g>
<!-- Node11 -->
<g id="Node000011" class="node">
<title>Node11</title>
<g id="a_Node000011"><a xlink:href="classJackBridgeExported.html#a717097103ec0664dc44d756d2678ef71" target="_top" xlink:title=" ">
<polygon fill="#fff0f0" stroke="red" points="546.62,-67.88 439.88,-67.88 439.88,-37.38 546.62,-37.38 546.62,-67.88"/>
<text xml:space="preserve" text-anchor="start" x="447.88" y="-54.38" font-family="Helvetica,sans-Serif" font-size="10.00">JackBridgeExported</text>
<text xml:space="preserve" text-anchor="middle" x="493.25" y="-43.12" font-family="Helvetica,sans-Serif" font-size="10.00">::JackBridgeExported</text>
</a>
</g>
</g>
<!-- Node9&#45;&gt;Node11 -->
<g id="edge11_Node000009_Node000011" class="edge">
<title>Node9&#45;&gt;Node11</title>
<g id="a_edge11_Node000009_Node000011"><a xlink:title=" ">
<path fill="none" stroke="#63b8ff" d="M394.85,-52.62C405.53,-52.62 416.94,-52.62 428.05,-52.62"/>
<polygon fill="#63b8ff" stroke="#63b8ff" points="427.97,-56.13 437.97,-52.63 427.97,-49.13 427.97,-56.13"/>
</a>
</g>
</g>
<!-- Node16&#45;&gt;Node2 -->
<g id="edge13_Node000016_Node000002" class="edge">
<title>Node16&#45;&gt;Node2</title>
<g id="a_edge13_Node000016_Node000002"><a xlink:title=" ">
<path fill="none" stroke="#63b8ff" d="M241.44,-199.65C264.91,-206.86 296.06,-216.41 317.51,-223"/>
<polygon fill="#63b8ff" stroke="#63b8ff" points="316.29,-226.28 326.88,-225.87 318.34,-219.59 316.29,-226.28"/>
</a>
</g>
</g>
<!-- Node16&#45;&gt;Node3 -->
<g id="edge15_Node000016_Node000003" class="edge">
<title>Node16&#45;&gt;Node3</title>
<g id="a_edge15_Node000016_Node000003"><a xlink:title=" ">
<path fill="none" stroke="#63b8ff" d="M238.74,-179.53C260.89,-172.07 290.88,-161.97 312.91,-154.55"/>
<polygon fill="#63b8ff" stroke="#63b8ff" points="313.82,-157.93 322.18,-151.43 311.59,-151.3 313.82,-157.93"/>
</a>
</g>
</g>
<!-- Node17 -->
<g id="Node000017" class="node">
<title>Node17</title>
<g id="a_Node000017"><a xlink:href="structJack_1_1JackGlobals.html#adf4bc0472a237936fd3c5a974c49ffbc" target="_top" xlink:title=" ">
<polygon fill="white" stroke="#666666" points="393.38,-202.88 293.38,-202.88 293.38,-172.38 393.38,-172.38 393.38,-202.88"/>
<text xml:space="preserve" text-anchor="start" x="301.38" y="-189.38" font-family="Helvetica,sans-Serif" font-size="10.00">Jack::JackGlobals::</text>
<text xml:space="preserve" text-anchor="middle" x="343.38" y="-178.12" font-family="Helvetica,sans-Serif" font-size="10.00">CheckContext</text>
</a>
</g>
</g>
<!-- Node16&#45;&gt;Node17 -->
<g id="edge14_Node000016_Node000017" class="edge">
<title>Node16&#45;&gt;Node17</title>
<g id="a_edge14_Node000016_Node000017"><a xlink:title=" ">
<path fill="none" stroke="#63b8ff" d="M256.61,-188.91C264.75,-188.79 273.29,-188.66 281.7,-188.53"/>
<polygon fill="#63b8ff" stroke="#63b8ff" points="281.58,-192.04 291.53,-188.39 281.48,-185.04 281.58,-192.04"/>
</a>
</g>
</g>
</g>
</svg>
