<?xml version="1.0" encoding="UTF-8" standalone="no"?>
<!DOCTYPE svg PUBLIC "-//W3C//DTD SVG 1.1//EN"
 "http://www.w3.org/Graphics/SVG/1.1/DTD/svg11.dtd">
<!-- Generated by graphviz version 14.0.2 (0)
 -->
<!-- Title: src/3rdparty/jack2/linux/alsarawmidi/JackALSARawMidiOutputPort.h Pages: 1 -->
<svg width="688pt" height="326pt"
 viewBox="0.00 0.00 688.00 326.00" xmlns="http://www.w3.org/2000/svg" xmlns:xlink="http://www.w3.org/1999/xlink">
<g id="graph0" class="graph" transform="scale(1 1) rotate(0) translate(4 322)">
<title>src/3rdparty/jack2/linux/alsarawmidi/JackALSARawMidiOutputPort.h</title>
<!-- Node1 -->
<g id="Node000001" class="node">
<title>Node1</title>
<g id="a_Node000001"><a xlink:title=" ">
<polygon fill="#999999" stroke="#666666" points="484.62,-318 321.62,-318 321.62,-276.25 484.62,-276.25 484.62,-318"/>
<text xml:space="preserve" text-anchor="start" x="329.62" y="-304.5" font-family="Helvetica,sans-Serif" font-size="10.00">src/3rdparty/jack2</text>
<text xml:space="preserve" text-anchor="start" x="329.62" y="-293.25" font-family="Helvetica,sans-Serif" font-size="10.00">/linux/alsarawmidi/JackALSARaw</text>
<text xml:space="preserve" text-anchor="middle" x="403.12" y="-282" font-family="Helvetica,sans-Serif" font-size="10.00">MidiOutputPort.h</text>
</a>
</g>
</g>
<!-- Node2 -->
<g id="Node000002" class="node">
<title>Node2</title>
<g id="a_Node000002"><a xlink:href="JackALSARawMidiPort_8h.html" target="_top" xlink:title=" ">
<polygon fill="white" stroke="#666666" points="126.25,-240.25 0,-240.25 0,-221 126.25,-221 126.25,-240.25"/>
<text xml:space="preserve" text-anchor="middle" x="63.12" y="-226.75" font-family="Helvetica,sans-Serif" font-size="10.00">JackALSARawMidiPort.h</text>
</a>
</g>
</g>
<!-- Node1&#45;&gt;Node2 -->
<g id="edge1_Node000001_Node000002" class="edge">
<title>Node1&#45;&gt;Node2</title>
<g id="a_edge1_Node000001_Node000002"><a xlink:title=" ">
<path fill="none" stroke="#63b8ff" d="M321.25,-280.59C259.8,-268.94 177.11,-253.25 122.05,-242.8"/>
<polygon fill="#63b8ff" stroke="#63b8ff" points="122.71,-239.37 112.23,-240.94 121.4,-246.24 122.71,-239.37"/>
</a>
</g>
</g>
<!-- Node6 -->
<g id="Node000006" class="node">
<title>Node6</title>
<g id="a_Node000006"><a xlink:href="JackALSARawMidiSendQueue_8h.html" target="_top" xlink:title=" ">
<polygon fill="white" stroke="#666666" points="303.75,-240.25 144.5,-240.25 144.5,-221 303.75,-221 303.75,-240.25"/>
<text xml:space="preserve" text-anchor="middle" x="224.12" y="-226.75" font-family="Helvetica,sans-Serif" font-size="10.00">JackALSARawMidiSendQueue.h</text>
</a>
</g>
</g>
<!-- Node1&#45;&gt;Node6 -->
<g id="edge5_Node000001_Node000006" class="edge">
<title>Node1&#45;&gt;Node6</title>
<g id="a_edge5_Node000001_Node000006"><a xlink:title=" ">
<path fill="none" stroke="#63b8ff" d="M346.98,-275.89C318.53,-265.64 284.83,-253.5 259.93,-244.53"/>
<polygon fill="#63b8ff" stroke="#63b8ff" points="261.17,-241.25 250.58,-241.16 258.8,-247.84 261.17,-241.25"/>
</a>
</g>
</g>
<!-- Node14 -->
<g id="Node000014" class="node">
<title>Node14</title>
<g id="a_Node000014"><a xlink:href="JackMidiAsyncQueue_8h.html" target="_top" xlink:title=" ">
<polygon fill="white" stroke="#666666" points="524.12,-185 406.12,-185 406.12,-165.75 524.12,-165.75 524.12,-185"/>
<text xml:space="preserve" text-anchor="middle" x="465.12" y="-171.5" font-family="Helvetica,sans-Serif" font-size="10.00">JackMidiAsyncQueue.h</text>
</a>
</g>
</g>
<!-- Node1&#45;&gt;Node14 -->
<g id="edge11_Node000001_Node000014" class="edge">
<title>Node1&#45;&gt;Node14</title>
<g id="a_edge11_Node000001_Node000014"><a xlink:title=" ">
<path fill="none" stroke="#63b8ff" d="M454.59,-276.01C469.74,-267.39 484.54,-255.68 493.12,-240.25 501.56,-225.09 491.79,-206.9 481.54,-193.82"/>
<polygon fill="#63b8ff" stroke="#63b8ff" points="484.4,-191.77 475.24,-186.45 479.09,-196.33 484.4,-191.77"/>
</a>
</g>
</g>
<!-- Node17 -->
<g id="Node000017" class="node">
<title>Node17</title>
<g id="a_Node000017"><a xlink:href="JackMidiBufferReadQueue_8h.html" target="_top" xlink:title=" ">
<polygon fill="white" stroke="#666666" points="679.62,-240.25 540.62,-240.25 540.62,-221 679.62,-221 679.62,-240.25"/>
<text xml:space="preserve" text-anchor="middle" x="610.12" y="-226.75" font-family="Helvetica,sans-Serif" font-size="10.00">JackMidiBufferReadQueue.h</text>
</a>
</g>
</g>
<!-- Node1&#45;&gt;Node17 -->
<g id="edge17_Node000001_Node000017" class="edge">
<title>Node1&#45;&gt;Node17</title>
<g id="a_edge17_Node000001_Node000017"><a xlink:title=" ">
<path fill="none" stroke="#63b8ff" d="M468.34,-275.81C501.71,-265.41 541.27,-253.08 570.11,-244.09"/>
<polygon fill="#63b8ff" stroke="#63b8ff" points="571.04,-247.47 579.54,-241.15 568.95,-240.79 571.04,-247.47"/>
</a>
</g>
</g>
<!-- Node18 -->
<g id="Node000018" class="node">
<title>Node18</title>
<g id="a_Node000018"><a xlink:href="JackMidiRawOutputWriteQueue_8h.html" target="_top" xlink:title=" ">
<polygon fill="white" stroke="#666666" points="484.25,-240.25 322,-240.25 322,-221 484.25,-221 484.25,-240.25"/>
<text xml:space="preserve" text-anchor="middle" x="403.12" y="-226.75" font-family="Helvetica,sans-Serif" font-size="10.00">JackMidiRawOutputWriteQueue.h</text>
</a>
</g>
</g>
<!-- Node1&#45;&gt;Node18 -->
<g id="edge19_Node000001_Node000018" class="edge">
<title>Node1&#45;&gt;Node18</title>
<g id="a_edge19_Node000001_Node000018"><a xlink:title=" ">
<path fill="none" stroke="#63b8ff" d="M403.12,-276.07C403.12,-268.4 403.12,-259.64 403.12,-251.95"/>
<polygon fill="#63b8ff" stroke="#63b8ff" points="406.63,-252.21 403.13,-242.21 399.63,-252.21 406.63,-252.21"/>
</a>
</g>
</g>
<!-- Node3 -->
<g id="Node000003" class="node">
<title>Node3</title>
<g id="a_Node000003"><a xlink:title=" ">
<polygon fill="#e0e0e0" stroke="#999999" points="246,-185 160.25,-185 160.25,-165.75 246,-165.75 246,-185"/>
<text xml:space="preserve" text-anchor="middle" x="203.12" y="-171.5" font-family="Helvetica,sans-Serif" font-size="10.00">alsa/asoundlib.h</text>
</a>
</g>
</g>
<!-- Node2&#45;&gt;Node3 -->
<g id="edge2_Node000002_Node000003" class="edge">
<title>Node2&#45;&gt;Node3</title>
<g id="a_edge2_Node000002_Node000003"><a xlink:title=" ">
<path fill="none" stroke="#63b8ff" d="M86.87,-220.59C109.3,-212.06 143.19,-199.17 168.6,-189.51"/>
<polygon fill="#63b8ff" stroke="#63b8ff" points="169.74,-192.82 177.84,-185.99 167.25,-186.27 169.74,-192.82"/>
</a>
</g>
</g>
<!-- Node4 -->
<g id="Node000004" class="node">
<title>Node4</title>
<g id="a_Node000004"><a xlink:title=" ">
<polygon fill="#e0e0e0" stroke="#999999" points="82.38,-185 43.88,-185 43.88,-165.75 82.38,-165.75 82.38,-185"/>
<text xml:space="preserve" text-anchor="middle" x="63.12" y="-171.5" font-family="Helvetica,sans-Serif" font-size="10.00">poll.h</text>
</a>
</g>
</g>
<!-- Node2&#45;&gt;Node4 -->
<g id="edge3_Node000002_Node000004" class="edge">
<title>Node2&#45;&gt;Node4</title>
<g id="a_edge3_Node000002_Node000004"><a xlink:title=" ">
<path fill="none" stroke="#63b8ff" d="M63.12,-220.83C63.12,-214.32 63.12,-205.17 63.12,-196.87"/>
<polygon fill="#63b8ff" stroke="#63b8ff" points="66.63,-196.87 63.13,-186.87 59.63,-196.87 66.63,-196.87"/>
</a>
</g>
</g>
<!-- Node5 -->
<g id="Node000005" class="node">
<title>Node5</title>
<g id="a_Node000005"><a xlink:href="JackConstants_8h.html" target="_top" xlink:title=" ">
<polygon fill="white" stroke="#666666" points="263.5,-19.25 174.75,-19.25 174.75,0 263.5,0 263.5,-19.25"/>
<text xml:space="preserve" text-anchor="middle" x="219.12" y="-5.75" font-family="Helvetica,sans-Serif" font-size="10.00">JackConstants.h</text>
</a>
</g>
</g>
<!-- Node2&#45;&gt;Node5 -->
<g id="edge4_Node000002_Node000005" class="edge">
<title>Node2&#45;&gt;Node5</title>
<g id="a_edge4_Node000002_Node000005"><a xlink:title=" ">
<path fill="none" stroke="#63b8ff" d="M69.43,-220.77C92.76,-188.02 174.41,-73.39 206.26,-28.68"/>
<polygon fill="#63b8ff" stroke="#63b8ff" points="209.08,-30.76 212.03,-20.58 203.38,-26.7 209.08,-30.76"/>
</a>
</g>
</g>
<!-- Node6&#45;&gt;Node3 -->
<g id="edge6_Node000006_Node000003" class="edge">
<title>Node6&#45;&gt;Node3</title>
<g id="a_edge6_Node000006_Node000003"><a xlink:title=" ">
<path fill="none" stroke="#63b8ff" d="M220.66,-220.83C218,-214.09 214.23,-204.52 210.86,-195.99"/>
<polygon fill="#63b8ff" stroke="#63b8ff" points="214.15,-194.79 207.22,-186.77 207.64,-197.35 214.15,-194.79"/>
</a>
</g>
</g>
<!-- Node7 -->
<g id="Node000007" class="node">
<title>Node7</title>
<g id="a_Node000007"><a xlink:href="JackMidiSendQueue_8h.html" target="_top" xlink:title=" ">
<polygon fill="white" stroke="#666666" points="381.88,-185 268.38,-185 268.38,-165.75 381.88,-165.75 381.88,-185"/>
<text xml:space="preserve" text-anchor="middle" x="325.12" y="-171.5" font-family="Helvetica,sans-Serif" font-size="10.00">JackMidiSendQueue.h</text>
</a>
</g>
</g>
<!-- Node6&#45;&gt;Node7 -->
<g id="edge7_Node000006_Node000007" class="edge">
<title>Node6&#45;&gt;Node7</title>
<g id="a_edge7_Node000006_Node000007"><a xlink:title=" ">
<path fill="none" stroke="#63b8ff" d="M241.26,-220.59C256.78,-212.41 279.93,-200.21 297.97,-190.69"/>
<polygon fill="#63b8ff" stroke="#63b8ff" points="299.36,-193.92 306.57,-186.16 296.09,-187.73 299.36,-193.92"/>
</a>
</g>
</g>
<!-- Node8 -->
<g id="Node000008" class="node">
<title>Node8</title>
<g id="a_Node000008"><a xlink:href="JackMidiWriteQueue_8h.html" target="_top" xlink:title=" ">
<polygon fill="white" stroke="#666666" points="381.88,-129.75 268.38,-129.75 268.38,-110.5 381.88,-110.5 381.88,-129.75"/>
<text xml:space="preserve" text-anchor="middle" x="325.12" y="-116.25" font-family="Helvetica,sans-Serif" font-size="10.00">JackMidiWriteQueue.h</text>
</a>
</g>
</g>
<!-- Node7&#45;&gt;Node8 -->
<g id="edge8_Node000007_Node000008" class="edge">
<title>Node7&#45;&gt;Node8</title>
<g id="a_edge8_Node000007_Node000008"><a xlink:title=" ">
<path fill="none" stroke="#63b8ff" d="M325.12,-165.58C325.12,-159.07 325.12,-149.92 325.12,-141.62"/>
<polygon fill="#63b8ff" stroke="#63b8ff" points="328.63,-141.62 325.13,-131.62 321.63,-141.62 328.63,-141.62"/>
</a>
</g>
</g>
<!-- Node9 -->
<g id="Node000009" class="node">
<title>Node9</title>
<g id="a_Node000009"><a xlink:href="JackMidiPort_8h.html" target="_top" xlink:title=" ">
<polygon fill="#fff0f0" stroke="red" points="407.38,-74.5 326.88,-74.5 326.88,-55.25 407.38,-55.25 407.38,-74.5"/>
<text xml:space="preserve" text-anchor="middle" x="367.12" y="-61" font-family="Helvetica,sans-Serif" font-size="10.00">JackMidiPort.h</text>
</a>
</g>
</g>
<!-- Node8&#45;&gt;Node9 -->
<g id="edge9_Node000008_Node000009" class="edge">
<title>Node8&#45;&gt;Node9</title>
<g id="a_edge9_Node000008_Node000009"><a xlink:title=" ">
<path fill="none" stroke="#63b8ff" d="M332.06,-110.33C337.74,-103.13 345.96,-92.71 353.02,-83.76"/>
<polygon fill="#63b8ff" stroke="#63b8ff" points="355.66,-86.07 359.1,-76.05 350.16,-81.73 355.66,-86.07"/>
</a>
</g>
</g>
<!-- Node9&#45;&gt;Node5 -->
<g id="edge10_Node000009_Node000005" class="edge">
<title>Node9&#45;&gt;Node5</title>
<g id="a_edge10_Node000009_Node000005"><a xlink:title=" ">
<path fill="none" stroke="#63b8ff" d="M342.02,-54.84C318.1,-46.24 281.84,-33.19 254.9,-23.5"/>
<polygon fill="#63b8ff" stroke="#63b8ff" points="256.37,-20.31 245.78,-20.21 254,-26.89 256.37,-20.31"/>
</a>
</g>
</g>
<!-- Node14&#45;&gt;Node8 -->
<g id="edge15_Node000014_Node000008" class="edge">
<title>Node14&#45;&gt;Node8</title>
<g id="a_edge15_Node000014_Node000008"><a xlink:title=" ">
<path fill="none" stroke="#63b8ff" d="M441.38,-165.34C418.95,-156.81 385.06,-143.92 359.65,-134.26"/>
<polygon fill="#63b8ff" stroke="#63b8ff" points="361,-131.02 350.41,-130.74 358.51,-137.57 361,-131.02"/>
</a>
</g>
</g>
<!-- Node14&#45;&gt;Node9 -->
<g id="edge12_Node000014_Node000009" class="edge">
<title>Node14&#45;&gt;Node9</title>
<g id="a_edge12_Node000014_Node000009"><a xlink:title=" ">
<path fill="none" stroke="#63b8ff" d="M457.11,-165.5C440.88,-147.53 403.92,-106.61 382.76,-83.19"/>
<polygon fill="#63b8ff" stroke="#63b8ff" points="385.57,-81.07 376.27,-76 380.38,-85.77 385.57,-81.07"/>
</a>
</g>
</g>
<!-- Node15 -->
<g id="Node000015" class="node">
<title>Node15</title>
<g id="a_Node000015"><a xlink:href="JackMidiReadQueue_8h.html" target="_top" xlink:title=" ">
<polygon fill="white" stroke="#666666" points="632.88,-129.75 519.38,-129.75 519.38,-110.5 632.88,-110.5 632.88,-129.75"/>
<text xml:space="preserve" text-anchor="middle" x="576.12" y="-116.25" font-family="Helvetica,sans-Serif" font-size="10.00">JackMidiReadQueue.h</text>
</a>
</g>
</g>
<!-- Node14&#45;&gt;Node15 -->
<g id="edge13_Node000014_Node000015" class="edge">
<title>Node14&#45;&gt;Node15</title>
<g id="a_edge13_Node000014_Node000015"><a xlink:title=" ">
<path fill="none" stroke="#63b8ff" d="M483.95,-165.34C501.18,-157.08 526.93,-144.73 546.83,-135.18"/>
<polygon fill="#63b8ff" stroke="#63b8ff" points="548.34,-138.34 555.84,-130.86 545.31,-132.03 548.34,-138.34"/>
</a>
</g>
</g>
<!-- Node16 -->
<g id="Node000016" class="node">
<title>Node16</title>
<g id="a_Node000016"><a xlink:title=" ">
<polygon fill="#e0e0e0" stroke="#999999" points="501.75,-129.75 438.5,-129.75 438.5,-110.5 501.75,-110.5 501.75,-129.75"/>
<text xml:space="preserve" text-anchor="middle" x="470.12" y="-116.25" font-family="Helvetica,sans-Serif" font-size="10.00">ringbuffer.h</text>
</a>
</g>
</g>
<!-- Node14&#45;&gt;Node16 -->
<g id="edge16_Node000014_Node000016" class="edge">
<title>Node14&#45;&gt;Node16</title>
<g id="a_edge16_Node000014_Node000016"><a xlink:title=" ">
<path fill="none" stroke="#63b8ff" d="M465.95,-165.58C466.57,-158.99 467.44,-149.71 468.23,-141.32"/>
<polygon fill="#63b8ff" stroke="#63b8ff" points="471.69,-141.9 469.14,-131.62 464.72,-141.25 471.69,-141.9"/>
</a>
</g>
</g>
<!-- Node15&#45;&gt;Node9 -->
<g id="edge14_Node000015_Node000009" class="edge">
<title>Node15&#45;&gt;Node9</title>
<g id="a_edge14_Node000015_Node000009"><a xlink:title=" ">
<path fill="none" stroke="#63b8ff" d="M540.67,-110.09C505.69,-101.18 452.03,-87.51 413.64,-77.73"/>
<polygon fill="#63b8ff" stroke="#63b8ff" points="414.77,-74.4 404.22,-75.33 413.05,-81.19 414.77,-74.4"/>
</a>
</g>
</g>
<!-- Node17&#45;&gt;Node15 -->
<g id="edge18_Node000017_Node000015" class="edge">
<title>Node17&#45;&gt;Node15</title>
<g id="a_edge18_Node000017_Node000015"><a xlink:title=" ">
<path fill="none" stroke="#63b8ff" d="M607.34,-220.75C601.91,-203.42 589.79,-164.73 582.35,-140.99"/>
<polygon fill="#63b8ff" stroke="#63b8ff" points="585.73,-140.07 579.4,-131.57 579.05,-142.16 585.73,-140.07"/>
</a>
</g>
</g>
<!-- Node18&#45;&gt;Node7 -->
<g id="edge21_Node000018_Node000007" class="edge">
<title>Node18&#45;&gt;Node7</title>
<g id="a_edge21_Node000018_Node000007"><a xlink:title=" ">
<path fill="none" stroke="#63b8ff" d="M389.89,-220.59C378.35,-212.71 361.36,-201.11 347.68,-191.77"/>
<polygon fill="#63b8ff" stroke="#63b8ff" points="349.9,-189.05 339.67,-186.31 345.96,-194.83 349.9,-189.05"/>
</a>
</g>
</g>
<!-- Node18&#45;&gt;Node14 -->
<g id="edge20_Node000018_Node000014" class="edge">
<title>Node18&#45;&gt;Node14</title>
<g id="a_edge20_Node000018_Node000014"><a xlink:title=" ">
<path fill="none" stroke="#63b8ff" d="M413.64,-220.59C422.51,-212.97 435.44,-201.87 446.11,-192.7"/>
<polygon fill="#63b8ff" stroke="#63b8ff" points="448.31,-195.43 453.61,-186.26 443.75,-190.12 448.31,-195.43"/>
</a>
</g>
</g>
</g>
</svg>
