<?xml version="1.0" encoding="UTF-8" standalone="no"?>
<!DOCTYPE svg PUBLIC "-//W3C//DTD SVG 1.1//EN"
 "http://www.w3.org/Graphics/SVG/1.1/DTD/svg11.dtd">
<!-- Generated by graphviz version 14.0.2 (0)
 -->
<!-- Title: plugins/LadspaEffect/swh/ladspa/impulses/all.h Pages: 1 -->
<svg width="2601pt" height="105pt"
 viewBox="0.00 0.00 2601.00 105.00" xmlns="http://www.w3.org/2000/svg" xmlns:xlink="http://www.w3.org/1999/xlink">
<g id="graph0" class="graph" transform="scale(1 1) rotate(0) translate(4 101)">
<title>plugins/LadspaEffect/swh/ladspa/impulses/all.h</title>
<!-- Node1 -->
<g id="Node000001" class="node">
<title>Node1</title>
<g id="a_Node000001"><a xlink:title=" ">
<polygon fill="#999999" stroke="#666666" points="1322.75,-97 1192,-97 1192,-66.5 1322.75,-66.5 1322.75,-97"/>
<text xml:space="preserve" text-anchor="start" x="1200" y="-83.5" font-family="Helvetica,sans-Serif" font-size="10.00">plugins/LadspaEffect</text>
<text xml:space="preserve" text-anchor="middle" x="1257.38" y="-72.25" font-family="Helvetica,sans-Serif" font-size="10.00">/swh/ladspa/impulses/all.h</text>
</a>
</g>
</g>
<!-- Node2 -->
<g id="Node000002" class="node">
<title>Node2</title>
<g id="a_Node000002"><a xlink:href="01-unit_8h.html" target="_top" xlink:title=" ">
<polygon fill="white" stroke="#666666" points="94.75,-24.88 0,-24.88 0,-5.63 94.75,-5.63 94.75,-24.88"/>
<text xml:space="preserve" text-anchor="middle" x="47.38" y="-11.38" font-family="Helvetica,sans-Serif" font-size="10.00">impulses/01&#45;unit.h</text>
</a>
</g>
</g>
<!-- Node1&#45;&gt;Node2 -->
<g id="edge1_Node000001_Node000002" class="edge">
<title>Node1&#45;&gt;Node2</title>
<g id="a_edge1_Node000001_Node000002"><a xlink:title=" ">
<path fill="none" stroke="#63b8ff" d="M1191.59,-79.63C979.7,-75.73 316.54,-61.32 104.38,-30.5 99.66,-29.82 94.77,-28.91 89.93,-27.88"/>
<polygon fill="#63b8ff" stroke="#63b8ff" points="90.81,-24.49 80.28,-25.65 89.24,-31.31 90.81,-24.49"/>
</a>
</g>
</g>
<!-- Node3 -->
<g id="Node000003" class="node">
<title>Node3</title>
<g id="a_Node000003"><a xlink:href="02-steves-flat_8h.html" target="_top" xlink:title=" ">
<polygon fill="white" stroke="#666666" points="213.75,-30.5 113,-30.5 113,0 213.75,0 213.75,-30.5"/>
<text xml:space="preserve" text-anchor="start" x="121" y="-17" font-family="Helvetica,sans-Serif" font-size="10.00">impulses/02&#45;steves</text>
<text xml:space="preserve" text-anchor="middle" x="163.38" y="-5.75" font-family="Helvetica,sans-Serif" font-size="10.00">&#45;flat.h</text>
</a>
</g>
</g>
<!-- Node1&#45;&gt;Node3 -->
<g id="edge2_Node000001_Node000003" class="edge">
<title>Node1&#45;&gt;Node3</title>
<g id="a_edge2_Node000001_Node000003"><a xlink:title=" ">
<path fill="none" stroke="#63b8ff" d="M1191.85,-79.18C998.63,-74.32 432.34,-58.19 225.45,-30.72"/>
<polygon fill="#63b8ff" stroke="#63b8ff" points="225.99,-27.26 215.61,-29.35 225.03,-34.19 225.99,-27.26"/>
</a>
</g>
</g>
<!-- Node4 -->
<g id="Node000004" class="node">
<title>Node4</title>
<g id="a_Node000004"><a xlink:href="03-stk-m1_8h.html" target="_top" xlink:title=" ">
<polygon fill="white" stroke="#666666" points="340.88,-24.88 231.88,-24.88 231.88,-5.63 340.88,-5.63 340.88,-24.88"/>
<text xml:space="preserve" text-anchor="middle" x="286.38" y="-11.38" font-family="Helvetica,sans-Serif" font-size="10.00">impulses/03&#45;stk&#45;m1.h</text>
</a>
</g>
</g>
<!-- Node1&#45;&gt;Node4 -->
<g id="edge3_Node000001_Node000004" class="edge">
<title>Node1&#45;&gt;Node4</title>
<g id="a_edge3_Node000001_Node000004"><a xlink:title=" ">
<path fill="none" stroke="#63b8ff" d="M1191.58,-80.78C1041.6,-80.06 663.21,-73.7 350.38,-30.5 344.81,-29.73 339.01,-28.73 333.28,-27.61"/>
<polygon fill="#63b8ff" stroke="#63b8ff" points="334.39,-24.27 323.89,-25.66 332.96,-31.12 334.39,-24.27"/>
</a>
</g>
</g>
<!-- Node5 -->
<g id="Node000005" class="node">
<title>Node5</title>
<g id="a_Node000005"><a xlink:href="04-fender-68-vibrolux-sm57_8h.html" target="_top" xlink:title=" ">
<polygon fill="white" stroke="#666666" points="459.38,-30.5 359.38,-30.5 359.38,0 459.38,0 459.38,-30.5"/>
<text xml:space="preserve" text-anchor="start" x="367.38" y="-17" font-family="Helvetica,sans-Serif" font-size="10.00">impulses/04&#45;fender</text>
<text xml:space="preserve" text-anchor="middle" x="409.38" y="-5.75" font-family="Helvetica,sans-Serif" font-size="10.00">&#45;68&#45;vibrolux&#45;sm57.h</text>
</a>
</g>
</g>
<!-- Node1&#45;&gt;Node5 -->
<g id="edge4_Node000001_Node000005" class="edge">
<title>Node1&#45;&gt;Node5</title>
<g id="a_edge4_Node000001_Node000005"><a xlink:title=" ">
<path fill="none" stroke="#63b8ff" d="M1191.5,-80.4C1057.41,-78.86 743.11,-71 471.08,-30.73"/>
<polygon fill="#63b8ff" stroke="#63b8ff" points="471.7,-27.28 461.29,-29.26 470.66,-34.2 471.7,-27.28"/>
</a>
</g>
</g>
<!-- Node6 -->
<g id="Node000006" class="node">
<title>Node6</title>
<g id="a_Node000006"><a xlink:href="05-fender-68-vibrolux-sm57-off_8h.html" target="_top" xlink:title=" ">
<polygon fill="white" stroke="#666666" points="591.12,-30.5 477.62,-30.5 477.62,0 591.12,0 591.12,-30.5"/>
<text xml:space="preserve" text-anchor="start" x="485.62" y="-17" font-family="Helvetica,sans-Serif" font-size="10.00">impulses/05&#45;fender</text>
<text xml:space="preserve" text-anchor="middle" x="534.38" y="-5.75" font-family="Helvetica,sans-Serif" font-size="10.00">&#45;68&#45;vibrolux&#45;sm57&#45;off.h</text>
</a>
</g>
</g>
<!-- Node1&#45;&gt;Node6 -->
<g id="edge5_Node000001_Node000006" class="edge">
<title>Node1&#45;&gt;Node6</title>
<g id="a_edge5_Node000001_Node000006"><a xlink:title=" ">
<path fill="none" stroke="#63b8ff" d="M1191.66,-78.77C1074.85,-74.58 823.27,-62.58 602.52,-30.84"/>
<polygon fill="#63b8ff" stroke="#63b8ff" points="603.26,-27.41 592.86,-29.43 602.25,-34.34 603.26,-27.41"/>
</a>
</g>
</g>
<!-- Node7 -->
<g id="Node000007" class="node">
<title>Node7</title>
<g id="a_Node000007"><a xlink:href="06-fender-68-vibrolux-at4050_8h.html" target="_top" xlink:title=" ">
<polygon fill="white" stroke="#666666" points="714,-30.5 608.75,-30.5 608.75,0 714,0 714,-30.5"/>
<text xml:space="preserve" text-anchor="start" x="616.75" y="-17" font-family="Helvetica,sans-Serif" font-size="10.00">impulses/06&#45;fender</text>
<text xml:space="preserve" text-anchor="middle" x="661.38" y="-5.75" font-family="Helvetica,sans-Serif" font-size="10.00">&#45;68&#45;vibrolux&#45;at4050.h</text>
</a>
</g>
</g>
<!-- Node1&#45;&gt;Node7 -->
<g id="edge6_Node000001_Node000007" class="edge">
<title>Node1&#45;&gt;Node7</title>
<g id="a_edge6_Node000001_Node000007"><a xlink:title=" ">
<path fill="none" stroke="#63b8ff" d="M1191.67,-77.37C1092.67,-71.66 899.26,-58.1 725.53,-30.7"/>
<polygon fill="#63b8ff" stroke="#63b8ff" points="726.31,-27.28 715.88,-29.16 725.2,-34.19 726.31,-27.28"/>
</a>
</g>
</g>
<!-- Node8 -->
<g id="Node000008" class="node">
<title>Node8</title>
<g id="a_Node000008"><a xlink:href="07-fender-68-vibrolux-ui87_8h.html" target="_top" xlink:title=" ">
<polygon fill="white" stroke="#666666" points="830.62,-30.5 732.12,-30.5 732.12,0 830.62,0 830.62,-30.5"/>
<text xml:space="preserve" text-anchor="start" x="740.12" y="-17" font-family="Helvetica,sans-Serif" font-size="10.00">impulses/07&#45;fender</text>
<text xml:space="preserve" text-anchor="middle" x="781.38" y="-5.75" font-family="Helvetica,sans-Serif" font-size="10.00">&#45;68&#45;vibrolux&#45;ui87.h</text>
</a>
</g>
</g>
<!-- Node1&#45;&gt;Node8 -->
<g id="edge7_Node000001_Node000008" class="edge">
<title>Node1&#45;&gt;Node8</title>
<g id="a_edge7_Node000001_Node000008"><a xlink:title=" ">
<path fill="none" stroke="#63b8ff" d="M1191.66,-75.23C1111.53,-67.96 971.82,-53.58 842.17,-30.67"/>
<polygon fill="#63b8ff" stroke="#63b8ff" points="842.81,-27.23 832.35,-28.91 841.58,-34.12 842.81,-27.23"/>
</a>
</g>
</g>
<!-- Node9 -->
<g id="Node000009" class="node">
<title>Node9</title>
<g id="a_Node000009"><a xlink:href="08-fender-bassman-sm57_8h.html" target="_top" xlink:title=" ">
<polygon fill="white" stroke="#666666" points="947.62,-30.5 849.12,-30.5 849.12,0 947.62,0 947.62,-30.5"/>
<text xml:space="preserve" text-anchor="start" x="857.12" y="-17" font-family="Helvetica,sans-Serif" font-size="10.00">impulses/08&#45;fender</text>
<text xml:space="preserve" text-anchor="middle" x="898.38" y="-5.75" font-family="Helvetica,sans-Serif" font-size="10.00">&#45;bassman&#45;sm57.h</text>
</a>
</g>
</g>
<!-- Node1&#45;&gt;Node9 -->
<g id="edge8_Node000001_Node000009" class="edge">
<title>Node1&#45;&gt;Node9</title>
<g id="a_edge8_Node000001_Node000009"><a xlink:title=" ">
<path fill="none" stroke="#63b8ff" d="M1191.58,-71.11C1133.13,-62.23 1045.15,-48.1 958.94,-30.73"/>
<polygon fill="#63b8ff" stroke="#63b8ff" points="959.87,-27.34 949.38,-28.78 958.48,-34.2 959.87,-27.34"/>
</a>
</g>
</g>
<!-- Node10 -->
<g id="Node000010" class="node">
<title>Node10</title>
<g id="a_Node000010"><a xlink:href="09-fender-bassman-sm57-off_8h.html" target="_top" xlink:title=" ">
<polygon fill="white" stroke="#666666" points="1072.75,-30.5 966,-30.5 966,0 1072.75,0 1072.75,-30.5"/>
<text xml:space="preserve" text-anchor="start" x="974" y="-17" font-family="Helvetica,sans-Serif" font-size="10.00">impulses/09&#45;fender</text>
<text xml:space="preserve" text-anchor="middle" x="1019.38" y="-5.75" font-family="Helvetica,sans-Serif" font-size="10.00">&#45;bassman&#45;sm57&#45;off.h</text>
</a>
</g>
</g>
<!-- Node1&#45;&gt;Node10 -->
<g id="edge9_Node000001_Node000010" class="edge">
<title>Node1&#45;&gt;Node10</title>
<g id="a_edge9_Node000001_Node000010"><a xlink:title=" ">
<path fill="none" stroke="#63b8ff" d="M1203.07,-66.03C1167.61,-56.42 1121.13,-43.83 1083.8,-33.71"/>
<polygon fill="#63b8ff" stroke="#63b8ff" points="1085.06,-30.43 1074.5,-31.19 1083.23,-37.18 1085.06,-30.43"/>
</a>
</g>
</g>
<!-- Node11 -->
<g id="Node000011" class="node">
<title>Node11</title>
<g id="a_Node000011"><a xlink:href="10-fender-bassman-at4050_8h.html" target="_top" xlink:title=" ">
<polygon fill="white" stroke="#666666" points="1189.62,-30.5 1091.12,-30.5 1091.12,0 1189.62,0 1189.62,-30.5"/>
<text xml:space="preserve" text-anchor="start" x="1099.12" y="-17" font-family="Helvetica,sans-Serif" font-size="10.00">impulses/10&#45;fender</text>
<text xml:space="preserve" text-anchor="middle" x="1140.38" y="-5.75" font-family="Helvetica,sans-Serif" font-size="10.00">&#45;bassman&#45;at4050.h</text>
</a>
</g>
</g>
<!-- Node1&#45;&gt;Node11 -->
<g id="edge10_Node000001_Node000011" class="edge">
<title>Node1&#45;&gt;Node11</title>
<g id="a_edge10_Node000001_Node000011"><a xlink:title=" ">
<path fill="none" stroke="#63b8ff" d="M1230.83,-66.11C1214.82,-57.29 1194.21,-45.93 1176.71,-36.28"/>
<polygon fill="#63b8ff" stroke="#63b8ff" points="1178.59,-33.32 1168.14,-31.56 1175.21,-39.45 1178.59,-33.32"/>
</a>
</g>
</g>
<!-- Node12 -->
<g id="Node000012" class="node">
<title>Node12</title>
<g id="a_Node000012"><a xlink:href="11-fender-bassman-ui87_8h.html" target="_top" xlink:title=" ">
<polygon fill="white" stroke="#666666" points="1306.62,-30.5 1208.12,-30.5 1208.12,0 1306.62,0 1306.62,-30.5"/>
<text xml:space="preserve" text-anchor="start" x="1216.12" y="-17" font-family="Helvetica,sans-Serif" font-size="10.00">impulses/11&#45;fender</text>
<text xml:space="preserve" text-anchor="middle" x="1257.38" y="-5.75" font-family="Helvetica,sans-Serif" font-size="10.00">&#45;bassman&#45;ui87.h</text>
</a>
</g>
</g>
<!-- Node1&#45;&gt;Node12 -->
<g id="edge11_Node000001_Node000012" class="edge">
<title>Node1&#45;&gt;Node12</title>
<g id="a_edge11_Node000001_Node000012"><a xlink:title=" ">
<path fill="none" stroke="#63b8ff" d="M1257.38,-66.11C1257.38,-59.02 1257.38,-50.29 1257.38,-42.13"/>
<polygon fill="#63b8ff" stroke="#63b8ff" points="1260.88,-42.34 1257.38,-32.34 1253.88,-42.34 1260.88,-42.34"/>
</a>
</g>
</g>
<!-- Node13 -->
<g id="Node000013" class="node">
<title>Node13</title>
<g id="a_Node000013"><a xlink:href="12-fender-superchamp-sm57_8h.html" target="_top" xlink:title=" ">
<polygon fill="white" stroke="#666666" points="1431.75,-30.5 1325,-30.5 1325,0 1431.75,0 1431.75,-30.5"/>
<text xml:space="preserve" text-anchor="start" x="1333" y="-17" font-family="Helvetica,sans-Serif" font-size="10.00">impulses/12&#45;fender</text>
<text xml:space="preserve" text-anchor="middle" x="1378.38" y="-5.75" font-family="Helvetica,sans-Serif" font-size="10.00">&#45;superchamp&#45;sm57.h</text>
</a>
</g>
</g>
<!-- Node1&#45;&gt;Node13 -->
<g id="edge12_Node000001_Node000013" class="edge">
<title>Node1&#45;&gt;Node13</title>
<g id="a_edge12_Node000001_Node000013"><a xlink:title=" ">
<path fill="none" stroke="#63b8ff" d="M1284.83,-66.11C1301.46,-57.25 1322.9,-45.82 1341.05,-36.14"/>
<polygon fill="#63b8ff" stroke="#63b8ff" points="1342.51,-39.33 1349.69,-31.54 1339.22,-33.16 1342.51,-39.33"/>
</a>
</g>
</g>
<!-- Node14 -->
<g id="Node000014" class="node">
<title>Node14</title>
<g id="a_Node000014"><a xlink:href="13-fender-superchamp-sm57-off_8h.html" target="_top" xlink:title=" ">
<polygon fill="white" stroke="#666666" points="1570.5,-30.5 1450.25,-30.5 1450.25,0 1570.5,0 1570.5,-30.5"/>
<text xml:space="preserve" text-anchor="start" x="1458.25" y="-17" font-family="Helvetica,sans-Serif" font-size="10.00">impulses/13&#45;fender</text>
<text xml:space="preserve" text-anchor="middle" x="1510.38" y="-5.75" font-family="Helvetica,sans-Serif" font-size="10.00">&#45;superchamp&#45;sm57&#45;off.h</text>
</a>
</g>
</g>
<!-- Node1&#45;&gt;Node14 -->
<g id="edge13_Node000001_Node000014" class="edge">
<title>Node1&#45;&gt;Node14</title>
<g id="a_edge13_Node000001_Node000014"><a xlink:title=" ">
<path fill="none" stroke="#63b8ff" d="M1315.1,-66.03C1352.83,-56.42 1402.28,-43.81 1441.98,-33.69"/>
<polygon fill="#63b8ff" stroke="#63b8ff" points="1442.6,-37.14 1451.43,-31.28 1440.88,-30.36 1442.6,-37.14"/>
</a>
</g>
</g>
<!-- Node15 -->
<g id="Node000015" class="node">
<title>Node15</title>
<g id="a_Node000015"><a xlink:href="14-fender-superchamp-at4050_8h.html" target="_top" xlink:title=" ">
<polygon fill="white" stroke="#666666" points="1700.38,-30.5 1588.38,-30.5 1588.38,0 1700.38,0 1700.38,-30.5"/>
<text xml:space="preserve" text-anchor="start" x="1596.38" y="-17" font-family="Helvetica,sans-Serif" font-size="10.00">impulses/14&#45;fender</text>
<text xml:space="preserve" text-anchor="middle" x="1644.38" y="-5.75" font-family="Helvetica,sans-Serif" font-size="10.00">&#45;superchamp&#45;at4050.h</text>
</a>
</g>
</g>
<!-- Node1&#45;&gt;Node15 -->
<g id="edge14_Node000001_Node000015" class="edge">
<title>Node1&#45;&gt;Node15</title>
<g id="a_edge14_Node000001_Node000015"><a xlink:title=" ">
<path fill="none" stroke="#63b8ff" d="M1322.95,-71.71C1385.67,-62.8 1483.18,-48.24 1576.93,-30.89"/>
<polygon fill="#63b8ff" stroke="#63b8ff" points="1577.37,-34.37 1586.56,-29.1 1576.09,-27.49 1577.37,-34.37"/>
</a>
</g>
</g>
<!-- Node16 -->
<g id="Node000016" class="node">
<title>Node16</title>
<g id="a_Node000016"><a xlink:href="15-fender-superchamp-ui87_8h.html" target="_top" xlink:title=" ">
<polygon fill="white" stroke="#666666" points="1818.75,-30.5 1718,-30.5 1718,0 1818.75,0 1818.75,-30.5"/>
<text xml:space="preserve" text-anchor="start" x="1726" y="-17" font-family="Helvetica,sans-Serif" font-size="10.00">impulses/15&#45;fender</text>
<text xml:space="preserve" text-anchor="middle" x="1768.38" y="-5.75" font-family="Helvetica,sans-Serif" font-size="10.00">&#45;superchamp&#45;ui87.h</text>
</a>
</g>
</g>
<!-- Node1&#45;&gt;Node16 -->
<g id="edge15_Node000001_Node000016" class="edge">
<title>Node1&#45;&gt;Node16</title>
<g id="a_edge15_Node000001_Node000016"><a xlink:title=" ">
<path fill="none" stroke="#63b8ff" d="M1323.24,-76.05C1409.33,-69.32 1564.94,-55.18 1706.57,-30.86"/>
<polygon fill="#63b8ff" stroke="#63b8ff" points="1706.87,-34.36 1716.12,-29.2 1705.67,-27.47 1706.87,-34.36"/>
</a>
</g>
</g>
<!-- Node17 -->
<g id="Node000017" class="node">
<title>Node17</title>
<g id="a_Node000017"><a xlink:href="16-marshall-jcm2000-sm57_8h.html" target="_top" xlink:title=" ">
<polygon fill="white" stroke="#666666" points="1945.5,-30.5 1837.25,-30.5 1837.25,0 1945.5,0 1945.5,-30.5"/>
<text xml:space="preserve" text-anchor="start" x="1845.25" y="-17" font-family="Helvetica,sans-Serif" font-size="10.00">impulses/16&#45;marshall</text>
<text xml:space="preserve" text-anchor="middle" x="1891.38" y="-5.75" font-family="Helvetica,sans-Serif" font-size="10.00">&#45;jcm2000&#45;sm57.h</text>
</a>
</g>
</g>
<!-- Node1&#45;&gt;Node17 -->
<g id="edge16_Node000001_Node000017" class="edge">
<title>Node1&#45;&gt;Node17</title>
<g id="a_edge16_Node000001_Node000017"><a xlink:title=" ">
<path fill="none" stroke="#63b8ff" d="M1323.11,-77.76C1427.47,-72.4 1637.59,-59.1 1825.78,-30.59"/>
<polygon fill="#63b8ff" stroke="#63b8ff" points="1826.15,-34.07 1835.5,-29.1 1825.09,-27.15 1826.15,-34.07"/>
</a>
</g>
</g>
<!-- Node18 -->
<g id="Node000018" class="node">
<title>Node18</title>
<g id="a_Node000018"><a xlink:href="17-marshall-jcm2000-sm57-off_8h.html" target="_top" xlink:title=" ">
<polygon fill="white" stroke="#666666" points="2071.5,-30.5 1963.25,-30.5 1963.25,0 2071.5,0 2071.5,-30.5"/>
<text xml:space="preserve" text-anchor="start" x="1971.25" y="-17" font-family="Helvetica,sans-Serif" font-size="10.00">impulses/17&#45;marshall</text>
<text xml:space="preserve" text-anchor="middle" x="2017.38" y="-5.75" font-family="Helvetica,sans-Serif" font-size="10.00">&#45;jcm2000&#45;sm57&#45;off.h</text>
</a>
</g>
</g>
<!-- Node1&#45;&gt;Node18 -->
<g id="edge17_Node000001_Node000018" class="edge">
<title>Node1&#45;&gt;Node18</title>
<g id="a_edge17_Node000001_Node000018"><a xlink:title=" ">
<path fill="none" stroke="#63b8ff" d="M1323.08,-79.3C1445.17,-75.9 1715.34,-65.01 1951.61,-30.76"/>
<polygon fill="#63b8ff" stroke="#63b8ff" points="1951.95,-34.25 1961.34,-29.33 1950.93,-27.32 1951.95,-34.25"/>
</a>
</g>
</g>
<!-- Node19 -->
<g id="Node000019" class="node">
<title>Node19</title>
<g id="a_Node000019"><a xlink:href="18-marshall-plexi-sm57_8h.html" target="_top" xlink:title=" ">
<polygon fill="white" stroke="#666666" points="2197.5,-30.5 2089.25,-30.5 2089.25,0 2197.5,0 2197.5,-30.5"/>
<text xml:space="preserve" text-anchor="start" x="2097.25" y="-17" font-family="Helvetica,sans-Serif" font-size="10.00">impulses/18&#45;marshall</text>
<text xml:space="preserve" text-anchor="middle" x="2143.38" y="-5.75" font-family="Helvetica,sans-Serif" font-size="10.00">&#45;plexi&#45;sm57.h</text>
</a>
</g>
</g>
<!-- Node1&#45;&gt;Node19 -->
<g id="edge18_Node000001_Node000019" class="edge">
<title>Node1&#45;&gt;Node19</title>
<g id="a_edge18_Node000001_Node000019"><a xlink:title=" ">
<path fill="none" stroke="#63b8ff" d="M1323.08,-80.33C1461.27,-78.67 1792.13,-70.61 2077.84,-30.71"/>
<polygon fill="#63b8ff" stroke="#63b8ff" points="2077.93,-34.23 2087.34,-29.36 2076.95,-27.3 2077.93,-34.23"/>
</a>
</g>
</g>
<!-- Node20 -->
<g id="Node000020" class="node">
<title>Node20</title>
<g id="a_Node000020"><a xlink:href="19-marshall-plexi-sm57-off_8h.html" target="_top" xlink:title=" ">
<polygon fill="white" stroke="#666666" points="2323.5,-30.5 2215.25,-30.5 2215.25,0 2323.5,0 2323.5,-30.5"/>
<text xml:space="preserve" text-anchor="start" x="2223.25" y="-17" font-family="Helvetica,sans-Serif" font-size="10.00">impulses/19&#45;marshall</text>
<text xml:space="preserve" text-anchor="middle" x="2269.38" y="-5.75" font-family="Helvetica,sans-Serif" font-size="10.00">&#45;plexi&#45;sm57&#45;off.h</text>
</a>
</g>
</g>
<!-- Node1&#45;&gt;Node20 -->
<g id="edge19_Node000001_Node000020" class="edge">
<title>Node1&#45;&gt;Node20</title>
<g id="a_edge19_Node000001_Node000020"><a xlink:title=" ">
<path fill="none" stroke="#63b8ff" d="M1323.03,-81.09C1476.06,-81.06 1868.32,-76.26 2203.93,-30.68"/>
<polygon fill="#63b8ff" stroke="#63b8ff" points="2203.91,-34.21 2213.34,-29.39 2202.96,-27.28 2203.91,-34.21"/>
</a>
</g>
</g>
<!-- Node21 -->
<g id="Node000021" class="node">
<title>Node21</title>
<g id="a_Node000021"><a xlink:href="20-matchless-chieftain-sm57_8h.html" target="_top" xlink:title=" ">
<polygon fill="white" stroke="#666666" points="2457.62,-30.5 2341.12,-30.5 2341.12,0 2457.62,0 2457.62,-30.5"/>
<text xml:space="preserve" text-anchor="start" x="2349.12" y="-17" font-family="Helvetica,sans-Serif" font-size="10.00">impulses/20&#45;matchless</text>
<text xml:space="preserve" text-anchor="middle" x="2399.38" y="-5.75" font-family="Helvetica,sans-Serif" font-size="10.00">&#45;chieftain&#45;sm57.h</text>
</a>
</g>
</g>
<!-- Node1&#45;&gt;Node21 -->
<g id="edge20_Node000001_Node000021" class="edge">
<title>Node1&#45;&gt;Node21</title>
<g id="a_edge20_Node000001_Node000021"><a xlink:title=" ">
<path fill="none" stroke="#63b8ff" d="M1323.14,-81.39C1490.03,-82.22 1943.53,-79.5 2329.25,-30.76"/>
<polygon fill="#63b8ff" stroke="#63b8ff" points="2329.66,-34.24 2339.14,-29.5 2328.78,-27.29 2329.66,-34.24"/>
</a>
</g>
</g>
<!-- Node22 -->
<g id="Node000022" class="node">
<title>Node22</title>
<g id="a_Node000022"><a xlink:href="21-matchless-chieftain-sm57-off_8h.html" target="_top" xlink:title=" ">
<polygon fill="white" stroke="#666666" points="2592.62,-30.5 2476.12,-30.5 2476.12,0 2592.62,0 2592.62,-30.5"/>
<text xml:space="preserve" text-anchor="start" x="2484.12" y="-17" font-family="Helvetica,sans-Serif" font-size="10.00">impulses/21&#45;matchless</text>
<text xml:space="preserve" text-anchor="middle" x="2534.38" y="-5.75" font-family="Helvetica,sans-Serif" font-size="10.00">&#45;chieftain&#45;sm57&#45;off.h</text>
</a>
</g>
</g>
<!-- Node1&#45;&gt;Node22 -->
<g id="edge21_Node000001_Node000022" class="edge">
<title>Node1&#45;&gt;Node22</title>
<g id="a_edge21_Node000001_Node000022"><a xlink:title=" ">
<path fill="none" stroke="#63b8ff" d="M1323.23,-79.45C1538.42,-74.97 2220.51,-58.95 2464.58,-30.51"/>
<polygon fill="#63b8ff" stroke="#63b8ff" points="2464.86,-34 2474.37,-29.33 2464.02,-27.06 2464.86,-34"/>
</a>
</g>
</g>
</g>
</svg>
