<?xml version="1.0" encoding="UTF-8" standalone="no"?>
<!DOCTYPE svg PUBLIC "-//W3C//DTD SVG 1.1//EN"
 "http://www.w3.org/Graphics/SVG/1.1/DTD/svg11.dtd">
<!-- Generated by graphviz version 14.0.2 (0)
 -->
<!-- Title: LICE_RotatedBlit Pages: 1 -->
<svg width="418pt" height="310pt"
 viewBox="0.00 0.00 418.00 310.00" xmlns="http://www.w3.org/2000/svg" xmlns:xlink="http://www.w3.org/1999/xlink">

<svg id="main" version="1.1" xmlns="http://www.w3.org/2000/svg" xmlns:xlink="http://www.w3.org/1999/xlink" xml:space="preserve">

<style type="text/css"><![CDATA[
.node, .edge {opacity: 0.7;}
.node.selected, .edge.selected {opacity: 1;}
.edge:hover path { stroke: red; }
.edge:hover polygon { stroke: red; fill: red; }
]]></style>
<script type="application/ecmascript" xlink:href="svg.min.js"/>
<svg id="graph" class="graph">
<g id="graph0" class="graph" transform="scale(1 1) rotate(0) translate(4 306.25)">
<title>LICE_RotatedBlit</title>
<!-- Node1 -->
<g id="Node000001" class="node">
<title>Node1</title>
<g id="a_Node000001"><a xlink:title=" ">
<polygon fill="#999999" stroke="#666666" points="91,-148.25 0,-148.25 0,-129 91,-129 91,-148.25"/>
<text xml:space="preserve" text-anchor="middle" x="45.5" y="-134.75" font-family="Helvetica,sans-Serif" font-size="10.00">LICE_RotatedBlit</text>
</a>
</g>
</g>
<!-- Node2 -->
<g id="Node000002" class="node">
<title>Node2</title>
<g id="a_Node000002"><a xlink:href="class__LICE__Template__Blit3.html#a0f22a31f9406114c5ed22ff8c1e321a2" target="_top" xlink:title=" ">
<polygon fill="white" stroke="#666666" points="252.12,-289.88 138.62,-289.88 138.62,-259.38 252.12,-259.38 252.12,-289.88"/>
<text xml:space="preserve" text-anchor="start" x="146.62" y="-276.38" font-family="Helvetica,sans-Serif" font-size="10.00">_LICE_Template_Blit3</text>
<text xml:space="preserve" text-anchor="middle" x="195.38" y="-265.12" font-family="Helvetica,sans-Serif" font-size="10.00">::deltaBlit</text>
</a>
</g>
</g>
<!-- Node1&#45;&gt;Node2 -->
<g id="edge1_Node000001_Node000002" class="edge">
<title>Node1&#45;&gt;Node2</title>
<g id="a_edge1_Node000001_Node000002"><a xlink:title=" ">
<path fill="none" stroke="#63b8ff" d="M51.03,-148.55C61.4,-170.19 88.92,-221.98 127,-250.62 128.17,-251.51 129.38,-252.36 130.62,-253.18"/>
<polygon fill="#63b8ff" stroke="#63b8ff" points="128.86,-256.21 139.27,-258.17 132.35,-250.14 128.86,-256.21"/>
</a>
</g>
</g>
<!-- Node5 -->
<g id="Node000005" class="node">
<title>Node5</title>
<g id="a_Node000005"><a xlink:href="classLICE__IBitmap.html#a6f3f2c9a559b7c096957f0b707417afd" target="_top" xlink:title=" ">
<polygon fill="white" stroke="#666666" points="255.88,-241.25 134.88,-241.25 134.88,-222 255.88,-222 255.88,-241.25"/>
<text xml:space="preserve" text-anchor="middle" x="195.38" y="-227.75" font-family="Helvetica,sans-Serif" font-size="10.00">LICE_IBitmap::Extended</text>
</a>
</g>
</g>
<!-- Node1&#45;&gt;Node5 -->
<g id="edge4_Node000001_Node000005" class="edge">
<title>Node1&#45;&gt;Node5</title>
<g id="a_edge4_Node000001_Node000005"><a xlink:title=" ">
<path fill="none" stroke="#63b8ff" d="M54.29,-148.52C67.51,-164.62 95.92,-196.42 127,-213.62 129.5,-215.01 132.12,-216.29 134.8,-217.48"/>
<polygon fill="#63b8ff" stroke="#63b8ff" points="133.41,-220.7 144,-221.06 135.95,-214.17 133.41,-220.7"/>
</a>
</g>
</g>
<!-- Node6 -->
<g id="Node000006" class="node">
<title>Node6</title>
<g id="a_Node000006"><a xlink:href="classLICE__IBitmap.html#ab85d2f0ff9c81a8cd20164067a70e7a8" target="_top" xlink:title=" ">
<polygon fill="white" stroke="#666666" points="251.38,-204.25 139.38,-204.25 139.38,-185 251.38,-185 251.38,-204.25"/>
<text xml:space="preserve" text-anchor="middle" x="195.38" y="-190.75" font-family="Helvetica,sans-Serif" font-size="10.00">LICE_IBitmap::getBits</text>
</a>
</g>
</g>
<!-- Node1&#45;&gt;Node6 -->
<g id="edge5_Node000001_Node000006" class="edge">
<title>Node1&#45;&gt;Node6</title>
<g id="a_edge5_Node000001_Node000006"><a xlink:title=" ">
<path fill="none" stroke="#63b8ff" d="M65.28,-148.67C81.34,-156.98 105.23,-168.65 127,-176.62 131.6,-178.31 136.43,-179.91 141.3,-181.42"/>
<polygon fill="#63b8ff" stroke="#63b8ff" points="139.93,-184.66 150.51,-184.12 141.9,-177.94 139.93,-184.66"/>
</a>
</g>
</g>
<!-- Node7 -->
<g id="Node000007" class="node">
<title>Node7</title>
<g id="a_Node000007"><a xlink:href="classLICE__IBitmap.html#a0bafbe7480dea0941ddaf6ca756bace7" target="_top" xlink:title=" ">
<polygon fill="white" stroke="#666666" points="257,-167.25 133.75,-167.25 133.75,-148 257,-148 257,-167.25"/>
<text xml:space="preserve" text-anchor="middle" x="195.38" y="-153.75" font-family="Helvetica,sans-Serif" font-size="10.00">LICE_IBitmap::getHeight</text>
</a>
</g>
</g>
<!-- Node1&#45;&gt;Node7 -->
<g id="edge6_Node000001_Node000007" class="edge">
<title>Node1&#45;&gt;Node7</title>
<g id="a_edge6_Node000001_Node000007"><a xlink:title=" ">
<path fill="none" stroke="#63b8ff" d="M91.27,-144.38C101.01,-145.63 111.55,-146.98 122.05,-148.33"/>
<polygon fill="#63b8ff" stroke="#63b8ff" points="121.52,-151.79 131.88,-149.6 122.41,-144.85 121.52,-151.79"/>
</a>
</g>
</g>
<!-- Node8 -->
<g id="Node000008" class="node">
<title>Node8</title>
<g id="a_Node000008"><a xlink:href="classLICE__IBitmap.html#a11e983bfd4564ce2845483e25bcb8235" target="_top" xlink:title=" ">
<polygon fill="white" stroke="#666666" points="263.75,-130.25 127,-130.25 127,-111 263.75,-111 263.75,-130.25"/>
<text xml:space="preserve" text-anchor="middle" x="195.38" y="-116.75" font-family="Helvetica,sans-Serif" font-size="10.00">LICE_IBitmap::getRowSpan</text>
</a>
</g>
</g>
<!-- Node1&#45;&gt;Node8 -->
<g id="edge7_Node000001_Node000008" class="edge">
<title>Node1&#45;&gt;Node8</title>
<g id="a_edge7_Node000001_Node000008"><a xlink:title=" ">
<path fill="none" stroke="#63b8ff" d="M91.27,-133.18C98.92,-132.24 107.08,-131.25 115.32,-130.25"/>
<polygon fill="#63b8ff" stroke="#63b8ff" points="115.56,-133.74 125.06,-129.06 114.71,-126.8 115.56,-133.74"/>
</a>
</g>
</g>
<!-- Node9 -->
<g id="Node000009" class="node">
<title>Node9</title>
<g id="a_Node000009"><a xlink:href="classLICE__IBitmap.html#a184d39becd75166ffd9784fd8cadc44d" target="_top" xlink:title=" ">
<polygon fill="white" stroke="#666666" points="255.12,-93.25 135.62,-93.25 135.62,-74 255.12,-74 255.12,-93.25"/>
<text xml:space="preserve" text-anchor="middle" x="195.38" y="-79.75" font-family="Helvetica,sans-Serif" font-size="10.00">LICE_IBitmap::getWidth</text>
</a>
</g>
</g>
<!-- Node1&#45;&gt;Node9 -->
<g id="edge8_Node000001_Node000009" class="edge">
<title>Node1&#45;&gt;Node9</title>
<g id="a_edge8_Node000001_Node000009"><a xlink:title=" ">
<path fill="none" stroke="#63b8ff" d="M65.96,-128.55C82.03,-120.5 105.58,-109.34 127,-101.62 131.68,-99.94 136.58,-98.33 141.53,-96.82"/>
<polygon fill="#63b8ff" stroke="#63b8ff" points="142.27,-100.25 150.89,-94.1 140.31,-93.53 142.27,-100.25"/>
</a>
</g>
</g>
<!-- Node10 -->
<g id="Node000010" class="node">
<title>Node10</title>
<g id="a_Node000010"><a xlink:href="unzipfx-carla-control_2unzip_8h.html#a6146ec4ac32d62cf01b4c4c6587d5131" target="_top" xlink:title=" ">
<polygon fill="white" stroke="#666666" points="209.78,-56.25 180.97,-56.25 180.97,-37 209.78,-37 209.78,-56.25"/>
<text xml:space="preserve" text-anchor="middle" x="195.38" y="-42.75" font-family="Helvetica,sans-Serif" font-size="10.00">int</text>
</a>
</g>
</g>
<!-- Node1&#45;&gt;Node10 -->
<g id="edge9_Node000001_Node000010" class="edge">
<title>Node1&#45;&gt;Node10</title>
<g id="a_edge9_Node000001_Node000010"><a xlink:title=" ">
<path fill="none" stroke="#63b8ff" d="M54.54,-128.61C67.89,-112.65 96.22,-81.53 127,-64.62 140.08,-57.44 156.19,-53 169.37,-50.33"/>
<polygon fill="#63b8ff" stroke="#63b8ff" points="169.77,-53.81 179,-48.61 168.54,-46.92 169.77,-53.81"/>
</a>
</g>
</g>
<!-- Node11 -->
<g id="Node000011" class="node">
<title>Node11</title>
<g id="a_Node000011"><a xlink:href="classLICE__IBitmap.html#a257cd749407c3c7a2a9db772d5037e0b" target="_top" xlink:title=" ">
<polygon fill="white" stroke="#666666" points="255.5,-19.25 135.25,-19.25 135.25,0 255.5,0 255.5,-19.25"/>
<text xml:space="preserve" text-anchor="middle" x="195.38" y="-5.75" font-family="Helvetica,sans-Serif" font-size="10.00">LICE_IBitmap::isFlipped</text>
</a>
</g>
</g>
<!-- Node1&#45;&gt;Node11 -->
<g id="edge10_Node000001_Node000011" class="edge">
<title>Node1&#45;&gt;Node11</title>
<g id="a_edge10_Node000001_Node000011"><a xlink:title=" ">
<path fill="none" stroke="#63b8ff" d="M50.89,-128.56C60.97,-106.65 87.96,-54.46 127,-27.62 128.58,-26.54 130.22,-25.52 131.91,-24.56"/>
<polygon fill="#63b8ff" stroke="#63b8ff" points="133.14,-27.85 140.64,-20.38 130.11,-21.54 133.14,-27.85"/>
</a>
</g>
</g>
<!-- Node3 -->
<g id="Node000003" class="node">
<title>Node3</title>
<g id="a_Node000003"><a xlink:href="lice__combine_8h.html#ac131ede8257b165f6933672d2261fc43" target="_top" xlink:title=" ">
<polygon fill="white" stroke="#666666" points="410.25,-302.25 299.75,-302.25 299.75,-283 410.25,-283 410.25,-302.25"/>
<text xml:space="preserve" text-anchor="middle" x="355" y="-288.75" font-family="Helvetica,sans-Serif" font-size="10.00">__LICE_BilinearFilterI</text>
</a>
</g>
</g>
<!-- Node2&#45;&gt;Node3 -->
<g id="edge2_Node000002_Node000003" class="edge">
<title>Node2&#45;&gt;Node3</title>
<g id="a_edge2_Node000002_Node000003"><a xlink:title=" ">
<path fill="none" stroke="#63b8ff" d="M252.39,-281.02C263.99,-282.35 276.31,-283.75 288.23,-285.11"/>
<polygon fill="#63b8ff" stroke="#63b8ff" points="287.65,-288.57 297.98,-286.23 288.45,-281.62 287.65,-288.57"/>
</a>
</g>
</g>
<!-- Node4 -->
<g id="Node000004" class="node">
<title>Node4</title>
<g id="a_Node000004"><a xlink:href="lice__combine_8h.html#a06d1c23d15fce70315d0d0c340e8021f" target="_top" xlink:title=" ">
<polygon fill="white" stroke="#666666" points="407.62,-265.25 302.38,-265.25 302.38,-246 407.62,-246 407.62,-265.25"/>
<text xml:space="preserve" text-anchor="middle" x="355" y="-251.75" font-family="Helvetica,sans-Serif" font-size="10.00">__LICE_LinearFilterI</text>
</a>
</g>
</g>
<!-- Node2&#45;&gt;Node4 -->
<g id="edge3_Node000002_Node000004" class="edge">
<title>Node2&#45;&gt;Node4</title>
<g id="a_edge3_Node000002_Node000004"><a xlink:title=" ">
<path fill="none" stroke="#63b8ff" d="M252.39,-267.87C264.92,-266.36 278.28,-264.75 291.06,-263.21"/>
<polygon fill="#63b8ff" stroke="#63b8ff" points="291.1,-266.73 300.61,-262.06 290.26,-259.78 291.1,-266.73"/>
</a>
</g>
</g>
</g>
</svg>
</svg>

<style type='text/css'>
<![CDATA[
[data-mouse-over-selected='false'] { opacity: 0.7; }
[data-mouse-over-selected='true']  { opacity: 1.0; }
]]>
</style>
<script type="application/ecmascript"><![CDATA[
document.addEventListener('DOMContentLoaded', (event) => {
  highlightEdges();
  highlightAdjacentNodes();
});
]]></script>
</svg>
