<?xml version="1.0" encoding="UTF-8" standalone="no"?>
<!DOCTYPE svg PUBLIC "-//W3C//DTD SVG 1.1//EN"
 "http://www.w3.org/Graphics/SVG/1.1/DTD/svg11.dtd">
<!-- Generated by graphviz version 14.0.2 (0)
 -->
<!-- Title: plugins/MidiExport/MidiFile.hpp Pages: 1 -->
<svg width="486pt" height="94pt"
 viewBox="0.00 0.00 486.00 94.00" xmlns="http://www.w3.org/2000/svg" xmlns:xlink="http://www.w3.org/1999/xlink">

<svg id="main" version="1.1" xmlns="http://www.w3.org/2000/svg" xmlns:xlink="http://www.w3.org/1999/xlink" xml:space="preserve">

<style type="text/css"><![CDATA[
.node, .edge {opacity: 0.7;}
.node.selected, .edge.selected {opacity: 1;}
.edge:hover path { stroke: red; }
.edge:hover polygon { stroke: red; fill: red; }
]]></style>
<script type="application/ecmascript" xlink:href="svg.min.js"/>
<svg id="graph" class="graph">
<g id="graph0" class="graph" transform="scale(1 1) rotate(0) translate(4 89.75)">
<title>plugins/MidiExport/MidiFile.hpp</title>
<!-- Node1 -->
<g id="Node000001" class="node">
<title>Node1</title>
<g id="a_Node000001"><a xlink:title=" ">
<polygon fill="#999999" stroke="#666666" points="286.12,-85.75 191.38,-85.75 191.38,-55.25 286.12,-55.25 286.12,-85.75"/>
<text xml:space="preserve" text-anchor="start" x="199.38" y="-72.25" font-family="Helvetica,sans-Serif" font-size="10.00">plugins/MidiExport</text>
<text xml:space="preserve" text-anchor="middle" x="238.75" y="-61" font-family="Helvetica,sans-Serif" font-size="10.00">/MidiFile.hpp</text>
</a>
</g>
</g>
<!-- Node2 -->
<g id="Node000002" class="node">
<title>Node2</title>
<g id="a_Node000002"><a xlink:title=" ">
<polygon fill="#e0e0e0" stroke="#999999" points="47.5,-19.25 0,-19.25 0,0 47.5,0 47.5,-19.25"/>
<text xml:space="preserve" text-anchor="middle" x="23.75" y="-5.75" font-family="Helvetica,sans-Serif" font-size="10.00">string.h</text>
</a>
</g>
</g>
<!-- Node1&#45;&gt;Node2 -->
<g id="edge1_Node000001_Node000002" class="edge">
<title>Node1&#45;&gt;Node2</title>
<g id="a_edge1_Node000001_Node000002"><a xlink:title=" ">
<path fill="none" stroke="#63b8ff" d="M191.03,-56.43C150.96,-45.46 94.63,-30.03 58.66,-20.18"/>
<polygon fill="#63b8ff" stroke="#63b8ff" points="59.77,-16.86 49.2,-17.59 57.92,-23.61 59.77,-16.86"/>
</a>
</g>
</g>
<!-- Node3 -->
<g id="Node000003" class="node">
<title>Node3</title>
<g id="a_Node000003"><a xlink:title=" ">
<polygon fill="#e0e0e0" stroke="#999999" points="113.5,-19.25 66,-19.25 66,0 113.5,0 113.5,-19.25"/>
<text xml:space="preserve" text-anchor="middle" x="89.75" y="-5.75" font-family="Helvetica,sans-Serif" font-size="10.00">stdint.h</text>
</a>
</g>
</g>
<!-- Node1&#45;&gt;Node3 -->
<g id="edge2_Node000001_Node000003" class="edge">
<title>Node1&#45;&gt;Node3</title>
<g id="a_edge2_Node000001_Node000003"><a xlink:title=" ">
<path fill="none" stroke="#63b8ff" d="M201.54,-54.8C177.43,-45.27 146.3,-32.97 123.01,-23.77"/>
<polygon fill="#63b8ff" stroke="#63b8ff" points="124.59,-20.63 114.01,-20.21 122.02,-27.14 124.59,-20.63"/>
</a>
</g>
</g>
<!-- Node4 -->
<g id="Node000004" class="node">
<title>Node4</title>
<g id="a_Node000004"><a xlink:title=" ">
<polygon fill="#e0e0e0" stroke="#999999" points="171.75,-19.25 131.75,-19.25 131.75,0 171.75,0 171.75,-19.25"/>
<text xml:space="preserve" text-anchor="middle" x="151.75" y="-5.75" font-family="Helvetica,sans-Serif" font-size="10.00">string</text>
</a>
</g>
</g>
<!-- Node1&#45;&gt;Node4 -->
<g id="edge3_Node000001_Node000004" class="edge">
<title>Node1&#45;&gt;Node4</title>
<g id="a_edge3_Node000001_Node000004"><a xlink:title=" ">
<path fill="none" stroke="#63b8ff" d="M217.24,-54.95C204.25,-46.15 187.71,-34.96 174.5,-26.02"/>
<polygon fill="#63b8ff" stroke="#63b8ff" points="176.66,-23.26 166.42,-20.55 172.74,-29.05 176.66,-23.26"/>
</a>
</g>
</g>
<!-- Node5 -->
<g id="Node000005" class="node">
<title>Node5</title>
<g id="a_Node000005"><a xlink:title=" ">
<polygon fill="#e0e0e0" stroke="#999999" points="233.25,-19.25 190.25,-19.25 190.25,0 233.25,0 233.25,-19.25"/>
<text xml:space="preserve" text-anchor="middle" x="211.75" y="-5.75" font-family="Helvetica,sans-Serif" font-size="10.00">vector</text>
</a>
</g>
</g>
<!-- Node1&#45;&gt;Node5 -->
<g id="edge4_Node000001_Node000005" class="edge">
<title>Node1&#45;&gt;Node5</title>
<g id="a_edge4_Node000001_Node000005"><a xlink:title=" ">
<path fill="none" stroke="#63b8ff" d="M232.08,-54.95C228.64,-47.45 224.4,-38.2 220.68,-30.1"/>
<polygon fill="#63b8ff" stroke="#63b8ff" points="223.89,-28.71 216.54,-21.08 217.53,-31.63 223.89,-28.71"/>
</a>
</g>
</g>
<!-- Node6 -->
<g id="Node000006" class="node">
<title>Node6</title>
<g id="a_Node000006"><a xlink:title=" ">
<polygon fill="#e0e0e0" stroke="#999999" points="280.5,-19.25 251,-19.25 251,0 280.5,0 280.5,-19.25"/>
<text xml:space="preserve" text-anchor="middle" x="265.75" y="-5.75" font-family="Helvetica,sans-Serif" font-size="10.00">set</text>
</a>
</g>
</g>
<!-- Node1&#45;&gt;Node6 -->
<g id="edge5_Node000001_Node000006" class="edge">
<title>Node1&#45;&gt;Node6</title>
<g id="a_edge5_Node000001_Node000006"><a xlink:title=" ">
<path fill="none" stroke="#63b8ff" d="M245.42,-54.95C248.86,-47.45 253.1,-38.2 256.82,-30.1"/>
<polygon fill="#63b8ff" stroke="#63b8ff" points="259.97,-31.63 260.96,-21.08 253.61,-28.71 259.97,-31.63"/>
</a>
</g>
</g>
<!-- Node7 -->
<g id="Node000007" class="node">
<title>Node7</title>
<g id="a_Node000007"><a xlink:title=" ">
<polygon fill="#e0e0e0" stroke="#999999" points="354.62,-19.25 298.88,-19.25 298.88,0 354.62,0 354.62,-19.25"/>
<text xml:space="preserve" text-anchor="middle" x="326.75" y="-5.75" font-family="Helvetica,sans-Serif" font-size="10.00">algorithm</text>
</a>
</g>
</g>
<!-- Node1&#45;&gt;Node7 -->
<g id="edge6_Node000001_Node000007" class="edge">
<title>Node1&#45;&gt;Node7</title>
<g id="a_edge6_Node000001_Node000007"><a xlink:title=" ">
<path fill="none" stroke="#63b8ff" d="M260.5,-54.95C273.64,-46.15 290.38,-34.96 303.74,-26.02"/>
<polygon fill="#63b8ff" stroke="#63b8ff" points="305.56,-29.01 311.93,-20.54 301.67,-23.19 305.56,-29.01"/>
</a>
</g>
</g>
<!-- Node8 -->
<g id="Node000008" class="node">
<title>Node8</title>
<g id="a_Node000008"><a xlink:href="assert_8h.html" target="_top" xlink:title=" ">
<polygon fill="white" stroke="#666666" points="423,-19.25 372.5,-19.25 372.5,0 423,0 423,-19.25"/>
<text xml:space="preserve" text-anchor="middle" x="397.75" y="-5.75" font-family="Helvetica,sans-Serif" font-size="10.00">assert.h</text>
</a>
</g>
</g>
<!-- Node1&#45;&gt;Node8 -->
<g id="edge7_Node000001_Node000008" class="edge">
<title>Node1&#45;&gt;Node8</title>
<g id="a_edge7_Node000001_Node000008"><a xlink:title=" ">
<path fill="none" stroke="#63b8ff" d="M278.46,-54.8C304.31,-45.23 337.71,-32.86 362.59,-23.64"/>
<polygon fill="#63b8ff" stroke="#63b8ff" points="363.78,-26.93 371.95,-20.18 361.35,-20.37 363.78,-26.93"/>
</a>
</g>
</g>
<!-- Node9 -->
<g id="Node000009" class="node">
<title>Node9</title>
<g id="a_Node000009"><a xlink:title=" ">
<polygon fill="#e0e0e0" stroke="#999999" points="478.25,-19.25 441.25,-19.25 441.25,0 478.25,0 478.25,-19.25"/>
<text xml:space="preserve" text-anchor="middle" x="459.75" y="-5.75" font-family="Helvetica,sans-Serif" font-size="10.00">array</text>
</a>
</g>
</g>
<!-- Node1&#45;&gt;Node9 -->
<g id="edge8_Node000001_Node000009" class="edge">
<title>Node1&#45;&gt;Node9</title>
<g id="a_edge8_Node000001_Node000009"><a xlink:title=" ">
<path fill="none" stroke="#63b8ff" d="M286.5,-57.69C323.21,-48.47 375.42,-35.06 429.89,-19.68"/>
<polygon fill="#63b8ff" stroke="#63b8ff" points="430.69,-23.1 439.35,-17 428.77,-16.36 430.69,-23.1"/>
</a>
</g>
</g>
</g>
</svg>
</svg>

<style type='text/css'>
<![CDATA[
[data-mouse-over-selected='false'] { opacity: 0.7; }
[data-mouse-over-selected='true']  { opacity: 1.0; }
]]>
</style>
<script type="application/ecmascript"><![CDATA[
document.addEventListener('DOMContentLoaded', (event) => {
  highlightEdges();
  highlightAdjacentNodes();
});
]]></script>
</svg>
