<?xml version="1.0" encoding="UTF-8" standalone="no"?>
<!DOCTYPE svg PUBLIC "-//W3C//DTD SVG 1.1//EN"
 "http://www.w3.org/Graphics/SVG/1.1/DTD/svg11.dtd">
<!-- Generated by graphviz version 14.0.2 (0)
 -->
<!-- Title: src/gui/widgets/MixerChannelLcdSpinBox.cpp Pages: 1 -->
<!--zoomable 315 -->

<svg id="main" version="1.1" xmlns="http://www.w3.org/2000/svg" xmlns:xlink="http://www.w3.org/1999/xlink" xml:space="preserve" onload="init(evt)">

<style type="text/css"><![CDATA[
.node, .edge {opacity: 0.7;}
.node.selected, .edge.selected {opacity: 1;}
.edge:hover path { stroke: red; }
.edge:hover polygon { stroke: red; fill: red; }
]]></style>

<defs>
  <circle id="rim" cx="0" cy="0" r="7"/>
  <circle id="rim2" cx="0" cy="0" r="3.5"/>
  <g id="zoomPlus">
    <use xlink:href="#rim" fill="#404040"><set attributeName="fill" to="#808080" begin="zoomplus.mouseover" end="zoomplus.mouseout"/></use>
    <path d="M-4,0h8M0,-4v8" fill="none" stroke="white" stroke-width="1.5" pointer-events="none"/>
  </g>
  <g id="zoomMin">
    <use xlink:href="#rim" fill="#404040"><set attributeName="fill" to="#808080" begin="zoomminus.mouseover" end="zoomminus.mouseout"/></use>
    <path d="M-4,0h8" fill="none" stroke="white" stroke-width="1.5" pointer-events="none"/>
  </g>
  <g id="arrowUp" transform="translate(30 24)">
    <use xlink:href="#rim"/>
    <path pointer-events="none" fill="none" stroke="white" stroke-width="1.5" d="M0,-3.0v7 M-2.5,-0.5L0,-3.0L2.5,-0.5"/>
  </g>
  <g id="arrowRight" transform="rotate(90) translate(36 -43)">
    <use xlink:href="#rim"/>
    <path pointer-events="none" fill="none" stroke="white" stroke-width="1.5" d="M0,-3.0v7 M-2.5,-0.5L0,-3.0L2.5,-0.5"/>
  </g>
  <g id="arrowDown" transform="rotate(180) translate(-30 -48)">
    <use xlink:href="#rim"/>
    <path pointer-events="none" fill="none" stroke="white" stroke-width="1.5" d="M0,-3.0v7 M-2.5,-0.5L0,-3.0L2.5,-0.5"/>
  </g>
  <g id="arrowLeft" transform="rotate(270) translate(-36 17)">
    <use xlink:href="#rim"/>
    <path pointer-events="none" fill="none" stroke="white" stroke-width="1.5" d="M0,-3.0v7 M-2.5,-0.5L0,-3.0L2.5,-0.5"/>
  </g>
  <g id="resetDef">
    <use xlink:href="#rim2" fill="#404040"><set attributeName="fill" to="#808080" begin="reset.mouseover" end="reset.mouseout"/></use>
  </g>
</defs>
<script type="application/ecmascript">
var viewWidth = 1198;
var viewHeight = 315;
var sectionId = 'dynsection-0';
</script>
<script type="application/ecmascript" xlink:href="svg.min.js"/>
<svg id="graph" class="graph">
<g id="viewport">
<title>src/gui/widgets/MixerChannelLcdSpinBox.cpp</title>
<!-- Node1 -->
<g id="Node000001" class="node">
<title>Node1</title>
<g id="a_Node000001"><a xlink:title=" ">
<polygon fill="#999999" stroke="#666666" points="931,-306.75 787.5,-306.75 787.5,-276.25 931,-276.25 931,-306.75"/>
<text xml:space="preserve" text-anchor="start" x="795.5" y="-293.25" font-family="Helvetica,sans-Serif" font-size="10.00">src/gui/widgets/MixerChannel</text>
<text xml:space="preserve" text-anchor="middle" x="859.25" y="-282" font-family="Helvetica,sans-Serif" font-size="10.00">LcdSpinBox.cpp</text>
</a>
</g>
</g>
<!-- Node2 -->
<g id="Node000002" class="node">
<title>Node2</title>
<g id="a_Node000002"><a xlink:href="MixerChannelLcdSpinBox_8h.html" target="_top" xlink:title=" ">
<polygon fill="white" stroke="#666666" points="800.5,-240.25 666,-240.25 666,-221 800.5,-221 800.5,-240.25"/>
<text xml:space="preserve" text-anchor="middle" x="733.25" y="-226.75" font-family="Helvetica,sans-Serif" font-size="10.00">MixerChannelLcdSpinBox.h</text>
</a>
</g>
</g>
<!-- Node1&#45;&gt;Node2 -->
<g id="edge1_Node000001_Node000002" class="edge">
<title>Node1&#45;&gt;Node2</title>
<g id="a_edge1_Node000001_Node000002"><a xlink:title=" ">
<path fill="none" stroke="#63b8ff" d="M827.78,-275.8C807.95,-266.53 782.49,-254.63 763,-245.52"/>
<polygon fill="#63b8ff" stroke="#63b8ff" points="764.49,-242.36 753.94,-241.29 761.52,-248.7 764.49,-242.36"/>
</a>
</g>
</g>
<!-- Node29 -->
<g id="Node000029" class="node">
<title>Node29</title>
<g id="a_Node000029"><a xlink:title=" ">
<polygon fill="#e0e0e0" stroke="#999999" points="1094.38,-240.25 1022.12,-240.25 1022.12,-221 1094.38,-221 1094.38,-240.25"/>
<text xml:space="preserve" text-anchor="middle" x="1058.25" y="-226.75" font-family="Helvetica,sans-Serif" font-size="10.00">QInputDialog</text>
</a>
</g>
</g>
<!-- Node1&#45;&gt;Node29 -->
<g id="edge8_Node000001_Node000029" class="edge">
<title>Node1&#45;&gt;Node29</title>
<g id="a_edge8_Node000001_Node000029"><a xlink:title=" ">
<path fill="none" stroke="#63b8ff" d="M908.95,-275.8C942.07,-266 985.1,-253.27 1016.46,-243.99"/>
<polygon fill="#63b8ff" stroke="#63b8ff" points="1017.39,-247.36 1025.99,-241.17 1015.4,-240.65 1017.39,-247.36"/>
</a>
</g>
</g>
<!-- Node30 -->
<g id="Node000030" class="node">
<title>Node30</title>
<g id="a_Node000030"><a xlink:title=" ">
<polygon fill="#e0e0e0" stroke="#999999" points="1190,-240.25 1112.5,-240.25 1112.5,-221 1190,-221 1190,-240.25"/>
<text xml:space="preserve" text-anchor="middle" x="1151.25" y="-226.75" font-family="Helvetica,sans-Serif" font-size="10.00">QMouseEvent</text>
</a>
</g>
</g>
<!-- Node1&#45;&gt;Node30 -->
<g id="edge9_Node000001_Node000030" class="edge">
<title>Node1&#45;&gt;Node30</title>
<g id="a_edge9_Node000001_Node000030"><a xlink:title=" ">
<path fill="none" stroke="#63b8ff" d="M931.43,-275.95C984.17,-265.31 1054.34,-251.17 1101.06,-241.74"/>
<polygon fill="#63b8ff" stroke="#63b8ff" points="1101.53,-245.22 1110.64,-239.81 1100.14,-238.36 1101.53,-245.22"/>
</a>
</g>
</g>
<!-- Node31 -->
<g id="Node000031" class="node">
<title>Node31</title>
<g id="a_Node000031"><a xlink:href="CaptionMenu_8h.html" target="_top" xlink:title=" ">
<polygon fill="white" stroke="#666666" points="899.5,-240.25 819,-240.25 819,-221 899.5,-221 899.5,-240.25"/>
<text xml:space="preserve" text-anchor="middle" x="859.25" y="-226.75" font-family="Helvetica,sans-Serif" font-size="10.00">CaptionMenu.h</text>
</a>
</g>
</g>
<!-- Node1&#45;&gt;Node31 -->
<g id="edge10_Node000001_Node000031" class="edge">
<title>Node1&#45;&gt;Node31</title>
<g id="a_edge10_Node000001_Node000031"><a xlink:title=" ">
<path fill="none" stroke="#63b8ff" d="M859.25,-275.95C859.25,-268.71 859.25,-259.84 859.25,-251.94"/>
<polygon fill="#63b8ff" stroke="#63b8ff" points="862.75,-252.21 859.25,-242.21 855.75,-252.21 862.75,-252.21"/>
</a>
</g>
</g>
<!-- Node33 -->
<g id="Node000033" class="node">
<title>Node33</title>
<g id="a_Node000033"><a xlink:href="MixerView_8h.html" target="_top" xlink:title=" ">
<polygon fill="white" stroke="#666666" points="578.5,-185 510,-185 510,-165.75 578.5,-165.75 578.5,-185"/>
<text xml:space="preserve" text-anchor="middle" x="544.25" y="-171.5" font-family="Helvetica,sans-Serif" font-size="10.00">MixerView.h</text>
</a>
</g>
</g>
<!-- Node1&#45;&gt;Node33 -->
<g id="edge13_Node000001_Node000033" class="edge">
<title>Node1&#45;&gt;Node33</title>
<g id="a_edge13_Node000001_Node000033"><a xlink:title=" ">
<path fill="none" stroke="#63b8ff" d="M787.19,-277.53C747.97,-269.24 699.05,-256.9 657.25,-240.25 624.36,-227.14 589.28,-206.07 567.08,-191.74"/>
<polygon fill="#63b8ff" stroke="#63b8ff" points="569.11,-188.88 558.83,-186.33 565.27,-194.74 569.11,-188.88"/>
</a>
</g>
</g>
<!-- Node35 -->
<g id="Node000035" class="node">
<title>Node35</title>
<g id="a_Node000035"><a xlink:href="GuiApplication_8h.html" target="_top" xlink:title=" ">
<polygon fill="white" stroke="#666666" points="1004.5,-240.25 918,-240.25 918,-221 1004.5,-221 1004.5,-240.25"/>
<text xml:space="preserve" text-anchor="middle" x="961.25" y="-226.75" font-family="Helvetica,sans-Serif" font-size="10.00">GuiApplication.h</text>
</a>
</g>
</g>
<!-- Node1&#45;&gt;Node35 -->
<g id="edge20_Node000001_Node000035" class="edge">
<title>Node1&#45;&gt;Node35</title>
<g id="a_edge20_Node000001_Node000035"><a xlink:title=" ">
<path fill="none" stroke="#63b8ff" d="M884.73,-275.8C900.41,-266.74 920.43,-255.19 936.06,-246.16"/>
<polygon fill="#63b8ff" stroke="#63b8ff" points="937.39,-249.44 944.3,-241.41 933.89,-243.38 937.39,-249.44"/>
</a>
</g>
</g>
<!-- Node37 -->
<g id="Node000037" class="node">
<title>Node37</title>
<g id="a_Node000037"><a xlink:href="TrackView_8h.html" target="_top" xlink:title=" ">
<polygon fill="white" stroke="#666666" points="400.25,-240.25 330.25,-240.25 330.25,-221 400.25,-221 400.25,-240.25"/>
<text xml:space="preserve" text-anchor="middle" x="365.25" y="-226.75" font-family="Helvetica,sans-Serif" font-size="10.00">TrackView.h</text>
</a>
</g>
</g>
<!-- Node1&#45;&gt;Node37 -->
<g id="edge24_Node000001_Node000037" class="edge">
<title>Node1&#45;&gt;Node37</title>
<g id="a_edge24_Node000001_Node000037"><a xlink:title=" ">
<path fill="none" stroke="#63b8ff" d="M787.15,-281.91C684.36,-269.66 498.56,-247.51 411.99,-237.2"/>
<polygon fill="#63b8ff" stroke="#63b8ff" points="412.54,-233.74 402.2,-236.03 411.72,-240.69 412.54,-233.74"/>
</a>
</g>
</g>
<!-- Node3 -->
<g id="Node000003" class="node">
<title>Node3</title>
<g id="a_Node000003"><a xlink:href="LcdSpinBox_8h.html" target="_top" xlink:title=" ">
<polygon fill="white" stroke="#666666" points="796.25,-185 720.25,-185 720.25,-165.75 796.25,-165.75 796.25,-185"/>
<text xml:space="preserve" text-anchor="middle" x="758.25" y="-171.5" font-family="Helvetica,sans-Serif" font-size="10.00">LcdSpinBox.h</text>
</a>
</g>
</g>
<!-- Node2&#45;&gt;Node3 -->
<g id="edge2_Node000002_Node000003" class="edge">
<title>Node2&#45;&gt;Node3</title>
<g id="a_edge2_Node000002_Node000003"><a xlink:title=" ">
<path fill="none" stroke="#63b8ff" d="M737.38,-220.83C740.58,-214.01 745.14,-204.31 749.18,-195.7"/>
<polygon fill="#63b8ff" stroke="#63b8ff" points="752.31,-197.27 753.39,-186.73 745.97,-194.29 752.31,-197.27"/>
</a>
</g>
</g>
<!-- Node4 -->
<g id="Node000004" class="node">
<title>Node4</title>
<g id="a_Node000004"><a xlink:href="LcdWidget_8h.html" target="_top" xlink:title=" ">
<polygon fill="#fff0f0" stroke="red" points="642.25,-129.75 572.25,-129.75 572.25,-110.5 642.25,-110.5 642.25,-129.75"/>
<text xml:space="preserve" text-anchor="middle" x="607.25" y="-116.25" font-family="Helvetica,sans-Serif" font-size="10.00">LcdWidget.h</text>
</a>
</g>
</g>
<!-- Node3&#45;&gt;Node4 -->
<g id="edge3_Node000003_Node000004" class="edge">
<title>Node3&#45;&gt;Node4</title>
<g id="a_edge3_Node000003_Node000004"><a xlink:title=" ">
<path fill="none" stroke="#63b8ff" d="M732.63,-165.34C708.23,-156.74 671.24,-143.69 643.75,-134"/>
<polygon fill="#63b8ff" stroke="#63b8ff" points="645.01,-130.73 634.42,-130.71 642.68,-137.33 645.01,-130.73"/>
</a>
</g>
</g>
<!-- Node8 -->
<g id="Node000008" class="node">
<title>Node8</title>
<g id="a_Node000008"><a xlink:href="AutomatableModelView_8h.html" target="_top" xlink:title=" ">
<polygon fill="#fff0f0" stroke="red" points="862.38,-129.75 736.12,-129.75 736.12,-110.5 862.38,-110.5 862.38,-129.75"/>
<text xml:space="preserve" text-anchor="middle" x="799.25" y="-116.25" font-family="Helvetica,sans-Serif" font-size="10.00">AutomatableModelView.h</text>
</a>
</g>
</g>
<!-- Node3&#45;&gt;Node8 -->
<g id="edge6_Node000003_Node000008" class="edge">
<title>Node3&#45;&gt;Node8</title>
<g id="a_edge6_Node000003_Node000008"><a xlink:title=" ">
<path fill="none" stroke="#63b8ff" d="M765.02,-165.58C770.57,-158.38 778.59,-147.96 785.48,-139.01"/>
<polygon fill="#63b8ff" stroke="#63b8ff" points="788.08,-141.37 791.41,-131.31 782.54,-137.1 788.08,-141.37"/>
</a>
</g>
</g>
<!-- Node6 -->
<g id="Node000006" class="node">
<title>Node6</title>
<g id="a_Node000006"><a xlink:title=" ">
<polygon fill="#e0e0e0" stroke="#999999" points="451,-74.5 397.5,-74.5 397.5,-55.25 451,-55.25 451,-74.5"/>
<text xml:space="preserve" text-anchor="middle" x="424.25" y="-61" font-family="Helvetica,sans-Serif" font-size="10.00">QWidget</text>
</a>
</g>
</g>
<!-- Node4&#45;&gt;Node6 -->
<g id="edge4_Node000004_Node000006" class="edge">
<title>Node4&#45;&gt;Node6</title>
<g id="a_edge4_Node000004_Node000006"><a xlink:title=" ">
<path fill="none" stroke="#63b8ff" d="M576.21,-110.09C544.69,-100.92 495.85,-86.71 462.09,-76.89"/>
<polygon fill="#63b8ff" stroke="#63b8ff" points="463.3,-73.59 452.72,-74.16 461.34,-80.31 463.3,-73.59"/>
</a>
</g>
</g>
<!-- Node7 -->
<g id="Node000007" class="node">
<title>Node7</title>
<g id="a_Node000007"><a xlink:title=" ">
<polygon fill="#e0e0e0" stroke="#999999" points="646.75,-19.25 567.75,-19.25 567.75,0 646.75,0 646.75,-19.25"/>
<text xml:space="preserve" text-anchor="middle" x="607.25" y="-5.75" font-family="Helvetica,sans-Serif" font-size="10.00">lmms_export.h</text>
</a>
</g>
</g>
<!-- Node4&#45;&gt;Node7 -->
<g id="edge5_Node000004_Node000007" class="edge">
<title>Node4&#45;&gt;Node7</title>
<g id="a_edge5_Node000004_Node000007"><a xlink:title=" ">
<path fill="none" stroke="#63b8ff" d="M607.25,-110.25C607.25,-93 607.25,-54.58 607.25,-30.81"/>
<polygon fill="#63b8ff" stroke="#63b8ff" points="610.75,-31.14 607.25,-21.14 603.75,-31.14 610.75,-31.14"/>
</a>
</g>
</g>
<!-- Node9 -->
<g id="Node000009" class="node">
<title>Node9</title>
<g id="a_Node000009"><a xlink:href="ModelView_8h.html" target="_top" xlink:title=" ">
<polygon fill="#fff0f0" stroke="red" points="744,-74.5 672.5,-74.5 672.5,-55.25 744,-55.25 744,-74.5"/>
<text xml:space="preserve" text-anchor="middle" x="708.25" y="-61" font-family="Helvetica,sans-Serif" font-size="10.00">ModelView.h</text>
</a>
</g>
</g>
<!-- Node8&#45;&gt;Node9 -->
<g id="edge7_Node000008_Node000009" class="edge">
<title>Node8&#45;&gt;Node9</title>
<g id="a_edge7_Node000008_Node000009"><a xlink:title=" ">
<path fill="none" stroke="#63b8ff" d="M783.81,-110.09C770.09,-102.06 749.75,-90.16 733.63,-80.73"/>
<polygon fill="#63b8ff" stroke="#63b8ff" points="735.47,-77.75 725.07,-75.72 731.93,-83.79 735.47,-77.75"/>
</a>
</g>
</g>
<!-- Node31&#45;&gt;Node7 -->
<g id="edge12_Node000031_Node000007" class="edge">
<title>Node31&#45;&gt;Node7</title>
<g id="a_edge12_Node000031_Node000007"><a xlink:title=" ">
<path fill="none" stroke="#63b8ff" d="M863.63,-220.69C873.28,-199.62 893.78,-145.93 871.25,-110.5 825.82,-39.07 721.49,-18.56 658.44,-12.78"/>
<polygon fill="#63b8ff" stroke="#63b8ff" points="658.93,-9.31 648.68,-11.98 658.36,-16.28 658.93,-9.31"/>
</a>
</g>
</g>
<!-- Node32 -->
<g id="Node000032" class="node">
<title>Node32</title>
<g id="a_Node000032"><a xlink:title=" ">
<polygon fill="#e0e0e0" stroke="#999999" points="862,-185 814.5,-185 814.5,-165.75 862,-165.75 862,-185"/>
<text xml:space="preserve" text-anchor="middle" x="838.25" y="-171.5" font-family="Helvetica,sans-Serif" font-size="10.00">QMenu</text>
</a>
</g>
</g>
<!-- Node31&#45;&gt;Node32 -->
<g id="edge11_Node000031_Node000032" class="edge">
<title>Node31&#45;&gt;Node32</title>
<g id="a_edge11_Node000031_Node000032"><a xlink:title=" ">
<path fill="none" stroke="#63b8ff" d="M855.78,-220.83C853.12,-214.09 849.35,-204.52 845.99,-195.99"/>
<polygon fill="#63b8ff" stroke="#63b8ff" points="849.27,-194.79 842.35,-186.77 842.76,-197.35 849.27,-194.79"/>
</a>
</g>
</g>
<!-- Node33&#45;&gt;Node6 -->
<g id="edge14_Node000033_Node000006" class="edge">
<title>Node33&#45;&gt;Node6</title>
<g id="a_edge14_Node000033_Node000006"><a xlink:title=" ">
<path fill="none" stroke="#63b8ff" d="M543.89,-165.41C542.9,-151.92 539.17,-126.3 525.25,-110.5 508.93,-91.96 483.45,-80.78 462.17,-74.25"/>
<polygon fill="#63b8ff" stroke="#63b8ff" points="463.21,-70.9 452.64,-71.57 461.32,-77.64 463.21,-70.9"/>
</a>
</g>
</g>
<!-- Node33&#45;&gt;Node9 -->
<g id="edge17_Node000033_Node000009" class="edge">
<title>Node33&#45;&gt;Node9</title>
<g id="a_edge17_Node000033_Node000009"><a xlink:title=" ">
<path fill="none" stroke="#63b8ff" d="M576.11,-165.26C598.45,-157.91 628.29,-146.09 651.25,-129.75 668.98,-117.13 685.08,-98.04 695.61,-84.02"/>
<polygon fill="#63b8ff" stroke="#63b8ff" points="698.32,-86.25 701.35,-76.09 692.65,-82.14 698.32,-86.25"/>
</a>
</g>
</g>
<!-- Node34 -->
<g id="Node000034" class="node">
<title>Node34</title>
<g id="a_Node000034"><a xlink:href="MixerChannelView_8h.html" target="_top" xlink:title=" ">
<polygon fill="white" stroke="#666666" points="516.12,-129.75 412.38,-129.75 412.38,-110.5 516.12,-110.5 516.12,-129.75"/>
<text xml:space="preserve" text-anchor="middle" x="464.25" y="-116.25" font-family="Helvetica,sans-Serif" font-size="10.00">MixerChannelView.h</text>
</a>
</g>
</g>
<!-- Node33&#45;&gt;Node34 -->
<g id="edge15_Node000033_Node000034" class="edge">
<title>Node33&#45;&gt;Node34</title>
<g id="a_edge15_Node000033_Node000034"><a xlink:title=" ">
<path fill="none" stroke="#63b8ff" d="M530.68,-165.34C518.84,-157.46 501.41,-145.86 487.38,-136.52"/>
<polygon fill="#63b8ff" stroke="#63b8ff" points="489.41,-133.67 479.15,-131.04 485.53,-139.5 489.41,-133.67"/>
</a>
</g>
</g>
<!-- Node22 -->
<g id="Node000022" class="node">
<title>Node22</title>
<g id="a_Node000022"><a xlink:href="SerializingObject_8h.html" target="_top" xlink:title=" ">
<polygon fill="#fff0f0" stroke="red" points="271.38,-74.5 175.12,-74.5 175.12,-55.25 271.38,-55.25 271.38,-74.5"/>
<text xml:space="preserve" text-anchor="middle" x="223.25" y="-61" font-family="Helvetica,sans-Serif" font-size="10.00">SerializingObject.h</text>
</a>
</g>
</g>
<!-- Node33&#45;&gt;Node22 -->
<g id="edge18_Node000033_Node000022" class="edge">
<title>Node33&#45;&gt;Node22</title>
<g id="a_edge18_Node000033_Node000022"><a xlink:title=" ">
<path fill="none" stroke="#63b8ff" d="M509.7,-175.03C434.22,-175.65 258.39,-172.38 221.25,-129.75 210.99,-117.98 212.62,-99.84 216.16,-85.89"/>
<polygon fill="#63b8ff" stroke="#63b8ff" points="219.48,-87.02 219.07,-76.43 212.79,-84.96 219.48,-87.02"/>
</a>
</g>
</g>
<!-- Node34&#45;&gt;Node6 -->
<g id="edge16_Node000034_Node000006" class="edge">
<title>Node34&#45;&gt;Node6</title>
<g id="a_edge16_Node000034_Node000006"><a xlink:title=" ">
<path fill="none" stroke="#63b8ff" d="M457.64,-110.33C452.29,-103.21 444.57,-92.93 437.9,-84.05"/>
<polygon fill="#63b8ff" stroke="#63b8ff" points="440.71,-81.96 431.91,-76.07 435.12,-86.17 440.71,-81.96"/>
</a>
</g>
</g>
<!-- Node22&#45;&gt;Node7 -->
<g id="edge19_Node000022_Node000007" class="edge">
<title>Node22&#45;&gt;Node7</title>
<g id="a_edge19_Node000022_Node000007"><a xlink:title=" ">
<path fill="none" stroke="#63b8ff" d="M271.5,-57.18C344.25,-47.1 481.44,-28.07 555.95,-17.74"/>
<polygon fill="#63b8ff" stroke="#63b8ff" points="556.43,-21.21 565.85,-16.37 555.47,-14.27 556.43,-21.21"/>
</a>
</g>
</g>
<!-- Node35&#45;&gt;Node7 -->
<g id="edge22_Node000035_Node000007" class="edge">
<title>Node35&#45;&gt;Node7</title>
<g id="a_edge22_Node000035_Node000007"><a xlink:title=" ">
<path fill="none" stroke="#63b8ff" d="M958.23,-220.65C947.65,-190.79 909.11,-94.43 840.25,-55.25 783.58,-23.01 707.9,-13.58 658.39,-11.08"/>
<polygon fill="#63b8ff" stroke="#63b8ff" points="658.66,-7.58 648.52,-10.66 658.36,-14.58 658.66,-7.58"/>
</a>
</g>
</g>
<!-- Node13 -->
<g id="Node000013" class="node">
<title>Node13</title>
<g id="a_Node000013"><a xlink:title=" ">
<polygon fill="#e0e0e0" stroke="#999999" points="1008.25,-185 956.25,-185 956.25,-165.75 1008.25,-165.75 1008.25,-185"/>
<text xml:space="preserve" text-anchor="middle" x="982.25" y="-171.5" font-family="Helvetica,sans-Serif" font-size="10.00">QObject</text>
</a>
</g>
</g>
<!-- Node35&#45;&gt;Node13 -->
<g id="edge21_Node000035_Node000013" class="edge">
<title>Node35&#45;&gt;Node13</title>
<g id="a_edge21_Node000035_Node000013"><a xlink:title=" ">
<path fill="none" stroke="#63b8ff" d="M964.72,-220.83C967.38,-214.09 971.15,-204.52 974.51,-195.99"/>
<polygon fill="#63b8ff" stroke="#63b8ff" points="977.74,-197.35 978.15,-186.77 971.23,-194.79 977.74,-197.35"/>
</a>
</g>
</g>
<!-- Node36 -->
<g id="Node000036" class="node">
<title>Node36</title>
<g id="a_Node000036"><a xlink:title=" ">
<polygon fill="#e0e0e0" stroke="#999999" points="1099.75,-185 1026.75,-185 1026.75,-165.75 1099.75,-165.75 1099.75,-185"/>
<text xml:space="preserve" text-anchor="middle" x="1063.25" y="-171.5" font-family="Helvetica,sans-Serif" font-size="10.00">lmmsconfig.h</text>
</a>
</g>
</g>
<!-- Node35&#45;&gt;Node36 -->
<g id="edge23_Node000035_Node000036" class="edge">
<title>Node35&#45;&gt;Node36</title>
<g id="a_edge23_Node000035_Node000036"><a xlink:title=" ">
<path fill="none" stroke="#63b8ff" d="M978.55,-220.59C994.23,-212.41 1017.6,-200.21 1035.83,-190.69"/>
<polygon fill="#63b8ff" stroke="#63b8ff" points="1037.28,-193.88 1044.52,-186.15 1034.04,-187.68 1037.28,-193.88"/>
</a>
</g>
</g>
<!-- Node37&#45;&gt;Node6 -->
<g id="edge25_Node000037_Node000006" class="edge">
<title>Node37&#45;&gt;Node6</title>
<g id="a_edge25_Node000037_Node000006"><a xlink:title=" ">
<path fill="none" stroke="#63b8ff" d="M367.71,-220.52C373.25,-200.39 387.45,-150.71 403.25,-110.5 406.57,-102.04 410.75,-92.92 414.5,-85.15"/>
<polygon fill="#63b8ff" stroke="#63b8ff" points="417.58,-86.82 418.88,-76.31 411.31,-83.72 417.58,-86.82"/>
</a>
</g>
</g>
<!-- Node37&#45;&gt;Node9 -->
<g id="edge28_Node000037_Node000009" class="edge">
<title>Node37&#45;&gt;Node9</title>
<g id="a_edge28_Node000037_Node000009"><a xlink:title=" ">
<path fill="none" stroke="#63b8ff" d="M400.57,-226.45C445.32,-221.55 524.2,-209.96 587.25,-185 630.54,-167.86 644.86,-164.14 676.25,-129.75 688.02,-116.85 696.52,-98.83 701.79,-85.21"/>
<polygon fill="#63b8ff" stroke="#63b8ff" points="705,-86.64 705.08,-76.05 698.41,-84.28 705,-86.64"/>
</a>
</g>
</g>
<!-- Node17 -->
<g id="Node000017" class="node">
<title>Node17</title>
<g id="a_Node000017"><a xlink:href="JournallingObject_8h.html" target="_top" xlink:title=" ">
<polygon fill="#fff0f0" stroke="red" points="98.5,-129.75 0,-129.75 0,-110.5 98.5,-110.5 98.5,-129.75"/>
<text xml:space="preserve" text-anchor="middle" x="49.25" y="-116.25" font-family="Helvetica,sans-Serif" font-size="10.00">JournallingObject.h</text>
</a>
</g>
</g>
<!-- Node37&#45;&gt;Node17 -->
<g id="edge26_Node000037_Node000017" class="edge">
<title>Node37&#45;&gt;Node17</title>
<g id="a_edge26_Node000037_Node000017"><a xlink:title=" ">
<path fill="none" stroke="#63b8ff" d="M329.91,-227.85C263.51,-223.9 123.27,-212.48 84.25,-185 69.23,-174.42 59.98,-155.27 54.8,-140.69"/>
<polygon fill="#63b8ff" stroke="#63b8ff" points="58.16,-139.73 51.81,-131.25 51.49,-141.84 58.16,-139.73"/>
</a>
</g>
</g>
<!-- Node38 -->
<g id="Node000038" class="node">
<title>Node38</title>
<g id="a_Node000038"><a xlink:href="TrackContentWidget_8h.html" target="_top" xlink:title=" ">
<polygon fill="white" stroke="#666666" points="205.25,-185 93.25,-185 93.25,-165.75 205.25,-165.75 205.25,-185"/>
<text xml:space="preserve" text-anchor="middle" x="149.25" y="-171.5" font-family="Helvetica,sans-Serif" font-size="10.00">TrackContentWidget.h</text>
</a>
</g>
</g>
<!-- Node37&#45;&gt;Node38 -->
<g id="edge29_Node000037_Node000038" class="edge">
<title>Node37&#45;&gt;Node38</title>
<g id="a_edge29_Node000037_Node000038"><a xlink:title=" ">
<path fill="none" stroke="#63b8ff" d="M330.07,-220.95C293.97,-212.05 237.58,-198.15 197.37,-188.24"/>
<polygon fill="#63b8ff" stroke="#63b8ff" points="198.25,-184.85 187.7,-185.85 196.57,-191.65 198.25,-184.85"/>
</a>
</g>
</g>
<!-- Node39 -->
<g id="Node000039" class="node">
<title>Node39</title>
<g id="a_Node000039"><a xlink:href="TrackOperationsWidget_8h.html" target="_top" xlink:title=" ">
<polygon fill="white" stroke="#666666" points="356,-129.75 230.5,-129.75 230.5,-110.5 356,-110.5 356,-129.75"/>
<text xml:space="preserve" text-anchor="middle" x="293.25" y="-116.25" font-family="Helvetica,sans-Serif" font-size="10.00">TrackOperationsWidget.h</text>
</a>
</g>
</g>
<!-- Node37&#45;&gt;Node39 -->
<g id="edge34_Node000037_Node000039" class="edge">
<title>Node37&#45;&gt;Node39</title>
<g id="a_edge34_Node000037_Node000039"><a xlink:title=" ">
<path fill="none" stroke="#63b8ff" d="M359.36,-220.75C347.65,-203.1 321.24,-163.3 305.57,-139.7"/>
<polygon fill="#63b8ff" stroke="#63b8ff" points="308.51,-137.78 300.06,-131.39 302.67,-141.66 308.51,-137.78"/>
</a>
</g>
</g>
<!-- Node17&#45;&gt;Node22 -->
<g id="edge27_Node000017_Node000022" class="edge">
<title>Node17&#45;&gt;Node22</title>
<g id="a_edge27_Node000017_Node000022"><a xlink:title=" ">
<path fill="none" stroke="#63b8ff" d="M78.77,-110.09C107.39,-101.33 151.03,-87.98 182.87,-78.23"/>
<polygon fill="#63b8ff" stroke="#63b8ff" points="183.6,-81.67 192.14,-75.4 181.55,-74.98 183.6,-81.67"/>
</a>
</g>
</g>
<!-- Node38&#45;&gt;Node6 -->
<g id="edge30_Node000038_Node000006" class="edge">
<title>Node38&#45;&gt;Node6</title>
<g id="a_edge30_Node000038_Node000006"><a xlink:title=" ">
<path fill="none" stroke="#63b8ff" d="M156.63,-165.37C168.64,-151.35 193.85,-124.45 221.25,-110.5 274.34,-83.47 343.38,-72.74 385.72,-68.53"/>
<polygon fill="#63b8ff" stroke="#63b8ff" points="386.03,-72.02 395.67,-67.63 385.39,-65.05 386.03,-72.02"/>
</a>
</g>
</g>
<!-- Node38&#45;&gt;Node17 -->
<g id="edge31_Node000038_Node000017" class="edge">
<title>Node38&#45;&gt;Node17</title>
<g id="a_edge31_Node000038_Node000017"><a xlink:title=" ">
<path fill="none" stroke="#63b8ff" d="M132.29,-165.34C116.99,-157.19 94.22,-145.07 76.39,-135.58"/>
<polygon fill="#63b8ff" stroke="#63b8ff" points="78.1,-132.52 67.63,-130.91 74.81,-138.7 78.1,-132.52"/>
</a>
</g>
</g>
<!-- Node23 -->
<g id="Node000023" class="node">
<title>Node23</title>
<g id="a_Node000023"><a xlink:href="TimePos_8h.html" target="_top" xlink:title=" ">
<polygon fill="#fff0f0" stroke="red" points="157.5,-74.5 95,-74.5 95,-55.25 157.5,-55.25 157.5,-74.5"/>
<text xml:space="preserve" text-anchor="middle" x="126.25" y="-61" font-family="Helvetica,sans-Serif" font-size="10.00">TimePos.h</text>
</a>
</g>
</g>
<!-- Node38&#45;&gt;Node23 -->
<g id="edge32_Node000038_Node000023" class="edge">
<title>Node38&#45;&gt;Node23</title>
<g id="a_edge32_Node000038_Node000023"><a xlink:title=" ">
<path fill="none" stroke="#63b8ff" d="M147.37,-165.5C143.71,-148.25 135.57,-109.83 130.53,-86.06"/>
<polygon fill="#63b8ff" stroke="#63b8ff" points="133.97,-85.41 128.47,-76.36 127.12,-86.87 133.97,-85.41"/>
</a>
</g>
</g>
<!-- Node23&#45;&gt;Node7 -->
<g id="edge33_Node000023_Node000007" class="edge">
<title>Node23&#45;&gt;Node7</title>
<g id="a_edge33_Node000023_Node000007"><a xlink:title=" ">
<path fill="none" stroke="#63b8ff" d="M157.63,-56.76C160.54,-56.21 163.44,-55.69 166.25,-55.25 306.58,-33.09 473.86,-19.68 556.24,-13.93"/>
<polygon fill="#63b8ff" stroke="#63b8ff" points="556.28,-17.44 566.02,-13.26 555.8,-10.45 556.28,-17.44"/>
</a>
</g>
</g>
<!-- Node39&#45;&gt;Node6 -->
<g id="edge35_Node000039_Node000006" class="edge">
<title>Node39&#45;&gt;Node6</title>
<g id="a_edge35_Node000039_Node000006"><a xlink:title=" ">
<path fill="none" stroke="#63b8ff" d="M315.47,-110.09C336.27,-101.64 367.6,-88.9 391.3,-79.27"/>
<polygon fill="#63b8ff" stroke="#63b8ff" points="392.57,-82.53 400.52,-75.52 389.93,-76.05 392.57,-82.53"/>
</a>
</g>
</g>
</g>
</svg>

<g id="navigator" transform="translate(0 0)" fill="#404254">
  <rect fill="#f2f5e9" fill-opacity="0.5" stroke="#606060" stroke-width=".5" x="0" y="0" width="60" height="60"/>
  <use id="zoomplus" xlink:href="#zoomPlus" x="17" y="9" onmousedown="handleZoom(evt,'in')"/>
  <use id="zoomminus" xlink:href="#zoomMin" x="42" y="9" onmousedown="handleZoom(evt,'out')"/>
  <use id="reset" xlink:href="#resetDef" x="30" y="36" onmousedown="handleReset()"/>
   <use id="arrowup" xlink:href="#arrowUp" x="0" y="0" onmousedown="handlePan(0,-1)"/>
  <use id="arrowright" xlink:href="#arrowRight" x="0" y="0" onmousedown="handlePan(1,0)"/>
  <use id="arrowdown" xlink:href="#arrowDown" x="0" y="0" onmousedown="handlePan(0,1)"/>
  <use id="arrowleft" xlink:href="#arrowLeft" x="0" y="0" onmousedown="handlePan(-1,0)"/>
</g>
<svg viewBox="0 0 15 15" width="100%" height="30px" preserveAspectRatio="xMaxYMin meet">
 <g id="arrow_out" transform="scale(0.3 0.3)">
  <a xlink:href="MixerChannelLcdSpinBox_8cpp__incl_org.svg" target="_base">
   <rect id="button" ry="5" rx="5" y="6" x="6" height="38" width="38"
        fill="#f2f5e9" fill-opacity="0.5" stroke="#606060" stroke-width="1.0"/>
   <path id="arrow"
     d="M 11.500037,31.436501 C 11.940474,20.09759 22.043105,11.32322 32.158766,21.979434 L 37.068811,17.246167 C 37.068811,17.246167 37.088388,32 37.088388,32 L 22.160133,31.978069 C 22.160133,31.978069 26.997745,27.140456 26.997745,27.140456 C 18.528582,18.264221 13.291696,25.230495 11.500037,31.436501 z"
     style="fill:#404040;"/>
  </a>
 </g>
</svg>

<style type='text/css'>
<![CDATA[
[data-mouse-over-selected='false'] { opacity: 0.7; }
[data-mouse-over-selected='true']  { opacity: 1.0; }
]]>
</style>
<script type="application/ecmascript"><![CDATA[
document.addEventListener('DOMContentLoaded', (event) => {
  highlightEdges();
  highlightAdjacentNodes();
});
]]></script>
</svg>
