<?xml version="1.0" encoding="UTF-8" standalone="no"?>
<!DOCTYPE svg PUBLIC "-//W3C//DTD SVG 1.1//EN"
 "http://www.w3.org/Graphics/SVG/1.1/DTD/svg11.dtd">
<!-- Generated by graphviz version 14.0.2 (0)
 -->
<!-- Title: exprtk::details::is_letter_or_digit Pages: 1 -->
<svg width="542pt" height="137pt"
 viewBox="0.00 0.00 542.00 137.00" xmlns="http://www.w3.org/2000/svg" xmlns:xlink="http://www.w3.org/1999/xlink">
<g id="graph0" class="graph" transform="scale(1 1) rotate(0) translate(4 132.5)">
<title>exprtk::details::is_letter_or_digit</title>
<!-- Node1 -->
<g id="Node000001" class="node">
<title>Node1</title>
<g id="a_Node000001"><a xlink:title=" ">
<polygon fill="#999999" stroke="#666666" points="534.25,-79.5 447,-79.5 447,-49 534.25,-49 534.25,-79.5"/>
<text xml:space="preserve" text-anchor="start" x="455" y="-66" font-family="Helvetica,sans-Serif" font-size="10.00">exprtk::details::is</text>
<text xml:space="preserve" text-anchor="middle" x="490.62" y="-54.75" font-family="Helvetica,sans-Serif" font-size="10.00">_letter_or_digit</text>
</a>
</g>
</g>
<!-- Node2 -->
<g id="Node000002" class="node">
<title>Node2</title>
<g id="a_Node000002"><a xlink:href="classexprtk_1_1lexer_1_1generator.html#a3b851f1112067bbb0483920fd635fe87" target="_top" xlink:title=" ">
<polygon fill="white" stroke="#666666" points="409.5,-128.5 297.5,-128.5 297.5,-98 409.5,-98 409.5,-128.5"/>
<text xml:space="preserve" text-anchor="start" x="305.5" y="-115" font-family="Helvetica,sans-Serif" font-size="10.00">exprtk::lexer::generator</text>
<text xml:space="preserve" text-anchor="middle" x="353.5" y="-103.75" font-family="Helvetica,sans-Serif" font-size="10.00">::scan_symbol</text>
</a>
</g>
</g>
<!-- Node1&#45;&gt;Node2 -->
<g id="edge1_Node000001_Node000002" class="edge">
<title>Node1&#45;&gt;Node2</title>
<g id="a_edge1_Node000001_Node000002"><a xlink:title=" ">
<path fill="none" stroke="#63b8ff" d="M436.37,-83.56C423.62,-88.19 410.15,-93.07 397.91,-97.51"/>
<polygon fill="#63b8ff" stroke="#63b8ff" points="437.24,-86.97 445.45,-80.27 434.85,-80.39 437.24,-86.97"/>
</a>
</g>
</g>
<!-- Node5 -->
<g id="Node000005" class="node">
<title>Node5</title>
<g id="a_Node000005"><a xlink:href="classexprtk_1_1symbol__table.html#a7e3f2991ff98a28fb5cbbe1c07640e40" target="_top" xlink:title=" ">
<polygon fill="white" stroke="#666666" points="411,-79.5 296,-79.5 296,-49 411,-49 411,-79.5"/>
<text xml:space="preserve" text-anchor="start" x="304" y="-66" font-family="Helvetica,sans-Serif" font-size="10.00">exprtk::symbol_table</text>
<text xml:space="preserve" text-anchor="middle" x="353.5" y="-54.75" font-family="Helvetica,sans-Serif" font-size="10.00">&lt; float &gt;::valid_function</text>
</a>
</g>
</g>
<!-- Node1&#45;&gt;Node5 -->
<g id="edge4_Node000001_Node000005" class="edge">
<title>Node1&#45;&gt;Node5</title>
<g id="a_edge4_Node000001_Node000005"><a xlink:title=" ">
<path fill="none" stroke="#63b8ff" d="M435.47,-64.25C427.52,-64.25 419.31,-64.25 411.32,-64.25"/>
<polygon fill="#63b8ff" stroke="#63b8ff" points="435.36,-67.75 445.36,-64.25 435.36,-60.75 435.36,-67.75"/>
</a>
</g>
</g>
<!-- Node6 -->
<g id="Node000006" class="node">
<title>Node6</title>
<g id="a_Node000006"><a xlink:href="classexprtk_1_1symbol__table.html#a5a66b1fa4c07dbcba6c76142f58142cd" target="_top" xlink:title=" ">
<polygon fill="white" stroke="#666666" points="409.12,-30.5 297.88,-30.5 297.88,0 409.12,0 409.12,-30.5"/>
<text xml:space="preserve" text-anchor="start" x="305.88" y="-17" font-family="Helvetica,sans-Serif" font-size="10.00">exprtk::symbol_table</text>
<text xml:space="preserve" text-anchor="middle" x="353.5" y="-5.75" font-family="Helvetica,sans-Serif" font-size="10.00">&lt; float &gt;::valid_symbol</text>
</a>
</g>
</g>
<!-- Node1&#45;&gt;Node6 -->
<g id="edge5_Node000001_Node000006" class="edge">
<title>Node1&#45;&gt;Node6</title>
<g id="a_edge5_Node000001_Node000006"><a xlink:title=" ">
<path fill="none" stroke="#63b8ff" d="M436.37,-44.94C423.62,-40.31 410.15,-35.43 397.91,-30.99"/>
<polygon fill="#63b8ff" stroke="#63b8ff" points="434.85,-48.11 445.45,-48.23 437.24,-41.53 434.85,-48.11"/>
</a>
</g>
</g>
<!-- Node3 -->
<g id="Node000003" class="node">
<title>Node3</title>
<g id="a_Node000003"><a xlink:href="classexprtk_1_1lexer_1_1generator.html#afb89d25b5a9ec6f1ac1787084930dd1c" target="_top" xlink:title=" ">
<polygon fill="white" stroke="#666666" points="260,-128.5 148,-128.5 148,-98 260,-98 260,-128.5"/>
<text xml:space="preserve" text-anchor="start" x="156" y="-115" font-family="Helvetica,sans-Serif" font-size="10.00">exprtk::lexer::generator</text>
<text xml:space="preserve" text-anchor="middle" x="204" y="-103.75" font-family="Helvetica,sans-Serif" font-size="10.00">::scan_token</text>
</a>
</g>
</g>
<!-- Node2&#45;&gt;Node3 -->
<g id="edge2_Node000002_Node000003" class="edge">
<title>Node2&#45;&gt;Node3</title>
<g id="a_edge2_Node000002_Node000003"><a xlink:title=" ">
<path fill="none" stroke="#63b8ff" d="M285.65,-113.25C277.13,-113.25 268.48,-113.25 260.16,-113.25"/>
<polygon fill="#63b8ff" stroke="#63b8ff" points="285.64,-116.75 295.64,-113.25 285.64,-109.75 285.64,-116.75"/>
</a>
</g>
</g>
<!-- Node4 -->
<g id="Node000004" class="node">
<title>Node4</title>
<g id="a_Node000004"><a xlink:href="classexprtk_1_1lexer_1_1generator.html#a6c8037f712a5421660c1022ba9eb91e2" target="_top" xlink:title=" ">
<polygon fill="white" stroke="#666666" points="112,-128.5 0,-128.5 0,-98 112,-98 112,-128.5"/>
<text xml:space="preserve" text-anchor="start" x="8" y="-115" font-family="Helvetica,sans-Serif" font-size="10.00">exprtk::lexer::generator</text>
<text xml:space="preserve" text-anchor="middle" x="56" y="-103.75" font-family="Helvetica,sans-Serif" font-size="10.00">::process</text>
</a>
</g>
</g>
<!-- Node3&#45;&gt;Node4 -->
<g id="edge3_Node000003_Node000004" class="edge">
<title>Node3&#45;&gt;Node4</title>
<g id="a_edge3_Node000003_Node000004"><a xlink:title=" ">
<path fill="none" stroke="#63b8ff" d="M136.47,-113.25C128.38,-113.25 120.18,-113.25 112.27,-113.25"/>
<polygon fill="#63b8ff" stroke="#63b8ff" points="136.29,-116.75 146.29,-113.25 136.29,-109.75 136.29,-116.75"/>
</a>
</g>
</g>
</g>
</svg>
