<?xml version="1.0" encoding="UTF-8" standalone="no"?>
<!DOCTYPE svg PUBLIC "-//W3C//DTD SVG 1.1//EN"
 "http://www.w3.org/Graphics/SVG/1.1/DTD/svg11.dtd">
<!-- Generated by graphviz version 14.0.2 (0)
 -->
<!-- Title: juce::WasapiClasses::isExclusiveMode Pages: 1 -->
<svg width="801pt" height="416pt"
 viewBox="0.00 0.00 801.00 416.00" xmlns="http://www.w3.org/2000/svg" xmlns:xlink="http://www.w3.org/1999/xlink">
<g id="graph0" class="graph" transform="scale(1 1) rotate(0) translate(4 412.1)">
<title>juce::WasapiClasses::isExclusiveMode</title>
<!-- Node1 -->
<g id="Node000001" class="node">
<title>Node1</title>
<g id="a_Node000001"><a xlink:title=" ">
<polygon fill="#999999" stroke="#666666" points="793.25,-212.47 687.25,-212.47 687.25,-181.97 793.25,-181.97 793.25,-212.47"/>
<text xml:space="preserve" text-anchor="start" x="695.25" y="-198.97" font-family="Helvetica,sans-Serif" font-size="10.00">juce::WasapiClasses</text>
<text xml:space="preserve" text-anchor="middle" x="740.25" y="-187.72" font-family="Helvetica,sans-Serif" font-size="10.00">::isExclusiveMode</text>
</a>
</g>
</g>
<!-- Node1&#45;&gt;Node1 -->
<g id="edge8_Node000001_Node000001" class="edge">
<title>Node1&#45;&gt;Node1</title>
<g id="a_edge8_Node000001_Node000001"><a xlink:title=" ">
<path fill="none" stroke="#63b8ff" d="M769.09,-224.17C764.38,-227.95 754.76,-230.47 740.25,-230.47 713.71,-230.47 703.55,-222.03 709.77,-212.96"/>
<polygon fill="#63b8ff" stroke="#63b8ff" points="772.53,-224.85 770.51,-214.45 765.61,-223.85 772.53,-224.85"/>
</a>
</g>
</g>
<!-- Node2 -->
<g id="Node000002" class="node">
<title>Node2</title>
<g id="a_Node000002"><a xlink:href="classjuce_1_1WasapiClasses_1_1WASAPIOutputDevice.html#a69a60e37b7a19b918e4f78e89efae599" target="_top" xlink:title=" ">
<polygon fill="white" stroke="#666666" points="446.25,-408.1 327.5,-408.1 327.5,-366.35 446.25,-366.35 446.25,-408.1"/>
<text xml:space="preserve" text-anchor="start" x="335.5" y="-394.6" font-family="Helvetica,sans-Serif" font-size="10.00">juce::WasapiClasses</text>
<text xml:space="preserve" text-anchor="start" x="335.5" y="-383.35" font-family="Helvetica,sans-Serif" font-size="10.00">::WASAPIOutputDevice</text>
<text xml:space="preserve" text-anchor="middle" x="386.88" y="-372.1" font-family="Helvetica,sans-Serif" font-size="10.00">::copyBuffers</text>
</a>
</g>
</g>
<!-- Node1&#45;&gt;Node2 -->
<g id="edge1_Node000001_Node000002" class="edge">
<title>Node1&#45;&gt;Node2</title>
<g id="a_edge1_Node000001_Node000002"><a xlink:title=" ">
<path fill="none" stroke="#63b8ff" d="M732.89,-223.57C722.54,-260.23 698.29,-325.68 651.25,-357.22 590.48,-397.97 503.6,-399.68 446.48,-395.12"/>
<polygon fill="#63b8ff" stroke="#63b8ff" points="736.19,-224.78 735.38,-214.22 729.42,-222.98 736.19,-224.78"/>
</a>
</g>
</g>
<!-- Node3 -->
<g id="Node000003" class="node">
<title>Node3</title>
<g id="a_Node000003"><a xlink:href="classjuce_1_1WasapiClasses_1_1WASAPIOutputDevice.html#a6d65a0353a4979c5c9d0e767077610bf" target="_top" xlink:title=" ">
<polygon fill="white" stroke="#666666" points="651.25,-348.1 485.25,-348.1 485.25,-306.35 651.25,-306.35 651.25,-348.1"/>
<text xml:space="preserve" text-anchor="start" x="493.25" y="-334.6" font-family="Helvetica,sans-Serif" font-size="10.00">juce::WasapiClasses</text>
<text xml:space="preserve" text-anchor="start" x="493.25" y="-323.35" font-family="Helvetica,sans-Serif" font-size="10.00">::WASAPIOutputDevice</text>
<text xml:space="preserve" text-anchor="middle" x="568.25" y="-312.1" font-family="Helvetica,sans-Serif" font-size="10.00">::getNumSamplesAvailableToCopy</text>
</a>
</g>
</g>
<!-- Node1&#45;&gt;Node3 -->
<g id="edge2_Node000001_Node000003" class="edge">
<title>Node1&#45;&gt;Node3</title>
<g id="a_edge2_Node000001_Node000003"><a xlink:title=" ">
<path fill="none" stroke="#63b8ff" d="M717.63,-220.86C700.62,-238.69 675.77,-263.09 651.25,-281.22 639.04,-290.25 624.88,-298.79 611.8,-306"/>
<polygon fill="#63b8ff" stroke="#63b8ff" points="719.98,-223.48 724.28,-213.8 714.88,-218.68 719.98,-223.48"/>
</a>
</g>
</g>
<!-- Node5 -->
<g id="Node000005" class="node">
<title>Node5</title>
<g id="a_Node000005"><a xlink:href="classjuce_1_1WasapiClasses_1_1WASAPIDeviceBase.html#acffd8a56bc47117f16e89ecb3d8019e1" target="_top" xlink:title=" ">
<polygon fill="white" stroke="#666666" points="445.12,-288.1 328.62,-288.1 328.62,-246.35 445.12,-246.35 445.12,-288.1"/>
<text xml:space="preserve" text-anchor="start" x="336.62" y="-274.6" font-family="Helvetica,sans-Serif" font-size="10.00">juce::WasapiClasses</text>
<text xml:space="preserve" text-anchor="start" x="336.62" y="-263.35" font-family="Helvetica,sans-Serif" font-size="10.00">::WASAPIDeviceBase::</text>
<text xml:space="preserve" text-anchor="middle" x="386.88" y="-252.1" font-family="Helvetica,sans-Serif" font-size="10.00">initialiseStandardClient</text>
</a>
</g>
</g>
<!-- Node1&#45;&gt;Node5 -->
<g id="edge5_Node000001_Node000005" class="edge">
<title>Node1&#45;&gt;Node5</title>
<g id="a_edge5_Node000001_Node000005"><a xlink:title=" ">
<path fill="none" stroke="#63b8ff" d="M708.98,-219.37C692.7,-230.05 671.79,-241.9 651.25,-248.22 582.79,-269.3 499.78,-271.72 445.49,-270.41"/>
<polygon fill="#63b8ff" stroke="#63b8ff" points="710.91,-222.29 717.22,-213.78 706.98,-216.5 710.91,-222.29"/>
</a>
</g>
</g>
<!-- Node10 -->
<g id="Node000010" class="node">
<title>Node10</title>
<g id="a_Node000010"><a xlink:href="classjuce_1_1WasapiClasses_1_1WASAPIAudioIODevice.html#a7b469375ba5c1974cd7e4536c4c1add9" target="_top" xlink:title=" ">
<polygon fill="white" stroke="#666666" points="643.38,-239.47 493.12,-239.47 493.12,-208.97 643.38,-208.97 643.38,-239.47"/>
<text xml:space="preserve" text-anchor="start" x="501.12" y="-225.97" font-family="Helvetica,sans-Serif" font-size="10.00">juce::WasapiClasses</text>
<text xml:space="preserve" text-anchor="middle" x="568.25" y="-214.72" font-family="Helvetica,sans-Serif" font-size="10.00">::WASAPIAudioIODevice::open</text>
</a>
</g>
</g>
<!-- Node1&#45;&gt;Node10 -->
<g id="edge9_Node000001_Node000010" class="edge">
<title>Node1&#45;&gt;Node10</title>
<g id="a_edge9_Node000001_Node000010"><a xlink:title=" ">
<path fill="none" stroke="#63b8ff" d="M675.73,-207.31C665.27,-208.97 654.35,-210.71 643.66,-212.4"/>
<polygon fill="#63b8ff" stroke="#63b8ff" points="676.04,-210.8 685.36,-205.78 674.94,-203.89 676.04,-210.8"/>
</a>
</g>
</g>
<!-- Node12 -->
<g id="Node000012" class="node">
<title>Node12</title>
<g id="a_Node000012"><a xlink:href="classjuce_1_1WasapiClasses_1_1WASAPIDeviceBase.html#aa1a5157260a6cf3f570b03fa272c4493" target="_top" xlink:title=" ">
<polygon fill="white" stroke="#666666" points="639.25,-131.1 497.25,-131.1 497.25,-89.35 639.25,-89.35 639.25,-131.1"/>
<text xml:space="preserve" text-anchor="start" x="505.25" y="-117.6" font-family="Helvetica,sans-Serif" font-size="10.00">juce::WasapiClasses</text>
<text xml:space="preserve" text-anchor="start" x="505.25" y="-106.35" font-family="Helvetica,sans-Serif" font-size="10.00">::WASAPIDeviceBase::</text>
<text xml:space="preserve" text-anchor="middle" x="568.25" y="-95.1" font-family="Helvetica,sans-Serif" font-size="10.00">querySupportedSampleRates</text>
</a>
</g>
</g>
<!-- Node1&#45;&gt;Node12 -->
<g id="edge11_Node000001_Node000012" class="edge">
<title>Node1&#45;&gt;Node12</title>
<g id="a_edge11_Node000001_Node000012"><a xlink:title=" ">
<path fill="none" stroke="#63b8ff" d="M708.85,-175.11C692.34,-163.74 671.27,-150.21 651.25,-140.22 645.15,-137.18 638.65,-134.27 632.1,-131.56"/>
<polygon fill="#63b8ff" stroke="#63b8ff" points="706.56,-177.78 716.76,-180.65 710.57,-172.05 706.56,-177.78"/>
</a>
</g>
</g>
<!-- Node13 -->
<g id="Node000013" class="node">
<title>Node13</title>
<g id="a_Node000013"><a xlink:href="classjuce_1_1WasapiClasses_1_1WASAPIDeviceBase.html#abc3a8482148124d2722d56a799577297" target="_top" xlink:title=" ">
<polygon fill="white" stroke="#666666" points="279.88,-119.1 163.38,-119.1 163.38,-77.35 279.88,-77.35 279.88,-119.1"/>
<text xml:space="preserve" text-anchor="start" x="171.38" y="-105.6" font-family="Helvetica,sans-Serif" font-size="10.00">juce::WasapiClasses</text>
<text xml:space="preserve" text-anchor="start" x="171.38" y="-94.35" font-family="Helvetica,sans-Serif" font-size="10.00">::WASAPIDeviceBase::</text>
<text xml:space="preserve" text-anchor="middle" x="221.62" y="-83.1" font-family="Helvetica,sans-Serif" font-size="10.00">WASAPIDeviceBase</text>
</a>
</g>
</g>
<!-- Node1&#45;&gt;Node13 -->
<g id="edge21_Node000001_Node000013" class="edge">
<title>Node1&#45;&gt;Node13</title>
<g id="a_edge21_Node000001_Node000013"><a xlink:title=" ">
<path fill="none" stroke="#63b8ff" d="M733.9,-170.44C724.61,-131.96 701.47,-62.35 651.25,-32.22 524.39,43.9 339.74,-35.72 260.77,-76.85"/>
<polygon fill="#63b8ff" stroke="#63b8ff" points="730.45,-171.06 736.07,-180.05 737.28,-169.53 730.45,-171.06"/>
</a>
</g>
</g>
<!-- Node17 -->
<g id="Node000017" class="node">
<title>Node17</title>
<g id="a_Node000017"><a xlink:href="classjuce_1_1WasapiClasses_1_1WASAPIAudioIODevice.html#a7a510ad6681d730e67bb26e31be1ab7f" target="_top" xlink:title=" ">
<polygon fill="white" stroke="#666666" points="639.62,-71.47 496.88,-71.47 496.88,-40.97 639.62,-40.97 639.62,-71.47"/>
<text xml:space="preserve" text-anchor="start" x="504.88" y="-57.97" font-family="Helvetica,sans-Serif" font-size="10.00">juce::WasapiClasses</text>
<text xml:space="preserve" text-anchor="middle" x="568.25" y="-46.72" font-family="Helvetica,sans-Serif" font-size="10.00">::WASAPIAudioIODevice::run</text>
</a>
</g>
</g>
<!-- Node1&#45;&gt;Node17 -->
<g id="edge16_Node000001_Node000017" class="edge">
<title>Node1&#45;&gt;Node17</title>
<g id="a_edge16_Node000001_Node000017"><a xlink:title=" ">
<path fill="none" stroke="#63b8ff" d="M726.46,-171.68C711.83,-145.02 685.42,-103.86 651.25,-80.22 646.61,-77.01 641.55,-74.23 636.28,-71.81"/>
<polygon fill="#63b8ff" stroke="#63b8ff" points="723.34,-173.27 731.12,-180.46 729.52,-169.98 723.34,-173.27"/>
</a>
</g>
</g>
<!-- Node18 -->
<g id="Node000018" class="node">
<title>Node18</title>
<g id="a_Node000018"><a xlink:href="classjuce_1_1WasapiClasses_1_1WASAPIDeviceBase.html#aee3be44c54a71b540f425e92041a495c" target="_top" xlink:title=" ">
<polygon fill="white" stroke="#666666" points="626.5,-191.1 510,-191.1 510,-149.35 626.5,-149.35 626.5,-191.1"/>
<text xml:space="preserve" text-anchor="start" x="518" y="-177.6" font-family="Helvetica,sans-Serif" font-size="10.00">juce::WasapiClasses</text>
<text xml:space="preserve" text-anchor="start" x="518" y="-166.35" font-family="Helvetica,sans-Serif" font-size="10.00">::WASAPIDeviceBase::</text>
<text xml:space="preserve" text-anchor="middle" x="568.25" y="-155.1" font-family="Helvetica,sans-Serif" font-size="10.00">tryFormat</text>
</a>
</g>
</g>
<!-- Node1&#45;&gt;Node18 -->
<g id="edge17_Node000001_Node000018" class="edge">
<title>Node1&#45;&gt;Node18</title>
<g id="a_edge17_Node000001_Node000018"><a xlink:title=" ">
<path fill="none" stroke="#63b8ff" d="M675.92,-187.16C659.81,-184.6 642.59,-181.87 626.8,-179.36"/>
<polygon fill="#63b8ff" stroke="#63b8ff" points="674.94,-190.55 685.36,-188.66 676.04,-183.64 674.94,-190.55"/>
</a>
</g>
</g>
<!-- Node3&#45;&gt;Node2 -->
<g id="edge3_Node000003_Node000002" class="edge">
<title>Node3&#45;&gt;Node2</title>
<g id="a_edge3_Node000003_Node000002"><a xlink:title=" ">
<path fill="none" stroke="#63b8ff" d="M492.93,-352.08C477.49,-357.25 461.42,-362.62 446.62,-367.57"/>
<polygon fill="#63b8ff" stroke="#63b8ff" points="493.7,-355.52 502.07,-349.02 491.47,-348.88 493.7,-355.52"/>
</a>
</g>
</g>
<!-- Node4 -->
<g id="Node000004" class="node">
<title>Node4</title>
<g id="a_Node000004"><a xlink:href="classjuce_1_1WasapiClasses_1_1WASAPIOutputDevice.html#af533a0be8a9c7a08ca3635c95ce876e6" target="_top" xlink:title=" ">
<polygon fill="white" stroke="#666666" points="446.25,-348.1 327.5,-348.1 327.5,-306.35 446.25,-306.35 446.25,-348.1"/>
<text xml:space="preserve" text-anchor="start" x="335.5" y="-334.6" font-family="Helvetica,sans-Serif" font-size="10.00">juce::WasapiClasses</text>
<text xml:space="preserve" text-anchor="start" x="335.5" y="-323.35" font-family="Helvetica,sans-Serif" font-size="10.00">::WASAPIOutputDevice</text>
<text xml:space="preserve" text-anchor="middle" x="386.88" y="-312.1" font-family="Helvetica,sans-Serif" font-size="10.00">::start</text>
</a>
</g>
</g>
<!-- Node3&#45;&gt;Node4 -->
<g id="edge4_Node000003_Node000004" class="edge">
<title>Node3&#45;&gt;Node4</title>
<g id="a_edge4_Node000003_Node000004"><a xlink:title=" ">
<path fill="none" stroke="#63b8ff" d="M473.4,-327.22C464.32,-327.22 455.29,-327.22 446.69,-327.22"/>
<polygon fill="#63b8ff" stroke="#63b8ff" points="473.4,-330.72 483.4,-327.22 473.4,-323.72 473.4,-330.72"/>
</a>
</g>
</g>
<!-- Node6 -->
<g id="Node000006" class="node">
<title>Node6</title>
<g id="a_Node000006"><a xlink:href="classjuce_1_1WasapiClasses_1_1WASAPIDeviceBase.html#a9f4a090f3385bb3cd72edc58f7e63d70" target="_top" xlink:title=" ">
<polygon fill="white" stroke="#666666" points="288.5,-266.1 154.75,-266.1 154.75,-224.35 288.5,-224.35 288.5,-266.1"/>
<text xml:space="preserve" text-anchor="start" x="162.75" y="-252.6" font-family="Helvetica,sans-Serif" font-size="10.00">juce::WasapiClasses</text>
<text xml:space="preserve" text-anchor="start" x="162.75" y="-241.35" font-family="Helvetica,sans-Serif" font-size="10.00">::WASAPIDeviceBase::</text>
<text xml:space="preserve" text-anchor="middle" x="221.62" y="-230.1" font-family="Helvetica,sans-Serif" font-size="10.00">tryInitialisingWithBufferSize</text>
</a>
</g>
</g>
<!-- Node5&#45;&gt;Node6 -->
<g id="edge6_Node000005_Node000006" class="edge">
<title>Node5&#45;&gt;Node6</title>
<g id="a_edge6_Node000005_Node000006"><a xlink:title=" ">
<path fill="none" stroke="#63b8ff" d="M317.07,-257.95C307.73,-256.69 298.16,-255.4 288.86,-254.15"/>
<polygon fill="#63b8ff" stroke="#63b8ff" points="316.44,-261.4 326.82,-259.26 317.38,-254.46 316.44,-261.4"/>
</a>
</g>
</g>
<!-- Node7 -->
<g id="Node000007" class="node">
<title>Node7</title>
<g id="a_Node000007"><a xlink:href="classjuce_1_1WasapiClasses_1_1WASAPIDeviceBase.html#a494edf88e99ee4e15e9b675d7df1a145" target="_top" xlink:title=" ">
<polygon fill="#fff0f0" stroke="red" points="117.62,-266.1 1.12,-266.1 1.12,-224.35 117.62,-224.35 117.62,-266.1"/>
<text xml:space="preserve" text-anchor="start" x="9.12" y="-252.6" font-family="Helvetica,sans-Serif" font-size="10.00">juce::WasapiClasses</text>
<text xml:space="preserve" text-anchor="start" x="9.12" y="-241.35" font-family="Helvetica,sans-Serif" font-size="10.00">::WASAPIDeviceBase::</text>
<text xml:space="preserve" text-anchor="middle" x="59.38" y="-230.1" font-family="Helvetica,sans-Serif" font-size="10.00">openClient</text>
</a>
</g>
</g>
<!-- Node6&#45;&gt;Node7 -->
<g id="edge7_Node000006_Node000007" class="edge">
<title>Node6&#45;&gt;Node7</title>
<g id="a_edge7_Node000006_Node000007"><a xlink:title=" ">
<path fill="none" stroke="#63b8ff" d="M143.03,-245.22C134.56,-245.22 126.05,-245.22 117.88,-245.22"/>
<polygon fill="#63b8ff" stroke="#63b8ff" points="143.01,-248.72 153.01,-245.22 143.01,-241.72 143.01,-248.72"/>
</a>
</g>
</g>
<!-- Node11 -->
<g id="Node000011" class="node">
<title>Node11</title>
<g id="a_Node000011"><a xlink:href="classjuce_1_1WasapiClasses_1_1WASAPIAudioIODevice.html#a6b29ff8d9092017b1d8190770eb5f6f5" target="_top" xlink:title=" ">
<polygon fill="white" stroke="#666666" points="449.25,-228.1 324.5,-228.1 324.5,-186.35 449.25,-186.35 449.25,-228.1"/>
<text xml:space="preserve" text-anchor="start" x="332.5" y="-214.6" font-family="Helvetica,sans-Serif" font-size="10.00">juce::WasapiClasses</text>
<text xml:space="preserve" text-anchor="start" x="332.5" y="-203.35" font-family="Helvetica,sans-Serif" font-size="10.00">::WASAPIAudioIODevice</text>
<text xml:space="preserve" text-anchor="middle" x="386.88" y="-192.1" font-family="Helvetica,sans-Serif" font-size="10.00">::handleAsyncUpdate</text>
</a>
</g>
</g>
<!-- Node10&#45;&gt;Node11 -->
<g id="edge10_Node000010_Node000011" class="edge">
<title>Node10&#45;&gt;Node11</title>
<g id="a_edge10_Node000010_Node000011"><a xlink:title=" ">
<path fill="none" stroke="#63b8ff" d="M481.56,-216.1C470.79,-215.08 459.94,-214.05 449.64,-213.07"/>
<polygon fill="#63b8ff" stroke="#63b8ff" points="480.94,-219.56 491.23,-217.02 481.61,-212.59 480.94,-219.56"/>
</a>
</g>
</g>
<!-- Node12&#45;&gt;Node13 -->
<g id="edge12_Node000012_Node000013" class="edge">
<title>Node12&#45;&gt;Node13</title>
<g id="a_edge12_Node000012_Node000013"><a xlink:title=" ">
<path fill="none" stroke="#63b8ff" d="M485.95,-107.39C422.67,-105.19 336.4,-102.18 280.12,-100.22"/>
<polygon fill="#63b8ff" stroke="#63b8ff" points="485.47,-110.88 495.58,-107.73 485.71,-103.88 485.47,-110.88"/>
</a>
</g>
</g>
<!-- Node14 -->
<g id="Node000014" class="node">
<title>Node14</title>
<g id="a_Node000014"><a xlink:href="structjuce_1_1WasapiClasses_1_1WASAPIDeviceBase_1_1SessionEventCallback.html#a0d9a13a1b03037798461abee8b7d765c" target="_top" xlink:title=" ">
<polygon fill="white" stroke="#666666" points="118.38,-124.72 0.38,-124.72 0.38,-71.72 118.38,-71.72 118.38,-124.72"/>
<text xml:space="preserve" text-anchor="start" x="8.38" y="-111.22" font-family="Helvetica,sans-Serif" font-size="10.00">juce::WasapiClasses</text>
<text xml:space="preserve" text-anchor="start" x="8.38" y="-99.97" font-family="Helvetica,sans-Serif" font-size="10.00">::WASAPIDeviceBase::</text>
<text xml:space="preserve" text-anchor="start" x="8.38" y="-88.72" font-family="Helvetica,sans-Serif" font-size="10.00">SessionEventCallback</text>
<text xml:space="preserve" text-anchor="middle" x="59.38" y="-77.47" font-family="Helvetica,sans-Serif" font-size="10.00">::SessionEventCallback</text>
</a>
</g>
</g>
<!-- Node13&#45;&gt;Node14 -->
<g id="edge13_Node000013_Node000014" class="edge">
<title>Node13&#45;&gt;Node14</title>
<g id="a_edge13_Node000013_Node000014"><a xlink:title=" ">
<path fill="none" stroke="#63b8ff" d="M151.86,-98.22C140.82,-98.22 129.49,-98.22 118.72,-98.22"/>
<polygon fill="#63b8ff" stroke="#63b8ff" points="151.71,-101.72 161.71,-98.22 151.71,-94.72 151.71,-101.72"/>
</a>
</g>
</g>
<!-- Node15 -->
<g id="Node000015" class="node">
<title>Node15</title>
<g id="a_Node000015"><a xlink:href="classjuce_1_1WasapiClasses_1_1WASAPIInputDevice.html#a136f59a598289b4af2ea9a6b33ea07ff" target="_top" xlink:title=" ">
<polygon fill="white" stroke="#666666" points="115,-54.1 3.75,-54.1 3.75,-12.35 115,-12.35 115,-54.1"/>
<text xml:space="preserve" text-anchor="start" x="11.75" y="-40.6" font-family="Helvetica,sans-Serif" font-size="10.00">juce::WasapiClasses</text>
<text xml:space="preserve" text-anchor="start" x="11.75" y="-29.35" font-family="Helvetica,sans-Serif" font-size="10.00">::WASAPIInputDevice</text>
<text xml:space="preserve" text-anchor="middle" x="59.38" y="-18.1" font-family="Helvetica,sans-Serif" font-size="10.00">::WASAPIInputDevice</text>
</a>
</g>
</g>
<!-- Node13&#45;&gt;Node15 -->
<g id="edge14_Node000013_Node000015" class="edge">
<title>Node13&#45;&gt;Node15</title>
<g id="a_edge14_Node000013_Node000015"><a xlink:title=" ">
<path fill="none" stroke="#63b8ff" d="M157.57,-72.65C142.8,-66.66 127.22,-60.34 112.96,-54.55"/>
<polygon fill="#63b8ff" stroke="#63b8ff" points="156.17,-75.85 166.75,-76.37 158.8,-69.37 156.17,-75.85"/>
</a>
</g>
</g>
<!-- Node16 -->
<g id="Node000016" class="node">
<title>Node16</title>
<g id="a_Node000016"><a xlink:href="classjuce_1_1WasapiClasses_1_1WASAPIOutputDevice.html#a51e392f1b86c4134ce73b491b3ec4226" target="_top" xlink:title=" ">
<polygon fill="white" stroke="#666666" points="118.75,-184.1 0,-184.1 0,-142.35 118.75,-142.35 118.75,-184.1"/>
<text xml:space="preserve" text-anchor="start" x="8" y="-170.6" font-family="Helvetica,sans-Serif" font-size="10.00">juce::WasapiClasses</text>
<text xml:space="preserve" text-anchor="start" x="8" y="-159.35" font-family="Helvetica,sans-Serif" font-size="10.00">::WASAPIOutputDevice</text>
<text xml:space="preserve" text-anchor="middle" x="59.38" y="-148.1" font-family="Helvetica,sans-Serif" font-size="10.00">::WASAPIOutputDevice</text>
</a>
</g>
</g>
<!-- Node13&#45;&gt;Node16 -->
<g id="edge15_Node000013_Node000016" class="edge">
<title>Node13&#45;&gt;Node16</title>
<g id="a_edge15_Node000013_Node000016"><a xlink:title=" ">
<path fill="none" stroke="#63b8ff" d="M157.57,-123.8C142.8,-129.79 127.22,-136.11 112.96,-141.89"/>
<polygon fill="#63b8ff" stroke="#63b8ff" points="158.8,-127.08 166.75,-120.07 156.17,-120.59 158.8,-127.08"/>
</a>
</g>
</g>
<!-- Node19 -->
<g id="Node000019" class="node">
<title>Node19</title>
<g id="a_Node000019"><a xlink:href="classjuce_1_1WasapiClasses_1_1WASAPIDeviceBase.html#adb80c11ec899fcc9cb8f1b6ed2c34ad2" target="_top" xlink:title=" ">
<polygon fill="white" stroke="#666666" points="445.12,-168.1 328.62,-168.1 328.62,-126.35 445.12,-126.35 445.12,-168.1"/>
<text xml:space="preserve" text-anchor="start" x="336.62" y="-154.6" font-family="Helvetica,sans-Serif" font-size="10.00">juce::WasapiClasses</text>
<text xml:space="preserve" text-anchor="start" x="336.62" y="-143.35" font-family="Helvetica,sans-Serif" font-size="10.00">::WASAPIDeviceBase::</text>
<text xml:space="preserve" text-anchor="middle" x="386.88" y="-132.1" font-family="Helvetica,sans-Serif" font-size="10.00">findSupportedFormat</text>
</a>
</g>
</g>
<!-- Node18&#45;&gt;Node19 -->
<g id="edge18_Node000018_Node000019" class="edge">
<title>Node18&#45;&gt;Node19</title>
<g id="a_edge18_Node000018_Node000019"><a xlink:title=" ">
<path fill="none" stroke="#63b8ff" d="M498.25,-161.37C480.83,-159.14 462.3,-156.76 445.51,-154.61"/>
<polygon fill="#63b8ff" stroke="#63b8ff" points="497.64,-164.82 508.01,-162.62 498.53,-157.88 497.64,-164.82"/>
</a>
</g>
</g>
<!-- Node19&#45;&gt;Node6 -->
<g id="edge19_Node000019_Node000006" class="edge">
<title>Node19&#45;&gt;Node6</title>
<g id="a_edge19_Node000019_Node000006"><a xlink:title=" ">
<path fill="none" stroke="#63b8ff" d="M330.66,-173.77C328.57,-174.91 326.51,-176.07 324.5,-177.22 299.43,-191.63 272.24,-209.92 252.26,-223.9"/>
<polygon fill="#63b8ff" stroke="#63b8ff" points="332.07,-176.98 339.26,-169.2 328.79,-170.8 332.07,-176.98"/>
</a>
</g>
</g>
<!-- Node19&#45;&gt;Node13 -->
<g id="edge20_Node000019_Node000013" class="edge">
<title>Node19&#45;&gt;Node13</title>
<g id="a_edge20_Node000019_Node000013"><a xlink:title=" ">
<path fill="none" stroke="#63b8ff" d="M317.54,-126.71C305.12,-122.98 292.28,-119.13 280.21,-115.51"/>
<polygon fill="#63b8ff" stroke="#63b8ff" points="316.29,-129.99 326.87,-129.51 318.3,-123.28 316.29,-129.99"/>
</a>
</g>
</g>
</g>
</svg>
