<?xml version="1.0" encoding="UTF-8" standalone="no"?>
<!DOCTYPE svg PUBLIC "-//W3C//DTD SVG 1.1//EN"
 "http://www.w3.org/Graphics/SVG/1.1/DTD/svg11.dtd">
<!-- Generated by graphviz version 14.0.2 (0)
 -->
<!-- Title: Jack::GetPortType Pages: 1 -->
<!--zoomable 187 -->

<svg id="main" version="1.1" xmlns="http://www.w3.org/2000/svg" xmlns:xlink="http://www.w3.org/1999/xlink" xml:space="preserve" onload="init(evt)">

<style type="text/css"><![CDATA[
.node, .edge {opacity: 0.7;}
.node.selected, .edge.selected {opacity: 1;}
.edge:hover path { stroke: red; }
.edge:hover polygon { stroke: red; fill: red; }
]]></style>

<defs>
  <circle id="rim" cx="0" cy="0" r="7"/>
  <circle id="rim2" cx="0" cy="0" r="3.5"/>
  <g id="zoomPlus">
    <use xlink:href="#rim" fill="#404040"><set attributeName="fill" to="#808080" begin="zoomplus.mouseover" end="zoomplus.mouseout"/></use>
    <path d="M-4,0h8M0,-4v8" fill="none" stroke="white" stroke-width="1.5" pointer-events="none"/>
  </g>
  <g id="zoomMin">
    <use xlink:href="#rim" fill="#404040"><set attributeName="fill" to="#808080" begin="zoomminus.mouseover" end="zoomminus.mouseout"/></use>
    <path d="M-4,0h8" fill="none" stroke="white" stroke-width="1.5" pointer-events="none"/>
  </g>
  <g id="arrowUp" transform="translate(30 24)">
    <use xlink:href="#rim"/>
    <path pointer-events="none" fill="none" stroke="white" stroke-width="1.5" d="M0,-3.0v7 M-2.5,-0.5L0,-3.0L2.5,-0.5"/>
  </g>
  <g id="arrowRight" transform="rotate(90) translate(36 -43)">
    <use xlink:href="#rim"/>
    <path pointer-events="none" fill="none" stroke="white" stroke-width="1.5" d="M0,-3.0v7 M-2.5,-0.5L0,-3.0L2.5,-0.5"/>
  </g>
  <g id="arrowDown" transform="rotate(180) translate(-30 -48)">
    <use xlink:href="#rim"/>
    <path pointer-events="none" fill="none" stroke="white" stroke-width="1.5" d="M0,-3.0v7 M-2.5,-0.5L0,-3.0L2.5,-0.5"/>
  </g>
  <g id="arrowLeft" transform="rotate(270) translate(-36 17)">
    <use xlink:href="#rim"/>
    <path pointer-events="none" fill="none" stroke="white" stroke-width="1.5" d="M0,-3.0v7 M-2.5,-0.5L0,-3.0L2.5,-0.5"/>
  </g>
  <g id="resetDef">
    <use xlink:href="#rim2" fill="#404040"><set attributeName="fill" to="#808080" begin="reset.mouseover" end="reset.mouseout"/></use>
  </g>
</defs>
<script type="application/ecmascript">
var viewWidth = 834;
var viewHeight = 187;
var sectionId = 'dynsection-41';
</script>
<script type="application/ecmascript" xlink:href="svg.min.js"/>
<svg id="graph" class="graph">
<g id="viewport">
<title>Jack::GetPortType</title>
<!-- Node1 -->
<g id="Node000001" class="node">
<title>Node1</title>
<g id="a_Node000001"><a xlink:title=" ">
<polygon fill="#999999" stroke="#666666" points="826.25,-83.25 730,-83.25 730,-64 826.25,-64 826.25,-83.25"/>
<text xml:space="preserve" text-anchor="middle" x="778.12" y="-69.75" font-family="Helvetica,sans-Serif" font-size="10.00">Jack::GetPortType</text>
</a>
</g>
</g>
<!-- Node2 -->
<g id="Node000002" class="node">
<title>Node2</title>
<g id="a_Node000002"><a xlink:href="classJack_1_1JackPort.html#a1553649e7ba5741ae200ee9e2f77fd01" target="_top" xlink:title=" ">
<polygon fill="white" stroke="#666666" points="694,-160.25 561,-160.25 561,-141 694,-141 694,-160.25"/>
<text xml:space="preserve" text-anchor="middle" x="627.5" y="-146.75" font-family="Helvetica,sans-Serif" font-size="10.00">Jack::JackPort::ClearBuffer</text>
</a>
</g>
</g>
<!-- Node1&#45;&gt;Node2 -->
<g id="edge1_Node000001_Node000002" class="edge">
<title>Node1&#45;&gt;Node2</title>
<g id="a_edge1_Node000001_Node000002"><a xlink:title=" ">
<path fill="none" stroke="#63b8ff" d="M747.54,-88.95C717.95,-104.28 673.31,-127.41 647.93,-140.56"/>
<polygon fill="#63b8ff" stroke="#63b8ff" points="749.08,-92.1 756.35,-84.39 745.86,-85.88 749.08,-92.1"/>
</a>
</g>
</g>
<!-- Node4 -->
<g id="Node000004" class="node">
<title>Node4</title>
<g id="a_Node000004"><a xlink:href="classJack_1_1JackPort.html#aeda5287fcffddf6b9ded0d582462117d" target="_top" xlink:title=" ">
<polygon fill="white" stroke="#666666" points="688.38,-105.25 566.62,-105.25 566.62,-86 688.38,-86 688.38,-105.25"/>
<text xml:space="preserve" text-anchor="middle" x="627.5" y="-91.75" font-family="Helvetica,sans-Serif" font-size="10.00">Jack::JackPort::GetType</text>
</a>
</g>
</g>
<!-- Node1&#45;&gt;Node4 -->
<g id="edge3_Node000001_Node000004" class="edge">
<title>Node1&#45;&gt;Node4</title>
<g id="a_edge3_Node000001_Node000004"><a xlink:title=" ">
<path fill="none" stroke="#63b8ff" d="M718.47,-82.31C708.72,-83.75 698.6,-85.25 688.81,-86.7"/>
<polygon fill="#63b8ff" stroke="#63b8ff" points="718.81,-85.79 728.19,-80.87 717.79,-78.87 718.81,-85.79"/>
</a>
</g>
</g>
<!-- Node20 -->
<g id="Node000020" class="node">
<title>Node20</title>
<g id="a_Node000020"><a xlink:href="group__PortFunctions.html#ga52a65a0dd00695ecf75e23f1bd48f96a" target="_top" xlink:title=" ">
<polygon fill="white" stroke="#666666" points="676.38,-67.88 578.62,-67.88 578.62,-37.38 676.38,-37.38 676.38,-67.88"/>
<text xml:space="preserve" text-anchor="start" x="586.62" y="-54.38" font-family="Helvetica,sans-Serif" font-size="10.00">jack_port_type_get</text>
<text xml:space="preserve" text-anchor="middle" x="627.5" y="-43.12" font-family="Helvetica,sans-Serif" font-size="10.00">_buffer_size</text>
</a>
</g>
</g>
<!-- Node1&#45;&gt;Node20 -->
<g id="edge12_Node000001_Node000020" class="edge">
<title>Node1&#45;&gt;Node20</title>
<g id="a_edge12_Node000001_Node000020"><a xlink:title=" ">
<path fill="none" stroke="#63b8ff" d="M718.33,-65.32C704.55,-63.37 690.02,-61.32 676.76,-59.44"/>
<polygon fill="#63b8ff" stroke="#63b8ff" points="717.8,-68.78 728.19,-66.71 718.78,-61.85 717.8,-68.78"/>
</a>
</g>
</g>
<!-- Node22 -->
<g id="Node000022" class="node">
<title>Node22</title>
<g id="a_Node000022"><a xlink:href="classJack_1_1JackPort.html#a5b45e756eb99142505168b0debbf9294" target="_top" xlink:title=" ">
<polygon fill="white" stroke="#666666" points="692.88,-19.25 562.12,-19.25 562.12,0 692.88,0 692.88,-19.25"/>
<text xml:space="preserve" text-anchor="middle" x="627.5" y="-5.75" font-family="Helvetica,sans-Serif" font-size="10.00">Jack::JackPort::MixBuffers</text>
</a>
</g>
</g>
<!-- Node1&#45;&gt;Node22 -->
<g id="edge15_Node000001_Node000022" class="edge">
<title>Node1&#45;&gt;Node22</title>
<g id="a_edge15_Node000001_Node000022"><a xlink:title=" ">
<path fill="none" stroke="#63b8ff" d="M751.34,-57.8C735.27,-48.42 713.93,-36.8 694,-28.62 685.89,-25.3 677,-22.31 668.45,-19.74"/>
<polygon fill="#63b8ff" stroke="#63b8ff" points="749.39,-60.71 759.77,-62.82 752.96,-54.7 749.39,-60.71"/>
</a>
</g>
</g>
<!-- Node3 -->
<g id="Node000003" class="node">
<title>Node3</title>
<g id="a_Node000003"><a xlink:href="classJack_1_1JackPort.html#ad6f0777aec682e29e266ddcf4910bd9a" target="_top" xlink:title=" ">
<polygon fill="white" stroke="#666666" points="503.25,-179.25 383,-179.25 383,-160 503.25,-160 503.25,-179.25"/>
<text xml:space="preserve" text-anchor="middle" x="443.12" y="-165.75" font-family="Helvetica,sans-Serif" font-size="10.00">Jack::JackPort::Allocate</text>
</a>
</g>
</g>
<!-- Node2&#45;&gt;Node3 -->
<g id="edge2_Node000002_Node000003" class="edge">
<title>Node2&#45;&gt;Node3</title>
<g id="a_edge2_Node000002_Node000003"><a xlink:title=" ">
<path fill="none" stroke="#63b8ff" d="M549.57,-158.64C534.17,-160.24 518.21,-161.91 503.51,-163.44"/>
<polygon fill="#63b8ff" stroke="#63b8ff" points="549.57,-162.16 559.15,-157.64 548.84,-155.2 549.57,-162.16"/>
</a>
</g>
</g>
<!-- Node5 -->
<g id="Node000005" class="node">
<title>Node5</title>
<g id="a_Node000005"><a xlink:href="group__PortFunctions.html#ga7cf1cf578fd0dcdc237da20c0397c9a0" target="_top" xlink:title=" ">
<polygon fill="white" stroke="#666666" points="482.62,-142.25 403.62,-142.25 403.62,-123 482.62,-123 482.62,-142.25"/>
<text xml:space="preserve" text-anchor="middle" x="443.12" y="-128.75" font-family="Helvetica,sans-Serif" font-size="10.00">jack_port_type</text>
</a>
</g>
</g>
<!-- Node4&#45;&gt;Node5 -->
<g id="edge4_Node000004_Node000005" class="edge">
<title>Node4&#45;&gt;Node5</title>
<g id="a_edge4_Node000004_Node000005"><a xlink:title=" ">
<path fill="none" stroke="#63b8ff" d="M565.64,-107.97C538.35,-113.51 506.95,-119.88 482.91,-124.76"/>
<polygon fill="#63b8ff" stroke="#63b8ff" points="566.08,-111.45 575.18,-106.04 564.69,-104.59 566.08,-111.45"/>
</a>
</g>
</g>
<!-- Node15 -->
<g id="Node000015" class="node">
<title>Node15</title>
<g id="a_Node000015"><a xlink:href="group__PortFunctions.html#ga443f950e5fe4dd3ba9e1f4530bb172a4" target="_top" xlink:title=" ">
<polygon fill="white" stroke="#666666" points="489,-105.25 397.25,-105.25 397.25,-86 489,-86 489,-105.25"/>
<text xml:space="preserve" text-anchor="middle" x="443.12" y="-91.75" font-family="Helvetica,sans-Serif" font-size="10.00">jack_port_type_id</text>
</a>
</g>
</g>
<!-- Node4&#45;&gt;Node15 -->
<g id="edge9_Node000004_Node000015" class="edge">
<title>Node4&#45;&gt;Node15</title>
<g id="a_edge9_Node000004_Node000015"><a xlink:title=" ">
<path fill="none" stroke="#63b8ff" d="M554.89,-95.62C532.78,-95.62 509.06,-95.62 489.26,-95.62"/>
<polygon fill="#63b8ff" stroke="#63b8ff" points="554.76,-99.13 564.76,-95.63 554.76,-92.13 554.76,-99.13"/>
</a>
</g>
</g>
<!-- Node16 -->
<g id="Node000016" class="node">
<title>Node16</title>
<g id="a_Node000016"><a xlink:href="classJack_1_1JackDriver.html#a7069e1f15aac254dffa80cd1d659c3a6" target="_top" xlink:title=" ">
<polygon fill="white" stroke="#666666" points="525,-68.25 361.25,-68.25 361.25,-49 525,-49 525,-68.25"/>
<text xml:space="preserve" text-anchor="middle" x="443.12" y="-54.75" font-family="Helvetica,sans-Serif" font-size="10.00">Jack::JackDriver::MatchPortName</text>
</a>
</g>
</g>
<!-- Node4&#45;&gt;Node16 -->
<g id="edge10_Node000004_Node000016" class="edge">
<title>Node4&#45;&gt;Node16</title>
<g id="a_edge10_Node000004_Node000016"><a xlink:title=" ">
<path fill="none" stroke="#63b8ff" d="M565.51,-83.25C542.24,-78.53 516.01,-73.21 493.9,-68.72"/>
<polygon fill="#63b8ff" stroke="#63b8ff" points="564.69,-86.66 575.18,-85.21 566.08,-79.8 564.69,-86.66"/>
</a>
</g>
</g>
<!-- Node6 -->
<g id="Node000006" class="node">
<title>Node6</title>
<g id="a_Node000006"><a xlink:href="JackBridgeExport_8cpp.html#a53801b0c4ba254ee8d55c62c112c83ae" target="_top" xlink:title=" ">
<polygon fill="#fff0f0" stroke="red" points="293.75,-179.25 188.5,-179.25 188.5,-160 293.75,-160 293.75,-179.25"/>
<text xml:space="preserve" text-anchor="middle" x="241.12" y="-165.75" font-family="Helvetica,sans-Serif" font-size="10.00">jackbridge_port_type</text>
</a>
</g>
</g>
<!-- Node5&#45;&gt;Node6 -->
<g id="edge5_Node000005_Node000006" class="edge">
<title>Node5&#45;&gt;Node6</title>
<g id="a_edge5_Node000005_Node000006"><a xlink:title=" ">
<path fill="none" stroke="#63b8ff" d="M392.53,-141.8C362.61,-147.34 324.54,-154.38 294.18,-159.99"/>
<polygon fill="#63b8ff" stroke="#63b8ff" points="392.88,-145.3 402.07,-140.03 391.6,-138.41 392.88,-145.3"/>
</a>
</g>
</g>
<!-- Node13 -->
<g id="Node000013" class="node">
<title>Node13</title>
<g id="a_Node000013"><a xlink:href="calfpytools_8cpp.html#a64c059012f0165921334d81b64af4044" target="_top" xlink:title=" ">
<polygon fill="white" stroke="#666666" points="287.38,-142.25 194.88,-142.25 194.88,-123 287.38,-123 287.38,-142.25"/>
<text xml:space="preserve" text-anchor="middle" x="241.12" y="-128.75" font-family="Helvetica,sans-Serif" font-size="10.00">jackport_get_type</text>
</a>
</g>
</g>
<!-- Node5&#45;&gt;Node13 -->
<g id="edge7_Node000005_Node000013" class="edge">
<title>Node5&#45;&gt;Node13</title>
<g id="a_edge7_Node000005_Node000013"><a xlink:title=" ">
<path fill="none" stroke="#63b8ff" d="M392.2,-132.62C360.1,-132.62 318.74,-132.62 287.57,-132.62"/>
<polygon fill="#63b8ff" stroke="#63b8ff" points="392.05,-136.13 402.05,-132.63 392.05,-129.13 392.05,-136.13"/>
</a>
</g>
</g>
<!-- Node14 -->
<g id="Node000014" class="node">
<title>Node14</title>
<g id="a_Node000014"><a xlink:href="src_23rdparty_2jack2_2tests_2test_8cpp.html#a0ddf1224851353fc92bfbff6f499fa97" target="_top" xlink:title=" ">
<polygon fill="white" stroke="#666666" points="259.62,-105.25 222.62,-105.25 222.62,-86 259.62,-86 259.62,-105.25"/>
<text xml:space="preserve" text-anchor="middle" x="241.12" y="-91.75" font-family="Helvetica,sans-Serif" font-size="10.00">main</text>
</a>
</g>
</g>
<!-- Node5&#45;&gt;Node14 -->
<g id="edge8_Node000005_Node000014" class="edge">
<title>Node5&#45;&gt;Node14</title>
<g id="a_edge8_Node000005_Node000014"><a xlink:title=" ">
<path fill="none" stroke="#63b8ff" d="M392.45,-123.43C349.36,-115.46 289.4,-104.37 259.93,-98.92"/>
<polygon fill="#63b8ff" stroke="#63b8ff" points="391.6,-126.84 402.07,-125.22 392.88,-119.95 391.6,-126.84"/>
</a>
</g>
</g>
<!-- Node12 -->
<g id="Node000012" class="node">
<title>Node12</title>
<g id="a_Node000012"><a xlink:href="JackBridge3_8cpp.html#aede31335666c1c498c12faf88079264f" target="_top" xlink:title=" ">
<polygon fill="white" stroke="#666666" points="121,-107.88 0,-107.88 0,-77.38 121,-77.38 121,-107.88"/>
<text xml:space="preserve" text-anchor="start" x="8" y="-94.38" font-family="Helvetica,sans-Serif" font-size="10.00">jackbridge_get_exported</text>
<text xml:space="preserve" text-anchor="middle" x="60.5" y="-83.12" font-family="Helvetica,sans-Serif" font-size="10.00">_functions</text>
</a>
</g>
</g>
<!-- Node6&#45;&gt;Node12 -->
<g id="edge6_Node000006_Node000012" class="edge">
<title>Node6&#45;&gt;Node12</title>
<g id="a_edge6_Node000006_Node000012"><a xlink:title=" ">
<path fill="none" stroke="#63b8ff" d="M177.36,-158.44C170.38,-156.49 163.47,-154.23 157,-151.62 129.35,-140.47 100.64,-121.58 82.01,-108.18"/>
<polygon fill="#63b8ff" stroke="#63b8ff" points="176.29,-161.78 186.84,-160.88 178.03,-155 176.29,-161.78"/>
</a>
</g>
</g>
<!-- Node17 -->
<g id="Node000017" class="node">
<title>Node17</title>
<g id="a_Node000017"><a xlink:href="classJack_1_1JackDriver.html#aacfcb7077c517668536f62192b540af5" target="_top" xlink:title=" ">
<polygon fill="#fff0f0" stroke="red" points="325.25,-68.25 157,-68.25 157,-49 325.25,-49 325.25,-68.25"/>
<text xml:space="preserve" text-anchor="middle" x="241.12" y="-54.75" font-family="Helvetica,sans-Serif" font-size="10.00">Jack::JackDriver::LoadConnections</text>
</a>
</g>
</g>
<!-- Node16&#45;&gt;Node17 -->
<g id="edge11_Node000016_Node000017" class="edge">
<title>Node16&#45;&gt;Node17</title>
<g id="a_edge11_Node000016_Node000017"><a xlink:title=" ">
<path fill="none" stroke="#63b8ff" d="M349.3,-58.62C341.42,-58.62 333.48,-58.62 325.68,-58.62"/>
<polygon fill="#63b8ff" stroke="#63b8ff" points="349.26,-62.13 359.26,-58.63 349.26,-55.13 349.26,-62.13"/>
</a>
</g>
</g>
<!-- Node21 -->
<g id="Node000021" class="node">
<title>Node21</title>
<g id="a_Node000021"><a xlink:href="JackBridgeExport_8cpp.html#a8a3f6b7488e21347d88fbf91047e62cb" target="_top" xlink:title=" ">
<polygon fill="white" stroke="#666666" points="293.75,-30.88 188.5,-30.88 188.5,-0.37 293.75,-0.37 293.75,-30.88"/>
<text xml:space="preserve" text-anchor="start" x="196.5" y="-17.38" font-family="Helvetica,sans-Serif" font-size="10.00">jackbridge_port_type</text>
<text xml:space="preserve" text-anchor="middle" x="241.12" y="-6.12" font-family="Helvetica,sans-Serif" font-size="10.00">_get_buffer_size</text>
</a>
</g>
</g>
<!-- Node20&#45;&gt;Node21 -->
<g id="edge13_Node000020_Node000021" class="edge">
<title>Node20&#45;&gt;Node21</title>
<g id="a_edge13_Node000020_Node000021"><a xlink:title=" ">
<path fill="none" stroke="#63b8ff" d="M566.95,-44.57C553.19,-42.82 538.59,-41.07 525,-39.62 444.5,-31.06 350.85,-23.61 294.07,-19.36"/>
<polygon fill="#63b8ff" stroke="#63b8ff" points="566.41,-48.02 576.77,-45.83 567.3,-41.08 566.41,-48.02"/>
</a>
</g>
</g>
<!-- Node21&#45;&gt;Node12 -->
<g id="edge14_Node000021_Node000012" class="edge">
<title>Node21&#45;&gt;Node12</title>
<g id="a_edge14_Node000021_Node000012"><a xlink:title=" ">
<path fill="none" stroke="#63b8ff" d="M177.23,-32.14C170.33,-34.44 163.46,-36.94 157,-39.62 131.79,-50.1 104.72,-65.56 85.86,-77.08"/>
<polygon fill="#63b8ff" stroke="#63b8ff" points="178.15,-35.52 186.62,-29.16 176.03,-28.85 178.15,-35.52"/>
</a>
</g>
</g>
</g>
</svg>

<g id="navigator" transform="translate(0 0)" fill="#404254">
  <rect fill="#f2f5e9" fill-opacity="0.5" stroke="#606060" stroke-width=".5" x="0" y="0" width="60" height="60"/>
  <use id="zoomplus" xlink:href="#zoomPlus" x="17" y="9" onmousedown="handleZoom(evt,'in')"/>
  <use id="zoomminus" xlink:href="#zoomMin" x="42" y="9" onmousedown="handleZoom(evt,'out')"/>
  <use id="reset" xlink:href="#resetDef" x="30" y="36" onmousedown="handleReset()"/>
   <use id="arrowup" xlink:href="#arrowUp" x="0" y="0" onmousedown="handlePan(0,-1)"/>
  <use id="arrowright" xlink:href="#arrowRight" x="0" y="0" onmousedown="handlePan(1,0)"/>
  <use id="arrowdown" xlink:href="#arrowDown" x="0" y="0" onmousedown="handlePan(0,1)"/>
  <use id="arrowleft" xlink:href="#arrowLeft" x="0" y="0" onmousedown="handlePan(-1,0)"/>
</g>
<svg viewBox="0 0 15 15" width="100%" height="30px" preserveAspectRatio="xMaxYMin meet">
 <g id="arrow_out" transform="scale(0.3 0.3)">
  <a xlink:href="namespaceJack_af70103bfb5a995d8fd5fa2f01216130b_icgraph_org.svg" target="_base">
   <rect id="button" ry="5" rx="5" y="6" x="6" height="38" width="38"
        fill="#f2f5e9" fill-opacity="0.5" stroke="#606060" stroke-width="1.0"/>
   <path id="arrow"
     d="M 11.500037,31.436501 C 11.940474,20.09759 22.043105,11.32322 32.158766,21.979434 L 37.068811,17.246167 C 37.068811,17.246167 37.088388,32 37.088388,32 L 22.160133,31.978069 C 22.160133,31.978069 26.997745,27.140456 26.997745,27.140456 C 18.528582,18.264221 13.291696,25.230495 11.500037,31.436501 z"
     style="fill:#404040;"/>
  </a>
 </g>
</svg>

<style type='text/css'>
<![CDATA[
[data-mouse-over-selected='false'] { opacity: 0.7; }
[data-mouse-over-selected='true']  { opacity: 1.0; }
]]>
</style>
<script type="application/ecmascript"><![CDATA[
document.addEventListener('DOMContentLoaded', (event) => {
  highlightEdges();
  highlightAdjacentNodes();
});
]]></script>
</svg>
