<?xml version="1.0" encoding="UTF-8" standalone="no"?>
<!DOCTYPE svg PUBLIC "-//W3C//DTD SVG 1.1//EN"
 "http://www.w3.org/Graphics/SVG/1.1/DTD/svg11.dtd">
<!-- Generated by graphviz version 14.0.2 (0)
 -->
<!-- Title: pink_sh::initialise Pages: 1 -->
<svg width="614pt" height="212pt"
 viewBox="0.00 0.00 614.00 212.00" xmlns="http://www.w3.org/2000/svg" xmlns:xlink="http://www.w3.org/1999/xlink">
<g id="graph0" class="graph" transform="scale(1 1) rotate(0) translate(4 208.25)">
<title>pink_sh::initialise</title>
<!-- Node1 -->
<g id="Node000001" class="node">
<title>Node1</title>
<g id="a_Node000001"><a xlink:title=" ">
<polygon fill="#999999" stroke="#666666" points="89.5,-130.25 0,-130.25 0,-111 89.5,-111 89.5,-130.25"/>
<text xml:space="preserve" text-anchor="middle" x="44.75" y="-116.75" font-family="Helvetica,sans-Serif" font-size="10.00">pink_sh::initialise</text>
</a>
</g>
</g>
<!-- Node2 -->
<g id="Node000002" class="node">
<title>Node2</title>
<g id="a_Node000002"><a xlink:href="namespacepink__sh.html#a7f59c4eb7218316a6f2c6bda8dce1de0" target="_top" xlink:title=" ">
<polygon fill="white" stroke="#666666" points="239.75,-204.25 151,-204.25 151,-185 239.75,-185 239.75,-204.25"/>
<text xml:space="preserve" text-anchor="middle" x="195.38" y="-190.75" font-family="Helvetica,sans-Serif" font-size="10.00">pink_sh::activate</text>
</a>
</g>
</g>
<!-- Node1&#45;&gt;Node2 -->
<g id="edge1_Node000001_Node000002" class="edge">
<title>Node1&#45;&gt;Node2</title>
<g id="a_edge1_Node000001_Node000002"><a xlink:title=" ">
<path fill="none" stroke="#63b8ff" d="M57.09,-130.59C71.86,-143.07 98.94,-164.32 125.5,-176.62 130.04,-178.73 134.86,-180.62 139.77,-182.3"/>
<polygon fill="#63b8ff" stroke="#63b8ff" points="138.53,-185.58 149.12,-185.23 140.62,-178.9 138.53,-185.58"/>
</a>
</g>
</g>
<!-- Node4 -->
<g id="Node000004" class="node">
<title>Node4</title>
<g id="a_Node000004"><a xlink:href="structCMT__Descriptor.html#a7bde1d356aed57714e6821c3ba222248" target="_top" xlink:title=" ">
<polygon fill="white" stroke="#666666" points="257.75,-167.25 133,-167.25 133,-148 257.75,-148 257.75,-167.25"/>
<text xml:space="preserve" text-anchor="middle" x="195.38" y="-153.75" font-family="Helvetica,sans-Serif" font-size="10.00">CMT_Descriptor::addPort</text>
</a>
</g>
</g>
<!-- Node1&#45;&gt;Node4 -->
<g id="edge3_Node000001_Node000004" class="edge">
<title>Node1&#45;&gt;Node4</title>
<g id="a_edge3_Node000001_Node000004"><a xlink:title=" ">
<path fill="none" stroke="#63b8ff" d="M86.36,-130.74C103.73,-135.06 124.21,-140.16 142.65,-144.75"/>
<polygon fill="#63b8ff" stroke="#63b8ff" points="141.79,-148.14 152.34,-147.16 143.48,-141.35 141.79,-148.14"/>
</a>
</g>
</g>
<!-- Node6 -->
<g id="Node000006" class="node">
<title>Node6</title>
<g id="a_Node000006"><a xlink:href="cmt_8h.html#a035994d056dd732e05364c3842352c6c" target="_top" xlink:title=" ">
<polygon fill="white" stroke="#666666" points="239.38,-130.25 151.38,-130.25 151.38,-111 239.38,-111 239.38,-130.25"/>
<text xml:space="preserve" text-anchor="middle" x="195.38" y="-116.75" font-family="Helvetica,sans-Serif" font-size="10.00">CMT_Instantiate</text>
</a>
</g>
</g>
<!-- Node1&#45;&gt;Node6 -->
<g id="edge5_Node000001_Node000006" class="edge">
<title>Node1&#45;&gt;Node6</title>
<g id="a_edge5_Node000001_Node000006"><a xlink:title=" ">
<path fill="none" stroke="#63b8ff" d="M89.94,-120.62C105.65,-120.62 123.53,-120.62 139.99,-120.62"/>
<polygon fill="#63b8ff" stroke="#63b8ff" points="139.61,-124.13 149.61,-120.63 139.61,-117.13 139.61,-124.13"/>
</a>
</g>
</g>
<!-- Node7 -->
<g id="Node000007" class="node">
<title>Node7</title>
<g id="a_Node000007"><a xlink:href="init_8cpp.html#a18b09889cdef5c179a47c34e9444873f" target="_top" xlink:title=" ">
<polygon fill="white" stroke="#666666" points="265.25,-93.25 125.5,-93.25 125.5,-74 265.25,-74 265.25,-93.25"/>
<text xml:space="preserve" text-anchor="middle" x="195.38" y="-79.75" font-family="Helvetica,sans-Serif" font-size="10.00">registerNewPluginDescriptor</text>
</a>
</g>
</g>
<!-- Node1&#45;&gt;Node7 -->
<g id="edge6_Node000001_Node000007" class="edge">
<title>Node1&#45;&gt;Node7</title>
<g id="a_edge6_Node000001_Node000007"><a xlink:title=" ">
<path fill="none" stroke="#63b8ff" d="M86.36,-110.51C103.73,-106.19 124.21,-101.09 142.65,-96.5"/>
<polygon fill="#63b8ff" stroke="#63b8ff" points="143.48,-99.9 152.34,-94.09 141.79,-93.11 143.48,-99.9"/>
</a>
</g>
</g>
<!-- Node8 -->
<g id="Node000008" class="node">
<title>Node8</title>
<g id="a_Node000008"><a xlink:href="namespacepink__sh.html#aa704195a4fa2f379988921550c86e8a8" target="_top" xlink:title=" ">
<polygon fill="white" stroke="#666666" points="229.25,-56.25 161.5,-56.25 161.5,-37 229.25,-37 229.25,-56.25"/>
<text xml:space="preserve" text-anchor="middle" x="195.38" y="-42.75" font-family="Helvetica,sans-Serif" font-size="10.00">pink_sh::run</text>
</a>
</g>
</g>
<!-- Node1&#45;&gt;Node8 -->
<g id="edge7_Node000001_Node000008" class="edge">
<title>Node1&#45;&gt;Node8</title>
<g id="a_edge7_Node000001_Node000008"><a xlink:title=" ">
<path fill="none" stroke="#63b8ff" d="M57.09,-110.66C71.86,-98.18 98.94,-76.93 125.5,-64.62 133.3,-61.01 141.94,-58.03 150.39,-55.61"/>
<polygon fill="#63b8ff" stroke="#63b8ff" points="151.06,-59.05 159.85,-53.13 149.29,-52.28 151.06,-59.05"/>
</a>
</g>
</g>
<!-- Node3 -->
<g id="Node000003" class="node">
<title>Node3</title>
<g id="a_Node000003"><a xlink:href="classPinkNoise.html#a65858d998f19dd1cf338b5d9119289b8" target="_top" xlink:title=" ">
<polygon fill="white" stroke="#666666" points="406.5,-204.25 319.25,-204.25 319.25,-185 406.5,-185 406.5,-204.25"/>
<text xml:space="preserve" text-anchor="middle" x="362.88" y="-190.75" font-family="Helvetica,sans-Serif" font-size="10.00">PinkNoise::reset</text>
</a>
</g>
</g>
<!-- Node2&#45;&gt;Node3 -->
<g id="edge2_Node000002_Node000003" class="edge">
<title>Node2&#45;&gt;Node3</title>
<g id="a_edge2_Node000002_Node000003"><a xlink:title=" ">
<path fill="none" stroke="#63b8ff" d="M239.86,-194.62C260.56,-194.62 285.53,-194.62 307.47,-194.62"/>
<polygon fill="#63b8ff" stroke="#63b8ff" points="307.46,-198.13 317.46,-194.63 307.46,-191.13 307.46,-198.13"/>
</a>
</g>
</g>
<!-- Node5 -->
<g id="Node000005" class="node">
<title>Node5</title>
<g id="a_Node000005"><a xlink:href="cmt_8cpp.html#acf3f183fbe227f36c867e0d80d5f8439" target="_top" xlink:title=" ">
<polygon fill="white" stroke="#666666" points="395.25,-167.25 330.5,-167.25 330.5,-148 395.25,-148 395.25,-167.25"/>
<text xml:space="preserve" text-anchor="middle" x="362.88" y="-153.75" font-family="Helvetica,sans-Serif" font-size="10.00">localStrdup</text>
</a>
</g>
</g>
<!-- Node4&#45;&gt;Node5 -->
<g id="edge4_Node000004_Node000005" class="edge">
<title>Node4&#45;&gt;Node5</title>
<g id="a_edge4_Node000004_Node000005"><a xlink:title=" ">
<path fill="none" stroke="#63b8ff" d="M258,-157.62C278.3,-157.62 300.42,-157.62 319.01,-157.62"/>
<polygon fill="#63b8ff" stroke="#63b8ff" points="318.85,-161.13 328.85,-157.63 318.85,-154.13 318.85,-161.13"/>
</a>
</g>
</g>
<!-- Node9 -->
<g id="Node000009" class="node">
<title>Node9</title>
<g id="a_Node000009"><a xlink:href="cmt_2cmt_2src_2utils_8h.html#a44100292448b9102864f51d4a428145a" target="_top" xlink:title=" ">
<polygon fill="white" stroke="#666666" points="414.75,-93.25 311,-93.25 311,-74 414.75,-74 414.75,-93.25"/>
<text xml:space="preserve" text-anchor="middle" x="362.88" y="-79.75" font-family="Helvetica,sans-Serif" font-size="10.00">BOUNDED_ABOVE</text>
</a>
</g>
</g>
<!-- Node8&#45;&gt;Node9 -->
<g id="edge8_Node000008_Node000009" class="edge">
<title>Node8&#45;&gt;Node9</title>
<g id="a_edge8_Node000008_Node000009"><a xlink:title=" ">
<path fill="none" stroke="#63b8ff" d="M229.47,-54.02C251.24,-58.89 280.3,-65.39 305.64,-71.05"/>
<polygon fill="#63b8ff" stroke="#63b8ff" points="304.61,-74.41 315.14,-73.18 306.14,-67.58 304.61,-74.41"/>
</a>
</g>
</g>
<!-- Node10 -->
<g id="Node000010" class="node">
<title>Node10</title>
<g id="a_Node000010"><a xlink:href="classPinkNoise.html#a93b154c2681b1bd7ada4c50015b4dff9" target="_top" xlink:title=" ">
<polygon fill="white" stroke="#666666" points="424.5,-56.25 301.25,-56.25 301.25,-37 424.5,-37 424.5,-56.25"/>
<text xml:space="preserve" text-anchor="middle" x="362.88" y="-42.75" font-family="Helvetica,sans-Serif" font-size="10.00">PinkNoise::getLastValue</text>
</a>
</g>
</g>
<!-- Node8&#45;&gt;Node10 -->
<g id="edge9_Node000008_Node000010" class="edge">
<title>Node8&#45;&gt;Node10</title>
<g id="a_edge9_Node000008_Node000010"><a xlink:title=" ">
<path fill="none" stroke="#63b8ff" d="M229.47,-46.62C246.74,-46.62 268.59,-46.62 289.54,-46.62"/>
<polygon fill="#63b8ff" stroke="#63b8ff" points="289.53,-50.13 299.53,-46.63 289.53,-43.13 289.53,-50.13"/>
</a>
</g>
</g>
<!-- Node11 -->
<g id="Node000011" class="node">
<title>Node11</title>
<g id="a_Node000011"><a xlink:href="classPinkNoise.html#a4c23ff0af1a5d87a7741eb9e7483af04" target="_top" xlink:title=" ">
<polygon fill="white" stroke="#666666" points="414.75,-19.25 311,-19.25 311,0 414.75,0 414.75,-19.25"/>
<text xml:space="preserve" text-anchor="middle" x="362.88" y="-5.75" font-family="Helvetica,sans-Serif" font-size="10.00">PinkNoise::getValue</text>
</a>
</g>
</g>
<!-- Node8&#45;&gt;Node11 -->
<g id="edge10_Node000008_Node000011" class="edge">
<title>Node8&#45;&gt;Node11</title>
<g id="a_edge10_Node000008_Node000011"><a xlink:title=" ">
<path fill="none" stroke="#63b8ff" d="M229.47,-39.23C251.24,-34.36 280.3,-27.86 305.64,-22.2"/>
<polygon fill="#63b8ff" stroke="#63b8ff" points="306.14,-25.67 315.14,-20.07 304.61,-18.84 306.14,-25.67"/>
</a>
</g>
</g>
<!-- Node12 -->
<g id="Node000012" class="node">
<title>Node12</title>
<g id="a_Node000012"><a xlink:href="classPinkNoise.html#ae8916bcacead50c695bd8feed51bf882" target="_top" xlink:title=" ">
<polygon fill="white" stroke="#666666" points="605.5,-19.25 460.5,-19.25 460.5,0 605.5,0 605.5,-19.25"/>
<text xml:space="preserve" text-anchor="middle" x="533" y="-5.75" font-family="Helvetica,sans-Serif" font-size="10.00">PinkNoise::getUnscaledValue</text>
</a>
</g>
</g>
<!-- Node11&#45;&gt;Node12 -->
<g id="edge11_Node000011_Node000012" class="edge">
<title>Node11&#45;&gt;Node12</title>
<g id="a_edge11_Node000011_Node000012"><a xlink:title=" ">
<path fill="none" stroke="#63b8ff" d="M415.23,-9.62C425.88,-9.62 437.35,-9.62 448.81,-9.62"/>
<polygon fill="#63b8ff" stroke="#63b8ff" points="448.71,-13.13 458.71,-9.63 448.71,-6.13 448.71,-13.13"/>
</a>
</g>
</g>
</g>
</svg>
