<?xml version="1.0" encoding="UTF-8" standalone="no"?>
<!DOCTYPE svg PUBLIC "-//W3C//DTD SVG 1.1//EN"
 "http://www.w3.org/Graphics/SVG/1.1/DTD/svg11.dtd">
<!-- Generated by graphviz version 14.0.2 (0)
 -->
<!-- Title: juce::WavFileHelpers::IXMLChunk::createFrom Pages: 1 -->
<svg width="813pt" height="632pt"
 viewBox="0.00 0.00 813.00 632.00" xmlns="http://www.w3.org/2000/svg" xmlns:xlink="http://www.w3.org/1999/xlink">
<g id="graph0" class="graph" transform="scale(1 1) rotate(0) translate(4 627.5)">
<title>juce::WavFileHelpers::IXMLChunk::createFrom</title>
<!-- Node1 -->
<g id="Node000001" class="node">
<title>Node1</title>
<g id="a_Node000001"><a xlink:title=" ">
<polygon fill="#999999" stroke="#666666" points="126.25,-506.5 0,-506.5 0,-476 126.25,-476 126.25,-506.5"/>
<text xml:space="preserve" text-anchor="start" x="8" y="-493" font-family="Helvetica,sans-Serif" font-size="10.00">juce::WavFileHelpers</text>
<text xml:space="preserve" text-anchor="middle" x="63.12" y="-481.75" font-family="Helvetica,sans-Serif" font-size="10.00">::IXMLChunk::createFrom</text>
</a>
</g>
</g>
<!-- Node1&#45;&gt;Node1 -->
<g id="edge4_Node000001_Node000001" class="edge">
<title>Node1&#45;&gt;Node1</title>
<g id="a_edge4_Node000001_Node000001"><a xlink:title=" ">
<path fill="none" stroke="#63b8ff" d="M33.71,-506.99C27.71,-516.06 37.51,-524.5 63.12,-524.5 77.13,-524.5 86.41,-521.97 90.96,-518.2"/>
<polygon fill="#63b8ff" stroke="#63b8ff" points="94.4,-518.87 92.33,-508.48 87.47,-517.9 94.4,-518.87"/>
</a>
</g>
</g>
<!-- Node2 -->
<g id="Node000002" class="node">
<title>Node2</title>
<g id="a_Node000002"><a xlink:href="classjuce_1_1XmlElement.html#a3fc0d6a40e665d3596f9aaa367464d3c" target="_top" xlink:title=" ">
<polygon fill="white" stroke="#666666" points="295.62,-623.5 162.62,-623.5 162.62,-593 295.62,-593 295.62,-623.5"/>
<text xml:space="preserve" text-anchor="start" x="170.62" y="-610" font-family="Helvetica,sans-Serif" font-size="10.00">juce::XmlElement::addChild</text>
<text xml:space="preserve" text-anchor="middle" x="229.12" y="-598.75" font-family="Helvetica,sans-Serif" font-size="10.00">Element</text>
</a>
</g>
</g>
<!-- Node1&#45;&gt;Node2 -->
<g id="edge1_Node000001_Node000002" class="edge">
<title>Node1&#45;&gt;Node2</title>
<g id="a_edge1_Node000001_Node000002"><a xlink:title=" ">
<path fill="none" stroke="#63b8ff" d="M78.52,-506.9C96.63,-525.9 129.37,-558.04 162.25,-579.25 166.8,-582.19 171.7,-584.96 176.7,-587.54"/>
<polygon fill="#63b8ff" stroke="#63b8ff" points="175.13,-590.67 185.66,-591.9 178.19,-584.38 175.13,-590.67"/>
</a>
</g>
</g>
<!-- Node7 -->
<g id="Node000007" class="node">
<title>Node7</title>
<g id="a_Node000007"><a xlink:href="classjuce_1_1MemoryOutputStream.html#a2ec3b7c88c8eba50d8a45f081dee0529" target="_top" xlink:title=" ">
<polygon fill="white" stroke="#666666" points="474.75,-580.5 341,-580.5 341,-550 474.75,-550 474.75,-580.5"/>
<text xml:space="preserve" text-anchor="start" x="349" y="-567" font-family="Helvetica,sans-Serif" font-size="10.00">juce::MemoryOutputStream</text>
<text xml:space="preserve" text-anchor="middle" x="407.88" y="-555.75" font-family="Helvetica,sans-Serif" font-size="10.00">::getDataSize</text>
</a>
</g>
</g>
<!-- Node1&#45;&gt;Node7 -->
<g id="edge5_Node000001_Node000007" class="edge">
<title>Node1&#45;&gt;Node7</title>
<g id="a_edge5_Node000001_Node000007"><a xlink:title=" ">
<path fill="none" stroke="#63b8ff" d="M85.48,-506.84C104.57,-519.87 133.84,-537.64 162.25,-546.25 216.41,-562.66 280.24,-567.15 329.11,-567.68"/>
<polygon fill="#63b8ff" stroke="#63b8ff" points="329.03,-571.18 339.05,-567.73 329.07,-564.18 329.03,-571.18"/>
</a>
</g>
</g>
<!-- Node8 -->
<g id="Node000008" class="node">
<title>Node8</title>
<g id="a_Node000008"><a xlink:href="classjuce_1_1MemoryOutputStream.html#ab8956b9eca325a28d5a9af69df8f2d62" target="_top" xlink:title=" ">
<polygon fill="white" stroke="#666666" points="296,-537.5 162.25,-537.5 162.25,-507 296,-507 296,-537.5"/>
<text xml:space="preserve" text-anchor="start" x="170.25" y="-524" font-family="Helvetica,sans-Serif" font-size="10.00">juce::MemoryOutputStream</text>
<text xml:space="preserve" text-anchor="middle" x="229.12" y="-512.75" font-family="Helvetica,sans-Serif" font-size="10.00">::getMemoryBlock</text>
</a>
</g>
</g>
<!-- Node1&#45;&gt;Node8 -->
<g id="edge6_Node000001_Node000008" class="edge">
<title>Node1&#45;&gt;Node8</title>
<g id="a_edge6_Node000001_Node000008"><a xlink:title=" ">
<path fill="none" stroke="#63b8ff" d="M126.59,-503.06C134.56,-504.56 142.79,-506.12 150.95,-507.66"/>
<polygon fill="#63b8ff" stroke="#63b8ff" points="150.05,-511.05 160.52,-509.47 151.35,-504.18 150.05,-511.05"/>
</a>
</g>
</g>
<!-- Node10 -->
<g id="Node000010" class="node">
<title>Node10</title>
<g id="a_Node000010"><a xlink:href="namespacejuce.html#a533576fe0cfc55d38cada5201749b673" target="_top" xlink:title=" ">
<polygon fill="white" stroke="#666666" points="292.62,-470.88 165.62,-470.88 165.62,-451.62 292.62,-451.62 292.62,-470.88"/>
<text xml:space="preserve" text-anchor="middle" x="229.12" y="-457.38" font-family="Helvetica,sans-Serif" font-size="10.00">juce::getValueWithDefault</text>
</a>
</g>
</g>
<!-- Node1&#45;&gt;Node10 -->
<g id="edge9_Node000001_Node000010" class="edge">
<title>Node1&#45;&gt;Node10</title>
<g id="a_edge9_Node000001_Node000010"><a xlink:title=" ">
<path fill="none" stroke="#63b8ff" d="M126.59,-479.82C138.12,-477.71 150.19,-475.51 161.82,-473.38"/>
<polygon fill="#63b8ff" stroke="#63b8ff" points="162.11,-476.88 171.32,-471.64 160.85,-470 162.11,-476.88"/>
</a>
</g>
</g>
<!-- Node11 -->
<g id="Node000011" class="node">
<title>Node11</title>
<g id="a_Node000011"><a xlink:href="classjuce_1_1MemoryOutputStream.html#a408a267b39483a0b543f2a4c9ef83319" target="_top" xlink:title=" ">
<polygon fill="white" stroke="#666666" points="296,-433.5 162.25,-433.5 162.25,-403 296,-403 296,-433.5"/>
<text xml:space="preserve" text-anchor="start" x="170.25" y="-420" font-family="Helvetica,sans-Serif" font-size="10.00">juce::MemoryOutputStream</text>
<text xml:space="preserve" text-anchor="middle" x="229.12" y="-408.75" font-family="Helvetica,sans-Serif" font-size="10.00">::writeRepeatedByte</text>
</a>
</g>
</g>
<!-- Node1&#45;&gt;Node11 -->
<g id="edge11_Node000001_Node000011" class="edge">
<title>Node1&#45;&gt;Node11</title>
<g id="a_edge11_Node000001_Node000011"><a xlink:title=" ">
<path fill="none" stroke="#63b8ff" d="M93.34,-475.57C112.64,-465.48 138.64,-452.41 162.25,-442.25 165.55,-440.83 168.96,-439.42 172.42,-438.04"/>
<polygon fill="#63b8ff" stroke="#63b8ff" points="173.4,-441.41 181.44,-434.52 170.86,-434.89 173.4,-441.41"/>
</a>
</g>
</g>
<!-- Node15 -->
<g id="Node000015" class="node">
<title>Node15</title>
<g id="a_Node000015"><a xlink:href="classjuce_1_1XmlElement.html#ab54dd2b8f530432d523f6e0f414308cc" target="_top" xlink:title=" ">
<polygon fill="white" stroke="#666666" points="293,-361.88 165.25,-361.88 165.25,-342.62 293,-342.62 293,-361.88"/>
<text xml:space="preserve" text-anchor="middle" x="229.12" y="-348.38" font-family="Helvetica,sans-Serif" font-size="10.00">juce::XmlElement::writeTo</text>
</a>
</g>
</g>
<!-- Node1&#45;&gt;Node15 -->
<g id="edge15_Node000001_Node000015" class="edge">
<title>Node1&#45;&gt;Node15</title>
<g id="a_edge15_Node000001_Node000015"><a xlink:title=" ">
<path fill="none" stroke="#63b8ff" d="M77.85,-475.77C96.05,-455.72 129.67,-420.25 162.25,-394.25 174.18,-384.73 188.34,-375.47 200.48,-368.07"/>
<polygon fill="#63b8ff" stroke="#63b8ff" points="202,-371.24 208.8,-363.11 198.42,-365.23 202,-371.24"/>
</a>
</g>
</g>
<!-- Node3 -->
<g id="Node000003" class="node">
<title>Node3</title>
<g id="a_Node000003"><a xlink:href="classjuce_1_1XmlElement.html#a147b952a2a71a0a6ea555a1adb1b06b4" target="_top" xlink:title=" ">
<polygon fill="white" stroke="#666666" points="481.88,-617.88 333.88,-617.88 333.88,-598.62 481.88,-598.62 481.88,-617.88"/>
<text xml:space="preserve" text-anchor="middle" x="407.88" y="-604.38" font-family="Helvetica,sans-Serif" font-size="10.00">juce::XmlElement::XmlElement</text>
</a>
</g>
</g>
<!-- Node2&#45;&gt;Node3 -->
<g id="edge2_Node000002_Node000003" class="edge">
<title>Node2&#45;&gt;Node3</title>
<g id="a_edge2_Node000002_Node000003"><a xlink:title=" ">
<path fill="none" stroke="#63b8ff" d="M295.94,-608.25C304.47,-608.25 313.3,-608.25 322.09,-608.25"/>
<polygon fill="#63b8ff" stroke="#63b8ff" points="322.06,-611.75 332.06,-608.25 322.06,-604.75 322.06,-611.75"/>
</a>
</g>
</g>
<!-- Node4 -->
<g id="Node000004" class="node">
<title>Node4</title>
<g id="a_Node000004"><a xlink:href="classjuce_1_1XmlElement.html#ad9b6a06ea5dd3d5bef03b088f529f8db" target="_top" xlink:title=" ">
<polygon fill="#fff0f0" stroke="red" points="646,-623.5 521.25,-623.5 521.25,-593 646,-593 646,-623.5"/>
<text xml:space="preserve" text-anchor="start" x="529.25" y="-610" font-family="Helvetica,sans-Serif" font-size="10.00">juce::XmlElement::isValid</text>
<text xml:space="preserve" text-anchor="middle" x="583.62" y="-598.75" font-family="Helvetica,sans-Serif" font-size="10.00">XmlName</text>
</a>
</g>
</g>
<!-- Node3&#45;&gt;Node4 -->
<g id="edge3_Node000003_Node000004" class="edge">
<title>Node3&#45;&gt;Node4</title>
<g id="a_edge3_Node000003_Node000004"><a xlink:title=" ">
<path fill="none" stroke="#63b8ff" d="M482.31,-608.25C491.36,-608.25 500.61,-608.25 509.66,-608.25"/>
<polygon fill="#63b8ff" stroke="#63b8ff" points="509.46,-611.75 519.46,-608.25 509.46,-604.75 509.46,-611.75"/>
</a>
</g>
</g>
<!-- Node8&#45;&gt;Node7 -->
<g id="edge8_Node000008_Node000007" class="edge">
<title>Node8&#45;&gt;Node7</title>
<g id="a_edge8_Node000008_Node000007"><a xlink:title=" ">
<path fill="none" stroke="#63b8ff" d="M294.69,-537.96C306.54,-540.84 319.01,-543.87 331.16,-546.83"/>
<polygon fill="#63b8ff" stroke="#63b8ff" points="330.18,-550.19 340.72,-549.16 331.83,-543.39 330.18,-550.19"/>
</a>
</g>
</g>
<!-- Node9 -->
<g id="Node000009" class="node">
<title>Node9</title>
<g id="a_Node000009"><a xlink:href="classjuce_1_1MemoryOutputStream.html#a050102f4ce6bec06a6e307434f467635" target="_top" xlink:title=" ">
<polygon fill="white" stroke="#666666" points="474.75,-531.5 341,-531.5 341,-501 474.75,-501 474.75,-531.5"/>
<text xml:space="preserve" text-anchor="start" x="349" y="-518" font-family="Helvetica,sans-Serif" font-size="10.00">juce::MemoryOutputStream</text>
<text xml:space="preserve" text-anchor="middle" x="407.88" y="-506.75" font-family="Helvetica,sans-Serif" font-size="10.00">::getData</text>
</a>
</g>
</g>
<!-- Node8&#45;&gt;Node9 -->
<g id="edge7_Node000008_Node000009" class="edge">
<title>Node8&#45;&gt;Node9</title>
<g id="a_edge7_Node000008_Node000009"><a xlink:title=" ">
<path fill="none" stroke="#63b8ff" d="M296.44,-520C307.2,-519.63 318.43,-519.25 329.43,-518.88"/>
<polygon fill="#63b8ff" stroke="#63b8ff" points="329.38,-522.38 339.26,-518.55 329.15,-515.39 329.38,-522.38"/>
</a>
</g>
</g>
<!-- Node10&#45;&gt;Node10 -->
<g id="edge10_Node000010_Node000010" class="edge">
<title>Node10&#45;&gt;Node10</title>
<g id="a_edge10_Node000010_Node000010"><a xlink:title=" ">
<path fill="none" stroke="#63b8ff" d="M203.14,-471.16C191.28,-479.77 199.95,-488.88 229.12,-488.88 245.54,-488.88 255.46,-485.99 258.89,-481.94"/>
<polygon fill="#63b8ff" stroke="#63b8ff" points="262.22,-480.87 255.61,-472.59 255.62,-483.19 262.22,-480.87"/>
</a>
</g>
</g>
<!-- Node12 -->
<g id="Node000012" class="node">
<title>Node12</title>
<g id="a_Node000012"><a xlink:href="classjuce_1_1MemoryOutputStream.html#ab53badd0ff843df2fada4426e915a537" target="_top" xlink:title=" ">
<polygon fill="white" stroke="#666666" points="474.75,-438.5 341,-438.5 341,-408 474.75,-408 474.75,-438.5"/>
<text xml:space="preserve" text-anchor="start" x="349" y="-425" font-family="Helvetica,sans-Serif" font-size="10.00">juce::MemoryOutputStream</text>
<text xml:space="preserve" text-anchor="middle" x="407.88" y="-413.75" font-family="Helvetica,sans-Serif" font-size="10.00">::prepareToWrite</text>
</a>
</g>
</g>
<!-- Node11&#45;&gt;Node12 -->
<g id="edge12_Node000011_Node000012" class="edge">
<title>Node11&#45;&gt;Node12</title>
<g id="a_edge12_Node000011_Node000012"><a xlink:title=" ">
<path fill="none" stroke="#63b8ff" d="M296.44,-420.13C307.2,-420.43 318.43,-420.75 329.43,-421.06"/>
<polygon fill="#63b8ff" stroke="#63b8ff" points="329.17,-424.55 339.26,-421.34 329.36,-417.56 329.17,-424.55"/>
</a>
</g>
</g>
<!-- Node13 -->
<g id="Node000013" class="node">
<title>Node13</title>
<g id="a_Node000013"><a xlink:href="CarlaEngineGraph_8cpp.html#ad294b8477886cae80a4cbfaffbdf3772" target="_top" xlink:title=" ">
<polygon fill="white" stroke="#666666" points="601.75,-464.88 565.5,-464.88 565.5,-445.62 601.75,-445.62 601.75,-464.88"/>
<text xml:space="preserve" text-anchor="middle" x="583.62" y="-451.38" font-family="Helvetica,sans-Serif" font-size="10.00">jmax</text>
</a>
</g>
</g>
<!-- Node12&#45;&gt;Node13 -->
<g id="edge13_Node000012_Node000013" class="edge">
<title>Node12&#45;&gt;Node13</title>
<g id="a_edge13_Node000012_Node000013"><a xlink:title=" ">
<path fill="none" stroke="#63b8ff" d="M475.06,-435.44C502.28,-440.45 532.38,-446 553.8,-449.94"/>
<polygon fill="#63b8ff" stroke="#63b8ff" points="553.07,-453.37 563.54,-451.74 554.34,-446.48 553.07,-453.37"/>
</a>
</g>
</g>
<!-- Node14 -->
<g id="Node000014" class="node">
<title>Node14</title>
<g id="a_Node000014"><a xlink:href="namespacejuce.html#a31dc5897289f074362c29fe54016f2dd" target="_top" xlink:title=" ">
<polygon fill="white" stroke="#666666" points="611.88,-427.88 555.38,-427.88 555.38,-408.62 611.88,-408.62 611.88,-427.88"/>
<text xml:space="preserve" text-anchor="middle" x="583.62" y="-414.38" font-family="Helvetica,sans-Serif" font-size="10.00">juce::jmin</text>
</a>
</g>
</g>
<!-- Node12&#45;&gt;Node14 -->
<g id="edge14_Node000012_Node000014" class="edge">
<title>Node12&#45;&gt;Node14</title>
<g id="a_edge14_Node000012_Node000014"><a xlink:title=" ">
<path fill="none" stroke="#63b8ff" d="M475.06,-421.35C498.31,-420.68 523.65,-419.95 543.9,-419.36"/>
<polygon fill="#63b8ff" stroke="#63b8ff" points="543.77,-422.87 553.67,-419.08 543.57,-415.87 543.77,-422.87"/>
</a>
</g>
</g>
<!-- Node15&#45;&gt;Node15 -->
<g id="edge34_Node000015_Node000015" class="edge">
<title>Node15&#45;&gt;Node15</title>
<g id="a_edge34_Node000015_Node000015"><a xlink:title=" ">
<path fill="none" stroke="#63b8ff" d="M203.14,-362.16C191.28,-370.77 199.95,-379.88 229.12,-379.88 245.54,-379.88 255.46,-376.99 258.89,-372.94"/>
<polygon fill="#63b8ff" stroke="#63b8ff" points="262.22,-371.87 255.61,-363.59 255.62,-374.19 262.22,-371.87"/>
</a>
</g>
</g>
<!-- Node16 -->
<g id="Node000016" class="node">
<title>Node16</title>
<g id="a_Node000016"><a xlink:href="classjuce_1_1String.html#af5084463343819f82187154ccb62ea3a" target="_top" xlink:title=" ">
<polygon fill="white" stroke="#666666" points="467.25,-389.88 348.5,-389.88 348.5,-370.62 467.25,-370.62 467.25,-389.88"/>
<text xml:space="preserve" text-anchor="middle" x="407.88" y="-376.38" font-family="Helvetica,sans-Serif" font-size="10.00">juce::String::isNotEmpty</text>
</a>
</g>
</g>
<!-- Node15&#45;&gt;Node16 -->
<g id="edge16_Node000015_Node000016" class="edge">
<title>Node15&#45;&gt;Node16</title>
<g id="a_edge16_Node000015_Node000016"><a xlink:title=" ">
<path fill="none" stroke="#63b8ff" d="M293.44,-362.28C307.51,-364.51 322.5,-366.88 336.82,-369.15"/>
<polygon fill="#63b8ff" stroke="#63b8ff" points="336.21,-372.6 346.64,-370.71 337.31,-365.69 336.21,-372.6"/>
</a>
</g>
</g>
<!-- Node17 -->
<g id="Node000017" class="node">
<title>Node17</title>
<g id="a_Node000017"><a xlink:href="classjuce_1_1OutputStream.html#a9594ee453f8a11d822d46b490132ea60" target="_top" xlink:title=" ">
<polygon fill="white" stroke="#666666" points="633.25,-362.5 534,-362.5 534,-332 633.25,-332 633.25,-362.5"/>
<text xml:space="preserve" text-anchor="start" x="542" y="-349" font-family="Helvetica,sans-Serif" font-size="10.00">juce::OutputStream</text>
<text xml:space="preserve" text-anchor="middle" x="583.62" y="-337.75" font-family="Helvetica,sans-Serif" font-size="10.00">::writeByte</text>
</a>
</g>
</g>
<!-- Node15&#45;&gt;Node17 -->
<g id="edge17_Node000015_Node000017" class="edge">
<title>Node15&#45;&gt;Node17</title>
<g id="a_edge17_Node000015_Node000017"><a xlink:title=" ">
<path fill="none" stroke="#63b8ff" d="M293.14,-351.36C358.02,-350.44 458.39,-349.01 522.28,-348.11"/>
<polygon fill="#63b8ff" stroke="#63b8ff" points="522.3,-351.61 532.25,-347.96 522.2,-344.61 522.3,-351.61"/>
</a>
</g>
</g>
<!-- Node89 -->
<g id="Node000089" class="node">
<title>Node89</title>
<g id="a_Node000089"><a xlink:href="classjuce_1_1XmlElement.html#a5dc108fe2840a9ce8f4de88669c01ee3" target="_top" xlink:title=" ">
<polygon fill="white" stroke="#666666" points="483.75,-215.5 332,-215.5 332,-185 483.75,-185 483.75,-215.5"/>
<text xml:space="preserve" text-anchor="start" x="340" y="-202" font-family="Helvetica,sans-Serif" font-size="10.00">juce::XmlElement::writeElement</text>
<text xml:space="preserve" text-anchor="middle" x="407.88" y="-190.75" font-family="Helvetica,sans-Serif" font-size="10.00">AsText</text>
</a>
</g>
</g>
<!-- Node15&#45;&gt;Node89 -->
<g id="edge21_Node000015_Node000089" class="edge">
<title>Node15&#45;&gt;Node89</title>
<g id="a_edge21_Node000015_Node000089"><a xlink:title=" ">
<path fill="none" stroke="#63b8ff" d="M241.72,-342.28C269.64,-318.27 341.16,-256.76 380.3,-223.1"/>
<polygon fill="#63b8ff" stroke="#63b8ff" points="382.15,-226.13 387.45,-216.96 377.58,-220.82 382.15,-226.13"/>
</a>
</g>
</g>
<!-- Node17&#45;&gt;Node17 -->
<g id="edge20_Node000017_Node000017" class="edge">
<title>Node17&#45;&gt;Node17</title>
<g id="a_edge20_Node000017_Node000017"><a xlink:title=" ">
<path fill="none" stroke="#63b8ff" d="M555.14,-362.99C549.33,-372.06 558.82,-380.5 583.62,-380.5 597.19,-380.5 606.18,-377.97 610.58,-374.2"/>
<polygon fill="#63b8ff" stroke="#63b8ff" points="614.02,-374.87 611.91,-364.49 607.09,-373.92 614.02,-374.87"/>
</a>
</g>
</g>
<!-- Node18 -->
<g id="Node000018" class="node">
<title>Node18</title>
<g id="a_Node000018"><a xlink:href="classjuce_1_1OutputStream.html#a22f9d3fa2137798e99cd135b04b0f1f9" target="_top" xlink:title=" ">
<polygon fill="#fff0f0" stroke="red" points="794,-362.5 694.75,-362.5 694.75,-332 794,-332 794,-362.5"/>
<text xml:space="preserve" text-anchor="start" x="702.75" y="-349" font-family="Helvetica,sans-Serif" font-size="10.00">juce::OutputStream</text>
<text xml:space="preserve" text-anchor="middle" x="744.38" y="-337.75" font-family="Helvetica,sans-Serif" font-size="10.00">::write</text>
</a>
</g>
</g>
<!-- Node17&#45;&gt;Node18 -->
<g id="edge18_Node000017_Node000018" class="edge">
<title>Node17&#45;&gt;Node18</title>
<g id="a_edge18_Node000017_Node000018"><a xlink:title=" ">
<path fill="none" stroke="#63b8ff" d="M633.55,-340.96C649.24,-340.46 666.81,-340.37 683.21,-340.68"/>
<polygon fill="#63b8ff" stroke="#63b8ff" points="682.74,-344.17 692.82,-340.92 682.92,-337.17 682.74,-344.17"/>
</a>
</g>
</g>
<!-- Node18&#45;&gt;Node17 -->
<g id="edge19_Node000018_Node000017" class="edge">
<title>Node18&#45;&gt;Node17</title>
<g id="a_edge19_Node000018_Node000017"><a xlink:title=" ">
<path fill="none" stroke="#63b8ff" d="M694.34,-353.54C678.64,-354.04 661.07,-354.13 644.68,-353.82"/>
<polygon fill="#63b8ff" stroke="#63b8ff" points="645.15,-350.33 635.06,-353.58 644.97,-357.33 645.15,-350.33"/>
</a>
</g>
</g>
<!-- Node89&#45;&gt;Node17 -->
<g id="edge31_Node000089_Node000017" class="edge">
<title>Node89&#45;&gt;Node17</title>
<g id="a_edge31_Node000089_Node000017"><a xlink:title=" ">
<path fill="none" stroke="#63b8ff" d="M420.29,-215.83C438.87,-240.28 477.78,-288.01 519.75,-318.25 523.75,-321.13 528.09,-323.84 532.55,-326.35"/>
<polygon fill="#63b8ff" stroke="#63b8ff" points="530.6,-329.28 541.08,-330.82 533.85,-323.08 530.6,-329.28"/>
</a>
</g>
</g>
<!-- Node89&#45;&gt;Node18 -->
<g id="edge30_Node000089_Node000018" class="edge">
<title>Node89&#45;&gt;Node18</title>
<g id="a_edge30_Node000089_Node000018"><a xlink:title=" ">
<path fill="none" stroke="#63b8ff" d="M424.79,-215.69C445.19,-234.67 482.41,-266.64 519.75,-285.25 534.54,-292.62 622.19,-316 683.26,-331.85"/>
<polygon fill="#63b8ff" stroke="#63b8ff" points="682.31,-335.22 692.87,-334.34 684.06,-328.44 682.31,-335.22"/>
</a>
</g>
</g>
<!-- Node90 -->
<g id="Node000090" class="node">
<title>Node90</title>
<g id="a_Node000090"><a xlink:href="namespacejuce_1_1XmlOutputFunctions.html#a750f7814f8619aa3a6efc60a5efcff93" target="_top" xlink:title=" ">
<polygon fill="#fff0f0" stroke="red" points="647.5,-258.5 519.75,-258.5 519.75,-228 647.5,-228 647.5,-258.5"/>
<text xml:space="preserve" text-anchor="start" x="527.75" y="-245" font-family="Helvetica,sans-Serif" font-size="10.00">juce::XmlOutputFunctions</text>
<text xml:space="preserve" text-anchor="middle" x="583.62" y="-233.75" font-family="Helvetica,sans-Serif" font-size="10.00">::escapeIllegalXmlChars</text>
</a>
</g>
</g>
<!-- Node89&#45;&gt;Node90 -->
<g id="edge22_Node000089_Node000090" class="edge">
<title>Node89&#45;&gt;Node90</title>
<g id="a_edge22_Node000089_Node000090"><a xlink:title=" ">
<path fill="none" stroke="#63b8ff" d="M472.09,-215.9C483.91,-218.82 496.35,-221.9 508.46,-224.89"/>
<polygon fill="#63b8ff" stroke="#63b8ff" points="507.44,-228.25 517.98,-227.25 509.12,-221.45 507.44,-228.25"/>
</a>
</g>
</g>
<!-- Node22 -->
<g id="Node000022" class="node">
<title>Node22</title>
<g id="a_Node000022"><a xlink:href="unzipfx-carla-control_2unzip_8h.html#a6146ec4ac32d62cf01b4c4c6587d5131" target="_top" xlink:title=" ">
<polygon fill="white" stroke="#666666" points="758.77,-230.88 729.98,-230.88 729.98,-211.62 758.77,-211.62 758.77,-230.88"/>
<text xml:space="preserve" text-anchor="middle" x="744.38" y="-217.38" font-family="Helvetica,sans-Serif" font-size="10.00">int</text>
</a>
</g>
</g>
<!-- Node89&#45;&gt;Node22 -->
<g id="edge28_Node000089_Node000022" class="edge">
<title>Node89&#45;&gt;Node22</title>
<g id="a_edge28_Node000089_Node000022"><a xlink:title=" ">
<path fill="none" stroke="#63b8ff" d="M483.94,-204.96C558.72,-209.66 669.25,-216.6 718.32,-219.68"/>
<polygon fill="#63b8ff" stroke="#63b8ff" points="717.97,-223.16 728.17,-220.3 718.41,-216.18 717.97,-223.16"/>
</a>
</g>
</g>
<!-- Node92 -->
<g id="Node000092" class="node">
<title>Node92</title>
<g id="a_Node000092"><a xlink:href="classjuce_1_1OutputStream.html#a59f3d5ebc107a1eaddbfbe9808fac7f8" target="_top" xlink:title=" ">
<polygon fill="white" stroke="#666666" points="633.25,-172.5 534,-172.5 534,-142 633.25,-142 633.25,-172.5"/>
<text xml:space="preserve" text-anchor="start" x="542" y="-159" font-family="Helvetica,sans-Serif" font-size="10.00">juce::OutputStream</text>
<text xml:space="preserve" text-anchor="middle" x="583.62" y="-147.75" font-family="Helvetica,sans-Serif" font-size="10.00">::getPosition</text>
</a>
</g>
</g>
<!-- Node89&#45;&gt;Node92 -->
<g id="edge25_Node000089_Node000092" class="edge">
<title>Node89&#45;&gt;Node92</title>
<g id="a_edge25_Node000089_Node000092"><a xlink:title=" ">
<path fill="none" stroke="#63b8ff" d="M472.09,-184.6C488.57,-180.53 506.28,-176.14 522.58,-172.11"/>
<polygon fill="#63b8ff" stroke="#63b8ff" points="523.28,-175.54 532.15,-169.74 521.6,-168.75 523.28,-175.54"/>
</a>
</g>
</g>
<!-- Node93 -->
<g id="Node000093" class="node">
<title>Node93</title>
<g id="a_Node000093"><a xlink:href="classjuce_1_1XmlElement.html#a671232b072003b9c02b2c6eee2821407" target="_top" xlink:title=" ">
<polygon fill="#fff0f0" stroke="red" points="647.5,-123.88 519.75,-123.88 519.75,-104.62 647.5,-104.62 647.5,-123.88"/>
<text xml:space="preserve" text-anchor="middle" x="583.62" y="-110.38" font-family="Helvetica,sans-Serif" font-size="10.00">juce::XmlElement::getText</text>
</a>
</g>
</g>
<!-- Node89&#45;&gt;Node93 -->
<g id="edge26_Node000089_Node000093" class="edge">
<title>Node89&#45;&gt;Node93</title>
<g id="a_edge26_Node000089_Node000093"><a xlink:title=" ">
<path fill="none" stroke="#63b8ff" d="M430.91,-184.66C452.66,-169.83 487.28,-147.69 519.75,-133.25 524.03,-131.35 528.55,-129.57 533.13,-127.92"/>
<polygon fill="#63b8ff" stroke="#63b8ff" points="534.04,-131.3 542.4,-124.79 531.8,-124.67 534.04,-131.3"/>
</a>
</g>
</g>
<!-- Node97 -->
<g id="Node000097" class="node">
<title>Node97</title>
<g id="a_Node000097"><a xlink:href="classjuce_1_1XmlElement.html#a303c7a894d76bd76311e82338faea60d" target="_top" xlink:title=" ">
<polygon fill="white" stroke="#666666" points="805.25,-110.5 683.5,-110.5 683.5,-80 805.25,-80 805.25,-110.5"/>
<text xml:space="preserve" text-anchor="start" x="691.5" y="-97" font-family="Helvetica,sans-Serif" font-size="10.00">juce::XmlElement::isText</text>
<text xml:space="preserve" text-anchor="middle" x="744.38" y="-85.75" font-family="Helvetica,sans-Serif" font-size="10.00">Element</text>
</a>
</g>
</g>
<!-- Node89&#45;&gt;Node97 -->
<g id="edge29_Node000089_Node000097" class="edge">
<title>Node89&#45;&gt;Node97</title>
<g id="a_edge29_Node000089_Node000097"><a xlink:title=" ">
<path fill="none" stroke="#63b8ff" d="M419.22,-184.69C436.57,-160.15 474.19,-113.4 519.75,-95.25 567.96,-76.04 626.8,-76.9 672.01,-82.09"/>
<polygon fill="#63b8ff" stroke="#63b8ff" points="671.34,-85.54 681.7,-83.31 672.22,-78.59 671.34,-85.54"/>
</a>
</g>
</g>
<!-- Node98 -->
<g id="Node000098" class="node">
<title>Node98</title>
<g id="a_Node000098"><a xlink:href="namespacejuce_1_1XmlOutputFunctions.html#aafffcd248a15159d8042112436cfbab5" target="_top" xlink:title=" ">
<polygon fill="white" stroke="#666666" points="647.5,-30.5 519.75,-30.5 519.75,0 647.5,0 647.5,-30.5"/>
<text xml:space="preserve" text-anchor="start" x="527.75" y="-17" font-family="Helvetica,sans-Serif" font-size="10.00">juce::XmlOutputFunctions</text>
<text xml:space="preserve" text-anchor="middle" x="583.62" y="-5.75" font-family="Helvetica,sans-Serif" font-size="10.00">::writeSpaces</text>
</a>
</g>
</g>
<!-- Node89&#45;&gt;Node98 -->
<g id="edge32_Node000089_Node000098" class="edge">
<title>Node89&#45;&gt;Node98</title>
<g id="a_edge32_Node000089_Node000098"><a xlink:title=" ">
<path fill="none" stroke="#63b8ff" d="M419.39,-184.71C437.87,-158 478.19,-102.39 519.75,-62.25 528.81,-53.5 539.53,-44.94 549.53,-37.57"/>
<polygon fill="#63b8ff" stroke="#63b8ff" points="551.5,-40.46 557.58,-31.79 547.42,-34.78 551.5,-40.46"/>
</a>
</g>
</g>
<!-- Node90&#45;&gt;Node90 -->
<g id="edge23_Node000090_Node000090" class="edge">
<title>Node90&#45;&gt;Node90</title>
<g id="a_edge23_Node000090_Node000090"><a xlink:title=" ">
<path fill="none" stroke="#63b8ff" d="M555.14,-258.99C549.33,-268.06 558.82,-276.5 583.62,-276.5 597.19,-276.5 606.18,-273.97 610.58,-270.2"/>
<polygon fill="#63b8ff" stroke="#63b8ff" points="614.02,-270.87 611.91,-260.49 607.09,-269.92 614.02,-270.87"/>
</a>
</g>
</g>
<!-- Node90&#45;&gt;Node22 -->
<g id="edge24_Node000090_Node000022" class="edge">
<title>Node90&#45;&gt;Node22</title>
<g id="a_edge24_Node000090_Node000022"><a xlink:title=" ">
<path fill="none" stroke="#63b8ff" d="M647.82,-234.49C672.51,-231.07 699.37,-227.35 718.31,-224.72"/>
<polygon fill="#63b8ff" stroke="#63b8ff" points="718.58,-228.22 728.01,-223.38 717.62,-221.29 718.58,-228.22"/>
</a>
</g>
</g>
<!-- Node93&#45;&gt;Node97 -->
<g id="edge27_Node000093_Node000097" class="edge">
<title>Node93&#45;&gt;Node97</title>
<g id="a_edge27_Node000093_Node000097"><a xlink:title=" ">
<path fill="none" stroke="#63b8ff" d="M647.82,-106.69C655.76,-105.74 663.92,-104.76 671.96,-103.8"/>
<polygon fill="#63b8ff" stroke="#63b8ff" points="672.22,-107.29 681.73,-102.63 671.39,-100.34 672.22,-107.29"/>
</a>
</g>
</g>
<!-- Node98&#45;&gt;Node98 -->
<g id="edge33_Node000098_Node000098" class="edge">
<title>Node98&#45;&gt;Node98</title>
<g id="a_edge33_Node000098_Node000098"><a xlink:title=" ">
<path fill="none" stroke="#63b8ff" d="M555.14,-30.99C549.33,-40.06 558.82,-48.5 583.62,-48.5 597.19,-48.5 606.18,-45.97 610.58,-42.2"/>
<polygon fill="#63b8ff" stroke="#63b8ff" points="614.02,-42.87 611.91,-32.49 607.09,-41.92 614.02,-42.87"/>
</a>
</g>
</g>
</g>
</svg>
