<?xml version="1.0" encoding="UTF-8" standalone="no"?>
<!DOCTYPE svg PUBLIC "-//W3C//DTD SVG 1.1//EN"
 "http://www.w3.org/Graphics/SVG/1.1/DTD/svg11.dtd">
<!-- Generated by graphviz version 14.0.2 (0)
 -->
<!-- Title: lmms::PathUtil::relativeOrAbsolute Pages: 1 -->
<!--zoomable 566 -->

<svg id="main" version="1.1" xmlns="http://www.w3.org/2000/svg" xmlns:xlink="http://www.w3.org/1999/xlink" xml:space="preserve" onload="init(evt)">

<style type="text/css"><![CDATA[
.node, .edge {opacity: 0.7;}
.node.selected, .edge.selected {opacity: 1;}
.edge:hover path { stroke: red; }
.edge:hover polygon { stroke: red; fill: red; }
]]></style>

<defs>
  <circle id="rim" cx="0" cy="0" r="7"/>
  <circle id="rim2" cx="0" cy="0" r="3.5"/>
  <g id="zoomPlus">
    <use xlink:href="#rim" fill="#404040"><set attributeName="fill" to="#808080" begin="zoomplus.mouseover" end="zoomplus.mouseout"/></use>
    <path d="M-4,0h8M0,-4v8" fill="none" stroke="white" stroke-width="1.5" pointer-events="none"/>
  </g>
  <g id="zoomMin">
    <use xlink:href="#rim" fill="#404040"><set attributeName="fill" to="#808080" begin="zoomminus.mouseover" end="zoomminus.mouseout"/></use>
    <path d="M-4,0h8" fill="none" stroke="white" stroke-width="1.5" pointer-events="none"/>
  </g>
  <g id="arrowUp" transform="translate(30 24)">
    <use xlink:href="#rim"/>
    <path pointer-events="none" fill="none" stroke="white" stroke-width="1.5" d="M0,-3.0v7 M-2.5,-0.5L0,-3.0L2.5,-0.5"/>
  </g>
  <g id="arrowRight" transform="rotate(90) translate(36 -43)">
    <use xlink:href="#rim"/>
    <path pointer-events="none" fill="none" stroke="white" stroke-width="1.5" d="M0,-3.0v7 M-2.5,-0.5L0,-3.0L2.5,-0.5"/>
  </g>
  <g id="arrowDown" transform="rotate(180) translate(-30 -48)">
    <use xlink:href="#rim"/>
    <path pointer-events="none" fill="none" stroke="white" stroke-width="1.5" d="M0,-3.0v7 M-2.5,-0.5L0,-3.0L2.5,-0.5"/>
  </g>
  <g id="arrowLeft" transform="rotate(270) translate(-36 17)">
    <use xlink:href="#rim"/>
    <path pointer-events="none" fill="none" stroke="white" stroke-width="1.5" d="M0,-3.0v7 M-2.5,-0.5L0,-3.0L2.5,-0.5"/>
  </g>
  <g id="resetDef">
    <use xlink:href="#rim2" fill="#404040"><set attributeName="fill" to="#808080" begin="reset.mouseover" end="reset.mouseout"/></use>
  </g>
</defs>
<script type="application/ecmascript">
var viewWidth = 793;
var viewHeight = 566;
var sectionId = 'dynsection-11';
</script>
<script type="application/ecmascript" xlink:href="svg.min.js"/>
<svg id="graph" class="graph">
<g id="viewport">
<title>lmms::PathUtil::relativeOrAbsolute</title>
<!-- Node1 -->
<g id="Node000001" class="node">
<title>Node1</title>
<g id="a_Node000001"><a xlink:title="Make this path relative to a given base, return an absolute path if that fails.">
<polygon fill="#999999" stroke="#666666" points="115.75,-274.5 0,-274.5 0,-244 115.75,-244 115.75,-274.5"/>
<text xml:space="preserve" text-anchor="start" x="8" y="-261" font-family="Helvetica,sans-Serif" font-size="10.00">lmms::PathUtil::relative</text>
<text xml:space="preserve" text-anchor="middle" x="57.88" y="-249.75" font-family="Helvetica,sans-Serif" font-size="10.00">OrAbsolute</text>
</a>
</g>
</g>
<!-- Node2 -->
<g id="Node000002" class="node">
<title>Node2</title>
<g id="a_Node000002"><a xlink:href="namespacelmms_1_1PathUtil.html#a7818f2162e4377a9c2209be3a5dd678b" target="_top" xlink:title=" ">
<polygon fill="white" stroke="#666666" points="279.5,-309.88 154.75,-309.88 154.75,-290.62 279.5,-290.62 279.5,-309.88"/>
<text xml:space="preserve" text-anchor="middle" x="217.12" y="-296.38" font-family="Helvetica,sans-Serif" font-size="10.00">lmms::PathUtil::baseQDir</text>
</a>
</g>
</g>
<!-- Node1&#45;&gt;Node2 -->
<g id="edge1_Node000001_Node000002" class="edge">
<title>Node1&#45;&gt;Node2</title>
<g id="a_edge1_Node000001_Node000002"><a xlink:title=" ">
<path fill="none" stroke="#63b8ff" d="M116.09,-274.17C132.64,-278.48 150.57,-283.16 166.61,-287.34"/>
<polygon fill="#63b8ff" stroke="#63b8ff" points="165.35,-290.63 175.91,-289.76 167.12,-283.85 165.35,-290.63"/>
</a>
</g>
</g>
<!-- Node21 -->
<g id="Node000021" class="node">
<title>Node21</title>
<g id="a_Node000021"><a xlink:href="namespacelmms_1_1PathUtil.html#a8e07f5dcaa147dff2a6224e727539d9c" target="_top" xlink:title=" ">
<polygon fill="white" stroke="#666666" points="282.5,-250.88 151.75,-250.88 151.75,-231.62 282.5,-231.62 282.5,-250.88"/>
<text xml:space="preserve" text-anchor="middle" x="217.12" y="-237.38" font-family="Helvetica,sans-Serif" font-size="10.00">lmms::PathUtil::toAbsolute</text>
</a>
</g>
</g>
<!-- Node1&#45;&gt;Node21 -->
<g id="edge15_Node000001_Node000021" class="edge">
<title>Node1&#45;&gt;Node21</title>
<g id="a_edge15_Node000001_Node000021"><a xlink:title=" ">
<path fill="none" stroke="#63b8ff" d="M116.09,-252.7C123.91,-251.81 132.03,-250.88 140.12,-249.95"/>
<polygon fill="#63b8ff" stroke="#63b8ff" points="140.46,-253.43 149.99,-248.82 139.66,-246.48 140.46,-253.43"/>
</a>
</g>
</g>
<!-- Node3 -->
<g id="Node000003" class="node">
<title>Node3</title>
<g id="a_Node000003"><a xlink:href="namespacelmms_1_1PathUtil.html#afb638703372165aa5d4f073b8d93a9e9" target="_top" xlink:title=" ">
<polygon fill="white" stroke="#666666" points="634.75,-293.88 492,-293.88 492,-274.62 634.75,-274.62 634.75,-293.88"/>
<text xml:space="preserve" text-anchor="middle" x="563.38" y="-280.38" font-family="Helvetica,sans-Serif" font-size="10.00">lmms::PathUtil::baseLocation</text>
</a>
</g>
</g>
<!-- Node2&#45;&gt;Node3 -->
<g id="edge2_Node000002_Node000003" class="edge">
<title>Node2&#45;&gt;Node3</title>
<g id="a_edge2_Node000002_Node000003"><a xlink:title=" ">
<path fill="none" stroke="#63b8ff" d="M279.81,-301.8C327.88,-302.5 396.26,-302.42 456,-298.25 465.05,-297.62 474.51,-296.72 483.89,-295.68"/>
<polygon fill="#63b8ff" stroke="#63b8ff" points="484.23,-299.17 493.75,-294.53 483.42,-292.21 484.23,-299.17"/>
</a>
</g>
</g>
<!-- Node4 -->
<g id="Node000004" class="node">
<title>Node4</title>
<g id="a_Node000004"><a xlink:href="classlmms_1_1Engine.html#a8b943018d0245555391473f4a7d75b5b" target="_top" xlink:title=" ">
<polygon fill="white" stroke="#666666" points="785,-557.88 670.75,-557.88 670.75,-538.62 785,-538.62 785,-557.88"/>
<text xml:space="preserve" text-anchor="middle" x="727.88" y="-544.38" font-family="Helvetica,sans-Serif" font-size="10.00">lmms::Engine::getSong</text>
</a>
</g>
</g>
<!-- Node3&#45;&gt;Node4 -->
<g id="edge3_Node000003_Node000004" class="edge">
<title>Node3&#45;&gt;Node4</title>
<g id="a_edge3_Node000003_Node000004"><a xlink:title=" ">
<path fill="none" stroke="#63b8ff" d="M565.79,-294.32C571.53,-331.27 596.36,-460.8 670.75,-529.25 671.98,-530.38 673.28,-531.45 674.64,-532.45"/>
<polygon fill="#63b8ff" stroke="#63b8ff" points="672.57,-535.29 682.96,-537.41 676.16,-529.28 672.57,-535.29"/>
</a>
</g>
</g>
<!-- Node5 -->
<g id="Node000005" class="node">
<title>Node5</title>
<g id="a_Node000005"><a xlink:href="classlmms_1_1ConfigManager.html#a598d28de397b778eb3beacab0372375a" target="_top" xlink:title=" ">
<polygon fill="white" stroke="#666666" points="782.38,-520.5 673.38,-520.5 673.38,-490 782.38,-490 782.38,-520.5"/>
<text xml:space="preserve" text-anchor="start" x="681.38" y="-507" font-family="Helvetica,sans-Serif" font-size="10.00">lmms::ConfigManager</text>
<text xml:space="preserve" text-anchor="middle" x="727.88" y="-495.75" font-family="Helvetica,sans-Serif" font-size="10.00">::gigDir</text>
</a>
</g>
</g>
<!-- Node3&#45;&gt;Node5 -->
<g id="edge4_Node000003_Node000005" class="edge">
<title>Node3&#45;&gt;Node5</title>
<g id="a_edge4_Node000003_Node000005"><a xlink:title=" ">
<path fill="none" stroke="#63b8ff" d="M567.25,-294.24C576.77,-325.76 610.2,-424.26 670.75,-480.25 671.95,-481.36 673.21,-482.42 674.51,-483.45"/>
<polygon fill="#63b8ff" stroke="#63b8ff" points="672.15,-486.08 682.4,-488.76 676.06,-480.27 672.15,-486.08"/>
</a>
</g>
</g>
<!-- Node6 -->
<g id="Node000006" class="node">
<title>Node6</title>
<g id="a_Node000006"><a xlink:href="classlmms_1_1ConfigManager.html#aed1127d4ab5ccc02af03698c5c47e270" target="_top" xlink:title=" ">
<polygon fill="#fff0f0" stroke="red" points="782.38,-471.5 673.38,-471.5 673.38,-441 782.38,-441 782.38,-471.5"/>
<text xml:space="preserve" text-anchor="start" x="681.38" y="-458" font-family="Helvetica,sans-Serif" font-size="10.00">lmms::ConfigManager</text>
<text xml:space="preserve" text-anchor="middle" x="727.88" y="-446.75" font-family="Helvetica,sans-Serif" font-size="10.00">::inst</text>
</a>
</g>
</g>
<!-- Node3&#45;&gt;Node6 -->
<g id="edge5_Node000003_Node000006" class="edge">
<title>Node3&#45;&gt;Node6</title>
<g id="a_edge5_Node000003_Node000006"><a xlink:title=" ">
<path fill="none" stroke="#63b8ff" d="M569.2,-294.2C582.19,-320.09 620.36,-390.36 670.75,-431.25 672.23,-432.45 673.78,-433.61 675.38,-434.72"/>
<polygon fill="#63b8ff" stroke="#63b8ff" points="673.31,-437.56 683.67,-439.79 676.97,-431.59 673.31,-437.56"/>
</a>
</g>
</g>
<!-- Node11 -->
<g id="Node000011" class="node">
<title>Node11</title>
<g id="a_Node000011"><a xlink:href="classlmms_1_1ConfigManager.html#adba7cdbfbf7f120434970bb2b5040729" target="_top" xlink:title=" ">
<polygon fill="white" stroke="#666666" points="782.38,-422.5 673.38,-422.5 673.38,-392 782.38,-392 782.38,-422.5"/>
<text xml:space="preserve" text-anchor="start" x="681.38" y="-409" font-family="Helvetica,sans-Serif" font-size="10.00">lmms::ConfigManager</text>
<text xml:space="preserve" text-anchor="middle" x="727.88" y="-397.75" font-family="Helvetica,sans-Serif" font-size="10.00">::ladspaDir</text>
</a>
</g>
</g>
<!-- Node3&#45;&gt;Node11 -->
<g id="edge6_Node000003_Node000011" class="edge">
<title>Node3&#45;&gt;Node11</title>
<g id="a_edge6_Node000003_Node000011"><a xlink:title=" ">
<path fill="none" stroke="#63b8ff" d="M573.17,-294.3C590.36,-313.44 630.26,-355.62 670.75,-382.25 672.85,-383.63 675.04,-384.97 677.28,-386.26"/>
<polygon fill="#63b8ff" stroke="#63b8ff" points="675.55,-389.31 686.03,-390.91 678.84,-383.13 675.55,-389.31"/>
</a>
</g>
</g>
<!-- Node12 -->
<g id="Node000012" class="node">
<title>Node12</title>
<g id="a_Node000012"><a xlink:href="classlmms_1_1ConfigManager.html#aac702459d2d0856392d9de6b0a692293" target="_top" xlink:title=" ">
<polygon fill="white" stroke="#666666" points="782.38,-373.5 673.38,-373.5 673.38,-343 782.38,-343 782.38,-373.5"/>
<text xml:space="preserve" text-anchor="start" x="681.38" y="-360" font-family="Helvetica,sans-Serif" font-size="10.00">lmms::ConfigManager</text>
<text xml:space="preserve" text-anchor="middle" x="727.88" y="-348.75" font-family="Helvetica,sans-Serif" font-size="10.00">::sf2Dir</text>
</a>
</g>
</g>
<!-- Node3&#45;&gt;Node12 -->
<g id="edge7_Node000003_Node000012" class="edge">
<title>Node3&#45;&gt;Node12</title>
<g id="a_edge7_Node000003_Node000012"><a xlink:title=" ">
<path fill="none" stroke="#63b8ff" d="M585.93,-294.28C607.4,-304.24 641.3,-319.91 670.75,-333.25 674.1,-334.77 677.57,-336.33 681.06,-337.9"/>
<polygon fill="#63b8ff" stroke="#63b8ff" points="679.58,-341.07 690.13,-341.96 682.44,-334.68 679.58,-341.07"/>
</a>
</g>
</g>
<!-- Node13 -->
<g id="Node000013" class="node">
<title>Node13</title>
<g id="a_Node000013"><a xlink:href="classlmms_1_1ConfigManager.html#afe780c5916f2504628293fe2dc77f788" target="_top" xlink:title=" ">
<polygon fill="#fff0f0" stroke="red" points="782.38,-324.5 673.38,-324.5 673.38,-294 782.38,-294 782.38,-324.5"/>
<text xml:space="preserve" text-anchor="start" x="681.38" y="-311" font-family="Helvetica,sans-Serif" font-size="10.00">lmms::ConfigManager</text>
<text xml:space="preserve" text-anchor="middle" x="727.88" y="-299.75" font-family="Helvetica,sans-Serif" font-size="10.00">::userGigDir</text>
</a>
</g>
</g>
<!-- Node3&#45;&gt;Node13 -->
<g id="edge8_Node000003_Node000013" class="edge">
<title>Node3&#45;&gt;Node13</title>
<g id="a_edge8_Node000003_Node000013"><a xlink:title=" ">
<path fill="none" stroke="#63b8ff" d="M630,-294.35C640.48,-295.96 651.32,-297.63 661.79,-299.24"/>
<polygon fill="#63b8ff" stroke="#63b8ff" points="661.05,-302.66 671.47,-300.73 662.12,-295.75 661.05,-302.66"/>
</a>
</g>
</g>
<!-- Node15 -->
<g id="Node000015" class="node">
<title>Node15</title>
<g id="a_Node000015"><a xlink:href="classlmms_1_1ConfigManager.html#aa31dd9a101cf7451c65bf3ac6cfc504f" target="_top" xlink:title=" ">
<polygon fill="#fff0f0" stroke="red" points="782.38,-275.5 673.38,-275.5 673.38,-245 782.38,-245 782.38,-275.5"/>
<text xml:space="preserve" text-anchor="start" x="681.38" y="-262" font-family="Helvetica,sans-Serif" font-size="10.00">lmms::ConfigManager</text>
<text xml:space="preserve" text-anchor="middle" x="727.88" y="-250.75" font-family="Helvetica,sans-Serif" font-size="10.00">::userLadspaDir</text>
</a>
</g>
</g>
<!-- Node3&#45;&gt;Node15 -->
<g id="edge9_Node000003_Node000015" class="edge">
<title>Node3&#45;&gt;Node15</title>
<g id="a_edge9_Node000003_Node000015"><a xlink:title=" ">
<path fill="none" stroke="#63b8ff" d="M632.82,-274.14C642.54,-272.71 652.52,-271.23 662.17,-269.81"/>
<polygon fill="#63b8ff" stroke="#63b8ff" points="662.44,-273.3 671.82,-268.38 661.42,-266.38 662.44,-273.3"/>
</a>
</g>
</g>
<!-- Node16 -->
<g id="Node000016" class="node">
<title>Node16</title>
<g id="a_Node000016"><a xlink:href="classlmms_1_1ConfigManager.html#a0d6cdb70151c22cfe8a3915cb315c00d" target="_top" xlink:title=" ">
<polygon fill="#fff0f0" stroke="red" points="782.38,-226.5 673.38,-226.5 673.38,-196 782.38,-196 782.38,-226.5"/>
<text xml:space="preserve" text-anchor="start" x="681.38" y="-213" font-family="Helvetica,sans-Serif" font-size="10.00">lmms::ConfigManager</text>
<text xml:space="preserve" text-anchor="middle" x="727.88" y="-201.75" font-family="Helvetica,sans-Serif" font-size="10.00">::userPresetsDir</text>
</a>
</g>
</g>
<!-- Node3&#45;&gt;Node16 -->
<g id="edge10_Node000003_Node000016" class="edge">
<title>Node3&#45;&gt;Node16</title>
<g id="a_edge10_Node000003_Node000016"><a xlink:title=" ">
<path fill="none" stroke="#63b8ff" d="M586.36,-274.29C607.86,-264.56 641.54,-249.35 670.75,-236.25 674.11,-234.74 677.58,-233.19 681.08,-231.63"/>
<polygon fill="#63b8ff" stroke="#63b8ff" points="682.45,-234.85 690.15,-227.58 679.59,-228.46 682.45,-234.85"/>
</a>
</g>
</g>
<!-- Node17 -->
<g id="Node000017" class="node">
<title>Node17</title>
<g id="a_Node000017"><a xlink:href="classlmms_1_1ConfigManager.html#a53853fb0c5d8071c478730d0c707d259" target="_top" xlink:title=" ">
<polygon fill="#fff0f0" stroke="red" points="782.38,-177.5 673.38,-177.5 673.38,-147 782.38,-147 782.38,-177.5"/>
<text xml:space="preserve" text-anchor="start" x="681.38" y="-164" font-family="Helvetica,sans-Serif" font-size="10.00">lmms::ConfigManager</text>
<text xml:space="preserve" text-anchor="middle" x="727.88" y="-152.75" font-family="Helvetica,sans-Serif" font-size="10.00">::userProjectsDir</text>
</a>
</g>
</g>
<!-- Node3&#45;&gt;Node17 -->
<g id="edge11_Node000003_Node000017" class="edge">
<title>Node3&#45;&gt;Node17</title>
<g id="a_edge11_Node000003_Node000017"><a xlink:title=" ">
<path fill="none" stroke="#63b8ff" d="M574.8,-274.39C599.47,-251.12 660.13,-194.19 670.75,-187.25 672.85,-185.87 675.05,-184.54 677.29,-183.25"/>
<polygon fill="#63b8ff" stroke="#63b8ff" points="678.85,-186.39 686.04,-178.61 675.57,-180.2 678.85,-186.39"/>
</a>
</g>
</g>
<!-- Node18 -->
<g id="Node000018" class="node">
<title>Node18</title>
<g id="a_Node000018"><a xlink:href="classlmms_1_1ConfigManager.html#abba8cac98f42c6b93258fb4977ba6c8e" target="_top" xlink:title=" ">
<polygon fill="#fff0f0" stroke="red" points="782.38,-128.5 673.38,-128.5 673.38,-98 782.38,-98 782.38,-128.5"/>
<text xml:space="preserve" text-anchor="start" x="681.38" y="-115" font-family="Helvetica,sans-Serif" font-size="10.00">lmms::ConfigManager</text>
<text xml:space="preserve" text-anchor="middle" x="727.88" y="-103.75" font-family="Helvetica,sans-Serif" font-size="10.00">::userSamplesDir</text>
</a>
</g>
</g>
<!-- Node3&#45;&gt;Node18 -->
<g id="edge12_Node000003_Node000018" class="edge">
<title>Node3&#45;&gt;Node18</title>
<g id="a_edge12_Node000003_Node000018"><a xlink:title=" ">
<path fill="none" stroke="#63b8ff" d="M577.78,-274.13C593.14,-261.98 618.31,-240.34 634.75,-217.25 657.13,-185.82 643.35,-165.42 670.75,-138.25 671.64,-137.37 672.57,-136.51 673.52,-135.69"/>
<polygon fill="#63b8ff" stroke="#63b8ff" points="675.55,-138.54 681.62,-129.86 671.46,-132.86 675.55,-138.54"/>
</a>
</g>
</g>
<!-- Node19 -->
<g id="Node000019" class="node">
<title>Node19</title>
<g id="a_Node000019"><a xlink:href="classlmms_1_1ConfigManager.html#aed5eb281e7bf130cbcb04e7ee237fc0d" target="_top" xlink:title=" ">
<polygon fill="#fff0f0" stroke="red" points="782.38,-79.5 673.38,-79.5 673.38,-49 782.38,-49 782.38,-79.5"/>
<text xml:space="preserve" text-anchor="start" x="681.38" y="-66" font-family="Helvetica,sans-Serif" font-size="10.00">lmms::ConfigManager</text>
<text xml:space="preserve" text-anchor="middle" x="727.88" y="-54.75" font-family="Helvetica,sans-Serif" font-size="10.00">::userSf2Dir</text>
</a>
</g>
</g>
<!-- Node3&#45;&gt;Node19 -->
<g id="edge13_Node000003_Node000019" class="edge">
<title>Node3&#45;&gt;Node19</title>
<g id="a_edge13_Node000003_Node000019"><a xlink:title=" ">
<path fill="none" stroke="#63b8ff" d="M578.71,-274.34C594.7,-262.54 620.22,-241.38 634.75,-217.25 665.24,-166.63 632.1,-133.95 670.75,-89.25 671.42,-88.47 672.12,-87.72 672.85,-86.99"/>
<polygon fill="#63b8ff" stroke="#63b8ff" points="674.74,-89.96 680.3,-80.94 670.33,-84.53 674.74,-89.96"/>
</a>
</g>
</g>
<!-- Node20 -->
<g id="Node000020" class="node">
<title>Node20</title>
<g id="a_Node000020"><a xlink:href="classlmms_1_1ConfigManager.html#a10a9e395be776c38955804d55428e3ef" target="_top" xlink:title=" ">
<polygon fill="white" stroke="#666666" points="782.38,-30.5 673.38,-30.5 673.38,0 782.38,0 782.38,-30.5"/>
<text xml:space="preserve" text-anchor="start" x="681.38" y="-17" font-family="Helvetica,sans-Serif" font-size="10.00">lmms::ConfigManager</text>
<text xml:space="preserve" text-anchor="middle" x="727.88" y="-5.75" font-family="Helvetica,sans-Serif" font-size="10.00">::userVstDir</text>
</a>
</g>
</g>
<!-- Node3&#45;&gt;Node20 -->
<g id="edge14_Node000003_Node000020" class="edge">
<title>Node3&#45;&gt;Node20</title>
<g id="a_edge14_Node000003_Node000020"><a xlink:title=" ">
<path fill="none" stroke="#63b8ff" d="M579.33,-274.32C595.63,-262.65 621.19,-241.75 634.75,-217.25 673.61,-147.01 620.51,-102.86 670.75,-40.25 671.29,-39.58 671.85,-38.93 672.43,-38.29"/>
<polygon fill="#63b8ff" stroke="#63b8ff" points="674.51,-41.12 679.79,-31.93 669.93,-35.82 674.51,-41.12"/>
</a>
</g>
</g>
<!-- Node21&#45;&gt;Node3 -->
<g id="edge16_Node000021_Node000003" class="edge">
<title>Node21&#45;&gt;Node3</title>
<g id="a_edge16_Node000021_Node000003"><a xlink:title=" ">
<path fill="none" stroke="#63b8ff" d="M254.09,-251.3C273.1,-256.24 296.91,-261.85 318.5,-265.25 371.98,-273.67 432.68,-278.42 480.14,-281.06"/>
<polygon fill="#63b8ff" stroke="#63b8ff" points="479.91,-284.55 490.09,-281.59 480.29,-277.56 479.91,-284.55"/>
</a>
</g>
</g>
<!-- Node22 -->
<g id="Node000022" class="node">
<title>Node22</title>
<g id="a_Node000022"><a xlink:href="namespacelmms_1_1PathUtil.html#a232d23cb52de913c734bee7fb80eb46d" target="_top" xlink:title=" ">
<polygon fill="white" stroke="#666666" points="456,-207.88 318.5,-207.88 318.5,-188.62 456,-188.62 456,-207.88"/>
<text xml:space="preserve" text-anchor="middle" x="387.25" y="-194.38" font-family="Helvetica,sans-Serif" font-size="10.00">lmms::PathUtil::baseLookup</text>
</a>
</g>
</g>
<!-- Node21&#45;&gt;Node22 -->
<g id="edge17_Node000021_Node000022" class="edge">
<title>Node21&#45;&gt;Node22</title>
<g id="a_edge17_Node000021_Node000022"><a xlink:title=" ">
<path fill="none" stroke="#63b8ff" d="M257.54,-231.17C280.86,-225.21 310.62,-217.59 335.66,-211.19"/>
<polygon fill="#63b8ff" stroke="#63b8ff" points="336.5,-214.59 345.32,-208.72 334.77,-207.8 336.5,-214.59"/>
</a>
</g>
</g>
<!-- Node23 -->
<g id="Node000023" class="node">
<title>Node23</title>
<g id="a_Node000023"><a xlink:href="namespacelmms_1_1PathUtil.html#ac137f08ba93cc7257ee39ae09dd7dc12" target="_top" xlink:title="Return the prefix used to denote this base in path strings.">
<polygon fill="white" stroke="#666666" points="628,-207.88 498.75,-207.88 498.75,-188.62 628,-188.62 628,-207.88"/>
<text xml:space="preserve" text-anchor="middle" x="563.38" y="-194.38" font-family="Helvetica,sans-Serif" font-size="10.00">lmms::PathUtil::basePrefix</text>
</a>
</g>
</g>
<!-- Node21&#45;&gt;Node23 -->
<g id="edge19_Node000021_Node000023" class="edge">
<title>Node21&#45;&gt;Node23</title>
<g id="a_edge19_Node000021_Node000023"><a xlink:title=" ">
<path fill="none" stroke="#63b8ff" d="M229.45,-231.26C247.04,-216.47 282.64,-189.43 318.5,-179.25 385.77,-160.15 467.41,-173.48 517.09,-185.43"/>
<polygon fill="#63b8ff" stroke="#63b8ff" points="516.08,-188.78 526.63,-187.81 517.78,-181.99 516.08,-188.78"/>
</a>
</g>
</g>
<!-- Node24 -->
<g id="Node000024" class="node">
<title>Node24</title>
<g id="a_Node000024"><a xlink:href="namespacelmms_1_1PathUtil.html#a43bb251bb1ad388b40a8dce352c8bfa4" target="_top" xlink:title="Upgrade prefix&#45;less relative paths to the new format.">
<polygon fill="white" stroke="#666666" points="453.38,-256.5 321.12,-256.5 321.12,-226 453.38,-226 453.38,-256.5"/>
<text xml:space="preserve" text-anchor="start" x="329.12" y="-243" font-family="Helvetica,sans-Serif" font-size="10.00">lmms::PathUtil::oldRelative</text>
<text xml:space="preserve" text-anchor="middle" x="387.25" y="-231.75" font-family="Helvetica,sans-Serif" font-size="10.00">Upgrade</text>
</a>
</g>
</g>
<!-- Node21&#45;&gt;Node24 -->
<g id="edge20_Node000021_Node000024" class="edge">
<title>Node21&#45;&gt;Node24</title>
<g id="a_edge20_Node000021_Node000024"><a xlink:title=" ">
<path fill="none" stroke="#63b8ff" d="M282.65,-241.25C291.44,-241.25 300.53,-241.25 309.51,-241.25"/>
<polygon fill="#63b8ff" stroke="#63b8ff" points="309.28,-244.75 319.28,-241.25 309.28,-237.75 309.28,-244.75"/>
</a>
</g>
</g>
<!-- Node22&#45;&gt;Node23 -->
<g id="edge18_Node000022_Node000023" class="edge">
<title>Node22&#45;&gt;Node23</title>
<g id="a_edge18_Node000022_Node000023"><a xlink:title=" ">
<path fill="none" stroke="#63b8ff" d="M456.07,-198.25C466.2,-198.25 476.69,-198.25 486.97,-198.25"/>
<polygon fill="#63b8ff" stroke="#63b8ff" points="486.93,-201.75 496.93,-198.25 486.93,-194.75 486.93,-201.75"/>
</a>
</g>
</g>
<!-- Node24&#45;&gt;Node3 -->
<g id="edge21_Node000024_Node000003" class="edge">
<title>Node24&#45;&gt;Node3</title>
<g id="a_edge21_Node000024_Node000003"><a xlink:title=" ">
<path fill="none" stroke="#63b8ff" d="M451.61,-256.9C470.93,-261.67 491.95,-266.86 510.42,-271.42"/>
<polygon fill="#63b8ff" stroke="#63b8ff" points="509.55,-274.81 520.09,-273.81 511.23,-268.01 509.55,-274.81"/>
</a>
</g>
</g>
<!-- Node24&#45;&gt;Node23 -->
<g id="edge22_Node000024_Node000023" class="edge">
<title>Node24&#45;&gt;Node23</title>
<g id="a_edge22_Node000024_Node000023"><a xlink:title=" ">
<path fill="none" stroke="#63b8ff" d="M451.61,-225.6C470.93,-220.83 491.95,-215.64 510.42,-211.08"/>
<polygon fill="#63b8ff" stroke="#63b8ff" points="511.23,-214.49 520.09,-208.69 509.55,-207.69 511.23,-214.49"/>
</a>
</g>
</g>
</g>
</svg>

<g id="navigator" transform="translate(0 0)" fill="#404254">
  <rect fill="#f2f5e9" fill-opacity="0.5" stroke="#606060" stroke-width=".5" x="0" y="0" width="60" height="60"/>
  <use id="zoomplus" xlink:href="#zoomPlus" x="17" y="9" onmousedown="handleZoom(evt,'in')"/>
  <use id="zoomminus" xlink:href="#zoomMin" x="42" y="9" onmousedown="handleZoom(evt,'out')"/>
  <use id="reset" xlink:href="#resetDef" x="30" y="36" onmousedown="handleReset()"/>
   <use id="arrowup" xlink:href="#arrowUp" x="0" y="0" onmousedown="handlePan(0,-1)"/>
  <use id="arrowright" xlink:href="#arrowRight" x="0" y="0" onmousedown="handlePan(1,0)"/>
  <use id="arrowdown" xlink:href="#arrowDown" x="0" y="0" onmousedown="handlePan(0,1)"/>
  <use id="arrowleft" xlink:href="#arrowLeft" x="0" y="0" onmousedown="handlePan(-1,0)"/>
</g>
<svg viewBox="0 0 15 15" width="100%" height="30px" preserveAspectRatio="xMaxYMin meet">
 <g id="arrow_out" transform="scale(0.3 0.3)">
  <a xlink:href="namespacelmms_1_1PathUtil_a29366f8ab7ef7e1f56a87e8879ee98da_cgraph_org.svg" target="_base">
   <rect id="button" ry="5" rx="5" y="6" x="6" height="38" width="38"
        fill="#f2f5e9" fill-opacity="0.5" stroke="#606060" stroke-width="1.0"/>
   <path id="arrow"
     d="M 11.500037,31.436501 C 11.940474,20.09759 22.043105,11.32322 32.158766,21.979434 L 37.068811,17.246167 C 37.068811,17.246167 37.088388,32 37.088388,32 L 22.160133,31.978069 C 22.160133,31.978069 26.997745,27.140456 26.997745,27.140456 C 18.528582,18.264221 13.291696,25.230495 11.500037,31.436501 z"
     style="fill:#404040;"/>
  </a>
 </g>
</svg>

<style type='text/css'>
<![CDATA[
[data-mouse-over-selected='false'] { opacity: 0.7; }
[data-mouse-over-selected='true']  { opacity: 1.0; }
]]>
</style>
<script type="application/ecmascript"><![CDATA[
document.addEventListener('DOMContentLoaded', (event) => {
  highlightEdges();
  highlightAdjacentNodes();
});
]]></script>
</svg>
