<?xml version="1.0" encoding="UTF-8" standalone="no"?>
<!DOCTYPE svg PUBLIC "-//W3C//DTD SVG 1.1//EN"
 "http://www.w3.org/Graphics/SVG/1.1/DTD/svg11.dtd">
<!-- Generated by graphviz version 14.0.2 (0)
 -->
<!-- Title: calf_plugins::get_builtin_presets Pages: 1 -->
<!--zoomable 199 -->

<svg id="main" version="1.1" xmlns="http://www.w3.org/2000/svg" xmlns:xlink="http://www.w3.org/1999/xlink" xml:space="preserve" onload="init(evt)">

<style type="text/css"><![CDATA[
.node, .edge {opacity: 0.7;}
.node.selected, .edge.selected {opacity: 1;}
.edge:hover path { stroke: red; }
.edge:hover polygon { stroke: red; fill: red; }
]]></style>

<defs>
  <circle id="rim" cx="0" cy="0" r="7"/>
  <circle id="rim2" cx="0" cy="0" r="3.5"/>
  <g id="zoomPlus">
    <use xlink:href="#rim" fill="#404040"><set attributeName="fill" to="#808080" begin="zoomplus.mouseover" end="zoomplus.mouseout"/></use>
    <path d="M-4,0h8M0,-4v8" fill="none" stroke="white" stroke-width="1.5" pointer-events="none"/>
  </g>
  <g id="zoomMin">
    <use xlink:href="#rim" fill="#404040"><set attributeName="fill" to="#808080" begin="zoomminus.mouseover" end="zoomminus.mouseout"/></use>
    <path d="M-4,0h8" fill="none" stroke="white" stroke-width="1.5" pointer-events="none"/>
  </g>
  <g id="arrowUp" transform="translate(30 24)">
    <use xlink:href="#rim"/>
    <path pointer-events="none" fill="none" stroke="white" stroke-width="1.5" d="M0,-3.0v7 M-2.5,-0.5L0,-3.0L2.5,-0.5"/>
  </g>
  <g id="arrowRight" transform="rotate(90) translate(36 -43)">
    <use xlink:href="#rim"/>
    <path pointer-events="none" fill="none" stroke="white" stroke-width="1.5" d="M0,-3.0v7 M-2.5,-0.5L0,-3.0L2.5,-0.5"/>
  </g>
  <g id="arrowDown" transform="rotate(180) translate(-30 -48)">
    <use xlink:href="#rim"/>
    <path pointer-events="none" fill="none" stroke="white" stroke-width="1.5" d="M0,-3.0v7 M-2.5,-0.5L0,-3.0L2.5,-0.5"/>
  </g>
  <g id="arrowLeft" transform="rotate(270) translate(-36 17)">
    <use xlink:href="#rim"/>
    <path pointer-events="none" fill="none" stroke="white" stroke-width="1.5" d="M0,-3.0v7 M-2.5,-0.5L0,-3.0L2.5,-0.5"/>
  </g>
  <g id="resetDef">
    <use xlink:href="#rim2" fill="#404040"><set attributeName="fill" to="#808080" begin="reset.mouseover" end="reset.mouseout"/></use>
  </g>
</defs>
<script type="application/ecmascript">
var viewWidth = 587;
var viewHeight = 199;
var sectionId = 'dynsection-10';
</script>
<script type="application/ecmascript" xlink:href="svg.min.js"/>
<svg id="graph" class="graph">
<g id="viewport">
<title>calf_plugins::get_builtin_presets</title>
<!-- Node1 -->
<g id="Node000001" class="node">
<title>Node1</title>
<g id="a_Node000001"><a xlink:title="Return the current list of built&#45;in (factory) presets (these are loaded from system&#45;wide file).">
<polygon fill="#999999" stroke="#666666" points="579.25,-108.12 462.75,-108.12 462.75,-77.62 579.25,-77.62 579.25,-108.12"/>
<text xml:space="preserve" text-anchor="start" x="470.75" y="-94.62" font-family="Helvetica,sans-Serif" font-size="10.00">calf_plugins::get_builtin</text>
<text xml:space="preserve" text-anchor="middle" x="521" y="-83.38" font-family="Helvetica,sans-Serif" font-size="10.00">_presets</text>
</a>
</g>
</g>
<!-- Node2 -->
<g id="Node000002" class="node">
<title>Node2</title>
<g id="a_Node000002"><a xlink:href="structcalf__plugins_1_1gui__preset__access.html#a6723ad3a8db4277e773c72d55a9e665b" target="_top" xlink:title=" ">
<polygon fill="white" stroke="#666666" points="425.62,-179.12 301.62,-179.12 301.62,-148.62 425.62,-148.62 425.62,-179.12"/>
<text xml:space="preserve" text-anchor="start" x="309.62" y="-165.62" font-family="Helvetica,sans-Serif" font-size="10.00">calf_plugins::gui_preset</text>
<text xml:space="preserve" text-anchor="middle" x="363.62" y="-154.38" font-family="Helvetica,sans-Serif" font-size="10.00">_access::activate_preset</text>
</a>
</g>
</g>
<!-- Node1&#45;&gt;Node2 -->
<g id="edge1_Node000001_Node000002" class="edge">
<title>Node1&#45;&gt;Node2</title>
<g id="a_edge1_Node000001_Node000002"><a xlink:title=" ">
<path fill="none" stroke="#63b8ff" d="M479.38,-113.74C463.14,-121.87 444.19,-131.08 426.75,-138.88 419.74,-142.01 412.22,-145.19 404.92,-148.18"/>
<polygon fill="#63b8ff" stroke="#63b8ff" points="480.91,-116.89 488.27,-109.27 477.76,-110.64 480.91,-116.89"/>
</a>
</g>
</g>
<!-- Node3 -->
<g id="Node000003" class="node">
<title>Node3</title>
<g id="a_Node000003"><a xlink:href="classcalf__plugins_1_1host__session.html#a0e846516eaea6804b392d0cfa27cc3d6" target="_top" xlink:title=" ">
<polygon fill="white" stroke="#666666" points="426.75,-130.12 300.5,-130.12 300.5,-99.62 426.75,-99.62 426.75,-130.12"/>
<text xml:space="preserve" text-anchor="start" x="308.5" y="-116.62" font-family="Helvetica,sans-Serif" font-size="10.00">calf_plugins::host</text>
<text xml:space="preserve" text-anchor="middle" x="363.62" y="-105.38" font-family="Helvetica,sans-Serif" font-size="10.00">_session::activate_preset</text>
</a>
</g>
</g>
<!-- Node1&#45;&gt;Node3 -->
<g id="edge2_Node000001_Node000003" class="edge">
<title>Node1&#45;&gt;Node3</title>
<g id="a_edge2_Node000001_Node000003"><a xlink:title=" ">
<path fill="none" stroke="#63b8ff" d="M451.29,-102.6C443.22,-103.75 435.01,-104.91 427.03,-106.04"/>
<polygon fill="#63b8ff" stroke="#63b8ff" points="451.68,-106.08 461.09,-101.22 450.69,-99.15 451.68,-106.08"/>
</a>
</g>
</g>
<!-- Node7 -->
<g id="Node000007" class="node">
<title>Node7</title>
<g id="a_Node000007"><a xlink:href="jackhost_8cpp.html#a0ddf1224851353fc92bfbff6f499fa97" target="_top" xlink:title=" ">
<polygon fill="white" stroke="#666666" points="382.12,-81.5 345.12,-81.5 345.12,-62.25 382.12,-62.25 382.12,-81.5"/>
<text xml:space="preserve" text-anchor="middle" x="363.62" y="-68" font-family="Helvetica,sans-Serif" font-size="10.00">main</text>
</a>
</g>
</g>
<!-- Node1&#45;&gt;Node7 -->
<g id="edge7_Node000001_Node000007" class="edge">
<title>Node1&#45;&gt;Node7</title>
<g id="a_edge7_Node000001_Node000007"><a xlink:title=" ">
<path fill="none" stroke="#63b8ff" d="M451.46,-83.61C426.13,-80.19 399.49,-76.59 382.5,-74.29"/>
<polygon fill="#63b8ff" stroke="#63b8ff" points="450.71,-87.04 461.09,-84.91 451.64,-80.1 450.71,-87.04"/>
</a>
</g>
</g>
<!-- Node11 -->
<g id="Node000011" class="node">
<title>Node11</title>
<g id="a_Node000011"><a xlink:href="classcalf__plugins_1_1plugin__gui__window.html#a9aa0e12a0c1a0ebe725b63bf6c18c6f9" target="_top" xlink:title=" ">
<polygon fill="white" stroke="#666666" points="423,-42.75 304.25,-42.75 304.25,-1 423,-1 423,-42.75"/>
<text xml:space="preserve" text-anchor="start" x="312.25" y="-29.25" font-family="Helvetica,sans-Serif" font-size="10.00">calf_plugins::plugin</text>
<text xml:space="preserve" text-anchor="start" x="312.25" y="-18" font-family="Helvetica,sans-Serif" font-size="10.00">_gui_window::make_gui</text>
<text xml:space="preserve" text-anchor="middle" x="363.62" y="-6.75" font-family="Helvetica,sans-Serif" font-size="10.00">_preset_list</text>
</a>
</g>
</g>
<!-- Node1&#45;&gt;Node11 -->
<g id="edge8_Node000001_Node000011" class="edge">
<title>Node1&#45;&gt;Node11</title>
<g id="a_edge8_Node000001_Node000011"><a xlink:title=" ">
<path fill="none" stroke="#63b8ff" d="M475.47,-72.52C455.38,-63.35 431.65,-52.5 411.31,-43.21"/>
<polygon fill="#63b8ff" stroke="#63b8ff" points="473.98,-75.69 484.53,-76.66 476.88,-69.33 473.98,-75.69"/>
</a>
</g>
</g>
<!-- Node4 -->
<g id="Node000004" class="node">
<title>Node4</title>
<g id="a_Node000004"><a xlink:href="classcalf__plugins_1_1host__session.html#a1e3951f15e24596bcc8044cdc4ec0cdf" target="_top" xlink:title=" ">
<polygon fill="white" stroke="#666666" points="264.5,-130.12 158.5,-130.12 158.5,-99.62 264.5,-99.62 264.5,-130.12"/>
<text xml:space="preserve" text-anchor="start" x="166.5" y="-116.62" font-family="Helvetica,sans-Serif" font-size="10.00">calf_plugins::host</text>
<text xml:space="preserve" text-anchor="middle" x="211.5" y="-105.38" font-family="Helvetica,sans-Serif" font-size="10.00">_session::add_plugin</text>
</a>
</g>
</g>
<!-- Node3&#45;&gt;Node4 -->
<g id="edge3_Node000003_Node000004" class="edge">
<title>Node3&#45;&gt;Node4</title>
<g id="a_edge3_Node000003_Node000004"><a xlink:title=" ">
<path fill="none" stroke="#63b8ff" d="M288.87,-114.88C280.77,-114.88 272.65,-114.88 264.89,-114.88"/>
<polygon fill="#63b8ff" stroke="#63b8ff" points="288.75,-118.38 298.75,-114.88 288.75,-111.38 288.75,-118.38"/>
</a>
</g>
</g>
<!-- Node5 -->
<g id="Node000005" class="node">
<title>Node5</title>
<g id="a_Node000005"><a xlink:href="classcalf__plugins_1_1host__session.html#a5c9116b07065ee9e353c7dd2ca86e1bd" target="_top" xlink:title=" ">
<polygon fill="#fff0f0" stroke="red" points="122.5,-190.75 0,-190.75 0,-149 122.5,-149 122.5,-190.75"/>
<text xml:space="preserve" text-anchor="start" x="8" y="-177.25" font-family="Helvetica,sans-Serif" font-size="10.00">calf_plugins::host</text>
<text xml:space="preserve" text-anchor="start" x="8" y="-166" font-family="Helvetica,sans-Serif" font-size="10.00">_session::create_plugins</text>
<text xml:space="preserve" text-anchor="middle" x="61.25" y="-154.75" font-family="Helvetica,sans-Serif" font-size="10.00">_from_list</text>
</a>
</g>
</g>
<!-- Node4&#45;&gt;Node5 -->
<g id="edge4_Node000004_Node000005" class="edge">
<title>Node4&#45;&gt;Node5</title>
<g id="a_edge4_Node000004_Node000005"><a xlink:title=" ">
<path fill="none" stroke="#63b8ff" d="M157.81,-134.42C145.45,-139.01 132.22,-143.92 119.66,-148.57"/>
<polygon fill="#63b8ff" stroke="#63b8ff" points="158.84,-137.77 167,-131.02 156.4,-131.21 158.84,-137.77"/>
</a>
</g>
</g>
<!-- Node8 -->
<g id="Node000008" class="node">
<title>Node8</title>
<g id="a_Node000008"><a xlink:href="classcalf__plugins_1_1host__session.html#a29d8a8f59a3676b2cc18a15eb8205837" target="_top" xlink:title="Load from session manager.">
<polygon fill="white" stroke="#666666" points="106.75,-131.12 15.75,-131.12 15.75,-100.62 106.75,-100.62 106.75,-131.12"/>
<text xml:space="preserve" text-anchor="start" x="23.75" y="-117.62" font-family="Helvetica,sans-Serif" font-size="10.00">calf_plugins::host</text>
<text xml:space="preserve" text-anchor="middle" x="61.25" y="-106.38" font-family="Helvetica,sans-Serif" font-size="10.00">_session::load</text>
</a>
</g>
</g>
<!-- Node4&#45;&gt;Node8 -->
<g id="edge5_Node000004_Node000008" class="edge">
<title>Node4&#45;&gt;Node8</title>
<g id="a_edge5_Node000004_Node000008"><a xlink:title=" ">
<path fill="none" stroke="#63b8ff" d="M147.1,-115.3C133.66,-115.39 119.74,-115.49 107.16,-115.57"/>
<polygon fill="#63b8ff" stroke="#63b8ff" points="146.74,-118.81 156.72,-115.24 146.7,-111.81 146.74,-118.81"/>
</a>
</g>
</g>
<!-- Node9 -->
<g id="Node000009" class="node">
<title>Node9</title>
<g id="a_Node000009"><a xlink:href="classcalf__plugins_1_1host__session.html#a705a380de274c7cb76cc5d2092b66e57" target="_top" xlink:title="Implementation of open file functionality (TODO).">
<polygon fill="#fff0f0" stroke="red" points="110.12,-82.12 12.38,-82.12 12.38,-51.62 110.12,-51.62 110.12,-82.12"/>
<text xml:space="preserve" text-anchor="start" x="20.38" y="-68.62" font-family="Helvetica,sans-Serif" font-size="10.00">calf_plugins::host</text>
<text xml:space="preserve" text-anchor="middle" x="61.25" y="-57.38" font-family="Helvetica,sans-Serif" font-size="10.00">_session::open_file</text>
</a>
</g>
</g>
<!-- Node4&#45;&gt;Node9 -->
<g id="edge6_Node000004_Node000009" class="edge">
<title>Node4&#45;&gt;Node9</title>
<g id="a_edge6_Node000004_Node000009"><a xlink:title=" ">
<path fill="none" stroke="#63b8ff" d="M151.26,-95.69C137.69,-91.3 123.43,-86.68 110.4,-82.46"/>
<polygon fill="#63b8ff" stroke="#63b8ff" points="149.93,-98.94 160.52,-98.69 152.08,-92.28 149.93,-98.94"/>
</a>
</g>
</g>
<!-- Node12 -->
<g id="Node000012" class="node">
<title>Node12</title>
<g id="a_Node000012"><a xlink:href="classcalf__plugins_1_1plugin__gui__window.html#a3550958c414d74bf7d46a68976409025" target="_top" xlink:title=" ">
<polygon fill="white" stroke="#666666" points="263.38,-41.75 159.62,-41.75 159.62,0 263.38,0 263.38,-41.75"/>
<text xml:space="preserve" text-anchor="start" x="167.62" y="-28.25" font-family="Helvetica,sans-Serif" font-size="10.00">calf_plugins::plugin</text>
<text xml:space="preserve" text-anchor="start" x="167.62" y="-17" font-family="Helvetica,sans-Serif" font-size="10.00">_gui_window::fill_gui</text>
<text xml:space="preserve" text-anchor="middle" x="211.5" y="-5.75" font-family="Helvetica,sans-Serif" font-size="10.00">_presets</text>
</a>
</g>
</g>
<!-- Node11&#45;&gt;Node12 -->
<g id="edge9_Node000011_Node000012" class="edge">
<title>Node11&#45;&gt;Node12</title>
<g id="a_edge9_Node000011_Node000012"><a xlink:title=" ">
<path fill="none" stroke="#63b8ff" d="M292.77,-21.41C282.98,-21.34 273.08,-21.28 263.73,-21.22"/>
<polygon fill="#63b8ff" stroke="#63b8ff" points="292.62,-24.91 302.64,-21.48 292.66,-17.91 292.62,-24.91"/>
</a>
</g>
</g>
<!-- Node13 -->
<g id="Node000013" class="node">
<title>Node13</title>
<g id="a_Node000013"><a xlink:href="classcalf__plugins_1_1plugin__gui__window.html#a1feb613765dc69a67c4592a6a4282d46" target="_top" xlink:title=" ">
<polygon fill="#fff0f0" stroke="red" points="113.12,-33.12 9.38,-33.12 9.38,-2.62 113.12,-2.62 113.12,-33.12"/>
<text xml:space="preserve" text-anchor="start" x="17.38" y="-19.62" font-family="Helvetica,sans-Serif" font-size="10.00">calf_plugins::plugin</text>
<text xml:space="preserve" text-anchor="middle" x="61.25" y="-8.38" font-family="Helvetica,sans-Serif" font-size="10.00">_gui_window::create</text>
</a>
</g>
</g>
<!-- Node12&#45;&gt;Node13 -->
<g id="edge10_Node000012_Node000013" class="edge">
<title>Node12&#45;&gt;Node13</title>
<g id="a_edge10_Node000012_Node000013"><a xlink:title=" ">
<path fill="none" stroke="#63b8ff" d="M148.15,-19.61C136.64,-19.38 124.75,-19.14 113.61,-18.91"/>
<polygon fill="#63b8ff" stroke="#63b8ff" points="147.9,-23.11 157.97,-19.81 148.04,-16.11 147.9,-23.11"/>
</a>
</g>
</g>
</g>
</svg>

<g id="navigator" transform="translate(0 0)" fill="#404254">
  <rect fill="#f2f5e9" fill-opacity="0.5" stroke="#606060" stroke-width=".5" x="0" y="0" width="60" height="60"/>
  <use id="zoomplus" xlink:href="#zoomPlus" x="17" y="9" onmousedown="handleZoom(evt,'in')"/>
  <use id="zoomminus" xlink:href="#zoomMin" x="42" y="9" onmousedown="handleZoom(evt,'out')"/>
  <use id="reset" xlink:href="#resetDef" x="30" y="36" onmousedown="handleReset()"/>
   <use id="arrowup" xlink:href="#arrowUp" x="0" y="0" onmousedown="handlePan(0,-1)"/>
  <use id="arrowright" xlink:href="#arrowRight" x="0" y="0" onmousedown="handlePan(1,0)"/>
  <use id="arrowdown" xlink:href="#arrowDown" x="0" y="0" onmousedown="handlePan(0,1)"/>
  <use id="arrowleft" xlink:href="#arrowLeft" x="0" y="0" onmousedown="handlePan(-1,0)"/>
</g>
<svg viewBox="0 0 15 15" width="100%" height="30px" preserveAspectRatio="xMaxYMin meet">
 <g id="arrow_out" transform="scale(0.3 0.3)">
  <a xlink:href="namespacecalf__plugins_ab9476259a86c99bc1d83a8772992854b_icgraph_org.svg" target="_base">
   <rect id="button" ry="5" rx="5" y="6" x="6" height="38" width="38"
        fill="#f2f5e9" fill-opacity="0.5" stroke="#606060" stroke-width="1.0"/>
   <path id="arrow"
     d="M 11.500037,31.436501 C 11.940474,20.09759 22.043105,11.32322 32.158766,21.979434 L 37.068811,17.246167 C 37.068811,17.246167 37.088388,32 37.088388,32 L 22.160133,31.978069 C 22.160133,31.978069 26.997745,27.140456 26.997745,27.140456 C 18.528582,18.264221 13.291696,25.230495 11.500037,31.436501 z"
     style="fill:#404040;"/>
  </a>
 </g>
</svg>

<style type='text/css'>
<![CDATA[
[data-mouse-over-selected='false'] { opacity: 0.7; }
[data-mouse-over-selected='true']  { opacity: 1.0; }
]]>
</style>
<script type="application/ecmascript"><![CDATA[
document.addEventListener('DOMContentLoaded', (event) => {
  highlightEdges();
  highlightAdjacentNodes();
});
]]></script>
</svg>
