<?xml version="1.0" encoding="UTF-8" standalone="no"?>
<!DOCTYPE svg PUBLIC "-//W3C//DTD SVG 1.1//EN"
 "http://www.w3.org/Graphics/SVG/1.1/DTD/svg11.dtd">
<!-- Generated by graphviz version 14.0.2 (0)
 -->
<!-- Title: exprtk::details::is_const_string_range_node Pages: 1 -->
<svg width="903pt" height="452pt"
 viewBox="0.00 0.00 903.00 452.00" xmlns="http://www.w3.org/2000/svg" xmlns:xlink="http://www.w3.org/1999/xlink">
<g id="graph0" class="graph" transform="scale(1 1) rotate(0) translate(4 447.57)">
<title>exprtk::details::is_const_string_range_node</title>
<!-- Node1 -->
<g id="Node000001" class="node">
<title>Node1</title>
<g id="a_Node000001"><a xlink:title=" ">
<polygon fill="#999999" stroke="#666666" points="894.5,-260.94 764.5,-260.94 764.5,-230.44 894.5,-230.44 894.5,-260.94"/>
<text xml:space="preserve" text-anchor="start" x="772.5" y="-247.44" font-family="Helvetica,sans-Serif" font-size="10.00">exprtk::details::is</text>
<text xml:space="preserve" text-anchor="middle" x="829.5" y="-236.19" font-family="Helvetica,sans-Serif" font-size="10.00">_const_string_range_node</text>
</a>
</g>
</g>
<!-- Node2 -->
<g id="Node000002" class="node">
<title>Node2</title>
<g id="a_Node000002"><a xlink:href="classexprtk_1_1parser_1_1expression__generator.html#acee734534d19d4a1793501257d42348b" target="_top" xlink:title=" ">
<polygon fill="white" stroke="#666666" points="708.62,-260.94 583.88,-260.94 583.88,-230.44 708.62,-230.44 708.62,-260.94"/>
<text xml:space="preserve" text-anchor="start" x="591.88" y="-247.44" font-family="Helvetica,sans-Serif" font-size="10.00">exprtk::parser::expression</text>
<text xml:space="preserve" text-anchor="middle" x="646.25" y="-236.19" font-family="Helvetica,sans-Serif" font-size="10.00">_generator::branch_to_id</text>
</a>
</g>
</g>
<!-- Node1&#45;&gt;Node2 -->
<g id="edge1_Node000001_Node000002" class="edge">
<title>Node1&#45;&gt;Node2</title>
<g id="a_edge1_Node000001_Node000002"><a xlink:title=" ">
<path fill="none" stroke="#63b8ff" d="M752.59,-245.69C738.07,-245.69 723.03,-245.69 709.02,-245.69"/>
<polygon fill="#63b8ff" stroke="#63b8ff" points="752.57,-249.19 762.57,-245.69 752.57,-242.19 752.57,-249.19"/>
</a>
</g>
</g>
<!-- Node13 -->
<g id="Node000013" class="node">
<title>Node13</title>
<g id="a_Node000013"><a xlink:href="classexprtk_1_1parser_1_1expression__generator.html#a7235edaed831072fbf8af3e5b199c86b" target="_top" xlink:title=" ">
<polygon fill="white" stroke="#666666" points="315.12,-443.57 173.88,-443.57 173.88,-401.82 315.12,-401.82 315.12,-443.57"/>
<text xml:space="preserve" text-anchor="start" x="181.88" y="-430.07" font-family="Helvetica,sans-Serif" font-size="10.00">exprtk::parser::expression</text>
<text xml:space="preserve" text-anchor="start" x="181.88" y="-418.82" font-family="Helvetica,sans-Serif" font-size="10.00">_generator::synthesize_string</text>
<text xml:space="preserve" text-anchor="middle" x="244.5" y="-407.57" font-family="Helvetica,sans-Serif" font-size="10.00">_expression</text>
</a>
</g>
</g>
<!-- Node1&#45;&gt;Node13 -->
<g id="edge19_Node000001_Node000013" class="edge">
<title>Node1&#45;&gt;Node13</title>
<g id="a_edge19_Node000001_Node000013"><a xlink:title=" ">
<path fill="none" stroke="#63b8ff" d="M765.88,-264.71C656.18,-298.01 430.02,-366.68 315.39,-401.48"/>
<polygon fill="#63b8ff" stroke="#63b8ff" points="766.76,-268.1 775.31,-261.84 764.73,-261.4 766.76,-268.1"/>
</a>
</g>
</g>
<!-- Node14 -->
<g id="Node000014" class="node">
<title>Node14</title>
<g id="a_Node000014"><a xlink:href="classexprtk_1_1details_1_1generic__function__node.html#af3f9d7b62a5c6ebf96e3a0e28abc8739" target="_top" xlink:title=" ">
<polygon fill="white" stroke="#666666" points="728.5,-212.57 564,-212.57 564,-170.82 728.5,-170.82 728.5,-212.57"/>
<text xml:space="preserve" text-anchor="start" x="572" y="-199.07" font-family="Helvetica,sans-Serif" font-size="10.00">exprtk::details::generic</text>
<text xml:space="preserve" text-anchor="start" x="572" y="-187.82" font-family="Helvetica,sans-Serif" font-size="10.00">_function_node&lt; T, StringFunction</text>
<text xml:space="preserve" text-anchor="middle" x="646.25" y="-176.57" font-family="Helvetica,sans-Serif" font-size="10.00"> &gt;::init_branches</text>
</a>
</g>
</g>
<!-- Node1&#45;&gt;Node14 -->
<g id="edge18_Node000001_Node000014" class="edge">
<title>Node1&#45;&gt;Node14</title>
<g id="a_edge18_Node000001_Node000014"><a xlink:title=" ">
<path fill="none" stroke="#63b8ff" d="M765.35,-226.88C750.31,-222.4 734.16,-217.59 718.77,-213"/>
<polygon fill="#63b8ff" stroke="#63b8ff" points="764.04,-230.14 774.62,-229.64 766.04,-223.43 764.04,-230.14"/>
</a>
</g>
</g>
<!-- Node3 -->
<g id="Node000003" class="node">
<title>Node3</title>
<g id="a_Node000003"><a xlink:href="classexprtk_1_1parser_1_1expression__generator.html#a088e7f57383278c59395299d7f6075f4" target="_top" xlink:title=" ">
<polygon fill="white" stroke="#666666" points="508.5,-211.94 383.75,-211.94 383.75,-181.44 508.5,-181.44 508.5,-211.94"/>
<text xml:space="preserve" text-anchor="start" x="391.75" y="-198.44" font-family="Helvetica,sans-Serif" font-size="10.00">exprtk::parser::expression</text>
<text xml:space="preserve" text-anchor="middle" x="446.12" y="-187.19" font-family="Helvetica,sans-Serif" font-size="10.00">_generator::branch_to_id</text>
</a>
</g>
</g>
<!-- Node2&#45;&gt;Node3 -->
<g id="edge2_Node000002_Node000003" class="edge">
<title>Node2&#45;&gt;Node3</title>
<g id="a_edge2_Node000002_Node000003"><a xlink:title=" ">
<path fill="none" stroke="#63b8ff" d="M572.32,-227.66C551.48,-222.5 528.97,-216.94 508.87,-211.97"/>
<polygon fill="#63b8ff" stroke="#63b8ff" points="571.36,-231.03 581.91,-230.03 573.04,-224.23 571.36,-231.03"/>
</a>
</g>
</g>
<!-- Node4 -->
<g id="Node000004" class="node">
<title>Node4</title>
<g id="a_Node000004"><a xlink:href="classexprtk_1_1parser_1_1expression__generator.html#a45445d9d286b814fa298eea58f0ed71e" target="_top" xlink:title=" ">
<polygon fill="white" stroke="#666666" points="528,-260.94 364.25,-260.94 364.25,-230.44 528,-230.44 528,-260.94"/>
<text xml:space="preserve" text-anchor="start" x="372.25" y="-247.44" font-family="Helvetica,sans-Serif" font-size="10.00">exprtk::parser::expression</text>
<text xml:space="preserve" text-anchor="middle" x="446.12" y="-236.19" font-family="Helvetica,sans-Serif" font-size="10.00">_generator::synthesize_expression</text>
</a>
</g>
</g>
<!-- Node2&#45;&gt;Node4 -->
<g id="edge3_Node000002_Node000004" class="edge">
<title>Node2&#45;&gt;Node4</title>
<g id="a_edge3_Node000002_Node000004"><a xlink:title=" ">
<path fill="none" stroke="#63b8ff" d="M572.1,-245.69C557.79,-245.69 542.71,-245.69 528.17,-245.69"/>
<polygon fill="#63b8ff" stroke="#63b8ff" points="571.86,-249.19 581.86,-245.69 571.86,-242.19 571.86,-249.19"/>
</a>
</g>
</g>
<!-- Node5 -->
<g id="Node000005" class="node">
<title>Node5</title>
<g id="a_Node000005"><a xlink:href="classexprtk_1_1parser_1_1expression__generator.html#ad0edf6e9f82d45b69ba62cc4b68d84ac" target="_top" xlink:title=" ">
<polygon fill="white" stroke="#666666" points="306.88,-236.94 182.12,-236.94 182.12,-206.44 306.88,-206.44 306.88,-236.94"/>
<text xml:space="preserve" text-anchor="start" x="190.12" y="-223.44" font-family="Helvetica,sans-Serif" font-size="10.00">exprtk::parser::expression</text>
<text xml:space="preserve" text-anchor="middle" x="244.5" y="-212.19" font-family="Helvetica,sans-Serif" font-size="10.00">_generator::function</text>
</a>
</g>
</g>
<!-- Node4&#45;&gt;Node5 -->
<g id="edge4_Node000004_Node000005" class="edge">
<title>Node4&#45;&gt;Node5</title>
<g id="a_edge4_Node000004_Node000005"><a xlink:title=" ">
<path fill="none" stroke="#63b8ff" d="M352.78,-234.59C337.37,-232.74 321.73,-230.86 307.33,-229.13"/>
<polygon fill="#63b8ff" stroke="#63b8ff" points="352.08,-238.03 362.43,-235.75 352.92,-231.08 352.08,-238.03"/>
</a>
</g>
</g>
<!-- Node6 -->
<g id="Node000006" class="node">
<title>Node6</title>
<g id="a_Node000006"><a xlink:href="classexprtk_1_1parser_1_1expression__generator.html#a068ddfac641024dba63d8d75ab52aec2" target="_top" xlink:title=" ">
<polygon fill="white" stroke="#666666" points="306.88,-187.94 182.12,-187.94 182.12,-157.44 306.88,-157.44 306.88,-187.94"/>
<text xml:space="preserve" text-anchor="start" x="190.12" y="-174.44" font-family="Helvetica,sans-Serif" font-size="10.00">exprtk::parser::expression</text>
<text xml:space="preserve" text-anchor="middle" x="244.5" y="-163.19" font-family="Helvetica,sans-Serif" font-size="10.00">_generator::operator()</text>
</a>
</g>
</g>
<!-- Node4&#45;&gt;Node6 -->
<g id="edge5_Node000004_Node000006" class="edge">
<title>Node4&#45;&gt;Node6</title>
<g id="a_edge5_Node000004_Node000006"><a xlink:title=" ">
<path fill="none" stroke="#63b8ff" d="M376.71,-225.99C372.44,-224.32 368.26,-222.55 364.25,-220.69 347.02,-212.71 345.5,-205.63 328.25,-197.69 320.75,-194.25 312.65,-191.13 304.56,-188.35"/>
<polygon fill="#63b8ff" stroke="#63b8ff" points="375.39,-229.24 385.99,-229.42 377.82,-222.67 375.39,-229.24"/>
</a>
</g>
</g>
<!-- Node7 -->
<g id="Node000007" class="node">
<title>Node7</title>
<g id="a_Node000007"><a xlink:href="classexprtk_1_1parser_1_1expression__generator.html#a942b4cc13dac09ce65dfd3f8f5c6b117" target="_top" xlink:title=" ">
<polygon fill="white" stroke="#666666" points="124.75,-133.94 0,-133.94 0,-103.44 124.75,-103.44 124.75,-133.94"/>
<text xml:space="preserve" text-anchor="start" x="8" y="-120.44" font-family="Helvetica,sans-Serif" font-size="10.00">exprtk::parser::expression</text>
<text xml:space="preserve" text-anchor="middle" x="62.38" y="-109.19" font-family="Helvetica,sans-Serif" font-size="10.00">_generator::operator()</text>
</a>
</g>
</g>
<!-- Node4&#45;&gt;Node7 -->
<g id="edge6_Node000004_Node000007" class="edge">
<title>Node4&#45;&gt;Node7</title>
<g id="a_edge6_Node000004_Node000007"><a xlink:title=" ">
<path fill="none" stroke="#63b8ff" d="M366.44,-223C365.69,-222.25 364.96,-221.49 364.25,-220.69 306.47,-155.89 395.06,-84.14 328.25,-28.69 270.96,18.85 230.07,-1.56 160.75,-28.69 122.38,-43.71 90.06,-81.73 74.09,-103.24"/>
<polygon fill="#63b8ff" stroke="#63b8ff" points="364.11,-225.61 374.1,-229.13 368.48,-220.15 364.11,-225.61"/>
</a>
</g>
</g>
<!-- Node8 -->
<g id="Node000008" class="node">
<title>Node8</title>
<g id="a_Node000008"><a xlink:href="classexprtk_1_1parser_1_1expression__generator.html#a0782900d165f5e7ff4fca76feca0f581" target="_top" xlink:title=" ">
<polygon fill="white" stroke="#666666" points="124.75,-412.94 0,-412.94 0,-382.44 124.75,-382.44 124.75,-412.94"/>
<text xml:space="preserve" text-anchor="start" x="8" y="-399.44" font-family="Helvetica,sans-Serif" font-size="10.00">exprtk::parser::expression</text>
<text xml:space="preserve" text-anchor="middle" x="62.38" y="-388.19" font-family="Helvetica,sans-Serif" font-size="10.00">_generator::operator()</text>
</a>
</g>
</g>
<!-- Node4&#45;&gt;Node8 -->
<g id="edge7_Node000004_Node000008" class="edge">
<title>Node4&#45;&gt;Node8</title>
<g id="a_edge7_Node000004_Node000008"><a xlink:title=" ">
<path fill="none" stroke="#63b8ff" d="M426.47,-270.11C405.53,-295.63 369.08,-334.68 328.25,-354.69 293.42,-371.76 191.86,-384.82 125.09,-391.86"/>
<polygon fill="#63b8ff" stroke="#63b8ff" points="429,-272.55 432.52,-262.56 423.54,-268.17 429,-272.55"/>
</a>
</g>
</g>
<!-- Node9 -->
<g id="Node000009" class="node">
<title>Node9</title>
<g id="a_Node000009"><a xlink:href="classexprtk_1_1parser_1_1expression__generator.html#a0434d797eb29d6d730f80863b3105874" target="_top" xlink:title=" ">
<polygon fill="white" stroke="#666666" points="306.88,-285.94 182.12,-285.94 182.12,-255.44 306.88,-255.44 306.88,-285.94"/>
<text xml:space="preserve" text-anchor="start" x="190.12" y="-272.44" font-family="Helvetica,sans-Serif" font-size="10.00">exprtk::parser::expression</text>
<text xml:space="preserve" text-anchor="middle" x="244.5" y="-261.19" font-family="Helvetica,sans-Serif" font-size="10.00">_generator::operator()</text>
</a>
</g>
</g>
<!-- Node4&#45;&gt;Node9 -->
<g id="edge8_Node000004_Node000009" class="edge">
<title>Node4&#45;&gt;Node9</title>
<g id="a_edge8_Node000004_Node000009"><a xlink:title=" ">
<path fill="none" stroke="#63b8ff" d="M352.78,-257.26C337.37,-259.19 321.73,-261.15 307.33,-262.95"/>
<polygon fill="#63b8ff" stroke="#63b8ff" points="352.94,-260.77 362.43,-256.05 352.07,-253.82 352.94,-260.77"/>
</a>
</g>
</g>
<!-- Node10 -->
<g id="Node000010" class="node">
<title>Node10</title>
<g id="a_Node000010"><a xlink:href="classexprtk_1_1parser_1_1expression__generator.html#a745d5696141056b64f432946e89e8c20" target="_top" xlink:title=" ">
<polygon fill="white" stroke="#666666" points="328.25,-345.57 160.75,-345.57 160.75,-303.82 328.25,-303.82 328.25,-345.57"/>
<text xml:space="preserve" text-anchor="start" x="168.75" y="-332.07" font-family="Helvetica,sans-Serif" font-size="10.00">exprtk::parser::expression</text>
<text xml:space="preserve" text-anchor="start" x="168.75" y="-320.82" font-family="Helvetica,sans-Serif" font-size="10.00">_generator::synthesize_assignment</text>
<text xml:space="preserve" text-anchor="middle" x="244.5" y="-309.57" font-family="Helvetica,sans-Serif" font-size="10.00">_expression</text>
</a>
</g>
</g>
<!-- Node4&#45;&gt;Node10 -->
<g id="edge9_Node000004_Node000010" class="edge">
<title>Node4&#45;&gt;Node10</title>
<g id="a_edge9_Node000004_Node000010"><a xlink:title=" ">
<path fill="none" stroke="#63b8ff" d="M398.58,-265.83C377.24,-274.9 351.57,-285.59 328.25,-294.69 320.85,-297.59 313.04,-300.54 305.29,-303.41"/>
<polygon fill="#63b8ff" stroke="#63b8ff" points="399.77,-269.12 407.59,-261.98 397.02,-262.69 399.77,-269.12"/>
</a>
</g>
</g>
<!-- Node11 -->
<g id="Node000011" class="node">
<title>Node11</title>
<g id="a_Node000011"><a xlink:href="classexprtk_1_1parser_1_1expression__generator.html#a955518cbb821ade8d6fdacbf5a7ce428" target="_top" xlink:title=" ">
<polygon fill="white" stroke="#666666" points="328.25,-139.57 160.75,-139.57 160.75,-97.82 328.25,-97.82 328.25,-139.57"/>
<text xml:space="preserve" text-anchor="start" x="168.75" y="-126.07" font-family="Helvetica,sans-Serif" font-size="10.00">exprtk::parser::expression</text>
<text xml:space="preserve" text-anchor="start" x="168.75" y="-114.82" font-family="Helvetica,sans-Serif" font-size="10.00">_generator::synthesize_assignment</text>
<text xml:space="preserve" text-anchor="middle" x="244.5" y="-103.57" font-family="Helvetica,sans-Serif" font-size="10.00">_operation_expression</text>
</a>
</g>
</g>
<!-- Node4&#45;&gt;Node11 -->
<g id="edge11_Node000004_Node000011" class="edge">
<title>Node4&#45;&gt;Node11</title>
<g id="a_edge11_Node000004_Node000011"><a xlink:title=" ">
<path fill="none" stroke="#63b8ff" d="M368.82,-224.24C367.24,-223.12 365.71,-221.94 364.25,-220.69 336.97,-197.55 354.97,-172.49 328.25,-148.69 324.6,-145.44 320.57,-142.54 316.31,-139.94"/>
<polygon fill="#63b8ff" stroke="#63b8ff" points="366.68,-227.04 377.04,-229.25 370.32,-221.06 366.68,-227.04"/>
</a>
</g>
</g>
<!-- Node12 -->
<g id="Node000012" class="node">
<title>Node12</title>
<g id="a_Node000012"><a xlink:href="classexprtk_1_1parser_1_1expression__generator.html#a5acbeb724466bc5e63b0e1e75fef648e" target="_top" xlink:title=" ">
<polygon fill="white" stroke="#666666" points="327.12,-79.57 161.88,-79.57 161.88,-37.82 327.12,-37.82 327.12,-79.57"/>
<text xml:space="preserve" text-anchor="start" x="169.88" y="-66.07" font-family="Helvetica,sans-Serif" font-size="10.00">exprtk::parser::expression</text>
<text xml:space="preserve" text-anchor="start" x="169.88" y="-54.82" font-family="Helvetica,sans-Serif" font-size="10.00">_generator::synthesize_shortcircuit</text>
<text xml:space="preserve" text-anchor="middle" x="244.5" y="-43.57" font-family="Helvetica,sans-Serif" font-size="10.00">_expression</text>
</a>
</g>
</g>
<!-- Node4&#45;&gt;Node12 -->
<g id="edge13_Node000004_Node000012" class="edge">
<title>Node4&#45;&gt;Node12</title>
<g id="a_edge13_Node000004_Node000012"><a xlink:title=" ">
<path fill="none" stroke="#63b8ff" d="M366.95,-223.29C366.02,-222.46 365.12,-221.59 364.25,-220.69 321.98,-176.98 369.46,-133.41 328.25,-88.69 325.25,-85.44 321.86,-82.53 318.22,-79.94"/>
<polygon fill="#63b8ff" stroke="#63b8ff" points="364.66,-225.95 374.77,-229.1 368.83,-220.33 364.66,-225.95"/>
</a>
</g>
</g>
<!-- Node4&#45;&gt;Node13 -->
<g id="edge15_Node000004_Node000013" class="edge">
<title>Node4&#45;&gt;Node13</title>
<g id="a_edge15_Node000004_Node000013"><a xlink:title=" ">
<path fill="none" stroke="#63b8ff" d="M427.2,-270.22C400.65,-306.05 351.5,-370.34 328.25,-387.69 321.37,-392.83 313.63,-397.37 305.72,-401.34"/>
<polygon fill="#63b8ff" stroke="#63b8ff" points="429.73,-272.69 432.85,-262.57 424.1,-268.54 429.73,-272.69"/>
</a>
</g>
</g>
<!-- Node10&#45;&gt;Node7 -->
<g id="edge10_Node000010_Node000007" class="edge">
<title>Node10&#45;&gt;Node7</title>
<g id="a_edge10_Node000010_Node000007"><a xlink:title=" ">
<path fill="none" stroke="#63b8ff" d="M164.07,-297.38C162.94,-296.51 161.83,-295.62 160.75,-294.69 107.9,-249.58 78.37,-168.25 67.85,-134.27"/>
<polygon fill="#63b8ff" stroke="#63b8ff" points="161.74,-300.02 171.99,-302.67 165.63,-294.2 161.74,-300.02"/>
</a>
</g>
</g>
<!-- Node11&#45;&gt;Node7 -->
<g id="edge12_Node000011_Node000007" class="edge">
<title>Node11&#45;&gt;Node7</title>
<g id="a_edge12_Node000011_Node000007"><a xlink:title=" ">
<path fill="none" stroke="#63b8ff" d="M148.93,-118.69C140.9,-118.69 132.92,-118.69 125.24,-118.69"/>
<polygon fill="#63b8ff" stroke="#63b8ff" points="148.78,-122.19 158.78,-118.69 148.78,-115.19 148.78,-122.19"/>
</a>
</g>
</g>
<!-- Node12&#45;&gt;Node7 -->
<g id="edge14_Node000012_Node000007" class="edge">
<title>Node12&#45;&gt;Node7</title>
<g id="a_edge14_Node000012_Node000007"><a xlink:title=" ">
<path fill="none" stroke="#63b8ff" d="M168.67,-83.62C148.97,-90.18 128.26,-97.08 110.48,-103"/>
<polygon fill="#63b8ff" stroke="#63b8ff" points="169.67,-86.98 178.05,-80.5 167.46,-80.34 169.67,-86.98"/>
</a>
</g>
</g>
<!-- Node13&#45;&gt;Node7 -->
<g id="edge16_Node000013_Node000007" class="edge">
<title>Node13&#45;&gt;Node7</title>
<g id="a_edge16_Node000013_Node000007"><a xlink:title=" ">
<path fill="none" stroke="#63b8ff" d="M201.88,-394.98C187.42,-383.79 172.02,-369.92 160.75,-354.69 106.7,-281.66 76.77,-174.26 66.99,-134.37"/>
<polygon fill="#63b8ff" stroke="#63b8ff" points="199.4,-397.5 209.51,-400.68 203.59,-391.89 199.4,-397.5"/>
</a>
</g>
</g>
<!-- Node13&#45;&gt;Node8 -->
<g id="edge17_Node000013_Node000008" class="edge">
<title>Node13&#45;&gt;Node8</title>
<g id="a_edge17_Node000013_Node000008"><a xlink:title=" ">
<path fill="none" stroke="#63b8ff" d="M162.22,-411.41C149.72,-409.68 137,-407.91 125.02,-406.25"/>
<polygon fill="#63b8ff" stroke="#63b8ff" points="161.72,-414.88 172.1,-412.79 162.68,-407.94 161.72,-414.88"/>
</a>
</g>
</g>
</g>
</svg>
