<?xml version="1.0" encoding="UTF-8" standalone="no"?>
<!DOCTYPE svg PUBLIC "-//W3C//DTD SVG 1.1//EN"
 "http://www.w3.org/Graphics/SVG/1.1/DTD/svg11.dtd">
<!-- Generated by graphviz version 14.0.2 (0)
 -->
<!-- Title: hiir::load4u Pages: 1 -->
<svg width="580pt" height="605pt"
 viewBox="0.00 0.00 580.00 605.00" xmlns="http://www.w3.org/2000/svg" xmlns:xlink="http://www.w3.org/1999/xlink">
<g id="graph0" class="graph" transform="scale(1 1) rotate(0) translate(4 600.5)">
<title>hiir::load4u</title>
<!-- Node1 -->
<g id="Node000001" class="node">
<title>Node1</title>
<g id="a_Node000001"><a xlink:title=" ">
<polygon fill="#999999" stroke="#666666" points="571.75,-345.88 510,-345.88 510,-326.62 571.75,-326.62 571.75,-345.88"/>
<text xml:space="preserve" text-anchor="middle" x="540.88" y="-332.38" font-family="Helvetica,sans-Serif" font-size="10.00">hiir::load4u</text>
</a>
</g>
</g>
<!-- Node2 -->
<g id="Node000002" class="node">
<title>Node2</title>
<g id="a_Node000002"><a xlink:href="classhiir_1_1PhaseHalfPi4Neon.html#aa7ad2087ca4a3c5ce9ba374c5d1a66d3" target="_top" xlink:title=" ">
<polygon fill="white" stroke="#666666" points="462,-596.5 345.5,-596.5 345.5,-566 462,-566 462,-596.5"/>
<text xml:space="preserve" text-anchor="start" x="353.5" y="-583" font-family="Helvetica,sans-Serif" font-size="10.00">hiir::PhaseHalfPi4Neon</text>
<text xml:space="preserve" text-anchor="middle" x="403.75" y="-571.75" font-family="Helvetica,sans-Serif" font-size="10.00">::process_block</text>
</a>
</g>
</g>
<!-- Node1&#45;&gt;Node2 -->
<g id="edge1_Node000001_Node000002" class="edge">
<title>Node1&#45;&gt;Node2</title>
<g id="a_edge1_Node000001_Node000002"><a xlink:title=" ">
<path fill="none" stroke="#63b8ff" d="M539.57,-357.37C537.81,-400.51 527.75,-499.43 474,-556.25 470.57,-559.87 466.59,-562.97 462.28,-565.62"/>
<polygon fill="#63b8ff" stroke="#63b8ff" points="543.06,-357.71 539.84,-347.62 536.06,-357.51 543.06,-357.71"/>
</a>
</g>
</g>
<!-- Node4 -->
<g id="Node000004" class="node">
<title>Node4</title>
<g id="a_Node000004"><a xlink:href="classhiir_1_1Upsampler2x4Neon.html#a0b99ccce2390c66c627ae080cd308cd9" target="_top" xlink:title=" ">
<polygon fill="white" stroke="#666666" points="463.12,-547.5 344.38,-547.5 344.38,-517 463.12,-517 463.12,-547.5"/>
<text xml:space="preserve" text-anchor="start" x="352.38" y="-534" font-family="Helvetica,sans-Serif" font-size="10.00">hiir::Upsampler2x4Neon</text>
<text xml:space="preserve" text-anchor="middle" x="403.75" y="-522.75" font-family="Helvetica,sans-Serif" font-size="10.00">::process_block</text>
</a>
</g>
</g>
<!-- Node1&#45;&gt;Node4 -->
<g id="edge3_Node000001_Node000004" class="edge">
<title>Node1&#45;&gt;Node4</title>
<g id="a_edge3_Node000001_Node000004"><a xlink:title=" ">
<path fill="none" stroke="#63b8ff" d="M537.43,-357.26C532.21,-392.92 516.71,-465.44 474,-507.25 470.35,-510.83 466.14,-513.9 461.65,-516.53"/>
<polygon fill="#63b8ff" stroke="#63b8ff" points="540.84,-358.18 538.68,-347.8 533.91,-357.26 540.84,-358.18"/>
</a>
</g>
</g>
<!-- Node6 -->
<g id="Node000006" class="node">
<title>Node6</title>
<g id="a_Node000006"><a xlink:href="classhiir_1_1HalfBand4Neon.html#a0cd3a7c297ccf389a13d3a68b877d13b" target="_top" xlink:title=" ">
<polygon fill="white" stroke="#666666" points="465.38,-498.5 342.12,-498.5 342.12,-468 465.38,-468 465.38,-498.5"/>
<text xml:space="preserve" text-anchor="start" x="350.12" y="-485" font-family="Helvetica,sans-Serif" font-size="10.00">hiir::HalfBand4Neon</text>
<text xml:space="preserve" text-anchor="middle" x="403.75" y="-473.75" font-family="Helvetica,sans-Serif" font-size="10.00">::process_block_2_paths</text>
</a>
</g>
</g>
<!-- Node1&#45;&gt;Node6 -->
<g id="edge5_Node000001_Node000006" class="edge">
<title>Node1&#45;&gt;Node6</title>
<g id="a_edge5_Node000001_Node000006"><a xlink:title=" ">
<path fill="none" stroke="#63b8ff" d="M533.74,-357.23C524.83,-384.21 505.79,-430.87 474,-458.25 469.84,-461.84 465.12,-464.92 460.15,-467.58"/>
<polygon fill="#63b8ff" stroke="#63b8ff" points="537.05,-358.39 536.68,-347.8 530.37,-356.3 537.05,-358.39"/>
</a>
</g>
</g>
<!-- Node7 -->
<g id="Node000007" class="node">
<title>Node7</title>
<g id="a_Node000007"><a xlink:href="classhiir_1_1Downsampler2xNeon.html#a244ae1151b6f31a402437f9179b79fea" target="_top" xlink:title=" ">
<polygon fill="white" stroke="#666666" points="466.5,-449.5 341,-449.5 341,-419 466.5,-419 466.5,-449.5"/>
<text xml:space="preserve" text-anchor="start" x="349" y="-436" font-family="Helvetica,sans-Serif" font-size="10.00">hiir::Downsampler2xNeon</text>
<text xml:space="preserve" text-anchor="middle" x="403.75" y="-424.75" font-family="Helvetica,sans-Serif" font-size="10.00">::process_block_quad</text>
</a>
</g>
</g>
<!-- Node1&#45;&gt;Node7 -->
<g id="edge6_Node000001_Node000007" class="edge">
<title>Node1&#45;&gt;Node7</title>
<g id="a_edge6_Node000001_Node000007"><a xlink:title=" ">
<path fill="none" stroke="#63b8ff" d="M526.85,-355.32C514.82,-371.64 495.59,-394.74 474,-409.25 468.69,-412.81 462.82,-415.94 456.8,-418.66"/>
<polygon fill="#63b8ff" stroke="#63b8ff" points="529.53,-357.58 532.48,-347.4 523.83,-353.52 529.53,-357.58"/>
</a>
</g>
</g>
<!-- Node8 -->
<g id="Node000008" class="node">
<title>Node8</title>
<g id="a_Node000008"><a xlink:href="classhiir_1_1Downsampler2xNeonOld.html#a4043d47097b9ea6489bc50282c0b1aa2" target="_top" xlink:title=" ">
<polygon fill="white" stroke="#666666" points="474,-400.5 333.5,-400.5 333.5,-370 474,-370 474,-400.5"/>
<text xml:space="preserve" text-anchor="start" x="341.5" y="-387" font-family="Helvetica,sans-Serif" font-size="10.00">hiir::Downsampler2xNeonOld</text>
<text xml:space="preserve" text-anchor="middle" x="403.75" y="-375.75" font-family="Helvetica,sans-Serif" font-size="10.00">::process_block_quad</text>
</a>
</g>
</g>
<!-- Node1&#45;&gt;Node8 -->
<g id="edge7_Node000001_Node000008" class="edge">
<title>Node1&#45;&gt;Node8</title>
<g id="a_edge7_Node000001_Node000008"><a xlink:title=" ">
<path fill="none" stroke="#63b8ff" d="M501.64,-350.2C492.58,-353.5 482.95,-357 474,-360.25 465.71,-363.26 456.86,-366.46 448.35,-369.53"/>
<polygon fill="#63b8ff" stroke="#63b8ff" points="502.7,-353.54 510.9,-346.83 500.3,-346.96 502.7,-353.54"/>
</a>
</g>
</g>
<!-- Node9 -->
<g id="Node000009" class="node">
<title>Node9</title>
<g id="a_Node000009"><a xlink:href="classhiir_1_1HalfBandNeon.html#a175dda23ead2359a328fdfaeba8bb2ad" target="_top" xlink:title=" ">
<polygon fill="white" stroke="#666666" points="458.62,-351.5 348.88,-351.5 348.88,-321 458.62,-321 458.62,-351.5"/>
<text xml:space="preserve" text-anchor="start" x="356.88" y="-338" font-family="Helvetica,sans-Serif" font-size="10.00">hiir::HalfBandNeon</text>
<text xml:space="preserve" text-anchor="middle" x="403.75" y="-326.75" font-family="Helvetica,sans-Serif" font-size="10.00">::process_block_quad</text>
</a>
</g>
</g>
<!-- Node1&#45;&gt;Node9 -->
<g id="edge8_Node000001_Node000009" class="edge">
<title>Node1&#45;&gt;Node9</title>
<g id="a_edge8_Node000001_Node000009"><a xlink:title=" ">
<path fill="none" stroke="#63b8ff" d="M498.14,-336.25C485.73,-336.25 471.96,-336.25 458.88,-336.25"/>
<polygon fill="#63b8ff" stroke="#63b8ff" points="498.04,-339.75 508.04,-336.25 498.04,-332.75 498.04,-339.75"/>
</a>
</g>
</g>
<!-- Node10 -->
<g id="Node000010" class="node">
<title>Node10</title>
<g id="a_Node000010"><a xlink:href="classhiir_1_1PhaseHalfPiNeon.html#ad41ae2606b4eeb1f57e0b8a1b13365d9" target="_top" xlink:title=" ">
<polygon fill="white" stroke="#666666" points="459.38,-302.5 348.12,-302.5 348.12,-272 459.38,-272 459.38,-302.5"/>
<text xml:space="preserve" text-anchor="start" x="356.12" y="-289" font-family="Helvetica,sans-Serif" font-size="10.00">hiir::PhaseHalfPiNeon</text>
<text xml:space="preserve" text-anchor="middle" x="403.75" y="-277.75" font-family="Helvetica,sans-Serif" font-size="10.00">::process_block_quad</text>
</a>
</g>
</g>
<!-- Node1&#45;&gt;Node10 -->
<g id="edge9_Node000001_Node000010" class="edge">
<title>Node1&#45;&gt;Node10</title>
<g id="a_edge9_Node000001_Node000010"><a xlink:title=" ">
<path fill="none" stroke="#63b8ff" d="M501.64,-322.3C492.58,-319 482.95,-315.5 474,-312.25 465.71,-309.24 456.86,-306.04 448.35,-302.97"/>
<polygon fill="#63b8ff" stroke="#63b8ff" points="500.3,-325.54 510.9,-325.67 502.7,-318.96 500.3,-325.54"/>
</a>
</g>
</g>
<!-- Node13 -->
<g id="Node000013" class="node">
<title>Node13</title>
<g id="a_Node000013"><a xlink:href="classhiir_1_1Upsampler2xNeon.html#a35c4e3d241108e0024926f76ec0aec54" target="_top" xlink:title=" ">
<polygon fill="white" stroke="#666666" points="460.5,-253.5 347,-253.5 347,-223 460.5,-223 460.5,-253.5"/>
<text xml:space="preserve" text-anchor="start" x="355" y="-240" font-family="Helvetica,sans-Serif" font-size="10.00">hiir::Upsampler2xNeon</text>
<text xml:space="preserve" text-anchor="middle" x="403.75" y="-228.75" font-family="Helvetica,sans-Serif" font-size="10.00">::process_block_quad</text>
</a>
</g>
</g>
<!-- Node1&#45;&gt;Node13 -->
<g id="edge12_Node000001_Node000013" class="edge">
<title>Node1&#45;&gt;Node13</title>
<g id="a_edge12_Node000001_Node000013"><a xlink:title=" ">
<path fill="none" stroke="#63b8ff" d="M526.85,-317.18C514.82,-300.86 495.59,-277.76 474,-263.25 468.69,-259.69 462.82,-256.56 456.8,-253.84"/>
<polygon fill="#63b8ff" stroke="#63b8ff" points="523.83,-318.98 532.48,-325.1 529.53,-314.92 523.83,-318.98"/>
</a>
</g>
</g>
<!-- Node16 -->
<g id="Node000016" class="node">
<title>Node16</title>
<g id="a_Node000016"><a xlink:href="classhiir_1_1Upsampler2xNeonOld.html#aa692dba823e7064b28496c4b974f15a3" target="_top" xlink:title=" ">
<polygon fill="white" stroke="#666666" points="468,-204.5 339.5,-204.5 339.5,-174 468,-174 468,-204.5"/>
<text xml:space="preserve" text-anchor="start" x="347.5" y="-191" font-family="Helvetica,sans-Serif" font-size="10.00">hiir::Upsampler2xNeonOld</text>
<text xml:space="preserve" text-anchor="middle" x="403.75" y="-179.75" font-family="Helvetica,sans-Serif" font-size="10.00">::process_block_quad</text>
</a>
</g>
</g>
<!-- Node1&#45;&gt;Node16 -->
<g id="edge15_Node000001_Node000016" class="edge">
<title>Node1&#45;&gt;Node16</title>
<g id="a_edge15_Node000001_Node000016"><a xlink:title=" ">
<path fill="none" stroke="#63b8ff" d="M533.74,-315.27C524.83,-288.29 505.79,-241.63 474,-214.25 469.84,-210.66 465.12,-207.58 460.15,-204.92"/>
<polygon fill="#63b8ff" stroke="#63b8ff" points="530.37,-316.2 536.68,-324.7 537.05,-314.11 530.37,-316.2"/>
</a>
</g>
</g>
<!-- Node19 -->
<g id="Node000019" class="node">
<title>Node19</title>
<g id="a_Node000019"><a xlink:href="classhiir_1_1Downsampler2x4Neon.html#afb1c6c292febf3bc9a92a130c38140d5" target="_top" xlink:title=" ">
<polygon fill="white" stroke="#666666" points="469.12,-137.5 338.38,-137.5 338.38,-107 469.12,-107 469.12,-137.5"/>
<text xml:space="preserve" text-anchor="start" x="346.38" y="-124" font-family="Helvetica,sans-Serif" font-size="10.00">hiir::Downsampler2x4Neon</text>
<text xml:space="preserve" text-anchor="middle" x="403.75" y="-112.75" font-family="Helvetica,sans-Serif" font-size="10.00">::process_sample</text>
</a>
</g>
</g>
<!-- Node1&#45;&gt;Node19 -->
<g id="edge18_Node000001_Node000019" class="edge">
<title>Node1&#45;&gt;Node19</title>
<g id="a_edge18_Node000001_Node000019"><a xlink:title=" ">
<path fill="none" stroke="#63b8ff" d="M536.27,-315.19C529.44,-280.55 511.76,-210.87 474,-165.25 464.71,-154.02 451.68,-144.87 439.43,-137.94"/>
<polygon fill="#63b8ff" stroke="#63b8ff" points="532.78,-315.57 538.04,-324.77 539.67,-314.3 532.78,-315.57"/>
</a>
</g>
</g>
<!-- Node22 -->
<g id="Node000022" class="node">
<title>Node22</title>
<g id="a_Node000022"><a xlink:href="classhiir_1_1Downsampler2x4Neon.html#ade228b95fd3eeaed6a99df9540ee8b5e" target="_top" xlink:title=" ">
<polygon fill="white" stroke="#666666" points="469.12,-70.5 338.38,-70.5 338.38,-40 469.12,-40 469.12,-70.5"/>
<text xml:space="preserve" text-anchor="start" x="346.38" y="-57" font-family="Helvetica,sans-Serif" font-size="10.00">hiir::Downsampler2x4Neon</text>
<text xml:space="preserve" text-anchor="middle" x="403.75" y="-45.75" font-family="Helvetica,sans-Serif" font-size="10.00">::process_sample_split</text>
</a>
</g>
</g>
<!-- Node1&#45;&gt;Node22 -->
<g id="edge23_Node000001_Node000022" class="edge">
<title>Node1&#45;&gt;Node22</title>
<g id="a_edge23_Node000001_Node000022"><a xlink:title=" ">
<path fill="none" stroke="#63b8ff" d="M539.08,-315.27C536.4,-270.89 524.74,-166.04 474,-98.25 465.43,-86.81 452.85,-77.7 440.75,-70.87"/>
<polygon fill="#63b8ff" stroke="#63b8ff" points="535.57,-315.22 539.56,-325.04 542.56,-314.87 535.57,-315.22"/>
</a>
</g>
</g>
<!-- Node3 -->
<g id="Node000003" class="node">
<title>Node3</title>
<g id="a_Node000003"><a xlink:href="classhiir_1_1PhaseHalfPi4Neon.html#a236c1c2bf4c92c87a91b02d46fc00cec" target="_top" xlink:title=" ">
<polygon fill="white" stroke="#666666" points="290.38,-596.5 173.88,-596.5 173.88,-566 290.38,-566 290.38,-596.5"/>
<text xml:space="preserve" text-anchor="start" x="181.88" y="-583" font-family="Helvetica,sans-Serif" font-size="10.00">hiir::PhaseHalfPi4Neon</text>
<text xml:space="preserve" text-anchor="middle" x="232.12" y="-571.75" font-family="Helvetica,sans-Serif" font-size="10.00">::operator=</text>
</a>
</g>
</g>
<!-- Node2&#45;&gt;Node3 -->
<g id="edge2_Node000002_Node000003" class="edge">
<title>Node2&#45;&gt;Node3</title>
<g id="a_edge2_Node000002_Node000003"><a xlink:title=" ">
<path fill="none" stroke="#63b8ff" d="M333.99,-581.25C319.65,-581.25 304.67,-581.25 290.78,-581.25"/>
<polygon fill="#63b8ff" stroke="#63b8ff" points="333.81,-584.75 343.81,-581.25 333.81,-577.75 333.81,-584.75"/>
</a>
</g>
</g>
<!-- Node5 -->
<g id="Node000005" class="node">
<title>Node5</title>
<g id="a_Node000005"><a xlink:href="classhiir_1_1Upsampler2x4Neon.html#af4e960400d52c9edbd295baae4879040" target="_top" xlink:title=" ">
<polygon fill="white" stroke="#666666" points="291.5,-547.5 172.75,-547.5 172.75,-517 291.5,-517 291.5,-547.5"/>
<text xml:space="preserve" text-anchor="start" x="180.75" y="-534" font-family="Helvetica,sans-Serif" font-size="10.00">hiir::Upsampler2x4Neon</text>
<text xml:space="preserve" text-anchor="middle" x="232.12" y="-522.75" font-family="Helvetica,sans-Serif" font-size="10.00">::operator=</text>
</a>
</g>
</g>
<!-- Node4&#45;&gt;Node5 -->
<g id="edge4_Node000004_Node000005" class="edge">
<title>Node4&#45;&gt;Node5</title>
<g id="a_edge4_Node000004_Node000005"><a xlink:title=" ">
<path fill="none" stroke="#63b8ff" d="M332.66,-532.25C319.1,-532.25 305.02,-532.25 291.87,-532.25"/>
<polygon fill="#63b8ff" stroke="#63b8ff" points="332.39,-535.75 342.39,-532.25 332.39,-528.75 332.39,-535.75"/>
</a>
</g>
</g>
<!-- Node11 -->
<g id="Node000011" class="node">
<title>Node11</title>
<g id="a_Node000011"><a xlink:href="classhiir_1_1PhaseHalfPiNeon.html#a9e276aaa5643c74d5e1c729c91fe29f0" target="_top" xlink:title=" ">
<polygon fill="white" stroke="#666666" points="287.75,-302.5 176.5,-302.5 176.5,-272 287.75,-272 287.75,-302.5"/>
<text xml:space="preserve" text-anchor="start" x="184.5" y="-289" font-family="Helvetica,sans-Serif" font-size="10.00">hiir::PhaseHalfPiNeon</text>
<text xml:space="preserve" text-anchor="middle" x="232.12" y="-277.75" font-family="Helvetica,sans-Serif" font-size="10.00">::process_block</text>
</a>
</g>
</g>
<!-- Node10&#45;&gt;Node11 -->
<g id="edge10_Node000010_Node000011" class="edge">
<title>Node10&#45;&gt;Node11</title>
<g id="a_edge10_Node000010_Node000011"><a xlink:title=" ">
<path fill="none" stroke="#63b8ff" d="M336.28,-287.25C320.37,-287.25 303.55,-287.25 288.21,-287.25"/>
<polygon fill="#63b8ff" stroke="#63b8ff" points="336.16,-290.75 346.16,-287.25 336.16,-283.75 336.16,-290.75"/>
</a>
</g>
</g>
<!-- Node12 -->
<g id="Node000012" class="node">
<title>Node12</title>
<g id="a_Node000012"><a xlink:href="classhiir_1_1PhaseHalfPiNeon.html#ae371c9fb014d54671a99096ab8c6e164" target="_top" xlink:title=" ">
<polygon fill="white" stroke="#666666" points="121,-302.5 9.75,-302.5 9.75,-272 121,-272 121,-302.5"/>
<text xml:space="preserve" text-anchor="start" x="17.75" y="-289" font-family="Helvetica,sans-Serif" font-size="10.00">hiir::PhaseHalfPiNeon</text>
<text xml:space="preserve" text-anchor="middle" x="65.38" y="-277.75" font-family="Helvetica,sans-Serif" font-size="10.00">::operator=</text>
</a>
</g>
</g>
<!-- Node11&#45;&gt;Node12 -->
<g id="edge11_Node000011_Node000012" class="edge">
<title>Node11&#45;&gt;Node12</title>
<g id="a_edge11_Node000011_Node000012"><a xlink:title=" ">
<path fill="none" stroke="#63b8ff" d="M164.85,-287.25C150.39,-287.25 135.24,-287.25 121.28,-287.25"/>
<polygon fill="#63b8ff" stroke="#63b8ff" points="164.75,-290.75 174.75,-287.25 164.75,-283.75 164.75,-290.75"/>
</a>
</g>
</g>
<!-- Node14 -->
<g id="Node000014" class="node">
<title>Node14</title>
<g id="a_Node000014"><a xlink:href="classhiir_1_1Upsampler2xNeon.html#a865b2eb79e77dc3f30808bb43e2468e7" target="_top" xlink:title=" ">
<polygon fill="white" stroke="#666666" points="288.88,-253.5 175.38,-253.5 175.38,-223 288.88,-223 288.88,-253.5"/>
<text xml:space="preserve" text-anchor="start" x="183.38" y="-240" font-family="Helvetica,sans-Serif" font-size="10.00">hiir::Upsampler2xNeon</text>
<text xml:space="preserve" text-anchor="middle" x="232.12" y="-228.75" font-family="Helvetica,sans-Serif" font-size="10.00">::process_block</text>
</a>
</g>
</g>
<!-- Node13&#45;&gt;Node14 -->
<g id="edge13_Node000013_Node000014" class="edge">
<title>Node13&#45;&gt;Node14</title>
<g id="a_edge13_Node000013_Node000014"><a xlink:title=" ">
<path fill="none" stroke="#63b8ff" d="M335.29,-238.25C320.07,-238.25 304.07,-238.25 289.37,-238.25"/>
<polygon fill="#63b8ff" stroke="#63b8ff" points="335.22,-241.75 345.22,-238.25 335.22,-234.75 335.22,-241.75"/>
</a>
</g>
</g>
<!-- Node15 -->
<g id="Node000015" class="node">
<title>Node15</title>
<g id="a_Node000015"><a xlink:href="classhiir_1_1Upsampler2xNeon.html#ab0f9f4e9d6ac1b5f2d26ff34c17c8c62" target="_top" xlink:title=" ">
<polygon fill="white" stroke="#666666" points="122.12,-253.5 8.62,-253.5 8.62,-223 122.12,-223 122.12,-253.5"/>
<text xml:space="preserve" text-anchor="start" x="16.62" y="-240" font-family="Helvetica,sans-Serif" font-size="10.00">hiir::Upsampler2xNeon</text>
<text xml:space="preserve" text-anchor="middle" x="65.38" y="-228.75" font-family="Helvetica,sans-Serif" font-size="10.00">::operator=</text>
</a>
</g>
</g>
<!-- Node14&#45;&gt;Node15 -->
<g id="edge14_Node000014_Node000015" class="edge">
<title>Node14&#45;&gt;Node15</title>
<g id="a_edge14_Node000014_Node000015"><a xlink:title=" ">
<path fill="none" stroke="#63b8ff" d="M163.55,-238.25C149.86,-238.25 135.6,-238.25 122.36,-238.25"/>
<polygon fill="#63b8ff" stroke="#63b8ff" points="163.37,-241.75 173.37,-238.25 163.37,-234.75 163.37,-241.75"/>
</a>
</g>
</g>
<!-- Node17 -->
<g id="Node000017" class="node">
<title>Node17</title>
<g id="a_Node000017"><a xlink:href="classhiir_1_1Upsampler2xNeonOld.html#aae1139a106384cb4a422b15c037212cb" target="_top" xlink:title=" ">
<polygon fill="white" stroke="#666666" points="296.38,-204.5 167.88,-204.5 167.88,-174 296.38,-174 296.38,-204.5"/>
<text xml:space="preserve" text-anchor="start" x="175.88" y="-191" font-family="Helvetica,sans-Serif" font-size="10.00">hiir::Upsampler2xNeonOld</text>
<text xml:space="preserve" text-anchor="middle" x="232.12" y="-179.75" font-family="Helvetica,sans-Serif" font-size="10.00">::process_block</text>
</a>
</g>
</g>
<!-- Node16&#45;&gt;Node17 -->
<g id="edge16_Node000016_Node000017" class="edge">
<title>Node16&#45;&gt;Node17</title>
<g id="a_edge16_Node000016_Node000017"><a xlink:title=" ">
<path fill="none" stroke="#63b8ff" d="M327.62,-189.25C317.35,-189.25 306.89,-189.25 296.84,-189.25"/>
<polygon fill="#63b8ff" stroke="#63b8ff" points="327.59,-192.75 337.59,-189.25 327.59,-185.75 327.59,-192.75"/>
</a>
</g>
</g>
<!-- Node18 -->
<g id="Node000018" class="node">
<title>Node18</title>
<g id="a_Node000018"><a xlink:href="classhiir_1_1Upsampler2xNeonOld.html#a3b96e0db6bd2a9ababd553e3cd3a1688" target="_top" xlink:title=" ">
<polygon fill="white" stroke="#666666" points="129.62,-204.5 1.12,-204.5 1.12,-174 129.62,-174 129.62,-204.5"/>
<text xml:space="preserve" text-anchor="start" x="9.12" y="-191" font-family="Helvetica,sans-Serif" font-size="10.00">hiir::Upsampler2xNeonOld</text>
<text xml:space="preserve" text-anchor="middle" x="65.38" y="-179.75" font-family="Helvetica,sans-Serif" font-size="10.00">::operator=</text>
</a>
</g>
</g>
<!-- Node17&#45;&gt;Node18 -->
<g id="edge17_Node000017_Node000018" class="edge">
<title>Node17&#45;&gt;Node18</title>
<g id="a_edge17_Node000017_Node000018"><a xlink:title=" ">
<path fill="none" stroke="#63b8ff" d="M156.04,-189.25C147.31,-189.25 138.46,-189.25 129.9,-189.25"/>
<polygon fill="#63b8ff" stroke="#63b8ff" points="155.91,-192.75 165.91,-189.25 155.91,-185.75 155.91,-192.75"/>
</a>
</g>
</g>
<!-- Node19&#45;&gt;Node19 -->
<g id="edge22_Node000019_Node000019" class="edge">
<title>Node19&#45;&gt;Node19</title>
<g id="a_edge22_Node000019_Node000019"><a xlink:title=" ">
<path fill="none" stroke="#63b8ff" d="M426.75,-149.2C422.99,-152.97 415.32,-155.5 403.75,-155.5 382.59,-155.5 374.49,-147.06 379.45,-137.99"/>
<polygon fill="#63b8ff" stroke="#63b8ff" points="430.2,-149.83 427.87,-139.49 423.24,-149.02 430.2,-149.83"/>
</a>
</g>
</g>
<!-- Node20 -->
<g id="Node000020" class="node">
<title>Node20</title>
<g id="a_Node000020"><a xlink:href="classhiir_1_1Downsampler2x4Neon.html#a98196d48501f6c7ae6cfd31abc17739c" target="_top" xlink:title=" ">
<polygon fill="white" stroke="#666666" points="130.75,-95.5 0,-95.5 0,-65 130.75,-65 130.75,-95.5"/>
<text xml:space="preserve" text-anchor="start" x="8" y="-82" font-family="Helvetica,sans-Serif" font-size="10.00">hiir::Downsampler2x4Neon</text>
<text xml:space="preserve" text-anchor="middle" x="65.38" y="-70.75" font-family="Helvetica,sans-Serif" font-size="10.00">::operator=</text>
</a>
</g>
</g>
<!-- Node19&#45;&gt;Node20 -->
<g id="edge19_Node000019_Node000020" class="edge">
<title>Node19&#45;&gt;Node20</title>
<g id="a_edge19_Node000019_Node000020"><a xlink:title=" ">
<path fill="none" stroke="#63b8ff" d="M326.64,-131.71C279.98,-135.43 219.31,-136.49 166.75,-125.25 140.42,-119.62 112.64,-106.54 93,-95.92"/>
<polygon fill="#63b8ff" stroke="#63b8ff" points="326.71,-135.22 336.37,-130.88 326.11,-128.25 326.71,-135.22"/>
</a>
</g>
</g>
<!-- Node21 -->
<g id="Node000021" class="node">
<title>Node21</title>
<g id="a_Node000021"><a xlink:href="classhiir_1_1Downsampler2x4Neon.html#acd666ed6e1eafe5d6dc00c74d3fa515c" target="_top" xlink:title=" ">
<polygon fill="white" stroke="#666666" points="297.5,-116.5 166.75,-116.5 166.75,-86 297.5,-86 297.5,-116.5"/>
<text xml:space="preserve" text-anchor="start" x="174.75" y="-103" font-family="Helvetica,sans-Serif" font-size="10.00">hiir::Downsampler2x4Neon</text>
<text xml:space="preserve" text-anchor="middle" x="232.12" y="-91.75" font-family="Helvetica,sans-Serif" font-size="10.00">::process_block</text>
</a>
</g>
</g>
<!-- Node19&#45;&gt;Node21 -->
<g id="edge20_Node000019_Node000021" class="edge">
<title>Node19&#45;&gt;Node21</title>
<g id="a_edge20_Node000019_Node000021"><a xlink:title=" ">
<path fill="none" stroke="#63b8ff" d="M326.87,-112.86C317.18,-111.66 307.33,-110.44 297.84,-109.26"/>
<polygon fill="#63b8ff" stroke="#63b8ff" points="326.28,-116.31 336.64,-114.06 327.14,-109.36 326.28,-116.31"/>
</a>
</g>
</g>
<!-- Node21&#45;&gt;Node20 -->
<g id="edge21_Node000021_Node000020" class="edge">
<title>Node21&#45;&gt;Node20</title>
<g id="a_edge21_Node000021_Node000020"><a xlink:title=" ">
<path fill="none" stroke="#63b8ff" d="M155.19,-91.57C147.14,-90.54 139.01,-89.51 131.1,-88.5"/>
<polygon fill="#63b8ff" stroke="#63b8ff" points="154.62,-95.03 164.98,-92.82 155.51,-88.08 154.62,-95.03"/>
</a>
</g>
</g>
<!-- Node22&#45;&gt;Node20 -->
<g id="edge24_Node000022_Node000020" class="edge">
<title>Node22&#45;&gt;Node20</title>
<g id="a_edge24_Node000022_Node000020"><a xlink:title=" ">
<path fill="none" stroke="#63b8ff" d="M326.78,-60.9C267.8,-65.28 186.93,-71.29 131.03,-75.44"/>
<polygon fill="#63b8ff" stroke="#63b8ff" points="326.67,-64.41 336.38,-60.18 326.15,-57.43 326.67,-64.41"/>
</a>
</g>
</g>
<!-- Node22&#45;&gt;Node22 -->
<g id="edge27_Node000022_Node000022" class="edge">
<title>Node22&#45;&gt;Node22</title>
<g id="a_edge27_Node000022_Node000022"><a xlink:title=" ">
<path fill="none" stroke="#63b8ff" d="M426.75,-82.2C422.99,-85.97 415.32,-88.5 403.75,-88.5 382.59,-88.5 374.49,-80.06 379.45,-70.99"/>
<polygon fill="#63b8ff" stroke="#63b8ff" points="430.2,-82.83 427.87,-72.49 423.24,-82.02 430.2,-82.83"/>
</a>
</g>
</g>
<!-- Node23 -->
<g id="Node000023" class="node">
<title>Node23</title>
<g id="a_Node000023"><a xlink:href="classhiir_1_1Downsampler2x4Neon.html#af03c0e7f837a2392b0f940f360fdbfa5" target="_top" xlink:title=" ">
<polygon fill="white" stroke="#666666" points="297.5,-30.5 166.75,-30.5 166.75,0 297.5,0 297.5,-30.5"/>
<text xml:space="preserve" text-anchor="start" x="174.75" y="-17" font-family="Helvetica,sans-Serif" font-size="10.00">hiir::Downsampler2x4Neon</text>
<text xml:space="preserve" text-anchor="middle" x="232.12" y="-5.75" font-family="Helvetica,sans-Serif" font-size="10.00">::process_block_split</text>
</a>
</g>
</g>
<!-- Node22&#45;&gt;Node23 -->
<g id="edge25_Node000022_Node000023" class="edge">
<title>Node22&#45;&gt;Node23</title>
<g id="a_edge25_Node000022_Node000023"><a xlink:title=" ">
<path fill="none" stroke="#63b8ff" d="M327.18,-37.43C317.39,-35.12 307.43,-32.77 297.84,-30.51"/>
<polygon fill="#63b8ff" stroke="#63b8ff" points="326.13,-40.78 336.67,-39.67 327.74,-33.96 326.13,-40.78"/>
</a>
</g>
</g>
<!-- Node23&#45;&gt;Node20 -->
<g id="edge26_Node000023_Node000020" class="edge">
<title>Node23&#45;&gt;Node20</title>
<g id="a_edge26_Node000023_Node000020"><a xlink:title=" ">
<path fill="none" stroke="#63b8ff" d="M180.59,-35.19C156.68,-44.62 128.54,-55.72 106.17,-64.55"/>
<polygon fill="#63b8ff" stroke="#63b8ff" points="181.82,-38.47 189.84,-31.54 179.25,-31.95 181.82,-38.47"/>
</a>
</g>
</g>
</g>
</svg>
