<?xml version="1.0" encoding="UTF-8" standalone="no"?>
<!DOCTYPE svg PUBLIC "-//W3C//DTD SVG 1.1//EN"
 "http://www.w3.org/Graphics/SVG/1.1/DTD/svg11.dtd">
<!-- Generated by graphviz version 14.0.2 (0)
 -->
<!-- Title: juce::detail::ceilAsInt Pages: 1 -->
<svg width="253pt" height="82pt"
 viewBox="0.00 0.00 253.00 82.00" xmlns="http://www.w3.org/2000/svg" xmlns:xlink="http://www.w3.org/1999/xlink">

<svg id="main" version="1.1" xmlns="http://www.w3.org/2000/svg" xmlns:xlink="http://www.w3.org/1999/xlink" xml:space="preserve">

<style type="text/css"><![CDATA[
.node, .edge {opacity: 0.7;}
.node.selected, .edge.selected {opacity: 1;}
.edge:hover path { stroke: red; }
.edge:hover polygon { stroke: red; fill: red; }
]]></style>
<script type="application/ecmascript" xlink:href="svg.min.js"/>
<svg id="graph" class="graph">
<g id="graph0" class="graph" transform="scale(1 1) rotate(0) translate(4 78.25)">
<title>juce::detail::ceilAsInt</title>
<!-- Node1 -->
<g id="Node000001" class="node">
<title>Node1</title>
<g id="a_Node000001"><a xlink:title=" ">
<polygon fill="#999999" stroke="#666666" points="104.5,-37.25 0,-37.25 0,-18 104.5,-18 104.5,-37.25"/>
<text xml:space="preserve" text-anchor="middle" x="52.25" y="-23.75" font-family="Helvetica,sans-Serif" font-size="10.00">juce::detail::ceilAsInt</text>
</a>
</g>
</g>
<!-- Node2 -->
<g id="Node000002" class="node">
<title>Node2</title>
<g id="a_Node000002"><a xlink:href="namespacejuce_1_1detail.html#ab23acb24b76aafebe3c0af08570be571" target="_top" xlink:title=" ">
<polygon fill="white" stroke="#666666" points="245,-56.25 140.5,-56.25 140.5,-37 245,-37 245,-56.25"/>
<text xml:space="preserve" text-anchor="middle" x="192.75" y="-42.75" font-family="Helvetica,sans-Serif" font-size="10.00">juce::detail::ceilAsInt</text>
</a>
</g>
</g>
<!-- Node1&#45;&gt;Node2 -->
<g id="edge1_Node000001_Node000002" class="edge">
<title>Node1&#45;&gt;Node2</title>
<g id="a_edge1_Node000001_Node000002"><a xlink:title=" ">
<path fill="none" stroke="#63b8ff" d="M104.82,-34.7C112.66,-35.78 120.83,-36.9 128.88,-38"/>
<polygon fill="#63b8ff" stroke="#63b8ff" points="128.25,-41.45 138.64,-39.34 129.2,-34.51 128.25,-41.45"/>
</a>
</g>
</g>
<!-- Node3 -->
<g id="Node000003" class="node">
<title>Node3</title>
<g id="a_Node000003"><a xlink:href="unzipfx-carla-control_2unzip_8h.html#a6146ec4ac32d62cf01b4c4c6587d5131" target="_top" xlink:title=" ">
<polygon fill="white" stroke="#666666" points="207.15,-19.25 178.35,-19.25 178.35,0 207.15,0 207.15,-19.25"/>
<text xml:space="preserve" text-anchor="middle" x="192.75" y="-5.75" font-family="Helvetica,sans-Serif" font-size="10.00">int</text>
</a>
</g>
</g>
<!-- Node1&#45;&gt;Node3 -->
<g id="edge3_Node000001_Node000003" class="edge">
<title>Node1&#45;&gt;Node3</title>
<g id="a_edge3_Node000001_Node000003"><a xlink:title=" ">
<path fill="none" stroke="#63b8ff" d="M104.82,-20.92C125.99,-18.17 149.51,-15.11 166.75,-12.87"/>
<polygon fill="#63b8ff" stroke="#63b8ff" points="167.1,-16.36 176.56,-11.6 166.19,-9.42 167.1,-16.36"/>
</a>
</g>
</g>
<!-- Node2&#45;&gt;Node2 -->
<g id="edge2_Node000002_Node000002" class="edge">
<title>Node2&#45;&gt;Node2</title>
<g id="a_edge2_Node000002_Node000002"><a xlink:title=" ">
<path fill="none" stroke="#63b8ff" d="M170.75,-56.54C160.72,-65.15 168.05,-74.25 192.75,-74.25 206.26,-74.25 214.57,-71.53 217.69,-67.65"/>
<polygon fill="#63b8ff" stroke="#63b8ff" points="221.08,-66.77 215.13,-58 214.31,-68.56 221.08,-66.77"/>
</a>
</g>
</g>
</g>
</svg>
</svg>

<style type='text/css'>
<![CDATA[
[data-mouse-over-selected='false'] { opacity: 0.7; }
[data-mouse-over-selected='true']  { opacity: 1.0; }
]]>
</style>
<script type="application/ecmascript"><![CDATA[
document.addEventListener('DOMContentLoaded', (event) => {
  highlightEdges();
  highlightAdjacentNodes();
});
]]></script>
</svg>
