<?xml version="1.0" encoding="UTF-8" standalone="no"?>
<!DOCTYPE svg PUBLIC "-//W3C//DTD SVG 1.1//EN"
 "http://www.w3.org/Graphics/SVG/1.1/DTD/svg11.dtd">
<!-- Generated by graphviz version 14.0.2 (0)
 -->
<!-- Title: juce::KeyPressHelpers::getNumpadKeyCode Pages: 1 -->
<!--zoomable 384 -->

<svg id="main" version="1.1" xmlns="http://www.w3.org/2000/svg" xmlns:xlink="http://www.w3.org/1999/xlink" xml:space="preserve" onload="init(evt)">

<style type="text/css"><![CDATA[
.node, .edge {opacity: 0.7;}
.node.selected, .edge.selected {opacity: 1;}
.edge:hover path { stroke: red; }
.edge:hover polygon { stroke: red; fill: red; }
]]></style>

<defs>
  <circle id="rim" cx="0" cy="0" r="7"/>
  <circle id="rim2" cx="0" cy="0" r="3.5"/>
  <g id="zoomPlus">
    <use xlink:href="#rim" fill="#404040"><set attributeName="fill" to="#808080" begin="zoomplus.mouseover" end="zoomplus.mouseout"/></use>
    <path d="M-4,0h8M0,-4v8" fill="none" stroke="white" stroke-width="1.5" pointer-events="none"/>
  </g>
  <g id="zoomMin">
    <use xlink:href="#rim" fill="#404040"><set attributeName="fill" to="#808080" begin="zoomminus.mouseover" end="zoomminus.mouseout"/></use>
    <path d="M-4,0h8" fill="none" stroke="white" stroke-width="1.5" pointer-events="none"/>
  </g>
  <g id="arrowUp" transform="translate(30 24)">
    <use xlink:href="#rim"/>
    <path pointer-events="none" fill="none" stroke="white" stroke-width="1.5" d="M0,-3.0v7 M-2.5,-0.5L0,-3.0L2.5,-0.5"/>
  </g>
  <g id="arrowRight" transform="rotate(90) translate(36 -43)">
    <use xlink:href="#rim"/>
    <path pointer-events="none" fill="none" stroke="white" stroke-width="1.5" d="M0,-3.0v7 M-2.5,-0.5L0,-3.0L2.5,-0.5"/>
  </g>
  <g id="arrowDown" transform="rotate(180) translate(-30 -48)">
    <use xlink:href="#rim"/>
    <path pointer-events="none" fill="none" stroke="white" stroke-width="1.5" d="M0,-3.0v7 M-2.5,-0.5L0,-3.0L2.5,-0.5"/>
  </g>
  <g id="arrowLeft" transform="rotate(270) translate(-36 17)">
    <use xlink:href="#rim"/>
    <path pointer-events="none" fill="none" stroke="white" stroke-width="1.5" d="M0,-3.0v7 M-2.5,-0.5L0,-3.0L2.5,-0.5"/>
  </g>
  <g id="resetDef">
    <use xlink:href="#rim2" fill="#404040"><set attributeName="fill" to="#808080" begin="reset.mouseover" end="reset.mouseout"/></use>
  </g>
</defs>
<script type="application/ecmascript">
var viewWidth = 724;
var viewHeight = 384;
var sectionId = 'dynsection-0';
</script>
<script type="application/ecmascript" xlink:href="svg.min.js"/>
<svg id="graph" class="graph">
<g id="viewport">
<title>juce::KeyPressHelpers::getNumpadKeyCode</title>
<!-- Node1 -->
<g id="Node000001" class="node">
<title>Node1</title>
<g id="a_Node000001"><a xlink:title=" ">
<polygon fill="#999999" stroke="#666666" points="114.25,-246.88 0,-246.88 0,-216.38 114.25,-216.38 114.25,-246.88"/>
<text xml:space="preserve" text-anchor="start" x="8" y="-233.38" font-family="Helvetica,sans-Serif" font-size="10.00">juce::KeyPressHelpers</text>
<text xml:space="preserve" text-anchor="middle" x="57.12" y="-222.12" font-family="Helvetica,sans-Serif" font-size="10.00">::getNumpadKeyCode</text>
</a>
</g>
</g>
<!-- Node1&#45;&gt;Node1 -->
<g id="edge14_Node000001_Node000001" class="edge">
<title>Node1&#45;&gt;Node1</title>
<g id="a_edge14_Node000001_Node000001"><a xlink:title=" ">
<path fill="none" stroke="#63b8ff" d="M26.91,-247.36C20.75,-256.43 30.82,-264.88 57.12,-264.88 71.51,-264.88 81.04,-262.35 85.72,-258.58"/>
<polygon fill="#63b8ff" stroke="#63b8ff" points="89.16,-259.26 87.12,-248.86 82.23,-258.26 89.16,-259.26"/>
</a>
</g>
</g>
<!-- Node2 -->
<g id="Node000002" class="node">
<title>Node2</title>
<g id="a_Node000002"><a xlink:href="classjuce_1_1String.html#aee0b65ec25ce0a6f9c3590552ee1b2e8" target="_top" xlink:title=" ">
<polygon fill="white" stroke="#666666" points="305,-356.25 150.25,-356.25 150.25,-337 305,-337 305,-356.25"/>
<text xml:space="preserve" text-anchor="middle" x="227.62" y="-342.75" font-family="Helvetica,sans-Serif" font-size="10.00">juce::String::containsIgnoreCase</text>
</a>
</g>
</g>
<!-- Node1&#45;&gt;Node2 -->
<g id="edge1_Node000001_Node000002" class="edge">
<title>Node1&#45;&gt;Node2</title>
<g id="a_edge1_Node000001_Node000002"><a xlink:title=" ">
<path fill="none" stroke="#63b8ff" d="M70.54,-247.3C86.89,-266.98 117.41,-300.58 150.25,-320.62 158.07,-325.4 166.88,-329.43 175.66,-332.79"/>
<polygon fill="#63b8ff" stroke="#63b8ff" points="174.27,-336.01 184.87,-336.05 176.61,-329.41 174.27,-336.01"/>
</a>
</g>
</g>
<!-- Node5 -->
<g id="Node000005" class="node">
<title>Node5</title>
<g id="a_Node000005"><a xlink:href="unzipfx-carla-control_2unzip_8h.html#a6146ec4ac32d62cf01b4c4c6587d5131" target="_top" xlink:title=" ">
<polygon fill="white" stroke="#666666" points="716.05,-337.25 687.25,-337.25 687.25,-318 716.05,-318 716.05,-337.25"/>
<text xml:space="preserve" text-anchor="middle" x="701.65" y="-323.75" font-family="Helvetica,sans-Serif" font-size="10.00">int</text>
</a>
</g>
</g>
<!-- Node1&#45;&gt;Node5 -->
<g id="edge15_Node000001_Node000005" class="edge">
<title>Node1&#45;&gt;Node5</title>
<g id="a_edge15_Node000001_Node000005"><a xlink:title=" ">
<path fill="none" stroke="#63b8ff" d="M77.62,-247.29C95.39,-260.61 122.97,-278.91 150.25,-287.62 200.68,-303.74 574.38,-321.85 675.49,-326.49"/>
<polygon fill="#63b8ff" stroke="#63b8ff" points="675.26,-329.99 685.41,-326.94 675.58,-322.99 675.26,-329.99"/>
</a>
</g>
</g>
<!-- Node6 -->
<g id="Node000006" class="node">
<title>Node6</title>
<g id="a_Node000006"><a xlink:href="classjuce_1_1String.html#aaafe38711826e7b777994d2f0fadc21d" target="_top" xlink:title=" ">
<polygon fill="white" stroke="#666666" points="282.12,-223.25 173.12,-223.25 173.12,-204 282.12,-204 282.12,-223.25"/>
<text xml:space="preserve" text-anchor="middle" x="227.62" y="-209.75" font-family="Helvetica,sans-Serif" font-size="10.00">juce::String::endsWith</text>
</a>
</g>
</g>
<!-- Node1&#45;&gt;Node6 -->
<g id="edge7_Node000001_Node000006" class="edge">
<title>Node1&#45;&gt;Node6</title>
<g id="a_edge7_Node000001_Node000006"><a xlink:title=" ">
<path fill="none" stroke="#63b8ff" d="M114.7,-225.58C129.78,-223.97 146.19,-222.22 161.68,-220.56"/>
<polygon fill="#63b8ff" stroke="#63b8ff" points="161.69,-224.08 171.26,-219.54 160.94,-217.12 161.69,-224.08"/>
</a>
</g>
</g>
<!-- Node10 -->
<g id="Node000010" class="node">
<title>Node10</title>
<g id="a_Node000010"><a xlink:href="classjuce_1_1String.html#a601ee2751c6ba60b70875de52ef86a90" target="_top" xlink:title=" ">
<polygon fill="white" stroke="#666666" points="299.37,-260.25 155.87,-260.25 155.87,-241 299.37,-241 299.37,-260.25"/>
<text xml:space="preserve" text-anchor="middle" x="227.62" y="-246.75" font-family="Helvetica,sans-Serif" font-size="10.00">juce::String::getLastCharacter</text>
</a>
</g>
</g>
<!-- Node1&#45;&gt;Node10 -->
<g id="edge10_Node000001_Node000010" class="edge">
<title>Node1&#45;&gt;Node10</title>
<g id="a_edge10_Node000001_Node000010"><a xlink:title=" ">
<path fill="none" stroke="#63b8ff" d="M114.7,-238C124.22,-239.08 134.27,-240.21 144.28,-241.34"/>
<polygon fill="#63b8ff" stroke="#63b8ff" points="143.7,-244.8 154.03,-242.44 144.48,-237.84 143.7,-244.8"/>
</a>
</g>
</g>
<!-- Node13 -->
<g id="Node000013" class="node">
<title>Node13</title>
<g id="a_Node000013"><a xlink:href="namespacejuce_1_1KeyPressHelpers.html#a03e7e3de11712ae44afcbb18d894fc7f" target="_top" xlink:title=" ">
<polygon fill="white" stroke="#666666" points="284.75,-167.88 170.5,-167.88 170.5,-137.38 284.75,-137.38 284.75,-167.88"/>
<text xml:space="preserve" text-anchor="start" x="178.5" y="-154.38" font-family="Helvetica,sans-Serif" font-size="10.00">juce::KeyPressHelpers</text>
<text xml:space="preserve" text-anchor="middle" x="227.62" y="-143.12" font-family="Helvetica,sans-Serif" font-size="10.00">::numberPadPrefix</text>
</a>
</g>
</g>
<!-- Node1&#45;&gt;Node13 -->
<g id="edge16_Node000001_Node000013" class="edge">
<title>Node1&#45;&gt;Node13</title>
<g id="a_edge16_Node000001_Node000013"><a xlink:title=" ">
<path fill="none" stroke="#63b8ff" d="M91.42,-216.02C117.64,-203.72 154.41,-186.48 182.99,-173.08"/>
<polygon fill="#63b8ff" stroke="#63b8ff" points="184.18,-176.39 191.75,-168.98 181.21,-170.05 184.18,-176.39"/>
</a>
</g>
</g>
<!-- Node14 -->
<g id="Node000014" class="node">
<title>Node14</title>
<g id="a_Node000014"><a xlink:href="classjuce_1_1String.html#aa74ae5b119d258519dd8bd63a782f57c" target="_top" xlink:title=" ">
<polygon fill="white" stroke="#666666" points="278.37,-101.25 176.87,-101.25 176.87,-82 278.37,-82 278.37,-101.25"/>
<text xml:space="preserve" text-anchor="middle" x="227.62" y="-87.75" font-family="Helvetica,sans-Serif" font-size="10.00">juce::String::trimEnd</text>
</a>
</g>
</g>
<!-- Node1&#45;&gt;Node14 -->
<g id="edge18_Node000001_Node000014" class="edge">
<title>Node1&#45;&gt;Node14</title>
<g id="a_edge18_Node000001_Node000014"><a xlink:title=" ">
<path fill="none" stroke="#63b8ff" d="M69.07,-215.93C84.93,-194.09 116.15,-154.34 150.25,-128.62 162.01,-119.75 176.24,-112.17 189.21,-106.22"/>
<polygon fill="#63b8ff" stroke="#63b8ff" points="190.59,-109.43 198.34,-102.22 187.78,-103.02 190.59,-109.43"/>
</a>
</g>
</g>
<!-- Node2&#45;&gt;Node2 -->
<g id="edge2_Node000002_Node000002" class="edge">
<title>Node2&#45;&gt;Node2</title>
<g id="a_edge2_Node000002_Node000002"><a xlink:title=" ">
<path fill="none" stroke="#63b8ff" d="M200.93,-356.54C188.76,-365.15 197.65,-374.25 227.62,-374.25 244.48,-374.25 254.67,-371.37 258.2,-367.32"/>
<polygon fill="#63b8ff" stroke="#63b8ff" points="261.51,-366.19 254.83,-357.96 254.92,-368.56 261.51,-366.19"/>
</a>
</g>
</g>
<!-- Node3 -->
<g id="Node000003" class="node">
<title>Node3</title>
<g id="a_Node000003"><a xlink:href="classjuce_1_1String.html#abcc73c20c7487d82b8d57b7027826986" target="_top" xlink:title=" ">
<polygon fill="white" stroke="#666666" points="492,-358.25 341,-358.25 341,-339 492,-339 492,-358.25"/>
<text xml:space="preserve" text-anchor="middle" x="416.5" y="-344.75" font-family="Helvetica,sans-Serif" font-size="10.00">juce::String::indexOfIgnoreCase</text>
</a>
</g>
</g>
<!-- Node2&#45;&gt;Node3 -->
<g id="edge3_Node000002_Node000003" class="edge">
<title>Node2&#45;&gt;Node3</title>
<g id="a_edge3_Node000002_Node000003"><a xlink:title=" ">
<path fill="none" stroke="#63b8ff" d="M305.44,-347.45C313.38,-347.53 321.48,-347.62 329.51,-347.7"/>
<polygon fill="#63b8ff" stroke="#63b8ff" points="329.24,-351.2 339.27,-347.81 329.31,-344.2 329.24,-351.2"/>
</a>
</g>
</g>
<!-- Node3&#45;&gt;Node3 -->
<g id="edge6_Node000003_Node000003" class="edge">
<title>Node3&#45;&gt;Node3</title>
<g id="a_edge6_Node000003_Node000003"><a xlink:title=" ">
<path fill="none" stroke="#63b8ff" d="M389.4,-358.54C377.03,-367.15 386.07,-376.25 416.5,-376.25 433.62,-376.25 443.97,-373.37 447.54,-369.32"/>
<polygon fill="#63b8ff" stroke="#63b8ff" points="450.84,-368.15 444.12,-359.96 444.27,-370.55 450.84,-368.15"/>
</a>
</g>
</g>
<!-- Node4 -->
<g id="Node000004" class="node">
<title>Node4</title>
<g id="a_Node000004"><a xlink:href="classjuce_1_1CharacterFunctions.html#a00f947a7732cb355773f021505b14379" target="_top" xlink:title=" ">
<polygon fill="white" stroke="#666666" points="651.25,-364.88 528,-364.88 528,-334.38 651.25,-334.38 651.25,-364.88"/>
<text xml:space="preserve" text-anchor="start" x="536" y="-351.38" font-family="Helvetica,sans-Serif" font-size="10.00">juce::CharacterFunctions</text>
<text xml:space="preserve" text-anchor="middle" x="589.62" y="-340.12" font-family="Helvetica,sans-Serif" font-size="10.00">::indexOfIgnoreCase</text>
</a>
</g>
</g>
<!-- Node3&#45;&gt;Node4 -->
<g id="edge4_Node000003_Node000004" class="edge">
<title>Node3&#45;&gt;Node4</title>
<g id="a_edge4_Node000003_Node000004"><a xlink:title=" ">
<path fill="none" stroke="#63b8ff" d="M492.06,-349.06C500.14,-349.11 508.35,-349.16 516.41,-349.2"/>
<polygon fill="#63b8ff" stroke="#63b8ff" points="516.12,-352.7 526.14,-349.26 516.16,-345.7 516.12,-352.7"/>
</a>
</g>
</g>
<!-- Node4&#45;&gt;Node5 -->
<g id="edge5_Node000004_Node000005" class="edge">
<title>Node4&#45;&gt;Node5</title>
<g id="a_edge5_Node000004_Node000005"><a xlink:title=" ">
<path fill="none" stroke="#63b8ff" d="M651.43,-337.47C659.96,-335.76 668.31,-334.09 675.63,-332.63"/>
<polygon fill="#63b8ff" stroke="#63b8ff" points="676.24,-336.08 685.36,-330.68 674.87,-329.21 676.24,-336.08"/>
</a>
</g>
</g>
<!-- Node7 -->
<g id="Node000007" class="node">
<title>Node7</title>
<g id="a_Node000007"><a xlink:href="classjuce_1_1String.html#a8a2b90a0116f3dec2eafba7654a5612e" target="_top" xlink:title=" ">
<polygon fill="white" stroke="#666666" points="458.62,-183.25 374.37,-183.25 374.37,-164 458.62,-164 458.62,-183.25"/>
<text xml:space="preserve" text-anchor="middle" x="416.5" y="-169.75" font-family="Helvetica,sans-Serif" font-size="10.00">juce::String::end</text>
</a>
</g>
</g>
<!-- Node6&#45;&gt;Node7 -->
<g id="edge8_Node000006_Node000007" class="edge">
<title>Node6&#45;&gt;Node7</title>
<g id="a_edge8_Node000006_Node000007"><a xlink:title=" ">
<path fill="none" stroke="#63b8ff" d="M275.78,-203.53C302.39,-197.84 335.7,-190.71 363.12,-184.84"/>
<polygon fill="#63b8ff" stroke="#63b8ff" points="363.56,-188.32 372.6,-182.81 362.09,-181.48 363.56,-188.32"/>
</a>
</g>
</g>
<!-- Node8 -->
<g id="Node000008" class="node">
<title>Node8</title>
<g id="a_Node000008"><a xlink:href="classjuce_1_1String.html#a04a27dc496398bc392da9f1cc677cecb" target="_top" xlink:title=" ">
<polygon fill="#fff0f0" stroke="red" points="635.5,-183.25 543.75,-183.25 543.75,-164 635.5,-164 635.5,-183.25"/>
<text xml:space="preserve" text-anchor="middle" x="589.62" y="-169.75" font-family="Helvetica,sans-Serif" font-size="10.00">juce::String::begin</text>
</a>
</g>
</g>
<!-- Node7&#45;&gt;Node8 -->
<g id="edge9_Node000007_Node000008" class="edge">
<title>Node7&#45;&gt;Node8</title>
<g id="a_edge9_Node000007_Node000008"><a xlink:title=" ">
<path fill="none" stroke="#63b8ff" d="M458.92,-173.62C480.86,-173.62 508.12,-173.62 531.98,-173.62"/>
<polygon fill="#63b8ff" stroke="#63b8ff" points="531.86,-177.13 541.86,-173.63 531.86,-170.13 531.86,-177.13"/>
</a>
</g>
</g>
<!-- Node10&#45;&gt;Node10 -->
<g id="edge11_Node000010_Node000010" class="edge">
<title>Node10&#45;&gt;Node10</title>
<g id="a_edge11_Node000010_Node000010"><a xlink:title=" ">
<path fill="none" stroke="#63b8ff" d="M200.93,-260.54C188.76,-269.15 197.65,-278.25 227.62,-278.25 244.48,-278.25 254.67,-275.37 258.2,-271.32"/>
<polygon fill="#63b8ff" stroke="#63b8ff" points="261.51,-270.19 254.83,-261.96 254.92,-272.56 261.51,-270.19"/>
</a>
</g>
</g>
<!-- Node11 -->
<g id="Node000011" class="node">
<title>Node11</title>
<g id="a_Node000011"><a xlink:href="classjuce_1_1String.html#a1f0c785b3834720c20a115ff82f138de" target="_top" xlink:title=" ">
<polygon fill="white" stroke="#666666" points="468,-271.25 365,-271.25 365,-252 468,-252 468,-271.25"/>
<text xml:space="preserve" text-anchor="middle" x="416.5" y="-257.75" font-family="Helvetica,sans-Serif" font-size="10.00">juce::String::isEmpty</text>
</a>
</g>
</g>
<!-- Node10&#45;&gt;Node11 -->
<g id="edge12_Node000010_Node000011" class="edge">
<title>Node10&#45;&gt;Node11</title>
<g id="a_edge12_Node000010_Node000011"><a xlink:title=" ">
<path fill="none" stroke="#63b8ff" d="M299.81,-254.82C317.49,-255.86 336.3,-256.96 353.51,-257.98"/>
<polygon fill="#63b8ff" stroke="#63b8ff" points="352.85,-261.44 363.04,-258.54 353.26,-254.46 352.85,-261.44"/>
</a>
</g>
</g>
<!-- Node12 -->
<g id="Node000012" class="node">
<title>Node12</title>
<g id="a_Node000012"><a xlink:href="classjuce_1_1String.html#a468027b0c1096af325a7df60b21e8feb" target="_top" xlink:title=" ">
<polygon fill="white" stroke="#666666" points="463.87,-234.25 369.12,-234.25 369.12,-215 463.87,-215 463.87,-234.25"/>
<text xml:space="preserve" text-anchor="middle" x="416.5" y="-220.75" font-family="Helvetica,sans-Serif" font-size="10.00">juce::String::length</text>
</a>
</g>
</g>
<!-- Node10&#45;&gt;Node12 -->
<g id="edge13_Node000010_Node000012" class="edge">
<title>Node10&#45;&gt;Node12</title>
<g id="a_edge13_Node000010_Node000012"><a xlink:title=" ">
<path fill="none" stroke="#63b8ff" d="M299.81,-240.72C318.85,-238.07 339.2,-235.24 357.45,-232.7"/>
<polygon fill="#63b8ff" stroke="#63b8ff" points="357.87,-236.18 367.3,-231.33 356.91,-229.24 357.87,-236.18"/>
</a>
</g>
</g>
<!-- Node13&#45;&gt;Node13 -->
<g id="edge17_Node000013_Node000013" class="edge">
<title>Node13&#45;&gt;Node13</title>
<g id="a_edge17_Node000013_Node000013"><a xlink:title=" ">
<path fill="none" stroke="#63b8ff" d="M197.41,-168.36C191.25,-177.43 201.32,-185.88 227.62,-185.88 242.01,-185.88 251.54,-183.35 256.22,-179.58"/>
<polygon fill="#63b8ff" stroke="#63b8ff" points="259.66,-180.26 257.62,-169.86 252.73,-179.26 259.66,-180.26"/>
</a>
</g>
</g>
<!-- Node14&#45;&gt;Node7 -->
<g id="edge19_Node000014_Node000007" class="edge">
<title>Node14&#45;&gt;Node7</title>
<g id="a_edge19_Node000014_Node000007"><a xlink:title=" ">
<path fill="none" stroke="#63b8ff" d="M249.79,-101.64C265.18,-108.97 286.46,-119.25 305,-128.62 321.14,-136.79 324.41,-140.4 341,-147.62 351.07,-152.01 362.13,-156.2 372.59,-159.88"/>
<polygon fill="#63b8ff" stroke="#63b8ff" points="371.17,-163.09 381.76,-163.03 373.44,-156.47 371.17,-163.09"/>
</a>
</g>
</g>
<!-- Node14&#45;&gt;Node14 -->
<g id="edge27_Node000014_Node000014" class="edge">
<title>Node14&#45;&gt;Node14</title>
<g id="a_edge27_Node000014_Node000014"><a xlink:title=" ">
<path fill="none" stroke="#63b8ff" d="M200.93,-101.54C188.76,-110.15 197.65,-119.25 227.62,-119.25 244.48,-119.25 254.67,-116.37 258.2,-112.32"/>
<polygon fill="#63b8ff" stroke="#63b8ff" points="261.51,-111.19 254.83,-102.96 254.92,-113.56 261.51,-111.19"/>
</a>
</g>
</g>
<!-- Node15 -->
<g id="Node000015" class="node">
<title>Node15</title>
<g id="a_Node000015"><a xlink:href="namespacejuce.html#aa818590fe19057f22b264b366794913a" target="_top" xlink:title=" ">
<polygon fill="white" stroke="#666666" points="470.62,-46.25 362.37,-46.25 362.37,-27 470.62,-27 470.62,-46.25"/>
<text xml:space="preserve" text-anchor="middle" x="416.5" y="-32.75" font-family="Helvetica,sans-Serif" font-size="10.00">juce::findTrimmedEnd</text>
</a>
</g>
</g>
<!-- Node14&#45;&gt;Node15 -->
<g id="edge20_Node000014_Node000015" class="edge">
<title>Node14&#45;&gt;Node15</title>
<g id="a_edge20_Node000014_Node000015"><a xlink:title=" ">
<path fill="none" stroke="#63b8ff" d="M262.9,-81.54C293.1,-72.65 337.31,-59.64 370.37,-49.91"/>
<polygon fill="#63b8ff" stroke="#63b8ff" points="371.07,-53.35 379.67,-47.17 369.09,-46.64 371.07,-53.35"/>
</a>
</g>
</g>
<!-- Node18 -->
<g id="Node000018" class="node">
<title>Node18</title>
<g id="a_Node000018"><a xlink:href="classjuce_1_1String.html#af5084463343819f82187154ccb62ea3a" target="_top" xlink:title=" ">
<polygon fill="white" stroke="#666666" points="475.87,-138.25 357.12,-138.25 357.12,-119 475.87,-119 475.87,-138.25"/>
<text xml:space="preserve" text-anchor="middle" x="416.5" y="-124.75" font-family="Helvetica,sans-Serif" font-size="10.00">juce::String::isNotEmpty</text>
</a>
</g>
</g>
<!-- Node14&#45;&gt;Node18 -->
<g id="edge25_Node000014_Node000018" class="edge">
<title>Node14&#45;&gt;Node18</title>
<g id="a_edge25_Node000014_Node000018"><a xlink:title=" ">
<path fill="none" stroke="#63b8ff" d="M278.7,-101.54C301.66,-106.09 329.11,-111.52 353.37,-116.32"/>
<polygon fill="#63b8ff" stroke="#63b8ff" points="352.66,-119.75 363.15,-118.26 354.02,-112.88 352.66,-119.75"/>
</a>
</g>
</g>
<!-- Node19 -->
<g id="Node000019" class="node">
<title>Node19</title>
<g id="a_Node000019"><a xlink:href="classjuce_1_1String.html#a0225bb76bd3527b0e9ec9663c53f873d" target="_top" xlink:title=" ">
<polygon fill="white" stroke="#666666" points="463.5,-101.25 369.5,-101.25 369.5,-82 463.5,-82 463.5,-101.25"/>
<text xml:space="preserve" text-anchor="middle" x="416.5" y="-87.75" font-family="Helvetica,sans-Serif" font-size="10.00">juce::String::String</text>
</a>
</g>
</g>
<!-- Node14&#45;&gt;Node19 -->
<g id="edge26_Node000014_Node000019" class="edge">
<title>Node14&#45;&gt;Node19</title>
<g id="a_edge26_Node000014_Node000019"><a xlink:title=" ">
<path fill="none" stroke="#63b8ff" d="M278.7,-91.62C303.08,-91.62 332.52,-91.62 357.83,-91.62"/>
<polygon fill="#63b8ff" stroke="#63b8ff" points="357.62,-95.13 367.62,-91.63 357.62,-88.13 357.62,-95.13"/>
</a>
</g>
</g>
<!-- Node15&#45;&gt;Node15 -->
<g id="edge23_Node000015_Node000015" class="edge">
<title>Node15&#45;&gt;Node15</title>
<g id="a_edge23_Node000015_Node000015"><a xlink:title=" ">
<path fill="none" stroke="#63b8ff" d="M389.4,-46.54C377.03,-55.15 386.07,-64.25 416.5,-64.25 433.62,-64.25 443.97,-61.37 447.54,-57.32"/>
<polygon fill="#63b8ff" stroke="#63b8ff" points="450.84,-56.15 444.12,-47.96 444.27,-58.55 450.84,-56.15"/>
</a>
</g>
</g>
<!-- Node16 -->
<g id="Node000016" class="node">
<title>Node16</title>
<g id="a_Node000016"><a xlink:href="namespacejuce.html#a5050fe52825e9808a414c41cb63f203d" target="_top" xlink:title=" ">
<polygon fill="white" stroke="#666666" points="616.75,-19.25 562.5,-19.25 562.5,0 616.75,0 616.75,-19.25"/>
<text xml:space="preserve" text-anchor="middle" x="589.62" y="-5.75" font-family="Helvetica,sans-Serif" font-size="10.00">juce::end</text>
</a>
</g>
</g>
<!-- Node15&#45;&gt;Node16 -->
<g id="edge21_Node000015_Node000016" class="edge">
<title>Node15&#45;&gt;Node16</title>
<g id="a_edge21_Node000015_Node000016"><a xlink:title=" ">
<path fill="none" stroke="#63b8ff" d="M470.71,-28.23C496.73,-24.12 527.43,-19.28 550.98,-15.56"/>
<polygon fill="#63b8ff" stroke="#63b8ff" points="551.42,-19.04 560.75,-14.02 550.33,-12.12 551.42,-19.04"/>
</a>
</g>
</g>
<!-- Node17 -->
<g id="Node000017" class="node">
<title>Node17</title>
<g id="a_Node000017"><a xlink:href="iasiodrv_8h.html#aa7fc430175ea32f087a7111520a49592" target="_top" xlink:title=" ">
<polygon fill="white" stroke="#666666" points="607.38,-74.25 571.88,-74.25 571.88,-55 607.38,-55 607.38,-74.25"/>
<text xml:space="preserve" text-anchor="middle" x="589.62" y="-60.75" font-family="Helvetica,sans-Serif" font-size="10.00">start</text>
</a>
</g>
</g>
<!-- Node15&#45;&gt;Node17 -->
<g id="edge24_Node000015_Node000017" class="edge">
<title>Node15&#45;&gt;Node17</title>
<g id="a_edge24_Node000015_Node000017"><a xlink:title=" ">
<path fill="none" stroke="#63b8ff" d="M470.71,-45.33C500.25,-50.17 535.83,-55.99 560.13,-59.96"/>
<polygon fill="#63b8ff" stroke="#63b8ff" points="559.47,-63.4 569.9,-61.56 560.6,-56.49 559.47,-63.4"/>
</a>
</g>
</g>
<!-- Node16&#45;&gt;Node16 -->
<g id="edge22_Node000016_Node000016" class="edge">
<title>Node16&#45;&gt;Node16</title>
<g id="a_edge22_Node000016_Node000016"><a xlink:title=" ">
<path fill="none" stroke="#63b8ff" d="M572.09,-19.54C564.09,-28.15 569.93,-37.25 589.62,-37.25 600.39,-37.25 607.02,-34.53 609.51,-30.65"/>
<polygon fill="#63b8ff" stroke="#63b8ff" points="612.97,-30.08 607.48,-21.02 606.12,-31.53 612.97,-30.08"/>
</a>
</g>
</g>
</g>
</svg>

<g id="navigator" transform="translate(0 0)" fill="#404254">
  <rect fill="#f2f5e9" fill-opacity="0.5" stroke="#606060" stroke-width=".5" x="0" y="0" width="60" height="60"/>
  <use id="zoomplus" xlink:href="#zoomPlus" x="17" y="9" onmousedown="handleZoom(evt,'in')"/>
  <use id="zoomminus" xlink:href="#zoomMin" x="42" y="9" onmousedown="handleZoom(evt,'out')"/>
  <use id="reset" xlink:href="#resetDef" x="30" y="36" onmousedown="handleReset()"/>
   <use id="arrowup" xlink:href="#arrowUp" x="0" y="0" onmousedown="handlePan(0,-1)"/>
  <use id="arrowright" xlink:href="#arrowRight" x="0" y="0" onmousedown="handlePan(1,0)"/>
  <use id="arrowdown" xlink:href="#arrowDown" x="0" y="0" onmousedown="handlePan(0,1)"/>
  <use id="arrowleft" xlink:href="#arrowLeft" x="0" y="0" onmousedown="handlePan(-1,0)"/>
</g>
<svg viewBox="0 0 15 15" width="100%" height="30px" preserveAspectRatio="xMaxYMin meet">
 <g id="arrow_out" transform="scale(0.3 0.3)">
  <a xlink:href="namespacejuce_1_1KeyPressHelpers_a2e056d1ebd89d1721d2bad0d0fec9d6a_cgraph_org.svg" target="_base">
   <rect id="button" ry="5" rx="5" y="6" x="6" height="38" width="38"
        fill="#f2f5e9" fill-opacity="0.5" stroke="#606060" stroke-width="1.0"/>
   <path id="arrow"
     d="M 11.500037,31.436501 C 11.940474,20.09759 22.043105,11.32322 32.158766,21.979434 L 37.068811,17.246167 C 37.068811,17.246167 37.088388,32 37.088388,32 L 22.160133,31.978069 C 22.160133,31.978069 26.997745,27.140456 26.997745,27.140456 C 18.528582,18.264221 13.291696,25.230495 11.500037,31.436501 z"
     style="fill:#404040;"/>
  </a>
 </g>
</svg>

<style type='text/css'>
<![CDATA[
[data-mouse-over-selected='false'] { opacity: 0.7; }
[data-mouse-over-selected='true']  { opacity: 1.0; }
]]>
</style>
<script type="application/ecmascript"><![CDATA[
document.addEventListener('DOMContentLoaded', (event) => {
  highlightEdges();
  highlightAdjacentNodes();
});
]]></script>
</svg>
