<?xml version="1.0" encoding="UTF-8" standalone="no"?>
<!DOCTYPE svg PUBLIC "-//W3C//DTD SVG 1.1//EN"
 "http://www.w3.org/Graphics/SVG/1.1/DTD/svg11.dtd">
<!-- Generated by graphviz version 14.0.2 (0)
 -->
<!-- Title: juce::describeHours Pages: 1 -->
<svg width="282pt" height="124pt"
 viewBox="0.00 0.00 282.00 124.00" xmlns="http://www.w3.org/2000/svg" xmlns:xlink="http://www.w3.org/1999/xlink">
<g id="graph0" class="graph" transform="scale(1 1) rotate(0) translate(4 119.5)">
<title>juce::describeHours</title>
<!-- Node1 -->
<g id="Node000001" class="node">
<title>Node1</title>
<g id="a_Node000001"><a xlink:title=" ">
<polygon fill="#999999" stroke="#666666" points="274.25,-57.88 172.75,-57.88 172.75,-38.62 274.25,-38.62 274.25,-57.88"/>
<text xml:space="preserve" text-anchor="middle" x="223.5" y="-44.38" font-family="Helvetica,sans-Serif" font-size="10.00">juce::describeHours</text>
</a>
</g>
</g>
<!-- Node1&#45;&gt;Node1 -->
<g id="edge1_Node000001_Node000001" class="edge">
<title>Node1&#45;&gt;Node1</title>
<g id="a_edge1_Node000001_Node000001"><a xlink:title=" ">
<path fill="none" stroke="#63b8ff" d="M251.32,-68.94C248.11,-72.99 238.84,-75.88 223.5,-75.88 196.23,-75.88 188.14,-66.77 199.21,-58.16"/>
<polygon fill="#63b8ff" stroke="#63b8ff" points="254.7,-68.02 248.26,-59.6 248.04,-70.19 254.7,-68.02"/>
</a>
</g>
</g>
<!-- Node2 -->
<g id="Node000002" class="node">
<title>Node2</title>
<g id="a_Node000002"><a xlink:href="classjuce_1_1RelativeTime.html#ac9bce42813acdea650b4a7e75f8fbc3c" target="_top" xlink:title=" ">
<polygon fill="white" stroke="#666666" points="136.75,-97.5 0,-97.5 0,-67 136.75,-67 136.75,-97.5"/>
<text xml:space="preserve" text-anchor="start" x="8" y="-84" font-family="Helvetica,sans-Serif" font-size="10.00">juce::RelativeTime</text>
<text xml:space="preserve" text-anchor="middle" x="68.38" y="-72.75" font-family="Helvetica,sans-Serif" font-size="10.00">::getApproximateDescription</text>
</a>
</g>
</g>
<!-- Node1&#45;&gt;Node2 -->
<g id="edge2_Node000001_Node000002" class="edge">
<title>Node1&#45;&gt;Node2</title>
<g id="a_edge2_Node000001_Node000002"><a xlink:title=" ">
<path fill="none" stroke="#63b8ff" d="M165.82,-60.83C156.48,-62.91 146.71,-65.08 137.12,-67.21"/>
<polygon fill="#63b8ff" stroke="#63b8ff" points="166.49,-64.27 175.49,-58.69 164.97,-57.44 166.49,-64.27"/>
</a>
</g>
</g>
<!-- Node3 -->
<g id="Node000003" class="node">
<title>Node3</title>
<g id="a_Node000003"><a xlink:href="classjuce_1_1RelativeTime.html#a305214148a1aecdeacc1aed326fe6d81" target="_top" xlink:title=" ">
<polygon fill="white" stroke="#666666" points="116.12,-30.5 20.62,-30.5 20.62,0 116.12,0 116.12,-30.5"/>
<text xml:space="preserve" text-anchor="start" x="28.62" y="-17" font-family="Helvetica,sans-Serif" font-size="10.00">juce::RelativeTime</text>
<text xml:space="preserve" text-anchor="middle" x="68.38" y="-5.75" font-family="Helvetica,sans-Serif" font-size="10.00">::getDescription</text>
</a>
</g>
</g>
<!-- Node1&#45;&gt;Node3 -->
<g id="edge4_Node000001_Node000003" class="edge">
<title>Node1&#45;&gt;Node3</title>
<g id="a_edge4_Node000001_Node000003"><a xlink:title=" ">
<path fill="none" stroke="#63b8ff" d="M164.88,-35.83C148.88,-32.38 131.7,-28.68 116.39,-25.38"/>
<polygon fill="#63b8ff" stroke="#63b8ff" points="163.73,-39.17 174.25,-37.85 165.21,-32.32 163.73,-39.17"/>
</a>
</g>
</g>
<!-- Node2&#45;&gt;Node2 -->
<g id="edge3_Node000002_Node000002" class="edge">
<title>Node2&#45;&gt;Node2</title>
<g id="a_edge3_Node000002_Node000002"><a xlink:title=" ">
<path fill="none" stroke="#63b8ff" d="M94.39,-109.2C90.14,-112.97 81.46,-115.5 68.38,-115.5 44.44,-115.5 35.28,-107.06 40.89,-97.99"/>
<polygon fill="#63b8ff" stroke="#63b8ff" points="97.83,-109.86 95.67,-99.49 90.89,-108.95 97.83,-109.86"/>
</a>
</g>
</g>
<!-- Node3&#45;&gt;Node3 -->
<g id="edge5_Node000003_Node000003" class="edge">
<title>Node3&#45;&gt;Node3</title>
<g id="a_edge5_Node000003_Node000003"><a xlink:title=" ">
<path fill="none" stroke="#63b8ff" d="M94.39,-42.2C90.14,-45.97 81.46,-48.5 68.38,-48.5 44.44,-48.5 35.28,-40.06 40.89,-30.99"/>
<polygon fill="#63b8ff" stroke="#63b8ff" points="97.83,-42.86 95.67,-32.49 90.89,-41.95 97.83,-42.86"/>
</a>
</g>
</g>
</g>
</svg>
