<?xml version="1.0" encoding="UTF-8" standalone="no"?>
<!DOCTYPE svg PUBLIC "-//W3C//DTD SVG 1.1//EN"
 "http://www.w3.org/Graphics/SVG/1.1/DTD/svg11.dtd">
<!-- Generated by graphviz version 14.0.2 (0)
 -->
<!-- Title: exprtk::details::numeric::pow Pages: 1 -->
<svg width="295pt" height="186pt"
 viewBox="0.00 0.00 295.00 186.00" xmlns="http://www.w3.org/2000/svg" xmlns:xlink="http://www.w3.org/1999/xlink">
<g id="graph0" class="graph" transform="scale(1 1) rotate(0) translate(4 181.5)">
<title>exprtk::details::numeric::pow</title>
<!-- Node1 -->
<g id="Node000001" class="node">
<title>Node1</title>
<g id="a_Node000001"><a xlink:title=" ">
<polygon fill="#999999" stroke="#666666" points="287,-97.88 150.25,-97.88 150.25,-78.62 287,-78.62 287,-97.88"/>
<text xml:space="preserve" text-anchor="middle" x="218.62" y="-84.38" font-family="Helvetica,sans-Serif" font-size="10.00">exprtk::details::numeric::pow</text>
</a>
</g>
</g>
<!-- Node2 -->
<g id="Node000002" class="node">
<title>Node2</title>
<g id="a_Node000002"><a xlink:href="structexprtk_1_1details_1_1pow__op.html#af6d13911b1edededc00637b2fac3732a" target="_top" xlink:title=" ">
<polygon fill="white" stroke="#666666" points="106,-177.5 8.25,-177.5 8.25,-147 106,-147 106,-177.5"/>
<text xml:space="preserve" text-anchor="start" x="16.25" y="-164" font-family="Helvetica,sans-Serif" font-size="10.00">exprtk::details::pow</text>
<text xml:space="preserve" text-anchor="middle" x="57.12" y="-152.75" font-family="Helvetica,sans-Serif" font-size="10.00">_op::assign</text>
</a>
</g>
</g>
<!-- Node1&#45;&gt;Node2 -->
<g id="edge1_Node000001_Node000002" class="edge">
<title>Node1&#45;&gt;Node2</title>
<g id="a_edge1_Node000001_Node000002"><a xlink:title=" ">
<path fill="none" stroke="#63b8ff" d="M186.4,-103.29C165.94,-113.08 138.57,-126.07 114.25,-137.25 107.66,-140.28 100.61,-143.46 93.81,-146.51"/>
<polygon fill="#63b8ff" stroke="#63b8ff" points="187.84,-106.48 195.34,-99 184.81,-100.17 187.84,-106.48"/>
</a>
</g>
</g>
<!-- Node3 -->
<g id="Node000003" class="node">
<title>Node3</title>
<g id="a_Node000003"><a xlink:href="structexprtk_1_1details_1_1pow__op.html#aff4d110d903885954e14ad5976f93a2d" target="_top" xlink:title=" ">
<polygon fill="white" stroke="#666666" points="106,-128.5 8.25,-128.5 8.25,-98 106,-98 106,-128.5"/>
<text xml:space="preserve" text-anchor="start" x="16.25" y="-115" font-family="Helvetica,sans-Serif" font-size="10.00">exprtk::details::pow</text>
<text xml:space="preserve" text-anchor="middle" x="57.12" y="-103.75" font-family="Helvetica,sans-Serif" font-size="10.00">_op::process</text>
</a>
</g>
</g>
<!-- Node1&#45;&gt;Node3 -->
<g id="edge2_Node000001_Node000003" class="edge">
<title>Node1&#45;&gt;Node3</title>
<g id="a_edge2_Node000001_Node000003"><a xlink:title=" ">
<path fill="none" stroke="#63b8ff" d="M142.04,-100.1C129.81,-102.01 117.44,-103.95 106.1,-105.73"/>
<polygon fill="#63b8ff" stroke="#63b8ff" points="142.38,-103.59 151.71,-98.58 141.29,-96.67 142.38,-103.59"/>
</a>
</g>
</g>
<!-- Node4 -->
<g id="Node000004" class="node">
<title>Node4</title>
<g id="a_Node000004"><a xlink:href="namespaceexprtk_1_1details_1_1numeric_1_1details.html#a802d56d363e11ba344730b730fa27501" target="_top" xlink:title=" ">
<polygon fill="white" stroke="#666666" points="114.25,-79.5 0,-79.5 0,-49 114.25,-49 114.25,-79.5"/>
<text xml:space="preserve" text-anchor="start" x="8" y="-66" font-family="Helvetica,sans-Serif" font-size="10.00">exprtk::details::numeric</text>
<text xml:space="preserve" text-anchor="middle" x="57.12" y="-54.75" font-family="Helvetica,sans-Serif" font-size="10.00">::details::process_impl</text>
</a>
</g>
</g>
<!-- Node1&#45;&gt;Node4 -->
<g id="edge3_Node000001_Node000004" class="edge">
<title>Node1&#45;&gt;Node4</title>
<g id="a_edge3_Node000001_Node000004"><a xlink:title=" ">
<path fill="none" stroke="#63b8ff" d="M139.19,-76.45C130.91,-75.2 122.6,-73.95 114.64,-72.75"/>
<polygon fill="#63b8ff" stroke="#63b8ff" points="138.54,-79.89 148.95,-77.92 139.58,-72.97 138.54,-79.89"/>
</a>
</g>
</g>
<!-- Node5 -->
<g id="Node000005" class="node">
<title>Node5</title>
<g id="a_Node000005"><a xlink:href="namespaceexprtk_1_1details_1_1numeric_1_1details.html#a4a1fc6c64410bd5f75de6d5815435205" target="_top" xlink:title=" ">
<polygon fill="white" stroke="#666666" points="114.25,-30.5 0,-30.5 0,0 114.25,0 114.25,-30.5"/>
<text xml:space="preserve" text-anchor="start" x="8" y="-17" font-family="Helvetica,sans-Serif" font-size="10.00">exprtk::details::numeric</text>
<text xml:space="preserve" text-anchor="middle" x="57.12" y="-5.75" font-family="Helvetica,sans-Serif" font-size="10.00">::details::process_impl</text>
</a>
</g>
</g>
<!-- Node1&#45;&gt;Node5 -->
<g id="edge4_Node000001_Node000005" class="edge">
<title>Node1&#45;&gt;Node5</title>
<g id="a_edge4_Node000001_Node000005"><a xlink:title=" ">
<path fill="none" stroke="#63b8ff" d="M185.98,-73.4C165.55,-63.85 138.37,-51.22 114.25,-40.25 107.55,-37.2 100.38,-33.98 93.49,-30.9"/>
<polygon fill="#63b8ff" stroke="#63b8ff" points="184.38,-76.51 194.92,-77.58 187.34,-70.17 184.38,-76.51"/>
</a>
</g>
</g>
</g>
</svg>
