<?xml version="1.0" encoding="UTF-8" standalone="no"?>
<!DOCTYPE svg PUBLIC "-//W3C//DTD SVG 1.1//EN"
 "http://www.w3.org/Graphics/SVG/1.1/DTD/svg11.dtd">
<!-- Generated by graphviz version 14.0.2 (0)
 -->
<!-- Title: juce::CodeEditorHelpers::findFirstNonWhitespaceChar Pages: 1 -->
<!--zoomable 157 -->

<svg id="main" version="1.1" xmlns="http://www.w3.org/2000/svg" xmlns:xlink="http://www.w3.org/1999/xlink" xml:space="preserve" onload="init(evt)">

<style type="text/css"><![CDATA[
.node, .edge {opacity: 0.7;}
.node.selected, .edge.selected {opacity: 1;}
.edge:hover path { stroke: red; }
.edge:hover polygon { stroke: red; fill: red; }
]]></style>

<defs>
  <circle id="rim" cx="0" cy="0" r="7"/>
  <circle id="rim2" cx="0" cy="0" r="3.5"/>
  <g id="zoomPlus">
    <use xlink:href="#rim" fill="#404040"><set attributeName="fill" to="#808080" begin="zoomplus.mouseover" end="zoomplus.mouseout"/></use>
    <path d="M-4,0h8M0,-4v8" fill="none" stroke="white" stroke-width="1.5" pointer-events="none"/>
  </g>
  <g id="zoomMin">
    <use xlink:href="#rim" fill="#404040"><set attributeName="fill" to="#808080" begin="zoomminus.mouseover" end="zoomminus.mouseout"/></use>
    <path d="M-4,0h8" fill="none" stroke="white" stroke-width="1.5" pointer-events="none"/>
  </g>
  <g id="arrowUp" transform="translate(30 24)">
    <use xlink:href="#rim"/>
    <path pointer-events="none" fill="none" stroke="white" stroke-width="1.5" d="M0,-3.0v7 M-2.5,-0.5L0,-3.0L2.5,-0.5"/>
  </g>
  <g id="arrowRight" transform="rotate(90) translate(36 -43)">
    <use xlink:href="#rim"/>
    <path pointer-events="none" fill="none" stroke="white" stroke-width="1.5" d="M0,-3.0v7 M-2.5,-0.5L0,-3.0L2.5,-0.5"/>
  </g>
  <g id="arrowDown" transform="rotate(180) translate(-30 -48)">
    <use xlink:href="#rim"/>
    <path pointer-events="none" fill="none" stroke="white" stroke-width="1.5" d="M0,-3.0v7 M-2.5,-0.5L0,-3.0L2.5,-0.5"/>
  </g>
  <g id="arrowLeft" transform="rotate(270) translate(-36 17)">
    <use xlink:href="#rim"/>
    <path pointer-events="none" fill="none" stroke="white" stroke-width="1.5" d="M0,-3.0v7 M-2.5,-0.5L0,-3.0L2.5,-0.5"/>
  </g>
  <g id="resetDef">
    <use xlink:href="#rim2" fill="#404040"><set attributeName="fill" to="#808080" begin="reset.mouseover" end="reset.mouseout"/></use>
  </g>
</defs>
<script type="application/ecmascript">
var viewWidth = 666;
var viewHeight = 157;
var sectionId = 'dynsection-1';
</script>
<script type="application/ecmascript" xlink:href="svg.min.js"/>
<svg id="graph" class="graph">
<g id="viewport">
<title>juce::CodeEditorHelpers::findFirstNonWhitespaceChar</title>
<!-- Node1 -->
<g id="Node000001" class="node">
<title>Node1</title>
<g id="a_Node000001"><a xlink:title=" ">
<polygon fill="#999999" stroke="#666666" points="658,-63.5 513.75,-63.5 513.75,-33 658,-33 658,-63.5"/>
<text xml:space="preserve" text-anchor="start" x="521.75" y="-50" font-family="Helvetica,sans-Serif" font-size="10.00">juce::CodeEditorHelpers</text>
<text xml:space="preserve" text-anchor="middle" x="585.88" y="-38.75" font-family="Helvetica,sans-Serif" font-size="10.00">::findFirstNonWhitespaceChar</text>
</a>
</g>
</g>
<!-- Node1&#45;&gt;Node1 -->
<g id="edge1_Node000001_Node000001" class="edge">
<title>Node1&#45;&gt;Node1</title>
<g id="a_edge1_Node000001_Node000001"><a xlink:title=" ">
<path fill="none" stroke="#63b8ff" d="M615.35,-75.2C610.53,-78.97 600.7,-81.5 585.88,-81.5 558.76,-81.5 548.38,-73.06 554.73,-63.99"/>
<polygon fill="#63b8ff" stroke="#63b8ff" points="618.78,-75.89 616.8,-65.48 611.86,-74.86 618.78,-75.89"/>
</a>
</g>
</g>
<!-- Node2 -->
<g id="Node000002" class="node">
<title>Node2</title>
<g id="a_Node000002"><a xlink:href="classjuce_1_1CodeEditorComponent.html#a629ab59a25e3c27b36df12ef68356d8a" target="_top" xlink:title=" ">
<polygon fill="white" stroke="#666666" points="477.75,-97.5 342.5,-97.5 342.5,-67 477.75,-67 477.75,-97.5"/>
<text xml:space="preserve" text-anchor="start" x="350.5" y="-84" font-family="Helvetica,sans-Serif" font-size="10.00">juce::CodeEditorComponent</text>
<text xml:space="preserve" text-anchor="middle" x="410.12" y="-72.75" font-family="Helvetica,sans-Serif" font-size="10.00">::indentSelectedLines</text>
</a>
</g>
</g>
<!-- Node1&#45;&gt;Node2 -->
<g id="edge2_Node000001_Node000002" class="edge">
<title>Node1&#45;&gt;Node2</title>
<g id="a_edge2_Node000001_Node000002"><a xlink:title=" ">
<path fill="none" stroke="#63b8ff" d="M502.4,-64.39C494.25,-65.98 486.05,-67.59 478.08,-69.15"/>
<polygon fill="#63b8ff" stroke="#63b8ff" points="502.82,-67.87 511.97,-62.52 501.48,-61 502.82,-67.87"/>
</a>
</g>
</g>
<!-- Node6 -->
<g id="Node000006" class="node">
<title>Node6</title>
<g id="a_Node000006"><a xlink:href="classjuce_1_1CodeEditorComponent.html#a05fc42bb315350af47d7cb403ec74f8f" target="_top" xlink:title=" ">
<polygon fill="white" stroke="#666666" points="477.75,-30.5 342.5,-30.5 342.5,0 477.75,0 477.75,-30.5"/>
<text xml:space="preserve" text-anchor="start" x="350.5" y="-17" font-family="Helvetica,sans-Serif" font-size="10.00">juce::CodeEditorComponent</text>
<text xml:space="preserve" text-anchor="middle" x="410.12" y="-5.75" font-family="Helvetica,sans-Serif" font-size="10.00">::moveCaretToStartOfLine</text>
</a>
</g>
</g>
<!-- Node1&#45;&gt;Node6 -->
<g id="edge11_Node000001_Node000006" class="edge">
<title>Node1&#45;&gt;Node6</title>
<g id="a_edge11_Node000001_Node000006"><a xlink:title=" ">
<path fill="none" stroke="#63b8ff" d="M502.4,-32.59C494.25,-31.04 486.05,-29.48 478.08,-27.97"/>
<polygon fill="#63b8ff" stroke="#63b8ff" points="501.49,-35.97 511.97,-34.4 502.79,-29.1 501.49,-35.97"/>
</a>
</g>
</g>
<!-- Node2&#45;&gt;Node2 -->
<g id="edge3_Node000002_Node000002" class="edge">
<title>Node2&#45;&gt;Node2</title>
<g id="a_edge3_Node000002_Node000002"><a xlink:title=" ">
<path fill="none" stroke="#63b8ff" d="M438.84,-109.2C434.15,-112.97 424.58,-115.5 410.12,-115.5 383.7,-115.5 373.59,-107.06 379.78,-97.99"/>
<polygon fill="#63b8ff" stroke="#63b8ff" points="442.28,-109.88 440.25,-99.48 435.35,-108.88 442.28,-109.88"/>
</a>
</g>
</g>
<!-- Node3 -->
<g id="Node000003" class="node">
<title>Node3</title>
<g id="a_Node000003"><a xlink:href="classjuce_1_1CodeEditorComponent.html#a1a7fca88315e9fd963d14d9e05cd8a34" target="_top" xlink:title=" ">
<polygon fill="white" stroke="#666666" points="306.5,-130.5 171.25,-130.5 171.25,-100 306.5,-100 306.5,-130.5"/>
<text xml:space="preserve" text-anchor="start" x="179.25" y="-117" font-family="Helvetica,sans-Serif" font-size="10.00">juce::CodeEditorComponent</text>
<text xml:space="preserve" text-anchor="middle" x="238.88" y="-105.75" font-family="Helvetica,sans-Serif" font-size="10.00">::indentSelection</text>
</a>
</g>
</g>
<!-- Node2&#45;&gt;Node3 -->
<g id="edge4_Node000002_Node000003" class="edge">
<title>Node2&#45;&gt;Node3</title>
<g id="a_edge4_Node000002_Node000003"><a xlink:title=" ">
<path fill="none" stroke="#63b8ff" d="M331.21,-97.44C323.07,-99.03 314.84,-100.63 306.84,-102.19"/>
<polygon fill="#63b8ff" stroke="#63b8ff" points="331.6,-100.93 340.75,-95.58 330.26,-94.06 331.6,-100.93"/>
</a>
</g>
</g>
<!-- Node5 -->
<g id="Node000005" class="node">
<title>Node5</title>
<g id="a_Node000005"><a xlink:href="classjuce_1_1CodeEditorComponent.html#afb4bba894a924c40ea08f7d03b0f48d6" target="_top" xlink:title=" ">
<polygon fill="white" stroke="#666666" points="306.5,-63.5 171.25,-63.5 171.25,-33 306.5,-33 306.5,-63.5"/>
<text xml:space="preserve" text-anchor="start" x="179.25" y="-50" font-family="Helvetica,sans-Serif" font-size="10.00">juce::CodeEditorComponent</text>
<text xml:space="preserve" text-anchor="middle" x="238.88" y="-38.75" font-family="Helvetica,sans-Serif" font-size="10.00">::unindentSelection</text>
</a>
</g>
</g>
<!-- Node2&#45;&gt;Node5 -->
<g id="edge8_Node000002_Node000005" class="edge">
<title>Node2&#45;&gt;Node5</title>
<g id="a_edge8_Node000002_Node000005"><a xlink:title=" ">
<path fill="none" stroke="#63b8ff" d="M331.21,-66.6C323.07,-64.96 314.84,-63.31 306.84,-61.7"/>
<polygon fill="#63b8ff" stroke="#63b8ff" points="330.26,-69.98 340.75,-68.51 331.63,-63.11 330.26,-69.98"/>
</a>
</g>
</g>
<!-- Node3&#45;&gt;Node3 -->
<g id="edge5_Node000003_Node000003" class="edge">
<title>Node3&#45;&gt;Node3</title>
<g id="a_edge5_Node000003_Node000003"><a xlink:title=" ">
<path fill="none" stroke="#63b8ff" d="M267.59,-142.2C262.9,-145.97 253.33,-148.5 238.88,-148.5 212.45,-148.5 202.34,-140.06 208.53,-130.99"/>
<polygon fill="#63b8ff" stroke="#63b8ff" points="271.03,-142.88 269,-132.48 264.1,-141.88 271.03,-142.88"/>
</a>
</g>
</g>
<!-- Node4 -->
<g id="Node000004" class="node">
<title>Node4</title>
<g id="a_Node000004"><a xlink:href="classjuce_1_1CodeEditorComponent.html#ae84fcd80247e13f3f0a2c88ef4acdb75" target="_top" xlink:title=" ">
<polygon fill="white" stroke="#666666" points="135.25,-96.5 0,-96.5 0,-66 135.25,-66 135.25,-96.5"/>
<text xml:space="preserve" text-anchor="start" x="8" y="-83" font-family="Helvetica,sans-Serif" font-size="10.00">juce::CodeEditorComponent</text>
<text xml:space="preserve" text-anchor="middle" x="67.62" y="-71.75" font-family="Helvetica,sans-Serif" font-size="10.00">::keyPressed</text>
</a>
</g>
</g>
<!-- Node3&#45;&gt;Node4 -->
<g id="edge6_Node000003_Node000004" class="edge">
<title>Node3&#45;&gt;Node4</title>
<g id="a_edge6_Node000003_Node000004"><a xlink:title=" ">
<path fill="none" stroke="#63b8ff" d="M159.96,-99.6C151.82,-97.96 143.59,-96.31 135.59,-94.7"/>
<polygon fill="#63b8ff" stroke="#63b8ff" points="159.01,-102.98 169.5,-101.51 160.38,-96.11 159.01,-102.98"/>
</a>
</g>
</g>
<!-- Node4&#45;&gt;Node4 -->
<g id="edge7_Node000004_Node000004" class="edge">
<title>Node4&#45;&gt;Node4</title>
<g id="a_edge7_Node000004_Node000004"><a xlink:title=" ">
<path fill="none" stroke="#63b8ff" d="M96.34,-108.2C91.65,-111.97 82.08,-114.5 67.62,-114.5 41.2,-114.5 31.09,-106.06 37.28,-96.99"/>
<polygon fill="#63b8ff" stroke="#63b8ff" points="99.78,-108.88 97.75,-98.48 92.85,-107.88 99.78,-108.88"/>
</a>
</g>
</g>
<!-- Node5&#45;&gt;Node4 -->
<g id="edge9_Node000005_Node000004" class="edge">
<title>Node5&#45;&gt;Node4</title>
<g id="a_edge9_Node000005_Node000004"><a xlink:title=" ">
<path fill="none" stroke="#63b8ff" d="M159.96,-63.44C151.82,-65.03 143.59,-66.63 135.59,-68.19"/>
<polygon fill="#63b8ff" stroke="#63b8ff" points="160.35,-66.93 169.5,-61.58 159.01,-60.06 160.35,-66.93"/>
</a>
</g>
</g>
<!-- Node5&#45;&gt;Node5 -->
<g id="edge10_Node000005_Node000005" class="edge">
<title>Node5&#45;&gt;Node5</title>
<g id="a_edge10_Node000005_Node000005"><a xlink:title=" ">
<path fill="none" stroke="#63b8ff" d="M267.59,-75.2C262.9,-78.97 253.33,-81.5 238.88,-81.5 212.45,-81.5 202.34,-73.06 208.53,-63.99"/>
<polygon fill="#63b8ff" stroke="#63b8ff" points="271.03,-75.88 269,-65.48 264.1,-74.88 271.03,-75.88"/>
</a>
</g>
</g>
<!-- Node6&#45;&gt;Node6 -->
<g id="edge12_Node000006_Node000006" class="edge">
<title>Node6&#45;&gt;Node6</title>
<g id="a_edge12_Node000006_Node000006"><a xlink:title=" ">
<path fill="none" stroke="#63b8ff" d="M438.84,-42.2C434.15,-45.97 424.58,-48.5 410.12,-48.5 383.7,-48.5 373.59,-40.06 379.78,-30.99"/>
<polygon fill="#63b8ff" stroke="#63b8ff" points="442.28,-42.88 440.25,-32.48 435.35,-41.88 442.28,-42.88"/>
</a>
</g>
</g>
</g>
</svg>

<g id="navigator" transform="translate(0 0)" fill="#404254">
  <rect fill="#f2f5e9" fill-opacity="0.5" stroke="#606060" stroke-width=".5" x="0" y="0" width="60" height="60"/>
  <use id="zoomplus" xlink:href="#zoomPlus" x="17" y="9" onmousedown="handleZoom(evt,'in')"/>
  <use id="zoomminus" xlink:href="#zoomMin" x="42" y="9" onmousedown="handleZoom(evt,'out')"/>
  <use id="reset" xlink:href="#resetDef" x="30" y="36" onmousedown="handleReset()"/>
   <use id="arrowup" xlink:href="#arrowUp" x="0" y="0" onmousedown="handlePan(0,-1)"/>
  <use id="arrowright" xlink:href="#arrowRight" x="0" y="0" onmousedown="handlePan(1,0)"/>
  <use id="arrowdown" xlink:href="#arrowDown" x="0" y="0" onmousedown="handlePan(0,1)"/>
  <use id="arrowleft" xlink:href="#arrowLeft" x="0" y="0" onmousedown="handlePan(-1,0)"/>
</g>
<svg viewBox="0 0 15 15" width="100%" height="30px" preserveAspectRatio="xMaxYMin meet">
 <g id="arrow_out" transform="scale(0.3 0.3)">
  <a xlink:href="namespacejuce_1_1CodeEditorHelpers_a22f01e042e5b2bc1621d6182458fd503_icgraph_org.svg" target="_base">
   <rect id="button" ry="5" rx="5" y="6" x="6" height="38" width="38"
        fill="#f2f5e9" fill-opacity="0.5" stroke="#606060" stroke-width="1.0"/>
   <path id="arrow"
     d="M 11.500037,31.436501 C 11.940474,20.09759 22.043105,11.32322 32.158766,21.979434 L 37.068811,17.246167 C 37.068811,17.246167 37.088388,32 37.088388,32 L 22.160133,31.978069 C 22.160133,31.978069 26.997745,27.140456 26.997745,27.140456 C 18.528582,18.264221 13.291696,25.230495 11.500037,31.436501 z"
     style="fill:#404040;"/>
  </a>
 </g>
</svg>

<style type='text/css'>
<![CDATA[
[data-mouse-over-selected='false'] { opacity: 0.7; }
[data-mouse-over-selected='true']  { opacity: 1.0; }
]]>
</style>
<script type="application/ecmascript"><![CDATA[
document.addEventListener('DOMContentLoaded', (event) => {
  highlightEdges();
  highlightAdjacentNodes();
});
]]></script>
</svg>
