<?xml version="1.0" encoding="UTF-8" standalone="no"?>
<!DOCTYPE svg PUBLIC "-//W3C//DTD SVG 1.1//EN"
 "http://www.w3.org/Graphics/SVG/1.1/DTD/svg11.dtd">
<!-- Generated by graphviz version 14.0.2 (0)
 -->
<!-- Title: Jack::HasNoConnection Pages: 1 -->
<svg width="476pt" height="39pt"
 viewBox="0.00 0.00 476.00 39.00" xmlns="http://www.w3.org/2000/svg" xmlns:xlink="http://www.w3.org/1999/xlink">
<g id="graph0" class="graph" transform="scale(1 1) rotate(0) translate(4 34.5)">
<title>Jack::HasNoConnection</title>
<!-- Node1 -->
<g id="Node000001" class="node">
<title>Node1</title>
<g id="a_Node000001"><a xlink:title=" ">
<polygon fill="#999999" stroke="#666666" points="468,-24.88 347,-24.88 347,-5.63 468,-5.63 468,-24.88"/>
<text xml:space="preserve" text-anchor="middle" x="407.5" y="-11.38" font-family="Helvetica,sans-Serif" font-size="10.00">Jack::HasNoConnection</text>
</a>
</g>
</g>
<!-- Node2 -->
<g id="Node000002" class="node">
<title>Node2</title>
<g id="a_Node000002"><a xlink:href="classJack_1_1JackConnectionManager.html#ab6bc9d3971164fc5984cd978cfae9d44" target="_top" xlink:title=" ">
<polygon fill="white" stroke="#666666" points="311,-30.5 162.25,-30.5 162.25,0 311,0 311,-30.5"/>
<text xml:space="preserve" text-anchor="start" x="170.25" y="-17" font-family="Helvetica,sans-Serif" font-size="10.00">Jack::JackConnectionManager</text>
<text xml:space="preserve" text-anchor="middle" x="236.62" y="-5.75" font-family="Helvetica,sans-Serif" font-size="10.00">::TopologicalSort</text>
</a>
</g>
</g>
<!-- Node1&#45;&gt;Node2 -->
<g id="edge1_Node000001_Node000002" class="edge">
<title>Node1&#45;&gt;Node2</title>
<g id="a_edge1_Node000001_Node000002"><a xlink:title=" ">
<path fill="none" stroke="#63b8ff" d="M335.47,-15.25C327.52,-15.25 319.41,-15.25 311.42,-15.25"/>
<polygon fill="#63b8ff" stroke="#63b8ff" points="335.45,-18.75 345.45,-15.25 335.45,-11.75 335.45,-18.75"/>
</a>
</g>
</g>
<!-- Node3 -->
<g id="Node000003" class="node">
<title>Node3</title>
<g id="a_Node000003"><a xlink:href="classJack_1_1JackGraphManager.html#a2c7cdad3856d018b7208814f146ea126" target="_top" xlink:title=" ">
<polygon fill="white" stroke="#666666" points="126.25,-30.5 0,-30.5 0,0 126.25,0 126.25,-30.5"/>
<text xml:space="preserve" text-anchor="start" x="8" y="-17" font-family="Helvetica,sans-Serif" font-size="10.00">Jack::JackGraphManager</text>
<text xml:space="preserve" text-anchor="middle" x="63.12" y="-5.75" font-family="Helvetica,sans-Serif" font-size="10.00">::TopologicalSort</text>
</a>
</g>
</g>
<!-- Node2&#45;&gt;Node3 -->
<g id="edge2_Node000002_Node000003" class="edge">
<title>Node2&#45;&gt;Node3</title>
<g id="a_edge2_Node000002_Node000003"><a xlink:title=" ">
<path fill="none" stroke="#63b8ff" d="M150.58,-15.25C142.55,-15.25 134.51,-15.25 126.75,-15.25"/>
<polygon fill="#63b8ff" stroke="#63b8ff" points="150.38,-18.75 160.38,-15.25 150.38,-11.75 150.38,-18.75"/>
</a>
</g>
</g>
</g>
</svg>
