<?xml version="1.0" encoding="UTF-8" standalone="no"?>
<!DOCTYPE svg PUBLIC "-//W3C//DTD SVG 1.1//EN"
 "http://www.w3.org/Graphics/SVG/1.1/DTD/svg11.dtd">
<!-- Generated by graphviz version 14.0.2 (0)
 -->
<!-- Title: zyncarla::os_guess_pid_length Pages: 1 -->
<!--zoomable 137 -->

<svg id="main" version="1.1" xmlns="http://www.w3.org/2000/svg" xmlns:xlink="http://www.w3.org/1999/xlink" xml:space="preserve" onload="init(evt)">

<style type="text/css"><![CDATA[
.node, .edge {opacity: 0.7;}
.node.selected, .edge.selected {opacity: 1;}
.edge:hover path { stroke: red; }
.edge:hover polygon { stroke: red; fill: red; }
]]></style>

<defs>
  <circle id="rim" cx="0" cy="0" r="7"/>
  <circle id="rim2" cx="0" cy="0" r="3.5"/>
  <g id="zoomPlus">
    <use xlink:href="#rim" fill="#404040"><set attributeName="fill" to="#808080" begin="zoomplus.mouseover" end="zoomplus.mouseout"/></use>
    <path d="M-4,0h8M0,-4v8" fill="none" stroke="white" stroke-width="1.5" pointer-events="none"/>
  </g>
  <g id="zoomMin">
    <use xlink:href="#rim" fill="#404040"><set attributeName="fill" to="#808080" begin="zoomminus.mouseover" end="zoomminus.mouseout"/></use>
    <path d="M-4,0h8" fill="none" stroke="white" stroke-width="1.5" pointer-events="none"/>
  </g>
  <g id="arrowUp" transform="translate(30 24)">
    <use xlink:href="#rim"/>
    <path pointer-events="none" fill="none" stroke="white" stroke-width="1.5" d="M0,-3.0v7 M-2.5,-0.5L0,-3.0L2.5,-0.5"/>
  </g>
  <g id="arrowRight" transform="rotate(90) translate(36 -43)">
    <use xlink:href="#rim"/>
    <path pointer-events="none" fill="none" stroke="white" stroke-width="1.5" d="M0,-3.0v7 M-2.5,-0.5L0,-3.0L2.5,-0.5"/>
  </g>
  <g id="arrowDown" transform="rotate(180) translate(-30 -48)">
    <use xlink:href="#rim"/>
    <path pointer-events="none" fill="none" stroke="white" stroke-width="1.5" d="M0,-3.0v7 M-2.5,-0.5L0,-3.0L2.5,-0.5"/>
  </g>
  <g id="arrowLeft" transform="rotate(270) translate(-36 17)">
    <use xlink:href="#rim"/>
    <path pointer-events="none" fill="none" stroke="white" stroke-width="1.5" d="M0,-3.0v7 M-2.5,-0.5L0,-3.0L2.5,-0.5"/>
  </g>
  <g id="resetDef">
    <use xlink:href="#rim2" fill="#404040"><set attributeName="fill" to="#808080" begin="reset.mouseover" end="reset.mouseout"/></use>
  </g>
</defs>
<script type="application/ecmascript">
var viewWidth = 568;
var viewHeight = 137;
var sectionId = 'dynsection-105';
</script>
<script type="application/ecmascript" xlink:href="svg.min.js"/>
<svg id="graph" class="graph">
<g id="viewport">
<title>zyncarla::os_guess_pid_length</title>
<!-- Node1 -->
<g id="Node000001" class="node">
<title>Node1</title>
<g id="a_Node000001"><a xlink:title="returns pid padded, posix conform">
<polygon fill="#999999" stroke="#666666" points="559.75,-54.5 462,-54.5 462,-24 559.75,-24 559.75,-54.5"/>
<text xml:space="preserve" text-anchor="start" x="470" y="-41" font-family="Helvetica,sans-Serif" font-size="10.00">zyncarla::os_guess</text>
<text xml:space="preserve" text-anchor="middle" x="510.88" y="-29.75" font-family="Helvetica,sans-Serif" font-size="10.00">_pid_length</text>
</a>
</g>
</g>
<!-- Node2 -->
<g id="Node000002" class="node">
<title>Node2</title>
<g id="a_Node000002"><a xlink:href="namespacezyncarla.html#a409c0ab136c6aae1b880c95f7f7eb8cc" target="_top" xlink:title="returns pid padded to maximum pid lenght, posix conform">
<polygon fill="white" stroke="#666666" points="426,-54.5 326,-54.5 326,-24 426,-24 426,-54.5"/>
<text xml:space="preserve" text-anchor="start" x="334" y="-41" font-family="Helvetica,sans-Serif" font-size="10.00">zyncarla::os_pid_as</text>
<text xml:space="preserve" text-anchor="middle" x="376" y="-29.75" font-family="Helvetica,sans-Serif" font-size="10.00">_padded_string</text>
</a>
</g>
</g>
<!-- Node1&#45;&gt;Node2 -->
<g id="edge1_Node000001_Node000002" class="edge">
<title>Node1&#45;&gt;Node2</title>
<g id="a_edge1_Node000001_Node000002"><a xlink:title=" ">
<path fill="none" stroke="#63b8ff" d="M450.08,-39.25C442.17,-39.25 434.14,-39.25 426.43,-39.25"/>
<polygon fill="#63b8ff" stroke="#63b8ff" points="450.01,-42.75 460.01,-39.25 450.01,-35.75 450.01,-42.75"/>
</a>
</g>
</g>
<!-- Node3 -->
<g id="Node000003" class="node">
<title>Node3</title>
<g id="a_Node000003"><a xlink:href="classzyncarla_1_1AlsaEngine.html#ab7e92e5f50a382c96094cc55986d6c90" target="_top" xlink:title=" ">
<polygon fill="white" stroke="#666666" points="278.75,-79.5 174.25,-79.5 174.25,-49 278.75,-49 278.75,-79.5"/>
<text xml:space="preserve" text-anchor="start" x="182.25" y="-66" font-family="Helvetica,sans-Serif" font-size="10.00">zyncarla::AlsaEngine</text>
<text xml:space="preserve" text-anchor="middle" x="226.5" y="-54.75" font-family="Helvetica,sans-Serif" font-size="10.00">::openMidi</text>
</a>
</g>
</g>
<!-- Node2&#45;&gt;Node3 -->
<g id="edge2_Node000002_Node000003" class="edge">
<title>Node2&#45;&gt;Node3</title>
<g id="a_edge2_Node000002_Node000003"><a xlink:title=" ">
<path fill="none" stroke="#63b8ff" d="M314.76,-49.46C302.95,-51.46 290.67,-53.54 279.18,-55.49"/>
<polygon fill="#63b8ff" stroke="#63b8ff" points="315.12,-52.95 324.39,-47.83 313.95,-46.05 315.12,-52.95"/>
</a>
</g>
</g>
<!-- Node8 -->
<g id="Node000008" class="node">
<title>Node8</title>
<g id="a_Node000008"><a xlink:href="classzyncarla_1_1JackMultiEngine.html#acda5fb7ef0403f67dce1c9d26c505b69" target="_top" xlink:title=" ">
<polygon fill="white" stroke="#666666" points="290,-30.5 163,-30.5 163,0 290,0 290,-30.5"/>
<text xml:space="preserve" text-anchor="start" x="171" y="-17" font-family="Helvetica,sans-Serif" font-size="10.00">zyncarla::JackMultiEngine</text>
<text xml:space="preserve" text-anchor="middle" x="226.5" y="-5.75" font-family="Helvetica,sans-Serif" font-size="10.00">::Start</text>
</a>
</g>
</g>
<!-- Node2&#45;&gt;Node8 -->
<g id="edge5_Node000002_Node000008" class="edge">
<title>Node2&#45;&gt;Node8</title>
<g id="a_edge5_Node000002_Node000008"><a xlink:title=" ">
<path fill="none" stroke="#63b8ff" d="M314.7,-29.44C306.66,-28.13 298.39,-26.79 290.31,-25.47"/>
<polygon fill="#63b8ff" stroke="#63b8ff" points="313.96,-32.86 324.39,-31.02 315.08,-25.95 313.96,-32.86"/>
</a>
</g>
</g>
<!-- Node4 -->
<g id="Node000004" class="node">
<title>Node4</title>
<g id="a_Node000004"><a xlink:href="classzyncarla_1_1AlsaEngine.html#a76e36536f9828505d690c5302018059a" target="_top" xlink:title=" ">
<polygon fill="#fff0f0" stroke="red" points="115.75,-128.5 11.25,-128.5 11.25,-98 115.75,-98 115.75,-128.5"/>
<text xml:space="preserve" text-anchor="start" x="19.25" y="-115" font-family="Helvetica,sans-Serif" font-size="10.00">zyncarla::AlsaEngine</text>
<text xml:space="preserve" text-anchor="middle" x="63.5" y="-103.75" font-family="Helvetica,sans-Serif" font-size="10.00">::setMidiEn</text>
</a>
</g>
</g>
<!-- Node3&#45;&gt;Node4 -->
<g id="edge3_Node000003_Node000004" class="edge">
<title>Node3&#45;&gt;Node4</title>
<g id="a_edge3_Node000003_Node000004"><a xlink:title=" ">
<path fill="none" stroke="#63b8ff" d="M163.49,-83.12C147.88,-87.87 131.28,-92.93 116.22,-97.51"/>
<polygon fill="#63b8ff" stroke="#63b8ff" points="164.12,-86.59 172.67,-80.33 162.08,-79.89 164.12,-86.59"/>
</a>
</g>
</g>
<!-- Node7 -->
<g id="Node000007" class="node">
<title>Node7</title>
<g id="a_Node000007"><a xlink:href="classzyncarla_1_1AlsaEngine.html#ae975289ef6b94c67bd5391567ddc2b74" target="_top" xlink:title=" ">
<polygon fill="white" stroke="#666666" points="115.75,-79.5 11.25,-79.5 11.25,-49 115.75,-49 115.75,-79.5"/>
<text xml:space="preserve" text-anchor="start" x="19.25" y="-66" font-family="Helvetica,sans-Serif" font-size="10.00">zyncarla::AlsaEngine</text>
<text xml:space="preserve" text-anchor="middle" x="63.5" y="-54.75" font-family="Helvetica,sans-Serif" font-size="10.00">::Start</text>
</a>
</g>
</g>
<!-- Node3&#45;&gt;Node7 -->
<g id="edge4_Node000003_Node000007" class="edge">
<title>Node3&#45;&gt;Node7</title>
<g id="a_edge4_Node000003_Node000007"><a xlink:title=" ">
<path fill="none" stroke="#63b8ff" d="M163.04,-64.25C147.56,-64.25 131.13,-64.25 116.22,-64.25"/>
<polygon fill="#63b8ff" stroke="#63b8ff" points="162.6,-67.75 172.6,-64.25 162.6,-60.75 162.6,-67.75"/>
</a>
</g>
</g>
<!-- Node9 -->
<g id="Node000009" class="node">
<title>Node9</title>
<g id="a_Node000009"><a xlink:href="classzyncarla_1_1JackMultiEngine.html#a90425a8a4a1c40a9424ac9d48de742c3" target="_top" xlink:title=" ">
<polygon fill="white" stroke="#666666" points="127,-30.5 0,-30.5 0,0 127,0 127,-30.5"/>
<text xml:space="preserve" text-anchor="start" x="8" y="-17" font-family="Helvetica,sans-Serif" font-size="10.00">zyncarla::JackMultiEngine</text>
<text xml:space="preserve" text-anchor="middle" x="63.5" y="-5.75" font-family="Helvetica,sans-Serif" font-size="10.00">::setAudioEn</text>
</a>
</g>
</g>
<!-- Node8&#45;&gt;Node9 -->
<g id="edge6_Node000008_Node000009" class="edge">
<title>Node8&#45;&gt;Node9</title>
<g id="a_edge6_Node000008_Node000009"><a xlink:title=" ">
<path fill="none" stroke="#63b8ff" d="M151.47,-15.25C143.39,-15.25 135.22,-15.25 127.3,-15.25"/>
<polygon fill="#63b8ff" stroke="#63b8ff" points="151.28,-18.75 161.28,-15.25 151.28,-11.75 151.28,-18.75"/>
</a>
</g>
</g>
</g>
</svg>

<g id="navigator" transform="translate(0 0)" fill="#404254">
  <rect fill="#f2f5e9" fill-opacity="0.5" stroke="#606060" stroke-width=".5" x="0" y="0" width="60" height="60"/>
  <use id="zoomplus" xlink:href="#zoomPlus" x="17" y="9" onmousedown="handleZoom(evt,'in')"/>
  <use id="zoomminus" xlink:href="#zoomMin" x="42" y="9" onmousedown="handleZoom(evt,'out')"/>
  <use id="reset" xlink:href="#resetDef" x="30" y="36" onmousedown="handleReset()"/>
   <use id="arrowup" xlink:href="#arrowUp" x="0" y="0" onmousedown="handlePan(0,-1)"/>
  <use id="arrowright" xlink:href="#arrowRight" x="0" y="0" onmousedown="handlePan(1,0)"/>
  <use id="arrowdown" xlink:href="#arrowDown" x="0" y="0" onmousedown="handlePan(0,1)"/>
  <use id="arrowleft" xlink:href="#arrowLeft" x="0" y="0" onmousedown="handlePan(-1,0)"/>
</g>
<svg viewBox="0 0 15 15" width="100%" height="30px" preserveAspectRatio="xMaxYMin meet">
 <g id="arrow_out" transform="scale(0.3 0.3)">
  <a xlink:href="namespacezyncarla_a721d1c6ed12f2bbcae18d995310f7508_icgraph_org.svg" target="_base">
   <rect id="button" ry="5" rx="5" y="6" x="6" height="38" width="38"
        fill="#f2f5e9" fill-opacity="0.5" stroke="#606060" stroke-width="1.0"/>
   <path id="arrow"
     d="M 11.500037,31.436501 C 11.940474,20.09759 22.043105,11.32322 32.158766,21.979434 L 37.068811,17.246167 C 37.068811,17.246167 37.088388,32 37.088388,32 L 22.160133,31.978069 C 22.160133,31.978069 26.997745,27.140456 26.997745,27.140456 C 18.528582,18.264221 13.291696,25.230495 11.500037,31.436501 z"
     style="fill:#404040;"/>
  </a>
 </g>
</svg>

<style type='text/css'>
<![CDATA[
[data-mouse-over-selected='false'] { opacity: 0.7; }
[data-mouse-over-selected='true']  { opacity: 1.0; }
]]>
</style>
<script type="application/ecmascript"><![CDATA[
document.addEventListener('DOMContentLoaded', (event) => {
  highlightEdges();
  highlightAdjacentNodes();
});
]]></script>
</svg>
