<?xml version="1.0" encoding="UTF-8" standalone="no"?>
<!DOCTYPE svg PUBLIC "-//W3C//DTD SVG 1.1//EN"
 "http://www.w3.org/Graphics/SVG/1.1/DTD/svg11.dtd">
<!-- Generated by graphviz version 14.0.2 (0)
 -->
<!-- Title: rtosc::enum_key Pages: 1 -->
<svg width="490pt" height="88pt"
 viewBox="0.00 0.00 490.00 88.00" xmlns="http://www.w3.org/2000/svg" xmlns:xlink="http://www.w3.org/1999/xlink">
<g id="graph0" class="graph" transform="scale(1 1) rotate(0) translate(4 83.5)">
<title>rtosc::enum_key</title>
<!-- Node1 -->
<g id="Node000001" class="node">
<title>Node1</title>
<g id="a_Node000001"><a xlink:title=" ">
<polygon fill="#999999" stroke="#666666" points="481.75,-48.88 395.25,-48.88 395.25,-29.62 481.75,-29.62 481.75,-48.88"/>
<text xml:space="preserve" text-anchor="middle" x="438.5" y="-35.38" font-family="Helvetica,sans-Serif" font-size="10.00">rtosc::enum_key</text>
</a>
</g>
</g>
<!-- Node2 -->
<g id="Node000002" class="node">
<title>Node2</title>
<g id="a_Node000002"><a xlink:href="namespacertosc.html#a9de4d98c8b36071d1af40fd473a777aa" target="_top" xlink:title=" ">
<polygon fill="white" stroke="#666666" points="359.25,-54.5 263.75,-54.5 263.75,-24 359.25,-24 359.25,-54.5"/>
<text xml:space="preserve" text-anchor="start" x="271.75" y="-41" font-family="Helvetica,sans-Serif" font-size="10.00">rtosc::canonicalize</text>
<text xml:space="preserve" text-anchor="middle" x="311.5" y="-29.75" font-family="Helvetica,sans-Serif" font-size="10.00">_arg_vals</text>
</a>
</g>
</g>
<!-- Node1&#45;&gt;Node2 -->
<g id="edge1_Node000001_Node000002" class="edge">
<title>Node1&#45;&gt;Node2</title>
<g id="a_edge1_Node000001_Node000002"><a xlink:title=" ">
<path fill="none" stroke="#63b8ff" d="M383.44,-39.25C375.53,-39.25 367.44,-39.25 359.69,-39.25"/>
<polygon fill="#63b8ff" stroke="#63b8ff" points="383.32,-42.75 393.32,-39.25 383.32,-35.75 383.32,-42.75"/>
</a>
</g>
</g>
<!-- Node3 -->
<g id="Node000003" class="node">
<title>Node3</title>
<g id="a_Node000003"><a xlink:href="namespacertosc.html#a4f20f64cb06640cbfbd021d3b6fec9c9" target="_top" xlink:title=" ">
<polygon fill="white" stroke="#666666" points="227.75,-79.5 130,-79.5 130,-49 227.75,-49 227.75,-79.5"/>
<text xml:space="preserve" text-anchor="start" x="138" y="-66" font-family="Helvetica,sans-Serif" font-size="10.00">rtosc::get_changed</text>
<text xml:space="preserve" text-anchor="middle" x="178.88" y="-54.75" font-family="Helvetica,sans-Serif" font-size="10.00">_values</text>
</a>
</g>
</g>
<!-- Node2&#45;&gt;Node3 -->
<g id="edge2_Node000002_Node000003" class="edge">
<title>Node2&#45;&gt;Node3</title>
<g id="a_edge2_Node000002_Node000003"><a xlink:title=" ">
<path fill="none" stroke="#63b8ff" d="M252.05,-50.44C243.95,-51.99 235.72,-53.56 227.84,-55.07"/>
<polygon fill="#63b8ff" stroke="#63b8ff" points="252.69,-53.88 261.85,-48.56 251.38,-47 252.69,-53.88"/>
</a>
</g>
</g>
<!-- Node6 -->
<g id="Node000006" class="node">
<title>Node6</title>
<g id="a_Node000006"><a xlink:href="namespacertosc.html#a7c77aa682e5bcf59113d301fcde1ae99" target="_top" xlink:title=" ">
<polygon fill="white" stroke="#666666" points="224,-30.5 133.75,-30.5 133.75,0 224,0 224,-30.5"/>
<text xml:space="preserve" text-anchor="start" x="141.75" y="-17" font-family="Helvetica,sans-Serif" font-size="10.00">rtosc::get_default</text>
<text xml:space="preserve" text-anchor="middle" x="178.88" y="-5.75" font-family="Helvetica,sans-Serif" font-size="10.00">_value</text>
</a>
</g>
</g>
<!-- Node2&#45;&gt;Node6 -->
<g id="edge4_Node000002_Node000006" class="edge">
<title>Node2&#45;&gt;Node6</title>
<g id="a_edge4_Node000002_Node000006"><a xlink:title=" ">
<path fill="none" stroke="#63b8ff" d="M252.12,-28.52C242.79,-26.81 233.28,-25.06 224.35,-23.42"/>
<polygon fill="#63b8ff" stroke="#63b8ff" points="251.38,-31.95 261.85,-30.31 252.65,-25.06 251.38,-31.95"/>
</a>
</g>
</g>
<!-- Node4 -->
<g id="Node000004" class="node">
<title>Node4</title>
<g id="a_Node000004"><a xlink:href="namespacertosc.html#acb25d9f9b6ce39dbdc8fd2e7fe4edd2f" target="_top" xlink:title=" ">
<polygon fill="#fff0f0" stroke="red" points="94,-73.88 0,-73.88 0,-54.62 94,-54.62 94,-73.88"/>
<text xml:space="preserve" text-anchor="middle" x="47" y="-60.38" font-family="Helvetica,sans-Serif" font-size="10.00">rtosc::save_to_file</text>
</a>
</g>
</g>
<!-- Node3&#45;&gt;Node4 -->
<g id="edge3_Node000003_Node000004" class="edge">
<title>Node3&#45;&gt;Node4</title>
<g id="a_edge3_Node000003_Node000004"><a xlink:title=" ">
<path fill="none" stroke="#63b8ff" d="M118.25,-64.25C110.19,-64.25 102.02,-64.25 94.25,-64.25"/>
<polygon fill="#63b8ff" stroke="#63b8ff" points="118,-67.75 128,-64.25 118,-60.75 118,-67.75"/>
</a>
</g>
</g>
</g>
</svg>
