<?xml version="1.0" encoding="UTF-8" standalone="no"?>
<!DOCTYPE svg PUBLIC "-//W3C//DTD SVG 1.1//EN"
 "http://www.w3.org/Graphics/SVG/1.1/DTD/svg11.dtd">
<!-- Generated by graphviz version 14.0.2 (0)
 -->
<!-- Title: juce::ValueTreeSynchroniserHelpers::getValueTreePath Pages: 1 -->
<svg width="480pt" height="82pt"
 viewBox="0.00 0.00 480.00 82.00" xmlns="http://www.w3.org/2000/svg" xmlns:xlink="http://www.w3.org/1999/xlink">

<svg id="main" version="1.1" xmlns="http://www.w3.org/2000/svg" xmlns:xlink="http://www.w3.org/1999/xlink" xml:space="preserve">

<style type="text/css"><![CDATA[
.node, .edge {opacity: 0.7;}
.node.selected, .edge.selected {opacity: 1;}
.edge:hover path { stroke: red; }
.edge:hover polygon { stroke: red; fill: red; }
]]></style>
<script type="application/ecmascript" xlink:href="svg.min.js"/>
<svg id="graph" class="graph">
<g id="graph0" class="graph" transform="scale(1 1) rotate(0) translate(4 78.25)">
<title>juce::ValueTreeSynchroniserHelpers::getValueTreePath</title>
<!-- Node1 -->
<g id="Node000001" class="node">
<title>Node1</title>
<g id="a_Node000001"><a xlink:title=" ">
<polygon fill="#999999" stroke="#666666" points="139,-51.88 0,-51.88 0,-21.38 139,-21.38 139,-51.88"/>
<text xml:space="preserve" text-anchor="start" x="8" y="-38.38" font-family="Helvetica,sans-Serif" font-size="10.00">juce::ValueTreeSynchroniser</text>
<text xml:space="preserve" text-anchor="middle" x="69.5" y="-27.12" font-family="Helvetica,sans-Serif" font-size="10.00">Helpers::getValueTreePath</text>
</a>
</g>
</g>
<!-- Node1&#45;&gt;Node1 -->
<g id="edge6_Node000001_Node000001" class="edge">
<title>Node1&#45;&gt;Node1</title>
<g id="a_edge6_Node000001_Node000001"><a xlink:title=" ">
<path fill="none" stroke="#63b8ff" d="M39.35,-52.36C33.2,-61.43 43.25,-69.88 69.5,-69.88 83.86,-69.88 93.37,-67.35 98.03,-63.58"/>
<polygon fill="#63b8ff" stroke="#63b8ff" points="101.47,-64.26 99.43,-53.86 94.54,-63.26 101.47,-64.26"/>
</a>
</g>
</g>
<!-- Node2 -->
<g id="Node000002" class="node">
<title>Node2</title>
<g id="a_Node000002"><a xlink:href="classjuce_1_1Array.html#a76b59834b9d3d5b654f27dbaf2d6c09f" target="_top" xlink:title=" ">
<polygon fill="white" stroke="#666666" points="280.25,-74.25 199,-74.25 199,-55 280.25,-55 280.25,-74.25"/>
<text xml:space="preserve" text-anchor="middle" x="239.62" y="-60.75" font-family="Helvetica,sans-Serif" font-size="10.00">juce::Array::add</text>
</a>
</g>
</g>
<!-- Node1&#45;&gt;Node2 -->
<g id="edge1_Node000001_Node000002" class="edge">
<title>Node1&#45;&gt;Node2</title>
<g id="a_edge1_Node000001_Node000002"><a xlink:title=" ">
<path fill="none" stroke="#63b8ff" d="M139.37,-48.09C155.41,-50.77 172.22,-53.57 187.34,-56.08"/>
<polygon fill="#63b8ff" stroke="#63b8ff" points="186.61,-59.51 197.05,-57.7 187.76,-52.61 186.61,-59.51"/>
</a>
</g>
</g>
<!-- Node3 -->
<g id="Node000003" class="node">
<title>Node3</title>
<g id="a_Node000003"><a xlink:href="classjuce_1_1ValueTree.html#ab24fd944bc0bc40b8cfb5668c5931634" target="_top" xlink:title=" ">
<polygon fill="white" stroke="#666666" points="304.25,-19.25 175,-19.25 175,0 304.25,0 304.25,-19.25"/>
<text xml:space="preserve" text-anchor="middle" x="239.62" y="-5.75" font-family="Helvetica,sans-Serif" font-size="10.00">juce::ValueTree::getParent</text>
</a>
</g>
</g>
<!-- Node1&#45;&gt;Node3 -->
<g id="edge2_Node000001_Node000003" class="edge">
<title>Node1&#45;&gt;Node3</title>
<g id="a_edge2_Node000001_Node000003"><a xlink:title=" ">
<path fill="none" stroke="#63b8ff" d="M139.37,-25.57C147.66,-24.23 156.16,-22.87 164.52,-21.53"/>
<polygon fill="#63b8ff" stroke="#63b8ff" points="164.99,-24.99 174.31,-19.95 163.88,-18.08 164.99,-24.99"/>
</a>
</g>
</g>
<!-- Node3&#45;&gt;Node3 -->
<g id="edge3_Node000003_Node000003" class="edge">
<title>Node3&#45;&gt;Node3</title>
<g id="a_edge3_Node000003_Node000003"><a xlink:title=" ">
<path fill="none" stroke="#63b8ff" d="M213.58,-19.54C201.7,-28.15 210.38,-37.25 239.62,-37.25 256.08,-37.25 266.02,-34.37 269.46,-30.32"/>
<polygon fill="#63b8ff" stroke="#63b8ff" points="272.79,-29.24 266.17,-20.97 266.19,-31.56 272.79,-29.24"/>
</a>
</g>
</g>
<!-- Node4 -->
<g id="Node000004" class="node">
<title>Node4</title>
<g id="a_Node000004"><a xlink:href="classjuce_1_1ValueTree.html#ab5c439b294bafff99c304b3c94b759ea" target="_top" xlink:title=" ">
<polygon fill="white" stroke="#666666" points="471.75,-19.25 340.25,-19.25 340.25,0 471.75,0 471.75,-19.25"/>
<text xml:space="preserve" text-anchor="middle" x="406" y="-5.75" font-family="Helvetica,sans-Serif" font-size="10.00">juce::ValueTree::ValueTree</text>
</a>
</g>
</g>
<!-- Node3&#45;&gt;Node4 -->
<g id="edge4_Node000003_Node000004" class="edge">
<title>Node3&#45;&gt;Node4</title>
<g id="a_edge4_Node000003_Node000004"><a xlink:title=" ">
<path fill="none" stroke="#63b8ff" d="M304.65,-9.62C312.4,-9.62 320.38,-9.62 328.29,-9.62"/>
<polygon fill="#63b8ff" stroke="#63b8ff" points="328.29,-13.13 338.29,-9.63 328.28,-6.13 328.29,-13.13"/>
</a>
</g>
</g>
<!-- Node4&#45;&gt;Node4 -->
<g id="edge5_Node000004_Node000004" class="edge">
<title>Node4&#45;&gt;Node4</title>
<g id="a_edge5_Node000004_Node000004"><a xlink:title=" ">
<path fill="none" stroke="#63b8ff" d="M379.95,-19.54C368.07,-28.15 376.75,-37.25 406,-37.25 422.45,-37.25 432.39,-34.37 435.83,-30.32"/>
<polygon fill="#63b8ff" stroke="#63b8ff" points="439.16,-29.24 432.55,-20.97 432.56,-31.56 439.16,-29.24"/>
</a>
</g>
</g>
</g>
</svg>
</svg>

<style type='text/css'>
<![CDATA[
[data-mouse-over-selected='false'] { opacity: 0.7; }
[data-mouse-over-selected='true']  { opacity: 1.0; }
]]>
</style>
<script type="application/ecmascript"><![CDATA[
document.addEventListener('DOMContentLoaded', (event) => {
  highlightEdges();
  highlightAdjacentNodes();
});
]]></script>
</svg>
