<?xml version="1.0" encoding="UTF-8" standalone="no"?>
<!DOCTYPE svg PUBLIC "-//W3C//DTD SVG 1.1//EN"
 "http://www.w3.org/Graphics/SVG/1.1/DTD/svg11.dtd">
<!-- Generated by graphviz version 14.0.2 (0)
 -->
<!-- Title: juce::comboBoxPopupMenuFinishedCallback Pages: 1 -->
<svg width="358pt" height="57pt"
 viewBox="0.00 0.00 358.00 57.00" xmlns="http://www.w3.org/2000/svg" xmlns:xlink="http://www.w3.org/1999/xlink">

<svg id="main" version="1.1" xmlns="http://www.w3.org/2000/svg" xmlns:xlink="http://www.w3.org/1999/xlink" xml:space="preserve">

<style type="text/css"><![CDATA[
.node, .edge {opacity: 0.7;}
.node.selected, .edge.selected {opacity: 1;}
.edge:hover path { stroke: red; }
.edge:hover polygon { stroke: red; fill: red; }
]]></style>
<script type="application/ecmascript" xlink:href="svg.min.js"/>
<svg id="graph" class="graph">
<g id="graph0" class="graph" transform="scale(1 1) rotate(0) translate(4 52.5)">
<title>juce::comboBoxPopupMenuFinishedCallback</title>
<!-- Node1 -->
<g id="Node000001" class="node">
<title>Node1</title>
<g id="a_Node000001"><a xlink:title=" ">
<polygon fill="#999999" stroke="#666666" points="350,-30.5 177.25,-30.5 177.25,0 350,0 350,-30.5"/>
<text xml:space="preserve" text-anchor="start" x="185.25" y="-17" font-family="Helvetica,sans-Serif" font-size="10.00">juce::comboBoxPopupMenuFinished</text>
<text xml:space="preserve" text-anchor="middle" x="263.62" y="-5.75" font-family="Helvetica,sans-Serif" font-size="10.00">Callback</text>
</a>
</g>
</g>
<!-- Node1&#45;&gt;Node1 -->
<g id="edge1_Node000001_Node000001" class="edge">
<title>Node1&#45;&gt;Node1</title>
<g id="a_edge1_Node000001_Node000001"><a xlink:title=" ">
<path fill="none" stroke="#63b8ff" d="M295.99,-42.2C290.7,-45.97 279.91,-48.5 263.62,-48.5 233.85,-48.5 222.45,-40.06 229.43,-30.99"/>
<polygon fill="#63b8ff" stroke="#63b8ff" points="299.42,-42.91 297.58,-32.48 292.51,-41.78 299.42,-42.91"/>
</a>
</g>
</g>
<!-- Node2 -->
<g id="Node000002" class="node">
<title>Node2</title>
<g id="a_Node000002"><a xlink:href="classjuce_1_1ComboBox.html#a6494bab51776117f120281602fb2376c" target="_top" xlink:title=" ">
<polygon fill="white" stroke="#666666" points="141.25,-24.88 0,-24.88 0,-5.63 141.25,-5.63 141.25,-24.88"/>
<text xml:space="preserve" text-anchor="middle" x="70.62" y="-11.38" font-family="Helvetica,sans-Serif" font-size="10.00">juce::ComboBox::showPopup</text>
</a>
</g>
</g>
<!-- Node1&#45;&gt;Node2 -->
<g id="edge2_Node000001_Node000002" class="edge">
<title>Node1&#45;&gt;Node2</title>
<g id="a_edge2_Node000001_Node000002"><a xlink:title=" ">
<path fill="none" stroke="#63b8ff" d="M165.52,-15.25C157.47,-15.25 149.42,-15.25 141.63,-15.25"/>
<polygon fill="#63b8ff" stroke="#63b8ff" points="165.39,-18.75 175.39,-15.25 165.39,-11.75 165.39,-18.75"/>
</a>
</g>
</g>
<!-- Node2&#45;&gt;Node2 -->
<g id="edge3_Node000002_Node000002" class="edge">
<title>Node2&#45;&gt;Node2</title>
<g id="a_edge3_Node000002_Node000002"><a xlink:title=" ">
<path fill="none" stroke="#63b8ff" d="M105.55,-35.6C101.88,-39.83 90.24,-42.88 70.62,-42.88 36.7,-42.88 26.63,-33.77 40.41,-25.16"/>
<polygon fill="#63b8ff" stroke="#63b8ff" points="108.76,-34.22 101.46,-26.54 102.38,-37.1 108.76,-34.22"/>
</a>
</g>
</g>
</g>
</svg>
</svg>

<style type='text/css'>
<![CDATA[
[data-mouse-over-selected='false'] { opacity: 0.7; }
[data-mouse-over-selected='true']  { opacity: 1.0; }
]]>
</style>
<script type="application/ecmascript"><![CDATA[
document.addEventListener('DOMContentLoaded', (event) => {
  highlightEdges();
  highlightAdjacentNodes();
});
]]></script>
</svg>
