<?xml version="1.0" encoding="UTF-8" standalone="no"?>
<!DOCTYPE svg PUBLIC "-//W3C//DTD SVG 1.1//EN"
 "http://www.w3.org/Graphics/SVG/1.1/DTD/svg11.dtd">
<!-- Generated by graphviz version 14.0.2 (0)
 -->
<!-- Title: juce::nsObjectToVar Pages: 1 -->
<svg width="449pt" height="198pt"
 viewBox="0.00 0.00 449.00 198.00" xmlns="http://www.w3.org/2000/svg" xmlns:xlink="http://www.w3.org/1999/xlink">
<g id="graph0" class="graph" transform="scale(1 1) rotate(0) translate(4 194.25)">
<title>juce::nsObjectToVar</title>
<!-- Node1 -->
<g id="Node000001" class="node">
<title>Node1</title>
<g id="a_Node000001"><a xlink:title=" ">
<polygon fill="#999999" stroke="#666666" points="103.75,-80.25 0,-80.25 0,-61 103.75,-61 103.75,-80.25"/>
<text xml:space="preserve" text-anchor="middle" x="51.88" y="-66.75" font-family="Helvetica,sans-Serif" font-size="10.00">juce::nsObjectToVar</text>
</a>
</g>
</g>
<!-- Node1&#45;&gt;Node1 -->
<g id="edge13_Node000001_Node000001" class="edge">
<title>Node1&#45;&gt;Node1</title>
<g id="a_edge13_Node000001_Node000001"><a xlink:title=" ">
<path fill="none" stroke="#63b8ff" d="M28.88,-80.54C18.39,-89.15 26.06,-98.25 51.88,-98.25 66.4,-98.25 75.18,-95.37 78.21,-91.32"/>
<polygon fill="#63b8ff" stroke="#63b8ff" points="81.62,-90.5 75.32,-81.98 74.94,-92.57 81.62,-90.5"/>
</a>
</g>
</g>
<!-- Node2 -->
<g id="Node000002" class="node">
<title>Node2</title>
<g id="a_Node000002"><a xlink:href="namespacejuce.html#a42b0ce7557bc9a1e8d6c63edfd275cc0" target="_top" xlink:title=" ">
<polygon fill="white" stroke="#666666" points="247.62,-135.25 149.88,-135.25 149.88,-116 247.62,-116 247.62,-135.25"/>
<text xml:space="preserve" text-anchor="middle" x="198.75" y="-121.75" font-family="Helvetica,sans-Serif" font-size="10.00">juce::nsArrayToVar</text>
</a>
</g>
</g>
<!-- Node1&#45;&gt;Node2 -->
<g id="edge1_Node000001_Node000002" class="edge">
<title>Node1&#45;&gt;Node2</title>
<g id="a_edge1_Node000001_Node000002"><a xlink:title=" ">
<path fill="none" stroke="#63b8ff" d="M94.07,-80.69C108.4,-86.37 124.67,-93.09 139.75,-98.62 151.5,-102.94 164.83,-107.12 175.75,-111.27"/>
<polygon fill="#63b8ff" stroke="#63b8ff" points="174.11,-114.38 184.68,-115 176.8,-107.92 174.11,-114.38"/>
</a>
</g>
</g>
<!-- Node4 -->
<g id="Node000004" class="node">
<title>Node4</title>
<g id="a_Node000004"><a xlink:href="namespacejuce.html#ada11024b9cf1d3ade8c0130e2f270311" target="_top" xlink:title=" ">
<polygon fill="white" stroke="#666666" points="257.75,-80.25 139.75,-80.25 139.75,-61 257.75,-61 257.75,-80.25"/>
<text xml:space="preserve" text-anchor="middle" x="198.75" y="-66.75" font-family="Helvetica,sans-Serif" font-size="10.00">juce::nsDictionaryToVar</text>
</a>
</g>
</g>
<!-- Node1&#45;&gt;Node4 -->
<g id="edge5_Node000001_Node000004" class="edge">
<title>Node1&#45;&gt;Node4</title>
<g id="a_edge5_Node000001_Node000004"><a xlink:title=" ">
<path fill="none" stroke="#63b8ff" d="M103.95,-64.14C111.76,-63.94 119.93,-63.85 128.06,-63.88"/>
<polygon fill="#63b8ff" stroke="#63b8ff" points="127.92,-67.38 137.96,-63.98 127.99,-60.38 127.92,-67.38"/>
</a>
</g>
</g>
<!-- Node6 -->
<g id="Node000006" class="node">
<title>Node6</title>
<g id="a_Node000006"><a xlink:href="namespacejuce.html#a42e5f26f6fd7b644c5f6f44728b0c03b" target="_top" xlink:title=" ">
<polygon fill="white" stroke="#666666" points="420.75,-19.25 314,-19.25 314,0 420.75,0 420.75,-19.25"/>
<text xml:space="preserve" text-anchor="middle" x="367.38" y="-5.75" font-family="Helvetica,sans-Serif" font-size="10.00">juce::nsStringToJuce</text>
</a>
</g>
</g>
<!-- Node1&#45;&gt;Node6 -->
<g id="edge14_Node000001_Node000006" class="edge">
<title>Node1&#45;&gt;Node6</title>
<g id="a_edge14_Node000001_Node000006"><a xlink:title=" ">
<path fill="none" stroke="#63b8ff" d="M97.46,-60.59C111.02,-57.61 125.98,-54.41 139.75,-51.62 194.53,-40.56 256.99,-29.07 302.45,-20.91"/>
<polygon fill="#63b8ff" stroke="#63b8ff" points="302.91,-24.38 312.13,-19.17 301.67,-17.49 302.91,-24.38"/>
</a>
</g>
</g>
<!-- Node2&#45;&gt;Node1 -->
<g id="edge4_Node000002_Node000001" class="edge">
<title>Node2&#45;&gt;Node1</title>
<g id="a_edge4_Node000002_Node000001"><a xlink:title=" ">
<path fill="none" stroke="#63b8ff" d="M149.52,-120.05C146.2,-118.94 142.92,-117.79 139.75,-116.62 116.05,-107.92 89.42,-96.3 71.96,-86.46"/>
<polygon fill="#63b8ff" stroke="#63b8ff" points="74.04,-83.62 63.68,-81.39 70.38,-89.6 74.04,-83.62"/>
</a>
</g>
</g>
<!-- Node2&#45;&gt;Node2 -->
<g id="edge3_Node000002_Node000002" class="edge">
<title>Node2&#45;&gt;Node2</title>
<g id="a_edge3_Node000002_Node000002"><a xlink:title=" ">
<path fill="none" stroke="#63b8ff" d="M175.76,-135.54C165.27,-144.15 172.93,-153.25 198.75,-153.25 213.27,-153.25 222.05,-150.37 225.09,-146.32"/>
<polygon fill="#63b8ff" stroke="#63b8ff" points="228.5,-145.5 222.19,-136.98 221.81,-147.57 228.5,-145.5"/>
</a>
</g>
</g>
<!-- Node3 -->
<g id="Node000003" class="node">
<title>Node3</title>
<g id="a_Node000003"><a xlink:href="classjuce_1_1Array.html#a76b59834b9d3d5b654f27dbaf2d6c09f" target="_top" xlink:title=" ">
<polygon fill="white" stroke="#666666" points="408,-190.25 326.75,-190.25 326.75,-171 408,-171 408,-190.25"/>
<text xml:space="preserve" text-anchor="middle" x="367.38" y="-176.75" font-family="Helvetica,sans-Serif" font-size="10.00">juce::Array::add</text>
</a>
</g>
</g>
<!-- Node2&#45;&gt;Node3 -->
<g id="edge2_Node000002_Node000003" class="edge">
<title>Node2&#45;&gt;Node3</title>
<g id="a_edge2_Node000002_Node000003"><a xlink:title=" ">
<path fill="none" stroke="#63b8ff" d="M223.83,-135.69C242.67,-143.36 269.62,-153.88 293.75,-161.62 300.75,-163.87 308.2,-166.06 315.55,-168.09"/>
<polygon fill="#63b8ff" stroke="#63b8ff" points="314.54,-171.44 325.11,-170.66 316.36,-164.68 314.54,-171.44"/>
</a>
</g>
</g>
<!-- Node4&#45;&gt;Node1 -->
<g id="edge8_Node000004_Node000001" class="edge">
<title>Node4&#45;&gt;Node1</title>
<g id="a_edge8_Node000004_Node000001"><a xlink:title=" ">
<path fill="none" stroke="#63b8ff" d="M139.47,-77.26C131.48,-77.39 123.25,-77.41 115.19,-77.32"/>
<polygon fill="#63b8ff" stroke="#63b8ff" points="115.53,-73.82 105.47,-77.14 115.4,-80.82 115.53,-73.82"/>
</a>
</g>
</g>
<!-- Node4&#45;&gt;Node4 -->
<g id="edge7_Node000004_Node000004" class="edge">
<title>Node4&#45;&gt;Node4</title>
<g id="a_edge7_Node000004_Node000004"><a xlink:title=" ">
<path fill="none" stroke="#63b8ff" d="M175.76,-80.54C165.27,-89.15 172.93,-98.25 198.75,-98.25 213.27,-98.25 222.05,-95.37 225.09,-91.32"/>
<polygon fill="#63b8ff" stroke="#63b8ff" points="228.5,-90.5 222.19,-81.98 221.81,-92.57 228.5,-90.5"/>
</a>
</g>
</g>
<!-- Node5 -->
<g id="Node000005" class="node">
<title>Node5</title>
<g id="a_Node000005"><a xlink:href="classjuce_1_1ReferenceCountedObjectPtr.html#af2454572015d6304d2d2e909cc8000cf" target="_top" xlink:title=" ">
<polygon fill="white" stroke="#666666" points="441,-152.88 293.75,-152.88 293.75,-122.38 441,-122.38 441,-152.88"/>
<text xml:space="preserve" text-anchor="start" x="301.75" y="-139.38" font-family="Helvetica,sans-Serif" font-size="10.00">juce::ReferenceCountedObject</text>
<text xml:space="preserve" text-anchor="middle" x="367.38" y="-128.12" font-family="Helvetica,sans-Serif" font-size="10.00">Ptr::get</text>
</a>
</g>
</g>
<!-- Node4&#45;&gt;Node5 -->
<g id="edge6_Node000004_Node000005" class="edge">
<title>Node4&#45;&gt;Node5</title>
<g id="a_edge6_Node000004_Node000005"><a xlink:title=" ">
<path fill="none" stroke="#63b8ff" d="M220.8,-80.68C239.7,-89.54 268.31,-102.59 293.75,-112.62 298.41,-114.46 303.27,-116.3 308.16,-118.1"/>
<polygon fill="#63b8ff" stroke="#63b8ff" points="306.86,-121.35 317.46,-121.44 309.23,-114.76 306.86,-121.35"/>
</a>
</g>
</g>
<!-- Node4&#45;&gt;Node6 -->
<g id="edge9_Node000004_Node000006" class="edge">
<title>Node4&#45;&gt;Node6</title>
<g id="a_edge9_Node000004_Node000006"><a xlink:title=" ">
<path fill="none" stroke="#63b8ff" d="M227.26,-60.55C254.76,-50.49 297.26,-34.93 328.05,-23.65"/>
<polygon fill="#63b8ff" stroke="#63b8ff" points="329.21,-26.96 337.4,-20.23 326.8,-20.38 329.21,-26.96"/>
</a>
</g>
</g>
<!-- Node7 -->
<g id="Node000007" class="node">
<title>Node7</title>
<g id="a_Node000007"><a xlink:href="classjuce_1_1DynamicObject.html#ac5736eb7df5c3c80b5525f8fd773e472" target="_top" xlink:title=" ">
<polygon fill="white" stroke="#666666" points="419.62,-85.88 315.12,-85.88 315.12,-55.38 419.62,-55.38 419.62,-85.88"/>
<text xml:space="preserve" text-anchor="start" x="323.12" y="-72.38" font-family="Helvetica,sans-Serif" font-size="10.00">juce::DynamicObject</text>
<text xml:space="preserve" text-anchor="middle" x="367.38" y="-61.12" font-family="Helvetica,sans-Serif" font-size="10.00">::setProperty</text>
</a>
</g>
</g>
<!-- Node4&#45;&gt;Node7 -->
<g id="edge11_Node000004_Node000007" class="edge">
<title>Node4&#45;&gt;Node7</title>
<g id="a_edge11_Node000004_Node000007"><a xlink:title=" ">
<path fill="none" stroke="#63b8ff" d="M258.03,-70.62C272.76,-70.62 288.64,-70.62 303.59,-70.62"/>
<polygon fill="#63b8ff" stroke="#63b8ff" points="303.28,-74.13 313.28,-70.63 303.28,-67.13 303.28,-74.13"/>
</a>
</g>
</g>
<!-- Node6&#45;&gt;Node6 -->
<g id="edge10_Node000006_Node000006" class="edge">
<title>Node6&#45;&gt;Node6</title>
<g id="a_edge10_Node000006_Node000006"><a xlink:title=" ">
<path fill="none" stroke="#63b8ff" d="M340.98,-19.54C328.93,-28.15 337.73,-37.25 367.38,-37.25 384.05,-37.25 394.13,-34.37 397.61,-30.32"/>
<polygon fill="#63b8ff" stroke="#63b8ff" points="400.93,-29.21 394.28,-20.96 394.34,-31.56 400.93,-29.21"/>
</a>
</g>
</g>
<!-- Node7&#45;&gt;Node7 -->
<g id="edge12_Node000007_Node000007" class="edge">
<title>Node7&#45;&gt;Node7</title>
<g id="a_edge12_Node000007_Node000007"><a xlink:title=" ">
<path fill="none" stroke="#63b8ff" d="M337.49,-86.36C331.4,-95.43 341.36,-103.88 367.38,-103.88 381.6,-103.88 391.03,-101.35 395.65,-97.58"/>
<polygon fill="#63b8ff" stroke="#63b8ff" points="399.09,-98.25 397.04,-87.86 392.16,-97.26 399.09,-98.25"/>
</a>
</g>
</g>
</g>
</svg>
