<?xml version="1.0" encoding="UTF-8" standalone="no"?>
<!DOCTYPE svg PUBLIC "-//W3C//DTD SVG 1.1//EN"
 "http://www.w3.org/Graphics/SVG/1.1/DTD/svg11.dtd">
<!-- Generated by graphviz version 14.0.2 (0)
 -->
<!-- Title: plugins/FreeBoy/game&#45;music&#45;emu/gme/Nes_Oscs.h Pages: 1 -->
<!--zoomable 238 -->

<svg id="main" version="1.1" xmlns="http://www.w3.org/2000/svg" xmlns:xlink="http://www.w3.org/1999/xlink" xml:space="preserve" onload="init(evt)">

<style type="text/css"><![CDATA[
.node, .edge {opacity: 0.7;}
.node.selected, .edge.selected {opacity: 1;}
.edge:hover path { stroke: red; }
.edge:hover polygon { stroke: red; fill: red; }
]]></style>

<defs>
  <circle id="rim" cx="0" cy="0" r="7"/>
  <circle id="rim2" cx="0" cy="0" r="3.5"/>
  <g id="zoomPlus">
    <use xlink:href="#rim" fill="#404040"><set attributeName="fill" to="#808080" begin="zoomplus.mouseover" end="zoomplus.mouseout"/></use>
    <path d="M-4,0h8M0,-4v8" fill="none" stroke="white" stroke-width="1.5" pointer-events="none"/>
  </g>
  <g id="zoomMin">
    <use xlink:href="#rim" fill="#404040"><set attributeName="fill" to="#808080" begin="zoomminus.mouseover" end="zoomminus.mouseout"/></use>
    <path d="M-4,0h8" fill="none" stroke="white" stroke-width="1.5" pointer-events="none"/>
  </g>
  <g id="arrowUp" transform="translate(30 24)">
    <use xlink:href="#rim"/>
    <path pointer-events="none" fill="none" stroke="white" stroke-width="1.5" d="M0,-3.0v7 M-2.5,-0.5L0,-3.0L2.5,-0.5"/>
  </g>
  <g id="arrowRight" transform="rotate(90) translate(36 -43)">
    <use xlink:href="#rim"/>
    <path pointer-events="none" fill="none" stroke="white" stroke-width="1.5" d="M0,-3.0v7 M-2.5,-0.5L0,-3.0L2.5,-0.5"/>
  </g>
  <g id="arrowDown" transform="rotate(180) translate(-30 -48)">
    <use xlink:href="#rim"/>
    <path pointer-events="none" fill="none" stroke="white" stroke-width="1.5" d="M0,-3.0v7 M-2.5,-0.5L0,-3.0L2.5,-0.5"/>
  </g>
  <g id="arrowLeft" transform="rotate(270) translate(-36 17)">
    <use xlink:href="#rim"/>
    <path pointer-events="none" fill="none" stroke="white" stroke-width="1.5" d="M0,-3.0v7 M-2.5,-0.5L0,-3.0L2.5,-0.5"/>
  </g>
  <g id="resetDef">
    <use xlink:href="#rim2" fill="#404040"><set attributeName="fill" to="#808080" begin="reset.mouseover" end="reset.mouseout"/></use>
  </g>
</defs>
<script type="application/ecmascript">
var viewWidth = 660;
var viewHeight = 238;
var sectionId = 'dynsection-1';
</script>
<script type="application/ecmascript" xlink:href="svg.min.js"/>
<svg id="graph" class="graph">
<g id="viewport">
<title>plugins/FreeBoy/game&#45;music&#45;emu/gme/Nes_Oscs.h</title>
<!-- Node1 -->
<g id="Node000001" class="node">
<title>Node1</title>
<g id="a_Node000001"><a xlink:title=" ">
<polygon fill="#999999" stroke="#666666" points="319,-230 173.25,-230 173.25,-199.5 319,-199.5 319,-230"/>
<text xml:space="preserve" text-anchor="start" x="181.25" y="-216.5" font-family="Helvetica,sans-Serif" font-size="10.00">plugins/FreeBoy/game</text>
<text xml:space="preserve" text-anchor="middle" x="246.12" y="-205.25" font-family="Helvetica,sans-Serif" font-size="10.00">&#45;music&#45;emu/gme/Nes_Oscs.h</text>
</a>
</g>
</g>
<!-- Node2 -->
<g id="Node000002" class="node">
<title>Node2</title>
<g id="a_Node000002"><a xlink:href="Nes__Apu_8h.html" target="_top" xlink:title=" ">
<polygon fill="white" stroke="#666666" points="316,-163.5 176.25,-163.5 176.25,-133 316,-133 316,-163.5"/>
<text xml:space="preserve" text-anchor="start" x="184.25" y="-150" font-family="Helvetica,sans-Serif" font-size="10.00">plugins/FreeBoy/game</text>
<text xml:space="preserve" text-anchor="middle" x="246.12" y="-138.75" font-family="Helvetica,sans-Serif" font-size="10.00">&#45;music&#45;emu/gme/Nes_Apu.h</text>
</a>
</g>
</g>
<!-- Node1&#45;&gt;Node2 -->
<g id="edge1_Node000001_Node000002" class="edge">
<title>Node1&#45;&gt;Node2</title>
<g id="a_edge1_Node000001_Node000002"><a xlink:title=" ">
<path fill="none" stroke="#63b8ff" d="M246.12,-187.81C246.12,-179.64 246.12,-170.91 246.12,-163.83"/>
<polygon fill="#63b8ff" stroke="#63b8ff" points="242.63,-187.6 246.13,-197.6 249.63,-187.6 242.63,-187.6"/>
</a>
</g>
</g>
<!-- Node3 -->
<g id="Node000003" class="node">
<title>Node3</title>
<g id="a_Node000003"><a xlink:href="Nes__Apu_8cpp.html" target="_top" xlink:title=" ">
<polygon fill="white" stroke="#666666" points="150.25,-97 0,-97 0,-66.5 150.25,-66.5 150.25,-97"/>
<text xml:space="preserve" text-anchor="start" x="8" y="-83.5" font-family="Helvetica,sans-Serif" font-size="10.00">plugins/FreeBoy/game</text>
<text xml:space="preserve" text-anchor="middle" x="75.12" y="-72.25" font-family="Helvetica,sans-Serif" font-size="10.00">&#45;music&#45;emu/gme/Nes_Apu.cpp</text>
</a>
</g>
</g>
<!-- Node2&#45;&gt;Node3 -->
<g id="edge2_Node000002_Node000003" class="edge">
<title>Node2&#45;&gt;Node3</title>
<g id="a_edge2_Node000002_Node000003"><a xlink:title=" ">
<path fill="none" stroke="#63b8ff" d="M196.81,-128.65C170.51,-118.73 138.61,-106.7 114.07,-97.44"/>
<polygon fill="#63b8ff" stroke="#63b8ff" points="195.31,-131.83 205.91,-132.08 197.79,-125.28 195.31,-131.83"/>
</a>
</g>
</g>
<!-- Node4 -->
<g id="Node000004" class="node">
<title>Node4</title>
<g id="a_Node000004"><a xlink:href="Nes__Oscs_8cpp.html" target="_top" xlink:title=" ">
<polygon fill="white" stroke="#666666" points="324.25,-97 168,-97 168,-66.5 324.25,-66.5 324.25,-97"/>
<text xml:space="preserve" text-anchor="start" x="176" y="-83.5" font-family="Helvetica,sans-Serif" font-size="10.00">plugins/FreeBoy/game</text>
<text xml:space="preserve" text-anchor="middle" x="246.12" y="-72.25" font-family="Helvetica,sans-Serif" font-size="10.00">&#45;music&#45;emu/gme/Nes_Oscs.cpp</text>
</a>
</g>
</g>
<!-- Node2&#45;&gt;Node4 -->
<g id="edge3_Node000002_Node000004" class="edge">
<title>Node2&#45;&gt;Node4</title>
<g id="a_edge3_Node000002_Node000004"><a xlink:title=" ">
<path fill="none" stroke="#63b8ff" d="M246.12,-121.31C246.12,-113.14 246.12,-104.41 246.12,-97.33"/>
<polygon fill="#63b8ff" stroke="#63b8ff" points="242.63,-121.1 246.13,-131.1 249.63,-121.1 242.63,-121.1"/>
</a>
</g>
</g>
<!-- Node5 -->
<g id="Node000005" class="node">
<title>Node5</title>
<g id="a_Node000005"><a xlink:href="Nsf__Emu_8h.html" target="_top" xlink:title=" ">
<polygon fill="white" stroke="#666666" points="482,-97 342.25,-97 342.25,-66.5 482,-66.5 482,-97"/>
<text xml:space="preserve" text-anchor="start" x="350.25" y="-83.5" font-family="Helvetica,sans-Serif" font-size="10.00">plugins/FreeBoy/game</text>
<text xml:space="preserve" text-anchor="middle" x="412.12" y="-72.25" font-family="Helvetica,sans-Serif" font-size="10.00">&#45;music&#45;emu/gme/Nsf_Emu.h</text>
</a>
</g>
</g>
<!-- Node2&#45;&gt;Node5 -->
<g id="edge4_Node000002_Node000005" class="edge">
<title>Node2&#45;&gt;Node5</title>
<g id="a_edge4_Node000002_Node000005"><a xlink:title=" ">
<path fill="none" stroke="#63b8ff" d="M294.34,-128.51C319.81,-118.62 350.6,-106.65 374.32,-97.44"/>
<polygon fill="#63b8ff" stroke="#63b8ff" points="293.26,-125.18 285.2,-132.07 295.79,-131.71 293.26,-125.18"/>
</a>
</g>
</g>
<!-- Node6 -->
<g id="Node000006" class="node">
<title>Node6</title>
<g id="a_Node000006"><a xlink:href="Nsf__Emu_8cpp.html" target="_top" xlink:title=" ">
<polygon fill="white" stroke="#666666" points="321.25,-30.5 171,-30.5 171,0 321.25,0 321.25,-30.5"/>
<text xml:space="preserve" text-anchor="start" x="179" y="-17" font-family="Helvetica,sans-Serif" font-size="10.00">plugins/FreeBoy/game</text>
<text xml:space="preserve" text-anchor="middle" x="246.12" y="-5.75" font-family="Helvetica,sans-Serif" font-size="10.00">&#45;music&#45;emu/gme/Nsf_Emu.cpp</text>
</a>
</g>
</g>
<!-- Node5&#45;&gt;Node6 -->
<g id="edge5_Node000005_Node000006" class="edge">
<title>Node5&#45;&gt;Node6</title>
<g id="a_edge5_Node000005_Node000006"><a xlink:title=" ">
<path fill="none" stroke="#63b8ff" d="M363.91,-62.01C338.44,-52.12 307.65,-40.15 283.93,-30.94"/>
<polygon fill="#63b8ff" stroke="#63b8ff" points="362.46,-65.21 373.05,-65.57 364.99,-58.68 362.46,-65.21"/>
</a>
</g>
</g>
<!-- Node7 -->
<g id="Node000007" class="node">
<title>Node7</title>
<g id="a_Node000007"><a xlink:href="Nsfe__Emu_8h.html" target="_top" xlink:title=" ">
<polygon fill="#fff0f0" stroke="red" points="484.62,-30.5 339.62,-30.5 339.62,0 484.62,0 484.62,-30.5"/>
<text xml:space="preserve" text-anchor="start" x="347.62" y="-17" font-family="Helvetica,sans-Serif" font-size="10.00">plugins/FreeBoy/game</text>
<text xml:space="preserve" text-anchor="middle" x="412.12" y="-5.75" font-family="Helvetica,sans-Serif" font-size="10.00">&#45;music&#45;emu/gme/Nsfe_Emu.h</text>
</a>
</g>
</g>
<!-- Node5&#45;&gt;Node7 -->
<g id="edge6_Node000005_Node000007" class="edge">
<title>Node5&#45;&gt;Node7</title>
<g id="a_edge6_Node000005_Node000007"><a xlink:title=" ">
<path fill="none" stroke="#63b8ff" d="M412.12,-54.81C412.12,-46.64 412.12,-37.91 412.12,-30.83"/>
<polygon fill="#63b8ff" stroke="#63b8ff" points="408.63,-54.6 412.13,-64.6 415.63,-54.6 408.63,-54.6"/>
</a>
</g>
</g>
<!-- Node9 -->
<g id="Node000009" class="node">
<title>Node9</title>
<g id="a_Node000009"><a xlink:href="nes__cpu__io_8h.html" target="_top" xlink:title=" ">
<polygon fill="#fff0f0" stroke="red" points="651.5,-30.5 502.75,-30.5 502.75,0 651.5,0 651.5,-30.5"/>
<text xml:space="preserve" text-anchor="start" x="510.75" y="-17" font-family="Helvetica,sans-Serif" font-size="10.00">plugins/FreeBoy/game</text>
<text xml:space="preserve" text-anchor="middle" x="577.12" y="-5.75" font-family="Helvetica,sans-Serif" font-size="10.00">&#45;music&#45;emu/gme/nes_cpu_io.h</text>
</a>
</g>
</g>
<!-- Node5&#45;&gt;Node9 -->
<g id="edge7_Node000005_Node000009" class="edge">
<title>Node5&#45;&gt;Node9</title>
<g id="a_edge7_Node000005_Node000009"><a xlink:title=" ">
<path fill="none" stroke="#63b8ff" d="M460.05,-62.01C485.36,-52.12 515.97,-40.15 539.55,-30.94"/>
<polygon fill="#63b8ff" stroke="#63b8ff" points="459.02,-58.66 450.98,-65.56 461.56,-65.18 459.02,-58.66"/>
</a>
</g>
</g>
</g>
</svg>

<g id="navigator" transform="translate(0 0)" fill="#404254">
  <rect fill="#f2f5e9" fill-opacity="0.5" stroke="#606060" stroke-width=".5" x="0" y="0" width="60" height="60"/>
  <use id="zoomplus" xlink:href="#zoomPlus" x="17" y="9" onmousedown="handleZoom(evt,'in')"/>
  <use id="zoomminus" xlink:href="#zoomMin" x="42" y="9" onmousedown="handleZoom(evt,'out')"/>
  <use id="reset" xlink:href="#resetDef" x="30" y="36" onmousedown="handleReset()"/>
   <use id="arrowup" xlink:href="#arrowUp" x="0" y="0" onmousedown="handlePan(0,-1)"/>
  <use id="arrowright" xlink:href="#arrowRight" x="0" y="0" onmousedown="handlePan(1,0)"/>
  <use id="arrowdown" xlink:href="#arrowDown" x="0" y="0" onmousedown="handlePan(0,1)"/>
  <use id="arrowleft" xlink:href="#arrowLeft" x="0" y="0" onmousedown="handlePan(-1,0)"/>
</g>
<svg viewBox="0 0 15 15" width="100%" height="30px" preserveAspectRatio="xMaxYMin meet">
 <g id="arrow_out" transform="scale(0.3 0.3)">
  <a xlink:href="Nes__Oscs_8h__dep__incl_org.svg" target="_base">
   <rect id="button" ry="5" rx="5" y="6" x="6" height="38" width="38"
        fill="#f2f5e9" fill-opacity="0.5" stroke="#606060" stroke-width="1.0"/>
   <path id="arrow"
     d="M 11.500037,31.436501 C 11.940474,20.09759 22.043105,11.32322 32.158766,21.979434 L 37.068811,17.246167 C 37.068811,17.246167 37.088388,32 37.088388,32 L 22.160133,31.978069 C 22.160133,31.978069 26.997745,27.140456 26.997745,27.140456 C 18.528582,18.264221 13.291696,25.230495 11.500037,31.436501 z"
     style="fill:#404040;"/>
  </a>
 </g>
</svg>

<style type='text/css'>
<![CDATA[
[data-mouse-over-selected='false'] { opacity: 0.7; }
[data-mouse-over-selected='true']  { opacity: 1.0; }
]]>
</style>
<script type="application/ecmascript"><![CDATA[
document.addEventListener('DOMContentLoaded', (event) => {
  highlightEdges();
  highlightAdjacentNodes();
});
]]></script>
</svg>
