<?xml version="1.0" encoding="UTF-8" standalone="no"?>
<!DOCTYPE svg PUBLIC "-//W3C//DTD SVG 1.1//EN"
 "http://www.w3.org/Graphics/SVG/1.1/DTD/svg11.dtd">
<!-- Generated by graphviz version 14.0.2 (0)
 -->
<!-- Title: plugins/LadspaEffect/calf/veal/src/calf/osc.h Pages: 1 -->
<svg width="125pt" height="149pt"
 viewBox="0.00 0.00 125.00 149.00" xmlns="http://www.w3.org/2000/svg" xmlns:xlink="http://www.w3.org/1999/xlink">

<svg id="main" version="1.1" xmlns="http://www.w3.org/2000/svg" xmlns:xlink="http://www.w3.org/1999/xlink" xml:space="preserve">

<style type="text/css"><![CDATA[
.node, .edge {opacity: 0.7;}
.node.selected, .edge.selected {opacity: 1;}
.edge:hover path { stroke: red; }
.edge:hover polygon { stroke: red; fill: red; }
]]></style>
<script type="application/ecmascript" xlink:href="svg.min.js"/>
<svg id="graph" class="graph">
<g id="graph0" class="graph" transform="scale(1 1) rotate(0) translate(4 145)">
<title>plugins/LadspaEffect/calf/veal/src/calf/osc.h</title>
<!-- Node1 -->
<g id="Node000001" class="node">
<title>Node1</title>
<g id="a_Node000001"><a xlink:title=" ">
<polygon fill="#999999" stroke="#666666" points="117.25,-141 0,-141 0,-110.5 117.25,-110.5 117.25,-141"/>
<text xml:space="preserve" text-anchor="start" x="8" y="-127.5" font-family="Helvetica,sans-Serif" font-size="10.00">plugins/LadspaEffect</text>
<text xml:space="preserve" text-anchor="middle" x="58.62" y="-116.25" font-family="Helvetica,sans-Serif" font-size="10.00">/calf/veal/src/calf/osc.h</text>
</a>
</g>
</g>
<!-- Node2 -->
<g id="Node000002" class="node">
<title>Node2</title>
<g id="a_Node000002"><a xlink:href="LadspaEffect_2calf_2veal_2src_2calf_2fft_8h.html" target="_top" xlink:title=" ">
<polygon fill="white" stroke="#666666" points="49.5,-74.5 17.75,-74.5 17.75,-55.25 49.5,-55.25 49.5,-74.5"/>
<text xml:space="preserve" text-anchor="middle" x="33.62" y="-61" font-family="Helvetica,sans-Serif" font-size="10.00">fft.h</text>
</a>
</g>
</g>
<!-- Node1&#45;&gt;Node2 -->
<g id="edge1_Node000001_Node000002" class="edge">
<title>Node1&#45;&gt;Node2</title>
<g id="a_edge1_Node000001_Node000002"><a xlink:title=" ">
<path fill="none" stroke="#63b8ff" d="M52.45,-110.2C49.26,-102.7 45.33,-93.45 41.89,-85.35"/>
<polygon fill="#63b8ff" stroke="#63b8ff" points="45.2,-84.18 38.07,-76.34 38.76,-86.92 45.2,-84.18"/>
</a>
</g>
</g>
<!-- Node4 -->
<g id="Node000004" class="node">
<title>Node4</title>
<g id="a_Node000004"><a xlink:title=" ">
<polygon fill="#e0e0e0" stroke="#999999" points="102,-74.5 67.25,-74.5 67.25,-55.25 102,-55.25 102,-74.5"/>
<text xml:space="preserve" text-anchor="middle" x="84.62" y="-61" font-family="Helvetica,sans-Serif" font-size="10.00">map</text>
</a>
</g>
</g>
<!-- Node1&#45;&gt;Node4 -->
<g id="edge3_Node000001_Node000004" class="edge">
<title>Node1&#45;&gt;Node4</title>
<g id="a_edge3_Node000001_Node000004"><a xlink:title=" ">
<path fill="none" stroke="#63b8ff" d="M65.05,-110.2C68.36,-102.7 72.45,-93.45 76.03,-85.35"/>
<polygon fill="#63b8ff" stroke="#63b8ff" points="79.17,-86.9 80.01,-76.34 72.76,-84.07 79.17,-86.9"/>
</a>
</g>
</g>
<!-- Node3 -->
<g id="Node000003" class="node">
<title>Node3</title>
<g id="a_Node000003"><a xlink:title=" ">
<polygon fill="#e0e0e0" stroke="#999999" points="59.62,-19.25 7.62,-19.25 7.62,0 59.62,0 59.62,-19.25"/>
<text xml:space="preserve" text-anchor="middle" x="33.62" y="-5.75" font-family="Helvetica,sans-Serif" font-size="10.00">complex</text>
</a>
</g>
</g>
<!-- Node2&#45;&gt;Node3 -->
<g id="edge2_Node000002_Node000003" class="edge">
<title>Node2&#45;&gt;Node3</title>
<g id="a_edge2_Node000002_Node000003"><a xlink:title=" ">
<path fill="none" stroke="#63b8ff" d="M33.62,-55.08C33.62,-48.57 33.62,-39.42 33.62,-31.12"/>
<polygon fill="#63b8ff" stroke="#63b8ff" points="37.13,-31.12 33.63,-21.12 30.13,-31.12 37.13,-31.12"/>
</a>
</g>
</g>
</g>
</svg>
</svg>

<style type='text/css'>
<![CDATA[
[data-mouse-over-selected='false'] { opacity: 0.7; }
[data-mouse-over-selected='true']  { opacity: 1.0; }
]]>
</style>
<script type="application/ecmascript"><![CDATA[
document.addEventListener('DOMContentLoaded', (event) => {
  highlightEdges();
  highlightAdjacentNodes();
});
]]></script>
</svg>
