<?xml version="1.0" encoding="UTF-8" standalone="no"?>
<!DOCTYPE svg PUBLIC "-//W3C//DTD SVG 1.1//EN"
 "http://www.w3.org/Graphics/SVG/1.1/DTD/svg11.dtd">
<!-- Generated by graphviz version 14.0.2 (0)
 -->
<!-- Title: plugins/LadspaEffect/cmt/cmt/src/pinknoise.h Pages: 1 -->
<svg width="551pt" height="105pt"
 viewBox="0.00 0.00 551.00 105.00" xmlns="http://www.w3.org/2000/svg" xmlns:xlink="http://www.w3.org/1999/xlink">
<g id="graph0" class="graph" transform="scale(1 1) rotate(0) translate(4 101)">
<title>plugins/LadspaEffect/cmt/cmt/src/pinknoise.h</title>
<!-- Node1 -->
<g id="Node000001" class="node">
<title>Node1</title>
<g id="a_Node000001"><a xlink:title=" ">
<polygon fill="#999999" stroke="#666666" points="327.25,-97 204,-97 204,-66.5 327.25,-66.5 327.25,-97"/>
<text xml:space="preserve" text-anchor="start" x="212" y="-83.5" font-family="Helvetica,sans-Serif" font-size="10.00">plugins/LadspaEffect</text>
<text xml:space="preserve" text-anchor="middle" x="265.62" y="-72.25" font-family="Helvetica,sans-Serif" font-size="10.00">/cmt/cmt/src/pinknoise.h</text>
</a>
</g>
</g>
<!-- Node2 -->
<g id="Node000002" class="node">
<title>Node2</title>
<g id="a_Node000002"><a xlink:href="logistic_8cpp.html" target="_top" xlink:title=" ">
<polygon fill="white" stroke="#666666" points="123.25,-30.5 0,-30.5 0,0 123.25,0 123.25,-30.5"/>
<text xml:space="preserve" text-anchor="start" x="8" y="-17" font-family="Helvetica,sans-Serif" font-size="10.00">plugins/LadspaEffect</text>
<text xml:space="preserve" text-anchor="middle" x="61.62" y="-5.75" font-family="Helvetica,sans-Serif" font-size="10.00">/cmt/cmt/src/logistic.cpp</text>
</a>
</g>
</g>
<!-- Node1&#45;&gt;Node2 -->
<g id="edge1_Node000001_Node000002" class="edge">
<title>Node1&#45;&gt;Node2</title>
<g id="a_edge1_Node000001_Node000002"><a xlink:title=" ">
<path fill="none" stroke="#63b8ff" d="M208.2,-62.59C176.52,-52.58 137.7,-40.3 107.97,-30.9"/>
<polygon fill="#63b8ff" stroke="#63b8ff" points="207.05,-65.9 217.64,-65.58 209.16,-59.23 207.05,-65.9"/>
</a>
</g>
</g>
<!-- Node3 -->
<g id="Node000003" class="node">
<title>Node3</title>
<g id="a_Node000003"><a xlink:href="pink_8cpp.html" target="_top" xlink:title=" ">
<polygon fill="white" stroke="#666666" points="251.88,-30.5 141.38,-30.5 141.38,0 251.88,0 251.88,-30.5"/>
<text xml:space="preserve" text-anchor="start" x="149.38" y="-17" font-family="Helvetica,sans-Serif" font-size="10.00">plugins/LadspaEffect</text>
<text xml:space="preserve" text-anchor="middle" x="196.62" y="-5.75" font-family="Helvetica,sans-Serif" font-size="10.00">/cmt/cmt/src/pink.cpp</text>
</a>
</g>
</g>
<!-- Node1&#45;&gt;Node3 -->
<g id="edge2_Node000001_Node000003" class="edge">
<title>Node1&#45;&gt;Node3</title>
<g id="a_edge2_Node000001_Node000003"><a xlink:title=" ">
<path fill="none" stroke="#63b8ff" d="M241.78,-58.46C232,-49.32 220.94,-38.98 212.22,-30.83"/>
<polygon fill="#63b8ff" stroke="#63b8ff" points="239.17,-60.81 248.86,-65.08 243.95,-55.69 239.17,-60.81"/>
</a>
</g>
</g>
<!-- Node4 -->
<g id="Node000004" class="node">
<title>Node4</title>
<g id="a_Node000004"><a xlink:href="pink__full_8cpp.html" target="_top" xlink:title=" ">
<polygon fill="white" stroke="#666666" points="398.88,-30.5 270.38,-30.5 270.38,0 398.88,0 398.88,-30.5"/>
<text xml:space="preserve" text-anchor="start" x="278.38" y="-17" font-family="Helvetica,sans-Serif" font-size="10.00">plugins/LadspaEffect</text>
<text xml:space="preserve" text-anchor="middle" x="334.62" y="-5.75" font-family="Helvetica,sans-Serif" font-size="10.00">/cmt/cmt/src/pink_full.cpp</text>
</a>
</g>
</g>
<!-- Node1&#45;&gt;Node4 -->
<g id="edge3_Node000001_Node000004" class="edge">
<title>Node1&#45;&gt;Node4</title>
<g id="a_edge3_Node000001_Node000004"><a xlink:title=" ">
<path fill="none" stroke="#63b8ff" d="M289.47,-58.46C299.25,-49.32 310.31,-38.98 319.03,-30.83"/>
<polygon fill="#63b8ff" stroke="#63b8ff" points="287.3,-55.69 282.39,-65.08 292.08,-60.81 287.3,-55.69"/>
</a>
</g>
</g>
<!-- Node5 -->
<g id="Node000005" class="node">
<title>Node5</title>
<g id="a_Node000005"><a xlink:href="pink__sh_8cpp.html" target="_top" xlink:title=" ">
<polygon fill="white" stroke="#666666" points="542.75,-30.5 416.5,-30.5 416.5,0 542.75,0 542.75,-30.5"/>
<text xml:space="preserve" text-anchor="start" x="424.5" y="-17" font-family="Helvetica,sans-Serif" font-size="10.00">plugins/LadspaEffect</text>
<text xml:space="preserve" text-anchor="middle" x="479.62" y="-5.75" font-family="Helvetica,sans-Serif" font-size="10.00">/cmt/cmt/src/pink_sh.cpp</text>
</a>
</g>
</g>
<!-- Node1&#45;&gt;Node5 -->
<g id="edge4_Node000001_Node000005" class="edge">
<title>Node1&#45;&gt;Node5</title>
<g id="a_edge4_Node000001_Node000005"><a xlink:title=" ">
<path fill="none" stroke="#63b8ff" d="M325.43,-62.72C358.74,-52.68 399.68,-40.34 431.01,-30.9"/>
<polygon fill="#63b8ff" stroke="#63b8ff" points="324.47,-59.36 315.9,-65.6 326.49,-66.06 324.47,-59.36"/>
</a>
</g>
</g>
</g>
</svg>
