<?xml version="1.0" encoding="UTF-8" standalone="no"?>
<!DOCTYPE svg PUBLIC "-//W3C//DTD SVG 1.1//EN"
 "http://www.w3.org/Graphics/SVG/1.1/DTD/svg11.dtd">
<!-- Generated by graphviz version 14.0.2 (0)
 -->
<!-- Title: plugins/LadspaEffect/cmt/cmt/src/freeverb/Components/denormals.h Pages: 1 -->
<svg width="412pt" height="283pt"
 viewBox="0.00 0.00 412.00 283.00" xmlns="http://www.w3.org/2000/svg" xmlns:xlink="http://www.w3.org/1999/xlink">
<g id="graph0" class="graph" transform="scale(1 1) rotate(0) translate(4 279)">
<title>plugins/LadspaEffect/cmt/cmt/src/freeverb/Components/denormals.h</title>
<!-- Node1 -->
<g id="Node000001" class="node">
<title>Node1</title>
<g id="a_Node000001"><a xlink:title=" ">
<polygon fill="#999999" stroke="#666666" points="270.38,-275 141.12,-275 141.12,-233.25 270.38,-233.25 270.38,-275"/>
<text xml:space="preserve" text-anchor="start" x="149.12" y="-261.5" font-family="Helvetica,sans-Serif" font-size="10.00">plugins/LadspaEffect</text>
<text xml:space="preserve" text-anchor="start" x="149.12" y="-250.25" font-family="Helvetica,sans-Serif" font-size="10.00">/cmt/cmt/src/freeverb</text>
<text xml:space="preserve" text-anchor="middle" x="205.75" y="-239" font-family="Helvetica,sans-Serif" font-size="10.00">/Components/denormals.h</text>
</a>
</g>
</g>
<!-- Node2 -->
<g id="Node000002" class="node">
<title>Node2</title>
<g id="a_Node000002"><a xlink:href="allpass_8h.html" target="_top" xlink:title=" ">
<polygon fill="white" stroke="#666666" points="198.25,-197.25 83.25,-197.25 83.25,-155.5 198.25,-155.5 198.25,-197.25"/>
<text xml:space="preserve" text-anchor="start" x="91.25" y="-183.75" font-family="Helvetica,sans-Serif" font-size="10.00">plugins/LadspaEffect</text>
<text xml:space="preserve" text-anchor="start" x="91.25" y="-172.5" font-family="Helvetica,sans-Serif" font-size="10.00">/cmt/cmt/src/freeverb</text>
<text xml:space="preserve" text-anchor="middle" x="140.75" y="-161.25" font-family="Helvetica,sans-Serif" font-size="10.00">/Components/allpass.h</text>
</a>
</g>
</g>
<!-- Node1&#45;&gt;Node2 -->
<g id="edge1_Node000001_Node000002" class="edge">
<title>Node1&#45;&gt;Node2</title>
<g id="a_edge1_Node000001_Node000002"><a xlink:title=" ">
<path fill="none" stroke="#63b8ff" d="M181,-224.29C173.41,-215.44 165.22,-205.89 158.22,-197.73"/>
<polygon fill="#63b8ff" stroke="#63b8ff" points="178.18,-226.37 187.35,-231.68 183.49,-221.81 178.18,-226.37"/>
</a>
</g>
</g>
<!-- Node7 -->
<g id="Node000007" class="node">
<title>Node7</title>
<g id="a_Node000007"><a xlink:href="comb_8h.html" target="_top" xlink:title=" ">
<polygon fill="white" stroke="#666666" points="325.62,-197.25 215.88,-197.25 215.88,-155.5 325.62,-155.5 325.62,-197.25"/>
<text xml:space="preserve" text-anchor="start" x="223.88" y="-183.75" font-family="Helvetica,sans-Serif" font-size="10.00">plugins/LadspaEffect</text>
<text xml:space="preserve" text-anchor="start" x="223.88" y="-172.5" font-family="Helvetica,sans-Serif" font-size="10.00">/cmt/cmt/src/freeverb</text>
<text xml:space="preserve" text-anchor="middle" x="270.75" y="-161.25" font-family="Helvetica,sans-Serif" font-size="10.00">/Components/comb.h</text>
</a>
</g>
</g>
<!-- Node1&#45;&gt;Node7 -->
<g id="edge6_Node000001_Node000007" class="edge">
<title>Node1&#45;&gt;Node7</title>
<g id="a_edge6_Node000001_Node000007"><a xlink:title=" ">
<path fill="none" stroke="#63b8ff" d="M230.5,-224.29C238.09,-215.44 246.28,-205.89 253.28,-197.73"/>
<polygon fill="#63b8ff" stroke="#63b8ff" points="228.01,-221.81 224.15,-231.68 233.32,-226.37 228.01,-221.81"/>
</a>
</g>
</g>
<!-- Node3 -->
<g id="Node000003" class="node">
<title>Node3</title>
<g id="a_Node000003"><a xlink:href="allpass_8cpp.html" target="_top" xlink:title=" ">
<polygon fill="white" stroke="#666666" points="125.5,-119.5 0,-119.5 0,-77.75 125.5,-77.75 125.5,-119.5"/>
<text xml:space="preserve" text-anchor="start" x="8" y="-106" font-family="Helvetica,sans-Serif" font-size="10.00">plugins/LadspaEffect</text>
<text xml:space="preserve" text-anchor="start" x="8" y="-94.75" font-family="Helvetica,sans-Serif" font-size="10.00">/cmt/cmt/src/freeverb</text>
<text xml:space="preserve" text-anchor="middle" x="62.75" y="-83.5" font-family="Helvetica,sans-Serif" font-size="10.00">/Components/allpass.cpp</text>
</a>
</g>
</g>
<!-- Node2&#45;&gt;Node3 -->
<g id="edge2_Node000002_Node000003" class="edge">
<title>Node2&#45;&gt;Node3</title>
<g id="a_edge2_Node000002_Node000003"><a xlink:title=" ">
<path fill="none" stroke="#63b8ff" d="M111.62,-147.09C102.35,-138.09 92.29,-128.31 83.71,-119.98"/>
<polygon fill="#63b8ff" stroke="#63b8ff" points="109.15,-149.56 118.76,-154.02 114.03,-144.54 109.15,-149.56"/>
</a>
</g>
</g>
<!-- Node4 -->
<g id="Node000004" class="node">
<title>Node4</title>
<g id="a_Node000004"><a xlink:href="revmodel_8h.html" target="_top" xlink:title=" ">
<polygon fill="white" stroke="#666666" points="267.75,-119.5 143.75,-119.5 143.75,-77.75 267.75,-77.75 267.75,-119.5"/>
<text xml:space="preserve" text-anchor="start" x="151.75" y="-106" font-family="Helvetica,sans-Serif" font-size="10.00">plugins/LadspaEffect</text>
<text xml:space="preserve" text-anchor="start" x="151.75" y="-94.75" font-family="Helvetica,sans-Serif" font-size="10.00">/cmt/cmt/src/freeverb</text>
<text xml:space="preserve" text-anchor="middle" x="205.75" y="-83.5" font-family="Helvetica,sans-Serif" font-size="10.00">/Components/revmodel.h</text>
</a>
</g>
</g>
<!-- Node2&#45;&gt;Node4 -->
<g id="edge3_Node000002_Node000004" class="edge">
<title>Node2&#45;&gt;Node4</title>
<g id="a_edge3_Node000002_Node000004"><a xlink:title=" ">
<path fill="none" stroke="#63b8ff" d="M165.5,-146.54C173.09,-137.69 181.28,-128.14 188.28,-119.98"/>
<polygon fill="#63b8ff" stroke="#63b8ff" points="163.01,-144.06 159.15,-153.93 168.32,-148.62 163.01,-144.06"/>
</a>
</g>
</g>
<!-- Node5 -->
<g id="Node000005" class="node">
<title>Node5</title>
<g id="a_Node000005"><a xlink:href="revmodel_8cpp.html" target="_top" xlink:title=" ">
<polygon fill="white" stroke="#666666" points="203,-41.75 68.5,-41.75 68.5,0 203,0 203,-41.75"/>
<text xml:space="preserve" text-anchor="start" x="76.5" y="-28.25" font-family="Helvetica,sans-Serif" font-size="10.00">plugins/LadspaEffect</text>
<text xml:space="preserve" text-anchor="start" x="76.5" y="-17" font-family="Helvetica,sans-Serif" font-size="10.00">/cmt/cmt/src/freeverb</text>
<text xml:space="preserve" text-anchor="middle" x="135.75" y="-5.75" font-family="Helvetica,sans-Serif" font-size="10.00">/Components/revmodel.cpp</text>
</a>
</g>
</g>
<!-- Node4&#45;&gt;Node5 -->
<g id="edge4_Node000004_Node000005" class="edge">
<title>Node4&#45;&gt;Node5</title>
<g id="a_edge4_Node000004_Node000005"><a xlink:title=" ">
<path fill="none" stroke="#63b8ff" d="M179.36,-69.06C171.11,-60.14 162.18,-50.47 154.56,-42.23"/>
<polygon fill="#63b8ff" stroke="#63b8ff" points="176.61,-71.24 185.96,-76.21 181.75,-66.49 176.61,-71.24"/>
</a>
</g>
</g>
<!-- Node6 -->
<g id="Node000006" class="node">
<title>Node6</title>
<g id="a_Node000006"><a xlink:href="freeverb_8cpp.html" target="_top" xlink:title=" ">
<polygon fill="white" stroke="#666666" points="330.62,-41.75 220.88,-41.75 220.88,0 330.62,0 330.62,-41.75"/>
<text xml:space="preserve" text-anchor="start" x="228.88" y="-28.25" font-family="Helvetica,sans-Serif" font-size="10.00">plugins/LadspaEffect</text>
<text xml:space="preserve" text-anchor="start" x="228.88" y="-17" font-family="Helvetica,sans-Serif" font-size="10.00">/cmt/cmt/src/freeverb</text>
<text xml:space="preserve" text-anchor="middle" x="275.75" y="-5.75" font-family="Helvetica,sans-Serif" font-size="10.00">/freeverb.cpp</text>
</a>
</g>
</g>
<!-- Node4&#45;&gt;Node6 -->
<g id="edge5_Node000004_Node000006" class="edge">
<title>Node4&#45;&gt;Node6</title>
<g id="a_edge5_Node000004_Node000006"><a xlink:title=" ">
<path fill="none" stroke="#63b8ff" d="M232.14,-69.06C240.39,-60.14 249.32,-50.47 256.94,-42.23"/>
<polygon fill="#63b8ff" stroke="#63b8ff" points="229.75,-66.49 225.54,-76.21 234.89,-71.24 229.75,-66.49"/>
</a>
</g>
</g>
<!-- Node7&#45;&gt;Node4 -->
<g id="edge8_Node000007_Node000004" class="edge">
<title>Node7&#45;&gt;Node4</title>
<g id="a_edge8_Node000007_Node000004"><a xlink:title=" ">
<path fill="none" stroke="#63b8ff" d="M246,-146.54C238.41,-137.69 230.22,-128.14 223.22,-119.98"/>
<polygon fill="#63b8ff" stroke="#63b8ff" points="243.18,-148.62 252.35,-153.93 248.49,-144.06 243.18,-148.62"/>
</a>
</g>
</g>
<!-- Node8 -->
<g id="Node000008" class="node">
<title>Node8</title>
<g id="a_Node000008"><a xlink:href="comb_8cpp.html" target="_top" xlink:title=" ">
<polygon fill="white" stroke="#666666" points="404.12,-119.5 285.38,-119.5 285.38,-77.75 404.12,-77.75 404.12,-119.5"/>
<text xml:space="preserve" text-anchor="start" x="293.38" y="-106" font-family="Helvetica,sans-Serif" font-size="10.00">plugins/LadspaEffect</text>
<text xml:space="preserve" text-anchor="start" x="293.38" y="-94.75" font-family="Helvetica,sans-Serif" font-size="10.00">/cmt/cmt/src/freeverb</text>
<text xml:space="preserve" text-anchor="middle" x="344.75" y="-83.5" font-family="Helvetica,sans-Serif" font-size="10.00">/Components/comb.cpp</text>
</a>
</g>
</g>
<!-- Node7&#45;&gt;Node8 -->
<g id="edge7_Node000007_Node000008" class="edge">
<title>Node7&#45;&gt;Node8</title>
<g id="a_edge7_Node000007_Node000008"><a xlink:title=" ">
<path fill="none" stroke="#63b8ff" d="M298.38,-147.09C307.18,-138.09 316.73,-128.31 324.86,-119.98"/>
<polygon fill="#63b8ff" stroke="#63b8ff" points="296.12,-144.39 291.64,-153.99 301.13,-149.29 296.12,-144.39"/>
</a>
</g>
</g>
</g>
</svg>
