<?xml version="1.0" encoding="UTF-8" standalone="no"?>
<!DOCTYPE svg PUBLIC "-//W3C//DTD SVG 1.1//EN"
 "http://www.w3.org/Graphics/SVG/1.1/DTD/svg11.dtd">
<!-- Generated by graphviz version 14.0.2 (0)
 -->
<!-- Title: plugins/LadspaEffect/calf/veal/src/calf/plugin_tools.h Pages: 1 -->
<svg width="1456pt" height="272pt"
 viewBox="0.00 0.00 1456.00 272.00" xmlns="http://www.w3.org/2000/svg" xmlns:xlink="http://www.w3.org/1999/xlink">
<g id="graph0" class="graph" transform="scale(1 1) rotate(0) translate(4 267.75)">
<title>plugins/LadspaEffect/calf/veal/src/calf/plugin_tools.h</title>
<!-- Node1 -->
<g id="Node000001" class="node">
<title>Node1</title>
<g id="a_Node000001"><a xlink:title=" ">
<polygon fill="#999999" stroke="#666666" points="849.75,-263.75 730.25,-263.75 730.25,-222 849.75,-222 849.75,-263.75"/>
<text xml:space="preserve" text-anchor="start" x="738.25" y="-250.25" font-family="Helvetica,sans-Serif" font-size="10.00">plugins/LadspaEffect</text>
<text xml:space="preserve" text-anchor="start" x="738.25" y="-239" font-family="Helvetica,sans-Serif" font-size="10.00">/calf/veal/src/calf/plugin</text>
<text xml:space="preserve" text-anchor="middle" x="790" y="-227.75" font-family="Helvetica,sans-Serif" font-size="10.00">_tools.h</text>
</a>
</g>
</g>
<!-- Node2 -->
<g id="Node000002" class="node">
<title>Node2</title>
<g id="a_Node000002"><a xlink:href="analyzer_8h.html" target="_top" xlink:title=" ">
<polygon fill="white" stroke="#666666" points="440.38,-186 303.62,-186 303.62,-155.5 440.38,-155.5 440.38,-186"/>
<text xml:space="preserve" text-anchor="start" x="311.62" y="-172.5" font-family="Helvetica,sans-Serif" font-size="10.00">plugins/LadspaEffect</text>
<text xml:space="preserve" text-anchor="middle" x="372" y="-161.25" font-family="Helvetica,sans-Serif" font-size="10.00">/calf/veal/src/calf/analyzer.h</text>
</a>
</g>
</g>
<!-- Node1&#45;&gt;Node2 -->
<g id="edge1_Node000001_Node000002" class="edge">
<title>Node1&#45;&gt;Node2</title>
<g id="a_edge1_Node000001_Node000002"><a xlink:title=" ">
<path fill="none" stroke="#63b8ff" d="M718.99,-229.96C641.31,-216.93 517.63,-196.18 440.82,-183.29"/>
<polygon fill="#63b8ff" stroke="#63b8ff" points="718.18,-233.37 728.62,-231.58 719.34,-226.47 718.18,-233.37"/>
</a>
</g>
</g>
<!-- Node4 -->
<g id="Node000004" class="node">
<title>Node4</title>
<g id="a_Node000004"><a xlink:href="modules__filter_8h.html" target="_top" xlink:title=" ">
<polygon fill="white" stroke="#666666" points="289.38,-119.5 158.62,-119.5 158.62,-77.75 289.38,-77.75 289.38,-119.5"/>
<text xml:space="preserve" text-anchor="start" x="166.62" y="-106" font-family="Helvetica,sans-Serif" font-size="10.00">plugins/LadspaEffect</text>
<text xml:space="preserve" text-anchor="start" x="166.62" y="-94.75" font-family="Helvetica,sans-Serif" font-size="10.00">/calf/veal/src/calf/modules</text>
<text xml:space="preserve" text-anchor="middle" x="224" y="-83.5" font-family="Helvetica,sans-Serif" font-size="10.00">_filter.h</text>
</a>
</g>
</g>
<!-- Node1&#45;&gt;Node4 -->
<g id="edge30_Node000001_Node000004" class="edge">
<title>Node1&#45;&gt;Node4</title>
<g id="a_edge30_Node000001_Node000004"><a xlink:title=" ">
<path fill="none" stroke="#63b8ff" d="M718.78,-240.35C599.75,-236.74 366.41,-224.79 295,-186 267.37,-170.99 246.27,-140.39 234.51,-119.94"/>
<polygon fill="#63b8ff" stroke="#63b8ff" points="718.32,-243.84 728.42,-240.63 718.53,-236.84 718.32,-243.84"/>
</a>
</g>
</g>
<!-- Node11 -->
<g id="Node000011" class="node">
<title>Node11</title>
<g id="a_Node000011"><a xlink:href="modules__tools_8h.html" target="_top" xlink:title=" ">
<polygon fill="white" stroke="#666666" points="585.38,-119.5 454.62,-119.5 454.62,-77.75 585.38,-77.75 585.38,-119.5"/>
<text xml:space="preserve" text-anchor="start" x="462.62" y="-106" font-family="Helvetica,sans-Serif" font-size="10.00">plugins/LadspaEffect</text>
<text xml:space="preserve" text-anchor="start" x="462.62" y="-94.75" font-family="Helvetica,sans-Serif" font-size="10.00">/calf/veal/src/calf/modules</text>
<text xml:space="preserve" text-anchor="middle" x="520" y="-83.5" font-family="Helvetica,sans-Serif" font-size="10.00">_tools.h</text>
</a>
</g>
</g>
<!-- Node1&#45;&gt;Node11 -->
<g id="edge40_Node000001_Node000011" class="edge">
<title>Node1&#45;&gt;Node11</title>
<g id="a_edge40_Node000001_Node000011"><a xlink:title=" ">
<path fill="none" stroke="#63b8ff" d="M741.53,-216.34C689.04,-188.68 606.38,-145.14 558.27,-119.79"/>
<polygon fill="#63b8ff" stroke="#63b8ff" points="739.78,-219.37 750.26,-220.94 743.05,-213.18 739.78,-219.37"/>
</a>
</g>
</g>
<!-- Node13 -->
<g id="Node000013" class="node">
<title>Node13</title>
<g id="a_Node000013"><a xlink:href="modules__comp_8h.html" target="_top" xlink:title=" ">
<polygon fill="white" stroke="#666666" points="883.38,-119.5 752.62,-119.5 752.62,-77.75 883.38,-77.75 883.38,-119.5"/>
<text xml:space="preserve" text-anchor="start" x="760.62" y="-106" font-family="Helvetica,sans-Serif" font-size="10.00">plugins/LadspaEffect</text>
<text xml:space="preserve" text-anchor="start" x="760.62" y="-94.75" font-family="Helvetica,sans-Serif" font-size="10.00">/calf/veal/src/calf/modules</text>
<text xml:space="preserve" text-anchor="middle" x="818" y="-83.5" font-family="Helvetica,sans-Serif" font-size="10.00">_comp.h</text>
</a>
</g>
</g>
<!-- Node1&#45;&gt;Node13 -->
<g id="edge16_Node000001_Node000013" class="edge">
<title>Node1&#45;&gt;Node13</title>
<g id="a_edge16_Node000001_Node000013"><a xlink:title=" ">
<path fill="none" stroke="#63b8ff" d="M796.13,-210.73C801.59,-183.01 809.41,-143.28 814.07,-119.6"/>
<polygon fill="#63b8ff" stroke="#63b8ff" points="792.74,-209.82 794.24,-220.31 799.61,-211.17 792.74,-209.82"/>
</a>
</g>
</g>
<!-- Node15 -->
<g id="Node000015" class="node">
<title>Node15</title>
<g id="a_Node000015"><a xlink:href="modules__delay_8h.html" target="_top" xlink:title=" ">
<polygon fill="white" stroke="#666666" points="734.38,-119.5 603.62,-119.5 603.62,-77.75 734.38,-77.75 734.38,-119.5"/>
<text xml:space="preserve" text-anchor="start" x="611.62" y="-106" font-family="Helvetica,sans-Serif" font-size="10.00">plugins/LadspaEffect</text>
<text xml:space="preserve" text-anchor="start" x="611.62" y="-94.75" font-family="Helvetica,sans-Serif" font-size="10.00">/calf/veal/src/calf/modules</text>
<text xml:space="preserve" text-anchor="middle" x="669" y="-83.5" font-family="Helvetica,sans-Serif" font-size="10.00">_delay.h</text>
</a>
</g>
</g>
<!-- Node1&#45;&gt;Node15 -->
<g id="edge21_Node000001_Node000015" class="edge">
<title>Node1&#45;&gt;Node15</title>
<g id="a_edge21_Node000001_Node000015"><a xlink:title=" ">
<path fill="none" stroke="#63b8ff" d="M765.69,-213.29C742.05,-185.5 706.76,-144.02 685.99,-119.6"/>
<polygon fill="#63b8ff" stroke="#63b8ff" points="762.79,-215.29 771.94,-220.64 768.13,-210.76 762.79,-215.29"/>
</a>
</g>
</g>
<!-- Node17 -->
<g id="Node000017" class="node">
<title>Node17</title>
<g id="a_Node000017"><a xlink:href="modules__dist_8h.html" target="_top" xlink:title=" ">
<polygon fill="white" stroke="#666666" points="1362.38,-119.5 1231.62,-119.5 1231.62,-77.75 1362.38,-77.75 1362.38,-119.5"/>
<text xml:space="preserve" text-anchor="start" x="1239.62" y="-106" font-family="Helvetica,sans-Serif" font-size="10.00">plugins/LadspaEffect</text>
<text xml:space="preserve" text-anchor="start" x="1239.62" y="-94.75" font-family="Helvetica,sans-Serif" font-size="10.00">/calf/veal/src/calf/modules</text>
<text xml:space="preserve" text-anchor="middle" x="1297" y="-83.5" font-family="Helvetica,sans-Serif" font-size="10.00">_dist.h</text>
</a>
</g>
</g>
<!-- Node1&#45;&gt;Node17 -->
<g id="edge26_Node000001_Node000017" class="edge">
<title>Node1&#45;&gt;Node17</title>
<g id="a_edge26_Node000001_Node000017"><a xlink:title=" ">
<path fill="none" stroke="#63b8ff" d="M837.39,-216.33C853.19,-207.28 870.67,-196.68 886,-186 903.49,-173.82 903.41,-163.89 923,-155.5 1046.04,-102.81 1090.55,-144.7 1222,-119.5 1225.04,-118.92 1228.14,-118.28 1231.27,-117.6"/>
<polygon fill="#63b8ff" stroke="#63b8ff" points="836.1,-213.03 829.11,-221 839.54,-219.13 836.1,-213.03"/>
</a>
</g>
</g>
<!-- Node19 -->
<g id="Node000019" class="node">
<title>Node19</title>
<g id="a_Node000019"><a xlink:href="modules__limit_8h.html" target="_top" xlink:title=" ">
<polygon fill="white" stroke="#666666" points="1213.38,-119.5 1082.62,-119.5 1082.62,-77.75 1213.38,-77.75 1213.38,-119.5"/>
<text xml:space="preserve" text-anchor="start" x="1090.62" y="-106" font-family="Helvetica,sans-Serif" font-size="10.00">plugins/LadspaEffect</text>
<text xml:space="preserve" text-anchor="start" x="1090.62" y="-94.75" font-family="Helvetica,sans-Serif" font-size="10.00">/calf/veal/src/calf/modules</text>
<text xml:space="preserve" text-anchor="middle" x="1148" y="-83.5" font-family="Helvetica,sans-Serif" font-size="10.00">_limit.h</text>
</a>
</g>
</g>
<!-- Node1&#45;&gt;Node19 -->
<g id="edge31_Node000001_Node000019" class="edge">
<title>Node1&#45;&gt;Node19</title>
<g id="a_edge31_Node000001_Node000019"><a xlink:title=" ">
<path fill="none" stroke="#63b8ff" d="M820.12,-214.47C846.53,-190.68 881.95,-159.42 890,-155.5 964.52,-119.2 992.23,-138.13 1073,-119.5 1076.02,-118.8 1079.1,-118.07 1082.21,-117.32"/>
<polygon fill="#63b8ff" stroke="#63b8ff" points="818.1,-211.58 813.03,-220.88 822.8,-216.77 818.1,-211.58"/>
</a>
</g>
</g>
<!-- Node21 -->
<g id="Node000021" class="node">
<title>Node21</title>
<g id="a_Node000021"><a xlink:href="modules__mod_8h.html" target="_top" xlink:title=" ">
<polygon fill="white" stroke="#666666" points="1064.12,-113.88 901.88,-113.88 901.88,-83.38 1064.12,-83.38 1064.12,-113.88"/>
<text xml:space="preserve" text-anchor="start" x="909.88" y="-100.38" font-family="Helvetica,sans-Serif" font-size="10.00">plugins/LadspaEffect</text>
<text xml:space="preserve" text-anchor="middle" x="983" y="-89.12" font-family="Helvetica,sans-Serif" font-size="10.00">/calf/veal/src/calf/modules_mod.h</text>
</a>
</g>
</g>
<!-- Node1&#45;&gt;Node21 -->
<g id="edge35_Node000001_Node000021" class="edge">
<title>Node1&#45;&gt;Node21</title>
<g id="a_edge35_Node000001_Node000021"><a xlink:title=" ">
<path fill="none" stroke="#63b8ff" d="M805.99,-211.72C816.93,-193.46 832.89,-170.82 852,-155.5 875.25,-136.87 905.63,-123.39 931.29,-114.35"/>
<polygon fill="#63b8ff" stroke="#63b8ff" points="803.01,-209.89 801.05,-220.3 809.08,-213.38 803.01,-209.89"/>
</a>
</g>
</g>
<!-- Node23 -->
<g id="Node000023" class="node">
<title>Node23</title>
<g id="a_Node000023"><a xlink:href="jackhost_8cpp.html" target="_top" xlink:title=" ">
<polygon fill="white" stroke="#666666" points="1062,-186 932,-186 932,-155.5 1062,-155.5 1062,-186"/>
<text xml:space="preserve" text-anchor="start" x="940" y="-172.5" font-family="Helvetica,sans-Serif" font-size="10.00">plugins/LadspaEffect</text>
<text xml:space="preserve" text-anchor="middle" x="997" y="-161.25" font-family="Helvetica,sans-Serif" font-size="10.00">/calf/veal/src/jackhost.cpp</text>
</a>
</g>
</g>
<!-- Node1&#45;&gt;Node23 -->
<g id="edge41_Node000001_Node000023" class="edge">
<title>Node1&#45;&gt;Node23</title>
<g id="a_edge41_Node000001_Node000023"><a xlink:title=" ">
<path fill="none" stroke="#63b8ff" d="M860.6,-217.96C891.5,-207.49 926.77,-195.54 953.7,-186.42"/>
<polygon fill="#63b8ff" stroke="#63b8ff" points="859.65,-214.58 851.31,-221.11 861.9,-221.21 859.65,-214.58"/>
</a>
</g>
</g>
<!-- Node3 -->
<g id="Node000003" class="node">
<title>Node3</title>
<g id="a_Node000003"><a xlink:href="analyzer_8cpp.html" target="_top" xlink:title=" ">
<polygon fill="white" stroke="#666666" points="436.25,-113.88 307.75,-113.88 307.75,-83.38 436.25,-83.38 436.25,-113.88"/>
<text xml:space="preserve" text-anchor="start" x="315.75" y="-100.38" font-family="Helvetica,sans-Serif" font-size="10.00">plugins/LadspaEffect</text>
<text xml:space="preserve" text-anchor="middle" x="372" y="-89.12" font-family="Helvetica,sans-Serif" font-size="10.00">/calf/veal/src/analyzer.cpp</text>
</a>
</g>
</g>
<!-- Node2&#45;&gt;Node3 -->
<g id="edge2_Node000002_Node000003" class="edge">
<title>Node2&#45;&gt;Node3</title>
<g id="a_edge2_Node000002_Node000003"><a xlink:title=" ">
<path fill="none" stroke="#63b8ff" d="M372,-143.77C372,-133.76 372,-122.69 372,-114.14"/>
<polygon fill="#63b8ff" stroke="#63b8ff" points="368.5,-143.71 372,-153.71 375.5,-143.71 368.5,-143.71"/>
</a>
</g>
</g>
<!-- Node2&#45;&gt;Node4 -->
<g id="edge3_Node000002_Node000004" class="edge">
<title>Node2&#45;&gt;Node4</title>
<g id="a_edge3_Node000002_Node000004"><a xlink:title=" ">
<path fill="none" stroke="#63b8ff" d="M330.66,-150.16C310.74,-140.73 286.88,-129.42 266.77,-119.89"/>
<polygon fill="#63b8ff" stroke="#63b8ff" points="329.07,-153.28 339.61,-154.4 332.07,-146.96 329.07,-153.28"/>
</a>
</g>
</g>
<!-- Node9 -->
<g id="Node000009" class="node">
<title>Node9</title>
<g id="a_Node000009"><a xlink:href="modules__pitch_8h.html" target="_top" xlink:title=" ">
<polygon fill="white" stroke="#666666" points="140.38,-119.5 9.62,-119.5 9.62,-77.75 140.38,-77.75 140.38,-119.5"/>
<text xml:space="preserve" text-anchor="start" x="17.62" y="-106" font-family="Helvetica,sans-Serif" font-size="10.00">plugins/LadspaEffect</text>
<text xml:space="preserve" text-anchor="start" x="17.62" y="-94.75" font-family="Helvetica,sans-Serif" font-size="10.00">/calf/veal/src/calf/modules</text>
<text xml:space="preserve" text-anchor="middle" x="75" y="-83.5" font-family="Helvetica,sans-Serif" font-size="10.00">_pitch.h</text>
</a>
</g>
</g>
<!-- Node2&#45;&gt;Node9 -->
<g id="edge8_Node000002_Node000009" class="edge">
<title>Node2&#45;&gt;Node9</title>
<g id="a_edge8_Node000002_Node000009"><a xlink:title=" ">
<path fill="none" stroke="#63b8ff" d="M293.2,-152.65C250.7,-143.24 197.38,-131.14 150,-119.5 146.99,-118.76 143.92,-117.99 140.82,-117.21"/>
<polygon fill="#63b8ff" stroke="#63b8ff" points="292.33,-156.04 302.85,-154.78 293.84,-149.2 292.33,-156.04"/>
</a>
</g>
</g>
<!-- Node2&#45;&gt;Node11 -->
<g id="edge11_Node000002_Node000011" class="edge">
<title>Node2&#45;&gt;Node11</title>
<g id="a_edge11_Node000002_Node000011"><a xlink:title=" ">
<path fill="none" stroke="#63b8ff" d="M413.34,-150.16C433.26,-140.73 457.12,-129.42 477.23,-119.89"/>
<polygon fill="#63b8ff" stroke="#63b8ff" points="411.93,-146.96 404.39,-154.4 414.93,-153.28 411.93,-146.96"/>
</a>
</g>
</g>
<!-- Node5 -->
<g id="Node000005" class="node">
<title>Node5</title>
<g id="a_Node000005"><a xlink:href="benchmark_8cpp.html" target="_top" xlink:title=" ">
<polygon fill="white" stroke="#666666" points="531.62,-36.12 390.38,-36.12 390.38,-5.62 531.62,-5.62 531.62,-36.12"/>
<text xml:space="preserve" text-anchor="start" x="398.38" y="-22.62" font-family="Helvetica,sans-Serif" font-size="10.00">plugins/LadspaEffect</text>
<text xml:space="preserve" text-anchor="middle" x="461" y="-11.38" font-family="Helvetica,sans-Serif" font-size="10.00">/calf/veal/src/benchmark.cpp</text>
</a>
</g>
</g>
<!-- Node4&#45;&gt;Node5 -->
<g id="edge4_Node000004_Node000005" class="edge">
<title>Node4&#45;&gt;Node5</title>
<g id="a_edge4_Node000004_Node000005"><a xlink:title=" ">
<path fill="none" stroke="#63b8ff" d="M298.09,-73.94C336.34,-61.72 381.81,-47.18 414.98,-36.58"/>
<polygon fill="#63b8ff" stroke="#63b8ff" points="297.41,-70.49 288.95,-76.86 299.54,-77.15 297.41,-70.49"/>
</a>
</g>
</g>
<!-- Node6 -->
<g id="Node000006" class="node">
<title>Node6</title>
<g id="a_Node000006"><a xlink:href="modules__filter_8cpp.html" target="_top" xlink:title=" ">
<polygon fill="white" stroke="#666666" points="242,-41.75 130,-41.75 130,0 242,0 242,-41.75"/>
<text xml:space="preserve" text-anchor="start" x="138" y="-28.25" font-family="Helvetica,sans-Serif" font-size="10.00">plugins/LadspaEffect</text>
<text xml:space="preserve" text-anchor="start" x="138" y="-17" font-family="Helvetica,sans-Serif" font-size="10.00">/calf/veal/src/modules</text>
<text xml:space="preserve" text-anchor="middle" x="186" y="-5.75" font-family="Helvetica,sans-Serif" font-size="10.00">_filter.cpp</text>
</a>
</g>
</g>
<!-- Node4&#45;&gt;Node6 -->
<g id="edge5_Node000004_Node000006" class="edge">
<title>Node4&#45;&gt;Node6</title>
<g id="a_edge5_Node000004_Node000006"><a xlink:title=" ">
<path fill="none" stroke="#63b8ff" d="M208.7,-67.12C204.5,-58.75 200.05,-49.88 196.21,-42.23"/>
<polygon fill="#63b8ff" stroke="#63b8ff" points="205.53,-68.6 213.14,-75.97 211.78,-65.46 205.53,-68.6"/>
</a>
</g>
</g>
<!-- Node7 -->
<g id="Node000007" class="node">
<title>Node7</title>
<g id="a_Node000007"><a xlink:href="plugin_8cpp.html" target="_top" xlink:title=" ">
<polygon fill="white" stroke="#666666" points="798.38,-36.12 679.62,-36.12 679.62,-5.62 798.38,-5.62 798.38,-36.12"/>
<text xml:space="preserve" text-anchor="start" x="687.62" y="-22.62" font-family="Helvetica,sans-Serif" font-size="10.00">plugins/LadspaEffect</text>
<text xml:space="preserve" text-anchor="middle" x="739" y="-11.38" font-family="Helvetica,sans-Serif" font-size="10.00">/calf/veal/src/plugin.cpp</text>
</a>
</g>
</g>
<!-- Node4&#45;&gt;Node7 -->
<g id="edge6_Node000004_Node000007" class="edge">
<title>Node4&#45;&gt;Node7</title>
<g id="a_edge6_Node000004_Node000007"><a xlink:title=" ">
<path fill="none" stroke="#63b8ff" d="M300.68,-77.63C464.49,-49.42 511.4,-72.51 671,-41.75 678.25,-40.35 685.83,-38.52 693.2,-36.53"/>
<polygon fill="#63b8ff" stroke="#63b8ff" points="300.45,-74.12 291.21,-79.3 301.66,-81.01 300.45,-74.12"/>
</a>
</g>
</g>
<!-- Node8 -->
<g id="Node000008" class="node">
<title>Node8</title>
<g id="a_Node000008"><a xlink:href="veal_8cpp.html" target="_top" xlink:title=" ">
<polygon fill="white" stroke="#666666" points="1057.62,-36.12 946.38,-36.12 946.38,-5.62 1057.62,-5.62 1057.62,-36.12"/>
<text xml:space="preserve" text-anchor="start" x="954.38" y="-22.62" font-family="Helvetica,sans-Serif" font-size="10.00">plugins/LadspaEffect</text>
<text xml:space="preserve" text-anchor="middle" x="1002" y="-11.38" font-family="Helvetica,sans-Serif" font-size="10.00">/calf/veal/src/veal.cpp</text>
</a>
</g>
</g>
<!-- Node4&#45;&gt;Node8 -->
<g id="edge7_Node000004_Node000008" class="edge">
<title>Node4&#45;&gt;Node8</title>
<g id="a_edge7_Node000004_Node000008"><a xlink:title=" ">
<path fill="none" stroke="#63b8ff" d="M301.04,-77.64C581.57,-34.67 661.09,-90.97 937,-41.75 944.2,-40.46 951.73,-38.64 959,-36.6"/>
<polygon fill="#63b8ff" stroke="#63b8ff" points="300.52,-74.17 291.18,-79.18 301.6,-81.09 300.52,-74.17"/>
</a>
</g>
</g>
<!-- Node9&#45;&gt;Node7 -->
<g id="edge10_Node000009_Node000007" class="edge">
<title>Node9&#45;&gt;Node7</title>
<g id="a_edge10_Node000009_Node000007"><a xlink:title=" ">
<path fill="none" stroke="#63b8ff" d="M151.74,-77.66C381.02,-41.16 446.08,-81.91 671,-41.75 678.39,-40.43 686.11,-38.61 693.6,-36.61"/>
<polygon fill="#63b8ff" stroke="#63b8ff" points="151.5,-74.16 142.19,-79.22 152.62,-81.06 151.5,-74.16"/>
</a>
</g>
</g>
<!-- Node10 -->
<g id="Node000010" class="node">
<title>Node10</title>
<g id="a_Node000010"><a xlink:href="modules__pitch_8cpp.html" target="_top" xlink:title=" ">
<polygon fill="white" stroke="#666666" points="112,-41.75 0,-41.75 0,0 112,0 112,-41.75"/>
<text xml:space="preserve" text-anchor="start" x="8" y="-28.25" font-family="Helvetica,sans-Serif" font-size="10.00">plugins/LadspaEffect</text>
<text xml:space="preserve" text-anchor="start" x="8" y="-17" font-family="Helvetica,sans-Serif" font-size="10.00">/calf/veal/src/modules</text>
<text xml:space="preserve" text-anchor="middle" x="56" y="-5.75" font-family="Helvetica,sans-Serif" font-size="10.00">_pitch.cpp</text>
</a>
</g>
</g>
<!-- Node9&#45;&gt;Node10 -->
<g id="edge9_Node000009_Node000010" class="edge">
<title>Node9&#45;&gt;Node10</title>
<g id="a_edge9_Node000009_Node000010"><a xlink:title=" ">
<path fill="none" stroke="#63b8ff" d="M67.14,-66.28C65.1,-58.16 62.96,-49.62 61.11,-42.23"/>
<polygon fill="#63b8ff" stroke="#63b8ff" points="63.71,-67.01 69.54,-75.86 70.5,-65.31 63.71,-67.01"/>
</a>
</g>
</g>
<!-- Node11&#45;&gt;Node5 -->
<g id="edge12_Node000011_Node000005" class="edge">
<title>Node11&#45;&gt;Node5</title>
<g id="a_edge12_Node000011_Node000005"><a xlink:title=" ">
<path fill="none" stroke="#63b8ff" d="M497.23,-68.39C488.64,-57.37 479.25,-45.31 472.18,-36.23"/>
<polygon fill="#63b8ff" stroke="#63b8ff" points="494.35,-70.39 503.26,-76.13 499.88,-66.09 494.35,-70.39"/>
</a>
</g>
</g>
<!-- Node11&#45;&gt;Node7 -->
<g id="edge14_Node000011_Node000007" class="edge">
<title>Node11&#45;&gt;Node7</title>
<g id="a_edge14_Node000011_Node000007"><a xlink:title=" ">
<path fill="none" stroke="#63b8ff" d="M589.37,-73.63C624.53,-61.47 666.09,-47.09 696.48,-36.58"/>
<polygon fill="#63b8ff" stroke="#63b8ff" points="588.42,-70.25 580.12,-76.83 590.71,-76.87 588.42,-70.25"/>
</a>
</g>
</g>
<!-- Node11&#45;&gt;Node8 -->
<g id="edge15_Node000011_Node000008" class="edge">
<title>Node11&#45;&gt;Node8</title>
<g id="a_edge15_Node000011_Node000008"><a xlink:title=" ">
<path fill="none" stroke="#63b8ff" d="M596.75,-77.61C747.34,-51.1 790.74,-71.52 937,-41.75 943.82,-40.36 950.95,-38.56 957.89,-36.6"/>
<polygon fill="#63b8ff" stroke="#63b8ff" points="596.43,-74.11 587.21,-79.33 597.67,-81 596.43,-74.11"/>
</a>
</g>
</g>
<!-- Node12 -->
<g id="Node000012" class="node">
<title>Node12</title>
<g id="a_Node000012"><a xlink:href="modules__tools_8cpp.html" target="_top" xlink:title=" ">
<polygon fill="white" stroke="#666666" points="372,-41.75 260,-41.75 260,0 372,0 372,-41.75"/>
<text xml:space="preserve" text-anchor="start" x="268" y="-28.25" font-family="Helvetica,sans-Serif" font-size="10.00">plugins/LadspaEffect</text>
<text xml:space="preserve" text-anchor="start" x="268" y="-17" font-family="Helvetica,sans-Serif" font-size="10.00">/calf/veal/src/modules</text>
<text xml:space="preserve" text-anchor="middle" x="316" y="-5.75" font-family="Helvetica,sans-Serif" font-size="10.00">_tools.cpp</text>
</a>
</g>
</g>
<!-- Node11&#45;&gt;Node12 -->
<g id="edge13_Node000011_Node000012" class="edge">
<title>Node11&#45;&gt;Node12</title>
<g id="a_edge13_Node000011_Node000012"><a xlink:title=" ">
<path fill="none" stroke="#63b8ff" d="M454.79,-73.41C427.73,-63.36 396.68,-51.83 370.82,-42.23"/>
<polygon fill="#63b8ff" stroke="#63b8ff" points="453.32,-76.6 463.91,-76.8 455.76,-70.04 453.32,-76.6"/>
</a>
</g>
</g>
<!-- Node13&#45;&gt;Node5 -->
<g id="edge17_Node000013_Node000005" class="edge">
<title>Node13&#45;&gt;Node5</title>
<g id="a_edge17_Node000013_Node000005"><a xlink:title=" ">
<path fill="none" stroke="#63b8ff" d="M741.04,-77.42C652,-58.23 626.71,-60.01 541,-41.75 533.58,-40.17 525.81,-38.39 518.14,-36.57"/>
<polygon fill="#63b8ff" stroke="#63b8ff" points="740.23,-80.82 750.75,-79.54 741.73,-73.99 740.23,-80.82"/>
</a>
</g>
</g>
<!-- Node13&#45;&gt;Node7 -->
<g id="edge19_Node000013_Node000007" class="edge">
<title>Node13&#45;&gt;Node7</title>
<g id="a_edge19_Node000013_Node000007"><a xlink:title=" ">
<path fill="none" stroke="#63b8ff" d="M788.55,-69.38C776.77,-58.09 763.72,-45.58 753.97,-36.23"/>
<polygon fill="#63b8ff" stroke="#63b8ff" points="786.1,-71.88 795.74,-76.28 790.94,-66.83 786.1,-71.88"/>
</a>
</g>
</g>
<!-- Node13&#45;&gt;Node8 -->
<g id="edge20_Node000013_Node000008" class="edge">
<title>Node13&#45;&gt;Node8</title>
<g id="a_edge20_Node000013_Node000008"><a xlink:title=" ">
<path fill="none" stroke="#63b8ff" d="M877.82,-73C907.02,-60.97 941.18,-46.91 966.27,-36.58"/>
<polygon fill="#63b8ff" stroke="#63b8ff" points="876.62,-69.71 868.71,-76.75 879.29,-76.18 876.62,-69.71"/>
</a>
</g>
</g>
<!-- Node14 -->
<g id="Node000014" class="node">
<title>Node14</title>
<g id="a_Node000014"><a xlink:href="modules__comp_8cpp.html" target="_top" xlink:title=" ">
<polygon fill="white" stroke="#666666" points="928,-41.75 816,-41.75 816,0 928,0 928,-41.75"/>
<text xml:space="preserve" text-anchor="start" x="824" y="-28.25" font-family="Helvetica,sans-Serif" font-size="10.00">plugins/LadspaEffect</text>
<text xml:space="preserve" text-anchor="start" x="824" y="-17" font-family="Helvetica,sans-Serif" font-size="10.00">/calf/veal/src/modules</text>
<text xml:space="preserve" text-anchor="middle" x="872" y="-5.75" font-family="Helvetica,sans-Serif" font-size="10.00">_comp.cpp</text>
</a>
</g>
</g>
<!-- Node13&#45;&gt;Node14 -->
<g id="edge18_Node000013_Node000014" class="edge">
<title>Node13&#45;&gt;Node14</title>
<g id="a_edge18_Node000013_Node000014"><a xlink:title=" ">
<path fill="none" stroke="#63b8ff" d="M839.15,-67.95C845.29,-59.34 851.86,-50.13 857.49,-42.23"/>
<polygon fill="#63b8ff" stroke="#63b8ff" points="836.3,-65.92 833.35,-76.09 842,-69.98 836.3,-65.92"/>
</a>
</g>
</g>
<!-- Node15&#45;&gt;Node5 -->
<g id="edge22_Node000015_Node000005" class="edge">
<title>Node15&#45;&gt;Node5</title>
<g id="a_edge22_Node000015_Node000005"><a xlink:title=" ">
<path fill="none" stroke="#63b8ff" d="M602.68,-73.47C569.38,-61.35 530.12,-47.05 501.39,-36.58"/>
<polygon fill="#63b8ff" stroke="#63b8ff" points="601.24,-76.67 611.84,-76.81 603.64,-70.1 601.24,-76.67"/>
</a>
</g>
</g>
<!-- Node15&#45;&gt;Node7 -->
<g id="edge24_Node000015_Node000007" class="edge">
<title>Node15&#45;&gt;Node7</title>
<g id="a_edge24_Node000015_Node000007"><a xlink:title=" ">
<path fill="none" stroke="#63b8ff" d="M695.4,-69.05C705.76,-57.85 717.18,-45.49 725.74,-36.23"/>
<polygon fill="#63b8ff" stroke="#63b8ff" points="693,-66.49 688.79,-76.21 698.14,-71.24 693,-66.49"/>
</a>
</g>
</g>
<!-- Node15&#45;&gt;Node8 -->
<g id="edge25_Node000015_Node000008" class="edge">
<title>Node15&#45;&gt;Node8</title>
<g id="a_edge25_Node000015_Node000008"><a xlink:title=" ">
<path fill="none" stroke="#63b8ff" d="M745.78,-77.45C831.07,-58.84 855.65,-61.71 937,-41.75 943.3,-40.2 949.9,-38.4 956.37,-36.53"/>
<polygon fill="#63b8ff" stroke="#63b8ff" points="745.26,-73.98 736.26,-79.57 746.78,-80.81 745.26,-73.98"/>
</a>
</g>
</g>
<!-- Node16 -->
<g id="Node000016" class="node">
<title>Node16</title>
<g id="a_Node000016"><a xlink:href="modules__delay_8cpp.html" target="_top" xlink:title=" ">
<polygon fill="white" stroke="#666666" points="662,-41.75 550,-41.75 550,0 662,0 662,-41.75"/>
<text xml:space="preserve" text-anchor="start" x="558" y="-28.25" font-family="Helvetica,sans-Serif" font-size="10.00">plugins/LadspaEffect</text>
<text xml:space="preserve" text-anchor="start" x="558" y="-17" font-family="Helvetica,sans-Serif" font-size="10.00">/calf/veal/src/modules</text>
<text xml:space="preserve" text-anchor="middle" x="606" y="-5.75" font-family="Helvetica,sans-Serif" font-size="10.00">_delay.cpp</text>
</a>
</g>
</g>
<!-- Node15&#45;&gt;Node16 -->
<g id="edge23_Node000015_Node000016" class="edge">
<title>Node15&#45;&gt;Node16</title>
<g id="a_edge23_Node000015_Node000016"><a xlink:title=" ">
<path fill="none" stroke="#63b8ff" d="M644.79,-68.51C637.49,-59.74 629.64,-50.3 622.93,-42.23"/>
<polygon fill="#63b8ff" stroke="#63b8ff" points="642.06,-70.71 651.15,-76.16 647.45,-66.24 642.06,-70.71"/>
</a>
</g>
</g>
<!-- Node17&#45;&gt;Node7 -->
<g id="edge28_Node000017_Node000007" class="edge">
<title>Node17&#45;&gt;Node7</title>
<g id="a_edge28_Node000017_Node000007"><a xlink:title=" ">
<path fill="none" stroke="#63b8ff" d="M1219.95,-77.58C1037.54,-47.09 985.32,-75.2 807,-41.75 799.75,-40.39 792.16,-38.57 784.79,-36.59"/>
<polygon fill="#63b8ff" stroke="#63b8ff" points="1219.35,-81.03 1229.8,-79.27 1220.53,-74.13 1219.35,-81.03"/>
</a>
</g>
</g>
<!-- Node17&#45;&gt;Node8 -->
<g id="edge29_Node000017_Node000008" class="edge">
<title>Node17&#45;&gt;Node8</title>
<g id="a_edge29_Node000017_Node000008"><a xlink:title=" ">
<path fill="none" stroke="#63b8ff" d="M1220.2,-77.35C1151.48,-60.59 1131.97,-59.2 1067,-41.75 1061.07,-40.16 1054.87,-38.39 1048.75,-36.59"/>
<polygon fill="#63b8ff" stroke="#63b8ff" points="1219.16,-80.7 1229.71,-79.7 1220.84,-73.91 1219.16,-80.7"/>
</a>
</g>
</g>
<!-- Node18 -->
<g id="Node000018" class="node">
<title>Node18</title>
<g id="a_Node000018"><a xlink:href="modules__dist_8cpp.html" target="_top" xlink:title=" ">
<polygon fill="white" stroke="#666666" points="1448,-41.75 1336,-41.75 1336,0 1448,0 1448,-41.75"/>
<text xml:space="preserve" text-anchor="start" x="1344" y="-28.25" font-family="Helvetica,sans-Serif" font-size="10.00">plugins/LadspaEffect</text>
<text xml:space="preserve" text-anchor="start" x="1344" y="-17" font-family="Helvetica,sans-Serif" font-size="10.00">/calf/veal/src/modules</text>
<text xml:space="preserve" text-anchor="middle" x="1392" y="-5.75" font-family="Helvetica,sans-Serif" font-size="10.00">_dist.cpp</text>
</a>
</g>
</g>
<!-- Node17&#45;&gt;Node18 -->
<g id="edge27_Node000017_Node000018" class="edge">
<title>Node17&#45;&gt;Node18</title>
<g id="a_edge27_Node000017_Node000018"><a xlink:title=" ">
<path fill="none" stroke="#63b8ff" d="M1331.44,-70.16C1343.01,-60.94 1355.71,-50.81 1366.47,-42.23"/>
<polygon fill="#63b8ff" stroke="#63b8ff" points="1329.28,-67.41 1323.64,-76.38 1333.64,-72.88 1329.28,-67.41"/>
</a>
</g>
</g>
<!-- Node19&#45;&gt;Node7 -->
<g id="edge33_Node000019_Node000007" class="edge">
<title>Node19&#45;&gt;Node7</title>
<g id="a_edge33_Node000019_Node000007"><a xlink:title=" ">
<path fill="none" stroke="#63b8ff" d="M1071.04,-77.51C953.97,-55.13 920.16,-65.8 807,-41.75 800.14,-40.29 792.97,-38.5 785.96,-36.59"/>
<polygon fill="#63b8ff" stroke="#63b8ff" points="1070.29,-80.93 1080.77,-79.42 1071.63,-74.06 1070.29,-80.93"/>
</a>
</g>
</g>
<!-- Node19&#45;&gt;Node8 -->
<g id="edge34_Node000019_Node000008" class="edge">
<title>Node19&#45;&gt;Node8</title>
<g id="a_edge34_Node000019_Node000008"><a xlink:title=" ">
<path fill="none" stroke="#63b8ff" d="M1098.66,-72.03C1075.82,-60.18 1049.52,-46.53 1030.12,-36.46"/>
<polygon fill="#63b8ff" stroke="#63b8ff" points="1097.04,-75.13 1107.53,-76.63 1100.27,-68.92 1097.04,-75.13"/>
</a>
</g>
</g>
<!-- Node20 -->
<g id="Node000020" class="node">
<title>Node20</title>
<g id="a_Node000020"><a xlink:href="modules__limit_8cpp.html" target="_top" xlink:title=" ">
<polygon fill="white" stroke="#666666" points="1318,-41.75 1206,-41.75 1206,0 1318,0 1318,-41.75"/>
<text xml:space="preserve" text-anchor="start" x="1214" y="-28.25" font-family="Helvetica,sans-Serif" font-size="10.00">plugins/LadspaEffect</text>
<text xml:space="preserve" text-anchor="start" x="1214" y="-17" font-family="Helvetica,sans-Serif" font-size="10.00">/calf/veal/src/modules</text>
<text xml:space="preserve" text-anchor="middle" x="1262" y="-5.75" font-family="Helvetica,sans-Serif" font-size="10.00">_limit.cpp</text>
</a>
</g>
</g>
<!-- Node19&#45;&gt;Node20 -->
<g id="edge32_Node000019_Node000020" class="edge">
<title>Node19&#45;&gt;Node20</title>
<g id="a_edge32_Node000019_Node000020"><a xlink:title=" ">
<path fill="none" stroke="#63b8ff" d="M1188.1,-70.98C1202.31,-61.54 1218.07,-51.07 1231.37,-42.23"/>
<polygon fill="#63b8ff" stroke="#63b8ff" points="1186.2,-68.04 1179.81,-76.49 1190.08,-73.87 1186.2,-68.04"/>
</a>
</g>
</g>
<!-- Node21&#45;&gt;Node5 -->
<g id="edge36_Node000021_Node000005" class="edge">
<title>Node21&#45;&gt;Node5</title>
<g id="a_edge36_Node000021_Node000005"><a xlink:title=" ">
<path fill="none" stroke="#63b8ff" d="M909,-80.74C903.26,-79.65 897.55,-78.64 892,-77.75 737.15,-52.98 695.48,-68.72 541,-41.75 532.82,-40.32 524.25,-38.52 515.87,-36.59"/>
<polygon fill="#63b8ff" stroke="#63b8ff" points="908.05,-84.12 918.54,-82.61 909.4,-77.25 908.05,-84.12"/>
</a>
</g>
</g>
<!-- Node21&#45;&gt;Node7 -->
<g id="edge38_Node000021_Node000007" class="edge">
<title>Node21&#45;&gt;Node7</title>
<g id="a_edge38_Node000021_Node000007"><a xlink:title=" ">
<path fill="none" stroke="#63b8ff" d="M924.67,-79.52C882.32,-66.37 825.73,-48.8 786.2,-36.53"/>
<polygon fill="#63b8ff" stroke="#63b8ff" points="923.63,-82.86 934.22,-82.48 925.71,-76.17 923.63,-82.86"/>
</a>
</g>
</g>
<!-- Node21&#45;&gt;Node8 -->
<g id="edge39_Node000021_Node000008" class="edge">
<title>Node21&#45;&gt;Node8</title>
<g id="a_edge39_Node000021_Node000008"><a xlink:title=" ">
<path fill="none" stroke="#63b8ff" d="M989.44,-71.97C992.41,-60.12 995.83,-46.49 998.35,-36.44"/>
<polygon fill="#63b8ff" stroke="#63b8ff" points="986.07,-71 987.03,-81.55 992.86,-72.7 986.07,-71"/>
</a>
</g>
</g>
<!-- Node22 -->
<g id="Node000022" class="node">
<title>Node22</title>
<g id="a_Node000022"><a xlink:href="modules__mod_8cpp.html" target="_top" xlink:title=" ">
<polygon fill="white" stroke="#666666" points="1188,-41.75 1076,-41.75 1076,0 1188,0 1188,-41.75"/>
<text xml:space="preserve" text-anchor="start" x="1084" y="-28.25" font-family="Helvetica,sans-Serif" font-size="10.00">plugins/LadspaEffect</text>
<text xml:space="preserve" text-anchor="start" x="1084" y="-17" font-family="Helvetica,sans-Serif" font-size="10.00">/calf/veal/src/modules</text>
<text xml:space="preserve" text-anchor="middle" x="1132" y="-5.75" font-family="Helvetica,sans-Serif" font-size="10.00">_mod.cpp</text>
</a>
</g>
</g>
<!-- Node21&#45;&gt;Node22 -->
<g id="edge37_Node000021_Node000022" class="edge">
<title>Node21&#45;&gt;Node22</title>
<g id="a_edge37_Node000021_Node000022"><a xlink:title=" ">
<path fill="none" stroke="#63b8ff" d="M1021.87,-77.86C1043.48,-66.88 1070.32,-53.23 1092.1,-42.16"/>
<polygon fill="#63b8ff" stroke="#63b8ff" points="1020.41,-74.68 1013.08,-82.33 1023.58,-80.92 1020.41,-74.68"/>
</a>
</g>
</g>
</g>
</svg>
