<?xml version="1.0" encoding="UTF-8" standalone="no"?>
<!DOCTYPE svg PUBLIC "-//W3C//DTD SVG 1.1//EN"
 "http://www.w3.org/Graphics/SVG/1.1/DTD/svg11.dtd">
<!-- Generated by graphviz version 14.0.2 (0)
 -->
<!-- Title: include/RemotePluginClient.h Pages: 1 -->
<!--zoomable 304 -->

<svg id="main" version="1.1" xmlns="http://www.w3.org/2000/svg" xmlns:xlink="http://www.w3.org/1999/xlink" xml:space="preserve" onload="init(evt)">

<style type="text/css"><![CDATA[
.node, .edge {opacity: 0.7;}
.node.selected, .edge.selected {opacity: 1;}
.edge:hover path { stroke: red; }
.edge:hover polygon { stroke: red; fill: red; }
]]></style>

<defs>
  <circle id="rim" cx="0" cy="0" r="7"/>
  <circle id="rim2" cx="0" cy="0" r="3.5"/>
  <g id="zoomPlus">
    <use xlink:href="#rim" fill="#404040"><set attributeName="fill" to="#808080" begin="zoomplus.mouseover" end="zoomplus.mouseout"/></use>
    <path d="M-4,0h8M0,-4v8" fill="none" stroke="white" stroke-width="1.5" pointer-events="none"/>
  </g>
  <g id="zoomMin">
    <use xlink:href="#rim" fill="#404040"><set attributeName="fill" to="#808080" begin="zoomminus.mouseover" end="zoomminus.mouseout"/></use>
    <path d="M-4,0h8" fill="none" stroke="white" stroke-width="1.5" pointer-events="none"/>
  </g>
  <g id="arrowUp" transform="translate(30 24)">
    <use xlink:href="#rim"/>
    <path pointer-events="none" fill="none" stroke="white" stroke-width="1.5" d="M0,-3.0v7 M-2.5,-0.5L0,-3.0L2.5,-0.5"/>
  </g>
  <g id="arrowRight" transform="rotate(90) translate(36 -43)">
    <use xlink:href="#rim"/>
    <path pointer-events="none" fill="none" stroke="white" stroke-width="1.5" d="M0,-3.0v7 M-2.5,-0.5L0,-3.0L2.5,-0.5"/>
  </g>
  <g id="arrowDown" transform="rotate(180) translate(-30 -48)">
    <use xlink:href="#rim"/>
    <path pointer-events="none" fill="none" stroke="white" stroke-width="1.5" d="M0,-3.0v7 M-2.5,-0.5L0,-3.0L2.5,-0.5"/>
  </g>
  <g id="arrowLeft" transform="rotate(270) translate(-36 17)">
    <use xlink:href="#rim"/>
    <path pointer-events="none" fill="none" stroke="white" stroke-width="1.5" d="M0,-3.0v7 M-2.5,-0.5L0,-3.0L2.5,-0.5"/>
  </g>
  <g id="resetDef">
    <use xlink:href="#rim2" fill="#404040"><set attributeName="fill" to="#808080" begin="reset.mouseover" end="reset.mouseout"/></use>
  </g>
</defs>
<script type="application/ecmascript">
var viewWidth = 1220;
var viewHeight = 304;
var sectionId = 'dynsection-0';
</script>
<script type="application/ecmascript" xlink:href="svg.min.js"/>
<svg id="graph" class="graph">
<g id="viewport">
<title>include/RemotePluginClient.h</title>
<!-- Node1 -->
<g id="Node000001" class="node">
<title>Node1</title>
<g id="a_Node000001"><a xlink:title=" ">
<polygon fill="#999999" stroke="#666666" points="882.5,-295.5 739.75,-295.5 739.75,-276.25 882.5,-276.25 882.5,-295.5"/>
<text xml:space="preserve" text-anchor="middle" x="811.12" y="-282" font-family="Helvetica,sans-Serif" font-size="10.00">include/RemotePluginClient.h</text>
</a>
</g>
</g>
<!-- Node2 -->
<g id="Node000002" class="node">
<title>Node2</title>
<g id="a_Node000002"><a xlink:href="RemotePluginBase_8h.html" target="_top" xlink:title=" ">
<polygon fill="white" stroke="#666666" points="632.5,-240.25 525.75,-240.25 525.75,-221 632.5,-221 632.5,-240.25"/>
<text xml:space="preserve" text-anchor="middle" x="579.12" y="-226.75" font-family="Helvetica,sans-Serif" font-size="10.00">RemotePluginBase.h</text>
</a>
</g>
</g>
<!-- Node1&#45;&gt;Node2 -->
<g id="edge1_Node000001_Node000002" class="edge">
<title>Node1&#45;&gt;Node2</title>
<g id="a_edge1_Node000001_Node000002"><a xlink:title=" ">
<path fill="none" stroke="#63b8ff" d="M771.51,-275.78C732.3,-266.78 672.14,-252.98 629.55,-243.2"/>
<polygon fill="#63b8ff" stroke="#63b8ff" points="630.58,-239.85 620.06,-241.02 629.02,-246.67 630.58,-239.85"/>
</a>
</g>
</g>
<!-- Node12 -->
<g id="Node000012" class="node">
<title>Node12</title>
<g id="a_Node000012"><a xlink:href="SharedMemory_8h.html" target="_top" xlink:title=" ">
<polygon fill="white" stroke="#666666" points="1024.5,-185 935.75,-185 935.75,-165.75 1024.5,-165.75 1024.5,-185"/>
<text xml:space="preserve" text-anchor="middle" x="980.12" y="-171.5" font-family="Helvetica,sans-Serif" font-size="10.00">SharedMemory.h</text>
</a>
</g>
</g>
<!-- Node1&#45;&gt;Node12 -->
<g id="edge37_Node000001_Node000012" class="edge">
<title>Node1&#45;&gt;Node12</title>
<g id="a_edge37_Node000001_Node000012"><a xlink:title=" ">
<path fill="none" stroke="#63b8ff" d="M748.21,-275.76C703.09,-266.62 654.3,-249.69 679.12,-221 713.57,-181.19 855.32,-192.05 924.14,-185.12"/>
<polygon fill="#63b8ff" stroke="#63b8ff" points="924.32,-188.62 933.81,-183.91 923.46,-181.68 924.32,-188.62"/>
</a>
</g>
</g>
<!-- Node16 -->
<g id="Node000016" class="node">
<title>Node16</title>
<g id="a_Node000016"><a xlink:title=" ">
<polygon fill="#e0e0e0" stroke="#999999" points="746.12,-240.25 688.12,-240.25 688.12,-221 746.12,-221 746.12,-240.25"/>
<text xml:space="preserve" text-anchor="middle" x="717.12" y="-226.75" font-family="Helvetica,sans-Serif" font-size="10.00">stdexcept</text>
</a>
</g>
</g>
<!-- Node1&#45;&gt;Node16 -->
<g id="edge18_Node000001_Node000016" class="edge">
<title>Node1&#45;&gt;Node16</title>
<g id="a_edge18_Node000001_Node000016"><a xlink:title=" ">
<path fill="none" stroke="#63b8ff" d="M795.18,-275.84C780.86,-267.73 759.59,-255.68 742.87,-246.21"/>
<polygon fill="#63b8ff" stroke="#63b8ff" points="744.89,-243.33 734.47,-241.45 741.44,-249.42 744.89,-243.33"/>
</a>
</g>
</g>
<!-- Node17 -->
<g id="Node000017" class="node">
<title>Node17</title>
<g id="a_Node000017"><a xlink:title=" ">
<polygon fill="#e0e0e0" stroke="#999999" points="858.12,-240.25 764.12,-240.25 764.12,-221 858.12,-221 858.12,-240.25"/>
<text xml:space="preserve" text-anchor="middle" x="811.12" y="-226.75" font-family="Helvetica,sans-Serif" font-size="10.00">condition_variable</text>
</a>
</g>
</g>
<!-- Node1&#45;&gt;Node17 -->
<g id="edge19_Node000001_Node000017" class="edge">
<title>Node1&#45;&gt;Node17</title>
<g id="a_edge19_Node000001_Node000017"><a xlink:title=" ">
<path fill="none" stroke="#63b8ff" d="M811.12,-276.08C811.12,-269.57 811.12,-260.42 811.12,-252.12"/>
<polygon fill="#63b8ff" stroke="#63b8ff" points="814.63,-252.12 811.13,-242.12 807.63,-252.12 814.63,-252.12"/>
</a>
</g>
</g>
<!-- Node18 -->
<g id="Node000018" class="node">
<title>Node18</title>
<g id="a_Node000018"><a xlink:title=" ">
<polygon fill="#e0e0e0" stroke="#999999" points="918.25,-240.25 876,-240.25 876,-221 918.25,-221 918.25,-240.25"/>
<text xml:space="preserve" text-anchor="middle" x="897.12" y="-226.75" font-family="Helvetica,sans-Serif" font-size="10.00">mutex</text>
</a>
</g>
</g>
<!-- Node1&#45;&gt;Node18 -->
<g id="edge20_Node000001_Node000018" class="edge">
<title>Node1&#45;&gt;Node18</title>
<g id="a_edge20_Node000001_Node000018"><a xlink:title=" ">
<path fill="none" stroke="#63b8ff" d="M825.71,-275.84C838.56,-267.89 857.54,-256.14 872.7,-246.75"/>
<polygon fill="#63b8ff" stroke="#63b8ff" points="874.52,-249.74 881.18,-241.5 870.83,-243.79 874.52,-249.74"/>
</a>
</g>
</g>
<!-- Node19 -->
<g id="Node000019" class="node">
<title>Node19</title>
<g id="a_Node000019"><a xlink:title=" ">
<polygon fill="#e0e0e0" stroke="#999999" points="979.62,-240.25 936.62,-240.25 936.62,-221 979.62,-221 979.62,-240.25"/>
<text xml:space="preserve" text-anchor="middle" x="958.12" y="-226.75" font-family="Helvetica,sans-Serif" font-size="10.00">thread</text>
</a>
</g>
</g>
<!-- Node1&#45;&gt;Node19 -->
<g id="edge21_Node000001_Node000019" class="edge">
<title>Node1&#45;&gt;Node19</title>
<g id="a_edge21_Node000001_Node000019"><a xlink:title=" ">
<path fill="none" stroke="#63b8ff" d="M836.06,-275.84C860.83,-266.87 898.91,-253.08 925.94,-243.28"/>
<polygon fill="#63b8ff" stroke="#63b8ff" points="926.79,-246.7 935,-240 924.41,-240.12 926.79,-246.7"/>
</a>
</g>
</g>
<!-- Node20 -->
<g id="Node000020" class="node">
<title>Node20</title>
<g id="a_Node000020"><a xlink:title=" ">
<polygon fill="#e0e0e0" stroke="#999999" points="1046.62,-240.25 997.62,-240.25 997.62,-221 1046.62,-221 1046.62,-240.25"/>
<text xml:space="preserve" text-anchor="middle" x="1022.12" y="-226.75" font-family="Helvetica,sans-Serif" font-size="10.00">signal.h</text>
</a>
</g>
</g>
<!-- Node1&#45;&gt;Node20 -->
<g id="edge22_Node000001_Node000020" class="edge">
<title>Node1&#45;&gt;Node20</title>
<g id="a_edge22_Node000001_Node000020"><a xlink:title=" ">
<path fill="none" stroke="#63b8ff" d="M847.97,-275.75C881.66,-267.38 933.18,-254.53 986.27,-240.96"/>
<polygon fill="#63b8ff" stroke="#63b8ff" points="986.98,-244.4 995.8,-238.53 985.24,-237.61 986.98,-244.4"/>
</a>
</g>
</g>
<!-- Node21 -->
<g id="Node000021" class="node">
<title>Node21</title>
<g id="a_Node000021"><a xlink:title=" ">
<polygon fill="#e0e0e0" stroke="#999999" points="1114,-240.25 1064.25,-240.25 1064.25,-221 1114,-221 1114,-240.25"/>
<text xml:space="preserve" text-anchor="middle" x="1089.12" y="-226.75" font-family="Helvetica,sans-Serif" font-size="10.00">unistd.h</text>
</a>
</g>
</g>
<!-- Node1&#45;&gt;Node21 -->
<g id="edge23_Node000001_Node000021" class="edge">
<title>Node1&#45;&gt;Node21</title>
<g id="a_edge23_Node000001_Node000021"><a xlink:title=" ">
<path fill="none" stroke="#63b8ff" d="M867.81,-275.8C915.09,-267.95 984.48,-255.77 1052.97,-240.84"/>
<polygon fill="#63b8ff" stroke="#63b8ff" points="1053.46,-244.31 1062.47,-238.74 1051.95,-237.48 1053.46,-244.31"/>
</a>
</g>
</g>
<!-- Node22 -->
<g id="Node000022" class="node">
<title>Node22</title>
<g id="a_Node000022"><a xlink:href="LmmsTypes_8h.html" target="_top" xlink:title=" ">
<polygon fill="white" stroke="#666666" points="94.88,-74.5 17.38,-74.5 17.38,-55.25 94.88,-55.25 94.88,-74.5"/>
<text xml:space="preserve" text-anchor="middle" x="56.12" y="-61" font-family="Helvetica,sans-Serif" font-size="10.00">LmmsTypes.h</text>
</a>
</g>
</g>
<!-- Node1&#45;&gt;Node22 -->
<g id="edge24_Node000001_Node000022" class="edge">
<title>Node1&#45;&gt;Node22</title>
<g id="a_edge24_Node000001_Node000022"><a xlink:title=" ">
<path fill="none" stroke="#63b8ff" d="M739.52,-285.45C589.31,-285.8 246.25,-281.84 138.12,-240.25 70.76,-214.34 44.74,-197.23 19.12,-129.75 12.7,-112.81 24.65,-95.1 36.65,-82.64"/>
<polygon fill="#63b8ff" stroke="#63b8ff" points="38.82,-85.4 43.64,-75.97 33.99,-80.34 38.82,-85.4"/>
</a>
</g>
</g>
<!-- Node25 -->
<g id="Node000025" class="node">
<title>Node25</title>
<g id="a_Node000025"><a xlink:href="MidiEvent_8h.html" target="_top" xlink:title=" ">
<polygon fill="white" stroke="#666666" points="213.25,-240.25 147,-240.25 147,-221 213.25,-221 213.25,-240.25"/>
<text xml:space="preserve" text-anchor="middle" x="180.12" y="-226.75" font-family="Helvetica,sans-Serif" font-size="10.00">MidiEvent.h</text>
</a>
</g>
</g>
<!-- Node1&#45;&gt;Node25 -->
<g id="edge27_Node000001_Node000025" class="edge">
<title>Node1&#45;&gt;Node25</title>
<g id="a_edge27_Node000001_Node000025"><a xlink:title=" ">
<path fill="none" stroke="#63b8ff" d="M739.36,-278.82C608.12,-267.74 333.04,-244.53 225.03,-235.41"/>
<polygon fill="#63b8ff" stroke="#63b8ff" points="225.37,-231.93 215.11,-234.58 224.78,-238.91 225.37,-231.93"/>
</a>
</g>
</g>
<!-- Node30 -->
<g id="Node000030" class="node">
<title>Node30</title>
<g id="a_Node000030"><a xlink:href="VstSyncData_8h.html" target="_top" xlink:title=" ">
<polygon fill="white" stroke="#666666" points="1212.38,-240.25 1131.88,-240.25 1131.88,-221 1212.38,-221 1212.38,-240.25"/>
<text xml:space="preserve" text-anchor="middle" x="1172.12" y="-226.75" font-family="Helvetica,sans-Serif" font-size="10.00">VstSyncData.h</text>
</a>
</g>
</g>
<!-- Node1&#45;&gt;Node30 -->
<g id="edge38_Node000001_Node000030" class="edge">
<title>Node1&#45;&gt;Node30</title>
<g id="a_edge38_Node000001_Node000030"><a xlink:title=" ">
<path fill="none" stroke="#63b8ff" d="M879.39,-275.76C940.07,-267.5 1031.49,-254.71 1120.14,-240.69"/>
<polygon fill="#63b8ff" stroke="#63b8ff" points="1120.68,-244.14 1130.01,-239.12 1119.58,-237.23 1120.68,-244.14"/>
</a>
</g>
</g>
<!-- Node3 -->
<g id="Node000003" class="node">
<title>Node3</title>
<g id="a_Node000003"><a xlink:title=" ">
<polygon fill="#e0e0e0" stroke="#999999" points="570.75,-185 525.5,-185 525.5,-165.75 570.75,-165.75 570.75,-185"/>
<text xml:space="preserve" text-anchor="middle" x="548.12" y="-171.5" font-family="Helvetica,sans-Serif" font-size="10.00">atomic</text>
</a>
</g>
</g>
<!-- Node2&#45;&gt;Node3 -->
<g id="edge2_Node000002_Node000003" class="edge">
<title>Node2&#45;&gt;Node3</title>
<g id="a_edge2_Node000002_Node000003"><a xlink:title=" ">
<path fill="none" stroke="#63b8ff" d="M574.01,-220.83C569.95,-213.86 564.13,-203.87 559.04,-195.12"/>
<polygon fill="#63b8ff" stroke="#63b8ff" points="562.17,-193.55 554.12,-186.67 556.12,-197.07 562.17,-193.55"/>
</a>
</g>
</g>
<!-- Node4 -->
<g id="Node000004" class="node">
<title>Node4</title>
<g id="a_Node000004"><a xlink:title=" ">
<polygon fill="#e0e0e0" stroke="#999999" points="631.62,-185 588.62,-185 588.62,-165.75 631.62,-165.75 631.62,-185"/>
<text xml:space="preserve" text-anchor="middle" x="610.12" y="-171.5" font-family="Helvetica,sans-Serif" font-size="10.00">vector</text>
</a>
</g>
</g>
<!-- Node2&#45;&gt;Node4 -->
<g id="edge3_Node000002_Node000004" class="edge">
<title>Node2&#45;&gt;Node4</title>
<g id="a_edge3_Node000002_Node000004"><a xlink:title=" ">
<path fill="none" stroke="#63b8ff" d="M584.24,-220.83C588.3,-213.86 594.12,-203.87 599.21,-195.12"/>
<polygon fill="#63b8ff" stroke="#63b8ff" points="602.13,-197.07 604.13,-186.67 596.08,-193.55 602.13,-197.07"/>
</a>
</g>
</g>
<!-- Node5 -->
<g id="Node000005" class="node">
<title>Node5</title>
<g id="a_Node000005"><a xlink:title=" ">
<polygon fill="#e0e0e0" stroke="#999999" points="692.25,-185 650,-185 650,-165.75 692.25,-165.75 692.25,-185"/>
<text xml:space="preserve" text-anchor="middle" x="671.12" y="-171.5" font-family="Helvetica,sans-Serif" font-size="10.00">cstdio</text>
</a>
</g>
</g>
<!-- Node2&#45;&gt;Node5 -->
<g id="edge4_Node000002_Node000005" class="edge">
<title>Node2&#45;&gt;Node5</title>
<g id="a_edge4_Node000002_Node000005"><a xlink:title=" ">
<path fill="none" stroke="#63b8ff" d="M594.73,-220.59C608.74,-212.48 629.56,-200.43 645.93,-190.96"/>
<polygon fill="#63b8ff" stroke="#63b8ff" points="647.23,-194.25 654.13,-186.21 643.72,-188.19 647.23,-194.25"/>
</a>
</g>
</g>
<!-- Node6 -->
<g id="Node000006" class="node">
<title>Node6</title>
<g id="a_Node000006"><a xlink:title=" ">
<polygon fill="#e0e0e0" stroke="#999999" points="252.38,-185 207.88,-185 207.88,-165.75 252.38,-165.75 252.38,-185"/>
<text xml:space="preserve" text-anchor="middle" x="230.12" y="-171.5" font-family="Helvetica,sans-Serif" font-size="10.00">cstdlib</text>
</a>
</g>
</g>
<!-- Node2&#45;&gt;Node6 -->
<g id="edge5_Node000002_Node000006" class="edge">
<title>Node2&#45;&gt;Node6</title>
<g id="a_edge5_Node000002_Node000006"><a xlink:title=" ">
<path fill="none" stroke="#63b8ff" d="M525.3,-224.26C464.12,-217.68 361.09,-205.13 263.93,-185.35"/>
<polygon fill="#63b8ff" stroke="#63b8ff" points="264.71,-181.94 254.21,-183.34 263.29,-188.8 264.71,-181.94"/>
</a>
</g>
</g>
<!-- Node7 -->
<g id="Node000007" class="node">
<title>Node7</title>
<g id="a_Node000007"><a xlink:title=" ">
<polygon fill="#e0e0e0" stroke="#999999" points="755.75,-185 710.5,-185 710.5,-165.75 755.75,-165.75 755.75,-185"/>
<text xml:space="preserve" text-anchor="middle" x="733.12" y="-171.5" font-family="Helvetica,sans-Serif" font-size="10.00">cstring</text>
</a>
</g>
</g>
<!-- Node2&#45;&gt;Node7 -->
<g id="edge6_Node000002_Node000007" class="edge">
<title>Node2&#45;&gt;Node7</title>
<g id="a_edge6_Node000002_Node000007"><a xlink:title=" ">
<path fill="none" stroke="#63b8ff" d="M605.25,-220.59C631.31,-211.58 671.44,-197.7 699.79,-187.9"/>
<polygon fill="#63b8ff" stroke="#63b8ff" points="700.65,-191.31 708.96,-184.73 698.37,-184.69 700.65,-191.31"/>
</a>
</g>
</g>
<!-- Node8 -->
<g id="Node000008" class="node">
<title>Node8</title>
<g id="a_Node000008"><a xlink:title=" ">
<polygon fill="#e0e0e0" stroke="#999999" points="874.12,-129.75 834.12,-129.75 834.12,-110.5 874.12,-110.5 874.12,-129.75"/>
<text xml:space="preserve" text-anchor="middle" x="854.12" y="-116.25" font-family="Helvetica,sans-Serif" font-size="10.00">string</text>
</a>
</g>
</g>
<!-- Node2&#45;&gt;Node8 -->
<g id="edge7_Node000002_Node000008" class="edge">
<title>Node2&#45;&gt;Node8</title>
<g id="a_edge7_Node000002_Node000008"><a xlink:title=" ">
<path fill="none" stroke="#63b8ff" d="M632.63,-222.42C670.81,-215.95 722.7,-204.41 765.12,-185 791.83,-172.79 818.7,-152.07 835.82,-137.55"/>
<polygon fill="#63b8ff" stroke="#63b8ff" points="837.87,-140.41 843.12,-131.21 833.28,-135.12 837.87,-140.41"/>
</a>
</g>
</g>
<!-- Node9 -->
<g id="Node000009" class="node">
<title>Node9</title>
<g id="a_Node000009"><a xlink:title=" ">
<polygon fill="#e0e0e0" stroke="#999999" points="343.62,-185 270.62,-185 270.62,-165.75 343.62,-165.75 343.62,-185"/>
<text xml:space="preserve" text-anchor="middle" x="307.12" y="-171.5" font-family="Helvetica,sans-Serif" font-size="10.00">lmmsconfig.h</text>
</a>
</g>
</g>
<!-- Node2&#45;&gt;Node9 -->
<g id="edge8_Node000002_Node000009" class="edge">
<title>Node2&#45;&gt;Node9</title>
<g id="a_edge8_Node000002_Node000009"><a xlink:title=" ">
<path fill="none" stroke="#63b8ff" d="M532.68,-220.53C483.13,-210.83 405.03,-195.54 354.95,-185.74"/>
<polygon fill="#63b8ff" stroke="#63b8ff" points="355.76,-182.33 345.28,-183.84 354.42,-189.2 355.76,-182.33"/>
</a>
</g>
</g>
<!-- Node10 -->
<g id="Node000010" class="node">
<title>Node10</title>
<g id="a_Node000010"><a xlink:title=" ">
<polygon fill="#e0e0e0" stroke="#999999" points="440.62,-185 361.62,-185 361.62,-165.75 440.62,-165.75 440.62,-185"/>
<text xml:space="preserve" text-anchor="middle" x="401.12" y="-171.5" font-family="Helvetica,sans-Serif" font-size="10.00">lmms_export.h</text>
</a>
</g>
</g>
<!-- Node2&#45;&gt;Node10 -->
<g id="edge9_Node000002_Node000010" class="edge">
<title>Node2&#45;&gt;Node10</title>
<g id="a_edge9_Node000002_Node000010"><a xlink:title=" ">
<path fill="none" stroke="#63b8ff" d="M548.93,-220.59C519.65,-211.83 475,-198.48 442.44,-188.73"/>
<polygon fill="#63b8ff" stroke="#63b8ff" points="443.5,-185.4 432.92,-185.89 441.5,-192.11 443.5,-185.4"/>
</a>
</g>
</g>
<!-- Node11 -->
<g id="Node000011" class="node">
<title>Node11</title>
<g id="a_Node000011"><a xlink:title=" ">
<polygon fill="#e0e0e0" stroke="#999999" points="507.62,-185 458.62,-185 458.62,-165.75 507.62,-165.75 507.62,-185"/>
<text xml:space="preserve" text-anchor="middle" x="483.12" y="-171.5" font-family="Helvetica,sans-Serif" font-size="10.00">QString</text>
</a>
</g>
</g>
<!-- Node2&#45;&gt;Node11 -->
<g id="edge10_Node000002_Node000011" class="edge">
<title>Node2&#45;&gt;Node11</title>
<g id="a_edge10_Node000002_Node000011"><a xlink:title=" ">
<path fill="none" stroke="#63b8ff" d="M562.84,-220.59C548.22,-212.48 526.5,-200.43 509.42,-190.96"/>
<polygon fill="#63b8ff" stroke="#63b8ff" points="511.26,-187.98 500.81,-186.19 507.86,-194.1 511.26,-187.98"/>
</a>
</g>
</g>
<!-- Node2&#45;&gt;Node12 -->
<g id="edge11_Node000002_Node000012" class="edge">
<title>Node2&#45;&gt;Node12</title>
<g id="a_edge11_Node000002_Node000012"><a xlink:title=" ">
<path fill="none" stroke="#63b8ff" d="M632.88,-222.7C637.36,-222.13 641.82,-221.55 646.12,-221 767.47,-205.42 800.67,-203.23 924.28,-185.38"/>
<polygon fill="#63b8ff" stroke="#63b8ff" points="924.43,-188.89 933.82,-183.99 923.43,-181.96 924.43,-188.89"/>
</a>
</g>
</g>
<!-- Node15 -->
<g id="Node000015" class="node">
<title>Node15</title>
<g id="a_Node000015"><a xlink:href="SystemSemaphore_8h.html" target="_top" xlink:title=" ">
<polygon fill="white" stroke="#666666" points="918.12,-185 812.12,-185 812.12,-165.75 918.12,-165.75 918.12,-185"/>
<text xml:space="preserve" text-anchor="middle" x="865.12" y="-171.5" font-family="Helvetica,sans-Serif" font-size="10.00">SystemSemaphore.h</text>
</a>
</g>
</g>
<!-- Node2&#45;&gt;Node15 -->
<g id="edge15_Node000002_Node000015" class="edge">
<title>Node2&#45;&gt;Node15</title>
<g id="a_edge15_Node000002_Node000015"><a xlink:title=" ">
<path fill="none" stroke="#63b8ff" d="M627.97,-220.53C677.01,-211.4 752.67,-197.31 805.29,-187.51"/>
<polygon fill="#63b8ff" stroke="#63b8ff" points="805.81,-190.98 815,-185.71 804.53,-184.1 805.81,-190.98"/>
</a>
</g>
</g>
<!-- Node12&#45;&gt;Node8 -->
<g id="edge13_Node000012_Node000008" class="edge">
<title>Node12&#45;&gt;Node8</title>
<g id="a_edge13_Node000012_Node000008"><a xlink:title=" ">
<path fill="none" stroke="#63b8ff" d="M958.75,-165.34C938.48,-156.77 907.79,-143.81 884.89,-134.13"/>
<polygon fill="#63b8ff" stroke="#63b8ff" points="886.32,-130.93 875.75,-130.26 883.59,-137.38 886.32,-130.93"/>
</a>
</g>
</g>
<!-- Node13 -->
<g id="Node000013" class="node">
<title>Node13</title>
<g id="a_Node000013"><a xlink:title=" ">
<polygon fill="#e0e0e0" stroke="#999999" points="942.38,-129.75 891.88,-129.75 891.88,-110.5 942.38,-110.5 942.38,-129.75"/>
<text xml:space="preserve" text-anchor="middle" x="917.12" y="-116.25" font-family="Helvetica,sans-Serif" font-size="10.00">memory</text>
</a>
</g>
</g>
<!-- Node12&#45;&gt;Node13 -->
<g id="edge12_Node000012_Node000013" class="edge">
<title>Node12&#45;&gt;Node13</title>
<g id="a_edge12_Node000012_Node000013"><a xlink:title=" ">
<path fill="none" stroke="#63b8ff" d="M969.44,-165.34C960.42,-157.72 947.29,-146.62 936.44,-137.45"/>
<polygon fill="#63b8ff" stroke="#63b8ff" points="938.71,-134.78 928.81,-131 934.19,-140.13 938.71,-134.78"/>
</a>
</g>
</g>
<!-- Node14 -->
<g id="Node000014" class="node">
<title>Node14</title>
<g id="a_Node000014"><a xlink:title=" ">
<polygon fill="#e0e0e0" stroke="#999999" points="1021.62,-129.75 960.62,-129.75 960.62,-110.5 1021.62,-110.5 1021.62,-129.75"/>
<text xml:space="preserve" text-anchor="middle" x="991.12" y="-116.25" font-family="Helvetica,sans-Serif" font-size="10.00">type_traits</text>
</a>
</g>
</g>
<!-- Node12&#45;&gt;Node14 -->
<g id="edge14_Node000012_Node000014" class="edge">
<title>Node12&#45;&gt;Node14</title>
<g id="a_edge14_Node000012_Node000014"><a xlink:title=" ">
<path fill="none" stroke="#63b8ff" d="M981.94,-165.58C983.3,-158.99 985.22,-149.71 986.95,-141.32"/>
<polygon fill="#63b8ff" stroke="#63b8ff" points="990.37,-142.09 988.96,-131.59 983.51,-140.68 990.37,-142.09"/>
</a>
</g>
</g>
<!-- Node15&#45;&gt;Node8 -->
<g id="edge17_Node000015_Node000008" class="edge">
<title>Node15&#45;&gt;Node8</title>
<g id="a_edge17_Node000015_Node000008"><a xlink:title=" ">
<path fill="none" stroke="#63b8ff" d="M863.31,-165.58C861.95,-158.99 860.03,-149.71 858.3,-141.32"/>
<polygon fill="#63b8ff" stroke="#63b8ff" points="861.74,-140.68 856.29,-131.59 854.88,-142.09 861.74,-140.68"/>
</a>
</g>
</g>
<!-- Node15&#45;&gt;Node13 -->
<g id="edge16_Node000015_Node000013" class="edge">
<title>Node15&#45;&gt;Node13</title>
<g id="a_edge16_Node000015_Node000013"><a xlink:title=" ">
<path fill="none" stroke="#63b8ff" d="M873.71,-165.58C880.97,-158.15 891.58,-147.29 900.49,-138.16"/>
<polygon fill="#63b8ff" stroke="#63b8ff" points="902.81,-140.79 907.29,-131.19 897.8,-135.9 902.81,-140.79"/>
</a>
</g>
</g>
<!-- Node23 -->
<g id="Node000023" class="node">
<title>Node23</title>
<g id="a_Node000023"><a xlink:title=" ">
<polygon fill="#e0e0e0" stroke="#999999" points="48.25,-19.25 0,-19.25 0,0 48.25,0 48.25,-19.25"/>
<text xml:space="preserve" text-anchor="middle" x="24.12" y="-5.75" font-family="Helvetica,sans-Serif" font-size="10.00">cstddef</text>
</a>
</g>
</g>
<!-- Node22&#45;&gt;Node23 -->
<g id="edge25_Node000022_Node000023" class="edge">
<title>Node22&#45;&gt;Node23</title>
<g id="a_edge25_Node000022_Node000023"><a xlink:title=" ">
<path fill="none" stroke="#63b8ff" d="M50.84,-55.08C46.65,-48.11 40.65,-38.12 35.39,-29.37"/>
<polygon fill="#63b8ff" stroke="#63b8ff" points="38.45,-27.68 30.3,-20.91 32.45,-31.28 38.45,-27.68"/>
</a>
</g>
</g>
<!-- Node24 -->
<g id="Node000024" class="node">
<title>Node24</title>
<g id="a_Node000024"><a xlink:title=" ">
<polygon fill="#e0e0e0" stroke="#999999" points="111.75,-19.25 66.5,-19.25 66.5,0 111.75,0 111.75,-19.25"/>
<text xml:space="preserve" text-anchor="middle" x="89.12" y="-5.75" font-family="Helvetica,sans-Serif" font-size="10.00">cstdint</text>
</a>
</g>
</g>
<!-- Node22&#45;&gt;Node24 -->
<g id="edge26_Node000022_Node000024" class="edge">
<title>Node22&#45;&gt;Node24</title>
<g id="a_edge26_Node000022_Node000024"><a xlink:title=" ">
<path fill="none" stroke="#63b8ff" d="M61.57,-55.08C65.9,-48.11 72.09,-38.12 77.51,-29.37"/>
<polygon fill="#63b8ff" stroke="#63b8ff" points="80.47,-31.24 82.76,-20.9 74.52,-27.55 80.47,-31.24"/>
</a>
</g>
</g>
<!-- Node25&#45;&gt;Node6 -->
<g id="edge28_Node000025_Node000006" class="edge">
<title>Node25&#45;&gt;Node6</title>
<g id="a_edge28_Node000025_Node000006"><a xlink:title=" ">
<path fill="none" stroke="#63b8ff" d="M188.38,-220.83C195.29,-213.48 205.35,-202.76 213.86,-193.69"/>
<polygon fill="#63b8ff" stroke="#63b8ff" points="216.36,-196.15 220.65,-186.46 211.26,-191.36 216.36,-196.15"/>
</a>
</g>
</g>
<!-- Node26 -->
<g id="Node000026" class="node">
<title>Node26</title>
<g id="a_Node000026"><a xlink:href="Midi_8h.html" target="_top" xlink:title=" ">
<polygon fill="white" stroke="#666666" points="242.88,-129.75 201.38,-129.75 201.38,-110.5 242.88,-110.5 242.88,-129.75"/>
<text xml:space="preserve" text-anchor="middle" x="222.12" y="-116.25" font-family="Helvetica,sans-Serif" font-size="10.00">Midi.h</text>
</a>
</g>
</g>
<!-- Node25&#45;&gt;Node26 -->
<g id="edge29_Node000025_Node000026" class="edge">
<title>Node25&#45;&gt;Node26</title>
<g id="a_edge29_Node000025_Node000026"><a xlink:title=" ">
<path fill="none" stroke="#63b8ff" d="M182.2,-220.77C185.26,-208.27 191.44,-184.86 199.12,-165.75 202.62,-157.07 207.23,-147.82 211.4,-140"/>
<polygon fill="#63b8ff" stroke="#63b8ff" points="214.36,-141.89 216.12,-131.45 208.23,-138.51 214.36,-141.89"/>
</a>
</g>
</g>
<!-- Node27 -->
<g id="Node000027" class="node">
<title>Node27</title>
<g id="a_Node000027"><a xlink:href="panning_8h.html" target="_top" xlink:title=" ">
<polygon fill="white" stroke="#666666" points="151.75,-185 94.5,-185 94.5,-165.75 151.75,-165.75 151.75,-185"/>
<text xml:space="preserve" text-anchor="middle" x="123.12" y="-171.5" font-family="Helvetica,sans-Serif" font-size="10.00">panning.h</text>
</a>
</g>
</g>
<!-- Node25&#45;&gt;Node27 -->
<g id="edge30_Node000025_Node000027" class="edge">
<title>Node25&#45;&gt;Node27</title>
<g id="a_edge30_Node000025_Node000027"><a xlink:title=" ">
<path fill="none" stroke="#63b8ff" d="M170.46,-220.59C162.38,-213.05 150.66,-202.1 140.9,-192.98"/>
<polygon fill="#63b8ff" stroke="#63b8ff" points="143.45,-190.58 133.76,-186.31 138.68,-195.69 143.45,-190.58"/>
</a>
</g>
</g>
<!-- Node28 -->
<g id="Node000028" class="node">
<title>Node28</title>
<g id="a_Node000028"><a xlink:href="volume_8h.html" target="_top" xlink:title=" ">
<polygon fill="white" stroke="#666666" points="83.62,-129.75 28.62,-129.75 28.62,-110.5 83.62,-110.5 83.62,-129.75"/>
<text xml:space="preserve" text-anchor="middle" x="56.12" y="-116.25" font-family="Helvetica,sans-Serif" font-size="10.00">volume.h</text>
</a>
</g>
</g>
<!-- Node25&#45;&gt;Node28 -->
<g id="edge36_Node000025_Node000028" class="edge">
<title>Node25&#45;&gt;Node28</title>
<g id="a_edge36_Node000025_Node000028"><a xlink:title=" ">
<path fill="none" stroke="#63b8ff" d="M147.2,-220.56C127.13,-213.62 102.15,-202.25 85.12,-185 73.08,-172.8 65.51,-154.7 61.14,-140.88"/>
<polygon fill="#63b8ff" stroke="#63b8ff" points="64.59,-140.22 58.5,-131.55 57.86,-142.13 64.59,-140.22"/>
</a>
</g>
</g>
<!-- Node27&#45;&gt;Node22 -->
<g id="edge31_Node000027_Node000022" class="edge">
<title>Node27&#45;&gt;Node22</title>
<g id="a_edge31_Node000027_Node000022"><a xlink:title=" ">
<path fill="none" stroke="#63b8ff" d="M133.06,-165.31C145.79,-152.57 164.89,-128.86 153.12,-110.5 142.47,-93.88 123.9,-83.36 105.83,-76.75"/>
<polygon fill="#63b8ff" stroke="#63b8ff" points="107.06,-73.47 96.46,-73.68 104.87,-80.12 107.06,-73.47"/>
</a>
</g>
</g>
<!-- Node27&#45;&gt;Node26 -->
<g id="edge32_Node000027_Node000026" class="edge">
<title>Node27&#45;&gt;Node26</title>
<g id="a_edge32_Node000027_Node000026"><a xlink:title=" ">
<path fill="none" stroke="#63b8ff" d="M139.92,-165.34C155.14,-157.16 177.82,-144.96 195.51,-135.44"/>
<polygon fill="#63b8ff" stroke="#63b8ff" points="196.77,-138.74 203.92,-130.92 193.45,-132.57 196.77,-138.74"/>
</a>
</g>
</g>
<!-- Node27&#45;&gt;Node28 -->
<g id="edge33_Node000027_Node000028" class="edge">
<title>Node27&#45;&gt;Node28</title>
<g id="a_edge33_Node000027_Node000028"><a xlink:title=" ">
<path fill="none" stroke="#63b8ff" d="M111.76,-165.34C102.08,-157.65 87.93,-146.4 76.32,-137.18"/>
<polygon fill="#63b8ff" stroke="#63b8ff" points="78.51,-134.45 68.51,-130.97 74.16,-139.93 78.51,-134.45"/>
</a>
</g>
</g>
<!-- Node29 -->
<g id="Node000029" class="node">
<title>Node29</title>
<g id="a_Node000029"><a xlink:title=" ">
<polygon fill="#e0e0e0" stroke="#999999" points="144.62,-129.75 101.62,-129.75 101.62,-110.5 144.62,-110.5 144.62,-129.75"/>
<text xml:space="preserve" text-anchor="middle" x="123.12" y="-116.25" font-family="Helvetica,sans-Serif" font-size="10.00">cmath</text>
</a>
</g>
</g>
<!-- Node27&#45;&gt;Node29 -->
<g id="edge35_Node000027_Node000029" class="edge">
<title>Node27&#45;&gt;Node29</title>
<g id="a_edge35_Node000027_Node000029"><a xlink:title=" ">
<path fill="none" stroke="#63b8ff" d="M123.12,-165.58C123.12,-159.07 123.12,-149.92 123.12,-141.62"/>
<polygon fill="#63b8ff" stroke="#63b8ff" points="126.63,-141.62 123.13,-131.62 119.63,-141.62 126.63,-141.62"/>
</a>
</g>
</g>
<!-- Node28&#45;&gt;Node22 -->
<g id="edge34_Node000028_Node000022" class="edge">
<title>Node28&#45;&gt;Node22</title>
<g id="a_edge34_Node000028_Node000022"><a xlink:title=" ">
<path fill="none" stroke="#63b8ff" d="M56.12,-110.33C56.12,-103.82 56.12,-94.67 56.12,-86.37"/>
<polygon fill="#63b8ff" stroke="#63b8ff" points="59.63,-86.37 56.13,-76.37 52.63,-86.37 59.63,-86.37"/>
</a>
</g>
</g>
</g>
</svg>

<g id="navigator" transform="translate(0 0)" fill="#404254">
  <rect fill="#f2f5e9" fill-opacity="0.5" stroke="#606060" stroke-width=".5" x="0" y="0" width="60" height="60"/>
  <use id="zoomplus" xlink:href="#zoomPlus" x="17" y="9" onmousedown="handleZoom(evt,'in')"/>
  <use id="zoomminus" xlink:href="#zoomMin" x="42" y="9" onmousedown="handleZoom(evt,'out')"/>
  <use id="reset" xlink:href="#resetDef" x="30" y="36" onmousedown="handleReset()"/>
   <use id="arrowup" xlink:href="#arrowUp" x="0" y="0" onmousedown="handlePan(0,-1)"/>
  <use id="arrowright" xlink:href="#arrowRight" x="0" y="0" onmousedown="handlePan(1,0)"/>
  <use id="arrowdown" xlink:href="#arrowDown" x="0" y="0" onmousedown="handlePan(0,1)"/>
  <use id="arrowleft" xlink:href="#arrowLeft" x="0" y="0" onmousedown="handlePan(-1,0)"/>
</g>
<svg viewBox="0 0 15 15" width="100%" height="30px" preserveAspectRatio="xMaxYMin meet">
 <g id="arrow_out" transform="scale(0.3 0.3)">
  <a xlink:href="RemotePluginClient_8h__incl_org.svg" target="_base">
   <rect id="button" ry="5" rx="5" y="6" x="6" height="38" width="38"
        fill="#f2f5e9" fill-opacity="0.5" stroke="#606060" stroke-width="1.0"/>
   <path id="arrow"
     d="M 11.500037,31.436501 C 11.940474,20.09759 22.043105,11.32322 32.158766,21.979434 L 37.068811,17.246167 C 37.068811,17.246167 37.088388,32 37.088388,32 L 22.160133,31.978069 C 22.160133,31.978069 26.997745,27.140456 26.997745,27.140456 C 18.528582,18.264221 13.291696,25.230495 11.500037,31.436501 z"
     style="fill:#404040;"/>
  </a>
 </g>
</svg>

<style type='text/css'>
<![CDATA[
[data-mouse-over-selected='false'] { opacity: 0.7; }
[data-mouse-over-selected='true']  { opacity: 1.0; }
]]>
</style>
<script type="application/ecmascript"><![CDATA[
document.addEventListener('DOMContentLoaded', (event) => {
  highlightEdges();
  highlightAdjacentNodes();
});
]]></script>
</svg>
