<?xml version="1.0" encoding="UTF-8" standalone="no"?>
<!DOCTYPE svg PUBLIC "-//W3C//DTD SVG 1.1//EN"
 "http://www.w3.org/Graphics/SVG/1.1/DTD/svg11.dtd">
<!-- Generated by graphviz version 14.0.2 (0)
 -->
<!-- Title: plugins/CarlaBase/carla/source/modules/hylia/link/ableton/test/serial_io/SchedulerTree.hpp Pages: 1 -->
<svg width="171pt" height="328pt"
 viewBox="0.00 0.00 171.00 328.00" xmlns="http://www.w3.org/2000/svg" xmlns:xlink="http://www.w3.org/1999/xlink">
<g id="graph0" class="graph" transform="scale(1 1) rotate(0) translate(4 324)">
<title>plugins/CarlaBase/carla/source/modules/hylia/link/ableton/test/serial_io/SchedulerTree.hpp</title>
<!-- Node1 -->
<g id="Node000001" class="node">
<title>Node1</title>
<g id="a_Node000001"><a xlink:title=" ">
<polygon fill="#999999" stroke="#666666" points="118.75,-320 0,-320 0,-267 118.75,-267 118.75,-320"/>
<text xml:space="preserve" text-anchor="start" x="8" y="-306.5" font-family="Helvetica,sans-Serif" font-size="10.00">plugins/CarlaBase/carla</text>
<text xml:space="preserve" text-anchor="start" x="8" y="-295.25" font-family="Helvetica,sans-Serif" font-size="10.00">/source/modules/hylia</text>
<text xml:space="preserve" text-anchor="start" x="8" y="-284" font-family="Helvetica,sans-Serif" font-size="10.00">/link/ableton/test/serial</text>
<text xml:space="preserve" text-anchor="middle" x="59.38" y="-272.75" font-family="Helvetica,sans-Serif" font-size="10.00">_io/SchedulerTree.hpp</text>
</a>
</g>
</g>
<!-- Node2 -->
<g id="Node000002" class="node">
<title>Node2</title>
<g id="a_Node000002"><a xlink:href="test_2serial__io_2Context_8hpp.html" target="_top" xlink:title=" ">
<polygon fill="white" stroke="#666666" points="118.75,-142 0,-142 0,-89 118.75,-89 118.75,-142"/>
<text xml:space="preserve" text-anchor="start" x="8" y="-128.5" font-family="Helvetica,sans-Serif" font-size="10.00">plugins/CarlaBase/carla</text>
<text xml:space="preserve" text-anchor="start" x="8" y="-117.25" font-family="Helvetica,sans-Serif" font-size="10.00">/source/modules/hylia</text>
<text xml:space="preserve" text-anchor="start" x="8" y="-106" font-family="Helvetica,sans-Serif" font-size="10.00">/link/ableton/test/serial</text>
<text xml:space="preserve" text-anchor="middle" x="59.38" y="-94.75" font-family="Helvetica,sans-Serif" font-size="10.00">_io/Context.hpp</text>
</a>
</g>
</g>
<!-- Node1&#45;&gt;Node2 -->
<g id="edge1_Node000001_Node000002" class="edge">
<title>Node1&#45;&gt;Node2</title>
<g id="a_edge1_Node000001_Node000002"><a xlink:title=" ">
<path fill="none" stroke="#63b8ff" d="M42.64,-256.17C39.63,-248.05 36.95,-239.36 35.38,-231 31.02,-207.85 31.02,-201.15 35.38,-178 37.66,-165.84 42.29,-152.99 46.88,-142.2"/>
<polygon fill="#63b8ff" stroke="#63b8ff" points="39.37,-257.4 46.32,-265.39 45.87,-254.81 39.37,-257.4"/>
</a>
</g>
</g>
<!-- Node4 -->
<g id="Node000004" class="node">
<title>Node4</title>
<g id="a_Node000004"><a xlink:href="test_2serial__io_2Timer_8hpp.html" target="_top" xlink:title=" ">
<polygon fill="white" stroke="#666666" points="162.75,-231 44,-231 44,-178 162.75,-178 162.75,-231"/>
<text xml:space="preserve" text-anchor="start" x="52" y="-217.5" font-family="Helvetica,sans-Serif" font-size="10.00">plugins/CarlaBase/carla</text>
<text xml:space="preserve" text-anchor="start" x="52" y="-206.25" font-family="Helvetica,sans-Serif" font-size="10.00">/source/modules/hylia</text>
<text xml:space="preserve" text-anchor="start" x="52" y="-195" font-family="Helvetica,sans-Serif" font-size="10.00">/link/ableton/test/serial</text>
<text xml:space="preserve" text-anchor="middle" x="103.38" y="-183.75" font-family="Helvetica,sans-Serif" font-size="10.00">_io/Timer.hpp</text>
</a>
</g>
</g>
<!-- Node1&#45;&gt;Node4 -->
<g id="edge3_Node000001_Node000004" class="edge">
<title>Node1&#45;&gt;Node4</title>
<g id="a_edge3_Node000001_Node000004"><a xlink:title=" ">
<path fill="none" stroke="#63b8ff" d="M77.46,-256.74C81.78,-248.2 86.31,-239.24 90.35,-231.25"/>
<polygon fill="#63b8ff" stroke="#63b8ff" points="74.41,-255.01 73.02,-265.52 80.66,-258.17 74.41,-255.01"/>
</a>
</g>
</g>
<!-- Node3 -->
<g id="Node000003" class="node">
<title>Node3</title>
<g id="a_Node000003"><a xlink:href="Fixture_8hpp.html" target="_top" xlink:title=" ">
<polygon fill="white" stroke="#666666" points="118.75,-53 0,-53 0,0 118.75,0 118.75,-53"/>
<text xml:space="preserve" text-anchor="start" x="8" y="-39.5" font-family="Helvetica,sans-Serif" font-size="10.00">plugins/CarlaBase/carla</text>
<text xml:space="preserve" text-anchor="start" x="8" y="-28.25" font-family="Helvetica,sans-Serif" font-size="10.00">/source/modules/hylia</text>
<text xml:space="preserve" text-anchor="start" x="8" y="-17" font-family="Helvetica,sans-Serif" font-size="10.00">/link/ableton/test/serial</text>
<text xml:space="preserve" text-anchor="middle" x="59.38" y="-5.75" font-family="Helvetica,sans-Serif" font-size="10.00">_io/Fixture.hpp</text>
</a>
</g>
</g>
<!-- Node2&#45;&gt;Node3 -->
<g id="edge2_Node000002_Node000003" class="edge">
<title>Node2&#45;&gt;Node3</title>
<g id="a_edge2_Node000002_Node000003"><a xlink:title=" ">
<path fill="none" stroke="#63b8ff" d="M59.38,-77.61C59.38,-69.41 59.38,-60.89 59.38,-53.25"/>
<polygon fill="#63b8ff" stroke="#63b8ff" points="55.88,-77.35 59.38,-87.35 62.88,-77.35 55.88,-77.35"/>
</a>
</g>
</g>
<!-- Node4&#45;&gt;Node2 -->
<g id="edge4_Node000004_Node000002" class="edge">
<title>Node4&#45;&gt;Node2</title>
<g id="a_edge4_Node000004_Node000002"><a xlink:title=" ">
<path fill="none" stroke="#63b8ff" d="M85.29,-167.74C80.97,-159.2 76.44,-150.24 72.4,-142.25"/>
<polygon fill="#63b8ff" stroke="#63b8ff" points="82.09,-169.17 89.73,-176.52 88.34,-166.01 82.09,-169.17"/>
</a>
</g>
</g>
</g>
</svg>
