<?xml version="1.0" encoding="UTF-8" standalone="no"?>
<!DOCTYPE svg PUBLIC "-//W3C//DTD SVG 1.1//EN"
 "http://www.w3.org/Graphics/SVG/1.1/DTD/svg11.dtd">
<!-- Generated by graphviz version 14.0.2 (0)
 -->
<!-- Title: plugins/OpulenZ/adplug/src/sng.cpp Pages: 1 -->
<svg width="230pt" height="260pt"
 viewBox="0.00 0.00 230.00 260.00" xmlns="http://www.w3.org/2000/svg" xmlns:xlink="http://www.w3.org/1999/xlink">

<svg id="main" version="1.1" xmlns="http://www.w3.org/2000/svg" xmlns:xlink="http://www.w3.org/1999/xlink" xml:space="preserve">

<style type="text/css"><![CDATA[
.node, .edge {opacity: 0.7;}
.node.selected, .edge.selected {opacity: 1;}
.edge:hover path { stroke: red; }
.edge:hover polygon { stroke: red; fill: red; }
]]></style>
<script type="application/ecmascript" xlink:href="svg.min.js"/>
<svg id="graph" class="graph">
<g id="graph0" class="graph" transform="scale(1 1) rotate(0) translate(4 255.5)">
<title>plugins/OpulenZ/adplug/src/sng.cpp</title>
<!-- Node1 -->
<g id="Node000001" class="node">
<title>Node1</title>
<g id="a_Node000001"><a xlink:title=" ">
<polygon fill="#999999" stroke="#666666" points="118,-251.5 0,-251.5 0,-221 118,-221 118,-251.5"/>
<text xml:space="preserve" text-anchor="start" x="8" y="-238" font-family="Helvetica,sans-Serif" font-size="10.00">plugins/OpulenZ/adplug</text>
<text xml:space="preserve" text-anchor="middle" x="59" y="-226.75" font-family="Helvetica,sans-Serif" font-size="10.00">/src/sng.cpp</text>
</a>
</g>
</g>
<!-- Node2 -->
<g id="Node000002" class="node">
<title>Node2</title>
<g id="a_Node000002"><a xlink:title=" ">
<polygon fill="#e0e0e0" stroke="#999999" points="51.62,-185 6.38,-185 6.38,-165.75 51.62,-165.75 51.62,-185"/>
<text xml:space="preserve" text-anchor="middle" x="29" y="-171.5" font-family="Helvetica,sans-Serif" font-size="10.00">cstring</text>
</a>
</g>
</g>
<!-- Node1&#45;&gt;Node2 -->
<g id="edge1_Node000001_Node000002" class="edge">
<title>Node1&#45;&gt;Node2</title>
<g id="a_edge1_Node000001_Node000002"><a xlink:title=" ">
<path fill="none" stroke="#63b8ff" d="M51.58,-220.7C47.72,-213.11 42.94,-203.74 38.78,-195.57"/>
<polygon fill="#63b8ff" stroke="#63b8ff" points="41.97,-194.12 34.31,-186.8 35.73,-197.3 41.97,-194.12"/>
</a>
</g>
</g>
<!-- Node3 -->
<g id="Node000003" class="node">
<title>Node3</title>
<g id="a_Node000003"><a xlink:href="sng_8h.html" target="_top" xlink:title=" ">
<polygon fill="white" stroke="#666666" points="108.62,-185 69.38,-185 69.38,-165.75 108.62,-165.75 108.62,-185"/>
<text xml:space="preserve" text-anchor="middle" x="89" y="-171.5" font-family="Helvetica,sans-Serif" font-size="10.00">sng.h</text>
</a>
</g>
</g>
<!-- Node1&#45;&gt;Node3 -->
<g id="edge2_Node000001_Node000003" class="edge">
<title>Node1&#45;&gt;Node3</title>
<g id="a_edge2_Node000001_Node000003"><a xlink:title=" ">
<path fill="none" stroke="#63b8ff" d="M66.42,-220.7C70.28,-213.11 75.06,-203.74 79.22,-195.57"/>
<polygon fill="#63b8ff" stroke="#63b8ff" points="82.27,-197.3 83.69,-186.8 76.03,-194.12 82.27,-197.3"/>
</a>
</g>
</g>
<!-- Node4 -->
<g id="Node000004" class="node">
<title>Node4</title>
<g id="a_Node000004"><a xlink:href="player_8h.html" target="_top" xlink:title=" ">
<polygon fill="white" stroke="#666666" points="113.5,-129.75 64.5,-129.75 64.5,-110.5 113.5,-110.5 113.5,-129.75"/>
<text xml:space="preserve" text-anchor="middle" x="89" y="-116.25" font-family="Helvetica,sans-Serif" font-size="10.00">player.h</text>
</a>
</g>
</g>
<!-- Node3&#45;&gt;Node4 -->
<g id="edge3_Node000003_Node000004" class="edge">
<title>Node3&#45;&gt;Node4</title>
<g id="a_edge3_Node000003_Node000004"><a xlink:title=" ">
<path fill="none" stroke="#63b8ff" d="M89,-165.58C89,-159.07 89,-149.92 89,-141.62"/>
<polygon fill="#63b8ff" stroke="#63b8ff" points="92.5,-141.62 89,-131.62 85.5,-141.62 92.5,-141.62"/>
</a>
</g>
</g>
<!-- Node5 -->
<g id="Node000005" class="node">
<title>Node5</title>
<g id="a_Node000005"><a xlink:title=" ">
<polygon fill="#e0e0e0" stroke="#999999" points="77,-19.25 37,-19.25 37,0 77,0 77,-19.25"/>
<text xml:space="preserve" text-anchor="middle" x="57" y="-5.75" font-family="Helvetica,sans-Serif" font-size="10.00">string</text>
</a>
</g>
</g>
<!-- Node4&#45;&gt;Node5 -->
<g id="edge4_Node000004_Node000005" class="edge">
<title>Node4&#45;&gt;Node5</title>
<g id="a_edge4_Node000004_Node000005"><a xlink:title=" ">
<path fill="none" stroke="#63b8ff" d="M64.19,-110.54C48.16,-103.54 28.56,-91.94 19,-74.5 10.04,-58.17 23.27,-39.94 36.52,-27.15"/>
<polygon fill="#63b8ff" stroke="#63b8ff" points="38.72,-29.88 43.86,-20.61 34.06,-24.65 38.72,-29.88"/>
</a>
</g>
</g>
<!-- Node6 -->
<g id="Node000006" class="node">
<title>Node6</title>
<g id="a_Node000006"><a xlink:href="fprovide_8h.html" target="_top" xlink:title=" ">
<polygon fill="#fff0f0" stroke="red" points="86,-74.5 28,-74.5 28,-55.25 86,-55.25 86,-74.5"/>
<text xml:space="preserve" text-anchor="middle" x="57" y="-61" font-family="Helvetica,sans-Serif" font-size="10.00">fprovide.h</text>
</a>
</g>
</g>
<!-- Node4&#45;&gt;Node6 -->
<g id="edge5_Node000004_Node000006" class="edge">
<title>Node4&#45;&gt;Node6</title>
<g id="a_edge5_Node000004_Node000006"><a xlink:title=" ">
<path fill="none" stroke="#63b8ff" d="M83.72,-110.33C79.53,-103.36 73.52,-93.37 68.27,-84.62"/>
<polygon fill="#63b8ff" stroke="#63b8ff" points="71.33,-82.93 63.18,-76.16 65.33,-86.53 71.33,-82.93"/>
</a>
</g>
</g>
<!-- Node8 -->
<g id="Node000008" class="node">
<title>Node8</title>
<g id="a_Node000008"><a xlink:href="opl_8h.html" target="_top" xlink:title=" ">
<polygon fill="white" stroke="#666666" points="140.12,-74.5 103.88,-74.5 103.88,-55.25 140.12,-55.25 140.12,-74.5"/>
<text xml:space="preserve" text-anchor="middle" x="122" y="-61" font-family="Helvetica,sans-Serif" font-size="10.00">opl.h</text>
</a>
</g>
</g>
<!-- Node4&#45;&gt;Node8 -->
<g id="edge7_Node000004_Node000008" class="edge">
<title>Node4&#45;&gt;Node8</title>
<g id="a_edge7_Node000004_Node000008"><a xlink:title=" ">
<path fill="none" stroke="#63b8ff" d="M94.45,-110.33C98.77,-103.36 104.96,-93.37 110.38,-84.62"/>
<polygon fill="#63b8ff" stroke="#63b8ff" points="113.34,-86.49 115.64,-76.15 107.39,-82.8 113.34,-86.49"/>
</a>
</g>
</g>
<!-- Node9 -->
<g id="Node000009" class="node">
<title>Node9</title>
<g id="a_Node000009"><a xlink:href="database_8h.html" target="_top" xlink:title=" ">
<polygon fill="#fff0f0" stroke="red" points="221.62,-74.5 158.38,-74.5 158.38,-55.25 221.62,-55.25 221.62,-74.5"/>
<text xml:space="preserve" text-anchor="middle" x="190" y="-61" font-family="Helvetica,sans-Serif" font-size="10.00">database.h</text>
</a>
</g>
</g>
<!-- Node4&#45;&gt;Node9 -->
<g id="edge8_Node000004_Node000009" class="edge">
<title>Node4&#45;&gt;Node9</title>
<g id="a_edge8_Node000004_Node000009"><a xlink:title=" ">
<path fill="none" stroke="#63b8ff" d="M106.13,-110.09C121.66,-101.91 144.8,-89.71 162.84,-80.19"/>
<polygon fill="#63b8ff" stroke="#63b8ff" points="164.23,-83.42 171.44,-75.66 160.97,-77.23 164.23,-83.42"/>
</a>
</g>
</g>
<!-- Node6&#45;&gt;Node5 -->
<g id="edge6_Node000006_Node000005" class="edge">
<title>Node6&#45;&gt;Node5</title>
<g id="a_edge6_Node000006_Node000005"><a xlink:title=" ">
<path fill="none" stroke="#63b8ff" d="M57,-55.08C57,-48.57 57,-39.42 57,-31.12"/>
<polygon fill="#63b8ff" stroke="#63b8ff" points="60.5,-31.12 57,-21.12 53.5,-31.12 60.5,-31.12"/>
</a>
</g>
</g>
<!-- Node9&#45;&gt;Node5 -->
<g id="edge9_Node000009_Node000005" class="edge">
<title>Node9&#45;&gt;Node5</title>
<g id="a_edge9_Node000009_Node000005"><a xlink:title=" ">
<path fill="none" stroke="#63b8ff" d="M167.44,-54.84C145.59,-46.09 112.28,-32.76 87.96,-23.02"/>
<polygon fill="#63b8ff" stroke="#63b8ff" points="89.47,-19.86 78.89,-19.39 86.87,-26.36 89.47,-19.86"/>
</a>
</g>
</g>
</g>
</svg>
</svg>

<style type='text/css'>
<![CDATA[
[data-mouse-over-selected='false'] { opacity: 0.7; }
[data-mouse-over-selected='true']  { opacity: 1.0; }
]]>
</style>
<script type="application/ecmascript"><![CDATA[
document.addEventListener('DOMContentLoaded', (event) => {
  highlightEdges();
  highlightAdjacentNodes();
});
]]></script>
</svg>
