<?xml version="1.0" encoding="UTF-8" standalone="no"?>
<!DOCTYPE svg PUBLIC "-//W3C//DTD SVG 1.1//EN"
 "http://www.w3.org/Graphics/SVG/1.1/DTD/svg11.dtd">
<!-- Generated by graphviz version 14.0.2 (0)
 -->
<!-- Title: check_spc_header Pages: 1 -->
<svg width="255pt" height="64pt"
 viewBox="0.00 0.00 255.00 64.00" xmlns="http://www.w3.org/2000/svg" xmlns:xlink="http://www.w3.org/1999/xlink">
<g id="graph0" class="graph" transform="scale(1 1) rotate(0) translate(4 60.25)">
<title>check_spc_header</title>
<!-- Node1 -->
<g id="Node000001" class="node">
<title>Node1</title>
<g id="a_Node000001"><a xlink:title=" ">
<polygon fill="#999999" stroke="#666666" points="246.5,-37.25 148.75,-37.25 148.75,-18 246.5,-18 246.5,-37.25"/>
<text xml:space="preserve" text-anchor="middle" x="197.62" y="-23.75" font-family="Helvetica,sans-Serif" font-size="10.00">check_spc_header</text>
</a>
</g>
</g>
<!-- Node2 -->
<g id="Node000002" class="node">
<title>Node2</title>
<g id="a_Node000002"><a xlink:href="structSpc__File.html#a57bdb23db469646db66f583a01dcfe10" target="_top" xlink:title=" ">
<polygon fill="white" stroke="#666666" points="97.38,-56.25 15.38,-56.25 15.38,-37 97.38,-37 97.38,-56.25"/>
<text xml:space="preserve" text-anchor="middle" x="56.38" y="-42.75" font-family="Helvetica,sans-Serif" font-size="10.00">Spc_File::load_</text>
</a>
</g>
</g>
<!-- Node1&#45;&gt;Node2 -->
<g id="edge1_Node000001_Node000002" class="edge">
<title>Node1&#45;&gt;Node2</title>
<g id="a_edge1_Node000001_Node000002"><a xlink:title=" ">
<path fill="none" stroke="#63b8ff" d="M137.28,-35.72C123.94,-37.54 110.1,-39.43 97.75,-41.12"/>
<polygon fill="#63b8ff" stroke="#63b8ff" points="137.38,-39.24 146.81,-34.42 136.43,-32.31 137.38,-39.24"/>
</a>
</g>
</g>
<!-- Node3 -->
<g id="Node000003" class="node">
<title>Node3</title>
<g id="a_Node000003"><a xlink:href="classSpc__Emu.html#ac4d2682802677df0155ebf3b79f2e405" target="_top" xlink:title=" ">
<polygon fill="white" stroke="#666666" points="112.75,-19.25 0,-19.25 0,0 112.75,0 112.75,-19.25"/>
<text xml:space="preserve" text-anchor="middle" x="56.38" y="-5.75" font-family="Helvetica,sans-Serif" font-size="10.00">Spc_Emu::load_mem_</text>
</a>
</g>
</g>
<!-- Node1&#45;&gt;Node3 -->
<g id="edge2_Node000001_Node000003" class="edge">
<title>Node1&#45;&gt;Node3</title>
<g id="a_edge2_Node000001_Node000003"><a xlink:title=" ">
<path fill="none" stroke="#63b8ff" d="M136.96,-19.91C129.09,-18.9 121.05,-17.86 113.25,-16.85"/>
<polygon fill="#63b8ff" stroke="#63b8ff" points="136.45,-23.38 146.81,-21.19 137.34,-16.43 136.45,-23.38"/>
</a>
</g>
</g>
</g>
</svg>
