<?xml version="1.0" encoding="UTF-8" standalone="no"?>
<!DOCTYPE svg PUBLIC "-//W3C//DTD SVG 1.1//EN"
 "http://www.w3.org/Graphics/SVG/1.1/DTD/svg11.dtd">
<!-- Generated by graphviz version 14.0.2 (0)
 -->
<!-- Title: src/3rdparty/hiir/hiir/StageDataSse.h Pages: 1 -->
<svg width="1983pt" height="305pt"
 viewBox="0.00 0.00 1983.00 305.00" xmlns="http://www.w3.org/2000/svg" xmlns:xlink="http://www.w3.org/1999/xlink">
<g id="graph0" class="graph" transform="scale(1 1) rotate(0) translate(4 300.5)">
<title>src/3rdparty/hiir/hiir/StageDataSse.h</title>
<!-- Node1 -->
<g id="Node000001" class="node">
<title>Node1</title>
<g id="a_Node000001"><a xlink:title=" ">
<polygon fill="#999999" stroke="#666666" points="1062.03,-296.5 963.53,-296.5 963.53,-266 1062.03,-266 1062.03,-296.5"/>
<text xml:space="preserve" text-anchor="start" x="971.53" y="-283" font-family="Helvetica,sans-Serif" font-size="10.00">src/3rdparty/hiir/hiir</text>
<text xml:space="preserve" text-anchor="middle" x="1012.78" y="-271.75" font-family="Helvetica,sans-Serif" font-size="10.00">/StageDataSse.h</text>
</a>
</g>
</g>
<!-- Node2 -->
<g id="Node000002" class="node">
<title>Node2</title>
<g id="a_Node000002"><a xlink:href="Downsampler2x4Sse_8h.html" target="_top" xlink:title=" ">
<polygon fill="white" stroke="#666666" points="516.78,-30.5 398.78,-30.5 398.78,0 516.78,0 516.78,-30.5"/>
<text xml:space="preserve" text-anchor="start" x="406.78" y="-17" font-family="Helvetica,sans-Serif" font-size="10.00">src/3rdparty/hiir/hiir</text>
<text xml:space="preserve" text-anchor="middle" x="457.78" y="-5.75" font-family="Helvetica,sans-Serif" font-size="10.00">/Downsampler2x4Sse.h</text>
</a>
</g>
</g>
<!-- Node1&#45;&gt;Node2 -->
<g id="edge1_Node000001_Node000002" class="edge">
<title>Node1&#45;&gt;Node2</title>
<g id="a_edge1_Node000001_Node000002"><a xlink:title=" ">
<path fill="none" stroke="#63b8ff" d="M952.62,-265.75C923.83,-257.48 889.45,-245.62 860.78,-230 859.98,-229.57 658.59,-66.9 657.78,-66.5 613.23,-44.31 558.1,-31.41 517,-24.24"/>
<polygon fill="#63b8ff" stroke="#63b8ff" points="951.33,-269.03 961.91,-268.34 953.21,-262.28 951.33,-269.03"/>
</a>
</g>
</g>
<!-- Node3 -->
<g id="Node000003" class="node">
<title>Node3</title>
<g id="a_Node000003"><a xlink:href="Downsampler2xSse_8h.html" target="_top" xlink:title=" ">
<polygon fill="white" stroke="#666666" points="1027.15,-230 914.4,-230 914.4,-199.5 1027.15,-199.5 1027.15,-230"/>
<text xml:space="preserve" text-anchor="start" x="922.4" y="-216.5" font-family="Helvetica,sans-Serif" font-size="10.00">src/3rdparty/hiir/hiir</text>
<text xml:space="preserve" text-anchor="middle" x="970.78" y="-205.25" font-family="Helvetica,sans-Serif" font-size="10.00">/Downsampler2xSse.h</text>
</a>
</g>
</g>
<!-- Node1&#45;&gt;Node3 -->
<g id="edge2_Node000001_Node000003" class="edge">
<title>Node1&#45;&gt;Node3</title>
<g id="a_edge2_Node000001_Node000003"><a xlink:title=" ">
<path fill="none" stroke="#63b8ff" d="M996.99,-256.01C991.36,-247.37 985.2,-237.91 980.27,-230.33"/>
<polygon fill="#63b8ff" stroke="#63b8ff" points="994.03,-257.88 1002.42,-264.35 999.9,-254.06 994.03,-257.88"/>
</a>
</g>
</g>
<!-- Node4 -->
<g id="Node000004" class="node">
<title>Node4</title>
<g id="a_Node000004"><a xlink:href="Downsampler2xSseOld_8h.html" target="_top" xlink:title=" ">
<polygon fill="white" stroke="#666666" points="1185.65,-30.5 1057.9,-30.5 1057.9,0 1185.65,0 1185.65,-30.5"/>
<text xml:space="preserve" text-anchor="start" x="1065.9" y="-17" font-family="Helvetica,sans-Serif" font-size="10.00">src/3rdparty/hiir/hiir</text>
<text xml:space="preserve" text-anchor="middle" x="1121.78" y="-5.75" font-family="Helvetica,sans-Serif" font-size="10.00">/Downsampler2xSseOld.h</text>
</a>
</g>
</g>
<!-- Node1&#45;&gt;Node4 -->
<g id="edge3_Node000001_Node000004" class="edge">
<title>Node1&#45;&gt;Node4</title>
<g id="a_edge3_Node000001_Node000004"><a xlink:title=" ">
<path fill="none" stroke="#63b8ff" d="M1025.16,-255.42C1028.88,-247.43 1032.76,-238.45 1035.78,-230 1061.06,-159.24 1043.91,-133.06 1078.78,-66.5 1085.81,-53.07 1097.02,-40.13 1106.23,-30.75"/>
<polygon fill="#63b8ff" stroke="#63b8ff" points="1022.12,-253.68 1020.96,-264.21 1028.43,-256.7 1022.12,-253.68"/>
</a>
</g>
</g>
<!-- Node5 -->
<g id="Node000005" class="node">
<title>Node5</title>
<g id="a_Node000005"><a xlink:href="HalfBand4Sse_8h.html" target="_top" xlink:title=" ">
<polygon fill="white" stroke="#666666" points="144.03,-30.5 45.53,-30.5 45.53,0 144.03,0 144.03,-30.5"/>
<text xml:space="preserve" text-anchor="start" x="53.53" y="-17" font-family="Helvetica,sans-Serif" font-size="10.00">src/3rdparty/hiir/hiir</text>
<text xml:space="preserve" text-anchor="middle" x="94.78" y="-5.75" font-family="Helvetica,sans-Serif" font-size="10.00">/HalfBand4Sse.h</text>
</a>
</g>
</g>
<!-- Node1&#45;&gt;Node5 -->
<g id="edge4_Node000001_Node000005" class="edge">
<title>Node1&#45;&gt;Node5</title>
<g id="a_edge4_Node000001_Node000005"><a xlink:title=" ">
<path fill="none" stroke="#63b8ff" d="M951.73,-278.5C849.67,-274.71 638.31,-263.24 462.78,-230 254.93,-190.64 132.75,-266.19 5.78,-97 -2.36,-86.16 -1.06,-78.21 5.78,-66.5 15.35,-50.1 32.47,-38.63 49.15,-30.84"/>
<polygon fill="#63b8ff" stroke="#63b8ff" points="951.4,-281.99 961.52,-278.85 951.65,-274.99 951.4,-281.99"/>
</a>
</g>
</g>
<!-- Node6 -->
<g id="Node000006" class="node">
<title>Node6</title>
<g id="a_Node000006"><a xlink:href="HalfBandSse_8h.html" target="_top" xlink:title=" ">
<polygon fill="white" stroke="#666666" points="1838.03,-30.5 1739.53,-30.5 1739.53,0 1838.03,0 1838.03,-30.5"/>
<text xml:space="preserve" text-anchor="start" x="1747.53" y="-17" font-family="Helvetica,sans-Serif" font-size="10.00">src/3rdparty/hiir/hiir</text>
<text xml:space="preserve" text-anchor="middle" x="1788.78" y="-5.75" font-family="Helvetica,sans-Serif" font-size="10.00">/HalfBandSse.h</text>
</a>
</g>
</g>
<!-- Node1&#45;&gt;Node6 -->
<g id="edge5_Node000001_Node000006" class="edge">
<title>Node1&#45;&gt;Node6</title>
<g id="a_edge5_Node000001_Node000006"><a xlink:title=" ">
<path fill="none" stroke="#63b8ff" d="M1073.77,-278.45C1170.52,-274.65 1364.71,-263.24 1525.78,-230 1620.83,-210.38 1649.75,-212.07 1733.78,-163.5 1771.77,-141.54 1789.04,-137.15 1806.78,-97 1816.47,-75.06 1805.86,-47.38 1797.31,-30.79"/>
<polygon fill="#63b8ff" stroke="#63b8ff" points="1073.84,-274.94 1063.97,-278.81 1074.1,-281.94 1073.84,-274.94"/>
</a>
</g>
</g>
<!-- Node7 -->
<g id="Node000007" class="node">
<title>Node7</title>
<g id="a_Node000007"><a xlink:href="PhaseHalfPi4Sse_8h.html" target="_top" xlink:title=" ">
<polygon fill="white" stroke="#666666" points="667.65,-30.5 563.9,-30.5 563.9,0 667.65,0 667.65,-30.5"/>
<text xml:space="preserve" text-anchor="start" x="571.9" y="-17" font-family="Helvetica,sans-Serif" font-size="10.00">src/3rdparty/hiir/hiir</text>
<text xml:space="preserve" text-anchor="middle" x="615.78" y="-5.75" font-family="Helvetica,sans-Serif" font-size="10.00">/PhaseHalfPi4Sse.h</text>
</a>
</g>
</g>
<!-- Node1&#45;&gt;Node7 -->
<g id="edge6_Node000001_Node000007" class="edge">
<title>Node1&#45;&gt;Node7</title>
<g id="a_edge6_Node000001_Node000007"><a xlink:title=" ">
<path fill="none" stroke="#63b8ff" d="M952.32,-268.51C928.21,-261.09 901.93,-249.13 883.78,-230 831.1,-174.49 886.23,-118.17 829.78,-66.5 806.45,-45.15 723.62,-30.38 668.12,-22.62"/>
<polygon fill="#63b8ff" stroke="#63b8ff" points="951.18,-271.83 961.75,-271.2 953.09,-265.09 951.18,-271.83"/>
</a>
</g>
</g>
<!-- Node8 -->
<g id="Node000008" class="node">
<title>Node8</title>
<g id="a_Node000008"><a xlink:href="PhaseHalfPiSse_8h.html" target="_top" xlink:title=" ">
<polygon fill="white" stroke="#666666" points="1690.03,-30.5 1591.53,-30.5 1591.53,0 1690.03,0 1690.03,-30.5"/>
<text xml:space="preserve" text-anchor="start" x="1599.53" y="-17" font-family="Helvetica,sans-Serif" font-size="10.00">src/3rdparty/hiir/hiir</text>
<text xml:space="preserve" text-anchor="middle" x="1640.78" y="-5.75" font-family="Helvetica,sans-Serif" font-size="10.00">/PhaseHalfPiSse.h</text>
</a>
</g>
</g>
<!-- Node1&#45;&gt;Node8 -->
<g id="edge7_Node000001_Node000008" class="edge">
<title>Node1&#45;&gt;Node8</title>
<g id="a_edge7_Node000001_Node000008"><a xlink:title=" ">
<path fill="none" stroke="#63b8ff" d="M1073.83,-275.81C1242.01,-262.14 1705.16,-214.31 1789.78,-97 1818.95,-56.55 1744.17,-34.27 1690.31,-23.82"/>
<polygon fill="#63b8ff" stroke="#63b8ff" points="1073.68,-272.31 1063.99,-276.6 1074.23,-279.29 1073.68,-272.31"/>
</a>
</g>
</g>
<!-- Node9 -->
<g id="Node000009" class="node">
<title>Node9</title>
<g id="a_Node000009"><a xlink:href="StageProc4Sse_8hpp.html" target="_top" xlink:title=" ">
<polygon fill="white" stroke="#666666" points="577.4,-230 472.15,-230 472.15,-199.5 577.4,-199.5 577.4,-230"/>
<text xml:space="preserve" text-anchor="start" x="480.15" y="-216.5" font-family="Helvetica,sans-Serif" font-size="10.00">src/3rdparty/hiir/hiir</text>
<text xml:space="preserve" text-anchor="middle" x="524.78" y="-205.25" font-family="Helvetica,sans-Serif" font-size="10.00">/StageProc4Sse.hpp</text>
</a>
</g>
</g>
<!-- Node1&#45;&gt;Node9 -->
<g id="edge8_Node000001_Node000009" class="edge">
<title>Node1&#45;&gt;Node9</title>
<g id="a_edge8_Node000001_Node000009"><a xlink:title=" ">
<path fill="none" stroke="#63b8ff" d="M951.99,-272.22C855.53,-259.47 669,-234.81 577.7,-222.75"/>
<polygon fill="#63b8ff" stroke="#63b8ff" points="951.43,-275.67 961.8,-273.51 952.34,-268.73 951.43,-275.67"/>
</a>
</g>
</g>
<!-- Node19 -->
<g id="Node000019" class="node">
<title>Node19</title>
<g id="a_Node000019"><a xlink:href="Upsampler2x4Sse_8h.html" target="_top" xlink:title=" ">
<polygon fill="white" stroke="#666666" points="877.78,-30.5 771.78,-30.5 771.78,0 877.78,0 877.78,-30.5"/>
<text xml:space="preserve" text-anchor="start" x="779.78" y="-17" font-family="Helvetica,sans-Serif" font-size="10.00">src/3rdparty/hiir/hiir</text>
<text xml:space="preserve" text-anchor="middle" x="824.78" y="-5.75" font-family="Helvetica,sans-Serif" font-size="10.00">/Upsampler2x4Sse.h</text>
</a>
</g>
</g>
<!-- Node1&#45;&gt;Node19 -->
<g id="edge31_Node000001_Node000019" class="edge">
<title>Node1&#45;&gt;Node19</title>
<g id="a_edge31_Node000001_Node000019"><a xlink:title=" ">
<path fill="none" stroke="#63b8ff" d="M953.08,-263.07C935.69,-255.45 918.07,-244.76 905.78,-230 857.69,-172.26 895.62,-134.08 862.78,-66.5 856.37,-53.32 846.26,-40.17 838.08,-30.63"/>
<polygon fill="#63b8ff" stroke="#63b8ff" points="951.28,-266.11 961.86,-266.63 953.91,-259.63 951.28,-266.11"/>
</a>
</g>
</g>
<!-- Node20 -->
<g id="Node000020" class="node">
<title>Node20</title>
<g id="a_Node000020"><a xlink:href="StageProcSseV4_8hpp.html" target="_top" xlink:title=" ">
<polygon fill="white" stroke="#666666" points="1380.78,-230 1268.78,-230 1268.78,-199.5 1380.78,-199.5 1380.78,-230"/>
<text xml:space="preserve" text-anchor="start" x="1276.78" y="-216.5" font-family="Helvetica,sans-Serif" font-size="10.00">src/3rdparty/hiir/hiir</text>
<text xml:space="preserve" text-anchor="middle" x="1324.78" y="-205.25" font-family="Helvetica,sans-Serif" font-size="10.00">/StageProcSseV4.hpp</text>
</a>
</g>
</g>
<!-- Node1&#45;&gt;Node20 -->
<g id="edge20_Node000001_Node000020" class="edge">
<title>Node1&#45;&gt;Node20</title>
<g id="a_edge20_Node000001_Node000020"><a xlink:title=" ">
<path fill="none" stroke="#63b8ff" d="M1073.48,-267.7C1129.95,-256.03 1213.43,-238.77 1268.45,-227.4"/>
<polygon fill="#63b8ff" stroke="#63b8ff" points="1072.78,-264.27 1063.7,-269.72 1074.2,-271.13 1072.78,-264.27"/>
</a>
</g>
</g>
<!-- Node28 -->
<g id="Node000028" class="node">
<title>Node28</title>
<g id="a_Node000028"><a xlink:href="Upsampler2xSseOld_8h.html" target="_top" xlink:title=" ">
<polygon fill="white" stroke="#666666" points="1392.65,-30.5 1276.9,-30.5 1276.9,0 1392.65,0 1392.65,-30.5"/>
<text xml:space="preserve" text-anchor="start" x="1284.9" y="-17" font-family="Helvetica,sans-Serif" font-size="10.00">src/3rdparty/hiir/hiir</text>
<text xml:space="preserve" text-anchor="middle" x="1334.78" y="-5.75" font-family="Helvetica,sans-Serif" font-size="10.00">/Upsampler2xSseOld.h</text>
</a>
</g>
</g>
<!-- Node1&#45;&gt;Node28 -->
<g id="edge33_Node000001_Node000028" class="edge">
<title>Node1&#45;&gt;Node28</title>
<g id="a_edge33_Node000001_Node000028"><a xlink:title=" ">
<path fill="none" stroke="#63b8ff" d="M1034.88,-257.37C1041.93,-249.2 1049.32,-239.63 1054.78,-230 1092.74,-163.06 1054.35,-117.73 1111.78,-66.5 1135.8,-45.07 1218.95,-30.62 1276.63,-22.91"/>
<polygon fill="#63b8ff" stroke="#63b8ff" points="1032.29,-255.02 1028.19,-264.8 1037.49,-259.71 1032.29,-255.02"/>
</a>
</g>
</g>
<!-- Node29 -->
<g id="Node000029" class="node">
<title>Node29</title>
<g id="a_Node000029"><a xlink:href="Upsampler2xSse_8h.html" target="_top" xlink:title=" ">
<polygon fill="white" stroke="#666666" points="1975.15,-230 1874.4,-230 1874.4,-199.5 1975.15,-199.5 1975.15,-230"/>
<text xml:space="preserve" text-anchor="start" x="1882.4" y="-216.5" font-family="Helvetica,sans-Serif" font-size="10.00">src/3rdparty/hiir/hiir</text>
<text xml:space="preserve" text-anchor="middle" x="1924.78" y="-205.25" font-family="Helvetica,sans-Serif" font-size="10.00">/Upsampler2xSse.h</text>
</a>
</g>
</g>
<!-- Node1&#45;&gt;Node29 -->
<g id="edge32_Node000001_Node000029" class="edge">
<title>Node1&#45;&gt;Node29</title>
<g id="a_edge32_Node000001_Node000029"><a xlink:title=" ">
<path fill="none" stroke="#63b8ff" d="M1073.54,-279.97C1213.24,-278.61 1567.77,-271.03 1860.78,-230 1865.06,-229.4 1869.48,-228.66 1873.91,-227.85"/>
<polygon fill="#63b8ff" stroke="#63b8ff" points="1073.76,-276.47 1063.79,-280.06 1073.82,-283.47 1073.76,-276.47"/>
</a>
</g>
</g>
<!-- Node10 -->
<g id="Node000010" class="node">
<title>Node10</title>
<g id="a_Node000010"><a xlink:href="StageProc4Sse_8h.html" target="_top" xlink:title=" ">
<polygon fill="white" stroke="#666666" points="502.03,-163.5 403.53,-163.5 403.53,-133 502.03,-133 502.03,-163.5"/>
<text xml:space="preserve" text-anchor="start" x="411.53" y="-150" font-family="Helvetica,sans-Serif" font-size="10.00">src/3rdparty/hiir/hiir</text>
<text xml:space="preserve" text-anchor="middle" x="452.78" y="-138.75" font-family="Helvetica,sans-Serif" font-size="10.00">/StageProc4Sse.h</text>
</a>
</g>
</g>
<!-- Node9&#45;&gt;Node10 -->
<g id="edge9_Node000009_Node000010" class="edge">
<title>Node9&#45;&gt;Node10</title>
<g id="a_edge9_Node000009_Node000010"><a xlink:title=" ">
<path fill="none" stroke="#63b8ff" d="M499.9,-191.46C489.69,-182.32 478.15,-171.98 469.05,-163.83"/>
<polygon fill="#63b8ff" stroke="#63b8ff" points="497.53,-194.04 507.31,-198.1 502.2,-188.82 497.53,-194.04"/>
</a>
</g>
</g>
<!-- Node11 -->
<g id="Node000011" class="node">
<title>Node11</title>
<g id="a_Node000011"><a xlink:href="Downsampler2x4Sse_8hpp.html" target="_top" xlink:title=" ">
<polygon fill="white" stroke="#666666" points="517.03,-97 388.53,-97 388.53,-66.5 517.03,-66.5 517.03,-97"/>
<text xml:space="preserve" text-anchor="start" x="396.53" y="-83.5" font-family="Helvetica,sans-Serif" font-size="10.00">src/3rdparty/hiir/hiir</text>
<text xml:space="preserve" text-anchor="middle" x="452.78" y="-72.25" font-family="Helvetica,sans-Serif" font-size="10.00">/Downsampler2x4Sse.hpp</text>
</a>
</g>
</g>
<!-- Node10&#45;&gt;Node11 -->
<g id="edge10_Node000010_Node000011" class="edge">
<title>Node10&#45;&gt;Node11</title>
<g id="a_edge10_Node000010_Node000011"><a xlink:title=" ">
<path fill="none" stroke="#63b8ff" d="M452.78,-121.31C452.78,-113.14 452.78,-104.41 452.78,-97.33"/>
<polygon fill="#63b8ff" stroke="#63b8ff" points="449.28,-121.1 452.78,-131.1 456.28,-121.1 449.28,-121.1"/>
</a>
</g>
</g>
<!-- Node12 -->
<g id="Node000012" class="node">
<title>Node12</title>
<g id="a_Node000012"><a xlink:href="HalfBand16Avx512_8hpp.html" target="_top" xlink:title=" ">
<polygon fill="#fff0f0" stroke="red" points="134.9,-97 14.65,-97 14.65,-66.5 134.9,-66.5 134.9,-97"/>
<text xml:space="preserve" text-anchor="start" x="22.65" y="-83.5" font-family="Helvetica,sans-Serif" font-size="10.00">src/3rdparty/hiir/hiir</text>
<text xml:space="preserve" text-anchor="middle" x="74.78" y="-72.25" font-family="Helvetica,sans-Serif" font-size="10.00">/HalfBand16Avx512.hpp</text>
</a>
</g>
</g>
<!-- Node10&#45;&gt;Node12 -->
<g id="edge12_Node000010_Node000012" class="edge">
<title>Node10&#45;&gt;Node12</title>
<g id="a_edge12_Node000010_Node000012"><a xlink:title=" ">
<path fill="none" stroke="#63b8ff" d="M391.96,-138.14C329.54,-128.61 229.69,-112.85 143.78,-97 141.01,-96.49 138.18,-95.96 135.33,-95.41"/>
<polygon fill="#63b8ff" stroke="#63b8ff" points="391.25,-141.57 401.67,-139.62 392.31,-134.65 391.25,-141.57"/>
</a>
</g>
</g>
<!-- Node14 -->
<g id="Node000014" class="node">
<title>Node14</title>
<g id="a_Node000014"><a xlink:href="HalfBand4Sse_8hpp.html" target="_top" xlink:title=" ">
<polygon fill="white" stroke="#666666" points="252.78,-97 152.78,-97 152.78,-66.5 252.78,-66.5 252.78,-97"/>
<text xml:space="preserve" text-anchor="start" x="160.78" y="-83.5" font-family="Helvetica,sans-Serif" font-size="10.00">src/3rdparty/hiir/hiir</text>
<text xml:space="preserve" text-anchor="middle" x="202.78" y="-72.25" font-family="Helvetica,sans-Serif" font-size="10.00">/HalfBand4Sse.hpp</text>
</a>
</g>
</g>
<!-- Node10&#45;&gt;Node14 -->
<g id="edge13_Node000010_Node000014" class="edge">
<title>Node10&#45;&gt;Node14</title>
<g id="a_edge13_Node000010_Node000014"><a xlink:title=" ">
<path fill="none" stroke="#63b8ff" d="M392.03,-131.58C349.49,-120.6 293.3,-106.11 253.23,-95.77"/>
<polygon fill="#63b8ff" stroke="#63b8ff" points="391.06,-134.94 401.62,-134.05 392.81,-128.16 391.06,-134.94"/>
</a>
</g>
</g>
<!-- Node15 -->
<g id="Node000015" class="node">
<title>Node15</title>
<g id="a_Node000015"><a xlink:href="HalfBand8Avx_8hpp.html" target="_top" xlink:title=" ">
<polygon fill="#fff0f0" stroke="red" points="370.4,-97 271.15,-97 271.15,-66.5 370.4,-66.5 370.4,-97"/>
<text xml:space="preserve" text-anchor="start" x="279.15" y="-83.5" font-family="Helvetica,sans-Serif" font-size="10.00">src/3rdparty/hiir/hiir</text>
<text xml:space="preserve" text-anchor="middle" x="320.78" y="-72.25" font-family="Helvetica,sans-Serif" font-size="10.00">/HalfBand8Avx.hpp</text>
</a>
</g>
</g>
<!-- Node10&#45;&gt;Node15 -->
<g id="edge15_Node000010_Node000015" class="edge">
<title>Node10&#45;&gt;Node15</title>
<g id="a_edge15_Node000010_Node000015"><a xlink:title=" ">
<path fill="none" stroke="#63b8ff" d="M412.49,-127.56C392.55,-117.82 368.9,-106.26 350.61,-97.33"/>
<polygon fill="#63b8ff" stroke="#63b8ff" points="410.94,-130.7 421.46,-131.95 414.02,-124.41 410.94,-130.7"/>
</a>
</g>
</g>
<!-- Node17 -->
<g id="Node000017" class="node">
<title>Node17</title>
<g id="a_Node000017"><a xlink:href="PhaseHalfPi4Sse_8hpp.html" target="_top" xlink:title=" ">
<polygon fill="white" stroke="#666666" points="648.9,-97 534.65,-97 534.65,-66.5 648.9,-66.5 648.9,-97"/>
<text xml:space="preserve" text-anchor="start" x="542.65" y="-83.5" font-family="Helvetica,sans-Serif" font-size="10.00">src/3rdparty/hiir/hiir</text>
<text xml:space="preserve" text-anchor="middle" x="591.78" y="-72.25" font-family="Helvetica,sans-Serif" font-size="10.00">/PhaseHalfPi4Sse.hpp</text>
</a>
</g>
</g>
<!-- Node10&#45;&gt;Node17 -->
<g id="edge16_Node000010_Node000017" class="edge">
<title>Node10&#45;&gt;Node17</title>
<g id="a_edge16_Node000010_Node000017"><a xlink:title=" ">
<path fill="none" stroke="#63b8ff" d="M494.62,-127.83C515.74,-118.03 540.92,-106.35 560.36,-97.33"/>
<polygon fill="#63b8ff" stroke="#63b8ff" points="493.29,-124.59 485.69,-131.98 496.24,-130.94 493.29,-124.59"/>
</a>
</g>
</g>
<!-- Node18 -->
<g id="Node000018" class="node">
<title>Node18</title>
<g id="a_Node000018"><a xlink:href="Upsampler2x4Sse_8hpp.html" target="_top" xlink:title=" ">
<polygon fill="white" stroke="#666666" points="821.03,-97 704.53,-97 704.53,-66.5 821.03,-66.5 821.03,-97"/>
<text xml:space="preserve" text-anchor="start" x="712.53" y="-83.5" font-family="Helvetica,sans-Serif" font-size="10.00">src/3rdparty/hiir/hiir</text>
<text xml:space="preserve" text-anchor="middle" x="762.78" y="-72.25" font-family="Helvetica,sans-Serif" font-size="10.00">/Upsampler2x4Sse.hpp</text>
</a>
</g>
</g>
<!-- Node10&#45;&gt;Node18 -->
<g id="edge18_Node000010_Node000018" class="edge">
<title>Node10&#45;&gt;Node18</title>
<g id="a_edge18_Node000010_Node000018"><a xlink:title=" ">
<path fill="none" stroke="#63b8ff" d="M513.27,-134.66C568.5,-123.17 649.63,-106.29 704.24,-94.93"/>
<polygon fill="#63b8ff" stroke="#63b8ff" points="512.8,-131.19 503.72,-136.65 514.23,-138.04 512.8,-131.19"/>
</a>
</g>
</g>
<!-- Node11&#45;&gt;Node2 -->
<g id="edge11_Node000011_Node000002" class="edge">
<title>Node11&#45;&gt;Node2</title>
<g id="a_edge11_Node000011_Node000002"><a xlink:title=" ">
<path fill="none" stroke="#63b8ff" d="M454.79,-54.81C455.42,-46.64 456.1,-37.91 456.65,-30.83"/>
<polygon fill="#63b8ff" stroke="#63b8ff" points="451.31,-54.36 454.03,-64.6 458.29,-54.91 451.31,-54.36"/>
</a>
</g>
</g>
<!-- Node14&#45;&gt;Node5 -->
<g id="edge14_Node000014_Node000005" class="edge">
<title>Node14&#45;&gt;Node5</title>
<g id="a_edge14_Node000014_Node000005"><a xlink:title=" ">
<path fill="none" stroke="#63b8ff" d="M168.68,-60.39C152.61,-50.79 133.81,-39.56 119.19,-30.83"/>
<polygon fill="#63b8ff" stroke="#63b8ff" points="166.59,-63.22 176.97,-65.34 170.18,-57.21 166.59,-63.22"/>
</a>
</g>
</g>
<!-- Node17&#45;&gt;Node7 -->
<g id="edge17_Node000017_Node000007" class="edge">
<title>Node17&#45;&gt;Node7</title>
<g id="a_edge17_Node000017_Node000007"><a xlink:title=" ">
<path fill="none" stroke="#63b8ff" d="M601.22,-55.38C604.32,-47.05 607.66,-38.08 610.35,-30.83"/>
<polygon fill="#63b8ff" stroke="#63b8ff" points="597.96,-54.1 597.75,-64.7 604.52,-56.54 597.96,-54.1"/>
</a>
</g>
</g>
<!-- Node18&#45;&gt;Node19 -->
<g id="edge19_Node000018_Node000019" class="edge">
<title>Node18&#45;&gt;Node19</title>
<g id="a_edge19_Node000018_Node000019"><a xlink:title=" ">
<path fill="none" stroke="#63b8ff" d="M784.73,-57.91C793.39,-48.9 803.08,-38.82 810.76,-30.83"/>
<polygon fill="#63b8ff" stroke="#63b8ff" points="782.3,-55.39 777.89,-65.02 787.35,-60.24 782.3,-55.39"/>
</a>
</g>
</g>
<!-- Node21 -->
<g id="Node000021" class="node">
<title>Node21</title>
<g id="a_Node000021"><a xlink:href="StageProcSseV4_8h.html" target="_top" xlink:title=" ">
<polygon fill="white" stroke="#666666" points="1454.53,-163.5 1353.03,-163.5 1353.03,-133 1454.53,-133 1454.53,-163.5"/>
<text xml:space="preserve" text-anchor="start" x="1361.03" y="-150" font-family="Helvetica,sans-Serif" font-size="10.00">src/3rdparty/hiir/hiir</text>
<text xml:space="preserve" text-anchor="middle" x="1403.78" y="-138.75" font-family="Helvetica,sans-Serif" font-size="10.00">/StageProcSseV4.h</text>
</a>
</g>
</g>
<!-- Node20&#45;&gt;Node21 -->
<g id="edge21_Node000020_Node000021" class="edge">
<title>Node20&#45;&gt;Node21</title>
<g id="a_edge21_Node000020_Node000021"><a xlink:title=" ">
<path fill="none" stroke="#63b8ff" d="M1351.39,-192.02C1362.76,-182.73 1375.73,-172.15 1385.92,-163.83"/>
<polygon fill="#63b8ff" stroke="#63b8ff" points="1349.41,-189.12 1343.88,-198.16 1353.84,-194.54 1349.41,-189.12"/>
</a>
</g>
</g>
<!-- Node22 -->
<g id="Node000022" class="node">
<title>Node22</title>
<g id="a_Node000022"><a xlink:href="Downsampler2xSseOld_8hpp.html" target="_top" xlink:title=" ">
<polygon fill="white" stroke="#666666" points="1258.9,-97 1120.65,-97 1120.65,-66.5 1258.9,-66.5 1258.9,-97"/>
<text xml:space="preserve" text-anchor="start" x="1128.65" y="-83.5" font-family="Helvetica,sans-Serif" font-size="10.00">src/3rdparty/hiir/hiir</text>
<text xml:space="preserve" text-anchor="middle" x="1189.78" y="-72.25" font-family="Helvetica,sans-Serif" font-size="10.00">/Downsampler2xSseOld.hpp</text>
</a>
</g>
</g>
<!-- Node21&#45;&gt;Node22 -->
<g id="edge22_Node000021_Node000022" class="edge">
<title>Node21&#45;&gt;Node22</title>
<g id="a_edge22_Node000021_Node000022"><a xlink:title=" ">
<path fill="none" stroke="#63b8ff" d="M1343.97,-129.22C1310.66,-119.18 1269.72,-106.84 1238.39,-97.4"/>
<polygon fill="#63b8ff" stroke="#63b8ff" points="1342.92,-132.56 1353.5,-132.1 1344.94,-125.86 1342.92,-132.56"/>
</a>
</g>
</g>
<!-- Node23 -->
<g id="Node000023" class="node">
<title>Node23</title>
<g id="a_Node000023"><a xlink:href="HalfBandF64Sse2_8hpp.html" target="_top" xlink:title=" ">
<polygon fill="#fff0f0" stroke="red" points="1393.03,-97 1276.53,-97 1276.53,-66.5 1393.03,-66.5 1393.03,-97"/>
<text xml:space="preserve" text-anchor="start" x="1284.53" y="-83.5" font-family="Helvetica,sans-Serif" font-size="10.00">src/3rdparty/hiir/hiir</text>
<text xml:space="preserve" text-anchor="middle" x="1334.78" y="-72.25" font-family="Helvetica,sans-Serif" font-size="10.00">/HalfBandF64Sse2.hpp</text>
</a>
</g>
</g>
<!-- Node21&#45;&gt;Node23 -->
<g id="edge24_Node000021_Node000023" class="edge">
<title>Node21&#45;&gt;Node23</title>
<g id="a_edge24_Node000021_Node000023"><a xlink:title=" ">
<path fill="none" stroke="#63b8ff" d="M1379.94,-124.96C1370.15,-115.82 1359.09,-105.48 1350.37,-97.33"/>
<polygon fill="#63b8ff" stroke="#63b8ff" points="1377.32,-127.31 1387.01,-131.58 1382.1,-122.19 1377.32,-127.31"/>
</a>
</g>
</g>
<!-- Node25 -->
<g id="Node000025" class="node">
<title>Node25</title>
<g id="a_Node000025"><a xlink:href="HalfBandSse_8hpp.html" target="_top" xlink:title=" ">
<polygon fill="white" stroke="#666666" points="1781.03,-97 1682.53,-97 1682.53,-66.5 1781.03,-66.5 1781.03,-97"/>
<text xml:space="preserve" text-anchor="start" x="1690.53" y="-83.5" font-family="Helvetica,sans-Serif" font-size="10.00">src/3rdparty/hiir/hiir</text>
<text xml:space="preserve" text-anchor="middle" x="1731.78" y="-72.25" font-family="Helvetica,sans-Serif" font-size="10.00">/HalfBandSse.hpp</text>
</a>
</g>
</g>
<!-- Node21&#45;&gt;Node25 -->
<g id="edge25_Node000021_Node000025" class="edge">
<title>Node21&#45;&gt;Node25</title>
<g id="a_edge25_Node000021_Node000025"><a xlink:title=" ">
<path fill="none" stroke="#63b8ff" d="M1466.24,-136.66C1521.09,-127.12 1602.96,-112.28 1673.78,-97 1676.51,-96.41 1679.32,-95.79 1682.15,-95.14"/>
<polygon fill="#63b8ff" stroke="#63b8ff" points="1465.71,-133.2 1456.45,-138.36 1466.9,-140.1 1465.71,-133.2"/>
</a>
</g>
</g>
<!-- Node26 -->
<g id="Node000026" class="node">
<title>Node26</title>
<g id="a_Node000026"><a xlink:href="PhaseHalfPiSse_8hpp.html" target="_top" xlink:title=" ">
<polygon fill="white" stroke="#666666" points="1664.28,-97 1555.28,-97 1555.28,-66.5 1664.28,-66.5 1664.28,-97"/>
<text xml:space="preserve" text-anchor="start" x="1563.28" y="-83.5" font-family="Helvetica,sans-Serif" font-size="10.00">src/3rdparty/hiir/hiir</text>
<text xml:space="preserve" text-anchor="middle" x="1609.78" y="-72.25" font-family="Helvetica,sans-Serif" font-size="10.00">/PhaseHalfPiSse.hpp</text>
</a>
</g>
</g>
<!-- Node21&#45;&gt;Node26 -->
<g id="edge27_Node000021_Node000026" class="edge">
<title>Node21&#45;&gt;Node26</title>
<g id="a_edge27_Node000021_Node000026"><a xlink:title=" ">
<path fill="none" stroke="#63b8ff" d="M1461.77,-129.09C1493.76,-119.08 1532.96,-106.8 1562.98,-97.4"/>
<polygon fill="#63b8ff" stroke="#63b8ff" points="1460.72,-125.75 1452.22,-132.08 1462.81,-132.43 1460.72,-125.75"/>
</a>
</g>
</g>
<!-- Node27 -->
<g id="Node000027" class="node">
<title>Node27</title>
<g id="a_Node000027"><a xlink:href="Upsampler2xSseOld_8hpp.html" target="_top" xlink:title=" ">
<polygon fill="white" stroke="#666666" points="1536.9,-97 1410.65,-97 1410.65,-66.5 1536.9,-66.5 1536.9,-97"/>
<text xml:space="preserve" text-anchor="start" x="1418.65" y="-83.5" font-family="Helvetica,sans-Serif" font-size="10.00">src/3rdparty/hiir/hiir</text>
<text xml:space="preserve" text-anchor="middle" x="1473.78" y="-72.25" font-family="Helvetica,sans-Serif" font-size="10.00">/Upsampler2xSseOld.hpp</text>
</a>
</g>
</g>
<!-- Node21&#45;&gt;Node27 -->
<g id="edge29_Node000021_Node000027" class="edge">
<title>Node21&#45;&gt;Node27</title>
<g id="a_edge29_Node000021_Node000027"><a xlink:title=" ">
<path fill="none" stroke="#63b8ff" d="M1427.96,-124.96C1437.89,-115.82 1449.11,-105.48 1457.96,-97.33"/>
<polygon fill="#63b8ff" stroke="#63b8ff" points="1425.76,-122.24 1420.77,-131.59 1430.5,-127.39 1425.76,-122.24"/>
</a>
</g>
</g>
<!-- Node22&#45;&gt;Node4 -->
<g id="edge23_Node000022_Node000004" class="edge">
<title>Node22&#45;&gt;Node4</title>
<g id="a_edge23_Node000022_Node000004"><a xlink:title=" ">
<path fill="none" stroke="#63b8ff" d="M1166.28,-58.46C1156.64,-49.32 1145.74,-38.98 1137.15,-30.83"/>
<polygon fill="#63b8ff" stroke="#63b8ff" points="1163.58,-60.73 1173.25,-65.07 1168.4,-55.65 1163.58,-60.73"/>
</a>
</g>
</g>
<!-- Node25&#45;&gt;Node6 -->
<g id="edge26_Node000025_Node000006" class="edge">
<title>Node25&#45;&gt;Node6</title>
<g id="a_edge26_Node000025_Node000006"><a xlink:title=" ">
<path fill="none" stroke="#63b8ff" d="M1752.21,-57.63C1760.11,-48.69 1768.91,-38.74 1775.89,-30.83"/>
<polygon fill="#63b8ff" stroke="#63b8ff" points="1749.71,-55.17 1745.71,-64.98 1754.96,-59.8 1749.71,-55.17"/>
</a>
</g>
</g>
<!-- Node26&#45;&gt;Node8 -->
<g id="edge28_Node000026_Node000008" class="edge">
<title>Node26&#45;&gt;Node8</title>
<g id="a_edge28_Node000026_Node000008"><a xlink:title=" ">
<path fill="none" stroke="#63b8ff" d="M1621.7,-55.94C1625.78,-47.46 1630.21,-38.24 1633.77,-30.83"/>
<polygon fill="#63b8ff" stroke="#63b8ff" points="1618.64,-54.22 1617.47,-64.75 1624.95,-57.25 1618.64,-54.22"/>
</a>
</g>
</g>
<!-- Node27&#45;&gt;Node28 -->
<g id="edge30_Node000027_Node000028" class="edge">
<title>Node27&#45;&gt;Node28</title>
<g id="a_edge30_Node000027_Node000028"><a xlink:title=" ">
<path fill="none" stroke="#63b8ff" d="M1431.93,-61.33C1410.81,-51.53 1385.63,-39.85 1366.19,-30.83"/>
<polygon fill="#63b8ff" stroke="#63b8ff" points="1430.32,-64.44 1440.86,-65.48 1433.26,-58.09 1430.32,-64.44"/>
</a>
</g>
</g>
</g>
</svg>
