<?xml version="1.0" encoding="UTF-8" standalone="no"?>
<!DOCTYPE svg PUBLIC "-//W3C//DTD SVG 1.1//EN"
 "http://www.w3.org/Graphics/SVG/1.1/DTD/svg11.dtd">
<!-- Generated by graphviz version 14.0.2 (0)
 -->
<!-- Title: src/3rdparty/hiir/hiir/StageDataF64Sse2.h Pages: 1 -->
<svg width="1296pt" height="305pt"
 viewBox="0.00 0.00 1296.00 305.00" xmlns="http://www.w3.org/2000/svg" xmlns:xlink="http://www.w3.org/1999/xlink">
<g id="graph0" class="graph" transform="scale(1 1) rotate(0) translate(4 300.5)">
<title>src/3rdparty/hiir/hiir/StageDataF64Sse2.h</title>
<!-- Node1 -->
<g id="Node000001" class="node">
<title>Node1</title>
<g id="a_Node000001"><a xlink:title=" ">
<polygon fill="#999999" stroke="#666666" points="779.25,-296.5 668,-296.5 668,-266 779.25,-266 779.25,-296.5"/>
<text xml:space="preserve" text-anchor="start" x="676" y="-283" font-family="Helvetica,sans-Serif" font-size="10.00">src/3rdparty/hiir/hiir</text>
<text xml:space="preserve" text-anchor="middle" x="723.62" y="-271.75" font-family="Helvetica,sans-Serif" font-size="10.00">/StageDataF64Sse2.h</text>
</a>
</g>
</g>
<!-- Node2 -->
<g id="Node000002" class="node">
<title>Node2</title>
<g id="a_Node000002"><a xlink:href="Downsampler2x2F64Sse2_8h.html" target="_top" xlink:title=" ">
<polygon fill="white" stroke="#666666" points="306.5,-30.5 166.75,-30.5 166.75,0 306.5,0 306.5,-30.5"/>
<text xml:space="preserve" text-anchor="start" x="174.75" y="-17" font-family="Helvetica,sans-Serif" font-size="10.00">src/3rdparty/hiir/hiir</text>
<text xml:space="preserve" text-anchor="middle" x="236.62" y="-5.75" font-family="Helvetica,sans-Serif" font-size="10.00">/Downsampler2x2F64Sse2.h</text>
</a>
</g>
</g>
<!-- Node1&#45;&gt;Node2 -->
<g id="edge1_Node000001_Node000002" class="edge">
<title>Node1&#45;&gt;Node2</title>
<g id="a_edge1_Node000001_Node000002"><a xlink:title=" ">
<path fill="none" stroke="#63b8ff" d="M656.47,-272.62C500.24,-253.3 120.26,-196.78 48.62,-97 40.72,-85.99 40.37,-77.25 48.62,-66.5 63.23,-47.47 119.48,-34.09 166.68,-25.95"/>
<polygon fill="#63b8ff" stroke="#63b8ff" points="655.91,-276.08 666.26,-273.81 656.76,-269.13 655.91,-276.08"/>
</a>
</g>
</g>
<!-- Node3 -->
<g id="Node000003" class="node">
<title>Node3</title>
<g id="a_Node000003"><a xlink:href="Downsampler2xF64Sse2_8h.html" target="_top" xlink:title=" ">
<polygon fill="white" stroke="#666666" points="885.88,-230 751.38,-230 751.38,-199.5 885.88,-199.5 885.88,-230"/>
<text xml:space="preserve" text-anchor="start" x="759.38" y="-216.5" font-family="Helvetica,sans-Serif" font-size="10.00">src/3rdparty/hiir/hiir</text>
<text xml:space="preserve" text-anchor="middle" x="818.62" y="-205.25" font-family="Helvetica,sans-Serif" font-size="10.00">/Downsampler2xF64Sse2.h</text>
</a>
</g>
</g>
<!-- Node1&#45;&gt;Node3 -->
<g id="edge2_Node000001_Node000003" class="edge">
<title>Node1&#45;&gt;Node3</title>
<g id="a_edge2_Node000001_Node000003"><a xlink:title=" ">
<path fill="none" stroke="#63b8ff" d="M754.42,-259.34C768.38,-249.87 784.54,-238.89 797.15,-230.33"/>
<polygon fill="#63b8ff" stroke="#63b8ff" points="752.74,-256.25 746.43,-264.76 756.67,-262.04 752.74,-256.25"/>
</a>
</g>
</g>
<!-- Node4 -->
<g id="Node000004" class="node">
<title>Node4</title>
<g id="a_Node000004"><a xlink:href="HalfBand2F64Sse2_8h.html" target="_top" xlink:title=" ">
<polygon fill="white" stroke="#666666" points="111.25,-30.5 0,-30.5 0,0 111.25,0 111.25,-30.5"/>
<text xml:space="preserve" text-anchor="start" x="8" y="-17" font-family="Helvetica,sans-Serif" font-size="10.00">src/3rdparty/hiir/hiir</text>
<text xml:space="preserve" text-anchor="middle" x="55.62" y="-5.75" font-family="Helvetica,sans-Serif" font-size="10.00">/HalfBand2F64Sse2.h</text>
</a>
</g>
</g>
<!-- Node1&#45;&gt;Node4 -->
<g id="edge3_Node000001_Node000004" class="edge">
<title>Node1&#45;&gt;Node4</title>
<g id="a_edge3_Node000001_Node000004"><a xlink:title=" ">
<path fill="none" stroke="#63b8ff" d="M656.52,-278.62C565.41,-275.14 398.04,-264.22 259.62,-230 181.67,-210.73 156.16,-211.29 91.62,-163.5 61.25,-141.01 51.1,-132.68 38.62,-97 30.77,-74.55 40.25,-47.26 47.89,-30.85"/>
<polygon fill="#63b8ff" stroke="#63b8ff" points="656.16,-282.11 666.28,-278.97 656.41,-275.12 656.16,-282.11"/>
</a>
</g>
</g>
<!-- Node5 -->
<g id="Node000005" class="node">
<title>Node5</title>
<g id="a_Node000005"><a xlink:href="HalfBandF64Sse2_8h.html" target="_top" xlink:title=" ">
<polygon fill="white" stroke="#666666" points="1009.62,-230 903.62,-230 903.62,-199.5 1009.62,-199.5 1009.62,-230"/>
<text xml:space="preserve" text-anchor="start" x="911.62" y="-216.5" font-family="Helvetica,sans-Serif" font-size="10.00">src/3rdparty/hiir/hiir</text>
<text xml:space="preserve" text-anchor="middle" x="956.62" y="-205.25" font-family="Helvetica,sans-Serif" font-size="10.00">/HalfBandF64Sse2.h</text>
</a>
</g>
</g>
<!-- Node1&#45;&gt;Node5 -->
<g id="edge4_Node000001_Node000005" class="edge">
<title>Node1&#45;&gt;Node5</title>
<g id="a_edge4_Node000001_Node000005"><a xlink:title=" ">
<path fill="none" stroke="#63b8ff" d="M787.8,-262.49C824.23,-252.4 869.29,-239.93 903.69,-230.4"/>
<polygon fill="#63b8ff" stroke="#63b8ff" points="786.95,-259.09 778.25,-265.13 788.82,-265.83 786.95,-259.09"/>
</a>
</g>
</g>
<!-- Node6 -->
<g id="Node000006" class="node">
<title>Node6</title>
<g id="a_Node000006"><a xlink:href="PhaseHalfPi2F64Sse2_8h.html" target="_top" xlink:title=" ">
<polygon fill="white" stroke="#666666" points="719.38,-30.5 593.88,-30.5 593.88,0 719.38,0 719.38,-30.5"/>
<text xml:space="preserve" text-anchor="start" x="601.88" y="-17" font-family="Helvetica,sans-Serif" font-size="10.00">src/3rdparty/hiir/hiir</text>
<text xml:space="preserve" text-anchor="middle" x="656.62" y="-5.75" font-family="Helvetica,sans-Serif" font-size="10.00">/PhaseHalfPi2F64Sse2.h</text>
</a>
</g>
</g>
<!-- Node1&#45;&gt;Node6 -->
<g id="edge5_Node000001_Node000006" class="edge">
<title>Node1&#45;&gt;Node6</title>
<g id="a_edge5_Node000001_Node000006"><a xlink:title=" ">
<path fill="none" stroke="#63b8ff" d="M725.48,-254.28C727.42,-212.75 727.06,-129.67 699.62,-66.5 693.68,-52.81 682.68,-40.07 673.3,-30.84"/>
<polygon fill="#63b8ff" stroke="#63b8ff" points="721.99,-254.07 724.92,-264.25 728.98,-254.46 721.99,-254.07"/>
</a>
</g>
</g>
<!-- Node7 -->
<g id="Node000007" class="node">
<title>Node7</title>
<g id="a_Node000007"><a xlink:href="PhaseHalfPiF64Sse2_8h.html" target="_top" xlink:title=" ">
<polygon fill="white" stroke="#666666" points="1147.75,-230 1027.5,-230 1027.5,-199.5 1147.75,-199.5 1147.75,-230"/>
<text xml:space="preserve" text-anchor="start" x="1035.5" y="-216.5" font-family="Helvetica,sans-Serif" font-size="10.00">src/3rdparty/hiir/hiir</text>
<text xml:space="preserve" text-anchor="middle" x="1087.62" y="-205.25" font-family="Helvetica,sans-Serif" font-size="10.00">/PhaseHalfPiF64Sse2.h</text>
</a>
</g>
</g>
<!-- Node1&#45;&gt;Node7 -->
<g id="edge6_Node000001_Node000007" class="edge">
<title>Node1&#45;&gt;Node7</title>
<g id="a_edge6_Node000001_Node000007"><a xlink:title=" ">
<path fill="none" stroke="#63b8ff" d="M790.92,-269.47C850.79,-259.72 940.68,-244.68 1018.62,-230 1021.39,-229.48 1024.21,-228.94 1027.07,-228.38"/>
<polygon fill="#63b8ff" stroke="#63b8ff" points="790.54,-265.99 781.23,-271.05 791.66,-272.9 790.54,-265.99"/>
</a>
</g>
</g>
<!-- Node8 -->
<g id="Node000008" class="node">
<title>Node8</title>
<g id="a_Node000008"><a xlink:href="StageProc2F64Sse2_8hpp.html" target="_top" xlink:title=" ">
<polygon fill="white" stroke="#666666" points="578.12,-230 451.12,-230 451.12,-199.5 578.12,-199.5 578.12,-230"/>
<text xml:space="preserve" text-anchor="start" x="459.12" y="-216.5" font-family="Helvetica,sans-Serif" font-size="10.00">src/3rdparty/hiir/hiir</text>
<text xml:space="preserve" text-anchor="middle" x="514.62" y="-205.25" font-family="Helvetica,sans-Serif" font-size="10.00">/StageProc2F64Sse2.hpp</text>
</a>
</g>
</g>
<!-- Node1&#45;&gt;Node8 -->
<g id="edge7_Node000001_Node000008" class="edge">
<title>Node1&#45;&gt;Node8</title>
<g id="a_edge7_Node000001_Node000008"><a xlink:title=" ">
<path fill="none" stroke="#63b8ff" d="M665.22,-262.22C632.68,-252.18 592.7,-239.84 562.11,-230.4"/>
<polygon fill="#63b8ff" stroke="#63b8ff" points="663.9,-265.48 674.49,-265.09 665.97,-258.79 663.9,-265.48"/>
</a>
</g>
</g>
<!-- Node14 -->
<g id="Node000014" class="node">
<title>Node14</title>
<g id="a_Node000014"><a xlink:href="Upsampler2x2F64Sse2_8h.html" target="_top" xlink:title=" ">
<polygon fill="white" stroke="#666666" points="536.5,-30.5 408.75,-30.5 408.75,0 536.5,0 536.5,-30.5"/>
<text xml:space="preserve" text-anchor="start" x="416.75" y="-17" font-family="Helvetica,sans-Serif" font-size="10.00">src/3rdparty/hiir/hiir</text>
<text xml:space="preserve" text-anchor="middle" x="472.62" y="-5.75" font-family="Helvetica,sans-Serif" font-size="10.00">/Upsampler2x2F64Sse2.h</text>
</a>
</g>
</g>
<!-- Node1&#45;&gt;Node14 -->
<g id="edge17_Node000001_Node000014" class="edge">
<title>Node1&#45;&gt;Node14</title>
<g id="a_edge17_Node000001_Node000014"><a xlink:title=" ">
<path fill="none" stroke="#63b8ff" d="M720.03,-254.42C712.44,-203.54 693.25,-92.94 666.62,-66.5 648.29,-48.3 585.95,-34.31 536.82,-25.76"/>
<polygon fill="#63b8ff" stroke="#63b8ff" points="716.55,-254.82 721.45,-264.22 723.48,-253.82 716.55,-254.82"/>
</a>
</g>
</g>
<!-- Node15 -->
<g id="Node000015" class="node">
<title>Node15</title>
<g id="a_Node000015"><a xlink:href="Upsampler2xF64Sse2_8h.html" target="_top" xlink:title=" ">
<polygon fill="white" stroke="#666666" points="1287.88,-230 1165.38,-230 1165.38,-199.5 1287.88,-199.5 1287.88,-230"/>
<text xml:space="preserve" text-anchor="start" x="1173.38" y="-216.5" font-family="Helvetica,sans-Serif" font-size="10.00">src/3rdparty/hiir/hiir</text>
<text xml:space="preserve" text-anchor="middle" x="1226.62" y="-205.25" font-family="Helvetica,sans-Serif" font-size="10.00">/Upsampler2xF64Sse2.h</text>
</a>
</g>
</g>
<!-- Node1&#45;&gt;Node15 -->
<g id="edge18_Node000001_Node000015" class="edge">
<title>Node1&#45;&gt;Node15</title>
<g id="a_edge18_Node000001_Node000015"><a xlink:title=" ">
<path fill="none" stroke="#63b8ff" d="M790.88,-274.24C876.23,-266.2 1027.84,-250.54 1156.62,-230 1159.44,-229.55 1162.32,-229.07 1165.22,-228.56"/>
<polygon fill="#63b8ff" stroke="#63b8ff" points="790.68,-270.74 781.05,-275.16 791.33,-277.71 790.68,-270.74"/>
</a>
</g>
</g>
<!-- Node9 -->
<g id="Node000009" class="node">
<title>Node9</title>
<g id="a_Node000009"><a xlink:href="StageProc2F64Sse2_8h.html" target="_top" xlink:title=" ">
<polygon fill="white" stroke="#666666" points="492.88,-163.5 376.38,-163.5 376.38,-133 492.88,-133 492.88,-163.5"/>
<text xml:space="preserve" text-anchor="start" x="384.38" y="-150" font-family="Helvetica,sans-Serif" font-size="10.00">src/3rdparty/hiir/hiir</text>
<text xml:space="preserve" text-anchor="middle" x="434.62" y="-138.75" font-family="Helvetica,sans-Serif" font-size="10.00">/StageProc2F64Sse2.h</text>
</a>
</g>
</g>
<!-- Node8&#45;&gt;Node9 -->
<g id="edge8_Node000008_Node000009" class="edge">
<title>Node8&#45;&gt;Node9</title>
<g id="a_edge8_Node000008_Node000009"><a xlink:title=" ">
<path fill="none" stroke="#63b8ff" d="M487.67,-192.02C476.16,-182.73 463.02,-172.15 452.71,-163.83"/>
<polygon fill="#63b8ff" stroke="#63b8ff" points="485.31,-194.61 495.29,-198.16 489.71,-189.16 485.31,-194.61"/>
</a>
</g>
</g>
<!-- Node10 -->
<g id="Node000010" class="node">
<title>Node10</title>
<g id="a_Node000010"><a xlink:href="Downsampler2x2F64Sse2_8hpp.html" target="_top" xlink:title=" ">
<polygon fill="white" stroke="#666666" points="347.75,-97 197.5,-97 197.5,-66.5 347.75,-66.5 347.75,-97"/>
<text xml:space="preserve" text-anchor="start" x="205.5" y="-83.5" font-family="Helvetica,sans-Serif" font-size="10.00">src/3rdparty/hiir/hiir</text>
<text xml:space="preserve" text-anchor="middle" x="272.62" y="-72.25" font-family="Helvetica,sans-Serif" font-size="10.00">/Downsampler2x2F64Sse2.hpp</text>
</a>
</g>
</g>
<!-- Node9&#45;&gt;Node10 -->
<g id="edge9_Node000009_Node000010" class="edge">
<title>Node9&#45;&gt;Node10</title>
<g id="a_edge9_Node000009_Node000010"><a xlink:title=" ">
<path fill="none" stroke="#63b8ff" d="M387.24,-128.38C362.45,-118.51 332.56,-106.61 309.52,-97.44"/>
<polygon fill="#63b8ff" stroke="#63b8ff" points="385.87,-131.61 396.46,-132.05 388.46,-125.1 385.87,-131.61"/>
</a>
</g>
</g>
<!-- Node11 -->
<g id="Node000011" class="node">
<title>Node11</title>
<g id="a_Node000011"><a xlink:href="HalfBand2F64Sse2_8hpp.html" target="_top" xlink:title=" ">
<polygon fill="white" stroke="#666666" points="179.5,-97 57.75,-97 57.75,-66.5 179.5,-66.5 179.5,-97"/>
<text xml:space="preserve" text-anchor="start" x="65.75" y="-83.5" font-family="Helvetica,sans-Serif" font-size="10.00">src/3rdparty/hiir/hiir</text>
<text xml:space="preserve" text-anchor="middle" x="118.62" y="-72.25" font-family="Helvetica,sans-Serif" font-size="10.00">/HalfBand2F64Sse2.hpp</text>
</a>
</g>
</g>
<!-- Node9&#45;&gt;Node11 -->
<g id="edge11_Node000009_Node000011" class="edge">
<title>Node9&#45;&gt;Node11</title>
<g id="a_edge11_Node000009_Node000011"><a xlink:title=" ">
<path fill="none" stroke="#63b8ff" d="M364.81,-133C309.49,-121.71 232.96,-106.09 179.97,-95.27"/>
<polygon fill="#63b8ff" stroke="#63b8ff" points="363.95,-136.4 374.45,-134.97 365.35,-129.54 363.95,-136.4"/>
</a>
</g>
</g>
<!-- Node12 -->
<g id="Node000012" class="node">
<title>Node12</title>
<g id="a_Node000012"><a xlink:href="PhaseHalfPi2F64Sse2_8hpp.html" target="_top" xlink:title=" ">
<polygon fill="white" stroke="#666666" points="657.62,-97 521.62,-97 521.62,-66.5 657.62,-66.5 657.62,-97"/>
<text xml:space="preserve" text-anchor="start" x="529.62" y="-83.5" font-family="Helvetica,sans-Serif" font-size="10.00">src/3rdparty/hiir/hiir</text>
<text xml:space="preserve" text-anchor="middle" x="589.62" y="-72.25" font-family="Helvetica,sans-Serif" font-size="10.00">/PhaseHalfPi2F64Sse2.hpp</text>
</a>
</g>
</g>
<!-- Node9&#45;&gt;Node12 -->
<g id="edge13_Node000009_Node000012" class="edge">
<title>Node9&#45;&gt;Node12</title>
<g id="a_edge13_Node000009_Node000012"><a xlink:title=" ">
<path fill="none" stroke="#63b8ff" d="M480.29,-128.25C503.94,-118.41 532.38,-106.57 554.32,-97.44"/>
<polygon fill="#63b8ff" stroke="#63b8ff" points="479.08,-124.96 471.19,-132.03 481.77,-131.42 479.08,-124.96"/>
</a>
</g>
</g>
<!-- Node13 -->
<g id="Node000013" class="node">
<title>Node13</title>
<g id="a_Node000013"><a xlink:href="Upsampler2x2F64Sse2_8hpp.html" target="_top" xlink:title=" ">
<polygon fill="white" stroke="#666666" points="503.75,-97 365.5,-97 365.5,-66.5 503.75,-66.5 503.75,-97"/>
<text xml:space="preserve" text-anchor="start" x="373.5" y="-83.5" font-family="Helvetica,sans-Serif" font-size="10.00">src/3rdparty/hiir/hiir</text>
<text xml:space="preserve" text-anchor="middle" x="434.62" y="-72.25" font-family="Helvetica,sans-Serif" font-size="10.00">/Upsampler2x2F64Sse2.hpp</text>
</a>
</g>
</g>
<!-- Node9&#45;&gt;Node13 -->
<g id="edge15_Node000009_Node000013" class="edge">
<title>Node9&#45;&gt;Node13</title>
<g id="a_edge15_Node000009_Node000013"><a xlink:title=" ">
<path fill="none" stroke="#63b8ff" d="M434.62,-121.31C434.62,-113.14 434.62,-104.41 434.62,-97.33"/>
<polygon fill="#63b8ff" stroke="#63b8ff" points="431.13,-121.1 434.63,-131.1 438.13,-121.1 431.13,-121.1"/>
</a>
</g>
</g>
<!-- Node10&#45;&gt;Node2 -->
<g id="edge10_Node000010_Node000002" class="edge">
<title>Node10&#45;&gt;Node2</title>
<g id="a_edge10_Node000010_Node000002"><a xlink:title=" ">
<path fill="none" stroke="#63b8ff" d="M258.94,-56.23C254.16,-47.66 248.94,-38.32 244.76,-30.83"/>
<polygon fill="#63b8ff" stroke="#63b8ff" points="255.79,-57.77 263.72,-64.79 261.9,-54.35 255.79,-57.77"/>
</a>
</g>
</g>
<!-- Node11&#45;&gt;Node4 -->
<g id="edge12_Node000011_Node000004" class="edge">
<title>Node11&#45;&gt;Node4</title>
<g id="a_edge12_Node000011_Node000004"><a xlink:title=" ">
<path fill="none" stroke="#63b8ff" d="M96.32,-57.91C87.52,-48.9 77.67,-38.82 69.86,-30.83"/>
<polygon fill="#63b8ff" stroke="#63b8ff" points="93.78,-60.32 103.27,-65.03 98.79,-55.43 93.78,-60.32"/>
</a>
</g>
</g>
<!-- Node12&#45;&gt;Node6 -->
<g id="edge14_Node000012_Node000006" class="edge">
<title>Node12&#45;&gt;Node6</title>
<g id="a_edge14_Node000012_Node000006"><a xlink:title=" ">
<path fill="none" stroke="#63b8ff" d="M613.06,-58.19C622.49,-49.11 633.1,-38.9 641.48,-30.83"/>
<polygon fill="#63b8ff" stroke="#63b8ff" points="610.7,-55.61 605.92,-65.06 615.55,-60.65 610.7,-55.61"/>
</a>
</g>
</g>
<!-- Node13&#45;&gt;Node14 -->
<g id="edge16_Node000013_Node000014" class="edge">
<title>Node13&#45;&gt;Node14</title>
<g id="a_edge16_Node000013_Node000014"><a xlink:title=" ">
<path fill="none" stroke="#63b8ff" d="M449.07,-56.23C454.12,-47.66 459.62,-38.32 464.04,-30.83"/>
<polygon fill="#63b8ff" stroke="#63b8ff" points="446.08,-54.42 444.02,-64.81 452.11,-57.97 446.08,-54.42"/>
</a>
</g>
</g>
</g>
</svg>
