<?xml version="1.0" encoding="UTF-8" standalone="no"?>
<!DOCTYPE svg PUBLIC "-//W3C//DTD SVG 1.1//EN"
 "http://www.w3.org/Graphics/SVG/1.1/DTD/svg11.dtd">
<!-- Generated by graphviz version 14.0.2 (0)
 -->
<!-- Title: plugins/StereoEnhancer/StereoEnhancerControls.cpp Pages: 1 -->
<svg width="634pt" height="315pt"
 viewBox="0.00 0.00 634.00 315.00" xmlns="http://www.w3.org/2000/svg" xmlns:xlink="http://www.w3.org/1999/xlink">
<g id="graph0" class="graph" transform="scale(1 1) rotate(0) translate(4 310.75)">
<title>plugins/StereoEnhancer/StereoEnhancerControls.cpp</title>
<!-- Node1 -->
<g id="Node000001" class="node">
<title>Node1</title>
<g id="a_Node000001"><a xlink:title=" ">
<polygon fill="#999999" stroke="#666666" points="421.88,-306.75 279.88,-306.75 279.88,-276.25 421.88,-276.25 421.88,-306.75"/>
<text xml:space="preserve" text-anchor="start" x="287.88" y="-293.25" font-family="Helvetica,sans-Serif" font-size="10.00">plugins/StereoEnhancer</text>
<text xml:space="preserve" text-anchor="middle" x="350.88" y="-282" font-family="Helvetica,sans-Serif" font-size="10.00">/StereoEnhancerControls.cpp</text>
</a>
</g>
</g>
<!-- Node2 -->
<g id="Node000002" class="node">
<title>Node2</title>
<g id="a_Node000002"><a xlink:href="StereoEnhancerControls_8h.html" target="_top" xlink:title=" ">
<polygon fill="white" stroke="#666666" points="362.12,-185 233.62,-185 233.62,-165.75 362.12,-165.75 362.12,-185"/>
<text xml:space="preserve" text-anchor="middle" x="297.88" y="-171.5" font-family="Helvetica,sans-Serif" font-size="10.00">StereoEnhancerControls.h</text>
</a>
</g>
</g>
<!-- Node1&#45;&gt;Node2 -->
<g id="edge1_Node000001_Node000002" class="edge">
<title>Node1&#45;&gt;Node2</title>
<g id="a_edge1_Node000001_Node000002"><a xlink:title=" ">
<path fill="none" stroke="#63b8ff" d="M344.16,-276.05C334.72,-255.72 317.5,-218.63 306.93,-195.87"/>
<polygon fill="#63b8ff" stroke="#63b8ff" points="310.11,-194.42 302.73,-186.82 303.76,-197.36 310.11,-194.42"/>
</a>
</g>
</g>
<!-- Node60 -->
<g id="Node000060" class="node">
<title>Node60</title>
<g id="a_Node000060"><a xlink:href="StereoEnhancer_8h.html" target="_top" xlink:title=" ">
<polygon fill="white" stroke="#666666" points="442.12,-240.25 349.62,-240.25 349.62,-221 442.12,-221 442.12,-240.25"/>
<text xml:space="preserve" text-anchor="middle" x="395.88" y="-226.75" font-family="Helvetica,sans-Serif" font-size="10.00">StereoEnhancer.h</text>
</a>
</g>
</g>
<!-- Node1&#45;&gt;Node60 -->
<g id="edge9_Node000001_Node000060" class="edge">
<title>Node1&#45;&gt;Node60</title>
<g id="a_edge9_Node000001_Node000060"><a xlink:title=" ">
<path fill="none" stroke="#63b8ff" d="M362,-275.95C368.06,-268.02 375.62,-258.13 382.05,-249.71"/>
<polygon fill="#63b8ff" stroke="#63b8ff" points="384.73,-251.97 388.02,-241.9 379.17,-247.72 384.73,-251.97"/>
</a>
</g>
</g>
<!-- Node3 -->
<g id="Node000003" class="node">
<title>Node3</title>
<g id="a_Node000003"><a xlink:href="EffectControls_8h.html" target="_top" xlink:title=" ">
<polygon fill="white" stroke="#666666" points="183,-129.75 98.75,-129.75 98.75,-110.5 183,-110.5 183,-129.75"/>
<text xml:space="preserve" text-anchor="middle" x="140.88" y="-116.25" font-family="Helvetica,sans-Serif" font-size="10.00">EffectControls.h</text>
</a>
</g>
</g>
<!-- Node2&#45;&gt;Node3 -->
<g id="edge2_Node000002_Node000003" class="edge">
<title>Node2&#45;&gt;Node3</title>
<g id="a_edge2_Node000002_Node000003"><a xlink:title=" ">
<path fill="none" stroke="#63b8ff" d="M271.24,-165.34C245.75,-156.7 207.06,-143.57 178.45,-133.87"/>
<polygon fill="#63b8ff" stroke="#63b8ff" points="179.67,-130.59 169.07,-130.69 177.42,-137.22 179.67,-130.59"/>
</a>
</g>
</g>
<!-- Node55 -->
<g id="Node000055" class="node">
<title>Node55</title>
<g id="a_Node000055"><a xlink:href="StereoEnhancerControlDialog_8h.html" target="_top" xlink:title=" ">
<polygon fill="white" stroke="#666666" points="375,-129.75 224.75,-129.75 224.75,-110.5 375,-110.5 375,-129.75"/>
<text xml:space="preserve" text-anchor="middle" x="299.88" y="-116.25" font-family="Helvetica,sans-Serif" font-size="10.00">StereoEnhancerControlDialog.h</text>
</a>
</g>
</g>
<!-- Node2&#45;&gt;Node55 -->
<g id="edge7_Node000002_Node000055" class="edge">
<title>Node2&#45;&gt;Node55</title>
<g id="a_edge7_Node000002_Node000055"><a xlink:title=" ">
<path fill="none" stroke="#63b8ff" d="M298.21,-165.58C298.45,-158.99 298.8,-149.71 299.12,-141.32"/>
<polygon fill="#63b8ff" stroke="#63b8ff" points="302.6,-141.75 299.48,-131.62 295.61,-141.48 302.6,-141.75"/>
</a>
</g>
</g>
<!-- Node4 -->
<g id="Node000004" class="node">
<title>Node4</title>
<g id="a_Node000004"><a xlink:href="Model_8h.html" target="_top" xlink:title=" ">
<polygon fill="#fff0f0" stroke="red" points="49.75,-74.5 0,-74.5 0,-55.25 49.75,-55.25 49.75,-74.5"/>
<text xml:space="preserve" text-anchor="middle" x="24.88" y="-61" font-family="Helvetica,sans-Serif" font-size="10.00">Model.h</text>
</a>
</g>
</g>
<!-- Node3&#45;&gt;Node4 -->
<g id="edge3_Node000003_Node000004" class="edge">
<title>Node3&#45;&gt;Node4</title>
<g id="a_edge3_Node000003_Node000004"><a xlink:title=" ">
<path fill="none" stroke="#63b8ff" d="M121.2,-110.09C103.03,-101.75 75.79,-89.25 54.91,-79.66"/>
<polygon fill="#63b8ff" stroke="#63b8ff" points="56.57,-76.58 46.02,-75.58 53.65,-82.94 56.57,-76.58"/>
</a>
</g>
</g>
<!-- Node8 -->
<g id="Node000008" class="node">
<title>Node8</title>
<g id="a_Node000008"><a xlink:href="JournallingObject_8h.html" target="_top" xlink:title=" ">
<polygon fill="#fff0f0" stroke="red" points="166.12,-74.5 67.62,-74.5 67.62,-55.25 166.12,-55.25 166.12,-74.5"/>
<text xml:space="preserve" text-anchor="middle" x="116.88" y="-61" font-family="Helvetica,sans-Serif" font-size="10.00">JournallingObject.h</text>
</a>
</g>
</g>
<!-- Node3&#45;&gt;Node8 -->
<g id="edge4_Node000003_Node000008" class="edge">
<title>Node3&#45;&gt;Node8</title>
<g id="a_edge4_Node000003_Node000008"><a xlink:title=" ">
<path fill="none" stroke="#63b8ff" d="M136.91,-110.33C133.84,-103.51 129.46,-93.81 125.59,-85.2"/>
<polygon fill="#63b8ff" stroke="#63b8ff" points="128.85,-83.92 121.55,-76.24 122.46,-86.79 128.85,-83.92"/>
</a>
</g>
</g>
<!-- Node14 -->
<g id="Node000014" class="node">
<title>Node14</title>
<g id="a_Node000014"><a xlink:href="include_2Effect_8h.html" target="_top" xlink:title=" ">
<polygon fill="#fff0f0" stroke="red" points="232,-74.5 183.75,-74.5 183.75,-55.25 232,-55.25 232,-74.5"/>
<text xml:space="preserve" text-anchor="middle" x="207.88" y="-61" font-family="Helvetica,sans-Serif" font-size="10.00">Effect.h</text>
</a>
</g>
</g>
<!-- Node3&#45;&gt;Node14 -->
<g id="edge6_Node000003_Node000014" class="edge">
<title>Node3&#45;&gt;Node14</title>
<g id="a_edge6_Node000003_Node000014"><a xlink:title=" ">
<path fill="none" stroke="#63b8ff" d="M152.24,-110.09C161.92,-102.4 176.07,-91.15 187.68,-81.93"/>
<polygon fill="#63b8ff" stroke="#63b8ff" points="189.84,-84.68 195.49,-75.72 185.49,-79.2 189.84,-84.68"/>
</a>
</g>
</g>
<!-- Node10 -->
<g id="Node000010" class="node">
<title>Node10</title>
<g id="a_Node000010"><a xlink:href="LmmsTypes_8h.html" target="_top" xlink:title=" ">
<polygon fill="#fff0f0" stroke="red" points="422.62,-19.25 345.12,-19.25 345.12,0 422.62,0 422.62,-19.25"/>
<text xml:space="preserve" text-anchor="middle" x="383.88" y="-5.75" font-family="Helvetica,sans-Serif" font-size="10.00">LmmsTypes.h</text>
</a>
</g>
</g>
<!-- Node8&#45;&gt;Node10 -->
<g id="edge5_Node000008_Node000010" class="edge">
<title>Node8&#45;&gt;Node10</title>
<g id="a_edge5_Node000008_Node000010"><a xlink:title=" ">
<path fill="none" stroke="#63b8ff" d="M162.47,-54.78C210.14,-45.27 284.73,-30.4 333.96,-20.58"/>
<polygon fill="#63b8ff" stroke="#63b8ff" points="334.37,-24.07 343.49,-18.68 333,-17.2 334.37,-24.07"/>
</a>
</g>
</g>
<!-- Node56 -->
<g id="Node000056" class="node">
<title>Node56</title>
<g id="a_Node000056"><a xlink:href="EffectControlDialog_8h.html" target="_top" xlink:title=" ">
<polygon fill="#fff0f0" stroke="red" points="355.88,-74.5 249.88,-74.5 249.88,-55.25 355.88,-55.25 355.88,-74.5"/>
<text xml:space="preserve" text-anchor="middle" x="302.88" y="-61" font-family="Helvetica,sans-Serif" font-size="10.00">EffectControlDialog.h</text>
</a>
</g>
</g>
<!-- Node55&#45;&gt;Node56 -->
<g id="edge8_Node000055_Node000056" class="edge">
<title>Node55&#45;&gt;Node56</title>
<g id="a_edge8_Node000055_Node000056"><a xlink:title=" ">
<path fill="none" stroke="#63b8ff" d="M300.37,-110.33C300.74,-103.74 301.26,-94.46 301.74,-86.07"/>
<polygon fill="#63b8ff" stroke="#63b8ff" points="305.22,-86.55 302.28,-76.37 298.23,-86.16 305.22,-86.55"/>
</a>
</g>
</g>
<!-- Node60&#45;&gt;Node2 -->
<g id="edge18_Node000060_Node000002" class="edge">
<title>Node60&#45;&gt;Node2</title>
<g id="a_edge18_Node000060_Node000002"><a xlink:title=" ">
<path fill="none" stroke="#63b8ff" d="M379.25,-220.59C364.19,-212.41 341.73,-200.21 324.22,-190.69"/>
<polygon fill="#63b8ff" stroke="#63b8ff" points="326.37,-187.87 315.91,-186.18 323.03,-194.02 326.37,-187.87"/>
</a>
</g>
</g>
<!-- Node61 -->
<g id="Node000061" class="node">
<title>Node61</title>
<g id="a_Node000061"><a xlink:title=" ">
<polygon fill="#e0e0e0" stroke="#999999" points="428,-185 379.75,-185 379.75,-165.75 428,-165.75 428,-185"/>
<text xml:space="preserve" text-anchor="middle" x="403.88" y="-171.5" font-family="Helvetica,sans-Serif" font-size="10.00">Effect.h</text>
</a>
</g>
</g>
<!-- Node60&#45;&gt;Node61 -->
<g id="edge10_Node000060_Node000061" class="edge">
<title>Node60&#45;&gt;Node61</title>
<g id="a_edge10_Node000060_Node000061"><a xlink:title=" ">
<path fill="none" stroke="#63b8ff" d="M397.2,-220.83C398.19,-214.24 399.58,-204.96 400.84,-196.57"/>
<polygon fill="#63b8ff" stroke="#63b8ff" points="404.28,-197.26 402.3,-186.86 397.35,-196.22 404.28,-197.26"/>
</a>
</g>
</g>
<!-- Node62 -->
<g id="Node000062" class="node">
<title>Node62</title>
<g id="a_Node000062"><a xlink:href="DspEffectLibrary_8h.html" target="_top" xlink:title=" ">
<polygon fill="white" stroke="#666666" points="503.25,-129.75 408.5,-129.75 408.5,-110.5 503.25,-110.5 503.25,-129.75"/>
<text xml:space="preserve" text-anchor="middle" x="455.88" y="-116.25" font-family="Helvetica,sans-Serif" font-size="10.00">DspEffectLibrary.h</text>
</a>
</g>
</g>
<!-- Node60&#45;&gt;Node62 -->
<g id="edge11_Node000060_Node000062" class="edge">
<title>Node60&#45;&gt;Node62</title>
<g id="a_edge11_Node000060_Node000062"><a xlink:title=" ">
<path fill="none" stroke="#63b8ff" d="M406.41,-220.73C415.67,-212.38 428.88,-199.09 436.88,-185 444.66,-171.27 449.55,-154.04 452.41,-140.93"/>
<polygon fill="#63b8ff" stroke="#63b8ff" points="455.8,-141.85 454.27,-131.37 448.92,-140.51 455.8,-141.85"/>
</a>
</g>
</g>
<!-- Node62&#45;&gt;Node10 -->
<g id="edge15_Node000062_Node000010" class="edge">
<title>Node62&#45;&gt;Node10</title>
<g id="a_edge15_Node000062_Node000010"><a xlink:title=" ">
<path fill="none" stroke="#63b8ff" d="M441.23,-110.27C429.26,-102.32 412.76,-89.59 402.88,-74.5 394.23,-61.3 389.4,-44.03 386.78,-30.78"/>
<polygon fill="#63b8ff" stroke="#63b8ff" points="390.25,-30.34 385.14,-21.06 383.35,-31.5 390.25,-30.34"/>
</a>
</g>
</g>
<!-- Node63 -->
<g id="Node000063" class="node">
<title>Node63</title>
<g id="a_Node000063"><a xlink:title=" ">
<polygon fill="#e0e0e0" stroke="#999999" points="582.62,-19.25 529.12,-19.25 529.12,0 582.62,0 582.62,-19.25"/>
<text xml:space="preserve" text-anchor="middle" x="555.88" y="-5.75" font-family="Helvetica,sans-Serif" font-size="10.00">numbers</text>
</a>
</g>
</g>
<!-- Node62&#45;&gt;Node63 -->
<g id="edge12_Node000062_Node000063" class="edge">
<title>Node62&#45;&gt;Node63</title>
<g id="a_edge12_Node000062_Node000063"><a xlink:title=" ">
<path fill="none" stroke="#63b8ff" d="M466.85,-110.01C477.09,-101.3 492.6,-87.6 504.88,-74.5 518.64,-59.81 532.81,-41.79 542.71,-28.64"/>
<polygon fill="#63b8ff" stroke="#63b8ff" points="545.31,-31 548.46,-20.88 539.69,-26.83 545.31,-31"/>
</a>
</g>
</g>
<!-- Node64 -->
<g id="Node000064" class="node">
<title>Node64</title>
<g id="a_Node000064"><a xlink:href="lmms__math_8h.html" target="_top" xlink:title=" ">
<polygon fill="#fff0f0" stroke="red" points="626.12,-74.5 551.62,-74.5 551.62,-55.25 626.12,-55.25 626.12,-74.5"/>
<text xml:space="preserve" text-anchor="middle" x="588.88" y="-61" font-family="Helvetica,sans-Serif" font-size="10.00">lmms_math.h</text>
</a>
</g>
</g>
<!-- Node62&#45;&gt;Node64 -->
<g id="edge13_Node000062_Node000064" class="edge">
<title>Node62&#45;&gt;Node64</title>
<g id="a_edge13_Node000062_Node000064"><a xlink:title=" ">
<path fill="none" stroke="#63b8ff" d="M478.44,-110.09C499.65,-101.6 531.65,-88.79 555.75,-79.14"/>
<polygon fill="#63b8ff" stroke="#63b8ff" points="556.81,-82.48 564.8,-75.52 554.21,-75.98 556.81,-82.48"/>
</a>
</g>
</g>
<!-- Node24 -->
<g id="Node000024" class="node">
<title>Node24</title>
<g id="a_Node000024"><a xlink:href="SampleFrame_8h.html" target="_top" xlink:title=" ">
<polygon fill="#fff0f0" stroke="red" points="496,-74.5 411.75,-74.5 411.75,-55.25 496,-55.25 496,-74.5"/>
<text xml:space="preserve" text-anchor="middle" x="453.88" y="-61" font-family="Helvetica,sans-Serif" font-size="10.00">SampleFrame.h</text>
</a>
</g>
</g>
<!-- Node62&#45;&gt;Node24 -->
<g id="edge16_Node000062_Node000024" class="edge">
<title>Node62&#45;&gt;Node24</title>
<g id="a_edge16_Node000062_Node000024"><a xlink:title=" ">
<path fill="none" stroke="#63b8ff" d="M455.54,-110.33C455.3,-103.74 454.95,-94.46 454.63,-86.07"/>
<polygon fill="#63b8ff" stroke="#63b8ff" points="458.14,-86.23 454.27,-76.37 451.15,-86.5 458.14,-86.23"/>
</a>
</g>
</g>
<!-- Node64&#45;&gt;Node63 -->
<g id="edge14_Node000064_Node000063" class="edge">
<title>Node64&#45;&gt;Node63</title>
<g id="a_edge14_Node000064_Node000063"><a xlink:title=" ">
<path fill="none" stroke="#63b8ff" d="M583.43,-55.08C579.1,-48.11 572.91,-38.12 567.49,-29.37"/>
<polygon fill="#63b8ff" stroke="#63b8ff" points="570.48,-27.55 562.24,-20.9 564.53,-31.24 570.48,-27.55"/>
</a>
</g>
</g>
<!-- Node24&#45;&gt;Node10 -->
<g id="edge17_Node000024_Node000010" class="edge">
<title>Node24&#45;&gt;Node10</title>
<g id="a_edge17_Node000024_Node000010"><a xlink:title=" ">
<path fill="none" stroke="#63b8ff" d="M442,-54.84C431.78,-47.07 416.8,-35.67 404.61,-26.4"/>
<polygon fill="#63b8ff" stroke="#63b8ff" points="406.86,-23.71 396.78,-20.44 402.62,-29.28 406.86,-23.71"/>
</a>
</g>
</g>
</g>
</svg>
