<?xml version="1.0" encoding="UTF-8" standalone="no"?>
<!DOCTYPE svg PUBLIC "-//W3C//DTD SVG 1.1//EN"
 "http://www.w3.org/Graphics/SVG/1.1/DTD/svg11.dtd">
<!-- Generated by graphviz version 14.0.2 (0)
 -->
<!-- Title: clap_event_param_gesture Pages: 1 -->
<svg width="133pt" height="222pt"
 viewBox="0.00 0.00 133.00 222.00" xmlns="http://www.w3.org/2000/svg" xmlns:xlink="http://www.w3.org/1999/xlink">

<svg id="main" version="1.1" xmlns="http://www.w3.org/2000/svg" xmlns:xlink="http://www.w3.org/1999/xlink" xml:space="preserve">

<style type="text/css"><![CDATA[
.node, .edge {opacity: 0.7;}
.node.selected, .edge.selected {opacity: 1;}
.edge:hover path { stroke: red; }
.edge:hover polygon { stroke: red; fill: red; }
]]></style>
<script type="application/ecmascript" xlink:href="svg.min.js"/>
<svg id="graph" class="graph">
<g id="graph0" class="graph" transform="scale(1 1) rotate(0) translate(4 217.75)">
<title>clap_event_param_gesture</title>
<!-- Node1 -->
<g id="Node000001" class="node">
<title>Node1</title>
<g id="a_Node000001"><a xlink:title=" ">
<polygon fill="#999999" stroke="none" points="125,-49.75 0,-49.75 0,0 125,0 125,-49.75"/>
<text xml:space="preserve" text-anchor="start" x="4" y="-36.25" font-family="Helvetica,sans-Serif" font-size="10.00">clap_event_param_gesture</text>
<text xml:space="preserve" text-anchor="start" x="20.81" y="-21" font-family="Helvetica,sans-Serif" font-size="10.00">+</text>
<text xml:space="preserve" text-anchor="start" x="47.62" y="-21" font-family="Helvetica,sans-Serif" font-size="10.00">param_id</text>
<text xml:space="preserve" text-anchor="start" x="61" y="-5.75" font-family="Helvetica,sans-Serif" font-size="10.00"> </text>
<polygon fill="#666666" stroke="#666666" points="0,-32.5 0,-32.5 125,-32.5 125,-32.5 0,-32.5"/>
<polygon fill="#666666" stroke="#666666" points="0,-17.25 0,-17.25 45.62,-17.25 45.62,-17.25 0,-17.25"/>
<polygon fill="#666666" stroke="#666666" points="45.62,-17.25 45.62,-17.25 125,-17.25 125,-17.25 45.62,-17.25"/>
<polygon fill="none" stroke="#666666" points="0,0 0,-49.75 125,-49.75 125,0 0,0"/>
</a>
</g>
</g>
<!-- Node2 -->
<g id="Node000002" class="node">
<title>Node2</title>
<g id="a_Node000002"><a xlink:href="structclap__event__header.html" target="_top" xlink:title=" ">
<polygon fill="white" stroke="none" points="107.38,-213.75 17.62,-213.75 17.62,-103 107.38,-103 107.38,-213.75"/>
<text xml:space="preserve" text-anchor="start" x="21.62" y="-200.25" font-family="Helvetica,sans-Serif" font-size="10.00">clap_event_header</text>
<text xml:space="preserve" text-anchor="start" x="29.81" y="-185" font-family="Helvetica,sans-Serif" font-size="10.00">+</text>
<text xml:space="preserve" text-anchor="start" x="48" y="-185" font-family="Helvetica,sans-Serif" font-size="10.00">size</text>
<text xml:space="preserve" text-anchor="start" x="29.81" y="-169.75" font-family="Helvetica,sans-Serif" font-size="10.00">+</text>
<text xml:space="preserve" text-anchor="start" x="48" y="-169.75" font-family="Helvetica,sans-Serif" font-size="10.00">time</text>
<text xml:space="preserve" text-anchor="start" x="29.81" y="-154.5" font-family="Helvetica,sans-Serif" font-size="10.00">+</text>
<text xml:space="preserve" text-anchor="start" x="48" y="-154.5" font-family="Helvetica,sans-Serif" font-size="10.00">space_id</text>
<text xml:space="preserve" text-anchor="start" x="29.81" y="-139.25" font-family="Helvetica,sans-Serif" font-size="10.00">+</text>
<text xml:space="preserve" text-anchor="start" x="48" y="-139.25" font-family="Helvetica,sans-Serif" font-size="10.00">type</text>
<text xml:space="preserve" text-anchor="start" x="29.81" y="-124" font-family="Helvetica,sans-Serif" font-size="10.00">+</text>
<text xml:space="preserve" text-anchor="start" x="48" y="-124" font-family="Helvetica,sans-Serif" font-size="10.00">flags</text>
<text xml:space="preserve" text-anchor="start" x="61" y="-108.75" font-family="Helvetica,sans-Serif" font-size="10.00"> </text>
<polygon fill="#666666" stroke="#666666" points="17.62,-196.5 17.62,-196.5 107.38,-196.5 107.38,-196.5 17.62,-196.5"/>
<polygon fill="#666666" stroke="#666666" points="17.62,-120.25 17.62,-120.25 46,-120.25 46,-120.25 17.62,-120.25"/>
<polygon fill="#666666" stroke="#666666" points="46,-120.25 46,-120.25 107.38,-120.25 107.38,-120.25 46,-120.25"/>
<polygon fill="none" stroke="#666666" points="17.62,-103 17.62,-213.75 107.38,-213.75 107.38,-103 17.62,-103"/>
</a>
</g>
</g>
<!-- Node2&#45;&gt;Node1 -->
<g id="edge1_Node000001_Node000002" class="edge">
<title>Node2&#45;&gt;Node1</title>
<g id="a_edge1_Node000001_Node000002"><a xlink:title=" ">
<path fill="none" stroke="#63b8ff" d="M62.5,-103.13C62.5,-89.41 62.5,-75.01 62.5,-62.4"/>
<polygon fill="none" stroke="#63b8ff" points="62.5,-62.45 58.5,-56.45 62.5,-50.45 66.5,-56.45 62.5,-62.45"/>
</a>
</g>
<text xml:space="preserve" text-anchor="start" x="65.5" y="-72.5" font-family="Helvetica,sans-Serif" font-size="10.00" fill="grey">+header</text>
</g>
</g>
</svg>
</svg>

<style type='text/css'>
<![CDATA[
[data-mouse-over-selected='false'] { opacity: 0.7; }
[data-mouse-over-selected='true']  { opacity: 1.0; }
]]>
</style>
<script type="application/ecmascript"><![CDATA[
document.addEventListener('DOMContentLoaded', (event) => {
  highlightEdges();
  highlightAdjacentNodes();
});
]]></script>
</svg>
