<?xml version="1.0" encoding="UTF-8" standalone="no"?>
<!DOCTYPE svg PUBLIC "-//W3C//DTD SVG 1.1//EN"
 "http://www.w3.org/Graphics/SVG/1.1/DTD/svg11.dtd">
<!-- Generated by graphviz version 14.0.2 (0)
 -->
<!-- Title: ParameterEnumerationValues Pages: 1 -->
<!--zoomable 706 -->

<svg id="main" version="1.1" xmlns="http://www.w3.org/2000/svg" xmlns:xlink="http://www.w3.org/1999/xlink" xml:space="preserve" onload="init(evt)">

<style type="text/css"><![CDATA[
.node, .edge {opacity: 0.7;}
.node.selected, .edge.selected {opacity: 1;}
.edge:hover path { stroke: red; }
.edge:hover polygon { stroke: red; fill: red; }
]]></style>

<defs>
  <circle id="rim" cx="0" cy="0" r="7"/>
  <circle id="rim2" cx="0" cy="0" r="3.5"/>
  <g id="zoomPlus">
    <use xlink:href="#rim" fill="#404040"><set attributeName="fill" to="#808080" begin="zoomplus.mouseover" end="zoomplus.mouseout"/></use>
    <path d="M-4,0h8M0,-4v8" fill="none" stroke="white" stroke-width="1.5" pointer-events="none"/>
  </g>
  <g id="zoomMin">
    <use xlink:href="#rim" fill="#404040"><set attributeName="fill" to="#808080" begin="zoomminus.mouseover" end="zoomminus.mouseout"/></use>
    <path d="M-4,0h8" fill="none" stroke="white" stroke-width="1.5" pointer-events="none"/>
  </g>
  <g id="arrowUp" transform="translate(30 24)">
    <use xlink:href="#rim"/>
    <path pointer-events="none" fill="none" stroke="white" stroke-width="1.5" d="M0,-3.0v7 M-2.5,-0.5L0,-3.0L2.5,-0.5"/>
  </g>
  <g id="arrowRight" transform="rotate(90) translate(36 -43)">
    <use xlink:href="#rim"/>
    <path pointer-events="none" fill="none" stroke="white" stroke-width="1.5" d="M0,-3.0v7 M-2.5,-0.5L0,-3.0L2.5,-0.5"/>
  </g>
  <g id="arrowDown" transform="rotate(180) translate(-30 -48)">
    <use xlink:href="#rim"/>
    <path pointer-events="none" fill="none" stroke="white" stroke-width="1.5" d="M0,-3.0v7 M-2.5,-0.5L0,-3.0L2.5,-0.5"/>
  </g>
  <g id="arrowLeft" transform="rotate(270) translate(-36 17)">
    <use xlink:href="#rim"/>
    <path pointer-events="none" fill="none" stroke="white" stroke-width="1.5" d="M0,-3.0v7 M-2.5,-0.5L0,-3.0L2.5,-0.5"/>
  </g>
  <g id="resetDef">
    <use xlink:href="#rim2" fill="#404040"><set attributeName="fill" to="#808080" begin="reset.mouseover" end="reset.mouseout"/></use>
  </g>
</defs>
<script type="application/ecmascript">
var viewWidth = 166;
var viewHeight = 706;
var sectionId = 'dynsection-0';
</script>
<script type="application/ecmascript" xlink:href="svg.min.js"/>
<svg id="graph" class="graph">
<g id="viewport">
<title>ParameterEnumerationValues</title>
<!-- Node1 -->
<g id="Node000001" class="node">
<title>Node1</title>
<g id="a_Node000001"><a xlink:title=" ">
<polygon fill="#999999" stroke="none" points="158.25,-95.5 0,-95.5 0,0 158.25,0 158.25,-95.5"/>
<text xml:space="preserve" text-anchor="start" x="14.62" y="-82" font-family="Helvetica,sans-Serif" font-size="10.00">ParameterEnumerationValues</text>
<text xml:space="preserve" text-anchor="start" x="4" y="-66.75" font-family="Helvetica,sans-Serif" font-size="10.00">+</text>
<text xml:space="preserve" text-anchor="start" x="14" y="-66.75" font-family="Helvetica,sans-Serif" font-size="10.00">count</text>
<text xml:space="preserve" text-anchor="start" x="4" y="-51.5" font-family="Helvetica,sans-Serif" font-size="10.00">+</text>
<text xml:space="preserve" text-anchor="start" x="14" y="-51.5" font-family="Helvetica,sans-Serif" font-size="10.00">restrictedMode</text>
<text xml:space="preserve" text-anchor="start" x="4" y="-36.25" font-family="Helvetica,sans-Serif" font-size="10.00">+</text>
<text xml:space="preserve" text-anchor="start" x="14" y="-36.25" font-family="Helvetica,sans-Serif" font-size="10.00">ParameterEnumerationValues()</text>
<text xml:space="preserve" text-anchor="start" x="4" y="-21" font-family="Helvetica,sans-Serif" font-size="10.00">+</text>
<text xml:space="preserve" text-anchor="start" x="14" y="-21" font-family="Helvetica,sans-Serif" font-size="10.00">ParameterEnumerationValues()</text>
<text xml:space="preserve" text-anchor="start" x="4" y="-5.75" font-family="Helvetica,sans-Serif" font-size="10.00">+</text>
<text xml:space="preserve" text-anchor="start" x="14" y="-5.75" font-family="Helvetica,sans-Serif" font-size="10.00">~ParameterEnumerationValues()</text>
<polygon fill="#666666" stroke="#666666" points="0,-78.25 0,-78.25 158.25,-78.25 158.25,-78.25 0,-78.25"/>
<polygon fill="#666666" stroke="#666666" points="0,-47.75 0,-47.75 12,-47.75 12,-47.75 0,-47.75"/>
<polygon fill="#666666" stroke="#666666" points="12,-47.75 12,-47.75 158.25,-47.75 158.25,-47.75 12,-47.75"/>
<polygon fill="none" stroke="#666666" points="0,0 0,-95.5 158.25,-95.5 158.25,0 0,0"/>
</a>
</g>
</g>
<!-- Node2 -->
<g id="Node000002" class="node">
<title>Node2</title>
<g id="a_Node000002"><a xlink:href="structParameterEnumerationValue.html" target="_top" xlink:title=" ">
<polygon fill="white" stroke="none" points="153,-213.75 5.25,-213.75 5.25,-148.75 153,-148.75 153,-213.75"/>
<text xml:space="preserve" text-anchor="start" x="17.25" y="-200.25" font-family="Helvetica,sans-Serif" font-size="10.00">ParameterEnumerationValue</text>
<text xml:space="preserve" text-anchor="start" x="9.25" y="-185" font-family="Helvetica,sans-Serif" font-size="10.00">+</text>
<text xml:space="preserve" text-anchor="start" x="19.25" y="-185" font-family="Helvetica,sans-Serif" font-size="10.00">value</text>
<text xml:space="preserve" text-anchor="start" x="9.25" y="-169.75" font-family="Helvetica,sans-Serif" font-size="10.00">+</text>
<text xml:space="preserve" text-anchor="start" x="19.25" y="-169.75" font-family="Helvetica,sans-Serif" font-size="10.00">ParameterEnumerationValue()</text>
<text xml:space="preserve" text-anchor="start" x="9.25" y="-154.5" font-family="Helvetica,sans-Serif" font-size="10.00">+</text>
<text xml:space="preserve" text-anchor="start" x="19.25" y="-154.5" font-family="Helvetica,sans-Serif" font-size="10.00">ParameterEnumerationValue()</text>
<polygon fill="#666666" stroke="#666666" points="5.25,-196.5 5.25,-196.5 153,-196.5 153,-196.5 5.25,-196.5"/>
<polygon fill="#666666" stroke="#666666" points="5.25,-181.25 5.25,-181.25 17.25,-181.25 17.25,-181.25 5.25,-181.25"/>
<polygon fill="#666666" stroke="#666666" points="17.25,-181.25 17.25,-181.25 153,-181.25 153,-181.25 17.25,-181.25"/>
<polygon fill="none" stroke="#666666" points="5.25,-148.75 5.25,-213.75 153,-213.75 153,-148.75 5.25,-148.75"/>
</a>
</g>
</g>
<!-- Node2&#45;&gt;Node1 -->
<g id="edge1_Node000001_Node000002" class="edge">
<title>Node2&#45;&gt;Node1</title>
<g id="a_edge1_Node000001_Node000002"><a xlink:title=" ">
<path fill="none" stroke="#63b8ff" d="M79.12,-148.75C79.12,-136.54 79.12,-122.13 79.12,-108.12"/>
<polygon fill="none" stroke="#63b8ff" points="79.13,-108.33 75.13,-102.33 79.13,-96.33 83.13,-102.33 79.13,-108.33"/>
</a>
</g>
<text xml:space="preserve" text-anchor="start" x="82.12" y="-118.25" font-family="Helvetica,sans-Serif" font-size="10.00" fill="grey">+values</text>
</g>
<!-- Node3 -->
<g id="Node000003" class="node">
<title>Node3</title>
<g id="a_Node000003"><a xlink:href="classString.html" target="_top" xlink:title=" ">
<polygon fill="white" stroke="none" points="117.75,-698 40.5,-698 40.5,-267 117.75,-267 117.75,-698"/>
<text xml:space="preserve" text-anchor="start" x="66.38" y="-684.5" font-family="Helvetica,sans-Serif" font-size="10.00">String</text>
<text xml:space="preserve" text-anchor="start" x="46" y="-669.25" font-family="Helvetica,sans-Serif" font-size="10.00">&#45;</text>
<text xml:space="preserve" text-anchor="start" x="54.5" y="-669.25" font-family="Helvetica,sans-Serif" font-size="10.00">fBuffer</text>
<text xml:space="preserve" text-anchor="start" x="46" y="-654" font-family="Helvetica,sans-Serif" font-size="10.00">&#45;</text>
<text xml:space="preserve" text-anchor="start" x="54.5" y="-654" font-family="Helvetica,sans-Serif" font-size="10.00">fBufferLen</text>
<text xml:space="preserve" text-anchor="start" x="46" y="-638.75" font-family="Helvetica,sans-Serif" font-size="10.00">&#45;</text>
<text xml:space="preserve" text-anchor="start" x="54.5" y="-638.75" font-family="Helvetica,sans-Serif" font-size="10.00">fBufferAlloc</text>
<text xml:space="preserve" text-anchor="start" x="44.5" y="-623.5" font-family="Helvetica,sans-Serif" font-size="10.00">+</text>
<text xml:space="preserve" text-anchor="start" x="54.5" y="-623.5" font-family="Helvetica,sans-Serif" font-size="10.00">String()</text>
<text xml:space="preserve" text-anchor="start" x="44.5" y="-608.25" font-family="Helvetica,sans-Serif" font-size="10.00">+</text>
<text xml:space="preserve" text-anchor="start" x="54.5" y="-608.25" font-family="Helvetica,sans-Serif" font-size="10.00">String()</text>
<text xml:space="preserve" text-anchor="start" x="44.5" y="-593" font-family="Helvetica,sans-Serif" font-size="10.00">+</text>
<text xml:space="preserve" text-anchor="start" x="54.5" y="-593" font-family="Helvetica,sans-Serif" font-size="10.00">String()</text>
<text xml:space="preserve" text-anchor="start" x="44.5" y="-577.75" font-family="Helvetica,sans-Serif" font-size="10.00">+</text>
<text xml:space="preserve" text-anchor="start" x="54.5" y="-577.75" font-family="Helvetica,sans-Serif" font-size="10.00">String()</text>
<text xml:space="preserve" text-anchor="start" x="44.5" y="-562.5" font-family="Helvetica,sans-Serif" font-size="10.00">+</text>
<text xml:space="preserve" text-anchor="start" x="54.5" y="-562.5" font-family="Helvetica,sans-Serif" font-size="10.00">String()</text>
<text xml:space="preserve" text-anchor="start" x="44.5" y="-547.25" font-family="Helvetica,sans-Serif" font-size="10.00">+</text>
<text xml:space="preserve" text-anchor="start" x="54.5" y="-547.25" font-family="Helvetica,sans-Serif" font-size="10.00">String()</text>
<text xml:space="preserve" text-anchor="start" x="44.5" y="-532" font-family="Helvetica,sans-Serif" font-size="10.00">+</text>
<text xml:space="preserve" text-anchor="start" x="54.5" y="-532" font-family="Helvetica,sans-Serif" font-size="10.00">String()</text>
<text xml:space="preserve" text-anchor="start" x="44.5" y="-516.75" font-family="Helvetica,sans-Serif" font-size="10.00">+</text>
<text xml:space="preserve" text-anchor="start" x="54.5" y="-516.75" font-family="Helvetica,sans-Serif" font-size="10.00">String()</text>
<text xml:space="preserve" text-anchor="start" x="44.5" y="-501.5" font-family="Helvetica,sans-Serif" font-size="10.00">+</text>
<text xml:space="preserve" text-anchor="start" x="54.5" y="-501.5" font-family="Helvetica,sans-Serif" font-size="10.00">String()</text>
<text xml:space="preserve" text-anchor="start" x="44.5" y="-486.25" font-family="Helvetica,sans-Serif" font-size="10.00">+</text>
<text xml:space="preserve" text-anchor="start" x="54.5" y="-486.25" font-family="Helvetica,sans-Serif" font-size="10.00">String()</text>
<text xml:space="preserve" text-anchor="start" x="44.5" y="-471" font-family="Helvetica,sans-Serif" font-size="10.00">+</text>
<text xml:space="preserve" text-anchor="start" x="54.5" y="-471" font-family="Helvetica,sans-Serif" font-size="10.00">String()</text>
<text xml:space="preserve" text-anchor="start" x="44.5" y="-455.75" font-family="Helvetica,sans-Serif" font-size="10.00">+</text>
<text xml:space="preserve" text-anchor="start" x="54.5" y="-455.75" font-family="Helvetica,sans-Serif" font-size="10.00">String()</text>
<text xml:space="preserve" text-anchor="start" x="44.5" y="-440.5" font-family="Helvetica,sans-Serif" font-size="10.00">+</text>
<text xml:space="preserve" text-anchor="start" x="54.5" y="-440.5" font-family="Helvetica,sans-Serif" font-size="10.00">String()</text>
<text xml:space="preserve" text-anchor="start" x="44.5" y="-425.25" font-family="Helvetica,sans-Serif" font-size="10.00">+</text>
<text xml:space="preserve" text-anchor="start" x="54.5" y="-425.25" font-family="Helvetica,sans-Serif" font-size="10.00">~String()</text>
<text xml:space="preserve" text-anchor="start" x="44.5" y="-410" font-family="Helvetica,sans-Serif" font-size="10.00">+</text>
<text xml:space="preserve" text-anchor="start" x="54.5" y="-410" font-family="Helvetica,sans-Serif" font-size="10.00">length()</text>
<text xml:space="preserve" text-anchor="start" x="44.5" y="-394.75" font-family="Helvetica,sans-Serif" font-size="10.00">+</text>
<text xml:space="preserve" text-anchor="start" x="54.5" y="-394.75" font-family="Helvetica,sans-Serif" font-size="10.00">isEmpty()</text>
<text xml:space="preserve" text-anchor="start" x="44.5" y="-379.5" font-family="Helvetica,sans-Serif" font-size="10.00">+</text>
<text xml:space="preserve" text-anchor="start" x="54.5" y="-379.5" font-family="Helvetica,sans-Serif" font-size="10.00">isNotEmpty()</text>
<text xml:space="preserve" text-anchor="start" x="44.5" y="-364.25" font-family="Helvetica,sans-Serif" font-size="10.00">+</text>
<text xml:space="preserve" text-anchor="start" x="54.5" y="-364.25" font-family="Helvetica,sans-Serif" font-size="10.00">contains()</text>
<text xml:space="preserve" text-anchor="start" x="44.5" y="-349" font-family="Helvetica,sans-Serif" font-size="10.00">+</text>
<text xml:space="preserve" text-anchor="start" x="54.5" y="-349" font-family="Helvetica,sans-Serif" font-size="10.00">contains()</text>
<text xml:space="preserve" text-anchor="start" x="44.5" y="-333.75" font-family="Helvetica,sans-Serif" font-size="10.00">+</text>
<text xml:space="preserve" text-anchor="start" x="54.5" y="-333.75" font-family="Helvetica,sans-Serif" font-size="10.00">isDigit()</text>
<text xml:space="preserve" text-anchor="start" x="54.5" y="-318.5" font-family="Helvetica,sans-Serif" font-size="10.00">and 34 more...</text>
<text xml:space="preserve" text-anchor="start" x="44.5" y="-303.25" font-family="Helvetica,sans-Serif" font-size="10.00">+</text>
<text xml:space="preserve" text-anchor="start" x="54.5" y="-303.25" font-family="Helvetica,sans-Serif" font-size="10.00">asBase64()</text>
<text xml:space="preserve" text-anchor="start" x="46" y="-288" font-family="Helvetica,sans-Serif" font-size="10.00">&#45;</text>
<text xml:space="preserve" text-anchor="start" x="54.5" y="-288" font-family="Helvetica,sans-Serif" font-size="10.00">_dup()</text>
<text xml:space="preserve" text-anchor="start" x="46" y="-272.75" font-family="Helvetica,sans-Serif" font-size="10.00">&#45;</text>
<text xml:space="preserve" text-anchor="start" x="54.5" y="-272.75" font-family="Helvetica,sans-Serif" font-size="10.00">_null()</text>
<polygon fill="#666666" stroke="#666666" points="40.5,-680.75 40.5,-680.75 117.75,-680.75 117.75,-680.75 40.5,-680.75"/>
<polygon fill="#666666" stroke="#666666" points="40.5,-635 40.5,-635 52.5,-635 52.5,-635 40.5,-635"/>
<polygon fill="#666666" stroke="#666666" points="52.5,-635 52.5,-635 117.75,-635 117.75,-635 52.5,-635"/>
<polygon fill="none" stroke="#666666" points="40.5,-267 40.5,-698 117.75,-698 117.75,-267 40.5,-267"/>
</a>
</g>
</g>
<!-- Node3&#45;&gt;Node2 -->
<g id="edge2_Node000002_Node000003" class="edge">
<title>Node3&#45;&gt;Node2</title>
<g id="a_edge2_Node000002_Node000003"><a xlink:title=" ">
<path fill="none" stroke="#63b8ff" d="M79.12,-267.2C79.12,-252.23 79.12,-238.32 79.12,-226.28"/>
<polygon fill="none" stroke="#63b8ff" points="79.13,-226.42 75.13,-220.42 79.13,-214.42 83.13,-220.42 79.13,-226.42"/>
</a>
</g>
<text xml:space="preserve" text-anchor="start" x="82.12" y="-236.5" font-family="Helvetica,sans-Serif" font-size="10.00" fill="grey">+label</text>
</g>
</g>
</svg>

<g id="navigator" transform="translate(0 0)" fill="#404254">
  <rect fill="#f2f5e9" fill-opacity="0.5" stroke="#606060" stroke-width=".5" x="0" y="0" width="60" height="60"/>
  <use id="zoomplus" xlink:href="#zoomPlus" x="17" y="9" onmousedown="handleZoom(evt,'in')"/>
  <use id="zoomminus" xlink:href="#zoomMin" x="42" y="9" onmousedown="handleZoom(evt,'out')"/>
  <use id="reset" xlink:href="#resetDef" x="30" y="36" onmousedown="handleReset()"/>
   <use id="arrowup" xlink:href="#arrowUp" x="0" y="0" onmousedown="handlePan(0,-1)"/>
  <use id="arrowright" xlink:href="#arrowRight" x="0" y="0" onmousedown="handlePan(1,0)"/>
  <use id="arrowdown" xlink:href="#arrowDown" x="0" y="0" onmousedown="handlePan(0,1)"/>
  <use id="arrowleft" xlink:href="#arrowLeft" x="0" y="0" onmousedown="handlePan(-1,0)"/>
</g>
<svg viewBox="0 0 15 15" width="100%" height="30px" preserveAspectRatio="xMaxYMin meet">
 <g id="arrow_out" transform="scale(0.3 0.3)">
  <a xlink:href="structParameterEnumerationValues__coll__graph_org.svg" target="_base">
   <rect id="button" ry="5" rx="5" y="6" x="6" height="38" width="38"
        fill="#f2f5e9" fill-opacity="0.5" stroke="#606060" stroke-width="1.0"/>
   <path id="arrow"
     d="M 11.500037,31.436501 C 11.940474,20.09759 22.043105,11.32322 32.158766,21.979434 L 37.068811,17.246167 C 37.068811,17.246167 37.088388,32 37.088388,32 L 22.160133,31.978069 C 22.160133,31.978069 26.997745,27.140456 26.997745,27.140456 C 18.528582,18.264221 13.291696,25.230495 11.500037,31.436501 z"
     style="fill:#404040;"/>
  </a>
 </g>
</svg>

<style type='text/css'>
<![CDATA[
[data-mouse-over-selected='false'] { opacity: 0.7; }
[data-mouse-over-selected='true']  { opacity: 1.0; }
]]>
</style>
<script type="application/ecmascript"><![CDATA[
document.addEventListener('DOMContentLoaded', (event) => {
  highlightEdges();
  highlightAdjacentNodes();
});
]]></script>
</svg>
