<?xml version="1.0" encoding="UTF-8" standalone="no"?>
<!DOCTYPE svg PUBLIC "-//W3C//DTD SVG 1.1//EN"
 "http://www.w3.org/Graphics/SVG/1.1/DTD/svg11.dtd">
<!-- Generated by graphviz version 14.0.2 (0)
 -->
<!-- Title: calf_plugins::hbox_container Pages: 1 -->
<svg width="132pt" height="454pt"
 viewBox="0.00 0.00 132.00 454.00" xmlns="http://www.w3.org/2000/svg" xmlns:xlink="http://www.w3.org/1999/xlink">
<g id="graph0" class="graph" transform="scale(1 1) rotate(0) translate(4 450)">
<title>calf_plugins::hbox_container</title>
<!-- Node1 -->
<g id="Node000001" class="node">
<title>Node1</title>
<g id="a_Node000001"><a xlink:title=" ">
<polygon fill="#999999" stroke="none" points="104.38,-61 19.88,-61 19.88,0 104.38,0 104.38,-61"/>
<text xml:space="preserve" text-anchor="start" x="23.88" y="-47.5" font-family="Helvetica,sans-Serif" font-size="10.00">calf_plugins::hbox</text>
<text xml:space="preserve" text-anchor="start" x="39.62" y="-36.25" font-family="Helvetica,sans-Serif" font-size="10.00">_container</text>
<text xml:space="preserve" text-anchor="start" x="60.62" y="-21" font-family="Helvetica,sans-Serif" font-size="10.00"> </text>
<text xml:space="preserve" text-anchor="start" x="32.25" y="-5.75" font-family="Helvetica,sans-Serif" font-size="10.00">+</text>
<text xml:space="preserve" text-anchor="start" x="50.62" y="-5.75" font-family="Helvetica,sans-Serif" font-size="10.00">create()</text>
<polygon fill="#666666" stroke="#666666" points="19.88,-32.5 19.88,-32.5 104.38,-32.5 104.38,-32.5 19.88,-32.5"/>
<polygon fill="#666666" stroke="#666666" points="19.88,-17.25 19.88,-17.25 104.38,-17.25 104.38,-17.25 19.88,-17.25"/>
<polygon fill="none" stroke="#666666" points="19.88,0 19.88,-61 104.38,-61 104.38,0 19.88,0"/>
</a>
</g>
</g>
<!-- Node2 -->
<g id="Node000002" class="node">
<title>Node2</title>
<g id="a_Node000002"><a xlink:href="structcalf__plugins_1_1box__container.html" target="_top" xlink:title=" ">
<polygon fill="white" stroke="none" points="124.25,-146.75 0,-146.75 0,-97 124.25,-97 124.25,-146.75"/>
<text xml:space="preserve" text-anchor="start" x="4" y="-133.25" font-family="Helvetica,sans-Serif" font-size="10.00">calf_plugins::box_container</text>
<text xml:space="preserve" text-anchor="start" x="60.62" y="-118" font-family="Helvetica,sans-Serif" font-size="10.00"> </text>
<text xml:space="preserve" text-anchor="start" x="25.12" y="-102.75" font-family="Helvetica,sans-Serif" font-size="10.00">+</text>
<text xml:space="preserve" text-anchor="start" x="56.25" y="-102.75" font-family="Helvetica,sans-Serif" font-size="10.00">add()</text>
<polygon fill="#666666" stroke="#666666" points="0,-129.5 0,-129.5 124.25,-129.5 124.25,-129.5 0,-129.5"/>
<polygon fill="#666666" stroke="#666666" points="0,-114.25 0,-114.25 124.25,-114.25 124.25,-114.25 0,-114.25"/>
<polygon fill="none" stroke="#666666" points="0,-97 0,-146.75 124.25,-146.75 124.25,-97 0,-97"/>
</a>
</g>
</g>
<!-- Node2&#45;&gt;Node1 -->
<g id="edge1_Node000001_Node000002" class="edge">
<title>Node2&#45;&gt;Node1</title>
<g id="a_edge1_Node000001_Node000002"><a xlink:title=" ">
<path fill="none" stroke="#63b8ff" d="M62.12,-86.08C62.12,-77.76 62.12,-68.95 62.12,-60.9"/>
<polygon fill="none" stroke="#63b8ff" points="58.63,-85.88 62.13,-95.88 65.63,-85.88 58.63,-85.88"/>
</a>
</g>
</g>
<!-- Node3 -->
<g id="Node000003" class="node">
<title>Node3</title>
<g id="a_Node000003"><a xlink:href="classcalf__plugins_1_1control__base.html" target="_top" xlink:title=" ">
<polygon fill="white" stroke="none" points="122,-446 2.25,-446 2.25,-182.75 122,-182.75 122,-446"/>
<text xml:space="preserve" text-anchor="start" x="6.25" y="-432.5" font-family="Helvetica,sans-Serif" font-size="10.00">calf_plugins::control_base</text>
<text xml:space="preserve" text-anchor="start" x="8.81" y="-417.25" font-family="Helvetica,sans-Serif" font-size="10.00">+</text>
<text xml:space="preserve" text-anchor="start" x="21.38" y="-417.25" font-family="Helvetica,sans-Serif" font-size="10.00">widget</text>
<text xml:space="preserve" text-anchor="start" x="8.81" y="-402" font-family="Helvetica,sans-Serif" font-size="10.00">+</text>
<text xml:space="preserve" text-anchor="start" x="21.38" y="-402" font-family="Helvetica,sans-Serif" font-size="10.00">control_name</text>
<text xml:space="preserve" text-anchor="start" x="8.81" y="-386.75" font-family="Helvetica,sans-Serif" font-size="10.00">+</text>
<text xml:space="preserve" text-anchor="start" x="21.38" y="-386.75" font-family="Helvetica,sans-Serif" font-size="10.00">attribs</text>
<text xml:space="preserve" text-anchor="start" x="8.81" y="-371.5" font-family="Helvetica,sans-Serif" font-size="10.00">+</text>
<text xml:space="preserve" text-anchor="start" x="21.38" y="-371.5" font-family="Helvetica,sans-Serif" font-size="10.00">gui</text>
<text xml:space="preserve" text-anchor="start" x="8.81" y="-356.25" font-family="Helvetica,sans-Serif" font-size="10.00">+</text>
<text xml:space="preserve" text-anchor="start" x="21.38" y="-356.25" font-family="Helvetica,sans-Serif" font-size="10.00">require_attribute()</text>
<text xml:space="preserve" text-anchor="start" x="8.81" y="-341" font-family="Helvetica,sans-Serif" font-size="10.00">+</text>
<text xml:space="preserve" text-anchor="start" x="21.38" y="-341" font-family="Helvetica,sans-Serif" font-size="10.00">require_int_attribute()</text>
<text xml:space="preserve" text-anchor="start" x="8.81" y="-325.75" font-family="Helvetica,sans-Serif" font-size="10.00">+</text>
<text xml:space="preserve" text-anchor="start" x="21.38" y="-325.75" font-family="Helvetica,sans-Serif" font-size="10.00">get_int()</text>
<text xml:space="preserve" text-anchor="start" x="8.81" y="-310.5" font-family="Helvetica,sans-Serif" font-size="10.00">+</text>
<text xml:space="preserve" text-anchor="start" x="21.38" y="-310.5" font-family="Helvetica,sans-Serif" font-size="10.00">get_float()</text>
<text xml:space="preserve" text-anchor="start" x="8.81" y="-295.25" font-family="Helvetica,sans-Serif" font-size="10.00">+</text>
<text xml:space="preserve" text-anchor="start" x="21.38" y="-295.25" font-family="Helvetica,sans-Serif" font-size="10.00">get_vector()</text>
<text xml:space="preserve" text-anchor="start" x="8.81" y="-280" font-family="Helvetica,sans-Serif" font-size="10.00">+</text>
<text xml:space="preserve" text-anchor="start" x="21.38" y="-280" font-family="Helvetica,sans-Serif" font-size="10.00">create()</text>
<text xml:space="preserve" text-anchor="start" x="8.81" y="-264.75" font-family="Helvetica,sans-Serif" font-size="10.00">+</text>
<text xml:space="preserve" text-anchor="start" x="21.38" y="-264.75" font-family="Helvetica,sans-Serif" font-size="10.00">is_container()</text>
<text xml:space="preserve" text-anchor="start" x="8.81" y="-249.5" font-family="Helvetica,sans-Serif" font-size="10.00">+</text>
<text xml:space="preserve" text-anchor="start" x="21.38" y="-249.5" font-family="Helvetica,sans-Serif" font-size="10.00">set_visibilty()</text>
<text xml:space="preserve" text-anchor="start" x="8.81" y="-234.25" font-family="Helvetica,sans-Serif" font-size="10.00">+</text>
<text xml:space="preserve" text-anchor="start" x="21.38" y="-234.25" font-family="Helvetica,sans-Serif" font-size="10.00">add()</text>
<text xml:space="preserve" text-anchor="start" x="8.81" y="-219" font-family="Helvetica,sans-Serif" font-size="10.00">+</text>
<text xml:space="preserve" text-anchor="start" x="21.38" y="-219" font-family="Helvetica,sans-Serif" font-size="10.00">set_std_properties()</text>
<text xml:space="preserve" text-anchor="start" x="8.81" y="-203.75" font-family="Helvetica,sans-Serif" font-size="10.00">+</text>
<text xml:space="preserve" text-anchor="start" x="21.38" y="-203.75" font-family="Helvetica,sans-Serif" font-size="10.00">created()</text>
<text xml:space="preserve" text-anchor="start" x="8.81" y="-188.5" font-family="Helvetica,sans-Serif" font-size="10.00">+</text>
<text xml:space="preserve" text-anchor="start" x="21.38" y="-188.5" font-family="Helvetica,sans-Serif" font-size="10.00">~control_base()</text>
<polygon fill="#666666" stroke="#666666" points="2.25,-428.75 2.25,-428.75 122,-428.75 122,-428.75 2.25,-428.75"/>
<polygon fill="#666666" stroke="#666666" points="2.25,-367.75 2.25,-367.75 19.38,-367.75 19.38,-367.75 2.25,-367.75"/>
<polygon fill="#666666" stroke="#666666" points="19.38,-367.75 19.38,-367.75 122,-367.75 122,-367.75 19.38,-367.75"/>
<polygon fill="none" stroke="#666666" points="2.25,-182.75 2.25,-446 122,-446 122,-182.75 2.25,-182.75"/>
</a>
</g>
</g>
<!-- Node3&#45;&gt;Node2 -->
<g id="edge2_Node000002_Node000003" class="edge">
<title>Node3&#45;&gt;Node2</title>
<g id="a_edge2_Node000002_Node000003"><a xlink:title=" ">
<path fill="none" stroke="#63b8ff" d="M62.12,-171.64C62.12,-162.34 62.12,-153.82 62.12,-146.6"/>
<polygon fill="none" stroke="#63b8ff" points="58.63,-171.38 62.13,-181.38 65.63,-171.38 58.63,-171.38"/>
</a>
</g>
</g>
</g>
</svg>
