<?xml version="1.0" encoding="UTF-8" standalone="no"?>
<!DOCTYPE svg PUBLIC "-//W3C//DTD SVG 1.1//EN"
 "http://www.w3.org/Graphics/SVG/1.1/DTD/svg11.dtd">
<!-- Generated by graphviz version 14.0.2 (0)
 -->
<!-- Title: uiPorts Pages: 1 -->
<svg width="110pt" height="554pt"
 viewBox="0.00 0.00 110.00 554.00" xmlns="http://www.w3.org/2000/svg" xmlns:xlink="http://www.w3.org/1999/xlink">
<g id="graph0" class="graph" transform="scale(1 1) rotate(0) translate(4 549.5)">
<title>uiPorts</title>
<!-- Node1 -->
<g id="Node000001" class="node">
<title>Node1</title>
<g id="a_Node000001"><a xlink:title=" ">
<polygon fill="#999999" stroke="none" points="70.38,-49.75 31.62,-49.75 31.62,0 70.38,0 70.38,-49.75"/>
<text xml:space="preserve" text-anchor="start" x="35.62" y="-36.25" font-family="Helvetica,sans-Serif" font-size="10.00">uiPorts</text>
<text xml:space="preserve" text-anchor="start" x="49.5" y="-21" font-family="Helvetica,sans-Serif" font-size="10.00"> </text>
<text xml:space="preserve" text-anchor="start" x="49.5" y="-5.75" font-family="Helvetica,sans-Serif" font-size="10.00"> </text>
<polygon fill="#666666" stroke="#666666" points="31.62,-32.5 31.62,-32.5 70.38,-32.5 70.38,-32.5 31.62,-32.5"/>
<polygon fill="#666666" stroke="#666666" points="31.62,-17.25 31.62,-17.25 70.38,-17.25 70.38,-17.25 31.62,-17.25"/>
<polygon fill="none" stroke="#666666" points="31.62,0 31.62,-49.75 70.38,-49.75 70.38,0 31.62,0"/>
</a>
</g>
</g>
<!-- Node2 -->
<g id="Node000002" class="node">
<title>Node2</title>
<g id="a_Node000002"><a xlink:href="structrtosc_1_1Ports.html" target="_top" xlink:title=" ">
<polygon fill="white" stroke="none" points="93,-351 9,-351 9,-103 93,-103 93,-351"/>
<text xml:space="preserve" text-anchor="start" x="26.25" y="-337.5" font-family="Helvetica,sans-Serif" font-size="10.00">rtosc::Ports</text>
<text xml:space="preserve" text-anchor="start" x="13" y="-322.25" font-family="Helvetica,sans-Serif" font-size="10.00">+</text>
<text xml:space="preserve" text-anchor="start" x="23" y="-322.25" font-family="Helvetica,sans-Serif" font-size="10.00">ports</text>
<text xml:space="preserve" text-anchor="start" x="13" y="-307" font-family="Helvetica,sans-Serif" font-size="10.00">+</text>
<text xml:space="preserve" text-anchor="start" x="23" y="-307" font-family="Helvetica,sans-Serif" font-size="10.00">default_handler</text>
<text xml:space="preserve" text-anchor="start" x="14.5" y="-291.75" font-family="Helvetica,sans-Serif" font-size="10.00">&#45;</text>
<text xml:space="preserve" text-anchor="start" x="23" y="-291.75" font-family="Helvetica,sans-Serif" font-size="10.00">elms</text>
<text xml:space="preserve" text-anchor="start" x="13" y="-276.5" font-family="Helvetica,sans-Serif" font-size="10.00">+</text>
<text xml:space="preserve" text-anchor="start" x="23" y="-276.5" font-family="Helvetica,sans-Serif" font-size="10.00">begin()</text>
<text xml:space="preserve" text-anchor="start" x="13" y="-261.25" font-family="Helvetica,sans-Serif" font-size="10.00">+</text>
<text xml:space="preserve" text-anchor="start" x="23" y="-261.25" font-family="Helvetica,sans-Serif" font-size="10.00">end()</text>
<text xml:space="preserve" text-anchor="start" x="13" y="-246" font-family="Helvetica,sans-Serif" font-size="10.00">+</text>
<text xml:space="preserve" text-anchor="start" x="23" y="-246" font-family="Helvetica,sans-Serif" font-size="10.00">size()</text>
<text xml:space="preserve" text-anchor="start" x="13" y="-230.75" font-family="Helvetica,sans-Serif" font-size="10.00">+</text>
<text xml:space="preserve" text-anchor="start" x="23" y="-230.75" font-family="Helvetica,sans-Serif" font-size="10.00">operator[]()</text>
<text xml:space="preserve" text-anchor="start" x="13" y="-215.5" font-family="Helvetica,sans-Serif" font-size="10.00">+</text>
<text xml:space="preserve" text-anchor="start" x="23" y="-215.5" font-family="Helvetica,sans-Serif" font-size="10.00">Ports()</text>
<text xml:space="preserve" text-anchor="start" x="13" y="-200.25" font-family="Helvetica,sans-Serif" font-size="10.00">+</text>
<text xml:space="preserve" text-anchor="start" x="23" y="-200.25" font-family="Helvetica,sans-Serif" font-size="10.00">~Ports()</text>
<text xml:space="preserve" text-anchor="start" x="13" y="-185" font-family="Helvetica,sans-Serif" font-size="10.00">+</text>
<text xml:space="preserve" text-anchor="start" x="23" y="-185" font-family="Helvetica,sans-Serif" font-size="10.00">Ports()</text>
<text xml:space="preserve" text-anchor="start" x="13" y="-169.75" font-family="Helvetica,sans-Serif" font-size="10.00">+</text>
<text xml:space="preserve" text-anchor="start" x="23" y="-169.75" font-family="Helvetica,sans-Serif" font-size="10.00">dispatch()</text>
<text xml:space="preserve" text-anchor="start" x="13" y="-154.5" font-family="Helvetica,sans-Serif" font-size="10.00">+</text>
<text xml:space="preserve" text-anchor="start" x="23" y="-154.5" font-family="Helvetica,sans-Serif" font-size="10.00">operator[]()</text>
<text xml:space="preserve" text-anchor="start" x="13" y="-139.25" font-family="Helvetica,sans-Serif" font-size="10.00">+</text>
<text xml:space="preserve" text-anchor="start" x="23" y="-139.25" font-family="Helvetica,sans-Serif" font-size="10.00">apropos()</text>
<text xml:space="preserve" text-anchor="start" x="13" y="-124" font-family="Helvetica,sans-Serif" font-size="10.00">+</text>
<text xml:space="preserve" text-anchor="start" x="23" y="-124" font-family="Helvetica,sans-Serif" font-size="10.00">collapsePath()</text>
<text xml:space="preserve" text-anchor="start" x="13.38" y="-108.75" font-family="Helvetica,sans-Serif" font-size="10.00">#</text>
<text xml:space="preserve" text-anchor="start" x="23" y="-108.75" font-family="Helvetica,sans-Serif" font-size="10.00">refreshMagic()</text>
<polygon fill="#666666" stroke="#666666" points="9,-333.75 9,-333.75 93,-333.75 93,-333.75 9,-333.75"/>
<polygon fill="#666666" stroke="#666666" points="9,-288 9,-288 21,-288 21,-288 9,-288"/>
<polygon fill="#666666" stroke="#666666" points="21,-288 21,-288 93,-288 93,-288 21,-288"/>
<polygon fill="none" stroke="#666666" points="9,-103 9,-351 93,-351 93,-103 9,-103"/>
</a>
</g>
</g>
<!-- Node2&#45;&gt;Node1 -->
<g id="edge1_Node000001_Node000002" class="edge">
<title>Node2&#45;&gt;Node1</title>
<g id="a_edge1_Node000001_Node000002"><a xlink:title=" ">
<path fill="none" stroke="#63b8ff" d="M51,-103.25C51,-88.59 51,-74.62 51,-62.69"/>
<polygon fill="none" stroke="#63b8ff" points="51,-62.6 47,-56.6 51,-50.6 55,-56.6 51,-62.6"/>
</a>
</g>
<text xml:space="preserve" text-anchor="start" x="54" y="-72.5" font-family="Helvetica,sans-Serif" font-size="10.00" fill="grey">+ports</text>
</g>
<!-- Node3 -->
<g id="Node000003" class="node">
<title>Node3</title>
<g id="a_Node000003"><a xlink:href="classrtosc_1_1Port__Matcher.html" target="_top" xlink:title=" ">
<polygon fill="white" stroke="none" points="102,-545.5 0,-545.5 0,-404.25 102,-404.25 102,-545.5"/>
<text xml:space="preserve" text-anchor="start" x="8.62" y="-532" font-family="Helvetica,sans-Serif" font-size="10.00">rtosc::Port_Matcher</text>
<text xml:space="preserve" text-anchor="start" x="4" y="-516.75" font-family="Helvetica,sans-Serif" font-size="10.00">+</text>
<text xml:space="preserve" text-anchor="start" x="14" y="-516.75" font-family="Helvetica,sans-Serif" font-size="10.00">enump</text>
<text xml:space="preserve" text-anchor="start" x="4" y="-501.5" font-family="Helvetica,sans-Serif" font-size="10.00">+</text>
<text xml:space="preserve" text-anchor="start" x="14" y="-501.5" font-family="Helvetica,sans-Serif" font-size="10.00">fixed</text>
<text xml:space="preserve" text-anchor="start" x="4" y="-486.25" font-family="Helvetica,sans-Serif" font-size="10.00">+</text>
<text xml:space="preserve" text-anchor="start" x="14" y="-486.25" font-family="Helvetica,sans-Serif" font-size="10.00">arg_spec</text>
<text xml:space="preserve" text-anchor="start" x="4" y="-471" font-family="Helvetica,sans-Serif" font-size="10.00">+</text>
<text xml:space="preserve" text-anchor="start" x="14" y="-471" font-family="Helvetica,sans-Serif" font-size="10.00">pos</text>
<text xml:space="preserve" text-anchor="start" x="4" y="-455.75" font-family="Helvetica,sans-Serif" font-size="10.00">+</text>
<text xml:space="preserve" text-anchor="start" x="14" y="-455.75" font-family="Helvetica,sans-Serif" font-size="10.00">assoc</text>
<text xml:space="preserve" text-anchor="start" x="4" y="-440.5" font-family="Helvetica,sans-Serif" font-size="10.00">+</text>
<text xml:space="preserve" text-anchor="start" x="14" y="-440.5" font-family="Helvetica,sans-Serif" font-size="10.00">remap</text>
<text xml:space="preserve" text-anchor="start" x="4" y="-425.25" font-family="Helvetica,sans-Serif" font-size="10.00">+</text>
<text xml:space="preserve" text-anchor="start" x="14" y="-425.25" font-family="Helvetica,sans-Serif" font-size="10.00">rtosc_match_args()</text>
<text xml:space="preserve" text-anchor="start" x="4" y="-410" font-family="Helvetica,sans-Serif" font-size="10.00">+</text>
<text xml:space="preserve" text-anchor="start" x="14" y="-410" font-family="Helvetica,sans-Serif" font-size="10.00">hard_match()</text>
<polygon fill="#666666" stroke="#666666" points="0,-528.25 0,-528.25 102,-528.25 102,-528.25 0,-528.25"/>
<polygon fill="#666666" stroke="#666666" points="0,-436.75 0,-436.75 12,-436.75 12,-436.75 0,-436.75"/>
<polygon fill="#666666" stroke="#666666" points="12,-436.75 12,-436.75 102,-436.75 102,-436.75 12,-436.75"/>
<polygon fill="none" stroke="#666666" points="0,-404.25 0,-545.5 102,-545.5 102,-404.25 0,-404.25"/>
</a>
</g>
</g>
<!-- Node3&#45;&gt;Node2 -->
<g id="edge2_Node000002_Node000003" class="edge">
<title>Node3&#45;&gt;Node2</title>
<g id="a_edge2_Node000002_Node000003"><a xlink:title=" ">
<path fill="none" stroke="#63b8ff" d="M51,-404.4C51,-391.57 51,-377.78 51,-363.76"/>
<polygon fill="none" stroke="#63b8ff" points="51,-363.74 47,-357.74 51,-351.74 55,-357.74 51,-363.74"/>
</a>
</g>
<text xml:space="preserve" text-anchor="start" x="54" y="-373.75" font-family="Helvetica,sans-Serif" font-size="10.00" fill="grey">&#45;impl</text>
</g>
</g>
</svg>
