<?xml version="1.0" encoding="UTF-8" standalone="no"?>
<!DOCTYPE svg PUBLIC "-//W3C//DTD SVG 1.1//EN"
 "http://www.w3.org/Graphics/SVG/1.1/DTD/svg11.dtd">
<!-- Generated by graphviz version 14.0.2 (0)
 -->
<!-- Title: filter_24dB_lp_onepass_d1 Pages: 1 -->
<!--zoomable 910 -->

<svg id="main" version="1.1" xmlns="http://www.w3.org/2000/svg" xmlns:xlink="http://www.w3.org/1999/xlink" xml:space="preserve" onload="init(evt)">

<style type="text/css"><![CDATA[
.node, .edge {opacity: 0.7;}
.node.selected, .edge.selected {opacity: 1;}
.edge:hover path { stroke: red; }
.edge:hover polygon { stroke: red; fill: red; }
]]></style>

<defs>
  <circle id="rim" cx="0" cy="0" r="7"/>
  <circle id="rim2" cx="0" cy="0" r="3.5"/>
  <g id="zoomPlus">
    <use xlink:href="#rim" fill="#404040"><set attributeName="fill" to="#808080" begin="zoomplus.mouseover" end="zoomplus.mouseout"/></use>
    <path d="M-4,0h8M0,-4v8" fill="none" stroke="white" stroke-width="1.5" pointer-events="none"/>
  </g>
  <g id="zoomMin">
    <use xlink:href="#rim" fill="#404040"><set attributeName="fill" to="#808080" begin="zoomminus.mouseover" end="zoomminus.mouseout"/></use>
    <path d="M-4,0h8" fill="none" stroke="white" stroke-width="1.5" pointer-events="none"/>
  </g>
  <g id="arrowUp" transform="translate(30 24)">
    <use xlink:href="#rim"/>
    <path pointer-events="none" fill="none" stroke="white" stroke-width="1.5" d="M0,-3.0v7 M-2.5,-0.5L0,-3.0L2.5,-0.5"/>
  </g>
  <g id="arrowRight" transform="rotate(90) translate(36 -43)">
    <use xlink:href="#rim"/>
    <path pointer-events="none" fill="none" stroke="white" stroke-width="1.5" d="M0,-3.0v7 M-2.5,-0.5L0,-3.0L2.5,-0.5"/>
  </g>
  <g id="arrowDown" transform="rotate(180) translate(-30 -48)">
    <use xlink:href="#rim"/>
    <path pointer-events="none" fill="none" stroke="white" stroke-width="1.5" d="M0,-3.0v7 M-2.5,-0.5L0,-3.0L2.5,-0.5"/>
  </g>
  <g id="arrowLeft" transform="rotate(270) translate(-36 17)">
    <use xlink:href="#rim"/>
    <path pointer-events="none" fill="none" stroke="white" stroke-width="1.5" d="M0,-3.0v7 M-2.5,-0.5L0,-3.0L2.5,-0.5"/>
  </g>
  <g id="resetDef">
    <use xlink:href="#rim2" fill="#404040"><set attributeName="fill" to="#808080" begin="reset.mouseover" end="reset.mouseout"/></use>
  </g>
</defs>
<script type="application/ecmascript">
var viewWidth = 243;
var viewHeight = 910;
var sectionId = 'dynsection-1';
</script>
<script type="application/ecmascript" xlink:href="svg.min.js"/>
<svg id="graph" class="graph">
<g id="viewport">
<title>filter_24dB_lp_onepass_d1</title>
<!-- Node1 -->
<g id="Node000001" class="node">
<title>Node1</title>
<g id="a_Node000001"><a xlink:title=" ">
<polygon fill="#999999" stroke="none" points="179.88,-49.75 55.62,-49.75 55.62,0 179.88,0 179.88,-49.75"/>
<text xml:space="preserve" text-anchor="start" x="59.62" y="-36.25" font-family="Helvetica,sans-Serif" font-size="10.00">filter_24dB_lp_onepass_d1</text>
<text xml:space="preserve" text-anchor="start" x="116.25" y="-21" font-family="Helvetica,sans-Serif" font-size="10.00"> </text>
<text xml:space="preserve" text-anchor="start" x="81.31" y="-5.75" font-family="Helvetica,sans-Serif" font-size="10.00">+</text>
<text xml:space="preserve" text-anchor="start" x="113" y="-5.75" font-family="Helvetica,sans-Serif" font-size="10.00">run()</text>
<polygon fill="#666666" stroke="#666666" points="55.62,-32.5 55.62,-32.5 179.88,-32.5 179.88,-32.5 55.62,-32.5"/>
<polygon fill="#666666" stroke="#666666" points="55.62,-17.25 55.62,-17.25 179.88,-17.25 179.88,-17.25 55.62,-17.25"/>
<polygon fill="none" stroke="#666666" points="55.62,0 55.62,-49.75 179.88,-49.75 179.88,0 55.62,0"/>
</a>
</g>
</g>
<!-- Node2 -->
<g id="Node000002" class="node">
<title>Node2</title>
<g id="a_Node000002"><a xlink:href="structfilter__lp24dB__benchmark.html" target="_top" xlink:title=" ">
<polygon fill="white" stroke="none" points="175,-193.5 60.5,-193.5 60.5,-86.75 175,-86.75 175,-193.5"/>
<text xml:space="preserve" text-anchor="start" x="64.5" y="-180" font-family="Helvetica,sans-Serif" font-size="10.00">filter_lp24dB_benchmark</text>
<text xml:space="preserve" text-anchor="start" x="87.38" y="-168.75" font-family="Helvetica,sans-Serif" font-size="10.00">&lt; biquad_d1 &gt;</text>
<text xml:space="preserve" text-anchor="start" x="78.69" y="-153.5" font-family="Helvetica,sans-Serif" font-size="10.00">+</text>
<text xml:space="preserve" text-anchor="start" x="102.88" y="-153.5" font-family="Helvetica,sans-Serif" font-size="10.00">buffer</text>
<text xml:space="preserve" text-anchor="start" x="78.69" y="-138.25" font-family="Helvetica,sans-Serif" font-size="10.00">+</text>
<text xml:space="preserve" text-anchor="start" x="102.88" y="-138.25" font-family="Helvetica,sans-Serif" font-size="10.00">result</text>
<text xml:space="preserve" text-anchor="start" x="78.69" y="-123" font-family="Helvetica,sans-Serif" font-size="10.00">+</text>
<text xml:space="preserve" text-anchor="start" x="102.88" y="-123" font-family="Helvetica,sans-Serif" font-size="10.00">prepare()</text>
<text xml:space="preserve" text-anchor="start" x="78.69" y="-107.75" font-family="Helvetica,sans-Serif" font-size="10.00">+</text>
<text xml:space="preserve" text-anchor="start" x="102.88" y="-107.75" font-family="Helvetica,sans-Serif" font-size="10.00">cleanup()</text>
<text xml:space="preserve" text-anchor="start" x="78.69" y="-92.5" font-family="Helvetica,sans-Serif" font-size="10.00">+</text>
<text xml:space="preserve" text-anchor="start" x="102.88" y="-92.5" font-family="Helvetica,sans-Serif" font-size="10.00">scaler()</text>
<polygon fill="#666666" stroke="#666666" points="60.5,-165 60.5,-165 175,-165 175,-165 60.5,-165"/>
<polygon fill="#666666" stroke="#666666" points="60.5,-134.5 60.5,-134.5 100.88,-134.5 100.88,-134.5 60.5,-134.5"/>
<polygon fill="#666666" stroke="#666666" points="100.88,-134.5 100.88,-134.5 175,-134.5 175,-134.5 100.88,-134.5"/>
<polygon fill="none" stroke="#666666" points="60.5,-86.75 60.5,-193.5 175,-193.5 175,-86.75 60.5,-86.75"/>
</a>
</g>
</g>
<!-- Node2&#45;&gt;Node1 -->
<g id="edge1_Node000001_Node000002" class="edge">
<title>Node2&#45;&gt;Node1</title>
<g id="a_edge1_Node000001_Node000002"><a xlink:title=" ">
<path fill="none" stroke="#63b8ff" d="M117.75,-75.54C117.75,-66.35 117.75,-57.41 117.75,-49.7"/>
<polygon fill="none" stroke="#63b8ff" points="114.25,-75.3 117.75,-85.3 121.25,-75.3 114.25,-75.3"/>
</a>
</g>
</g>
<!-- Node3 -->
<g id="Node000003" class="node">
<title>Node3</title>
<g id="a_Node000003"><a xlink:href="structdsp_1_1biquad__d1.html" target="_top" xlink:title=" ">
<polygon fill="white" stroke="none" points="102.38,-464.25 13.12,-464.25 13.12,-262 102.38,-262 102.38,-464.25"/>
<text xml:space="preserve" text-anchor="start" x="25.5" y="-450.75" font-family="Helvetica,sans-Serif" font-size="10.00">dsp::biquad_d1</text>
<text xml:space="preserve" text-anchor="start" x="17.12" y="-435.5" font-family="Helvetica,sans-Serif" font-size="10.00">+</text>
<text xml:space="preserve" text-anchor="start" x="27.12" y="-435.5" font-family="Helvetica,sans-Serif" font-size="10.00">x1</text>
<text xml:space="preserve" text-anchor="start" x="17.12" y="-420.25" font-family="Helvetica,sans-Serif" font-size="10.00">+</text>
<text xml:space="preserve" text-anchor="start" x="27.12" y="-420.25" font-family="Helvetica,sans-Serif" font-size="10.00">x2</text>
<text xml:space="preserve" text-anchor="start" x="17.12" y="-405" font-family="Helvetica,sans-Serif" font-size="10.00">+</text>
<text xml:space="preserve" text-anchor="start" x="27.12" y="-405" font-family="Helvetica,sans-Serif" font-size="10.00">y1</text>
<text xml:space="preserve" text-anchor="start" x="17.12" y="-389.75" font-family="Helvetica,sans-Serif" font-size="10.00">+</text>
<text xml:space="preserve" text-anchor="start" x="27.12" y="-389.75" font-family="Helvetica,sans-Serif" font-size="10.00">y2</text>
<text xml:space="preserve" text-anchor="start" x="17.12" y="-374.5" font-family="Helvetica,sans-Serif" font-size="10.00">+</text>
<text xml:space="preserve" text-anchor="start" x="27.12" y="-374.5" font-family="Helvetica,sans-Serif" font-size="10.00">biquad_d1()</text>
<text xml:space="preserve" text-anchor="start" x="17.12" y="-359.25" font-family="Helvetica,sans-Serif" font-size="10.00">+</text>
<text xml:space="preserve" text-anchor="start" x="27.12" y="-359.25" font-family="Helvetica,sans-Serif" font-size="10.00">process()</text>
<text xml:space="preserve" text-anchor="start" x="17.12" y="-344" font-family="Helvetica,sans-Serif" font-size="10.00">+</text>
<text xml:space="preserve" text-anchor="start" x="27.12" y="-344" font-family="Helvetica,sans-Serif" font-size="10.00">process_zeroin()</text>
<text xml:space="preserve" text-anchor="start" x="17.12" y="-328.75" font-family="Helvetica,sans-Serif" font-size="10.00">+</text>
<text xml:space="preserve" text-anchor="start" x="27.12" y="-328.75" font-family="Helvetica,sans-Serif" font-size="10.00">process_lp()</text>
<text xml:space="preserve" text-anchor="start" x="17.12" y="-313.5" font-family="Helvetica,sans-Serif" font-size="10.00">+</text>
<text xml:space="preserve" text-anchor="start" x="27.12" y="-313.5" font-family="Helvetica,sans-Serif" font-size="10.00">process_hp()</text>
<text xml:space="preserve" text-anchor="start" x="17.12" y="-298.25" font-family="Helvetica,sans-Serif" font-size="10.00">+</text>
<text xml:space="preserve" text-anchor="start" x="27.12" y="-298.25" font-family="Helvetica,sans-Serif" font-size="10.00">sanitize()</text>
<text xml:space="preserve" text-anchor="start" x="17.12" y="-283" font-family="Helvetica,sans-Serif" font-size="10.00">+</text>
<text xml:space="preserve" text-anchor="start" x="27.12" y="-283" font-family="Helvetica,sans-Serif" font-size="10.00">reset()</text>
<text xml:space="preserve" text-anchor="start" x="17.12" y="-267.75" font-family="Helvetica,sans-Serif" font-size="10.00">+</text>
<text xml:space="preserve" text-anchor="start" x="27.12" y="-267.75" font-family="Helvetica,sans-Serif" font-size="10.00">empty()</text>
<polygon fill="#666666" stroke="#666666" points="13.12,-447 13.12,-447 102.38,-447 102.38,-447 13.12,-447"/>
<polygon fill="#666666" stroke="#666666" points="13.12,-386 13.12,-386 25.12,-386 25.12,-386 13.12,-386"/>
<polygon fill="#666666" stroke="#666666" points="25.12,-386 25.12,-386 102.38,-386 102.38,-386 25.12,-386"/>
<polygon fill="none" stroke="#666666" points="13.12,-262 13.12,-464.25 102.38,-464.25 102.38,-262 13.12,-262"/>
</a>
</g>
</g>
<!-- Node3&#45;&gt;Node2 -->
<g id="edge2_Node000002_Node000003" class="edge">
<title>Node3&#45;&gt;Node2</title>
<g id="a_edge2_Node000002_Node000003"><a xlink:title=" ">
<path fill="none" stroke="#63b8ff" d="M84.85,-262.29C90.05,-243.15 95.37,-223.57 100.17,-205.89"/>
<polygon fill="none" stroke="#63b8ff" points="100.18,-205.84 97.89,-199 103.33,-194.26 105.61,-201.09 100.18,-205.84"/>
</a>
</g>
<text xml:space="preserve" text-anchor="start" x="101.34" y="-231.5" font-family="Helvetica,sans-Serif" font-size="10.00" fill="grey">+biquad</text>
<text xml:space="preserve" text-anchor="start" x="101.34" y="-216.25" font-family="Helvetica,sans-Serif" font-size="10.00" fill="grey">+biquad2</text>
</g>
<!-- Node4 -->
<g id="Node000004" class="node">
<title>Node4</title>
<g id="a_Node000004"><a xlink:href="classdsp_1_1biquad__coeffs.html" target="_top" xlink:title=" ">
<polygon fill="white" stroke="none" points="115.5,-901.75 0,-901.75 0,-501.25 115.5,-501.25 115.5,-901.75"/>
<text xml:space="preserve" text-anchor="start" x="17.62" y="-888.25" font-family="Helvetica,sans-Serif" font-size="10.00">dsp::biquad_coeffs</text>
<text xml:space="preserve" text-anchor="start" x="4" y="-873" font-family="Helvetica,sans-Serif" font-size="10.00">+</text>
<text xml:space="preserve" text-anchor="start" x="14" y="-873" font-family="Helvetica,sans-Serif" font-size="10.00">a0</text>
<text xml:space="preserve" text-anchor="start" x="4" y="-857.75" font-family="Helvetica,sans-Serif" font-size="10.00">+</text>
<text xml:space="preserve" text-anchor="start" x="14" y="-857.75" font-family="Helvetica,sans-Serif" font-size="10.00">a1</text>
<text xml:space="preserve" text-anchor="start" x="4" y="-842.5" font-family="Helvetica,sans-Serif" font-size="10.00">+</text>
<text xml:space="preserve" text-anchor="start" x="14" y="-842.5" font-family="Helvetica,sans-Serif" font-size="10.00">a2</text>
<text xml:space="preserve" text-anchor="start" x="4" y="-827.25" font-family="Helvetica,sans-Serif" font-size="10.00">+</text>
<text xml:space="preserve" text-anchor="start" x="14" y="-827.25" font-family="Helvetica,sans-Serif" font-size="10.00">b1</text>
<text xml:space="preserve" text-anchor="start" x="4" y="-812" font-family="Helvetica,sans-Serif" font-size="10.00">+</text>
<text xml:space="preserve" text-anchor="start" x="14" y="-812" font-family="Helvetica,sans-Serif" font-size="10.00">b2</text>
<text xml:space="preserve" text-anchor="start" x="4" y="-796.75" font-family="Helvetica,sans-Serif" font-size="10.00">+</text>
<text xml:space="preserve" text-anchor="start" x="14" y="-796.75" font-family="Helvetica,sans-Serif" font-size="10.00">biquad_coeffs()</text>
<text xml:space="preserve" text-anchor="start" x="4" y="-781.5" font-family="Helvetica,sans-Serif" font-size="10.00">+</text>
<text xml:space="preserve" text-anchor="start" x="14" y="-781.5" font-family="Helvetica,sans-Serif" font-size="10.00">set_null()</text>
<text xml:space="preserve" text-anchor="start" x="4" y="-766.25" font-family="Helvetica,sans-Serif" font-size="10.00">+</text>
<text xml:space="preserve" text-anchor="start" x="14" y="-766.25" font-family="Helvetica,sans-Serif" font-size="10.00">set_lp_rbj()</text>
<text xml:space="preserve" text-anchor="start" x="4" y="-751" font-family="Helvetica,sans-Serif" font-size="10.00">+</text>
<text xml:space="preserve" text-anchor="start" x="14" y="-751" font-family="Helvetica,sans-Serif" font-size="10.00">set_lp_zoelzer()</text>
<text xml:space="preserve" text-anchor="start" x="4" y="-735.75" font-family="Helvetica,sans-Serif" font-size="10.00">+</text>
<text xml:space="preserve" text-anchor="start" x="14" y="-735.75" font-family="Helvetica,sans-Serif" font-size="10.00">set_hp_rbj()</text>
<text xml:space="preserve" text-anchor="start" x="4" y="-720.5" font-family="Helvetica,sans-Serif" font-size="10.00">+</text>
<text xml:space="preserve" text-anchor="start" x="14" y="-720.5" font-family="Helvetica,sans-Serif" font-size="10.00">set_hp_rbj_optimized()</text>
<text xml:space="preserve" text-anchor="start" x="4" y="-705.25" font-family="Helvetica,sans-Serif" font-size="10.00">+</text>
<text xml:space="preserve" text-anchor="start" x="14" y="-705.25" font-family="Helvetica,sans-Serif" font-size="10.00">set_bp_rbj()</text>
<text xml:space="preserve" text-anchor="start" x="4" y="-690" font-family="Helvetica,sans-Serif" font-size="10.00">+</text>
<text xml:space="preserve" text-anchor="start" x="14" y="-690" font-family="Helvetica,sans-Serif" font-size="10.00">set_br_rbj()</text>
<text xml:space="preserve" text-anchor="start" x="4" y="-674.75" font-family="Helvetica,sans-Serif" font-size="10.00">+</text>
<text xml:space="preserve" text-anchor="start" x="14" y="-674.75" font-family="Helvetica,sans-Serif" font-size="10.00">set_allpass()</text>
<text xml:space="preserve" text-anchor="start" x="4" y="-659.5" font-family="Helvetica,sans-Serif" font-size="10.00">+</text>
<text xml:space="preserve" text-anchor="start" x="14" y="-659.5" font-family="Helvetica,sans-Serif" font-size="10.00">set_bilinear()</text>
<text xml:space="preserve" text-anchor="start" x="4" y="-644.25" font-family="Helvetica,sans-Serif" font-size="10.00">+</text>
<text xml:space="preserve" text-anchor="start" x="14" y="-644.25" font-family="Helvetica,sans-Serif" font-size="10.00">set_bilinear_direct()</text>
<text xml:space="preserve" text-anchor="start" x="4" y="-629" font-family="Helvetica,sans-Serif" font-size="10.00">+</text>
<text xml:space="preserve" text-anchor="start" x="14" y="-629" font-family="Helvetica,sans-Serif" font-size="10.00">set_peakeq_rbj()</text>
<text xml:space="preserve" text-anchor="start" x="4" y="-613.75" font-family="Helvetica,sans-Serif" font-size="10.00">+</text>
<text xml:space="preserve" text-anchor="start" x="14" y="-613.75" font-family="Helvetica,sans-Serif" font-size="10.00">set_lowshelf_rbj()</text>
<text xml:space="preserve" text-anchor="start" x="4" y="-598.5" font-family="Helvetica,sans-Serif" font-size="10.00">+</text>
<text xml:space="preserve" text-anchor="start" x="14" y="-598.5" font-family="Helvetica,sans-Serif" font-size="10.00">set_highshelf_rbj()</text>
<text xml:space="preserve" text-anchor="start" x="4" y="-583.25" font-family="Helvetica,sans-Serif" font-size="10.00">+</text>
<text xml:space="preserve" text-anchor="start" x="14" y="-583.25" font-family="Helvetica,sans-Serif" font-size="10.00">copy_coeffs()</text>
<text xml:space="preserve" text-anchor="start" x="4" y="-568" font-family="Helvetica,sans-Serif" font-size="10.00">+</text>
<text xml:space="preserve" text-anchor="start" x="14" y="-568" font-family="Helvetica,sans-Serif" font-size="10.00">freq_gain()</text>
<text xml:space="preserve" text-anchor="start" x="4" y="-552.75" font-family="Helvetica,sans-Serif" font-size="10.00">+</text>
<text xml:space="preserve" text-anchor="start" x="14" y="-552.75" font-family="Helvetica,sans-Serif" font-size="10.00">h_z()</text>
<text xml:space="preserve" text-anchor="start" x="4" y="-537.5" font-family="Helvetica,sans-Serif" font-size="10.00">+</text>
<text xml:space="preserve" text-anchor="start" x="14" y="-537.5" font-family="Helvetica,sans-Serif" font-size="10.00">prewarp()</text>
<text xml:space="preserve" text-anchor="start" x="4" y="-522.25" font-family="Helvetica,sans-Serif" font-size="10.00">+</text>
<text xml:space="preserve" text-anchor="start" x="14" y="-522.25" font-family="Helvetica,sans-Serif" font-size="10.00">unwarp()</text>
<text xml:space="preserve" text-anchor="start" x="4" y="-507" font-family="Helvetica,sans-Serif" font-size="10.00">+</text>
<text xml:space="preserve" text-anchor="start" x="14" y="-507" font-family="Helvetica,sans-Serif" font-size="10.00">unwarpf()</text>
<polygon fill="#666666" stroke="#666666" points="0,-884.5 0,-884.5 115.5,-884.5 115.5,-884.5 0,-884.5"/>
<polygon fill="#666666" stroke="#666666" points="0,-808.25 0,-808.25 12,-808.25 12,-808.25 0,-808.25"/>
<polygon fill="#666666" stroke="#666666" points="12,-808.25 12,-808.25 115.5,-808.25 115.5,-808.25 12,-808.25"/>
<polygon fill="none" stroke="#666666" points="0,-501.25 0,-901.75 115.5,-901.75 115.5,-501.25 0,-501.25"/>
</a>
</g>
</g>
<!-- Node4&#45;&gt;Node3 -->
<g id="edge3_Node000003_Node000004" class="edge">
<title>Node4&#45;&gt;Node3</title>
<g id="a_edge3_Node000003_Node000004"><a xlink:title=" ">
<path fill="none" stroke="#63b8ff" d="M57.75,-490.13C57.75,-481.27 57.75,-472.59 57.75,-464.17"/>
<polygon fill="none" stroke="#63b8ff" points="54.25,-489.91 57.75,-499.91 61.25,-489.91 54.25,-489.91"/>
</a>
</g>
</g>
<!-- Node5 -->
<g id="Node000005" class="node">
<title>Node5</title>
<g id="a_Node000005"><a xlink:href="structfilter__lp24dB__benchmark.html" target="_top" xlink:title=" ">
<polygon fill="white" stroke="none" points="235,-431.75 120.5,-431.75 120.5,-294.5 235,-294.5 235,-431.75"/>
<text xml:space="preserve" text-anchor="start" x="124.5" y="-418.25" font-family="Helvetica,sans-Serif" font-size="10.00">filter_lp24dB_benchmark</text>
<text xml:space="preserve" text-anchor="start" x="146.25" y="-407" font-family="Helvetica,sans-Serif" font-size="10.00">&lt; filter_class &gt;</text>
<text xml:space="preserve" text-anchor="start" x="138.69" y="-391.75" font-family="Helvetica,sans-Serif" font-size="10.00">+</text>
<text xml:space="preserve" text-anchor="start" x="162.88" y="-391.75" font-family="Helvetica,sans-Serif" font-size="10.00">buffer</text>
<text xml:space="preserve" text-anchor="start" x="138.69" y="-376.5" font-family="Helvetica,sans-Serif" font-size="10.00">+</text>
<text xml:space="preserve" text-anchor="start" x="162.88" y="-376.5" font-family="Helvetica,sans-Serif" font-size="10.00">result</text>
<text xml:space="preserve" text-anchor="start" x="138.69" y="-361.25" font-family="Helvetica,sans-Serif" font-size="10.00">+</text>
<text xml:space="preserve" text-anchor="start" x="162.88" y="-361.25" font-family="Helvetica,sans-Serif" font-size="10.00">biquad</text>
<text xml:space="preserve" text-anchor="start" x="138.69" y="-346" font-family="Helvetica,sans-Serif" font-size="10.00">+</text>
<text xml:space="preserve" text-anchor="start" x="162.88" y="-346" font-family="Helvetica,sans-Serif" font-size="10.00">biquad2</text>
<text xml:space="preserve" text-anchor="start" x="138.69" y="-330.75" font-family="Helvetica,sans-Serif" font-size="10.00">+</text>
<text xml:space="preserve" text-anchor="start" x="162.88" y="-330.75" font-family="Helvetica,sans-Serif" font-size="10.00">prepare()</text>
<text xml:space="preserve" text-anchor="start" x="138.69" y="-315.5" font-family="Helvetica,sans-Serif" font-size="10.00">+</text>
<text xml:space="preserve" text-anchor="start" x="162.88" y="-315.5" font-family="Helvetica,sans-Serif" font-size="10.00">cleanup()</text>
<text xml:space="preserve" text-anchor="start" x="138.69" y="-300.25" font-family="Helvetica,sans-Serif" font-size="10.00">+</text>
<text xml:space="preserve" text-anchor="start" x="162.88" y="-300.25" font-family="Helvetica,sans-Serif" font-size="10.00">scaler()</text>
<polygon fill="#666666" stroke="#666666" points="120.5,-403.25 120.5,-403.25 235,-403.25 235,-403.25 120.5,-403.25"/>
<polygon fill="#666666" stroke="#666666" points="120.5,-342.25 120.5,-342.25 160.88,-342.25 160.88,-342.25 120.5,-342.25"/>
<polygon fill="#666666" stroke="#666666" points="160.88,-342.25 160.88,-342.25 235,-342.25 235,-342.25 160.88,-342.25"/>
<polygon fill="none" stroke="#666666" points="120.5,-294.5 120.5,-431.75 235,-431.75 235,-294.5 120.5,-294.5"/>
</a>
</g>
</g>
<!-- Node5&#45;&gt;Node2 -->
<g id="edge4_Node000002_Node000005" class="edge">
<title>Node5&#45;&gt;Node2</title>
<g id="a_edge4_Node000002_Node000005"><a xlink:title=" ">
<path fill="none" stroke="orange" d="M165.24,-283.36C160.68,-259.98 154.86,-234.49 147.75,-211.5 145.91,-205.54 143.73,-199.39 141.4,-193.33"/>
<polygon fill="orange" stroke="orange" points="161.8,-283.99 167.1,-293.16 168.68,-282.69 161.8,-283.99"/>
</a>
</g>
<text xml:space="preserve" text-anchor="start" x="159.64" y="-223.88" font-family="Helvetica,sans-Serif" font-size="10.00" fill="grey">&lt; biquad_d1 &gt;</text>
</g>
</g>
</svg>

<g id="navigator" transform="translate(0 0)" fill="#404254">
  <rect fill="#f2f5e9" fill-opacity="0.5" stroke="#606060" stroke-width=".5" x="0" y="0" width="60" height="60"/>
  <use id="zoomplus" xlink:href="#zoomPlus" x="17" y="9" onmousedown="handleZoom(evt,'in')"/>
  <use id="zoomminus" xlink:href="#zoomMin" x="42" y="9" onmousedown="handleZoom(evt,'out')"/>
  <use id="reset" xlink:href="#resetDef" x="30" y="36" onmousedown="handleReset()"/>
   <use id="arrowup" xlink:href="#arrowUp" x="0" y="0" onmousedown="handlePan(0,-1)"/>
  <use id="arrowright" xlink:href="#arrowRight" x="0" y="0" onmousedown="handlePan(1,0)"/>
  <use id="arrowdown" xlink:href="#arrowDown" x="0" y="0" onmousedown="handlePan(0,1)"/>
  <use id="arrowleft" xlink:href="#arrowLeft" x="0" y="0" onmousedown="handlePan(-1,0)"/>
</g>
<svg viewBox="0 0 15 15" width="100%" height="30px" preserveAspectRatio="xMaxYMin meet">
 <g id="arrow_out" transform="scale(0.3 0.3)">
  <a xlink:href="structfilter__24dB__lp__onepass__d1__coll__graph_org.svg" target="_base">
   <rect id="button" ry="5" rx="5" y="6" x="6" height="38" width="38"
        fill="#f2f5e9" fill-opacity="0.5" stroke="#606060" stroke-width="1.0"/>
   <path id="arrow"
     d="M 11.500037,31.436501 C 11.940474,20.09759 22.043105,11.32322 32.158766,21.979434 L 37.068811,17.246167 C 37.068811,17.246167 37.088388,32 37.088388,32 L 22.160133,31.978069 C 22.160133,31.978069 26.997745,27.140456 26.997745,27.140456 C 18.528582,18.264221 13.291696,25.230495 11.500037,31.436501 z"
     style="fill:#404040;"/>
  </a>
 </g>
</svg>

<style type='text/css'>
<![CDATA[
[data-mouse-over-selected='false'] { opacity: 0.7; }
[data-mouse-over-selected='true']  { opacity: 1.0; }
]]>
</style>
<script type="application/ecmascript"><![CDATA[
document.addEventListener('DOMContentLoaded', (event) => {
  highlightEdges();
  highlightAdjacentNodes();
});
]]></script>
</svg>
