<?xml version="1.0" encoding="UTF-8" standalone="no"?>
<!DOCTYPE svg PUBLIC "-//W3C//DTD SVG 1.1//EN"
 "http://www.w3.org/Graphics/SVG/1.1/DTD/svg11.dtd">
<!-- Generated by graphviz version 14.0.2 (0)
 -->
<!-- Title: exprtk::type_store&lt; T &gt;::type_view&lt; ViewType &gt; Pages: 1 -->
<!--zoomable 458 -->

<svg id="main" version="1.1" xmlns="http://www.w3.org/2000/svg" xmlns:xlink="http://www.w3.org/1999/xlink" xml:space="preserve" onload="init(evt)">

<style type="text/css"><![CDATA[
.node, .edge {opacity: 0.7;}
.node.selected, .edge.selected {opacity: 1;}
.edge:hover path { stroke: red; }
.edge:hover polygon { stroke: red; fill: red; }
]]></style>

<defs>
  <circle id="rim" cx="0" cy="0" r="7"/>
  <circle id="rim2" cx="0" cy="0" r="3.5"/>
  <g id="zoomPlus">
    <use xlink:href="#rim" fill="#404040"><set attributeName="fill" to="#808080" begin="zoomplus.mouseover" end="zoomplus.mouseout"/></use>
    <path d="M-4,0h8M0,-4v8" fill="none" stroke="white" stroke-width="1.5" pointer-events="none"/>
  </g>
  <g id="zoomMin">
    <use xlink:href="#rim" fill="#404040"><set attributeName="fill" to="#808080" begin="zoomminus.mouseover" end="zoomminus.mouseout"/></use>
    <path d="M-4,0h8" fill="none" stroke="white" stroke-width="1.5" pointer-events="none"/>
  </g>
  <g id="arrowUp" transform="translate(30 24)">
    <use xlink:href="#rim"/>
    <path pointer-events="none" fill="none" stroke="white" stroke-width="1.5" d="M0,-3.0v7 M-2.5,-0.5L0,-3.0L2.5,-0.5"/>
  </g>
  <g id="arrowRight" transform="rotate(90) translate(36 -43)">
    <use xlink:href="#rim"/>
    <path pointer-events="none" fill="none" stroke="white" stroke-width="1.5" d="M0,-3.0v7 M-2.5,-0.5L0,-3.0L2.5,-0.5"/>
  </g>
  <g id="arrowDown" transform="rotate(180) translate(-30 -48)">
    <use xlink:href="#rim"/>
    <path pointer-events="none" fill="none" stroke="white" stroke-width="1.5" d="M0,-3.0v7 M-2.5,-0.5L0,-3.0L2.5,-0.5"/>
  </g>
  <g id="arrowLeft" transform="rotate(270) translate(-36 17)">
    <use xlink:href="#rim"/>
    <path pointer-events="none" fill="none" stroke="white" stroke-width="1.5" d="M0,-3.0v7 M-2.5,-0.5L0,-3.0L2.5,-0.5"/>
  </g>
  <g id="resetDef">
    <use xlink:href="#rim2" fill="#404040"><set attributeName="fill" to="#808080" begin="reset.mouseover" end="reset.mouseout"/></use>
  </g>
</defs>
<script type="application/ecmascript">
var viewWidth = 240;
var viewHeight = 458;
var sectionId = 'dynsection-0';
</script>
<script type="application/ecmascript" xlink:href="svg.min.js"/>
<svg id="graph" class="graph">
<g id="viewport">
<title>exprtk::type_store&lt; T &gt;::type_view&lt; ViewType &gt;</title>
<!-- Node1 -->
<g id="Node000001" class="node">
<title>Node1</title>
<g id="a_Node000001"><a xlink:title=" ">
<polygon fill="#999999" stroke="none" points="181.38,-449.75 43.62,-449.75 43.62,-251.5 181.38,-251.5 181.38,-449.75"/>
<text xml:space="preserve" text-anchor="start" x="47.62" y="-436.25" font-family="Helvetica,sans-Serif" font-size="10.00">exprtk::type_store</text>
<text xml:space="preserve" text-anchor="start" x="47.62" y="-425" font-family="Helvetica,sans-Serif" font-size="10.00">&lt; T &gt;::type_view&lt; ViewType &gt;</text>
<text xml:space="preserve" text-anchor="start" x="65.19" y="-409.75" font-family="Helvetica,sans-Serif" font-size="10.00">+</text>
<text xml:space="preserve" text-anchor="start" x="92.75" y="-409.75" font-family="Helvetica,sans-Serif" font-size="10.00">ts_</text>
<text xml:space="preserve" text-anchor="start" x="65.19" y="-394.5" font-family="Helvetica,sans-Serif" font-size="10.00">+</text>
<text xml:space="preserve" text-anchor="start" x="92.75" y="-394.5" font-family="Helvetica,sans-Serif" font-size="10.00">data_</text>
<text xml:space="preserve" text-anchor="start" x="65.19" y="-379.25" font-family="Helvetica,sans-Serif" font-size="10.00">+</text>
<text xml:space="preserve" text-anchor="start" x="92.75" y="-379.25" font-family="Helvetica,sans-Serif" font-size="10.00">type_view()</text>
<text xml:space="preserve" text-anchor="start" x="65.19" y="-364" font-family="Helvetica,sans-Serif" font-size="10.00">+</text>
<text xml:space="preserve" text-anchor="start" x="92.75" y="-364" font-family="Helvetica,sans-Serif" font-size="10.00">type_view()</text>
<text xml:space="preserve" text-anchor="start" x="65.19" y="-348.75" font-family="Helvetica,sans-Serif" font-size="10.00">+</text>
<text xml:space="preserve" text-anchor="start" x="92.75" y="-348.75" font-family="Helvetica,sans-Serif" font-size="10.00">size()</text>
<text xml:space="preserve" text-anchor="start" x="65.19" y="-333.5" font-family="Helvetica,sans-Serif" font-size="10.00">+</text>
<text xml:space="preserve" text-anchor="start" x="92.75" y="-333.5" font-family="Helvetica,sans-Serif" font-size="10.00">operator[]()</text>
<text xml:space="preserve" text-anchor="start" x="65.19" y="-318.25" font-family="Helvetica,sans-Serif" font-size="10.00">+</text>
<text xml:space="preserve" text-anchor="start" x="92.75" y="-318.25" font-family="Helvetica,sans-Serif" font-size="10.00">operator[]()</text>
<text xml:space="preserve" text-anchor="start" x="65.19" y="-303" font-family="Helvetica,sans-Serif" font-size="10.00">+</text>
<text xml:space="preserve" text-anchor="start" x="92.75" y="-303" font-family="Helvetica,sans-Serif" font-size="10.00">begin()</text>
<text xml:space="preserve" text-anchor="start" x="65.19" y="-287.75" font-family="Helvetica,sans-Serif" font-size="10.00">+</text>
<text xml:space="preserve" text-anchor="start" x="92.75" y="-287.75" font-family="Helvetica,sans-Serif" font-size="10.00">begin()</text>
<text xml:space="preserve" text-anchor="start" x="65.19" y="-272.5" font-family="Helvetica,sans-Serif" font-size="10.00">+</text>
<text xml:space="preserve" text-anchor="start" x="92.75" y="-272.5" font-family="Helvetica,sans-Serif" font-size="10.00">end()</text>
<text xml:space="preserve" text-anchor="start" x="65.19" y="-257.25" font-family="Helvetica,sans-Serif" font-size="10.00">+</text>
<text xml:space="preserve" text-anchor="start" x="92.75" y="-257.25" font-family="Helvetica,sans-Serif" font-size="10.00">end()</text>
<polygon fill="#666666" stroke="#666666" points="43.62,-421.25 43.62,-421.25 181.38,-421.25 181.38,-421.25 43.62,-421.25"/>
<polygon fill="#666666" stroke="#666666" points="43.62,-390.75 43.62,-390.75 90.75,-390.75 90.75,-390.75 43.62,-390.75"/>
<polygon fill="#666666" stroke="#666666" points="90.75,-390.75 90.75,-390.75 181.38,-390.75 181.38,-390.75 90.75,-390.75"/>
<polygon fill="none" stroke="#666666" points="43.62,-251.5 43.62,-449.75 181.38,-449.75 181.38,-251.5 43.62,-251.5"/>
</a>
</g>
</g>
<!-- Node2 -->
<g id="Node000002" class="node">
<title>Node2</title>
<g id="a_Node000002"><a xlink:href="structexprtk_1_1type__store_1_1type__view.html" target="_top" xlink:title=" ">
<polygon fill="white" stroke="none" points="101,-198.25 0,-198.25 0,0 101,0 101,-198.25"/>
<text xml:space="preserve" text-anchor="start" x="4" y="-184.75" font-family="Helvetica,sans-Serif" font-size="10.00">exprtk::type_store</text>
<text xml:space="preserve" text-anchor="start" x="4" y="-173.5" font-family="Helvetica,sans-Serif" font-size="10.00">&lt; T &gt;::type_view&lt; T &gt;</text>
<text xml:space="preserve" text-anchor="start" x="12.38" y="-158.25" font-family="Helvetica,sans-Serif" font-size="10.00">+</text>
<text xml:space="preserve" text-anchor="start" x="30.75" y="-158.25" font-family="Helvetica,sans-Serif" font-size="10.00">ts_</text>
<text xml:space="preserve" text-anchor="start" x="12.38" y="-143" font-family="Helvetica,sans-Serif" font-size="10.00">+</text>
<text xml:space="preserve" text-anchor="start" x="30.75" y="-143" font-family="Helvetica,sans-Serif" font-size="10.00">data_</text>
<text xml:space="preserve" text-anchor="start" x="12.38" y="-127.75" font-family="Helvetica,sans-Serif" font-size="10.00">+</text>
<text xml:space="preserve" text-anchor="start" x="30.75" y="-127.75" font-family="Helvetica,sans-Serif" font-size="10.00">type_view()</text>
<text xml:space="preserve" text-anchor="start" x="12.38" y="-112.5" font-family="Helvetica,sans-Serif" font-size="10.00">+</text>
<text xml:space="preserve" text-anchor="start" x="30.75" y="-112.5" font-family="Helvetica,sans-Serif" font-size="10.00">type_view()</text>
<text xml:space="preserve" text-anchor="start" x="12.38" y="-97.25" font-family="Helvetica,sans-Serif" font-size="10.00">+</text>
<text xml:space="preserve" text-anchor="start" x="30.75" y="-97.25" font-family="Helvetica,sans-Serif" font-size="10.00">size()</text>
<text xml:space="preserve" text-anchor="start" x="12.38" y="-82" font-family="Helvetica,sans-Serif" font-size="10.00">+</text>
<text xml:space="preserve" text-anchor="start" x="30.75" y="-82" font-family="Helvetica,sans-Serif" font-size="10.00">operator[]()</text>
<text xml:space="preserve" text-anchor="start" x="12.38" y="-66.75" font-family="Helvetica,sans-Serif" font-size="10.00">+</text>
<text xml:space="preserve" text-anchor="start" x="30.75" y="-66.75" font-family="Helvetica,sans-Serif" font-size="10.00">operator[]()</text>
<text xml:space="preserve" text-anchor="start" x="12.38" y="-51.5" font-family="Helvetica,sans-Serif" font-size="10.00">+</text>
<text xml:space="preserve" text-anchor="start" x="30.75" y="-51.5" font-family="Helvetica,sans-Serif" font-size="10.00">begin()</text>
<text xml:space="preserve" text-anchor="start" x="12.38" y="-36.25" font-family="Helvetica,sans-Serif" font-size="10.00">+</text>
<text xml:space="preserve" text-anchor="start" x="30.75" y="-36.25" font-family="Helvetica,sans-Serif" font-size="10.00">begin()</text>
<text xml:space="preserve" text-anchor="start" x="12.38" y="-21" font-family="Helvetica,sans-Serif" font-size="10.00">+</text>
<text xml:space="preserve" text-anchor="start" x="30.75" y="-21" font-family="Helvetica,sans-Serif" font-size="10.00">end()</text>
<text xml:space="preserve" text-anchor="start" x="12.38" y="-5.75" font-family="Helvetica,sans-Serif" font-size="10.00">+</text>
<text xml:space="preserve" text-anchor="start" x="30.75" y="-5.75" font-family="Helvetica,sans-Serif" font-size="10.00">end()</text>
<polygon fill="#666666" stroke="#666666" points="0,-169.75 0,-169.75 101,-169.75 101,-169.75 0,-169.75"/>
<polygon fill="#666666" stroke="#666666" points="0,-139.25 0,-139.25 28.75,-139.25 28.75,-139.25 0,-139.25"/>
<polygon fill="#666666" stroke="#666666" points="28.75,-139.25 28.75,-139.25 101,-139.25 101,-139.25 28.75,-139.25"/>
<polygon fill="none" stroke="#666666" points="0,0 0,-198.25 101,-198.25 101,0 0,0"/>
</a>
</g>
</g>
<!-- Node1&#45;&gt;Node2 -->
<g id="edge1_Node000001_Node000002" class="edge">
<title>Node1&#45;&gt;Node2</title>
<g id="a_edge1_Node000001_Node000002"><a xlink:title=" ">
<path fill="none" stroke="orange" d="M85.49,-240.92C81.95,-226.69 78.35,-212.18 74.86,-198.15"/>
<polygon fill="orange" stroke="orange" points="82,-241.4 87.81,-250.26 88.79,-239.71 82,-241.4"/>
</a>
</g>
<text xml:space="preserve" text-anchor="start" x="86.36" y="-221" font-family="Helvetica,sans-Serif" font-size="10.00" fill="grey">&lt; T &gt;</text>
</g>
<!-- Node3 -->
<g id="Node000003" class="node">
<title>Node3</title>
<g id="a_Node000003"><a xlink:href="structexprtk_1_1type__store_1_1type__view.html" target="_top" xlink:title=" ">
<polygon fill="white" stroke="none" points="232.38,-198.25 118.62,-198.25 118.62,0 232.38,0 232.38,-198.25"/>
<text xml:space="preserve" text-anchor="start" x="122.62" y="-184.75" font-family="Helvetica,sans-Serif" font-size="10.00">exprtk::type_store</text>
<text xml:space="preserve" text-anchor="start" x="122.62" y="-173.5" font-family="Helvetica,sans-Serif" font-size="10.00">&lt; T &gt;::type_view&lt; char &gt;</text>
<text xml:space="preserve" text-anchor="start" x="134.19" y="-158.25" font-family="Helvetica,sans-Serif" font-size="10.00">+</text>
<text xml:space="preserve" text-anchor="start" x="155.75" y="-158.25" font-family="Helvetica,sans-Serif" font-size="10.00">ts_</text>
<text xml:space="preserve" text-anchor="start" x="134.19" y="-143" font-family="Helvetica,sans-Serif" font-size="10.00">+</text>
<text xml:space="preserve" text-anchor="start" x="155.75" y="-143" font-family="Helvetica,sans-Serif" font-size="10.00">data_</text>
<text xml:space="preserve" text-anchor="start" x="134.19" y="-127.75" font-family="Helvetica,sans-Serif" font-size="10.00">+</text>
<text xml:space="preserve" text-anchor="start" x="155.75" y="-127.75" font-family="Helvetica,sans-Serif" font-size="10.00">type_view()</text>
<text xml:space="preserve" text-anchor="start" x="134.19" y="-112.5" font-family="Helvetica,sans-Serif" font-size="10.00">+</text>
<text xml:space="preserve" text-anchor="start" x="155.75" y="-112.5" font-family="Helvetica,sans-Serif" font-size="10.00">type_view()</text>
<text xml:space="preserve" text-anchor="start" x="134.19" y="-97.25" font-family="Helvetica,sans-Serif" font-size="10.00">+</text>
<text xml:space="preserve" text-anchor="start" x="155.75" y="-97.25" font-family="Helvetica,sans-Serif" font-size="10.00">size()</text>
<text xml:space="preserve" text-anchor="start" x="134.19" y="-82" font-family="Helvetica,sans-Serif" font-size="10.00">+</text>
<text xml:space="preserve" text-anchor="start" x="155.75" y="-82" font-family="Helvetica,sans-Serif" font-size="10.00">operator[]()</text>
<text xml:space="preserve" text-anchor="start" x="134.19" y="-66.75" font-family="Helvetica,sans-Serif" font-size="10.00">+</text>
<text xml:space="preserve" text-anchor="start" x="155.75" y="-66.75" font-family="Helvetica,sans-Serif" font-size="10.00">operator[]()</text>
<text xml:space="preserve" text-anchor="start" x="134.19" y="-51.5" font-family="Helvetica,sans-Serif" font-size="10.00">+</text>
<text xml:space="preserve" text-anchor="start" x="155.75" y="-51.5" font-family="Helvetica,sans-Serif" font-size="10.00">begin()</text>
<text xml:space="preserve" text-anchor="start" x="134.19" y="-36.25" font-family="Helvetica,sans-Serif" font-size="10.00">+</text>
<text xml:space="preserve" text-anchor="start" x="155.75" y="-36.25" font-family="Helvetica,sans-Serif" font-size="10.00">begin()</text>
<text xml:space="preserve" text-anchor="start" x="134.19" y="-21" font-family="Helvetica,sans-Serif" font-size="10.00">+</text>
<text xml:space="preserve" text-anchor="start" x="155.75" y="-21" font-family="Helvetica,sans-Serif" font-size="10.00">end()</text>
<text xml:space="preserve" text-anchor="start" x="134.19" y="-5.75" font-family="Helvetica,sans-Serif" font-size="10.00">+</text>
<text xml:space="preserve" text-anchor="start" x="155.75" y="-5.75" font-family="Helvetica,sans-Serif" font-size="10.00">end()</text>
<polygon fill="#666666" stroke="#666666" points="118.62,-169.75 118.62,-169.75 232.38,-169.75 232.38,-169.75 118.62,-169.75"/>
<polygon fill="#666666" stroke="#666666" points="118.62,-139.25 118.62,-139.25 153.75,-139.25 153.75,-139.25 118.62,-139.25"/>
<polygon fill="#666666" stroke="#666666" points="153.75,-139.25 153.75,-139.25 232.38,-139.25 232.38,-139.25 153.75,-139.25"/>
<polygon fill="none" stroke="#666666" points="118.62,0 118.62,-198.25 232.38,-198.25 232.38,0 118.62,0"/>
</a>
</g>
</g>
<!-- Node1&#45;&gt;Node3 -->
<g id="edge2_Node000001_Node000003" class="edge">
<title>Node1&#45;&gt;Node3</title>
<g id="a_edge2_Node000001_Node000003"><a xlink:title=" ">
<path fill="none" stroke="orange" d="M139.95,-240.92C143.54,-226.69 147.21,-212.18 150.75,-198.15"/>
<polygon fill="orange" stroke="orange" points="136.64,-239.71 137.59,-250.26 143.43,-241.43 136.64,-239.71"/>
</a>
</g>
<text xml:space="preserve" text-anchor="start" x="148.89" y="-221" font-family="Helvetica,sans-Serif" font-size="10.00" fill="grey">&lt; char &gt;</text>
</g>
</g>
</svg>

<g id="navigator" transform="translate(0 0)" fill="#404254">
  <rect fill="#f2f5e9" fill-opacity="0.5" stroke="#606060" stroke-width=".5" x="0" y="0" width="60" height="60"/>
  <use id="zoomplus" xlink:href="#zoomPlus" x="17" y="9" onmousedown="handleZoom(evt,'in')"/>
  <use id="zoomminus" xlink:href="#zoomMin" x="42" y="9" onmousedown="handleZoom(evt,'out')"/>
  <use id="reset" xlink:href="#resetDef" x="30" y="36" onmousedown="handleReset()"/>
   <use id="arrowup" xlink:href="#arrowUp" x="0" y="0" onmousedown="handlePan(0,-1)"/>
  <use id="arrowright" xlink:href="#arrowRight" x="0" y="0" onmousedown="handlePan(1,0)"/>
  <use id="arrowdown" xlink:href="#arrowDown" x="0" y="0" onmousedown="handlePan(0,1)"/>
  <use id="arrowleft" xlink:href="#arrowLeft" x="0" y="0" onmousedown="handlePan(-1,0)"/>
</g>
<svg viewBox="0 0 15 15" width="100%" height="30px" preserveAspectRatio="xMaxYMin meet">
 <g id="arrow_out" transform="scale(0.3 0.3)">
  <a xlink:href="structexprtk_1_1type__store_1_1type__view__inherit__graph_org.svg" target="_base">
   <rect id="button" ry="5" rx="5" y="6" x="6" height="38" width="38"
        fill="#f2f5e9" fill-opacity="0.5" stroke="#606060" stroke-width="1.0"/>
   <path id="arrow"
     d="M 11.500037,31.436501 C 11.940474,20.09759 22.043105,11.32322 32.158766,21.979434 L 37.068811,17.246167 C 37.068811,17.246167 37.088388,32 37.088388,32 L 22.160133,31.978069 C 22.160133,31.978069 26.997745,27.140456 26.997745,27.140456 C 18.528582,18.264221 13.291696,25.230495 11.500037,31.436501 z"
     style="fill:#404040;"/>
  </a>
 </g>
</svg>

<style type='text/css'>
<![CDATA[
[data-mouse-over-selected='false'] { opacity: 0.7; }
[data-mouse-over-selected='true']  { opacity: 1.0; }
]]>
</style>
<script type="application/ecmascript"><![CDATA[
document.addEventListener('DOMContentLoaded', (event) => {
  highlightEdges();
  highlightAdjacentNodes();
});
]]></script>
</svg>
