<?xml version="1.0" encoding="UTF-8" standalone="no"?>
<!DOCTYPE svg PUBLIC "-//W3C//DTD SVG 1.1//EN"
 "http://www.w3.org/Graphics/SVG/1.1/DTD/svg11.dtd">
<!-- Generated by graphviz version 14.0.2 (0)
 -->
<!-- Title: carla_v3_input_param_changes::get_param_data Pages: 1 -->
<!--zoomable 248 -->

<svg id="main" version="1.1" xmlns="http://www.w3.org/2000/svg" xmlns:xlink="http://www.w3.org/1999/xlink" xml:space="preserve" onload="init(evt)">

<style type="text/css"><![CDATA[
.node, .edge {opacity: 0.7;}
.node.selected, .edge.selected {opacity: 1;}
.edge:hover path { stroke: red; }
.edge:hover polygon { stroke: red; fill: red; }
]]></style>

<defs>
  <circle id="rim" cx="0" cy="0" r="7"/>
  <circle id="rim2" cx="0" cy="0" r="3.5"/>
  <g id="zoomPlus">
    <use xlink:href="#rim" fill="#404040"><set attributeName="fill" to="#808080" begin="zoomplus.mouseover" end="zoomplus.mouseout"/></use>
    <path d="M-4,0h8M0,-4v8" fill="none" stroke="white" stroke-width="1.5" pointer-events="none"/>
  </g>
  <g id="zoomMin">
    <use xlink:href="#rim" fill="#404040"><set attributeName="fill" to="#808080" begin="zoomminus.mouseover" end="zoomminus.mouseout"/></use>
    <path d="M-4,0h8" fill="none" stroke="white" stroke-width="1.5" pointer-events="none"/>
  </g>
  <g id="arrowUp" transform="translate(30 24)">
    <use xlink:href="#rim"/>
    <path pointer-events="none" fill="none" stroke="white" stroke-width="1.5" d="M0,-3.0v7 M-2.5,-0.5L0,-3.0L2.5,-0.5"/>
  </g>
  <g id="arrowRight" transform="rotate(90) translate(36 -43)">
    <use xlink:href="#rim"/>
    <path pointer-events="none" fill="none" stroke="white" stroke-width="1.5" d="M0,-3.0v7 M-2.5,-0.5L0,-3.0L2.5,-0.5"/>
  </g>
  <g id="arrowDown" transform="rotate(180) translate(-30 -48)">
    <use xlink:href="#rim"/>
    <path pointer-events="none" fill="none" stroke="white" stroke-width="1.5" d="M0,-3.0v7 M-2.5,-0.5L0,-3.0L2.5,-0.5"/>
  </g>
  <g id="arrowLeft" transform="rotate(270) translate(-36 17)">
    <use xlink:href="#rim"/>
    <path pointer-events="none" fill="none" stroke="white" stroke-width="1.5" d="M0,-3.0v7 M-2.5,-0.5L0,-3.0L2.5,-0.5"/>
  </g>
  <g id="resetDef">
    <use xlink:href="#rim2" fill="#404040"><set attributeName="fill" to="#808080" begin="reset.mouseover" end="reset.mouseout"/></use>
  </g>
</defs>
<script type="application/ecmascript">
var viewWidth = 591;
var viewHeight = 248;
var sectionId = 'dynsection-7';
</script>
<script type="application/ecmascript" xlink:href="svg.min.js"/>
<svg id="graph" class="graph">
<g id="viewport">
<title>carla_v3_input_param_changes::get_param_data</title>
<!-- Node1 -->
<g id="Node000001" class="node">
<title>Node1</title>
<g id="a_Node000001"><a xlink:title=" ">
<polygon fill="#999999" stroke="#666666" points="132.25,-153.88 0,-153.88 0,-123.38 132.25,-123.38 132.25,-153.88"/>
<text xml:space="preserve" text-anchor="start" x="8" y="-140.38" font-family="Helvetica,sans-Serif" font-size="10.00">carla_v3_input_param</text>
<text xml:space="preserve" text-anchor="middle" x="66.12" y="-129.12" font-family="Helvetica,sans-Serif" font-size="10.00">_changes::get_param_data</text>
</a>
</g>
</g>
<!-- Node2 -->
<g id="Node000002" class="node">
<title>Node2</title>
<g id="a_Node000002"><a xlink:href="structcarla__v3__input__param__changes.html#a1ecf5e29324175190db4d056ac495db6" target="_top" xlink:title=" ">
<polygon fill="white" stroke="#666666" points="293.75,-159.5 168.25,-159.5 168.25,-117.75 293.75,-117.75 293.75,-159.5"/>
<text xml:space="preserve" text-anchor="start" x="176.25" y="-146" font-family="Helvetica,sans-Serif" font-size="10.00">carla_v3_input_param</text>
<text xml:space="preserve" text-anchor="start" x="176.25" y="-134.75" font-family="Helvetica,sans-Serif" font-size="10.00">_changes::carla_v3_input</text>
<text xml:space="preserve" text-anchor="middle" x="231" y="-123.5" font-family="Helvetica,sans-Serif" font-size="10.00">_param_changes</text>
</a>
</g>
</g>
<!-- Node1&#45;&gt;Node2 -->
<g id="edge1_Node000001_Node000002" class="edge">
<title>Node1&#45;&gt;Node2</title>
<g id="a_edge1_Node000001_Node000002"><a xlink:title=" ">
<path fill="none" stroke="#63b8ff" d="M132.43,-131.99C140.37,-131.88 148.53,-131.85 156.58,-131.9"/>
<polygon fill="#63b8ff" stroke="#63b8ff" points="156.29,-135.4 166.34,-132.03 156.38,-128.4 156.29,-135.4"/>
</a>
</g>
</g>
<!-- Node2&#45;&gt;Node1 -->
<g id="edge6_Node000002_Node000001" class="edge">
<title>Node2&#45;&gt;Node1</title>
<g id="a_edge6_Node000002_Node000001"><a xlink:title=" ">
<path fill="none" stroke="#63b8ff" d="M167.85,-145.2C159.97,-145.35 151.84,-145.4 143.77,-145.36"/>
<polygon fill="#63b8ff" stroke="#63b8ff" points="143.98,-141.87 133.95,-145.27 143.91,-148.87 143.98,-141.87"/>
</a>
</g>
</g>
<!-- Node3 -->
<g id="Node000003" class="node">
<title>Node3</title>
<g id="a_Node000003"><a xlink:href="structcarla__v3__input__param__changes.html#a5559b3f508d0ebfa52df0468f307f03b" target="_top" xlink:title=" ">
<polygon fill="white" stroke="#666666" points="465.75,-239.88 331.25,-239.88 331.25,-209.38 465.75,-209.38 465.75,-239.88"/>
<text xml:space="preserve" text-anchor="start" x="339.25" y="-226.38" font-family="Helvetica,sans-Serif" font-size="10.00">carla_v3_input_param</text>
<text xml:space="preserve" text-anchor="middle" x="398.5" y="-215.12" font-family="Helvetica,sans-Serif" font-size="10.00">_changes::add_param_data</text>
</a>
</g>
</g>
<!-- Node2&#45;&gt;Node3 -->
<g id="edge2_Node000002_Node000003" class="edge">
<title>Node2&#45;&gt;Node3</title>
<g id="a_edge2_Node000002_Node000003"><a xlink:title=" ">
<path fill="none" stroke="#63b8ff" d="M261.37,-159.71C280.27,-172.65 305.72,-188.93 329.75,-200.62 332.5,-201.96 335.34,-203.26 338.23,-204.52"/>
<polygon fill="#63b8ff" stroke="#63b8ff" points="336.86,-207.74 347.44,-208.31 339.52,-201.27 336.86,-207.74"/>
</a>
</g>
</g>
<!-- Node4 -->
<g id="Node000004" class="node">
<title>Node4</title>
<g id="a_Node000004"><a xlink:href="CarlaUtils_8hpp.html#ac917e48d2e6c06dd8142db1f1a1d5067" target="_top" xlink:title=" ">
<polygon fill="white" stroke="#666666" points="444.38,-191.25 352.62,-191.25 352.62,-172 444.38,-172 444.38,-191.25"/>
<text xml:space="preserve" text-anchor="middle" x="398.5" y="-177.75" font-family="Helvetica,sans-Serif" font-size="10.00">carla_zeroStructs</text>
</a>
</g>
</g>
<!-- Node2&#45;&gt;Node4 -->
<g id="edge3_Node000002_Node000004" class="edge">
<title>Node2&#45;&gt;Node4</title>
<g id="a_edge3_Node000002_Node000004"><a xlink:title=" ">
<path fill="none" stroke="#63b8ff" d="M294.1,-154.76C311.85,-159.37 330.97,-164.34 347.87,-168.73"/>
<polygon fill="#63b8ff" stroke="#63b8ff" points="346.6,-172.02 357.16,-171.14 348.36,-165.24 346.6,-172.02"/>
</a>
</g>
</g>
<!-- Node5 -->
<g id="Node000005" class="node">
<title>Node5</title>
<g id="a_Node000005"><a xlink:href="structcarla__v3__input__param__changes.html#aa39372211777877be46349f9d5daea33" target="_top" xlink:title=" ">
<polygon fill="white" stroke="#666666" points="467.25,-153.88 329.75,-153.88 329.75,-123.38 467.25,-123.38 467.25,-153.88"/>
<text xml:space="preserve" text-anchor="start" x="337.75" y="-140.38" font-family="Helvetica,sans-Serif" font-size="10.00">carla_v3_input_param</text>
<text xml:space="preserve" text-anchor="middle" x="398.5" y="-129.12" font-family="Helvetica,sans-Serif" font-size="10.00">_changes::get_param_count</text>
</a>
</g>
</g>
<!-- Node2&#45;&gt;Node5 -->
<g id="edge4_Node000002_Node000005" class="edge">
<title>Node2&#45;&gt;Node5</title>
<g id="a_edge4_Node000002_Node000005"><a xlink:title=" ">
<path fill="none" stroke="#63b8ff" d="M294.1,-132.07C301.95,-131.92 310.07,-131.86 318.15,-131.88"/>
<polygon fill="#63b8ff" stroke="#63b8ff" points="317.97,-135.38 327.99,-131.96 318.02,-128.38 317.97,-135.38"/>
</a>
</g>
</g>
<!-- Node6 -->
<g id="Node000006" class="node">
<title>Node6</title>
<g id="a_Node000006"><a xlink:href="CarlaVst3Utils_8hpp.html#a5bc5a95924f2c9c96694a5e56820079a" target="_top" xlink:title=" ">
<polygon fill="white" stroke="#666666" points="447.38,-104.88 349.62,-104.88 349.62,-74.38 447.38,-74.38 447.38,-104.88"/>
<text xml:space="preserve" text-anchor="start" x="357.62" y="-91.38" font-family="Helvetica,sans-Serif" font-size="10.00">v3_query_interface</text>
<text xml:space="preserve" text-anchor="middle" x="398.5" y="-80.12" font-family="Helvetica,sans-Serif" font-size="10.00">_static</text>
</a>
</g>
</g>
<!-- Node2&#45;&gt;Node6 -->
<g id="edge7_Node000002_Node000006" class="edge">
<title>Node2&#45;&gt;Node6</title>
<g id="a_edge7_Node000002_Node000006"><a xlink:title=" ">
<path fill="none" stroke="#63b8ff" d="M294.1,-120.24C308.64,-115.93 324.1,-111.36 338.5,-107.09"/>
<polygon fill="#63b8ff" stroke="#63b8ff" points="339.23,-110.53 347.83,-104.33 337.25,-103.81 339.23,-110.53"/>
</a>
</g>
</g>
<!-- Node8 -->
<g id="Node000008" class="node">
<title>Node8</title>
<g id="a_Node000008"><a xlink:href="CarlaVst3Utils_8hpp.html#a94b8a6d5fe5d5659d5364283bd5aa597" target="_top" xlink:title=" ">
<polygon fill="white" stroke="#666666" points="434.62,-56.25 362.38,-56.25 362.38,-37 434.62,-37 434.62,-56.25"/>
<text xml:space="preserve" text-anchor="middle" x="398.5" y="-42.75" font-family="Helvetica,sans-Serif" font-size="10.00">v3_ref_static</text>
</a>
</g>
</g>
<!-- Node2&#45;&gt;Node8 -->
<g id="edge9_Node000002_Node000008" class="edge">
<title>Node2&#45;&gt;Node8</title>
<g id="a_edge9_Node000002_Node000008"><a xlink:title=" ">
<path fill="none" stroke="#63b8ff" d="M255.27,-117.34C274.11,-101.11 302.01,-79.28 329.75,-65.62 336.45,-62.33 343.8,-59.52 351.13,-57.16"/>
<polygon fill="#63b8ff" stroke="#63b8ff" points="352.07,-60.53 360.67,-54.34 350.09,-53.82 352.07,-60.53"/>
</a>
</g>
</g>
<!-- Node9 -->
<g id="Node000009" class="node">
<title>Node9</title>
<g id="a_Node000009"><a xlink:href="CarlaVst3Utils_8hpp.html#aa4c8fe6a25199537cbfe5b17aee42188" target="_top" xlink:title=" ">
<polygon fill="white" stroke="#666666" points="439.88,-19.25 357.12,-19.25 357.12,0 439.88,0 439.88,-19.25"/>
<text xml:space="preserve" text-anchor="middle" x="398.5" y="-5.75" font-family="Helvetica,sans-Serif" font-size="10.00">v3_unref_static</text>
</a>
</g>
</g>
<!-- Node2&#45;&gt;Node9 -->
<g id="edge10_Node000002_Node000009" class="edge">
<title>Node2&#45;&gt;Node9</title>
<g id="a_edge10_Node000002_Node000009"><a xlink:title=" ">
<path fill="none" stroke="#63b8ff" d="M244.82,-117.68C261.34,-92.5 292.41,-50.73 329.75,-27.62 334.86,-24.46 340.52,-21.85 346.32,-19.69"/>
<polygon fill="#63b8ff" stroke="#63b8ff" points="346.97,-23.16 355.41,-16.75 344.82,-16.5 346.97,-23.16"/>
</a>
</g>
</g>
<!-- Node5&#45;&gt;Node2 -->
<g id="edge5_Node000005_Node000002" class="edge">
<title>Node5&#45;&gt;Node2</title>
<g id="a_edge5_Node000005_Node000002"><a xlink:title=" ">
<path fill="none" stroke="#63b8ff" d="M329.51,-145.28C321.54,-145.38 313.38,-145.4 305.35,-145.34"/>
<polygon fill="#63b8ff" stroke="#63b8ff" points="305.66,-141.84 295.61,-145.2 305.56,-148.84 305.66,-141.84"/>
</a>
</g>
</g>
<!-- Node7 -->
<g id="Node000007" class="node">
<title>Node7</title>
<g id="a_Node000007"><a xlink:href="CarlaBase_2carla_2source_2includes_2travesty_2base_8h.html#acaf85dadc47de6a0f4122cb9d513ad32" target="_top" xlink:title=" ">
<polygon fill="white" stroke="#666666" points="583,-99.25 503.25,-99.25 503.25,-80 583,-80 583,-99.25"/>
<text xml:space="preserve" text-anchor="middle" x="543.12" y="-85.75" font-family="Helvetica,sans-Serif" font-size="10.00">v3_tuid_match</text>
</a>
</g>
</g>
<!-- Node6&#45;&gt;Node7 -->
<g id="edge8_Node000006_Node000007" class="edge">
<title>Node6&#45;&gt;Node7</title>
<g id="a_edge8_Node000006_Node000007"><a xlink:title=" ">
<path fill="none" stroke="#63b8ff" d="M447.79,-89.62C461.94,-89.62 477.46,-89.62 491.74,-89.62"/>
<polygon fill="#63b8ff" stroke="#63b8ff" points="491.37,-93.13 501.37,-89.63 491.37,-86.13 491.37,-93.13"/>
</a>
</g>
</g>
</g>
</svg>

<g id="navigator" transform="translate(0 0)" fill="#404254">
  <rect fill="#f2f5e9" fill-opacity="0.5" stroke="#606060" stroke-width=".5" x="0" y="0" width="60" height="60"/>
  <use id="zoomplus" xlink:href="#zoomPlus" x="17" y="9" onmousedown="handleZoom(evt,'in')"/>
  <use id="zoomminus" xlink:href="#zoomMin" x="42" y="9" onmousedown="handleZoom(evt,'out')"/>
  <use id="reset" xlink:href="#resetDef" x="30" y="36" onmousedown="handleReset()"/>
   <use id="arrowup" xlink:href="#arrowUp" x="0" y="0" onmousedown="handlePan(0,-1)"/>
  <use id="arrowright" xlink:href="#arrowRight" x="0" y="0" onmousedown="handlePan(1,0)"/>
  <use id="arrowdown" xlink:href="#arrowDown" x="0" y="0" onmousedown="handlePan(0,1)"/>
  <use id="arrowleft" xlink:href="#arrowLeft" x="0" y="0" onmousedown="handlePan(-1,0)"/>
</g>
<svg viewBox="0 0 15 15" width="100%" height="30px" preserveAspectRatio="xMaxYMin meet">
 <g id="arrow_out" transform="scale(0.3 0.3)">
  <a xlink:href="structcarla__v3__input__param__changes_a2937e6deaece7ecc21a68c1594fc7852_cgraph_org.svg" target="_base">
   <rect id="button" ry="5" rx="5" y="6" x="6" height="38" width="38"
        fill="#f2f5e9" fill-opacity="0.5" stroke="#606060" stroke-width="1.0"/>
   <path id="arrow"
     d="M 11.500037,31.436501 C 11.940474,20.09759 22.043105,11.32322 32.158766,21.979434 L 37.068811,17.246167 C 37.068811,17.246167 37.088388,32 37.088388,32 L 22.160133,31.978069 C 22.160133,31.978069 26.997745,27.140456 26.997745,27.140456 C 18.528582,18.264221 13.291696,25.230495 11.500037,31.436501 z"
     style="fill:#404040;"/>
  </a>
 </g>
</svg>

<style type='text/css'>
<![CDATA[
[data-mouse-over-selected='false'] { opacity: 0.7; }
[data-mouse-over-selected='true']  { opacity: 1.0; }
]]>
</style>
<script type="application/ecmascript"><![CDATA[
document.addEventListener('DOMContentLoaded', (event) => {
  highlightEdges();
  highlightAdjacentNodes();
});
]]></script>
</svg>
