<?xml version="1.0" encoding="UTF-8" standalone="no"?>
<!DOCTYPE svg PUBLIC "-//W3C//DTD SVG 1.1//EN"
 "http://www.w3.org/Graphics/SVG/1.1/DTD/svg11.dtd">
<!-- Generated by graphviz version 14.0.2 (0)
 -->
<!-- Title: FLAC__Subframe_Fixed Pages: 1 -->
<!--zoomable 466 -->

<svg id="main" version="1.1" xmlns="http://www.w3.org/2000/svg" xmlns:xlink="http://www.w3.org/1999/xlink" xml:space="preserve" onload="init(evt)">

<style type="text/css"><![CDATA[
.node, .edge {opacity: 0.7;}
.node.selected, .edge.selected {opacity: 1;}
.edge:hover path { stroke: red; }
.edge:hover polygon { stroke: red; fill: red; }
]]></style>

<defs>
  <circle id="rim" cx="0" cy="0" r="7"/>
  <circle id="rim2" cx="0" cy="0" r="3.5"/>
  <g id="zoomPlus">
    <use xlink:href="#rim" fill="#404040"><set attributeName="fill" to="#808080" begin="zoomplus.mouseover" end="zoomplus.mouseout"/></use>
    <path d="M-4,0h8M0,-4v8" fill="none" stroke="white" stroke-width="1.5" pointer-events="none"/>
  </g>
  <g id="zoomMin">
    <use xlink:href="#rim" fill="#404040"><set attributeName="fill" to="#808080" begin="zoomminus.mouseover" end="zoomminus.mouseout"/></use>
    <path d="M-4,0h8" fill="none" stroke="white" stroke-width="1.5" pointer-events="none"/>
  </g>
  <g id="arrowUp" transform="translate(30 24)">
    <use xlink:href="#rim"/>
    <path pointer-events="none" fill="none" stroke="white" stroke-width="1.5" d="M0,-3.0v7 M-2.5,-0.5L0,-3.0L2.5,-0.5"/>
  </g>
  <g id="arrowRight" transform="rotate(90) translate(36 -43)">
    <use xlink:href="#rim"/>
    <path pointer-events="none" fill="none" stroke="white" stroke-width="1.5" d="M0,-3.0v7 M-2.5,-0.5L0,-3.0L2.5,-0.5"/>
  </g>
  <g id="arrowDown" transform="rotate(180) translate(-30 -48)">
    <use xlink:href="#rim"/>
    <path pointer-events="none" fill="none" stroke="white" stroke-width="1.5" d="M0,-3.0v7 M-2.5,-0.5L0,-3.0L2.5,-0.5"/>
  </g>
  <g id="arrowLeft" transform="rotate(270) translate(-36 17)">
    <use xlink:href="#rim"/>
    <path pointer-events="none" fill="none" stroke="white" stroke-width="1.5" d="M0,-3.0v7 M-2.5,-0.5L0,-3.0L2.5,-0.5"/>
  </g>
  <g id="resetDef">
    <use xlink:href="#rim2" fill="#404040"><set attributeName="fill" to="#808080" begin="reset.mouseover" end="reset.mouseout"/></use>
  </g>
</defs>
<script type="application/ecmascript">
var viewWidth = 192;
var viewHeight = 466;
var sectionId = 'dynsection-0';
</script>
<script type="application/ecmascript" xlink:href="svg.min.js"/>
<svg id="graph" class="graph">
<g id="viewport">
<title>FLAC__Subframe_Fixed</title>
<!-- Node1 -->
<g id="Node000001" class="node">
<title>Node1</title>
<g id="a_Node000001"><a xlink:title=" ">
<polygon fill="#999999" stroke="none" points="126.5,-80.25 12,-80.25 12,0 126.5,0 126.5,-80.25"/>
<text xml:space="preserve" text-anchor="start" x="16" y="-66.75" font-family="Helvetica,sans-Serif" font-size="10.00">FLAC__Subframe_Fixed</text>
<text xml:space="preserve" text-anchor="start" x="31.5" y="-51.5" font-family="Helvetica,sans-Serif" font-size="10.00">+</text>
<text xml:space="preserve" text-anchor="start" x="57" y="-51.5" font-family="Helvetica,sans-Serif" font-size="10.00">order</text>
<text xml:space="preserve" text-anchor="start" x="31.5" y="-36.25" font-family="Helvetica,sans-Serif" font-size="10.00">+</text>
<text xml:space="preserve" text-anchor="start" x="57" y="-36.25" font-family="Helvetica,sans-Serif" font-size="10.00">warmup</text>
<text xml:space="preserve" text-anchor="start" x="31.5" y="-21" font-family="Helvetica,sans-Serif" font-size="10.00">+</text>
<text xml:space="preserve" text-anchor="start" x="57" y="-21" font-family="Helvetica,sans-Serif" font-size="10.00">residual</text>
<text xml:space="preserve" text-anchor="start" x="67.75" y="-5.75" font-family="Helvetica,sans-Serif" font-size="10.00"> </text>
<polygon fill="#666666" stroke="#666666" points="12,-63 12,-63 126.5,-63 126.5,-63 12,-63"/>
<polygon fill="#666666" stroke="#666666" points="12,-17.25 12,-17.25 55,-17.25 55,-17.25 12,-17.25"/>
<polygon fill="#666666" stroke="#666666" points="55,-17.25 55,-17.25 126.5,-17.25 126.5,-17.25 55,-17.25"/>
<polygon fill="none" stroke="#666666" points="12,0 12,-80.25 126.5,-80.25 126.5,0 12,0"/>
</a>
</g>
</g>
<!-- Node2 -->
<g id="Node000002" class="node">
<title>Node2</title>
<g id="a_Node000002"><a xlink:href="structFLAC____EntropyCodingMethod.html" target="_top" xlink:title=" ">
<polygon fill="white" stroke="none" points="138.5,-198.5 0,-198.5 0,-133.5 138.5,-133.5 138.5,-198.5"/>
<text xml:space="preserve" text-anchor="start" x="4" y="-185" font-family="Helvetica,sans-Serif" font-size="10.00">FLAC__EntropyCodingMethod</text>
<text xml:space="preserve" text-anchor="start" x="29.44" y="-169.75" font-family="Helvetica,sans-Serif" font-size="10.00">+</text>
<text xml:space="preserve" text-anchor="start" x="64.88" y="-169.75" font-family="Helvetica,sans-Serif" font-size="10.00">type</text>
<text xml:space="preserve" text-anchor="start" x="29.44" y="-154.5" font-family="Helvetica,sans-Serif" font-size="10.00">+</text>
<text xml:space="preserve" text-anchor="start" x="64.88" y="-154.5" font-family="Helvetica,sans-Serif" font-size="10.00">data</text>
<text xml:space="preserve" text-anchor="start" x="67.75" y="-139.25" font-family="Helvetica,sans-Serif" font-size="10.00"> </text>
<polygon fill="#666666" stroke="#666666" points="0,-181.25 0,-181.25 138.5,-181.25 138.5,-181.25 0,-181.25"/>
<polygon fill="#666666" stroke="#666666" points="0,-150.75 0,-150.75 62.88,-150.75 62.88,-150.75 0,-150.75"/>
<polygon fill="#666666" stroke="#666666" points="62.88,-150.75 62.88,-150.75 138.5,-150.75 138.5,-150.75 62.88,-150.75"/>
<polygon fill="none" stroke="#666666" points="0,-133.5 0,-198.5 138.5,-198.5 138.5,-133.5 0,-133.5"/>
</a>
</g>
</g>
<!-- Node2&#45;&gt;Node1 -->
<g id="edge1_Node000001_Node000002" class="edge">
<title>Node2&#45;&gt;Node1</title>
<g id="a_edge1_Node000001_Node000002"><a xlink:title=" ">
<path fill="none" stroke="#63b8ff" d="M69.25,-133.74C69.25,-121.36 69.25,-106.78 69.25,-92.91"/>
<polygon fill="none" stroke="#63b8ff" points="69.25,-92.82 65.25,-86.82 69.25,-80.82 73.25,-86.82 69.25,-92.82"/>
</a>
</g>
<text xml:space="preserve" text-anchor="start" x="72.25" y="-103" font-family="Helvetica,sans-Serif" font-size="10.00" fill="grey">+entropy_coding_method</text>
</g>
<!-- Node3 -->
<g id="Node000003" class="node">
<title>Node3</title>
<g id="a_Node000003"><a xlink:href="structFLAC____EntropyCodingMethod__PartitionedRice.html" target="_top" xlink:title=" ">
<polygon fill="white" stroke="none" points="138.5,-312.75 0,-312.75 0,-251.75 138.5,-251.75 138.5,-312.75"/>
<text xml:space="preserve" text-anchor="start" x="4" y="-299.25" font-family="Helvetica,sans-Serif" font-size="10.00">FLAC__EntropyCodingMethod</text>
<text xml:space="preserve" text-anchor="start" x="33.62" y="-288" font-family="Helvetica,sans-Serif" font-size="10.00">_PartitionedRice</text>
<text xml:space="preserve" text-anchor="start" x="28.69" y="-272.75" font-family="Helvetica,sans-Serif" font-size="10.00">+</text>
<text xml:space="preserve" text-anchor="start" x="63.38" y="-272.75" font-family="Helvetica,sans-Serif" font-size="10.00">order</text>
<text xml:space="preserve" text-anchor="start" x="67.75" y="-257.5" font-family="Helvetica,sans-Serif" font-size="10.00"> </text>
<polygon fill="#666666" stroke="#666666" points="0,-284.25 0,-284.25 138.5,-284.25 138.5,-284.25 0,-284.25"/>
<polygon fill="#666666" stroke="#666666" points="0,-269 0,-269 61.38,-269 61.38,-269 0,-269"/>
<polygon fill="#666666" stroke="#666666" points="61.38,-269 61.38,-269 138.5,-269 138.5,-269 61.38,-269"/>
<polygon fill="none" stroke="#666666" points="0,-251.75 0,-312.75 138.5,-312.75 138.5,-251.75 0,-251.75"/>
</a>
</g>
</g>
<!-- Node3&#45;&gt;Node2 -->
<g id="edge2_Node000002_Node000003" class="edge">
<title>Node3&#45;&gt;Node2</title>
<g id="a_edge2_Node000002_Node000003"><a xlink:title=" ">
<path fill="none" stroke="#63b8ff" d="M69.25,-251.83C69.25,-239.4 69.25,-224.67 69.25,-211"/>
<polygon fill="none" stroke="#63b8ff" points="69.25,-211.22 65.25,-205.22 69.25,-199.22 73.25,-205.22 69.25,-211.22"/>
</a>
</g>
<text xml:space="preserve" text-anchor="start" x="72.25" y="-221.25" font-family="Helvetica,sans-Serif" font-size="10.00" fill="grey">+partitioned_rice</text>
</g>
<!-- Node4 -->
<g id="Node000004" class="node">
<title>Node4</title>
<g id="a_Node000004"><a xlink:href="structFLAC____EntropyCodingMethod__PartitionedRiceContents.html" target="_top" xlink:title=" ">
<polygon fill="white" stroke="none" points="138.5,-457.5 0,-457.5 0,-366 138.5,-366 138.5,-457.5"/>
<text xml:space="preserve" text-anchor="start" x="4" y="-444" font-family="Helvetica,sans-Serif" font-size="10.00">FLAC__EntropyCodingMethod</text>
<text xml:space="preserve" text-anchor="start" x="14.12" y="-432.75" font-family="Helvetica,sans-Serif" font-size="10.00">_PartitionedRiceContents</text>
<text xml:space="preserve" text-anchor="start" x="14.62" y="-417.5" font-family="Helvetica,sans-Serif" font-size="10.00">+</text>
<text xml:space="preserve" text-anchor="start" x="35.25" y="-417.5" font-family="Helvetica,sans-Serif" font-size="10.00">parameters</text>
<text xml:space="preserve" text-anchor="start" x="14.62" y="-402.25" font-family="Helvetica,sans-Serif" font-size="10.00">+</text>
<text xml:space="preserve" text-anchor="start" x="35.25" y="-402.25" font-family="Helvetica,sans-Serif" font-size="10.00">raw_bits</text>
<text xml:space="preserve" text-anchor="start" x="14.62" y="-387" font-family="Helvetica,sans-Serif" font-size="10.00">+</text>
<text xml:space="preserve" text-anchor="start" x="35.25" y="-387" font-family="Helvetica,sans-Serif" font-size="10.00">capacity_by_order</text>
<text xml:space="preserve" text-anchor="start" x="67.75" y="-371.75" font-family="Helvetica,sans-Serif" font-size="10.00"> </text>
<polygon fill="#666666" stroke="#666666" points="0,-429 0,-429 138.5,-429 138.5,-429 0,-429"/>
<polygon fill="#666666" stroke="#666666" points="0,-383.25 0,-383.25 33.25,-383.25 33.25,-383.25 0,-383.25"/>
<polygon fill="#666666" stroke="#666666" points="33.25,-383.25 33.25,-383.25 138.5,-383.25 138.5,-383.25 33.25,-383.25"/>
<polygon fill="none" stroke="#666666" points="0,-366 0,-457.5 138.5,-457.5 138.5,-366 0,-366"/>
</a>
</g>
</g>
<!-- Node4&#45;&gt;Node3 -->
<g id="edge3_Node000003_Node000004" class="edge">
<title>Node4&#45;&gt;Node3</title>
<g id="a_edge3_Node000003_Node000004"><a xlink:title=" ">
<path fill="none" stroke="#63b8ff" d="M69.25,-366.16C69.25,-352.94 69.25,-338.51 69.25,-325.45"/>
<polygon fill="none" stroke="#63b8ff" points="69.25,-325.34 65.25,-319.34 69.25,-313.34 73.25,-319.34 69.25,-325.34"/>
</a>
</g>
<text xml:space="preserve" text-anchor="start" x="72.25" y="-335.5" font-family="Helvetica,sans-Serif" font-size="10.00" fill="grey">+contents</text>
</g>
</g>
</svg>

<g id="navigator" transform="translate(0 0)" fill="#404254">
  <rect fill="#f2f5e9" fill-opacity="0.5" stroke="#606060" stroke-width=".5" x="0" y="0" width="60" height="60"/>
  <use id="zoomplus" xlink:href="#zoomPlus" x="17" y="9" onmousedown="handleZoom(evt,'in')"/>
  <use id="zoomminus" xlink:href="#zoomMin" x="42" y="9" onmousedown="handleZoom(evt,'out')"/>
  <use id="reset" xlink:href="#resetDef" x="30" y="36" onmousedown="handleReset()"/>
   <use id="arrowup" xlink:href="#arrowUp" x="0" y="0" onmousedown="handlePan(0,-1)"/>
  <use id="arrowright" xlink:href="#arrowRight" x="0" y="0" onmousedown="handlePan(1,0)"/>
  <use id="arrowdown" xlink:href="#arrowDown" x="0" y="0" onmousedown="handlePan(0,1)"/>
  <use id="arrowleft" xlink:href="#arrowLeft" x="0" y="0" onmousedown="handlePan(-1,0)"/>
</g>
<svg viewBox="0 0 15 15" width="100%" height="30px" preserveAspectRatio="xMaxYMin meet">
 <g id="arrow_out" transform="scale(0.3 0.3)">
  <a xlink:href="structFLAC____Subframe__Fixed__coll__graph_org.svg" target="_base">
   <rect id="button" ry="5" rx="5" y="6" x="6" height="38" width="38"
        fill="#f2f5e9" fill-opacity="0.5" stroke="#606060" stroke-width="1.0"/>
   <path id="arrow"
     d="M 11.500037,31.436501 C 11.940474,20.09759 22.043105,11.32322 32.158766,21.979434 L 37.068811,17.246167 C 37.068811,17.246167 37.088388,32 37.088388,32 L 22.160133,31.978069 C 22.160133,31.978069 26.997745,27.140456 26.997745,27.140456 C 18.528582,18.264221 13.291696,25.230495 11.500037,31.436501 z"
     style="fill:#404040;"/>
  </a>
 </g>
</svg>

<style type='text/css'>
<![CDATA[
[data-mouse-over-selected='false'] { opacity: 0.7; }
[data-mouse-over-selected='true']  { opacity: 1.0; }
]]>
</style>
<script type="application/ecmascript"><![CDATA[
document.addEventListener('DOMContentLoaded', (event) => {
  highlightEdges();
  highlightAdjacentNodes();
});
]]></script>
</svg>
