<?xml version="1.0" encoding="UTF-8" standalone="no"?>
<!DOCTYPE svg PUBLIC "-//W3C//DTD SVG 1.1//EN"
 "http://www.w3.org/Graphics/SVG/1.1/DTD/svg11.dtd">
<!-- Generated by graphviz version 14.0.2 (0)
 -->
<!-- Title: Jack::JackPortDisconnectNameRequest::Write Pages: 1 -->
<svg width="370pt" height="137pt"
 viewBox="0.00 0.00 370.00 137.00" xmlns="http://www.w3.org/2000/svg" xmlns:xlink="http://www.w3.org/1999/xlink">
<g id="graph0" class="graph" transform="scale(1 1) rotate(0) translate(4 132.5)">
<title>Jack::JackPortDisconnectNameRequest::Write</title>
<!-- Node1 -->
<g id="Node000001" class="node">
<title>Node1</title>
<g id="a_Node000001"><a xlink:title=" ">
<polygon fill="#999999" stroke="#666666" points="129.25,-79.5 0,-79.5 0,-49 129.25,-49 129.25,-79.5"/>
<text xml:space="preserve" text-anchor="start" x="8" y="-66" font-family="Helvetica,sans-Serif" font-size="10.00">Jack::JackPortDisconnect</text>
<text xml:space="preserve" text-anchor="middle" x="64.62" y="-54.75" font-family="Helvetica,sans-Serif" font-size="10.00">NameRequest::Write</text>
</a>
</g>
</g>
<!-- Node2 -->
<g id="Node000002" class="node">
<title>Node2</title>
<g id="a_Node000002"><a xlink:href="structJack_1_1JackPortDisconnectNameRequest.html#a063a7eb02b02c80d9c9d0ef82745435d" target="_top" xlink:title=" ">
<polygon fill="white" stroke="#666666" points="296,-128.5 166.75,-128.5 166.75,-98 296,-98 296,-128.5"/>
<text xml:space="preserve" text-anchor="start" x="174.75" y="-115" font-family="Helvetica,sans-Serif" font-size="10.00">Jack::JackPortDisconnect</text>
<text xml:space="preserve" text-anchor="middle" x="231.38" y="-103.75" font-family="Helvetica,sans-Serif" font-size="10.00">NameRequest::Size</text>
</a>
</g>
</g>
<!-- Node1&#45;&gt;Node2 -->
<g id="edge1_Node000001_Node000002" class="edge">
<title>Node1&#45;&gt;Node2</title>
<g id="a_edge1_Node000001_Node000002"><a xlink:title=" ">
<path fill="none" stroke="#63b8ff" d="M118.21,-79.89C133.59,-84.46 150.57,-89.51 166.56,-94.27"/>
<polygon fill="#63b8ff" stroke="#63b8ff" points="165.41,-97.58 176,-97.08 167.41,-90.87 165.41,-97.58"/>
</a>
</g>
</g>
<!-- Node4 -->
<g id="Node000004" class="node">
<title>Node4</title>
<g id="a_Node000004"><a xlink:href="classJack_1_1detail_1_1JackChannelTransactionInterface.html#a36bc67156c41a3124de56316e80612ea" target="_top" xlink:title=" ">
<polygon fill="white" stroke="#666666" points="297.5,-79.5 165.25,-79.5 165.25,-49 297.5,-49 297.5,-79.5"/>
<text xml:space="preserve" text-anchor="start" x="173.25" y="-66" font-family="Helvetica,sans-Serif" font-size="10.00">Jack::detail::JackChannel</text>
<text xml:space="preserve" text-anchor="middle" x="231.38" y="-54.75" font-family="Helvetica,sans-Serif" font-size="10.00">TransactionInterface::Write</text>
</a>
</g>
</g>
<!-- Node1&#45;&gt;Node4 -->
<g id="edge3_Node000001_Node000004" class="edge">
<title>Node1&#45;&gt;Node4</title>
<g id="a_edge3_Node000001_Node000004"><a xlink:title=" ">
<path fill="none" stroke="#63b8ff" d="M129.32,-64.25C137.26,-64.25 145.44,-64.25 153.56,-64.25"/>
<polygon fill="#63b8ff" stroke="#63b8ff" points="153.43,-67.75 163.43,-64.25 153.43,-60.75 153.43,-67.75"/>
</a>
</g>
</g>
<!-- Node5 -->
<g id="Node000005" class="node">
<title>Node5</title>
<g id="a_Node000005"><a xlink:href="structJack_1_1JackRequest.html#a26dd0472e997e96295510616ac8967a7" target="_top" xlink:title=" ">
<polygon fill="white" stroke="#666666" points="282.88,-30.5 179.88,-30.5 179.88,0 282.88,0 282.88,-30.5"/>
<text xml:space="preserve" text-anchor="start" x="187.88" y="-17" font-family="Helvetica,sans-Serif" font-size="10.00">Jack::JackRequest::</text>
<text xml:space="preserve" text-anchor="middle" x="231.38" y="-5.75" font-family="Helvetica,sans-Serif" font-size="10.00">Write</text>
</a>
</g>
</g>
<!-- Node1&#45;&gt;Node5 -->
<g id="edge4_Node000001_Node000005" class="edge">
<title>Node1&#45;&gt;Node5</title>
<g id="a_edge4_Node000001_Node000005"><a xlink:title=" ">
<path fill="none" stroke="#63b8ff" d="M118.21,-48.61C134.27,-43.83 152.09,-38.53 168.7,-33.59"/>
<polygon fill="#63b8ff" stroke="#63b8ff" points="169.38,-37.04 177.97,-30.84 167.38,-30.33 169.38,-37.04"/>
</a>
</g>
</g>
<!-- Node3 -->
<g id="Node000003" class="node">
<title>Node3</title>
<g id="a_Node000003"><a xlink:href="unzipfx-carla-control_2unzip_8h.html#a6146ec4ac32d62cf01b4c4c6587d5131" target="_top" xlink:title=" ">
<polygon fill="white" stroke="#666666" points="362.3,-122.88 333.5,-122.88 333.5,-103.62 362.3,-103.62 362.3,-122.88"/>
<text xml:space="preserve" text-anchor="middle" x="347.9" y="-109.38" font-family="Helvetica,sans-Serif" font-size="10.00">int</text>
</a>
</g>
</g>
<!-- Node2&#45;&gt;Node3 -->
<g id="edge2_Node000002_Node000003" class="edge">
<title>Node2&#45;&gt;Node3</title>
<g id="a_edge2_Node000002_Node000003"><a xlink:title=" ">
<path fill="none" stroke="#63b8ff" d="M296.33,-113.25C305.37,-113.25 314.18,-113.25 321.85,-113.25"/>
<polygon fill="#63b8ff" stroke="#63b8ff" points="321.66,-116.75 331.66,-113.25 321.66,-109.75 321.66,-116.75"/>
</a>
</g>
</g>
</g>
</svg>
