<?xml version="1.0" encoding="UTF-8" standalone="no"?>
<!DOCTYPE svg PUBLIC "-//W3C//DTD SVG 1.1//EN"
 "http://www.w3.org/Graphics/SVG/1.1/DTD/svg11.dtd">
<!-- Generated by graphviz version 14.0.2 (0)
 -->
<!-- Title: Snes_Spc::end_frame Pages: 1 -->
<svg width="430pt" height="140pt"
 viewBox="0.00 0.00 430.00 140.00" xmlns="http://www.w3.org/2000/svg" xmlns:xlink="http://www.w3.org/1999/xlink">

<svg id="main" version="1.1" xmlns="http://www.w3.org/2000/svg" xmlns:xlink="http://www.w3.org/1999/xlink" xml:space="preserve">

<style type="text/css"><![CDATA[
.node, .edge {opacity: 0.7;}
.node.selected, .edge.selected {opacity: 1;}
.edge:hover path { stroke: red; }
.edge:hover polygon { stroke: red; fill: red; }
]]></style>
<script type="application/ecmascript" xlink:href="svg.min.js"/>
<svg id="graph" class="graph">
<g id="graph0" class="graph" transform="scale(1 1) rotate(0) translate(4 136.25)">
<title>Snes_Spc::end_frame</title>
<!-- Node1 -->
<g id="Node000001" class="node">
<title>Node1</title>
<g id="a_Node000001"><a xlink:title=" ">
<polygon fill="#999999" stroke="#666666" points="111.25,-75.25 0,-75.25 0,-56 111.25,-56 111.25,-75.25"/>
<text xml:space="preserve" text-anchor="middle" x="55.62" y="-61.75" font-family="Helvetica,sans-Serif" font-size="10.00">Snes_Spc::end_frame</text>
</a>
</g>
</g>
<!-- Node2 -->
<g id="Node000002" class="node">
<title>Node2</title>
<g id="a_Node000002"><a xlink:href="Spc__Cpu_8h.html#a2569713fe026f7b153bba6e89d64498f" target="_top" xlink:title=" ">
<polygon fill="white" stroke="#666666" points="380.62,-75.25 337.62,-75.25 337.62,-56 380.62,-56 380.62,-75.25"/>
<text xml:space="preserve" text-anchor="middle" x="359.12" y="-61.75" font-family="Helvetica,sans-Serif" font-size="10.00">assert</text>
</a>
</g>
</g>
<!-- Node1&#45;&gt;Node2 -->
<g id="edge1_Node000001_Node000002" class="edge">
<title>Node1&#45;&gt;Node2</title>
<g id="a_edge1_Node000001_Node000002"><a xlink:title=" ">
<path fill="none" stroke="#63b8ff" d="M111.57,-65.62C174.31,-65.62 274.86,-65.62 326,-65.62"/>
<polygon fill="#63b8ff" stroke="#63b8ff" points="325.79,-69.13 335.79,-65.63 325.79,-62.13 325.79,-69.13"/>
</a>
</g>
</g>
<!-- Node3 -->
<g id="Node000003" class="node">
<title>Node3</title>
<g id="a_Node000003"><a xlink:href="structSnes__Spc.html#abdd529c9b7ef2eed83683bb4abc13f35" target="_top" xlink:title=" ">
<polygon fill="white" stroke="#666666" points="256.62,-132.25 150.62,-132.25 150.62,-113 256.62,-113 256.62,-132.25"/>
<text xml:space="preserve" text-anchor="middle" x="203.62" y="-118.75" font-family="Helvetica,sans-Serif" font-size="10.00">Snes_Spc::run_timer</text>
</a>
</g>
</g>
<!-- Node1&#45;&gt;Node3 -->
<g id="edge2_Node000001_Node000003" class="edge">
<title>Node1&#45;&gt;Node3</title>
<g id="a_edge2_Node000001_Node000003"><a xlink:title=" ">
<path fill="none" stroke="#63b8ff" d="M82.39,-75.68C105.74,-84.8 140.39,-98.33 166.51,-108.52"/>
<polygon fill="#63b8ff" stroke="#63b8ff" points="165.12,-111.74 175.71,-112.12 167.66,-105.22 165.12,-111.74"/>
</a>
</g>
</g>
<!-- Node5 -->
<g id="Node000005" class="node">
<title>Node5</title>
<g id="a_Node000005"><a xlink:href="structSnes__Spc.html#a2cb7396fbdc2f5e55e39394797684ab6" target="_top" xlink:title=" ">
<polygon fill="white" stroke="#666666" points="257.38,-56.25 149.88,-56.25 149.88,-37 257.38,-37 257.38,-56.25"/>
<text xml:space="preserve" text-anchor="middle" x="203.62" y="-42.75" font-family="Helvetica,sans-Serif" font-size="10.00">Snes_Spc::run_until_</text>
</a>
</g>
</g>
<!-- Node1&#45;&gt;Node5 -->
<g id="edge4_Node000001_Node000005" class="edge">
<title>Node1&#45;&gt;Node5</title>
<g id="a_edge4_Node000001_Node000005"><a xlink:title=" ">
<path fill="none" stroke="#63b8ff" d="M111.41,-58.5C120.17,-57.36 129.3,-56.17 138.26,-55"/>
<polygon fill="#63b8ff" stroke="#63b8ff" points="138.51,-58.5 147.97,-53.74 137.61,-51.56 138.51,-58.5"/>
</a>
</g>
</g>
<!-- Node6 -->
<g id="Node000006" class="node">
<title>Node6</title>
<g id="a_Node000006"><a xlink:href="structSnes__Spc.html#a2de40aa4a0b55a13e0ac5df19fbc773b" target="_top" xlink:title=" ">
<polygon fill="white" stroke="#666666" points="260,-19.25 147.25,-19.25 147.25,0 260,0 260,-19.25"/>
<text xml:space="preserve" text-anchor="middle" x="203.62" y="-5.75" font-family="Helvetica,sans-Serif" font-size="10.00">Snes_Spc::save_extra</text>
</a>
</g>
</g>
<!-- Node1&#45;&gt;Node6 -->
<g id="edge5_Node000001_Node000006" class="edge">
<title>Node1&#45;&gt;Node6</title>
<g id="a_edge5_Node000001_Node000006"><a xlink:title=" ">
<path fill="none" stroke="#63b8ff" d="M79.14,-55.57C97.35,-47.59 123.74,-36.36 147.25,-27.62 151.13,-26.19 155.18,-24.75 159.25,-23.34"/>
<polygon fill="#63b8ff" stroke="#63b8ff" points="160.17,-26.73 168.53,-20.23 157.94,-20.09 160.17,-26.73"/>
</a>
</g>
</g>
<!-- Node4 -->
<g id="Node000004" class="node">
<title>Node4</title>
<g id="a_Node000004"><a xlink:href="structSnes__Spc.html#aab3327a9fa9ad37c5825aa20e0758c88" target="_top" xlink:title=" ">
<polygon fill="white" stroke="#666666" points="414.75,-132.25 303.5,-132.25 303.5,-113 414.75,-113 414.75,-132.25"/>
<text xml:space="preserve" text-anchor="middle" x="359.12" y="-118.75" font-family="Helvetica,sans-Serif" font-size="10.00">Snes_Spc::run_timer_</text>
</a>
</g>
</g>
<!-- Node3&#45;&gt;Node4 -->
<g id="edge3_Node000003_Node000004" class="edge">
<title>Node3&#45;&gt;Node4</title>
<g id="a_edge3_Node000003_Node000004"><a xlink:title=" ">
<path fill="none" stroke="#63b8ff" d="M257.02,-122.62C268.16,-122.62 280.06,-122.62 291.65,-122.62"/>
<polygon fill="#63b8ff" stroke="#63b8ff" points="291.57,-126.13 301.57,-122.63 291.57,-119.13 291.57,-126.13"/>
</a>
</g>
</g>
<!-- Node6&#45;&gt;Node2 -->
<g id="edge6_Node000006_Node000002" class="edge">
<title>Node6&#45;&gt;Node2</title>
<g id="a_edge6_Node000006_Node000002"><a xlink:title=" ">
<path fill="none" stroke="#63b8ff" d="M236.64,-19.7C244.32,-22.21 252.48,-24.95 260,-27.62 282.44,-35.61 307.48,-45.32 326.65,-52.93"/>
<polygon fill="#63b8ff" stroke="#63b8ff" points="325.2,-56.12 335.79,-56.57 327.8,-49.62 325.2,-56.12"/>
</a>
</g>
</g>
<!-- Node7 -->
<g id="Node000007" class="node">
<title>Node7</title>
<g id="a_Node000007"><a xlink:href="structSnes__Spc.html#ab440b4c18b8e780dcf05de36d79c00c8" target="_top" xlink:title=" ">
<polygon fill="white" stroke="#666666" points="422.25,-19.25 296,-19.25 296,0 422.25,0 422.25,-19.25"/>
<text xml:space="preserve" text-anchor="middle" x="359.12" y="-5.75" font-family="Helvetica,sans-Serif" font-size="10.00">Snes_Spc::sample_count</text>
</a>
</g>
</g>
<!-- Node6&#45;&gt;Node7 -->
<g id="edge7_Node000006_Node000007" class="edge">
<title>Node6&#45;&gt;Node7</title>
<g id="a_edge7_Node000006_Node000007"><a xlink:title=" ">
<path fill="none" stroke="#63b8ff" d="M260.48,-9.62C268.23,-9.62 276.28,-9.62 284.3,-9.62"/>
<polygon fill="#63b8ff" stroke="#63b8ff" points="284.05,-13.13 294.05,-9.63 284.05,-6.13 284.05,-13.13"/>
</a>
</g>
</g>
</g>
</svg>
</svg>

<style type='text/css'>
<![CDATA[
[data-mouse-over-selected='false'] { opacity: 0.7; }
[data-mouse-over-selected='true']  { opacity: 1.0; }
]]>
</style>
<script type="application/ecmascript"><![CDATA[
document.addEventListener('DOMContentLoaded', (event) => {
  highlightEdges();
  highlightAdjacentNodes();
});
]]></script>
</svg>
