<?xml version="1.0" encoding="UTF-8" standalone="no"?>
<!DOCTYPE svg PUBLIC "-//W3C//DTD SVG 1.1//EN"
 "http://www.w3.org/Graphics/SVG/1.1/DTD/svg11.dtd">
<!-- Generated by graphviz version 14.0.2 (0)
 -->
<!-- Title: treeViewState::calculateContentsHeight Pages: 1 -->
<svg width="500pt" height="69pt"
 viewBox="0.00 0.00 500.00 69.00" xmlns="http://www.w3.org/2000/svg" xmlns:xlink="http://www.w3.org/1999/xlink">

<svg id="main" version="1.1" xmlns="http://www.w3.org/2000/svg" xmlns:xlink="http://www.w3.org/1999/xlink" xml:space="preserve">

<style type="text/css"><![CDATA[
.node, .edge {opacity: 0.7;}
.node.selected, .edge.selected {opacity: 1;}
.edge:hover path { stroke: red; }
.edge:hover polygon { stroke: red; fill: red; }
]]></style>
<script type="application/ecmascript" xlink:href="svg.min.js"/>
<svg id="graph" class="graph">
<g id="graph0" class="graph" transform="scale(1 1) rotate(0) translate(4 64.88)">
<title>treeViewState::calculateContentsHeight</title>
<!-- Node1 -->
<g id="Node000001" class="node">
<title>Node1</title>
<g id="a_Node000001"><a xlink:title=" ">
<polygon fill="#999999" stroke="#666666" points="121,-42.88 0,-42.88 0,-12.37 121,-12.37 121,-42.88"/>
<text xml:space="preserve" text-anchor="start" x="8" y="-29.38" font-family="Helvetica,sans-Serif" font-size="10.00">treeViewState::calculate</text>
<text xml:space="preserve" text-anchor="middle" x="60.5" y="-18.12" font-family="Helvetica,sans-Serif" font-size="10.00">ContentsHeight</text>
</a>
</g>
</g>
<!-- Node2 -->
<g id="Node000002" class="node">
<title>Node2</title>
<g id="a_Node000002"><a xlink:href="structtreeViewState.html#a4e0a98a8cb74eea272f20cb7639c14af" target="_top" xlink:title=" ">
<polygon fill="white" stroke="#666666" points="279.5,-42.88 157,-42.88 157,-12.37 279.5,-12.37 279.5,-42.88"/>
<text xml:space="preserve" text-anchor="start" x="165" y="-29.38" font-family="Helvetica,sans-Serif" font-size="10.00">treeViewState::Calculate</text>
<text xml:space="preserve" text-anchor="middle" x="218.25" y="-18.12" font-family="Helvetica,sans-Serif" font-size="10.00">ItemHeight</text>
</a>
</g>
</g>
<!-- Node1&#45;&gt;Node2 -->
<g id="edge1_Node000001_Node000002" class="edge">
<title>Node1&#45;&gt;Node2</title>
<g id="a_edge1_Node000001_Node000002"><a xlink:title=" ">
<path fill="none" stroke="#63b8ff" d="M121.27,-27.62C129.14,-27.62 137.28,-27.62 145.32,-27.62"/>
<polygon fill="#63b8ff" stroke="#63b8ff" points="145.09,-31.13 155.09,-27.63 145.09,-24.13 145.09,-31.13"/>
</a>
</g>
</g>
<!-- Node2&#45;&gt;Node2 -->
<g id="edge2_Node000002_Node000002" class="edge">
<title>Node2&#45;&gt;Node2</title>
<g id="a_edge2_Node000002_Node000002"><a xlink:title=" ">
<path fill="none" stroke="#63b8ff" d="M191.16,-43.36C185.63,-52.43 194.66,-60.88 218.25,-60.88 231.15,-60.88 239.7,-58.35 243.89,-54.58"/>
<polygon fill="#63b8ff" stroke="#63b8ff" points="247.33,-55.23 245.15,-44.86 240.39,-54.33 247.33,-55.23"/>
</a>
</g>
</g>
<!-- Node3 -->
<g id="Node000003" class="node">
<title>Node3</title>
<g id="a_Node000003"><a xlink:href="classWDL__PtrList.html#a3f207cf2df3486af305e19c79d270da6" target="_top" xlink:title=" ">
<polygon fill="white" stroke="#666666" points="417.38,-56.25 324.88,-56.25 324.88,-37 417.38,-37 417.38,-56.25"/>
<text xml:space="preserve" text-anchor="middle" x="371.12" y="-42.75" font-family="Helvetica,sans-Serif" font-size="10.00">WDL_PtrList::Get</text>
</a>
</g>
</g>
<!-- Node2&#45;&gt;Node3 -->
<g id="edge3_Node000002_Node000003" class="edge">
<title>Node2&#45;&gt;Node3</title>
<g id="a_edge3_Node000002_Node000003"><a xlink:title=" ">
<path fill="none" stroke="#63b8ff" d="M279.75,-35.24C290.82,-36.64 302.34,-38.09 313.3,-39.47"/>
<polygon fill="#63b8ff" stroke="#63b8ff" points="312.62,-42.91 322.98,-40.69 313.5,-35.97 312.62,-42.91"/>
</a>
</g>
</g>
<!-- Node4 -->
<g id="Node000004" class="node">
<title>Node4</title>
<g id="a_Node000004"><a xlink:href="classWDL__PtrList.html#af19e58b7f1fff85071872ef248b05a58" target="_top" xlink:title=" ">
<polygon fill="white" stroke="#666666" points="426.75,-19.25 315.5,-19.25 315.5,0 426.75,0 426.75,-19.25"/>
<text xml:space="preserve" text-anchor="middle" x="371.12" y="-5.75" font-family="Helvetica,sans-Serif" font-size="10.00">WDL_PtrList::GetSize</text>
</a>
</g>
</g>
<!-- Node2&#45;&gt;Node4 -->
<g id="edge4_Node000002_Node000004" class="edge">
<title>Node2&#45;&gt;Node4</title>
<g id="a_edge4_Node000002_Node000004"><a xlink:title=" ">
<path fill="none" stroke="#63b8ff" d="M279.75,-20.41C287.77,-19.45 296.03,-18.46 304.14,-17.5"/>
<polygon fill="#63b8ff" stroke="#63b8ff" points="304.45,-20.99 313.97,-16.32 303.62,-14.03 304.45,-20.99"/>
</a>
</g>
</g>
<!-- Node5 -->
<g id="Node000005" class="node">
<title>Node5</title>
<g id="a_Node000005"><a xlink:href="unzipfx-carla-control_2unzip_8h.html#a6146ec4ac32d62cf01b4c4c6587d5131" target="_top" xlink:title=" ">
<polygon fill="white" stroke="#666666" points="491.55,-19.25 462.75,-19.25 462.75,0 491.55,0 491.55,-19.25"/>
<text xml:space="preserve" text-anchor="middle" x="477.15" y="-5.75" font-family="Helvetica,sans-Serif" font-size="10.00">int</text>
</a>
</g>
</g>
<!-- Node4&#45;&gt;Node5 -->
<g id="edge5_Node000004_Node000005" class="edge">
<title>Node4&#45;&gt;Node5</title>
<g id="a_edge5_Node000004_Node000005"><a xlink:title=" ">
<path fill="none" stroke="#63b8ff" d="M427.18,-9.62C435.45,-9.62 443.61,-9.62 450.83,-9.62"/>
<polygon fill="#63b8ff" stroke="#63b8ff" points="450.77,-13.13 460.77,-9.63 450.77,-6.13 450.77,-13.13"/>
</a>
</g>
</g>
</g>
</svg>
</svg>

<style type='text/css'>
<![CDATA[
[data-mouse-over-selected='false'] { opacity: 0.7; }
[data-mouse-over-selected='true']  { opacity: 1.0; }
]]>
</style>
<script type="application/ecmascript"><![CDATA[
document.addEventListener('DOMContentLoaded', (event) => {
  highlightEdges();
  highlightAdjacentNodes();
});
]]></script>
</svg>
