<?xml version="1.0" encoding="UTF-8" standalone="no"?>
<!DOCTYPE svg PUBLIC "-//W3C//DTD SVG 1.1//EN"
 "http://www.w3.org/Graphics/SVG/1.1/DTD/svg11.dtd">
<!-- Generated by graphviz version 14.0.2 (0)
 -->
<!-- Title: juce::detail::NameForwarder&lt;... &gt; Pages: 1 -->
<svg width="640pt" height="479pt"
 viewBox="0.00 0.00 640.00 479.00" xmlns="http://www.w3.org/2000/svg" xmlns:xlink="http://www.w3.org/1999/xlink">
<g id="graph0" class="graph" transform="scale(1 1) rotate(0) translate(4 474.75)">
<title>juce::detail::NameForwarder&lt;... &gt;</title>
<!-- Node1 -->
<g id="Node000001" class="node">
<title>Node1</title>
<g id="a_Node000001"><a xlink:title=" ">
<polygon fill="#999999" stroke="none" points="446.25,-470.75 318.25,-470.75 318.25,-409.75 446.25,-409.75 446.25,-470.75"/>
<text xml:space="preserve" text-anchor="start" x="322.25" y="-457.25" font-family="Helvetica,sans-Serif" font-size="10.00">juce::detail::NameForwarder</text>
<text xml:space="preserve" text-anchor="start" x="371.75" y="-446" font-family="Helvetica,sans-Serif" font-size="10.00">&lt;... &gt;</text>
<text xml:space="preserve" text-anchor="start" x="380.75" y="-430.75" font-family="Helvetica,sans-Serif" font-size="10.00"> </text>
<text xml:space="preserve" text-anchor="start" x="380.75" y="-415.5" font-family="Helvetica,sans-Serif" font-size="10.00"> </text>
<polygon fill="#666666" stroke="#666666" points="318.25,-442.25 318.25,-442.25 446.25,-442.25 446.25,-442.25 318.25,-442.25"/>
<polygon fill="#666666" stroke="#666666" points="318.25,-427 318.25,-427 446.25,-427 446.25,-427 318.25,-427"/>
<polygon fill="none" stroke="#666666" points="318.25,-409.75 318.25,-470.75 446.25,-470.75 446.25,-409.75 318.25,-409.75"/>
</a>
</g>
</g>
<!-- Node2 -->
<g id="Node000002" class="node">
<title>Node2</title>
<g id="a_Node000002"><a xlink:href="structjuce_1_1detail_1_1NameForwarder.html" target="_top" xlink:title=" ">
<polygon fill="white" stroke="none" points="216.5,-295.5 0,-295.5 0,-189.5 216.5,-189.5 216.5,-295.5"/>
<text xml:space="preserve" text-anchor="start" x="4" y="-282" font-family="Helvetica,sans-Serif" font-size="10.00">juce::detail::NameForwarder</text>
<text xml:space="preserve" text-anchor="start" x="4" y="-270.75" font-family="Helvetica,sans-Serif" font-size="10.00">&lt; FloatVectorOperationsBase</text>
<text xml:space="preserve" text-anchor="start" x="4" y="-259.5" font-family="Helvetica,sans-Serif" font-size="10.00">&lt; float, int &gt;, FloatVectorOperations</text>
<text xml:space="preserve" text-anchor="start" x="4" y="-248.25" font-family="Helvetica,sans-Serif" font-size="10.00">Base&lt; float, size_t &gt;, FloatVectorOperations</text>
<text xml:space="preserve" text-anchor="start" x="4" y="-237" font-family="Helvetica,sans-Serif" font-size="10.00">Base&lt; double, int &gt;, FloatVectorOperationsBase</text>
<text xml:space="preserve" text-anchor="start" x="66.25" y="-225.75" font-family="Helvetica,sans-Serif" font-size="10.00">&lt; double, size_t &gt; &gt;</text>
<text xml:space="preserve" text-anchor="start" x="106.75" y="-210.5" font-family="Helvetica,sans-Serif" font-size="10.00"> </text>
<text xml:space="preserve" text-anchor="start" x="106.75" y="-195.25" font-family="Helvetica,sans-Serif" font-size="10.00"> </text>
<polygon fill="#666666" stroke="#666666" points="0,-222 0,-222 216.5,-222 216.5,-222 0,-222"/>
<polygon fill="#666666" stroke="#666666" points="0,-206.75 0,-206.75 216.5,-206.75 216.5,-206.75 0,-206.75"/>
<polygon fill="none" stroke="#666666" points="0,-189.5 0,-295.5 216.5,-295.5 216.5,-189.5 0,-189.5"/>
</a>
</g>
</g>
<!-- Node1&#45;&gt;Node2 -->
<g id="edge1_Node000001_Node000002" class="edge">
<title>Node1&#45;&gt;Node2</title>
<g id="a_edge1_Node000001_Node000002"><a xlink:title=" ">
<path fill="none" stroke="orange" d="M307.16,-436.84C234.56,-432.73 131.94,-421.66 106.75,-391.75 84.7,-365.57 85.96,-326.58 92.27,-295.15"/>
<polygon fill="orange" stroke="orange" points="306.86,-440.33 317.03,-437.36 307.23,-433.33 306.86,-440.33"/>
</a>
</g>
<text xml:space="preserve" text-anchor="start" x="109.75" y="-379.25" font-family="Helvetica,sans-Serif" font-size="10.00" fill="grey">&lt; FloatVectorOperationsBase</text>
<text xml:space="preserve" text-anchor="start" x="109.75" y="-364" font-family="Helvetica,sans-Serif" font-size="10.00" fill="grey">  &lt; float, int &gt;, FloatVectorOperations</text>
<text xml:space="preserve" text-anchor="start" x="109.75" y="-348.75" font-family="Helvetica,sans-Serif" font-size="10.00" fill="grey">  Base&lt; float, size_t &gt;, FloatVectorOperations</text>
<text xml:space="preserve" text-anchor="start" x="109.75" y="-333.5" font-family="Helvetica,sans-Serif" font-size="10.00" fill="grey">  Base&lt; double, int &gt;, FloatVectorOperationsBase</text>
<text xml:space="preserve" text-anchor="start" x="109.75" y="-318.25" font-family="Helvetica,sans-Serif" font-size="10.00" fill="grey">  &lt; double, size_t &gt; &gt;</text>
</g>
<!-- Node4 -->
<g id="Node000004" class="node">
<title>Node4</title>
<g id="a_Node000004"><a xlink:href="structjuce_1_1detail_1_1NameForwarder.html" target="_top" xlink:title=" ">
<polygon fill="white" stroke="none" points="376.25,-273 248.25,-273 248.25,-212 376.25,-212 376.25,-273"/>
<text xml:space="preserve" text-anchor="start" x="252.25" y="-259.5" font-family="Helvetica,sans-Serif" font-size="10.00">juce::detail::NameForwarder</text>
<text xml:space="preserve" text-anchor="start" x="292.75" y="-248.25" font-family="Helvetica,sans-Serif" font-size="10.00">&lt; Tail... &gt;</text>
<text xml:space="preserve" text-anchor="start" x="310.75" y="-233" font-family="Helvetica,sans-Serif" font-size="10.00"> </text>
<text xml:space="preserve" text-anchor="start" x="310.75" y="-217.75" font-family="Helvetica,sans-Serif" font-size="10.00"> </text>
<polygon fill="#666666" stroke="#666666" points="248.25,-244.5 248.25,-244.5 376.25,-244.5 376.25,-244.5 248.25,-244.5"/>
<polygon fill="#666666" stroke="#666666" points="248.25,-229.25 248.25,-229.25 376.25,-229.25 376.25,-229.25 248.25,-229.25"/>
<polygon fill="none" stroke="#666666" points="248.25,-212 248.25,-273 376.25,-273 376.25,-212 248.25,-212"/>
</a>
</g>
</g>
<!-- Node1&#45;&gt;Node4 -->
<g id="edge3_Node000001_Node000004" class="edge">
<title>Node1&#45;&gt;Node4</title>
<g id="a_edge3_Node000001_Node000004"><a xlink:title=" ">
<path fill="none" stroke="orange" d="M357.01,-399.71C355.66,-397.05 354.39,-394.39 353.25,-391.75 348.5,-380.79 330.35,-312.67 319.86,-272.69"/>
<polygon fill="orange" stroke="orange" points="353.93,-401.36 361.8,-408.45 360.07,-398 353.93,-401.36"/>
</a>
</g>
<text xml:space="preserve" text-anchor="start" x="356.25" y="-348.75" font-family="Helvetica,sans-Serif" font-size="10.00" fill="grey">&lt; Tail... &gt;</text>
</g>
<!-- Node5 -->
<g id="Node000005" class="node">
<title>Node5</title>
<g id="a_Node000005"><a xlink:href="structjuce_1_1detail_1_1NameForwarder_3_01Head_00_01Tail_8_8_8_01_4.html" target="_top" xlink:title=" ">
<polygon fill="white" stroke="none" points="445.25,-106.75 317.25,-106.75 317.25,-45.75 445.25,-45.75 445.25,-106.75"/>
<text xml:space="preserve" text-anchor="start" x="321.25" y="-93.25" font-family="Helvetica,sans-Serif" font-size="10.00">juce::detail::NameForwarder</text>
<text xml:space="preserve" text-anchor="start" x="347.5" y="-82" font-family="Helvetica,sans-Serif" font-size="10.00">&lt; Head, Tail... &gt;</text>
<text xml:space="preserve" text-anchor="start" x="379.75" y="-66.75" font-family="Helvetica,sans-Serif" font-size="10.00"> </text>
<text xml:space="preserve" text-anchor="start" x="379.75" y="-51.5" font-family="Helvetica,sans-Serif" font-size="10.00"> </text>
<polygon fill="#666666" stroke="#666666" points="317.25,-78.25 317.25,-78.25 445.25,-78.25 445.25,-78.25 317.25,-78.25"/>
<polygon fill="#666666" stroke="#666666" points="317.25,-63 317.25,-63 445.25,-63 445.25,-63 317.25,-63"/>
<polygon fill="none" stroke="#666666" points="317.25,-45.75 317.25,-106.75 445.25,-106.75 445.25,-45.75 317.25,-45.75"/>
</a>
</g>
</g>
<!-- Node1&#45;&gt;Node5 -->
<g id="edge6_Node000001_Node000005" class="edge">
<title>Node1&#45;&gt;Node5</title>
<g id="a_edge6_Node000001_Node000005"><a xlink:title=" ">
<path fill="none" stroke="orange" d="M396.75,-399.17C397.34,-396.68 397.85,-394.19 398.25,-391.75 415.27,-287.88 397.08,-162.39 387.01,-106.53"/>
<polygon fill="orange" stroke="orange" points="393.46,-397.95 394.16,-408.52 400.2,-399.82 393.46,-397.95"/>
</a>
</g>
<text xml:space="preserve" text-anchor="start" x="408.22" y="-238.62" font-family="Helvetica,sans-Serif" font-size="10.00" fill="grey">&lt; Head, Tail... &gt;</text>
</g>
<!-- Node6 -->
<g id="Node000006" class="node">
<title>Node6</title>
<g id="a_Node000006"><a xlink:href="structjuce_1_1detail_1_1NameForwarder_3_01Head_01_4.html" target="_top" xlink:title=" ">
<polygon fill="white" stroke="none" points="632.25,-273 504.25,-273 504.25,-212 632.25,-212 632.25,-273"/>
<text xml:space="preserve" text-anchor="start" x="508.25" y="-259.5" font-family="Helvetica,sans-Serif" font-size="10.00">juce::detail::NameForwarder</text>
<text xml:space="preserve" text-anchor="start" x="548.38" y="-248.25" font-family="Helvetica,sans-Serif" font-size="10.00">&lt; Head &gt;</text>
<text xml:space="preserve" text-anchor="start" x="566.75" y="-233" font-family="Helvetica,sans-Serif" font-size="10.00"> </text>
<text xml:space="preserve" text-anchor="start" x="566.75" y="-217.75" font-family="Helvetica,sans-Serif" font-size="10.00"> </text>
<polygon fill="#666666" stroke="#666666" points="504.25,-244.5 504.25,-244.5 632.25,-244.5 632.25,-244.5 504.25,-244.5"/>
<polygon fill="#666666" stroke="#666666" points="504.25,-229.25 504.25,-229.25 632.25,-229.25 632.25,-229.25 504.25,-229.25"/>
<polygon fill="none" stroke="#666666" points="504.25,-212 504.25,-273 632.25,-273 632.25,-212 504.25,-212"/>
</a>
</g>
</g>
<!-- Node1&#45;&gt;Node6 -->
<g id="edge5_Node000001_Node000006" class="edge">
<title>Node1&#45;&gt;Node6</title>
<g id="a_edge5_Node000001_Node000006"><a xlink:title=" ">
<path fill="none" stroke="orange" d="M417.87,-401.77C453.6,-364.16 507.87,-307.04 540.52,-272.69"/>
<polygon fill="orange" stroke="orange" points="415.49,-399.19 411.14,-408.85 420.56,-404.01 415.49,-399.19"/>
</a>
</g>
<text xml:space="preserve" text-anchor="start" x="500.38" y="-348.75" font-family="Helvetica,sans-Serif" font-size="10.00" fill="grey">&lt; Head &gt;</text>
</g>
<!-- Node3 -->
<g id="Node000003" class="node">
<title>Node3</title>
<g id="a_Node000003"><a xlink:href="classjuce_1_1FloatVectorOperations.html" target="_top" xlink:title=" ">
<polygon fill="white" stroke="none" points="179.5,-152.5 37,-152.5 37,0 179.5,0 179.5,-152.5"/>
<text xml:space="preserve" text-anchor="start" x="48.25" y="-139" font-family="Helvetica,sans-Serif" font-size="10.00">juce::FloatVectorOperations</text>
<text xml:space="preserve" text-anchor="start" x="42.5" y="-123.75" font-family="Helvetica,sans-Serif" font-size="10.00">&#45;</text>
<text xml:space="preserve" text-anchor="start" x="51" y="-123.75" font-family="Helvetica,sans-Serif" font-size="10.00">ScopedNoDenormals</text>
<text xml:space="preserve" text-anchor="start" x="41" y="-108.5" font-family="Helvetica,sans-Serif" font-size="10.00">+</text>
<text xml:space="preserve" text-anchor="start" x="51" y="-108.5" font-family="Helvetica,sans-Serif" font-size="10.00">convertFixedToFloat()</text>
<text xml:space="preserve" text-anchor="start" x="41" y="-93.25" font-family="Helvetica,sans-Serif" font-size="10.00">+</text>
<text xml:space="preserve" text-anchor="start" x="51" y="-93.25" font-family="Helvetica,sans-Serif" font-size="10.00">convertFixedToFloat()</text>
<text xml:space="preserve" text-anchor="start" x="41" y="-78" font-family="Helvetica,sans-Serif" font-size="10.00">+</text>
<text xml:space="preserve" text-anchor="start" x="51" y="-78" font-family="Helvetica,sans-Serif" font-size="10.00">enableFlushToZeroMode()</text>
<text xml:space="preserve" text-anchor="start" x="41" y="-62.75" font-family="Helvetica,sans-Serif" font-size="10.00">+</text>
<text xml:space="preserve" text-anchor="start" x="51" y="-62.75" font-family="Helvetica,sans-Serif" font-size="10.00">disableDenormalisedNumber</text>
<text xml:space="preserve" text-anchor="start" x="51" y="-51.5" font-family="Helvetica,sans-Serif" font-size="10.00">Support()</text>
<text xml:space="preserve" text-anchor="start" x="41" y="-36.25" font-family="Helvetica,sans-Serif" font-size="10.00">+</text>
<text xml:space="preserve" text-anchor="start" x="51" y="-36.25" font-family="Helvetica,sans-Serif" font-size="10.00">areDenormalsDisabled()</text>
<text xml:space="preserve" text-anchor="start" x="42.5" y="-21" font-family="Helvetica,sans-Serif" font-size="10.00">&#45;</text>
<text xml:space="preserve" text-anchor="start" x="51" y="-21" font-family="Helvetica,sans-Serif" font-size="10.00">getFpStatusRegister()</text>
<text xml:space="preserve" text-anchor="start" x="42.5" y="-5.75" font-family="Helvetica,sans-Serif" font-size="10.00">&#45;</text>
<text xml:space="preserve" text-anchor="start" x="51" y="-5.75" font-family="Helvetica,sans-Serif" font-size="10.00">setFpStatusRegister()</text>
<polygon fill="#666666" stroke="#666666" points="37,-135.25 37,-135.25 179.5,-135.25 179.5,-135.25 37,-135.25"/>
<polygon fill="#666666" stroke="#666666" points="37,-120 37,-120 49,-120 49,-120 37,-120"/>
<polygon fill="#666666" stroke="#666666" points="49,-120 49,-120 179.5,-120 179.5,-120 49,-120"/>
<polygon fill="none" stroke="#666666" points="37,0 37,-152.5 179.5,-152.5 179.5,0 37,0"/>
</a>
</g>
</g>
<!-- Node2&#45;&gt;Node3 -->
<g id="edge2_Node000002_Node000003" class="edge">
<title>Node2&#45;&gt;Node3</title>
<g id="a_edge2_Node000002_Node000003"><a xlink:title=" ">
<path fill="none" stroke="#63b8ff" d="M108.25,-178.18C108.25,-169.7 108.25,-160.94 108.25,-152.29"/>
<polygon fill="none" stroke="#63b8ff" points="104.75,-178.02 108.25,-188.02 111.75,-178.02 104.75,-178.02"/>
</a>
</g>
</g>
<!-- Node4&#45;&gt;Node5 -->
<g id="edge4_Node000004_Node000005" class="edge">
<title>Node4&#45;&gt;Node5</title>
<g id="a_edge4_Node000004_Node000005"><a xlink:title=" ">
<path fill="none" stroke="#63b8ff" d="M328.92,-201.82C341.24,-172.49 357.75,-133.19 368.9,-106.64"/>
<polygon fill="none" stroke="#63b8ff" points="325.82,-200.16 325.17,-210.74 332.27,-202.88 325.82,-200.16"/>
</a>
</g>
</g>
</g>
</svg>
