<?xml version="1.0" encoding="UTF-8" standalone="no"?>
<!DOCTYPE svg PUBLIC "-//W3C//DTD SVG 1.1//EN"
 "http://www.w3.org/Graphics/SVG/1.1/DTD/svg11.dtd">
<!-- Generated by graphviz version 14.0.2 (0)
 -->
<!-- Title: exprtk::parser&lt; T &gt;::state_t Pages: 1 -->
<svg width="103pt" height="401pt"
 viewBox="0.00 0.00 103.00 401.00" xmlns="http://www.w3.org/2000/svg" xmlns:xlink="http://www.w3.org/1999/xlink">
<g id="graph0" class="graph" transform="scale(1 1) rotate(0) translate(4 396.75)">
<title>exprtk::parser&lt; T &gt;::state_t</title>
<!-- Node1 -->
<g id="Node000001" class="node">
<title>Node1</title>
<g id="a_Node000001"><a xlink:title=" ">
<polygon fill="#999999" stroke="none" points="91.38,-106.75 3.12,-106.75 3.12,0 91.38,0 91.38,-106.75"/>
<text xml:space="preserve" text-anchor="start" x="7.12" y="-93.25" font-family="Helvetica,sans-Serif" font-size="10.00">exprtk::parser&lt; T &gt;</text>
<text xml:space="preserve" text-anchor="start" x="30" y="-82" font-family="Helvetica,sans-Serif" font-size="10.00">::state_t</text>
<text xml:space="preserve" text-anchor="start" x="14.75" y="-66.75" font-family="Helvetica,sans-Serif" font-size="10.00">+</text>
<text xml:space="preserve" text-anchor="start" x="32.38" y="-66.75" font-family="Helvetica,sans-Serif" font-size="10.00">left</text>
<text xml:space="preserve" text-anchor="start" x="14.75" y="-51.5" font-family="Helvetica,sans-Serif" font-size="10.00">+</text>
<text xml:space="preserve" text-anchor="start" x="32.38" y="-51.5" font-family="Helvetica,sans-Serif" font-size="10.00">right</text>
<text xml:space="preserve" text-anchor="start" x="14.75" y="-36.25" font-family="Helvetica,sans-Serif" font-size="10.00">+</text>
<text xml:space="preserve" text-anchor="start" x="32.38" y="-36.25" font-family="Helvetica,sans-Serif" font-size="10.00">operation</text>
<text xml:space="preserve" text-anchor="start" x="14.75" y="-21" font-family="Helvetica,sans-Serif" font-size="10.00">+</text>
<text xml:space="preserve" text-anchor="start" x="32.38" y="-21" font-family="Helvetica,sans-Serif" font-size="10.00">set()</text>
<text xml:space="preserve" text-anchor="start" x="14.75" y="-5.75" font-family="Helvetica,sans-Serif" font-size="10.00">+</text>
<text xml:space="preserve" text-anchor="start" x="32.38" y="-5.75" font-family="Helvetica,sans-Serif" font-size="10.00">reset()</text>
<polygon fill="#666666" stroke="#666666" points="3.12,-78.25 3.12,-78.25 91.38,-78.25 91.38,-78.25 3.12,-78.25"/>
<polygon fill="#666666" stroke="#666666" points="3.12,-32.5 3.12,-32.5 30.38,-32.5 30.38,-32.5 3.12,-32.5"/>
<polygon fill="#666666" stroke="#666666" points="30.38,-32.5 30.38,-32.5 91.38,-32.5 91.38,-32.5 30.38,-32.5"/>
<polygon fill="none" stroke="#666666" points="3.12,0 3.12,-106.75 91.38,-106.75 91.38,0 3.12,0"/>
</a>
</g>
</g>
<!-- Node2 -->
<g id="Node000002" class="node">
<title>Node2</title>
<g id="a_Node000002"><a xlink:href="structexprtk_1_1lexer_1_1token.html" target="_top" xlink:title=" ">
<polygon fill="white" stroke="none" points="94.5,-392.75 0,-392.75 0,-160 94.5,-160 94.5,-392.75"/>
<text xml:space="preserve" text-anchor="start" x="7.5" y="-379.25" font-family="Helvetica,sans-Serif" font-size="10.00">exprtk::lexer::token</text>
<text xml:space="preserve" text-anchor="start" x="4" y="-364" font-family="Helvetica,sans-Serif" font-size="10.00">+</text>
<text xml:space="preserve" text-anchor="start" x="14" y="-364" font-family="Helvetica,sans-Serif" font-size="10.00">type</text>
<text xml:space="preserve" text-anchor="start" x="4" y="-348.75" font-family="Helvetica,sans-Serif" font-size="10.00">+</text>
<text xml:space="preserve" text-anchor="start" x="14" y="-348.75" font-family="Helvetica,sans-Serif" font-size="10.00">value</text>
<text xml:space="preserve" text-anchor="start" x="4" y="-333.5" font-family="Helvetica,sans-Serif" font-size="10.00">+</text>
<text xml:space="preserve" text-anchor="start" x="14" y="-333.5" font-family="Helvetica,sans-Serif" font-size="10.00">position</text>
<text xml:space="preserve" text-anchor="start" x="4" y="-318.25" font-family="Helvetica,sans-Serif" font-size="10.00">+</text>
<text xml:space="preserve" text-anchor="start" x="14" y="-318.25" font-family="Helvetica,sans-Serif" font-size="10.00">token()</text>
<text xml:space="preserve" text-anchor="start" x="4" y="-303" font-family="Helvetica,sans-Serif" font-size="10.00">+</text>
<text xml:space="preserve" text-anchor="start" x="14" y="-303" font-family="Helvetica,sans-Serif" font-size="10.00">clear()</text>
<text xml:space="preserve" text-anchor="start" x="4" y="-287.75" font-family="Helvetica,sans-Serif" font-size="10.00">+</text>
<text xml:space="preserve" text-anchor="start" x="14" y="-287.75" font-family="Helvetica,sans-Serif" font-size="10.00">set_operator()</text>
<text xml:space="preserve" text-anchor="start" x="4" y="-272.5" font-family="Helvetica,sans-Serif" font-size="10.00">+</text>
<text xml:space="preserve" text-anchor="start" x="14" y="-272.5" font-family="Helvetica,sans-Serif" font-size="10.00">set_symbol()</text>
<text xml:space="preserve" text-anchor="start" x="4" y="-257.25" font-family="Helvetica,sans-Serif" font-size="10.00">+</text>
<text xml:space="preserve" text-anchor="start" x="14" y="-257.25" font-family="Helvetica,sans-Serif" font-size="10.00">set_numeric()</text>
<text xml:space="preserve" text-anchor="start" x="4" y="-242" font-family="Helvetica,sans-Serif" font-size="10.00">+</text>
<text xml:space="preserve" text-anchor="start" x="14" y="-242" font-family="Helvetica,sans-Serif" font-size="10.00">set_string()</text>
<text xml:space="preserve" text-anchor="start" x="4" y="-226.75" font-family="Helvetica,sans-Serif" font-size="10.00">+</text>
<text xml:space="preserve" text-anchor="start" x="14" y="-226.75" font-family="Helvetica,sans-Serif" font-size="10.00">set_string()</text>
<text xml:space="preserve" text-anchor="start" x="4" y="-211.5" font-family="Helvetica,sans-Serif" font-size="10.00">+</text>
<text xml:space="preserve" text-anchor="start" x="14" y="-211.5" font-family="Helvetica,sans-Serif" font-size="10.00">set_error()</text>
<text xml:space="preserve" text-anchor="start" x="4" y="-196.25" font-family="Helvetica,sans-Serif" font-size="10.00">+</text>
<text xml:space="preserve" text-anchor="start" x="14" y="-196.25" font-family="Helvetica,sans-Serif" font-size="10.00">is_error()</text>
<text xml:space="preserve" text-anchor="start" x="4" y="-181" font-family="Helvetica,sans-Serif" font-size="10.00">+</text>
<text xml:space="preserve" text-anchor="start" x="14" y="-181" font-family="Helvetica,sans-Serif" font-size="10.00">to_str()</text>
<text xml:space="preserve" text-anchor="start" x="4" y="-165.75" font-family="Helvetica,sans-Serif" font-size="10.00">+</text>
<text xml:space="preserve" text-anchor="start" x="14" y="-165.75" font-family="Helvetica,sans-Serif" font-size="10.00">seperator_to_str()</text>
<polygon fill="#666666" stroke="#666666" points="0,-375.5 0,-375.5 94.5,-375.5 94.5,-375.5 0,-375.5"/>
<polygon fill="#666666" stroke="#666666" points="0,-329.75 0,-329.75 12,-329.75 12,-329.75 0,-329.75"/>
<polygon fill="#666666" stroke="#666666" points="12,-329.75 12,-329.75 94.5,-329.75 94.5,-329.75 12,-329.75"/>
<polygon fill="none" stroke="#666666" points="0,-160 0,-392.75 94.5,-392.75 94.5,-160 0,-160"/>
</a>
</g>
</g>
<!-- Node2&#45;&gt;Node1 -->
<g id="edge1_Node000001_Node000002" class="edge">
<title>Node2&#45;&gt;Node1</title>
<g id="a_edge1_Node000001_Node000002"><a xlink:title=" ">
<path fill="none" stroke="#63b8ff" d="M47.25,-160.02C47.25,-146.12 47.25,-132.31 47.25,-119.5"/>
<polygon fill="none" stroke="#63b8ff" points="47.25,-119.44 43.25,-113.44 47.25,-107.44 51.25,-113.44 47.25,-119.44"/>
</a>
</g>
<text xml:space="preserve" text-anchor="start" x="50.25" y="-129.5" font-family="Helvetica,sans-Serif" font-size="10.00" fill="grey">+token</text>
</g>
</g>
</svg>
