<?xml version="1.0" encoding="UTF-8" standalone="no"?>
<!DOCTYPE svg PUBLIC "-//W3C//DTD SVG 1.1//EN"
 "http://www.w3.org/Graphics/SVG/1.1/DTD/svg11.dtd">
<!-- Generated by graphviz version 14.0.2 (0)
 -->
<!-- Title: ImageBaseSwitch&lt; ImageType &gt;::PrivateData Pages: 1 -->
<svg width="152pt" height="260pt"
 viewBox="0.00 0.00 152.00 260.00" xmlns="http://www.w3.org/2000/svg" xmlns:xlink="http://www.w3.org/1999/xlink">
<g id="graph0" class="graph" transform="scale(1 1) rotate(0) translate(4 255.5)">
<title>ImageBaseSwitch&lt; ImageType &gt;::PrivateData</title>
<!-- Node1 -->
<g id="Node000001" class="node">
<title>Node1</title>
<g id="a_Node000001"><a xlink:title=" ">
<polygon fill="#999999" stroke="none" points="143.75,-122 0,-122 0,0 143.75,0 143.75,-122"/>
<text xml:space="preserve" text-anchor="start" x="4" y="-108.5" font-family="Helvetica,sans-Serif" font-size="10.00">ImageBaseSwitch&lt; ImageType</text>
<text xml:space="preserve" text-anchor="start" x="40" y="-97.25" font-family="Helvetica,sans-Serif" font-size="10.00"> &gt;::PrivateData</text>
<text xml:space="preserve" text-anchor="start" x="21" y="-82" font-family="Helvetica,sans-Serif" font-size="10.00">+</text>
<text xml:space="preserve" text-anchor="start" x="48" y="-82" font-family="Helvetica,sans-Serif" font-size="10.00">imageNormal</text>
<text xml:space="preserve" text-anchor="start" x="21" y="-66.75" font-family="Helvetica,sans-Serif" font-size="10.00">+</text>
<text xml:space="preserve" text-anchor="start" x="48" y="-66.75" font-family="Helvetica,sans-Serif" font-size="10.00">imageDown</text>
<text xml:space="preserve" text-anchor="start" x="21" y="-51.5" font-family="Helvetica,sans-Serif" font-size="10.00">+</text>
<text xml:space="preserve" text-anchor="start" x="48" y="-51.5" font-family="Helvetica,sans-Serif" font-size="10.00">isDown</text>
<text xml:space="preserve" text-anchor="start" x="21" y="-36.25" font-family="Helvetica,sans-Serif" font-size="10.00">+</text>
<text xml:space="preserve" text-anchor="start" x="48" y="-36.25" font-family="Helvetica,sans-Serif" font-size="10.00">PrivateData()</text>
<text xml:space="preserve" text-anchor="start" x="21" y="-21" font-family="Helvetica,sans-Serif" font-size="10.00">+</text>
<text xml:space="preserve" text-anchor="start" x="48" y="-21" font-family="Helvetica,sans-Serif" font-size="10.00">PrivateData()</text>
<text xml:space="preserve" text-anchor="start" x="21" y="-5.75" font-family="Helvetica,sans-Serif" font-size="10.00">+</text>
<text xml:space="preserve" text-anchor="start" x="48" y="-5.75" font-family="Helvetica,sans-Serif" font-size="10.00">assignFrom()</text>
<polygon fill="#666666" stroke="#666666" points="0,-93.5 0,-93.5 143.75,-93.5 143.75,-93.5 0,-93.5"/>
<polygon fill="#666666" stroke="#666666" points="0,-47.75 0,-47.75 46,-47.75 46,-47.75 0,-47.75"/>
<polygon fill="#666666" stroke="#666666" points="46,-47.75 46,-47.75 143.75,-47.75 143.75,-47.75 46,-47.75"/>
<polygon fill="none" stroke="#666666" points="0,0 0,-122 143.75,-122 143.75,0 0,0"/>
</a>
</g>
</g>
<!-- Node2 -->
<g id="Node000002" class="node">
<title>Node2</title>
<g id="a_Node000002"><a xlink:href="classImageBaseSwitch_1_1Callback.html" target="_top" xlink:title=" ">
<polygon fill="white" stroke="none" points="143.75,-251.5 0,-251.5 0,-175.25 143.75,-175.25 143.75,-251.5"/>
<text xml:space="preserve" text-anchor="start" x="4" y="-238" font-family="Helvetica,sans-Serif" font-size="10.00">ImageBaseSwitch&lt; ImageType</text>
<text xml:space="preserve" text-anchor="start" x="46.75" y="-226.75" font-family="Helvetica,sans-Serif" font-size="10.00"> &gt;::Callback</text>
<text xml:space="preserve" text-anchor="start" x="70.38" y="-211.5" font-family="Helvetica,sans-Serif" font-size="10.00"> </text>
<text xml:space="preserve" text-anchor="start" x="11.81" y="-196.25" font-family="Helvetica,sans-Serif" font-size="10.00">+</text>
<text xml:space="preserve" text-anchor="start" x="29.62" y="-196.25" font-family="Helvetica,sans-Serif" font-size="10.00">~Callback()</text>
<text xml:space="preserve" text-anchor="start" x="11.81" y="-181" font-family="Helvetica,sans-Serif" font-size="10.00">+</text>
<text xml:space="preserve" text-anchor="start" x="29.62" y="-181" font-family="Helvetica,sans-Serif" font-size="10.00">imageSwitchClicked()</text>
<polygon fill="#666666" stroke="#666666" points="0,-223 0,-223 143.75,-223 143.75,-223 0,-223"/>
<polygon fill="#666666" stroke="#666666" points="0,-207.75 0,-207.75 143.75,-207.75 143.75,-207.75 0,-207.75"/>
<polygon fill="none" stroke="#666666" points="0,-175.25 0,-251.5 143.75,-251.5 143.75,-175.25 0,-175.25"/>
</a>
</g>
</g>
<!-- Node2&#45;&gt;Node1 -->
<g id="edge1_Node000001_Node000002" class="edge">
<title>Node2&#45;&gt;Node1</title>
<g id="a_edge1_Node000001_Node000002"><a xlink:title=" ">
<path fill="none" stroke="#63b8ff" d="M71.88,-175.59C71.88,-163.21 71.88,-148.93 71.88,-134.76"/>
<polygon fill="none" stroke="#63b8ff" points="71.88,-134.74 67.88,-128.74 71.88,-122.74 75.88,-128.74 71.88,-134.74"/>
</a>
</g>
<text xml:space="preserve" text-anchor="start" x="74.88" y="-144.75" font-family="Helvetica,sans-Serif" font-size="10.00" fill="grey">+callback</text>
</g>
</g>
</svg>
