<?xml version="1.0" encoding="UTF-8" standalone="no"?>
<!DOCTYPE svg PUBLIC "-//W3C//DTD SVG 1.1//EN"
 "http://www.w3.org/Graphics/SVG/1.1/DTD/svg11.dtd">
<!-- Generated by graphviz version 14.0.2 (0)
 -->
<!-- Title: juce::universal_midi_packets::U32ToUMPHandler Pages: 1 -->
<svg width="531pt" height="305pt"
 viewBox="0.00 0.00 531.00 305.00" xmlns="http://www.w3.org/2000/svg" xmlns:xlink="http://www.w3.org/1999/xlink">
<g id="graph0" class="graph" transform="scale(1 1) rotate(0) translate(4 301.25)">
<title>juce::universal_midi_packets::U32ToUMPHandler</title>
<!-- Node1 -->
<g id="Node000001" class="node">
<title>Node1</title>
<g id="a_Node000001"><a xlink:title=" ">
<polygon fill="#999999" stroke="none" points="316.75,-91.5 179,-91.5 179,0 316.75,0 316.75,-91.5"/>
<text xml:space="preserve" text-anchor="start" x="183" y="-78" font-family="Helvetica,sans-Serif" font-size="10.00">juce::universal_midi</text>
<text xml:space="preserve" text-anchor="start" x="183" y="-66.75" font-family="Helvetica,sans-Serif" font-size="10.00">_packets::U32ToUMPHandler</text>
<text xml:space="preserve" text-anchor="start" x="246.38" y="-51.5" font-family="Helvetica,sans-Serif" font-size="10.00"> </text>
<text xml:space="preserve" text-anchor="start" x="190.06" y="-36.25" font-family="Helvetica,sans-Serif" font-size="10.00">+</text>
<text xml:space="preserve" text-anchor="start" x="207.12" y="-36.25" font-family="Helvetica,sans-Serif" font-size="10.00">U32ToUMPHandler()</text>
<text xml:space="preserve" text-anchor="start" x="190.06" y="-21" font-family="Helvetica,sans-Serif" font-size="10.00">+</text>
<text xml:space="preserve" text-anchor="start" x="207.12" y="-21" font-family="Helvetica,sans-Serif" font-size="10.00">reset()</text>
<text xml:space="preserve" text-anchor="start" x="190.06" y="-5.75" font-family="Helvetica,sans-Serif" font-size="10.00">+</text>
<text xml:space="preserve" text-anchor="start" x="207.12" y="-5.75" font-family="Helvetica,sans-Serif" font-size="10.00">pushMidiData()</text>
<polygon fill="#666666" stroke="#666666" points="179,-63 179,-63 316.75,-63 316.75,-63 179,-63"/>
<polygon fill="#666666" stroke="#666666" points="179,-47.75 179,-47.75 316.75,-47.75 316.75,-47.75 179,-47.75"/>
<polygon fill="none" stroke="#666666" points="179,0 179,-91.5 316.75,-91.5 316.75,0 179,0"/>
</a>
</g>
</g>
<!-- Node2 -->
<g id="Node000002" class="node">
<title>Node2</title>
<g id="a_Node000002"><a xlink:href="structjuce_1_1universal__midi__packets_1_1U32InputHandler.html" target="_top" xlink:title=" ">
<polygon fill="white" stroke="none" points="125.75,-266.75 0,-266.75 0,-175.25 125.75,-175.25 125.75,-266.75"/>
<text xml:space="preserve" text-anchor="start" x="4" y="-253.25" font-family="Helvetica,sans-Serif" font-size="10.00">juce::universal_midi</text>
<text xml:space="preserve" text-anchor="start" x="4" y="-242" font-family="Helvetica,sans-Serif" font-size="10.00">_packets::U32InputHandler</text>
<text xml:space="preserve" text-anchor="start" x="61.38" y="-226.75" font-family="Helvetica,sans-Serif" font-size="10.00"> </text>
<text xml:space="preserve" text-anchor="start" x="9.75" y="-211.5" font-family="Helvetica,sans-Serif" font-size="10.00">+</text>
<text xml:space="preserve" text-anchor="start" x="25.5" y="-211.5" font-family="Helvetica,sans-Serif" font-size="10.00">~U32InputHandler()</text>
<text xml:space="preserve" text-anchor="start" x="9.75" y="-196.25" font-family="Helvetica,sans-Serif" font-size="10.00">+</text>
<text xml:space="preserve" text-anchor="start" x="25.5" y="-196.25" font-family="Helvetica,sans-Serif" font-size="10.00">reset()</text>
<text xml:space="preserve" text-anchor="start" x="9.75" y="-181" font-family="Helvetica,sans-Serif" font-size="10.00">+</text>
<text xml:space="preserve" text-anchor="start" x="25.5" y="-181" font-family="Helvetica,sans-Serif" font-size="10.00">pushMidiData()</text>
<polygon fill="#666666" stroke="#666666" points="0,-238.25 0,-238.25 125.75,-238.25 125.75,-238.25 0,-238.25"/>
<polygon fill="#666666" stroke="#666666" points="0,-223 0,-223 125.75,-223 125.75,-223 0,-223"/>
<polygon fill="none" stroke="#666666" points="0,-175.25 0,-266.75 125.75,-266.75 125.75,-175.25 0,-175.25"/>
</a>
</g>
</g>
<!-- Node2&#45;&gt;Node1 -->
<g id="edge1_Node000001_Node000002" class="edge">
<title>Node2&#45;&gt;Node1</title>
<g id="a_edge1_Node000001_Node000002"><a xlink:title=" ">
<path fill="none" stroke="#63b8ff" d="M111.64,-167.77C119.3,-159.93 127.22,-152.04 134.88,-144.75 153.77,-126.75 175.25,-107.78 194.37,-91.38"/>
<polygon fill="none" stroke="#63b8ff" points="109.59,-164.85 105.14,-174.47 114.61,-169.73 109.59,-164.85"/>
</a>
</g>
</g>
<!-- Node3 -->
<g id="Node000003" class="node">
<title>Node3</title>
<g id="a_Node000003"><a xlink:href="structjuce_1_1universal__midi__packets_1_1Receiver.html" target="_top" xlink:title=" ">
<polygon fill="white" stroke="none" points="237.75,-259.12 144,-259.12 144,-182.88 237.75,-182.88 237.75,-259.12"/>
<text xml:space="preserve" text-anchor="start" x="148.5" y="-245.62" font-family="Helvetica,sans-Serif" font-size="10.00">juce::universal_midi</text>
<text xml:space="preserve" text-anchor="start" x="149.62" y="-234.38" font-family="Helvetica,sans-Serif" font-size="10.00">_packets::Receiver</text>
<text xml:space="preserve" text-anchor="start" x="189.38" y="-219.12" font-family="Helvetica,sans-Serif" font-size="10.00"> </text>
<text xml:space="preserve" text-anchor="start" x="148" y="-203.88" font-family="Helvetica,sans-Serif" font-size="10.00">+</text>
<text xml:space="preserve" text-anchor="start" x="158" y="-203.88" font-family="Helvetica,sans-Serif" font-size="10.00">~Receiver()</text>
<text xml:space="preserve" text-anchor="start" x="148" y="-188.62" font-family="Helvetica,sans-Serif" font-size="10.00">+</text>
<text xml:space="preserve" text-anchor="start" x="158" y="-188.62" font-family="Helvetica,sans-Serif" font-size="10.00">packetReceived()</text>
<polygon fill="#666666" stroke="#666666" points="144,-230.62 144,-230.62 237.75,-230.62 237.75,-230.62 144,-230.62"/>
<polygon fill="#666666" stroke="#666666" points="144,-215.38 144,-215.38 237.75,-215.38 237.75,-215.38 144,-215.38"/>
<polygon fill="none" stroke="#666666" points="144,-182.88 144,-259.12 237.75,-259.12 237.75,-182.88 144,-182.88"/>
</a>
</g>
</g>
<!-- Node3&#45;&gt;Node1 -->
<g id="edge2_Node000001_Node000003" class="edge">
<title>Node3&#45;&gt;Node1</title>
<g id="a_edge2_Node000001_Node000003"><a xlink:title=" ">
<path fill="none" stroke="#63b8ff" d="M202.96,-183.26C210.58,-160.11 220.57,-129.74 229.19,-103.53"/>
<polygon fill="none" stroke="#63b8ff" points="229.14,-103.69 227.22,-96.74 232.89,-92.29 234.82,-99.24 229.14,-103.69"/>
</a>
</g>
<text xml:space="preserve" text-anchor="start" x="229.16" y="-114.25" font-family="Helvetica,sans-Serif" font-size="10.00" fill="grey">+recipient</text>
</g>
<!-- Node4 -->
<g id="Node000004" class="node">
<title>Node4</title>
<g id="a_Node000004"><a xlink:href="classjuce_1_1universal__midi__packets_1_1Dispatcher.html" target="_top" xlink:title=" ">
<polygon fill="white" stroke="none" points="354.25,-266.75 255.5,-266.75 255.5,-175.25 354.25,-175.25 354.25,-266.75"/>
<text xml:space="preserve" text-anchor="start" x="259.5" y="-253.25" font-family="Helvetica,sans-Serif" font-size="10.00">juce::universal_midi</text>
<text xml:space="preserve" text-anchor="start" x="259.5" y="-242" font-family="Helvetica,sans-Serif" font-size="10.00">_packets::Dispatcher</text>
<text xml:space="preserve" text-anchor="start" x="261.88" y="-226.75" font-family="Helvetica,sans-Serif" font-size="10.00">&#45;</text>
<text xml:space="preserve" text-anchor="start" x="271.25" y="-226.75" font-family="Helvetica,sans-Serif" font-size="10.00">nextPacket</text>
<text xml:space="preserve" text-anchor="start" x="261.88" y="-211.5" font-family="Helvetica,sans-Serif" font-size="10.00">&#45;</text>
<text xml:space="preserve" text-anchor="start" x="271.25" y="-211.5" font-family="Helvetica,sans-Serif" font-size="10.00">currentPacketLen</text>
<text xml:space="preserve" text-anchor="start" x="260.38" y="-196.25" font-family="Helvetica,sans-Serif" font-size="10.00">+</text>
<text xml:space="preserve" text-anchor="start" x="271.25" y="-196.25" font-family="Helvetica,sans-Serif" font-size="10.00">reset()</text>
<text xml:space="preserve" text-anchor="start" x="260.38" y="-181" font-family="Helvetica,sans-Serif" font-size="10.00">+</text>
<text xml:space="preserve" text-anchor="start" x="271.25" y="-181" font-family="Helvetica,sans-Serif" font-size="10.00">dispatch()</text>
<polygon fill="#666666" stroke="#666666" points="255.5,-238.25 255.5,-238.25 354.25,-238.25 354.25,-238.25 255.5,-238.25"/>
<polygon fill="#666666" stroke="#666666" points="255.5,-207.75 255.5,-207.75 269.25,-207.75 269.25,-207.75 255.5,-207.75"/>
<polygon fill="#666666" stroke="#666666" points="269.25,-207.75 269.25,-207.75 354.25,-207.75 354.25,-207.75 269.25,-207.75"/>
<polygon fill="none" stroke="#666666" points="255.5,-175.25 255.5,-266.75 354.25,-266.75 354.25,-175.25 255.5,-175.25"/>
</a>
</g>
</g>
<!-- Node4&#45;&gt;Node1 -->
<g id="edge3_Node000001_Node000004" class="edge">
<title>Node4&#45;&gt;Node1</title>
<g id="a_edge3_Node000001_Node000004"><a xlink:title=" ">
<path fill="none" stroke="#63b8ff" d="M296.82,-175.51C292.51,-155.08 286.51,-130.74 278.88,-109.5 278.14,-107.46 277.36,-105.39 276.54,-103.32"/>
<polygon fill="none" stroke="#63b8ff" points="276.54,-103.33 270.51,-99.37 271.84,-92.29 277.87,-96.24 276.54,-103.33"/>
</a>
</g>
<text xml:space="preserve" text-anchor="start" x="286.75" y="-114.25" font-family="Helvetica,sans-Serif" font-size="10.00" fill="grey">+dispatcher</text>
</g>
<!-- Node5 -->
<g id="Node000005" class="node">
<title>Node5</title>
<g id="a_Node000005"><a xlink:href="classjuce_1_1universal__midi__packets_1_1GenericUMPConverter.html" target="_top" xlink:title=" ">
<polygon fill="white" stroke="none" points="523.12,-297.25 372.62,-297.25 372.62,-144.75 523.12,-144.75 523.12,-297.25"/>
<text xml:space="preserve" text-anchor="start" x="376.62" y="-283.75" font-family="Helvetica,sans-Serif" font-size="10.00">juce::universal_midi</text>
<text xml:space="preserve" text-anchor="start" x="376.62" y="-272.5" font-family="Helvetica,sans-Serif" font-size="10.00">_packets::GenericUMPConverter</text>
<text xml:space="preserve" text-anchor="start" x="385.19" y="-257.25" font-family="Helvetica,sans-Serif" font-size="10.00">&#45;</text>
<text xml:space="preserve" text-anchor="start" x="400.75" y="-257.25" font-family="Helvetica,sans-Serif" font-size="10.00">converters</text>
<text xml:space="preserve" text-anchor="start" x="385.19" y="-242" font-family="Helvetica,sans-Serif" font-size="10.00">&#45;</text>
<text xml:space="preserve" text-anchor="start" x="400.75" y="-242" font-family="Helvetica,sans-Serif" font-size="10.00">mode</text>
<text xml:space="preserve" text-anchor="start" x="383.69" y="-226.75" font-family="Helvetica,sans-Serif" font-size="10.00">+</text>
<text xml:space="preserve" text-anchor="start" x="400.75" y="-226.75" font-family="Helvetica,sans-Serif" font-size="10.00">GenericUMPConverter()</text>
<text xml:space="preserve" text-anchor="start" x="383.69" y="-211.5" font-family="Helvetica,sans-Serif" font-size="10.00">+</text>
<text xml:space="preserve" text-anchor="start" x="400.75" y="-211.5" font-family="Helvetica,sans-Serif" font-size="10.00">reset()</text>
<text xml:space="preserve" text-anchor="start" x="383.69" y="-196.25" font-family="Helvetica,sans-Serif" font-size="10.00">+</text>
<text xml:space="preserve" text-anchor="start" x="400.75" y="-196.25" font-family="Helvetica,sans-Serif" font-size="10.00">convert()</text>
<text xml:space="preserve" text-anchor="start" x="383.69" y="-181" font-family="Helvetica,sans-Serif" font-size="10.00">+</text>
<text xml:space="preserve" text-anchor="start" x="400.75" y="-181" font-family="Helvetica,sans-Serif" font-size="10.00">convert()</text>
<text xml:space="preserve" text-anchor="start" x="383.69" y="-165.75" font-family="Helvetica,sans-Serif" font-size="10.00">+</text>
<text xml:space="preserve" text-anchor="start" x="400.75" y="-165.75" font-family="Helvetica,sans-Serif" font-size="10.00">convert()</text>
<text xml:space="preserve" text-anchor="start" x="383.69" y="-150.5" font-family="Helvetica,sans-Serif" font-size="10.00">+</text>
<text xml:space="preserve" text-anchor="start" x="400.75" y="-150.5" font-family="Helvetica,sans-Serif" font-size="10.00">getProtocol()</text>
<polygon fill="#666666" stroke="#666666" points="372.62,-268.75 372.62,-268.75 523.12,-268.75 523.12,-268.75 372.62,-268.75"/>
<polygon fill="#666666" stroke="#666666" points="372.62,-238.25 372.62,-238.25 398.75,-238.25 398.75,-238.25 372.62,-238.25"/>
<polygon fill="#666666" stroke="#666666" points="398.75,-238.25 398.75,-238.25 523.12,-238.25 523.12,-238.25 398.75,-238.25"/>
<polygon fill="none" stroke="#666666" points="372.62,-144.75 372.62,-297.25 523.12,-297.25 523.12,-144.75 372.62,-144.75"/>
</a>
</g>
</g>
<!-- Node5&#45;&gt;Node1 -->
<g id="edge4_Node000001_Node000005" class="edge">
<title>Node5&#45;&gt;Node1</title>
<g id="a_edge4_Node000001_Node000005"><a xlink:title=" ">
<path fill="none" stroke="#63b8ff" d="M382.68,-144.95C370.61,-132.57 357.74,-120.28 344.88,-109.5 339.26,-104.8 333.27,-100.16 327.14,-95.66"/>
<polygon fill="none" stroke="#63b8ff" points="327.22,-95.72 320.01,-95.5 317.44,-88.77 324.65,-88.98 327.22,-95.72"/>
</a>
</g>
<text xml:space="preserve" text-anchor="start" x="366.32" y="-114.25" font-family="Helvetica,sans-Serif" font-size="10.00" fill="grey">+converter</text>
</g>
</g>
</svg>
