<?xml version="1.0" encoding="UTF-8" standalone="no"?>
<!DOCTYPE svg PUBLIC "-//W3C//DTD SVG 1.1//EN"
 "http://www.w3.org/Graphics/SVG/1.1/DTD/svg11.dtd">
<!-- Generated by graphviz version 14.0.2 (0)
 -->
<!-- Title: exprtk::details::mod_op&lt; T &gt; Pages: 1 -->
<svg width="99pt" height="201pt"
 viewBox="0.00 0.00 99.00 201.00" xmlns="http://www.w3.org/2000/svg" xmlns:xlink="http://www.w3.org/1999/xlink">
<g id="graph0" class="graph" transform="scale(1 1) rotate(0) translate(4 196.5)">
<title>exprtk::details::mod_op&lt; T &gt;</title>
<!-- Node1 -->
<g id="Node000001" class="node">
<title>Node1</title>
<g id="a_Node000001"><a xlink:title=" ">
<polygon fill="#999999" stroke="none" points="90.5,-106.75 0,-106.75 0,0 90.5,0 90.5,-106.75"/>
<text xml:space="preserve" text-anchor="start" x="4" y="-93.25" font-family="Helvetica,sans-Serif" font-size="10.00">exprtk::details::mod</text>
<text xml:space="preserve" text-anchor="start" x="26.12" y="-82" font-family="Helvetica,sans-Serif" font-size="10.00">_op&lt; T &gt;</text>
<text xml:space="preserve" text-anchor="start" x="43.75" y="-66.75" font-family="Helvetica,sans-Serif" font-size="10.00"> </text>
<text xml:space="preserve" text-anchor="start" x="10.69" y="-51.5" font-family="Helvetica,sans-Serif" font-size="10.00">+</text>
<text xml:space="preserve" text-anchor="start" x="27.38" y="-51.5" font-family="Helvetica,sans-Serif" font-size="10.00">process()</text>
<text xml:space="preserve" text-anchor="start" x="10.69" y="-36.25" font-family="Helvetica,sans-Serif" font-size="10.00">+</text>
<text xml:space="preserve" text-anchor="start" x="27.38" y="-36.25" font-family="Helvetica,sans-Serif" font-size="10.00">assign()</text>
<text xml:space="preserve" text-anchor="start" x="10.69" y="-21" font-family="Helvetica,sans-Serif" font-size="10.00">+</text>
<text xml:space="preserve" text-anchor="start" x="27.38" y="-21" font-family="Helvetica,sans-Serif" font-size="10.00">type()</text>
<text xml:space="preserve" text-anchor="start" x="10.69" y="-5.75" font-family="Helvetica,sans-Serif" font-size="10.00">+</text>
<text xml:space="preserve" text-anchor="start" x="27.38" y="-5.75" font-family="Helvetica,sans-Serif" font-size="10.00">operation()</text>
<polygon fill="#666666" stroke="#666666" points="0,-78.25 0,-78.25 90.5,-78.25 90.5,-78.25 0,-78.25"/>
<polygon fill="#666666" stroke="#666666" points="0,-63 0,-63 90.5,-63 90.5,-63 0,-63"/>
<polygon fill="none" stroke="#666666" points="0,0 0,-106.75 90.5,-106.75 90.5,0 0,0"/>
</a>
</g>
</g>
<!-- Node2 -->
<g id="Node000002" class="node">
<title>Node2</title>
<g id="a_Node000002"><a xlink:title=" ">
<polygon fill="white" stroke="none" points="80.38,-192.5 10.12,-192.5 10.12,-142.75 80.38,-142.75 80.38,-192.5"/>
<text xml:space="preserve" text-anchor="start" x="14.12" y="-179" font-family="Helvetica,sans-Serif" font-size="10.00">opr_base&lt; T &gt;</text>
<text xml:space="preserve" text-anchor="start" x="43.75" y="-163.75" font-family="Helvetica,sans-Serif" font-size="10.00"> </text>
<text xml:space="preserve" text-anchor="start" x="43.75" y="-148.5" font-family="Helvetica,sans-Serif" font-size="10.00"> </text>
<polygon fill="#666666" stroke="#666666" points="10.12,-175.25 10.12,-175.25 80.38,-175.25 80.38,-175.25 10.12,-175.25"/>
<polygon fill="#666666" stroke="#666666" points="10.12,-160 10.12,-160 80.38,-160 80.38,-160 10.12,-160"/>
<polygon fill="none" stroke="#666666" points="10.12,-142.75 10.12,-192.5 80.38,-192.5 80.38,-142.75 10.12,-142.75"/>
</a>
</g>
</g>
<!-- Node2&#45;&gt;Node1 -->
<g id="edge1_Node000001_Node000002" class="edge">
<title>Node2&#45;&gt;Node1</title>
<g id="a_edge1_Node000001_Node000002"><a xlink:title=" ">
<path fill="none" stroke="#63b8ff" d="M45.25,-131.35C45.25,-123.4 45.25,-114.8 45.25,-106.32"/>
<polygon fill="none" stroke="#63b8ff" points="41.75,-131.31 45.25,-141.31 48.75,-131.31 41.75,-131.31"/>
</a>
</g>
</g>
</g>
</svg>
