<?xml version="1.0" encoding="UTF-8" standalone="no"?>
<!DOCTYPE svg PUBLIC "-//W3C//DTD SVG 1.1//EN"
 "http://www.w3.org/Graphics/SVG/1.1/DTD/svg11.dtd">
<!-- Generated by graphviz version 14.0.2 (0)
 -->
<!-- Title: NativePlugin::FixedVstEvents Pages: 1 -->
<svg width="202pt" height="344pt"
 viewBox="0.00 0.00 202.00 344.00" xmlns="http://www.w3.org/2000/svg" xmlns:xlink="http://www.w3.org/1999/xlink">

<svg id="main" version="1.1" xmlns="http://www.w3.org/2000/svg" xmlns:xlink="http://www.w3.org/1999/xlink" xml:space="preserve">

<style type="text/css"><![CDATA[
.node, .edge {opacity: 0.7;}
.node.selected, .edge.selected {opacity: 1;}
.edge:hover path { stroke: red; }
.edge:hover polygon { stroke: red; fill: red; }
]]></style>
<script type="application/ecmascript" xlink:href="svg.min.js"/>
<svg id="graph" class="graph">
<g id="graph0" class="graph" transform="scale(1 1) rotate(0) translate(4 339.75)">
<title>NativePlugin::FixedVstEvents</title>
<!-- Node1 -->
<g id="Node000001" class="node">
<title>Node1</title>
<g id="a_Node000001"><a xlink:title=" ">
<polygon fill="#999999" stroke="none" points="193.5,-80.25 0,-80.25 0,0 193.5,0 193.5,-80.25"/>
<text xml:space="preserve" text-anchor="start" x="32.62" y="-66.75" font-family="Helvetica,sans-Serif" font-size="10.00">NativePlugin::FixedVstEvents</text>
<text xml:space="preserve" text-anchor="start" x="4" y="-51.5" font-family="Helvetica,sans-Serif" font-size="10.00">+</text>
<text xml:space="preserve" text-anchor="start" x="14" y="-51.5" font-family="Helvetica,sans-Serif" font-size="10.00">numEvents</text>
<text xml:space="preserve" text-anchor="start" x="4" y="-36.25" font-family="Helvetica,sans-Serif" font-size="10.00">+</text>
<text xml:space="preserve" text-anchor="start" x="14" y="-36.25" font-family="Helvetica,sans-Serif" font-size="10.00">reserved</text>
<text xml:space="preserve" text-anchor="start" x="4" y="-21" font-family="Helvetica,sans-Serif" font-size="10.00">+</text>
<text xml:space="preserve" text-anchor="start" x="14" y="-21" font-family="Helvetica,sans-Serif" font-size="10.00">FixedVstEvents()</text>
<text xml:space="preserve" text-anchor="start" x="4" y="-5.75" font-family="Helvetica,sans-Serif" font-size="10.00">+</text>
<text xml:space="preserve" text-anchor="start" x="14" y="-5.75" font-family="Helvetica,sans-Serif" font-size="10.00">CARLA_DECLARE_NON_COPYABLE()</text>
<polygon fill="#666666" stroke="#666666" points="0,-63 0,-63 193.5,-63 193.5,-63 0,-63"/>
<polygon fill="#666666" stroke="#666666" points="0,-32.5 0,-32.5 12,-32.5 12,-32.5 0,-32.5"/>
<polygon fill="#666666" stroke="#666666" points="12,-32.5 12,-32.5 193.5,-32.5 193.5,-32.5 12,-32.5"/>
<polygon fill="none" stroke="#666666" points="0,0 0,-80.25 193.5,-80.25 193.5,0 0,0"/>
</a>
</g>
</g>
<!-- Node2 -->
<g id="Node000002" class="node">
<title>Node2</title>
<g id="a_Node000002"><a xlink:href="classVstEvent.html" target="_top" xlink:title=" ">
<polygon fill="white" stroke="none" points="85.62,-297.62 9.88,-297.62 9.88,-171.62 85.62,-171.62 85.62,-297.62"/>
<text xml:space="preserve" text-anchor="start" x="27.88" y="-284.12" font-family="Helvetica,sans-Serif" font-size="10.00">VstEvent</text>
<text xml:space="preserve" text-anchor="start" x="13.88" y="-268.88" font-family="Helvetica,sans-Serif" font-size="10.00">+</text>
<text xml:space="preserve" text-anchor="start" x="23.88" y="-268.88" font-family="Helvetica,sans-Serif" font-size="10.00">type</text>
<text xml:space="preserve" text-anchor="start" x="13.88" y="-253.62" font-family="Helvetica,sans-Serif" font-size="10.00">+</text>
<text xml:space="preserve" text-anchor="start" x="23.88" y="-253.62" font-family="Helvetica,sans-Serif" font-size="10.00">size</text>
<text xml:space="preserve" text-anchor="start" x="13.88" y="-238.38" font-family="Helvetica,sans-Serif" font-size="10.00">+</text>
<text xml:space="preserve" text-anchor="start" x="23.88" y="-238.38" font-family="Helvetica,sans-Serif" font-size="10.00">sampleOffset</text>
<text xml:space="preserve" text-anchor="start" x="13.88" y="-223.12" font-family="Helvetica,sans-Serif" font-size="10.00">+</text>
<text xml:space="preserve" text-anchor="start" x="23.88" y="-223.12" font-family="Helvetica,sans-Serif" font-size="10.00">flags</text>
<text xml:space="preserve" text-anchor="start" x="13.88" y="-207.88" font-family="Helvetica,sans-Serif" font-size="10.00">+</text>
<text xml:space="preserve" text-anchor="start" x="23.88" y="-207.88" font-family="Helvetica,sans-Serif" font-size="10.00">content</text>
<text xml:space="preserve" text-anchor="start" x="15.38" y="-192.62" font-family="Helvetica,sans-Serif" font-size="10.00">&#45;</text>
<text xml:space="preserve" text-anchor="start" x="23.88" y="-192.62" font-family="Helvetica,sans-Serif" font-size="10.00">dump</text>
<text xml:space="preserve" text-anchor="start" x="46.25" y="-177.38" font-family="Helvetica,sans-Serif" font-size="10.00"> </text>
<polygon fill="#666666" stroke="#666666" points="9.88,-280.38 9.88,-280.38 85.62,-280.38 85.62,-280.38 9.88,-280.38"/>
<polygon fill="#666666" stroke="#666666" points="9.88,-188.88 9.88,-188.88 21.88,-188.88 21.88,-188.88 9.88,-188.88"/>
<polygon fill="#666666" stroke="#666666" points="21.88,-188.88 21.88,-188.88 85.62,-188.88 85.62,-188.88 21.88,-188.88"/>
<polygon fill="none" stroke="#666666" points="9.88,-171.62 9.88,-297.62 85.62,-297.62 85.62,-171.62 9.88,-171.62"/>
</a>
</g>
</g>
<!-- Node2&#45;&gt;Node1 -->
<g id="edge1_Node000001_Node000002" class="edge">
<title>Node2&#45;&gt;Node1</title>
<g id="a_edge1_Node000001_Node000002"><a xlink:title=" ">
<path fill="none" stroke="#63b8ff" d="M63.52,-171.66C70.02,-146.13 77.46,-116.9 83.65,-92.58"/>
<polygon fill="none" stroke="#63b8ff" points="83.67,-92.5 81.28,-85.7 86.63,-80.87 89.03,-87.67 83.67,-92.5"/>
</a>
</g>
<text xml:space="preserve" text-anchor="start" x="83.9" y="-103" font-family="Helvetica,sans-Serif" font-size="10.00" fill="grey">+data</text>
</g>
<!-- Node3 -->
<g id="Node000003" class="node">
<title>Node3</title>
<g id="a_Node000003"><a xlink:href="struct__VstMidiEvent.html" target="_top" xlink:title=" ">
<polygon fill="white" stroke="none" points="187.75,-335.75 103.75,-335.75 103.75,-133.5 187.75,-133.5 187.75,-335.75"/>
<text xml:space="preserve" text-anchor="start" x="114.25" y="-322.25" font-family="Helvetica,sans-Serif" font-size="10.00">_VstMidiEvent</text>
<text xml:space="preserve" text-anchor="start" x="107.75" y="-307" font-family="Helvetica,sans-Serif" font-size="10.00">+</text>
<text xml:space="preserve" text-anchor="start" x="117.75" y="-307" font-family="Helvetica,sans-Serif" font-size="10.00">type</text>
<text xml:space="preserve" text-anchor="start" x="107.75" y="-291.75" font-family="Helvetica,sans-Serif" font-size="10.00">+</text>
<text xml:space="preserve" text-anchor="start" x="117.75" y="-291.75" font-family="Helvetica,sans-Serif" font-size="10.00">byteSize</text>
<text xml:space="preserve" text-anchor="start" x="107.75" y="-276.5" font-family="Helvetica,sans-Serif" font-size="10.00">+</text>
<text xml:space="preserve" text-anchor="start" x="117.75" y="-276.5" font-family="Helvetica,sans-Serif" font-size="10.00">deltaFrames</text>
<text xml:space="preserve" text-anchor="start" x="107.75" y="-261.25" font-family="Helvetica,sans-Serif" font-size="10.00">+</text>
<text xml:space="preserve" text-anchor="start" x="117.75" y="-261.25" font-family="Helvetica,sans-Serif" font-size="10.00">flags</text>
<text xml:space="preserve" text-anchor="start" x="107.75" y="-246" font-family="Helvetica,sans-Serif" font-size="10.00">+</text>
<text xml:space="preserve" text-anchor="start" x="117.75" y="-246" font-family="Helvetica,sans-Serif" font-size="10.00">noteLength</text>
<text xml:space="preserve" text-anchor="start" x="107.75" y="-230.75" font-family="Helvetica,sans-Serif" font-size="10.00">+</text>
<text xml:space="preserve" text-anchor="start" x="117.75" y="-230.75" font-family="Helvetica,sans-Serif" font-size="10.00">noteOffset</text>
<text xml:space="preserve" text-anchor="start" x="107.75" y="-215.5" font-family="Helvetica,sans-Serif" font-size="10.00">+</text>
<text xml:space="preserve" text-anchor="start" x="117.75" y="-215.5" font-family="Helvetica,sans-Serif" font-size="10.00">midiData</text>
<text xml:space="preserve" text-anchor="start" x="107.75" y="-200.25" font-family="Helvetica,sans-Serif" font-size="10.00">+</text>
<text xml:space="preserve" text-anchor="start" x="117.75" y="-200.25" font-family="Helvetica,sans-Serif" font-size="10.00">detune</text>
<text xml:space="preserve" text-anchor="start" x="107.75" y="-185" font-family="Helvetica,sans-Serif" font-size="10.00">+</text>
<text xml:space="preserve" text-anchor="start" x="117.75" y="-185" font-family="Helvetica,sans-Serif" font-size="10.00">noteOffVelocity</text>
<text xml:space="preserve" text-anchor="start" x="107.75" y="-169.75" font-family="Helvetica,sans-Serif" font-size="10.00">+</text>
<text xml:space="preserve" text-anchor="start" x="117.75" y="-169.75" font-family="Helvetica,sans-Serif" font-size="10.00">reserved1</text>
<text xml:space="preserve" text-anchor="start" x="107.75" y="-154.5" font-family="Helvetica,sans-Serif" font-size="10.00">+</text>
<text xml:space="preserve" text-anchor="start" x="117.75" y="-154.5" font-family="Helvetica,sans-Serif" font-size="10.00">reserved2</text>
<text xml:space="preserve" text-anchor="start" x="144.25" y="-139.25" font-family="Helvetica,sans-Serif" font-size="10.00"> </text>
<polygon fill="#666666" stroke="#666666" points="103.75,-318.5 103.75,-318.5 187.75,-318.5 187.75,-318.5 103.75,-318.5"/>
<polygon fill="#666666" stroke="#666666" points="103.75,-150.75 103.75,-150.75 115.75,-150.75 115.75,-150.75 103.75,-150.75"/>
<polygon fill="#666666" stroke="#666666" points="115.75,-150.75 115.75,-150.75 187.75,-150.75 187.75,-150.75 115.75,-150.75"/>
<polygon fill="none" stroke="#666666" points="103.75,-133.5 103.75,-335.75 187.75,-335.75 187.75,-133.5 103.75,-133.5"/>
</a>
</g>
</g>
<!-- Node3&#45;&gt;Node1 -->
<g id="edge2_Node000001_Node000003" class="edge">
<title>Node3&#45;&gt;Node1</title>
<g id="a_edge2_Node000001_Node000003"><a xlink:title=" ">
<path fill="none" stroke="#63b8ff" d="M124.79,-133.53C121.93,-121.6 118.89,-109.62 115.75,-98.25 115.21,-96.3 114.65,-94.32 114.06,-92.32"/>
<polygon fill="none" stroke="#63b8ff" points="114.06,-92.32 108.47,-87.76 110.53,-80.85 116.12,-85.41 114.06,-92.32"/>
</a>
</g>
<text xml:space="preserve" text-anchor="start" x="122.63" y="-103" font-family="Helvetica,sans-Serif" font-size="10.00" fill="grey">+mdata</text>
</g>
</g>
</svg>
</svg>

<style type='text/css'>
<![CDATA[
[data-mouse-over-selected='false'] { opacity: 0.7; }
[data-mouse-over-selected='true']  { opacity: 1.0; }
]]>
</style>
<script type="application/ecmascript"><![CDATA[
document.addEventListener('DOMContentLoaded', (event) => {
  highlightEdges();
  highlightAdjacentNodes();
});
]]></script>
</svg>
