<?xml version="1.0" encoding="UTF-8" standalone="no"?>
<!DOCTYPE svg PUBLIC "-//W3C//DTD SVG 1.1//EN"
 "http://www.w3.org/Graphics/SVG/1.1/DTD/svg11.dtd">
<!-- Generated by graphviz version 14.0.2 (0)
 -->
<!-- Title: ableton::link::PingResponder::Impl::Impl Pages: 1 -->
<svg width="493pt" height="88pt"
 viewBox="0.00 0.00 493.00 88.00" xmlns="http://www.w3.org/2000/svg" xmlns:xlink="http://www.w3.org/1999/xlink">
<g id="graph0" class="graph" transform="scale(1 1) rotate(0) translate(4 83.5)">
<title>ableton::link::PingResponder::Impl::Impl</title>
<!-- Node1 -->
<g id="Node000001" class="node">
<title>Node1</title>
<g id="a_Node000001"><a xlink:title=" ">
<polygon fill="#999999" stroke="#666666" points="137.5,-54.5 0,-54.5 0,-24 137.5,-24 137.5,-54.5"/>
<text xml:space="preserve" text-anchor="start" x="8" y="-41" font-family="Helvetica,sans-Serif" font-size="10.00">ableton::link::PingResponder</text>
<text xml:space="preserve" text-anchor="middle" x="68.75" y="-29.75" font-family="Helvetica,sans-Serif" font-size="10.00">::Impl::Impl</text>
</a>
</g>
</g>
<!-- Node2 -->
<g id="Node000002" class="node">
<title>Node2</title>
<g id="a_Node000002"><a xlink:href="classableton_1_1link_1_1PingResponder.html#a74b9e07d9fb17f2509c28b0c611eaa23" target="_top" xlink:title=" ">
<polygon fill="white" stroke="#666666" points="311,-54.5 173.5,-54.5 173.5,-24 311,-24 311,-54.5"/>
<text xml:space="preserve" text-anchor="start" x="181.5" y="-41" font-family="Helvetica,sans-Serif" font-size="10.00">ableton::link::PingResponder</text>
<text xml:space="preserve" text-anchor="middle" x="242.25" y="-29.75" font-family="Helvetica,sans-Serif" font-size="10.00">::address</text>
</a>
</g>
</g>
<!-- Node1&#45;&gt;Node2 -->
<g id="edge1_Node000001_Node000002" class="edge">
<title>Node1&#45;&gt;Node2</title>
<g id="a_edge1_Node000001_Node000002"><a xlink:title=" ">
<path fill="none" stroke="#63b8ff" d="M137.53,-39.25C145.49,-39.25 153.66,-39.25 161.75,-39.25"/>
<polygon fill="#63b8ff" stroke="#63b8ff" points="161.6,-42.75 171.6,-39.25 161.6,-35.75 161.6,-42.75"/>
</a>
</g>
</g>
<!-- Node3 -->
<g id="Node000003" class="node">
<title>Node3</title>
<g id="a_Node000003"><a xlink:href="classasio_1_1ip_1_1basic__endpoint.html#ad6804faf5237bf86529512f0d24483cb" target="_top" xlink:title="Get the IP address associated with the endpoint.">
<polygon fill="white" stroke="#666666" points="473.62,-79.5 357.88,-79.5 357.88,-49 473.62,-49 473.62,-79.5"/>
<text xml:space="preserve" text-anchor="start" x="365.88" y="-66" font-family="Helvetica,sans-Serif" font-size="10.00">asio::ip::basic_endpoint</text>
<text xml:space="preserve" text-anchor="middle" x="415.75" y="-54.75" font-family="Helvetica,sans-Serif" font-size="10.00">::address</text>
</a>
</g>
</g>
<!-- Node2&#45;&gt;Node3 -->
<g id="edge2_Node000002_Node000003" class="edge">
<title>Node2&#45;&gt;Node3</title>
<g id="a_edge2_Node000002_Node000003"><a xlink:title=" ">
<path fill="none" stroke="#63b8ff" d="M311.03,-49.13C322.55,-50.81 334.52,-52.55 346.06,-54.24"/>
<polygon fill="#63b8ff" stroke="#63b8ff" points="345.52,-57.7 355.92,-55.67 346.53,-50.77 345.52,-57.7"/>
</a>
</g>
</g>
<!-- Node4 -->
<g id="Node000004" class="node">
<title>Node4</title>
<g id="a_Node000004"><a xlink:href="classableton_1_1link_1_1PingResponder.html#a23624b62c7bac7d8fb903903913a5d68" target="_top" xlink:title=" ">
<polygon fill="white" stroke="#666666" points="484.5,-30.5 347,-30.5 347,0 484.5,0 484.5,-30.5"/>
<text xml:space="preserve" text-anchor="start" x="355" y="-17" font-family="Helvetica,sans-Serif" font-size="10.00">ableton::link::PingResponder</text>
<text xml:space="preserve" text-anchor="middle" x="415.75" y="-5.75" font-family="Helvetica,sans-Serif" font-size="10.00">::endpoint</text>
</a>
</g>
</g>
<!-- Node2&#45;&gt;Node4 -->
<g id="edge3_Node000002_Node000004" class="edge">
<title>Node2&#45;&gt;Node4</title>
<g id="a_edge3_Node000002_Node000004"><a xlink:title=" ">
<path fill="none" stroke="#63b8ff" d="M311.03,-29.76C318.99,-28.65 327.16,-27.51 335.25,-26.37"/>
<polygon fill="#63b8ff" stroke="#63b8ff" points="335.7,-29.85 345.12,-24.99 334.73,-22.91 335.7,-29.85"/>
</a>
</g>
</g>
</g>
</svg>
