<?xml version="1.0" encoding="UTF-8" standalone="no"?>
<!DOCTYPE svg PUBLIC "-//W3C//DTD SVG 1.1//EN"
 "http://www.w3.org/Graphics/SVG/1.1/DTD/svg11.dtd">
<!-- Generated by graphviz version 14.0.2 (0)
 -->
<!-- Title: asio::associated_executor&lt; executor_binder&lt; T, Executor &gt;, Executor1 &gt; Pages: 1 -->
<svg width="206pt" height="210pt"
 viewBox="0.00 0.00 206.00 210.00" xmlns="http://www.w3.org/2000/svg" xmlns:xlink="http://www.w3.org/1999/xlink">
<g id="graph0" class="graph" transform="scale(1 1) rotate(0) translate(4 205.75)">
<title>asio::associated_executor&lt; executor_binder&lt; T, Executor &gt;, Executor1 &gt;</title>
<!-- Node1 -->
<g id="Node000001" class="node">
<title>Node1</title>
<g id="a_Node000001"><a xlink:title=" ">
<polygon fill="#999999" stroke="none" points="141.5,-72.25 0,-72.25 0,0 141.5,0 141.5,-72.25"/>
<text xml:space="preserve" text-anchor="start" x="4" y="-58.75" font-family="Helvetica,sans-Serif" font-size="10.00">asio::associated_executor</text>
<text xml:space="preserve" text-anchor="start" x="4" y="-47.5" font-family="Helvetica,sans-Serif" font-size="10.00">&lt; executor_binder&lt; T, Executor</text>
<text xml:space="preserve" text-anchor="start" x="38.5" y="-36.25" font-family="Helvetica,sans-Serif" font-size="10.00"> &gt;, Executor1 &gt;</text>
<text xml:space="preserve" text-anchor="start" x="69.25" y="-21" font-family="Helvetica,sans-Serif" font-size="10.00"> </text>
<text xml:space="preserve" text-anchor="start" x="30" y="-5.75" font-family="Helvetica,sans-Serif" font-size="10.00">+</text>
<text xml:space="preserve" text-anchor="start" x="66" y="-5.75" font-family="Helvetica,sans-Serif" font-size="10.00">get()</text>
<polygon fill="#666666" stroke="#666666" points="0,-32.5 0,-32.5 141.5,-32.5 141.5,-32.5 0,-32.5"/>
<polygon fill="#666666" stroke="#666666" points="0,-17.25 0,-17.25 141.5,-17.25 141.5,-17.25 0,-17.25"/>
<polygon fill="none" stroke="#666666" points="0,0 0,-72.25 141.5,-72.25 141.5,0 0,0"/>
</a>
</g>
</g>
<!-- Node2 -->
<g id="Node000002" class="node">
<title>Node2</title>
<g id="a_Node000002"><a xlink:href="structasio_1_1associated__executor.html" target="_top" xlink:title="Traits type used to obtain the executor associated with an object.">
<polygon fill="white" stroke="none" points="130.62,-201.75 10.88,-201.75 10.88,-140.75 130.62,-140.75 130.62,-201.75"/>
<text xml:space="preserve" text-anchor="start" x="14.88" y="-188.25" font-family="Helvetica,sans-Serif" font-size="10.00">asio::associated_executor</text>
<text xml:space="preserve" text-anchor="start" x="38.12" y="-177" font-family="Helvetica,sans-Serif" font-size="10.00">&lt; T, Executor &gt;</text>
<text xml:space="preserve" text-anchor="start" x="69.25" y="-161.75" font-family="Helvetica,sans-Serif" font-size="10.00"> </text>
<text xml:space="preserve" text-anchor="start" x="35.44" y="-146.5" font-family="Helvetica,sans-Serif" font-size="10.00">+</text>
<text xml:space="preserve" text-anchor="start" x="66" y="-146.5" font-family="Helvetica,sans-Serif" font-size="10.00">get()</text>
<polygon fill="#666666" stroke="#666666" points="10.88,-173.25 10.88,-173.25 130.62,-173.25 130.62,-173.25 10.88,-173.25"/>
<polygon fill="#666666" stroke="#666666" points="10.88,-158 10.88,-158 130.62,-158 130.62,-158 10.88,-158"/>
<polygon fill="none" stroke="#666666" points="10.88,-140.75 10.88,-201.75 130.62,-201.75 130.62,-140.75 10.88,-140.75"/>
</a>
</g>
</g>
<!-- Node2&#45;&gt;Node1 -->
<g id="edge1_Node000001_Node000002" class="edge">
<title>Node2&#45;&gt;Node1</title>
<g id="a_edge1_Node000001_Node000002"><a xlink:title=" ">
<path fill="none" stroke="orange" d="M70.75,-129.73C70.75,-111.27 70.75,-89.65 70.75,-71.94"/>
<polygon fill="orange" stroke="orange" points="67.25,-129.52 70.75,-139.52 74.25,-129.52 67.25,-129.52"/>
</a>
</g>
<text xml:space="preserve" text-anchor="start" x="73.75" y="-110.25" font-family="Helvetica,sans-Serif" font-size="10.00" fill="grey">&lt; executor_binder&lt;</text>
<text xml:space="preserve" text-anchor="start" x="73.75" y="-95" font-family="Helvetica,sans-Serif" font-size="10.00" fill="grey">   T, Executor &gt;, Executor1 &gt;</text>
</g>
</g>
</svg>
