<?xml version="1.0" encoding="UTF-8" standalone="no"?>
<!DOCTYPE svg PUBLIC "-//W3C//DTD SVG 1.1//EN"
 "http://www.w3.org/Graphics/SVG/1.1/DTD/svg11.dtd">
<!-- Generated by graphviz version 14.0.2 (0)
 -->
<!-- Title: drmp3 Pages: 1 -->
<!--zoomable 542 -->

<svg id="main" version="1.1" xmlns="http://www.w3.org/2000/svg" xmlns:xlink="http://www.w3.org/1999/xlink" xml:space="preserve" onload="init(evt)">

<style type="text/css"><![CDATA[
.node, .edge {opacity: 0.7;}
.node.selected, .edge.selected {opacity: 1;}
.edge:hover path { stroke: red; }
.edge:hover polygon { stroke: red; fill: red; }
]]></style>

<defs>
  <circle id="rim" cx="0" cy="0" r="7"/>
  <circle id="rim2" cx="0" cy="0" r="3.5"/>
  <g id="zoomPlus">
    <use xlink:href="#rim" fill="#404040"><set attributeName="fill" to="#808080" begin="zoomplus.mouseover" end="zoomplus.mouseout"/></use>
    <path d="M-4,0h8M0,-4v8" fill="none" stroke="white" stroke-width="1.5" pointer-events="none"/>
  </g>
  <g id="zoomMin">
    <use xlink:href="#rim" fill="#404040"><set attributeName="fill" to="#808080" begin="zoomminus.mouseover" end="zoomminus.mouseout"/></use>
    <path d="M-4,0h8" fill="none" stroke="white" stroke-width="1.5" pointer-events="none"/>
  </g>
  <g id="arrowUp" transform="translate(30 24)">
    <use xlink:href="#rim"/>
    <path pointer-events="none" fill="none" stroke="white" stroke-width="1.5" d="M0,-3.0v7 M-2.5,-0.5L0,-3.0L2.5,-0.5"/>
  </g>
  <g id="arrowRight" transform="rotate(90) translate(36 -43)">
    <use xlink:href="#rim"/>
    <path pointer-events="none" fill="none" stroke="white" stroke-width="1.5" d="M0,-3.0v7 M-2.5,-0.5L0,-3.0L2.5,-0.5"/>
  </g>
  <g id="arrowDown" transform="rotate(180) translate(-30 -48)">
    <use xlink:href="#rim"/>
    <path pointer-events="none" fill="none" stroke="white" stroke-width="1.5" d="M0,-3.0v7 M-2.5,-0.5L0,-3.0L2.5,-0.5"/>
  </g>
  <g id="arrowLeft" transform="rotate(270) translate(-36 17)">
    <use xlink:href="#rim"/>
    <path pointer-events="none" fill="none" stroke="white" stroke-width="1.5" d="M0,-3.0v7 M-2.5,-0.5L0,-3.0L2.5,-0.5"/>
  </g>
  <g id="resetDef">
    <use xlink:href="#rim2" fill="#404040"><set attributeName="fill" to="#808080" begin="reset.mouseover" end="reset.mouseout"/></use>
  </g>
</defs>
<script type="application/ecmascript">
var viewWidth = 502;
var viewHeight = 542;
var sectionId = 'dynsection-0';
</script>
<script type="application/ecmascript" xlink:href="svg.min.js"/>
<svg id="graph" class="graph">
<g id="viewport">
<title>drmp3</title>
<!-- Node1 -->
<g id="Node000001" class="node">
<title>Node1</title>
<g id="a_Node000001"><a xlink:title=" ">
<polygon fill="#999999" stroke="none" points="317.25,-354.75 144.75,-354.75 144.75,0 317.25,0 317.25,-354.75"/>
<text xml:space="preserve" text-anchor="start" x="217.5" y="-341.25" font-family="Helvetica,sans-Serif" font-size="10.00">drmp3</text>
<text xml:space="preserve" text-anchor="start" x="148.75" y="-326" font-family="Helvetica,sans-Serif" font-size="10.00">+</text>
<text xml:space="preserve" text-anchor="start" x="158.75" y="-326" font-family="Helvetica,sans-Serif" font-size="10.00">channels</text>
<text xml:space="preserve" text-anchor="start" x="148.75" y="-310.75" font-family="Helvetica,sans-Serif" font-size="10.00">+</text>
<text xml:space="preserve" text-anchor="start" x="158.75" y="-310.75" font-family="Helvetica,sans-Serif" font-size="10.00">sampleRate</text>
<text xml:space="preserve" text-anchor="start" x="148.75" y="-295.5" font-family="Helvetica,sans-Serif" font-size="10.00">+</text>
<text xml:space="preserve" text-anchor="start" x="158.75" y="-295.5" font-family="Helvetica,sans-Serif" font-size="10.00">onRead</text>
<text xml:space="preserve" text-anchor="start" x="148.75" y="-280.25" font-family="Helvetica,sans-Serif" font-size="10.00">+</text>
<text xml:space="preserve" text-anchor="start" x="158.75" y="-280.25" font-family="Helvetica,sans-Serif" font-size="10.00">onSeek</text>
<text xml:space="preserve" text-anchor="start" x="148.75" y="-265" font-family="Helvetica,sans-Serif" font-size="10.00">+</text>
<text xml:space="preserve" text-anchor="start" x="158.75" y="-265" font-family="Helvetica,sans-Serif" font-size="10.00">pUserData</text>
<text xml:space="preserve" text-anchor="start" x="148.75" y="-249.75" font-family="Helvetica,sans-Serif" font-size="10.00">+</text>
<text xml:space="preserve" text-anchor="start" x="158.75" y="-249.75" font-family="Helvetica,sans-Serif" font-size="10.00">mp3FrameChannels</text>
<text xml:space="preserve" text-anchor="start" x="148.75" y="-234.5" font-family="Helvetica,sans-Serif" font-size="10.00">+</text>
<text xml:space="preserve" text-anchor="start" x="158.75" y="-234.5" font-family="Helvetica,sans-Serif" font-size="10.00">mp3FrameSampleRate</text>
<text xml:space="preserve" text-anchor="start" x="148.75" y="-219.25" font-family="Helvetica,sans-Serif" font-size="10.00">+</text>
<text xml:space="preserve" text-anchor="start" x="158.75" y="-219.25" font-family="Helvetica,sans-Serif" font-size="10.00">pcmFramesConsumedInMP3Frame</text>
<text xml:space="preserve" text-anchor="start" x="148.75" y="-204" font-family="Helvetica,sans-Serif" font-size="10.00">+</text>
<text xml:space="preserve" text-anchor="start" x="158.75" y="-204" font-family="Helvetica,sans-Serif" font-size="10.00">pcmFramesRemainingInMP3Frame</text>
<text xml:space="preserve" text-anchor="start" x="148.75" y="-188.75" font-family="Helvetica,sans-Serif" font-size="10.00">+</text>
<text xml:space="preserve" text-anchor="start" x="158.75" y="-188.75" font-family="Helvetica,sans-Serif" font-size="10.00">pcmFrames</text>
<text xml:space="preserve" text-anchor="start" x="148.75" y="-173.5" font-family="Helvetica,sans-Serif" font-size="10.00">+</text>
<text xml:space="preserve" text-anchor="start" x="158.75" y="-173.5" font-family="Helvetica,sans-Serif" font-size="10.00">currentPCMFrame</text>
<text xml:space="preserve" text-anchor="start" x="148.75" y="-158.25" font-family="Helvetica,sans-Serif" font-size="10.00">+</text>
<text xml:space="preserve" text-anchor="start" x="158.75" y="-158.25" font-family="Helvetica,sans-Serif" font-size="10.00">streamCursor</text>
<text xml:space="preserve" text-anchor="start" x="148.75" y="-143" font-family="Helvetica,sans-Serif" font-size="10.00">+</text>
<text xml:space="preserve" text-anchor="start" x="158.75" y="-143" font-family="Helvetica,sans-Serif" font-size="10.00">seekPointCount</text>
<text xml:space="preserve" text-anchor="start" x="148.75" y="-127.75" font-family="Helvetica,sans-Serif" font-size="10.00">+</text>
<text xml:space="preserve" text-anchor="start" x="158.75" y="-127.75" font-family="Helvetica,sans-Serif" font-size="10.00">dataSize</text>
<text xml:space="preserve" text-anchor="start" x="148.75" y="-112.5" font-family="Helvetica,sans-Serif" font-size="10.00">+</text>
<text xml:space="preserve" text-anchor="start" x="158.75" y="-112.5" font-family="Helvetica,sans-Serif" font-size="10.00">dataCapacity</text>
<text xml:space="preserve" text-anchor="start" x="148.75" y="-97.25" font-family="Helvetica,sans-Serif" font-size="10.00">+</text>
<text xml:space="preserve" text-anchor="start" x="158.75" y="-97.25" font-family="Helvetica,sans-Serif" font-size="10.00">dataConsumed</text>
<text xml:space="preserve" text-anchor="start" x="148.75" y="-82" font-family="Helvetica,sans-Serif" font-size="10.00">+</text>
<text xml:space="preserve" text-anchor="start" x="158.75" y="-82" font-family="Helvetica,sans-Serif" font-size="10.00">pData</text>
<text xml:space="preserve" text-anchor="start" x="148.75" y="-66.75" font-family="Helvetica,sans-Serif" font-size="10.00">+</text>
<text xml:space="preserve" text-anchor="start" x="158.75" y="-66.75" font-family="Helvetica,sans-Serif" font-size="10.00">atEnd</text>
<text xml:space="preserve" text-anchor="start" x="148.75" y="-51.5" font-family="Helvetica,sans-Serif" font-size="10.00">+</text>
<text xml:space="preserve" text-anchor="start" x="158.75" y="-51.5" font-family="Helvetica,sans-Serif" font-size="10.00">pData</text>
<text xml:space="preserve" text-anchor="start" x="148.75" y="-36.25" font-family="Helvetica,sans-Serif" font-size="10.00">+</text>
<text xml:space="preserve" text-anchor="start" x="158.75" y="-36.25" font-family="Helvetica,sans-Serif" font-size="10.00">currentReadPos</text>
<text xml:space="preserve" text-anchor="start" x="148.75" y="-21" font-family="Helvetica,sans-Serif" font-size="10.00">+</text>
<text xml:space="preserve" text-anchor="start" x="158.75" y="-21" font-family="Helvetica,sans-Serif" font-size="10.00">memory</text>
<text xml:space="preserve" text-anchor="start" x="229.5" y="-5.75" font-family="Helvetica,sans-Serif" font-size="10.00"> </text>
<polygon fill="#666666" stroke="#666666" points="144.75,-337.5 144.75,-337.5 317.25,-337.5 317.25,-337.5 144.75,-337.5"/>
<polygon fill="#666666" stroke="#666666" points="144.75,-17.25 144.75,-17.25 156.75,-17.25 156.75,-17.25 144.75,-17.25"/>
<polygon fill="#666666" stroke="#666666" points="156.75,-17.25 156.75,-17.25 317.25,-17.25 317.25,-17.25 156.75,-17.25"/>
<polygon fill="none" stroke="#666666" points="144.75,0 144.75,-354.75 317.25,-354.75 317.25,0 144.75,0"/>
</a>
</g>
</g>
<!-- Node2 -->
<g id="Node000002" class="node">
<title>Node2</title>
<g id="a_Node000002"><a xlink:href="structdrmp3dec.html" target="_top" xlink:title=" ">
<polygon fill="white" stroke="none" points="96,-534 0,-534 0,-408 96,-408 96,-534"/>
<text xml:space="preserve" text-anchor="start" x="26.62" y="-520.5" font-family="Helvetica,sans-Serif" font-size="10.00">drmp3dec</text>
<text xml:space="preserve" text-anchor="start" x="4" y="-505.25" font-family="Helvetica,sans-Serif" font-size="10.00">+</text>
<text xml:space="preserve" text-anchor="start" x="14" y="-505.25" font-family="Helvetica,sans-Serif" font-size="10.00">mdct_overlap</text>
<text xml:space="preserve" text-anchor="start" x="4" y="-490" font-family="Helvetica,sans-Serif" font-size="10.00">+</text>
<text xml:space="preserve" text-anchor="start" x="14" y="-490" font-family="Helvetica,sans-Serif" font-size="10.00">qmf_state</text>
<text xml:space="preserve" text-anchor="start" x="4" y="-474.75" font-family="Helvetica,sans-Serif" font-size="10.00">+</text>
<text xml:space="preserve" text-anchor="start" x="14" y="-474.75" font-family="Helvetica,sans-Serif" font-size="10.00">reserv</text>
<text xml:space="preserve" text-anchor="start" x="4" y="-459.5" font-family="Helvetica,sans-Serif" font-size="10.00">+</text>
<text xml:space="preserve" text-anchor="start" x="14" y="-459.5" font-family="Helvetica,sans-Serif" font-size="10.00">free_format_bytes</text>
<text xml:space="preserve" text-anchor="start" x="4" y="-444.25" font-family="Helvetica,sans-Serif" font-size="10.00">+</text>
<text xml:space="preserve" text-anchor="start" x="14" y="-444.25" font-family="Helvetica,sans-Serif" font-size="10.00">header</text>
<text xml:space="preserve" text-anchor="start" x="4" y="-429" font-family="Helvetica,sans-Serif" font-size="10.00">+</text>
<text xml:space="preserve" text-anchor="start" x="14" y="-429" font-family="Helvetica,sans-Serif" font-size="10.00">reserv_buf</text>
<text xml:space="preserve" text-anchor="start" x="46.5" y="-413.75" font-family="Helvetica,sans-Serif" font-size="10.00"> </text>
<polygon fill="#666666" stroke="#666666" points="0,-516.75 0,-516.75 96,-516.75 96,-516.75 0,-516.75"/>
<polygon fill="#666666" stroke="#666666" points="0,-425.25 0,-425.25 12,-425.25 12,-425.25 0,-425.25"/>
<polygon fill="#666666" stroke="#666666" points="12,-425.25 12,-425.25 96,-425.25 96,-425.25 12,-425.25"/>
<polygon fill="none" stroke="#666666" points="0,-408 0,-534 96,-534 96,-408 0,-408"/>
</a>
</g>
</g>
<!-- Node2&#45;&gt;Node1 -->
<g id="edge1_Node000001_Node000002" class="edge">
<title>Node2&#45;&gt;Node1</title>
<g id="a_edge1_Node000001_Node000002"><a xlink:title=" ">
<path fill="none" stroke="#63b8ff" d="M86.81,-408.15C101.88,-384.14 119.85,-355.51 137.89,-326.75"/>
<polygon fill="none" stroke="#63b8ff" points="137.95,-326.66 137.75,-319.45 144.33,-316.49 144.53,-323.7 137.95,-326.66"/>
</a>
</g>
<text xml:space="preserve" text-anchor="start" x="110.19" y="-377.5" font-family="Helvetica,sans-Serif" font-size="10.00" fill="grey">+decoder</text>
</g>
<!-- Node3 -->
<g id="Node000003" class="node">
<title>Node3</title>
<g id="a_Node000003"><a xlink:href="structdrmp3dec__frame__info.html" target="_top" xlink:title=" ">
<polygon fill="white" stroke="none" points="215.88,-526.38 114.12,-526.38 114.12,-415.62 215.88,-415.62 215.88,-526.38"/>
<text xml:space="preserve" text-anchor="start" x="118.12" y="-512.88" font-family="Helvetica,sans-Serif" font-size="10.00">drmp3dec_frame_info</text>
<text xml:space="preserve" text-anchor="start" x="125.75" y="-497.62" font-family="Helvetica,sans-Serif" font-size="10.00">+</text>
<text xml:space="preserve" text-anchor="start" x="143.38" y="-497.62" font-family="Helvetica,sans-Serif" font-size="10.00">frame_bytes</text>
<text xml:space="preserve" text-anchor="start" x="125.75" y="-482.38" font-family="Helvetica,sans-Serif" font-size="10.00">+</text>
<text xml:space="preserve" text-anchor="start" x="143.38" y="-482.38" font-family="Helvetica,sans-Serif" font-size="10.00">channels</text>
<text xml:space="preserve" text-anchor="start" x="125.75" y="-467.12" font-family="Helvetica,sans-Serif" font-size="10.00">+</text>
<text xml:space="preserve" text-anchor="start" x="143.38" y="-467.12" font-family="Helvetica,sans-Serif" font-size="10.00">hz</text>
<text xml:space="preserve" text-anchor="start" x="125.75" y="-451.88" font-family="Helvetica,sans-Serif" font-size="10.00">+</text>
<text xml:space="preserve" text-anchor="start" x="143.38" y="-451.88" font-family="Helvetica,sans-Serif" font-size="10.00">layer</text>
<text xml:space="preserve" text-anchor="start" x="125.75" y="-436.62" font-family="Helvetica,sans-Serif" font-size="10.00">+</text>
<text xml:space="preserve" text-anchor="start" x="143.38" y="-436.62" font-family="Helvetica,sans-Serif" font-size="10.00">bitrate_kbps</text>
<text xml:space="preserve" text-anchor="start" x="163.5" y="-421.38" font-family="Helvetica,sans-Serif" font-size="10.00"> </text>
<polygon fill="#666666" stroke="#666666" points="114.12,-509.12 114.12,-509.12 215.88,-509.12 215.88,-509.12 114.12,-509.12"/>
<polygon fill="#666666" stroke="#666666" points="114.12,-432.88 114.12,-432.88 141.38,-432.88 141.38,-432.88 114.12,-432.88"/>
<polygon fill="#666666" stroke="#666666" points="141.38,-432.88 141.38,-432.88 215.88,-432.88 215.88,-432.88 141.38,-432.88"/>
<polygon fill="none" stroke="#666666" points="114.12,-415.62 114.12,-526.38 215.88,-526.38 215.88,-415.62 114.12,-415.62"/>
</a>
</g>
</g>
<!-- Node3&#45;&gt;Node1 -->
<g id="edge2_Node000001_Node000003" class="edge">
<title>Node3&#45;&gt;Node1</title>
<g id="a_edge2_Node000001_Node000003"><a xlink:title=" ">
<path fill="none" stroke="#63b8ff" d="M177.26,-415.83C180.56,-401.25 184.33,-384.61 188.3,-367.05"/>
<polygon fill="none" stroke="#63b8ff" points="188.3,-367.04 185.73,-360.3 190.95,-355.33 193.53,-362.07 188.3,-367.04"/>
</a>
</g>
<text xml:space="preserve" text-anchor="start" x="189.35" y="-377.5" font-family="Helvetica,sans-Serif" font-size="10.00" fill="grey">+frameInfo</text>
</g>
<!-- Node4 -->
<g id="Node000004" class="node">
<title>Node4</title>
<g id="a_Node000004"><a xlink:href="structdrmp3__allocation__callbacks.html" target="_top" xlink:title=" ">
<polygon fill="white" stroke="none" points="362,-518.75 234,-518.75 234,-423.25 362,-423.25 362,-518.75"/>
<text xml:space="preserve" text-anchor="start" x="238" y="-505.25" font-family="Helvetica,sans-Serif" font-size="10.00">drmp3_allocation_callbacks</text>
<text xml:space="preserve" text-anchor="start" x="253.88" y="-490" font-family="Helvetica,sans-Serif" font-size="10.00">+</text>
<text xml:space="preserve" text-anchor="start" x="279.75" y="-490" font-family="Helvetica,sans-Serif" font-size="10.00">pUserData</text>
<text xml:space="preserve" text-anchor="start" x="253.88" y="-474.75" font-family="Helvetica,sans-Serif" font-size="10.00">+</text>
<text xml:space="preserve" text-anchor="start" x="279.75" y="-474.75" font-family="Helvetica,sans-Serif" font-size="10.00">onMalloc</text>
<text xml:space="preserve" text-anchor="start" x="253.88" y="-459.5" font-family="Helvetica,sans-Serif" font-size="10.00">+</text>
<text xml:space="preserve" text-anchor="start" x="279.75" y="-459.5" font-family="Helvetica,sans-Serif" font-size="10.00">onRealloc</text>
<text xml:space="preserve" text-anchor="start" x="253.88" y="-444.25" font-family="Helvetica,sans-Serif" font-size="10.00">+</text>
<text xml:space="preserve" text-anchor="start" x="279.75" y="-444.25" font-family="Helvetica,sans-Serif" font-size="10.00">onFree</text>
<text xml:space="preserve" text-anchor="start" x="296.5" y="-429" font-family="Helvetica,sans-Serif" font-size="10.00"> </text>
<polygon fill="#666666" stroke="#666666" points="234,-501.5 234,-501.5 362,-501.5 362,-501.5 234,-501.5"/>
<polygon fill="#666666" stroke="#666666" points="234,-440.5 234,-440.5 277.75,-440.5 277.75,-440.5 234,-440.5"/>
<polygon fill="#666666" stroke="#666666" points="277.75,-440.5 277.75,-440.5 362,-440.5 362,-440.5 277.75,-440.5"/>
<polygon fill="none" stroke="#666666" points="234,-423.25 234,-518.75 362,-518.75 362,-423.25 234,-423.25"/>
</a>
</g>
</g>
<!-- Node4&#45;&gt;Node1 -->
<g id="edge3_Node000001_Node000004" class="edge">
<title>Node4&#45;&gt;Node1</title>
<g id="a_edge3_Node000001_Node000004"><a xlink:title=" ">
<path fill="none" stroke="#63b8ff" d="M287.31,-423.47C283.57,-407.21 279.12,-387.82 274.37,-367.17"/>
<polygon fill="none" stroke="#63b8ff" points="274.36,-367.09 269.11,-362.14 271.67,-355.4 276.91,-360.35 274.36,-367.09"/>
</a>
</g>
<text xml:space="preserve" text-anchor="start" x="281.2" y="-377.5" font-family="Helvetica,sans-Serif" font-size="10.00" fill="grey">+allocationCallbacks</text>
</g>
<!-- Node5 -->
<g id="Node000005" class="node">
<title>Node5</title>
<g id="a_Node000005"><a xlink:href="structdrmp3__seek__point.html" target="_top" xlink:title=" ">
<polygon fill="white" stroke="none" points="494,-518.75 380,-518.75 380,-423.25 494,-423.25 494,-518.75"/>
<text xml:space="preserve" text-anchor="start" x="397.25" y="-505.25" font-family="Helvetica,sans-Serif" font-size="10.00">drmp3_seek_point</text>
<text xml:space="preserve" text-anchor="start" x="384" y="-490" font-family="Helvetica,sans-Serif" font-size="10.00">+</text>
<text xml:space="preserve" text-anchor="start" x="394" y="-490" font-family="Helvetica,sans-Serif" font-size="10.00">seekPosInBytes</text>
<text xml:space="preserve" text-anchor="start" x="384" y="-474.75" font-family="Helvetica,sans-Serif" font-size="10.00">+</text>
<text xml:space="preserve" text-anchor="start" x="394" y="-474.75" font-family="Helvetica,sans-Serif" font-size="10.00">pcmFrameIndex</text>
<text xml:space="preserve" text-anchor="start" x="384" y="-459.5" font-family="Helvetica,sans-Serif" font-size="10.00">+</text>
<text xml:space="preserve" text-anchor="start" x="394" y="-459.5" font-family="Helvetica,sans-Serif" font-size="10.00">mp3FramesToDiscard</text>
<text xml:space="preserve" text-anchor="start" x="384" y="-444.25" font-family="Helvetica,sans-Serif" font-size="10.00">+</text>
<text xml:space="preserve" text-anchor="start" x="394" y="-444.25" font-family="Helvetica,sans-Serif" font-size="10.00">pcmFramesToDiscard</text>
<text xml:space="preserve" text-anchor="start" x="435.5" y="-429" font-family="Helvetica,sans-Serif" font-size="10.00"> </text>
<polygon fill="#666666" stroke="#666666" points="380,-501.5 380,-501.5 494,-501.5 494,-501.5 380,-501.5"/>
<polygon fill="#666666" stroke="#666666" points="380,-440.5 380,-440.5 392,-440.5 392,-440.5 380,-440.5"/>
<polygon fill="#666666" stroke="#666666" points="392,-440.5 392,-440.5 494,-440.5 494,-440.5 392,-440.5"/>
<polygon fill="none" stroke="#666666" points="380,-423.25 380,-518.75 494,-518.75 494,-423.25 380,-423.25"/>
</a>
</g>
</g>
<!-- Node5&#45;&gt;Node1 -->
<g id="edge4_Node000001_Node000005" class="edge">
<title>Node5&#45;&gt;Node1</title>
<g id="a_edge4_Node000001_Node000005"><a xlink:title=" ">
<path fill="none" stroke="#63b8ff" d="M410.04,-423.38C400.29,-407.13 388.98,-388.93 378,-372.75 361.42,-348.32 342.95,-322.77 324.86,-298.52"/>
<polygon fill="none" stroke="#63b8ff" points="324.88,-298.54 318.08,-296.14 317.68,-288.94 324.48,-291.34 324.88,-298.54"/>
</a>
</g>
<text xml:space="preserve" text-anchor="start" x="391.26" y="-377.5" font-family="Helvetica,sans-Serif" font-size="10.00" fill="grey">+pSeekPoints</text>
</g>
</g>
</svg>

<g id="navigator" transform="translate(0 0)" fill="#404254">
  <rect fill="#f2f5e9" fill-opacity="0.5" stroke="#606060" stroke-width=".5" x="0" y="0" width="60" height="60"/>
  <use id="zoomplus" xlink:href="#zoomPlus" x="17" y="9" onmousedown="handleZoom(evt,'in')"/>
  <use id="zoomminus" xlink:href="#zoomMin" x="42" y="9" onmousedown="handleZoom(evt,'out')"/>
  <use id="reset" xlink:href="#resetDef" x="30" y="36" onmousedown="handleReset()"/>
   <use id="arrowup" xlink:href="#arrowUp" x="0" y="0" onmousedown="handlePan(0,-1)"/>
  <use id="arrowright" xlink:href="#arrowRight" x="0" y="0" onmousedown="handlePan(1,0)"/>
  <use id="arrowdown" xlink:href="#arrowDown" x="0" y="0" onmousedown="handlePan(0,1)"/>
  <use id="arrowleft" xlink:href="#arrowLeft" x="0" y="0" onmousedown="handlePan(-1,0)"/>
</g>
<svg viewBox="0 0 15 15" width="100%" height="30px" preserveAspectRatio="xMaxYMin meet">
 <g id="arrow_out" transform="scale(0.3 0.3)">
  <a xlink:href="structdrmp3__coll__graph_org.svg" target="_base">
   <rect id="button" ry="5" rx="5" y="6" x="6" height="38" width="38"
        fill="#f2f5e9" fill-opacity="0.5" stroke="#606060" stroke-width="1.0"/>
   <path id="arrow"
     d="M 11.500037,31.436501 C 11.940474,20.09759 22.043105,11.32322 32.158766,21.979434 L 37.068811,17.246167 C 37.068811,17.246167 37.088388,32 37.088388,32 L 22.160133,31.978069 C 22.160133,31.978069 26.997745,27.140456 26.997745,27.140456 C 18.528582,18.264221 13.291696,25.230495 11.500037,31.436501 z"
     style="fill:#404040;"/>
  </a>
 </g>
</svg>

<style type='text/css'>
<![CDATA[
[data-mouse-over-selected='false'] { opacity: 0.7; }
[data-mouse-over-selected='true']  { opacity: 1.0; }
]]>
</style>
<script type="application/ecmascript"><![CDATA[
document.addEventListener('DOMContentLoaded', (event) => {
  highlightEdges();
  highlightAdjacentNodes();
});
]]></script>
</svg>
