<?xml version="1.0" encoding="UTF-8" standalone="no"?>
<!DOCTYPE svg PUBLIC "-//W3C//DTD SVG 1.1//EN"
 "http://www.w3.org/Graphics/SVG/1.1/DTD/svg11.dtd">
<!-- Generated by graphviz version 14.0.2 (0)
 -->
<!-- Title: juce::var::VariantType::undefinedEquals Pages: 1 -->
<svg width="548pt" height="88pt"
 viewBox="0.00 0.00 548.00 88.00" xmlns="http://www.w3.org/2000/svg" xmlns:xlink="http://www.w3.org/1999/xlink">
<g id="graph0" class="graph" transform="scale(1 1) rotate(0) translate(4 83.5)">
<title>juce::var::VariantType::undefinedEquals</title>
<!-- Node1 -->
<g id="Node000001" class="node">
<title>Node1</title>
<g id="a_Node000001"><a xlink:title=" ">
<polygon fill="#999999" stroke="#666666" points="108.25,-79.5 0,-79.5 0,-49 108.25,-49 108.25,-79.5"/>
<text xml:space="preserve" text-anchor="start" x="8" y="-66" font-family="Helvetica,sans-Serif" font-size="10.00">juce::var::VariantType</text>
<text xml:space="preserve" text-anchor="middle" x="54.12" y="-54.75" font-family="Helvetica,sans-Serif" font-size="10.00">::undefinedEquals</text>
</a>
</g>
</g>
<!-- Node2 -->
<g id="Node000002" class="node">
<title>Node2</title>
<g id="a_Node000002"><a xlink:href="structjuce_1_1var_1_1VariantType.html#a8ddf008f4ff6619286ed24a8587cb521" target="_top" xlink:title=" ">
<polygon fill="white" stroke="#666666" points="252.5,-79.5 144.25,-79.5 144.25,-49 252.5,-49 252.5,-79.5"/>
<text xml:space="preserve" text-anchor="start" x="152.25" y="-66" font-family="Helvetica,sans-Serif" font-size="10.00">juce::var::VariantType</text>
<text xml:space="preserve" text-anchor="middle" x="198.38" y="-54.75" font-family="Helvetica,sans-Serif" font-size="10.00">::VariantType</text>
</a>
</g>
</g>
<!-- Node1&#45;&gt;Node2 -->
<g id="edge1_Node000001_Node000002" class="edge">
<title>Node1&#45;&gt;Node2</title>
<g id="a_edge1_Node000001_Node000002"><a xlink:title=" ">
<path fill="none" stroke="#63b8ff" d="M108.5,-64.25C116.43,-64.25 124.67,-64.25 132.8,-64.25"/>
<polygon fill="#63b8ff" stroke="#63b8ff" points="132.66,-67.75 142.66,-64.25 132.66,-60.75 132.66,-67.75"/>
</a>
</g>
</g>
<!-- Node3 -->
<g id="Node000003" class="node">
<title>Node3</title>
<g id="a_Node000003"><a xlink:href="structjuce_1_1var_1_1VariantType.html#a046c3188d506cd450d95bd620cc676a3" target="_top" xlink:title=" ">
<polygon fill="white" stroke="#666666" points="396.75,-79.5 288.5,-79.5 288.5,-49 396.75,-49 396.75,-79.5"/>
<text xml:space="preserve" text-anchor="start" x="296.5" y="-66" font-family="Helvetica,sans-Serif" font-size="10.00">juce::var::VariantType</text>
<text xml:space="preserve" text-anchor="middle" x="342.62" y="-54.75" font-family="Helvetica,sans-Serif" font-size="10.00">::voidEquals</text>
</a>
</g>
</g>
<!-- Node2&#45;&gt;Node3 -->
<g id="edge2_Node000002_Node000003" class="edge">
<title>Node2&#45;&gt;Node3</title>
<g id="a_edge2_Node000002_Node000003"><a xlink:title=" ">
<path fill="none" stroke="#63b8ff" d="M252.75,-57.69C260.68,-57.52 268.92,-57.46 277.05,-57.53"/>
<polygon fill="#63b8ff" stroke="#63b8ff" points="276.86,-61.02 286.91,-57.67 276.97,-54.02 276.86,-61.02"/>
</a>
</g>
</g>
<!-- Node4 -->
<g id="Node000004" class="node">
<title>Node4</title>
<g id="a_Node000004"><a xlink:href="structjuce_1_1var_1_1VariantType.html#ab5a778a5e4838787aee5791b7cef1559" target="_top" xlink:title=" ">
<polygon fill="white" stroke="#666666" points="396.75,-30.5 288.5,-30.5 288.5,0 396.75,0 396.75,-30.5"/>
<text xml:space="preserve" text-anchor="start" x="296.5" y="-17" font-family="Helvetica,sans-Serif" font-size="10.00">juce::var::VariantType</text>
<text xml:space="preserve" text-anchor="middle" x="342.62" y="-5.75" font-family="Helvetica,sans-Serif" font-size="10.00">::voidWriteToStream</text>
</a>
</g>
</g>
<!-- Node2&#45;&gt;Node4 -->
<g id="edge4_Node000002_Node000004" class="edge">
<title>Node2&#45;&gt;Node4</title>
<g id="a_edge4_Node000002_Node000004"><a xlink:title=" ">
<path fill="none" stroke="#63b8ff" d="M244.77,-48.61C257.73,-44.15 272.01,-39.23 285.53,-34.57"/>
<polygon fill="#63b8ff" stroke="#63b8ff" points="286.42,-37.97 294.74,-31.4 284.14,-31.35 286.42,-37.97"/>
</a>
</g>
</g>
<!-- Node3&#45;&gt;Node2 -->
<g id="edge3_Node000003_Node000002" class="edge">
<title>Node3&#45;&gt;Node2</title>
<g id="a_edge3_Node000003_Node000002"><a xlink:title=" ">
<path fill="none" stroke="#63b8ff" d="M288.43,-70.81C280.5,-70.98 272.26,-71.04 264.12,-70.98"/>
<polygon fill="#63b8ff" stroke="#63b8ff" points="264.31,-67.48 254.26,-70.83 264.21,-74.48 264.31,-67.48"/>
</a>
</g>
</g>
<!-- Node5 -->
<g id="Node000005" class="node">
<title>Node5</title>
<g id="a_Node000005"><a xlink:href="classjuce_1_1OutputStream.html#a84260416f6964056d37578de4fe3e14f" target="_top" xlink:title=" ">
<polygon fill="#fff0f0" stroke="red" points="540.25,-30.5 432.75,-30.5 432.75,0 540.25,0 540.25,-30.5"/>
<text xml:space="preserve" text-anchor="start" x="440.75" y="-17" font-family="Helvetica,sans-Serif" font-size="10.00">juce::OutputStream</text>
<text xml:space="preserve" text-anchor="middle" x="486.5" y="-5.75" font-family="Helvetica,sans-Serif" font-size="10.00">::writeCompressedInt</text>
</a>
</g>
</g>
<!-- Node4&#45;&gt;Node5 -->
<g id="edge5_Node000004_Node000005" class="edge">
<title>Node4&#45;&gt;Node5</title>
<g id="a_edge5_Node000004_Node000005"><a xlink:title=" ">
<path fill="none" stroke="#63b8ff" d="M396.86,-15.25C404.77,-15.25 412.99,-15.25 421.1,-15.25"/>
<polygon fill="#63b8ff" stroke="#63b8ff" points="420.93,-18.75 430.93,-15.25 420.93,-11.75 420.93,-18.75"/>
</a>
</g>
</g>
<!-- Node5&#45;&gt;Node5 -->
<g id="edge6_Node000005_Node000005" class="edge">
<title>Node5&#45;&gt;Node5</title>
<g id="a_edge6_Node000005_Node000005"><a xlink:title=" ">
<path fill="none" stroke="#63b8ff" d="M461.01,-30.99C455.8,-40.06 464.3,-48.5 486.5,-48.5 498.64,-48.5 506.68,-45.97 510.63,-42.2"/>
<polygon fill="#63b8ff" stroke="#63b8ff" points="514.08,-42.84 511.81,-32.49 507.13,-41.99 514.08,-42.84"/>
</a>
</g>
</g>
</g>
</svg>
