<?xml version="1.0" encoding="UTF-8" standalone="no"?>
<!DOCTYPE svg PUBLIC "-//W3C//DTD SVG 1.1//EN"
 "http://www.w3.org/Graphics/SVG/1.1/DTD/svg11.dtd">
<!-- Generated by graphviz version 14.0.2 (0)
 -->
<!-- Title: Reverb::settime Pages: 1 -->
<svg width="728pt" height="84pt"
 viewBox="0.00 0.00 728.00 84.00" xmlns="http://www.w3.org/2000/svg" xmlns:xlink="http://www.w3.org/1999/xlink">
<g id="graph0" class="graph" transform="scale(1 1) rotate(0) translate(4 80.25)">
<title>Reverb::settime</title>
<!-- Node1 -->
<g id="Node000001" class="node">
<title>Node1</title>
<g id="a_Node000001"><a xlink:title=" ">
<polygon fill="#999999" stroke="#666666" points="720,-76.25 636.5,-76.25 636.5,-57 720,-57 720,-76.25"/>
<text xml:space="preserve" text-anchor="middle" x="678.25" y="-62.75" font-family="Helvetica,sans-Serif" font-size="10.00">Reverb::settime</text>
</a>
</g>
</g>
<!-- Node2 -->
<g id="Node000002" class="node">
<title>Node2</title>
<g id="a_Node000002"><a xlink:href="structReverb.html#aa6e88a52c79716fb729b2b2c087a141d" target="_top" xlink:title=" ">
<polygon fill="white" stroke="#666666" points="342,-57.25 245.75,-57.25 245.75,-38 342,-38 342,-57.25"/>
<text xml:space="preserve" text-anchor="middle" x="293.88" y="-43.75" font-family="Helvetica,sans-Serif" font-size="10.00">Reverb::changepar</text>
</a>
</g>
</g>
<!-- Node1&#45;&gt;Node2 -->
<g id="edge1_Node000001_Node000002" class="edge">
<title>Node1&#45;&gt;Node2</title>
<g id="a_edge1_Node000001_Node000002"><a xlink:title=" ">
<path fill="none" stroke="#63b8ff" d="M625.06,-68.42C565.22,-69.86 464.26,-70.39 378,-61.62 366.35,-60.44 353.87,-58.63 342.2,-56.7"/>
<polygon fill="#63b8ff" stroke="#63b8ff" points="625.04,-71.92 634.95,-68.16 624.86,-64.92 625.04,-71.92"/>
</a>
</g>
</g>
<!-- Node5 -->
<g id="Node000005" class="node">
<title>Node5</title>
<g id="a_Node000005"><a xlink:href="structReverb.html#a38ab1e3dbd9aaf2ca0d8f08098dde3b5" target="_top" xlink:title=" ">
<polygon fill="white" stroke="#666666" points="600.5,-57.25 517.75,-57.25 517.75,-38 600.5,-38 600.5,-57.25"/>
<text xml:space="preserve" text-anchor="middle" x="559.12" y="-43.75" font-family="Helvetica,sans-Serif" font-size="10.00">Reverb::settype</text>
</a>
</g>
</g>
<!-- Node1&#45;&gt;Node5 -->
<g id="edge4_Node000001_Node000005" class="edge">
<title>Node1&#45;&gt;Node5</title>
<g id="a_edge4_Node000001_Node000005"><a xlink:title=" ">
<path fill="none" stroke="#63b8ff" d="M625.02,-58.15C616.92,-56.84 608.66,-55.5 600.87,-54.23"/>
<polygon fill="#63b8ff" stroke="#63b8ff" points="624.36,-61.59 634.79,-59.74 625.48,-54.68 624.36,-61.59"/>
</a>
</g>
</g>
<!-- Node3 -->
<g id="Node000003" class="node">
<title>Node3</title>
<g id="a_Node000003"><a xlink:href="structReverb.html#a69b8961f7b1548d25e6484ae7ea505c6" target="_top" xlink:title=" ">
<polygon fill="white" stroke="#666666" points="209.75,-57.25 118,-57.25 118,-38 209.75,-38 209.75,-57.25"/>
<text xml:space="preserve" text-anchor="middle" x="163.88" y="-43.75" font-family="Helvetica,sans-Serif" font-size="10.00">Reverb::setpreset</text>
</a>
</g>
</g>
<!-- Node2&#45;&gt;Node3 -->
<g id="edge2_Node000002_Node000003" class="edge">
<title>Node2&#45;&gt;Node3</title>
<g id="a_edge2_Node000002_Node000003"><a xlink:title=" ">
<path fill="none" stroke="#63b8ff" d="M234.16,-47.62C226,-47.62 217.71,-47.62 209.85,-47.62"/>
<polygon fill="#63b8ff" stroke="#63b8ff" points="234.06,-51.13 244.06,-47.63 234.06,-44.13 234.06,-51.13"/>
</a>
</g>
</g>
<!-- Node4 -->
<g id="Node000004" class="node">
<title>Node4</title>
<g id="a_Node000004"><a xlink:href="structReverb.html#a08f6bd041e6e829f02707aab6e9ec7bd" target="_top" xlink:title=" ">
<polygon fill="white" stroke="#666666" points="82,-57.25 0,-57.25 0,-38 82,-38 82,-57.25"/>
<text xml:space="preserve" text-anchor="middle" x="41" y="-43.75" font-family="Helvetica,sans-Serif" font-size="10.00">Reverb::Reverb</text>
</a>
</g>
</g>
<!-- Node3&#45;&gt;Node4 -->
<g id="edge3_Node000003_Node000004" class="edge">
<title>Node3&#45;&gt;Node4</title>
<g id="a_edge3_Node000003_Node000004"><a xlink:title=" ">
<path fill="none" stroke="#63b8ff" d="M106.27,-47.62C98.22,-47.62 90.09,-47.62 82.44,-47.62"/>
<polygon fill="#63b8ff" stroke="#63b8ff" points="106.01,-51.13 116.01,-47.63 106.01,-44.13 106.01,-51.13"/>
</a>
</g>
</g>
<!-- Node5&#45;&gt;Node2 -->
<g id="edge5_Node000005_Node000002" class="edge">
<title>Node5&#45;&gt;Node2</title>
<g id="a_edge5_Node000005_Node000002"><a xlink:title=" ">
<path fill="none" stroke="#63b8ff" d="M505.95,-47.62C458.2,-47.62 388.16,-47.62 342.05,-47.62"/>
<polygon fill="#63b8ff" stroke="#63b8ff" points="505.77,-51.13 515.77,-47.63 505.77,-44.13 505.77,-51.13"/>
</a>
</g>
</g>
<!-- Node6 -->
<g id="Node000006" class="node">
<title>Node6</title>
<g id="a_Node000006"><a xlink:href="structReverb.html#aee0f46ee3bbc7914df9928717e79eb11" target="_top" xlink:title=" ">
<polygon fill="white" stroke="#666666" points="481.75,-19.25 378,-19.25 378,0 481.75,0 481.75,-19.25"/>
<text xml:space="preserve" text-anchor="middle" x="429.88" y="-5.75" font-family="Helvetica,sans-Serif" font-size="10.00">Reverb::setroomsize</text>
</a>
</g>
</g>
<!-- Node5&#45;&gt;Node6 -->
<g id="edge6_Node000005_Node000006" class="edge">
<title>Node5&#45;&gt;Node6</title>
<g id="a_edge6_Node000005_Node000006"><a xlink:title=" ">
<path fill="none" stroke="#63b8ff" d="M513.52,-34.3C497.36,-29.48 479.4,-24.11 464.36,-19.62"/>
<polygon fill="#63b8ff" stroke="#63b8ff" points="512.32,-37.6 522.91,-37.11 514.33,-30.89 512.32,-37.6"/>
</a>
</g>
</g>
<!-- Node6&#45;&gt;Node2 -->
<g id="edge7_Node000006_Node000002" class="edge">
<title>Node6&#45;&gt;Node2</title>
<g id="a_edge7_Node000006_Node000002"><a xlink:title=" ">
<path fill="none" stroke="#63b8ff" d="M382.39,-22.81C365.25,-27.67 346.12,-33.09 330.13,-37.63"/>
<polygon fill="#63b8ff" stroke="#63b8ff" points="383.2,-26.22 391.86,-20.12 381.29,-19.48 383.2,-26.22"/>
</a>
</g>
</g>
</g>
</svg>
