<?xml version="1.0" encoding="UTF-8" standalone="no"?>
<!DOCTYPE svg PUBLIC "-//W3C//DTD SVG 1.1//EN"
 "http://www.w3.org/Graphics/SVG/1.1/DTD/svg11.dtd">
<!-- Generated by graphviz version 14.0.2 (0)
 -->
<!-- Title: water::WildCardMatcher::matchesAnywhere Pages: 1 -->
<svg width="602pt" height="39pt"
 viewBox="0.00 0.00 602.00 39.00" xmlns="http://www.w3.org/2000/svg" xmlns:xlink="http://www.w3.org/1999/xlink">
<g id="graph0" class="graph" transform="scale(1 1) rotate(0) translate(4 34.5)">
<title>water::WildCardMatcher::matchesAnywhere</title>
<!-- Node1 -->
<g id="Node000001" class="node">
<title>Node1</title>
<g id="a_Node000001"><a xlink:title=" ">
<polygon fill="#999999" stroke="#666666" points="118.75,-30.5 0,-30.5 0,0 118.75,0 118.75,-30.5"/>
<text xml:space="preserve" text-anchor="start" x="8" y="-17" font-family="Helvetica,sans-Serif" font-size="10.00">water::WildCardMatcher</text>
<text xml:space="preserve" text-anchor="middle" x="59.38" y="-5.75" font-family="Helvetica,sans-Serif" font-size="10.00">::matchesAnywhere</text>
</a>
</g>
</g>
<!-- Node2 -->
<g id="Node000002" class="node">
<title>Node2</title>
<g id="a_Node000002"><a xlink:href="structwater_1_1WildCardMatcher.html#a13192fe3d7262f6b722db7b9cb88bf3c" target="_top" xlink:title=" ">
<polygon fill="white" stroke="#666666" points="273.5,-30.5 154.75,-30.5 154.75,0 273.5,0 273.5,-30.5"/>
<text xml:space="preserve" text-anchor="start" x="162.75" y="-17" font-family="Helvetica,sans-Serif" font-size="10.00">water::WildCardMatcher</text>
<text xml:space="preserve" text-anchor="middle" x="214.12" y="-5.75" font-family="Helvetica,sans-Serif" font-size="10.00">::matches</text>
</a>
</g>
</g>
<!-- Node1&#45;&gt;Node2 -->
<g id="edge1_Node000001_Node000002" class="edge">
<title>Node1&#45;&gt;Node2</title>
<g id="a_edge1_Node000001_Node000002"><a xlink:title=" ">
<path fill="none" stroke="#63b8ff" d="M119,-8.66C126.89,-8.52 135.05,-8.47 143.11,-8.52"/>
<polygon fill="#63b8ff" stroke="#63b8ff" points="142.85,-12.02 152.9,-8.64 142.94,-5.02 142.85,-12.02"/>
</a>
</g>
</g>
<!-- Node2&#45;&gt;Node1 -->
<g id="edge4_Node000002_Node000001" class="edge">
<title>Node2&#45;&gt;Node1</title>
<g id="a_edge4_Node000002_Node000001"><a xlink:title=" ">
<path fill="none" stroke="#63b8ff" d="M154.41,-21.84C146.52,-21.99 138.36,-22.03 130.29,-21.98"/>
<polygon fill="#63b8ff" stroke="#63b8ff" points="130.55,-18.48 120.51,-21.85 130.46,-25.48 130.55,-18.48"/>
</a>
</g>
</g>
<!-- Node3 -->
<g id="Node000003" class="node">
<title>Node3</title>
<g id="a_Node000003"><a xlink:href="structwater_1_1WildCardMatcher.html#aa654091be56fd26438269cadd9485cf7" target="_top" xlink:title=" ">
<polygon fill="white" stroke="#666666" points="428.25,-30.5 309.5,-30.5 309.5,0 428.25,0 428.25,-30.5"/>
<text xml:space="preserve" text-anchor="start" x="317.5" y="-17" font-family="Helvetica,sans-Serif" font-size="10.00">water::WildCardMatcher</text>
<text xml:space="preserve" text-anchor="middle" x="368.88" y="-5.75" font-family="Helvetica,sans-Serif" font-size="10.00">::characterMatches</text>
</a>
</g>
</g>
<!-- Node2&#45;&gt;Node3 -->
<g id="edge2_Node000002_Node000003" class="edge">
<title>Node2&#45;&gt;Node3</title>
<g id="a_edge2_Node000002_Node000003"><a xlink:title=" ">
<path fill="none" stroke="#63b8ff" d="M273.75,-15.25C281.64,-15.25 289.8,-15.25 297.86,-15.25"/>
<polygon fill="#63b8ff" stroke="#63b8ff" points="297.65,-18.75 307.65,-15.25 297.65,-11.75 297.65,-18.75"/>
</a>
</g>
</g>
<!-- Node4 -->
<g id="Node000004" class="node">
<title>Node4</title>
<g id="a_Node000004"><a xlink:href="classwater_1_1CharacterFunctions.html#a5b9b6dfedf4307d60ca172fa8b1341e2" target="_top" xlink:title=" ">
<polygon fill="white" stroke="#666666" points="593.5,-30.5 464.25,-30.5 464.25,0 593.5,0 593.5,-30.5"/>
<text xml:space="preserve" text-anchor="start" x="472.25" y="-17" font-family="Helvetica,sans-Serif" font-size="10.00">water::CharacterFunctions</text>
<text xml:space="preserve" text-anchor="middle" x="528.88" y="-5.75" font-family="Helvetica,sans-Serif" font-size="10.00">::toLowerCase</text>
</a>
</g>
</g>
<!-- Node3&#45;&gt;Node4 -->
<g id="edge3_Node000003_Node000004" class="edge">
<title>Node3&#45;&gt;Node4</title>
<g id="a_edge3_Node000003_Node000004"><a xlink:title=" ">
<path fill="none" stroke="#63b8ff" d="M428.71,-15.25C436.52,-15.25 444.61,-15.25 452.66,-15.25"/>
<polygon fill="#63b8ff" stroke="#63b8ff" points="452.44,-18.75 462.44,-15.25 452.44,-11.75 452.44,-18.75"/>
</a>
</g>
</g>
</g>
</svg>
