<?xml version="1.0" encoding="UTF-8" standalone="no"?>
<!DOCTYPE svg PUBLIC "-//W3C//DTD SVG 1.1//EN"
 "http://www.w3.org/Graphics/SVG/1.1/DTD/svg11.dtd">
<!-- Generated by graphviz version 14.0.2 (0)
 -->
<!-- Title: Window::PrivateData::openFileBrowser Pages: 1 -->
<svg width="253pt" height="64pt"
 viewBox="0.00 0.00 253.00 64.00" xmlns="http://www.w3.org/2000/svg" xmlns:xlink="http://www.w3.org/1999/xlink">
<g id="graph0" class="graph" transform="scale(1 1) rotate(0) translate(4 60.25)">
<title>Window::PrivateData::openFileBrowser</title>
<!-- Node1 -->
<g id="Node000001" class="node">
<title>Node1</title>
<g id="a_Node000001"><a xlink:title=" ">
<polygon fill="#999999" stroke="#666666" points="106,-42.88 0,-42.88 0,-12.37 106,-12.37 106,-42.88"/>
<text xml:space="preserve" text-anchor="start" x="8" y="-29.38" font-family="Helvetica,sans-Serif" font-size="10.00">Window::PrivateData</text>
<text xml:space="preserve" text-anchor="middle" x="53" y="-18.12" font-family="Helvetica,sans-Serif" font-size="10.00">::openFileBrowser</text>
</a>
</g>
</g>
<!-- Node2 -->
<g id="Node000002" class="node">
<title>Node2</title>
<g id="a_Node000002"><a xlink:href="group__window.html#gaf81e5fd0347dfca52565b01dce678f2f" target="_top" xlink:title="Return the native window handle.">
<polygon fill="white" stroke="#666666" points="243.5,-56.25 143.5,-56.25 143.5,-37 243.5,-37 243.5,-56.25"/>
<text xml:space="preserve" text-anchor="middle" x="193.5" y="-42.75" font-family="Helvetica,sans-Serif" font-size="10.00">puglGetNativeView</text>
</a>
</g>
</g>
<!-- Node1&#45;&gt;Node2 -->
<g id="edge1_Node000001_Node000002" class="edge">
<title>Node1&#45;&gt;Node2</title>
<g id="a_edge1_Node000001_Node000002"><a xlink:title=" ">
<path fill="none" stroke="#63b8ff" d="M106.36,-34.81C114.78,-35.96 123.55,-37.17 132.13,-38.34"/>
<polygon fill="#63b8ff" stroke="#63b8ff" points="131.38,-41.77 141.77,-39.67 132.33,-34.84 131.38,-41.77"/>
</a>
</g>
</g>
<!-- Node3 -->
<g id="Node000003" class="node">
<title>Node3</title>
<g id="a_Node000003"><a xlink:href="group__window.html#ga6992333a189f68ac33436a549768e24a" target="_top" xlink:title="Return the title of the window, or null.">
<polygon fill="white" stroke="#666666" points="245,-19.25 142,-19.25 142,0 245,0 245,-19.25"/>
<text xml:space="preserve" text-anchor="middle" x="193.5" y="-5.75" font-family="Helvetica,sans-Serif" font-size="10.00">puglGetWindowTitle</text>
</a>
</g>
</g>
<!-- Node1&#45;&gt;Node3 -->
<g id="edge2_Node000001_Node000003" class="edge">
<title>Node1&#45;&gt;Node3</title>
<g id="a_edge2_Node000001_Node000003"><a xlink:title=" ">
<path fill="none" stroke="#63b8ff" d="M106.36,-20.82C114.27,-19.79 122.5,-18.72 130.59,-17.67"/>
<polygon fill="#63b8ff" stroke="#63b8ff" points="130.93,-21.16 140.4,-16.4 130.03,-14.21 130.93,-21.16"/>
</a>
</g>
</g>
</g>
</svg>
