<?xml version="1.0" encoding="UTF-8" standalone="no"?>
<!DOCTYPE svg PUBLIC "-//W3C//DTD SVG 1.1//EN"
 "http://www.w3.org/Graphics/SVG/1.1/DTD/svg11.dtd">
<!-- Generated by graphviz version 14.0.2 (0)
 -->
<!-- Title: juce::AudioProcessorGraph::NodeAndChannel Pages: 1 -->
<svg width="134pt" height="275pt"
 viewBox="0.00 0.00 134.00 275.00" xmlns="http://www.w3.org/2000/svg" xmlns:xlink="http://www.w3.org/1999/xlink">
<g id="graph0" class="graph" transform="scale(1 1) rotate(0) translate(4 270.75)">
<title>juce::AudioProcessorGraph::NodeAndChannel</title>
<!-- Node1 -->
<g id="Node000001" class="node">
<title>Node1</title>
<g id="a_Node000001"><a xlink:title=" ">
<polygon fill="#999999" stroke="none" points="125.75,-91.5 0,-91.5 0,0 125.75,0 125.75,-91.5"/>
<text xml:space="preserve" text-anchor="start" x="4" y="-78" font-family="Helvetica,sans-Serif" font-size="10.00">juce::AudioProcessorGraph</text>
<text xml:space="preserve" text-anchor="start" x="22.75" y="-66.75" font-family="Helvetica,sans-Serif" font-size="10.00">::NodeAndChannel</text>
<text xml:space="preserve" text-anchor="start" x="16.69" y="-51.5" font-family="Helvetica,sans-Serif" font-size="10.00">+</text>
<text xml:space="preserve" text-anchor="start" x="39.38" y="-51.5" font-family="Helvetica,sans-Serif" font-size="10.00">channelIndex</text>
<text xml:space="preserve" text-anchor="start" x="16.69" y="-36.25" font-family="Helvetica,sans-Serif" font-size="10.00">+</text>
<text xml:space="preserve" text-anchor="start" x="39.38" y="-36.25" font-family="Helvetica,sans-Serif" font-size="10.00">isMIDI()</text>
<text xml:space="preserve" text-anchor="start" x="16.69" y="-21" font-family="Helvetica,sans-Serif" font-size="10.00">+</text>
<text xml:space="preserve" text-anchor="start" x="39.38" y="-21" font-family="Helvetica,sans-Serif" font-size="10.00">operator==()</text>
<text xml:space="preserve" text-anchor="start" x="16.69" y="-5.75" font-family="Helvetica,sans-Serif" font-size="10.00">+</text>
<text xml:space="preserve" text-anchor="start" x="39.38" y="-5.75" font-family="Helvetica,sans-Serif" font-size="10.00">operator!=()</text>
<polygon fill="#666666" stroke="#666666" points="0,-63 0,-63 125.75,-63 125.75,-63 0,-63"/>
<polygon fill="#666666" stroke="#666666" points="0,-47.75 0,-47.75 37.38,-47.75 37.38,-47.75 0,-47.75"/>
<polygon fill="#666666" stroke="#666666" points="37.38,-47.75 37.38,-47.75 125.75,-47.75 125.75,-47.75 37.38,-47.75"/>
<polygon fill="none" stroke="#666666" points="0,0 0,-91.5 125.75,-91.5 125.75,0 0,0"/>
</a>
</g>
</g>
<!-- Node2 -->
<g id="Node000002" class="node">
<title>Node2</title>
<g id="a_Node000002"><a xlink:href="structjuce_1_1AudioProcessorGraph_1_1NodeID.html" target="_top" xlink:title=" ">
<polygon fill="white" stroke="none" points="125.75,-266.75 0,-266.75 0,-144.75 125.75,-144.75 125.75,-266.75"/>
<text xml:space="preserve" text-anchor="start" x="4" y="-253.25" font-family="Helvetica,sans-Serif" font-size="10.00">juce::AudioProcessorGraph</text>
<text xml:space="preserve" text-anchor="start" x="44.12" y="-242" font-family="Helvetica,sans-Serif" font-size="10.00">::NodeID</text>
<text xml:space="preserve" text-anchor="start" x="17.62" y="-226.75" font-family="Helvetica,sans-Serif" font-size="10.00">+</text>
<text xml:space="preserve" text-anchor="start" x="41.25" y="-226.75" font-family="Helvetica,sans-Serif" font-size="10.00">uid</text>
<text xml:space="preserve" text-anchor="start" x="17.62" y="-211.5" font-family="Helvetica,sans-Serif" font-size="10.00">+</text>
<text xml:space="preserve" text-anchor="start" x="41.25" y="-211.5" font-family="Helvetica,sans-Serif" font-size="10.00">NodeID()</text>
<text xml:space="preserve" text-anchor="start" x="17.62" y="-196.25" font-family="Helvetica,sans-Serif" font-size="10.00">+</text>
<text xml:space="preserve" text-anchor="start" x="41.25" y="-196.25" font-family="Helvetica,sans-Serif" font-size="10.00">NodeID()</text>
<text xml:space="preserve" text-anchor="start" x="17.62" y="-181" font-family="Helvetica,sans-Serif" font-size="10.00">+</text>
<text xml:space="preserve" text-anchor="start" x="41.25" y="-181" font-family="Helvetica,sans-Serif" font-size="10.00">operator==()</text>
<text xml:space="preserve" text-anchor="start" x="17.62" y="-165.75" font-family="Helvetica,sans-Serif" font-size="10.00">+</text>
<text xml:space="preserve" text-anchor="start" x="41.25" y="-165.75" font-family="Helvetica,sans-Serif" font-size="10.00">operator!=()</text>
<text xml:space="preserve" text-anchor="start" x="17.62" y="-150.5" font-family="Helvetica,sans-Serif" font-size="10.00">+</text>
<text xml:space="preserve" text-anchor="start" x="41.25" y="-150.5" font-family="Helvetica,sans-Serif" font-size="10.00">operator&lt;()</text>
<polygon fill="#666666" stroke="#666666" points="0,-238.25 0,-238.25 125.75,-238.25 125.75,-238.25 0,-238.25"/>
<polygon fill="#666666" stroke="#666666" points="0,-223 0,-223 39.25,-223 39.25,-223 0,-223"/>
<polygon fill="#666666" stroke="#666666" points="39.25,-223 39.25,-223 125.75,-223 125.75,-223 39.25,-223"/>
<polygon fill="none" stroke="#666666" points="0,-144.75 0,-266.75 125.75,-266.75 125.75,-144.75 0,-144.75"/>
</a>
</g>
</g>
<!-- Node2&#45;&gt;Node1 -->
<g id="edge1_Node000001_Node000002" class="edge">
<title>Node2&#45;&gt;Node1</title>
<g id="a_edge1_Node000001_Node000002"><a xlink:title=" ">
<path fill="none" stroke="#63b8ff" d="M62.88,-145.02C62.88,-131.65 62.88,-117.49 62.88,-104.22"/>
<polygon fill="none" stroke="#63b8ff" points="62.88,-104.2 58.88,-98.2 62.88,-92.2 66.88,-98.2 62.88,-104.2"/>
</a>
</g>
<text xml:space="preserve" text-anchor="start" x="65.88" y="-114.25" font-family="Helvetica,sans-Serif" font-size="10.00" fill="grey">+nodeID</text>
</g>
</g>
</svg>
