<?xml version="1.0" encoding="UTF-8" standalone="no"?>
<!DOCTYPE svg PUBLIC "-//W3C//DTD SVG 1.1//EN"
 "http://www.w3.org/Graphics/SVG/1.1/DTD/svg11.dtd">
<!-- Generated by graphviz version 14.0.2 (0)
 -->
<!-- Title: CarlaEngineClient::ProtectedData::addEventPortName Pages: 1 -->
<!--zoomable 76 -->

<svg id="main" version="1.1" xmlns="http://www.w3.org/2000/svg" xmlns:xlink="http://www.w3.org/1999/xlink" xml:space="preserve" onload="init(evt)">

<style type="text/css"><![CDATA[
.node, .edge {opacity: 0.7;}
.node.selected, .edge.selected {opacity: 1;}
.edge:hover path { stroke: red; }
.edge:hover polygon { stroke: red; fill: red; }
]]></style>

<defs>
  <circle id="rim" cx="0" cy="0" r="7"/>
  <circle id="rim2" cx="0" cy="0" r="3.5"/>
  <g id="zoomPlus">
    <use xlink:href="#rim" fill="#404040"><set attributeName="fill" to="#808080" begin="zoomplus.mouseover" end="zoomplus.mouseout"/></use>
    <path d="M-4,0h8M0,-4v8" fill="none" stroke="white" stroke-width="1.5" pointer-events="none"/>
  </g>
  <g id="zoomMin">
    <use xlink:href="#rim" fill="#404040"><set attributeName="fill" to="#808080" begin="zoomminus.mouseover" end="zoomminus.mouseout"/></use>
    <path d="M-4,0h8" fill="none" stroke="white" stroke-width="1.5" pointer-events="none"/>
  </g>
  <g id="arrowUp" transform="translate(30 24)">
    <use xlink:href="#rim"/>
    <path pointer-events="none" fill="none" stroke="white" stroke-width="1.5" d="M0,-3.0v7 M-2.5,-0.5L0,-3.0L2.5,-0.5"/>
  </g>
  <g id="arrowRight" transform="rotate(90) translate(36 -43)">
    <use xlink:href="#rim"/>
    <path pointer-events="none" fill="none" stroke="white" stroke-width="1.5" d="M0,-3.0v7 M-2.5,-0.5L0,-3.0L2.5,-0.5"/>
  </g>
  <g id="arrowDown" transform="rotate(180) translate(-30 -48)">
    <use xlink:href="#rim"/>
    <path pointer-events="none" fill="none" stroke="white" stroke-width="1.5" d="M0,-3.0v7 M-2.5,-0.5L0,-3.0L2.5,-0.5"/>
  </g>
  <g id="arrowLeft" transform="rotate(270) translate(-36 17)">
    <use xlink:href="#rim"/>
    <path pointer-events="none" fill="none" stroke="white" stroke-width="1.5" d="M0,-3.0v7 M-2.5,-0.5L0,-3.0L2.5,-0.5"/>
  </g>
  <g id="resetDef">
    <use xlink:href="#rim2" fill="#404040"><set attributeName="fill" to="#808080" begin="reset.mouseover" end="reset.mouseout"/></use>
  </g>
</defs>
<script type="application/ecmascript">
var viewWidth = 597;
var viewHeight = 76;
var sectionId = 'dynsection-3';
</script>
<script type="application/ecmascript" xlink:href="svg.min.js"/>
<svg id="graph" class="graph">
<g id="viewport">
<title>CarlaEngineClient::ProtectedData::addEventPortName</title>
<!-- Node1 -->
<g id="Node000001" class="node">
<title>Node1</title>
<g id="a_Node000001"><a xlink:title=" ">
<polygon fill="#999999" stroke="#666666" points="167.5,-45.88 0,-45.88 0,-15.37 167.5,-15.37 167.5,-45.88"/>
<text xml:space="preserve" text-anchor="start" x="8" y="-32.38" font-family="Helvetica,sans-Serif" font-size="10.00">CarlaEngineClient::</text>
<text xml:space="preserve" text-anchor="middle" x="83.75" y="-21.12" font-family="Helvetica,sans-Serif" font-size="10.00">ProtectedData::addEventPortName</text>
</a>
</g>
</g>
<!-- Node2 -->
<g id="Node000002" class="node">
<title>Node2</title>
<g id="a_Node000002"><a xlink:href="classCarlaStringList.html#a957bc6b3f6c4282cbfbb968abe35c2c9" target="_top" xlink:title=" ">
<polygon fill="white" stroke="#666666" points="320,-40.25 203.5,-40.25 203.5,-21 320,-21 320,-40.25"/>
<text xml:space="preserve" text-anchor="middle" x="261.75" y="-26.75" font-family="Helvetica,sans-Serif" font-size="10.00">CarlaStringList::append</text>
</a>
</g>
</g>
<!-- Node1&#45;&gt;Node2 -->
<g id="edge1_Node000001_Node000002" class="edge">
<title>Node1&#45;&gt;Node2</title>
<g id="a_edge1_Node000001_Node000002"><a xlink:title=" ">
<path fill="none" stroke="#63b8ff" d="M167.85,-30.62C175.87,-30.62 183.93,-30.62 191.79,-30.62"/>
<polygon fill="#63b8ff" stroke="#63b8ff" points="191.6,-34.13 201.6,-30.63 191.6,-27.13 191.6,-34.13"/>
</a>
</g>
</g>
<!-- Node3 -->
<g id="Node000003" class="node">
<title>Node3</title>
<g id="a_Node000003"><a xlink:href="classAbstractLinkedList.html#a4e51bc940fb659b04d2bde5b0f736424" target="_top" xlink:title=" ">
<polygon fill="white" stroke="#666666" points="454.5,-67.88 356,-67.88 356,-37.38 454.5,-37.38 454.5,-67.88"/>
<text xml:space="preserve" text-anchor="start" x="364" y="-54.38" font-family="Helvetica,sans-Serif" font-size="10.00">AbstractLinkedList</text>
<text xml:space="preserve" text-anchor="middle" x="405.25" y="-43.12" font-family="Helvetica,sans-Serif" font-size="10.00">::append</text>
</a>
</g>
</g>
<!-- Node2&#45;&gt;Node3 -->
<g id="edge2_Node000002_Node000003" class="edge">
<title>Node2&#45;&gt;Node3</title>
<g id="a_edge2_Node000002_Node000003"><a xlink:title=" ">
<path fill="none" stroke="#63b8ff" d="M320.3,-39.57C328.31,-40.82 336.56,-42.1 344.6,-43.35"/>
<polygon fill="#63b8ff" stroke="#63b8ff" points="343.89,-46.78 354.31,-44.86 344.96,-39.86 343.89,-46.78"/>
</a>
</g>
</g>
<!-- Node7 -->
<g id="Node000007" class="node">
<title>Node7</title>
<g id="a_Node000007"><a xlink:href="CarlaUtils_8hpp.html#a2712a1b0b0922692e6e74d2d0cfb80f9" target="_top" xlink:title=" ">
<polygon fill="white" stroke="#666666" points="451.88,-19.25 358.62,-19.25 358.62,0 451.88,0 451.88,-19.25"/>
<text xml:space="preserve" text-anchor="middle" x="405.25" y="-5.75" font-family="Helvetica,sans-Serif" font-size="10.00">carla_strdup_safe</text>
</a>
</g>
</g>
<!-- Node2&#45;&gt;Node7 -->
<g id="edge4_Node000002_Node000007" class="edge">
<title>Node2&#45;&gt;Node7</title>
<g id="a_edge4_Node000002_Node000007"><a xlink:title=" ">
<path fill="none" stroke="#63b8ff" d="M320.3,-22.08C329.13,-20.77 338.25,-19.42 347.07,-18.11"/>
<polygon fill="#63b8ff" stroke="#63b8ff" points="347.58,-21.57 356.96,-16.64 346.55,-14.65 347.58,-21.57"/>
</a>
</g>
</g>
<!-- Node4 -->
<g id="Node000004" class="node">
<title>Node4</title>
<g id="a_Node000004"><a xlink:href="classAbstractLinkedList.html#a3209dbe6c346aebd6d5ee3996a93bebf" target="_top" xlink:title=" ">
<polygon fill="#fff0f0" stroke="red" points="589,-67.88 490.5,-67.88 490.5,-37.38 589,-37.38 589,-67.88"/>
<text xml:space="preserve" text-anchor="start" x="498.5" y="-54.38" font-family="Helvetica,sans-Serif" font-size="10.00">AbstractLinkedList</text>
<text xml:space="preserve" text-anchor="middle" x="539.75" y="-43.12" font-family="Helvetica,sans-Serif" font-size="10.00">::_add</text>
</a>
</g>
</g>
<!-- Node3&#45;&gt;Node4 -->
<g id="edge3_Node000003_Node000004" class="edge">
<title>Node3&#45;&gt;Node4</title>
<g id="a_edge3_Node000003_Node000004"><a xlink:title=" ">
<path fill="none" stroke="#63b8ff" d="M454.84,-52.62C462.67,-52.62 470.85,-52.62 478.91,-52.62"/>
<polygon fill="#63b8ff" stroke="#63b8ff" points="478.66,-56.13 488.66,-52.63 478.66,-49.13 478.66,-56.13"/>
</a>
</g>
</g>
</g>
</svg>

<g id="navigator" transform="translate(0 0)" fill="#404254">
  <rect fill="#f2f5e9" fill-opacity="0.5" stroke="#606060" stroke-width=".5" x="0" y="0" width="60" height="60"/>
  <use id="zoomplus" xlink:href="#zoomPlus" x="17" y="9" onmousedown="handleZoom(evt,'in')"/>
  <use id="zoomminus" xlink:href="#zoomMin" x="42" y="9" onmousedown="handleZoom(evt,'out')"/>
  <use id="reset" xlink:href="#resetDef" x="30" y="36" onmousedown="handleReset()"/>
   <use id="arrowup" xlink:href="#arrowUp" x="0" y="0" onmousedown="handlePan(0,-1)"/>
  <use id="arrowright" xlink:href="#arrowRight" x="0" y="0" onmousedown="handlePan(1,0)"/>
  <use id="arrowdown" xlink:href="#arrowDown" x="0" y="0" onmousedown="handlePan(0,1)"/>
  <use id="arrowleft" xlink:href="#arrowLeft" x="0" y="0" onmousedown="handlePan(-1,0)"/>
</g>
<svg viewBox="0 0 15 15" width="100%" height="30px" preserveAspectRatio="xMaxYMin meet">
 <g id="arrow_out" transform="scale(0.3 0.3)">
  <a xlink:href="structCarlaEngineClient_1_1ProtectedData_a10dacf214e2a74f1211a3cff9472bb4d_cgraph_org.svg" target="_base">
   <rect id="button" ry="5" rx="5" y="6" x="6" height="38" width="38"
        fill="#f2f5e9" fill-opacity="0.5" stroke="#606060" stroke-width="1.0"/>
   <path id="arrow"
     d="M 11.500037,31.436501 C 11.940474,20.09759 22.043105,11.32322 32.158766,21.979434 L 37.068811,17.246167 C 37.068811,17.246167 37.088388,32 37.088388,32 L 22.160133,31.978069 C 22.160133,31.978069 26.997745,27.140456 26.997745,27.140456 C 18.528582,18.264221 13.291696,25.230495 11.500037,31.436501 z"
     style="fill:#404040;"/>
  </a>
 </g>
</svg>

<style type='text/css'>
<![CDATA[
[data-mouse-over-selected='false'] { opacity: 0.7; }
[data-mouse-over-selected='true']  { opacity: 1.0; }
]]>
</style>
<script type="application/ecmascript"><![CDATA[
document.addEventListener('DOMContentLoaded', (event) => {
  highlightEdges();
  highlightAdjacentNodes();
});
]]></script>
</svg>
