<?xml version="1.0" encoding="UTF-8" standalone="no"?>
<!DOCTYPE svg PUBLIC "-//W3C//DTD SVG 1.1//EN"
 "http://www.w3.org/Graphics/SVG/1.1/DTD/svg11.dtd">
<!-- Generated by graphviz version 14.0.2 (0)
 -->
<!-- Title: juce::TextEditor::RemoveAction::RemoveAction Pages: 1 -->
<svg width="669pt" height="374pt"
 viewBox="0.00 0.00 669.00 374.00" xmlns="http://www.w3.org/2000/svg" xmlns:xlink="http://www.w3.org/1999/xlink">
<g id="graph0" class="graph" transform="scale(1 1) rotate(0) translate(4 369.5)">
<title>juce::TextEditor::RemoveAction::RemoveAction</title>
<!-- Node1 -->
<g id="Node000001" class="node">
<title>Node1</title>
<g id="a_Node000001"><a xlink:title=" ">
<polygon fill="#999999" stroke="#666666" points="122.5,-209.5 0,-209.5 0,-179 122.5,-179 122.5,-209.5"/>
<text xml:space="preserve" text-anchor="start" x="8" y="-196" font-family="Helvetica,sans-Serif" font-size="10.00">juce::TextEditor::Remove</text>
<text xml:space="preserve" text-anchor="middle" x="61.25" y="-184.75" font-family="Helvetica,sans-Serif" font-size="10.00">Action::RemoveAction</text>
</a>
</g>
</g>
<!-- Node2 -->
<g id="Node000002" class="node">
<title>Node2</title>
<g id="a_Node000002"><a xlink:href="classjuce_1_1TextEditor.html#adcbdc1c3ceeb6829ec4c287cce50db38" target="_top" xlink:title=" ">
<polygon fill="white" stroke="#666666" points="288.5,-203.88 158.5,-203.88 158.5,-184.62 288.5,-184.62 288.5,-203.88"/>
<text xml:space="preserve" text-anchor="middle" x="223.5" y="-190.38" font-family="Helvetica,sans-Serif" font-size="10.00">juce::TextEditor::TextEditor</text>
</a>
</g>
</g>
<!-- Node1&#45;&gt;Node2 -->
<g id="edge1_Node000001_Node000002" class="edge">
<title>Node1&#45;&gt;Node2</title>
<g id="a_edge1_Node000001_Node000002"><a xlink:title=" ">
<path fill="none" stroke="#63b8ff" d="M122.83,-194.25C130.67,-194.25 138.76,-194.25 146.8,-194.25"/>
<polygon fill="#63b8ff" stroke="#63b8ff" points="146.58,-197.75 156.58,-194.25 146.58,-190.75 146.58,-197.75"/>
</a>
</g>
</g>
<!-- Node2&#45;&gt;Node2 -->
<g id="edge25_Node000002_Node000002" class="edge">
<title>Node2&#45;&gt;Node2</title>
<g id="a_edge25_Node000002_Node000002"><a xlink:title=" ">
<path fill="none" stroke="#63b8ff" d="M198.1,-204.16C186.51,-212.77 194.98,-221.88 223.5,-221.88 239.54,-221.88 249.24,-218.99 252.59,-214.94"/>
<polygon fill="#63b8ff" stroke="#63b8ff" points="255.94,-213.92 249.39,-205.59 249.32,-216.19 255.94,-213.92"/>
</a>
</g>
</g>
<!-- Node3 -->
<g id="Node000003" class="node">
<title>Node3</title>
<g id="a_Node000003"><a xlink:href="classjuce_1_1Component.html#a7cc925a367e95b3807255f8b4a94dddd" target="_top" xlink:title=" ">
<polygon fill="white" stroke="#666666" points="474,-347.5 324.5,-347.5 324.5,-317 474,-317 474,-347.5"/>
<text xml:space="preserve" text-anchor="start" x="332.5" y="-334" font-family="Helvetica,sans-Serif" font-size="10.00">juce::Component::addAndMake</text>
<text xml:space="preserve" text-anchor="middle" x="399.25" y="-322.75" font-family="Helvetica,sans-Serif" font-size="10.00">Visible</text>
</a>
</g>
</g>
<!-- Node2&#45;&gt;Node3 -->
<g id="edge2_Node000002_Node000003" class="edge">
<title>Node2&#45;&gt;Node3</title>
<g id="a_edge2_Node000002_Node000003"><a xlink:title=" ">
<path fill="none" stroke="#63b8ff" d="M231.12,-204.07C245.68,-225.01 282.58,-274.47 324.5,-303.25 328.95,-306.3 333.76,-309.1 338.72,-311.65"/>
<polygon fill="#63b8ff" stroke="#63b8ff" points="337.15,-314.77 347.68,-315.88 340.14,-308.44 337.15,-314.77"/>
</a>
</g>
</g>
<!-- Node4 -->
<g id="Node000004" class="node">
<title>Node4</title>
<g id="a_Node000004"><a xlink:href="classjuce_1_1Component.html#a8eca44b2145f084bd354edc8db696ad7" target="_top" xlink:title=" ">
<polygon fill="white" stroke="#666666" points="656.5,-341.88 514.5,-341.88 514.5,-322.62 656.5,-322.62 656.5,-341.88"/>
<text xml:space="preserve" text-anchor="middle" x="585.5" y="-328.38" font-family="Helvetica,sans-Serif" font-size="10.00">juce::Component::Component</text>
</a>
</g>
</g>
<!-- Node2&#45;&gt;Node4 -->
<g id="edge10_Node000002_Node000004" class="edge">
<title>Node2&#45;&gt;Node4</title>
<g id="a_edge10_Node000002_Node000004"><a xlink:title=" ">
<path fill="none" stroke="#63b8ff" d="M234.62,-204.3C251.66,-220.64 287.84,-252.9 324.5,-270.25 342.69,-278.86 455.61,-304.27 526.53,-319.76"/>
<polygon fill="#63b8ff" stroke="#63b8ff" points="525.53,-323.12 536.05,-321.83 527.02,-316.28 525.53,-323.12"/>
</a>
</g>
</g>
<!-- Node5 -->
<g id="Node000005" class="node">
<title>Node5</title>
<g id="a_Node000005"><a xlink:href="classjuce_1_1Desktop.html#a744d031f56311aecb101473f174c1ba7" target="_top" xlink:title=" ">
<polygon fill="white" stroke="#666666" points="460.5,-243.5 338,-243.5 338,-213 460.5,-213 460.5,-243.5"/>
<text xml:space="preserve" text-anchor="start" x="346" y="-230" font-family="Helvetica,sans-Serif" font-size="10.00">juce::Desktop::addGlobal</text>
<text xml:space="preserve" text-anchor="middle" x="399.25" y="-218.75" font-family="Helvetica,sans-Serif" font-size="10.00">MouseListener</text>
</a>
</g>
</g>
<!-- Node2&#45;&gt;Node5 -->
<g id="edge6_Node000002_Node000005" class="edge">
<title>Node2&#45;&gt;Node5</title>
<g id="a_edge6_Node000002_Node000005"><a xlink:title=" ">
<path fill="none" stroke="#63b8ff" d="M276.16,-204.36C292,-207.46 309.71,-210.93 326.63,-214.24"/>
<polygon fill="#63b8ff" stroke="#63b8ff" points="325.64,-217.61 336.12,-216.09 326.98,-210.74 325.64,-217.61"/>
</a>
</g>
</g>
<!-- Node23 -->
<g id="Node000023" class="node">
<title>Node23</title>
<g id="a_Node000023"><a xlink:href="classjuce_1_1TextEditor.html#a7685697d758a813291367a9e413b11d3" target="_top" xlink:title=" ">
<polygon fill="white" stroke="#666666" points="460.12,-176.5 338.38,-176.5 338.38,-146 460.12,-146 460.12,-176.5"/>
<text xml:space="preserve" text-anchor="start" x="346.38" y="-163" font-family="Helvetica,sans-Serif" font-size="10.00">juce::TextEditor::recreate</text>
<text xml:space="preserve" text-anchor="middle" x="399.25" y="-151.75" font-family="Helvetica,sans-Serif" font-size="10.00">Caret</text>
</a>
</g>
</g>
<!-- Node2&#45;&gt;Node23 -->
<g id="edge11_Node000002_Node000023" class="edge">
<title>Node2&#45;&gt;Node23</title>
<g id="a_edge11_Node000002_Node000023"><a xlink:title=" ">
<path fill="none" stroke="#63b8ff" d="M277.57,-184.17C293.06,-181.23 310.25,-177.96 326.68,-174.84"/>
<polygon fill="#63b8ff" stroke="#63b8ff" points="327.25,-178.3 336.42,-172.99 325.94,-171.42 327.25,-178.3"/>
</a>
</g>
</g>
<!-- Node49 -->
<g id="Node000049" class="node">
<title>Node49</title>
<g id="a_Node000049"><a xlink:href="classjuce_1_1Component.html#a86eae51f335c478f4638746b15f9d1ec" target="_top" xlink:title=" ">
<polygon fill="white" stroke="#666666" points="466.88,-109.5 331.62,-109.5 331.62,-79 466.88,-79 466.88,-109.5"/>
<text xml:space="preserve" text-anchor="start" x="339.62" y="-96" font-family="Helvetica,sans-Serif" font-size="10.00">juce::Component::setMouse</text>
<text xml:space="preserve" text-anchor="middle" x="399.25" y="-84.75" font-family="Helvetica,sans-Serif" font-size="10.00">Cursor</text>
</a>
</g>
</g>
<!-- Node2&#45;&gt;Node49 -->
<g id="edge19_Node000002_Node000049" class="edge">
<title>Node2&#45;&gt;Node49</title>
<g id="a_edge19_Node000002_Node000049"><a xlink:title=" ">
<path fill="none" stroke="#63b8ff" d="M241.8,-184.3C269.49,-168.36 324.42,-136.74 361.25,-115.54"/>
<polygon fill="#63b8ff" stroke="#63b8ff" points="362.89,-118.64 369.81,-110.62 359.4,-112.57 362.89,-118.64"/>
</a>
</g>
</g>
<!-- Node51 -->
<g id="Node000051" class="node">
<title>Node51</title>
<g id="a_Node000051"><a xlink:href="classjuce_1_1Component.html#ab7ddcb4bf8a7c6534f6e1d9a22e6330b" target="_top" xlink:title=" ">
<polygon fill="white" stroke="#666666" points="466.12,-42.5 332.38,-42.5 332.38,-12 466.12,-12 466.12,-42.5"/>
<text xml:space="preserve" text-anchor="start" x="340.38" y="-29" font-family="Helvetica,sans-Serif" font-size="10.00">juce::Component::setWants</text>
<text xml:space="preserve" text-anchor="middle" x="399.25" y="-17.75" font-family="Helvetica,sans-Serif" font-size="10.00">KeyboardFocus</text>
</a>
</g>
</g>
<!-- Node2&#45;&gt;Node51 -->
<g id="edge23_Node000002_Node000051" class="edge">
<title>Node2&#45;&gt;Node51</title>
<g id="a_edge23_Node000002_Node000051"><a xlink:title=" ">
<path fill="none" stroke="#63b8ff" d="M230.74,-184.22C245.11,-161.71 282.55,-106.3 324.5,-70.25 333.97,-62.11 345.19,-54.68 355.98,-48.36"/>
<polygon fill="#63b8ff" stroke="#63b8ff" points="357.39,-51.58 364.39,-43.63 353.96,-45.48 357.39,-51.58"/>
</a>
</g>
</g>
<!-- Node3&#45;&gt;Node3 -->
<g id="edge3_Node000003_Node000003" class="edge">
<title>Node3&#45;&gt;Node3</title>
<g id="a_edge3_Node000003_Node000003"><a xlink:title=" ">
<path fill="none" stroke="#63b8ff" d="M368.11,-347.99C361.75,-357.06 372.13,-365.5 399.25,-365.5 414.08,-365.5 423.9,-362.97 428.72,-359.2"/>
<polygon fill="#63b8ff" stroke="#63b8ff" points="432.16,-359.89 430.17,-349.48 425.24,-358.86 432.16,-359.89"/>
</a>
</g>
</g>
<!-- Node3&#45;&gt;Node4 -->
<g id="edge4_Node000003_Node000004" class="edge">
<title>Node3&#45;&gt;Node4</title>
<g id="a_edge4_Node000003_Node000004"><a xlink:title=" ">
<path fill="none" stroke="#63b8ff" d="M474.4,-332.25C483.71,-332.25 493.28,-332.25 502.7,-332.25"/>
<polygon fill="#63b8ff" stroke="#63b8ff" points="502.58,-335.75 512.58,-332.25 502.58,-328.75 502.58,-335.75"/>
</a>
</g>
</g>
<!-- Node4&#45;&gt;Node4 -->
<g id="edge5_Node000004_Node000004" class="edge">
<title>Node4&#45;&gt;Node4</title>
<g id="a_edge5_Node000004_Node000004"><a xlink:title=" ">
<path fill="none" stroke="#63b8ff" d="M556.34,-342.16C543.04,-350.77 552.76,-359.88 585.5,-359.88 604.43,-359.88 615.66,-356.83 619.2,-352.6"/>
<polygon fill="#63b8ff" stroke="#63b8ff" points="622.46,-351.32 615.26,-343.55 616.04,-354.12 622.46,-351.32"/>
</a>
</g>
</g>
<!-- Node5&#45;&gt;Node5 -->
<g id="edge7_Node000005_Node000005" class="edge">
<title>Node5&#45;&gt;Node5</title>
<g id="a_edge7_Node000005_Node000005"><a xlink:title=" ">
<path fill="none" stroke="#63b8ff" d="M368.11,-243.99C361.75,-253.06 372.13,-261.5 399.25,-261.5 414.08,-261.5 423.9,-258.97 428.72,-255.2"/>
<polygon fill="#63b8ff" stroke="#63b8ff" points="432.16,-255.89 430.17,-245.48 425.24,-254.86 432.16,-255.89"/>
</a>
</g>
</g>
<!-- Node6 -->
<g id="Node000006" class="node">
<title>Node6</title>
<g id="a_Node000006"><a xlink:href="classjuce_1_1Desktop.html#a7e1392f2e10875966b742c5100f2bc3a" target="_top" xlink:title=" ">
<polygon fill="#fff0f0" stroke="red" points="648.25,-286.88 522.75,-286.88 522.75,-267.62 648.25,-267.62 648.25,-286.88"/>
<text xml:space="preserve" text-anchor="middle" x="585.5" y="-273.38" font-family="Helvetica,sans-Serif" font-size="10.00">juce::Desktop::resetTimer</text>
</a>
</g>
</g>
<!-- Node5&#45;&gt;Node6 -->
<g id="edge8_Node000005_Node000006" class="edge">
<title>Node5&#45;&gt;Node6</title>
<g id="a_edge8_Node000005_Node000006"><a xlink:title=" ">
<path fill="none" stroke="#63b8ff" d="M456.88,-243.93C473.94,-248.6 492.72,-253.68 510,-258.25 517.63,-260.27 525.71,-262.36 533.63,-264.4"/>
<polygon fill="#63b8ff" stroke="#63b8ff" points="532.62,-267.75 543.18,-266.84 534.36,-260.97 532.62,-267.75"/>
</a>
</g>
</g>
<!-- Node6&#45;&gt;Node6 -->
<g id="edge9_Node000006_Node000006" class="edge">
<title>Node6&#45;&gt;Node6</title>
<g id="a_edge9_Node000006_Node000006"><a xlink:title=" ">
<path fill="none" stroke="#63b8ff" d="M556.34,-287.16C543.04,-295.77 552.76,-304.88 585.5,-304.88 604.43,-304.88 615.66,-301.83 619.2,-297.6"/>
<polygon fill="#63b8ff" stroke="#63b8ff" points="622.46,-296.32 615.26,-288.55 616.04,-299.12 622.46,-296.32"/>
</a>
</g>
</g>
<!-- Node23&#45;&gt;Node23 -->
<g id="edge16_Node000023_Node000023" class="edge">
<title>Node23&#45;&gt;Node23</title>
<g id="a_edge16_Node000023_Node000023"><a xlink:title=" ">
<path fill="none" stroke="#63b8ff" d="M368.11,-176.99C361.75,-186.06 372.13,-194.5 399.25,-194.5 414.08,-194.5 423.9,-191.97 428.72,-188.2"/>
<polygon fill="#63b8ff" stroke="#63b8ff" points="432.16,-188.89 430.17,-178.48 425.24,-187.86 432.16,-188.89"/>
</a>
</g>
</g>
<!-- Node24 -->
<g id="Node000024" class="node">
<title>Node24</title>
<g id="a_Node000024"><a xlink:href="classjuce_1_1Component.html#ad55f2def99fd7d05f6a71ef505e1a43b" target="_top" xlink:title=" ">
<polygon fill="#fff0f0" stroke="red" points="649.38,-231.5 521.62,-231.5 521.62,-201 649.38,-201 649.38,-231.5"/>
<text xml:space="preserve" text-anchor="start" x="529.62" y="-218" font-family="Helvetica,sans-Serif" font-size="10.00">juce::Component::getLook</text>
<text xml:space="preserve" text-anchor="middle" x="585.5" y="-206.75" font-family="Helvetica,sans-Serif" font-size="10.00">AndFeel</text>
</a>
</g>
</g>
<!-- Node23&#45;&gt;Node24 -->
<g id="edge12_Node000023_Node000024" class="edge">
<title>Node23&#45;&gt;Node24</title>
<g id="a_edge12_Node000023_Node000024"><a xlink:title=" ">
<path fill="none" stroke="#63b8ff" d="M452.56,-176.86C473.86,-183.22 498.68,-190.63 521.01,-197.3"/>
<polygon fill="#63b8ff" stroke="#63b8ff" points="519.71,-200.56 530.29,-200.07 521.71,-193.85 519.71,-200.56"/>
</a>
</g>
</g>
<!-- Node28 -->
<g id="Node000028" class="node">
<title>Node28</title>
<g id="a_Node000028"><a xlink:href="classjuce_1_1TextEditor.html#abfa0e5e96204cf06168e4831db464c61" target="_top" xlink:title=" ">
<polygon fill="#fff0f0" stroke="red" points="644.12,-164.5 526.88,-164.5 526.88,-134 644.12,-134 644.12,-164.5"/>
<text xml:space="preserve" text-anchor="start" x="534.88" y="-151" font-family="Helvetica,sans-Serif" font-size="10.00">juce::TextEditor::isCaret</text>
<text xml:space="preserve" text-anchor="middle" x="585.5" y="-139.75" font-family="Helvetica,sans-Serif" font-size="10.00">Visible</text>
</a>
</g>
</g>
<!-- Node23&#45;&gt;Node28 -->
<g id="edge14_Node000023_Node000028" class="edge">
<title>Node23&#45;&gt;Node28</title>
<g id="a_edge14_Node000023_Node000028"><a xlink:title=" ">
<path fill="none" stroke="#63b8ff" d="M460.58,-157.32C478.05,-156.18 497.27,-154.93 515.24,-153.76"/>
<polygon fill="#63b8ff" stroke="#63b8ff" points="515.28,-157.27 525.03,-153.12 514.83,-150.28 515.28,-157.27"/>
</a>
</g>
</g>
<!-- Node31 -->
<g id="Node000031" class="node">
<title>Node31</title>
<g id="a_Node000031"><a xlink:href="classjuce_1_1TextEditor.html#a744067197ef652bb3601f67d765eb7c8" target="_top" xlink:title=" ">
<polygon fill="#fff0f0" stroke="red" points="643.38,-97.5 527.62,-97.5 527.62,-67 643.38,-67 643.38,-97.5"/>
<text xml:space="preserve" text-anchor="start" x="535.62" y="-84" font-family="Helvetica,sans-Serif" font-size="10.00">juce::TextEditor::update</text>
<text xml:space="preserve" text-anchor="middle" x="585.5" y="-72.75" font-family="Helvetica,sans-Serif" font-size="10.00">CaretPosition</text>
</a>
</g>
</g>
<!-- Node23&#45;&gt;Node31 -->
<g id="edge17_Node000023_Node000031" class="edge">
<title>Node23&#45;&gt;Node31</title>
<g id="a_edge17_Node000023_Node000031"><a xlink:title=" ">
<path fill="none" stroke="#63b8ff" d="M449.37,-145.58C457.66,-142.65 466.12,-139.49 474,-136.25 497.98,-126.37 524.09,-113.71 544.9,-103.13"/>
<polygon fill="#63b8ff" stroke="#63b8ff" points="546.31,-106.34 553.61,-98.66 543.12,-100.11 546.31,-106.34"/>
</a>
</g>
</g>
<!-- Node24&#45;&gt;Node24 -->
<g id="edge13_Node000024_Node000024" class="edge">
<title>Node24&#45;&gt;Node24</title>
<g id="a_edge13_Node000024_Node000024"><a xlink:title=" ">
<path fill="none" stroke="#63b8ff" d="M552.5,-231.99C545.76,-241.06 556.76,-249.5 585.5,-249.5 601.22,-249.5 611.63,-246.97 616.73,-243.2"/>
<polygon fill="#63b8ff" stroke="#63b8ff" points="620.17,-243.9 618.27,-233.48 613.25,-242.81 620.17,-243.9"/>
</a>
</g>
</g>
<!-- Node28&#45;&gt;Node28 -->
<g id="edge15_Node000028_Node000028" class="edge">
<title>Node28&#45;&gt;Node28</title>
<g id="a_edge15_Node000028_Node000028"><a xlink:title=" ">
<path fill="none" stroke="#63b8ff" d="M552.5,-164.99C545.76,-174.06 556.76,-182.5 585.5,-182.5 601.22,-182.5 611.63,-179.97 616.73,-176.2"/>
<polygon fill="#63b8ff" stroke="#63b8ff" points="620.17,-176.9 618.27,-166.48 613.25,-175.81 620.17,-176.9"/>
</a>
</g>
</g>
<!-- Node31&#45;&gt;Node31 -->
<g id="edge18_Node000031_Node000031" class="edge">
<title>Node31&#45;&gt;Node31</title>
<g id="a_edge18_Node000031_Node000031"><a xlink:title=" ">
<path fill="none" stroke="#63b8ff" d="M552.5,-97.99C545.76,-107.06 556.76,-115.5 585.5,-115.5 601.22,-115.5 611.63,-112.97 616.73,-109.2"/>
<polygon fill="#63b8ff" stroke="#63b8ff" points="620.17,-109.9 618.27,-99.48 613.25,-108.81 620.17,-109.9"/>
</a>
</g>
</g>
<!-- Node49&#45;&gt;Node49 -->
<g id="edge20_Node000049_Node000049" class="edge">
<title>Node49&#45;&gt;Node49</title>
<g id="a_edge20_Node000049_Node000049"><a xlink:title=" ">
<path fill="none" stroke="#63b8ff" d="M368.11,-109.99C361.75,-119.06 372.13,-127.5 399.25,-127.5 414.08,-127.5 423.9,-124.97 428.72,-121.2"/>
<polygon fill="#63b8ff" stroke="#63b8ff" points="432.16,-121.89 430.17,-111.48 425.24,-120.86 432.16,-121.89"/>
</a>
</g>
</g>
<!-- Node50 -->
<g id="Node000050" class="node">
<title>Node50</title>
<g id="a_Node000050"><a xlink:href="classjuce_1_1Component.html#aceedc525d7b689b85d3f60027418131c" target="_top" xlink:title=" ">
<polygon fill="#fff0f0" stroke="red" points="661,-30.5 510,-30.5 510,0 661,0 661,-30.5"/>
<text xml:space="preserve" text-anchor="start" x="518" y="-17" font-family="Helvetica,sans-Serif" font-size="10.00">juce::Component::updateMouse</text>
<text xml:space="preserve" text-anchor="middle" x="585.5" y="-5.75" font-family="Helvetica,sans-Serif" font-size="10.00">Cursor</text>
</a>
</g>
</g>
<!-- Node49&#45;&gt;Node50 -->
<g id="edge21_Node000049_Node000050" class="edge">
<title>Node49&#45;&gt;Node50</title>
<g id="a_edge21_Node000049_Node000050"><a xlink:title=" ">
<path fill="none" stroke="#63b8ff" d="M449.37,-78.58C457.66,-75.65 466.12,-72.49 474,-69.25 497.98,-59.37 524.09,-46.71 544.9,-36.13"/>
<polygon fill="#63b8ff" stroke="#63b8ff" points="546.31,-39.34 553.61,-31.66 543.12,-33.11 546.31,-39.34"/>
</a>
</g>
</g>
<!-- Node50&#45;&gt;Node50 -->
<g id="edge22_Node000050_Node000050" class="edge">
<title>Node50&#45;&gt;Node50</title>
<g id="a_edge22_Node000050_Node000050"><a xlink:title=" ">
<path fill="none" stroke="#63b8ff" d="M552.5,-30.99C545.76,-40.06 556.76,-48.5 585.5,-48.5 601.22,-48.5 611.63,-45.97 616.73,-42.2"/>
<polygon fill="#63b8ff" stroke="#63b8ff" points="620.17,-42.9 618.27,-32.48 613.25,-41.81 620.17,-42.9"/>
</a>
</g>
</g>
<!-- Node51&#45;&gt;Node51 -->
<g id="edge24_Node000051_Node000051" class="edge">
<title>Node51&#45;&gt;Node51</title>
<g id="a_edge24_Node000051_Node000051"><a xlink:title=" ">
<path fill="none" stroke="#63b8ff" d="M368.11,-42.99C361.75,-52.06 372.13,-60.5 399.25,-60.5 414.08,-60.5 423.9,-57.97 428.72,-54.2"/>
<polygon fill="#63b8ff" stroke="#63b8ff" points="432.16,-54.89 430.17,-44.48 425.24,-53.86 432.16,-54.89"/>
</a>
</g>
</g>
</g>
</svg>
