<?xml version="1.0" encoding="UTF-8" standalone="no"?>
<!DOCTYPE svg PUBLIC "-//W3C//DTD SVG 1.1//EN"
 "http://www.w3.org/Graphics/SVG/1.1/DTD/svg11.dtd">
<!-- Generated by graphviz version 14.0.2 (0)
 -->
<!-- Title: juce::TextEditor::Iterator::getTextBounds Pages: 1 -->
<svg width="620pt" height="455pt"
 viewBox="0.00 0.00 620.00 455.00" xmlns="http://www.w3.org/2000/svg" xmlns:xlink="http://www.w3.org/1999/xlink">
<g id="graph0" class="graph" transform="scale(1 1) rotate(0) translate(4 451.25)">
<title>juce::TextEditor::Iterator::getTextBounds</title>
<!-- Node1 -->
<g id="Node000001" class="node">
<title>Node1</title>
<g id="a_Node000001"><a xlink:title=" ">
<polygon fill="#999999" stroke="#666666" points="117.25,-314.88 0,-314.88 0,-284.38 117.25,-284.38 117.25,-314.88"/>
<text xml:space="preserve" text-anchor="start" x="8" y="-301.38" font-family="Helvetica,sans-Serif" font-size="10.00">juce::TextEditor::Iterator</text>
<text xml:space="preserve" text-anchor="middle" x="58.62" y="-290.12" font-family="Helvetica,sans-Serif" font-size="10.00">::getTextBounds</text>
</a>
</g>
</g>
<!-- Node2 -->
<g id="Node000002" class="node">
<title>Node2</title>
<g id="a_Node000002"><a xlink:href="classjuce_1_1Range.html#a44413a19310d5f14be8d6ece2feedc01" target="_top" xlink:title=" ">
<polygon fill="white" stroke="#666666" points="272.75,-374.25 172,-374.25 172,-355 272.75,-355 272.75,-374.25"/>
<text xml:space="preserve" text-anchor="middle" x="222.38" y="-360.75" font-family="Helvetica,sans-Serif" font-size="10.00">juce::Range::getEnd</text>
</a>
</g>
</g>
<!-- Node1&#45;&gt;Node2 -->
<g id="edge1_Node000001_Node000002" class="edge">
<title>Node1&#45;&gt;Node2</title>
<g id="a_edge1_Node000001_Node000002"><a xlink:title=" ">
<path fill="none" stroke="#63b8ff" d="M88.11,-315.33C106.35,-324.96 130.74,-337.04 153.25,-345.62 158.56,-347.65 164.18,-349.57 169.83,-351.34"/>
<polygon fill="#63b8ff" stroke="#63b8ff" points="168.6,-354.63 179.18,-354.15 170.61,-347.92 168.6,-354.63"/>
</a>
</g>
</g>
<!-- Node3 -->
<g id="Node000003" class="node">
<title>Node3</title>
<g id="a_Node000003"><a xlink:href="classjuce_1_1Rectangle.html#a3812aee87fcd016b84ed8e939c39e636" target="_top" xlink:title=" ">
<polygon fill="white" stroke="#666666" points="291.5,-336.88 153.25,-336.88 153.25,-306.38 291.5,-306.38 291.5,-336.88"/>
<text xml:space="preserve" text-anchor="start" x="161.25" y="-323.38" font-family="Helvetica,sans-Serif" font-size="10.00">juce::Rectangle::getSmallest</text>
<text xml:space="preserve" text-anchor="middle" x="222.38" y="-312.12" font-family="Helvetica,sans-Serif" font-size="10.00">IntegerContainer</text>
</a>
</g>
</g>
<!-- Node1&#45;&gt;Node3 -->
<g id="edge2_Node000001_Node000003" class="edge">
<title>Node1&#45;&gt;Node3</title>
<g id="a_edge2_Node000001_Node000003"><a xlink:title=" ">
<path fill="none" stroke="#63b8ff" d="M117.56,-307.51C125.33,-308.56 133.4,-309.66 141.46,-310.75"/>
<polygon fill="#63b8ff" stroke="#63b8ff" points="140.93,-314.22 151.31,-312.09 141.87,-307.28 140.93,-314.22"/>
</a>
</g>
</g>
<!-- Node8 -->
<g id="Node000008" class="node">
<title>Node8</title>
<g id="a_Node000008"><a xlink:href="classjuce_1_1Range.html#a06f05db7a87b8e7e782b6c535c0c439b" target="_top" xlink:title=" ">
<polygon fill="white" stroke="#666666" points="275,-288.25 169.75,-288.25 169.75,-269 275,-269 275,-288.25"/>
<text xml:space="preserve" text-anchor="middle" x="222.38" y="-274.75" font-family="Helvetica,sans-Serif" font-size="10.00">juce::Range::getStart</text>
</a>
</g>
</g>
<!-- Node1&#45;&gt;Node8 -->
<g id="edge11_Node000001_Node000008" class="edge">
<title>Node1&#45;&gt;Node8</title>
<g id="a_edge11_Node000001_Node000008"><a xlink:title=" ">
<path fill="none" stroke="#63b8ff" d="M117.56,-292.1C130.81,-290.38 144.94,-288.55 158.39,-286.8"/>
<polygon fill="#63b8ff" stroke="#63b8ff" points="158.52,-290.32 167.98,-285.56 157.61,-283.37 158.52,-290.32"/>
</a>
</g>
</g>
<!-- Node9 -->
<g id="Node000009" class="node">
<title>Node9</title>
<g id="a_Node000009"><a xlink:href="structjuce_1_1TextEditor_1_1Iterator.html#ac08c45cc1f95525029e6d14bbc97cfe6" target="_top" xlink:title=" ">
<polygon fill="white" stroke="#666666" points="281,-141.88 163.75,-141.88 163.75,-111.38 281,-111.38 281,-141.88"/>
<text xml:space="preserve" text-anchor="start" x="171.75" y="-128.38" font-family="Helvetica,sans-Serif" font-size="10.00">juce::TextEditor::Iterator</text>
<text xml:space="preserve" text-anchor="middle" x="222.38" y="-117.12" font-family="Helvetica,sans-Serif" font-size="10.00">::indexToX</text>
</a>
</g>
</g>
<!-- Node1&#45;&gt;Node9 -->
<g id="edge12_Node000001_Node000009" class="edge">
<title>Node1&#45;&gt;Node9</title>
<g id="a_edge12_Node000001_Node000009"><a xlink:title=" ">
<path fill="none" stroke="#63b8ff" d="M74.26,-283.97C102.7,-253.55 165.56,-186.32 199.17,-150.38"/>
<polygon fill="#63b8ff" stroke="#63b8ff" points="201.35,-153.17 205.62,-143.48 196.23,-148.39 201.35,-153.17"/>
</a>
</g>
</g>
<!-- Node4 -->
<g id="Node000004" class="node">
<title>Node4</title>
<g id="a_Node000004"><a xlink:href="namespacejuce_1_1detail.html#ab23acb24b76aafebe3c0af08570be571" target="_top" xlink:title=" ">
<polygon fill="white" stroke="#666666" points="439.12,-429.25 334.62,-429.25 334.62,-410 439.12,-410 439.12,-429.25"/>
<text xml:space="preserve" text-anchor="middle" x="386.88" y="-415.75" font-family="Helvetica,sans-Serif" font-size="10.00">juce::detail::ceilAsInt</text>
</a>
</g>
</g>
<!-- Node3&#45;&gt;Node4 -->
<g id="edge3_Node000003_Node000004" class="edge">
<title>Node3&#45;&gt;Node4</title>
<g id="a_edge3_Node000003_Node000004"><a xlink:title=" ">
<path fill="none" stroke="#63b8ff" d="M278.28,-337.23C282.98,-339.65 287.47,-342.44 291.5,-345.62 314.71,-363.98 303.93,-383.74 327.5,-401.62 328.66,-402.51 329.87,-403.35 331.12,-404.15"/>
<polygon fill="#63b8ff" stroke="#63b8ff" points="329.41,-407.2 339.88,-408.8 332.69,-401.02 329.41,-407.2"/>
</a>
</g>
</g>
<!-- Node5 -->
<g id="Node000005" class="node">
<title>Node5</title>
<g id="a_Node000005"><a xlink:href="namespacejuce_1_1detail.html#a19d50b4c73b70417d55cf027b8a4adca" target="_top" xlink:title=" ">
<polygon fill="white" stroke="#666666" points="440.62,-374.25 333.12,-374.25 333.12,-355 440.62,-355 440.62,-374.25"/>
<text xml:space="preserve" text-anchor="middle" x="386.88" y="-360.75" font-family="Helvetica,sans-Serif" font-size="10.00">juce::detail::floorAsInt</text>
</a>
</g>
</g>
<!-- Node3&#45;&gt;Node5 -->
<g id="edge5_Node000003_Node000005" class="edge">
<title>Node3&#45;&gt;Node5</title>
<g id="a_edge5_Node000003_Node000005"><a xlink:title=" ">
<path fill="none" stroke="#63b8ff" d="M282.5,-337.27C300.37,-342 319.78,-347.13 336.9,-351.67"/>
<polygon fill="#63b8ff" stroke="#63b8ff" points="335.76,-354.98 346.33,-354.16 337.55,-348.22 335.76,-354.98"/>
</a>
</g>
</g>
<!-- Node6 -->
<g id="Node000006" class="node">
<title>Node6</title>
<g id="a_Node000006"><a xlink:href="classjuce_1_1Rectangle.html#a495e4452c3af0188055c1d852409f2c5" target="_top" xlink:title=" ">
<polygon fill="white" stroke="#666666" points="445.12,-336.88 328.62,-336.88 328.62,-306.38 445.12,-306.38 445.12,-336.88"/>
<text xml:space="preserve" text-anchor="start" x="336.62" y="-323.38" font-family="Helvetica,sans-Serif" font-size="10.00">juce::Rectangle::leftTop</text>
<text xml:space="preserve" text-anchor="middle" x="386.88" y="-312.12" font-family="Helvetica,sans-Serif" font-size="10.00">RightBottom</text>
</a>
</g>
</g>
<!-- Node3&#45;&gt;Node6 -->
<g id="edge7_Node000003_Node000006" class="edge">
<title>Node3&#45;&gt;Node6</title>
<g id="a_edge7_Node000003_Node000006"><a xlink:title=" ">
<path fill="none" stroke="#63b8ff" d="M291.82,-321.62C300.17,-321.62 308.7,-321.62 317.05,-321.62"/>
<polygon fill="#63b8ff" stroke="#63b8ff" points="316.79,-325.13 326.79,-321.63 316.79,-318.13 316.79,-325.13"/>
</a>
</g>
</g>
<!-- Node7 -->
<g id="Node000007" class="node">
<title>Node7</title>
<g id="a_Node000007"><a xlink:href="classjuce_1_1Rectangle.html#a9b0852de9d45cf8a1b602ce114984ae1" target="_top" xlink:title=" ">
<polygon fill="white" stroke="#666666" points="612.25,-309.25 482.25,-309.25 482.25,-290 612.25,-290 612.25,-309.25"/>
<text xml:space="preserve" text-anchor="middle" x="547.25" y="-295.75" font-family="Helvetica,sans-Serif" font-size="10.00">juce::Rectangle::Rectangle</text>
</a>
</g>
</g>
<!-- Node3&#45;&gt;Node7 -->
<g id="edge10_Node000003_Node000007" class="edge">
<title>Node3&#45;&gt;Node7</title>
<g id="a_edge10_Node000003_Node000007"><a xlink:title=" ">
<path fill="none" stroke="#63b8ff" d="M281.07,-305.88C296.07,-302.46 312.29,-299.35 327.5,-297.62 374.86,-292.24 428.35,-292.61 470.58,-294.4"/>
<polygon fill="#63b8ff" stroke="#63b8ff" points="470.24,-297.88 480.39,-294.85 470.56,-290.89 470.24,-297.88"/>
</a>
</g>
</g>
<!-- Node4&#45;&gt;Node4 -->
<g id="edge4_Node000004_Node000004" class="edge">
<title>Node4&#45;&gt;Node4</title>
<g id="a_edge4_Node000004_Node000004"><a xlink:title=" ">
<path fill="none" stroke="#63b8ff" d="M361.77,-429.54C350.31,-438.15 358.68,-447.25 386.88,-447.25 402.73,-447.25 412.32,-444.37 415.63,-440.32"/>
<polygon fill="#63b8ff" stroke="#63b8ff" points="418.99,-439.32 412.47,-430.97 412.36,-441.57 418.99,-439.32"/>
</a>
</g>
</g>
<!-- Node5&#45;&gt;Node5 -->
<g id="edge6_Node000005_Node000005" class="edge">
<title>Node5&#45;&gt;Node5</title>
<g id="a_edge6_Node000005_Node000005"><a xlink:title=" ">
<path fill="none" stroke="#63b8ff" d="M361.77,-374.54C350.31,-383.15 358.68,-392.25 386.88,-392.25 402.73,-392.25 412.32,-389.37 415.63,-385.32"/>
<polygon fill="#63b8ff" stroke="#63b8ff" points="418.99,-384.32 412.47,-375.97 412.36,-386.57 418.99,-384.32"/>
</a>
</g>
</g>
<!-- Node6&#45;&gt;Node7 -->
<g id="edge8_Node000006_Node000007" class="edge">
<title>Node6&#45;&gt;Node7</title>
<g id="a_edge8_Node000006_Node000007"><a xlink:title=" ">
<path fill="none" stroke="#63b8ff" d="M445.5,-313.62C453.74,-312.48 462.32,-311.28 470.84,-310.1"/>
<polygon fill="#63b8ff" stroke="#63b8ff" points="471.05,-313.61 480.47,-308.76 470.08,-306.67 471.05,-313.61"/>
</a>
</g>
</g>
<!-- Node7&#45;&gt;Node7 -->
<g id="edge9_Node000007_Node000007" class="edge">
<title>Node7&#45;&gt;Node7</title>
<g id="a_edge9_Node000007_Node000007"><a xlink:title=" ">
<path fill="none" stroke="#63b8ff" d="M522.14,-309.54C510.69,-318.15 519.06,-327.25 547.25,-327.25 563.11,-327.25 572.69,-324.37 576.01,-320.32"/>
<polygon fill="#63b8ff" stroke="#63b8ff" points="579.37,-319.32 572.84,-310.97 572.73,-321.57 579.37,-319.32"/>
</a>
</g>
</g>
<!-- Node10 -->
<g id="Node000010" class="node">
<title>Node10</title>
<g id="a_Node000010"><a xlink:href="classjuce_1_1GlyphArrangement.html#a16ab159728c12d4ef201d56a3fe487cc" target="_top" xlink:title=" ">
<polygon fill="white" stroke="#666666" points="446.25,-232.88 327.5,-232.88 327.5,-202.38 446.25,-202.38 446.25,-232.88"/>
<text xml:space="preserve" text-anchor="start" x="335.5" y="-219.38" font-family="Helvetica,sans-Serif" font-size="10.00">juce::GlyphArrangement</text>
<text xml:space="preserve" text-anchor="middle" x="386.88" y="-208.12" font-family="Helvetica,sans-Serif" font-size="10.00">::addLineOfText</text>
</a>
</g>
</g>
<!-- Node9&#45;&gt;Node10 -->
<g id="edge13_Node000009_Node000010" class="edge">
<title>Node9&#45;&gt;Node10</title>
<g id="a_edge13_Node000009_Node000010"><a xlink:title=" ">
<path fill="none" stroke="#63b8ff" d="M245.5,-142.12C266.17,-156.23 298.15,-177.17 327.5,-192.62 330.38,-194.14 333.37,-195.64 336.41,-197.11"/>
<polygon fill="#63b8ff" stroke="#63b8ff" points="334.93,-200.28 345.47,-201.3 337.87,-193.93 334.93,-200.28"/>
</a>
</g>
</g>
<!-- Node20 -->
<g id="Node000020" class="node">
<title>Node20</title>
<g id="a_Node000020"><a xlink:href="classjuce_1_1GlyphArrangement.html#aa10632dc370eb26ad15f3fa5ffa18365" target="_top" xlink:title=" ">
<polygon fill="white" stroke="#666666" points="446.25,-165.88 327.5,-165.88 327.5,-135.38 446.25,-135.38 446.25,-165.88"/>
<text xml:space="preserve" text-anchor="start" x="335.5" y="-152.38" font-family="Helvetica,sans-Serif" font-size="10.00">juce::GlyphArrangement</text>
<text xml:space="preserve" text-anchor="middle" x="386.88" y="-141.12" font-family="Helvetica,sans-Serif" font-size="10.00">::getGlyph</text>
</a>
</g>
</g>
<!-- Node9&#45;&gt;Node20 -->
<g id="edge17_Node000009_Node000020" class="edge">
<title>Node9&#45;&gt;Node20</title>
<g id="a_edge17_Node000009_Node000020"><a xlink:title=" ">
<path fill="none" stroke="#63b8ff" d="M281.12,-135.15C292.46,-136.83 304.47,-138.6 316.15,-140.33"/>
<polygon fill="#63b8ff" stroke="#63b8ff" points="315.31,-143.74 325.72,-141.74 316.34,-136.82 315.31,-143.74"/>
</a>
</g>
</g>
<!-- Node21 -->
<g id="Node000021" class="node">
<title>Node21</title>
<g id="a_Node000021"><a xlink:href="classjuce_1_1PositionedGlyph.html#ac98e18482d676be9a0ec23da03fad6c1" target="_top" xlink:title=" ">
<polygon fill="white" stroke="#666666" points="441.38,-116.88 332.38,-116.88 332.38,-86.38 441.38,-86.38 441.38,-116.88"/>
<text xml:space="preserve" text-anchor="start" x="340.38" y="-103.38" font-family="Helvetica,sans-Serif" font-size="10.00">juce::PositionedGlyph</text>
<text xml:space="preserve" text-anchor="middle" x="386.88" y="-92.12" font-family="Helvetica,sans-Serif" font-size="10.00">::getLeft</text>
</a>
</g>
</g>
<!-- Node9&#45;&gt;Node21 -->
<g id="edge19_Node000009_Node000021" class="edge">
<title>Node9&#45;&gt;Node21</title>
<g id="a_edge19_Node000009_Node000021"><a xlink:title=" ">
<path fill="none" stroke="#63b8ff" d="M281.12,-117.74C293.97,-115.76 307.66,-113.66 320.78,-111.64"/>
<polygon fill="#63b8ff" stroke="#63b8ff" points="321.27,-115.11 330.62,-110.13 320.2,-108.19 321.27,-115.11"/>
</a>
</g>
</g>
<!-- Node22 -->
<g id="Node000022" class="node">
<title>Node22</title>
<g id="a_Node000022"><a xlink:href="classjuce_1_1GlyphArrangement.html#a626cfa170664a7bba1ddb4bd0dbb77c5" target="_top" xlink:title=" ">
<polygon fill="white" stroke="#666666" points="446.25,-67.88 327.5,-67.88 327.5,-37.38 446.25,-37.38 446.25,-67.88"/>
<text xml:space="preserve" text-anchor="start" x="335.5" y="-54.38" font-family="Helvetica,sans-Serif" font-size="10.00">juce::GlyphArrangement</text>
<text xml:space="preserve" text-anchor="middle" x="386.88" y="-43.12" font-family="Helvetica,sans-Serif" font-size="10.00">::getNumGlyphs</text>
</a>
</g>
</g>
<!-- Node9&#45;&gt;Node22 -->
<g id="edge20_Node000009_Node000022" class="edge">
<title>Node9&#45;&gt;Node22</title>
<g id="a_edge20_Node000009_Node000022"><a xlink:title=" ">
<path fill="none" stroke="#63b8ff" d="M256.07,-110.88C276.51,-101.12 303.44,-88.43 327.5,-77.62 331.03,-76.04 334.68,-74.42 338.36,-72.81"/>
<polygon fill="#63b8ff" stroke="#63b8ff" points="339.57,-76.1 347.34,-68.9 336.78,-69.68 339.57,-76.1"/>
</a>
</g>
</g>
<!-- Node23 -->
<g id="Node000023" class="node">
<title>Node23</title>
<g id="a_Node000023"><a xlink:href="CarlaEngineGraph_8cpp.html#a51eb9b3403bff872a24b0b65fcf49b62" target="_top" xlink:title=" ">
<polygon fill="white" stroke="#666666" points="403.88,-19.25 369.88,-19.25 369.88,0 403.88,0 403.88,-19.25"/>
<text xml:space="preserve" text-anchor="middle" x="386.88" y="-5.75" font-family="Helvetica,sans-Serif" font-size="10.00">jmin</text>
</a>
</g>
</g>
<!-- Node9&#45;&gt;Node23 -->
<g id="edge21_Node000009_Node000023" class="edge">
<title>Node9&#45;&gt;Node23</title>
<g id="a_edge21_Node000009_Node000023"><a xlink:title=" ">
<path fill="none" stroke="#63b8ff" d="M235.9,-111.15C253.99,-89.73 289.48,-51.15 327.5,-28.62 337.03,-22.98 348.44,-18.79 358.63,-15.8"/>
<polygon fill="#63b8ff" stroke="#63b8ff" points="359.23,-19.26 368,-13.31 357.43,-12.5 359.23,-19.26"/>
</a>
</g>
</g>
<!-- Node10&#45;&gt;Node10 -->
<g id="edge16_Node000010_Node000010" class="edge">
<title>Node10&#45;&gt;Node10</title>
<g id="a_edge16_Node000010_Node000010"><a xlink:title=" ">
<path fill="none" stroke="#63b8ff" d="M358.46,-233.36C352.66,-242.43 362.13,-250.88 386.88,-250.88 400.41,-250.88 409.37,-248.35 413.77,-244.58"/>
<polygon fill="#63b8ff" stroke="#63b8ff" points="417.21,-245.24 415.09,-234.86 410.28,-244.3 417.21,-245.24"/>
</a>
</g>
</g>
<!-- Node11 -->
<g id="Node000011" class="node">
<title>Node11</title>
<g id="a_Node000011"><a xlink:href="classjuce_1_1GlyphArrangement.html#a86cf501510b26e2f15eda1a7820825be" target="_top" xlink:title=" ">
<polygon fill="#fff0f0" stroke="red" points="608.5,-232.88 486,-232.88 486,-202.38 608.5,-202.38 608.5,-232.88"/>
<text xml:space="preserve" text-anchor="start" x="494" y="-219.38" font-family="Helvetica,sans-Serif" font-size="10.00">juce::GlyphArrangement</text>
<text xml:space="preserve" text-anchor="middle" x="547.25" y="-208.12" font-family="Helvetica,sans-Serif" font-size="10.00">::addCurtailedLineOfText</text>
</a>
</g>
</g>
<!-- Node10&#45;&gt;Node11 -->
<g id="edge14_Node000010_Node000011" class="edge">
<title>Node10&#45;&gt;Node11</title>
<g id="a_edge14_Node000010_Node000011"><a xlink:title=" ">
<path fill="none" stroke="#63b8ff" d="M446.4,-217.62C455.48,-217.62 464.96,-217.62 474.29,-217.62"/>
<polygon fill="#63b8ff" stroke="#63b8ff" points="474.07,-221.13 484.07,-217.63 474.07,-214.13 474.07,-221.13"/>
</a>
</g>
</g>
<!-- Node11&#45;&gt;Node11 -->
<g id="edge15_Node000011_Node000011" class="edge">
<title>Node11&#45;&gt;Node11</title>
<g id="a_edge15_Node000011_Node000011"><a xlink:title=" ">
<path fill="none" stroke="#63b8ff" d="M518.83,-233.36C513.03,-242.43 522.5,-250.88 547.25,-250.88 560.78,-250.88 569.75,-248.35 574.15,-244.58"/>
<polygon fill="#63b8ff" stroke="#63b8ff" points="577.59,-245.24 575.46,-234.86 570.65,-244.3 577.59,-245.24"/>
</a>
</g>
</g>
<!-- Node20&#45;&gt;Node20 -->
<g id="edge18_Node000020_Node000020" class="edge">
<title>Node20&#45;&gt;Node20</title>
<g id="a_edge18_Node000020_Node000020"><a xlink:title=" ">
<path fill="none" stroke="#63b8ff" d="M358.46,-166.36C352.66,-175.43 362.13,-183.88 386.88,-183.88 400.41,-183.88 409.37,-181.35 413.77,-177.58"/>
<polygon fill="#63b8ff" stroke="#63b8ff" points="417.21,-178.24 415.09,-167.86 410.28,-177.3 417.21,-178.24"/>
</a>
</g>
</g>
</g>
</svg>
