<?xml version="1.0" encoding="UTF-8" standalone="no"?>
<!DOCTYPE svg PUBLIC "-//W3C//DTD SVG 1.1//EN"
 "http://www.w3.org/Graphics/SVG/1.1/DTD/svg11.dtd">
<!-- Generated by graphviz version 14.0.2 (0)
 -->
<!-- Title: CheckDlgButton Pages: 1 -->
<svg width="519pt" height="224pt"
 viewBox="0.00 0.00 519.00 224.00" xmlns="http://www.w3.org/2000/svg" xmlns:xlink="http://www.w3.org/1999/xlink">
<g id="graph0" class="graph" transform="scale(1 1) rotate(0) translate(4 220.25)">
<title>CheckDlgButton</title>
<!-- Node1 -->
<g id="Node000001" class="node">
<title>Node1</title>
<g id="a_Node000001"><a xlink:title=" ">
<polygon fill="#999999" stroke="#666666" points="86.5,-132.25 0,-132.25 0,-113 86.5,-113 86.5,-132.25"/>
<text xml:space="preserve" text-anchor="middle" x="43.25" y="-118.75" font-family="Helvetica,sans-Serif" font-size="10.00">CheckDlgButton</text>
</a>
</g>
</g>
<!-- Node2 -->
<g id="Node000002" class="node">
<title>Node2</title>
<g id="a_Node000002"><a xlink:href="swell-wnd-generic_8cpp.html#a6dc1f6b5a5b14a4781d1f84cd167d2b6" target="_top" xlink:title=" ">
<polygon fill="white" stroke="#666666" points="194.38,-160.25 128.88,-160.25 128.88,-141 194.38,-141 194.38,-160.25"/>
<text xml:space="preserve" text-anchor="middle" x="161.62" y="-146.75" font-family="Helvetica,sans-Serif" font-size="10.00">GetDlgItem</text>
</a>
</g>
</g>
<!-- Node1&#45;&gt;Node2 -->
<g id="edge1_Node000001_Node000002" class="edge">
<title>Node1&#45;&gt;Node2</title>
<g id="a_edge1_Node000001_Node000002"><a xlink:title=" ">
<path fill="none" stroke="#63b8ff" d="M86.26,-132.73C96.39,-135.17 107.22,-137.78 117.4,-140.22"/>
<polygon fill="#63b8ff" stroke="#63b8ff" points="116.52,-143.61 127.06,-142.55 118.16,-136.81 116.52,-143.61"/>
</a>
</g>
</g>
<!-- Node3 -->
<g id="Node000003" class="node">
<title>Node3</title>
<g id="a_Node000003"><a xlink:href="swell-wnd-generic_8cpp.html#a537896102f72fccac52d89bc5ae3f825" target="_top" xlink:title=" ">
<polygon fill="white" stroke="#666666" points="200.75,-105.25 122.5,-105.25 122.5,-86 200.75,-86 200.75,-105.25"/>
<text xml:space="preserve" text-anchor="middle" x="161.62" y="-91.75" font-family="Helvetica,sans-Serif" font-size="10.00">SendMessage</text>
</a>
</g>
</g>
<!-- Node1&#45;&gt;Node3 -->
<g id="edge2_Node000001_Node000003" class="edge">
<title>Node1&#45;&gt;Node3</title>
<g id="a_edge2_Node000001_Node000003"><a xlink:title=" ">
<path fill="none" stroke="#63b8ff" d="M86.92,-112.72C94.77,-110.9 103.03,-108.99 111.06,-107.13"/>
<polygon fill="#63b8ff" stroke="#63b8ff" points="111.77,-110.55 120.72,-104.88 110.19,-103.73 111.77,-110.55"/>
</a>
</g>
</g>
<!-- Node3&#45;&gt;Node3 -->
<g id="edge9_Node000003_Node000003" class="edge">
<title>Node3&#45;&gt;Node3</title>
<g id="a_edge9_Node000003_Node000003"><a xlink:title=" ">
<path fill="none" stroke="#63b8ff" d="M143.09,-105.54C134.64,-114.15 140.82,-123.25 161.62,-123.25 173,-123.25 180.01,-120.53 182.64,-116.65"/>
<polygon fill="#63b8ff" stroke="#63b8ff" points="186.08,-116.01 180.49,-107.02 179.25,-117.54 186.08,-116.01"/>
</a>
</g>
</g>
<!-- Node4 -->
<g id="Node000004" class="node">
<title>Node4</title>
<g id="a_Node000004"><a xlink:href="swell-wnd-generic_8cpp.html#a573bbc1db92c75e1701eb31e90b3a939" target="_top" xlink:title=" ">
<polygon fill="white" stroke="#666666" points="331.12,-216.25 265.62,-216.25 265.62,-197 331.12,-197 331.12,-216.25"/>
<text xml:space="preserve" text-anchor="middle" x="298.38" y="-202.75" font-family="Helvetica,sans-Serif" font-size="10.00">GetCapture</text>
</a>
</g>
</g>
<!-- Node3&#45;&gt;Node4 -->
<g id="edge3_Node000003_Node000004" class="edge">
<title>Node3&#45;&gt;Node4</title>
<g id="a_edge3_Node000003_Node000004"><a xlink:title=" ">
<path fill="none" stroke="#63b8ff" d="M174.72,-105.64C182.61,-112.5 192.88,-122.07 200.75,-131.62 219.79,-154.76 212.86,-170.54 236.75,-188.62 242.02,-192.62 248.17,-195.73 254.48,-198.15"/>
<polygon fill="#63b8ff" stroke="#63b8ff" points="253.12,-201.38 263.71,-201.14 255.28,-194.73 253.12,-201.38"/>
</a>
</g>
</g>
<!-- Node5 -->
<g id="Node000005" class="node">
<title>Node5</title>
<g id="a_Node000005"><a xlink:href="swell-dlg-generic_8cpp.html#a7e1b4a5bd6365e8f728b811f4322ba3c" target="_top" xlink:title=" ">
<polygon fill="white" stroke="#666666" points="345.38,-179.25 251.38,-179.25 251.38,-160 345.38,-160 345.38,-179.25"/>
<text xml:space="preserve" text-anchor="middle" x="298.38" y="-165.75" font-family="Helvetica,sans-Serif" font-size="10.00">IsModalDialogBox</text>
</a>
</g>
</g>
<!-- Node3&#45;&gt;Node5 -->
<g id="edge4_Node000003_Node000005" class="edge">
<title>Node3&#45;&gt;Node5</title>
<g id="a_edge4_Node000003_Node000005"><a xlink:title=" ">
<path fill="none" stroke="#63b8ff" d="M173.33,-105.72C187.04,-118.14 211.99,-139.12 236.75,-151.62 239.6,-153.06 242.58,-154.41 245.63,-155.66"/>
<polygon fill="#63b8ff" stroke="#63b8ff" points="244.15,-158.84 254.74,-159.04 246.59,-152.28 244.15,-158.84"/>
</a>
</g>
</g>
<!-- Node6 -->
<g id="Node000006" class="node">
<title>Node6</title>
<g id="a_Node000006"><a xlink:href="swell-wnd-generic_8cpp.html#acb3dac4a5309e91a05306cee61f61546" target="_top" xlink:title=" ">
<polygon fill="white" stroke="#666666" points="325.5,-142.25 271.25,-142.25 271.25,-123 325.5,-123 325.5,-142.25"/>
<text xml:space="preserve" text-anchor="middle" x="298.38" y="-128.75" font-family="Helvetica,sans-Serif" font-size="10.00">KillTimer</text>
</a>
</g>
</g>
<!-- Node3&#45;&gt;Node6 -->
<g id="edge5_Node000003_Node000006" class="edge">
<title>Node3&#45;&gt;Node6</title>
<g id="a_edge5_Node000003_Node000006"><a xlink:title=" ">
<path fill="none" stroke="#63b8ff" d="M199.45,-105.74C218.25,-110.9 241.08,-117.17 259.96,-122.35"/>
<polygon fill="#63b8ff" stroke="#63b8ff" points="258.82,-125.67 269.39,-124.94 260.68,-118.92 258.82,-125.67"/>
</a>
</g>
</g>
<!-- Node8 -->
<g id="Node000008" class="node">
<title>Node8</title>
<g id="a_Node000008"><a xlink:href="swell-wnd-generic_8cpp.html#ad732ab2d02b005bb975b775b82275917" target="_top" xlink:title=" ">
<polygon fill="white" stroke="#666666" points="340.88,-105.25 255.88,-105.25 255.88,-86 340.88,-86 340.88,-105.25"/>
<text xml:space="preserve" text-anchor="middle" x="298.38" y="-91.75" font-family="Helvetica,sans-Serif" font-size="10.00">ReleaseCapture</text>
</a>
</g>
</g>
<!-- Node3&#45;&gt;Node8 -->
<g id="edge7_Node000003_Node000008" class="edge">
<title>Node3&#45;&gt;Node8</title>
<g id="a_edge7_Node000003_Node000008"><a xlink:title=" ">
<path fill="none" stroke="#63b8ff" d="M201.24,-89.45C214.62,-88.88 229.86,-88.73 244.2,-89.01"/>
<polygon fill="#63b8ff" stroke="#63b8ff" points="243.85,-92.5 253.94,-89.28 244.04,-85.5 243.85,-92.5"/>
</a>
</g>
</g>
<!-- Node9 -->
<g id="Node000009" class="node">
<title>Node9</title>
<g id="a_Node000009"><a xlink:href="swell-wnd-generic_8cpp.html#a9fbf8c93d3aa14a91adcc7c08bb12ca9" target="_top" xlink:title=" ">
<polygon fill="white" stroke="#666666" points="360,-67.88 236.75,-67.88 236.75,-37.38 360,-37.38 360,-67.88"/>
<text xml:space="preserve" text-anchor="start" x="244.75" y="-54.38" font-family="Helvetica,sans-Serif" font-size="10.00">SWELL_MessageQueue</text>
<text xml:space="preserve" text-anchor="middle" x="298.38" y="-43.12" font-family="Helvetica,sans-Serif" font-size="10.00">_Clear</text>
</a>
</g>
</g>
<!-- Node3&#45;&gt;Node9 -->
<g id="edge10_Node000003_Node000009" class="edge">
<title>Node3&#45;&gt;Node9</title>
<g id="a_edge10_Node000003_Node000009"><a xlink:title=" ">
<path fill="none" stroke="#63b8ff" d="M194.22,-85.54C207.11,-81.43 222.47,-76.53 237.35,-71.78"/>
<polygon fill="#63b8ff" stroke="#63b8ff" points="238.14,-75.2 246.61,-68.83 236.02,-68.53 238.14,-75.2"/>
</a>
</g>
</g>
<!-- Node11 -->
<g id="Node000011" class="node">
<title>Node11</title>
<g id="a_Node000011"><a xlink:href="swell-generic-headless_8cpp.html#aad363f03a5e155848718dbf58ccba510" target="_top" xlink:title=" ">
<polygon fill="white" stroke="#666666" points="356.62,-19.25 240.12,-19.25 240.12,0 356.62,0 356.62,-19.25"/>
<text xml:space="preserve" text-anchor="middle" x="298.38" y="-5.75" font-family="Helvetica,sans-Serif" font-size="10.00">swell_oswindow_focus</text>
</a>
</g>
</g>
<!-- Node3&#45;&gt;Node11 -->
<g id="edge12_Node000003_Node000011" class="edge">
<title>Node3&#45;&gt;Node11</title>
<g id="a_edge12_Node000003_Node000011"><a xlink:title=" ">
<path fill="none" stroke="#63b8ff" d="M171.18,-85.51C184.01,-70.95 209.64,-44.12 236.75,-28.62 239.72,-26.93 242.86,-25.36 246.08,-23.92"/>
<polygon fill="#63b8ff" stroke="#63b8ff" points="247.17,-27.26 255.16,-20.3 244.57,-20.76 247.17,-27.26"/>
</a>
</g>
</g>
<!-- Node7 -->
<g id="Node000007" class="node">
<title>Node7</title>
<g id="a_Node000007"><a xlink:href="swell-wnd-generic_8cpp.html#a986ba7bb1df3e59c6d3ee90174cbf507" target="_top" xlink:title=" ">
<polygon fill="white" stroke="#666666" points="483.25,-142.25 423.75,-142.25 423.75,-123 483.25,-123 483.25,-142.25"/>
<text xml:space="preserve" text-anchor="middle" x="453.5" y="-128.75" font-family="Helvetica,sans-Serif" font-size="10.00">free_timer</text>
</a>
</g>
</g>
<!-- Node6&#45;&gt;Node7 -->
<g id="edge6_Node000006_Node000007" class="edge">
<title>Node6&#45;&gt;Node7</title>
<g id="a_edge6_Node000006_Node000007"><a xlink:title=" ">
<path fill="none" stroke="#63b8ff" d="M325.7,-132.62C349.49,-132.62 384.87,-132.62 412.22,-132.62"/>
<polygon fill="#63b8ff" stroke="#63b8ff" points="411.88,-136.13 421.88,-132.63 411.88,-129.13 411.88,-136.13"/>
</a>
</g>
</g>
<!-- Node8&#45;&gt;Node3 -->
<g id="edge8_Node000008_Node000003" class="edge">
<title>Node8&#45;&gt;Node3</title>
<g id="a_edge8_Node000008_Node000003"><a xlink:title=" ">
<path fill="none" stroke="#63b8ff" d="M255.45,-101.93C241.93,-102.43 226.79,-102.51 212.74,-102.17"/>
<polygon fill="#63b8ff" stroke="#63b8ff" points="212.86,-98.68 202.75,-101.85 212.63,-105.67 212.86,-98.68"/>
</a>
</g>
</g>
<!-- Node10 -->
<g id="Node000010" class="node">
<title>Node10</title>
<g id="a_Node000010"><a xlink:href="swell-wnd-generic_8cpp.html#a617f78f356031123a717fc4045974a9c" target="_top" xlink:title=" ">
<polygon fill="white" stroke="#666666" points="511,-67.88 396,-67.88 396,-37.38 511,-37.38 511,-67.88"/>
<text xml:space="preserve" text-anchor="start" x="404" y="-54.38" font-family="Helvetica,sans-Serif" font-size="10.00">SWELL_Internal_PMQ</text>
<text xml:space="preserve" text-anchor="middle" x="453.5" y="-43.12" font-family="Helvetica,sans-Serif" font-size="10.00">_ClearAllMessages</text>
</a>
</g>
</g>
<!-- Node9&#45;&gt;Node10 -->
<g id="edge11_Node000009_Node000010" class="edge">
<title>Node9&#45;&gt;Node10</title>
<g id="a_edge11_Node000009_Node000010"><a xlink:title=" ">
<path fill="none" stroke="#63b8ff" d="M360.33,-52.62C368.27,-52.62 376.44,-52.62 384.48,-52.62"/>
<polygon fill="#63b8ff" stroke="#63b8ff" points="384.22,-56.13 394.22,-52.63 384.22,-49.13 384.22,-56.13"/>
</a>
</g>
</g>
</g>
</svg>
