<?xml version="1.0" encoding="UTF-8" standalone="no"?>
<!DOCTYPE svg PUBLIC "-//W3C//DTD SVG 1.1//EN"
 "http://www.w3.org/Graphics/SVG/1.1/DTD/svg11.dtd">
<!-- Generated by graphviz version 14.0.2 (0)
 -->
<!-- Title: SetBkColor Pages: 1 -->
<!--zoomable 119 -->

<svg id="main" version="1.1" xmlns="http://www.w3.org/2000/svg" xmlns:xlink="http://www.w3.org/1999/xlink" xml:space="preserve" onload="init(evt)">

<style type="text/css"><![CDATA[
.node, .edge {opacity: 0.7;}
.node.selected, .edge.selected {opacity: 1;}
.edge:hover path { stroke: red; }
.edge:hover polygon { stroke: red; fill: red; }
]]></style>

<defs>
  <circle id="rim" cx="0" cy="0" r="7"/>
  <circle id="rim2" cx="0" cy="0" r="3.5"/>
  <g id="zoomPlus">
    <use xlink:href="#rim" fill="#404040"><set attributeName="fill" to="#808080" begin="zoomplus.mouseover" end="zoomplus.mouseout"/></use>
    <path d="M-4,0h8M0,-4v8" fill="none" stroke="white" stroke-width="1.5" pointer-events="none"/>
  </g>
  <g id="zoomMin">
    <use xlink:href="#rim" fill="#404040"><set attributeName="fill" to="#808080" begin="zoomminus.mouseover" end="zoomminus.mouseout"/></use>
    <path d="M-4,0h8" fill="none" stroke="white" stroke-width="1.5" pointer-events="none"/>
  </g>
  <g id="arrowUp" transform="translate(30 24)">
    <use xlink:href="#rim"/>
    <path pointer-events="none" fill="none" stroke="white" stroke-width="1.5" d="M0,-3.0v7 M-2.5,-0.5L0,-3.0L2.5,-0.5"/>
  </g>
  <g id="arrowRight" transform="rotate(90) translate(36 -43)">
    <use xlink:href="#rim"/>
    <path pointer-events="none" fill="none" stroke="white" stroke-width="1.5" d="M0,-3.0v7 M-2.5,-0.5L0,-3.0L2.5,-0.5"/>
  </g>
  <g id="arrowDown" transform="rotate(180) translate(-30 -48)">
    <use xlink:href="#rim"/>
    <path pointer-events="none" fill="none" stroke="white" stroke-width="1.5" d="M0,-3.0v7 M-2.5,-0.5L0,-3.0L2.5,-0.5"/>
  </g>
  <g id="arrowLeft" transform="rotate(270) translate(-36 17)">
    <use xlink:href="#rim"/>
    <path pointer-events="none" fill="none" stroke="white" stroke-width="1.5" d="M0,-3.0v7 M-2.5,-0.5L0,-3.0L2.5,-0.5"/>
  </g>
  <g id="resetDef">
    <use xlink:href="#rim2" fill="#404040"><set attributeName="fill" to="#808080" begin="reset.mouseover" end="reset.mouseout"/></use>
  </g>
</defs>
<script type="application/ecmascript">
var viewWidth = 678;
var viewHeight = 119;
var sectionId = 'dynsection-59';
</script>
<script type="application/ecmascript" xlink:href="svg.min.js"/>
<svg id="graph" class="graph">
<g id="viewport">
<title>SetBkColor</title>
<!-- Node1 -->
<g id="Node000001" class="node">
<title>Node1</title>
<g id="a_Node000001"><a xlink:title=" ">
<polygon fill="#999999" stroke="#666666" points="670.25,-56.25 604.75,-56.25 604.75,-37 670.25,-37 670.25,-56.25"/>
<text xml:space="preserve" text-anchor="middle" x="637.5" y="-42.75" font-family="Helvetica,sans-Serif" font-size="10.00">SetBkColor</text>
</a>
</g>
</g>
<!-- Node2 -->
<g id="Node000002" class="node">
<title>Node2</title>
<g id="a_Node000002"><a xlink:href="structtreeViewState.html#a175453573b9b9e4d9a95b37aae3ae4ba" target="_top" xlink:title=" ">
<polygon fill="white" stroke="#666666" points="568.75,-93.25 434.25,-93.25 434.25,-74 568.75,-74 568.75,-93.25"/>
<text xml:space="preserve" text-anchor="middle" x="501.5" y="-79.75" font-family="Helvetica,sans-Serif" font-size="10.00">treeViewState::doDrawItem</text>
</a>
</g>
</g>
<!-- Node1&#45;&gt;Node2 -->
<g id="edge1_Node000001_Node000002" class="edge">
<title>Node1&#45;&gt;Node2</title>
<g id="a_edge1_Node000001_Node000002"><a xlink:title=" ">
<path fill="none" stroke="#63b8ff" d="M593.53,-58.73C585.31,-61.03 576.76,-63.41 568.75,-65.62 559.33,-68.23 549.15,-71.01 539.66,-73.59"/>
<polygon fill="#63b8ff" stroke="#63b8ff" points="594.32,-62.15 603.01,-56.08 592.43,-55.41 594.32,-62.15"/>
</a>
</g>
</g>
<!-- Node12 -->
<g id="Node000012" class="node">
<title>Node12</title>
<g id="a_Node000012"><a xlink:href="swell-wnd-generic_8cpp.html#a26f8ab8de93be6ebc4c6d7ec0121d905" target="_top" xlink:title=" ">
<polygon fill="white" stroke="#666666" points="553.38,-56.25 449.62,-56.25 449.62,-37 553.38,-37 553.38,-56.25"/>
<text xml:space="preserve" text-anchor="middle" x="501.5" y="-42.75" font-family="Helvetica,sans-Serif" font-size="10.00">editControlPaintLine</text>
</a>
</g>
</g>
<!-- Node1&#45;&gt;Node12 -->
<g id="edge5_Node000001_Node000012" class="edge">
<title>Node1&#45;&gt;Node12</title>
<g id="a_edge5_Node000001_Node000012"><a xlink:title=" ">
<path fill="none" stroke="#63b8ff" d="M593.25,-46.62C580.64,-46.62 566.74,-46.62 553.69,-46.62"/>
<polygon fill="#63b8ff" stroke="#63b8ff" points="592.89,-50.13 602.89,-46.63 592.89,-43.13 592.89,-50.13"/>
</a>
</g>
</g>
<!-- Node17 -->
<g id="Node000017" class="node">
<title>Node17</title>
<g id="a_Node000017"><a xlink:href="swell-functions_8h.html#a3f653f642963ece55515bd4d29d36ec3" target="_top" xlink:title=" ">
<polygon fill="white" stroke="#666666" points="557.5,-19.25 445.5,-19.25 445.5,0 557.5,0 557.5,-19.25"/>
<text xml:space="preserve" text-anchor="middle" x="501.5" y="-5.75" font-family="Helvetica,sans-Serif" font-size="10.00">SWELL_API_DEFINE</text>
</a>
</g>
</g>
<!-- Node1&#45;&gt;Node17 -->
<g id="edge12_Node000001_Node000017" class="edge">
<title>Node1&#45;&gt;Node17</title>
<g id="a_edge12_Node000001_Node000017"><a xlink:title=" ">
<path fill="none" stroke="#63b8ff" d="M593.53,-34.52C585.31,-32.22 576.76,-29.84 568.75,-27.62 559.33,-25.02 549.15,-22.24 539.66,-19.66"/>
<polygon fill="#63b8ff" stroke="#63b8ff" points="592.43,-37.84 603.01,-37.17 594.32,-31.1 592.43,-37.84"/>
</a>
</g>
</g>
<!-- Node2&#45;&gt;Node2 -->
<g id="edge2_Node000002_Node000002" class="edge">
<title>Node2&#45;&gt;Node2</title>
<g id="a_edge2_Node000002_Node000002"><a xlink:title=" ">
<path fill="none" stroke="#63b8ff" d="M525.64,-104.65C522.62,-108.53 514.57,-111.25 501.5,-111.25 477.59,-111.25 470.5,-102.15 480.21,-93.54"/>
<polygon fill="#63b8ff" stroke="#63b8ff" points="529.04,-103.82 523.17,-95 522.26,-105.56 529.04,-103.82"/>
</a>
</g>
</g>
<!-- Node3 -->
<g id="Node000003" class="node">
<title>Node3</title>
<g id="a_Node000003"><a xlink:href="swell-wnd-generic_8cpp.html#ae7d1acb7b2f5142a5cf30e2da731ceb3" target="_top" xlink:title=" ">
<polygon fill="white" stroke="#666666" points="258.5,-93.25 149.5,-93.25 149.5,-74 258.5,-74 258.5,-93.25"/>
<text xml:space="preserve" text-anchor="middle" x="204" y="-79.75" font-family="Helvetica,sans-Serif" font-size="10.00">treeViewWindowProc</text>
</a>
</g>
</g>
<!-- Node2&#45;&gt;Node3 -->
<g id="edge3_Node000002_Node000003" class="edge">
<title>Node2&#45;&gt;Node3</title>
<g id="a_edge3_Node000002_Node000003"><a xlink:title=" ">
<path fill="none" stroke="#63b8ff" d="M422.37,-83.62C370.72,-83.62 304.37,-83.62 258.63,-83.62"/>
<polygon fill="#63b8ff" stroke="#63b8ff" points="422.3,-87.13 432.3,-83.63 422.3,-80.13 422.3,-87.13"/>
</a>
</g>
</g>
<!-- Node4 -->
<g id="Node000004" class="node">
<title>Node4</title>
<g id="a_Node000004"><a xlink:href="swell-wnd-generic_8cpp.html#a5506d3b73c30f17e30501acaff0929d3" target="_top" xlink:title=" ">
<polygon fill="#fff0f0" stroke="red" points="109.75,-56.25 0,-56.25 0,-37 109.75,-37 109.75,-56.25"/>
<text xml:space="preserve" text-anchor="middle" x="54.88" y="-42.75" font-family="Helvetica,sans-Serif" font-size="10.00">SWELL_MakeControl</text>
</a>
</g>
</g>
<!-- Node3&#45;&gt;Node4 -->
<g id="edge4_Node000003_Node000004" class="edge">
<title>Node3&#45;&gt;Node4</title>
<g id="a_edge4_Node000003_Node000004"><a xlink:title=" ">
<path fill="none" stroke="#63b8ff" d="M151.74,-70.73C133.49,-66.14 113.21,-61.05 96.03,-56.72"/>
<polygon fill="#63b8ff" stroke="#63b8ff" points="150.78,-74.1 161.33,-73.15 152.49,-67.31 150.78,-74.1"/>
</a>
</g>
</g>
<!-- Node13 -->
<g id="Node000013" class="node">
<title>Node13</title>
<g id="a_Node000013"><a xlink:href="swell-wnd-generic_8cpp.html#a930789ec21cc66368616ba9216b4507d" target="_top" xlink:title=" ">
<polygon fill="white" stroke="#666666" points="398.25,-56.25 298.25,-56.25 298.25,-37 398.25,-37 398.25,-56.25"/>
<text xml:space="preserve" text-anchor="middle" x="348.25" y="-42.75" font-family="Helvetica,sans-Serif" font-size="10.00">comboWindowProc</text>
</a>
</g>
</g>
<!-- Node12&#45;&gt;Node13 -->
<g id="edge6_Node000012_Node000013" class="edge">
<title>Node12&#45;&gt;Node13</title>
<g id="a_edge6_Node000012_Node000013"><a xlink:title=" ">
<path fill="none" stroke="#63b8ff" d="M437.95,-46.62C424.83,-46.62 411.17,-46.62 398.61,-46.62"/>
<polygon fill="#63b8ff" stroke="#63b8ff" points="437.78,-50.13 447.78,-46.63 437.78,-43.13 437.78,-50.13"/>
</a>
</g>
</g>
<!-- Node15 -->
<g id="Node000015" class="node">
<title>Node15</title>
<g id="a_Node000015"><a xlink:href="swell-wnd-generic_8cpp.html#ad1a5a5cf4854ceadc09947445b8362e4" target="_top" xlink:title=" ">
<polygon fill="white" stroke="#666666" points="391.5,-19.25 305,-19.25 305,0 391.5,0 391.5,-19.25"/>
<text xml:space="preserve" text-anchor="middle" x="348.25" y="-5.75" font-family="Helvetica,sans-Serif" font-size="10.00">editWindowProc</text>
</a>
</g>
</g>
<!-- Node12&#45;&gt;Node15 -->
<g id="edge9_Node000012_Node000015" class="edge">
<title>Node12&#45;&gt;Node15</title>
<g id="a_edge9_Node000012_Node000015"><a xlink:title=" ">
<path fill="none" stroke="#63b8ff" d="M448.07,-33.8C429.24,-29.19 408.28,-24.07 390.53,-19.72"/>
<polygon fill="#63b8ff" stroke="#63b8ff" points="447.15,-37.18 457.7,-36.15 448.82,-30.38 447.15,-37.18"/>
</a>
</g>
</g>
<!-- Node14 -->
<g id="Node000014" class="node">
<title>Node14</title>
<g id="a_Node000014"><a xlink:href="swell-wnd-generic_8cpp.html#aa4d5abf2e2afd245a8e05d063d705e05" target="_top" xlink:title=" ">
<polygon fill="#fff0f0" stroke="red" points="258.88,-56.25 149.12,-56.25 149.12,-37 258.88,-37 258.88,-56.25"/>
<text xml:space="preserve" text-anchor="middle" x="204" y="-42.75" font-family="Helvetica,sans-Serif" font-size="10.00">SWELL_MakeCombo</text>
</a>
</g>
</g>
<!-- Node13&#45;&gt;Node14 -->
<g id="edge7_Node000013_Node000014" class="edge">
<title>Node13&#45;&gt;Node14</title>
<g id="a_edge7_Node000013_Node000014"><a xlink:title=" ">
<path fill="none" stroke="#63b8ff" d="M286.53,-46.62C277.42,-46.62 268.08,-46.62 259.12,-46.62"/>
<polygon fill="#63b8ff" stroke="#63b8ff" points="286.38,-50.13 296.38,-46.63 286.38,-43.13 286.38,-50.13"/>
</a>
</g>
</g>
<!-- Node14&#45;&gt;Node4 -->
<g id="edge8_Node000014_Node000004" class="edge">
<title>Node14&#45;&gt;Node4</title>
<g id="a_edge8_Node000014_Node000004"><a xlink:title=" ">
<path fill="none" stroke="#63b8ff" d="M137.24,-46.62C128.14,-46.62 118.87,-46.62 110.02,-46.62"/>
<polygon fill="#63b8ff" stroke="#63b8ff" points="137.12,-50.13 147.12,-46.63 137.12,-43.13 137.12,-50.13"/>
</a>
</g>
</g>
<!-- Node16 -->
<g id="Node000016" class="node">
<title>Node16</title>
<g id="a_Node000016"><a xlink:href="swell-wnd-generic_8cpp.html#a9971e4414fd0adc535f7b98e2eb5bc77" target="_top" xlink:title=" ">
<polygon fill="#fff0f0" stroke="red" points="262.25,-19.25 145.75,-19.25 145.75,0 262.25,0 262.25,-19.25"/>
<text xml:space="preserve" text-anchor="middle" x="204" y="-5.75" font-family="Helvetica,sans-Serif" font-size="10.00">SWELL_MakeEditField</text>
</a>
</g>
</g>
<!-- Node15&#45;&gt;Node16 -->
<g id="edge10_Node000015_Node000016" class="edge">
<title>Node15&#45;&gt;Node16</title>
<g id="a_edge10_Node000015_Node000016"><a xlink:title=" ">
<path fill="none" stroke="#63b8ff" d="M293.13,-9.62C283.16,-9.62 272.72,-9.62 262.65,-9.62"/>
<polygon fill="#63b8ff" stroke="#63b8ff" points="293.06,-13.13 303.06,-9.63 293.06,-6.13 293.06,-13.13"/>
</a>
</g>
</g>
<!-- Node16&#45;&gt;Node4 -->
<g id="edge11_Node000016_Node000004" class="edge">
<title>Node16&#45;&gt;Node4</title>
<g id="a_edge11_Node000016_Node000004"><a xlink:title=" ">
<path fill="none" stroke="#63b8ff" d="M151.74,-22.52C133.49,-27.11 113.21,-32.2 96.03,-36.53"/>
<polygon fill="#63b8ff" stroke="#63b8ff" points="152.49,-25.94 161.33,-20.1 150.78,-19.15 152.49,-25.94"/>
</a>
</g>
</g>
</g>
</svg>

<g id="navigator" transform="translate(0 0)" fill="#404254">
  <rect fill="#f2f5e9" fill-opacity="0.5" stroke="#606060" stroke-width=".5" x="0" y="0" width="60" height="60"/>
  <use id="zoomplus" xlink:href="#zoomPlus" x="17" y="9" onmousedown="handleZoom(evt,'in')"/>
  <use id="zoomminus" xlink:href="#zoomMin" x="42" y="9" onmousedown="handleZoom(evt,'out')"/>
  <use id="reset" xlink:href="#resetDef" x="30" y="36" onmousedown="handleReset()"/>
   <use id="arrowup" xlink:href="#arrowUp" x="0" y="0" onmousedown="handlePan(0,-1)"/>
  <use id="arrowright" xlink:href="#arrowRight" x="0" y="0" onmousedown="handlePan(1,0)"/>
  <use id="arrowdown" xlink:href="#arrowDown" x="0" y="0" onmousedown="handlePan(0,1)"/>
  <use id="arrowleft" xlink:href="#arrowLeft" x="0" y="0" onmousedown="handlePan(-1,0)"/>
</g>
<svg viewBox="0 0 15 15" width="100%" height="30px" preserveAspectRatio="xMaxYMin meet">
 <g id="arrow_out" transform="scale(0.3 0.3)">
  <a xlink:href="swell-gdi-generic_8cpp_a8f897acf3630112b5201450f8e0f61d3_icgraph_org.svg" target="_base">
   <rect id="button" ry="5" rx="5" y="6" x="6" height="38" width="38"
        fill="#f2f5e9" fill-opacity="0.5" stroke="#606060" stroke-width="1.0"/>
   <path id="arrow"
     d="M 11.500037,31.436501 C 11.940474,20.09759 22.043105,11.32322 32.158766,21.979434 L 37.068811,17.246167 C 37.068811,17.246167 37.088388,32 37.088388,32 L 22.160133,31.978069 C 22.160133,31.978069 26.997745,27.140456 26.997745,27.140456 C 18.528582,18.264221 13.291696,25.230495 11.500037,31.436501 z"
     style="fill:#404040;"/>
  </a>
 </g>
</svg>

<style type='text/css'>
<![CDATA[
[data-mouse-over-selected='false'] { opacity: 0.7; }
[data-mouse-over-selected='true']  { opacity: 1.0; }
]]>
</style>
<script type="application/ecmascript"><![CDATA[
document.addEventListener('DOMContentLoaded', (event) => {
  highlightEdges();
  highlightAdjacentNodes();
});
]]></script>
</svg>
