<?xml version="1.0" encoding="UTF-8" standalone="no"?>
<!DOCTYPE svg PUBLIC "-//W3C//DTD SVG 1.1//EN"
 "http://www.w3.org/Graphics/SVG/1.1/DTD/svg11.dtd">
<!-- Generated by graphviz version 14.0.2 (0)
 -->
<!-- Title: SWELL_MakeLabel Pages: 1 -->
<svg width="870pt" height="123pt"
 viewBox="0.00 0.00 870.00 123.00" xmlns="http://www.w3.org/2000/svg" xmlns:xlink="http://www.w3.org/1999/xlink">
<g id="graph0" class="graph" transform="scale(1 1) rotate(0) translate(4 118.88)">
<title>SWELL_MakeLabel</title>
<!-- Node1 -->
<g id="Node000001" class="node">
<title>Node1</title>
<g id="a_Node000001"><a xlink:title=" ">
<polygon fill="#999999" stroke="#666666" points="861.75,-76.88 758.75,-76.88 758.75,-57.62 861.75,-57.62 861.75,-76.88"/>
<text xml:space="preserve" text-anchor="middle" x="810.25" y="-63.38" font-family="Helvetica,sans-Serif" font-size="10.00">SWELL_MakeLabel</text>
</a>
</g>
</g>
<!-- Node2 -->
<g id="Node000002" class="node">
<title>Node2</title>
<g id="a_Node000002"><a xlink:href="swell-wnd-generic_8cpp.html#ad30defd66c39c5d7fbba30ed1fc33ef9" target="_top" xlink:title=" ">
<polygon fill="white" stroke="#666666" points="722.75,-114.88 562,-114.88 562,-95.62 722.75,-95.62 722.75,-114.88"/>
<text xml:space="preserve" text-anchor="middle" x="642.38" y="-101.38" font-family="Helvetica,sans-Serif" font-size="10.00">SWELL_GenerateDialogFromList</text>
</a>
</g>
</g>
<!-- Node1&#45;&gt;Node2 -->
<g id="edge1_Node000001_Node000002" class="edge">
<title>Node1&#45;&gt;Node2</title>
<g id="a_edge1_Node000001_Node000002"><a xlink:title=" ">
<path fill="none" stroke="#63b8ff" d="M754.17,-79.87C732.43,-84.85 707.81,-90.49 687.31,-95.19"/>
<polygon fill="#63b8ff" stroke="#63b8ff" points="754.79,-83.32 763.76,-77.67 753.23,-76.49 754.79,-83.32"/>
</a>
</g>
</g>
<!-- Node3 -->
<g id="Node000003" class="node">
<title>Node3</title>
<g id="a_Node000003"><a xlink:href="swell-miscdlg-generic_8cpp.html#a8f4be0ad727eaa0f28ea329555a78c70" target="_top" xlink:title=" ">
<polygon fill="white" stroke="#666666" points="402.75,-73.88 300.5,-73.88 300.5,-54.62 402.75,-54.62 402.75,-73.88"/>
<text xml:space="preserve" text-anchor="middle" x="351.62" y="-60.38" font-family="Helvetica,sans-Serif" font-size="10.00">swellFileSelectProc</text>
</a>
</g>
</g>
<!-- Node1&#45;&gt;Node3 -->
<g id="edge2_Node000001_Node000003" class="edge">
<title>Node1&#45;&gt;Node3</title>
<g id="a_edge2_Node000001_Node000003"><a xlink:title=" ">
<path fill="none" stroke="#63b8ff" d="M747.37,-66.84C656.15,-66.24 487.32,-65.13 403.11,-64.58"/>
<polygon fill="#63b8ff" stroke="#63b8ff" points="747.1,-70.34 757.12,-66.91 747.15,-63.34 747.1,-70.34"/>
</a>
</g>
</g>
<!-- Node8 -->
<g id="Node000008" class="node">
<title>Node8</title>
<g id="a_Node000008"><a xlink:href="swell-miscdlg-generic_8cpp.html#a26bd21fa9844305adc102df09d432fd2" target="_top" xlink:title=" ">
<polygon fill="white" stroke="#666666" points="699.88,-20.88 584.88,-20.88 584.88,-1.63 699.88,-1.63 699.88,-20.88"/>
<text xml:space="preserve" text-anchor="middle" x="642.38" y="-7.38" font-family="Helvetica,sans-Serif" font-size="10.00">swellMessageBoxProc</text>
</a>
</g>
</g>
<!-- Node1&#45;&gt;Node8 -->
<g id="edge8_Node000001_Node000008" class="edge">
<title>Node1&#45;&gt;Node8</title>
<g id="a_edge8_Node000001_Node000008"><a xlink:title=" ">
<path fill="none" stroke="#63b8ff" d="M768.82,-53.6C739.34,-43.65 700.04,-30.38 673.33,-21.36"/>
<polygon fill="#63b8ff" stroke="#63b8ff" points="767.57,-56.87 778.16,-56.75 769.81,-50.24 767.57,-56.87"/>
</a>
</g>
</g>
<!-- Node3&#45;&gt;Node3 -->
<g id="edge7_Node000003_Node000003" class="edge">
<title>Node3&#45;&gt;Node3</title>
<g id="a_edge7_Node000003_Node000003"><a xlink:title=" ">
<path fill="none" stroke="#63b8ff" d="M376.16,-85.28C373.09,-89.15 364.92,-91.88 351.62,-91.88 327.32,-91.88 320.11,-82.77 329.98,-74.16"/>
<polygon fill="#63b8ff" stroke="#63b8ff" points="379.56,-84.42 373.65,-75.63 372.78,-86.19 379.56,-84.42"/>
</a>
</g>
</g>
<!-- Node4 -->
<g id="Node000004" class="node">
<title>Node4</title>
<g id="a_Node000004"><a xlink:href="swell-miscdlg-generic_8cpp.html#a7c3d1ae14131433721ac902c1db688ad" target="_top" xlink:title=" ">
<polygon fill="white" stroke="#666666" points="249.5,-110.88 148,-110.88 148,-91.62 249.5,-91.62 249.5,-110.88"/>
<text xml:space="preserve" text-anchor="middle" x="198.75" y="-97.38" font-family="Helvetica,sans-Serif" font-size="10.00">BrowseForDirectory</text>
</a>
</g>
</g>
<!-- Node3&#45;&gt;Node4 -->
<g id="edge3_Node000003_Node000004" class="edge">
<title>Node3&#45;&gt;Node4</title>
<g id="a_edge3_Node000003_Node000004"><a xlink:title=" ">
<path fill="none" stroke="#63b8ff" d="M298.32,-77.08C279.54,-81.68 258.63,-86.81 240.93,-91.15"/>
<polygon fill="#63b8ff" stroke="#63b8ff" points="299.05,-80.5 307.93,-74.72 297.38,-73.7 299.05,-80.5"/>
</a>
</g>
</g>
<!-- Node5 -->
<g id="Node000005" class="node">
<title>Node5</title>
<g id="a_Node000005"><a xlink:href="swell-miscdlg-generic_8cpp.html#afd1fc6ca56b2a7ba4910746c0f8f0341" target="_top" xlink:title=" ">
<polygon fill="white" stroke="#666666" points="240.88,-73.88 156.62,-73.88 156.62,-54.62 240.88,-54.62 240.88,-73.88"/>
<text xml:space="preserve" text-anchor="middle" x="198.75" y="-60.38" font-family="Helvetica,sans-Serif" font-size="10.00">BrowseForFiles</text>
</a>
</g>
</g>
<!-- Node3&#45;&gt;Node5 -->
<g id="edge4_Node000003_Node000005" class="edge">
<title>Node3&#45;&gt;Node5</title>
<g id="a_edge4_Node000003_Node000005"><a xlink:title=" ">
<path fill="none" stroke="#63b8ff" d="M288.9,-64.25C272.85,-64.25 255.95,-64.25 241.23,-64.25"/>
<polygon fill="#63b8ff" stroke="#63b8ff" points="288.87,-67.75 298.87,-64.25 288.87,-60.75 288.87,-67.75"/>
</a>
</g>
</g>
<!-- Node7 -->
<g id="Node000007" class="node">
<title>Node7</title>
<g id="a_Node000007"><a xlink:href="swell-miscdlg-generic_8cpp.html#a49c13d54411604a0adf81b99f0c2f14e" target="_top" xlink:title=" ">
<polygon fill="white" stroke="#666666" points="249.5,-36.88 148,-36.88 148,-17.62 249.5,-17.62 249.5,-36.88"/>
<text xml:space="preserve" text-anchor="middle" x="198.75" y="-23.38" font-family="Helvetica,sans-Serif" font-size="10.00">BrowseForSaveFile</text>
</a>
</g>
</g>
<!-- Node3&#45;&gt;Node7 -->
<g id="edge6_Node000003_Node000007" class="edge">
<title>Node3&#45;&gt;Node7</title>
<g id="a_edge6_Node000003_Node000007"><a xlink:title=" ">
<path fill="none" stroke="#63b8ff" d="M298.32,-51.42C279.54,-46.82 258.63,-41.69 240.93,-37.35"/>
<polygon fill="#63b8ff" stroke="#63b8ff" points="297.38,-54.8 307.93,-53.78 299.05,-48 297.38,-54.8"/>
</a>
</g>
</g>
<!-- Node6 -->
<g id="Node000006" class="node">
<title>Node6</title>
<g id="a_Node000006"><a xlink:href="swell-functions_8h.html#a6e1212a2408f3013e20aa0f6e67fca81" target="_top" xlink:title=" ">
<polygon fill="white" stroke="#666666" points="112,-73.88 0,-73.88 0,-54.62 112,-54.62 112,-73.88"/>
<text xml:space="preserve" text-anchor="middle" x="56" y="-60.38" font-family="Helvetica,sans-Serif" font-size="10.00">SWELL_API_DEFINE</text>
</a>
</g>
</g>
<!-- Node5&#45;&gt;Node6 -->
<g id="edge5_Node000005_Node000006" class="edge">
<title>Node5&#45;&gt;Node6</title>
<g id="a_edge5_Node000005_Node000006"><a xlink:title=" ">
<path fill="none" stroke="#63b8ff" d="M144.97,-64.25C134.29,-64.25 123.03,-64.25 112.26,-64.25"/>
<polygon fill="#63b8ff" stroke="#63b8ff" points="144.77,-67.75 154.77,-64.25 144.77,-60.75 144.77,-67.75"/>
</a>
</g>
</g>
<!-- Node8&#45;&gt;Node8 -->
<g id="edge12_Node000008_Node000008" class="edge">
<title>Node8&#45;&gt;Node8</title>
<g id="a_edge12_Node000008_Node000008"><a xlink:title=" ">
<path fill="none" stroke="#63b8ff" d="M669.72,-31.94C666.57,-35.99 657.45,-38.88 642.38,-38.88 615.57,-38.88 607.61,-29.77 618.5,-21.16"/>
<polygon fill="#63b8ff" stroke="#63b8ff" points="673.11,-31.05 666.71,-22.6 666.45,-33.2 673.11,-31.05"/>
</a>
</g>
</g>
<!-- Node9 -->
<g id="Node000009" class="node">
<title>Node9</title>
<g id="a_Node000009"><a xlink:href="swell-miscdlg-generic_8cpp.html#a857dbbc98d2a51028594cf8fa260ff4b" target="_top" xlink:title=" ">
<polygon fill="white" stroke="#666666" points="526,-24.88 453.75,-24.88 453.75,-5.63 526,-5.63 526,-24.88"/>
<text xml:space="preserve" text-anchor="middle" x="489.88" y="-11.38" font-family="Helvetica,sans-Serif" font-size="10.00">MessageBox</text>
</a>
</g>
</g>
<!-- Node8&#45;&gt;Node9 -->
<g id="edge9_Node000008_Node000009" class="edge">
<title>Node8&#45;&gt;Node9</title>
<g id="a_edge9_Node000008_Node000009"><a xlink:title=" ">
<path fill="none" stroke="#63b8ff" d="M573.37,-13.06C557.18,-13.49 540.53,-13.93 526.47,-14.3"/>
<polygon fill="#63b8ff" stroke="#63b8ff" points="573.06,-16.57 582.96,-12.8 572.87,-9.57 573.06,-16.57"/>
</a>
</g>
</g>
<!-- Node9&#45;&gt;Node3 -->
<g id="edge11_Node000009_Node000003" class="edge">
<title>Node9&#45;&gt;Node3</title>
<g id="a_edge11_Node000009_Node000003"><a xlink:title=" ">
<path fill="none" stroke="#63b8ff" d="M450.22,-29.15C427.99,-37.14 400.59,-47 380.49,-54.23"/>
<polygon fill="#63b8ff" stroke="#63b8ff" points="451.32,-32.47 459.55,-25.8 448.96,-25.89 451.32,-32.47"/>
</a>
</g>
</g>
<!-- Node10 -->
<g id="Node000010" class="node">
<title>Node10</title>
<g id="a_Node000010"><a xlink:href="classjuce_1_1PreVistaMessageBox.html#aaef19312ca68447b442c965137387949" target="_top" xlink:title=" ">
<polygon fill="white" stroke="#666666" points="417.75,-30.5 285.5,-30.5 285.5,0 417.75,0 417.75,-30.5"/>
<text xml:space="preserve" text-anchor="start" x="293.5" y="-17" font-family="Helvetica,sans-Serif" font-size="10.00">juce::PreVistaMessageBox</text>
<text xml:space="preserve" text-anchor="middle" x="351.62" y="-5.75" font-family="Helvetica,sans-Serif" font-size="10.00">::getResult</text>
</a>
</g>
</g>
<!-- Node9&#45;&gt;Node10 -->
<g id="edge10_Node000009_Node000010" class="edge">
<title>Node9&#45;&gt;Node10</title>
<g id="a_edge10_Node000009_Node000010"><a xlink:title=" ">
<path fill="none" stroke="#63b8ff" d="M442.03,-15.25C434.27,-15.25 426.11,-15.25 417.99,-15.25"/>
<polygon fill="#63b8ff" stroke="#63b8ff" points="441.92,-18.75 451.92,-15.25 441.92,-11.75 441.92,-18.75"/>
</a>
</g>
</g>
</g>
</svg>
