<?xml version="1.0" encoding="UTF-8" standalone="no"?>
<!DOCTYPE svg PUBLIC "-//W3C//DTD SVG 1.1//EN"
 "http://www.w3.org/Graphics/SVG/1.1/DTD/svg11.dtd">
<!-- Generated by graphviz version 14.0.2 (0)
 -->
<!-- Title: ListView_DeleteItem Pages: 1 -->
<!--zoomable 175 -->

<svg id="main" version="1.1" xmlns="http://www.w3.org/2000/svg" xmlns:xlink="http://www.w3.org/1999/xlink" xml:space="preserve" onload="init(evt)">

<style type="text/css"><![CDATA[
.node, .edge {opacity: 0.7;}
.node.selected, .edge.selected {opacity: 1;}
.edge:hover path { stroke: red; }
.edge:hover polygon { stroke: red; fill: red; }
]]></style>

<defs>
  <circle id="rim" cx="0" cy="0" r="7"/>
  <circle id="rim2" cx="0" cy="0" r="3.5"/>
  <g id="zoomPlus">
    <use xlink:href="#rim" fill="#404040"><set attributeName="fill" to="#808080" begin="zoomplus.mouseover" end="zoomplus.mouseout"/></use>
    <path d="M-4,0h8M0,-4v8" fill="none" stroke="white" stroke-width="1.5" pointer-events="none"/>
  </g>
  <g id="zoomMin">
    <use xlink:href="#rim" fill="#404040"><set attributeName="fill" to="#808080" begin="zoomminus.mouseover" end="zoomminus.mouseout"/></use>
    <path d="M-4,0h8" fill="none" stroke="white" stroke-width="1.5" pointer-events="none"/>
  </g>
  <g id="arrowUp" transform="translate(30 24)">
    <use xlink:href="#rim"/>
    <path pointer-events="none" fill="none" stroke="white" stroke-width="1.5" d="M0,-3.0v7 M-2.5,-0.5L0,-3.0L2.5,-0.5"/>
  </g>
  <g id="arrowRight" transform="rotate(90) translate(36 -43)">
    <use xlink:href="#rim"/>
    <path pointer-events="none" fill="none" stroke="white" stroke-width="1.5" d="M0,-3.0v7 M-2.5,-0.5L0,-3.0L2.5,-0.5"/>
  </g>
  <g id="arrowDown" transform="rotate(180) translate(-30 -48)">
    <use xlink:href="#rim"/>
    <path pointer-events="none" fill="none" stroke="white" stroke-width="1.5" d="M0,-3.0v7 M-2.5,-0.5L0,-3.0L2.5,-0.5"/>
  </g>
  <g id="arrowLeft" transform="rotate(270) translate(-36 17)">
    <use xlink:href="#rim"/>
    <path pointer-events="none" fill="none" stroke="white" stroke-width="1.5" d="M0,-3.0v7 M-2.5,-0.5L0,-3.0L2.5,-0.5"/>
  </g>
  <g id="resetDef">
    <use xlink:href="#rim2" fill="#404040"><set attributeName="fill" to="#808080" begin="reset.mouseover" end="reset.mouseout"/></use>
  </g>
</defs>
<script type="application/ecmascript">
var viewWidth = 521;
var viewHeight = 175;
var sectionId = 'dynsection-102';
</script>
<script type="application/ecmascript" xlink:href="svg.min.js"/>
<svg id="graph" class="graph">
<g id="viewport">
<title>ListView_DeleteItem</title>
<!-- Node1 -->
<g id="Node000001" class="node">
<title>Node1</title>
<g id="a_Node000001"><a xlink:title=" ">
<polygon fill="#999999" stroke="#666666" points="106.75,-75.25 0,-75.25 0,-56 106.75,-56 106.75,-75.25"/>
<text xml:space="preserve" text-anchor="middle" x="53.37" y="-61.75" font-family="Helvetica,sans-Serif" font-size="10.00">ListView_DeleteItem</text>
</a>
</g>
</g>
<!-- Node2 -->
<g id="Node000002" class="node">
<title>Node2</title>
<g id="a_Node000002"><a xlink:href="classWDL__PtrList.html#ad7d89bb4cae5769f559ab735dfd17bd0" target="_top" xlink:title=" ">
<polygon fill="white" stroke="#666666" points="262.62,-130.25 158.12,-130.25 158.12,-111 262.62,-111 262.62,-130.25"/>
<text xml:space="preserve" text-anchor="middle" x="210.37" y="-116.75" font-family="Helvetica,sans-Serif" font-size="10.00">WDL_PtrList::Delete</text>
</a>
</g>
</g>
<!-- Node1&#45;&gt;Node2 -->
<g id="edge1_Node000001_Node000002" class="edge">
<title>Node1&#45;&gt;Node2</title>
<g id="a_edge1_Node000001_Node000002"><a xlink:title=" ">
<path fill="none" stroke="#63b8ff" d="M82.8,-75.71C107.31,-84.41 142.93,-97.05 170.14,-106.7"/>
<polygon fill="#63b8ff" stroke="#63b8ff" points="168.84,-109.96 179.44,-110 171.18,-103.36 168.84,-109.96"/>
</a>
</g>
</g>
<!-- Node6 -->
<g id="Node000006" class="node">
<title>Node6</title>
<g id="a_Node000006"><a xlink:href="swell-wnd-generic_8cpp.html#ae0ccac6023fe368a0247b9e9e5f44c90" target="_top" xlink:title=" ">
<polygon fill="white" stroke="#666666" points="249.5,-75.25 171.25,-75.25 171.25,-56 249.5,-56 249.5,-75.25"/>
<text xml:space="preserve" text-anchor="middle" x="210.37" y="-61.75" font-family="Helvetica,sans-Serif" font-size="10.00">InvalidateRect</text>
</a>
</g>
</g>
<!-- Node1&#45;&gt;Node6 -->
<g id="edge5_Node000001_Node000006" class="edge">
<title>Node1&#45;&gt;Node6</title>
<g id="a_edge5_Node000001_Node000006"><a xlink:title=" ">
<path fill="none" stroke="#63b8ff" d="M106.85,-65.62C123.98,-65.62 142.93,-65.62 159.83,-65.62"/>
<polygon fill="#63b8ff" stroke="#63b8ff" points="159.65,-69.13 169.65,-65.63 159.65,-62.13 159.65,-69.13"/>
</a>
</g>
</g>
<!-- Node10 -->
<g id="Node000010" class="node">
<title>Node10</title>
<g id="a_Node000010"><a xlink:href="structlistViewState.html#a1600f5a43a7fd9ec37626caec125e9bb" target="_top" xlink:title=" ">
<polygon fill="white" stroke="#666666" points="278,-38.25 142.75,-38.25 142.75,-19 278,-19 278,-38.25"/>
<text xml:space="preserve" text-anchor="middle" x="210.37" y="-24.75" font-family="Helvetica,sans-Serif" font-size="10.00">listViewState::IsOwnerData</text>
</a>
</g>
</g>
<!-- Node1&#45;&gt;Node10 -->
<g id="edge9_Node000001_Node000010" class="edge">
<title>Node1&#45;&gt;Node10</title>
<g id="a_edge9_Node000001_Node000010"><a xlink:title=" ">
<path fill="none" stroke="#63b8ff" d="M96.73,-55.51C115.01,-51.15 136.61,-46 155.97,-41.37"/>
<polygon fill="#63b8ff" stroke="#63b8ff" points="156.69,-44.8 165.6,-39.07 155.06,-37.99 156.69,-44.8"/>
</a>
</g>
</g>
<!-- Node3 -->
<g id="Node000003" class="node">
<title>Node3</title>
<g id="a_Node000003"><a xlink:href="classWDL__PtrList.html#a873bab687bd74e27e8ca5c47cc4cf475" target="_top" xlink:title=" ">
<polygon fill="white" stroke="#666666" points="435.37,-167.25 326.37,-167.25 326.37,-148 435.37,-148 435.37,-167.25"/>
<text xml:space="preserve" text-anchor="middle" x="380.87" y="-153.75" font-family="Helvetica,sans-Serif" font-size="10.00">WDL_PtrList::GetList</text>
</a>
</g>
</g>
<!-- Node2&#45;&gt;Node3 -->
<g id="edge2_Node000002_Node000003" class="edge">
<title>Node2&#45;&gt;Node3</title>
<g id="a_edge2_Node000002_Node000003"><a xlink:title=" ">
<path fill="none" stroke="#63b8ff" d="M257.42,-130.74C277.57,-135.16 301.43,-140.4 322.7,-145.07"/>
<polygon fill="#63b8ff" stroke="#63b8ff" points="321.89,-148.48 332.41,-147.2 323.39,-141.64 321.89,-148.48"/>
</a>
</g>
</g>
<!-- Node4 -->
<g id="Node000004" class="node">
<title>Node4</title>
<g id="a_Node000004"><a xlink:href="classWDL__PtrList.html#af19e58b7f1fff85071872ef248b05a58" target="_top" xlink:title=" ">
<polygon fill="white" stroke="#666666" points="436.5,-130.25 325.25,-130.25 325.25,-111 436.5,-111 436.5,-130.25"/>
<text xml:space="preserve" text-anchor="middle" x="380.87" y="-116.75" font-family="Helvetica,sans-Serif" font-size="10.00">WDL_PtrList::GetSize</text>
</a>
</g>
</g>
<!-- Node2&#45;&gt;Node4 -->
<g id="edge3_Node000002_Node000004" class="edge">
<title>Node2&#45;&gt;Node4</title>
<g id="a_edge3_Node000002_Node000004"><a xlink:title=" ">
<path fill="none" stroke="#63b8ff" d="M262.85,-120.62C278.81,-120.62 296.63,-120.62 313.46,-120.62"/>
<polygon fill="#63b8ff" stroke="#63b8ff" points="313.4,-124.13 323.4,-120.63 313.4,-117.13 313.4,-124.13"/>
</a>
</g>
</g>
<!-- Node5 -->
<g id="Node000005" class="node">
<title>Node5</title>
<g id="a_Node000005"><a xlink:href="unzipfx-carla-control_2unzip_8h.html#a6146ec4ac32d62cf01b4c4c6587d5131" target="_top" xlink:title=" ">
<polygon fill="white" stroke="#666666" points="512.55,-130.25 483.75,-130.25 483.75,-111 512.55,-111 512.55,-130.25"/>
<text xml:space="preserve" text-anchor="middle" x="498.15" y="-116.75" font-family="Helvetica,sans-Serif" font-size="10.00">int</text>
</a>
</g>
</g>
<!-- Node4&#45;&gt;Node5 -->
<g id="edge4_Node000004_Node000005" class="edge">
<title>Node4&#45;&gt;Node5</title>
<g id="a_edge4_Node000004_Node000005"><a xlink:title=" ">
<path fill="none" stroke="#63b8ff" d="M436.81,-120.62C449.18,-120.62 461.71,-120.62 472.13,-120.62"/>
<polygon fill="#63b8ff" stroke="#63b8ff" points="472.12,-124.13 482.12,-120.63 472.12,-117.13 472.12,-124.13"/>
</a>
</g>
</g>
<!-- Node7 -->
<g id="Node000007" class="node">
<title>Node7</title>
<g id="a_Node000007"><a xlink:href="swell-generic-headless_8cpp.html#a127b8d759dd46334260ff1689c16258e" target="_top" xlink:title=" ">
<polygon fill="white" stroke="#666666" points="447.75,-93.25 314,-93.25 314,-74 447.75,-74 447.75,-93.25"/>
<text xml:space="preserve" text-anchor="middle" x="380.87" y="-79.75" font-family="Helvetica,sans-Serif" font-size="10.00">swell_oswindow_invalidate</text>
</a>
</g>
</g>
<!-- Node6&#45;&gt;Node7 -->
<g id="edge6_Node000006_Node000007" class="edge">
<title>Node6&#45;&gt;Node7</title>
<g id="a_edge6_Node000006_Node000007"><a xlink:title=" ">
<path fill="none" stroke="#63b8ff" d="M249.61,-69.71C265.29,-71.38 284.04,-73.39 302.36,-75.34"/>
<polygon fill="#63b8ff" stroke="#63b8ff" points="301.86,-78.81 312.17,-76.39 302.6,-71.85 301.86,-78.81"/>
</a>
</g>
</g>
<!-- Node8 -->
<g id="Node000008" class="node">
<title>Node8</title>
<g id="a_Node000008"><a xlink:href="swell_8cpp.html#afc9175b325024c779d3da43c8e2e5a2a" target="_top" xlink:title=" ">
<polygon fill="white" stroke="#666666" points="426.37,-56.25 335.37,-56.25 335.37,-37 426.37,-37 426.37,-56.25"/>
<text xml:space="preserve" text-anchor="middle" x="380.87" y="-42.75" font-family="Helvetica,sans-Serif" font-size="10.00">WinIntersectRect</text>
</a>
</g>
</g>
<!-- Node6&#45;&gt;Node8 -->
<g id="edge7_Node000006_Node000008" class="edge">
<title>Node6&#45;&gt;Node8</title>
<g id="a_edge7_Node000006_Node000008"><a xlink:title=" ">
<path fill="none" stroke="#63b8ff" d="M249.61,-61.31C271.49,-58.85 299.34,-55.71 323.67,-52.96"/>
<polygon fill="#63b8ff" stroke="#63b8ff" points="323.87,-56.46 333.42,-51.86 323.09,-49.51 323.87,-56.46"/>
</a>
</g>
</g>
<!-- Node9 -->
<g id="Node000009" class="node">
<title>Node9</title>
<g id="a_Node000009"><a xlink:href="swell_8cpp.html#a7496abf09174ca648081d7023b2b9615" target="_top" xlink:title=" ">
<polygon fill="white" stroke="#666666" points="420.37,-19.25 341.37,-19.25 341.37,0 420.37,0 420.37,-19.25"/>
<text xml:space="preserve" text-anchor="middle" x="380.87" y="-5.75" font-family="Helvetica,sans-Serif" font-size="10.00">WinOffsetRect</text>
</a>
</g>
</g>
<!-- Node6&#45;&gt;Node9 -->
<g id="edge8_Node000006_Node000009" class="edge">
<title>Node6&#45;&gt;Node9</title>
<g id="a_edge8_Node000006_Node000009"><a xlink:title=" ">
<path fill="none" stroke="#63b8ff" d="M249.95,-56.91C259.28,-54.34 269.12,-51.23 278,-47.62 294.96,-40.74 297.05,-34.53 314,-27.62 319.22,-25.5 324.77,-23.54 330.35,-21.76"/>
<polygon fill="#63b8ff" stroke="#63b8ff" points="331.01,-25.22 339.59,-19 329.01,-18.51 331.01,-25.22"/>
</a>
</g>
</g>
</g>
</svg>

<g id="navigator" transform="translate(0 0)" fill="#404254">
  <rect fill="#f2f5e9" fill-opacity="0.5" stroke="#606060" stroke-width=".5" x="0" y="0" width="60" height="60"/>
  <use id="zoomplus" xlink:href="#zoomPlus" x="17" y="9" onmousedown="handleZoom(evt,'in')"/>
  <use id="zoomminus" xlink:href="#zoomMin" x="42" y="9" onmousedown="handleZoom(evt,'out')"/>
  <use id="reset" xlink:href="#resetDef" x="30" y="36" onmousedown="handleReset()"/>
   <use id="arrowup" xlink:href="#arrowUp" x="0" y="0" onmousedown="handlePan(0,-1)"/>
  <use id="arrowright" xlink:href="#arrowRight" x="0" y="0" onmousedown="handlePan(1,0)"/>
  <use id="arrowdown" xlink:href="#arrowDown" x="0" y="0" onmousedown="handlePan(0,1)"/>
  <use id="arrowleft" xlink:href="#arrowLeft" x="0" y="0" onmousedown="handlePan(-1,0)"/>
</g>
<svg viewBox="0 0 15 15" width="100%" height="30px" preserveAspectRatio="xMaxYMin meet">
 <g id="arrow_out" transform="scale(0.3 0.3)">
  <a xlink:href="swell-wnd-generic_8cpp_a533a110673b7ffcc612473e1509c71e0_cgraph_org.svg" target="_base">
   <rect id="button" ry="5" rx="5" y="6" x="6" height="38" width="38"
        fill="#f2f5e9" fill-opacity="0.5" stroke="#606060" stroke-width="1.0"/>
   <path id="arrow"
     d="M 11.500037,31.436501 C 11.940474,20.09759 22.043105,11.32322 32.158766,21.979434 L 37.068811,17.246167 C 37.068811,17.246167 37.088388,32 37.088388,32 L 22.160133,31.978069 C 22.160133,31.978069 26.997745,27.140456 26.997745,27.140456 C 18.528582,18.264221 13.291696,25.230495 11.500037,31.436501 z"
     style="fill:#404040;"/>
  </a>
 </g>
</svg>

<style type='text/css'>
<![CDATA[
[data-mouse-over-selected='false'] { opacity: 0.7; }
[data-mouse-over-selected='true']  { opacity: 1.0; }
]]>
</style>
<script type="application/ecmascript"><![CDATA[
document.addEventListener('DOMContentLoaded', (event) => {
  highlightEdges();
  highlightAdjacentNodes();
});
]]></script>
</svg>
