<?xml version="1.0" encoding="UTF-8" standalone="no"?>
<!DOCTYPE svg PUBLIC "-//W3C//DTD SVG 1.1//EN"
 "http://www.w3.org/Graphics/SVG/1.1/DTD/svg11.dtd">
<!-- Generated by graphviz version 14.0.2 (0)
 -->
<!-- Title: __threadproc Pages: 1 -->
<svg width="480pt" height="46pt"
 viewBox="0.00 0.00 480.00 46.00" xmlns="http://www.w3.org/2000/svg" xmlns:xlink="http://www.w3.org/1999/xlink">

<svg id="main" version="1.1" xmlns="http://www.w3.org/2000/svg" xmlns:xlink="http://www.w3.org/1999/xlink" xml:space="preserve">

<style type="text/css"><![CDATA[
.node, .edge {opacity: 0.7;}
.node.selected, .edge.selected {opacity: 1;}
.edge:hover path { stroke: red; }
.edge:hover polygon { stroke: red; fill: red; }
]]></style>
<script type="application/ecmascript" xlink:href="svg.min.js"/>
<svg id="graph" class="graph">
<g id="graph0" class="graph" transform="scale(1 1) rotate(0) translate(4 42.25)">
<title>__threadproc</title>
<!-- Node1 -->
<g id="Node000001" class="node">
<title>Node1</title>
<g id="a_Node000001"><a xlink:title=" ">
<polygon fill="#999999" stroke="#666666" points="72.25,-19.25 0,-19.25 0,0 72.25,0 72.25,-19.25"/>
<text xml:space="preserve" text-anchor="middle" x="36.12" y="-5.75" font-family="Helvetica,sans-Serif" font-size="10.00">__threadproc</text>
</a>
</g>
</g>
<!-- Node2 -->
<g id="Node000002" class="node">
<title>Node2</title>
<g id="a_Node000002"><a xlink:href="swell_8cpp.html#af7405eaaf8410a85ee63a77c22234095" target="_top" xlink:title=" ">
<polygon fill="white" stroke="#666666" points="179.75,-19.25 108.25,-19.25 108.25,0 179.75,0 179.75,-19.25"/>
<text xml:space="preserve" text-anchor="middle" x="144" y="-5.75" font-family="Helvetica,sans-Serif" font-size="10.00">CloseHandle</text>
</a>
</g>
</g>
<!-- Node1&#45;&gt;Node2 -->
<g id="edge1_Node000001_Node000002" class="edge">
<title>Node1&#45;&gt;Node2</title>
<g id="a_edge1_Node000001_Node000002"><a xlink:title=" ">
<path fill="none" stroke="#63b8ff" d="M72.67,-9.62C80.34,-9.62 88.56,-9.62 96.57,-9.62"/>
<polygon fill="#63b8ff" stroke="#63b8ff" points="96.57,-13.13 106.57,-9.63 96.57,-6.13 96.57,-13.13"/>
</a>
</g>
</g>
<!-- Node3 -->
<g id="Node000003" class="node">
<title>Node3</title>
<g id="a_Node000003"><a xlink:href="swell_8cpp.html#a298312b17725e3240f5a9093055a86e3" target="_top" xlink:title=" ">
<polygon fill="white" stroke="#666666" points="330.75,-38.25 215.75,-38.25 215.75,-19 330.75,-19 330.75,-38.25"/>
<text xml:space="preserve" text-anchor="middle" x="273.25" y="-24.75" font-family="Helvetica,sans-Serif" font-size="10.00">swell_cleanupZombies</text>
</a>
</g>
</g>
<!-- Node2&#45;&gt;Node3 -->
<g id="edge2_Node000002_Node000003" class="edge">
<title>Node2&#45;&gt;Node3</title>
<g id="a_edge2_Node000002_Node000003"><a xlink:title=" ">
<path fill="none" stroke="#63b8ff" d="M180.11,-14.87C187.59,-15.98 195.74,-17.2 204,-18.43"/>
<polygon fill="#63b8ff" stroke="#63b8ff" points="203.36,-21.88 213.77,-19.89 204.39,-14.95 203.36,-21.88"/>
</a>
</g>
</g>
<!-- Node4 -->
<g id="Node000004" class="node">
<title>Node4</title>
<g id="a_Node000004"><a xlink:href="swell_8cpp.html#a413f21c7c7ff0ac25a7abc268287400d" target="_top" xlink:title=" ">
<polygon fill="#fff0f0" stroke="red" points="472,-19.25 366.75,-19.25 366.75,0 472,0 472,-19.25"/>
<text xml:space="preserve" text-anchor="middle" x="419.38" y="-5.75" font-family="Helvetica,sans-Serif" font-size="10.00">WaitForSingleObject</text>
</a>
</g>
</g>
<!-- Node2&#45;&gt;Node4 -->
<g id="edge4_Node000002_Node000004" class="edge">
<title>Node2&#45;&gt;Node4</title>
<g id="a_edge4_Node000002_Node000004"><a xlink:title=" ">
<path fill="none" stroke="#63b8ff" d="M180.18,-9.62C224.27,-9.62 300.65,-9.62 355.02,-9.62"/>
<polygon fill="#63b8ff" stroke="#63b8ff" points="354.76,-13.13 364.76,-9.63 354.76,-6.13 354.76,-13.13"/>
</a>
</g>
</g>
<!-- Node3&#45;&gt;Node4 -->
<g id="edge3_Node000003_Node000004" class="edge">
<title>Node3&#45;&gt;Node4</title>
<g id="a_edge3_Node000003_Node000004"><a xlink:title=" ">
<path fill="none" stroke="#63b8ff" d="M331.21,-21.12C339.13,-20.07 347.3,-19 355.31,-17.94"/>
<polygon fill="#63b8ff" stroke="#63b8ff" points="355.55,-21.44 365.01,-16.66 354.64,-14.5 355.55,-21.44"/>
</a>
</g>
</g>
</g>
</svg>
</svg>

<style type='text/css'>
<![CDATA[
[data-mouse-over-selected='false'] { opacity: 0.7; }
[data-mouse-over-selected='true']  { opacity: 1.0; }
]]>
</style>
<script type="application/ecmascript"><![CDATA[
document.addEventListener('DOMContentLoaded', (event) => {
  highlightEdges();
  highlightAdjacentNodes();
});
]]></script>
</svg>
