<?xml version="1.0" encoding="UTF-8" standalone="no"?>
<!DOCTYPE svg PUBLIC "-//W3C//DTD SVG 1.1//EN"
 "http://www.w3.org/Graphics/SVG/1.1/DTD/svg11.dtd">
<!-- Generated by graphviz version 14.0.2 (0)
 -->
<!-- Title: resById Pages: 1 -->
<svg width="342pt" height="27pt"
 viewBox="0.00 0.00 342.00 27.00" xmlns="http://www.w3.org/2000/svg" xmlns:xlink="http://www.w3.org/1999/xlink">
<g id="graph0" class="graph" transform="scale(1 1) rotate(0) translate(4 23.25)">
<title>resById</title>
<!-- Node1 -->
<g id="Node000001" class="node">
<title>Node1</title>
<g id="a_Node000001"><a xlink:title=" ">
<polygon fill="#999999" stroke="#666666" points="333.75,-19.25 284.75,-19.25 284.75,0 333.75,0 333.75,-19.25"/>
<text xml:space="preserve" text-anchor="middle" x="309.25" y="-5.75" font-family="Helvetica,sans-Serif" font-size="10.00">resById</text>
</a>
</g>
</g>
<!-- Node2 -->
<g id="Node000002" class="node">
<title>Node2</title>
<g id="a_Node000002"><a xlink:href="swell-menu-generic_8cpp.html#a5865347bcdcdecb58f4c524e4de0cbfb" target="_top" xlink:title=" ">
<polygon fill="white" stroke="#666666" points="248.75,-19.25 148,-19.25 148,0 248.75,0 248.75,-19.25"/>
<text xml:space="preserve" text-anchor="middle" x="198.38" y="-5.75" font-family="Helvetica,sans-Serif" font-size="10.00">SWELL_LoadMenu</text>
</a>
</g>
</g>
<!-- Node1&#45;&gt;Node2 -->
<g id="edge1_Node000001_Node000002" class="edge">
<title>Node1&#45;&gt;Node2</title>
<g id="a_edge1_Node000001_Node000002"><a xlink:title=" ">
<path fill="none" stroke="#63b8ff" d="M272.97,-9.62C265.35,-9.62 257.16,-9.62 249.11,-9.62"/>
<polygon fill="#63b8ff" stroke="#63b8ff" points="272.84,-13.13 282.84,-9.63 272.84,-6.13 272.84,-13.13"/>
</a>
</g>
</g>
<!-- Node3 -->
<g id="Node000003" class="node">
<title>Node3</title>
<g id="a_Node000003"><a xlink:href="swell-functions_8h.html#add67765aa94e3ca0550595d5f3d07144" target="_top" xlink:title=" ">
<polygon fill="white" stroke="#666666" points="112,-19.25 0,-19.25 0,0 112,0 112,-19.25"/>
<text xml:space="preserve" text-anchor="middle" x="56" y="-5.75" font-family="Helvetica,sans-Serif" font-size="10.00">SWELL_API_DEFINE</text>
</a>
</g>
</g>
<!-- Node2&#45;&gt;Node3 -->
<g id="edge2_Node000002_Node000003" class="edge">
<title>Node2&#45;&gt;Node3</title>
<g id="a_edge2_Node000002_Node000003"><a xlink:title=" ">
<path fill="none" stroke="#63b8ff" d="M136.6,-9.62C128.51,-9.62 120.25,-9.62 112.26,-9.62"/>
<polygon fill="#63b8ff" stroke="#63b8ff" points="136.37,-13.13 146.37,-9.63 136.37,-6.13 136.37,-13.13"/>
</a>
</g>
</g>
</g>
</svg>
