<?xml version="1.0" encoding="UTF-8" standalone="no"?>
<!DOCTYPE svg PUBLIC "-//W3C//DTD SVG 1.1//EN"
 "http://www.w3.org/Graphics/SVG/1.1/DTD/svg11.dtd">
<!-- Generated by graphviz version 14.0.2 (0)
 -->
<!-- Title: plugins/CarlaBase/carla/source/modules/water/synthesisers/Synthesiser.cpp Pages: 1 -->
<!--zoomable 293 -->

<svg id="main" version="1.1" xmlns="http://www.w3.org/2000/svg" xmlns:xlink="http://www.w3.org/1999/xlink" xml:space="preserve" onload="init(evt)">

<style type="text/css"><![CDATA[
.node, .edge {opacity: 0.7;}
.node.selected, .edge.selected {opacity: 1;}
.edge:hover path { stroke: red; }
.edge:hover polygon { stroke: red; fill: red; }
]]></style>

<defs>
  <circle id="rim" cx="0" cy="0" r="7"/>
  <circle id="rim2" cx="0" cy="0" r="3.5"/>
  <g id="zoomPlus">
    <use xlink:href="#rim" fill="#404040"><set attributeName="fill" to="#808080" begin="zoomplus.mouseover" end="zoomplus.mouseout"/></use>
    <path d="M-4,0h8M0,-4v8" fill="none" stroke="white" stroke-width="1.5" pointer-events="none"/>
  </g>
  <g id="zoomMin">
    <use xlink:href="#rim" fill="#404040"><set attributeName="fill" to="#808080" begin="zoomminus.mouseover" end="zoomminus.mouseout"/></use>
    <path d="M-4,0h8" fill="none" stroke="white" stroke-width="1.5" pointer-events="none"/>
  </g>
  <g id="arrowUp" transform="translate(30 24)">
    <use xlink:href="#rim"/>
    <path pointer-events="none" fill="none" stroke="white" stroke-width="1.5" d="M0,-3.0v7 M-2.5,-0.5L0,-3.0L2.5,-0.5"/>
  </g>
  <g id="arrowRight" transform="rotate(90) translate(36 -43)">
    <use xlink:href="#rim"/>
    <path pointer-events="none" fill="none" stroke="white" stroke-width="1.5" d="M0,-3.0v7 M-2.5,-0.5L0,-3.0L2.5,-0.5"/>
  </g>
  <g id="arrowDown" transform="rotate(180) translate(-30 -48)">
    <use xlink:href="#rim"/>
    <path pointer-events="none" fill="none" stroke="white" stroke-width="1.5" d="M0,-3.0v7 M-2.5,-0.5L0,-3.0L2.5,-0.5"/>
  </g>
  <g id="arrowLeft" transform="rotate(270) translate(-36 17)">
    <use xlink:href="#rim"/>
    <path pointer-events="none" fill="none" stroke="white" stroke-width="1.5" d="M0,-3.0v7 M-2.5,-0.5L0,-3.0L2.5,-0.5"/>
  </g>
  <g id="resetDef">
    <use xlink:href="#rim2" fill="#404040"><set attributeName="fill" to="#808080" begin="reset.mouseover" end="reset.mouseout"/></use>
  </g>
</defs>
<script type="application/ecmascript">
var viewWidth = 978;
var viewHeight = 293;
var sectionId = 'dynsection-0';
</script>
<script type="application/ecmascript" xlink:href="svg.min.js"/>
<svg id="graph" class="graph">
<g id="viewport">
<title>plugins/CarlaBase/carla/source/modules/water/synthesisers/Synthesiser.cpp</title>
<!-- Node1 -->
<g id="Node000001" class="node">
<title>Node1</title>
<g id="a_Node000001"><a xlink:title=" ">
<polygon fill="#999999" stroke="#666666" points="745.12,-285.25 599.38,-285.25 599.38,-243.5 745.12,-243.5 745.12,-285.25"/>
<text xml:space="preserve" text-anchor="start" x="607.38" y="-271.75" font-family="Helvetica,sans-Serif" font-size="10.00">plugins/CarlaBase/carla</text>
<text xml:space="preserve" text-anchor="start" x="607.38" y="-260.5" font-family="Helvetica,sans-Serif" font-size="10.00">/source/modules/water</text>
<text xml:space="preserve" text-anchor="middle" x="672.25" y="-249.25" font-family="Helvetica,sans-Serif" font-size="10.00">/synthesisers/Synthesiser.cpp</text>
</a>
</g>
</g>
<!-- Node2 -->
<g id="Node000002" class="node">
<title>Node2</title>
<g id="a_Node000002"><a xlink:href="Synthesiser_8h.html" target="_top" xlink:title=" ">
<polygon fill="white" stroke="#666666" points="422.5,-207.5 348,-207.5 348,-188.25 422.5,-188.25 422.5,-207.5"/>
<text xml:space="preserve" text-anchor="middle" x="385.25" y="-194" font-family="Helvetica,sans-Serif" font-size="10.00">Synthesiser.h</text>
</a>
</g>
</g>
<!-- Node1&#45;&gt;Node2 -->
<g id="edge1_Node000001_Node000002" class="edge">
<title>Node1&#45;&gt;Node2</title>
<g id="a_edge1_Node000001_Node000002"><a xlink:title=" ">
<path fill="none" stroke="#63b8ff" d="M599.09,-246.93C547.18,-235.27 478.97,-219.94 433.7,-209.76"/>
<polygon fill="#63b8ff" stroke="#63b8ff" points="434.71,-206.4 424.19,-207.63 433.18,-213.23 434.71,-206.4"/>
</a>
</g>
</g>
<!-- Node3 -->
<g id="Node000003" class="node">
<title>Node3</title>
<g id="a_Node000003"><a xlink:href="AudioSampleBuffer_8h.html" target="_top" xlink:title=" ">
<polygon fill="white" stroke="#666666" points="221.5,-146.62 75,-146.62 75,-127.38 221.5,-127.38 221.5,-146.62"/>
<text xml:space="preserve" text-anchor="middle" x="148.25" y="-133.12" font-family="Helvetica,sans-Serif" font-size="10.00">../buffers/AudioSampleBuffer.h</text>
</a>
</g>
</g>
<!-- Node1&#45;&gt;Node3 -->
<g id="edge23_Node000001_Node000003" class="edge">
<title>Node1&#45;&gt;Node3</title>
<g id="a_edge23_Node000001_Node000003"><a xlink:title=" ">
<path fill="none" stroke="#63b8ff" d="M599.01,-255C530.99,-246.3 427.26,-230.69 339.25,-207.5 281.64,-192.32 216.94,-166.93 179.56,-151.41"/>
<polygon fill="#63b8ff" stroke="#63b8ff" points="181.3,-148.34 170.72,-147.7 178.59,-154.79 181.3,-148.34"/>
</a>
</g>
</g>
<!-- Node33 -->
<g id="Node000033" class="node">
<title>Node33</title>
<g id="a_Node000033"><a xlink:href="Array_8h.html" target="_top" xlink:title=" ">
<polygon fill="white" stroke="#666666" points="799,-146.62 697.5,-146.62 697.5,-127.38 799,-127.38 799,-146.62"/>
<text xml:space="preserve" text-anchor="middle" x="748.25" y="-133.12" font-family="Helvetica,sans-Serif" font-size="10.00">../containers/Array.h</text>
</a>
</g>
</g>
<!-- Node1&#45;&gt;Node33 -->
<g id="edge24_Node000001_Node000033" class="edge">
<title>Node1&#45;&gt;Node33</title>
<g id="a_edge24_Node000001_Node000033"><a xlink:title=" ">
<path fill="none" stroke="#63b8ff" d="M698.31,-243.19C709.28,-233.47 721.32,-221 729.25,-207.5 738.27,-192.15 743.13,-172.39 745.67,-157.86"/>
<polygon fill="#63b8ff" stroke="#63b8ff" points="749.1,-158.6 747.13,-148.19 742.18,-157.56 749.1,-158.6"/>
</a>
</g>
</g>
<!-- Node35 -->
<g id="Node000035" class="node">
<title>Node35</title>
<g id="a_Node000035"><a xlink:href="MidiBuffer_8h.html" target="_top" xlink:title=" ">
<polygon fill="white" stroke="#666666" points="720,-207.5 624.5,-207.5 624.5,-188.25 720,-188.25 720,-207.5"/>
<text xml:space="preserve" text-anchor="middle" x="672.25" y="-194" font-family="Helvetica,sans-Serif" font-size="10.00">../midi/MidiBuffer.h</text>
</a>
</g>
</g>
<!-- Node1&#45;&gt;Node35 -->
<g id="edge28_Node000001_Node000035" class="edge">
<title>Node1&#45;&gt;Node35</title>
<g id="a_edge28_Node000001_Node000035"><a xlink:title=" ">
<path fill="none" stroke="#63b8ff" d="M672.25,-243.32C672.25,-235.65 672.25,-226.89 672.25,-219.2"/>
<polygon fill="#63b8ff" stroke="#63b8ff" points="675.75,-219.46 672.25,-209.46 668.75,-219.46 675.75,-219.46"/>
</a>
</g>
</g>
<!-- Node36 -->
<g id="Node000036" class="node">
<title>Node36</title>
<g id="a_Node000036"><a xlink:href="MidiMessage_8h.html" target="_top" xlink:title=" ">
<polygon fill="white" stroke="#666666" points="963.12,-207.5 853.38,-207.5 853.38,-188.25 963.12,-188.25 963.12,-207.5"/>
<text xml:space="preserve" text-anchor="middle" x="908.25" y="-194" font-family="Helvetica,sans-Serif" font-size="10.00">../midi/MidiMessage.h</text>
</a>
</g>
</g>
<!-- Node1&#45;&gt;Node36 -->
<g id="edge30_Node000001_Node000036" class="edge">
<title>Node1&#45;&gt;Node36</title>
<g id="a_edge30_Node000001_Node000036"><a xlink:title=" ">
<path fill="none" stroke="#63b8ff" d="M745.31,-243.41C784.23,-232.77 830.81,-220.04 864.19,-210.92"/>
<polygon fill="#63b8ff" stroke="#63b8ff" points="864.79,-214.38 873.51,-208.37 862.94,-207.63 864.79,-214.38"/>
</a>
</g>
</g>
<!-- Node2&#45;&gt;Node3 -->
<g id="edge2_Node000002_Node000003" class="edge">
<title>Node2&#45;&gt;Node3</title>
<g id="a_edge2_Node000002_Node000003"><a xlink:title=" ">
<path fill="none" stroke="#63b8ff" d="M348.74,-187.8C307.68,-177.61 240.87,-161.01 195.77,-149.81"/>
<polygon fill="#63b8ff" stroke="#63b8ff" points="196.82,-146.46 186.27,-147.45 195.13,-153.25 196.82,-146.46"/>
</a>
</g>
</g>
<!-- Node23 -->
<g id="Node000023" class="node">
<title>Node23</title>
<g id="a_Node000023"><a xlink:href="OwnedArray_8h.html" target="_top" xlink:title=" ">
<polygon fill="white" stroke="#666666" points="679.38,-146.62 547.12,-146.62 547.12,-127.38 679.38,-127.38 679.38,-146.62"/>
<text xml:space="preserve" text-anchor="middle" x="613.25" y="-133.12" font-family="Helvetica,sans-Serif" font-size="10.00">../containers/OwnedArray.h</text>
</a>
</g>
</g>
<!-- Node2&#45;&gt;Node23 -->
<g id="edge7_Node000002_Node000023" class="edge">
<title>Node2&#45;&gt;Node23</title>
<g id="a_edge7_Node000002_Node000023"><a xlink:title=" ">
<path fill="none" stroke="#63b8ff" d="M420.38,-187.8C459.71,-177.65 523.6,-161.15 566.98,-149.95"/>
<polygon fill="#63b8ff" stroke="#63b8ff" points="567.81,-153.35 576.62,-147.46 566.06,-146.57 567.81,-153.35"/>
</a>
</g>
</g>
<!-- Node27 -->
<g id="Node000027" class="node">
<title>Node27</title>
<g id="a_Node000027"><a xlink:href="ReferenceCountedArray_8h.html" target="_top" xlink:title=" ">
<polygon fill="white" stroke="#666666" points="529.12,-152.25 377.38,-152.25 377.38,-121.75 529.12,-121.75 529.12,-152.25"/>
<text xml:space="preserve" text-anchor="start" x="385.38" y="-138.75" font-family="Helvetica,sans-Serif" font-size="10.00">../containers/ReferenceCounted</text>
<text xml:space="preserve" text-anchor="middle" x="453.25" y="-127.5" font-family="Helvetica,sans-Serif" font-size="10.00">Array.h</text>
</a>
</g>
</g>
<!-- Node2&#45;&gt;Node27 -->
<g id="edge14_Node000002_Node000027" class="edge">
<title>Node2&#45;&gt;Node27</title>
<g id="a_edge14_Node000002_Node000027"><a xlink:title=" ">
<path fill="none" stroke="#63b8ff" d="M395.58,-187.93C404.14,-180.52 416.67,-169.67 427.87,-159.97"/>
<polygon fill="#63b8ff" stroke="#63b8ff" points="430.05,-162.71 435.32,-153.52 425.47,-157.42 430.05,-162.71"/>
</a>
</g>
</g>
<!-- Node30 -->
<g id="Node000030" class="node">
<title>Node30</title>
<g id="a_Node000030"><a xlink:href="CarlaJuceUtils_8hpp.html" target="_top" xlink:title=" ">
<polygon fill="white" stroke="#666666" points="214.12,-80.12 116.38,-80.12 116.38,-60.88 214.12,-60.88 214.12,-80.12"/>
<text xml:space="preserve" text-anchor="middle" x="165.25" y="-66.62" font-family="Helvetica,sans-Serif" font-size="10.00">CarlaJuceUtils.hpp</text>
</a>
</g>
</g>
<!-- Node2&#45;&gt;Node30 -->
<g id="edge16_Node000002_Node000030" class="edge">
<title>Node2&#45;&gt;Node30</title>
<g id="a_edge16_Node000002_Node000030"><a xlink:title=" ">
<path fill="none" stroke="#63b8ff" d="M353.76,-187.82C329.5,-180.16 295.6,-167.92 268.25,-152.25 249.46,-141.48 247.26,-135.15 230.25,-121.75 215.43,-110.07 198.57,-97.05 185.73,-87.18"/>
<polygon fill="#63b8ff" stroke="#63b8ff" points="188.07,-84.56 178.01,-81.25 183.81,-90.12 188.07,-84.56"/>
</a>
</g>
</g>
<!-- Node31 -->
<g id="Node000031" class="node">
<title>Node31</title>
<g id="a_Node000031"><a xlink:href="CarlaMutex_8hpp.html" target="_top" xlink:title=" ">
<polygon fill="white" stroke="#666666" points="359.62,-146.62 276.88,-146.62 276.88,-127.38 359.62,-127.38 359.62,-146.62"/>
<text xml:space="preserve" text-anchor="middle" x="318.25" y="-133.12" font-family="Helvetica,sans-Serif" font-size="10.00">CarlaMutex.hpp</text>
</a>
</g>
</g>
<!-- Node2&#45;&gt;Node31 -->
<g id="edge20_Node000002_Node000031" class="edge">
<title>Node2&#45;&gt;Node31</title>
<g id="a_edge20_Node000002_Node000031"><a xlink:title=" ">
<path fill="none" stroke="#63b8ff" d="M375.07,-187.93C365.04,-179.12 349.46,-165.43 337.15,-154.61"/>
<polygon fill="#63b8ff" stroke="#63b8ff" points="339.48,-152 329.66,-148.03 334.86,-157.26 339.48,-152"/>
</a>
</g>
</g>
<!-- Node4 -->
<g id="Node000004" class="node">
<title>Node4</title>
<g id="a_Node000004"><a xlink:href="HeapBlock_8h.html" target="_top" xlink:title=" ">
<polygon fill="#fff0f0" stroke="red" points="600.5,-19.25 484,-19.25 484,0 600.5,0 600.5,-19.25"/>
<text xml:space="preserve" text-anchor="middle" x="542.25" y="-5.75" font-family="Helvetica,sans-Serif" font-size="10.00">../memory/HeapBlock.h</text>
</a>
</g>
</g>
<!-- Node3&#45;&gt;Node4 -->
<g id="edge3_Node000003_Node000004" class="edge">
<title>Node3&#45;&gt;Node4</title>
<g id="a_edge3_Node000003_Node000004"><a xlink:title=" ">
<path fill="none" stroke="#63b8ff" d="M161.74,-126.91C187.37,-110.09 245.37,-74.09 299.25,-55.25 355.78,-35.48 422.93,-24 472.3,-17.65"/>
<polygon fill="#63b8ff" stroke="#63b8ff" points="472.51,-21.15 482,-16.45 471.65,-14.21 472.51,-21.15"/>
</a>
</g>
</g>
<!-- Node21 -->
<g id="Node000021" class="node">
<title>Node21</title>
<g id="a_Node000021"><a xlink:href="CarlaMathUtils_8hpp.html" target="_top" xlink:title=" ">
<polygon fill="#fff0f0" stroke="red" points="98.5,-80.12 0,-80.12 0,-60.88 98.5,-60.88 98.5,-80.12"/>
<text xml:space="preserve" text-anchor="middle" x="49.25" y="-66.62" font-family="Helvetica,sans-Serif" font-size="10.00">CarlaMathUtils.hpp</text>
</a>
</g>
</g>
<!-- Node3&#45;&gt;Node21 -->
<g id="edge4_Node000003_Node000021" class="edge">
<title>Node3&#45;&gt;Node21</title>
<g id="a_edge4_Node000003_Node000021"><a xlink:title=" ">
<path fill="none" stroke="#63b8ff" d="M134.48,-127.03C118.54,-116.64 92.01,-99.36 72.78,-86.83"/>
<polygon fill="#63b8ff" stroke="#63b8ff" points="74.78,-83.95 64.49,-81.43 70.95,-89.82 74.78,-83.95"/>
</a>
</g>
</g>
<!-- Node12 -->
<g id="Node000012" class="node">
<title>Node12</title>
<g id="a_Node000012"><a xlink:href="CarlaUtils_8hpp.html" target="_top" xlink:title=" ">
<polygon fill="#fff0f0" stroke="red" points="287.62,-19.25 210.88,-19.25 210.88,0 287.62,0 287.62,-19.25"/>
<text xml:space="preserve" text-anchor="middle" x="249.25" y="-5.75" font-family="Helvetica,sans-Serif" font-size="10.00">CarlaUtils.hpp</text>
</a>
</g>
</g>
<!-- Node21&#45;&gt;Node12 -->
<g id="edge5_Node000021_Node000012" class="edge">
<title>Node21&#45;&gt;Node12</title>
<g id="a_edge5_Node000021_Node000012"><a xlink:title=" ">
<path fill="none" stroke="#63b8ff" d="M80.06,-60.43C114.27,-50.36 169.66,-34.05 207.69,-22.86"/>
<polygon fill="#63b8ff" stroke="#63b8ff" points="208.35,-26.31 216.95,-20.13 206.37,-19.6 208.35,-26.31"/>
</a>
</g>
</g>
<!-- Node20 -->
<g id="Node000020" class="node">
<title>Node20</title>
<g id="a_Node000020"><a xlink:title=" ">
<polygon fill="#e0e0e0" stroke="#999999" points="95.75,-19.25 52.75,-19.25 52.75,0 95.75,0 95.75,-19.25"/>
<text xml:space="preserve" text-anchor="middle" x="74.25" y="-5.75" font-family="Helvetica,sans-Serif" font-size="10.00">cmath</text>
</a>
</g>
</g>
<!-- Node21&#45;&gt;Node20 -->
<g id="edge6_Node000021_Node000020" class="edge">
<title>Node21&#45;&gt;Node20</title>
<g id="a_edge6_Node000021_Node000020"><a xlink:title=" ">
<path fill="none" stroke="#63b8ff" d="M53.05,-60.56C56.46,-52.52 61.59,-40.43 65.96,-30.16"/>
<polygon fill="#63b8ff" stroke="#63b8ff" points="69.14,-31.62 69.83,-21.04 62.7,-28.88 69.14,-31.62"/>
</a>
</g>
</g>
<!-- Node24 -->
<g id="Node000024" class="node">
<title>Node24</title>
<g id="a_Node000024"><a xlink:href="ArrayAllocationBase_8h.html" target="_top" xlink:title=" ">
<polygon fill="white" stroke="#666666" points="775.88,-80.12 664.62,-80.12 664.62,-60.88 775.88,-60.88 775.88,-80.12"/>
<text xml:space="preserve" text-anchor="middle" x="720.25" y="-66.62" font-family="Helvetica,sans-Serif" font-size="10.00">ArrayAllocationBase.h</text>
</a>
</g>
</g>
<!-- Node23&#45;&gt;Node24 -->
<g id="edge8_Node000023_Node000024" class="edge">
<title>Node23&#45;&gt;Node24</title>
<g id="a_edge8_Node000023_Node000024"><a xlink:title=" ">
<path fill="none" stroke="#63b8ff" d="M628.13,-127.03C645.52,-116.55 674.56,-99.04 695.4,-86.48"/>
<polygon fill="#63b8ff" stroke="#63b8ff" points="697.1,-89.54 703.86,-81.38 693.49,-83.55 697.1,-89.54"/>
</a>
</g>
</g>
<!-- Node25 -->
<g id="Node000025" class="node">
<title>Node25</title>
<g id="a_Node000025"><a xlink:href="CarlaScopeUtils_8hpp.html" target="_top" xlink:title=" ">
<polygon fill="#fff0f0" stroke="red" points="646.5,-80.12 542,-80.12 542,-60.88 646.5,-60.88 646.5,-80.12"/>
<text xml:space="preserve" text-anchor="middle" x="594.25" y="-66.62" font-family="Helvetica,sans-Serif" font-size="10.00">CarlaScopeUtils.hpp</text>
</a>
</g>
</g>
<!-- Node23&#45;&gt;Node25 -->
<g id="edge11_Node000023_Node000025" class="edge">
<title>Node23&#45;&gt;Node25</title>
<g id="a_edge11_Node000023_Node000025"><a xlink:title=" ">
<path fill="none" stroke="#63b8ff" d="M610.61,-127.03C607.89,-117.79 603.55,-103.08 600.03,-91.13"/>
<polygon fill="#63b8ff" stroke="#63b8ff" points="603.48,-90.45 597.3,-81.84 596.77,-92.43 603.48,-90.45"/>
</a>
</g>
</g>
<!-- Node24&#45;&gt;Node4 -->
<g id="edge9_Node000024_Node000004" class="edge">
<title>Node24&#45;&gt;Node4</title>
<g id="a_edge9_Node000024_Node000004"><a xlink:title=" ">
<path fill="none" stroke="#63b8ff" d="M692.83,-60.43C662.78,-50.49 614.35,-34.47 580.56,-23.29"/>
<polygon fill="#63b8ff" stroke="#63b8ff" points="581.73,-20 571.14,-20.18 579.54,-26.64 581.73,-20"/>
</a>
</g>
</g>
<!-- Node24&#45;&gt;Node12 -->
<g id="edge10_Node000024_Node000012" class="edge">
<title>Node24&#45;&gt;Node12</title>
<g id="a_edge10_Node000024_Node000012"><a xlink:title=" ">
<path fill="none" stroke="#63b8ff" d="M681.89,-60.38C673.16,-58.51 663.91,-56.67 655.25,-55.25 527.79,-34.33 376.17,-20.59 299.3,-14.4"/>
<polygon fill="#63b8ff" stroke="#63b8ff" points="299.82,-10.93 289.57,-13.63 299.26,-17.91 299.82,-10.93"/>
</a>
</g>
</g>
<!-- Node25&#45;&gt;Node12 -->
<g id="edge12_Node000025_Node000012" class="edge">
<title>Node25&#45;&gt;Node12</title>
<g id="a_edge12_Node000025_Node000012"><a xlink:title=" ">
<path fill="none" stroke="#63b8ff" d="M557.25,-60.4C549.35,-58.58 541.04,-56.77 533.25,-55.25 451.67,-39.33 356.05,-25.24 299.18,-17.34"/>
<polygon fill="#63b8ff" stroke="#63b8ff" points="299.88,-13.9 289.49,-16 298.92,-20.83 299.88,-13.9"/>
</a>
</g>
</g>
<!-- Node19 -->
<g id="Node000019" class="node">
<title>Node19</title>
<g id="a_Node000019"><a xlink:title=" ">
<polygon fill="#e0e0e0" stroke="#999999" points="193.12,-19.25 137.38,-19.25 137.38,0 193.12,0 193.12,-19.25"/>
<text xml:space="preserve" text-anchor="middle" x="165.25" y="-5.75" font-family="Helvetica,sans-Serif" font-size="10.00">algorithm</text>
</a>
</g>
</g>
<!-- Node25&#45;&gt;Node19 -->
<g id="edge13_Node000025_Node000019" class="edge">
<title>Node25&#45;&gt;Node19</title>
<g id="a_edge13_Node000025_Node000019"><a xlink:title=" ">
<path fill="none" stroke="#63b8ff" d="M558.59,-60.41C550.31,-58.51 541.5,-56.66 533.25,-55.25 390.94,-30.98 350.11,-43.45 204.59,-19.44"/>
<polygon fill="#63b8ff" stroke="#63b8ff" points="205.4,-16.03 194.95,-17.82 204.23,-22.93 205.4,-16.03"/>
</a>
</g>
</g>
<!-- Node28 -->
<g id="Node000028" class="node">
<title>Node28</title>
<g id="a_Node000028"><a xlink:href="ReferenceCountedObject_8h.html" target="_top" xlink:title=" ">
<polygon fill="#fff0f0" stroke="red" points="523.88,-85.75 382.62,-85.75 382.62,-55.25 523.88,-55.25 523.88,-85.75"/>
<text xml:space="preserve" text-anchor="start" x="390.62" y="-72.25" font-family="Helvetica,sans-Serif" font-size="10.00">../memory/ReferenceCounted</text>
<text xml:space="preserve" text-anchor="middle" x="453.25" y="-61" font-family="Helvetica,sans-Serif" font-size="10.00">Object.h</text>
</a>
</g>
</g>
<!-- Node27&#45;&gt;Node28 -->
<g id="edge15_Node000027_Node000028" class="edge">
<title>Node27&#45;&gt;Node28</title>
<g id="a_edge15_Node000027_Node000028"><a xlink:title=" ">
<path fill="none" stroke="#63b8ff" d="M453.25,-121.36C453.25,-114.27 453.25,-105.54 453.25,-97.38"/>
<polygon fill="#63b8ff" stroke="#63b8ff" points="456.75,-97.59 453.25,-87.59 449.75,-97.59 456.75,-97.59"/>
</a>
</g>
</g>
<!-- Node30&#45;&gt;Node12 -->
<g id="edge17_Node000030_Node000012" class="edge">
<title>Node30&#45;&gt;Node12</title>
<g id="a_edge17_Node000030_Node000012"><a xlink:title=" ">
<path fill="none" stroke="#63b8ff" d="M178.01,-60.56C191.08,-51.39 211.66,-36.97 227.35,-25.98"/>
<polygon fill="#63b8ff" stroke="#63b8ff" points="228.95,-29.13 235.13,-20.52 224.93,-23.39 228.95,-29.13"/>
</a>
</g>
</g>
<!-- Node30&#45;&gt;Node20 -->
<g id="edge19_Node000030_Node000020" class="edge">
<title>Node30&#45;&gt;Node20</title>
<g id="a_edge19_Node000030_Node000020"><a xlink:title=" ">
<path fill="none" stroke="#63b8ff" d="M151.43,-60.56C137.13,-51.31 114.55,-36.7 97.5,-25.67"/>
<polygon fill="#63b8ff" stroke="#63b8ff" points="99.77,-22.97 89.47,-20.47 95.97,-28.84 99.77,-22.97"/>
</a>
</g>
</g>
<!-- Node30&#45;&gt;Node19 -->
<g id="edge18_Node000030_Node000019" class="edge">
<title>Node30&#45;&gt;Node19</title>
<g id="a_edge18_Node000030_Node000019"><a xlink:title=" ">
<path fill="none" stroke="#63b8ff" d="M165.25,-60.56C165.25,-52.78 165.25,-41.2 165.25,-31.16"/>
<polygon fill="#63b8ff" stroke="#63b8ff" points="168.75,-31.16 165.25,-21.16 161.75,-31.16 168.75,-31.16"/>
</a>
</g>
</g>
<!-- Node31&#45;&gt;Node12 -->
<g id="edge21_Node000031_Node000012" class="edge">
<title>Node31&#45;&gt;Node12</title>
<g id="a_edge21_Node000031_Node000012"><a xlink:title=" ">
<path fill="none" stroke="#63b8ff" d="M313.29,-126.98C302.1,-106.65 274.7,-56.88 259.62,-29.48"/>
<polygon fill="#63b8ff" stroke="#63b8ff" points="262.78,-27.96 254.9,-20.89 256.65,-31.33 262.78,-27.96"/>
</a>
</g>
</g>
<!-- Node32 -->
<g id="Node000032" class="node">
<title>Node32</title>
<g id="a_Node000032"><a xlink:title=" ">
<polygon fill="#e0e0e0" stroke="#999999" points="364.12,-80.12 308.38,-80.12 308.38,-60.88 364.12,-60.88 364.12,-80.12"/>
<text xml:space="preserve" text-anchor="middle" x="336.25" y="-66.62" font-family="Helvetica,sans-Serif" font-size="10.00">pthread.h</text>
</a>
</g>
</g>
<!-- Node31&#45;&gt;Node32 -->
<g id="edge22_Node000031_Node000032" class="edge">
<title>Node31&#45;&gt;Node32</title>
<g id="a_edge22_Node000031_Node000032"><a xlink:title=" ">
<path fill="none" stroke="#63b8ff" d="M320.75,-127.03C323.33,-117.79 327.44,-103.08 330.77,-91.13"/>
<polygon fill="#63b8ff" stroke="#63b8ff" points="334.04,-92.42 333.36,-81.85 327.3,-90.54 334.04,-92.42"/>
</a>
</g>
</g>
<!-- Node33&#45;&gt;Node24 -->
<g id="edge25_Node000033_Node000024" class="edge">
<title>Node33&#45;&gt;Node24</title>
<g id="a_edge25_Node000033_Node000024"><a xlink:title=" ">
<path fill="none" stroke="#63b8ff" d="M744.36,-127.03C740.3,-117.69 733.83,-102.78 728.61,-90.76"/>
<polygon fill="#63b8ff" stroke="#63b8ff" points="731.91,-89.56 724.71,-81.78 725.48,-92.35 731.91,-89.56"/>
</a>
</g>
</g>
<!-- Node34 -->
<g id="Node000034" class="node">
<title>Node34</title>
<g id="a_Node000034"><a xlink:href="ElementComparator_8h.html" target="_top" xlink:title=" ">
<polygon fill="white" stroke="#666666" points="958.5,-80.12 794,-80.12 794,-60.88 958.5,-60.88 958.5,-80.12"/>
<text xml:space="preserve" text-anchor="middle" x="876.25" y="-66.62" font-family="Helvetica,sans-Serif" font-size="10.00">../containers/ElementComparator.h</text>
</a>
</g>
</g>
<!-- Node33&#45;&gt;Node34 -->
<g id="edge26_Node000033_Node000034" class="edge">
<title>Node33&#45;&gt;Node34</title>
<g id="a_edge26_Node000033_Node000034"><a xlink:title=" ">
<path fill="none" stroke="#63b8ff" d="M766.32,-126.9C787.57,-116.19 823.1,-98.28 848,-85.74"/>
<polygon fill="#63b8ff" stroke="#63b8ff" points="849.57,-88.86 856.92,-81.24 846.42,-82.61 849.57,-88.86"/>
</a>
</g>
</g>
<!-- Node6 -->
<g id="Node000006" class="node">
<title>Node6</title>
<g id="a_Node000006"><a xlink:href="water_8h.html" target="_top" xlink:title=" ">
<polygon fill="#fff0f0" stroke="red" points="958.75,-19.25 903.75,-19.25 903.75,0 958.75,0 958.75,-19.25"/>
<text xml:space="preserve" text-anchor="middle" x="931.25" y="-5.75" font-family="Helvetica,sans-Serif" font-size="10.00">../water.h</text>
</a>
</g>
</g>
<!-- Node34&#45;&gt;Node6 -->
<g id="edge27_Node000034_Node000006" class="edge">
<title>Node34&#45;&gt;Node6</title>
<g id="a_edge27_Node000034_Node000006"><a xlink:title=" ">
<path fill="none" stroke="#63b8ff" d="M884.6,-60.56C892.68,-51.91 905.13,-38.59 915.14,-27.87"/>
<polygon fill="#63b8ff" stroke="#63b8ff" points="917.52,-30.45 921.78,-20.76 912.4,-25.68 917.52,-30.45"/>
</a>
</g>
</g>
<!-- Node35&#45;&gt;Node33 -->
<g id="edge29_Node000035_Node000033" class="edge">
<title>Node35&#45;&gt;Node33</title>
<g id="a_edge29_Node000035_Node000033"><a xlink:title=" ">
<path fill="none" stroke="#63b8ff" d="M683.79,-187.93C695.4,-178.94 713.54,-164.89 727.63,-153.98"/>
<polygon fill="#63b8ff" stroke="#63b8ff" points="729.64,-156.84 735.4,-147.95 725.35,-151.31 729.64,-156.84"/>
</a>
</g>
</g>
<!-- Node36&#45;&gt;Node6 -->
<g id="edge31_Node000036_Node000006" class="edge">
<title>Node36&#45;&gt;Node6</title>
<g id="a_edge31_Node000036_Node000006"><a xlink:title=" ">
<path fill="none" stroke="#63b8ff" d="M914.95,-187.99C928.11,-169.92 956.96,-127.08 967.25,-85.75 970.53,-72.6 971.76,-68.03 967.25,-55.25 963.63,-45 956.54,-35.37 949.61,-27.7"/>
<polygon fill="#63b8ff" stroke="#63b8ff" points="952.31,-25.45 942.81,-20.75 947.31,-30.35 952.31,-25.45"/>
</a>
</g>
</g>
</g>
</svg>

<g id="navigator" transform="translate(0 0)" fill="#404254">
  <rect fill="#f2f5e9" fill-opacity="0.5" stroke="#606060" stroke-width=".5" x="0" y="0" width="60" height="60"/>
  <use id="zoomplus" xlink:href="#zoomPlus" x="17" y="9" onmousedown="handleZoom(evt,'in')"/>
  <use id="zoomminus" xlink:href="#zoomMin" x="42" y="9" onmousedown="handleZoom(evt,'out')"/>
  <use id="reset" xlink:href="#resetDef" x="30" y="36" onmousedown="handleReset()"/>
   <use id="arrowup" xlink:href="#arrowUp" x="0" y="0" onmousedown="handlePan(0,-1)"/>
  <use id="arrowright" xlink:href="#arrowRight" x="0" y="0" onmousedown="handlePan(1,0)"/>
  <use id="arrowdown" xlink:href="#arrowDown" x="0" y="0" onmousedown="handlePan(0,1)"/>
  <use id="arrowleft" xlink:href="#arrowLeft" x="0" y="0" onmousedown="handlePan(-1,0)"/>
</g>
<svg viewBox="0 0 15 15" width="100%" height="30px" preserveAspectRatio="xMaxYMin meet">
 <g id="arrow_out" transform="scale(0.3 0.3)">
  <a xlink:href="Synthesiser_8cpp__incl_org.svg" target="_base">
   <rect id="button" ry="5" rx="5" y="6" x="6" height="38" width="38"
        fill="#f2f5e9" fill-opacity="0.5" stroke="#606060" stroke-width="1.0"/>
   <path id="arrow"
     d="M 11.500037,31.436501 C 11.940474,20.09759 22.043105,11.32322 32.158766,21.979434 L 37.068811,17.246167 C 37.068811,17.246167 37.088388,32 37.088388,32 L 22.160133,31.978069 C 22.160133,31.978069 26.997745,27.140456 26.997745,27.140456 C 18.528582,18.264221 13.291696,25.230495 11.500037,31.436501 z"
     style="fill:#404040;"/>
  </a>
 </g>
</svg>

<style type='text/css'>
<![CDATA[
[data-mouse-over-selected='false'] { opacity: 0.7; }
[data-mouse-over-selected='true']  { opacity: 1.0; }
]]>
</style>
<script type="application/ecmascript"><![CDATA[
document.addEventListener('DOMContentLoaded', (event) => {
  highlightEdges();
  highlightAdjacentNodes();
});
]]></script>
</svg>
