<?xml version="1.0" encoding="UTF-8" standalone="no"?>
<!DOCTYPE svg PUBLIC "-//W3C//DTD SVG 1.1//EN"
 "http://www.w3.org/Graphics/SVG/1.1/DTD/svg11.dtd">
<!-- Generated by graphviz version 14.0.2 (0)
 -->
<!-- Title: plugins/LadspaEffect/tap/tap&#45;plugins/tap_reverb_presets.h Pages: 1 -->
<svg width="152pt" height="216pt"
 viewBox="0.00 0.00 152.00 216.00" xmlns="http://www.w3.org/2000/svg" xmlns:xlink="http://www.w3.org/1999/xlink">
<g id="graph0" class="graph" transform="scale(1 1) rotate(0) translate(4 211.5)">
<title>plugins/LadspaEffect/tap/tap&#45;plugins/tap_reverb_presets.h</title>
<!-- Node1 -->
<g id="Node000001" class="node">
<title>Node1</title>
<g id="a_Node000001"><a xlink:title=" ">
<polygon fill="#999999" stroke="#666666" points="132.12,-207.5 25.38,-207.5 25.38,-165.75 132.12,-165.75 132.12,-207.5"/>
<text xml:space="preserve" text-anchor="start" x="33.38" y="-194" font-family="Helvetica,sans-Serif" font-size="10.00">plugins/LadspaEffect</text>
<text xml:space="preserve" text-anchor="start" x="33.38" y="-182.75" font-family="Helvetica,sans-Serif" font-size="10.00">/tap/tap&#45;plugins/tap</text>
<text xml:space="preserve" text-anchor="middle" x="78.75" y="-171.5" font-family="Helvetica,sans-Serif" font-size="10.00">_reverb_presets.h</text>
</a>
</g>
</g>
<!-- Node2 -->
<g id="Node000002" class="node">
<title>Node2</title>
<g id="a_Node000002"><a xlink:href="tap__reverb_8h.html" target="_top" xlink:title=" ">
<polygon fill="white" stroke="#666666" points="113.38,-129.75 44.12,-129.75 44.12,-110.5 113.38,-110.5 113.38,-129.75"/>
<text xml:space="preserve" text-anchor="middle" x="78.75" y="-116.25" font-family="Helvetica,sans-Serif" font-size="10.00">tap_reverb.h</text>
</a>
</g>
</g>
<!-- Node1&#45;&gt;Node2 -->
<g id="edge1_Node000001_Node000002" class="edge">
<title>Node1&#45;&gt;Node2</title>
<g id="a_edge1_Node000001_Node000002"><a xlink:title=" ">
<path fill="none" stroke="#63b8ff" d="M78.75,-165.57C78.75,-157.9 78.75,-149.14 78.75,-141.45"/>
<polygon fill="#63b8ff" stroke="#63b8ff" points="82.25,-141.71 78.75,-131.71 75.25,-141.71 82.25,-141.71"/>
</a>
</g>
</g>
<!-- Node3 -->
<g id="Node000003" class="node">
<title>Node3</title>
<g id="a_Node000003"><a xlink:href="tap__platform_8h.html" target="_top" xlink:title=" ">
<polygon fill="white" stroke="#666666" points="77.5,-74.5 0,-74.5 0,-55.25 77.5,-55.25 77.5,-74.5"/>
<text xml:space="preserve" text-anchor="middle" x="38.75" y="-61" font-family="Helvetica,sans-Serif" font-size="10.00">tap_platform.h</text>
</a>
</g>
</g>
<!-- Node2&#45;&gt;Node3 -->
<g id="edge2_Node000002_Node000003" class="edge">
<title>Node2&#45;&gt;Node3</title>
<g id="a_edge2_Node000002_Node000003"><a xlink:title=" ">
<path fill="none" stroke="#63b8ff" d="M72.14,-110.33C66.79,-103.21 59.07,-92.93 52.4,-84.05"/>
<polygon fill="#63b8ff" stroke="#63b8ff" points="55.21,-81.96 46.41,-76.07 49.62,-86.17 55.21,-81.96"/>
</a>
</g>
</g>
<!-- Node5 -->
<g id="Node000005" class="node">
<title>Node5</title>
<g id="a_Node000005"><a xlink:title=" ">
<polygon fill="#e0e0e0" stroke="#999999" points="143.5,-74.5 96,-74.5 96,-55.25 143.5,-55.25 143.5,-74.5"/>
<text xml:space="preserve" text-anchor="middle" x="119.75" y="-61" font-family="Helvetica,sans-Serif" font-size="10.00">stdint.h</text>
</a>
</g>
</g>
<!-- Node2&#45;&gt;Node5 -->
<g id="edge4_Node000002_Node000005" class="edge">
<title>Node2&#45;&gt;Node5</title>
<g id="a_edge4_Node000002_Node000005"><a xlink:title=" ">
<path fill="none" stroke="#63b8ff" d="M85.52,-110.33C91.07,-103.13 99.09,-92.71 105.98,-83.76"/>
<polygon fill="#63b8ff" stroke="#63b8ff" points="108.58,-86.12 111.91,-76.06 103.04,-81.85 108.58,-86.12"/>
</a>
</g>
</g>
<!-- Node4 -->
<g id="Node000004" class="node">
<title>Node4</title>
<g id="a_Node000004"><a xlink:title=" ">
<polygon fill="#e0e0e0" stroke="#999999" points="61.38,-19.25 16.12,-19.25 16.12,0 61.38,0 61.38,-19.25"/>
<text xml:space="preserve" text-anchor="middle" x="38.75" y="-5.75" font-family="Helvetica,sans-Serif" font-size="10.00">math.h</text>
</a>
</g>
</g>
<!-- Node3&#45;&gt;Node4 -->
<g id="edge3_Node000003_Node000004" class="edge">
<title>Node3&#45;&gt;Node4</title>
<g id="a_edge3_Node000003_Node000004"><a xlink:title=" ">
<path fill="none" stroke="#63b8ff" d="M38.75,-55.08C38.75,-48.57 38.75,-39.42 38.75,-31.12"/>
<polygon fill="#63b8ff" stroke="#63b8ff" points="42.25,-31.12 38.75,-21.12 35.25,-31.12 42.25,-31.12"/>
</a>
</g>
</g>
</g>
</svg>
