<?xml version="1.0" encoding="UTF-8" standalone="no"?>
<!DOCTYPE svg PUBLIC "-//W3C//DTD SVG 1.1//EN"
 "http://www.w3.org/Graphics/SVG/1.1/DTD/svg11.dtd">
<!-- Generated by graphviz version 14.0.2 (0)
 -->
<!-- Title: plugins/TapTempo/TapTempoView.h Pages: 1 -->
<svg width="336pt" height="160pt"
 viewBox="0.00 0.00 336.00 160.00" xmlns="http://www.w3.org/2000/svg" xmlns:xlink="http://www.w3.org/1999/xlink">

<svg id="main" version="1.1" xmlns="http://www.w3.org/2000/svg" xmlns:xlink="http://www.w3.org/1999/xlink" xml:space="preserve">

<style type="text/css"><![CDATA[
.node, .edge {opacity: 0.7;}
.node.selected, .edge.selected {opacity: 1;}
.edge:hover path { stroke: red; }
.edge:hover polygon { stroke: red; fill: red; }
]]></style>
<script type="application/ecmascript" xlink:href="svg.min.js"/>
<svg id="graph" class="graph">
<g id="graph0" class="graph" transform="scale(1 1) rotate(0) translate(4 156.25)">
<title>plugins/TapTempo/TapTempoView.h</title>
<!-- Node1 -->
<g id="Node000001" class="node">
<title>Node1</title>
<g id="a_Node000001"><a xlink:title=" ">
<polygon fill="#999999" stroke="#666666" points="274.75,-152.25 129,-152.25 129,-121.75 274.75,-121.75 274.75,-152.25"/>
<text xml:space="preserve" text-anchor="start" x="137" y="-138.75" font-family="Helvetica,sans-Serif" font-size="10.00">plugins/TapTempo/TapTempo</text>
<text xml:space="preserve" text-anchor="middle" x="201.88" y="-127.5" font-family="Helvetica,sans-Serif" font-size="10.00">View.h</text>
</a>
</g>
</g>
<!-- Node2 -->
<g id="Node000002" class="node">
<title>Node2</title>
<g id="a_Node000002"><a xlink:href="TapTempo_8h.html" target="_top" xlink:title=" ">
<polygon fill="white" stroke="#666666" points="226.5,-85.75 73.25,-85.75 73.25,-66.5 226.5,-66.5 226.5,-85.75"/>
<text xml:space="preserve" text-anchor="middle" x="149.88" y="-72.25" font-family="Helvetica,sans-Serif" font-size="10.00">plugins/TapTempo/TapTempo.h</text>
</a>
</g>
</g>
<!-- Node1&#45;&gt;Node2 -->
<g id="edge1_Node000001_Node000002" class="edge">
<title>Node1&#45;&gt;Node2</title>
<g id="a_edge1_Node000001_Node000002"><a xlink:title=" ">
<path fill="none" stroke="#63b8ff" d="M181.47,-112.9C173.22,-103.55 164.18,-93.32 157.89,-86.2"/>
<polygon fill="#63b8ff" stroke="#63b8ff" points="178.78,-115.13 188.02,-120.31 184.02,-110.5 178.78,-115.13"/>
</a>
</g>
</g>
<!-- Node4 -->
<g id="Node000004" class="node">
<title>Node4</title>
<g id="a_Node000004"><a xlink:href="TapTempoView_8cpp.html" target="_top" xlink:title=" ">
<polygon fill="white" stroke="#666666" points="327.75,-30.5 182,-30.5 182,0 327.75,0 327.75,-30.5"/>
<text xml:space="preserve" text-anchor="start" x="190" y="-17" font-family="Helvetica,sans-Serif" font-size="10.00">plugins/TapTempo/TapTempo</text>
<text xml:space="preserve" text-anchor="middle" x="254.88" y="-5.75" font-family="Helvetica,sans-Serif" font-size="10.00">View.cpp</text>
</a>
</g>
</g>
<!-- Node1&#45;&gt;Node4 -->
<g id="edge4_Node000001_Node000004" class="edge">
<title>Node1&#45;&gt;Node4</title>
<g id="a_edge4_Node000001_Node000004"><a xlink:title=" ">
<path fill="none" stroke="#63b8ff" d="M220.3,-112.23C225.9,-104.16 231.68,-94.87 235.88,-85.75 244.18,-67.68 249.5,-45.25 252.34,-30.84"/>
<polygon fill="#63b8ff" stroke="#63b8ff" points="217.59,-110 214.55,-120.15 223.26,-114.11 217.59,-110"/>
</a>
</g>
</g>
<!-- Node3 -->
<g id="Node000003" class="node">
<title>Node3</title>
<g id="a_Node000003"><a xlink:href="TapTempo_8cpp.html" target="_top" xlink:title=" ">
<polygon fill="white" stroke="#666666" points="163.75,-24.88 0,-24.88 0,-5.63 163.75,-5.63 163.75,-24.88"/>
<text xml:space="preserve" text-anchor="middle" x="81.88" y="-11.38" font-family="Helvetica,sans-Serif" font-size="10.00">plugins/TapTempo/TapTempo.cpp</text>
</a>
</g>
</g>
<!-- Node2&#45;&gt;Node3 -->
<g id="edge2_Node000002_Node000003" class="edge">
<title>Node2&#45;&gt;Node3</title>
<g id="a_edge2_Node000002_Node000003"><a xlink:title=" ">
<path fill="none" stroke="#63b8ff" d="M131.18,-58.94C118.65,-48.09 102.62,-34.21 92.3,-25.28"/>
<polygon fill="#63b8ff" stroke="#63b8ff" points="128.55,-61.29 138.4,-65.19 133.13,-56 128.55,-61.29"/>
</a>
</g>
</g>
<!-- Node2&#45;&gt;Node4 -->
<g id="edge3_Node000002_Node000004" class="edge">
<title>Node2&#45;&gt;Node4</title>
<g id="a_edge3_Node000002_Node000004"><a xlink:title=" ">
<path fill="none" stroke="#63b8ff" d="M175.71,-60.64C191.92,-51.55 212.74,-39.88 228.96,-30.78"/>
<polygon fill="#63b8ff" stroke="#63b8ff" points="174.15,-57.5 167.14,-65.44 177.58,-63.6 174.15,-57.5"/>
</a>
</g>
</g>
</g>
</svg>
</svg>

<style type='text/css'>
<![CDATA[
[data-mouse-over-selected='false'] { opacity: 0.7; }
[data-mouse-over-selected='true']  { opacity: 1.0; }
]]>
</style>
<script type="application/ecmascript"><![CDATA[
document.addEventListener('DOMContentLoaded', (event) => {
  highlightEdges();
  highlightAdjacentNodes();
});
]]></script>
</svg>
