<?xml version="1.0" encoding="UTF-8" standalone="no"?>
<!DOCTYPE svg PUBLIC "-//W3C//DTD SVG 1.1//EN"
 "http://www.w3.org/Graphics/SVG/1.1/DTD/svg11.dtd">
<!-- Generated by graphviz version 14.0.2 (0)
 -->
<!-- Title: main Pages: 1 -->
<svg width="207pt" height="174pt"
 viewBox="0.00 0.00 207.00 174.00" xmlns="http://www.w3.org/2000/svg" xmlns:xlink="http://www.w3.org/1999/xlink">
<g id="graph0" class="graph" transform="scale(1 1) rotate(0) translate(4 169.88)">
<title>main</title>
<!-- Node1 -->
<g id="Node000001" class="node">
<title>Node1</title>
<g id="a_Node000001"><a xlink:title=" ">
<polygon fill="#999999" stroke="#666666" points="37,-86.25 0,-86.25 0,-67 37,-67 37,-86.25"/>
<text xml:space="preserve" text-anchor="middle" x="18.5" y="-72.75" font-family="Helvetica,sans-Serif" font-size="10.00">main</text>
</a>
</g>
</g>
<!-- Node2 -->
<g id="Node000002" class="node">
<title>Node2</title>
<g id="a_Node000002"><a xlink:href="classJack_1_1detail_1_1JackSynchro.html#a9cb6abe2e858cefcf81369c0864d3c6a" target="_top" xlink:title=" ">
<polygon fill="white" stroke="#666666" points="198.5,-165.88 73,-165.88 73,-135.38 198.5,-135.38 198.5,-165.88"/>
<text xml:space="preserve" text-anchor="start" x="81" y="-152.38" font-family="Helvetica,sans-Serif" font-size="10.00">Jack::detail::JackSynchro</text>
<text xml:space="preserve" text-anchor="middle" x="135.75" y="-141.12" font-family="Helvetica,sans-Serif" font-size="10.00">::ConnectInput</text>
</a>
</g>
</g>
<!-- Node1&#45;&gt;Node2 -->
<g id="edge1_Node000001_Node000002" class="edge">
<title>Node1&#45;&gt;Node2</title>
<g id="a_edge1_Node000001_Node000002"><a xlink:title=" ">
<path fill="none" stroke="#63b8ff" d="M28.13,-86.4C38.07,-97.17 55.32,-114.46 73,-125.62 75.4,-127.14 77.9,-128.59 80.47,-129.98"/>
<polygon fill="#63b8ff" stroke="#63b8ff" points="78.73,-133.03 89.25,-134.35 81.85,-126.76 78.73,-133.03"/>
</a>
</g>
</g>
<!-- Node3 -->
<g id="Node000003" class="node">
<title>Node3</title>
<g id="a_Node000003"><a xlink:href="classJack_1_1detail_1_1JackSynchro.html#a8d268ed83a1a1ae0affa95e6f3ccde53" target="_top" xlink:title=" ">
<polygon fill="white" stroke="#666666" points="198.5,-116.88 73,-116.88 73,-86.38 198.5,-86.38 198.5,-116.88"/>
<text xml:space="preserve" text-anchor="start" x="81" y="-103.38" font-family="Helvetica,sans-Serif" font-size="10.00">Jack::detail::JackSynchro</text>
<text xml:space="preserve" text-anchor="middle" x="135.75" y="-92.12" font-family="Helvetica,sans-Serif" font-size="10.00">::ConnectOutput</text>
</a>
</g>
</g>
<!-- Node1&#45;&gt;Node3 -->
<g id="edge2_Node000001_Node000003" class="edge">
<title>Node1&#45;&gt;Node3</title>
<g id="a_edge2_Node000001_Node000003"><a xlink:title=" ">
<path fill="none" stroke="#63b8ff" d="M37,-80.42C43.94,-81.93 52.42,-83.77 61.46,-85.73"/>
<polygon fill="#63b8ff" stroke="#63b8ff" points="60.7,-89.14 71.21,-87.84 62.18,-82.3 60.7,-89.14"/>
</a>
</g>
</g>
<!-- Node4 -->
<g id="Node000004" class="node">
<title>Node4</title>
<g id="a_Node000004"><a xlink:href="classJack_1_1detail_1_1JackSynchro.html#a4123cb096f43b73c7c7246c0c8045fec" target="_top" xlink:title=" ">
<polygon fill="white" stroke="#666666" points="198.5,-67.88 73,-67.88 73,-37.38 198.5,-37.38 198.5,-67.88"/>
<text xml:space="preserve" text-anchor="start" x="81" y="-54.38" font-family="Helvetica,sans-Serif" font-size="10.00">Jack::detail::JackSynchro</text>
<text xml:space="preserve" text-anchor="middle" x="135.75" y="-43.12" font-family="Helvetica,sans-Serif" font-size="10.00">::Disconnect</text>
</a>
</g>
</g>
<!-- Node1&#45;&gt;Node4 -->
<g id="edge3_Node000001_Node000004" class="edge">
<title>Node1&#45;&gt;Node4</title>
<g id="a_edge3_Node000001_Node000004"><a xlink:title=" ">
<path fill="none" stroke="#63b8ff" d="M37,-72.98C43.94,-71.53 52.42,-69.77 61.46,-67.89"/>
<polygon fill="#63b8ff" stroke="#63b8ff" points="62.13,-71.32 71.21,-65.86 60.71,-64.47 62.13,-71.32"/>
</a>
</g>
</g>
<!-- Node5 -->
<g id="Node000005" class="node">
<title>Node5</title>
<g id="a_Node000005"><a xlink:href="swell_8cpp.html#a4afa90abab5624ddd7bcd7b44fcb9c82" target="_top" xlink:title=" ">
<polygon fill="white" stroke="#666666" points="156.12,-19.25 115.38,-19.25 115.38,0 156.12,0 156.12,-19.25"/>
<text xml:space="preserve" text-anchor="middle" x="135.75" y="-5.75" font-family="Helvetica,sans-Serif" font-size="10.00">Sleep</text>
</a>
</g>
</g>
<!-- Node1&#45;&gt;Node5 -->
<g id="edge4_Node000001_Node000005" class="edge">
<title>Node1&#45;&gt;Node5</title>
<g id="a_edge4_Node000001_Node000005"><a xlink:title=" ">
<path fill="none" stroke="#63b8ff" d="M28,-66.78C37.83,-55.98 54.97,-38.83 73,-28.62 82.5,-23.25 93.71,-19.21 103.95,-16.28"/>
<polygon fill="#63b8ff" stroke="#63b8ff" points="104.69,-19.7 113.49,-13.8 102.93,-12.92 104.69,-19.7"/>
</a>
</g>
</g>
</g>
</svg>
