<?xml version="1.0" encoding="UTF-8" standalone="no"?>
<!DOCTYPE svg PUBLIC "-//W3C//DTD SVG 1.1//EN"
 "http://www.w3.org/Graphics/SVG/1.1/DTD/svg11.dtd">
<!-- Generated by graphviz version 14.0.2 (0)
 -->
<!-- Title: ysfx_do_create_menu Pages: 1 -->
<svg width="271pt" height="101pt"
 viewBox="0.00 0.00 271.00 101.00" xmlns="http://www.w3.org/2000/svg" xmlns:xlink="http://www.w3.org/1999/xlink">
<g id="graph0" class="graph" transform="scale(1 1) rotate(0) translate(4 97.25)">
<title>ysfx_do_create_menu</title>
<!-- Node1 -->
<g id="Node000001" class="node">
<title>Node1</title>
<g id="a_Node000001"><a xlink:title=" ">
<polygon fill="#999999" stroke="#666666" points="110.5,-56.25 0,-56.25 0,-37 110.5,-37 110.5,-56.25"/>
<text xml:space="preserve" text-anchor="middle" x="55.25" y="-42.75" font-family="Helvetica,sans-Serif" font-size="10.00">ysfx_do_create_menu</text>
</a>
</g>
</g>
<!-- Node1&#45;&gt;Node1 -->
<g id="edge3_Node000001_Node000001" class="edge">
<title>Node1&#45;&gt;Node1</title>
<g id="a_edge3_Node000001_Node000001"><a xlink:title=" ">
<path fill="none" stroke="#63b8ff" d="M31.85,-56.54C21.17,-65.15 28.97,-74.25 55.25,-74.25 70.03,-74.25 78.97,-71.37 82.06,-67.32"/>
<polygon fill="#63b8ff" stroke="#63b8ff" points="85.46,-66.46 79.11,-57.98 78.78,-68.57 85.46,-66.46"/>
</a>
</g>
</g>
<!-- Node2 -->
<g id="Node000002" class="node">
<title>Node2</title>
<g id="a_Node000002"><a xlink:href="Spc__Cpu_8h.html#a2569713fe026f7b153bba6e89d64498f" target="_top" xlink:title=" ">
<polygon fill="white" stroke="#666666" points="226.25,-93.25 183.25,-93.25 183.25,-74 226.25,-74 226.25,-93.25"/>
<text xml:space="preserve" text-anchor="middle" x="204.75" y="-79.75" font-family="Helvetica,sans-Serif" font-size="10.00">assert</text>
</a>
</g>
</g>
<!-- Node1&#45;&gt;Node2 -->
<g id="edge1_Node000001_Node000002" class="edge">
<title>Node1&#45;&gt;Node2</title>
<g id="a_edge1_Node000001_Node000002"><a xlink:title=" ">
<path fill="none" stroke="#63b8ff" d="M96.56,-56.74C120.27,-62.68 149.84,-70.1 171.91,-75.64"/>
<polygon fill="#63b8ff" stroke="#63b8ff" points="170.99,-79.02 181.54,-78.05 172.69,-72.23 170.99,-79.02"/>
</a>
</g>
</g>
<!-- Node3 -->
<g id="Node000003" class="node">
<title>Node3</title>
<g id="a_Node000003"><a xlink:href="namespaceysfx.html#a22f98140cd3ca41468e242b12f19ce04" target="_top" xlink:title=" ">
<polygon fill="white" stroke="#666666" points="263,-56.25 146.5,-56.25 146.5,-37 263,-37 263,-56.25"/>
<text xml:space="preserve" text-anchor="middle" x="204.75" y="-42.75" font-family="Helvetica,sans-Serif" font-size="10.00">ysfx::strdup_using_new</text>
</a>
</g>
</g>
<!-- Node1&#45;&gt;Node3 -->
<g id="edge2_Node000001_Node000003" class="edge">
<title>Node1&#45;&gt;Node3</title>
<g id="a_edge2_Node000001_Node000003"><a xlink:title=" ">
<path fill="none" stroke="#63b8ff" d="M110.75,-46.62C118.56,-46.62 126.68,-46.62 134.73,-46.62"/>
<polygon fill="#63b8ff" stroke="#63b8ff" points="134.49,-50.13 144.49,-46.63 134.49,-43.13 134.49,-50.13"/>
</a>
</g>
</g>
<!-- Node4 -->
<g id="Node000004" class="node">
<title>Node4</title>
<g id="a_Node000004"><a xlink:href="ysfx__parse__menu_8cpp.html#a858f9498a1de0ec1cdf7d9210442279f" target="_top" xlink:title=" ">
<polygon fill="white" stroke="#666666" points="260.75,-19.25 148.75,-19.25 148.75,0 260.75,0 260.75,-19.25"/>
<text xml:space="preserve" text-anchor="middle" x="204.75" y="-5.75" font-family="Helvetica,sans-Serif" font-size="10.00">ysfx_menu_insn_clear</text>
</a>
</g>
</g>
<!-- Node1&#45;&gt;Node4 -->
<g id="edge4_Node000001_Node000004" class="edge">
<title>Node1&#45;&gt;Node4</title>
<g id="a_edge4_Node000001_Node000004"><a xlink:title=" ">
<path fill="none" stroke="#63b8ff" d="M96.56,-36.51C113.79,-32.19 134.12,-27.09 152.41,-22.5"/>
<polygon fill="#63b8ff" stroke="#63b8ff" points="153.18,-25.92 162.03,-20.09 151.47,-19.13 153.18,-25.92"/>
</a>
</g>
</g>
</g>
</svg>
