<?xml version="1.0" encoding="UTF-8" standalone="no"?>
<!DOCTYPE svg PUBLIC "-//W3C//DTD SVG 1.1//EN"
 "http://www.w3.org/Graphics/SVG/1.1/DTD/svg11.dtd">
<!-- Generated by graphviz version 14.0.2 (0)
 -->
<!-- Title: ysfx_api_gfx_blurto Pages: 1 -->
<!--zoomable 285 -->

<svg id="main" version="1.1" xmlns="http://www.w3.org/2000/svg" xmlns:xlink="http://www.w3.org/1999/xlink" xml:space="preserve" onload="init(evt)">

<style type="text/css"><![CDATA[
.node, .edge {opacity: 0.7;}
.node.selected, .edge.selected {opacity: 1;}
.edge:hover path { stroke: red; }
.edge:hover polygon { stroke: red; fill: red; }
]]></style>

<defs>
  <circle id="rim" cx="0" cy="0" r="7"/>
  <circle id="rim2" cx="0" cy="0" r="3.5"/>
  <g id="zoomPlus">
    <use xlink:href="#rim" fill="#404040"><set attributeName="fill" to="#808080" begin="zoomplus.mouseover" end="zoomplus.mouseout"/></use>
    <path d="M-4,0h8M0,-4v8" fill="none" stroke="white" stroke-width="1.5" pointer-events="none"/>
  </g>
  <g id="zoomMin">
    <use xlink:href="#rim" fill="#404040"><set attributeName="fill" to="#808080" begin="zoomminus.mouseover" end="zoomminus.mouseout"/></use>
    <path d="M-4,0h8" fill="none" stroke="white" stroke-width="1.5" pointer-events="none"/>
  </g>
  <g id="arrowUp" transform="translate(30 24)">
    <use xlink:href="#rim"/>
    <path pointer-events="none" fill="none" stroke="white" stroke-width="1.5" d="M0,-3.0v7 M-2.5,-0.5L0,-3.0L2.5,-0.5"/>
  </g>
  <g id="arrowRight" transform="rotate(90) translate(36 -43)">
    <use xlink:href="#rim"/>
    <path pointer-events="none" fill="none" stroke="white" stroke-width="1.5" d="M0,-3.0v7 M-2.5,-0.5L0,-3.0L2.5,-0.5"/>
  </g>
  <g id="arrowDown" transform="rotate(180) translate(-30 -48)">
    <use xlink:href="#rim"/>
    <path pointer-events="none" fill="none" stroke="white" stroke-width="1.5" d="M0,-3.0v7 M-2.5,-0.5L0,-3.0L2.5,-0.5"/>
  </g>
  <g id="arrowLeft" transform="rotate(270) translate(-36 17)">
    <use xlink:href="#rim"/>
    <path pointer-events="none" fill="none" stroke="white" stroke-width="1.5" d="M0,-3.0v7 M-2.5,-0.5L0,-3.0L2.5,-0.5"/>
  </g>
  <g id="resetDef">
    <use xlink:href="#rim2" fill="#404040"><set attributeName="fill" to="#808080" begin="reset.mouseover" end="reset.mouseout"/></use>
  </g>
</defs>
<script type="application/ecmascript">
var viewWidth = 568;
var viewHeight = 285;
var sectionId = 'dynsection-18';
</script>
<script type="application/ecmascript" xlink:href="svg.min.js"/>
<svg id="graph" class="graph">
<g id="viewport">
<title>ysfx_api_gfx_blurto</title>
<!-- Node1 -->
<g id="Node000001" class="node">
<title>Node1</title>
<g id="a_Node000001"><a xlink:title=" ">
<polygon fill="#999999" stroke="#666666" points="98.5,-206.25 0,-206.25 0,-187 98.5,-187 98.5,-206.25"/>
<text xml:space="preserve" text-anchor="middle" x="49.25" y="-192.75" font-family="Helvetica,sans-Serif" font-size="10.00">ysfx_api_gfx_blurto</text>
</a>
</g>
</g>
<!-- Node2 -->
<g id="Node000002" class="node">
<title>Node2</title>
<g id="a_Node000002"><a xlink:href="classeel__lice__state.html#a2b39d9faa657c1cbf95af203cda6bb2b" target="_top" xlink:title=" ">
<polygon fill="white" stroke="#666666" points="227.75,-211.88 134.5,-211.88 134.5,-181.38 227.75,-181.38 227.75,-211.88"/>
<text xml:space="preserve" text-anchor="start" x="142.5" y="-198.38" font-family="Helvetica,sans-Serif" font-size="10.00">eel_lice_state::gfx</text>
<text xml:space="preserve" text-anchor="middle" x="181.12" y="-187.12" font-family="Helvetica,sans-Serif" font-size="10.00">_blurto</text>
</a>
</g>
</g>
<!-- Node1&#45;&gt;Node2 -->
<g id="edge1_Node000001_Node000002" class="edge">
<title>Node1&#45;&gt;Node2</title>
<g id="a_edge1_Node000001_Node000002"><a xlink:title=" ">
<path fill="none" stroke="#63b8ff" d="M98.98,-196.62C106.72,-196.62 114.78,-196.62 122.7,-196.62"/>
<polygon fill="#63b8ff" stroke="#63b8ff" points="122.62,-200.13 132.62,-196.63 122.62,-193.13 122.62,-200.13"/>
</a>
</g>
</g>
<!-- Node3 -->
<g id="Node000003" class="node">
<title>Node3</title>
<g id="a_Node000003"><a xlink:href="classeel__lice__state.html#a9f09ed187901264c3e681b2526ef7078" target="_top" xlink:title=" ">
<polygon fill="white" stroke="#666666" points="387,-276.88 263.75,-276.88 263.75,-246.38 387,-246.38 387,-276.88"/>
<text xml:space="preserve" text-anchor="start" x="271.75" y="-263.38" font-family="Helvetica,sans-Serif" font-size="10.00">eel_lice_state::GetImage</text>
<text xml:space="preserve" text-anchor="middle" x="325.38" y="-252.12" font-family="Helvetica,sans-Serif" font-size="10.00">ForIndex</text>
</a>
</g>
</g>
<!-- Node2&#45;&gt;Node3 -->
<g id="edge2_Node000002_Node000003" class="edge">
<title>Node2&#45;&gt;Node3</title>
<g id="a_edge2_Node000002_Node000003"><a xlink:title=" ">
<path fill="none" stroke="#63b8ff" d="M216.56,-212.36C235.61,-221.06 259.48,-231.97 279.93,-241.31"/>
<polygon fill="#63b8ff" stroke="#63b8ff" points="278.33,-244.43 288.88,-245.41 281.24,-238.07 278.33,-244.43"/>
</a>
</g>
</g>
<!-- Node4 -->
<g id="Node000004" class="node">
<title>Node4</title>
<g id="a_Node000004"><a xlink:href="unzipfx-carla-control_2unzip_8h.html#a6146ec4ac32d62cf01b4c4c6587d5131" target="_top" xlink:title=" ">
<polygon fill="white" stroke="#666666" points="505.77,-241.25 476.98,-241.25 476.98,-222 505.77,-222 505.77,-241.25"/>
<text xml:space="preserve" text-anchor="middle" x="491.38" y="-227.75" font-family="Helvetica,sans-Serif" font-size="10.00">int</text>
</a>
</g>
</g>
<!-- Node2&#45;&gt;Node4 -->
<g id="edge4_Node000002_Node000004" class="edge">
<title>Node2&#45;&gt;Node4</title>
<g id="a_edge4_Node000002_Node000004"><a xlink:title=" ">
<path fill="none" stroke="#63b8ff" d="M227.94,-201.83C293.94,-209.32 413.53,-222.9 465.33,-228.78"/>
<polygon fill="#63b8ff" stroke="#63b8ff" points="464.86,-232.25 475.19,-229.9 465.65,-225.3 464.86,-232.25"/>
</a>
</g>
</g>
<!-- Node5 -->
<g id="Node000005" class="node">
<title>Node5</title>
<g id="a_Node000005"><a xlink:href="lice_8cpp.html#aa46325eccc9ef2e80a0ef15bb4a9a8c9" target="_top" xlink:title=" ">
<polygon fill="white" stroke="#666666" points="355.5,-130.25 295.25,-130.25 295.25,-111 355.5,-111 355.5,-130.25"/>
<text xml:space="preserve" text-anchor="middle" x="325.38" y="-116.75" font-family="Helvetica,sans-Serif" font-size="10.00">LICE_Blur</text>
</a>
</g>
</g>
<!-- Node2&#45;&gt;Node5 -->
<g id="edge5_Node000002_Node000005" class="edge">
<title>Node2&#45;&gt;Node5</title>
<g id="a_edge5_Node000002_Node000005"><a xlink:title=" ">
<path fill="none" stroke="#63b8ff" d="M209.96,-181C225.69,-172.24 245.74,-161.19 263.75,-151.62 273.64,-146.37 284.51,-140.76 294.29,-135.78"/>
<polygon fill="#63b8ff" stroke="#63b8ff" points="295.68,-139 303.01,-131.35 292.51,-132.75 295.68,-139"/>
</a>
</g>
</g>
<!-- Node12 -->
<g id="Node000012" class="node">
<title>Node12</title>
<g id="a_Node000012"><a xlink:href="classeel__lice__state.html#a95e59e87342b4fa9e271bcf6b98624fc" target="_top" xlink:title=" ">
<polygon fill="white" stroke="#666666" points="386.62,-190.88 264.12,-190.88 264.12,-160.38 386.62,-160.38 386.62,-190.88"/>
<text xml:space="preserve" text-anchor="start" x="272.12" y="-177.38" font-family="Helvetica,sans-Serif" font-size="10.00">eel_lice_state::SetImage</text>
<text xml:space="preserve" text-anchor="middle" x="325.38" y="-166.12" font-family="Helvetica,sans-Serif" font-size="10.00">Dirty</text>
</a>
</g>
</g>
<!-- Node2&#45;&gt;Node12 -->
<g id="edge12_Node000002_Node000012" class="edge">
<title>Node2&#45;&gt;Node12</title>
<g id="a_edge12_Node000002_Node000012"><a xlink:title=" ">
<path fill="none" stroke="#63b8ff" d="M227.92,-189.86C235.79,-188.7 244.14,-187.47 252.5,-186.24"/>
<polygon fill="#63b8ff" stroke="#63b8ff" points="252.99,-189.7 262.38,-184.78 251.97,-182.78 252.99,-189.7"/>
</a>
</g>
</g>
<!-- Node3&#45;&gt;Node4 -->
<g id="edge3_Node000003_Node000004" class="edge">
<title>Node3&#45;&gt;Node4</title>
<g id="a_edge3_Node000003_Node000004"><a xlink:title=" ">
<path fill="none" stroke="#63b8ff" d="M387.44,-250.45C414.42,-245.52 444.63,-239.99 465.31,-236.21"/>
<polygon fill="#63b8ff" stroke="#63b8ff" points="465.86,-239.67 475.07,-234.42 464.6,-232.78 465.86,-239.67"/>
</a>
</g>
</g>
<!-- Node6 -->
<g id="Node000006" class="node">
<title>Node6</title>
<g id="a_Node000006"><a xlink:href="classLICE__IBitmap.html#ab85d2f0ff9c81a8cd20164067a70e7a8" target="_top" xlink:title=" ">
<polygon fill="white" stroke="#666666" points="547.38,-204.25 435.38,-204.25 435.38,-185 547.38,-185 547.38,-204.25"/>
<text xml:space="preserve" text-anchor="middle" x="491.38" y="-190.75" font-family="Helvetica,sans-Serif" font-size="10.00">LICE_IBitmap::getBits</text>
</a>
</g>
</g>
<!-- Node5&#45;&gt;Node6 -->
<g id="edge6_Node000005_Node000006" class="edge">
<title>Node5&#45;&gt;Node6</title>
<g id="a_edge6_Node000005_Node000006"><a xlink:title=" ">
<path fill="none" stroke="#63b8ff" d="M347.8,-130.7C359.57,-136.46 374.32,-144.03 387,-151.62 403.71,-161.64 405.33,-168.43 423,-176.62 426.35,-178.18 429.86,-179.62 433.44,-180.95"/>
<polygon fill="#63b8ff" stroke="#63b8ff" points="432.29,-184.25 442.88,-184.13 434.52,-177.62 432.29,-184.25"/>
</a>
</g>
</g>
<!-- Node7 -->
<g id="Node000007" class="node">
<title>Node7</title>
<g id="a_Node000007"><a xlink:href="classLICE__IBitmap.html#a0bafbe7480dea0941ddaf6ca756bace7" target="_top" xlink:title=" ">
<polygon fill="white" stroke="#666666" points="553,-167.25 429.75,-167.25 429.75,-148 553,-148 553,-167.25"/>
<text xml:space="preserve" text-anchor="middle" x="491.38" y="-153.75" font-family="Helvetica,sans-Serif" font-size="10.00">LICE_IBitmap::getHeight</text>
</a>
</g>
</g>
<!-- Node5&#45;&gt;Node7 -->
<g id="edge7_Node000005_Node000007" class="edge">
<title>Node5&#45;&gt;Node7</title>
<g id="a_edge7_Node000005_Node000007"><a xlink:title=" ">
<path fill="none" stroke="#63b8ff" d="M355.69,-127.24C377.54,-132.17 408.04,-139.05 434.49,-145.02"/>
<polygon fill="#63b8ff" stroke="#63b8ff" points="433.54,-148.39 444.07,-147.18 435.08,-141.56 433.54,-148.39"/>
</a>
</g>
</g>
<!-- Node8 -->
<g id="Node000008" class="node">
<title>Node8</title>
<g id="a_Node000008"><a xlink:href="classLICE__IBitmap.html#a11e983bfd4564ce2845483e25bcb8235" target="_top" xlink:title=" ">
<polygon fill="white" stroke="#666666" points="559.75,-130.25 423,-130.25 423,-111 559.75,-111 559.75,-130.25"/>
<text xml:space="preserve" text-anchor="middle" x="491.38" y="-116.75" font-family="Helvetica,sans-Serif" font-size="10.00">LICE_IBitmap::getRowSpan</text>
</a>
</g>
</g>
<!-- Node5&#45;&gt;Node8 -->
<g id="edge8_Node000005_Node000008" class="edge">
<title>Node5&#45;&gt;Node8</title>
<g id="a_edge8_Node000005_Node000008"><a xlink:title=" ">
<path fill="none" stroke="#63b8ff" d="M355.69,-120.62C371.33,-120.62 391.38,-120.62 411.22,-120.62"/>
<polygon fill="#63b8ff" stroke="#63b8ff" points="411,-124.13 421,-120.63 411,-117.13 411,-124.13"/>
</a>
</g>
</g>
<!-- Node9 -->
<g id="Node000009" class="node">
<title>Node9</title>
<g id="a_Node000009"><a xlink:href="classLICE__IBitmap.html#a184d39becd75166ffd9784fd8cadc44d" target="_top" xlink:title=" ">
<polygon fill="white" stroke="#666666" points="551.12,-93.25 431.62,-93.25 431.62,-74 551.12,-74 551.12,-93.25"/>
<text xml:space="preserve" text-anchor="middle" x="491.38" y="-79.75" font-family="Helvetica,sans-Serif" font-size="10.00">LICE_IBitmap::getWidth</text>
</a>
</g>
</g>
<!-- Node5&#45;&gt;Node9 -->
<g id="edge9_Node000005_Node000009" class="edge">
<title>Node5&#45;&gt;Node9</title>
<g id="a_edge9_Node000005_Node000009"><a xlink:title=" ">
<path fill="none" stroke="#63b8ff" d="M355.69,-114.01C377.54,-109.08 408.04,-102.2 434.49,-96.23"/>
<polygon fill="#63b8ff" stroke="#63b8ff" points="435.08,-99.69 444.07,-94.07 433.54,-92.86 435.08,-99.69"/>
</a>
</g>
</g>
<!-- Node10 -->
<g id="Node000010" class="node">
<title>Node10</title>
<g id="a_Node000010"><a xlink:href="classLICE__IBitmap.html#a257cd749407c3c7a2a9db772d5037e0b" target="_top" xlink:title=" ">
<polygon fill="white" stroke="#666666" points="551.5,-56.25 431.25,-56.25 431.25,-37 551.5,-37 551.5,-56.25"/>
<text xml:space="preserve" text-anchor="middle" x="491.38" y="-42.75" font-family="Helvetica,sans-Serif" font-size="10.00">LICE_IBitmap::isFlipped</text>
</a>
</g>
</g>
<!-- Node5&#45;&gt;Node10 -->
<g id="edge10_Node000005_Node000010" class="edge">
<title>Node5&#45;&gt;Node10</title>
<g id="a_edge10_Node000005_Node000010"><a xlink:title=" ">
<path fill="none" stroke="#63b8ff" d="M340.81,-110.62C359.17,-98.29 392.2,-77.4 423,-64.62 426.86,-63.02 430.91,-61.53 435.02,-60.13"/>
<polygon fill="#63b8ff" stroke="#63b8ff" points="436.03,-63.49 444.52,-57.15 433.93,-56.81 436.03,-63.49"/>
</a>
</g>
</g>
<!-- Node11 -->
<g id="Node000011" class="node">
<title>Node11</title>
<g id="a_Node000011"><a xlink:href="unzipfx-carla-control_2unzpriv_8h.html#ae8006e5e5b63d623442f5d3286fe9117" target="_top" xlink:title=" ">
<polygon fill="white" stroke="#666666" points="513.62,-19.25 469.12,-19.25 469.12,0 513.62,0 513.62,-19.25"/>
<text xml:space="preserve" text-anchor="middle" x="491.38" y="-5.75" font-family="Helvetica,sans-Serif" font-size="10.00">malloc</text>
</a>
</g>
</g>
<!-- Node5&#45;&gt;Node11 -->
<g id="edge11_Node000005_Node000011" class="edge">
<title>Node5&#45;&gt;Node11</title>
<g id="a_edge11_Node000005_Node000011"><a xlink:title=" ">
<path fill="none" stroke="#63b8ff" d="M333.94,-110.51C348.82,-91.35 383.86,-49.71 423,-27.62 433.6,-21.65 446.26,-17.59 457.73,-14.86"/>
<polygon fill="#63b8ff" stroke="#63b8ff" points="458.13,-18.35 467.2,-12.87 456.69,-11.5 458.13,-18.35"/>
</a>
</g>
</g>
<!-- Node12&#45;&gt;Node4 -->
<g id="edge13_Node000012_Node000004" class="edge">
<title>Node12&#45;&gt;Node4</title>
<g id="a_edge13_Node000012_Node000004"><a xlink:title=" ">
<path fill="none" stroke="#63b8ff" d="M363.18,-191.24C381.06,-198.53 402.97,-207.03 423,-213.62 437,-218.23 452.92,-222.53 465.77,-225.77"/>
<polygon fill="#63b8ff" stroke="#63b8ff" points="464.55,-229.07 475.09,-228.06 466.22,-222.27 464.55,-229.07"/>
</a>
</g>
</g>
</g>
</svg>

<g id="navigator" transform="translate(0 0)" fill="#404254">
  <rect fill="#f2f5e9" fill-opacity="0.5" stroke="#606060" stroke-width=".5" x="0" y="0" width="60" height="60"/>
  <use id="zoomplus" xlink:href="#zoomPlus" x="17" y="9" onmousedown="handleZoom(evt,'in')"/>
  <use id="zoomminus" xlink:href="#zoomMin" x="42" y="9" onmousedown="handleZoom(evt,'out')"/>
  <use id="reset" xlink:href="#resetDef" x="30" y="36" onmousedown="handleReset()"/>
   <use id="arrowup" xlink:href="#arrowUp" x="0" y="0" onmousedown="handlePan(0,-1)"/>
  <use id="arrowright" xlink:href="#arrowRight" x="0" y="0" onmousedown="handlePan(1,0)"/>
  <use id="arrowdown" xlink:href="#arrowDown" x="0" y="0" onmousedown="handlePan(0,1)"/>
  <use id="arrowleft" xlink:href="#arrowLeft" x="0" y="0" onmousedown="handlePan(-1,0)"/>
</g>
<svg viewBox="0 0 15 15" width="100%" height="30px" preserveAspectRatio="xMaxYMin meet">
 <g id="arrow_out" transform="scale(0.3 0.3)">
  <a xlink:href="ysfx__api__gfx__lice_8hpp_a954d470ce8bb4e3083bae9f387a80290_cgraph_org.svg" target="_base">
   <rect id="button" ry="5" rx="5" y="6" x="6" height="38" width="38"
        fill="#f2f5e9" fill-opacity="0.5" stroke="#606060" stroke-width="1.0"/>
   <path id="arrow"
     d="M 11.500037,31.436501 C 11.940474,20.09759 22.043105,11.32322 32.158766,21.979434 L 37.068811,17.246167 C 37.068811,17.246167 37.088388,32 37.088388,32 L 22.160133,31.978069 C 22.160133,31.978069 26.997745,27.140456 26.997745,27.140456 C 18.528582,18.264221 13.291696,25.230495 11.500037,31.436501 z"
     style="fill:#404040;"/>
  </a>
 </g>
</svg>

<style type='text/css'>
<![CDATA[
[data-mouse-over-selected='false'] { opacity: 0.7; }
[data-mouse-over-selected='true']  { opacity: 1.0; }
]]>
</style>
<script type="application/ecmascript"><![CDATA[
document.addEventListener('DOMContentLoaded', (event) => {
  highlightEdges();
  highlightAdjacentNodes();
});
]]></script>
</svg>
