<?xml version="1.0" encoding="UTF-8" standalone="no"?>
<!DOCTYPE svg PUBLIC "-//W3C//DTD SVG 1.1//EN"
 "http://www.w3.org/Graphics/SVG/1.1/DTD/svg11.dtd">
<!-- Generated by graphviz version 14.0.2 (0)
 -->
<!-- Title: plugins/ZynAddSubFx/zynaddsubfx/src/Params/LFOParams.cpp Pages: 1 -->
<svg width="335pt" height="437pt"
 viewBox="0.00 0.00 335.00 437.00" xmlns="http://www.w3.org/2000/svg" xmlns:xlink="http://www.w3.org/1999/xlink">
<g id="graph0" class="graph" transform="scale(1 1) rotate(0) translate(4 432.5)">
<title>plugins/ZynAddSubFx/zynaddsubfx/src/Params/LFOParams.cpp</title>
<!-- Node1 -->
<g id="Node000001" class="node">
<title>Node1</title>
<g id="a_Node000001"><a xlink:title=" ">
<polygon fill="#999999" stroke="#666666" points="173.38,-428.5 47.88,-428.5 47.88,-386.75 173.38,-386.75 173.38,-428.5"/>
<text xml:space="preserve" text-anchor="start" x="55.88" y="-415" font-family="Helvetica,sans-Serif" font-size="10.00">plugins/ZynAddSubFx</text>
<text xml:space="preserve" text-anchor="start" x="55.88" y="-403.75" font-family="Helvetica,sans-Serif" font-size="10.00">/zynaddsubfx/src/Params</text>
<text xml:space="preserve" text-anchor="middle" x="110.62" y="-392.5" font-family="Helvetica,sans-Serif" font-size="10.00">/LFOParams.cpp</text>
</a>
</g>
</g>
<!-- Node2 -->
<g id="Node000002" class="node">
<title>Node2</title>
<g id="a_Node000002"><a xlink:title=" ">
<polygon fill="#e0e0e0" stroke="#999999" points="45.25,-350.75 0,-350.75 0,-331.5 45.25,-331.5 45.25,-350.75"/>
<text xml:space="preserve" text-anchor="middle" x="22.62" y="-337.25" font-family="Helvetica,sans-Serif" font-size="10.00">math.h</text>
</a>
</g>
</g>
<!-- Node1&#45;&gt;Node2 -->
<g id="edge1_Node000001_Node000002" class="edge">
<title>Node1&#45;&gt;Node2</title>
<g id="a_edge1_Node000001_Node000002"><a xlink:title=" ">
<path fill="none" stroke="#63b8ff" d="M83.26,-386.57C70.65,-377.33 55.9,-366.51 44.1,-357.87"/>
<polygon fill="#63b8ff" stroke="#63b8ff" points="46.36,-355.18 36.22,-352.09 42.22,-360.82 46.36,-355.18"/>
</a>
</g>
</g>
<!-- Node3 -->
<g id="Node000003" class="node">
<title>Node3</title>
<g id="a_Node000003"><a xlink:title=" ">
<polygon fill="#e0e0e0" stroke="#999999" points="107.88,-350.75 63.38,-350.75 63.38,-331.5 107.88,-331.5 107.88,-350.75"/>
<text xml:space="preserve" text-anchor="middle" x="85.62" y="-337.25" font-family="Helvetica,sans-Serif" font-size="10.00">stdio.h</text>
</a>
</g>
</g>
<!-- Node1&#45;&gt;Node3 -->
<g id="edge2_Node000001_Node000003" class="edge">
<title>Node1&#45;&gt;Node3</title>
<g id="a_edge2_Node000001_Node000003"><a xlink:title=" ">
<path fill="none" stroke="#63b8ff" d="M102.85,-386.57C99.81,-378.71 96.32,-369.72 93.29,-361.89"/>
<polygon fill="#63b8ff" stroke="#63b8ff" points="96.57,-360.67 89.69,-352.61 90.04,-363.2 96.57,-360.67"/>
</a>
</g>
</g>
<!-- Node4 -->
<g id="Node000004" class="node">
<title>Node4</title>
<g id="a_Node000004"><a xlink:href="ZynAddSubFx_2zynaddsubfx_2src_2globals_8h.html" target="_top" xlink:title=" ">
<polygon fill="white" stroke="#666666" points="202.5,-74.5 140.75,-74.5 140.75,-55.25 202.5,-55.25 202.5,-74.5"/>
<text xml:space="preserve" text-anchor="middle" x="171.62" y="-61" font-family="Helvetica,sans-Serif" font-size="10.00">../globals.h</text>
</a>
</g>
</g>
<!-- Node1&#45;&gt;Node4 -->
<g id="edge3_Node000001_Node000004" class="edge">
<title>Node1&#45;&gt;Node4</title>
<g id="a_edge3_Node000001_Node000004"><a xlink:title=" ">
<path fill="none" stroke="#63b8ff" d="M117.46,-386.55C124.86,-362.98 135.62,-322.56 135.62,-286.88 135.62,-286.88 135.62,-286.88 135.62,-174.38 135.62,-141.72 150.5,-106.22 161.12,-85.03"/>
<polygon fill="#63b8ff" stroke="#63b8ff" points="164.22,-86.65 165.76,-76.17 158.02,-83.4 164.22,-86.65"/>
</a>
</g>
</g>
<!-- Node6 -->
<g id="Node000006" class="node">
<title>Node6</title>
<g id="a_Node000006"><a xlink:href="ZynAddSubFx_2zynaddsubfx_2src_2Params_2LFOParams_8h.html" target="_top" xlink:title=" ">
<polygon fill="white" stroke="#666666" points="240,-350.75 163.25,-350.75 163.25,-331.5 240,-331.5 240,-350.75"/>
<text xml:space="preserve" text-anchor="middle" x="201.62" y="-337.25" font-family="Helvetica,sans-Serif" font-size="10.00">LFOParams.h</text>
</a>
</g>
</g>
<!-- Node1&#45;&gt;Node6 -->
<g id="edge5_Node000001_Node000006" class="edge">
<title>Node1&#45;&gt;Node6</title>
<g id="a_edge5_Node000001_Node000006"><a xlink:title=" ">
<path fill="none" stroke="#63b8ff" d="M138.92,-386.57C152.09,-377.23 167.52,-366.3 179.78,-357.61"/>
<polygon fill="#63b8ff" stroke="#63b8ff" points="181.46,-360.71 187.59,-352.07 177.41,-355 181.46,-360.71"/>
</a>
</g>
</g>
<!-- Node5 -->
<g id="Node000005" class="node">
<title>Node5</title>
<g id="a_Node000005"><a xlink:title=" ">
<polygon fill="#e0e0e0" stroke="#999999" points="195.38,-19.25 147.88,-19.25 147.88,0 195.38,0 195.38,-19.25"/>
<text xml:space="preserve" text-anchor="middle" x="171.62" y="-5.75" font-family="Helvetica,sans-Serif" font-size="10.00">stdint.h</text>
</a>
</g>
</g>
<!-- Node4&#45;&gt;Node5 -->
<g id="edge4_Node000004_Node000005" class="edge">
<title>Node4&#45;&gt;Node5</title>
<g id="a_edge4_Node000004_Node000005"><a xlink:title=" ">
<path fill="none" stroke="#63b8ff" d="M171.62,-55.08C171.62,-48.57 171.62,-39.42 171.62,-31.12"/>
<polygon fill="#63b8ff" stroke="#63b8ff" points="175.13,-31.12 171.63,-21.12 168.13,-31.12 175.13,-31.12"/>
</a>
</g>
</g>
<!-- Node7 -->
<g id="Node000007" class="node">
<title>Node7</title>
<g id="a_Node000007"><a xlink:href="ZynAddSubFx_2zynaddsubfx_2src_2Misc_2XMLwrapper_8h.html" target="_top" xlink:title=" ">
<polygon fill="white" stroke="#666666" points="273.88,-185 163.38,-185 163.38,-165.75 273.88,-165.75 273.88,-185"/>
<text xml:space="preserve" text-anchor="middle" x="218.62" y="-171.5" font-family="Helvetica,sans-Serif" font-size="10.00">../Misc/XMLwrapper.h</text>
</a>
</g>
</g>
<!-- Node6&#45;&gt;Node7 -->
<g id="edge6_Node000006_Node000007" class="edge">
<title>Node6&#45;&gt;Node7</title>
<g id="a_edge6_Node000006_Node000007"><a xlink:title=" ">
<path fill="none" stroke="#63b8ff" d="M201.11,-331.24C200.61,-322.24 199.9,-307.91 199.62,-295.5 199.43,-286.95 198.82,-284.77 199.62,-276.25 202.26,-248.3 208.96,-216.52 213.65,-196.46"/>
<polygon fill="#63b8ff" stroke="#63b8ff" points="217.03,-197.4 215.97,-186.85 210.22,-195.76 217.03,-197.4"/>
</a>
</g>
</g>
<!-- Node13 -->
<g id="Node000013" class="node">
<title>Node13</title>
<g id="a_Node000013"><a xlink:href="ZynAddSubFx_2zynaddsubfx_2src_2Params_2Presets_8h.html" target="_top" xlink:title=" ">
<polygon fill="white" stroke="#666666" points="266.25,-295.5 209,-295.5 209,-276.25 266.25,-276.25 266.25,-295.5"/>
<text xml:space="preserve" text-anchor="middle" x="237.62" y="-282" font-family="Helvetica,sans-Serif" font-size="10.00">Presets.h</text>
</a>
</g>
</g>
<!-- Node6&#45;&gt;Node13 -->
<g id="edge9_Node000006_Node000013" class="edge">
<title>Node6&#45;&gt;Node13</title>
<g id="a_edge9_Node000006_Node000013"><a xlink:title=" ">
<path fill="none" stroke="#63b8ff" d="M207.57,-331.33C212.34,-324.28 219.19,-314.15 225.15,-305.33"/>
<polygon fill="#63b8ff" stroke="#63b8ff" points="228,-307.36 230.7,-297.11 222.2,-303.44 228,-307.36"/>
</a>
</g>
</g>
<!-- Node8 -->
<g id="Node000008" class="node">
<title>Node8</title>
<g id="a_Node000008"><a xlink:href="QtXmlWrapper_8h.html" target="_top" xlink:title=" ">
<polygon fill="#fff0f0" stroke="red" points="256.25,-129.75 169,-129.75 169,-110.5 256.25,-110.5 256.25,-129.75"/>
<text xml:space="preserve" text-anchor="middle" x="212.62" y="-116.25" font-family="Helvetica,sans-Serif" font-size="10.00">QtXmlWrapper.h</text>
</a>
</g>
</g>
<!-- Node7&#45;&gt;Node8 -->
<g id="edge7_Node000007_Node000008" class="edge">
<title>Node7&#45;&gt;Node8</title>
<g id="a_edge7_Node000007_Node000008"><a xlink:title=" ">
<path fill="none" stroke="#63b8ff" d="M217.63,-165.58C216.89,-158.99 215.85,-149.71 214.9,-141.32"/>
<polygon fill="#63b8ff" stroke="#63b8ff" points="218.4,-141.16 213.81,-131.61 211.45,-141.94 218.4,-141.16"/>
</a>
</g>
</g>
<!-- Node8&#45;&gt;Node4 -->
<g id="edge8_Node000008_Node000004" class="edge">
<title>Node8&#45;&gt;Node4</title>
<g id="a_edge8_Node000008_Node000004"><a xlink:title=" ">
<path fill="none" stroke="#63b8ff" d="M205.85,-110.33C200.31,-103.13 192.28,-92.71 185.4,-83.76"/>
<polygon fill="#63b8ff" stroke="#63b8ff" points="188.34,-81.85 179.47,-76.06 182.79,-86.12 188.34,-81.85"/>
</a>
</g>
</g>
<!-- Node13&#45;&gt;Node7 -->
<g id="edge10_Node000013_Node000007" class="edge">
<title>Node13&#45;&gt;Node7</title>
<g id="a_edge10_Node000013_Node000007"><a xlink:title=" ">
<path fill="none" stroke="#63b8ff" d="M236.07,-276C233.05,-258.75 226.32,-220.33 222.16,-196.56"/>
<polygon fill="#63b8ff" stroke="#63b8ff" points="225.63,-196.11 220.46,-186.87 218.74,-197.32 225.63,-196.11"/>
</a>
</g>
</g>
<!-- Node14 -->
<g id="Node000014" class="node">
<title>Node14</title>
<g id="a_Node000014"><a xlink:href="ZynAddSubFx_2zynaddsubfx_2src_2Params_2PresetsStore_8h.html" target="_top" xlink:title=" ">
<polygon fill="#fff0f0" stroke="red" points="326.88,-240.25 246.38,-240.25 246.38,-221 326.88,-221 326.88,-240.25"/>
<text xml:space="preserve" text-anchor="middle" x="286.62" y="-226.75" font-family="Helvetica,sans-Serif" font-size="10.00">PresetsStore.h</text>
</a>
</g>
</g>
<!-- Node13&#45;&gt;Node14 -->
<g id="edge11_Node000013_Node000014" class="edge">
<title>Node13&#45;&gt;Node14</title>
<g id="a_edge11_Node000013_Node000014"><a xlink:title=" ">
<path fill="none" stroke="#63b8ff" d="M245.72,-276.08C252.48,-268.73 262.35,-258.01 270.69,-248.94"/>
<polygon fill="#63b8ff" stroke="#63b8ff" points="273.14,-251.45 277.33,-241.72 267.99,-246.71 273.14,-251.45"/>
</a>
</g>
</g>
<!-- Node14&#45;&gt;Node7 -->
<g id="edge12_Node000014_Node000007" class="edge">
<title>Node14&#45;&gt;Node7</title>
<g id="a_edge12_Node000014_Node000007"><a xlink:title=" ">
<path fill="none" stroke="#63b8ff" d="M275.09,-220.59C265.16,-212.82 250.61,-201.42 238.77,-192.15"/>
<polygon fill="#63b8ff" stroke="#63b8ff" points="241.21,-189.62 231.18,-186.21 236.9,-195.13 241.21,-189.62"/>
</a>
</g>
</g>
</g>
</svg>
