<?xml version="1.0" encoding="UTF-8" standalone="no"?>
<!DOCTYPE svg PUBLIC "-//W3C//DTD SVG 1.1//EN"
 "http://www.w3.org/Graphics/SVG/1.1/DTD/svg11.dtd">
<!-- Generated by graphviz version 14.0.2 (0)
 -->
<!-- Title: plugins/ZynAddSubFx/zynaddsubfx/src/Params/PADnoteParameters.cpp Pages: 1 -->
<!--zoomable 437 -->

<svg id="main" version="1.1" xmlns="http://www.w3.org/2000/svg" xmlns:xlink="http://www.w3.org/1999/xlink" xml:space="preserve" onload="init(evt)">

<style type="text/css"><![CDATA[
.node, .edge {opacity: 0.7;}
.node.selected, .edge.selected {opacity: 1;}
.edge:hover path { stroke: red; }
.edge:hover polygon { stroke: red; fill: red; }
]]></style>

<defs>
  <circle id="rim" cx="0" cy="0" r="7"/>
  <circle id="rim2" cx="0" cy="0" r="3.5"/>
  <g id="zoomPlus">
    <use xlink:href="#rim" fill="#404040"><set attributeName="fill" to="#808080" begin="zoomplus.mouseover" end="zoomplus.mouseout"/></use>
    <path d="M-4,0h8M0,-4v8" fill="none" stroke="white" stroke-width="1.5" pointer-events="none"/>
  </g>
  <g id="zoomMin">
    <use xlink:href="#rim" fill="#404040"><set attributeName="fill" to="#808080" begin="zoomminus.mouseover" end="zoomminus.mouseout"/></use>
    <path d="M-4,0h8" fill="none" stroke="white" stroke-width="1.5" pointer-events="none"/>
  </g>
  <g id="arrowUp" transform="translate(30 24)">
    <use xlink:href="#rim"/>
    <path pointer-events="none" fill="none" stroke="white" stroke-width="1.5" d="M0,-3.0v7 M-2.5,-0.5L0,-3.0L2.5,-0.5"/>
  </g>
  <g id="arrowRight" transform="rotate(90) translate(36 -43)">
    <use xlink:href="#rim"/>
    <path pointer-events="none" fill="none" stroke="white" stroke-width="1.5" d="M0,-3.0v7 M-2.5,-0.5L0,-3.0L2.5,-0.5"/>
  </g>
  <g id="arrowDown" transform="rotate(180) translate(-30 -48)">
    <use xlink:href="#rim"/>
    <path pointer-events="none" fill="none" stroke="white" stroke-width="1.5" d="M0,-3.0v7 M-2.5,-0.5L0,-3.0L2.5,-0.5"/>
  </g>
  <g id="arrowLeft" transform="rotate(270) translate(-36 17)">
    <use xlink:href="#rim"/>
    <path pointer-events="none" fill="none" stroke="white" stroke-width="1.5" d="M0,-3.0v7 M-2.5,-0.5L0,-3.0L2.5,-0.5"/>
  </g>
  <g id="resetDef">
    <use xlink:href="#rim2" fill="#404040"><set attributeName="fill" to="#808080" begin="reset.mouseover" end="reset.mouseout"/></use>
  </g>
</defs>
<script type="application/ecmascript">
var viewWidth = 1227;
var viewHeight = 437;
var sectionId = 'dynsection-0';
</script>
<script type="application/ecmascript" xlink:href="svg.min.js"/>
<svg id="graph" class="graph">
<g id="viewport">
<title>plugins/ZynAddSubFx/zynaddsubfx/src/Params/PADnoteParameters.cpp</title>
<!-- Node1 -->
<g id="Node000001" class="node">
<title>Node1</title>
<g id="a_Node000001"><a xlink:title=" ">
<polygon fill="#999999" stroke="#666666" points="614.12,-428.5 487.88,-428.5 487.88,-386.75 614.12,-386.75 614.12,-428.5"/>
<text xml:space="preserve" text-anchor="start" x="495.88" y="-415" font-family="Helvetica,sans-Serif" font-size="10.00">plugins/ZynAddSubFx</text>
<text xml:space="preserve" text-anchor="start" x="495.88" y="-403.75" font-family="Helvetica,sans-Serif" font-size="10.00">/zynaddsubfx/src/Params</text>
<text xml:space="preserve" text-anchor="middle" x="551" y="-392.5" font-family="Helvetica,sans-Serif" font-size="10.00">/PADnoteParameters.cpp</text>
</a>
</g>
</g>
<!-- Node2 -->
<g id="Node000002" class="node">
<title>Node2</title>
<g id="a_Node000002"><a xlink:title=" ">
<polygon fill="#e0e0e0" stroke="#999999" points="476.62,-350.75 431.38,-350.75 431.38,-331.5 476.62,-331.5 476.62,-350.75"/>
<text xml:space="preserve" text-anchor="middle" x="454" y="-337.25" font-family="Helvetica,sans-Serif" font-size="10.00">math.h</text>
</a>
</g>
</g>
<!-- Node1&#45;&gt;Node2 -->
<g id="edge1_Node000001_Node000002" class="edge">
<title>Node1&#45;&gt;Node2</title>
<g id="a_edge1_Node000001_Node000002"><a xlink:title=" ">
<path fill="none" stroke="#63b8ff" d="M520.57,-386.39C506.41,-376.97 489.84,-365.96 476.77,-357.27"/>
<polygon fill="#63b8ff" stroke="#63b8ff" points="479.09,-354.61 468.82,-351.98 475.21,-360.43 479.09,-354.61"/>
</a>
</g>
</g>
<!-- Node3 -->
<g id="Node000003" class="node">
<title>Node3</title>
<g id="a_Node000003"><a xlink:href="ZynAddSubFx_2zynaddsubfx_2src_2Params_2PADnoteParameters_8h.html" target="_top" xlink:title=" ">
<polygon fill="white" stroke="#666666" points="607.38,-350.75 494.62,-350.75 494.62,-331.5 607.38,-331.5 607.38,-350.75"/>
<text xml:space="preserve" text-anchor="middle" x="551" y="-337.25" font-family="Helvetica,sans-Serif" font-size="10.00">PADnoteParameters.h</text>
</a>
</g>
</g>
<!-- Node1&#45;&gt;Node3 -->
<g id="edge2_Node000001_Node000003" class="edge">
<title>Node1&#45;&gt;Node3</title>
<g id="a_edge2_Node000001_Node000003"><a xlink:title=" ">
<path fill="none" stroke="#63b8ff" d="M551,-386.57C551,-378.9 551,-370.14 551,-362.45"/>
<polygon fill="#63b8ff" stroke="#63b8ff" points="554.5,-362.71 551,-352.71 547.5,-362.71 554.5,-362.71"/>
</a>
</g>
</g>
<!-- Node31 -->
<g id="Node000031" class="node">
<title>Node31</title>
<g id="a_Node000031"><a xlink:href="ZynAddSubFx_2zynaddsubfx_2src_2Misc_2WavFile_8h.html" target="_top" xlink:title=" ">
<polygon fill="white" stroke="#666666" points="1219.12,-74.5 1128.88,-74.5 1128.88,-55.25 1219.12,-55.25 1219.12,-74.5"/>
<text xml:space="preserve" text-anchor="middle" x="1174" y="-61" font-family="Helvetica,sans-Serif" font-size="10.00">../Misc/WavFile.h</text>
</a>
</g>
</g>
<!-- Node1&#45;&gt;Node31 -->
<g id="edge46_Node000001_Node000031" class="edge">
<title>Node1&#45;&gt;Node31</title>
<g id="a_edge46_Node000001_Node000031"><a xlink:title=" ">
<path fill="none" stroke="#63b8ff" d="M614.6,-407.33C769.93,-407.34 1156,-396.36 1156,-286.88 1156,-286.88 1156,-286.88 1156,-174.38 1156,-143.09 1163.37,-107.41 1168.68,-85.77"/>
<polygon fill="#63b8ff" stroke="#63b8ff" points="1172.03,-86.82 1171.12,-76.26 1165.25,-85.08 1172.03,-86.82"/>
</a>
</g>
</g>
<!-- Node4 -->
<g id="Node000004" class="node">
<title>Node4</title>
<g id="a_Node000004"><a xlink:href="ZynAddSubFx_2zynaddsubfx_2src_2Misc_2XMLwrapper_8h.html" target="_top" xlink:title=" ">
<polygon fill="white" stroke="#666666" points="592.25,-129.75 481.75,-129.75 481.75,-110.5 592.25,-110.5 592.25,-129.75"/>
<text xml:space="preserve" text-anchor="middle" x="537" y="-116.25" font-family="Helvetica,sans-Serif" font-size="10.00">../Misc/XMLwrapper.h</text>
</a>
</g>
</g>
<!-- Node3&#45;&gt;Node4 -->
<g id="edge3_Node000003_Node000004" class="edge">
<title>Node3&#45;&gt;Node4</title>
<g id="a_edge3_Node000003_Node000004"><a xlink:title=" ">
<path fill="none" stroke="#63b8ff" d="M607.71,-332.12C649.71,-324.89 701.83,-312.73 715,-295.5 720.2,-288.7 715.23,-284.8 715,-276.25 714.33,-251.67 720.61,-244.03 712,-221 701.1,-191.85 694.37,-183.77 669,-165.75 647.37,-150.38 620.04,-139.99 595.86,-133.13"/>
<polygon fill="#63b8ff" stroke="#63b8ff" points="597.04,-129.82 586.47,-130.62 595.23,-136.58 597.04,-129.82"/>
</a>
</g>
</g>
<!-- Node6 -->
<g id="Node000006" class="node">
<title>Node6</title>
<g id="a_Node000006"><a xlink:href="ZynAddSubFx_2zynaddsubfx_2src_2globals_8h.html" target="_top" xlink:title=" ">
<polygon fill="#fff0f0" stroke="red" points="276.88,-19.25 215.12,-19.25 215.12,0 276.88,0 276.88,-19.25"/>
<text xml:space="preserve" text-anchor="middle" x="246" y="-5.75" font-family="Helvetica,sans-Serif" font-size="10.00">../globals.h</text>
</a>
</g>
</g>
<!-- Node3&#45;&gt;Node6 -->
<g id="edge10_Node000003_Node000006" class="edge">
<title>Node3&#45;&gt;Node6</title>
<g id="a_edge10_Node000003_Node000006"><a xlink:title=" ">
<path fill="none" stroke="#63b8ff" d="M494.29,-332.51C491.49,-332.16 488.71,-331.82 486,-331.5 376.52,-318.43 0,-341.88 0,-231.62 0,-231.62 0,-231.62 0,-119.12 0,-31.13 133.38,-13.9 203.72,-10.93"/>
<polygon fill="#63b8ff" stroke="#63b8ff" points="203.45,-14.44 213.33,-10.6 203.22,-7.44 203.45,-14.44"/>
</a>
</g>
</g>
<!-- Node8 -->
<g id="Node000008" class="node">
<title>Node8</title>
<g id="a_Node000008"><a xlink:title=" ">
<polygon fill="#e0e0e0" stroke="#999999" points="1043,-19.25 1003,-19.25 1003,0 1043,0 1043,-19.25"/>
<text xml:space="preserve" text-anchor="middle" x="1023" y="-5.75" font-family="Helvetica,sans-Serif" font-size="10.00">string</text>
</a>
</g>
</g>
<!-- Node3&#45;&gt;Node8 -->
<g id="edge41_Node000003_Node000008" class="edge">
<title>Node3&#45;&gt;Node8</title>
<g id="a_edge41_Node000003_Node000008"><a xlink:title=" ">
<path fill="none" stroke="#63b8ff" d="M607.79,-340.8C748.31,-340.95 1101,-331.38 1101,-231.62 1101,-231.62 1101,-231.62 1101,-119.12 1101,-80.18 1067.46,-45.66 1044.37,-26.5"/>
<polygon fill="#63b8ff" stroke="#63b8ff" points="1046.73,-23.9 1036.72,-20.43 1042.37,-29.39 1046.73,-23.9"/>
</a>
</g>
</g>
<!-- Node12 -->
<g id="Node000012" class="node">
<title>Node12</title>
<g id="a_Node000012"><a xlink:href="ZynAddSubFx_2zynaddsubfx_2src_2DSP_2FFTwrapper_8h.html" target="_top" xlink:title=" ">
<polygon fill="white" stroke="#666666" points="142.38,-185 35.62,-185 35.62,-165.75 142.38,-165.75 142.38,-185"/>
<text xml:space="preserve" text-anchor="middle" x="89" y="-171.5" font-family="Helvetica,sans-Serif" font-size="10.00">../DSP/FFTwrapper.h</text>
</a>
</g>
</g>
<!-- Node3&#45;&gt;Node12 -->
<g id="edge7_Node000003_Node000012" class="edge">
<title>Node3&#45;&gt;Node12</title>
<g id="a_edge7_Node000003_Node000012"><a xlink:title=" ">
<path fill="none" stroke="#63b8ff" d="M494.29,-332.54C491.49,-332.19 488.71,-331.84 486,-331.5 348.36,-314.38 299.63,-358.38 176,-295.5 134.85,-274.57 108.52,-224.06 96.54,-196"/>
<polygon fill="#63b8ff" stroke="#63b8ff" points="99.85,-194.85 92.85,-186.9 93.36,-197.48 99.85,-194.85"/>
</a>
</g>
</g>
<!-- Node15 -->
<g id="Node000015" class="node">
<title>Node15</title>
<g id="a_Node000015"><a xlink:href="ZynAddSubFx_2zynaddsubfx_2src_2Synth_2OscilGen_8h.html" target="_top" xlink:title=" ">
<polygon fill="white" stroke="#666666" points="284.62,-295.5 185.38,-295.5 185.38,-276.25 284.62,-276.25 284.62,-295.5"/>
<text xml:space="preserve" text-anchor="middle" x="235" y="-282" font-family="Helvetica,sans-Serif" font-size="10.00">../Synth/OscilGen.h</text>
</a>
</g>
</g>
<!-- Node3&#45;&gt;Node15 -->
<g id="edge11_Node000003_Node000015" class="edge">
<title>Node3&#45;&gt;Node15</title>
<g id="a_edge11_Node000003_Node000015"><a xlink:title=" ">
<path fill="none" stroke="#63b8ff" d="M497.04,-331.03C441.34,-321.65 354.61,-307.03 296.35,-297.21"/>
<polygon fill="#63b8ff" stroke="#63b8ff" points="297.03,-293.78 286.58,-295.57 295.86,-300.68 297.03,-293.78"/>
</a>
</g>
</g>
<!-- Node16 -->
<g id="Node000016" class="node">
<title>Node16</title>
<g id="a_Node000016"><a xlink:href="ZynAddSubFx_2zynaddsubfx_2src_2Params_2Presets_8h.html" target="_top" xlink:title=" ">
<polygon fill="#fff0f0" stroke="red" points="489.75,-185 388.25,-185 388.25,-165.75 489.75,-165.75 489.75,-185"/>
<text xml:space="preserve" text-anchor="middle" x="439" y="-171.5" font-family="Helvetica,sans-Serif" font-size="10.00">../Params/Presets.h</text>
</a>
</g>
</g>
<!-- Node3&#45;&gt;Node16 -->
<g id="edge40_Node000003_Node000016" class="edge">
<title>Node3&#45;&gt;Node16</title>
<g id="a_edge40_Node000003_Node000016"><a xlink:title=" ">
<path fill="none" stroke="#63b8ff" d="M519.41,-331.06C480.68,-318.06 416.78,-290.02 389,-240.25 378.98,-222.3 396.64,-204.05 413.68,-191.68"/>
<polygon fill="#63b8ff" stroke="#63b8ff" points="415.31,-194.8 421.64,-186.3 411.4,-189 415.31,-194.8"/>
</a>
</g>
</g>
<!-- Node20 -->
<g id="Node000020" class="node">
<title>Node20</title>
<g id="a_Node000020"><a xlink:href="ZynAddSubFx_2zynaddsubfx_2src_2Synth_2Resonance_8h.html" target="_top" xlink:title=" ">
<polygon fill="white" stroke="#666666" points="265.12,-240.25 192.88,-240.25 192.88,-221 265.12,-221 265.12,-240.25"/>
<text xml:space="preserve" text-anchor="middle" x="229" y="-226.75" font-family="Helvetica,sans-Serif" font-size="10.00">Resonance.h</text>
</a>
</g>
</g>
<!-- Node3&#45;&gt;Node20 -->
<g id="edge25_Node000003_Node000020" class="edge">
<title>Node3&#45;&gt;Node20</title>
<g id="a_edge25_Node000003_Node000020"><a xlink:title=" ">
<path fill="none" stroke="#63b8ff" d="M494.19,-331.01C454.49,-323.72 400.63,-311.98 355,-295.5 318.06,-282.16 278.04,-260.52 253.24,-246.18"/>
<polygon fill="#63b8ff" stroke="#63b8ff" points="255.3,-243.33 244.9,-241.29 251.76,-249.37 255.3,-243.33"/>
</a>
</g>
</g>
<!-- Node21 -->
<g id="Node000021" class="node">
<title>Node21</title>
<g id="a_Node000021"><a xlink:href="ZynAddSubFx_2zynaddsubfx_2src_2Misc_2Util_8h.html" target="_top" xlink:title=" ">
<polygon fill="#fff0f0" stroke="red" points="981,-74.5 911,-74.5 911,-55.25 981,-55.25 981,-74.5"/>
<text xml:space="preserve" text-anchor="middle" x="946" y="-61" font-family="Helvetica,sans-Serif" font-size="10.00">../Misc/Util.h</text>
</a>
</g>
</g>
<!-- Node3&#45;&gt;Node21 -->
<g id="edge26_Node000003_Node000021" class="edge">
<title>Node3&#45;&gt;Node21</title>
<g id="a_edge26_Node000003_Node000021"><a xlink:title=" ">
<path fill="none" stroke="#63b8ff" d="M607.75,-339.96C741.05,-338.04 1063,-323.85 1063,-231.62 1063,-231.62 1063,-231.62 1063,-174.38 1063,-128.43 1013.9,-96.48 979.31,-79.67"/>
<polygon fill="#63b8ff" stroke="#63b8ff" points="981.03,-76.61 970.49,-75.58 978.09,-82.96 981.03,-76.61"/>
</a>
</g>
</g>
<!-- Node23 -->
<g id="Node000023" class="node">
<title>Node23</title>
<g id="a_Node000023"><a xlink:href="ZynAddSubFx_2zynaddsubfx_2src_2Params_2EnvelopeParams_8h.html" target="_top" xlink:title=" ">
<polygon fill="white" stroke="#666666" points="494.5,-240.25 397.5,-240.25 397.5,-221 494.5,-221 494.5,-240.25"/>
<text xml:space="preserve" text-anchor="middle" x="446" y="-226.75" font-family="Helvetica,sans-Serif" font-size="10.00">EnvelopeParams.h</text>
</a>
</g>
</g>
<!-- Node3&#45;&gt;Node23 -->
<g id="edge27_Node000003_Node000023" class="edge">
<title>Node3&#45;&gt;Node23</title>
<g id="a_edge27_Node000003_Node000023"><a xlink:title=" ">
<path fill="none" stroke="#63b8ff" d="M542.41,-331.25C524.95,-313.21 485.07,-272 462.45,-248.63"/>
<polygon fill="#63b8ff" stroke="#63b8ff" points="465.23,-246.47 455.76,-241.71 460.2,-251.33 465.23,-246.47"/>
</a>
</g>
</g>
<!-- Node24 -->
<g id="Node000024" class="node">
<title>Node24</title>
<g id="a_Node000024"><a xlink:href="ZynAddSubFx_2zynaddsubfx_2src_2Params_2LFOParams_8h.html" target="_top" xlink:title=" ">
<polygon fill="white" stroke="#666666" points="589.38,-240.25 512.62,-240.25 512.62,-221 589.38,-221 589.38,-240.25"/>
<text xml:space="preserve" text-anchor="middle" x="551" y="-226.75" font-family="Helvetica,sans-Serif" font-size="10.00">LFOParams.h</text>
</a>
</g>
</g>
<!-- Node3&#45;&gt;Node24 -->
<g id="edge31_Node000003_Node000024" class="edge">
<title>Node3&#45;&gt;Node24</title>
<g id="a_edge31_Node000003_Node000024"><a xlink:title=" ">
<path fill="none" stroke="#63b8ff" d="M551,-331.25C551,-314 551,-275.58 551,-251.81"/>
<polygon fill="#63b8ff" stroke="#63b8ff" points="554.5,-252.14 551,-242.14 547.5,-252.14 554.5,-252.14"/>
</a>
</g>
</g>
<!-- Node25 -->
<g id="Node000025" class="node">
<title>Node25</title>
<g id="a_Node000025"><a xlink:href="ZynAddSubFx_2zynaddsubfx_2src_2Params_2FilterParams_8h.html" target="_top" xlink:title=" ">
<polygon fill="white" stroke="#666666" points="705.5,-295.5 626.5,-295.5 626.5,-276.25 705.5,-276.25 705.5,-295.5"/>
<text xml:space="preserve" text-anchor="middle" x="666" y="-282" font-family="Helvetica,sans-Serif" font-size="10.00">FilterParams.h</text>
</a>
</g>
</g>
<!-- Node3&#45;&gt;Node25 -->
<g id="edge34_Node000003_Node000025" class="edge">
<title>Node3&#45;&gt;Node25</title>
<g id="a_edge34_Node000003_Node000025"><a xlink:title=" ">
<path fill="none" stroke="#63b8ff" d="M570.51,-331.09C588.52,-322.75 615.52,-310.25 636.23,-300.66"/>
<polygon fill="#63b8ff" stroke="#63b8ff" points="637.42,-303.97 645.02,-296.59 634.48,-297.61 637.42,-303.97"/>
</a>
</g>
</g>
<!-- Node27 -->
<g id="Node000027" class="node">
<title>Node27</title>
<g id="a_Node000027"><a xlink:href="ThreadShims_8h.html" target="_top" xlink:title=" ">
<polygon fill="white" stroke="#666666" points="911.62,-295.5 830.38,-295.5 830.38,-276.25 911.62,-276.25 911.62,-295.5"/>
<text xml:space="preserve" text-anchor="middle" x="871" y="-282" font-family="Helvetica,sans-Serif" font-size="10.00">ThreadShims.h</text>
</a>
</g>
</g>
<!-- Node3&#45;&gt;Node27 -->
<g id="edge42_Node000003_Node000027" class="edge">
<title>Node3&#45;&gt;Node27</title>
<g id="a_edge42_Node000003_Node000027"><a xlink:title=" ">
<path fill="none" stroke="#63b8ff" d="M605.65,-331.03C665.39,-321.09 760.41,-305.28 819.06,-295.52"/>
<polygon fill="#63b8ff" stroke="#63b8ff" points="819.51,-298.99 828.8,-293.9 818.36,-292.09 819.51,-298.99"/>
</a>
</g>
</g>
<!-- Node5 -->
<g id="Node000005" class="node">
<title>Node5</title>
<g id="a_Node000005"><a xlink:href="QtXmlWrapper_8h.html" target="_top" xlink:title=" ">
<polygon fill="#fff0f0" stroke="red" points="580.62,-74.5 493.38,-74.5 493.38,-55.25 580.62,-55.25 580.62,-74.5"/>
<text xml:space="preserve" text-anchor="middle" x="537" y="-61" font-family="Helvetica,sans-Serif" font-size="10.00">QtXmlWrapper.h</text>
</a>
</g>
</g>
<!-- Node4&#45;&gt;Node5 -->
<g id="edge4_Node000004_Node000005" class="edge">
<title>Node4&#45;&gt;Node5</title>
<g id="a_edge4_Node000004_Node000005"><a xlink:title=" ">
<path fill="none" stroke="#63b8ff" d="M537,-110.33C537,-103.82 537,-94.67 537,-86.37"/>
<polygon fill="#63b8ff" stroke="#63b8ff" points="540.5,-86.37 537,-76.37 533.5,-86.37 540.5,-86.37"/>
</a>
</g>
</g>
<!-- Node5&#45;&gt;Node6 -->
<g id="edge5_Node000005_Node000006" class="edge">
<title>Node5&#45;&gt;Node6</title>
<g id="a_edge5_Node000005_Node000006"><a xlink:title=" ">
<path fill="none" stroke="#63b8ff" d="M493.12,-55.85C437.68,-45.7 342.93,-28.36 288.27,-18.36"/>
<polygon fill="#63b8ff" stroke="#63b8ff" points="289.19,-14.97 278.73,-16.61 287.93,-21.86 289.19,-14.97"/>
</a>
</g>
</g>
<!-- Node5&#45;&gt;Node8 -->
<g id="edge6_Node000005_Node000008" class="edge">
<title>Node5&#45;&gt;Node8</title>
<g id="a_edge6_Node000005_Node000008"><a xlink:title=" ">
<path fill="none" stroke="#63b8ff" d="M580.99,-59.06C677.75,-48.45 907.16,-23.32 991.33,-14.09"/>
<polygon fill="#63b8ff" stroke="#63b8ff" points="991.6,-17.59 1001.16,-13.02 990.84,-10.63 991.6,-17.59"/>
</a>
</g>
</g>
<!-- Node13 -->
<g id="Node000013" class="node">
<title>Node13</title>
<g id="a_Node000013"><a xlink:title=" ">
<polygon fill="#e0e0e0" stroke="#999999" points="142.25,-129.75 97.75,-129.75 97.75,-110.5 142.25,-110.5 142.25,-129.75"/>
<text xml:space="preserve" text-anchor="middle" x="120" y="-116.25" font-family="Helvetica,sans-Serif" font-size="10.00">fftw3.h</text>
</a>
</g>
</g>
<!-- Node12&#45;&gt;Node13 -->
<g id="edge8_Node000012_Node000013" class="edge">
<title>Node12&#45;&gt;Node13</title>
<g id="a_edge8_Node000012_Node000013"><a xlink:title=" ">
<path fill="none" stroke="#63b8ff" d="M94.12,-165.58C98.18,-158.61 103.99,-148.62 109.09,-139.87"/>
<polygon fill="#63b8ff" stroke="#63b8ff" points="112,-141.82 114.01,-131.42 105.95,-138.3 112,-141.82"/>
</a>
</g>
</g>
<!-- Node14 -->
<g id="Node000014" class="node">
<title>Node14</title>
<g id="a_Node000014"><a xlink:title=" ">
<polygon fill="#e0e0e0" stroke="#999999" points="80,-129.75 28,-129.75 28,-110.5 80,-110.5 80,-129.75"/>
<text xml:space="preserve" text-anchor="middle" x="54" y="-116.25" font-family="Helvetica,sans-Serif" font-size="10.00">complex</text>
</a>
</g>
</g>
<!-- Node12&#45;&gt;Node14 -->
<g id="edge9_Node000012_Node000014" class="edge">
<title>Node12&#45;&gt;Node14</title>
<g id="a_edge9_Node000012_Node000014"><a xlink:title=" ">
<path fill="none" stroke="#63b8ff" d="M83.22,-165.58C78.59,-158.53 71.93,-148.4 66.13,-139.58"/>
<polygon fill="#63b8ff" stroke="#63b8ff" points="69.15,-137.81 60.74,-131.37 63.3,-141.65 69.15,-137.81"/>
</a>
</g>
</g>
<!-- Node15&#45;&gt;Node4 -->
<g id="edge13_Node000015_Node000004" class="edge">
<title>Node15&#45;&gt;Node4</title>
<g id="a_edge13_Node000015_Node000004"><a xlink:title=" ">
<path fill="none" stroke="#63b8ff" d="M243.16,-275.93C263.75,-253.89 320.39,-196.5 379,-165.75 408.32,-150.37 443.56,-139.76 473.32,-132.75"/>
<polygon fill="#63b8ff" stroke="#63b8ff" points="473.97,-136.19 482.95,-130.58 472.42,-129.37 473.97,-136.19"/>
</a>
</g>
</g>
<!-- Node15&#45;&gt;Node6 -->
<g id="edge12_Node000015_Node000006" class="edge">
<title>Node15&#45;&gt;Node6</title>
<g id="a_edge12_Node000015_Node000006"><a xlink:title=" ">
<path fill="none" stroke="#63b8ff" d="M218.77,-275.9C206.69,-268.21 191.1,-255.89 184,-240.25 180.46,-232.46 182.97,-229.49 184,-221 193.18,-145.67 199.61,-126.76 225,-55.25 228.04,-46.68 232.17,-37.55 235.96,-29.79"/>
<polygon fill="#63b8ff" stroke="#63b8ff" points="239.03,-31.48 240.43,-20.98 232.79,-28.32 239.03,-31.48"/>
</a>
</g>
</g>
<!-- Node15&#45;&gt;Node12 -->
<g id="edge14_Node000015_Node000012" class="edge">
<title>Node15&#45;&gt;Node12</title>
<g id="a_edge14_Node000015_Node000012"><a xlink:title=" ">
<path fill="none" stroke="#63b8ff" d="M213.91,-275.91C196.24,-267.89 170.8,-255.13 151,-240.25 132.73,-226.52 114.88,-207.34 103.06,-193.59"/>
<polygon fill="#63b8ff" stroke="#63b8ff" points="105.99,-191.64 96.88,-186.23 100.63,-196.14 105.99,-191.64"/>
</a>
</g>
</g>
<!-- Node15&#45;&gt;Node16 -->
<g id="edge15_Node000015_Node000016" class="edge">
<title>Node15&#45;&gt;Node16</title>
<g id="a_edge15_Node000015_Node000016"><a xlink:title=" ">
<path fill="none" stroke="#63b8ff" d="M252.09,-275.77C275.36,-263.38 318.33,-240.5 355,-221 374.02,-210.89 395.46,-199.5 411.92,-190.75"/>
<polygon fill="#63b8ff" stroke="#63b8ff" points="413.42,-193.92 420.61,-186.14 410.13,-187.74 413.42,-193.92"/>
</a>
</g>
</g>
<!-- Node15&#45;&gt;Node20 -->
<g id="edge17_Node000015_Node000020" class="edge">
<title>Node15&#45;&gt;Node20</title>
<g id="a_edge17_Node000015_Node000020"><a xlink:title=" ">
<path fill="none" stroke="#63b8ff" d="M234.01,-276.08C233.27,-269.49 232.22,-260.21 231.28,-251.82"/>
<polygon fill="#63b8ff" stroke="#63b8ff" points="234.78,-251.66 230.18,-242.11 227.82,-252.44 234.78,-251.66"/>
</a>
</g>
</g>
<!-- Node16&#45;&gt;Node4 -->
<g id="edge16_Node000016_Node000004" class="edge">
<title>Node16&#45;&gt;Node4</title>
<g id="a_edge16_Node000016_Node000004"><a xlink:title=" ">
<path fill="none" stroke="#63b8ff" d="M455.62,-165.34C470.69,-157.16 493.14,-144.96 510.65,-135.44"/>
<polygon fill="#63b8ff" stroke="#63b8ff" points="511.85,-138.77 518.96,-130.93 508.51,-132.62 511.85,-138.77"/>
</a>
</g>
</g>
<!-- Node20&#45;&gt;Node4 -->
<g id="edge22_Node000020_Node000004" class="edge">
<title>Node20&#45;&gt;Node4</title>
<g id="a_edge22_Node000020_Node000004"><a xlink:title=" ">
<path fill="none" stroke="#63b8ff" d="M242.46,-220.69C263.65,-207 306.43,-180.85 346,-165.75 386.08,-150.45 432.96,-139.41 470.25,-132.13"/>
<polygon fill="#63b8ff" stroke="#63b8ff" points="470.83,-135.58 480,-130.27 469.53,-128.7 470.83,-135.58"/>
</a>
</g>
</g>
<!-- Node20&#45;&gt;Node6 -->
<g id="edge18_Node000020_Node000006" class="edge">
<title>Node20&#45;&gt;Node6</title>
<g id="a_edge18_Node000020_Node000006"><a xlink:title=" ">
<path fill="none" stroke="#63b8ff" d="M228.27,-220.84C226.33,-195.15 221.83,-118.02 232,-55.25 233.35,-46.94 235.9,-38.04 238.46,-30.39"/>
<polygon fill="#63b8ff" stroke="#63b8ff" points="241.71,-31.69 241.81,-21.09 235.13,-29.32 241.71,-31.69"/>
</a>
</g>
</g>
<!-- Node20&#45;&gt;Node12 -->
<g id="edge24_Node000020_Node000012" class="edge">
<title>Node20&#45;&gt;Node12</title>
<g id="a_edge24_Node000020_Node000012"><a xlink:title=" ">
<path fill="none" stroke="#63b8ff" d="M205.25,-220.59C182.83,-212.06 148.94,-199.17 123.53,-189.51"/>
<polygon fill="#63b8ff" stroke="#63b8ff" points="124.87,-186.27 114.28,-185.99 122.38,-192.82 124.87,-186.27"/>
</a>
</g>
</g>
<!-- Node20&#45;&gt;Node16 -->
<g id="edge23_Node000020_Node000016" class="edge">
<title>Node20&#45;&gt;Node16</title>
<g id="a_edge23_Node000020_Node000016"><a xlink:title=" ">
<path fill="none" stroke="#63b8ff" d="M264.62,-220.59C299.77,-211.68 353.69,-198.01 392.26,-188.23"/>
<polygon fill="#63b8ff" stroke="#63b8ff" points="392.9,-191.68 401.73,-185.82 391.18,-184.89 392.9,-191.68"/>
</a>
</g>
</g>
<!-- Node20&#45;&gt;Node21 -->
<g id="edge19_Node000020_Node000021" class="edge">
<title>Node20&#45;&gt;Node21</title>
<g id="a_edge19_Node000020_Node000021"><a xlink:title=" ">
<path fill="none" stroke="#63b8ff" d="M236.68,-220.94C249.12,-207.34 275.04,-181.03 302,-165.75 371.48,-126.37 394.78,-126.62 473,-110.5 626.92,-78.77 813.75,-69.55 899.23,-66.91"/>
<polygon fill="#63b8ff" stroke="#63b8ff" points="899.19,-70.41 909.09,-66.63 898.99,-63.42 899.19,-70.41"/>
</a>
</g>
</g>
<!-- Node21&#45;&gt;Node6 -->
<g id="edge21_Node000021_Node000006" class="edge">
<title>Node21&#45;&gt;Node6</title>
<g id="a_edge21_Node000021_Node000006"><a xlink:title=" ">
<path fill="none" stroke="#63b8ff" d="M910.81,-61.2C793.45,-52.27 415.76,-23.54 288.39,-13.85"/>
<polygon fill="#63b8ff" stroke="#63b8ff" points="288.96,-10.38 278.72,-13.11 288.43,-17.36 288.96,-10.38"/>
</a>
</g>
</g>
<!-- Node21&#45;&gt;Node8 -->
<g id="edge20_Node000021_Node000008" class="edge">
<title>Node21&#45;&gt;Node8</title>
<g id="a_edge20_Node000021_Node000008"><a xlink:title=" ">
<path fill="none" stroke="#63b8ff" d="M959.06,-54.84C970.46,-46.96 987.23,-35.36 1000.74,-26.02"/>
<polygon fill="#63b8ff" stroke="#63b8ff" points="1002.4,-29.13 1008.63,-20.56 998.41,-23.37 1002.4,-29.13"/>
</a>
</g>
</g>
<!-- Node23&#45;&gt;Node4 -->
<g id="edge29_Node000023_Node000004" class="edge">
<title>Node23&#45;&gt;Node4</title>
<g id="a_edge29_Node000023_Node000004"><a xlink:title=" ">
<path fill="none" stroke="#63b8ff" d="M458.83,-220.74C470.27,-212.4 487.01,-199.12 499,-185 510.74,-171.17 521.05,-153.26 527.96,-139.92"/>
<polygon fill="#63b8ff" stroke="#63b8ff" points="530.91,-141.85 532.24,-131.34 524.64,-138.73 530.91,-141.85"/>
</a>
</g>
</g>
<!-- Node23&#45;&gt;Node6 -->
<g id="edge28_Node000023_Node000006" class="edge">
<title>Node23&#45;&gt;Node6</title>
<g id="a_edge28_Node000023_Node000006"><a xlink:title=" ">
<path fill="none" stroke="#63b8ff" d="M429.2,-220.55C414.94,-212.37 394.39,-199.44 379,-185 325.88,-135.17 277.88,-62.44 257.01,-28.86"/>
<polygon fill="#63b8ff" stroke="#63b8ff" points="260.22,-27.4 252.01,-20.7 254.25,-31.06 260.22,-27.4"/>
</a>
</g>
</g>
<!-- Node23&#45;&gt;Node16 -->
<g id="edge30_Node000023_Node000016" class="edge">
<title>Node23&#45;&gt;Node16</title>
<g id="a_edge30_Node000023_Node000016"><a xlink:title=" ">
<path fill="none" stroke="#63b8ff" d="M444.84,-220.83C443.98,-214.24 442.76,-204.96 441.66,-196.57"/>
<polygon fill="#63b8ff" stroke="#63b8ff" points="445.15,-196.32 440.38,-186.86 438.21,-197.23 445.15,-196.32"/>
</a>
</g>
</g>
<!-- Node24&#45;&gt;Node4 -->
<g id="edge32_Node000024_Node000004" class="edge">
<title>Node24&#45;&gt;Node4</title>
<g id="a_edge32_Node000024_Node000004"><a xlink:title=" ">
<path fill="none" stroke="#63b8ff" d="M549.85,-220.75C547.63,-203.5 542.67,-165.08 539.61,-141.31"/>
<polygon fill="#63b8ff" stroke="#63b8ff" points="543.11,-141.1 538.36,-131.63 536.16,-141.99 543.11,-141.1"/>
</a>
</g>
</g>
<!-- Node24&#45;&gt;Node16 -->
<g id="edge33_Node000024_Node000016" class="edge">
<title>Node24&#45;&gt;Node16</title>
<g id="a_edge33_Node000024_Node000016"><a xlink:title=" ">
<path fill="none" stroke="#63b8ff" d="M532,-220.59C514.54,-212.29 488.4,-199.86 468.28,-190.29"/>
<polygon fill="#63b8ff" stroke="#63b8ff" points="469.99,-187.24 459.46,-186.1 466.99,-193.56 469.99,-187.24"/>
</a>
</g>
</g>
<!-- Node25&#45;&gt;Node4 -->
<g id="edge36_Node000025_Node000004" class="edge">
<title>Node25&#45;&gt;Node4</title>
<g id="a_edge36_Node000025_Node000004"><a xlink:title=" ">
<path fill="none" stroke="#63b8ff" d="M675.6,-276.01C687.93,-263.51 706.55,-240.09 696,-221 671.17,-176.08 616.73,-148.63 578.5,-134.16"/>
<polygon fill="#63b8ff" stroke="#63b8ff" points="579.72,-130.88 569.12,-130.76 577.33,-137.46 579.72,-130.88"/>
</a>
</g>
</g>
<!-- Node25&#45;&gt;Node6 -->
<g id="edge35_Node000025_Node000006" class="edge">
<title>Node25&#45;&gt;Node6</title>
<g id="a_edge35_Node000025_Node000006"><a xlink:title=" ">
<path fill="none" stroke="#63b8ff" d="M691.9,-275.79C728.51,-261.09 791,-228.39 791,-176.38 791,-176.38 791,-176.38 791,-119.12 791,-16.8 416.79,-9.55 288.53,-10.08"/>
<polygon fill="#63b8ff" stroke="#63b8ff" points="288.75,-6.58 278.77,-10.14 288.79,-13.58 288.75,-6.58"/>
</a>
</g>
</g>
<!-- Node26 -->
<g id="Node000026" class="node">
<title>Node26</title>
<g id="a_Node000026"><a xlink:href="ZynAddSubFx_2zynaddsubfx_2src_2Params_2PresetsArray_8h.html" target="_top" xlink:title=" ">
<polygon fill="white" stroke="#666666" points="686.88,-240.25 607.12,-240.25 607.12,-221 686.88,-221 686.88,-240.25"/>
<text xml:space="preserve" text-anchor="middle" x="647" y="-226.75" font-family="Helvetica,sans-Serif" font-size="10.00">PresetsArray.h</text>
</a>
</g>
</g>
<!-- Node25&#45;&gt;Node26 -->
<g id="edge37_Node000025_Node000026" class="edge">
<title>Node25&#45;&gt;Node26</title>
<g id="a_edge37_Node000025_Node000026"><a xlink:title=" ">
<path fill="none" stroke="#63b8ff" d="M662.86,-276.08C660.46,-269.34 657.04,-259.77 654,-251.24"/>
<polygon fill="#63b8ff" stroke="#63b8ff" points="657.37,-250.28 650.71,-242.03 650.78,-252.63 657.37,-250.28"/>
</a>
</g>
</g>
<!-- Node26&#45;&gt;Node4 -->
<g id="edge38_Node000026_Node000004" class="edge">
<title>Node26&#45;&gt;Node4</title>
<g id="a_edge38_Node000026_Node000004"><a xlink:title=" ">
<path fill="none" stroke="#63b8ff" d="M638,-220.75C619.71,-202.71 577.93,-161.5 554.24,-138.13"/>
<polygon fill="#63b8ff" stroke="#63b8ff" points="556.78,-135.72 547.2,-131.19 551.87,-140.7 556.78,-135.72"/>
</a>
</g>
</g>
<!-- Node26&#45;&gt;Node16 -->
<g id="edge39_Node000026_Node000016" class="edge">
<title>Node26&#45;&gt;Node16</title>
<g id="a_edge39_Node000026_Node000016"><a xlink:title=" ">
<path fill="none" stroke="#63b8ff" d="M611.72,-220.59C576.9,-211.68 523.5,-198.01 485.29,-188.23"/>
<polygon fill="#63b8ff" stroke="#63b8ff" points="486.48,-184.92 475.92,-185.83 484.74,-191.7 486.48,-184.92"/>
</a>
</g>
</g>
<!-- Node28 -->
<g id="Node000028" class="node">
<title>Node28</title>
<g id="a_Node000028"><a xlink:title=" ">
<polygon fill="#e0e0e0" stroke="#999999" points="1035,-240.25 941,-240.25 941,-221 1035,-221 1035,-240.25"/>
<text xml:space="preserve" text-anchor="middle" x="988" y="-226.75" font-family="Helvetica,sans-Serif" font-size="10.00">condition_variable</text>
</a>
</g>
</g>
<!-- Node27&#45;&gt;Node28 -->
<g id="edge43_Node000027_Node000028" class="edge">
<title>Node27&#45;&gt;Node28</title>
<g id="a_edge43_Node000027_Node000028"><a xlink:title=" ">
<path fill="none" stroke="#63b8ff" d="M890.85,-275.84C909.17,-267.5 936.65,-255 957.71,-245.41"/>
<polygon fill="#63b8ff" stroke="#63b8ff" points="959.03,-248.66 966.68,-241.33 956.13,-242.29 959.03,-248.66"/>
</a>
</g>
</g>
<!-- Node29 -->
<g id="Node000029" class="node">
<title>Node29</title>
<g id="a_Node000029"><a xlink:title=" ">
<polygon fill="#e0e0e0" stroke="#999999" points="861.12,-240.25 818.88,-240.25 818.88,-221 861.12,-221 861.12,-240.25"/>
<text xml:space="preserve" text-anchor="middle" x="840" y="-226.75" font-family="Helvetica,sans-Serif" font-size="10.00">mutex</text>
</a>
</g>
</g>
<!-- Node27&#45;&gt;Node29 -->
<g id="edge44_Node000027_Node000029" class="edge">
<title>Node27&#45;&gt;Node29</title>
<g id="a_edge44_Node000027_Node000029"><a xlink:title=" ">
<path fill="none" stroke="#63b8ff" d="M865.88,-276.08C861.82,-269.11 856.01,-259.12 850.91,-250.37"/>
<polygon fill="#63b8ff" stroke="#63b8ff" points="854.05,-248.8 845.99,-241.92 848,-252.32 854.05,-248.8"/>
</a>
</g>
</g>
<!-- Node30 -->
<g id="Node000030" class="node">
<title>Node30</title>
<g id="a_Node000030"><a xlink:title=" ">
<polygon fill="#e0e0e0" stroke="#999999" points="922.5,-240.25 879.5,-240.25 879.5,-221 922.5,-221 922.5,-240.25"/>
<text xml:space="preserve" text-anchor="middle" x="901" y="-226.75" font-family="Helvetica,sans-Serif" font-size="10.00">thread</text>
</a>
</g>
</g>
<!-- Node27&#45;&gt;Node30 -->
<g id="edge45_Node000027_Node000030" class="edge">
<title>Node27&#45;&gt;Node30</title>
<g id="a_edge45_Node000027_Node000030"><a xlink:title=" ">
<path fill="none" stroke="#63b8ff" d="M875.95,-276.08C879.88,-269.11 885.51,-259.12 890.44,-250.37"/>
<polygon fill="#63b8ff" stroke="#63b8ff" points="893.34,-252.36 895.2,-241.93 887.24,-248.92 893.34,-252.36"/>
</a>
</g>
</g>
<!-- Node31&#45;&gt;Node8 -->
<g id="edge47_Node000031_Node000008" class="edge">
<title>Node31&#45;&gt;Node8</title>
<g id="a_edge47_Node000031_Node000008"><a xlink:title=" ">
<path fill="none" stroke="#63b8ff" d="M1148.38,-54.84C1122.35,-45.66 1082,-31.43 1054.14,-21.61"/>
<polygon fill="#63b8ff" stroke="#63b8ff" points="1055.43,-18.35 1044.83,-18.32 1053.1,-24.95 1055.43,-18.35"/>
</a>
</g>
</g>
</g>
</svg>

<g id="navigator" transform="translate(0 0)" fill="#404254">
  <rect fill="#f2f5e9" fill-opacity="0.5" stroke="#606060" stroke-width=".5" x="0" y="0" width="60" height="60"/>
  <use id="zoomplus" xlink:href="#zoomPlus" x="17" y="9" onmousedown="handleZoom(evt,'in')"/>
  <use id="zoomminus" xlink:href="#zoomMin" x="42" y="9" onmousedown="handleZoom(evt,'out')"/>
  <use id="reset" xlink:href="#resetDef" x="30" y="36" onmousedown="handleReset()"/>
   <use id="arrowup" xlink:href="#arrowUp" x="0" y="0" onmousedown="handlePan(0,-1)"/>
  <use id="arrowright" xlink:href="#arrowRight" x="0" y="0" onmousedown="handlePan(1,0)"/>
  <use id="arrowdown" xlink:href="#arrowDown" x="0" y="0" onmousedown="handlePan(0,1)"/>
  <use id="arrowleft" xlink:href="#arrowLeft" x="0" y="0" onmousedown="handlePan(-1,0)"/>
</g>
<svg viewBox="0 0 15 15" width="100%" height="30px" preserveAspectRatio="xMaxYMin meet">
 <g id="arrow_out" transform="scale(0.3 0.3)">
  <a xlink:href="ZynAddSubFx_2zynaddsubfx_2src_2Params_2PADnoteParameters_8cpp__incl_org.svg" target="_base">
   <rect id="button" ry="5" rx="5" y="6" x="6" height="38" width="38"
        fill="#f2f5e9" fill-opacity="0.5" stroke="#606060" stroke-width="1.0"/>
   <path id="arrow"
     d="M 11.500037,31.436501 C 11.940474,20.09759 22.043105,11.32322 32.158766,21.979434 L 37.068811,17.246167 C 37.068811,17.246167 37.088388,32 37.088388,32 L 22.160133,31.978069 C 22.160133,31.978069 26.997745,27.140456 26.997745,27.140456 C 18.528582,18.264221 13.291696,25.230495 11.500037,31.436501 z"
     style="fill:#404040;"/>
  </a>
 </g>
</svg>

<style type='text/css'>
<![CDATA[
[data-mouse-over-selected='false'] { opacity: 0.7; }
[data-mouse-over-selected='true']  { opacity: 1.0; }
]]>
</style>
<script type="application/ecmascript"><![CDATA[
document.addEventListener('DOMContentLoaded', (event) => {
  highlightEdges();
  highlightAdjacentNodes();
});
]]></script>
</svg>
